<svg width="22" height="25" viewBox="0 0 22 25" fill="none" xmlns="http://www.w3.org/2000/svg">
<path d="M21.5443 5.216L11.33 0.571583C11.2266 0.524426 11.114 0.5 11 0.5C10.886 0.5 10.7734 0.524426 10.67 0.571583L0.455717 5.216C0.319332 5.27818 0.20391 5.3776 0.123137 5.50245C0.0423648 5.6273 -0.000369462 5.77235 2.40644e-06 5.92041V19.0796C-0.000369462 19.2276 0.0423648 19.3727 0.123137 19.4976C0.20391 19.6224 0.319332 19.7218 0.455717 19.784L10.67 24.4284C10.7734 24.4756 10.886 24.5 11 24.5C11.114 24.5 11.2266 24.4756 11.33 24.4284L21.5443 19.784C21.6807 19.7218 21.7961 19.6224 21.8769 19.4976C21.9576 19.3727 22.0004 19.2276 22 19.0796V5.92041C22.0004 5.77235 21.9576 5.6273 21.8769 5.50245C21.7961 5.3776 21.6807 5.27818 21.5443 5.216ZM11 9.71335L2.66357 5.92041L11 2.12746L19.3364 5.92041L11 9.71335ZM20.4286 18.5842L11.7857 22.5165V11.0602L20.4286 7.12795V18.5842Z" fill="#5B5B5B"/>
</svg>
