<svg width="20" height="16" viewBox="0 0 20 16" fill="none" xmlns="http://www.w3.org/2000/svg">
<path d="M18.5006 2.08739H13.2184L12.1518 0.29551C12.0475 0.120315 11.8587 0.0129776 11.6548 0.0129776H8.30013C8.09623 0.0129776 7.9074 0.120315 7.80312 0.29551L6.73649 2.08739H5.00318V1.69246C5.00318 1.37304 4.74422 1.11408 4.42481 1.11408H2.28474C1.96526 1.11408 1.70636 1.37304 1.70636 1.69246V2.08739H1.45442C0.651104 2.08739 0 2.73856 0 3.54174V14.072C0 14.8752 0.651104 15.5264 1.45435 15.5264H18.5006C19.3038 15.5264 19.955 14.8752 19.955 14.072V3.54174C19.9551 2.73856 19.3038 2.08739 18.5006 2.08739ZM9.97747 12.9467C7.6911 12.9467 5.83766 11.0932 5.83766 8.80681C5.83766 6.52051 7.6911 4.667 9.97747 4.667C12.2638 4.667 14.1173 6.52051 14.1173 8.80681C14.1173 11.0932 12.2638 12.9467 9.97747 12.9467ZM17.5932 5.08583H15.7808C15.4614 5.08583 15.2025 4.82687 15.2025 4.50739C15.2025 4.18791 15.4614 3.92895 15.7808 3.92895H17.5932C17.9127 3.92895 18.1716 4.18791 18.1716 4.50739C18.1716 4.82687 17.9127 5.08583 17.5932 5.08583Z" fill="#5B5B5B"/>
</svg>
