<svg width="10" height="10" viewBox="0 0 10 10" fill="none" xmlns="http://www.w3.org/2000/svg">
<path d="M4.2257 0H0.384154C0.171985 0 0 0.171985 0 0.384154V4.2257C0 4.43787 0.171985 4.60985 0.384154 4.60985H4.2257C4.43787 4.60985 4.60985 4.43787 4.60985 4.2257V0.384154C4.60985 0.171985 4.43787 0 4.2257 0Z" fill="#5B5B5B"/>
<path d="M9.60387 0H5.76233C5.55016 0 5.37817 0.171985 5.37817 0.384154V4.2257C5.37817 4.43787 5.55016 4.60985 5.76233 4.60985H9.60387C9.81604 4.60985 9.98803 4.43787 9.98803 4.2257V0.384154C9.98803 0.171985 9.81604 0 9.60387 0Z" fill="#5B5B5B"/>
<path d="M4.2257 5.37816H0.384154C0.171985 5.37816 0 5.55015 0 5.76232V9.60386C0 9.81603 0.171985 9.98801 0.384154 9.98801H4.2257C4.43787 9.98801 4.60985 9.81603 4.60985 9.60386V5.76232C4.60985 5.55015 4.43787 5.37816 4.2257 5.37816Z" fill="#5B5B5B"/>
<path d="M9.60387 5.37816H5.76233C5.55016 5.37816 5.37817 5.55015 5.37817 5.76232V9.60386C5.37817 9.81603 5.55016 9.98801 5.76233 9.98801H9.60387C9.81604 9.98801 9.98803 9.81603 9.98803 9.60386V5.76232C9.98803 5.55015 9.81604 5.37816 9.60387 5.37816Z" fill="#5B5B5B"/>
</svg>
