<svg id="Layer_1" data-name="Layer 1" xmlns="http://www.w3.org/2000/svg" viewBox="0 0 10 10"><defs><style>.cls-1{fill:#d1d1d1;}</style></defs><path class="cls-1" d="M4.23,0H.38A.38.38,0,0,0,0,.38V4.23a.38.38,0,0,0,.38.38H4.23a.38.38,0,0,0,.38-.38V.38A.38.38,0,0,0,4.23,0Z"/><path class="cls-1" d="M9.6,0H5.76a.38.38,0,0,0-.38.38V4.23a.38.38,0,0,0,.38.38H9.6A.38.38,0,0,0,10,4.23V.38A.38.38,0,0,0,9.6,0Z"/><path class="cls-1" d="M4.23,5.38H.38A.38.38,0,0,0,0,5.76V9.6A.38.38,0,0,0,.38,10H4.23a.38.38,0,0,0,.38-.39V5.76A.38.38,0,0,0,4.23,5.38Z"/><path class="cls-1" d="M9.6,5.38H5.76a.38.38,0,0,0-.38.38V9.6a.38.38,0,0,0,.38.39H9.6A.38.38,0,0,0,10,9.6V5.76A.38.38,0,0,0,9.6,5.38Z"/></svg>