<svg width="20" height="25" viewBox="0 0 20 25" fill="none" xmlns="http://www.w3.org/2000/svg">
<path d="M18.8213 0H0.964147C0.727346 0 0.500245 0.0940686 0.332801 0.261512C0.165358 0.428955 0.0712891 0.656057 0.0712891 0.892858V24.1072C0.0712932 24.2754 0.118815 24.4402 0.208381 24.5826C0.297947 24.7249 0.425913 24.8391 0.577538 24.912C0.729164 24.9848 0.89828 25.0133 1.06541 24.9942C1.23253 24.9752 1.39087 24.9093 1.52218 24.8041L9.89273 18.1077L18.2633 24.8041C18.3946 24.9093 18.5529 24.9752 18.72 24.9942C18.8872 25.0133 19.0563 24.9848 19.2079 24.912C19.3595 24.8391 19.4875 24.7249 19.5771 24.5826C19.6666 24.4402 19.7142 24.2754 19.7142 24.1072V0.892858C19.7142 0.656057 19.6201 0.428955 19.4527 0.261512C19.2852 0.0940686 19.0581 0 18.8213 0Z" fill="#5B5B5B"/>
</svg>
