<svg width="20" height="20" viewBox="0 0 20 20" fill="none" xmlns="http://www.w3.org/2000/svg">
<path d="M20 3V1C20 0.734784 19.8946 0.48043 19.7071 0.292893C19.5196 0.105357 19.2652 0 19 0H17C16.7348 0 16.4804 0.105357 16.2929 0.292893C16.1054 0.48043 16 0.734784 16 1H4C4 0.734784 3.89464 0.48043 3.70711 0.292893C3.51957 0.105357 3.26522 0 3 0H1C0.734784 0 0.48043 0.105357 0.292893 0.292893C0.105357 0.48043 0 0.734784 0 1V3C0 3.26522 0.105357 3.51957 0.292893 3.70711C0.48043 3.89464 0.734784 4 1 4V16C0.734784 16 0.48043 16.1054 0.292893 16.2929C0.105357 16.4804 0 16.7348 0 17V19C0 19.2652 0.105357 19.5196 0.292893 19.7071C0.48043 19.8946 0.734784 20 1 20H3C3.26522 20 3.51957 19.8946 3.70711 19.7071C3.89464 19.5196 4 19.2652 4 19H16C16 19.2652 16.1054 19.5196 16.2929 19.7071C16.4804 19.8946 16.7348 20 17 20H19C19.2652 20 19.5196 19.8946 19.7071 19.7071C19.8946 19.5196 20 19.2652 20 19V17C20 16.7348 19.8946 16.4804 19.7071 16.2929C19.5196 16.1054 19.2652 16 19 16V4C19.2652 4 19.5196 3.89464 19.7071 3.70711C19.8946 3.51957 20 3.26522 20 3ZM17 16C16.7348 16 16.4804 16.1054 16.2929 16.2929C16.1054 16.4804 16 16.7348 16 17H4C4 16.7348 3.89464 16.4804 3.70711 16.2929C3.51957 16.1054 3.26522 16 3 16V4C3.26522 4 3.51957 3.89464 3.70711 3.70711C3.89464 3.51957 4 3.26522 4 3H16C16 3.26522 16.1054 3.51957 16.2929 3.70711C16.4804 3.89464 16.7348 4 17 4V16ZM12 10V7C11.9995 6.46973 11.7886 5.96133 11.4136 5.58637C11.0387 5.21141 10.5303 5.00053 10 5H7C6.46973 5.00053 5.96133 5.21141 5.58637 5.58637C5.21141 5.96133 5.00053 6.46973 5 7V10C5.00053 10.5303 5.21141 11.0387 5.58637 11.4136C5.96133 11.7886 6.46973 11.9995 7 12H10C10.5303 11.9995 11.0387 11.7886 11.4136 11.4136C11.7886 11.0387 11.9995 10.5303 12 10ZM7 7H10L10.0015 10H7V7ZM14 8C13.7348 8 13.4804 8.10536 13.2929 8.29289C13.1054 8.48043 13 8.73478 13 9V13H9C8.73478 13 8.48043 13.1054 8.29289 13.2929C8.10536 13.4804 8 13.7348 8 14C8 14.2652 8.10536 14.5196 8.29289 14.7071C8.48043 14.8946 8.73478 15 9 15H13C13.5303 14.9995 14.0387 14.7886 14.4136 14.4136C14.7886 14.0387 14.9995 13.5303 15 13V9C15 8.73478 14.8946 8.48043 14.7071 8.29289C14.5196 8.10536 14.2652 8 14 8Z" fill="#5B5B5B"/>
</svg>
