<?xml version="1.0" encoding="utf-8"?>
<!-- Generator: Adobe Illustrator 25.0.0, SVG Export Plug-In . SVG Version: 6.00 Build 0)  -->
<svg version="1.1" id="Layer_1" xmlns="http://www.w3.org/2000/svg" xmlns:xlink="http://www.w3.org/1999/xlink" x="0px" y="0px"
	 viewBox="0 0 20 19" style="enable-background:new 0 0 20 19;" xml:space="preserve">
<style type="text/css">
	.st0{fill:#FFFFFF;stroke:#FFFFFF;stroke-width:2;stroke-linecap:round;stroke-linejoin:round;}
</style>
<path class="st0" d="M17.4,3.3c-0.4-0.4-0.9-0.8-1.5-1S14.7,2,14.1,2c-0.6,0-1.2,0.1-1.8,0.3s-1.1,0.6-1.5,1L10,4.2L9.1,3.3
	C8.3,2.5,7.1,2,5.9,2S3.5,2.5,2.6,3.3c-0.9,0.9-1.3,2-1.3,3.2S1.8,9,2.6,9.8l0.9,0.9l6.5,6.5l6.5-6.5l0.9-0.9c0.4-0.4,0.8-0.9,1-1.5
	c0.2-0.6,0.3-1.2,0.3-1.8s-0.1-1.2-0.3-1.8C18.1,4.3,17.8,3.8,17.4,3.3L17.4,3.3z"/>
</svg>
