<svg width="20" height="19" viewBox="0 0 20 19" fill="none" xmlns="http://www.w3.org/2000/svg">
<path d="M17.3666 3.34172C16.941 2.91589 16.4356 2.5781 15.8794 2.34763C15.3232 2.11716 14.727 1.99854 14.1249 1.99854C13.5229 1.99854 12.9267 2.11716 12.3705 2.34763C11.8143 2.5781 11.3089 2.91589 10.8833 3.34172L9.99994 4.22506L9.1166 3.34172C8.25686 2.48198 7.0908 1.99898 5.87494 1.99898C4.65908 1.99898 3.49301 2.48198 2.63327 3.34172C1.77353 4.20147 1.29053 5.36753 1.29053 6.58339C1.29053 7.79925 1.77353 8.96531 2.63327 9.82506L3.5166 10.7084L9.99994 17.1917L16.4833 10.7084L17.3666 9.82506C17.7924 9.39943 18.1302 8.89407 18.3607 8.33785C18.5912 7.78164 18.7098 7.18546 18.7098 6.58339C18.7098 5.98132 18.5912 5.38514 18.3607 4.82893C18.1302 4.27271 17.7924 3.76735 17.3666 3.34172V3.34172Z" stroke="white" stroke-width="2" stroke-linecap="round" stroke-linejoin="round"/>
</svg>
