<svg width="20" height="20" viewBox="0 0 20 20" fill="none" xmlns="http://www.w3.org/2000/svg">
<rect width="20" height="20" rx="10" fill="white"/>
<path fill-rule="evenodd" clip-rule="evenodd" d="M12.8439 11.199C11.9805 12.1765 10.7127 13.5507 10.1533 14.1524C9.58046 13.5507 8.27404 12.1765 7.38488 11.1964C6.10789 9.79064 5.66619 9.25462 5.66619 8.30608C5.66619 7.42585 6.3956 6.15411 7.71437 6.15411C9.46143 6.15674 9.75598 7.66233 9.76859 7.73327C9.76938 7.7359 9.77122 7.74115 9.77201 7.74378C9.7749 7.75692 9.7791 7.77006 9.78331 7.78319C9.78698 7.79633 9.7904 7.80684 9.79539 7.81998C9.80038 7.83049 9.80669 7.841 9.813 7.85414C9.81904 7.86465 9.82456 7.87516 9.83139 7.88567C9.83953 7.89618 9.84873 7.90669 9.85793 7.91983C9.86476 7.92771 9.8708 7.93559 9.8779 7.94085C9.88998 7.95399 9.90312 7.9645 9.91652 7.97501C9.92256 7.98026 9.92808 7.98552 9.93439 7.98814C9.94937 7.99865 9.96539 8.00654 9.98221 8.01705C9.98825 8.01967 9.99403 8.0223 10.0006 8.02493C10.0164 8.03281 10.0332 8.03807 10.0503 8.04332C10.0587 8.04595 10.0671 8.04595 10.0755 8.04858C10.0815 8.0512 10.087 8.05383 10.0931 8.05383C10.1036 8.05646 10.1139 8.05383 10.1244 8.05646C10.1346 8.05646 10.1443 8.05646 10.1546 8.05646C10.1706 8.05646 10.1861 8.05646 10.2019 8.05383C10.2087 8.05383 10.2158 8.05383 10.2226 8.05383C10.2268 8.05383 10.2305 8.05121 10.2345 8.05121C10.2494 8.04858 10.2634 8.04332 10.2775 8.03807C10.2883 8.03544 10.2994 8.03281 10.3099 8.02756C10.3225 8.0223 10.3343 8.01442 10.3464 8.00916C10.3569 8.00391 10.3674 7.99865 10.3771 7.99077C10.3882 7.98289 10.3982 7.97501 10.4084 7.96712C10.4176 7.95924 10.4268 7.95136 10.4355 7.94348C10.4449 7.93297 10.4531 7.92246 10.4617 7.91194C10.4691 7.90406 10.4767 7.89355 10.4833 7.88567C10.4906 7.87516 10.4964 7.86202 10.5027 7.85151C10.5088 7.83837 10.5148 7.82786 10.5198 7.81735C10.5243 7.80684 10.5277 7.7937 10.5314 7.78319C10.5356 7.77006 10.5398 7.75429 10.5427 7.74115C10.5435 7.7359 10.5453 7.73327 10.5458 7.72802C10.5566 7.66496 10.8238 6.15674 12.5344 6.15411C13.8116 6.15411 14.5179 7.42585 14.5179 8.30608C14.5179 9.25725 14.0875 9.79327 12.8439 11.199ZM12.5344 5.36584C11.3005 5.36847 10.5576 5.98595 10.1525 6.6297C9.73785 5.98595 8.97744 5.36847 7.71463 5.36584C6.04299 5.36584 4.87793 6.9161 4.87793 8.30607C4.87793 9.60671 5.56109 10.3608 6.80156 11.7245C7.96951 13.012 9.85346 14.9801 9.87238 15.0011C9.87606 15.0037 9.88026 15.0063 9.88394 15.009C9.88578 15.0116 9.8863 15.0142 9.88841 15.0168C9.89156 15.0195 9.89576 15.0195 9.89918 15.0221C9.9336 15.0536 9.97117 15.0773 10.0119 15.093C10.0156 15.0957 10.0198 15.0957 10.0235 15.0957C10.0666 15.1114 10.1115 15.1219 10.1569 15.1219H10.1572C10.2037 15.1219 10.2497 15.1114 10.2936 15.0957C10.2973 15.0957 10.3009 15.093 10.3046 15.093C10.3461 15.0746 10.3848 15.051 10.4197 15.0195C10.4229 15.0168 10.4268 15.0142 10.4297 15.0116C10.4315 15.0116 10.432 15.009 10.4339 15.0063C10.4373 15.0037 10.4418 15.0011 10.4454 14.9958C10.4636 14.9774 12.2979 13.0094 13.4346 11.7219C14.6414 10.3556 15.3062 9.60408 15.3062 8.30607C15.3062 6.9161 14.1679 5.36584 12.5344 5.36584Z" fill="#D1D1D1"/>
</svg>
