<svg width="24" height="25" viewBox="0 0 24 25" fill="none" xmlns="http://www.w3.org/2000/svg">
<path fill-rule="evenodd" clip-rule="evenodd" d="M11.536 0.648313C11.6715 0.551842 11.8337 0.5 12 0.5C12.1663 0.5 12.3285 0.551842 12.464 0.648313L23.664 8.64864C23.7678 8.72257 23.8525 8.82024 23.9109 8.93352C23.9694 9.0468 23.9999 9.1724 24 9.29987V15.7001C23.9999 15.8276 23.9694 15.9532 23.9109 16.0665C23.8525 16.1798 23.7678 16.2774 23.664 16.3514L12.464 24.3517C12.3285 24.4482 12.1663 24.5 12 24.5C11.8337 24.5 11.6715 24.4482 11.536 24.3517L0.336 16.3514C0.232168 16.2774 0.147503 16.1798 0.0890574 16.0665C0.0306122 15.9532 7.85941e-05 15.8276 0 15.7001L0 9.29987C7.85941e-05 9.1724 0.0306122 9.0468 0.0890574 8.93352C0.147503 8.82024 0.232168 8.72257 0.336 8.64864L11.536 0.648313ZM1.6 10.8551L3.904 12.5L1.6 14.1449V10.8551ZM2.176 15.7001L11.2 22.1452V17.713L5.28 13.4808L2.176 15.7001ZM6.656 12.5L12 16.3178L17.344 12.5L12 8.68224L6.656 12.5ZM12.8 7.28859L18.72 11.5176L21.824 9.29987L12.8 2.8548V7.28699V7.28859ZM11.2 2.8548V7.28699L5.28 11.5192L2.176 9.29987L11.2 2.8548ZM22.4 10.8551L20.096 12.5L22.4 14.1449V10.8551ZM21.824 15.7001L18.72 13.4824L12.8 17.7114V22.1452L21.824 15.7001Z" fill="#5B5B5B"/>
</svg>
