<svg width="25" height="25" viewBox="0 0 25 25" fill="none" xmlns="http://www.w3.org/2000/svg">
<path d="M17.8265 16.0121C17.5301 16.568 17.2779 17.1464 17.0725 17.7419C20.2378 18.1855 22.4032 19.0766 22.4032 20.1048C22.4032 21.5766 17.9677 22.7702 12.4999 22.7702C7.03219 22.7702 2.59671 21.5605 2.59671 20.1048C2.59671 19.0766 4.76203 18.1855 7.92735 17.7419C7.72252 17.1422 7.47039 16.5598 7.17332 16C3.11284 16.7419 0.318481 18.2984 0.318481 20.1048C0.318481 22.629 5.77816 24.6774 12.508 24.6774C19.2378 24.6774 24.6975 22.629 24.6975 20.1048C24.6894 18.3105 21.887 16.754 17.8265 16.0121Z" fill="#5B5B5B"/>
<path d="M12.5 6.40726C14.1836 6.40726 15.5484 5.04245 15.5484 3.35887C15.5484 1.6753 14.1836 0.310486 12.5 0.310486C10.8165 0.310486 9.45166 1.6753 9.45166 3.35887C9.45166 5.04245 10.8165 6.40726 12.5 6.40726Z" fill="#5B5B5B"/>
<path d="M9.45156 15.5484V20.117C9.45156 20.3171 9.49099 20.5153 9.56758 20.7002C9.64418 20.8852 9.75645 21.0532 9.89799 21.1947C10.0395 21.3363 10.2075 21.4485 10.3925 21.5251C10.5774 21.6017 10.7756 21.6411 10.9758 21.6411H14.0241C14.2243 21.6411 14.4225 21.6017 14.6074 21.5251C14.7923 21.4485 14.9604 21.3363 15.1019 21.1947C15.2434 21.0532 15.3557 20.8852 15.4323 20.7002C15.5089 20.5153 15.5483 20.3171 15.5483 20.117V15.5484C15.9523 15.5473 16.3393 15.3864 16.6249 15.1008C16.9105 14.8152 17.0715 14.4281 17.0725 14.0242V9.45163C17.0725 9.15158 17.0134 8.85448 16.8984 8.57732C16.7835 8.30016 16.615 8.04839 16.4026 7.83641C16.1903 7.62443 15.9382 7.4564 15.6609 7.34194C15.3835 7.22749 15.0863 7.16885 14.7862 7.16938H14.2217C13.6821 7.41903 13.0946 7.54834 12.4999 7.54834C11.9053 7.54834 11.3178 7.41903 10.7782 7.16938H10.2137C9.91361 7.16885 9.6164 7.22749 9.33904 7.34194C9.06168 7.4564 8.80961 7.62443 8.59725 7.83641C8.3849 8.04839 8.21643 8.30016 8.10148 8.57732C7.98653 8.85448 7.92737 9.15158 7.92737 9.45163V14.0242C7.92843 14.4281 8.08936 14.8152 8.37497 15.1008C8.66058 15.3864 9.04765 15.5473 9.45156 15.5484Z" fill="#5B5B5B"/>
</svg>
