<svg width="26" height="25" viewBox="0 0 26 25" fill="none" xmlns="http://www.w3.org/2000/svg">
<path fill-rule="evenodd" clip-rule="evenodd" d="M25.7141 12.5C25.7141 19.4036 20.1177 25 13.2141 25C6.31055 25 0.714111 19.4036 0.714111 12.5C0.714111 5.59644 6.31055 0 13.2141 0C20.1177 0 25.7141 5.59644 25.7141 12.5ZM13.0359 15.2752H12.1234C12.0842 15.2783 12.0447 15.2732 12.0075 15.2601C11.9704 15.247 11.9364 15.2262 11.9079 15.199C11.8793 15.1719 11.8568 15.139 11.8419 15.1026C11.8269 15.0662 11.8197 15.027 11.8209 14.9877C11.7849 14.203 11.847 13.4169 12.0059 12.6477C12.0985 12.2692 12.2931 11.9233 12.5684 11.6477C12.7591 11.4455 12.9615 11.2608 13.1666 11.0736L13.1666 11.0736C13.2304 11.0154 13.2944 10.9569 13.3584 10.8977C13.6284 10.6477 13.9509 10.3727 14.2559 10.1227C14.8559 9.62266 14.7834 8.75266 14.0334 8.34266C13.8183 8.22579 13.5811 8.15535 13.3371 8.13588C13.0931 8.11641 12.8477 8.14835 12.6168 8.22964C12.3859 8.31092 12.1746 8.43975 11.9966 8.60778C11.8186 8.77582 11.6779 8.97933 11.5834 9.20516C11.5222 9.35802 11.4721 9.51509 11.4334 9.67516C11.3734 9.89266 11.2734 9.97016 11.0484 9.94266L9.26592 9.72766C9.22016 9.72575 9.17537 9.71388 9.13467 9.69288C9.09397 9.67189 9.05834 9.64227 9.03026 9.6061C9.00218 9.56992 8.98232 9.52806 8.97207 9.48343C8.96182 9.43879 8.96143 9.39246 8.97092 9.34766C9.05324 8.55333 9.39363 7.80787 9.93997 7.22541C10.4863 6.64295 11.2085 6.2556 11.9959 6.12266C13.0497 5.88922 14.15 5.9906 15.1434 6.41266C15.5847 6.59318 15.983 6.86455 16.3125 7.20912C16.642 7.5537 16.8953 7.96376 17.0559 8.41266C17.2274 8.84992 17.2793 9.32495 17.2064 9.78893C17.1334 10.2529 16.9383 10.6891 16.6409 11.0527C16.2123 11.5717 15.7296 12.0435 15.2009 12.4602C15.1317 12.5201 15.0637 12.5818 14.9956 12.6435L14.9955 12.6436C14.8989 12.7312 14.8021 12.8191 14.7009 12.9027C14.5667 13.0128 14.4596 13.1525 14.3881 13.3107C14.3165 13.469 14.2824 13.6416 14.2884 13.8152C14.2884 14.054 14.2787 14.2918 14.2689 14.5299V14.5299L14.2689 14.53C14.263 14.6732 14.2572 14.8165 14.2534 14.9602C14.2581 15.0056 14.2526 15.0516 14.2373 15.0947C14.222 15.1378 14.1973 15.1769 14.165 15.2092C14.1327 15.2416 14.0935 15.2663 14.0504 15.2816C14.0074 15.2969 13.9614 15.3024 13.9159 15.2977H13.0359V15.2752ZM14.1152 18.6921C14.2526 18.4866 14.3259 18.2449 14.3259 17.9977C14.3259 17.6661 14.1942 17.3482 13.9598 17.1138C13.7254 16.8793 13.4074 16.7477 13.0759 16.7477C12.8287 16.7477 12.587 16.821 12.3815 16.9583C12.1759 17.0957 12.0157 17.2909 11.9211 17.5193C11.8265 17.7477 11.8017 17.999 11.8499 18.2415C11.8982 18.484 12.0172 18.7067 12.192 18.8815C12.3668 19.0564 12.5896 19.1754 12.8321 19.2236C13.0745 19.2719 13.3259 19.2471 13.5543 19.1525C13.7827 19.0579 13.9779 18.8977 14.1152 18.6921Z" fill="#5B5B5B"/>
</svg>
