<svg width="26" height="25" viewBox="0 0 26 25" fill="none" xmlns="http://www.w3.org/2000/svg">
<path d="M23.875 4.1666C23.875 6.03638 22.3594 7.55215 20.4896 7.55215C18.6198 7.55215 17.1042 6.03638 17.1042 4.1666C17.1042 2.29702 18.6198 0.78125 20.4896 0.78125C22.3594 0.78125 23.875 2.29702 23.875 4.1666Z" fill="#5B5B5B"/>
<path d="M20.4896 8.3334C18.1916 8.3334 16.323 6.46458 16.323 4.1666C16.323 1.86882 18.1916 0 20.4896 0C22.7876 0 24.6562 1.86882 24.6562 4.1666C24.6562 6.46458 22.7876 8.3334 20.4896 8.3334ZM20.4896 1.5625C19.0532 1.5625 17.8855 2.73132 17.8855 4.1666C17.8855 5.60207 19.0532 6.7709 20.4896 6.7709C21.926 6.7709 23.0937 5.60207 23.0937 4.1666C23.0937 2.73132 21.926 1.5625 20.4896 1.5625Z" fill="#5B5B5B"/>
<path d="M23.875 20.8334C23.875 22.703 22.3594 24.2187 20.4896 24.2187C18.6198 24.2187 17.1042 22.703 17.1042 20.8334C17.1042 18.9636 18.6198 17.4478 20.4896 17.4478C22.3594 17.4478 23.875 18.9636 23.875 20.8334Z" fill="#5B5B5B"/>
<path d="M20.4896 25C18.1916 25 16.323 23.1312 16.323 20.8334C16.323 18.5354 18.1916 16.6666 20.4896 16.6666C22.7876 16.6666 24.6562 18.5354 24.6562 20.8334C24.6562 23.1312 22.7876 25 20.4896 25ZM20.4896 18.2291C19.0532 18.2291 17.8855 19.3979 17.8855 20.8334C17.8855 22.2687 19.0532 23.4375 20.4896 23.4375C21.926 23.4375 23.0937 22.2687 23.0937 20.8334C23.0937 19.3979 21.926 18.2291 20.4896 18.2291Z" fill="#5B5B5B"/>
<path d="M9.29165 12.5C9.29165 14.3698 7.77588 15.8854 5.90611 15.8854C4.03652 15.8854 2.52075 14.3698 2.52075 12.5C2.52075 10.6302 4.03652 9.11465 5.90611 9.11465C7.77588 9.11465 9.29165 10.6302 9.29165 12.5Z" fill="#5B5B5B"/>
<path d="M5.90611 16.6666C3.60832 16.6666 1.7395 14.798 1.7395 12.5C1.7395 10.202 3.60832 8.3334 5.90611 8.3334C8.20408 8.3334 10.0729 10.202 10.0729 12.5C10.0729 14.798 8.20408 16.6666 5.90611 16.6666ZM5.90611 9.8959C4.46968 9.8959 3.302 11.0645 3.302 12.5C3.302 13.9355 4.46968 15.1041 5.90611 15.1041C7.34272 15.1041 8.5104 13.9355 8.5104 12.5C8.5104 11.0645 7.34272 9.8959 5.90611 9.8959Z" fill="#5B5B5B"/>
<path d="M8.3657 12.0001C8.00312 12.0001 7.65102 11.8115 7.45933 11.4741C7.17495 10.9751 7.35004 10.3386 7.849 10.0531L17.5145 4.54275C18.0135 4.25627 18.6499 4.43136 18.9355 4.93223C19.2199 5.43119 19.0448 6.06768 18.5458 6.35321L8.88012 11.8635C8.71761 11.9562 8.54061 12.0001 8.3657 12.0001Z" fill="#5B5B5B"/>
<path d="M18.0301 20.5939C17.855 20.5939 17.678 20.55 17.5155 20.4573L7.84984 14.9469C7.35087 14.6626 7.17597 14.0261 7.46036 13.526C7.7436 13.026 8.38103 12.85 8.88114 13.1365L18.5468 18.6468C19.0458 18.9312 19.2207 19.5677 18.9363 20.0678C18.7436 20.4052 18.3915 20.5939 18.0301 20.5939Z" fill="#5B5B5B"/>
</svg>
