<svg width="26" height="25" viewBox="0 0 26 25" fill="none" xmlns="http://www.w3.org/2000/svg">
<path d="M12.5713 0C5.69629 0 0.0712891 5.625 0.0712891 12.5C0.0712891 19.375 5.69629 25 12.5713 25C19.4463 25 25.0713 19.375 25.0713 12.5C25.0713 5.625 19.4463 0 12.5713 0ZM12.5713 22.5C9.32129 22.5 6.44629 20.875 4.57129 18.5C5.69629 17.375 7.69629 16.375 10.1963 16.125C10.3213 15.75 10.4463 15.5 10.4463 15.125C10.4463 14.75 10.3213 14.5 10.1963 14.125C8.94629 13.25 8.07129 11.75 8.07129 9.875C8.19629 7.25 10.1963 5 12.5713 5C14.9463 5 16.9463 7.25 16.9463 9.875C16.9463 11.625 16.0713 13.25 14.8213 14.125C14.6963 14.375 14.5713 14.75 14.5713 15.125C14.5713 15.5 14.6963 15.875 14.8213 16.125C17.3213 16.5 19.4463 17.375 20.4463 18.5C18.6963 20.875 15.8213 22.5 12.5713 22.5Z" fill="#5B5B5B"/>
</svg>
