<svg width="20" height="20" viewBox="0 0 20 20" fill="none" xmlns="http://www.w3.org/2000/svg">
<path d="M14.8655 12.2066C16.7522 9.11777 16.3692 5.02242 13.7001 2.34923C10.5705 -0.780351 5.47677 -0.780351 2.34719 2.34923C-0.782396 5.47882 -0.782396 10.5725 2.34719 13.6981C5.0163 16.3672 9.11165 16.7502 12.2046 14.8635L16.7889 19.4478C17.5224 20.1813 18.7164 20.1813 19.4499 19.4478C20.1834 18.7144 20.1834 17.5204 19.4499 16.7869L14.8655 12.2066ZM12.0416 12.0436C9.82478 14.2604 6.22249 14.2604 4.00978 12.0436C1.79299 9.82682 1.79299 6.22454 4.00978 4.01182C6.22657 1.79504 9.82885 1.79504 12.0416 4.01182C14.2543 6.22454 14.2543 9.82682 12.0416 12.0436ZM8.96496 7.00693H11.3855V8.8529H8.96496V11.2734H7.11899V8.8529H4.70253V7.00693H7.12306V4.5864H8.96903V7.00693H8.96496Z" fill="#5B5B5B"/>
</svg>
