<svg width="20" height="20" viewBox="0 0 20 20" fill="none" xmlns="http://www.w3.org/2000/svg">
<path d="M14.8655 12.2046C16.7522 9.11573 16.3692 5.02037 13.7001 2.34719C10.5705 -0.782396 5.47677 -0.782396 2.34719 2.34719C-0.782396 5.47677 -0.782396 10.5705 2.34719 13.7001C5.0163 16.3692 9.11165 16.7522 12.2046 14.8655L16.7889 19.4499C17.5224 20.1834 18.7164 20.1834 19.4499 19.4499C20.1834 18.7164 20.1834 17.5224 19.4499 16.7889L14.8655 12.2046ZM12.0416 12.0416C9.82478 14.2584 6.22249 14.2584 4.00978 12.0416C1.79299 9.82478 1.79299 6.22249 4.00978 4.00978C6.22657 1.79299 9.82885 1.79299 12.0416 4.00978C14.2543 6.22249 14.2543 9.82478 12.0416 12.0416ZM5.21597 6.81744H10.868V9.04238H5.21597V6.81744Z" fill="#5B5B5B"/>
</svg>
