<svg width="30" height="28" viewBox="0 0 30 28" fill="none" xmlns="http://www.w3.org/2000/svg">
<path d="M3.46509 27.2727H22.2311V22.2893H29.9008V3.50125H3.46509V27.2727ZM5.21708 5.25325H28.1488V20.5374H20.4791V25.5207H5.21708V5.25325Z" fill="#5B5B5B"/>
<path d="M3.46509 0H29.9008V1.752H3.46509V0Z" fill="#5B5B5B"/>
<path d="M0 3.50125H1.752V27.2727H0V3.50125Z" fill="#5B5B5B"/>
<path d="M10.3266 16.9425V13.9347H10.355L12.539 16.9425H13.5688V11.8182H12.333V14.7976H12.3046L10.1313 11.8182H9.09082V16.9425H10.3266Z" fill="#5B5B5B"/>
<path d="M17.8586 15.8913H15.6498V14.8473H17.7272V13.8885H15.6498V12.8693H17.8586V11.8182H14.3465V16.9425H17.8586V15.8913Z" fill="#5B5B5B"/>
<path d="M21.7826 13.7429H21.811L22.6739 16.9425H23.9026L25.2414 11.8182H23.8955L23.203 15.2805H23.1746L22.3188 11.8182H21.2748L20.4189 15.2805H20.3905L19.6981 11.8182H18.3522L19.691 16.9425H20.9197L21.7826 13.7429Z" fill="#5B5B5B"/>
</svg>
