<?xml version="1.0" encoding="utf-8"?>
<!-- Generator: Adobe Illustrator 25.0.0, SVG Export Plug-In . SVG Version: 6.00 Build 0)  -->
<svg version="1.1" id="Layer_1" xmlns="http://www.w3.org/2000/svg" xmlns:xlink="http://www.w3.org/1999/xlink" x="0px" y="0px"
	 viewBox="0 0 80 80" style="enable-background:new 0 0 80 80;" xml:space="preserve">
<style type="text/css">
	.st0{fill:#5B5B5B;}
	.st1{fill:#FFFFFF;}
</style>
<path class="st0" d="M39.7,80C17.8,80,0,62,0,40S17.8,0,39.7,0s39.7,18,39.7,40S61.6,80,39.7,80z M39.7,15.1
	c-13.6,0-24.7,11.2-24.7,24.9s11.1,24.9,24.7,24.9S64.4,53.7,64.4,40C64.4,26.3,53.3,15.1,39.7,15.1z"/>
<path class="st1" d="M15.8,19.3c0.9,0,1.6-0.7,1.6-1.6c0-0.9-0.7-1.6-1.6-1.6c-0.9,0-1.6,0.7-1.6,1.6C14.2,18.6,14.9,19.3,15.8,19.3
	z"/>
<path class="st1" d="M63.7,19.3c0.9,0,1.6-0.7,1.6-1.6c0-0.9-0.7-1.6-1.6-1.6c-0.9,0-1.6,0.7-1.6,1.6C62.1,18.6,62.8,19.3,63.7,19.3
	z"/>
<path class="st1" d="M15.8,63.9c0.9,0,1.6-0.7,1.6-1.6c0-0.9-0.7-1.6-1.6-1.6c-0.9,0-1.6,0.7-1.6,1.6C14.2,63.2,14.9,63.9,15.8,63.9
	z"/>
<path class="st1" d="M63.7,63.9c0.9,0,1.6-0.7,1.6-1.6c0-0.9-0.7-1.6-1.6-1.6c-0.9,0-1.6,0.7-1.6,1.6C62.1,63.2,62.8,63.9,63.7,63.9
	z"/>
<path class="st1" d="M41.6,70.4l-1.9,1.9l-1.9-1.9h-2.1l4,4l4-4H41.6z"/>
<path class="st1" d="M37.9,9.6l1.9-1.9l1.9,1.9h2.1l-4-4l-4,4H37.9z"/>
<path class="st1" d="M9.3,41.9L7.5,40l1.9-1.9V36l-4,4l4,4V41.9z"/>
<path class="st1" d="M70.1,38.1L72,40l-1.9,1.9V44l4-4l-4-4V38.1z"/>
</svg>
