<svg width="80" height="80" viewBox="0 0 80 80" fill="none" xmlns="http://www.w3.org/2000/svg">
<path d="M39.7448 57.8947C49.6278 57.8947 57.6396 49.8829 57.6396 40C57.6396 30.117 49.6278 22.1052 39.7448 22.1052C29.8618 22.1052 21.8501 30.117 21.8501 40C21.8501 49.8829 29.8618 57.8947 39.7448 57.8947Z" fill="#5B5B5B"/>
<path d="M39.7448 80C17.8309 80 0 62.0415 0 40C0 17.9585 17.8309 0 39.7448 0C61.6587 0 79.4896 17.9585 79.4896 40C79.4896 62.0415 61.6268 80 39.7448 80ZM39.7448 15.0558C26.1244 15.0558 15.0558 26.252 15.0558 40C15.0558 53.748 26.1244 64.9442 39.7448 64.9442C53.3652 64.9442 64.4338 53.748 64.4338 40C64.4019 26.252 53.3333 15.0558 39.7448 15.0558Z" fill="#5B5B5B"/>
<path d="M15.8213 19.2663C16.7022 19.2663 17.4162 18.5523 17.4162 17.6714C17.4162 16.7906 16.7022 16.0765 15.8213 16.0765C14.9405 16.0765 14.2264 16.7906 14.2264 17.6714C14.2264 18.5523 14.9405 19.2663 15.8213 19.2663Z" fill="white"/>
<path d="M63.6681 19.2663C64.549 19.2663 65.263 18.5523 65.263 17.6714C65.263 16.7906 64.549 16.0765 63.6681 16.0765C62.7873 16.0765 62.0732 16.7906 62.0732 17.6714C62.0732 18.5523 62.7873 19.2663 63.6681 19.2663Z" fill="white"/>
<path d="M15.8213 63.9234C16.7022 63.9234 17.4162 63.2094 17.4162 62.3285C17.4162 61.4477 16.7022 60.7336 15.8213 60.7336C14.9405 60.7336 14.2264 61.4477 14.2264 62.3285C14.2264 63.2094 14.9405 63.9234 15.8213 63.9234Z" fill="white"/>
<path d="M63.6681 63.9234C64.549 63.9234 65.263 63.2094 65.263 62.3285C65.263 61.4477 64.549 60.7336 63.6681 60.7336C62.7873 60.7336 62.0732 61.4477 62.0732 62.3285C62.0732 63.2094 62.7873 63.9234 63.6681 63.9234Z" fill="white"/>
<path d="M41.5949 70.3669L39.7448 72.2489L37.8629 70.3669H35.7257L39.7448 74.386L43.7321 70.3669H41.5949Z" fill="white"/>
<path d="M37.8629 9.63321L39.7448 7.75124L41.5949 9.63321H43.7321L39.7448 5.61407L35.7257 9.63321H37.8629Z" fill="white"/>
<path d="M9.346 41.8501L7.49593 40L9.346 38.1499V36.0128L5.35876 40L9.346 43.9872V41.8501Z" fill="white"/>
<path d="M70.1116 38.1499L71.9617 40L70.1116 41.8501V43.9872L74.0988 40L70.1116 36.0128V38.1499Z" fill="white"/>
</svg>
