<svg width="15" height="18" viewBox="0 0 15 18" fill="none" xmlns="http://www.w3.org/2000/svg">
<path d="M13.3418 8.07495C13.3418 12.45 7.7168 16.2 7.7168 16.2C7.7168 16.2 2.0918 12.45 2.0918 8.07495C2.0918 6.58311 2.68443 5.15237 3.73932 4.09748C4.79421 3.04258 6.22495 2.44995 7.7168 2.44995C9.20864 2.44995 10.6394 3.04258 11.6943 4.09748C12.7492 5.15237 13.3418 6.58311 13.3418 8.07495Z" stroke="white" stroke-linecap="round" stroke-linejoin="round"/>
<path d="M7.7168 9.94995C8.75233 9.94995 9.5918 9.11049 9.5918 8.07495C9.5918 7.03942 8.75233 6.19995 7.7168 6.19995C6.68126 6.19995 5.8418 7.03942 5.8418 8.07495C5.8418 9.11049 6.68126 9.94995 7.7168 9.94995Z" stroke="white" stroke-linecap="round" stroke-linejoin="round"/>
</svg>
