<svg width="13" height="18" viewBox="0 0 13 18" fill="none" xmlns="http://www.w3.org/2000/svg">
<g clip-path="url(#clip0_2328_10011)">
<path d="M3.57715 15.1687L1.9834 16.7625M9.15527 2.4187H8.3584C8.3584 2.2778 8.30243 2.14268 8.2028 2.04305C8.10317 1.94342 7.96804 1.88745 7.82715 1.88745H4.63965C4.49875 1.88745 4.36363 1.94342 4.264 2.04305C4.16437 2.14268 4.1084 2.2778 4.1084 2.4187H3.31152C2.81882 2.4201 2.34669 2.61645 1.9983 2.96485C1.6499 3.31324 1.45355 3.78537 1.45215 4.27808V12.4792C1.45215 13.6513 6.2334 14.6375 6.2334 14.6375C6.2334 14.6375 11.0146 13.6513 11.0146 12.4792V4.27808C11.0146 3.78494 10.8188 3.312 10.4701 2.9633C10.1214 2.6146 9.64841 2.4187 9.15527 2.4187V2.4187ZM6.2334 12.5125C5.91818 12.5125 5.61005 12.419 5.34796 12.2439C5.08587 12.0687 4.88159 11.8198 4.76097 11.5286C4.64034 11.2374 4.60878 10.9169 4.67027 10.6078C4.73177 10.2986 4.88356 10.0146 5.10645 9.79175C5.32934 9.56886 5.61332 9.41707 5.92247 9.35557C6.23163 9.29408 6.55208 9.32564 6.8433 9.44627C7.13452 9.5669 7.38343 9.77117 7.55855 10.0333C7.73368 10.2954 7.82715 10.6035 7.82715 10.9187C7.82715 11.3414 7.65924 11.7468 7.36035 12.0457C7.06146 12.3445 6.65609 12.5125 6.2334 12.5125ZM9.4209 7.19995C9.4209 7.34085 9.36493 7.47597 9.2653 7.5756C9.16567 7.67523 9.03054 7.7312 8.88965 7.7312H3.57715C3.43625 7.7312 3.30113 7.67523 3.2015 7.5756C3.10187 7.47597 3.0459 7.34085 3.0459 7.19995V5.07495C3.0459 4.93405 3.10187 4.79893 3.2015 4.6993C3.30113 4.59967 3.43625 4.5437 3.57715 4.5437H8.88965C9.03054 4.5437 9.16567 4.59967 9.2653 4.6993C9.36493 4.79893 9.4209 4.93405 9.4209 5.07495V7.19995ZM2.51465 16.2312H9.95215H2.51465ZM8.88965 15.1687L10.4834 16.7625L8.88965 15.1687Z" stroke="white" stroke-linecap="round" stroke-linejoin="round"/>
</g>
<defs>
<clipPath id="clip0_2328_10011">
<rect width="12.4667" height="17" fill="white" transform="translate(0 0.824951)"/>
</clipPath>
</defs>
</svg>
