<svg width="13" height="18" viewBox="0 0 13 18" fill="none" xmlns="http://www.w3.org/2000/svg">
<path d="M3.7429 14.8438L2.14915 16.4375M9.32103 2.09375H8.52415C8.52415 1.95285 8.46818 1.81773 8.36856 1.7181C8.26893 1.61847 8.1338 1.5625 7.9929 1.5625H4.8054C4.66451 1.5625 4.52938 1.61847 4.42975 1.7181C4.33013 1.81773 4.27415 1.95285 4.27415 2.09375H3.47728C2.98457 2.09515 2.51245 2.2915 2.16405 2.6399C1.81565 2.98829 1.61931 3.46042 1.6179 3.95312V12.1543C1.6179 13.3264 6.39915 14.3125 6.39915 14.3125C6.39915 14.3125 11.1804 13.3264 11.1804 12.1543V3.95312C11.1804 3.45999 10.9845 2.98705 10.6358 2.63835C10.2871 2.28965 9.81417 2.09375 9.32103 2.09375V2.09375ZM6.39915 12.1875C6.08394 12.1875 5.77581 12.094 5.51371 11.9189C5.25162 11.7438 5.04735 11.4949 4.92672 11.2037C4.80609 10.9124 4.77453 10.592 4.83603 10.2828C4.89752 9.97367 5.04931 9.68969 5.2722 9.4668C5.49509 9.24391 5.77907 9.09212 6.08823 9.03062C6.39739 8.96913 6.71784 9.00069 7.00906 9.12132C7.30028 9.24194 7.54919 9.44622 7.72431 9.70831C7.89943 9.9704 7.9929 10.2785 7.9929 10.5938C7.9929 11.0164 7.82499 11.4218 7.52611 11.7207C7.22722 12.0196 6.82184 12.1875 6.39915 12.1875ZM9.58665 6.875C9.58665 7.0159 9.53068 7.15102 9.43106 7.25065C9.33143 7.35028 9.1963 7.40625 9.0554 7.40625H3.7429C3.60201 7.40625 3.46688 7.35028 3.36725 7.25065C3.26763 7.15102 3.21165 7.0159 3.21165 6.875V4.75C3.21165 4.6091 3.26763 4.47398 3.36725 4.37435C3.46688 4.27472 3.60201 4.21875 3.7429 4.21875H9.0554C9.1963 4.21875 9.33143 4.27472 9.43106 4.37435C9.53068 4.47398 9.58665 4.6091 9.58665 4.75V6.875ZM2.6804 15.9062H10.1179H2.6804ZM9.0554 14.8438L10.6492 16.4375L9.0554 14.8438Z" stroke="#424242" stroke-linecap="round" stroke-linejoin="round"/>
</svg>
