<svg width="15" height="16" viewBox="0 0 15 16" fill="none" xmlns="http://www.w3.org/2000/svg">
<g clip-path="url(#clip0_2328_10165)">
<path d="M14.1999 15.1999V13.5999C14.1999 12.7512 13.8628 11.9373 13.2626 11.3372C12.6625 10.737 11.8486 10.3999 10.9999 10.3999H4.5999C3.75121 10.3999 2.93728 10.737 2.33716 11.3372C1.73704 11.9373 1.3999 12.7512 1.3999 13.5999V15.1999" stroke="white" stroke-width="1.6" stroke-linecap="round" stroke-linejoin="round"/>
<path d="M7.8001 7.20005C9.56741 7.20005 11.0001 5.76736 11.0001 4.00005C11.0001 2.23274 9.56741 0.800049 7.8001 0.800049C6.03279 0.800049 4.6001 2.23274 4.6001 4.00005C4.6001 5.76736 6.03279 7.20005 7.8001 7.20005Z" stroke="white" stroke-width="1.6" stroke-linecap="round" stroke-linejoin="round"/>
</g>
<defs>
<clipPath id="clip0_2328_10165">
<rect width="14.4" height="16" fill="white" transform="translate(0.600098)"/>
</clipPath>
</defs>
</svg>
