<?xml version="1.0" standalone="no"?>
<!DOCTYPE svg PUBLIC "-//W3C//DTD SVG 20010904//EN"
 "http://www.w3.org/TR/2001/REC-SVG-20010904/DTD/svg10.dtd">
<svg version="1.0" xmlns="http://www.w3.org/2000/svg"
 width="261.000000pt" height="261.000000pt" viewBox="0 0 261.000000 261.000000"
 preserveAspectRatio="xMidYMid meet">
<metadata>
Created by potrace 1.11, written by Peter Selinger 2001-2013
</metadata>
<g transform="translate(0.000000,261.000000) scale(0.100000,-0.100000)"
fill="#000000" stroke="none">
<path d="M1277 2604 c-1 -1 -40 -4 -87 -7 -162 -12 -299 -51 -465 -132 -391
-193 -666 -584 -712 -1015 -22 -207 2 -403 73 -602 133 -369 469 -682 851
-793 133 -39 251 -54 403 -50 198 5 344 39 520 123 406 192 689 587 738 1027
11 104 3 359 -13 385 -2 3 -6 23 -9 44 -11 69 -65 216 -116 315 -197 382 -566
638 -1004 697 -45 5 -174 12 -179 8z m152 -59 c682 -71 1183 -679 1119 -1357
-48 -514 -421 -959 -913 -1090 -622 -165 -1260 156 -1496 754 -26 68 -66 228
-75 303 -9 75 -9 234 0 300 9 70 56 258 67 270 5 5 9 15 9 22 0 25 64 150 127
245 207 316 557 524 933 554 41 3 76 7 77 8 3 2 89 -2 152 -9z"/>
<path d="M1120 2450 c-157 -25 -354 -106 -485 -200 -198 -143 -360 -361 -434
-586 -65 -197 -73 -449 -20 -651 100 -380 380 -683 750 -808 232 -79 496 -82
724 -9 555 179 892 732 792 1304 -22 129 -44 196 -108 325 -151 309 -438 532
-783 609 -109 25 -327 33 -436 16z m-295 -414 l0 -253 -257 -1 c-142 0 -258 3
-258 6 0 13 79 142 112 185 52 68 129 145 194 198 70 55 195 131 203 123 3 -3
6 -119 6 -258z m1033 229 c122 -71 227 -162 316 -274 55 -69 126 -181 126
-199 0 -7 -86 -10 -255 -11 l-255 0 -1 185 c-1 323 -1 334 5 334 3 0 31 -16
64 -35z m-204 -557 c-13 -34 -24 -63 -24 -64 0 -1 -32 -21 -72 -44 l-71 -43
-113 18 -114 18 -10 35 c-5 20 -8 37 -7 37 8 6 396 103 414 104 l22 1 -25 -62z
m-494 -70 c12 -74 11 -76 -10 -83 -34 -11 -123 -106 -149 -160 -30 -60 -33
-150 -7 -209 29 -70 106 -124 196 -141 30 -5 36 -11 37 -33 1 -15 5 -55 8 -89
l7 -62 -69 3 c-104 6 -195 40 -258 98 -73 66 -99 129 -98 233 0 121 45 215
150 319 55 55 191 141 193 124z m568 -332 c-9 -111 -84 -237 -194 -322 -53
-41 -113 -75 -117 -66 -3 4 -10 32 -17 62 -6 30 -14 62 -16 71 -3 11 9 25 39
42 53 31 118 101 138 146 10 24 36 48 89 83 41 26 77 48 79 48 2 0 1 -29 -1
-64z m-923 -485 c20 -1 20 -7 20 -250 0 -137 -3 -253 -7 -257 -18 -18 -222
128 -315 225 -68 71 -193 249 -193 275 0 9 275 13 495 7z m1495 -8 c0 -3 -14
-31 -32 -62 -66 -117 -178 -244 -293 -332 -66 -50 -173 -114 -180 -107 -6 5
-7 94 -6 335 l1 173 233 2 c226 3 277 1 277 -9z m-1182 -355 c18 -18 15 -66
-5 -76 -10 -5 -33 -9 -52 -11 -44 -2 -51 -7 -51 -37 0 -23 3 -24 60 -24 33 0
60 -4 60 -10 0 -6 -30 -10 -71 -10 l-72 0 6 41 c6 49 18 59 69 59 26 0 40 6
47 18 16 30 -2 43 -58 45 -29 0 -54 4 -57 9 -8 13 111 9 124 -4z m195 -3 c38
-28 38 -125 0 -152 -9 -7 -34 -13 -54 -13 -54 0 -83 38 -76 100 3 29 12 50 27
62 26 21 78 23 103 3z m102 -75 c0 -49 -3 -90 -7 -90 -9 0 -9 2 -10 85 0 85 1
95 10 95 4 0 7 -40 7 -90z m165 30 c0 -47 3 -60 15 -60 8 0 15 -4 15 -10 0 -5
-7 -10 -15 -10 -8 0 -15 -9 -15 -20 0 -11 -5 -20 -11 -20 -5 0 -9 10 -7 22 3
20 -1 22 -44 21 -27 -1 -48 3 -48 8 0 20 81 129 95 129 12 0 15 -14 15 -60z"/>
<path d="M1216 434 c-18 -18 -21 -76 -6 -105 14 -24 81 -27 101 -3 17 20 17
88 0 108 -17 21 -75 21 -95 0z"/>
<path d="M1522 399 l-32 -49 35 0 c29 0 35 4 36 23 0 12 2 29 4 38 7 39 -13
33 -43 -12z"/>
</g>
</svg>
