<svg width="25" height="17" viewBox="0 0 25 17" fill="none" xmlns="http://www.w3.org/2000/svg">
<g clip-path="url(#clip0)">
<path d="M15.6272 9.71838C15.6272 11.8301 17.2922 12.8656 18.6323 12.8656C19.9724 12.8656 21.6373 11.8301 21.6373 9.71838C21.6373 8.07371 20.013 6.75391 18.6323 5.96204C17.2719 6.77422 15.6272 8.07371 15.6272 9.71838Z" fill="white"/>
<path d="M3.38354 9.75879C3.38354 11.8705 5.04852 12.906 6.38862 12.906C7.72872 12.906 9.3937 11.8705 9.3937 9.75879C9.3937 8.11412 7.76933 6.79432 6.38862 6.00244C5.00791 6.79432 3.38354 8.11412 3.38354 9.75879Z" fill="white"/>
<path d="M0.23641 0.5V16.5H24.7643V0.5H0.23641ZM24.744 4.39848C23.2618 4.39848 21.475 4.68274 20.074 5.29188C21.5968 6.30711 23.0587 7.82995 23.0587 9.77919C23.0587 12.3376 20.9065 14.2868 18.5511 14.2868C16.1958 14.2868 14.1044 12.3376 14.1044 9.77919C14.1044 7.85025 15.5054 6.30711 17.008 5.29188C15.607 4.68274 13.9623 4.39848 12.4801 4.39848C10.9978 4.39848 9.35316 4.68274 7.95215 5.29188C9.47499 6.30711 10.8557 7.82995 10.8557 9.77919C10.8557 12.3376 8.78463 14.2868 6.409 14.2868C4.05367 14.2868 1.86078 12.3376 1.86078 9.77919C1.86078 7.85025 3.36331 6.30711 4.86585 5.29188C3.46484 4.68274 1.67803 4.39848 0.195801 4.39848V2.99746C2.69326 2.99746 4.88616 3.6269 6.38869 4.39848C7.89123 3.6269 9.9623 2.99746 12.4598 2.99746C14.9572 2.99746 17.0283 3.6269 18.5105 4.39848C20.0131 3.6269 22.2263 2.99746 24.7034 2.99746V4.39848H24.744Z" fill="white"/>
</g>
<defs>
<clipPath id="clip0">
<rect width="24.5279" height="16" fill="white" transform="translate(0.236328 0.5)"/>
</clipPath>
</defs>
</svg>
