<svg width="20" height="20" viewBox="0 0 20 20" fill="none" xmlns="http://www.w3.org/2000/svg">
<path d="M10 0.909058C6.06365 0.909058 2.86365 4.09997 2.86365 8.04542C2.86365 10.4727 4.09092 12.6 5.93638 13.9091C7.61819 15.1 7.99092 15.3909 8.58183 16.5181C9.04547 17.4091 9.8091 18.9818 9.8091 18.9818C9.84547 19.0454 9.91819 19.0909 10 19.0909C10.0818 19.0909 10.1546 19.0454 10.1909 18.9727C10.1909 18.9727 10.9455 17.4091 11.4182 16.5091C12.0091 15.3818 12.3818 15.1 14.0637 13.9C15.9091 12.5909 17.1364 10.4636 17.1364 8.03633C17.1364 4.09997 13.9364 0.909058 10 0.909058ZM10 12.8181C7.36365 12.8181 5.21819 10.6818 5.21819 8.03633C5.21819 5.39997 7.35456 3.25451 10 3.25451C12.6364 3.25451 14.7818 5.39088 14.7818 8.03633C14.7818 10.6818 12.6364 12.8181 10 12.8181Z" fill="black"/>
</svg>
