<svg width="25" height="25" viewBox="0 0 25 25" fill="none" xmlns="http://www.w3.org/2000/svg">
<path d="M24.2188 5.34644C23.3396 5.72845 22.4094 5.98013 21.4575 6.09351C22.4578 5.50776 23.2101 4.57719 23.5732 3.47633C22.6275 4.02935 21.5945 4.41738 20.5186 4.62379C20.0655 4.14895 19.5206 3.7712 18.917 3.51351C18.3133 3.25581 17.6636 3.12355 17.0073 3.12476C14.3501 3.12476 12.1997 5.2439 12.1997 7.85621C12.1978 8.21957 12.2395 8.58185 12.3237 8.93531C10.4183 8.84599 8.5525 8.35991 6.84569 7.50819C5.13889 6.65647 3.62865 5.45785 2.41162 3.98902C1.98466 4.70881 1.75885 5.53006 1.75781 6.36695C1.75781 8.00758 2.61377 9.45777 3.90625 10.3074C3.14049 10.2892 2.39043 10.0865 1.71973 9.71656V9.77516C1.71973 12.0701 3.37988 13.9793 5.57715 14.4138C5.16396 14.524 4.73817 14.5798 4.31055 14.5798C4.00712 14.5804 3.70438 14.5509 3.40674 14.492C4.01758 16.3718 5.79541 17.739 7.90137 17.7781C6.19013 19.0969 4.08917 19.8097 1.92871 19.8045C1.54522 19.8039 1.16209 19.7811 0.78125 19.7361C2.97909 21.1395 5.53391 21.8819 8.1416 21.8748C16.9971 21.8748 21.835 14.6629 21.835 8.40797C21.835 8.20289 21.8296 7.99781 21.8198 7.79762C22.7588 7.12968 23.5712 6.29962 24.2188 5.34644Z" fill="#333333"/>
</svg>
