<svg width="19" height="13" viewBox="0 0 19 13" fill="none" xmlns="http://www.w3.org/2000/svg">
<path d="M7.80578 7.06523C8.15688 7.34686 8.59351 7.50035 9.04361 7.50035C9.4937 7.50035 9.93034 7.34686 10.2814 7.06523L17.4201 1.41305C17.4828 1.36229 17.5339 1.2987 17.57 1.22656C17.6061 1.15441 17.6263 1.07539 17.6293 0.994785C17.6322 0.913499 17.6176 0.832535 17.5864 0.757424C17.5552 0.682313 17.5081 0.614824 17.4484 0.559566C17.0905 0.207587 16.6107 0.00716122 16.1088 0H1.97838C1.48626 0.00158011 1.0125 0.18705 0.650112 0.520001C0.589398 0.574741 0.541281 0.641999 0.50908 0.717137C0.476878 0.792274 0.461358 0.873503 0.46359 0.95522C0.466469 1.03724 0.487174 1.11764 0.524265 1.19085C0.561356 1.26405 0.613944 1.3283 0.678373 1.37913L7.80578 7.06523Z" fill="white"/>
<path d="M17.9061 11.8356C18.0237 11.5803 18.0853 11.3028 18.087 11.0217V2.66211L12.48 7.13299L17.9061 11.8356Z" fill="white"/>
<path d="M5.60697 7.1331L0 2.64526V11.0218C0.00160985 11.3029 0.0632771 11.5804 0.18087 11.8357L5.60697 7.1331Z" fill="white"/>
<path d="M16.9001 12.8305L11.3609 8.03177L11.1631 8.19004C10.5616 8.67161 9.81408 8.93401 9.04355 8.93401C8.27303 8.93401 7.52547 8.67161 6.92398 8.19004L6.72615 8.02612L1.18701 12.8305C1.43602 12.9417 1.70559 12.9995 1.97832 13H16.1088C16.3815 12.9995 16.6511 12.9417 16.9001 12.8305Z" fill="white"/>
</svg>
