<svg width="20" height="18" viewBox="0 0 20 18" fill="none" xmlns="http://www.w3.org/2000/svg">
<g clip-path="url(#clip0_718:4285)">
<path d="M19.7223 3.33344V13.7501C19.7223 13.9343 19.6491 14.1109 19.5189 14.2412C19.3886 14.3714 19.212 14.4446 19.0278 14.4446C18.8437 14.4446 18.667 14.3714 18.5368 14.2412C18.4065 14.1109 18.3334 13.9343 18.3334 13.7501V4.02789H9.40283C9.28845 4.02729 9.17599 3.99846 9.07543 3.94394C8.97488 3.88943 8.88935 3.81091 8.82644 3.71539L7.64589 1.94455H3.75005C3.56588 1.94455 3.38924 1.87139 3.25901 1.74115C3.12877 1.61092 3.05561 1.43429 3.05561 1.25011C3.05561 1.06593 3.12877 0.889296 3.25901 0.759062C3.38924 0.628829 3.56588 0.555664 3.75005 0.555664H8.01394C8.12832 0.556256 8.24079 0.585091 8.34134 0.639608C8.44189 0.694125 8.52742 0.772636 8.59033 0.868164L9.77783 2.639H19.0278C19.212 2.639 19.3886 2.71216 19.5189 2.8424C19.6491 2.97263 19.7223 3.14926 19.7223 3.33344ZM16.9445 6.11122V16.5279C16.9445 16.7121 16.8713 16.8887 16.7411 17.0189C16.6109 17.1492 16.4342 17.2223 16.2501 17.2223H0.972276C0.788098 17.2223 0.611464 17.1492 0.48123 17.0189C0.350996 16.8887 0.277832 16.7121 0.277832 16.5279V4.02789C0.277832 3.84371 0.350996 3.66707 0.48123 3.53684C0.611464 3.40661 0.788098 3.33344 0.972276 3.33344H6.52783C6.64221 3.33403 6.75467 3.36287 6.85523 3.41739C6.95578 3.4719 7.04131 3.55041 7.10422 3.64594L8.29172 5.41678H16.2501C16.4342 5.41678 16.6109 5.48994 16.7411 5.62017C16.8713 5.75041 16.9445 5.92704 16.9445 6.11122ZM15.5556 6.80566H7.91672C7.80234 6.80507 7.68988 6.77624 7.58932 6.72172C7.48877 6.6672 7.40324 6.58869 7.34033 6.49316L6.15283 4.72233H1.66672V15.8334H15.5556V6.80566Z" fill="#5B5B5B"/>
</g>
<defs>
<clipPath id="clip0_718:4285">
<rect width="20" height="17.7778" fill="white"/>
</clipPath>
</defs>
</svg>
