<svg width="20" height="18" viewBox="0 0 20 18" fill="none" xmlns="http://www.w3.org/2000/svg">
<path fill-rule="evenodd" clip-rule="evenodd" d="M0 17.3064V0.693848H19.8818V17.3064H0ZM1.29111 15.9883H18.5907V2.01243H1.29111V15.9883Z" fill="#656765"/>
<path d="M5.65328 8.49756L3.33105 10.9654V15.1297C3.33105 15.2468 3.42417 15.3422 3.53905 15.3422H6.35861C6.4735 15.3422 6.56661 15.2471 6.56661 15.1297V8.74176L5.91639 8.49756H5.65328Z" fill="#656765"/>
<path d="M11.3967 10.4326H8.57736C8.46225 10.4326 8.36914 10.5277 8.36914 10.645V15.1291C8.36914 15.2465 8.46225 15.3418 8.57736 15.3418H11.3967C11.5116 15.3418 11.6047 15.2467 11.6047 15.1291V10.6448C11.6047 10.5277 11.5116 10.4326 11.3967 10.4326Z" fill="#656765"/>
<path d="M15.4942 5.86484L14.982 5.42773L13.1289 7.4923V15.1294C13.1289 15.2465 13.222 15.3418 13.3371 15.3418H16.1567C16.2716 15.3418 16.3647 15.2467 16.3647 15.1294V5.9352C16.3531 5.942 16.3427 5.9504 16.3309 5.95653C16.2231 6.01417 16.102 6.04459 15.9802 6.04459C15.8022 6.04481 15.6302 5.98104 15.4942 5.86484Z" fill="#656765"/>
<path d="M2.64237 10.6471C2.75148 10.6471 2.86059 10.6033 2.94237 10.5166L5.59637 7.69609L10.2401 9.44111C10.3988 9.50035 10.5761 9.45654 10.6906 9.32945L14.9668 4.56554L15.9673 5.41978C16.0164 5.46154 16.0846 5.4688 16.141 5.43884C16.1973 5.40866 16.2306 5.34715 16.2248 5.28202L16.0079 2.80554C16.0004 2.71703 15.9237 2.65189 15.8373 2.65984L13.4121 2.88089C13.3488 2.88656 13.295 2.93104 13.2759 2.993C13.2699 3.01342 13.2679 3.03453 13.2697 3.05518C13.2735 3.09694 13.2928 3.13643 13.3255 3.16412L14.3281 4.01995L10.2661 8.54534L5.62926 6.80281C5.47392 6.74494 5.30014 6.78579 5.18548 6.90698L2.34259 9.92792C2.18348 10.0972 2.18859 10.3659 2.35437 10.5284C2.43481 10.6076 2.53859 10.6471 2.64237 10.6471Z" fill="#656765"/>
</svg>
