<?xml version="1.0" encoding="utf-8"?>
<!-- Generator: Adobe Illustrator 26.0.0, SVG Export Plug-In . SVG Version: 6.00 Build 0)  -->
<svg version="1.1" id="Layer_1" xmlns="http://www.w3.org/2000/svg" xmlns:xlink="http://www.w3.org/1999/xlink" x="0px" y="0px"
	 viewBox="0 0 20 18" style="enable-background:new 0 0 20 18;" xml:space="preserve">
<style type="text/css">
	.st0{fill-rule:evenodd;clip-rule:evenodd;fill:#1F91B3;}
	.st1{fill:#1F91B3;}
</style>
<path class="st0" d="M0,17.3V0.7h19.9v16.6C19.9,17.3,0,17.3,0,17.3z M1.3,16h17.3V2H1.3V16z"/>
<path class="st1" d="M5.7,8.5L3.3,11v4.2c0,0.1,0.1,0.2,0.2,0.2h2.8c0.1,0,0.2-0.1,0.2-0.2V8.7L5.9,8.5H5.7z"/>
<path class="st1" d="M11.4,10.4H8.6c-0.1,0-0.2,0.1-0.2,0.2v4.5c0,0.1,0.1,0.2,0.2,0.2h2.8c0.1,0,0.2-0.1,0.2-0.2v-4.5
	C11.6,10.5,11.5,10.4,11.4,10.4z"/>
<path class="st1" d="M15.5,5.9L15,5.4l-1.9,2.1v7.6c0,0.1,0.1,0.2,0.2,0.2h2.8c0.1,0,0.2-0.1,0.2-0.2V5.9l0,0C16.2,6,16.1,6,16,6
	C15.8,6,15.6,6,15.5,5.9z"/>
<path class="st1" d="M2.6,10.6c0.1,0,0.2,0,0.3-0.1l2.7-2.8l4.6,1.7c0.2,0.1,0.3,0,0.5-0.1L15,4.6l1,0.9c0,0,0.1,0,0.2,0
	s0.1-0.1,0.1-0.2L16,2.8c0-0.1-0.1-0.2-0.2-0.1l-2.4,0.2c-0.1,0-0.1,0.1-0.1,0.1s0,0,0,0.1c0,0,0,0.1,0.1,0.1l1,0.9l-4.1,4.5
	L5.6,6.8c-0.2-0.1-0.3,0-0.4,0.1l-2.8,3c-0.2,0.2-0.2,0.4,0,0.6C2.4,10.6,2.5,10.6,2.6,10.6z"/>
</svg>
