<svg width="17" height="19" viewBox="0 0 17 19" fill="none" xmlns="http://www.w3.org/2000/svg">
<path d="M1 4.47949H2.6H15.4" stroke="#2F80ED" stroke-width="1.5" stroke-linecap="round" stroke-linejoin="round"/>
<path d="M5.0004 4.4793V2.8793C5.0004 2.45495 5.16897 2.04798 5.46903 1.74793C5.76909 1.44787 6.17606 1.2793 6.6004 1.2793H9.8004C10.2248 1.2793 10.6317 1.44787 10.9318 1.74793C11.2318 2.04798 11.4004 2.45495 11.4004 2.8793V4.4793M13.8004 4.4793V15.6793C13.8004 16.1036 13.6318 16.5106 13.3318 16.8107C13.0317 17.1107 12.6248 17.2793 12.2004 17.2793H4.2004C3.77606 17.2793 3.36909 17.1107 3.06903 16.8107C2.76897 16.5106 2.6004 16.1036 2.6004 15.6793V4.4793H13.8004Z" stroke="#2F80ED" stroke-width="1.5" stroke-linecap="round" stroke-linejoin="round"/>
<path d="M6.59959 8.47949V13.2795" stroke="#2F80ED" stroke-width="1.5" stroke-linecap="round" stroke-linejoin="round"/>
<path d="M9.8004 8.47949V13.2795" stroke="#2F80ED" stroke-width="1.5" stroke-linecap="round" stroke-linejoin="round"/>
</svg>
