<?xml version="1.0" encoding="utf-8"?>
<!-- Generator: Adobe Illustrator 26.0.0, SVG Export Plug-In . SVG Version: 6.00 Build 0)  -->
<svg version="1.1" id="Layer_1" xmlns="http://www.w3.org/2000/svg" xmlns:xlink="http://www.w3.org/1999/xlink" x="0px" y="0px"
	 viewBox="0 0 20 20" style="enable-background:new 0 0 20 20;" xml:space="preserve">
<style type="text/css">
	.st0{fill:#1F91B3;}
</style>
<path class="st0" d="M8.5,0H0.8C0.3,0,0,0.3,0,0.8v7.7c0,0.4,0.3,0.8,0.8,0.8h7.7c0.4,0,0.8-0.3,0.8-0.8V0.8C9.2,0.3,8.9,0,8.5,0z"
	/>
<path class="st0" d="M19.2,0h-7.7c-0.4,0-0.8,0.3-0.8,0.8v7.7c0,0.4,0.3,0.8,0.8,0.8h7.7c0.4,0,0.8-0.3,0.8-0.8V0.8
	C20,0.3,19.6,0,19.2,0z"/>
<path class="st0" d="M8.5,10.8H0.8c-0.4,0-0.8,0.3-0.8,0.8v7.7C0,19.6,0.3,20,0.8,20h7.7c0.4,0,0.8-0.3,0.8-0.8v-7.7
	C9.2,11.1,8.9,10.8,8.5,10.8z"/>
<path class="st0" d="M19.2,10.8h-7.7c-0.4,0-0.8,0.3-0.8,0.8v7.7c0,0.4,0.3,0.8,0.8,0.8h7.7c0.4,0,0.8-0.3,0.8-0.8v-7.7
	C20,11.1,19.6,10.8,19.2,10.8z"/>
</svg>
