<svg width="20" height="20" viewBox="0 0 20 20" fill="none" xmlns="http://www.w3.org/2000/svg">
<path d="M8.4514 0H0.768309C0.343971 0 0 0.343971 0 0.768309V8.4514C0 8.87574 0.343971 9.21971 0.768309 9.21971H8.4514C8.87574 9.21971 9.21971 8.87574 9.21971 8.4514V0.768309C9.21971 0.343971 8.87574 0 8.4514 0Z" fill="#BDC0BA"/>
<path d="M19.2078 0H11.5247C11.1004 0 10.7564 0.343971 10.7564 0.768309V8.4514C10.7564 8.87574 11.1004 9.21971 11.5247 9.21971H19.2078C19.6321 9.21971 19.9761 8.87574 19.9761 8.4514V0.768309C19.9761 0.343971 19.6321 0 19.2078 0Z" fill="#BDC0BA"/>
<path d="M8.4514 10.7563H0.768309C0.343971 10.7563 0 11.1003 0 11.5247V19.2077C0 19.6321 0.343971 19.9761 0.768309 19.9761H8.4514C8.87574 19.9761 9.21971 19.6321 9.21971 19.2077V11.5247C9.21971 11.1003 8.87574 10.7563 8.4514 10.7563Z" fill="#BDC0BA"/>
<path d="M19.2078 10.7563H11.5247C11.1004 10.7563 10.7564 11.1003 10.7564 11.5247V19.2077C10.7564 19.6321 11.1004 19.9761 11.5247 19.9761H19.2078C19.6321 19.9761 19.9761 19.6321 19.9761 19.2077V11.5247C19.9761 11.1003 19.6321 10.7563 19.2078 10.7563Z" fill="#BDC0BA"/>
</svg>
