<svg width="20" height="20" viewBox="0 0 20 20" fill="none" xmlns="http://www.w3.org/2000/svg">
<path d="M19.016 7.85804C18.7935 6.94905 18.0265 6.20875 17.1076 6.01638C17.0318 6.00047 16.9561 6.00326 16.8801 5.99417C16.1965 3.03001 13.5906 0.90918 10.5059 0.90918H9.49567C6.41153 0.90918 3.80519 3.03044 3.12119 5.99427C2.63786 6.05553 2.17607 6.24038 1.79899 6.56088C1.23369 7.0418 0.909119 7.74313 0.909119 8.48494C0.909119 9.27457 1.2899 10.0203 1.9193 10.4948V15.0506C1.9193 15.7952 2.32853 16.4395 2.92948 16.7899V17.5758C2.92948 18.4114 3.60917 19.091 4.44477 19.091C5.28038 19.091 5.96007 18.4114 5.96007 17.5758V17.0708H14.0416V17.5758C14.0416 18.4114 14.7212 19.091 15.5568 19.091C16.3925 19.091 17.0721 18.4114 17.0721 17.5758V16.7899C17.6731 16.4395 18.0823 15.7952 18.0823 15.0506V10.4953C18.8897 9.88962 19.2621 8.86571 19.016 7.85804ZM9.49496 1.91926H10.505C13.0627 1.91926 15.2284 3.64374 15.8595 6.07239C15.5411 6.16519 15.238 6.31022 14.9746 6.5239C14.3807 7.00624 14.0404 7.72092 14.0404 8.48494V11.0102H5.95964V8.59294C5.95964 7.41254 5.19392 6.38385 4.14108 6.0696C4.77271 3.6428 6.93852 1.91926 9.49496 1.91926ZM15.0505 12.5253C15.0505 12.804 14.8242 13.0304 14.5455 13.0304H5.45457C5.17593 13.0304 4.94951 12.804 4.94951 12.5253C4.94951 12.2467 5.17588 12.0203 5.45457 12.0203H14.5455C14.8241 12.0203 15.0505 12.2467 15.0505 12.5253ZM4.94951 17.5758C4.94951 17.8545 4.72313 18.0809 4.44444 18.0809C4.16579 18.0809 3.93942 17.8545 3.93942 17.5758V17.0708H4.94951V17.5758ZM16.0606 17.5758C16.0606 17.8545 15.8343 18.0809 15.5556 18.0809C15.2769 18.0809 15.0505 17.8545 15.0505 17.5758V17.0708H16.0606V17.5758ZM17.3218 9.78849C17.1664 9.87873 17.0707 10.045 17.0707 10.225V15.0506C17.0707 15.6074 16.6175 16.0607 16.0606 16.0607H3.93942C3.3826 16.0607 2.92934 15.6074 2.92934 15.0506V10.225C2.92934 10.0454 2.83365 9.87926 2.67829 9.78849C2.20282 9.51183 1.9192 9.02452 1.9192 8.48494C1.9192 8.04005 2.11404 7.61884 2.45334 7.33034C2.79761 7.03735 3.23904 6.91704 3.69231 6.991C4.40893 7.10738 4.94951 7.7964 4.94951 8.59294V11.1032C4.36291 11.3124 3.93942 11.8677 3.93942 12.5253C3.93942 13.3608 4.61906 14.0405 5.45457 14.0405H14.5455C15.381 14.0405 16.0606 13.3608 16.0606 12.5253C16.0606 11.8677 15.6371 11.3124 15.0505 11.1032V8.48494C15.0505 8.02623 15.2548 7.59763 15.6113 7.30814C15.9728 7.01467 16.4301 6.90667 16.8991 7.00482C17.4456 7.11927 17.9014 7.55871 18.033 8.09777C18.1992 8.77694 17.9201 9.44029 17.3218 9.78849Z" fill="#1F91B3" stroke="#1F91B3" stroke-width="0.2"/>
</svg>
