<svg width="20" height="20" viewBox="0 0 20 20" fill="none" xmlns="http://www.w3.org/2000/svg">
<path d="M19.0159 7.85804C18.7935 6.94905 18.0264 6.20875 17.1075 6.01638C17.0317 6.00047 16.9561 6.00326 16.8801 5.99417C16.1964 3.03001 13.5905 0.90918 10.5058 0.90918H9.49561C6.41147 0.90918 3.80513 3.03044 3.12113 5.99427C2.6378 6.05553 2.17601 6.24038 1.79893 6.56088C1.23363 7.0418 0.909058 7.74313 0.909058 8.48494C0.909058 9.27457 1.28983 10.0203 1.91924 10.4948V15.0506C1.91924 15.7952 2.32847 16.4395 2.92942 16.7899V17.5758C2.92942 18.4114 3.6091 19.091 4.44471 19.091C5.28032 19.091 5.96 18.4114 5.96 17.5758V17.0708H14.0415V17.5758C14.0415 18.4114 14.7212 19.091 15.5568 19.091C16.3924 19.091 17.0721 18.4114 17.0721 17.5758V16.7899C17.673 16.4395 18.0823 15.7952 18.0823 15.0506V10.4953C18.8896 9.88962 19.262 8.86571 19.0159 7.85804ZM9.4949 1.91926H10.505C13.0626 1.91926 15.2283 3.64374 15.8594 6.07239C15.541 6.16519 15.2379 6.31022 14.9745 6.5239C14.3806 7.00624 14.0404 7.72092 14.0404 8.48494V11.0102H5.95958V8.59294C5.95958 7.41254 5.19386 6.38385 4.14102 6.0696C4.77265 3.6428 6.93846 1.91926 9.4949 1.91926ZM15.0505 12.5253C15.0505 12.804 14.8241 13.0304 14.5454 13.0304H5.45451C5.17587 13.0304 4.94945 12.804 4.94945 12.5253C4.94945 12.2467 5.17582 12.0203 5.45451 12.0203H14.5454C14.8241 12.0203 15.0505 12.2467 15.0505 12.5253ZM4.94945 17.5758C4.94945 17.8545 4.72307 18.0809 4.44438 18.0809C4.16573 18.0809 3.93936 17.8545 3.93936 17.5758V17.0708H4.94945V17.5758ZM16.0606 17.5758C16.0606 17.8545 15.8342 18.0809 15.5555 18.0809C15.2769 18.0809 15.0504 17.8545 15.0504 17.5758V17.0708H16.0606V17.5758ZM17.3217 9.78849C17.1663 9.87873 17.0707 10.045 17.0707 10.225V15.0506C17.0707 15.6074 16.6174 16.0607 16.0606 16.0607H3.93936C3.38254 16.0607 2.92928 15.6074 2.92928 15.0506V10.225C2.92928 10.0454 2.83358 9.87926 2.67823 9.78849C2.20276 9.51183 1.91914 9.02452 1.91914 8.48494C1.91914 8.04005 2.11398 7.61884 2.45328 7.33034C2.79755 7.03735 3.23898 6.91704 3.69225 6.991C4.40887 7.10738 4.94945 7.7964 4.94945 8.59294V11.1032C4.36285 11.3124 3.93936 11.8677 3.93936 12.5253C3.93936 13.3608 4.619 14.0405 5.45451 14.0405H14.5454C15.3809 14.0405 16.0606 13.3608 16.0606 12.5253C16.0606 11.8677 15.6371 11.3124 15.0505 11.1032V8.48494C15.0505 8.02623 15.2547 7.59763 15.6113 7.30814C15.9728 7.01467 16.43 6.90667 16.8991 7.00482C17.4456 7.11927 17.9013 7.55871 18.033 8.09777C18.1992 8.77694 17.92 9.44029 17.3217 9.78849Z" fill="#656765" stroke="#656765" stroke-width="0.2"/>
</svg>
