<svg width="18" height="22" viewBox="0 0 18 22" fill="none" xmlns="http://www.w3.org/2000/svg">
<path d="M17.9079 18.5561L16.3674 15.9326C15.656 14.7217 15.28 13.3348 15.28 11.9231V9.625C15.28 6.72375 13.3852 4.26985 10.794 3.47875V1.83335C10.794 0.82225 9.98925 0 8.99963 0C8.01001 0 7.20522 0.82225 7.20522 1.83335V3.47875C4.61415 4.26985 2.71927 6.72375 2.71927 9.625V11.9231C2.71927 13.3348 2.34333 14.7207 1.63275 15.9317L0.0922805 18.5552C0.00884124 18.6973 0.00703283 18.8733 0.0868973 19.0172C0.166762 19.1611 0.314799 19.25 0.476295 19.25H17.523C17.6845 19.25 17.8334 19.1611 17.9133 19.0181C17.9932 18.8751 17.9905 18.6972 17.9079 18.5561Z" fill="white"/>
<path d="M6.17439 20.1665C6.68041 21.2464 7.75166 21.9999 8.99964 21.9999C10.2476 21.9999 11.3189 21.2464 11.8249 20.1665H6.17439V20.1665Z" fill="white"/>
</svg>
