<svg width="20" height="20" viewBox="0 0 20 20" fill="none" xmlns="http://www.w3.org/2000/svg">
<g clip-path="url(#clip0_718:3339)">
<path d="M5.1372 18.4375H2.3713C2.03778 18.4375 1.83657 18.2514 1.74634 18.1404C1.59056 17.9487 1.5302 17.6994 1.58087 17.4561C2.39216 13.5591 5.83122 10.7132 9.80138 10.6209C9.86751 10.6234 9.9338 10.625 10.0005 10.625C10.0677 10.625 10.1346 10.6233 10.2013 10.6208C11.1722 10.643 12.1204 10.8255 13.0231 11.1645C13.427 11.3162 13.8774 11.1116 14.0291 10.7077C14.1808 10.3038 13.9763 9.85336 13.5723 9.70168C13.443 9.65309 13.3127 9.60762 13.1819 9.56449C14.4749 8.59457 15.313 7.04957 15.313 5.3125C15.313 2.3832 12.9298 0 10.0005 0C7.07114 0 4.68798 2.3832 4.68798 5.3125C4.68798 7.05113 5.52751 8.59734 6.82247 9.56711C5.6361 9.95766 4.52282 10.565 3.54853 11.3664C1.76212 12.8358 0.520048 14.8854 0.0511812 17.1376C-0.0957719 17.8433 0.0802437 18.5682 0.534111 19.1262C0.985673 19.6815 1.65532 20 2.3713 20H5.1372C5.56868 20 5.91845 19.6502 5.91845 19.2188C5.91845 18.7873 5.56868 18.4375 5.1372 18.4375ZM6.25048 5.3125C6.25048 3.24473 7.9327 1.5625 10.0005 1.5625C12.0683 1.5625 13.7505 3.24473 13.7505 5.3125C13.7505 7.31902 12.1663 8.96242 10.1831 9.05801C10.1222 9.05691 10.0614 9.05598 10.0005 9.05598C9.93938 9.05598 9.87833 9.05688 9.81731 9.05797C7.83431 8.96211 6.25048 7.31883 6.25048 5.3125Z" fill="#1F91B3"/>
<path d="M19.4024 13.4612C19.068 12.7132 18.3147 12.2285 17.4815 12.2266H15.0451C15.0433 12.2266 15.0417 12.2266 15.0399 12.2266C14.161 12.2266 13.3942 12.7445 13.0856 13.5471C13.0446 13.6539 12.9944 13.7885 12.942 13.9453H7.82691C7.6157 13.9453 7.41351 14.0308 7.26637 14.1823L5.92433 15.5647C5.62875 15.8691 5.63023 16.3539 5.92766 16.6565L7.29484 18.0476C7.44172 18.197 7.6425 18.2812 7.85203 18.2812H10.3911C10.8226 18.2812 11.1723 17.9314 11.1723 17.5C11.1723 17.0685 10.8226 16.7187 10.3911 16.7187H8.17961L7.57695 16.1055L8.1573 15.5078H13.528C13.888 15.5078 14.2013 15.2619 14.2869 14.9123C14.3501 14.6543 14.4294 14.4061 14.5441 14.1078C14.6197 13.9111 14.8096 13.7891 15.0418 13.7891C15.0423 13.7891 15.0428 13.7891 15.0433 13.7891H17.4796C17.7006 13.7896 17.8907 13.9083 17.9759 14.0989C18.1857 14.5681 18.4361 15.2945 18.438 16.0905C18.4398 16.8925 18.1897 17.6355 17.9794 18.1177C17.8946 18.3121 17.7029 18.4375 17.4888 18.4375C17.4884 18.4375 17.4879 18.4375 17.4875 18.4375H15.0217C14.8055 18.437 14.6031 18.2979 14.5179 18.0915C14.4266 17.87 14.3474 17.617 14.2759 17.3182C14.1754 16.8986 13.7537 16.6398 13.3343 16.7402C12.9146 16.8406 12.6559 17.2622 12.7563 17.6818C12.847 18.0607 12.9507 18.3896 13.0735 18.6872C13.4016 19.4827 14.1649 19.998 15.0199 20H17.4857C17.4874 20 17.4889 20 17.4906 20C18.3246 19.9999 19.0784 19.5066 19.4117 18.7421C19.6817 18.1229 20.003 17.1596 20.0005 16.0868C19.998 15.017 19.6739 14.0685 19.4024 13.4612Z" fill="#1F91B3"/>
<path d="M16.8359 16.875C17.2674 16.875 17.6172 16.5252 17.6172 16.0938C17.6172 15.6623 17.2674 15.3125 16.8359 15.3125C16.4045 15.3125 16.0547 15.6623 16.0547 16.0938C16.0547 16.5252 16.4045 16.875 16.8359 16.875Z" fill="#1F91B3"/>
</g>
<defs>
<clipPath id="clip0_718:3339">
<rect width="20" height="20" fill="white"/>
</clipPath>
</defs>
</svg>
