<svg width="20" height="20" viewBox="0 0 20 20" fill="none" xmlns="http://www.w3.org/2000/svg">
<g clip-path="url(#clip0_718:4315)">
<path d="M5.13695 18.4375H2.37105C2.03754 18.4375 1.83633 18.2514 1.74609 18.1404C1.59031 17.9487 1.52996 17.6994 1.58062 17.4561C2.39191 13.5591 5.83098 10.7132 9.80113 10.6209C9.86727 10.6234 9.93355 10.625 10.0002 10.625C10.0675 10.625 10.1344 10.6233 10.2011 10.6208C11.1719 10.643 12.1202 10.8255 13.0228 11.1645C13.4267 11.3162 13.8771 11.1116 14.0288 10.7077C14.1805 10.3038 13.976 9.85336 13.5721 9.70168C13.4427 9.65309 13.3125 9.60762 13.1816 9.56449C14.4746 8.59457 15.3127 7.04957 15.3127 5.3125C15.3127 2.3832 12.9296 0 10.0002 0C7.0709 0 4.68773 2.3832 4.68773 5.3125C4.68773 7.05113 5.52727 8.59734 6.82223 9.56711C5.63586 9.95766 4.52258 10.565 3.54828 11.3664C1.76187 12.8358 0.519804 14.8854 0.050937 17.1376C-0.0960161 17.8433 0.0799995 18.5682 0.533867 19.1262C0.985429 19.6815 1.65508 20 2.37105 20H5.13695C5.56844 20 5.9182 19.6502 5.9182 19.2188C5.9182 18.7873 5.56844 18.4375 5.13695 18.4375ZM6.25023 5.3125C6.25023 3.24473 7.93246 1.5625 10.0002 1.5625C12.068 1.5625 13.7502 3.24473 13.7502 5.3125C13.7502 7.31902 12.1661 8.96242 10.1828 9.05801C10.122 9.05691 10.0612 9.05598 10.0002 9.05598C9.93914 9.05598 9.87809 9.05688 9.81707 9.05797C7.83406 8.96211 6.25023 7.31883 6.25023 5.3125Z" fill="#656765"/>
<path d="M19.4024 13.4612C19.068 12.7132 18.3147 12.2285 17.4815 12.2266H15.0451C15.0433 12.2266 15.0417 12.2266 15.0399 12.2266C14.161 12.2266 13.3942 12.7445 13.0856 13.5471C13.0446 13.6539 12.9944 13.7885 12.942 13.9453H7.82691C7.6157 13.9453 7.41351 14.0308 7.26637 14.1823L5.92433 15.5647C5.62875 15.8691 5.63023 16.3539 5.92766 16.6565L7.29484 18.0476C7.44172 18.197 7.6425 18.2812 7.85203 18.2812H10.3911C10.8226 18.2812 11.1723 17.9314 11.1723 17.5C11.1723 17.0685 10.8226 16.7187 10.3911 16.7187H8.17961L7.57695 16.1055L8.1573 15.5078H13.528C13.888 15.5078 14.2013 15.2619 14.2869 14.9123C14.3501 14.6543 14.4294 14.4061 14.5441 14.1078C14.6197 13.9111 14.8096 13.7891 15.0418 13.7891C15.0423 13.7891 15.0428 13.7891 15.0433 13.7891H17.4796C17.7006 13.7896 17.8907 13.9083 17.9759 14.0989C18.1857 14.5681 18.4361 15.2945 18.438 16.0905C18.4398 16.8925 18.1897 17.6355 17.9794 18.1177C17.8946 18.3121 17.7029 18.4375 17.4888 18.4375C17.4884 18.4375 17.4879 18.4375 17.4875 18.4375H15.0217C14.8055 18.437 14.6031 18.2979 14.5179 18.0915C14.4266 17.87 14.3474 17.617 14.2759 17.3182C14.1754 16.8986 13.7537 16.6398 13.3343 16.7402C12.9146 16.8406 12.6559 17.2622 12.7563 17.6818C12.847 18.0607 12.9507 18.3896 13.0735 18.6872C13.4016 19.4827 14.1649 19.998 15.0199 20H17.4857C17.4874 20 17.4889 20 17.4906 20C18.3246 19.9999 19.0784 19.5066 19.4117 18.7421C19.6817 18.1229 20.003 17.1596 20.0005 16.0868C19.998 15.017 19.6739 14.0685 19.4024 13.4612Z" fill="#656765"/>
<path d="M16.8359 16.875C17.2674 16.875 17.6172 16.5252 17.6172 16.0938C17.6172 15.6623 17.2674 15.3125 16.8359 15.3125C16.4045 15.3125 16.0547 15.6623 16.0547 16.0938C16.0547 16.5252 16.4045 16.875 16.8359 16.875Z" fill="#656765"/>
</g>
<defs>
<clipPath id="clip0_718:4315">
<rect width="20" height="20" fill="white"/>
</clipPath>
</defs>
</svg>
