<svg width="36" height="47" viewBox="0 0 36 47" fill="none" xmlns="http://www.w3.org/2000/svg">
<path d="M35.0607 13.0607C35.6464 12.4749 35.6464 11.5251 35.0607 10.9393L25.5147 1.3934C24.9289 0.807611 23.9792 0.807611 23.3934 1.3934C22.8076 1.97919 22.8076 2.92893 23.3934 3.51472L31.8787 12L23.3934 20.4853C22.8076 21.0711 22.8076 22.0208 23.3934 22.6066C23.9792 23.1924 24.9289 23.1924 25.5147 22.6066L35.0607 13.0607ZM2 13.5H34V10.5H2V13.5Z" fill="#1F91B3"/>
<path d="M0.939339 34.4393C0.353554 35.0251 0.353554 35.9749 0.939339 36.5607L10.4853 46.1066C11.0711 46.6924 12.0208 46.6924 12.6066 46.1066C13.1924 45.5208 13.1924 44.5711 12.6066 43.9853L4.12132 35.5L12.6066 27.0147C13.1924 26.4289 13.1924 25.4792 12.6066 24.8934C12.0208 24.3076 11.0711 24.3076 10.4853 24.8934L0.939339 34.4393ZM34 34L2 34V37L34 37V34Z" fill="#1F91B3"/>
</svg>
