<svg width="20" height="20" viewBox="0 0 20 20" fill="none" xmlns="http://www.w3.org/2000/svg">
<path d="M18.1209 7.57354L17.1943 7.4164C17.1118 7.18679 17.0186 6.96152 16.9155 6.74249L17.4612 5.97914C17.9359 5.31219 17.8596 4.41142 17.2817 3.83912L16.1683 2.72555C15.8536 2.41084 15.4364 2.23747 14.9937 2.23747C14.6451 2.23747 14.3116 2.34489 14.0319 2.54623L13.2656 3.092C13.0286 2.97995 12.7881 2.88094 12.5461 2.79542L12.3928 1.88754C12.258 1.08346 11.5683 0.5 10.7528 0.5H9.17968C8.36429 0.5 7.67458 1.08346 7.54005 1.88595L7.37901 2.82934C7.15157 2.9124 6.92731 3.00677 6.7077 3.11215L5.95537 2.5703C5.67328 2.36721 5.33857 2.25994 4.98734 2.25994C4.54028 2.25994 4.12295 2.4336 3.81172 2.74903L2.69569 3.86144C2.11933 4.4378 2.04381 5.33784 2.51623 6.00146L3.07069 6.78047C2.9685 7.00037 2.87659 7.22665 2.79542 7.45757L1.8874 7.61079C1.08346 7.74575 0.5 8.43546 0.5 9.25085V10.8239C0.5 11.6393 1.08346 12.329 1.88595 12.4637L2.82934 12.6246C2.9124 12.8522 3.00691 13.0766 3.11215 13.2961L2.57233 14.047C2.09759 14.7139 2.17384 15.6148 2.75179 16.187L3.86521 17.3005C4.17992 17.6152 4.59711 17.7886 5.03981 17.7886C5.38844 17.7886 5.72184 17.6812 6.00146 17.48L6.78047 16.9255C6.98515 17.0206 7.19737 17.1077 7.41525 17.1862L7.56963 18.1126C7.70458 18.9165 8.39429 19.5 9.20969 19.5H10.7864C11.6018 19.5 12.2916 18.9165 12.4263 18.1136L12.5835 17.1869C12.8131 17.1044 13.0383 17.0112 13.2574 16.9081L14.0182 17.452C14.3003 17.6551 14.635 17.7625 14.9863 17.7625C15.4288 17.7625 15.846 17.5892 16.1607 17.2745L17.2742 16.1609C17.8507 15.5845 17.926 14.6845 17.4536 14.0209L16.9074 13.2539C17.0132 13.0298 17.1067 12.8047 17.1872 12.5808L18.1125 12.4266C18.9164 12.2916 19.4999 11.6019 19.4999 10.7865V9.21664C19.509 8.40038 18.9297 7.7098 18.1209 7.57354ZM18.3866 10.7865C18.3866 11.056 18.1938 11.284 17.9288 11.3285L16.7016 11.5331C16.4752 11.5708 16.2925 11.7305 16.2245 11.9501C16.1155 12.3034 15.9658 12.6645 15.7798 13.0228C15.6745 13.2249 15.6914 13.4657 15.8236 13.6509L16.5468 14.6665C16.7027 14.8857 16.6777 15.1831 16.487 15.3738L15.3736 16.4872C15.2676 16.5931 15.1337 16.6492 14.9863 16.6492C14.87 16.6492 14.7603 16.6145 14.6672 16.5475L13.656 15.8247C13.47 15.6912 13.2282 15.6744 13.0251 15.7807C12.6851 15.9587 12.3237 16.1084 11.951 16.2254C11.7336 16.2935 11.5748 16.4756 11.537 16.6997L11.3285 17.9282C11.284 18.1939 11.056 18.3867 10.7864 18.3867H9.20969C8.94006 18.3867 8.71219 18.1939 8.66769 17.9289L8.46315 16.7017C8.42575 16.4767 8.26746 16.2944 8.05002 16.2257C7.68269 16.1097 7.33291 15.9659 7.01009 15.7982C6.9221 15.7525 6.82686 15.7301 6.73206 15.7301C6.60942 15.7301 6.48737 15.7678 6.38285 15.8421L5.3535 16.5747C5.26073 16.6416 5.1552 16.6753 5.03981 16.6753C4.89239 16.6753 4.75845 16.6194 4.65248 16.5133L3.53703 15.398C3.34669 15.2095 3.32249 14.9129 3.47774 14.6948L4.19659 13.6948C4.33183 13.5071 4.34836 13.2636 4.23935 13.0588C4.05656 12.7159 3.90508 12.3564 3.78896 11.9901C3.72025 11.7741 3.53891 11.6163 3.31567 11.5782L2.07164 11.3661C1.80608 11.3214 1.61328 11.0934 1.61328 10.8239V9.25085C1.61328 8.98138 1.80608 8.75336 2.07207 8.70871L3.28422 8.50417C3.51079 8.46605 3.69329 8.30587 3.7607 8.08553C3.87507 7.71125 4.0222 7.34929 4.19804 7.01009C4.3027 6.80845 4.28588 6.56825 4.15411 6.38285L3.42323 5.35596C3.26711 5.13679 3.29219 4.83933 3.48223 4.64929L4.59943 3.53587L4.60349 3.53166C4.70394 3.42947 4.8402 3.37322 4.98734 3.37322C5.10359 3.37322 5.21347 3.40801 5.30479 3.47382L6.30907 4.19673C6.49708 4.33212 6.7409 4.34836 6.945 4.23935C7.28783 4.05656 7.64732 3.90508 8.0132 3.78911C8.22919 3.72054 8.38705 3.53949 8.42546 3.31567L8.63768 2.07164C8.68218 1.80608 8.9102 1.61328 9.17982 1.61328H10.7529C11.0224 1.61328 11.2504 1.80608 11.2951 2.07207L11.4996 3.28465C11.5379 3.51137 11.6983 3.69373 11.9188 3.76099C12.2947 3.87521 12.6696 4.02945 13.0333 4.21964C13.2353 4.32516 13.4761 4.30864 13.6622 4.17629L14.6801 3.45135C14.7728 3.38453 14.8783 3.35075 14.9938 3.35075C15.1411 3.35075 15.275 3.40671 15.3811 3.51282L16.4965 4.62813C16.6868 4.81657 16.7111 5.11316 16.5549 5.33248L15.8314 6.34473C15.6986 6.53085 15.6821 6.77235 15.788 6.97472C15.9662 7.31479 16.1158 7.67617 16.2329 8.049C16.3012 8.26644 16.4831 8.42503 16.7072 8.46286L17.9347 8.67117L17.9358 8.67131C18.2006 8.71581 18.3903 8.9405 18.3866 9.20563V10.7865Z" fill="#1F91B3" stroke="#1F91B3" stroke-width="0.4"/>
<path d="M9.99979 6.30591C7.96283 6.30591 6.30566 7.96307 6.30566 10C6.30566 12.037 7.96283 13.6942 9.99979 13.6942C12.0367 13.6942 13.6939 12.037 13.6939 10C13.6939 7.96307 12.0367 6.30591 9.99979 6.30591ZM9.99979 12.5809C8.57673 12.5809 7.41895 11.4231 7.41895 10C7.41895 8.57697 8.57673 7.41919 9.99979 7.41919C11.4228 7.41919 12.5806 8.57697 12.5806 10C12.5806 11.4231 11.4228 12.5809 9.99979 12.5809Z" fill="#1F91B3" stroke="#1F91B3" stroke-width="0.4"/>
</svg>
