<svg width="13" height="14" viewBox="0 0 13 14" fill="none" xmlns="http://www.w3.org/2000/svg">
<path fill-rule="evenodd" clip-rule="evenodd" d="M8.83186 8.19447L12.7406 12.1065C13.0579 12.4239 13.0579 12.939 12.7406 13.2565C12.5823 13.4152 12.3743 13.4948 12.1662 13.4948C11.9582 13.4948 11.7502 13.4152 11.5915 13.2565L7.68279 9.34452C6.88733 9.9108 5.91729 10.2473 4.8669 10.2473C2.1791 10.2473 0 8.0662 0 5.37608C0 2.68597 2.1791 0.504883 4.8669 0.504883C7.55468 0.504883 9.73378 2.68597 9.73376 5.37608C9.73376 6.42746 9.39764 7.39843 8.83186 8.19447ZM7.19121 7.70207L7.5102 7.25313C7.90385 6.69942 8.11187 6.05033 8.11151 5.37608C8.11151 3.5855 6.65604 2.12862 4.8669 2.12862C3.07776 2.12862 1.62231 3.5855 1.62231 5.37608C1.62231 7.16664 3.07776 8.62355 4.8669 8.62355C5.54076 8.62355 6.18936 8.4153 6.7425 8.02154L7.19121 7.70207Z" fill="#5B5B5B"/>
</svg>
