<svg width="20" height="20" viewBox="0 0 20 20" fill="none" xmlns="http://www.w3.org/2000/svg">
<path d="M15.0413 5.66634L16.4371 7.06217C16.5413 7.16634 16.6663 7.20801 16.7913 7.20801C16.9163 7.20801 17.0413 7.16634 17.1454 7.06217C17.3329 6.87467 17.3329 6.54134 17.1454 6.35384L15.7496 4.95801L16.3746 4.33301C16.4788 4.22884 16.5204 4.10384 16.5204 3.97884C16.5204 3.70801 16.2913 3.47884 16.0204 3.47884C15.8746 3.47884 15.7288 3.54134 15.6454 3.64551L15.0413 4.24967L13.6454 2.85384C13.4579 2.66634 13.1246 2.66634 12.9371 2.85384C12.7496 3.04134 12.7496 3.37467 12.9371 3.56217L14.3329 4.95801L12.5204 6.77051L10.7079 4.95801L11.6454 4.02051C11.8329 3.83301 11.8329 3.49967 11.6454 3.31217C11.4579 3.12467 11.1246 3.12467 10.9371 3.31217L9.99959 4.22884L9.06209 3.29134C8.87459 3.10384 8.54126 3.10384 8.35376 3.29134C8.16626 3.47884 8.16626 3.81217 8.35376 3.99967L9.29126 4.93717L7.47876 6.74967L5.66626 4.93717L7.06209 3.54134C7.24959 3.35384 7.24959 3.02051 7.06209 2.83301C6.87459 2.64551 6.54126 2.64551 6.35376 2.83301L4.95793 4.22884L4.37459 3.64551C4.29126 3.54134 4.14543 3.45801 3.97876 3.45801C3.70793 3.45801 3.47876 3.68717 3.47876 3.95801C3.47876 4.08301 3.54126 4.22884 3.62459 4.31217L4.24959 4.93717L2.85376 6.33301C2.66626 6.52051 2.66626 6.85384 2.85376 7.04134C2.95793 7.14551 3.08293 7.18717 3.20793 7.18717C3.33293 7.18717 3.45793 7.14551 3.56209 7.04134L4.95793 5.64551L6.77043 7.45801L4.95793 9.27051L4.02043 8.33301C3.83293 8.14551 3.49959 8.14551 3.31209 8.33301C3.12459 8.52051 3.12459 8.85384 3.31209 9.04134L4.24959 9.97884L3.31209 10.9163C3.12459 11.1038 3.12459 11.4372 3.31209 11.6247C3.41626 11.7288 3.54126 11.7705 3.66626 11.7705C3.79126 11.7705 3.91626 11.7288 4.02043 11.6247L4.95793 10.6872L6.77043 12.4997L4.95793 14.3122L3.56209 12.9163C3.37459 12.7288 3.04126 12.7288 2.85376 12.9163C2.66626 13.1038 2.66626 13.4372 2.85376 13.6247L4.24959 15.0205L3.66626 15.6038C3.56209 15.6872 3.47876 15.833 3.47876 15.9997C3.47876 16.2705 3.70793 16.4997 3.97876 16.4997C4.10376 16.4997 4.24959 16.4372 4.33293 16.3538L4.95793 15.7288L6.35376 17.1247C6.45793 17.2288 6.58293 17.2705 6.70793 17.2705C6.83293 17.2705 6.95793 17.2288 7.06209 17.1247C7.24959 16.9372 7.24959 16.6038 7.06209 16.4163L5.66626 15.0205L7.47876 13.208L9.29126 15.0205L8.35376 15.958C8.16626 16.1455 8.16626 16.4788 8.35376 16.6663C8.45793 16.7705 8.58293 16.8122 8.70793 16.8122C8.83293 16.8122 8.95793 16.7705 9.06209 16.6663L9.99959 15.7288L10.9371 16.6663C11.0413 16.7705 11.1663 16.8122 11.2913 16.8122C11.4163 16.8122 11.5413 16.7705 11.6454 16.6663C11.8329 16.4788 11.8329 16.1455 11.6454 15.958L10.7079 15.0205L12.5204 13.208L14.3329 15.0205L12.9163 16.4372C12.7288 16.6247 12.7288 16.958 12.9163 17.1455C13.0204 17.2497 13.1454 17.2913 13.2704 17.2913C13.3954 17.2913 13.5204 17.2497 13.6246 17.1455L15.0204 15.7497L15.6454 16.3747C15.7496 16.4788 15.8746 16.5205 15.9996 16.5205C16.2704 16.5205 16.4996 16.2913 16.4996 16.0205C16.4996 15.8747 16.4371 15.7288 16.3329 15.6455L15.7288 15.0413L17.1246 13.6455C17.3121 13.458 17.3121 13.1247 17.1246 12.9372C16.9371 12.7497 16.6038 12.7497 16.4163 12.9372L15.0204 14.333L13.2079 12.5205L15.0204 10.708L15.9579 11.6455C16.0621 11.7497 16.1871 11.7913 16.3121 11.7913C16.4371 11.7913 16.5621 11.7497 16.6663 11.6455C16.8538 11.458 16.8538 11.1247 16.6663 10.9372L15.7704 9.99967L16.7079 9.06217C16.8954 8.87467 16.8954 8.54134 16.7079 8.35384C16.5204 8.16634 16.1871 8.16634 15.9996 8.35384L15.0621 9.29134L13.2496 7.47884L15.0413 5.66634ZM9.99959 5.66634L11.8121 7.47884L9.99959 9.29134L8.18709 7.47884L9.99959 5.66634ZM5.66626 9.99967L7.47876 8.18717L9.29126 9.99967L7.47876 11.8122L5.66626 9.99967ZM9.99959 14.333L8.18709 12.5205L9.99959 10.708L11.8121 12.5205L9.99959 14.333ZM14.3329 9.99967L12.5204 11.8122L10.7079 9.99967L12.5204 8.18717L14.3329 9.99967Z" fill="#656765"/>
<path d="M19.8958 6.02067C19.8958 5.49984 19.6875 5.02067 19.3333 4.6665C19.1666 4.49984 19.0625 4.27067 19.0625 4.02067C19.0625 3.77067 19.1666 3.56234 19.3333 3.37484C19.6875 3.02067 19.8958 2.5415 19.8958 2.02067C19.8958 1.49984 19.6875 1.02067 19.3333 0.666504C18.5833 -0.0834961 17.375 -0.0834961 16.625 0.666504C16.2708 1.02067 15.7083 1.02067 15.3541 0.666504C14.6041 -0.0834961 13.3958 -0.0834961 12.6458 0.666504C12.2916 1.02067 11.7291 1.02067 11.375 0.666504C10.625 -0.0834961 9.41663 -0.0834961 8.66663 0.666504C8.31246 1.02067 7.74996 1.02067 7.39579 0.666504C6.64579 -0.0834961 5.43746 -0.0834961 4.68746 0.666504C4.33329 1.02067 3.77079 1.02067 3.41663 0.666504C2.66663 -0.0834961 1.45829 -0.0834961 0.708293 0.666504C0.354126 1.02067 0.145793 1.49984 0.145793 2.02067C0.145793 2.5415 0.354126 3.02067 0.708293 3.37484C0.833293 3.5415 0.937459 3.77067 0.937459 4.02067C0.937459 4.27067 0.833293 4.479 0.666626 4.64567C0.312459 4.99984 0.104126 5.479 0.104126 5.99984C0.104126 6.52067 0.312459 6.99984 0.666626 7.354C0.833293 7.52067 0.937459 7.74984 0.937459 7.99984C0.937459 8.24984 0.833293 8.45817 0.666626 8.64567C0.312459 8.99984 0.104126 9.479 0.104126 9.99984C0.104126 10.5207 0.312459 10.9998 0.666626 11.354C1.02079 11.7082 1.02079 12.2707 0.666626 12.6248C0.312459 12.979 0.104126 13.4582 0.104126 13.979C0.104126 14.4998 0.312459 14.979 0.666626 15.3332C1.02079 15.6873 1.02079 16.2498 0.666626 16.604C0.312459 16.9582 0.104126 17.4373 0.104126 17.9582C0.104126 18.479 0.312459 18.9582 0.666626 19.3123C1.41663 20.0623 2.62496 20.0623 3.37496 19.3123C3.72913 18.9582 4.29163 18.9582 4.64579 19.3123C5.39579 20.0623 6.60413 20.0623 7.35413 19.3123C7.70829 18.9582 8.27079 18.9582 8.62496 19.3123C9.37496 20.0623 10.5833 20.0623 11.3333 19.3123C11.6875 18.9582 12.25 18.9582 12.6041 19.3123C13.3541 20.0623 14.5625 20.0623 15.3125 19.3123C15.6666 18.9582 16.2291 18.9582 16.5833 19.3123C16.9583 19.6873 17.4583 19.8748 17.9375 19.8748C18.4375 19.8748 18.9166 19.6873 19.2916 19.3123C19.6458 18.9582 19.8541 18.479 19.8541 17.9582C19.8541 17.4373 19.6458 16.9582 19.2916 16.604C19.125 16.4373 19.0208 16.2082 19.0208 15.9582C19.0208 15.7082 19.125 15.4998 19.2916 15.3123C19.6458 14.9582 19.8541 14.479 19.8541 13.9582C19.8541 13.4373 19.6458 12.9582 19.2916 12.604C19.125 12.4373 19.0208 12.2082 19.0208 11.9582C19.0208 11.7082 19.125 11.4998 19.2916 11.3123C19.6458 10.9582 19.8541 10.479 19.8541 9.95817C19.8541 9.43734 19.6458 8.95817 19.2916 8.604C19.125 8.43734 19.0208 8.20817 19.0208 7.95817C19.0208 7.70817 19.125 7.49984 19.2916 7.31234C19.6875 6.99984 19.8958 6.52067 19.8958 6.02067ZM18.625 5.37484C18.7916 5.5415 18.8958 5.77067 18.8958 6.02067C18.8958 6.27067 18.7916 6.479 18.625 6.6665C18.2708 7.02067 18.0625 7.49984 18.0625 8.02067C18.0625 8.5415 18.2708 9.02067 18.625 9.37484C18.7916 9.5415 18.8958 9.77067 18.8958 10.0207C18.8958 10.2707 18.7916 10.479 18.625 10.6665C18.2708 11.0207 18.0625 11.4998 18.0625 12.0207C18.0625 12.5415 18.2708 13.0207 18.625 13.3748C18.7916 13.5415 18.8958 13.7707 18.8958 14.0207C18.8958 14.2707 18.7916 14.479 18.625 14.6665C18.2708 15.0207 18.0625 15.4998 18.0625 16.0207C18.0625 16.5415 18.2708 17.0207 18.625 17.3748C18.7916 17.5415 18.8958 17.7707 18.8958 18.0207C18.8958 18.2707 18.7916 18.479 18.625 18.6665C18.2708 19.0207 17.7083 19.0207 17.3541 18.6665C16.9791 18.2915 16.4791 18.104 16 18.104C15.5 18.104 15.0208 18.2915 14.6458 18.6665C14.2916 19.0207 13.7291 19.0207 13.375 18.6665C12.625 17.9165 11.4166 17.9165 10.6666 18.6665C10.3125 19.0207 9.74996 19.0207 9.39579 18.6665C8.64579 17.9165 7.43746 17.9165 6.68746 18.6665C6.33329 19.0207 5.77079 19.0207 5.41663 18.6665C4.66663 17.9165 3.45829 17.9165 2.70829 18.6665C2.35413 19.0207 1.79163 19.0207 1.43746 18.6665C1.27079 18.4998 1.16663 18.2707 1.16663 18.0207C1.16663 17.7707 1.27079 17.5623 1.43746 17.3748C2.18746 16.6248 2.18746 15.4165 1.43746 14.6665C1.27079 14.4998 1.16663 14.2707 1.16663 14.0207C1.16663 13.7707 1.27079 13.5623 1.43746 13.3748C1.79163 13.0207 1.99996 12.5415 1.99996 12.0207C1.99996 11.4998 1.79163 11.0207 1.43746 10.6665C1.27079 10.4998 1.16663 10.2707 1.16663 10.0207C1.16663 9.77067 1.27079 9.56234 1.43746 9.37484C1.79163 9.02067 1.99996 8.5415 1.99996 8.02067C1.99996 7.49984 1.79163 7.02067 1.43746 6.6665C1.27079 6.49984 1.16663 6.27067 1.16663 6.02067C1.16663 5.77067 1.27079 5.56234 1.43746 5.37484C1.79163 5.02067 1.99996 4.5415 1.99996 4.02067C1.99996 3.49984 1.79163 3.02067 1.43746 2.6665C1.27079 2.49984 1.16663 2.27067 1.16663 2.02067C1.16663 1.77067 1.27079 1.56234 1.43746 1.37484C1.79163 1.02067 2.35413 1.02067 2.70829 1.37484C3.45829 2.12484 4.66663 2.12484 5.41663 1.37484C5.77079 1.02067 6.33329 1.02067 6.68746 1.37484C7.43746 2.12484 8.64579 2.12484 9.39579 1.37484C9.74996 1.02067 10.3125 1.02067 10.6666 1.37484C11.4166 2.12484 12.625 2.12484 13.375 1.37484C13.7291 1.02067 14.2916 1.02067 14.6458 1.37484C15.3958 2.12484 16.6041 2.12484 17.3541 1.37484C17.7083 1.02067 18.2708 1.02067 18.625 1.37484C18.7916 1.5415 18.8958 1.77067 18.8958 2.02067C18.8958 2.27067 18.7916 2.479 18.625 2.6665C18.2708 3.02067 18.0625 3.49984 18.0625 4.02067C18.0625 4.5415 18.25 4.99984 18.625 5.37484Z" fill="#656765"/>
</svg>
