<svg width="20" height="20" viewBox="0 0 20 20" fill="none" xmlns="http://www.w3.org/2000/svg">
<path d="M15.0415 5.66634L16.4373 7.06217C16.5415 7.16634 16.6665 7.20801 16.7915 7.20801C16.9165 7.20801 17.0415 7.16634 17.1457 7.06217C17.3332 6.87467 17.3332 6.54134 17.1457 6.35384L15.7498 4.95801L16.3748 4.33301C16.479 4.22884 16.5207 4.10384 16.5207 3.97884C16.5207 3.70801 16.2915 3.47884 16.0207 3.47884C15.8748 3.47884 15.729 3.54134 15.6457 3.64551L15.0415 4.24967L13.6457 2.85384C13.4582 2.66634 13.1248 2.66634 12.9373 2.85384C12.7498 3.04134 12.7498 3.37467 12.9373 3.56217L14.3332 4.95801L12.5207 6.77051L10.7082 4.95801L11.6457 4.02051C11.8332 3.83301 11.8332 3.49967 11.6457 3.31217C11.4582 3.12467 11.1248 3.12467 10.9373 3.31217L9.99984 4.22884L9.06234 3.29134C8.87484 3.10384 8.5415 3.10384 8.354 3.29134C8.1665 3.47884 8.1665 3.81217 8.354 3.99967L9.2915 4.93717L7.479 6.74967L5.6665 4.93717L7.06234 3.54134C7.24984 3.35384 7.24984 3.02051 7.06234 2.83301C6.87484 2.64551 6.5415 2.64551 6.354 2.83301L4.95817 4.22884L4.37484 3.64551C4.2915 3.54134 4.14567 3.45801 3.979 3.45801C3.70817 3.45801 3.479 3.68717 3.479 3.95801C3.479 4.08301 3.5415 4.22884 3.62484 4.31217L4.24984 4.93717L2.854 6.33301C2.6665 6.52051 2.6665 6.85384 2.854 7.04134C2.95817 7.14551 3.08317 7.18717 3.20817 7.18717C3.33317 7.18717 3.45817 7.14551 3.56234 7.04134L4.95817 5.64551L6.77067 7.45801L4.95817 9.27051L4.02067 8.33301C3.83317 8.14551 3.49984 8.14551 3.31234 8.33301C3.12484 8.52051 3.12484 8.85384 3.31234 9.04134L4.24984 9.97884L3.31234 10.9163C3.12484 11.1038 3.12484 11.4372 3.31234 11.6247C3.4165 11.7288 3.5415 11.7705 3.6665 11.7705C3.7915 11.7705 3.9165 11.7288 4.02067 11.6247L4.95817 10.6872L6.77067 12.4997L4.95817 14.3122L3.56234 12.9163C3.37484 12.7288 3.0415 12.7288 2.854 12.9163C2.6665 13.1038 2.6665 13.4372 2.854 13.6247L4.24984 15.0205L3.6665 15.6038C3.56234 15.6872 3.479 15.833 3.479 15.9997C3.479 16.2705 3.70817 16.4997 3.979 16.4997C4.104 16.4997 4.24984 16.4372 4.33317 16.3538L4.95817 15.7288L6.354 17.1247C6.45817 17.2288 6.58317 17.2705 6.70817 17.2705C6.83317 17.2705 6.95817 17.2288 7.06234 17.1247C7.24984 16.9372 7.24984 16.6038 7.06234 16.4163L5.6665 15.0205L7.479 13.208L9.2915 15.0205L8.354 15.958C8.1665 16.1455 8.1665 16.4788 8.354 16.6663C8.45817 16.7705 8.58317 16.8122 8.70817 16.8122C8.83317 16.8122 8.95817 16.7705 9.06234 16.6663L9.99984 15.7288L10.9373 16.6663C11.0415 16.7705 11.1665 16.8122 11.2915 16.8122C11.4165 16.8122 11.5415 16.7705 11.6457 16.6663C11.8332 16.4788 11.8332 16.1455 11.6457 15.958L10.7082 15.0205L12.5207 13.208L14.3332 15.0205L12.9165 16.4372C12.729 16.6247 12.729 16.958 12.9165 17.1455C13.0207 17.2497 13.1457 17.2913 13.2707 17.2913C13.3957 17.2913 13.5207 17.2497 13.6248 17.1455L15.0207 15.7497L15.6457 16.3747C15.7498 16.4788 15.8748 16.5205 15.9998 16.5205C16.2707 16.5205 16.4998 16.2913 16.4998 16.0205C16.4998 15.8747 16.4373 15.7288 16.3332 15.6455L15.729 15.0413L17.1248 13.6455C17.3123 13.458 17.3123 13.1247 17.1248 12.9372C16.9373 12.7497 16.604 12.7497 16.4165 12.9372L15.0207 14.333L13.2082 12.5205L15.0207 10.708L15.9582 11.6455C16.0623 11.7497 16.1873 11.7913 16.3123 11.7913C16.4373 11.7913 16.5623 11.7497 16.6665 11.6455C16.854 11.458 16.854 11.1247 16.6665 10.9372L15.7707 9.99967L16.7082 9.06217C16.8957 8.87467 16.8957 8.54134 16.7082 8.35384C16.5207 8.16634 16.1873 8.16634 15.9998 8.35384L15.0623 9.29134L13.2498 7.47884L15.0415 5.66634ZM9.99984 5.66634L11.8123 7.47884L9.99984 9.29134L8.18734 7.47884L9.99984 5.66634ZM5.6665 9.99967L7.479 8.18717L9.2915 9.99967L7.479 11.8122L5.6665 9.99967ZM9.99984 14.333L8.18734 12.5205L9.99984 10.708L11.8123 12.5205L9.99984 14.333ZM14.3332 9.99967L12.5207 11.8122L10.7082 9.99967L12.5207 8.18717L14.3332 9.99967Z" fill="#1F91B3"/>
<path d="M19.8959 6.02067C19.8959 5.49984 19.6876 5.02067 19.3334 4.6665C19.1667 4.49984 19.0626 4.27067 19.0626 4.02067C19.0626 3.77067 19.1667 3.56234 19.3334 3.37484C19.6876 3.02067 19.8959 2.5415 19.8959 2.02067C19.8959 1.49984 19.6876 1.02067 19.3334 0.666504C18.5834 -0.0834961 17.3751 -0.0834961 16.6251 0.666504C16.2709 1.02067 15.7084 1.02067 15.3542 0.666504C14.6042 -0.0834961 13.3959 -0.0834961 12.6459 0.666504C12.2917 1.02067 11.7292 1.02067 11.3751 0.666504C10.6251 -0.0834961 9.41675 -0.0834961 8.66675 0.666504C8.31258 1.02067 7.75008 1.02067 7.39592 0.666504C6.64592 -0.0834961 5.43758 -0.0834961 4.68758 0.666504C4.33342 1.02067 3.77091 1.02067 3.41675 0.666504C2.66675 -0.0834961 1.45841 -0.0834961 0.708415 0.666504C0.354248 1.02067 0.145915 1.49984 0.145915 2.02067C0.145915 2.5415 0.354248 3.02067 0.708415 3.37484C0.833415 3.5415 0.937581 3.77067 0.937581 4.02067C0.937581 4.27067 0.833415 4.479 0.666748 4.64567C0.312581 4.99984 0.104248 5.479 0.104248 5.99984C0.104248 6.52067 0.312581 6.99984 0.666748 7.354C0.833415 7.52067 0.937581 7.74984 0.937581 7.99984C0.937581 8.24984 0.833415 8.45817 0.666748 8.64567C0.312581 8.99984 0.104248 9.479 0.104248 9.99984C0.104248 10.5207 0.312581 10.9998 0.666748 11.354C1.02091 11.7082 1.02091 12.2707 0.666748 12.6248C0.312581 12.979 0.104248 13.4582 0.104248 13.979C0.104248 14.4998 0.312581 14.979 0.666748 15.3332C1.02091 15.6873 1.02091 16.2498 0.666748 16.604C0.312581 16.9582 0.104248 17.4373 0.104248 17.9582C0.104248 18.479 0.312581 18.9582 0.666748 19.3123C1.41675 20.0623 2.62508 20.0623 3.37508 19.3123C3.72925 18.9582 4.29175 18.9582 4.64591 19.3123C5.39591 20.0623 6.60425 20.0623 7.35425 19.3123C7.70842 18.9582 8.27092 18.9582 8.62508 19.3123C9.37508 20.0623 10.5834 20.0623 11.3334 19.3123C11.6876 18.9582 12.2501 18.9582 12.6042 19.3123C13.3542 20.0623 14.5626 20.0623 15.3126 19.3123C15.6667 18.9582 16.2292 18.9582 16.5834 19.3123C16.9584 19.6873 17.4584 19.8748 17.9376 19.8748C18.4376 19.8748 18.9167 19.6873 19.2917 19.3123C19.6459 18.9582 19.8542 18.479 19.8542 17.9582C19.8542 17.4373 19.6459 16.9582 19.2917 16.604C19.1251 16.4373 19.0209 16.2082 19.0209 15.9582C19.0209 15.7082 19.1251 15.4998 19.2917 15.3123C19.6459 14.9582 19.8542 14.479 19.8542 13.9582C19.8542 13.4373 19.6459 12.9582 19.2917 12.604C19.1251 12.4373 19.0209 12.2082 19.0209 11.9582C19.0209 11.7082 19.1251 11.4998 19.2917 11.3123C19.6459 10.9582 19.8542 10.479 19.8542 9.95817C19.8542 9.43734 19.6459 8.95817 19.2917 8.604C19.1251 8.43734 19.0209 8.20817 19.0209 7.95817C19.0209 7.70817 19.1251 7.49984 19.2917 7.31234C19.6876 6.99984 19.8959 6.52067 19.8959 6.02067ZM18.6251 5.37484C18.7917 5.5415 18.8959 5.77067 18.8959 6.02067C18.8959 6.27067 18.7917 6.479 18.6251 6.6665C18.2709 7.02067 18.0626 7.49984 18.0626 8.02067C18.0626 8.5415 18.2709 9.02067 18.6251 9.37484C18.7917 9.5415 18.8959 9.77067 18.8959 10.0207C18.8959 10.2707 18.7917 10.479 18.6251 10.6665C18.2709 11.0207 18.0626 11.4998 18.0626 12.0207C18.0626 12.5415 18.2709 13.0207 18.6251 13.3748C18.7917 13.5415 18.8959 13.7707 18.8959 14.0207C18.8959 14.2707 18.7917 14.479 18.6251 14.6665C18.2709 15.0207 18.0626 15.4998 18.0626 16.0207C18.0626 16.5415 18.2709 17.0207 18.6251 17.3748C18.7917 17.5415 18.8959 17.7707 18.8959 18.0207C18.8959 18.2707 18.7917 18.479 18.6251 18.6665C18.2709 19.0207 17.7084 19.0207 17.3542 18.6665C16.9792 18.2915 16.4792 18.104 16.0001 18.104C15.5001 18.104 15.0209 18.2915 14.6459 18.6665C14.2917 19.0207 13.7292 19.0207 13.3751 18.6665C12.6251 17.9165 11.4167 17.9165 10.6667 18.6665C10.3126 19.0207 9.75008 19.0207 9.39592 18.6665C8.64592 17.9165 7.43758 17.9165 6.68758 18.6665C6.33341 19.0207 5.77092 19.0207 5.41675 18.6665C4.66675 17.9165 3.45841 17.9165 2.70841 18.6665C2.35425 19.0207 1.79175 19.0207 1.43758 18.6665C1.27091 18.4998 1.16675 18.2707 1.16675 18.0207C1.16675 17.7707 1.27091 17.5623 1.43758 17.3748C2.18758 16.6248 2.18758 15.4165 1.43758 14.6665C1.27091 14.4998 1.16675 14.2707 1.16675 14.0207C1.16675 13.7707 1.27091 13.5623 1.43758 13.3748C1.79175 13.0207 2.00008 12.5415 2.00008 12.0207C2.00008 11.4998 1.79175 11.0207 1.43758 10.6665C1.27091 10.4998 1.16675 10.2707 1.16675 10.0207C1.16675 9.77067 1.27091 9.56234 1.43758 9.37484C1.79175 9.02067 2.00008 8.5415 2.00008 8.02067C2.00008 7.49984 1.79175 7.02067 1.43758 6.6665C1.27091 6.49984 1.16675 6.27067 1.16675 6.02067C1.16675 5.77067 1.27091 5.56234 1.43758 5.37484C1.79175 5.02067 2.00008 4.5415 2.00008 4.02067C2.00008 3.49984 1.79175 3.02067 1.43758 2.6665C1.27091 2.49984 1.16675 2.27067 1.16675 2.02067C1.16675 1.77067 1.27091 1.56234 1.43758 1.37484C1.79175 1.02067 2.35425 1.02067 2.70841 1.37484C3.45841 2.12484 4.66675 2.12484 5.41675 1.37484C5.77092 1.02067 6.33341 1.02067 6.68758 1.37484C7.43758 2.12484 8.64592 2.12484 9.39592 1.37484C9.75008 1.02067 10.3126 1.02067 10.6667 1.37484C11.4167 2.12484 12.6251 2.12484 13.3751 1.37484C13.7292 1.02067 14.2917 1.02067 14.6459 1.37484C15.3959 2.12484 16.6042 2.12484 17.3542 1.37484C17.7084 1.02067 18.2709 1.02067 18.6251 1.37484C18.7917 1.5415 18.8959 1.77067 18.8959 2.02067C18.8959 2.27067 18.7917 2.479 18.6251 2.6665C18.2709 3.02067 18.0626 3.49984 18.0626 4.02067C18.0626 4.5415 18.2501 4.99984 18.6251 5.37484Z" fill="#1F91B3"/>
</svg>
