<svg width="20" height="20" viewBox="0 0 20 20" fill="none" xmlns="http://www.w3.org/2000/svg">
<g clip-path="url(#clip0_718:2995)">
<path d="M19.4523 16.7807C19.3688 16.3794 18.9758 16.1219 18.5744 16.2054C18.1731 16.2889 17.9155 16.682 17.9991 17.0833C18.0472 17.3144 17.9899 17.5513 17.8419 17.7334C17.7562 17.8388 17.565 18.0156 17.2482 18.0156H2.75275C2.43591 18.0156 2.24476 17.8388 2.15904 17.7334C2.01101 17.5513 1.95371 17.3144 2.00185 17.0833C2.77209 13.3836 6.0353 10.6811 9.80372 10.59C9.869 10.5925 9.93457 10.5938 10.0005 10.5938C10.0666 10.5938 10.1324 10.5925 10.198 10.5899C12.8525 10.6536 15.306 11.9981 16.7918 14.214C17.0201 14.5545 17.4811 14.6454 17.8216 14.4172C18.1621 14.1889 18.253 13.7279 18.0247 13.3874C16.8069 11.5711 15.0385 10.2504 13.0222 9.58679C14.2509 8.6654 15.0473 7.19739 15.0473 5.54688C15.0473 2.76404 12.7833 0.5 10.0005 0.5C7.21761 0.5 4.9536 2.76404 4.9536 5.54688C4.9536 7.19839 5.75101 8.66718 6.981 9.58849C5.85406 9.95951 4.79663 10.5368 3.87112 11.2981C2.17403 12.694 0.994066 14.6411 0.548642 16.7807C0.409036 17.4512 0.576288 18.1398 1.00743 18.6699C1.43645 19.1974 2.07261 19.5 2.75275 19.5H17.2482C17.9283 19.5 18.5645 19.1974 18.9935 18.6699C19.4247 18.1398 19.5919 17.4512 19.4523 16.7807ZM6.43797 5.54688C6.43797 3.58249 8.03609 1.98438 10.0005 1.98438C11.9649 1.98438 13.563 3.58249 13.563 5.54688C13.563 7.45077 12.0617 9.01063 10.1808 9.10485C10.1208 9.10373 10.0607 9.10318 10.0005 9.10318C9.94058 9.10318 9.88068 9.10377 9.82086 9.10489C7.93961 9.01103 6.43797 7.45103 6.43797 5.54688Z" fill="#1F91B3"/>
</g>
<defs>
<clipPath id="clip0_718:2995">
<rect width="19" height="19" fill="white" transform="translate(0.5 0.5)"/>
</clipPath>
</defs>
</svg>
