<svg width="20" height="20" viewBox="0 0 20 20" fill="none" xmlns="http://www.w3.org/2000/svg">
<g clip-path="url(#clip0_718:4305)">
<path d="M19.4522 16.7807C19.3687 16.3794 18.9757 16.1219 18.5743 16.2054C18.173 16.2889 17.9154 16.682 17.999 17.0833C18.0471 17.3144 17.9898 17.5513 17.8418 17.7334C17.7561 17.8388 17.5649 18.0156 17.2481 18.0156H2.75263C2.43579 18.0156 2.24464 17.8388 2.15892 17.7334C2.01089 17.5513 1.95359 17.3144 2.00172 17.0833C2.77197 13.3836 6.03518 10.6811 9.8036 10.59C9.86887 10.5925 9.93445 10.5938 10.0004 10.5938C10.0665 10.5938 10.1323 10.5925 10.1978 10.5899C12.8524 10.6536 15.3059 11.9981 16.7917 14.214C17.02 14.5545 17.481 14.6454 17.8215 14.4172C18.1619 14.1889 18.2529 13.7279 18.0246 13.3874C16.8068 11.5711 15.0384 10.2504 13.0221 9.58679C14.2508 8.6654 15.0472 7.19739 15.0472 5.54688C15.0472 2.76404 12.7832 0.5 10.0004 0.5C7.21748 0.5 4.95348 2.76404 4.95348 5.54688C4.95348 7.19839 5.75088 8.66718 6.98087 9.58849C5.85394 9.95951 4.7965 10.5368 3.871 11.2981C2.17391 12.694 0.993944 14.6411 0.54852 16.7807C0.408914 17.4512 0.576166 18.1398 1.0073 18.6699C1.43632 19.1974 2.07249 19.5 2.75263 19.5H17.248C17.9282 19.5 18.5644 19.1974 18.9934 18.6699C19.4246 18.1398 19.5918 17.4512 19.4522 16.7807ZM6.43785 5.54688C6.43785 3.58249 8.03597 1.98438 10.0004 1.98438C11.9647 1.98438 13.5629 3.58249 13.5629 5.54688C13.5629 7.45077 12.0616 9.01063 10.1807 9.10485C10.1207 9.10373 10.0605 9.10318 10.0004 9.10318C9.94046 9.10318 9.88056 9.10377 9.82074 9.10489C7.93948 9.01103 6.43785 7.45103 6.43785 5.54688Z" fill="#656765"/>
</g>
<defs>
<clipPath id="clip0_718:4305">
<rect width="19" height="19" fill="white" transform="translate(0.5 0.5)"/>
</clipPath>
</defs>
</svg>
