<svg width="127" height="30" viewBox="0 0 127 30" fill="none" xmlns="http://www.w3.org/2000/svg">
<path d="M10.5203 17.7827C9.77368 18.5293 8.82346 18.9366 7.73749 18.9366C6.71939 18.9366 5.70128 18.5293 4.95468 17.7827C4.20807 17.0361 3.80083 16.0859 3.80083 14.9999C3.80083 13.9818 4.20807 12.9637 4.95468 12.2171C5.70128 11.4705 6.65151 11.0633 7.73749 11.0633C8.75559 11.0633 9.77368 11.4705 10.5203 12.2171L11.9456 13.6425L21.38 4.20806C19.4796 3.12209 17.3076 2.44336 14.9321 2.44336C8.00897 2.44336 2.37549 8.07684 2.37549 14.9999C2.37549 21.923 8.00897 27.5565 14.9321 27.5565C17.3076 27.5565 19.4796 26.9456 21.38 25.7918L11.9456 16.3574L10.5203 17.7827Z" fill="white"/>
<path d="M18.869 17.7828C18.5296 18.1221 18.1223 18.3936 17.7151 18.5972L17.1042 18.8687L23.0092 24.7737C24.0273 23.8914 24.9097 22.8733 25.6563 21.7873L20.2943 16.4253L18.869 17.7828Z" fill="white"/>
<path d="M26.5384 19.9549C27.1492 18.4617 27.5565 16.7649 27.5565 15.0002C27.5565 13.2355 27.2171 11.6065 26.5384 10.0454L21.5836 15.0002L26.5384 19.9549Z" fill="white"/>
<path d="M17.7151 11.4704C18.1902 11.674 18.5296 11.9455 18.869 12.2849L20.2943 13.7102L25.6563 8.34824C24.9097 7.1944 24.0273 6.1763 23.0092 5.36182L17.1042 11.2668L17.7151 11.4704Z" fill="white"/>
<path d="M16.086 13.0317C15.543 13.0317 15.0679 13.2354 14.6607 13.6426C13.9141 14.3892 13.9141 15.6788 14.6607 16.4933C15.0679 16.9005 15.543 17.1041 16.086 17.1041C16.629 17.1041 17.1041 16.9005 17.5113 16.4933L18.9367 15.0679L17.5113 13.6426C17.172 13.2354 16.629 13.0317 16.086 13.0317Z" fill="white"/>
<path d="M7.73762 13.0317C7.19463 13.0317 6.71951 13.2354 6.31227 13.6426C5.56567 14.3892 5.56567 15.6788 6.31227 16.4933C6.71951 16.9005 7.19463 17.1041 7.73762 17.1041C8.2806 17.1041 8.75571 16.9005 9.16295 16.4933L10.5883 15.0679L9.16295 13.6426C8.82358 13.2354 8.2806 13.0317 7.73762 13.0317Z" fill="white"/>
<path d="M15 30C6.71946 30 0 23.2805 0 15C0 6.71946 6.71946 0 15 0C23.2806 0 30 6.71946 30 15C30 23.2805 23.2806 30 15 30ZM15 0.950225C7.26245 0.950225 0.950233 7.26244 0.950233 15C0.950233 22.7376 7.26245 29.0498 15 29.0498C22.7376 29.0498 29.0498 22.7376 29.0498 15C29.0498 7.26244 22.7376 0.950225 15 0.950225Z" fill="white"/>
<path d="M38.2129 6.44775H41.1993V20.2939H47.9866V23.0088H38.145V6.44775H38.2129Z" fill="white"/>
<path d="M52.2627 22.33C51.3803 21.787 50.6337 21.0404 50.1586 20.0901C49.6835 19.1399 49.412 18.1218 49.412 17.0358C49.412 15.9499 49.6835 14.8639 50.1586 13.9137C50.6337 12.9634 51.3124 12.2168 52.2627 11.6739C53.145 11.1309 54.231 10.8594 55.5206 10.8594C56.7423 10.8594 57.8283 11.1309 58.7785 11.6739C59.6608 12.2168 60.4075 12.9634 60.8826 13.9137C61.3577 14.8639 61.6292 15.882 61.6292 17.0358C61.6292 18.1218 61.3577 19.2078 60.8826 20.0901C60.4075 21.0404 59.7287 21.787 58.7785 22.33C57.8961 22.873 56.8102 23.1444 55.5206 23.1444C54.231 23.1444 53.145 22.873 52.2627 22.33ZM57.7604 19.7508C58.3034 19.072 58.5749 18.1897 58.5749 17.0358C58.5749 15.882 58.3034 14.9996 57.7604 14.3209C57.2174 13.6422 56.4708 13.3028 55.5206 13.3028C54.5704 13.3028 53.8237 13.6422 53.2808 14.3209C52.7378 14.9996 52.4663 15.882 52.4663 17.0358C52.4663 18.1218 52.7378 19.072 53.2808 19.7508C53.8237 20.4295 54.5704 20.7689 55.5206 20.7689C56.4708 20.7689 57.2174 20.4295 57.7604 19.7508Z" fill="white"/>
<path d="M64.7513 27.9634C63.7332 27.3526 63.2581 26.5381 63.2581 25.52C63.2581 24.3662 63.8689 23.4838 65.1585 22.7372C64.4798 22.33 64.1404 21.787 64.1404 21.0404C64.1404 20.701 64.2761 20.3616 64.4798 20.0901C64.6834 19.8187 64.9549 19.5472 65.3621 19.4114C64.7513 19.0042 64.344 18.4612 64.0047 17.7824C63.6653 17.1037 63.5295 16.425 63.5295 15.6105C63.5295 14.7282 63.7332 13.9815 64.0725 13.2349C64.4798 12.4883 65.0228 11.9453 65.7015 11.5381C66.4481 11.1309 67.2626 10.9272 68.2807 10.9272C69.2988 10.9272 70.1811 11.1987 70.9956 11.6739C71.2671 11.5381 71.6065 11.4024 72.0816 11.3345C72.5567 11.1987 73.0318 11.1987 73.5069 11.1987H74.2535L74.0499 13.0313H72.9639C72.6924 13.0313 72.4888 13.0313 72.2852 13.0313C72.7603 13.7779 72.9639 14.5924 72.9639 15.6105C72.9639 16.4929 72.7603 17.2395 72.421 17.9861C72.0816 18.7327 71.4707 19.2757 70.792 19.6829C70.0454 20.0901 69.2309 20.2938 68.2128 20.2938C67.8734 20.2938 67.4662 20.2259 66.9911 20.158C66.7875 20.2259 66.7196 20.3616 66.7196 20.5653C66.7196 20.7689 66.8553 20.9046 67.059 21.0404C67.3305 21.1761 67.7377 21.244 68.2807 21.3119L70.3169 21.5834C73.0318 21.9227 74.3893 23.0766 74.3893 24.977C74.3893 26.1987 73.9142 27.149 72.8961 27.8277C71.878 28.5064 70.4526 28.9137 68.6879 28.9137C67.1268 28.8458 65.7694 28.5743 64.7513 27.9634ZM71.878 25.1806C71.878 24.7734 71.6743 24.434 71.335 24.2304C70.9956 24.0268 70.3847 23.8232 69.6381 23.7553L67.059 23.3481C66.1766 23.6874 65.7015 24.2304 65.7015 24.977C65.7015 25.52 65.973 25.9951 66.516 26.2666C67.059 26.5381 67.8734 26.6739 68.8237 26.6739C70.8599 26.6739 71.878 26.1309 71.878 25.1806ZM69.9096 17.4431C70.249 16.968 70.4526 16.3571 70.4526 15.6105C70.4526 14.796 70.249 14.1852 69.9096 13.7779C69.5703 13.3028 69.0273 13.0992 68.3486 13.0992C67.6698 13.0992 67.1268 13.3028 66.7875 13.7779C66.4481 14.253 66.2445 14.8639 66.2445 15.6105C66.2445 16.425 66.4481 17.0358 66.7875 17.4431C67.1268 17.9182 67.6698 18.1218 68.3486 18.1218C68.9594 18.1218 69.5024 17.9182 69.9096 17.4431Z" fill="white"/>
<path d="M77.1721 6.44776H80.1585V22.941H77.1721V6.44776ZM80.43 14.1853L86.5386 6.37988H90.068L83.8916 14.1853L90.068 22.941H86.5386L80.43 14.1853Z" fill="white"/>
<path d="M92.5795 11.1309H95.2944L95.3623 11.9453C96.3804 11.2666 97.3985 10.9272 98.5523 10.9272C100.046 10.9272 101.132 11.4024 101.878 12.4205C102.625 13.3707 103.032 14.7282 103.032 16.3571V22.9408H100.113V16.6286C100.113 15.5426 99.9098 14.7282 99.5704 14.1852C99.2311 13.6422 98.6202 13.3707 97.8057 13.3707C96.9234 13.3707 96.1768 13.7101 95.5659 14.3888V22.9408H92.6473V11.1309H92.5795Z" fill="white"/>
<path d="M108.394 22.33C107.511 21.787 106.765 21.0404 106.29 20.0901C105.815 19.1399 105.543 18.1218 105.543 17.0358C105.543 15.9499 105.815 14.8639 106.29 13.9137C106.765 12.9634 107.444 12.2168 108.394 11.6739C109.276 11.1309 110.362 10.8594 111.652 10.8594C112.873 10.8594 113.959 11.1309 114.91 11.6739C115.792 12.2168 116.539 12.9634 117.014 13.9137C117.489 14.8639 117.76 15.882 117.76 17.0358C117.76 18.1218 117.489 19.2078 117.014 20.0901C116.539 21.0404 115.86 21.787 114.91 22.33C114.027 22.873 112.941 23.1444 111.652 23.1444C110.362 23.1444 109.276 22.873 108.394 22.33ZM113.892 19.7508C114.435 19.072 114.706 18.1897 114.706 17.0358C114.706 15.882 114.435 14.9996 113.892 14.3209C113.349 13.6422 112.602 13.3028 111.652 13.3028C110.701 13.3028 109.955 13.6422 109.412 14.3209C108.869 14.9996 108.597 15.882 108.597 17.0358C108.597 18.1218 108.869 19.072 109.412 19.7508C109.955 20.4295 110.701 20.7689 111.652 20.7689C112.602 20.7689 113.349 20.4295 113.892 19.7508Z" fill="white"/>
<path d="M121.629 22.2622C121.086 21.6513 120.815 20.9047 120.815 20.0902V13.5744H119.118L119.389 11.1988H120.815V8.55177L123.733 8.2124V11.131H126.312V13.5065H123.733V18.8685C123.733 19.4794 123.801 19.9545 123.869 20.1581C123.937 20.4296 124.072 20.5653 124.344 20.6332C124.548 20.7011 124.955 20.769 125.566 20.769H126.38L126.109 23.1445H124.005C122.986 23.1445 122.172 22.873 121.629 22.2622Z" fill="white"/>
</svg>
