<svg width="329" height="80" viewBox="0 0 329 80" fill="none" xmlns="http://www.w3.org/2000/svg">
<g clip-path="url(#clip0_473_4657)">
<path d="M10.4646 73.6293C8.08717 71.4095 6.21847 68.7013 4.98681 65.6909C3.75515 62.6805 3.18972 59.4392 3.32938 56.1895C3.35489 50.1712 5.68614 44.3915 9.84342 40.0398C13.3792 36.5041 18.7465 33.6691 27.8247 33.6691C30.6849 33.6621 33.5407 33.8965 36.3614 34.3699C38.3481 34.7898 40.3587 35.0877 42.3817 35.2618C43.0188 35.2618 43.1462 35.5485 43.1462 35.9148C43.1462 36.2811 42.971 37.0934 42.8436 39.2116C42.7162 41.3299 42.7321 44.3878 42.6684 45.2797C42.6047 46.1716 42.4932 46.522 42.1428 46.522C41.7925 46.522 41.665 46.1079 41.665 45.2797C41.661 44.18 41.4346 43.0924 40.9995 42.0824C40.5643 41.0724 39.9293 40.1609 39.1327 39.4027C37.0622 37.6349 32.539 36.0422 27.3469 36.0422C19.5109 36.0422 15.8478 38.3356 13.7932 40.3424C9.49303 44.4674 8.48965 49.7073 8.48965 55.7276C8.45382 58.5454 8.97762 61.3422 10.0307 63.956C11.0838 66.5698 12.6452 68.9486 14.6244 70.9545C16.6036 72.9604 18.9613 74.5534 21.5608 75.6414C24.1602 76.7294 26.9498 77.2906 29.7678 77.2925C34.1795 77.2925 37.7311 76.7669 40.0087 74.346C41.1318 72.8992 41.8812 71.198 42.1906 69.3928C42.318 68.7398 42.4295 68.5168 42.7799 68.5168C43.1303 68.5168 43.194 68.915 43.194 69.3928C42.9227 71.9337 42.4918 74.4552 41.9039 76.9421C41.5536 78.0569 41.4261 78.1684 40.3113 78.6462C36.8681 79.6494 33.2888 80.1062 29.7041 80C20.9921 80 15.0355 77.818 10.4646 73.6293Z" fill="#333333"/>
<path d="M64.9802 62.0825C64.9802 67.7365 64.9802 72.403 65.2668 74.8239C65.458 76.5281 65.8083 77.8341 67.5762 78.0092C68.4044 78.1207 69.6945 78.2322 70.2201 78.2322C70.7456 78.2322 70.6979 78.4233 70.6979 78.5985C70.6979 78.7737 70.3952 79.0604 69.7582 79.0604C66.5728 79.0604 62.7982 78.8852 62.5115 78.8852C62.2248 78.8852 58.498 79.0604 56.7301 79.0604C56.0771 79.0604 55.7904 78.9489 55.7904 78.5985C55.7904 78.2481 55.9019 78.2322 56.2523 78.2322C56.8473 78.214 57.4393 78.1393 58.0202 78.0092C59.1988 77.7703 59.5014 76.4166 59.7403 74.8239C60.0269 72.3553 60.0269 67.6887 60.0269 62.0825V51.7142C60.0269 42.5245 60.0269 40.8681 59.9155 38.9728C59.804 37.0775 59.1988 35.9627 57.9087 35.6601C57.3092 35.5133 56.6943 35.4384 56.0771 35.4371C55.8382 35.4371 55.6152 35.3097 55.6152 35.0708C55.6152 34.8319 55.9019 34.6089 56.5549 34.6089C58.498 34.6089 62.2089 34.7841 62.5115 34.7841C62.8141 34.7841 66.5091 34.6089 68.277 34.6089C68.93 34.6089 69.2167 34.7204 69.2167 35.0708C69.2167 35.4212 68.9937 35.4371 68.7548 35.4371C68.2567 35.449 67.7608 35.5077 67.2736 35.6123C65.6809 35.899 65.2191 36.9023 65.0917 38.9728C64.9642 41.0433 64.9802 42.5085 64.9802 51.7142V62.0825Z" fill="#333333"/>
<path d="M101.645 62.0825C101.645 67.7365 101.645 72.4031 101.947 74.8239C102.123 76.5281 102.473 77.8341 104.241 78.0093C105.069 78.1208 106.359 78.2323 106.901 78.2323C107.442 78.2323 107.363 78.4234 107.363 78.5986C107.363 78.7737 107.076 79.0604 106.423 79.0604C103.238 79.0604 99.4629 78.8853 99.1762 78.8853C98.8895 78.8853 95.1627 79.0604 93.3948 79.0604C92.7578 79.0604 92.4551 78.9489 92.4551 78.5986C92.4551 78.2482 92.5826 78.2323 92.9329 78.2323C93.5278 78.212 94.1196 78.1373 94.7008 78.0093C95.8794 77.7704 96.1661 76.4166 96.405 74.8239C96.7076 72.3553 96.7076 67.6887 96.7076 62.0825V37.1572L87.9797 37.2687C84.3325 37.2687 82.915 37.7465 81.9753 39.164C81.5823 39.7349 81.2462 40.343 80.972 40.9796C80.7809 41.4574 80.6056 41.5689 80.3827 41.5689C80.1597 41.5689 80.0801 41.3937 80.0801 41.0433C80.0801 40.6929 81.2587 35.3893 81.3701 34.9115C81.4816 34.4337 81.7364 33.7966 81.9753 33.7966C82.8015 34.1406 83.6688 34.3761 84.5555 34.4974C86.2756 34.6885 88.5053 34.8 89.222 34.8H111.312C112.715 34.8325 114.118 34.7312 115.501 34.4974C116.377 34.3859 116.919 34.2107 117.094 34.2107C117.269 34.2107 117.38 34.5611 117.38 34.9115C117.38 36.6794 117.205 40.7566 117.205 41.3937C117.205 42.0308 117.03 42.1582 116.791 42.1582C116.552 42.1582 116.377 41.983 116.313 41.1707V40.5177C116.138 38.7498 114.721 37.3324 109.067 37.3324L101.629 37.2209L101.645 62.0825Z" fill="#333333"/>
<path d="M144.074 63.9299C144.16 61.783 143.694 59.6499 142.72 57.7344C142.306 56.7947 134.422 43.8304 132.352 40.7724C131.29 39.0863 129.93 37.6076 128.338 36.4085C127.585 35.8913 126.715 35.5684 125.806 35.4688C125.519 35.4688 125.217 35.3414 125.217 35.0547C125.217 34.7681 125.456 34.6406 125.981 34.6406C127.112 34.6406 131.524 34.8158 131.826 34.8158C132.129 34.8158 134.47 34.6406 136.78 34.6406C137.417 34.6406 137.544 34.8158 137.544 35.0547C137.544 35.2936 137.178 35.3414 136.652 35.5803C136.436 35.6658 136.248 35.812 136.113 36.0013C135.977 36.1905 135.899 36.4149 135.888 36.6474C135.958 37.4615 136.22 38.2474 136.652 38.9409C137.592 40.645 146.431 55.8551 147.498 57.5592C148.613 55.0906 156.099 42.174 157.277 40.2309C157.886 39.3468 158.234 38.3092 158.281 37.2367C158.281 36.4085 158.042 35.7555 157.341 35.644C156.64 35.5325 156.449 35.3573 156.449 35.0547C156.449 34.7521 156.815 34.7043 157.405 34.7043C158.997 34.7043 160.813 34.8796 161.291 34.8796C161.769 34.8796 165.878 34.7043 167.009 34.7043C167.423 34.7043 167.773 34.8158 167.773 35.0547C167.773 35.2936 167.47 35.5326 167.009 35.5326C166.051 35.5648 165.118 35.8446 164.301 36.3448C163.057 37.1353 161.975 38.1572 161.116 39.355C157.004 45.3783 153.25 51.6376 149.871 58.1007C149.179 59.9618 148.892 61.949 149.027 63.9299V68.9946C149.027 69.9343 149.027 72.4189 149.202 74.8875C149.33 76.5917 149.855 77.8977 151.623 78.0729C152.452 78.1844 153.742 78.2958 154.267 78.2958C154.793 78.2958 154.745 78.487 154.745 78.6621C154.745 78.8373 154.458 79.124 153.805 79.124C150.62 79.124 146.845 78.9488 146.559 78.9488C146.272 78.9488 142.545 79.124 140.777 79.124C140.124 79.124 139.838 79.0125 139.838 78.6621C139.838 78.3118 139.949 78.2958 140.315 78.2958C140.91 78.2755 141.502 78.2009 142.083 78.0729C143.262 77.834 143.787 76.4802 143.899 74.8875C144.074 72.4189 144.074 69.9343 144.074 68.9946V63.9299Z" fill="#333333"/>
<path d="M209.022 62.2098C209.022 70.858 209.261 74.6326 210.312 75.6997C211.363 76.7668 212.796 77.0535 217.383 77.0535C220.569 77.0535 223.101 77.0535 224.519 75.2856C225.324 74.251 225.87 73.0386 226.111 71.7499C226.111 71.2721 226.286 70.9854 226.637 70.9854C226.987 70.9854 227.003 71.2243 227.003 71.8614C226.865 73.8465 226.567 75.8172 226.111 77.7542C225.697 79.1239 225.522 79.3469 222.4 79.3469C218.164 79.3469 215.09 79.2355 212.621 79.1717C210.153 79.108 208.321 78.9965 206.601 78.9965C206.378 78.9965 205.375 78.9965 204.196 78.9965C203.017 78.9965 201.711 79.108 200.835 79.108C199.96 79.108 199.896 78.9965 199.896 78.6461C199.896 78.2957 200.007 78.2799 200.358 78.2799C200.953 78.2607 201.544 78.1861 202.126 78.0569C203.304 77.818 203.607 76.4642 203.83 74.8715C204.132 72.4029 204.132 67.7363 204.132 62.1301V51.7618C204.132 42.5721 204.132 40.9157 204.021 39.0204C203.909 37.1251 203.432 36.074 201.473 35.6599C200.816 35.5356 200.149 35.4769 199.482 35.4847C199.243 35.4847 199.004 35.3573 199.004 35.1184C199.004 34.8795 199.291 34.6565 199.944 34.6565C202.603 34.6565 206.314 34.8317 206.601 34.8317C206.888 34.8317 211.204 34.6565 212.972 34.6565C213.625 34.6565 213.911 34.768 213.911 35.1184C213.911 35.4688 213.672 35.4847 213.449 35.4847C212.793 35.4926 212.138 35.5511 211.49 35.6599C209.786 35.9466 209.324 36.9499 209.197 39.0204C209.07 41.0909 209.086 42.5561 209.086 51.7618L209.022 62.2098Z" fill="#333333"/>
<path d="M247.088 62.0825C247.088 67.7365 247.088 72.403 247.375 74.8239C247.55 76.5281 247.9 77.8341 249.668 78.0092C250.496 78.1207 251.802 78.2322 252.328 78.2322C252.853 78.2322 252.79 78.4233 252.79 78.5985C252.79 78.7737 252.503 79.0604 251.85 79.0604C248.665 79.0604 244.906 78.8852 244.603 78.8852C244.301 78.8852 240.606 79.0604 238.822 79.0604C238.185 79.0604 237.882 78.9489 237.882 78.5985C237.882 78.2481 238.01 78.2322 238.36 78.2322C238.955 78.2131 239.547 78.1385 240.128 78.0092C241.306 77.7703 241.593 76.4166 241.832 74.8239C242.135 72.3553 242.135 67.6887 242.135 62.0825V51.7142C242.135 42.5245 242.135 40.8681 242.007 38.9728C241.88 37.0775 241.306 35.9627 240 35.6601C239.407 35.5124 238.797 35.4375 238.185 35.4371C237.946 35.4371 237.707 35.3097 237.707 35.0708C237.707 34.8319 238.01 34.6089 238.647 34.6089C240.606 34.6089 244.317 34.7841 244.603 34.7841C244.89 34.7841 248.617 34.6089 250.385 34.6089C251.022 34.6089 251.324 34.7204 251.324 35.0708C251.324 35.4212 251.085 35.4371 250.847 35.4371C250.354 35.4484 249.863 35.5071 249.381 35.6123C247.789 35.899 247.311 36.9023 247.199 38.9728C247.088 41.0433 247.088 42.5085 247.088 51.7142V62.0825Z" fill="#333333"/>
<path d="M269.974 51.7141C269.974 42.5244 269.974 40.868 269.863 38.9727C269.751 37.0774 269.273 36.0263 267.33 35.6122C266.669 35.4886 265.997 35.4299 265.323 35.437C265.085 35.437 264.846 35.3096 264.846 35.0707C264.846 34.8318 265.148 34.6088 265.801 34.6088C267.155 34.6088 268.748 34.6088 270.038 34.6088H272.459C273.637 34.6088 285.598 34.6088 286.952 34.6088C287.824 34.6292 288.695 34.5491 289.548 34.3699C289.898 34.2584 290.137 34.0195 290.376 34.0195C290.615 34.0195 290.727 34.2584 290.727 34.561C290.727 34.8636 290.424 35.6759 290.249 37.3164C290.249 37.9057 290.074 40.5017 289.962 41.2184C289.962 41.5051 289.787 41.8555 289.484 41.8555C289.182 41.8555 289.07 41.5688 289.07 41.1547C289.033 40.3804 288.855 39.6194 288.545 38.9091C288.095 38.2755 287.489 37.7693 286.786 37.4399C286.082 37.1105 285.306 36.9691 284.531 37.0297L275.453 36.8545C275.103 36.8545 274.927 37.0297 274.927 37.5075V53.8961C274.927 54.2465 274.927 54.4217 275.341 54.4217H282.891C283.878 54.4217 284.706 54.4217 285.535 54.4217C286.952 54.2943 287.717 54.119 288.242 53.3546C288.481 53.0679 288.656 52.7653 288.895 52.7653C289.134 52.7653 289.198 52.9405 289.198 53.2431C289.198 53.5457 288.895 54.5968 288.72 56.5399C288.608 57.7185 288.481 60.0757 288.481 60.4898C288.481 60.9039 288.481 61.6047 288.067 61.6047C287.653 61.6047 287.653 61.3657 287.653 61.079C287.621 60.3615 287.503 59.6504 287.302 58.9608C287.039 58.3576 286.614 57.839 286.074 57.4624C285.535 57.0857 284.901 56.8657 284.244 56.8266C282.763 56.6514 276.281 56.6514 275.341 56.6514C275.039 56.6514 274.927 56.7788 274.927 57.1929V62.1939C274.927 67.8479 274.927 72.5145 275.23 74.9353C275.405 76.6395 275.756 77.9455 277.523 78.1207C278.352 78.2322 279.642 78.3436 280.167 78.3436C280.693 78.3436 280.645 78.5348 280.645 78.7099C280.645 78.8851 280.358 79.1718 279.705 79.1718C276.52 79.1718 272.745 78.9966 272.459 78.9966C272.172 78.9966 268.445 79.1718 266.677 79.1718C266.024 79.1718 265.738 79.0603 265.738 78.7099C265.738 78.3596 265.849 78.3436 266.199 78.3436C266.794 78.3254 267.386 78.2507 267.967 78.1207C269.146 77.8818 269.449 76.528 269.687 74.9353C269.974 72.4667 269.974 67.8001 269.974 62.1939V51.7141Z" fill="#333333"/>
<path d="M307.865 51.7142C307.865 42.5245 307.865 40.8681 307.737 38.9728C307.61 37.0775 307.148 36.0264 305.205 35.6123C304.544 35.4873 303.871 35.4286 303.198 35.4371C302.959 35.4371 302.736 35.3097 302.736 35.0708C302.736 34.8319 303.023 34.6089 303.676 34.6089C305.03 34.6089 306.622 34.6089 307.913 34.6089L310.333 34.7204C310.747 34.7204 322.47 34.7204 323.823 34.7204C324.674 34.6965 325.521 34.6006 326.356 34.4337C326.658 34.4337 326.897 34.1311 327.184 34.1311C327.471 34.1311 327.423 34.37 327.423 34.6726C327.423 34.9752 327.136 35.7874 326.945 37.4279C326.945 38.0172 326.77 40.6133 326.658 41.33C326.658 41.6167 326.483 41.967 326.244 41.967C326.005 41.967 325.782 41.6804 325.782 41.2026C325.786 40.4805 325.662 39.7634 325.416 39.0843C325.002 38.1446 324.413 37.4917 321.243 37.0776C320.24 36.9661 313.805 36.9023 313.168 36.9023C312.929 36.9023 312.802 37.0775 312.802 37.4916V53.7528C312.802 54.1669 312.802 54.3421 313.168 54.3421C313.933 54.3421 321.132 54.3421 322.533 54.2306C323.935 54.1192 324.779 53.9918 325.304 53.4025C325.83 52.8132 325.958 52.638 326.18 52.638C326.403 52.638 326.483 52.7654 326.483 53.1157C326.483 53.4661 326.18 54.4695 326.005 56.4126C325.894 57.5912 325.782 59.7731 325.782 60.1872C325.782 60.6013 325.782 61.3021 325.368 61.3021C324.954 61.3021 324.954 61.0632 324.954 60.7765C324.983 60.12 324.902 59.4634 324.715 58.8334C324.476 58.0052 323.951 57.0019 321.641 56.763C320.049 56.5878 314.219 56.4763 313.216 56.4763C313.16 56.4714 313.105 56.4788 313.052 56.4979C313 56.517 312.952 56.5473 312.913 56.5868C312.873 56.6263 312.843 56.6739 312.824 56.7263C312.805 56.7788 312.797 56.8348 312.802 56.8904V62.0666C312.802 64.0733 312.802 70.9059 312.802 72.1482C312.993 76.2095 313.869 76.9262 319.651 76.9262C321.557 77.0298 323.468 76.8145 325.304 76.2892C326.897 75.6362 327.534 74.4576 327.948 72.0367C328.076 71.3996 328.187 71.1608 328.49 71.1608C328.792 71.1608 328.84 71.6226 328.84 72.0367C328.84 72.4508 328.362 76.5121 328.076 77.7544C327.662 79.3471 327.184 79.3471 324.89 79.3471C320.463 79.3471 317.23 79.2356 314.936 79.1719C312.643 79.1082 311.225 78.9967 310.333 78.9967C310.222 78.9967 309.218 78.9967 307.976 78.9967C306.734 78.9967 305.444 79.1082 304.552 79.1082C303.915 79.1082 303.612 78.9967 303.612 78.6463C303.612 78.2959 303.74 78.28 304.09 78.28C304.685 78.2597 305.277 78.1851 305.858 78.057C307.037 77.8181 307.323 76.4643 307.562 74.8717C307.865 72.403 307.865 67.7365 307.865 62.1303V51.7142Z" fill="#333333"/>
<path d="M19.1276 0.55747L18.5383 0.44602C18.2678 0.427236 17.9964 0.427236 17.726 0.44602C17.4903 0.428622 17.2537 0.463859 17.0333 0.549256C16.8129 0.634653 16.6143 0.768066 16.4519 0.939745C16.1652 1.25828 15.8466 1.59273 15.5281 1.97497C15.2096 2.35721 14.7636 2.97836 14.3495 3.56765C13.9354 4.15694 13.5691 4.68252 13.2506 5.16032L12.2153 6.75299C11.8172 7.37414 11.4031 8.04306 10.9731 8.74384L9.63522 10.878L8.32923 12.9644C7.75041 13.8932 7.03649 14.7305 6.21097 15.449C5.51962 16.0366 4.76034 16.5392 3.94937 16.9461C3.77418 16.9461 3.66269 17.1054 3.64676 17.185C3.63083 17.2646 3.64676 17.3124 3.99715 17.3124L6.92766 17.0735L10.2882 16.8505L13.2506 16.6753C14.1266 16.6753 14.7477 16.5957 15.0981 16.5957H16.4519H17.2004C17.3753 16.5816 17.5511 16.5816 17.726 16.5957C18.1879 16.7072 18.4268 16.8983 18.4268 17.1532C18.3979 17.4206 18.3336 17.683 18.2356 17.9335C18.1304 18.245 18.0026 18.5484 17.8534 18.8414C17.8534 18.8414 17.8534 18.8414 17.8534 18.6821C17.8701 18.5499 17.8701 18.4161 17.8534 18.2839C17.8272 18.2113 17.7827 18.1467 17.724 18.0964C17.6654 18.0462 17.5947 18.012 17.5189 17.9973C17.0336 17.8249 16.532 17.7022 16.0218 17.6309C15.4644 17.5513 14.907 17.5035 14.3177 17.4558L12.5976 17.3761H11.0049C9.31667 17.3761 7.81957 17.3761 6.73655 17.4558C5.65353 17.5354 4.60236 17.5672 3.80603 17.6469C3.00969 17.7265 2.37262 17.822 1.87889 17.9176L0.5729 18.2043C0.449262 18.1857 0.336316 18.1235 0.254358 18.0291C0.184164 17.9611 0.139234 17.8712 0.126953 17.7743C0.126953 17.615 0.238442 17.5354 0.477343 17.5354C0.945674 17.5359 1.41364 17.5094 1.87889 17.4558C2.24678 17.4195 2.60394 17.3113 2.93005 17.1372C3.3629 16.8654 3.75445 16.5329 4.09271 16.1498C4.67879 15.4982 5.21141 14.8005 5.68538 14.0634C6.30652 13.1237 6.95953 12.1044 7.64438 10.9895C8.32922 9.87464 9.01406 8.72788 9.69891 7.56522L11.7375 4.18876C12.4224 3.07389 13.0276 2.10237 13.585 1.25825C13.6405 1.12582 13.7425 1.01821 13.8717 0.955639L14.2858 0.764526C15.0385 0.524636 15.8115 0.35403 16.5952 0.254858C17.4126 0.131066 18.2373 0.0619377 19.0638 0.0478516C19.2231 0.0478516 19.2868 0.207107 19.2709 0.334521C19.2644 0.3798 19.2482 0.423146 19.2235 0.461622C19.1988 0.500098 19.1661 0.532775 19.1276 0.55747Z" fill="#333333"/>
<path d="M35.1346 11.1806C34.597 11.79 33.9812 12.3256 33.303 12.7733C32.5864 13.2643 31.7348 13.5203 30.8662 13.5059C30.3592 13.5033 29.8589 13.3891 29.401 13.1715C28.9278 12.9439 28.5258 12.5914 28.2383 12.1521C27.9986 12.6489 27.7328 13.1327 27.442 13.6015C27.1015 14.1573 26.7236 14.6894 26.3112 15.1941C25.8625 15.7358 25.3668 16.2368 24.83 16.6912C24.3046 17.1321 23.7269 17.5066 23.1099 17.8061C22.6918 17.9905 22.2441 18.0983 21.788 18.1246C20.7368 18.1246 20.1953 17.6946 20.1953 16.8505C20.2008 16.3436 20.2979 15.8418 20.482 15.3694C20.6756 14.86 20.9155 14.3695 21.1987 13.9041C21.486 13.4302 21.7997 12.973 22.1384 12.5344C22.4292 12.1647 22.7487 11.8185 23.094 11.4991C23.708 10.8625 24.4173 10.3252 25.1963 9.90644C25.9825 9.47511 26.8508 9.21464 27.7446 9.14199C27.8107 8.89165 27.8959 8.64674 27.9994 8.40938C28.0499 8.27786 28.1337 8.1617 28.2426 8.07235C28.3515 7.983 28.4817 7.92351 28.6206 7.89971L29.0506 7.82005C29.1879 7.8021 29.322 7.7646 29.4487 7.7086C29.4886 7.6812 29.5358 7.6665 29.5841 7.6665C29.6325 7.6665 29.6797 7.6812 29.7195 7.7086C29.7991 7.7086 29.8151 7.82004 29.7195 7.9156C29.507 8.26018 29.3511 8.63659 29.2576 9.03049C29.1596 9.51806 29.1116 10.0143 29.1143 10.5117C29.0795 11.1548 29.2406 11.7934 29.5762 12.3432C29.7558 12.5916 29.9973 12.7885 30.2768 12.9142C30.5563 13.04 30.8639 13.0902 31.1688 13.06C31.913 13.0657 32.6392 12.8311 33.2393 12.3911C33.8391 11.977 34.3755 11.478 34.832 10.9098C34.8398 10.881 34.8543 10.8543 34.8743 10.8321C34.8943 10.8098 34.9193 10.7926 34.9472 10.7817C34.9751 10.7709 35.0051 10.7667 35.0349 10.7696C35.0647 10.7725 35.0934 10.7824 35.1187 10.7984C35.2302 10.9895 35.2461 11.0691 35.1346 11.1806ZM27.8879 11.4513C27.8239 11.179 27.7813 10.9021 27.7605 10.6232C27.7605 10.3046 27.7605 9.98612 27.7605 9.69944C27.7605 9.41276 27.7605 9.49238 27.5853 9.49238C27.2309 9.50829 26.886 9.6123 26.5819 9.79499C26.1977 10.0199 25.8398 10.287 25.5148 10.5913C24.7573 11.3322 24.0843 12.1548 23.5081 13.044C23.1158 13.6488 22.7698 14.2824 22.4728 14.9393C22.1827 15.545 22.0408 16.211 22.0587 16.8824C22.0538 17.0588 22.0921 17.2338 22.1702 17.392C22.1702 17.5513 22.4091 17.6309 22.664 17.6309C23.268 17.5826 23.834 17.3166 24.2566 16.8824C24.8456 16.3422 25.3791 15.7447 25.8493 15.0986C26.3576 14.4564 26.8054 13.7686 27.1871 13.044C27.5011 12.5522 27.7374 12.015 27.8879 11.4513Z" fill="#333333"/>
<path d="M43.7339 12.614C43.2657 13.173 42.7658 13.7048 42.2368 14.2067C41.6741 14.7376 41.1007 15.2313 40.5167 15.6879C39.9479 16.15 39.3464 16.5705 38.717 16.9461C38.1614 17.2917 37.5749 17.585 36.9651 17.822C36.5724 17.9696 36.1673 18.0816 35.7546 18.1565C35.4186 18.2225 35.0776 18.2598 34.7353 18.268C33.1426 18.268 32.3145 17.6469 32.3145 16.4205C32.3232 15.8971 32.4426 15.3815 32.6648 14.9075C33.2253 13.6544 34.0262 12.5235 35.022 11.5788C35.9287 10.6595 37.0123 9.93349 38.2073 9.4446C38.4858 9.32748 38.7819 9.2575 39.0833 9.23755C40.1663 9.23755 40.676 9.63573 40.676 10.4002C40.6914 10.7348 40.5838 11.0634 40.3734 11.3239C40.1982 11.4832 39.8956 11.7062 39.4974 11.9929H39.3541C39.4487 11.777 39.4975 11.5437 39.4974 11.308C39.4867 11.0247 39.3668 10.7565 39.1629 10.5594C39.025 10.4303 38.8618 10.3311 38.6836 10.268C38.5055 10.205 38.3162 10.1795 38.1277 10.1932C37.5605 10.2018 37.0077 10.3732 36.535 10.6869C36 11.0382 35.5354 11.4865 35.1653 12.0088C34.7584 12.5838 34.4415 13.2175 34.2257 13.8881C33.9907 14.586 33.8723 15.3178 33.8753 16.0542C33.8551 16.2892 33.8907 16.5257 33.9793 16.7444C34.0679 16.963 34.2068 17.1577 34.3849 17.3124C34.7338 17.5988 35.1762 17.7462 35.6272 17.7265C36.8242 17.5891 37.9653 17.1447 38.94 16.4364C40.604 15.3413 42.1053 14.017 43.3995 12.5025C43.5428 12.3751 43.6543 12.3432 43.718 12.407C43.7817 12.4707 43.9091 12.4866 43.7339 12.614Z" fill="#333333"/>
<path d="M57.3208 12.4865C56.6519 13.235 55.9193 13.9836 55.107 14.748C54.3335 15.4775 53.52 16.1635 52.6702 16.8026C51.9132 17.3774 51.0961 17.8687 50.2334 18.2678C49.5473 18.6211 48.791 18.817 48.0196 18.8412C47.7988 18.864 47.5756 18.8403 47.3644 18.7718C47.1532 18.7032 46.9586 18.5912 46.7933 18.4431C46.5536 18.165 46.4284 17.8064 46.4429 17.4397C46.4791 16.9234 46.6029 16.4171 46.8092 15.9425C47.1112 15.2291 47.4904 14.5508 47.94 13.9199C47.5578 14.3817 47.1118 14.8595 46.6181 15.3692C46.1151 15.8572 45.5832 16.3146 45.0254 16.7389C44.5285 17.1336 43.9952 17.4803 43.4327 17.7741C43.0087 18.032 42.5269 18.1798 42.0312 18.2042C41.426 18.2042 41.1074 17.9175 41.1074 17.36C41.1792 16.5365 41.4527 15.7434 41.9038 15.0507C42.4793 14.0536 43.1984 13.1467 44.0379 12.359C44.9452 11.4757 45.9686 10.7202 47.0799 10.1134C48.1653 9.50486 49.3873 9.18156 50.6316 9.17368C50.7399 8.97158 50.8737 8.78422 51.0298 8.61623C51.1389 8.52588 51.2562 8.44591 51.3802 8.37734L52.6065 8.05884H52.7021C52.5442 8.20569 52.4051 8.37153 52.288 8.55256C52.1447 8.75961 52.0172 8.96663 51.858 9.17368H52.5269L53.1799 9.25334C53.3232 9.25334 53.4029 9.38072 53.4029 9.46035C53.4056 9.4777 53.4042 9.49546 53.3987 9.51216C53.3933 9.52886 53.384 9.54407 53.3716 9.55649C53.3591 9.56891 53.344 9.57822 53.3273 9.58366C53.3106 9.5891 53.2928 9.59051 53.2754 9.58779C53.0156 9.51549 52.7485 9.47272 52.4791 9.46035H51.6828C50.3449 11.6264 49.3575 13.3305 48.7204 14.5888C48.2231 15.4567 47.9037 16.4151 47.7807 17.4078C47.774 17.628 47.8476 17.8431 47.9878 18.013C48.1152 18.1723 48.3859 18.236 48.8 18.236C49.3563 18.2005 49.8989 18.0485 50.3927 17.7901C51.1237 17.4355 51.8173 17.0087 52.4632 16.5159C53.1958 15.9585 53.9444 15.3373 54.7248 14.6206C55.5052 13.9039 56.2378 13.1394 56.9386 12.3431C56.9623 12.3207 56.9936 12.3082 57.0262 12.3082C57.0588 12.3082 57.0901 12.3207 57.1138 12.3431C57.1587 12.3433 57.2025 12.3572 57.2395 12.3827C57.2764 12.4083 57.3048 12.4445 57.3208 12.4865ZM50.4724 9.46035C49.4455 9.47261 48.4483 9.80686 47.6215 10.416C46.7158 11.0509 45.9059 11.8126 45.2165 12.6776C44.559 13.466 43.9927 14.3262 43.5283 15.2418C43.1897 15.8181 42.9729 16.4577 42.8912 17.1211C42.8912 17.3282 42.8912 17.4397 43.146 17.4397C43.437 17.3948 43.7144 17.286 43.9583 17.1211C44.3968 16.8635 44.8172 16.5761 45.2165 16.2611C45.7128 15.8693 46.1861 15.4492 46.634 15.0029C47.1317 14.5177 47.5798 13.9841 47.9719 13.4102C48.4497 12.7731 48.8956 12.1042 49.3416 11.3875L50.5201 9.46035H50.4724Z" fill="#333333"/>
<path d="M65.729 3.4084C65.4549 3.48469 65.1883 3.58599 64.9327 3.71101C64.6732 3.83417 64.4487 4.02032 64.2797 4.25251C63.6107 5.10194 62.9578 5.99382 62.3207 6.92819C61.6995 7.85194 61.0943 8.79162 60.505 9.71537H65.952C65.9844 9.72987 66.0128 9.75188 66.035 9.77958C66.0571 9.80728 66.0724 9.83988 66.0794 9.87465C66.0779 9.90296 66.0679 9.93017 66.0509 9.95285C66.0339 9.97553 66.0106 9.99268 65.9838 10.0021H64.9327H63.34L61.6199 10.0817H60.0272C59.3683 11.2212 58.7728 12.3963 58.2434 13.6015C57.8575 14.359 57.635 15.1892 57.5904 16.0383C57.5636 16.2342 57.5827 16.4337 57.6463 16.621C57.7099 16.8083 57.8162 16.9782 57.9568 17.1173C58.0974 17.2563 58.2685 17.3608 58.4565 17.4223C58.6444 17.4838 58.8441 17.5007 59.0398 17.4717C59.5859 17.4521 60.1246 17.339 60.6325 17.1372C61.2839 16.8837 61.9172 16.5857 62.5277 16.2453C62.5442 16.2253 62.5648 16.2092 62.5883 16.1981C62.6117 16.1871 62.6372 16.1814 62.6631 16.1814C62.689 16.1814 62.7146 16.1871 62.738 16.1981C62.7614 16.2092 62.7821 16.2253 62.7985 16.2453C62.8941 16.3409 62.7985 16.4046 62.7029 16.4683C61.8357 16.996 60.9113 17.4234 59.9476 17.7425C59.1082 18.0091 58.2323 18.1434 57.3515 18.1406C56.9123 18.1487 56.4821 18.0146 56.1252 17.7584C55.9385 17.603 55.7929 17.404 55.7013 17.179C55.6096 16.954 55.5747 16.71 55.5996 16.4683C55.6947 15.635 55.9662 14.8315 56.3959 14.1112C57.0893 12.7891 57.866 11.5124 58.7212 10.2888L57.4153 10.3843H56.5234C56.38 10.3843 56.3004 10.3843 56.3004 10.225C56.4547 10.0048 56.6492 9.81562 56.8737 9.66759H59.1194C59.3742 9.26943 59.6609 8.82348 59.9954 8.32975L60.951 6.84858L61.9385 5.41518L62.8463 4.12512L64.1841 3.59951C64.7575 3.39246 65.2512 3.21726 65.6971 3.08984C65.7255 3.09139 65.7527 3.10132 65.7753 3.11833C65.798 3.13534 65.8152 3.15866 65.8246 3.1854C65.8246 3.1854 65.8405 3.4084 65.729 3.4084Z" fill="#333333"/>
<path d="M73.5647 12.7255C72.8353 13.5817 72.0304 14.3705 71.1597 15.0826C70.371 15.7424 69.5353 16.3439 68.6592 16.8823C68.0921 17.2164 67.4882 17.4836 66.8595 17.6786C66.3442 17.8442 65.8079 17.9354 65.2668 17.9494C65.0654 17.9641 64.8631 17.9641 64.6616 17.9494C64.437 17.9263 64.2198 17.8558 64.0246 17.7424C63.8335 17.6394 63.6655 17.4985 63.5308 17.3283C63.3929 17.1215 63.3258 16.8756 63.3397 16.6275C63.3843 16.1283 63.5364 15.6448 63.7856 15.21C64.0925 14.5766 64.4328 13.9599 64.8049 13.3625C65.2031 12.7254 65.6013 12.1043 65.9995 11.5309C66.288 11.0733 66.6018 10.632 66.9391 10.209C67.1339 9.95594 67.4003 9.76728 67.7036 9.6675C67.936 9.55884 68.1827 9.48379 68.4362 9.44455C68.5796 9.44455 68.6433 9.44453 68.6433 9.57194C68.658 9.6509 68.658 9.73188 68.6433 9.81083C68.6102 9.89842 68.5617 9.97938 68.5 10.0498C68.1177 10.5754 67.7196 11.1646 67.3373 11.8017C66.9551 12.4387 66.5728 13.0599 66.2543 13.6651C65.9648 14.1787 65.7095 14.7107 65.4898 15.2578C65.325 15.6361 65.2279 16.0404 65.2031 16.4523C65.193 16.5834 65.2137 16.715 65.2635 16.8366C65.3133 16.9583 65.3908 17.0667 65.4898 17.1531C65.7152 17.3037 65.9837 17.3764 66.2543 17.3601C66.9287 17.3369 67.5885 17.1569 68.1814 16.8345C68.9103 16.455 69.6079 16.0183 70.2678 15.5285C70.9357 15.0357 71.5739 14.5039 72.179 13.9359C72.662 13.489 73.1143 13.0101 73.5328 12.5025C73.6921 12.375 73.7717 12.3273 73.7876 12.4069C73.7474 12.5333 73.6696 12.6444 73.5647 12.7255ZM71.5898 3.8383C71.5729 4.20317 71.4126 4.54661 71.1438 4.79392C71.0131 4.94014 70.8538 5.05799 70.6757 5.14018C70.4977 5.22236 70.3046 5.26717 70.1086 5.27175C69.7582 5.27175 69.583 5.11245 69.583 4.79392C69.5875 4.41878 69.7357 4.05964 69.9971 3.79053C70.1223 3.63779 70.2805 3.51546 70.4598 3.4327C70.6391 3.34994 70.8349 3.30893 71.0323 3.31274C71.3986 3.31274 71.5898 3.48792 71.5898 3.8383Z" fill="#333333"/>
<path d="M86.4819 11.1805C85.9538 11.7932 85.3426 12.3293 84.6663 12.7731C83.9496 13.2641 83.0981 13.5201 82.2295 13.5058C81.7225 13.5031 81.2222 13.3889 80.7642 13.1713C80.2883 12.948 79.8853 12.5946 79.6016 12.152C79.3946 12.582 79.1238 13.0598 78.8053 13.6013C78.4645 14.1609 78.0812 14.6934 77.6585 15.194C77.2196 15.7392 76.7289 16.2406 76.1933 16.6911C75.6649 17.1357 75.0814 17.5104 74.4572 17.806C74.0447 17.9901 73.6023 18.098 73.1513 18.1245C72.1001 18.1245 71.5586 17.6945 71.5586 16.8504C71.5641 16.3434 71.6612 15.8416 71.8453 15.3692C72.0378 14.8566 72.2834 14.3655 72.5779 13.9039C72.8596 13.4265 73.1736 12.9689 73.5176 12.5343C73.8078 12.1689 74.1217 11.8231 74.4572 11.499C75.0802 10.8657 75.7942 10.3289 76.5755 9.90631C77.3568 9.47711 78.2196 9.2167 79.1079 9.14186C79.1802 8.89139 79.2707 8.64655 79.3786 8.40924C79.4263 8.27891 79.5073 8.16331 79.6135 8.07392C79.7196 7.98452 79.8473 7.92442 79.9838 7.89957L80.4298 7.81991C80.5668 7.80021 80.7006 7.76276 80.8279 7.70846C80.8653 7.68242 80.9098 7.66846 80.9554 7.66846C81.0009 7.66846 81.0454 7.68242 81.0828 7.70846C81.1783 7.70846 81.1943 7.8199 81.0828 7.91547C80.8637 8.25666 80.7073 8.63422 80.6209 9.03036C80.5173 9.51734 80.4639 10.0137 80.4616 10.5115C80.4373 11.1537 80.5976 11.7893 80.9235 12.3431C81.1053 12.5891 81.3472 12.7842 81.6261 12.9097C81.905 13.0352 82.2116 13.0869 82.5162 13.0598C83.2558 13.0679 83.9776 12.8329 84.5707 12.3909C85.1696 11.9758 85.706 11.477 86.1634 10.9097C86.1712 10.8808 86.1857 10.8542 86.2057 10.8319C86.2258 10.8097 86.2507 10.7924 86.2786 10.7816C86.3065 10.7707 86.3365 10.7666 86.3663 10.7695C86.3961 10.7724 86.4248 10.7822 86.4501 10.7982C86.5934 10.9894 86.6094 11.069 86.4819 11.1805ZM79.2512 11.4512C79.1813 11.1794 79.1333 10.9025 79.1079 10.623C79.1079 10.3045 79.1079 9.98598 79.1079 9.6993C79.1079 9.41262 79.1079 9.49225 78.9327 9.49225C78.5728 9.5055 78.2222 9.60961 77.9134 9.79486C77.537 10.0242 77.1848 10.291 76.8622 10.5912C76.4883 10.9512 76.1372 11.3342 75.811 11.7379C75.4644 12.1558 75.1401 12.5917 74.8395 13.0439C74.4527 13.6492 74.112 14.2828 73.8202 14.9392C73.5258 15.5439 73.3784 16.2097 73.3902 16.8822C73.3931 17.0578 73.431 17.2311 73.5017 17.3919C73.5813 17.5512 73.7405 17.6308 74.0113 17.6308C74.6139 17.577 75.178 17.3118 75.604 16.8822C76.1929 16.3421 76.7264 15.7445 77.1966 15.0984C77.7049 14.4562 78.1528 13.7685 78.5345 13.0439C78.854 12.5531 79.0958 12.0158 79.2512 11.4512Z" fill="#333333"/>
<path d="M97.5512 12.8051C96.9867 13.5148 96.3804 14.1902 95.7355 14.8278C95.0548 15.4933 94.3197 16.1006 93.5377 16.6434C92.7982 17.1575 92.0084 17.5951 91.1805 17.9494C90.4392 18.2846 89.6368 18.4635 88.8233 18.475C88.4992 18.479 88.1765 18.4306 87.8677 18.3317C87.7219 18.2875 87.5967 18.1925 87.5148 18.0639C87.433 17.9354 87.4 17.7817 87.4218 17.6309C87.4591 17.1353 87.6118 16.6553 87.8677 16.2293C88.1544 15.6559 88.5048 15.0508 88.8871 14.4137C89.2693 13.7766 89.6993 13.1236 90.1134 12.4547C90.5007 11.869 90.8467 11.257 91.1486 10.6231C91.1947 10.5109 91.1947 10.385 91.1486 10.2727C91.1486 10.1772 91.0053 10.1772 90.862 10.2727C90.7186 10.3683 90.1612 10.7187 89.7152 11.0372C89.2693 11.3558 88.8233 11.6902 88.3774 12.0565L87.0555 13.1395C86.6414 13.5218 86.291 13.8562 86.0362 14.1429C85.5584 14.8118 85.1602 15.4171 84.8257 15.9745C84.4913 16.532 84.0772 17.169 83.5675 17.8539C83.456 18.0131 83.3605 18.0928 83.3127 18.0928C83.2649 18.0928 83.0419 17.9494 82.9304 17.6468C82.8611 17.4672 82.813 17.2801 82.7871 17.0894C82.855 16.7145 83.0455 16.3728 83.3286 16.1179L84.539 14.7481C85.0009 13.8881 85.4946 12.9962 85.9884 12.0565C86.4821 11.1168 86.9121 10.2568 87.2625 9.50823C87.3066 9.44454 87.3665 9.39345 87.4363 9.35993C87.5061 9.32642 87.5834 9.31166 87.6607 9.31711C87.8384 9.31792 88.0092 9.38623 88.1385 9.50823C88.2037 9.56375 88.2571 9.6319 88.2954 9.70853C88.3337 9.78515 88.3562 9.86867 88.3615 9.95417C88.2022 10.3488 87.9877 10.7188 87.7244 11.0531C87.2581 11.7468 86.8378 12.4704 86.4662 13.2192L88.2977 11.7858C88.9507 11.2921 89.5719 10.8143 90.1771 10.4002C90.7823 9.98607 91.3079 9.61974 91.7698 9.33306C92.0508 9.1311 92.3708 8.99004 92.7095 8.91895C92.7746 8.92191 92.8384 8.93913 92.8962 8.9694C92.9539 8.99967 93.0044 9.04228 93.0439 9.09416C93.129 9.18741 93.1844 9.30381 93.2032 9.42861C93.1706 9.60902 93.094 9.7786 92.9802 9.92234C92.6617 10.3364 92.2635 10.8939 91.8016 11.515C91.3398 12.1362 90.8779 12.8688 90.4638 13.5696C90.0606 14.2204 89.6989 14.8959 89.3808 15.5923C89.1358 16.0631 88.9844 16.5769 88.9348 17.1053C88.9206 17.2239 88.9333 17.3442 88.9719 17.4572C89.0105 17.5702 89.074 17.6732 89.1578 17.7583C89.3634 17.8977 89.6116 17.9597 89.8586 17.9335C90.48 17.9063 91.086 17.7316 91.6265 17.4238C92.3449 17.041 93.0366 16.61 93.6969 16.1338C94.4217 15.6041 95.1082 15.024 95.7515 14.3977C96.3307 13.8253 96.8633 13.2075 97.3441 12.5502C97.3441 12.4706 97.4875 12.4547 97.599 12.5502C97.7105 12.6458 97.7104 12.6458 97.5512 12.8051Z" fill="#333333"/>
</g>
<defs>
<clipPath id="clip0_473_4657">
<rect width="328.839" height="80" fill="white"/>
</clipPath>
</defs>
</svg>
