<?xml version="1.0" encoding="UTF-8"?><svg id="Layer_2" xmlns="http://www.w3.org/2000/svg" viewBox="0 0 1232.41 79.45"><defs><style>.cls-1{fill:#3d3d3d;}.cls-2{fill:none;stroke:#3d3d3d;stroke-miterlimit:10;}</style></defs><g id="Layer_1-2"><g><path class="cls-2" d="M302.03,22.75v55.93"/><path class="cls-2" d="M688.97,22.75v55.93"/><g><path class="cls-1" d="M0,48.89H9.67v1.11H1.17v19.44H0v-20.55Z"/><path class="cls-1" d="M33.61,58.25c.09,3.45,.47,6.8,1.33,9.67,1.14-2.28,2.02-4.87,2.56-7.81l3.13,.92c-.13,.38-.51,.66-1.23,.63-.89,3.35-2.09,6.17-3.64,8.5,.82,1.83,1.96,3.38,3.45,4.49,.44,.41,.63,.41,.88-.16,.32-.66,.79-2.02,1.14-3.16l.38,.06-.41,4.21c.79,1.07,.85,1.49,.6,1.83-.63,.92-2.34,.16-3.51-.79-1.61-1.26-2.85-2.85-3.83-4.71-2.15,2.69-4.84,4.65-7.97,6.01l-.38-.44c1.71-1.01,3.29-2.24,4.71-3.7h-9.55v1.49c0,.16-.57,.66-1.52,.66h-.28v-16.28l2.18,.98h6.26l1.14-1.45s1.33,1.08,2.18,1.87c-.09,.35-.41,.51-.82,.51h-4.43v2.88h2.15l.98-1.01,2.21,1.64c-.16,.22-.6,.47-1.14,.57v4.17c-.03,.19-.95,.6-1.52,.6h-.25v-1.11h-2.43v3.57h2.18l1.17-1.52s1.26,.98,2.09,1.77c.82-.88,1.58-1.9,2.24-2.97-1.3-3.35-1.9-7.43-2.12-11.92h-13.72v4.43c0,4.43-.35,10.78-4.74,15.21l-.41-.38c2.91-4.49,3.16-9.93,3.16-14.8v-6.45l2.37,1.04h13.31c-.03-.6-.03-1.2-.06-1.8-.19,.06-.44,.1-.73,.1h-.35v-2.47h-6.2v2.02c0,.22-.85,.54-1.68,.54h-.32v-2.56H13.1l-.16-.92h9.26v-3.22l3.13,.32c-.06,.44-.35,.76-1.14,.85v2.05h6.2v-3.22l3.16,.32c-.06,.44-.32,.76-1.14,.85v2.05h5.25l1.45-1.83s1.68,1.3,2.66,2.24c-.06,.35-.35,.51-.79,.51h-8.57v1.42l2.18,.25c-.06,.38-.32,.73-1.01,.85v1.64h4.96l1.3-1.68s1.52,1.2,2.43,2.12c-.09,.35-.38,.51-.79,.51h-7.87Zm-12.33,3.32v2.88h2.91v-2.88h-2.91Zm0,3.83v3.04h7.15v-3.04h-7.15Zm0,7.49h2.91v-3.57h-2.91v3.57Zm13.6-19.44c5,.92,3.64,4.27,1.9,3.16-.28-1.01-1.3-2.21-2.25-2.91l.35-.25Z"/><path class="cls-1" d="M71.65,53s1.77,1.36,2.85,2.4c-.09,.35-.35,.47-.79,.47h-28.01l-.25-.92h10.4c-.25,0-.54-.13-.82-.32-.32-1.8-1.93-4.01-3.35-5.28l.35-.25c5.94,1.9,5.6,5.75,3.95,5.85h6.23c1.11-1.77,2.34-4.17,3.07-5.91l3.35,.98c-.16,.35-.54,.6-1.26,.57-.98,1.33-2.62,3-4.17,4.36h6.86l1.61-1.96Zm-14.48,4.87l2.66,1.99c-.22,.22-.76,.51-1.36,.6v14.7c0,1.61-.32,2.56-2.88,2.81-.03-.6-.19-1.11-.54-1.39-.35-.32-.95-.57-2.02-.7v-.51s2.28,.19,2.85,.19c.44,0,.57-.19,.57-.6v-5.15h-6.1v7.43c0,.22-.79,.73-1.68,.73h-.35v-19.82l2.18,.98h5.63l1.04-1.26Zm-6.83,2.21v3.83h6.1v-3.83h-6.1Zm6.1,8.79v-4.02h-6.1v4.02h6.1Zm9.45-9.83c-.06,.44-.38,.76-1.17,.89v12.65c0,.25-.85,.7-1.58,.7h-.38v-14.58l3.13,.35Zm3.64-1.04l3.13,.35c-.1,.41-.38,.7-1.11,.79v15.9c0,1.64-.38,2.66-3.29,2.91-.09-.57-.28-1.08-.73-1.36-.47-.35-1.26-.6-2.69-.76v-.51s3.26,.25,3.95,.25c.57,0,.73-.19,.73-.66v-16.92Z"/><path class="cls-1" d="M87.34,78.17h-9.67v-1.11h8.5v-19.44h1.17v20.55Z"/><path class="cls-1" d="M116.74,63.7c3,14.2-5.5,12.7-3.05,8.9,1.4-1.65,2.2-4.85,2.25-8.9h.8Zm20-4.8c-.35,.4-.95,.6-1.95,.75-.5,9.85-1.8,14.95-3.8,16.65-1.15,1.05-2.75,1.45-4.45,1.45,0-.8-.15-1.6-.65-2.05-.5-.45-1.85-.8-3.15-1.05v-.85c1.5,.1,3.85,.3,4.75,.3,.8,0,1.2-.1,1.65-.45,1.25-1.1,2.25-5.75,2.75-14.35h-12.55v1.6c0,.25-.95,1.05-2.45,1.05h-.45v-26.25l3.55,1.5h10.6l2.2-2.6s2.45,1.85,4,3.3c-.15,.55-.6,.8-1.3,.8h-8.45v5.3h3.45l1.85-2.45s2.3,1.8,3.6,3.1c-.1,.55-.6,.8-1.25,.8h-7.65v5.4h3.25l1.9-2.4s2.25,1.75,3.6,3.1c-.15,.55-.6,.8-1.25,.8h-7.5v5.5h4.4l1.75-1.85,3.55,2.9Zm-17.05,4.3c4.8,6.4,1.75,11.75-.3,9.25,.55-2.9,.15-6.65-.45-9.05l.75-.2Zm-.35-24.5v5.3h4.85v-5.3h-4.85Zm4.85,6.75h-4.85v5.4h4.85v-5.4Zm-4.85,12.4h4.85v-5.5h-4.85v5.5Zm3.3,4.5c6.4,4.9,3.85,9.9,1.65,7.7,0-2.3-1.25-5.45-2.3-7.4l.65-.3Zm3.15-1.1c7,2.45,4.85,7.5,2.5,5.65-.3-1.75-1.75-4-3.1-5.25l.6-.4Zm20.6-6.65c2.1,9.3,6.7,17.85,13.9,21.35l-.1,.55c-1.25,.25-2.35,1.25-2.8,2.9-6.95-4.95-10.3-13.45-12-24.8h-3.15c-.2,8.5-1.45,18.15-8.9,24.85l-.75-.5c5.8-7.5,6.5-17.05,6.5-26.6v-16.65l3.75,1.6h10.95l1.75-1.95,3.95,3.05c-.25,.4-1.1,.8-2.05,.95v17c-.05,.3-1.7,1.05-2.7,1.05h-.45v-2.8h-7.9Zm-4.15-1.5h12.05v-14.35h-12.05v14.35Z"/><path class="cls-1" d="M179.96,32.22c4.54-2.42,9.8-3.84,16.16-3.84,16.36,0,24.95,9.59,24.95,23.63,0,15.05-10.4,25.45-28.38,25.45-12.32,0-21.51-5.35-23.13-15.05,.71-1.92,2.32-2.83,4.04-2.83,2.42,0,3.64,1.31,4.44,4.44l2.22,7.27c3.33,1.62,6.87,2.32,12.32,2.32,11.72,0,19.09-7.88,19.09-21.01s-7.47-19.69-18.79-19.69c-5.35,0-10,1.52-15.15,4.65l-2.42-.91L178.04,0h40.4V7.27h-36.76l-1.72,24.95Z"/><path class="cls-1" d="M251.5,35.64c-.2,.55-.65,.85-1.9,.7-3.25,6.85-9.5,15.05-18.3,19.75l-.45-.65c7.45-5.45,13.1-14.4,15.6-21.75l5.05,1.95Zm14.55,15.6l3.85,3.2c-.35,.35-1,.65-2,.75-.65,11-2.1,19.65-4.5,21.95-1.45,1.35-3.45,2-5.9,1.95,0-.95-.25-1.85-1.1-2.4-.8-.55-3.45-1.15-5.7-1.5l.05-.85c2.55,.25,7,.65,8.25,.65,1.05,0,1.5-.15,2.05-.65,1.75-1.45,2.95-9.55,3.5-19.55h-12.2c-.85,8.3-3.5,17.65-18.9,24.6l-.65-.8c13.5-7.45,15.5-16.4,15.95-23.8h-10.5l-.45-1.5h26.35l1.9-2.05Zm-6.75-17.7c3.15,7.75,11.05,14.75,18.25,18.25l-.15,.55c-1.35,.1-2.45,1-3.1,2.6-6.75-4.55-13.05-12.1-15.85-20.9l.85-.5Z"/><path class="cls-1" d="M344.31,49.78c-.06,.38-.47,.51-1.26,.6,2.85,4.11,8.13,7.65,13.69,10.05l-.06,.44c-.95,.19-1.74,.92-1.96,1.71-5.12-2.75-9.96-7.11-12.24-11.82-3.04,4.71-9.3,10.15-15.18,12.99l-.28-.44c5.31-3.16,11.79-9.83,13.53-14.51l3.76,.98Zm8.54,24.15s1.8,1.36,2.94,2.4c-.1,.35-.44,.47-.89,.47h-26.65l-.28-.88h12.58v-6.8h-8.28l-.25-.89h8.54v-6.01h-7.81l-.22-.92h14.76l1.45-1.71s1.64,1.2,2.66,2.12c-.06,.35-.41,.51-.82,.51h-7.9v6.01h5.56l1.55-1.8s1.68,1.26,2.78,2.21c-.09,.32-.41,.47-.85,.47h-9.04v6.8h8.57l1.61-1.99Z"/><path class="cls-1" d="M383.52,55.69l2.59,1.96c-.19,.25-.7,.51-1.33,.66v9.17c-.03,.22-1.14,.7-1.8,.7h-.32v-2.15h-16.6c-.35,4.14-1.68,8.76-6.29,12.01l-.41-.35c4.08-4.3,4.68-9.64,4.68-14.7v-7.14l2.53,1.11h15.78l1.17-1.26Zm1.83-5.98s1.8,1.36,2.94,2.4c-.06,.35-.38,.51-.82,.51h-26.68l-.28-.95h23.24l1.61-1.96Zm-2.69,15.37v-7.18h-16.47v5.06c0,.66,0,1.39-.06,2.12h16.54Z"/><path class="cls-1" d="M415.97,61.92v6.54h1.36l1.36-1.9s1.61,1.33,2.56,2.31c-.09,.32-.35,.47-.79,.47h-27.73l-.25-.89h4.9v-6.54h-4.87l-.25-.88h5.12v-5.85c-1.45,1.52-3.07,2.75-4.65,3.67l-.38-.38c2.34-2.09,4.93-5.66,6.58-9.52l3.13,1.45c-.19,.28-.6,.51-1.3,.41-.54,.88-1.11,1.71-1.74,2.5l.57,.25h16.85l1.52-1.9s1.68,1.36,2.69,2.31c-.06,.35-.38,.51-.82,.51h-3.86v6.54h1.45l1.42-1.9s1.68,1.33,2.66,2.28c-.06,.35-.35,.51-.79,.51h-4.74Zm-18.18,8.66c.7,3.89-1.14,6.13-2.66,6.96-.89,.57-2.06,.6-2.4-.13-.25-.63,.16-1.23,.82-1.64,1.64-.7,3.54-2.62,3.7-5.22l.54,.03Zm1.49-9.55h3.48v-6.54h-3.48v6.54Zm0,7.43h3.48v-6.54h-3.48v6.54Zm2.72,2.43c4.71,4.08,2.37,8.31,.66,6.35,.19-1.99-.41-4.52-1.11-6.2l.44-.16Zm2.66-16.41v6.54h3.73v-6.54h-3.73Zm0,7.43v6.54h3.73v-6.54h-3.73Zm3.16,8.92c6.42,3.45,4.65,8.06,2.66,6.32-.22-1.96-1.77-4.52-3.04-6.07l.38-.25Zm2.53-16.35v6.54h3.67v-6.54h-3.67Zm3.67,7.43h-3.67v6.54h3.67v-6.54Zm0,8.54c8.95,3.16,7.59,8.85,5.06,7.21-.63-2.34-3.26-5.28-5.44-6.92l.38-.28Z"/><path class="cls-1" d="M435.61,66.41c-2.12,1.42-5.19,3.48-9.14,5.91-.09,.35-.32,.7-.63,.82l-1.33-2.62c.92-.32,2.53-.95,4.52-1.77v-9.96h-3.76l-.22-.92h3.98v-8.28l3.19,.35c-.06,.44-.38,.73-1.17,.85v7.08h1.3l1.33-1.87s1.52,1.33,2.43,2.31c-.09,.32-.41,.47-.82,.47h-4.24v9.11c1.39-.6,2.91-1.23,4.39-1.9l.16,.41Zm15.62-9.74s1.74,1.39,2.78,2.37c-.09,.35-.38,.51-.82,.51h-14.73v1.14c0,5.53-.66,12.33-7.02,16.91l-.44-.41c4.68-4.74,5.44-10.62,5.44-16.5v-9.04l2.72,1.01c4.02-.82,8.38-2.15,10.78-3.26l2.66,2.47c-.32,.25-.92,.25-1.68-.03-3.19,.76-8,1.42-12.46,1.64v5.12h11.29l1.49-1.93Zm-.47,6.99l2.56,1.99c-.22,.28-.73,.54-1.39,.63v10.69c-.03,.22-1.01,.73-1.71,.73h-.32v-2.81h-8.54v2.34c0,.22-.79,.7-1.64,.7h-.35v-13.94l2.15,.98h8.06l1.17-1.3Zm-.85,10.31v-8.06h-8.54v8.06h8.54Z"/><path class="cls-1" d="M465.46,60.47c6.92,2.72,5.22,7.11,3.1,5.56-.41-1.58-1.87-3.64-3.1-4.96v16.22c0,.25-.82,.76-1.58,.76h-.44v-15.3c-1.42,3.26-3.42,6.2-5.91,8.66l-.44-.41c2.88-3.73,4.84-8.79,5.91-13.75h-4.96l-.25-.95h5.66v-7.27l3.16,.38c-.06,.47-.32,.76-1.14,.89v6.01h1.93l1.39-1.8s1.64,1.3,2.59,2.25c-.09,.35-.38,.51-.79,.51h-5.12v3.22Zm18.62-6.04s1.58,1.36,2.53,2.28c-.09,.35-.38,.51-.79,.51h-4.39v17.74c0,1.68-.38,2.69-3.51,2.97-.13-.6-.32-1.08-.79-1.33-.57-.35-1.42-.57-3.1-.79v-.51s3.76,.28,4.49,.28c.66,0,.85-.22,.85-.76v-13.85c-2.53,4.74-6.29,8.88-11.03,11.95l-.38-.44c4.81-3.89,8.57-9.67,10.59-15.27h-6.7l-.25-.92h7.78v-7.24l3.22,.35c-.09,.47-.38,.76-1.17,.89v6.01h1.33l1.33-1.87Z"/><path class="cls-1" d="M494.8,56.04c1.8,0,11.86-1.08,13.37-1.39,.82-.19,1.23-.7,1.77-.7,.92,0,3.13,1.64,3.13,2.53,0,.7-1.01,1.23-1.45,2.28-3.32,7.87-8.98,13.78-18.31,17.36l-.47-.76c9.04-4.55,14.86-11.32,16.82-18.72,.13-.47-.06-.54-.38-.54-1.39,0-10.37,1.26-12.17,1.68-.85,.19-1.55,.82-2.15,.82-.95,0-2.43-1.52-2.75-2.31-.16-.44-.25-.92-.32-1.8l.6-.22c.51,.76,1.2,1.77,2.31,1.77Z"/><path class="cls-1" d="M535.12,56.48c1.11-.09,1.23-.79,1.83-.79,.79,0,2.97,1.77,2.97,2.53s-.98,.95-1.17,1.8c-.28,1.39-.98,5.66-1.61,9.11,1.14,.09,1.93,.54,1.93,1.14,0,.54-.25,.92-.92,.92s-2.37-.19-3.83-.19c-2.47,0-6.73,.22-10.53,.44,.03,.41,.03,.79,.03,1.26,0,.79-.28,1.17-.95,1.17-.6,0-1.3-.85-1.3-2.15,0-.63,.09-2.59,.09-3.95-.03-2.37-.41-6.89-.89-8.76-.28-1.14-.82-1.87-1.71-2.66l.44-.54c1.33,.38,2.37,.7,3.41,1.64,3.13-.13,10.94-.82,12.17-.98Zm.03,12.65c.6-3.6,1.33-8.95,1.33-10.72,0-.25-.09-.35-.38-.35-2.02,0-7.33,.41-9.07,.6-1.04,.09-1.93,.41-2.5,.41-.35,0-.82-.19-1.26-.41,.1,1.93,.38,7.68,.51,11.19,3.38-.22,8.44-.6,11.38-.73Z"/><path class="cls-1" d="M547.99,62.17c.7,1.08,1.2,2.06,2.53,2.06,2.81,0,13.88-.73,15.33-.79,2.12-.16,3-.35,3.83-.35,1.2,0,2.62,.54,2.62,1.39,0,.57-.32,.92-1.39,.92s-2.21-.06-4.14-.06-10.88,.47-13.25,.76c-1.8,.19-2.15,.66-3.07,.66s-2.37-1.55-2.81-2.62c-.22-.6-.25-1.14-.28-1.77l.63-.19Z"/><path class="cls-1" d="M579.58,54.46v-.63c.63-.19,1.3-.35,1.8-.35,1.17,0,3.1,1.14,3.1,1.93,0,.6-.38,.92-.47,2.09-.09,1.36-.03,8.32-.03,9.61,0,1.2-.44,1.58-1.01,1.58-.7,0-1.23-.98-1.23-2.15,0-.85,.25-2.09,.32-4.68,0-1.46-.06-4.55-.19-5.72-.06-.76-.09-1.01-.63-1.23-.47-.22-.98-.32-1.64-.44Zm3.64,22.86l-.41-.7c6.17-3.26,9.14-7.49,9.52-13.97,.16-2.88,.22-5.56,.1-7.75-.06-.54-.13-.98-.7-1.3-.35-.19-1.07-.32-1.9-.41l-.03-.63c.7-.32,1.58-.6,2.15-.6,1.2,0,3.29,1.23,3.29,1.9s-.54,.85-.6,1.87c-.06,1.87-.19,5.06-.28,7.02-.35,7.33-3.98,11.89-11.13,14.58Z"/><path class="cls-1" d="M626.7,56.92l.73,.47c-3.79,6.73-9.67,11.79-16.6,16.22-.63,.38-.98,1.17-1.68,1.17-1.23,0-3.13-1.49-3.76-2.43-.32-.54-.6-1.55-.66-2.05l.51-.32c.95,1.04,1.96,2.05,2.97,2.05,2.43,0,14.01-8.38,18.5-15.11Zm-21.25-2.97c3.6,1.01,7.97,3.16,7.97,5.6,0,.7-.44,1.17-1.11,1.17-.51,0-.92-.35-1.74-1.33-1.52-1.83-2.72-2.94-5.5-4.77l.38-.66Z"/><path class="cls-1" d="M638.72,51.61c.57,0,1.2,0,1.9,.13,1.23,.28,2.91,1.23,2.91,1.8,0,.54-.44,.85-.92,1.64-.35,.57-.7,1.17-1.08,1.71,.22,.03,.41,.03,.6,.03,1.52,0,5.41-.44,6.29-.6,.85-.19,1.07-.73,1.61-.73,.76,0,2.75,1.3,2.75,2.12,0,.63-1.04,.82-1.49,1.64-4.33,7.87-10.75,14.39-19.67,18.08l-.47-.7c8.12-4.24,15.55-12.39,18.02-18.65,.16-.38,.03-.47-.25-.47-.7,0-3.92,.51-5.06,.73-.66,.16-1.33,.41-1.77,.41-.35,0-.85-.32-1.36-.76-2.5,3.35-5.66,6.2-9.36,8.22l-.47-.66c4.93-3.54,9.58-9.99,9.58-11.82,0-.54-.82-1.04-1.93-1.52l.16-.6Zm11.86,.38c1.64,.63,2.85,1.33,3.64,2.05,.79,.76,1.08,1.3,1.08,1.93,0,.51-.28,.82-.76,.82-.44,0-.82-.7-1.45-1.52-.66-.79-1.52-1.77-2.91-2.78l.41-.51Zm2.72-1.99c1.64,.57,2.81,1.26,3.6,1.83,.85,.66,1.2,1.3,1.2,1.96,0,.54-.28,.82-.73,.82-.54,0-.85-.73-1.55-1.52-.7-.79-1.45-1.52-2.91-2.56l.38-.54Z"/><path class="cls-1" d="M734.12,67.99c0,4.86-4.18,8.19-9.85,8.19s-9.9-2.79-9.9-7.83c0-3.73,2.47-6.16,7.2-8.5-4.32-2.29-6.12-5.22-6.12-8.59,0-5,3.96-8.05,8.91-8.05s8.24,3.1,8.24,7.56c0,2.47-1.44,5.35-5.99,7.92,5.22,2.47,7.51,5.08,7.51,9.31Zm-3.42,.31c0-2.97-1.84-5.04-7.65-7.74-3.55,2.12-5.31,4.05-5.31,7.42,0,3.83,2.61,6.43,6.61,6.43s6.34-2.61,6.34-6.12Zm-5.58-10.3c3.19-2.21,4.45-4.23,4.45-7.16,0-3.19-1.89-5.8-5.31-5.8-2.97,0-5.58,2.03-5.58,5.31,0,2.75,1.35,5.27,6.44,7.65Z"/><path class="cls-1" d="M740.91,68.05c1.9,8.98-3.48,8.03-1.93,5.63,.88-1.04,1.39-3.07,1.42-5.63h.51Zm12.65-3.04c-.22,.25-.6,.38-1.23,.47-.32,6.23-1.14,9.45-2.4,10.53-.73,.66-1.74,.92-2.81,.92,0-.51-.09-1.01-.41-1.3-.32-.28-1.17-.51-1.99-.66v-.54c.95,.06,2.43,.19,3,.19,.51,0,.76-.06,1.04-.28,.79-.7,1.42-3.64,1.74-9.07h-7.94v1.01c0,.16-.6,.66-1.55,.66h-.28v-16.6l2.24,.95h6.7l1.39-1.64s1.55,1.17,2.53,2.09c-.09,.35-.38,.51-.82,.51h-5.34v3.35h2.18l1.17-1.55s1.45,1.14,2.28,1.96c-.06,.35-.38,.51-.79,.51h-4.84v3.42h2.05l1.2-1.52s1.42,1.11,2.28,1.96c-.09,.35-.38,.51-.79,.51h-4.74v3.48h2.78l1.11-1.17,2.25,1.83Zm-10.78,2.72c3.04,4.05,1.11,7.43-.19,5.85,.35-1.83,.09-4.21-.29-5.72l.47-.13Zm-.22-15.49v3.35h3.07v-3.35h-3.07Zm3.07,4.27h-3.07v3.42h3.07v-3.42Zm-3.07,7.84h3.07v-3.48h-3.07v3.48Zm2.09,2.85c4.05,3.1,2.43,6.26,1.04,4.87,0-1.46-.79-3.45-1.46-4.68l.41-.19Zm1.99-.7c4.43,1.55,3.07,4.74,1.58,3.57-.19-1.11-1.11-2.53-1.96-3.32l.38-.25Zm13.03-4.21c1.33,5.88,4.24,11.29,8.79,13.5l-.06,.35c-.79,.16-1.49,.79-1.77,1.83-4.39-3.13-6.51-8.5-7.59-15.68h-1.99c-.13,5.38-.92,11.48-5.63,15.71l-.47-.32c3.67-4.74,4.11-10.78,4.11-16.82v-10.53l2.37,1.01h6.92l1.11-1.23,2.5,1.93c-.16,.25-.7,.51-1.3,.6v10.75c-.03,.19-1.08,.66-1.71,.66h-.29v-1.77h-5Zm-2.62-.95h7.62v-9.07h-7.62v9.07Z"/><path class="cls-1" d="M776.81,56.51c1.67-.5,3.24-.76,5.08-.76,6.21,0,10.44,3.55,10.44,9.9s-4.41,10.53-11.2,10.53c-4.77,0-7.96-2.16-9-6.48,.36-.99,1.12-1.49,2.12-1.49,1.26,0,1.8,.63,2.38,2.75l.9,2.92c1.12,.32,2.16,.5,3.33,.5,5.08,0,7.88-3.24,7.88-8.28s-3.1-8.01-7.88-8.01c-1.67,0-3.33,.22-4.9,.76l-1.26-.27,1.03-14.71h15.79v3.38h-14.04l-.67,9.27Z"/><path class="cls-1" d="M804.56,72.89c1.58-.38,3.29-.82,5.03-1.27l.13,.47c-2.69,1.14-6.32,2.69-11.16,4.52-.09,.35-.41,.63-.7,.73l-1.07-2.66c.51-.09,1.17-.22,1.99-.41v-11.13l2.78,.28c-.06,.35-.35,.63-.98,.73v9.71l2.02-.47v-13.63h-1.96v.88c0,.16-.63,.63-1.61,.63h-.32v-11.07l2.31,1.01h4.74l1.11-1.2,2.47,1.87c-.22,.25-.73,.51-1.33,.63v7.78c-.06,.16-1.01,.57-1.64,.57h-.28v-1.11h-1.52v4.93h1.23l1.33-1.77s1.52,1.23,2.43,2.18c-.09,.35-.38,.51-.82,.51h-4.17v7.27Zm-3.92-14.07h5.44v-6.67h-5.44v6.67Zm23.05-5.34c-.25,.29-.57,.38-1.33,.41-1.04,2.4-2.47,4.65-4.3,6.67,2.21,1.87,5.03,3.32,8.57,4.27l-.1,.35c-.79,.22-1.45,.73-1.64,1.71-3.42-1.3-5.94-3.04-7.9-5.18-1.58,1.55-3.48,2.97-5.63,4.17l1.9,.76h7.33l1.01-1.2,2.28,1.77c-.22,.22-.47,.41-1.14,.51v9.58c0,.16-.79,.63-1.74,.63h-.32v-2.12h-7.78v1.55c0,.16-.63,.63-1.68,.63h-.32v-11.89c-1.17,.63-2.43,1.17-3.79,1.68l-.32-.47c3.67-1.71,6.77-4.08,9.14-6.86-1.04-1.36-1.9-2.88-2.62-4.52-1.33,1.83-2.81,3.38-4.46,4.52l-.44-.38c2.4-2.47,4.65-6.58,5.91-11.07l3.07,1.08c-.16,.35-.54,.6-1.23,.57-.28,.73-.6,1.42-.95,2.09h4.9l1.36-1.3,2.21,2.05Zm-10.78,14.1v7.3h7.78v-7.3h-7.78Zm1.87-13.97c-.32,.57-.66,1.11-.98,1.61,.82,1.52,1.8,2.94,3.04,4.17,1.39-1.8,2.5-3.76,3.32-5.79h-5.38Z"/><path class="cls-1" d="M837.7,50.19c-.16,.35-.54,.57-1.2,.54-1.04,1.68-2.31,3.51-3.48,4.87,2.28,1.86,1.04,4.08-.47,3-.35-1.42-1.71-3.16-2.88-4.17l.32-.25c.98,.28,1.74,.6,2.34,.98,.73-1.71,1.58-4.08,2.24-6.13l3.13,1.17Zm-7.97,24.98c.82-2.15,1.55-5.28,1.87-8.22l2.85,.7c-.13,.41-.47,.7-1.11,.7-.73,2.59-1.77,5.31-3.1,7.08l-.51-.25Zm7.97-15.62c5.5,3.13,3.57,7.05,1.77,5.44-.06-.54-.19-1.14-.41-1.74-.66,.13-1.39,.28-2.21,.44v13.66c0,.16-.7,.63-1.68,.63h-.28v-13.94c-1.01,.19-2.15,.38-3.35,.57-.22,.41-.51,.6-.82,.66l-.89-2.4c.7,0,1.71-.03,2.94-.06,1.83-3.04,4.05-7.15,5.41-10.12l2.94,1.36c-.19,.32-.63,.54-1.26,.44-1.49,2.31-3.92,5.63-6.2,8.28,1.55-.06,3.32-.13,5.15-.22-.44-1.04-1.01-2.06-1.52-2.81l.41-.19Zm.57,7.11c4.9,3.57,2.85,7.4,1.14,5.69,0-1.74-.82-4.05-1.55-5.53l.41-.16Zm10.21,.32c-.25,.29-.54,.35-1.23,.38-1.11,3.57-3.35,6.96-7.4,9.04l-.28-.47c2.97-2.12,4.84-5.38,5.66-8.73h-4.14l-.29-.92h4.33l1.2-1.17,2.15,1.87Zm10.46-1.26c-.13,.25-.57,.47-1.17,.25-.98,.82-2.72,2.09-4.36,3.04,1.68,2.47,3.79,3.98,6.04,5.09l-.06,.38c-.79,.16-1.36,.82-1.68,1.8-3.64-2.69-6.07-6.1-7.21-12.96v11.6c0,1.61-.35,2.75-3,3.07-.03-.6-.19-1.17-.57-1.49-.44-.35-1.2-.63-2.5-.79v-.47s2.91,.22,3.51,.22c.51,0,.63-.16,.63-.6v-12.3h-3.79v.85c0,.19-.66,.6-1.67,.6h-.29v-12.33l2.31,1.01h2.24c.25-1.08,.57-2.59,.79-3.67l3.29,.66c-.13,.44-.51,.7-1.14,.7-.51,.66-1.23,1.55-1.83,2.31h6.04l1.01-1.23,2.25,1.77c-.19,.22-.51,.38-1.17,.51v9.42c0,.16-.73,.6-1.68,.6h-.32v-1.2h-3.79c.51,2.4,1.3,4.36,2.28,5.94,1.23-1.42,2.69-3.45,3.35-4.62l2.5,1.83Zm-14.16-12.14v3.57h9.83v-3.57h-9.83Zm9.83,8.06v-3.57h-9.83v3.57h9.83Z"/><path class="cls-1" d="M877.29,56.92s1.64,1.36,2.66,2.31c-.09,.35-.38,.51-.82,.51h-6.51v2.31c7.9,3.38,6.42,8.16,4.21,6.58-.54-1.93-2.53-4.33-4.21-5.94v14.61c0,.19-.73,.7-1.71,.7h-.35v-14.64c-2.02,3.67-4.81,6.89-8.22,9.45l-.41-.44c3.48-3.32,6.23-8.06,7.87-12.61h-6.67l-.25-.92h7.68v-5.75c-2.43,.47-5.06,.85-7.56,1.07l-.13-.57c4.87-.92,10.65-2.91,13.56-4.52l2.62,2.31c-.29,.29-.89,.29-1.64,0-1.33,.44-3,.89-4.81,1.3v6.17h3.19l1.49-1.9Zm5.66,13.97c0,.28-.85,.73-1.61,.73h-.38v-19.89l3.13,.35c-.09,.44-.38,.76-1.14,.85v17.96Zm8.03-20.9c-.09,.44-.41,.73-1.17,.82v24.03c0,1.74-.38,2.78-3.38,3.1-.13-.66-.32-1.2-.7-1.52-.54-.38-1.39-.63-2.88-.85v-.47s3.45,.28,4.11,.28,.82-.22,.82-.73v-25.04l3.19,.38Z"/><path class="cls-1" d="M922.28,52.02c-.22,.29-.79,.57-1.49,.73v22.1c0,1.71-.32,2.75-3.38,3.07-.09-.66-.28-1.23-.73-1.52-.47-.35-1.33-.63-2.81-.82v-.51s3.38,.29,4.08,.29c.6,0,.76-.22,.76-.73v-7.43h-8.13v9.83c0,.16-.66,.66-1.74,.66h-.32v-10.5h-7.9c-.54,3.92-1.96,7.81-5.34,10.75l-.44-.32c3.64-4.68,4.11-10.62,4.11-16.66v-10.69l2.43,1.01h17.01l1.11-1.39,2.78,2.12Zm-13.75,14.26v-6.64h-7.52v1.3c0,1.71-.03,3.51-.25,5.34h7.78Zm-7.52-14.04v6.45h7.52v-6.45h-7.52Zm9.58,0v6.45h8.13v-6.45h-8.13Zm8.13,14.04v-6.64h-8.13v6.64h8.13Z"/><path class="cls-1" d="M953.52,49.46s1.83,1.39,2.94,2.47c-.06,.35-.35,.51-.79,.51h-4.17v22.29c0,1.68-.41,2.94-3.79,3.26-.06-.66-.35-1.23-.88-1.52-.66-.38-1.64-.66-3.54-.89v-.47s4.39,.32,5.25,.32c.7,0,.92-.25,.92-.82v-22.16h-21.69l-.25-.95h24.38l1.64-2.02Zm-9.2,9.11c-.22,.25-.73,.51-1.33,.63v10.69c-.03,.19-1.07,.7-1.77,.7h-.29v-2.43h-7.75v2.97c0,.19-.79,.66-1.64,.66h-.35v-14.86l2.15,.98h7.3l1.11-1.26,2.56,1.93Zm-3.38,8.63v-8.38h-7.75v8.38h7.75Z"/><path class="cls-1" d="M969.28,52.02c7.24,2.81,5.72,7.4,3.51,5.88-.19-.63-.57-1.36-1.01-2.09-2.5,.51-5.82,1.17-10.15,1.93-.16,.41-.47,.6-.79,.66l-1.01-2.56c.92,0,2.24-.06,3.89-.19,.7-2.09,1.42-4.74,1.83-6.7l3.41,.79c-.13,.38-.51,.66-1.14,.66-.73,1.49-1.9,3.48-3.07,5.19,1.96-.1,4.24-.29,6.61-.44-.76-1.07-1.68-2.12-2.47-2.88l.38-.25Zm2.05,6.8l2.66,2.02c-.19,.22-.73,.51-1.33,.6v13.56c0,1.67-.28,2.69-2.88,2.94-.03-.63-.19-1.2-.51-1.52-.38-.35-.95-.6-1.99-.76v-.51s2.21,.19,2.75,.19c.47,0,.6-.16,.6-.6v-4.52h-6.51v6.96c0,.22-.79,.73-1.64,.73h-.32v-18.81l2.12,1.01h6.04l1.01-1.3Zm-7.21,2.24v3.6h6.51v-3.6h-6.51Zm6.51,8.25v-3.73h-6.51v3.73h6.51Zm8.63-6.77c-2.47,0-2.94-.47-2.94-2.06v-11.16l2.97,.35c-.03,.38-.35,.7-.92,.79v5.09c2.72-1.17,5.66-3.07,7.18-4.46l2.5,1.77c-.25,.32-.76,.35-1.52,.16-1.9,1.01-5.15,2.4-8.16,3.16v3.86c0,.51,.09,.66,1.26,.66h3c1.33,0,2.43,0,2.81-.06,.35-.03,.51-.09,.63-.32,.22-.41,.57-1.83,.89-3.32h.41l.09,3.42c.7,.22,.88,.44,.88,.82,0,.98-1.01,1.3-5.82,1.3h-3.29Zm8.5,12.65c.7,.28,.89,.51,.89,.92,0,.95-1.04,1.3-5.94,1.3h-3.38c-2.5,0-3-.51-3-2.15v-11.6l3.04,.35c-.06,.38-.38,.7-.98,.79v5.31c2.81-1.3,5.82-3.38,7.27-4.9l2.69,1.74c-.22,.28-.73,.35-1.49,.19-1.99,1.23-5.31,2.75-8.47,3.64v4.08c0,.51,.13,.66,1.33,.66h3.1c1.36,0,2.47,0,2.91-.03,.35-.03,.51-.13,.6-.38,.25-.44,.6-1.96,.95-3.6h.38l.13,3.7Z"/><path class="cls-1" d="M1000.39,51.01c.51-.19,1.26-.38,1.87-.38,.82,0,1.77,.19,2.31,.54,.54,.32,.41,.89-.76,4.93,3.04-.95,3.67-1.71,4.27-1.71,.66,0,1.17,.44,1.17,.95,0,.57-.73,1.01-1.08,1.2-.98,.51-2.88,1.17-5,1.61-1.11,3.41-3.38,9.23-5.98,12.99-.44,.63-.82,1.14-1.42,1.14-.63,0-.92-.66-.92-1.23,0-.51,.16-.98,.57-1.52,1.93-2.56,4.58-6.45,6.01-11.07-.85,.13-1.71,.19-2.5,.19-2.37,0-3.45-.89-4.46-3.13l.57-.44c1.36,1.14,2.06,1.83,4.24,1.83,.92,0,1.9-.16,2.69-.35,.29-1.23,.51-2.59,.57-3.41,.03-.66-.13-.92-.66-1.14-.44-.22-1.04-.38-1.49-.51v-.51Zm11.32,5.44c1.55-.22,3.16-.09,4.36,.38,1.93,.73,2.91,1.96,2.91,3.22,0,.73-.32,1.14-.92,1.14-.73,0-1.26-.51-2.62-.41-1.11,.13-2.24,.51-2.94,1.23-.7,.7-.82,1.71-.79,2.85,.03,.95,.35,2.94,.6,4.84,2.05,.47,3.73,1.39,4.93,2.21,1.52,.98,2.18,1.87,2.18,2.66,0,.63-.28,1.01-.79,1.01-.6,0-.98-.54-1.68-1.17-1.2-1.17-2.66-2.21-4.46-2.88,.03,.47,.06,.89,.06,1.26,0,2.62-1.93,4.14-5.15,4.14s-5.06-1.61-5.06-3.45c0-2.4,2.56-4.17,6.77-4.17,.51,0,.98,.03,1.42,.06-.09-1.39-.25-2.81-.25-4.05,0-1.77,.51-2.94,1.52-3.95,.98-1.04,2.4-1.55,3.51-2.02,.66-.35,.54-.76,0-1.17-.89-.66-2.18-.95-3.64-.95l.03-.79Zm-1.04,14.58c-.85-.16-1.74-.25-2.72-.25-2.88,0-4.39,1.2-4.39,2.34s1.08,1.99,3.38,1.99c3.04,0,3.73-1.52,3.73-3.38v-.7Z"/><path class="cls-1" d="M1026.73,53.6c.63,.95,1.08,1.74,1.99,1.74,2.02,0,14.29-1.33,16.12-1.61,.66-.09,.95-.54,1.49-.54,.85,0,3.1,1.93,3.1,2.81,0,.73-1.26,.85-1.96,1.39-1.36,1.01-4.17,3.04-7.05,4.65,0,.16-.03,.32-.09,.51-2.37,6.45-5.66,10.88-12.33,14.29l-.51-.66c6.26-3.83,10.15-11.35,10.15-13.5,0-.95-1.17-1.42-2.56-1.9l.16-.7c.92,0,1.46,0,2.02,.13,1.01,.16,1.9,.47,2.47,.85,2.43-1.71,5-3.86,5.91-5.15,.41-.6,.28-.73-.38-.73-1.52,0-10.5,1.26-14.04,1.96-1.23,.25-1.26,.82-2.02,.82s-2.25-1.26-2.72-2.24c-.25-.54-.32-1.2-.41-1.93l.66-.19Z"/><path class="cls-1" d="M1060.41,51.17c.57,0,1.2,0,1.9,.13,1.23,.28,2.91,1.23,2.91,1.8,0,.54-.44,.85-.92,1.64-.35,.57-.7,1.17-1.08,1.71,.22,.03,.41,.03,.6,.03,1.52,0,5.41-.44,6.29-.6,.85-.19,1.08-.73,1.61-.73,.76,0,2.75,1.3,2.75,2.12,0,.63-1.04,.82-1.49,1.64-4.33,7.87-10.75,14.38-19.67,18.08l-.47-.7c8.12-4.24,15.55-12.39,18.02-18.65,.16-.38,.03-.47-.25-.47-.7,0-3.92,.51-5.06,.73-.66,.16-1.33,.41-1.77,.41-.35,0-.85-.32-1.36-.76-2.5,3.35-5.66,6.2-9.36,8.22l-.47-.66c4.93-3.54,9.58-9.99,9.58-11.82,0-.54-.82-1.04-1.93-1.52l.16-.6Z"/><path class="cls-1" d="M1095.16,65.9c1.99-2.06,3.76-4.3,4.74-6.04,.22-.38,.09-.6-.35-.54-1.74,.28-6.58,1.83-9.42,2.78-.13,2.78-.22,5.75-.19,7.62,.06,2.59,.38,2.85,4.24,2.85,4.39,0,5.85-.7,6.58-.7,.85,0,2.12,.38,2.12,1.2,0,.57-.6,.85-1.45,.98-1.42,.29-4.21,.54-6.29,.54-4.96,0-6.86-.29-6.92-4.46-.06-2.18,.03-5.31,.1-7.4-1.52,.51-3.57,1.23-4.9,1.8-1.14,.51-1.17,.95-2.05,.95-.73,0-2.47-1.3-2.88-2.18-.22-.44-.22-1.08-.19-1.68l.51-.19c.63,.95,1.14,1.58,1.93,1.58,1.11,0,5.47-1.3,7.62-1.96,.06-2.59,.16-5.75,.06-7.02-.06-.79-1.01-.98-2.56-1.2l-.03-.6c.85-.29,1.68-.41,2.34-.41,1.14,0,3.19,1.2,3.19,1.9s-.63,1.11-.76,2.06c-.13,.92-.25,2.69-.38,4.74,2.72-.79,6.73-1.9,8.6-2.43,.92-.25,1.14-.82,1.61-.82,.92,0,3.07,1.71,3.07,2.47,0,.66-.92,.76-1.64,1.49-1.33,1.33-3.57,3.51-6.13,5.22l-.54-.54Z"/><path class="cls-1" d="M1109.81,59.8l.32-.7c1.61,.41,2.78,.76,4.24,1.33,1.93,.79,3.1,1.93,3.1,3.13,0,.51-.32,.98-.92,.98-.98,0-1.49-1.14-3.13-2.37-1.2-.95-2.28-1.68-3.6-2.37Zm23.33-1.77l.73,.47c-3.6,6.32-10.28,11.86-17.26,15.71-.63,.38-.98,1.2-1.8,1.2-.98,0-2.97-1.33-3.67-2.34-.38-.51-.66-1.64-.7-2.12l.51-.29c.85,1.01,1.83,2.09,2.91,2.09,2.15,0,13.59-6.83,19.29-14.73Zm-19.1-4.3l.35-.73c1.2,.32,2.62,.79,3.98,1.36,2.15,1.08,3.1,2.12,3.1,3.22,0,.57-.35,1.04-.92,1.04-.88,0-1.52-1.26-3.19-2.62-1.08-.92-2.4-1.8-3.32-2.28Z"/><path class="cls-1" d="M1154.14,56.77c.6,.09,1.04,.25,1.49,.54,.85,.6,1.77,1.77,1.77,2.43s-.82,.82-2.02,1.45c-2.25,1.11-6.7,3.16-11.92,4.65-.06,1.9-.1,3.57-.1,4.39,0,3.1,.7,3.32,4.49,3.32,5,0,7.14-1.01,8.22-1.01,1.49,0,2.43,.35,2.43,1.08,0,.63-.44,.92-1.04,1.14-1.3,.38-4.46,.76-9.39,.76-5.66,0-6.48-.95-6.51-5.41-.03-2.81,.35-13.21,.19-14.7-.13-.88-.82-1.07-2.47-1.3l-.03-.57c.73-.19,1.55-.44,2.24-.41,1.3,.06,3.13,1.26,3.13,2.02,0,.6-.6,.73-.7,1.71-.16,1.36-.32,4.68-.44,7.71,4.3-1.52,8.54-3.6,10.56-5.15,.54-.41,.63-.66,.38-1.2-.16-.38-.47-.76-.76-1.04l.47-.41Zm1.93-3.54c1.58,.7,2.75,1.46,3.54,2.21,.73,.76,1.08,1.3,1.04,1.9,0,.54-.38,.92-.85,.85-.47-.03-.76-.76-1.39-1.55-.63-.85-1.49-1.87-2.78-2.88l.44-.54Zm2.69-2.37c1.58,.63,2.78,1.3,3.54,1.96,.82,.7,1.11,1.3,1.08,1.96,0,.54-.29,.82-.76,.82-.51-.03-.82-.76-1.49-1.58-.7-.79-1.39-1.58-2.78-2.62l.41-.54Z"/><path class="cls-1" d="M1168.72,54.46v-.63c.63-.19,1.3-.35,1.8-.35,1.17,0,3.1,1.14,3.1,1.93,0,.6-.38,.92-.47,2.09-.09,1.36-.03,8.32-.03,9.61,0,1.2-.44,1.58-1.01,1.58-.7,0-1.23-.98-1.23-2.15,0-.85,.25-2.09,.32-4.68,0-1.46-.06-4.55-.19-5.72-.06-.76-.09-1.01-.63-1.23-.47-.22-.98-.32-1.64-.44Zm3.64,22.86l-.41-.7c6.17-3.26,9.14-7.49,9.52-13.97,.16-2.88,.22-5.56,.09-7.75-.06-.54-.13-.98-.7-1.3-.35-.19-1.08-.32-1.9-.41l-.03-.63c.7-.32,1.58-.6,2.15-.6,1.2,0,3.29,1.23,3.29,1.9s-.54,.85-.6,1.87c-.06,1.87-.19,5.06-.28,7.02-.35,7.33-3.98,11.89-11.13,14.58Z"/><path class="cls-1" d="M1192.82,59.26c.6,.85,1.23,1.68,2.05,1.68,2.15,0,10.18-1.2,16-1.71,2.21-.22,2.72-.57,3.19-.57,1.3,0,3.1,.7,3.1,1.61,0,.51-.19,.79-.89,.79-.51,0-1.71-.19-3.26-.19-1.42,0-4.08,.06-6.99,.35,.85,.47,1.58,1.04,1.58,1.55,0,.63-.73,.76-1.07,1.71-1.11,3.32-3.13,8.6-10.72,12.77l-.63-.66c7.62-4.96,9.39-12.17,9.39-13.88,0-.44-.16-.82-.54-1.26-2.62,.32-5.56,.79-6.51,1.04-.98,.29-1.8,.63-2.53,.66-.73,.03-2.15-1.23-2.5-2.12-.16-.38-.19-.89-.22-1.55l.54-.22Zm4.84-6.67c1.2,.88,2.02,1.23,3.07,1.23,1.93,0,4.11-.38,5.69-.73,1.87-.41,2.28-.92,2.94-.92,1.36,0,2.4,.47,2.4,1.23,0,.47-.35,.76-1.36,.95-2.43,.44-6.86,1.2-9.67,1.2-1.61,0-2.5-.92-3.54-2.56l.47-.41Z"/><path class="cls-1" d="M1228.49,57.78c.54,0,1.07,0,1.67,.22,1.04,.35,2.25,1.45,2.25,2.18,0,.57-.44,.54-1.11,1.2-.89,.98-2.06,2.28-3.57,3.7,.7,.47,1.23,.88,1.23,1.26,0,.35-.22,.7-.25,1.33-.13,3.45,.03,7.02,.03,8.38,0,.95-.28,1.33-.92,1.33-.92,0-1.42-1.17-1.42-2.12,0-.41,.22-.89,.28-1.71,.22-1.83,.29-5.44,.25-6.51-.03-.41-.09-.7-.25-1.01-1.55,1.33-5,3.98-9.2,5.6l-.32-.57c6.7-3.76,12.52-10.24,12.52-11.54,0-.51-.7-1.01-1.39-1.33l.19-.41Z"/></g><g><path class="cls-1" d="M5.35,27.7s.48,.36,.88,.73c.31-.55,.59-1.11,.81-1.64l1.26,.6c-.1,.17-.24,.22-.59,.15-.55,1.06-1.29,2.2-2.21,3.29h.84l.63-.8s.73,.56,1.16,.99c-.04,.15-.17,.22-.36,.22h-2.63c-.5,.55-1.05,1.09-1.64,1.6h2.21l.52-.55,1.09,.85c-.08,.1-.32,.22-.59,.28v5.08c-.01,.08-.46,.29-.74,.29h-.14v-.97H2.82v.88c0,.08-.28,.31-.71,.31h-.14v-5.01c-.52,.35-1.06,.67-1.64,.97l-.14-.2c.62-.38,1.22-.81,1.78-1.29v-1.04l.8,.34c.53-.49,1.02-1.02,1.47-1.55H.46l-.11-.42H3.1v-1.95H.9l-.11-.42H3.1v-2.06l1.4,.15c-.03,.2-.17,.34-.52,.38v1.53h.78l.59-.77Zm-2.37,5.57l-.17,.14v1.69h3.04v-1.83H2.99Zm2.87,4.16v-1.91H2.82v1.91h3.04Zm-1.27-6.6c.52-.63,.97-1.29,1.37-1.95h-1.98v1.95h.6Zm8.88-2.94c-.11,.13-.31,.15-.64,.15-.49,.94-1.43,2.68-2.06,3.59,1.65,1.16,2.27,2.42,2.27,3.54,0,1.37-.55,2.03-2.03,2.12,0-.31-.07-.6-.18-.71-.13-.1-.48-.18-.85-.21v-.22h1.32c.17,0,.25-.01,.39-.08,.28-.15,.42-.48,.42-1.05,0-1.06-.45-2.21-1.68-3.36,.41-.91,1.02-2.66,1.42-3.84h-2.44v11.01c0,.08-.29,.34-.76,.34h-.13v-12.3l1.05,.55h2.24l.59-.57,1.08,1.06Z"/><path class="cls-1" d="M28.65,29.29c-.1,.08-.27,.11-.53,.13-.39,.43-1.09,1.04-1.62,1.37l-.18-.11c.2-.36,.46-.94,.64-1.42h-9.19c.03,.91-.34,1.53-.71,1.81-.35,.25-.85,.29-1.02-.03-.13-.29,.06-.57,.35-.76,.55-.34,1.02-1.22,.92-2.17h.25c.08,.25,.14,.49,.17,.73h6.32c.5-.73,1.06-1.74,1.4-2.49l1.41,.59c-.07,.14-.27,.22-.56,.18-.45,.53-1.15,1.19-1.83,1.72h2.49l.6-.62,1.09,1.06Zm-10.62-2.75c2.68,.9,1.9,2.73,1.04,2.06-.13-.64-.71-1.49-1.19-1.95l.15-.11Zm8.05,7.96l1.13,.85c-.1,.11-.32,.22-.6,.29v3.17c-.01,.1-.48,.31-.77,.31h-.14v-.9h-6.89v.63c0,.1-.39,.29-.76,.29h-.13v-4.54l.97,.45h2.21c.15-.52,.32-1.19,.42-1.68h-1.86v.39c0,.08-.39,.28-.77,.28h-.13v-3.81l.97,.42h4.9l.49-.5,1.08,.8c-.08,.1-.29,.21-.53,.25v2.46c-.01,.08-.48,.29-.76,.29h-.14v-.59h-2.16c-.28,.52-.67,1.19-.99,1.68h3.94l.52-.56Zm-.38,3.31v-2.34h-6.89v2.34h6.89Zm-6.04-4.83h5.11v-1.89h-5.11v1.89Zm1.43-6.68c2.47,1.16,1.51,2.96,.69,2.2-.03-.7-.46-1.57-.87-2.1l.18-.1Z"/><path class="cls-1" d="M31.25,29.52c2.93,.43,2.35,2.4,1.36,1.82-.18-.62-.9-1.3-1.48-1.7l.13-.13Zm3.98-.77c-.56,1.77-1.64,5.1-1.83,5.77-.11,.45-.21,.88-.2,1.23,0,.62,.41,1.28,.35,2.42-.03,.59-.29,.95-.77,.95-.27,0-.41-.25-.43-.69,.18-1.41,.11-2.54-.2-2.75-.18-.14-.38-.17-.69-.2v-.31h.62c.15,0,.21-.01,.34-.28q.24-.5,2.55-6.23l.27,.07Zm-2.8-2.27c3.04,.49,2.45,2.55,1.43,1.97-.21-.66-.95-1.43-1.55-1.85l.13-.13Zm11.23,11.63c.43,.48,.49,.66,.36,.83-.27,.48-1.15,.15-1.86-.28-.83-.45-1.5-1.04-2.04-1.76-1.65,1.08-3.53,1.71-5.69,2.16l-.08-.27c1.99-.6,3.77-1.37,5.31-2.58-.43-.74-.77-1.57-1.04-2.49l-3.77,.39-.14-.39,3.81-.41c-.14-.56-.27-1.16-.35-1.79l-2.69,.25-.15-.39,2.79-.27c-.07-.55-.13-1.11-.15-1.68l-2.62,.22-.15-.38,2.75-.24c-.06-.87-.07-1.78-.07-2.72l1.48,.18c-.03,.18-.15,.34-.5,.39-.01,.7,0,1.39,.03,2.06l2.84-.25,.63-.91s.83,.53,1.34,.91c-.01,.15-.15,.25-.34,.27l-4.47,.38c.03,.57,.07,1.13,.14,1.67l2.62-.25,.62-.91s.84,.53,1.36,.9c-.01,.17-.15,.27-.34,.28l-4.22,.41c.08,.62,.2,1.22,.35,1.78l2.7-.28,.62-.91s.83,.53,1.34,.9c-.03,.15-.15,.25-.34,.27l-4.22,.43c.21,.73,.49,1.4,.83,1.99,.62-.56,1.18-1.22,1.71-1.96l1.33,.77c-.11,.14-.25,.18-.59,.11-.6,.71-1.25,1.32-1.92,1.83,.46,.57,1.02,1.04,1.69,1.37,.27,.17,.36,.17,.49-.11,.18-.35,.45-1.05,.63-1.62l.18,.03-.22,2.09Zm-3.92-11.46c2.83,.18,2.34,2.06,1.34,1.58-.25-.49-.92-1.13-1.47-1.46l.13-.13Z"/><path class="cls-1" d="M58.26,35.16s.78,.62,1.27,1.06c-.04,.14-.18,.21-.38,.21h-5.67v2.44c0,.06-.31,.28-.77,.28h-.15v-2.72h-5.81l-.11-.39h5.93v-1.58h-2.9v.43c0,.08-.39,.28-.76,.28h-.14v-5.58l.97,.46h6.56l.49-.55,1.08,.84c-.08,.1-.29,.2-.55,.24v4.12c-.01,.1-.45,.34-.76,.34h-.14v-.59h-2.93v1.58h4.1l.67-.88Zm-11.53-6.85l-.07-.41h3.92v-1.58l1.39,.15c-.01,.18-.14,.32-.49,.36v1.06h3.07v-1.58l1.4,.14c-.01,.2-.14,.34-.49,.38v1.06h2.13l.66-.84s.76,.62,1.19,1.04c-.03,.14-.15,.21-.35,.21h-3.63v1.04c0,.08-.32,.27-.76,.27h-.15v-1.3h-3.07v1.09c0,.11-.39,.25-.76,.25h-.14v-1.34h-3.85Zm2.93,2.16v1.54h6.75v-1.54h-6.75Zm6.75,3.57v-1.61h-6.75v1.61h6.75Z"/><path class="cls-1" d="M65.54,26.83c-.07,.15-.24,.25-.53,.24-.46,.74-1.02,1.55-1.54,2.16,1.01,.83,.46,1.81-.21,1.33-.15-.63-.76-1.4-1.27-1.85l.14-.11c.43,.13,.77,.27,1.04,.43,.32-.76,.7-1.81,.99-2.72l1.39,.52Zm-3.53,11.07c.36-.95,.69-2.34,.83-3.64l1.26,.31c-.06,.18-.21,.31-.49,.31-.32,1.15-.78,2.35-1.37,3.14l-.22-.11Zm3.53-6.92c2.44,1.39,1.58,3.12,.78,2.41-.03-.24-.08-.5-.18-.77-.29,.06-.62,.13-.98,.2v6.05c0,.07-.31,.28-.74,.28h-.13v-6.18c-.45,.08-.95,.17-1.48,.25-.1,.18-.22,.27-.36,.29l-.39-1.06c.31,0,.76-.01,1.3-.03,.81-1.34,1.79-3.17,2.4-4.48l1.3,.6c-.08,.14-.28,.24-.56,.2-.66,1.02-1.74,2.49-2.75,3.67,.69-.03,1.47-.06,2.28-.1-.2-.46-.45-.91-.67-1.25l.18-.08Zm.25,3.15c2.17,1.58,1.26,3.28,.5,2.52,0-.77-.36-1.79-.69-2.45l.18-.07Zm4.52,.14c-.11,.13-.24,.15-.55,.17-.49,1.58-1.48,3.08-3.28,4.01l-.13-.21c1.32-.94,2.14-2.38,2.51-3.87h-1.83l-.13-.41h1.92l.53-.52,.95,.83Zm4.64-.56c-.06,.11-.25,.21-.52,.11-.43,.36-1.2,.92-1.93,1.34,.74,1.09,1.68,1.76,2.68,2.25l-.03,.17c-.35,.07-.6,.36-.74,.8-1.61-1.19-2.69-2.7-3.19-5.74v5.14c0,.71-.15,1.22-1.33,1.36-.01-.27-.08-.52-.25-.66-.2-.15-.53-.28-1.11-.35v-.21s1.29,.1,1.55,.1c.22,0,.28-.07,.28-.27v-5.45h-1.68v.38c0,.08-.29,.27-.74,.27h-.13v-5.46l1.02,.45h.99c.11-.48,.25-1.15,.35-1.62l1.46,.29c-.06,.2-.22,.31-.5,.31-.22,.29-.55,.69-.81,1.02h2.68l.45-.55,.99,.78c-.08,.1-.22,.17-.52,.22v4.17c0,.07-.32,.27-.74,.27h-.14v-.53h-1.68c.22,1.06,.57,1.93,1.01,2.63,.55-.63,1.19-1.53,1.48-2.04l1.11,.81Zm-6.28-5.38v1.58h4.36v-1.58h-4.36Zm4.36,3.57v-1.58h-4.36v1.58h4.36Z"/></g><g><path d="M1209.47,36.79l.17,.2c-1.18,.95-2.23,2.41-2.23,4.55s1.06,3.59,2.23,4.55l-.17,.2c-1.37-.87-2.73-2.3-2.73-4.75s1.36-3.88,2.73-4.75Z"/><path d="M1215.12,41.24l3.35-3.35,.29,.29-3.35,3.35,3.35,3.35-.29,.29-3.35-3.35-3.36,3.36-.29-.29,3.36-3.36-3.35-3.35,.29-.29,3.35,3.35Zm-2.89,1.06c-.42,0-.76-.35-.76-.76s.35-.76,.76-.76,.76,.34,.76,.76-.35,.76-.76,.76Zm2.13-3.65c0-.42,.35-.76,.76-.76s.76,.34,.76,.76-.35,.76-.76,.76-.76-.34-.76-.76Zm1.52,5.78c0,.42-.35,.76-.76,.76s-.76-.35-.76-.76,.35-.76,.76-.76,.76,.34,.76,.76Zm2.13-3.65c.42,0,.76,.34,.76,.76s-.35,.76-.76,.76-.76-.35-.76-.76,.35-.76,.76-.76Z"/><path d="M1225.68,45.03v.36h-4.49v-.36l1.83-.1c0-.68,.02-1.36,.02-2.03v-4.55l-1.56,.31v-.4l2.32-.61,.17,.13-.05,1.7v3.4c0,.67,0,1.35,.02,2.03l1.75,.1Z"/><path d="M1227.05,36.79c1.37,.87,2.73,2.3,2.73,4.75s-1.36,3.88-2.73,4.75l-.17-.2c1.18-.95,2.23-2.41,2.23-4.55s-1.06-3.59-2.23-4.55l.17-.2Z"/></g></g></g></svg>