<svg width="90" height="30" viewBox="0 0 90 30" fill="none" xmlns="http://www.w3.org/2000/svg">
<g clip-path="url(#clip0_473_4900)">
<path d="M3.39425 12.5681H3.24979C3.35527 12.3365 3.43598 12.0944 3.49056 11.8459C3.49056 11.581 3.63503 11.3403 3.70726 11.1236C3.71612 10.9865 3.76384 10.8549 3.84487 10.744C3.92589 10.6331 4.03684 10.5476 4.16471 10.4975C4.94577 10.132 5.75009 9.81826 6.57242 9.55851C7.36726 9.26101 8.17933 9.01177 9.0042 8.81212C10.5931 8.52364 12.2047 8.37861 13.8196 8.37875C15.4486 8.31422 17.0767 8.5259 18.635 9.00478C19.1273 9.14826 19.561 9.44518 19.8728 9.85227C20.1846 10.2594 20.3583 10.7553 20.3686 11.268C20.3453 11.8595 20.1439 12.4302 19.7907 12.9053C19.3518 13.52 18.8053 14.0502 18.1776 14.4703C17.4323 14.9896 16.623 15.4103 15.7698 15.7222C14.7075 16.0751 13.6093 16.3094 12.4954 16.4206C12.2546 16.4206 12.1583 16.4205 12.2546 16.7095C12.7602 17.5522 13.4344 18.6115 14.3252 19.8636C15.2161 21.1156 16.2273 22.4879 17.3349 23.9085C17.9352 24.659 18.5955 25.3595 19.3092 26.0032C20.0526 26.6731 20.8589 27.2698 21.7169 27.7848C22.5738 28.3032 23.4865 28.7232 24.4376 29.0369C25.4025 29.3455 26.4101 29.4999 27.4231 29.4944C29.0918 29.4976 30.739 29.1187 32.2386 28.3868C32.383 28.3868 32.4793 28.3868 32.4793 28.3868C32.4793 28.3868 32.4793 28.5313 32.3108 28.5553C31.4554 28.9734 30.56 29.3042 29.6382 29.5426C28.6742 29.8099 27.6771 29.9395 26.6767 29.9277C25.3412 29.9431 24.0084 29.8058 22.7041 29.5185C21.5948 29.2531 20.5316 28.8229 19.5499 28.2423C18.5495 27.6175 17.6349 26.8648 16.8292 26.0032C15.8669 24.955 14.9742 23.8451 14.1567 22.6805L13.1936 21.236L12.0379 19.5023L10.9063 17.7448C10.5692 17.1669 10.2562 16.7094 10.0154 16.3483C9.77466 15.9871 10.0154 16.2038 10.0154 16.2038C11.1137 16.213 12.2103 16.1163 13.2899 15.9149C14.1985 15.7577 15.0762 15.457 15.8902 15.024C16.5798 14.6721 17.1682 14.15 17.5997 13.5072C18.0136 12.8707 18.2236 12.1232 18.2016 11.3643C18.202 11.0516 18.1449 10.7416 18.0331 10.4495C17.9063 10.103 17.6802 9.80139 17.383 9.58261C17.0291 9.29335 16.6192 9.08022 16.1792 8.95658C15.5634 8.76707 14.9212 8.67769 14.2771 8.69177C14.0216 8.65489 13.7621 8.65489 13.5066 8.69177C13.2473 8.74703 13.0117 8.88176 12.8324 9.07708C12.3917 9.5733 11.9816 10.0959 11.6045 10.642C11.0748 11.3643 10.497 12.2311 9.87098 13.1942C9.24498 14.1572 8.57081 15.1685 7.87258 16.252C7.17435 17.3355 6.52427 18.3948 5.92234 19.4061C5.32042 20.4173 4.74256 21.3563 4.26102 22.199C3.77948 23.0417 3.41833 23.6917 3.17756 24.1733C3.1556 24.186 3.13069 24.1927 3.10533 24.1927C3.07998 24.1927 3.05505 24.186 3.03309 24.1733H2.62378H1.78109H1.17916C0.842723 24.3518 0.534441 24.5791 0.264242 24.8475H0.0957031C0.0957031 24.8475 0.0957031 24.8475 0.0957031 24.7272C2.50341 21.5008 4.59811 18.6356 6.25942 16.1075C7.92074 13.5794 9.36537 11.2921 10.5933 9.17334C10.5933 8.98072 10.5933 8.86028 10.5933 8.81212C10.5933 8.76397 10.4729 8.81212 10.3525 8.81212C9.53561 8.8607 8.72737 9.00631 7.94481 9.24564C7.18486 9.47604 6.44422 9.76583 5.72972 10.1124C5.25747 10.366 4.82708 10.6908 4.45364 11.0754C4.04468 11.5309 3.68923 12.0317 3.39425 12.5681Z" fill="#333333"/>
<path d="M28.6766 19.671C28.0215 20.4503 27.2961 21.1676 26.5096 21.8139C25.7481 22.4105 24.9433 22.9497 24.1019 23.427C23.5951 23.7316 23.0535 23.9741 22.4888 24.1493C21.9987 24.311 21.4877 24.4003 20.9719 24.4143H20.4181C20.2159 24.3986 20.0192 24.3412 19.8403 24.2457C19.6744 24.1437 19.5277 24.0132 19.4069 23.8604C19.2835 23.6759 19.2243 23.456 19.2384 23.2345C19.2739 22.7789 19.4052 22.3357 19.6236 21.9343C19.8965 21.4046 20.2095 20.8508 20.5626 20.2729L21.622 18.6116C21.9831 18.0819 22.2721 17.6726 22.4888 17.4078C22.6624 17.175 22.9077 17.0058 23.187 16.9262C23.39 16.8226 23.6104 16.7574 23.8371 16.7337C23.9575 16.7337 24.0297 16.7337 24.0297 16.7337C24.0361 16.8058 24.0361 16.8782 24.0297 16.9503L23.8852 17.167C23.5481 17.6486 23.187 18.1782 22.8258 18.7561C22.4647 19.3339 22.1517 19.8877 21.8627 20.4415C21.5947 20.9218 21.3614 21.4206 21.1645 21.9343C21.0183 22.2787 20.9289 22.6447 20.8997 23.0177C20.8891 23.1358 20.9077 23.2547 20.9539 23.3638C21.0001 23.473 21.0724 23.5692 21.1645 23.6438C21.3642 23.7966 21.6117 23.8733 21.8627 23.8604C22.4734 23.8373 23.0689 23.6637 23.5963 23.3549C24.2643 23.0286 24.901 22.6416 25.4984 22.1991C26.1072 21.756 26.6863 21.2734 27.2319 20.7545C27.6687 20.3479 28.0789 19.9137 28.4599 19.4544C28.4599 19.4544 28.6525 19.2859 28.6766 19.4544C28.6856 19.5263 28.6856 19.5991 28.6766 19.671ZM26.8949 11.6294C26.8566 11.9691 26.701 12.2849 26.4549 12.5222C26.2087 12.7596 25.8875 12.9036 25.5465 12.9295C25.2335 12.9295 25.065 12.785 25.065 12.4961C25.0724 12.1532 25.2101 11.826 25.4502 11.5812C25.5623 11.4409 25.7056 11.3288 25.8686 11.2536C26.0316 11.1784 26.2098 11.1421 26.3892 11.1478C26.4562 11.1359 26.5249 11.1399 26.59 11.1595C26.6551 11.1791 26.7146 11.2138 26.7638 11.2606C26.8131 11.3075 26.8506 11.3653 26.8733 11.4293C26.8961 11.4934 26.9035 11.5619 26.8949 11.6294Z" fill="#333333"/>
<path d="M35.2736 17.1911C35.2158 17.7309 35.0165 18.2459 34.6958 18.6839C34.2896 19.2564 33.8388 19.7957 33.3475 20.297C32.793 20.8693 32.1975 21.4005 31.5658 21.8862C30.9626 22.385 30.3272 22.8433 29.6637 23.2585C29.1056 23.6212 28.5268 23.9509 27.9301 24.2457C27.5489 24.4507 27.1322 24.5813 26.7022 24.6309L26.0762 24.053C26.0762 24.053 26.0762 23.9086 26.2206 24.053C26.7814 24.017 27.3146 23.797 27.7375 23.427C28.2435 22.7887 28.5605 22.0213 28.6524 21.212C28.6524 20.9471 28.6524 20.6341 28.7969 20.3211C28.9414 20.0081 28.7969 19.671 28.9654 19.3821C29.134 19.0932 28.9654 18.8043 29.134 18.5635C29.184 18.3899 29.2484 18.2208 29.3266 18.0579C29.3266 17.7689 29.4711 17.6003 29.3266 17.5281C29.1821 17.4559 29.158 17.5281 28.9413 17.5281L27.7857 17.6967C27.569 17.6967 27.569 17.5282 27.7857 17.4559L29.6637 17.1911C30.2394 17.1225 30.8104 17.0179 31.3731 16.8781C31.3731 16.8781 31.3731 16.8781 31.3731 17.0226L31.012 17.2633C30.8836 17.3795 30.7775 17.5183 30.699 17.6727C30.5572 17.9827 30.4444 18.305 30.3619 18.6357C30.3619 19.0209 30.1933 19.4062 30.1211 19.7674C30.0489 20.1286 29.9526 20.4415 29.8803 20.7545C29.8463 20.9685 29.7898 21.1784 29.7118 21.3805C29.5217 21.8264 29.2525 22.2343 28.9173 22.5844C28.5788 22.9391 28.208 23.2614 27.8097 23.5474C27.8097 23.7159 27.8097 23.7642 27.8097 23.692C28.5822 23.456 29.3254 23.1329 30.0248 22.7288C30.7085 22.3463 31.3397 21.8769 31.9028 21.3323C32.4483 20.7936 32.9107 20.1769 33.2752 19.5024C33.636 18.8211 33.8648 18.0778 33.9494 17.3115C33.9494 16.3725 33.9494 15.7464 33.4678 15.4575C32.9863 15.1686 33.4678 15.4575 33.4678 15.4575H33.7568C33.9753 15.477 34.1872 15.5429 34.3782 15.6509C34.5692 15.7589 34.7349 15.9064 34.8643 16.0835C35.1261 16.3934 35.271 16.7854 35.2736 17.1911Z" fill="#333333"/>
<path d="M44.7347 20.1044C44.2324 20.6614 43.6935 21.1843 43.1216 21.6695C42.4885 22.2204 41.8121 22.7196 41.0991 23.1622C40.3764 23.5862 39.6193 23.9486 38.8358 24.2457C38.0618 24.5156 37.2479 24.6539 36.4281 24.655C35.1761 24.655 34.5742 24.1494 34.5742 23.1381C34.6005 22.3767 34.7893 21.6297 35.128 20.9472C35.5274 20.1619 36.0294 19.4332 36.6208 18.7802C37.2207 18.1417 37.9004 17.5833 38.6432 17.1189C39.2619 16.7187 39.9775 16.4941 40.7139 16.4689C40.9823 16.437 41.2537 16.4962 41.4843 16.6373C41.5621 16.6905 41.625 16.7626 41.6672 16.8469C41.7093 16.9311 41.7292 17.0247 41.7251 17.1189C41.7022 17.4534 41.5945 17.7766 41.4121 18.0579C41.188 18.4328 40.8838 18.7535 40.5212 18.9969C40.0638 19.3392 39.5506 19.5999 39.0044 19.7674C38.3022 19.9813 37.5715 20.0868 36.8374 20.0804C36.6493 20.4002 36.496 20.7392 36.38 21.0916C36.2375 21.56 36.1645 22.0467 36.1633 22.5362C36.1352 22.7356 36.1539 22.9389 36.2177 23.1299C36.2816 23.3209 36.389 23.4943 36.5314 23.6367C36.6738 23.7792 36.8474 23.8866 37.0384 23.9505C37.2293 24.0144 37.4326 24.0329 37.632 24.0049C38.2772 24.0004 38.9152 23.8696 39.51 23.6197C40.1698 23.3496 40.7993 23.0107 41.388 22.6085C41.9974 22.2298 42.5698 21.7944 43.0975 21.3082C43.5533 20.9059 43.9798 20.4714 44.3736 20.0081C44.4029 19.9912 44.4361 19.9823 44.4699 19.9823C44.5037 19.9823 44.5369 19.9912 44.5662 20.0081C44.6008 20.0049 44.6356 20.0124 44.6657 20.0296C44.6959 20.0468 44.72 20.0729 44.7347 20.1044ZM40.5453 17.2874C40.5453 16.9744 40.3768 16.83 40.0397 16.83C39.746 16.8315 39.46 16.924 39.2211 17.0948C38.9195 17.2916 38.6444 17.5263 38.4025 17.7931C38.1348 18.0906 37.8855 18.4041 37.6561 18.732C37.4347 19.0479 37.2336 19.3777 37.0542 19.7192H37.3431H37.6561C38.3981 19.722 39.1162 19.457 39.6785 18.9728C39.9363 18.7713 40.1472 18.5162 40.2969 18.2253C40.4465 17.9343 40.5313 17.6143 40.5453 17.2874Z" fill="#333333"/>
<path d="M52.1502 17.0466C51.9709 17.2379 51.8021 17.4388 51.6446 17.6485C51.476 17.8893 51.3797 18.0818 51.3075 18.2022C51.2867 18.2179 51.2613 18.2263 51.2353 18.2263C51.2092 18.2263 51.1839 18.2179 51.163 18.2022C51.163 18.2022 51.163 18.2022 51.0427 18.2022C50.9842 18.1106 50.911 18.0293 50.826 17.9615C50.7144 17.8571 50.5835 17.7752 50.4407 17.7207C50.2182 17.6765 49.9891 17.6765 49.7666 17.7207C49.3622 17.7337 48.9665 17.8409 48.6109 18.0337C48.2173 18.2348 47.8461 18.4769 47.5033 18.756C47.0162 19.1311 46.5721 19.5592 46.1791 20.0321C45.7939 20.4896 45.4327 20.947 45.0716 21.4526C44.7104 21.9582 44.3974 22.4397 44.0844 22.9694C43.7714 23.4991 43.4343 24.0048 43.0491 24.5345C43.0491 24.5345 43.0491 24.5345 42.8083 24.5345C42.6806 24.4896 42.5651 24.4153 42.4712 24.3177C42.3027 24.1733 42.2305 24.053 42.2305 23.9808C42.2562 23.7436 42.348 23.5183 42.4953 23.3306L43.7955 21.2842L45.0234 19.3579L46.0346 17.793L46.6366 16.8057C46.7569 16.589 46.8532 16.4688 46.9014 16.4688L47.3107 16.6613C47.4056 16.707 47.4854 16.7789 47.5408 16.8685C47.5963 16.958 47.625 17.0616 47.6237 17.1669C47.6028 17.2965 47.5534 17.4197 47.4793 17.528C47.3837 17.7018 47.2792 17.8706 47.1663 18.0337L46.8292 18.5634C46.8292 18.732 46.6366 18.8523 46.5884 18.9245C46.5403 18.9967 46.5884 19.1172 46.5884 19.1172C46.5884 19.1172 46.5884 19.1172 46.8051 19.1172C47.0218 19.1172 47.3829 18.6115 47.7682 18.3226C48.1534 18.0337 48.5627 17.7689 48.972 17.504C49.3769 17.2713 49.7949 17.0622 50.224 16.878C50.5745 16.7278 50.9504 16.646 51.3316 16.6372C51.5415 16.6309 51.7493 16.6807 51.9335 16.7816C52.0539 16.8057 52.1502 16.9262 52.1502 17.0466Z" fill="#333333"/>
<path d="M56.4363 17.793C56.4363 17.793 56.2919 17.9375 56.2437 17.793C56.1431 17.6262 55.9963 17.4919 55.8212 17.4065C55.6461 17.3211 55.45 17.2881 55.2566 17.3114C54.8614 17.3134 54.4727 17.4126 54.1249 17.6003C53.9583 17.6753 53.8172 17.7972 53.7188 17.9511C53.6205 18.1051 53.5692 18.2844 53.5712 18.4671C53.5781 18.6783 53.6542 18.8813 53.7879 19.0449C53.9082 19.2375 54.1009 19.5024 54.3416 19.8154C54.5508 20.093 54.7437 20.3825 54.9195 20.6823C55.1045 20.9428 55.2053 21.2536 55.2084 21.5731C55.23 22.1269 55.0599 22.671 54.7269 23.1139C54.414 23.5037 54.03 23.8306 53.5952 24.0771C53.181 24.3043 52.7344 24.4667 52.271 24.5586C51.9132 24.6243 51.5511 24.6645 51.1875 24.679C49.5744 24.679 48.7798 24.1975 48.5391 23.2103L48.9965 22.9214C49.1348 22.8499 49.2575 22.7517 49.3577 22.6325C49.3577 22.6325 49.3577 22.6325 49.3577 22.777C49.5037 23.212 49.771 23.5962 50.1282 23.8844C50.4867 24.2008 50.9502 24.3724 51.4283 24.366H52.1988C52.4766 24.3371 52.7462 24.2554 52.9933 24.1253C53.2536 23.9889 53.4831 23.8003 53.6675 23.5714C53.8544 23.2771 53.9468 22.9327 53.9323 22.5843C53.9316 22.2849 53.8658 21.9892 53.7397 21.7176L53.3063 20.9951L52.8248 20.2729C52.6629 20.0399 52.5787 19.762 52.584 19.4784C52.6047 19.1397 52.7216 18.8139 52.9211 18.5394C53.1513 18.1837 53.4451 17.8735 53.7879 17.6244C54.1318 17.3417 54.5125 17.1068 54.9195 16.9261C55.2938 16.7402 55.7054 16.6414 56.1233 16.6372C56.5567 16.6372 56.7493 16.6373 56.7493 16.9984L56.5086 17.4077L56.4363 17.793Z" fill="#333333"/>
<path d="M66.0666 19.6708C65.3968 20.4445 64.6639 21.1613 63.8756 21.8137C63.1606 22.4047 62.4042 22.9437 61.6123 23.4268C61.0972 23.7318 60.5476 23.9742 59.9751 24.1491C59.4851 24.3108 58.9741 24.4001 58.4582 24.4141H57.9045C57.7036 24.3915 57.5081 24.3345 57.3266 24.2455C57.1607 24.1435 57.014 24.013 56.8932 23.8602C56.7699 23.6757 56.7106 23.4558 56.7247 23.2343C56.7603 22.7787 56.8915 22.3355 57.1099 21.9341C57.3828 21.4044 57.6958 20.8506 58.0489 20.2727L59.1324 18.6114C59.4935 18.0817 59.7584 17.6724 59.9751 17.4076C60.1544 17.1808 60.3976 17.013 60.6733 16.926C60.8775 16.8252 61.0973 16.7602 61.3234 16.7335C61.4679 16.7335 61.5401 16.7335 61.5401 16.7335C61.5544 16.805 61.5544 16.8786 61.5401 16.9501L61.3956 17.1668C61.0586 17.6484 60.6974 18.178 60.3603 18.7559C60.0232 19.3337 59.6621 19.8875 59.3732 20.4413C59.1051 20.9216 58.8718 21.4204 58.6749 21.9341C58.534 22.279 58.4526 22.6454 58.4342 23.0175C58.4207 23.1336 58.4355 23.2512 58.4775 23.3602C58.5194 23.4693 58.5872 23.5665 58.6749 23.6436C58.8746 23.7964 59.1221 23.8731 59.3732 23.8602C59.9911 23.8352 60.594 23.6618 61.1308 23.3547C61.7879 23.0225 62.4161 22.6358 63.0088 22.1989C63.6176 21.7558 64.1967 21.2732 64.7423 20.7543C65.1792 20.3477 65.5893 19.9135 65.9703 19.4542C66.1147 19.4542 66.187 19.2857 66.187 19.4542C66.1702 19.5371 66.1281 19.6128 66.0666 19.6708ZM64.2608 11.6292C64.2556 11.794 64.2165 11.9559 64.1461 12.105C64.0757 12.2541 63.9754 12.3871 63.8515 12.4959C63.7359 12.6321 63.592 12.7414 63.4298 12.8163C63.2677 12.8911 63.0911 12.9297 62.9125 12.9293C62.5995 12.9293 62.4309 12.7848 62.4309 12.4959C62.4493 12.1554 62.5855 11.832 62.8162 11.581C62.9317 11.4448 63.0756 11.3354 63.2378 11.2606C63.4 11.1857 63.5766 11.1472 63.7552 11.1476C63.8287 11.1083 63.912 11.091 63.9951 11.0979C64.0782 11.1048 64.1575 11.1356 64.2236 11.1864C64.2896 11.2372 64.3396 11.3059 64.3676 11.3845C64.3955 11.463 64.4003 11.548 64.3812 11.6292H64.2608Z" fill="#333333"/>
<path d="M89.7584 0.385041C89.7529 0.470618 89.7285 0.554025 89.6868 0.628986C89.6452 0.703946 89.5874 0.768709 89.5176 0.818557C89.3524 0.990761 89.2432 1.20891 89.2046 1.44444C89.1931 1.51245 89.1577 1.57413 89.1047 1.61828C89.0517 1.66244 88.9847 1.68626 88.9157 1.6853H88.6749H88.386L87.9526 1.54084H87.2062C86.7514 1.5389 86.2982 1.59556 85.8579 1.7094C85.4272 1.80876 85.0134 1.9709 84.63 2.19082C83.7645 2.72243 82.9574 3.34389 82.2223 4.0448C81.3514 4.84573 80.5462 5.71534 79.8146 6.64516C78.0329 9.05287 76.4919 11.0994 75.1436 13.1219C73.7953 15.1444 72.7359 16.926 71.7969 18.5151C71.0207 19.8183 70.3446 21.1786 69.7744 22.5842C69.4142 23.3424 69.1862 24.1567 69.1003 24.9919C69.0862 25.3511 69.1875 25.7054 69.3892 26.0031C69.5074 26.1394 69.6565 26.2455 69.824 26.3125C69.9915 26.3796 70.1727 26.4056 70.3523 26.3884C71.0783 26.3897 71.7892 26.1807 72.3988 25.7864C73.0767 25.3495 73.6992 24.8321 74.2528 24.2455C74.8407 23.6106 75.3724 22.9257 75.8418 22.1988C76.3234 21.4444 76.7327 20.7462 77.0698 20.1041C77.1077 20.0749 77.1543 20.059 77.2022 20.059C77.2501 20.059 77.2967 20.0749 77.3346 20.1041C77.3346 20.1041 77.3346 20.1041 77.3346 20.3931C76.8531 21.2598 76.3475 22.0624 75.8178 22.8008C75.3108 23.5405 74.7387 24.2336 74.1083 24.8715C73.5518 25.4238 72.9194 25.8939 72.2303 26.2679C71.6393 26.5915 70.9779 26.7652 70.3041 26.7735C70.0173 26.7951 69.7291 26.7594 69.4563 26.6685C69.1835 26.5775 68.9315 26.4332 68.715 26.2439C68.5462 26.0635 68.4146 25.8515 68.3279 25.6201C68.2411 25.3887 68.2008 25.1426 68.2094 24.8956C68.2214 24.2535 68.3436 23.6182 68.5706 23.0175C68.9181 22.1933 69.312 21.3895 69.7504 20.6098C69.004 21.4284 68.3539 22.1266 67.8001 22.6804C67.3449 23.1511 66.8538 23.5859 66.3314 23.9807C65.9986 24.2414 65.6346 24.4597 65.2479 24.6306C64.994 24.7612 64.7146 24.8352 64.4293 24.8474C64.2907 24.8649 64.1499 24.8476 64.0196 24.7971C63.8893 24.7467 63.7736 24.6647 63.6829 24.5585C63.5301 24.3588 63.4533 24.1112 63.4662 23.8602C63.4867 23.5684 63.5601 23.2829 63.6829 23.0175C63.8146 22.6466 64.0012 22.2976 64.2367 21.9822C65.1222 20.6273 66.2291 19.4308 67.5112 18.4428C68.825 17.484 70.3548 16.8638 71.9654 16.637C73.2415 14.6146 74.3731 12.8089 75.6251 11.1958C76.815 9.52392 78.0929 7.91652 79.4534 6.38035C80.5053 5.16425 81.6396 4.0218 82.8483 2.9613C83.8758 2.03308 85.0466 1.27697 86.3154 0.722155C87.071 0.369916 87.8898 0.17342 88.7231 0.144329C88.9861 0.100328 89.2546 0.100328 89.5176 0.144329C89.6781 0.192483 89.7584 0.272681 89.7584 0.385041ZM71.6043 16.9742C70.7715 16.9314 69.9418 17.1057 69.1966 17.4798C68.6522 17.8089 68.1644 18.2236 67.752 18.7078C66.9261 19.5886 66.1994 20.5574 65.585 21.5969C65.2578 22.151 65.0449 22.765 64.959 23.4027C64.9566 23.4558 64.9718 23.5083 65.0023 23.5518C65.0328 23.5954 65.0768 23.6277 65.1275 23.6435H65.3683C65.743 23.5506 66.0898 23.3689 66.3796 23.1138C66.9496 22.6609 67.4885 22.1703 67.9927 21.6451C68.651 20.9667 69.27 20.2513 69.8466 19.5022C70.5024 18.7103 71.0904 17.8647 71.6043 16.9742Z" fill="#333333"/>
<path d="M86.0518 20.1044C85.5495 20.6614 85.0106 21.1843 84.4386 21.6695C83.8055 22.2204 83.1292 22.7196 82.4161 23.1622C81.6934 23.5862 80.9364 23.9486 80.1529 24.2457C79.3788 24.5156 78.565 24.6539 77.7452 24.655C76.4932 24.655 75.8672 24.1494 75.8672 23.1381C75.8916 22.3735 76.0892 21.6244 76.445 20.9472C76.8445 20.1619 77.3464 19.4332 77.9378 18.7802C78.5377 18.1417 79.2175 17.5833 79.9603 17.1189C80.5789 16.7187 81.2946 16.4941 82.0309 16.4689C82.2994 16.437 82.5708 16.4962 82.8014 16.6373C82.8717 16.6958 82.9278 16.7696 82.9654 16.853C83.0029 16.9365 83.0209 17.0274 83.0181 17.1189C83.0057 17.4518 82.906 17.7756 82.7292 18.0579C82.4982 18.4275 82.1952 18.7468 81.8383 18.9969C81.3779 19.3345 80.8656 19.5948 80.3215 19.7674C79.6115 19.9837 78.8725 20.0893 78.1304 20.0804C77.9623 20.4069 77.8175 20.7448 77.697 21.0916C77.5468 21.5589 77.4657 22.0455 77.4563 22.5362C77.4273 22.7379 77.4461 22.9437 77.5113 23.1368C77.5765 23.3299 77.6861 23.505 77.8314 23.6479C77.9766 23.7909 78.1535 23.8977 78.3477 23.9598C78.5418 24.0218 78.7478 24.0371 78.9491 24.0049C79.5942 24.0004 80.2323 23.8696 80.8271 23.6197C82.1396 23.0193 83.3437 22.2058 84.3905 21.212C84.8594 20.8156 85.2943 20.3808 85.6906 19.9119C85.7162 19.8971 85.7453 19.8893 85.7749 19.8893C85.8045 19.8893 85.8335 19.8971 85.8592 19.9119C85.8861 19.899 85.9164 19.8948 85.9459 19.8998C85.9753 19.9049 86.0024 19.919 86.0236 19.9401C86.0447 19.9612 86.0587 19.9882 86.0638 20.0177C86.0689 20.0471 86.0647 20.0774 86.0518 20.1044ZM81.8624 17.2874C81.8624 16.9744 81.6938 16.83 81.3568 16.83C81.0631 16.8315 80.7771 16.924 80.5381 17.0948C80.2365 17.2916 79.9614 17.5263 79.7195 17.7931C79.4518 18.0906 79.2026 18.4041 78.9731 18.732C78.7517 19.0479 78.5507 19.3777 78.3712 19.7192H78.6601H78.9731C79.7152 19.722 80.4333 19.457 80.9956 18.9728C81.2489 18.7689 81.4553 18.5129 81.6007 18.2221C81.7461 17.9312 81.8272 17.6124 81.8383 17.2874H81.8624Z" fill="#333333"/>
</g>
<defs>
<clipPath id="clip0_473_4900">
<rect width="89.7592" height="30" fill="white"/>
</clipPath>
</defs>
</svg>
