<?xml version="1.0" encoding="UTF-8"?>
<svg width="150px" height="111px" viewBox="0 0 150 111" version="1.1" xmlns="http://www.w3.org/2000/svg" xmlns:xlink="http://www.w3.org/1999/xlink">
    <!-- Generator: Sketch 58 (84663) - https://sketch.com -->
    <title>Group 80</title>
    <desc>Created with Sketch.</desc>
    <defs>
        <polygon id="path-1" points="0.339237288 0.139067797 6.16635593 0.139067797 6.16635593 7.62711864 0.339237288 7.62711864"></polygon>
        <polygon id="path-3" points="0 110.808475 150 110.808475 150 0 0 0"></polygon>
    </defs>
    <g id="Page-1" stroke="none" stroke-width="1" fill="none" fill-rule="evenodd">
        <g id="Accommodation" transform="translate(-645.000000, -31.000000)">
            <g id="Group-80" transform="translate(645.000000, 31.000000)">
                <path d="M89.7638983,110.653475 L87.5986441,110.653475 C85.5783051,110.653475 83.9325424,109.008559 83.9325424,106.987373 C83.9325424,104.965339 85.5783051,103.320424 87.5986441,103.320424 L89.7638983,103.320424 L89.7638983,103.986525 L87.5986441,103.986525 C85.9444068,103.986525 84.5977966,105.332288 84.5977966,106.987373 C84.5977966,108.640763 85.9444068,109.98822 87.5986441,109.98822 L89.7638983,109.98822 L89.7638983,110.653475 Z" id="Fill-1" fill="#333416"></path>
                <polygon id="Fill-3" fill="#333416" points="113.175254 103.320169 110.371864 108.380339 107.571017 103.320169 106.843051 103.320169 106.843051 110.654068 107.521864 110.654068 107.521864 104.631186 110.06 109.215932 110.683729 109.215932 113.222712 104.631186 113.222712 110.654068 113.900678 110.654068 113.900678 103.320169"></polygon>
                <polygon id="Fill-5" fill="#333416" points="35.7537288 104.07661 38.3367797 104.07661 38.3367797 110.73 39.0155932 110.73 39.0155932 104.07661 41.5808475 104.07661 41.5808475 103.398644 35.7537288 103.398644"></polygon>
                <polygon id="Fill-7" fill="#333416" points="54.4661017 103.398814 53.770339 103.398814 53.770339 110.729322 59.5983051 110.729322 59.5983051 110.053051 54.4661017 110.053051"></polygon>
                <polygon id="Fill-9" fill="#333416" points="23.570678 103.397119 23.570678 106.725085 19.2020339 106.725085 19.2020339 103.397119 18.5232203 103.397119 18.5232203 106.725085 17.5037288 106.725085 17.5037288 107.403051 18.5232203 107.403051 18.5232203 110.731017 19.2020339 110.731017 19.2020339 107.403051 23.570678 107.403051 23.570678 110.731017 24.2494915 110.731017 24.2494915 103.397119"></polygon>
                <polygon id="Fill-11" fill="#333416" points="71.1682203 103.397119 71.1682203 106.725085 66.7978814 106.725085 66.7978814 103.397119 66.1207627 103.397119 66.1207627 106.725085 65.1012712 106.725085 65.1012712 107.403051 66.1207627 107.403051 66.1207627 110.731017 66.7978814 110.731017 66.7978814 107.403051 71.1682203 107.403051 71.1682203 110.731017 71.8444915 110.731017 71.8444915 103.397119"></polygon>
                <g id="Group-15" transform="translate(27.118644, 103.181356)">
                    <mask id="mask-2" fill="white">
                        <use xlink:href="#path-1"></use>
                    </mask>
                    <g id="Clip-14"></g>
                    <path d="M3.25279661,0.836525424 C2.03161017,0.836525424 1.03669492,1.74245763 1.03669492,2.85601695 L1.03669492,4.91110169 C1.03669492,6.0229661 2.03161017,6.92805085 3.25279661,6.92805085 C4.47652542,6.92805085 5.47144068,6.0229661 5.47144068,4.91110169 L5.47144068,2.85601695 C5.47144068,1.74245763 4.47652542,0.836525424 3.25279661,0.836525424 M3.25279661,7.62720339 C1.64771186,7.62720339 0.339237288,6.40771186 0.339237288,4.91110169 L0.339237288,2.85601695 C0.339237288,1.35771186 1.64771186,0.139067797 3.25279661,0.139067797 C4.86211864,0.139067797 6.16635593,1.35771186 6.16635593,2.85601695 L6.16635593,4.91110169 C6.16635593,6.40771186 4.86211864,7.62720339 3.25279661,7.62720339" id="Fill-13" fill="#333416" mask="url(#mask-2)"></path>
                </g>
                <path d="M48.1378814,104.062542 L50.3031356,104.062542 L50.3031356,103.397288 L48.1378814,103.397288 C46.2294068,103.397288 44.6565254,104.86678 44.4887288,106.733729 L43.6700847,106.733729 L43.6700847,107.399831 L44.4887288,107.399831 C44.6582203,109.265085 46.2294068,110.729492 48.1378814,110.729492 L50.3031356,110.729492 L50.3031356,110.065085 L48.1378814,110.065085 C46.5988983,110.065085 45.324322,108.896441 45.1565254,107.399831 L49.7285593,107.399831 L49.7285593,106.733729 L45.1565254,106.733729 C45.3217797,105.234576 46.594661,104.062542 48.1378814,104.062542" id="Fill-16" fill="#333416"></path>
                <path d="M78.2913559,108.399153 C78.2913559,109.311017 77.5489831,110.05339 76.6371186,110.05339 C75.7252542,110.05339 74.9828814,109.311017 74.9828814,108.399153 L74.9828814,107.738136 C74.9828814,106.826271 75.7252542,106.083898 76.6371186,106.083898 C77.5489831,106.083898 78.2913559,106.826271 78.2913559,107.738136 L78.2913559,108.399153 Z M76.6371186,105.40678 C75.3523729,105.40678 74.3040678,106.452542 74.3040678,107.738136 L74.3040678,108.399153 C74.3040678,109.684746 75.3523729,110.731356 76.6371186,110.731356 C77.9218644,110.731356 78.9701695,109.684746 78.9701695,108.399153 L78.9701695,107.738136 C78.9701695,106.452542 77.9218644,105.40678 76.6371186,105.40678 L76.6371186,105.40678 Z" id="Fill-18" fill="#333416"></path>
                <mask id="mask-4" fill="white">
                    <use xlink:href="#path-3"></use>
                </mask>
                <g id="Clip-21"></g>
                <polygon id="Fill-20" fill="#333416" mask="url(#mask-4)" points="92.620339 110.655932 93.2966102 110.655932 93.2966102 103.322881 92.620339 103.322881"></polygon>
                <path d="M123.498729,105.255932 L120.304661,105.255932 L120.304661,110.657627 L120.980932,110.657627 L120.980932,105.933051 L123.498729,105.933051 C123.936017,105.933051 124.291949,106.287288 124.291949,106.723729 L124.291949,110.657627 L124.96822,110.657627 L124.96822,106.723729 C124.96822,105.913559 124.308898,105.255932 123.498729,105.255932" id="Fill-22" fill="#333416" mask="url(#mask-4)"></path>
                <path d="M95.8161017,105.255932 L92.620339,105.255932 L92.620339,110.657627 L93.2966102,110.657627 L93.2966102,105.933051 L95.8161017,105.933051 C96.2533898,105.933051 96.6076271,106.287288 96.6076271,106.723729 L96.6076271,110.657627 L97.2838983,110.657627 L97.2838983,106.723729 C97.2838983,105.913559 96.6262712,105.255932 95.8161017,105.255932" id="Fill-23" fill="#333416" mask="url(#mask-4)"></path>
                <polygon id="Fill-24" fill="#333416" mask="url(#mask-4)" points="127.831356 110.655932 128.510169 110.655932 128.510169 103.322881 127.831356 103.322881"></polygon>
                <path d="M131.026525,105.255932 L127.830763,105.255932 L127.830763,110.657627 L128.509576,110.657627 L128.509576,105.933051 L131.026525,105.933051 C131.463814,105.933051 131.818051,106.287288 131.818051,106.723729 L131.818051,110.657627 L132.496017,110.657627 L132.496017,106.723729 C132.496017,105.913559 131.836695,105.255932 131.026525,105.255932" id="Fill-25" fill="#333416" mask="url(#mask-4)"></path>
                <polygon id="Fill-26" fill="#333416" mask="url(#mask-4)" points="100.148305 104.381356 100.825424 104.381356 100.825424 103.322881 100.148305 103.322881"></polygon>
                <polygon id="Fill-27" fill="#333416" mask="url(#mask-4)" points="100.148305 110.655932 100.825424 110.655932 100.825424 105.255932 100.148305 105.255932"></polygon>
                <polygon id="Fill-28" fill="#333416" mask="url(#mask-4)" points="116.763559 104.381356 117.439831 104.381356 117.439831 103.322881 116.763559 103.322881"></polygon>
                <polygon id="Fill-29" fill="#333416" mask="url(#mask-4)" points="116.763559 110.655932 117.439831 110.655932 117.439831 105.255932 116.763559 105.255932"></polygon>
                <polygon id="Fill-30" fill="#333416" mask="url(#mask-4)" points="80.2933051 84.1373729 85.5695763 84.1373729 85.5695763 97.7238136 86.9517797 97.7238136 86.9517797 84.1373729 92.1941525 84.1373729 92.1941525 82.7526271 80.2933051 82.7526271"></polygon>
                <polygon id="Fill-31" fill="#333416" mask="url(#mask-4)" points="120.811525 82.7527966 119.395424 82.7527966 119.395424 97.7239831 131.293729 97.7239831 131.293729 96.3417797 120.811525 96.3417797"></polygon>
                <path d="M145.588898,84.0868644 L149.999915,84.0868644 L149.999915,82.7529661 L145.588898,82.7529661 C141.704153,82.7529661 138.495678,85.7258475 138.155847,89.575 L136.45839,89.575 L136.45839,90.9063559 L138.155847,90.9063559 C138.499915,94.7555085 141.706695,97.7241525 145.588898,97.7241525 L149.999915,97.7241525 L149.999915,96.3919492 L145.588898,96.3919492 C142.44822,96.3919492 139.831271,94.0114407 139.494831,90.9063559 L148.825339,90.9063559 L148.825339,89.575 L139.494831,89.575 C139.831271,86.4716102 142.44822,84.0868644 145.588898,84.0868644" id="Fill-32" fill="#333416" mask="url(#mask-4)"></path>
                <path d="M109.746525,82.7527966 C109.625339,82.8739831 109.114322,83.5417797 105.30839,88.8739831 L105.116864,89.1231356 L104.927881,88.8739831 C101.121949,83.5417797 100.610932,82.8739831 100.492288,82.7527966 L98.8651695,82.7527966 L104.402458,90.4985593 L104.402458,97.7239831 L105.116864,97.7239831 L105.836356,97.7239831 L105.836356,90.4985593 L111.371102,82.7527966 L109.746525,82.7527966 Z" id="Fill-33" fill="#333416" mask="url(#mask-4)"></path>
                <path d="M12.2442373,86.9114407 C12.2425424,87.0817797 12.2272881,87.2521186 12.1933898,87.4165254 L12.1891525,87.4258475 C11.9349153,88.6648305 10.8408475,89.5987288 9.52983051,89.5987288 L9.46033898,89.5987288 L9.46033898,89.6021186 L3.08067797,89.6021186 L3.08067797,84.145339 L9.46033898,84.145339 L9.52983051,84.145339 C11.0272881,84.145339 12.2425424,85.365678 12.2484746,86.8665254 C12.2484746,86.8809322 12.2442373,86.8936441 12.2442373,86.9114407 M13.260339,85.1588983 C12.7594915,84.0741525 11.8077966,83.2427966 10.6450847,82.9088983 C10.5222034,82.8817797 10.4018644,82.8436441 10.2747458,82.825 C10.2383051,82.8173729 10.2069492,82.8139831 10.1730508,82.8105932 C9.96288136,82.7758475 9.74847458,82.7529661 9.52983051,82.7529661 L9.46033898,82.7529661 L9.46033898,82.7588983 L1.69847458,82.7588983 L1.69847458,89.6021186 L0.000169491525,89.6021186 L0.000169491525,90.9885593 L1.69847458,90.9885593 L1.69847458,97.7283898 L3.08067797,97.7283898 L3.08067797,90.9885593 L9.46033898,90.9885593 L9.46033898,90.9911017 L9.52983051,90.9911017 C9.55525424,90.9911017 9.58322034,90.9885593 9.60610169,90.9885593 C11.2408475,90.954661 12.6433898,89.9648305 13.2747458,88.5529661 C13.5061017,88.0394068 13.6374576,87.4707627 13.6374576,86.8733051 C13.6374576,86.2622881 13.499322,85.6809322 13.260339,85.1588983" id="Fill-34" fill="#333416" mask="url(#mask-4)"></path>
                <path d="M22.6016102,84.1455932 L28.9804237,84.1455932 L29.045678,84.1455932 C30.5431356,84.1455932 31.7626271,85.3650847 31.7651695,86.8667797 C31.7651695,86.8811864 31.7626271,86.8938983 31.7626271,86.9116949 C31.7609322,87.0820339 31.745678,87.2523729 31.7117797,87.4159322 L31.7100847,87.4261017 C31.4533051,88.6650847 30.3566949,89.5989831 29.045678,89.5989831 L28.9804237,89.5989831 L28.9804237,89.6015254 L22.6016102,89.6015254 L22.6016102,84.1455932 Z M29.6821186,90.9811864 L29.6821186,90.9811864 L29.655,90.9388136 C31.0583898,90.7277966 32.2312712,89.8083051 32.7931356,88.5532203 C33.0219492,88.039661 33.1541525,87.4710169 33.1541525,86.8735593 C33.1541525,86.2625424 33.0160169,85.6811864 32.7761864,85.1583051 C32.2778814,84.0744068 31.3278814,83.2430508 30.1634746,82.9091525 C30.0405932,82.8820339 29.9194068,82.8438983 29.7905932,82.8244068 C29.7583898,82.8176271 29.7244915,82.8142373 29.6905932,82.8108475 C29.4812712,82.7761017 29.2668644,82.7523729 29.045678,82.7523729 L28.9804237,82.7523729 L28.9804237,82.7583051 L21.2194068,82.7583051 L21.2194068,89.6015254 L19.5160169,89.6015254 L19.5160169,90.9879661 L21.2194068,90.9879661 L21.2194068,97.7277966 L22.6016102,97.7277966 L22.6016102,90.9879661 L28.0897458,90.9879661 C28.3482203,91.4023729 29.2583898,92.9608475 31.8880508,97.5684746 L32.0363559,97.8244068 L33.2558475,97.2142373 L29.6821186,90.9811864 Z" id="Fill-35" fill="#333416" mask="url(#mask-4)"></path>
                <path d="M46.4520339,84.0099153 C43.9537288,84.0099153 41.9249153,85.8616102 41.9249153,88.1336441 L41.9249153,92.3294068 C41.9249153,94.6022881 43.9537288,96.4497458 46.4520339,96.4497458 C48.9477966,96.4497458 50.9774576,94.6022881 50.9774576,92.3294068 L50.9774576,88.1336441 C50.9774576,85.8616102 48.9477966,84.0099153 46.4520339,84.0099153 M46.4520339,97.8768644 C43.1689831,97.8768644 40.5020339,95.3895763 40.5020339,92.3294068 L40.5020339,88.1336441 C40.5020339,85.0768644 43.1689831,82.5844915 46.4520339,82.5844915 C49.7325424,82.5844915 52.400339,85.0768644 52.400339,88.1336441 L52.400339,92.3294068 C52.400339,95.3895763 49.7325424,97.8768644 46.4520339,97.8768644" id="Fill-36" fill="#333416" mask="url(#mask-4)"></path>
                <path d="M64.9566949,90.9236441 C64.9821186,90.9236441 65.0033051,90.9278814 65.0270339,90.9278814 L68.6575424,90.9278814 C68.6448305,90.9278814 68.6338136,90.9236441 68.6236441,90.9236441 L64.9566949,90.9236441 Z" id="Fill-37" fill="#333416" mask="url(#mask-4)"></path>
                <path d="M68.6911864,89.5514407 C68.6657627,89.5514407 68.6445763,89.5472034 68.6233898,89.5472034 L64.9928814,89.5472034 C65.0030508,89.5472034 65.0166102,89.5514407 65.0267797,89.5514407 L68.6911864,89.5514407 Z" id="Fill-38" fill="#333416" mask="url(#mask-4)"></path>
                <path d="M65.0266102,84.1249153 L72.7588136,84.1249153 L72.7588136,82.7486441 L65.0266102,82.7486441 C62.7452542,82.7486441 60.8918644,84.5977966 60.8918644,86.839322 C60.8918644,87.8664407 61.2833898,88.8308475 61.9283051,89.5469492 C62.6732203,90.3766102 63.7520339,90.9054237 64.9562712,90.9232203 L68.6232203,90.9232203 C68.6342373,90.9232203 68.6444068,90.9274576 68.6571186,90.9274576 C70.1630508,90.9444068 71.3825424,92.1427119 71.3825424,93.609661 C71.3825424,95.0918644 70.1435593,96.3494915 68.6232203,96.3494915 L60.8918644,96.3494915 L60.8918644,97.7240678 L68.6232203,97.7240678 C70.9054237,97.7240678 72.7588136,95.8520339 72.7588136,93.609661 C72.7588136,92.5816949 72.3622034,91.6418644 71.7189831,90.9274576 C70.9749153,90.0986441 69.8961017,89.570678 68.6910169,89.5511864 L65.0266102,89.5511864 C65.0164407,89.5511864 65.0037288,89.5469492 64.9927119,89.5469492 C63.4876271,89.5283051 62.2681356,88.3079661 62.2681356,86.839322 C62.2681356,85.3554237 63.5045763,84.1249153 65.0266102,84.1249153" id="Fill-39" fill="#333416" mask="url(#mask-4)"></path>
                <path d="M75.0061864,1.33813559 C56.1985593,1.33813559 40.8985593,16.6381356 40.8985593,35.4432203 C40.8985593,54.2516949 56.1985593,69.5516949 75.0061864,69.5516949 C93.8036441,69.5516949 109.106186,54.2516949 109.106186,35.4432203 C109.106186,16.6381356 93.8036441,1.33813559 75.0061864,1.33813559 M75.0061864,70.8898305 C55.4604237,70.8898305 39.5604237,54.9898305 39.5604237,35.4432203 C39.5604237,15.9008475 55.4604237,-2.84217094e-14 75.0061864,-2.84217094e-14 C94.5417797,-2.84217094e-14 110.444322,15.9008475 110.444322,35.4432203 C110.444322,54.9898305 94.5417797,70.8898305 75.0061864,70.8898305" id="Fill-40" fill="#333416" mask="url(#mask-4)"></path>
                <path d="M57.3059322,53.1423729 L92.6991525,53.1423729 L92.6991525,17.7466102 L57.3059322,17.7466102 L57.3059322,53.1423729 Z M75.0084746,3.82881356 C57.5474576,3.82881356 43.3923729,17.9830508 43.3923729,35.4432203 C43.3923729,52.9050847 57.5474576,67.0601695 75.0084746,67.0601695 C92.459322,67.0601695 106.612712,52.9050847 106.612712,35.4432203 C106.612712,17.9830508 92.459322,3.82881356 75.0084746,3.82881356 L75.0084746,3.82881356 Z" id="Fill-41" fill="#333416" mask="url(#mask-4)"></path>
                <path d="M68.5616949,20.0202542 L68.5616949,50.8685593 C70.5447458,51.7007627 72.7201695,52.1583898 75.0040678,52.1583898 C77.2879661,52.1583898 79.4642373,51.7007627 81.4472881,50.8685593 L81.4472881,20.0202542 C79.4642373,19.1905932 77.2879661,18.7312712 75.0040678,18.7312712 C72.7201695,18.7312712 70.5447458,19.1905932 68.5616949,20.0202542" id="Fill-42" fill="#333416" mask="url(#mask-4)"></path>
                <path d="M81.9322881,20.2345763 L81.9322881,21.0447458 L83.4865254,21.0447458 C82.9865254,20.7472881 82.4661864,20.4786441 81.9322881,20.2345763" id="Fill-43" fill="#333416" mask="url(#mask-4)"></path>
                <polygon id="Fill-44" fill="#333416" mask="url(#mask-4)" points="65.0228814 31.6627119 68.0771186 31.6627119 68.0771186 25.0694915 65.0228814 25.0694915"></polygon>
                <polygon id="Fill-45" fill="#333416" mask="url(#mask-4)" points="65.0228814 38.7415254 68.0771186 38.7415254 68.0771186 32.1483051 65.0228814 32.1483051"></polygon>
                <path d="M65.0224576,24.5835593 L68.0766949,24.5835593 L68.0766949,20.2344068 C66.9927966,20.7310169 65.9682203,21.3327119 65.0224576,22.0394915 L65.0224576,24.5835593 Z" id="Fill-46" fill="#333416" mask="url(#mask-4)"></path>
                <polygon id="Fill-47" fill="#333416" mask="url(#mask-4)" points="81.9322034 45.8194915 84.9864407 45.8194915 84.9864407 42.7652542 81.9322034 42.7652542"></polygon>
                <polygon id="Fill-48" fill="#333416" mask="url(#mask-4)" points="81.9322034 42.2805085 84.9864407 42.2805085 84.9864407 39.2262712 81.9322034 39.2262712"></polygon>
                <path d="M81.9322881,49.359322 L84.2627966,49.359322 C84.5094068,49.1966102 84.7509322,49.0262712 84.9865254,48.85 L84.9865254,46.3050847 L81.9322881,46.3050847 L81.9322881,49.359322 Z" id="Fill-49" fill="#333416" mask="url(#mask-4)"></path>
                <path d="M81.9322881,50.655339 C82.4661864,50.4112712 82.9865254,50.1417797 83.4865254,49.8451695 L81.9322881,49.8451695 L81.9322881,50.655339 Z" id="Fill-50" fill="#333416" mask="url(#mask-4)"></path>
                <polygon id="Fill-51" fill="#333416" mask="url(#mask-4)" points="65.0228814 45.8194915 68.0771186 45.8194915 68.0771186 39.2271186 65.0228814 39.2271186"></polygon>
                <path d="M64.5371186,48.4705085 L64.5371186,46.3052542 L62.3057627,46.3052542 C62.9828814,47.0942373 63.7286441,47.819661 64.5371186,48.4705085" id="Fill-52" fill="#333416" mask="url(#mask-4)"></path>
                <path d="M60.9974576,31.6628814 L60.9974576,26.3315254 C59.95,27.9383051 59.1720339,29.7357627 58.7262712,31.6628814 L60.9974576,31.6628814 Z" id="Fill-53" fill="#333416" mask="url(#mask-4)"></path>
                <path d="M58.2916102,35.4433051 C58.2916102,36.5738136 58.404322,37.674661 58.6178814,38.7416102 L60.9975424,38.7416102 L60.9975424,32.1475424 L58.6178814,32.1475424 C58.404322,33.2144915 58.2916102,34.315339 58.2916102,35.4433051" id="Fill-54" fill="#333416" mask="url(#mask-4)"></path>
                <path d="M61.4833051,45.2644068 C61.6214407,45.4533898 61.7612712,45.6372881 61.9070339,45.8194915 L64.5375424,45.8194915 L64.5375424,39.2271186 L61.4833051,39.2271186 L61.4833051,45.2644068 Z" id="Fill-55" fill="#333416" mask="url(#mask-4)"></path>
                <path d="M60.9974576,44.5584746 L60.9974576,39.2271186 L58.7262712,39.2271186 C59.1720339,41.1542373 59.95,42.9508475 60.9974576,44.5584746" id="Fill-56" fill="#333416" mask="url(#mask-4)"></path>
                <polygon id="Fill-57" fill="#333416" mask="url(#mask-4)" points="81.9322034 38.7415254 84.9864407 38.7415254 84.9864407 35.6872881 81.9322034 35.6872881"></polygon>
                <polygon id="Fill-58" fill="#333416" mask="url(#mask-4)" points="61.4830508 38.7415254 64.5372881 38.7415254 64.5372881 32.1483051 61.4830508 32.1483051"></polygon>
                <path d="M65.0224576,48.850339 C65.9682203,49.5562712 66.9927966,50.1588136 68.0766949,50.6554237 L68.0766949,46.3054237 L65.0224576,46.3054237 L65.0224576,48.850339 Z" id="Fill-59" fill="#333416" mask="url(#mask-4)"></path>
                <path d="M62.3059322,24.5835593 L64.5372881,24.5835593 L64.5372881,22.4183051 C63.7288136,23.07 62.9822034,23.7945763 62.3059322,24.5835593" id="Fill-60" fill="#333416" mask="url(#mask-4)"></path>
                <path d="M61.4833051,25.6255085 L61.4833051,31.6627966 L64.5375424,31.6627966 L64.5375424,25.0695763 L61.9070339,25.0695763 C61.7612712,25.2526271 61.6214407,25.4365254 61.4833051,25.6255085" id="Fill-61" fill="#333416" mask="url(#mask-4)"></path>
                <path d="M85.4715254,45.819661 L88.1028814,45.819661 C88.2477966,45.6374576 88.389322,45.4527119 88.5257627,45.2645763 L88.5257627,42.7654237 L85.4715254,42.7654237 L85.4715254,45.819661 Z" id="Fill-62" fill="#333416" mask="url(#mask-4)"></path>
                <path d="M89.0111864,44.5584746 C89.3866102,43.9855932 89.7298305,43.3872881 90.0315254,42.7661017 L89.0111864,42.7661017 L89.0111864,44.5584746 Z" id="Fill-63" fill="#333416" mask="url(#mask-4)"></path>
                <path d="M89.0111864,42.2809322 L90.2561017,42.2809322 C90.6925424,41.3097458 91.0383051,40.2868644 91.2840678,39.2266949 L89.0111864,39.2266949 L89.0111864,42.2809322 Z" id="Fill-64" fill="#333416" mask="url(#mask-4)"></path>
                <path d="M85.4715254,25.0694068 L85.4715254,28.1236441 L88.5257627,28.1236441 L88.5257627,25.625339 C88.389322,25.4372034 88.2477966,25.2524576 88.1028814,25.0694068 L85.4715254,25.0694068 Z" id="Fill-65" fill="#333416" mask="url(#mask-4)"></path>
                <polygon id="Fill-66" fill="#333416" mask="url(#mask-4)" points="85.4711864 31.6627119 88.5254237 31.6627119 88.5254237 28.6084746 85.4711864 28.6084746"></polygon>
                <path d="M89.0111864,38.7412712 L91.3925424,38.7412712 C91.5891525,37.7531356 91.6976271,36.7311017 91.7128814,35.6870339 L89.0111864,35.6870339 L89.0111864,38.7412712 Z" id="Fill-67" fill="#333416" mask="url(#mask-4)"></path>
                <path d="M89.0111864,35.2016102 L91.7128814,35.2016102 C91.6976271,34.1592373 91.5891525,33.1363559 91.3925424,32.1473729 L89.0111864,32.1473729 L89.0111864,35.2016102 Z" id="Fill-68" fill="#333416" mask="url(#mask-4)"></path>
                <polygon id="Fill-69" fill="#333416" mask="url(#mask-4)" points="81.9322034 35.2016949 84.9864407 35.2016949 84.9864407 32.1474576 81.9322034 32.1474576"></polygon>
                <path d="M89.0111864,28.1232203 L90.0315254,28.1232203 C89.7298305,27.5020339 89.3866102,26.9045763 89.0111864,26.3316949 L89.0111864,28.1232203 Z" id="Fill-70" fill="#333416" mask="url(#mask-4)"></path>
                <path d="M89.0111864,31.6628814 L91.2840678,31.6628814 C91.0383051,30.6027119 90.6925424,29.5798305 90.2561017,28.6086441 L89.0111864,28.6086441 L89.0111864,31.6628814 Z" id="Fill-71" fill="#333416" mask="url(#mask-4)"></path>
                <polygon id="Fill-72" fill="#333416" mask="url(#mask-4)" points="81.9322034 28.1228814 84.9864407 28.1228814 84.9864407 25.0686441 81.9322034 25.0686441"></polygon>
                <polygon id="Fill-73" fill="#333416" mask="url(#mask-4)" points="85.4711864 35.2016949 88.5254237 35.2016949 88.5254237 32.1474576 85.4711864 32.1474576"></polygon>
                <polygon id="Fill-74" fill="#333416" mask="url(#mask-4)" points="81.9322034 31.6627119 84.9864407 31.6627119 84.9864407 28.6084746 81.9322034 28.6084746"></polygon>
                <path d="M85.4715254,22.4186441 L85.4715254,24.5838983 L87.7028814,24.5838983 C87.0283051,23.7949153 86.2816949,23.070339 85.4715254,22.4186441" id="Fill-75" fill="#333416" mask="url(#mask-4)"></path>
                <path d="M81.9322881,21.5305932 L81.9322881,24.5839831 L84.9865254,24.5839831 L84.9865254,22.0399153 C84.7509322,21.8636441 84.5094068,21.6933051 84.2627966,21.5305932 L81.9322881,21.5305932 Z" id="Fill-76" fill="#333416" mask="url(#mask-4)"></path>
                <path d="M85.4715254,48.4705085 C86.2816949,47.819661 87.0283051,47.0942373 87.7028814,46.3052542 L85.4715254,46.3052542 L85.4715254,48.4705085 Z" id="Fill-77" fill="#333416" mask="url(#mask-4)"></path>
                <polygon id="Fill-78" fill="#333416" mask="url(#mask-4)" points="85.4711864 38.7415254 88.5254237 38.7415254 88.5254237 35.6872881 85.4711864 35.6872881"></polygon>
                <polygon id="Fill-79" fill="#333416" mask="url(#mask-4)" points="85.4711864 42.2805085 88.5254237 42.2805085 88.5254237 39.2262712 85.4711864 39.2262712"></polygon>
            </g>
        </g>
    </g>
</svg>