<svg xmlns="http://www.w3.org/2000/svg" viewBox="0 0 177 130.75"><defs><style>.cls-1{fill:#fff;}</style></defs><title>logo_white</title><g id="Layer_2" data-name="Layer 2"><g id="Layer_1-2" data-name="Layer 1"><path class="cls-1" d="M105.92,130.57h-2.55a4.33,4.33,0,1,1,0-8.65h2.55v.78h-2.55a3.55,3.55,0,0,0,0,7.09h2.55Z"/><polygon class="cls-1" points="133.55 121.92 130.24 127.89 126.93 121.92 126.08 121.92 126.08 130.57 126.88 130.57 126.88 123.47 129.87 128.88 130.61 128.88 133.6 123.47 133.6 130.57 134.4 130.57 134.4 121.92 133.55 121.92"/><polygon class="cls-1" points="42.19 122.81 45.24 122.81 45.24 130.66 46.04 130.66 46.04 122.81 49.07 122.81 49.07 122.01 42.19 122.01 42.19 122.81"/><polygon class="cls-1" points="64.27 122.01 63.45 122.01 63.45 130.66 70.33 130.66 70.33 129.86 64.27 129.86 64.27 122.01"/><polygon class="cls-1" points="27.81 122.01 27.81 125.94 22.66 125.94 22.66 122.01 21.86 122.01 21.86 125.94 20.65 125.94 20.65 126.74 21.86 126.74 21.86 130.66 22.66 130.66 22.66 126.74 27.81 126.74 27.81 130.66 28.61 130.66 28.61 122.01 27.81 122.01"/><polygon class="cls-1" points="83.98 122.01 83.98 125.94 78.82 125.94 78.82 122.01 78.02 122.01 78.02 125.94 76.82 125.94 76.82 126.74 78.02 126.74 78.02 130.66 78.82 130.66 78.82 126.74 83.98 126.74 83.98 130.66 84.78 130.66 84.78 122.01 83.98 122.01"/><path class="cls-1" d="M35.84,130.75a3.32,3.32,0,0,1-3.44-3.2v-2.43a3.45,3.45,0,0,1,6.88,0v2.43A3.32,3.32,0,0,1,35.84,130.75Zm0-8a2.52,2.52,0,0,0-2.62,2.38v2.43a2.63,2.63,0,0,0,5.24,0v-2.43A2.52,2.52,0,0,0,35.84,122.74Z"/><path class="cls-1" d="M56.8,122.79h2.56V122H56.8A4.32,4.32,0,0,0,52.5,126h-1v.78h1a4.33,4.33,0,0,0,4.3,3.93h2.56v-.78H56.8a3.56,3.56,0,0,1-3.52-3.15h5.4V126h-5.4A3.56,3.56,0,0,1,56.8,122.79Z"/><path class="cls-1" d="M90.43,124.38a2.75,2.75,0,0,0-2.75,2.75v.78a2.75,2.75,0,0,0,5.5,0v-.78A2.75,2.75,0,0,0,90.43,124.38Zm1.95,3.53a2,2,0,0,1-3.9,0v-.78a2,2,0,1,1,3.9,0Z"/><rect class="cls-1" x="109.29" y="121.92" width="0.8" height="8.65"/><path class="cls-1" d="M145.73,124.2H142v6.38h.8V125h3a.93.93,0,0,1,.93.93v4.65h.8v-4.65A1.74,1.74,0,0,0,145.73,124.2Z"/><path class="cls-1" d="M113.06,124.2h-3.77v6.38h.8V125h3a.94.94,0,0,1,.94.93v4.65h.79v-4.65A1.73,1.73,0,0,0,113.06,124.2Z"/><rect class="cls-1" x="150.84" y="121.92" width="0.8" height="8.65"/><path class="cls-1" d="M154.61,124.2h-3.77v6.38h.8V125h3a.93.93,0,0,1,.93.93v4.65h.81v-4.65A1.74,1.74,0,0,0,154.61,124.2Z"/><rect class="cls-1" x="118.18" y="121.92" width="0.8" height="1.25"/><rect class="cls-1" x="118.18" y="124.2" width="0.8" height="6.37"/><rect class="cls-1" x="137.78" y="121.92" width="0.8" height="1.25"/><rect class="cls-1" x="137.78" y="124.2" width="0.8" height="6.37"/><polygon class="cls-1" points="94.75 99.28 100.97 99.28 100.97 115.31 102.6 115.31 102.6 99.28 108.79 99.28 108.79 97.65 94.75 97.65 94.75 99.28"/><polygon class="cls-1" points="142.56 97.65 140.89 97.65 140.89 115.31 154.93 115.31 154.93 113.68 142.56 113.68 142.56 97.65"/><path class="cls-1" d="M171.8,99.22H177V97.65h-5.2a8.81,8.81,0,0,0-8.78,8h-2v1.57h2a8.81,8.81,0,0,0,8.78,8H177v-1.57h-5.2a7.25,7.25,0,0,1-7.2-6.47h11V105.7h-11A7.26,7.26,0,0,1,171.8,99.22Z"/><path class="cls-1" d="M129.5,97.65c-.14.14-.74.93-5.24,7.22l-.22.3-.22-.3c-4.5-6.29-5.1-7.08-5.24-7.22h-1.92l6.53,9.14v8.52h1.7v-8.52l6.53-9.14Z"/><path class="cls-1" d="M15.65,100.49a4.93,4.93,0,0,0-3.09-2.66l-.44-.1H12a4.65,4.65,0,0,0-.75-.07H2v8.07H0v1.64H2v7.95H3.64v-7.95h7.7a4.85,4.85,0,0,0,4.32-2.88,4.66,4.66,0,0,0,.43-2A4.85,4.85,0,0,0,15.65,100.49Zm-1.2,2.07a2.88,2.88,0,0,1-.06.59h0a3.2,3.2,0,0,1-3.13,2.57H3.64V99.29h7.61a3.21,3.21,0,0,1,3.2,3.21Z"/><path class="cls-1" d="M35,107.36h0l0,0a4.88,4.88,0,0,0,3.71-2.82,4.87,4.87,0,0,0,0-4,4.91,4.91,0,0,0-3.09-2.66l-.44-.1H35a4.9,4.9,0,0,0-.77-.07H25v8.07H23v1.64h2v7.95h1.63v-7.95h6.48c.3.48,1.37,2.32,4.48,7.76l.17.3,1.44-.72Zm-8.36-8.07h7.6a3.21,3.21,0,0,1,3.21,3.21v.06a2.88,2.88,0,0,1-.06.59h0a3.23,3.23,0,0,1-3.15,2.57h-7.6Z"/><path class="cls-1" d="M54.81,115.5a6.81,6.81,0,0,1-7-6.55v-5a7,7,0,0,1,14,0v5A6.81,6.81,0,0,1,54.81,115.5Zm0-16.37A5.13,5.13,0,0,0,49.47,104v5a5.36,5.36,0,0,0,10.68,0v-5A5.13,5.13,0,0,0,54.81,99.13Z"/><path class="cls-1" d="M76.65,107.29h0Z"/><path class="cls-1" d="M81.06,105.67h0Z"/><path class="cls-1" d="M76.73,99.27h9.13V97.64H76.73a4.88,4.88,0,0,0-4.88,4.83,4.78,4.78,0,0,0,1.23,3.2,4.89,4.89,0,0,0,3.57,1.62H81a3.21,3.21,0,0,1,3.21,3.16A3.27,3.27,0,0,1,81,113.69H71.85v1.62H81a4.89,4.89,0,0,0,4.88-4.85,4.71,4.71,0,0,0-1.23-3.16,4.88,4.88,0,0,0-3.57-1.63H76.69a3.2,3.2,0,1,1,0-6.4Z"/><path class="cls-1" d="M88.51,83.65a41.83,41.83,0,1,1,41.81-41.83A41.87,41.87,0,0,1,88.51,83.65Zm0-82.07a40.25,40.25,0,1,0,40.24,40.24A40.29,40.29,0,0,0,88.51,1.58Z"/><path class="cls-1" d="M88.51,4.52a37.31,37.31,0,1,0,37.29,37.3A37.31,37.31,0,0,0,88.51,4.52Zm20.87,58.19H67.62V20.94h41.76Z"/><path class="cls-1" d="M80.9,23.62V60a19.79,19.79,0,0,0,15.21,0V23.62a19.79,19.79,0,0,0-15.21,0Z"/><path class="cls-1" d="M96.68,23.88v.95h1.83A17.61,17.61,0,0,0,96.68,23.88Z"/><rect class="cls-1" x="76.73" y="29.58" width="3.6" height="7.78"/><rect class="cls-1" x="76.73" y="37.94" width="3.6" height="7.78"/><path class="cls-1" d="M76.73,29h3.6V23.88A18.85,18.85,0,0,0,76.73,26Z"/><rect class="cls-1" x="96.68" y="50.46" width="3.6" height="3.6"/><rect class="cls-1" x="96.68" y="46.29" width="3.6" height="3.6"/><path class="cls-1" d="M96.68,58.24h2.75c.29-.19.58-.39.85-.6v-3h-3.6Z"/><path class="cls-1" d="M96.68,59.77a17.61,17.61,0,0,0,1.83-1H96.68Z"/><rect class="cls-1" x="76.73" y="46.29" width="3.6" height="7.78"/><path class="cls-1" d="M76.15,57.2V54.64H73.52A20.52,20.52,0,0,0,76.15,57.2Z"/><path class="cls-1" d="M72,37.36V31.07a19.45,19.45,0,0,0-2.68,6.29Z"/><path class="cls-1" d="M68.78,41.82a20,20,0,0,0,.39,3.9H72V37.94H69.17A19.79,19.79,0,0,0,68.78,41.82Z"/><path class="cls-1" d="M72.55,53.41l.5.66h3.1V46.29h-3.6Z"/><path class="cls-1" d="M72,52.58V46.29H69.3A19.45,19.45,0,0,0,72,52.58Z"/><rect class="cls-1" x="96.68" y="42.11" width="3.6" height="3.6"/><rect class="cls-1" x="72.55" y="37.94" width="3.6" height="7.78"/><path class="cls-1" d="M76.73,57.64a18.85,18.85,0,0,0,3.6,2.13V54.64h-3.6Z"/><path class="cls-1" d="M73.52,29h2.63V26.45A20.52,20.52,0,0,0,73.52,29Z"/><path class="cls-1" d="M72.55,30.24v7.12h3.6V29.58h-3.1Z"/><path class="cls-1" d="M100.86,54.07H104l.5-.66V50.46h-3.6Z"/><path class="cls-1" d="M105,52.58a18.43,18.43,0,0,0,1.21-2.12H105Z"/><path class="cls-1" d="M105,49.89h1.47a19.07,19.07,0,0,0,1.22-3.6H105Z"/><path class="cls-1" d="M100.86,29.58v3.61h3.6V30.24l-.5-.66Z"/><rect class="cls-1" x="100.86" y="33.76" width="3.6" height="3.6"/><path class="cls-1" d="M105,45.72h2.81a19.56,19.56,0,0,0,.38-3.61H105Z"/><path class="cls-1" d="M105,41.54h3.19a19.36,19.36,0,0,0-.38-3.6H105Z"/><rect class="cls-1" x="96.68" y="37.94" width="3.6" height="3.6"/><path class="cls-1" d="M105,33.19h1.21A18.43,18.43,0,0,0,105,31.07Z"/><path class="cls-1" d="M105,37.36h2.69a19.07,19.07,0,0,0-1.22-3.6H105Z"/><rect class="cls-1" x="96.68" y="29.58" width="3.6" height="3.6"/><rect class="cls-1" x="100.86" y="37.94" width="3.6" height="3.6"/><rect class="cls-1" x="96.68" y="33.76" width="3.6" height="3.6"/><path class="cls-1" d="M100.86,26.45V29h2.63A20.52,20.52,0,0,0,100.86,26.45Z"/><path class="cls-1" d="M96.68,25.41V29h3.6V26c-.27-.21-.56-.41-.85-.6Z"/><path class="cls-1" d="M100.86,57.2a20.52,20.52,0,0,0,2.63-2.56h-2.63Z"/><rect class="cls-1" x="100.86" y="42.11" width="3.6" height="3.6"/><rect class="cls-1" x="100.86" y="46.29" width="3.6" height="3.6"/></g></g></svg>