<?xml version="1.0" encoding="UTF-8"?><svg id="a" xmlns="http://www.w3.org/2000/svg" viewBox="0 0 53.19 39.58"><defs><style>.b{fill:#1a1a1a;}</style></defs><path class="b" d="M6.75,39.58c-2.59,0-3.31-1.57-3.31-3.25,0-.96,.06-1.14,.96-3.37,.06-.24,.42-1.69,.54-2.11,1.2-5.18,3.37-7.05,5.6-8.92,2.71-2.29,4.1-4.28,5.12-8.01,.78-2.71,.78-4.64,.78-4.82,0-.48-.12-1.75-.72-1.75-.24,0-1.99,.6-1.99,2.17,0,.48,0,.6,.3,1.33,.3,.84,.42,1.57,.42,1.99,0,4.34-8.8,5.78-11.51,5.78s-2.95-1.57-2.95-3.73c0-3.01,.72-7.05,5.18-9.76C11.69,1.21,21.45,0,26.57,0c4.76,0,14.58,1.15,21.39,5.12,3.86,2.29,5.24,5.9,5.24,9.64,0,2.41-.48,3.86-3.07,3.86s-11.45-1.45-11.45-5.78c0-.54,.72-2.83,.72-3.31,0-1.51-1.75-2.17-2.05-2.17-.48,0-.66,1.14-.66,1.75,0,.42,.18,6.81,4.16,11.21,.66,.72,3.98,3.55,4.52,4.22,1.81,2.29,2.35,4.58,3.31,8.19,.06,.12,.6,1.63,.72,1.87,.18,.48,.3,1.02,.3,1.69,0,1.57-.54,3.31-3.31,3.31H6.75Zm9.52-14.58c0,5.72,4.64,10.3,10.3,10.3s10.3-4.64,10.3-10.3-4.64-10.3-10.3-10.3-10.3,4.52-10.3,10.3ZM24.58,7.41c-.3,0-1.63-.24-1.93-.24-.96,0-1.14,.96-1.14,1.63,0,1.39,.48,1.69,5.06,1.69s5.06-.3,5.06-1.81c0-.54-.18-1.51-1.14-1.51-.06,0-1.27,.18-1.39,.18-.84,.12-1.57,.18-2.53,.18s-1.45-.06-1.99-.12Z"/></svg>