<?xml version="1.0" encoding="UTF-8"?><svg id="a" xmlns="http://www.w3.org/2000/svg" viewBox="0 0 57.09 32.3"><defs><style>.b{fill-rule:evenodd;}</style></defs><path class="b" d="M42.87,7.73c-4.31-1.76-9.44-2.67-14.32-2.67s-10.02,.9-14.32,2.67C10.02,5.96,4.89,5.06,0,5.06V0H57.09V5.06c-4.89,0-10.02,.9-14.22,2.67ZM0,32.3V7.77c3.68,0,7.45,.68,10.74,1.76-3.68,2.21-6.34,5.28-6.34,9.08,0,7.23,7.16,9.08,9.87,9.08s9.87-1.85,9.87-9.08c0-3.8-2.71-6.87-6.39-9.08,3.34-1.13,7.12-1.76,10.79-1.76s7.45,.63,10.79,1.76c-3.68,2.21-6.38,5.28-6.38,9.08,0,7.23,7.16,9.08,9.87,9.08s9.87-1.85,9.87-9.08c0-3.8-2.66-6.87-6.34-9.08,3.29-1.08,7.07-1.76,10.74-1.76v24.53H0Zm7.31-13.69c0-2.94,2.71-5.69,6.97-7.73,4.3,1.99,6.97,4.79,6.97,7.73,0,4.97-5.08,6.37-6.97,6.37s-6.97-1.4-6.97-6.37Zm35.51-7.73c4.26,2.03,6.97,4.79,6.97,7.73,0,4.97-5.08,6.37-6.97,6.37s-6.97-1.4-6.97-6.37c0-2.94,2.66-5.74,6.97-7.73Z"/></svg>