<?xml version="1.0" encoding="UTF-8"?><svg id="Layer_2" xmlns="http://www.w3.org/2000/svg" viewBox="0 0 518.04 41.21"><defs><style>.cls-1{fill:#3d3d3d;}</style></defs><g id="Layer_2-2"><g><path class="cls-1" d="M19.75,31.2c0,4.86-4.18,8.19-9.85,8.19S0,36.6,0,31.56c0-3.73,2.47-6.16,7.2-8.5C2.88,20.77,1.08,17.84,1.08,14.47c0-5,3.96-8.05,8.91-8.05s8.24,3.1,8.24,7.56c0,2.47-1.44,5.35-5.99,7.92,5.22,2.47,7.51,5.08,7.51,9.31h0Zm-3.42,.3c0-2.97-1.84-5.04-7.65-7.74-3.55,2.12-5.31,4.05-5.31,7.42,0,3.83,2.61,6.43,6.61,6.43s6.34-2.61,6.34-6.12h.01Zm-5.58-10.29c3.19-2.21,4.45-4.23,4.45-7.16,0-3.19-1.89-5.8-5.31-5.8-2.97,0-5.58,2.03-5.58,5.31,0,2.75,1.35,5.27,6.44,7.65Z"/><path class="cls-1" d="M26.54,31.26c1.9,8.98-3.48,8.03-1.93,5.63,.88-1.04,1.39-3.07,1.42-5.63h.51Zm12.65-3.04c-.22,.25-.6,.38-1.23,.47-.32,6.23-1.14,9.45-2.4,10.53-.73,.66-1.74,.92-2.81,.92,0-.51-.09-1.01-.41-1.3-.32-.28-1.17-.51-1.99-.66v-.54c.95,.06,2.43,.19,3,.19,.51,0,.76-.06,1.04-.28,.79-.7,1.42-3.64,1.74-9.07h-7.94v1.01c0,.16-.6,.66-1.55,.66h-.28V13.55l2.24,.95h6.7l1.39-1.64s1.55,1.17,2.53,2.09c-.09,.35-.38,.51-.82,.51h-5.34v3.35h2.18l1.17-1.55s1.45,1.14,2.28,1.96c-.06,.35-.38,.51-.79,.51h-4.84v3.42h2.05l1.2-1.52s1.42,1.11,2.28,1.96c-.09,.35-.38,.51-.79,.51h-4.74v3.48h2.78l1.11-1.17,2.25,1.83v-.02Zm-10.79,2.72c3.04,4.05,1.11,7.43-.19,5.85,.35-1.83,.09-4.21-.29-5.72l.47-.13h.01Zm-.22-15.49v3.35h3.07v-3.35h-3.07Zm3.07,4.27h-3.07v3.42h3.07v-3.42Zm-3.07,7.84h3.07v-3.48h-3.07v3.48Zm2.09,2.85c4.05,3.1,2.43,6.26,1.04,4.87,0-1.46-.79-3.45-1.46-4.68l.41-.19h.01Zm1.99-.7c4.43,1.55,3.07,4.74,1.58,3.57-.19-1.11-1.11-2.53-1.96-3.32l.38-.25Zm13.03-4.21c1.33,5.88,4.24,11.29,8.79,13.5l-.06,.35c-.79,.16-1.49,.79-1.77,1.83-4.39-3.13-6.51-8.5-7.59-15.68h-1.99c-.13,5.38-.92,11.48-5.63,15.71l-.47-.32c3.67-4.74,4.11-10.78,4.11-16.82V13.54l2.37,1.01h6.92l1.11-1.23,2.5,1.93c-.16,.25-.7,.51-1.3,.6v10.75c-.03,.19-1.08,.66-1.71,.66h-.29v-1.77h-4.99Zm-2.62-.94h7.62V15.48h-7.62v9.07Z"/><path class="cls-1" d="M62.44,19.72c1.67-.5,3.24-.76,5.08-.76,6.21,0,10.44,3.55,10.44,9.9s-4.41,10.53-11.2,10.53c-4.77,0-7.96-2.16-9-6.48,.36-.99,1.12-1.49,2.12-1.49,1.26,0,1.8,.63,2.38,2.75l.9,2.92c1.12,.32,2.16,.5,3.33,.5,5.08,0,7.88-3.24,7.88-8.28s-3.1-8.01-7.88-8.01c-1.67,0-3.33,.22-4.9,.76l-1.26-.27,1.03-14.71h15.79v3.38h-14.04l-.67,9.27h0Z"/><path class="cls-1" d="M90.19,36.1c1.58-.38,3.29-.82,5.03-1.27l.13,.47c-2.69,1.14-6.32,2.69-11.16,4.52-.09,.35-.41,.63-.7,.73l-1.07-2.66c.51-.09,1.17-.22,1.99-.41v-11.13l2.78,.28c-.06,.35-.35,.63-.98,.73v9.71l2.02-.47v-13.63h-1.96v.88c0,.16-.63,.63-1.61,.63h-.32V13.41l2.31,1.01h4.74l1.11-1.2,2.47,1.87c-.22,.25-.73,.51-1.33,.63v7.78c-.06,.16-1.01,.57-1.64,.57h-.28v-1.11h-1.52v4.93h1.23l1.33-1.77s1.52,1.23,2.43,2.18c-.09,.35-.38,.51-.82,.51h-4.17v7.29Zm-3.93-14.07h5.44v-6.67h-5.44v6.67Zm23.05-5.34c-.25,.29-.57,.38-1.33,.41-1.04,2.4-2.47,4.65-4.3,6.67,2.21,1.87,5.03,3.32,8.57,4.27l-.1,.35c-.79,.22-1.45,.73-1.64,1.71-3.42-1.3-5.94-3.04-7.9-5.18-1.58,1.55-3.48,2.97-5.63,4.17l1.9,.76h7.33l1.01-1.2,2.28,1.77c-.22,.22-.47,.41-1.14,.51v9.58c0,.16-.79,.63-1.74,.63h-.32v-2.12h-7.78v1.55c0,.16-.63,.63-1.68,.63h-.32v-11.89c-1.17,.63-2.43,1.17-3.79,1.68l-.32-.47c3.67-1.71,6.77-4.08,9.14-6.86-1.04-1.36-1.9-2.88-2.62-4.52-1.33,1.83-2.81,3.38-4.46,4.52l-.44-.38c2.4-2.47,4.65-6.58,5.91-11.07l3.07,1.08c-.16,.35-.54,.6-1.23,.57-.28,.73-.6,1.42-.95,2.09h4.9l1.36-1.3,2.21,2.05h0Zm-10.78,14.09v7.3h7.78v-7.3h-7.78Zm1.87-13.97c-.32,.57-.66,1.11-.98,1.61,.82,1.52,1.8,2.94,3.04,4.17,1.39-1.8,2.5-3.76,3.32-5.79h-5.38Z"/><path class="cls-1" d="M123.33,13.4c-.16,.35-.54,.57-1.2,.54-1.04,1.68-2.31,3.51-3.48,4.87,2.28,1.86,1.04,4.08-.47,3-.35-1.42-1.71-3.16-2.88-4.17l.32-.25c.98,.28,1.74,.6,2.34,.98,.73-1.71,1.58-4.08,2.24-6.13l3.13,1.17h0Zm-7.97,24.97c.82-2.15,1.55-5.28,1.87-8.22l2.85,.7c-.13,.41-.47,.7-1.11,.7-.73,2.59-1.77,5.31-3.1,7.08l-.51-.25h0Zm7.97-15.63c5.5,3.13,3.57,7.05,1.77,5.44-.06-.54-.19-1.14-.41-1.74-.66,.13-1.39,.28-2.21,.44v13.66c0,.16-.7,.63-1.68,.63h-.28v-13.94c-1.01,.19-2.15,.38-3.35,.57-.22,.41-.51,.6-.82,.66l-.89-2.4c.7,0,1.71-.03,2.94-.06,1.83-3.04,4.05-7.15,5.41-10.12l2.94,1.36c-.19,.32-.63,.54-1.26,.44-1.49,2.31-3.92,5.63-6.2,8.28,1.55-.06,3.32-.13,5.15-.22-.44-1.04-1.01-2.06-1.52-2.81l.41-.19h0Zm.57,7.11c4.9,3.57,2.85,7.4,1.14,5.69,0-1.74-.82-4.05-1.55-5.53l.41-.16Zm10.21,.32c-.25,.29-.54,.35-1.23,.38-1.11,3.57-3.35,6.96-7.4,9.04l-.28-.47c2.97-2.12,4.84-5.38,5.66-8.73h-4.14l-.29-.92h4.33l1.2-1.17,2.15,1.87Zm10.46-1.26c-.13,.25-.57,.47-1.17,.25-.98,.82-2.72,2.09-4.36,3.04,1.68,2.47,3.79,3.98,6.04,5.09l-.06,.38c-.79,.16-1.36,.82-1.68,1.8-3.64-2.69-6.07-6.1-7.21-12.96v11.6c0,1.61-.35,2.75-3,3.07-.03-.6-.19-1.17-.57-1.49-.44-.35-1.2-.63-2.5-.79v-.47s2.91,.22,3.51,.22c.51,0,.63-.16,.63-.6v-12.3h-3.79v.85c0,.19-.66,.6-1.67,.6h-.29V14.89l2.31,1.01h2.24c.25-1.08,.57-2.59,.79-3.67l3.29,.66c-.13,.44-.51,.7-1.14,.7-.51,.66-1.23,1.55-1.83,2.31h6.04l1.01-1.23,2.25,1.77c-.19,.22-.51,.38-1.17,.51v9.42c0,.16-.73,.6-1.68,.6h-.32v-1.2h-3.79c.51,2.4,1.3,4.36,2.28,5.94,1.23-1.42,2.69-3.45,3.35-4.62l2.5,1.83h-.01Zm-14.16-12.13v3.57h9.83v-3.57h-9.83Zm9.83,8.06v-3.57h-9.83v3.57h9.83Z"/><path class="cls-1" d="M162.92,20.13s1.64,1.36,2.66,2.31c-.09,.35-.38,.51-.82,.51h-6.51v2.31c7.9,3.38,6.42,8.16,4.21,6.58-.54-1.93-2.53-4.33-4.21-5.94v14.61c0,.19-.73,.7-1.71,.7h-.35v-14.64c-2.02,3.67-4.81,6.89-8.22,9.45l-.41-.44c3.48-3.32,6.23-8.06,7.87-12.61h-6.67l-.25-.92h7.68v-5.75c-2.43,.47-5.06,.85-7.56,1.07l-.13-.57c4.87-.92,10.65-2.91,13.56-4.52l2.62,2.31c-.29,.29-.89,.29-1.64,0-1.33,.44-3,.89-4.81,1.3v6.17h3.19l1.49-1.9v-.03Zm5.67,13.97c0,.28-.85,.73-1.61,.73h-.38V14.94l3.13,.35c-.09,.44-.38,.76-1.14,.85v17.96Zm8.03-20.9c-.09,.44-.41,.73-1.17,.82v24.03c0,1.74-.38,2.78-3.38,3.1-.13-.66-.32-1.2-.7-1.52-.54-.38-1.39-.63-2.88-.85v-.47s3.45,.28,4.11,.28,.82-.22,.82-.73V12.82l3.19,.38h.01Z"/><path class="cls-1" d="M207.91,15.23c-.22,.29-.79,.57-1.49,.73v22.1c0,1.71-.32,2.75-3.38,3.07-.09-.66-.28-1.23-.73-1.52-.47-.35-1.33-.63-2.81-.82v-.51s3.38,.29,4.08,.29c.6,0,.76-.22,.76-.73v-7.43h-8.13v9.83c0,.16-.66,.66-1.74,.66h-.32v-10.5h-7.9c-.54,3.92-1.96,7.81-5.34,10.75l-.44-.32c3.64-4.68,4.11-10.62,4.11-16.66V13.48l2.43,1.01h17.01l1.11-1.39,2.78,2.12h0Zm-13.75,14.27v-6.64h-7.52v1.3c0,1.71-.03,3.51-.25,5.34h7.77Zm-7.52-14.04v6.45h7.52v-6.45h-7.52Zm9.58,0v6.45h8.13v-6.45h-8.13Zm8.13,14.04v-6.64h-8.13v6.64h8.13Z"/><path class="cls-1" d="M239.15,12.67s1.83,1.39,2.94,2.47c-.06,.35-.35,.51-.79,.51h-4.17v22.29c0,1.68-.41,2.94-3.79,3.26-.06-.66-.35-1.23-.88-1.52-.66-.38-1.64-.66-3.54-.89v-.47s4.39,.32,5.25,.32c.7,0,.92-.25,.92-.82V15.66h-21.69l-.25-.95h24.38l1.64-2.02-.02-.02Zm-9.2,9.11c-.22,.25-.73,.51-1.33,.63v10.69c-.03,.19-1.07,.7-1.77,.7h-.29v-2.43h-7.75v2.97c0,.19-.79,.66-1.64,.66h-.35v-14.86l2.15,.98h7.3l1.11-1.26,2.56,1.93h.01Zm-3.38,8.62v-8.38h-7.75v8.38h7.75Z"/><path class="cls-1" d="M254.91,15.23c7.24,2.81,5.72,7.4,3.51,5.88-.19-.63-.57-1.36-1.01-2.09-2.5,.51-5.82,1.17-10.15,1.93-.16,.41-.47,.6-.79,.66l-1.01-2.56c.92,0,2.24-.06,3.89-.19,.7-2.09,1.42-4.74,1.83-6.7l3.41,.79c-.13,.38-.51,.66-1.14,.66-.73,1.49-1.9,3.48-3.07,5.19,1.96-.1,4.24-.29,6.61-.44-.76-1.07-1.68-2.12-2.47-2.88l.38-.25h.01Zm2.05,6.8l2.66,2.02c-.19,.22-.73,.51-1.33,.6v13.56c0,1.67-.28,2.69-2.88,2.94-.03-.63-.19-1.2-.51-1.52-.38-.35-.95-.6-1.99-.76v-.51s2.21,.19,2.75,.19c.47,0,.6-.16,.6-.6v-4.52h-6.51v6.96c0,.22-.79,.73-1.64,.73h-.32V22.31l2.12,1.01h6.04l1.01-1.3h0Zm-7.21,2.25v3.6h6.51v-3.6h-6.51Zm6.51,8.25v-3.73h-6.51v3.73h6.51Zm8.63-6.77c-2.47,0-2.94-.47-2.94-2.06V12.53l2.97,.35c-.03,.38-.35,.7-.92,.79v5.09c2.72-1.17,5.66-3.07,7.18-4.46l2.5,1.77c-.25,.32-.76,.35-1.52,.16-1.9,1.01-5.15,2.4-8.16,3.16v3.86c0,.51,.09,.66,1.26,.66h3c1.33,0,2.43,0,2.81-.06,.35-.03,.51-.09,.63-.32,.22-.41,.57-1.83,.89-3.32h.41l.09,3.42c.7,.22,.88,.44,.88,.82,0,.98-1.01,1.3-5.82,1.3h-3.26Zm8.5,12.65c.7,.28,.89,.51,.89,.92,0,.95-1.04,1.3-5.94,1.3h-3.38c-2.5,0-3-.51-3-2.15v-11.6l3.04,.35c-.06,.38-.38,.7-.98,.79v5.31c2.81-1.3,5.82-3.38,7.27-4.9l2.69,1.74c-.22,.28-.73,.35-1.49,.19-1.99,1.23-5.31,2.75-8.47,3.64v4.08c0,.51,.13,.66,1.33,.66h3.1c1.36,0,2.47,0,2.91-.03,.35-.03,.51-.13,.6-.38,.25-.44,.6-1.96,.95-3.6h.38l.13,3.7-.03-.02Z"/><path class="cls-1" d="M286.02,14.22c.51-.19,1.26-.38,1.87-.38,.82,0,1.77,.19,2.31,.54,.54,.32,.41,.89-.76,4.93,3.04-.95,3.67-1.71,4.27-1.71,.66,0,1.17,.44,1.17,.95,0,.57-.73,1.01-1.08,1.2-.98,.51-2.88,1.17-5,1.61-1.11,3.41-3.38,9.23-5.98,12.99-.44,.63-.82,1.14-1.42,1.14-.63,0-.92-.66-.92-1.23,0-.51,.16-.98,.57-1.52,1.93-2.56,4.58-6.45,6.01-11.07-.85,.13-1.71,.19-2.5,.19-2.37,0-3.45-.89-4.46-3.13l.57-.44c1.36,1.14,2.06,1.83,4.24,1.83,.92,0,1.9-.16,2.69-.35,.29-1.23,.51-2.59,.57-3.41,.03-.66-.13-.92-.66-1.14-.44-.22-1.04-.38-1.49-.51v-.49Zm11.32,5.44c1.55-.22,3.16-.09,4.36,.38,1.93,.73,2.91,1.96,2.91,3.22,0,.73-.32,1.14-.92,1.14-.73,0-1.26-.51-2.62-.41-1.11,.13-2.24,.51-2.94,1.23-.7,.7-.82,1.71-.79,2.85,.03,.95,.35,2.94,.6,4.84,2.05,.47,3.73,1.39,4.93,2.21,1.52,.98,2.18,1.87,2.18,2.66,0,.63-.28,1.01-.79,1.01-.6,0-.98-.54-1.68-1.17-1.2-1.17-2.66-2.21-4.46-2.88,.03,.47,.06,.89,.06,1.26,0,2.62-1.93,4.14-5.15,4.14s-5.06-1.61-5.06-3.45c0-2.4,2.56-4.17,6.77-4.17,.51,0,.98,.03,1.42,.06-.09-1.39-.25-2.81-.25-4.05,0-1.77,.51-2.94,1.52-3.95,.98-1.04,2.4-1.55,3.51-2.02,.66-.35,.54-.76,0-1.17-.89-.66-2.18-.95-3.64-.95l.03-.79h.01Zm-1.04,14.59c-.85-.16-1.74-.25-2.72-.25-2.88,0-4.39,1.2-4.39,2.34s1.08,1.99,3.38,1.99c3.04,0,3.73-1.52,3.73-3.38v-.7Z"/><path class="cls-1" d="M312.36,16.81c.63,.95,1.08,1.74,1.99,1.74,2.02,0,14.29-1.33,16.12-1.61,.66-.09,.95-.54,1.49-.54,.85,0,3.1,1.93,3.1,2.81,0,.73-1.26,.85-1.96,1.39-1.36,1.01-4.17,3.04-7.05,4.65,0,.16-.03,.32-.09,.51-2.37,6.45-5.66,10.88-12.33,14.29l-.51-.66c6.26-3.83,10.15-11.35,10.15-13.5,0-.95-1.17-1.42-2.56-1.9l.16-.7c.92,0,1.46,0,2.02,.13,1.01,.16,1.9,.47,2.47,.85,2.43-1.71,5-3.86,5.91-5.15,.41-.6,.28-.73-.38-.73-1.52,0-10.5,1.26-14.04,1.96-1.23,.25-1.26,.82-2.02,.82s-2.25-1.26-2.72-2.24c-.25-.54-.32-1.2-.41-1.93l.66-.19h0Z"/><path class="cls-1" d="M346.04,14.38c.57,0,1.2,0,1.9,.13,1.23,.28,2.91,1.23,2.91,1.8,0,.54-.44,.85-.92,1.64-.35,.57-.7,1.17-1.08,1.71,.22,.03,.41,.03,.6,.03,1.52,0,5.41-.44,6.29-.6,.85-.19,1.08-.73,1.61-.73,.76,0,2.75,1.3,2.75,2.12,0,.63-1.04,.82-1.49,1.64-4.33,7.87-10.75,14.38-19.67,18.08l-.47-.7c8.12-4.24,15.55-12.39,18.02-18.65,.16-.38,.03-.47-.25-.47-.7,0-3.92,.51-5.06,.73-.66,.16-1.33,.41-1.77,.41-.35,0-.85-.32-1.36-.76-2.5,3.35-5.66,6.2-9.36,8.22l-.47-.66c4.93-3.54,9.58-9.99,9.58-11.82,0-.54-.82-1.04-1.93-1.52l.16-.6h.01Z"/><path class="cls-1" d="M380.79,29.11c1.99-2.06,3.76-4.3,4.74-6.04,.22-.38,.09-.6-.35-.54-1.74,.28-6.58,1.83-9.42,2.78-.13,2.78-.22,5.75-.19,7.62,.06,2.59,.38,2.85,4.24,2.85,4.39,0,5.85-.7,6.58-.7,.85,0,2.12,.38,2.12,1.2,0,.57-.6,.85-1.45,.98-1.42,.29-4.21,.54-6.29,.54-4.96,0-6.86-.29-6.92-4.46-.06-2.18,.03-5.31,.1-7.4-1.52,.51-3.57,1.23-4.9,1.8-1.14,.51-1.17,.95-2.05,.95-.73,0-2.47-1.3-2.88-2.18-.22-.44-.22-1.08-.19-1.68l.51-.19c.63,.95,1.14,1.58,1.93,1.58,1.11,0,5.47-1.3,7.62-1.96,.06-2.59,.16-5.75,.06-7.02-.06-.79-1.01-.98-2.56-1.2l-.03-.6c.85-.29,1.68-.41,2.34-.41,1.14,0,3.19,1.2,3.19,1.9s-.63,1.11-.76,2.06c-.13,.92-.25,2.69-.38,4.74,2.72-.79,6.73-1.9,8.6-2.43,.92-.25,1.14-.82,1.61-.82,.92,0,3.07,1.71,3.07,2.47,0,.66-.92,.76-1.64,1.49-1.33,1.33-3.57,3.51-6.13,5.22l-.54-.54h-.03Z"/><path class="cls-1" d="M395.44,23.01l.32-.7c1.61,.41,2.78,.76,4.24,1.33,1.93,.79,3.1,1.93,3.1,3.13,0,.51-.32,.98-.92,.98-.98,0-1.49-1.14-3.13-2.37-1.2-.95-2.28-1.68-3.6-2.37h0Zm23.33-1.77l.73,.47c-3.6,6.32-10.28,11.86-17.26,15.71-.63,.38-.98,1.2-1.8,1.2-.98,0-2.97-1.33-3.67-2.34-.38-.51-.66-1.64-.7-2.12l.51-.29c.85,1.01,1.83,2.09,2.91,2.09,2.15,0,13.59-6.83,19.29-14.73h-.01Zm-19.1-4.29l.35-.73c1.2,.32,2.62,.79,3.98,1.36,2.15,1.08,3.1,2.12,3.1,3.22,0,.57-.35,1.04-.92,1.04-.88,0-1.52-1.26-3.19-2.62-1.08-.92-2.4-1.8-3.32-2.28h0Z"/><path class="cls-1" d="M439.77,19.98c.6,.09,1.04,.25,1.49,.54,.85,.6,1.77,1.77,1.77,2.43s-.82,.82-2.02,1.45c-2.25,1.11-6.7,3.16-11.92,4.65-.06,1.9-.1,3.57-.1,4.39,0,3.1,.7,3.32,4.49,3.32,5,0,7.14-1.01,8.22-1.01,1.49,0,2.43,.35,2.43,1.08,0,.63-.44,.92-1.04,1.14-1.3,.38-4.46,.76-9.39,.76-5.66,0-6.48-.95-6.51-5.41-.03-2.81,.35-13.21,.19-14.7-.13-.88-.82-1.07-2.47-1.3l-.03-.57c.73-.19,1.55-.44,2.24-.41,1.3,.06,3.13,1.26,3.13,2.02,0,.6-.6,.73-.7,1.71-.16,1.36-.32,4.68-.44,7.71,4.3-1.52,8.54-3.6,10.56-5.15,.54-.41,.63-.66,.38-1.2-.16-.38-.47-.76-.76-1.04l.47-.41h.01Zm1.93-3.54c1.58,.7,2.75,1.46,3.54,2.21,.73,.76,1.08,1.3,1.04,1.9,0,.54-.38,.92-.85,.85-.47-.03-.76-.76-1.39-1.55-.63-.85-1.49-1.87-2.78-2.88l.44-.54h0Zm2.69-2.36c1.58,.63,2.78,1.3,3.54,1.96,.82,.7,1.11,1.3,1.08,1.96,0,.54-.29,.82-.76,.82-.51-.03-.82-.76-1.49-1.58-.7-.79-1.39-1.58-2.78-2.62l.41-.54Z"/><path class="cls-1" d="M454.35,17.67v-.63c.63-.19,1.3-.35,1.8-.35,1.17,0,3.1,1.14,3.1,1.93,0,.6-.38,.92-.47,2.09-.09,1.36-.03,8.32-.03,9.61,0,1.2-.44,1.58-1.01,1.58-.7,0-1.23-.98-1.23-2.15,0-.85,.25-2.09,.32-4.68,0-1.46-.06-4.55-.19-5.72-.06-.76-.09-1.01-.63-1.23-.47-.22-.98-.32-1.64-.44h-.02Zm3.64,22.85l-.41-.7c6.17-3.26,9.14-7.49,9.52-13.97,.16-2.88,.22-5.56,.09-7.75-.06-.54-.13-.98-.7-1.3-.35-.19-1.08-.32-1.9-.41l-.03-.63c.7-.32,1.58-.6,2.15-.6,1.2,0,3.29,1.23,3.29,1.9s-.54,.85-.6,1.87c-.06,1.87-.19,5.06-.28,7.02-.35,7.33-3.98,11.89-11.13,14.58h0Z"/><path class="cls-1" d="M478.45,22.47c.6,.85,1.23,1.68,2.05,1.68,2.15,0,10.18-1.2,16-1.71,2.21-.22,2.72-.57,3.19-.57,1.3,0,3.1,.7,3.1,1.61,0,.51-.19,.79-.89,.79-.51,0-1.71-.19-3.26-.19-1.42,0-4.08,.06-6.99,.35,.85,.47,1.58,1.04,1.58,1.55,0,.63-.73,.76-1.07,1.71-1.11,3.32-3.13,8.6-10.72,12.77l-.63-.66c7.62-4.96,9.39-12.17,9.39-13.88,0-.44-.16-.82-.54-1.26-2.62,.32-5.56,.79-6.51,1.04-.98,.29-1.8,.63-2.53,.66s-2.15-1.23-2.5-2.12c-.16-.38-.19-.89-.22-1.55l.54-.22h.01Zm4.84-6.67c1.2,.88,2.02,1.23,3.07,1.23,1.93,0,4.11-.38,5.69-.73,1.87-.41,2.28-.92,2.94-.92,1.36,0,2.4,.47,2.4,1.23,0,.47-.35,.76-1.36,.95-2.43,.44-6.86,1.2-9.67,1.2-1.61,0-2.5-.92-3.54-2.56l.47-.41h0Z"/><path class="cls-1" d="M514.12,20.99c.54,0,1.07,0,1.67,.22,1.04,.35,2.25,1.45,2.25,2.18,0,.57-.44,.54-1.11,1.2-.89,.98-2.06,2.28-3.57,3.7,.7,.47,1.23,.88,1.23,1.26,0,.35-.22,.7-.25,1.33-.13,3.45,.03,7.02,.03,8.38,0,.95-.28,1.33-.92,1.33-.92,0-1.42-1.17-1.42-2.12,0-.41,.22-.89,.28-1.71,.22-1.83,.29-5.44,.25-6.51-.03-.41-.09-.7-.25-1.01-1.55,1.33-5,3.98-9.2,5.6l-.32-.57c6.7-3.76,12.52-10.24,12.52-11.54,0-.51-.7-1.01-1.39-1.33l.19-.41h0Z"/><g><path d="M495.1,0l.17,.2c-1.18,.95-2.23,2.41-2.23,4.55s1.06,3.59,2.23,4.55l-.17,.2c-1.37-.87-2.73-2.3-2.73-4.75s1.36-3.88,2.73-4.75Z"/><path d="M500.75,4.45l3.35-3.35,.29,.29-3.35,3.35,3.35,3.35-.29,.29-3.35-3.35-3.36,3.36-.29-.29,3.36-3.36-3.35-3.35,.29-.29,3.35,3.35Zm-2.89,1.06c-.42,0-.76-.35-.76-.76s.35-.76,.76-.76,.76,.34,.76,.76-.35,.76-.76,.76Zm2.13-3.65c0-.42,.35-.76,.76-.76s.76,.34,.76,.76-.35,.76-.76,.76-.76-.34-.76-.76Zm1.52,5.78c0,.42-.35,.76-.76,.76s-.76-.35-.76-.76,.35-.76,.76-.76,.76,.34,.76,.76Zm2.13-3.65c.42,0,.76,.34,.76,.76s-.35,.76-.76,.76-.76-.35-.76-.76,.35-.76,.76-.76Z"/><path d="M511.31,8.24v.36h-4.49v-.36l1.83-.1c0-.68,.02-1.36,.02-2.03V1.56l-1.56,.31v-.4l2.32-.61,.17,.13-.05,1.7v3.4c0,.67,0,1.35,.02,2.03l1.75,.1v.02Z"/><path d="M512.68,0c1.37,.87,2.73,2.3,2.73,4.75s-1.36,3.88-2.73,4.75l-.17-.2c1.18-.95,2.23-2.41,2.23-4.55s-1.06-3.59-2.23-4.55l.17-.2Z"/></g></g></g></svg>