<svg width="19" height="16" viewBox="0 0 19 16" fill="none" xmlns="http://www.w3.org/2000/svg">
<g clip-path="url(#clip0_2514_3464)">
<path fill-rule="evenodd" clip-rule="evenodd" d="M9.49973 7.12558C9.28449 7.12559 9.07438 7.05981 8.89755 6.93707L1.65566 1.51394C1.60418 1.47567 1.56181 1.42647 1.53159 1.36988C1.50138 1.31329 1.48406 1.25072 1.48089 1.18664C1.47772 1.12257 1.48878 1.05859 1.51326 0.999296C1.53774 0.940001 1.57505 0.886861 1.6225 0.84369C2.10359 0.397657 2.7346 0.148491 3.39064 0.145508H15.6088C16.2649 0.148491 16.8959 0.397657 17.377 0.84369C17.4223 0.887143 17.4578 0.939845 17.481 0.998222C17.5043 1.0566 17.5146 1.11929 17.5115 1.18203C17.5084 1.24477 17.4917 1.30611 17.4628 1.36187C17.4339 1.41763 17.3933 1.46652 17.3438 1.50522L10.1019 6.93707C9.92509 7.05981 9.71498 7.12559 9.49973 7.12558ZM9.49973 8.87104C10.0932 8.87104 10.6692 8.68078 11.1474 8.33169L17.5288 3.5474C17.5937 3.49878 17.6707 3.46917 17.7515 3.46189C17.8322 3.45461 17.9133 3.46995 17.9858 3.50619C18.0583 3.54244 18.1192 3.59814 18.1618 3.66708C18.2044 3.73601 18.227 3.81545 18.227 3.89649V13.2364C18.227 13.9308 17.9512 14.5967 17.4602 15.0878C16.9692 15.5788 16.3032 15.8546 15.6088 15.8546H3.39064C2.69626 15.8546 2.03031 15.5788 1.53931 15.0878C1.0483 14.5967 0.772461 13.9308 0.772461 13.2364L0.772461 3.89649C0.772461 3.81545 0.795027 3.73601 0.837632 3.66708C0.880236 3.59814 0.941194 3.54244 1.01368 3.50619C1.08616 3.46995 1.1673 3.45461 1.24801 3.46189C1.32872 3.46917 1.40581 3.49878 1.47064 3.5474L7.85202 8.33169C8.33028 8.68078 8.90802 8.86929 9.49973 8.86929V8.87104Z" fill="white"/>
</g>
<defs>
<clipPath id="clip0_2514_3464">
<rect width="17.4545" height="16" fill="white" transform="translate(0.772461)"/>
</clipPath>
</defs>
</svg>
