<svg width="30" height="30" viewBox="0 0 30 30" fill="none" xmlns="http://www.w3.org/2000/svg">
<g id="icon/search" clip-path="url(#clip0_2970_11959)">
<path id="Vector" d="M15.8446 17.3189C14.4433 16.9442 13.1807 16.2584 12.1149 15.3387H2.93269C2.57497 15.3387 2.2818 15.0477 2.2818 14.6878V10.7793C2.2818 10.4205 2.57497 10.1263 2.93269 10.1263H9.02985C8.87109 9.37913 8.80759 8.61289 8.83405 7.84558H1.6288C0.73132 7.84558 0 8.57796 0 9.47332V28.3733C0 29.2698 0.73132 30.0011 1.6288 30.0011H15.6414C16.5388 30.0011 17.2723 29.2698 17.2723 28.3733V17.5771C16.7918 17.5231 16.3134 17.4448 15.8435 17.3199L15.8446 17.3189ZM5.05151 27.6547H3.09673C2.64693 27.6547 2.28075 27.2885 2.28075 26.8409C2.28075 26.3932 2.64693 26.0259 3.09673 26.0259H5.05151C5.50025 26.0259 5.86644 26.3942 5.86644 26.8409C5.86644 27.2875 5.50025 27.6547 5.05151 27.6547ZM5.05151 24.7231H3.09673C2.64693 24.7231 2.28075 24.3569 2.28075 23.9071C2.28075 23.4573 2.64693 23.0922 3.09673 23.0922H5.05151C5.50025 23.0922 5.86644 23.4605 5.86644 23.9071C5.86644 24.3537 5.50025 24.7231 5.05151 24.7231ZM5.05151 21.7904H3.09673C2.64693 21.7904 2.28075 21.4242 2.28075 20.9755C2.28075 20.5267 2.64693 20.1616 3.09673 20.1616H5.05151C5.50025 20.1616 5.86644 20.5299 5.86644 20.9755C5.86644 21.421 5.50025 21.7904 5.05151 21.7904ZM5.05151 18.8588H3.09673C2.64693 18.8588 2.28075 18.4926 2.28075 18.0438C2.28075 17.5951 2.64693 17.2279 3.09673 17.2279H5.05151C5.50025 17.2279 5.86644 17.5962 5.86644 18.0438C5.86644 18.4915 5.50025 18.8588 5.05151 18.8588ZM9.61406 27.6537H7.65928C7.21054 27.6537 6.84435 27.2875 6.84435 26.8398C6.84435 26.3921 7.21054 26.0249 7.65928 26.0249H9.61406C10.0628 26.0249 10.43 26.3932 10.43 26.8398C10.43 27.2864 10.0628 27.6537 9.61406 27.6537ZM9.61406 24.722H7.65928C7.21054 24.722 6.84435 24.3558 6.84435 23.906C6.84435 23.4562 7.21054 23.0911 7.65928 23.0911H9.61406C10.0628 23.0911 10.43 23.4594 10.43 23.906C10.43 24.3527 10.0628 24.722 9.61406 24.722ZM9.61406 21.7893H7.65928C7.21054 21.7893 6.84435 21.4232 6.84435 20.9744C6.84435 20.5257 7.21054 20.1605 7.65928 20.1605H9.61406C10.0628 20.1605 10.43 20.5289 10.43 20.9744C10.43 21.42 10.0628 21.7893 9.61406 21.7893ZM9.61406 18.8577H7.65928C7.21054 18.8577 6.84435 18.4915 6.84435 18.0428C6.84435 17.594 7.21054 17.2268 7.65928 17.2268H9.61406C10.0628 17.2268 10.43 17.5951 10.43 18.0428C10.43 18.4905 10.0628 18.8577 9.61406 18.8577ZM14.1777 27.6526H12.2208C11.7741 27.6526 11.4069 27.2864 11.4069 26.8387C11.4069 26.3911 11.7741 26.0238 12.2208 26.0238H14.1777C14.6253 26.0238 14.9926 26.3921 14.9926 26.8387C14.9926 27.2854 14.6253 27.6526 14.1777 27.6526ZM14.1777 24.721H12.2208C11.7741 24.721 11.4069 24.3548 11.4069 23.905C11.4069 23.4552 11.7741 23.0901 12.2208 23.0901H14.1777C14.6253 23.0901 14.9926 23.4584 14.9926 23.905C14.9926 24.3516 14.6253 24.721 14.1777 24.721ZM14.1777 21.7883H12.2208C11.7741 21.7883 11.4069 21.4221 11.4069 20.9734C11.4069 20.5246 11.7741 20.1595 12.2208 20.1595H14.1777C14.6253 20.1595 14.9926 20.5278 14.9926 20.9734C14.9926 21.4189 14.6253 21.7883 14.1777 21.7883ZM14.1777 18.8567H12.2208C11.7741 18.8567 11.4069 18.4905 11.4069 18.0417C11.4069 17.593 11.7741 17.2257 12.2208 17.2257H14.1777C14.6253 17.2257 14.9926 17.594 14.9926 18.0417C14.9926 18.4894 14.6253 18.8567 14.1777 18.8567Z" fill="white"/>
<path id="Vector_2" d="M29.8595 24.8543L25.171 16.7325C24.9117 16.2859 24.3709 16.1197 23.9021 16.2922L23.0469 14.8137C24.59 13.7151 25.6949 12.1308 26.1902 10.2808C26.7554 8.17361 26.4664 5.97119 25.3742 4.08097C23.1199 0.183067 18.1139 -1.15786 14.2097 1.09007C12.3216 2.18229 10.9701 3.94444 10.406 6.05268C9.83976 8.16091 10.1298 10.3623 11.2188 12.2504C12.311 14.1406 14.0732 15.4942 16.1814 16.0583C18.0314 16.5547 19.9534 16.3906 21.6764 15.6022L22.5315 17.0839C22.1484 17.4024 22.0235 17.9517 22.2807 18.3994L26.9713 26.5212C27.2592 27.0207 27.9058 27.1932 28.4043 26.9054L29.4785 26.2873C29.9781 25.9984 30.1516 25.3538 29.8606 24.8522L29.8595 24.8543ZM21.2297 13.2526C19.8729 14.0358 18.2865 14.2464 16.7688 13.8432C15.2553 13.4368 13.9885 12.462 13.2032 11.1042C12.419 9.74844 12.2115 8.16197 12.6169 6.64641C13.0222 5.1298 13.9959 3.86189 15.3538 3.0766C18.1616 1.45838 21.7631 2.42359 23.3824 5.22505C24.9509 7.94289 23.9539 11.681 21.2297 13.2526Z" fill="white"/>
</g>
<defs>
<clipPath id="clip0_2970_11959">
<rect width="30" height="30" fill="white"/>
</clipPath>
</defs>
</svg>
