<svg width="25" height="20" viewBox="0 0 25 20" fill="none" xmlns="http://www.w3.org/2000/svg">
<path d="M24.9999 2.36979C24.0621 2.77727 23.0699 3.04572 22.0546 3.16667C23.1216 2.54187 23.924 1.54926 24.3114 0.375007C23.3026 0.964897 22.2007 1.37879 21.0531 1.59896C20.5698 1.09247 19.9885 0.68954 19.3447 0.414666C18.7008 0.139793 18.0078 -0.00128506 17.3078 8.81998e-06C14.4734 8.81998e-06 12.1796 2.26042 12.1796 5.04687C12.1776 5.43445 12.2221 5.82088 12.3119 6.19791C10.2795 6.10263 8.28931 5.58415 6.46872 4.67565C4.64813 3.76715 3.03722 2.48863 1.73906 0.921881C1.28363 1.68965 1.04277 2.56565 1.04166 3.45833C1.04166 5.20833 1.95468 6.7552 3.33332 7.66144C2.51652 7.64206 1.71645 7.42587 1.00104 7.03124V7.09374C1.00104 9.54165 2.77187 11.5781 5.11561 12.0416C4.67487 12.1591 4.2207 12.2187 3.76457 12.2187C3.44092 12.2193 3.118 12.1879 2.80051 12.125C3.45207 14.1302 5.34842 15.5885 7.59477 15.6302C5.76945 17.0369 3.52844 17.7972 1.22395 17.7916C0.814903 17.791 0.406231 17.7667 0 17.7187C2.34436 19.2157 5.06949 20.0075 7.85102 19.9999C17.2968 19.9999 22.4572 12.3073 22.4572 5.63541C22.4572 5.41666 22.4515 5.19791 22.4411 4.98437C23.4427 4.2719 24.3092 3.38651 24.9999 2.36979Z" fill="#AD814D"/>
</svg>
