<svg width="20" height="20" viewBox="0 0 20 20" fill="none" xmlns="http://www.w3.org/2000/svg">
<g clip-path="url(#clip0_2514_3454)">
<path d="M12.2173 4.34789C13.0667 4.5136 13.8472 4.92898 14.4591 5.54088C15.071 6.15277 15.4864 6.93334 15.6521 7.78267M12.2173 0.869629C13.9819 1.06566 15.6274 1.85587 16.8836 3.1105C18.1398 4.36514 18.9321 6.00964 19.1304 7.77398M18.2608 14.7131V17.3218C18.2618 17.564 18.2122 17.8037 18.1152 18.0256C18.0181 18.2475 17.8759 18.4467 17.6974 18.6104C17.5189 18.7741 17.3083 18.8987 17.0789 18.9763C16.8494 19.0539 16.6064 19.0827 16.3652 19.0609C13.6894 18.7702 11.1191 17.8558 8.86081 16.3914C6.75979 15.0563 4.9785 13.275 3.64342 11.174C2.17384 8.90546 1.25928 6.32267 0.973855 3.63485C0.952125 3.39438 0.980703 3.15203 1.05777 2.92322C1.13483 2.6944 1.2587 2.48414 1.42148 2.30582C1.58426 2.1275 1.78238 1.98503 2.00324 1.88747C2.2241 1.78992 2.46285 1.73942 2.70429 1.73919H5.31299C5.73499 1.73504 6.14411 1.88448 6.46408 2.15966C6.78406 2.43483 6.99305 2.81697 7.05212 3.23485C7.16222 4.06969 7.36642 4.88939 7.66081 5.67832C7.77781 5.98956 7.80313 6.32782 7.73377 6.653C7.66442 6.97819 7.5033 7.27668 7.26951 7.51311L6.16516 8.61745C7.40303 10.7945 9.20555 12.597 11.3826 13.8348L12.4869 12.7305C12.7233 12.4967 13.0218 12.3356 13.347 12.2662C13.6722 12.1969 14.0104 12.2222 14.3217 12.3392C15.1106 12.6336 15.9303 12.8378 16.7652 12.9479C17.1876 13.0075 17.5733 13.2202 17.8491 13.5457C18.1249 13.8712 18.2714 14.2867 18.2608 14.7131Z" stroke="#AD814D" stroke-width="2" stroke-linecap="round" stroke-linejoin="round"/>
</g>
<defs>
<clipPath id="clip0_2514_3454">
<rect width="20" height="20" fill="white"/>
</clipPath>
</defs>
</svg>
