<svg width="11" height="20" viewBox="0 0 11 20" fill="none" xmlns="http://www.w3.org/2000/svg">
<path d="M6.71909 19.9841C6.61987 19.9881 6.55636 19.996 6.49286 19.996C5.13545 19.996 3.78201 19.9921 2.42459 20C2.23408 20 2.18248 19.9484 2.18248 19.7579C2.18645 16.5985 2.18645 13.4352 2.18645 10.2759C2.18645 10.1925 2.18645 10.1092 2.18645 10.002C1.44821 10.002 0.729815 10.002 -0.000488281 10.002C-0.000488281 8.87478 -0.000488281 7.76742 -0.000488281 6.62831C0.0749235 6.62831 0.146366 6.62831 0.21384 6.62831C0.809195 6.62831 1.40455 6.62434 1.99991 6.63228C2.15073 6.63228 2.19042 6.58862 2.19042 6.44176C2.18248 5.55667 2.18248 4.6676 2.19042 3.78251C2.19439 3.16333 2.29362 2.56004 2.57939 2.00041C2.9882 1.21057 3.63515 0.698561 4.45277 0.381038C5.11957 0.119081 5.82209 0.0238242 6.52858 0.011917C7.6796 -0.00395911 8.83062 0.00397896 9.98164 9.92264e-06C10.0888 9.92264e-06 10.1761 -0.00395912 10.1761 0.146864C10.1722 1.23835 10.1722 2.32984 10.1722 3.42132C10.1722 3.43323 10.1682 3.44514 10.1523 3.49673C10.0848 3.49673 10.0094 3.49673 9.93402 3.49673C9.21959 3.49673 8.50516 3.49276 7.79073 3.49673C7.37795 3.49673 7.04456 3.66343 6.8342 4.02462C6.77069 4.13178 6.731 4.2707 6.731 4.39771C6.7191 5.07244 6.731 5.74718 6.72306 6.42192C6.72306 6.58068 6.77069 6.62434 6.92548 6.62434C7.91774 6.6164 8.91 6.62037 9.90226 6.62037C9.98164 6.62037 10.0571 6.62037 10.192 6.62037C10.0531 7.75551 9.91814 8.86685 9.77922 9.99008C8.74727 9.99008 7.74311 9.99008 6.71909 9.99008C6.71909 13.328 6.71909 16.6462 6.71909 19.9841Z" fill="#73886B"/>
</svg>
