<svg width="614" height="325" viewBox="0 0 614 325" fill="none" xmlns="http://www.w3.org/2000/svg">
<path d="M307 172C259.577 172 221 133.423 221 86C221 38.5774 259.577 0 307 0C354.423 0 393 38.5774 393 86C393 133.423 354.423 172 307 172ZM307 2.14562C260.76 2.14562 223.146 39.7597 223.146 86C223.146 132.24 260.76 169.898 307 169.898C353.24 169.898 390.898 132.24 390.898 86C390.898 39.7597 353.24 2.14562 307 2.14562Z" fill="white"/>
<path d="M322.282 100.143L331.565 101.895V91.9113L322.282 89.6343V100.143Z" fill="white"/>
<path d="M307 75.7536L317.859 78.9939V68.0469L307 64.106V75.7536Z" fill="white"/>
<path d="M335.988 102.683L344.089 104.172V94.9329L335.988 92.9624V102.683Z" fill="white"/>
<path d="M307 97.3848L317.859 99.399V88.4958L307 85.8247V97.3848Z" fill="white"/>
<path d="M292.025 107.544L294.039 107.106V70.7617L279.458 80.7016L292.025 107.544Z" fill="white"/>
<path d="M322.282 80.2637L331.565 83.0662V73.0387L322.282 69.667V80.2637Z" fill="white"/>
<path d="M348.512 88.1017L355.737 90.2474V81.7962L348.512 79.1689V88.1017Z" fill="white"/>
<path d="M307 9.37061C264.657 9.37061 230.327 43.7005 230.327 86.0437C230.327 128.387 264.657 162.717 307 162.717C349.343 162.717 383.673 128.387 383.673 86.0437C383.673 43.6568 349.343 9.37061 307 9.37061ZM292.025 124.709L271.269 80.3513L271.225 79.4317C271.225 78.5122 271.225 78.1181 273.677 76.1914C276.524 73.9582 282.216 70.061 293.557 62.3105L294.039 62.004V43.3065L258.045 67.8716V124.665H250.82V64.0621L297.673 32.0967L363.224 76.8044V124.665H292.025V124.709Z" fill="white"/>
<path d="M335.988 84.2923L344.089 86.7006V77.5051L335.988 74.5713V84.2923Z" fill="white"/>
<path d="M348.512 105.004L355.737 106.362V97.8229L348.512 96.0276V105.004Z" fill="white"/>
<g clip-path="url(#clip0)">
<path d="M25.6143 255.702C28.0704 252.719 30.0002 248.509 30.8774 243.421L33.1581 244.123C32.1055 249.035 30.5265 253.246 27.5441 257.105L25.6143 255.702ZM63.509 239.211H29.123V219.386H63.509V239.211ZM45.0879 221.491H31.5792V228.158H45.0879V221.491ZM45.0879 230.263H31.5792V237.105H45.0879V230.263ZM39.8248 254.474C39.8248 255.351 39.8248 256.053 41.4037 256.053H51.4037C54.0353 256.053 54.5616 255.526 55.0879 248.684L57.7195 249.386C56.8423 255.702 56.4914 258.333 51.93 258.333H40.3511C39.4739 258.333 37.1932 258.333 37.1932 255.351V244.123H39.8248V254.474ZM49.8248 249.035C47.0178 245.877 45.0879 244.123 42.1055 241.842L43.8599 240.439C46.1406 241.842 49.4739 244.649 51.5792 247.281L49.8248 249.035ZM61.0528 221.491H47.3686V228.158H61.0528V221.491ZM61.0528 230.263H47.3686V237.105H61.0528V230.263ZM64.0353 257.105C62.9827 253.246 60.702 247.807 58.4213 244.298L60.8774 243.597C63.1581 247.281 65.0879 251.842 66.4914 256.053L64.0353 257.105Z" fill="white"/>
<path d="M70.351 229.737V227.105H77.544L77.7194 219.912H80.351C80.351 221.316 80.1755 233.597 80.1755 233.947C83.8597 230.614 87.8948 227.105 95.0878 227.105C103.509 227.105 107.369 233.947 107.369 240.439C107.369 248.86 102.105 255.702 88.772 255.877L87.7194 253.246C91.9299 253.246 104.561 253.421 104.561 240.614C104.561 237.456 103.509 229.737 94.3861 229.737C91.9299 229.737 87.3685 230.088 80.1755 237.105C80.1755 243.947 80.0001 250.614 80.0001 257.281H77.3685L77.544 240.439C75.2633 245.176 72.4562 248.158 70.8773 249.737L69.2983 247.105C70.5264 245.877 74.7369 241.842 77.544 234.825V229.737H70.351Z" fill="white"/>
<path d="M147.894 226.228V228.684H135.965V236.754C136.14 237.456 136.491 238.333 136.666 239.561C136.842 240.789 137.017 242.017 137.017 243.596C137.017 251.842 132.105 257.281 119.123 257.982L118.245 255.351C133.333 255.526 134.386 247.631 134.912 243.947C132.807 249.386 127.193 249.386 126.666 249.386C121.403 249.386 118.596 245.175 118.596 240.789C118.596 236.228 121.403 231.667 127.894 231.667C131.579 231.667 132.807 232.895 133.684 233.947V228.684H110.351V226.228H133.333V220.088H136.14V226.228H147.894ZM133.333 238.684C132.982 237.456 132.105 234.123 127.544 234.123C124.21 234.123 121.052 236.053 121.052 240.439C121.052 242.719 122.28 246.93 126.842 246.93C130.701 246.93 133.333 244.123 133.333 240.965V238.684ZM139.824 216.053C141.228 217.631 142.982 219.737 145.263 223.596L142.982 225.175C141.228 221.842 139.824 219.912 137.894 217.631L139.824 216.053ZM147.193 215.702C149.824 218.86 151.403 221.491 152.456 223.421L150.175 224.824C148.421 221.491 147.017 219.386 145.263 217.105L147.193 215.702Z" fill="white"/>
<path d="M169.474 217.456H181.053V220.263H172.105V259.561H169.474V217.456Z" fill="white"/>
<path d="M243.684 236.053C250.351 234.825 260.526 231.14 266.14 228.333L267.894 230.614C258.245 235.175 247.894 237.807 243.684 238.684V249.561C243.684 253.246 244.561 253.596 250.877 253.596H262.28C262.631 253.596 268.245 253.596 272.28 252.895L272.456 255.526C269.473 255.877 264.912 256.053 261.93 256.053H250.526C243.158 256.053 240.877 255 240.877 249.386V221.316H243.684V236.053V236.053ZM279.123 222.193C279.123 225.702 276.316 228.509 272.807 228.509C269.298 228.509 266.491 225.702 266.491 222.193C266.491 218.684 269.298 215.877 272.807 215.877C276.316 215.877 279.123 218.684 279.123 222.193ZM268.772 222.193C268.772 224.298 270.526 226.228 272.807 226.228C275.087 226.228 276.842 224.474 276.842 222.193C276.842 219.912 275.087 218.158 272.807 218.158C270.526 218.158 268.772 219.912 268.772 222.193Z" fill="white"/>
<path d="M312.105 237.281V240.263H273.509V237.281H312.105Z" fill="white"/>
<path d="M346.842 244.123C342.105 241.316 335.439 237.632 325.965 234.298V257.807H322.982V219.562H325.965V231.491C334.035 234.123 341.228 237.632 348.246 241.316L346.842 244.123Z" fill="white"/>
<path d="M366.316 260.088H354.737V257.456H363.684V218.158H366.316V260.088Z" fill="white"/>
<path d="M397.544 220.263C397.018 234.123 397.018 237.456 397.018 241.491C397.018 247.632 397.193 254.474 406.491 254.474C418.772 254.474 420.351 246.403 421.755 239.035L424.386 239.737C423.334 246.053 421.579 256.93 407.193 256.93C395.614 256.93 394.211 250.263 394.211 240.965C394.211 237.632 394.562 223.07 394.562 220.088L397.544 220.263Z" fill="white"/>
<path d="M427.193 256.93C432.105 248.509 434.912 230.965 435.263 228.684H428.421V226.053H435.614C435.789 225 436.14 220.614 436.316 219.737L439.298 219.912C439.123 221.491 439.123 221.842 438.596 226.053H451.93V228.684H438.246C437.017 236.754 434.21 249.737 430.175 257.982L427.193 256.93ZM446.842 245C445.263 247.456 445.263 249.035 445.263 249.561C445.263 254.298 450.702 254.298 456.491 254.298C459.474 254.298 462.456 254.123 465.439 253.947V256.754C464.035 256.754 457.895 256.93 456.667 256.93C451.053 256.93 442.631 256.93 442.631 249.386C442.631 247.105 443.684 245.351 444.561 243.772L446.842 245ZM464.21 234.649C462.982 234.474 461.93 234.474 460 234.474C454.737 234.474 450.877 235.175 447.193 236.403L446.491 233.947C449.824 232.719 454.561 231.316 464.21 231.842V234.649Z" fill="white"/>
<path d="M498.07 257.983C494.561 255 488.07 249.561 474.912 242.368C473.333 241.491 471.404 240.439 471.404 238.509C471.404 236.579 472.807 235.526 475.614 233.597C484.561 227.807 490.351 223.07 494.211 219.035L496.667 220.614C490.351 226.754 484.912 230.439 477.018 235.526C474.211 237.281 474.211 237.632 474.211 238.158C474.211 238.684 474.211 238.86 476.842 240.263C489.825 247.105 495.614 251.667 500.175 255.526L498.07 257.983Z" fill="white"/>
<path d="M527.719 225.877V228.333H517.018C513.684 242.719 510.877 248.158 508.596 252.018L505.965 250.614C510.702 243.597 513.333 233.772 514.386 228.333H505.965V225.877H514.912C515.439 222.719 515.614 221.316 515.789 219.562L518.772 219.737C518.596 220.965 517.895 225 517.719 225.877H527.719ZM534.737 243.421C538.772 245.176 542.632 248.158 544.912 250.79L543.158 253.07C540 249.035 536.316 247.105 534.912 246.228V248.509C534.912 251.316 534.737 252.544 534.035 253.947C532.456 256.755 528.947 257.456 526.316 257.456C519.474 257.456 516.491 253.597 516.491 249.737C516.491 246.755 518.772 241.667 526.842 241.667C529.474 241.667 531.053 242.018 532.281 242.369L531.93 232.193H534.561L534.737 243.421ZM531.93 245.176C530.877 244.825 529.298 244.298 526.491 244.298C521.053 244.298 518.772 247.105 518.772 249.912C518.772 255.176 524.912 255.176 526.14 255.176C531.754 255.176 531.93 251.667 531.93 248.684V245.176ZM542.281 231.842C539.474 230.263 535.789 227.983 530.877 226.228L531.93 224.123C535.263 225.351 538.596 226.579 543.684 229.562L542.281 231.842Z" fill="white"/>
<path d="M575.088 223.597C574.035 224.298 573.86 224.474 571.404 226.579C563.684 232.895 562.632 233.772 560.877 235.175C562.632 234.474 565.79 233.246 570.351 233.246C579.649 233.246 582.105 239.035 582.105 243.947C582.105 252.719 574.386 256.93 566.667 256.93C560.176 256.93 555.439 254.123 555.439 249.737C555.439 246.228 558.772 243.947 562.632 243.947C565.263 243.947 571.228 245 573.158 253.421C574.912 252.544 579.474 250.439 579.474 243.947C579.474 235.877 572.456 235.526 569.825 235.526C561.228 235.526 554.912 240.439 549.123 245.702L547.544 243.421C549.474 241.842 560.526 233.07 571.228 223.421C565.088 223.947 561.053 224.123 551.93 224.298V222.018C560.702 221.842 565.965 221.842 575.263 221.14V223.597H575.088ZM568.947 249.912C567.193 247.456 564.561 246.404 562.281 246.404C559.298 246.404 557.719 248.158 557.719 249.912C557.719 252.895 561.93 255 566.842 255C568.597 255 569.825 254.649 570.702 254.474C570.351 252.544 570 251.316 568.947 249.912Z" fill="white"/>
<path d="M1.05263 293.597V290.965H23.1579V282.895H25.9649V290.965H37.3684V293.597H25.9649V315.877C25.9649 319.211 24.7368 320.79 20.3509 320.79C19.8246 320.79 17.8947 320.79 14.0351 320.263L13.8596 317.456C15.9649 317.807 18.4211 318.158 20.5263 318.158C22.807 318.158 23.1579 317.456 23.1579 316.053V297.632C18.2456 304.649 11.0526 312.193 1.75439 317.105L0 314.825C9.29825 310.263 18.9474 300.088 22.9825 293.597H1.05263Z" fill="white"/>
<path d="M42.6313 318.333C50.3506 313.421 55.0875 306.93 56.6664 294.123H43.8594V291.491H57.0173C57.3682 287.281 57.3682 285.526 57.3682 282.895L60.3507 283.07C60.1752 287.281 59.9998 288.86 59.8243 291.491H77.5436V299.211C77.5436 300.439 77.5436 312.719 75.9647 316.754C74.5612 320.263 70.5261 320.263 68.7717 320.263C64.9121 320.263 63.1577 319.912 61.5787 319.561V316.754C63.8594 317.105 66.1401 317.632 69.1226 317.632C72.6314 317.632 73.1577 316.053 73.684 314.825C74.5612 312.018 74.9121 302.719 74.9121 299.035V294.123H59.6489C57.7191 309.561 51.4033 316.404 44.5612 320.439L42.6313 318.333Z" fill="white"/>
<path d="M101.579 282.719H104.21V289.386H117.017V291.667C113.684 295.702 110.175 299.386 104.21 303.596V320.965H101.579V305.351C94.035 310.088 87.3683 312.193 84.7367 312.895L83.6841 310.263C95.6139 307.281 107.193 299.561 113.509 291.667H86.6665V289.21H101.579V282.719ZM120.877 312.719C118.772 311.14 113.684 307.807 107.719 305.175L109.123 303.246C112.105 304.474 119.298 308.158 122.281 310.439L120.877 312.719Z" fill="white"/>
<path d="M125.614 318.86C130.527 309.561 132.807 300.79 133.86 294.298H125.79V291.667H134.211C134.737 288.509 134.913 286.93 135.088 283.07L138.07 283.421C137.72 287.105 137.369 288.86 137.018 291.667H142.983C148.246 291.667 151.93 292.895 151.93 301.667C151.93 305.877 151.404 311.842 149.825 315.702C148.07 319.737 144.737 319.912 142.632 319.912C140.527 319.912 138.948 319.737 136.842 319.211L136.667 316.404C139.298 316.93 141.053 317.105 142.281 317.105C145.79 317.105 147.193 315.351 148.07 311.842C149.123 307.632 149.123 303.246 149.123 301.667C149.123 297.281 148.772 293.947 143.86 293.947H136.667C134.035 307.983 129.825 316.754 128.246 319.912L125.614 318.86ZM159.123 307.456C158.421 300.088 155.614 294.298 151.93 290.79L154.035 289.211C158.772 293.947 161.053 300.439 162.105 306.93L159.123 307.456ZM157.193 282.193C158.597 283.947 160.527 286.228 162.632 290.088L160.351 291.667C158.421 287.983 157.018 285.702 155.088 283.597L157.193 282.193ZM162.632 279.035C164.035 280.614 165.965 283.07 168.07 286.93L165.79 288.684C164.035 285.176 162.456 283.07 160.527 280.614L162.632 279.035Z" fill="white"/>
<path d="M184.912 280.614H196.491V283.421H187.719V322.719H185.088V280.614H184.912Z" fill="white"/>
<path d="M374.737 323.246H363.158V320.614H372.105V281.316H374.737V323.246Z" fill="white"/>
<path d="M394.386 307.632C404.035 303.07 412.982 293.596 416.316 285.526H394.561V283.246H435.614V285.526H419.123C417.719 288.684 416.667 290.439 415.965 291.316H416.316V322.368H413.684V294.649C411.053 298.158 405.263 305.175 395.965 309.737L394.386 307.632ZM434.211 309.912C427.368 304.649 423.509 300.789 418.421 294.123L420.351 292.719C424.737 298.509 429.825 303.596 435.789 307.632L434.211 309.912Z" fill="white"/>
<path d="M451.754 288.684H462.105V290.614H451.754V293.597H460.877V307.281H451.754V310.614H461.403V312.544H451.754V316.755C455.614 316.228 457.544 316.053 461.228 315.176L461.403 317.105C457.193 318.158 445.438 319.737 438.947 320.439L438.421 317.983C442.456 317.632 443.684 317.632 449.298 316.755V312.193H439.649V310.263H449.298V306.93H440.351V293.246H449.474V290.263H438.596V288.684H449.298V285.176C443.684 285.702 441.403 285.877 439.824 285.877L439.123 283.772C444.21 283.597 451.93 283.07 458.596 281.316L460 283.246C458.596 283.597 455.965 284.298 451.579 284.825V288.684H451.754ZM449.474 295.702H442.631V299.737H449.474V295.702ZM449.474 301.491H442.631V305.351H449.474V301.491ZM458.596 295.702H451.754V299.737H458.596V295.702ZM458.596 301.491H451.754V305.351H458.596V301.491ZM470.175 294.298C470.175 303.947 468.596 314.474 462.456 322.369L460.175 320.79C461.403 319.211 464.21 315.702 465.614 310.614C467.895 301.842 467.895 296.228 467.895 294.123V293.246H463.158V290.965H467.719V281.491H470.175V290.965H478.772C479.123 297.807 478.07 316.579 477.017 319.562C476.14 322.018 474.737 322.544 472.456 322.544H467.544L466.842 320.088L472.105 320.263C472.631 320.263 473.859 320.439 474.561 319.211C476.14 316.053 476.316 297.632 476.491 293.246H470.175V294.298Z" fill="white"/>
<path d="M501.93 285.175V281.491H504.561V285.175H521.228V287.456H514.386C514.035 289.035 512.807 292.544 512.456 293.421H523.86V295.702H488.597V306.053C488.597 309.912 488.07 315.877 484.386 322.368L482.281 320.965C485.79 315 486.14 308.684 486.14 306.403V293.596H494.211C493.86 292.368 492.807 288.684 492.281 287.632H484.912V285.175H501.93ZM505.965 301.842V296.93H508.421V301.842H521.754V303.947H508.421V310.088H519.825V312.193H508.421V318.684H522.983V320.965H489.298V318.684H505.965V312.193H493.684V310.088H505.965V303.947H496.14C494.561 306.579 493.684 307.632 492.632 308.684L490.702 307.281C493.333 304.474 495.614 300.263 496.667 296.579L499.123 297.105C498.597 298.509 498.246 299.561 497.193 301.667H505.965V301.842ZM510 293.421C510.526 292.368 511.579 288.684 511.754 287.456H494.561C495.79 291.14 495.965 291.842 496.316 293.421H510Z" fill="white"/>
<path d="M541.403 303.421C540.175 304.123 538.947 304.649 536.14 305.702V319.386C536.14 321.842 534.737 322.544 532.982 322.544H528.421L527.895 319.912L532.632 320.088C533.684 320.088 533.684 319.561 533.684 318.86V306.93C531.93 307.632 528.07 308.86 527.193 309.211L526.842 306.754C528.421 306.228 530.175 305.877 533.684 304.474V292.544H527.193V290.439H533.684V281.667H536.14V290.439H541.403V292.544H536.14V303.597C539.474 302.368 539.824 302.018 540.877 301.667L541.403 303.421ZM538.246 320.088C545.088 318.684 549.123 316.579 552.456 314.474C548.947 310.965 547.017 307.281 545.789 304.474L548.07 303.421C550.175 308.333 552.456 310.965 554.561 312.895C558.246 310.088 560.526 306.93 562.105 302.719H542.982V300.439H564.912V302.719C563.684 305.877 561.403 310.614 556.316 314.649C558.421 316.404 561.754 318.509 568.07 320.439L566.842 322.719C559.298 319.912 556.14 317.281 554.386 316.053C551.754 317.807 547.544 320.263 539.474 322.368L538.246 320.088ZM561.228 283.07V293.246C561.228 294.123 561.228 294.649 562.456 294.649H564.035C565.439 294.649 565.439 294.298 565.614 289.561L568.07 290.088C567.719 295.702 567.719 296.754 564.737 296.754H561.754C559.825 296.754 558.947 295.702 558.947 293.947V285.351H549.123C549.123 292.018 547.895 295.526 543.333 299.386L541.579 297.632C545.965 294.298 546.842 290.965 546.842 283.07H561.228V283.07Z" fill="white"/>
<path d="M582.982 293.597C579.474 295.526 575.614 296.754 571.93 297.632L571.404 295.176C575.088 294.298 579.298 293.246 582.632 291.491L582.982 293.597ZM585.965 317.807C581.228 320.439 577.368 321.667 573.158 322.544L571.93 320.263C575.965 319.561 580.351 318.333 584.386 316.053L585.965 317.807ZM581.053 287.632C579.123 286.228 577.368 285.176 574.035 283.597L575.263 281.667C577.368 282.544 579.474 283.597 582.632 285.877L581.053 287.632ZM607.895 296.754V314.825H576.842V296.754H607.895ZM579.298 298.86V302.018H605.263V298.86H579.298ZM579.298 303.947V307.281H605.263V303.947H579.298ZM579.298 309.211V312.719H605.263V309.211H579.298ZM611.228 284.474V286.228C609.825 288.86 607.193 291.14 606.667 291.491L604.737 290.263C605.965 289.211 607.369 287.632 608.246 286.404H598.947C601.579 291.14 605.965 293.947 613.158 295.176L612.281 297.632C602.983 295.526 599.825 292.018 597.719 288.509C594.737 294.298 587.895 295.702 585.965 296.053L584.737 293.947C587.018 293.597 594.035 292.544 596.491 286.579H590.351C589.825 287.105 588.07 288.86 585.088 290.79L583.333 289.211C585.965 287.632 588.597 285.702 591.228 281.667L593.86 281.842C593.333 282.719 592.807 283.421 591.93 284.474H611.228V284.474ZM611.579 322.369C607.018 321.316 602.456 320.088 598.597 317.632L600.526 315.877C604.211 318.158 609.123 319.211 612.807 319.737L611.579 322.369Z" fill="white"/>
<path d="M247.368 300.614C244.561 305 240 308.86 233.86 311.842C237.544 313.947 240.877 316.403 243.86 319.386C244.21 319.737 244.21 320.088 243.86 320.439L239.649 324.649C239.474 324.825 239.298 324.825 239.123 324.825C238.947 324.825 238.772 324.649 238.596 324.474C233.333 318.158 225.263 313.246 214.035 309.912C213.684 309.737 213.509 309.561 213.509 309.21V306.053C213.509 305.526 213.86 305.351 214.386 305.351C220 306.403 224.561 307.632 228.421 309.035C233.333 306.228 237.017 302.895 239.298 298.86C241.579 295 242.807 290.263 242.807 284.474H209.649C209.123 284.474 208.947 284.298 208.947 283.772V280.789C208.947 280.263 209.123 280.088 209.649 280.088H250.877C251.403 280.088 251.579 280.263 251.579 280.789V283.772C251.579 290.789 250.175 296.228 247.368 300.614Z" fill="white"/>
<path d="M302.106 279.912V292.544C302.106 301.141 299.649 308.333 294.737 314.123C289.825 319.912 282.983 323.597 274.211 325C273.685 325 273.334 324.825 273.334 324.298V321.316C273.334 320.965 273.509 320.79 273.86 320.614C280 318.86 284.737 315.351 288.246 310.439C291.755 305.526 293.509 299.562 293.509 292.544V283.772H268.421V300.614C268.421 301.141 268.246 301.316 267.72 301.316H260.351C259.825 301.316 259.649 301.141 259.649 300.614V279.912C259.649 279.386 259.825 279.211 260.351 279.211H301.755C301.755 279.035 302.106 279.386 302.106 279.912Z" fill="white"/>
<path d="M322.982 280.614V292.719C322.982 302.544 321.579 310.088 318.772 315.351C316.491 319.562 312.807 322.719 307.544 325C307.368 325.176 307.018 325.176 306.842 325C306.667 324.825 306.491 324.649 306.491 324.474V321.491C306.491 321.316 306.667 320.965 306.842 320.965C309.649 318.86 311.579 315.702 312.632 311.842C313.684 307.807 314.211 301.667 314.211 293.07V280.965C314.211 280.439 314.386 280.263 314.912 280.263H322.281C322.807 279.912 322.982 280.088 322.982 280.614ZM355.439 297.456C353.333 311.667 344.912 320.965 330 325C329.474 325.176 329.123 325 329.123 324.298V279.912C329.123 279.386 329.298 279.211 329.825 279.211H337.193C337.719 279.211 337.895 279.386 337.895 279.912V313.948C341.053 312.193 343.86 309.912 346.14 307.105C348.597 303.948 350.176 300.79 350.877 297.105C350.877 296.755 351.228 296.579 351.579 296.579H354.737C355.263 296.579 355.439 296.93 355.439 297.456Z" fill="white"/>
<path d="M201.403 215.702V238.333C201.403 238.86 201.228 239.035 200.702 239.035H193.333C192.807 239.035 192.631 238.86 192.631 238.333V215.702C192.631 215.175 192.807 215 193.333 215H200.702C201.052 215 201.403 215.175 201.403 215.702ZM231.754 215.702V230.789C231.754 241.316 228.596 249.035 222.456 253.947C218.245 257.456 212.28 259.561 204.386 260.614C203.859 260.614 203.509 260.439 203.509 259.912V257.105C203.509 256.754 203.684 256.404 204.035 256.404C216.491 253.596 222.807 245.175 222.807 230.789V215.702C222.807 215.175 222.982 215 223.509 215H230.877C231.579 215 231.754 215.175 231.754 215.702Z" fill="white"/>
</g>
<defs>
<clipPath id="clip0">
<rect width="613.158" height="110" fill="white" transform="translate(0 215)"/>
</clipPath>
</defs>
</svg>
