<?xml version="1.0" standalone="no"?>
<!DOCTYPE svg PUBLIC "-//W3C//DTD SVG 20010904//EN"
 "http://www.w3.org/TR/2001/REC-SVG-20010904/DTD/svg10.dtd">
<svg version="1.0" xmlns="http://www.w3.org/2000/svg"
 width="261.000000pt" height="261.000000pt" viewBox="0 0 261.000000 261.000000"
 preserveAspectRatio="xMidYMid meet">
<metadata>
Created by potrace 1.11, written by Peter Selinger 2001-2013
</metadata>
<g transform="translate(0.000000,261.000000) scale(0.100000,-0.100000)"
fill="#000000" stroke="none">
<path d="M1228 2605 c-2 -1 -34 -5 -73 -8 -149 -13 -360 -82 -501 -164 -342
-200 -574 -538 -638 -928 -21 -124 -14 -359 13 -478 59 -254 171 -457 356
-642 203 -204 467 -336 740 -372 74 -9 292 -9 360 1 285 42 556 183 757 395
300 317 417 729 331 1161 -85 427 -412 807 -823 954 -93 34 -216 63 -295 71
-65 7 -223 13 -227 10z m201 -60 c543 -56 972 -445 1098 -996 26 -113 23 -395
-5 -511 -32 -129 -59 -203 -114 -308 -209 -405 -632 -669 -1078 -673 -223 -3
-392 34 -576 125 -330 163 -565 449 -660 803 -30 114 -39 183 -39 315 0 162
13 252 55 380 151 462 546 796 1015 859 133 18 180 19 304 6z"/>
<path d="M1205 2459 c-159 -15 -264 -43 -392 -104 -152 -71 -219 -120 -344
-246 -151 -153 -248 -329 -301 -548 -27 -113 -33 -331 -12 -451 79 -451 410
-813 849 -928 111 -29 144 -33 270 -37 742 -18 1306 653 1163 1385 -64 333
-285 632 -588 797 -190 103 -433 153 -645 132z m455 -543 c193 -142 354 -263
357 -270 4 -6 8 -25 8 -42 l1 -31 -361 1 -360 1 0 48 c0 43 1 47 25 48 14 0
130 1 258 1 128 1 229 4 225 8 -4 4 -122 91 -261 194 l-252 187 -33 -23 c-142
-100 -565 -414 -578 -429 -14 -16 -16 -56 -17 -313 0 -163 4 -296 9 -296 5 0
37 11 71 24 35 12 88 29 118 37 65 16 54 13 110 23 25 5 53 10 62 11 88 17
324 23 423 11 33 -4 78 -9 100 -12 63 -7 235 -50 294 -74 30 -11 56 -18 60
-15 3 4 6 93 6 198 l0 192 44 3 c24 2 47 -1 50 -7 4 -6 6 -108 6 -227 l-1
-216 71 -48 c101 -69 125 -98 43 -55 -34 18 -88 43 -118 55 -30 11 -64 25 -75
30 -54 25 -298 82 -405 96 -30 3 -129 8 -220 9 -299 5 -567 -52 -825 -175
l-100 -48 43 37 c24 21 64 50 90 66 l47 28 0 355 0 355 40 29 c22 16 83 61
135 100 52 38 138 101 190 139 52 38 153 111 225 164 71 52 133 94 137 93 4
-2 165 -119 358 -262z m-235 -970 c164 -16 292 -53 438 -126 80 -40 154 -88
113 -73 -11 3 -41 17 -68 30 -26 13 -52 23 -58 23 -6 0 -18 4 -28 10 -36 20
-215 64 -317 78 -67 9 -336 9 -408 0 -122 -16 -279 -60 -432 -122 -36 -15 -38
-15 -20 0 37 29 170 92 261 122 107 36 153 46 269 58 33 4 61 7 62 8 3 3 132
-3 188 -8z m115 -186 c77 -22 166 -65 210 -101 14 -11 21 -19 15 -16 -111 52
-204 82 -285 93 -25 3 -54 8 -65 11 -42 9 -214 3 -297 -12 -81 -14 -196 -50
-263 -82 l-30 -14 25 20 c48 40 172 93 258 111 121 26 326 21 432 -10z"/>
</g>
</svg>
