<svg width="76" height="56" viewBox="0 0 76 56" fill="none" xmlns="http://www.w3.org/2000/svg">
<path d="M38.0003 40.0118C33.0417 40.0121 28.2597 38.1704 24.5823 34.844C20.905 31.5177 18.5946 26.9439 18.0992 22.0102C17.6037 17.0764 18.9587 12.1345 21.9012 8.14341C24.8437 4.15229 29.1639 1.39652 34.0235 0.410868C38.8831 -0.57478 43.9355 0.279982 48.2005 2.80924C52.4655 5.33851 55.639 9.36195 57.105 14.0989C58.571 18.8358 58.225 23.9483 56.1343 28.4446C54.0436 32.9408 50.3572 36.5001 45.7903 38.4318C43.3263 39.477 40.6768 40.0143 38.0003 40.0118ZM34.6502 27.0918C34.4603 27.0986 34.2749 27.1525 34.1109 27.2485C33.9468 27.3444 33.8093 27.4796 33.7102 27.6418C33.5161 27.9511 33.4323 28.317 33.4722 28.6801C33.5121 29.0431 33.6735 29.382 33.9302 29.6418C35.0986 30.6248 36.5733 31.1694 38.1001 31.1818C38.9593 31.1673 39.807 30.9832 40.5948 30.6399C41.3825 30.2967 42.0947 29.8012 42.6902 29.1818C42.9273 28.9064 43.0644 28.5588 43.0789 28.1957C43.0934 27.8326 42.9846 27.4753 42.7703 27.1818C42.6642 27.0364 42.5258 26.9175 42.3662 26.8342C42.2067 26.751 42.0301 26.7056 41.8501 26.7018C41.7016 26.7032 41.5548 26.735 41.419 26.7951C41.2831 26.8553 41.1612 26.9427 41.0603 27.0518L41.0103 27.1018C40.2588 27.8523 39.255 28.2967 38.1941 28.3484C37.1333 28.4002 36.0913 28.0556 35.2703 27.3818C35.0663 27.1907 34.7997 27.0805 34.5203 27.0718L34.6502 27.0918ZM45.1001 16.7118C45.9802 16.7296 46.8191 17.0881 47.4402 17.7118C47.5211 17.8024 47.6195 17.8757 47.7295 17.9272C47.8395 17.9788 47.9587 18.0075 48.0801 18.0118C48.2176 18.0074 48.3525 17.9728 48.4751 17.9106C48.5978 17.8484 48.7055 17.7601 48.7903 17.6518C48.9705 17.4279 49.0686 17.1492 49.0686 16.8618C49.0686 16.5744 48.9705 16.2956 48.7903 16.0718C47.8974 15.1596 46.6893 14.6235 45.4139 14.5733C44.1384 14.5231 42.8921 14.9627 41.9302 15.8018C41.7199 15.9975 41.5849 16.2607 41.5484 16.5456C41.5118 16.8306 41.5762 17.1193 41.7303 17.3618C41.806 17.495 41.9148 17.6064 42.0462 17.6853C42.1776 17.7641 42.3271 17.8077 42.4803 17.8118C42.6908 17.802 42.8919 17.7208 43.0503 17.5818H43.1101C43.713 17.0842 44.4686 16.8088 45.2503 16.8018L45.1001 16.7118ZM30.1001 16.7118C30.9802 16.7296 31.8191 17.0881 32.4402 17.7118C32.5242 17.8102 32.6294 17.8881 32.7481 17.9397C32.8667 17.9912 32.9956 18.015 33.1248 18.0093C33.254 18.0035 33.3804 17.9682 33.4939 17.9063C33.6075 17.8443 33.7055 17.7573 33.7803 17.6518C33.9605 17.4279 34.0586 17.1492 34.0586 16.8618C34.0586 16.5744 33.9605 16.2956 33.7803 16.0718C32.8318 15.1236 31.5513 14.5821 30.2102 14.5618C29.0011 14.5712 27.8348 15.0108 26.9202 15.8018C26.7149 16.0006 26.5833 16.2633 26.5469 16.5467C26.5106 16.8302 26.5717 17.1176 26.7203 17.3618C26.7817 17.4767 26.8687 17.5759 26.9746 17.6518C27.0806 17.7277 27.2025 17.7782 27.3311 17.7995C27.4596 17.8207 27.5914 17.8121 27.7161 17.7744C27.8408 17.7366 27.9552 17.6707 28.0503 17.5818H28.1001C28.7077 17.0856 29.4659 16.8106 30.2503 16.8018L30.1001 16.7118Z" fill="#FFC9C9"/>
<path d="M11.1902 41.7603L7.39019 39.3303C7.39019 39.3303 5.49032 38.2703 6.03032 37.3303C6.57032 36.3903 8.11016 37.1904 8.11016 37.1904L12.6702 39.4404L13.3401 38.9904L6.0103 31.7404C6.0103 31.7404 4.88029 30.8604 5.50029 29.8704C6.12029 28.8804 7.44023 29.6704 7.44023 29.6704L15.3602 36.5103L15.9603 36.1003L8.54033 26.4204C8.54033 26.4204 7.02035 24.5904 8.06035 23.7404C9.10035 22.8904 10.4703 24.4404 10.4703 24.4404L18.3104 33.3104L18.9102 32.9003L13.8301 25.3604C13.8301 25.3604 12.4402 23.0504 13.6702 22.2904C14.9002 21.5304 16.2903 23.7003 16.2903 23.7003L21.1702 30.9404L23.3802 32.7703C23.3802 32.7703 24.3802 33.5003 24.9502 33.0903C25.5202 32.6803 25.8003 31.1403 25.8003 31.1403C25.8003 31.1403 24.8503 28.6203 25.4603 27.1403C25.7233 26.6759 26.0905 26.2789 26.533 25.9804C26.9755 25.682 27.4812 25.4903 28.0103 25.4204L28.1302 28.8004C28.9826 32.1957 29.5084 35.6649 29.7002 39.1603C29.7002 43.4803 29.7002 43.4803 29.7002 43.4803L30.7603 46.0103L25.2403 50.4803L23.2403 48.9604L22.3602 48.7603C22.3602 48.7603 20.6702 48.8703 17.8802 47.1203C15.5214 45.5006 13.2854 43.7091 11.1902 41.7603Z" fill="#FF8080"/>
<path d="M64.8003 41.7603L68.6101 39.3403C68.6101 39.3403 70.5002 38.2703 69.9702 37.3403C69.4402 36.4103 67.8801 37.2103 67.8801 37.2103L63.3301 39.4503L62.6501 39.0004L69.9902 31.7504C69.9902 31.7504 71.1202 30.8604 70.4902 29.8704C69.8602 28.8804 68.5603 29.6804 68.5603 29.6804L60.6301 36.5203L60.0303 36.1104L67.4502 26.4204C67.4502 26.4204 68.9702 24.6004 67.9402 23.7404C66.9102 22.8804 65.5203 24.4503 65.5203 24.4503L57.6802 33.3104L57.0801 32.9103L62.1702 25.3704C62.1702 25.3704 63.5501 23.0504 62.3301 22.2904C61.1101 21.5304 59.7102 23.7003 59.7102 23.7003L54.8203 30.9404L52.6101 32.7703C52.6101 32.7703 51.6103 33.5103 51.0503 33.1003C50.4903 32.6903 50.1902 31.1003 50.1902 31.1003C50.1902 31.1003 51.1903 28.5903 50.5303 27.1003C50.2672 26.6359 49.9 26.2389 49.4575 25.9404C49.015 25.642 48.5093 25.4502 47.9802 25.3803L47.8701 28.7603C47.0223 32.1556 46.5065 35.6253 46.3301 39.1204C46.3301 43.4404 46.3301 43.4404 46.3301 43.4404L45.2603 45.9704L50.7903 50.4404L52.7903 48.9204L53.6702 48.7204C53.6702 48.7204 55.3601 48.8304 58.1401 47.0804C60.4849 45.4692 62.7109 43.6912 64.8003 41.7603Z" fill="#FF8080"/>
</svg>
