<svg width="27" height="26" viewBox="0 0 27 26" fill="none" xmlns="http://www.w3.org/2000/svg">
<path d="M13.1414 2C11.6875 1.99513 10.2471 2.27724 8.90374 2.82999C7.56037 3.38273 6.34078 4.19511 5.31562 5.22C4.28469 6.23917 3.46766 7.45166 2.91167 8.78717C2.35567 10.1227 2.07181 11.5546 2.07671 13C2.07181 14.4454 2.35567 15.8773 2.91167 17.2128C3.46766 18.5483 4.28469 19.7608 5.31562 20.78C6.34078 21.8049 7.56037 22.6173 8.90374 23.17C10.2471 23.7227 11.6875 24.0049 13.1414 24C14.5953 24.0049 16.0357 23.7227 17.3791 23.17C18.7225 22.6173 19.942 21.8049 20.9672 20.78C21.9981 19.7608 22.8152 18.5483 23.3712 17.2128C23.9272 15.8773 24.211 14.4454 24.2061 13C24.211 11.5546 23.9272 10.1227 23.3712 8.78717C22.8152 7.45166 21.9981 6.23917 20.9672 5.22C19.942 4.19511 18.7225 3.38273 17.3791 2.82999C16.0357 2.27724 14.5953 1.99513 13.1414 2ZM13.1414 0C16.6095 0 19.9356 1.36964 22.3879 3.80762C24.8402 6.24559 26.2179 9.55219 26.2179 13C26.2179 16.4478 24.8402 19.7544 22.3879 22.1924C19.9356 24.6304 16.6095 26 13.1414 26C9.67332 26 6.34727 24.6304 3.89496 22.1924C1.44264 19.7544 0.0649414 16.4478 0.0649414 13C0.0649414 9.55219 1.44264 6.24559 3.89496 3.80762C6.34727 1.36964 9.67332 0 13.1414 0Z" fill="white"/>
<path d="M13.1411 6V20" stroke="white" stroke-width="3"/>
<path d="M20.1825 13H6.1001" stroke="white" stroke-width="3"/>
</svg>
