<svg width="30" height="30" viewBox="0 0 30 30" fill="none" xmlns="http://www.w3.org/2000/svg">
<path d="M15 3C12.2234 2.99987 9.53274 3.96262 7.38647 5.72412C5.2402 7.48562 3.77114 9.93688 3.22974 12.6602C2.68834 15.3834 3.10805 18.2102 4.41736 20.6587C5.72667 23.1072 7.84454 25.0259 10.41 26.0878C12.9755 27.1497 15.8299 27.2891 18.4867 26.4822C21.1434 25.6753 23.4381 23.9721 24.9797 21.6628C26.5214 19.3536 27.2145 16.5811 26.941 13.8181C26.6676 11.055 25.4444 8.47225 23.48 6.51001C21.2301 4.2626 18.1801 3.00015 15 3ZM15 0C17.9667 0 20.8668 0.879794 23.3335 2.52802C25.8002 4.17624 27.7228 6.51887 28.8582 9.25977C29.9935 12.0007 30.2906 15.0167 29.7118 17.9264C29.133 20.8361 27.7044 23.5088 25.6066 25.6066C23.5088 27.7044 20.8361 29.133 17.9264 29.7118C15.0167 30.2906 12.0007 29.9935 9.25977 28.8582C6.51887 27.7229 4.17618 25.8003 2.52795 23.3336C0.879733 20.8668 0 17.9667 0 15C0 11.0218 1.58039 7.20648 4.39343 4.39343C7.20648 1.58039 11.0218 0 15 0Z" fill="white"/>
<path d="M15 8V22" stroke="white" stroke-width="3"/>
<path d="M22 15H8" stroke="white" stroke-width="3"/>
</svg>
