<svg width="32" height="32" viewBox="0 0 32 32" fill="none" xmlns="http://www.w3.org/2000/svg">
<path d="M15.938 18.4821C13.9837 18.4988 12.1411 17.6445 10.8848 16.1425C9.9244 14.9923 9.38836 13.5294 9.3772 12.0329C9.36045 10.0842 10.2092 8.24721 11.7 6.99088C13.1908 5.74014 15.1675 5.22644 17.1162 5.5838C19.7293 6.06958 21.8009 8.15228 22.2755 10.7766C22.6161 12.6583 22.1303 14.5847 20.9466 16.0532C19.7181 17.5775 17.8923 18.4653 15.938 18.4821Z" fill="#40BCC9"/>
<path d="M22.3823 29.3639C23.2198 29.7994 24.7888 28.3086 24.5097 27.7893L25.967 26.8736C25.9782 19.2463 21.5894 18.0961 21.4051 18.0514L20.9529 17.9453L20.5955 18.2412C20.5788 18.258 18.725 19.7656 15.9666 19.8158H15.9108C15.8829 19.8158 15.855 19.8158 15.8215 19.8158C12.9124 19.8382 11.3825 18.4311 11.3266 18.3753L10.9525 18.0123L10.45 18.1407C10.2601 18.191 5.89929 19.4138 6.0333 27.0411L13.7053 30.341L22.3823 29.3639Z" fill="#40BCC9"/>
<path d="M15.9982 2.79183C16.3556 2.79183 16.7185 2.80858 17.0758 2.8365C23.4636 3.33903 28.6564 8.53743 29.1645 14.9196C29.4604 18.6606 28.232 22.223 25.7026 24.959C23.2067 27.6559 19.6723 29.2026 15.9982 29.2026C15.6408 29.2026 15.2779 29.1858 14.9206 29.1579C8.53284 28.6554 3.34002 23.457 2.83749 17.0693C2.54156 13.3282 3.76997 9.76583 6.29937 7.02984C8.78968 4.33851 12.3241 2.79183 15.9982 2.79183ZM15.9982 0C6.73489 0 -0.691383 7.87297 0.0512447 17.2982C0.659864 25.0539 6.94707 31.3355 14.6972 31.9497C15.1327 31.9832 15.5683 32 15.9982 32C25.2615 32 32.6878 24.127 31.9452 14.7018C31.3365 6.94608 25.0493 0.658873 17.2936 0.0502531C16.8581 0.0167511 16.4281 0 15.9982 0Z" fill="#40BCC9"/>
</svg>
