<svg width="14" height="25" viewBox="0 0 14 25" fill="none" xmlns="http://www.w3.org/2000/svg">
<path d="M4.07021 12.8024L13.0072 3.87241C13.3233 3.55534 13.5006 3.12567 13.4999 2.67793C13.4993 2.23019 13.3208 1.80104 13.0037 1.48491C12.6866 1.16877 12.257 0.991533 11.8092 0.992189C11.3615 0.992846 10.9323 1.17134 10.6162 1.48841L0.491208 11.6024C0.185292 11.9095 0.00949959 12.3227 0.000373853 12.7561C-0.00875188 13.1895 0.149491 13.6097 0.442208 13.9294L10.6092 24.1224C10.9253 24.4395 11.3545 24.618 11.8022 24.6186C12.25 24.6193 12.6796 24.442 12.9967 24.1259C13.3138 23.8098 13.4923 23.3806 13.4929 22.9329C13.4936 22.4851 13.3163 22.0555 13.0002 21.7384L4.07021 12.8024Z" fill="#787878"/>
</svg>
