<svg width="15" height="13" viewBox="0 0 15 13" fill="none" xmlns="http://www.w3.org/2000/svg">
<path d="M5.36059 12.2037L0.29872 7.20913C0.204218 7.11688 0.129121 7.00665 0.0778472 6.88494C0.0265739 6.76323 0.000158996 6.6325 0.000159001 6.50043C0.000159007 6.36837 0.0265739 6.23763 0.0778472 6.11592C0.129121 5.99422 0.204218 5.88399 0.29872 5.79174L5.36059 0.792759C5.5516 0.60513 5.80864 0.5 6.07638 0.5C6.34412 0.5 6.60116 0.60513 6.79216 0.792759C6.88667 0.885015 6.96176 0.995239 7.01304 1.11695C7.06431 1.23866 7.09072 1.36939 7.09072 1.50146C7.09072 1.63352 7.06431 1.76426 7.01304 1.88597C6.96176 2.00767 6.88667 2.1179 6.79216 2.21016L3.45863 5.50206L13.1625 5.50206C13.2963 5.49807 13.4295 5.52098 13.5543 5.56943C13.679 5.61788 13.7928 5.69088 13.8888 5.7841C13.9849 5.87733 14.0612 5.98888 14.1134 6.11216C14.1655 6.23543 14.1924 6.36792 14.1924 6.50176C14.1924 6.63561 14.1655 6.76809 14.1134 6.89137C14.0612 7.01464 13.9849 7.1262 13.8888 7.21942C13.7928 7.31265 13.679 7.38564 13.5543 7.43409C13.4295 7.48254 13.2963 7.50545 13.1625 7.50147L3.45863 7.50147L6.79216 10.7934C6.88667 10.8856 6.96176 10.9958 7.01304 11.1176C7.06431 11.2393 7.09072 11.37 7.09072 11.5021C7.09072 11.6341 7.06431 11.7649 7.01304 11.8866C6.96176 12.0083 6.88667 12.1185 6.79216 12.2108C6.60023 12.3975 6.34267 12.5013 6.07493 12.5C5.80718 12.4987 5.55067 12.3923 5.36059 12.2037Z" fill="#966FD9"/>
</svg>
