<?xml version="1.0" encoding="utf-8"?>
<!-- Generator: Adobe Illustrator 26.2.1, SVG Export Plug-In . SVG Version: 6.00 Build 0)  -->
<svg version="1.1" id="Layer_1" xmlns="http://www.w3.org/2000/svg" xmlns:xlink="http://www.w3.org/1999/xlink" x="0px" y="0px"
	 viewBox="0 0 14 25" style="enable-background:new 0 0 14 25;" xml:space="preserve">
<style type="text/css">
	.st0{fill:#787878;}
</style>
<path class="st0" d="M0.7,21.7c-0.3,0.3-0.5,0.7-0.5,1.2c0,0.4,0.2,0.9,0.5,1.2c0.3,0.3,0.7,0.5,1.2,0.5c0.4,0,0.9-0.2,1.2-0.5
	l10.2-10.2c0.3-0.3,0.5-0.7,0.4-1.2s-0.2-0.8-0.5-1.2L3,1.5C2.7,1.2,2.3,1,1.8,1C1.4,1,1,1.2,0.7,1.5C0.3,1.8,0.2,2.2,0.2,2.7
	c0,0.4,0.2,0.9,0.5,1.2l8.9,8.9L0.7,21.7z"/>
</svg>
