<svg width="36" height="39" viewBox="0 0 36 39" fill="none" xmlns="http://www.w3.org/2000/svg">
<g clip-path="url(#clip0_1543_47109)">
<path d="M17.5656 39.0014C11.7155 39.0014 9.76562 35.1016 9.76562 35.1016H25.3656C25.3656 35.1016 23.4157 39.0014 17.5656 39.0014Z" fill="#40BCC9"/>
<path d="M14.0749 3.49058C14.0749 3.73119 14.0991 3.96544 14.1457 4.19214C3.28371 6.31169 12.1386 19.4989 0.84853 26.7943C0.396029 27.0863 0.0151367 27.7365 0.0151367 28.2752V32.175C0.0151367 32.7137 0.451612 33.1502 0.990292 33.1502H34.1403C34.6789 33.1502 35.1154 32.7137 35.1154 32.175V28.2752C35.1154 27.7365 34.7346 27.0861 34.2821 26.794C22.9922 19.4993 31.8473 6.3113 20.9849 4.19183C21.0309 3.96513 21.0556 3.73088 21.0556 3.49027C21.0556 1.56271 19.4929 0 17.5651 0C15.6372 0 14.0745 1.56271 14.0745 3.49058H14.0749Z" fill="#40BCC9"/>
</g>
<defs>
<clipPath id="clip0_1543_47109">
<rect width="35.131" height="39" fill="white"/>
</clipPath>
</defs>
</svg>
