<svg width="41" height="40" viewBox="0 0 41 40" fill="none" xmlns="http://www.w3.org/2000/svg">
<path d="M20.0823 0C16.1267 0 12.2597 1.17298 8.97071 3.37061C5.68173 5.56823 3.1185 8.69179 1.60474 12.3463C0.090992 16.0008 -0.305143 20.0222 0.466561 23.9019C1.23827 27.7815 3.14314 31.3452 5.94019 34.1422C8.73724 36.9393 12.3008 38.844 16.1804 39.6157C20.06 40.3874 24.0813 39.9914 27.7358 38.4777C31.3904 36.9639 34.514 34.4004 36.7117 31.1115C38.9093 27.8225 40.0823 23.9556 40.0823 20C40.0823 14.6957 37.9751 9.60864 34.2244 5.85791C30.4736 2.10718 25.3866 0 20.0823 0ZM13.5723 24.29C12.4818 25.1213 11.1486 25.5715 9.77735 25.5715C8.40614 25.5715 7.07269 25.1213 5.98219 24.29L5.92213 24.24C5.71261 24.0583 5.58391 23.8009 5.56422 23.5243C5.54453 23.2477 5.63547 22.9745 5.81715 22.765C5.99882 22.5555 6.25635 22.4268 6.53297 22.4071C6.80958 22.3874 7.08272 22.4784 7.29224 22.66C8.01687 23.1929 8.89279 23.4802 9.79224 23.4802C10.6917 23.4802 11.5676 23.1929 12.2922 22.66H12.3423C12.5623 22.4922 12.8391 22.417 13.1138 22.4507C13.3885 22.4843 13.6392 22.6241 13.8123 22.8401C13.9034 22.9457 13.9714 23.0691 14.012 23.2025C14.0525 23.336 14.0646 23.4764 14.0476 23.6149C14.0307 23.7533 13.9851 23.8866 13.9136 24.0063C13.842 24.1261 13.7462 24.2296 13.6323 24.3101L13.5723 24.29ZM25.2922 33.86C23.8054 34.9985 21.985 35.6156 20.1123 35.6156C18.2396 35.6156 16.419 34.9985 14.9321 33.86C14.9011 33.8422 14.8741 33.8184 14.8523 33.79C14.6002 33.5343 14.4535 33.1931 14.4414 32.8342C14.4293 32.4754 14.5528 32.1251 14.7871 31.853C15.0214 31.5809 15.3494 31.4069 15.7061 31.3656C16.0628 31.3243 16.4219 31.4187 16.7122 31.63C17.6974 32.3508 18.8865 32.7393 20.1072 32.7393C21.3279 32.7393 22.517 32.3508 23.5022 31.63L23.5823 31.5701C23.8827 31.3735 24.2462 31.2971 24.6003 31.3562C24.9545 31.4153 25.2735 31.6054 25.4939 31.8888C25.7143 32.1722 25.82 32.5282 25.79 32.886C25.7601 33.2438 25.5967 33.5772 25.3323 33.8201L25.2922 33.86ZM34.1921 24.3201C33.1016 25.1513 31.7684 25.6016 30.3972 25.6016C29.026 25.6016 27.6928 25.1513 26.6023 24.3201L26.5422 24.27C26.4385 24.1801 26.3534 24.0706 26.292 23.9478C26.2306 23.8249 26.1941 23.6913 26.1843 23.5543C26.1746 23.4174 26.1917 23.2798 26.2351 23.1495C26.2785 23.0193 26.3473 22.8988 26.4373 22.795C26.5272 22.6913 26.6367 22.6062 26.7595 22.5448C26.8823 22.4834 27.0161 22.4468 27.1531 22.437C27.2901 22.4273 27.4276 22.4446 27.5579 22.488C27.6881 22.5314 27.8084 22.6001 27.9121 22.6901C28.6367 23.2229 29.5127 23.5103 30.4121 23.5103C31.3116 23.5103 32.1875 23.2229 32.9121 22.6901H32.9722C33.191 22.5203 33.4682 22.4444 33.7429 22.4791C34.0177 22.5138 34.2675 22.6562 34.4373 22.875C34.607 23.0938 34.6829 23.3711 34.6482 23.6459C34.6135 23.9206 34.471 24.1703 34.2522 24.3401L34.1921 24.3201Z" fill="#FFB7E9"/>
</svg>
