<svg width="18" height="13" viewBox="0 0 18 13" fill="none" xmlns="http://www.w3.org/2000/svg">
<path d="M16.987 0.992259C16.7862 0.994614 16.5907 1.05735 16.426 1.17234L12.9834 3.52026V9.13661L16.426 11.4845C16.5909 11.5973 16.7851 11.6594 16.9848 11.6631H16.9944C17.2585 11.6655 17.5127 11.5629 17.7011 11.378C17.8896 11.193 17.9969 10.9407 17.9994 10.6767V1.97796C17.9955 1.71311 17.8868 1.46062 17.697 1.27584C17.5072 1.09106 17.2519 0.989091 16.987 0.992259Z" fill="#C4C4C4"/>
<path d="M10.5101 0H9.16195V0.00517946V0H1.47487C1.08201 0.00487448 0.706903 0.164357 0.430832 0.443895C0.154761 0.723434 -2.06199e-05 1.1005 9.61997e-06 1.49338V11.1534C-0.00140209 11.5476 0.152611 11.9264 0.428706 12.2078C0.704801 12.4892 1.08071 12.6504 1.47487 12.6564H2.8578L2.87929 12.6609H9.15824V12.6482H10.5108C10.7069 12.6477 10.901 12.6085 11.082 12.5329C11.2629 12.4573 11.4272 12.3468 11.5655 12.2077C11.7038 12.0686 11.8133 11.9037 11.8878 11.7222C11.9623 11.5408 12.0003 11.3465 11.9998 11.1504V5.98467H11.9953L11.9998 1.49042C11.999 1.0955 11.8418 0.716972 11.5626 0.437653C11.2834 0.158334 10.905 0.00097917 10.5101 0ZM0.00964477 4.11109V8.54532L0.00145715 6.3219L0.00964477 4.11109Z" fill="#C4C4C4"/>
</svg>
