<svg width="16" height="20" viewBox="0 0 16 20" fill="none" xmlns="http://www.w3.org/2000/svg">
<path d="M4.53771 11.3319C5.38321 12.5643 6.45578 13.6774 7.71583 14.63L10.6192 13.2277C10.7957 13.1421 10.9973 13.0995 11.2012 13.1046C11.4052 13.1098 11.6034 13.1625 11.7736 13.2568C12.7597 13.8001 13.8327 14.2237 14.9606 14.515C15.2323 14.5784 15.463 14.7291 15.6024 14.9344C15.6753 15.0382 15.7227 15.1531 15.7419 15.2724C15.7611 15.3917 15.7516 15.513 15.7141 15.6292L14.7337 18.696C14.6994 18.8112 14.6374 18.9194 14.5515 19.0138C14.4656 19.1083 14.3576 19.187 14.234 19.2453C14.1106 19.3057 13.9742 19.3451 13.8325 19.3612C13.6909 19.3774 13.5468 19.3699 13.4085 19.3393C8.86287 18.2146 5.00507 15.6727 2.63118 12.2381C0.25729 8.80354 -0.451538 4.73835 0.650952 0.881417C0.729208 0.648647 0.913319 0.450869 1.16383 0.330478C1.41434 0.210087 1.7113 0.176668 1.99108 0.237373L5.65603 1.06045C5.79423 1.0915 5.92367 1.14528 6.03678 1.21865C6.1499 1.29203 6.24443 1.38353 6.31485 1.4878C6.45332 1.69262 6.49382 1.93373 6.42816 2.16243C6.16446 3.12804 6.06713 4.12036 6.13912 5.10926C6.15389 5.27904 6.11089 5.44881 6.01511 5.59891C5.91933 5.74902 5.77469 5.8733 5.59793 5.95738L2.69456 7.35972C3.04676 8.7587 3.66932 10.1004 4.53771 11.3319Z" fill="#29BA12"/>
</svg>
