<svg width="77" height="56" viewBox="0 0 77 56" fill="none" xmlns="http://www.w3.org/2000/svg">
<path d="M37.7104 38.988L35.0203 46.768C34.452 47.7779 33.5509 48.5591 32.4705 48.978C31.278 49.3888 29.9904 49.4375 28.7703 49.118L21.6604 46.668C22.2093 46.3595 22.6363 45.8726 22.8704 45.288C22.9632 44.7269 22.9081 44.1513 22.7104 43.618C22.7104 43.618 24.9404 43.868 25.4504 41.968C25.9604 40.068 24.8503 39.538 24.8503 39.538L22.3003 38.658L26.6704 35.178C26.9398 36.1385 27.3911 37.0381 28.0002 37.828C29.0002 39.058 30.3004 40.398 30.6204 40.128C30.9404 39.858 30.0203 38.838 30.0203 38.838C30.0203 38.838 29.3405 38.148 28.4805 37.078C27.6205 36.008 27.4803 34.758 26.5703 34.5581C25.6603 34.3581 23.4404 36.5581 23.4404 36.5581C23.4404 36.5581 21.7803 38.348 20.5703 38.378C19.3603 38.408 18.3604 36.888 18.3604 36.888L21.3604 33.768C21.6639 32.8999 22.1674 32.1154 22.8303 31.478C23.5261 30.9762 24.2737 30.5504 25.0603 30.208C26.3107 29.8199 27.6569 29.8764 28.8704 30.368C30.9132 31.0189 32.7769 32.1354 34.3145 33.6296C35.852 35.1238 37.0215 36.9547 37.7305 38.978L37.7104 38.988Z" fill="#6BD8FA"/>
<path d="M22.2902 30.6394C21.9512 31.4225 21.5287 32.1669 21.0301 32.8594C20.533 33.5098 19.9589 34.0974 19.3202 34.6094C18.7627 35.1159 18.2751 35.6943 17.8702 36.3294C17.7624 36.5055 17.7052 36.7079 17.7052 36.9144C17.7052 37.1209 17.7624 37.3234 17.8702 37.4994L4.58019 35.1194C4.58019 35.1194 2.98014 34.5994 3.28014 33.2294C3.38229 32.8397 3.61445 32.4964 3.9381 32.2564C4.26175 32.0164 4.65754 31.894 5.06017 31.9094L17.1903 33.9094C17.1903 33.9094 18.9402 34.3794 19.1302 33.9094C19.3202 33.4394 17.6603 32.5794 17.6603 32.5794L7.66027 26.2894C7.27394 26.0383 6.99578 25.6514 6.88097 25.2051C6.76617 24.7589 6.82297 24.2858 7.04015 23.8794C7.87015 22.4394 9.48034 23.4094 9.48034 23.4094L20.9003 30.2194L22.2902 30.6394Z" fill="#6BD8FA"/>
<path d="M22.9603 39.5603L17.8101 38.1302C17.8101 38.1302 16.5401 37.7003 16.0001 39.3103C15.4601 40.9203 16.7103 41.3103 16.7103 41.3103L22.2403 42.8702C22.2403 42.8702 24.3103 43.3903 24.6903 41.7303C25.0703 40.0703 22.9603 39.5603 22.9603 39.5603Z" fill="#6BD8FA"/>
<path d="M18.0299 42.311L20.9201 43.071C21.3078 43.1743 21.6389 43.4268 21.8412 43.7734C22.0435 44.12 22.1006 44.5325 21.9999 44.921L21.9401 45.091C21.8878 45.2907 21.7964 45.4781 21.6715 45.6425C21.5467 45.807 21.3906 45.9452 21.2123 46.0493C21.034 46.1533 20.8368 46.2211 20.6322 46.2488C20.4276 46.2766 20.2195 46.2638 20.0199 46.211L19.86 46.1509L16.7201 45.2309C16.7201 45.2309 15.05 44.7109 15.58 43.2309C16.11 41.7509 18.0299 42.311 18.0299 42.311Z" fill="#6BD8FA"/>
<path d="M51.4199 0.0117188C47.4643 0.0117188 43.5973 1.1847 40.3084 3.38232C37.0194 5.57995 34.4561 8.70357 32.9424 12.3581C31.4286 16.0126 31.0325 20.034 31.8042 23.9136C32.5759 27.7932 34.4808 31.3568 37.2778 34.1539C40.0749 36.9509 43.6385 38.8557 47.5181 39.6274C51.3977 40.3991 55.419 40.0031 59.0735 38.4893C62.728 36.9756 65.8517 34.4122 68.0493 31.1232C70.247 27.8342 71.4199 23.9673 71.4199 20.0117C71.4199 14.7074 69.3127 9.62036 65.562 5.86963C61.8113 2.1189 56.7243 0.0117188 51.4199 0.0117188ZM41.4199 17.1517C41.4199 16.5865 41.5873 16.0339 41.9011 15.5638C42.215 15.0937 42.6611 14.7272 43.1831 14.5104C43.7051 14.2937 44.2797 14.2365 44.8342 14.346C45.3887 14.4556 45.8982 14.7269 46.2986 15.1259C46.699 15.5249 46.9723 16.0336 47.0837 16.5877C47.1952 17.1418 47.14 17.7166 46.9251 18.2393C46.7101 18.7621 46.345 19.2094 45.876 19.5249C45.407 19.8404 44.855 20.0097 44.2898 20.0117C43.5313 20.0117 42.8039 19.7104 42.2676 19.1741C41.7312 18.6377 41.4299 17.9103 41.4299 17.1517H41.4199ZM58.8198 26.8118C58.8198 29.6418 55.5099 31.9318 51.4299 31.9318C47.3499 31.9318 44.0298 29.6318 44.0298 26.8118H58.8198ZM58.5698 20.0117C58.0046 20.0117 57.452 19.8443 56.9819 19.5305C56.5118 19.2166 56.1452 18.7705 55.9285 18.2485C55.7117 17.7265 55.6546 17.152 55.7642 16.5975C55.8737 16.043 56.145 15.5333 56.544 15.1329C56.9429 14.7326 57.4517 14.4594 58.0059 14.3479C58.56 14.2364 59.1347 14.2917 59.6575 14.5066C60.1802 14.7215 60.6277 15.0865 60.9431 15.5555C61.2586 16.0245 61.428 16.5765 61.4299 17.1417C61.4299 17.9002 61.1286 18.6277 60.5923 19.1641C60.0559 19.7004 59.3284 20.0018 58.5698 20.0018" fill="#E8FAFF"/>
</svg>
