<svg width="20" height="20" viewBox="0 0 20 20" fill="none" xmlns="http://www.w3.org/2000/svg">
<path d="M0.328891 0.318485C0.534036 0.114504 0.81163 0 1.10089 0C1.39015 0 1.66721 0.114504 1.87235 0.318485L19.6759 18.1263C19.7785 18.2282 19.8598 18.3493 19.9154 18.4828C19.971 18.6162 19.9999 18.7594 19.9999 18.9039C19.9999 19.0485 19.971 19.1917 19.9154 19.3251C19.8598 19.4586 19.7785 19.5797 19.6759 19.6815C19.4708 19.8855 19.1932 20 18.9039 20C18.6147 20 18.3371 19.8855 18.1319 19.6815L0.328891 1.8627C0.124962 1.6575 0.0102539 1.37992 0.0102539 1.09058C0.0102539 0.801248 0.124962 0.523683 0.328891 0.318485Z" fill="#787878"/>
<path d="M0.318104 19.6706C0.114174 19.4654 0 19.1878 0 18.8985C0 18.6091 0.114174 18.3315 0.318104 18.1263L18.1324 0.318485C18.3376 0.114504 18.6152 0 18.9044 0C19.1937 0 19.4713 0.114504 19.6765 0.318485V0.318485C19.8804 0.523683 19.9946 0.801248 19.9946 1.09058C19.9946 1.37992 19.8804 1.6575 19.6765 1.8627L1.84019 19.6706C1.63602 19.868 1.36337 19.9783 1.07941 19.9783C0.79546 19.9783 0.522269 19.868 0.318104 19.6706V19.6706Z" fill="#787878"/>
</svg>
