<svg width="77" height="56" viewBox="0 0 77 56" fill="none" xmlns="http://www.w3.org/2000/svg">
<path d="M49.4202 0C45.4645 0 41.5976 1.17298 38.3086 3.37061C35.0196 5.56823 32.4564 8.69179 30.9426 12.3463C29.4289 16.0008 29.0327 20.0222 29.8045 23.9018C30.5762 27.7814 32.481 31.345 35.2781 34.1421C38.0751 36.9391 41.6387 38.844 45.5183 39.6157C49.3979 40.3874 53.4192 39.9913 57.0737 38.4775C60.7283 36.9638 63.8519 34.4004 66.0496 31.1114C68.2472 27.8224 69.4202 23.9556 69.4202 20C69.4202 14.6957 67.313 9.60858 63.5623 5.85785C59.8115 2.10712 54.7245 0 49.4202 0ZM39.4202 17.15C39.4202 16.5843 39.5878 16.0314 39.9021 15.561C40.2164 15.0907 40.663 14.7242 41.1856 14.5077C41.7082 14.2912 42.2834 14.2346 42.8381 14.3449C43.3929 14.4553 43.9025 14.7276 44.3025 15.1276C44.7025 15.5276 44.9749 16.0373 45.0852 16.592C45.1956 17.1468 45.1388 17.7218 44.9224 18.2444C44.7059 18.767 44.3395 19.2137 43.8691 19.528C43.3988 19.8422 42.8457 20.0099 42.28 20.0099C41.5232 20.01 40.7973 19.71 40.2612 19.1758C39.7252 18.6416 39.4228 17.9168 39.4202 17.16V17.15ZM56.5701 20.0099C56.004 20.0119 55.4502 19.8459 54.9785 19.5328C54.5069 19.2198 54.1387 18.7738 53.9207 18.2514C53.7027 17.729 53.6447 17.1536 53.7539 16.5981C53.8631 16.0427 54.1346 15.5322 54.5342 15.1312C54.9338 14.7302 55.4435 14.4569 55.9985 14.3457C56.5536 14.2345 57.1292 14.2905 57.6524 14.5067C58.1755 14.7229 58.6228 15.0895 58.9375 15.56C59.2522 16.0305 59.4202 16.5839 59.4202 17.15C59.4215 17.5251 59.3487 17.8968 59.2061 18.2437C59.0634 18.5906 58.8537 18.906 58.5889 19.1717C58.3241 19.4374 58.0095 19.6482 57.6631 19.7921C57.3167 19.9359 56.9452 20.01 56.5701 20.0099ZM54.7302 27.96H45.27C44.8559 27.9276 44.4693 27.7404 44.1873 27.4354C43.9052 27.1305 43.7485 26.7304 43.7485 26.315C43.7485 25.8996 43.9052 25.4995 44.1873 25.1945C44.4693 24.8896 44.8559 24.7023 45.27 24.67H54.7302C55.1652 24.67 55.5823 24.8428 55.8899 25.1503C56.1975 25.4579 56.3701 25.875 56.3701 26.31C56.3701 26.745 56.1975 27.162 55.8899 27.4696C55.5823 27.7772 55.1652 27.95 54.7302 27.95V27.96Z" fill="#BEFDF4"/>
<path d="M5.96013 7.40862C6.17772 7.2578 6.44614 7.1994 6.70671 7.24626C6.96728 7.29313 7.19862 7.44143 7.35002 7.65862L18.8 23.8486C18.9591 24.0608 19.0274 24.3275 18.9899 24.59C18.9524 24.8526 18.8122 25.0895 18.6 25.2486C18.3878 25.4078 18.1211 25.4761 17.8586 25.4386C17.596 25.4011 17.3592 25.2608 17.2001 25.0486L5.74016 8.84862C5.58934 8.63103 5.53094 8.36248 5.5778 8.10191C5.62467 7.84135 5.77297 7.61001 5.99016 7.4586" fill="white"/>
<path d="M12.4302 32.3683C14.0035 31.1183 15.6757 29.9979 17.4302 29.0183C18.3178 28.7906 19.2395 28.7262 20.1501 28.8283C20.4801 28.9583 20.5502 29.8283 20.4602 30.3383C19.7419 30.2909 19.023 30.425 18.3701 30.7283C16.9001 31.4283 13.6901 34.0383 13.0701 34.2483C12.6901 33.692 12.4722 33.0412 12.4402 32.3683" fill="#2BD0B7"/>
<path d="M18.8802 31.3972C19.5902 31.2072 23.4203 30.8672 23.4203 30.8672C24.2203 31.0072 24.1203 31.8672 24.1803 32.5272C24.1803 33.5272 23.4703 33.6072 23.4703 33.6072C23.4703 33.6072 20.7903 33.9771 19.7103 34.1971C18.6303 34.4171 14.0602 38.1972 13.5902 37.9672C13.1202 37.7372 12.3403 35.8272 12.7103 35.4972C12.7103 35.4972 18.1702 31.5872 18.8802 31.3972Z" fill="#2BD0B7"/>
<path d="M19.9602 34.8173C20.6602 34.6173 24.4902 34.2773 24.4902 34.2773C25.2902 34.4173 25.19 35.2773 25.25 35.9473C25.25 36.9473 24.54 37.0173 24.54 37.0173C24.54 37.0173 21.86 37.3874 20.78 37.6074C19.7 37.8274 15.5702 41.2274 15.2202 41.2974C14.8053 41.0442 14.4559 40.6967 14.2004 40.2832C13.945 39.8697 13.7906 39.4017 13.75 38.9174C15.6828 37.3583 17.7589 35.9855 19.9502 34.8173" fill="#2BD0B7"/>
<path d="M33.2002 42.8484L27.3901 48.8484C26.7238 48.4616 26.0283 48.1272 25.3101 47.8484C24.4801 47.4484 23.7301 47.9684 22.8901 47.6184C22.0501 47.2684 19.2702 45.9384 17.9402 45.2484C17.1179 44.2724 16.3942 43.2173 15.78 42.0985C17.3865 40.7141 19.1135 39.4758 20.9402 38.3985C22.3658 38.0364 23.8115 37.7592 25.27 37.5685C25.64 37.4985 26.2701 38.3585 26.1501 38.8885C25.2601 39.3485 22.96 40.0085 22.27 40.2885C21.59 40.7285 19.8002 42.1684 19.9702 42.4984C20.0397 42.5879 20.1323 42.6568 20.238 42.6973C20.3438 42.7378 20.4586 42.7486 20.5701 42.7284C21.2513 42.1075 21.9838 41.5456 22.76 41.0485C23.25 40.8485 26.5201 39.8885 26.8701 39.6585C27.2201 39.4285 27.1001 39.0985 27.0801 38.6585C26.9686 38.1713 26.7722 37.7076 26.5 37.2885L26.1001 36.7085L26.2402 35.4485C26.2297 34.9882 26.1133 34.5365 25.9001 34.1285C25.706 33.7915 25.4126 33.5226 25.0601 33.3585V32.4485C25.0799 32.0216 25.0083 31.5954 24.8501 31.1985C24.6201 30.6385 24.64 30.4485 24.03 30.1285C23.1288 30.0067 22.2138 30.0303 21.3201 30.1985C21.2968 29.6159 21.2028 29.0384 21.04 28.4785C20.9884 28.3035 20.8838 28.1489 20.7405 28.036C20.5972 27.9232 20.4224 27.8576 20.2402 27.8485C19.2278 27.7998 18.2143 27.918 17.2402 28.1985C16.6602 28.3985 14.95 29.5485 14.52 29.5985C14.2563 29.5754 14.0005 29.4966 13.7695 29.3673C13.5385 29.2381 13.3377 29.0612 13.1802 28.8485C12.4302 28.2085 12.4302 26.0885 13.1802 26.3085C15.0528 26.4469 16.9342 26.41 18.8 26.1985C20.67 26.0885 21.4802 25.6885 22.9902 26.1985C24.5002 26.7085 29.09 32.8785 29.75 34.4785C30.88 37.2185 30.8901 40.3985 31.8901 41.4185" fill="#2BD0B7"/>
</svg>
