<svg width="39" height="43" viewBox="0 0 39 43" fill="none" xmlns="http://www.w3.org/2000/svg">
<path fill-rule="evenodd" clip-rule="evenodd" d="M31.2999 22.73L21.11 33.01C20.892 33.226 20.7336 33.4947 20.65 33.79L18.08 39.01H5.38002C3.95223 39.0073 2.58386 38.4383 1.57521 37.4278C0.566546 36.4172 6.83978e-06 35.0478 9.29707e-06 33.62V5.38998C-0.00130549 4.68263 0.136844 3.98198 0.406626 3.32809C0.676407 2.67421 1.07257 2.07992 1.57228 1.57928C2.07199 1.07865 2.66547 0.681457 3.31886 0.410461C3.97224 0.139466 4.67266 0 5.38002 0H27.23C27.9374 0 28.6378 0.139466 29.2912 0.410461C29.9445 0.681457 30.538 1.07865 31.0377 1.57928C31.5375 2.07992 31.9336 2.67421 32.2034 3.32809C32.4732 3.98198 32.6113 4.68263 32.61 5.38998V21.73C32.1257 21.9958 31.684 22.3329 31.2999 22.73ZM7.65442 7.01672H25.7744H25.7844C26.1701 7.04788 26.53 7.2231 26.7924 7.50753C27.0547 7.79196 27.2004 8.16475 27.2004 8.55172C27.2004 8.93869 27.0547 9.31148 26.7924 9.59591C26.53 9.88034 26.1701 10.0556 25.7844 10.0867H7.65442C7.44242 10.1039 7.22913 10.0769 7.02808 10.0075C6.82702 9.93813 6.64253 9.82786 6.48621 9.68365C6.32988 9.53944 6.20509 9.36443 6.11975 9.16961C6.03442 8.9748 5.99048 8.76441 5.99048 8.55172C5.99048 8.33904 6.03442 8.12865 6.11975 7.93383C6.20509 7.73902 6.32988 7.564 6.48621 7.41979C6.64253 7.27558 6.82702 7.16531 7.02808 7.09594C7.22913 7.02657 7.44242 6.99959 7.65442 7.01672ZM27.0665 14.6785C27.0665 14.4767 27.0266 14.2769 26.9491 14.0906C26.8716 13.9044 26.758 13.7353 26.6149 13.5931C26.4717 13.4508 26.3019 13.3384 26.1151 13.2621C25.9283 13.1858 25.7283 13.1472 25.5265 13.1485H7.40649C7.02078 13.1796 6.66094 13.3549 6.39856 13.6393C6.13618 13.9237 5.99048 14.2965 5.99048 14.6835C5.99048 15.0704 6.13618 15.4432 6.39856 15.7277C6.66094 16.0121 7.02078 16.1873 7.40649 16.2185H25.5365C25.9432 16.2158 26.3324 16.0524 26.619 15.7639C26.9057 15.4754 27.0665 15.0852 27.0665 14.6785ZM6.39856 19.7966C6.66094 19.5122 7.02078 19.3369 7.40649 19.3058H19.3165C19.5285 19.2887 19.7417 19.3156 19.9428 19.385C20.1438 19.4544 20.3283 19.5646 20.4846 19.7088C20.641 19.853 20.7657 20.0281 20.8511 20.2229C20.9364 20.4177 20.9805 20.6281 20.9805 20.8408C20.9805 21.0535 20.9364 21.2638 20.8511 21.4586C20.7657 21.6535 20.641 21.8285 20.4846 21.9727C20.3283 22.1169 20.1438 22.2272 19.9428 22.2966C19.7417 22.3659 19.5285 22.3929 19.3165 22.3758H7.40649C7.02078 22.3446 6.66094 22.1694 6.39856 21.885C6.13618 21.6005 5.99048 21.2278 5.99048 20.8408C5.99048 20.4538 6.13618 20.081 6.39856 19.7966Z" fill="white"/>
<path d="M36.869 30.9126L28.3289 39.5225C28.1414 39.7134 27.9069 39.8514 27.649 39.9225L22.0589 42.3925C21.7907 42.4692 21.5067 42.4716 21.2373 42.3993C20.9678 42.3271 20.723 42.183 20.529 41.9825C20.3356 41.778 20.1994 41.5261 20.1345 41.2522C20.0695 40.9783 20.078 40.6921 20.159 40.4225L22.729 34.9225C22.8008 34.673 22.9351 34.4459 23.119 34.2625L31.669 25.6225C33.499 23.7825 35.7589 23.0825 37.5689 24.9225C39.3789 26.7625 38.689 29.0626 36.869 30.9126Z" fill="white"/>
</svg>
