<svg width="51" height="40" viewBox="0 0 51 40" fill="none" xmlns="http://www.w3.org/2000/svg">
<path d="M30.502 0C26.5463 0 22.6794 1.17298 19.3904 3.37061C16.1014 5.56823 13.5382 8.69179 12.0244 12.3463C10.5107 16.0008 10.1145 20.0222 10.8862 23.9019C11.6579 27.7815 13.5628 31.3452 16.3599 34.1422C19.1569 36.9393 22.7205 38.844 26.6001 39.6157C30.4797 40.3874 34.501 39.9914 38.1555 38.4777C41.81 36.9639 44.9337 34.4004 47.1314 31.1115C49.329 27.8225 50.502 23.9556 50.502 20C50.502 14.6957 48.3948 9.60864 44.6441 5.85791C40.8933 2.10718 35.8063 0 30.502 0ZM35.9119 30.9301C35.6663 31.2147 35.3178 31.3903 34.9429 31.4185C34.568 31.4466 34.1972 31.3249 33.9119 31.0801C32.9288 30.3587 31.7413 29.9696 30.522 29.9696C29.3026 29.9696 28.1149 30.3587 27.1318 31.0801L27.052 31.14C26.7561 31.3623 26.3854 31.4613 26.0181 31.416C25.6508 31.3708 25.3154 31.1848 25.0823 30.8973C24.8492 30.6099 24.7367 30.2433 24.7683 29.8745C24.8 29.5058 24.9733 29.1636 25.252 28.92H25.302C26.7888 27.7815 28.6093 27.1646 30.4819 27.1646C32.3546 27.1646 34.1751 27.7815 35.6619 28.92L35.742 28.98C36.0206 29.2298 36.1909 29.5783 36.217 29.9517C36.2432 30.325 36.123 30.6938 35.8818 30.98L35.9119 30.9301ZM35.3818 12.9301C35.494 12.8423 35.6223 12.7776 35.7595 12.7396C35.8967 12.7017 36.0401 12.6913 36.1814 12.709C36.3227 12.7266 36.4591 12.772 36.5828 12.8425C36.7064 12.9131 36.8148 13.0074 36.9019 13.12C36.9543 13.193 37.0013 13.2698 37.042 13.35C37.5491 14.2822 38.385 14.9923 39.387 15.3417C40.389 15.6911 41.4852 15.6548 42.4619 15.24H42.542C42.802 15.1162 43.1004 15.1004 43.3721 15.1959C43.6438 15.2915 43.8667 15.4907 43.992 15.75C44.0323 15.8292 44.0624 15.9132 44.0818 16C44.1721 16.3554 44.1393 16.7308 43.9885 17.0651C43.8378 17.3993 43.5781 17.6726 43.252 17.8401H43.2019H43.1519C41.666 18.5126 39.9784 18.5876 38.4387 18.0496C36.8991 17.5115 35.6254 16.4017 34.8818 14.9501C34.8799 14.9234 34.8799 14.8966 34.8818 14.87C34.7389 14.5323 34.7157 14.156 34.8157 13.8032C34.9157 13.4505 35.133 13.1425 35.4319 12.9301H35.3818ZM16.9019 16.54C16.9293 16.3998 16.9843 16.2663 17.0637 16.1475C17.1431 16.0286 17.2452 15.9267 17.3643 15.8477C17.4833 15.7686 17.617 15.714 17.7573 15.6869C17.8977 15.6598 18.042 15.6609 18.1819 15.6901C18.269 15.703 18.3535 15.7299 18.4319 15.77C19.4262 16.1407 20.5227 16.1279 21.5081 15.7341C22.4934 15.3404 23.297 14.5938 23.762 13.64V13.5601C23.8249 13.4059 23.923 13.2686 24.0483 13.1591C24.1737 13.0495 24.323 12.9707 24.4841 12.929C24.6453 12.8872 24.814 12.8835 24.9768 12.9185C25.1396 12.9534 25.292 13.0258 25.4219 13.13C25.7234 13.3379 25.9446 13.6429 26.0483 13.9941C26.1521 14.3454 26.1322 14.7217 25.992 15.0601C25.3108 16.5423 24.0861 17.7062 22.5711 18.311C21.0561 18.9159 19.3665 18.9156 17.8518 18.3101H17.762C17.4331 18.1496 17.1688 17.8819 17.0125 17.551C16.8561 17.2202 16.8171 16.8459 16.9019 16.49V16.54Z" fill="#BABAFF"/>
<path d="M9.26191 28.449C9.3043 28.962 9.24498 29.4782 9.08735 29.9683C8.92971 30.4583 8.67675 30.9125 8.3432 31.3046C8.00966 31.6966 7.60193 32.0189 7.1435 32.2531C6.68507 32.4872 6.18499 32.6286 5.67182 32.6689C5.47566 32.6889 5.27789 32.6889 5.08173 32.6689C4.03041 32.7209 3.00109 32.3564 2.21674 31.6544C1.43239 30.9524 0.956292 29.9696 0.891788 28.9189C0.881774 28.7624 0.881774 28.6055 0.891788 28.449C0.891788 25.369 5.08173 20.6289 5.08173 20.6289C5.08173 20.6289 9.26191 25.359 9.26191 28.449Z" fill="#7B7BEA"/>
</svg>
