<svg width="28" height="28" viewBox="0 0 28 28" fill="none" xmlns="http://www.w3.org/2000/svg">
<path d="M2.56907 7.38019C2.48297 7.46643 2.43455 7.58333 2.43455 7.7052C2.43455 7.82707 2.48297 7.94397 2.56907 8.03021L17.3191 22.7802C17.4991 22.9702 23.8591 24.3402 23.8591 24.3402C23.8591 24.3402 22.479 17.9902 22.289 17.8102L7.53904 3.06018C7.45279 2.97408 7.33596 2.92572 7.21409 2.92572C7.09222 2.92572 6.97514 2.97408 6.88889 3.06018L2.53904 7.41016L2.56907 7.38019ZM0.769019 5.6402L5.11912 1.29016C5.67945 0.74348 6.43125 0.4375 7.21409 0.4375C7.99692 0.4375 8.74872 0.74348 9.30906 1.29016L24.0891 16.0002C24.6334 16.6413 24.9807 17.4262 25.0891 18.2602C25.2291 18.8202 25.4189 19.5902 25.6289 20.5402C25.9989 22.1502 26.3491 23.7502 26.3491 23.7702L27.1789 27.5602L23.3789 26.7402L20.1589 26.0302L17.8691 25.4902C17.0297 25.3906 16.2392 25.0423 15.5991 24.4902L0.849097 9.74017C0.313358 9.18918 0.00952345 8.45364 0.000220135 7.68518C-0.00908318 6.91673 0.276805 6.17397 0.799048 5.61017L0.769019 5.6402Z" fill="#787878"/>
<path d="M4.85889 11.1994L10.449 5.60938" stroke="#787878" stroke-width="2"/>
<path d="M16.5688 22.9103L22.1589 17.3203" stroke="#787878" stroke-width="2"/>
</svg>
