<svg width="27" height="27" viewBox="0 0 27 27" fill="none" xmlns="http://www.w3.org/2000/svg">
<path d="M13.4843 0.320312C10.8792 0.320312 8.33251 1.09284 6.16642 2.54017C4.00033 3.9875 2.31211 6.04463 1.31517 8.45146C0.318234 10.8583 0.0573529 13.5068 0.565588 16.0618C1.07382 18.6169 2.32835 20.9638 4.17046 22.8059C6.01256 24.648 8.35951 25.9025 10.9146 26.4108C13.4697 26.919 16.1181 26.6582 18.5249 25.6612C20.9317 24.6643 22.9889 22.976 24.4362 20.8099C25.8836 18.6438 26.656 16.0972 26.656 13.4921C26.656 9.99871 25.2684 6.64843 22.7982 4.17825C20.328 1.70806 16.9777 0.320312 13.4843 0.320312ZM6.89841 11.6115C6.89841 11.2395 7.00869 10.8759 7.21534 10.5666C7.42199 10.2574 7.7157 10.0163 8.05934 9.87399C8.40298 9.73165 8.78111 9.69441 9.14591 9.76697C9.51072 9.83954 9.84585 10.0187 10.1089 10.2817C10.3719 10.5447 10.5509 10.8798 10.6235 11.2446C10.6961 11.6094 10.6588 11.9875 10.5165 12.3312C10.3742 12.6748 10.1331 12.9685 9.82386 13.1751C9.51459 13.3818 9.151 13.4921 8.77905 13.4921C8.28027 13.4921 7.80193 13.294 7.44924 12.9413C7.09655 12.5886 6.89841 12.1103 6.89841 11.6115ZM16.8943 17.9851C15.9131 18.7323 14.7139 19.1369 13.4806 19.1369C12.2473 19.1369 11.0481 18.7323 10.067 17.9851L10.0157 17.9413C9.91964 17.8634 9.8398 17.7674 9.7808 17.6587C9.72181 17.55 9.68478 17.4307 9.67187 17.3078C9.65896 17.1848 9.67041 17.0604 9.70555 16.9419C9.74068 16.8233 9.79886 16.7128 9.8767 16.6167C9.95453 16.5206 10.0505 16.4408 10.1592 16.3818C10.2679 16.3228 10.3871 16.2858 10.5101 16.2729C10.6331 16.26 10.7575 16.2714 10.876 16.3066C10.9946 16.3417 11.1051 16.3999 11.2012 16.4777H11.2451C11.8939 16.949 12.6751 17.2027 13.477 17.2027C14.2788 17.2027 15.0601 16.949 15.7088 16.4777L15.7601 16.4338C15.8527 16.3337 15.9658 16.2549 16.0918 16.2027C16.2177 16.1505 16.3535 16.1263 16.4898 16.1316C16.626 16.1369 16.7595 16.1716 16.881 16.2334C17.0025 16.2952 17.1092 16.3827 17.1937 16.4897C17.2782 16.5967 17.3386 16.7206 17.3706 16.8532C17.4026 16.9857 17.4055 17.1236 17.3792 17.2574C17.3528 17.3911 17.2977 17.5176 17.2178 17.6281C17.1379 17.7386 17.0351 17.8304 16.9163 17.8973L16.8943 17.9851ZM18.1822 13.4921C17.8085 13.4921 17.4432 13.3812 17.1326 13.1734C16.8219 12.9657 16.58 12.6703 16.4373 12.3249C16.2946 11.9795 16.2576 11.5995 16.3311 11.2331C16.4045 10.8667 16.5851 10.5303 16.8499 10.2666C17.1146 10.0028 17.4517 9.82363 17.8184 9.75161C18.1851 9.67959 18.5649 9.718 18.9098 9.86202C19.2546 10.006 19.549 10.2491 19.7556 10.5606C19.9621 10.872 20.0716 11.2378 20.0702 11.6115C20.0682 12.1109 19.8685 12.5893 19.5146 12.9417C19.1608 13.2942 18.6817 13.4921 18.1822 13.4921Z" fill="white"/>
</svg>
