<svg width="18" height="15" viewBox="0 0 18 15" fill="none" xmlns="http://www.w3.org/2000/svg">
<path d="M13.984 4.12265H7.784L6.55 2.67665C6.52943 2.65233 6.50364 2.63296 6.47456 2.61998C6.44548 2.60699 6.41384 2.60073 6.382 2.60165H1.382C1.01721 2.60111 0.667045 2.74504 0.40807 3.00195C0.149095 3.25886 0.00237868 3.60787 0 3.97265L0 12.8637C0.00290712 13.2291 0.150681 13.5785 0.410897 13.8352C0.671113 14.0918 1.02252 14.2348 1.388 14.2326H13.988C14.3535 14.2348 14.7049 14.0918 14.9651 13.8352C15.2253 13.5785 15.3731 13.2291 15.376 12.8637V5.49165C15.3746 5.31034 15.3374 5.13109 15.2667 4.96415C15.1959 4.7972 15.093 4.64583 14.9637 4.5187C14.8344 4.39156 14.6814 4.29114 14.5133 4.22319C14.3452 4.15523 14.1653 4.12107 13.984 4.12265Z" fill="#C4C4C4"/>
<path d="M16.6214 1.52009H10.4214L9.18839 0.0750896C9.16782 0.050771 9.14203 0.031399 9.11295 0.0184147C9.08386 0.00543037 9.05223 -0.000833294 9.02039 8.8882e-05H4.02039C3.68817 -0.000767138 3.36677 0.118169 3.11514 0.335088C2.8635 0.552007 2.6985 0.852367 2.65039 1.18109H7.20939C7.32716 1.18057 7.44362 1.20571 7.55069 1.25475C7.65776 1.3038 7.75286 1.37557 7.82939 1.46509L8.88239 2.69909H14.8004C15.3226 2.69642 15.8245 2.90075 16.1963 3.26735C16.5682 3.63395 16.7796 4.13294 16.7844 4.65509V11.6101C17.1178 11.5713 17.4254 11.4119 17.6494 11.1619C17.8734 10.912 17.9982 10.5887 18.0004 10.2531V2.88509C17.9964 2.52187 17.8494 2.17485 17.5913 1.91932C17.3331 1.66378 16.9846 1.52033 16.6214 1.52009Z" fill="#C4C4C4"/>
</svg>
