<svg width="77" height="56" viewBox="0 0 77 56" fill="none" xmlns="http://www.w3.org/2000/svg">
<path d="M48.4199 0.0117188C44.4643 0.0117188 40.5973 1.1847 37.3084 3.38232C34.0194 5.57995 31.4561 8.70357 29.9424 12.3581C28.4286 16.0126 28.0325 20.034 28.8042 23.9136C29.5759 27.7932 31.4808 31.3568 34.2778 34.1539C37.0749 36.9509 40.6385 38.8557 44.5181 39.6274C48.3977 40.3991 52.419 40.0031 56.0735 38.4893C59.728 36.9756 62.8517 34.4122 65.0493 31.1232C67.247 27.8342 68.4199 23.9673 68.4199 20.0117C68.4199 14.7074 66.3127 9.62036 62.562 5.86963C58.8113 2.1189 53.7243 0.0117188 48.4199 0.0117188ZM38.4199 17.1517C38.4199 16.5865 38.5873 16.0339 38.9011 15.5638C39.215 15.0937 39.6611 14.7272 40.1831 14.5104C40.7051 14.2937 41.2797 14.2365 41.8342 14.346C42.3887 14.4556 42.8982 14.7269 43.2986 15.1259C43.699 15.5249 43.9723 16.0336 44.0837 16.5877C44.1952 17.1418 44.14 17.7166 43.9251 18.2393C43.7101 18.7621 43.345 19.2094 42.876 19.5249C42.407 19.8404 41.855 20.0097 41.2898 20.0117C40.5313 20.0117 39.8039 19.7104 39.2676 19.1741C38.7312 18.6377 38.4299 17.9103 38.4299 17.1517H38.4199ZM55.8198 26.8118C55.8198 29.6418 52.5099 31.9318 48.4299 31.9318C44.3499 31.9318 41.0298 29.6318 41.0298 26.8118H55.8198ZM55.5698 20.0117C55.0046 20.0117 54.452 19.8443 53.9819 19.5305C53.5118 19.2166 53.1452 18.7705 52.9285 18.2485C52.7117 17.7265 52.6546 17.152 52.7642 16.5975C52.8737 16.043 53.145 15.5333 53.544 15.1329C53.9429 14.7326 54.4517 14.4594 55.0059 14.3479C55.56 14.2364 56.1347 14.2917 56.6575 14.5066C57.1802 14.7215 57.6277 15.0865 57.9431 15.5555C58.2586 16.0245 58.428 16.5765 58.4299 17.1417C58.4299 17.9002 58.1286 18.6277 57.5923 19.1641C57.0559 19.7004 56.3284 20.0018 55.5698 20.0018" fill="#FFCBCF"/>
<path d="M30.6099 37.2518C29.2099 35.1818 26.3499 30.9918 26.3499 30.9918C26.3499 30.9918 26.1599 29.7517 22.4199 28.4517C18.6799 27.1517 17.7798 30.4517 17.7798 30.4517L16.5598 34.3118C16.5598 34.3118 15.2098 36.7517 17.3098 37.1317C19.4098 37.5117 20.98 32.6617 20.98 32.6617L22.5598 33.2117L22.6799 34.6017C22.6799 34.6017 22.43 35.7618 21.95 39.0018C21.9929 40.5841 22.2969 42.1485 22.8499 43.6317C22.8499 43.7617 22.6398 44.1918 22.2798 44.0818C22.1772 44.044 22.0849 43.9827 22.0103 43.9028C21.9356 43.823 21.8806 43.7266 21.8499 43.6217C21.3583 42.2569 21.0621 40.8294 20.97 39.3817C20.9893 37.6485 21.2107 35.9236 21.6299 34.2418C21.324 34.9521 20.9347 35.6235 20.47 36.2418C20.1895 36.6751 19.7522 36.9833 19.2498 37.1017C19.1565 37.535 18.9801 37.9459 18.73 38.3118C18.3613 38.7338 17.847 39.0016 17.2898 39.0618C17.5274 39.417 17.6754 39.8247 17.7207 40.2497C17.766 40.6747 17.7072 41.1044 17.5498 41.5018C17.0298 42.8918 16.0498 42.9117 16.0498 42.9117C16.3721 43.6819 16.3971 44.5443 16.1199 45.3318C15.973 45.7469 15.7391 46.1258 15.4338 46.4431C15.1286 46.7605 14.759 47.0089 14.3499 47.1718L21.3499 48.8218C21.3499 48.8218 25.3498 49.7017 26.8398 49.1317C27.7503 48.77 28.5114 48.111 28.9998 47.2617L31.5598 39.8417C31.5598 39.8417 32.0099 39.3218 30.6099 37.2518Z" fill="#FF8080"/>
<path d="M12.8198 46.4723L9.81979 45.2922C9.48997 44.9852 9.24421 44.5989 9.10592 44.17C8.96764 43.7412 8.9414 43.2841 9.02975 42.8423C9.14175 42.3677 9.38037 41.9322 9.71994 41.5822L15.2299 43.0923C15.3849 43.7637 15.3108 44.4677 15.0197 45.0923C14.8718 45.539 14.5712 45.9192 14.1706 46.1661C13.7701 46.413 13.2953 46.5108 12.8298 46.4423L12.8198 46.4723ZM9.69992 40.8022C9.42811 40.4649 9.24304 40.0661 9.1611 39.6407C9.07916 39.2154 9.10289 38.7764 9.22995 38.3622C9.33933 37.832 9.61189 37.3494 10.0097 36.9822L16.24 38.8422C16.4678 39.1173 16.6115 39.4523 16.654 39.8069C16.6966 40.1616 16.6362 40.521 16.4799 40.8422C16.2587 41.3998 15.9173 41.9017 15.4799 42.3123L9.72995 40.7822L9.69992 40.8022ZM10.0998 36.2922C9.89231 36.0194 9.75547 35.6996 9.70138 35.3611C9.6473 35.0227 9.67759 34.6761 9.78976 34.3522C9.94483 33.7783 10.2994 33.2784 10.7898 32.9423L15.3498 34.2422C15.3498 34.3322 15.3498 34.4522 15.2798 34.5722C15.1684 35.1747 15.2711 35.7972 15.5698 36.3322C15.9652 36.9533 16.5563 37.4248 17.2497 37.6722H17.3698L16.2697 38.0422L10.1298 36.2523L10.0998 36.2922ZM11.0197 32.0822C10.8638 31.7171 10.7834 31.3243 10.7834 30.9272C10.7834 30.5302 10.8638 30.1373 11.0197 29.7722C11.5297 28.2822 13.7498 28.4323 13.8398 28.4423L16.9199 29.5023L15.5798 33.3622L11.0398 32.0822H11.0197Z" fill="#FF8080"/>
</svg>
