<svg width="18" height="19" viewBox="0 0 18 19" fill="none" xmlns="http://www.w3.org/2000/svg">
<g clip-path="url(#clip0_1425_47308)">
<path d="M0 0.5V5H4.5V0.5H0ZM6.75 0.5V5H11.25V0.5H6.75ZM13.5 0.5V5H18V0.5H13.5ZM0 7.25V11.75H4.5V7.25H0ZM6.75 7.25V11.75H11.25V7.25H6.75ZM13.5 7.25V11.75H18V7.25H13.5ZM0 14V18.5H4.5V14H0ZM6.75 14V18.5H11.25V14H6.75ZM13.5 14V18.5H18V14H13.5Z" fill="#C4C4C4"/>
</g>
<defs>
<clipPath id="clip0_1425_47308">
<rect width="18" height="18" fill="white" transform="translate(0 0.5)"/>
</clipPath>
</defs>
</svg>
