<svg width="18" height="19" viewBox="0 0 18 19" fill="none" xmlns="http://www.w3.org/2000/svg">
<g clip-path="url(#clip0_1426_47322)">
<path d="M18 9.98242C18.0032 11.682 17.5251 13.3477 16.621 14.7868C15.717 16.2259 14.4239 17.3797 12.8914 18.1145C11.359 18.8494 9.64975 19.1353 7.96156 18.9392C6.27337 18.7431 4.67521 18.073 3.352 17.0064C3.25782 16.9296 3.18077 16.834 3.12581 16.7256C3.07084 16.6173 3.03919 16.4986 3.03287 16.3773C3.02656 16.2559 3.04574 16.1346 3.08916 16.0211C3.13259 15.9077 3.1993 15.8045 3.285 15.7184L3.694 15.3094C3.84464 15.1579 4.0456 15.0669 4.25882 15.0537C4.47205 15.0404 4.68274 15.1058 4.851 15.2374C5.85359 16.0319 7.06328 16.5217 8.33618 16.6486C9.60909 16.7754 10.8917 16.534 12.0313 15.9531C13.171 15.3721 14.1199 14.4761 14.765 13.3714C15.4102 12.2668 15.7245 11.0002 15.6706 9.72208C15.6167 8.44401 15.1968 7.2083 14.4609 6.16194C13.7251 5.11557 12.7041 4.30258 11.5196 3.81966C10.335 3.33673 9.03668 3.20419 7.77898 3.4378C6.52127 3.67141 5.35713 4.26133 4.425 5.13742L6.267 6.97642C6.34798 7.05772 6.40307 7.16119 6.42532 7.27377C6.44757 7.38635 6.43598 7.50299 6.39202 7.60899C6.34806 7.715 6.27369 7.8056 6.1783 7.86939C6.0829 7.93318 5.97076 7.96729 5.856 7.96742H0.581C0.426909 7.96742 0.27913 7.9062 0.170171 7.79725C0.0612123 7.68829 0 7.54051 0 7.38642V2.11142C0.000129577 1.99666 0.0342392 1.88451 0.0980266 1.78912C0.161814 1.69373 0.252422 1.61936 0.358423 1.5754C0.464424 1.53144 0.581069 1.51985 0.693647 1.5421C0.806224 1.56435 0.909692 1.61944 0.991 1.70042L2.783 3.49242C4.05635 2.27593 5.6586 1.45974 7.39128 1.14495C9.12395 0.830169 10.9109 1.03063 12.5308 1.72149C14.1506 2.41236 15.5322 3.56328 16.5044 5.03166C17.4765 6.50005 17.9966 8.22138 18 9.98242ZM11.435 12.8414L11.791 12.3834C11.9327 12.2011 11.9962 11.9699 11.9675 11.7407C11.9388 11.5116 11.8203 11.3032 11.638 11.1614L10.162 10.0124V6.22542C10.162 5.99441 10.0702 5.77287 9.90689 5.60953C9.74355 5.44618 9.522 5.35442 9.291 5.35442H8.71C8.59562 5.35442 8.48236 5.37695 8.37668 5.42072C8.27101 5.46449 8.17499 5.52865 8.09411 5.60953C8.01323 5.69041 7.94907 5.78643 7.9053 5.8921C7.86153 5.99777 7.839 6.11104 7.839 6.22542V11.1484L10.213 12.9944C10.3954 13.1361 10.6265 13.1996 10.8557 13.1709C11.0848 13.1422 11.2932 13.0237 11.435 12.8414Z" fill="#C4C4C4"/>
</g>
<defs>
<clipPath id="clip0_1426_47322">
<rect width="18" height="18" fill="white" transform="translate(0 0.5)"/>
</clipPath>
</defs>
</svg>
