<svg width="67" height="49" viewBox="0 0 67 49" fill="none" xmlns="http://www.w3.org/2000/svg">
<path d="M46.1702 0.160156C42.2145 0.160156 38.3476 1.33313 35.0586 3.53076C31.7696 5.72839 29.2064 8.85195 27.6926 12.5065C26.1789 16.161 25.7827 20.1823 26.5545 24.062C27.3262 27.9416 29.231 31.5053 32.0281 34.3023C34.8251 37.0994 38.3887 39.0042 42.2683 39.7759C46.1479 40.5476 50.1692 40.1515 53.8237 38.6378C57.4783 37.124 60.6019 34.5605 62.7996 31.2715C64.9972 27.9826 66.1702 24.1158 66.1702 20.1602C66.1702 14.8558 64.063 9.76873 60.3123 6.01801C56.5615 2.26728 51.4745 0.160156 46.1702 0.160156ZM36.1702 17.3002C36.1702 16.7341 36.3381 16.1807 36.6528 15.7102C36.9675 15.2397 37.4148 14.8731 37.938 14.6569C38.4612 14.4408 39.0367 14.3847 39.5918 14.4958C40.1469 14.607 40.6563 14.8804 41.0559 15.2814C41.4555 15.6824 41.7272 16.1929 41.8364 16.7484C41.9457 17.3038 41.8874 17.8791 41.6694 18.4016C41.4514 18.924 41.0835 19.37 40.6118 19.683C40.1402 19.9961 39.5861 20.1621 39.02 20.1602C38.2632 20.1575 37.5384 19.855 37.0042 19.319C36.47 18.7829 36.1702 18.057 36.1702 17.3002ZM51.3501 26.9902C49.8633 28.1287 48.0428 28.7457 46.1702 28.7457C44.2975 28.7457 42.4771 28.1287 40.9902 26.9902C40.9592 26.9724 40.9319 26.9486 40.9102 26.9202C40.7584 26.8005 40.6325 26.6512 40.54 26.4815C40.4476 26.3118 40.3904 26.125 40.3721 25.9326C40.3538 25.7402 40.3747 25.546 40.4336 25.3619C40.4925 25.1778 40.5881 25.0075 40.7146 24.8614C40.8411 24.7153 40.9959 24.5963 41.1697 24.5117C41.3435 24.427 41.5325 24.3785 41.7256 24.3691C41.9187 24.3596 42.1117 24.3894 42.293 24.4566C42.4742 24.5238 42.6398 24.6271 42.78 24.7601C43.7631 25.4815 44.9508 25.8705 46.1702 25.8705C47.3895 25.8705 48.577 25.4815 49.5601 24.7601L49.6401 24.7001C49.9406 24.5036 50.3041 24.4273 50.6582 24.4864C51.0124 24.5455 51.3313 24.7355 51.5518 25.0189C51.7722 25.3023 51.8778 25.6583 51.8479 26.0161C51.818 26.3739 51.6546 26.7073 51.3901 26.9501L51.3501 26.9902ZM53.3501 20.1602C52.7845 20.1602 52.2316 19.9924 51.7612 19.6782C51.2909 19.3639 50.9242 18.9172 50.7078 18.3947C50.4913 17.8721 50.4348 17.297 50.5452 16.7422C50.6555 16.1874 50.9279 15.6778 51.3279 15.2778C51.7279 14.8779 52.2375 14.6055 52.7922 14.4951C53.347 14.3848 53.922 14.4414 54.4446 14.6578C54.9672 14.8743 55.4138 15.2409 55.728 15.7112C56.0423 16.1816 56.2102 16.7345 56.2102 17.3002C56.2102 18.0587 55.9089 18.7862 55.3726 19.3225C54.8362 19.8589 54.1086 20.1602 53.3501 20.1602Z" fill="#E8FAFF"/>
<path d="M27.1201 34.3705L24.1201 28.5704L23.26 25.1105L22.9502 22.8505C22.9727 22.5373 22.8724 22.2278 22.6709 21.9871C22.4694 21.7464 22.1823 21.5934 21.8701 21.5605C21.589 21.5407 21.3088 21.6107 21.0701 21.7604L20.77 21.9504C20.2703 22.5968 19.9003 23.3337 19.6802 24.1205L19.8 25.9705L20.1702 29.8005H18.6902L14.8101 27.5405L11.1101 24.5405C11.1101 24.5405 7.81015 20.5405 7.40015 20.2205C7.13478 20.021 6.80257 19.9315 6.4729 19.9706C6.14323 20.0097 5.84145 20.1744 5.63013 20.4305C5.14013 21.0505 6.33008 22.4305 6.33008 22.4305L8.25 24.8804L9.76001 26.4705L11.9802 28.8705C11.9802 28.8705 12.1401 29.2005 11.9001 29.2505C10.9959 28.5061 10.1562 27.6864 9.39014 26.8005L7.92017 25.1705L5.92017 22.6005L4.77002 20.8204C4.09002 20.1104 3.63002 19.2704 2.77002 19.3904C2.43659 19.4202 2.12621 19.5728 1.89893 19.8185C1.67164 20.0643 1.54368 20.3857 1.54004 20.7205C1.74822 21.6108 2.1743 22.4355 2.78003 23.1205L4.72021 25.5904L7.56006 29.1304L9.78003 31.5405C9.78003 31.5405 9.9502 31.8705 9.7002 31.9105C8.79582 31.1662 7.95614 30.3466 7.19019 29.4604L4.39014 25.8804L2.44019 23.3105C2.43731 23.2906 2.43731 23.2704 2.44019 23.2505C2.36019 23.1005 2.01001 22.4405 1.76001 22.4205C1.52178 22.417 1.29027 22.4987 1.10693 22.6509C0.923599 22.803 0.800488 23.0157 0.76001 23.2505C0.763538 23.64 0.866871 24.0222 1.06006 24.3605C1.05472 24.3767 1.05472 24.3942 1.06006 24.4105L1.5 25.1805L1.73022 25.5305L3.02002 27.5305L6.2002 31.5305L8.38013 33.9805C8.38013 33.9805 8.53003 34.3205 8.28003 34.3505C7.39094 33.588 6.56804 32.7517 5.82007 31.8505C5.82007 31.8505 2.82001 27.7504 2.51001 27.5104C2.20001 27.2704 1.36014 27.5805 1.64014 28.6905C1.84014 29.5005 4.98022 34.6005 4.98022 34.6005L6.90015 37.6005C7.09996 37.9141 7.3239 38.2117 7.57007 38.4905L11.03 42.4904L16.51 45.7404L19.6001 48.5805L26.8101 43.8804L26.3101 41.8804C26.3101 41.8804 26.8102 39.5804 26.9302 38.7104C27.0502 37.8404 27.1401 34.4305 27.1401 34.4305" fill="#6BD8FA"/>
</svg>
