<svg width="71" height="44" viewBox="0 0 71 44" fill="none" xmlns="http://www.w3.org/2000/svg">
<path d="M36.4202 0.5C32.4645 0.5 28.5976 1.67298 25.3086 3.87061C22.0196 6.06823 19.4564 9.19179 17.9426 12.8463C16.4289 16.5008 16.0327 20.5222 16.8045 24.4018C17.5762 28.2814 19.481 31.845 22.2781 34.6421C25.0751 37.4391 28.6387 39.344 32.5183 40.1157C36.3979 40.8874 40.4192 40.4913 44.0737 38.9775C47.7283 37.4638 50.8519 34.9004 53.0496 31.6114C55.2472 28.3224 56.4202 24.4556 56.4202 20.5C56.4202 15.1957 54.313 10.1086 50.5623 6.35785C46.8115 2.60712 41.7245 0.5 36.4202 0.5ZM26.4202 17.65C26.4182 17.0835 26.5845 16.5292 26.898 16.0573C27.2115 15.5855 27.6579 15.2173 28.1809 14.9996C28.7039 14.7819 29.28 14.7244 29.8357 14.8345C30.3914 14.9445 30.9019 15.2171 31.3025 15.6177C31.7031 16.0183 31.9757 16.5288 32.0857 17.0845C32.1957 17.6402 32.1381 18.2161 31.9204 18.7391C31.7027 19.2621 31.3347 19.7087 30.8628 20.0222C30.3909 20.3357 29.8365 20.502 29.27 20.5C28.515 20.4974 27.7917 20.1962 27.2578 19.6623C26.7239 19.1284 26.4228 18.405 26.4202 17.65ZM41.6001 27.33C40.1133 28.4685 38.2928 29.0855 36.4202 29.0855C34.5475 29.0855 32.7271 28.4685 31.2402 27.33L31.1602 27.27C30.8724 27.022 30.6949 26.6698 30.6668 26.291C30.6386 25.9122 30.762 25.5378 31.01 25.25C31.258 24.9622 31.6102 24.7847 31.989 24.7566C32.3678 24.7285 32.7423 24.852 33.03 25.1C34.0131 25.8214 35.2008 26.2104 36.4202 26.2104C37.6395 26.2104 38.827 25.8214 39.8101 25.1L39.8901 25.04C40.0357 24.9063 40.2073 24.8042 40.3943 24.7402C40.5813 24.6763 40.7796 24.6517 40.9766 24.6682C41.1735 24.6847 41.3648 24.7418 41.5386 24.836C41.7123 24.9302 41.8648 25.0593 41.9861 25.2153C42.1074 25.3713 42.1952 25.5508 42.2437 25.7424C42.2922 25.934 42.3003 26.1335 42.2678 26.3285C42.2353 26.5234 42.1627 26.7095 42.0547 26.875C41.9466 27.0405 41.8055 27.1818 41.6401 27.29L41.6001 27.33ZM43.6001 20.5C43.034 20.5 42.4808 20.332 42.0103 20.0173C41.5397 19.7026 41.173 19.2553 40.9568 18.7321C40.7406 18.2089 40.6847 17.6334 40.7959 17.0783C40.9071 16.5233 41.1803 16.0137 41.5813 15.6141C41.9823 15.2146 42.4929 14.943 43.0483 14.8337C43.6038 14.7245 44.1792 14.7825 44.7017 15.0005C45.2241 15.2185 45.6699 15.5867 45.9829 16.0583C46.296 16.53 46.4622 17.0839 46.4602 17.65C46.4576 18.4067 46.155 19.1316 45.6189 19.6658C45.0828 20.2 44.3569 20.5 43.6001 20.5Z" fill="#FDF0E2"/>
<path d="M23.2201 30.3076L18.6501 27.3076L16.58 25.1575L15.4201 23.6575C15.3091 23.4208 15.1098 23.237 14.8649 23.1454C14.6201 23.0538 14.3491 23.0618 14.11 23.1675C13.877 23.2721 13.6889 23.4565 13.58 23.6876L13.4501 23.9175C13.3641 24.5853 13.4012 25.2632 13.56 25.9175L14.4201 27.2075L16.2302 29.7575C16.2389 29.7659 16.2459 29.776 16.2507 29.7872C16.2554 29.7983 16.2577 29.8104 16.2577 29.8225C16.2577 29.8347 16.2554 29.8467 16.2507 29.8579C16.2459 29.869 16.2389 29.8791 16.2302 29.8875L15.2302 30.4775H15.1801L11.7499 30.5975C11.7499 30.5975 8.50009 30.0075 7.91009 29.8375C7.63009 29.7575 4.64013 27.8375 4.20013 27.7175C3.92453 27.6881 3.648 27.7648 3.42694 27.932C3.20587 28.0992 3.05669 28.3444 3.00994 28.6176C2.92994 29.1876 3.7201 29.7675 3.9201 29.9075L4.00994 29.9675L6.12005 31.5875L6.22015 31.6475L9.98016 32.6475C9.98016 32.6475 10.24 32.8175 10.08 32.9475C8.65775 32.6996 7.25187 32.3657 5.87005 31.9475C5.87005 31.9475 2.87014 29.6076 2.71014 29.5476C1.98014 29.1976 1.44994 28.9576 1.00994 29.5476C0.933705 29.6556 0.879719 29.7778 0.851009 29.9069C0.822298 30.036 0.819456 30.1695 0.842708 30.2997C0.865959 30.43 0.914883 30.5542 0.986507 30.6654C1.05813 30.7766 1.15101 30.8725 1.25994 30.9475C1.80994 31.4375 4.26003 33.3575 4.35003 33.3975L4.51995 33.5075L6.75994 34.5075C7.00994 34.6375 9.40008 35.4175 9.40008 35.4175C9.40008 35.4175 9.66017 35.5875 9.49017 35.7275C8.15188 35.3565 6.83894 34.8989 5.55999 34.3575L4.88006 34.0075L3.29998 32.9376C2.89729 32.5852 2.45832 32.2767 1.99017 32.0175C1.8672 32.0335 1.74842 32.0737 1.64105 32.1357C1.53367 32.1978 1.43973 32.2804 1.36444 32.3789C1.28915 32.4774 1.23397 32.5899 1.20233 32.7098C1.17068 32.8297 1.16324 32.9547 1.18011 33.0775C1.19902 33.2583 1.27219 33.4291 1.39007 33.5675C1.55007 33.7975 4.39016 35.6975 4.73016 36.0175L6.79998 36.8875L9.41009 37.7575C9.41009 37.7575 9.66993 37.9375 9.49993 38.0675C8.52441 37.865 7.56783 37.5807 6.64007 37.2175L4.74017 36.3575C4.33017 36.1575 4.20002 35.9576 3.84002 35.9376C3.48002 35.9176 2.7701 36.2476 3.4201 36.9376C4.47255 37.8003 5.6003 38.5667 6.78997 39.2275L9.78997 40.9575C10.08 41.0975 10.3701 41.2175 10.6701 41.3275L14.86 42.7875L20.1901 42.8575L23.55 43.6075C23.5657 43.6197 23.5853 43.6263 23.6052 43.6263C23.6251 43.6263 23.6443 43.6197 23.6601 43.6075L26.8701 37.2875C26.8797 37.2708 26.8847 37.2519 26.8847 37.2325C26.8847 37.2132 26.8797 37.1943 26.8701 37.1776L25.7499 36.0075C25.6799 35.8075 25.1301 34.0975 24.8701 33.4575C24.6101 32.8175 23.3602 30.4575 23.2302 30.2675" fill="#FFC78D"/>
<path d="M47.1201 30.3982L51.6802 27.3382L53.6802 25.1382L54.8 23.5982C54.9171 23.3614 55.1185 23.1768 55.3645 23.0806C55.6105 22.9844 55.8835 22.9835 56.1301 23.0782C56.3732 23.1865 56.5761 23.3684 56.7102 23.5982L56.8501 23.8382C56.9751 24.499 56.9751 25.1774 56.8501 25.8382L56.04 27.1582L54.29 29.7581C54.2738 29.7779 54.2649 29.8026 54.2649 29.8282C54.2649 29.8537 54.2738 29.8785 54.29 29.8982L55.29 30.4782H55.3501L58.9001 30.5382C58.9001 30.5382 62.2401 29.8882 62.8401 29.7082C63.1301 29.6182 66.1101 27.5981 66.5601 27.5081C66.8458 27.471 67.1352 27.5416 67.3718 27.7061C67.6084 27.8706 67.7754 28.1173 67.8401 28.3982C67.9601 28.9782 67.1702 29.5682 66.9702 29.7082L66.8801 29.7782L64.79 31.4481L64.6802 31.5081L60.8501 32.5782C60.8501 32.5782 60.59 32.7481 60.76 32.8882C62.2132 32.621 63.6492 32.267 65.0601 31.8282C65.0601 31.8282 68.0602 29.4082 68.1902 29.3482C68.9402 28.9882 69.4802 28.7382 69.9602 29.2882C70.0448 29.3929 70.1072 29.5135 70.144 29.643C70.1809 29.7724 70.1911 29.9079 70.1743 30.0415C70.1575 30.175 70.1141 30.3037 70.0464 30.42C69.9786 30.5363 69.8879 30.6377 69.78 30.7182C69.23 31.2182 66.7802 33.1882 66.7202 33.2282L66.55 33.3482L64.29 34.4382C64.04 34.5682 61.6101 35.4382 61.6101 35.4382C61.6101 35.4382 61.35 35.6182 61.53 35.7482C62.8941 35.3584 64.2305 34.8773 65.53 34.3082L66.2202 33.9382L67.79 32.8382C68.1896 32.4588 68.6288 32.1235 69.1001 31.8382C69.3566 31.8684 69.5913 31.9966 69.7554 32.1961C69.9194 32.3955 70.0001 32.6507 69.9802 32.9082C69.964 33.083 69.8979 33.2496 69.79 33.3882C69.65 33.6181 66.7902 35.5882 66.4802 35.9182L64.3901 36.8382L61.7402 37.7581C61.7402 37.7581 61.4802 37.9381 61.6602 38.0681C62.6536 37.8502 63.627 37.5491 64.5701 37.1682C64.7701 37.0582 66.4902 36.2581 66.4902 36.2581C66.9002 36.0481 67.0301 35.8482 67.4001 35.8282C67.7701 35.8082 68.5201 36.1182 67.9001 36.8282C66.8448 37.7077 65.7174 38.4972 64.53 39.1882L61.4802 40.9782C61.1963 41.1284 60.9021 41.2588 60.6001 41.3682L56.3401 42.9182L50.8301 43.0782L47.3901 43.8881C47.3738 43.8989 47.3548 43.9046 47.3352 43.9046C47.3157 43.9046 47.2964 43.8989 47.28 43.8881L43.6101 37.5582C43.5979 37.5424 43.5913 37.523 43.5913 37.5031C43.5913 37.4832 43.5979 37.4639 43.6101 37.4481L44.7102 36.2581C44.7702 36.0581 45.2502 34.3182 45.4802 33.6682C45.7102 33.0182 46.88 30.6682 47 30.4182" fill="#FFC78D"/>
</svg>
