<svg width="71" height="50" viewBox="0 0 71 50" fill="none" xmlns="http://www.w3.org/2000/svg">
<path d="M35.4199 0.449219C31.4643 0.449219 27.5973 1.6222 24.3084 3.81982C21.0194 6.01745 18.4561 9.14107 16.9424 12.7956C15.4286 16.4501 15.0325 20.4715 15.8042 24.3511C16.5759 28.2307 18.4808 31.7943 21.2778 34.5914C24.0749 37.3884 27.6385 39.2932 31.5181 40.0649C35.3977 40.8366 39.419 40.4406 43.0735 38.9268C46.728 37.4131 49.8517 34.8497 52.0493 31.5607C54.247 28.2717 55.4199 24.4048 55.4199 20.4492C55.4199 15.1449 53.3127 10.0579 49.562 6.30713C45.8113 2.5564 40.7243 0.449219 35.4199 0.449219ZM25.4199 17.5892C25.4199 17.024 25.5873 16.4714 25.9011 16.0013C26.215 15.5312 26.6611 15.1647 27.1831 14.9479C27.7051 14.7312 28.2797 14.674 28.8342 14.7835C29.3887 14.8931 29.8982 15.1644 30.2986 15.5634C30.699 15.9624 30.9723 16.4711 31.0837 17.0252C31.1952 17.5793 31.14 18.1541 30.9251 18.6768C30.7101 19.1996 30.345 19.6469 29.876 19.9624C29.407 20.2779 28.855 20.4472 28.2898 20.4492C27.5313 20.4492 26.8039 20.1479 26.2676 19.6116C25.7312 19.0752 25.4299 18.3478 25.4299 17.5892H25.4199ZM42.8198 27.2493C42.8198 30.0793 39.5099 32.3792 35.4299 32.3792C31.3499 32.3792 28.0298 30.0793 28.0298 27.2493H42.8198ZM42.5698 20.4492C42.0042 20.4492 41.4513 20.2815 40.981 19.9672C40.5106 19.653 40.144 19.2063 39.9275 18.6837C39.711 18.1611 39.6545 17.5861 39.7649 17.0313C39.8753 16.4765 40.1476 15.9669 40.5476 15.5669C40.9476 15.1669 41.4572 14.8945 42.012 14.7842C42.5668 14.6738 43.1417 14.7305 43.6643 14.947C44.1869 15.1634 44.6337 15.53 44.948 16.0003C45.2623 16.4706 45.4299 17.0236 45.4299 17.5892C45.4299 18.3478 45.1286 19.0752 44.5923 19.6116C44.0559 20.1479 43.3284 20.4492 42.5698 20.4492Z" fill="#FFCBCF"/>
<path d="M10.64 46.672C9.03845 46.663 7.48359 46.1318 6.21127 45.1591C4.93896 44.1863 4.01859 42.8251 3.58993 41.282C3.58993 41.282 3.58993 41.222 3.58993 41.192C3.55441 41.0371 3.54975 40.8766 3.57626 40.7199C3.60278 40.5631 3.65996 40.4131 3.74448 40.2784C3.82899 40.1437 3.93931 40.0271 4.06894 39.935C4.19857 39.843 4.34485 39.7774 4.49985 39.742C4.81774 39.6796 5.14756 39.744 5.41855 39.9215C5.68953 40.0991 5.88035 40.3756 5.95004 40.692C6.25545 41.687 6.86364 42.5619 7.69003 43.1947C8.51642 43.8275 9.51967 44.1867 10.5599 44.2221H10.65C10.9754 44.222 11.2879 44.3499 11.5199 44.5781C11.7518 44.8064 11.8847 45.1166 11.89 45.442C11.894 45.5996 11.8668 45.7565 11.8101 45.9036C11.7535 46.0507 11.6686 46.1852 11.5599 46.2994C11.4513 46.4137 11.321 46.5053 11.1768 46.5692C11.0327 46.6332 10.8777 46.6681 10.7201 46.672H10.65H10.64Z" fill="#C63C47"/>
<path d="M6.78982 49.3732C5.19052 49.2256 3.68331 48.5597 2.49734 47.4766C1.31138 46.3935 0.511757 44.9526 0.219999 43.3732C0.219999 43.3732 0.219999 43.3132 0.219999 43.2832C0.176642 42.9709 0.256858 42.6541 0.443632 42.4001C0.630405 42.146 0.908983 41.975 1.22 41.9232C1.54088 41.8837 1.86417 41.973 2.11917 42.1718C2.37417 42.3705 2.53989 42.6624 2.57986 42.9832C2.79612 44.0054 3.32717 44.9343 4.09842 45.6392C4.86967 46.3441 5.84241 46.7896 6.87991 46.9132H6.97C7.29276 46.9438 7.59095 47.0985 7.80179 47.3448C8.01262 47.591 8.11948 47.9096 8.09988 48.2332C8.07927 48.5507 7.9345 48.8474 7.69681 49.0589C7.45911 49.2704 7.1476 49.3796 6.82986 49.3632H6.75979L6.78982 49.3732Z" fill="#C63C47"/>
<path d="M26.4199 33.3705L23.4199 27.5704L22.5498 24.1105L22.2498 21.8505C22.2695 21.5364 22.1672 21.2268 21.9641 20.9864C21.761 20.746 21.4729 20.5934 21.1599 20.5605C20.8788 20.5407 20.5986 20.6107 20.3599 20.7604L20.0598 20.9504C19.5638 21.5991 19.1942 22.3353 18.97 23.1205L19.0898 24.9705L19.47 28.8005H17.98L14.1099 26.5405L10.3999 23.5405C10.3999 23.5405 7.10994 19.5405 6.68994 19.2205C6.42457 19.021 6.09237 18.9315 5.7627 18.9706C5.43302 19.0097 5.13125 19.1744 4.91992 19.4305C4.43992 20.0505 5.61987 21.4305 5.61987 21.4305L7.53979 23.8804L9.03979 25.4705L11.2598 27.8705C11.2598 27.8705 11.4299 28.2005 11.1799 28.2505C10.2803 27.5009 9.44109 26.6817 8.66992 25.8005L7.19995 24.1705L5.19995 21.6005L4.05981 19.8204C3.38981 19.1104 2.91981 18.2704 2.05981 18.3904C1.72542 18.42 1.41374 18.5722 1.18481 18.8177C0.955894 19.0633 0.825925 19.3848 0.819824 19.7205C1.0317 20.6115 1.46118 21.4361 2.06982 22.1205L3.99976 24.5904L6.84985 28.1304L9.06982 30.5405C9.06982 30.5405 9.22998 30.8705 8.97998 30.9105C8.07665 30.1684 7.24011 29.3486 6.47998 28.4604L3.66992 24.8804L1.71997 22.3105V22.2505C1.63997 22.1005 1.2898 21.4405 1.0498 21.4205C0.811573 21.417 0.580063 21.4987 0.396729 21.6509C0.213394 21.803 0.0902832 22.0157 0.0498047 22.2505C0.0579852 22.6394 0.161014 23.0204 0.349854 23.3605C0.349854 23.3605 0.349854 23.3605 0.349854 23.4105L0.799805 24.1805L1.02979 24.5305L2.30981 26.5305L5.49976 30.5305L7.66992 32.9805C7.66992 32.9805 7.82983 33.3205 7.57983 33.3505C6.68821 32.5908 5.86508 31.7542 5.11987 30.8505C5.11987 30.8505 2.1198 26.7504 1.7998 26.5104C1.4798 26.2704 0.659941 26.5805 0.939941 27.6905C1.13994 28.5005 4.26978 33.6005 4.26978 33.6005L6.18994 36.6005C6.39304 36.9118 6.6168 37.2092 6.85986 37.4905L10.3298 41.4905L15.8098 44.7404L18.8899 47.5805L26.0999 42.8804L25.6099 40.8804C25.6099 40.8804 26.1 38.5804 26.23 37.7104C26.36 36.8404 26.4299 33.4305 26.4299 33.4305" fill="#FF8080"/>
<path d="M60.1996 46.6581C61.8007 46.653 63.356 46.1245 64.6288 45.1532C65.9016 44.1819 66.8219 42.821 67.2494 41.2781C67.2494 41.2781 67.2494 41.2181 67.2494 41.1881C67.2849 41.0332 67.2896 40.8727 67.2631 40.716C67.2366 40.5592 67.1796 40.4091 67.0951 40.2745C67.0106 40.1398 66.9003 40.0231 66.7707 39.9311C66.641 39.8391 66.4945 39.7735 66.3395 39.7381C66.0216 39.6757 65.692 39.7401 65.421 39.9176C65.1501 40.0952 64.9592 40.3717 64.8896 40.6881C64.5836 41.6847 63.9738 42.5607 63.1454 43.1936C62.317 43.8266 61.3114 44.1848 60.2694 44.2182H60.1896C59.8642 44.2181 59.5517 44.346 59.3197 44.5742C59.0877 44.8025 58.9549 45.1127 58.9496 45.4381C58.9415 45.7547 59.0587 46.0617 59.276 46.2921C59.4933 46.5225 59.793 46.6576 60.1095 46.6681H60.1896L60.1996 46.6581Z" fill="#C63C47"/>
<path d="M64.0495 49.3682C65.6483 49.219 67.1549 48.5524 68.3405 47.4696C69.5262 46.3868 70.3263 44.9469 70.6196 43.3682C70.6196 43.3682 70.6196 43.3082 70.6196 43.2782C70.6629 42.9659 70.5827 42.6491 70.396 42.395C70.2092 42.141 69.9306 41.97 69.6196 41.9182C69.2992 41.8813 68.9772 41.9718 68.7229 42.1701C68.4685 42.3683 68.3019 42.6585 68.2595 42.9782C68.0438 43.9989 67.5144 44.9268 66.7451 45.6315C65.9758 46.3362 65.0054 46.7826 63.9697 46.9082H63.8796C63.5559 46.9363 63.256 47.0903 63.0446 47.3372C62.8333 47.584 62.7273 47.904 62.7495 48.2282C62.7701 48.5457 62.9151 48.8424 63.1528 49.0539C63.3905 49.2653 63.7018 49.3746 64.0195 49.3582H64.0896L64.0495 49.3682Z" fill="#C63C47"/>
<path d="M44.4199 33.3695L47.4199 27.5695L48.2898 24.1095L48.5898 21.8495C48.5701 21.5354 48.6724 21.2258 48.8755 20.9854C49.0786 20.745 49.3669 20.5924 49.6799 20.5595C49.9611 20.5397 50.2412 20.6097 50.48 20.7595L50.7798 20.9495C51.2769 21.5953 51.6499 22.3277 51.8799 23.1095L51.7498 24.9695L51.3799 28.7995L52.8599 28.8495L56.73 26.5795L60.4399 23.5795C60.4399 23.5795 63.7399 19.5795 64.1399 19.2495C64.4065 19.0512 64.7394 18.9633 65.0691 19.0043C65.3988 19.0453 65.7 19.2119 65.9099 19.4695C66.3999 20.0895 65.21 21.4695 65.21 21.4695L63.2998 23.9195L61.7998 25.5095L59.5798 27.9095C59.5798 27.9095 59.4099 28.2395 59.6599 28.2795C60.5617 27.536 61.4012 26.7199 62.1699 25.8395L63.6399 24.2095L65.6399 21.6395L66.7798 19.8595C67.4598 19.1495 67.9298 18.3095 68.7798 18.4295C69.1142 18.4591 69.4259 18.6112 69.6548 18.8567C69.8837 19.1023 70.0137 19.4238 70.0198 19.7595C69.8079 20.6505 69.3784 21.4751 68.7698 22.1595L66.8398 24.6295L63.99 28.1695L61.7698 30.5795C61.7698 30.5795 61.6099 30.9095 61.8599 30.9495C62.7632 30.2074 63.5997 29.3877 64.3599 28.4995L67.1599 24.9195L69.1599 22.3495V22.2895C69.2299 22.1395 69.5798 21.4795 69.8298 21.4595C70.0681 21.456 70.2998 21.5377 70.4832 21.6899C70.6665 21.842 70.7894 22.0547 70.8298 22.2895C70.8217 22.6784 70.7186 23.0594 70.5298 23.3995V23.4495L70.0798 24.2195L69.8499 24.5695L68.5698 26.5695L65.3799 30.5695L63.21 33.0195C63.21 33.0195 63.0498 33.3595 63.2998 33.3895C64.1914 32.6298 65.0146 31.7932 65.7598 30.8895C65.7598 30.8895 68.7598 26.7795 69.0798 26.5495C69.3998 26.3195 70.2199 26.6095 69.9399 27.7195C69.7399 28.5295 66.6099 33.6395 66.6099 33.6395L64.6899 36.6395C64.4836 36.9485 64.2597 37.2457 64.0198 37.5295L60.5498 41.5295L55.0698 44.7895L51.98 47.6295L44.7798 42.9395L45.2698 40.9395C45.2698 40.9395 44.7799 38.6295 44.6499 37.7695C44.5199 36.9095 44.45 33.4795 44.45 33.4795" fill="#FF8080"/>
</svg>
