<svg width="41" height="40" viewBox="0 0 41 40" fill="none" xmlns="http://www.w3.org/2000/svg">
<path d="M20.4475 0C16.4919 0 12.6249 1.17298 9.33595 3.37061C6.04696 5.56823 3.48373 8.69179 1.96998 12.3463C0.456226 16.0008 0.060091 20.0222 0.831795 23.9019C1.6035 27.7815 3.50838 31.3452 6.30543 34.1422C9.10248 36.9393 12.666 38.844 16.5457 39.6157C20.4253 40.3874 24.4466 39.9914 28.1011 38.4777C31.7556 36.9639 34.8793 34.4004 37.0769 31.1115C39.2745 27.8225 40.4475 23.9556 40.4475 20C40.4475 14.6957 38.3403 9.60864 34.5896 5.85791C30.8389 2.10718 25.7518 0 20.4475 0ZM7.72755 14.0701H13.9075L9.55738 9.72998C9.43012 9.5946 9.35938 9.41579 9.35938 9.22998C9.35938 9.04417 9.43012 8.86536 9.55738 8.72998C9.69386 8.6049 9.87226 8.53552 10.0574 8.53552C10.2425 8.53552 10.4209 8.6049 10.5574 8.72998L16.1775 14.3401C16.3048 14.4755 16.3755 14.6543 16.3755 14.8401C16.3755 15.0259 16.3048 15.2047 16.1775 15.3401C16.0985 15.4157 16.0037 15.4727 15.8999 15.5073C15.7962 15.5419 15.686 15.5531 15.5774 15.54H7.6775C7.49733 15.519 7.33105 15.4325 7.21046 15.297C7.08987 15.1615 7.02345 14.9864 7.02345 14.8051C7.02345 14.6237 7.08987 14.4486 7.21046 14.3131C7.33105 14.1776 7.49733 14.0911 7.6775 14.0701H7.72755ZM20.4475 34.2101C18.6743 34.2114 16.9183 33.863 15.2798 33.1851C13.6413 32.5071 12.1525 31.5128 10.8987 30.2589C9.64484 29.0051 8.65039 27.5163 7.97242 25.8778C7.29445 24.2393 6.9462 22.4833 6.94752 20.7101V20.62H33.9475C33.9475 20.62 33.9475 20.6801 33.9475 20.7101C33.9475 24.2905 32.5252 27.7242 29.9934 30.256C27.4617 32.7877 24.0279 34.2101 20.4475 34.2101ZM33.2075 15.54H25.3274C25.2187 15.5553 25.108 15.5452 25.0039 15.5105C24.8998 15.4758 24.8053 15.4175 24.7275 15.3401C24.6003 15.2047 24.5293 15.0259 24.5293 14.8401C24.5293 14.6543 24.6003 14.4755 24.7275 14.3401L30.3374 8.72998C30.4772 8.65609 30.6371 8.62901 30.7935 8.65259C30.9499 8.67617 31.0947 8.74925 31.2066 8.86108C31.3184 8.97292 31.3915 9.11754 31.415 9.27393C31.4386 9.43031 31.4113 9.59015 31.3374 9.72998L26.9976 14.0701H33.1675C33.3621 14.0646 33.5509 14.1361 33.6931 14.269C33.8354 14.4019 33.9197 14.5855 33.9275 14.78C33.9315 14.8767 33.9162 14.9732 33.8826 15.064C33.8489 15.1547 33.7975 15.2379 33.7315 15.3086C33.6654 15.3793 33.5861 15.4362 33.4978 15.476C33.4096 15.5157 33.3143 15.5375 33.2175 15.54H33.2075Z" fill="#FFBE57"/>
</svg>
