<svg width="18" height="17" viewBox="0 0 18 17" fill="none" xmlns="http://www.w3.org/2000/svg">
<path d="M16.0064 0.69545H2.00131C0.900024 0.69545 0.00390625 1.49116 0.00390625 2.46853V11.7785C0.00390625 12.7566 0.899869 13.5516 2.00131 13.5516H6.07801L6.07816 15.0959H5.03264C4.53559 15.0959 4.13216 15.4542 4.13216 15.8956C4.13216 16.337 4.53559 16.6953 5.03264 16.6953H12.9753C13.4724 16.6953 13.8758 16.337 13.8758 15.8956C13.8758 15.4542 13.4724 15.0959 12.9753 15.0959H11.9298V13.5514H16.0065C17.1078 13.5514 18.0039 12.7557 18.0039 11.7784L18.0038 2.46839C18.0038 1.4902 17.1078 0.695312 16.0065 0.695312L16.0064 0.69545ZM3.1846 4.37529L3.68436 4.36967C4.16528 4.36003 4.58935 4.71832 4.59568 5.15989C4.60202 5.60133 4.2031 5.96445 3.70605 5.96924L3.20629 5.97487H3.19454C2.70292 5.97487 2.30023 5.62382 2.29406 5.18464C2.28863 4.7432 2.68664 4.38091 3.18458 4.37529H3.1846ZM3.70609 9.73292L3.20633 9.73855H3.19457C2.70296 9.73855 2.30027 9.3875 2.2941 8.94832C2.28776 8.50688 2.68667 8.14459 3.18388 8.13897L3.68364 8.13335C4.16456 8.12933 4.58863 8.48118 4.59496 8.92357C4.60205 9.36515 4.20316 9.72826 3.7061 9.73292H3.70609ZM14.8123 9.75542H7.11743C6.62037 9.75542 6.21695 9.39713 6.21695 8.9557C6.21695 8.51426 6.62037 8.15598 7.11743 8.15598H14.8123C15.3094 8.15598 15.7128 8.51426 15.7128 8.9557C15.7128 9.39713 15.3094 9.75542 14.8123 9.75542ZM14.8123 5.9916H7.11743C6.62037 5.9916 6.21695 5.63332 6.21695 5.19188C6.21695 4.75045 6.62037 4.39216 7.11743 4.39216H14.8123C15.3094 4.39216 15.7128 4.75045 15.7128 5.19188C15.7128 5.63332 15.3094 5.9916 14.8123 5.9916Z" fill="#C4C4C4"/>
</svg>
