<svg width="9" height="19" viewBox="0 0 9 19" fill="none" xmlns="http://www.w3.org/2000/svg">
<path d="M4.26729 3.89806H4.25944C3.92366 3.89668 3.59583 3.79584 3.31732 3.60827C3.03882 3.4207 2.82214 3.15482 2.69464 2.84419C2.56714 2.53356 2.53454 2.19212 2.60095 1.86298C2.66737 1.53383 2.82982 1.23175 3.06779 0.994868C3.30577 0.757987 3.6086 0.59693 3.93805 0.532035C4.26749 0.467139 4.60878 0.501316 4.91882 0.630248C5.22886 0.75918 5.49374 0.977087 5.68002 1.25645C5.8663 1.53582 5.96563 1.86412 5.96546 2.1999C5.9643 2.64992 5.78502 3.08119 5.4668 3.39941C5.14858 3.71762 4.71732 3.89691 4.26729 3.89806Z" fill="#C4C4C4"/>
<path d="M2.96963 18.5057C2.82585 18.5049 2.68386 18.4738 2.55288 18.4145C2.42189 18.3552 2.30486 18.269 2.20938 18.1615C2.1139 18.054 2.04212 17.9277 1.9987 17.7906C1.95528 17.6535 1.94119 17.5089 1.95736 17.366L1.99838 6.95624H1.62314V10.8936C1.63244 11.0183 1.61594 11.1435 1.57465 11.2616C1.53336 11.3796 1.46817 11.4878 1.38316 11.5795C1.30896 11.6554 1.22032 11.7158 1.12246 11.757C1.02461 11.7982 0.919502 11.8194 0.813326 11.8194C0.707151 11.8194 0.602046 11.7982 0.504189 11.757C0.406332 11.7158 0.317696 11.6554 0.24349 11.5795C0.158017 11.4881 0.0924721 11.3799 0.0510112 11.2619C0.00955024 11.1438 -0.00692156 11.0184 0.00264062 10.8936V6.33404C-0.00577988 5.80712 0.178201 5.2952 0.520118 4.89418C0.700281 4.68198 0.924548 4.51162 1.17729 4.39497C1.43004 4.27832 1.70518 4.21818 1.98354 4.21875H6.56928C6.84787 4.21815 7.1232 4.27862 7.37589 4.39592C7.62858 4.51322 7.85248 4.68449 8.03183 4.89767C8.37372 5.29733 8.55776 5.80816 8.54931 6.33404V10.8936C8.55883 11.019 8.54167 11.1449 8.49895 11.2631C8.45623 11.3814 8.38892 11.4892 8.30148 11.5795C8.14475 11.7287 7.93667 11.8119 7.7203 11.8119C7.50393 11.8119 7.29584 11.7287 7.13912 11.5795C7.05167 11.4892 6.98437 11.3814 6.94165 11.2631C6.89893 11.1449 6.88177 11.019 6.89129 10.8936V6.95624H6.55357V17.3651C6.56679 17.508 6.55026 17.652 6.50502 17.7882C6.45978 17.9244 6.38682 18.0497 6.29073 18.1562C6.19465 18.2628 6.07752 18.3483 5.94675 18.4073C5.81598 18.4663 5.67439 18.4976 5.53093 18.4992C5.38746 18.5007 5.24522 18.4726 5.11319 18.4164C4.98115 18.3603 4.86218 18.2774 4.76378 18.173C4.66539 18.0685 4.58969 17.9449 4.54148 17.8097C4.49327 17.6746 4.47358 17.5309 4.48366 17.3878V12.0935H4.03338V17.3765C4.04194 17.5215 4.02078 17.6667 3.9712 17.8033C3.92162 17.9398 3.84467 18.0648 3.74506 18.1705C3.64545 18.2762 3.52529 18.3605 3.39195 18.4181C3.25861 18.4758 3.11489 18.5056 2.96963 18.5057Z" fill="#C4C4C4"/>
</svg>
