<svg width="77" height="56" viewBox="0 0 77 56" fill="none" xmlns="http://www.w3.org/2000/svg">
<path d="M38.4202 51.1598C35.7929 51.1664 33.1903 50.6519 30.7632 49.646C28.3361 48.6402 26.1325 47.1629 24.2801 45.2998C22.3698 43.4549 20.8463 41.248 19.7981 38.8079C18.7499 36.3678 18.1981 33.7434 18.1751 31.0879C18.152 28.4323 18.658 25.7986 19.6636 23.3407C20.6692 20.8828 22.1544 18.6498 24.0322 16.7719C25.9101 14.8941 28.1432 13.409 30.6011 12.4034C33.059 11.3978 35.6926 10.8917 38.3482 10.9148C41.0038 10.9379 43.6281 11.4896 46.0681 12.5378C48.5082 13.586 50.7151 15.1096 52.5601 17.0198C54.4232 18.8722 55.9004 21.0758 56.9063 23.5029C57.9121 25.93 58.4268 28.5325 58.4202 31.1598C58.424 33.7867 57.9081 36.3884 56.9024 38.8151C55.8967 41.2418 54.4209 43.4457 52.5601 45.2998C50.7076 47.1629 48.504 48.6402 46.0769 49.646C43.6498 50.6519 41.0475 51.1664 38.4202 51.1598ZM35.1201 38.1598C34.9304 38.162 34.7442 38.2127 34.5796 38.3073C34.415 38.4018 34.2776 38.5369 34.1802 38.6998C33.986 39.0091 33.902 39.3751 33.9419 39.7381C33.9819 40.1012 34.1434 40.44 34.4002 40.6998C35.5676 41.6857 37.0421 42.2338 38.5701 42.2498C40.3034 42.2119 41.9522 41.4935 43.1602 40.2498C43.399 39.9753 43.537 39.6275 43.5515 39.2639C43.5661 38.9003 43.4563 38.5426 43.2403 38.2498C43.1358 38.1021 42.9979 37.9807 42.8382 37.8957C42.6784 37.8106 42.501 37.764 42.3201 37.7598C42.1709 37.7631 42.024 37.7967 41.8882 37.8586C41.7524 37.9205 41.6304 38.0094 41.5301 38.1198H41.4802C40.6786 38.9086 39.6047 39.3596 38.4802 39.3798C37.4842 39.36 36.5232 39.008 35.75 38.3798C35.5477 38.1874 35.2792 38.0801 35 38.0798L35.1201 38.1598ZM45.5701 27.7698C46.4479 27.7977 47.2833 28.1547 47.9102 28.7698C47.9895 28.8623 48.0874 28.9369 48.1978 28.9886C48.3081 29.0403 48.4282 29.068 48.5501 29.0698C48.6875 29.0654 48.8224 29.0309 48.9451 28.9687C49.0678 28.9065 49.1752 28.8181 49.26 28.7098C49.4402 28.4859 49.5386 28.2072 49.5386 27.9198C49.5386 27.6324 49.4402 27.3537 49.26 27.1298C48.3684 26.2162 47.1612 25.6783 45.8858 25.6262C44.6103 25.5742 43.3633 26.012 42.4002 26.8498C42.1908 27.0482 42.0565 27.313 42.02 27.5991C41.9836 27.8853 42.0473 28.1752 42.2002 28.4198C42.2764 28.5518 42.3856 28.6618 42.5171 28.7389C42.6486 28.816 42.7978 28.8577 42.9502 28.8598C43.1627 28.8589 43.3665 28.7766 43.52 28.6298L43.5801 28.5798C44.1854 28.0864 44.9395 27.8116 45.7202 27.7998L45.5701 27.7698ZM30.5701 27.7698C31.4479 27.7977 32.2833 28.1547 32.9102 28.7698C32.9895 28.8623 33.0874 28.9369 33.1978 28.9886C33.3081 29.0403 33.4282 29.068 33.5501 29.0698C33.6864 29.0667 33.8204 29.0328 33.9417 28.9704C34.0629 28.9081 34.1682 28.8189 34.25 28.7098C34.4302 28.4859 34.5286 28.2072 34.5286 27.9198C34.5286 27.6324 34.4302 27.3537 34.25 27.1298C33.3584 26.2162 32.1512 25.6783 30.8758 25.6262C29.6003 25.5742 28.3533 26.012 27.3902 26.8498C27.184 27.0502 27.052 27.3147 27.0156 27.5999C26.9793 27.8851 27.0409 28.1741 27.1902 28.4198C27.2695 28.5513 27.3806 28.6606 27.5135 28.7376C27.6463 28.8145 27.7967 28.8566 27.9502 28.8598C28.1627 28.8589 28.3665 28.7766 28.52 28.6298L28.5701 28.5798C29.18 28.0877 29.9367 27.8133 30.7202 27.7998L30.5701 27.7698Z" fill="#FFC9C9"/>
<path d="M6.76002 19.6913C6.74054 19.4791 6.7643 19.2652 6.8296 19.0624C6.8949 18.8597 7.00053 18.6721 7.14015 18.5112L10.3701 13.3013L20.77 5.30127L29.9402 3.61127L35.6201 1.78125C35.8707 2.27676 35.9207 2.84972 35.76 3.38123C35.4558 4.00476 35.0191 4.5543 34.4802 4.99127L31.9702 5.91125L31.3601 5.26123L23.28 6.94128L22.2102 7.57123L27.2102 6.72125L31 5.99127C31.117 6.2771 31.1331 6.59419 31.0459 6.89044C30.9587 7.18669 30.7732 7.44445 30.52 7.62128C29.9516 8.03302 29.28 8.27878 28.5801 8.33124L26.5801 9.33124L24.51 10.2012L23.7202 11.7513C23.2475 13.184 22.3642 14.4462 21.1802 15.3812C19.9519 16.325 18.6697 17.1965 17.3401 17.9913C16.4753 18.5384 15.5488 18.9814 14.5801 19.3113L12.77 22.6913C12.5257 23.0271 12.1722 23.2675 11.77 23.3713C11.3186 23.3498 10.8867 23.1812 10.5401 22.8912L7.95021 20.8912L7.56007 20.6213C7.20257 20.4027 6.92268 20.0774 6.76002 19.6913Z" fill="#FF8080"/>
<path d="M20.6001 16.4218C21.5399 15.9387 22.381 15.2842 23.0801 14.4918C23.9597 13.3938 24.6063 12.128 24.9802 10.7717L28.8701 9.77173L32.1902 9.26172C32.536 9.50023 32.7844 9.85517 32.8901 10.2617C33.1201 11.5017 30.8901 12.2617 30.8901 12.2617L28.78 12.8317L26.5601 14.3517C25.6451 14.9226 24.6604 15.3731 23.6301 15.6918C21.9801 16.1618 20.6001 16.4218 20.6001 16.4218Z" fill="#FF8080"/>
<path d="M36.3901 2.77094L38.3201 1.96094C38.4563 2.26617 38.5269 2.59671 38.5269 2.93097C38.5269 3.26523 38.4563 3.5957 38.3201 3.90094C38.0301 4.40338 37.6343 4.83675 37.1602 5.17096L31.3501 7.63092L31.75 6.50098L34.75 5.37097C35.1583 5.00449 35.5301 4.59924 35.8601 4.16095C36.1542 3.75136 36.3369 3.27236 36.3901 2.77094Z" fill="#FF8080"/>
<path d="M70.6202 19.693C70.6391 19.4809 70.6152 19.2671 70.5499 19.0644C70.4846 18.8617 70.3794 18.6742 70.2403 18.5129L67.0101 13.313L56.6102 5.31299L47.4503 3.62299L41.7601 1.79297C41.5144 2.28987 41.4646 2.86093 41.6202 3.39294C41.9313 4.01491 42.3711 4.56374 42.9102 5.00299L45.4102 5.92297L46.0201 5.28296L54.1002 6.95294L55.1803 7.58295L50.1803 6.73297L46.3902 6.00299C46.2762 6.29077 46.2615 6.60837 46.3485 6.90546C46.4354 7.20254 46.619 7.46206 46.8702 7.64294C47.4416 8.04747 48.1121 8.2894 48.8101 8.34296L50.8101 9.34296L52.8802 10.213L53.6702 11.7629C54.1403 13.1996 55.0282 14.4635 56.2203 15.3929C57.4474 16.3366 58.7259 17.2113 60.0501 18.0129C60.9207 18.5533 61.8501 18.9928 62.8201 19.3229L64.6302 22.7029C64.8756 23.0356 65.2292 23.2726 65.6302 23.373C66.0827 23.3568 66.5163 23.1876 66.8602 22.8929L69.4503 20.8929L69.8402 20.613C70.1857 20.3905 70.4573 20.0703 70.6202 19.693Z" fill="#FF8080"/>
<path d="M56.7801 16.4218C55.8382 15.942 54.9965 15.287 54.3001 14.4918C53.4198 13.3957 52.7763 12.129 52.4102 10.7717L48.5101 9.77173L45.1902 9.26172C44.8469 9.50274 44.5992 9.85667 44.4903 10.2617C44.2603 11.4917 46.4903 12.2017 46.4903 12.2017L48.5901 12.7717L50.8201 14.3018C51.7319 14.8694 52.7136 15.3164 53.7403 15.6317C55.4003 16.1617 56.7801 16.4218 56.7801 16.4218Z" fill="#FF8080"/>
<path d="M40.9902 2.77484L39.0601 1.96484C38.9238 2.27008 38.8535 2.60062 38.8535 2.93488C38.8535 3.26913 38.9238 3.59961 39.0601 3.90485C39.3422 4.41299 39.7396 4.84797 40.2202 5.17487L46.02 7.64484L45.6201 6.50488L42.6201 5.37488C42.2171 5.00317 41.8457 4.59841 41.51 4.16486C41.2195 3.75425 41.0405 3.27533 40.9902 2.77484Z" fill="#FF8080"/>
</svg>
