<svg width="43" height="35" viewBox="0 0 43 35" fill="none" xmlns="http://www.w3.org/2000/svg">
<path d="M42.1302 30.4611L38.4701 27.6311C38.9929 27.5935 39.4825 27.3609 39.8419 26.9794C40.2012 26.5978 40.404 26.0952 40.4102 25.5711V8.47114C40.4063 8.19141 40.3473 7.9152 40.2366 7.65827C40.126 7.40134 39.9658 7.16871 39.7652 6.9737C39.5646 6.77869 39.3275 6.62513 39.0676 6.52173C38.8076 6.41834 38.5299 6.36713 38.2502 6.3711C37.8235 6.37953 37.4091 6.51536 37.0602 6.76111L29.7702 11.7611V20.8811L27.6502 19.2411V7.4311C27.6502 6.58771 27.3152 5.77886 26.7188 5.1825C26.1224 4.58613 25.3135 4.2511 24.4701 4.2511H8.22015L3.01019 0.251103C2.786 0.0776103 2.50212 0.000208907 2.22088 0.035832C1.93965 0.0714551 1.68404 0.217193 1.51019 0.441105L0.21014 2.11109C0.123967 2.22068 0.0603596 2.34623 0.0227624 2.48047C-0.0148348 2.61472 -0.025696 2.75503 -0.00897592 2.89344C0.00774418 3.03184 0.0516901 3.16562 0.120174 3.28705C0.188659 3.40848 0.280402 3.51516 0.390194 3.60108L2.82013 5.48108L27.6502 24.6711L39.5202 33.8511C39.7444 34.0246 40.0283 34.102 40.3095 34.0664C40.5907 34.0308 40.8463 33.885 41.0202 33.6611L42.3201 31.9811C42.406 31.8723 42.4696 31.7476 42.507 31.6142C42.5445 31.4808 42.5552 31.3412 42.5385 31.2036C42.5218 31.066 42.478 30.9331 42.4096 30.8126C42.3412 30.692 42.2497 30.5861 42.1402 30.5011L42.1302 30.4611ZM2.13018 26.6111C2.13018 27.4545 2.46521 28.2633 3.06158 28.8597C3.65795 29.456 4.46685 29.7911 5.31024 29.7911H24.4902C25.2175 29.7949 25.9239 29.5477 26.4902 29.0911L2.13018 10.2811V26.6111Z" fill="white"/>
</svg>
