<svg width="52" height="41" viewBox="0 0 52 41" fill="none" xmlns="http://www.w3.org/2000/svg">
<path d="M31.109 0.160156C27.1534 0.160156 23.2867 1.33313 19.9977 3.53076C16.7087 5.72839 14.1452 8.85195 12.6315 12.5065C11.1177 16.161 10.7216 20.1824 11.4933 24.062C12.265 27.9416 14.1699 31.5052 16.9669 34.3022C19.764 37.0993 23.3278 39.0042 27.2074 39.7759C31.087 40.5476 35.1083 40.1514 38.7628 38.6377C42.4174 37.1239 45.5408 34.5606 47.7384 31.2716C49.936 27.9826 51.109 24.1158 51.109 20.1602C51.109 14.8558 49.0021 9.76879 45.2514 6.01807C41.5006 2.26734 36.4133 0.160156 31.109 0.160156ZM21.109 17.3002C21.109 16.7345 21.2769 16.1815 21.5912 15.7112C21.9055 15.2409 22.352 14.8743 22.8746 14.6578C23.3972 14.4414 23.9722 14.3848 24.527 14.4951C25.0818 14.6055 25.5914 14.8779 25.9913 15.2778C26.3913 15.6778 26.6637 16.1874 26.7741 16.7422C26.8844 17.297 26.8279 17.8721 26.6115 18.3947C26.395 18.9172 26.0283 19.3638 25.558 19.6781C25.0877 19.9924 24.5348 20.1602 23.9691 20.1602C23.2106 20.1602 22.483 19.8589 21.9467 19.3225C21.4103 18.7862 21.109 18.0587 21.109 17.3002ZM36.2892 26.9901C34.8024 28.1287 32.9817 28.7457 31.109 28.7457C29.2363 28.7457 27.4159 28.1287 25.9291 26.9901L25.849 26.9202C25.5821 26.6669 25.4232 26.3205 25.4052 25.953C25.3872 25.5855 25.5115 25.2252 25.7523 24.947C25.9932 24.6688 26.3321 24.4941 26.6984 24.4594C27.0647 24.4246 27.4302 24.5323 27.7191 24.7601C28.7044 25.4809 29.8934 25.8694 31.1141 25.8694C32.3349 25.8694 33.5239 25.4809 34.5092 24.7601L34.589 24.7002C34.8895 24.5037 35.2529 24.4273 35.6071 24.4863C35.9612 24.5454 36.2802 24.7355 36.5006 25.0189C36.721 25.3023 36.8269 25.6583 36.797 26.0161C36.7671 26.3739 36.6034 26.7074 36.339 26.9502L36.2892 26.9901ZM38.2892 20.1602C37.7231 20.1621 37.169 19.996 36.6974 19.683C36.2258 19.3699 35.8578 18.924 35.6398 18.4016C35.4218 17.8792 35.3636 17.3039 35.4728 16.7484C35.582 16.193 35.8537 15.6824 36.2533 15.2814C36.6529 14.8804 37.1624 14.607 37.7174 14.4958C38.2725 14.3847 38.848 14.4407 39.3712 14.6569C39.8944 14.873 40.3417 15.2397 40.6564 15.7102C40.9711 16.1807 41.139 16.7341 41.139 17.3002C41.1391 18.057 40.8393 18.7829 40.3051 19.319C39.7709 19.855 39.046 20.1575 38.2892 20.1602Z" fill="#FFE2C4"/>
<path d="M6.57973 15.3223C6.08337 13.5167 6.19432 11.598 6.89541 9.86152C7.59649 8.12507 8.84896 6.6672 10.4599 5.71235H10.5499C10.7174 5.61771 10.9022 5.55784 11.0934 5.53632C11.2846 5.5148 11.4782 5.53206 11.6625 5.5871C11.8468 5.64214 12.0181 5.73382 12.1662 5.85663C12.3142 5.97945 12.4361 6.13084 12.5243 6.30182C12.6125 6.4728 12.6651 6.65977 12.6793 6.85163C12.6936 7.04348 12.6689 7.23629 12.6068 7.4184C12.5448 7.60051 12.4469 7.76815 12.3185 7.91144C12.1901 8.05473 12.034 8.17067 11.8598 8.25226C10.8242 8.89594 10.0199 9.85221 9.56337 10.9829C9.10681 12.1135 9.02172 13.36 9.31997 14.5423V14.6423C9.37827 14.8249 9.39908 15.0174 9.38149 15.2083C9.3639 15.3992 9.30811 15.5847 9.21743 15.7536C9.12674 15.9225 9.00306 16.0715 8.85366 16.1916C8.70425 16.3117 8.53224 16.4006 8.3478 16.4529C8.16336 16.5053 7.97016 16.52 7.77993 16.4962C7.5897 16.4724 7.40624 16.4105 7.24038 16.3144C7.07451 16.2183 6.9298 16.0897 6.8146 15.9365C6.6994 15.7832 6.61624 15.6084 6.56997 15.4223L6.57973 15.3223Z" fill="#FFB467"/>
<path d="M1.29014 14.3106C0.792957 12.5039 0.904429 10.5837 1.60752 8.84675C2.31062 7.10979 3.56611 5.65278 5.18003 4.70063H5.26011C5.42761 4.60599 5.61239 4.54612 5.80357 4.5246C5.99474 4.50308 6.18832 4.52034 6.37266 4.57538C6.557 4.63042 6.72824 4.7221 6.87632 4.84491C7.0244 4.96773 7.14629 5.11912 7.23448 5.2901C7.32266 5.46109 7.3753 5.64805 7.38951 5.83991C7.40372 6.03177 7.37927 6.22458 7.31724 6.40668C7.25521 6.58879 7.15704 6.75656 7.02867 6.89985C6.9003 7.04313 6.74439 7.15895 6.57017 7.24054C5.53456 7.88422 4.73035 8.84049 4.27378 9.97113C3.81721 11.1018 3.73188 12.3483 4.03013 13.5306V13.6306C4.08843 13.8132 4.10924 14.0057 4.09166 14.1966C4.07407 14.3875 4.01828 14.573 3.92759 14.7419C3.83691 14.9108 3.71323 15.0597 3.56382 15.1799C3.41442 15.3 3.2424 15.3889 3.05796 15.4412C2.87352 15.4935 2.68057 15.5082 2.49034 15.4844C2.3001 15.4606 2.11641 15.3988 1.95054 15.3027C1.78468 15.2065 1.63996 15.078 1.52476 14.9247C1.40956 14.7715 1.3264 14.5966 1.28013 14.4106L1.29014 14.3106Z" fill="#FFB467"/>
</svg>
