<svg width="77" height="56" viewBox="0 0 77 56" fill="none" xmlns="http://www.w3.org/2000/svg">
<path d="M51.4197 0.0117188C47.4641 0.0117188 43.5971 1.1847 40.3081 3.38232C37.0191 5.57995 34.4559 8.70357 32.9421 12.3581C31.4284 16.0126 31.0323 20.034 31.804 23.9136C32.5757 27.7932 34.4805 31.3568 37.2776 34.1539C40.0746 36.9509 43.6382 38.8557 47.5178 39.6274C51.3974 40.3991 55.4187 40.0031 59.0732 38.4893C62.7278 36.9756 65.8515 34.4122 68.0491 31.1232C70.2467 27.8342 71.4197 23.9673 71.4197 20.0117C71.4197 14.7074 69.3125 9.62036 65.5618 5.86963C61.811 2.1189 56.724 0.0117188 51.4197 0.0117188ZM41.4197 17.1517C41.4197 16.5865 41.5871 16.0339 41.9009 15.5638C42.2147 15.0937 42.6609 14.7272 43.1829 14.5104C43.7049 14.2937 44.2795 14.2365 44.834 14.346C45.3885 14.4556 45.898 14.7269 46.2983 15.1259C46.6987 15.5249 46.972 16.0336 47.0835 16.5877C47.195 17.1418 47.1397 17.7166 46.9248 18.2393C46.7099 18.7621 46.3447 19.2094 45.8757 19.5249C45.4067 19.8404 44.8548 20.0097 44.2896 20.0117C43.531 20.0117 42.8037 19.7104 42.2673 19.1741C41.731 18.6377 41.4297 17.9103 41.4297 17.1517H41.4197ZM58.8196 26.8118C58.8196 29.6418 55.5097 31.9318 51.4297 31.9318C47.3497 31.9318 44.0295 29.6318 44.0295 26.8118H58.8196ZM58.5696 20.0117C58.0044 20.0117 57.4518 19.8443 56.9817 19.5305C56.5116 19.2166 56.145 18.7705 55.9282 18.2485C55.7115 17.7265 55.6544 17.152 55.7639 16.5975C55.8735 16.043 56.1447 15.5333 56.5437 15.1329C56.9427 14.7326 57.4515 14.4594 58.0056 14.3479C58.5597 14.2364 59.1345 14.2917 59.6572 14.5066C60.18 14.7215 60.6274 15.0865 60.9429 15.5555C61.2583 16.0245 61.4277 16.5765 61.4297 17.1417C61.4297 17.9002 61.1284 18.6277 60.592 19.1641C60.0557 19.7004 59.3281 20.0018 58.5696 20.0018" fill="#FDF0E2"/>
<path d="M17.1198 43.861L12.7997 43.5811C12.7997 43.5811 10.7199 43.5811 10.7199 42.5211C10.7199 41.4611 12.3998 41.4611 12.3998 41.4611L17.2597 41.2511L17.6098 40.571L8.07973 37.8711C8.07973 37.8711 6.71968 37.6511 6.77968 36.5411C6.83968 35.4311 8.2997 35.5411 8.2997 35.5411L18.1398 37.6211L18.4498 37.011L7.69985 32.321C7.69985 32.321 5.57969 31.491 6.03969 30.321C6.49969 29.151 8.38979 29.8011 8.38979 29.8011L19.0997 33.6111L19.4098 33.011L11.6198 29.011C11.6198 29.011 9.3797 27.7011 10.0497 26.5211C10.7197 25.3411 12.8998 26.5211 12.8998 26.5211L20.3798 30.3311L22.3798 30.7511C22.3798 30.7511 24.1098 30.9511 24.4298 30.3411C24.7498 29.7311 24.1498 28.7211 24.1498 28.7211C24.1498 28.7211 22.3999 26.7211 22.2299 25.2211C22.2294 24.7133 22.3497 24.2126 22.5809 23.7605C22.8122 23.3084 23.1476 22.9179 23.5597 22.6211L25.2299 25.381C25.2299 25.381 29.8598 29.5611 31.8898 33.1511C33.9198 36.7411 33.3998 36.9311 33.3998 36.9311L29.7497 44.6811C29.7497 44.6811 28.3899 45.551 25.2399 45.361C22.4998 45.0629 19.7855 44.5616 17.1198 43.861Z" fill="#FFC78D"/>
</svg>
