<svg width="26" height="29" viewBox="0 0 26 29" fill="none" xmlns="http://www.w3.org/2000/svg">
<path d="M7.01001 29H2.67993C2.32799 29 1.97945 28.9307 1.6543 28.796C1.32914 28.6613 1.03377 28.4639 0.784912 28.2151C0.536051 27.9662 0.33854 27.6707 0.203857 27.3456C0.0691748 27.0204 0 26.6719 0 26.32V2.68001C0 1.96923 0.282315 1.28756 0.784912 0.784958C1.28751 0.28236 1.96915 0 2.67993 0H7.03003C7.74081 0 8.42245 0.28236 8.92505 0.784958C9.42765 1.28756 9.70996 1.96923 9.70996 2.68001V26.32C9.70996 27.0308 9.42765 27.7125 8.92505 28.2151C8.42245 28.7177 7.74081 29 7.03003 29H7.01001ZM25.01 26.32V2.68001C25.01 1.96923 24.7277 1.28756 24.2251 0.784958C23.7225 0.28236 23.0406 0 22.3298 0H17.97C17.2592 0 16.5775 0.28236 16.075 0.784958C15.5724 1.28756 15.29 1.96923 15.29 2.68001V26.32C15.29 27.0308 15.5724 27.7125 16.075 28.2151C16.5775 28.7177 17.2592 29 17.97 29H22.3298C23.0354 28.9921 23.7094 28.7063 24.2056 28.2045C24.7017 27.7028 24.98 27.0256 24.98 26.32H25.01Z" fill="white"/>
</svg>
