<svg width="50" height="43" viewBox="0 0 50 43" fill="none" xmlns="http://www.w3.org/2000/svg">
<path d="M20.082 0.0117188C16.1264 0.0117188 12.2595 1.1847 8.97047 3.38232C5.68148 5.57995 3.11825 8.70351 1.6045 12.358C0.0907478 16.0126 -0.305388 20.034 0.466317 23.9136C1.23802 27.7932 3.1429 31.3569 5.93995 34.1539C8.737 36.951 12.3006 38.8557 16.1802 39.6274C20.0598 40.3991 24.0811 40.0031 27.7356 38.4894C31.3901 36.9756 34.5138 34.4122 36.7114 31.1232C38.9091 27.8342 40.082 23.9673 40.082 20.0117C40.082 14.7074 37.9749 9.62036 34.2241 5.86963C30.4734 2.1189 25.3864 0.0117188 20.082 0.0117188ZM10.082 17.1517C10.082 16.5857 10.25 16.0323 10.5647 15.5618C10.8794 15.0912 11.3267 14.7247 11.8499 14.5085C12.373 14.2924 12.9486 14.2362 13.5037 14.3474C14.0587 14.4586 14.5682 14.732 14.9678 15.1329C15.3674 15.5339 15.6391 16.0445 15.7483 16.6C15.8575 17.1554 15.7993 17.7308 15.5813 18.2532C15.3633 18.7756 14.9953 19.2216 14.5237 19.5347C14.0521 19.8477 13.498 20.0137 12.9319 20.0117C12.1751 20.0091 11.4502 19.7066 10.916 19.1705C10.3818 18.6345 10.082 17.9085 10.082 17.1517ZM20.082 31.9418C15.992 31.9418 12.6819 29.6418 12.6819 26.8118H27.4619C27.4619 29.6418 24.162 31.9318 20.082 31.9318V31.9418ZM27.2219 20.0117C26.6563 20.0117 26.1034 19.844 25.6331 19.5298C25.1627 19.2155 24.7961 18.7688 24.5796 18.2462C24.3631 17.7236 24.3066 17.1485 24.417 16.5938C24.5274 16.039 24.7997 15.5294 25.1997 15.1294C25.5997 14.7294 26.1093 14.457 26.6641 14.3467C27.2189 14.2363 27.7938 14.2929 28.3164 14.5094C28.839 14.7259 29.2858 15.0925 29.6001 15.5629C29.9144 16.0332 30.082 16.5861 30.082 17.1517C30.082 17.9103 29.7807 18.6377 29.2444 19.1741C28.708 19.7104 27.9804 20.0117 27.2219 20.0117Z" fill="#CCFFFA"/>
<path d="M30.7818 26.9705C30.9116 26.5829 31.1172 26.2249 31.3868 25.9176C31.6563 25.6103 31.9845 25.3597 32.3519 25.1804C32.1541 24.7384 32.0518 24.2596 32.0518 23.7754C32.0518 23.2912 32.1541 22.8124 32.3519 22.3704C32.7376 21.5653 33.4079 20.9316 34.2335 20.5918C35.059 20.252 35.9811 20.2301 36.8218 20.5304L41.5919 21.4705C41.603 20.3165 41.8694 19.1793 42.3719 18.1404C43.5419 15.3404 45.8819 13.4704 48.1419 14.1404C49.5319 14.5904 49.6717 15.3404 49.7117 15.3904C49.8517 15.7504 49.4718 16.3904 49.2418 17.0104C48.6403 18.3176 48.2327 19.7055 48.0318 21.1304C47.9718 22.5304 49.1118 23.9605 49.2418 25.5905C49.3518 26.8605 48.8517 29.2204 47.9117 29.9904C48.2534 30.8359 48.296 31.7728 48.0323 32.6458C47.7686 33.5188 47.2144 34.2755 46.4617 34.7904C46.9017 35.6704 45.7717 38.7905 44.7217 39.1905C44.7152 39.8181 44.5215 40.4295 44.1651 40.9462C43.8088 41.4629 43.3061 41.8614 42.7217 42.0905C41.4351 42.3062 40.118 42.2551 38.8519 41.9405C37.3065 41.5808 35.814 41.0228 34.4117 40.2804C33.5717 39.8204 31.5118 38.4804 31.0718 36.9304C30.9982 36.6098 30.9914 36.2774 31.0516 35.954C31.1118 35.6306 31.2376 35.3231 31.4217 35.0504C31.0268 34.5259 30.7652 33.9134 30.659 33.2655C30.5528 32.6176 30.6051 31.9536 30.8118 31.3305C31.1009 31.0416 31.3302 30.6987 31.4866 30.3212C31.6431 29.9437 31.7237 29.539 31.7237 29.1304C31.7237 28.7218 31.6431 28.3172 31.4866 27.9397C31.3302 27.5622 31.1009 27.2193 30.8118 26.9304L30.7818 26.9705Z" fill="#2BD0B7"/>
</svg>
