<svg width="18" height="19" viewBox="0 0 18 19" fill="none" xmlns="http://www.w3.org/2000/svg">
<g clip-path="url(#clip0_1425_47311)">
<path d="M15.125 16.7177V5.26469C15.1239 4.77834 14.9303 4.31221 14.5864 3.96831C14.2425 3.62441 13.7763 3.43074 13.29 3.42969H1.837C1.35031 3.43022 0.883667 3.62365 0.539335 3.96761C0.195002 4.31157 0.00105832 4.77799 0 5.26469V16.7247C0.00105832 17.2114 0.195002 17.6778 0.539335 18.0218C0.883667 18.3657 1.35031 18.5592 1.837 18.5597H13.297C13.7829 18.5552 14.2473 18.3593 14.5896 18.0144C14.9318 17.6695 15.1242 17.2036 15.125 16.7177ZM4.696 11.6807L6.642 14.4307L9.508 10.3057L13.289 15.8057H1.837L4.696 11.6807Z" fill="#C4C4C4"/>
<path d="M16.037 0.679688H4.584C4.09748 0.68101 3.63131 0.875071 3.28757 1.21937C2.94383 1.56368 2.75053 2.03017 2.75 2.51669V2.74469H13.977C14.4628 2.74574 14.9285 2.939 15.2723 3.28225C15.6161 3.6255 15.8102 4.09086 15.812 4.57669V15.8047H16.037C16.5233 15.8036 16.9895 15.61 17.3334 15.2661C17.6773 14.9222 17.8709 14.456 17.872 13.9697V2.51669C17.8715 2.02999 17.678 1.56335 17.3341 1.21902C16.9901 0.87469 16.5237 0.680746 16.037 0.679688Z" fill="#C4C4C4"/>
</g>
<defs>
<clipPath id="clip0_1425_47311">
<rect width="18" height="18" fill="white" transform="translate(0 0.5)"/>
</clipPath>
</defs>
</svg>
