<svg width="42" height="41" viewBox="0 0 42 41" fill="none" xmlns="http://www.w3.org/2000/svg">
<path d="M15.4297 15.3098C12.9005 17.8388 10.7816 20.7472 9.14966 23.9298L14.1497 28.9298C14.4527 29.2346 14.6648 29.6179 14.762 30.0366C14.8591 30.4553 14.8376 30.8928 14.6997 31.2999C13.9197 33.6624 13.4786 36.1235 13.3896 38.6098C13.3816 39.2088 13.1373 39.7803 12.7097 40.1998C12.4977 40.4143 12.2455 40.5847 11.9675 40.7014C11.6895 40.8181 11.3911 40.8787 11.0896 40.8799H3.0896C2.79108 40.8848 2.49487 40.8278 2.21948 40.7125C1.94409 40.5972 1.69566 40.426 1.48975 40.2098C1.27397 39.9984 1.10203 39.7465 0.983643 39.4685C0.86525 39.1905 0.802778 38.892 0.799805 38.5898C1.05305 28.5914 5.13773 19.0724 12.21 12.0002C19.2822 4.92795 28.8014 0.843089 38.7998 0.589844C39.4074 0.597618 39.9878 0.842435 40.4175 1.27209C40.8471 1.70175 41.0918 2.28227 41.0996 2.88985V10.8898C41.0985 11.1913 41.0378 11.4897 40.9211 11.7677C40.8045 12.0457 40.6341 12.2979 40.4197 12.5098C39.9937 12.9279 39.4261 13.1706 38.8296 13.1898C36.3375 13.2709 33.8711 13.7191 31.5098 14.5199C31.1027 14.6577 30.665 14.6793 30.2463 14.5822C29.8277 14.485 29.4444 14.2729 29.1396 13.9698L24.1396 8.96985C20.9127 10.5985 17.9713 12.7397 15.4297 15.3098Z" fill="white"/>
</svg>
