<svg width="18" height="16" viewBox="0 0 18 16" fill="none" xmlns="http://www.w3.org/2000/svg">
<path d="M6.4014 5.46601H6.42441C6.96494 5.46621 7.49341 5.3061 7.94296 5.00596C8.39251 4.70582 8.74295 4.27911 8.94998 3.77979C9.15702 3.28048 9.21131 2.731 9.10605 2.20081C9.00079 1.67063 8.74069 1.18354 8.35861 0.801187C7.97654 0.41883 7.48968 0.15836 6.95956 0.0527124C6.42945 -0.052935 5.87993 0.000978574 5.38046 0.20765C4.881 0.414322 4.45401 0.764485 4.15353 1.21381C3.85306 1.66314 3.69261 2.19147 3.69241 2.732C3.6907 3.08941 3.7594 3.44367 3.89462 3.77451C4.02985 4.10536 4.22893 4.40634 4.4805 4.66023C4.73207 4.91411 5.03122 5.11593 5.36081 5.25419C5.6904 5.39245 6.04399 5.46444 6.4014 5.46601Z" fill="#C4C4C4"/>
<path d="M7.26373 11.0061L7.9447 10.4831V10.407L7.24475 9.87805L7.19275 9.83804L7.14575 9.79306C6.95458 9.59919 6.82838 9.35068 6.78467 9.08194C6.74095 8.8132 6.78186 8.53752 6.90173 8.29306L6.91571 8.26505L6.9317 8.23706L7.45374 7.35706C7.114 7.3147 6.77211 7.292 6.42975 7.28906C4.30375 7.28906 0.0537109 8.35105 0.0537109 10.4771V12.7511H7.0177L6.95972 12.6511C6.79637 12.3883 6.73704 12.074 6.79327 11.7697C6.8495 11.4654 7.01726 11.1931 7.26373 11.0061Z" fill="#C4C4C4"/>
<path d="M13.9695 15.5887C14.0288 15.5874 14.0862 15.5674 14.1335 15.5314C14.1807 15.4955 14.2154 15.4455 14.2325 15.3887L14.4435 14.0247C14.7605 13.8889 15.0606 13.7164 15.3375 13.5107L16.6535 14.0247C16.6853 14.0378 16.7191 14.0449 16.7535 14.0457C16.7967 14.0467 16.8394 14.0357 16.8766 14.0138C16.9139 13.9919 16.9444 13.96 16.9645 13.9217L18.0175 12.1467C18.0418 12.0918 18.0497 12.0311 18.0403 11.9719C18.0309 11.9126 18.0046 11.8573 17.9645 11.8127L16.8075 10.9637C16.8298 10.7933 16.8385 10.6214 16.8335 10.4497C16.8335 10.2697 16.8075 10.1157 16.8075 9.93469L17.9075 9.0867C17.9334 9.06852 17.9554 9.04531 17.9721 9.01846C17.9889 8.99162 18 8.96167 18.0049 8.93042C18.0099 8.89917 18.0085 8.86725 18.0009 8.83655C17.9932 8.80584 17.9795 8.77697 17.9605 8.75168L16.9085 6.97668C16.8851 6.93864 16.8523 6.9073 16.8132 6.88574C16.7741 6.86418 16.7301 6.85316 16.6855 6.8537C16.6534 6.85357 16.6217 6.86038 16.5925 6.87369L15.2765 7.3887C15.0031 7.17746 14.7024 7.0042 14.3825 6.87369L14.1985 5.51068C14.1823 5.4528 14.1481 5.40162 14.1008 5.36456C14.0535 5.32751 13.9955 5.30652 13.9355 5.30469H11.8355C11.7754 5.30636 11.7174 5.32727 11.67 5.36435C11.6227 5.40143 11.5885 5.45272 11.5725 5.51068L11.3645 6.86969C11.0476 7.00625 10.7476 7.17908 10.4705 7.3847L9.15448 6.86969C9.12253 6.85737 9.08873 6.85061 9.0545 6.8497C9.01139 6.84867 8.96883 6.8596 8.93158 6.88132C8.89432 6.90303 8.86385 6.93467 8.8435 6.97269L7.79046 8.74768C7.76605 8.80268 7.75811 8.8636 7.76751 8.92303C7.77692 8.98247 7.8033 9.03792 7.8435 9.0827L8.97448 9.93069C8.97448 10.1117 8.94848 10.2657 8.94848 10.4457C8.94848 10.6257 8.97448 10.7797 8.97448 10.9597L7.87451 11.8087C7.84883 11.8269 7.82704 11.8502 7.81048 11.877C7.79392 11.9038 7.78292 11.9336 7.77807 11.9647C7.77323 11.9959 7.77465 12.0276 7.78228 12.0582C7.78992 12.0888 7.8036 12.1175 7.82251 12.1427L8.87451 13.9177C8.89759 13.9561 8.93029 13.9877 8.96942 14.0095C9.00855 14.0312 9.0527 14.0423 9.09747 14.0417C9.12968 14.042 9.16153 14.0348 9.19049 14.0207L10.5055 13.5067C10.7806 13.7184 11.0833 13.8913 11.4055 14.0207L11.6155 15.3847C11.6286 15.4437 11.6622 15.4962 11.7104 15.5328C11.7585 15.5694 11.8181 15.5878 11.8785 15.5847H13.9785L13.9695 15.5887ZM12.8995 8.63968C13.2536 8.64775 13.5976 8.76014 13.8881 8.96277C14.1787 9.1654 14.403 9.44927 14.533 9.77881C14.6629 10.1083 14.6928 10.4689 14.6188 10.8153C14.5448 11.1617 14.3702 11.4786 14.1169 11.7263C13.8636 11.9739 13.5428 12.1413 13.1948 12.2075C12.8468 12.2737 12.487 12.2357 12.1605 12.0984C11.834 11.961 11.5552 11.7304 11.3592 11.4353C11.1632 11.1403 11.0586 10.7939 11.0585 10.4397C11.0598 10.2002 11.1085 9.96337 11.202 9.74289C11.2955 9.5224 11.4318 9.32267 11.6031 9.15524C11.7743 8.98782 11.9771 8.85604 12.1996 8.76755C12.4222 8.67905 12.66 8.63557 12.8995 8.63968Z" fill="#C4C4C4"/>
</svg>
