<svg width="21" height="21" viewBox="0 0 21 21" fill="none" xmlns="http://www.w3.org/2000/svg">
<path d="M5 4.03125H10C10.1326 4.03125 10.2598 4.08394 10.3536 4.1777C10.4473 4.27147 10.5 4.39864 10.5 4.53125C10.5 4.66386 10.4473 4.79106 10.3536 4.88483C10.2598 4.97859 10.1326 5.03125 10 5.03125H5C4.86739 5.03125 4.74025 4.97859 4.64648 4.88483C4.55272 4.79106 4.5 4.66386 4.5 4.53125C4.5 4.39864 4.55272 4.27147 4.64648 4.1777C4.74025 4.08394 4.86739 4.03125 5 4.03125Z" fill="#C4C4C4"/>
<path d="M4 6.03125H11C11.1326 6.03125 11.2598 6.08394 11.3536 6.1777C11.4473 6.27147 11.5 6.39864 11.5 6.53125C11.5 6.66386 11.4473 6.79106 11.3536 6.88483C11.2598 6.97859 11.1326 7.03125 11 7.03125H4C3.86739 7.03125 3.74025 6.97859 3.64648 6.88483C3.55272 6.79106 3.5 6.66386 3.5 6.53125C3.5 6.39864 3.55272 6.27147 3.64648 6.1777C3.74025 6.08394 3.86739 6.03125 4 6.03125Z" fill="#C4C4C4"/>
<path d="M20.1184 15.3923L20.0844 15.3583L20.0464 15.3303L19.0464 14.5973C19.0524 14.4883 19.0544 14.3793 19.0514 14.2703C19.0484 14.1613 19.0434 14.0583 19.0364 13.9703V13.9603L19.9974 13.2253C20.1454 13.1157 20.2452 12.953 20.2758 12.7714C20.3064 12.5898 20.2653 12.4034 20.1614 12.2513L19.0694 10.4173C18.9802 10.2694 18.8414 10.158 18.6776 10.103C18.5138 10.048 18.3358 10.0531 18.1754 10.1173L17.0394 10.5623C16.8554 10.4369 16.6622 10.3256 16.4614 10.2293L16.3034 9.05933V9.02832L16.2954 8.99731C16.2523 8.84189 16.1604 8.7044 16.0333 8.60504C15.9063 8.50569 15.7507 8.4497 15.5894 8.44531H13.3644C13.2042 8.45081 13.0499 8.50731 12.924 8.6066C12.7981 8.70588 12.7071 8.84276 12.6644 8.99731L12.6574 9.02332L12.6524 9.05133L12.4704 10.2293C12.2706 10.3274 12.0775 10.4387 11.8924 10.5623L10.7584 10.1193C10.6694 10.0807 10.5734 10.0609 10.4764 10.0613C10.3501 10.0613 10.226 10.0946 10.1167 10.1578C10.0073 10.221 9.91649 10.3119 9.85342 10.4213L8.75344 12.2703L8.7394 12.2933L8.72939 12.3183C8.66747 12.457 8.64707 12.6106 8.67068 12.7605C8.69428 12.9105 8.76088 13.0504 8.86239 13.1633L8.89242 13.1973L8.92941 13.2243L9.91543 13.9623V13.9753C9.90843 14.0683 9.90041 14.1653 9.90041 14.2753C9.90041 14.3853 9.90843 14.4853 9.91543 14.5753V14.5903L8.95638 15.3253C8.80732 15.4343 8.70668 15.5972 8.67587 15.7793C8.64505 15.9614 8.68651 16.1483 8.79141 16.3003L9.87844 18.1343C9.9682 18.2817 10.1071 18.3926 10.2707 18.4474C10.4342 18.5023 10.612 18.4977 10.7724 18.4343L11.9094 17.9893C12.0945 18.1163 12.2894 18.2284 12.4924 18.3243L12.6744 19.4993V19.5163C12.7067 19.6822 12.7957 19.8317 12.9262 19.9392C13.0566 20.0467 13.2204 20.1054 13.3894 20.1053H15.6114C15.7727 20.1009 15.9282 20.0449 16.0553 19.9456C16.1824 19.8462 16.2743 19.7087 16.3174 19.5533L16.3244 19.5263V19.4993L16.5064 18.3203C16.7059 18.2216 16.899 18.1104 17.0844 17.9873L18.2204 18.4313C18.3092 18.4696 18.4048 18.4893 18.5014 18.4893C18.6277 18.4893 18.7518 18.4561 18.8612 18.3929C18.9705 18.3297 19.0613 18.2388 19.1244 18.1293L20.2244 16.2803L20.2374 16.2573L20.2484 16.2333C20.309 16.0953 20.329 15.9429 20.3059 15.7939C20.2829 15.6449 20.2179 15.5056 20.1184 15.3923ZM14.4904 16.1383C14.1226 16.1383 13.7629 16.0292 13.4571 15.8249C13.1512 15.6205 12.9128 15.33 12.772 14.9901C12.6312 14.6502 12.5944 14.2763 12.6662 13.9155C12.7379 13.5547 12.9151 13.2232 13.1752 12.9631C13.4353 12.703 13.7667 12.5258 14.1275 12.4541C14.4883 12.3823 14.8624 12.4191 15.2022 12.5599C15.5421 12.7007 15.8326 12.9391 16.037 13.245C16.2413 13.5508 16.3504 13.9104 16.3504 14.2783C16.3502 14.7715 16.1541 15.2445 15.8053 15.5933C15.4566 15.942 14.9837 16.138 14.4904 16.1383Z" fill="#C4C4C4"/>
<path d="M3.065 2.69061H11.885C12.2351 2.69061 12.5709 2.82969 12.8184 3.07724C13.066 3.32479 13.205 3.66053 13.205 4.01062V7.23563H15V3.43561C14.9995 2.76062 14.731 2.11345 14.2537 1.63626C13.7763 1.15907 13.129 0.89089 12.454 0.890625H2.54504C1.87007 0.890625 1.2227 1.15874 0.745423 1.63602C0.268142 2.1133 1.96569e-07 2.76063 1.96569e-07 3.43561V15.3456C-0.000131217 15.6799 0.06563 16.0109 0.193482 16.3197C0.321333 16.6285 0.508766 16.9091 0.745117 17.1455C0.981469 17.3818 1.26209 17.5693 1.57092 17.6971C1.87976 17.825 2.21079 17.8908 2.54504 17.8906H8.46405L7.664 16.3086C7.62493 16.2327 7.59381 16.1529 7.57104 16.0706H3.078C2.72792 16.0706 2.3922 15.9315 2.14465 15.684C1.89711 15.4364 1.758 15.1007 1.758 14.7506L1.74603 4.0116C1.7459 3.83825 1.77992 3.66661 1.84613 3.50641C1.91235 3.34621 2.00948 3.20061 2.13196 3.07794C2.25444 2.95528 2.39984 2.85793 2.55994 2.79147C2.72004 2.72502 2.89166 2.69074 3.065 2.69061Z" fill="#C4C4C4"/>
</svg>
