<svg width="38" height="28" viewBox="0 0 38 28" fill="none" xmlns="http://www.w3.org/2000/svg">
<g clip-path="url(#clip0_1587_47398)">
<path d="M33.0346 4.86351H20.4263L18.6633 0.741743C18.5702 0.521905 18.4144 0.334367 18.2155 0.202468C18.0165 0.0705697 17.7831 0.000270968 17.5446 0H4.486C3.43457 0 2.42657 0.417686 1.68322 1.16106C0.939863 1.90442 0.522156 2.91242 0.522156 3.96384V24.0015C0.522156 25.053 0.939842 26.061 1.68322 26.8043C2.42657 27.5477 3.43457 27.9654 4.486 27.9654H33.0349C34.0863 27.9654 35.0943 27.5477 35.8377 26.8043C36.581 26.061 36.9987 25.053 36.9987 24.0015V8.82736C36.9987 7.77594 36.581 6.76794 35.8377 6.02458C35.0943 5.28123 34.0863 4.86352 33.0349 4.86352L33.0346 4.86351ZM34.5667 24.0015C34.57 24.4088 34.4096 24.8005 34.1216 25.0885C33.8337 25.3764 33.442 25.5368 33.0346 25.5336H4.48574C4.07836 25.5368 3.68673 25.3764 3.39874 25.0885C3.11075 24.8005 2.95039 24.4089 2.95365 24.0015V3.96376C2.95039 3.55638 3.11079 3.16475 3.39874 2.87676C3.6867 2.58877 4.07833 2.42841 4.48574 2.43166H16.7418L18.5048 6.55343C18.5979 6.77327 18.7537 6.9608 18.9527 7.0927C19.1516 7.2246 19.3847 7.2949 19.6236 7.29517H32.9982C33.4119 7.28187 33.8128 7.43793 34.1088 7.72697C34.4049 8.01601 34.5702 8.41334 34.5667 8.82724L34.5667 24.0015Z" fill="#D2D2D2"/>
<path d="M22.1522 16.7672L19.9758 18.9558V11.2471C19.9758 10.8126 19.744 10.4112 19.3679 10.1941C18.9917 9.97697 18.5281 9.97697 18.152 10.1941C17.7758 10.4112 17.544 10.8126 17.544 11.2471V18.9558L15.3677 16.7672C15.0591 16.4589 14.6097 16.3384 14.1884 16.4513C13.7669 16.5642 13.438 16.8931 13.3251 17.3146C13.2122 17.7359 13.3327 18.1853 13.641 18.4939L17.8966 22.7495C18.1248 22.9796 18.4356 23.1091 18.7599 23.1091C19.0843 23.1091 19.395 22.9796 19.6233 22.7495L23.8788 18.4939C24.1872 18.1853 24.3077 17.7359 24.1948 17.3146C24.0819 16.8932 23.7529 16.5642 23.3314 16.4513C22.9102 16.3384 22.4608 16.4589 22.1521 16.7672H22.1522Z" fill="#D2D2D2"/>
</g>
<defs>
<clipPath id="clip0_1587_47398">
<rect width="36.5459" height="28" fill="white" transform="translate(0.487244)"/>
</clipPath>
</defs>
</svg>
