<svg width="27" height="30" viewBox="0 0 27 30" fill="none" xmlns="http://www.w3.org/2000/svg">
<g clip-path="url(#clip0_1587_47577)">
<path d="M17.7687 5.97833C17.726 5.82578 17.6447 5.6868 17.5327 5.57478C17.4206 5.46276 17.2817 5.38147 17.1291 5.33876C16.9836 5.30061 16.8305 5.30247 16.686 5.34415C16.5415 5.38582 16.4109 5.46576 16.3081 5.57552L14.4347 7.45428V1.82262C14.4382 1.70663 14.4183 1.59112 14.3763 1.48295C14.3343 1.37477 14.271 1.27612 14.1902 1.19286C14.1094 1.10959 14.0127 1.04339 13.9058 0.998185C13.7989 0.95298 13.684 0.929688 13.568 0.929688C13.452 0.929688 13.3371 0.95298 13.2302 0.998185C13.1233 1.04339 13.0266 1.10959 12.9458 1.19286C12.865 1.27612 12.8017 1.37477 12.7597 1.48295C12.7177 1.59112 12.6978 1.70663 12.7013 1.82262V7.45274L10.8279 5.57399C10.7251 5.46423 10.5945 5.38428 10.45 5.34261C10.3055 5.30093 10.1524 5.29907 10.0069 5.33722C9.85419 5.37982 9.71505 5.46105 9.60288 5.57308C9.49072 5.68511 9.40932 5.82415 9.36654 5.9768C9.32759 6.12197 9.32846 6.27496 9.36903 6.41969C9.40961 6.56442 9.48841 6.69556 9.59716 6.79933L12.8711 10.1102C12.9634 10.2046 13.0737 10.2795 13.1954 10.3304C13.3172 10.3814 13.4479 10.4074 13.5799 10.4069C13.7129 10.4067 13.8445 10.3799 13.967 10.3282C14.0895 10.2764 14.2004 10.2008 14.2933 10.1056L17.5373 6.8001C17.646 6.69648 17.7249 6.56551 17.7656 6.42093C17.8063 6.27634 17.8074 6.12347 17.7687 5.97833Z" fill="#D2D2D2" stroke="#D2D2D2" stroke-width="0.4"/>
<path d="M25.9217 26.4345L23.0544 22.1296C22.9093 21.8912 22.8219 21.6222 22.7992 21.344L22.4086 11.1969C22.3972 10.9148 22.2774 10.648 22.0742 10.452C21.871 10.256 21.6001 10.1458 21.3178 10.1445H18.1661C18.0509 10.1407 17.9362 10.1601 17.8286 10.2016C17.7211 10.243 17.623 10.3056 17.5401 10.3856C17.4572 10.4656 17.3912 10.5615 17.3461 10.6675C17.3009 10.7735 17.2775 10.8875 17.2772 11.0027C17.2769 11.1179 17.2997 11.232 17.3443 11.3382C17.3889 11.4445 17.4543 11.5407 17.5368 11.6212C17.6193 11.7016 17.717 11.7647 17.8243 11.8067C17.9316 11.8487 18.0463 11.8688 18.1614 11.8656H20.2639C20.379 11.866 20.4894 11.9111 20.5717 11.9915C20.6541 12.0718 20.702 12.1811 20.7052 12.2961L20.9558 20.4761C20.9578 20.5318 20.9486 20.5873 20.9287 20.6394C20.9088 20.6914 20.8787 20.739 20.84 20.7791C20.8013 20.8192 20.7549 20.8511 20.7036 20.8729C20.6523 20.8946 20.5971 20.9059 20.5414 20.9058H6.59064C6.53481 20.9063 6.47948 20.8954 6.42802 20.8737C6.37656 20.8521 6.33005 20.8202 6.29134 20.78C6.25263 20.7398 6.22253 20.6921 6.20288 20.6398C6.18323 20.5876 6.17445 20.5319 6.17706 20.4761L6.4269 12.2961C6.43159 12.1816 6.47991 12.0732 6.56195 11.9932C6.64399 11.9131 6.75354 11.8675 6.86814 11.8656H8.97137C9.08468 11.8658 9.19691 11.8436 9.30157 11.8002C9.40624 11.7568 9.50127 11.6931 9.58117 11.6127C9.66108 11.5324 9.72428 11.437 9.76713 11.3321C9.80997 11.2272 9.83161 11.1149 9.8308 11.0016C9.83019 10.7728 9.73876 10.5536 9.5766 10.3921C9.41444 10.2307 9.19481 10.1402 8.96599 10.1406H5.81423C5.53203 10.1424 5.26133 10.2526 5.05824 10.4485C4.85515 10.6445 4.73525 10.9111 4.72341 11.193L4.33367 21.3401C4.31066 21.6183 4.22329 21.8872 4.07845 22.1258L1.21035 26.4306C0.980909 26.8016 0.886931 27.2405 0.94437 27.6729L1.02124 28.118C1.06908 28.3859 1.20903 28.6288 1.4169 28.8045C1.62478 28.9802 1.88753 29.0778 2.15972 29.0804H24.9746C25.2467 29.0771 25.5092 28.9793 25.717 28.8037C25.9249 28.6281 26.0652 28.3857 26.1139 28.118L26.1908 27.6729C26.2469 27.2414 26.1519 26.8037 25.9217 26.4345ZM23.564 27.3623H3.56956C3.09218 27.3623 2.91307 27.0371 3.16751 26.6382L5.50136 22.9937C5.57743 22.8877 5.67619 22.8001 5.79043 22.7372C5.90467 22.6743 6.0315 22.6377 6.16169 22.6301H20.975C21.1051 22.6377 21.2318 22.6743 21.3459 22.7372C21.46 22.8002 21.5586 22.8878 21.6345 22.9937L23.9661 26.6413C24.2221 27.0387 24.0429 27.3623 23.564 27.3623Z" fill="#D2D2D2" stroke="#D2D2D2" stroke-width="0.4"/>
</g>
<defs>
<clipPath id="clip0_1587_47577">
<rect width="26.25" height="30" fill="white" transform="translate(0.487244)"/>
</clipPath>
</defs>
</svg>
