<svg width="18" height="19" viewBox="0 0 18 19" fill="none" xmlns="http://www.w3.org/2000/svg">
<path d="M15.8353 10.4C15.8747 10.1017 15.8901 9.80075 15.8813 9.5C15.8813 9.185 15.8353 8.915 15.8353 8.6L17.7683 7.113C17.8134 7.08113 17.8516 7.04054 17.8808 6.99364C17.9099 6.94674 17.9293 6.89447 17.9379 6.83993C17.9465 6.78539 17.944 6.72969 17.9307 6.67611C17.9174 6.62253 17.8935 6.57217 17.8603 6.528L16.0193 3.425C15.9637 3.33435 15.8776 3.26646 15.7764 3.23348C15.6753 3.2005 15.5657 3.20458 15.4673 3.245L13.1673 4.145C12.6887 3.77577 12.1622 3.47302 11.6023 3.245L11.2803 0.86C11.252 0.758805 11.1921 0.669299 11.1094 0.604538C11.0266 0.539778 10.9254 0.503151 10.8203 0.5H7.13634C7.03131 0.503151 6.93003 0.539778 6.84728 0.604538C6.76453 0.669299 6.70464 0.758805 6.67634 0.86L6.30834 3.245C5.75357 3.48337 5.22838 3.78539 4.74334 4.145L2.44334 3.245C2.34544 3.20084 2.23458 3.19481 2.13248 3.22811C2.03038 3.2614 1.94438 3.33162 1.89134 3.425L0.0483365 6.531C0.00540062 6.62695 -0.00876124 6.7333 0.00756966 6.83714C0.0239006 6.94099 0.0700221 7.03786 0.140336 7.116L2.11934 8.6C2.11934 8.915 2.07334 9.185 2.07334 9.5C2.07334 9.815 2.11934 10.085 2.11934 10.4L0.187336 11.885C0.142256 11.9169 0.104024 11.9575 0.0748994 12.0044C0.0457751 12.0513 0.0263502 12.1035 0.0177731 12.1581C0.00919609 12.2126 0.0116409 12.2683 0.0249632 12.3219C0.0382856 12.3755 0.0622149 12.4258 0.0953364 12.47L1.93634 15.575C1.992 15.6657 2.0781 15.7335 2.17923 15.7665C2.28037 15.7995 2.38994 15.7954 2.48834 15.755L4.78834 14.855C5.26701 15.2242 5.79346 15.527 6.35334 15.755L6.72134 18.14C6.74189 18.2453 6.79971 18.3397 6.8842 18.4058C6.96869 18.4719 7.07418 18.5054 7.18134 18.5H10.8633C10.9684 18.4968 11.0696 18.4602 11.1524 18.3955C11.2351 18.3307 11.295 18.2412 11.3233 18.14L11.6923 15.755C12.2471 15.5167 12.7723 15.2146 13.2573 14.855L15.5573 15.755C15.6552 15.7992 15.7661 15.8052 15.8682 15.7719C15.9703 15.7386 16.0563 15.6684 16.1093 15.575L17.9503 12.47C17.9933 12.374 18.0074 12.2677 17.9911 12.1639C17.9748 12.06 17.9287 11.9631 17.8583 11.885L15.8353 10.4ZM8.97734 12.65C8.55699 12.6606 8.13878 12.5869 7.74734 12.4334C7.3559 12.2799 6.99915 12.0495 6.69811 11.756C6.39706 11.4624 6.15782 11.1116 5.99447 10.7241C5.83111 10.3367 5.74696 9.92048 5.74696 9.5C5.74696 9.07952 5.83111 8.6633 5.99447 8.27585C6.15782 7.8884 6.39706 7.53757 6.69811 7.24402C6.99915 6.95046 7.3559 6.72013 7.74734 6.56659C8.13878 6.41305 8.55699 6.33941 8.97734 6.35C9.39768 6.33941 9.81589 6.41305 10.2073 6.56659C10.5988 6.72013 10.9555 6.95046 11.2566 7.24402C11.5576 7.53757 11.7969 7.8884 11.9602 8.27585C12.1236 8.6633 12.2077 9.07952 12.2077 9.5C12.2077 9.92048 12.1236 10.3367 11.9602 10.7241C11.7969 11.1116 11.5576 11.4624 11.2566 11.756C10.9555 12.0495 10.5988 12.2799 10.2073 12.4334C9.81589 12.5869 9.39768 12.6606 8.97734 12.65Z" fill="#C4C4C4"/>
</svg>
