<svg width="45" height="30" viewBox="0 0 45 30" fill="none" xmlns="http://www.w3.org/2000/svg">
<path d="M37.52 26.2501C38.0112 26.2487 38.4972 26.1507 38.9504 25.9615C39.4037 25.7724 39.8153 25.4958 40.1616 25.1476C40.508 24.7994 40.7823 24.3863 40.969 23.9321C41.1557 23.4778 41.2513 22.9912 41.25 22.5001V3.75005C41.25 2.75549 40.8549 1.80167 40.1516 1.09841C39.4483 0.39515 38.4946 5.36247e-05 37.5 5.36247e-05H7.5C7.00849 -0.00258186 6.52126 0.0919516 6.06641 0.278221C5.61155 0.464491 5.19809 0.738832 4.84961 1.08546C4.50113 1.43208 4.22459 1.84416 4.03589 2.29801C3.84719 2.75186 3.74999 3.23855 3.75 3.73006V22.5001C3.74868 22.992 3.84437 23.4795 4.03174 23.9344C4.2191 24.3893 4.49437 24.8027 4.8418 25.1511C5.18922 25.4995 5.60199 25.7758 6.0564 25.9644C6.51081 26.153 6.998 26.2501 7.48999 26.2501H0V30.0001H45V26.2501H37.52ZM24.3899 19.6301V15.5301C19.1799 15.5301 15.7499 17.1201 13.1399 20.6301C14.1399 15.6301 17.1399 10.6301 24.3899 9.63006V5.63006L31.8899 12.6301L24.3899 19.6301Z" fill="white"/>
</svg>
