<svg width="62" height="40" viewBox="0 0 62 40" fill="none" xmlns="http://www.w3.org/2000/svg">
<path d="M61.3049 25.5505C61.8005 27.3547 61.6891 29.2718 60.988 31.0066C60.2868 32.7413 59.0348 34.1974 57.4247 35.1505H57.3349C57.1669 35.2515 56.9799 35.3168 56.7856 35.3425C56.5913 35.3682 56.3937 35.3537 56.2052 35.2999C56.0168 35.2461 55.8415 35.1541 55.6901 35.0296C55.5387 34.9052 55.4144 34.7509 55.3251 34.5764C55.2358 34.4019 55.1832 34.211 55.1708 34.0153C55.1584 33.8197 55.1865 33.6237 55.2531 33.4393C55.3197 33.2549 55.4233 33.0863 55.5578 32.9437C55.6923 32.8011 55.8547 32.6876 56.0348 32.6104C57.0693 31.9657 57.8726 31.0094 58.329 29.8791C58.7855 28.7488 58.8715 27.5028 58.5749 26.3205V26.2205C58.522 26.0393 58.5058 25.8492 58.5278 25.6617C58.5497 25.4742 58.6091 25.293 58.7023 25.1289C58.7956 24.9647 58.9209 24.821 59.0707 24.7061C59.2206 24.5913 59.3921 24.5079 59.5749 24.4605C59.7568 24.4089 59.947 24.3939 60.1347 24.4163C60.3224 24.4388 60.5038 24.4982 60.6684 24.5912C60.833 24.6842 60.9776 24.8089 61.0937 24.9581C61.2098 25.1073 61.2952 25.2781 61.3449 25.4605V25.5205L61.3049 25.5505Z" fill="#8DC456"/>
<path d="M4.99478 35.7083C3.3738 34.7772 2.10408 33.3388 1.38125 31.6148C0.658416 29.8908 0.522588 27.977 0.994776 26.1683V26.0683C1.04838 25.8847 1.13833 25.7137 1.25918 25.5655C1.38003 25.4172 1.52936 25.2947 1.69839 25.2052C1.86742 25.1158 2.05277 25.0611 2.24331 25.0445C2.43385 25.0279 2.62579 25.0496 2.80776 25.1084C2.98974 25.1673 3.15794 25.2621 3.30264 25.3871C3.44733 25.5122 3.56547 25.6651 3.65005 25.8366C3.73463 26.0081 3.78395 26.195 3.79507 26.3859C3.80619 26.5768 3.77884 26.7681 3.71475 26.9483C3.43672 28.135 3.54373 29.3794 4.02017 30.5013C4.49661 31.6231 5.31789 32.5643 6.36489 33.1883H6.45474C6.78626 33.3726 7.03107 33.6811 7.13516 34.0458C7.23924 34.4106 7.19399 34.8017 7.00967 35.1332C6.82534 35.4647 6.517 35.7094 6.15225 35.8135C5.78749 35.9176 5.39636 35.8726 5.06484 35.6883H5.0148L4.99478 35.7083Z" fill="#8DC456"/>
<path d="M31.085 0C27.1294 0 23.2624 1.17298 19.9735 3.37061C16.6845 5.56823 14.121 8.69179 12.6072 12.3463C11.0935 16.0008 10.6976 20.0222 11.4693 23.9019C12.241 27.7815 14.1456 31.3452 16.9427 34.1422C19.7397 36.9393 23.3036 38.844 27.1832 39.6157C31.0628 40.3874 35.0841 39.9914 38.7386 38.4777C42.3931 36.9639 45.5168 34.4004 47.7144 31.1115C49.9121 27.8225 51.085 23.9556 51.085 20C51.085 14.6957 48.9779 9.60864 45.2271 5.85791C41.4764 2.10718 36.3894 0 31.085 0ZM18.4549 16.16H18.3848C18.2614 16.0664 18.158 15.9491 18.0806 15.8148C18.0033 15.6806 17.9537 15.5322 17.9346 15.3784C17.9156 15.2247 17.9276 15.0686 17.9698 14.9196C18.012 14.7705 18.0836 14.6314 18.1805 14.5105C18.2774 14.3896 18.3975 14.2893 18.5338 14.2156C18.67 14.1418 18.8197 14.0961 18.9739 14.0812C19.1282 14.0662 19.2838 14.0824 19.4317 14.1285C19.5796 14.1747 19.7167 14.2499 19.835 14.35L19.9049 14.41C20.7024 14.995 21.6658 15.3104 22.6549 15.3104C23.6439 15.3104 24.6073 14.995 25.4049 14.41C25.428 14.4146 25.4518 14.4146 25.4749 14.41C25.5905 14.3102 25.7245 14.2341 25.8695 14.1862C26.0144 14.1382 26.1676 14.1192 26.3199 14.1304C26.4722 14.1415 26.6207 14.1825 26.7572 14.2511C26.8936 14.3197 27.0153 14.4145 27.1151 14.53C27.2149 14.6456 27.2907 14.7797 27.3387 14.9247C27.3867 15.0696 27.4057 15.2226 27.3946 15.3749C27.3835 15.5272 27.3423 15.6758 27.2738 15.8123C27.2052 15.9487 27.1105 16.0702 26.9949 16.17H26.9349C25.7277 17.0937 24.2501 17.5942 22.7301 17.5942C21.21 17.5942 19.7322 17.0937 18.525 16.17L18.4549 16.16ZM35.585 28.8301H26.8551C26.4572 28.8301 26.0756 28.6721 25.7943 28.3907C25.513 28.1094 25.3551 27.7279 25.3551 27.3301C25.3551 26.9323 25.513 26.5507 25.7943 26.2694C26.0756 25.9881 26.4572 25.8301 26.8551 25.8301H35.585C35.9829 25.8301 36.3643 25.9881 36.6456 26.2694C36.9269 26.5507 37.085 26.9323 37.085 27.3301C37.085 27.7279 36.9269 28.1094 36.6456 28.3907C36.3643 28.6721 35.9829 28.8301 35.585 28.8301ZM43.755 16.16C42.5477 17.0837 41.0699 17.5842 39.5499 17.5842C38.0298 17.5842 36.5523 17.0837 35.345 16.16H35.275C35.1561 16.0642 35.0573 15.9458 34.9842 15.8118C34.9111 15.6777 34.8652 15.5306 34.8489 15.3788C34.8327 15.227 34.8464 15.0734 34.8895 14.9269C34.9326 14.7804 35.0041 14.6439 35.0999 14.525C35.1958 14.4062 35.3143 14.3074 35.4483 14.2343C35.5824 14.1611 35.7294 14.1151 35.8812 14.0989C36.033 14.0826 36.1866 14.0964 36.3331 14.1395C36.4796 14.1826 36.6161 14.2541 36.7349 14.35L36.805 14.42C37.6038 15.002 38.5667 15.3156 39.555 15.3156C40.5433 15.3156 41.5062 15.002 42.305 14.42H42.3651C42.6052 14.2425 42.9045 14.1644 43.2008 14.202C43.497 14.2397 43.7673 14.3901 43.9554 14.6221C44.1435 14.854 44.2351 15.1496 44.2108 15.4473C44.1864 15.7449 44.0483 16.0218 43.825 16.2201L43.755 16.16Z" fill="#DFFFBF"/>
<path d="M9.43476 32.9417C8.11422 32.1905 7.07759 31.0256 6.48481 29.6267C5.89203 28.2279 5.77601 26.673 6.15473 25.2017C6.15026 25.1752 6.15026 25.1481 6.15473 25.1216C6.18676 24.9659 6.25056 24.8183 6.34199 24.6883C6.43342 24.5582 6.55054 24.4483 6.68623 24.3654C6.82192 24.2825 6.97333 24.2284 7.13081 24.2064C7.28829 24.1845 7.44856 24.1951 7.60175 24.2377C7.75495 24.2803 7.89789 24.3539 8.02143 24.454C8.14497 24.5541 8.24658 24.6786 8.32002 24.8196C8.39345 24.9606 8.43703 25.1152 8.44819 25.2738C8.45935 25.4324 8.43767 25.5917 8.38471 25.7416V25.8317C8.16024 26.7941 8.24776 27.8029 8.63422 28.7124C9.02069 29.622 9.68625 30.3852 10.5349 30.8916H10.6049C10.7402 30.9625 10.8601 31.0594 10.958 31.1767C11.0558 31.2939 11.1295 31.4294 11.175 31.5752C11.2205 31.721 11.2368 31.8743 11.2231 32.0264C11.2093 32.1785 11.1658 32.3264 11.0949 32.4617C11.024 32.597 10.927 32.7169 10.8098 32.8147C10.6925 32.9125 10.5571 32.9863 10.4113 33.0318C10.2655 33.0773 10.1123 33.0936 9.96015 33.0799C9.80805 33.0661 9.66011 33.0226 9.52485 32.9517L9.43476 32.9417Z" fill="#8DC456"/>
<path d="M56.2048 24.37C56.6089 25.8342 56.5193 27.3907 55.9499 28.7988C55.3805 30.207 54.3631 31.3883 53.0549 32.16H52.9848C52.7237 32.2685 52.432 32.2779 52.1645 32.1864C51.897 32.0949 51.6719 31.9088 51.5319 31.6632C51.3919 31.4176 51.3467 31.1292 51.4043 30.8524C51.4618 30.5756 51.6186 30.3294 51.8449 30.16H51.9248C52.7671 29.6407 53.4213 28.8656 53.7919 27.9481C54.1626 27.0306 54.2301 26.0187 53.9848 25.0601C53.9883 25.0335 53.9883 25.0065 53.9848 24.98C53.8933 24.6856 53.9227 24.367 54.0661 24.0941C54.2096 23.8213 54.4556 23.6165 54.75 23.525C55.0443 23.4335 55.3628 23.4627 55.6357 23.6062C55.9086 23.7497 56.1133 23.9957 56.2048 24.29C56.2048 24.29 56.2048 24.29 56.2048 24.35V24.37Z" fill="#8DC456"/>
</svg>
