<svg width="30" height="30" viewBox="0 0 30 30" fill="none" xmlns="http://www.w3.org/2000/svg">
<path d="M23.5642 1.15625H6.2565C3.70749 1.15625 1.64111 3.22263 1.64111 5.77163V24.2332C1.64111 26.7822 3.70749 28.8486 6.2565 28.8486H23.5642C26.1132 28.8486 28.1796 26.7822 28.1796 24.2332V5.77163C28.1796 3.22263 26.1132 1.15625 23.5642 1.15625Z" stroke="#D2D2D2" stroke-width="2"/>
<path d="M8.56419 1.16406H21.2565C21.5625 1.16406 21.8559 1.28564 22.0723 1.50203C22.2887 1.71842 22.4103 2.01189 22.4103 2.31791V10.3948C22.4103 11.0069 22.167 11.5939 21.7343 12.0267C21.3015 12.4594 20.7147 12.7025 20.1026 12.7025H9.71803C9.10599 12.7025 8.51892 12.4594 8.08614 12.0267C7.65336 11.5939 7.41034 11.0069 7.41034 10.3948V2.31791C7.41034 2.01189 7.53171 1.71842 7.7481 1.50203C7.96449 1.28564 8.25817 1.16406 8.56419 1.16406Z" stroke="#D2D2D2" stroke-width="2"/>
<path d="M17.7949 4.61719H16.6411C16.0038 4.61719 15.4872 5.13378 15.4872 5.77103V8.07873C15.4872 8.71598 16.0038 9.23257 16.6411 9.23257H17.7949C18.4322 9.23257 18.9488 8.71598 18.9488 8.07873V5.77103C18.9488 5.13378 18.4322 4.61719 17.7949 4.61719Z" fill="#D2D2D2"/>
</svg>
