<svg width="41" height="40" viewBox="0 0 41 40" fill="none" xmlns="http://www.w3.org/2000/svg">
<path d="M20.4749 0C16.5192 0 12.6523 1.17298 9.36329 3.37061C6.07431 5.56823 3.51108 8.69179 1.99732 12.3463C0.48357 16.0008 0.0874347 20.0222 0.859139 23.9019C1.63084 27.7815 3.53572 31.3452 6.33277 34.1422C9.12982 36.9393 12.6934 38.844 16.573 39.6157C20.4526 40.3874 24.4739 39.9914 28.1284 38.4777C31.7829 36.9639 34.9066 34.4004 37.1043 31.1115C39.3019 27.8225 40.4749 23.9556 40.4749 20C40.4749 14.6957 38.3677 9.60864 34.617 5.85791C30.8662 2.10718 25.7792 0 20.4749 0ZM10.4749 17.15C10.4749 16.5839 10.6428 16.0306 10.9575 15.5601C11.2722 15.0895 11.7195 14.723 12.2427 14.5068C12.7659 14.2907 13.3414 14.2345 13.8965 14.3457C14.4515 14.4569 14.961 14.7302 15.3606 15.1312C15.7602 15.5322 16.0319 16.0428 16.1411 16.5983C16.2503 17.1537 16.1921 17.729 15.9741 18.2515C15.7561 18.7739 15.3882 19.2199 14.9165 19.533C14.4449 19.846 13.8908 20.012 13.3247 20.01C12.5679 20.0074 11.843 19.7049 11.3088 19.1688C10.7747 18.6328 10.4749 17.9068 10.4749 17.15ZM25.8948 30.9301C25.6463 31.2102 25.2987 31.3825 24.9253 31.4105C24.5519 31.4385 24.1822 31.32 23.8948 31.0801C22.9117 30.3587 21.7243 29.9696 20.5049 29.9696C19.2855 29.9696 18.0978 30.3587 17.1148 31.0801L17.0349 31.14C16.739 31.3623 16.3683 31.4613 16.001 31.416C15.6337 31.3708 15.2983 31.1848 15.0652 30.8973C14.8321 30.6099 14.7196 30.2433 14.7512 29.8745C14.7829 29.5058 14.9562 29.1636 15.2349 28.92H15.2849C16.7717 27.7815 18.5922 27.1646 20.4649 27.1646C22.3375 27.1646 24.158 27.7815 25.6448 28.92L25.7249 28.98C26.005 29.2284 26.1773 29.5762 26.2053 29.9496C26.2333 30.323 26.1147 30.6925 25.8748 30.98L25.8948 30.9301ZM27.6148 20.01C27.0491 20.01 26.4962 19.8423 26.0259 19.5281C25.5556 19.2138 25.1889 18.7671 24.9724 18.2445C24.756 17.7219 24.6995 17.1468 24.8098 16.592C24.9202 16.0373 25.1926 15.5277 25.5925 15.1277C25.9925 14.7277 26.5021 14.4553 27.0569 14.345C27.6117 14.2346 28.1866 14.2912 28.7092 14.5077C29.2318 14.7242 29.6787 15.0908 29.9929 15.5612C30.3072 16.0315 30.4749 16.5844 30.4749 17.15C30.4749 17.9085 30.1736 18.636 29.6372 19.1724C29.1009 19.7087 28.3733 20.01 27.6148 20.01Z" fill="#C4F1FF"/>
</svg>
