<svg width="77" height="56" viewBox="0 0 77 56" fill="none" xmlns="http://www.w3.org/2000/svg">
<path d="M44.4199 6C40.4643 6 36.5973 7.17298 33.3084 9.37061C30.0194 11.5682 27.4561 14.6918 25.9424 18.3463C24.4286 22.0008 24.0325 26.0222 24.8042 29.9019C25.5759 33.7815 27.4808 37.3452 30.2778 40.1422C33.0749 42.9393 36.6385 44.844 40.5181 45.6157C44.3977 46.3874 48.419 45.9914 52.0735 44.4777C55.728 42.9639 58.8517 40.4004 61.0493 37.1115C63.247 33.8225 64.4199 29.9556 64.4199 26C64.4199 20.6957 62.3127 15.6086 58.562 11.8579C54.8113 8.10718 49.7243 6 44.4199 6V6ZM34.4199 23.15C34.418 22.5835 34.5842 22.0292 34.8977 21.5574C35.2112 21.0855 35.6577 20.7173 36.1807 20.4996C36.7037 20.2819 37.2797 20.2244 37.8355 20.3345C38.3912 20.4445 38.9017 20.7171 39.3023 21.1177C39.7028 21.5183 39.9754 22.0289 40.0855 22.5846C40.1955 23.1403 40.1379 23.7161 39.9202 24.2391C39.7025 24.7621 39.3344 25.2087 38.8626 25.5222C38.3907 25.8357 37.8363 26.002 37.2698 26V26C36.5156 26 35.7923 25.7011 35.2581 25.1688C34.7239 24.6365 34.4226 23.9142 34.4199 23.16V23.15ZM51.5598 26C50.9937 26 50.4405 25.832 49.97 25.5173C49.4994 25.2026 49.1329 24.7554 48.9168 24.2322C48.7006 23.709 48.6445 23.1334 48.7556 22.5784C48.8668 22.0233 49.14 21.5137 49.541 21.1141C49.942 20.7146 50.4526 20.443 51.0081 20.3337C51.5635 20.2245 52.139 20.2826 52.6614 20.5006C53.1838 20.7186 53.6296 21.0867 53.9426 21.5583C54.2557 22.03 54.4219 22.5839 54.4199 23.15C54.4199 23.5251 54.3458 23.8966 54.2019 24.243C54.0581 24.5895 53.8473 24.904 53.5816 25.1688C53.3158 25.4336 53.0005 25.6434 52.6536 25.786C52.3066 25.9286 51.9349 26.0013 51.5598 26V26ZM49.72 34H40.2698C39.8348 34 39.4177 33.8272 39.1101 33.5197C38.8026 33.2121 38.6299 32.7949 38.6299 32.36V32.36C38.6286 32.1438 38.6699 31.9295 38.7517 31.7294C38.8335 31.5292 38.9543 31.3473 39.1067 31.194C39.2591 31.0406 39.4403 30.9189 39.6399 30.8358C39.8395 30.7528 40.0536 30.7101 40.2698 30.7101H49.72C49.9362 30.7101 50.1502 30.7528 50.3499 30.8358C50.5495 30.9189 50.7306 31.0406 50.8831 31.194C51.0355 31.3473 51.1562 31.5292 51.238 31.7294C51.3199 31.9295 51.3612 32.1438 51.3599 32.36C51.3599 32.7949 51.1872 33.2121 50.8796 33.5197C50.5721 33.8272 50.1549 34 49.72 34V34Z" fill="#89FFED"/>
<path d="M7.66016 6.55167C7.66016 6.55167 7.66016 6.50171 7.66016 6.47171C7.6785 5.78472 7.967 5.13268 8.46313 4.65714C8.95927 4.18159 9.62291 3.92089 10.3101 3.93167C10.5031 3.9167 10.6971 3.9167 10.8901 3.93167C11.1944 3.08735 11.747 2.35479 12.4751 1.83011C13.2032 1.30543 14.073 1.01307 14.9702 0.991608C15.8004 0.92385 16.6331 1.08583 17.3774 1.45975C18.1218 1.83367 18.7489 2.40511 19.1902 3.1116C19.696 2.76323 20.2871 2.55929 20.9001 2.52164C21.8015 2.47809 22.6834 2.79365 23.3525 3.39908C24.0217 4.00451 24.4236 4.85042 24.4702 5.75162V5.75162C26.8702 5.68162 28.8802 7.18165 28.9902 9.16165C29.1002 11.1417 27.1902 12.9417 24.7302 13.0717C24.3976 13.1018 24.0629 13.1018 23.7302 13.0717C23.4898 13.896 22.9905 14.621 22.3062 15.1397C21.6218 15.6583 20.7888 15.9431 19.9302 15.9517C18.8235 16.0173 17.7331 15.6598 16.8801 14.9517C16.0656 15.4123 15.1548 15.676 14.2202 15.7217C13.3142 15.792 12.4043 15.6422 11.5686 15.2853C10.7329 14.9284 9.9959 14.3748 9.42017 13.6717C9.24157 13.7048 9.06126 13.7281 8.88013 13.7416C7.85587 13.8424 6.83338 13.5342 6.0354 12.8842C5.23742 12.2342 4.72865 11.2951 4.62012 10.2716C4.62273 9.39681 4.9264 8.54951 5.47998 7.8721C6.03356 7.19469 6.80337 6.72847 7.66016 6.55167V6.55167Z" fill="#DBFFFA"/>
<path d="M16.9001 21.7301C18.2312 21.7301 19.3103 20.6511 19.3103 19.3201C19.3103 17.9891 18.2312 16.9102 16.9001 16.9102C15.5691 16.9102 14.4902 17.9891 14.4902 19.3201C14.4902 20.6511 15.5691 21.7301 16.9001 21.7301Z" fill="#DBFFFA"/>
<path d="M22.1003 24.8196C23.1055 24.8196 23.9202 24.0048 23.9202 22.9996C23.9202 21.9945 23.1055 21.1797 22.1003 21.1797C21.0952 21.1797 20.2803 21.9945 20.2803 22.9996C20.2803 24.0048 21.0952 24.8196 22.1003 24.8196Z" fill="#DBFFFA"/>
</svg>
