<svg width="26" height="32" viewBox="0 0 26 32" fill="none" xmlns="http://www.w3.org/2000/svg">
<path d="M17.5632 11.8594C17.3784 11.862 17.2018 11.9365 17.071 12.0673C16.9403 12.198 16.8656 12.3745 16.863 12.5594V25.8394C16.863 25.9322 16.8817 26.024 16.9175 26.1096C16.9533 26.1952 17.0057 26.2728 17.0718 26.338C17.1378 26.4031 17.2162 26.4544 17.3022 26.489C17.3883 26.5236 17.4805 26.5407 17.5732 26.5394C17.7589 26.5394 17.9368 26.4656 18.0681 26.3344C18.1994 26.2031 18.2732 26.0251 18.2732 25.8394V12.5694C18.2733 12.3845 18.2011 12.2069 18.0723 12.0743C17.9434 11.9417 17.7681 11.8646 17.5833 11.8594H17.5632Z" fill="#787878" stroke="#787878"/>
<path d="M9.27319 11.8594C9.08835 11.862 8.91173 11.9365 8.78101 12.0673C8.65029 12.198 8.57583 12.3745 8.57324 12.5594V25.8394C8.57323 25.9322 8.59164 26.024 8.62744 26.1096C8.66324 26.1952 8.71567 26.2728 8.78174 26.338C8.8478 26.4031 8.92612 26.4544 9.01221 26.489C9.09829 26.5236 9.19044 26.5407 9.2832 26.5394C9.46885 26.5394 9.6468 26.4656 9.77808 26.3344C9.90935 26.2031 9.98315 26.0251 9.98315 25.8394V12.5694C9.98323 12.3845 9.91108 12.2069 9.78223 12.0743C9.65337 11.9417 9.47803 11.8646 9.29321 11.8594H9.27319Z" fill="#787878" stroke="#787878"/>
<path d="M3.21312 9.93016V27.2402C3.19248 28.2253 3.55038 29.181 4.21312 29.9102C4.53684 30.2512 4.92592 30.5233 5.35716 30.7106C5.78841 30.8979 6.25299 30.9964 6.72313 31.0002H20.0132C20.4837 30.9987 20.9488 30.9013 21.3804 30.7138C21.8119 30.5264 22.2009 30.253 22.5232 29.9102C23.1842 29.1799 23.5418 28.225 23.5232 27.2402V9.93016C24.1461 9.75562 24.6851 9.36248 25.0417 8.82274C25.3983 8.28299 25.5484 7.63282 25.4646 6.99138C25.3808 6.34993 25.0687 5.76017 24.5854 5.33018C24.1021 4.9002 23.4801 4.65879 22.8332 4.65019H19.2331V3.77018C19.2358 3.40737 19.1665 3.04761 19.0295 2.71165C18.8925 2.37569 18.6904 2.07015 18.4348 1.81266C18.1792 1.55518 17.875 1.35086 17.54 1.21141C17.2051 1.07196 16.846 1.00015 16.4831 1.00016H10.2131C9.85114 0.996206 9.49204 1.06378 9.15623 1.19896C8.82042 1.33413 8.51461 1.53425 8.25633 1.78788C7.99805 2.04152 7.79236 2.34368 7.65111 2.67698C7.50986 3.01029 7.4357 3.36816 7.43309 3.73014V4.65019H3.83324C3.1864 4.65879 2.56411 4.9002 2.08079 5.33018C1.59748 5.76017 1.28547 6.34993 1.20164 6.99138C1.11782 7.63282 1.26791 8.28299 1.6245 8.82274C1.98108 9.36248 2.52014 9.75562 3.14305 9.93016H3.21312ZM20.0532 29.5902H6.76317C6.4707 29.5799 6.18306 29.5118 5.91698 29.39C5.65089 29.2682 5.41152 29.0949 5.21263 28.8802C5.01375 28.6655 4.85922 28.4137 4.75804 28.1391C4.65686 27.8645 4.61099 27.5726 4.62303 27.2802V9.99015H22.2131V27.2402C22.2307 27.5318 22.1906 27.824 22.095 28.1001C21.9994 28.3762 21.8502 28.6308 21.656 28.8491C21.4618 29.0674 21.2264 29.2452 20.9634 29.3724C20.7003 29.4996 20.4147 29.5736 20.123 29.5902H20.0532ZM8.90306 3.77018C8.90042 3.59206 8.93322 3.41519 8.99925 3.24974C9.06529 3.08429 9.16326 2.93355 9.28783 2.80619C9.41239 2.67884 9.56089 2.57735 9.72484 2.50767C9.88879 2.43799 10.065 2.40149 10.2431 2.40019H16.5232C16.7013 2.39621 16.8785 2.42754 17.0444 2.49235C17.2104 2.55716 17.3617 2.65418 17.49 2.77781C17.6183 2.90145 17.7208 3.04923 17.7917 3.21269C17.8626 3.37615 17.9005 3.552 17.9031 3.73014V4.64018H8.90306V3.77018ZM3.90306 6.05015H22.9031C23.2191 6.07828 23.5133 6.22374 23.7275 6.45787C23.9417 6.69199 24.0605 6.99783 24.0605 7.31517C24.0605 7.6325 23.9417 7.93834 23.7275 8.17247C23.5133 8.40659 23.2191 8.55205 22.9031 8.58018H3.90306C3.58697 8.55205 3.29281 8.40659 3.0786 8.17247C2.86438 7.93834 2.74559 7.6325 2.74559 7.31517C2.74559 6.99783 2.86438 6.69199 3.0786 6.45787C3.29281 6.22374 3.58697 6.07828 3.90306 6.05015Z" fill="#787878" stroke="#787878"/>
</svg>
