<?xml version="1.0" encoding="UTF-8"?><svg xmlns="http://www.w3.org/2000/svg" viewBox="0 0 34 22.56"><defs><style>.d{fill:#fff;}</style></defs><g id="a"/><g id="b"><g id="c"><g><path class="d" d="M12.93,6.64l2.04,2.02h-4.19c-.11,0-.22,0-.33,.04-.11,.04-.2,.09-.28,.17-.08,.07-.15,.16-.19,.26-.04,.1-.07,.21-.07,.32s.02,.22,.07,.32c.04,.1,.11,.19,.19,.26,.08,.07,.18,.13,.28,.17,.1,.04,.22,.05,.33,.04h4.19l-2.04,2.01c-.15,.15-.23,.35-.23,.56s.08,.41,.23,.56c.15,.15,.35,.23,.56,.23s.41-.08,.56-.23l3.4-3.33,.1-.12s.04-.07,.06-.1c0-.02,0-.03,0-.05,.01-.03,.03-.07,.04-.1,.02-.1,.02-.21,0-.31,0-.03,0-.06,0-.09v-.05s-.03-.07-.05-.1v-.03s-.06-.08-.1-.12l-3.4-3.37c-.07-.07-.16-.13-.26-.17-.1-.04-.2-.06-.31-.06s-.21,.02-.31,.06c-.1,.04-.18,.1-.26,.17-.07,.07-.13,.16-.17,.26-.04,.1-.06,.2-.06,.3s.02,.21,.06,.3c.04,.1,.1,.18,.17,.26"/><path class="d" d="M31.67,13.08c-.58-.46-1.24-.81-1.94-1.04-1.48,1.24-3.36,1.93-5.3,1.93s-3.82-.68-5.3-1.93c-1.24,.41-2.33,1.19-3.09,2.24-.77,1.05-1.18,2.31-1.18,3.6v2.84c.09,.08,.19,.14,.3,.22l.11,.06c.08,.05,.16,.1,.25,.14l.15,.08,.25,.12,.18,.08,.27,.11,.2,.07,.29,.1,.22,.07,.32,.09,.24,.06,.33,.09,.26,.06,.35,.07,.27,.06,.36,.06,.29,.05,.36,.06,.3,.04,.38,.05,.32,.03,.39,.04h.32l.4,.03h2.52c.41,0,.82,0,1.23-.03h.18c.4,0,.81-.04,1.2-.08h.19c.4-.03,.79-.08,1.17-.13h.18c.39-.05,.76-.11,1.13-.18l.16-.03c.37-.07,.73-.15,1.07-.24l.13-.03c.35-.09,.69-.2,1.01-.31l.09-.03c.32-.12,.63-.24,.92-.37h.05c.28-.13,.56-.28,.82-.45v-2.8c0-.92-.21-1.83-.62-2.66-.41-.83-.99-1.56-1.72-2.14"/><path class="d" d="M24.42,11.73c1.17,0,2.32-.34,3.3-.99,.98-.64,1.74-1.56,2.18-2.63,.45-1.07,.57-2.25,.34-3.39-.23-1.14-.79-2.18-1.62-3-.83-.82-1.89-1.38-3.04-1.6-1.15-.23-2.34-.11-3.43,.34-1.08,.44-2.01,1.2-2.66,2.16-.65,.97-1,2.1-1,3.26,0,1.55,.63,3.04,1.74,4.14,1.11,1.1,2.62,1.72,4.19,1.72Z"/><path class="d" d="M9.12,10.95c-.31-.25-.67-.44-1.05-.56-.8,.67-1.82,1.04-2.88,1.04s-2.07-.37-2.88-1.04c-.67,.22-1.26,.64-1.68,1.2S0,12.84,0,13.54v1.53c.05,.04,.1,.08,.17,.12l.06,.03s.09,.05,.13,.08l.08,.04,.14,.07,.1,.04,.15,.06,.11,.04,.16,.06,.12,.04,.17,.05,.13,.03,.18,.05,.14,.03,.19,.04,.15,.03,.19,.03,.16,.02,.2,.03,.16,.02,.21,.02,.17,.02,.21,.02h.17l.22,.02h1.37c.22,0,.45,0,.67-.02h.1c.22,0,.44-.02,.65-.04h.1c.22-.02,.43-.04,.63-.07h.1c.21-.03,.41-.06,.61-.1l.09-.02c.2-.04,.39-.08,.58-.13l.07-.02c.19-.05,.37-.11,.55-.16l.05-.02c.17-.06,.34-.13,.5-.2h.03c.15-.07,.3-.15,.44-.24v-1.51c0-.5-.11-.99-.33-1.43-.22-.45-.54-.84-.93-1.15"/><path class="d" d="M5.19,10.39c.65,0,1.29-.19,1.84-.56,.54-.36,.97-.88,1.22-1.48,.25-.6,.32-1.27,.19-1.91s-.44-1.23-.91-1.69c-.46-.46-1.05-.78-1.69-.9-.64-.13-1.31-.06-1.91,.19s-1.12,.67-1.48,1.22c-.36,.54-.56,1.18-.56,1.84,0,.88,.35,1.71,.97,2.33,.62,.62,1.46,.97,2.33,.97Z"/></g></g></g></svg>