<svg width="46" height="40" viewBox="0 0 46 40" fill="none" xmlns="http://www.w3.org/2000/svg">
<path d="M39.8901 30.62L43.6501 34.38H45.1201V30.62H39.8901ZM41.3401 26.86V8.06C41.3401 7.56623 41.2429 7.07729 41.054 6.62111C40.865 6.16492 40.5879 5.75042 40.2388 5.40128C39.8896 5.05213 39.4752 4.77517 39.019 4.58621C38.5629 4.39725 38.0738 4.29999 37.5801 4.29999H13.5801L23.4102 14.13C23.7502 14.05 24.0902 14 24.4102 13.94V9.94L31.9302 16.94L28.9302 19.71L39.3501 30.12C39.937 29.799 40.4268 29.3261 40.7681 28.7507C41.1094 28.1754 41.2896 27.5189 41.29 26.85L41.3401 26.86ZM4.48999 0L2.09009 2.37999L4.97998 5.28C4.59259 5.63155 4.28371 6.06084 4.07349 6.53987C3.86327 7.0189 3.75646 7.53688 3.76001 8.06V26.86C3.76001 27.8572 4.15619 28.8136 4.86133 29.5187C5.56646 30.2239 6.52281 30.62 7.52002 30.62H0V34.38H34.0801L39.1802 39.47L41.5601 37.09L4.48999 0ZM13.1602 25C13.6602 22.1234 15.0157 19.4644 17.05 17.37L20.05 20.37C17.2657 21.0215 14.8176 22.6726 13.1702 25.01L13.1602 25Z" fill="white"/>
</svg>
