<svg width="77" height="56" viewBox="0 0 77 56" fill="none" xmlns="http://www.w3.org/2000/svg">
<path d="M50.4202 40.9996C46.4652 40.9988 42.5993 39.8253 39.3111 37.6276C36.0229 35.4299 33.46 32.3067 31.9466 28.6527C30.4331 24.9987 30.037 20.9781 30.8084 17.099C31.5797 13.2199 33.4839 9.65665 36.28 6.85962C40.0306 3.1102 45.1169 1.00391 50.4202 1.00391C55.7235 1.00391 60.8095 3.1102 64.5601 6.85962C67.3563 9.65665 69.2604 13.2199 70.0318 17.099C70.8031 20.9781 70.407 24.9987 68.8936 28.6527C67.3802 32.3067 64.8175 35.4299 61.5293 37.6276C58.2411 39.8253 54.3752 40.9988 50.4202 40.9996ZM47.0701 28.0896C46.8809 28.0945 46.6959 28.1464 46.5318 28.2407C46.3676 28.335 46.2297 28.4686 46.1301 28.6296C45.9377 28.9395 45.8549 29.305 45.8948 29.6676C45.9347 30.0302 46.0949 30.3689 46.3501 30.6296C47.5185 31.6126 48.9932 32.1572 50.52 32.1696C51.3792 32.1551 52.2269 31.971 53.0147 31.6277C53.8024 31.2845 54.5146 30.789 55.1101 30.1696C55.3472 29.8942 55.4843 29.5467 55.4988 29.1835C55.5133 28.8204 55.4045 28.4631 55.1902 28.1696C55.0852 28.0231 54.9472 27.9033 54.7874 27.8199C54.6276 27.7366 54.4503 27.6919 54.27 27.6896C54.1215 27.691 53.9747 27.7228 53.8389 27.783C53.703 27.8431 53.5811 27.9305 53.4802 28.0396L53.4302 28.0896C52.6298 28.8791 51.5543 29.3272 50.4302 29.3396C49.4371 29.3206 48.4791 28.9685 47.7102 28.3396C47.6117 28.2412 47.4947 28.1632 47.366 28.11C47.2373 28.0568 47.0995 28.0295 46.9602 28.0296L47.0701 28.0896ZM57.52 17.7096C58.4001 17.7275 59.239 18.0859 59.8601 18.7096C59.9408 18.7998 60.0395 18.8722 60.1497 18.9221C60.2599 18.9721 60.379 18.9985 60.5 18.9996C60.6368 18.9971 60.7716 18.9644 60.8943 18.9039C61.017 18.8434 61.1249 18.7566 61.2102 18.6496C61.3878 18.4227 61.4841 18.1428 61.4841 17.8546C61.4841 17.5664 61.3878 17.2866 61.2102 17.0596C60.3173 16.1475 59.1092 15.6114 57.8338 15.5612C56.5583 15.511 55.312 15.9505 54.3501 16.7896C54.1424 16.9891 54.0093 17.2536 53.9729 17.5393C53.9365 17.825 53.9991 18.1145 54.1502 18.3596C54.228 18.4924 54.339 18.6028 54.4722 18.6799C54.6054 18.757 54.7563 18.7983 54.9102 18.7996C55.1205 18.7976 55.3231 18.7194 55.4802 18.5796H55.53C56.1376 18.0834 56.8958 17.8084 57.6802 17.7996L57.52 17.7096ZM42.52 17.7096C43.4001 17.7275 44.239 18.0859 44.8601 18.7096C44.9451 18.8063 45.0508 18.8827 45.1692 18.9331C45.2877 18.9835 45.4158 19.0067 45.5445 19.001C45.6731 18.9952 45.7989 18.9607 45.9124 18.8998C46.0258 18.839 46.1242 18.7535 46.2002 18.6496C46.3795 18.4234 46.4771 18.1432 46.4771 17.8546C46.4771 17.566 46.3795 17.2858 46.2002 17.0596C45.3068 16.1446 44.0967 15.6067 42.8189 15.5565C41.541 15.5062 40.2925 15.9475 39.3301 16.7896C39.124 16.99 38.9919 17.2545 38.9556 17.5397C38.9193 17.8249 38.9809 18.1139 39.1301 18.3596C39.2056 18.4923 39.3147 18.6028 39.4463 18.6801C39.578 18.7573 39.7275 18.7985 39.8801 18.7996C40.0912 18.8014 40.2951 18.7227 40.4502 18.5796C40.4502 18.5796 40.45 18.5796 40.51 18.5796C41.1176 18.0834 41.8758 17.8084 42.6602 17.7996L42.52 17.7096Z" fill="#FFF6ED"/>
<path d="M16.3 47.4502H16.4402C17.3902 47.4502 19.23 47.4502 21.76 47.4502H31.5H31.76C32.44 47.4502 35.8701 47.2102 35.8701 42.5702V26.5002C36.677 25.463 37.1728 24.2181 37.3 22.9102C37.2907 22.0337 37.0512 21.1751 36.6054 20.4203C36.1596 19.6656 35.5231 19.0414 34.76 18.6102C34.2318 18.2839 33.6206 18.1171 33 18.1301C32.2299 18.1487 31.4701 18.3115 30.76 18.6102C30.7218 18.1443 30.5708 17.6947 30.32 17.3002C29.9802 16.8017 29.5357 16.3832 29.0175 16.0741C28.4994 15.765 27.9201 15.5725 27.32 15.5101C26.9729 15.4516 26.6219 15.4182 26.27 15.4102C25.4297 15.4316 24.6022 15.6194 23.8349 15.9627C23.0677 16.306 22.376 16.7979 21.8 17.4102C20.9784 16.8877 20.0236 16.6135 19.05 16.6202C18.6702 16.6199 18.2915 16.6602 17.9201 16.7402C17.3348 16.8048 16.7724 17.0035 16.2763 17.3209C15.7803 17.6383 15.364 18.0658 15.06 18.5701C14.58 18.5168 14.1001 18.4868 13.6201 18.4802C13.2838 18.4699 12.9477 18.5035 12.6201 18.5801L12.1501 18.7001C11.8352 18.7349 11.5304 18.8325 11.2539 18.9871C10.9773 19.1417 10.7346 19.3502 10.54 19.6002C10.1184 20.2638 9.8945 21.0338 9.8945 21.8201C9.8945 22.6064 10.1184 23.3765 10.54 24.0402C11.2788 24.822 12.232 25.3681 13.28 25.6102V26.4601H7.83004C7.03048 26.5331 6.2829 26.8875 5.72018 27.4601C5.39906 27.858 5.16667 28.32 5.03903 28.815C4.91138 29.3101 4.89146 29.8267 4.98019 30.3301C5.19997 32.2153 5.62908 34.0701 6.25997 35.8602C6.62023 37.1393 7.2398 38.3306 8.08004 39.3602C9.08004 40.3602 12.63 41.7002 13.08 41.8602V42.5001L13.1501 45.1001C13.207 45.514 13.3688 45.9064 13.6201 46.2401C13.9335 46.6459 14.3417 46.9685 14.809 47.1794C15.2764 47.3904 15.7884 47.4834 16.3 47.4502ZM13.1701 28.7202V39.3102L11.05 38.3102C10.0983 37.7586 9.31642 36.9561 8.79 35.9902C8.2102 34.8503 7.77995 33.6402 7.50997 32.3901C7.50997 32.2901 7.09997 30.0501 7.50997 29.3901C7.79997 28.8801 9.12008 28.8002 9.87008 28.8002H13.1701V28.7202Z" fill="#FFBE57"/>
<path d="M33.8501 24.2793C33.8501 24.2793 35.1802 22.2793 33.4702 21.0393C31.7602 19.7993 29.27 21.8493 29.27 21.8493C29.27 21.8493 29.83 17.9993 26.27 17.6293C22.71 17.2593 22.27 21.3193 22.27 21.3193C22.27 21.3193 21.3201 18.6193 18.8601 18.9693C16.4001 19.3193 16.5601 21.3193 16.5601 21.3193C16.5601 21.3193 13.4101 19.7793 12.7901 21.8493C12.1701 23.9193 14.8601 24.2793 14.8601 24.2793L23.8601 24.9793C23.8601 24.9793 26.9901 24.8893 27.7901 27.5693C28.5901 30.2493 28.6802 30.0393 28.6802 30.0393L30.1702 28.3694V32.1593C30.1702 32.1593 30.2502 34.0493 31.7102 34.0293C33.1702 34.0093 32.9902 31.5793 32.9902 31.5793V26.4894L33.8501 24.2793Z" fill="white"/>
<path d="M31.6104 35.5486C31.3503 35.5922 31.0837 35.5761 30.8308 35.5016C30.5779 35.4272 30.3453 35.2962 30.1504 35.1186C29.5303 34.5089 28.9984 33.8155 28.5703 33.0586V41.9986C28.5703 41.9986 28.6204 43.8286 30.1504 43.7886C31.6804 43.7486 31.6104 41.9986 31.6104 41.9986V35.5486Z" fill="white"/>
<path d="M25.6602 27.8702L23 27.1602V40.7601C23 40.7601 23.0001 44.2802 24.5601 44.2102C26.1201 44.1402 25.9001 40.7601 25.9001 40.7601L25.6602 27.8702Z" fill="white"/>
<path d="M20.3 27.1602L17.2102 26.6602V41.8401C17.2102 41.8401 17.2701 44.2102 18.8401 44.1902C20.4101 44.1702 20.3 41.8401 20.3 41.8401V27.1602Z" fill="white"/>
</svg>
