<svg width="39" height="27" viewBox="0 0 39 27" fill="none" xmlns="http://www.w3.org/2000/svg">
<path fill-rule="evenodd" clip-rule="evenodd" d="M19.5049 26.9348L19.5089 26.94H22.3889C22.8065 26.9387 23.2198 26.8551 23.6051 26.6941C23.9904 26.5331 24.3402 26.2977 24.6346 26.0015C24.929 25.7053 25.1621 25.354 25.3207 24.9677C25.4793 24.5814 25.5602 24.1676 25.5589 23.75V12.75H25.5502L25.5589 3.17999C25.5589 2.3366 25.2239 1.52776 24.6275 0.931396C24.0312 0.335031 23.2223 0 22.3789 0H19.5089L19.5019 0.00902922L19.5005 0H6.13902H6.13047H3.13902C2.30259 0.0105221 1.50398 0.350175 0.916237 0.945404C0.328495 1.54063 -0.00104252 2.34349 -0.000976513 3.17999V12.75V14.18V23.75C-0.00112369 24.5884 0.32777 25.3934 0.914971 25.9918C1.50217 26.5902 2.30077 26.9343 3.13902 26.95H6.0776L6.13047 26.9617H19.5005L19.5049 26.9348ZM38.159 3.41699C38.2686 3.67386 38.3263 3.94984 38.3289 4.2291V12.75H38.3485L38.3285 22.75C38.3258 23.0284 38.2684 23.3036 38.1595 23.5598C38.0505 23.816 37.8921 24.0482 37.6934 24.2432C37.4947 24.4382 37.2595 24.5922 37.0013 24.6963C36.7431 24.8004 36.4669 24.8526 36.1885 24.85C35.7635 24.8404 35.3503 24.7085 34.9985 24.47L27.6685 19.47V14.1491H27.6489V7.50909L34.9789 2.50909C35.3295 2.26033 35.7491 2.12748 36.1789 2.12912C36.4582 2.12516 36.7354 2.17639 36.9948 2.27991C37.2542 2.38342 37.4906 2.53716 37.6903 2.7323C37.8901 2.92744 38.0494 3.16012 38.159 3.41699Z" fill="white"/>
</svg>
