<svg width="41" height="40" viewBox="0 0 41 40" fill="none" xmlns="http://www.w3.org/2000/svg">
<path d="M16.7 0L10 10H0V30H10L16.7 40H20V0H16.7ZM25 5V10C25.8423 9.99984 26.6816 10.1006 27.5 10.3C29.6623 10.8419 31.5816 12.0908 32.9529 13.8482C34.3242 15.6056 35.0688 17.7709 35.0688 20C35.0688 22.2291 34.3242 24.3944 32.9529 26.1518C31.5816 27.9092 29.6623 29.1581 27.5 29.7C26.6834 29.9092 25.8429 30.0101 25 30V35C26.2127 34.9803 27.4196 34.8294 28.5999 34.55H28.75C32.3093 33.6583 35.4183 31.493 37.4888 28.4637C39.5592 25.4344 40.4475 21.7513 39.9856 18.1112C39.5237 14.4712 37.7434 11.1267 34.9819 8.71057C32.2204 6.29447 28.6692 4.97434 25 5ZM25 15V25C25.4217 25.01 25.8427 24.9595 26.25 24.85C27.3311 24.579 28.2907 23.9546 28.9763 23.0759C29.662 22.1972 30.0344 21.1146 30.0344 20C30.0344 18.8854 29.662 17.8028 28.9763 16.9241C28.2907 16.0454 27.3311 15.421 26.25 15.15C25.8408 15.0503 25.4212 15 25 15Z" fill="white"/>
</svg>
