<svg width="59" height="51" viewBox="0 0 59 51" fill="none" xmlns="http://www.w3.org/2000/svg">
<path d="M20.0276 0C16.072 0 12.205 1.17298 8.91602 3.37061C5.62704 5.56823 3.06381 8.69179 1.55006 12.3463C0.0363045 16.0008 -0.359831 20.0222 0.411874 23.9019C1.18358 27.7815 3.08846 31.3452 5.88551 34.1422C8.68256 36.9393 12.2461 38.844 16.1257 39.6157C20.0054 40.3874 24.0266 39.9914 27.6812 38.4777C31.3357 36.9639 34.4594 34.4004 36.657 31.1115C38.8546 27.8225 40.0276 23.9556 40.0276 20C40.0276 14.6957 37.9204 9.60864 34.1697 5.85791C30.419 2.10718 25.3319 0 20.0276 0ZM10.0276 17.15C10.0256 16.5835 10.1919 16.0292 10.5054 15.5574C10.8189 15.0855 11.2653 14.7173 11.7883 14.4996C12.3113 14.2819 12.8874 14.2244 13.4431 14.3345C13.9988 14.4445 14.5093 14.7171 14.9099 15.1177C15.3105 15.5183 15.5831 16.0289 15.6931 16.5846C15.8032 17.1403 15.7455 17.7161 15.5278 18.2391C15.3101 18.7621 14.9421 19.2087 14.4702 19.5222C13.9984 19.8357 13.444 20.002 12.8774 20C12.1241 19.9974 11.4023 19.6976 10.8687 19.1659C10.335 18.6341 10.0329 17.9134 10.0276 17.16V17.15ZM20.0276 31.9301C15.9376 31.9301 12.6274 29.6401 12.6274 26.8101H27.4175C27.4175 29.6401 24.1076 31.9301 20.0276 31.9301ZM27.1675 20C26.6014 20 26.0482 19.832 25.5776 19.5173C25.1071 19.2026 24.7406 18.7554 24.5244 18.2322C24.3083 17.709 24.2521 17.1334 24.3633 16.5784C24.4745 16.0233 24.7477 15.5137 25.1487 15.1141C25.5497 14.7146 26.0603 14.443 26.6157 14.3337C27.1712 14.2245 27.7466 14.2826 28.2691 14.5006C28.7915 14.7186 29.2372 15.0867 29.5503 15.5583C29.8634 16.03 30.0296 16.5839 30.0276 17.15C30.025 17.9068 29.7224 18.6317 29.1863 19.1659C28.6502 19.7001 27.9243 20 27.1675 20Z" fill="#FFC9C9"/>
<path d="M52.6172 40.7381L56.7073 38.1381C56.7073 38.1381 58.7072 36.9982 58.1672 35.9682C57.6272 34.9382 55.9272 35.8282 55.9272 35.8282L51.0374 38.2481L50.3174 37.7581L58.1973 29.9781C58.1973 29.9781 59.4073 28.9781 58.7373 27.9781C58.0673 26.9781 56.6572 27.7681 56.6572 27.7681L48.1372 35.1181L47.4973 34.6782L55.4973 24.2681C55.4973 24.2681 57.1273 22.3181 56.0173 21.3981C54.9073 20.4781 53.4272 22.1582 53.4272 22.1582L44.9973 31.6782L44.3572 31.2381L49.8174 23.1381C49.8174 23.1381 51.2973 20.6481 49.9873 19.8481C48.6773 19.0481 47.1772 21.3581 47.1772 21.3581L41.9373 29.1281L39.5574 31.1281C39.5574 31.1281 38.5572 31.9181 37.8772 31.4781C37.1972 31.0381 36.9573 29.3781 36.9573 29.3781C36.9573 29.3781 37.9574 26.6781 37.3274 25.0981C37.0426 24.5995 36.6459 24.1739 36.1687 23.8546C35.6915 23.5353 35.1469 23.3311 34.5774 23.2581L34.4573 26.8781C33.5567 30.5307 33.0076 34.261 32.8174 38.0181C32.8174 42.6481 32.8174 42.6582 32.8174 42.6582L31.6672 45.3681L37.5974 50.1682L39.7373 48.5382L40.6873 48.3182C40.6873 48.3182 42.5073 48.4482 45.4973 46.5682C48.0099 44.8014 50.3895 42.8528 52.6172 40.7381Z" fill="#FF8080"/>
</svg>
