<svg width="77" height="56" viewBox="0 0 77 56" fill="none" xmlns="http://www.w3.org/2000/svg">
<path d="M38.4199 1.01172C34.4643 1.01172 30.5973 2.1847 27.3084 4.38232C24.0194 6.57995 21.4561 9.70357 19.9424 13.3581C18.4286 17.0126 18.0325 21.034 18.8042 24.9136C19.5759 28.7932 21.4808 32.3568 24.2778 35.1539C27.0749 37.9509 30.6385 39.8557 34.5181 40.6274C38.3977 41.3991 42.419 41.0031 46.0735 39.4893C49.728 37.9756 52.8517 35.4122 55.0493 32.1232C57.247 28.8342 58.4199 24.9673 58.4199 21.0117C58.4199 15.7074 56.3127 10.6204 52.562 6.86963C48.8113 3.1189 43.7243 1.01172 38.4199 1.01172ZM28.4199 18.1617C28.418 17.5957 28.5839 17.0417 28.897 16.5701C29.21 16.0984 29.6561 15.7303 30.1785 15.5123C30.7009 15.2943 31.2764 15.2362 31.8318 15.3455C32.3872 15.4547 32.8976 15.7263 33.2986 16.1259C33.6996 16.5254 33.9731 17.035 34.0842 17.5901C34.1954 18.1451 34.1393 18.7207 33.9231 19.2439C33.7069 19.7671 33.3404 20.2143 32.8699 20.5291C32.3993 20.8438 31.8459 21.0117 31.2798 21.0117C30.523 21.0117 29.7971 20.7118 29.261 20.1776C28.7249 19.6434 28.4226 18.9185 28.4199 18.1617ZM45.5698 21.0117C45.0038 21.0137 44.4499 20.8477 43.9783 20.5346C43.5066 20.2216 43.1384 19.7756 42.9204 19.2532C42.7024 18.7308 42.6444 18.1554 42.7537 17.5999C42.8629 17.0445 43.1344 16.534 43.5339 16.133C43.9335 15.732 44.4432 15.4586 44.9983 15.3475C45.5534 15.2363 46.1289 15.2923 46.6521 15.5085C47.1753 15.7247 47.6226 16.0912 47.9373 16.5618C48.252 17.0323 48.4199 17.5857 48.4199 18.1517C48.4212 18.5268 48.3485 18.8986 48.2058 19.2455C48.0632 19.5924 47.8534 19.9078 47.5886 20.1735C47.3239 20.4392 47.0093 20.65 46.6628 20.7938C46.3164 20.9377 45.9449 21.0117 45.5698 21.0117ZM43.73 28.9617H34.2698C33.8557 28.9294 33.4691 28.7421 33.187 28.4372C32.905 28.1323 32.7483 27.7322 32.7483 27.3168C32.7483 26.9014 32.905 26.5012 33.187 26.1963C33.4691 25.8914 33.8557 25.7041 34.2698 25.6718H43.73C44.1649 25.6718 44.5821 25.8445 44.8897 26.1521C45.1972 26.4597 45.3699 26.8768 45.3699 27.3118C45.3699 27.7467 45.1972 28.1638 44.8897 28.4714C44.5821 28.7789 44.1649 28.9517 43.73 28.9517V28.9617Z" fill="#FDF0E2"/>
<path d="M50.45 50.0821H50.2698C50.0736 50.0919 49.8776 50.0615 49.6936 49.9927C49.5096 49.9239 49.3416 49.8182 49.2 49.6821L42.6699 44.892C41.6867 44.6677 40.7234 44.3633 39.7898 43.982C40.3498 43.602 40.8498 43.232 41.2798 42.882C42.1074 42.1861 42.8767 41.4235 43.5798 40.6021L46.0698 38.212L53.2798 42.952C53.6979 43.1789 54.0736 43.4767 54.3899 43.8321C54.7399 44.2921 54.3899 45.102 54.3899 45.102L51.5198 49.8221C51.2018 50.0251 50.8256 50.1165 50.45 50.0821ZM31.2898 37.212L29.6799 35.7421L26.3198 31.132C26.3198 31.132 25.4 29.932 25.7 29.282C25.9208 28.9107 26.2483 28.6145 26.6399 28.4321C26.5099 28.3021 25.3899 27.2021 24.8799 26.6721C24.7499 26.5321 24.5899 26.362 24.4199 26.202L24.2598 26.0421C23.5807 25.4236 22.949 24.755 22.3699 24.0421C21.5399 22.7821 21.96 22.152 21.97 22.142C21.6481 21.828 21.4076 21.4401 21.2698 21.012C21.2122 20.616 21.2861 20.2121 21.48 19.8621C21.0737 19.5144 20.8072 19.0312 20.73 18.5021C20.7286 17.9054 20.9099 17.3225 21.2498 16.832L22.8198 18.2521C22.7702 18.0312 22.7695 17.8021 22.8179 17.581C22.8663 17.3599 22.9626 17.152 23.0999 16.972C23.1809 16.8866 23.2922 16.8363 23.4099 16.832C23.7499 16.832 24.0899 17.2621 24.1499 17.3521L28.3098 23.1721L34.6699 27.8721L37.8599 31.332L34.6799 34.9321L31.2798 37.262L31.2898 37.212Z" fill="#FFC78D"/>
<path d="M22.72 43.9543L30.3299 38.9542L35.21 35.4243L41.2799 28.8242L48.0299 23.8242L54.65 17.8242C54.6835 17.8685 54.7136 17.9154 54.7401 17.9642C54.8145 18.0867 54.8812 18.2136 54.94 18.3442C55.0067 18.5242 55.0666 18.7042 55.1199 18.8842C55.1663 19.084 55.1832 19.2896 55.17 19.4943C55.152 19.6881 55.1012 19.8774 55.0198 20.0543C54.9547 20.2074 54.8707 20.3519 54.7698 20.4843C54.7006 20.5833 54.6201 20.6739 54.5299 20.7543L54.42 20.8542C54.4224 20.8875 54.4224 20.9209 54.42 20.9542C54.4636 21.0366 54.497 21.1239 54.5198 21.2142C54.5607 21.3306 54.5877 21.4515 54.5999 21.5742C54.6252 21.7164 54.6252 21.8621 54.5999 22.0043C54.5705 22.1491 54.5164 22.2878 54.44 22.4142C54.3766 22.5454 54.2996 22.6694 54.21 22.7842L53.9998 23.0342L53.91 23.1342C53.9139 23.1741 53.9139 23.2144 53.91 23.2543C53.9507 23.3664 53.9711 23.4849 53.97 23.6042C53.9719 23.8053 53.9379 24.0051 53.8699 24.1943C53.7685 24.492 53.6273 24.7745 53.45 25.0342C53.3077 25.2451 53.1507 25.4456 52.98 25.6342L52.2999 26.3542L51.5699 27.0842L50.96 27.7042L50.4 28.2742C50.18 28.4842 49.9501 28.7243 49.7401 28.9343L49.18 29.4843L48.95 29.7242L46.2698 32.3743L45.2698 35.7543C45.2698 35.7543 45.1798 35.9742 44.9998 36.3542C44.8198 36.7342 44.55 37.2642 44.18 37.8842C43.7585 38.6014 43.2942 39.2927 42.7899 39.9542C42.1848 40.7413 41.5159 41.4771 40.7899 42.1542C40.0385 42.8444 39.2097 43.4451 38.3199 43.9443C37.534 44.3929 36.715 44.7806 35.8699 45.1042C35.1199 45.3942 34.4698 45.5943 33.9998 45.7243C33.5298 45.8543 33.2498 45.9042 33.2498 45.9042L26.73 50.7043V50.7642C26.6743 50.8131 26.6138 50.8566 26.5499 50.8942C26.445 50.9495 26.3345 50.9931 26.22 51.0242C26.0542 51.0744 25.883 51.1046 25.71 51.1142C25.5303 51.1292 25.3497 51.1292 25.17 51.1142C25.041 51.0948 24.9138 51.0648 24.7899 51.0242L24.5599 50.9243H24.4901L21.6099 46.2043V46.0743C21.5706 45.9671 21.5404 45.8566 21.5198 45.7442C21.5051 45.6046 21.5051 45.4639 21.5198 45.3243C21.5306 45.1793 21.5828 45.0405 21.67 44.9243C21.7636 44.8023 21.8711 44.6916 21.9901 44.5943C22.1101 44.4943 22.2299 44.3943 22.3599 44.3043L22.66 44.1142L22.72 43.9543Z" fill="#FFC78D"/>
<path d="M47.5198 24.2831L53.0598 19.4432C53.0598 19.4432 53.0598 19.3731 53.0598 19.2731C53.0598 19.1731 53.0598 19.0032 53.0598 18.8632C53.0596 18.698 53.0394 18.5335 52.9998 18.3732C52.9597 18.2131 52.8808 18.0653 52.7698 17.9432C52.7233 17.893 52.6656 17.855 52.6011 17.8323C52.5366 17.8097 52.4675 17.8031 52.3999 17.8132C52.2757 17.8334 52.1585 17.885 52.0598 17.9631C51.967 18.0326 51.883 18.1132 51.8098 18.2031L51.71 18.3231L47.5198 24.2831Z" fill="#FFC78D"/>
<path d="M48.6899 29.1641L44.97 32.1641L44.3298 36.764L42.5598 40.1641L46.2598 36.764L49.5999 32.1641L49.74 31.9641C49.85 31.8041 49.9398 31.6441 50.0298 31.4841C50.1298 31.2903 50.2069 31.0856 50.2598 30.8741C50.3201 30.6889 50.3201 30.4893 50.2598 30.3041C50.1708 30.126 50.0447 29.9691 49.8899 29.8441C49.7314 29.704 49.5568 29.5831 49.3699 29.4841C49.1999 29.3841 49.0399 29.3041 48.9099 29.2441L48.6899 29.1641Z" fill="#FFC78D"/>
</svg>
