<?xml version="1.0" encoding="UTF-8"?><svg xmlns="http://www.w3.org/2000/svg" viewBox="0 0 313 74.95"><defs><style>.d{fill:#020202;}.e{fill:#55bccb;}</style></defs><g id="a"/><g id="b"><g id="c"><g><path d="M0,6.95H38.14v9.62h-13.07V56.27H13.07V16.58H0V6.95Z"/><path class="e" d="M43.06,6.53c0-3.65,2.88-6.53,7.16-6.53s7.1,2.88,7.1,6.53-2.88,6.46-7.1,6.46-7.16-2.88-7.16-6.46Z"/><rect class="d" x="44.18" y="17.07" width="12.01" height="39.2"/><path d="M118.92,34.98c0-5.13-2.95-7.94-7.52-7.94s-7.52,2.81-7.52,7.94v21.28h-11.94v-21.28c0-5.13-2.95-7.94-7.52-7.94s-7.52,2.81-7.52,7.94v21.28h-12.01V17.07h12.01v4.92c2.32-3.16,6.32-5.34,11.45-5.34,5.9,0,10.68,2.6,13.35,7.31,2.6-4.14,7.52-7.31,13.21-7.31,9.69,0,15.95,6.18,15.95,16.72v22.9h-11.94v-21.28Z"/><path d="M156.71,56.83c-11.52,0-19.81-7.73-19.81-20.16s8.15-20.16,19.81-20.16,19.53,7.59,19.53,19.53c0,1.12-.07,2.32-.21,3.51h-27.19c.42,5.13,3.58,7.52,7.45,7.52,3.37,0,5.27-1.69,6.25-3.79h12.78c-1.9,7.66-8.85,13.56-18.62,13.56Zm-7.8-23.95h15.03c0-4.29-3.37-6.74-7.38-6.74s-6.95,2.39-7.66,6.74Z"/><path d="M245.78,56.83c-11.52,0-19.81-7.73-19.81-20.16s8.15-20.16,19.81-20.16,19.53,7.59,19.53,19.53c0,1.12-.07,2.32-.21,3.51h-27.19c.42,5.13,3.58,7.52,7.45,7.52,3.37,0,5.27-1.69,6.25-3.79h12.78c-1.9,7.66-8.85,13.56-18.62,13.56Zm-7.8-23.95h15.03c0-4.29-3.37-6.74-7.38-6.74s-6.95,2.39-7.66,6.74Z"/><path d="M295.72,16.51c9.62,0,17.28,7.73,17.28,20.09s-7.66,20.23-17.28,20.23c-5.76,0-9.9-2.74-12.08-6.04v24.17h-12.01V17.07h12.01v5.55c2.18-3.44,6.32-6.11,12.08-6.11Zm-3.58,10.47c-4.5,0-8.57,3.44-8.57,9.69s4.07,9.69,8.57,9.69,8.64-3.51,8.64-9.76-4.07-9.62-8.64-9.62Z"/><path d="M212.04,56.47c-.36-1.91-1.07-4.35-2.92-9.29-1.9-5.18-2.62-6.55-4.11-7.86-1.25-1.13-2.74-1.61-4.64-1.61h-6.07v18.75h-12.32V6.93c2.47-.31,24.35,0,24.35,0,9.65,0,15.24,5,15.24,13.57,0,4.23-1.19,7.56-3.51,9.76-1.49,1.37-2.74,2.02-5.66,2.98,3.04,.95,4.41,2.32,6.31,6.55,.89,1.91,1.73,3.93,4.41,10.36,.65,1.67,1.37,3.16,2.86,6.31h-13.93Zm-8.45-28.94c3.51,0,5.66-2.14,5.66-5.54s-1.91-5.06-5.6-5.06h-9.35v10.6h9.29Z"/></g></g></g></svg>