<svg xmlns="http://www.w3.org/2000/svg" viewBox="0 0 56.2 21.19"><defs><style>.cls-1{fill:#fff;}</style></defs><title>i_glasses</title><g id="Layer_2" data-name="Layer 2"><g id="Layer_1-2" data-name="Layer 1"><path class="cls-1" d="M14.27,3.09a7.52,7.52,0,0,1,7.52,7.51,7.49,7.49,0,0,1-7.5,7.5h-.14a7.51,7.51,0,0,1,.12-15Zm27.67,0a7.52,7.52,0,0,1,5.3,12.85,7.43,7.43,0,0,1-5.18,2.19h-.14a7.52,7.52,0,0,1,0-15ZM14.29,0A10.61,10.61,0,0,0,4,8.09H0v3.16H3.73a5.28,5.28,0,0,0,.1.93,10.57,10.57,0,0,0,21-.95V11l.23-.14a5.74,5.74,0,0,1,3-1,5.74,5.74,0,0,1,3,1l.23.14v.26a10.6,10.6,0,0,0,10.55,10,10.33,10.33,0,0,0,7.48-3.11,10.48,10.48,0,0,0,3-5.9,5.28,5.28,0,0,0,.1-.93H56.2V8.09h-4a10.35,10.35,0,0,0-2.8-5A10.51,10.51,0,0,0,41.94,0h-.18a10.64,10.64,0,0,0-10,7.65l-.17.56L31.07,8a8,8,0,0,0-3-.64A7.53,7.53,0,0,0,25.16,8l-.54.22-.16-.56A10.61,10.61,0,0,0,14.47,0Z"/></g></g></svg>