<svg xmlns="http://www.w3.org/2000/svg" viewBox="0 0 51.36 15.62"><defs><style>.cls-1{fill:#fff;}</style></defs><title>i_moustache</title><g id="Layer_2" data-name="Layer 2"><g id="Layer_1-2" data-name="Layer 1"><path class="cls-1" d="M21.39,0A6.64,6.64,0,0,0,18,.92h0l-.21.14-.26.17c-.69.44-2.36,1.52-6.29,4,0,0-4.07,2.64-6.52,2.39a2.56,2.56,0,0,1-2.4-2.84S2.21,1.62,5,1.58a4.58,4.58,0,0,1,2.74.6A3.65,3.65,0,0,0,4,.55C1.54.75,0,3.13,0,6.3c0,1.16.24,5.53,8.12,8.26,0,0,11.37,3.51,17.56-2.24,6.19,5.75,17.56,2.24,17.56,2.24,7.87-2.73,8.12-7.1,8.12-8.26,0-3.17-1.89-5.41-4-5.75a3.34,3.34,0,0,0-3.67,1.63,4.58,4.58,0,0,1,2.74-.6c2.74,0,2.6,3.2,2.6,3.2a2.56,2.56,0,0,1-2.4,2.84c-2.45.25-6.52-2.39-6.52-2.39-3.93-2.49-5.6-3.57-6.29-4l-.26-.17L33.33.91h0a6.64,6.64,0,0,0-7.65.64A6.7,6.7,0,0,0,21.39,0Z"/></g></g></svg>