<svg xmlns="http://www.w3.org/2000/svg" viewBox="0 0 47.61 29.88"><defs><style>.cls-1{fill:#fff;}</style></defs><title>i_pig</title><g id="Layer_2" data-name="Layer 2"><g id="Layer_1-2" data-name="Layer 1"><path class="cls-1" d="M44.43,5.3a.44.44,0,0,1,.2,0A.51.51,0,0,1,45,6a.85.85,0,0,1-.67.54A.77.77,0,0,1,44,5.69.54.54,0,0,1,44.43,5.3ZM28,1.42A15.75,15.75,0,0,1,32.26,2a.22.22,0,0,1,.14.28l-.3.69a.2.2,0,0,1-.24.12A14.56,14.56,0,0,0,28,2.57a18.46,18.46,0,0,0-5.48.73.21.21,0,0,1-.25-.12L22,2.49a.2.2,0,0,1,.12-.27A19.49,19.49,0,0,1,28,1.42ZM28.31,0C19.24,0,15.12,3.12,13.69,4.59a.81.81,0,0,1-1.21-.07c-.76-.95-2.18-2.41-3.75-2.41-2.32,0-.52,4.18-.52,4.18s-2.6,1.9-3.2,4.2c-.44,1.69-3.57,1.36-4.19,1.36-1,0-1,1.58-.46,3.12a4.1,4.1,0,0,0,2.16,2.15c-.28.28-.41.53.62,1.36a19.67,19.67,0,0,0,7.78,4.42,1.06,1.06,0,0,1,.7,1.23l-1,4.8a.78.78,0,0,0,.77.95h3.88a1,1,0,0,0,.95-.6l1.9-4a1,1,0,0,1,1.08-.6,73.5,73.5,0,0,0,9.15.52,24.3,24.3,0,0,0,4.5-.4,1.05,1.05,0,0,1,1.12.52l2.25,4a1.05,1.05,0,0,0,.93.54H41a.78.78,0,0,0,.77-.95l-1.46-6.76a1,1,0,0,1,.33-1A11.23,11.23,0,0,0,44,9a.43.43,0,0,1,.31-.56c1.59-.38,4-1.37,3-3.76a.34.34,0,0,0-.54-.12,2.13,2.13,0,0,0-.37.46.21.21,0,0,1-.38,0,1.59,1.59,0,0,0-1.85-1,1.72,1.72,0,0,0-1.59,1.41.29.29,0,0,1-.51.11C39.53,2.33,34.93,0,28.31,0Z"/></g></g></svg>