<svg xmlns="http://www.w3.org/2000/svg" viewBox="0 0 48.98 18"><defs><style>.cls-1{fill:#fff;}</style></defs><title>i_salons</title><g id="Layer_2" data-name="Layer 2"><g id="Layer_1-2" data-name="Layer 1"><path class="cls-1" d="M42.56,15,44,18h.73l-.68-3ZM4.91,15l-.67,3H5l1.46-3Zm19.6-5.4a.84.84,0,0,0,.65.82H23.85A.84.84,0,0,0,24.51,9.63ZM8.78,0a.73.73,0,0,0-.71.57l-.78,4L2.15,3.07a1.25,1.25,0,0,0-.57,0L.42,3.26A.52.52,0,0,0,0,3.87l1.48,7.86A1.55,1.55,0,0,0,3,13H4V14.2H45V13H46a1.55,1.55,0,0,0,1.52-1.25L49,3.87a.52.52,0,0,0-.41-.61L47.4,3a1.28,1.28,0,0,0-.57,0L41.69,4.6l-.78-4a.72.72,0,0,0-.7-.57Z"/></g></g></svg>