<svg width="110" height="109" viewBox="0 0 110 109" fill="none" xmlns="http://www.w3.org/2000/svg">
<g id="Frame" clip-path="url(#clip0_2008_22153)">
<path id="Vector" d="M109.413 100.494C109.27 99.4955 108.797 98.5496 108.092 97.7688C107.341 96.9355 106.432 96.4475 105.426 96.0572C104.428 95.6818 103.392 95.5016 102.356 95.3965C101.335 95.3064 100.284 95.2163 99.2178 95.2313C97.0857 95.2313 94.8861 95.389 92.6864 95.7719C90.4867 96.1547 88.3021 96.7704 86.2075 97.5962C84.1055 98.3995 82.0935 99.3979 80.149 100.426C79.6536 100.689 79.1656 100.959 78.6926 101.237C77.2962 100.404 75.9224 99.4355 74.5861 98.3619C72.972 97.0932 71.3879 95.6968 69.8114 94.2779C68.2498 92.8515 66.7634 91.32 65.2093 89.8936C65.1718 89.856 65.1267 89.826 65.0892 89.7885C65.0066 86.4852 63.7379 83.197 61.3205 80.9748C59.9466 79.6835 58.3325 78.7751 56.6659 78.1445C55.0143 77.5139 53.25 77.176 51.5233 77.2286C49.8041 77.2811 48.0774 77.7316 46.6735 78.6325C45.2696 79.5108 44.151 80.7496 43.5129 82.1685C42.8523 83.5798 42.7697 85.2014 43.1375 86.5453C43.4829 87.9116 44.2862 89.0828 45.2997 89.841C46.3207 90.6068 47.5294 90.9071 48.5954 90.847C49.669 90.802 50.6224 90.4266 51.3206 89.8861C52.732 88.7675 53.0473 87.3035 53.0698 86.4327C53.0698 85.9822 53.0098 85.6369 52.9572 85.4117C52.8897 85.1864 52.8596 85.0738 52.8596 85.0738L52.6945 85.1189C52.6945 85.1189 52.7095 85.2315 52.747 85.4492C52.7695 85.6669 52.7921 85.9897 52.747 86.4101C52.6494 87.2134 52.2065 88.5047 50.9302 89.323C49.714 90.1113 47.5519 90.3065 46.0129 88.9627C44.5114 87.6864 43.7456 85.0063 44.8943 82.8216C46.0054 80.5994 48.663 79.0379 51.5684 79.0454C54.4737 79.0454 57.6944 80.194 60.1043 82.3036C61.831 83.8051 62.9271 86.0122 63.34 88.3921C62.2739 87.6338 61.1328 86.9807 59.8791 86.6053C57.9046 86.0047 55.5548 86.0498 53.8281 87.3786C52.169 88.6398 51.2606 90.6894 51.6434 92.6488C51.6885 92.9341 51.7636 93.0692 51.8161 93.2719C51.9212 93.5572 52.0038 93.7224 52.1239 93.9326C52.3491 94.3229 52.6344 94.6683 52.9422 94.9536C53.5503 95.5467 54.2935 95.892 55.0068 96.0722C56.5232 96.4475 57.7845 95.907 58.5728 95.2764C59.361 94.6308 59.7364 93.9175 59.9091 93.4296C60.0743 92.9191 60.0893 92.6638 60.0893 92.6638L59.9241 92.6188C59.9241 92.6188 59.8415 92.889 59.6013 93.2869C59.361 93.6923 58.9181 94.2629 58.1674 94.6758C57.792 94.871 57.3566 95.0587 56.8686 95.1187C56.6058 95.1563 56.4106 95.1488 56.0953 95.1337C55.8701 95.1037 55.5923 95.0512 55.3371 94.9611C54.3086 94.5857 53.265 93.6623 53.0924 92.3335C52.8822 91.1248 53.5578 89.5632 54.7665 88.5873C55.9302 87.5888 57.7995 87.1759 59.6538 87.5287C60.9826 87.7314 62.2664 88.3395 63.4451 89.1579C63.5201 89.8711 63.5577 90.5918 63.5051 91.32C63.4 93.0617 62.9871 94.7434 62.1763 96.3499C61.4106 97.904 60.307 99.3754 58.9782 100.584C57.6569 101.808 56.1103 102.806 54.4662 103.58C52.7996 104.323 51.0504 104.826 49.2636 105.089C47.7846 105.299 46.2907 105.321 44.8267 105.156C45.585 104.751 46.2982 104.263 46.9138 103.625C47.9873 102.544 48.663 101.035 48.693 99.488C48.708 98.7223 48.5354 97.9115 48.175 97.2208C47.7996 96.5151 47.2366 95.952 46.5759 95.5466C45.9153 95.1563 45.142 94.916 44.3613 94.9686C44.1661 94.9836 43.9709 95.0061 43.7682 95.0587C43.558 95.1187 43.4604 95.1413 43.2351 95.2464C42.8673 95.404 42.5595 95.6593 42.3042 95.937C41.7937 96.5001 41.5009 97.2358 41.4559 97.9715C41.3958 98.6998 41.6811 99.488 42.1916 99.961L42.3267 99.8484C41.4409 98.7823 41.8313 97.1758 42.7246 96.3499C43.633 95.4716 45.097 95.6142 46.088 96.3124C47.1315 97.0031 47.6495 98.2118 47.5444 99.428C47.4468 100.652 46.8462 101.808 45.9528 102.664C45.0669 103.52 43.8808 104.105 42.6496 104.473L42.1841 104.601H42.1466C41.0655 104.3 40.0295 103.887 39.076 103.339C36.1256 101.703 33.9635 99.0451 33.0476 96.2148C32.5821 94.8109 32.447 93.3395 32.6647 92.0332C32.8824 90.6894 33.5206 89.5032 34.4064 88.6473C36.1256 86.8681 38.9634 86.9357 40.3973 88.242C41.1256 88.8801 41.5084 89.8185 41.5835 90.6743C41.6586 91.5377 41.3958 92.3485 40.9604 92.904C40.022 94.0527 38.6256 94.2253 37.8523 94.0827C37.4394 94.0226 37.1541 93.88 36.959 93.7899C36.7713 93.6698 36.6662 93.6097 36.6662 93.6097L36.5611 93.7524C36.5611 93.7524 36.8689 94.1428 37.7622 94.428C38.2052 94.5557 38.7833 94.6157 39.4514 94.4881C40.1046 94.3605 40.8703 94.0527 41.5009 93.392C42.8072 92.0932 42.9874 89.3305 41.1706 87.4236C40.2697 86.5002 38.8959 85.9297 37.4695 85.9447C36.043 85.9222 34.504 86.5002 33.3704 87.5738C32.2293 88.6323 31.4185 90.1263 31.1257 91.7404C30.8179 93.392 31.0206 95.1037 31.5837 96.7103C32.7173 99.9535 35.3974 102.634 38.6256 104.173C39.2337 104.458 39.8718 104.691 40.51 104.901C39.9394 104.976 39.3388 105.013 38.7457 105.028C36.0956 105.044 33.438 104.495 30.8179 103.745C28.1903 103.017 25.5777 102.071 22.8826 101.327C20.1949 100.584 17.4172 100.029 14.5869 100.074C13.198 100.096 11.7866 100.299 10.4203 100.539C10.3903 100.539 10.3602 100.554 10.3227 100.562C10.8482 99.946 11.5013 99.4055 12.2446 99.0076C13.6935 98.2268 15.4427 97.8289 17.2295 97.7388C19.0238 97.6412 20.8556 97.9115 22.6949 98.0016C24.5192 98.0917 26.4636 97.8214 28.0251 96.7779C29.5567 95.7644 30.7428 94.1052 30.8855 92.2584C31.0281 90.4041 30.2023 88.7374 29.0612 87.6564C27.8975 86.5603 26.2909 86.1399 25.0447 86.3951C23.7835 86.6128 22.8525 87.266 22.2745 87.9191C21.6964 88.5873 21.4411 89.2254 21.3436 89.6759C21.246 90.1263 21.276 90.344 21.261 90.3515L21.4336 90.3891C21.4336 90.3891 21.4862 90.1488 21.6814 89.781C21.8541 89.4206 22.1919 88.9026 22.785 88.4446C23.3706 88.0017 24.2114 87.5963 25.1873 87.5438C26.1558 87.4837 27.2219 87.8516 28.0326 88.7149C28.8585 89.5482 29.4065 90.8395 29.3615 92.1608C29.3314 93.4821 28.6858 94.9761 27.4621 96.0271C26.854 96.5526 26.1408 96.9956 25.3075 97.2133C24.5042 97.4535 23.6033 97.5061 22.7249 97.4685C20.9382 97.4085 19.1439 96.9055 17.252 96.7854C15.3752 96.6427 13.3707 96.7779 11.5614 97.6262C11.5013 97.6562 11.4413 97.6863 11.3887 97.7163C12.1845 95.9445 12.3197 93.9926 12.177 92.1608C12.0569 90.2689 11.5539 88.4672 11.4938 86.6879C11.4563 85.802 11.5089 84.9087 11.7491 84.1054C11.9743 83.272 12.4097 82.5588 12.9353 81.9507C13.9938 80.727 15.4803 80.0814 16.8016 80.0514C18.1304 80.0063 19.4142 80.5619 20.2475 81.3802C21.1108 82.191 21.4712 83.257 21.4186 84.2255C21.3661 85.2014 20.9607 86.0423 20.5177 86.6279C20.0673 87.2209 19.5418 87.5588 19.1814 87.7314C18.8211 87.9191 18.5658 87.9642 18.5733 87.9792L18.6109 88.1519C18.6109 88.1519 18.8361 88.1669 19.2865 88.0693C19.737 87.9717 20.3751 87.7164 21.0433 87.1384C21.6889 86.5603 22.3495 85.6369 22.5673 84.3681C22.8225 83.1219 22.4096 81.5153 21.306 80.3517C20.2249 79.203 18.5583 78.3847 16.704 78.5274C14.8496 78.67 13.1905 79.8562 12.1845 81.3877C11.1335 82.9417 10.8632 84.8936 10.9608 86.7179C11.0509 88.5573 11.3212 90.3891 11.2236 92.1833C11.1335 93.9776 10.7356 95.7193 9.95482 97.1682C9.69957 97.6412 9.38426 98.0766 9.03892 98.467C9.27165 97.2133 9.41429 95.9596 9.43681 94.6383C9.43681 93.9701 9.41429 93.2194 9.33921 92.5061C9.27915 91.793 9.16654 91.0873 9.03892 90.3891C8.78367 88.9852 8.4158 87.6188 8.0104 86.2825C7.1996 83.6024 6.17109 81.0348 5.39032 78.4448C4.57952 75.8697 4.01646 73.2271 4.01646 70.5995C4.01646 70.074 4.054 69.5485 4.11406 69.0305C4.31676 69.6311 4.53448 70.2242 4.80474 70.8022C6.34376 74.0304 9.0239 76.7106 12.2671 77.8442C13.8812 78.4072 15.5854 78.6099 17.237 78.3021C18.8511 78.0094 20.3451 77.1986 21.4036 76.0574C22.4772 74.9238 23.0477 73.3848 23.0327 71.9584C23.0477 70.532 22.4772 69.1656 21.5538 68.2572C19.6469 66.4404 16.8842 66.6281 15.5854 67.9269C14.9247 68.5575 14.6169 69.3233 14.4893 69.9764C14.3617 70.6371 14.4142 71.2227 14.5494 71.6656C14.8271 72.559 15.255 72.8668 15.225 72.8668L15.3677 72.7617C15.3677 72.7617 15.3076 72.6641 15.1875 72.4689C15.0974 72.2737 14.9548 71.9959 14.8947 71.5755C14.7521 70.8022 14.9247 69.3984 16.0734 68.4674C16.6289 68.032 17.4397 67.7693 18.3031 67.8443C19.1589 67.9194 20.0973 68.3023 20.7355 69.0305C22.0492 70.4644 22.1093 73.3022 20.3301 75.0214C19.4742 75.9073 18.288 76.5379 16.9442 76.7631C15.6379 76.9883 14.1665 76.8532 12.7626 76.3802C9.93981 75.4719 7.28219 73.3097 5.63806 70.3518C5.10504 69.4209 4.69964 68.4074 4.39183 67.3564C4.44439 67.1461 4.48943 66.9284 4.54949 66.7182C4.91735 65.487 5.50293 64.3234 6.36628 63.43C7.22963 62.5441 8.37076 61.9585 9.59447 61.8684C10.2026 61.8309 10.7956 61.9135 11.3737 62.1762C11.8692 62.409 12.3722 62.8369 12.71 63.3399C13.4007 64.3384 13.5359 65.7948 12.6425 66.7107C11.8091 67.6041 10.1876 67.9795 9.14402 67.0936L9.0239 67.2212C9.51939 67.7467 10.2851 68.0095 11.0134 67.9569C11.7416 67.9119 12.4698 67.6266 13.0329 67.1161C13.6184 66.6206 13.9563 65.8474 14.0088 65.0816C14.0689 64.3008 13.8361 63.5351 13.4533 62.8744C13.0554 62.2138 12.5224 61.6582 11.7941 61.2603C11.1335 60.9075 10.3302 60.7198 9.56444 60.7273C8.02542 60.7273 6.50142 61.403 5.41284 62.4615C4.7672 63.0771 4.2567 63.8054 3.84379 64.5711C3.68614 63.1147 3.70115 61.6282 3.91136 60.1567C4.17412 58.37 4.67712 56.6133 5.42035 54.9541C6.19361 53.31 7.1921 51.7635 8.4158 50.4422C9.6245 49.1134 11.0959 48.0098 12.65 47.244C14.2566 46.4332 15.9382 46.0203 17.6799 45.9152C18.4007 45.8702 19.1289 45.9002 19.8421 45.9753C20.6679 47.1539 21.2685 48.4302 21.4712 49.7665C21.824 51.6208 21.4036 53.4902 20.4126 54.6538C19.4367 55.87 17.8676 56.5457 16.6664 56.328C15.3376 56.1553 14.4142 55.1118 14.0388 54.0833C13.9488 53.828 13.8962 53.5502 13.8662 53.325C13.8437 53.0097 13.8361 52.8145 13.8812 52.5518C13.9413 52.0638 14.1289 51.6283 14.3241 51.2605C14.737 50.5097 15.3076 50.0668 15.713 49.8266C16.1109 49.5788 16.3812 49.5037 16.3812 49.5037L16.3361 49.3386C16.3361 49.3386 16.0734 49.3461 15.5704 49.5188C15.0824 49.6914 14.3692 50.0668 13.7235 50.8551C13.0929 51.6434 12.5524 52.8971 12.9278 54.4211C13.1154 55.1343 13.4608 55.8775 14.0464 56.4856C14.3391 56.7934 14.677 57.0712 15.0674 57.3039C15.2776 57.4241 15.4352 57.5066 15.728 57.6117C15.9232 57.6718 16.0658 57.7394 16.3511 57.7844C18.3106 58.1673 20.3526 57.2589 21.6138 55.5998C22.9351 53.8731 22.9802 51.5232 22.3871 49.5488C22.0042 48.2951 21.3586 47.1539 20.6003 46.0879C22.9877 46.5008 25.1873 47.5969 26.6888 49.3236C28.7984 51.7334 29.947 54.9541 29.947 57.8595C29.9545 60.7724 28.4005 63.4225 26.1708 64.5336C23.9862 65.6897 21.3135 64.924 20.0298 63.415C18.6859 61.8759 18.8736 59.7138 19.6694 58.4976C20.4802 57.2214 21.779 56.7784 22.5823 56.6808C22.9952 56.6283 23.3255 56.6508 23.5432 56.6808C23.7609 56.7184 23.8735 56.7334 23.8735 56.7334L23.9186 56.5682C23.9186 56.5682 23.806 56.5382 23.5808 56.4706C23.3555 56.4181 23.0177 56.3505 22.5598 56.358C21.6889 56.3805 20.225 56.6958 19.1063 58.1072C18.5658 58.8054 18.1904 59.7589 18.1454 60.8324C18.0928 61.8985 18.3856 63.1147 19.1589 64.1282C19.9171 65.1417 21.0808 65.945 22.4546 66.2903C23.806 66.6582 25.4201 66.5756 26.8315 65.9149C28.2579 65.2768 29.4966 64.1507 30.3675 62.7543C31.2683 61.3579 31.7188 59.6312 31.7713 57.9045C31.8314 56.1703 31.4936 54.4136 30.8554 52.762C30.2248 51.0953 29.3164 49.4812 28.0251 48.1074C25.803 45.6975 22.5147 44.4212 19.2115 44.3387C19.1739 44.3011 19.1439 44.2561 19.1063 44.2185C17.6799 42.657 16.1484 41.178 14.722 39.6165C13.3031 38.0399 11.9143 36.4634 10.638 34.8418C9.56444 33.5055 8.60349 32.1316 7.76266 30.7352C8.04043 30.2548 8.3107 29.7668 8.57346 29.2788C9.60948 27.3344 10.6005 25.3224 11.4037 23.2203C12.2296 21.1258 12.8452 18.9411 13.2281 16.7414C13.6109 14.5418 13.7686 12.3421 13.7686 10.21C13.7761 9.14394 13.6935 8.09291 13.6034 7.0719C13.4983 6.02837 13.3181 4.99235 12.9428 4.00137C12.5599 2.99538 12.0644 2.08698 11.2311 1.33624C10.4503 0.660577 9.50438 0.18761 8.50589 0.0449696C8.0104 -0.0301045 7.49239 -0.00758227 7.01943 0.105029L6.66658 0.210132C6.4864 0.270192 6.46388 0.292714 6.35127 0.337758C6.13355 0.435355 5.88581 0.585503 5.71314 0.713128C4.9624 1.26868 4.52697 2.05695 4.32427 2.8152C4.12908 3.58846 4.17412 4.35422 4.44439 4.99986C4.69213 5.61546 5.13507 6.10344 5.56299 6.41125C6.44886 7.04187 7.31221 7.13196 7.85275 7.08691C8.40079 7.03436 8.66355 6.90674 8.66355 6.90674L8.6185 6.74157C8.6185 6.74157 8.34824 6.80914 7.85275 6.7641C7.37227 6.71905 6.62904 6.50884 6.00593 5.88573C5.3753 5.27763 4.95489 4.2341 5.39783 3.16054C5.81073 2.09449 6.93684 1.22363 8.25064 1.55396C8.89628 1.6966 9.54942 2.07197 10.0599 2.6125C10.1951 2.75514 10.2927 2.87526 10.4053 3.02541C10.4578 3.10048 10.5704 3.24312 10.5779 3.27315C10.6305 3.35573 10.683 3.43832 10.7356 3.5284C10.9308 3.87375 11.0959 4.24912 11.2311 4.65452C11.7491 6.2611 11.8617 8.28059 11.9668 10.3001C12.0569 12.3271 11.9668 14.4367 11.7116 16.5613C11.4638 18.6859 11.0584 20.8405 10.5029 22.9651C9.91728 25.0822 9.14402 27.1617 8.108 29.0686C7.89779 29.459 7.67257 29.8494 7.43984 30.2322C7.38729 30.1346 7.31972 30.037 7.26717 29.9395C6.82423 29.0836 6.36628 28.2578 6.01343 27.4019L5.87079 27.0866L5.75067 26.7788L5.49542 26.1182C5.33777 25.6903 5.21014 25.2999 5.07501 24.887C4.57952 23.2128 4.29424 21.5762 4.21916 20.0522C4.12157 18.5282 4.24169 17.1168 4.45189 15.8931C4.65459 14.6544 5.02246 13.6184 5.3753 12.785C5.54047 12.3646 5.72064 11.9968 5.89332 11.689C6.05848 11.3736 6.20863 11.1109 6.34376 10.9082C6.60652 10.4878 6.74916 10.2625 6.74916 10.2625L6.61403 10.1499C6.61403 10.1499 6.42634 10.3451 6.081 10.7055C5.90082 10.8857 5.70563 11.1259 5.48041 11.4262C5.24768 11.7115 4.99993 12.0643 4.75219 12.4697C3.73118 14.0763 2.71768 16.7564 2.65762 20.0897C2.6351 21.7489 2.82279 23.5582 3.32578 25.3975C3.45341 25.8554 3.60356 26.3509 3.75371 26.8014L4.00896 27.462L4.1516 27.8224L4.30175 28.1602C4.69213 29.0761 5.1726 29.9695 5.69812 30.8554C5.91584 31.2082 6.14106 31.5535 6.37379 31.8914C5.7807 32.7397 5.13507 33.5505 4.54198 34.3838C3.32578 36.0805 2.21469 37.9799 1.95193 40.0594C1.80929 41.0879 1.86935 42.139 2.15463 43.1225C2.23721 43.3927 2.3273 43.6255 2.40988 43.8131C2.52249 44.0684 2.62759 44.2861 2.76273 44.5038C3.01798 44.9392 3.33329 45.3146 3.67112 45.6449C5.02246 46.9587 6.97438 47.4993 8.49088 46.9587C9.29417 46.711 9.87224 46.178 10.2401 45.6299C10.6155 45.0819 10.8182 44.5038 10.8932 43.9708C11.0584 42.9047 10.7206 42.0564 10.3827 41.621C9.99987 41.163 9.75963 41.0804 9.75963 41.0579L9.63951 41.1855C9.63951 41.1855 9.87975 41.3882 10.0824 41.8087C10.2927 42.2366 10.4503 42.9723 10.1725 43.8131C9.91728 44.6239 9.23411 45.6149 8.17557 45.8401C7.07198 46.1179 5.69812 45.6524 4.71465 44.6014C3.69365 43.5954 3.29575 41.9663 3.46842 40.2396C3.61857 38.4979 4.30925 36.6736 5.33777 34.8868C5.7807 34.0835 6.27619 33.2802 6.76417 32.4619C7.58248 33.6406 8.47586 34.7967 9.45933 35.8853C10.8782 37.4769 12.4398 38.9483 14.0539 40.3522C15.5629 41.7111 17.1544 42.9648 18.4907 44.4062C18.1829 44.4137 17.8676 44.4137 17.5598 44.4438C16.5989 44.5338 15.6529 44.7365 14.722 45.0068C13.8286 45.2996 12.8302 45.69 12.0644 46.1404C10.3602 47.1164 8.89628 48.3927 7.69509 49.8791C6.47139 51.3506 5.53296 53.0247 4.81976 54.7589C4.09154 56.4856 3.60356 58.3174 3.37083 60.1492C3.12308 61.9961 3.10056 63.8729 3.3408 65.6972C3.25822 65.9074 3.16813 66.1101 3.09305 66.3203C2.6351 67.7167 2.39486 69.1581 2.33481 70.6071C2.21469 73.5124 2.83029 76.3352 3.61106 79.0304C4.42186 81.7255 5.43536 84.2931 6.27619 86.8756C6.69661 88.1669 7.07198 89.4582 7.34224 90.7719C7.47738 91.4251 7.58999 92.0782 7.66506 92.7389C7.74764 93.392 7.78518 94.0227 7.8002 94.7359C7.81521 96.0196 7.68008 97.3785 7.46236 98.6847C7.38729 99.1052 7.2972 99.5256 7.1996 99.946C6.97438 100.051 6.75667 100.149 6.52394 100.224C5.83326 100.434 5.12756 100.509 4.47442 100.396C3.82127 100.276 3.19816 100.006 2.72519 99.6232C1.78677 98.925 1.43392 97.5361 1.78677 96.5677C2.07955 95.5692 3.11558 95.0361 4.01646 95.0437C4.47442 95.0587 4.84979 95.1863 5.18762 95.4566C5.44287 95.6668 5.68311 96.0196 5.79572 96.3424C6.04346 97.0106 5.93836 97.6337 5.7732 97.9866C5.61554 98.3544 5.44287 98.5121 5.44287 98.5121L5.55548 98.6472C5.55548 98.6472 5.60053 98.6097 5.69812 98.5346C5.78821 98.4595 5.92334 98.3394 6.05848 98.1517C6.33625 97.7839 6.60652 97.0782 6.46388 96.1698C6.3888 95.7118 6.20863 95.2388 5.7732 94.7659C5.40533 94.368 4.78973 94.0226 4.12908 93.9175C3.46092 93.8199 2.71768 93.88 2.01949 94.2253C1.32131 94.5557 0.668162 95.1938 0.330329 95.9896C-0.352845 97.5736 -0.0300266 99.6757 1.53151 101.005C2.47745 101.868 3.79124 102.303 5.11255 102.296C4.2567 102.701 3.42338 103.174 2.66513 103.775C1.54653 104.653 0.563058 105.929 0.337836 107.476L0.262762 107.994L0.81831 108.016C2.30478 108.069 3.8513 107.558 5.00744 106.59C5.93085 105.839 6.63655 104.901 7.1996 103.895C7.18459 105.231 7.62002 106.553 8.49088 107.506C9.81969 109.067 11.9218 109.39 13.5058 108.707C14.2941 108.369 14.9397 107.716 15.2701 107.018C15.6154 106.32 15.6755 105.577 15.5779 104.908C15.4728 104.248 15.1274 103.632 14.7295 103.264C14.2566 102.829 13.7836 102.649 13.3256 102.574C12.4172 102.438 11.7191 102.701 11.3437 102.979C11.156 103.114 11.0284 103.249 10.9608 103.339C10.8857 103.429 10.8482 103.482 10.8482 103.482L10.9833 103.595C10.9833 103.595 11.141 103.422 11.5089 103.264C11.8617 103.099 12.4848 103.002 13.153 103.242C13.4758 103.354 13.8286 103.595 14.0388 103.85C14.3091 104.188 14.4367 104.571 14.4518 105.021C14.4593 105.922 13.9262 106.958 12.9278 107.251C11.9593 107.611 10.5704 107.251 9.87224 106.32C9.48936 105.839 9.2191 105.224 9.09898 104.571C8.98637 103.917 9.05393 103.212 9.27165 102.521C9.39927 102.108 9.60197 101.703 9.84972 101.312C10.0824 101.26 10.3152 101.185 10.5479 101.14C11.8992 100.862 13.2431 100.719 14.6244 100.704C17.3496 100.704 20.0373 101.41 22.6123 102.318C25.2099 103.212 27.7399 104.315 30.4125 105.201C33.0701 106.065 35.8929 106.703 38.7908 106.643C39.519 106.613 40.2247 106.568 40.9679 106.44C41.3433 106.387 41.6961 106.312 42.0265 106.237L42.2817 106.177L42.567 106.102L43.0925 105.944C43.3177 105.869 43.5354 105.779 43.7607 105.689C45.6 105.929 47.4843 105.907 49.3387 105.659C51.1705 105.426 53.0023 104.938 54.729 104.21C56.4632 103.497 58.1373 102.559 59.6088 101.335C61.0953 100.134 62.3715 98.6697 63.3475 96.9656C63.7979 96.1923 64.1883 95.1938 64.4811 94.3079C64.7514 93.377 64.9541 92.4311 65.0442 91.4701C65.0742 91.1623 65.0742 90.8545 65.0817 90.5392C66.5231 91.883 67.7768 93.4671 69.1357 94.9761C70.5396 96.5902 72.011 98.1517 73.6026 99.5706C74.6912 100.547 75.8473 101.447 77.026 102.266C76.2077 102.761 75.4044 103.249 74.6011 103.692C72.8143 104.713 70.99 105.411 69.2483 105.562C67.5216 105.734 65.9 105.329 64.8865 104.315C63.8355 103.332 63.37 101.958 63.6478 100.854C63.873 99.7958 64.864 99.1127 65.6748 98.8574C66.5231 98.5796 67.2513 98.7373 67.6793 98.9475C68.0922 99.1502 68.2949 99.413 68.3024 99.3904L68.43 99.2703C68.43 99.2703 68.3249 99.0301 67.8669 98.6472C67.424 98.3169 66.5832 97.979 65.5171 98.1367C64.9841 98.2118 64.406 98.4145 63.858 98.7898C63.3099 99.1577 62.7769 99.7433 62.5292 100.539C61.9811 102.048 62.5292 104 63.843 105.359C64.1733 105.697 64.5562 106.012 64.9841 106.267C65.2018 106.402 65.4195 106.507 65.6748 106.62C65.8625 106.703 66.1027 106.793 66.3655 106.875C67.3489 107.168 68.4 107.221 69.4285 107.078C71.508 106.815 73.4074 105.704 75.1041 104.488C75.9449 103.895 76.7482 103.242 77.5965 102.656C77.9419 102.889 78.2872 103.114 78.6326 103.332C79.5184 103.857 80.4118 104.338 81.3277 104.728L81.6655 104.878L82.0259 105.021L82.6866 105.276C83.1445 105.426 83.6325 105.577 84.0904 105.704C85.9297 106.2 87.739 106.395 89.3982 106.372C92.7315 106.312 95.4116 105.299 97.0182 104.278C97.4311 104.03 97.7764 103.79 98.0617 103.55C98.3545 103.332 98.6022 103.137 98.7824 102.949C99.1428 102.596 99.338 102.416 99.338 102.416L99.2254 102.281C99.2254 102.281 99.0001 102.423 98.5797 102.686C98.377 102.829 98.1143 102.979 97.799 103.137C97.4911 103.317 97.1233 103.489 96.7029 103.655C95.8695 104.007 94.8335 104.375 93.5948 104.578C92.3636 104.788 90.9597 104.901 89.4357 104.811C87.9117 104.728 86.2751 104.443 84.6009 103.955C84.188 103.82 83.7977 103.692 83.3697 103.535L82.7091 103.279L82.4013 103.159L82.086 103.017C81.2376 102.664 80.4043 102.206 79.5485 101.763C79.4509 101.71 79.3533 101.643 79.2557 101.59C79.6385 101.357 80.0289 101.132 80.4193 100.922C82.3262 99.8859 84.4057 99.1202 86.5228 98.5271C88.6474 97.9715 90.8021 97.5661 92.9267 97.3184C95.0512 97.0631 97.1608 96.9731 99.1878 97.0631C101.207 97.1758 103.227 97.2809 104.833 97.7989C105.239 97.934 105.614 98.0992 105.959 98.2944C106.05 98.3394 106.125 98.3995 106.215 98.452C106.245 98.467 106.38 98.5721 106.462 98.6247C106.613 98.7373 106.725 98.8349 106.868 98.97C107.401 99.488 107.784 100.134 107.926 100.779C108.257 102.093 107.386 103.212 106.32 103.632C105.246 104.068 104.195 103.655 103.595 103.024C102.972 102.401 102.761 101.658 102.716 101.177C102.664 100.682 102.739 100.411 102.739 100.411L102.574 100.366C102.574 100.366 102.446 100.629 102.393 101.177C102.348 101.718 102.439 102.589 103.069 103.467C103.377 103.895 103.857 104.338 104.481 104.586C105.126 104.856 105.899 104.901 106.665 104.706C107.423 104.503 108.212 104.068 108.767 103.317C108.902 103.144 109.045 102.896 109.143 102.679C109.188 102.566 109.21 102.544 109.27 102.363L109.375 102.011C109.488 101.53 109.511 101.02 109.435 100.524L109.413 100.494ZM4.24169 105.622C3.46842 106.342 2.49246 106.785 1.44142 106.935C1.70418 105.937 2.34231 105.029 3.16813 104.308C4.09905 103.482 5.23266 102.859 6.41133 102.363C6.39631 102.393 6.3888 102.423 6.37379 102.453C5.85578 103.655 5.1651 104.773 4.24169 105.629V105.622Z" fill="white"/>
</g>
<defs>
<clipPath id="clip0_2008_22153">
<rect width="109.458" height="109" fill="white"/>
</clipPath>
</defs>
</svg>
