<svg width="110" height="109" viewBox="0 0 110 109" fill="none" xmlns="http://www.w3.org/2000/svg">
<g id="Frame" clip-path="url(#clip0_2008_22159)">
<path id="Vector" d="M0.587114 8.50596C0.729753 9.50445 1.20273 10.4504 1.90843 11.2312C2.65917 12.0645 3.56757 12.5525 4.57356 12.9428C5.57204 13.3182 6.60806 13.4984 7.64408 13.6035C8.66509 13.6936 9.71612 13.7837 10.7822 13.7687C12.9143 13.7687 15.1139 13.611 17.3136 13.2281C19.5133 12.8452 21.6979 12.2296 23.7925 11.4038C25.8946 10.6005 27.9066 9.60204 29.851 8.57353C30.3465 8.31077 30.8344 8.0405 31.3074 7.76273C32.7038 8.59605 34.0776 9.56451 35.414 10.6381C37.0281 11.9068 38.6121 13.3032 40.1887 14.7221C41.7502 16.1485 43.2367 17.68 44.7907 19.1064C44.8282 19.144 44.8733 19.174 44.9108 19.2115C44.9934 22.5148 46.2622 25.803 48.6795 28.0252C50.0534 29.3165 51.6675 30.2249 53.3341 30.8555C54.9858 31.4861 56.75 31.824 58.4767 31.7714C60.1959 31.7189 61.9226 31.2684 63.3265 30.3675C64.7304 29.4892 65.849 28.2504 66.4871 26.8315C67.1478 25.4201 67.2303 23.7985 66.8625 22.4547C66.5171 21.0884 65.7138 19.9172 64.7003 19.159C63.6793 18.3932 62.4706 18.0929 61.4046 18.153C60.331 18.198 59.3776 18.5734 58.6794 19.1139C57.268 20.2325 56.9527 21.6965 56.9302 22.5673C56.9302 23.0178 56.9902 23.3631 57.0428 23.5883C57.1104 23.8136 57.1404 23.9262 57.1404 23.9262L57.3055 23.8811C57.3055 23.8811 57.2905 23.7685 57.253 23.5508C57.2305 23.3331 57.208 23.0103 57.253 22.5899C57.3506 21.7866 57.7935 20.4953 59.0698 19.677C60.286 18.8887 62.4481 18.6935 63.9871 20.0373C65.4886 21.3136 66.2544 23.9937 65.1057 26.1784C63.9946 28.4006 61.337 29.9621 58.4317 29.9546C55.5263 29.9546 52.3056 28.806 49.8957 26.6964C48.169 25.1949 47.073 22.9877 46.66 20.6079C47.7261 21.3662 48.8672 22.0193 50.121 22.3947C52.0954 22.9953 54.4452 22.9502 56.1719 21.6214C57.8311 20.3602 58.7395 18.3106 58.3566 16.3512C58.3115 16.0659 58.2365 15.9308 58.1839 15.7281C58.0788 15.4428 57.9962 15.2776 57.8761 15.0674C57.6509 14.6771 57.3656 14.3317 57.0578 14.0464C56.4497 13.4533 55.7065 13.108 54.9933 12.9278C53.4768 12.5525 52.2155 13.093 51.4273 13.7236C50.639 14.3692 50.2636 15.0825 50.0909 15.5704C49.9258 16.0809 49.9108 16.3362 49.9108 16.3362L50.0759 16.3812C50.0759 16.3812 50.1585 16.111 50.3987 15.7131C50.639 15.3077 51.0819 14.7371 51.8326 14.3242C52.208 14.129 52.6435 13.9413 53.1314 13.8813C53.3942 13.8437 53.5894 13.8512 53.9047 13.8663C54.1299 13.8963 54.4077 13.9488 54.6629 14.0389C55.6915 14.4143 56.735 15.3377 56.9077 16.6665C57.1179 17.8752 56.4422 19.4367 55.2335 20.4127C54.0699 21.4112 52.2005 21.8241 50.3462 21.4713C49.0174 21.2686 47.7336 20.6604 46.5549 19.8421C46.4799 19.1289 46.4423 18.4082 46.4949 17.68C46.6 15.9383 47.0129 14.2566 47.8237 12.6501C48.5895 11.096 49.693 9.62458 51.0219 8.41588C52.3432 7.19217 53.8897 6.19368 55.5338 5.42042C57.2004 4.67719 58.9497 4.1742 60.7364 3.91144C62.2154 3.70123 63.7094 3.6787 65.1733 3.84386C64.4151 4.24926 63.7019 4.73725 63.0863 5.37538C62.0127 6.45645 61.337 7.96543 61.307 9.51196C61.292 10.2777 61.4647 11.0885 61.825 11.7792C62.2004 12.4849 62.7634 13.0479 63.4241 13.4533C64.0847 13.8437 64.858 14.084 65.6388 14.0314C65.834 14.0164 66.0292 13.9939 66.2319 13.9413C66.4421 13.8813 66.5397 13.8587 66.7649 13.7536C67.1327 13.596 67.4405 13.3407 67.6958 13.063C68.2063 12.4999 68.4991 11.7642 68.5441 11.0285C68.6042 10.3002 68.3189 9.51197 67.8084 9.039L67.6733 9.1516C68.5591 10.2177 68.1688 11.8242 67.2754 12.6501C66.367 13.5284 64.903 13.3858 63.9121 12.6876C62.8685 11.9969 62.3505 10.7882 62.4556 9.57202C62.5532 8.34831 63.1538 7.19217 64.0472 6.33633C64.9331 5.48048 66.1192 4.8949 67.3505 4.52704L67.8159 4.39942L67.8535 4.39942C68.9345 4.69971 69.9705 5.11262 70.924 5.66066C73.8744 7.29728 76.0365 9.95489 76.9524 12.7852C77.4179 14.1891 77.553 15.6605 77.3353 16.9668C77.1176 18.3106 76.4795 19.4968 75.5936 20.3527C73.8744 22.1319 71.0366 22.0643 69.6027 20.758C68.8745 20.1199 68.4916 19.1815 68.4165 18.3256C68.3414 17.4623 68.6042 16.6515 69.0396 16.096C69.978 14.9473 71.3744 14.7746 72.1477 14.9173C72.5606 14.9774 72.8459 15.12 73.0411 15.2101C73.2288 15.3302 73.3339 15.3903 73.3339 15.3903L73.439 15.2476C73.439 15.2476 73.1312 14.8572 72.2378 14.5719C71.7948 14.4443 71.2168 14.3843 70.5486 14.5119C69.8955 14.6395 69.1297 14.9473 68.4991 15.608C67.1928 16.9067 67.0126 19.6695 68.8294 21.5764C69.7303 22.4998 71.1042 23.0703 72.5306 23.0553C73.957 23.0778 75.496 22.4998 76.6296 21.4262C77.7707 20.3677 78.5815 18.8737 78.8743 17.2596C79.1821 15.608 78.9794 13.8963 78.4164 12.2897C77.2828 9.0465 74.6026 6.36636 71.3744 4.82734C70.7663 4.54207 70.1282 4.30933 69.4901 4.09913C70.0606 4.02405 70.6612 3.98652 71.2543 3.9715C73.9044 3.95649 76.562 4.50452 79.1821 5.25526C81.8097 5.98348 84.4223 6.92941 87.1175 7.67264C89.8051 8.41588 92.5828 8.97143 95.4131 8.92638C96.802 8.90386 98.2134 8.70116 99.5797 8.46093C99.6098 8.46093 99.6398 8.44591 99.6773 8.43841C99.1518 9.05402 98.4987 9.59454 97.7554 9.99243C96.3065 10.7732 94.5573 11.1711 92.7705 11.2612C90.9763 11.3588 89.1445 11.0885 87.3051 10.9984C85.4808 10.9083 83.5364 11.1786 81.9749 12.2221C80.4434 13.2356 79.2572 14.8948 79.1146 16.7416C78.9719 18.5959 79.7977 20.2626 80.9389 21.3436C82.1025 22.4397 83.7091 22.8601 84.9553 22.6049C86.2166 22.3872 87.1475 21.734 87.7256 21.0809C88.3036 20.4127 88.5589 19.7746 88.6565 19.3241C88.7541 18.8737 88.724 18.656 88.7391 18.6485L88.5664 18.6109C88.5664 18.6109 88.5138 18.8512 88.3186 19.219C88.146 19.5794 87.8081 20.0974 87.215 20.5553C86.6295 20.9983 85.7886 21.4037 84.8127 21.4562C83.8442 21.5163 82.7782 21.1484 81.9674 20.2851C81.1416 19.4518 80.5935 18.1605 80.6386 16.8392C80.6686 15.5179 81.3142 14.0239 82.5379 12.9729C83.146 12.4474 83.8592 12.0044 84.6926 11.7867C85.4959 11.5465 86.3967 11.4939 87.2751 11.5315C89.0619 11.5915 90.8561 12.0945 92.748 12.2146C94.6249 12.3573 96.6293 12.2221 98.4386 11.3738C98.4987 11.3438 98.5587 11.3137 98.6113 11.2837C97.8155 13.0555 97.6804 15.0074 97.823 16.8392C97.9431 18.7311 98.4461 20.5328 98.5062 22.3121C98.5437 23.198 98.4912 24.0913 98.2509 24.8946C98.0257 25.728 97.5903 26.4412 97.0648 27.0493C96.0062 28.273 94.5198 28.9186 93.1984 28.9486C91.8696 28.9937 90.5859 28.4381 89.7526 27.6198C88.8892 26.809 88.5288 25.743 88.5814 24.7745C88.6339 23.7986 89.0393 22.9577 89.4823 22.3721C89.9327 21.7791 90.4582 21.4412 90.8186 21.2686C91.179 21.0809 91.4342 21.0358 91.4267 21.0208L91.3892 20.8481C91.3892 20.8481 91.1639 20.8331 90.7135 20.9307C90.2631 21.0283 89.6249 21.2836 88.9568 21.8616C88.3111 22.4397 87.6505 23.3631 87.4328 24.6319C87.1775 25.8781 87.5904 27.4847 88.694 28.6483C89.7751 29.797 91.4417 30.6153 93.296 30.4726C95.1504 30.33 96.8095 29.1438 97.8155 27.6123C98.8665 26.0583 99.1368 24.1064 99.0392 22.2821C98.9491 20.4427 98.6789 18.6109 98.7765 16.8167C98.8665 15.0224 99.2644 13.2807 100.045 11.8318C100.3 11.3588 100.616 10.9234 100.961 10.533C100.728 11.7867 100.586 13.0404 100.563 14.3617C100.563 15.0299 100.586 15.7806 100.661 16.4938C100.721 17.207 100.833 17.9127 100.961 18.6109C101.216 20.0148 101.584 21.3812 101.99 22.7175C102.8 25.3976 103.829 27.9652 104.61 30.5552C105.421 33.1303 105.984 35.7729 105.984 38.4005C105.984 38.926 105.946 39.4515 105.886 39.9695C105.683 39.3689 105.466 38.7758 105.195 38.1978C103.656 34.9696 100.976 32.2894 97.7329 31.1558C96.1188 30.5927 94.4146 30.3901 92.763 30.6979C91.1489 30.9906 89.655 31.8014 88.5964 32.9426C87.5229 34.0762 86.9523 35.6152 86.9673 37.0416C86.9523 38.468 87.5229 39.8344 88.4463 40.7428C90.3531 42.5596 93.1159 42.3719 94.4146 41.0731C95.0753 40.4425 95.3831 39.6767 95.5107 39.0236C95.6384 38.3629 95.5858 37.7773 95.4507 37.3344C95.1729 36.441 94.745 36.1332 94.775 36.1332L94.6324 36.2383C94.6324 36.2383 94.6924 36.3359 94.8125 36.5311C94.9026 36.7263 95.0453 37.0041 95.1053 37.4245C95.248 38.1978 95.0753 39.6016 93.9267 40.5326C93.3711 40.968 92.5603 41.2307 91.697 41.1557C90.8411 41.0806 89.9027 40.6977 89.2646 39.9695C87.9508 38.5356 87.8907 35.6978 89.67 33.9786C90.5258 33.0927 91.712 32.4621 93.0558 32.2369C94.3621 32.0116 95.8335 32.1468 97.2374 32.6197C100.06 33.5281 102.718 35.6903 104.362 38.6482C104.895 39.5791 105.3 40.5926 105.608 41.6436C105.556 41.8539 105.511 42.0716 105.451 42.2818C105.083 43.513 104.497 44.6766 103.634 45.57C102.77 46.4559 101.629 47.0415 100.406 47.1316C99.7975 47.1691 99.2044 47.0865 98.6263 46.8238C98.1308 46.591 97.6278 46.1631 97.29 45.6601C96.5993 44.6616 96.4642 43.2052 97.3575 42.2893C98.1909 41.3959 99.8125 41.0205 100.856 41.9064L100.976 41.7788C100.481 41.2533 99.7149 40.9905 98.9867 41.0431C98.2584 41.0881 97.5302 41.3734 96.9672 41.8839C96.3816 42.3794 96.0438 43.1526 95.9912 43.9184C95.9311 44.6992 96.1639 45.4649 96.5467 46.1256C96.9446 46.7862 97.4777 47.3418 98.2059 47.7397C98.8665 48.0925 99.6698 48.2802 100.436 48.2727C101.975 48.2727 103.499 47.597 104.587 46.5385C105.233 45.9229 105.743 45.1946 106.156 44.4289C106.314 45.8853 106.299 47.3718 106.089 48.8432C105.826 50.63 105.323 52.3867 104.58 54.0459C103.806 55.69 102.808 57.2365 101.584 58.5578C100.376 59.8866 98.9041 60.9902 97.35 61.756C95.7435 62.5668 94.0618 62.9797 92.3201 63.0848C91.5994 63.1298 90.8712 63.0998 90.1579 63.0247C89.3321 61.8461 88.7315 60.5698 88.5288 59.2335C88.176 57.3792 88.5964 55.5098 89.5874 54.3462C90.5633 53.13 92.1324 52.4543 93.3336 52.672C94.6624 52.8447 95.5858 53.8882 95.9612 54.9167C96.0513 55.172 96.1038 55.4498 96.1338 55.675C96.1564 55.9903 96.1639 56.1855 96.1188 56.4482C96.0588 56.9362 95.8711 57.3717 95.6759 57.7395C95.263 58.4903 94.6924 58.9332 94.287 59.1734C93.8891 59.4212 93.6189 59.4963 93.6189 59.4963L93.6639 59.6614C93.6639 59.6614 93.9267 59.6539 94.4297 59.4812C94.9176 59.3086 95.6308 58.9332 96.2765 58.1449C96.9071 57.3566 97.4476 56.1029 97.0723 54.5789C96.8846 53.8657 96.5392 53.1225 95.9537 52.5144C95.6609 52.2066 95.323 51.9288 94.9327 51.6961C94.7224 51.5759 94.5648 51.4934 94.272 51.3883C94.0768 51.3282 93.9342 51.2606 93.6489 51.2156C91.6895 50.8327 89.6474 51.7411 88.3862 53.4002C87.0649 55.1269 87.0199 57.4768 87.6129 59.4512C87.9958 60.7049 88.6415 61.8461 89.3997 62.9121C87.0123 62.4992 84.8127 61.4031 83.3112 59.6764C81.2016 57.2666 80.053 54.0459 80.053 51.1405C80.0455 48.2276 81.5995 45.5775 83.8292 44.4664C86.0139 43.3103 88.6865 44.076 89.9703 45.585C91.3141 47.1241 91.1264 49.2862 90.3306 50.5024C89.5198 51.7786 88.221 52.2216 87.4177 52.3192C87.0048 52.3717 86.6745 52.3492 86.4568 52.3192C86.2391 52.2816 86.1265 52.2666 86.1265 52.2666L86.0814 52.4318C86.0814 52.4318 86.194 52.4618 86.4193 52.5294C86.6445 52.5819 86.9823 52.6495 87.4403 52.642C88.3111 52.6195 89.7751 52.3042 90.8937 50.8928C91.4342 50.1946 91.8096 49.2411 91.8546 48.1676C91.9072 47.1015 91.6144 45.8853 90.8411 44.8718C90.0829 43.8583 88.9192 43.055 87.5454 42.7097C86.194 42.3418 84.5799 42.4244 83.1686 43.0851C81.7421 43.7232 80.5034 44.8493 79.6326 46.2457C78.7317 47.6421 78.2812 49.3688 78.2287 51.0955C78.1686 52.8297 78.5065 54.5864 79.1446 56.238C79.7752 57.9047 80.6836 59.5188 81.9749 60.8926C84.1971 63.3025 87.4853 64.5788 90.7886 64.6613C90.8261 64.6989 90.8561 64.7439 90.8937 64.7815C92.3201 66.343 93.8516 67.822 95.278 69.3835C96.6969 70.9601 98.0858 72.5366 99.362 74.1582C100.436 75.4945 101.397 76.8684 102.237 78.2648C101.96 78.7452 101.689 79.2332 101.427 79.7212C100.391 81.6656 99.3996 83.6776 98.5963 85.7797C97.7705 87.8742 97.1548 90.0589 96.772 92.2586C96.3891 94.4582 96.2314 96.6579 96.2314 98.79C96.2239 99.8561 96.3065 100.907 96.3966 101.928C96.5017 102.972 96.6819 104.008 97.0572 104.999C97.4401 106.005 97.9356 106.913 98.7689 107.664C99.5497 108.339 100.496 108.812 101.494 108.955C101.99 109.03 102.508 109.008 102.981 108.895L103.333 108.79C103.514 108.73 103.536 108.707 103.649 108.662C103.866 108.565 104.114 108.414 104.287 108.287C105.038 107.731 105.473 106.943 105.676 106.185C105.871 105.412 105.826 104.646 105.556 104C105.308 103.385 104.865 102.897 104.437 102.589C103.551 101.958 102.688 101.868 102.147 101.913C101.599 101.966 101.336 102.093 101.336 102.093L101.382 102.258C101.382 102.258 101.652 102.191 102.147 102.236C102.628 102.281 103.371 102.491 103.994 103.114C104.625 103.722 105.045 104.766 104.602 105.839C104.189 106.906 103.063 107.776 101.749 107.446C101.104 107.303 100.451 106.928 99.9401 106.387C99.805 106.245 99.7074 106.125 99.5948 105.975C99.5422 105.9 99.4296 105.757 99.4221 105.727C99.3695 105.644 99.317 105.562 99.2644 105.472C99.0692 105.126 98.9041 104.751 98.7689 104.345C98.2509 102.739 98.1383 100.719 98.0332 98.6999C97.9431 96.6729 98.0332 94.5633 98.2885 92.4387C98.5362 90.3141 98.9416 88.1595 99.4972 86.0349C100.083 83.9178 100.856 81.8383 101.892 79.9314C102.102 79.541 102.327 79.1506 102.56 78.7678C102.613 78.8654 102.68 78.963 102.733 79.0605C103.176 79.9164 103.634 80.7422 103.987 81.5981L104.129 81.9134L104.249 82.2212L104.505 82.8818C104.662 83.3097 104.79 83.7001 104.925 84.113C105.42 85.7872 105.706 87.4238 105.781 88.9478C105.878 90.4718 105.758 91.8832 105.548 93.1069C105.345 94.3456 104.978 95.3816 104.625 96.215C104.46 96.6354 104.279 97.0032 104.107 97.311C103.942 97.6264 103.791 97.8891 103.656 98.0918C103.393 98.5122 103.251 98.7375 103.251 98.7375L103.386 98.8501C103.386 98.8501 103.574 98.6549 103.919 98.2945C104.099 98.1143 104.294 97.8741 104.52 97.5738C104.752 97.2885 105 96.9357 105.248 96.5303C106.269 94.9237 107.282 92.2436 107.342 88.9103C107.365 87.2511 107.177 85.4418 106.674 83.6025C106.547 83.1446 106.396 82.6491 106.246 82.1986L105.991 81.538L105.848 81.1776L105.698 80.8398C105.308 79.9239 104.827 79.0305 104.302 78.1446C104.084 77.7918 103.859 77.4465 103.626 77.1086C104.219 76.2603 104.865 75.4495 105.458 74.6162C106.674 72.9195 107.785 71.0201 108.048 68.9406C108.191 67.9121 108.131 66.861 107.845 65.8775C107.763 65.6073 107.673 65.3745 107.59 65.1869C107.478 64.9316 107.372 64.7139 107.237 64.4962C106.982 64.0608 106.667 63.6854 106.329 63.3551C104.978 62.0413 103.026 61.5007 101.509 62.0413C100.706 62.289 100.128 62.822 99.7599 63.3701C99.3845 63.9181 99.1818 64.4962 99.1068 65.0292C98.9416 66.0953 99.2794 66.9436 99.6173 67.379C100 67.837 100.24 67.9196 100.24 67.9421L100.361 67.8145C100.361 67.8145 100.12 67.6118 99.9176 67.1913C99.7074 66.7634 99.5497 66.0277 99.8275 65.1869C100.083 64.3761 100.766 63.3851 101.824 63.1599C102.928 62.8821 104.302 63.3476 105.285 64.3986C106.306 65.4046 106.704 67.0337 106.532 68.7604C106.381 70.5021 105.691 72.3264 104.662 74.1132C104.219 74.9165 103.724 75.7198 103.236 76.5381C102.418 75.3594 101.524 74.2033 100.541 73.1147C99.1218 71.5231 97.5602 70.0517 95.9462 68.6478C94.4372 67.2889 92.8456 66.0352 91.5093 64.5938C91.8171 64.5863 92.1324 64.5863 92.4402 64.5562C93.4011 64.4662 94.3471 64.2635 95.278 63.9932C96.1714 63.7004 97.1699 63.31 97.9356 62.8596C99.6398 61.8836 101.104 60.6073 102.305 59.1209C103.529 57.6494 104.467 55.9753 105.18 54.2411C105.908 52.5144 106.396 50.6826 106.629 48.8508C106.877 47.0039 106.899 45.1271 106.659 43.3028C106.742 43.0926 106.832 42.8899 106.907 42.6797C107.365 41.2833 107.605 39.8419 107.665 38.3929C107.785 35.4876 107.17 32.6648 106.389 29.9696C105.578 27.2745 104.565 24.7069 103.724 22.1244C103.303 20.8331 102.928 19.5418 102.658 18.2281C102.523 17.5749 102.41 16.9218 102.335 16.2611C102.252 15.608 102.215 14.9773 102.2 14.2641C102.185 12.9804 102.32 11.6215 102.538 10.3153C102.613 9.89484 102.703 9.47442 102.8 9.05401C103.026 8.94891 103.243 8.85131 103.476 8.77624C104.167 8.56603 104.872 8.49096 105.526 8.60357C106.179 8.72369 106.802 8.99396 107.275 9.37683C108.213 10.075 108.566 11.4639 108.213 12.4323C107.92 13.4308 106.884 13.9639 105.984 13.9563C105.526 13.9413 105.15 13.8137 104.812 13.5434C104.557 13.3332 104.317 12.9804 104.204 12.6576C103.957 11.9894 104.062 11.3663 104.227 11.0134C104.384 10.6456 104.557 10.4879 104.557 10.4879L104.445 10.3528C104.445 10.3528 104.399 10.3903 104.302 10.4654C104.212 10.5405 104.077 10.6606 103.942 10.8483C103.664 11.2161 103.394 11.9218 103.536 12.8302C103.611 13.2882 103.791 13.7612 104.227 14.2341C104.595 14.632 105.21 14.9774 105.871 15.0825C106.539 15.1801 107.282 15.12 107.981 14.7747C108.679 14.4443 109.332 13.8062 109.67 13.0104C110.353 11.4264 110.03 9.32428 108.469 7.99548C107.523 7.13212 106.209 6.69669 104.887 6.7042C105.743 6.2988 106.577 5.82583 107.335 5.22523C108.453 4.34687 109.437 3.07061 109.662 1.52409L109.737 1.00607L109.182 0.983551C107.695 0.931 106.149 1.44151 104.993 2.40997C104.069 3.16071 103.363 4.09913 102.8 5.10512C102.815 3.7688 102.38 2.44749 101.509 1.49406C100.18 -0.0674829 98.0783 -0.390306 96.4942 0.292868C95.7059 0.630698 95.0603 1.28384 94.73 1.98203C94.3846 2.68022 94.3246 3.42345 94.4222 4.09161C94.5273 4.75226 94.8726 5.36787 95.2705 5.73573C95.7435 6.17116 96.2164 6.35134 96.6744 6.42641C97.5828 6.56155 98.281 6.2988 98.6563 6.02102C98.844 5.88589 98.9716 5.75075 99.0392 5.66067C99.1143 5.57058 99.1518 5.51803 99.1518 5.51803L99.0167 5.40541C99.0167 5.40541 98.859 5.57808 98.4912 5.73573C98.1383 5.9009 97.5152 5.9985 96.847 5.75825C96.5242 5.64564 96.1714 5.40541 95.9612 5.15016C95.6909 4.81232 95.5633 4.42945 95.5483 3.979C95.5408 3.07812 96.0738 2.0421 97.0723 1.7493C98.0407 1.38895 99.4296 1.74931 100.128 2.68023C100.511 3.1607 100.781 3.77631 100.901 4.42946C101.014 5.0826 100.946 5.78829 100.728 6.47897C100.601 6.89188 100.398 7.29728 100.15 7.68767C99.9176 7.74022 99.6848 7.81529 99.4521 7.86034C98.1008 8.13811 96.757 8.28075 95.3756 8.29576C92.6504 8.29576 89.9628 7.59007 87.3877 6.68168C84.7902 5.78829 82.2602 4.6847 79.5875 3.79883C76.9299 2.93547 74.1071 2.29734 71.2093 2.3574C70.481 2.38743 69.7754 2.43248 69.0321 2.5601C68.6567 2.61266 68.3039 2.68773 67.9736 2.76281L67.7183 2.82286L67.433 2.89794L66.9075 3.0556C66.6823 3.13067 66.4646 3.22075 66.2394 3.31085C64.4 3.07061 62.5157 3.09313 60.6614 3.34087C58.8296 3.5736 56.9977 4.06159 55.271 4.78981C53.5368 5.50301 51.8627 6.44143 50.3912 7.66514C48.9048 8.86632 47.6285 10.3303 46.6525 12.0344C46.2021 12.8077 45.8117 13.8062 45.5189 14.6921C45.2487 15.623 45.046 16.5689 44.9559 17.5299C44.9258 17.8377 44.9258 18.1455 44.9183 18.4608C43.4769 17.117 42.2232 15.5329 40.8643 14.0239C39.4605 12.4098 37.989 10.8483 36.3974 9.42937C35.3089 8.45341 34.1527 7.55252 32.9741 6.73422C33.7924 6.23872 34.5957 5.75075 35.3989 5.30782C37.1857 4.28681 39.01 3.58862 40.7517 3.43847C42.4784 3.26579 44.1 3.6712 45.1135 4.6847C46.1646 5.66817 46.63 7.04202 46.3523 8.14561C46.127 9.20416 45.136 9.88733 44.3252 10.1426C43.4769 10.4204 42.7487 10.2627 42.3208 10.0525C41.9079 9.84979 41.7052 9.58703 41.6977 9.60955L41.57 9.72968C41.57 9.72968 41.6751 9.96991 42.1331 10.3528C42.576 10.6831 43.4169 11.0209 44.4829 10.8633C45.0159 10.7882 45.594 10.5855 46.142 10.2101C46.6901 9.84229 47.2231 9.25671 47.4709 8.46092C48.0189 6.95194 47.4709 5.00001 46.1571 3.64117C45.8267 3.30334 45.4439 2.98802 45.0159 2.73277C44.7982 2.59764 44.5805 2.49253 44.3253 2.37992C44.1376 2.29734 43.8973 2.20725 43.6346 2.12467C42.6511 1.83188 41.6001 1.77933 40.5715 1.92197C38.492 2.18472 36.5926 3.29583 34.896 4.51203C34.0551 5.10512 33.2518 5.75825 32.4035 6.34383C32.0582 6.1111 31.7128 5.88588 31.3675 5.66817C30.4816 5.14265 29.5882 4.66217 28.6723 4.27179L28.3345 4.12164L27.9741 3.979L27.3135 3.72375C26.8555 3.5736 26.3675 3.42345 25.9096 3.29582C24.0703 2.80033 22.261 2.60514 20.6019 2.62766C17.2686 2.68772 14.5884 3.70123 12.9818 4.72224C12.5689 4.96998 12.2236 5.21022 11.9383 5.45045C11.6455 5.66817 11.3978 5.86335 11.2176 6.05104C10.8572 6.40388 10.662 6.58407 10.662 6.58407L10.7747 6.7192C10.7747 6.7192 10.9999 6.57656 11.4203 6.3138C11.623 6.17116 11.8858 6.02101 12.2011 5.86335C12.5089 5.68317 12.8767 5.5105 13.2972 5.34534C14.1305 4.99249 15.1665 4.62463 16.4052 4.42194C17.6364 4.21172 19.0403 4.09911 20.5643 4.18921C22.0883 4.27179 23.7249 4.55707 25.3991 5.04505C25.812 5.18018 26.2024 5.30781 26.6303 5.46546L27.2909 5.72071L27.5987 5.84084L27.9141 5.98348C28.7624 6.33632 29.5957 6.79427 30.4516 7.23721C30.5492 7.28977 30.6468 7.35732 30.7444 7.40987C30.3615 7.64261 29.9711 7.86784 29.5807 8.07805C27.6738 9.11407 25.5943 9.87981 23.4772 10.4729C21.3526 11.0284 19.198 11.4338 17.0734 11.6816C14.9488 11.9368 12.8392 12.0269 10.8122 11.9369C8.79272 11.8242 6.77322 11.7191 5.16663 11.2011C4.76124 11.066 4.38587 10.9008 4.04053 10.7056C3.95044 10.6606 3.87537 10.6005 3.78528 10.548C3.75525 10.533 3.62011 10.4279 3.53753 10.3753C3.38738 10.2627 3.27477 10.1651 3.13213 10.03C2.5991 9.51195 2.21623 8.86632 2.07359 8.22068C1.74326 6.90688 2.61412 5.78828 3.68018 5.36787C4.75373 4.93244 5.80476 5.34535 6.40535 5.97597C7.02847 6.59908 7.23867 7.34231 7.28372 7.82278C7.33627 8.31827 7.26119 8.58855 7.26119 8.58855L7.42636 8.63359C7.42636 8.63359 7.55399 8.37083 7.60655 7.82278C7.65159 7.28225 7.5615 6.41139 6.93088 5.53303C6.62308 5.1051 6.1426 4.66217 5.51949 4.41443C4.87385 4.14416 4.10058 4.09911 3.33483 4.29431C2.57658 4.49701 1.7883 4.93244 1.23275 5.68318C1.09762 5.85585 0.95498 6.10359 0.857385 6.3213C0.812341 6.43391 0.789819 6.45643 0.729761 6.63661L0.624658 6.98946C0.51204 7.46994 0.489518 7.98044 0.564592 8.47593L0.587114 8.50596ZM105.758 3.37841C106.532 2.6577 107.508 2.21477 108.559 2.06461C108.296 3.0631 107.658 3.9715 106.832 4.69221C105.901 5.51802 104.767 6.14114 103.589 6.63662C103.604 6.60659 103.611 6.57657 103.626 6.54654C104.144 5.34535 104.835 4.22675 105.758 3.37091L105.758 3.37841Z" fill="white"/>
</g>
<defs>
<clipPath id="clip0_2008_22159">
<rect width="109.458" height="109" fill="white" transform="translate(110 109) rotate(-180)"/>
</clipPath>
</defs>
</svg>
