<svg width="110" height="109" viewBox="0 0 110 109" fill="none" xmlns="http://www.w3.org/2000/svg">
<path d="M0.587114 8.50589C0.729753 9.50437 1.20273 10.4503 1.90843 11.2311C2.65917 12.0644 3.56757 12.5524 4.57356 12.9428C5.57204 13.3181 6.60806 13.4983 7.64408 13.6034C8.66509 13.6935 9.71612 13.7836 10.7822 13.7686C12.9143 13.7686 15.1139 13.6109 17.3136 13.228C19.5133 12.8452 21.6979 12.2296 23.7925 11.4037C25.8946 10.6004 27.9066 9.60197 29.851 8.57345C30.3465 8.31069 30.8344 8.04042 31.3074 7.76265C32.7038 8.59597 34.0776 9.56443 35.414 10.638C37.0281 11.9067 38.6121 13.3031 40.1887 14.722C41.7502 16.1484 43.2367 17.6799 44.7907 19.1063C44.8282 19.1439 44.8733 19.1739 44.9108 19.2115C44.9934 22.5147 46.2622 25.8029 48.6795 28.0251C50.0534 29.3164 51.6675 30.2248 53.3341 30.8554C54.9858 31.4861 56.75 31.8239 58.4767 31.7713C60.1959 31.7188 61.9226 31.2683 63.3265 30.3675C64.7304 29.4891 65.849 28.2504 66.4871 26.8315C67.1478 25.4201 67.2303 23.7985 66.8625 22.4546C66.5171 21.0883 65.7138 19.9171 64.7003 19.1589C63.6793 18.3931 62.4706 18.0928 61.4046 18.1529C60.331 18.1979 59.3776 18.5733 58.6794 19.1138C57.268 20.2324 56.9527 21.6964 56.9302 22.5673C56.9302 23.0177 56.9902 23.363 57.0428 23.5883C57.1104 23.8135 57.1404 23.9261 57.1404 23.9261L57.3055 23.8811C57.3055 23.8811 57.2905 23.7684 57.253 23.5507C57.2305 23.333 57.208 23.0102 57.253 22.5898C57.3506 21.7865 57.7935 20.4952 59.0698 19.6769C60.286 18.8886 62.4481 18.6934 63.9871 20.0373C65.4886 21.3135 66.2544 23.9937 65.1057 26.1783C63.9946 28.4005 61.337 29.962 58.4317 29.9545C55.5263 29.9545 52.3056 28.8059 49.8957 26.6963C48.169 25.1948 47.073 22.9877 46.66 20.6078C47.7261 21.3661 48.8672 22.0192 50.121 22.3946C52.0954 22.9952 54.4452 22.9501 56.1719 21.6213C57.8311 20.3601 58.7395 18.3106 58.3566 16.3511C58.3115 16.0658 58.2365 15.9307 58.1839 15.728C58.0788 15.4427 57.9962 15.2776 57.8761 15.0674C57.6509 14.677 57.3656 14.3316 57.0578 14.0464C56.4497 13.4533 55.7065 13.1079 54.9933 12.9278C53.4768 12.5524 52.2155 13.0929 51.4273 13.7235C50.639 14.3692 50.2636 15.0824 50.0909 15.5704C49.9258 16.0809 49.9108 16.3361 49.9108 16.3361L50.0759 16.3812C50.0759 16.3812 50.1585 16.1109 50.3987 15.713C50.639 15.3076 51.0819 14.737 51.8326 14.3241C52.208 14.1289 52.6435 13.9412 53.1314 13.8812C53.3942 13.8437 53.5894 13.8512 53.9047 13.8662C54.1299 13.8962 54.4077 13.9488 54.6629 14.0388C55.6915 14.4142 56.735 15.3376 56.9077 16.6664C57.1179 17.8751 56.4422 19.4367 55.2335 20.4126C54.0699 21.4111 52.2005 21.824 50.3462 21.4712C49.0174 21.2685 47.7336 20.6604 46.5549 19.8421C46.4799 19.1289 46.4423 18.4082 46.4949 17.6799C46.6 15.9382 47.0129 14.2566 47.8237 12.65C48.5895 11.0959 49.693 9.6245 51.0219 8.4158C52.3432 7.1921 53.8897 6.19361 55.5338 5.42034C57.2004 4.67711 58.9497 4.17412 60.7364 3.91137C62.2154 3.70115 63.7094 3.67862 65.1733 3.84378C64.4151 4.24919 63.7019 4.73717 63.0863 5.3753C62.0127 6.45637 61.337 7.96535 61.307 9.51188C61.292 10.2776 61.4647 11.0884 61.825 11.7791C62.2004 12.4848 62.7634 13.0479 63.4241 13.4533C64.0847 13.8437 64.858 14.0839 65.6388 14.0313C65.834 14.0163 66.0292 13.9938 66.2319 13.9412C66.4421 13.8812 66.5397 13.8587 66.7649 13.7536C67.1327 13.5959 67.4405 13.3407 67.6958 13.0629C68.2063 12.4998 68.4991 11.7641 68.5441 11.0284C68.6042 10.3002 68.3189 9.51189 67.8084 9.03892L67.6733 9.15152C68.5591 10.2176 68.1688 11.8242 67.2754 12.65C66.367 13.5283 64.903 13.3857 63.9121 12.6875C62.8685 11.9968 62.3505 10.7881 62.4556 9.57194C62.5532 8.34823 63.1538 7.1921 64.0472 6.33625C64.9331 5.4804 66.1192 4.89482 67.3505 4.52697L67.8159 4.39934L67.8535 4.39934C68.9345 4.69963 69.9705 5.11255 70.924 5.66059C73.8744 7.29721 76.0365 9.95482 76.9524 12.7851C77.4179 14.189 77.553 15.6605 77.3353 16.9667C77.1176 18.3106 76.4795 19.4967 75.5936 20.3526C73.8744 22.1318 71.0366 22.0643 69.6027 20.758C68.8745 20.1198 68.4916 19.1814 68.4165 18.3256C68.3414 17.4622 68.6042 16.6514 69.0396 16.0959C69.978 14.9472 71.3744 14.7746 72.1477 14.9172C72.5606 14.9773 72.8459 15.1199 73.0411 15.21C73.2288 15.3301 73.3339 15.3902 73.3339 15.3902L73.439 15.2475C73.439 15.2475 73.1312 14.8572 72.2378 14.5719C71.7948 14.4442 71.2168 14.3842 70.5486 14.5118C69.8955 14.6394 69.1297 14.9472 68.4991 15.6079C67.1928 16.9067 67.0126 19.6694 68.8294 21.5763C69.7303 22.4997 71.1042 23.0702 72.5306 23.0552C73.957 23.0778 75.496 22.4997 76.6296 21.4261C77.7707 20.3676 78.5815 18.8736 78.8743 17.2595C79.1821 15.6079 78.9794 13.8962 78.4164 12.2896C77.2828 9.04642 74.6026 6.36628 71.3744 4.82727C70.7663 4.54199 70.1282 4.30925 69.4901 4.09905C70.0606 4.02398 70.6612 3.98644 71.2543 3.97142C73.9044 3.95641 76.562 4.50445 79.1821 5.25519C81.8097 5.9834 84.4223 6.92933 87.1175 7.67257C89.8051 8.4158 92.5828 8.97135 95.4131 8.92631C96.802 8.90378 98.2134 8.70109 99.5797 8.46085C99.6098 8.46085 99.6398 8.44584 99.6773 8.43833C99.1518 9.05394 98.4987 9.59447 97.7554 9.99235C96.3065 10.7731 94.5573 11.171 92.7705 11.2611C90.9763 11.3587 89.1445 11.0884 87.3051 10.9984C85.4808 10.9083 83.5364 11.1785 81.9749 12.2221C80.4434 13.2356 79.2572 14.8947 79.1146 16.7415C78.9719 18.5958 79.7977 20.2625 80.9389 21.3435C82.1025 22.4396 83.7091 22.86 84.9553 22.6048C86.2166 22.3871 87.1475 21.7339 87.7256 21.0808C88.3036 20.4126 88.5589 19.7745 88.6565 19.3241C88.7541 18.8736 88.724 18.6559 88.7391 18.6484L88.5664 18.6109C88.5664 18.6109 88.5138 18.8511 88.3186 19.219C88.146 19.5793 87.8081 20.0973 87.215 20.5553C86.6295 20.9982 85.7886 21.4036 84.8127 21.4562C83.8442 21.5162 82.7782 21.1484 81.9674 20.285C81.1416 19.4517 80.5935 18.1604 80.6386 16.8391C80.6686 15.5178 81.3142 14.0238 82.5379 12.9728C83.146 12.4473 83.8592 12.0043 84.6926 11.7866C85.4959 11.5464 86.3967 11.4938 87.2751 11.5314C89.0619 11.5914 90.8561 12.0944 92.748 12.2146C94.6249 12.3572 96.6293 12.2221 98.4386 11.3737C98.4987 11.3437 98.5587 11.3137 98.6113 11.2836C97.8155 13.0554 97.6804 15.0073 97.823 16.8391C97.9431 18.731 98.4461 20.5328 98.5062 22.312C98.5437 23.1979 98.4912 24.0913 98.2509 24.8946C98.0257 25.7279 97.5903 26.4411 97.0648 27.0492C96.0062 28.2729 94.5198 28.9185 93.1984 28.9486C91.8696 28.9936 90.5859 28.438 89.7526 27.6197C88.8892 26.8089 88.5288 25.7429 88.5814 24.7744C88.6339 23.7985 89.0393 22.9576 89.4823 22.3721C89.9327 21.779 90.4582 21.4411 90.8186 21.2685C91.179 21.0808 91.4342 21.0357 91.4267 21.0207L91.3892 20.8481C91.3892 20.8481 91.1639 20.8331 90.7135 20.9306C90.2631 21.0282 89.6249 21.2835 88.9568 21.8616C88.3111 22.4396 87.6505 23.363 87.4328 24.6318C87.1775 25.878 87.5904 27.4846 88.694 28.6483C89.7751 29.7969 91.4417 30.6152 93.296 30.4726C95.1504 30.3299 96.8095 29.1437 97.8155 27.6122C98.8665 26.0582 99.1368 24.1063 99.0392 22.282C98.9491 20.4427 98.6789 18.6109 98.7765 16.8166C98.8665 15.0223 99.2644 13.2806 100.045 11.8317C100.3 11.3587 100.616 10.9233 100.961 10.5329C100.728 11.7866 100.586 13.0404 100.563 14.3617C100.563 15.0298 100.586 15.7806 100.661 16.4938C100.721 17.207 100.833 17.9127 100.961 18.6109C101.216 20.0147 101.584 21.3811 101.99 22.7174C102.8 25.3976 103.829 27.9651 104.61 30.5551C105.421 33.1302 105.984 35.7728 105.984 38.4004C105.984 38.9259 105.946 39.4514 105.886 39.9694C105.683 39.3688 105.466 38.7757 105.195 38.1977C103.656 34.9695 100.976 32.2893 97.7329 31.1557C96.1188 30.5927 94.4146 30.39 92.763 30.6978C91.1489 30.9906 89.655 31.8014 88.5964 32.9425C87.5229 34.0761 86.9523 35.6151 86.9673 37.0415C86.9523 38.4679 87.5229 39.8343 88.4463 40.7427C90.3531 42.5595 93.1159 42.3718 94.4146 41.073C95.0753 40.4424 95.3831 39.6766 95.5107 39.0235C95.6384 38.3628 95.5858 37.7773 95.4507 37.3343C95.1729 36.4409 94.745 36.1331 94.775 36.1331L94.6324 36.2382C94.6324 36.2382 94.6924 36.3358 94.8125 36.531C94.9026 36.7262 95.0453 37.004 95.1053 37.4244C95.248 38.1977 95.0753 39.6016 93.9267 40.5325C93.3711 40.9679 92.5603 41.2307 91.697 41.1556C90.8411 41.0805 89.9027 40.6976 89.2646 39.9694C87.9508 38.5355 87.8907 35.6977 89.67 33.9785C90.5258 33.0926 91.712 32.462 93.0558 32.2368C94.3621 32.0116 95.8335 32.1467 97.2374 32.6197C100.06 33.5281 102.718 35.6902 104.362 38.6481C104.895 39.579 105.3 40.5925 105.608 41.6436C105.556 41.8538 105.511 42.0715 105.451 42.2817C105.083 43.5129 104.497 44.6766 103.634 45.5699C102.77 46.4558 101.629 47.0414 100.406 47.1315C99.7975 47.169 99.2044 47.0864 98.6263 46.8237C98.1308 46.591 97.6278 46.163 97.29 45.66C96.5993 44.6615 96.4642 43.2051 97.3575 42.2892C98.1909 41.3958 99.8125 41.0205 100.856 41.9063L100.976 41.7787C100.481 41.2532 99.7149 40.9904 98.9867 41.043C98.2584 41.088 97.5302 41.3733 96.9672 41.8838C96.3816 42.3793 96.0438 43.1526 95.9912 43.9183C95.9311 44.6991 96.1639 45.4648 96.5467 46.1255C96.9446 46.7861 97.4777 47.3417 98.2059 47.7396C98.8665 48.0924 99.6698 48.2801 100.436 48.2726C101.975 48.2726 103.499 47.5969 104.587 46.5384C105.233 45.9228 105.743 45.1946 106.156 44.4288C106.314 45.8853 106.299 47.3717 106.089 48.8432C105.826 50.6299 105.323 52.3867 104.58 54.0458C103.806 55.6899 102.808 57.2364 101.584 58.5577C100.376 59.8866 98.9041 60.9901 97.35 61.7559C95.7435 62.5667 94.0618 62.9796 92.3201 63.0847C91.5994 63.1298 90.8712 63.0997 90.1579 63.0247C89.3321 61.846 88.7315 60.5697 88.5288 59.2334C88.176 57.3791 88.5964 55.5097 89.5874 54.3461C90.5633 53.1299 92.1324 52.4542 93.3336 52.6719C94.6624 52.8446 95.5858 53.8881 95.9612 54.9167C96.0513 55.1719 96.1038 55.4497 96.1338 55.6749C96.1564 55.9902 96.1639 56.1854 96.1188 56.4482C96.0588 56.9362 95.8711 57.3716 95.6759 57.7394C95.263 58.4902 94.6924 58.9331 94.287 59.1734C93.8891 59.4211 93.6189 59.4962 93.6189 59.4962L93.6639 59.6613C93.6639 59.6613 93.9267 59.6538 94.4297 59.4812C94.9176 59.3085 95.6308 58.9331 96.2765 58.1448C96.9071 57.3566 97.4476 56.1028 97.0723 54.5788C96.8846 53.8656 96.5392 53.1224 95.9537 52.5143C95.6609 52.2065 95.323 51.9287 94.9327 51.696C94.7224 51.5759 94.5648 51.4933 94.272 51.3882C94.0768 51.3281 93.9342 51.2606 93.6489 51.2155C91.6895 50.8326 89.6474 51.741 88.3862 53.4002C87.0649 55.1269 87.0199 57.4767 87.6129 59.4511C87.9958 60.7049 88.6415 61.846 89.3997 62.912C87.0123 62.4991 84.8127 61.4031 83.3112 59.6764C81.2016 57.2665 80.053 54.0458 80.053 51.1404C80.0455 48.2276 81.5995 45.5775 83.8292 44.4664C86.0139 43.3102 88.6865 44.076 89.9703 45.585C91.3141 47.124 91.1264 49.2861 90.3306 50.5023C89.5198 51.7786 88.221 52.2215 87.4177 52.3191C87.0048 52.3717 86.6745 52.3491 86.4568 52.3191C86.2391 52.2816 86.1265 52.2665 86.1265 52.2665L86.0814 52.4317C86.0814 52.4317 86.194 52.4617 86.4193 52.5293C86.6445 52.5819 86.9823 52.6494 87.4403 52.6419C88.3111 52.6194 89.7751 52.3041 90.8937 50.8927C91.4342 50.1945 91.8096 49.2411 91.8546 48.1675C91.9072 47.1015 91.6144 45.8853 90.8411 44.8718C90.0829 43.8583 88.9192 43.055 87.5454 42.7096C86.194 42.3418 84.5799 42.4243 83.1686 43.085C81.7421 43.7231 80.5034 44.8492 79.6326 46.2456C78.7317 47.642 78.2812 49.3687 78.2287 51.0954C78.1686 52.8296 78.5065 54.5863 79.1446 56.238C79.7752 57.9046 80.6836 59.5187 81.9749 60.8926C84.1971 63.3024 87.4853 64.5787 90.7886 64.6613C90.8261 64.6988 90.8561 64.7439 90.8937 64.7814C92.3201 66.3429 93.8516 67.8219 95.278 69.3834C96.6969 70.96 98.0858 72.5365 99.362 74.1581C100.436 75.4945 101.397 76.8683 102.237 78.2647C101.96 78.7452 101.689 79.2331 101.427 79.7211C100.391 81.6655 99.3996 83.6775 98.5963 85.7796C97.7705 87.8742 97.1548 90.0588 96.772 92.2585C96.3891 94.4582 96.2314 96.6578 96.2314 98.7899C96.2239 99.856 96.3065 100.907 96.3966 101.928C96.5017 102.972 96.6819 104.008 97.0572 104.999C97.4401 106.005 97.9356 106.913 98.7689 107.664C99.5497 108.339 100.496 108.812 101.494 108.955C101.99 109.03 102.508 109.008 102.981 108.895L103.333 108.79C103.514 108.73 103.536 108.707 103.649 108.662C103.866 108.565 104.114 108.414 104.287 108.287C105.038 107.731 105.473 106.943 105.676 106.185C105.871 105.411 105.826 104.646 105.556 104C105.308 103.384 104.865 102.896 104.437 102.589C103.551 101.958 102.688 101.868 102.147 101.913C101.599 101.966 101.336 102.093 101.336 102.093L101.382 102.258C101.382 102.258 101.652 102.191 102.147 102.236C102.628 102.281 103.371 102.491 103.994 103.114C104.625 103.722 105.045 104.766 104.602 105.839C104.189 106.905 103.063 107.776 101.749 107.446C101.104 107.303 100.451 106.928 99.9401 106.387C99.805 106.245 99.7074 106.125 99.5948 105.975C99.5422 105.899 99.4296 105.757 99.4221 105.727C99.3695 105.644 99.317 105.562 99.2644 105.472C99.0692 105.126 98.9041 104.751 98.7689 104.345C98.2509 102.739 98.1383 100.719 98.0332 98.6998C97.9431 96.6728 98.0332 94.5633 98.2885 92.4387C98.5362 90.3141 98.9416 88.1594 99.4972 86.0349C100.083 83.9178 100.856 81.8382 101.892 79.9313C102.102 79.5409 102.327 79.1506 102.56 78.7677C102.613 78.8653 102.68 78.9629 102.733 79.0605C103.176 79.9163 103.634 80.7421 103.987 81.598L104.129 81.9133L104.249 82.2211L104.505 82.8817C104.662 83.3097 104.79 83.7 104.925 84.113C105.42 85.7871 105.706 87.4237 105.781 88.9477C105.878 90.4717 105.758 91.8831 105.548 93.1068C105.345 94.3455 104.978 95.3816 104.625 96.2149C104.46 96.6353 104.279 97.0032 104.107 97.311C103.942 97.6263 103.791 97.889 103.656 98.0917C103.393 98.5122 103.251 98.7374 103.251 98.7374L103.386 98.85C103.386 98.85 103.574 98.6548 103.919 98.2944C104.099 98.1143 104.294 97.874 104.52 97.5737C104.752 97.2884 105 96.9356 105.248 96.5302C106.269 94.9236 107.282 92.2435 107.342 88.9102C107.365 87.2511 107.177 85.4418 106.674 83.6024C106.547 83.1445 106.396 82.649 106.246 82.1986L105.991 81.5379L105.848 81.1776L105.698 80.8397C105.308 79.9238 104.827 79.0304 104.302 78.1446C104.084 77.7917 103.859 77.4464 103.626 77.1085C104.219 76.2602 104.865 75.4494 105.458 74.6161C106.674 72.9194 107.785 71.02 108.048 68.9405C108.191 67.912 108.131 66.8609 107.845 65.8775C107.763 65.6072 107.673 65.3745 107.59 65.1868C107.478 64.9315 107.372 64.7138 107.237 64.4961C106.982 64.0607 106.667 63.6853 106.329 63.355C104.978 62.0412 103.026 61.5007 101.509 62.0412C100.706 62.2889 100.128 62.822 99.7599 63.37C99.3845 63.918 99.1818 64.4961 99.1068 65.0291C98.9416 66.0952 99.2794 66.9435 99.6173 67.379C100 67.8369 100.24 67.9195 100.24 67.942L100.361 67.8144C100.361 67.8144 100.12 67.6117 99.9176 67.1913C99.7074 66.7633 99.5497 66.0276 99.8275 65.1868C100.083 64.376 100.766 63.385 101.824 63.1598C102.928 62.882 104.302 63.3475 105.285 64.3985C106.306 65.4045 106.704 67.0336 106.532 68.7603C106.381 70.502 105.691 72.3263 104.662 74.1131C104.219 74.9164 103.724 75.7197 103.236 76.538C102.418 75.3593 101.524 74.2032 100.541 73.1146C99.1218 71.523 97.5602 70.0516 95.9462 68.6477C94.4372 67.2889 92.8456 66.0351 91.5093 64.5937C91.8171 64.5862 92.1324 64.5862 92.4402 64.5562C93.4011 64.4661 94.3471 64.2634 95.278 63.9931C96.1714 63.7003 97.1699 63.3099 97.9356 62.8595C99.6398 61.8835 101.104 60.6073 102.305 59.1208C103.529 57.6494 104.467 55.9752 105.18 54.241C105.908 52.5143 106.396 50.6825 106.629 48.8507C106.877 47.0039 106.899 45.127 106.659 43.3027C106.742 43.0925 106.832 42.8898 106.907 42.6796C107.365 41.2832 107.605 39.8418 107.665 38.3929C107.785 35.4875 107.17 32.6647 106.389 29.9696C105.578 27.2744 104.565 24.7069 103.724 22.1243C103.303 20.8331 102.928 19.5418 102.658 18.228C102.523 17.5748 102.41 16.9217 102.335 16.261C102.252 15.6079 102.215 14.9773 102.2 14.2641C102.185 12.9803 102.32 11.6215 102.538 10.3152C102.613 9.89477 102.703 9.47434 102.8 9.05393C103.026 8.94883 103.243 8.85123 103.476 8.77616C104.167 8.56596 104.872 8.49088 105.526 8.60349C106.179 8.72361 106.802 8.99388 107.275 9.37675C108.213 10.0749 108.566 11.4638 108.213 12.4323C107.92 13.4307 106.884 13.9638 105.984 13.9563C105.526 13.9413 105.15 13.8136 104.812 13.5434C104.557 13.3332 104.317 12.9803 104.204 12.6575C103.957 11.9893 104.062 11.3662 104.227 11.0134C104.384 10.6455 104.557 10.4878 104.557 10.4878L104.445 10.3527C104.445 10.3527 104.399 10.3903 104.302 10.4653C104.212 10.5404 104.077 10.6605 103.942 10.8482C103.664 11.2161 103.394 11.9218 103.536 12.8302C103.611 13.2881 103.791 13.7611 104.227 14.234C104.595 14.6319 105.21 14.9773 105.871 15.0824C106.539 15.18 107.282 15.1199 107.981 14.7746C108.679 14.4443 109.332 13.8061 109.67 13.0103C110.353 11.4263 110.03 9.3242 108.469 7.9954C107.523 7.13204 106.209 6.69662 104.887 6.70412C105.743 6.29872 106.577 5.82575 107.335 5.22516C108.453 4.34679 109.437 3.07053 109.662 1.52401L109.737 1.006L109.182 0.983475C107.695 0.930923 106.149 1.44143 104.993 2.40989C104.069 3.16063 103.363 4.09905 102.8 5.10504C102.815 3.76872 102.38 2.44742 101.509 1.49398C100.18 -0.0675591 98.0783 -0.390382 96.4942 0.292792C95.7059 0.630622 95.0603 1.28377 94.73 1.98196C94.3846 2.68014 94.3246 3.42338 94.4222 4.09154C94.5273 4.75219 94.8726 5.3678 95.2705 5.73566C95.7435 6.17109 96.2164 6.35126 96.6744 6.42634C97.5828 6.56147 98.281 6.29872 98.6563 6.02094C98.844 5.88581 98.9716 5.75068 99.0392 5.66059C99.1143 5.5705 99.1518 5.51795 99.1518 5.51795L99.0167 5.40533C99.0167 5.40533 98.859 5.578 98.4912 5.73566C98.1383 5.90082 97.5152 5.99842 96.847 5.75818C96.5242 5.64557 96.1714 5.40533 95.9612 5.15008C95.6909 4.81225 95.5633 4.42937 95.5483 3.97893C95.5408 3.07804 96.0738 2.04202 97.0723 1.74923C98.0407 1.38888 99.4296 1.74924 100.128 2.68015C100.511 3.16063 100.781 3.77624 100.901 4.42938C101.014 5.08253 100.946 5.78821 100.728 6.4789C100.601 6.89181 100.398 7.2972 100.15 7.68759C99.9176 7.74014 99.6848 7.81522 99.4521 7.86026C98.1008 8.13803 96.757 8.28067 95.3756 8.29568C92.6504 8.29568 89.9628 7.58999 87.3877 6.6816C84.7902 5.78821 82.2602 4.68462 79.5875 3.79875C76.9299 2.93539 74.1071 2.29727 71.2093 2.35733C70.481 2.38736 69.7754 2.4324 69.0321 2.56002C68.6567 2.61258 68.3039 2.68766 67.9736 2.76273L67.7183 2.82279L67.433 2.89786L66.9075 3.05552C66.6823 3.1306 66.4646 3.22068 66.2394 3.31077C64.4 3.07053 62.5157 3.09305 60.6614 3.34079C58.8296 3.57352 56.9977 4.06151 55.271 4.78973C53.5368 5.50293 51.8627 6.44136 50.3912 7.66506C48.9048 8.86624 47.6285 10.3302 46.6525 12.0344C46.2021 12.8076 45.8117 13.8061 45.5189 14.692C45.2487 15.6229 45.046 16.5688 44.9559 17.5298C44.9258 17.8376 44.9258 18.1454 44.9183 18.4607C43.4769 17.1169 42.2232 15.5328 40.8643 14.0238C39.4605 12.4097 37.989 10.8482 36.3974 9.42929C35.3089 8.45333 34.1527 7.55245 32.9741 6.73414C33.7924 6.23865 34.5957 5.75067 35.3989 5.30774C37.1857 4.28673 39.01 3.58854 40.7517 3.43839C42.4784 3.26572 44.1 3.67112 45.1135 4.68463C46.1646 5.66809 46.63 7.04195 46.3523 8.14553C46.127 9.20408 45.136 9.88725 44.3252 10.1425C43.4769 10.4203 42.7487 10.2626 42.3208 10.0524C41.9079 9.84971 41.7052 9.58695 41.6977 9.60948L41.57 9.7296C41.57 9.7296 41.6751 9.96984 42.1331 10.3527C42.576 10.683 43.4169 11.0209 44.4829 10.8632C45.0159 10.7881 45.594 10.5854 46.142 10.2101C46.6901 9.84221 47.2231 9.25663 47.4709 8.46085C48.0189 6.95186 47.4709 4.99993 46.1571 3.64109C45.8267 3.30326 45.4439 2.98795 45.0159 2.73269C44.7982 2.59756 44.5805 2.49246 44.3253 2.37985C44.1376 2.29727 43.8973 2.20718 43.6346 2.1246C42.6511 1.8318 41.6001 1.77925 40.5715 1.92189C38.492 2.18465 36.5926 3.29575 34.896 4.51196C34.0551 5.10504 33.2518 5.75817 32.4035 6.34375C32.0582 6.11102 31.7128 5.8858 31.3675 5.66809C30.4816 5.14257 29.5882 4.66209 28.6723 4.27171L28.3345 4.12157L27.9741 3.97892L27.3135 3.72367C26.8555 3.57352 26.3675 3.42337 25.9096 3.29575C24.0703 2.80025 22.261 2.60506 20.6019 2.62759C17.2686 2.68764 14.5884 3.70116 12.9818 4.72216C12.5689 4.9699 12.2236 5.21014 11.9383 5.45038C11.6455 5.66809 11.3978 5.86327 11.2176 6.05096C10.8572 6.40381 10.662 6.58399 10.662 6.58399L10.7747 6.71912C10.7747 6.71912 10.9999 6.57648 11.4203 6.31373C11.623 6.17108 11.8858 6.02093 12.2011 5.86327C12.5089 5.6831 12.8767 5.51043 13.2972 5.34526C14.1305 4.99242 15.1665 4.62456 16.4052 4.42186C17.6364 4.21165 19.0403 4.09904 20.5643 4.18913C22.0883 4.27171 23.7249 4.55699 25.3991 5.04498C25.812 5.18011 26.2024 5.30773 26.6303 5.46539L27.2909 5.72063L27.5987 5.84076L27.9141 5.9834C28.7624 6.33624 29.5957 6.7942 30.4516 7.23714C30.5492 7.28969 30.6468 7.35725 30.7444 7.4098C30.3615 7.64253 29.9711 7.86776 29.5807 8.07797C27.6738 9.11399 25.5943 9.87974 23.4772 10.4728C21.3526 11.0284 19.198 11.4338 17.0734 11.6815C14.9488 11.9368 12.8392 12.0269 10.8122 11.9368C8.79272 11.8242 6.77322 11.7191 5.16663 11.201C4.76124 11.0659 4.38587 10.9008 4.04053 10.7056C3.95044 10.6605 3.87537 10.6005 3.78528 10.5479C3.75525 10.5329 3.62011 10.4278 3.53753 10.3752C3.38738 10.2626 3.27477 10.165 3.13213 10.0299C2.5991 9.51188 2.21623 8.86624 2.07359 8.2206C1.74326 6.90681 2.61412 5.78821 3.68018 5.3678C4.75373 4.93236 5.80476 5.34527 6.40535 5.97589C7.02847 6.59901 7.23867 7.34224 7.28372 7.82271C7.33627 8.3182 7.26119 8.58847 7.26119 8.58847L7.42636 8.63351C7.42636 8.63351 7.55399 8.37075 7.60655 7.82271C7.65159 7.28217 7.5615 6.41131 6.93088 5.53295C6.62308 5.10502 6.1426 4.66209 5.51949 4.41435C4.87385 4.14409 4.10058 4.09904 3.33483 4.29423C2.57658 4.49693 1.7883 4.93236 1.23275 5.6831C1.09762 5.85577 0.95498 6.10351 0.857385 6.32123C0.812341 6.43384 0.789819 6.45636 0.729761 6.63653L0.624658 6.98939C0.51204 7.46986 0.489518 7.98037 0.564592 8.47586L0.587114 8.50589ZM105.758 3.37833C106.532 2.65762 107.508 2.21469 108.559 2.06454C108.296 3.06303 107.658 3.97142 106.832 4.69213C105.901 5.51794 104.767 6.14106 103.589 6.63654C103.604 6.60651 103.611 6.57649 103.626 6.54646C104.144 5.34528 104.835 4.22668 105.758 3.37083L105.758 3.37833Z" fill="url(#paint0_linear_1405_17555)"/>
<defs>
<linearGradient id="paint0_linear_1405_17555" x1="110" y1="54.5038" x2="0.542058" y2="54.5037" gradientUnits="userSpaceOnUse">
<stop stop-color="#A47A3F"/>
<stop offset="0.41" stop-color="#E6B672"/>
<stop offset="0.53" stop-color="#FAC982"/>
<stop offset="0.65" stop-color="#E9B772"/>
<stop offset="0.89" stop-color="#BE8A4B"/>
<stop offset="1" stop-color="#A87338"/>
</linearGradient>
</defs>
</svg>
