<svg width="109" height="109" viewBox="0 0 109 109" fill="none" xmlns="http://www.w3.org/2000/svg">
<path d="M0.105179 102.017L0.210282 102.369C0.270341 102.548 0.292863 102.571 0.337906 102.683C0.435502 102.9 0.585648 103.146 0.713273 103.318C1.26882 104.066 2.0571 104.499 2.81535 104.701C3.58862 104.896 4.35437 104.851 5.00001 104.582C5.61562 104.335 6.1036 103.894 6.4114 103.468C7.04202 102.586 7.13211 101.726 7.08707 101.188C7.03452 100.642 6.90688 100.38 6.90688 100.38L6.74172 100.425C6.74172 100.425 6.8093 100.694 6.76425 101.188C6.71921 101.666 6.50899 102.406 5.88587 103.027C5.27778 103.655 4.23425 104.073 3.1607 103.632C2.09464 103.221 1.22379 102.1 1.55411 100.791C1.69676 100.148 2.07211 99.498 2.61265 98.9897C2.75529 98.8551 2.87541 98.7579 3.02556 98.6458C3.10063 98.5934 3.24327 98.4813 3.2733 98.4738C3.35588 98.4215 3.43847 98.3691 3.52105 98.3168C3.86639 98.1224 4.24176 97.958 4.64716 97.8234C6.25375 97.3076 8.27324 97.1954 10.2927 97.0833C12.3197 96.9936 14.4293 97.0833 16.5539 97.3375C18.6785 97.5842 20.8331 97.9879 22.9577 98.5411C25.0673 99.1242 27.1544 99.8943 29.0612 100.926C29.4516 101.135 29.842 101.36 30.2249 101.591C30.1273 101.644 30.0297 101.711 29.9321 101.763C29.0762 102.204 28.2504 102.66 27.3946 103.012L27.0793 103.154L26.7715 103.273L26.1108 103.528C25.6829 103.685 25.2925 103.812 24.8796 103.946C23.2055 104.44 21.5688 104.724 20.0448 104.799C18.5208 104.896 17.1095 104.776 15.8857 104.567C14.647 104.365 13.611 103.999 12.7777 103.647C12.3573 103.483 11.9894 103.303 11.6816 103.131C11.3663 102.974 11.1035 102.817 10.9008 102.683C10.4804 102.421 10.2552 102.279 10.2552 102.279L10.1426 102.414C10.1426 102.414 10.3378 102.601 10.6981 102.944C10.8783 103.124 11.1185 103.318 11.4188 103.543C11.7041 103.774 12.057 104.021 12.4624 104.268C14.069 105.284 16.7416 106.294 20.0824 106.354C21.7415 106.376 23.5508 106.189 25.3901 105.688C25.8481 105.561 26.3436 105.412 26.794 105.262L27.4547 105.008L27.815 104.866L28.1528 104.716C29.0687 104.328 29.9621 103.849 30.848 103.326C31.1933 103.109 31.5462 102.885 31.884 102.653C32.7324 103.243 33.5432 103.886 34.3765 104.477C36.0732 105.688 37.9725 106.795 40.0521 107.056C41.0806 107.198 42.1316 107.138 43.1151 106.854C43.3854 106.772 43.6181 106.682 43.8058 106.6C44.061 106.488 44.2787 106.383 44.4965 106.249C44.9319 105.995 45.3073 105.681 45.6376 105.344C46.9514 103.999 47.4919 102.055 46.9514 100.545C46.7036 99.7447 46.1706 99.1691 45.6226 98.8028C45.0745 98.429 44.4965 98.2271 43.9634 98.1523C42.8974 97.9879 42.049 98.3243 41.6136 98.6607C41.1557 99.042 41.0731 99.2812 41.0506 99.2737L41.1782 99.3934C41.1782 99.3934 41.3884 99.1541 41.8013 98.9523C42.2292 98.7429 42.965 98.586 43.8058 98.8626C44.6166 99.1167 45.6076 99.7971 45.8328 100.851C46.1106 101.95 45.6451 103.318 44.5941 104.298C43.5881 105.314 41.959 105.711 40.2323 105.539C38.4905 105.389 36.6662 104.701 34.8795 103.677C34.0762 103.236 33.2729 102.743 32.4546 102.257C33.6332 101.442 34.7894 100.545 35.878 99.5728C37.4695 98.1598 38.941 96.6048 40.3449 94.9975C41.7037 93.4948 42.9574 91.9099 44.3989 90.5792C44.4064 90.8857 44.4064 91.1997 44.4364 91.5062C44.5265 92.4631 44.7292 93.4051 44.9995 94.3321C45.2922 95.2218 45.6826 96.2161 46.1331 96.9786C47.109 98.6757 48.3853 100.133 49.8718 101.33C51.3432 102.548 53.0174 103.483 54.7516 104.193C56.4783 104.918 58.3101 105.404 60.1419 105.636C61.9887 105.883 63.8656 105.905 65.6899 105.666C65.9001 105.748 66.1028 105.838 66.313 105.912C67.7094 106.368 69.1508 106.608 70.5997 106.668C73.5051 106.787 76.3279 106.174 79.023 105.397C81.7182 104.589 84.2857 103.58 86.8682 102.743C88.1595 102.324 89.4508 101.95 90.7646 101.681C91.4177 101.546 92.0709 101.434 92.7315 101.36C93.3847 101.277 94.0153 101.24 94.7285 101.225C96.0123 101.21 97.3711 101.345 98.6774 101.561C99.0978 101.636 99.5182 101.726 99.9386 101.823C100.044 102.047 100.141 102.264 100.216 102.496C100.427 103.184 100.502 103.886 100.389 104.537C100.269 105.187 99.9987 105.808 99.6158 106.279C98.9176 107.213 97.5288 107.565 96.5603 107.213C95.5618 106.922 95.0288 105.89 95.0363 104.993C95.0513 104.537 95.1789 104.163 95.4492 103.827C95.6594 103.572 96.0123 103.333 96.3351 103.221C97.0032 102.974 97.6264 103.079 97.9792 103.244C98.3471 103.4 98.5047 103.572 98.5047 103.572L98.6399 103.46C98.6399 103.46 98.6023 103.415 98.5272 103.318C98.4522 103.229 98.3321 103.094 98.1444 102.959C97.7765 102.683 97.0708 102.414 96.1624 102.556C95.7045 102.63 95.2315 102.81 94.7585 103.244C94.3606 103.61 94.0153 104.223 93.9102 104.881C93.8126 105.546 93.8727 106.286 94.218 106.981C94.5483 107.677 95.1865 108.327 95.9822 108.664C97.5288 109.344 99.6308 109.022 100.967 107.467C101.831 106.525 102.266 105.217 102.258 103.901C102.664 104.754 103.137 105.583 103.737 106.339C104.616 107.452 105.885 108.424 107.431 108.656L107.949 108.731L107.972 108.178C108.024 106.697 107.514 105.157 106.545 104.006C105.794 103.087 104.856 102.384 103.85 101.823C105.186 101.838 106.508 101.404 107.461 100.537C109.023 99.2139 109.345 97.1207 108.662 95.5432C108.324 94.7582 107.671 94.1153 106.973 93.7864C106.275 93.4425 105.532 93.3827 104.863 93.4799C104.203 93.5845 103.587 93.9284 103.219 94.3246C102.784 94.7956 102.604 95.2666 102.529 95.7227C102.394 96.6272 102.656 97.3225 102.934 97.6963C103.069 97.8832 103.204 98.0103 103.294 98.0776C103.385 98.1524 103.437 98.1897 103.437 98.1897L103.55 98.0552C103.55 98.0552 103.377 97.8982 103.219 97.5318C103.054 97.1805 102.957 96.56 103.197 95.8946C103.309 95.5731 103.55 95.2218 103.805 95.0124C104.143 94.7433 104.526 94.6162 104.976 94.6013C105.877 94.5938 106.913 95.1171 107.206 96.1189C107.566 97.0833 107.206 98.4663 106.267 99.1616C105.787 99.5429 105.171 99.812 104.518 99.9316C103.865 100.044 103.159 99.9765 102.469 99.7597C102.056 99.6326 101.65 99.4307 101.26 99.184C101.207 98.9523 101.132 98.7205 101.087 98.4888C100.809 97.1431 100.667 95.8049 100.652 94.4293C100.652 91.7155 101.358 89.0391 102.266 86.4748C103.159 83.8882 104.263 81.3687 105.149 78.7073C106.02 76.0608 106.65 73.2498 106.59 70.3641C106.56 69.6389 106.515 68.9362 106.388 68.196C106.335 67.8222 106.26 67.4709 106.185 67.1419L106.125 66.8877L106.05 66.6037L105.892 66.0803C105.817 65.8561 105.727 65.6393 105.637 65.415C105.877 63.5834 105.854 61.7069 105.607 59.8603C105.374 58.0362 104.886 56.212 104.158 54.4925C103.445 52.7656 102.506 51.0984 101.282 49.6331C100.081 48.1529 98.6173 46.882 96.9132 45.9101C96.1399 45.4615 95.1414 45.0728 94.2555 44.7812C93.3246 44.5121 92.3787 44.3102 91.4177 44.2205C91.1099 44.1906 90.8021 44.1906 90.4868 44.1831C91.8306 42.7478 93.4147 41.4993 94.9237 40.1461C96.5378 38.7481 98.0993 37.2828 99.5182 35.6979C100.494 34.6139 101.395 33.4626 102.213 32.2888C102.709 33.1037 103.197 33.9037 103.64 34.7036C104.661 36.4829 105.359 38.2995 105.509 40.034C105.682 41.7534 105.276 43.3683 104.263 44.3775C103.279 45.4242 101.906 45.8877 100.802 45.6111C99.7435 45.3868 99.0603 44.4 98.805 43.5925C98.5273 42.7478 98.6849 42.0226 98.8951 41.5964C99.0978 41.1853 99.3606 40.9834 99.3381 40.976L99.2179 40.8489C99.2179 40.8489 98.9777 40.9535 98.5948 41.4096C98.2645 41.8506 97.9267 42.6879 98.0843 43.7495C98.1594 44.2803 98.3621 44.856 98.7375 45.4017C99.1053 45.9475 99.6909 46.4783 100.487 46.725C101.996 47.2707 103.948 46.725 105.306 45.4167C105.644 45.0877 105.96 44.7065 106.215 44.2803C106.35 44.0635 106.455 43.8467 106.568 43.5925C106.65 43.4056 106.74 43.1664 106.823 42.9048C107.116 41.9254 107.168 40.8788 107.026 39.8546C106.763 37.7837 105.652 35.8923 104.436 34.2027C103.842 33.3654 103.189 32.5655 102.604 31.7207C102.837 31.3768 103.062 31.0329 103.279 30.689C103.805 29.8068 104.285 28.9172 104.676 28.0051L104.826 27.6687L104.969 27.3098L105.224 26.6519C105.374 26.1959 105.524 25.71 105.652 25.2539C106.147 23.4223 106.342 21.6206 106.32 19.9684C106.26 16.6491 105.246 13.9801 104.225 12.3803C103.978 11.9691 103.737 11.6252 103.497 11.3411C103.279 11.0495 103.084 10.8028 102.897 10.6234C102.544 10.2646 102.364 10.0702 102.364 10.0702L102.228 10.1823C102.228 10.1823 102.371 10.4066 102.634 10.8253C102.776 11.0271 102.927 11.2888 103.084 11.6028C103.264 11.9093 103.437 12.2756 103.602 12.6943C103.955 13.5241 104.323 14.5558 104.526 15.7893C104.736 17.0154 104.848 18.4134 104.758 19.931C104.676 21.4487 104.391 23.0784 103.903 24.7456C103.767 25.1567 103.64 25.5455 103.482 25.9716L103.227 26.6295L103.107 26.936L102.964 27.25C102.611 28.0948 102.153 28.9246 101.71 29.7769C101.658 29.8741 101.59 29.9713 101.538 30.0685C101.305 29.6872 101.08 29.2984 100.87 28.9097C99.8335 27.0108 99.0678 24.9399 98.4747 22.8317C97.9192 20.716 97.5138 18.5704 97.266 16.4547C97.0108 14.339 96.9207 12.2382 97.0108 10.2197C97.1234 8.20866 97.2285 6.19763 97.7465 4.59776C97.8816 4.19406 98.0468 3.82026 98.242 3.47636C98.287 3.38666 98.3471 3.31188 98.3996 3.22217C98.4146 3.19227 98.5197 3.0577 98.5723 2.97546C98.6849 2.82594 98.7825 2.71381 98.9176 2.57176C99.4356 2.04097 100.081 1.65969 100.727 1.51765C102.041 1.1887 103.159 2.05592 103.58 3.11751C104.015 4.18658 103.602 5.23322 102.972 5.8313C102.349 6.4518 101.605 6.66113 101.125 6.70599C100.629 6.75832 100.359 6.68356 100.359 6.68356L100.314 6.84804C100.314 6.84804 100.577 6.97513 101.125 7.02747C101.665 7.07232 102.536 6.9826 103.415 6.35461C103.842 6.0481 104.285 5.56965 104.533 4.94913C104.803 4.30621 104.848 3.53617 104.653 2.77362C104.451 2.01855 104.015 1.23357 103.264 0.680343C103.092 0.545768 102.844 0.403724 102.626 0.306541C102.514 0.261688 102.491 0.239257 102.311 0.17945L101.958 0.0747827C101.478 -0.0373542 100.967 -0.0597846 100.472 0.0149758C99.4732 0.15702 98.5273 0.628005 97.7465 1.33075C96.9132 2.07835 96.4252 2.98295 96.0348 3.98472C95.6594 4.97903 95.4792 6.01072 95.3741 7.0424C95.2841 8.05914 95.194 9.10579 95.209 10.1674C95.209 12.2906 95.3666 14.481 95.7495 16.6715C96.1324 18.862 96.748 21.0375 97.5738 23.1233C98.3771 25.2166 99.3756 27.2201 100.404 29.1564C100.667 29.6498 100.937 30.1358 101.215 30.6067C100.382 31.9973 99.4131 33.3654 98.3396 34.6961C97.0708 36.3035 95.6744 37.8809 94.2555 39.4508C92.8291 41.0059 91.2976 42.4861 89.8712 44.0336C89.8337 44.071 89.8036 44.1159 89.7661 44.1532C86.4629 44.2355 83.1746 45.4989 80.9524 47.9062C79.6611 49.2743 78.7527 50.8816 78.1221 52.5413C77.4915 54.186 77.1537 55.9429 77.2062 57.6624C77.2588 59.3744 77.7092 61.0938 78.6101 62.4919C79.4885 63.8899 80.7272 65.0038 82.1461 65.6392C83.5575 66.2971 85.1791 66.3794 86.5229 66.013C87.8893 65.6692 89.0604 64.8692 89.8187 63.86C90.5844 62.8432 90.8847 61.6396 90.8322 60.578C90.7871 59.5089 90.4117 58.5595 89.8712 57.8642C88.7526 56.4587 87.2887 56.1447 86.4178 56.1223C85.9674 56.1223 85.622 56.1821 85.3968 56.2344C85.1716 56.3017 85.059 56.3316 85.059 56.3316L85.104 56.4961C85.104 56.4961 85.2166 56.4812 85.4343 56.4438C85.6521 56.4213 85.9749 56.3989 86.3953 56.4438C87.1986 56.541 88.4898 56.9821 89.3082 58.253C90.0964 59.4641 90.2916 61.6172 88.9478 63.1497C87.6715 64.6449 84.9914 65.4075 82.8067 64.2637C80.5846 63.1572 79.023 60.5107 79.0305 57.6175C79.0305 54.7243 80.1792 51.5171 82.2887 49.1173C83.7902 47.3978 85.9974 46.3063 88.3772 45.8951C87.619 46.9567 86.9658 48.0931 86.5905 49.3416C85.9899 51.3078 86.0349 53.6478 87.3637 55.3672C88.625 57.0194 90.6745 57.924 92.6264 57.5427C92.9117 57.4979 93.0468 57.4231 93.2495 57.3708C93.5348 57.2661 93.7 57.1839 93.9102 57.0643C94.3006 56.84 94.6459 56.5559 94.9312 56.2494C95.5243 55.6439 95.8696 54.9037 96.0498 54.1935C96.4252 52.6834 95.8846 51.4274 95.254 50.6424C94.6084 49.8574 93.8952 49.4836 93.4072 49.3117C92.8967 49.1472 92.6414 49.1323 92.6414 49.1323L92.5964 49.2967C92.5964 49.2967 92.8667 49.379 93.2646 49.6182C93.67 49.8574 94.2405 50.2985 94.6534 51.0461C94.8486 51.4199 95.0363 51.8535 95.0964 52.3395C95.1339 52.6011 95.1264 52.7955 95.1114 53.1095C95.0814 53.3338 95.0288 53.6104 94.9387 53.8646C94.5633 54.8888 93.6399 55.9279 92.3111 56.0999C91.1024 56.3092 89.5409 55.6364 88.5649 54.4327C87.5664 53.274 87.1535 51.4124 87.5064 49.5659C87.7091 48.2426 88.3172 46.9642 89.1355 45.7905C89.8487 45.7157 90.5694 45.6784 91.2976 45.7307C93.0393 45.8353 94.721 46.2465 96.3276 47.0539C97.8816 47.8165 99.3531 48.9155 100.562 50.2387C101.793 51.5545 102.784 53.0945 103.557 54.7318C104.3 56.3915 104.803 58.1334 105.066 59.9126C105.276 61.3854 105.299 62.8806 105.134 64.331C104.728 63.5759 104.24 62.8657 103.602 62.2526C102.521 61.1836 101.012 60.5107 99.4657 60.4808C98.6999 60.4659 97.8891 60.6378 97.1984 60.9967C96.4927 61.3705 95.9297 61.9312 95.5243 62.589C95.1339 63.2469 94.8937 64.017 94.9462 64.7945C94.9612 64.9888 94.9838 65.1832 95.0363 65.3851C95.0964 65.5944 95.1189 65.6916 95.224 65.9159C95.3816 66.2822 95.6369 66.5887 95.9147 66.8429C96.4777 67.3513 97.2135 67.6428 97.9492 67.6877C98.6774 67.7475 99.4657 67.4634 99.9386 66.955L99.826 66.8205C98.76 67.7026 97.1534 67.3139 96.3276 66.4242C95.4492 65.5196 95.5919 64.0618 96.29 63.075C96.9807 62.0358 98.1894 61.52 99.4056 61.6246C100.629 61.7218 101.785 62.3199 102.641 63.2096C103.497 64.0917 104.083 65.2729 104.451 66.499L104.578 66.9625L104.578 66.9999C104.278 68.0764 103.865 69.1081 103.317 70.0576C101.68 72.9956 99.0227 75.1487 96.1924 76.0608C94.7886 76.5243 93.3171 76.6589 92.0108 76.4421C90.667 76.2253 89.4808 75.5898 88.625 74.7076C86.8457 72.9956 86.9133 70.1697 88.2196 68.7418C88.8577 68.0166 89.7961 67.6353 90.652 67.5606C91.5153 67.4858 92.3261 67.7475 92.8817 68.1811C94.0303 69.1156 94.203 70.5061 94.0603 71.2761C94.0003 71.6873 93.8576 71.9714 93.7676 72.1658C93.6474 72.3527 93.5874 72.4574 93.5874 72.4574L93.73 72.562C93.73 72.562 94.1204 72.2555 94.4057 71.3659C94.5333 70.9248 94.5934 70.3491 94.4657 69.6838C94.3381 69.0334 94.0303 68.2708 93.3697 67.6428C92.0709 66.342 89.3082 66.1626 87.4013 67.9718C86.4779 68.8689 85.9073 70.237 85.9223 71.6574C85.8998 73.0779 86.4779 74.6104 87.5514 75.7393C88.61 76.8757 90.1039 77.6831 91.718 77.9746C93.3697 78.2812 95.0813 78.0793 96.6879 77.5186C99.9311 76.3897 102.611 73.7208 104.15 70.5061C104.436 69.9006 104.668 69.2651 104.879 68.6296C104.954 69.1978 104.991 69.7959 105.006 70.3865C105.021 73.0255 104.473 75.672 103.722 78.2812C102.994 80.8978 102.048 83.4994 101.305 86.1833C100.562 88.8597 100.006 91.6258 100.051 94.4443C100.074 95.8273 100.276 97.2328 100.517 98.5934C100.517 98.6233 100.532 98.6532 100.539 98.6906C99.9236 98.1673 99.3831 97.5169 98.9852 96.7768C98.2044 95.3339 97.8065 93.5995 97.7164 91.8127C97.6189 90.0259 97.8891 88.2018 97.9792 86.3702C98.0693 84.5535 97.799 82.6172 96.7555 81.0622C95.742 79.5371 94.0829 78.3559 92.236 78.2139C90.3817 78.0718 88.7151 78.8942 87.634 80.0305C86.5379 81.1893 86.1175 82.7892 86.3728 84.0302C86.5905 85.2862 87.2436 86.2132 87.8968 86.7888C88.5649 87.3645 89.2031 87.6187 89.6535 87.7159C90.1039 87.813 90.3217 87.7831 90.3292 87.7981L90.3667 87.6261C90.3667 87.6261 90.1265 87.5738 89.7586 87.3794C89.3982 87.2075 88.8802 86.8711 88.4223 86.2805C87.9793 85.6973 87.5739 84.86 87.5214 83.8882C87.4613 82.9237 87.8292 81.8622 88.6925 81.0547C89.5259 80.2324 90.8171 79.6866 92.1384 79.7315C93.4597 79.7614 94.9537 80.4043 96.0048 81.6229C96.5303 82.2285 96.9732 82.9387 97.1909 83.7685C97.4312 84.5685 97.4837 85.4656 97.4462 86.3403C97.3786 88.1196 96.8831 89.9063 96.763 91.7903C96.6204 93.6593 96.7555 95.6554 97.6038 97.4571C97.6339 97.5169 97.6639 97.5767 97.6939 97.6365C95.9222 96.8441 93.9703 96.7095 92.1384 96.8515C90.2466 96.9711 88.4448 97.472 86.6655 97.5318C85.7797 97.5692 84.8863 97.5169 84.083 97.2777C83.2497 97.0534 82.5365 96.6198 81.9284 96.0965C80.7047 95.0423 80.059 93.5621 80.029 92.2463C79.984 90.9231 80.5395 89.6447 81.3578 88.8148C82.1686 87.9551 83.2347 87.5962 84.2031 87.6486C85.1791 87.7009 86.0199 88.1046 86.6055 88.5457C87.1986 88.9943 87.5364 89.5176 87.7091 89.8689C87.8968 90.2278 87.9418 90.482 87.9568 90.4745L88.1295 90.4371C88.1295 90.4371 88.1445 90.2128 88.0469 89.7643C87.9493 89.3157 87.6941 88.6803 87.116 88.0149C86.5379 87.372 85.6145 86.7141 84.3458 86.4973C83.0995 86.2431 81.4929 86.6543 80.3293 87.7532C79.1807 88.8298 78.3624 90.4895 78.505 92.336C78.6476 94.1826 79.8338 95.8348 81.3653 96.8366C82.9194 97.8832 84.8638 98.1523 86.6956 98.0552C88.5349 97.9654 90.3667 97.6963 92.161 97.7935C93.9552 97.8832 95.697 98.2794 97.1459 99.0569C97.6188 99.3111 98.0543 99.6251 98.4447 99.969C97.1909 99.7373 95.9372 99.5952 94.6159 99.5728C93.9477 99.5728 93.197 99.5952 92.4838 99.67C91.7706 99.7298 91.0649 99.8419 90.3667 99.969C88.9628 100.223 87.5965 100.59 86.2601 100.993C83.58 101.801 81.0125 102.825 78.4224 103.602C75.8474 104.41 73.2048 104.97 70.5772 104.97C70.0517 104.97 69.5261 104.933 69.0081 104.873C69.6087 104.671 70.2018 104.455 70.7799 104.185C74.0081 102.653 76.6882 99.984 77.8218 96.7543C78.3849 95.147 78.5876 93.4499 78.2798 91.8052C77.987 90.1979 77.1762 88.7102 76.0351 87.6561C74.9014 86.587 73.3624 86.0188 71.936 86.0338C70.5096 86.0188 69.1433 86.587 68.2349 87.5065C66.4181 89.4054 66.6058 92.1566 67.9045 93.4499C68.5352 94.1078 69.3009 94.4143 69.9541 94.5414C70.6147 94.6685 71.2003 94.6162 71.6432 94.4816C72.5366 94.205 72.8444 93.7789 72.8444 93.8088L72.7393 93.6668C72.7393 93.6668 72.6417 93.7266 72.4465 93.8462C72.2513 93.9359 71.9736 94.0779 71.5531 94.1377C70.7799 94.2798 69.376 94.1078 68.4451 92.964C68.0172 92.4108 67.7469 91.6034 67.822 90.7436C67.897 89.8914 68.2799 88.9569 69.0081 88.3214C70.442 87.0131 73.2798 86.9533 74.999 88.7251C75.8849 89.5774 76.5155 90.7586 76.7408 92.0968C76.966 93.3976 76.8308 94.8629 76.3579 96.2609C75.4495 99.0719 73.2874 101.718 70.3294 103.356C69.3985 103.886 68.385 104.29 67.334 104.597C67.1238 104.544 66.9061 104.499 66.6959 104.44C65.4646 104.073 64.301 103.49 63.4076 102.63C62.5217 101.771 61.9362 100.634 61.8461 99.4158C61.8085 98.8102 61.8911 98.2196 62.1539 97.644C62.3866 97.1506 62.8145 96.6497 63.3175 96.3133C64.316 95.6255 65.7724 95.4909 66.6883 96.3805C67.5817 97.2104 67.9571 98.8252 67.0712 99.8643L67.1988 99.984C67.7244 99.4906 67.9871 98.7355 67.9346 98.0028C67.8895 97.2777 67.6042 96.5525 67.0937 95.9918C66.5983 95.4087 65.825 95.0722 65.0592 95.0199C64.2785 94.9601 63.5127 95.1919 62.8521 95.5731C62.1914 95.9694 61.6359 96.5002 61.238 97.2253C60.8851 97.8832 60.6974 98.6831 60.7049 99.4457C60.7049 100.978 61.3806 102.496 62.4392 103.58C63.0548 104.223 63.783 104.731 64.5487 105.142C63.0923 105.299 61.6058 105.284 60.1344 105.075C58.3476 104.813 56.5909 104.313 54.9318 103.572C53.2876 102.802 51.7411 101.808 50.4198 100.59C49.091 99.3859 47.9874 97.9206 47.2216 96.3731C46.4108 94.7732 45.9979 93.0986 45.8928 91.3641C45.8478 90.6464 45.8778 89.9213 45.9529 89.2111C47.1316 88.3887 48.4078 87.7906 49.7441 87.5888C51.5985 87.2374 53.4678 87.6561 54.6315 88.6429C55.8477 89.6148 56.5233 91.1772 56.3056 92.3734C56.1329 93.6967 55.0894 94.6162 54.0609 94.99C53.8056 95.0797 53.5279 95.132 53.3026 95.1619C52.9873 95.1844 52.7921 95.1919 52.5294 95.147C52.0414 95.0872 51.606 94.9003 51.2381 94.7059C50.4874 94.2947 50.0444 93.7191 49.8042 93.3229C49.5565 92.9266 49.4814 92.6575 49.4814 92.6575L49.3162 92.7023C49.3162 92.7023 49.3237 92.964 49.4964 93.4649C49.6691 93.9508 50.0444 94.6611 50.8327 95.304C51.621 95.932 52.8747 96.4702 54.3987 96.0964C55.1119 95.9095 55.8552 95.5657 56.4633 94.9825C56.7711 94.691 57.0488 94.3545 57.2816 93.9658C57.4017 93.7565 57.4843 93.5995 57.5894 93.3079C57.6494 93.1135 57.717 92.9715 57.762 92.6874C58.1449 90.7362 57.2365 88.7027 55.5774 87.4392C53.8507 86.1235 51.5009 86.0786 49.5264 86.6692C48.2727 87.0505 47.1316 87.6934 46.0655 88.4485C46.4784 86.0711 47.5745 83.8807 49.3012 82.3855C51.7111 80.2847 54.9318 79.1409 57.8371 79.1409C60.75 79.1334 63.4001 80.6809 64.5112 82.9013C65.6673 85.0768 64.9016 87.7383 63.3926 89.0167C61.8536 90.3549 59.6914 90.168 58.4752 89.3755C57.199 88.5681 56.7561 87.2748 56.6585 86.4748C56.6059 86.0637 56.6284 85.7347 56.6585 85.5179C56.696 85.3011 56.711 85.189 56.711 85.189L56.5458 85.1441C56.5458 85.1441 56.5158 85.2563 56.4482 85.4805C56.3957 85.7048 56.3281 86.0412 56.3356 86.4973C56.3582 87.3645 56.6735 88.8223 58.0849 89.9362C58.7831 90.4745 59.7365 90.8483 60.81 90.8932C61.8761 90.9455 63.0923 90.6539 64.1058 89.8839C65.1193 89.1288 65.9226 87.97 66.2679 86.6019C66.6358 85.2563 66.5532 83.6489 65.8926 82.2434C65.2544 80.823 64.1283 79.5895 62.7319 78.7222C61.3356 77.8251 59.6089 77.3766 57.8822 77.3242C56.148 77.2644 54.3912 77.6008 52.7396 78.2363C51.0729 78.8643 49.4589 79.7689 48.085 81.0547C45.6751 83.2676 44.3989 86.5421 44.3163 89.8316C44.2787 89.8689 44.2337 89.8988 44.1962 89.9362C42.6346 91.3567 41.1557 92.8818 39.5941 94.3022C38.0176 95.7152 36.441 97.0982 34.8194 98.3691C33.4831 99.4382 32.1092 100.395 30.7129 101.232C30.2324 100.956 29.7444 100.687 29.2564 100.425C27.312 99.3934 25.3 98.4065 23.198 97.6066C21.1034 96.7842 18.9187 96.1712 16.7191 95.7899C14.5194 95.4087 12.3197 95.2517 10.1876 95.2517C9.12158 95.2442 8.07053 95.3264 7.04952 95.4161C6.006 95.5208 4.96998 95.7002 3.979 96.074C2.97301 96.4553 2.06461 96.9487 1.31387 97.7785C0.615678 98.556 0.142716 99.498 -0.00743029 100.492C-0.0825036 100.986 -0.0599816 101.502 0.0526282 101.973L0.105179 102.017ZM106.936 107.572C105.937 107.31 105.029 106.675 104.308 105.853C103.482 104.926 102.859 103.797 102.364 102.623C102.394 102.638 102.424 102.645 102.454 102.66C103.655 103.176 104.773 103.864 105.629 104.784C106.35 105.554 106.793 106.525 106.943 107.572L106.936 107.572Z" fill="url(#paint0_linear_1405_17558)"/>
<defs>
<linearGradient id="paint0_linear_1405_17558" x1="109" y1="54.5" x2="8.10499e-05" y2="54.5" gradientUnits="userSpaceOnUse">
<stop stop-color="#A47A3F"/>
<stop offset="0.41" stop-color="#E6B672"/>
<stop offset="0.53" stop-color="#FAC982"/>
<stop offset="0.65" stop-color="#E9B772"/>
<stop offset="0.89" stop-color="#BE8A4B"/>
<stop offset="1" stop-color="#A87338"/>
</linearGradient>
</defs>
</svg>
