<svg width="109" height="109" viewBox="0 0 109 109" fill="none" xmlns="http://www.w3.org/2000/svg">
<g clip-path="url(#clip0_1405_17542)">
<path d="M108.895 6.98258L108.79 6.6312C108.73 6.45178 108.707 6.42935 108.662 6.31721C108.565 6.10041 108.414 5.8537 108.287 5.68175C107.731 4.93415 106.943 4.50055 106.185 4.29869C105.412 4.10432 104.646 4.14917 104 4.41831C103.385 4.66502 102.897 5.1061 102.589 5.53223C101.958 6.4144 101.868 7.27414 101.913 7.81241C101.966 8.35816 102.093 8.61982 102.093 8.61982L102.258 8.57496C102.258 8.57496 102.191 8.30583 102.236 7.81241C102.281 7.33395 102.491 6.59382 103.114 5.97332C103.722 5.34533 104.766 4.92668 105.839 5.36776C106.905 5.77894 107.776 6.90034 107.446 8.20864C107.303 8.85157 106.928 9.50199 106.387 10.0104C106.245 10.1449 106.125 10.2421 105.975 10.3542C105.899 10.4066 105.757 10.5187 105.727 10.5262C105.644 10.5785 105.562 10.6309 105.479 10.6832C105.134 10.8776 104.758 11.042 104.353 11.1766C102.746 11.6925 100.727 11.8046 98.7074 11.9167C96.6804 12.0064 94.5708 11.9167 92.4462 11.6625C90.3216 11.4158 88.167 11.0121 86.0424 10.4589C83.9328 9.87578 81.8458 9.10576 79.9389 8.07407C79.5485 7.86474 79.1581 7.64046 78.7752 7.40871C78.8728 7.35637 78.9704 7.28909 79.068 7.23676C79.9239 6.79568 80.7497 6.33964 81.6055 5.98827L81.9208 5.84622L82.2286 5.72661L82.8893 5.47242C83.3172 5.31543 83.7076 5.18834 84.1205 5.05377C85.7947 4.56035 87.4313 4.27627 88.9553 4.20151C90.4793 4.10432 91.8907 4.22393 93.1144 4.43326C94.3531 4.63511 95.3891 5.00144 96.2224 5.35281C96.6429 5.51728 97.0107 5.6967 97.3185 5.86865C97.6338 6.02565 97.8966 6.18264 98.0993 6.31721C98.5197 6.57887 98.7449 6.72092 98.7449 6.72092L98.8575 6.58635C98.8575 6.58635 98.6624 6.39945 98.302 6.05555C98.1218 5.87613 97.8816 5.68175 97.5813 5.45747C97.296 5.22572 96.9432 4.97901 96.5378 4.7323C94.9312 3.71557 92.2585 2.70631 88.9177 2.6465C87.2586 2.62407 85.4493 2.81097 83.61 3.31186C83.1521 3.43895 82.6566 3.58847 82.2061 3.73799L81.5455 3.99218L81.1851 4.13422L80.8473 4.28374C79.9314 4.67249 79.038 5.15096 78.1521 5.67428C77.8068 5.89108 77.4539 6.11536 77.1161 6.34712C76.2678 5.75651 75.457 5.11358 74.6236 4.52297C72.927 3.31186 71.0276 2.20541 68.948 1.94376C67.9195 1.80171 66.8685 1.86152 65.885 2.14561C65.6148 2.22784 65.382 2.31755 65.1943 2.39979C64.9391 2.51193 64.7214 2.61659 64.5037 2.75116C64.0682 3.00535 63.6929 3.31934 63.3625 3.65576C62.0487 5.00144 61.5082 6.9452 62.0487 8.45535C62.2965 9.25528 62.8295 9.83093 63.3776 10.1973C63.9256 10.5711 64.5037 10.7729 65.0367 10.8477C66.1027 11.0121 66.9511 10.6757 67.3865 10.3393C67.8445 9.95802 67.927 9.71879 67.9496 9.72626L67.8219 9.60665C67.8219 9.60665 67.6117 9.84588 67.1988 10.0477C66.7709 10.2571 66.0352 10.4141 65.1943 10.1374C64.3835 9.88326 63.3926 9.20294 63.1673 8.14883C62.8896 7.04986 63.355 5.68175 64.4061 4.7024C65.4121 3.68566 67.0412 3.28943 68.7679 3.46138C70.5096 3.6109 72.3339 4.29869 74.1207 5.3229C74.9239 5.76399 75.7272 6.2574 76.5455 6.74334C75.3669 7.55823 74.2107 8.45535 73.1222 9.42723C71.5306 10.8402 70.0591 12.3952 68.6553 14.0025C67.2964 15.5052 66.0427 17.0901 64.6013 18.4208C64.5938 18.1143 64.5938 17.8003 64.5637 17.4938C64.4736 16.5369 64.2709 15.5949 64.0007 14.6679C63.7079 13.7783 63.3175 12.7839 62.867 12.0214C61.8911 10.3243 60.6148 8.86653 59.1284 7.67037C57.6569 6.45178 55.9828 5.51728 54.2486 4.80706C52.5218 4.08189 50.69 3.59595 48.8582 3.36419C47.0114 3.11749 45.1346 3.09506 43.3103 3.33429C43.1001 3.25205 42.8974 3.16234 42.6871 3.08758C41.2908 2.63155 39.8494 2.39231 38.4004 2.33251C35.4951 2.21289 32.6723 2.82592 29.9771 3.60343C27.282 4.41083 24.7144 5.42009 22.1319 6.2574C20.8406 6.67606 19.5493 7.04986 18.2355 7.31899C17.5824 7.45356 16.9292 7.5657 16.2686 7.64046C15.6154 7.7227 14.9848 7.76008 14.2716 7.77503C12.9879 7.78998 11.629 7.65541 10.3227 7.43861C9.90232 7.36385 9.4819 7.27414 9.06149 7.17695C8.95638 6.95267 8.85879 6.73587 8.78371 6.50411C8.5735 5.81632 8.49843 5.11358 8.61104 4.46316C8.73116 3.81275 9.00143 3.19225 9.3843 2.72126C10.0825 1.78676 11.4714 1.43539 12.4398 1.78676C13.4383 2.07832 13.9713 3.11001 13.9638 4.00713C13.9488 4.46317 13.8212 4.83697 13.5509 5.17338C13.3407 5.42757 12.9879 5.6668 12.665 5.77894C11.9969 6.02565 11.3738 5.92098 11.0209 5.75651C10.6531 5.59952 10.4954 5.42757 10.4954 5.42757L10.3603 5.53971C10.3603 5.53971 10.3978 5.58456 10.4729 5.68175C10.548 5.77146 10.6681 5.90603 10.8558 6.0406C11.2236 6.31721 11.9293 6.58635 12.8377 6.4443C13.2957 6.36954 13.7686 6.19012 14.2416 5.75651C14.6395 5.39019 14.9848 4.77716 15.0899 4.11927C15.1875 3.45391 15.1275 2.71378 14.7821 2.01852C14.4518 1.32325 13.8137 0.672836 13.0179 0.336416C11.4714 -0.343899 9.36929 -0.0224314 8.03297 1.53258C7.16962 2.47455 6.73419 3.78285 6.7417 5.09862C6.3363 4.24636 5.86333 3.41653 5.26274 2.66145C4.38437 1.54753 3.11562 0.575648 1.5691 0.343892L1.05109 0.269132L1.02856 0.822356C0.976011 2.3026 1.48651 3.84266 2.45497 4.99396C3.20571 5.91351 4.14414 6.61625 5.15013 7.17695C3.81381 7.162 2.49251 7.59561 1.53907 8.46282C-0.0224735 9.78607 -0.345292 11.8794 0.337882 13.4568C0.675715 14.2418 1.32886 14.8847 2.02705 15.2136C2.72524 15.5575 3.46847 15.6173 4.13663 15.5202C4.79728 15.4155 5.41289 15.0716 5.78075 14.6754C6.21618 14.2044 6.39636 13.7334 6.47143 13.2774C6.60656 12.3728 6.34381 11.6775 6.06603 11.3037C5.9309 11.1168 5.79576 10.9897 5.70568 10.9224C5.61559 10.8477 5.56304 10.8103 5.56304 10.8103L5.45042 10.9449C5.45042 10.9449 5.62309 11.1018 5.78075 11.4682C5.94591 11.8195 6.04351 12.4401 5.80327 13.1054C5.69066 13.4269 5.45042 13.7783 5.19517 13.9876C4.85734 14.2567 4.47446 14.3838 4.02402 14.3988C3.12313 14.4062 2.08711 13.8829 1.79432 12.8811C1.43396 11.9167 1.79432 10.5337 2.73274 9.8384C3.21322 9.45713 3.82882 9.18799 4.48197 9.06838C5.13511 8.95624 5.84081 9.02352 6.53149 9.24032C6.9444 9.36742 7.3498 9.56927 7.74018 9.81598C7.79273 10.0477 7.86781 10.2795 7.91285 10.5112C8.19063 11.8569 8.33327 13.1951 8.34828 14.5707C8.34828 17.2845 7.64259 19.9609 6.73419 22.5252C5.84081 25.1119 4.73722 27.6313 3.85135 30.2927C2.98049 32.9392 2.34987 35.7502 2.40993 38.6359C2.43995 39.3611 2.485 40.0639 2.61263 40.804C2.66518 41.1778 2.74025 41.5291 2.81533 41.8581L2.87538 42.1123L2.95046 42.3964L3.10811 42.9197C3.18319 43.144 3.27328 43.3608 3.36337 43.585C3.12313 45.4167 3.14565 47.2931 3.3934 49.1397C3.62612 50.9639 4.11411 52.788 4.84232 54.5075C5.55553 56.2344 6.49395 57.9016 7.71766 59.3669C8.91884 60.8471 10.3828 62.118 12.087 63.0899C12.8602 63.5385 13.8587 63.9272 14.7446 64.2188C15.6755 64.4879 16.6214 64.6898 17.5824 64.7795C17.8902 64.8094 18.198 64.8094 18.5133 64.8169C17.1695 66.2523 15.5854 67.5007 14.0764 68.8539C12.4623 70.2519 10.9008 71.7172 9.4819 73.3021C8.50594 74.3861 7.60505 75.5374 6.78674 76.7112C6.29125 75.8963 5.80327 75.0964 5.36034 74.2964C4.33933 72.5171 3.64114 70.7005 3.49099 68.966C3.31832 67.2466 3.72372 65.6318 4.73722 64.6225C5.72069 63.5759 7.09455 63.1123 8.19813 63.389C9.25668 63.6132 9.93985 64.6001 10.1951 65.4075C10.4729 66.2523 10.3152 66.9774 10.105 67.4036C9.90232 67.8147 9.63956 68.0166 9.66208 68.0241L9.7822 68.1512C9.7822 68.1512 10.0224 68.0465 10.4053 67.5905C10.7356 67.1494 11.0735 66.3121 10.9158 65.2505C10.8407 64.7197 10.638 64.144 10.2627 63.5983C9.89481 63.0525 9.30923 62.5217 8.51344 62.275C7.00446 61.7293 5.05253 62.275 3.69369 63.5833C3.35586 63.9123 3.04055 64.2935 2.7853 64.7197C2.65016 64.9365 2.54506 65.1533 2.43245 65.4075C2.34987 65.5944 2.25978 65.8336 2.1772 66.0953C1.88441 67.0746 1.83186 68.1213 1.9745 69.1455C2.23726 71.2163 3.34835 73.1077 4.56455 74.7973C5.15764 75.6346 5.81078 76.4346 6.39636 77.2794C6.16363 77.6232 5.93841 77.9671 5.72069 78.311C5.19517 79.1932 4.7147 80.0828 4.32431 80.9949L4.17417 81.3313L4.03152 81.6902L3.77627 82.3481C3.62613 82.8041 3.47598 83.29 3.34835 83.7461C2.85286 85.5777 2.65767 87.3794 2.68019 89.0316C2.74025 92.351 3.75375 95.0199 4.77476 96.6198C5.0225 97.0309 5.26274 97.3748 5.50298 97.6589C5.72069 97.9505 5.91588 98.1972 6.10357 98.3766C6.45642 98.7355 6.63659 98.9298 6.63659 98.9298L6.77173 98.8177C6.77173 98.8177 6.62909 98.5934 6.36633 98.1748C6.22369 97.9729 6.07354 97.7112 5.91588 97.3972C5.73571 97.0907 5.56304 96.7244 5.39787 96.3058C5.04502 95.4759 4.67716 94.4442 4.47446 93.2107C4.26425 91.9846 4.15164 90.5866 4.24173 89.069C4.32431 87.5514 4.60959 85.9216 5.09758 84.2544C5.23271 83.8433 5.36034 83.4545 5.51799 83.0284L5.77324 82.3705L5.89336 82.064L6.036 81.75C6.38885 80.9052 6.8468 80.0754 7.28974 79.2231C7.34229 79.1259 7.40986 79.0287 7.46241 78.9315C7.69514 79.3128 7.92036 79.7016 8.13057 80.0903C9.16659 81.9892 9.93234 84.0601 10.5254 86.1683C11.081 88.284 11.4864 90.4296 11.7341 92.5453C11.9894 94.661 12.0795 96.7618 11.9894 98.7803C11.8768 100.791 11.7717 102.802 11.2536 104.402C11.1185 104.806 10.9534 105.18 10.7582 105.524C10.7131 105.613 10.6531 105.688 10.6005 105.778C10.5855 105.808 10.4804 105.942 10.4278 106.025C10.3152 106.174 10.2176 106.286 10.0825 106.428C9.56448 106.959 8.91885 107.34 8.27321 107.482C6.95941 107.811 5.84081 106.944 5.42039 105.883C4.98496 104.813 5.39787 103.767 6.02849 103.169C6.65161 102.548 7.39484 102.339 7.87532 102.294C8.3708 102.242 8.64107 102.316 8.64107 102.316L8.68612 102.152C8.68612 102.152 8.42336 102.025 7.87532 101.973C7.33478 101.928 6.46392 102.017 5.58556 102.645C5.15764 102.952 4.7147 103.43 4.46695 104.051C4.19669 104.694 4.15164 105.464 4.34684 106.226C4.54954 106.981 4.98496 107.766 5.73571 108.32C5.90838 108.454 6.15612 108.596 6.37383 108.693C6.48645 108.738 6.50897 108.761 6.68915 108.821L7.04199 108.925C7.52247 109.037 8.03297 109.06 8.52846 108.985C9.52694 108.843 10.4729 108.372 11.2536 107.669C12.087 106.922 12.575 106.017 12.9653 105.015C13.3407 104.021 13.5209 102.989 13.626 101.958C13.7161 100.941 13.8062 99.8942 13.7912 98.8326C13.7912 96.7095 13.6335 94.519 13.2506 92.3285C12.8677 90.1381 12.2521 87.9625 11.4263 85.8767C10.623 83.7835 9.62454 81.7799 8.59603 79.8436C8.33327 79.3502 8.063 78.8643 7.78523 78.3933C8.61855 77.0027 9.587 75.6346 10.6606 74.3039C11.9293 72.6966 13.3257 71.1191 14.7446 69.5492C16.171 67.9942 17.7025 66.5139 19.1289 64.9664C19.1665 64.929 19.1965 64.8841 19.234 64.8468C22.5373 64.7645 25.8255 63.5011 28.0477 61.0938C29.339 59.7257 30.2474 58.1184 30.878 56.4587C31.5086 54.814 31.8465 53.0571 31.7939 51.3376C31.7414 49.6256 31.2909 47.9062 30.39 46.5082C29.5117 45.1101 28.2729 43.9962 26.854 43.3608C25.4426 42.7029 23.821 42.6206 22.4772 42.987C21.1109 43.3309 19.9397 44.1308 19.1815 45.1401C18.4157 46.1568 18.1154 47.3604 18.168 48.422C18.213 49.4911 18.5884 50.4405 19.1289 51.1358C20.2475 52.5413 21.7115 52.8553 22.5823 52.8777C23.0328 52.8777 23.3781 52.8179 23.6033 52.7656C23.8286 52.6983 23.9412 52.6684 23.9412 52.6684L23.8961 52.5039C23.8961 52.5039 23.7835 52.5189 23.5658 52.5562C23.3481 52.5787 23.0253 52.6011 22.6048 52.5562C21.8015 52.459 20.5103 52.018 19.692 50.747C18.9037 49.5359 18.7085 47.3829 20.0523 45.8503C21.3286 44.3551 24.0087 43.5925 26.1934 44.7363C28.4156 45.8428 29.9771 48.4893 29.9696 51.3825C29.9696 54.2757 28.821 57.4829 26.7114 59.8827C25.2099 61.6022 23.0027 62.6937 20.6229 63.1049C21.3811 62.0433 22.0343 60.9069 22.4097 59.6584C23.0102 57.6922 22.9652 55.3523 21.6364 53.6328C20.3751 51.9806 18.3256 51.076 16.3737 51.4573C16.0884 51.5021 15.9533 51.5769 15.7506 51.6292C15.4653 51.7339 15.3001 51.8161 15.0899 51.9357C14.6995 52.16 14.3542 52.4441 14.0689 52.7506C13.4758 53.3562 13.1305 54.0963 12.9503 54.8065C12.575 56.3167 13.1155 57.5726 13.7461 58.3576C14.3917 59.1426 15.1049 59.5164 15.5929 59.6883C16.1034 59.8528 16.3587 59.8678 16.3587 59.8678L16.4037 59.7033C16.4037 59.7033 16.1335 59.621 15.7356 59.3818C15.3302 59.1426 14.7596 58.7015 14.3467 57.9539C14.1515 57.5801 13.9638 57.1465 13.9038 56.6606C13.8662 56.3989 13.8737 56.2045 13.8887 55.8905C13.9188 55.6662 13.9713 55.3896 14.0614 55.1355C14.4368 54.1112 15.3602 53.0721 16.689 52.9001C17.8977 52.6908 19.4592 53.3636 20.4352 54.5673C21.4337 55.7261 21.8466 57.5876 21.4937 59.4342C21.291 60.7574 20.6829 62.0358 19.8646 63.2095C19.1514 63.2843 18.4307 63.3217 17.7025 63.2693C15.9608 63.1647 14.2791 62.7535 12.6725 61.9461C11.1185 61.1835 9.64706 60.0846 8.43837 58.7613C7.20716 57.4455 6.21618 55.9055 5.44292 54.2682C4.69968 52.6086 4.19669 50.8667 3.93393 49.0874C3.72372 47.6146 3.7012 46.1194 3.86636 44.6691C4.27176 45.4241 4.75974 46.1344 5.39787 46.7474C6.47894 47.8165 7.98793 48.4893 9.53445 48.5192C10.3002 48.5341 11.111 48.3622 11.8017 48.0034C12.5074 47.6296 13.0704 47.0689 13.4758 46.411C13.8662 45.7531 14.1065 44.9831 14.0539 44.2056C14.0389 44.0112 14.0164 43.8168 13.9638 43.6149C13.9038 43.4056 13.8812 43.3084 13.7761 43.0842C13.6185 42.7178 13.3632 42.4113 13.0855 42.1571C12.5224 41.6488 11.7867 41.3572 11.0509 41.3123C10.3227 41.2525 9.53445 41.5366 9.06149 42.045L9.1741 42.1796C10.2401 41.2974 11.8467 41.6861 12.6725 42.5758C13.5509 43.4804 13.4083 44.9382 12.7101 45.925C12.0194 46.9642 10.8107 47.48 9.59451 47.3754C8.3708 47.2782 7.21466 46.6801 6.35882 45.7905C5.50298 44.9083 4.9174 43.7271 4.54954 42.501L4.42191 42.0375V42.0001C4.72221 40.9236 5.13511 39.8919 5.68315 38.9425C7.31977 36.0044 9.97739 33.8513 12.8077 32.9392C14.2116 32.4757 15.683 32.3411 16.9893 32.558C18.3331 32.7748 19.5193 33.4102 20.3751 34.2924C22.1544 36.0044 22.0868 38.8303 20.7805 40.2582C20.1424 40.9834 19.204 41.3647 18.3481 41.4394C17.4848 41.5142 16.674 41.2525 16.1184 40.8189C14.9698 39.8844 14.7971 38.4939 14.9398 37.7239C14.9998 37.3127 15.1425 37.0286 15.2326 36.8342C15.3527 36.6473 15.4128 36.5427 15.4128 36.5427L15.2701 36.438C15.2701 36.438 14.8797 36.7445 14.5944 37.6342C14.4668 38.0752 14.4068 38.6509 14.5344 39.3163C14.662 39.9667 14.9698 40.7292 15.6305 41.3572C16.9292 42.658 19.692 42.8374 21.5989 41.0283C22.5223 40.1311 23.0928 38.763 23.0778 37.3426C23.1003 35.9221 22.5223 34.3896 21.4487 33.2607C20.3902 32.1243 18.8962 31.3169 17.2821 31.0254C15.6305 30.7189 13.9188 30.9207 12.3122 31.4814C9.06899 32.6103 6.38885 35.2792 4.84983 38.4939C4.56455 39.0994 4.33182 39.7349 4.12161 40.3704C4.04654 39.8022 4.009 39.2041 3.99399 38.6135C3.97897 35.9745 4.52701 33.328 5.27775 30.7189C6.00597 28.1023 6.9519 25.5006 7.69514 22.8167C8.43837 20.1403 8.99392 17.3742 8.94887 14.5558C8.92635 13.1727 8.72365 11.7672 8.48342 10.4066C8.48342 10.3767 8.4684 10.3468 8.46089 10.3094C9.0765 10.8327 9.61703 11.4831 10.0149 12.2232C10.7957 13.6661 11.1936 15.4005 11.2837 17.1873C11.3813 18.9741 11.111 20.7982 11.0209 22.6298C10.9308 24.4465 11.2011 26.3828 12.2446 27.9378C13.2581 29.4629 14.9173 30.6441 16.7641 30.7861C18.6184 30.9282 20.2851 30.1058 21.3661 28.9695C22.4622 27.8107 22.8826 26.2108 22.6274 24.9698C22.4096 23.7139 21.7565 22.7868 21.1034 22.2112C20.4352 21.6355 19.7971 21.3813 19.3466 21.2842C18.8962 21.187 18.6785 21.2169 18.671 21.2019L18.6334 21.3739C18.6334 21.3739 18.8737 21.4262 19.2415 21.6206C19.6019 21.7925 20.1199 22.1289 20.5778 22.7195C21.0208 23.3027 21.4262 24.14 21.4787 25.1119C21.5388 26.0763 21.1709 27.1379 20.3076 27.9453C19.4743 28.7676 18.183 29.3134 16.8617 29.2685C15.5404 29.2386 14.0464 28.5957 12.9954 27.3771C12.4698 26.7715 12.0269 26.0613 11.8092 25.2315C11.569 24.4315 11.5164 23.5344 11.5539 22.6597C11.6215 20.8804 12.117 19.0937 12.2371 17.2097C12.3798 15.3407 12.2446 13.3446 11.3963 11.5429C11.3663 11.4831 11.3362 11.4233 11.3062 11.3635C13.0779 12.156 15.0299 12.2905 16.8617 12.1485C18.7535 12.0289 20.5553 11.528 22.3346 11.4682C23.2204 11.4308 24.1138 11.4831 24.9171 11.7224C25.7504 11.9466 26.4636 12.3802 27.0718 12.9036C28.2955 13.9577 28.9411 15.4379 28.9711 16.7537C29.0162 18.077 28.4606 19.3553 27.6423 20.1852C26.8315 21.0449 25.7655 21.4038 24.797 21.3514C23.821 21.2991 22.9802 20.8954 22.3946 20.4543C21.8015 20.0058 21.4637 19.4824 21.291 19.1311C21.1034 18.7722 21.0583 18.518 21.0433 18.5255L20.8706 18.5629C20.8706 18.5629 20.8556 18.7872 20.9532 19.2357C21.0508 19.6843 21.3061 20.3197 21.8841 20.9851C22.4622 21.628 23.3856 22.2859 24.6544 22.5027C25.9006 22.7569 27.5072 22.3457 28.6708 21.2468C29.8195 20.1702 30.6378 18.5106 30.4951 16.664C30.3525 14.8174 29.1663 13.1652 27.6348 12.1634C26.0808 11.1168 24.1364 10.8477 22.3045 10.9449C20.4652 11.0346 18.6334 11.3037 16.8392 11.2065C15.0449 11.1168 13.3032 10.7206 11.8542 9.94307C11.3813 9.68889 10.9458 9.37489 10.5555 9.031C11.8092 9.26275 13.0629 9.4048 14.3842 9.42723C15.0524 9.42723 15.8031 9.4048 16.5163 9.33004C17.2295 9.27023 17.9352 9.15809 18.6334 9.031C20.0373 8.77681 21.4037 8.41049 22.74 8.00679C25.4201 7.19938 27.9877 6.17517 30.5777 5.39766C33.1527 4.59026 35.7954 4.02956 38.4229 4.02956C38.9485 4.02956 39.474 4.06694 39.992 4.12675C39.3914 4.3286 38.7983 4.5454 38.2202 4.81454C34.9921 6.34712 32.3119 9.01604 31.1783 12.2457C30.6152 13.853 30.4125 15.5501 30.7203 17.1948C31.0131 18.8021 31.8239 20.2898 32.9651 21.344C34.0987 22.413 35.6377 22.9812 37.0641 22.9662C38.4905 22.9812 39.8569 22.413 40.7653 21.4935C42.582 19.5946 42.3944 16.8434 41.0956 15.5501C40.465 14.8922 39.6992 14.5857 39.0461 14.4586C38.3854 14.3315 37.7998 14.3838 37.3569 14.5184C36.4635 14.795 36.1557 15.2211 36.1557 15.1912L36.2608 15.3333C36.2608 15.3333 36.3584 15.2735 36.5536 15.1538C36.7488 15.0641 37.0266 14.9221 37.447 14.8623C38.2202 14.7202 39.6241 14.8922 40.555 16.036C40.983 16.5892 41.2532 17.3966 41.1782 18.2564C41.1031 19.1086 40.7202 20.0431 39.992 20.6786C38.5581 21.9869 35.7203 22.0467 34.0011 20.2749C33.1152 19.4226 32.4846 18.2414 32.2594 16.9032C32.0341 15.6024 32.1693 14.1371 32.6422 12.7391C33.5506 9.92812 35.7128 7.28162 38.6707 5.64437C39.6016 5.11358 40.6151 4.70987 41.6661 4.40336C41.8764 4.45569 42.0941 4.50055 42.3043 4.56035C43.5355 4.92668 44.6991 5.5098 45.5925 6.36954C46.4784 7.22928 47.064 8.36563 47.1541 9.58422C47.1916 10.1898 47.109 10.7804 46.8463 11.356C46.6135 11.8494 46.1856 12.3503 45.6826 12.6868C44.6841 13.3745 43.2277 13.5091 42.3118 12.6195C41.4184 11.7896 41.043 10.1748 41.9289 9.13566L41.8013 9.01605C41.2758 9.50946 41.013 10.2645 41.0656 10.9972C41.1106 11.7224 41.3959 12.4475 41.9064 13.0082C42.4019 13.5914 43.1751 13.9278 43.9409 13.9801C44.7217 14.0399 45.4874 13.8082 46.1481 13.4269C46.8087 13.0307 47.3643 12.4999 47.7622 11.7747C48.115 11.1168 48.3027 10.3169 48.2952 9.55432C48.2952 8.02174 47.6195 6.50411 46.561 5.42009C45.9454 4.77716 45.2171 4.26879 44.4514 3.85761C45.9078 3.70061 47.3943 3.71557 48.8657 3.92489C50.6525 4.18655 52.4092 4.68745 54.0684 5.42757C55.7125 6.1976 57.259 7.1919 58.5803 8.41049C59.9091 9.61413 61.0127 11.0794 61.7785 12.627C62.5893 14.2268 63.0022 15.9014 63.1073 17.6359C63.1523 18.3536 63.1223 19.0787 63.0472 19.789C61.8686 20.6113 60.5923 21.2094 59.256 21.4112C57.4017 21.7626 55.5323 21.344 54.3687 20.3571C53.1525 19.3853 52.4768 17.8228 52.6945 16.6266C52.8672 15.3034 53.9107 14.3838 54.9392 14.01C55.1945 13.9203 55.4723 13.868 55.6975 13.8381C56.0128 13.8156 56.208 13.8082 56.4707 13.853C56.9587 13.9128 57.3942 14.0997 57.762 14.2941C58.5128 14.7053 58.9557 15.2809 59.1959 15.6772C59.4437 16.0734 59.5187 16.3425 59.5187 16.3425L59.6839 16.2977C59.6839 16.2977 59.6764 16.036 59.5037 15.5351C59.3311 15.0492 58.9557 14.339 58.1674 13.696C57.3791 13.068 56.1254 12.5298 54.6014 12.9036C53.8882 13.0905 53.145 13.4344 52.5369 14.0175C52.2291 14.309 51.9513 14.6455 51.7186 15.0342C51.5984 15.2435 51.5159 15.4005 51.4108 15.6921C51.3507 15.8865 51.2831 16.0285 51.2381 16.3126C50.8552 18.2638 51.7636 20.2973 53.4227 21.5608C55.1494 22.8765 57.4993 22.9214 59.4737 22.3308C60.7274 21.9495 61.8686 21.3066 62.9346 20.5515C62.5217 22.9289 61.4256 25.1193 59.6989 26.6145C57.289 28.7153 54.0684 29.8591 51.163 29.8591C48.2501 29.8666 45.6 28.3191 44.4889 26.0987C43.3328 23.9232 44.0985 21.2617 45.6075 19.9833C47.1465 18.6451 49.3087 18.832 50.5249 19.6245C51.8011 20.4319 52.2441 21.7252 52.3417 22.5252C52.3942 22.9363 52.3717 23.2653 52.3417 23.4821C52.3041 23.6989 52.2891 23.811 52.2891 23.811L52.4543 23.8559C52.4543 23.8559 52.4843 23.7438 52.5519 23.5195C52.6044 23.2952 52.672 22.9588 52.6645 22.5027C52.642 21.6355 52.3267 20.1777 50.9153 19.0638C50.2171 18.5255 49.2636 18.1517 48.1901 18.1069C47.124 18.0545 45.9078 18.3461 44.8943 19.1161C43.8808 19.8712 43.0775 21.03 42.7322 22.3981C42.3643 23.7438 42.4469 25.3511 43.1076 26.7566C43.7457 28.177 44.8718 29.4106 46.2682 30.2778C47.6646 31.1749 49.3913 31.6235 51.118 31.6758C52.8522 31.7356 54.6089 31.3992 56.2605 30.7637C57.9272 30.1357 59.5413 29.2311 60.9151 27.9453C63.325 25.7324 64.6013 22.4579 64.6838 19.1684C64.7214 19.1311 64.7664 19.1012 64.804 19.0638C66.3655 17.6433 67.8445 16.1182 69.406 14.6978C70.9826 13.2848 72.5591 11.9018 74.1807 10.6309C75.517 9.56179 76.8909 8.60487 78.2873 7.76755C78.7677 8.04417 79.2557 8.3133 79.7437 8.57496C81.6881 9.60665 83.7001 10.5935 85.8022 11.3934C87.8967 12.2158 90.0814 12.8288 92.2811 13.2101C94.4807 13.5914 96.6804 13.7483 98.8125 13.7483C99.8785 13.7558 100.93 13.6736 101.951 13.5839C102.994 13.4792 104.03 13.2998 105.021 12.926C106.027 12.5447 106.936 12.0513 107.686 11.2215C108.384 10.444 108.857 9.50199 109.008 8.50768C109.083 8.01426 109.06 7.49842 108.947 7.02743L108.895 6.98258ZM2.06458 1.42791C3.06307 1.68957 3.97147 2.32503 4.69218 3.14739C5.51799 4.07441 6.14111 5.20329 6.63659 6.37702C6.60656 6.36207 6.57653 6.35459 6.54651 6.33964C5.34532 5.8238 4.22672 5.136 3.37087 4.21646C2.65016 3.44643 2.20723 2.47455 2.05708 1.42791H2.06458Z" fill="url(#paint0_linear_1405_17542)"/>
</g>
<defs>
<linearGradient id="paint0_linear_1405_17542" x1="4.87639e-05" y1="54.5" x2="109" y2="54.5" gradientUnits="userSpaceOnUse">
<stop stop-color="#A47A3F"/>
<stop offset="0.41" stop-color="#E6B672"/>
<stop offset="0.53" stop-color="#FAC982"/>
<stop offset="0.65" stop-color="#E9B772"/>
<stop offset="0.89" stop-color="#BE8A4B"/>
<stop offset="1" stop-color="#A87338"/>
</linearGradient>
<clipPath id="clip0_1405_17542">
<rect width="109" height="109" fill="white"/>
</clipPath>
</defs>
</svg>
