<?xml version="1.0" standalone="no"?>
<!DOCTYPE svg PUBLIC "-//W3C//DTD SVG 20010904//EN"
 "http://www.w3.org/TR/2001/REC-SVG-20010904/DTD/svg10.dtd">
<svg version="1.0" xmlns="http://www.w3.org/2000/svg"
 width="160.000000pt" height="160.000000pt" viewBox="0 0 160.000000 160.000000"
 preserveAspectRatio="xMidYMid meet">
<metadata>
Created by potrace 1.11, written by Peter Selinger 2001-2013
</metadata>
<g transform="translate(0.000000,160.000000) scale(0.100000,-0.100000)"
fill="#000000" stroke="none">
<path d="M698 1595 c-1 -2 -22 -6 -45 -10 -236 -35 -474 -220 -581 -453 -49
-107 -70 -214 -67 -342 4 -139 8 -161 49 -270 115 -308 405 -512 731 -514 129
-1 169 5 269 38 250 84 431 273 516 541 17 53 23 99 25 191 5 177 -29 303
-119 447 -40 65 -127 164 -182 207 -85 68 -231 133 -347 155 -61 12 -240 19
-249 10z m292 -49 c225 -60 415 -220 510 -430 83 -182 90 -394 19 -586 -50
-137 -175 -291 -303 -375 -48 -31 -226 -111 -226 -101 0 2 -30 -3 -67 -10 -37
-7 -107 -11 -154 -9 -330 12 -614 237 -710 560 -27 90 -33 264 -13 359 61 290
280 518 568 591 110 28 272 28 376 1z"/>
<path d="M758 1515 c-2 -2 -25 -5 -53 -9 -221 -27 -423 -166 -531 -365 -149
-275 -104 -607 115 -834 141 -146 313 -217 519 -215 78 1 127 7 191 25 47 14
88 29 89 34 2 5 11 9 19 9 8 0 45 20 82 44 331 220 422 656 207 985 -131 199
-329 310 -578 325 -32 1 -59 2 -60 1z m356 -267 c-13 -43 -46 -108 -55 -108
-4 0 -30 -14 -56 -31 -49 -31 -78 -33 -174 -14 -13 3 -37 8 -54 11 -35 6 -31
2 -39 40 l-7 31 178 46 c214 54 217 55 207 25z m-449 -129 c0 -25 -8 -37 -34
-55 -142 -97 -180 -279 -78 -375 30 -28 91 -59 122 -61 37 -3 42 -13 49 -95
l7 -73 -48 0 c-106 0 -209 43 -270 113 -102 116 -78 316 55 453 50 50 157 124
182 124 10 0 15 -10 15 -31z m501 -265 c-13 -117 -111 -258 -226 -322 l-55
-31 -16 70 -16 71 38 23 c50 32 105 90 121 128 12 27 126 115 152 117 4 0 6
-25 2 -56z m-521 -594 c0 -20 -6 -26 -27 -28 -35 -4 -57 -29 -34 -38 9 -3 25
-4 36 -1 11 3 23 1 26 -4 3 -5 -1 -9 -10 -9 -8 0 -20 -2 -28 -5 -7 -3 -22 1
-32 8 -25 18 -13 57 17 57 12 0 29 5 37 10 13 9 13 11 0 20 -8 5 -25 8 -37 5
-13 -2 -23 1 -23 6 0 6 17 9 38 7 32 -3 37 -6 37 -28z m125 10 c29 -53 -19
-116 -65 -86 -23 16 -31 56 -15 86 15 27 65 27 80 0z m130 0 c17 -33 8 -73
-19 -87 -47 -23 -87 29 -62 83 14 31 65 34 81 4z m123 5 c19 -18 14 -75 -7
-90 -18 -14 -58 -13 -63 1 -2 5 11 9 29 9 17 0 33 6 35 13 3 8 -6 12 -26 12
-36 0 -60 32 -40 56 15 18 53 18 72 -1z"/>
<path d="M711 271 c-19 -12 -22 -58 -5 -72 7 -6 24 -9 37 -5 19 4 24 12 23 36
-1 17 -8 35 -16 40 -18 12 -22 12 -39 1z"/>
<path d="M829 258 c-23 -43 26 -89 59 -56 25 25 10 66 -26 73 -15 2 -26 -3
-33 -17z"/>
<path d="M964 266 c-8 -21 1 -31 32 -31 17 -1 24 5 24 17 0 10 -4 18 -9 18 -5
0 -16 3 -25 6 -10 4 -18 0 -22 -10z"/>
</g>
</svg>
