<?xml version="1.0" standalone="no"?>
<!DOCTYPE svg PUBLIC "-//W3C//DTD SVG 20010904//EN"
 "http://www.w3.org/TR/2001/REC-SVG-20010904/DTD/svg10.dtd">
<svg version="1.0" xmlns="http://www.w3.org/2000/svg"
 width="260.000000pt" height="260.000000pt" viewBox="0 0 260.000000 260.000000"
 preserveAspectRatio="xMidYMid meet">
<metadata>
Created by potrace 1.11, written by Peter Selinger 2001-2013
</metadata>
<g transform="translate(0.000000,260.000000) scale(0.100000,-0.100000)"
fill="#000000" stroke="none">
<path d="M2410 2077 c-94 -142 -215 -307 -343 -467 -56 -69 -103 -127 -106
-130 -3 -3 -35 -39 -71 -80 -141 -164 -380 -404 -497 -500 -10 -8 -46 -39 -81
-67 -102 -85 -105 -85 -71 3 63 165 155 332 271 497 94 132 145 174 199 162
29 -7 31 -6 24 16 -13 41 -43 85 -93 131 -57 54 -104 80 -147 83 -16 1 -47 7
-68 14 -21 7 -50 10 -64 6 -45 -11 -120 -100 -262 -310 -76 -112 -248 -299
-458 -496 -92 -87 -194 -171 -200 -165 -8 7 112 242 180 351 110 177 240 356
308 422 41 41 95 63 118 48 22 -13 10 32 -20 81 -53 82 -129 140 -205 154 -27
5 -67 13 -89 19 -32 8 -45 7 -64 -6 -169 -111 -496 -637 -619 -998 -34 -99
-40 -125 -49 -201 -4 -43 -1 -57 20 -90 58 -91 114 -136 158 -127 17 3 36 -1
50 -11 32 -22 53 -20 99 9 82 52 280 227 414 366 76 79 136 135 131 124 -22
-58 -47 -168 -51 -231 -5 -59 -2 -78 14 -110 30 -58 102 -121 149 -129 21 -4
59 -13 85 -20 45 -13 50 -12 95 12 75 39 232 170 383 318 430 422 779 863 958
1212 50 97 96 203 88 203 -3 0 -46 -61 -96 -136 -50 -75 -136 -197 -191 -270
-99 -133 -286 -364 -295 -364 -4 0 85 120 97 130 11 9 156 225 197 291 81 134
190 355 179 365 -2 2 -37 -47 -77 -109z m-1427 -894 c-4 -10 -13 -29 -20 -43
-15 -30 -234 -250 -248 -250 -5 0 -3 6 5 13 8 7 51 52 95 102 44 49 96 107
115 128 19 21 39 45 43 53 11 20 18 17 10 -3z"/>
</g>
</svg>
