<?xml version="1.0" encoding="UTF-8"?><svg id="Layer_2" xmlns="http://www.w3.org/2000/svg" viewBox="0 0 355.47 57.89"><defs><style>.cls-1{isolation:isolate;}.cls-2{fill:#fff;stroke-width:0px;}</style></defs><g id="_アートボード_1" class="cls-1"><g id="_ワタシガクラウド"><path class="cls-2" d="M34.56,49.11l-8.64,8.64H4.32v-8.64h18l3.6-3.53V14.62H8.64v12.96H0V5.98h34.56v43.13Z"/><path class="cls-2" d="M43.2,31.9v-8.64h.72l3.6-3.6V5.98h30.24v43.2l-8.64,8.64h-21.6v-8.64h18l3.6-3.6v-9.36h-8.78v-8.64h8.78v-12.96h-12.96v8.64l-8.64,8.64h-4.32Z"/><path class="cls-2" d="M86.33,14.62V5.98h17.28v8.64h-17.28ZM120.89,10.01v39.17l-8.64,8.64h-25.92v-10.73h8.64v2.09h13.68l3.6-3.53V10.01h8.64ZM86.33,31.9v-8.64h17.28v8.64h-17.28Z"/><path class="cls-2" d="M164.16,57.32h-17.28v-8.64h8.64v-29.59h-10.37l-6.41,38.24h-9.14l6.34-38.24h-6.34v-8.64h7.78l.86-4.97h9.15l-.79,4.97h17.57v46.88ZM166.61,8.64V0h4.32v8.64h-4.32ZM177.63,0v8.64h-4.32V0h4.32Z"/><path class="cls-2" d="M220.75,49.18l-8.57,8.64h-21.6v-8.64h18l3.6-3.53V14.62h-12.96v8.64l-8.64,8.64h-4.32v-8.64h.72l3.6-3.53V5.98h30.17v43.2Z"/><path class="cls-2" d="M264.03,5.98v8.64h-34.56V5.98h34.56ZM264.03,23.26v25.92l-8.64,8.64h-25.92v-8.64h22.32l3.6-3.6v-13.68h-25.92v-8.64h34.56Z"/><path class="cls-2" d="M307.23,49.25l-8.64,8.64h-21.53v-8.64h18l3.53-3.6v-25.99h-17.21v8.57h-8.64V11.02h12.96v-4.97h8.64v4.97h12.89v38.24Z"/><path class="cls-2" d="M350.5,31.9v9l-25.85-6.99v23.91h-8.64V6.05h8.64v18.94l25.85,6.91ZM344.45,9.22V.58h4.32v8.64h-4.32ZM355.47.58v8.64h-4.32V.58h4.32Z"/></g></g></svg>