<?xml version="1.0" standalone="no"?>
<!DOCTYPE svg PUBLIC "-//W3C//DTD SVG 20010904//EN"
 "http://www.w3.org/TR/2001/REC-SVG-20010904/DTD/svg10.dtd">
<svg version="1.0" xmlns="http://www.w3.org/2000/svg"
 width="700.000000pt" height="700.000000pt" viewBox="0 0 700.000000 700.000000"
 preserveAspectRatio="xMidYMid meet">
<metadata>
Created by potrace 1.14, written by Peter Selinger 2001-2017
</metadata>
<g transform="translate(0.000000,700.000000) scale(0.100000,-0.100000)"
fill="#000000" stroke="none">
<path d="M3269 6996 c-2 -2 -42 -7 -89 -10 -153 -12 -174 -15 -345 -47 -867
-159 -1682 -680 -2183 -1394 -31 -44 -60 -84 -65 -90 -24 -30 -126 -201 -182
-306 -172 -325 -310 -730 -359 -1064 -4 -22 -8 -53 -11 -70 -23 -148 -30 -266
-30 -495 0 -238 11 -397 35 -525 5 -27 12 -66 15 -85 62 -378 221 -806 431
-1157 65 -109 157 -248 200 -303 140 -178 204 -250 334 -381 443 -444 969
-749 1570 -908 63 -16 130 -33 148 -36 18 -3 64 -12 102 -20 165 -35 403 -57
625 -58 119 -1 340 9 382 17 12 3 50 7 85 11 51 5 155 23 288 50 139 28 419
115 575 180 640 264 1195 720 1582 1300 102 153 237 405 308 575 55 130 148
410 169 510 3 14 15 68 26 120 12 52 22 106 24 120 37 250 49 393 49 595 1
118 -11 346 -18 369 -2 6 -6 38 -10 71 -23 246 -127 633 -242 904 -47 111
-160 337 -202 406 -116 189 -268 400 -386 535 -95 109 -307 314 -414 400 -24
19 -58 47 -75 61 -181 149 -525 350 -795 463 -235 98 -588 199 -776 221 -22 3
-51 7 -65 10 -14 2 -52 7 -85 11 -33 3 -73 8 -90 11 -34 5 -521 13 -526 9z
m401 -220 c63 -4 131 -8 150 -11 19 -2 55 -7 80 -10 656 -82 1327 -400 1804
-854 123 -118 193 -192 288 -307 270 -326 481 -719 602 -1118 42 -137 37 -119
75 -299 16 -77 33 -167 36 -200 4 -34 9 -71 11 -82 24 -125 23 -605 -2 -765
-16 -110 -27 -173 -40 -240 -8 -41 -16 -85 -18 -97 -19 -95 -109 -381 -151
-478 -7 -16 -25 -59 -40 -95 -105 -253 -342 -626 -537 -845 -124 -139 -339
-341 -474 -444 -206 -158 -540 -347 -774 -438 -177 -69 -405 -137 -560 -167
-14 -2 -49 -9 -79 -15 -30 -6 -79 -14 -109 -17 -31 -3 -64 -8 -75 -10 -51 -9
-237 -18 -387 -18 -182 0 -305 8 -445 29 -16 2 -52 7 -80 11 -27 3 -53 8 -56
10 -4 2 -24 6 -45 10 -22 3 -66 12 -99 21 -33 8 -67 16 -75 18 -221 44 -618
210 -880 370 -288 175 -594 436 -805 688 -369 438 -628 996 -720 1547 -23 141
-28 185 -40 330 -6 71 -6 369 -1 440 8 91 17 186 21 210 2 14 6 42 9 63 3 20
9 54 12 75 53 343 240 838 428 1132 218 339 458 613 736 837 99 80 330 239
430 297 49 28 307 156 315 156 2 0 28 11 57 24 145 67 493 171 638 191 25 4
63 10 85 15 22 4 69 12 105 16 36 4 74 8 85 10 11 1 70 5 130 9 61 4 111 8
112 9 3 2 172 -2 283 -8z"/>
<path d="M3387 6434 c-1 -1 -51 -4 -112 -8 -60 -3 -121 -8 -135 -10 -14 -2
-50 -7 -80 -11 -30 -3 -98 -15 -150 -26 -52 -11 -106 -22 -120 -25 -37 -7
-153 -41 -250 -74 -497 -165 -968 -491 -1315 -911 -53 -64 -145 -189 -145
-197 0 -5 -7 -15 -15 -22 -27 -23 -145 -226 -215 -373 -110 -230 -186 -459
-235 -712 -30 -152 -49 -365 -49 -545 2 -959 465 -1843 1254 -2392 337 -234
757 -407 1150 -473 52 -9 106 -18 120 -20 154 -27 590 -27 770 0 373 54 709
164 1007 329 51 28 93 53 93 56 0 3 -492 497 -1094 1098 l-1093 1094 -189
-188 c-104 -103 -211 -204 -239 -225 -103 -77 -271 -151 -384 -167 -25 -4
-104 -7 -176 -6 -103 0 -146 5 -209 22 -253 72 -451 230 -575 461 -30 56 -70
165 -77 211 -3 19 -10 55 -14 80 -17 85 -4 266 25 365 48 165 116 278 240 401
113 113 255 193 415 235 177 45 411 23 583 -55 128 -58 184 -102 394 -310 112
-110 205 -198 208 -195 2 2 495 494 1095 1094 l1091 1089 -23 18 c-28 21 -261
137 -338 168 -30 12 -68 28 -85 35 -51 21 -249 84 -320 101 -46 11 -207 45
-235 49 -19 3 -48 8 -65 10 -93 16 -240 27 -383 29 -67 1 -123 1 -125 0z"/>
<path d="M4651 5091 l-681 -680 116 -55 c161 -77 216 -120 428 -331 102 -102
188 -185 192 -185 4 0 283 277 621 615 l615 615 -25 42 c-26 44 -175 249 -188
258 -4 3 -22 23 -39 45 -53 67 -213 228 -322 324 l-37 32 -680 -680z"/>
<path d="M5586 4091 l-569 -569 566 -566 c311 -311 569 -566 572 -566 21 0
139 361 170 519 20 101 46 261 52 327 15 150 6 643 -12 674 -2 3 -6 28 -9 55
-19 139 -70 348 -125 505 -39 113 -69 190 -74 190 -1 0 -258 -256 -571 -569z"/>
<path d="M1725 3979 c-122 -22 -235 -96 -304 -199 -53 -80 -75 -154 -75 -255
-1 -115 25 -196 91 -283 141 -187 411 -237 611 -112 25 16 128 111 229 211
l184 184 -177 175 c-97 97 -197 190 -223 208 -90 60 -230 90 -336 71z"/>
<path d="M3636 3973 c-125 -28 -240 -115 -300 -225 -61 -112 -75 -218 -45
-338 24 -92 58 -151 127 -218 147 -143 364 -172 546 -74 48 26 435 396 425
407 -64 73 -376 374 -406 391 -103 61 -236 83 -347 57z"/>
<path d="M4540 3044 c-219 -220 -285 -272 -441 -348 l-128 -62 679 -679 679
-679 48 39 c84 68 285 277 371 387 83 105 192 258 192 269 0 4 -1216 1223
-1233 1236 -2 1 -77 -72 -167 -163z"/>
</g>
</svg>
