<?xml version="1.0" encoding="utf-8"?>
<!-- Generator: Adobe Illustrator 25.2.1, SVG Export Plug-In . SVG Version: 6.00 Build 0)  -->
<svg version="1.1" id="Layer_1" xmlns="http://www.w3.org/2000/svg" xmlns:xlink="http://www.w3.org/1999/xlink" x="0px" y="0px"
	 viewBox="0 0 34.1 29" style="enable-background:new 0 0 34.1 29;" xml:space="preserve">
<style type="text/css">
	.st0{fill:#FFFFFF;}
</style>
<g id="Layer_2_1_">
	<g id="Layer_1-2">
		<path class="st0" d="M16.5,24.8c0.3-0.3,0.8-0.3,1.1,0c0,0,0,0,0,0l4,3.9c0.2,0.2,0.4,0.2,0.6,0.2c0.2,0,0.4-0.1,0.6-0.2l0.9-0.9
			c0.2-0.2,0.2-0.4,0.2-0.6c0-0.2-0.1-0.4-0.2-0.6l-4-4c-0.2-0.2-0.2-0.4-0.2-0.6c0-0.2,0.1-0.4,0.2-0.6l1.9-1.9
			c0.3-0.3,0.8-0.3,1.1,0l4,4c0.3,0.3,0.8,0.3,1.1,0l0.9-0.9c0.3-0.3,0.3-0.8,0-1.1l-9-9.1c-0.2-0.2-0.2-0.4-0.2-0.6
			c0-0.2,0.1-0.4,0.2-0.6l1.9-1.9c0.2-0.1,0.4-0.2,0.6-0.2c0.2,0,0.4,0.1,0.6,0.2l9.1,9.1c0.2,0.2,0.4,0.2,0.6,0.2
			c0.2,0,0.4-0.1,0.6-0.2l0.9-0.9c0.1-0.2,0.2-0.4,0.2-0.6c0-0.2-0.1-0.4-0.2-0.6L17.6,0.2C17.5,0.1,17.3,0,17,0
			c-0.2,0-0.4,0.1-0.6,0.2L0.2,16.5C0.1,16.6,0,16.8,0,17c0,0.2,0.1,0.4,0.2,0.6l0.9,0.9c0.3,0.3,0.8,0.3,1.1,0L16.5,4.3
			c0.3-0.3,0.8-0.3,1.1,0c0,0,0,0,0,0l1.9,1.9c0.3,0.3,0.3,0.8,0,1.2L5.3,21.6c-0.1,0.2-0.2,0.4-0.2,0.6c0,0.2,0.1,0.4,0.2,0.6
			l0.9,0.9c0.3,0.3,0.8,0.3,1.1,0l9.1-9.1c0.3-0.3,0.8-0.3,1.1,0l1.9,1.9c0.2,0.2,0.2,0.4,0.2,0.6c0,0.2-0.1,0.4-0.2,0.6l-9.1,9.1
			c-0.1,0.2-0.2,0.4-0.2,0.6c0,0.2,0.1,0.4,0.2,0.6l0.9,0.9c0.3,0.3,0.8,0.3,1.1,0L16.5,24.8z"/>
	</g>
</g>
</svg>
