<?xml version="1.0" encoding="UTF-8"?><svg id="Layer_2" xmlns="http://www.w3.org/2000/svg" viewBox="0 0 59.9 59.91"><defs><style>.cls-1{fill:#000;stroke-width:0px;}</style></defs><g id="Layer_1-2"><path class="cls-1" d="M0,29.96c0-7.2,0-14.39,0-21.59C0,3.49,3.49,0,8.38,0,22.77,0,37.16,0,51.55,0c4.84,0,8.35,3.49,8.35,8.33,0,14.41,0,28.83,0,43.24,0,4.84-3.5,8.34-8.34,8.34-14.41,0-28.82,0-43.23,0C3.52,59.91,0,56.4,0,51.61c0-7.22,0-14.43,0-21.65ZM55.9,30.02c0-7.18,0-14.35,0-21.53,0-2.83-1.66-4.5-4.49-4.5-14.31,0-28.61,0-42.92,0-2.83,0-4.49,1.66-4.49,4.49,0,14.31,0,28.62,0,42.93,0,2.83,1.66,4.5,4.49,4.5,14.31,0,28.61,0,42.92,0,2.83,0,4.49-1.66,4.5-4.49,0-7.13,0-14.27,0-21.4Z"/><path class="cls-1" d="M22.37,47c-3.71-.2-6.9-2.09-8.59-5.98-1.69-3.9-1.04-7.59,1.81-10.77,1.4-1.56,2.94-3,4.44-4.47.85-.83,2.07-.84,2.85-.06.81.79.8,2.03-.05,2.9-1.44,1.47-2.95,2.88-4.34,4.39-2.98,3.22-1.55,8.45,2.64,9.73,2.25.68,4.28.17,5.98-1.46,1.41-1.35,2.77-2.75,4.15-4.14.57-.58,1.25-.82,2.04-.61,1.38.37,2,2.1,1.02,3.13-1.77,1.86-3.59,3.71-5.53,5.39-1.65,1.43-3.73,1.95-6.41,1.97Z"/><path class="cls-1" d="M46.98,22.88c-.03,2.58-.86,4.86-2.63,6.75-1.47,1.56-3,3.05-4.53,4.55-.83.81-2.08.77-2.85-.03-.75-.78-.74-1.99.06-2.81,1.45-1.49,2.98-2.91,4.38-4.43,2.96-3.21,1.57-8.39-2.59-9.7-2.14-.68-4.14-.28-5.8,1.25-1.5,1.38-2.91,2.85-4.34,4.3-.57.57-1.23.85-2.03.66-1.41-.33-2.07-2.1-1.07-3.15,1.74-1.84,3.46-3.74,5.45-5.3,3.17-2.48,6.76-2.72,10.39-1.01,3.44,1.62,5.56,5.12,5.57,8.93Z"/><path class="cls-1" d="M25.96,36.21c-1.11-.08-1.74-.46-2.07-1.24-.33-.78-.2-1.52.38-2.14.62-.67,1.29-1.3,1.93-1.95,2.18-2.18,4.35-4.35,6.53-6.53.58-.58,1.26-.78,2.06-.53.74.23,1.19.75,1.35,1.5.15.68-.04,1.29-.52,1.78-2.83,2.84-5.66,5.69-8.52,8.5-.34.34-.88.48-1.13.61Z"/></g></svg>