<?xml version="1.0" encoding="UTF-8"?><svg id="Layer_2" xmlns="http://www.w3.org/2000/svg" viewBox="0 0 56.34 63.88"><defs><style>.cls-1{fill:#000;stroke-width:0px;}</style></defs><g id="Layer_1-2"><path class="cls-1" d="M.85,63.88C.18,63.47,0,62.87,0,62.1c.01-15.95.01-31.9.01-47.84,0-1.46.34-1.8,1.8-1.8,4.2,0,8.4,0,12.6,0h.79v-.74c0-3.37,0-6.74,0-10.11,0-1.16.43-1.59,1.57-1.6C25.51,0,34.24.01,42.97,0c.72,0,1.25.22,1.76.73,3.63,3.66,7.28,7.31,10.94,10.94.46.46.67.97.67,1.61,0,3.45,0,6.9,0,10.35,0,.04,0,.08,0,.12-.03.86-.53,1.42-1.26,1.41-.73,0-1.23-.56-1.23-1.42,0-2.95,0-5.91,0-8.86,0-.24,0-.49,0-.78-.3,0-.53,0-.75,0-3.1,0-6.2,0-9.29,0-1.12,0-1.55-.42-1.55-1.54,0-3.1,0-6.2,0-9.29,0-.23,0-.45,0-.72h-24.5v9.9c.24,0,.47,0,.69,0,3.06,0,6.11.02,9.17-.01.85,0,1.49.22,2.09.85,1.98,2.05,4.02,4.03,6.02,6.06.3.31.6.44,1.03.43,3.37-.02,6.74,0,10.11,0,.27,0,.54,0,.81.06.58.12.98.63.97,1.21,0,.58-.41,1.08-.99,1.19-.24.05-.5.05-.74.05-2.45,0-4.91,0-7.36,0-.22,0-.45,0-.85,0,.54.55.93,1.03,1.41,1.41.86.69,1.2,1.55,1.06,2.63-.04.3,0,.62,0,1,.29,0,.53,0,.78,0,1.77,0,3.53,0,5.3,0,.86,0,1.41.5,1.4,1.25,0,.73-.57,1.24-1.42,1.24-1.99,0-3.99,0-6.02,0v5.02c.22,0,.44,0,.66,0,1.77,0,3.53,0,5.3,0,.89,0,1.48.51,1.47,1.25,0,.76-.56,1.24-1.48,1.24-1.97,0-3.94,0-5.96,0v11.58h12.65v-.76c0-4.14,0-8.28,0-12.41,0-.25,0-.5.02-.75.07-.57.51-.99,1.07-1.05.6-.06,1.15.26,1.31.83.08.27.09.57.09.86,0,4.7,0,9.4,0,14.1,0,1.34-.38,1.72-1.7,1.72-4.22,0-8.44,0-12.66,0h-.83c0,.26,0,.48,0,.7,0,3.35-.02,6.7.01,10.04,0,.77-.22,1.33-.88,1.7H.85ZM2.57,14.98v46.37h36.05V26.55h-.76c-3.01,0-6.03,0-9.04,0-1.37,0-1.76-.38-1.76-1.73,0-3.06,0-6.11,0-9.17,0-.22,0-.44,0-.68H2.57ZM36.53,24.01c-2.32-2.32-4.68-4.68-6.95-6.95v6.95h6.95ZM51.71,11.59c-2.29-2.3-4.66-4.66-6.93-6.93v6.93h6.93Z"/><path class="cls-1" d="M53.85,29.52c0-.69.53-1.22,1.22-1.22.69,0,1.24.53,1.25,1.21.01.69-.58,1.28-1.27,1.27-.68-.01-1.21-.57-1.21-1.25Z"/><path class="cls-1" d="M20.58,32.7c3.66,0,7.31,0,10.97,0,.81,0,1.29.35,1.44,1.01.14.66-.33,1.35-1.03,1.46-.18.03-.37.02-.56.02-7.21,0-14.41,0-21.62,0-.15,0-.29,0-.44,0-.68-.06-1.16-.56-1.17-1.22,0-.69.48-1.23,1.19-1.26.64-.03,1.29,0,1.93,0,3.09,0,6.19,0,9.28,0Z"/><path class="cls-1" d="M20.6,42.71c-3.58,0-7.15,0-10.73,0-.21,0-.42,0-.62-.02-.6-.07-1.03-.52-1.08-1.11-.05-.6.28-1.12.86-1.28.24-.07.49-.08.74-.08,7.19,0,14.39,0,21.58,0,.1,0,.21,0,.31,0,.8.05,1.35.56,1.35,1.27,0,.71-.56,1.22-1.37,1.22-3.68,0-7.36,0-11.04,0Z"/><path class="cls-1" d="M20.6,47.76c3.66,0,7.32,0,10.98,0,1.05,0,1.71.8,1.32,1.64-.16.34-.59.58-.93.8-.15.1-.4.05-.61.05-7.17,0-14.35,0-21.52,0-.19,0-.38,0-.56-.02-.69-.1-1.13-.62-1.1-1.29.02-.66.5-1.17,1.2-1.18,1.56-.02,3.12-.01,4.68-.01,2.18,0,4.37,0,6.55,0Z"/></g></svg>