<?xml version="1.0" encoding="UTF-8"?><svg id="Layer_2" xmlns="http://www.w3.org/2000/svg" viewBox="0 0 22 22"><defs><style>.cls-1{fill:#343a40;stroke-width:0px;}</style></defs><g id="Layer_1-2"><path class="cls-1" d="m22,14.31c-.06.26-.11.53-.19.79-.5,1.5-1.86,2.49-3.49,2.5-1.47.01-2.95,0-4.42,0-.45,0-.77-.33-.76-.76.01-.42.34-.71.78-.71,1.43,0,2.86,0,4.3,0,1.15,0,2.01-.65,2.26-1.7.05-.19.06-.4.06-.6,0-3.37,0-6.73,0-10.1,0-1.34-.95-2.29-2.29-2.29-4.83,0-9.66,0-14.5,0-1.34,0-2.29.95-2.29,2.29,0,3.35,0,6.7,0,10.05,0,1.39.93,2.33,2.33,2.33,2.35,0,4.7,0,7.04,0,.13,0,.26,0,.38.03.32.09.51.37.51.73,0,1.12,0,2.25,0,3.37,0,.08,0,.15,0,.25.08,0,.14.01.2.01.9,0,1.8,0,2.71,0,.44,0,.73.21.81.58.08.36-.11.68-.51.86-.01,0-.02.02-.03.03h-7.82s-.02-.02-.03-.03c-.4-.18-.59-.49-.51-.86.08-.37.38-.58.81-.58.9,0,1.8,0,2.71,0,.06,0,.12,0,.19-.01v-2.92c-.1,0-.2,0-.29,0-2.08,0-4.15,0-6.23,0C1.61,17.6,0,15.99,0,13.86,0,10.46,0,7.06,0,3.66,0,1.64,1.63,0,3.65,0c4.91,0,9.82,0,14.73,0,1.64,0,3.08,1.13,3.5,2.72.05.18.08.36.12.54v11.04Z"/><path class="cls-1" d="m12.18,9.55h-1.86c-.28,1.06-.9,1.86-1.92,2.32-.72.33-1.48.38-2.24.17-1.56-.42-2.55-1.84-2.46-3.52.08-1.46,1.3-2.78,2.76-3.03,1.7-.29,3.44.75,3.88,2.58.07,0,.14,0,.21,0,2.36,0,4.73,0,7.09,0,.46,0,.78.3.78.73,0,.43-.32.73-.78.73-.28,0-.56,0-.86,0,0,.2,0,.38,0,.57,0,.42,0,.85,0,1.27,0,.4-.34.71-.74.71-.39,0-.71-.31-.72-.71,0-.6,0-1.2,0-1.82h-1.68c0,.11,0,.22,0,.33,0,.5,0,1,0,1.5,0,.43-.32.76-.71.76-.39,0-.71-.32-.72-.75,0-.54,0-1.07,0-1.61,0-.08,0-.15,0-.24Zm-3.25-.73c.01-1.02-.82-1.88-1.85-1.9-1.04-.02-1.91.84-1.92,1.88,0,1.01.85,1.89,1.82,1.89,1.08,0,1.94-.83,1.95-1.87Z"/></g></svg>