<?xml version="1.0" encoding="UTF-8"?><svg id="Layer_2" xmlns="http://www.w3.org/2000/svg" viewBox="0 0 22 22.01"><defs><style>.cls-1{fill:#343a40;stroke-width:0px;}</style></defs><g id="Layer_1-2"><path class="cls-1" d="m10.49,0c3.11,0,5.63,2.51,5.64,5.62,0,3.1-2.52,5.63-5.63,5.63-3.11,0-5.63-2.51-5.63-5.62C4.86,2.52,7.38,0,10.49,0Z"/><path class="cls-1" d="m12,12.21c-.64.97-.53,1.83.3,2.64-.67-.03-1.21.15-1.63.63-.29.34-.44.74-.43,1.19,0,1.02.68,1.62,2.03,1.79-.77.76-.9,1.59-.33,2.54-.1,0-.17,0-.24,0-3.29,0-6.59,0-9.88,0-.9,0-1.59-.53-1.77-1.37-.04-.19-.04-.4-.04-.6,0-.58-.04-1.16.04-1.72.15-1.13.82-1.97,1.68-2.67,1.09-.88,2.35-1.41,3.68-1.8,2.02-.59,4.09-.76,6.19-.66.13,0,.25.02.4.04Z"/><path class="cls-1" d="m19.73,18.67c.19.19.42.41.65.63.34.35.36.82.05,1.13-.31.32-.79.3-1.13-.04-.23-.22-.45-.46-.64-.66-.41.16-.78.29-1.15.45-.06.02-.11.12-.12.19-.01.28,0,.56,0,.84,0,.46-.32.79-.75.79-.43,0-.76-.32-.78-.77-.01-.29,0-.58,0-.86,0-.07-.06-.17-.11-.19-.18-.08-.38-.13-.56-.2-.18-.07-.34-.17-.55-.27-.21.22-.43.45-.66.68-.36.35-.84.37-1.15.05-.31-.32-.28-.78.07-1.13.22-.22.45-.43.66-.63-.18-.44-.35-.84-.52-1.26-.3,0-.63,0-.96,0-.46,0-.79-.32-.81-.75-.01-.43.33-.77.79-.79.28,0,.56,0,.84,0,.12,0,.18-.03.22-.16.11-.31.26-.62.37-.93.02-.07,0-.18-.04-.23-.19-.21-.41-.41-.6-.62-.31-.32-.31-.8,0-1.1.3-.29.76-.29,1.08,0,.21.2.41.4.61.61.08.09.15.1.26.04.29-.14.6-.27.9-.38.13-.05.17-.11.17-.24,0-.27,0-.54,0-.82.01-.47.35-.81.78-.81.43,0,.75.35.76.82,0,.28,0,.56,0,.84,0,.06.06.15.11.17.37.15.74.29,1.16.45.19-.2.4-.43.63-.66.35-.34.82-.36,1.13-.05.31.31.29.79-.05,1.13-.22.23-.46.44-.65.63.16.42.3.79.45,1.16.02.05.12.1.18.1.27.01.54,0,.82,0,.49,0,.83.32.83.77,0,.45-.33.76-.83.76-.27,0-.54,0-.82,0-.06,0-.15.05-.18.11-.15.37-.29.74-.45,1.16Zm-1-2.03c0-1.2-.91-2.09-2.14-2.1-1.07-.01-2.1.96-2.07,2.16.03,1.12.96,2.04,2.11,2.04,1.18,0,2.09-.92,2.09-2.1Z"/></g></svg>