<?xml version="1.0" encoding="UTF-8"?><svg id="Layer_2" xmlns="http://www.w3.org/2000/svg" viewBox="0 0 22 18.92"><defs><style>.cls-1{fill:#343a40;stroke-width:0px;}</style></defs><g id="Layer_1-2"><path class="cls-1" d="m0,16.63c.15-.59.51-1.08.81-1.59C3.62,10.38,6.43,5.73,9.24,1.07,9.64.4,10.21,0,11,0c.68,0,1.25.28,1.62.85.43.66.82,1.34,1.23,2.01,2.6,4.31,5.2,8.61,7.79,12.92.58.96.44,2-.36,2.67-.33.28-.72.43-1.16.45-.07,0-.14,0-.21,0-5.94,0-11.87,0-17.81,0-.9,0-1.55-.38-1.93-1.2C.09,17.56.05,17.39,0,17.23c0-.2,0-.4,0-.6Zm11,.85c2.94,0,5.89,0,8.83,0,.09,0,.17,0,.26,0,.39-.06.59-.43.42-.79-.03-.07-.08-.14-.12-.21-1.49-2.47-2.98-4.94-4.47-7.41-1.44-2.39-2.88-4.78-4.32-7.17-.02-.04-.04-.07-.07-.11-.31-.5-.76-.5-1.07,0C7.51,6.71,4.55,11.62,1.59,16.53c-.03.06-.07.11-.09.17-.16.35.03.71.41.78.09.01.19.01.28.01,2.94,0,5.87,0,8.81,0Z"/><path class="cls-1" d="m10.12,9.41c-.03-.86-.05-1.72-.07-2.58-.01-.47.15-.73.54-.87.45-.16,1-.06,1.21.28.11.17.16.4.15.6-.04,1.51-.1,3.02-.15,4.53,0,.2-.03.4-.01.6.02.43-.15.67-.66.73-.21.02-.45-.04-.66-.12-.19-.08-.24-.28-.24-.49-.02-.89-.06-1.79-.08-2.68h-.02Z"/><path class="cls-1" d="m12.03,14.65c0,.54-.46,1.02-1,1.03-.56,0-1.02-.45-1.02-1.02,0-.57.45-1.03,1.01-1.03.54,0,1.01.47,1.01,1.02Z"/></g></svg>