<svg width="28" height="24" viewBox="0 0 28 24" fill="none" xmlns="http://www.w3.org/2000/svg">
<g clip-path="url(#clip0_230_18495)">
<path d="M8.75807 15.2839C6.97458 15.2839 5.48536 16.5659 5.16309 18.2569H12.3528C12.0308 16.5659 10.5413 15.2839 8.75807 15.2839Z" fill="white"/>
<path d="M8.75837 13.601C9.74907 13.601 10.5553 12.7947 10.5553 11.804C10.5553 10.8133 9.74907 10.0071 8.75837 10.0071C7.76766 10.0071 6.96143 10.8133 6.96143 11.804C6.96143 12.7947 7.76739 13.601 8.75837 13.601Z" fill="white"/>
<path d="M24.7352 3.08306H19.1185V2.95514C19.1185 2.27408 18.5642 1.71984 17.8832 1.71984H16.8826V1.3078C16.8826 0.626745 16.3283 0.0725098 15.6473 0.0725098H12.3529C11.6718 0.0725098 11.1176 0.626745 11.1176 1.3078V1.71984H10.1176C9.43649 1.71984 8.88226 2.27408 8.88226 2.95514V3.08306H3.26551C1.50289 3.08306 0.0688477 4.51682 0.0688477 6.27945V20.339C0.0688477 22.1014 1.50289 23.5354 3.26551 23.5354H24.7352C26.4976 23.5354 27.9316 22.1016 27.9316 20.339V6.27945C27.9316 4.5171 26.4976 3.08306 24.7352 3.08306ZM6.81493 14.3025C6.07046 13.722 5.58869 12.8191 5.58869 11.804C5.58869 10.0564 7.01065 8.63447 8.75818 8.63447C10.5057 8.63447 11.9277 10.0564 11.9277 11.804C11.9277 12.8191 11.4462 13.722 10.7014 14.3025C12.514 15.0643 13.7899 16.8571 13.7899 18.9431C13.7899 19.3222 13.4828 19.6294 13.1037 19.6294H4.41242C4.03332 19.6294 3.72614 19.3222 3.72614 18.9431C3.72614 16.8571 5.00234 15.064 6.81493 14.3025ZM22.0016 11.4251H15.5869C15.2078 11.4251 14.9006 11.118 14.9006 10.7389C14.9006 10.3598 15.2078 10.0526 15.5869 10.0526H22.0016C22.3807 10.0526 22.6879 10.3598 22.6879 10.7389C22.6879 11.118 22.3807 11.4251 22.0016 11.4251ZM22.6879 14.1318C22.6879 14.5109 22.3807 14.8181 22.0016 14.8181H15.5869C15.2078 14.8181 14.9006 14.5109 14.9006 14.1318C14.9006 13.7527 15.2078 13.4455 15.5869 13.4455H22.0016C22.3807 13.4455 22.6879 13.753 22.6879 14.1318ZM22.1441 18.2113H17.2029C16.8238 18.2113 16.5167 17.9041 16.5167 17.525C16.5167 17.1459 16.8238 16.8387 17.2029 16.8387H22.1444C22.5235 16.8387 22.8307 17.1459 22.8307 17.525C22.8307 17.9041 22.5232 18.2113 22.1441 18.2113ZM10.2548 3.09267H11.2548C11.9359 3.09267 12.4901 2.53843 12.4901 1.85737V1.44533H15.51V1.85737C15.51 2.53843 16.0643 3.09267 16.7453 3.09267H17.7459V4.83745H10.2548V3.09267Z" fill="white"/>
</g>
<defs>
<clipPath id="clip0_230_18495">
<rect width="28" height="23.6078" fill="white"/>
</clipPath>
</defs>
</svg>
