<svg width="23" height="22" viewBox="0 0 23 22" fill="none" xmlns="http://www.w3.org/2000/svg">
<path d="M9 21H15C20 21 22 19 22 14V8C22 3 20 1 15 1H9C4 1 2 3 2 8V14C2 19 4 21 9 21Z" stroke="#343A40" stroke-width="1.5" stroke-linecap="round" stroke-linejoin="round"/>
<path d="M9.6308 13.0956C8.98589 13.5389 7.29498 14.4443 8.32486 15.5771C8.82795 16.1305 9.38826 16.5263 10.0927 16.5263H14.1124C14.8169 16.5263 15.3772 16.1305 15.8803 15.5771C16.9101 14.4443 15.2192 13.5389 14.5743 13.0956C13.062 12.0559 11.1431 12.0559 9.6308 13.0956Z" stroke="#343A40" stroke-width="1.5"/>
<path d="M14.1538 8.10526C14.1538 9.26797 13.2355 10.2105 12.1026 10.2105C10.9697 10.2105 10.0513 9.26797 10.0513 8.10526C10.0513 6.94256 10.9697 6 12.1026 6C13.2355 6 14.1538 6.94256 14.1538 8.10526Z" stroke="#343A40" stroke-width="1.5"/>
<path d="M3.5641 4.15784L1 4.15784M3.5641 10.4736L1 10.4736M3.5641 16.7894H1" stroke="#343A40" stroke-width="1.5" stroke-linecap="round" stroke-linejoin="round"/>
</svg>
