<svg width="25" height="24" viewBox="0 0 25 24" fill="none" xmlns="http://www.w3.org/2000/svg">
<path fill-rule="evenodd" clip-rule="evenodd" d="M21.3399 3.66132C19.7779 2.09922 17.2452 2.09922 15.6831 3.66132L15.0514 4.29305L5.07649 14.2679C4.46451 14.8799 4.06752 15.6739 3.94512 16.5307L3.568 19.1705C3.37944 20.4905 4.51081 21.6218 5.83074 21.4333L8.47061 21.0561C9.32739 20.9337 10.1214 20.5368 10.7333 19.9248L20.7082 9.9499L21.3399 9.31817C22.902 7.75607 22.902 5.22342 21.3399 3.66132ZM19.9257 5.07553C20.6815 5.83129 20.706 7.04142 19.9991 7.82661L17.1747 5.00213C17.9598 4.2953 19.17 4.31977 19.9257 5.07553ZM15.7585 6.41437L18.5869 9.24279L9.31913 18.5106C9.01314 18.8166 8.61615 19.015 8.18776 19.0762L5.5479 19.4534L5.92502 16.8135C5.98622 16.3851 6.18471 15.9881 6.49071 15.6821L15.7585 6.41437Z" fill="#4F4F4F"/>
</svg>
