<svg width="26" height="20" viewBox="0 0 26 20" fill="none" xmlns="http://www.w3.org/2000/svg">
<path fill-rule="evenodd" clip-rule="evenodd" d="M18.4482 11.3184C20.0466 12.4034 21.1666 13.8734 21.1666 15.8334V19.3334H24.6666C25.3082 19.3334 25.8332 18.8084 25.8332 18.1667V15.8334C25.8332 13.29 21.6682 11.785 18.4482 11.3184Z" fill="white"/>
<path d="M9.49967 10.0001C12.077 10.0001 14.1663 7.91074 14.1663 5.33342C14.1663 2.75609 12.077 0.666748 9.49967 0.666748C6.92235 0.666748 4.83301 2.75609 4.83301 5.33342C4.83301 7.91074 6.92235 10.0001 9.49967 10.0001Z" fill="white"/>
<path fill-rule="evenodd" clip-rule="evenodd" d="M16.4999 10.0001C19.0782 10.0001 21.1666 7.91175 21.1666 5.33342C21.1666 2.75508 19.0782 0.666748 16.4999 0.666748C15.9516 0.666748 15.4382 0.783414 14.9482 0.946748C15.9166 2.14841 16.4999 3.67675 16.4999 5.33342C16.4999 6.99008 15.9166 8.51842 14.9482 9.72008C15.4382 9.88342 15.9516 10.0001 16.4999 10.0001Z" fill="white"/>
<path fill-rule="evenodd" clip-rule="evenodd" d="M9.49984 11.1667C6.38484 11.1667 0.166504 12.7301 0.166504 15.8334V18.1667C0.166504 18.8084 0.691504 19.3334 1.33317 19.3334H17.6665C18.3082 19.3334 18.8332 18.8084 18.8332 18.1667V15.8334C18.8332 12.7301 12.6148 11.1667 9.49984 11.1667Z" fill="white"/>
</svg>
