<svg width="22" height="22" viewBox="0 0 22 22" fill="none" xmlns="http://www.w3.org/2000/svg">
<path fill-rule="evenodd" clip-rule="evenodd" d="M13.2945 1.38506C11.9172 0.420965 10.0841 0.420962 8.70681 1.38506L1.82923 6.19936C0.670613 7.0104 0.0263913 8.37297 0.134861 9.78308L0.83988 18.9483C0.972847 20.6769 2.53905 21.9333 4.25531 21.6881L7.42492 21.2353C8.90287 21.0241 10.0007 19.7584 10.0007 18.2654V17C10.0007 16.4477 10.4484 16 11.0007 16C11.5529 16 12.0007 16.4477 12.0007 17V18.2654C12.0007 19.7584 13.0984 21.0241 14.5764 21.2353L17.746 21.6881C19.4623 21.9333 21.0285 20.6769 21.1614 18.9483L21.8665 9.78308C21.9749 8.37297 21.3307 7.0104 20.1721 6.19936L13.2945 1.38506ZM9.85373 3.02352C10.5424 2.54148 11.4589 2.54148 12.1476 3.02352L19.0252 7.83783C19.6045 8.24334 19.9266 8.92463 19.8723 9.62969L19.1673 18.7949C19.123 19.3711 18.6009 19.7899 18.0289 19.7082L14.8592 19.2554C14.3666 19.185 14.0007 18.7631 14.0007 18.2654V17C14.0007 15.3432 12.6575 14 11.0007 14C9.3438 14 8.00066 15.3432 8.00066 17V18.2654C8.00066 18.7631 7.63473 19.185 7.14208 19.2554L3.97246 19.7082C3.40038 19.7899 2.87831 19.3711 2.83399 18.7949L2.12897 9.62968C2.07474 8.92463 2.39685 8.24334 2.97616 7.83783L9.85373 3.02352Z" fill="#343A40"/>
</svg>
