<svg width="19" height="20" viewBox="0 0 19 20" fill="none" xmlns="http://www.w3.org/2000/svg">
<g clip-path="url(#clip0_323_19435)">
<path d="M16.273 9.09082H3.54572C2.54157 9.09082 1.72754 9.90485 1.72754 10.909V17.2726C1.72754 18.2768 2.54157 19.0908 3.54572 19.0908H16.273C17.2771 19.0908 18.0912 18.2768 18.0912 17.2726V10.909C18.0912 9.90485 17.2771 9.09082 16.273 9.09082Z" stroke="#0168B7" stroke-width="2" stroke-linecap="round" stroke-linejoin="round"/>
<path d="M5.36377 9.091V5.45463C5.36377 4.2491 5.84266 3.09295 6.6951 2.24051C7.54754 1.38807 8.70369 0.90918 9.90922 0.90918C11.1148 0.90918 12.2709 1.38807 13.1233 2.24051C13.9758 3.09295 14.4547 4.2491 14.4547 5.45463V9.091" stroke="#0168B7" stroke-width="2" stroke-linecap="round" stroke-linejoin="round"/>
</g>
<defs>
<clipPath id="clip0_323_19435">
<rect width="18.1818" height="20" fill="white" transform="translate(0.818359)"/>
</clipPath>
</defs>
</svg>
