<svg width="28" height="26" viewBox="0 0 28 26" fill="none" xmlns="http://www.w3.org/2000/svg">
<g clip-path="url(#clip0_230_18505)">
<path fill-rule="evenodd" clip-rule="evenodd" d="M0.646199 4.87778L10.4558 0.177409C11.164 -0.246295 12.0884 0.25852 12.0884 1.10445V2.5163H19.3855C19.9818 2.5163 20.4647 2.99963 20.4647 3.59556V8.09334C20.4647 9.51296 18.3062 9.51296 18.3062 8.09334V4.67482H12.0884V20.983H18.3062V17.5644C18.3062 16.1452 20.4647 16.1452 20.4647 17.5644V22.0622C20.4647 22.6585 19.9818 23.1415 19.3855 23.1415H12.0884L12.0843 24.5537C12.0851 25.3341 11.2647 25.8674 10.5455 25.5233L0.735829 20.823C0.323977 20.6707 0.0302734 20.2744 0.0302734 19.8104L0.0347178 5.84778C0.0350882 5.44667 0.260644 5.06222 0.646199 4.87778ZM15.3614 11.4615C13.5651 11.4615 13.5651 14.193 15.3614 14.193H23.3321L21.7851 15.7396C20.5155 17.0093 22.4462 18.9404 23.7162 17.6707L27.5862 13.8004C28.1077 13.2789 28.1514 12.4193 27.5862 11.8541L23.7162 7.98371C22.4462 6.71408 20.5155 8.64519 21.7851 9.91482L23.3321 11.4615H15.3614Z" fill="white"/>
</g>
<defs>
<clipPath id="clip0_230_18505">
<rect width="28" height="26" fill="white"/>
</clipPath>
</defs>
</svg>
