<svg width="24" height="24" viewBox="0 0 24 24" fill="none" xmlns="http://www.w3.org/2000/svg">
<path d="M20 9H11C9.89543 9 9 9.89543 9 11V20C9 21.1046 9.89543 22 11 22H20C21.1046 22 22 21.1046 22 20V11C22 9.89543 21.1046 9 20 9Z" stroke="#4F4F4F" stroke-width="2" stroke-linecap="round" stroke-linejoin="round"/>
<path d="M5 15H4C3.46957 15 2.96086 14.7893 2.58579 14.4142C2.21071 14.0391 2 13.5304 2 13V4C2 3.46957 2.21071 2.96086 2.58579 2.58579C2.96086 2.21071 3.46957 2 4 2H13C13.5304 2 14.0391 2.21071 14.4142 2.58579C14.7893 2.96086 15 3.46957 15 4V5" stroke="#4F4F4F" stroke-width="2" stroke-linecap="round" stroke-linejoin="round"/>
<g clip-path="url(#clip0_323_19454)">
<path d="M18.182 14.6362H13.091C12.6894 14.6362 12.3638 14.9618 12.3638 15.3635V17.909C12.3638 18.3106 12.6894 18.6362 13.091 18.6362H18.182C18.5836 18.6362 18.9092 18.3106 18.9092 17.909V15.3635C18.9092 14.9618 18.5836 14.6362 18.182 14.6362Z" stroke="#4F4F4F" stroke-width="2" stroke-linecap="round" stroke-linejoin="round"/>
<path d="M13.8184 14.6365V13.182C13.8184 12.6997 14.0099 12.2373 14.3509 11.8963C14.6919 11.5553 15.1543 11.3638 15.6365 11.3638C16.1188 11.3638 16.5812 11.5553 16.9222 11.8963C17.2632 12.2373 17.4547 12.6997 17.4547 13.182V14.6365" stroke="#4F4F4F" stroke-width="2" stroke-linecap="round" stroke-linejoin="round"/>
</g>
<defs>
<clipPath id="clip0_323_19454">
<rect width="7.27273" height="8" fill="white" transform="translate(12 11)"/>
</clipPath>
</defs>
</svg>
