<svg width="23" height="22" viewBox="0 0 23 22" fill="none" xmlns="http://www.w3.org/2000/svg">
<g clip-path="url(#clip0_308_69954)">
<path d="M7.1 20.35V21.45C7.1 21.7536 6.8536 22 6.55 22H1.05C0.7464 22 0.5 21.7536 0.5 21.45V15.95C0.5 15.6464 0.7464 15.4 1.05 15.4H2.15C2.4536 15.4 2.7 15.6464 2.7 15.95V19.8H6.55C6.8536 19.8 7.1 20.0464 7.1 20.35ZM21.95 15.4H20.85C20.5464 15.4 20.3 15.6464 20.3 15.95V19.8H16.45C16.1464 19.8 15.9 20.0464 15.9 20.35V21.45C15.9 21.7536 16.1464 22 16.45 22H21.95C22.2536 22 22.5 21.7536 22.5 21.45V15.95C22.5 15.6464 22.2536 15.4 21.95 15.4ZM21.95 0H16.45C16.1464 0 15.9 0.2464 15.9 0.55V1.65C15.9 1.9536 16.1464 2.2 16.45 2.2H20.3V6.05C20.3 6.3536 20.5464 6.6 20.85 6.6H21.95C22.2536 6.6 22.5 6.3536 22.5 6.05V0.55C22.5 0.2464 22.2536 0 21.95 0ZM12.6 9.35V3.85C12.6 3.5464 12.8464 3.3 13.15 3.3H18.65C18.9536 3.3 19.2 3.5464 19.2 3.85V9.35C19.2 9.6536 18.9536 9.9 18.65 9.9H13.15C12.8464 9.9 12.6 9.6536 12.6 9.35ZM17 7.7V5.5H14.8V7.7H17ZM10.4 3.85V9.35C10.4 9.6536 10.1536 9.9 9.85 9.9H4.35C4.0464 9.9 3.8 9.6536 3.8 9.35V3.85C3.8 3.5464 4.0464 3.3 4.35 3.3H9.85C10.1536 3.3 10.4 3.5464 10.4 3.85ZM8.2 7.7V5.5H6V7.7H8.2ZM10.4 12.65V18.15C10.4 18.4536 10.1536 18.7 9.85 18.7H4.35C4.0464 18.7 3.8 18.4536 3.8 18.15V12.65C3.8 12.3464 4.0464 12.1 4.35 12.1H9.85C10.1536 12.1 10.4 12.3464 10.4 12.65ZM8.2 16.5V14.3H6V16.5H8.2ZM1.05 6.6H2.15C2.4536 6.6 2.7 6.3536 2.7 6.05V2.2H6.55C6.8536 2.2 7.1 1.9536 7.1 1.65V0.55C7.1 0.2464 6.8536 0 6.55 0H1.05C0.7464 0 0.5 0.2464 0.5 0.55V6.05C0.5 6.3536 0.7464 6.6 1.05 6.6ZM18.65 16.5H17.55C17.2464 16.5 17 16.7464 17 17.05V18.15C17 18.4536 17.2464 18.7 17.55 18.7H18.65C18.9536 18.7 19.2 18.4536 19.2 18.15V17.05C19.2 16.7464 18.9536 16.5 18.65 16.5ZM19.2 12.65C19.2 12.3464 18.9536 12.1 18.65 12.1H17.55C17.2464 12.1 17 12.3464 17 12.65V13.75C17 14.0536 17.2464 14.3 17.55 14.3H18.65C18.9536 14.3 19.2 14.0536 19.2 13.75V12.65ZM17 15.95V14.85C17 14.5464 16.7536 14.3 16.45 14.3H15.35C15.0464 14.3 14.8 14.5464 14.8 14.85V15.95C14.8 16.2536 15.0464 16.5 15.35 16.5H16.45C16.7536 16.5 17 16.2536 17 15.95ZM14.8 12.65C14.8 12.3464 14.5536 12.1 14.25 12.1H13.15C12.8464 12.1 12.6 12.3464 12.6 12.65V13.75C12.6 14.0536 12.8464 14.3 13.15 14.3H14.25C14.5536 14.3 14.8 14.0536 14.8 13.75V12.65Z" fill="#4F4F4F"/>
</g>
<defs>
<clipPath id="clip0_308_69954">
<rect width="22" height="22" fill="white" transform="translate(0.5)"/>
</clipPath>
</defs>
</svg>
