<?xml version="1.0" encoding="UTF-8"?><svg id="Layer_2" xmlns="http://www.w3.org/2000/svg" viewBox="0 0 22.08 22.08"><g id="Layer_1-2"><path d="M11.05,0c2.94,0,5.88,0,8.82,0,1.35,0,2.21.86,2.21,2.2,0,5.89,0,11.79,0,17.68,0,1.33-.87,2.2-2.19,2.2-5.9,0-11.8,0-17.7,0-1.31,0-2.19-.87-2.19-2.18,0-5.91,0-11.82,0-17.73C0,.87.88,0,2.19,0c2.95,0,5.91,0,8.86,0ZM1.12,5.63v.27c0,4.65,0,9.31,0,13.96,0,.75.36,1.1,1.1,1.1,5.88,0,11.76,0,17.64,0,.73,0,1.1-.36,1.1-1.08,0-4.66,0-9.33,0-13.99v-.26H1.12ZM1.13,4.47h19.83c0-.76,0-1.5,0-2.24,0-.76-.35-1.11-1.11-1.11-5.87,0-11.74,0-17.61,0-.08,0-.16,0-.23,0-.46.03-.86.4-.87.86-.02.83,0,1.65,0,2.49Z"/><path d="M11.98,13.29c0-1.7,0-3.4,0-5.1,0-.51.2-.7.71-.7,1.9,0,3.8,0,5.7,0,.49,0,.7.2.7.69,0,3.41,0,6.81,0,10.22,0,.49-.2.69-.7.69-1.91,0-3.82,0-5.73,0-.48,0-.68-.21-.68-.68,0-1.71,0-3.41,0-5.12ZM13.12,8.62v9.33h4.84v-9.33h-4.84Z"/><path d="M6.55,12.35c-.96,0-1.92,0-2.87,0-.47,0-.68-.21-.68-.69,0-1.17,0-2.34,0-3.51,0-.46.21-.67.67-.67,1.92,0,3.85,0,5.77,0,.46,0,.67.21.67.67,0,1.18,0,2.35,0,3.53,0,.45-.21.66-.66.66-.97,0-1.93,0-2.9,0ZM4.13,8.62v2.59h4.84v-2.59h-4.84Z"/><path d="M6.54,19.09c-.96,0-1.92,0-2.87,0-.46,0-.67-.21-.67-.67,0-1.18,0-2.35,0-3.53,0-.46.21-.67.68-.67,1.92,0,3.85,0,5.77,0,.45,0,.66.21.66.66,0,1.18,0,2.37,0,3.55,0,.44-.22.65-.66.66-.97,0-1.93,0-2.9,0ZM4.13,17.95h4.84v-2.59h-4.84v2.59Z"/><path d="M3.55,2.25c.31,0,.57.25.57.56,0,.31-.26.56-.56.56-.3,0-.55-.25-.55-.55,0-.31.25-.57.55-.57Z"/><path d="M6.56,3.37c-.31,0-.57-.25-.57-.56,0-.3.24-.55.54-.56.31-.01.57.24.58.55,0,.31-.25.57-.55.57Z"/><path d="M10.1,2.81c0,.31-.26.56-.57.56-.31,0-.56-.27-.55-.58,0-.3.26-.54.56-.54.31,0,.56.26.56.56Z"/></g></svg>