<svg width="24" height="19" viewBox="0 0 24 19" fill="none" xmlns="http://www.w3.org/2000/svg">
<path d="M10.138 1.0022C9.42766 1.0022 8.83874 1.59449 8.83874 2.3085V6.04422C8.83874 6.75823 9.42796 7.34192 10.138 7.34192H11.7578V9.37115H5.20107C4.49075 9.37115 3.91044 9.95453 3.91044 10.6688V11.8706H2.29063C1.58031 11.8706 1 12.4537 1 13.168V16.913C1 17.627 1.58031 18.2104 2.29063 18.2104H6.02358C6.74251 18.2104 7.31421 17.6273 7.31421 16.913V13.1677C7.31421 12.4537 6.74251 11.8703 6.02358 11.8703H4.39547V10.6685C4.39547 10.2155 4.75047 9.85863 5.20107 9.85863H11.7578V11.8703H10.138C9.42766 11.8703 8.83874 12.4534 8.83874 13.1677V16.9127C8.83874 17.6267 9.42796 18.2101 10.138 18.2101H13.8623C14.5726 18.2101 15.1616 17.627 15.1616 16.9127V13.1677C15.1616 12.4537 14.5726 11.8703 13.8623 11.8703H12.2425V9.85863H18.8078C19.2581 9.85863 19.6045 10.2155 19.6045 10.6685V11.8703H17.9764C17.2578 11.8703 16.6858 12.4534 16.6858 13.1677V16.9127C16.6858 17.6267 17.2578 18.2101 17.9764 18.2101H21.7094C22.4197 18.2101 23 17.627 23 16.9127V13.1677C23 12.4537 22.4194 11.8703 21.7094 11.8703H20.0988V10.6685C20.0988 9.95453 19.5182 9.37084 18.8081 9.37084H12.2428V7.34161H13.8626C14.573 7.34161 15.1619 6.75823 15.1619 6.04392V2.3085C15.1619 1.59449 14.573 1.0022 13.8626 1.0022H10.138ZM10.138 1.49859H13.8623C14.3126 1.49859 14.6762 1.85544 14.6762 2.3085V6.04422C14.6762 6.49728 14.3123 6.85413 13.8623 6.85413H10.138C9.68769 6.85413 9.32377 6.49728 9.32377 6.04422V2.3085C9.32377 1.85544 9.68769 1.49859 10.138 1.49859ZM2.29094 12.3664H6.02389C6.47418 12.3664 6.82949 12.7236 6.82949 13.1674V16.9124C6.82949 17.3651 6.47449 17.7223 6.02389 17.7223H2.29094C1.84064 17.7223 1.48533 17.3651 1.48533 16.9124V13.1677C1.48564 12.7239 1.84064 12.3664 2.29094 12.3664ZM10.138 12.3664H13.8623C14.3126 12.3664 14.6762 12.7236 14.6762 13.1674V16.9124C14.6762 17.3651 14.3123 17.7223 13.8623 17.7223H10.138C9.68769 17.7223 9.32377 17.3651 9.32377 16.9124V13.1677C9.32377 12.7239 9.68769 12.3664 10.138 12.3664ZM17.9764 12.3664H21.7094C22.1603 12.3664 22.515 12.7236 22.515 13.1674V16.9124C22.515 17.3651 22.1603 17.7223 21.7094 17.7223H17.9764C17.5261 17.7223 17.1708 17.3651 17.1708 16.9124V13.1677C17.1708 12.7239 17.5264 12.3664 17.9764 12.3664Z" fill="#343A40" stroke="#343A40"/>
</svg>
