<?xml version="1.0" encoding="UTF-8"?><svg id="Layer_2" xmlns="http://www.w3.org/2000/svg" viewBox="0 0 22 25.02"><defs><style>.cls-1{fill:#343a40;stroke-width:0px;}</style></defs><g id="Layer_1-2"><path class="cls-1" d="m11.3,0c.34.15.71.25,1.01.45.58.39.86.98.89,1.68.01.37,0,.73,0,1.11.3.12.6.21.88.35,2.89,1.42,4.4,3.73,4.49,6.96.03,1.07-.01,2.13.05,3.2.13,2.16.87,4.11,2.14,5.86.29.41.63.79.96,1.17.23.27.36.55.2.89-.15.33-.43.43-.78.43-2.08,0-4.17,0-6.25,0h-.28c-.56,2.15-2.3,2.93-3.61,2.93-1.34,0-3.07-.82-3.61-2.93h-.28c-2.08,0-4.17,0-6.25,0-.2,0-.43-.07-.59-.18-.36-.26-.33-.72-.03-1.1.49-.61,1.01-1.2,1.43-1.85,1.2-1.87,1.75-3.94,1.76-6.16,0-1.01-.04-2.03.05-3.03.25-2.54,1.53-4.47,3.71-5.79.5-.3,1.05-.51,1.62-.77,0-.26,0-.58,0-.9,0-1.18.67-2,1.82-2.27.03,0,.06-.02.09-.04.2,0,.39,0,.59,0Zm8.38,20.62c-.09-.12-.14-.21-.2-.29-1.37-1.97-2.17-4.14-2.32-6.54-.06-1.06-.02-2.13-.05-3.2-.01-.44-.04-.88-.13-1.31-.7-3.3-3.78-5.36-7.1-4.78-2.58.45-4.7,2.71-4.93,5.31-.08.97-.05,1.95-.05,2.93,0,2.82-.8,5.39-2.44,7.69-.04.05-.07.12-.12.19h17.33Zm-6.63,1.48h-4.08c.22.81,1.11,1.45,2.03,1.45.93,0,1.83-.63,2.05-1.45Zm-1.33-19.15c0-.3.03-.61,0-.9-.05-.36-.39-.59-.74-.58-.34.02-.65.27-.69.61-.03.29,0,.58,0,.87h1.44Z"/><path class="cls-1" d="m.01,10.16c.11-2.82,1.16-5.31,3.18-7.38.31-.32.77-.33,1.07-.04.29.29.29.74-.03,1.07-1.06,1.08-1.84,2.34-2.3,3.78-.31.94-.45,1.91-.46,2.9,0,.32-.15.56-.45.7-.27.12-.55.09-.75-.12-.13-.14-.2-.34-.27-.52-.03-.09,0-.21,0-.38Z"/><path class="cls-1" d="m22,10.22c0,.09,0,.18,0,.27,0,.43-.33.75-.74.75-.4,0-.69-.32-.73-.74-.08-.76-.12-1.53-.28-2.27-.37-1.68-1.21-3.13-2.4-4.37-.12-.12-.23-.28-.28-.44-.1-.32.06-.65.35-.81.29-.16.64-.11.9.14.62.63,1.17,1.31,1.62,2.07,1,1.66,1.51,3.46,1.58,5.39Z"/></g></svg>