<?xml version="1.0" encoding="utf-8"?>
<!-- Generator: Adobe Illustrator 24.0.1, SVG Export Plug-In . SVG Version: 6.00 Build 0)  -->
<svg version="1.1" id="レイヤー_1" xmlns="http://www.w3.org/2000/svg" xmlns:xlink="http://www.w3.org/1999/xlink" x="0px"
	 y="0px" viewBox="0 0 130.6 130.6" style="enable-background:new 0 0 130.6 130.6;" xml:space="preserve">
<style type="text/css">
	.st0{fill:#192350;}
</style>
<title>kotakino_logo</title>
<g>
	<path class="st0" d="M65.3,130.6C29.2,130.6,0,101.3,0,65.3S29.2,0,65.3,0c36.1,0,65.3,29.2,65.3,65.3
		C130.5,101.3,101.3,130.5,65.3,130.6z M65.3,2.5C30.6,2.5,2.5,30.6,2.5,65.3s28.1,62.8,62.8,62.8s62.8-28.1,62.8-62.8c0,0,0,0,0,0
		C128.1,30.6,100,2.5,65.3,2.5z"/>
	<path class="st0" d="M63.1,108.1c-1.6,0-3.1,0.3-3.1,3.6s1.5,3.6,3.1,3.6s3.1-0.3,3.1-3.6S64.8,108.1,63.1,108.1z"/>
	<path class="st0" d="M92.7,57c-2.5,0.9-4.7,2.4-6.5,4.2C88.7,61.3,90.9,59.9,92.7,57z"/>
	<path class="st0" d="M34.2,84c0.4,1,1.2,1.8,2.2,2.2l1.6-1.8v-1.8c-1.2,0.5-2.4,0.9-3.6,1.3L34.2,84z"/>
	<path class="st0" d="M43.2,68.4v0.4c-0.6,1.1-1.4,2.1-2.3,2.9c-0.1,0.5-0.2,1.1-0.2,1.6c0.6-0.4,1.4-0.4,2,0c0.7-2,1.1-4,1.4-6
		c0.4-3.1-0.8-3.9-3.6-2.6c-0.7,0.4-1.4,0.7-2,1.1c1.2-0.1,2.1,0.5,2.7,2C41.9,67.7,42.7,67.9,43.2,68.4z"/>
	<path class="st0" d="M65.3,7.1C33.1,7.1,7,33.1,7,65.3s26.1,58.2,58.2,58.2s58.2-26.1,58.2-58.2l0,0C123.5,33.1,97.5,7.1,65.3,7.1z
		 M90.6,46.3c1.6,0.5,2.3,1.3,2.3,2.4c0,0.7-0.5,1.2-1.4,1.3c-1.5,0.1-2.9,0.6-4.1,1.6c0.8-0.7,1.5-1.5,2-2.4
		c-0.7-0.8-1.6-1.4-2.5-1.8L86.9,47C88,46.2,89.3,45.9,90.6,46.3z M77.8,31.3c2.3,0.6,4.1,2.4,4.6,4.7c0.4,0.9,0.2,1.9-0.5,2.5
		c-0.4,0.4-1.2,0.4-2.3,0c-2.1-0.6-4.4-0.4-6.3,0.6c0.4-0.4,0.8-0.7,1.3-1c0.6-0.3,1.1-0.6,1.7-1c0.8-0.5,1.2-1,1.2-1.4
		c-0.3-0.6-0.7-1.1-1.2-1.6c-0.8-0.5-1.5-1-2.2-1.6c-0.7-0.3-1.3-0.8-1.8-1.4C74.1,30.8,76,30.8,77.8,31.3L77.8,31.3z M53,34.6
		c1.6-2,2.6-2.8,3.1-2.5c-0.3,1.2-0.4,2.5-0.3,3.7c1.9-1,3.8-2.2,5.8-3.5c-2.8,2.4-5.3,5.1-7.3,8.2c-1.4,2.2-2.5,2.6-3.3,1.2
		C50.1,40.1,50.7,37.8,53,34.6L53,34.6z M42.8,78.6c0.6,0.5,0.5,1.2-0.3,2.2c-0.6,0.8-1.3,1.6-2,2.4v2c1.5-1.5,3-3,4.4-4.6
		c-2.2,4.6-5.5,8.6-9.5,11.8c-0.6,0.4-1.2,0.6-1.9,0.7c-0.9,0-1.8-0.9-2.5-2.6c1.7-0.9,3.3-2.1,4.7-3.5c-0.8-0.7-1.5-1.6-2-2.6
		c-0.2-0.7,0.2-1.6,1.1-2.6c1.1-0.9,2.2-1.8,3.4-2.6v-2.2c-0.7,0.3-1.5,0.2-2.2-0.2c0.3,1,0.2,1.6-0.3,2s-1.1,0.2-1.9-0.6
		c-1.2-1.3-2-3-2.3-4.8c-0.7-3.2-0.5-6.5,0.8-9.5c0.4,4,1.5,7.9,3.1,11.6c1.1-0.5,2-1.4,2.6-2.4v-2c-1.1,0.5-2.4,0.7-3.6,0.7
		c0.7-1.3,1.9-2.3,3.3-2.8c0-0.9-0.1-1.8-0.5-2.6c-1.5,0.1-3-0.1-4.4-0.5c5.8-3.4,10.3-4.3,13.4-2.8c1.1,0.6,1.7,1.8,1.6,3.5
		c-0.1,3-0.7,6-1.9,8.8c-0.6,1.5-1.5,1.7-2.6,0.7c-0.4-0.4-0.8-0.7-1.1-0.9c-0.5,0-1,0.1-1.6,0.2v2.6C41.4,78,42.2,78.2,42.8,78.6z
		 M56.6,115.1v1.1h-7.1v-2.5c-0.2-1.3,0.7-2.5,2-2.7c0.2,0,0.4,0,0.6,0h2.2c0.4,0,0.8-0.1,1-0.4c0.2-0.3,0.3-0.6,0.4-1
		c0.1-0.7-0.5-1.4-1.2-1.4c-0.1,0-0.1,0-0.2,0h-4.6v-1.1h4.6c1.4,0,2.5,1.1,2.5,2.5c0,1.4-1.1,2.5-2.5,2.5h-2.2
		c-1.1,0-1.5,0.5-1.5,1.6v1.4L56.6,115.1z M57.3,95.9c0,2.8-1,4.4-3,4.8c-0.7,0.2-1.3,0.2-2,0.2c-2.3,0-4.5,0.4-6.6,1.3
		c2.5-1.2,4.7-2.9,6.7-4.8c1-1,1.6-2.3,1.7-3.7c0.1-2.2,0.2-4.4,0.2-6.6c0.2-2.3-0.4-4.7-1.7-6.6c1.1-0.4,2.6,0.1,4.4,1.3l0.9-0.7
		c1.1-0.7,1.9-1.8,2.2-3.1c-1-0.2-2.1-0.2-3.1,0.2c-2.4,0.7-4.7,1.7-6.7,3.1c-0.6,0.5-1.2,0.9-2,1.1c-0.8,0.1-1.6-0.3-2-1.1
		c-0.3-0.4-0.5-0.9-0.5-1.5c2.9-1.2,5.4-3.2,7.2-5.7c-0.6-0.1-1.1-0.2-1.7-0.2c-0.3-0.7-0.4-1.5-0.1-2.2c1.8-1.1,3.3-2.7,4.2-4.6
		c-1.7,1.1-3.9,1.2-5.6,0.2c1.7-1.1,3.5-2,5.3-2.8c0.8-0.4,1.6-0.5,2.5-0.4c1.7,0.1,2.5,0.4,2.6,0.9c-0.1,1-0.6,1.9-1.4,2.4
		c-1.6,1.2-3.1,2.5-4.5,3.9c1.5-0.5,3.1,0,4.1,1.3c0,0.5-0.3,0.9-0.8,1.1c-2.6,1.1-5.1,2.7-7.2,4.6l0.9-0.4
		c3.4-1.5,7.1-2.2,10.8-1.8c0.4,0,0.8,0.1,1.2,0.2c2.3,0.6,2.6,1.7,0.9,3.3c-2,1.7-4.4,2.8-7,3.1C57.4,87.1,57.4,91.5,57.3,95.9
		L57.3,95.9z M63.1,116.3c-1.9,0-4.2-0.5-4.2-4.7s2.2-4.6,4.2-4.6s4.2,0.5,4.2,4.6S65.1,116.3,63.1,116.3z M68.3,44.8
		c0.1,4.3-0.9,5.7-3.1,4.1l-1.7-1.6c-2.2-2.5-4.6-5-7-7.6c0.6,0.1,1.1,0.4,1.5,0.8c3.1,1.8,5.1,2.4,6,1.8c0.4-0.6,0.7-1.4,0.7-2.1
		c0.3-6.6,0.3-13.2,0-19.7c-0.1-2.3-0.8-4.5-2.2-6.5l0.2-0.4c0.6-0.3,1.2-0.3,1.8,0c3,0.8,4.4,3.1,4.3,7
		C68.2,28.7,68.1,36.8,68.3,44.8L68.3,44.8z M70.9,116.2h-1.1V107h1.1V116.2z M71.9,71.3c0.3-2.7,0.6-5.3,0.9-7.9
		c0.2-1.4,0.5-2.7,1.1-4c0.7-1.4,1.4-2.6,2-3.9c0.8-1.8,0.4-3.1-1.4-3.9c1.5-1.1,3.5-1.2,5-0.2c2,1,2,2.1-0.1,3.5
		c-2.3,1.5-3.8,2.9-4.4,4.2c-0.4,0.9-0.6,1.8-0.6,2.8c0.1,0.9,0.3,1.8,0.5,2.8c0,0.6,0,2.5-0.1,5.7c-0.2,1.9-0.2,3.8,0.1,5.7
		l0.3,0.2c2-3,3.4-6.4,4.2-9.9c-1,5-1.9,9.7-2.7,14.1c-0.7,3.8-1.9,4.4-3.6,1.8C71.8,80.2,71.4,76.6,71.9,71.3L71.9,71.3z M81,115.1
		v1.1h-7.1v-2.5c-0.2-1.3,0.7-2.5,2-2.7c0.2,0,0.4,0,0.6,0h2.2c0.4,0,0.8-0.1,1-0.4c0.2-0.3,0.3-0.6,0.4-1c0.1-0.7-0.5-1.4-1.2-1.4
		c-0.1,0-0.1,0-0.2,0h-4.6V107h4.6c1.4,0,2.5,1.1,2.5,2.5c0,1.4-1.1,2.5-2.5,2.5h-2.2c-1.1,0-1.5,0.5-1.5,1.6v1.4L81,115.1z
		 M103.9,83.2c-0.1,0.7-0.7,1.2-1.7,1.5c-3.1,0.6-6.1,1.6-8.9,2.9c1.2-0.7,2.4-1.6,3.4-2.6c-5.1,0.1-7.6-2.8-7.6-8.6
		c-0.5-0.1-0.9-0.2-1.4-0.2c-0.1,2.2-0.9,2.5-2.5,0.9c-1.4-1.9-2.3-4.1-2.6-6.4c-0.2-1.6,0.1-3.3,0.6-4.8c0.1,0.7,0.5,1.3,0.9,1.8
		c2.1-1.3,4.3-2.3,6.7-3.1c5.1-1.5,8.2-1,9.4,1.3c0.7,1.6,0.4,4.2-1.1,7.7c-0.9,2.3-2.2,3.6-3.9,3.9c-1.2,0.1-2.4,0-3.6-0.4
		c-0.2,2.9,1.5,4.3,5,4C101.7,81,104.1,81.6,103.9,83.2L103.9,83.2z M105.3,61.3c-0.1,0.7-0.7,1-1.9,0.7c-2.5-0.5-5-0.8-7.5-0.7
		c-3.5,0-7.6,1.2-12.3,3.7c-0.7,0.4-1.4,0.7-2.2,0.7c-0.8-0.1-1.6-0.4-2.2-0.9c-0.5-0.4-0.8-0.9-1.1-1.5c2.3-0.1,4.6-0.7,6.7-1.6
		C84.3,60.9,84,60,84.1,59c1.3-1.1,2.5-2.2,3.6-3.5c-1.4,0.1-2.8-0.2-4.1-0.9c2.6-1.2,5.2-2.4,7.8-3.5c1.7-1,3.1-1,4.4,0
		c0.2,0.7-0.3,1.3-0.9,1.5c0,0,0,0,0,0l-5.5,4c1.7-0.7,3.4-1.4,5.1-1.8c0.6,0,1.2,0,1.7,0.2c1.7,0.6,1.8,1.5,0.5,2.6l-2.2,1.8
		c1.7-0.1,3.2-0.3,4.7-0.6c2.2-0.1,3.7,0.1,4.5,0.6C104.9,60.1,105.4,60.8,105.3,61.3L105.3,61.3z"/>
	<path class="st0" d="M84.4,68.7c0.4,1.1,0.9,2.1,1.4,3.1c1-0.9,2.1-1.6,3.3-2.2c0-0.6-0.1-1.2-0.1-1.8C87.5,68.5,86,68.8,84.4,68.7
		z"/>
	<path class="st0" d="M95.3,70c-0.3,0.6-0.9,1.1-1.5,1.3l-1.6,0.4c-0.3,0.9-0.5,1.9-0.5,2.9c0.7,0,1.4-0.2,2-0.5
		c0.9-0.5,1.7-1.6,2.3-3.5c0.8-2.6,0.9-4.1,0.3-4.8c-0.3-0.4-1.1-0.4-2.5-0.2c-1.1,0.2-2.1,0.7-3,1.3c0.5,0.9,1.3,1.6,2.4,1.8
		C94.1,68.8,94.9,69.3,95.3,70z"/>
	<path class="st0" d="M86,72.2c0.3,0.6,0.8,1.5,1.4,2.6c0.5,0,1-0.1,1.6-0.2c0.1-0.7,0.1-1.5,0.1-2.2C88.1,72.2,87,72.1,86,72.2z"/>
</g>
</svg>
