<svg width="27" height="24" viewBox="0 0 27 24" fill="none" xmlns="http://www.w3.org/2000/svg">
<g clip-path="url(#clip0_142_226)">
<path d="M11.89 15.255L0 7.56501V20.135C0 21.79 1.345 23.135 3 23.135H23.5C25.155 23.135 26.5 21.79 26.5 20.135V7.21001L14.06 15.255C13.4 15.685 12.55 15.685 11.885 15.255H11.89Z" fill="#4A7DC1"/>
<path d="M23.5 0.5H3C1.345 0.5 0 1.845 0 3.5V4.805L11.89 12.495C12.55 12.925 13.4 12.925 14.065 12.495L26.5 4.45V3.5C26.5 1.845 25.155 0.5 23.5 0.5Z" fill="#4A7DC1"/>
<path d="M11.89 12.495L0 4.805V7.565L11.89 15.255C12.55 15.685 13.4 15.685 14.065 15.255L26.505 7.21V4.45L14.065 12.495C13.405 12.925 12.555 12.925 11.89 12.495Z" fill="white"/>
</g>
<defs>
<clipPath id="clip0_142_226">
<rect width="26.5" height="22.635" fill="white" transform="translate(0 0.5)"/>
</clipPath>
</defs>
</svg>
