<?xml version="1.0" encoding="UTF-8"?><svg id="Layer_2" xmlns="http://www.w3.org/2000/svg" viewBox="0 0 512 460.95"><defs><style>.cls-1{fill:#fff;stroke-width:0px;}</style></defs><g id="Layer_1-2"><path class="cls-1" d="M0,150.04c2.47-5.29,7.14-7.91,12.07-10.5C90.6,98.3,169.1,57,247.53,15.58c5.92-3.13,11.08-3.16,16.94-.04,24.96,13.32,50.04,26.41,75.08,39.58,1.73.91,3.49,1.76,6.1,3.07,0-5.18,0-9.6,0-14.02,0-10-.09-20,.03-30,.11-9.24,5.09-14.09,14.33-14.14,11.5-.06,23-.04,34.5,0,10.17.03,15.1,4.8,15.11,14.97.03,23.83.05,47.67-.24,71.5-.05,4.34,1.48,6.45,5.16,8.36,28.81,14.94,57.48,30.14,86.28,45.1,4.69,2.44,8.78,5.23,11.16,10.08v58.01c-5.79,10.36-11.4,11.97-22.08,6.35-76.09-40.05-152.19-80.07-228.21-120.24-4.16-2.2-7.26-2.15-11.39.03-76.17,40.26-152.42,80.37-228.66,120.49-10.17,5.36-16.03,3.54-21.67-6.64v-58.01Z"/><path class="cls-1" d="M332.88,460.94c0-2.68,0-4.66,0-6.63,0-43.5,0-87,0-130.5,0-12.06-4.55-16.62-16.58-16.63-40.33,0-80.66-.01-120.99,0-11.42,0-16.17,4.7-16.17,16.02-.01,43.67,0,87.33,0,131,0,1.99,0,3.98,0,6.74h-5.06c-35.66,0-71.33.01-106.99,0-11.09,0-15.94-4.78-15.95-15.75-.01-70.83.02-141.67-.09-212.5,0-3.5,1.13-5.24,4.2-6.85,65.73-34.49,131.4-69.08,197.05-103.72,2.62-1.38,4.64-1.51,7.35-.08,65.64,34.66,131.32,69.24,197.06,103.71,3.33,1.74,4.26,3.73,4.25,7.33-.11,70.5-.08,141-.08,211.5,0,11.7-4.66,16.36-16.34,16.36-35.33.01-70.66,0-105.99,0-1.64,0-3.28,0-5.66,0Z"/><path class="cls-1" d="M306.86,333.28v127.39h-101.71v-127.39h101.71Z"/></g></svg>