<svg width="34" height="32" viewBox="0 0 34 32" fill="none" xmlns="http://www.w3.org/2000/svg">
<g clip-path="url(#clip0_142_124)">
<path d="M4.31421 25.3429V13.0001L14.5999 2.71436L24.8856 13.0001V25.3429C24.8856 26.4791 23.9647 27.4001 22.8285 27.4001H6.37135C5.23523 27.4001 4.31421 26.4791 4.31421 25.3429Z" fill="#4A7DC1"/>
<path fill-rule="evenodd" clip-rule="evenodd" d="M13.1453 1.25974C13.9487 0.456387 15.2512 0.456387 16.0546 1.25974L28.3974 13.6026C29.2007 14.406 29.2007 15.7085 28.3974 16.5119C27.5941 17.3152 26.2915 17.3152 25.4882 16.5119L14.6 5.6236L3.71172 16.5119C2.90834 17.3152 1.60584 17.3152 0.802474 16.5119C-0.000889766 15.7085 -0.000889766 14.406 0.802474 13.6026L13.1453 1.25974Z" fill="#102746"/>
<circle cx="23.9" cy="21.7" r="9.9" fill="white"/>
<path fill-rule="evenodd" clip-rule="evenodd" d="M19.3999 21.8285C19.3999 19.2723 21.4722 17.2 24.0285 17.2C26.5847 17.2 28.6571 19.2723 28.6571 21.8285C28.6571 24.3847 26.5847 26.4571 24.0285 26.4571C21.4722 26.4571 19.3999 24.3847 19.3999 21.8285ZM24.0285 14.1143C19.768 14.1143 16.3142 17.5681 16.3142 21.8285C16.3142 26.0891 19.768 29.5428 24.0285 29.5428C25.6008 29.5428 27.0632 29.0724 28.2827 28.2647L31.1662 31.148C31.7687 31.7506 32.7454 31.7506 33.348 31.148C33.9505 30.5455 33.9505 29.5687 33.348 28.9662L30.4647 26.0827C31.2723 24.8632 31.7428 23.4008 31.7428 21.8285C31.7428 17.5681 28.289 14.1143 24.0285 14.1143Z" fill="#102746"/>
</g>
<defs>
<clipPath id="clip0_142_124">
<rect width="33.6" height="31.2" fill="white" transform="translate(0.199951 0.400024)"/>
</clipPath>
</defs>
</svg>
