<svg width="41" height="32" viewBox="0 0 41 32" fill="none" xmlns="http://www.w3.org/2000/svg">
<g clip-path="url(#clip0_142_146)">
<path d="M31.4976 25.8606L23.271 27.5771C21.4078 27.9659 19.6582 26.5437 19.6582 24.6404L19.6582 6.22926C19.6582 4.80931 20.6537 3.58383 22.0436 3.2929L30.955 1.42752C31.0439 1.40993 31.1329 1.40406 31.2218 1.40406C31.4087 1.40406 31.5954 1.43927 31.7555 1.51555C31.9779 1.62704 32.1114 1.80306 32.1114 1.99083L32.1114 25.3032C32.1114 25.5555 31.8623 25.7843 31.4976 25.8606Z" fill="#4A7DC1"/>
<path d="M0.364675 26.8154C0.142298 26.7098 1.06133e-07 26.5338 1.5624e-07 26.346L6.37715e-06 3.03367C6.44604e-06 2.77549 0.257945 2.55251 0.622675 2.47035L8.83995 0.754512C10.7033 0.365435 12.4532 1.78767 12.4532 3.69117L12.4531 22.1067C12.4531 23.5271 11.4571 24.7528 10.0668 25.0433L1.16526 26.9035C0.88951 26.9621 0.595957 26.9269 0.364675 26.8154Z" fill="#4A7DC1"/>
<path d="M10.8076 0.279619L21.4817 3.43645L21.4817 28.028L10.8076 24.877L10.8076 0.279619Z" fill="#102746"/>
</g>
<g clip-path="url(#clip1_142_146)">
<path d="M33.0544 30.1267L33.0541 30.127C32.5269 30.635 31.8313 30.9 31.1188 30.9C30.4071 30.9 29.7117 30.636 29.1841 30.1276L33.0544 30.1267ZM33.0544 30.1267C33.6372 29.5648 34.5247 28.6654 35.4492 27.5646L35.4497 27.5639M33.0544 30.1267L35.4497 27.5639M35.4497 27.5639L35.4523 27.5609L35.4545 27.5582L35.4652 27.5455M35.4497 27.5639L35.4652 27.5455M35.4652 27.5455L35.4756 27.5325M35.4652 27.5455L35.4756 27.5325M35.4756 27.5325L36.2637 26.5493C36.2732 26.5376 36.2807 26.528 36.2857 26.5215L36.2947 26.5098L36.2952 26.5091L36.296 26.5081C38.2639 23.9261 39.4543 21.4019 39.4543 19.0585C39.4543 16.9296 38.5555 14.9449 36.9722 13.4767C35.3927 12.012 33.3076 11.22 31.119 11.22M35.4756 27.5325L31.119 11.22M31.119 11.22C28.9304 11.22 26.8453 12.012 25.2658 13.4767M31.119 11.22L25.2658 13.4767M25.2658 13.4767C23.6825 14.9449 22.7837 16.9296 22.7837 19.0585M25.2658 13.4767L22.7837 19.0585M22.7837 19.0585C22.7837 21.4619 24.0503 23.8487 25.3559 25.7119M22.7837 19.0585L25.3559 25.7119M25.3559 25.7119C26.6957 27.6238 28.2568 29.2342 29.1839 30.1274L25.3559 25.7119ZM31.119 19.5459C30.6572 19.5459 30.4759 19.2213 30.4759 19.0585C30.4759 18.8958 30.6572 18.5712 31.119 18.5712C31.5808 18.5712 31.7621 18.8958 31.7621 19.0585C31.7621 19.2213 31.5808 19.5459 31.119 19.5459Z" fill="#102746" stroke="white" stroke-width="3"/>
<path d="M31.2219 21.3927C32.4992 21.3927 33.5346 20.3572 33.5346 19.0799C33.5346 17.8027 32.4992 16.7672 31.2219 16.7672C29.9446 16.7672 28.9092 17.8027 28.9092 19.0799C28.9092 20.3572 29.9446 21.3927 31.2219 21.3927Z" fill="white"/>
</g>
<defs>
<clipPath id="clip0_142_146">
<rect width="32.3782" height="28.3309" fill="white"/>
</clipPath>
<clipPath id="clip1_142_146">
<rect width="18.5018" height="21.3927" fill="white" transform="translate(21.9709 10.4072)"/>
</clipPath>
</defs>
</svg>
