<svg width="27" height="27" viewBox="0 0 27 27" fill="none" xmlns="http://www.w3.org/2000/svg">
<g clip-path="url(#clip0_142_309)">
<path d="M13.1576 25.8782C12.1794 26.5081 11.0151 26.7842 9.85827 26.6606C8.70143 26.537 7.62173 26.0213 6.79865 25.1989L6.08162 24.4819C5.7636 24.1604 5.58521 23.7266 5.58521 23.2743C5.58521 22.8222 5.7636 22.3882 6.08162 22.0666L9.10071 19.0664C9.41898 18.7496 9.8498 18.5717 10.2989 18.5717C10.748 18.5717 11.1789 18.7496 11.4971 19.0664C11.8186 19.3846 12.2525 19.5629 12.7047 19.5629C13.157 19.5629 13.5909 19.3846 13.9124 19.0664L18.7241 14.2548C19.042 13.9333 19.2205 13.4993 19.2205 13.0471C19.2205 12.5949 19.042 12.161 18.7241 11.8395C18.4072 11.5212 18.2293 11.0904 18.2293 10.6413C18.2293 10.1922 18.4072 9.76135 18.7241 9.44308L21.6299 6.424C21.9515 6.10597 22.3853 5.92758 22.8376 5.92758C23.2897 5.92758 23.7237 6.10597 24.0452 6.424L24.7622 7.14103C25.5993 7.95248 26.1327 9.02645 26.2735 10.1837C26.4143 11.341 26.1539 12.5115 25.5359 13.5C22.2456 18.3848 18.0425 22.588 13.1576 25.8782Z" fill="#4A7DC1"/>
<path fill-rule="evenodd" clip-rule="evenodd" d="M13.7689 0.689407C14.5505 0.689407 15.1841 1.32301 15.1841 2.1046C15.1841 2.88619 14.5505 3.5198 13.7689 3.5198C12.3441 3.5198 10.9332 3.80045 9.61682 4.34569C8.30044 4.89096 7.10437 5.69015 6.09686 6.69766C5.08935 7.70515 4.29016 8.90124 3.74492 10.2176C3.19965 11.534 2.91903 12.9448 2.91903 14.3697C2.91903 15.1512 2.28541 15.7849 1.50382 15.7849C0.722228 15.7849 0.088623 15.1512 0.088623 14.3697C0.088623 12.5731 0.442472 10.7942 1.12997 9.13444C1.81747 7.47468 2.82515 5.96659 4.09547 4.69625C5.36581 3.42593 6.8739 2.41825 8.53366 1.73075C10.1934 1.04326 11.9723 0.689407 13.7689 0.689407ZM14.3613 6.14734C15.1429 6.14734 15.7765 6.78093 15.7765 7.56253C15.7765 8.34412 15.1429 8.97773 14.3613 8.97773C12.7349 8.97773 11.175 9.62384 10.0249 10.7739C8.87488 11.924 8.22877 13.4838 8.22877 15.1103C8.22877 15.8918 7.59516 16.5255 6.81357 16.5255C6.03199 16.5255 5.39838 15.8918 5.39838 15.1103C5.39838 12.7331 6.34269 10.4534 8.02355 8.77251C9.70443 7.09163 11.9842 6.14734 14.3613 6.14734Z" fill="#102746"/>
</g>
<defs>
<clipPath id="clip0_142_309">
<rect width="26.5" height="26.5" fill="white" transform="translate(0 0.5)"/>
</clipPath>
</defs>
</svg>
