<?xml version="1.0" encoding="UTF-8"?><svg id="Layer_2" xmlns="http://www.w3.org/2000/svg" viewBox="0 0 116.42 125.88"><defs><style>.cls-1{fill:#595757;}.cls-1,.cls-2{stroke-width:0px;}.cls-2{fill:#1c90b2;}</style></defs><g id="LogKnot"><path class="cls-2" d="M42.02,52.5c-2.18,2.18-5.07,3.38-8.15,3.38s-5.97-1.2-8.15-3.38c-2.17-2.17-3.37-5.07-3.37-8.15s1.2-5.98,3.37-8.15c2.18-2.18,5.07-3.38,8.15-3.38s5.97,1.2,8.15,3.38l4.18,4.18,27.97-27.97c-5.55-3.31-12.04-5.21-18.97-5.21-20.52,0-37.15,16.63-37.15,37.15s16.63,37.15,37.15,37.15c6.93,0,13.42-1.9,18.97-5.21l-27.97-27.97-4.18,4.18Z"/><path class="cls-2" d="M66.69,52.5c-1,1-2.18,1.81-3.49,2.39l-1.72.76,17.37,17.37c3.06-2.53,5.7-5.54,7.82-8.91l-15.79-15.79-4.18,4.18Z"/><path class="cls-2" d="M89.39,58.9c1.91-4.47,2.96-9.39,2.96-14.56s-1.06-10.09-2.96-14.56l-14.56,14.56,14.56,14.56Z"/><path class="cls-2" d="M63.2,33.81c1.31.58,2.49,1.39,3.49,2.39l4.18,4.18,15.79-15.79c-2.12-3.37-4.76-6.38-7.82-8.91l-17.37,17.36,1.72.76Z"/><path class="cls-2" d="M58.54,38.43c-1.58,0-3.07.62-4.18,1.73-2.3,2.31-2.3,6.06,0,8.36,1.12,1.12,2.6,1.73,4.18,1.73s3.06-.62,4.18-1.73l4.18-4.18-4.18-4.18c-1.12-1.12-2.6-1.73-4.18-1.73Z"/><path class="cls-2" d="M33.87,38.43c-1.58,0-3.07.62-4.18,1.73-2.31,2.31-2.31,6.06,0,8.36,1.12,1.12,2.6,1.73,4.18,1.73s3.06-.62,4.18-1.73l4.18-4.18-4.18-4.18c-1.12-1.12-2.6-1.73-4.18-1.73Z"/><path class="cls-2" d="M55.21,88.7c-24.45,0-44.35-19.89-44.35-44.35S30.75,0,55.21,0s44.35,19.89,44.35,44.35-19.89,44.35-44.35,44.35ZM55.21,2.77C32.28,2.77,13.63,21.42,13.63,44.35s18.65,41.58,41.58,41.58,41.58-18.65,41.58-41.58S78.13,2.77,55.21,2.77Z"/><polygon class="cls-1" points="69.94 103.37 68.83 101.98 56.99 111.51 56.99 102.28 55.21 102.28 55.21 121.45 56.99 121.45 56.99 112.23 68.83 121.75 69.94 120.37 59.36 111.87 69.94 103.37"/><polygon class="cls-1" points="1.81 102.29 0 102.29 0 121.45 15.23 121.45 15.23 119.68 1.81 119.68 1.81 102.29"/><path class="cls-1" d="M24.21,121.45c-3.36,0-6.1-2.74-6.1-6.1v-1.73c0-3.36,2.73-6.1,6.1-6.1s6.1,2.73,6.1,6.1v1.73c0,3.36-2.73,6.1-6.1,6.1ZM24.21,109.3c-2.38,0-4.32,1.94-4.32,4.32v1.73c0,2.38,1.94,4.32,4.32,4.32s4.32-1.94,4.32-4.32v-1.73c0-2.38-1.94-4.32-4.32-4.32Z"/><path class="cls-1" d="M98.58,121.45c-3.36,0-6.1-2.74-6.1-6.1v-1.73c0-3.36,2.73-6.1,6.1-6.1s6.1,2.73,6.1,6.1v1.73c0,3.36-2.73,6.1-6.1,6.1ZM98.58,109.3c-2.38,0-4.32,1.94-4.32,4.32v1.73c0,2.38,1.94,4.32,4.32,4.32s4.32-1.94,4.32-4.32v-1.73c0-2.38-1.94-4.32-4.32-4.32Z"/><path class="cls-1" d="M40.93,107.53c-3.36,0-6.1,2.73-6.1,6.1v1.73c0,3.36,2.73,6.1,6.1,6.1h4.32v.59c0,1.14-.93,2.07-2.07,2.07h-7.2v1.77h7.2c2.12,0,3.84-1.72,3.84-3.84v-14.51h-6.1ZM40.93,119.68c-2.38,0-4.32-1.94-4.32-4.32v-1.73c0-2.38,1.94-4.32,4.32-4.32h4.32v10.38h-4.32Z"/><path class="cls-1" d="M87.59,121.45h-1.77v-10.08c0-1.14-.93-2.07-2.07-2.07h-6.58v12.14h-1.77v-13.91h8.35c2.12,0,3.84,1.72,3.84,3.84v10.08Z"/><path class="cls-1" d="M116.42,121.45h-1.47c-2.12,0-3.84-1.72-3.84-3.84v-14.55h1.77v14.55c0,1.14.93,2.07,2.07,2.07h1.47v1.77Z"/><rect class="cls-1" x="108.69" y="107.53" width="7.73" height="1.77"/></g></svg>