<svg width="38" height="32" viewBox="0 0 38 32" fill="none" xmlns="http://www.w3.org/2000/svg">
<g id="_&#231;&#183;&#168;&#233;&#155;&#134;&#227;&#131;&#162;&#227;&#131;&#188;&#227;&#131;&#137;" clip-path="url(#clip0_3126_20686)">
<g id="Group 1164">
<path id="Vector" d="M36.4395 6.79741V7.66703H30.2876V1.51514L31.1572 1.51514C34.0736 1.51514 36.4395 3.88096 36.4395 6.79741Z" stroke="#8C7D5E" stroke-width="1.5" stroke-linecap="round" stroke-linejoin="round"/>
<path id="Vector_2" d="M2 13.1025V30.2975H22.7911" stroke="#8C7D5E" stroke-width="1.5" stroke-linecap="round" stroke-linejoin="round"/>
<path id="Vector_3" d="M10.8633 13.1025V7.04937V1" stroke="#8C7D5E" stroke-width="1.5" stroke-linecap="round" stroke-linejoin="round"/>
<path id="Vector_4" d="M22.791 18.4228V21.7V30.2975H29.3379H35.8809V21.7V13.1025H29.3379H27.2834" stroke="#8C7D5E" stroke-width="1.5" stroke-linecap="round" stroke-linejoin="round"/>
<path id="Vector_5" d="M27.2835 13.1025H30.2873V7.04937V1H16.1418H2V7.04937V13.1025H16.1418H19.8633" stroke="#8C7D5E" stroke-width="1.5" stroke-linecap="round" stroke-linejoin="round"/>
</g>
<g id="Group 1165">
<g id="Group 1162">
<g id="Group">
<g id="Vector_6">
<mask id="path-6-outside-1_3126_20686" maskUnits="userSpaceOnUse" x="15.4258" y="11.0988" width="10" height="12" fill="black">
<rect fill="white" x="15.4258" y="11.0988" width="10" height="12"/>
<path d="M22.2759 19.9999V16.0238C22.2759 14.9598 21.4114 14.0988 20.3508 14.0988C19.2868 14.0988 18.4258 14.9598 18.4258 16.0238V19.9999"/>
</mask>
<path d="M19.2759 19.9999V22.9999H25.2759V19.9999H19.2759ZM15.4258 19.9999V22.9999H21.4258V19.9999H15.4258ZM25.2759 19.9999V16.0238H19.2759V19.9999H25.2759ZM25.2759 16.0238C25.2759 13.2994 23.0647 11.0988 20.3508 11.0988V17.0988C19.7581 17.0988 19.2759 16.6202 19.2759 16.0238H25.2759ZM20.3508 11.0988C17.63 11.0988 15.4258 13.3029 15.4258 16.0238H21.4258C21.4258 16.6166 20.9437 17.0988 20.3508 17.0988V11.0988ZM15.4258 16.0238V19.9999H21.4258V16.0238H15.4258Z" fill="#F2F2F2" mask="url(#path-6-outside-1_3126_20686)"/>
</g>
<g id="Vector_7">
<mask id="path-8-outside-2_3126_20686" maskUnits="userSpaceOnUse" x="11.5723" y="11.0953" width="10" height="8" fill="black">
<rect fill="white" x="11.5723" y="11.0953" width="10" height="8"/>
<path d="M18.4224 16.0204C18.4224 14.9564 17.5614 14.0953 16.4973 14.0953C15.4333 14.0953 14.5723 14.9564 14.5723 16.0204"/>
</mask>
<path d="M15.4224 16.0204V19.0204H21.4224V16.0204H15.4224ZM11.5723 16.0204V19.0204H17.5723V16.0204H11.5723ZM21.4224 16.0204C21.4224 13.2995 19.2182 11.0953 16.4973 11.0953V17.0953C15.9045 17.0953 15.4224 16.6132 15.4224 16.0204H21.4224ZM16.4973 11.0953C13.7764 11.0953 11.5723 13.2995 11.5723 16.0204H17.5723C17.5723 16.6132 17.0901 17.0953 16.4973 17.0953V11.0953Z" fill="#F2F2F2" mask="url(#path-8-outside-2_3126_20686)"/>
</g>
<g id="Vector_8">
<mask id="path-10-outside-3_3126_20686" maskUnits="userSpaceOnUse" x="9" y="11.2018" width="9" height="12" fill="black">
<rect fill="white" x="9" y="11.2018" width="9" height="12"/>
<path d="M14.5505 20V16.1604C14.477 13.9973 13 14.2073 13 14.2073"/>
</mask>
<path d="M11.5505 20V23H17.5505V20H11.5505ZM14.5505 16.1604H17.5505C17.5505 16.1264 17.55 16.0925 17.5488 16.0585L14.5505 16.1604ZM12.5777 11.2372L9.60758 11.6595L10.4522 17.5998L13.4223 17.1775L12.5777 11.2372ZM17.5505 20V16.1604H11.5505V20H17.5505ZM17.5488 16.0585C17.4866 14.2261 16.7439 12.636 15.2445 11.7728C14.5997 11.4016 13.9788 11.2685 13.5336 11.2235C13.307 11.2006 13.1092 11.1987 12.9514 11.2046C12.8718 11.2076 12.8003 11.2127 12.7382 11.2185C12.707 11.2214 12.678 11.2245 12.6513 11.2276C12.6379 11.2292 12.6251 11.2308 12.6128 11.2324C12.6067 11.2332 12.6007 11.234 12.5949 11.2348C12.5919 11.2352 12.589 11.2356 12.5862 11.236C12.5848 11.2362 12.5826 11.2365 12.5819 11.2366C12.5798 11.2369 12.5777 11.2372 13 14.2073C13.4223 17.1775 13.4202 17.1778 13.4181 17.1781C13.4174 17.1782 13.4153 17.1784 13.414 17.1786C13.4112 17.179 13.4084 17.1794 13.4057 17.1798C13.4002 17.1805 13.3947 17.1813 13.3893 17.182C13.3784 17.1834 13.3677 17.1847 13.3572 17.186C13.336 17.1885 13.3153 17.1907 13.295 17.1926C13.2546 17.1963 13.2149 17.199 13.1759 17.2004C13.0991 17.2033 13.0172 17.2019 12.9303 17.1931C12.7644 17.1763 12.5173 17.126 12.2509 16.9726C11.9564 16.8031 11.7401 16.5647 11.619 16.3332C11.5117 16.1282 11.5453 16.0559 11.5523 16.2623L17.5488 16.0585Z" fill="#F2F2F2" mask="url(#path-10-outside-3_3126_20686)"/>
</g>
</g>
<g id="Vector_9">
<mask id="path-12-outside-4_3126_20686" maskUnits="userSpaceOnUse" x="20.0488" y="7" width="10" height="11" fill="black">
<rect fill="white" x="20.0488" y="7" width="10" height="11"/>
<path d="M24.0488 10.7212C24.2728 9.95114 25.3719 9.81463 25.9599 10.2311C26.3974 10.5392 26.5304 11.0782 26.3274 11.5612C26.0964 12.1107 25.3719 12.4432 24.9169 12.7897C24.5948 13.0347 23.8388 13.6438 24.1188 14.1198C24.2308 14.3123 24.7489 14.2948 24.9484 14.2948H26.4499"/>
</mask>
<path d="M21.1682 9.88317L20.3303 12.7638L26.0914 14.4397L26.9294 11.5592L21.1682 9.88317ZM25.9599 10.2311L24.2258 12.6792L24.2329 12.6842L25.9599 10.2311ZM26.3274 11.5612L29.093 12.7238L29.0931 12.7236L26.3274 11.5612ZM24.9169 12.7897L26.7334 15.1772L26.7344 15.1764L24.9169 12.7897ZM24.1188 14.1198L26.7119 12.6111C26.7095 12.607 26.7071 12.6028 26.7046 12.5987L24.1188 14.1198ZM26.4499 17.2948H29.4499V11.2948H26.4499V17.2948ZM26.9294 11.5592C26.6416 12.5484 25.8336 12.8945 25.4792 12.9683C25.168 13.033 24.7118 13.0235 24.2258 12.6792L27.6939 7.78307C26.6199 7.02231 25.3203 6.87275 24.2565 7.09415C23.1496 7.32455 21.68 8.12393 21.1682 9.88317L26.9294 11.5592ZM24.2329 12.6842C23.4426 12.1279 23.255 11.1286 23.5617 10.3988L29.0931 12.7236C29.8058 11.0277 29.3522 8.95045 27.6869 7.77807L24.2329 12.6842ZM23.5618 10.3986C23.6791 10.1196 23.825 9.94785 23.8923 9.87656C23.9569 9.8082 23.9885 9.79105 23.9355 9.82985C23.8787 9.87139 23.8095 9.91709 23.6566 10.0169C23.5901 10.0603 23.5024 10.1176 23.4134 10.1781C23.3234 10.2392 23.2143 10.3154 23.0993 10.403L26.7344 15.1764C26.7332 15.1774 26.7463 15.1674 26.7839 15.1419C26.8224 15.1157 26.8679 15.0859 26.9369 15.0408C27.055 14.9637 27.2667 14.8269 27.4768 14.6733C27.8421 14.4062 28.6473 13.7839 29.093 12.7238L23.5618 10.3986ZM23.1003 10.4022C22.9284 10.533 22.396 10.9368 21.9511 11.492C21.6941 11.8127 20.3326 13.6002 21.533 15.6408L26.7046 12.5987C27.1337 13.3281 27.1047 14.0797 26.9647 14.5697C26.8478 14.9789 26.6607 15.2097 26.633 15.2443C26.5766 15.3146 26.5833 15.2914 26.7334 15.1772L23.1003 10.4022ZM21.5258 15.6284C22.06 16.5467 22.8727 16.9085 23.209 17.0353C23.6009 17.1831 23.9536 17.2359 24.1525 17.2592C24.3735 17.285 24.5691 17.2918 24.698 17.294C24.7659 17.2952 24.8255 17.2953 24.8692 17.2951C24.936 17.2949 24.9218 17.2948 24.9484 17.2948V11.2948C24.7448 11.2948 24.7965 11.2936 24.8491 11.2997C24.8795 11.3033 25.0693 11.3244 25.3262 11.4213C25.5277 11.4973 26.2336 11.7891 26.7119 12.6111L21.5258 15.6284ZM24.9484 17.2948H26.4499V11.2948H24.9484V17.2948Z" fill="#F2F2F2" mask="url(#path-12-outside-4_3126_20686)"/>
</g>
</g>
<g id="Group 1163">
<g id="Group_2">
<path id="Vector_10" d="M22.2759 19.9999V16.0238C22.2759 14.9598 21.4114 14.0988 20.3508 14.0988C19.2868 14.0988 18.4258 14.9598 18.4258 16.0238V19.9999" stroke="#8C7D5E" stroke-width="1.5" stroke-linecap="square" stroke-linejoin="round"/>
<path id="Vector_11" d="M18.4224 16.0204C18.4224 14.9564 17.5614 14.0953 16.4973 14.0953C15.4333 14.0953 14.5723 14.9564 14.5723 16.0204" stroke="#8C7D5E" stroke-width="1.5" stroke-linecap="square" stroke-linejoin="round"/>
<path id="Vector_12" d="M14.5505 20V16.1604C14.477 13.9973 13 14.2073 13 14.2073" stroke="#8C7D5E" stroke-width="1.5" stroke-linecap="square" stroke-linejoin="round"/>
</g>
<path id="Vector_13" d="M24.0488 10.7212C24.2728 9.95114 25.3719 9.81463 25.9599 10.2311C26.3974 10.5392 26.5304 11.0782 26.3274 11.5612C26.0964 12.1107 25.3719 12.4432 24.9169 12.7897C24.5948 13.0347 23.8388 13.6438 24.1188 14.1198C24.2308 14.3123 24.7489 14.2948 24.9484 14.2948H26.4499" stroke="#8C7D5E" stroke-width="1.5" stroke-linecap="square" stroke-linejoin="round"/>
</g>
</g>
</g>
<defs>
<clipPath id="clip0_3126_20686">
<rect width="37" height="32" fill="white" transform="translate(0.5)"/>
</clipPath>
</defs>
</svg>
