<svg width="65" height="11" viewBox="0 0 65 11" fill="none" xmlns="http://www.w3.org/2000/svg">
<path d="M3.03467 10V3.44189H3.00781L0.98291 4.83838V3.6997L3.02393 2.24951H4.21094V10H3.03467Z" fill="#262626"/>
<path d="M3.03467 10V3.44189H3.00781L0.98291 4.83838V3.6997L3.02393 2.24951H4.21094V10H3.03467Z" fill="black"/>
<path d="M14.971 2.685C14.894 2.839 14.85 3.026 14.806 3.235C14.575 4.39 14.036 6.161 13.167 7.294C12.166 8.581 10.857 9.604 8.833 10.242L8.085 9.417C10.219 8.878 11.451 7.943 12.375 6.766C13.156 5.765 13.662 4.236 13.816 3.18H8.195C7.755 3.18 7.381 3.202 7.095 3.213V2.245C7.403 2.278 7.832 2.311 8.195 2.311H13.717C13.882 2.311 14.091 2.311 14.3 2.256L14.971 2.685Z" fill="#262626"/>
<path d="M14.971 2.685C14.894 2.839 14.85 3.026 14.806 3.235C14.575 4.39 14.036 6.161 13.167 7.294C12.166 8.581 10.857 9.604 8.833 10.242L8.085 9.417C10.219 8.878 11.451 7.943 12.375 6.766C13.156 5.765 13.662 4.236 13.816 3.18H8.195C7.755 3.18 7.381 3.202 7.095 3.213V2.245C7.403 2.278 7.832 2.311 8.195 2.311H13.717C13.882 2.311 14.091 2.311 14.3 2.256L14.971 2.685Z" fill="black"/>
<path d="M18.106 2.465C18.535 2.476 18.832 2.487 19.085 2.487H24.992C25.234 2.487 25.63 2.487 25.96 2.465C25.938 2.74 25.938 3.048 25.938 3.323V8.746C25.938 9.098 25.949 9.956 25.96 10.077H25.014C25.014 10 25.025 9.736 25.025 9.439H19.019C19.03 9.725 19.03 9.989 19.041 10.077H18.095C18.106 9.934 18.128 9.12 18.128 8.735V3.323C18.128 3.07 18.128 2.729 18.106 2.465ZM19.019 3.356V8.581H25.036V3.356H19.019Z" fill="#262626"/>
<path d="M18.106 2.465C18.535 2.476 18.832 2.487 19.085 2.487H24.992C25.234 2.487 25.63 2.487 25.96 2.465C25.938 2.74 25.938 3.048 25.938 3.323V8.746C25.938 9.098 25.949 9.956 25.96 10.077H25.014C25.014 10 25.025 9.736 25.025 9.439H19.019C19.03 9.725 19.03 9.989 19.041 10.077H18.095C18.106 9.934 18.128 9.12 18.128 8.735V3.323C18.128 3.07 18.128 2.729 18.106 2.465ZM19.019 3.356V8.581H25.036V3.356H19.019Z" fill="black"/>
<path d="M37.741 2.564C37.664 2.674 37.521 2.839 37.444 2.96C37.004 3.708 35.959 5.127 34.705 5.996L33.979 5.413C34.991 4.83 36.025 3.631 36.388 2.949H30.118C29.711 2.949 29.293 2.971 28.864 3.015V2.014C29.249 2.069 29.711 2.113 30.118 2.113H36.432C36.641 2.113 37.037 2.08 37.202 2.047L37.741 2.564ZM33.352 4.016C33.352 6.997 33.088 9.01 30.283 10.407L29.469 9.747C29.777 9.648 30.151 9.472 30.459 9.252C32.164 8.207 32.406 6.645 32.406 4.808C32.406 4.544 32.395 4.302 32.362 4.016H33.352Z" fill="#262626"/>
<path d="M37.741 2.564C37.664 2.674 37.521 2.839 37.444 2.96C37.004 3.708 35.959 5.127 34.705 5.996L33.979 5.413C34.991 4.83 36.025 3.631 36.388 2.949H30.118C29.711 2.949 29.293 2.971 28.864 3.015V2.014C29.249 2.069 29.711 2.113 30.118 2.113H36.432C36.641 2.113 37.037 2.08 37.202 2.047L37.741 2.564ZM33.352 4.016C33.352 6.997 33.088 9.01 30.283 10.407L29.469 9.747C29.777 9.648 30.151 9.472 30.459 9.252C32.164 8.207 32.406 6.645 32.406 4.808C32.406 4.544 32.395 4.302 32.362 4.016H33.352Z" fill="black"/>
<path d="M41.062 10V3.44189H41.0352L39.0103 4.83838V3.6997L41.0513 2.24951H42.2383V10H41.062Z" fill="#262626"/>
<path d="M41.062 10V3.44189H41.0352L39.0103 4.83838V3.6997L41.0513 2.24951H42.2383V10H41.062Z" fill="black"/>
<path d="M46.5963 0.825996L47.3553 1.057C47.0473 1.827 46.6623 2.608 46.2333 3.323V10.803H45.4633V4.5C45.0673 5.05 44.6603 5.534 44.2423 5.952C44.1653 5.776 43.9233 5.347 43.7803 5.16C44.8913 4.115 45.9583 2.487 46.5963 0.825996ZM50.9853 9.681H54.0763V10.462H46.9923V9.681H50.1713V6.931H47.6413V6.15H50.1713V3.741H47.2783V2.971H51.0293C50.4903 2.476 49.5223 1.805 48.7523 1.354L49.2913 0.770996C50.1053 1.233 51.1833 1.937 51.7113 2.432L51.2383 2.971H53.9113V3.741H50.9853V6.15H53.5923V6.931H50.9853V9.681Z" fill="#262626"/>
<path d="M46.5963 0.825996L47.3553 1.057C47.0473 1.827 46.6623 2.608 46.2333 3.323V10.803H45.4633V4.5C45.0673 5.05 44.6603 5.534 44.2423 5.952C44.1653 5.776 43.9233 5.347 43.7803 5.16C44.8913 4.115 45.9583 2.487 46.5963 0.825996ZM50.9853 9.681H54.0763V10.462H46.9923V9.681H50.1713V6.931H47.6413V6.15H50.1713V3.741H47.2783V2.971H51.0293C50.4903 2.476 49.5223 1.805 48.7523 1.354L49.2913 0.770996C50.1053 1.233 51.1833 1.937 51.7113 2.432L51.2383 2.971H53.9113V3.741H50.9853V6.15H53.5923V6.931H50.9853V9.681Z" fill="black"/>
<path d="M63.1183 4.192H57.2003V5.908C57.2003 6.106 57.2003 6.315 57.1893 6.524H63.1183V4.192ZM63.9433 3.433V7.888H63.1183V7.283H57.1233C56.9803 8.537 56.5843 9.901 55.5723 10.88C55.4513 10.715 55.1213 10.429 54.9343 10.319C56.2323 9.054 56.3753 7.272 56.3753 5.897V3.433H63.9433ZM55.3193 1.464H64.7683V2.234H55.3193V1.464Z" fill="#262626"/>
<path d="M63.1183 4.192H57.2003V5.908C57.2003 6.106 57.2003 6.315 57.1893 6.524H63.1183V4.192ZM63.9433 3.433V7.888H63.1183V7.283H57.1233C56.9803 8.537 56.5843 9.901 55.5723 10.88C55.4513 10.715 55.1213 10.429 54.9343 10.319C56.2323 9.054 56.3753 7.272 56.3753 5.897V3.433H63.9433ZM55.3193 1.464H64.7683V2.234H55.3193V1.464Z" fill="black"/>
</svg>
