<svg width="79" height="37" viewBox="0 0 79 37" fill="none" xmlns="http://www.w3.org/2000/svg">
<path d="M0.118652 9.99999V9.17284L2.84717 6.42822C3.87842 5.39697 4.10938 4.98876 4.10938 4.3872V4.37646C4.104 3.64062 3.54541 3.11425 2.76123 3.11425C1.85352 3.11425 1.20361 3.72656 1.19287 4.51074V4.54296H0.0541992V4.51074C0.0541992 3.12499 1.23047 2.1206 2.74512 2.1206C4.23291 2.1206 5.29639 3.05517 5.29639 4.30663V4.31738C5.29639 5.20361 4.88281 5.83202 3.4917 7.20702L1.72998 8.93652V8.98486H5.41992V9.99999H0.118652Z" fill="#262626"/>
<path d="M0.118652 9.99999V9.17284L2.84717 6.42822C3.87842 5.39697 4.10938 4.98876 4.10938 4.3872V4.37646C4.104 3.64062 3.54541 3.11425 2.76123 3.11425C1.85352 3.11425 1.20361 3.72656 1.19287 4.51074V4.54296H0.0541992V4.51074C0.0541992 3.12499 1.23047 2.1206 2.74512 2.1206C4.23291 2.1206 5.29639 3.05517 5.29639 4.30663V4.31738C5.29639 5.20361 4.88281 5.83202 3.4917 7.20702L1.72998 8.93652V8.98486H5.41992V9.99999H0.118652Z" fill="black"/>
<path d="M9.94775 9.99999V8.45849H6.06982V7.41113L9.3623 2.24951H11.1025V7.44872H12.1714V8.45849H11.1025V9.99999H9.94775ZM7.18701 7.46484H9.9585V3.20019H9.92627L7.18701 7.43261V7.46484Z" fill="#262626"/>
<path d="M9.94775 9.99999V8.45849H6.06982V7.41113L9.3623 2.24951H11.1025V7.44872H12.1714V8.45849H11.1025V9.99999H9.94775ZM7.18701 7.46484H9.9585V3.20019H9.92627L7.18701 7.43261V7.46484Z" fill="black"/>
<path d="M15.7059 2.25599H14.1109V4.69799H15.7059V2.25599ZM14.1109 7.95399H15.7059V5.41299H14.1109V7.95399ZM16.4759 1.51899V8.69099H14.1109V9.58199H13.3629V1.51899H16.4759ZM17.3779 7.67899L18.0379 7.30499C18.5989 7.85499 19.2149 8.63599 19.4679 9.17499L18.7749 9.61499C18.5219 9.07599 17.9389 8.26199 17.3779 7.67899ZM23.0539 4.95099H21.6569V6.19399H22.9329V6.91999H21.6569V9.86799C21.6569 10.33 21.5359 10.572 21.2059 10.693C20.8649 10.814 20.3149 10.825 19.4239 10.825C19.3909 10.605 19.2809 10.275 19.1599 10.066C19.8419 10.088 20.4469 10.088 20.6229 10.077C20.8099 10.066 20.8649 10.022 20.8649 9.85699V6.91999H16.7069V6.19399H20.8649V4.95099H16.6519V4.22499H19.4129V2.82799H17.1249V2.10199H19.4129V0.792993H20.2159V2.10199H22.5809V2.82799H20.2159V4.22499H23.0539V4.95099Z" fill="#262626"/>
<path d="M15.7059 2.25599H14.1109V4.69799H15.7059V2.25599ZM14.1109 7.95399H15.7059V5.41299H14.1109V7.95399ZM16.4759 1.51899V8.69099H14.1109V9.58199H13.3629V1.51899H16.4759ZM17.3779 7.67899L18.0379 7.30499C18.5989 7.85499 19.2149 8.63599 19.4679 9.17499L18.7749 9.61499C18.5219 9.07599 17.9389 8.26199 17.3779 7.67899ZM23.0539 4.95099H21.6569V6.19399H22.9329V6.91999H21.6569V9.86799C21.6569 10.33 21.5359 10.572 21.2059 10.693C20.8649 10.814 20.3149 10.825 19.4239 10.825C19.3909 10.605 19.2809 10.275 19.1599 10.066C19.8419 10.088 20.4469 10.088 20.6229 10.077C20.8099 10.066 20.8649 10.022 20.8649 9.85699V6.91999H16.7069V6.19399H20.8649V4.95099H16.6519V4.22499H19.4129V2.82799H17.1249V2.10199H19.4129V0.792993H20.2159V2.10199H22.5809V2.82799H20.2159V4.22499H23.0539V4.95099Z" fill="black"/>
<path d="M27.6959 1.90399H25.3199V2.81699H27.6959V1.90399ZM25.3199 4.38999H27.6959V3.42199H25.3199V4.38999ZM28.4769 5.01699H25.3199V10.847H24.5059V1.26599H28.4769V5.01699ZM30.2479 6.47999H27.6629V7.49199H30.2479V6.47999ZM27.6629 9.17499H30.2479V8.10799H27.6629V9.17499ZM31.0069 9.82399H27.6629V10.374H26.9259V5.84199H31.0069V9.82399ZM30.2369 4.40099H32.7009V3.42199H30.2369V4.40099ZM32.7009 1.90399H30.2369V2.81699H32.7009V1.90399ZM33.5259 1.26599V9.75799C33.5259 10.275 33.4049 10.55 33.0419 10.693C32.6899 10.825 32.1069 10.836 31.1939 10.836C31.1609 10.605 31.0289 10.22 30.9079 9.99999C31.5789 10.033 32.2499 10.022 32.4479 10.011C32.6349 10.011 32.7009 9.94499 32.7009 9.74699V5.02799H29.4559V1.26599H33.5259Z" fill="#262626"/>
<path d="M27.6959 1.90399H25.3199V2.81699H27.6959V1.90399ZM25.3199 4.38999H27.6959V3.42199H25.3199V4.38999ZM28.4769 5.01699H25.3199V10.847H24.5059V1.26599H28.4769V5.01699ZM30.2479 6.47999H27.6629V7.49199H30.2479V6.47999ZM27.6629 9.17499H30.2479V8.10799H27.6629V9.17499ZM31.0069 9.82399H27.6629V10.374H26.9259V5.84199H31.0069V9.82399ZM30.2369 4.40099H32.7009V3.42199H30.2369V4.40099ZM32.7009 1.90399H30.2369V2.81699H32.7009V1.90399ZM33.5259 1.26599V9.75799C33.5259 10.275 33.4049 10.55 33.0419 10.693C32.6899 10.825 32.1069 10.836 31.1939 10.836C31.1609 10.605 31.0289 10.22 30.9079 9.99999C31.5789 10.033 32.2499 10.022 32.4479 10.011C32.6349 10.011 32.7009 9.94499 32.7009 9.74699V5.02799H29.4559V1.26599H33.5259Z" fill="black"/>
<path d="M42.6999 6.10599V4.99499H38.1129V6.10599H42.6999ZM38.1129 7.96499H42.6999V6.80999H38.1129V7.96499ZM44.7899 2.98199H38.8719C38.6629 3.41099 38.4429 3.85099 38.2009 4.25799H43.5029V9.81299C43.5029 10.308 43.3929 10.55 43.0409 10.682C42.6779 10.814 42.0619 10.825 41.1269 10.825C41.0939 10.583 40.9729 10.253 40.8629 10.022C41.5889 10.055 42.2489 10.044 42.4469 10.044C42.6339 10.033 42.6999 9.97799 42.6999 9.81299V8.66899H38.1129V10.836H37.3099V5.54499C36.7819 6.19399 36.1769 6.78799 35.4839 7.27199C35.3739 7.09599 35.1209 6.79899 34.9559 6.64499C36.2759 5.75399 37.2769 4.43399 37.9809 2.98199H35.2199V2.21199H38.3219C38.5089 1.73899 38.6739 1.26599 38.8059 0.792993L39.6199 0.990993C39.4879 1.39799 39.3559 1.81599 39.1909 2.21199H44.7899V2.98199Z" fill="#262626"/>
<path d="M42.6999 6.10599V4.99499H38.1129V6.10599H42.6999ZM38.1129 7.96499H42.6999V6.80999H38.1129V7.96499ZM44.7899 2.98199H38.8719C38.6629 3.41099 38.4429 3.85099 38.2009 4.25799H43.5029V9.81299C43.5029 10.308 43.3929 10.55 43.0409 10.682C42.6779 10.814 42.0619 10.825 41.1269 10.825C41.0939 10.583 40.9729 10.253 40.8629 10.022C41.5889 10.055 42.2489 10.044 42.4469 10.044C42.6339 10.033 42.6999 9.97799 42.6999 9.81299V8.66899H38.1129V10.836H37.3099V5.54499C36.7819 6.19399 36.1769 6.78799 35.4839 7.27199C35.3739 7.09599 35.1209 6.79899 34.9559 6.64499C36.2759 5.75399 37.2769 4.43399 37.9809 2.98199H35.2199V2.21199H38.3219C38.5089 1.73899 38.6739 1.26599 38.8059 0.792993L39.6199 0.990993C39.4879 1.39799 39.3559 1.81599 39.1909 2.21199H44.7899V2.98199Z" fill="black"/>
<path d="M50.4219 1.13399H51.3239C51.3129 1.27699 51.3129 1.45299 51.3019 1.63999C51.4009 3.09199 51.9949 8.17399 56.1309 10.066C55.8999 10.242 55.6469 10.517 55.5259 10.737C52.6879 9.39499 51.4779 6.57899 50.9499 4.37899C50.4659 6.57899 49.3329 9.22999 46.5499 10.737C46.4069 10.539 46.1429 10.275 45.8899 10.11C50.3449 7.83299 50.3449 2.58599 50.4219 1.13399Z" fill="#262626"/>
<path d="M50.4219 1.13399H51.3239C51.3129 1.27699 51.3129 1.45299 51.3019 1.63999C51.4009 3.09199 51.9949 8.17399 56.1309 10.066C55.8999 10.242 55.6469 10.517 55.5259 10.737C52.6879 9.39499 51.4779 6.57899 50.9499 4.37899C50.4659 6.57899 49.3329 9.22999 46.5499 10.737C46.4069 10.539 46.1429 10.275 45.8899 10.11C50.3449 7.83299 50.3449 2.58599 50.4219 1.13399Z" fill="black"/>
<path d="M64.9309 8.76799H59.7719V9.83499H64.9309V8.76799ZM64.2269 5.81999H59.7719V6.75499H64.2269V5.81999ZM59.7719 7.38199V8.12999H65.7339V10.825H64.9309V10.473H59.7719V10.847H59.0019V5.19299H65.0299V7.38199H59.7719ZM66.9769 1.62899V2.31099H64.5679C64.8099 2.61899 65.0409 2.95999 65.1619 3.21299L64.4139 3.46599C64.2929 3.14699 63.9849 2.69599 63.6769 2.31099H62.7969C62.5989 2.56399 62.3899 2.79499 62.1809 3.00399H62.3459V3.86199H66.6249V5.91899H65.8329V4.51099H58.1879V5.91899H57.4179V3.86199H61.5649V3.16899C61.4109 3.06999 61.2349 2.97099 61.1139 2.91599C61.3559 2.73999 61.5869 2.54199 61.7959 2.31099H59.8379C60.0249 2.62999 60.1899 2.97099 60.2669 3.21299L59.5409 3.43299C59.4529 3.13599 59.2329 2.69599 59.0239 2.31099H58.5509C58.2539 2.76199 57.9239 3.15799 57.6049 3.47699C57.4509 3.35599 57.1319 3.13599 56.9339 3.03699C57.5939 2.46499 58.1879 1.60699 58.5179 0.748993L59.2769 0.946993C59.1889 1.17799 59.0789 1.40899 58.9579 1.62899H61.8399V2.26699C62.2469 1.81599 62.5879 1.29899 62.8079 0.748993L63.5889 0.935993C63.4899 1.16699 63.3799 1.40899 63.2479 1.62899H66.9769Z" fill="#262626"/>
<path d="M64.9309 8.76799H59.7719V9.83499H64.9309V8.76799ZM64.2269 5.81999H59.7719V6.75499H64.2269V5.81999ZM59.7719 7.38199V8.12999H65.7339V10.825H64.9309V10.473H59.7719V10.847H59.0019V5.19299H65.0299V7.38199H59.7719ZM66.9769 1.62899V2.31099H64.5679C64.8099 2.61899 65.0409 2.95999 65.1619 3.21299L64.4139 3.46599C64.2929 3.14699 63.9849 2.69599 63.6769 2.31099H62.7969C62.5989 2.56399 62.3899 2.79499 62.1809 3.00399H62.3459V3.86199H66.6249V5.91899H65.8329V4.51099H58.1879V5.91899H57.4179V3.86199H61.5649V3.16899C61.4109 3.06999 61.2349 2.97099 61.1139 2.91599C61.3559 2.73999 61.5869 2.54199 61.7959 2.31099H59.8379C60.0249 2.62999 60.1899 2.97099 60.2669 3.21299L59.5409 3.43299C59.4529 3.13599 59.2329 2.69599 59.0239 2.31099H58.5509C58.2539 2.76199 57.9239 3.15799 57.6049 3.47699C57.4509 3.35599 57.1319 3.13599 56.9339 3.03699C57.5939 2.46499 58.1879 1.60699 58.5179 0.748993L59.2769 0.946993C59.1889 1.17799 59.0789 1.40899 58.9579 1.62899H61.8399V2.26699C62.2469 1.81599 62.5879 1.29899 62.8079 0.748993L63.5889 0.935993C63.4899 1.16699 63.3799 1.40899 63.2479 1.62899H66.9769Z" fill="black"/>
<path d="M71.3659 7.78899L71.5089 8.56999C70.3319 8.96599 69.0779 9.39499 68.0989 9.71399L67.9119 8.88899C68.3189 8.76799 68.8249 8.61399 69.3859 8.42699V5.45699H68.1429V4.69799H69.3859V2.31099H68.0219V1.54099H71.4319V2.31099H70.1669V4.69799H71.2669V5.45699H70.1669V8.18499L71.3659 7.78899ZM72.7189 4.08199V5.47899H74.3909V4.08199H72.7189ZM72.7189 2.01399V3.39999H74.3909V2.01399H72.7189ZM76.7779 3.39999V2.01399H75.0949V3.39999H76.7779ZM76.7779 5.47899V4.08199H75.0949V5.47899H76.7779ZM75.1609 9.73599H78.0759V10.484H70.9919V9.73599H74.3359V8.22899H71.8389V7.48099H74.3359V6.19399H71.9709V1.29899H77.5589V6.19399H75.1609V7.48099H77.7239V8.22899H75.1609V9.73599Z" fill="#262626"/>
<path d="M71.3659 7.78899L71.5089 8.56999C70.3319 8.96599 69.0779 9.39499 68.0989 9.71399L67.9119 8.88899C68.3189 8.76799 68.8249 8.61399 69.3859 8.42699V5.45699H68.1429V4.69799H69.3859V2.31099H68.0219V1.54099H71.4319V2.31099H70.1669V4.69799H71.2669V5.45699H70.1669V8.18499L71.3659 7.78899ZM72.7189 4.08199V5.47899H74.3909V4.08199H72.7189ZM72.7189 2.01399V3.39999H74.3909V2.01399H72.7189ZM76.7779 3.39999V2.01399H75.0949V3.39999H76.7779ZM76.7779 5.47899V4.08199H75.0949V5.47899H76.7779ZM75.1609 9.73599H78.0759V10.484H70.9919V9.73599H74.3359V8.22899H71.8389V7.48099H74.3359V6.19399H71.9709V1.29899H77.5589V6.19399H75.1609V7.48099H77.7239V8.22899H75.1609V9.73599Z" fill="black"/>
<path d="M18.255 19.58C18.255 17.825 18.966 16.394 20.046 15.296L20.586 15.575C19.551 16.646 18.912 17.978 18.912 19.58C18.912 21.182 19.551 22.514 20.586 23.585L20.046 23.864C18.966 22.766 18.255 21.335 18.255 19.58Z" fill="#262626"/>
<path d="M18.255 19.58C18.255 17.825 18.966 16.394 20.046 15.296L20.586 15.575C19.551 16.646 18.912 17.978 18.912 19.58C18.912 21.182 19.551 22.514 20.586 23.585L20.046 23.864C18.966 22.766 18.255 21.335 18.255 19.58Z" fill="black"/>
<path d="M22.548 16.826C22.845 16.862 23.241 16.88 23.529 16.88H27.966C28.182 16.88 28.452 16.871 28.632 16.862C28.623 17.069 28.605 17.348 28.605 17.564V22.208C28.605 22.532 28.632 22.937 28.641 23.081H27.831C27.84 22.982 27.84 22.793 27.849 22.577H23.448C23.079 22.577 22.674 22.595 22.431 22.613V21.794C22.665 21.821 23.052 21.848 23.43 21.848H27.849V17.6H23.538C23.205 17.6 22.755 17.618 22.548 17.627V16.826Z" fill="#262626"/>
<path d="M22.548 16.826C22.845 16.862 23.241 16.88 23.529 16.88H27.966C28.182 16.88 28.452 16.871 28.632 16.862C28.623 17.069 28.605 17.348 28.605 17.564V22.208C28.605 22.532 28.632 22.937 28.641 23.081H27.831C27.84 22.982 27.84 22.793 27.849 22.577H23.448C23.079 22.577 22.674 22.595 22.431 22.613V21.794C22.665 21.821 23.052 21.848 23.43 21.848H27.849V17.6H23.538C23.205 17.6 22.755 17.618 22.548 17.627V16.826Z" fill="black"/>
<path d="M32.043 16.403C32.682 16.826 33.834 17.762 34.338 18.266L33.771 18.833C33.321 18.365 32.196 17.402 31.53 16.952L32.043 16.403ZM31.269 22.433C32.844 22.199 34.014 21.65 34.869 21.119C36.255 20.246 37.353 18.914 37.875 17.807L38.307 18.572C37.695 19.697 36.642 20.921 35.283 21.776C34.383 22.343 33.249 22.892 31.746 23.171L31.269 22.433Z" fill="#262626"/>
<path d="M32.043 16.403C32.682 16.826 33.834 17.762 34.338 18.266L33.771 18.833C33.321 18.365 32.196 17.402 31.53 16.952L32.043 16.403ZM31.269 22.433C32.844 22.199 34.014 21.65 34.869 21.119C36.255 20.246 37.353 18.914 37.875 17.807L38.307 18.572C37.695 19.697 36.642 20.921 35.283 21.776C34.383 22.343 33.249 22.892 31.746 23.171L31.269 22.433Z" fill="black"/>
<path d="M41.709 16.088C42.24 16.385 43.275 17.069 43.662 17.357L43.239 17.969C42.807 17.645 41.835 16.997 41.304 16.691L41.709 16.088ZM40.359 22.523C41.349 22.352 42.465 21.992 43.374 21.47C44.868 20.615 46.056 19.445 46.785 18.176L47.217 18.914C46.443 20.129 45.192 21.29 43.761 22.136C42.852 22.658 41.61 23.081 40.773 23.252L40.359 22.523ZM40.35 18.113C40.881 18.401 41.934 19.04 42.33 19.328L41.916 19.958C41.475 19.634 40.494 19.004 39.954 18.725L40.35 18.113Z" fill="#262626"/>
<path d="M41.709 16.088C42.24 16.385 43.275 17.069 43.662 17.357L43.239 17.969C42.807 17.645 41.835 16.997 41.304 16.691L41.709 16.088ZM40.359 22.523C41.349 22.352 42.465 21.992 43.374 21.47C44.868 20.615 46.056 19.445 46.785 18.176L47.217 18.914C46.443 20.129 45.192 21.29 43.761 22.136C42.852 22.658 41.61 23.081 40.773 23.252L40.359 22.523ZM40.35 18.113C40.881 18.401 41.934 19.04 42.33 19.328L41.916 19.958C41.475 19.634 40.494 19.004 39.954 18.725L40.35 18.113Z" fill="black"/>
<path d="M49.836 18.347C50.025 18.374 50.313 18.383 50.457 18.383H54.597C54.822 18.383 55.047 18.365 55.236 18.347V19.067C55.038 19.049 54.804 19.04 54.597 19.04H52.842V22.352H55.02C55.236 22.352 55.443 22.334 55.623 22.307V23.063C55.443 23.045 55.164 23.036 55.02 23.036H50.043C49.845 23.036 49.611 23.045 49.395 23.063V22.307C49.602 22.334 49.836 22.352 50.043 22.352H52.113V19.04H50.457C50.313 19.04 50.025 19.049 49.836 19.067V18.347Z" fill="#262626"/>
<path d="M49.836 18.347C50.025 18.374 50.313 18.383 50.457 18.383H54.597C54.822 18.383 55.047 18.365 55.236 18.347V19.067C55.038 19.049 54.804 19.04 54.597 19.04H52.842V22.352H55.02C55.236 22.352 55.443 22.334 55.623 22.307V23.063C55.443 23.045 55.164 23.036 55.02 23.036H50.043C49.845 23.036 49.611 23.045 49.395 23.063V22.307C49.602 22.334 49.836 22.352 50.043 22.352H52.113V19.04H50.457C50.313 19.04 50.025 19.049 49.836 19.067V18.347Z" fill="black"/>
<path d="M61.716 22.811C61.752 22.667 61.779 22.487 61.779 22.307V16.916C61.779 16.574 61.734 16.313 61.725 16.25H62.553C62.544 16.313 62.517 16.574 62.517 16.916V22.109C63.345 21.731 64.452 20.912 65.145 19.895L65.568 20.507C64.794 21.56 63.543 22.487 62.499 23C62.355 23.081 62.256 23.153 62.193 23.207L61.716 22.811ZM57.594 22.766C58.35 22.226 58.89 21.425 59.16 20.552C59.421 19.733 59.43 17.933 59.43 16.934C59.43 16.664 59.403 16.466 59.367 16.277H60.195C60.186 16.385 60.15 16.655 60.15 16.925C60.15 17.924 60.114 19.85 59.871 20.75C59.601 21.713 59.025 22.595 58.269 23.225L57.594 22.766Z" fill="#262626"/>
<path d="M61.716 22.811C61.752 22.667 61.779 22.487 61.779 22.307V16.916C61.779 16.574 61.734 16.313 61.725 16.25H62.553C62.544 16.313 62.517 16.574 62.517 16.916V22.109C63.345 21.731 64.452 20.912 65.145 19.895L65.568 20.507C64.794 21.56 63.543 22.487 62.499 23C62.355 23.081 62.256 23.153 62.193 23.207L61.716 22.811ZM57.594 22.766C58.35 22.226 58.89 21.425 59.16 20.552C59.421 19.733 59.43 17.933 59.43 16.934C59.43 16.664 59.403 16.466 59.367 16.277H60.195C60.186 16.385 60.15 16.655 60.15 16.925C60.15 17.924 60.114 19.85 59.871 20.75C59.601 21.713 59.025 22.595 58.269 23.225L57.594 22.766Z" fill="black"/>
<path d="M14.2604 29.286C14.4854 29.61 14.8904 30.258 15.0974 30.681L14.5844 30.915C14.3594 30.447 14.0624 29.907 13.7654 29.493L14.2604 29.286ZM15.4394 28.854C15.6824 29.169 16.0784 29.817 16.3034 30.231L15.7904 30.465C15.5474 29.988 15.2414 29.475 14.9354 29.07L15.4394 28.854ZM10.4174 29.151C10.9484 29.448 11.9834 30.141 12.3704 30.42L11.9474 31.041C11.5154 30.708 10.5344 30.06 10.0124 29.754L10.4174 29.151ZM9.06741 35.586C10.0484 35.415 11.1734 35.055 12.0824 34.542C13.5764 33.687 14.7644 32.508 15.4934 31.239L15.9254 31.986C15.1424 33.192 13.9004 34.353 12.4604 35.199C11.5604 35.73 10.3184 36.144 9.48141 36.315L9.06741 35.586ZM9.05841 31.176C9.58941 31.464 10.6424 32.112 11.0294 32.391L10.6244 33.021C10.1744 32.697 9.20241 32.067 8.65341 31.788L9.05841 31.176Z" fill="#262626"/>
<path d="M14.2604 29.286C14.4854 29.61 14.8904 30.258 15.0974 30.681L14.5844 30.915C14.3594 30.447 14.0624 29.907 13.7654 29.493L14.2604 29.286ZM15.4394 28.854C15.6824 29.169 16.0784 29.817 16.3034 30.231L15.7904 30.465C15.5474 29.988 15.2414 29.475 14.9354 29.07L15.4394 28.854ZM10.4174 29.151C10.9484 29.448 11.9834 30.141 12.3704 30.42L11.9474 31.041C11.5154 30.708 10.5344 30.06 10.0124 29.754L10.4174 29.151ZM9.06741 35.586C10.0484 35.415 11.1734 35.055 12.0824 34.542C13.5764 33.687 14.7644 32.508 15.4934 31.239L15.9254 31.986C15.1424 33.192 13.9004 34.353 12.4604 35.199C11.5604 35.73 10.3184 36.144 9.48141 36.315L9.06741 35.586ZM9.05841 31.176C9.58941 31.464 10.6424 32.112 11.0294 32.391L10.6244 33.021C10.1744 32.697 9.20241 32.067 8.65341 31.788L9.05841 31.176Z" fill="black"/>
<path d="M22.8166 31.716C22.7896 31.806 22.7626 31.923 22.7536 31.995C22.6816 32.607 22.4206 34.389 22.2946 35.217H23.1766C23.3746 35.217 23.6986 35.208 23.8876 35.19V35.919C23.7256 35.91 23.3926 35.901 23.2036 35.901H18.2716C17.9926 35.901 17.7856 35.91 17.5246 35.928V35.181C17.7406 35.199 18.0016 35.217 18.2716 35.217H21.5296C21.6646 34.461 21.9256 32.706 21.9526 32.193H19.0906C18.8296 32.193 18.5956 32.211 18.3706 32.22V31.464C18.5866 31.491 18.8566 31.518 19.0816 31.518H21.8176C21.9616 31.518 22.1866 31.491 22.2676 31.455L22.8166 31.716Z" fill="#262626"/>
<path d="M22.8166 31.716C22.7896 31.806 22.7626 31.923 22.7536 31.995C22.6816 32.607 22.4206 34.389 22.2946 35.217H23.1766C23.3746 35.217 23.6986 35.208 23.8876 35.19V35.919C23.7256 35.91 23.3926 35.901 23.2036 35.901H18.2716C17.9926 35.901 17.7856 35.91 17.5246 35.928V35.181C17.7406 35.199 18.0016 35.217 18.2716 35.217H21.5296C21.6646 34.461 21.9256 32.706 21.9526 32.193H19.0906C18.8296 32.193 18.5956 32.211 18.3706 32.22V31.464C18.5866 31.491 18.8566 31.518 19.0816 31.518H21.8176C21.9616 31.518 22.1866 31.491 22.2676 31.455L22.8166 31.716Z" fill="black"/>
<path d="M31.6636 31.869C31.6636 34.263 31.1506 35.496 29.0896 36.414L28.4866 35.847C30.1246 35.217 30.9436 34.443 30.9436 31.923V31.545H28.3786V33.003C28.3786 33.336 28.4056 33.732 28.4146 33.822H27.6226C27.6316 33.732 27.6586 33.345 27.6586 33.003V31.545H26.6866C26.2996 31.545 25.8946 31.572 25.7866 31.581V30.798C25.8676 30.816 26.3086 30.861 26.6866 30.861H27.6586V29.709C27.6586 29.52 27.6496 29.259 27.6226 29.052H28.4236C28.4146 29.142 28.3786 29.394 28.3786 29.709V30.861H30.9436V29.736C30.9436 29.385 30.9166 29.088 30.8986 28.998H31.7086C31.6996 29.088 31.6636 29.385 31.6636 29.736V30.861H32.6536C33.0496 30.861 33.3556 30.834 33.4816 30.816V31.572C33.3826 31.563 33.0496 31.545 32.6536 31.545H31.6636V31.869Z" fill="#262626"/>
<path d="M31.6636 31.869C31.6636 34.263 31.1506 35.496 29.0896 36.414L28.4866 35.847C30.1246 35.217 30.9436 34.443 30.9436 31.923V31.545H28.3786V33.003C28.3786 33.336 28.4056 33.732 28.4146 33.822H27.6226C27.6316 33.732 27.6586 33.345 27.6586 33.003V31.545H26.6866C26.2996 31.545 25.8946 31.572 25.7866 31.581V30.798C25.8676 30.816 26.3086 30.861 26.6866 30.861H27.6586V29.709C27.6586 29.52 27.6496 29.259 27.6226 29.052H28.4236C28.4146 29.142 28.3786 29.394 28.3786 29.709V30.861H30.9436V29.736C30.9436 29.385 30.9166 29.088 30.8986 28.998H31.7086C31.6996 29.088 31.6636 29.385 31.6636 29.736V30.861H32.6536C33.0496 30.861 33.3556 30.834 33.4816 30.816V31.572C33.3826 31.563 33.0496 31.545 32.6536 31.545H31.6636V31.869Z" fill="black"/>
<path d="M35.1016 32.103C35.3716 32.121 35.8486 32.148 36.3526 32.148H41.2846C41.7346 32.148 42.0586 32.121 42.2566 32.103V32.985C42.0766 32.976 41.6986 32.94 41.2936 32.94H36.3526C35.8576 32.94 35.3806 32.958 35.1016 32.985V32.103Z" fill="#262626"/>
<path d="M35.1016 32.103C35.3716 32.121 35.8486 32.148 36.3526 32.148H41.2846C41.7346 32.148 42.0586 32.121 42.2566 32.103V32.985C42.0766 32.976 41.6986 32.94 41.2936 32.94H36.3526C35.8576 32.94 35.3806 32.958 35.1016 32.985V32.103Z" fill="black"/>
<path d="M49.7356 28.944C49.9606 29.268 50.2846 29.817 50.4736 30.177L49.9876 30.402C49.8076 30.033 49.5016 29.493 49.2586 29.151L49.7356 28.944ZM50.7256 28.584C50.9596 28.917 51.3106 29.475 51.4816 29.808L50.9956 30.033C50.7976 29.637 50.5006 29.133 50.2486 28.791L50.7256 28.584ZM45.6946 29.25C45.6676 29.457 45.6496 29.727 45.6496 29.979V32.013C46.7116 31.752 48.1336 31.32 49.0696 30.915C49.3396 30.798 49.6096 30.663 49.8616 30.51L50.1766 31.23C49.9246 31.338 49.6006 31.482 49.3306 31.581C48.3226 31.986 46.7656 32.463 45.6496 32.751V34.731C45.6496 35.19 45.8386 35.307 46.2796 35.397C46.5586 35.442 47.0266 35.469 47.4676 35.469C48.4216 35.469 49.7986 35.379 50.5456 35.181V36C49.7626 36.117 48.4126 36.189 47.4316 36.189C46.9006 36.189 46.3606 36.162 45.9916 36.099C45.2986 35.973 44.9116 35.658 44.9116 34.929V29.979C44.9116 29.763 44.8936 29.457 44.8576 29.25H45.6946Z" fill="#262626"/>
<path d="M49.7356 28.944C49.9606 29.268 50.2846 29.817 50.4736 30.177L49.9876 30.402C49.8076 30.033 49.5016 29.493 49.2586 29.151L49.7356 28.944ZM50.7256 28.584C50.9596 28.917 51.3106 29.475 51.4816 29.808L50.9956 30.033C50.7976 29.637 50.5006 29.133 50.2486 28.791L50.7256 28.584ZM45.6946 29.25C45.6676 29.457 45.6496 29.727 45.6496 29.979V32.013C46.7116 31.752 48.1336 31.32 49.0696 30.915C49.3396 30.798 49.6096 30.663 49.8616 30.51L50.1766 31.23C49.9246 31.338 49.6006 31.482 49.3306 31.581C48.3226 31.986 46.7656 32.463 45.6496 32.751V34.731C45.6496 35.19 45.8386 35.307 46.2796 35.397C46.5586 35.442 47.0266 35.469 47.4676 35.469C48.4216 35.469 49.7986 35.379 50.5456 35.181V36C49.7626 36.117 48.4126 36.189 47.4316 36.189C46.9006 36.189 46.3606 36.162 45.9916 36.099C45.2986 35.973 44.9116 35.658 44.9116 34.929V29.979C44.9116 29.763 44.8936 29.457 44.8576 29.25H45.6946Z" fill="black"/>
<path d="M59.3836 29.979C59.3296 30.051 59.2126 30.249 59.1586 30.375C58.8526 31.149 58.2856 32.202 57.6466 33.012C58.5916 33.822 59.6896 34.992 60.2746 35.703L59.6446 36.243C59.0416 35.451 58.0876 34.389 57.1696 33.57C56.2066 34.605 54.9916 35.595 53.6596 36.198L53.0836 35.595C54.5326 35.028 55.8646 33.957 56.7916 32.922C57.4036 32.229 58.0606 31.167 58.2856 30.42H54.7756C54.4606 30.42 53.9656 30.456 53.8666 30.465V29.646C53.9926 29.664 54.5056 29.7 54.7756 29.7H58.2496C58.5466 29.7 58.7806 29.673 58.9246 29.628L59.3836 29.979Z" fill="#262626"/>
<path d="M59.3836 29.979C59.3296 30.051 59.2126 30.249 59.1586 30.375C58.8526 31.149 58.2856 32.202 57.6466 33.012C58.5916 33.822 59.6896 34.992 60.2746 35.703L59.6446 36.243C59.0416 35.451 58.0876 34.389 57.1696 33.57C56.2066 34.605 54.9916 35.595 53.6596 36.198L53.0836 35.595C54.5326 35.028 55.8646 33.957 56.7916 32.922C57.4036 32.229 58.0606 31.167 58.2856 30.42H54.7756C54.4606 30.42 53.9656 30.456 53.8666 30.465V29.646C53.9926 29.664 54.5056 29.7 54.7756 29.7H58.2496C58.5466 29.7 58.7806 29.673 58.9246 29.628L59.3836 29.979Z" fill="black"/>
<path d="M63.9286 32.58C63.9286 34.335 63.2176 35.766 62.1376 36.864L61.5976 36.585C62.6326 35.514 63.2716 34.182 63.2716 32.58C63.2716 30.978 62.6326 29.646 61.5976 28.575L62.1376 28.296C63.2176 29.394 63.9286 30.825 63.9286 32.58Z" fill="#262626"/>
<path d="M63.9286 32.58C63.9286 34.335 63.2176 35.766 62.1376 36.864L61.5976 36.585C62.6326 35.514 63.2716 34.182 63.2716 32.58C63.2716 30.978 62.6326 29.646 61.5976 28.575L62.1376 28.296C63.2176 29.394 63.9286 30.825 63.9286 32.58Z" fill="black"/>
</svg>
