<svg width="72" height="26" viewBox="0 0 72 26" fill="none" xmlns="http://www.w3.org/2000/svg">
<path d="M2.97852 10.1289C1.32422 10.1289 0.244629 9.22657 0.137207 7.96436L0.131836 7.89454H1.28662L1.29199 7.95362C1.36719 8.64112 2.01709 9.12452 2.97852 9.12452C3.92383 9.12452 4.56299 8.59815 4.56299 7.8462V7.83546C4.56299 6.95997 3.9292 6.4712 2.89258 6.4712H1.95264V5.53663H2.86035C3.74658 5.53663 4.34814 5.01563 4.34814 4.2959V4.28516C4.34814 3.53858 3.84326 3.10352 2.96777 3.10352C2.1084 3.10352 1.50684 3.55469 1.43164 4.27442L1.42627 4.32276H0.29834L0.303711 4.26905C0.421875 2.97462 1.45312 2.12061 2.96777 2.12061C4.50928 2.12061 5.51904 2.93702 5.51904 4.1294V4.14014C5.51904 5.10157 4.83154 5.7461 3.88623 5.94483V5.97169C5.0249 6.07374 5.7876 6.76124 5.7876 7.8462V7.85694C5.7876 9.1836 4.62207 10.1289 2.97852 10.1289Z" fill="#262626"/>
<path d="M2.97852 10.1289C1.32422 10.1289 0.244629 9.22657 0.137207 7.96436L0.131836 7.89454H1.28662L1.29199 7.95362C1.36719 8.64112 2.01709 9.12452 2.97852 9.12452C3.92383 9.12452 4.56299 8.59815 4.56299 7.8462V7.83546C4.56299 6.95997 3.9292 6.4712 2.89258 6.4712H1.95264V5.53663H2.86035C3.74658 5.53663 4.34814 5.01563 4.34814 4.2959V4.28516C4.34814 3.53858 3.84326 3.10352 2.96777 3.10352C2.1084 3.10352 1.50684 3.55469 1.43164 4.27442L1.42627 4.32276H0.29834L0.303711 4.26905C0.421875 2.97462 1.45312 2.12061 2.96777 2.12061C4.50928 2.12061 5.51904 2.93702 5.51904 4.1294V4.14014C5.51904 5.10157 4.83154 5.7461 3.88623 5.94483V5.97169C5.0249 6.07374 5.7876 6.76124 5.7876 7.8462V7.85694C5.7876 9.1836 4.62207 10.1289 2.97852 10.1289Z" fill="black"/>
<path d="M9.72908 1.23301L10.2681 1.55201C9.97108 2.44301 9.59708 3.55401 9.25608 4.44501C9.99308 5.33601 10.1581 6.12801 10.1581 6.79901C10.1691 7.38201 10.0371 7.84401 9.75108 8.05301C9.60808 8.16301 9.42108 8.21801 9.21208 8.25101C9.01408 8.27301 8.76108 8.27301 8.53008 8.26201C8.51908 8.05301 8.44208 7.75601 8.32108 7.54701C8.55208 7.55801 8.75008 7.56901 8.89308 7.55801C9.03608 7.55801 9.14608 7.52501 9.23408 7.48101C9.38808 7.34901 9.44308 7.04101 9.44308 6.71101C9.43208 6.12801 9.25608 5.38001 8.53008 4.53301C8.81608 3.73001 9.11308 2.75101 9.33308 2.00301H8.00208V10.836H7.27608V1.26601H9.61908L9.72908 1.23301ZM13.3371 4.12601L13.4031 4.76401C12.3141 5.03901 11.1811 5.33601 10.3011 5.54501L10.0811 4.85201C10.3011 4.80801 10.5321 4.76401 10.7961 4.70901V0.936006H11.5331V2.25601H13.2381V2.92701H11.5331V4.54401C12.1051 4.41201 12.7211 4.26901 13.3371 4.12601ZM15.5041 7.97601V6.93101H11.7421V7.97601H15.5041ZM11.7421 9.71401H15.5041V8.61401H11.7421V9.71401ZM12.9741 5.12701L13.7881 5.30301C13.6671 5.62201 13.5351 5.95201 13.4141 6.23801H16.2961V10.77H15.5041V10.407H11.7421V10.814H10.9941V6.23801H12.6331C12.7651 5.87501 12.9081 5.44601 12.9741 5.12701ZM14.8111 4.67601H15.8781C16.1421 4.67601 16.2081 4.54401 16.2301 3.64201C16.3951 3.76301 16.6921 3.88401 16.9121 3.93901C16.8241 5.07201 16.6151 5.35801 15.9551 5.35801H14.7231C13.8981 5.35801 13.7111 5.16001 13.7111 4.34601V0.936006H14.4481V2.55301C15.0751 2.27801 15.7131 1.92601 16.0981 1.60701L16.6701 2.14601C16.0431 2.55301 15.2071 2.92701 14.4481 3.20201V4.34601C14.4481 4.63201 14.4921 4.67601 14.8111 4.67601Z" fill="#262626"/>
<path d="M9.72908 1.23301L10.2681 1.55201C9.97108 2.44301 9.59708 3.55401 9.25608 4.44501C9.99308 5.33601 10.1581 6.12801 10.1581 6.79901C10.1691 7.38201 10.0371 7.84401 9.75108 8.05301C9.60808 8.16301 9.42108 8.21801 9.21208 8.25101C9.01408 8.27301 8.76108 8.27301 8.53008 8.26201C8.51908 8.05301 8.44208 7.75601 8.32108 7.54701C8.55208 7.55801 8.75008 7.56901 8.89308 7.55801C9.03608 7.55801 9.14608 7.52501 9.23408 7.48101C9.38808 7.34901 9.44308 7.04101 9.44308 6.71101C9.43208 6.12801 9.25608 5.38001 8.53008 4.53301C8.81608 3.73001 9.11308 2.75101 9.33308 2.00301H8.00208V10.836H7.27608V1.26601H9.61908L9.72908 1.23301ZM13.3371 4.12601L13.4031 4.76401C12.3141 5.03901 11.1811 5.33601 10.3011 5.54501L10.0811 4.85201C10.3011 4.80801 10.5321 4.76401 10.7961 4.70901V0.936006H11.5331V2.25601H13.2381V2.92701H11.5331V4.54401C12.1051 4.41201 12.7211 4.26901 13.3371 4.12601ZM15.5041 7.97601V6.93101H11.7421V7.97601H15.5041ZM11.7421 9.71401H15.5041V8.61401H11.7421V9.71401ZM12.9741 5.12701L13.7881 5.30301C13.6671 5.62201 13.5351 5.95201 13.4141 6.23801H16.2961V10.77H15.5041V10.407H11.7421V10.814H10.9941V6.23801H12.6331C12.7651 5.87501 12.9081 5.44601 12.9741 5.12701ZM14.8111 4.67601H15.8781C16.1421 4.67601 16.2081 4.54401 16.2301 3.64201C16.3951 3.76301 16.6921 3.88401 16.9121 3.93901C16.8241 5.07201 16.6151 5.35801 15.9551 5.35801H14.7231C13.8981 5.35801 13.7111 5.16001 13.7111 4.34601V0.936006H14.4481V2.55301C15.0751 2.27801 15.7131 1.92601 16.0981 1.60701L16.6701 2.14601C16.0431 2.55301 15.2071 2.92701 14.4481 3.20201V4.34601C14.4481 4.63201 14.4921 4.67601 14.8111 4.67601Z" fill="black"/>
<path d="M23.8201 4.78601L23.0501 5.20401C22.7531 4.44501 22.0491 3.32301 21.3561 2.52001L22.0821 2.15701C22.8081 2.96001 23.5121 4.03801 23.8201 4.78601ZM22.2581 6.92001L22.4451 7.70101C20.9271 8.39401 19.2661 9.12001 18.0561 9.64801L17.7591 8.80101C18.1881 8.63601 18.7051 8.42701 19.2771 8.18501L19.0901 1.38701L19.9261 1.35401L20.0911 7.84401C20.7951 7.54701 21.5321 7.22801 22.2581 6.92001ZM27.9671 10.176L27.2851 10.803C26.7791 10.044 25.7561 8.88901 24.8211 7.89901C23.9631 9.19701 22.7641 10.154 21.0481 10.869C20.9381 10.704 20.5971 10.33 20.3991 10.165C24.1721 8.77901 25.3381 6.11701 25.8221 1.36501L26.7131 1.45301C26.4491 3.80701 26.0311 5.67701 25.2611 7.15101C26.2401 8.14101 27.4061 9.36201 27.9671 10.176Z" fill="#262626"/>
<path d="M23.8201 4.78601L23.0501 5.20401C22.7531 4.44501 22.0491 3.32301 21.3561 2.52001L22.0821 2.15701C22.8081 2.96001 23.5121 4.03801 23.8201 4.78601ZM22.2581 6.92001L22.4451 7.70101C20.9271 8.39401 19.2661 9.12001 18.0561 9.64801L17.7591 8.80101C18.1881 8.63601 18.7051 8.42701 19.2771 8.18501L19.0901 1.38701L19.9261 1.35401L20.0911 7.84401C20.7951 7.54701 21.5321 7.22801 22.2581 6.92001ZM27.9671 10.176L27.2851 10.803C26.7791 10.044 25.7561 8.88901 24.8211 7.89901C23.9631 9.19701 22.7641 10.154 21.0481 10.869C20.9381 10.704 20.5971 10.33 20.3991 10.165C24.1721 8.77901 25.3381 6.11701 25.8221 1.36501L26.7131 1.45301C26.4491 3.80701 26.0311 5.67701 25.2611 7.15101C26.2401 8.14101 27.4061 9.36201 27.9671 10.176Z" fill="black"/>
<path d="M38.6921 2.42101H34.0501V4.37901L34.1931 4.21401C35.5021 4.84101 37.2291 5.83101 38.0981 6.49101L37.5261 7.22801C36.7781 6.61201 35.3041 5.71001 34.0501 5.03901V10.825H33.1811V2.42101H28.9791V1.60701H38.6921V2.42101Z" fill="#262626"/>
<path d="M38.6921 2.42101H34.0501V4.37901L34.1931 4.21401C35.5021 4.84101 37.2291 5.83101 38.0981 6.49101L37.5261 7.22801C36.7781 6.61201 35.3041 5.71001 34.0501 5.03901V10.825H33.1811V2.42101H28.9791V1.60701H38.6921V2.42101Z" fill="black"/>
<path d="M49.3181 6.15001C49.3181 8.46001 47.8001 10 45.1931 10.341L44.6761 9.52701C45.0281 9.49401 45.3691 9.43901 45.6221 9.38401C47.0301 9.06501 48.4161 8.02001 48.4161 6.11701C48.4161 4.45601 47.3491 3.08101 45.4791 2.92701C45.3361 3.95001 45.1271 5.07201 44.8191 6.09501C44.1481 8.36101 43.2791 9.51601 42.2561 9.51601C41.2771 9.51601 40.2981 8.39401 40.2981 6.57901C40.2981 4.19201 42.4211 2.10201 45.1051 2.10201C47.6791 2.10201 49.3181 3.91701 49.3181 6.15001ZM41.1561 6.50201C41.1561 7.88801 41.7941 8.50401 42.2891 8.50401C42.8061 8.50401 43.3891 7.76701 43.9501 5.90801C44.2251 4.99501 44.4451 3.95001 44.5661 2.93801C42.4541 3.20201 41.1561 5.00601 41.1561 6.50201Z" fill="#262626"/>
<path d="M49.3181 6.15001C49.3181 8.46001 47.8001 10 45.1931 10.341L44.6761 9.52701C45.0281 9.49401 45.3691 9.43901 45.6221 9.38401C47.0301 9.06501 48.4161 8.02001 48.4161 6.11701C48.4161 4.45601 47.3491 3.08101 45.4791 2.92701C45.3361 3.95001 45.1271 5.07201 44.8191 6.09501C44.1481 8.36101 43.2791 9.51601 42.2561 9.51601C41.2771 9.51601 40.2981 8.39401 40.2981 6.57901C40.2981 4.19201 42.4211 2.10201 45.1051 2.10201C47.6791 2.10201 49.3181 3.91701 49.3181 6.15001ZM41.1561 6.50201C41.1561 7.88801 41.7941 8.50401 42.2891 8.50401C42.8061 8.50401 43.3891 7.76701 43.9501 5.90801C44.2251 4.99501 44.4451 3.95001 44.5661 2.93801C42.4541 3.20201 41.1561 5.00601 41.1561 6.50201Z" fill="black"/>
<path d="M53.2671 0.837006L54.0261 1.06801C53.7181 1.88201 53.3331 2.68501 52.8931 3.44401V10.814H52.1231V4.64301C51.7711 5.14901 51.3971 5.60001 51.0121 5.99601C50.9241 5.80901 50.7041 5.38001 50.5501 5.20401C51.6281 4.14801 52.6401 2.50901 53.2671 0.837006ZM53.9381 10.55V9.82401H58.6021V10.55H53.9381ZM55.1481 4.63201H57.4801C57.4031 3.92801 57.3591 3.19101 57.3481 2.44301C56.6111 2.56401 55.8631 2.66301 55.1481 2.75101V4.63201ZM60.8461 5.36901H58.3601C58.6901 7.88801 59.3501 9.62601 60.0211 9.61501C60.2521 9.61501 60.3621 9.16401 60.4061 8.09701C60.5711 8.27301 60.8461 8.44901 61.0441 8.52601C60.9341 10 60.6481 10.418 59.9551 10.418C58.7231 10.418 57.9201 8.27301 57.5571 5.36901H55.1481V8.18501C55.9401 8.05301 56.8201 7.89901 57.6891 7.73401L57.7221 8.46001C56.3361 8.72401 54.8841 9.01001 53.7951 9.19701L53.6191 8.43801L54.3561 8.31701V1.91501L54.8951 2.09101C56.6441 1.88201 58.5801 1.54101 59.6911 1.15601L60.3291 1.78301C59.7131 1.97001 58.9651 2.14601 58.1621 2.30001C58.1731 3.11401 58.2171 3.89501 58.2831 4.63201H60.8461V5.36901Z" fill="#262626"/>
<path d="M53.2671 0.837006L54.0261 1.06801C53.7181 1.88201 53.3331 2.68501 52.8931 3.44401V10.814H52.1231V4.64301C51.7711 5.14901 51.3971 5.60001 51.0121 5.99601C50.9241 5.80901 50.7041 5.38001 50.5501 5.20401C51.6281 4.14801 52.6401 2.50901 53.2671 0.837006ZM53.9381 10.55V9.82401H58.6021V10.55H53.9381ZM55.1481 4.63201H57.4801C57.4031 3.92801 57.3591 3.19101 57.3481 2.44301C56.6111 2.56401 55.8631 2.66301 55.1481 2.75101V4.63201ZM60.8461 5.36901H58.3601C58.6901 7.88801 59.3501 9.62601 60.0211 9.61501C60.2521 9.61501 60.3621 9.16401 60.4061 8.09701C60.5711 8.27301 60.8461 8.44901 61.0441 8.52601C60.9341 10 60.6481 10.418 59.9551 10.418C58.7231 10.418 57.9201 8.27301 57.5571 5.36901H55.1481V8.18501C55.9401 8.05301 56.8201 7.89901 57.6891 7.73401L57.7221 8.46001C56.3361 8.72401 54.8841 9.01001 53.7951 9.19701L53.6191 8.43801L54.3561 8.31701V1.91501L54.8951 2.09101C56.6441 1.88201 58.5801 1.54101 59.6911 1.15601L60.3291 1.78301C59.7131 1.97001 58.9651 2.14601 58.1621 2.30001C58.1731 3.11401 58.2171 3.89501 58.2831 4.63201H60.8461V5.36901Z" fill="black"/>
<path d="M69.8001 8.17401H65.5541V8.79001H69.8001V8.17401ZM65.5541 9.94501H69.8001V9.29601H65.5541V9.94501ZM64.7731 10.836V7.62401H70.6251V10.814H69.8001V10.506H65.5541V10.836H64.7731ZM70.2511 2.88301V1.97001H63.7281V2.88301H70.2511ZM66.5111 4.26901H68.5791C68.7551 4.06001 68.9641 3.77401 69.1291 3.54301H65.9831C66.2031 3.77401 66.4121 4.04901 66.5111 4.26901ZM70.2621 5.44601V4.78601H67.9851V5.44601H70.2621ZM70.2621 6.62301V5.94101H67.9851V6.62301H70.2621ZM65.0371 5.94101V6.62301H67.2261V5.94101H65.0371ZM65.0371 4.78601V5.44601H67.2261V4.78601H65.0371ZM71.0651 1.31001V3.54301H69.6901L69.9211 3.62001C69.7451 3.85101 69.5581 4.07101 69.3711 4.26901H71.0431V7.14001H64.2781V4.26901H65.7191C65.5871 4.04901 65.4111 3.82901 65.2351 3.64201L65.4991 3.54301H63.7281V4.48901C63.7281 6.34801 63.5631 9.01001 62.4411 10.781C62.2871 10.66 61.9351 10.451 61.7261 10.363C62.8151 8.65801 62.9141 6.24901 62.9141 4.48901V1.31001H71.0651Z" fill="#262626"/>
<path d="M69.8001 8.17401H65.5541V8.79001H69.8001V8.17401ZM65.5541 9.94501H69.8001V9.29601H65.5541V9.94501ZM64.7731 10.836V7.62401H70.6251V10.814H69.8001V10.506H65.5541V10.836H64.7731ZM70.2511 2.88301V1.97001H63.7281V2.88301H70.2511ZM66.5111 4.26901H68.5791C68.7551 4.06001 68.9641 3.77401 69.1291 3.54301H65.9831C66.2031 3.77401 66.4121 4.04901 66.5111 4.26901ZM70.2621 5.44601V4.78601H67.9851V5.44601H70.2621ZM70.2621 6.62301V5.94101H67.9851V6.62301H70.2621ZM65.0371 5.94101V6.62301H67.2261V5.94101H65.0371ZM65.0371 4.78601V5.44601H67.2261V4.78601H65.0371ZM71.0651 1.31001V3.54301H69.6901L69.9211 3.62001C69.7451 3.85101 69.5581 4.07101 69.3711 4.26901H71.0431V7.14001H64.2781V4.26901H65.7191C65.5871 4.04901 65.4111 3.82901 65.2351 3.64201L65.4991 3.54301H63.7281V4.48901C63.7281 6.34801 63.5631 9.01001 62.4411 10.781C62.2871 10.66 61.9351 10.451 61.7261 10.363C62.8151 8.65801 62.9141 6.24901 62.9141 4.48901V1.31001H71.0651Z" fill="black"/>
<path d="M18.719 18.026C18.609 18.147 18.51 18.268 18.444 18.367C17.652 19.654 16.255 21.447 14.44 22.833C15.1 23.493 15.881 24.318 16.321 24.857L15.518 25.495C15.111 24.934 14.231 23.966 13.538 23.251C12.878 22.591 11.602 21.491 11.019 21.084L11.734 20.501C12.141 20.798 13.043 21.535 13.791 22.206C15.408 20.996 16.673 19.379 17.223 18.389H10.755C10.326 18.389 9.853 18.433 9.633 18.455V17.465C9.941 17.509 10.37 17.553 10.755 17.553H17.311C17.619 17.553 17.872 17.52 18.026 17.465L18.719 18.026Z" fill="#262626"/>
<path d="M18.719 18.026C18.609 18.147 18.51 18.268 18.444 18.367C17.652 19.654 16.255 21.447 14.44 22.833C15.1 23.493 15.881 24.318 16.321 24.857L15.518 25.495C15.111 24.934 14.231 23.966 13.538 23.251C12.878 22.591 11.602 21.491 11.019 21.084L11.734 20.501C12.141 20.798 13.043 21.535 13.791 22.206C15.408 20.996 16.673 19.379 17.223 18.389H10.755C10.326 18.389 9.853 18.433 9.633 18.455V17.465C9.941 17.509 10.37 17.553 10.755 17.553H17.311C17.619 17.553 17.872 17.52 18.026 17.465L18.719 18.026Z" fill="black"/>
<path d="M21.997 16.937C22.778 17.454 24.186 18.598 24.802 19.214L24.109 19.907C23.559 19.335 22.184 18.158 21.37 17.608L21.997 16.937ZM21.051 24.307C22.976 24.021 24.406 23.35 25.451 22.701C27.145 21.634 28.487 20.006 29.125 18.653L29.653 19.588C28.905 20.963 27.618 22.459 25.957 23.504C24.857 24.197 23.471 24.868 21.634 25.209L21.051 24.307Z" fill="#262626"/>
<path d="M21.997 16.937C22.778 17.454 24.186 18.598 24.802 19.214L24.109 19.907C23.559 19.335 22.184 18.158 21.37 17.608L21.997 16.937ZM21.051 24.307C22.976 24.021 24.406 23.35 25.451 22.701C27.145 21.634 28.487 20.006 29.125 18.653L29.653 19.588C28.905 20.963 27.618 22.459 25.957 23.504C24.857 24.197 23.471 24.868 21.634 25.209L21.051 24.307Z" fill="black"/>
<path d="M33.811 16.552C34.46 16.915 35.725 17.751 36.198 18.103L35.681 18.851C35.153 18.455 33.965 17.663 33.316 17.289L33.811 16.552ZM32.161 24.417C33.371 24.208 34.735 23.768 35.846 23.13C37.672 22.085 39.124 20.655 40.015 19.104L40.543 20.006C39.597 21.491 38.068 22.91 36.319 23.944C35.208 24.582 33.69 25.099 32.667 25.308L32.161 24.417ZM32.15 19.027C32.799 19.379 34.086 20.16 34.57 20.512L34.064 21.282C33.525 20.886 32.326 20.116 31.666 19.775L32.15 19.027Z" fill="#262626"/>
<path d="M33.811 16.552C34.46 16.915 35.725 17.751 36.198 18.103L35.681 18.851C35.153 18.455 33.965 17.663 33.316 17.289L33.811 16.552ZM32.161 24.417C33.371 24.208 34.735 23.768 35.846 23.13C37.672 22.085 39.124 20.655 40.015 19.104L40.543 20.006C39.597 21.491 38.068 22.91 36.319 23.944C35.208 24.582 33.69 25.099 32.667 25.308L32.161 24.417ZM32.15 19.027C32.799 19.379 34.086 20.16 34.57 20.512L34.064 21.282C33.525 20.886 32.326 20.116 31.666 19.775L32.15 19.027Z" fill="black"/>
<path d="M43.953 18.961C44.162 18.983 44.789 19.005 45.075 19.005H49.332C49.574 19.005 49.86 18.994 50.003 18.983C49.992 19.104 49.992 19.335 49.992 19.544V25.022C49.992 25.198 50.003 25.462 50.014 25.616H49.145C49.156 25.517 49.156 25.352 49.156 25.176H44.734C44.382 25.176 43.997 25.198 43.821 25.198V24.318C43.997 24.34 44.349 24.362 44.723 24.362H49.156V22.404H45.185C44.8 22.404 44.415 22.415 44.195 22.426V21.579C44.404 21.59 44.8 21.612 45.174 21.612H49.156V19.786H45.075C44.789 19.786 44.151 19.808 43.953 19.819V18.961Z" fill="#262626"/>
<path d="M43.953 18.961C44.162 18.983 44.789 19.005 45.075 19.005H49.332C49.574 19.005 49.86 18.994 50.003 18.983C49.992 19.104 49.992 19.335 49.992 19.544V25.022C49.992 25.198 50.003 25.462 50.014 25.616H49.145C49.156 25.517 49.156 25.352 49.156 25.176H44.734C44.382 25.176 43.997 25.198 43.821 25.198V24.318C43.997 24.34 44.349 24.362 44.723 24.362H49.156V22.404H45.185C44.8 22.404 44.415 22.415 44.195 22.426V21.579C44.404 21.59 44.8 21.612 45.174 21.612H49.156V19.786H45.075C44.789 19.786 44.151 19.808 43.953 19.819V18.961Z" fill="black"/>
<path d="M54.997 16.937C55.778 17.454 57.186 18.598 57.802 19.214L57.109 19.907C56.559 19.335 55.184 18.158 54.37 17.608L54.997 16.937ZM54.051 24.307C55.976 24.021 57.406 23.35 58.451 22.701C60.145 21.634 61.487 20.006 62.125 18.653L62.653 19.588C61.905 20.963 60.618 22.459 58.957 23.504C57.857 24.197 56.471 24.868 54.634 25.209L54.051 24.307Z" fill="#262626"/>
<path d="M54.997 16.937C55.778 17.454 57.186 18.598 57.802 19.214L57.109 19.907C56.559 19.335 55.184 18.158 54.37 17.608L54.997 16.937ZM54.051 24.307C55.976 24.021 57.406 23.35 58.451 22.701C60.145 21.634 61.487 20.006 62.125 18.653L62.653 19.588C61.905 20.963 60.618 22.459 58.957 23.504C57.857 24.197 56.471 24.868 54.634 25.209L54.051 24.307Z" fill="black"/>
</svg>
