<svg width="49" height="11" viewBox="0 0 49 11" fill="none" xmlns="http://www.w3.org/2000/svg">
<path d="M4.76709 9.99999V8.45849H0.88916V7.41113L4.18164 2.24951H5.92188V7.44873H6.99072V8.45849H5.92188V9.99999H4.76709ZM2.00635 7.46484H4.77783V3.20019H4.74561L2.00635 7.43261V7.46484Z" fill="#262626"/>
<path d="M4.76709 9.99999V8.45849H0.88916V7.41113L4.18164 2.24951H5.92188V7.44873H6.99072V8.45849H5.92188V9.99999H4.76709ZM2.00635 7.46484H4.77783V3.20019H4.74561L2.00635 7.43261V7.46484Z" fill="black"/>
<path d="M8.0166 9.99999V2.24951H9.21973V8.96337H12.8291V9.99999H8.0166Z" fill="#262626"/>
<path d="M8.0166 9.99999V2.24951H9.21973V8.96337H12.8291V9.99999H8.0166Z" fill="black"/>
<path d="M13.8604 9.99999V2.24951H16.5942C18.8931 2.24951 20.2627 3.6621 20.2627 6.10058V6.11132C20.2627 8.56054 18.9038 9.99999 16.5942 9.99999H13.8604ZM15.0635 8.958H16.4814C18.125 8.958 19.0327 7.95361 19.0327 6.12207V6.11132C19.0327 4.29052 18.1143 3.28613 16.4814 3.28613H15.0635V8.958Z" fill="#262626"/>
<path d="M13.8604 9.99999V2.24951H16.5942C18.8931 2.24951 20.2627 3.6621 20.2627 6.10058V6.11132C20.2627 8.56054 18.9038 9.99999 16.5942 9.99999H13.8604ZM15.0635 8.958H16.4814C18.125 8.958 19.0327 7.95361 19.0327 6.12207V6.11132C19.0327 4.29052 18.1143 3.28613 16.4814 3.28613H15.0635V8.958Z" fill="black"/>
<path d="M21.4121 9.99999V2.24951H22.6152V5.96093H22.6475L25.7734 2.24951H27.2021L24.2642 5.67626L27.4546 9.99999H25.9668L23.4048 6.49804L22.6152 7.41113V9.99999H21.4121Z" fill="#262626"/>
<path d="M21.4121 9.99999V2.24951H22.6152V5.96093H22.6475L25.7734 2.24951H27.2021L24.2642 5.67626L27.4546 9.99999H25.9668L23.4048 6.49804L22.6152 7.41113V9.99999H21.4121Z" fill="black"/>
<path d="M34.009 4.78599L33.239 5.20399C32.942 4.44499 32.238 3.32299 31.545 2.51999L32.271 2.15699C32.997 2.95999 33.701 4.03799 34.009 4.78599ZM32.447 6.91999L32.634 7.70099C31.116 8.39399 29.455 9.11999 28.245 9.64799L27.948 8.80099C28.377 8.63599 28.894 8.42699 29.466 8.18499L29.279 1.38699L30.115 1.35399L30.28 7.84399C30.984 7.54699 31.721 7.22799 32.447 6.91999ZM38.156 10.176L37.474 10.803C36.968 10.044 35.945 8.889 35.01 7.89899C34.152 9.197 32.953 10.154 31.237 10.869C31.127 10.704 30.786 10.33 30.588 10.165C34.361 8.779 35.527 6.11699 36.011 1.36499L36.902 1.45299C36.638 3.80699 36.22 5.67699 35.45 7.15099C36.429 8.14099 37.595 9.36199 38.156 10.176Z" fill="#262626"/>
<path d="M34.009 4.78599L33.239 5.20399C32.942 4.44499 32.238 3.32299 31.545 2.51999L32.271 2.15699C32.997 2.95999 33.701 4.03799 34.009 4.78599ZM32.447 6.91999L32.634 7.70099C31.116 8.39399 29.455 9.11999 28.245 9.64799L27.948 8.80099C28.377 8.63599 28.894 8.42699 29.466 8.18499L29.279 1.38699L30.115 1.35399L30.28 7.84399C30.984 7.54699 31.721 7.22799 32.447 6.91999ZM38.156 10.176L37.474 10.803C36.968 10.044 35.945 8.889 35.01 7.89899C34.152 9.197 32.953 10.154 31.237 10.869C31.127 10.704 30.786 10.33 30.588 10.165C34.361 8.779 35.527 6.11699 36.011 1.36499L36.902 1.45299C36.638 3.80699 36.22 5.67699 35.45 7.15099C36.429 8.14099 37.595 9.36199 38.156 10.176Z" fill="black"/>
<path d="M44.085 9.505H48.925V10.319H39.124V9.505H43.227V0.968994H44.085V4.33499H48.177V5.14899H44.085V9.505Z" fill="#262626"/>
<path d="M44.085 9.505H48.925V10.319H39.124V9.505H43.227V0.968994H44.085V4.33499H48.177V5.14899H44.085V9.505Z" fill="black"/>
</svg>
