<svg width="34" height="30" viewBox="0 0 34 30" fill="none" xmlns="http://www.w3.org/2000/svg">
<g id="_&#231;&#183;&#168;&#233;&#155;&#134;&#227;&#131;&#162;&#227;&#131;&#188;&#227;&#131;&#137;" clip-path="url(#clip0_3126_20671)">
<g id="Group">
<path id="Vector" d="M33.0723 6.33234V7.14024H27.3447V1.41272L28.1526 1.41272C30.8652 1.41272 33.0723 3.61527 33.0723 6.33234Z" stroke="#8C7D5E" stroke-width="1.5" stroke-linecap="round" stroke-linejoin="round"/>
<path id="Vector_2" d="M32.5579 20.2813V12.27H26.4603H20.3672V20.2813V28.2881H26.4603H32.5579V20.2813Z" stroke="#8C7D5E" stroke-width="1.5" stroke-linecap="round" stroke-linejoin="round"/>
<path id="Vector_3" d="M27.3448 6.63726V1H14.1701H1V6.63726V12.2745H14.1701H27.3448V6.63726Z" stroke="#8C7D5E" stroke-width="1.5" stroke-linecap="round" stroke-linejoin="round"/>
<path id="Vector_4" d="M1 12.2745V28.2881H20.3671" stroke="#8C7D5E" stroke-width="1.5" stroke-linecap="round" stroke-linejoin="round"/>
<path id="Vector_5" d="M9.25586 12.2745V6.63726V1" stroke="#8C7D5E" stroke-width="1.5" stroke-linecap="round" stroke-linejoin="round"/>
</g>
<g id="Group 1166">
<g id="Group_2">
<path id="Vector_6" d="M7 12.083V19H11.683" stroke="#F2F2F2" stroke-width="6" stroke-linecap="square" stroke-linejoin="round"/>
<g id="Group_3">
<path id="Vector_7" d="M23.3652 12L23.369 18.9623" stroke="#F2F2F2" stroke-width="6" stroke-linecap="square" stroke-linejoin="round"/>
<path id="Vector_8" d="M27.6753 12.2039L23.5508 15.5435L27.6753 18.8831" stroke="#F2F2F2" stroke-width="6" stroke-linecap="square" stroke-linejoin="round"/>
</g>
<g id="Group_4">
<path id="Vector_9" d="M15.2949 12.0831V18.9624" stroke="#F2F2F2" stroke-width="6" stroke-linecap="square" stroke-linejoin="round"/>
<path id="Vector_10" d="M15.2949 18.9396C15.2949 18.9396 19.7893 19.7321 19.7893 15.5207C19.7893 11.3094 15.2949 12.1019 15.2949 12.1019" stroke="#F2F2F2" stroke-width="6" stroke-linecap="square" stroke-linejoin="round"/>
</g>
</g>
<g id="Group_5">
<path id="Vector_11" d="M7 12.083V19H11.683" stroke="#8C7D5E" stroke-width="1.5" stroke-linecap="round" stroke-linejoin="round"/>
<g id="Group_6">
<path id="Vector_12" d="M23.3652 12L23.369 18.9623" stroke="#8C7D5E" stroke-width="1.5" stroke-linecap="round" stroke-linejoin="round"/>
<path id="Vector_13" d="M27.6753 12.2039L23.5508 15.5435L27.6753 18.8831" stroke="#8C7D5E" stroke-width="1.5" stroke-linecap="round" stroke-linejoin="round"/>
</g>
<g id="Group_7">
<path id="Vector_14" d="M15.2949 12.0831V18.9624" stroke="#8C7D5E" stroke-width="1.5" stroke-linecap="round" stroke-linejoin="round"/>
<path id="Vector_15" d="M15.2949 18.9396C15.2949 18.9396 19.7893 19.7321 19.7893 15.5207C19.7893 11.3094 15.2949 12.1019 15.2949 12.1019" stroke="#8C7D5E" stroke-width="1.5" stroke-linecap="round" stroke-linejoin="round"/>
</g>
</g>
</g>
</g>
<defs>
<clipPath id="clip0_3126_20671">
<rect width="34" height="30" fill="white"/>
</clipPath>
</defs>
</svg>
