<svg width="65" height="26" viewBox="0 0 65 26" fill="none" xmlns="http://www.w3.org/2000/svg">
<path d="M0.160156 10V2.24952H1.36328V10H0.160156Z" fill="#262626"/>
<path d="M0.160156 10V2.24952H1.36328V10H0.160156Z" fill="black"/>
<path d="M2.79199 10V2.24952H3.99512V5.52589H7.9751V2.24952H9.17822V10H7.9751V6.56788H3.99512V10H2.79199Z" fill="#262626"/>
<path d="M2.79199 10V2.24952H3.99512V5.52589H7.9751V2.24952H9.17822V10H7.9751V6.56788H3.99512V10H2.79199Z" fill="black"/>
<path d="M15.7942 1.45301C15.6072 1.73901 15.4092 2.11301 15.3102 2.32201C15.2332 2.47601 15.1452 2.63001 15.0462 2.78401H18.0272C18.3242 2.78401 18.5662 2.75101 18.7422 2.67401L19.4792 3.12501C19.3912 3.27901 19.2812 3.53201 19.2262 3.70801C18.9292 4.81901 18.2472 6.30401 17.2682 7.49201C16.2672 8.71301 14.9582 9.72501 12.8902 10.484L12.0982 9.76901C14.1112 9.17501 15.4862 8.17401 16.4872 7.00801C17.3452 5.99601 18.0162 4.57701 18.2472 3.57601H14.5292C13.8582 4.50001 12.9342 5.47901 11.7352 6.28201L10.9762 5.71001C12.8682 4.57701 13.9572 2.98201 14.4302 1.99201C14.5402 1.80501 14.7052 1.40901 14.7712 1.12301L15.7942 1.45301Z" fill="#262626"/>
<path d="M15.7942 1.45301C15.6072 1.73901 15.4092 2.11301 15.3102 2.32201C15.2332 2.47601 15.1452 2.63001 15.0462 2.78401H18.0272C18.3242 2.78401 18.5662 2.75101 18.7422 2.67401L19.4792 3.12501C19.3912 3.27901 19.2812 3.53201 19.2262 3.70801C18.9292 4.81901 18.2472 6.30401 17.2682 7.49201C16.2672 8.71301 14.9582 9.72501 12.8902 10.484L12.0982 9.76901C14.1112 9.17501 15.4862 8.17401 16.4872 7.00801C17.3452 5.99601 18.0162 4.57701 18.2472 3.57601H14.5292C13.8582 4.50001 12.9342 5.47901 11.7352 6.28201L10.9762 5.71001C12.8682 4.57701 13.9572 2.98201 14.4302 1.99201C14.5402 1.80501 14.7052 1.40901 14.7712 1.12301L15.7942 1.45301Z" fill="black"/>
<path d="M26.2002 3.66401C26.3872 4.10401 26.9262 5.55601 27.0692 6.04001L26.2552 6.32601C26.1342 5.83101 25.6282 4.43401 25.3972 3.93901L26.2002 3.66401ZM30.1822 4.28001C30.1052 4.51101 30.0612 4.68701 30.0172 4.83001C29.7202 6.04001 29.2472 7.21701 28.4552 8.20701C27.4432 9.50501 26.1012 10.352 24.8692 10.825L24.1432 10.088C25.4192 9.71401 26.8162 8.87801 27.7182 7.74501C28.4992 6.78801 29.0712 5.39101 29.2362 3.98301L30.1822 4.28001ZM23.6482 4.21401C23.8682 4.68701 24.4402 6.12801 24.6492 6.70001L23.8132 7.00801C23.6482 6.43601 23.0542 4.91801 22.8342 4.53301L23.6482 4.21401Z" fill="#262626"/>
<path d="M26.2002 3.66401C26.3872 4.10401 26.9262 5.55601 27.0692 6.04001L26.2552 6.32601C26.1342 5.83101 25.6282 4.43401 25.3972 3.93901L26.2002 3.66401ZM30.1822 4.28001C30.1052 4.51101 30.0612 4.68701 30.0172 4.83001C29.7202 6.04001 29.2472 7.21701 28.4552 8.20701C27.4432 9.50501 26.1012 10.352 24.8692 10.825L24.1432 10.088C25.4192 9.71401 26.8162 8.87801 27.7182 7.74501C28.4992 6.78801 29.0712 5.39101 29.2362 3.98301L30.1822 4.28001ZM23.6482 4.21401C23.8682 4.68701 24.4402 6.12801 24.6492 6.70001L23.8132 7.00801C23.6482 6.43601 23.0542 4.91801 22.8342 4.53301L23.6482 4.21401Z" fill="black"/>
<path d="M36.1992 2.22301C36.1442 1.93701 36.0672 1.69501 35.9902 1.47501L36.9802 1.29901C36.9912 1.50801 37.0462 1.81601 37.0792 2.05801C37.1012 2.17901 37.1782 2.63001 37.3102 3.24601C38.3772 3.07001 39.3892 2.90501 39.8512 2.81701C40.1702 2.76201 40.4452 2.68501 40.6322 2.63001L40.8192 3.55401C40.6542 3.57601 40.3132 3.62001 40.0272 3.66401C39.5212 3.74101 38.5202 3.90601 37.4642 4.07101C37.6072 4.75301 37.7612 5.53401 37.9042 6.27101C39.0152 6.09501 40.0602 5.90801 40.6102 5.80901C41.0392 5.73201 41.3472 5.66601 41.5892 5.60001L41.7652 6.52401C41.5342 6.54601 41.1822 6.60101 40.7752 6.66701C40.1702 6.76601 39.1472 6.93101 38.0692 7.09601C38.2892 8.17401 38.4652 9.05401 38.5202 9.30701C38.5972 9.62601 38.6852 10 38.7842 10.308L37.7832 10.495C37.7282 10.121 37.6952 9.79101 37.6182 9.46101C37.5742 9.21901 37.3982 8.32801 37.1892 7.23901C35.9462 7.44801 34.7692 7.64601 34.2302 7.74501C33.8012 7.82201 33.4932 7.87701 33.2622 7.94301L33.0642 6.98601C33.3172 6.97501 33.7462 6.93101 34.0322 6.88701C34.5822 6.81001 35.7812 6.62301 37.0352 6.42501C36.8812 5.67701 36.7272 4.89601 36.5952 4.21401C35.5502 4.37901 34.5932 4.53301 34.1752 4.61001C33.8672 4.66501 33.6142 4.72001 33.2842 4.79701L33.0972 3.80701C33.3722 3.79601 33.6582 3.77401 34.0102 3.73001C34.4392 3.68601 35.3962 3.54301 36.4302 3.37801C36.3092 2.78401 36.2322 2.35501 36.1992 2.22301Z" fill="#262626"/>
<path d="M36.1992 2.22301C36.1442 1.93701 36.0672 1.69501 35.9902 1.47501L36.9802 1.29901C36.9912 1.50801 37.0462 1.81601 37.0792 2.05801C37.1012 2.17901 37.1782 2.63001 37.3102 3.24601C38.3772 3.07001 39.3892 2.90501 39.8512 2.81701C40.1702 2.76201 40.4452 2.68501 40.6322 2.63001L40.8192 3.55401C40.6542 3.57601 40.3132 3.62001 40.0272 3.66401C39.5212 3.74101 38.5202 3.90601 37.4642 4.07101C37.6072 4.75301 37.7612 5.53401 37.9042 6.27101C39.0152 6.09501 40.0602 5.90801 40.6102 5.80901C41.0392 5.73201 41.3472 5.66601 41.5892 5.60001L41.7652 6.52401C41.5342 6.54601 41.1822 6.60101 40.7752 6.66701C40.1702 6.76601 39.1472 6.93101 38.0692 7.09601C38.2892 8.17401 38.4652 9.05401 38.5202 9.30701C38.5972 9.62601 38.6852 10 38.7842 10.308L37.7832 10.495C37.7282 10.121 37.6952 9.79101 37.6182 9.46101C37.5742 9.21901 37.3982 8.32801 37.1892 7.23901C35.9462 7.44801 34.7692 7.64601 34.2302 7.74501C33.8012 7.82201 33.4932 7.87701 33.2622 7.94301L33.0642 6.98601C33.3172 6.97501 33.7462 6.93101 34.0322 6.88701C34.5822 6.81001 35.7812 6.62301 37.0352 6.42501C36.8812 5.67701 36.7272 4.89601 36.5952 4.21401C35.5502 4.37901 34.5932 4.53301 34.1752 4.61001C33.8672 4.66501 33.6142 4.72001 33.2842 4.79701L33.0972 3.80701C33.3722 3.79601 33.6582 3.77401 34.0102 3.73001C34.4392 3.68601 35.3962 3.54301 36.4302 3.37801C36.3092 2.78401 36.2322 2.35501 36.1992 2.22301Z" fill="black"/>
<path d="M45.0512 1.93701C45.8322 2.45401 47.2402 3.59801 47.8562 4.21401L47.1632 4.90701C46.6132 4.33501 45.2382 3.15801 44.4242 2.60801L45.0512 1.93701ZM44.1052 9.30701C46.0302 9.02101 47.4602 8.35001 48.5052 7.70101C50.1992 6.63401 51.5412 5.00601 52.1792 3.65301L52.7072 4.58801C51.9592 5.96301 50.6722 7.45901 49.0112 8.50401C47.9112 9.19701 46.5252 9.86801 44.6882 10.209L44.1052 9.30701Z" fill="#262626"/>
<path d="M45.0512 1.93701C45.8322 2.45401 47.2402 3.59801 47.8562 4.21401L47.1632 4.90701C46.6132 4.33501 45.2382 3.15801 44.4242 2.60801L45.0512 1.93701ZM44.1052 9.30701C46.0302 9.02101 47.4602 8.35001 48.5052 7.70101C50.1992 6.63401 51.5412 5.00601 52.1792 3.65301L52.7072 4.58801C51.9592 5.96301 50.6722 7.45901 49.0112 8.50401C47.9112 9.19701 46.5252 9.86801 44.6882 10.209L44.1052 9.30701Z" fill="black"/>
<path d="M61.9692 1.20001C62.2442 1.59601 62.6402 2.25601 62.8712 2.70701L62.2772 2.97101C62.0572 2.53101 61.6832 1.86001 61.3862 1.45301L61.9692 1.20001ZM63.1792 0.76001C63.4652 1.16701 63.8942 1.84901 64.1032 2.25601L63.5092 2.52001C63.2672 2.04701 62.9042 1.42001 62.5962 1.01301L63.1792 0.76001ZM59.0102 1.72801C58.8342 2.01401 58.6362 2.38801 58.5262 2.58601C58.4492 2.74001 58.3612 2.89401 58.2732 3.04801H61.2542C61.5512 3.04801 61.7932 3.01501 61.9692 2.94901L62.6952 3.38901C62.6072 3.54301 62.4972 3.79601 62.4422 3.97201C62.1452 5.08301 61.4742 6.56801 60.4952 7.76701C59.4942 8.98801 58.1742 9.98901 56.1172 10.759L55.3142 10.033C57.3382 9.43901 58.7132 8.44901 59.7142 7.27201C60.5612 6.27101 61.2432 4.84101 61.4632 3.84001H57.7562C57.0852 4.77501 56.1722 5.75401 54.9622 6.54601L54.2032 5.98501C56.0952 4.85201 57.1732 3.24601 57.6572 2.26701C57.7672 2.06901 57.9322 1.67301 57.9982 1.38701L59.0102 1.72801Z" fill="#262626"/>
<path d="M61.9692 1.20001C62.2442 1.59601 62.6402 2.25601 62.8712 2.70701L62.2772 2.97101C62.0572 2.53101 61.6832 1.86001 61.3862 1.45301L61.9692 1.20001ZM63.1792 0.76001C63.4652 1.16701 63.8942 1.84901 64.1032 2.25601L63.5092 2.52001C63.2672 2.04701 62.9042 1.42001 62.5962 1.01301L63.1792 0.76001ZM59.0102 1.72801C58.8342 2.01401 58.6362 2.38801 58.5262 2.58601C58.4492 2.74001 58.3612 2.89401 58.2732 3.04801H61.2542C61.5512 3.04801 61.7932 3.01501 61.9692 2.94901L62.6952 3.38901C62.6072 3.54301 62.4972 3.79601 62.4422 3.97201C62.1452 5.08301 61.4742 6.56801 60.4952 7.76701C59.4942 8.98801 58.1742 9.98901 56.1172 10.759L55.3142 10.033C57.3382 9.43901 58.7132 8.44901 59.7142 7.27201C60.5612 6.27101 61.2432 4.84101 61.4632 3.84001H57.7562C57.0852 4.77501 56.1722 5.75401 54.9622 6.54601L54.2032 5.98501C56.0952 4.85201 57.1732 3.24601 57.6572 2.26701C57.7672 2.06901 57.9322 1.67301 57.9982 1.38701L59.0102 1.72801Z" fill="black"/>
<path d="M13.509 16.541C13.476 16.794 13.443 17.124 13.443 17.432V19.918C14.763 19.599 16.611 19.027 17.755 18.532C18.085 18.389 18.404 18.224 18.723 18.026L19.108 18.917C18.789 19.049 18.393 19.225 18.063 19.346C16.82 19.841 14.818 20.468 13.443 20.82V23.24C13.443 23.801 13.685 23.944 14.213 24.054C14.565 24.109 15.126 24.142 15.676 24.142C16.831 24.142 18.525 24.032 19.438 23.79V24.791C18.481 24.934 16.831 25.022 15.632 25.022C14.972 25.022 14.323 24.989 13.861 24.912C13.025 24.758 12.552 24.373 12.552 23.482V17.432C12.552 17.135 12.53 16.761 12.486 16.541H13.509Z" fill="#262626"/>
<path d="M13.509 16.541C13.476 16.794 13.443 17.124 13.443 17.432V19.918C14.763 19.599 16.611 19.027 17.755 18.532C18.085 18.389 18.404 18.224 18.723 18.026L19.108 18.917C18.789 19.049 18.393 19.225 18.063 19.346C16.82 19.841 14.818 20.468 13.443 20.82V23.24C13.443 23.801 13.685 23.944 14.213 24.054C14.565 24.109 15.126 24.142 15.676 24.142C16.831 24.142 18.525 24.032 19.438 23.79V24.791C18.481 24.934 16.831 25.022 15.632 25.022C14.972 25.022 14.323 24.989 13.861 24.912C13.025 24.758 12.552 24.373 12.552 23.482V17.432C12.552 17.135 12.53 16.761 12.486 16.541H13.509Z" fill="black"/>
<path d="M22.122 20.237C22.452 20.259 23.035 20.292 23.651 20.292H29.679C30.229 20.292 30.625 20.259 30.867 20.237V21.315C30.647 21.304 30.185 21.26 29.69 21.26H23.651C23.046 21.26 22.463 21.282 22.122 21.315V20.237Z" fill="#262626"/>
<path d="M22.122 20.237C22.452 20.259 23.035 20.292 23.651 20.292H29.679C30.229 20.292 30.625 20.259 30.867 20.237V21.315C30.647 21.304 30.185 21.26 29.69 21.26H23.651C23.046 21.26 22.463 21.282 22.122 21.315V20.237Z" fill="black"/>
<path d="M37.896 16.365C37.709 16.651 37.511 17.025 37.401 17.223C37.335 17.355 37.258 17.487 37.17 17.619H40.151C40.448 17.619 40.69 17.575 40.877 17.509L41.603 17.949C41.504 18.103 41.405 18.367 41.339 18.543C41.053 19.555 40.459 20.842 39.623 21.964C40.085 22.305 40.525 22.646 40.877 22.932L40.228 23.691C39.898 23.394 39.48 23.053 39.029 22.69C38.05 23.779 36.697 24.791 34.838 25.484L34.046 24.802C35.905 24.23 37.313 23.218 38.303 22.151C37.511 21.579 36.675 21.007 35.971 20.567L36.565 19.962C37.291 20.38 38.116 20.908 38.886 21.447C39.601 20.49 40.162 19.302 40.382 18.4H36.664C35.96 19.39 34.981 20.468 33.749 21.315L33.012 20.743C34.904 19.566 36.026 17.916 36.543 16.915C36.653 16.717 36.829 16.332 36.895 16.046L37.896 16.365Z" fill="#262626"/>
<path d="M37.896 16.365C37.709 16.651 37.511 17.025 37.401 17.223C37.335 17.355 37.258 17.487 37.17 17.619H40.151C40.448 17.619 40.69 17.575 40.877 17.509L41.603 17.949C41.504 18.103 41.405 18.367 41.339 18.543C41.053 19.555 40.459 20.842 39.623 21.964C40.085 22.305 40.525 22.646 40.877 22.932L40.228 23.691C39.898 23.394 39.48 23.053 39.029 22.69C38.05 23.779 36.697 24.791 34.838 25.484L34.046 24.802C35.905 24.23 37.313 23.218 38.303 22.151C37.511 21.579 36.675 21.007 35.971 20.567L36.565 19.962C37.291 20.38 38.116 20.908 38.886 21.447C39.601 20.49 40.162 19.302 40.382 18.4H36.664C35.96 19.39 34.981 20.468 33.749 21.315L33.012 20.743C34.904 19.566 36.026 17.916 36.543 16.915C36.653 16.717 36.829 16.332 36.895 16.046L37.896 16.365Z" fill="black"/>
<path d="M44.122 20.237C44.452 20.259 45.035 20.292 45.651 20.292H51.679C52.229 20.292 52.625 20.259 52.867 20.237V21.315C52.647 21.304 52.185 21.26 51.69 21.26H45.651C45.046 21.26 44.463 21.282 44.122 21.315V20.237Z" fill="#262626"/>
<path d="M44.122 20.237C44.452 20.259 45.035 20.292 45.651 20.292H51.679C52.229 20.292 52.625 20.259 52.867 20.237V21.315C52.647 21.304 52.185 21.26 51.69 21.26H45.651C45.046 21.26 44.463 21.282 44.122 21.315V20.237Z" fill="black"/>
</svg>
