<svg width="60" height="11" viewBox="0 0 60 11" fill="none" xmlns="http://www.w3.org/2000/svg">
<path d="M0.904785 10V2.24951H2.10791V8.96338H5.71729V10H0.904785Z" fill="#262626"/>
<path d="M0.904785 10V2.24951H2.10791V8.96338H5.71729V10H0.904785Z" fill="black"/>
<path d="M6.74854 10V2.24951H9.48242C11.7812 2.24951 13.1509 3.66211 13.1509 6.10059V6.11133C13.1509 8.56055 11.792 10 9.48242 10H6.74854ZM7.95166 8.95801H9.36963C11.0132 8.95801 11.9209 7.95361 11.9209 6.12207V6.11133C11.9209 4.29053 11.0024 3.28613 9.36963 3.28613H7.95166V8.95801Z" fill="#262626"/>
<path d="M6.74854 10V2.24951H9.48242C11.7812 2.24951 13.1509 3.66211 13.1509 6.10059V6.11133C13.1509 8.56055 11.792 10 9.48242 10H6.74854ZM7.95166 8.95801H9.36963C11.0132 8.95801 11.9209 7.95361 11.9209 6.12207V6.11133C11.9209 4.29053 11.0024 3.28613 9.36963 3.28613H7.95166V8.95801Z" fill="black"/>
<path d="M14.1875 10V9.17285L16.916 6.42822C17.9473 5.39697 18.1782 4.98877 18.1782 4.38721V4.37647C18.1729 3.64063 17.6143 3.11426 16.8301 3.11426C15.9224 3.11426 15.2725 3.72656 15.2617 4.51074V4.54297H14.123V4.51074C14.123 3.125 15.2993 2.12061 16.814 2.12061C18.3018 2.12061 19.3652 3.05518 19.3652 4.30664V4.31738C19.3652 5.20361 18.9517 5.83203 17.5605 7.20703L15.7988 8.93652V8.98486H19.4888V10H14.1875Z" fill="#262626"/>
<path d="M14.1875 10V9.17285L16.916 6.42822C17.9473 5.39697 18.1782 4.98877 18.1782 4.38721V4.37647C18.1729 3.64063 17.6143 3.11426 16.8301 3.11426C15.9224 3.11426 15.2725 3.72656 15.2617 4.51074V4.54297H14.123V4.51074C14.123 3.125 15.2993 2.12061 16.814 2.12061C18.3018 2.12061 19.3652 3.05518 19.3652 4.30664V4.31738C19.3652 5.20361 18.9517 5.83203 17.5605 7.20703L15.7988 8.93652V8.98486H19.4888V10H14.1875Z" fill="black"/>
<path d="M23.3774 10.1289C21.5244 10.1289 20.418 8.5874 20.418 6.12744V6.1167C20.418 3.65674 21.5244 2.12061 23.3774 2.12061C25.2251 2.12061 26.3369 3.65674 26.3369 6.1167V6.12744C26.3369 8.5874 25.2251 10.1289 23.3774 10.1289ZM23.3774 9.12451C24.4785 9.12451 25.123 7.98584 25.123 6.12744V6.1167C25.123 4.2583 24.4785 3.13037 23.3774 3.13037C22.271 3.13037 21.6318 4.2583 21.6318 6.1167V6.12744C21.6318 7.98584 22.271 9.12451 23.3774 9.12451Z" fill="#262626"/>
<path d="M23.3774 10.1289C21.5244 10.1289 20.418 8.5874 20.418 6.12744V6.1167C20.418 3.65674 21.5244 2.12061 23.3774 2.12061C25.2251 2.12061 26.3369 3.65674 26.3369 6.1167V6.12744C26.3369 8.5874 25.2251 10.1289 23.3774 10.1289ZM23.3774 9.12451C24.4785 9.12451 25.123 7.98584 25.123 6.12744V6.1167C25.123 4.2583 24.4785 3.13037 23.3774 3.13037C22.271 3.13037 21.6318 4.2583 21.6318 6.1167V6.12744C21.6318 7.98584 22.271 9.12451 23.3774 9.12451Z" fill="black"/>
<path d="M31.4956 2.872V7.734C31.4956 8.064 31.4516 8.284 31.2426 8.416C31.0336 8.548 30.7476 8.57 30.3296 8.57C30.3076 8.361 30.2196 8.042 30.1206 7.833C30.4176 7.844 30.6376 7.844 30.7256 7.833C30.8136 7.833 30.8356 7.811 30.8356 7.723V3.609H29.8896V10.847H29.1306V3.609H28.2396V8.603H27.5796V2.872H29.1306V0.804001H29.8896V2.872H31.4956ZM35.9836 9.428V6.282H32.9696V9.428H35.9836ZM37.2816 3.631H34.5866V5.534H36.7756V10.792H35.9836V10.176H32.9696V10.825H32.2216V5.534H33.7836V0.815001H34.5866V2.861H37.2816V3.631Z" fill="#262626"/>
<path d="M31.4956 2.872V7.734C31.4956 8.064 31.4516 8.284 31.2426 8.416C31.0336 8.548 30.7476 8.57 30.3296 8.57C30.3076 8.361 30.2196 8.042 30.1206 7.833C30.4176 7.844 30.6376 7.844 30.7256 7.833C30.8136 7.833 30.8356 7.811 30.8356 7.723V3.609H29.8896V10.847H29.1306V3.609H28.2396V8.603H27.5796V2.872H29.1306V0.804001H29.8896V2.872H31.4956ZM35.9836 9.428V6.282H32.9696V9.428H35.9836ZM37.2816 3.631H34.5866V5.534H36.7756V10.792H35.9836V10.176H32.9696V10.825H32.2216V5.534H33.7836V0.815001H34.5866V2.861H37.2816V3.631Z" fill="black"/>
<path d="M44.2996 4.786L43.5296 5.204C43.2326 4.445 42.5286 3.323 41.8356 2.52L42.5616 2.157C43.2876 2.96 43.9916 4.038 44.2996 4.786ZM42.7376 6.92L42.9246 7.701C41.4066 8.394 39.7456 9.12 38.5356 9.648L38.2386 8.801C38.6676 8.636 39.1846 8.427 39.7566 8.185L39.5696 1.387L40.4056 1.354L40.5706 7.844C41.2746 7.547 42.0116 7.228 42.7376 6.92ZM48.4466 10.176L47.7646 10.803C47.2586 10.044 46.2356 8.889 45.3006 7.899C44.4426 9.197 43.2436 10.154 41.5276 10.869C41.4176 10.704 41.0766 10.33 40.8786 10.165C44.6516 8.779 45.8176 6.117 46.3016 1.365L47.1926 1.453C46.9286 3.807 46.5106 5.677 45.7406 7.151C46.7196 8.141 47.8856 9.362 48.4466 10.176Z" fill="#262626"/>
<path d="M44.2996 4.786L43.5296 5.204C43.2326 4.445 42.5286 3.323 41.8356 2.52L42.5616 2.157C43.2876 2.96 43.9916 4.038 44.2996 4.786ZM42.7376 6.92L42.9246 7.701C41.4066 8.394 39.7456 9.12 38.5356 9.648L38.2386 8.801C38.6676 8.636 39.1846 8.427 39.7566 8.185L39.5696 1.387L40.4056 1.354L40.5706 7.844C41.2746 7.547 42.0116 7.228 42.7376 6.92ZM48.4466 10.176L47.7646 10.803C47.2586 10.044 46.2356 8.889 45.3006 7.899C44.4426 9.197 43.2436 10.154 41.5276 10.869C41.4176 10.704 41.0766 10.33 40.8786 10.165C44.6516 8.779 45.8176 6.117 46.3016 1.365L47.1926 1.453C46.9286 3.807 46.5106 5.677 45.7406 7.151C46.7196 8.141 47.8856 9.362 48.4466 10.176Z" fill="black"/>
<path d="M54.3756 9.505H59.2156V10.319H49.4146V9.505H53.5176V0.969H54.3756V4.335H58.4676V5.149H54.3756V9.505Z" fill="#262626"/>
<path d="M54.3756 9.505H59.2156V10.319H49.4146V9.505H53.5176V0.969H54.3756V4.335H58.4676V5.149H54.3756V9.505Z" fill="black"/>
</svg>
