<svg width="60" height="11" viewBox="0 0 60 11" fill="none" xmlns="http://www.w3.org/2000/svg">
<path d="M0.759766 10V2.24951H1.96289V8.96338H5.57227V10H0.759766Z" fill="#262626"/>
<path d="M0.759766 10V2.24951H1.96289V8.96338H5.57227V10H0.759766Z" fill="black"/>
<path d="M6.60352 10V2.24951H9.3374C11.6362 2.24951 13.0059 3.66211 13.0059 6.10059V6.11133C13.0059 8.56055 11.647 10 9.3374 10H6.60352ZM7.80664 8.95801H9.22461C10.8682 8.95801 11.7759 7.95361 11.7759 6.12207V6.11133C11.7759 4.29053 10.8574 3.28613 9.22461 3.28613H7.80664V8.95801Z" fill="#262626"/>
<path d="M6.60352 10V2.24951H9.3374C11.6362 2.24951 13.0059 3.66211 13.0059 6.10059V6.11133C13.0059 8.56055 11.647 10 9.3374 10H6.60352ZM7.80664 8.95801H9.22461C10.8682 8.95801 11.7759 7.95361 11.7759 6.12207V6.11133C11.7759 4.29053 10.8574 3.28613 9.22461 3.28613H7.80664V8.95801Z" fill="black"/>
<path d="M16.7495 10.1289C15.0952 10.1289 14.0156 9.22656 13.9082 7.96436L13.9028 7.89453H15.0576L15.063 7.95361C15.1382 8.64111 15.7881 9.12451 16.7495 9.12451C17.6948 9.12451 18.334 8.59815 18.334 7.84619V7.83545C18.334 6.95996 17.7002 6.47119 16.6636 6.47119H15.7236V5.53662H16.6313C17.5176 5.53662 18.1191 5.01563 18.1191 4.2959V4.28516C18.1191 3.53858 17.6143 3.10352 16.7388 3.10352C15.8794 3.10352 15.2778 3.55469 15.2026 4.27442L15.1973 4.32275H14.0693L14.0747 4.26904C14.1929 2.97461 15.2241 2.12061 16.7388 2.12061C18.2803 2.12061 19.29 2.93701 19.29 4.1294V4.14014C19.29 5.10156 18.6025 5.74609 17.6572 5.94483V5.97168C18.7959 6.07373 19.5586 6.76123 19.5586 7.84619V7.85693C19.5586 9.18359 18.3931 10.1289 16.7495 10.1289Z" fill="#262626"/>
<path d="M16.7495 10.1289C15.0952 10.1289 14.0156 9.22656 13.9082 7.96436L13.9028 7.89453H15.0576L15.063 7.95361C15.1382 8.64111 15.7881 9.12451 16.7495 9.12451C17.6948 9.12451 18.334 8.59815 18.334 7.84619V7.83545C18.334 6.95996 17.7002 6.47119 16.6636 6.47119H15.7236V5.53662H16.6313C17.5176 5.53662 18.1191 5.01563 18.1191 4.2959V4.28516C18.1191 3.53858 17.6143 3.10352 16.7388 3.10352C15.8794 3.10352 15.2778 3.55469 15.2026 4.27442L15.1973 4.32275H14.0693L14.0747 4.26904C14.1929 2.97461 15.2241 2.12061 16.7388 2.12061C18.2803 2.12061 19.29 2.93701 19.29 4.1294V4.14014C19.29 5.10156 18.6025 5.74609 17.6572 5.94483V5.97168C18.7959 6.07373 19.5586 6.76123 19.5586 7.84619V7.85693C19.5586 9.18359 18.3931 10.1289 16.7495 10.1289Z" fill="black"/>
<path d="M23.5225 10.1289C21.6694 10.1289 20.563 8.5874 20.563 6.12744V6.1167C20.563 3.65674 21.6694 2.12061 23.5225 2.12061C25.3701 2.12061 26.4819 3.65674 26.4819 6.1167V6.12744C26.4819 8.5874 25.3701 10.1289 23.5225 10.1289ZM23.5225 9.12451C24.6235 9.12451 25.2681 7.98584 25.2681 6.12744V6.1167C25.2681 4.2583 24.6235 3.13037 23.5225 3.13037C22.416 3.13037 21.7769 4.2583 21.7769 6.1167V6.12744C21.7769 7.98584 22.416 9.12451 23.5225 9.12451Z" fill="#262626"/>
<path d="M23.5225 10.1289C21.6694 10.1289 20.563 8.5874 20.563 6.12744V6.1167C20.563 3.65674 21.6694 2.12061 23.5225 2.12061C25.3701 2.12061 26.4819 3.65674 26.4819 6.1167V6.12744C26.4819 8.5874 25.3701 10.1289 23.5225 10.1289ZM23.5225 9.12451C24.6235 9.12451 25.2681 7.98584 25.2681 6.12744V6.1167C25.2681 4.2583 24.6235 3.13037 23.5225 3.13037C22.416 3.13037 21.7769 4.2583 21.7769 6.1167V6.12744C21.7769 7.98584 22.416 9.12451 23.5225 9.12451Z" fill="black"/>
<path d="M31.6406 2.872V7.734C31.6406 8.064 31.5966 8.284 31.3876 8.416C31.1786 8.548 30.8926 8.57 30.4746 8.57C30.4526 8.361 30.3646 8.042 30.2656 7.833C30.5626 7.844 30.7826 7.844 30.8706 7.833C30.9586 7.833 30.9806 7.811 30.9806 7.723V3.609H30.0346V10.847H29.2756V3.609H28.3846V8.603H27.7246V2.872H29.2756V0.804001H30.0346V2.872H31.6406ZM36.1286 9.428V6.282H33.1146V9.428H36.1286ZM37.4266 3.631H34.7316V5.534H36.9206V10.792H36.1286V10.176H33.1146V10.825H32.3666V5.534H33.9286V0.815001H34.7316V2.861H37.4266V3.631Z" fill="#262626"/>
<path d="M31.6406 2.872V7.734C31.6406 8.064 31.5966 8.284 31.3876 8.416C31.1786 8.548 30.8926 8.57 30.4746 8.57C30.4526 8.361 30.3646 8.042 30.2656 7.833C30.5626 7.844 30.7826 7.844 30.8706 7.833C30.9586 7.833 30.9806 7.811 30.9806 7.723V3.609H30.0346V10.847H29.2756V3.609H28.3846V8.603H27.7246V2.872H29.2756V0.804001H30.0346V2.872H31.6406ZM36.1286 9.428V6.282H33.1146V9.428H36.1286ZM37.4266 3.631H34.7316V5.534H36.9206V10.792H36.1286V10.176H33.1146V10.825H32.3666V5.534H33.9286V0.815001H34.7316V2.861H37.4266V3.631Z" fill="black"/>
<path d="M44.4446 4.786L43.6746 5.204C43.3776 4.445 42.6736 3.323 41.9806 2.52L42.7066 2.157C43.4326 2.96 44.1366 4.038 44.4446 4.786ZM42.8826 6.92L43.0696 7.701C41.5516 8.394 39.8906 9.12 38.6806 9.648L38.3836 8.801C38.8126 8.636 39.3296 8.427 39.9016 8.185L39.7146 1.387L40.5506 1.354L40.7156 7.844C41.4196 7.547 42.1566 7.228 42.8826 6.92ZM48.5916 10.176L47.9096 10.803C47.4036 10.044 46.3806 8.889 45.4456 7.899C44.5876 9.197 43.3886 10.154 41.6726 10.869C41.5626 10.704 41.2216 10.33 41.0236 10.165C44.7966 8.779 45.9626 6.117 46.4466 1.365L47.3376 1.453C47.0736 3.807 46.6556 5.677 45.8856 7.151C46.8646 8.141 48.0306 9.362 48.5916 10.176Z" fill="#262626"/>
<path d="M44.4446 4.786L43.6746 5.204C43.3776 4.445 42.6736 3.323 41.9806 2.52L42.7066 2.157C43.4326 2.96 44.1366 4.038 44.4446 4.786ZM42.8826 6.92L43.0696 7.701C41.5516 8.394 39.8906 9.12 38.6806 9.648L38.3836 8.801C38.8126 8.636 39.3296 8.427 39.9016 8.185L39.7146 1.387L40.5506 1.354L40.7156 7.844C41.4196 7.547 42.1566 7.228 42.8826 6.92ZM48.5916 10.176L47.9096 10.803C47.4036 10.044 46.3806 8.889 45.4456 7.899C44.5876 9.197 43.3886 10.154 41.6726 10.869C41.5626 10.704 41.2216 10.33 41.0236 10.165C44.7966 8.779 45.9626 6.117 46.4466 1.365L47.3376 1.453C47.0736 3.807 46.6556 5.677 45.8856 7.151C46.8646 8.141 48.0306 9.362 48.5916 10.176Z" fill="black"/>
<path d="M54.5206 9.505H59.3606V10.319H49.5596V9.505H53.6626V0.969H54.5206V4.335H58.6126V5.149H54.5206V9.505Z" fill="#262626"/>
<path d="M54.5206 9.505H59.3606V10.319H49.5596V9.505H53.6626V0.969H54.5206V4.335H58.6126V5.149H54.5206V9.505Z" fill="black"/>
</svg>
