<svg width="65" height="25" viewBox="0 0 65 25" fill="none" xmlns="http://www.w3.org/2000/svg">
<path d="M4.95099 0.188986C4.89599 0.529986 4.88499 0.782986 4.88499 1.01399V2.03699H7.34899C7.75599 2.03699 7.96499 2.00399 8.10799 1.94899L8.70199 2.32299C8.64699 2.48799 8.58099 2.77399 8.53699 2.98299C8.39399 3.86299 8.07499 5.23799 7.45899 6.29399C6.63399 7.73499 5.11599 8.85699 3.10299 9.40699L2.38799 8.58199C2.76199 8.52699 3.17999 8.40599 3.53199 8.27399C4.63199 7.92199 5.84199 7.09699 6.51299 6.06299C7.10699 5.12799 7.45899 3.79699 7.55799 2.85099H1.40899V4.81999C1.40899 5.01799 1.41999 5.30399 1.45299 5.47999H0.495989C0.517989 5.28199 0.528988 4.98499 0.528988 4.77599V2.83999C0.528988 2.60899 0.528989 2.23499 0.495989 1.99299C0.814989 2.02599 1.13399 2.03699 1.51899 2.03699H3.94999V1.01399C3.94999 0.782986 3.93899 0.529986 3.89499 0.188986H4.95099Z" fill="#262626"/>
<path d="M4.95099 0.188986C4.89599 0.529986 4.88499 0.782986 4.88499 1.01399V2.03699H7.34899C7.75599 2.03699 7.96499 2.00399 8.10799 1.94899L8.70199 2.32299C8.64699 2.48799 8.58099 2.77399 8.53699 2.98299C8.39399 3.86299 8.07499 5.23799 7.45899 6.29399C6.63399 7.73499 5.11599 8.85699 3.10299 9.40699L2.38799 8.58199C2.76199 8.52699 3.17999 8.40599 3.53199 8.27399C4.63199 7.92199 5.84199 7.09699 6.51299 6.06299C7.10699 5.12799 7.45899 3.79699 7.55799 2.85099H1.40899V4.81999C1.40899 5.01799 1.41999 5.30399 1.45299 5.47999H0.495989C0.517989 5.28199 0.528988 4.98499 0.528988 4.77599V2.83999C0.528988 2.60899 0.528989 2.23499 0.495989 1.99299C0.814989 2.02599 1.13399 2.03699 1.51899 2.03699H3.94999V1.01399C3.94999 0.782986 3.93899 0.529986 3.89499 0.188986H4.95099Z" fill="black"/>
<path d="M17.161 2.26799C17.128 2.50999 17.117 2.76299 17.117 3.01599C17.117 3.22499 17.128 3.53299 17.139 3.90699H18.723C18.943 3.90699 19.306 3.88499 19.46 3.86299V4.73199C19.273 4.72099 18.954 4.69899 18.745 4.69899H17.15C17.172 6.08499 17.205 7.88899 17.216 8.92299C17.227 9.39599 16.875 9.68199 16.391 9.68199C15.951 9.68199 15.236 9.64899 14.796 9.61599L14.752 8.81299C15.192 8.87899 15.764 8.91199 16.094 8.91199C16.292 8.91199 16.391 8.79099 16.391 8.59299C16.391 7.89999 16.38 6.66799 16.358 5.50199C15.61 6.55799 14.026 7.95499 12.53 8.74699L11.914 8.06499C13.564 7.27299 15.236 5.82099 15.984 4.69899H13.047C12.75 4.69899 12.475 4.72099 12.211 4.74299V3.86299C12.464 3.89599 12.761 3.90699 13.025 3.90699H16.336C16.325 3.53299 16.314 3.22499 16.303 3.01599C16.303 2.79599 16.27 2.52099 16.226 2.26799H17.161Z" fill="#262626"/>
<path d="M17.161 2.26799C17.128 2.50999 17.117 2.76299 17.117 3.01599C17.117 3.22499 17.128 3.53299 17.139 3.90699H18.723C18.943 3.90699 19.306 3.88499 19.46 3.86299V4.73199C19.273 4.72099 18.954 4.69899 18.745 4.69899H17.15C17.172 6.08499 17.205 7.88899 17.216 8.92299C17.227 9.39599 16.875 9.68199 16.391 9.68199C15.951 9.68199 15.236 9.64899 14.796 9.61599L14.752 8.81299C15.192 8.87899 15.764 8.91199 16.094 8.91199C16.292 8.91199 16.391 8.79099 16.391 8.59299C16.391 7.89999 16.38 6.66799 16.358 5.50199C15.61 6.55799 14.026 7.95499 12.53 8.74699L11.914 8.06499C13.564 7.27299 15.236 5.82099 15.984 4.69899H13.047C12.75 4.69899 12.475 4.72099 12.211 4.74299V3.86299C12.464 3.89599 12.761 3.90699 13.025 3.90699H16.336C16.325 3.53299 16.314 3.22499 16.303 3.01599C16.303 2.79599 16.27 2.52099 16.226 2.26799H17.161Z" fill="black"/>
<path d="M22.122 4.23699C22.452 4.25899 23.035 4.29199 23.651 4.29199H29.679C30.229 4.29199 30.625 4.25899 30.867 4.23699V5.31499C30.647 5.30399 30.185 5.25999 29.69 5.25999H23.651C23.046 5.25999 22.463 5.28199 22.122 5.31499V4.23699Z" fill="#262626"/>
<path d="M22.122 4.23699C22.452 4.25899 23.035 4.29199 23.651 4.29199H29.679C30.229 4.29199 30.625 4.25899 30.867 4.23699V5.31499C30.647 5.30399 30.185 5.25999 29.69 5.25999H23.651C23.046 5.25999 22.463 5.28199 22.122 5.31499V4.23699Z" fill="black"/>
<path d="M37.907 0.452986C37.72 0.738986 37.522 1.11299 37.423 1.32199C37.346 1.47599 37.258 1.62999 37.159 1.78399H40.14C40.437 1.78399 40.679 1.75099 40.855 1.67399L41.592 2.12499C41.504 2.27899 41.394 2.53199 41.339 2.70799C41.042 3.81899 40.36 5.30399 39.381 6.49199C38.38 7.71299 37.071 8.72499 35.003 9.48399L34.211 8.76899C36.224 8.17499 37.599 7.17399 38.6 6.00799C39.458 4.99599 40.129 3.57699 40.36 2.57599H36.642C35.971 3.49999 35.047 4.47899 33.848 5.28199L33.089 4.70999C34.981 3.57699 36.07 1.98199 36.543 0.991986C36.653 0.804986 36.818 0.408986 36.884 0.122986L37.907 0.452986Z" fill="#262626"/>
<path d="M37.907 0.452986C37.72 0.738986 37.522 1.11299 37.423 1.32199C37.346 1.47599 37.258 1.62999 37.159 1.78399H40.14C40.437 1.78399 40.679 1.75099 40.855 1.67399L41.592 2.12499C41.504 2.27899 41.394 2.53199 41.339 2.70799C41.042 3.81899 40.36 5.30399 39.381 6.49199C38.38 7.71299 37.071 8.72499 35.003 9.48399L34.211 8.76899C36.224 8.17499 37.599 7.17399 38.6 6.00799C39.458 4.99599 40.129 3.57699 40.36 2.57599H36.642C35.971 3.49999 35.047 4.47899 33.848 5.28199L33.089 4.70999C34.981 3.57699 36.07 1.98199 36.543 0.991986C36.653 0.804986 36.818 0.408986 36.884 0.122986L37.907 0.452986Z" fill="black"/>
<path d="M43.946 5.02899C45.849 4.51199 47.532 3.74199 48.753 2.97199C49.897 2.25699 50.997 1.29999 51.756 0.386986L52.493 1.06899C51.657 1.93799 50.645 2.77399 49.523 3.52199V8.16399C49.523 8.58199 49.545 9.12099 49.589 9.34099H48.511C48.544 9.13199 48.577 8.58199 48.577 8.16399V4.09399C47.422 4.75399 45.915 5.41399 44.386 5.88699L43.946 5.02899Z" fill="#262626"/>
<path d="M43.946 5.02899C45.849 4.51199 47.532 3.74199 48.753 2.97199C49.897 2.25699 50.997 1.29999 51.756 0.386986L52.493 1.06899C51.657 1.93799 50.645 2.77399 49.523 3.52199V8.16399C49.523 8.58199 49.545 9.12099 49.589 9.34099H48.511C48.544 9.13199 48.577 8.58199 48.577 8.16399V4.09399C47.422 4.75399 45.915 5.41399 44.386 5.88699L43.946 5.02899Z" fill="black"/>
<path d="M56.497 0.936986C57.278 1.45399 58.686 2.59799 59.302 3.21399L58.609 3.90699C58.059 3.33499 56.684 2.15799 55.87 1.60799L56.497 0.936986ZM55.551 8.30699C57.476 8.02099 58.906 7.34999 59.951 6.70099C61.645 5.63399 62.987 4.00599 63.625 2.65299L64.153 3.58799C63.405 4.96299 62.118 6.45899 60.457 7.50399C59.357 8.19699 57.971 8.86799 56.134 9.20899L55.551 8.30699Z" fill="#262626"/>
<path d="M56.497 0.936986C57.278 1.45399 58.686 2.59799 59.302 3.21399L58.609 3.90699C58.059 3.33499 56.684 2.15799 55.87 1.60799L56.497 0.936986ZM55.551 8.30699C57.476 8.02099 58.906 7.34999 59.951 6.70099C61.645 5.63399 62.987 4.00599 63.625 2.65299L64.153 3.58799C63.405 4.96299 62.118 6.45899 60.457 7.50399C59.357 8.19699 57.971 8.86799 56.134 9.20899L55.551 8.30699Z" fill="black"/>
<path d="M4.90699 15.453C4.71999 15.739 4.52199 16.113 4.42299 16.322C4.34599 16.476 4.25799 16.63 4.15899 16.784H7.13999C7.43699 16.784 7.67899 16.751 7.85499 16.674L8.59199 17.125C8.50399 17.279 8.39399 17.532 8.33899 17.708C8.04199 18.819 7.35999 20.304 6.38099 21.492C5.37999 22.713 4.07099 23.725 2.00299 24.484L1.21099 23.769C3.22399 23.175 4.59899 22.174 5.59999 21.008C6.45799 19.996 7.12899 18.577 7.35999 17.576H3.64199C2.97099 18.5 2.04699 19.479 0.847988 20.282L0.0889893 19.71C1.98099 18.577 3.06999 16.982 3.54299 15.992C3.65299 15.805 3.81799 15.409 3.88399 15.123L4.90699 15.453Z" fill="#262626"/>
<path d="M4.90699 15.453C4.71999 15.739 4.52199 16.113 4.42299 16.322C4.34599 16.476 4.25799 16.63 4.15899 16.784H7.13999C7.43699 16.784 7.67899 16.751 7.85499 16.674L8.59199 17.125C8.50399 17.279 8.39399 17.532 8.33899 17.708C8.04199 18.819 7.35999 20.304 6.38099 21.492C5.37999 22.713 4.07099 23.725 2.00299 24.484L1.21099 23.769C3.22399 23.175 4.59899 22.174 5.59999 21.008C6.45799 19.996 7.12899 18.577 7.35999 17.576H3.64199C2.97099 18.5 2.04699 19.479 0.847988 20.282L0.0889893 19.71C1.98099 18.577 3.06999 16.982 3.54299 15.992C3.65299 15.805 3.81799 15.409 3.88399 15.123L4.90699 15.453Z" fill="black"/>
<path d="M11.606 16.465C12.035 16.476 12.332 16.487 12.585 16.487H18.492C18.734 16.487 19.13 16.487 19.46 16.465C19.438 16.74 19.438 17.048 19.438 17.323V22.746C19.438 23.098 19.449 23.956 19.46 24.077H18.514C18.514 24 18.525 23.736 18.525 23.439H12.519C12.53 23.725 12.53 23.989 12.541 24.077H11.595C11.606 23.934 11.628 23.12 11.628 22.735V17.323C11.628 17.07 11.628 16.729 11.606 16.465ZM12.519 17.356V22.581H18.536V17.356H12.519Z" fill="#262626"/>
<path d="M11.606 16.465C12.035 16.476 12.332 16.487 12.585 16.487H18.492C18.734 16.487 19.13 16.487 19.46 16.465C19.438 16.74 19.438 17.048 19.438 17.323V22.746C19.438 23.098 19.449 23.956 19.46 24.077H18.514C18.514 24 18.525 23.736 18.525 23.439H12.519C12.53 23.725 12.53 23.989 12.541 24.077H11.595C11.606 23.934 11.628 23.12 11.628 22.735V17.323C11.628 17.07 11.628 16.729 11.606 16.465ZM12.519 17.356V22.581H18.536V17.356H12.519Z" fill="black"/>
<path d="M22.122 19.237C22.452 19.259 23.035 19.292 23.651 19.292H29.679C30.229 19.292 30.625 19.259 30.867 19.237V20.315C30.647 20.304 30.185 20.26 29.69 20.26H23.651C23.046 20.26 22.463 20.282 22.122 20.315V19.237Z" fill="#262626"/>
<path d="M22.122 19.237C22.452 19.259 23.035 19.292 23.651 19.292H29.679C30.229 19.292 30.625 19.259 30.867 19.237V20.315C30.647 20.304 30.185 20.26 29.69 20.26H23.651C23.046 20.26 22.463 20.282 22.122 20.315V19.237Z" fill="black"/>
<path d="M40.382 15.244C40.657 15.64 41.064 16.311 41.284 16.751L40.69 17.015C40.47 16.575 40.096 15.915 39.799 15.497L40.382 15.244ZM41.592 14.804C41.889 15.211 42.307 15.893 42.516 16.3L41.922 16.564C41.68 16.091 41.328 15.464 41.009 15.057L41.592 14.804ZM35.212 22.779V19.457C34.101 19.677 33.133 19.875 32.682 19.974L32.517 19.05C33.012 18.995 34.046 18.808 35.212 18.588V16.707C35.212 16.377 35.201 16.014 35.146 15.695H36.18C36.136 16.014 36.114 16.388 36.114 16.707V18.423C37.984 18.06 39.909 17.664 40.371 17.554C40.613 17.499 40.822 17.444 40.954 17.356L41.603 17.862C41.526 17.983 41.405 18.17 41.328 18.302C40.822 19.215 39.964 20.601 39.073 21.503L38.314 21.052C39.139 20.293 39.942 19.083 40.272 18.434C40.085 18.467 38.061 18.874 36.114 19.27V22.548C36.114 23.307 36.389 23.549 37.709 23.549C38.985 23.549 40.041 23.439 41.13 23.219L41.097 24.165C40.118 24.308 39.018 24.396 37.643 24.396C35.597 24.396 35.212 23.857 35.212 22.779Z" fill="#262626"/>
<path d="M40.382 15.244C40.657 15.64 41.064 16.311 41.284 16.751L40.69 17.015C40.47 16.575 40.096 15.915 39.799 15.497L40.382 15.244ZM41.592 14.804C41.889 15.211 42.307 15.893 42.516 16.3L41.922 16.564C41.68 16.091 41.328 15.464 41.009 15.057L41.592 14.804ZM35.212 22.779V19.457C34.101 19.677 33.133 19.875 32.682 19.974L32.517 19.05C33.012 18.995 34.046 18.808 35.212 18.588V16.707C35.212 16.377 35.201 16.014 35.146 15.695H36.18C36.136 16.014 36.114 16.388 36.114 16.707V18.423C37.984 18.06 39.909 17.664 40.371 17.554C40.613 17.499 40.822 17.444 40.954 17.356L41.603 17.862C41.526 17.983 41.405 18.17 41.328 18.302C40.822 19.215 39.964 20.601 39.073 21.503L38.314 21.052C39.139 20.293 39.942 19.083 40.272 18.434C40.085 18.467 38.061 18.874 36.114 19.27V22.548C36.114 23.307 36.389 23.549 37.709 23.549C38.985 23.549 40.041 23.439 41.13 23.219L41.097 24.165C40.118 24.308 39.018 24.396 37.643 24.396C35.597 24.396 35.212 23.857 35.212 22.779Z" fill="black"/>
<path d="M48.313 17.664C48.5 18.104 49.039 19.556 49.182 20.04L48.368 20.326C48.247 19.831 47.741 18.434 47.51 17.939L48.313 17.664ZM52.295 18.28C52.218 18.511 52.174 18.687 52.13 18.83C51.833 20.04 51.36 21.217 50.568 22.207C49.556 23.505 48.214 24.352 46.982 24.825L46.256 24.088C47.532 23.714 48.929 22.878 49.831 21.745C50.612 20.788 51.184 19.391 51.349 17.983L52.295 18.28ZM45.761 18.214C45.981 18.687 46.553 20.128 46.762 20.7L45.926 21.008C45.761 20.436 45.167 18.918 44.947 18.533L45.761 18.214Z" fill="#262626"/>
<path d="M48.313 17.664C48.5 18.104 49.039 19.556 49.182 20.04L48.368 20.326C48.247 19.831 47.741 18.434 47.51 17.939L48.313 17.664ZM52.295 18.28C52.218 18.511 52.174 18.687 52.13 18.83C51.833 20.04 51.36 21.217 50.568 22.207C49.556 23.505 48.214 24.352 46.982 24.825L46.256 24.088C47.532 23.714 48.929 22.878 49.831 21.745C50.612 20.788 51.184 19.391 51.349 17.983L52.295 18.28ZM45.761 18.214C45.981 18.687 46.553 20.128 46.762 20.7L45.926 21.008C45.761 20.436 45.167 18.918 44.947 18.533L45.761 18.214Z" fill="black"/>
<path d="M57.707 23.032V16.63C57.707 16.322 57.685 15.827 57.619 15.486H58.697C58.664 15.827 58.62 16.3 58.62 16.63C58.62 17.092 58.62 17.73 58.62 18.423C60.072 18.863 62.162 19.655 63.317 20.238L62.943 21.173C61.744 20.524 59.841 19.787 58.62 19.402C58.631 21.052 58.631 22.713 58.631 23.032C58.631 23.373 58.653 23.967 58.697 24.33H57.63C57.685 23.978 57.707 23.439 57.707 23.032Z" fill="#262626"/>
<path d="M57.707 23.032V16.63C57.707 16.322 57.685 15.827 57.619 15.486H58.697C58.664 15.827 58.62 16.3 58.62 16.63C58.62 17.092 58.62 17.73 58.62 18.423C60.072 18.863 62.162 19.655 63.317 20.238L62.943 21.173C61.744 20.524 59.841 19.787 58.62 19.402C58.631 21.052 58.631 22.713 58.631 23.032C58.631 23.373 58.653 23.967 58.697 24.33H57.63C57.685 23.978 57.707 23.439 57.707 23.032Z" fill="black"/>
</svg>
