<svg width="64" height="26" viewBox="0 0 64 26" fill="none" xmlns="http://www.w3.org/2000/svg">
<path d="M2.58492 1.55201C3.23391 1.91501 4.49891 2.75101 4.97191 3.10301L4.45491 3.85101C3.92691 3.45501 2.73891 2.66301 2.08991 2.28901L2.58492 1.55201ZM0.934914 9.41701C2.14491 9.20801 3.50891 8.76801 4.61992 8.13001C6.44591 7.08501 7.89792 5.65501 8.78892 4.10401L9.31692 5.00601C8.37092 6.49101 6.84191 7.91001 5.09291 8.94401C3.98191 9.58201 2.46391 10.099 1.44091 10.308L0.934914 9.41701ZM0.923914 4.02701C1.57291 4.37901 2.85991 5.16001 3.34391 5.51201L2.83791 6.28201C2.29891 5.88601 1.09991 5.11601 0.439915 4.77501L0.923914 4.02701Z" fill="#262626"/>
<path d="M2.58492 1.55201C3.23391 1.91501 4.49891 2.75101 4.97191 3.10301L4.45491 3.85101C3.92691 3.45501 2.73891 2.66301 2.08991 2.28901L2.58492 1.55201ZM0.934914 9.41701C2.14491 9.20801 3.50891 8.76801 4.61992 8.13001C6.44591 7.08501 7.89792 5.65501 8.78892 4.10401L9.31692 5.00601C8.37092 6.49101 6.84191 7.91001 5.09291 8.94401C3.98191 9.58201 2.46391 10.099 1.44091 10.308L0.934914 9.41701ZM0.923914 4.02701C1.57291 4.37901 2.85991 5.16001 3.34391 5.51201L2.83791 6.28201C2.29891 5.88601 1.09991 5.11601 0.439915 4.77501L0.923914 4.02701Z" fill="black"/>
<path d="M18.3809 4.76401C18.3479 4.87401 18.3149 5.01701 18.3039 5.10501C18.2159 5.85301 17.8969 8.03101 17.7429 9.04301H18.8209C19.0629 9.04301 19.4589 9.03201 19.6899 9.01001V9.90101C19.4919 9.89001 19.0849 9.87901 18.8539 9.87901H12.8259C12.4849 9.87901 12.2319 9.89001 11.9129 9.91201V8.99901C12.1769 9.02101 12.4959 9.04301 12.8259 9.04301H16.8079C16.9729 8.11901 17.2919 5.97401 17.3249 5.34701H13.8269C13.5079 5.34701 13.2219 5.36901 12.9469 5.38001V4.45601C13.2109 4.48901 13.5409 4.52201 13.8159 4.52201H17.1599C17.3359 4.52201 17.6109 4.48901 17.7099 4.44501L18.3809 4.76401Z" fill="#262626"/>
<path d="M18.3809 4.76401C18.3479 4.87401 18.3149 5.01701 18.3039 5.10501C18.2159 5.85301 17.8969 8.03101 17.7429 9.04301H18.8209C19.0629 9.04301 19.4589 9.03201 19.6899 9.01001V9.90101C19.4919 9.89001 19.0849 9.87901 18.8539 9.87901H12.8259C12.4849 9.87901 12.2319 9.89001 11.9129 9.91201V8.99901C12.1769 9.02101 12.4959 9.04301 12.8259 9.04301H16.8079C16.9729 8.11901 17.2919 5.97401 17.3249 5.34701H13.8269C13.5079 5.34701 13.2219 5.36901 12.9469 5.38001V4.45601C13.2109 4.48901 13.5409 4.52201 13.8159 4.52201H17.1599C17.3359 4.52201 17.6109 4.48901 17.7099 4.44501L18.3809 4.76401Z" fill="black"/>
<path d="M22.3959 5.23701C22.7259 5.25901 23.3089 5.29201 23.9249 5.29201H29.9529C30.5029 5.29201 30.8989 5.25901 31.1409 5.23701V6.31501C30.9209 6.30401 30.4589 6.26001 29.9639 6.26001H23.9249C23.3199 6.26001 22.7369 6.28201 22.3959 6.31501V5.23701Z" fill="#262626"/>
<path d="M22.3959 5.23701C22.7259 5.25901 23.3089 5.29201 23.9249 5.29201H29.9529C30.5029 5.29201 30.8989 5.25901 31.1409 5.23701V6.31501C30.9209 6.30401 30.4589 6.26001 29.9639 6.26001H23.9249C23.3199 6.26001 22.7369 6.28201 22.3959 6.31501V5.23701Z" fill="black"/>
<path d="M40.0531 1.04601C40.3281 1.45301 40.7351 2.12401 40.9441 2.55301L40.3501 2.81701C40.1301 2.37701 39.7671 1.72801 39.4701 1.29901L40.0531 1.04601ZM41.2961 0.661011C41.5931 1.06801 42.0111 1.75001 42.2201 2.15701L41.6261 2.42101C41.3841 1.94801 41.0211 1.32101 40.7241 0.914011L41.2961 0.661011ZM40.3061 2.83901C40.2401 2.92701 40.0971 3.16901 40.0311 3.31201C39.6571 4.26901 38.9641 5.55601 38.1831 6.54601C39.3381 7.53601 40.6801 8.96601 41.3951 9.82401L40.6251 10.495C39.8881 9.51601 38.7221 8.22901 37.6001 7.21701C36.4231 8.49301 34.9381 9.69201 33.3101 10.44L32.6061 9.70301C34.3771 9.01001 36.0051 7.70101 37.1381 6.43601C37.8861 5.58901 38.6891 4.28001 38.9641 3.36701H34.6741C34.2891 3.36701 33.6841 3.41101 33.5631 3.42201V2.43201C33.7171 2.45401 34.3441 2.49801 34.6741 2.49801H38.9201C39.2831 2.49801 39.5691 2.46501 39.7451 2.41001L40.3061 2.83901Z" fill="#262626"/>
<path d="M40.0531 1.04601C40.3281 1.45301 40.7351 2.12401 40.9441 2.55301L40.3501 2.81701C40.1301 2.37701 39.7671 1.72801 39.4701 1.29901L40.0531 1.04601ZM41.2961 0.661011C41.5931 1.06801 42.0111 1.75001 42.2201 2.15701L41.6261 2.42101C41.3841 1.94801 41.0211 1.32101 40.7241 0.914011L41.2961 0.661011ZM40.3061 2.83901C40.2401 2.92701 40.0971 3.16901 40.0311 3.31201C39.6571 4.26901 38.9641 5.55601 38.1831 6.54601C39.3381 7.53601 40.6801 8.96601 41.3951 9.82401L40.6251 10.495C39.8881 9.51601 38.7221 8.22901 37.6001 7.21701C36.4231 8.49301 34.9381 9.69201 33.3101 10.44L32.6061 9.70301C34.3771 9.01001 36.0051 7.70101 37.1381 6.43601C37.8861 5.58901 38.6891 4.28001 38.9641 3.36701H34.6741C34.2891 3.36701 33.6841 3.41101 33.5631 3.42201V2.43201C33.7171 2.45401 34.3441 2.49801 34.6741 2.49801H38.9201C39.2831 2.49801 39.5691 2.46501 39.7451 2.41001L40.3061 2.83901Z" fill="black"/>
<path d="M43.6721 6.02901C45.5751 5.51201 47.2581 4.74201 48.4791 3.97201C49.6231 3.25701 50.7231 2.30001 51.4821 1.38701L52.2191 2.06901C51.3831 2.93801 50.3711 3.77401 49.2491 4.52201V9.16401C49.2491 9.58201 49.2711 10.121 49.3151 10.341H48.2371C48.2701 10.132 48.3031 9.58201 48.3031 9.16401V5.09401C47.1481 5.75401 45.6411 6.41401 44.1121 6.88701L43.6721 6.02901Z" fill="#262626"/>
<path d="M43.6721 6.02901C45.5751 5.51201 47.2581 4.74201 48.4791 3.97201C49.6231 3.25701 50.7231 2.30001 51.4821 1.38701L52.2191 2.06901C51.3831 2.93801 50.3711 3.77401 49.2491 4.52201V9.16401C49.2491 9.58201 49.2711 10.121 49.3151 10.341H48.2371C48.2701 10.132 48.3031 9.58201 48.3031 9.16401V5.09401C47.1481 5.75401 45.6411 6.41401 44.1121 6.88701L43.6721 6.02901Z" fill="black"/>
<path d="M56.2231 1.93701C57.0041 2.45401 58.4121 3.59801 59.0281 4.21401L58.3351 4.90701C57.7851 4.33501 56.4101 3.15801 55.5961 2.60801L56.2231 1.93701ZM55.2771 9.30701C57.2021 9.02101 58.6321 8.35001 59.6771 7.70101C61.3711 6.63401 62.7131 5.00601 63.3511 3.65301L63.8791 4.58801C63.1311 5.96301 61.8441 7.45901 60.1831 8.50401C59.0831 9.19701 57.6971 9.86801 55.8601 10.209L55.2771 9.30701Z" fill="#262626"/>
<path d="M56.2231 1.93701C57.0041 2.45401 58.4121 3.59801 59.0281 4.21401L58.3351 4.90701C57.7851 4.33501 56.4101 3.15801 55.5961 2.60801L56.2231 1.93701ZM55.2771 9.30701C57.2021 9.02101 58.6321 8.35001 59.6771 7.70101C61.3711 6.63401 62.7131 5.00601 63.3511 3.65301L63.8791 4.58801C63.1311 5.96301 61.8441 7.45901 60.1831 8.50401C59.0831 9.19701 57.6971 9.86801 55.8601 10.209L55.2771 9.30701Z" fill="black"/>
<path d="M4.90699 16.453C4.71999 16.739 4.52199 17.113 4.42299 17.322C4.34599 17.476 4.25799 17.63 4.15899 17.784H7.13999C7.43699 17.784 7.67899 17.751 7.85499 17.674L8.59199 18.125C8.50399 18.279 8.39399 18.532 8.33899 18.708C8.04199 19.819 7.35999 21.304 6.38099 22.492C5.37999 23.713 4.07099 24.725 2.00299 25.484L1.21099 24.769C3.22399 24.175 4.59899 23.174 5.59999 22.008C6.45799 20.996 7.12899 19.577 7.35999 18.576H3.64199C2.97099 19.5 2.04699 20.479 0.847988 21.282L0.0889893 20.71C1.98099 19.577 3.06999 17.982 3.54299 16.992C3.65299 16.805 3.81799 16.409 3.88399 16.123L4.90699 16.453Z" fill="#262626"/>
<path d="M4.90699 16.453C4.71999 16.739 4.52199 17.113 4.42299 17.322C4.34599 17.476 4.25799 17.63 4.15899 17.784H7.13999C7.43699 17.784 7.67899 17.751 7.85499 17.674L8.59199 18.125C8.50399 18.279 8.39399 18.532 8.33899 18.708C8.04199 19.819 7.35999 21.304 6.38099 22.492C5.37999 23.713 4.07099 24.725 2.00299 25.484L1.21099 24.769C3.22399 24.175 4.59899 23.174 5.59999 22.008C6.45799 20.996 7.12899 19.577 7.35999 18.576H3.64199C2.97099 19.5 2.04699 20.479 0.847988 21.282L0.0889893 20.71C1.98099 19.577 3.06999 17.982 3.54299 16.992C3.65299 16.805 3.81799 16.409 3.88399 16.123L4.90699 16.453Z" fill="black"/>
<path d="M11.606 17.465C12.035 17.476 12.332 17.487 12.585 17.487H18.492C18.734 17.487 19.13 17.487 19.46 17.465C19.438 17.74 19.438 18.048 19.438 18.323V23.746C19.438 24.098 19.449 24.956 19.46 25.077H18.514C18.514 25 18.525 24.736 18.525 24.439H12.519C12.53 24.725 12.53 24.989 12.541 25.077H11.595C11.606 24.934 11.628 24.12 11.628 23.735V18.323C11.628 18.07 11.628 17.729 11.606 17.465ZM12.519 18.356V23.581H18.536V18.356H12.519Z" fill="#262626"/>
<path d="M11.606 17.465C12.035 17.476 12.332 17.487 12.585 17.487H18.492C18.734 17.487 19.13 17.487 19.46 17.465C19.438 17.74 19.438 18.048 19.438 18.323V23.746C19.438 24.098 19.449 24.956 19.46 25.077H18.514C18.514 25 18.525 24.736 18.525 24.439H12.519C12.53 24.725 12.53 24.989 12.541 25.077H11.595C11.606 24.934 11.628 24.12 11.628 23.735V18.323C11.628 18.07 11.628 17.729 11.606 17.465ZM12.519 18.356V23.581H18.536V18.356H12.519Z" fill="black"/>
<path d="M22.122 20.237C22.452 20.259 23.035 20.292 23.651 20.292H29.679C30.229 20.292 30.625 20.259 30.867 20.237V21.315C30.647 21.304 30.185 21.26 29.69 21.26H23.651C23.046 21.26 22.463 21.282 22.122 21.315V20.237Z" fill="#262626"/>
<path d="M22.122 20.237C22.452 20.259 23.035 20.292 23.651 20.292H29.679C30.229 20.292 30.625 20.259 30.867 20.237V21.315C30.647 21.304 30.185 21.26 29.69 21.26H23.651C23.046 21.26 22.463 21.282 22.122 21.315V20.237Z" fill="black"/>
<path d="M40.382 16.244C40.657 16.64 41.064 17.311 41.284 17.751L40.69 18.015C40.47 17.575 40.096 16.915 39.799 16.497L40.382 16.244ZM41.592 15.804C41.889 16.211 42.307 16.893 42.516 17.3L41.922 17.564C41.68 17.091 41.328 16.464 41.009 16.057L41.592 15.804ZM35.212 23.779V20.457C34.101 20.677 33.133 20.875 32.682 20.974L32.517 20.05C33.012 19.995 34.046 19.808 35.212 19.588V17.707C35.212 17.377 35.201 17.014 35.146 16.695H36.18C36.136 17.014 36.114 17.388 36.114 17.707V19.423C37.984 19.06 39.909 18.664 40.371 18.554C40.613 18.499 40.822 18.444 40.954 18.356L41.603 18.862C41.526 18.983 41.405 19.17 41.328 19.302C40.822 20.215 39.964 21.601 39.073 22.503L38.314 22.052C39.139 21.293 39.942 20.083 40.272 19.434C40.085 19.467 38.061 19.874 36.114 20.27V23.548C36.114 24.307 36.389 24.549 37.709 24.549C38.985 24.549 40.041 24.439 41.13 24.219L41.097 25.165C40.118 25.308 39.018 25.396 37.643 25.396C35.597 25.396 35.212 24.857 35.212 23.779Z" fill="#262626"/>
<path d="M40.382 16.244C40.657 16.64 41.064 17.311 41.284 17.751L40.69 18.015C40.47 17.575 40.096 16.915 39.799 16.497L40.382 16.244ZM41.592 15.804C41.889 16.211 42.307 16.893 42.516 17.3L41.922 17.564C41.68 17.091 41.328 16.464 41.009 16.057L41.592 15.804ZM35.212 23.779V20.457C34.101 20.677 33.133 20.875 32.682 20.974L32.517 20.05C33.012 19.995 34.046 19.808 35.212 19.588V17.707C35.212 17.377 35.201 17.014 35.146 16.695H36.18C36.136 17.014 36.114 17.388 36.114 17.707V19.423C37.984 19.06 39.909 18.664 40.371 18.554C40.613 18.499 40.822 18.444 40.954 18.356L41.603 18.862C41.526 18.983 41.405 19.17 41.328 19.302C40.822 20.215 39.964 21.601 39.073 22.503L38.314 22.052C39.139 21.293 39.942 20.083 40.272 19.434C40.085 19.467 38.061 19.874 36.114 20.27V23.548C36.114 24.307 36.389 24.549 37.709 24.549C38.985 24.549 40.041 24.439 41.13 24.219L41.097 25.165C40.118 25.308 39.018 25.396 37.643 25.396C35.597 25.396 35.212 24.857 35.212 23.779Z" fill="black"/>
<path d="M48.313 18.664C48.5 19.104 49.039 20.556 49.182 21.04L48.368 21.326C48.247 20.831 47.741 19.434 47.51 18.939L48.313 18.664ZM52.295 19.28C52.218 19.511 52.174 19.687 52.13 19.83C51.833 21.04 51.36 22.217 50.568 23.207C49.556 24.505 48.214 25.352 46.982 25.825L46.256 25.088C47.532 24.714 48.929 23.878 49.831 22.745C50.612 21.788 51.184 20.391 51.349 18.983L52.295 19.28ZM45.761 19.214C45.981 19.687 46.553 21.128 46.762 21.7L45.926 22.008C45.761 21.436 45.167 19.918 44.947 19.533L45.761 19.214Z" fill="#262626"/>
<path d="M48.313 18.664C48.5 19.104 49.039 20.556 49.182 21.04L48.368 21.326C48.247 20.831 47.741 19.434 47.51 18.939L48.313 18.664ZM52.295 19.28C52.218 19.511 52.174 19.687 52.13 19.83C51.833 21.04 51.36 22.217 50.568 23.207C49.556 24.505 48.214 25.352 46.982 25.825L46.256 25.088C47.532 24.714 48.929 23.878 49.831 22.745C50.612 21.788 51.184 20.391 51.349 18.983L52.295 19.28ZM45.761 19.214C45.981 19.687 46.553 21.128 46.762 21.7L45.926 22.008C45.761 21.436 45.167 19.918 44.947 19.533L45.761 19.214Z" fill="black"/>
<path d="M57.707 24.032V17.63C57.707 17.322 57.685 16.827 57.619 16.486H58.697C58.664 16.827 58.62 17.3 58.62 17.63C58.62 18.092 58.62 18.73 58.62 19.423C60.072 19.863 62.162 20.655 63.317 21.238L62.943 22.173C61.744 21.524 59.841 20.787 58.62 20.402C58.631 22.052 58.631 23.713 58.631 24.032C58.631 24.373 58.653 24.967 58.697 25.33H57.63C57.685 24.978 57.707 24.439 57.707 24.032Z" fill="#262626"/>
<path d="M57.707 24.032V17.63C57.707 17.322 57.685 16.827 57.619 16.486H58.697C58.664 16.827 58.62 17.3 58.62 17.63C58.62 18.092 58.62 18.73 58.62 19.423C60.072 19.863 62.162 20.655 63.317 21.238L62.943 22.173C61.744 21.524 59.841 20.787 58.62 20.402C58.631 22.052 58.631 23.713 58.631 24.032C58.631 24.373 58.653 24.967 58.697 25.33H57.63C57.685 24.978 57.707 24.439 57.707 24.032Z" fill="black"/>
</svg>
