<svg width="65" height="10" viewBox="0 0 65 10" fill="none" xmlns="http://www.w3.org/2000/svg">
<path d="M7.25998 0.386986C7.21598 0.694986 7.19398 1.00299 7.19398 1.31099C7.19398 1.56399 7.20498 1.93799 7.21598 2.37799H8.94299C9.22899 2.37799 9.65798 2.33399 9.87799 2.31199V3.23599C9.62498 3.22499 9.23998 3.21399 8.97598 3.21399H7.22698C7.25998 4.86399 7.29299 7.05299 7.30399 8.42799C7.30399 8.99999 6.96298 9.30799 6.30298 9.30799C5.73098 9.30799 5.08198 9.28599 4.54298 9.24199L4.46598 8.33999C4.99398 8.42799 5.60998 8.47199 6.01698 8.47199C6.33598 8.47199 6.42398 8.32899 6.42398 8.03199C6.42398 7.15199 6.41299 5.51299 6.39099 4.03899C5.47799 5.33699 3.55298 7.11899 1.58398 8.16399L0.945984 7.44899C3.17898 6.35999 5.13699 4.53399 6.00599 3.21399H2.38699C2.01299 3.21399 1.69399 3.22499 1.35299 3.24699V2.31199C1.67199 2.34499 2.02398 2.37799 2.36498 2.37799H6.36899C6.35799 1.93799 6.34699 1.56399 6.33599 1.31099C6.30298 0.892985 6.28098 0.617986 6.23698 0.386986H7.25998Z" fill="#262626"/>
<path d="M7.25998 0.386986C7.21598 0.694986 7.19398 1.00299 7.19398 1.31099C7.19398 1.56399 7.20498 1.93799 7.21598 2.37799H8.94299C9.22899 2.37799 9.65798 2.33399 9.87799 2.31199V3.23599C9.62498 3.22499 9.23998 3.21399 8.97598 3.21399H7.22698C7.25998 4.86399 7.29299 7.05299 7.30399 8.42799C7.30399 8.99999 6.96298 9.30799 6.30298 9.30799C5.73098 9.30799 5.08198 9.28599 4.54298 9.24199L4.46598 8.33999C4.99398 8.42799 5.60998 8.47199 6.01698 8.47199C6.33598 8.47199 6.42398 8.32899 6.42398 8.03199C6.42398 7.15199 6.41299 5.51299 6.39099 4.03899C5.47799 5.33699 3.55298 7.11899 1.58398 8.16399L0.945984 7.44899C3.17898 6.35999 5.13699 4.53399 6.00599 3.21399H2.38699C2.01299 3.21399 1.69399 3.22499 1.35299 3.24699V2.31199C1.67199 2.34499 2.02398 2.37799 2.36498 2.37799H6.36899C6.35799 1.93799 6.34699 1.56399 6.33599 1.31099C6.30298 0.892985 6.28098 0.617986 6.23698 0.386986H7.25998Z" fill="black"/>
<path d="M12.122 4.23699C12.452 4.25899 13.035 4.29199 13.651 4.29199H19.679C20.229 4.29199 20.625 4.25899 20.867 4.23699V5.31499C20.647 5.30399 20.185 5.25999 19.69 5.25999H13.651C13.046 5.25999 12.463 5.28199 12.122 5.31499V4.23699Z" fill="#262626"/>
<path d="M12.122 4.23699C12.452 4.25899 13.035 4.29199 13.651 4.29199H19.679C20.229 4.29199 20.625 4.25899 20.867 4.23699V5.31499C20.647 5.30399 20.185 5.25999 19.69 5.25999H13.651C13.046 5.25999 12.463 5.28199 12.122 5.31499V4.23699Z" fill="black"/>
<path d="M25.707 8.03199V1.62999C25.707 1.32199 25.685 0.826986 25.619 0.485986H26.697C26.664 0.826986 26.62 1.29999 26.62 1.62999C26.62 2.09199 26.62 2.72999 26.62 3.42299C28.072 3.86299 30.162 4.65499 31.317 5.23799L30.943 6.17299C29.744 5.52399 27.841 4.78699 26.62 4.40199C26.631 6.05199 26.631 7.71299 26.631 8.03199C26.631 8.37299 26.653 8.96699 26.697 9.32999H25.63C25.685 8.97799 25.707 8.43899 25.707 8.03199Z" fill="#262626"/>
<path d="M25.707 8.03199V1.62999C25.707 1.32199 25.685 0.826986 25.619 0.485986H26.697C26.664 0.826986 26.62 1.29999 26.62 1.62999C26.62 2.09199 26.62 2.72999 26.62 3.42299C28.072 3.86299 30.162 4.65499 31.317 5.23799L30.943 6.17299C29.744 5.52399 27.841 4.78699 26.62 4.40199C26.631 6.05199 26.631 7.71299 26.631 8.03199C26.631 8.37299 26.653 8.96699 26.697 9.32999H25.63C25.685 8.97799 25.707 8.43899 25.707 8.03199Z" fill="black"/>
<path d="M34.606 1.46499C35.035 1.47599 35.332 1.48699 35.585 1.48699H41.492C41.734 1.48699 42.13 1.48699 42.46 1.46499C42.438 1.73999 42.438 2.04799 42.438 2.32299V7.74599C42.438 8.09799 42.449 8.95599 42.46 9.07699H41.514C41.514 8.99999 41.525 8.73599 41.525 8.43899H35.519C35.53 8.72499 35.53 8.98899 35.541 9.07699H34.595C34.606 8.93399 34.628 8.11999 34.628 7.73499V2.32299C34.628 2.06999 34.628 1.72899 34.606 1.46499ZM35.519 2.35599V7.58099H41.536V2.35599H35.519Z" fill="#262626"/>
<path d="M34.606 1.46499C35.035 1.47599 35.332 1.48699 35.585 1.48699H41.492C41.734 1.48699 42.13 1.48699 42.46 1.46499C42.438 1.73999 42.438 2.04799 42.438 2.32299V7.74599C42.438 8.09799 42.449 8.95599 42.46 9.07699H41.514C41.514 8.99999 41.525 8.73599 41.525 8.43899H35.519C35.53 8.72499 35.53 8.98899 35.541 9.07699H34.595C34.606 8.93399 34.628 8.11999 34.628 7.73499V2.32299C34.628 2.06999 34.628 1.72899 34.606 1.46499ZM35.519 2.35599V7.58099H41.536V2.35599H35.519Z" fill="black"/>
<path d="M49.313 2.66399C49.5 3.10399 50.039 4.55599 50.182 5.03999L49.368 5.32599C49.247 4.83099 48.741 3.43399 48.51 2.93899L49.313 2.66399ZM53.295 3.27999C53.218 3.51099 53.174 3.68699 53.13 3.82999C52.833 5.03999 52.36 6.21699 51.568 7.20699C50.556 8.50499 49.214 9.35199 47.982 9.82499L47.256 9.08799C48.532 8.71399 49.929 7.87799 50.831 6.74499C51.612 5.78799 52.184 4.39099 52.349 2.98299L53.295 3.27999ZM46.761 3.21399C46.981 3.68699 47.553 5.12799 47.762 5.69999L46.926 6.00799C46.761 5.43599 46.167 3.91799 45.947 3.53299L46.761 3.21399Z" fill="#262626"/>
<path d="M49.313 2.66399C49.5 3.10399 50.039 4.55599 50.182 5.03999L49.368 5.32599C49.247 4.83099 48.741 3.43399 48.51 2.93899L49.313 2.66399ZM53.295 3.27999C53.218 3.51099 53.174 3.68699 53.13 3.82999C52.833 5.03999 52.36 6.21699 51.568 7.20699C50.556 8.50499 49.214 9.35199 47.982 9.82499L47.256 9.08799C48.532 8.71399 49.929 7.87799 50.831 6.74499C51.612 5.78799 52.184 4.39099 52.349 2.98299L53.295 3.27999ZM46.761 3.21399C46.981 3.68699 47.553 5.12799 47.762 5.69999L46.926 6.00799C46.761 5.43599 46.167 3.91799 45.947 3.53299L46.761 3.21399Z" fill="black"/>
<path d="M60.907 0.452986C60.72 0.738986 60.522 1.11299 60.423 1.32199C60.346 1.47599 60.258 1.62999 60.159 1.78399H63.14C63.437 1.78399 63.679 1.75099 63.855 1.67399L64.592 2.12499C64.504 2.27899 64.394 2.53199 64.339 2.70799C64.042 3.81899 63.36 5.30399 62.381 6.49199C61.38 7.71299 60.071 8.72499 58.003 9.48399L57.211 8.76899C59.224 8.17499 60.599 7.17399 61.6 6.00799C62.458 4.99599 63.129 3.57699 63.36 2.57599H59.642C58.971 3.49999 58.047 4.47899 56.848 5.28199L56.089 4.70999C57.981 3.57699 59.07 1.98199 59.543 0.991986C59.653 0.804986 59.818 0.408986 59.884 0.122986L60.907 0.452986Z" fill="#262626"/>
<path d="M60.907 0.452986C60.72 0.738986 60.522 1.11299 60.423 1.32199C60.346 1.47599 60.258 1.62999 60.159 1.78399H63.14C63.437 1.78399 63.679 1.75099 63.855 1.67399L64.592 2.12499C64.504 2.27899 64.394 2.53199 64.339 2.70799C64.042 3.81899 63.36 5.30399 62.381 6.49199C61.38 7.71299 60.071 8.72499 58.003 9.48399L57.211 8.76899C59.224 8.17499 60.599 7.17399 61.6 6.00799C62.458 4.99599 63.129 3.57699 63.36 2.57599H59.642C58.971 3.49999 58.047 4.47899 56.848 5.28199L56.089 4.70999C57.981 3.57699 59.07 1.98199 59.543 0.991986C59.653 0.804986 59.818 0.408986 59.884 0.122986L60.907 0.452986Z" fill="black"/>
</svg>
