<svg width="53" height="11" viewBox="0 0 53 11" fill="none" xmlns="http://www.w3.org/2000/svg">
<path d="M7.783 1.376C8.05801 1.772 8.454 2.443 8.68501 2.883L8.091 3.147C7.871 2.707 7.497 2.047 7.2 1.629L7.783 1.376ZM8.993 0.936005C9.279 1.343 9.708 2.02501 9.906 2.43201L9.323 2.696C9.081 2.223 8.718 1.596 8.41 1.189L8.993 0.936005ZM4.868 1.475C4.835 1.717 4.813 2.102 4.802 2.36601C4.791 2.762 4.769 3.136 4.747 3.499H7.365C7.662 3.499 7.882 3.47701 8.069 3.44401L8.68501 3.75201C8.652 3.93901 8.63 4.14801 8.63 4.291C8.586 5.34701 8.454 8.54801 7.959 9.60401C7.739 10.077 7.387 10.275 6.78201 10.275C6.221 10.275 5.583 10.242 5.011 10.198L4.901 9.28501C5.495 9.36201 6.078 9.40601 6.54 9.40601C6.859 9.40601 7.057 9.318 7.178 9.054C7.596 8.207 7.739 5.501 7.739 4.324H4.659C4.263 7.492 3.119 9.153 1.282 10.418L0.479004 9.769C0.831004 9.582 1.282 9.27401 1.612 8.95501C2.701 7.96501 3.493 6.59 3.79 4.324H1.942C1.513 4.324 1.062 4.32401 0.677004 4.36801V3.44401C1.062 3.47701 1.513 3.499 1.931 3.499H3.867C3.889 3.147 3.911 2.77301 3.911 2.388C3.911 2.135 3.878 1.728 3.834 1.475H4.868Z" fill="#262626"/>
<path d="M7.783 1.376C8.05801 1.772 8.454 2.443 8.68501 2.883L8.091 3.147C7.871 2.707 7.497 2.047 7.2 1.629L7.783 1.376ZM8.993 0.936005C9.279 1.343 9.708 2.02501 9.906 2.43201L9.323 2.696C9.081 2.223 8.718 1.596 8.41 1.189L8.993 0.936005ZM4.868 1.475C4.835 1.717 4.813 2.102 4.802 2.36601C4.791 2.762 4.769 3.136 4.747 3.499H7.365C7.662 3.499 7.882 3.47701 8.069 3.44401L8.68501 3.75201C8.652 3.93901 8.63 4.14801 8.63 4.291C8.586 5.34701 8.454 8.54801 7.959 9.60401C7.739 10.077 7.387 10.275 6.78201 10.275C6.221 10.275 5.583 10.242 5.011 10.198L4.901 9.28501C5.495 9.36201 6.078 9.40601 6.54 9.40601C6.859 9.40601 7.057 9.318 7.178 9.054C7.596 8.207 7.739 5.501 7.739 4.324H4.659C4.263 7.492 3.119 9.153 1.282 10.418L0.479004 9.769C0.831004 9.582 1.282 9.27401 1.612 8.95501C2.701 7.96501 3.493 6.59 3.79 4.324H1.942C1.513 4.324 1.062 4.32401 0.677004 4.36801V3.44401C1.062 3.47701 1.513 3.499 1.931 3.499H3.867C3.889 3.147 3.911 2.77301 3.911 2.388C3.911 2.135 3.878 1.728 3.834 1.475H4.868Z" fill="black"/>
<path d="M19.3 2.64101C19.234 2.72901 19.091 2.971 19.025 3.12501C18.651 4.071 17.958 5.358 17.177 6.348C18.332 7.338 19.674 8.768 20.389 9.637L19.619 10.297C18.882 9.32901 17.716 8.03101 16.594 7.03C15.417 8.29501 13.932 9.50501 12.304 10.242L11.6 9.505C13.371 8.812 14.999 7.50301 16.132 6.23801C16.88 5.391 17.683 4.09301 17.958 3.18001H13.668C13.283 3.18001 12.678 3.224 12.557 3.235V2.234C12.711 2.256 13.338 2.3 13.668 2.3H17.914C18.277 2.3 18.563 2.26701 18.739 2.21201L19.3 2.64101Z" fill="#262626"/>
<path d="M19.3 2.64101C19.234 2.72901 19.091 2.971 19.025 3.12501C18.651 4.071 17.958 5.358 17.177 6.348C18.332 7.338 19.674 8.768 20.389 9.637L19.619 10.297C18.882 9.32901 17.716 8.03101 16.594 7.03C15.417 8.29501 13.932 9.50501 12.304 10.242L11.6 9.505C13.371 8.812 14.999 7.50301 16.132 6.23801C16.88 5.391 17.683 4.09301 17.958 3.18001H13.668C13.283 3.18001 12.678 3.224 12.557 3.235V2.234C12.711 2.256 13.338 2.3 13.668 2.3H17.914C18.277 2.3 18.563 2.26701 18.739 2.21201L19.3 2.64101Z" fill="black"/>
<path d="M23.392 2.454C23.755 2.498 24.239 2.52 24.591 2.52H30.014C30.278 2.52 30.608 2.509 30.828 2.498C30.817 2.751 30.795 3.09201 30.795 3.35601V9.03201C30.795 9.42801 30.828 9.92301 30.839 10.099H29.849C29.86 9.97801 29.86 9.74701 29.871 9.48301H24.492C24.041 9.48301 23.546 9.50501 23.249 9.52701V8.52601C23.535 8.55901 24.008 8.59201 24.47 8.59201H29.871V3.4H24.602C24.195 3.4 23.645 3.422 23.392 3.433V2.454Z" fill="#262626"/>
<path d="M23.392 2.454C23.755 2.498 24.239 2.52 24.591 2.52H30.014C30.278 2.52 30.608 2.509 30.828 2.498C30.817 2.751 30.795 3.09201 30.795 3.35601V9.03201C30.795 9.42801 30.828 9.92301 30.839 10.099H29.849C29.86 9.97801 29.86 9.74701 29.871 9.48301H24.492C24.041 9.48301 23.546 9.50501 23.249 9.52701V8.52601C23.535 8.55901 24.008 8.59201 24.47 8.59201H29.871V3.4H24.602C24.195 3.4 23.645 3.422 23.392 3.433V2.454Z" fill="black"/>
<path d="M34.997 1.937C35.778 2.454 37.186 3.59801 37.802 4.214L37.109 4.907C36.559 4.335 35.184 3.15801 34.37 2.60801L34.997 1.937ZM34.051 9.307C35.976 9.021 37.406 8.35001 38.451 7.70101C40.145 6.63401 41.487 5.00601 42.125 3.65301L42.653 4.58801C41.905 5.96301 40.618 7.459 38.957 8.504C37.857 9.197 36.471 9.86801 34.634 10.209L34.051 9.307Z" fill="#262626"/>
<path d="M34.997 1.937C35.778 2.454 37.186 3.59801 37.802 4.214L37.109 4.907C36.559 4.335 35.184 3.15801 34.37 2.60801L34.997 1.937ZM34.051 9.307C35.976 9.021 37.406 8.35001 38.451 7.70101C40.145 6.63401 41.487 5.00601 42.125 3.65301L42.653 4.58801C41.905 5.96301 40.618 7.459 38.957 8.504C37.857 9.197 36.471 9.86801 34.634 10.209L34.051 9.307Z" fill="black"/>
<path d="M45.106 2.465C45.535 2.476 45.832 2.487 46.085 2.487H51.992C52.234 2.487 52.63 2.487 52.96 2.465C52.938 2.74 52.938 3.048 52.938 3.323V8.74601C52.938 9.09801 52.949 9.95601 52.96 10.077H52.014C52.014 10 52.025 9.736 52.025 9.439H46.019C46.03 9.725 46.03 9.98901 46.041 10.077H45.095C45.106 9.93401 45.128 9.12 45.128 8.735V3.323C45.128 3.07 45.128 2.729 45.106 2.465ZM46.019 3.35601V8.58101H52.036V3.35601H46.019Z" fill="#262626"/>
<path d="M45.106 2.465C45.535 2.476 45.832 2.487 46.085 2.487H51.992C52.234 2.487 52.63 2.487 52.96 2.465C52.938 2.74 52.938 3.048 52.938 3.323V8.74601C52.938 9.09801 52.949 9.95601 52.96 10.077H52.014C52.014 10 52.025 9.736 52.025 9.439H46.019C46.03 9.725 46.03 9.98901 46.041 10.077H45.095C45.106 9.93401 45.128 9.12 45.128 8.735V3.323C45.128 3.07 45.128 2.729 45.106 2.465ZM46.019 3.35601V8.58101H52.036V3.35601H46.019Z" fill="black"/>
</svg>
