<svg width="54" height="25" viewBox="0 0 54 25" fill="none" xmlns="http://www.w3.org/2000/svg">
<path d="M5.08797 0.342989C5.05497 0.595989 5.03298 0.98099 5.02198 1.24499C5.01098 1.64099 4.98898 2.01499 4.96698 2.37799H7.58498C7.88198 2.37799 8.10198 2.35599 8.28897 2.32299L8.90498 2.63099C8.87198 2.81799 8.84998 3.02699 8.84998 3.16999C8.80598 4.22599 8.67398 7.42699 8.17898 8.48299C7.95898 8.94499 7.60698 9.15399 7.00198 9.15399C6.44098 9.15399 5.80298 9.10999 5.23098 9.07699L5.12098 8.16399C5.71498 8.24099 6.29798 8.28499 6.75998 8.28499C7.07898 8.28499 7.27698 8.19699 7.39798 7.92199C7.81598 7.08599 7.95897 4.37999 7.95897 3.20299H4.87897C4.48297 6.35999 3.33898 8.03199 1.50198 9.29699L0.698975 8.64799C1.05097 8.46099 1.50198 8.15299 1.83198 7.83399C2.92098 6.84399 3.71298 5.46899 4.00998 3.20299H2.16198C1.73298 3.20299 1.28197 3.20299 0.896975 3.24699V2.31199C1.28197 2.35599 1.73298 2.37799 2.15098 2.37799H4.08698C4.10898 2.02599 4.13098 1.65199 4.13098 1.25599C4.13098 1.01399 4.09798 0.60699 4.05398 0.342989H5.08797Z" fill="#262626"/>
<path d="M5.08797 0.342989C5.05497 0.595989 5.03298 0.98099 5.02198 1.24499C5.01098 1.64099 4.98898 2.01499 4.96698 2.37799H7.58498C7.88198 2.37799 8.10198 2.35599 8.28897 2.32299L8.90498 2.63099C8.87198 2.81799 8.84998 3.02699 8.84998 3.16999C8.80598 4.22599 8.67398 7.42699 8.17898 8.48299C7.95898 8.94499 7.60698 9.15399 7.00198 9.15399C6.44098 9.15399 5.80298 9.10999 5.23098 9.07699L5.12098 8.16399C5.71498 8.24099 6.29798 8.28499 6.75998 8.28499C7.07898 8.28499 7.27698 8.19699 7.39798 7.92199C7.81598 7.08599 7.95897 4.37999 7.95897 3.20299H4.87897C4.48297 6.35999 3.33898 8.03199 1.50198 9.29699L0.698975 8.64799C1.05097 8.46099 1.50198 8.15299 1.83198 7.83399C2.92098 6.84399 3.71298 5.46899 4.00998 3.20299H2.16198C1.73298 3.20299 1.28197 3.20299 0.896975 3.24699V2.31199C1.28197 2.35599 1.73298 2.37799 2.15098 2.37799H4.08698C4.10898 2.02599 4.13098 1.65199 4.13098 1.25599C4.13098 1.01399 4.09798 0.60699 4.05398 0.342989H5.08797Z" fill="black"/>
<path d="M16.451 0.188989C16.396 0.52999 16.385 0.78299 16.385 1.01399V2.03699H18.849C19.256 2.03699 19.465 2.00399 19.608 1.94899L20.202 2.32299C20.147 2.48799 20.081 2.77399 20.037 2.98299C19.894 3.86299 19.575 5.23799 18.959 6.29399C18.134 7.73499 16.616 8.85699 14.603 9.40699L13.888 8.58199C14.262 8.52699 14.68 8.40599 15.032 8.27399C16.132 7.92199 17.342 7.09699 18.013 6.06299C18.607 5.12799 18.959 3.79699 19.058 2.85099H12.909V4.81999C12.909 5.01799 12.92 5.30399 12.953 5.47999H11.996C12.018 5.28199 12.029 4.98499 12.029 4.77599V2.83999C12.029 2.60899 12.029 2.23499 11.996 1.99299C12.315 2.02599 12.634 2.03699 13.019 2.03699H15.45V1.01399C15.45 0.78299 15.439 0.52999 15.395 0.188989H16.451Z" fill="#262626"/>
<path d="M16.451 0.188989C16.396 0.52999 16.385 0.78299 16.385 1.01399V2.03699H18.849C19.256 2.03699 19.465 2.00399 19.608 1.94899L20.202 2.32299C20.147 2.48799 20.081 2.77399 20.037 2.98299C19.894 3.86299 19.575 5.23799 18.959 6.29399C18.134 7.73499 16.616 8.85699 14.603 9.40699L13.888 8.58199C14.262 8.52699 14.68 8.40599 15.032 8.27399C16.132 7.92199 17.342 7.09699 18.013 6.06299C18.607 5.12799 18.959 3.79699 19.058 2.85099H12.909V4.81999C12.909 5.01799 12.92 5.30399 12.953 5.47999H11.996C12.018 5.28199 12.029 4.98499 12.029 4.77599V2.83999C12.029 2.60899 12.029 2.23499 11.996 1.99299C12.315 2.02599 12.634 2.03699 13.019 2.03699H15.45V1.01399C15.45 0.78299 15.439 0.52999 15.395 0.188989H16.451Z" fill="black"/>
<path d="M23.997 0.93699C24.778 1.45399 26.186 2.59799 26.802 3.21399L26.109 3.90699C25.559 3.33499 24.184 2.15799 23.37 1.60799L23.997 0.93699ZM23.051 8.30699C24.976 8.02099 26.406 7.34999 27.451 6.70099C29.145 5.63399 30.487 4.00599 31.125 2.65299L31.653 3.58799C30.905 4.96299 29.618 6.45899 27.957 7.50399C26.857 8.19699 25.471 8.86799 23.634 9.20899L23.051 8.30699Z" fill="#262626"/>
<path d="M23.997 0.93699C24.778 1.45399 26.186 2.59799 26.802 3.21399L26.109 3.90699C25.559 3.33499 24.184 2.15799 23.37 1.60799L23.997 0.93699ZM23.051 8.30699C24.976 8.02099 26.406 7.34999 27.451 6.70099C29.145 5.63399 30.487 4.00599 31.125 2.65299L31.653 3.58799C30.905 4.96299 29.618 6.45899 27.957 7.50399C26.857 8.19699 25.471 8.86799 23.634 9.20899L23.051 8.30699Z" fill="black"/>
<path d="M38.396 0.36499C38.209 0.650989 38.011 1.02499 37.901 1.22299C37.835 1.35499 37.758 1.48699 37.67 1.61899H40.651C40.948 1.61899 41.19 1.57499 41.377 1.50899L42.103 1.94899C42.004 2.10299 41.905 2.36699 41.839 2.54299C41.553 3.55499 40.959 4.84199 40.123 5.96399C40.585 6.30499 41.025 6.64599 41.377 6.93199L40.728 7.69099C40.398 7.39399 39.98 7.05299 39.529 6.68999C38.55 7.77899 37.197 8.79099 35.338 9.48399L34.546 8.80199C36.405 8.22999 37.813 7.21799 38.803 6.15099C38.011 5.57899 37.175 5.00699 36.471 4.56699L37.065 3.96199C37.791 4.37999 38.616 4.90799 39.386 5.44699C40.101 4.48999 40.662 3.30199 40.882 2.39999H37.164C36.46 3.38999 35.481 4.46799 34.249 5.31499L33.512 4.74299C35.404 3.56599 36.526 1.91599 37.043 0.91499C37.153 0.71699 37.329 0.33199 37.395 0.04599L38.396 0.36499Z" fill="#262626"/>
<path d="M38.396 0.36499C38.209 0.650989 38.011 1.02499 37.901 1.22299C37.835 1.35499 37.758 1.48699 37.67 1.61899H40.651C40.948 1.61899 41.19 1.57499 41.377 1.50899L42.103 1.94899C42.004 2.10299 41.905 2.36699 41.839 2.54299C41.553 3.55499 40.959 4.84199 40.123 5.96399C40.585 6.30499 41.025 6.64599 41.377 6.93199L40.728 7.69099C40.398 7.39399 39.98 7.05299 39.529 6.68999C38.55 7.77899 37.197 8.79099 35.338 9.48399L34.546 8.80199C36.405 8.22999 37.813 7.21799 38.803 6.15099C38.011 5.57899 37.175 5.00699 36.471 4.56699L37.065 3.96199C37.791 4.37999 38.616 4.90799 39.386 5.44699C40.101 4.48999 40.662 3.30199 40.882 2.39999H37.164C36.46 3.38999 35.481 4.46799 34.249 5.31499L33.512 4.74299C35.404 3.56599 36.526 1.91599 37.043 0.91499C37.153 0.71699 37.329 0.33199 37.395 0.04599L38.396 0.36499Z" fill="black"/>
<path d="M44.622 4.23699C44.952 4.25899 45.535 4.29199 46.151 4.29199H52.179C52.729 4.29199 53.125 4.25899 53.367 4.23699V5.31499C53.147 5.30399 52.685 5.25999 52.19 5.25999H46.151C45.546 5.25999 44.963 5.28199 44.622 5.31499V4.23699Z" fill="#262626"/>
<path d="M44.622 4.23699C44.952 4.25899 45.535 4.29199 46.151 4.29199H52.179C52.729 4.29199 53.125 4.25899 53.367 4.23699V5.31499C53.147 5.30399 52.685 5.25999 52.19 5.25999H46.151C45.546 5.25999 44.963 5.28199 44.622 5.31499V4.23699Z" fill="black"/>
<path d="M9.31198 16.223C9.25698 15.937 9.17998 15.695 9.10298 15.475L10.093 15.299C10.104 15.508 10.159 15.816 10.192 16.058C10.214 16.179 10.291 16.63 10.423 17.246C11.49 17.07 12.502 16.905 12.964 16.817C13.283 16.762 13.558 16.685 13.745 16.63L13.932 17.554C13.767 17.576 13.426 17.62 13.14 17.664C12.634 17.741 11.633 17.906 10.577 18.071C10.72 18.753 10.874 19.534 11.017 20.271C12.128 20.095 13.173 19.908 13.723 19.809C14.152 19.732 14.46 19.666 14.702 19.6L14.878 20.524C14.647 20.546 14.295 20.601 13.888 20.667C13.283 20.766 12.26 20.931 11.182 21.096C11.402 22.174 11.578 23.054 11.633 23.307C11.71 23.626 11.798 24 11.897 24.308L10.896 24.495C10.841 24.121 10.808 23.791 10.731 23.461C10.687 23.219 10.511 22.328 10.302 21.239C9.05898 21.448 7.88198 21.646 7.34298 21.745C6.91398 21.822 6.60598 21.877 6.37498 21.943L6.17698 20.986C6.42998 20.975 6.85898 20.931 7.14498 20.887C7.69498 20.81 8.89397 20.623 10.148 20.425C9.99397 19.677 9.83998 18.896 9.70798 18.214C8.66298 18.379 7.70598 18.533 7.28798 18.61C6.97998 18.665 6.72697 18.72 6.39697 18.797L6.20998 17.807C6.48498 17.796 6.77097 17.774 7.12297 17.73C7.55197 17.686 8.50897 17.543 9.54297 17.378C9.42197 16.784 9.34498 16.355 9.31198 16.223Z" fill="#262626"/>
<path d="M9.31198 16.223C9.25698 15.937 9.17998 15.695 9.10298 15.475L10.093 15.299C10.104 15.508 10.159 15.816 10.192 16.058C10.214 16.179 10.291 16.63 10.423 17.246C11.49 17.07 12.502 16.905 12.964 16.817C13.283 16.762 13.558 16.685 13.745 16.63L13.932 17.554C13.767 17.576 13.426 17.62 13.14 17.664C12.634 17.741 11.633 17.906 10.577 18.071C10.72 18.753 10.874 19.534 11.017 20.271C12.128 20.095 13.173 19.908 13.723 19.809C14.152 19.732 14.46 19.666 14.702 19.6L14.878 20.524C14.647 20.546 14.295 20.601 13.888 20.667C13.283 20.766 12.26 20.931 11.182 21.096C11.402 22.174 11.578 23.054 11.633 23.307C11.71 23.626 11.798 24 11.897 24.308L10.896 24.495C10.841 24.121 10.808 23.791 10.731 23.461C10.687 23.219 10.511 22.328 10.302 21.239C9.05898 21.448 7.88198 21.646 7.34298 21.745C6.91398 21.822 6.60598 21.877 6.37498 21.943L6.17698 20.986C6.42998 20.975 6.85898 20.931 7.14498 20.887C7.69498 20.81 8.89397 20.623 10.148 20.425C9.99397 19.677 9.83998 18.896 9.70798 18.214C8.66298 18.379 7.70598 18.533 7.28798 18.61C6.97998 18.665 6.72697 18.72 6.39697 18.797L6.20998 17.807C6.48498 17.796 6.77097 17.774 7.12297 17.73C7.55197 17.686 8.50897 17.543 9.54297 17.378C9.42197 16.784 9.34498 16.355 9.31198 16.223Z" fill="black"/>
<path d="M21.313 17.664C21.5 18.104 22.039 19.556 22.182 20.04L21.368 20.326C21.247 19.831 20.741 18.434 20.51 17.939L21.313 17.664ZM25.295 18.28C25.218 18.511 25.174 18.687 25.13 18.83C24.833 20.04 24.36 21.217 23.568 22.207C22.556 23.505 21.214 24.352 19.982 24.825L19.256 24.088C20.532 23.714 21.929 22.878 22.831 21.745C23.612 20.788 24.184 19.391 24.349 17.983L25.295 18.28ZM18.761 18.214C18.981 18.687 19.553 20.128 19.762 20.7L18.926 21.008C18.761 20.436 18.167 18.918 17.947 18.533L18.761 18.214Z" fill="#262626"/>
<path d="M21.313 17.664C21.5 18.104 22.039 19.556 22.182 20.04L21.368 20.326C21.247 19.831 20.741 18.434 20.51 17.939L21.313 17.664ZM25.295 18.28C25.218 18.511 25.174 18.687 25.13 18.83C24.833 20.04 24.36 21.217 23.568 22.207C22.556 23.505 21.214 24.352 19.982 24.825L19.256 24.088C20.532 23.714 21.929 22.878 22.831 21.745C23.612 20.788 24.184 19.391 24.349 17.983L25.295 18.28ZM18.761 18.214C18.981 18.687 19.553 20.128 19.762 20.7L18.926 21.008C18.761 20.436 18.167 18.918 17.947 18.533L18.761 18.214Z" fill="black"/>
<path d="M28.826 16.355C29.662 16.388 31.334 16.344 32.522 16.19C33.523 16.047 34.821 15.783 35.36 15.552L35.943 16.311C35.701 16.377 35.481 16.432 35.327 16.476C34.777 16.619 33.93 16.784 33.138 16.905V19.017H36.174C36.416 19.017 36.812 18.995 37.043 18.973V19.886C36.801 19.864 36.471 19.842 36.196 19.842H33.127C33.006 21.899 32.203 23.351 30.311 24.451L29.442 23.846C31.18 23.043 32.093 21.811 32.225 19.842H28.958C28.606 19.842 28.232 19.864 27.968 19.886V18.973C28.221 18.995 28.606 19.017 28.936 19.017H32.247V17.015C31.136 17.125 29.893 17.158 29.046 17.169L28.826 16.355Z" fill="#262626"/>
<path d="M28.826 16.355C29.662 16.388 31.334 16.344 32.522 16.19C33.523 16.047 34.821 15.783 35.36 15.552L35.943 16.311C35.701 16.377 35.481 16.432 35.327 16.476C34.777 16.619 33.93 16.784 33.138 16.905V19.017H36.174C36.416 19.017 36.812 18.995 37.043 18.973V19.886C36.801 19.864 36.471 19.842 36.196 19.842H33.127C33.006 21.899 32.203 23.351 30.311 24.451L29.442 23.846C31.18 23.043 32.093 21.811 32.225 19.842H28.958C28.606 19.842 28.232 19.864 27.968 19.886V18.973C28.221 18.995 28.606 19.017 28.936 19.017H32.247V17.015C31.136 17.125 29.893 17.158 29.046 17.169L28.826 16.355Z" fill="black"/>
<path d="M40.497 15.937C41.278 16.454 42.686 17.598 43.302 18.214L42.609 18.907C42.059 18.335 40.684 17.158 39.87 16.608L40.497 15.937ZM39.551 23.307C41.476 23.021 42.906 22.35 43.951 21.701C45.645 20.634 46.987 19.006 47.625 17.653L48.153 18.588C47.405 19.963 46.118 21.459 44.457 22.504C43.357 23.197 41.971 23.868 40.134 24.209L39.551 23.307Z" fill="#262626"/>
<path d="M40.497 15.937C41.278 16.454 42.686 17.598 43.302 18.214L42.609 18.907C42.059 18.335 40.684 17.158 39.87 16.608L40.497 15.937ZM39.551 23.307C41.476 23.021 42.906 22.35 43.951 21.701C45.645 20.634 46.987 19.006 47.625 17.653L48.153 18.588C47.405 19.963 46.118 21.459 44.457 22.504C43.357 23.197 41.971 23.868 40.134 24.209L39.551 23.307Z" fill="black"/>
</svg>
