<svg width="55" height="11" viewBox="0 0 55 11" fill="none" xmlns="http://www.w3.org/2000/svg">
<path d="M6.75998 1.38699C6.71598 1.69499 6.69398 2.00299 6.69398 2.31099C6.69398 2.56399 6.70498 2.93799 6.71598 3.37799H8.44299C8.72899 3.37799 9.15798 3.33399 9.37799 3.31199V4.23599C9.12498 4.22499 8.73998 4.21399 8.47598 4.21399H6.72698C6.75998 5.86399 6.79299 8.053 6.80399 9.428C6.80399 10 6.46298 10.308 5.80298 10.308C5.23098 10.308 4.58198 10.286 4.04298 10.242L3.96598 9.33999C4.49398 9.42799 5.10998 9.47199 5.51698 9.47199C5.83598 9.47199 5.92398 9.32899 5.92398 9.03199C5.92398 8.15199 5.91299 6.51299 5.89099 5.03899C4.97799 6.33699 3.05298 8.11899 1.08398 9.16399L0.445984 8.449C2.67898 7.36 4.63699 5.53399 5.50599 4.21399H1.88699C1.51299 4.21399 1.19399 4.22499 0.852985 4.24699V3.31199C1.17199 3.34499 1.52398 3.37799 1.86498 3.37799H5.86899C5.85799 2.93799 5.84699 2.56399 5.83599 2.31099C5.80298 1.89299 5.78098 1.61799 5.73698 1.38699H6.75998Z" fill="#262626"/>
<path d="M6.75998 1.38699C6.71598 1.69499 6.69398 2.00299 6.69398 2.31099C6.69398 2.56399 6.70498 2.93799 6.71598 3.37799H8.44299C8.72899 3.37799 9.15798 3.33399 9.37799 3.31199V4.23599C9.12498 4.22499 8.73998 4.21399 8.47598 4.21399H6.72698C6.75998 5.86399 6.79299 8.053 6.80399 9.428C6.80399 10 6.46298 10.308 5.80298 10.308C5.23098 10.308 4.58198 10.286 4.04298 10.242L3.96598 9.33999C4.49398 9.42799 5.10998 9.47199 5.51698 9.47199C5.83598 9.47199 5.92398 9.32899 5.92398 9.03199C5.92398 8.15199 5.91299 6.51299 5.89099 5.03899C4.97799 6.33699 3.05298 8.11899 1.08398 9.16399L0.445984 8.449C2.67898 7.36 4.63699 5.53399 5.50599 4.21399H1.88699C1.51299 4.21399 1.19399 4.22499 0.852985 4.24699V3.31199C1.17199 3.34499 1.52398 3.37799 1.86498 3.37799H5.86899C5.85799 2.93799 5.84699 2.56399 5.83599 2.31099C5.80298 1.89299 5.78098 1.61799 5.73698 1.38699H6.75998Z" fill="black"/>
<path d="M11.622 5.23699C11.952 5.25899 12.535 5.29199 13.151 5.29199H19.179C19.729 5.29199 20.125 5.25899 20.367 5.23699V6.31499C20.147 6.30399 19.685 6.25999 19.19 6.25999H13.151C12.546 6.25999 11.963 6.28199 11.622 6.31499V5.23699Z" fill="#262626"/>
<path d="M11.622 5.23699C11.952 5.25899 12.535 5.29199 13.151 5.29199H19.179C19.729 5.29199 20.125 5.25899 20.367 5.23699V6.31499C20.147 6.30399 19.685 6.25999 19.19 6.25999H13.151C12.546 6.25999 11.963 6.28199 11.622 6.31499V5.23699Z" fill="black"/>
<path d="M27.264 9.769C27.308 9.593 27.341 9.37299 27.341 9.15299V2.56399C27.341 2.14599 27.286 1.82699 27.275 1.74999H28.287C28.276 1.82699 28.243 2.14599 28.243 2.56399V8.911C29.255 8.449 30.608 7.44799 31.455 6.20499L31.972 6.95299C31.026 8.23999 29.497 9.37299 28.221 9.99999C28.045 10.099 27.924 10.187 27.847 10.253L27.264 9.769ZM22.226 9.71399C23.15 9.05399 23.81 8.07499 24.14 7.00799C24.459 6.00699 24.47 3.80699 24.47 2.58599C24.47 2.25599 24.437 2.01399 24.393 1.78299H25.405C25.394 1.91499 25.35 2.24499 25.35 2.57499C25.35 3.79599 25.306 6.14999 25.009 7.24999C24.679 8.42699 23.975 9.50499 23.051 10.275L22.226 9.71399Z" fill="#262626"/>
<path d="M27.264 9.769C27.308 9.593 27.341 9.37299 27.341 9.15299V2.56399C27.341 2.14599 27.286 1.82699 27.275 1.74999H28.287C28.276 1.82699 28.243 2.14599 28.243 2.56399V8.911C29.255 8.449 30.608 7.44799 31.455 6.20499L31.972 6.95299C31.026 8.23999 29.497 9.37299 28.221 9.99999C28.045 10.099 27.924 10.187 27.847 10.253L27.264 9.769ZM22.226 9.71399C23.15 9.05399 23.81 8.07499 24.14 7.00799C24.459 6.00699 24.47 3.80699 24.47 2.58599C24.47 2.25599 24.437 2.01399 24.393 1.78299H25.405C25.394 1.91499 25.35 2.24499 25.35 2.57499C25.35 3.79599 25.306 6.14999 25.009 7.24999C24.679 8.42699 23.975 9.50499 23.051 10.275L22.226 9.71399Z" fill="black"/>
<path d="M37.571 5.67699V3.16899H34.117V4.70899H33.38V2.57499H37.571V1.90399H34.007V1.26599H41.993V1.90399H38.363V2.57499H42.631V4.70899H41.872V3.16899H38.363V5.67699H37.571ZM38.946 5.39099V4.87399H41.564V5.39099H38.946ZM38.946 3.76299H41.3V4.26899H38.946V3.76299ZM37.01 3.76299V4.26899H34.689V3.76299H37.01ZM34.48 5.39099V4.87399H37.01V5.39099H34.48ZM35.096 8.70199H37.538V7.95399H35.096V8.70199ZM37.538 6.64499H35.096V7.404H37.538V6.64499ZM40.937 7.404V6.64499H38.319V7.404H40.937ZM38.319 8.70199H40.937V7.95399H38.319V8.70199ZM39.144 10.088H41.586C42.169 10.088 42.279 9.90099 42.334 8.80099C42.521 8.92199 42.818 9.03199 43.049 9.07599C42.928 10.407 42.675 10.737 41.641 10.737H39.111C37.879 10.737 37.538 10.528 37.538 9.64799V9.29599H35.096V9.86799H34.315V6.05099H41.729V9.29599H38.319V9.64799C38.319 10.022 38.451 10.088 39.144 10.088Z" fill="#262626"/>
<path d="M37.571 5.67699V3.16899H34.117V4.70899H33.38V2.57499H37.571V1.90399H34.007V1.26599H41.993V1.90399H38.363V2.57499H42.631V4.70899H41.872V3.16899H38.363V5.67699H37.571ZM38.946 5.39099V4.87399H41.564V5.39099H38.946ZM38.946 3.76299H41.3V4.26899H38.946V3.76299ZM37.01 3.76299V4.26899H34.689V3.76299H37.01ZM34.48 5.39099V4.87399H37.01V5.39099H34.48ZM35.096 8.70199H37.538V7.95399H35.096V8.70199ZM37.538 6.64499H35.096V7.404H37.538V6.64499ZM40.937 7.404V6.64499H38.319V7.404H40.937ZM38.319 8.70199H40.937V7.95399H38.319V8.70199ZM39.144 10.088H41.586C42.169 10.088 42.279 9.90099 42.334 8.80099C42.521 8.92199 42.818 9.03199 43.049 9.07599C42.928 10.407 42.675 10.737 41.641 10.737H39.111C37.879 10.737 37.538 10.528 37.538 9.64799V9.29599H35.096V9.86799H34.315V6.05099H41.729V9.29599H38.319V9.64799C38.319 10.022 38.451 10.088 39.144 10.088Z" fill="black"/>
<path d="M46.965 0.968994L47.746 1.23299C47.416 2.01399 46.998 2.79499 46.525 3.52099V10.814H45.7V4.67599C45.238 5.25899 44.754 5.78699 44.27 6.22699C44.182 6.02899 43.929 5.59999 43.775 5.40199C45.029 4.35699 46.239 2.69599 46.965 0.968994ZM50.397 9.91199H52.542C53.147 9.91199 53.246 9.51599 53.323 7.92099C53.532 8.06399 53.862 8.21799 54.104 8.27299C53.972 10.055 53.73 10.682 52.597 10.682H50.342C49.198 10.682 48.846 10.352 48.846 9.15299V1.05699H49.671V5.14899C50.892 4.46699 52.146 3.60899 52.96 2.87199L53.543 3.57599C52.509 4.41199 51.035 5.24799 49.671 5.97399V9.16399C49.671 9.77999 49.792 9.91199 50.397 9.91199Z" fill="#262626"/>
<path d="M46.965 0.968994L47.746 1.23299C47.416 2.01399 46.998 2.79499 46.525 3.52099V10.814H45.7V4.67599C45.238 5.25899 44.754 5.78699 44.27 6.22699C44.182 6.02899 43.929 5.59999 43.775 5.40199C45.029 4.35699 46.239 2.69599 46.965 0.968994ZM50.397 9.91199H52.542C53.147 9.91199 53.246 9.51599 53.323 7.92099C53.532 8.06399 53.862 8.21799 54.104 8.27299C53.972 10.055 53.73 10.682 52.597 10.682H50.342C49.198 10.682 48.846 10.352 48.846 9.15299V1.05699H49.671V5.14899C50.892 4.46699 52.146 3.60899 52.96 2.87199L53.543 3.57599C52.509 4.41199 51.035 5.24799 49.671 5.97399V9.16399C49.671 9.77999 49.792 9.91199 50.397 9.91199Z" fill="black"/>
</svg>
