<svg width="86" height="11" viewBox="0 0 86 11" fill="none" xmlns="http://www.w3.org/2000/svg">
<path d="M5.19907 9.769C5.24307 9.593 5.27607 9.373 5.27607 9.153V2.564C5.27607 2.146 5.22107 1.827 5.21007 1.75H6.22207C6.21107 1.827 6.17807 2.146 6.17807 2.564V8.911C7.19007 8.449 8.54307 7.448 9.39007 6.205L9.90707 6.953C8.96107 8.24 7.43207 9.373 6.15607 10C5.98007 10.099 5.85907 10.187 5.78207 10.253L5.19907 9.769ZM0.161072 9.714C1.08507 9.054 1.74507 8.075 2.07507 7.008C2.39407 6.007 2.40507 3.807 2.40507 2.586C2.40507 2.256 2.37207 2.014 2.32807 1.783H3.34007C3.32907 1.915 3.28507 2.245 3.28507 2.575C3.28507 3.796 3.24107 6.15 2.94407 7.25C2.61407 8.427 1.91007 9.505 0.986072 10.275L0.161072 9.714Z" fill="#262626"/>
<path d="M5.19907 9.769C5.24307 9.593 5.27607 9.373 5.27607 9.153V2.564C5.27607 2.146 5.22107 1.827 5.21007 1.75H6.22207C6.21107 1.827 6.17807 2.146 6.17807 2.564V8.911C7.19007 8.449 8.54307 7.448 9.39007 6.205L9.90707 6.953C8.96107 8.24 7.43207 9.373 6.15607 10C5.98007 10.099 5.85907 10.187 5.78207 10.253L5.19907 9.769ZM0.161072 9.714C1.08507 9.054 1.74507 8.075 2.07507 7.008C2.39407 6.007 2.40507 3.807 2.40507 2.586C2.40507 2.256 2.37207 2.014 2.32807 1.783H3.34007C3.32907 1.915 3.28507 2.245 3.28507 2.575C3.28507 3.796 3.24107 6.15 2.94407 7.25C2.61407 8.427 1.91007 9.505 0.986072 10.275L0.161072 9.714Z" fill="black"/>
<path d="M11.5571 5.237C11.8871 5.259 12.4701 5.292 13.0861 5.292H19.1141C19.6641 5.292 20.0601 5.259 20.3021 5.237V6.315C20.0821 6.304 19.6201 6.26 19.1251 6.26H13.0861C12.4811 6.26 11.8981 6.282 11.5571 6.315V5.237Z" fill="#262626"/>
<path d="M11.5571 5.237C11.8871 5.259 12.4701 5.292 13.0861 5.292H19.1141C19.6641 5.292 20.0601 5.259 20.3021 5.237V6.315C20.0821 6.304 19.6201 6.26 19.1251 6.26H13.0861C12.4811 6.26 11.8981 6.282 11.5571 6.315V5.237Z" fill="black"/>
<path d="M30.2508 2.685C30.1738 2.839 30.1298 3.026 30.0858 3.235C29.8548 4.39 29.3158 6.161 28.4468 7.294C27.4458 8.581 26.1368 9.604 24.1128 10.242L23.3648 9.417C25.4988 8.878 26.7308 7.943 27.6548 6.766C28.4358 5.765 28.9418 4.236 29.0958 3.18H23.4748C23.0348 3.18 22.6608 3.202 22.3748 3.213V2.245C22.6828 2.278 23.1118 2.311 23.4748 2.311H28.9968C29.1618 2.311 29.3708 2.311 29.5798 2.256L30.2508 2.685Z" fill="#262626"/>
<path d="M30.2508 2.685C30.1738 2.839 30.1298 3.026 30.0858 3.235C29.8548 4.39 29.3158 6.161 28.4468 7.294C27.4458 8.581 26.1368 9.604 24.1128 10.242L23.3648 9.417C25.4988 8.878 26.7308 7.943 27.6548 6.766C28.4358 5.765 28.9418 4.236 29.0958 3.18H23.4748C23.0348 3.18 22.6608 3.202 22.3748 3.213V2.245C22.6828 2.278 23.1118 2.311 23.4748 2.311H28.9968C29.1618 2.311 29.3708 2.311 29.5798 2.256L30.2508 2.685Z" fill="black"/>
<path d="M40.1948 1.431C40.4698 1.816 40.8768 2.487 41.0968 2.938L40.5028 3.202C40.2828 2.751 39.9088 2.091 39.6118 1.673L40.1948 1.431ZM41.4048 0.990997C41.7018 1.387 42.1198 2.08 42.3288 2.487L41.7348 2.751C41.4928 2.267 41.1408 1.651 40.8218 1.233L41.4048 0.990997ZM34.1778 6.689C34.6508 5.556 35.1128 3.884 35.2558 2.608L36.2348 2.817C36.1688 3.059 36.0808 3.378 36.0368 3.609C35.8828 4.302 35.4978 5.93 35.0358 7.052C34.6288 8.064 34.0348 9.197 33.4188 10.077L32.4838 9.681C33.1768 8.768 33.7928 7.613 34.1778 6.689ZM39.5898 6.271C39.1498 5.138 38.4788 3.609 37.9948 2.795L38.8858 2.498C39.3258 3.29 40.0298 4.808 40.4918 5.974C40.9428 7.063 41.5258 8.746 41.8118 9.736L40.8328 10.055C40.5578 8.933 40.0518 7.448 39.5898 6.271Z" fill="#262626"/>
<path d="M40.1948 1.431C40.4698 1.816 40.8768 2.487 41.0968 2.938L40.5028 3.202C40.2828 2.751 39.9088 2.091 39.6118 1.673L40.1948 1.431ZM41.4048 0.990997C41.7018 1.387 42.1198 2.08 42.3288 2.487L41.7348 2.751C41.4928 2.267 41.1408 1.651 40.8218 1.233L41.4048 0.990997ZM34.1778 6.689C34.6508 5.556 35.1128 3.884 35.2558 2.608L36.2348 2.817C36.1688 3.059 36.0808 3.378 36.0368 3.609C35.8828 4.302 35.4978 5.93 35.0358 7.052C34.6288 8.064 34.0348 9.197 33.4188 10.077L32.4838 9.681C33.1768 8.768 33.7928 7.613 34.1778 6.689ZM39.5898 6.271C39.1498 5.138 38.4788 3.609 37.9948 2.795L38.8858 2.498C39.3258 3.29 40.0298 4.808 40.4918 5.974C40.9428 7.063 41.5258 8.746 41.8118 9.736L40.8328 10.055C40.5578 8.933 40.0518 7.448 39.5898 6.271Z" fill="black"/>
<path d="M48.5438 9.769C48.5878 9.593 48.6208 9.373 48.6208 9.153V2.564C48.6208 2.146 48.5658 1.827 48.5548 1.75H49.5668C49.5558 1.827 49.5228 2.146 49.5228 2.564V8.911C50.5348 8.449 51.8878 7.448 52.7348 6.205L53.2518 6.953C52.3058 8.24 50.7768 9.373 49.5008 10C49.3248 10.099 49.2038 10.187 49.1268 10.253L48.5438 9.769ZM43.5058 9.714C44.4298 9.054 45.0898 8.075 45.4198 7.008C45.7388 6.007 45.7498 3.807 45.7498 2.586C45.7498 2.256 45.7168 2.014 45.6728 1.783H46.6848C46.6738 1.915 46.6298 2.245 46.6298 2.575C46.6298 3.796 46.5858 6.15 46.2888 7.25C45.9588 8.427 45.2548 9.505 44.3308 10.275L43.5058 9.714Z" fill="#262626"/>
<path d="M48.5438 9.769C48.5878 9.593 48.6208 9.373 48.6208 9.153V2.564C48.6208 2.146 48.5658 1.827 48.5548 1.75H49.5668C49.5558 1.827 49.5228 2.146 49.5228 2.564V8.911C50.5348 8.449 51.8878 7.448 52.7348 6.205L53.2518 6.953C52.3058 8.24 50.7768 9.373 49.5008 10C49.3248 10.099 49.2038 10.187 49.1268 10.253L48.5438 9.769ZM43.5058 9.714C44.4298 9.054 45.0898 8.075 45.4198 7.008C45.7388 6.007 45.7498 3.807 45.7498 2.586C45.7498 2.256 45.7168 2.014 45.6728 1.783H46.6848C46.6738 1.915 46.6298 2.245 46.6298 2.575C46.6298 3.796 46.5858 6.15 46.2888 7.25C45.9588 8.427 45.2548 9.505 44.3308 10.275L43.5058 9.714Z" fill="black"/>
<path d="M55.457 2.454C55.82 2.498 56.304 2.52 56.656 2.52H62.079C62.343 2.52 62.673 2.509 62.893 2.498C62.882 2.751 62.86 3.092 62.86 3.356V9.032C62.86 9.428 62.893 9.923 62.904 10.099H61.914C61.925 9.978 61.925 9.747 61.936 9.483H56.557C56.106 9.483 55.611 9.505 55.314 9.527V8.526C55.6 8.559 56.073 8.592 56.535 8.592H61.936V3.4H56.667C56.26 3.4 55.71 3.422 55.457 3.433V2.454Z" fill="#262626"/>
<path d="M55.457 2.454C55.82 2.498 56.304 2.52 56.656 2.52H62.079C62.343 2.52 62.673 2.509 62.893 2.498C62.882 2.751 62.86 3.092 62.86 3.356V9.032C62.86 9.428 62.893 9.923 62.904 10.099H61.914C61.925 9.978 61.925 9.747 61.936 9.483H56.557C56.106 9.483 55.611 9.505 55.314 9.527V8.526C55.6 8.559 56.073 8.592 56.535 8.592H61.936V3.4H56.667C56.26 3.4 55.71 3.422 55.457 3.433V2.454Z" fill="black"/>
<path d="M66.523 2.839C66.875 2.861 67.249 2.883 67.612 2.883H72.32C72.716 2.883 73.101 2.872 73.409 2.839V3.829C73.101 3.807 72.683 3.796 72.32 3.796H67.612C67.227 3.796 66.864 3.818 66.523 3.829V2.839ZM65.577 8.284C65.951 8.306 66.336 8.339 66.732 8.339H73.321C73.651 8.339 74.003 8.317 74.322 8.284V9.34C73.992 9.307 73.618 9.285 73.321 9.285H66.732C66.336 9.285 65.951 9.318 65.577 9.34V8.284Z" fill="#262626"/>
<path d="M66.523 2.839C66.875 2.861 67.249 2.883 67.612 2.883H72.32C72.716 2.883 73.101 2.872 73.409 2.839V3.829C73.101 3.807 72.683 3.796 72.32 3.796H67.612C67.227 3.796 66.864 3.818 66.523 3.829V2.839ZM65.577 8.284C65.951 8.306 66.336 8.339 66.732 8.339H73.321C73.651 8.339 74.003 8.317 74.322 8.284V9.34C73.992 9.307 73.618 9.285 73.321 9.285H66.732C66.336 9.285 65.951 9.318 65.577 9.34V8.284Z" fill="black"/>
<path d="M76.687 5.237C77.017 5.259 77.6 5.292 78.216 5.292H84.244C84.794 5.292 85.19 5.259 85.432 5.237V6.315C85.212 6.304 84.75 6.26 84.255 6.26H78.216C77.611 6.26 77.028 6.282 76.687 6.315V5.237Z" fill="#262626"/>
<path d="M76.687 5.237C77.017 5.259 77.6 5.292 78.216 5.292H84.244C84.794 5.292 85.19 5.259 85.432 5.237V6.315C85.212 6.304 84.75 6.26 84.255 6.26H78.216C77.611 6.26 77.028 6.282 76.687 6.315V5.237Z" fill="black"/>
</svg>
