<svg width="75" height="11" viewBox="0 0 75 11" fill="none" xmlns="http://www.w3.org/2000/svg">
<path d="M2.22714 1.95899C2.54614 1.99199 2.87614 2.02499 3.22814 2.02499H7.03414C7.35314 2.02499 7.73814 2.00299 8.05714 1.95899V2.87199C7.73814 2.84999 7.35314 2.83899 7.03414 2.83899H3.23914C2.87614 2.83899 2.51314 2.84999 2.22714 2.87199V1.95899ZM0.929138 4.71999C1.22614 4.75299 1.53414 4.77499 1.87514 4.77499H9.08014C9.31114 4.77499 9.67414 4.76399 9.93814 4.71999V5.63299C9.69614 5.62199 9.34414 5.61099 9.08014 5.61099H6.08814C6.05514 6.79899 5.87914 7.79999 5.43914 8.62499C5.04314 9.35099 4.20714 10.143 3.27214 10.627L2.45814 10.022C3.31614 9.66999 4.10814 9.03199 4.53714 8.33899C5.02114 7.57999 5.14214 6.65599 5.17514 5.61099H1.87514C1.54514 5.61099 1.22614 5.61099 0.929138 5.63299V4.71999ZM8.62914 1.06799C8.90414 1.45299 9.31114 2.12399 9.53114 2.57499L8.93714 2.83899C8.71714 2.38799 8.34314 1.72799 8.04614 1.30999L8.62914 1.06799ZM9.83914 0.627991C10.1251 1.02399 10.5541 1.71699 10.7631 2.12399L10.1691 2.38799C9.92714 1.90399 9.57514 1.28799 9.25614 0.869991L9.83914 0.627991Z" fill="#262626"/>
<path d="M2.22714 1.95899C2.54614 1.99199 2.87614 2.02499 3.22814 2.02499H7.03414C7.35314 2.02499 7.73814 2.00299 8.05714 1.95899V2.87199C7.73814 2.84999 7.35314 2.83899 7.03414 2.83899H3.23914C2.87614 2.83899 2.51314 2.84999 2.22714 2.87199V1.95899ZM0.929138 4.71999C1.22614 4.75299 1.53414 4.77499 1.87514 4.77499H9.08014C9.31114 4.77499 9.67414 4.76399 9.93814 4.71999V5.63299C9.69614 5.62199 9.34414 5.61099 9.08014 5.61099H6.08814C6.05514 6.79899 5.87914 7.79999 5.43914 8.62499C5.04314 9.35099 4.20714 10.143 3.27214 10.627L2.45814 10.022C3.31614 9.66999 4.10814 9.03199 4.53714 8.33899C5.02114 7.57999 5.14214 6.65599 5.17514 5.61099H1.87514C1.54514 5.61099 1.22614 5.61099 0.929138 5.63299V4.71999ZM8.62914 1.06799C8.90414 1.45299 9.31114 2.12399 9.53114 2.57499L8.93714 2.83899C8.71714 2.38799 8.34314 1.72799 8.04614 1.30999L8.62914 1.06799ZM9.83914 0.627991C10.1251 1.02399 10.5541 1.71699 10.7631 2.12399L10.1691 2.38799C9.92714 1.90399 9.57514 1.28799 9.25614 0.869991L9.83914 0.627991Z" fill="black"/>
<path d="M11.5627 7.16199C13.0147 6.82099 14.6317 6.05099 15.5227 5.50099C16.5677 4.86299 17.5797 3.96099 18.1407 3.25699L18.8227 3.91699C18.2727 4.52199 17.3377 5.32499 16.3367 5.97399V9.88999C16.3367 10.231 16.3477 10.682 16.3917 10.858H15.3797C15.4017 10.682 15.4237 10.231 15.4237 9.88999V6.52399C14.4997 7.01899 13.2237 7.59099 11.9807 7.97599L11.5627 7.16199Z" fill="#262626"/>
<path d="M11.5627 7.16199C13.0147 6.82099 14.6317 6.05099 15.5227 5.50099C16.5677 4.86299 17.5797 3.96099 18.1407 3.25699L18.8227 3.91699C18.2727 4.52199 17.3377 5.32499 16.3367 5.97399V9.88999C16.3367 10.231 16.3477 10.682 16.3917 10.858H15.3797C15.4017 10.682 15.4237 10.231 15.4237 9.88999V6.52399C14.4997 7.01899 13.2237 7.59099 11.9807 7.97599L11.5627 7.16199Z" fill="black"/>
<path d="M30.0207 2.64099C29.9547 2.72899 29.8117 2.97099 29.7457 3.12499C29.3717 4.07099 28.6787 5.35799 27.8977 6.34799C29.0527 7.33799 30.3947 8.76799 31.1097 9.63699L30.3397 10.297C29.6027 9.32899 28.4367 8.03099 27.3147 7.02999C26.1377 8.29499 24.6527 9.50499 23.0247 10.242L22.3207 9.50499C24.0917 8.81199 25.7197 7.50299 26.8527 6.23799C27.6007 5.39099 28.4037 4.09299 28.6787 3.17999H24.3887C24.0037 3.17999 23.3987 3.22399 23.2777 3.23499V2.23399C23.4317 2.25599 24.0587 2.29999 24.3887 2.29999H28.6347C28.9977 2.29999 29.2837 2.26699 29.4597 2.21199L30.0207 2.64099Z" fill="#262626"/>
<path d="M30.0207 2.64099C29.9547 2.72899 29.8117 2.97099 29.7457 3.12499C29.3717 4.07099 28.6787 5.35799 27.8977 6.34799C29.0527 7.33799 30.3947 8.76799 31.1097 9.63699L30.3397 10.297C29.6027 9.32899 28.4367 8.03099 27.3147 7.02999C26.1377 8.29499 24.6527 9.50499 23.0247 10.242L22.3207 9.50499C24.0917 8.81199 25.7197 7.50299 26.8527 6.23799C27.6007 5.39099 28.4037 4.09299 28.6787 3.17999H24.3887C24.0037 3.17999 23.3987 3.22399 23.2777 3.23499V2.23399C23.4317 2.25599 24.0587 2.29999 24.3887 2.29999H28.6347C28.9977 2.29999 29.2837 2.26699 29.4597 2.21199L30.0207 2.64099Z" fill="black"/>
<path d="M40.5257 1.87099C40.5257 2.26699 40.8337 2.57499 41.2187 2.57499C41.6147 2.57499 41.9337 2.26699 41.9337 1.87099C41.9337 1.48599 41.6147 1.16699 41.2187 1.16699C40.8337 1.16699 40.5257 1.48599 40.5257 1.87099ZM40.0197 1.87099C40.0197 1.21099 40.5587 0.660991 41.2187 0.660991C41.8897 0.660991 42.4287 1.21099 42.4287 1.87099C42.4287 2.54199 41.8897 3.06999 41.2187 3.06999C40.5587 3.06999 40.0197 2.54199 40.0197 1.87099ZM38.1827 1.51899C38.1497 1.67299 38.1167 2.06899 38.1167 2.31099V3.43299H41.0207C41.2847 3.43299 41.6477 3.41099 41.9227 3.37799V4.29099C41.6257 4.26899 41.2957 4.26899 41.0317 4.26899H38.1167V9.59299C38.1167 10.176 37.8307 10.473 37.1707 10.473C36.7087 10.473 36.0487 10.44 35.6087 10.396L35.5317 9.51599C36.0047 9.60399 36.5107 9.64799 36.7967 9.64799C37.0937 9.64799 37.2257 9.51599 37.2257 9.22999V4.26899H34.1677C33.8377 4.26899 33.5297 4.27999 33.2327 4.30199V3.37799C33.5407 3.41099 33.8157 3.43299 34.1677 3.43299H37.2257V2.29999C37.2257 2.05799 37.1927 1.68399 37.1487 1.51899H38.1827ZM40.3607 5.59999C40.9437 6.30399 41.8237 7.67899 42.2637 8.47099L41.4497 8.92199C41.0207 8.06399 40.1957 6.68899 39.6127 5.99599L40.3607 5.59999ZM35.7627 5.96299C35.3007 6.90899 34.2667 8.30599 33.6507 8.97699L32.8917 8.47099C33.6177 7.78899 34.5637 6.47999 34.9927 5.58899L35.7627 5.96299Z" fill="#262626"/>
<path d="M40.5257 1.87099C40.5257 2.26699 40.8337 2.57499 41.2187 2.57499C41.6147 2.57499 41.9337 2.26699 41.9337 1.87099C41.9337 1.48599 41.6147 1.16699 41.2187 1.16699C40.8337 1.16699 40.5257 1.48599 40.5257 1.87099ZM40.0197 1.87099C40.0197 1.21099 40.5587 0.660991 41.2187 0.660991C41.8897 0.660991 42.4287 1.21099 42.4287 1.87099C42.4287 2.54199 41.8897 3.06999 41.2187 3.06999C40.5587 3.06999 40.0197 2.54199 40.0197 1.87099ZM38.1827 1.51899C38.1497 1.67299 38.1167 2.06899 38.1167 2.31099V3.43299H41.0207C41.2847 3.43299 41.6477 3.41099 41.9227 3.37799V4.29099C41.6257 4.26899 41.2957 4.26899 41.0317 4.26899H38.1167V9.59299C38.1167 10.176 37.8307 10.473 37.1707 10.473C36.7087 10.473 36.0487 10.44 35.6087 10.396L35.5317 9.51599C36.0047 9.60399 36.5107 9.64799 36.7967 9.64799C37.0937 9.64799 37.2257 9.51599 37.2257 9.22999V4.26899H34.1677C33.8377 4.26899 33.5297 4.27999 33.2327 4.30199V3.37799C33.5407 3.41099 33.8157 3.43299 34.1677 3.43299H37.2257V2.29999C37.2257 2.05799 37.1927 1.68399 37.1487 1.51899H38.1827ZM40.3607 5.59999C40.9437 6.30399 41.8237 7.67899 42.2637 8.47099L41.4497 8.92199C41.0207 8.06399 40.1957 6.68899 39.6127 5.99599L40.3607 5.59999ZM35.7627 5.96299C35.3007 6.90899 34.2667 8.30599 33.6507 8.97699L32.8917 8.47099C33.6177 7.78899 34.5637 6.47999 34.9927 5.58899L35.7627 5.96299Z" fill="black"/>
<path d="M44.3427 5.23699C44.6727 5.25899 45.2557 5.29199 45.8717 5.29199H51.8997C52.4497 5.29199 52.8457 5.25899 53.0877 5.23699V6.31499C52.8677 6.30399 52.4057 6.25999 51.9107 6.25999H45.8717C45.2667 6.25999 44.6837 6.28199 44.3427 6.31499V5.23699Z" fill="#262626"/>
<path d="M44.3427 5.23699C44.6727 5.25899 45.2557 5.29199 45.8717 5.29199H51.8997C52.4497 5.29199 52.8457 5.25899 53.0877 5.23699V6.31499C52.8677 6.30399 52.4057 6.25999 51.9107 6.25999H45.8717C45.2667 6.25999 44.6837 6.28199 44.3427 6.31499V5.23699Z" fill="black"/>
<path d="M62.7729 1.60699C62.9709 2.00299 63.2679 2.68499 63.4109 3.13599L62.8719 3.32299C62.7069 2.84999 62.4539 2.18999 62.2449 1.77199L62.7729 1.60699ZM63.8619 1.27699C64.0709 1.67299 64.3679 2.34399 64.5219 2.79499L63.9829 2.97099C63.8069 2.48699 63.5539 1.84899 63.3339 1.44199L63.8619 1.27699ZM61.7279 5.13799C61.7279 8.06399 61.0899 9.58199 58.5819 10.704L57.8449 9.99999C59.8469 9.24099 60.8369 8.29499 60.8369 5.21499V4.75299H57.7129V6.53499C57.7129 6.94199 57.7459 7.42599 57.7569 7.52499H56.7779C56.7889 7.42599 56.8329 6.95299 56.8329 6.53499V4.75299H55.6449C55.1609 4.75299 54.6659 4.78599 54.5449 4.79699V3.83999C54.6439 3.86199 55.1829 3.91699 55.6449 3.91699H56.8329V2.50899C56.8329 2.26699 56.8109 1.95899 56.7779 1.70599H57.7569C57.7459 1.80499 57.7129 2.12399 57.7129 2.49799V3.91699H60.8369V2.54199C60.8369 2.10199 60.8039 1.73899 60.7929 1.63999H61.7829C61.7719 1.74999 61.7279 2.10199 61.7279 2.54199V3.91699H62.9269C63.4219 3.91699 63.7849 3.88399 63.9389 3.85099V4.78599C63.8179 4.77499 63.4219 4.75299 62.9379 4.75299H61.7279V5.13799Z" fill="#262626"/>
<path d="M62.7729 1.60699C62.9709 2.00299 63.2679 2.68499 63.4109 3.13599L62.8719 3.32299C62.7069 2.84999 62.4539 2.18999 62.2449 1.77199L62.7729 1.60699ZM63.8619 1.27699C64.0709 1.67299 64.3679 2.34399 64.5219 2.79499L63.9829 2.97099C63.8069 2.48699 63.5539 1.84899 63.3339 1.44199L63.8619 1.27699ZM61.7279 5.13799C61.7279 8.06399 61.0899 9.58199 58.5819 10.704L57.8449 9.99999C59.8469 9.24099 60.8369 8.29499 60.8369 5.21499V4.75299H57.7129V6.53499C57.7129 6.94199 57.7459 7.42599 57.7569 7.52499H56.7779C56.7889 7.42599 56.8329 6.95299 56.8329 6.53499V4.75299H55.6449C55.1609 4.75299 54.6659 4.78599 54.5449 4.79699V3.83999C54.6439 3.86199 55.1829 3.91699 55.6449 3.91699H56.8329V2.50899C56.8329 2.26699 56.8109 1.95899 56.7779 1.70599H57.7569C57.7459 1.80499 57.7129 2.12399 57.7129 2.49799V3.91699H60.8369V2.54199C60.8369 2.10199 60.8039 1.73899 60.7929 1.63999H61.7829C61.7719 1.74999 61.7279 2.10199 61.7279 2.54199V3.91699H62.9269C63.4219 3.91699 63.7849 3.88399 63.9389 3.85099V4.78599C63.8179 4.77499 63.4219 4.75299 62.9379 4.75299H61.7279V5.13799Z" fill="black"/>
<path d="M66.1279 5.23699C66.4579 5.25899 67.0409 5.29199 67.6569 5.29199H73.6849C74.2349 5.29199 74.6309 5.25899 74.8729 5.23699V6.31499C74.6529 6.30399 74.1909 6.25999 73.6959 6.25999H67.6569C67.0519 6.25999 66.4689 6.28199 66.1279 6.31499V5.23699Z" fill="#262626"/>
<path d="M66.1279 5.23699C66.4579 5.25899 67.0409 5.29199 67.6569 5.29199H73.6849C74.2349 5.29199 74.6309 5.25899 74.8729 5.23699V6.31499C74.6529 6.30399 74.1909 6.25999 73.6959 6.25999H67.6569C67.0519 6.25999 66.4689 6.28199 66.1279 6.31499V5.23699Z" fill="black"/>
</svg>
