<svg width="32" height="10" viewBox="0 0 32 10" fill="none" xmlns="http://www.w3.org/2000/svg">
<path d="M1.97241 0.859993C2.28041 0.892993 2.61041 0.925993 2.96241 0.925993H7.41741C7.72541 0.925993 8.12141 0.903992 8.44041 0.859993V1.77299C8.12141 1.75099 7.73641 1.73999 7.41741 1.73999H2.97341C2.61041 1.73999 2.24741 1.75099 1.97241 1.77299V0.859993ZM0.652405 3.62099C0.960405 3.65399 1.26841 3.67599 1.60941 3.67599H8.81441C9.04541 3.67599 9.40841 3.66499 9.67241 3.62099V4.53399C9.43041 4.52299 9.07841 4.51199 8.81441 4.51199H5.82241C5.78941 5.69999 5.61341 6.70099 5.17341 7.51499C4.77741 8.25199 3.94141 9.04399 3.00641 9.52799L2.19241 8.92299C3.05041 8.57099 3.84241 7.93299 4.27141 7.23999C4.75541 6.46999 4.87641 5.54599 4.90941 4.51199H1.60941C1.27941 4.51199 0.960405 4.51199 0.652405 4.53399V3.62099Z" fill="#262626"/>
<path d="M1.97241 0.859993C2.28041 0.892993 2.61041 0.925993 2.96241 0.925993H7.41741C7.72541 0.925993 8.12141 0.903992 8.44041 0.859993V1.77299C8.12141 1.75099 7.73641 1.73999 7.41741 1.73999H2.97341C2.61041 1.73999 2.24741 1.75099 1.97241 1.77299V0.859993ZM0.652405 3.62099C0.960405 3.65399 1.26841 3.67599 1.60941 3.67599H8.81441C9.04541 3.67599 9.40841 3.66499 9.67241 3.62099V4.53399C9.43041 4.52299 9.07841 4.51199 8.81441 4.51199H5.82241C5.78941 5.69999 5.61341 6.70099 5.17341 7.51499C4.77741 8.25199 3.94141 9.04399 3.00641 9.52799L2.19241 8.92299C3.05041 8.57099 3.84241 7.93299 4.27141 7.23999C4.75541 6.46999 4.87641 5.54599 4.90941 4.51199H1.60941C1.27941 4.51199 0.960405 4.51199 0.652405 4.53399V3.62099Z" fill="black"/>
<path d="M13.1484 0.804993C13.4344 0.848993 13.7864 0.859993 14.1384 0.859993H18.4614C18.8134 0.859993 19.1984 0.848993 19.4624 0.804993V1.71799C19.1984 1.69599 18.8244 1.68499 18.4504 1.68499H14.1384C13.7974 1.68499 13.4454 1.69599 13.1484 1.71799V0.804993ZM20.2654 3.70899C20.2104 3.80799 20.1444 3.95099 20.1224 4.02799C19.8254 5.11699 19.3304 6.26099 18.5164 7.15199C17.3614 8.41699 15.9864 9.06599 14.5784 9.45099L13.8964 8.66999C15.4584 8.35099 16.8334 7.64699 17.7684 6.65699C18.4394 5.95299 18.8794 5.01799 19.0774 4.22599H13.2364C12.9724 4.22599 12.5544 4.23699 12.1584 4.25899V3.33499C12.5654 3.37899 12.9394 3.40099 13.2364 3.40099H19.0334C19.2864 3.40099 19.5174 3.37899 19.6384 3.31299L20.2654 3.70899Z" fill="#262626"/>
<path d="M13.1484 0.804993C13.4344 0.848993 13.7864 0.859993 14.1384 0.859993H18.4614C18.8134 0.859993 19.1984 0.848993 19.4624 0.804993V1.71799C19.1984 1.69599 18.8244 1.68499 18.4504 1.68499H14.1384C13.7974 1.68499 13.4454 1.69599 13.1484 1.71799V0.804993ZM20.2654 3.70899C20.2104 3.80799 20.1444 3.95099 20.1224 4.02799C19.8254 5.11699 19.3304 6.26099 18.5164 7.15199C17.3614 8.41699 15.9864 9.06599 14.5784 9.45099L13.8964 8.66999C15.4584 8.35099 16.8334 7.64699 17.7684 6.65699C18.4394 5.95299 18.8794 5.01799 19.0774 4.22599H13.2364C12.9724 4.22599 12.5544 4.23699 12.1584 4.25899V3.33499C12.5654 3.37899 12.9394 3.40099 13.2364 3.40099H19.0334C19.2864 3.40099 19.5174 3.37899 19.6384 3.31299L20.2654 3.70899Z" fill="black"/>
<path d="M30.1926 1.64099C30.1266 1.72899 29.9836 1.97099 29.9176 2.12499C29.5436 3.07099 28.8506 4.35799 28.0696 5.34799C29.2246 6.33799 30.5666 7.76799 31.2816 8.63699L30.5116 9.29699C29.7746 8.32899 28.6086 7.03099 27.4866 6.02999C26.3096 7.29499 24.8246 8.50499 23.1966 9.24199L22.4926 8.50499C24.2636 7.81199 25.8916 6.50299 27.0246 5.23799C27.7726 4.39099 28.5756 3.09299 28.8506 2.17999H24.5606C24.1756 2.17999 23.5706 2.22399 23.4496 2.23499V1.23399C23.6036 1.25599 24.2306 1.29999 24.5606 1.29999H28.8066C29.1696 1.29999 29.4556 1.26699 29.6316 1.21199L30.1926 1.64099Z" fill="#262626"/>
<path d="M30.1926 1.64099C30.1266 1.72899 29.9836 1.97099 29.9176 2.12499C29.5436 3.07099 28.8506 4.35799 28.0696 5.34799C29.2246 6.33799 30.5666 7.76799 31.2816 8.63699L30.5116 9.29699C29.7746 8.32899 28.6086 7.03099 27.4866 6.02999C26.3096 7.29499 24.8246 8.50499 23.1966 9.24199L22.4926 8.50499C24.2636 7.81199 25.8916 6.50299 27.0246 5.23799C27.7726 4.39099 28.5756 3.09299 28.8506 2.17999H24.5606C24.1756 2.17999 23.5706 2.22399 23.4496 2.23499V1.23399C23.6036 1.25599 24.2306 1.29999 24.5606 1.29999H28.8066C29.1696 1.29999 29.4556 1.26699 29.6316 1.21199L30.1926 1.64099Z" fill="black"/>
</svg>
