<svg width="66" height="24" viewBox="0 0 66 24" fill="none" xmlns="http://www.w3.org/2000/svg">
<path d="M8.5224 1.431C8.7974 1.816 9.2044 2.487 9.4244 2.938L8.8304 3.202C8.6104 2.751 8.2364 2.091 7.9394 1.673L8.5224 1.431ZM9.7324 0.990997C10.0294 1.387 10.4474 2.08 10.6564 2.487L10.0624 2.751C9.8204 2.267 9.4684 1.651 9.1494 1.233L9.7324 0.990997ZM2.5054 6.689C2.9784 5.556 3.4404 3.884 3.5834 2.608L4.5624 2.817C4.4964 3.059 4.4084 3.378 4.3644 3.609C4.2104 4.302 3.8254 5.93 3.3634 7.052C2.9564 8.064 2.3624 9.197 1.7464 10.077L0.811401 9.681C1.5044 8.768 2.1204 7.613 2.5054 6.689ZM7.9174 6.271C7.4774 5.138 6.8064 3.609 6.3224 2.795L7.2134 2.498C7.6534 3.29 8.3574 4.808 8.8194 5.974C9.2704 7.063 9.8534 8.746 10.1394 9.736L9.1604 10.055C8.8854 8.933 8.3794 7.448 7.9174 6.271Z" fill="#262626"/>
<path d="M8.5224 1.431C8.7974 1.816 9.2044 2.487 9.4244 2.938L8.8304 3.202C8.6104 2.751 8.2364 2.091 7.9394 1.673L8.5224 1.431ZM9.7324 0.990997C10.0294 1.387 10.4474 2.08 10.6564 2.487L10.0624 2.751C9.8204 2.267 9.4684 1.651 9.1494 1.233L9.7324 0.990997ZM2.5054 6.689C2.9784 5.556 3.4404 3.884 3.5834 2.608L4.5624 2.817C4.4964 3.059 4.4084 3.378 4.3644 3.609C4.2104 4.302 3.8254 5.93 3.3634 7.052C2.9564 8.064 2.3624 9.197 1.7464 10.077L0.811401 9.681C1.5044 8.768 2.1204 7.613 2.5054 6.689ZM7.9174 6.271C7.4774 5.138 6.8064 3.609 6.3224 2.795L7.2134 2.498C7.6534 3.29 8.3574 4.808 8.8194 5.974C9.2704 7.063 9.8534 8.746 10.1394 9.736L9.1604 10.055C8.8854 8.933 8.3794 7.448 7.9174 6.271Z" fill="black"/>
<path d="M12.0534 6.029C13.9564 5.512 15.6394 4.742 16.8604 3.972C18.0044 3.257 19.1044 2.3 19.8634 1.387L20.6004 2.069C19.7644 2.938 18.7524 3.774 17.6304 4.522V9.164C17.6304 9.582 17.6524 10.121 17.6964 10.341H16.6184C16.6514 10.132 16.6844 9.582 16.6844 9.164V5.094C15.5294 5.754 14.0224 6.414 12.4934 6.887L12.0534 6.029Z" fill="#262626"/>
<path d="M12.0534 6.029C13.9564 5.512 15.6394 4.742 16.8604 3.972C18.0044 3.257 19.1044 2.3 19.8634 1.387L20.6004 2.069C19.7644 2.938 18.7524 3.774 17.6304 4.522V9.164C17.6304 9.582 17.6524 10.121 17.6964 10.341H16.6184C16.6514 10.132 16.6844 9.582 16.6844 9.164V5.094C15.5294 5.754 14.0224 6.414 12.4934 6.887L12.0534 6.029Z" fill="black"/>
<path d="M27.7996 1.453C27.6126 1.739 27.4146 2.113 27.3156 2.322C27.2386 2.476 27.1506 2.63 27.0516 2.784H30.0326C30.3296 2.784 30.5716 2.751 30.7476 2.674L31.4846 3.125C31.3966 3.279 31.2866 3.532 31.2316 3.708C30.9346 4.819 30.2526 6.304 29.2736 7.492C28.2726 8.713 26.9636 9.725 24.8956 10.484L24.1036 9.769C26.1166 9.175 27.4916 8.174 28.4926 7.008C29.3506 5.996 30.0216 4.577 30.2526 3.576H26.5346C25.8636 4.5 24.9396 5.479 23.7406 6.282L22.9816 5.71C24.8736 4.577 25.9626 2.982 26.4356 1.992C26.5456 1.805 26.7106 1.409 26.7766 1.123L27.7996 1.453Z" fill="#262626"/>
<path d="M27.7996 1.453C27.6126 1.739 27.4146 2.113 27.3156 2.322C27.2386 2.476 27.1506 2.63 27.0516 2.784H30.0326C30.3296 2.784 30.5716 2.751 30.7476 2.674L31.4846 3.125C31.3966 3.279 31.2866 3.532 31.2316 3.708C30.9346 4.819 30.2526 6.304 29.2736 7.492C28.2726 8.713 26.9636 9.725 24.8956 10.484L24.1036 9.769C26.1166 9.175 27.4916 8.174 28.4926 7.008C29.3506 5.996 30.0216 4.577 30.2526 3.576H26.5346C25.8636 4.5 24.9396 5.479 23.7406 6.282L22.9816 5.71C24.8736 4.577 25.9626 2.982 26.4356 1.992C26.5456 1.805 26.7106 1.409 26.7766 1.123L27.7996 1.453Z" fill="black"/>
<path d="M37.4686 1.849V2.828H39.2616V1.849H37.4686ZM36.7096 2.828V1.849H34.9606V2.828H36.7096ZM40.0206 1.849V2.828H41.8686V1.849H40.0206ZM41.4286 6.414V5.82H36.9736V6.414H41.4286ZM41.4286 7.503V6.898H36.9736V7.503H41.4286ZM41.4286 8.614V7.998H36.9736V8.614H41.4286ZM36.2146 5.314H37.8536C37.8866 5.116 37.9306 4.896 37.9636 4.676H33.6846V4.027H38.0626C38.0846 3.829 38.1066 3.62 38.1286 3.433H34.1906V1.255H42.6716V3.433H38.9536C38.9206 3.62 38.8986 3.829 38.8656 4.027H43.1226V4.676H38.7556C38.7226 4.907 38.6786 5.116 38.6456 5.314H42.2096V9.109H36.2146V5.314ZM43.3976 9.725V10.385H35.1036V10.847H34.2896V5.479H35.1036V9.725H43.3976Z" fill="#262626"/>
<path d="M37.4686 1.849V2.828H39.2616V1.849H37.4686ZM36.7096 2.828V1.849H34.9606V2.828H36.7096ZM40.0206 1.849V2.828H41.8686V1.849H40.0206ZM41.4286 6.414V5.82H36.9736V6.414H41.4286ZM41.4286 7.503V6.898H36.9736V7.503H41.4286ZM41.4286 8.614V7.998H36.9736V8.614H41.4286ZM36.2146 5.314H37.8536C37.8866 5.116 37.9306 4.896 37.9636 4.676H33.6846V4.027H38.0626C38.0846 3.829 38.1066 3.62 38.1286 3.433H34.1906V1.255H42.6716V3.433H38.9536C38.9206 3.62 38.8986 3.829 38.8656 4.027H43.1226V4.676H38.7556C38.7226 4.907 38.6786 5.116 38.6456 5.314H42.2096V9.109H36.2146V5.314ZM43.3976 9.725V10.385H35.1036V10.847H34.2896V5.479H35.1036V9.725H43.3976Z" fill="black"/>
<path d="M49.4146 2.322C49.3266 1.992 49.2166 1.651 49.1066 1.343L50.0416 1.222C50.0856 1.64 50.1846 2.091 50.3056 2.531C51.0866 2.432 51.8566 2.267 52.5606 2.036L52.6816 2.828C52.0546 3.004 51.2736 3.169 50.5146 3.268C50.5916 3.543 50.6796 3.796 50.7566 4.027C50.8336 4.236 50.9216 4.467 51.0096 4.687C51.9226 4.577 52.6926 4.379 53.2096 4.214L53.3416 5.039C52.8136 5.182 52.1206 5.325 51.3506 5.435C51.5816 5.908 51.8346 6.381 52.1206 6.799C52.2416 6.975 52.3736 7.118 52.5276 7.272L52.0766 7.943C51.4606 7.778 50.4266 7.679 49.6676 7.591L49.7446 6.92C50.3276 6.986 51.0426 7.063 51.3946 7.107C51.0646 6.601 50.7786 6.062 50.5366 5.523C49.1946 5.644 47.3906 5.666 45.6966 5.545L45.6526 4.72C47.3026 4.896 48.9746 4.885 50.2176 4.775C50.1406 4.577 50.0636 4.39 49.9976 4.203C49.8876 3.895 49.7886 3.609 49.7006 3.345C48.6336 3.411 47.2916 3.389 45.9166 3.268L45.8616 2.465C47.1816 2.619 48.4356 2.652 49.4916 2.597C49.4586 2.509 49.4366 2.41 49.4146 2.322ZM47.2476 7.085C46.9836 7.47 46.7856 7.844 46.7856 8.328C46.7856 9.241 47.5996 9.692 49.3266 9.692C50.3496 9.692 51.1526 9.626 51.9446 9.461L51.9116 10.341C51.1416 10.462 50.2726 10.528 49.3376 10.528C47.1816 10.528 45.9716 9.89 45.9606 8.482C45.9496 7.855 46.1476 7.393 46.3896 6.909L47.2476 7.085Z" fill="#262626"/>
<path d="M49.4146 2.322C49.3266 1.992 49.2166 1.651 49.1066 1.343L50.0416 1.222C50.0856 1.64 50.1846 2.091 50.3056 2.531C51.0866 2.432 51.8566 2.267 52.5606 2.036L52.6816 2.828C52.0546 3.004 51.2736 3.169 50.5146 3.268C50.5916 3.543 50.6796 3.796 50.7566 4.027C50.8336 4.236 50.9216 4.467 51.0096 4.687C51.9226 4.577 52.6926 4.379 53.2096 4.214L53.3416 5.039C52.8136 5.182 52.1206 5.325 51.3506 5.435C51.5816 5.908 51.8346 6.381 52.1206 6.799C52.2416 6.975 52.3736 7.118 52.5276 7.272L52.0766 7.943C51.4606 7.778 50.4266 7.679 49.6676 7.591L49.7446 6.92C50.3276 6.986 51.0426 7.063 51.3946 7.107C51.0646 6.601 50.7786 6.062 50.5366 5.523C49.1946 5.644 47.3906 5.666 45.6966 5.545L45.6526 4.72C47.3026 4.896 48.9746 4.885 50.2176 4.775C50.1406 4.577 50.0636 4.39 49.9976 4.203C49.8876 3.895 49.7886 3.609 49.7006 3.345C48.6336 3.411 47.2916 3.389 45.9166 3.268L45.8616 2.465C47.1816 2.619 48.4356 2.652 49.4916 2.597C49.4586 2.509 49.4366 2.41 49.4146 2.322ZM47.2476 7.085C46.9836 7.47 46.7856 7.844 46.7856 8.328C46.7856 9.241 47.5996 9.692 49.3266 9.692C50.3496 9.692 51.1526 9.626 51.9446 9.461L51.9116 10.341C51.1416 10.462 50.2726 10.528 49.3376 10.528C47.1816 10.528 45.9716 9.89 45.9606 8.482C45.9496 7.855 46.1476 7.393 46.3896 6.909L47.2476 7.085Z" fill="black"/>
<path d="M63.8796 2.608V1.739H60.3596V2.608H63.8796ZM63.8796 4.06V3.18H60.3596V4.06H63.8796ZM64.6386 1.123V4.676H59.6116V1.123H64.6386ZM58.6766 6.524L58.8526 7.25C57.7416 7.811 56.5426 8.394 55.6186 8.834L55.2996 8.031C55.7176 7.855 56.2346 7.635 56.7956 7.382V3.939H55.5086V3.169H56.7956V0.880997H57.5546V3.169H58.7426V3.939H57.5546V7.03L58.6766 6.524ZM65.4196 5.985H60.8986C60.7556 6.249 60.6016 6.513 60.4256 6.755H65.1556C65.1556 6.755 65.1446 6.975 65.1226 7.085C64.9576 9.351 64.7816 10.209 64.4736 10.528C64.3086 10.715 64.1106 10.77 63.8576 10.803C63.6156 10.814 63.2086 10.814 62.7686 10.792C62.7686 10.594 62.6916 10.297 62.5816 10.132C62.9886 10.165 63.3516 10.176 63.5166 10.176C63.6706 10.176 63.7696 10.165 63.8466 10.055C64.0336 9.857 64.1986 9.164 64.3416 7.437H63.4836C63.0436 8.746 62.1856 10.165 61.2396 10.88C61.1076 10.715 60.8546 10.528 60.6566 10.407C61.5476 9.813 62.3506 8.625 62.8016 7.437H61.7346C61.1516 8.57 60.0736 9.769 59.0616 10.407C58.9406 10.231 58.7206 10.033 58.5226 9.901C59.4356 9.406 60.4036 8.416 60.9976 7.437H59.8866C59.4466 7.932 58.9516 8.361 58.4566 8.691C58.3466 8.559 58.0606 8.295 57.8956 8.185C58.7646 7.668 59.5566 6.887 60.0736 5.985H58.5336V5.292H65.4196V5.985Z" fill="#262626"/>
<path d="M63.8796 2.608V1.739H60.3596V2.608H63.8796ZM63.8796 4.06V3.18H60.3596V4.06H63.8796ZM64.6386 1.123V4.676H59.6116V1.123H64.6386ZM58.6766 6.524L58.8526 7.25C57.7416 7.811 56.5426 8.394 55.6186 8.834L55.2996 8.031C55.7176 7.855 56.2346 7.635 56.7956 7.382V3.939H55.5086V3.169H56.7956V0.880997H57.5546V3.169H58.7426V3.939H57.5546V7.03L58.6766 6.524ZM65.4196 5.985H60.8986C60.7556 6.249 60.6016 6.513 60.4256 6.755H65.1556C65.1556 6.755 65.1446 6.975 65.1226 7.085C64.9576 9.351 64.7816 10.209 64.4736 10.528C64.3086 10.715 64.1106 10.77 63.8576 10.803C63.6156 10.814 63.2086 10.814 62.7686 10.792C62.7686 10.594 62.6916 10.297 62.5816 10.132C62.9886 10.165 63.3516 10.176 63.5166 10.176C63.6706 10.176 63.7696 10.165 63.8466 10.055C64.0336 9.857 64.1986 9.164 64.3416 7.437H63.4836C63.0436 8.746 62.1856 10.165 61.2396 10.88C61.1076 10.715 60.8546 10.528 60.6566 10.407C61.5476 9.813 62.3506 8.625 62.8016 7.437H61.7346C61.1516 8.57 60.0736 9.769 59.0616 10.407C58.9406 10.231 58.7206 10.033 58.5226 9.901C59.4356 9.406 60.4036 8.416 60.9976 7.437H59.8866C59.4466 7.932 58.9516 8.361 58.4566 8.691C58.3466 8.559 58.0606 8.295 57.8956 8.185C58.7646 7.668 59.5566 6.887 60.0736 5.985H58.5336V5.292H65.4196V5.985Z" fill="black"/>
<path d="M12.255 19.58C12.255 17.825 12.966 16.394 14.046 15.296L14.586 15.575C13.551 16.646 12.912 17.978 12.912 19.58C12.912 21.182 13.551 22.514 14.586 23.585L14.046 23.864C12.966 22.766 12.255 21.335 12.255 19.58Z" fill="#262626"/>
<path d="M12.255 19.58C12.255 17.825 12.966 16.394 14.046 15.296L14.586 15.575C13.551 16.646 12.912 17.978 12.912 19.58C12.912 21.182 13.551 22.514 14.586 23.585L14.046 23.864C12.966 22.766 12.255 21.335 12.255 19.58Z" fill="black"/>
<path d="M20.139 17.006H18.825C18.645 18.599 18.114 19.526 15.999 20.003C15.936 19.841 15.765 19.58 15.63 19.445C17.556 19.067 17.979 18.32 18.132 17.006H16.395V18.203H15.738V16.403H19.14V15.467H19.815V16.403H23.289V18.005H22.614V17.006H20.796V18.788C20.796 19.013 20.85 19.049 21.183 19.049H22.335C22.596 19.049 22.65 18.95 22.677 18.32C22.803 18.419 23.082 18.518 23.253 18.563C23.19 19.409 23.001 19.625 22.398 19.625H21.111C20.328 19.625 20.139 19.454 20.139 18.788V17.006ZM19.815 22.802H23.433V23.414H15.567V22.802H19.14V20.993H16.503V20.39H22.659V20.993H19.815V22.802Z" fill="#262626"/>
<path d="M20.139 17.006H18.825C18.645 18.599 18.114 19.526 15.999 20.003C15.936 19.841 15.765 19.58 15.63 19.445C17.556 19.067 17.979 18.32 18.132 17.006H16.395V18.203H15.738V16.403H19.14V15.467H19.815V16.403H23.289V18.005H22.614V17.006H20.796V18.788C20.796 19.013 20.85 19.049 21.183 19.049H22.335C22.596 19.049 22.65 18.95 22.677 18.32C22.803 18.419 23.082 18.518 23.253 18.563C23.19 19.409 23.001 19.625 22.398 19.625H21.111C20.328 19.625 20.139 19.454 20.139 18.788V17.006ZM19.815 22.802H23.433V23.414H15.567V22.802H19.14V20.993H16.503V20.39H22.659V20.993H19.815V22.802Z" fill="black"/>
<path d="M28.518 16.718C28.446 16.448 28.356 16.169 28.266 15.917L29.031 15.818C29.067 16.16 29.148 16.529 29.247 16.889C29.886 16.808 30.516 16.673 31.092 16.484L31.191 17.132C30.678 17.276 30.039 17.411 29.418 17.492C29.481 17.717 29.553 17.924 29.616 18.113C29.679 18.284 29.751 18.473 29.823 18.653C30.57 18.563 31.2 18.401 31.623 18.266L31.731 18.941C31.299 19.058 30.732 19.175 30.102 19.265C30.291 19.652 30.498 20.039 30.732 20.381C30.831 20.525 30.939 20.642 31.065 20.768L30.696 21.317C30.192 21.182 29.346 21.101 28.725 21.029L28.788 20.48C29.265 20.534 29.85 20.597 30.138 20.633C29.868 20.219 29.634 19.778 29.436 19.337C28.338 19.436 26.862 19.454 25.476 19.355L25.44 18.68C26.79 18.824 28.158 18.815 29.175 18.725C29.112 18.563 29.049 18.41 28.995 18.257C28.905 18.005 28.824 17.771 28.752 17.555C27.879 17.609 26.781 17.591 25.656 17.492L25.611 16.835C26.691 16.961 27.717 16.988 28.581 16.943C28.554 16.871 28.536 16.79 28.518 16.718ZM26.745 20.615C26.529 20.93 26.367 21.236 26.367 21.632C26.367 22.379 27.033 22.748 28.446 22.748C29.283 22.748 29.94 22.694 30.588 22.559L30.561 23.279C29.931 23.378 29.22 23.432 28.455 23.432C26.691 23.432 25.701 22.91 25.692 21.758C25.683 21.245 25.845 20.867 26.043 20.471L26.745 20.615Z" fill="#262626"/>
<path d="M28.518 16.718C28.446 16.448 28.356 16.169 28.266 15.917L29.031 15.818C29.067 16.16 29.148 16.529 29.247 16.889C29.886 16.808 30.516 16.673 31.092 16.484L31.191 17.132C30.678 17.276 30.039 17.411 29.418 17.492C29.481 17.717 29.553 17.924 29.616 18.113C29.679 18.284 29.751 18.473 29.823 18.653C30.57 18.563 31.2 18.401 31.623 18.266L31.731 18.941C31.299 19.058 30.732 19.175 30.102 19.265C30.291 19.652 30.498 20.039 30.732 20.381C30.831 20.525 30.939 20.642 31.065 20.768L30.696 21.317C30.192 21.182 29.346 21.101 28.725 21.029L28.788 20.48C29.265 20.534 29.85 20.597 30.138 20.633C29.868 20.219 29.634 19.778 29.436 19.337C28.338 19.436 26.862 19.454 25.476 19.355L25.44 18.68C26.79 18.824 28.158 18.815 29.175 18.725C29.112 18.563 29.049 18.41 28.995 18.257C28.905 18.005 28.824 17.771 28.752 17.555C27.879 17.609 26.781 17.591 25.656 17.492L25.611 16.835C26.691 16.961 27.717 16.988 28.581 16.943C28.554 16.871 28.536 16.79 28.518 16.718ZM26.745 20.615C26.529 20.93 26.367 21.236 26.367 21.632C26.367 22.379 27.033 22.748 28.446 22.748C29.283 22.748 29.94 22.694 30.588 22.559L30.561 23.279C29.931 23.378 29.22 23.432 28.455 23.432C26.691 23.432 25.701 22.91 25.692 21.758C25.683 21.245 25.845 20.867 26.043 20.471L26.745 20.615Z" fill="black"/>
<path d="M37.248 15.872C37.203 15.989 37.167 16.151 37.14 16.277C37.104 16.466 37.068 16.7 37.032 16.961C38.175 16.907 39.273 16.79 40.191 16.574L40.2 17.24C39.255 17.402 38.058 17.528 36.96 17.582C36.915 17.933 36.888 18.311 36.861 18.689C37.365 18.545 37.914 18.464 38.373 18.464C38.49 18.464 38.598 18.464 38.706 18.473C38.715 18.446 38.724 18.419 38.733 18.383C38.778 18.248 38.823 18.014 38.832 17.861L39.543 18.041C39.489 18.167 39.408 18.41 39.363 18.554C39.363 18.563 39.354 18.572 39.354 18.59C40.479 18.887 41.145 19.715 41.145 20.705C41.145 22.001 40.29 23.117 38.202 23.45L37.815 22.847C39.444 22.676 40.452 21.839 40.452 20.669C40.452 19.985 39.993 19.373 39.156 19.13C38.643 20.408 37.914 21.407 37.149 22.055C37.221 22.316 37.293 22.559 37.365 22.784L36.717 22.982C36.663 22.829 36.618 22.658 36.573 22.478C36.078 22.775 35.538 22.973 35.043 22.973C34.449 22.973 33.981 22.604 33.981 21.839C33.981 20.678 34.989 19.499 36.231 18.923C36.249 18.473 36.294 18.023 36.33 17.6C36.141 17.609 35.961 17.609 35.781 17.609C35.394 17.609 34.692 17.573 34.323 17.546L34.305 16.871C34.62 16.925 35.403 16.988 35.79 16.988C35.997 16.988 36.195 16.988 36.402 16.979C36.429 16.718 36.456 16.484 36.474 16.286C36.483 16.124 36.501 15.962 36.492 15.854L37.248 15.872ZM36.834 19.688C36.834 20.264 36.897 20.813 36.987 21.335C37.59 20.768 38.139 20.039 38.517 19.031C38.472 19.031 38.418 19.031 38.364 19.031C37.779 19.031 37.257 19.166 36.843 19.319C36.834 19.445 36.834 19.562 36.834 19.688ZM34.665 21.722C34.665 22.091 34.836 22.28 35.178 22.28C35.529 22.28 35.961 22.127 36.42 21.803C36.294 21.164 36.204 20.435 36.204 19.76C36.204 19.706 36.204 19.652 36.204 19.598C35.331 20.093 34.665 20.984 34.665 21.722Z" fill="#262626"/>
<path d="M37.248 15.872C37.203 15.989 37.167 16.151 37.14 16.277C37.104 16.466 37.068 16.7 37.032 16.961C38.175 16.907 39.273 16.79 40.191 16.574L40.2 17.24C39.255 17.402 38.058 17.528 36.96 17.582C36.915 17.933 36.888 18.311 36.861 18.689C37.365 18.545 37.914 18.464 38.373 18.464C38.49 18.464 38.598 18.464 38.706 18.473C38.715 18.446 38.724 18.419 38.733 18.383C38.778 18.248 38.823 18.014 38.832 17.861L39.543 18.041C39.489 18.167 39.408 18.41 39.363 18.554C39.363 18.563 39.354 18.572 39.354 18.59C40.479 18.887 41.145 19.715 41.145 20.705C41.145 22.001 40.29 23.117 38.202 23.45L37.815 22.847C39.444 22.676 40.452 21.839 40.452 20.669C40.452 19.985 39.993 19.373 39.156 19.13C38.643 20.408 37.914 21.407 37.149 22.055C37.221 22.316 37.293 22.559 37.365 22.784L36.717 22.982C36.663 22.829 36.618 22.658 36.573 22.478C36.078 22.775 35.538 22.973 35.043 22.973C34.449 22.973 33.981 22.604 33.981 21.839C33.981 20.678 34.989 19.499 36.231 18.923C36.249 18.473 36.294 18.023 36.33 17.6C36.141 17.609 35.961 17.609 35.781 17.609C35.394 17.609 34.692 17.573 34.323 17.546L34.305 16.871C34.62 16.925 35.403 16.988 35.79 16.988C35.997 16.988 36.195 16.988 36.402 16.979C36.429 16.718 36.456 16.484 36.474 16.286C36.483 16.124 36.501 15.962 36.492 15.854L37.248 15.872ZM36.834 19.688C36.834 20.264 36.897 20.813 36.987 21.335C37.59 20.768 38.139 20.039 38.517 19.031C38.472 19.031 38.418 19.031 38.364 19.031C37.779 19.031 37.257 19.166 36.843 19.319C36.834 19.445 36.834 19.562 36.834 19.688ZM34.665 21.722C34.665 22.091 34.836 22.28 35.178 22.28C35.529 22.28 35.961 22.127 36.42 21.803C36.294 21.164 36.204 20.435 36.204 19.76C36.204 19.706 36.204 19.652 36.204 19.598C35.331 20.093 34.665 20.984 34.665 21.722Z" fill="black"/>
<path d="M45.051 15.899C44.862 16.556 44.682 17.771 44.628 18.401C44.997 17.483 45.933 16.358 47.076 16.358C48.273 16.358 49.128 17.555 49.128 19.445C49.128 21.947 47.562 23.045 45.33 23.45L44.907 22.802C46.86 22.514 48.39 21.713 48.39 19.454C48.39 18.032 47.904 17.006 46.959 17.006C45.834 17.006 44.79 18.644 44.682 19.823C44.637 20.174 44.646 20.48 44.7 20.93L44.007 20.984C43.962 20.642 43.908 20.138 43.908 19.553C43.908 18.698 44.079 17.375 44.187 16.646C44.223 16.376 44.241 16.115 44.259 15.872L45.051 15.899Z" fill="#262626"/>
<path d="M45.051 15.899C44.862 16.556 44.682 17.771 44.628 18.401C44.997 17.483 45.933 16.358 47.076 16.358C48.273 16.358 49.128 17.555 49.128 19.445C49.128 21.947 47.562 23.045 45.33 23.45L44.907 22.802C46.86 22.514 48.39 21.713 48.39 19.454C48.39 18.032 47.904 17.006 46.959 17.006C45.834 17.006 44.79 18.644 44.682 19.823C44.637 20.174 44.646 20.48 44.7 20.93L44.007 20.984C43.962 20.642 43.908 20.138 43.908 19.553C43.908 18.698 44.079 17.375 44.187 16.646C44.223 16.376 44.241 16.115 44.259 15.872L45.051 15.899Z" fill="black"/>
<path d="M53.745 19.58C53.745 21.335 53.034 22.766 51.954 23.864L51.414 23.585C52.449 22.514 53.088 21.182 53.088 19.58C53.088 17.978 52.449 16.646 51.414 15.575L51.954 15.296C53.034 16.394 53.745 17.825 53.745 19.58Z" fill="#262626"/>
<path d="M53.745 19.58C53.745 21.335 53.034 22.766 51.954 23.864L51.414 23.585C52.449 22.514 53.088 21.182 53.088 19.58C53.088 17.978 52.449 16.646 51.414 15.575L51.954 15.296C53.034 16.394 53.745 17.825 53.745 19.58Z" fill="black"/>
</svg>
