<svg width="73" height="10" viewBox="0 0 73 10" fill="none" xmlns="http://www.w3.org/2000/svg">
<path d="M0.540026 8.03199V1.62999C0.540026 1.32199 0.518026 0.826986 0.452026 0.485986H1.53003C1.49703 0.826986 1.45303 1.29999 1.45303 1.62999C1.45303 2.09199 1.45303 2.72999 1.45303 3.42299C2.90503 3.86299 4.99503 4.65499 6.15003 5.23799L5.77603 6.17299C4.57703 5.52399 2.67403 4.78699 1.45303 4.40199C1.46403 6.05199 1.46403 7.71299 1.46403 8.03199C1.46403 8.37299 1.48603 8.96699 1.53003 9.32999H0.463026C0.518026 8.97799 0.540026 8.43899 0.540026 8.03199Z" fill="#262626"/>
<path d="M0.540026 8.03199V1.62999C0.540026 1.32199 0.518026 0.826986 0.452026 0.485986H1.53003C1.49703 0.826986 1.45303 1.29999 1.45303 1.62999C1.45303 2.09199 1.45303 2.72999 1.45303 3.42299C2.90503 3.86299 4.99503 4.65499 6.15003 5.23799L5.77603 6.17299C4.57703 5.52399 2.67403 4.78699 1.45303 4.40199C1.46403 6.05199 1.46403 7.71299 1.46403 8.03199C1.46403 8.37299 1.48603 8.96699 1.53003 9.32999H0.463026C0.518026 8.97799 0.540026 8.43899 0.540026 8.03199Z" fill="black"/>
<path d="M10.374 0.804986C10.66 0.848986 11.012 0.859986 11.364 0.859986H15.687C16.039 0.859986 16.424 0.848986 16.688 0.804986V1.71799C16.424 1.69599 16.05 1.68499 15.676 1.68499H11.364C11.023 1.68499 10.671 1.69599 10.374 1.71799V0.804986ZM17.491 3.70899C17.436 3.80799 17.37 3.95099 17.348 4.02799C17.051 5.11699 16.556 6.26099 15.742 7.15199C14.587 8.41699 13.212 9.06599 11.804 9.45099L11.122 8.66999C12.684 8.35099 14.059 7.64699 14.994 6.65699C15.665 5.95299 16.105 5.01799 16.303 4.22599H10.462C10.198 4.22599 9.78003 4.23699 9.38403 4.25899V3.33499C9.79103 3.37899 10.165 3.40099 10.462 3.40099H16.259C16.512 3.40099 16.743 3.37899 16.864 3.31299L17.491 3.70899Z" fill="#262626"/>
<path d="M10.374 0.804986C10.66 0.848986 11.012 0.859986 11.364 0.859986H15.687C16.039 0.859986 16.424 0.848986 16.688 0.804986V1.71799C16.424 1.69599 16.05 1.68499 15.676 1.68499H11.364C11.023 1.68499 10.671 1.69599 10.374 1.71799V0.804986ZM17.491 3.70899C17.436 3.80799 17.37 3.95099 17.348 4.02799C17.051 5.11699 16.556 6.26099 15.742 7.15199C14.587 8.41699 13.212 9.06599 11.804 9.45099L11.122 8.66999C12.684 8.35099 14.059 7.64699 14.994 6.65699C15.665 5.95299 16.105 5.01799 16.303 4.22599H10.462C10.198 4.22599 9.78003 4.23699 9.38403 4.25899V3.33499C9.79103 3.37899 10.165 3.40099 10.462 3.40099H16.259C16.512 3.40099 16.743 3.37899 16.864 3.31299L17.491 3.70899Z" fill="black"/>
<path d="M21.33 0.936985C22.111 1.45399 23.519 2.59799 24.135 3.21399L23.442 3.90699C22.892 3.33499 21.517 2.15799 20.703 1.60799L21.33 0.936985ZM20.384 8.30699C22.309 8.02099 23.739 7.34999 24.784 6.70099C26.478 5.63399 27.82 4.00599 28.458 2.65299L28.986 3.58799C28.238 4.96299 26.951 6.45899 25.29 7.50399C24.19 8.19699 22.804 8.86799 20.967 9.20899L20.384 8.30699Z" fill="#262626"/>
<path d="M21.33 0.936985C22.111 1.45399 23.519 2.59799 24.135 3.21399L23.442 3.90699C22.892 3.33499 21.517 2.15799 20.703 1.60799L21.33 0.936985ZM20.384 8.30699C22.309 8.02099 23.739 7.34999 24.784 6.70099C26.478 5.63399 27.82 4.00599 28.458 2.65299L28.986 3.58799C28.238 4.96299 26.951 6.45899 25.29 7.50399C24.19 8.19699 22.804 8.86799 20.967 9.20899L20.384 8.30699Z" fill="black"/>
<path d="M35.74 0.452986C35.553 0.738986 35.355 1.11299 35.256 1.32199C35.179 1.47599 35.091 1.62999 34.992 1.78399H37.973C38.27 1.78399 38.512 1.75099 38.688 1.67399L39.425 2.12499C39.337 2.27899 39.227 2.53199 39.172 2.70799C38.875 3.81899 38.193 5.30399 37.214 6.49199C36.213 7.71299 34.904 8.72499 32.836 9.48399L32.044 8.76899C34.057 8.17499 35.432 7.17399 36.433 6.00799C37.291 4.99599 37.962 3.57699 38.193 2.57599H34.475C33.804 3.49999 32.88 4.47899 31.681 5.28199L30.922 4.70999C32.814 3.57699 33.903 1.98199 34.376 0.991986C34.486 0.804986 34.651 0.408986 34.717 0.122986L35.74 0.452986Z" fill="#262626"/>
<path d="M35.74 0.452986C35.553 0.738986 35.355 1.11299 35.256 1.32199C35.179 1.47599 35.091 1.62999 34.992 1.78399H37.973C38.27 1.78399 38.512 1.75099 38.688 1.67399L39.425 2.12499C39.337 2.27899 39.227 2.53199 39.172 2.70799C38.875 3.81899 38.193 5.30399 37.214 6.49199C36.213 7.71299 34.904 8.72499 32.836 9.48399L32.044 8.76899C34.057 8.17499 35.432 7.17399 36.433 6.00799C37.291 4.99599 37.962 3.57699 38.193 2.57599H34.475C33.804 3.49999 32.88 4.47899 31.681 5.28199L30.922 4.70999C32.814 3.57699 33.903 1.98199 34.376 0.991986C34.486 0.804986 34.651 0.408986 34.717 0.122986L35.74 0.452986Z" fill="black"/>
<path d="M46.264 8.76899C46.308 8.59299 46.341 8.37299 46.341 8.15299V1.56399C46.341 1.14599 46.286 0.826986 46.275 0.749986H47.287C47.276 0.826986 47.243 1.14599 47.243 1.56399V7.91099C48.255 7.44899 49.608 6.44799 50.455 5.20499L50.972 5.95299C50.026 7.23999 48.497 8.37299 47.221 8.99999C47.045 9.09899 46.924 9.18699 46.847 9.25299L46.264 8.76899ZM41.226 8.71399C42.15 8.05399 42.81 7.07499 43.14 6.00799C43.459 5.00699 43.47 2.80699 43.47 1.58599C43.47 1.25599 43.437 1.01399 43.393 0.782986H44.405C44.394 0.914986 44.35 1.24499 44.35 1.57499C44.35 2.79599 44.306 5.14999 44.009 6.24999C43.679 7.42699 42.975 8.50499 42.051 9.27499L41.226 8.71399Z" fill="#262626"/>
<path d="M46.264 8.76899C46.308 8.59299 46.341 8.37299 46.341 8.15299V1.56399C46.341 1.14599 46.286 0.826986 46.275 0.749986H47.287C47.276 0.826986 47.243 1.14599 47.243 1.56399V7.91099C48.255 7.44899 49.608 6.44799 50.455 5.20499L50.972 5.95299C50.026 7.23999 48.497 8.37299 47.221 8.99999C47.045 9.09899 46.924 9.18699 46.847 9.25299L46.264 8.76899ZM41.226 8.71399C42.15 8.05399 42.81 7.07499 43.14 6.00799C43.459 5.00699 43.47 2.80699 43.47 1.58599C43.47 1.25599 43.437 1.01399 43.393 0.782986H44.405C44.394 0.914986 44.35 1.24499 44.35 1.57499C44.35 2.79599 44.306 5.14999 44.009 6.24999C43.679 7.42699 42.975 8.50499 42.051 9.27499L41.226 8.71399Z" fill="black"/>
<path d="M52.622 4.23699C52.952 4.25899 53.535 4.29199 54.151 4.29199H60.179C60.729 4.29199 61.125 4.25899 61.367 4.23699V5.31499C61.147 5.30399 60.685 5.25999 60.19 5.25999H54.151C53.546 5.25999 52.963 5.28199 52.622 5.31499V4.23699Z" fill="#262626"/>
<path d="M52.622 4.23699C52.952 4.25899 53.535 4.29199 54.151 4.29199H60.179C60.729 4.29199 61.125 4.25899 61.367 4.23699V5.31499C61.147 5.30399 60.685 5.25999 60.19 5.25999H54.151C53.546 5.25999 52.963 5.28199 52.622 5.31499V4.23699Z" fill="black"/>
<path d="M67.909 0.793986C67.799 1.06899 67.678 1.35499 67.535 1.81699C67.216 2.85099 66.127 6.22799 65.577 7.65799C67.194 7.50399 69.306 7.27299 70.516 7.10799C70.076 6.23899 69.581 5.38099 69.174 4.85299L69.999 4.47899C70.78 5.61199 71.979 7.82299 72.441 8.95599L71.517 9.37399C71.374 8.97799 71.165 8.47199 70.912 7.93299C69.218 8.15299 65.533 8.55999 64.059 8.69199C63.784 8.71399 63.465 8.76899 63.146 8.81299L62.981 7.78999C63.311 7.80099 63.685 7.78999 64.004 7.77899C64.169 7.76799 64.356 7.75699 64.554 7.74599C65.17 6.22799 66.292 2.70799 66.6 1.62999C66.732 1.12399 66.776 0.859986 66.809 0.573986L67.909 0.793986Z" fill="#262626"/>
<path d="M67.909 0.793986C67.799 1.06899 67.678 1.35499 67.535 1.81699C67.216 2.85099 66.127 6.22799 65.577 7.65799C67.194 7.50399 69.306 7.27299 70.516 7.10799C70.076 6.23899 69.581 5.38099 69.174 4.85299L69.999 4.47899C70.78 5.61199 71.979 7.82299 72.441 8.95599L71.517 9.37399C71.374 8.97799 71.165 8.47199 70.912 7.93299C69.218 8.15299 65.533 8.55999 64.059 8.69199C63.784 8.71399 63.465 8.76899 63.146 8.81299L62.981 7.78999C63.311 7.80099 63.685 7.78999 64.004 7.77899C64.169 7.76799 64.356 7.75699 64.554 7.74599C65.17 6.22799 66.292 2.70799 66.6 1.62999C66.732 1.12399 66.776 0.859986 66.809 0.573986L67.909 0.793986Z" fill="black"/>
</svg>
