<svg width="65" height="26" viewBox="0 0 65 26" fill="none" xmlns="http://www.w3.org/2000/svg">
<path d="M24.915 1.134C25.19 1.53 25.586 2.19 25.817 2.641L25.234 2.905L25.751 3.213C25.663 3.367 25.553 3.62 25.498 3.796C25.201 4.808 24.596 6.106 23.771 7.228C24.244 7.569 24.673 7.899 25.025 8.185L24.376 8.944C24.046 8.647 23.639 8.306 23.177 7.954C22.198 9.043 20.845 10.044 18.986 10.748L18.194 10.055C20.053 9.494 21.472 8.482 22.451 7.415C21.67 6.843 20.823 6.271 20.119 5.831L20.713 5.215C21.439 5.633 22.264 6.172 23.034 6.711C23.749 5.743 24.31 4.566 24.53 3.664H20.812C20.108 4.643 19.129 5.721 17.897 6.568L17.16 6.007C19.052 4.83 20.185 3.169 20.691 2.168C20.801 1.97 20.977 1.585 21.043 1.299L22.044 1.618C21.857 1.904 21.659 2.278 21.549 2.487C21.483 2.608 21.406 2.74 21.329 2.872H24.299C24.596 2.872 24.849 2.839 25.025 2.773L25.212 2.883C24.992 2.443 24.629 1.794 24.332 1.387L24.915 1.134ZM26.125 0.693998C26.411 1.09 26.84 1.783 27.049 2.19L26.455 2.454C26.213 1.97 25.85 1.354 25.542 0.935998L26.125 0.693998Z" fill="#262626"/>
<path d="M24.915 1.134C25.19 1.53 25.586 2.19 25.817 2.641L25.234 2.905L25.751 3.213C25.663 3.367 25.553 3.62 25.498 3.796C25.201 4.808 24.596 6.106 23.771 7.228C24.244 7.569 24.673 7.899 25.025 8.185L24.376 8.944C24.046 8.647 23.639 8.306 23.177 7.954C22.198 9.043 20.845 10.044 18.986 10.748L18.194 10.055C20.053 9.494 21.472 8.482 22.451 7.415C21.67 6.843 20.823 6.271 20.119 5.831L20.713 5.215C21.439 5.633 22.264 6.172 23.034 6.711C23.749 5.743 24.31 4.566 24.53 3.664H20.812C20.108 4.643 19.129 5.721 17.897 6.568L17.16 6.007C19.052 4.83 20.185 3.169 20.691 2.168C20.801 1.97 20.977 1.585 21.043 1.299L22.044 1.618C21.857 1.904 21.659 2.278 21.549 2.487C21.483 2.608 21.406 2.74 21.329 2.872H24.299C24.596 2.872 24.849 2.839 25.025 2.773L25.212 2.883C24.992 2.443 24.629 1.794 24.332 1.387L24.915 1.134ZM26.125 0.693998C26.411 1.09 26.84 1.783 27.049 2.19L26.455 2.454C26.213 1.97 25.85 1.354 25.542 0.935998L26.125 0.693998Z" fill="black"/>
<path d="M35.816 0.858998C36.069 1.233 36.465 1.893 36.685 2.311L36.267 2.498L36.806 2.839C36.729 2.993 36.685 3.169 36.641 3.389C36.399 4.544 35.871 6.315 35.002 7.448C33.99 8.735 32.681 9.758 30.668 10.385L29.92 9.56C32.054 9.032 33.286 8.097 34.21 6.92C34.991 5.919 35.497 4.39 35.651 3.334H30.019C29.59 3.334 29.205 3.356 28.93 3.367V2.388C29.227 2.432 29.667 2.465 30.03 2.465H35.541C35.684 2.465 35.849 2.465 36.014 2.432C35.783 2.003 35.464 1.464 35.211 1.112L35.816 0.858998ZM37.224 0.572998C37.499 0.946998 37.895 1.607 38.126 2.025L37.521 2.289C37.279 1.838 36.916 1.211 36.619 0.825998L37.224 0.572998Z" fill="#262626"/>
<path d="M35.816 0.858998C36.069 1.233 36.465 1.893 36.685 2.311L36.267 2.498L36.806 2.839C36.729 2.993 36.685 3.169 36.641 3.389C36.399 4.544 35.871 6.315 35.002 7.448C33.99 8.735 32.681 9.758 30.668 10.385L29.92 9.56C32.054 9.032 33.286 8.097 34.21 6.92C34.991 5.919 35.497 4.39 35.651 3.334H30.019C29.59 3.334 29.205 3.356 28.93 3.367V2.388C29.227 2.432 29.667 2.465 30.03 2.465H35.541C35.684 2.465 35.849 2.465 36.014 2.432C35.783 2.003 35.464 1.464 35.211 1.112L35.816 0.858998ZM37.224 0.572998C37.499 0.946998 37.895 1.607 38.126 2.025L37.521 2.289C37.279 1.838 36.916 1.211 36.619 0.825998L37.224 0.572998Z" fill="black"/>
<path d="M44.264 9.769C44.308 9.593 44.341 9.373 44.341 9.153V2.564C44.341 2.146 44.286 1.827 44.275 1.75H45.287C45.276 1.827 45.243 2.146 45.243 2.564V8.911C46.255 8.449 47.608 7.448 48.455 6.205L48.972 6.953C48.026 8.24 46.497 9.373 45.221 10C45.045 10.099 44.924 10.187 44.847 10.253L44.264 9.769ZM39.226 9.714C40.15 9.054 40.81 8.075 41.14 7.008C41.459 6.007 41.47 3.807 41.47 2.586C41.47 2.256 41.437 2.014 41.393 1.783H42.405C42.394 1.915 42.35 2.245 42.35 2.575C42.35 3.796 42.306 6.15 42.009 7.25C41.679 8.427 40.975 9.505 40.051 10.275L39.226 9.714Z" fill="#262626"/>
<path d="M44.264 9.769C44.308 9.593 44.341 9.373 44.341 9.153V2.564C44.341 2.146 44.286 1.827 44.275 1.75H45.287C45.276 1.827 45.243 2.146 45.243 2.564V8.911C46.255 8.449 47.608 7.448 48.455 6.205L48.972 6.953C48.026 8.24 46.497 9.373 45.221 10C45.045 10.099 44.924 10.187 44.847 10.253L44.264 9.769ZM39.226 9.714C40.15 9.054 40.81 8.075 41.14 7.008C41.459 6.007 41.47 3.807 41.47 2.586C41.47 2.256 41.437 2.014 41.393 1.783H42.405C42.394 1.915 42.35 2.245 42.35 2.575C42.35 3.796 42.306 6.15 42.009 7.25C41.679 8.427 40.975 9.505 40.051 10.275L39.226 9.714Z" fill="black"/>
<path d="M7.25998 16.387C7.21598 16.695 7.19398 17.003 7.19398 17.311C7.19398 17.564 7.20498 17.938 7.21598 18.378H8.94299C9.22899 18.378 9.65798 18.334 9.87799 18.312V19.236C9.62498 19.225 9.23998 19.214 8.97598 19.214H7.22698C7.25998 20.864 7.29299 23.053 7.30399 24.428C7.30399 25 6.96298 25.308 6.30298 25.308C5.73098 25.308 5.08198 25.286 4.54298 25.242L4.46598 24.34C4.99398 24.428 5.60998 24.472 6.01698 24.472C6.33598 24.472 6.42398 24.329 6.42398 24.032C6.42398 23.152 6.41299 21.513 6.39099 20.039C5.47799 21.337 3.55298 23.119 1.58398 24.164L0.945984 23.449C3.17898 22.36 5.13699 20.534 6.00599 19.214H2.38699C2.01299 19.214 1.69399 19.225 1.35299 19.247V18.312C1.67199 18.345 2.02398 18.378 2.36498 18.378H6.36899C6.35799 17.938 6.34699 17.564 6.33599 17.311C6.30298 16.893 6.28098 16.618 6.23698 16.387H7.25998Z" fill="#262626"/>
<path d="M7.25998 16.387C7.21598 16.695 7.19398 17.003 7.19398 17.311C7.19398 17.564 7.20498 17.938 7.21598 18.378H8.94299C9.22899 18.378 9.65798 18.334 9.87799 18.312V19.236C9.62498 19.225 9.23998 19.214 8.97598 19.214H7.22698C7.25998 20.864 7.29299 23.053 7.30399 24.428C7.30399 25 6.96298 25.308 6.30298 25.308C5.73098 25.308 5.08198 25.286 4.54298 25.242L4.46598 24.34C4.99398 24.428 5.60998 24.472 6.01698 24.472C6.33598 24.472 6.42398 24.329 6.42398 24.032C6.42398 23.152 6.41299 21.513 6.39099 20.039C5.47799 21.337 3.55298 23.119 1.58398 24.164L0.945984 23.449C3.17898 22.36 5.13699 20.534 6.00599 19.214H2.38699C2.01299 19.214 1.69399 19.225 1.35299 19.247V18.312C1.67199 18.345 2.02398 18.378 2.36498 18.378H6.36899C6.35799 17.938 6.34699 17.564 6.33599 17.311C6.30298 16.893 6.28098 16.618 6.23698 16.387H7.25998Z" fill="black"/>
<path d="M12.122 20.237C12.452 20.259 13.035 20.292 13.651 20.292H19.679C20.229 20.292 20.625 20.259 20.867 20.237V21.315C20.647 21.304 20.185 21.26 19.69 21.26H13.651C13.046 21.26 12.463 21.282 12.122 21.315V20.237Z" fill="#262626"/>
<path d="M12.122 20.237C12.452 20.259 13.035 20.292 13.651 20.292H19.679C20.229 20.292 20.625 20.259 20.867 20.237V21.315C20.647 21.304 20.185 21.26 19.69 21.26H13.651C13.046 21.26 12.463 21.282 12.122 21.315V20.237Z" fill="black"/>
<path d="M25.707 24.032V17.63C25.707 17.322 25.685 16.827 25.619 16.486H26.697C26.664 16.827 26.62 17.3 26.62 17.63C26.62 18.092 26.62 18.73 26.62 19.423C28.072 19.863 30.162 20.655 31.317 21.238L30.943 22.173C29.744 21.524 27.841 20.787 26.62 20.402C26.631 22.052 26.631 23.713 26.631 24.032C26.631 24.373 26.653 24.967 26.697 25.33H25.63C25.685 24.978 25.707 24.439 25.707 24.032Z" fill="#262626"/>
<path d="M25.707 24.032V17.63C25.707 17.322 25.685 16.827 25.619 16.486H26.697C26.664 16.827 26.62 17.3 26.62 17.63C26.62 18.092 26.62 18.73 26.62 19.423C28.072 19.863 30.162 20.655 31.317 21.238L30.943 22.173C29.744 21.524 27.841 20.787 26.62 20.402C26.631 22.052 26.631 23.713 26.631 24.032C26.631 24.373 26.653 24.967 26.697 25.33H25.63C25.685 24.978 25.707 24.439 25.707 24.032Z" fill="black"/>
<path d="M34.606 17.465C35.035 17.476 35.332 17.487 35.585 17.487H41.492C41.734 17.487 42.13 17.487 42.46 17.465C42.438 17.74 42.438 18.048 42.438 18.323V23.746C42.438 24.098 42.449 24.956 42.46 25.077H41.514C41.514 25 41.525 24.736 41.525 24.439H35.519C35.53 24.725 35.53 24.989 35.541 25.077H34.595C34.606 24.934 34.628 24.12 34.628 23.735V18.323C34.628 18.07 34.628 17.729 34.606 17.465ZM35.519 18.356V23.581H41.536V18.356H35.519Z" fill="#262626"/>
<path d="M34.606 17.465C35.035 17.476 35.332 17.487 35.585 17.487H41.492C41.734 17.487 42.13 17.487 42.46 17.465C42.438 17.74 42.438 18.048 42.438 18.323V23.746C42.438 24.098 42.449 24.956 42.46 25.077H41.514C41.514 25 41.525 24.736 41.525 24.439H35.519C35.53 24.725 35.53 24.989 35.541 25.077H34.595C34.606 24.934 34.628 24.12 34.628 23.735V18.323C34.628 18.07 34.628 17.729 34.606 17.465ZM35.519 18.356V23.581H41.536V18.356H35.519Z" fill="black"/>
<path d="M49.313 18.664C49.5 19.104 50.039 20.556 50.182 21.04L49.368 21.326C49.247 20.831 48.741 19.434 48.51 18.939L49.313 18.664ZM53.295 19.28C53.218 19.511 53.174 19.687 53.13 19.83C52.833 21.04 52.36 22.217 51.568 23.207C50.556 24.505 49.214 25.352 47.982 25.825L47.256 25.088C48.532 24.714 49.929 23.878 50.831 22.745C51.612 21.788 52.184 20.391 52.349 18.983L53.295 19.28ZM46.761 19.214C46.981 19.687 47.553 21.128 47.762 21.7L46.926 22.008C46.761 21.436 46.167 19.918 45.947 19.533L46.761 19.214Z" fill="#262626"/>
<path d="M49.313 18.664C49.5 19.104 50.039 20.556 50.182 21.04L49.368 21.326C49.247 20.831 48.741 19.434 48.51 18.939L49.313 18.664ZM53.295 19.28C53.218 19.511 53.174 19.687 53.13 19.83C52.833 21.04 52.36 22.217 51.568 23.207C50.556 24.505 49.214 25.352 47.982 25.825L47.256 25.088C48.532 24.714 49.929 23.878 50.831 22.745C51.612 21.788 52.184 20.391 52.349 18.983L53.295 19.28ZM46.761 19.214C46.981 19.687 47.553 21.128 47.762 21.7L46.926 22.008C46.761 21.436 46.167 19.918 45.947 19.533L46.761 19.214Z" fill="black"/>
<path d="M60.907 16.453C60.72 16.739 60.522 17.113 60.423 17.322C60.346 17.476 60.258 17.63 60.159 17.784H63.14C63.437 17.784 63.679 17.751 63.855 17.674L64.592 18.125C64.504 18.279 64.394 18.532 64.339 18.708C64.042 19.819 63.36 21.304 62.381 22.492C61.38 23.713 60.071 24.725 58.003 25.484L57.211 24.769C59.224 24.175 60.599 23.174 61.6 22.008C62.458 20.996 63.129 19.577 63.36 18.576H59.642C58.971 19.5 58.047 20.479 56.848 21.282L56.089 20.71C57.981 19.577 59.07 17.982 59.543 16.992C59.653 16.805 59.818 16.409 59.884 16.123L60.907 16.453Z" fill="#262626"/>
<path d="M60.907 16.453C60.72 16.739 60.522 17.113 60.423 17.322C60.346 17.476 60.258 17.63 60.159 17.784H63.14C63.437 17.784 63.679 17.751 63.855 17.674L64.592 18.125C64.504 18.279 64.394 18.532 64.339 18.708C64.042 19.819 63.36 21.304 62.381 22.492C61.38 23.713 60.071 24.725 58.003 25.484L57.211 24.769C59.224 24.175 60.599 23.174 61.6 22.008C62.458 20.996 63.129 19.577 63.36 18.576H59.642C58.971 19.5 58.047 20.479 56.848 21.282L56.089 20.71C57.981 19.577 59.07 17.982 59.543 16.992C59.653 16.805 59.818 16.409 59.884 16.123L60.907 16.453Z" fill="black"/>
</svg>
