<svg width="66" height="11" viewBox="0 0 66 11" fill="none" xmlns="http://www.w3.org/2000/svg">
<path d="M7.74401 3.4C7.74401 3.84 8.10701 4.203 8.55801 4.203C8.99801 4.203 9.36101 3.84 9.36101 3.4C9.36101 2.949 8.99801 2.597 8.55801 2.597C8.10701 2.597 7.74401 2.949 7.74401 3.4ZM7.21601 3.4C7.21601 2.663 7.82101 2.058 8.55801 2.058C9.29501 2.058 9.88901 2.663 9.88901 3.4C9.88901 4.137 9.29501 4.731 8.55801 4.731C7.82101 4.731 7.21601 4.137 7.21601 3.4ZM0.583008 7.107C0.869008 6.865 1.06701 6.667 1.36401 6.37C1.88101 5.842 2.83801 4.621 3.53101 3.807C4.12501 3.114 4.64201 2.993 5.39001 3.697C6.06101 4.335 6.99601 5.314 7.64501 6.007C8.38201 6.788 9.48201 7.987 10.329 8.889L9.57001 9.692C8.78901 8.746 7.82101 7.624 7.11701 6.821C6.47901 6.095 5.45601 5.006 4.99401 4.555C4.56501 4.137 4.35601 4.181 3.98201 4.632C3.45401 5.281 2.54101 6.48 2.03501 7.096C1.81501 7.371 1.57301 7.712 1.40801 7.943L0.583008 7.107Z" fill="#262626"/>
<path d="M7.74401 3.4C7.74401 3.84 8.10701 4.203 8.55801 4.203C8.99801 4.203 9.36101 3.84 9.36101 3.4C9.36101 2.949 8.99801 2.597 8.55801 2.597C8.10701 2.597 7.74401 2.949 7.74401 3.4ZM7.21601 3.4C7.21601 2.663 7.82101 2.058 8.55801 2.058C9.29501 2.058 9.88901 2.663 9.88901 3.4C9.88901 4.137 9.29501 4.731 8.55801 4.731C7.82101 4.731 7.21601 4.137 7.21601 3.4ZM0.583008 7.107C0.869008 6.865 1.06701 6.667 1.36401 6.37C1.88101 5.842 2.83801 4.621 3.53101 3.807C4.12501 3.114 4.64201 2.993 5.39001 3.697C6.06101 4.335 6.99601 5.314 7.64501 6.007C8.38201 6.788 9.48201 7.987 10.329 8.889L9.57001 9.692C8.78901 8.746 7.82101 7.624 7.11701 6.821C6.47901 6.095 5.45601 5.006 4.99401 4.555C4.56501 4.137 4.35601 4.181 3.98201 4.632C3.45401 5.281 2.54101 6.48 2.03501 7.096C1.81501 7.371 1.57301 7.712 1.40801 7.943L0.583008 7.107Z" fill="black"/>
<path d="M16.313 3.664C16.5 4.104 17.039 5.556 17.182 6.04L16.368 6.326C16.247 5.831 15.741 4.434 15.51 3.939L16.313 3.664ZM20.295 4.28C20.218 4.511 20.174 4.687 20.13 4.83C19.833 6.04 19.36 7.217 18.568 8.207C17.556 9.505 16.214 10.352 14.982 10.825L14.256 10.088C15.532 9.714 16.929 8.878 17.831 7.745C18.612 6.788 19.184 5.391 19.349 3.983L20.295 4.28ZM13.761 4.214C13.981 4.687 14.553 6.128 14.762 6.7L13.926 7.008C13.761 6.436 13.167 4.918 12.947 4.533L13.761 4.214Z" fill="#262626"/>
<path d="M16.313 3.664C16.5 4.104 17.039 5.556 17.182 6.04L16.368 6.326C16.247 5.831 15.741 4.434 15.51 3.939L16.313 3.664ZM20.295 4.28C20.218 4.511 20.174 4.687 20.13 4.83C19.833 6.04 19.36 7.217 18.568 8.207C17.556 9.505 16.214 10.352 14.982 10.825L14.256 10.088C15.532 9.714 16.929 8.878 17.831 7.745C18.612 6.788 19.184 5.391 19.349 3.983L20.295 4.28ZM13.761 4.214C13.981 4.687 14.553 6.128 14.762 6.7L13.926 7.008C13.761 6.436 13.167 4.918 12.947 4.533L13.761 4.214Z" fill="black"/>
<path d="M25.707 9.032V2.63C25.707 2.322 25.685 1.827 25.619 1.486H26.697C26.664 1.827 26.62 2.3 26.62 2.63C26.62 3.092 26.62 3.73 26.62 4.423C28.072 4.863 30.162 5.655 31.317 6.238L30.943 7.173C29.744 6.524 27.841 5.787 26.62 5.402C26.631 7.052 26.631 8.713 26.631 9.032C26.631 9.373 26.653 9.967 26.697 10.33H25.63C25.685 9.978 25.707 9.439 25.707 9.032Z" fill="#262626"/>
<path d="M25.707 9.032V2.63C25.707 2.322 25.685 1.827 25.619 1.486H26.697C26.664 1.827 26.62 2.3 26.62 2.63C26.62 3.092 26.62 3.73 26.62 4.423C28.072 4.863 30.162 5.655 31.317 6.238L30.943 7.173C29.744 6.524 27.841 5.787 26.62 5.402C26.631 7.052 26.631 8.713 26.631 9.032C26.631 9.373 26.653 9.967 26.697 10.33H25.63C25.685 9.978 25.707 9.439 25.707 9.032Z" fill="black"/>
<path d="M36.96 4.291H34.969V5.16H36.96V4.291ZM34.969 6.612H36.96V5.743H34.969V6.612ZM38.159 2.696L37.631 3.29C37.29 2.795 36.63 2.014 36.014 1.486C35.64 2.146 35.101 2.949 34.364 3.686H35.706V2.641H36.41V3.686H37.686V7.239H34.969V9.307C35.519 9.164 36.113 9.01 36.718 8.856C36.52 8.526 36.311 8.196 36.102 7.91L36.751 7.613C37.334 8.383 37.928 9.406 38.159 10.077L37.455 10.407C37.378 10.143 37.235 9.813 37.059 9.472C35.882 9.813 34.661 10.154 33.726 10.418L33.484 9.648C33.704 9.604 33.957 9.549 34.221 9.483V3.818C34.089 3.939 33.957 4.06 33.814 4.181C33.682 4.016 33.429 3.774 33.264 3.675C34.342 2.828 35.09 1.706 35.497 0.803999H36.289C36.96 1.354 37.763 2.146 38.159 2.696ZM40.656 5.358H39.116V7.459H40.656V5.358ZM41.327 8.141H39.116V9.032H38.434V4.676H41.327V8.141ZM41.613 3.048V3.719H38.192V3.048H41.613ZM43.175 1.321V9.78C43.175 10.275 43.043 10.55 42.68 10.693C42.339 10.825 41.811 10.847 40.821 10.836C40.777 10.627 40.634 10.253 40.502 10.044C41.283 10.066 41.921 10.055 42.119 10.055C42.317 10.044 42.405 9.978 42.405 9.769V2.08H38.115V1.321H43.175Z" fill="#262626"/>
<path d="M36.96 4.291H34.969V5.16H36.96V4.291ZM34.969 6.612H36.96V5.743H34.969V6.612ZM38.159 2.696L37.631 3.29C37.29 2.795 36.63 2.014 36.014 1.486C35.64 2.146 35.101 2.949 34.364 3.686H35.706V2.641H36.41V3.686H37.686V7.239H34.969V9.307C35.519 9.164 36.113 9.01 36.718 8.856C36.52 8.526 36.311 8.196 36.102 7.91L36.751 7.613C37.334 8.383 37.928 9.406 38.159 10.077L37.455 10.407C37.378 10.143 37.235 9.813 37.059 9.472C35.882 9.813 34.661 10.154 33.726 10.418L33.484 9.648C33.704 9.604 33.957 9.549 34.221 9.483V3.818C34.089 3.939 33.957 4.06 33.814 4.181C33.682 4.016 33.429 3.774 33.264 3.675C34.342 2.828 35.09 1.706 35.497 0.803999H36.289C36.96 1.354 37.763 2.146 38.159 2.696ZM40.656 5.358H39.116V7.459H40.656V5.358ZM41.327 8.141H39.116V9.032H38.434V4.676H41.327V8.141ZM41.613 3.048V3.719H38.192V3.048H41.613ZM43.175 1.321V9.78C43.175 10.275 43.043 10.55 42.68 10.693C42.339 10.825 41.811 10.847 40.821 10.836C40.777 10.627 40.634 10.253 40.502 10.044C41.283 10.066 41.921 10.055 42.119 10.055C42.317 10.044 42.405 9.978 42.405 9.769V2.08H38.115V1.321H43.175Z" fill="black"/>
<path d="M47.08 8.405H51.975V7.547H47.08V8.405ZM51.975 6.106H47.08V6.953H51.975V6.106ZM52.8 5.424V9.967C52.8 10.407 52.69 10.616 52.349 10.715C51.997 10.825 51.436 10.836 50.556 10.836C50.512 10.638 50.391 10.352 50.292 10.165C50.93 10.176 51.568 10.176 51.755 10.176C51.92 10.165 51.975 10.121 51.975 9.967V9.021H47.08V10.836H46.266V5.424H52.8ZM51.403 2.597H48.62C48.29 3.048 47.905 3.532 47.542 3.961C48.895 3.939 50.446 3.906 51.986 3.873C51.59 3.565 51.172 3.257 50.787 3.004L51.403 2.597ZM54.307 1.86V2.597H51.436C52.415 3.213 53.603 4.137 54.208 4.786L53.526 5.27C53.339 5.05 53.075 4.797 52.778 4.533C50.017 4.643 47.091 4.72 45.166 4.753L45.133 3.994L46.651 3.972C46.97 3.554 47.322 3.037 47.575 2.597H44.704V1.86H49.071V0.792999H49.896V1.86H54.307Z" fill="#262626"/>
<path d="M47.08 8.405H51.975V7.547H47.08V8.405ZM51.975 6.106H47.08V6.953H51.975V6.106ZM52.8 5.424V9.967C52.8 10.407 52.69 10.616 52.349 10.715C51.997 10.825 51.436 10.836 50.556 10.836C50.512 10.638 50.391 10.352 50.292 10.165C50.93 10.176 51.568 10.176 51.755 10.176C51.92 10.165 51.975 10.121 51.975 9.967V9.021H47.08V10.836H46.266V5.424H52.8ZM51.403 2.597H48.62C48.29 3.048 47.905 3.532 47.542 3.961C48.895 3.939 50.446 3.906 51.986 3.873C51.59 3.565 51.172 3.257 50.787 3.004L51.403 2.597ZM54.307 1.86V2.597H51.436C52.415 3.213 53.603 4.137 54.208 4.786L53.526 5.27C53.339 5.05 53.075 4.797 52.778 4.533C50.017 4.643 47.091 4.72 45.166 4.753L45.133 3.994L46.651 3.972C46.97 3.554 47.322 3.037 47.575 2.597H44.704V1.86H49.071V0.792999H49.896V1.86H54.307Z" fill="black"/>
<path d="M60.434 4.786H57.563V7.294H60.434V4.786ZM61.237 8.075H57.563V8.955H56.771V3.994H61.237V8.075ZM65.384 1.574V2.388H64.031V9.67C64.031 10.253 63.888 10.55 63.47 10.671C63.03 10.825 62.271 10.825 61.193 10.825C61.138 10.594 60.973 10.187 60.841 9.956C61.721 10 62.623 9.989 62.876 9.978C63.118 9.967 63.195 9.89 63.195 9.659V2.388H55.649V1.574H65.384Z" fill="#262626"/>
<path d="M60.434 4.786H57.563V7.294H60.434V4.786ZM61.237 8.075H57.563V8.955H56.771V3.994H61.237V8.075ZM65.384 1.574V2.388H64.031V9.67C64.031 10.253 63.888 10.55 63.47 10.671C63.03 10.825 62.271 10.825 61.193 10.825C61.138 10.594 60.973 10.187 60.841 9.956C61.721 10 62.623 9.989 62.876 9.978C63.118 9.967 63.195 9.89 63.195 9.659V2.388H55.649V1.574H65.384Z" fill="black"/>
</svg>
