<svg width="88" height="11" viewBox="0 0 88 11" fill="none" xmlns="http://www.w3.org/2000/svg">
<path d="M5.00499 0.78201H5.81899C6.96299 2.38801 8.87699 3.99401 10.593 4.84101C10.384 5.05001 10.186 5.33601 10.054 5.56701C8.37099 4.58801 6.44599 2.97101 5.45599 1.58501C4.57599 2.91601 2.80499 4.54401 0.956989 5.62201C0.857989 5.43501 0.626989 5.14901 0.450989 4.97301C2.33199 3.93901 4.15799 2.20101 5.00499 0.78201ZM5.88499 7.99801V9.79101H10.175V10.539H0.879989V9.79101H5.04899V7.99801H1.77099V7.27201H5.04899V5.55601H2.26599V4.81901H8.79999V5.55601H5.88499V7.27201H9.21799V7.99801H5.88499Z" fill="#262626"/>
<path d="M5.00499 0.78201H5.81899C6.96299 2.38801 8.87699 3.99401 10.593 4.84101C10.384 5.05001 10.186 5.33601 10.054 5.56701C8.37099 4.58801 6.44599 2.97101 5.45599 1.58501C4.57599 2.91601 2.80499 4.54401 0.956989 5.62201C0.857989 5.43501 0.626989 5.14901 0.450989 4.97301C2.33199 3.93901 4.15799 2.20101 5.00499 0.78201ZM5.88499 7.99801V9.79101H10.175V10.539H0.879989V9.79101H5.04899V7.99801H1.77099V7.27201H5.04899V5.55601H2.26599V4.81901H8.79999V5.55601H5.88499V7.27201H9.21799V7.99801H5.88499Z" fill="black"/>
<path d="M19.998 9.50501V4.44501H18.348V9.50501H19.998ZM12.969 4.44501V9.50501H14.531V4.44501H12.969ZM17.6 5.65501V4.44501H15.279V5.65501H17.6ZM15.279 8.22901V9.50501H17.6V8.22901H15.279ZM17.6 7.55801V6.32601H15.279V7.55801H17.6ZM21.351 2.31101H16.841C16.709 2.77301 16.555 3.26801 16.412 3.68601H20.823V10.847H19.998V10.264H12.969V10.847H12.177V3.68601H15.576C15.697 3.26801 15.807 2.76201 15.895 2.31101H11.682V1.53001H21.351V2.31101Z" fill="#262626"/>
<path d="M19.998 9.50501V4.44501H18.348V9.50501H19.998ZM12.969 4.44501V9.50501H14.531V4.44501H12.969ZM17.6 5.65501V4.44501H15.279V5.65501H17.6ZM15.279 8.22901V9.50501H17.6V8.22901H15.279ZM17.6 7.55801V6.32601H15.279V7.55801H17.6ZM21.351 2.31101H16.841C16.709 2.77301 16.555 3.26801 16.412 3.68601H20.823V10.847H19.998V10.264H12.969V10.847H12.177V3.68601H15.576C15.697 3.26801 15.807 2.76201 15.895 2.31101H11.682V1.53001H21.351V2.31101Z" fill="black"/>
<path d="M31.471 2.68501C31.394 2.83901 31.35 3.02601 31.306 3.23501C31.075 4.39001 30.536 6.16101 29.667 7.29401C28.666 8.58101 27.357 9.60401 25.333 10.242L24.585 9.41701C26.719 8.87801 27.951 7.94301 28.875 6.76601C29.656 5.76501 30.162 4.23601 30.316 3.18001H24.695C24.255 3.18001 23.881 3.20201 23.595 3.21301V2.24501C23.903 2.27801 24.332 2.31101 24.695 2.31101H30.217C30.382 2.31101 30.591 2.31101 30.8 2.25601L31.471 2.68501Z" fill="#262626"/>
<path d="M31.471 2.68501C31.394 2.83901 31.35 3.02601 31.306 3.23501C31.075 4.39001 30.536 6.16101 29.667 7.29401C28.666 8.58101 27.357 9.60401 25.333 10.242L24.585 9.41701C26.719 8.87801 27.951 7.94301 28.875 6.76601C29.656 5.76501 30.162 4.23601 30.316 3.18001H24.695C24.255 3.18001 23.881 3.20201 23.595 3.21301V2.24501C23.903 2.27801 24.332 2.31101 24.695 2.31101H30.217C30.382 2.31101 30.591 2.31101 30.8 2.25601L31.471 2.68501Z" fill="black"/>
<path d="M34.606 2.46501C35.035 2.47601 35.332 2.48701 35.585 2.48701H41.492C41.734 2.48701 42.13 2.48701 42.46 2.46501C42.438 2.74001 42.438 3.04801 42.438 3.32301V8.74601C42.438 9.09801 42.449 9.95601 42.46 10.077H41.514C41.514 10 41.525 9.73601 41.525 9.43901H35.519C35.53 9.72501 35.53 9.98901 35.541 10.077H34.595C34.606 9.93401 34.628 9.12001 34.628 8.73501V3.32301C34.628 3.07001 34.628 2.72901 34.606 2.46501ZM35.519 3.35601V8.58101H41.536V3.35601H35.519Z" fill="#262626"/>
<path d="M34.606 2.46501C35.035 2.47601 35.332 2.48701 35.585 2.48701H41.492C41.734 2.48701 42.13 2.48701 42.46 2.46501C42.438 2.74001 42.438 3.04801 42.438 3.32301V8.74601C42.438 9.09801 42.449 9.95601 42.46 10.077H41.514C41.514 10 41.525 9.73601 41.525 9.43901H35.519C35.53 9.72501 35.53 9.98901 35.541 10.077H34.595C34.606 9.93401 34.628 9.12001 34.628 8.73501V3.32301C34.628 3.07001 34.628 2.72901 34.606 2.46501ZM35.519 3.35601V8.58101H41.536V3.35601H35.519Z" fill="black"/>
<path d="M45.122 5.23701C45.452 5.25901 46.035 5.29201 46.651 5.29201H52.679C53.229 5.29201 53.625 5.25901 53.867 5.23701V6.31501C53.647 6.30401 53.185 6.26001 52.69 6.26001H46.651C46.046 6.26001 45.463 6.28201 45.122 6.31501V5.23701Z" fill="#262626"/>
<path d="M45.122 5.23701C45.452 5.25901 46.035 5.29201 46.651 5.29201H52.679C53.229 5.29201 53.625 5.25901 53.867 5.23701V6.31501C53.647 6.30401 53.185 6.26001 52.69 6.26001H46.651C46.046 6.26001 45.463 6.28201 45.122 6.31501V5.23701Z" fill="black"/>
<path d="M63.536 1.65101C63.514 1.92601 63.503 2.23401 63.503 2.60801V4.39001C63.503 7.03001 63.14 7.89901 62.348 8.84501C61.633 9.70301 60.533 10.176 59.73 10.451L59.015 9.69201C60.027 9.43901 60.962 8.99901 61.644 8.22901C62.425 7.31601 62.557 6.42501 62.557 4.34601V2.60801C62.557 2.23401 62.535 1.92601 62.502 1.65101H63.536ZM58.432 1.73901C58.41 1.94801 58.388 2.26701 58.388 2.53101V6.20501C58.388 6.48001 58.41 6.84301 58.432 7.04101H57.42C57.442 6.87601 57.475 6.52401 57.475 6.19401V2.53101C57.475 2.33301 57.453 1.94801 57.431 1.73901H58.432Z" fill="#262626"/>
<path d="M63.536 1.65101C63.514 1.92601 63.503 2.23401 63.503 2.60801V4.39001C63.503 7.03001 63.14 7.89901 62.348 8.84501C61.633 9.70301 60.533 10.176 59.73 10.451L59.015 9.69201C60.027 9.43901 60.962 8.99901 61.644 8.22901C62.425 7.31601 62.557 6.42501 62.557 4.34601V2.60801C62.557 2.23401 62.535 1.92601 62.502 1.65101H63.536ZM58.432 1.73901C58.41 1.94801 58.388 2.26701 58.388 2.53101V6.20501C58.388 6.48001 58.41 6.84301 58.432 7.04101H57.42C57.442 6.87601 57.475 6.52401 57.475 6.19401V2.53101C57.475 2.33301 57.453 1.94801 57.431 1.73901H58.432Z" fill="black"/>
<path d="M68.497 1.93701C69.278 2.45401 70.686 3.59801 71.302 4.21401L70.609 4.90701C70.059 4.33501 68.684 3.15801 67.87 2.60801L68.497 1.93701ZM67.551 9.30701C69.476 9.02101 70.906 8.35001 71.951 7.70101C73.645 6.63401 74.987 5.00601 75.625 3.65301L76.153 4.58801C75.405 5.96301 74.118 7.45901 72.457 8.50401C71.357 9.19701 69.971 9.86801 68.134 10.209L67.551 9.30701Z" fill="#262626"/>
<path d="M68.497 1.93701C69.278 2.45401 70.686 3.59801 71.302 4.21401L70.609 4.90701C70.059 4.33501 68.684 3.15801 67.87 2.60801L68.497 1.93701ZM67.551 9.30701C69.476 9.02101 70.906 8.35001 71.951 7.70101C73.645 6.63401 74.987 5.00601 75.625 3.65301L76.153 4.58801C75.405 5.96301 74.118 7.45901 72.457 8.50401C71.357 9.19701 69.971 9.86801 68.134 10.209L67.551 9.30701Z" fill="black"/>
<path d="M85.415 1.20001C85.69 1.59601 86.086 2.25601 86.317 2.70701L85.723 2.97101C85.503 2.53101 85.129 1.86001 84.832 1.45301L85.415 1.20001ZM86.625 0.76001C86.911 1.16701 87.34 1.84901 87.549 2.25601L86.955 2.52001C86.713 2.04701 86.35 1.42001 86.042 1.01301L86.625 0.76001ZM82.456 1.72801C82.28 2.01401 82.082 2.38801 81.972 2.58601C81.895 2.74001 81.807 2.89401 81.719 3.04801H84.7C84.997 3.04801 85.239 3.01501 85.415 2.94901L86.141 3.38901C86.053 3.54301 85.943 3.79601 85.888 3.97201C85.591 5.08301 84.92 6.56801 83.941 7.76701C82.94 8.98801 81.62 9.98901 79.563 10.759L78.76 10.033C80.784 9.43901 82.159 8.44901 83.16 7.27201C84.007 6.27101 84.689 4.84101 84.909 3.84001H81.202C80.531 4.77501 79.618 5.75401 78.408 6.54601L77.649 5.98501C79.541 4.85201 80.619 3.24601 81.103 2.26701C81.213 2.06901 81.378 1.67301 81.444 1.38701L82.456 1.72801Z" fill="#262626"/>
<path d="M85.415 1.20001C85.69 1.59601 86.086 2.25601 86.317 2.70701L85.723 2.97101C85.503 2.53101 85.129 1.86001 84.832 1.45301L85.415 1.20001ZM86.625 0.76001C86.911 1.16701 87.34 1.84901 87.549 2.25601L86.955 2.52001C86.713 2.04701 86.35 1.42001 86.042 1.01301L86.625 0.76001ZM82.456 1.72801C82.28 2.01401 82.082 2.38801 81.972 2.58601C81.895 2.74001 81.807 2.89401 81.719 3.04801H84.7C84.997 3.04801 85.239 3.01501 85.415 2.94901L86.141 3.38901C86.053 3.54301 85.943 3.79601 85.888 3.97201C85.591 5.08301 84.92 6.56801 83.941 7.76701C82.94 8.98801 81.62 9.98901 79.563 10.759L78.76 10.033C80.784 9.43901 82.159 8.44901 83.16 7.27201C84.007 6.27101 84.689 4.84101 84.909 3.84001H81.202C80.531 4.77501 79.618 5.75401 78.408 6.54601L77.649 5.98501C79.541 4.85201 80.619 3.24601 81.103 2.26701C81.213 2.06901 81.378 1.67301 81.444 1.38701L82.456 1.72801Z" fill="black"/>
</svg>
