<svg width="30" height="30" viewBox="0 0 30 30" fill="none" xmlns="http://www.w3.org/2000/svg">
<g id="noun-gym-2194992 1" clip-path="url(#clip0_3130_20759)">
<g id="Group">
<path id="Vector" d="M24.7832 26.4129C24.7832 26.0238 24.6286 25.6505 24.3534 25.3753C24.0782 25.1002 23.705 24.9456 23.3158 24.9456H3.75059C3.36142 24.9456 2.98818 25.1002 2.71299 25.3753C2.4378 25.6505 2.2832 26.0238 2.2832 26.4129C2.2832 26.8021 2.4378 27.1754 2.71299 27.4505C2.98818 27.7257 3.36142 27.8803 3.75059 27.8803H23.3158C23.705 27.8803 24.0782 27.7257 24.3534 27.4505C24.6286 27.1754 24.7832 26.8021 24.7832 26.4129ZM7.17451 26.4129C7.17451 26.3162 7.20319 26.2216 7.25694 26.1412C7.31069 26.0608 7.38708 25.9981 7.47646 25.9611C7.56583 25.924 7.66418 25.9143 7.75906 25.9332C7.85395 25.9521 7.9411 25.9987 8.00951 26.0671C8.07791 26.1355 8.1245 26.2226 8.14337 26.3175C8.16224 26.4124 8.15256 26.5108 8.11554 26.6001C8.07851 26.6895 8.01582 26.7659 7.93538 26.8196C7.85495 26.8734 7.76038 26.9021 7.66364 26.9021C7.53391 26.9021 7.4095 26.8505 7.31777 26.7588C7.22604 26.6671 7.17451 26.5427 7.17451 26.4129ZM6.28625 26.9021H5.12799C5.248 26.587 5.248 26.2389 5.12799 25.9238H6.28625C6.16623 26.2389 6.16623 26.587 6.28625 26.9021ZM9.04103 25.9238H10.1993C10.0793 26.2389 10.0793 26.587 10.1993 26.9021H9.04103C9.16105 26.587 9.16105 26.2389 9.04103 25.9238ZM11.0876 26.4129C11.0876 26.3162 11.1162 26.2216 11.17 26.1412C11.2237 26.0608 11.3001 25.9981 11.3895 25.9611C11.4789 25.924 11.5772 25.9143 11.6721 25.9332C11.767 25.9521 11.8541 25.9987 11.9225 26.0671C11.991 26.1355 12.0375 26.2226 12.0564 26.3175C12.0753 26.4124 12.0656 26.5108 12.0286 26.6001C11.9916 26.6895 11.9289 26.7659 11.8484 26.8196C11.768 26.8734 11.6734 26.9021 11.5767 26.9021C11.447 26.9021 11.3225 26.8505 11.2308 26.7588C11.1391 26.6671 11.0876 26.5427 11.0876 26.4129ZM12.9541 25.9238H14.1123C13.9923 26.2389 13.9923 26.587 14.1123 26.9021H12.9541C13.0741 26.587 13.0741 26.2389 12.9541 25.9238ZM15.0006 26.4129C15.0006 26.3162 15.0293 26.2216 15.083 26.1412C15.1368 26.0608 15.2132 25.9981 15.3025 25.9611C15.3919 25.924 15.4903 25.9143 15.5852 25.9332C15.68 25.9521 15.7672 25.9987 15.8356 26.0671C15.904 26.1355 15.9506 26.2226 15.9695 26.3175C15.9883 26.4124 15.9786 26.5108 15.9416 26.6001C15.9046 26.6895 15.8419 26.7659 15.7615 26.8196C15.681 26.8734 15.5865 26.9021 15.4897 26.9021C15.36 26.9021 15.2356 26.8505 15.1439 26.7588C15.0521 26.6671 15.0006 26.5427 15.0006 26.4129ZM16.8671 25.9238H18.0254C17.9054 26.2389 17.9054 26.587 18.0254 26.9021H16.8671C16.9871 26.587 16.9871 26.2389 16.8671 25.9238ZM18.9136 26.4129C18.9136 26.3162 18.9423 26.2216 18.9961 26.1412C19.0498 26.0608 19.1262 25.9981 19.2156 25.9611C19.305 25.924 19.4033 25.9143 19.4982 25.9332C19.5931 25.9521 19.6802 25.9987 19.7486 26.0671C19.817 26.1355 19.8636 26.2226 19.8825 26.3175C19.9014 26.4124 19.8917 26.5108 19.8547 26.6001C19.8176 26.6895 19.755 26.7659 19.6745 26.8196C19.5941 26.8734 19.4995 26.9021 19.4028 26.9021C19.273 26.9021 19.1486 26.8505 19.0569 26.7588C18.9652 26.6671 18.9136 26.5427 18.9136 26.4129ZM20.7802 25.9238H21.9384C21.8184 26.2389 21.8184 26.587 21.9384 26.9021H20.7802C20.9002 26.587 20.9002 26.2389 20.7802 25.9238ZM23.8049 26.4129C23.8049 26.5097 23.7763 26.6043 23.7225 26.6847C23.6688 26.7651 23.5924 26.8278 23.503 26.8648C23.4136 26.9019 23.3153 26.9116 23.2204 26.8927C23.1255 26.8738 23.0384 26.8272 22.9699 26.7588C22.9015 26.6904 22.855 26.6033 22.8361 26.5084C22.8172 26.4135 22.8269 26.3151 22.8639 26.2258C22.9009 26.1364 22.9636 26.06 23.0441 26.0063C23.1245 25.9525 23.2191 25.9238 23.3158 25.9238C23.4455 25.9238 23.57 25.9754 23.6617 26.0671C23.7534 26.1588 23.8049 26.2832 23.8049 26.4129ZM3.26146 26.4129C3.26146 26.3162 3.29015 26.2216 3.3439 26.1412C3.39764 26.0608 3.47404 25.9981 3.56341 25.9611C3.65279 25.924 3.75114 25.9143 3.84602 25.9332C3.9409 25.9521 4.02806 25.9987 4.09646 26.0671C4.16487 26.1355 4.21145 26.2226 4.23033 26.3175C4.2492 26.4124 4.23951 26.5108 4.20249 26.6001C4.16547 26.6895 4.10278 26.7659 4.02234 26.8196C3.9419 26.8734 3.84734 26.9021 3.75059 26.9021C3.62087 26.9021 3.49646 26.8505 3.40473 26.7588C3.313 26.6671 3.26146 26.5427 3.26146 26.4129Z" fill="#8C7D5E"/>
<path id="Vector_2" d="M29.5105 20.178C29.4591 20.1318 29.3983 20.0971 29.3323 20.0763C29.2663 20.0555 29.1966 20.0492 29.128 20.0577L27.7178 20.2235V8.84489L28.721 8.21343C28.7754 8.17922 28.8225 8.13465 28.8597 8.08224C28.8968 8.02983 28.9233 7.97062 28.9375 7.90798C28.9518 7.84535 28.9536 7.78052 28.9428 7.71719C28.932 7.65387 28.9088 7.59329 28.8746 7.53891L27.8323 5.88272C27.7981 5.82834 27.7535 5.78124 27.7011 5.74409C27.6487 5.70694 27.5895 5.68048 27.5268 5.66622C27.4642 5.65196 27.3994 5.65017 27.3361 5.66097C27.2727 5.67176 27.2121 5.69492 27.1578 5.72913L20.1202 10.1582C20.0106 10.2274 19.9329 10.3372 19.9042 10.4635C19.8755 10.5899 19.8981 10.7225 19.9671 10.8322L21.0089 12.4884C21.0431 12.5429 21.0877 12.59 21.1402 12.6272C21.1927 12.6644 21.2519 12.6909 21.3146 12.7051C21.3501 12.7133 21.3863 12.7174 21.4227 12.7173C21.5149 12.7172 21.6052 12.6912 21.6834 12.6425L24.1858 11.0675L22.918 20.788L20.8147 21.036C20.6954 21.0496 20.5852 21.1066 20.5052 21.1961C20.4252 21.2857 20.3809 21.4016 20.3809 21.5217V22.9891H17.4461V22.7416C17.4461 22.425 17.3437 22.1168 17.1541 21.8632C16.9646 21.6096 16.6981 21.4241 16.3945 21.3343L15.8496 21.1734L16.462 17.1939C16.4774 17.0936 16.4614 16.9911 16.416 16.9004L14.5113 13.091V11.7391H16.4101C16.7565 11.7453 17.0945 11.6319 17.3671 11.4181C17.6397 11.2043 17.8303 10.9031 17.9069 10.5652C17.9499 10.3519 17.9451 10.1318 17.8928 9.92058C17.8405 9.70941 17.7419 9.51249 17.6042 9.34403C17.4666 9.17557 17.2932 9.03977 17.0967 8.94643C16.9002 8.8531 16.6854 8.80455 16.4678 8.80429H14.864L14.2335 6.91332C14.1502 6.66527 14.0041 6.44301 13.8094 6.26815C14.3046 5.90235 14.6722 5.39008 14.8603 4.80382C15.0483 4.21757 15.0472 3.58703 14.8571 3.00145C14.667 2.41586 14.2976 1.90489 13.8011 1.54083C13.3046 1.17678 12.7062 0.978091 12.0905 0.972883C11.4749 0.967675 10.8732 1.15621 10.3706 1.51181C9.86801 1.86741 9.48998 2.37207 9.29002 2.95435C9.09005 3.53664 9.07827 4.16707 9.25635 4.75642C9.43442 5.34577 9.79333 5.86419 10.2823 6.23832C10.1845 6.27843 10.0866 6.31218 9.9937 6.35864L9.97609 6.36745C9.8336 6.37166 9.69245 6.3962 9.5569 6.44033L7.34017 7.19652C6.86123 7.36012 6.4436 7.66593 6.14303 8.07312C5.84247 8.48031 5.67328 8.9695 5.65805 9.47538L5.59837 11.4613C5.58234 11.7727 5.66132 12.0816 5.82484 12.3471C5.95353 12.5489 6.12966 12.7162 6.33786 12.8344C6.54606 12.9526 6.78 13.018 7.0193 13.025H7.0643C7.44588 13.0252 7.81253 12.8767 8.08647 12.6111C8.36042 12.3454 8.52011 11.9835 8.53169 11.6021L8.5806 9.99826L9.62 9.68473V13.1752L9.17391 16.7414L4.58832 18.1173C4.48736 18.1476 4.39886 18.2096 4.33602 18.2942C4.27318 18.3789 4.23935 18.4815 4.23957 18.5869V21.5217C4.23957 21.6514 4.2911 21.7758 4.38283 21.8676C4.47456 21.9593 4.59897 22.0108 4.7287 22.0108H5.49223C5.80002 22.0106 6.09995 21.9136 6.3496 21.7336C6.59924 21.5536 6.78595 21.2996 6.88332 21.0076L7.06185 20.472L11.1935 19.5539C11.2583 19.5395 11.3195 19.512 11.3733 19.4731C11.4271 19.4343 11.4725 19.3849 11.5066 19.3279L12.7015 17.3362L13.0439 17.7764V22.9891H3.86979C3.02381 22.9769 2.202 23.2712 1.55606 23.8177C0.910118 24.3641 0.483651 25.1257 0.355383 25.962C0.291869 26.4454 0.332205 26.9369 0.473699 27.4035C0.615193 27.8701 0.85459 28.3011 1.17591 28.6679C1.49723 29.0346 1.89308 29.3286 2.33704 29.5302C2.781 29.7318 3.26285 29.8363 3.75044 29.8369H29.1852C29.3149 29.8369 29.4394 29.7854 29.5311 29.6936C29.6228 29.6019 29.6744 29.4775 29.6744 29.3478V20.5434C29.6744 20.4744 29.6598 20.4062 29.6315 20.3432C29.6033 20.2802 29.562 20.2239 29.5105 20.178ZM21.5763 11.5537L21.0554 10.7256L27.2673 6.81745L27.7888 7.64603L21.5763 11.5537ZM25.2609 10.391L26.7396 9.46022V20.3385L23.9202 20.6706L25.2609 10.391ZM14.0471 9.44799C14.0796 9.54543 14.1419 9.63018 14.2252 9.69023C14.3085 9.75028 14.4086 9.78258 14.5113 9.78256H16.4678C16.5976 9.78256 16.722 9.83409 16.8137 9.92582C16.9054 10.0175 16.957 10.142 16.957 10.2717C16.957 10.4014 16.9054 10.5258 16.8137 10.6176C16.722 10.7093 16.5976 10.7608 16.4678 10.7608H13.3829L12.1933 7.58929C12.1667 7.51828 12.1549 7.44254 12.1589 7.36679C12.1628 7.29104 12.1824 7.21693 12.2163 7.14908C12.2615 7.05795 12.3312 6.98126 12.4176 6.92768C12.504 6.87409 12.6037 6.84573 12.7054 6.84582H12.7837C12.8989 6.84563 13.0112 6.88179 13.1046 6.94915C13.1981 7.01651 13.2679 7.11164 13.3041 7.22098L14.0471 9.44799ZM12.0657 1.95647C12.4526 1.95647 12.8309 2.07122 13.1526 2.2862C13.4744 2.50119 13.7252 2.80676 13.8732 3.16426C14.0213 3.52177 14.0601 3.91516 13.9846 4.29469C13.9091 4.67422 13.7227 5.02284 13.4491 5.29646C13.1755 5.57009 12.8269 5.75643 12.4474 5.83192C12.0678 5.90741 11.6744 5.86867 11.3169 5.72058C10.9594 5.5725 10.6539 5.32172 10.4389 4.99998C10.2239 4.67823 10.1091 4.29995 10.1091 3.91299C10.1091 3.39409 10.3153 2.89644 10.6822 2.52952C11.0491 2.1626 11.5468 1.95647 12.0657 1.95647ZM7.95696 9.16332C7.8587 9.19293 7.77225 9.2527 7.70983 9.33416C7.64742 9.41562 7.61221 9.51465 7.60919 9.61723L7.55 11.5738C7.54515 11.703 7.48965 11.8252 7.39547 11.9139C7.3013 12.0026 7.17601 12.0506 7.04669 12.0477C6.91712 12.0439 6.79437 11.9888 6.70541 11.8945C6.61644 11.8002 6.56854 11.6745 6.57223 11.5449L6.63337 9.5062C6.64269 9.19917 6.74546 8.9023 6.92795 8.65522C7.11044 8.40814 7.36397 8.22262 7.65468 8.12343L9.62 7.45234V8.6644L7.95696 9.16332ZM10.7748 18.6441L6.57761 19.5764C6.49508 19.5948 6.41871 19.6342 6.35596 19.6909C6.29321 19.7475 6.24621 19.8195 6.21957 19.8997L5.95348 20.698C5.92105 20.7953 5.85883 20.88 5.77561 20.9401C5.69239 21.0001 5.5924 21.0325 5.48978 21.0326H5.21783V18.9508L9.76038 17.5881C9.85122 17.5609 9.93218 17.5078 9.9934 17.4354C10.0546 17.3629 10.0935 17.2743 10.1052 17.1802L10.4476 14.441L12.0573 16.5101L10.7748 18.6441ZM13.918 17.3083L10.5983 13.0387V7.15544C10.8098 7.06556 11.0292 6.99564 11.2537 6.94658C11.1525 7.26886 11.1607 7.61557 11.2772 7.93266L12.5856 11.4221C12.6206 11.5153 12.6833 11.5956 12.7652 11.6522C12.8471 11.7089 12.9443 11.7392 13.0439 11.7391H13.533V13.2065C13.533 13.2823 13.5506 13.3572 13.5844 13.4251L15.4715 17.1988L14.818 21.4473C14.8 21.5643 14.825 21.6838 14.8884 21.7838C14.9518 21.8837 15.0493 21.9572 15.1628 21.9908L16.1171 22.2725C16.2181 22.3029 16.3066 22.3648 16.3698 22.4492C16.4329 22.5337 16.4673 22.6362 16.4678 22.7416V22.9891H14.0222V17.6086C14.0223 17.4999 13.9861 17.3942 13.9195 17.3083H13.918ZM20.87 28.8586H3.75044C3.10181 28.8586 2.47975 28.601 2.0211 28.1423C1.56245 27.6837 1.30478 27.0616 1.30478 26.413C1.30478 25.7644 1.56245 25.1423 2.0211 24.6837C2.47975 24.225 3.10181 23.9673 3.75044 23.9673H23.3157C23.9643 23.9673 24.5863 24.225 25.045 24.6837C25.5036 25.1423 25.7613 25.7644 25.7613 26.413C25.7613 27.0616 25.5036 27.6837 25.045 28.1423C24.5863 28.601 23.9643 28.8586 23.3157 28.8586H20.87ZM28.6961 28.8586H25.707C26.1943 28.3836 26.5287 27.774 26.6676 27.1078C26.8066 26.4417 26.7436 25.7492 26.4869 25.119C26.2301 24.4888 25.7912 23.9495 25.2263 23.5701C24.6614 23.1907 23.9962 22.9884 23.3157 22.9891H21.3591V21.957L28.6961 21.0937V28.8586Z" fill="#8C7D5E"/>
</g>
</g>
<defs>
<clipPath id="clip0_3130_20759">
<rect width="30" height="30" fill="white"/>
</clipPath>
</defs>
</svg>
