<svg width="66" height="11" viewBox="0 0 66 11" fill="none" xmlns="http://www.w3.org/2000/svg">
<path d="M3.64101 7.932L4.48801 8.262C3.70701 9.208 2.46401 10.22 1.36401 10.858C1.21001 10.693 0.913008 10.429 0.715008 10.275C1.79301 9.714 3.02501 8.757 3.64101 7.932ZM6.45701 8.339L7.16101 7.921C8.17301 8.636 9.53701 9.692 10.23 10.341L9.46001 10.847C8.81101 10.198 7.49101 9.109 6.45701 8.339ZM3.93801 3.906V6.502H7.06201V3.906H3.93801ZM7.89801 6.502H10.472V7.294H0.583008V6.502H3.11301V3.906H1.02301V3.114H3.11301V0.891999H3.93801V3.114H7.06201V0.891999H7.89801V3.114H10.076V3.906H7.89801V6.502Z" fill="#262626"/>
<path d="M3.64101 7.932L4.48801 8.262C3.70701 9.208 2.46401 10.22 1.36401 10.858C1.21001 10.693 0.913008 10.429 0.715008 10.275C1.79301 9.714 3.02501 8.757 3.64101 7.932ZM6.45701 8.339L7.16101 7.921C8.17301 8.636 9.53701 9.692 10.23 10.341L9.46001 10.847C8.81101 10.198 7.49101 9.109 6.45701 8.339ZM3.93801 3.906V6.502H7.06201V3.906H3.93801ZM7.89801 6.502H10.472V7.294H0.583008V6.502H3.11301V3.906H1.02301V3.114H3.11301V0.891999H3.93801V3.114H7.06201V0.891999H7.89801V3.114H10.076V3.906H7.89801V6.502Z" fill="black"/>
<path d="M16.962 6.711H19.921V4.885H16.962V6.711ZM13.475 6.711H16.148V4.885H13.519V5.534C13.519 5.897 13.508 6.304 13.475 6.711ZM16.148 2.355H13.519V4.115H16.148V2.355ZM19.921 4.115V2.355H16.962V4.115H19.921ZM20.724 1.574V9.736C20.724 10.264 20.581 10.506 20.229 10.649C19.855 10.781 19.217 10.792 18.183 10.781C18.15 10.561 18.018 10.209 17.908 9.989C18.678 10.022 19.426 10.011 19.624 10.011C19.844 10 19.921 9.934 19.921 9.725V7.492H16.962V10.737H16.148V7.492H13.398C13.233 8.713 12.859 9.967 12.023 10.902C11.902 10.737 11.572 10.462 11.396 10.363C12.606 8.999 12.716 7.063 12.716 5.534V1.574H20.724Z" fill="#262626"/>
<path d="M16.962 6.711H19.921V4.885H16.962V6.711ZM13.475 6.711H16.148V4.885H13.519V5.534C13.519 5.897 13.508 6.304 13.475 6.711ZM16.148 2.355H13.519V4.115H16.148V2.355ZM19.921 4.115V2.355H16.962V4.115H19.921ZM20.724 1.574V9.736C20.724 10.264 20.581 10.506 20.229 10.649C19.855 10.781 19.217 10.792 18.183 10.781C18.15 10.561 18.018 10.209 17.908 9.989C18.678 10.022 19.426 10.011 19.624 10.011C19.844 10 19.921 9.934 19.921 9.725V7.492H16.962V10.737H16.148V7.492H13.398C13.233 8.713 12.859 9.967 12.023 10.902C11.902 10.737 11.572 10.462 11.396 10.363C12.606 8.999 12.716 7.063 12.716 5.534V1.574H20.724Z" fill="black"/>
<path d="M24.453 4.852H26.499C26.499 4.852 26.499 5.116 26.488 5.226C26.411 8.867 26.345 10.099 26.07 10.462C25.894 10.704 25.718 10.781 25.432 10.814C25.168 10.847 24.717 10.836 24.266 10.814C24.244 10.605 24.178 10.286 24.057 10.088C24.508 10.132 24.915 10.132 25.069 10.132C25.234 10.132 25.322 10.11 25.41 9.978C25.597 9.725 25.663 8.658 25.729 5.6H24.409C24.277 7.69 23.936 9.593 23.012 10.836C22.88 10.66 22.616 10.418 22.396 10.297C23.54 8.779 23.672 6.051 23.716 3.345H22.517V2.586H24.453V0.814999H25.223V2.586H27.137V3.345H24.497C24.486 3.851 24.475 4.357 24.453 4.852ZM32.461 3.081H28.226C27.918 3.763 27.566 4.368 27.159 4.852C27.027 4.709 26.708 4.412 26.532 4.28C27.28 3.455 27.841 2.146 28.149 0.792999L28.941 0.957999C28.831 1.431 28.688 1.893 28.534 2.333H32.461V3.081ZM29.117 10.088H31.251C31.735 10.088 31.823 9.879 31.867 8.823C32.054 8.944 32.34 9.076 32.56 9.12C32.461 10.418 32.219 10.781 31.295 10.781H29.062C27.973 10.781 27.676 10.539 27.676 9.571V6.876L27.016 7.184L26.708 6.513L27.676 6.062V4.346H28.413V5.71L29.447 5.226V3.488H30.151V4.896L31.361 4.335L31.416 4.28L31.548 4.181L32.065 4.368L32.032 4.5C32.032 6.062 32.01 7.448 31.966 7.756C31.933 8.108 31.757 8.284 31.471 8.35C31.229 8.416 30.899 8.427 30.646 8.416C30.624 8.218 30.558 7.954 30.47 7.778C30.679 7.8 30.954 7.789 31.042 7.789C31.174 7.789 31.24 7.767 31.273 7.58C31.306 7.415 31.328 6.447 31.328 5.138L30.151 5.699V8.988H29.447V6.029L28.413 6.524V9.582C28.413 10 28.512 10.088 29.117 10.088Z" fill="#262626"/>
<path d="M24.453 4.852H26.499C26.499 4.852 26.499 5.116 26.488 5.226C26.411 8.867 26.345 10.099 26.07 10.462C25.894 10.704 25.718 10.781 25.432 10.814C25.168 10.847 24.717 10.836 24.266 10.814C24.244 10.605 24.178 10.286 24.057 10.088C24.508 10.132 24.915 10.132 25.069 10.132C25.234 10.132 25.322 10.11 25.41 9.978C25.597 9.725 25.663 8.658 25.729 5.6H24.409C24.277 7.69 23.936 9.593 23.012 10.836C22.88 10.66 22.616 10.418 22.396 10.297C23.54 8.779 23.672 6.051 23.716 3.345H22.517V2.586H24.453V0.814999H25.223V2.586H27.137V3.345H24.497C24.486 3.851 24.475 4.357 24.453 4.852ZM32.461 3.081H28.226C27.918 3.763 27.566 4.368 27.159 4.852C27.027 4.709 26.708 4.412 26.532 4.28C27.28 3.455 27.841 2.146 28.149 0.792999L28.941 0.957999C28.831 1.431 28.688 1.893 28.534 2.333H32.461V3.081ZM29.117 10.088H31.251C31.735 10.088 31.823 9.879 31.867 8.823C32.054 8.944 32.34 9.076 32.56 9.12C32.461 10.418 32.219 10.781 31.295 10.781H29.062C27.973 10.781 27.676 10.539 27.676 9.571V6.876L27.016 7.184L26.708 6.513L27.676 6.062V4.346H28.413V5.71L29.447 5.226V3.488H30.151V4.896L31.361 4.335L31.416 4.28L31.548 4.181L32.065 4.368L32.032 4.5C32.032 6.062 32.01 7.448 31.966 7.756C31.933 8.108 31.757 8.284 31.471 8.35C31.229 8.416 30.899 8.427 30.646 8.416C30.624 8.218 30.558 7.954 30.47 7.778C30.679 7.8 30.954 7.789 31.042 7.789C31.174 7.789 31.24 7.767 31.273 7.58C31.306 7.415 31.328 6.447 31.328 5.138L30.151 5.699V8.988H29.447V6.029L28.413 6.524V9.582C28.413 10 28.512 10.088 29.117 10.088Z" fill="black"/>
<path d="M37.202 1.178V1.838H34.034V1.178H37.202ZM37.609 2.619V3.29H33.462V2.619H37.609ZM36.509 7.701H34.672V9.549H36.509V7.701ZM37.224 7.03V10.209H34.672V10.715H33.957V7.03H37.224ZM33.979 6.216V5.556H37.235V6.216H33.979ZM33.979 4.753V4.104H37.235V4.753H33.979ZM39.248 1.871V2.476C39.248 3.422 39.006 4.577 37.84 5.347C37.719 5.204 37.411 4.918 37.246 4.808C38.302 4.137 38.467 3.224 38.467 2.465V1.145H41.899V3.829C41.899 4.071 41.932 4.115 42.108 4.115H42.658C42.856 4.115 42.9 3.972 42.922 2.916C43.076 3.048 43.395 3.169 43.604 3.213C43.538 4.5 43.34 4.819 42.757 4.819H41.998C41.327 4.819 41.129 4.61 41.129 3.829V1.871H39.248ZM42.416 5.49L42.944 5.699C42.57 7.052 41.921 8.119 41.085 8.944C41.8 9.483 42.647 9.89 43.615 10.132C43.439 10.297 43.197 10.627 43.087 10.825C42.086 10.528 41.217 10.077 40.469 9.472C39.655 10.099 38.709 10.539 37.708 10.836C37.631 10.638 37.422 10.286 37.268 10.121C38.203 9.879 39.094 9.483 39.864 8.911C39.215 8.24 38.698 7.437 38.324 6.513L39.05 6.293C39.369 7.096 39.853 7.811 40.469 8.416C41.085 7.833 41.58 7.118 41.91 6.271H37.752V5.523H42.273L42.416 5.49Z" fill="#262626"/>
<path d="M37.202 1.178V1.838H34.034V1.178H37.202ZM37.609 2.619V3.29H33.462V2.619H37.609ZM36.509 7.701H34.672V9.549H36.509V7.701ZM37.224 7.03V10.209H34.672V10.715H33.957V7.03H37.224ZM33.979 6.216V5.556H37.235V6.216H33.979ZM33.979 4.753V4.104H37.235V4.753H33.979ZM39.248 1.871V2.476C39.248 3.422 39.006 4.577 37.84 5.347C37.719 5.204 37.411 4.918 37.246 4.808C38.302 4.137 38.467 3.224 38.467 2.465V1.145H41.899V3.829C41.899 4.071 41.932 4.115 42.108 4.115H42.658C42.856 4.115 42.9 3.972 42.922 2.916C43.076 3.048 43.395 3.169 43.604 3.213C43.538 4.5 43.34 4.819 42.757 4.819H41.998C41.327 4.819 41.129 4.61 41.129 3.829V1.871H39.248ZM42.416 5.49L42.944 5.699C42.57 7.052 41.921 8.119 41.085 8.944C41.8 9.483 42.647 9.89 43.615 10.132C43.439 10.297 43.197 10.627 43.087 10.825C42.086 10.528 41.217 10.077 40.469 9.472C39.655 10.099 38.709 10.539 37.708 10.836C37.631 10.638 37.422 10.286 37.268 10.121C38.203 9.879 39.094 9.483 39.864 8.911C39.215 8.24 38.698 7.437 38.324 6.513L39.05 6.293C39.369 7.096 39.853 7.811 40.469 8.416C41.085 7.833 41.58 7.118 41.91 6.271H37.752V5.523H42.273L42.416 5.49Z" fill="black"/>
<path d="M45.155 5.919L45.111 5.094C45.606 5.083 46.178 5.072 46.816 5.05C47.179 4.423 47.586 3.587 47.861 2.894H44.77V2.113H49.071V0.792999H49.885V2.113H54.252V2.894H48.829C48.477 3.587 48.07 4.379 47.685 5.017C49.016 4.973 50.534 4.918 52.03 4.863C51.557 4.412 51.04 3.961 50.556 3.587L51.216 3.18C52.294 3.994 53.57 5.171 54.164 5.996L53.46 6.469C53.284 6.205 53.031 5.908 52.745 5.589C49.973 5.743 47.058 5.864 45.155 5.919ZM47.652 6.216H48.51C48.323 8.581 47.762 10.066 44.99 10.825C44.913 10.616 44.693 10.286 44.517 10.132C47.069 9.505 47.498 8.251 47.652 6.216ZM51.81 9.989H53.218C53.647 9.989 53.713 9.736 53.768 8.086C53.955 8.24 54.296 8.372 54.527 8.438C54.428 10.286 54.208 10.759 53.273 10.759H51.711C50.743 10.759 50.479 10.495 50.479 9.593V6.15H51.304V9.593C51.304 9.923 51.381 9.989 51.81 9.989Z" fill="#262626"/>
<path d="M45.155 5.919L45.111 5.094C45.606 5.083 46.178 5.072 46.816 5.05C47.179 4.423 47.586 3.587 47.861 2.894H44.77V2.113H49.071V0.792999H49.885V2.113H54.252V2.894H48.829C48.477 3.587 48.07 4.379 47.685 5.017C49.016 4.973 50.534 4.918 52.03 4.863C51.557 4.412 51.04 3.961 50.556 3.587L51.216 3.18C52.294 3.994 53.57 5.171 54.164 5.996L53.46 6.469C53.284 6.205 53.031 5.908 52.745 5.589C49.973 5.743 47.058 5.864 45.155 5.919ZM47.652 6.216H48.51C48.323 8.581 47.762 10.066 44.99 10.825C44.913 10.616 44.693 10.286 44.517 10.132C47.069 9.505 47.498 8.251 47.652 6.216ZM51.81 9.989H53.218C53.647 9.989 53.713 9.736 53.768 8.086C53.955 8.24 54.296 8.372 54.527 8.438C54.428 10.286 54.208 10.759 53.273 10.759H51.711C50.743 10.759 50.479 10.495 50.479 9.593V6.15H51.304V9.593C51.304 9.923 51.381 9.989 51.81 9.989Z" fill="black"/>
<path d="M65.34 7.987H61.358C62.139 9.164 63.547 9.879 65.461 10.154C65.285 10.319 65.076 10.649 64.966 10.858C62.821 10.484 61.325 9.56 60.489 7.987H60.39C59.818 9.076 58.619 10.088 56.111 10.836C56.023 10.66 55.792 10.352 55.616 10.176C57.761 9.582 58.883 8.812 59.455 7.987H55.726V7.261H59.829C59.961 6.92 60.016 6.568 60.038 6.227H56.991V5.545H60.06V4.566H56.815V3.873H60.06V2.96H60.874V3.873H64.273V2.608H56.683V3.983H55.891V1.871H60.082V0.803999H60.896V1.871H65.098V3.983H64.273V4.566H60.874V5.545H64.119V6.227H60.852C60.83 6.568 60.775 6.92 60.676 7.261H65.34V7.987Z" fill="#262626"/>
<path d="M65.34 7.987H61.358C62.139 9.164 63.547 9.879 65.461 10.154C65.285 10.319 65.076 10.649 64.966 10.858C62.821 10.484 61.325 9.56 60.489 7.987H60.39C59.818 9.076 58.619 10.088 56.111 10.836C56.023 10.66 55.792 10.352 55.616 10.176C57.761 9.582 58.883 8.812 59.455 7.987H55.726V7.261H59.829C59.961 6.92 60.016 6.568 60.038 6.227H56.991V5.545H60.06V4.566H56.815V3.873H60.06V2.96H60.874V3.873H64.273V2.608H56.683V3.983H55.891V1.871H60.082V0.803999H60.896V1.871H65.098V3.983H64.273V4.566H60.874V5.545H64.119V6.227H60.852C60.83 6.568 60.775 6.92 60.676 7.261H65.34V7.987Z" fill="black"/>
</svg>
