<svg width="56" height="11" viewBox="0 0 56 11" fill="none" xmlns="http://www.w3.org/2000/svg">
<path d="M4.48199 3.125V4.28H7.133V5.028H4.48199V6.128H6.748V9.131C6.748 9.505 6.693 9.714 6.418 9.846C6.165 9.967 5.74699 9.978 5.14199 9.978C5.10899 9.758 5.00999 9.472 4.89999 9.263C5.37299 9.274 5.73599 9.274 5.84599 9.263C5.96699 9.263 5.99999 9.23 5.99999 9.12V6.876H4.48199V10.825H3.70099V6.876H2.28199V9.945H1.53399V6.128H3.70099V5.028H1.02799V4.28H3.70099V3.125H2.27099C2.09499 3.554 1.90799 3.95 1.72099 4.258C1.55599 4.159 1.193 4.016 0.994995 3.95C1.49 3.213 1.87499 2.113 2.09499 1.057L2.86499 1.211C2.76599 1.596 2.65599 2.003 2.53499 2.377H3.70099V0.836996H4.48199V2.377H6.70399V3.125H4.48199ZM8.695 1.794V7.844H7.92499V1.794H8.695ZM9.87199 0.913996H10.664V9.714C10.664 10.253 10.543 10.495 10.213 10.638C9.87199 10.781 9.267 10.803 8.453 10.803C8.409 10.572 8.299 10.198 8.189 9.945C8.83799 9.967 9.45399 9.967 9.641 9.967C9.817 9.956 9.87199 9.912 9.87199 9.725V0.913996Z" fill="#262626"/>
<path d="M4.48199 3.125V4.28H7.133V5.028H4.48199V6.128H6.748V9.131C6.748 9.505 6.693 9.714 6.418 9.846C6.165 9.967 5.74699 9.978 5.14199 9.978C5.10899 9.758 5.00999 9.472 4.89999 9.263C5.37299 9.274 5.73599 9.274 5.84599 9.263C5.96699 9.263 5.99999 9.23 5.99999 9.12V6.876H4.48199V10.825H3.70099V6.876H2.28199V9.945H1.53399V6.128H3.70099V5.028H1.02799V4.28H3.70099V3.125H2.27099C2.09499 3.554 1.90799 3.95 1.72099 4.258C1.55599 4.159 1.193 4.016 0.994995 3.95C1.49 3.213 1.87499 2.113 2.09499 1.057L2.86499 1.211C2.76599 1.596 2.65599 2.003 2.53499 2.377H3.70099V0.836996H4.48199V2.377H6.70399V3.125H4.48199ZM8.695 1.794V7.844H7.92499V1.794H8.695ZM9.87199 0.913996H10.664V9.714C10.664 10.253 10.543 10.495 10.213 10.638C9.87199 10.781 9.267 10.803 8.453 10.803C8.409 10.572 8.299 10.198 8.189 9.945C8.83799 9.967 9.45399 9.967 9.641 9.967C9.817 9.956 9.87199 9.912 9.87199 9.725V0.913996Z" fill="black"/>
<path d="M13.117 3.015V4.335H12.38V2.476H16.571V1.86H13.007V1.233H20.993V1.86H17.363V2.476H21.631V4.335H20.872V3.015H17.363V5.336H16.571V3.015H13.117ZM17.913 5.083V4.599H20.619V5.083H17.913ZM17.913 3.576H20.344V4.06H17.913V3.576ZM13.414 5.083V4.599H16.032V5.083H13.414ZM13.645 3.576H16.021V4.06H13.645V3.576ZM15.735 8.339V9.901C16.527 9.802 17.396 9.703 18.254 9.615C17.781 9.263 17.385 8.834 17.088 8.339H15.735ZM20.63 8.383L21.224 8.713C20.696 9.054 20.047 9.351 19.486 9.571C20.212 9.901 21.081 10.11 22.06 10.209C21.906 10.352 21.719 10.649 21.631 10.847C20.289 10.66 19.167 10.264 18.309 9.648L18.331 10.209C16.758 10.418 15.108 10.627 13.942 10.759L13.788 10.11C14.118 10.077 14.503 10.033 14.921 9.989V8.339H13.667C13.524 9.186 13.183 10.066 12.468 10.737C12.369 10.594 12.072 10.319 11.896 10.231C12.886 9.307 13.018 8.053 13.018 7.096V5.6H21.499V6.183H13.766V7.118C13.766 7.316 13.755 7.525 13.744 7.745H21.961V8.339H17.836C18.111 8.713 18.485 9.021 18.925 9.285C19.497 9.032 20.201 8.658 20.63 8.383ZM20.839 7.217H14.349V6.689H20.839V7.217Z" fill="#262626"/>
<path d="M13.117 3.015V4.335H12.38V2.476H16.571V1.86H13.007V1.233H20.993V1.86H17.363V2.476H21.631V4.335H20.872V3.015H17.363V5.336H16.571V3.015H13.117ZM17.913 5.083V4.599H20.619V5.083H17.913ZM17.913 3.576H20.344V4.06H17.913V3.576ZM13.414 5.083V4.599H16.032V5.083H13.414ZM13.645 3.576H16.021V4.06H13.645V3.576ZM15.735 8.339V9.901C16.527 9.802 17.396 9.703 18.254 9.615C17.781 9.263 17.385 8.834 17.088 8.339H15.735ZM20.63 8.383L21.224 8.713C20.696 9.054 20.047 9.351 19.486 9.571C20.212 9.901 21.081 10.11 22.06 10.209C21.906 10.352 21.719 10.649 21.631 10.847C20.289 10.66 19.167 10.264 18.309 9.648L18.331 10.209C16.758 10.418 15.108 10.627 13.942 10.759L13.788 10.11C14.118 10.077 14.503 10.033 14.921 9.989V8.339H13.667C13.524 9.186 13.183 10.066 12.468 10.737C12.369 10.594 12.072 10.319 11.896 10.231C12.886 9.307 13.018 8.053 13.018 7.096V5.6H21.499V6.183H13.766V7.118C13.766 7.316 13.755 7.525 13.744 7.745H21.961V8.339H17.836C18.111 8.713 18.485 9.021 18.925 9.285C19.497 9.032 20.201 8.658 20.63 8.383ZM20.839 7.217H14.349V6.689H20.839V7.217Z" fill="black"/>
<path d="M28 4.654C28.649 4.654 29.166 5.171 29.166 5.82C29.166 6.469 28.649 6.986 28 6.986C27.351 6.986 26.834 6.469 26.834 5.82C26.834 5.171 27.351 4.654 28 4.654Z" fill="#262626"/>
<path d="M28 4.654C28.649 4.654 29.166 5.171 29.166 5.82C29.166 6.469 28.649 6.986 28 6.986C27.351 6.986 26.834 6.469 26.834 5.82C26.834 5.171 27.351 4.654 28 4.654Z" fill="black"/>
<path d="M35.953 4.247V6.238H38.582V4.247H35.953ZM39.814 2.322H37.053C36.723 2.729 36.36 3.125 35.942 3.51H38.945C39.253 3.158 39.572 2.718 39.814 2.322ZM42.278 6.238V4.247H39.363V6.238H42.278ZM41.156 10.011H42.707C43.125 10.011 43.202 9.813 43.246 8.482C43.433 8.614 43.774 8.746 44.005 8.812C43.906 10.385 43.675 10.77 42.773 10.77H41.068C40.045 10.77 39.792 10.528 39.792 9.648V6.964H38.021C37.746 8.9 37.064 10.176 34.413 10.836C34.336 10.638 34.116 10.286 33.94 10.132C36.371 9.593 36.943 8.548 37.152 6.964H35.128V4.192C34.941 4.335 34.754 4.467 34.556 4.599C34.424 4.401 34.171 4.115 33.984 3.983C35.491 3.07 36.558 1.794 37.119 0.770996L38.021 0.946997C37.889 1.167 37.735 1.398 37.581 1.629H40.287L40.408 1.585L40.969 1.959C40.694 2.454 40.298 3.026 39.891 3.51H43.125V6.964H40.617V9.648C40.617 9.956 40.705 10.011 41.156 10.011Z" fill="#262626"/>
<path d="M35.953 4.247V6.238H38.582V4.247H35.953ZM39.814 2.322H37.053C36.723 2.729 36.36 3.125 35.942 3.51H38.945C39.253 3.158 39.572 2.718 39.814 2.322ZM42.278 6.238V4.247H39.363V6.238H42.278ZM41.156 10.011H42.707C43.125 10.011 43.202 9.813 43.246 8.482C43.433 8.614 43.774 8.746 44.005 8.812C43.906 10.385 43.675 10.77 42.773 10.77H41.068C40.045 10.77 39.792 10.528 39.792 9.648V6.964H38.021C37.746 8.9 37.064 10.176 34.413 10.836C34.336 10.638 34.116 10.286 33.94 10.132C36.371 9.593 36.943 8.548 37.152 6.964H35.128V4.192C34.941 4.335 34.754 4.467 34.556 4.599C34.424 4.401 34.171 4.115 33.984 3.983C35.491 3.07 36.558 1.794 37.119 0.770996L38.021 0.946997C37.889 1.167 37.735 1.398 37.581 1.629H40.287L40.408 1.585L40.969 1.959C40.694 2.454 40.298 3.026 39.891 3.51H43.125V6.964H40.617V9.648C40.617 9.956 40.705 10.011 41.156 10.011Z" fill="black"/>
<path d="M46.117 3.015V4.335H45.38V2.476H49.571V1.86H46.007V1.233H53.993V1.86H50.363V2.476H54.631V4.335H53.872V3.015H50.363V5.336H49.571V3.015H46.117ZM50.913 5.083V4.599H53.619V5.083H50.913ZM50.913 3.576H53.344V4.06H50.913V3.576ZM46.414 5.083V4.599H49.032V5.083H46.414ZM46.645 3.576H49.021V4.06H46.645V3.576ZM48.735 8.339V9.901C49.527 9.802 50.396 9.703 51.254 9.615C50.781 9.263 50.385 8.834 50.088 8.339H48.735ZM53.63 8.383L54.224 8.713C53.696 9.054 53.047 9.351 52.486 9.571C53.212 9.901 54.081 10.11 55.06 10.209C54.906 10.352 54.719 10.649 54.631 10.847C53.289 10.66 52.167 10.264 51.309 9.648L51.331 10.209C49.758 10.418 48.108 10.627 46.942 10.759L46.788 10.11C47.118 10.077 47.503 10.033 47.921 9.989V8.339H46.667C46.524 9.186 46.183 10.066 45.468 10.737C45.369 10.594 45.072 10.319 44.896 10.231C45.886 9.307 46.018 8.053 46.018 7.096V5.6H54.499V6.183H46.766V7.118C46.766 7.316 46.755 7.525 46.744 7.745H54.961V8.339H50.836C51.111 8.713 51.485 9.021 51.925 9.285C52.497 9.032 53.201 8.658 53.63 8.383ZM53.839 7.217H47.349V6.689H53.839V7.217Z" fill="#262626"/>
<path d="M46.117 3.015V4.335H45.38V2.476H49.571V1.86H46.007V1.233H53.993V1.86H50.363V2.476H54.631V4.335H53.872V3.015H50.363V5.336H49.571V3.015H46.117ZM50.913 5.083V4.599H53.619V5.083H50.913ZM50.913 3.576H53.344V4.06H50.913V3.576ZM46.414 5.083V4.599H49.032V5.083H46.414ZM46.645 3.576H49.021V4.06H46.645V3.576ZM48.735 8.339V9.901C49.527 9.802 50.396 9.703 51.254 9.615C50.781 9.263 50.385 8.834 50.088 8.339H48.735ZM53.63 8.383L54.224 8.713C53.696 9.054 53.047 9.351 52.486 9.571C53.212 9.901 54.081 10.11 55.06 10.209C54.906 10.352 54.719 10.649 54.631 10.847C53.289 10.66 52.167 10.264 51.309 9.648L51.331 10.209C49.758 10.418 48.108 10.627 46.942 10.759L46.788 10.11C47.118 10.077 47.503 10.033 47.921 9.989V8.339H46.667C46.524 9.186 46.183 10.066 45.468 10.737C45.369 10.594 45.072 10.319 44.896 10.231C45.886 9.307 46.018 8.053 46.018 7.096V5.6H54.499V6.183H46.766V7.118C46.766 7.316 46.755 7.525 46.744 7.745H54.961V8.339H50.836C51.111 8.713 51.485 9.021 51.925 9.285C52.497 9.032 53.201 8.658 53.63 8.383ZM53.839 7.217H47.349V6.689H53.839V7.217Z" fill="black"/>
</svg>
