<svg width="42" height="11" viewBox="0 0 42 11" fill="none" xmlns="http://www.w3.org/2000/svg">
<path d="M3.542 2.04698V4.02699H5.456V4.78598H3.542V5.07199C3.96 5.51199 5.104 6.85399 5.379 7.19499L4.884 7.86599C4.631 7.44799 4.015 6.62299 3.542 6.00699V10.814H2.739V5.97399C2.2 7.24999 1.485 8.49299 0.781 9.25199C0.682 9.03199 0.473 8.70199 0.319 8.50399C1.155 7.66799 2.035 6.16099 2.53 4.78598H0.594V4.02699H2.739V2.20098C2.123 2.29998 1.507 2.38799 0.924 2.46498C0.88 2.26699 0.792001 2.00299 0.693001 1.81599C2.145 1.61799 3.861 1.28799 4.829 0.902986L5.379 1.54099C4.873 1.72799 4.224 1.90398 3.542 2.04698ZM6.633 8.65799H9.086V2.59698H6.633V8.65799ZM5.83 1.81599H9.9V10.275H9.086V9.44999H6.633V10.352H5.83V1.81599Z" fill="#262626"/>
<path d="M3.542 2.04698V4.02699H5.456V4.78598H3.542V5.07199C3.96 5.51199 5.104 6.85399 5.379 7.19499L4.884 7.86599C4.631 7.44799 4.015 6.62299 3.542 6.00699V10.814H2.739V5.97399C2.2 7.24999 1.485 8.49299 0.781 9.25199C0.682 9.03199 0.473 8.70199 0.319 8.50399C1.155 7.66799 2.035 6.16099 2.53 4.78598H0.594V4.02699H2.739V2.20098C2.123 2.29998 1.507 2.38799 0.924 2.46498C0.88 2.26699 0.792001 2.00299 0.693001 1.81599C2.145 1.61799 3.861 1.28799 4.829 0.902986L5.379 1.54099C4.873 1.72799 4.224 1.90398 3.542 2.04698ZM6.633 8.65799H9.086V2.59698H6.633V8.65799ZM5.83 1.81599H9.9V10.275H9.086V9.44999H6.633V10.352H5.83V1.81599Z" fill="black"/>
<path d="M12.595 2.37699V3.64199H11.814V1.61799H16.06V0.803986H16.885V1.61799H21.219V3.64199H20.405V2.37699H12.595ZM16.885 9.79099H21.362V10.528H11.682V9.79099H16.06V8.41599H12.683V7.68999H16.06V6.45799C14.729 6.50199 13.497 6.53499 12.529 6.56799L12.485 5.81999C12.936 5.80899 13.453 5.80899 14.014 5.79799C14.333 5.32499 14.685 4.71999 14.949 4.20299H12.925V3.47698H20.152V4.20299H15.884C15.576 4.71999 15.213 5.29199 14.872 5.77599C16.104 5.74299 17.49 5.70999 18.865 5.66599C18.502 5.36898 18.117 5.08299 17.765 4.84099L18.348 4.43399C19.272 5.01699 20.383 5.90799 20.9 6.54599L20.284 7.00799C20.119 6.80999 19.899 6.57899 19.635 6.33699C18.722 6.36999 17.787 6.40299 16.885 6.42499V7.68999H20.405V8.41599H16.885V9.79099Z" fill="#262626"/>
<path d="M12.595 2.37699V3.64199H11.814V1.61799H16.06V0.803986H16.885V1.61799H21.219V3.64199H20.405V2.37699H12.595ZM16.885 9.79099H21.362V10.528H11.682V9.79099H16.06V8.41599H12.683V7.68999H16.06V6.45799C14.729 6.50199 13.497 6.53499 12.529 6.56799L12.485 5.81999C12.936 5.80899 13.453 5.80899 14.014 5.79799C14.333 5.32499 14.685 4.71999 14.949 4.20299H12.925V3.47698H20.152V4.20299H15.884C15.576 4.71999 15.213 5.29199 14.872 5.77599C16.104 5.74299 17.49 5.70999 18.865 5.66599C18.502 5.36898 18.117 5.08299 17.765 4.84099L18.348 4.43399C19.272 5.01699 20.383 5.90799 20.9 6.54599L20.284 7.00799C20.119 6.80999 19.899 6.57899 19.635 6.33699C18.722 6.36999 17.787 6.40299 16.885 6.42499V7.68999H20.405V8.41599H16.885V9.79099Z" fill="black"/>
<path d="M27.192 1.28798C27.137 1.43098 27.093 1.62899 27.06 1.78299C27.016 2.01399 26.972 2.29998 26.928 2.61899C28.325 2.55298 29.667 2.40999 30.789 2.14599L30.8 2.95998C29.645 3.15798 28.182 3.31199 26.84 3.37799C26.785 3.80699 26.752 4.26899 26.719 4.73099C27.335 4.55499 28.006 4.45599 28.567 4.45599C28.71 4.45599 28.842 4.45599 28.974 4.46699C28.985 4.43399 28.996 4.40099 29.007 4.35699C29.062 4.19199 29.117 3.90599 29.128 3.71899L29.997 3.93899C29.931 4.09299 29.832 4.38999 29.777 4.56599C29.777 4.57699 29.766 4.58799 29.766 4.60999C31.141 4.97299 31.955 5.98499 31.955 7.19499C31.955 8.77899 30.91 10.143 28.358 10.55L27.885 9.81299C29.876 9.60399 31.108 8.58099 31.108 7.15099C31.108 6.31499 30.547 5.56698 29.524 5.26999C28.897 6.83199 28.006 8.05299 27.071 8.84499C27.159 9.16399 27.247 9.46099 27.335 9.73599L26.543 9.97799C26.477 9.79099 26.422 9.58199 26.367 9.36199C25.762 9.72499 25.102 9.96699 24.497 9.96699C23.771 9.96699 23.199 9.51599 23.199 8.58099C23.199 7.16199 24.431 5.72099 25.949 5.01699C25.971 4.46699 26.026 3.91699 26.07 3.39999C25.839 3.41099 25.619 3.41098 25.399 3.41098C24.926 3.41098 24.068 3.36698 23.617 3.33399L23.595 2.50899C23.98 2.57499 24.937 2.65199 25.41 2.65199C25.663 2.65199 25.905 2.65199 26.158 2.64099C26.191 2.32199 26.224 2.03599 26.246 1.79399C26.257 1.59599 26.279 1.39799 26.268 1.26599L27.192 1.28798ZM26.686 5.95199C26.686 6.65599 26.763 7.32699 26.873 7.96499C27.61 7.27199 28.281 6.38099 28.743 5.14899C28.688 5.14899 28.622 5.14899 28.556 5.14899C27.841 5.14899 27.203 5.31398 26.697 5.50099C26.686 5.65499 26.686 5.79799 26.686 5.95199ZM24.035 8.43799C24.035 8.88899 24.244 9.11999 24.662 9.11999C25.091 9.11999 25.619 8.93299 26.18 8.53699C26.026 7.75599 25.916 6.86499 25.916 6.03999C25.916 5.97399 25.916 5.90799 25.916 5.84199C24.849 6.44699 24.035 7.53599 24.035 8.43799Z" fill="#262626"/>
<path d="M27.192 1.28798C27.137 1.43098 27.093 1.62899 27.06 1.78299C27.016 2.01399 26.972 2.29998 26.928 2.61899C28.325 2.55298 29.667 2.40999 30.789 2.14599L30.8 2.95998C29.645 3.15798 28.182 3.31199 26.84 3.37799C26.785 3.80699 26.752 4.26899 26.719 4.73099C27.335 4.55499 28.006 4.45599 28.567 4.45599C28.71 4.45599 28.842 4.45599 28.974 4.46699C28.985 4.43399 28.996 4.40099 29.007 4.35699C29.062 4.19199 29.117 3.90599 29.128 3.71899L29.997 3.93899C29.931 4.09299 29.832 4.38999 29.777 4.56599C29.777 4.57699 29.766 4.58799 29.766 4.60999C31.141 4.97299 31.955 5.98499 31.955 7.19499C31.955 8.77899 30.91 10.143 28.358 10.55L27.885 9.81299C29.876 9.60399 31.108 8.58099 31.108 7.15099C31.108 6.31499 30.547 5.56698 29.524 5.26999C28.897 6.83199 28.006 8.05299 27.071 8.84499C27.159 9.16399 27.247 9.46099 27.335 9.73599L26.543 9.97799C26.477 9.79099 26.422 9.58199 26.367 9.36199C25.762 9.72499 25.102 9.96699 24.497 9.96699C23.771 9.96699 23.199 9.51599 23.199 8.58099C23.199 7.16199 24.431 5.72099 25.949 5.01699C25.971 4.46699 26.026 3.91699 26.07 3.39999C25.839 3.41099 25.619 3.41098 25.399 3.41098C24.926 3.41098 24.068 3.36698 23.617 3.33399L23.595 2.50899C23.98 2.57499 24.937 2.65199 25.41 2.65199C25.663 2.65199 25.905 2.65199 26.158 2.64099C26.191 2.32199 26.224 2.03599 26.246 1.79399C26.257 1.59599 26.279 1.39799 26.268 1.26599L27.192 1.28798ZM26.686 5.95199C26.686 6.65599 26.763 7.32699 26.873 7.96499C27.61 7.27199 28.281 6.38099 28.743 5.14899C28.688 5.14899 28.622 5.14899 28.556 5.14899C27.841 5.14899 27.203 5.31398 26.697 5.50099C26.686 5.65499 26.686 5.79799 26.686 5.95199ZM24.035 8.43799C24.035 8.88899 24.244 9.11999 24.662 9.11999C25.091 9.11999 25.619 8.93299 26.18 8.53699C26.026 7.75599 25.916 6.86499 25.916 6.03999C25.916 5.97399 25.916 5.90799 25.916 5.84199C24.849 6.44699 24.035 7.53599 24.035 8.43799Z" fill="black"/>
<path d="M36.729 1.32099C36.498 2.12399 36.278 3.60899 36.212 4.37899C36.663 3.25699 37.807 1.88199 39.204 1.88199C40.667 1.88199 41.712 3.34499 41.712 5.65499C41.712 8.71299 39.798 10.055 37.07 10.55L36.553 9.75799C38.94 9.40599 40.81 8.42699 40.81 5.66599C40.81 3.92798 40.216 2.67399 39.061 2.67399C37.686 2.67399 36.41 4.67599 36.278 6.11699C36.223 6.54599 36.234 6.91999 36.3 7.46999L35.453 7.53599C35.398 7.11799 35.332 6.50199 35.332 5.78699C35.332 4.74199 35.541 3.12499 35.673 2.23398C35.717 1.90398 35.739 1.58498 35.761 1.28798L36.729 1.32099Z" fill="#262626"/>
<path d="M36.729 1.32099C36.498 2.12399 36.278 3.60899 36.212 4.37899C36.663 3.25699 37.807 1.88199 39.204 1.88199C40.667 1.88199 41.712 3.34499 41.712 5.65499C41.712 8.71299 39.798 10.055 37.07 10.55L36.553 9.75799C38.94 9.40599 40.81 8.42699 40.81 5.66599C40.81 3.92798 40.216 2.67399 39.061 2.67399C37.686 2.67399 36.41 4.67599 36.278 6.11699C36.223 6.54599 36.234 6.91999 36.3 7.46999L35.453 7.53599C35.398 7.11799 35.332 6.50199 35.332 5.78699C35.332 4.74199 35.541 3.12499 35.673 2.23398C35.717 1.90398 35.739 1.58498 35.761 1.28798L36.729 1.32099Z" fill="black"/>
</svg>
