<svg width="38" height="30" viewBox="0 0 38 30" fill="none" xmlns="http://www.w3.org/2000/svg">
<g id="illustration" clip-path="url(#clip0_3183_17219)">
<g id="Group 1172">
<line id="Line 39" x1="7.4078" y1="4.00681" x2="0.851676" y2="0.260455" stroke="#8C7D5E" stroke-width="0.6"/>
<line id="Line 40" x1="0.85" y1="29.7402" x2="7.38938" y2="25.9647" stroke="#8C7D5E" stroke-width="0.6"/>
</g>
<g id="Group 1173">
<line id="Line 39_2" y1="-0.3" x2="7.55102" y2="-0.3" transform="matrix(0.868243 -0.496139 -0.496139 -0.868243 30.6953 3.74634)" stroke="#8C7D5E" stroke-width="0.6"/>
<line id="Line 40_2" y1="-0.3" x2="7.55102" y2="-0.3" transform="matrix(-0.866025 -0.5 -0.5 0.866025 37.252 30)" stroke="#8C7D5E" stroke-width="0.6"/>
</g>
<path id="Vector" d="M34.5481 2H4V28H34.5481V2Z" fill="#F2F2F2" stroke="#8C7D5E" stroke-width="0.6" stroke-linecap="round" stroke-linejoin="round"/>
<g id="Mask group">
<mask id="mask0_3183_17219" style="mask-type:alpha" maskUnits="userSpaceOnUse" x="5" y="3" width="29" height="24">
<path id="Vector_2" d="M33.2979 3H5.09961V27H33.2979V3Z" fill="#F2F2F2"/>
</mask>
<g mask="url(#mask0_3183_17219)">
<g id="Group 1171">
<path id="Vector_3" d="M8.96875 22.6408H9.16213V22.369H8.96875V22.6408Z" fill="#8C7D5E"/>
<path id="Vector_4" d="M5.47281 20.4374C5.43123 20.4218 5.37612 20.4103 5.33765 20.3853C5.33661 20.3853 5.33661 20.3853 5.33557 20.3832C5.26799 20.3905 5.19313 20.3822 5.12555 20.3822H3.20312V20.7456H6.27755C6.15694 20.6998 6.03633 20.653 5.91573 20.6071C5.76809 20.5509 5.61941 20.4936 5.47177 20.4374H5.47281Z" fill="#F2F2F2"/>
<path id="Vector_5" d="M5.90625 24.2142H6.09963V23.9424H5.90625V24.2142Z" fill="#8C7D5E"/>
<path id="Vector_6" d="M5.90625 22.6408H6.09963V22.369H5.90625V22.6408Z" fill="#8C7D5E"/>
<path id="Vector_7" d="M8.96875 24.2142H9.16213V23.9424H8.96875V24.2142Z" fill="#8C7D5E"/>
<path id="Vector_8" d="M7.4375 24.2142H7.63089V23.9424H7.4375V24.2142Z" fill="#8C7D5E"/>
<path id="Vector_9" d="M7.4375 22.6408H7.63089V22.369H7.4375V22.6408Z" fill="#8C7D5E"/>
<path id="Vector_10" d="M28.8633 23.0417V23.603H29.4268V23.0417H28.8633Z" fill="#F2F2F2"/>
<path id="Vector_11" d="M26.6699 25.6565H27.0515V25.1359H26.6699V25.6565Z" fill="#8C7D5E"/>
<path id="Vector_12" d="M25.1895 25.6565H25.571V25.1359H25.1895V25.6565Z" fill="#8C7D5E"/>
<path id="Vector_13" d="M14.0488 24.812H14.3462V24.2372H14.0488V24.812Z" fill="#8C7D5E"/>
<path id="Vector_14" d="M16.5449 24.812H16.8423V24.2372H16.5449V24.812Z" fill="#8C7D5E"/>
<path id="Vector_15" d="M15.2539 24.812H15.5513V24.2372H15.2539V24.812Z" fill="#8C7D5E"/>
<path id="Vector_16" d="M11.2357 24.1382H12.3617V22.5627C12.3617 22.4648 12.4449 22.3825 12.5415 22.3825H13.2257V21.588C13.1259 21.6796 12.9179 21.6369 12.9179 21.461V12.8887H8.72893V20.2363C8.72893 20.3905 8.57089 20.4415 8.46484 20.3915V20.7466H10.6077C10.7054 20.7466 10.7876 20.8299 10.7876 20.9268V24.2622H11.0704C11.0901 24.1945 11.1442 24.1382 11.2357 24.1382ZM11.7098 19.5189V13.9842C11.7098 13.7519 12.0695 13.7519 12.0695 13.9842V20.3009C12.0695 20.5331 11.7098 20.5331 11.7098 20.3009V19.5189ZM9.85078 14.7672V20.302C9.85078 20.5342 9.49104 20.5342 9.49104 20.302V13.9852C9.49104 13.753 9.85078 13.753 9.85078 13.9852V14.7672ZM10.9601 18.161V20.3009C10.9601 20.5331 10.6004 20.5331 10.6004 20.3009V13.9842C10.6004 13.7519 10.9601 13.7519 10.9601 13.9842V18.161Z" fill="#F2F2F2"/>
<path id="Vector_17" d="M17.2874 22.7429H17.0482H14.5457H13.2252H12.721V24.3184C12.721 24.4163 12.6378 24.4986 12.5411 24.4986H11.2352C11.0949 24.4986 11.0398 24.3663 11.0699 24.2622H10.7871V28.1755H17.776V22.7418H17.2874V22.7429ZM14.7068 24.1716V24.9922C14.7068 25.09 14.6236 25.1723 14.5269 25.1723H13.8688C13.7711 25.1765 13.6889 25.0859 13.6889 24.9922V24.056C13.6889 23.9581 13.7721 23.8758 13.8688 23.8758H14.5269C14.6247 23.8758 14.7068 23.9591 14.7068 24.056V24.1716ZM15.9118 24.1716V24.9922C15.9118 25.09 15.8287 25.1723 15.732 25.1723H15.0738C14.9761 25.1765 14.894 25.0859 14.894 24.9922V24.056C14.894 23.9581 14.9771 23.8758 15.0738 23.8758H15.732C15.8297 23.8758 15.9118 23.9591 15.9118 24.056V24.1716ZM17.2042 24.1716V24.9922C17.2042 25.09 17.121 25.1723 17.0243 25.1723H16.3662C16.2685 25.1765 16.1863 25.0859 16.1863 24.9922V24.056C16.1863 23.9581 16.2695 23.8758 16.3662 23.8758H17.0243C17.1221 23.8758 17.2042 23.9591 17.2042 24.056V24.1716Z" fill="#F2F2F2"/>
<path id="Vector_18" d="M22.787 20.8039V13.0178H22.2547V20.8039C22.2547 21.0361 21.8949 21.0361 21.8949 20.8039V13.0178H17.3202V13.9311H21.2087C21.4406 13.9311 21.4406 14.2914 21.2087 14.2914H17.3202V15.0568H21.2087C21.4406 15.0568 21.4406 15.4171 21.2087 15.4171H17.3202V16.1824H21.2087C21.4406 16.1824 21.4406 16.5427 21.2087 16.5427H17.3202V17.3081H21.2087C21.4406 17.3081 21.4406 17.6684 21.2087 17.6684H17.3202V18.4338H21.2087C21.4406 18.4338 21.4406 18.7941 21.2087 18.7941H17.3202V19.5595H21.2087C21.4406 19.5595 21.4406 19.9198 21.2087 19.9198H17.3202V20.8518C17.3202 21.009 17.1559 21.059 17.0488 21.0038V22.3805H17.9565C18.0542 22.3805 18.1364 22.4638 18.1364 22.5606V28.1745H19.3383V21.2267C19.3383 21.1288 19.4214 21.0465 19.5181 21.0465H23.0958V20.9278C22.996 21.0205 22.787 20.9788 22.787 20.8018V20.8039Z" fill="#F2F2F2"/>
<path id="Vector_19" d="M24.8719 23.3709V22.8617C24.8719 22.7638 24.9551 22.6815 25.0518 22.6815H25.528V22.3816C25.504 22.3535 25.4895 22.3171 25.4895 22.2692C25.4895 22.2588 25.4895 22.2494 25.4895 22.239C25.476 21.8589 25.4791 21.4767 25.4822 21.0956H25.0726C25.1713 21.1935 25.1318 21.409 24.952 21.409H23.095H19.6973V22.3775C19.7149 22.3723 19.7337 22.3681 19.7545 22.3681H23.0285C23.2604 22.3681 23.2604 22.7284 23.0285 22.7284H19.7545C19.7337 22.7284 19.7149 22.7242 19.6973 22.719V23.4657C19.7149 23.4605 19.7337 23.4563 19.7545 23.4563H23.0285C23.2604 23.4563 23.2604 23.8166 23.0285 23.8166H19.7545C19.7337 23.8166 19.7149 23.8124 19.6973 23.8072V24.5539C19.7149 24.5487 19.7337 24.5445 19.7545 24.5445H23.0285C23.2604 24.5445 23.2604 24.9048 23.0285 24.9048H19.7545C19.7337 24.9048 19.7149 24.9006 19.6973 24.8954V25.6421C19.7149 25.6369 19.7337 25.6327 19.7545 25.6327H23.0285C23.2604 25.6327 23.2604 25.993 23.0285 25.993H19.7545C19.7337 25.993 19.7149 25.9888 19.6973 25.9836V28.1735H23.8478V23.7801C23.8478 23.6823 23.931 23.6 24.0277 23.6H24.9364V23.5052C24.8979 23.4761 24.8709 23.4313 24.8709 23.3678L24.8719 23.3709Z" fill="#F2F2F2"/>
<path id="Vector_20" d="M25.5281 23.0417H25.2317V23.3708C25.2317 23.5405 25.0415 23.5853 24.9375 23.5083V23.603H28.5006V23.0417H25.5281Z" fill="#F2F2F2"/>
<path id="Vector_21" d="M27.3581 22.2682C27.3581 22.2609 27.3581 22.2526 27.3581 22.2453C27.3363 21.7184 27.3581 21.1862 27.3581 20.6583V9.70654C26.857 10.1012 26.3569 10.4969 25.8558 10.8916C25.8651 11.0176 25.8506 11.154 25.8506 11.2758V22.2682C25.8506 22.4536 25.6218 22.49 25.5293 22.3807V22.6806H27.4912V22.4358C27.4195 22.4192 27.3571 22.363 27.3571 22.2672L27.3581 22.2682Z" fill="#8C7D5E"/>
<path id="Vector_22" d="M30.5573 22.9886C30.5573 22.9813 30.5573 22.9741 30.5573 22.9668C30.5365 22.4742 30.5573 21.9775 30.5573 21.4849V10.9216C30.4543 10.8706 30.3514 10.8206 30.2474 10.7696C30.1112 10.7029 29.976 10.6363 29.8398 10.5696C29.8502 10.9956 29.8357 11.4246 29.8357 11.8495V22.268C29.8357 22.5002 29.4759 22.5002 29.4759 22.268C29.4759 22.2607 29.4759 22.2545 29.4759 22.2472C29.4552 21.7661 29.4759 21.2798 29.4759 20.7987V10.3905C29.2867 10.2979 29.0975 10.2052 28.9083 10.1115C28.9239 10.5769 28.9062 11.0476 28.9062 11.5131V22.268C28.9062 22.5002 28.5465 22.5002 28.5465 22.268C28.5465 22.2607 28.5465 22.2535 28.5465 22.2462C28.5246 21.7536 28.5465 21.2548 28.5465 20.7623V10.0073C28.5465 9.98129 28.5516 9.95943 28.5589 9.93964C28.2813 9.80323 28.0037 9.66681 27.7261 9.5304C27.723 9.61058 27.7188 9.69076 27.7188 9.76678V22.267C27.7188 22.4034 27.5951 22.4596 27.4922 22.4357V22.6804H29.6059C29.7036 22.6804 29.7858 22.7637 29.7858 22.8606V23.602H30.812V23.148C30.7059 23.1907 30.5573 23.1375 30.5573 22.9886Z" fill="#F2F2F2"/>
<path id="Vector_23" d="M31.6504 23.1427V23.603H31.7492V23.1625C31.7148 23.1646 31.6805 23.1583 31.6504 23.1427Z" fill="#F2F2F2"/>
<path id="Vector_24" d="M31.6495 23.6031V23.1428C31.6432 23.1397 31.638 23.1355 31.6328 23.1313V23.602H31.6495V23.6031Z" fill="#F2F2F2"/>
<path id="Vector_25" d="M32.7747 23.7749H33.019V23.6947H32.7539C32.7664 23.7197 32.7737 23.7468 32.7747 23.7749Z" fill="#F2F2F2"/>
<path id="Vector_26" d="M36.8591 14.5504C36.8622 14.6431 36.8051 14.7389 36.6855 14.7389H33.8201V15.7022C33.8201 15.8001 33.7369 15.8823 33.6402 15.8823H31.9184V22.9884C31.9184 23.0998 31.8363 23.1571 31.75 23.1613V23.6017H32.6036C32.6805 23.6017 32.7304 23.6413 32.7564 23.6934H33.0216V18.8095C33.0216 18.72 33.0912 18.6439 33.1775 18.6314C33.1671 18.6096 33.1609 18.5835 33.1609 18.5533V17.8348C33.1609 17.7369 33.2441 17.6547 33.3408 17.6547H36.0201C36.1178 17.6547 36.2 17.738 36.2 17.8348V18.5533C36.2 18.5825 36.1948 18.6075 36.1844 18.6283H37.483V17.3537C37.4497 17.3246 37.4279 17.2819 37.4279 17.2246V14.4401H36.8186C36.8425 14.4713 36.856 14.5098 36.8571 14.5494L36.8591 14.5504Z" fill="#F2F2F2"/>
<path id="Vector_27" d="M32.7772 23.775C32.7803 23.8677 32.7232 23.9635 32.6036 23.9635H30.8111H24.9378H24.209V28.1757H33.0205V23.775H32.7762H32.7772ZM25.9328 25.0642V25.8369C25.937 25.9348 25.8465 26.017 25.753 26.017H25.0106C24.9129 26.017 24.8307 25.9337 24.8307 25.8369V24.9549C24.8307 24.857 24.9139 24.7747 25.0106 24.7747H25.753C25.8507 24.7747 25.9328 24.858 25.9328 24.9549V25.0642ZM27.4144 25.0642V25.8369C27.4186 25.9348 27.3281 26.017 27.2345 26.017H26.4922C26.3945 26.017 26.3123 25.9337 26.3123 25.8369V24.9549C26.3123 24.857 26.3955 24.7747 26.4922 24.7747H27.2345C27.3323 24.7747 27.4144 24.858 27.4144 24.9549V25.0642Z" fill="#F2F2F2"/>
<path id="Vector_28" d="M16.9581 20.8528V15.2119H16.6316C16.8084 15.2629 16.7897 15.5649 16.5776 15.5649H14.8558V21.8921C14.8558 22.0712 14.6427 22.1118 14.5449 22.015V22.3815H17.0475V21.0049C16.9966 20.9788 16.9581 20.9278 16.9581 20.8528Z" fill="#8C7D5E"/>
<path id="Vector_29" d="M10.3771 24.2622H10.4281V21.1069H8.46613H3.20312V28.1766H10.4281V24.2632H10.3771V24.2622ZM4.93008 23.8404V24.3944C4.93008 24.4923 4.84691 24.5746 4.75021 24.5746H4.19605C4.09831 24.5788 4.01618 24.4882 4.01618 24.3944V23.7623C4.01618 23.6645 4.09935 23.5822 4.19605 23.5822H4.75021C4.84795 23.5822 4.93008 23.6655 4.93008 23.7623V23.8404ZM4.93008 22.267V22.821C4.93008 22.9189 4.84691 23.0011 4.75021 23.0011H4.19605C4.09831 23.0053 4.01618 22.9147 4.01618 22.821V22.1889C4.01618 22.091 4.09935 22.0087 4.19605 22.0087H4.75021C4.84795 22.0087 4.93008 22.092 4.93008 22.1889V22.267ZM6.46157 23.8404V24.3944C6.46157 24.4923 6.3784 24.5746 6.28171 24.5746H5.72754C5.62981 24.5788 5.54767 24.4882 5.54767 24.3944V23.7623C5.54767 23.6645 5.63085 23.5822 5.72754 23.5822H6.28171C6.37944 23.5822 6.46157 23.6655 6.46157 23.7623V23.8404ZM6.46157 22.267V22.821C6.46157 22.9189 6.3784 23.0011 6.28171 23.0011H5.72754C5.62981 23.0053 5.54767 22.9147 5.54767 22.821V22.1889C5.54767 22.091 5.63085 22.0087 5.72754 22.0087H6.28171C6.37944 22.0087 6.46157 22.092 6.46157 22.1889V22.267ZM7.99307 23.8404V24.3944C7.99307 24.4923 7.90989 24.5746 7.8132 24.5746H7.25903C7.1613 24.5788 7.07916 24.4882 7.07916 24.3944V23.7623C7.07916 23.6645 7.16234 23.5822 7.25903 23.5822H7.8132C7.91093 23.5822 7.99307 23.6655 7.99307 23.7623V23.8404ZM7.99307 22.267V22.821C7.99307 22.9189 7.90989 23.0011 7.8132 23.0011H7.25903C7.1613 23.0053 7.07916 22.9147 7.07916 22.821V22.1889C7.07916 22.091 7.16234 22.0087 7.25903 22.0087H7.8132C7.91093 22.0087 7.99307 22.092 7.99307 22.1889V22.267ZM9.52456 23.8404V24.3944C9.52456 24.4923 9.44138 24.5746 9.34469 24.5746H8.79052C8.69279 24.5788 8.61066 24.4882 8.61066 24.3944V23.7623C8.61066 23.6645 8.69383 23.5822 8.79052 23.5822H9.34469C9.44242 23.5822 9.52456 23.6655 9.52456 23.7623V23.8404ZM9.52456 22.267V22.821C9.52456 22.9189 9.44138 23.0011 9.34469 23.0011H8.79052C8.69279 23.0053 8.61066 22.9147 8.61066 22.821V22.1889C8.61066 22.091 8.69383 22.0087 8.79052 22.0087H9.34469C9.44242 22.0087 9.52456 22.092 9.52456 22.1889V22.267Z" fill="#F2F2F2"/>
<path id="Vector_30" d="M19.5289 12.3066C19.5214 12.3109 19.4999 12.3066 19.4913 12.3066C19.4913 12.3066 19.4913 12.3066 19.4902 12.3066C19.5042 12.3109 19.5193 12.312 19.5289 12.3066Z" fill="#F2F2F2"/>
<path id="Vector_31" d="M19.9579 12.6565C19.7998 12.543 19.6428 12.4295 19.4848 12.316C19.4786 12.3118 19.4754 12.3098 19.4713 12.3066C19.4099 12.3098 19.3465 12.3066 19.2841 12.3066H17.5125V12.5899C17.5125 12.6149 17.5073 12.6367 17.5 12.6565H19.9579Z" fill="#F2F2F2"/>
<path id="Vector_32" d="M11.282 9.8011V7.79236H10.498V10.0083H11.282V9.8011Z" fill="#F2F2F2"/>
<path id="Vector_33" d="M11.7587 12.3785V10.3698H9.99219V12.5284H11.7587V12.3795V12.3785Z" fill="#F2F2F2"/>
<path id="Vector_34" d="M6.27896 22.0087H5.72479C5.62706 22.0087 5.54492 22.0909 5.54492 22.1888V22.8209C5.54492 22.9157 5.6281 23.0052 5.72479 23.0011H6.27896C6.37669 23.0011 6.45882 22.9188 6.45882 22.8209V22.1888C6.45882 22.0909 6.37669 22.0087 6.27896 22.0087ZM6.09909 22.6408H5.9057V22.369H6.09909V22.6408Z" fill="#8C7D5E"/>
<path id="Vector_35" d="M7.81021 22.0087H7.25604C7.15831 22.0087 7.07617 22.0909 7.07617 22.1888V22.8209C7.07617 22.9157 7.15935 23.0052 7.25604 23.0011H7.81021C7.90794 23.0011 7.99008 22.9188 7.99008 22.8209V22.1888C7.99008 22.0909 7.90794 22.0087 7.81021 22.0087ZM7.63034 22.6408H7.43695V22.369H7.63034V22.6408Z" fill="#8C7D5E"/>
<path id="Vector_36" d="M9.34146 22.0087H8.78729C8.68956 22.0087 8.60742 22.0909 8.60742 22.1888V22.8209C8.60742 22.9157 8.6906 23.0052 8.78729 23.0011H9.34146C9.43919 23.0011 9.52132 22.9188 9.52132 22.8209V22.1888C9.52132 22.0909 9.43919 22.0087 9.34146 22.0087ZM9.16159 22.6408H8.9682V22.369H9.16159V22.6408Z" fill="#8C7D5E"/>
<path id="Vector_37" d="M6.27896 23.5822H5.72479C5.62706 23.5822 5.54492 23.6644 5.54492 23.7623V24.3944C5.54492 24.4892 5.6281 24.5787 5.72479 24.5745H6.27896C6.37669 24.5745 6.45882 24.4923 6.45882 24.3944V23.7623C6.45882 23.6644 6.37669 23.5822 6.27896 23.5822ZM6.09909 24.2142H5.9057V23.9425H6.09909V24.2142Z" fill="#8C7D5E"/>
<path id="Vector_38" d="M7.81021 23.5822H7.25604C7.15831 23.5822 7.07617 23.6644 7.07617 23.7623V24.3944C7.07617 24.4892 7.15935 24.5787 7.25604 24.5745H7.81021C7.90794 24.5745 7.99008 24.4923 7.99008 24.3944V23.7623C7.99008 23.6644 7.90794 23.5822 7.81021 23.5822ZM7.63034 24.2142H7.43695V23.9425H7.63034V24.2142Z" fill="#8C7D5E"/>
<path id="Vector_39" d="M9.34146 23.5822H8.78729C8.68956 23.5822 8.60742 23.6644 8.60742 23.7623V24.3944C8.60742 24.4892 8.6906 24.5787 8.78729 24.5745H9.34146C9.43919 24.5745 9.52132 24.4923 9.52132 24.3944V23.7623C9.52132 23.6644 9.43919 23.5822 9.34146 23.5822ZM9.16159 24.2142H8.9682V23.9425H9.16159V24.2142Z" fill="#8C7D5E"/>
<path id="Vector_40" d="M30.9177 10.8309C30.9177 10.8236 30.9177 10.8163 30.9177 10.809C30.9177 10.7486 30.8844 10.6809 30.8283 10.6528C29.8946 10.1946 28.961 9.73645 28.0273 9.27722C27.8942 9.21161 27.7611 9.14705 27.6291 9.08145C27.5095 9.02209 27.3577 9.0929 27.3577 9.23765V9.2491C27.0094 9.52401 26.6611 9.79789 26.3139 10.0728C26.0987 10.2425 25.8834 10.4123 25.6682 10.582C25.5798 10.6518 25.4967 10.6976 25.4904 10.8236C25.4592 11.4505 25.4904 12.0857 25.4904 12.7136V20.2592C25.4904 20.5372 25.4863 20.8163 25.4831 21.0954C25.479 21.4765 25.4769 21.8587 25.4904 22.2387C25.4904 22.2481 25.4904 22.2585 25.4904 22.2689C25.4904 22.3158 25.506 22.3533 25.5289 22.3814C25.6214 22.4918 25.8502 22.4543 25.8502 22.2689V11.2755C25.8502 11.1537 25.8647 11.0163 25.8554 10.8913C26.3565 10.4966 26.8566 10.1009 27.3577 9.70625V20.658C27.3577 21.1849 27.3359 21.7181 27.3577 22.245C27.3577 22.2523 27.3577 22.2606 27.3577 22.2679C27.3577 22.5001 27.7175 22.5001 27.7175 22.2679V9.76769C27.7175 9.69167 27.7216 9.61149 27.7248 9.5313C28.0024 9.66772 28.28 9.80413 28.5576 9.94055C28.5503 9.96033 28.5451 9.9822 28.5451 10.0082V20.7632C28.5451 21.2557 28.5233 21.7545 28.5451 22.2471C28.5451 22.2544 28.5451 22.2617 28.5451 22.2689C28.5451 22.5012 28.9048 22.5012 28.9048 22.2689V11.514C28.9048 11.0485 28.9225 10.5778 28.9069 10.1124C29.0961 10.205 29.2854 10.2977 29.4746 10.3914V20.7996C29.4746 21.2807 29.4538 21.767 29.4746 22.2481C29.4746 22.2554 29.4746 22.2617 29.4746 22.2689C29.4746 22.5012 29.8343 22.5012 29.8343 22.2689V11.8493C29.8343 11.4245 29.8489 10.9954 29.8385 10.5695C29.9747 10.6362 30.1099 10.7028 30.2461 10.7695C30.349 10.8205 30.4519 10.8705 30.5559 10.9215V21.4848C30.5559 21.9774 30.5351 22.4751 30.5559 22.9666C30.5559 22.9739 30.5559 22.9812 30.5559 22.9885C30.5559 23.1374 30.7046 23.1905 30.8106 23.1478C30.8699 23.1239 30.9156 23.0718 30.9156 22.9885V12.3127C30.9156 11.8202 30.9364 11.3224 30.9156 10.8309H30.9177Z" fill="#8C7D5E"/>
<path id="Vector_41" d="M25.051 22.6805C24.9532 22.6805 24.8711 22.7628 24.8711 22.8606V23.3699C24.8711 23.4334 24.8981 23.4782 24.9366 23.5073C25.0406 23.5844 25.2308 23.5396 25.2308 23.3699V23.0408H25.5272V22.6794H25.051V22.6805Z" fill="#8C7D5E"/>
<path id="Vector_42" d="M31.7848 23.7749H32.7766C32.7735 23.6874 32.7163 23.6021 32.603 23.6021H31.7494H30.8105V23.9624H32.603C32.7226 23.9624 32.7798 23.8666 32.7766 23.7739H31.7848V23.7749Z" fill="#8C7D5E"/>
<path id="Vector_43" d="M24.0275 23.603C23.9298 23.603 23.8477 23.6853 23.8477 23.7832V28.1766H24.2074V23.9644H24.9362V23.6041H24.0275V23.603Z" fill="#8C7D5E"/>
<path id="Vector_44" d="M29.7836 23.603V22.8615C29.7836 22.7637 29.7014 22.6814 29.6037 22.6814H25.5281V23.0427H28.5006V23.604H24.9375V23.9643H30.8108V23.604H29.7846L29.7836 23.603ZM29.4238 23.603H28.8603V23.0417H29.4238V23.603Z" fill="#8C7D5E"/>
<path id="Vector_45" d="M10.7876 22.6637V20.9267C10.7876 20.8288 10.7054 20.7466 10.6077 20.7466H8.46484V21.1069H10.4268V24.2621H10.7865V22.6637H10.7876Z" fill="#8C7D5E"/>
<path id="Vector_46" d="M10.4297 24.2622V28.1756H10.7894V24.2622H10.4297Z" fill="#8C7D5E"/>
<path id="Vector_47" d="M8.04022 20.7466H6.95684C6.95373 20.6768 6.91734 20.6071 6.83624 20.5758C6.60334 20.4863 6.36941 20.3967 6.13651 20.3072C5.97328 20.2447 5.81108 20.1822 5.64785 20.1197C5.57091 20.0906 5.48981 20.0468 5.40976 20.0281C5.23197 19.9864 5.01363 20.0218 4.83376 20.0218H3.02362C2.92589 20.0218 2.84375 20.1041 2.84375 20.202V20.7497C2.84375 20.7851 2.85311 20.8153 2.86766 20.8403C2.85311 20.8664 2.84375 20.8955 2.84375 20.9268V28.1766H3.20349V21.1069H8.4665V20.7466H8.0423H8.04022ZM3.95416 20.7466H3.20245V20.3832H5.12487C5.19245 20.3832 5.26732 20.3915 5.3349 20.3842C5.3349 20.3842 5.33594 20.3842 5.33697 20.3863C5.3744 20.4103 5.43055 20.4217 5.47214 20.4384C5.61977 20.4946 5.76846 20.5519 5.91609 20.6081C6.0367 20.6539 6.1573 20.7008 6.27791 20.7466H3.9552H3.95416Z" fill="#8C7D5E"/>
<path id="Vector_48" d="M13.2083 22.3816H12.5397C12.442 22.3816 12.3599 22.4639 12.3599 22.5617V24.1373H11.2339C11.1424 24.1373 11.0873 24.1935 11.0685 24.2612C11.0384 24.3653 11.0935 24.4976 11.2339 24.4976H12.5397C12.6375 24.4976 12.7196 24.4153 12.7196 24.3174V22.7419H13.2239V22.3816H13.2083Z" fill="#8C7D5E"/>
<path id="Vector_49" d="M13.2266 22.3816V22.7419H14.547V22.3816H13.2266Z" fill="#8C7D5E"/>
<path id="Vector_50" d="M16.1315 22.3816H14.5449V22.7419H17.0475V22.3816H16.1315Z" fill="#8C7D5E"/>
<path id="Vector_51" d="M17.9565 22.3816H17.0488V22.7419H17.7756V28.1756H18.1353V22.5617C18.1353 22.4639 18.0532 22.3816 17.9555 22.3816H17.9565Z" fill="#8C7D5E"/>
<path id="Vector_52" d="M13.0997 12.5274H12.1203V10.1885C12.1203 10.0906 12.0381 10.0084 11.9404 10.0084H11.6451V7.61226C11.6451 7.51437 11.563 7.43211 11.4653 7.43211H11.0567V4.86313C11.0567 4.63091 10.6969 4.63091 10.6969 4.86313V7.43211H10.3205C10.2228 7.43211 10.1407 7.51437 10.1407 7.61226V10.0084H9.81317C9.71544 10.0084 9.6333 10.0906 9.6333 10.1885V12.5274H8.55096C8.45323 12.5274 8.37109 12.6096 8.37109 12.7075V20.2353C8.37109 20.3134 8.41268 20.3655 8.46675 20.3905C8.57384 20.4405 8.73083 20.3895 8.73083 20.2353V12.8887H12.9198V21.461C12.9198 21.637 13.1278 21.6797 13.2276 21.588C13.2588 21.5589 13.2806 21.5172 13.2806 21.461V12.7075C13.2806 12.6096 13.1985 12.5274 13.1007 12.5274H13.0997ZM10.5004 7.91841V7.79345H11.2844V10.0094H10.5004V7.91841ZM11.7595 12.3785V12.5274H9.99304V10.3687H11.7595V12.3774V12.3785Z" fill="#8C7D5E"/>
<path id="Vector_53" d="M20.1927 21.0485H19.5158C19.4181 21.0485 19.3359 21.1307 19.3359 21.2286V28.1764H19.6957V25.9865C19.7134 25.9917 19.7321 25.9959 19.7529 25.9959H23.0269C23.2588 25.9959 23.2588 25.6356 23.0269 25.6356H19.7529C19.7321 25.6356 19.7134 25.6397 19.6957 25.6449V24.8983C19.7134 24.9035 19.7321 24.9077 19.7529 24.9077H23.0269C23.2588 24.9077 23.2588 24.5474 23.0269 24.5474H19.7529C19.7321 24.5474 19.7134 24.5515 19.6957 24.5567V23.8101C19.7134 23.8153 19.7321 23.8195 19.7529 23.8195H23.0269C23.2588 23.8195 23.2588 23.4592 23.0269 23.4592H19.7529C19.7321 23.4592 19.7134 23.4633 19.6957 23.4685V22.7219C19.7134 22.7271 19.7321 22.7313 19.7529 22.7313H23.0269C23.2588 22.7313 23.2588 22.371 23.0269 22.371H19.7529C19.7321 22.371 19.7134 22.3751 19.6957 22.3803V21.4119H23.0934V21.0516H20.1927V21.0485Z" fill="#8C7D5E"/>
<path id="Vector_54" d="M25.0732 21.0953C25.0441 21.0672 25.0046 21.0485 24.9526 21.0485H23.0957V21.4088H24.9526C25.1325 21.4088 25.172 21.1922 25.0732 21.0953Z" fill="#8C7D5E"/>
<path id="Vector_55" d="M16.6356 15.2129C16.6189 15.2077 16.6013 15.2046 16.5815 15.2046H14.6799C14.5821 15.2046 14.5 15.2869 14.5 15.3847V21.8931C14.5 21.9462 14.5198 21.9868 14.5489 22.016C14.6476 22.1128 14.8597 22.0722 14.8597 21.8931V15.5659H16.5815C16.7936 15.5659 16.8113 15.265 16.6356 15.2129Z" fill="#8C7D5E"/>
<path id="Vector_56" d="M36.6834 14.3787H33.6381C33.5404 14.3787 33.4583 14.461 33.4583 14.5589V15.5221H31.7365C31.6388 15.5221 31.5566 15.6044 31.5566 15.7023V22.9885C31.5566 23.1093 31.6544 23.1676 31.749 23.1614C31.8353 23.1562 31.9174 23.0989 31.9174 22.9885V15.8824H33.6392C33.7369 15.8824 33.8191 15.8002 33.8191 15.7023V14.739H36.6845C36.8041 14.739 36.8612 14.6432 36.8581 14.5505C36.855 14.4631 36.7978 14.3777 36.6845 14.3777L36.6834 14.3787Z" fill="#8C7D5E"/>
<path id="Vector_57" d="M9.49219 13.9841V20.3009C9.49219 20.5331 9.85193 20.5331 9.85193 20.3009V13.9841C9.85193 13.7519 9.49219 13.7519 9.49219 13.9841Z" fill="#8C7D5E"/>
<path id="Vector_58" d="M10.6016 13.9841V20.3009C10.6016 20.5331 10.9613 20.5331 10.9613 20.3009V13.9841C10.9613 13.7519 10.6016 13.7519 10.6016 13.9841Z" fill="#8C7D5E"/>
<path id="Vector_59" d="M11.7109 13.9841V20.3009C11.7109 20.5331 12.0707 20.5331 12.0707 20.3009V13.9841C12.0707 13.7519 11.7109 13.7519 11.7109 13.9841Z" fill="#8C7D5E"/>
<path id="Vector_60" d="M25.7503 24.7745H25.008C24.9103 24.7745 24.8281 24.8568 24.8281 24.9547V25.8367C24.8281 25.9346 24.9103 26.0169 25.008 26.0169H25.7503C25.845 26.0169 25.9344 25.9335 25.9302 25.8367V24.9547C25.9302 24.8568 25.8481 24.7745 25.7503 24.7745ZM25.5705 25.6565H25.1889V25.1359H25.5705V25.6565Z" fill="#8C7D5E"/>
<path id="Vector_61" d="M27.2328 24.7745H26.4904C26.3927 24.7745 26.3105 24.8568 26.3105 24.9547V25.8367C26.3105 25.9346 26.3927 26.0169 26.4904 26.0169H27.2328C27.3274 26.0169 27.4168 25.9335 27.4126 25.8367V24.9547C27.4126 24.8568 27.3305 24.7745 27.2328 24.7745ZM27.0529 25.6565H26.6713V25.1359H27.0529V25.6565Z" fill="#8C7D5E"/>
<path id="Vector_62" d="M36.1862 18.6306C36.1956 18.6088 36.2018 18.5838 36.2018 18.5557V17.8371C36.2018 17.7392 36.1197 17.657 36.022 17.657H33.3426C33.2449 17.657 33.1628 17.7392 33.1628 17.8371V18.5557C33.1628 18.5859 33.169 18.6108 33.1794 18.6338C33.0931 18.6463 33.0234 18.7223 33.0234 18.8118V23.7759V28.1766H33.3832V18.992H37.4859V18.6317H36.1873L36.1862 18.6306ZM34.2243 18.6306H33.5069C33.5163 18.6088 33.5225 18.5838 33.5225 18.5557V18.0183H35.8421V18.5557C35.8421 18.5848 35.8473 18.6098 35.8577 18.6306H34.2253H34.2243Z" fill="#8C7D5E"/>
<path id="Vector_63" d="M22.9673 12.6566H20.3296C20.3566 12.5827 20.3442 12.4921 20.2641 12.4348C20.0853 12.3067 19.9075 12.1776 19.7286 12.0495C19.66 12.0006 19.6112 11.9537 19.5238 11.9464C19.476 11.9423 19.4261 11.9464 19.3783 11.9464H17.3332C17.2354 11.9464 17.1533 12.0287 17.1533 12.1266V12.591C17.1533 12.616 17.1585 12.6379 17.1658 12.6577H17.1408C17.0431 12.6577 16.9609 12.7399 16.9609 12.8378V15.2131V20.854C16.9609 20.929 16.9994 20.98 17.0504 21.0061C17.1574 21.0613 17.3217 21.0113 17.3217 20.854V19.922H21.2102C21.4421 19.922 21.4421 19.5617 21.2102 19.5617H17.3217V18.7963H21.2102C21.4421 18.7963 21.4421 18.436 21.2102 18.436H17.3217V17.6707H21.2102C21.4421 17.6707 21.4421 17.3104 21.2102 17.3104H17.3217V16.545H21.2102C21.4421 16.545 21.4421 16.1847 21.2102 16.1847H17.3217V15.4193H21.2102C21.4421 15.4193 21.4421 15.059 21.2102 15.059H17.3217V14.2936H21.2102C21.4421 14.2936 21.4421 13.9333 21.2102 13.9333H17.3217V13.02H21.8964V20.8061C21.8964 21.0383 22.2562 21.0383 22.2562 20.8061V13.018H22.7885V20.804C22.7885 20.9811 22.9975 21.0227 23.0973 20.93C23.1285 20.9009 23.1493 20.8592 23.1493 20.804V12.8368C23.1493 12.7389 23.0672 12.6566 22.9694 12.6566H22.9673ZM19.4895 12.3067C19.4978 12.3067 19.5186 12.3109 19.5259 12.3067C19.5165 12.3119 19.502 12.3109 19.4885 12.3067C19.4885 12.3067 19.4885 12.3067 19.4895 12.3067ZM17.8561 12.6566H17.4995C17.5068 12.6368 17.512 12.615 17.512 12.59V12.3067H19.2837C19.345 12.3067 19.4084 12.3109 19.4708 12.3067C19.475 12.3099 19.4781 12.3119 19.4843 12.3161C19.6424 12.4296 19.7993 12.5431 19.9574 12.6566H17.8561Z" fill="#8C7D5E"/>
<path id="Vector_64" d="M15.7325 23.8759H15.0744C14.9767 23.8759 14.8945 23.9581 14.8945 24.056V24.9922C14.8945 25.0869 14.9777 25.1765 15.0744 25.1723H15.7325C15.8303 25.1723 15.9124 25.0901 15.9124 24.9922V24.056C15.9124 23.9581 15.8303 23.8759 15.7325 23.8759ZM15.5527 24.812H15.2553V24.2372H15.5527V24.812Z" fill="#8C7D5E"/>
<path id="Vector_65" d="M17.0255 23.8759H16.3674C16.2696 23.8759 16.1875 23.9581 16.1875 24.056V24.9922C16.1875 25.0869 16.2707 25.1765 16.3674 25.1723H17.0255C17.1232 25.1723 17.2054 25.0901 17.2054 24.9922V24.056C17.2054 23.9581 17.1232 23.8759 17.0255 23.8759ZM16.8456 24.812H16.5483V24.2372H16.8456V24.812Z" fill="#8C7D5E"/>
<path id="Vector_66" d="M14.5255 23.8759H13.8674C13.7696 23.8759 13.6875 23.9581 13.6875 24.056V24.9922C13.6875 25.0869 13.7707 25.1765 13.8674 25.1723H14.5255C14.6232 25.1723 14.7054 25.0901 14.7054 24.9922V24.056C14.7054 23.9581 14.6232 23.8759 14.5255 23.8759ZM14.3456 24.812H14.0483V24.2372H14.3456V24.812Z" fill="#8C7D5E"/>
</g>
</g>
</g>
<path id="Vector_67" d="M33.2979 3H5.09961V27H33.2979V3Z" stroke="#8C7D5E" stroke-width="0.6" stroke-linecap="round" stroke-linejoin="round"/>
</g>
<defs>
<clipPath id="clip0_3183_17219">
<rect width="38" height="30" fill="white"/>
</clipPath>
</defs>
</svg>
