<svg width="55" height="11" viewBox="0 0 55 11" fill="none" xmlns="http://www.w3.org/2000/svg">
<path d="M2.85402 2.311V4.687C2.85402 6.469 2.68901 9.076 1.64401 10.814C1.49001 10.682 1.13802 10.473 0.929016 10.385C1.94102 8.735 2.02901 6.392 2.02901 4.698V1.53H10.763V2.311H2.85402ZM7.13302 9.67H10.961V10.451H2.68902V9.67H6.31902V6.128H3.42602V5.347H6.31902V2.894H7.13302V5.347H10.235V6.128H7.13302V9.67Z" fill="#262626"/>
<path d="M2.85402 2.311V4.687C2.85402 6.469 2.68901 9.076 1.64401 10.814C1.49001 10.682 1.13802 10.473 0.929016 10.385C1.94102 8.735 2.02901 6.392 2.02901 4.698V1.53H10.763V2.311H2.85402ZM7.13302 9.67H10.961V10.451H2.68902V9.67H6.31902V6.128H3.42602V5.347H6.31902V2.894H7.13302V5.347H10.235V6.128H7.13302V9.67Z" fill="black"/>
<path d="M16.01 4.467H18.133C17.913 4.093 17.715 3.697 17.55 3.279H16.56C16.406 3.686 16.219 4.082 16.01 4.467ZM21.851 5.193H19.574C20.278 5.996 21.136 6.634 22.093 7.008C21.906 7.173 21.664 7.481 21.554 7.679C20.388 7.151 19.387 6.282 18.606 5.193H15.559C15.328 5.523 15.075 5.842 14.8 6.139H19.156V8.592H14.976V9.659C14.976 10 15.13 10.066 16.021 10.066H19.046C19.794 10.066 19.904 9.89 19.97 8.702C20.168 8.834 20.509 8.955 20.74 8.999C20.608 10.462 20.322 10.803 19.09 10.803H16.021C14.569 10.803 14.162 10.594 14.162 9.681V7.932H18.342V6.81H14.459V6.491C13.887 7.052 13.216 7.547 12.435 7.965C12.336 7.756 12.083 7.481 11.885 7.349C13.007 6.777 13.898 6.029 14.569 5.193H12.138V4.467H15.086C15.328 4.082 15.537 3.686 15.713 3.279H12.842V2.586H14.36C14.195 2.179 13.876 1.618 13.557 1.211L14.261 0.968999C14.624 1.42 15.009 2.036 15.152 2.454L14.811 2.586H15.966C16.164 1.981 16.296 1.376 16.362 0.792999L17.187 0.880999C17.11 1.442 16.978 2.014 16.802 2.586H18.617C18.914 2.113 19.299 1.42 19.508 0.913999L20.344 1.178C20.058 1.673 19.739 2.179 19.464 2.586H21.169V3.279H18.353C18.54 3.697 18.76 4.093 19.013 4.467H21.851V5.193Z" fill="#262626"/>
<path d="M16.01 4.467H18.133C17.913 4.093 17.715 3.697 17.55 3.279H16.56C16.406 3.686 16.219 4.082 16.01 4.467ZM21.851 5.193H19.574C20.278 5.996 21.136 6.634 22.093 7.008C21.906 7.173 21.664 7.481 21.554 7.679C20.388 7.151 19.387 6.282 18.606 5.193H15.559C15.328 5.523 15.075 5.842 14.8 6.139H19.156V8.592H14.976V9.659C14.976 10 15.13 10.066 16.021 10.066H19.046C19.794 10.066 19.904 9.89 19.97 8.702C20.168 8.834 20.509 8.955 20.74 8.999C20.608 10.462 20.322 10.803 19.09 10.803H16.021C14.569 10.803 14.162 10.594 14.162 9.681V7.932H18.342V6.81H14.459V6.491C13.887 7.052 13.216 7.547 12.435 7.965C12.336 7.756 12.083 7.481 11.885 7.349C13.007 6.777 13.898 6.029 14.569 5.193H12.138V4.467H15.086C15.328 4.082 15.537 3.686 15.713 3.279H12.842V2.586H14.36C14.195 2.179 13.876 1.618 13.557 1.211L14.261 0.968999C14.624 1.42 15.009 2.036 15.152 2.454L14.811 2.586H15.966C16.164 1.981 16.296 1.376 16.362 0.792999L17.187 0.880999C17.11 1.442 16.978 2.014 16.802 2.586H18.617C18.914 2.113 19.299 1.42 19.508 0.913999L20.344 1.178C20.058 1.673 19.739 2.179 19.464 2.586H21.169V3.279H18.353C18.54 3.697 18.76 4.093 19.013 4.467H21.851V5.193Z" fill="black"/>
<path d="M32.488 6.15C32.488 8.46 30.97 10 28.363 10.341L27.846 9.527C28.198 9.494 28.539 9.439 28.792 9.384C30.2 9.065 31.586 8.02 31.586 6.117C31.586 4.456 30.519 3.081 28.649 2.927C28.506 3.95 28.297 5.072 27.989 6.095C27.318 8.361 26.449 9.516 25.426 9.516C24.447 9.516 23.468 8.394 23.468 6.579C23.468 4.192 25.591 2.102 28.275 2.102C30.849 2.102 32.488 3.917 32.488 6.15ZM24.326 6.502C24.326 7.888 24.964 8.504 25.459 8.504C25.976 8.504 26.559 7.767 27.12 5.908C27.395 4.995 27.615 3.95 27.736 2.938C25.624 3.202 24.326 5.006 24.326 6.502Z" fill="#262626"/>
<path d="M32.488 6.15C32.488 8.46 30.97 10 28.363 10.341L27.846 9.527C28.198 9.494 28.539 9.439 28.792 9.384C30.2 9.065 31.586 8.02 31.586 6.117C31.586 4.456 30.519 3.081 28.649 2.927C28.506 3.95 28.297 5.072 27.989 6.095C27.318 8.361 26.449 9.516 25.426 9.516C24.447 9.516 23.468 8.394 23.468 6.579C23.468 4.192 25.591 2.102 28.275 2.102C30.849 2.102 32.488 3.917 32.488 6.15ZM24.326 6.502C24.326 7.888 24.964 8.504 25.459 8.504C25.976 8.504 26.559 7.767 27.12 5.908C27.395 4.995 27.615 3.95 27.736 2.938C25.624 3.202 24.326 5.006 24.326 6.502Z" fill="black"/>
<path d="M43.103 2.454L43.829 2.795C43.444 3.521 42.938 4.368 42.542 4.929L41.937 4.621C42.311 4.049 42.828 3.114 43.103 2.454ZM39.165 4.599L38.483 4.929C38.318 4.346 37.889 3.466 37.46 2.817L38.087 2.52C38.538 3.158 38.978 4.027 39.165 4.599ZM36.492 2.201H35.051V3.73H36.492V2.201ZM35.051 4.434V5.996H36.492V4.434H35.051ZM35.051 8.295H36.492V6.7H35.051V8.295ZM37.24 9.021H35.051V9.978H34.336V1.475H37.24V9.021ZM39.231 5.556V0.869999H39.99V5.567C39.99 7.789 39.671 9.648 37.273 10.869C37.163 10.693 36.91 10.396 36.756 10.264C38.461 9.417 39 8.24 39.165 6.843C38.648 7.261 38.12 7.679 37.647 8.042L37.251 7.294C37.757 6.986 38.483 6.48 39.231 5.941C39.231 5.809 39.231 5.688 39.231 5.556ZM42.135 9.967H43.092C43.356 9.967 43.389 9.692 43.422 8.603C43.598 8.735 43.895 8.867 44.115 8.922C44.027 10.231 43.84 10.682 43.158 10.682H42.036C41.244 10.682 41.035 10.429 41.035 9.428V0.858999H41.805V5.82L42.091 5.589C42.762 6.139 43.598 6.909 43.994 7.415L43.411 7.921C43.081 7.47 42.421 6.799 41.805 6.26V9.439C41.805 9.89 41.849 9.967 42.135 9.967Z" fill="#262626"/>
<path d="M43.103 2.454L43.829 2.795C43.444 3.521 42.938 4.368 42.542 4.929L41.937 4.621C42.311 4.049 42.828 3.114 43.103 2.454ZM39.165 4.599L38.483 4.929C38.318 4.346 37.889 3.466 37.46 2.817L38.087 2.52C38.538 3.158 38.978 4.027 39.165 4.599ZM36.492 2.201H35.051V3.73H36.492V2.201ZM35.051 4.434V5.996H36.492V4.434H35.051ZM35.051 8.295H36.492V6.7H35.051V8.295ZM37.24 9.021H35.051V9.978H34.336V1.475H37.24V9.021ZM39.231 5.556V0.869999H39.99V5.567C39.99 7.789 39.671 9.648 37.273 10.869C37.163 10.693 36.91 10.396 36.756 10.264C38.461 9.417 39 8.24 39.165 6.843C38.648 7.261 38.12 7.679 37.647 8.042L37.251 7.294C37.757 6.986 38.483 6.48 39.231 5.941C39.231 5.809 39.231 5.688 39.231 5.556ZM42.135 9.967H43.092C43.356 9.967 43.389 9.692 43.422 8.603C43.598 8.735 43.895 8.867 44.115 8.922C44.027 10.231 43.84 10.682 43.158 10.682H42.036C41.244 10.682 41.035 10.429 41.035 9.428V0.858999H41.805V5.82L42.091 5.589C42.762 6.139 43.598 6.909 43.994 7.415L43.411 7.921C43.081 7.47 42.421 6.799 41.805 6.26V9.439C41.805 9.89 41.849 9.967 42.135 9.967Z" fill="black"/>
<path d="M53.916 1.794H51.639C51.628 2.058 51.606 2.311 51.584 2.564H53.883L53.916 1.794ZM51.386 3.906H53.806C53.828 3.686 53.839 3.422 53.861 3.136H51.518C51.485 3.4 51.441 3.664 51.386 3.906ZM53.751 4.5H51.232C50.979 5.259 50.572 5.886 49.934 6.337C49.835 6.161 49.626 5.908 49.45 5.798C50.693 4.907 50.858 3.312 50.913 1.178H54.686C54.686 1.178 54.686 1.409 54.675 1.519C54.576 4.423 54.466 5.435 54.191 5.776C54.037 5.974 53.839 6.051 53.553 6.073C53.3 6.095 52.871 6.095 52.409 6.073C52.398 5.875 52.321 5.6 52.222 5.424C52.662 5.468 53.047 5.468 53.212 5.468C53.377 5.479 53.465 5.446 53.542 5.336C53.63 5.237 53.696 4.995 53.751 4.5ZM45.787 4.489V2.652H44.962V1.948H47.228V0.803999H47.998V1.948H50.209V2.652H46.535V4.5C46.535 4.83 46.612 4.951 46.909 4.951H48.779C49.021 4.951 49.417 4.929 49.615 4.885C49.626 5.094 49.67 5.413 49.692 5.589C49.516 5.644 49.153 5.655 48.79 5.655H46.92C46.018 5.655 45.787 5.347 45.787 4.489ZM50.396 9.89H54.851V10.583H45.16V9.89H49.582V8.933H46.37V8.262H49.582V7.316H45.897V6.623H54.18V7.316H50.396V8.262H53.652V8.933H50.396V9.89Z" fill="#262626"/>
<path d="M53.916 1.794H51.639C51.628 2.058 51.606 2.311 51.584 2.564H53.883L53.916 1.794ZM51.386 3.906H53.806C53.828 3.686 53.839 3.422 53.861 3.136H51.518C51.485 3.4 51.441 3.664 51.386 3.906ZM53.751 4.5H51.232C50.979 5.259 50.572 5.886 49.934 6.337C49.835 6.161 49.626 5.908 49.45 5.798C50.693 4.907 50.858 3.312 50.913 1.178H54.686C54.686 1.178 54.686 1.409 54.675 1.519C54.576 4.423 54.466 5.435 54.191 5.776C54.037 5.974 53.839 6.051 53.553 6.073C53.3 6.095 52.871 6.095 52.409 6.073C52.398 5.875 52.321 5.6 52.222 5.424C52.662 5.468 53.047 5.468 53.212 5.468C53.377 5.479 53.465 5.446 53.542 5.336C53.63 5.237 53.696 4.995 53.751 4.5ZM45.787 4.489V2.652H44.962V1.948H47.228V0.803999H47.998V1.948H50.209V2.652H46.535V4.5C46.535 4.83 46.612 4.951 46.909 4.951H48.779C49.021 4.951 49.417 4.929 49.615 4.885C49.626 5.094 49.67 5.413 49.692 5.589C49.516 5.644 49.153 5.655 48.79 5.655H46.92C46.018 5.655 45.787 5.347 45.787 4.489ZM50.396 9.89H54.851V10.583H45.16V9.89H49.582V8.933H46.37V8.262H49.582V7.316H45.897V6.623H54.18V7.316H50.396V8.262H53.652V8.933H50.396V9.89Z" fill="black"/>
</svg>
