<svg width="36" height="30" viewBox="0 0 36 30" fill="none" xmlns="http://www.w3.org/2000/svg">
<path id="Vector" d="M1.81305 3.69202C2.32805 3.55612 2.81444 3.42737 3.37951 2.59049C4.19493 1.37451 5.33222 0.51618 6.57681 0.172845C7.37792 -0.0488913 8.10036 -0.056044 8.74411 0.144234L11.827 0.509026C12.1918 0.551943 12.4636 0.859513 12.4564 1.22431C12.4564 1.46035 12.4278 3.00535 11.9414 4.33577C12.7711 6.10251 13.794 8.14821 15.2245 8.14821C15.2317 8.14821 15.246 8.14821 15.2532 8.14821C16.0829 8.13391 17.5206 7.91932 19.18 7.66182C23.6005 6.98946 27.3056 6.53883 29.3585 7.2112C30.0237 7.28988 35.0449 8.16967 35.8818 17.5041C35.9176 17.8975 35.6243 18.248 35.2309 18.2766C35.2094 18.2766 35.188 18.2766 35.1665 18.2766C34.8017 18.2766 34.487 17.9976 34.4513 17.6257C34.0292 12.8619 32.4771 10.6159 31.1681 9.55731C31.6617 13.1838 31.2897 23.0904 31.0894 27.4965C31.0394 28.7053 30.0523 29.6495 28.8363 29.6495H25.8679C25.4745 29.6495 25.1526 29.3276 25.1526 28.9342V28.8198C25.1526 27.6539 25.7821 26.5667 26.7692 25.973L26.3042 21.5955C25.918 20.9803 24.516 18.6414 24.0582 16.2523C22.4417 17.5112 19.0799 19.5998 14.6237 19.6928V27.7469C14.6237 28.9915 13.6152 30 12.3706 30H8.87286C8.47946 30 8.15758 29.6781 8.15758 29.2847V29.0487C8.15758 27.704 9.07314 26.5738 10.3106 26.2376L9.94578 20.0362C9.08029 19.0419 6.43376 15.8732 6.43376 14.0636C6.43376 13.5915 6.46952 13.0479 6.50528 12.4757C6.59112 11.1166 6.69841 9.45717 6.31216 8.36995L4.78146 8.72044C4.45958 8.79196 4.13771 8.82773 3.82299 8.82773C2.69284 8.82773 1.61277 8.3771 0.861729 7.54738C0.0606156 6.66758 0.0463107 5.8164 0.175061 5.25848C0.446867 4.05681 1.24083 3.84938 1.81305 3.69202ZM9.16612 1.63917C8.90862 2.73355 8.76557 4.15695 9.13751 4.72918C9.2305 4.87223 9.34494 4.93661 9.53807 4.95807C9.7455 4.97952 9.91001 4.92945 10.0674 4.7864C10.6324 4.2857 10.9114 2.91237 11.0044 1.8609L9.16612 1.63917ZM1.92749 6.59606C2.54263 7.26842 3.51542 7.55453 4.46674 7.33279L8.05744 6.51022C8.44369 6.42439 8.82279 6.66043 8.91577 7.04668C9.00161 7.43293 8.76557 7.81203 8.37932 7.90502L7.71411 8.05523C8.13612 9.3928 8.03598 11.0666 7.93584 12.5758C7.90008 13.1266 7.86432 13.6487 7.86432 14.0707C7.86432 15.1079 9.80272 17.7401 11.1761 19.278C11.2833 19.3996 11.3477 19.5498 11.3549 19.7143L11.7697 26.8242C11.784 27.0173 11.7125 27.2104 11.5766 27.3535C11.4407 27.4965 11.2547 27.5752 11.0545 27.5752C10.4107 27.5752 9.85994 27.9901 9.65967 28.5766H12.3563C12.814 28.5766 13.1788 28.2046 13.1788 27.754V17.0391C13.1788 16.6457 13.5007 16.3239 13.8941 16.3239C14.2875 16.3239 14.6094 16.6457 14.6094 17.0391V18.2694C20.2673 18.1192 24.0654 14.3711 24.1012 14.3282C24.3086 14.1208 24.6162 14.0564 24.8808 14.1709C25.1526 14.2782 25.3243 14.5428 25.3243 14.8289C25.3243 17.5255 27.556 20.9303 27.5774 20.966C27.6418 21.059 27.6776 21.1735 27.6919 21.2879L28.2283 26.3306C28.2641 26.6525 28.0781 26.9529 27.7777 27.0745C27.2484 27.2819 26.8478 27.7183 26.669 28.2404H28.8292C29.2726 28.2404 29.6303 27.8971 29.6517 27.4536C30.0022 19.7572 30.1739 10.8877 29.6088 9.09238C29.5516 8.89926 29.3799 8.74905 29.1367 8.6346C29.0366 8.6203 28.9436 8.58453 28.8578 8.53446C26.9551 7.94793 22.0054 8.69898 19.3875 9.09238C17.6779 9.34988 16.1973 9.57877 15.2675 9.59308C15.246 9.59308 15.2317 9.59308 15.2102 9.59308C13.2075 9.59308 11.9915 7.71189 11.0473 5.8164C11.033 5.83071 11.0187 5.84501 11.0044 5.85932C10.6038 6.21696 10.1246 6.40293 9.6096 6.40293C9.53092 6.40293 9.45223 6.39578 9.37355 6.38863C8.75841 6.32425 8.25772 6.02383 7.92869 5.52314C7.20626 4.42876 7.48522 2.53327 7.72841 1.44604C7.48522 1.4532 7.22772 1.48896 6.9416 1.56764C6.02605 1.81799 5.17486 2.47605 4.55257 3.40591C3.69424 4.67911 2.77868 4.92945 2.17069 5.08681C1.6843 5.21557 1.64138 5.22987 1.55555 5.60182C1.52694 5.8021 1.50548 6.13828 1.92749 6.59606Z" fill="#8C7D5E"/>
</svg>
