<svg width="66" height="11" viewBox="0 0 66 11" fill="none" xmlns="http://www.w3.org/2000/svg">
<path d="M10.329 4.775H6.18201C6.95201 7.195 8.38201 9.186 10.505 10.055C10.307 10.242 10.032 10.583 9.88901 10.825C7.77701 9.824 6.38001 7.877 5.51101 5.38C4.98301 7.492 3.79501 9.604 1.12201 10.825C1.00101 10.605 0.737012 10.319 0.506012 10.154C3.23401 8.966 4.33401 6.854 4.78501 4.775H0.726011V3.939H4.91701C5.08201 2.784 5.07101 1.684 5.08201 0.814999H5.96201C5.95101 1.695 5.94001 2.784 5.78601 3.939H10.329V4.775Z" fill="#262626"/>
<path d="M10.329 4.775H6.18201C6.95201 7.195 8.38201 9.186 10.505 10.055C10.307 10.242 10.032 10.583 9.88901 10.825C7.77701 9.824 6.38001 7.877 5.51101 5.38C4.98301 7.492 3.79501 9.604 1.12201 10.825C1.00101 10.605 0.737012 10.319 0.506012 10.154C3.23401 8.966 4.33401 6.854 4.78501 4.775H0.726011V3.939H4.91701C5.08201 2.784 5.07101 1.684 5.08201 0.814999H5.96201C5.95101 1.695 5.94001 2.784 5.78601 3.939H10.329V4.775Z" fill="black"/>
<path d="M20.79 0.869999V5.765C20.79 6.216 20.702 6.425 20.372 6.557C20.042 6.678 19.514 6.689 18.733 6.689C18.7 6.469 18.579 6.161 18.458 5.941C19.085 5.963 19.635 5.963 19.8 5.941C19.965 5.941 20.009 5.897 20.009 5.743V0.869999H20.79ZM18.733 1.42V5.083H17.974V1.42H18.733ZM13.926 3.411V3.477H15.279V1.97H13.926V3.411ZM15.279 4.203H13.871C13.739 5.149 13.332 6.128 12.221 6.832C12.111 6.678 11.836 6.381 11.682 6.26C12.639 5.677 12.98 4.94 13.112 4.203H11.781V3.477H13.167V3.389V1.97H12.144V1.244H17.072V1.97H16.049V3.477H17.292V4.203H16.049V6.557H15.279V4.203ZM16.973 9.703H21.439V10.473H11.561V9.703H16.148V8.317H12.694V7.569H16.148V6.337H16.973V7.569H20.295V8.317H16.973V9.703Z" fill="#262626"/>
<path d="M20.79 0.869999V5.765C20.79 6.216 20.702 6.425 20.372 6.557C20.042 6.678 19.514 6.689 18.733 6.689C18.7 6.469 18.579 6.161 18.458 5.941C19.085 5.963 19.635 5.963 19.8 5.941C19.965 5.941 20.009 5.897 20.009 5.743V0.869999H20.79ZM18.733 1.42V5.083H17.974V1.42H18.733ZM13.926 3.411V3.477H15.279V1.97H13.926V3.411ZM15.279 4.203H13.871C13.739 5.149 13.332 6.128 12.221 6.832C12.111 6.678 11.836 6.381 11.682 6.26C12.639 5.677 12.98 4.94 13.112 4.203H11.781V3.477H13.167V3.389V1.97H12.144V1.244H17.072V1.97H16.049V3.477H17.292V4.203H16.049V6.557H15.279V4.203ZM16.973 9.703H21.439V10.473H11.561V9.703H16.148V8.317H12.694V7.569H16.148V6.337H16.973V7.569H20.295V8.317H16.973V9.703Z" fill="black"/>
<path d="M31.647 2.894L31.042 3.433C30.613 2.905 29.678 2.124 28.886 1.596L29.447 1.101C30.228 1.596 31.196 2.355 31.647 2.894ZM32.384 4.841H28.16C28.908 7.294 30.338 9.23 32.604 10.066C32.395 10.242 32.12 10.594 31.988 10.836C29.766 9.89 28.38 8.02 27.533 5.523C27.016 7.646 25.839 9.648 23.122 10.825C23.001 10.594 22.726 10.297 22.495 10.121C25.3 8.988 26.378 6.942 26.796 4.841H22.627V4.016H26.928C27.071 2.894 27.06 1.783 27.071 0.814999H27.951C27.94 1.794 27.929 2.894 27.797 4.016H32.384V4.841Z" fill="#262626"/>
<path d="M31.647 2.894L31.042 3.433C30.613 2.905 29.678 2.124 28.886 1.596L29.447 1.101C30.228 1.596 31.196 2.355 31.647 2.894ZM32.384 4.841H28.16C28.908 7.294 30.338 9.23 32.604 10.066C32.395 10.242 32.12 10.594 31.988 10.836C29.766 9.89 28.38 8.02 27.533 5.523C27.016 7.646 25.839 9.648 23.122 10.825C23.001 10.594 22.726 10.297 22.495 10.121C25.3 8.988 26.378 6.942 26.796 4.841H22.627V4.016H26.928C27.071 2.894 27.06 1.783 27.071 0.814999H27.951C27.94 1.794 27.929 2.894 27.797 4.016H32.384V4.841Z" fill="black"/>
<path d="M36.96 4.291H34.969V5.16H36.96V4.291ZM34.969 6.612H36.96V5.743H34.969V6.612ZM38.159 2.696L37.631 3.29C37.29 2.795 36.63 2.014 36.014 1.486C35.64 2.146 35.101 2.949 34.364 3.686H35.706V2.641H36.41V3.686H37.686V7.239H34.969V9.307C35.519 9.164 36.113 9.01 36.718 8.856C36.52 8.526 36.311 8.196 36.102 7.91L36.751 7.613C37.334 8.383 37.928 9.406 38.159 10.077L37.455 10.407C37.378 10.143 37.235 9.813 37.059 9.472C35.882 9.813 34.661 10.154 33.726 10.418L33.484 9.648C33.704 9.604 33.957 9.549 34.221 9.483V3.818C34.089 3.939 33.957 4.06 33.814 4.181C33.682 4.016 33.429 3.774 33.264 3.675C34.342 2.828 35.09 1.706 35.497 0.803999H36.289C36.96 1.354 37.763 2.146 38.159 2.696ZM40.656 5.358H39.116V7.459H40.656V5.358ZM41.327 8.141H39.116V9.032H38.434V4.676H41.327V8.141ZM41.613 3.048V3.719H38.192V3.048H41.613ZM43.175 1.321V9.78C43.175 10.275 43.043 10.55 42.68 10.693C42.339 10.825 41.811 10.847 40.821 10.836C40.777 10.627 40.634 10.253 40.502 10.044C41.283 10.066 41.921 10.055 42.119 10.055C42.317 10.044 42.405 9.978 42.405 9.769V2.08H38.115V1.321H43.175Z" fill="#262626"/>
<path d="M36.96 4.291H34.969V5.16H36.96V4.291ZM34.969 6.612H36.96V5.743H34.969V6.612ZM38.159 2.696L37.631 3.29C37.29 2.795 36.63 2.014 36.014 1.486C35.64 2.146 35.101 2.949 34.364 3.686H35.706V2.641H36.41V3.686H37.686V7.239H34.969V9.307C35.519 9.164 36.113 9.01 36.718 8.856C36.52 8.526 36.311 8.196 36.102 7.91L36.751 7.613C37.334 8.383 37.928 9.406 38.159 10.077L37.455 10.407C37.378 10.143 37.235 9.813 37.059 9.472C35.882 9.813 34.661 10.154 33.726 10.418L33.484 9.648C33.704 9.604 33.957 9.549 34.221 9.483V3.818C34.089 3.939 33.957 4.06 33.814 4.181C33.682 4.016 33.429 3.774 33.264 3.675C34.342 2.828 35.09 1.706 35.497 0.803999H36.289C36.96 1.354 37.763 2.146 38.159 2.696ZM40.656 5.358H39.116V7.459H40.656V5.358ZM41.327 8.141H39.116V9.032H38.434V4.676H41.327V8.141ZM41.613 3.048V3.719H38.192V3.048H41.613ZM43.175 1.321V9.78C43.175 10.275 43.043 10.55 42.68 10.693C42.339 10.825 41.811 10.847 40.821 10.836C40.777 10.627 40.634 10.253 40.502 10.044C41.283 10.066 41.921 10.055 42.119 10.055C42.317 10.044 42.405 9.978 42.405 9.769V2.08H38.115V1.321H43.175Z" fill="black"/>
<path d="M47.08 8.405H51.975V7.547H47.08V8.405ZM51.975 6.106H47.08V6.953H51.975V6.106ZM52.8 5.424V9.967C52.8 10.407 52.69 10.616 52.349 10.715C51.997 10.825 51.436 10.836 50.556 10.836C50.512 10.638 50.391 10.352 50.292 10.165C50.93 10.176 51.568 10.176 51.755 10.176C51.92 10.165 51.975 10.121 51.975 9.967V9.021H47.08V10.836H46.266V5.424H52.8ZM51.403 2.597H48.62C48.29 3.048 47.905 3.532 47.542 3.961C48.895 3.939 50.446 3.906 51.986 3.873C51.59 3.565 51.172 3.257 50.787 3.004L51.403 2.597ZM54.307 1.86V2.597H51.436C52.415 3.213 53.603 4.137 54.208 4.786L53.526 5.27C53.339 5.05 53.075 4.797 52.778 4.533C50.017 4.643 47.091 4.72 45.166 4.753L45.133 3.994L46.651 3.972C46.97 3.554 47.322 3.037 47.575 2.597H44.704V1.86H49.071V0.792999H49.896V1.86H54.307Z" fill="#262626"/>
<path d="M47.08 8.405H51.975V7.547H47.08V8.405ZM51.975 6.106H47.08V6.953H51.975V6.106ZM52.8 5.424V9.967C52.8 10.407 52.69 10.616 52.349 10.715C51.997 10.825 51.436 10.836 50.556 10.836C50.512 10.638 50.391 10.352 50.292 10.165C50.93 10.176 51.568 10.176 51.755 10.176C51.92 10.165 51.975 10.121 51.975 9.967V9.021H47.08V10.836H46.266V5.424H52.8ZM51.403 2.597H48.62C48.29 3.048 47.905 3.532 47.542 3.961C48.895 3.939 50.446 3.906 51.986 3.873C51.59 3.565 51.172 3.257 50.787 3.004L51.403 2.597ZM54.307 1.86V2.597H51.436C52.415 3.213 53.603 4.137 54.208 4.786L53.526 5.27C53.339 5.05 53.075 4.797 52.778 4.533C50.017 4.643 47.091 4.72 45.166 4.753L45.133 3.994L46.651 3.972C46.97 3.554 47.322 3.037 47.575 2.597H44.704V1.86H49.071V0.792999H49.896V1.86H54.307Z" fill="black"/>
<path d="M60.434 4.786H57.563V7.294H60.434V4.786ZM61.237 8.075H57.563V8.955H56.771V3.994H61.237V8.075ZM65.384 1.574V2.388H64.031V9.67C64.031 10.253 63.888 10.55 63.47 10.671C63.03 10.825 62.271 10.825 61.193 10.825C61.138 10.594 60.973 10.187 60.841 9.956C61.721 10 62.623 9.989 62.876 9.978C63.118 9.967 63.195 9.89 63.195 9.659V2.388H55.649V1.574H65.384Z" fill="#262626"/>
<path d="M60.434 4.786H57.563V7.294H60.434V4.786ZM61.237 8.075H57.563V8.955H56.771V3.994H61.237V8.075ZM65.384 1.574V2.388H64.031V9.67C64.031 10.253 63.888 10.55 63.47 10.671C63.03 10.825 62.271 10.825 61.193 10.825C61.138 10.594 60.973 10.187 60.841 9.956C61.721 10 62.623 9.989 62.876 9.978C63.118 9.967 63.195 9.89 63.195 9.659V2.388H55.649V1.574H65.384Z" fill="black"/>
</svg>
