<svg width="65" height="11" viewBox="0 0 65 11" fill="none" xmlns="http://www.w3.org/2000/svg">
<path d="M1.90449 2.70699V4.27999H1.07948V1.94799H5.21548V0.803986H6.06248V1.94799H10.2755V4.27999H9.42849V2.70699H1.90449ZM6.43649 9.98899H8.79049C9.42849 9.98899 9.52748 9.70299 9.59348 8.32799C9.79148 8.48199 10.1655 8.60299 10.4075 8.66899C10.2755 10.319 10.0115 10.781 8.83449 10.781H6.38148C5.10549 10.781 4.74249 10.495 4.74249 9.42799V7.39299L0.881485 7.84399L0.771484 7.05199L4.74249 6.61199V4.98398C3.85149 5.15998 2.93848 5.31399 2.08048 5.43499C2.04748 5.23699 1.92648 4.91799 1.82748 4.74199C4.01648 4.40099 6.50249 3.88399 7.86649 3.25699L8.53749 3.90599C7.73448 4.24699 6.71148 4.54399 5.61148 4.79699V6.51299L10.3855 5.97399L10.4955 6.73299L5.61148 7.29399V9.42799C5.61148 9.88999 5.73249 9.98899 6.43649 9.98899Z" fill="#262626"/>
<path d="M1.90449 2.70699V4.27999H1.07948V1.94799H5.21548V0.803986H6.06248V1.94799H10.2755V4.27999H9.42849V2.70699H1.90449ZM6.43649 9.98899H8.79049C9.42849 9.98899 9.52748 9.70299 9.59348 8.32799C9.79148 8.48199 10.1655 8.60299 10.4075 8.66899C10.2755 10.319 10.0115 10.781 8.83449 10.781H6.38148C5.10549 10.781 4.74249 10.495 4.74249 9.42799V7.39299L0.881485 7.84399L0.771484 7.05199L4.74249 6.61199V4.98398C3.85149 5.15998 2.93848 5.31399 2.08048 5.43499C2.04748 5.23699 1.92648 4.91799 1.82748 4.74199C4.01648 4.40099 6.50249 3.88399 7.86649 3.25699L8.53749 3.90599C7.73448 4.24699 6.71148 4.54399 5.61148 4.79699V6.51299L10.3855 5.97399L10.4955 6.73299L5.61148 7.29399V9.42799C5.61148 9.88999 5.73249 9.98899 6.43649 9.98899Z" fill="black"/>
<path d="M14.6425 3.23499V1.95899H13.9935V3.23499H14.6425ZM15.7975 6.13899V3.92799H15.0495V5.98499C15.0495 6.12799 15.0605 6.13899 15.2035 6.13899H15.5995C15.7095 6.13899 15.7425 6.13899 15.7535 6.10599L15.7975 6.13899ZM12.7615 9.38399H15.7975V8.25099H12.7615V9.38399ZM13.5205 3.92799H12.7615V7.63499H15.7975V6.61199C15.7645 6.62299 15.7205 6.62299 15.6765 6.62299H15.1485C14.7195 6.62299 14.5875 6.51299 14.5875 5.98499V3.92799H13.9715V4.80799C13.9715 5.47899 13.8175 6.34799 13.1355 6.97499C13.0585 6.87599 12.8715 6.71099 12.7725 6.65599C13.4105 6.09499 13.5205 5.37999 13.5205 4.79699V3.92799ZM11.8265 1.95899V1.22199H16.7215V1.95899H15.2365V3.23499H16.4685V10.649H15.7975V10.044H12.7615V10.803H12.1015V3.23499H13.4105V1.95899H11.8265ZM18.7015 9.95599H20.3955C20.8795 9.95599 20.9675 9.68099 21.0225 8.09699C21.2095 8.23999 21.5505 8.39399 21.7815 8.44899C21.6715 10.231 21.4405 10.726 20.4395 10.726H18.6135C17.6015 10.726 17.2935 10.473 17.2935 9.47199V4.73099H20.5715V2.07999H17.2495V1.28798H21.3745V6.24899H20.5715V5.51199H18.0965V9.47199C18.0965 9.87899 18.1955 9.95599 18.7015 9.95599Z" fill="#262626"/>
<path d="M14.6425 3.23499V1.95899H13.9935V3.23499H14.6425ZM15.7975 6.13899V3.92799H15.0495V5.98499C15.0495 6.12799 15.0605 6.13899 15.2035 6.13899H15.5995C15.7095 6.13899 15.7425 6.13899 15.7535 6.10599L15.7975 6.13899ZM12.7615 9.38399H15.7975V8.25099H12.7615V9.38399ZM13.5205 3.92799H12.7615V7.63499H15.7975V6.61199C15.7645 6.62299 15.7205 6.62299 15.6765 6.62299H15.1485C14.7195 6.62299 14.5875 6.51299 14.5875 5.98499V3.92799H13.9715V4.80799C13.9715 5.47899 13.8175 6.34799 13.1355 6.97499C13.0585 6.87599 12.8715 6.71099 12.7725 6.65599C13.4105 6.09499 13.5205 5.37999 13.5205 4.79699V3.92799ZM11.8265 1.95899V1.22199H16.7215V1.95899H15.2365V3.23499H16.4685V10.649H15.7975V10.044H12.7615V10.803H12.1015V3.23499H13.4105V1.95899H11.8265ZM18.7015 9.95599H20.3955C20.8795 9.95599 20.9675 9.68099 21.0225 8.09699C21.2095 8.23999 21.5505 8.39399 21.7815 8.44899C21.6715 10.231 21.4405 10.726 20.4395 10.726H18.6135C17.6015 10.726 17.2935 10.473 17.2935 9.47199V4.73099H20.5715V2.07999H17.2495V1.28798H21.3745V6.24899H20.5715V5.51199H18.0965V9.47199C18.0965 9.87899 18.1955 9.95599 18.7015 9.95599Z" fill="black"/>
<path d="M30.3065 5.59999C30.8895 6.30399 31.7695 7.67899 32.2095 8.47099L31.3955 8.92199C30.9665 8.06399 30.1415 6.68898 29.5585 5.99599L30.3065 5.59999ZM25.7085 5.96299C25.2465 6.90899 24.2125 8.30599 23.5965 8.97699L22.8375 8.47099C23.5635 7.78899 24.5095 6.47999 24.9385 5.58899L25.7085 5.96299ZM30.4385 1.30999C30.7135 1.69499 31.0875 2.33299 31.3185 2.78399L30.7245 3.04799C30.5045 2.59698 30.1525 1.96999 29.8555 1.55199L30.4385 1.30999ZM31.7365 0.990985C32.0225 1.39798 32.4295 2.04699 32.6385 2.45399L32.0445 2.71799C31.8025 2.24499 31.4615 1.65099 31.1535 1.24399L31.7365 0.990985ZM28.1285 1.51899C28.0955 1.67299 28.0625 2.06899 28.0625 2.31098V3.43299H30.9665C31.2305 3.43299 31.5935 3.41099 31.8685 3.37799V4.29099C31.5715 4.26899 31.2415 4.26899 30.9775 4.26899H28.0625V9.59299C28.0625 10.176 27.7765 10.473 27.1165 10.473C26.6545 10.473 25.9945 10.44 25.5545 10.396L25.4775 9.51599C25.9505 9.60399 26.4565 9.64799 26.7425 9.64799C27.0395 9.64799 27.1715 9.51599 27.1715 9.22999V4.26899H24.1135C23.7835 4.26899 23.4755 4.27999 23.1785 4.30199V3.37799C23.4865 3.41099 23.7615 3.43299 24.1135 3.43299H27.1715V2.29998C27.1715 2.05798 27.1385 1.68399 27.0945 1.51899H28.1285Z" fill="#262626"/>
<path d="M30.3065 5.59999C30.8895 6.30399 31.7695 7.67899 32.2095 8.47099L31.3955 8.92199C30.9665 8.06399 30.1415 6.68898 29.5585 5.99599L30.3065 5.59999ZM25.7085 5.96299C25.2465 6.90899 24.2125 8.30599 23.5965 8.97699L22.8375 8.47099C23.5635 7.78899 24.5095 6.47999 24.9385 5.58899L25.7085 5.96299ZM30.4385 1.30999C30.7135 1.69499 31.0875 2.33299 31.3185 2.78399L30.7245 3.04799C30.5045 2.59698 30.1525 1.96999 29.8555 1.55199L30.4385 1.30999ZM31.7365 0.990985C32.0225 1.39798 32.4295 2.04699 32.6385 2.45399L32.0445 2.71799C31.8025 2.24499 31.4615 1.65099 31.1535 1.24399L31.7365 0.990985ZM28.1285 1.51899C28.0955 1.67299 28.0625 2.06899 28.0625 2.31098V3.43299H30.9665C31.2305 3.43299 31.5935 3.41099 31.8685 3.37799V4.29099C31.5715 4.26899 31.2415 4.26899 30.9775 4.26899H28.0625V9.59299C28.0625 10.176 27.7765 10.473 27.1165 10.473C26.6545 10.473 25.9945 10.44 25.5545 10.396L25.4775 9.51599C25.9505 9.60399 26.4565 9.64799 26.7425 9.64799C27.0395 9.64799 27.1715 9.51599 27.1715 9.22999V4.26899H24.1135C23.7835 4.26899 23.4755 4.27999 23.1785 4.30199V3.37799C23.4865 3.41099 23.7615 3.43299 24.1135 3.43299H27.1715V2.29998C27.1715 2.05798 27.1385 1.68399 27.0945 1.51899H28.1285Z" fill="black"/>
<path d="M38.4795 3.66399C38.6665 4.10399 39.2055 5.55599 39.3485 6.03999L38.5345 6.32599C38.4135 5.83099 37.9075 4.43399 37.6765 3.93899L38.4795 3.66399ZM42.4615 4.27999C42.3845 4.51099 42.3405 4.68699 42.2965 4.82999C41.9995 6.03999 41.5265 7.21699 40.7345 8.20699C39.7225 9.50499 38.3805 10.352 37.1485 10.825L36.4225 10.088C37.6985 9.71399 39.0955 8.87799 39.9975 7.74499C40.7785 6.78799 41.3505 5.39099 41.5155 3.98299L42.4615 4.27999ZM35.9275 4.21399C36.1475 4.68699 36.7195 6.12799 36.9285 6.69999L36.0925 7.00799C35.9275 6.43599 35.3335 4.91799 35.1135 4.53299L35.9275 4.21399Z" fill="#262626"/>
<path d="M38.4795 3.66399C38.6665 4.10399 39.2055 5.55599 39.3485 6.03999L38.5345 6.32599C38.4135 5.83099 37.9075 4.43399 37.6765 3.93899L38.4795 3.66399ZM42.4615 4.27999C42.3845 4.51099 42.3405 4.68699 42.2965 4.82999C41.9995 6.03999 41.5265 7.21699 40.7345 8.20699C39.7225 9.50499 38.3805 10.352 37.1485 10.825L36.4225 10.088C37.6985 9.71399 39.0955 8.87799 39.9975 7.74499C40.7785 6.78799 41.3505 5.39099 41.5155 3.98299L42.4615 4.27999ZM35.9275 4.21399C36.1475 4.68699 36.7195 6.12799 36.9285 6.69999L36.0925 7.00799C35.9275 6.43599 35.3335 4.91799 35.1135 4.53299L35.9275 4.21399Z" fill="black"/>
<path d="M50.0735 1.45299C49.8865 1.73899 49.6885 2.11299 49.5895 2.32199C49.5125 2.47599 49.4245 2.62999 49.3255 2.78399H52.3065C52.6035 2.78399 52.8455 2.75099 53.0215 2.67399L53.7585 3.12499C53.6705 3.27899 53.5605 3.53199 53.5055 3.70799C53.2085 4.81899 52.5265 6.30399 51.5475 7.49199C50.5465 8.71299 49.2375 9.72498 47.1695 10.484L46.3775 9.76899C48.3905 9.17499 49.7655 8.17399 50.7665 7.00799C51.6245 5.99599 52.2955 4.57699 52.5265 3.57598H48.8085C48.1375 4.49999 47.2135 5.47899 46.0145 6.28199L45.2555 5.70999C47.1475 4.57699 48.2365 2.98199 48.7095 1.99199C48.8195 1.80499 48.9845 1.40899 49.0505 1.12299L50.0735 1.45299Z" fill="#262626"/>
<path d="M50.0735 1.45299C49.8865 1.73899 49.6885 2.11299 49.5895 2.32199C49.5125 2.47599 49.4245 2.62999 49.3255 2.78399H52.3065C52.6035 2.78399 52.8455 2.75099 53.0215 2.67399L53.7585 3.12499C53.6705 3.27899 53.5605 3.53199 53.5055 3.70799C53.2085 4.81899 52.5265 6.30399 51.5475 7.49199C50.5465 8.71299 49.2375 9.72498 47.1695 10.484L46.3775 9.76899C48.3905 9.17499 49.7655 8.17399 50.7665 7.00799C51.6245 5.99599 52.2955 4.57699 52.5265 3.57598H48.8085C48.1375 4.49999 47.2135 5.47899 46.0145 6.28199L45.2555 5.70999C47.1475 4.57699 48.2365 2.98199 48.7095 1.99199C48.8195 1.80499 48.9845 1.40899 49.0505 1.12299L50.0735 1.45299Z" fill="black"/>
<path d="M63.6335 2.64099C63.5675 2.72899 63.4245 2.97099 63.3585 3.12499C62.9845 4.07099 62.2915 5.35799 61.5105 6.34799C62.6655 7.33799 64.0075 8.76799 64.7225 9.63699L63.9525 10.297C63.2155 9.32899 62.0495 8.03099 60.9275 7.02999C59.7505 8.29499 58.2655 9.50499 56.6375 10.242L55.9335 9.50499C57.7045 8.81199 59.3325 7.50299 60.4655 6.23799C61.2135 5.39099 62.0165 4.09299 62.2915 3.17999H58.0015C57.6165 3.17999 57.0115 3.22398 56.8905 3.23499V2.23398C57.0445 2.25598 57.6715 2.29998 58.0015 2.29998H62.2475C62.6105 2.29998 62.8965 2.26699 63.0725 2.21199L63.6335 2.64099Z" fill="#262626"/>
<path d="M63.6335 2.64099C63.5675 2.72899 63.4245 2.97099 63.3585 3.12499C62.9845 4.07099 62.2915 5.35799 61.5105 6.34799C62.6655 7.33799 64.0075 8.76799 64.7225 9.63699L63.9525 10.297C63.2155 9.32899 62.0495 8.03099 60.9275 7.02999C59.7505 8.29499 58.2655 9.50499 56.6375 10.242L55.9335 9.50499C57.7045 8.81199 59.3325 7.50299 60.4655 6.23799C61.2135 5.39099 62.0165 4.09299 62.2915 3.17999H58.0015C57.6165 3.17999 57.0115 3.22398 56.8905 3.23499V2.23398C57.0445 2.25598 57.6715 2.29998 58.0015 2.29998H62.2475C62.6105 2.29998 62.8965 2.26699 63.0725 2.21199L63.6335 2.64099Z" fill="black"/>
</svg>
