<svg width="30" height="30" viewBox="0 0 30 30" fill="none" xmlns="http://www.w3.org/2000/svg">
<g id="noun-parking-3382797 1" clip-path="url(#clip0_3130_20745)">
<g id="Group">
<path id="Vector" d="M7.50164 16.9107H2.03052C1.50305 16.9102 0.997356 16.7004 0.624381 16.3274C0.251406 15.9544 0.041608 15.4487 0.0410156 14.9212V1.9895C0.041608 1.46203 0.251406 0.95634 0.624381 0.583365C0.997356 0.21039 1.50305 0.0005924 2.03052 0H14.9623C15.4897 0.0005924 15.9954 0.21039 16.3684 0.583365C16.7414 0.95634 16.9512 1.46203 16.9518 1.9895V10.4449H15.957V1.9895C15.9567 1.72577 15.8518 1.47293 15.6653 1.28645C15.4788 1.09997 15.226 0.995062 14.9623 0.99475H2.03052C1.76679 0.995062 1.51395 1.09997 1.32747 1.28645C1.14098 1.47293 1.03608 1.72577 1.03577 1.9895V14.9212C1.03608 15.185 1.14098 15.4378 1.32747 15.6243C1.51395 15.8108 1.76679 15.9157 2.03052 15.916H7.50164V16.9107Z" fill="#8C7D5E"/>
<path id="Vector_2" d="M29.2407 19.5434C28.8464 19.147 28.3148 18.9174 27.7559 18.9019L25.7219 12.8C25.5901 12.4037 25.3369 12.0589 24.998 11.8148C24.6592 11.5706 24.2521 11.4393 23.8344 11.4397H12.0591C11.6414 11.4393 11.2343 11.5706 10.8955 11.8148C10.5567 12.0589 10.3034 12.4037 10.1716 12.8L8.1376 18.9019C7.56734 18.9193 7.02626 19.1581 6.62904 19.5676C6.23183 19.9771 6.00971 20.5253 6.00977 21.0958V24.8688C6.01036 25.3963 6.22016 25.902 6.59313 26.275C6.96611 26.6479 7.4718 26.8577 7.99927 26.8583H11.4809V28.8478H8.49664V27.8531H7.50189V28.8478C7.5022 29.1115 7.60711 29.3644 7.79359 29.5509C7.98008 29.7374 8.23291 29.8423 8.49664 29.8426H11.4809C11.7446 29.8423 11.9975 29.7374 12.1839 29.5509C12.3704 29.3644 12.4753 29.1115 12.4756 28.8478V26.8583H23.4179V28.8478C23.4182 29.1115 23.5231 29.3644 23.7096 29.5509C23.8961 29.7374 24.1489 29.8423 24.4126 29.8426H27.3969C27.6606 29.8423 27.9135 29.7374 28.0999 29.5509C28.2864 29.3644 28.3913 29.1115 28.3916 28.8478V26.7953C28.8184 26.6845 29.1964 26.4353 29.4664 26.0867C29.7364 25.7381 29.8832 25.3098 29.8838 24.8688V21.0958C29.8846 20.8074 29.8281 20.5216 29.7177 20.2552C29.6074 19.9887 29.4452 19.7468 29.2407 19.5434ZM12.0591 12.4344H23.8344C24.0433 12.4343 24.2469 12.4999 24.4163 12.622C24.5857 12.7441 24.7124 12.9165 24.7783 13.1147L24.8831 13.4292H11.0104L11.1153 13.1147C11.1812 12.9165 11.3078 12.7441 11.4772 12.622C11.6467 12.4999 11.8502 12.4343 12.0591 12.4344ZM10.6789 14.4239H25.2147L26.7068 18.9003H9.18675L10.6789 14.4239ZM27.3969 28.8478H24.4126V26.8583H27.3969L27.3974 28.8478H27.3969ZM28.889 24.8688C28.8887 25.1326 28.7838 25.3854 28.5973 25.5719C28.4108 25.7584 28.158 25.8633 27.8943 25.8636H7.99927C7.73554 25.8633 7.4827 25.7584 7.29622 25.5719C7.10973 25.3854 7.00483 25.1326 7.00452 24.8688V21.0958C7.00453 20.7774 7.13104 20.472 7.35622 20.2468C7.58139 20.0216 7.88679 19.8951 8.20524 19.8951H27.6883C28.0067 19.8951 28.3121 20.0216 28.5373 20.2468C28.7625 20.472 28.889 20.7774 28.889 21.0958V24.8688Z" fill="#8C7D5E"/>
<path id="Vector_3" d="M9.98755 20.8896C9.59406 20.8896 9.20941 21.0063 8.88224 21.2249C8.55507 21.4435 8.30007 21.7543 8.14949 22.1178C7.99891 22.4813 7.95951 22.8814 8.03628 23.2673C8.11304 23.6532 8.30252 24.0077 8.58076 24.2859C8.859 24.5642 9.21349 24.7537 9.59942 24.8304C9.98534 24.9072 10.3854 24.8678 10.7489 24.7172C11.1124 24.5666 11.4231 24.3116 11.6418 23.9845C11.8604 23.6573 11.977 23.2726 11.977 22.8791C11.9765 22.3517 11.7667 21.846 11.3937 21.473C11.0207 21.1 10.515 20.8902 9.98755 20.8896ZM9.98755 23.8739C9.7908 23.8739 9.59848 23.8156 9.43489 23.7063C9.27131 23.5969 9.14381 23.4416 9.06852 23.2598C8.99323 23.0781 8.97353 22.878 9.01191 22.6851C9.05029 22.4921 9.14504 22.3149 9.28415 22.1758C9.42327 22.0366 9.60052 21.9419 9.79348 21.9035C9.98644 21.8651 10.1865 21.8848 10.3682 21.9601C10.55 22.0354 10.7053 22.1629 10.8147 22.3265C10.924 22.4901 10.9823 22.6824 10.9823 22.8791C10.982 23.1429 10.8771 23.3957 10.6906 23.5822C10.5041 23.7687 10.2513 23.8736 9.98755 23.8739Z" fill="#8C7D5E"/>
<path id="Vector_4" d="M25.9036 20.8896C25.5101 20.8896 25.1254 21.0063 24.7983 21.2249C24.4711 21.4435 24.2161 21.7543 24.0655 22.1178C23.9149 22.4813 23.8755 22.8814 23.9523 23.2673C24.0291 23.6532 24.2185 24.0077 24.4968 24.2859C24.775 24.5642 25.1295 24.7537 25.5154 24.8304C25.9014 24.9072 26.3014 24.8678 26.6649 24.7172C27.0284 24.5666 27.3392 24.3116 27.5578 23.9845C27.7764 23.6573 27.8931 23.2726 27.8931 22.8791C27.8925 22.3517 27.6827 21.846 27.3097 21.473C26.9367 21.1 26.431 20.8902 25.9036 20.8896ZM25.9036 23.8739C25.7068 23.8739 25.5145 23.8156 25.3509 23.7063C25.1873 23.5969 25.0598 23.4416 24.9845 23.2598C24.9092 23.0781 24.8895 22.878 24.9279 22.6851C24.9663 22.4921 25.061 22.3149 25.2002 22.1758C25.3393 22.0366 25.5165 21.9419 25.7095 21.9035C25.9025 21.8651 26.1025 21.8848 26.2842 21.9601C26.466 22.0354 26.6214 22.1629 26.7307 22.3265C26.84 22.4901 26.8983 22.6824 26.8983 22.8791C26.898 23.1429 26.7931 23.3957 26.6066 23.5822C26.4201 23.7687 26.1673 23.8736 25.9036 23.8739Z" fill="#8C7D5E"/>
<path id="Vector_5" d="M22.9202 21.3872H12.9727V22.382H22.9202V21.3872Z" fill="#8C7D5E"/>
<path id="Vector_6" d="M22.9202 23.3767H12.9727V24.3715H22.9202V23.3767Z" fill="#8C7D5E"/>
<path id="&#229;&#176;&#130;" d="M4.43945 9.66746H12.2012V10.5185H4.43945V9.66746ZM4.65222 5.08022H11.9884V5.91427H4.65222V5.08022ZM9.35009 9.12278H10.3543V11.5143C10.3543 11.9994 10.2437 12.2377 9.88626 12.3738C9.52881 12.5015 9.02669 12.51 8.33733 12.51C8.29477 12.2377 8.1586 11.8717 8.03094 11.6164C8.4735 11.6419 9.01818 11.6419 9.16286 11.6334C9.29903 11.6249 9.35009 11.5994 9.35009 11.4887V9.12278ZM7.77562 4.51001H8.78839V8.85044H7.77562V4.51001ZM5.66499 10.9526L6.42243 10.4164C6.88201 10.7313 7.44371 11.2079 7.69903 11.5568L6.88201 12.1611C6.65222 11.8121 6.10754 11.3015 5.66499 10.9526ZM6.21818 8.07597V8.51001H10.4054V8.07597H6.21818ZM6.21818 6.99512V7.42916H10.4054V6.99512H6.21818ZM5.26499 6.29724H11.4097V9.20788H5.26499V6.29724Z" fill="#8C7D5E"/>
</g>
</g>
<defs>
<clipPath id="clip0_3130_20745">
<rect width="30" height="30" fill="white"/>
</clipPath>
</defs>
</svg>
