<svg width="62" height="26" viewBox="0 0 62 26" fill="none" xmlns="http://www.w3.org/2000/svg">
<path d="M11.277 8.801L11.882 8.361C12.52 8.779 13.257 9.406 13.631 9.857L12.982 10.352C12.641 9.901 11.904 9.241 11.277 8.801ZM11.453 5.193V6.084H14.071V5.193H11.453ZM11.453 3.719V4.61H14.071V3.719H11.453ZM17.558 3.719H14.863V4.61H17.558V3.719ZM17.558 6.084V5.193H14.863V6.084H17.558ZM19.406 7.536V8.24H16.92V9.978C16.92 10.429 16.821 10.638 16.458 10.748C16.095 10.869 15.501 10.869 14.566 10.869C14.522 10.66 14.401 10.363 14.291 10.154C15.017 10.176 15.699 10.176 15.875 10.165C16.062 10.154 16.128 10.11 16.128 9.956V8.24H9.605V7.536H16.128V6.7H10.683V3.125H14.071V2.377H9.88V1.673H14.071V0.814999H14.863V1.673H19.153V2.377H14.863V3.125H18.361V6.7H16.92V7.536H19.406Z" fill="#262626"/>
<path d="M11.277 8.801L11.882 8.361C12.52 8.779 13.257 9.406 13.631 9.857L12.982 10.352C12.641 9.901 11.904 9.241 11.277 8.801ZM11.453 5.193V6.084H14.071V5.193H11.453ZM11.453 3.719V4.61H14.071V3.719H11.453ZM17.558 3.719H14.863V4.61H17.558V3.719ZM17.558 6.084V5.193H14.863V6.084H17.558ZM19.406 7.536V8.24H16.92V9.978C16.92 10.429 16.821 10.638 16.458 10.748C16.095 10.869 15.501 10.869 14.566 10.869C14.522 10.66 14.401 10.363 14.291 10.154C15.017 10.176 15.699 10.176 15.875 10.165C16.062 10.154 16.128 10.11 16.128 9.956V8.24H9.605V7.536H16.128V6.7H10.683V3.125H14.071V2.377H9.88V1.673H14.071V0.814999H14.863V1.673H19.153V2.377H14.863V3.125H18.361V6.7H16.92V7.536H19.406Z" fill="black"/>
<path d="M28.217 6.106V4.995H23.63V6.106H28.217ZM23.63 7.965H28.217V6.81H23.63V7.965ZM30.307 2.982H24.389C24.18 3.411 23.96 3.851 23.718 4.258H29.02V9.813C29.02 10.308 28.91 10.55 28.558 10.682C28.195 10.814 27.579 10.825 26.644 10.825C26.611 10.583 26.49 10.253 26.38 10.022C27.106 10.055 27.766 10.044 27.964 10.044C28.151 10.033 28.217 9.978 28.217 9.813V8.669H23.63V10.836H22.827V5.545C22.299 6.194 21.694 6.788 21.001 7.272C20.891 7.096 20.638 6.799 20.473 6.645C21.793 5.754 22.794 4.434 23.498 2.982H20.737V2.212H23.839C24.026 1.739 24.191 1.266 24.323 0.792999L25.137 0.990999C25.005 1.398 24.873 1.816 24.708 2.212H30.307V2.982Z" fill="#262626"/>
<path d="M28.217 6.106V4.995H23.63V6.106H28.217ZM23.63 7.965H28.217V6.81H23.63V7.965ZM30.307 2.982H24.389C24.18 3.411 23.96 3.851 23.718 4.258H29.02V9.813C29.02 10.308 28.91 10.55 28.558 10.682C28.195 10.814 27.579 10.825 26.644 10.825C26.611 10.583 26.49 10.253 26.38 10.022C27.106 10.055 27.766 10.044 27.964 10.044C28.151 10.033 28.217 9.978 28.217 9.813V8.669H23.63V10.836H22.827V5.545C22.299 6.194 21.694 6.788 21.001 7.272C20.891 7.096 20.638 6.799 20.473 6.645C21.793 5.754 22.794 4.434 23.498 2.982H20.737V2.212H23.839C24.026 1.739 24.191 1.266 24.323 0.792999L25.137 0.990999C25.005 1.398 24.873 1.816 24.708 2.212H30.307V2.982Z" fill="black"/>
<path d="M39.998 9.505V4.445H38.348V9.505H39.998ZM32.969 4.445V9.505H34.531V4.445H32.969ZM37.6 5.655V4.445H35.279V5.655H37.6ZM35.279 8.229V9.505H37.6V8.229H35.279ZM37.6 7.558V6.326H35.279V7.558H37.6ZM41.351 2.311H36.841C36.709 2.773 36.555 3.268 36.412 3.686H40.823V10.847H39.998V10.264H32.969V10.847H32.177V3.686H35.576C35.697 3.268 35.807 2.762 35.895 2.311H31.682V1.53H41.351V2.311Z" fill="#262626"/>
<path d="M39.998 9.505V4.445H38.348V9.505H39.998ZM32.969 4.445V9.505H34.531V4.445H32.969ZM37.6 5.655V4.445H35.279V5.655H37.6ZM35.279 8.229V9.505H37.6V8.229H35.279ZM37.6 7.558V6.326H35.279V7.558H37.6ZM41.351 2.311H36.841C36.709 2.773 36.555 3.268 36.412 3.686H40.823V10.847H39.998V10.264H32.969V10.847H32.177V3.686H35.576C35.697 3.268 35.807 2.762 35.895 2.311H31.682V1.53H41.351V2.311Z" fill="black"/>
<path d="M46.521 6.766L46.037 7.415C45.861 7.107 45.432 6.535 45.069 6.084V10.814H44.277V6.007C43.837 7.107 43.276 8.174 42.726 8.834C42.638 8.603 42.44 8.284 42.308 8.086C43.012 7.305 43.782 5.864 44.211 4.599H42.594V3.829H44.277V2.168C43.771 2.256 43.254 2.344 42.781 2.399C42.748 2.223 42.627 1.948 42.528 1.772C43.716 1.585 45.113 1.299 45.883 0.957999L46.455 1.574C46.059 1.739 45.575 1.871 45.069 1.992V3.829H46.257V3.653H48.93V3.059H46.84V2.531H48.93V1.959H46.598V1.409H48.93V0.803999H49.744V1.409H52.241V1.959H49.744V2.531H51.966V3.059H49.744V3.653H52.516V4.214H46.312V4.599H45.069V5.27C45.41 5.6 46.312 6.524 46.521 6.766ZM47.742 7.8V8.537H51.119V7.8H47.742ZM47.742 6.557V7.272H51.119V6.557H47.742ZM47.742 5.325V6.018H51.119V5.325H47.742ZM51.889 9.087H46.994V4.775H51.889V9.087ZM48.226 9.142L48.908 9.549C48.259 10.077 47.203 10.605 46.301 10.88C46.18 10.726 45.938 10.484 45.773 10.341C46.675 10.088 47.709 9.593 48.226 9.142ZM49.953 9.582L50.503 9.175C51.24 9.593 52.087 10.099 52.604 10.451L51.889 10.847C51.449 10.517 50.657 10 49.953 9.582Z" fill="#262626"/>
<path d="M46.521 6.766L46.037 7.415C45.861 7.107 45.432 6.535 45.069 6.084V10.814H44.277V6.007C43.837 7.107 43.276 8.174 42.726 8.834C42.638 8.603 42.44 8.284 42.308 8.086C43.012 7.305 43.782 5.864 44.211 4.599H42.594V3.829H44.277V2.168C43.771 2.256 43.254 2.344 42.781 2.399C42.748 2.223 42.627 1.948 42.528 1.772C43.716 1.585 45.113 1.299 45.883 0.957999L46.455 1.574C46.059 1.739 45.575 1.871 45.069 1.992V3.829H46.257V3.653H48.93V3.059H46.84V2.531H48.93V1.959H46.598V1.409H48.93V0.803999H49.744V1.409H52.241V1.959H49.744V2.531H51.966V3.059H49.744V3.653H52.516V4.214H46.312V4.599H45.069V5.27C45.41 5.6 46.312 6.524 46.521 6.766ZM47.742 7.8V8.537H51.119V7.8H47.742ZM47.742 6.557V7.272H51.119V6.557H47.742ZM47.742 5.325V6.018H51.119V5.325H47.742ZM51.889 9.087H46.994V4.775H51.889V9.087ZM48.226 9.142L48.908 9.549C48.259 10.077 47.203 10.605 46.301 10.88C46.18 10.726 45.938 10.484 45.773 10.341C46.675 10.088 47.709 9.593 48.226 9.142ZM49.953 9.582L50.503 9.175C51.24 9.593 52.087 10.099 52.604 10.451L51.889 10.847C51.449 10.517 50.657 10 49.953 9.582Z" fill="black"/>
<path d="M2.43652 25V18.4419H2.40967L0.384766 19.8384V18.6997L2.42578 17.2495H3.61279V25H2.43652Z" fill="#262626"/>
<path d="M2.43652 25V18.4419H2.40967L0.384766 19.8384V18.6997L2.42578 17.2495H3.61279V25H2.43652Z" fill="black"/>
<path d="M5.50342 25V24.1729L8.23193 21.4282C9.26318 20.397 9.49414 19.9888 9.49414 19.3872V19.3765C9.48877 18.6406 8.93018 18.1143 8.146 18.1143C7.23828 18.1143 6.58838 18.7266 6.57764 19.5107V19.543H5.43896V19.5107C5.43896 18.125 6.61523 17.1206 8.12988 17.1206C9.61768 17.1206 10.6812 18.0552 10.6812 19.3066V19.3174C10.6812 20.2036 10.2676 20.832 8.87646 22.207L7.11475 23.9365V23.9849H10.8047V25H5.50342Z" fill="#262626"/>
<path d="M5.50342 25V24.1729L8.23193 21.4282C9.26318 20.397 9.49414 19.9888 9.49414 19.3872V19.3765C9.48877 18.6406 8.93018 18.1143 8.146 18.1143C7.23828 18.1143 6.58838 18.7266 6.57764 19.5107V19.543H5.43896V19.5107C5.43896 18.125 6.61523 17.1206 8.12988 17.1206C9.61768 17.1206 10.6812 18.0552 10.6812 19.3066V19.3174C10.6812 20.2036 10.2676 20.832 8.87646 22.207L7.11475 23.9365V23.9849H10.8047V25H5.50342Z" fill="black"/>
<path d="M14.6934 25.1289C12.8403 25.1289 11.7339 23.5874 11.7339 21.1274V21.1167C11.7339 18.6567 12.8403 17.1206 14.6934 17.1206C16.541 17.1206 17.6528 18.6567 17.6528 21.1167V21.1274C17.6528 23.5874 16.541 25.1289 14.6934 25.1289ZM14.6934 24.1245C15.7944 24.1245 16.439 22.9858 16.439 21.1274V21.1167C16.439 19.2583 15.7944 18.1304 14.6934 18.1304C13.5869 18.1304 12.9478 19.2583 12.9478 21.1167V21.1274C12.9478 22.9858 13.5869 24.1245 14.6934 24.1245Z" fill="#262626"/>
<path d="M14.6934 25.1289C12.8403 25.1289 11.7339 23.5874 11.7339 21.1274V21.1167C11.7339 18.6567 12.8403 17.1206 14.6934 17.1206C16.541 17.1206 17.6528 18.6567 17.6528 21.1167V21.1274C17.6528 23.5874 16.541 25.1289 14.6934 25.1289ZM14.6934 24.1245C15.7944 24.1245 16.439 22.9858 16.439 21.1274V21.1167C16.439 19.2583 15.7944 18.1304 14.6934 18.1304C13.5869 18.1304 12.9478 19.2583 12.9478 21.1167V21.1274C12.9478 22.9858 13.5869 24.1245 14.6934 24.1245Z" fill="black"/>
<path d="M28.5315 21.183V21.986H24.0215V25.836H23.1855V21.986H18.7415V21.183H23.1855V17.344H19.3135V16.541H27.9155V17.344H24.0215V21.183H28.5315ZM20.0835 18.103L20.7985 17.883C21.2495 18.675 21.7005 19.709 21.8435 20.358L21.0735 20.622C20.9195 19.973 20.5015 18.906 20.0835 18.103ZM25.9135 20.655L25.2205 20.424C25.6275 19.742 26.1335 18.62 26.4085 17.828L27.2665 18.07C26.8705 18.95 26.3425 19.995 25.9135 20.655Z" fill="#262626"/>
<path d="M28.5315 21.183V21.986H24.0215V25.836H23.1855V21.986H18.7415V21.183H23.1855V17.344H19.3135V16.541H27.9155V17.344H24.0215V21.183H28.5315ZM20.0835 18.103L20.7985 17.883C21.2495 18.675 21.7005 19.709 21.8435 20.358L21.0735 20.622C20.9195 19.973 20.5015 18.906 20.0835 18.103ZM25.9135 20.655L25.2205 20.424C25.6275 19.742 26.1335 18.62 26.4085 17.828L27.2665 18.07C26.8705 18.95 26.3425 19.995 25.9135 20.655Z" fill="black"/>
<path d="M38.0465 16.354L38.9265 16.706C38.3985 17.63 37.6945 18.73 37.1445 19.423L36.4405 19.104C36.9905 18.378 37.6725 17.201 38.0465 16.354ZM32.7335 18.983L31.9415 19.335C31.6995 18.653 31.0725 17.564 30.4455 16.761L31.1825 16.453C31.7985 17.223 32.4695 18.279 32.7335 18.983ZM39.4325 20.82H35.6925C36.6715 22.305 38.2775 23.79 39.7185 24.538C39.5205 24.703 39.2455 25.022 39.1025 25.242C37.6615 24.373 36.0775 22.8 35.0325 21.183V25.847H34.1855V21.205C33.1625 22.877 31.6115 24.45 30.1485 25.341C30.0165 25.132 29.7415 24.835 29.5655 24.659C31.0065 23.878 32.6015 22.36 33.5365 20.82H29.8075V20.017H34.1855V15.815H35.0325V20.017H39.4325V20.82Z" fill="#262626"/>
<path d="M38.0465 16.354L38.9265 16.706C38.3985 17.63 37.6945 18.73 37.1445 19.423L36.4405 19.104C36.9905 18.378 37.6725 17.201 38.0465 16.354ZM32.7335 18.983L31.9415 19.335C31.6995 18.653 31.0725 17.564 30.4455 16.761L31.1825 16.453C31.7985 17.223 32.4695 18.279 32.7335 18.983ZM39.4325 20.82H35.6925C36.6715 22.305 38.2775 23.79 39.7185 24.538C39.5205 24.703 39.2455 25.022 39.1025 25.242C37.6615 24.373 36.0775 22.8 35.0325 21.183V25.847H34.1855V21.205C33.1625 22.877 31.6115 24.45 30.1485 25.341C30.0165 25.132 29.7415 24.835 29.5655 24.659C31.0065 23.878 32.6015 22.36 33.5365 20.82H29.8075V20.017H34.1855V15.815H35.0325V20.017H39.4325V20.82Z" fill="black"/>
<path d="M46.6155 19.786L45.8455 20.204C45.5485 19.445 44.8445 18.323 44.1515 17.52L44.8775 17.157C45.6035 17.96 46.3075 19.038 46.6155 19.786ZM45.0535 21.92L45.2405 22.701C43.7225 23.394 42.0615 24.12 40.8515 24.648L40.5545 23.801C40.9835 23.636 41.5005 23.427 42.0725 23.185L41.8855 16.387L42.7215 16.354L42.8865 22.844C43.5905 22.547 44.3275 22.228 45.0535 21.92ZM50.7625 25.176L50.0805 25.803C49.5745 25.044 48.5515 23.889 47.6165 22.899C46.7585 24.197 45.5595 25.154 43.8435 25.869C43.7335 25.704 43.3925 25.33 43.1945 25.165C46.9675 23.779 48.1335 21.117 48.6175 16.365L49.5085 16.453C49.2445 18.807 48.8265 20.677 48.0565 22.151C49.0355 23.141 50.2015 24.362 50.7625 25.176Z" fill="#262626"/>
<path d="M46.6155 19.786L45.8455 20.204C45.5485 19.445 44.8445 18.323 44.1515 17.52L44.8775 17.157C45.6035 17.96 46.3075 19.038 46.6155 19.786ZM45.0535 21.92L45.2405 22.701C43.7225 23.394 42.0615 24.12 40.8515 24.648L40.5545 23.801C40.9835 23.636 41.5005 23.427 42.0725 23.185L41.8855 16.387L42.7215 16.354L42.8865 22.844C43.5905 22.547 44.3275 22.228 45.0535 21.92ZM50.7625 25.176L50.0805 25.803C49.5745 25.044 48.5515 23.889 47.6165 22.899C46.7585 24.197 45.5595 25.154 43.8435 25.869C43.7335 25.704 43.3925 25.33 43.1945 25.165C46.9675 23.779 48.1335 21.117 48.6175 16.365L49.5085 16.453C49.2445 18.807 48.8265 20.677 48.0565 22.151C49.0355 23.141 50.2015 24.362 50.7625 25.176Z" fill="black"/>
<path d="M56.6915 24.505H61.5315V25.319H51.7305V24.505H55.8335V15.969H56.6915V19.335H60.7835V20.149H56.6915V24.505Z" fill="#262626"/>
<path d="M56.6915 24.505H61.5315V25.319H51.7305V24.505H55.8335V15.969H56.6915V19.335H60.7835V20.149H56.6915V24.505Z" fill="black"/>
</svg>
