<svg width="75" height="26" viewBox="0 0 75 26" fill="none" xmlns="http://www.w3.org/2000/svg">
<path d="M1.77698 8.80099L2.38198 8.36099C3.01998 8.77899 3.75698 9.40599 4.13098 9.85699L3.48198 10.352C3.14098 9.90099 2.40398 9.24099 1.77698 8.80099ZM1.95298 5.19299V6.08399H4.57098V5.19299H1.95298ZM1.95298 3.71899V4.60999H4.57098V3.71899H1.95298ZM8.05798 3.71899H5.36298V4.60999H8.05798V3.71899ZM8.05798 6.08399V5.19299H5.36298V6.08399H8.05798ZM9.90598 7.53599V8.23999H7.41998V9.97799C7.41998 10.429 7.32098 10.638 6.95798 10.748C6.59498 10.869 6.00098 10.869 5.06598 10.869C5.02198 10.66 4.90098 10.363 4.79098 10.154C5.51698 10.176 6.19898 10.176 6.37498 10.165C6.56198 10.154 6.62798 10.11 6.62798 9.95599V8.23999H0.10498V7.53599H6.62798V6.69999H1.18298V3.12499H4.57098V2.37699H0.37998V1.67299H4.57098V0.814993H5.36298V1.67299H9.65298V2.37699H5.36298V3.12499H8.86098V6.69999H7.41998V7.53599H9.90598Z" fill="#262626"/>
<path d="M1.77698 8.80099L2.38198 8.36099C3.01998 8.77899 3.75698 9.40599 4.13098 9.85699L3.48198 10.352C3.14098 9.90099 2.40398 9.24099 1.77698 8.80099ZM1.95298 5.19299V6.08399H4.57098V5.19299H1.95298ZM1.95298 3.71899V4.60999H4.57098V3.71899H1.95298ZM8.05798 3.71899H5.36298V4.60999H8.05798V3.71899ZM8.05798 6.08399V5.19299H5.36298V6.08399H8.05798ZM9.90598 7.53599V8.23999H7.41998V9.97799C7.41998 10.429 7.32098 10.638 6.95798 10.748C6.59498 10.869 6.00098 10.869 5.06598 10.869C5.02198 10.66 4.90098 10.363 4.79098 10.154C5.51698 10.176 6.19898 10.176 6.37498 10.165C6.56198 10.154 6.62798 10.11 6.62798 9.95599V8.23999H0.10498V7.53599H6.62798V6.69999H1.18298V3.12499H4.57098V2.37699H0.37998V1.67299H4.57098V0.814993H5.36298V1.67299H9.65298V2.37699H5.36298V3.12499H8.86098V6.69999H7.41998V7.53599H9.90598Z" fill="black"/>
<path d="M16.462 6.71099H19.421V4.88499H16.462V6.71099ZM12.975 6.71099H15.648V4.88499H13.019V5.53399C13.019 5.89699 13.008 6.30399 12.975 6.71099ZM15.648 2.35499H13.019V4.11499H15.648V2.35499ZM19.421 4.11499V2.35499H16.462V4.11499H19.421ZM20.224 1.57399V9.73599C20.224 10.264 20.081 10.506 19.729 10.649C19.355 10.781 18.717 10.792 17.683 10.781C17.65 10.561 17.518 10.209 17.408 9.98899C18.178 10.022 18.926 10.011 19.124 10.011C19.344 9.99999 19.421 9.93399 19.421 9.72499V7.49199H16.462V10.737H15.648V7.49199H12.898C12.733 8.71299 12.359 9.96699 11.523 10.902C11.402 10.737 11.072 10.462 10.896 10.363C12.106 8.99899 12.216 7.06299 12.216 5.53399V1.57399H20.224Z" fill="#262626"/>
<path d="M16.462 6.71099H19.421V4.88499H16.462V6.71099ZM12.975 6.71099H15.648V4.88499H13.019V5.53399C13.019 5.89699 13.008 6.30399 12.975 6.71099ZM15.648 2.35499H13.019V4.11499H15.648V2.35499ZM19.421 4.11499V2.35499H16.462V4.11499H19.421ZM20.224 1.57399V9.73599C20.224 10.264 20.081 10.506 19.729 10.649C19.355 10.781 18.717 10.792 17.683 10.781C17.65 10.561 17.518 10.209 17.408 9.98899C18.178 10.022 18.926 10.011 19.124 10.011C19.344 9.99999 19.421 9.93399 19.421 9.72499V7.49199H16.462V10.737H15.648V7.49199H12.898C12.733 8.71299 12.359 9.96699 11.523 10.902C11.402 10.737 11.072 10.462 10.896 10.363C12.106 8.99899 12.216 7.06299 12.216 5.53399V1.57399H20.224Z" fill="black"/>
<path d="M24.569 0.770993L25.339 1.01299C25.031 1.78299 24.635 2.56399 24.206 3.30099V10.891H23.425V4.47799C23.04 5.01699 22.622 5.50099 22.215 5.90799C22.138 5.72099 21.907 5.29199 21.753 5.11599C22.864 4.07099 23.931 2.43199 24.569 0.770993ZM26.12 6.16099H28.067C28.078 5.99599 28.078 5.83099 28.078 5.66599V4.53299H26.12V6.16099ZM30.905 4.53299H28.881V5.66599C28.881 5.83099 28.881 5.99599 28.87 6.16099H30.905V4.53299ZM31.686 6.85399H28.826C28.738 7.61299 28.54 8.32799 28.1 8.96599C29.2 9.57099 30.586 9.94499 32.148 10.132C31.972 10.308 31.774 10.627 31.664 10.869C30.113 10.638 28.738 10.209 27.616 9.53799C27.066 10.077 26.274 10.539 25.13 10.88C25.042 10.704 24.811 10.363 24.635 10.198C25.713 9.92299 26.439 9.54899 26.956 9.08699C26.307 8.60299 25.768 8.00899 25.361 7.30499L26.043 7.08499C26.373 7.65699 26.846 8.14099 27.429 8.54799C27.781 8.04199 27.946 7.45899 28.023 6.85399H25.361V3.83999H28.078V2.76199H25.042V2.01399H28.078V0.847993H28.881V2.01399H32.049V2.76199H28.881V3.83999H31.686V6.85399Z" fill="#262626"/>
<path d="M24.569 0.770993L25.339 1.01299C25.031 1.78299 24.635 2.56399 24.206 3.30099V10.891H23.425V4.47799C23.04 5.01699 22.622 5.50099 22.215 5.90799C22.138 5.72099 21.907 5.29199 21.753 5.11599C22.864 4.07099 23.931 2.43199 24.569 0.770993ZM26.12 6.16099H28.067C28.078 5.99599 28.078 5.83099 28.078 5.66599V4.53299H26.12V6.16099ZM30.905 4.53299H28.881V5.66599C28.881 5.83099 28.881 5.99599 28.87 6.16099H30.905V4.53299ZM31.686 6.85399H28.826C28.738 7.61299 28.54 8.32799 28.1 8.96599C29.2 9.57099 30.586 9.94499 32.148 10.132C31.972 10.308 31.774 10.627 31.664 10.869C30.113 10.638 28.738 10.209 27.616 9.53799C27.066 10.077 26.274 10.539 25.13 10.88C25.042 10.704 24.811 10.363 24.635 10.198C25.713 9.92299 26.439 9.54899 26.956 9.08699C26.307 8.60299 25.768 8.00899 25.361 7.30499L26.043 7.08499C26.373 7.65699 26.846 8.14099 27.429 8.54799C27.781 8.04199 27.946 7.45899 28.023 6.85399H25.361V3.83999H28.078V2.76199H25.042V2.01399H28.078V0.847993H28.881V2.01399H32.049V2.76199H28.881V3.83999H31.686V6.85399Z" fill="black"/>
<path d="M38.462 6.71099H41.421V4.88499H38.462V6.71099ZM34.975 6.71099H37.648V4.88499H35.019V5.53399C35.019 5.89699 35.008 6.30399 34.975 6.71099ZM37.648 2.35499H35.019V4.11499H37.648V2.35499ZM41.421 4.11499V2.35499H38.462V4.11499H41.421ZM42.224 1.57399V9.73599C42.224 10.264 42.081 10.506 41.729 10.649C41.355 10.781 40.717 10.792 39.683 10.781C39.65 10.561 39.518 10.209 39.408 9.98899C40.178 10.022 40.926 10.011 41.124 10.011C41.344 9.99999 41.421 9.93399 41.421 9.72499V7.49199H38.462V10.737H37.648V7.49199H34.898C34.733 8.71299 34.359 9.96699 33.523 10.902C33.402 10.737 33.072 10.462 32.896 10.363C34.106 8.99899 34.216 7.06299 34.216 5.53399V1.57399H42.224Z" fill="#262626"/>
<path d="M38.462 6.71099H41.421V4.88499H38.462V6.71099ZM34.975 6.71099H37.648V4.88499H35.019V5.53399C35.019 5.89699 35.008 6.30399 34.975 6.71099ZM37.648 2.35499H35.019V4.11499H37.648V2.35499ZM41.421 4.11499V2.35499H38.462V4.11499H41.421ZM42.224 1.57399V9.73599C42.224 10.264 42.081 10.506 41.729 10.649C41.355 10.781 40.717 10.792 39.683 10.781C39.65 10.561 39.518 10.209 39.408 9.98899C40.178 10.022 40.926 10.011 41.124 10.011C41.344 9.99999 41.421 9.93399 41.421 9.72499V7.49199H38.462V10.737H37.648V7.49199H34.898C34.733 8.71299 34.359 9.96699 33.523 10.902C33.402 10.737 33.072 10.462 32.896 10.363C34.106 8.99899 34.216 7.06299 34.216 5.53399V1.57399H42.224Z" fill="black"/>
<path d="M47.724 6.05099L47.273 6.65599C47.119 6.32599 46.723 5.68799 46.393 5.18199V10.825H45.645V5.68799C45.282 6.88699 44.809 8.04199 44.303 8.75699C44.215 8.54799 44.017 8.23999 43.885 8.05299C44.567 7.13999 45.238 5.42399 45.557 3.92799H44.105V3.16899H45.645V0.792993H46.393V3.16899H47.647V3.92799H46.393V4.29099C46.723 4.68699 47.537 5.77599 47.724 6.05099ZM49.561 8.92199V9.81299H51.068V8.92199H49.561ZM51.068 6.93099V6.10599H49.561V6.93099H51.068ZM51.068 8.34999V7.50299H49.561V8.34999H51.068ZM54.027 9.81299V10.451H49.561V10.825H48.802V6.72199C48.505 7.07399 48.186 7.39299 47.856 7.67899C47.735 7.53599 47.449 7.22799 47.273 7.08499C48.131 6.42499 48.857 5.52299 49.418 4.46699H47.779V3.75199H49.77C49.935 3.38899 50.078 3.00399 50.21 2.60799H49.209C48.989 3.01499 48.736 3.38899 48.483 3.68599C48.34 3.56499 48.01 3.35599 47.812 3.26799C48.406 2.64099 48.879 1.69499 49.165 0.748993L49.913 0.924993C49.814 1.25499 49.693 1.57399 49.561 1.89299H53.675V2.60799H51.024C50.892 3.00399 50.749 3.37799 50.595 3.75199H54.016V4.46699H50.265C50.089 4.81899 49.902 5.15999 49.704 5.48999H51.134C51.31 5.15999 51.475 4.76399 51.585 4.48899L52.41 4.66499C52.256 4.93999 52.102 5.23699 51.948 5.48999H53.84V6.10599H51.805V6.93099H53.631V7.50299H51.805V8.34999H53.631V8.92199H51.805V9.81299H54.027Z" fill="#262626"/>
<path d="M47.724 6.05099L47.273 6.65599C47.119 6.32599 46.723 5.68799 46.393 5.18199V10.825H45.645V5.68799C45.282 6.88699 44.809 8.04199 44.303 8.75699C44.215 8.54799 44.017 8.23999 43.885 8.05299C44.567 7.13999 45.238 5.42399 45.557 3.92799H44.105V3.16899H45.645V0.792993H46.393V3.16899H47.647V3.92799H46.393V4.29099C46.723 4.68699 47.537 5.77599 47.724 6.05099ZM49.561 8.92199V9.81299H51.068V8.92199H49.561ZM51.068 6.93099V6.10599H49.561V6.93099H51.068ZM51.068 8.34999V7.50299H49.561V8.34999H51.068ZM54.027 9.81299V10.451H49.561V10.825H48.802V6.72199C48.505 7.07399 48.186 7.39299 47.856 7.67899C47.735 7.53599 47.449 7.22799 47.273 7.08499C48.131 6.42499 48.857 5.52299 49.418 4.46699H47.779V3.75199H49.77C49.935 3.38899 50.078 3.00399 50.21 2.60799H49.209C48.989 3.01499 48.736 3.38899 48.483 3.68599C48.34 3.56499 48.01 3.35599 47.812 3.26799C48.406 2.64099 48.879 1.69499 49.165 0.748993L49.913 0.924993C49.814 1.25499 49.693 1.57399 49.561 1.89299H53.675V2.60799H51.024C50.892 3.00399 50.749 3.37799 50.595 3.75199H54.016V4.46699H50.265C50.089 4.81899 49.902 5.15999 49.704 5.48999H51.134C51.31 5.15999 51.475 4.76399 51.585 4.48899L52.41 4.66499C52.256 4.93999 52.102 5.23699 51.948 5.48999H53.84V6.10599H51.805V6.93099H53.631V7.50299H51.805V8.34999H53.631V8.92199H51.805V9.81299H54.027Z" fill="black"/>
<path d="M57.756 0.869993L58.559 1.12299C58.229 1.94799 57.844 2.76199 57.393 3.52099V10.814H56.579V4.78599C56.227 5.28099 55.842 5.73199 55.468 6.11699C55.369 5.92999 55.116 5.50099 54.962 5.31399C56.084 4.24699 57.129 2.57499 57.756 0.869993ZM64.961 3.23499V4.04899H63.564V9.72499C63.564 10.341 63.388 10.594 62.981 10.715C62.552 10.847 61.815 10.858 60.627 10.847C60.583 10.638 60.429 10.264 60.308 10.044C61.232 10.077 62.134 10.077 62.398 10.066C62.64 10.044 62.739 9.97799 62.739 9.72499V4.04899H58.306V3.23499H62.739V0.924993H63.564V3.23499H64.961ZM61.353 7.86599L60.594 8.27299C60.264 7.59099 59.56 6.41399 58.999 5.53399L59.703 5.20399C60.275 6.05099 61.001 7.19499 61.353 7.86599Z" fill="#262626"/>
<path d="M57.756 0.869993L58.559 1.12299C58.229 1.94799 57.844 2.76199 57.393 3.52099V10.814H56.579V4.78599C56.227 5.28099 55.842 5.73199 55.468 6.11699C55.369 5.92999 55.116 5.50099 54.962 5.31399C56.084 4.24699 57.129 2.57499 57.756 0.869993ZM64.961 3.23499V4.04899H63.564V9.72499C63.564 10.341 63.388 10.594 62.981 10.715C62.552 10.847 61.815 10.858 60.627 10.847C60.583 10.638 60.429 10.264 60.308 10.044C61.232 10.077 62.134 10.077 62.398 10.066C62.64 10.044 62.739 9.97799 62.739 9.72499V4.04899H58.306V3.23499H62.739V0.924993H63.564V3.23499H64.961ZM61.353 7.86599L60.594 8.27299C60.264 7.59099 59.56 6.41399 58.999 5.53399L59.703 5.20399C60.275 6.05099 61.001 7.19499 61.353 7.86599Z" fill="black"/>
<path d="M71.022 2.32199C70.934 1.99199 70.824 1.65099 70.714 1.34299L71.649 1.22199C71.693 1.63999 71.792 2.09099 71.913 2.53099C72.694 2.43199 73.464 2.26699 74.168 2.03599L74.289 2.82799C73.662 3.00399 72.881 3.16899 72.122 3.26799C72.199 3.54299 72.287 3.79599 72.364 4.02699C72.441 4.23599 72.529 4.46699 72.617 4.68699C73.53 4.57699 74.3 4.37899 74.817 4.21399L74.949 5.03899C74.421 5.18199 73.728 5.32499 72.958 5.43499C73.189 5.90799 73.442 6.38099 73.728 6.79899C73.849 6.97499 73.981 7.11799 74.135 7.27199L73.684 7.94299C73.068 7.77799 72.034 7.67899 71.275 7.59099L71.352 6.91999C71.935 6.98599 72.65 7.06299 73.002 7.10699C72.672 6.60099 72.386 6.06199 72.144 5.52299C70.802 5.64399 68.998 5.66599 67.304 5.54499L67.26 4.71999C68.91 4.89599 70.582 4.88499 71.825 4.77499C71.748 4.57699 71.671 4.38999 71.605 4.20299C71.495 3.89499 71.396 3.60899 71.308 3.34499C70.241 3.41099 68.899 3.38899 67.524 3.26799L67.469 2.46499C68.789 2.61899 70.043 2.65199 71.099 2.59699C71.066 2.50899 71.044 2.40999 71.022 2.32199ZM68.855 7.08499C68.591 7.46999 68.393 7.84399 68.393 8.32799C68.393 9.24099 69.207 9.69199 70.934 9.69199C71.957 9.69199 72.76 9.62599 73.552 9.46099L73.519 10.341C72.749 10.462 71.88 10.528 70.945 10.528C68.789 10.528 67.579 9.88999 67.568 8.48199C67.557 7.85499 67.755 7.39299 67.997 6.90899L68.855 7.08499Z" fill="#262626"/>
<path d="M71.022 2.32199C70.934 1.99199 70.824 1.65099 70.714 1.34299L71.649 1.22199C71.693 1.63999 71.792 2.09099 71.913 2.53099C72.694 2.43199 73.464 2.26699 74.168 2.03599L74.289 2.82799C73.662 3.00399 72.881 3.16899 72.122 3.26799C72.199 3.54299 72.287 3.79599 72.364 4.02699C72.441 4.23599 72.529 4.46699 72.617 4.68699C73.53 4.57699 74.3 4.37899 74.817 4.21399L74.949 5.03899C74.421 5.18199 73.728 5.32499 72.958 5.43499C73.189 5.90799 73.442 6.38099 73.728 6.79899C73.849 6.97499 73.981 7.11799 74.135 7.27199L73.684 7.94299C73.068 7.77799 72.034 7.67899 71.275 7.59099L71.352 6.91999C71.935 6.98599 72.65 7.06299 73.002 7.10699C72.672 6.60099 72.386 6.06199 72.144 5.52299C70.802 5.64399 68.998 5.66599 67.304 5.54499L67.26 4.71999C68.91 4.89599 70.582 4.88499 71.825 4.77499C71.748 4.57699 71.671 4.38999 71.605 4.20299C71.495 3.89499 71.396 3.60899 71.308 3.34499C70.241 3.41099 68.899 3.38899 67.524 3.26799L67.469 2.46499C68.789 2.61899 70.043 2.65199 71.099 2.59699C71.066 2.50899 71.044 2.40999 71.022 2.32199ZM68.855 7.08499C68.591 7.46999 68.393 7.84399 68.393 8.32799C68.393 9.24099 69.207 9.69199 70.934 9.69199C71.957 9.69199 72.76 9.62599 73.552 9.46099L73.519 10.341C72.749 10.462 71.88 10.528 70.945 10.528C68.789 10.528 67.579 9.88999 67.568 8.48199C67.557 7.85499 67.755 7.39299 67.997 6.90899L68.855 7.08499Z" fill="black"/>
<path d="M22.325 25.297L21.863 25.033C22.259 24.483 22.391 23.526 22.424 22.591L22.93 22.69C22.875 23.669 22.754 24.703 22.325 25.297ZM23.194 22.712L23.623 22.657C23.744 23.295 23.821 24.12 23.81 24.659L23.348 24.725C23.381 24.175 23.304 23.361 23.194 22.712ZM23.194 20.204V21.205H24.261V20.204H23.194ZM24.261 16.937H23.194V17.905H24.261V16.937ZM24.261 19.544V18.554H23.194V19.544H24.261ZM24.954 21.205H26.637C26.637 21.205 26.637 21.425 26.626 21.535C26.483 24.241 26.362 25.209 26.087 25.539C25.922 25.737 25.746 25.803 25.482 25.825C25.262 25.847 24.877 25.847 24.481 25.825C24.459 25.627 24.393 25.341 24.294 25.165C24.679 25.187 25.031 25.198 25.174 25.198C25.317 25.198 25.405 25.176 25.493 25.088C25.603 24.945 25.702 24.549 25.779 23.702L25.427 23.856C25.317 23.46 25.053 22.866 24.789 22.426L25.174 22.283C25.416 22.668 25.658 23.185 25.79 23.559C25.834 23.119 25.867 22.569 25.911 21.876H22.49V16.244H26.538V16.937H24.954V17.905H26.318V18.554H24.954V19.544H26.318V20.204H24.954V21.205ZM24.877 24.263L24.448 24.362C24.404 23.889 24.217 23.152 24.019 22.591L24.415 22.503C24.646 23.053 24.833 23.79 24.877 24.263ZM29.75 24.692H32.104V25.451H26.549V24.692H28.958V21.788H27.121V21.029H28.958V18.565H26.868V17.795H29.948C29.431 17.311 28.518 16.706 27.748 16.321L28.243 15.749C29.057 16.145 30.091 16.783 30.597 17.278L30.168 17.795H31.884V18.565H29.75V21.029H31.675V21.788H29.75V24.692Z" fill="#262626"/>
<path d="M22.325 25.297L21.863 25.033C22.259 24.483 22.391 23.526 22.424 22.591L22.93 22.69C22.875 23.669 22.754 24.703 22.325 25.297ZM23.194 22.712L23.623 22.657C23.744 23.295 23.821 24.12 23.81 24.659L23.348 24.725C23.381 24.175 23.304 23.361 23.194 22.712ZM23.194 20.204V21.205H24.261V20.204H23.194ZM24.261 16.937H23.194V17.905H24.261V16.937ZM24.261 19.544V18.554H23.194V19.544H24.261ZM24.954 21.205H26.637C26.637 21.205 26.637 21.425 26.626 21.535C26.483 24.241 26.362 25.209 26.087 25.539C25.922 25.737 25.746 25.803 25.482 25.825C25.262 25.847 24.877 25.847 24.481 25.825C24.459 25.627 24.393 25.341 24.294 25.165C24.679 25.187 25.031 25.198 25.174 25.198C25.317 25.198 25.405 25.176 25.493 25.088C25.603 24.945 25.702 24.549 25.779 23.702L25.427 23.856C25.317 23.46 25.053 22.866 24.789 22.426L25.174 22.283C25.416 22.668 25.658 23.185 25.79 23.559C25.834 23.119 25.867 22.569 25.911 21.876H22.49V16.244H26.538V16.937H24.954V17.905H26.318V18.554H24.954V19.544H26.318V20.204H24.954V21.205ZM24.877 24.263L24.448 24.362C24.404 23.889 24.217 23.152 24.019 22.591L24.415 22.503C24.646 23.053 24.833 23.79 24.877 24.263ZM29.75 24.692H32.104V25.451H26.549V24.692H28.958V21.788H27.121V21.029H28.958V18.565H26.868V17.795H29.948C29.431 17.311 28.518 16.706 27.748 16.321L28.243 15.749C29.057 16.145 30.091 16.783 30.597 17.278L30.168 17.795H31.884V18.565H29.75V21.029H31.675V21.788H29.75V24.692Z" fill="black"/>
<path d="M35.041 21.931H37.56V20.798H35.041V21.931ZM35.041 19.027V20.149H37.56V19.027H35.041ZM40.959 19.027H38.385V20.149H40.959V19.027ZM40.959 21.931V20.798H38.385V21.931H40.959ZM42.928 23.504V24.241H38.385V25.869H37.56V24.241H33.116V23.504H37.56V22.602H34.26V18.345H37.56V17.542H33.446V16.794H37.56V15.804H38.385V16.794H42.554V17.542H38.385V18.345H41.773V22.602H38.385V23.504H42.928Z" fill="#262626"/>
<path d="M35.041 21.931H37.56V20.798H35.041V21.931ZM35.041 19.027V20.149H37.56V19.027H35.041ZM40.959 19.027H38.385V20.149H40.959V19.027ZM40.959 21.931V20.798H38.385V21.931H40.959ZM42.928 23.504V24.241H38.385V25.869H37.56V24.241H33.116V23.504H37.56V22.602H34.26V18.345H37.56V17.542H33.446V16.794H37.56V15.804H38.385V16.794H42.554V17.542H38.385V18.345H41.773V22.602H38.385V23.504H42.928Z" fill="black"/>
<path d="M52.487 17.608V16.739H48.967V17.608H52.487ZM52.487 19.06V18.18H48.967V19.06H52.487ZM53.246 16.123V19.676H48.219V16.123H53.246ZM47.284 21.524L47.46 22.25C46.349 22.811 45.15 23.394 44.226 23.834L43.907 23.031C44.325 22.855 44.842 22.635 45.403 22.382V18.939H44.116V18.169H45.403V15.881H46.162V18.169H47.35V18.939H46.162V22.03L47.284 21.524ZM54.027 20.985H49.506C49.363 21.249 49.209 21.513 49.033 21.755H53.763C53.763 21.755 53.752 21.975 53.73 22.085C53.565 24.351 53.389 25.209 53.081 25.528C52.916 25.715 52.718 25.77 52.465 25.803C52.223 25.814 51.816 25.814 51.376 25.792C51.376 25.594 51.299 25.297 51.189 25.132C51.596 25.165 51.959 25.176 52.124 25.176C52.278 25.176 52.377 25.165 52.454 25.055C52.641 24.857 52.806 24.164 52.949 22.437H52.091C51.651 23.746 50.793 25.165 49.847 25.88C49.715 25.715 49.462 25.528 49.264 25.407C50.155 24.813 50.958 23.625 51.409 22.437H50.342C49.759 23.57 48.681 24.769 47.669 25.407C47.548 25.231 47.328 25.033 47.13 24.901C48.043 24.406 49.011 23.416 49.605 22.437H48.494C48.054 22.932 47.559 23.361 47.064 23.691C46.954 23.559 46.668 23.295 46.503 23.185C47.372 22.668 48.164 21.887 48.681 20.985H47.141V20.292H54.027V20.985Z" fill="#262626"/>
<path d="M52.487 17.608V16.739H48.967V17.608H52.487ZM52.487 19.06V18.18H48.967V19.06H52.487ZM53.246 16.123V19.676H48.219V16.123H53.246ZM47.284 21.524L47.46 22.25C46.349 22.811 45.15 23.394 44.226 23.834L43.907 23.031C44.325 22.855 44.842 22.635 45.403 22.382V18.939H44.116V18.169H45.403V15.881H46.162V18.169H47.35V18.939H46.162V22.03L47.284 21.524ZM54.027 20.985H49.506C49.363 21.249 49.209 21.513 49.033 21.755H53.763C53.763 21.755 53.752 21.975 53.73 22.085C53.565 24.351 53.389 25.209 53.081 25.528C52.916 25.715 52.718 25.77 52.465 25.803C52.223 25.814 51.816 25.814 51.376 25.792C51.376 25.594 51.299 25.297 51.189 25.132C51.596 25.165 51.959 25.176 52.124 25.176C52.278 25.176 52.377 25.165 52.454 25.055C52.641 24.857 52.806 24.164 52.949 22.437H52.091C51.651 23.746 50.793 25.165 49.847 25.88C49.715 25.715 49.462 25.528 49.264 25.407C50.155 24.813 50.958 23.625 51.409 22.437H50.342C49.759 23.57 48.681 24.769 47.669 25.407C47.548 25.231 47.328 25.033 47.13 24.901C48.043 24.406 49.011 23.416 49.605 22.437H48.494C48.054 22.932 47.559 23.361 47.064 23.691C46.954 23.559 46.668 23.295 46.503 23.185C47.372 22.668 48.164 21.887 48.681 20.985H47.141V20.292H54.027V20.985Z" fill="black"/>
</svg>
