<svg width="36" height="29" viewBox="0 0 36 29" fill="none" xmlns="http://www.w3.org/2000/svg">
<g id="_&#233;&#165;&#145;2" clip-path="url(#clip0_3178_16141)">
<path id="Vector" d="M31.4434 28.1605C31.4434 26.9754 30.4833 26.0153 29.2982 26.0153C28.6134 26.0153 28.0055 26.3367 27.6128 26.8356C27.1977 26.1131 26.4207 25.6254 25.5276 25.6254C24.7716 25.6254 24.098 25.9748 23.6577 26.5198C23.2846 26.2053 22.8038 26.0153 22.277 26.0153C21.7864 26.0153 21.335 26.1816 20.9731 26.4597C20.7369 25.5317 19.8983 24.8455 18.8963 24.8455C18.3652 24.8455 17.8789 25.0398 17.5044 25.3598C17.0544 24.8833 16.4185 24.5856 15.7113 24.5856C15.3382 24.5856 14.986 24.6708 14.6702 24.8176C14.6548 23.6814 13.731 22.7646 12.5906 22.7646C12.1448 22.7646 11.7325 22.9058 11.3943 23.1447C11.0338 22.5284 10.3657 22.1147 9.59987 22.1147C8.59644 22.1147 7.75792 22.8261 7.56226 23.7708C7.34145 23.7093 7.10946 23.6744 6.86908 23.6744C5.43241 23.6744 4.26826 24.8386 4.26826 26.2752C4.26826 26.292 4.27105 26.3088 4.27105 26.3255C3.94682 26.1299 3.56949 26.0153 3.1628 26.0153C1.97769 26.0153 1.01758 26.9754 1.01758 28.1605" stroke="#8C7D5E" stroke-width="1.4" stroke-linecap="round" stroke-linejoin="round"/>
<path id="Vector_2" d="M34.6801 1.18839L32.8755 0.339575C32.3747 0.104032 31.7778 0.319049 31.5423 0.81983L26.9032 10.6827C26.6677 11.1835 26.8827 11.7804 27.3835 12.016L29.1881 12.8648C29.6889 13.1003 30.2858 12.8853 30.5214 12.3845L35.1604 2.52162C35.3959 2.02084 35.1809 1.42393 34.6801 1.18839Z" stroke="#8C7D5E" stroke-width="1.4" stroke-linecap="round" stroke-linejoin="round"/>
<path id="Vector_3" d="M29.2964 12.8503L25.7899 20.3048C25.5342 20.8498 24.8829 21.0832 24.3393 20.8275C23.7942 20.5717 23.5609 19.9205 23.8166 19.3768L27.323 11.9224" stroke="#8C7D5E" stroke-width="1.4" stroke-linecap="round" stroke-linejoin="round"/>
<path id="Vector_4" d="M18.202 24.7995C18.1698 24.1147 18.3012 23.4159 18.6115 22.7549L22.4813 14.5317L25.4412 15.9251" stroke="#8C7D5E" stroke-width="1.4" stroke-linecap="round" stroke-linejoin="round"/>
<path id="Vector_5" d="M27.4161 16.853L30.3761 18.245L26.748 25.958" stroke="#8C7D5E" stroke-width="1.4" stroke-linecap="round" stroke-linejoin="round"/>
<path id="Vector_6" d="M8.80788 22.2725C8.75198 17.9974 7.58224 13.8006 5.39928 10.0985L4.91992 9.28516C6.97151 11.3689 8.61921 13.781 9.80712 16.4042C9.92032 16.6558 10.0293 16.9073 10.1341 17.1603C10.8986 19.0092 11.438 20.9546 11.7343 22.9517" stroke="#8C7D5E" stroke-width="1.4" stroke-linecap="round" stroke-linejoin="round"/>
<path id="Vector_7" d="M11.186 20.1637C11.9463 17.8829 13.4389 15.918 15.4317 14.5721L16.6225 13.7686L15.9265 13.8021C13.5562 13.9153 11.3901 15.1745 10.1211 17.18" stroke="#8C7D5E" stroke-width="1.4" stroke-linecap="round" stroke-linejoin="round"/>
<path id="Vector_8" d="M8.92031 14.6393C10.2396 13.4654 10.2242 11.6724 10.2186 11.4418C10.1725 9.58724 8.89934 8.4147 8.62123 8.15895C6.44946 6.15907 3.19458 6.81592 2.31693 6.9934C1.63493 7.13176 1.09268 7.32462 0.746094 7.46437C2.08494 8.40073 2.69846 9.38599 2.99334 10.2091C3.53698 11.7297 2.93744 12.5347 3.6977 13.7882C3.78854 13.9406 4.70253 15.3954 6.37399 15.5366C6.89248 15.5813 7.35087 15.4891 7.72122 15.3549" stroke="#8C7D5E" stroke-width="1.4" stroke-linecap="round" stroke-linejoin="round"/>
<path id="Vector_9" d="M13.2909 16.4671C13.4963 16.6027 13.657 16.6796 13.7073 16.7005C14.9204 17.2512 16.0776 16.797 16.3305 16.6977C18.3038 15.9221 18.9006 13.6134 19.0627 12.9901C19.1871 12.5051 19.2332 12.0942 19.2514 11.8259C18.227 12.3975 17.3968 12.4855 16.7735 12.4171C15.622 12.2913 15.2879 11.6512 14.2398 11.7476C14.1126 11.7588 12.8856 11.893 12.2693 12.9286C11.8318 13.6637 11.9604 14.4197 11.9981 14.6294C12.0275 14.7915 12.0722 14.9438 12.1281 15.0864" stroke="#8C7D5E" stroke-width="1.4" stroke-linecap="round" stroke-linejoin="round"/>
</g>
<defs>
<clipPath id="clip0_3178_16141">
<rect width="35" height="28.405" fill="white" transform="translate(0.5)"/>
</clipPath>
</defs>
</svg>
