<svg width="30" height="30" viewBox="0 0 30 30" fill="none" xmlns="http://www.w3.org/2000/svg">
<g id="noun-concierge-1516452 1" clip-path="url(#clip0_3130_20738)">
<g id="Group">
<path id="Vector" d="M19.5434 23.5225H16.9326C16.7314 23.5225 16.5684 23.6855 16.5684 23.8869V24.3727C16.5684 24.5739 16.7314 24.7371 16.9326 24.7371H19.5432C19.7444 24.7371 19.9076 24.5739 19.9076 24.3727V23.8869C19.9076 23.6855 19.7446 23.5225 19.5434 23.5225Z" fill="#8C7D5E"/>
<path id="Vector_2" d="M3.4629 20.1026C3.4629 19.2342 3.9395 18.4566 4.6585 18.0554V18.3082C4.6585 18.5844 4.8823 18.8082 5.1585 18.8082C5.4347 18.8082 5.6585 18.5844 5.6585 18.3082V17.7146L5.9335 17.6362V18.3082C5.9335 18.5844 6.1573 18.8082 6.4335 18.8082C6.7097 18.8082 6.9335 18.5844 6.9335 18.3082V17.3512L7.2085 17.2728V18.3082C7.2085 18.5844 7.4323 18.8082 7.7085 18.8082C7.9847 18.8082 8.2085 18.5844 8.2085 18.3082V16.9878L8.7959 16.8204C8.7253 20.6226 9.4789 24.413 10.9951 27.9H13.8543C15.3697 24.4132 16.1229 20.6228 16.0515 16.8204L16.5845 16.9722V18.3082C16.5845 18.5844 16.8083 18.8082 17.0845 18.8082C17.3607 18.8082 17.5845 18.5844 17.5845 18.3082V17.257L17.8595 17.3354V18.3084C17.8595 18.5846 18.0833 18.8084 18.3595 18.8084C18.6357 18.8084 18.8595 18.5846 18.8595 18.3084V17.62L19.1345 17.6984V18.3082C19.1345 18.5844 19.3583 18.8082 19.6345 18.8082C19.9107 18.8082 20.1345 18.5844 20.1345 18.3082V18.0236C20.8855 18.4148 21.3869 19.2116 21.3869 20.1026V24.4988C21.7825 24.107 22.2569 23.7932 22.7869 23.5876V20.1026C22.7869 18.3444 21.5575 16.8124 19.8595 16.4492L15.6647 15.2544V13.7568C16.2869 13.2326 16.7419 12.5236 16.9523 11.7274C17.0313 11.4286 17.0901 11.2036 17.1343 11.0336C17.6943 10.941 18.1373 10.5088 18.2241 9.9414L18.4749 8.3696C18.5403 7.9456 18.4173 7.5152 18.1373 7.189C18.0635 7.103 17.9809 7.0264 17.8913 6.9604C18.0117 6.5326 18.0741 6.0918 18.0777 5.6448C18.0777 5.6386 18.0777 5.6322 18.0775 5.626C18.0483 4.09 17.3815 2.6648 16.2347 1.6636C16.2327 1.4478 16.1317 1.245 15.9605 1.1138C15.0227 0.3956 13.8561 0 12.6751 0H12.1725C11.1929 0 10.2905 0.454 9.4967 0.9958C9.2881 0.9388 9.0613 0.9808 8.8855 1.1156C7.6547 2.0596 6.8053 3.8716 6.7717 5.6446C6.7757 6.0906 6.8393 6.5314 6.9611 6.9584C6.8703 7.025 6.7867 7.102 6.7121 7.1888C6.4325 7.515 6.3091 7.9452 6.3747 8.3724L6.6227 9.9434C6.7151 10.5118 7.1587 10.9422 7.7149 11.0338C7.7593 11.2042 7.8183 11.429 7.8971 11.7274C8.1071 12.5238 8.5621 13.2326 9.1847 13.757V15.2542L4.9903 16.4492C3.2921 16.8118 2.0625 18.3438 2.0625 20.1028V27.9H3.4625V20.1026H3.4629ZM11.1275 24.1142C10.6737 22.4972 10.3839 20.8362 10.2601 19.1602L10.8223 18.7924L11.3811 19.7328C11.2033 21.1868 11.1189 22.6506 11.1275 24.1142ZM10.2011 18.004C10.1853 17.434 10.1897 16.863 10.2131 16.292C10.2183 16.2872 10.2225 16.2814 10.2277 16.2764L11.5191 17.1416L10.2011 18.004ZM10.5849 15.3122V14.6026C11.1627 14.904 11.7935 15.0556 12.4247 15.0556C13.0559 15.0556 13.6869 14.9038 14.2645 14.6024V15.3122L12.4247 16.545L10.5849 15.3122ZM12.5361 27.4218C12.4985 27.5072 12.4631 27.5936 12.4245 27.6786C12.3857 27.5928 12.3497 27.5056 12.3119 27.4194C12.0563 24.9938 12.0671 22.5446 12.3435 20.121H12.5047C12.7811 22.5456 12.7919 24.9954 12.5361 27.4218ZM12.6677 19.121H12.1807L11.6599 18.2444L12.4247 17.7442L13.1887 18.2444L12.6677 19.121ZM13.7211 24.1144C13.7297 22.6508 13.6455 21.187 13.4677 19.7328L14.0263 18.7928L14.5877 19.1604C14.4639 20.8362 14.1745 22.4972 13.7211 24.1144ZM14.6463 18.0034L13.3303 17.1418L14.6213 16.277C14.6257 16.2814 14.6295 16.2864 14.6341 16.2906C14.6575 16.8618 14.6621 17.433 14.6463 18.0034ZM9.2539 2.694C9.4245 2.7086 9.5971 2.6596 9.7377 2.5518C10.4369 2.0154 11.3457 1.4 12.1727 1.4H12.6753C13.4393 1.4 14.1955 1.6236 14.8375 2.0348C14.8489 2.2384 14.9483 2.4274 15.1107 2.552C16.0809 3.2954 16.6517 4.4216 16.6777 5.643C16.6755 5.8606 16.6535 6.0762 16.6127 6.2882L16.1153 5.5068C15.9951 5.3182 15.7641 5.2322 15.5509 5.296C14.4975 5.6098 13.3751 5.4322 12.4699 4.8104L11.5253 4.1616C11.3285 4.0262 11.0629 4.0492 10.8921 4.2166L10.6281 4.4758C10.2479 4.8484 9.6929 4.9906 9.1815 4.8478C8.9437 4.782 8.6951 4.8974 8.5927 5.1206L8.1941 5.9878C8.1817 5.875 8.1733 5.7624 8.1721 5.651C8.1923 4.5764 8.6175 3.4494 9.2539 2.694ZM8.9543 10.2272C8.8939 9.8942 8.6041 9.652 8.2657 9.652H7.9947L7.7583 8.1568C7.7571 8.149 7.7537 8.1254 7.7749 8.1004C7.7917 8.0808 7.8145 8.071 7.8427 8.071C7.8983 8.071 7.9529 8.0638 8.0059 8.0512C8.0121 8.0514 8.0185 8.0532 8.0247 8.0532C8.2141 8.0532 8.3953 7.945 8.4793 7.7618L9.3391 5.891C10.0525 5.9618 10.7707 5.7192 11.2981 5.219L11.9035 5.635C12.9533 6.3562 14.2319 6.6084 15.4657 6.3488L16.4033 7.8216C16.5017 7.976 16.6709 8.056 16.8415 8.0508C16.8951 8.0638 16.9507 8.0712 17.0071 8.0712C17.0355 8.0712 17.0583 8.0812 17.0751 8.1006C17.0961 8.1254 17.0927 8.149 17.0921 8.153L16.8529 9.6522H16.5843C16.2467 9.6522 15.9589 9.8838 15.8977 10.216C15.8903 10.2506 15.8463 10.4322 15.5989 11.3702C15.4167 12.06 14.9515 12.649 14.3221 12.9856L13.6421 13.3494C12.8799 13.7572 11.9701 13.7572 11.2079 13.3494L10.5281 12.9856C9.8987 12.6486 9.4333 12.06 9.2513 11.3702C8.9975 10.4098 8.9585 10.2446 8.9543 10.2272Z" fill="#8C7D5E"/>
<path id="Vector_3" d="M29.207 28.6H27.8869C27.7277 28.3146 27.6398 27.9964 27.6398 27.6682V27.396C27.6398 25.6988 26.3835 24.293 24.7527 24.05V23.9122C24.7527 23.636 24.5289 23.4122 24.2527 23.4122C23.9765 23.4122 23.7527 23.636 23.7527 23.9122V24.05C22.1219 24.293 20.8655 25.6988 20.8655 27.396V27.6682C20.8655 27.9964 20.7775 28.3148 20.6183 28.6H0.79375C0.40715 28.6 0.09375 28.9134 0.09375 29.3C0.09375 29.6866 0.40715 30 0.79375 30H29.2067C29.5933 30 29.9067 29.6866 29.9067 29.3C29.9067 28.9134 29.5934 28.6 29.207 28.6ZM24.2527 25.0088C25.4919 25.0088 26.514 25.9584 26.629 27.1682H21.8763C21.9915 25.9584 23.0133 25.0088 24.2527 25.0088ZM26.7911 28.5962H21.7143C21.7611 28.4566 21.7975 28.3134 21.8227 28.168H26.6827C26.7079 28.3134 26.7441 28.4566 26.7911 28.5962Z" fill="#8C7D5E"/>
</g>
</g>
<defs>
<clipPath id="clip0_3130_20738">
<rect width="30" height="30" fill="white"/>
</clipPath>
</defs>
</svg>
