<svg width="66" height="11" viewBox="0 0 66 11" fill="none" xmlns="http://www.w3.org/2000/svg">
<path d="M10.406 6.18299V6.98599H5.89603V10.836H5.06003V6.98599H0.616028V6.18299H5.06003V2.34399H1.18803V1.54099H9.79003V2.34399H5.89603V6.18299H10.406ZM1.95803 3.10299L2.67303 2.88299C3.12403 3.67499 3.57503 4.70899 3.71803 5.35799L2.94803 5.62199C2.79403 4.97299 2.37603 3.90599 1.95803 3.10299ZM7.78803 5.65499L7.09503 5.42399C7.50203 4.74199 8.00803 3.61999 8.28303 2.82799L9.14103 3.06999C8.74503 3.94999 8.21703 4.99499 7.78803 5.65499Z" fill="#262626"/>
<path d="M10.406 6.18299V6.98599H5.89603V10.836H5.06003V6.98599H0.616028V6.18299H5.06003V2.34399H1.18803V1.54099H9.79003V2.34399H5.89603V6.18299H10.406ZM1.95803 3.10299L2.67303 2.88299C3.12403 3.67499 3.57503 4.70899 3.71803 5.35799L2.94803 5.62199C2.79403 4.97299 2.37603 3.90599 1.95803 3.10299ZM7.78803 5.65499L7.09503 5.42399C7.50203 4.74199 8.00803 3.61999 8.28303 2.82799L9.14103 3.06999C8.74503 3.94999 8.21703 4.99499 7.78803 5.65499Z" fill="black"/>
<path d="M15.576 1.84899V2.82799H17.369V1.84899H15.576ZM14.817 2.82799V1.84899H13.068V2.82799H14.817ZM18.128 1.84899V2.82799H19.976V1.84899H18.128ZM19.536 6.41399V5.81999H15.081V6.41399H19.536ZM19.536 7.50299V6.89799H15.081V7.50299H19.536ZM19.536 8.61399V7.99799H15.081V8.61399H19.536ZM14.322 5.31399H15.961C15.994 5.11599 16.038 4.89599 16.071 4.67599H11.792V4.02699H16.17C16.192 3.82899 16.214 3.61999 16.236 3.43299H12.298V1.25499H20.779V3.43299H17.061C17.028 3.61999 17.006 3.82899 16.973 4.02699H21.23V4.67599H16.863C16.83 4.90699 16.786 5.11599 16.753 5.31399H20.317V9.10899H14.322V5.31399ZM21.505 9.72499V10.385H13.211V10.847H12.397V5.47899H13.211V9.72499H21.505Z" fill="#262626"/>
<path d="M15.576 1.84899V2.82799H17.369V1.84899H15.576ZM14.817 2.82799V1.84899H13.068V2.82799H14.817ZM18.128 1.84899V2.82799H19.976V1.84899H18.128ZM19.536 6.41399V5.81999H15.081V6.41399H19.536ZM19.536 7.50299V6.89799H15.081V7.50299H19.536ZM19.536 8.61399V7.99799H15.081V8.61399H19.536ZM14.322 5.31399H15.961C15.994 5.11599 16.038 4.89599 16.071 4.67599H11.792V4.02699H16.17C16.192 3.82899 16.214 3.61999 16.236 3.43299H12.298V1.25499H20.779V3.43299H17.061C17.028 3.61999 17.006 3.82899 16.973 4.02699H21.23V4.67599H16.863C16.83 4.90699 16.786 5.11599 16.753 5.31399H20.317V9.10899H14.322V5.31399ZM21.505 9.72499V10.385H13.211V10.847H12.397V5.47899H13.211V9.72499H21.505Z" fill="black"/>
<path d="M27.522 2.32199C27.434 1.99199 27.324 1.65099 27.214 1.34299L28.149 1.22199C28.193 1.63999 28.292 2.09099 28.413 2.53099C29.194 2.43199 29.964 2.26699 30.668 2.03599L30.789 2.82799C30.162 3.00399 29.381 3.16899 28.622 3.26799C28.699 3.54299 28.787 3.79599 28.864 4.02699C28.941 4.23599 29.029 4.46699 29.117 4.68699C30.03 4.57699 30.8 4.37899 31.317 4.21399L31.449 5.03899C30.921 5.18199 30.228 5.32499 29.458 5.43499C29.689 5.90799 29.942 6.38099 30.228 6.79899C30.349 6.97499 30.481 7.11799 30.635 7.27199L30.184 7.94299C29.568 7.77799 28.534 7.67899 27.775 7.59099L27.852 6.91999C28.435 6.98599 29.15 7.06299 29.502 7.10699C29.172 6.60099 28.886 6.06199 28.644 5.52299C27.302 5.64399 25.498 5.66599 23.804 5.54499L23.76 4.71999C25.41 4.89599 27.082 4.88499 28.325 4.77499C28.248 4.57699 28.171 4.38999 28.105 4.20299C27.995 3.89499 27.896 3.60899 27.808 3.34499C26.741 3.41099 25.399 3.38899 24.024 3.26799L23.969 2.46499C25.289 2.61899 26.543 2.65199 27.599 2.59699C27.566 2.50899 27.544 2.40999 27.522 2.32199ZM25.355 7.08499C25.091 7.46999 24.893 7.84399 24.893 8.32799C24.893 9.24099 25.707 9.69199 27.434 9.69199C28.457 9.69199 29.26 9.62599 30.052 9.46099L30.019 10.341C29.249 10.462 28.38 10.528 27.445 10.528C25.289 10.528 24.079 9.88999 24.068 8.48199C24.057 7.85499 24.255 7.39299 24.497 6.90899L25.355 7.08499Z" fill="#262626"/>
<path d="M27.522 2.32199C27.434 1.99199 27.324 1.65099 27.214 1.34299L28.149 1.22199C28.193 1.63999 28.292 2.09099 28.413 2.53099C29.194 2.43199 29.964 2.26699 30.668 2.03599L30.789 2.82799C30.162 3.00399 29.381 3.16899 28.622 3.26799C28.699 3.54299 28.787 3.79599 28.864 4.02699C28.941 4.23599 29.029 4.46699 29.117 4.68699C30.03 4.57699 30.8 4.37899 31.317 4.21399L31.449 5.03899C30.921 5.18199 30.228 5.32499 29.458 5.43499C29.689 5.90799 29.942 6.38099 30.228 6.79899C30.349 6.97499 30.481 7.11799 30.635 7.27199L30.184 7.94299C29.568 7.77799 28.534 7.67899 27.775 7.59099L27.852 6.91999C28.435 6.98599 29.15 7.06299 29.502 7.10699C29.172 6.60099 28.886 6.06199 28.644 5.52299C27.302 5.64399 25.498 5.66599 23.804 5.54499L23.76 4.71999C25.41 4.89599 27.082 4.88499 28.325 4.77499C28.248 4.57699 28.171 4.38999 28.105 4.20299C27.995 3.89499 27.896 3.60899 27.808 3.34499C26.741 3.41099 25.399 3.38899 24.024 3.26799L23.969 2.46499C25.289 2.61899 26.543 2.65199 27.599 2.59699C27.566 2.50899 27.544 2.40999 27.522 2.32199ZM25.355 7.08499C25.091 7.46999 24.893 7.84399 24.893 8.32799C24.893 9.24099 25.707 9.69199 27.434 9.69199C28.457 9.69199 29.26 9.62599 30.052 9.46099L30.019 10.341C29.249 10.462 28.38 10.528 27.445 10.528C25.289 10.528 24.079 9.88999 24.068 8.48199C24.057 7.85499 24.255 7.39299 24.497 6.90899L25.355 7.08499Z" fill="black"/>
<path d="M33.825 10.297L33.363 10.033C33.759 9.48299 33.891 8.52599 33.924 7.59099L34.43 7.68999C34.375 8.66899 34.254 9.70299 33.825 10.297ZM34.694 7.71199L35.123 7.65699C35.244 8.29499 35.321 9.11999 35.31 9.65899L34.848 9.72499C34.881 9.17499 34.804 8.36099 34.694 7.71199ZM34.694 5.20399V6.20499H35.761V5.20399H34.694ZM35.761 1.93699H34.694V2.90499H35.761V1.93699ZM35.761 4.54399V3.55399H34.694V4.54399H35.761ZM36.454 6.20499H38.137C38.137 6.20499 38.137 6.42499 38.126 6.53499C37.983 9.24099 37.862 10.209 37.587 10.539C37.422 10.737 37.246 10.803 36.982 10.825C36.762 10.847 36.377 10.847 35.981 10.825C35.959 10.627 35.893 10.341 35.794 10.165C36.179 10.187 36.531 10.198 36.674 10.198C36.817 10.198 36.905 10.176 36.993 10.088C37.103 9.94499 37.202 9.54899 37.279 8.70199L36.927 8.85599C36.817 8.45999 36.553 7.86599 36.289 7.42599L36.674 7.28299C36.916 7.66799 37.158 8.18499 37.29 8.55899C37.334 8.11899 37.367 7.56899 37.411 6.87599H33.99V1.24399H38.038V1.93699H36.454V2.90499H37.818V3.55399H36.454V4.54399H37.818V5.20399H36.454V6.20499ZM36.377 9.26299L35.948 9.36199C35.904 8.88899 35.717 8.15199 35.519 7.59099L35.915 7.50299C36.146 8.05299 36.333 8.78999 36.377 9.26299ZM41.25 9.69199H43.604V10.451H38.049V9.69199H40.458V6.78799H38.621V6.02899H40.458V3.56499H38.368V2.79499H41.448C40.931 2.31099 40.018 1.70599 39.248 1.32099L39.743 0.748993C40.557 1.14499 41.591 1.78299 42.097 2.27799L41.668 2.79499H43.384V3.56499H41.25V6.02899H43.175V6.78799H41.25V9.69199Z" fill="#262626"/>
<path d="M33.825 10.297L33.363 10.033C33.759 9.48299 33.891 8.52599 33.924 7.59099L34.43 7.68999C34.375 8.66899 34.254 9.70299 33.825 10.297ZM34.694 7.71199L35.123 7.65699C35.244 8.29499 35.321 9.11999 35.31 9.65899L34.848 9.72499C34.881 9.17499 34.804 8.36099 34.694 7.71199ZM34.694 5.20399V6.20499H35.761V5.20399H34.694ZM35.761 1.93699H34.694V2.90499H35.761V1.93699ZM35.761 4.54399V3.55399H34.694V4.54399H35.761ZM36.454 6.20499H38.137C38.137 6.20499 38.137 6.42499 38.126 6.53499C37.983 9.24099 37.862 10.209 37.587 10.539C37.422 10.737 37.246 10.803 36.982 10.825C36.762 10.847 36.377 10.847 35.981 10.825C35.959 10.627 35.893 10.341 35.794 10.165C36.179 10.187 36.531 10.198 36.674 10.198C36.817 10.198 36.905 10.176 36.993 10.088C37.103 9.94499 37.202 9.54899 37.279 8.70199L36.927 8.85599C36.817 8.45999 36.553 7.86599 36.289 7.42599L36.674 7.28299C36.916 7.66799 37.158 8.18499 37.29 8.55899C37.334 8.11899 37.367 7.56899 37.411 6.87599H33.99V1.24399H38.038V1.93699H36.454V2.90499H37.818V3.55399H36.454V4.54399H37.818V5.20399H36.454V6.20499ZM36.377 9.26299L35.948 9.36199C35.904 8.88899 35.717 8.15199 35.519 7.59099L35.915 7.50299C36.146 8.05299 36.333 8.78999 36.377 9.26299ZM41.25 9.69199H43.604V10.451H38.049V9.69199H40.458V6.78799H38.621V6.02899H40.458V3.56499H38.368V2.79499H41.448C40.931 2.31099 40.018 1.70599 39.248 1.32099L39.743 0.748993C40.557 1.14499 41.591 1.78299 42.097 2.27799L41.668 2.79499H43.384V3.56499H41.25V6.02899H43.175V6.78799H41.25V9.69199Z" fill="black"/>
<path d="M46.541 6.93099H49.06V5.79799H46.541V6.93099ZM46.541 4.02699V5.14899H49.06V4.02699H46.541ZM52.459 4.02699H49.885V5.14899H52.459V4.02699ZM52.459 6.93099V5.79799H49.885V6.93099H52.459ZM54.428 8.50399V9.24099H49.885V10.869H49.06V9.24099H44.616V8.50399H49.06V7.60199H45.76V3.34499H49.06V2.54199H44.946V1.79399H49.06V0.803993H49.885V1.79399H54.054V2.54199H49.885V3.34499H53.273V7.60199H49.885V8.50399H54.428Z" fill="#262626"/>
<path d="M46.541 6.93099H49.06V5.79799H46.541V6.93099ZM46.541 4.02699V5.14899H49.06V4.02699H46.541ZM52.459 4.02699H49.885V5.14899H52.459V4.02699ZM52.459 6.93099V5.79799H49.885V6.93099H52.459ZM54.428 8.50399V9.24099H49.885V10.869H49.06V9.24099H44.616V8.50399H49.06V7.60199H45.76V3.34499H49.06V2.54199H44.946V1.79399H49.06V0.803993H49.885V1.79399H54.054V2.54199H49.885V3.34499H53.273V7.60199H49.885V8.50399H54.428Z" fill="black"/>
<path d="M63.987 2.60799V1.73899H60.467V2.60799H63.987ZM63.987 4.05999V3.17999H60.467V4.05999H63.987ZM64.746 1.12299V4.67599H59.719V1.12299H64.746ZM58.784 6.52399L58.96 7.24999C57.849 7.81099 56.65 8.39399 55.726 8.83399L55.407 8.03099C55.825 7.85499 56.342 7.63499 56.903 7.38199V3.93899H55.616V3.16899H56.903V0.880993H57.662V3.16899H58.85V3.93899H57.662V7.02999L58.784 6.52399ZM65.527 5.98499H61.006C60.863 6.24899 60.709 6.51299 60.533 6.75499H65.263C65.263 6.75499 65.252 6.97499 65.23 7.08499C65.065 9.35099 64.889 10.209 64.581 10.528C64.416 10.715 64.218 10.77 63.965 10.803C63.723 10.814 63.316 10.814 62.876 10.792C62.876 10.594 62.799 10.297 62.689 10.132C63.096 10.165 63.459 10.176 63.624 10.176C63.778 10.176 63.877 10.165 63.954 10.055C64.141 9.85699 64.306 9.16399 64.449 7.43699H63.591C63.151 8.74599 62.293 10.165 61.347 10.88C61.215 10.715 60.962 10.528 60.764 10.407C61.655 9.81299 62.458 8.62499 62.909 7.43699H61.842C61.259 8.56999 60.181 9.76899 59.169 10.407C59.048 10.231 58.828 10.033 58.63 9.90099C59.543 9.40599 60.511 8.41599 61.105 7.43699H59.994C59.554 7.93199 59.059 8.36099 58.564 8.69099C58.454 8.55899 58.168 8.29499 58.003 8.18499C58.872 7.66799 59.664 6.88699 60.181 5.98499H58.641V5.29199H65.527V5.98499Z" fill="#262626"/>
<path d="M63.987 2.60799V1.73899H60.467V2.60799H63.987ZM63.987 4.05999V3.17999H60.467V4.05999H63.987ZM64.746 1.12299V4.67599H59.719V1.12299H64.746ZM58.784 6.52399L58.96 7.24999C57.849 7.81099 56.65 8.39399 55.726 8.83399L55.407 8.03099C55.825 7.85499 56.342 7.63499 56.903 7.38199V3.93899H55.616V3.16899H56.903V0.880993H57.662V3.16899H58.85V3.93899H57.662V7.02999L58.784 6.52399ZM65.527 5.98499H61.006C60.863 6.24899 60.709 6.51299 60.533 6.75499H65.263C65.263 6.75499 65.252 6.97499 65.23 7.08499C65.065 9.35099 64.889 10.209 64.581 10.528C64.416 10.715 64.218 10.77 63.965 10.803C63.723 10.814 63.316 10.814 62.876 10.792C62.876 10.594 62.799 10.297 62.689 10.132C63.096 10.165 63.459 10.176 63.624 10.176C63.778 10.176 63.877 10.165 63.954 10.055C64.141 9.85699 64.306 9.16399 64.449 7.43699H63.591C63.151 8.74599 62.293 10.165 61.347 10.88C61.215 10.715 60.962 10.528 60.764 10.407C61.655 9.81299 62.458 8.62499 62.909 7.43699H61.842C61.259 8.56999 60.181 9.76899 59.169 10.407C59.048 10.231 58.828 10.033 58.63 9.90099C59.543 9.40599 60.511 8.41599 61.105 7.43699H59.994C59.554 7.93199 59.059 8.36099 58.564 8.69099C58.454 8.55899 58.168 8.29499 58.003 8.18499C58.872 7.66799 59.664 6.88699 60.181 5.98499H58.641V5.29199H65.527V5.98499Z" fill="black"/>
</svg>
