<svg width="49" height="30" viewBox="0 0 49 30" fill="none" xmlns="http://www.w3.org/2000/svg">
<g id="Frame 634">
<g id="Union">
<path fill-rule="evenodd" clip-rule="evenodd" d="M48 15H44V22H1V24H44H48V22V15Z" fill="#F2F2F2"/>
<path d="M44 15V14.5H43.5V15H44ZM48 15H48.5V14.5H48V15ZM44 22V22.5H44.5V22H44ZM1 22V21.5H0.5V22H1ZM1 24H0.5V24.5H1V24ZM48 24V24.5H48.5V24H48ZM44 15.5H48V14.5H44V15.5ZM44.5 22V15H43.5V22H44.5ZM1 22.5H44V21.5H1V22.5ZM1.5 24V22H0.5V24H1.5ZM44 23.5H1V24.5H44V23.5ZM48 23.5H44V24.5H48V23.5ZM47.5 22V24H48.5V22H47.5ZM47.5 15V22H48.5V15H47.5Z" fill="#8C7D5E"/>
</g>
<path id="Vector" d="M36.4994 9.08393C36.4994 9.09125 36.4994 9.09857 36.4994 9.1059C36.4994 9.11322 36.4994 9.12696 36.4966 9.13749C36.4939 9.14802 36.4939 9.15397 36.4925 9.16221C36.4911 9.17045 36.4893 9.18098 36.4875 9.1906C36.4856 9.20021 36.4829 9.20754 36.4801 9.21623C36.4774 9.22493 36.4755 9.23363 36.4728 9.24187C36.4701 9.25011 36.4659 9.25973 36.4627 9.26843C36.4595 9.27713 36.4568 9.28399 36.4531 9.29177C36.4495 9.29956 36.444 9.311 36.4389 9.32016C36.4339 9.32932 36.4325 9.33344 36.4289 9.33985C36.4252 9.34626 36.4151 9.36136 36.4082 9.37235L36.4005 9.38471C36.3913 9.39753 36.3817 9.40943 36.3716 9.42134C36.3616 9.43324 36.3538 9.44102 36.3446 9.45018L36.33 9.46575C36.3208 9.47399 36.3116 9.48177 36.302 9.48909L36.2892 9.50054L36.2622 9.51931L36.2448 9.53121C36.237 9.53625 36.2288 9.54037 36.2205 9.54495L36.1981 9.55731L36.1761 9.56738C36.167 9.57105 36.1578 9.57562 36.1487 9.57883C36.1395 9.58203 36.1345 9.58341 36.1276 9.58569C36.1207 9.58798 36.1079 9.59256 36.0978 9.59531C36.0878 9.59806 36.0713 9.60172 36.0576 9.60446L36.0457 9.60675C36.0277 9.61004 36.0095 9.61218 35.9912 9.61316L23.7674 10.4244C23.715 10.4414 23.6604 10.4502 23.6053 10.4505C23.5737 10.4503 23.5422 10.4474 23.511 10.4418L13.7769 11.091C13.7653 11.091 13.7538 11.091 13.7425 11.091H13.7398C13.72 11.0909 13.7003 11.0897 13.6807 11.0873H13.667C13.6519 11.0873 13.6368 11.0828 13.6212 11.0796L13.6052 11.0754C13.591 11.0718 13.5773 11.0677 13.5635 11.0631L13.547 11.0576C13.5327 11.0522 13.5186 11.0461 13.5049 11.0393L13.4921 11.0333C13.4752 11.025 13.4589 11.0157 13.4431 11.0054C13.4372 11.0017 13.4317 10.9972 13.4262 10.9935C13.4207 10.9898 13.4056 10.9784 13.3955 10.9706L13.3776 10.9555L13.3483 10.9276L13.3355 10.9143C13.3217 10.8998 13.3087 10.8845 13.2966 10.8685L13.2916 10.8603C13.2833 10.8487 13.2756 10.8368 13.2682 10.8246L13.2577 10.8035C13.2522 10.7934 13.2467 10.7834 13.2421 10.7728L13.233 10.7522C13.2293 10.7431 13.2257 10.7339 13.2224 10.7247C13.2194 10.7166 13.2168 10.7084 13.2147 10.7C13.2119 10.6913 13.2096 10.6831 13.2073 10.6748C13.2051 10.6666 13.2032 10.6561 13.2014 10.6465C13.1996 10.6368 13.1982 10.6314 13.1973 10.6236C13.1964 10.6158 13.1945 10.603 13.1936 10.5924V10.5782V10.5705C13.1936 10.5599 13.1936 10.5489 13.1936 10.5384C13.1936 10.5279 13.1936 10.5224 13.1936 10.5146C13.1936 10.5068 13.1936 10.4968 13.1959 10.4881C13.1982 10.4794 13.1959 10.4693 13.1991 10.4597C13.2023 10.4501 13.2014 10.4455 13.2028 10.4386C13.2041 10.4317 13.2069 10.4176 13.2096 10.407C13.2124 10.3965 13.2133 10.3942 13.2151 10.3878C13.217 10.3814 13.2211 10.3672 13.2247 10.3567C13.2284 10.3461 13.2307 10.3425 13.2334 10.3356C13.2362 10.3287 13.2403 10.3173 13.2444 10.3086C13.2485 10.2999 13.2536 10.2917 13.2577 10.2834C13.2618 10.2752 13.265 10.2692 13.2691 10.2628C13.2733 10.2564 13.2806 10.2445 13.2865 10.2358C13.2925 10.2271 13.2939 10.2244 13.298 10.2189C13.3021 10.2134 13.3108 10.2019 13.3177 10.1937L13.3319 10.1772C13.3378 10.1699 13.3447 10.1635 13.3511 10.1566L13.3703 10.1378L13.3882 10.1227C13.3964 10.1158 13.4047 10.1085 13.4134 10.1021L13.4193 10.0975C13.7111 9.88272 13.9911 9.65225 14.258 9.40714C14.6572 9.02985 15.0978 8.69902 15.5715 8.421C16.8019 7.70789 18.1381 7.19556 19.5298 6.90333C21.4351 6.50349 23.3788 6.31601 25.3254 6.34433C27.6089 6.34325 29.8887 6.53083 32.1414 6.90516C33.4421 7.07249 34.6853 7.54294 35.771 8.27862C35.9321 8.38621 36.0974 8.50021 36.2617 8.61695C36.3246 8.65959 36.3777 8.71515 36.4174 8.77993C36.4261 8.79458 36.4343 8.80923 36.4421 8.82571V8.82846C36.4495 8.84311 36.4563 8.85868 36.4623 8.87424C36.4752 8.90971 36.4845 8.94636 36.4902 8.98366C36.4925 8.99831 36.4943 9.01342 36.4957 9.02944C36.4957 9.03402 36.4957 9.0386 36.4957 9.04364C36.4977 9.05699 36.4989 9.07044 36.4994 9.08393ZM16.1182 9.37144C15.858 9.52027 15.6114 9.69153 15.3811 9.88328L23.1585 9.36686L23.5834 7.48064C22.2993 7.53871 21.0222 7.70379 19.7656 7.97417C18.4833 8.24318 17.252 8.71485 16.1182 9.37144ZM31.9537 7.98562C29.7618 7.62178 27.5436 7.43972 25.3217 7.44127C25.1172 7.44127 24.9152 7.44234 24.7155 7.44447L24.2998 9.29132L34.2016 8.63389C33.4876 8.31017 32.7304 8.0918 31.9537 7.98562ZM19.6241 12.4127C19.6307 12.5539 19.6915 12.6872 19.7938 12.7847C19.8962 12.8823 20.0321 12.9366 20.1735 12.9365H20.1982L21.5529 12.8765C21.6919 12.8616 21.8201 12.7943 21.9112 12.6882C22.0023 12.5822 22.0495 12.4454 22.0433 12.3057C22.037 12.166 21.9778 12.034 21.8776 11.9365C21.7773 11.839 21.6437 11.7834 21.5039 11.7809L20.1474 11.8418C20.0025 11.8486 19.8661 11.9124 19.7681 12.0194C19.67 12.1264 19.6183 12.2678 19.6241 12.4127ZM0.918095 17.7294C0.892915 17.2922 0.872314 16.8137 0.872314 16.1907C0.849865 15.2756 0.931575 14.3609 1.11587 13.4643C1.29076 12.7488 1.65473 11.2604 2.82812 10.6259C3.53408 10.244 7.92731 9.18419 9.00364 8.98183C10.8349 8.63755 12.0101 7.88306 13.255 7.086C14.7828 6.00084 16.5097 5.22778 18.3367 4.8111C19.9931 4.44896 24.1204 4.23608 26.3522 4.24386C28.6262 4.25659 30.8959 4.44224 33.1417 4.79919C34.6153 4.98824 36.0237 5.52148 37.2529 6.35578C38.438 7.17211 39.5744 8.0569 40.6564 9.00564C41.8499 10.0476 41.9382 12.1284 42.0129 13.8004C42.0229 14.0316 42.0326 14.25 42.0445 14.4514C42.098 15.5322 42.0827 16.6153 41.9987 17.6941C42.3406 17.8275 42.6251 18.0763 42.803 18.3973C42.9808 18.7184 43.0408 19.0915 42.9726 19.4521C42.9043 19.8127 42.7121 20.1381 42.4293 20.372C42.1464 20.6059 41.7907 20.7334 41.4237 20.7327H37.2177C36.8985 21.2244 36.4614 21.6286 35.9462 21.9084C35.431 22.1882 34.854 22.3348 34.2677 22.3348C33.6814 22.3348 33.1045 22.1882 32.5893 21.9084C32.0741 21.6286 31.637 21.2244 31.3178 20.7327H12.9088C12.5896 21.2244 12.1525 21.6286 11.6373 21.9084C11.1221 22.1882 10.5452 22.3348 9.95888 22.3348C9.37261 22.3348 8.79563 22.1882 8.28042 21.9084C7.76522 21.6286 7.32814 21.2244 7.00892 20.7327H1.57323C1.21424 20.7327 0.866038 20.61 0.586435 20.3848C0.306833 20.1596 0.112656 19.8456 0.0361451 19.4949C-0.0403661 19.1441 0.00539166 18.7778 0.165822 18.4566C0.326252 18.1355 0.591701 17.8789 0.918095 17.7294ZM2.05349 14.4876C2.00771 14.8831 1.98207 15.3478 1.97337 15.8775H2.79195C3.05657 15.8775 3.28868 15.5529 3.28868 15.1825V14.4876H2.05349ZM39.9348 9.832C38.8893 8.9144 37.7912 8.05836 36.6463 7.26821C35.5457 6.51461 34.2796 6.03751 32.9554 5.87736C30.7698 5.53013 28.561 5.34969 26.3481 5.33759H26.2318C23.8095 5.33759 19.9872 5.57016 18.5702 5.88011C16.8721 6.27365 15.2678 6.9968 13.8483 8.00851C12.462 9.00947 10.8809 9.70793 9.20737 10.0586C7.86276 10.3113 3.83578 11.3277 3.35141 11.5896C2.73289 11.9242 2.43073 12.7859 2.26729 13.3906H3.83715C3.98286 13.3906 4.1226 13.4485 4.22563 13.5515C4.32865 13.6546 4.38654 13.7943 4.38654 13.94V15.1835C4.41072 15.6318 4.2569 16.0715 3.95854 16.407C3.66017 16.7425 3.2414 16.9466 2.79332 16.9749H1.98298C1.98985 17.1933 1.99901 17.3943 2.00954 17.5856H6.65869C6.90913 16.9123 7.35952 16.3317 7.94942 15.9218C8.53933 15.5118 9.24051 15.2921 9.95888 15.2921C10.6773 15.2921 11.3784 15.5118 11.9683 15.9218C12.5582 16.3317 13.0086 16.9123 13.2591 17.5856H30.9671C31.2176 16.9124 31.6681 16.3318 32.258 15.9219C32.8479 15.512 33.5491 15.2923 34.2675 15.2923C34.9859 15.2923 35.687 15.512 36.277 15.9219C36.8669 16.3318 37.3174 16.9124 37.5679 17.5856H40.9054C40.9852 16.5651 41.0005 15.5406 40.9512 14.5182C40.9407 14.3351 40.932 14.1465 40.9233 13.9473H40.0626C39.2568 13.9473 38.6012 13.1434 38.6012 12.1554V10.9115C38.6012 10.7658 38.6591 10.6261 38.7621 10.5231C38.8651 10.42 39.0049 10.3622 39.1506 10.3622H40.3354C40.2359 10.1622 40.1 9.98239 39.9348 9.832ZM40.6921 11.46H39.6959V12.155C39.6959 12.573 39.9156 12.8499 40.0621 12.8499H40.8642C40.8358 12.3835 40.7783 11.9193 40.6921 11.46ZM41.4246 19.6357C41.5511 19.6357 41.6724 19.5855 41.7619 19.496C41.8514 19.4066 41.9016 19.2852 41.9016 19.1587C41.9016 19.0322 41.8514 18.9108 41.7619 18.8214C41.6724 18.7319 41.5511 18.6816 41.4246 18.6816H37.7867C37.7867 18.7251 37.7904 18.7686 37.7904 18.8126C37.7903 19.0902 37.7573 19.3668 37.692 19.6367L41.4246 19.6357ZM34.2684 21.2381C34.7483 21.2381 35.2174 21.0958 35.6165 20.8292C36.0155 20.5626 36.3265 20.1836 36.5101 19.7402C36.6938 19.2969 36.7418 18.809 36.6482 18.3383C36.5546 17.8676 36.3235 17.4353 35.9842 17.0959C35.6448 16.7566 35.2125 16.5255 34.7418 16.4319C34.2711 16.3382 33.7832 16.3863 33.3398 16.5699C32.8965 16.7536 32.5175 17.0646 32.2509 17.4636C31.9843 17.8626 31.842 18.3318 31.842 18.8117C31.8421 19.455 32.0977 20.0719 32.5525 20.5268C33.0073 20.9817 33.6242 21.2374 34.2675 21.2377L34.2684 21.2381ZM30.8448 19.6357C30.7799 19.3659 30.747 19.0893 30.7469 18.8117C30.7469 18.7659 30.7469 18.7242 30.7501 18.6807H13.477C13.477 18.7242 13.4807 18.7677 13.4807 18.8117C13.4806 19.0893 13.4475 19.3659 13.3822 19.6357H30.8448ZM9.96003 21.2381C10.4399 21.2381 10.9091 21.0958 11.3081 20.8292C11.7071 20.5626 12.0181 20.1836 12.2018 19.7402C12.3854 19.2969 12.4335 18.809 12.3398 18.3383C12.2462 17.8676 12.0151 17.4353 11.6758 17.0959C11.3364 16.7566 10.9041 16.5255 10.4334 16.4319C9.96272 16.3382 9.47484 16.3863 9.03147 16.5699C8.58809 16.7536 8.20914 17.0646 7.94252 17.4636C7.67589 17.8626 7.53359 18.3318 7.53359 18.8117C7.53371 19.455 7.78928 20.0719 8.24411 20.5268C8.69895 20.9817 9.31582 21.2374 9.95911 21.2377L9.96003 21.2381ZM1.57415 19.6357H6.53554C6.47024 19.3659 6.4372 19.0893 6.43711 18.8117C6.43711 18.7659 6.43711 18.7242 6.44077 18.6807H1.57323C1.44671 18.6807 1.32538 18.731 1.23591 18.8205C1.14645 18.9099 1.09619 19.0313 1.09619 19.1578C1.09619 19.2843 1.14645 19.4056 1.23591 19.4951C1.32538 19.5846 1.44671 19.6348 1.57323 19.6348L1.57415 19.6357Z" fill="#8C7D5E"/>
</g>
</svg>
