<svg width="33" height="11" viewBox="0 0 33 11" fill="none" xmlns="http://www.w3.org/2000/svg">
<path d="M10.939 2.99299H2.66701V5.04999C2.66701 6.72199 2.51301 9.18599 1.57801 10.847C1.43501 10.704 1.08301 10.473 0.88501 10.385C1.77601 8.81199 1.86401 6.61199 1.86401 5.04999V2.21199H5.90101V0.803986H6.73701V2.21199H10.939V2.99299ZM10.895 5.77599H7.65001C8.46401 7.18399 9.83901 8.56999 11.115 9.27399C10.917 9.43899 10.642 9.73599 10.51 9.96699C9.37701 9.22999 8.17801 7.96499 7.30901 6.60099V10.836H6.48401V6.63399C5.67001 8.04199 4.50401 9.29599 3.34901 10.033C3.21701 9.82399 2.95301 9.52699 2.76601 9.37299C4.05301 8.64699 5.35101 7.23899 6.11001 5.77599H3.23901V4.99499H6.48401V3.34499H7.30901V4.99499H10.895V5.77599Z" fill="#262626"/>
<path d="M10.939 2.99299H2.66701V5.04999C2.66701 6.72199 2.51301 9.18599 1.57801 10.847C1.43501 10.704 1.08301 10.473 0.88501 10.385C1.77601 8.81199 1.86401 6.61199 1.86401 5.04999V2.21199H5.90101V0.803986H6.73701V2.21199H10.939V2.99299ZM10.895 5.77599H7.65001C8.46401 7.18399 9.83901 8.56999 11.115 9.27399C10.917 9.43899 10.642 9.73599 10.51 9.96699C9.37701 9.22999 8.17801 7.96499 7.30901 6.60099V10.836H6.48401V6.63399C5.67001 8.04199 4.50401 9.29599 3.34901 10.033C3.21701 9.82399 2.95301 9.52699 2.76601 9.37299C4.05301 8.64699 5.35101 7.23899 6.11001 5.77599H3.23901V4.99499H6.48401V3.34499H7.30901V4.99499H10.895V5.77599Z" fill="black"/>
<path d="M21.037 0.869985L21.51 1.48599C20.025 1.82699 17.649 1.99198 15.724 2.04698C15.713 1.85999 15.614 1.59599 15.526 1.40899C17.429 1.34299 19.761 1.15599 21.037 0.869985ZM18.969 3.45499L18.276 3.61999C18.232 3.24599 18.111 2.60798 17.979 2.12399L18.639 2.01399C18.771 2.48699 18.914 3.10299 18.969 3.45499ZM14.459 2.36599H13.084V4.76399H14.459V2.36599ZM13.084 7.99799H14.459V5.48999H13.084V7.99799ZM15.185 8.72399H13.084V9.58199H12.358V1.63999H15.185V8.72399ZM16.021 2.36599L16.659 2.18999C16.868 2.60799 17.11 3.17999 17.209 3.53199L16.538 3.75199C16.45 3.38899 16.23 2.80599 16.021 2.36599ZM20.245 7.35999H17.605C17.957 7.97599 18.452 8.51499 19.068 8.96599C19.563 8.53699 19.959 8.00899 20.245 7.35999ZM20.74 6.69999L21.191 6.89799C20.861 7.93199 20.344 8.72399 19.684 9.33999C20.388 9.73599 21.224 10.011 22.126 10.176C21.95 10.341 21.741 10.66 21.631 10.869C20.663 10.66 19.794 10.319 19.057 9.83499C18.353 10.319 17.539 10.638 16.659 10.858C16.571 10.693 16.351 10.374 16.197 10.253C17.033 10.066 17.792 9.79099 18.441 9.39499C17.935 8.98799 17.495 8.51499 17.154 7.96499C16.725 9.08699 16.076 10.121 14.987 10.836C14.866 10.649 14.613 10.385 14.426 10.264C15.999 9.28499 16.593 7.57999 16.857 5.98499H15.361V5.29199H16.967C17 4.99499 17.033 4.69799 17.055 4.42299H15.702V3.75199H19.596C19.959 3.21299 20.377 2.45399 20.608 1.90399L21.378 2.15699C21.081 2.68499 20.718 3.27899 20.377 3.75199H21.708V4.42299H17.847C17.825 4.69799 17.792 4.99499 17.759 5.29199H21.939V5.98499H17.649C17.616 6.23799 17.561 6.47999 17.517 6.72199H20.586L20.74 6.69999Z" fill="#262626"/>
<path d="M21.037 0.869985L21.51 1.48599C20.025 1.82699 17.649 1.99198 15.724 2.04698C15.713 1.85999 15.614 1.59599 15.526 1.40899C17.429 1.34299 19.761 1.15599 21.037 0.869985ZM18.969 3.45499L18.276 3.61999C18.232 3.24599 18.111 2.60798 17.979 2.12399L18.639 2.01399C18.771 2.48699 18.914 3.10299 18.969 3.45499ZM14.459 2.36599H13.084V4.76399H14.459V2.36599ZM13.084 7.99799H14.459V5.48999H13.084V7.99799ZM15.185 8.72399H13.084V9.58199H12.358V1.63999H15.185V8.72399ZM16.021 2.36599L16.659 2.18999C16.868 2.60799 17.11 3.17999 17.209 3.53199L16.538 3.75199C16.45 3.38899 16.23 2.80599 16.021 2.36599ZM20.245 7.35999H17.605C17.957 7.97599 18.452 8.51499 19.068 8.96599C19.563 8.53699 19.959 8.00899 20.245 7.35999ZM20.74 6.69999L21.191 6.89799C20.861 7.93199 20.344 8.72399 19.684 9.33999C20.388 9.73599 21.224 10.011 22.126 10.176C21.95 10.341 21.741 10.66 21.631 10.869C20.663 10.66 19.794 10.319 19.057 9.83499C18.353 10.319 17.539 10.638 16.659 10.858C16.571 10.693 16.351 10.374 16.197 10.253C17.033 10.066 17.792 9.79099 18.441 9.39499C17.935 8.98799 17.495 8.51499 17.154 7.96499C16.725 9.08699 16.076 10.121 14.987 10.836C14.866 10.649 14.613 10.385 14.426 10.264C15.999 9.28499 16.593 7.57999 16.857 5.98499H15.361V5.29199H16.967C17 4.99499 17.033 4.69799 17.055 4.42299H15.702V3.75199H19.596C19.959 3.21299 20.377 2.45399 20.608 1.90399L21.378 2.15699C21.081 2.68499 20.718 3.27899 20.377 3.75199H21.708V4.42299H17.847C17.825 4.69799 17.792 4.99499 17.759 5.29199H21.939V5.98499H17.649C17.616 6.23799 17.561 6.47999 17.517 6.72199H20.586L20.74 6.69999Z" fill="black"/>
<path d="M32.598 1.38699V2.12399H23.424V1.38699H32.598ZM25.019 5.22599V5.31399C25.019 5.58899 25.008 5.87499 24.997 6.17199H27.989V5.22599H25.019ZM31.157 3.49899H25.019V4.58799H31.157V3.49899ZM32.873 6.84299H28.099C28.066 7.15099 28.011 7.44799 27.945 7.72299H31.806C31.806 7.72299 31.795 7.94299 31.784 8.04199C31.63 9.65899 31.487 10.341 31.201 10.616C31.003 10.803 30.794 10.858 30.475 10.88C30.189 10.902 29.606 10.902 29.001 10.858C28.979 10.66 28.902 10.363 28.781 10.176C29.364 10.22 29.925 10.231 30.134 10.231C30.343 10.231 30.442 10.209 30.541 10.132C30.717 9.97799 30.838 9.49399 30.948 8.37199H27.758C27.329 9.51599 26.504 10.363 24.81 10.869C24.733 10.693 24.513 10.385 24.359 10.231C26.526 9.64799 27.087 8.47099 27.285 6.84299H24.942C24.81 8.15199 24.436 9.58199 23.545 10.638C23.413 10.495 23.061 10.264 22.874 10.176C24.073 8.76799 24.216 6.77699 24.216 5.30299V2.87199H31.96V5.22599H28.792V6.17199H32.873V6.84299Z" fill="#262626"/>
<path d="M32.598 1.38699V2.12399H23.424V1.38699H32.598ZM25.019 5.22599V5.31399C25.019 5.58899 25.008 5.87499 24.997 6.17199H27.989V5.22599H25.019ZM31.157 3.49899H25.019V4.58799H31.157V3.49899ZM32.873 6.84299H28.099C28.066 7.15099 28.011 7.44799 27.945 7.72299H31.806C31.806 7.72299 31.795 7.94299 31.784 8.04199C31.63 9.65899 31.487 10.341 31.201 10.616C31.003 10.803 30.794 10.858 30.475 10.88C30.189 10.902 29.606 10.902 29.001 10.858C28.979 10.66 28.902 10.363 28.781 10.176C29.364 10.22 29.925 10.231 30.134 10.231C30.343 10.231 30.442 10.209 30.541 10.132C30.717 9.97799 30.838 9.49399 30.948 8.37199H27.758C27.329 9.51599 26.504 10.363 24.81 10.869C24.733 10.693 24.513 10.385 24.359 10.231C26.526 9.64799 27.087 8.47099 27.285 6.84299H24.942C24.81 8.15199 24.436 9.58199 23.545 10.638C23.413 10.495 23.061 10.264 22.874 10.176C24.073 8.76799 24.216 6.77699 24.216 5.30299V2.87199H31.96V5.22599H28.792V6.17199H32.873V6.84299Z" fill="black"/>
</svg>
