<svg width="32" height="30" viewBox="0 0 32 30" fill="none" xmlns="http://www.w3.org/2000/svg">
<g id="_&#227;&#131;&#172;&#227;&#130;&#164;&#227;&#131;&#164;&#227;&#131;&#188;_1" clip-path="url(#clip0_3181_16165)">
<path id="Vector" d="M12.0168 5.51686C11.9156 5.45872 11.7907 5.46303 11.6895 5.52332L8.18824 7.66372C8.09134 7.72186 8.0332 7.82737 8.0332 7.93934V12.317C8.0332 12.4333 8.09565 12.541 8.19901 12.5991C8.24853 12.6271 8.30237 12.64 8.3562 12.64C8.41434 12.64 8.47248 12.625 8.52416 12.5927L12.0255 10.4523C12.1223 10.3941 12.1805 10.2886 12.1805 10.1766V5.79894C12.1805 5.68267 12.118 5.575 12.0147 5.51686H12.0168ZM11.5366 9.99576L8.68135 11.7421V8.12022L11.5366 6.37388V9.99576Z" fill="#8C7D5E"/>
<path id="Vector_2" d="M12.0168 12.5947C11.9156 12.5366 11.7907 12.5409 11.6895 12.6012L8.18824 14.7416C8.09134 14.7997 8.0332 14.9052 8.0332 15.0172V19.3949C8.0332 19.5112 8.09565 19.6189 8.19901 19.677C8.24853 19.705 8.30237 19.7179 8.3562 19.7179C8.41434 19.7179 8.47248 19.7028 8.52416 19.6705L12.0255 17.5301C12.1223 17.472 12.1805 17.3665 12.1805 17.2545V12.8768C12.1805 12.7605 12.118 12.6529 12.0147 12.5947H12.0168Z" fill="#8C7D5E"/>
<path id="Vector_3" d="M12.0168 19.6726C11.9156 19.6145 11.7907 19.6188 11.6895 19.6791L8.18824 21.8195C8.09134 21.8776 8.0332 21.9831 8.0332 22.0951V26.4728C8.0332 26.5891 8.09565 26.6967 8.19901 26.7549C8.24853 26.7829 8.30237 26.7958 8.3562 26.7958C8.41434 26.7958 8.47248 26.7807 8.52416 26.7484L12.0255 24.608C12.1223 24.5499 12.1805 24.4444 12.1805 24.3324V19.9547C12.1805 19.8384 12.118 19.7308 12.0147 19.6726H12.0168Z" fill="#8C7D5E"/>
<path id="Vector_4" d="M22.5312 7.39237L17.5635 5.22614C17.4645 5.18307 17.3482 5.19168 17.2578 5.25197C17.1673 5.31227 17.1113 5.41347 17.1113 5.52114V10.2154C17.1113 10.3446 17.1867 10.4608 17.3051 10.5125L22.2728 12.6788C22.3137 12.696 22.359 12.7046 22.402 12.7046C22.4645 12.7046 22.5248 12.6874 22.5786 12.6508C22.669 12.5905 22.725 12.4893 22.725 12.3816V7.68738C22.725 7.55818 22.6497 7.4419 22.5312 7.39022V7.39237ZM22.079 11.8906L17.7573 10.0065V6.0164L22.079 7.90055V11.8906Z" fill="#8C7D5E"/>
<path id="Vector_5" d="M24.7993 13.7425L29.767 15.9087C29.8079 15.9259 29.8531 15.9345 29.8962 15.9345C29.9586 15.9345 30.0189 15.9173 30.0727 15.8807C30.1632 15.8204 30.2192 15.7192 30.2192 15.6115V10.9173C30.2192 10.7881 30.1438 10.6718 30.0254 10.6202L25.0577 8.45392C24.9586 8.41085 24.8423 8.41947 24.7519 8.47976C24.6615 8.54005 24.6055 8.64126 24.6055 8.74892V13.4432C24.6055 13.5724 24.6808 13.6886 24.7993 13.7403V13.7425Z" fill="#8C7D5E"/>
<path id="Vector_6" d="M22.5312 14.6726L17.5635 12.5064C17.4645 12.4633 17.3482 12.472 17.2578 12.5322C17.1673 12.5925 17.1113 12.6937 17.1113 12.8014V17.4956C17.1113 17.6248 17.1867 17.7411 17.3051 17.7928L22.2728 19.959C22.3137 19.9763 22.359 19.9849 22.402 19.9849C22.4645 19.9849 22.5248 19.9676 22.5786 19.931C22.669 19.8707 22.725 19.7695 22.725 19.6619V14.9676C22.725 14.8384 22.6497 14.7222 22.5312 14.6705V14.6726Z" fill="#8C7D5E"/>
<path id="Vector_7" d="M24.7993 21.0227L29.767 23.189C29.8079 23.2062 29.8531 23.2148 29.8962 23.2148C29.9586 23.2148 30.0189 23.1976 30.0727 23.161C30.1632 23.1007 30.2192 22.9995 30.2192 22.8918V18.1976C30.2192 18.0684 30.1438 17.9521 30.0254 17.9004L25.0577 15.7342C24.9586 15.6911 24.8423 15.6997 24.7519 15.76C24.6615 15.8203 24.6055 15.9215 24.6055 16.0292V20.7234C24.6055 20.8526 24.6808 20.9689 24.7993 21.0206V21.0227Z" fill="#8C7D5E"/>
<path id="Vector_8" d="M22.5312 21.951L17.5635 19.7847C17.4645 19.7417 17.3482 19.7503 17.2578 19.8106C17.1673 19.8709 17.1113 19.9721 17.1113 20.0797V24.774C17.1113 24.9032 17.1867 25.0194 17.3051 25.0711L22.2728 27.2374C22.3137 27.2546 22.359 27.2632 22.402 27.2632C22.4645 27.2632 22.5248 27.246 22.5786 27.2094C22.669 27.1491 22.725 27.0479 22.725 26.9402V22.246C22.725 22.1168 22.6497 22.0005 22.5312 21.9488V21.951Z" fill="#8C7D5E"/>
<path id="Vector_9" d="M31.549 9.52621V8.82207L14.3095 1.30054C14.3095 1.30054 14.2902 1.29624 14.2816 1.29193C14.2686 1.28762 14.2579 1.28332 14.2449 1.28116C14.2299 1.27901 14.2148 1.27686 14.2019 1.27686C14.189 1.27686 14.1782 1.27686 14.1653 1.27686C14.1502 1.27686 14.133 1.28116 14.1179 1.28332C14.1071 1.28547 14.0964 1.28762 14.0856 1.28978C14.0684 1.29408 14.0533 1.3027 14.0382 1.31131C14.0296 1.31562 14.021 1.31777 14.0124 1.32208L6.11402 6.15196C6.01712 6.2101 5.95898 6.31561 5.95898 6.42759V29.9999H6.60498V6.60847L13.8573 2.17263V29.9999H14.5033V2.09081L31.549 9.52621Z" fill="#8C7D5E" stroke="#8C7D5E" stroke-width="0.2"/>
<g id="Group 1168">
<path id="Vector_10" d="M2.94046 2.1446C2.81126 2.02186 2.6067 2.02617 2.48396 2.15321C2.36122 2.28241 2.36552 2.48698 2.49257 2.60972L5.30049 5.30352C5.36294 5.36381 5.44261 5.39395 5.52444 5.39395C5.60842 5.39395 5.69455 5.36166 5.757 5.2949C5.87974 5.1657 5.87543 4.96114 5.74838 4.8384L2.94046 2.1446Z" fill="#8C7D5E" stroke="#8C7D5E" stroke-width="0.2"/>
<path id="Vector_11" d="M4.61012 6.05302L0.859046 5.01728C0.686781 4.96991 0.510209 5.07111 0.462836 5.24338C0.415463 5.41564 0.516669 5.59221 0.688934 5.63959L4.44001 6.67318C4.468 6.68179 4.49815 6.68395 4.52614 6.68395C4.66826 6.68395 4.79746 6.5892 4.83837 6.44708C4.88575 6.27482 4.78454 6.09824 4.61228 6.05087L4.61012 6.05302Z" fill="#8C7D5E" stroke="#8C7D5E" stroke-width="0.2"/>
<path id="Vector_12" d="M6.4648 4.13439C6.50786 4.2722 6.63491 4.36049 6.77272 4.36049C6.80502 4.36049 6.83732 4.35618 6.86962 4.34541C7.03973 4.29158 7.13448 4.1107 7.08064 3.94059L5.92001 0.226121C5.86617 0.0560088 5.6853 -0.0387371 5.51518 0.0150958C5.34507 0.0689287 5.25033 0.249807 5.30416 0.419919L6.4648 4.13439Z" fill="#8C7D5E" stroke="#8C7D5E" stroke-width="0.2"/>
</g>
<path id="Vector_13" d="M12.1807 26.63C12.1807 26.5137 12.1182 26.4061 12.0149 26.3479C11.9137 26.2898 11.7888 26.2941 11.6876 26.3544L8.18629 28.4948C8.08939 28.5529 8.03125 28.6584 8.03125 28.7704V29.9999H12.1785V26.63H12.1807Z" fill="#8C7D5E"/>
<path id="Vector_14" d="M30.2192 29.9978V25.3035C30.2192 25.1743 30.1438 25.0581 30.0254 25.0064L25.0577 22.8401C24.9586 22.7971 24.8423 22.8057 24.7519 22.866C24.6615 22.9263 24.6055 23.0275 24.6055 23.1352V27.8294C24.6055 27.9586 24.6808 28.0749 24.7993 28.1265L29.093 29.9999H30.2192C30.2192 29.9999 30.2192 29.9999 30.2192 29.9978Z" fill="#8C7D5E"/>
<path id="Vector_15" d="M22.725 29.3541C22.725 29.2249 22.6497 29.1086 22.5312 29.0569L17.5635 26.8907C17.4645 26.8476 17.3482 26.8562 17.2578 26.9165C17.1673 26.9768 17.1113 27.078 17.1113 27.1857V30.0001H22.725V29.3519V29.3541Z" fill="#8C7D5E"/>
</g>
<defs>
<clipPath id="clip0_3181_16165">
<rect width="31.1003" height="30" fill="white" transform="translate(0.449219)"/>
</clipPath>
</defs>
</svg>
