<svg width="66" height="27" viewBox="0 0 66 27" fill="none" xmlns="http://www.w3.org/2000/svg">
<path d="M8.26101 2.487V1.728H2.76101V2.487H8.26101ZM8.26101 3.807V3.037H2.76101V3.807H8.26101ZM9.06401 1.145V4.39H1.99101V1.145H9.06401ZM8.95401 7.019H6.68801C6.94101 7.624 7.31501 8.174 7.76601 8.636C8.26101 8.174 8.66801 7.635 8.95401 7.019ZM2.37601 8.427V9.307C3.00301 9.241 3.68501 9.175 4.36701 9.098V8.427H2.37601ZM2.37601 7.041V7.811H4.36701V7.041H2.37601ZM4.36701 5.688H2.37601V6.425H4.36701V5.688ZM9.46001 6.348L9.95501 6.546C9.61401 7.591 9.04201 8.449 8.33801 9.131C8.96501 9.615 9.71301 9.978 10.56 10.187C10.384 10.341 10.164 10.638 10.065 10.825C9.18501 10.572 8.41501 10.154 7.76601 9.615C7.09501 10.132 6.34701 10.506 5.57701 10.77C5.48901 10.583 5.29101 10.297 5.14801 10.154V10.836H4.36701V9.769C3.02501 9.934 1.68301 10.088 0.660007 10.209L0.583008 9.483C0.891008 9.461 1.24301 9.428 1.62801 9.384V5.688H0.682007V5.006H10.296V5.688H5.14801V10.143C5.87401 9.923 6.58901 9.571 7.21601 9.098C6.71001 8.548 6.30301 7.899 6.00601 7.162L6.47901 7.019H5.53301V6.37H9.31701L9.46001 6.348Z" fill="#262626"/>
<path d="M8.26101 2.487V1.728H2.76101V2.487H8.26101ZM8.26101 3.807V3.037H2.76101V3.807H8.26101ZM9.06401 1.145V4.39H1.99101V1.145H9.06401ZM8.95401 7.019H6.68801C6.94101 7.624 7.31501 8.174 7.76601 8.636C8.26101 8.174 8.66801 7.635 8.95401 7.019ZM2.37601 8.427V9.307C3.00301 9.241 3.68501 9.175 4.36701 9.098V8.427H2.37601ZM2.37601 7.041V7.811H4.36701V7.041H2.37601ZM4.36701 5.688H2.37601V6.425H4.36701V5.688ZM9.46001 6.348L9.95501 6.546C9.61401 7.591 9.04201 8.449 8.33801 9.131C8.96501 9.615 9.71301 9.978 10.56 10.187C10.384 10.341 10.164 10.638 10.065 10.825C9.18501 10.572 8.41501 10.154 7.76601 9.615C7.09501 10.132 6.34701 10.506 5.57701 10.77C5.48901 10.583 5.29101 10.297 5.14801 10.154V10.836H4.36701V9.769C3.02501 9.934 1.68301 10.088 0.660007 10.209L0.583008 9.483C0.891008 9.461 1.24301 9.428 1.62801 9.384V5.688H0.682007V5.006H10.296V5.688H5.14801V10.143C5.87401 9.923 6.58901 9.571 7.21601 9.098C6.71001 8.548 6.30301 7.899 6.00601 7.162L6.47901 7.019H5.53301V6.37H9.31701L9.46001 6.348Z" fill="black"/>
<path d="M16.566 9.505H21.406V10.319H11.605V9.505H15.708V0.968996H16.566V4.335H20.658V5.149H16.566V9.505Z" fill="#262626"/>
<path d="M16.566 9.505H21.406V10.319H11.605V9.505H15.708V0.968996H16.566V4.335H20.658V5.149H16.566V9.505Z" fill="black"/>
<path d="M25.399 1.233L25.938 1.552C25.641 2.443 25.267 3.554 24.926 4.445C25.663 5.336 25.828 6.128 25.828 6.799C25.839 7.382 25.707 7.844 25.421 8.053C25.278 8.163 25.091 8.218 24.882 8.251C24.684 8.273 24.431 8.273 24.2 8.262C24.189 8.053 24.112 7.756 23.991 7.547C24.222 7.558 24.42 7.569 24.563 7.558C24.706 7.558 24.816 7.525 24.904 7.481C25.058 7.349 25.113 7.041 25.113 6.711C25.102 6.128 24.926 5.38 24.2 4.533C24.486 3.73 24.783 2.751 25.003 2.003H23.672V10.836H22.946V1.266H25.289L25.399 1.233ZM29.007 4.126L29.073 4.764C27.984 5.039 26.851 5.336 25.971 5.545L25.751 4.852C25.971 4.808 26.202 4.764 26.466 4.709V0.935996H27.203V2.256H28.908V2.927H27.203V4.544C27.775 4.412 28.391 4.269 29.007 4.126ZM31.174 7.976V6.931H27.412V7.976H31.174ZM27.412 9.714H31.174V8.614H27.412V9.714ZM28.644 5.127L29.458 5.303C29.337 5.622 29.205 5.952 29.084 6.238H31.966V10.77H31.174V10.407H27.412V10.814H26.664V6.238H28.303C28.435 5.875 28.578 5.446 28.644 5.127ZM30.481 4.676H31.548C31.812 4.676 31.878 4.544 31.9 3.642C32.065 3.763 32.362 3.884 32.582 3.939C32.494 5.072 32.285 5.358 31.625 5.358H30.393C29.568 5.358 29.381 5.16 29.381 4.346V0.935996H30.118V2.553C30.745 2.278 31.383 1.926 31.768 1.607L32.34 2.146C31.713 2.553 30.877 2.927 30.118 3.202V4.346C30.118 4.632 30.162 4.676 30.481 4.676Z" fill="#262626"/>
<path d="M25.399 1.233L25.938 1.552C25.641 2.443 25.267 3.554 24.926 4.445C25.663 5.336 25.828 6.128 25.828 6.799C25.839 7.382 25.707 7.844 25.421 8.053C25.278 8.163 25.091 8.218 24.882 8.251C24.684 8.273 24.431 8.273 24.2 8.262C24.189 8.053 24.112 7.756 23.991 7.547C24.222 7.558 24.42 7.569 24.563 7.558C24.706 7.558 24.816 7.525 24.904 7.481C25.058 7.349 25.113 7.041 25.113 6.711C25.102 6.128 24.926 5.38 24.2 4.533C24.486 3.73 24.783 2.751 25.003 2.003H23.672V10.836H22.946V1.266H25.289L25.399 1.233ZM29.007 4.126L29.073 4.764C27.984 5.039 26.851 5.336 25.971 5.545L25.751 4.852C25.971 4.808 26.202 4.764 26.466 4.709V0.935996H27.203V2.256H28.908V2.927H27.203V4.544C27.775 4.412 28.391 4.269 29.007 4.126ZM31.174 7.976V6.931H27.412V7.976H31.174ZM27.412 9.714H31.174V8.614H27.412V9.714ZM28.644 5.127L29.458 5.303C29.337 5.622 29.205 5.952 29.084 6.238H31.966V10.77H31.174V10.407H27.412V10.814H26.664V6.238H28.303C28.435 5.875 28.578 5.446 28.644 5.127ZM30.481 4.676H31.548C31.812 4.676 31.878 4.544 31.9 3.642C32.065 3.763 32.362 3.884 32.582 3.939C32.494 5.072 32.285 5.358 31.625 5.358H30.393C29.568 5.358 29.381 5.16 29.381 4.346V0.935996H30.118V2.553C30.745 2.278 31.383 1.926 31.768 1.607L32.34 2.146C31.713 2.553 30.877 2.927 30.118 3.202V4.346C30.118 4.632 30.162 4.676 30.481 4.676Z" fill="black"/>
<path d="M39.138 7.712H41.745V6.183H39.138V7.712ZM38.346 6.183H35.926C35.915 6.667 35.882 7.184 35.783 7.712H38.346V6.183ZM39.523 2.124H36.861C36.586 2.52 36.278 2.905 35.926 3.29H38.753C39.017 2.949 39.303 2.52 39.523 2.124ZM35.926 4.027V5.479H38.346V4.027H35.926ZM41.745 5.479V4.027H39.138V5.479H41.745ZM42.537 3.29V9.802C42.537 10.33 42.405 10.594 41.998 10.715C41.591 10.847 40.887 10.858 39.765 10.858C39.721 10.638 39.578 10.275 39.446 10.066C40.337 10.099 41.195 10.099 41.437 10.077C41.668 10.077 41.745 10.011 41.745 9.791V8.427H35.618C35.343 9.329 34.848 10.209 33.968 10.891C33.869 10.715 33.572 10.429 33.407 10.308C34.958 9.109 35.134 7.415 35.134 6.018V4.082C34.859 4.335 34.562 4.566 34.254 4.797C34.111 4.599 33.858 4.335 33.66 4.214C35.123 3.213 36.168 1.86 36.718 0.770996L37.609 0.924996C37.51 1.09 37.411 1.266 37.312 1.442H39.963L40.095 1.398L40.645 1.761C40.392 2.256 40.018 2.817 39.644 3.29H42.537Z" fill="#262626"/>
<path d="M39.138 7.712H41.745V6.183H39.138V7.712ZM38.346 6.183H35.926C35.915 6.667 35.882 7.184 35.783 7.712H38.346V6.183ZM39.523 2.124H36.861C36.586 2.52 36.278 2.905 35.926 3.29H38.753C39.017 2.949 39.303 2.52 39.523 2.124ZM35.926 4.027V5.479H38.346V4.027H35.926ZM41.745 5.479V4.027H39.138V5.479H41.745ZM42.537 3.29V9.802C42.537 10.33 42.405 10.594 41.998 10.715C41.591 10.847 40.887 10.858 39.765 10.858C39.721 10.638 39.578 10.275 39.446 10.066C40.337 10.099 41.195 10.099 41.437 10.077C41.668 10.077 41.745 10.011 41.745 9.791V8.427H35.618C35.343 9.329 34.848 10.209 33.968 10.891C33.869 10.715 33.572 10.429 33.407 10.308C34.958 9.109 35.134 7.415 35.134 6.018V4.082C34.859 4.335 34.562 4.566 34.254 4.797C34.111 4.599 33.858 4.335 33.66 4.214C35.123 3.213 36.168 1.86 36.718 0.770996L37.609 0.924996C37.51 1.09 37.411 1.266 37.312 1.442H39.963L40.095 1.398L40.645 1.761C40.392 2.256 40.018 2.817 39.644 3.29H42.537Z" fill="black"/>
<path d="M49.995 2.014V2.729H44.781V2.014H46.981V0.836996H47.762V2.014H49.995ZM48.642 4.929L47.982 4.764C48.191 4.258 48.466 3.444 48.598 2.894L49.368 3.081C49.137 3.719 48.873 4.445 48.642 4.929ZM46.64 4.731L45.936 4.896C45.881 4.412 45.683 3.675 45.452 3.114L46.134 2.971C46.387 3.51 46.585 4.258 46.64 4.731ZM48.741 7.459H45.991V9.483H48.741V7.459ZM45.232 10.847V6.733H49.533V10.781H48.741V10.198H45.991V10.847H45.232ZM44.495 5.776V5.028H50.149V5.776H44.495ZM53.955 1.409L54.549 1.794C54.098 2.828 53.537 4.093 53.02 5.094C54.12 6.106 54.395 6.975 54.406 7.756C54.406 8.427 54.252 8.933 53.867 9.186C53.669 9.318 53.438 9.395 53.152 9.428C52.877 9.461 52.514 9.461 52.195 9.45C52.184 9.219 52.107 8.867 51.964 8.636C52.305 8.669 52.602 8.669 52.833 8.658C52.998 8.647 53.174 8.614 53.306 8.537C53.537 8.394 53.603 8.064 53.603 7.668C53.603 6.975 53.295 6.161 52.184 5.204C52.635 4.28 53.119 3.092 53.46 2.212H51.381V10.836H50.589V1.442H53.823L53.955 1.409Z" fill="#262626"/>
<path d="M49.995 2.014V2.729H44.781V2.014H46.981V0.836996H47.762V2.014H49.995ZM48.642 4.929L47.982 4.764C48.191 4.258 48.466 3.444 48.598 2.894L49.368 3.081C49.137 3.719 48.873 4.445 48.642 4.929ZM46.64 4.731L45.936 4.896C45.881 4.412 45.683 3.675 45.452 3.114L46.134 2.971C46.387 3.51 46.585 4.258 46.64 4.731ZM48.741 7.459H45.991V9.483H48.741V7.459ZM45.232 10.847V6.733H49.533V10.781H48.741V10.198H45.991V10.847H45.232ZM44.495 5.776V5.028H50.149V5.776H44.495ZM53.955 1.409L54.549 1.794C54.098 2.828 53.537 4.093 53.02 5.094C54.12 6.106 54.395 6.975 54.406 7.756C54.406 8.427 54.252 8.933 53.867 9.186C53.669 9.318 53.438 9.395 53.152 9.428C52.877 9.461 52.514 9.461 52.195 9.45C52.184 9.219 52.107 8.867 51.964 8.636C52.305 8.669 52.602 8.669 52.833 8.658C52.998 8.647 53.174 8.614 53.306 8.537C53.537 8.394 53.603 8.064 53.603 7.668C53.603 6.975 53.295 6.161 52.184 5.204C52.635 4.28 53.119 3.092 53.46 2.212H51.381V10.836H50.589V1.442H53.823L53.955 1.409Z" fill="black"/>
<path d="M63.91 2.047H57.453V3.18H63.91V2.047ZM57.453 3.862V4.401C57.453 6.282 57.288 9.01 56.155 10.836C56.001 10.704 55.649 10.506 55.44 10.418C56.529 8.658 56.628 6.172 56.628 4.401V1.354H64.724V3.862H57.453ZM61.589 9.857H65.384V10.528H57.134V9.857H60.786V8.658H57.97V7.998H60.786V7.063C59.642 7.118 58.597 7.151 57.761 7.184L57.706 6.513L58.949 6.48C59.191 6.117 59.466 5.677 59.686 5.259H57.475V4.588H65.054V5.259H60.599C60.346 5.666 60.06 6.095 59.796 6.458C60.797 6.425 61.919 6.392 63.041 6.348C62.711 6.106 62.37 5.864 62.051 5.666L62.667 5.27C63.481 5.776 64.504 6.524 64.988 7.074L64.328 7.525C64.185 7.349 63.987 7.151 63.767 6.953L61.589 7.041V7.998H64.537V8.658H61.589V9.857Z" fill="#262626"/>
<path d="M63.91 2.047H57.453V3.18H63.91V2.047ZM57.453 3.862V4.401C57.453 6.282 57.288 9.01 56.155 10.836C56.001 10.704 55.649 10.506 55.44 10.418C56.529 8.658 56.628 6.172 56.628 4.401V1.354H64.724V3.862H57.453ZM61.589 9.857H65.384V10.528H57.134V9.857H60.786V8.658H57.97V7.998H60.786V7.063C59.642 7.118 58.597 7.151 57.761 7.184L57.706 6.513L58.949 6.48C59.191 6.117 59.466 5.677 59.686 5.259H57.475V4.588H65.054V5.259H60.599C60.346 5.666 60.06 6.095 59.796 6.458C60.797 6.425 61.919 6.392 63.041 6.348C62.711 6.106 62.37 5.864 62.051 5.666L62.667 5.27C63.481 5.776 64.504 6.524 64.988 7.074L64.328 7.525C64.185 7.349 63.987 7.151 63.767 6.953L61.589 7.041V7.998H64.537V8.658H61.589V9.857Z" fill="black"/>
<path d="M2.25501 21.58C2.25501 19.825 2.96601 18.394 4.04601 17.296L4.58601 17.575C3.55101 18.646 2.91201 19.978 2.91201 21.58C2.91201 23.182 3.55101 24.514 4.58601 25.585L4.04601 25.864C2.96601 24.766 2.25501 23.335 2.25501 21.58Z" fill="#262626"/>
<path d="M2.25501 21.58C2.25501 19.825 2.96601 18.394 4.04601 17.296L4.58601 17.575C3.55101 18.646 2.91201 19.978 2.91201 21.58C2.91201 23.182 3.55101 24.514 4.58601 25.585L4.04601 25.864C2.96601 24.766 2.25501 23.335 2.25501 21.58Z" fill="black"/>
<path d="M11.336 19.6C11.336 19.96 11.633 20.257 12.002 20.257C12.362 20.257 12.659 19.96 12.659 19.6C12.659 19.231 12.362 18.943 12.002 18.943C11.633 18.943 11.336 19.231 11.336 19.6ZM10.904 19.6C10.904 18.997 11.399 18.502 12.002 18.502C12.605 18.502 13.091 18.997 13.091 19.6C13.091 20.203 12.605 20.689 12.002 20.689C11.399 20.689 10.904 20.203 10.904 19.6ZM5.47701 22.633C5.71101 22.435 5.87301 22.273 6.11601 22.03C6.53901 21.598 7.32201 20.599 7.88901 19.933C8.37501 19.366 8.79801 19.267 9.41001 19.843C9.95901 20.365 10.724 21.166 11.255 21.733C11.858 22.372 12.758 23.353 13.451 24.091L12.83 24.748C12.191 23.974 11.399 23.056 10.823 22.399C10.301 21.805 9.46401 20.914 9.08601 20.545C8.73501 20.203 8.56401 20.239 8.25801 20.608C7.82601 21.139 7.07901 22.12 6.66501 22.624C6.48501 22.849 6.28701 23.128 6.15201 23.317L5.47701 22.633Z" fill="#262626"/>
<path d="M11.336 19.6C11.336 19.96 11.633 20.257 12.002 20.257C12.362 20.257 12.659 19.96 12.659 19.6C12.659 19.231 12.362 18.943 12.002 18.943C11.633 18.943 11.336 19.231 11.336 19.6ZM10.904 19.6C10.904 18.997 11.399 18.502 12.002 18.502C12.605 18.502 13.091 18.997 13.091 19.6C13.091 20.203 12.605 20.689 12.002 20.689C11.399 20.689 10.904 20.203 10.904 19.6ZM5.47701 22.633C5.71101 22.435 5.87301 22.273 6.11601 22.03C6.53901 21.598 7.32201 20.599 7.88901 19.933C8.37501 19.366 8.79801 19.267 9.41001 19.843C9.95901 20.365 10.724 21.166 11.255 21.733C11.858 22.372 12.758 23.353 13.451 24.091L12.83 24.748C12.191 23.974 11.399 23.056 10.823 22.399C10.301 21.805 9.46401 20.914 9.08601 20.545C8.73501 20.203 8.56401 20.239 8.25801 20.608C7.82601 21.139 7.07901 22.12 6.66501 22.624C6.48501 22.849 6.28701 23.128 6.15201 23.317L5.47701 22.633Z" fill="black"/>
<path d="M16.043 18.403C16.682 18.826 17.834 19.762 18.338 20.266L17.771 20.833C17.321 20.365 16.196 19.402 15.53 18.952L16.043 18.403ZM15.269 24.433C16.844 24.199 18.014 23.65 18.869 23.119C20.255 22.246 21.353 20.914 21.875 19.807L22.307 20.572C21.695 21.697 20.642 22.921 19.283 23.776C18.383 24.343 17.249 24.892 15.746 25.171L15.269 24.433Z" fill="#262626"/>
<path d="M16.043 18.403C16.682 18.826 17.834 19.762 18.338 20.266L17.771 20.833C17.321 20.365 16.196 19.402 15.53 18.952L16.043 18.403ZM15.269 24.433C16.844 24.199 18.014 23.65 18.869 23.119C20.255 22.246 21.353 20.914 21.875 19.807L22.307 20.572C21.695 21.697 20.642 22.921 19.283 23.776C18.383 24.343 17.249 24.892 15.746 25.171L15.269 24.433Z" fill="black"/>
<path d="M26.033 24.208V18.97C26.033 18.718 26.015 18.313 25.961 18.034H26.843C26.816 18.313 26.78 18.7 26.78 18.97C26.78 19.348 26.78 19.87 26.78 20.437C27.968 20.797 29.678 21.445 30.623 21.922L30.317 22.687C29.336 22.156 27.779 21.553 26.78 21.238C26.789 22.588 26.789 23.947 26.789 24.208C26.789 24.487 26.807 24.973 26.843 25.27H25.97C26.015 24.982 26.033 24.541 26.033 24.208Z" fill="#262626"/>
<path d="M26.033 24.208V18.97C26.033 18.718 26.015 18.313 25.961 18.034H26.843C26.816 18.313 26.78 18.7 26.78 18.97C26.78 19.348 26.78 19.87 26.78 20.437C27.968 20.797 29.678 21.445 30.623 21.922L30.317 22.687C29.336 22.156 27.779 21.553 26.78 21.238C26.789 22.588 26.789 23.947 26.789 24.208C26.789 24.487 26.807 24.973 26.843 25.27H25.97C26.015 24.982 26.033 24.541 26.033 24.208Z" fill="black"/>
<path d="M34.061 22.147C34.457 21.211 34.826 19.843 34.952 18.808L35.753 18.97C35.69 19.168 35.627 19.438 35.582 19.627C35.465 20.185 35.15 21.517 34.772 22.444C34.439 23.272 33.944 24.19 33.44 24.919L32.675 24.595C33.242 23.848 33.755 22.894 34.061 22.147ZM38.498 21.805C38.138 20.878 37.58 19.627 37.193 18.952L37.922 18.709C38.273 19.366 38.849 20.608 39.236 21.562C39.596 22.444 40.073 23.83 40.316 24.64L39.515 24.901C39.29 23.983 38.867 22.759 38.498 21.805Z" fill="#262626"/>
<path d="M34.061 22.147C34.457 21.211 34.826 19.843 34.952 18.808L35.753 18.97C35.69 19.168 35.627 19.438 35.582 19.627C35.465 20.185 35.15 21.517 34.772 22.444C34.439 23.272 33.944 24.19 33.44 24.919L32.675 24.595C33.242 23.848 33.755 22.894 34.061 22.147ZM38.498 21.805C38.138 20.878 37.58 19.627 37.193 18.952L37.922 18.709C38.273 19.366 38.849 20.608 39.236 21.562C39.596 22.444 40.073 23.83 40.316 24.64L39.515 24.901C39.29 23.983 38.867 22.759 38.498 21.805Z" fill="black"/>
<path d="M45.869 17.791C45.824 18.07 45.815 18.277 45.815 18.466V19.303H47.831C48.164 19.303 48.335 19.276 48.452 19.231L48.938 19.537C48.893 19.672 48.839 19.906 48.803 20.077C48.686 20.797 48.425 21.922 47.921 22.786C47.246 23.965 46.004 24.883 44.357 25.333L43.772 24.658C44.078 24.613 44.42 24.514 44.708 24.406C45.608 24.118 46.598 23.443 47.147 22.597C47.633 21.832 47.921 20.743 48.002 19.969H42.971V21.58C42.971 21.742 42.98 21.976 43.007 22.12H42.224C42.242 21.958 42.251 21.715 42.251 21.544V19.96C42.251 19.771 42.251 19.465 42.224 19.267C42.485 19.294 42.746 19.303 43.061 19.303H45.05V18.466C45.05 18.277 45.041 18.07 45.005 17.791H45.869Z" fill="#262626"/>
<path d="M45.869 17.791C45.824 18.07 45.815 18.277 45.815 18.466V19.303H47.831C48.164 19.303 48.335 19.276 48.452 19.231L48.938 19.537C48.893 19.672 48.839 19.906 48.803 20.077C48.686 20.797 48.425 21.922 47.921 22.786C47.246 23.965 46.004 24.883 44.357 25.333L43.772 24.658C44.078 24.613 44.42 24.514 44.708 24.406C45.608 24.118 46.598 23.443 47.147 22.597C47.633 21.832 47.921 20.743 48.002 19.969H42.971V21.58C42.971 21.742 42.98 21.976 43.007 22.12H42.224C42.242 21.958 42.251 21.715 42.251 21.544V19.96C42.251 19.771 42.251 19.465 42.224 19.267C42.485 19.294 42.746 19.303 43.061 19.303H45.05V18.466C45.05 18.277 45.041 18.07 45.005 17.791H45.869Z" fill="black"/>
<path d="M57.2 18.979C57.146 19.051 57.029 19.249 56.975 19.375C56.669 20.149 56.102 21.202 55.463 22.012C56.408 22.822 57.506 23.992 58.091 24.703L57.461 25.243C56.858 24.451 55.904 23.389 54.986 22.57C54.023 23.605 52.808 24.595 51.476 25.198L50.9 24.595C52.349 24.028 53.681 22.957 54.608 21.922C55.22 21.229 55.877 20.167 56.102 19.42H52.592C52.277 19.42 51.782 19.456 51.683 19.465V18.646C51.809 18.664 52.322 18.7 52.592 18.7H56.066C56.363 18.7 56.597 18.673 56.741 18.628L57.2 18.979Z" fill="#262626"/>
<path d="M57.2 18.979C57.146 19.051 57.029 19.249 56.975 19.375C56.669 20.149 56.102 21.202 55.463 22.012C56.408 22.822 57.506 23.992 58.091 24.703L57.461 25.243C56.858 24.451 55.904 23.389 54.986 22.57C54.023 23.605 52.808 24.595 51.476 25.198L50.9 24.595C52.349 24.028 53.681 22.957 54.608 21.922C55.22 21.229 55.877 20.167 56.102 19.42H52.592C52.277 19.42 51.782 19.456 51.683 19.465V18.646C51.809 18.664 52.322 18.7 52.592 18.7H56.066C56.363 18.7 56.597 18.673 56.741 18.628L57.2 18.979Z" fill="black"/>
<path d="M62.355 20.82C62.355 22.965 61.486 24.714 60.166 26.056L59.506 25.715C60.771 24.406 61.552 22.778 61.552 20.82C61.552 18.862 60.771 17.234 59.506 15.925L60.166 15.584C61.486 16.926 62.355 18.675 62.355 20.82Z" fill="#262626"/>
<path d="M62.355 20.82C62.355 22.965 61.486 24.714 60.166 26.056L59.506 25.715C60.771 24.406 61.552 22.778 61.552 20.82C61.552 18.862 60.771 17.234 59.506 15.925L60.166 15.584C61.486 16.926 62.355 18.675 62.355 20.82Z" fill="black"/>
</svg>
