<svg width="77" height="11" viewBox="0 0 77 11" fill="none" xmlns="http://www.w3.org/2000/svg">
<path d="M3.78898 0.979985L4.50398 1.35399C4.18498 1.91499 3.76698 2.47599 3.31598 2.99299C3.89898 4.18099 3.99798 5.43499 3.99798 6.72199C3.99798 8.31699 3.87698 9.79099 3.42598 10.407C3.28298 10.583 3.06298 10.715 2.79898 10.759C2.41398 10.836 1.97398 10.836 1.52298 10.814C1.51198 10.55 1.42398 10.253 1.29198 10.022C1.80898 10.066 2.22698 10.055 2.47998 10.033C2.64498 10.011 2.74398 9.95599 2.84298 9.83499C3.10698 9.47199 3.21698 8.15199 3.21698 6.71099V6.34799C2.69998 7.08499 2.05098 7.78899 1.46798 8.26199C1.32498 8.06399 1.10498 7.78899 0.906982 7.64599C1.72098 7.11799 2.61198 6.09499 3.12898 5.13799C3.06298 4.60999 2.94198 4.10399 2.74398 3.61999C2.35898 4.00499 1.94098 4.37899 1.52298 4.69799C1.39098 4.53299 1.13798 4.31299 0.961983 4.18099C1.45698 3.82899 1.94098 3.36699 2.40298 2.89399C2.09498 2.37699 1.68798 1.88199 1.13798 1.40899L1.70998 0.968985C2.20498 1.39798 2.60098 1.83799 2.90898 2.28899C3.26098 1.84899 3.56898 1.40899 3.78898 0.979985ZM5.58198 6.28199H7.18798V3.67498H5.58198V6.28199ZM9.59698 3.67498H8.00198V6.28199H9.59698V3.67498ZM11.06 10.506L10.246 10.792C10.18 10.528 10.07 10.22 9.93798 9.86799C7.92498 10.121 5.84598 10.352 4.37198 10.506L4.21798 9.65899C5.00998 9.59299 6.04398 9.48299 7.18798 9.36199V6.99699H4.78998V2.94899H7.18798V0.825985H8.00198V2.94899H10.422V6.99699H8.00198V9.27399L9.62998 9.10899C9.40998 8.61399 9.17898 8.09699 8.95898 7.64599L9.71798 7.42599C10.213 8.40499 10.807 9.72499 11.06 10.506Z" fill="#262626"/>
<path d="M3.78898 0.979985L4.50398 1.35399C4.18498 1.91499 3.76698 2.47599 3.31598 2.99299C3.89898 4.18099 3.99798 5.43499 3.99798 6.72199C3.99798 8.31699 3.87698 9.79099 3.42598 10.407C3.28298 10.583 3.06298 10.715 2.79898 10.759C2.41398 10.836 1.97398 10.836 1.52298 10.814C1.51198 10.55 1.42398 10.253 1.29198 10.022C1.80898 10.066 2.22698 10.055 2.47998 10.033C2.64498 10.011 2.74398 9.95599 2.84298 9.83499C3.10698 9.47199 3.21698 8.15199 3.21698 6.71099V6.34799C2.69998 7.08499 2.05098 7.78899 1.46798 8.26199C1.32498 8.06399 1.10498 7.78899 0.906982 7.64599C1.72098 7.11799 2.61198 6.09499 3.12898 5.13799C3.06298 4.60999 2.94198 4.10399 2.74398 3.61999C2.35898 4.00499 1.94098 4.37899 1.52298 4.69799C1.39098 4.53299 1.13798 4.31299 0.961983 4.18099C1.45698 3.82899 1.94098 3.36699 2.40298 2.89399C2.09498 2.37699 1.68798 1.88199 1.13798 1.40899L1.70998 0.968985C2.20498 1.39798 2.60098 1.83799 2.90898 2.28899C3.26098 1.84899 3.56898 1.40899 3.78898 0.979985ZM5.58198 6.28199H7.18798V3.67498H5.58198V6.28199ZM9.59698 3.67498H8.00198V6.28199H9.59698V3.67498ZM11.06 10.506L10.246 10.792C10.18 10.528 10.07 10.22 9.93798 9.86799C7.92498 10.121 5.84598 10.352 4.37198 10.506L4.21798 9.65899C5.00998 9.59299 6.04398 9.48299 7.18798 9.36199V6.99699H4.78998V2.94899H7.18798V0.825985H8.00198V2.94899H10.422V6.99699H8.00198V9.27399L9.62998 9.10899C9.40998 8.61399 9.17898 8.09699 8.95898 7.64599L9.71798 7.42599C10.213 8.40499 10.807 9.72499 11.06 10.506Z" fill="black"/>
<path d="M21.587 2.94899V3.74099H12.479V2.94899H16.56V0.803986H17.396V2.94899H21.587ZM15.79 8.81199L14.965 9.00999C14.91 7.79999 14.492 5.94099 13.953 4.52199L14.712 4.32399C15.295 5.76499 15.702 7.57999 15.79 8.81199ZM18.518 9.55999H21.906V10.363H12.116V9.55999H17.671C18.221 8.15199 18.837 5.87498 19.156 4.25799L20.08 4.43399C19.662 6.10599 19.046 8.17399 18.518 9.55999Z" fill="#262626"/>
<path d="M21.587 2.94899V3.74099H12.479V2.94899H16.56V0.803986H17.396V2.94899H21.587ZM15.79 8.81199L14.965 9.00999C14.91 7.79999 14.492 5.94099 13.953 4.52199L14.712 4.32399C15.295 5.76499 15.702 7.57999 15.79 8.81199ZM18.518 9.55999H21.906V10.363H12.116V9.55999H17.671C18.221 8.15199 18.837 5.87498 19.156 4.25799L20.08 4.43399C19.662 6.10599 19.046 8.17399 18.518 9.55999Z" fill="black"/>
<path d="M32.29 0.869985V5.76499C32.29 6.21599 32.202 6.42499 31.872 6.55699C31.542 6.67799 31.014 6.68899 30.233 6.68899C30.2 6.46899 30.079 6.16099 29.958 5.94099C30.585 5.96299 31.135 5.96299 31.3 5.94099C31.465 5.94099 31.509 5.89699 31.509 5.74299V0.869985H32.29ZM30.233 1.41999V5.08299H29.474V1.41999H30.233ZM25.426 3.41098V3.47698H26.779V1.96999H25.426V3.41098ZM26.779 4.20299H25.371C25.239 5.14899 24.832 6.12799 23.721 6.83199C23.611 6.67799 23.336 6.38099 23.182 6.25999C24.139 5.67699 24.48 4.93999 24.612 4.20299H23.281V3.47698H24.667V3.38899V1.96999H23.644V1.24399H28.572V1.96999H27.549V3.47698H28.792V4.20299H27.549V6.55699H26.779V4.20299ZM28.473 9.70299H32.939V10.473H23.061V9.70299H27.648V8.31699H24.194V7.56899H27.648V6.33699H28.473V7.56899H31.795V8.31699H28.473V9.70299Z" fill="#262626"/>
<path d="M32.29 0.869985V5.76499C32.29 6.21599 32.202 6.42499 31.872 6.55699C31.542 6.67799 31.014 6.68899 30.233 6.68899C30.2 6.46899 30.079 6.16099 29.958 5.94099C30.585 5.96299 31.135 5.96299 31.3 5.94099C31.465 5.94099 31.509 5.89699 31.509 5.74299V0.869985H32.29ZM30.233 1.41999V5.08299H29.474V1.41999H30.233ZM25.426 3.41098V3.47698H26.779V1.96999H25.426V3.41098ZM26.779 4.20299H25.371C25.239 5.14899 24.832 6.12799 23.721 6.83199C23.611 6.67799 23.336 6.38099 23.182 6.25999C24.139 5.67699 24.48 4.93999 24.612 4.20299H23.281V3.47698H24.667V3.38899V1.96999H23.644V1.24399H28.572V1.96999H27.549V3.47698H28.792V4.20299H27.549V6.55699H26.779V4.20299ZM28.473 9.70299H32.939V10.473H23.061V9.70299H27.648V8.31699H24.194V7.56899H27.648V6.33699H28.473V7.56899H31.795V8.31699H28.473V9.70299Z" fill="black"/>
<path d="M37.812 2.22299C37.757 1.93699 37.68 1.69498 37.603 1.47499L38.593 1.29899C38.604 1.50799 38.659 1.81599 38.692 2.05799C38.714 2.17899 38.791 2.62999 38.923 3.24599C39.99 3.06998 41.002 2.90499 41.464 2.81699C41.783 2.76199 42.058 2.68499 42.245 2.62999L42.432 3.55399C42.267 3.57599 41.926 3.61999 41.64 3.66399C41.134 3.74099 40.133 3.90598 39.077 4.07098C39.22 4.75298 39.374 5.53399 39.517 6.27099C40.628 6.09499 41.673 5.90799 42.223 5.80899C42.652 5.73199 42.96 5.66599 43.202 5.59999L43.378 6.52399C43.147 6.54599 42.795 6.60099 42.388 6.66699C41.783 6.76599 40.76 6.93099 39.682 7.09599C39.902 8.17399 40.078 9.05399 40.133 9.30699C40.21 9.62599 40.298 9.99999 40.397 10.308L39.396 10.495C39.341 10.121 39.308 9.79099 39.231 9.46099C39.187 9.21899 39.011 8.32799 38.802 7.23899C37.559 7.44799 36.382 7.64599 35.843 7.74499C35.414 7.82199 35.106 7.87699 34.875 7.94299L34.677 6.98599C34.93 6.97499 35.359 6.93099 35.645 6.88699C36.195 6.80999 37.394 6.62299 38.648 6.42499C38.494 5.67699 38.34 4.89599 38.208 4.21399C37.163 4.37899 36.206 4.53299 35.788 4.60999C35.48 4.66499 35.227 4.71999 34.897 4.79699L34.71 3.80699C34.985 3.79599 35.271 3.77399 35.623 3.72999C36.052 3.68599 37.009 3.54299 38.043 3.37799C37.922 2.78399 37.845 2.35498 37.812 2.22299Z" fill="#262626"/>
<path d="M37.812 2.22299C37.757 1.93699 37.68 1.69498 37.603 1.47499L38.593 1.29899C38.604 1.50799 38.659 1.81599 38.692 2.05799C38.714 2.17899 38.791 2.62999 38.923 3.24599C39.99 3.06998 41.002 2.90499 41.464 2.81699C41.783 2.76199 42.058 2.68499 42.245 2.62999L42.432 3.55399C42.267 3.57599 41.926 3.61999 41.64 3.66399C41.134 3.74099 40.133 3.90598 39.077 4.07098C39.22 4.75298 39.374 5.53399 39.517 6.27099C40.628 6.09499 41.673 5.90799 42.223 5.80899C42.652 5.73199 42.96 5.66599 43.202 5.59999L43.378 6.52399C43.147 6.54599 42.795 6.60099 42.388 6.66699C41.783 6.76599 40.76 6.93099 39.682 7.09599C39.902 8.17399 40.078 9.05399 40.133 9.30699C40.21 9.62599 40.298 9.99999 40.397 10.308L39.396 10.495C39.341 10.121 39.308 9.79099 39.231 9.46099C39.187 9.21899 39.011 8.32799 38.802 7.23899C37.559 7.44799 36.382 7.64599 35.843 7.74499C35.414 7.82199 35.106 7.87699 34.875 7.94299L34.677 6.98599C34.93 6.97499 35.359 6.93099 35.645 6.88699C36.195 6.80999 37.394 6.62299 38.648 6.42499C38.494 5.67699 38.34 4.89599 38.208 4.21399C37.163 4.37899 36.206 4.53299 35.788 4.60999C35.48 4.66499 35.227 4.71999 34.897 4.79699L34.71 3.80699C34.985 3.79599 35.271 3.77399 35.623 3.72999C36.052 3.68599 37.009 3.54299 38.043 3.37799C37.922 2.78399 37.845 2.35498 37.812 2.22299Z" fill="black"/>
<path d="M49.813 3.66399C50 4.10399 50.539 5.55599 50.682 6.03999L49.868 6.32599C49.747 5.83099 49.241 4.43399 49.01 3.93899L49.813 3.66399ZM53.795 4.27999C53.718 4.51099 53.674 4.68699 53.63 4.82999C53.333 6.03999 52.86 7.21699 52.068 8.20699C51.056 9.50499 49.714 10.352 48.482 10.825L47.756 10.088C49.032 9.71399 50.429 8.87799 51.331 7.74499C52.112 6.78799 52.684 5.39099 52.849 3.98299L53.795 4.27999ZM47.261 4.21399C47.481 4.68699 48.053 6.12799 48.262 6.69999L47.426 7.00799C47.261 6.43599 46.667 4.91799 46.447 4.53299L47.261 4.21399Z" fill="#262626"/>
<path d="M49.813 3.66399C50 4.10399 50.539 5.55599 50.682 6.03999L49.868 6.32599C49.747 5.83099 49.241 4.43399 49.01 3.93899L49.813 3.66399ZM53.795 4.27999C53.718 4.51099 53.674 4.68699 53.63 4.82999C53.333 6.03999 52.86 7.21699 52.068 8.20699C51.056 9.50499 49.714 10.352 48.482 10.825L47.756 10.088C49.032 9.71399 50.429 8.87799 51.331 7.74499C52.112 6.78799 52.684 5.39099 52.849 3.98299L53.795 4.27999ZM47.261 4.21399C47.481 4.68699 48.053 6.12799 48.262 6.69999L47.426 7.00799C47.261 6.43599 46.667 4.91799 46.447 4.53299L47.261 4.21399Z" fill="black"/>
<path d="M57.326 2.35499C58.162 2.38799 59.834 2.34399 61.022 2.18999C62.023 2.04699 63.321 1.78299 63.86 1.55199L64.443 2.31098C64.201 2.37699 63.981 2.43199 63.827 2.47599C63.277 2.61899 62.43 2.78399 61.638 2.90499V5.01699H64.674C64.916 5.01699 65.312 4.99499 65.543 4.97299V5.88599C65.301 5.86399 64.971 5.84199 64.696 5.84199H61.627C61.506 7.89899 60.703 9.35099 58.811 10.451L57.942 9.84599C59.68 9.04299 60.593 7.81099 60.725 5.84199H57.458C57.106 5.84199 56.732 5.86399 56.468 5.88599V4.97299C56.721 4.99499 57.106 5.01699 57.436 5.01699H60.747V3.01499C59.636 3.12499 58.393 3.15799 57.546 3.16899L57.326 2.35499Z" fill="#262626"/>
<path d="M57.326 2.35499C58.162 2.38799 59.834 2.34399 61.022 2.18999C62.023 2.04699 63.321 1.78299 63.86 1.55199L64.443 2.31098C64.201 2.37699 63.981 2.43199 63.827 2.47599C63.277 2.61899 62.43 2.78399 61.638 2.90499V5.01699H64.674C64.916 5.01699 65.312 4.99499 65.543 4.97299V5.88599C65.301 5.86399 64.971 5.84199 64.696 5.84199H61.627C61.506 7.89899 60.703 9.35099 58.811 10.451L57.942 9.84599C59.68 9.04299 60.593 7.81099 60.725 5.84199H57.458C57.106 5.84199 56.732 5.86399 56.468 5.88599V4.97299C56.721 4.99499 57.106 5.01699 57.436 5.01699H60.747V3.01499C59.636 3.12499 58.393 3.15799 57.546 3.16899L57.326 2.35499Z" fill="black"/>
<path d="M68.997 1.93699C69.778 2.45398 71.186 3.59799 71.802 4.21399L71.109 4.90699C70.559 4.33499 69.184 3.15799 68.37 2.60799L68.997 1.93699ZM68.051 9.30699C69.976 9.02099 71.406 8.34999 72.451 7.70099C74.145 6.63399 75.487 5.00599 76.125 3.65299L76.653 4.58799C75.905 5.96299 74.618 7.45899 72.957 8.50399C71.857 9.19699 70.471 9.86799 68.634 10.209L68.051 9.30699Z" fill="#262626"/>
<path d="M68.997 1.93699C69.778 2.45398 71.186 3.59799 71.802 4.21399L71.109 4.90699C70.559 4.33499 69.184 3.15799 68.37 2.60799L68.997 1.93699ZM68.051 9.30699C69.976 9.02099 71.406 8.34999 72.451 7.70099C74.145 6.63399 75.487 5.00599 76.125 3.65299L76.653 4.58799C75.905 5.96299 74.618 7.45899 72.957 8.50399C71.857 9.19699 70.471 9.86799 68.634 10.209L68.051 9.30699Z" fill="black"/>
</svg>
