<svg width="33" height="11" viewBox="0 0 33 11" fill="none" xmlns="http://www.w3.org/2000/svg">
<path d="M6.63798 7.712H9.24498V6.183H6.63798V7.712ZM5.84598 6.183H3.42598C3.41498 6.667 3.38198 7.184 3.28298 7.712H5.84598V6.183ZM7.02298 2.124H4.36098C4.08598 2.52 3.77798 2.905 3.42598 3.29H6.25298C6.51698 2.949 6.80298 2.52 7.02298 2.124ZM3.42598 4.027V5.479H5.84598V4.027H3.42598ZM9.24498 5.479V4.027H6.63798V5.479H9.24498ZM10.037 3.29V9.802C10.037 10.33 9.90498 10.594 9.49798 10.715C9.09098 10.847 8.38698 10.858 7.26498 10.858C7.22098 10.638 7.07798 10.275 6.94598 10.066C7.83698 10.099 8.69498 10.099 8.93698 10.077C9.16798 10.077 9.24498 10.011 9.24498 9.791V8.427H3.11798C2.84298 9.329 2.34798 10.209 1.46798 10.891C1.36898 10.715 1.07198 10.429 0.906982 10.308C2.45798 9.109 2.63398 7.415 2.63398 6.018V4.082C2.35898 4.335 2.06198 4.566 1.75398 4.797C1.61098 4.599 1.35798 4.335 1.15998 4.214C2.62298 3.213 3.66798 1.86 4.21798 0.770996L5.10898 0.924996C5.00998 1.09 4.91098 1.266 4.81198 1.442H7.46298L7.59498 1.398L8.14498 1.761C7.89198 2.256 7.51798 2.817 7.14398 3.29H10.037Z" fill="#262626"/>
<path d="M6.63798 7.712H9.24498V6.183H6.63798V7.712ZM5.84598 6.183H3.42598C3.41498 6.667 3.38198 7.184 3.28298 7.712H5.84598V6.183ZM7.02298 2.124H4.36098C4.08598 2.52 3.77798 2.905 3.42598 3.29H6.25298C6.51698 2.949 6.80298 2.52 7.02298 2.124ZM3.42598 4.027V5.479H5.84598V4.027H3.42598ZM9.24498 5.479V4.027H6.63798V5.479H9.24498ZM10.037 3.29V9.802C10.037 10.33 9.90498 10.594 9.49798 10.715C9.09098 10.847 8.38698 10.858 7.26498 10.858C7.22098 10.638 7.07798 10.275 6.94598 10.066C7.83698 10.099 8.69498 10.099 8.93698 10.077C9.16798 10.077 9.24498 10.011 9.24498 9.791V8.427H3.11798C2.84298 9.329 2.34798 10.209 1.46798 10.891C1.36898 10.715 1.07198 10.429 0.906982 10.308C2.45798 9.109 2.63398 7.415 2.63398 6.018V4.082C2.35898 4.335 2.06198 4.566 1.75398 4.797C1.61098 4.599 1.35798 4.335 1.15998 4.214C2.62298 3.213 3.66798 1.86 4.21798 0.770996L5.10898 0.924996C5.00998 1.09 4.91098 1.266 4.81198 1.442H7.46298L7.59498 1.398L8.14498 1.761C7.89198 2.256 7.51798 2.817 7.14398 3.29H10.037Z" fill="black"/>
<path d="M17.495 2.014V2.729H12.281V2.014H14.481V0.836996H15.262V2.014H17.495ZM16.142 4.929L15.482 4.764C15.691 4.258 15.966 3.444 16.098 2.894L16.868 3.081C16.637 3.719 16.373 4.445 16.142 4.929ZM14.14 4.731L13.436 4.896C13.381 4.412 13.183 3.675 12.952 3.114L13.634 2.971C13.887 3.51 14.085 4.258 14.14 4.731ZM16.241 7.459H13.491V9.483H16.241V7.459ZM12.732 10.847V6.733H17.033V10.781H16.241V10.198H13.491V10.847H12.732ZM11.995 5.776V5.028H17.649V5.776H11.995ZM21.455 1.409L22.049 1.794C21.598 2.828 21.037 4.093 20.52 5.094C21.62 6.106 21.895 6.975 21.906 7.756C21.906 8.427 21.752 8.933 21.367 9.186C21.169 9.318 20.938 9.395 20.652 9.428C20.377 9.461 20.014 9.461 19.695 9.45C19.684 9.219 19.607 8.867 19.464 8.636C19.805 8.669 20.102 8.669 20.333 8.658C20.498 8.647 20.674 8.614 20.806 8.537C21.037 8.394 21.103 8.064 21.103 7.668C21.103 6.975 20.795 6.161 19.684 5.204C20.135 4.28 20.619 3.092 20.96 2.212H18.881V10.836H18.089V1.442H21.323L21.455 1.409Z" fill="#262626"/>
<path d="M17.495 2.014V2.729H12.281V2.014H14.481V0.836996H15.262V2.014H17.495ZM16.142 4.929L15.482 4.764C15.691 4.258 15.966 3.444 16.098 2.894L16.868 3.081C16.637 3.719 16.373 4.445 16.142 4.929ZM14.14 4.731L13.436 4.896C13.381 4.412 13.183 3.675 12.952 3.114L13.634 2.971C13.887 3.51 14.085 4.258 14.14 4.731ZM16.241 7.459H13.491V9.483H16.241V7.459ZM12.732 10.847V6.733H17.033V10.781H16.241V10.198H13.491V10.847H12.732ZM11.995 5.776V5.028H17.649V5.776H11.995ZM21.455 1.409L22.049 1.794C21.598 2.828 21.037 4.093 20.52 5.094C21.62 6.106 21.895 6.975 21.906 7.756C21.906 8.427 21.752 8.933 21.367 9.186C21.169 9.318 20.938 9.395 20.652 9.428C20.377 9.461 20.014 9.461 19.695 9.45C19.684 9.219 19.607 8.867 19.464 8.636C19.805 8.669 20.102 8.669 20.333 8.658C20.498 8.647 20.674 8.614 20.806 8.537C21.037 8.394 21.103 8.064 21.103 7.668C21.103 6.975 20.795 6.161 19.684 5.204C20.135 4.28 20.619 3.092 20.96 2.212H18.881V10.836H18.089V1.442H21.323L21.455 1.409Z" fill="black"/>
<path d="M31.41 2.047H24.953V3.18H31.41V2.047ZM24.953 3.862V4.401C24.953 6.282 24.788 9.01 23.655 10.836C23.501 10.704 23.149 10.506 22.94 10.418C24.029 8.658 24.128 6.172 24.128 4.401V1.354H32.224V3.862H24.953ZM29.089 9.857H32.884V10.528H24.634V9.857H28.286V8.658H25.47V7.998H28.286V7.063C27.142 7.118 26.097 7.151 25.261 7.184L25.206 6.513L26.449 6.48C26.691 6.117 26.966 5.677 27.186 5.259H24.975V4.588H32.554V5.259H28.099C27.846 5.666 27.56 6.095 27.296 6.458C28.297 6.425 29.419 6.392 30.541 6.348C30.211 6.106 29.87 5.864 29.551 5.666L30.167 5.27C30.981 5.776 32.004 6.524 32.488 7.074L31.828 7.525C31.685 7.349 31.487 7.151 31.267 6.953L29.089 7.041V7.998H32.037V8.658H29.089V9.857Z" fill="#262626"/>
<path d="M31.41 2.047H24.953V3.18H31.41V2.047ZM24.953 3.862V4.401C24.953 6.282 24.788 9.01 23.655 10.836C23.501 10.704 23.149 10.506 22.94 10.418C24.029 8.658 24.128 6.172 24.128 4.401V1.354H32.224V3.862H24.953ZM29.089 9.857H32.884V10.528H24.634V9.857H28.286V8.658H25.47V7.998H28.286V7.063C27.142 7.118 26.097 7.151 25.261 7.184L25.206 6.513L26.449 6.48C26.691 6.117 26.966 5.677 27.186 5.259H24.975V4.588H32.554V5.259H28.099C27.846 5.666 27.56 6.095 27.296 6.458C28.297 6.425 29.419 6.392 30.541 6.348C30.211 6.106 29.87 5.864 29.551 5.666L30.167 5.27C30.981 5.776 32.004 6.524 32.488 7.074L31.828 7.525C31.685 7.349 31.487 7.151 31.267 6.953L29.089 7.041V7.998H32.037V8.658H29.089V9.857Z" fill="black"/>
</svg>
