<svg width="65" height="11" viewBox="0 0 65 11" fill="none" xmlns="http://www.w3.org/2000/svg">
<path d="M3.21301 1.904H0.837009V2.817H3.21301V1.904ZM0.837009 4.39H3.21301V3.422H0.837009V4.39ZM3.99401 5.017H0.837009V10.847H0.0230103V1.266H3.99401V5.017ZM7.38201 6.876H5.17101C5.72101 7.844 6.61201 8.724 7.51401 9.164C7.34901 9.318 7.10701 9.582 6.98601 9.769C6.16101 9.274 5.36901 8.394 4.80801 7.426V10.528H4.08201V7.536C3.51001 8.504 2.71801 9.362 1.90401 9.868C1.78301 9.681 1.55201 9.428 1.38701 9.285C2.30001 8.812 3.18001 7.877 3.74101 6.876H1.64001V6.194H4.08201V5.182H4.80801V6.194H7.38201V6.876ZM5.75401 4.401H8.21801V3.422H5.75401V4.401ZM8.21801 1.904H5.75401V2.817H8.21801V1.904ZM9.04301 1.266V9.736C9.04301 10.286 8.91101 10.55 8.53701 10.693C8.17401 10.825 7.54701 10.836 6.57901 10.836C6.54601 10.605 6.41401 10.22 6.29301 10C7.01901 10.033 7.73401 10.022 7.95401 10.011C8.15201 10.011 8.21801 9.945 8.21801 9.736V5.028H4.97301V1.266H9.04301Z" fill="#262626"/>
<path d="M3.21301 1.904H0.837009V2.817H3.21301V1.904ZM0.837009 4.39H3.21301V3.422H0.837009V4.39ZM3.99401 5.017H0.837009V10.847H0.0230103V1.266H3.99401V5.017ZM7.38201 6.876H5.17101C5.72101 7.844 6.61201 8.724 7.51401 9.164C7.34901 9.318 7.10701 9.582 6.98601 9.769C6.16101 9.274 5.36901 8.394 4.80801 7.426V10.528H4.08201V7.536C3.51001 8.504 2.71801 9.362 1.90401 9.868C1.78301 9.681 1.55201 9.428 1.38701 9.285C2.30001 8.812 3.18001 7.877 3.74101 6.876H1.64001V6.194H4.08201V5.182H4.80801V6.194H7.38201V6.876ZM5.75401 4.401H8.21801V3.422H5.75401V4.401ZM8.21801 1.904H5.75401V2.817H8.21801V1.904ZM9.04301 1.266V9.736C9.04301 10.286 8.91101 10.55 8.53701 10.693C8.17401 10.825 7.54701 10.836 6.57901 10.836C6.54601 10.605 6.41401 10.22 6.29301 10C7.01901 10.033 7.73401 10.022 7.95401 10.011C8.15201 10.011 8.21801 9.945 8.21801 9.736V5.028H4.97301V1.266H9.04301Z" fill="black"/>
<path d="M15.324 4.335V4.962H10.484V4.335H12.541V3.642H10.902V3.048H12.541V2.388H10.693V1.772H12.541V0.792996H13.311V1.772H15.203V2.388H13.311V3.048H14.994V3.642H13.311V4.335H15.324ZM11.859 8.372H14.059V7.569H11.859V8.372ZM14.059 6.227H11.859V6.986H14.059V6.227ZM14.785 5.6V10.022C14.785 10.385 14.708 10.594 14.455 10.715C14.18 10.825 13.795 10.836 13.124 10.836C13.091 10.649 12.981 10.352 12.882 10.176H13.883C14.015 10.176 14.059 10.143 14.059 10.011V8.955H11.859V10.836H11.133V5.6H14.785ZM19.185 7.503V6.282H17.92V7.503H19.185ZM17.92 4.401V5.589H19.185V4.401H17.92ZM18.338 2.465H16.809C16.545 2.927 16.248 3.356 15.94 3.719H17.535C17.821 3.356 18.107 2.883 18.338 2.465ZM20.615 5.589V6.282H19.933V8.614H19.185V8.185H17.92V9.901C17.92 10.33 17.821 10.561 17.524 10.693C17.238 10.814 16.765 10.825 16.017 10.825C15.973 10.627 15.863 10.297 15.753 10.077C16.303 10.099 16.809 10.099 16.952 10.099C17.106 10.088 17.15 10.044 17.15 9.89V8.185H15.632V7.503H17.15V6.282H15.159V5.589H17.15V4.401H15.698V3.994L15.61 4.082C15.478 3.95 15.181 3.719 15.005 3.609C15.753 2.916 16.413 1.86 16.809 0.792996L17.524 0.968996C17.414 1.255 17.293 1.541 17.161 1.816H18.734L18.855 1.783L19.35 2.102C19.097 2.63 18.712 3.224 18.338 3.719H19.933V5.589H20.615Z" fill="#262626"/>
<path d="M15.324 4.335V4.962H10.484V4.335H12.541V3.642H10.902V3.048H12.541V2.388H10.693V1.772H12.541V0.792996H13.311V1.772H15.203V2.388H13.311V3.048H14.994V3.642H13.311V4.335H15.324ZM11.859 8.372H14.059V7.569H11.859V8.372ZM14.059 6.227H11.859V6.986H14.059V6.227ZM14.785 5.6V10.022C14.785 10.385 14.708 10.594 14.455 10.715C14.18 10.825 13.795 10.836 13.124 10.836C13.091 10.649 12.981 10.352 12.882 10.176H13.883C14.015 10.176 14.059 10.143 14.059 10.011V8.955H11.859V10.836H11.133V5.6H14.785ZM19.185 7.503V6.282H17.92V7.503H19.185ZM17.92 4.401V5.589H19.185V4.401H17.92ZM18.338 2.465H16.809C16.545 2.927 16.248 3.356 15.94 3.719H17.535C17.821 3.356 18.107 2.883 18.338 2.465ZM20.615 5.589V6.282H19.933V8.614H19.185V8.185H17.92V9.901C17.92 10.33 17.821 10.561 17.524 10.693C17.238 10.814 16.765 10.825 16.017 10.825C15.973 10.627 15.863 10.297 15.753 10.077C16.303 10.099 16.809 10.099 16.952 10.099C17.106 10.088 17.15 10.044 17.15 9.89V8.185H15.632V7.503H17.15V6.282H15.159V5.589H17.15V4.401H15.698V3.994L15.61 4.082C15.478 3.95 15.181 3.719 15.005 3.609C15.753 2.916 16.413 1.86 16.809 0.792996L17.524 0.968996C17.414 1.255 17.293 1.541 17.161 1.816H18.734L18.855 1.783L19.35 2.102C19.097 2.63 18.712 3.224 18.338 3.719H19.933V5.589H20.615Z" fill="black"/>
<path d="M25.961 1.266C25.862 1.662 25.708 2.333 25.532 2.971C26.104 2.883 26.698 2.751 27.259 2.564L27.281 3.389C26.698 3.554 26.005 3.697 25.279 3.796C24.74 5.347 23.761 7.25 22.881 8.438L22.034 7.998C22.947 6.931 23.882 5.171 24.388 3.884C24.058 3.906 23.728 3.917 23.409 3.917C23.002 3.917 22.54 3.906 22.122 3.884L22.067 3.059C22.474 3.114 22.947 3.136 23.409 3.136C23.805 3.136 24.223 3.114 24.652 3.081C24.817 2.465 24.971 1.772 24.993 1.178L25.961 1.266ZM25.356 8.9C25.356 9.417 25.774 9.769 26.632 9.769C27.545 9.769 27.853 9.285 27.853 8.68C27.853 8.537 27.853 8.372 27.842 8.185C27.49 8.075 27.105 8.02 26.709 8.02C25.906 8.02 25.356 8.394 25.356 8.9ZM28.557 4.665C28.535 5.116 28.535 5.457 28.546 5.853C28.557 6.26 28.601 6.975 28.623 7.657C29.569 7.998 30.339 8.537 30.911 9.021L30.438 9.769C29.965 9.351 29.371 8.856 28.656 8.504C28.667 8.68 28.667 8.834 28.667 8.966C28.667 9.846 28.106 10.561 26.742 10.561C25.532 10.561 24.542 10.066 24.542 8.977C24.542 7.965 25.499 7.327 26.742 7.327C27.116 7.327 27.479 7.36 27.82 7.437C27.776 6.535 27.721 5.446 27.699 4.665H28.557ZM30.757 4.962C30.163 4.456 28.975 3.774 28.238 3.444L28.689 2.773C29.481 3.125 30.735 3.84 31.252 4.236L30.757 4.962Z" fill="#262626"/>
<path d="M25.961 1.266C25.862 1.662 25.708 2.333 25.532 2.971C26.104 2.883 26.698 2.751 27.259 2.564L27.281 3.389C26.698 3.554 26.005 3.697 25.279 3.796C24.74 5.347 23.761 7.25 22.881 8.438L22.034 7.998C22.947 6.931 23.882 5.171 24.388 3.884C24.058 3.906 23.728 3.917 23.409 3.917C23.002 3.917 22.54 3.906 22.122 3.884L22.067 3.059C22.474 3.114 22.947 3.136 23.409 3.136C23.805 3.136 24.223 3.114 24.652 3.081C24.817 2.465 24.971 1.772 24.993 1.178L25.961 1.266ZM25.356 8.9C25.356 9.417 25.774 9.769 26.632 9.769C27.545 9.769 27.853 9.285 27.853 8.68C27.853 8.537 27.853 8.372 27.842 8.185C27.49 8.075 27.105 8.02 26.709 8.02C25.906 8.02 25.356 8.394 25.356 8.9ZM28.557 4.665C28.535 5.116 28.535 5.457 28.546 5.853C28.557 6.26 28.601 6.975 28.623 7.657C29.569 7.998 30.339 8.537 30.911 9.021L30.438 9.769C29.965 9.351 29.371 8.856 28.656 8.504C28.667 8.68 28.667 8.834 28.667 8.966C28.667 9.846 28.106 10.561 26.742 10.561C25.532 10.561 24.542 10.066 24.542 8.977C24.542 7.965 25.499 7.327 26.742 7.327C27.116 7.327 27.479 7.36 27.82 7.437C27.776 6.535 27.721 5.446 27.699 4.665H28.557ZM30.757 4.962C30.163 4.456 28.975 3.774 28.238 3.444L28.689 2.773C29.481 3.125 30.735 3.84 31.252 4.236L30.757 4.962Z" fill="black"/>
<path d="M35.069 0.825996L35.828 1.057C35.52 1.827 35.135 2.608 34.706 3.323V10.803H33.936V4.5C33.54 5.05 33.133 5.534 32.715 5.952C32.638 5.776 32.396 5.347 32.253 5.16C33.364 4.115 34.431 2.487 35.069 0.825996ZM39.458 9.681H42.549V10.462H35.465V9.681H38.644V6.931H36.114V6.15H38.644V3.741H35.751V2.971H39.502C38.963 2.476 37.995 1.805 37.225 1.354L37.764 0.770996C38.578 1.233 39.656 1.937 40.184 2.432L39.711 2.971H42.384V3.741H39.458V6.15H42.065V6.931H39.458V9.681Z" fill="#262626"/>
<path d="M35.069 0.825996L35.828 1.057C35.52 1.827 35.135 2.608 34.706 3.323V10.803H33.936V4.5C33.54 5.05 33.133 5.534 32.715 5.952C32.638 5.776 32.396 5.347 32.253 5.16C33.364 4.115 34.431 2.487 35.069 0.825996ZM39.458 9.681H42.549V10.462H35.465V9.681H38.644V6.931H36.114V6.15H38.644V3.741H35.751V2.971H39.502C38.963 2.476 37.995 1.805 37.225 1.354L37.764 0.770996C38.578 1.233 39.656 1.937 40.184 2.432L39.711 2.971H42.384V3.741H39.458V6.15H42.065V6.931H39.458V9.681Z" fill="black"/>
<path d="M44.738 2.707V4.28H43.913V1.948H48.049V0.803997H48.896V1.948H53.109V4.28H52.262V2.707H44.738ZM49.27 9.989H51.624C52.262 9.989 52.361 9.703 52.427 8.328C52.625 8.482 52.999 8.603 53.241 8.669C53.109 10.319 52.845 10.781 51.668 10.781H49.215C47.939 10.781 47.576 10.495 47.576 9.428V7.393L43.715 7.844L43.605 7.052L47.576 6.612V4.984C46.685 5.16 45.772 5.314 44.914 5.435C44.881 5.237 44.76 4.918 44.661 4.742C46.85 4.401 49.336 3.884 50.7 3.257L51.371 3.906C50.568 4.247 49.545 4.544 48.445 4.797V6.513L53.219 5.974L53.329 6.733L48.445 7.294V9.428C48.445 9.89 48.566 9.989 49.27 9.989Z" fill="#262626"/>
<path d="M44.738 2.707V4.28H43.913V1.948H48.049V0.803997H48.896V1.948H53.109V4.28H52.262V2.707H44.738ZM49.27 9.989H51.624C52.262 9.989 52.361 9.703 52.427 8.328C52.625 8.482 52.999 8.603 53.241 8.669C53.109 10.319 52.845 10.781 51.668 10.781H49.215C47.939 10.781 47.576 10.495 47.576 9.428V7.393L43.715 7.844L43.605 7.052L47.576 6.612V4.984C46.685 5.16 45.772 5.314 44.914 5.435C44.881 5.237 44.76 4.918 44.661 4.742C46.85 4.401 49.336 3.884 50.7 3.257L51.371 3.906C50.568 4.247 49.545 4.544 48.445 4.797V6.513L53.219 5.974L53.329 6.733L48.445 7.294V9.428C48.445 9.89 48.566 9.989 49.27 9.989Z" fill="black"/>
<path d="M64.373 1.442V2.179H61.612V1.442H64.373ZM58.884 4.357V2.894H57.432V2.19H58.884V0.803997H59.654V2.19H61.128V2.894H59.654V4.357H61.326V5.083H57.201V4.357H58.884ZM56.332 0.814996L57.08 1.079C56.552 1.97 55.661 2.982 54.836 3.62C54.726 3.444 54.517 3.158 54.374 3.015C55.122 2.454 55.936 1.552 56.332 0.814996ZM56.662 3.004L57.388 3.246C57.124 3.807 56.794 4.357 56.431 4.885V10.858H55.672V5.864C55.364 6.238 55.023 6.568 54.704 6.865C54.616 6.689 54.363 6.315 54.22 6.139C55.166 5.369 56.09 4.214 56.662 3.004ZM61.535 8.768V9.472C59.929 9.692 58.257 9.89 57.058 10.044L56.97 9.285C57.498 9.241 58.147 9.164 58.873 9.076V7.371H57.267V6.656H58.873V5.303H59.654V6.656H61.249V7.371H59.654V8.988L61.535 8.768ZM64.505 4.368V5.116H63.482V9.846C63.482 10.308 63.394 10.561 63.075 10.682C62.756 10.825 62.217 10.836 61.425 10.836C61.392 10.616 61.293 10.253 61.183 10.022C61.788 10.044 62.316 10.044 62.47 10.033C62.635 10.022 62.679 9.989 62.679 9.835V5.116H61.513V4.368H64.505Z" fill="#262626"/>
<path d="M64.373 1.442V2.179H61.612V1.442H64.373ZM58.884 4.357V2.894H57.432V2.19H58.884V0.803997H59.654V2.19H61.128V2.894H59.654V4.357H61.326V5.083H57.201V4.357H58.884ZM56.332 0.814996L57.08 1.079C56.552 1.97 55.661 2.982 54.836 3.62C54.726 3.444 54.517 3.158 54.374 3.015C55.122 2.454 55.936 1.552 56.332 0.814996ZM56.662 3.004L57.388 3.246C57.124 3.807 56.794 4.357 56.431 4.885V10.858H55.672V5.864C55.364 6.238 55.023 6.568 54.704 6.865C54.616 6.689 54.363 6.315 54.22 6.139C55.166 5.369 56.09 4.214 56.662 3.004ZM61.535 8.768V9.472C59.929 9.692 58.257 9.89 57.058 10.044L56.97 9.285C57.498 9.241 58.147 9.164 58.873 9.076V7.371H57.267V6.656H58.873V5.303H59.654V6.656H61.249V7.371H59.654V8.988L61.535 8.768ZM64.505 4.368V5.116H63.482V9.846C63.482 10.308 63.394 10.561 63.075 10.682C62.756 10.825 62.217 10.836 61.425 10.836C61.392 10.616 61.293 10.253 61.183 10.022C61.788 10.044 62.316 10.044 62.47 10.033C62.635 10.022 62.679 9.989 62.679 9.835V5.116H61.513V4.368H64.505Z" fill="black"/>
</svg>
