<svg width="42" height="24" viewBox="0 0 42 24" fill="none" xmlns="http://www.w3.org/2000/svg">
<path d="M5.325 10.297L4.863 10.033C5.259 9.48299 5.391 8.52599 5.424 7.59099L5.93 7.68999C5.875 8.66899 5.754 9.70299 5.325 10.297ZM6.194 7.71199L6.623 7.65699C6.744 8.29499 6.82101 9.11999 6.81001 9.65899L6.348 9.72499C6.381 9.17499 6.304 8.36099 6.194 7.71199ZM6.194 5.20399V6.20499H7.26101V5.20399H6.194ZM7.26101 1.93699H6.194V2.90499H7.26101V1.93699ZM7.26101 4.54399V3.55399H6.194V4.54399H7.26101ZM7.954 6.20499H9.637C9.637 6.20499 9.637 6.42499 9.626 6.53499C9.483 9.24099 9.36201 10.209 9.08701 10.539C8.92201 10.737 8.746 10.803 8.482 10.825C8.262 10.847 7.877 10.847 7.481 10.825C7.459 10.627 7.393 10.341 7.294 10.165C7.679 10.187 8.031 10.198 8.174 10.198C8.317 10.198 8.405 10.176 8.493 10.088C8.603 9.94499 8.702 9.54899 8.779 8.70199L8.42701 8.85599C8.31701 8.45999 8.05301 7.86599 7.78901 7.42599L8.174 7.28299C8.416 7.66799 8.658 8.18499 8.79 8.55899C8.834 8.11899 8.867 7.56899 8.911 6.87599H5.49001V1.24399H9.53801V1.93699H7.954V2.90499H9.318V3.55399H7.954V4.54399H9.318V5.20399H7.954V6.20499ZM7.877 9.26299L7.44801 9.36199C7.40401 8.88899 7.217 8.15199 7.019 7.59099L7.415 7.50299C7.646 8.05299 7.833 8.78999 7.877 9.26299ZM12.75 9.69199H15.104V10.451H9.549V9.69199H11.958V6.78799H10.121V6.02899H11.958V3.56499H9.868V2.79499H12.948C12.431 2.31099 11.518 1.70599 10.748 1.32099L11.243 0.748993C12.057 1.14499 13.091 1.78299 13.597 2.27799L13.168 2.79499H14.884V3.56499H12.75V6.02899H14.675V6.78799H12.75V9.69199Z" fill="#262626"/>
<path d="M5.325 10.297L4.863 10.033C5.259 9.48299 5.391 8.52599 5.424 7.59099L5.93 7.68999C5.875 8.66899 5.754 9.70299 5.325 10.297ZM6.194 7.71199L6.623 7.65699C6.744 8.29499 6.82101 9.11999 6.81001 9.65899L6.348 9.72499C6.381 9.17499 6.304 8.36099 6.194 7.71199ZM6.194 5.20399V6.20499H7.26101V5.20399H6.194ZM7.26101 1.93699H6.194V2.90499H7.26101V1.93699ZM7.26101 4.54399V3.55399H6.194V4.54399H7.26101ZM7.954 6.20499H9.637C9.637 6.20499 9.637 6.42499 9.626 6.53499C9.483 9.24099 9.36201 10.209 9.08701 10.539C8.92201 10.737 8.746 10.803 8.482 10.825C8.262 10.847 7.877 10.847 7.481 10.825C7.459 10.627 7.393 10.341 7.294 10.165C7.679 10.187 8.031 10.198 8.174 10.198C8.317 10.198 8.405 10.176 8.493 10.088C8.603 9.94499 8.702 9.54899 8.779 8.70199L8.42701 8.85599C8.31701 8.45999 8.05301 7.86599 7.78901 7.42599L8.174 7.28299C8.416 7.66799 8.658 8.18499 8.79 8.55899C8.834 8.11899 8.867 7.56899 8.911 6.87599H5.49001V1.24399H9.53801V1.93699H7.954V2.90499H9.318V3.55399H7.954V4.54399H9.318V5.20399H7.954V6.20499ZM7.877 9.26299L7.44801 9.36199C7.40401 8.88899 7.217 8.15199 7.019 7.59099L7.415 7.50299C7.646 8.05299 7.833 8.78999 7.877 9.26299ZM12.75 9.69199H15.104V10.451H9.549V9.69199H11.958V6.78799H10.121V6.02899H11.958V3.56499H9.868V2.79499H12.948C12.431 2.31099 11.518 1.70599 10.748 1.32099L11.243 0.748993C12.057 1.14499 13.091 1.78299 13.597 2.27799L13.168 2.79499H14.884V3.56499H12.75V6.02899H14.675V6.78799H12.75V9.69199Z" fill="black"/>
<path d="M18.041 6.93099H20.56V5.79799H18.041V6.93099ZM18.041 4.02699V5.14899H20.56V4.02699H18.041ZM23.959 4.02699H21.385V5.14899H23.959V4.02699ZM23.959 6.93099V5.79799H21.385V6.93099H23.959ZM25.928 8.50399V9.24099H21.385V10.869H20.56V9.24099H16.116V8.50399H20.56V7.60199H17.26V3.34499H20.56V2.54199H16.446V1.79399H20.56V0.803993H21.385V1.79399H25.554V2.54199H21.385V3.34499H24.773V7.60199H21.385V8.50399H25.928Z" fill="#262626"/>
<path d="M18.041 6.93099H20.56V5.79799H18.041V6.93099ZM18.041 4.02699V5.14899H20.56V4.02699H18.041ZM23.959 4.02699H21.385V5.14899H23.959V4.02699ZM23.959 6.93099V5.79799H21.385V6.93099H23.959ZM25.928 8.50399V9.24099H21.385V10.869H20.56V9.24099H16.116V8.50399H20.56V7.60199H17.26V3.34499H20.56V2.54199H16.446V1.79399H20.56V0.803993H21.385V1.79399H25.554V2.54199H21.385V3.34499H24.773V7.60199H21.385V8.50399H25.928Z" fill="black"/>
<path d="M35.487 2.60799V1.73899H31.967V2.60799H35.487ZM35.487 4.05999V3.17999H31.967V4.05999H35.487ZM36.246 1.12299V4.67599H31.219V1.12299H36.246ZM30.284 6.52399L30.46 7.24999C29.349 7.81099 28.15 8.39399 27.226 8.83399L26.907 8.03099C27.325 7.85499 27.842 7.63499 28.403 7.38199V3.93899H27.116V3.16899H28.403V0.880993H29.162V3.16899H30.35V3.93899H29.162V7.02999L30.284 6.52399ZM37.027 5.98499H32.506C32.363 6.24899 32.209 6.51299 32.033 6.75499H36.763C36.763 6.75499 36.752 6.97499 36.73 7.08499C36.565 9.35099 36.389 10.209 36.081 10.528C35.916 10.715 35.718 10.77 35.465 10.803C35.223 10.814 34.816 10.814 34.376 10.792C34.376 10.594 34.299 10.297 34.189 10.132C34.596 10.165 34.959 10.176 35.124 10.176C35.278 10.176 35.377 10.165 35.454 10.055C35.641 9.85699 35.806 9.16399 35.949 7.43699H35.091C34.651 8.74599 33.793 10.165 32.847 10.88C32.715 10.715 32.462 10.528 32.264 10.407C33.155 9.81299 33.958 8.62499 34.409 7.43699H33.342C32.759 8.56999 31.681 9.76899 30.669 10.407C30.548 10.231 30.328 10.033 30.13 9.90099C31.043 9.40599 32.011 8.41599 32.605 7.43699H31.494C31.054 7.93199 30.559 8.36099 30.064 8.69099C29.954 8.55899 29.668 8.29499 29.503 8.18499C30.372 7.66799 31.164 6.88699 31.681 5.98499H30.141V5.29199H37.027V5.98499Z" fill="#262626"/>
<path d="M35.487 2.60799V1.73899H31.967V2.60799H35.487ZM35.487 4.05999V3.17999H31.967V4.05999H35.487ZM36.246 1.12299V4.67599H31.219V1.12299H36.246ZM30.284 6.52399L30.46 7.24999C29.349 7.81099 28.15 8.39399 27.226 8.83399L26.907 8.03099C27.325 7.85499 27.842 7.63499 28.403 7.38199V3.93899H27.116V3.16899H28.403V0.880993H29.162V3.16899H30.35V3.93899H29.162V7.02999L30.284 6.52399ZM37.027 5.98499H32.506C32.363 6.24899 32.209 6.51299 32.033 6.75499H36.763C36.763 6.75499 36.752 6.97499 36.73 7.08499C36.565 9.35099 36.389 10.209 36.081 10.528C35.916 10.715 35.718 10.77 35.465 10.803C35.223 10.814 34.816 10.814 34.376 10.792C34.376 10.594 34.299 10.297 34.189 10.132C34.596 10.165 34.959 10.176 35.124 10.176C35.278 10.176 35.377 10.165 35.454 10.055C35.641 9.85699 35.806 9.16399 35.949 7.43699H35.091C34.651 8.74599 33.793 10.165 32.847 10.88C32.715 10.715 32.462 10.528 32.264 10.407C33.155 9.81299 33.958 8.62499 34.409 7.43699H33.342C32.759 8.56999 31.681 9.76899 30.669 10.407C30.548 10.231 30.328 10.033 30.13 9.90099C31.043 9.40599 32.011 8.41599 32.605 7.43699H31.494C31.054 7.93199 30.559 8.36099 30.064 8.69099C29.954 8.55899 29.668 8.29499 29.503 8.18499C30.372 7.66799 31.164 6.88699 31.681 5.98499H30.141V5.29199H37.027V5.98499Z" fill="black"/>
<path d="M0.255005 19.58C0.255005 17.825 0.966005 16.394 2.04601 15.296L2.586 15.575C1.551 16.646 0.912004 17.978 0.912004 19.58C0.912004 21.182 1.551 22.514 2.586 23.585L2.04601 23.864C0.966005 22.766 0.255005 21.335 0.255005 19.58Z" fill="#262626"/>
<path d="M0.255005 19.58C0.255005 17.825 0.966005 16.394 2.04601 15.296L2.586 15.575C1.551 16.646 0.912004 17.978 0.912004 19.58C0.912004 21.182 1.551 22.514 2.586 23.585L2.04601 23.864C0.966005 22.766 0.255005 21.335 0.255005 19.58Z" fill="black"/>
<path d="M8.139 17.006H6.825C6.645 18.599 6.114 19.526 3.999 20.003C3.936 19.841 3.765 19.58 3.63 19.445C5.556 19.067 5.979 18.32 6.132 17.006H4.395V18.203H3.738V16.403H7.14V15.467H7.815V16.403H11.289V18.005H10.614V17.006H8.79601V18.788C8.79601 19.013 8.85 19.049 9.183 19.049H10.335C10.596 19.049 10.65 18.95 10.677 18.32C10.803 18.419 11.082 18.518 11.253 18.563C11.19 19.409 11.001 19.625 10.398 19.625H9.111C8.328 19.625 8.139 19.454 8.139 18.788V17.006ZM7.815 22.802H11.433V23.414H3.567V22.802H7.14V20.993H4.503V20.39H10.659V20.993H7.815V22.802Z" fill="#262626"/>
<path d="M8.139 17.006H6.825C6.645 18.599 6.114 19.526 3.999 20.003C3.936 19.841 3.765 19.58 3.63 19.445C5.556 19.067 5.979 18.32 6.132 17.006H4.395V18.203H3.738V16.403H7.14V15.467H7.815V16.403H11.289V18.005H10.614V17.006H8.79601V18.788C8.79601 19.013 8.85 19.049 9.183 19.049H10.335C10.596 19.049 10.65 18.95 10.677 18.32C10.803 18.419 11.082 18.518 11.253 18.563C11.19 19.409 11.001 19.625 10.398 19.625H9.111C8.328 19.625 8.139 19.454 8.139 18.788V17.006ZM7.815 22.802H11.433V23.414H3.567V22.802H7.14V20.993H4.503V20.39H10.659V20.993H7.815V22.802Z" fill="black"/>
<path d="M16.518 16.718C16.446 16.448 16.356 16.169 16.266 15.917L17.031 15.818C17.067 16.16 17.148 16.529 17.247 16.889C17.886 16.808 18.516 16.673 19.092 16.484L19.191 17.132C18.678 17.276 18.039 17.411 17.418 17.492C17.481 17.717 17.553 17.924 17.616 18.113C17.679 18.284 17.751 18.473 17.823 18.653C18.57 18.563 19.2 18.401 19.623 18.266L19.731 18.941C19.299 19.058 18.732 19.175 18.102 19.265C18.291 19.652 18.498 20.039 18.732 20.381C18.831 20.525 18.939 20.642 19.065 20.768L18.696 21.317C18.192 21.182 17.346 21.101 16.725 21.029L16.788 20.48C17.265 20.534 17.85 20.597 18.138 20.633C17.868 20.219 17.634 19.778 17.436 19.337C16.338 19.436 14.862 19.454 13.476 19.355L13.44 18.68C14.79 18.824 16.158 18.815 17.175 18.725C17.112 18.563 17.049 18.41 16.995 18.257C16.905 18.005 16.824 17.771 16.752 17.555C15.879 17.609 14.781 17.591 13.656 17.492L13.611 16.835C14.691 16.961 15.717 16.988 16.581 16.943C16.554 16.871 16.536 16.79 16.518 16.718ZM14.745 20.615C14.529 20.93 14.367 21.236 14.367 21.632C14.367 22.379 15.033 22.748 16.446 22.748C17.283 22.748 17.94 22.694 18.588 22.559L18.561 23.279C17.931 23.378 17.22 23.432 16.455 23.432C14.691 23.432 13.701 22.91 13.692 21.758C13.683 21.245 13.845 20.867 14.043 20.471L14.745 20.615Z" fill="#262626"/>
<path d="M16.518 16.718C16.446 16.448 16.356 16.169 16.266 15.917L17.031 15.818C17.067 16.16 17.148 16.529 17.247 16.889C17.886 16.808 18.516 16.673 19.092 16.484L19.191 17.132C18.678 17.276 18.039 17.411 17.418 17.492C17.481 17.717 17.553 17.924 17.616 18.113C17.679 18.284 17.751 18.473 17.823 18.653C18.57 18.563 19.2 18.401 19.623 18.266L19.731 18.941C19.299 19.058 18.732 19.175 18.102 19.265C18.291 19.652 18.498 20.039 18.732 20.381C18.831 20.525 18.939 20.642 19.065 20.768L18.696 21.317C18.192 21.182 17.346 21.101 16.725 21.029L16.788 20.48C17.265 20.534 17.85 20.597 18.138 20.633C17.868 20.219 17.634 19.778 17.436 19.337C16.338 19.436 14.862 19.454 13.476 19.355L13.44 18.68C14.79 18.824 16.158 18.815 17.175 18.725C17.112 18.563 17.049 18.41 16.995 18.257C16.905 18.005 16.824 17.771 16.752 17.555C15.879 17.609 14.781 17.591 13.656 17.492L13.611 16.835C14.691 16.961 15.717 16.988 16.581 16.943C16.554 16.871 16.536 16.79 16.518 16.718ZM14.745 20.615C14.529 20.93 14.367 21.236 14.367 21.632C14.367 22.379 15.033 22.748 16.446 22.748C17.283 22.748 17.94 22.694 18.588 22.559L18.561 23.279C17.931 23.378 17.22 23.432 16.455 23.432C14.691 23.432 13.701 22.91 13.692 21.758C13.683 21.245 13.845 20.867 14.043 20.471L14.745 20.615Z" fill="black"/>
<path d="M25.059 15.854C24.978 16.178 24.852 16.727 24.708 17.249C25.176 17.177 25.662 17.069 26.121 16.916L26.139 17.591C25.662 17.726 25.095 17.843 24.501 17.924C24.06 19.193 23.259 20.75 22.539 21.722L21.846 21.362C22.593 20.489 23.358 19.049 23.772 17.996C23.502 18.014 23.232 18.023 22.971 18.023C22.638 18.023 22.26 18.014 21.918 17.996L21.873 17.321C22.206 17.366 22.593 17.384 22.971 17.384C23.295 17.384 23.637 17.366 23.988 17.339C24.123 16.835 24.249 16.268 24.267 15.782L25.059 15.854ZM24.564 22.1C24.564 22.523 24.906 22.811 25.608 22.811C26.355 22.811 26.607 22.415 26.607 21.92C26.607 21.803 26.607 21.668 26.598 21.515C26.31 21.425 25.995 21.38 25.671 21.38C25.014 21.38 24.564 21.686 24.564 22.1ZM27.183 18.635C27.165 19.004 27.165 19.283 27.174 19.607C27.183 19.94 27.219 20.525 27.237 21.083C28.011 21.362 28.641 21.803 29.109 22.199L28.722 22.811C28.335 22.469 27.849 22.064 27.264 21.776C27.273 21.92 27.273 22.046 27.273 22.154C27.273 22.874 26.814 23.459 25.698 23.459C24.708 23.459 23.898 23.054 23.898 22.163C23.898 21.335 24.681 20.813 25.698 20.813C26.004 20.813 26.301 20.84 26.58 20.903C26.544 20.165 26.499 19.274 26.481 18.635H27.183ZM28.983 18.878C28.497 18.464 27.525 17.906 26.922 17.636L27.291 17.087C27.939 17.375 28.965 17.96 29.388 18.284L28.983 18.878Z" fill="#262626"/>
<path d="M25.059 15.854C24.978 16.178 24.852 16.727 24.708 17.249C25.176 17.177 25.662 17.069 26.121 16.916L26.139 17.591C25.662 17.726 25.095 17.843 24.501 17.924C24.06 19.193 23.259 20.75 22.539 21.722L21.846 21.362C22.593 20.489 23.358 19.049 23.772 17.996C23.502 18.014 23.232 18.023 22.971 18.023C22.638 18.023 22.26 18.014 21.918 17.996L21.873 17.321C22.206 17.366 22.593 17.384 22.971 17.384C23.295 17.384 23.637 17.366 23.988 17.339C24.123 16.835 24.249 16.268 24.267 15.782L25.059 15.854ZM24.564 22.1C24.564 22.523 24.906 22.811 25.608 22.811C26.355 22.811 26.607 22.415 26.607 21.92C26.607 21.803 26.607 21.668 26.598 21.515C26.31 21.425 25.995 21.38 25.671 21.38C25.014 21.38 24.564 21.686 24.564 22.1ZM27.183 18.635C27.165 19.004 27.165 19.283 27.174 19.607C27.183 19.94 27.219 20.525 27.237 21.083C28.011 21.362 28.641 21.803 29.109 22.199L28.722 22.811C28.335 22.469 27.849 22.064 27.264 21.776C27.273 21.92 27.273 22.046 27.273 22.154C27.273 22.874 26.814 23.459 25.698 23.459C24.708 23.459 23.898 23.054 23.898 22.163C23.898 21.335 24.681 20.813 25.698 20.813C26.004 20.813 26.301 20.84 26.58 20.903C26.544 20.165 26.499 19.274 26.481 18.635H27.183ZM28.983 18.878C28.497 18.464 27.525 17.906 26.922 17.636L27.291 17.087C27.939 17.375 28.965 17.96 29.388 18.284L28.983 18.878Z" fill="black"/>
<path d="M33.06 15.989C33.015 16.286 32.988 16.601 32.979 16.898C32.934 17.915 32.871 20.039 32.871 21.38C32.871 22.37 33.492 22.721 34.347 22.721C35.994 22.721 36.921 21.794 37.569 20.858L38.082 21.47C37.461 22.325 36.3 23.459 34.32 23.459C33.024 23.459 32.133 22.919 32.133 21.452C32.133 20.12 32.223 17.843 32.223 16.898C32.223 16.565 32.205 16.241 32.151 15.98L33.06 15.989Z" fill="#262626"/>
<path d="M33.06 15.989C33.015 16.286 32.988 16.601 32.979 16.898C32.934 17.915 32.871 20.039 32.871 21.38C32.871 22.37 33.492 22.721 34.347 22.721C35.994 22.721 36.921 21.794 37.569 20.858L38.082 21.47C37.461 22.325 36.3 23.459 34.32 23.459C33.024 23.459 32.133 22.919 32.133 21.452C32.133 20.12 32.223 17.843 32.223 16.898C32.223 16.565 32.205 16.241 32.151 15.98L33.06 15.989Z" fill="black"/>
<path d="M41.745 19.58C41.745 21.335 41.034 22.766 39.954 23.864L39.414 23.585C40.449 22.514 41.088 21.182 41.088 19.58C41.088 17.978 40.449 16.646 39.414 15.575L39.954 15.296C41.034 16.394 41.745 17.825 41.745 19.58Z" fill="#262626"/>
<path d="M41.745 19.58C41.745 21.335 41.034 22.766 39.954 23.864L39.414 23.585C40.449 22.514 41.088 21.182 41.088 19.58C41.088 17.978 40.449 16.646 39.414 15.575L39.954 15.296C41.034 16.394 41.745 17.825 41.745 19.58Z" fill="black"/>
</svg>
