<svg width="72" height="11" viewBox="0 0 72 11" fill="none" xmlns="http://www.w3.org/2000/svg">
<path d="M0.527155 10.264L0.065155 9.99998C0.461155 9.43898 0.593155 8.45998 0.626155 7.49198L1.13216 7.59098C1.07716 8.59198 0.956155 9.64798 0.527155 10.264ZM1.39616 7.72298L1.82516 7.66798C1.94616 8.30598 2.02316 9.11998 2.01216 9.65898L1.55016 9.73598C1.58316 9.18598 1.50616 8.37198 1.39616 7.72298ZM1.39616 5.20398V6.20498H2.46316V5.20398H1.39616ZM2.46316 1.93698H1.39616V2.90498H2.46316V1.93698ZM2.46316 4.54398V3.55398H1.39616V4.54398H2.46316ZM3.15616 6.20498H4.83916C4.83916 6.20498 4.83915 6.42498 4.82815 6.53498C4.68515 9.24098 4.56416 10.209 4.28916 10.539C4.12415 10.737 3.94816 10.803 3.68416 10.825C3.46416 10.847 3.07915 10.847 2.68316 10.825C2.66116 10.627 2.59515 10.341 2.49615 10.165C2.88115 10.187 3.23315 10.198 3.37615 10.198C3.51915 10.198 3.60716 10.176 3.69516 10.088C3.80516 9.94498 3.90416 9.54898 3.98116 8.70198L3.62916 8.85598C3.51915 8.45998 3.25516 7.86598 2.99116 7.42598L3.37615 7.28298C3.61815 7.66798 3.86016 8.18498 3.99216 8.55898C4.03616 8.11898 4.06915 7.56898 4.11315 6.87598H0.692155V1.24398H4.74016V1.93698H3.15616V2.90498H4.52016V3.55398H3.15616V4.54398H4.52016V5.20398H3.15616V6.20498ZM3.07916 9.26298L2.65016 9.37298C2.60615 8.89998 2.41916 8.16298 2.22116 7.60198L2.61716 7.51398C2.84816 8.06398 3.03516 8.78998 3.07916 9.26298ZM9.09616 2.00298H6.35716V4.96198H9.09616V2.00298ZM9.84416 5.72098H8.09515C8.41416 7.73398 9.08515 9.41698 10.3282 10.209C10.1522 10.374 9.89916 10.671 9.77816 10.88C8.39215 9.88998 7.71016 8.05298 7.35816 5.72098H6.35716C6.33516 7.35998 6.13716 9.47198 5.12516 10.858C4.99316 10.715 4.65216 10.517 4.47616 10.44C5.49916 9.02098 5.58716 6.97498 5.58716 5.39098V1.24398H9.84416V5.72098Z" fill="#262626"/>
<path d="M0.527155 10.264L0.065155 9.99998C0.461155 9.43898 0.593155 8.45998 0.626155 7.49198L1.13216 7.59098C1.07716 8.59198 0.956155 9.64798 0.527155 10.264ZM1.39616 7.72298L1.82516 7.66798C1.94616 8.30598 2.02316 9.11998 2.01216 9.65898L1.55016 9.73598C1.58316 9.18598 1.50616 8.37198 1.39616 7.72298ZM1.39616 5.20398V6.20498H2.46316V5.20398H1.39616ZM2.46316 1.93698H1.39616V2.90498H2.46316V1.93698ZM2.46316 4.54398V3.55398H1.39616V4.54398H2.46316ZM3.15616 6.20498H4.83916C4.83916 6.20498 4.83915 6.42498 4.82815 6.53498C4.68515 9.24098 4.56416 10.209 4.28916 10.539C4.12415 10.737 3.94816 10.803 3.68416 10.825C3.46416 10.847 3.07915 10.847 2.68316 10.825C2.66116 10.627 2.59515 10.341 2.49615 10.165C2.88115 10.187 3.23315 10.198 3.37615 10.198C3.51915 10.198 3.60716 10.176 3.69516 10.088C3.80516 9.94498 3.90416 9.54898 3.98116 8.70198L3.62916 8.85598C3.51915 8.45998 3.25516 7.86598 2.99116 7.42598L3.37615 7.28298C3.61815 7.66798 3.86016 8.18498 3.99216 8.55898C4.03616 8.11898 4.06915 7.56898 4.11315 6.87598H0.692155V1.24398H4.74016V1.93698H3.15616V2.90498H4.52016V3.55398H3.15616V4.54398H4.52016V5.20398H3.15616V6.20498ZM3.07916 9.26298L2.65016 9.37298C2.60615 8.89998 2.41916 8.16298 2.22116 7.60198L2.61716 7.51398C2.84816 8.06398 3.03516 8.78998 3.07916 9.26298ZM9.09616 2.00298H6.35716V4.96198H9.09616V2.00298ZM9.84416 5.72098H8.09515C8.41416 7.73398 9.08515 9.41698 10.3282 10.209C10.1522 10.374 9.89916 10.671 9.77816 10.88C8.39215 9.88998 7.71016 8.05298 7.35816 5.72098H6.35716C6.33516 7.35998 6.13716 9.47198 5.12516 10.858C4.99316 10.715 4.65216 10.517 4.47616 10.44C5.49916 9.02098 5.58716 6.97498 5.58716 5.39098V1.24398H9.84416V5.72098Z" fill="black"/>
<path d="M13.4082 0.803983L14.1562 1.07898C13.5072 2.00298 12.4732 3.02598 11.5492 3.68598C11.4392 3.52098 11.2412 3.23498 11.0982 3.09198C11.9452 2.51998 12.9242 1.57398 13.4082 0.803983ZM13.6722 3.02598L14.3982 3.27898C14.1342 3.76298 13.7932 4.24698 13.4412 4.71998V10.858H12.6712V5.62198C12.2642 6.05098 11.8462 6.45798 11.4282 6.78798C11.3512 6.62298 11.1092 6.23798 10.9662 6.06198C11.9672 5.32498 13.0232 4.18098 13.6722 3.02598ZM18.2152 7.59098V9.85698C18.5892 9.92298 18.9962 9.94498 19.4142 9.94498C19.6782 9.94498 20.9982 9.94498 21.3722 9.93398C21.2512 10.132 21.1522 10.484 21.1082 10.693H19.3592C17.6212 10.693 16.3122 10.341 15.4762 8.80098C15.2012 9.62598 14.8272 10.319 14.2882 10.869C14.1672 10.737 13.8372 10.484 13.6612 10.363C14.6292 9.43898 15.0142 7.95398 15.1462 6.10598L15.9492 6.17198C15.9052 6.72198 15.8282 7.23898 15.7402 7.73398C16.1032 8.77898 16.6972 9.35098 17.4342 9.64798V5.22598H14.2992V4.48898H17.3572V2.95998H14.8712V2.24498H17.3572V0.781982H18.1382V2.24498H20.6902V2.95998H18.1382V4.48898H21.2072V5.22598H18.2152V6.86498H20.7452V7.59098H18.2152Z" fill="#262626"/>
<path d="M13.4082 0.803983L14.1562 1.07898C13.5072 2.00298 12.4732 3.02598 11.5492 3.68598C11.4392 3.52098 11.2412 3.23498 11.0982 3.09198C11.9452 2.51998 12.9242 1.57398 13.4082 0.803983ZM13.6722 3.02598L14.3982 3.27898C14.1342 3.76298 13.7932 4.24698 13.4412 4.71998V10.858H12.6712V5.62198C12.2642 6.05098 11.8462 6.45798 11.4282 6.78798C11.3512 6.62298 11.1092 6.23798 10.9662 6.06198C11.9672 5.32498 13.0232 4.18098 13.6722 3.02598ZM18.2152 7.59098V9.85698C18.5892 9.92298 18.9962 9.94498 19.4142 9.94498C19.6782 9.94498 20.9982 9.94498 21.3722 9.93398C21.2512 10.132 21.1522 10.484 21.1082 10.693H19.3592C17.6212 10.693 16.3122 10.341 15.4762 8.80098C15.2012 9.62598 14.8272 10.319 14.2882 10.869C14.1672 10.737 13.8372 10.484 13.6612 10.363C14.6292 9.43898 15.0142 7.95398 15.1462 6.10598L15.9492 6.17198C15.9052 6.72198 15.8282 7.23898 15.7402 7.73398C16.1032 8.77898 16.6972 9.35098 17.4342 9.64798V5.22598H14.2992V4.48898H17.3572V2.95998H14.8712V2.24498H17.3572V0.781982H18.1382V2.24498H20.6902V2.95998H18.1382V4.48898H21.2072V5.22598H18.2152V6.86498H20.7452V7.59098H18.2152Z" fill="black"/>
<path d="M24.6062 5.36898L25.4312 5.63298C24.8482 6.56798 23.9572 7.51398 23.1652 8.11898C23.0112 7.98698 22.6482 7.72298 22.4392 7.60198C23.2642 7.05198 24.0892 6.21598 24.6062 5.36898ZM29.4682 6.91998L30.2822 7.17298C29.3692 9.50498 27.2132 10.506 23.6602 10.924C23.5942 10.671 23.4292 10.341 23.2642 10.143C26.6302 9.83498 28.6212 8.97698 29.4682 6.91998ZM29.1932 5.77598L29.8422 5.35798C30.6672 6.01798 31.6132 6.96398 32.0422 7.64598L31.3382 8.10798C30.9422 7.45898 30.0072 6.45798 29.1932 5.77598ZM27.6312 4.25798H32.0752V5.01698H27.6202V7.54698C27.6202 7.97598 27.5212 8.19598 27.1802 8.31698C26.8502 8.43798 26.3112 8.43798 25.4642 8.43798C25.4312 8.20698 25.3102 7.92098 25.2112 7.68998C25.8492 7.71198 26.4212 7.71198 26.5972 7.71198C26.7622 7.70098 26.8062 7.66798 26.8062 7.52498V5.01698H22.3512V4.25798H23.9682V1.66198H24.7822V4.25798H26.8062V0.803983H27.6312V2.07998H31.0192V2.82798H27.6312V4.25798Z" fill="#262626"/>
<path d="M24.6062 5.36898L25.4312 5.63298C24.8482 6.56798 23.9572 7.51398 23.1652 8.11898C23.0112 7.98698 22.6482 7.72298 22.4392 7.60198C23.2642 7.05198 24.0892 6.21598 24.6062 5.36898ZM29.4682 6.91998L30.2822 7.17298C29.3692 9.50498 27.2132 10.506 23.6602 10.924C23.5942 10.671 23.4292 10.341 23.2642 10.143C26.6302 9.83498 28.6212 8.97698 29.4682 6.91998ZM29.1932 5.77598L29.8422 5.35798C30.6672 6.01798 31.6132 6.96398 32.0422 7.64598L31.3382 8.10798C30.9422 7.45898 30.0072 6.45798 29.1932 5.77598ZM27.6312 4.25798H32.0752V5.01698H27.6202V7.54698C27.6202 7.97598 27.5212 8.19598 27.1802 8.31698C26.8502 8.43798 26.3112 8.43798 25.4642 8.43798C25.4312 8.20698 25.3102 7.92098 25.2112 7.68998C25.8492 7.71198 26.4212 7.71198 26.5972 7.71198C26.7622 7.70098 26.8062 7.66798 26.8062 7.52498V5.01698H22.3512V4.25798H23.9682V1.66198H24.7822V4.25798H26.8062V0.803983H27.6312V2.07998H31.0192V2.82798H27.6312V4.25798Z" fill="black"/>
<path d="M36.0752 10.1289C34.523 10.1289 33.4434 9.18895 33.3359 7.91063L33.3306 7.84617H34.48L34.4854 7.88914C34.5874 8.58739 35.2212 9.12449 36.0859 9.12449C37.0635 9.12449 37.7456 8.44774 37.7456 7.48631V7.47557C37.7402 6.52489 37.0581 5.8535 36.0967 5.8535C35.6187 5.8535 35.2051 5.99315 34.8936 6.27244C34.7485 6.39598 34.625 6.54637 34.523 6.71824H33.4702L33.8516 2.24949H38.4707V3.26463H34.8237L34.5874 5.71922H34.6143C34.9634 5.19823 35.6079 4.90281 36.3706 4.90281C37.853 4.90281 38.9219 5.97166 38.9219 7.45408V7.46483C38.9219 9.03856 37.7456 10.1289 36.0752 10.1289Z" fill="#262626"/>
<path d="M36.0752 10.1289C34.523 10.1289 33.4434 9.18895 33.3359 7.91063L33.3306 7.84617H34.48L34.4854 7.88914C34.5874 8.58739 35.2212 9.12449 36.0859 9.12449C37.0635 9.12449 37.7456 8.44774 37.7456 7.48631V7.47557C37.7402 6.52489 37.0581 5.8535 36.0967 5.8535C35.6187 5.8535 35.2051 5.99315 34.8936 6.27244C34.7485 6.39598 34.625 6.54637 34.523 6.71824H33.4702L33.8516 2.24949H38.4707V3.26463H34.8237L34.5874 5.71922H34.6143C34.9634 5.19823 35.6079 4.90281 36.3706 4.90281C37.853 4.90281 38.9219 5.97166 38.9219 7.45408V7.46483C38.9219 9.03856 37.7456 10.1289 36.0752 10.1289Z" fill="black"/>
<path d="M42.8839 1.02398L43.7419 1.26598C42.9499 3.11398 41.6739 4.75298 40.2879 5.78698C40.1449 5.61098 39.7929 5.30298 39.5949 5.15998C40.9809 4.22498 42.2019 2.70698 42.8839 1.02398ZM41.3769 4.92898H48.2079C48.2079 4.92898 48.1969 5.21498 48.1859 5.32498C48.0319 8.70198 47.8669 9.96698 47.4929 10.385C47.2619 10.66 47.0309 10.726 46.6459 10.77C46.2829 10.803 45.6009 10.781 44.9189 10.748C44.8969 10.506 44.7979 10.176 44.6439 9.93398C45.3589 9.99998 46.0409 10.011 46.2939 10.011C46.5249 10.011 46.6569 9.98898 46.7559 9.86798C47.0419 9.59298 47.1959 8.49298 47.3279 5.72098H44.4899C44.2039 7.88798 43.4999 9.87898 40.7059 10.891C40.5959 10.682 40.3649 10.352 40.1779 10.176C42.7629 9.31798 43.3679 7.57998 43.6209 5.72098H41.3769V4.92898ZM45.9089 1.30998L46.6789 1.00198C47.3939 2.47598 48.8019 4.12598 49.9899 4.96198C49.7809 5.13798 49.4729 5.45698 49.3189 5.68798C48.1089 4.70898 46.7229 2.93798 45.9089 1.30998Z" fill="#262626"/>
<path d="M42.8839 1.02398L43.7419 1.26598C42.9499 3.11398 41.6739 4.75298 40.2879 5.78698C40.1449 5.61098 39.7929 5.30298 39.5949 5.15998C40.9809 4.22498 42.2019 2.70698 42.8839 1.02398ZM41.3769 4.92898H48.2079C48.2079 4.92898 48.1969 5.21498 48.1859 5.32498C48.0319 8.70198 47.8669 9.96698 47.4929 10.385C47.2619 10.66 47.0309 10.726 46.6459 10.77C46.2829 10.803 45.6009 10.781 44.9189 10.748C44.8969 10.506 44.7979 10.176 44.6439 9.93398C45.3589 9.99998 46.0409 10.011 46.2939 10.011C46.5249 10.011 46.6569 9.98898 46.7559 9.86798C47.0419 9.59298 47.1959 8.49298 47.3279 5.72098H44.4899C44.2039 7.88798 43.4999 9.87898 40.7059 10.891C40.5959 10.682 40.3649 10.352 40.1779 10.176C42.7629 9.31798 43.3679 7.57998 43.6209 5.72098H41.3769V4.92898ZM45.9089 1.30998L46.6789 1.00198C47.3939 2.47598 48.8019 4.12598 49.9899 4.96198C49.7809 5.13798 49.4729 5.45698 49.3189 5.68798C48.1089 4.70898 46.7229 2.93798 45.9089 1.30998Z" fill="black"/>
<path d="M56.7879 4.78598L56.0179 5.20398C55.7209 4.44498 55.0169 3.32298 54.3239 2.51998L55.0499 2.15698C55.7759 2.95998 56.4799 4.03798 56.7879 4.78598ZM55.2259 6.91998L55.4129 7.70098C53.8949 8.39398 52.2339 9.11998 51.0239 9.64798L50.7269 8.80098C51.1559 8.63598 51.6729 8.42698 52.2449 8.18498L52.0579 1.38698L52.8939 1.35398L53.0589 7.84398C53.7629 7.54698 54.4999 7.22798 55.2259 6.91998ZM60.9349 10.176L60.2529 10.803C59.7469 10.044 58.7239 8.88898 57.7889 7.89898C56.9309 9.19698 55.7319 10.154 54.0159 10.869C53.9059 10.704 53.5649 10.33 53.3669 10.165C57.1399 8.77898 58.3059 6.11698 58.7899 1.36498L59.6809 1.45298C59.4169 3.80698 58.9989 5.67698 58.2289 7.15098C59.2079 8.14098 60.3739 9.36198 60.9349 10.176Z" fill="#262626"/>
<path d="M56.7879 4.78598L56.0179 5.20398C55.7209 4.44498 55.0169 3.32298 54.3239 2.51998L55.0499 2.15698C55.7759 2.95998 56.4799 4.03798 56.7879 4.78598ZM55.2259 6.91998L55.4129 7.70098C53.8949 8.39398 52.2339 9.11998 51.0239 9.64798L50.7269 8.80098C51.1559 8.63598 51.6729 8.42698 52.2449 8.18498L52.0579 1.38698L52.8939 1.35398L53.0589 7.84398C53.7629 7.54698 54.4999 7.22798 55.2259 6.91998ZM60.9349 10.176L60.2529 10.803C59.7469 10.044 58.7239 8.88898 57.7889 7.89898C56.9309 9.19698 55.7319 10.154 54.0159 10.869C53.9059 10.704 53.5649 10.33 53.3669 10.165C57.1399 8.77898 58.3059 6.11698 58.7899 1.36498L59.6809 1.45298C59.4169 3.80698 58.9989 5.67698 58.2289 7.15098C59.2079 8.14098 60.3739 9.36198 60.9349 10.176Z" fill="black"/>
<path d="M71.1979 2.67398V9.75798C71.1979 10.286 71.0769 10.55 70.7029 10.682C70.3179 10.825 69.6359 10.825 68.6569 10.825C68.6239 10.605 68.5029 10.22 68.3819 9.99998C69.1519 10.033 69.8999 10.033 70.1309 10.022C70.3289 10.011 70.3949 9.94498 70.3949 9.74698V3.47698H67.2049C67.1829 3.92798 67.1279 4.41198 67.0069 4.90698C68.0959 5.86398 69.4379 7.15098 70.1089 7.96498L69.4379 8.49298C68.8769 7.75598 67.7769 6.63398 66.7649 5.68798C66.3579 6.74398 65.5659 7.76698 64.0919 8.63598C63.9709 8.45998 63.6959 8.16298 63.5089 8.01998C65.9289 6.73298 66.3249 4.91798 66.3909 3.47698H63.2229V10.858H62.4199V2.67398H66.4019V0.792983H67.2159V2.67398H71.1979Z" fill="#262626"/>
<path d="M71.1979 2.67398V9.75798C71.1979 10.286 71.0769 10.55 70.7029 10.682C70.3179 10.825 69.6359 10.825 68.6569 10.825C68.6239 10.605 68.5029 10.22 68.3819 9.99998C69.1519 10.033 69.8999 10.033 70.1309 10.022C70.3289 10.011 70.3949 9.94498 70.3949 9.74698V3.47698H67.2049C67.1829 3.92798 67.1279 4.41198 67.0069 4.90698C68.0959 5.86398 69.4379 7.15098 70.1089 7.96498L69.4379 8.49298C68.8769 7.75598 67.7769 6.63398 66.7649 5.68798C66.3579 6.74398 65.5659 7.76698 64.0919 8.63598C63.9709 8.45998 63.6959 8.16298 63.5089 8.01998C65.9289 6.73298 66.3249 4.91798 66.3909 3.47698H63.2229V10.858H62.4199V2.67398H66.4019V0.792983H67.2159V2.67398H71.1979Z" fill="black"/>
</svg>
