<svg width="72" height="11" viewBox="0 0 72 11" fill="none" xmlns="http://www.w3.org/2000/svg">
<path d="M0.494928 10.264L0.0329285 9.99998C0.428929 9.43898 0.560928 8.45998 0.593928 7.49198L1.09993 7.59098C1.04493 8.59198 0.923928 9.64798 0.494928 10.264ZM1.36393 7.72298L1.79293 7.66798C1.91393 8.30598 1.99093 9.11998 1.97993 9.65898L1.51793 9.73598C1.55093 9.18598 1.47393 8.37198 1.36393 7.72298ZM1.36393 5.20398V6.20498H2.43093V5.20398H1.36393ZM2.43093 1.93698H1.36393V2.90498H2.43093V1.93698ZM2.43093 4.54398V3.55398H1.36393V4.54398H2.43093ZM3.12393 6.20498H4.80693C4.80693 6.20498 4.80693 6.42498 4.79593 6.53498C4.65293 9.24098 4.53193 10.209 4.25693 10.539C4.09193 10.737 3.91593 10.803 3.65193 10.825C3.43193 10.847 3.04693 10.847 2.65093 10.825C2.62893 10.627 2.56293 10.341 2.46393 10.165C2.84893 10.187 3.20093 10.198 3.34393 10.198C3.48693 10.198 3.57493 10.176 3.66293 10.088C3.77293 9.94498 3.87193 9.54898 3.94893 8.70198L3.59693 8.85598C3.48693 8.45998 3.22293 7.86598 2.95893 7.42598L3.34393 7.28298C3.58593 7.66798 3.82793 8.18498 3.95993 8.55898C4.00393 8.11898 4.03693 7.56898 4.08093 6.87598H0.659928V1.24398H4.70793V1.93698H3.12393V2.90498H4.48793V3.55398H3.12393V4.54398H4.48793V5.20398H3.12393V6.20498ZM3.04693 9.26298L2.61793 9.37298C2.57393 8.89998 2.38693 8.16298 2.18893 7.60198L2.58493 7.51398C2.81593 8.06398 3.00293 8.78998 3.04693 9.26298ZM9.06393 2.00298H6.32493V4.96198H9.06393V2.00298ZM9.81193 5.72098H8.06293C8.38193 7.73398 9.05293 9.41698 10.2959 10.209C10.1199 10.374 9.86693 10.671 9.74593 10.88C8.35993 9.88998 7.67793 8.05298 7.32593 5.72098H6.32493C6.30293 7.35998 6.10493 9.47198 5.09293 10.858C4.96093 10.715 4.61993 10.517 4.44393 10.44C5.46693 9.02098 5.55493 6.97498 5.55493 5.39098V1.24398H9.81193V5.72098Z" fill="#262626"/>
<path d="M0.494928 10.264L0.0329285 9.99998C0.428929 9.43898 0.560928 8.45998 0.593928 7.49198L1.09993 7.59098C1.04493 8.59198 0.923928 9.64798 0.494928 10.264ZM1.36393 7.72298L1.79293 7.66798C1.91393 8.30598 1.99093 9.11998 1.97993 9.65898L1.51793 9.73598C1.55093 9.18598 1.47393 8.37198 1.36393 7.72298ZM1.36393 5.20398V6.20498H2.43093V5.20398H1.36393ZM2.43093 1.93698H1.36393V2.90498H2.43093V1.93698ZM2.43093 4.54398V3.55398H1.36393V4.54398H2.43093ZM3.12393 6.20498H4.80693C4.80693 6.20498 4.80693 6.42498 4.79593 6.53498C4.65293 9.24098 4.53193 10.209 4.25693 10.539C4.09193 10.737 3.91593 10.803 3.65193 10.825C3.43193 10.847 3.04693 10.847 2.65093 10.825C2.62893 10.627 2.56293 10.341 2.46393 10.165C2.84893 10.187 3.20093 10.198 3.34393 10.198C3.48693 10.198 3.57493 10.176 3.66293 10.088C3.77293 9.94498 3.87193 9.54898 3.94893 8.70198L3.59693 8.85598C3.48693 8.45998 3.22293 7.86598 2.95893 7.42598L3.34393 7.28298C3.58593 7.66798 3.82793 8.18498 3.95993 8.55898C4.00393 8.11898 4.03693 7.56898 4.08093 6.87598H0.659928V1.24398H4.70793V1.93698H3.12393V2.90498H4.48793V3.55398H3.12393V4.54398H4.48793V5.20398H3.12393V6.20498ZM3.04693 9.26298L2.61793 9.37298C2.57393 8.89998 2.38693 8.16298 2.18893 7.60198L2.58493 7.51398C2.81593 8.06398 3.00293 8.78998 3.04693 9.26298ZM9.06393 2.00298H6.32493V4.96198H9.06393V2.00298ZM9.81193 5.72098H8.06293C8.38193 7.73398 9.05293 9.41698 10.2959 10.209C10.1199 10.374 9.86693 10.671 9.74593 10.88C8.35993 9.88998 7.67793 8.05298 7.32593 5.72098H6.32493C6.30293 7.35998 6.10493 9.47198 5.09293 10.858C4.96093 10.715 4.61993 10.517 4.44393 10.44C5.46693 9.02098 5.55493 6.97498 5.55493 5.39098V1.24398H9.81193V5.72098Z" fill="black"/>
<path d="M13.3759 0.803983L14.1239 1.07898C13.4749 2.00298 12.4409 3.02598 11.5169 3.68598C11.4069 3.52098 11.2089 3.23498 11.0659 3.09198C11.9129 2.51998 12.8919 1.57398 13.3759 0.803983ZM13.6399 3.02598L14.3659 3.27898C14.1019 3.76298 13.7609 4.24698 13.4089 4.71998V10.858H12.6389V5.62198C12.2319 6.05098 11.8139 6.45798 11.3959 6.78798C11.3189 6.62298 11.0769 6.23798 10.9339 6.06198C11.9349 5.32498 12.9909 4.18098 13.6399 3.02598ZM18.1829 7.59098V9.85698C18.5569 9.92298 18.9639 9.94498 19.3819 9.94498C19.6459 9.94498 20.9659 9.94498 21.3399 9.93398C21.2189 10.132 21.1199 10.484 21.0759 10.693H19.3269C17.5889 10.693 16.2799 10.341 15.4439 8.80098C15.1689 9.62598 14.7949 10.319 14.2559 10.869C14.1349 10.737 13.8049 10.484 13.6289 10.363C14.5969 9.43898 14.9819 7.95398 15.1139 6.10598L15.9169 6.17198C15.8729 6.72198 15.7959 7.23898 15.7079 7.73398C16.0709 8.77898 16.6649 9.35098 17.4019 9.64798V5.22598H14.2669V4.48898H17.3249V2.95998H14.8389V2.24498H17.3249V0.781982H18.1059V2.24498H20.6579V2.95998H18.1059V4.48898H21.1749V5.22598H18.1829V6.86498H20.7129V7.59098H18.1829Z" fill="#262626"/>
<path d="M13.3759 0.803983L14.1239 1.07898C13.4749 2.00298 12.4409 3.02598 11.5169 3.68598C11.4069 3.52098 11.2089 3.23498 11.0659 3.09198C11.9129 2.51998 12.8919 1.57398 13.3759 0.803983ZM13.6399 3.02598L14.3659 3.27898C14.1019 3.76298 13.7609 4.24698 13.4089 4.71998V10.858H12.6389V5.62198C12.2319 6.05098 11.8139 6.45798 11.3959 6.78798C11.3189 6.62298 11.0769 6.23798 10.9339 6.06198C11.9349 5.32498 12.9909 4.18098 13.6399 3.02598ZM18.1829 7.59098V9.85698C18.5569 9.92298 18.9639 9.94498 19.3819 9.94498C19.6459 9.94498 20.9659 9.94498 21.3399 9.93398C21.2189 10.132 21.1199 10.484 21.0759 10.693H19.3269C17.5889 10.693 16.2799 10.341 15.4439 8.80098C15.1689 9.62598 14.7949 10.319 14.2559 10.869C14.1349 10.737 13.8049 10.484 13.6289 10.363C14.5969 9.43898 14.9819 7.95398 15.1139 6.10598L15.9169 6.17198C15.8729 6.72198 15.7959 7.23898 15.7079 7.73398C16.0709 8.77898 16.6649 9.35098 17.4019 9.64798V5.22598H14.2669V4.48898H17.3249V2.95998H14.8389V2.24498H17.3249V0.781982H18.1059V2.24498H20.6579V2.95998H18.1059V4.48898H21.1749V5.22598H18.1829V6.86498H20.7129V7.59098H18.1829Z" fill="black"/>
<path d="M24.5739 5.36898L25.3989 5.63298C24.8159 6.56798 23.9249 7.51398 23.1329 8.11898C22.9789 7.98698 22.6159 7.72298 22.4069 7.60198C23.2319 7.05198 24.0569 6.21598 24.5739 5.36898ZM29.4359 6.91998L30.2499 7.17298C29.3369 9.50498 27.1809 10.506 23.6279 10.924C23.5619 10.671 23.3969 10.341 23.2319 10.143C26.5979 9.83498 28.5889 8.97698 29.4359 6.91998ZM29.1609 5.77598L29.8099 5.35798C30.6349 6.01798 31.5809 6.96398 32.0099 7.64598L31.3059 8.10798C30.9099 7.45898 29.9749 6.45798 29.1609 5.77598ZM27.5989 4.25798H32.0429V5.01698H27.5879V7.54698C27.5879 7.97598 27.4889 8.19598 27.1479 8.31698C26.8179 8.43798 26.2789 8.43798 25.4319 8.43798C25.3989 8.20698 25.2779 7.92098 25.1789 7.68998C25.8169 7.71198 26.3889 7.71198 26.5649 7.71198C26.7299 7.70098 26.7739 7.66798 26.7739 7.52498V5.01698H22.3189V4.25798H23.9359V1.66198H24.7499V4.25798H26.7739V0.803983H27.5989V2.07998H30.9869V2.82798H27.5989V4.25798Z" fill="#262626"/>
<path d="M24.5739 5.36898L25.3989 5.63298C24.8159 6.56798 23.9249 7.51398 23.1329 8.11898C22.9789 7.98698 22.6159 7.72298 22.4069 7.60198C23.2319 7.05198 24.0569 6.21598 24.5739 5.36898ZM29.4359 6.91998L30.2499 7.17298C29.3369 9.50498 27.1809 10.506 23.6279 10.924C23.5619 10.671 23.3969 10.341 23.2319 10.143C26.5979 9.83498 28.5889 8.97698 29.4359 6.91998ZM29.1609 5.77598L29.8099 5.35798C30.6349 6.01798 31.5809 6.96398 32.0099 7.64598L31.3059 8.10798C30.9099 7.45898 29.9749 6.45798 29.1609 5.77598ZM27.5989 4.25798H32.0429V5.01698H27.5879V7.54698C27.5879 7.97598 27.4889 8.19598 27.1479 8.31698C26.8179 8.43798 26.2789 8.43798 25.4319 8.43798C25.3989 8.20698 25.2779 7.92098 25.1789 7.68998C25.8169 7.71198 26.3889 7.71198 26.5649 7.71198C26.7299 7.70098 26.7739 7.66798 26.7739 7.52498V5.01698H22.3189V4.25798H23.9359V1.66198H24.7499V4.25798H26.7739V0.803983H27.5989V2.07998H30.9869V2.82798H27.5989V4.25798Z" fill="black"/>
<path d="M35.9785 10.1289C34.3242 10.1289 33.2446 9.22655 33.1372 7.96434L33.1318 7.89451H34.2866L34.292 7.9536C34.3672 8.6411 35.0171 9.12449 35.9785 9.12449C36.9238 9.12449 37.563 8.59813 37.563 7.84617V7.83543C37.563 6.95994 36.9292 6.47117 35.8926 6.47117H34.9526V5.5366H35.8604C36.7466 5.5366 37.3482 5.01561 37.3482 4.29588V4.28514C37.3482 3.53856 36.8433 3.1035 35.9678 3.1035C35.1084 3.1035 34.5068 3.55467 34.4316 4.2744L34.4263 4.32274H33.2983L33.3037 4.26903C33.4219 2.97459 34.4531 2.12059 35.9678 2.12059C37.5093 2.12059 38.5191 2.93699 38.5191 4.12938V4.14012C38.5191 5.10155 37.8316 5.74608 36.8862 5.94481V5.97166C38.0249 6.07371 38.7876 6.76121 38.7876 7.84617V7.85692C38.7876 9.18358 37.6221 10.1289 35.9785 10.1289Z" fill="#262626"/>
<path d="M35.9785 10.1289C34.3242 10.1289 33.2446 9.22655 33.1372 7.96434L33.1318 7.89451H34.2866L34.292 7.9536C34.3672 8.6411 35.0171 9.12449 35.9785 9.12449C36.9238 9.12449 37.563 8.59813 37.563 7.84617V7.83543C37.563 6.95994 36.9292 6.47117 35.8926 6.47117H34.9526V5.5366H35.8604C36.7466 5.5366 37.3482 5.01561 37.3482 4.29588V4.28514C37.3482 3.53856 36.8433 3.1035 35.9678 3.1035C35.1084 3.1035 34.5068 3.55467 34.4316 4.2744L34.4263 4.32274H33.2983L33.3037 4.26903C33.4219 2.97459 34.4531 2.12059 35.9678 2.12059C37.5093 2.12059 38.5191 2.93699 38.5191 4.12938V4.14012C38.5191 5.10155 37.8316 5.74608 36.8862 5.94481V5.97166C38.0249 6.07371 38.7876 6.76121 38.7876 7.84617V7.85692C38.7876 9.18358 37.6221 10.1289 35.9785 10.1289Z" fill="black"/>
<path d="M42.9161 1.02398L43.7741 1.26598C42.9821 3.11398 41.7061 4.75298 40.3201 5.78698C40.1771 5.61098 39.8251 5.30298 39.6271 5.15998C41.0131 4.22498 42.2341 2.70698 42.9161 1.02398ZM41.4091 4.92898H48.2401C48.2401 4.92898 48.2291 5.21498 48.2181 5.32498C48.0641 8.70198 47.8991 9.96698 47.5251 10.385C47.2941 10.66 47.0631 10.726 46.6781 10.77C46.3151 10.803 45.6331 10.781 44.9511 10.748C44.9291 10.506 44.8301 10.176 44.6761 9.93398C45.3911 9.99998 46.0731 10.011 46.3261 10.011C46.5571 10.011 46.6891 9.98898 46.7881 9.86798C47.0741 9.59298 47.2281 8.49298 47.3601 5.72098H44.5221C44.2361 7.88798 43.5321 9.87898 40.7381 10.891C40.6281 10.682 40.3971 10.352 40.2101 10.176C42.7951 9.31798 43.4001 7.57998 43.6531 5.72098H41.4091V4.92898ZM45.9411 1.30998L46.7111 1.00198C47.4261 2.47598 48.8341 4.12598 50.0221 4.96198C49.8131 5.13798 49.5051 5.45698 49.3511 5.68798C48.1411 4.70898 46.7551 2.93798 45.9411 1.30998Z" fill="#262626"/>
<path d="M42.9161 1.02398L43.7741 1.26598C42.9821 3.11398 41.7061 4.75298 40.3201 5.78698C40.1771 5.61098 39.8251 5.30298 39.6271 5.15998C41.0131 4.22498 42.2341 2.70698 42.9161 1.02398ZM41.4091 4.92898H48.2401C48.2401 4.92898 48.2291 5.21498 48.2181 5.32498C48.0641 8.70198 47.8991 9.96698 47.5251 10.385C47.2941 10.66 47.0631 10.726 46.6781 10.77C46.3151 10.803 45.6331 10.781 44.9511 10.748C44.9291 10.506 44.8301 10.176 44.6761 9.93398C45.3911 9.99998 46.0731 10.011 46.3261 10.011C46.5571 10.011 46.6891 9.98898 46.7881 9.86798C47.0741 9.59298 47.2281 8.49298 47.3601 5.72098H44.5221C44.2361 7.88798 43.5321 9.87898 40.7381 10.891C40.6281 10.682 40.3971 10.352 40.2101 10.176C42.7951 9.31798 43.4001 7.57998 43.6531 5.72098H41.4091V4.92898ZM45.9411 1.30998L46.7111 1.00198C47.4261 2.47598 48.8341 4.12598 50.0221 4.96198C49.8131 5.13798 49.5051 5.45698 49.3511 5.68798C48.1411 4.70898 46.7551 2.93798 45.9411 1.30998Z" fill="black"/>
<path d="M56.8201 4.78598L56.0501 5.20398C55.7531 4.44498 55.0491 3.32298 54.3561 2.51998L55.0821 2.15698C55.8081 2.95998 56.5121 4.03798 56.8201 4.78598ZM55.2581 6.91998L55.4451 7.70098C53.9271 8.39398 52.2661 9.11998 51.0561 9.64798L50.7591 8.80098C51.1881 8.63598 51.7051 8.42698 52.2771 8.18498L52.0901 1.38698L52.9261 1.35398L53.0911 7.84398C53.7951 7.54698 54.5321 7.22798 55.2581 6.91998ZM60.9671 10.176L60.2851 10.803C59.7791 10.044 58.7561 8.88898 57.8211 7.89898C56.9631 9.19698 55.7641 10.154 54.0481 10.869C53.9381 10.704 53.5971 10.33 53.3991 10.165C57.1721 8.77898 58.3381 6.11698 58.8221 1.36498L59.7131 1.45298C59.4491 3.80698 59.0311 5.67698 58.2611 7.15098C59.2401 8.14098 60.4061 9.36198 60.9671 10.176Z" fill="#262626"/>
<path d="M56.8201 4.78598L56.0501 5.20398C55.7531 4.44498 55.0491 3.32298 54.3561 2.51998L55.0821 2.15698C55.8081 2.95998 56.5121 4.03798 56.8201 4.78598ZM55.2581 6.91998L55.4451 7.70098C53.9271 8.39398 52.2661 9.11998 51.0561 9.64798L50.7591 8.80098C51.1881 8.63598 51.7051 8.42698 52.2771 8.18498L52.0901 1.38698L52.9261 1.35398L53.0911 7.84398C53.7951 7.54698 54.5321 7.22798 55.2581 6.91998ZM60.9671 10.176L60.2851 10.803C59.7791 10.044 58.7561 8.88898 57.8211 7.89898C56.9631 9.19698 55.7641 10.154 54.0481 10.869C53.9381 10.704 53.5971 10.33 53.3991 10.165C57.1721 8.77898 58.3381 6.11698 58.8221 1.36498L59.7131 1.45298C59.4491 3.80698 59.0311 5.67698 58.2611 7.15098C59.2401 8.14098 60.4061 9.36198 60.9671 10.176Z" fill="black"/>
<path d="M71.2301 2.67398V9.75798C71.2301 10.286 71.1091 10.55 70.7351 10.682C70.3501 10.825 69.6681 10.825 68.6891 10.825C68.6561 10.605 68.5351 10.22 68.4141 9.99998C69.1841 10.033 69.9321 10.033 70.1631 10.022C70.3611 10.011 70.4271 9.94498 70.4271 9.74698V3.47698H67.2371C67.2151 3.92798 67.1601 4.41198 67.0391 4.90698C68.1281 5.86398 69.4701 7.15098 70.1411 7.96498L69.4701 8.49298C68.9091 7.75598 67.8091 6.63398 66.7971 5.68798C66.3901 6.74398 65.5981 7.76698 64.1241 8.63598C64.0031 8.45998 63.7281 8.16298 63.5411 8.01998C65.9611 6.73298 66.3571 4.91798 66.4231 3.47698H63.2551V10.858H62.4521V2.67398H66.4341V0.792983H67.2481V2.67398H71.2301Z" fill="#262626"/>
<path d="M71.2301 2.67398V9.75798C71.2301 10.286 71.1091 10.55 70.7351 10.682C70.3501 10.825 69.6681 10.825 68.6891 10.825C68.6561 10.605 68.5351 10.22 68.4141 9.99998C69.1841 10.033 69.9321 10.033 70.1631 10.022C70.3611 10.011 70.4271 9.94498 70.4271 9.74698V3.47698H67.2371C67.2151 3.92798 67.1601 4.41198 67.0391 4.90698C68.1281 5.86398 69.4701 7.15098 70.1411 7.96498L69.4701 8.49298C68.9091 7.75598 67.8091 6.63398 66.7971 5.68798C66.3901 6.74398 65.5981 7.76698 64.1241 8.63598C64.0031 8.45998 63.7281 8.16298 63.5411 8.01998C65.9611 6.73298 66.3571 4.91798 66.4231 3.47698H63.2551V10.858H62.4521V2.67398H66.4341V0.792983H67.2481V2.67398H71.2301Z" fill="black"/>
</svg>
