<svg width="32" height="30" viewBox="0 0 32 30" fill="none" xmlns="http://www.w3.org/2000/svg">
<g id="Frame" clip-path="url(#clip0_3126_20657)">
<path id="Vector" d="M22.3747 29.8122C20.0219 29.8089 17.7665 28.8727 16.1032 27.2088C14.4398 25.5449 13.5044 23.2891 13.502 20.9364C13.5076 18.5858 14.4445 16.3331 16.1075 14.6718C17.7705 13.0105 20.024 12.076 22.3747 12.0728C24.7274 12.0752 26.9831 13.0106 28.6471 14.674C30.311 16.3373 31.2472 18.5927 31.2504 20.9455C31.2456 23.2972 30.3087 25.551 28.6449 27.2131C26.9812 28.8751 24.7264 29.8098 22.3747 29.8122ZM22.3747 13.5788C20.4238 13.5804 18.5533 14.3561 17.1739 15.7356C15.7944 17.115 15.0187 18.9855 15.0171 20.9364C15.0187 22.8875 15.7943 24.7583 17.1737 26.1383C18.5531 27.5182 20.4235 28.2946 22.3747 28.297C24.3261 28.2946 26.1969 27.5183 27.5768 26.1385C28.9566 24.7586 29.7329 22.8878 29.7353 20.9364C29.7305 18.9868 28.9531 17.1187 27.5734 15.7413C26.1937 14.3638 24.3242 13.5895 22.3747 13.5879V13.5788Z" fill="#8C7D5E"/>
<path id="Vector_2" d="M14.7022 11.597H4.19312C3.9922 11.597 3.79951 11.5172 3.65744 11.3751C3.51536 11.2331 3.43555 11.0404 3.43555 10.8394V5.90308C3.43555 5.70216 3.51536 5.50946 3.65744 5.36739C3.79951 5.22532 3.9922 5.14551 4.19312 5.14551H14.7022C14.9031 5.14551 15.0958 5.22532 15.2379 5.36739C15.38 5.50946 15.4598 5.70216 15.4598 5.90308V10.8394C15.4598 10.9389 15.4402 11.0374 15.4021 11.1294C15.3641 11.2213 15.3082 11.3048 15.2379 11.3751C15.1676 11.4455 15.084 11.5013 14.9921 11.5393C14.9002 11.5774 14.8017 11.597 14.7022 11.597ZM4.9507 10.0819H13.9446V6.66066H4.9507V10.0819Z" fill="#8C7D5E"/>
<path id="Vector_3" d="M5.66394 16.2606C5.1659 16.2598 4.68849 16.0616 4.33632 15.7094C3.98415 15.3573 3.78596 14.8799 3.78516 14.3818C3.78596 13.8838 3.98415 13.4064 4.33632 13.0542C4.68849 12.7021 5.1659 12.5039 5.66394 12.5031C6.16198 12.5039 6.63939 12.7021 6.99156 13.0542C7.34373 13.4064 7.54193 13.8838 7.54273 14.3818C7.54193 14.8799 7.34373 15.3573 6.99156 15.7094C6.63939 16.0616 6.16198 16.2598 5.66394 16.2606V16.2606ZM5.66394 13.7152C5.48738 13.716 5.31827 13.7865 5.19342 13.9113C5.06857 14.0362 4.99808 14.2053 4.99728 14.3818C4.99728 14.5586 5.06752 14.7282 5.19254 14.8532C5.31756 14.9783 5.48713 15.0485 5.66394 15.0485C5.84075 15.0485 6.01032 14.9783 6.13535 14.8532C6.26037 14.7282 6.33061 14.5586 6.33061 14.3818C6.32981 14.2053 6.25932 14.0362 6.13446 13.9113C6.00961 13.7865 5.84051 13.716 5.66394 13.7152V13.7152Z" fill="#8C7D5E"/>
<path id="Vector_4" d="M13.2323 16.2606C12.7343 16.2598 12.2569 16.0616 11.9047 15.7094C11.5525 15.3573 11.3543 14.8799 11.3535 14.3818C11.3543 13.8838 11.5525 13.4064 11.9047 13.0542C12.2569 12.7021 12.7343 12.5039 13.2323 12.5031C13.7303 12.5039 14.2078 12.7021 14.5599 13.0542C14.9121 13.4064 15.1103 13.8838 15.1111 14.3818C15.1103 14.8799 14.9121 15.3573 14.5599 15.7094C14.2078 16.0616 13.7303 16.2598 13.2323 16.2606V16.2606ZM13.2323 13.7152C13.0557 13.716 12.8866 13.7865 12.7618 13.9113C12.6369 14.0362 12.5664 14.2053 12.5656 14.3818C12.5656 14.5586 12.6359 14.7282 12.7609 14.8532C12.8859 14.9783 13.0555 15.0485 13.2323 15.0485C13.32 15.0489 13.4068 15.0319 13.4879 14.9986C13.569 14.9652 13.6426 14.9161 13.7046 14.8541C13.7666 14.7921 13.8157 14.7185 13.849 14.6374C13.8824 14.5564 13.8994 14.4695 13.899 14.3818C13.899 14.205 13.8287 14.0355 13.7037 13.9104C13.5787 13.7854 13.4091 13.7152 13.2323 13.7152V13.7152Z" fill="#8C7D5E"/>
<path id="Vector_5" d="M16.8259 0H2.06836V1.51515H16.8259V0Z" fill="#8C7D5E"/>
<path id="Vector_6" d="M7.07159 5.7233L5.43555 7.18506L6.24315 8.08895L7.87919 6.62719L7.07159 5.7233Z" fill="#8C7D5E"/>
<path id="Vector_7" d="M9.43974 5.72433L6.94727 7.95129L7.75487 8.85518L10.2473 6.62822L9.43974 5.72433Z" fill="#8C7D5E"/>
<path id="Vector_8" d="M3.72398 18.4318L2.79688 20.8121L4.20872 21.362L5.13583 18.9817L3.72398 18.4318Z" fill="#8C7D5E"/>
<path id="Vector_9" d="M17.5935 22.6788L17.448 22.0061C17.3874 21.7273 17.3086 21.4394 17.2238 21.1333C16.9208 20.0151 16.5693 18.7485 17.1086 17.5606C17.2564 17.21 17.4809 16.8971 17.7657 16.6448C18.0505 16.3925 18.3882 16.2074 18.7541 16.103C19.0886 16.0136 19.4389 15.9996 19.7795 16.0619C20.1201 16.1243 20.4426 16.2615 20.7238 16.4636C21.1224 16.7836 21.4379 17.195 21.6436 17.6629C21.8494 18.1308 21.9392 18.6415 21.9056 19.1515C21.8685 19.7701 21.7514 20.3812 21.5571 20.9697C21.5026 21.1576 21.448 21.3454 21.3995 21.5394L21.2874 21.9848H20.8299C19.9484 21.9817 19.073 22.1304 18.242 22.4242L17.5935 22.6788ZM19.3571 17.2242C19.2598 17.2241 19.163 17.2374 19.0692 17.2636C18.8767 17.3238 18.6999 17.426 18.5516 17.5627C18.4033 17.6995 18.2872 17.8675 18.2117 18.0545V18.0545C17.8541 18.8424 18.1177 19.797 18.3935 20.803C18.4208 20.9 18.445 21 18.4723 21.1061C19.0828 20.9333 19.7112 20.8316 20.345 20.803C20.345 20.7454 20.3753 20.6879 20.3935 20.6333C20.5584 20.1432 20.6603 19.634 20.6965 19.1182C20.7216 18.8069 20.6735 18.4941 20.5562 18.2047C20.4389 17.9154 20.2555 17.6574 20.0208 17.4515C19.8286 17.3086 19.5966 17.2291 19.3571 17.2242Z" fill="#8C7D5E"/>
<path id="Vector_10" d="M19.8866 26.9848C19.5662 26.986 19.2517 26.899 18.9775 26.7333C17.9321 26.1121 17.8594 25.0545 17.8018 24.206C17.8018 24.0212 17.7775 23.8333 17.7563 23.6484L17.6836 23.0424L18.2897 22.9757C19.1329 22.8713 19.9689 22.7144 20.7927 22.506L21.426 22.3545L21.5321 22.9969C21.5624 23.1848 21.6139 23.3787 21.6684 23.5848C21.767 23.9161 21.834 24.256 21.8684 24.5999V24.5999C21.9062 25.0142 21.8298 25.4308 21.6477 25.8047C21.4655 26.1786 21.1845 26.4956 20.8351 26.7212C20.5492 26.8946 20.221 26.9858 19.8866 26.9848V26.9848ZM19.0169 24.103C19.0155 24.11 19.0155 24.1172 19.0169 24.1242C19.0715 24.9606 19.123 25.409 19.5987 25.6909C19.6896 25.7494 19.796 25.7792 19.9041 25.7765C20.0122 25.7738 20.1169 25.7387 20.2048 25.6757C20.3654 25.5703 20.4944 25.4233 20.5782 25.2504C20.6619 25.0776 20.6973 24.8852 20.6806 24.6939C20.6508 24.4237 20.596 24.1569 20.5169 23.8969L20.4987 23.8272C20.02 23.9272 19.5321 24.0272 19.0169 24.103V24.103Z" fill="#8C7D5E"/>
<path id="Vector_11" d="M27.1599 22.6788L26.5114 22.4485C25.6836 22.1546 24.8111 22.007 23.9327 22.0121L23.472 21.997L23.3539 21.5515C23.3054 21.3576 23.2508 21.1697 23.1963 20.9818C23.002 20.3934 22.8849 19.7822 22.8478 19.1637C22.8117 18.6531 22.8988 18.1413 23.1018 17.6714C23.3049 17.2015 23.6179 16.7873 24.0145 16.4636C24.2964 16.2607 24.6199 16.1228 24.9615 16.0599C25.3032 15.997 25.6545 16.0107 25.9902 16.1C26.3589 16.2024 26.6996 16.3866 26.9872 16.639C27.2747 16.8913 27.5015 17.2054 27.6508 17.5576V17.5576C28.1902 18.7455 27.8418 20.0121 27.5357 21.1303C27.4508 21.4334 27.3721 21.7364 27.3114 22.003L27.1599 22.6788ZM24.4084 20.8152C25.0423 20.8432 25.6708 20.9449 26.2811 21.1182C26.3084 21.0212 26.3327 20.9212 26.3599 20.8152C26.6357 19.8091 26.8993 18.8546 26.5417 18.0667C26.4662 17.8796 26.3501 17.7117 26.2018 17.5749C26.0535 17.4381 25.8767 17.336 25.6842 17.2758C25.5216 17.2325 25.3514 17.2264 25.1862 17.2579C25.0209 17.2894 24.8649 17.3576 24.7296 17.4576C24.497 17.6636 24.3154 17.9209 24.1992 18.209C24.083 18.4972 24.0353 18.8084 24.0599 19.1182C24.0962 19.6341 24.198 20.1432 24.363 20.6333C24.3781 20.697 24.3933 20.7546 24.4084 20.8121V20.8152Z" fill="#8C7D5E"/>
<path id="Vector_12" d="M24.8655 26.9848C24.5266 26.983 24.1949 26.8864 23.908 26.706C23.5585 26.4804 23.2775 26.1635 23.0954 25.7896C22.9132 25.4157 22.8369 24.999 22.8746 24.5848V24.5848C22.9102 24.247 22.9772 23.9132 23.0746 23.5878C23.1292 23.3818 23.1807 23.1878 23.211 23L23.3171 22.3575L23.9504 22.5091C24.7741 22.7185 25.6101 22.8764 26.4534 22.9818L27.0595 23.0485L26.9868 23.6545C26.9655 23.8394 26.9534 24.0272 26.9413 24.2121C26.8837 25.0606 26.811 26.1181 25.7655 26.7394C25.4934 26.9013 25.1823 26.9862 24.8655 26.9848ZM24.0837 24.6939C24.0657 24.8841 24.0992 25.0757 24.1808 25.2484C24.2624 25.4212 24.389 25.5688 24.5474 25.6757C24.6352 25.7387 24.74 25.7738 24.8481 25.7765C24.9561 25.7792 25.0625 25.7494 25.1534 25.6909C25.6292 25.4091 25.6807 24.9606 25.7383 24.1242V24.103C25.2231 24.0272 24.7352 23.9272 24.2686 23.8242L24.2504 23.8969C24.1707 24.1568 24.1159 24.4237 24.0868 24.6939H24.0837Z" fill="#8C7D5E"/>
<path id="Vector_13" d="M13.0237 19.3909H2.0025C1.61565 19.3901 1.24491 19.2358 0.97165 18.962C0.698388 18.6882 0.544921 18.3171 0.544922 17.9303V5.13936C0.545724 4.40182 0.839064 3.69472 1.36058 3.17321C1.8821 2.65169 2.5892 2.35835 3.32674 2.35754H15.5722C16.3095 2.35835 17.0162 2.65178 17.5373 3.17339C18.0583 3.695 18.351 4.4021 18.351 5.13936V12.4969H16.8358V5.13936C16.8358 4.80394 16.7028 4.48222 16.4659 4.24476C16.229 4.0073 15.9076 3.8735 15.5722 3.8727H3.32674C3.1604 3.8727 2.99569 3.90546 2.84201 3.96911C2.68833 4.03277 2.54869 4.12608 2.43107 4.2437C2.31345 4.36132 2.22015 4.50095 2.15649 4.65463C2.09283 4.80831 2.06007 4.97302 2.06007 5.13936V17.8666H13.0237V19.3909Z" fill="#8C7D5E"/>
</g>
<defs>
<clipPath id="clip0_3126_20657">
<rect width="30.9091" height="30" fill="white" transform="translate(0.544922)"/>
</clipPath>
</defs>
</svg>
