<svg width="43" height="27" viewBox="0 0 43 27" fill="none" xmlns="http://www.w3.org/2000/svg">
<path d="M5.32502 10.297L4.86302 10.033C5.25902 9.48299 5.39102 8.52599 5.42402 7.59099L5.93002 7.68999C5.87502 8.66899 5.75402 9.70299 5.32502 10.297ZM6.19402 7.71199L6.62302 7.65699C6.74402 8.29499 6.82102 9.11999 6.81002 9.65899L6.34802 9.72499C6.38102 9.17499 6.30402 8.36099 6.19402 7.71199ZM6.19402 5.20399V6.20499H7.26102V5.20399H6.19402ZM7.26102 1.93699H6.19402V2.90499H7.26102V1.93699ZM7.26102 4.54399V3.55399H6.19402V4.54399H7.26102ZM7.95402 6.20499H9.63702C9.63702 6.20499 9.63702 6.42499 9.62602 6.53499C9.48302 9.24099 9.36202 10.209 9.08702 10.539C8.92202 10.737 8.74602 10.803 8.48202 10.825C8.26202 10.847 7.87702 10.847 7.48102 10.825C7.45902 10.627 7.39302 10.341 7.29402 10.165C7.67902 10.187 8.03102 10.198 8.17402 10.198C8.31702 10.198 8.40502 10.176 8.49302 10.088C8.60302 9.94499 8.70202 9.54899 8.77902 8.70199L8.42702 8.85599C8.31702 8.45999 8.05302 7.86599 7.78902 7.42599L8.17402 7.28299C8.41602 7.66799 8.65802 8.18499 8.79002 8.55899C8.83402 8.11899 8.86702 7.56899 8.91102 6.87599H5.49002V1.24399H9.53802V1.93699H7.95402V2.90499H9.31802V3.55399H7.95402V4.54399H9.31802V5.20399H7.95402V6.20499ZM7.87702 9.26299L7.44802 9.36199C7.40402 8.88899 7.21702 8.15199 7.01902 7.59099L7.41502 7.50299C7.64602 8.05299 7.83302 8.78999 7.87702 9.26299ZM12.75 9.69199H15.104V10.451H9.54902V9.69199H11.958V6.78799H10.121V6.02899H11.958V3.56499H9.86802V2.79499H12.948C12.431 2.31099 11.518 1.70599 10.748 1.32099L11.243 0.748993C12.057 1.14499 13.091 1.78299 13.597 2.27799L13.168 2.79499H14.884V3.56499H12.75V6.02899H14.675V6.78799H12.75V9.69199Z" fill="#262626"/>
<path d="M5.32502 10.297L4.86302 10.033C5.25902 9.48299 5.39102 8.52599 5.42402 7.59099L5.93002 7.68999C5.87502 8.66899 5.75402 9.70299 5.32502 10.297ZM6.19402 7.71199L6.62302 7.65699C6.74402 8.29499 6.82102 9.11999 6.81002 9.65899L6.34802 9.72499C6.38102 9.17499 6.30402 8.36099 6.19402 7.71199ZM6.19402 5.20399V6.20499H7.26102V5.20399H6.19402ZM7.26102 1.93699H6.19402V2.90499H7.26102V1.93699ZM7.26102 4.54399V3.55399H6.19402V4.54399H7.26102ZM7.95402 6.20499H9.63702C9.63702 6.20499 9.63702 6.42499 9.62602 6.53499C9.48302 9.24099 9.36202 10.209 9.08702 10.539C8.92202 10.737 8.74602 10.803 8.48202 10.825C8.26202 10.847 7.87702 10.847 7.48102 10.825C7.45902 10.627 7.39302 10.341 7.29402 10.165C7.67902 10.187 8.03102 10.198 8.17402 10.198C8.31702 10.198 8.40502 10.176 8.49302 10.088C8.60302 9.94499 8.70202 9.54899 8.77902 8.70199L8.42702 8.85599C8.31702 8.45999 8.05302 7.86599 7.78902 7.42599L8.17402 7.28299C8.41602 7.66799 8.65802 8.18499 8.79002 8.55899C8.83402 8.11899 8.86702 7.56899 8.91102 6.87599H5.49002V1.24399H9.53802V1.93699H7.95402V2.90499H9.31802V3.55399H7.95402V4.54399H9.31802V5.20399H7.95402V6.20499ZM7.87702 9.26299L7.44802 9.36199C7.40402 8.88899 7.21702 8.15199 7.01902 7.59099L7.41502 7.50299C7.64602 8.05299 7.83302 8.78999 7.87702 9.26299ZM12.75 9.69199H15.104V10.451H9.54902V9.69199H11.958V6.78799H10.121V6.02899H11.958V3.56499H9.86802V2.79499H12.948C12.431 2.31099 11.518 1.70599 10.748 1.32099L11.243 0.748993C12.057 1.14499 13.091 1.78299 13.597 2.27799L13.168 2.79499H14.884V3.56499H12.75V6.02899H14.675V6.78799H12.75V9.69199Z" fill="black"/>
<path d="M24.069 7.60199H24.971V6.11699H24.069V7.60199ZM22.639 7.60199H23.519V6.11699H22.639V7.60199ZM21.231 7.60199H22.089V6.11699H21.231V7.60199ZM25.675 5.42399V10.077C25.675 10.396 25.62 10.594 25.411 10.715C25.202 10.814 24.916 10.836 24.487 10.825C24.454 10.649 24.355 10.363 24.267 10.176H24.872C24.949 10.176 24.971 10.154 24.971 10.066V8.29499H24.069V10.682H23.519V8.29499H22.639V10.682H22.089V8.29499H21.231V10.836H20.582V5.42399H25.675ZM21.264 3.80699H24.927V4.49999H21.264V3.80699ZM19.416 5.11599V4.13699H18.448V5.11599H19.416ZM19.416 6.69999V5.69899H18.448V6.69999H19.416ZM16.919 5.69899V6.69999H17.865V5.69899H16.919ZM16.919 4.13699V5.11599H17.865V4.13699H16.919ZM22.65 0.836992H23.387C24.069 1.92599 25.147 3.01499 26.137 3.59799C25.994 3.77399 25.807 4.07099 25.686 4.29099C24.718 3.63099 23.662 2.54199 23.046 1.58499C22.507 2.53099 21.528 3.63099 20.472 4.33499C20.384 4.13699 20.197 3.86199 20.054 3.70799V7.31599H18.514V8.20699H20.241V8.93299H18.514V10.847H17.81V8.93299H15.962V8.20699H17.81V7.31599H16.314V3.52099H17.81V2.70699H16.105V1.99199H17.81V0.803993H18.503V1.99199H20.197V2.70699H18.503V3.52099H20.054V3.68599C21.121 3.00399 22.144 1.83799 22.65 0.836992Z" fill="#262626"/>
<path d="M24.069 7.60199H24.971V6.11699H24.069V7.60199ZM22.639 7.60199H23.519V6.11699H22.639V7.60199ZM21.231 7.60199H22.089V6.11699H21.231V7.60199ZM25.675 5.42399V10.077C25.675 10.396 25.62 10.594 25.411 10.715C25.202 10.814 24.916 10.836 24.487 10.825C24.454 10.649 24.355 10.363 24.267 10.176H24.872C24.949 10.176 24.971 10.154 24.971 10.066V8.29499H24.069V10.682H23.519V8.29499H22.639V10.682H22.089V8.29499H21.231V10.836H20.582V5.42399H25.675ZM21.264 3.80699H24.927V4.49999H21.264V3.80699ZM19.416 5.11599V4.13699H18.448V5.11599H19.416ZM19.416 6.69999V5.69899H18.448V6.69999H19.416ZM16.919 5.69899V6.69999H17.865V5.69899H16.919ZM16.919 4.13699V5.11599H17.865V4.13699H16.919ZM22.65 0.836992H23.387C24.069 1.92599 25.147 3.01499 26.137 3.59799C25.994 3.77399 25.807 4.07099 25.686 4.29099C24.718 3.63099 23.662 2.54199 23.046 1.58499C22.507 2.53099 21.528 3.63099 20.472 4.33499C20.384 4.13699 20.197 3.86199 20.054 3.70799V7.31599H18.514V8.20699H20.241V8.93299H18.514V10.847H17.81V8.93299H15.962V8.20699H17.81V7.31599H16.314V3.52099H17.81V2.70699H16.105V1.99199H17.81V0.803993H18.503V1.99199H20.197V2.70699H18.503V3.52099H20.054V3.68599C21.121 3.00399 22.144 1.83799 22.65 0.836992Z" fill="black"/>
<path d="M35.487 2.60799V1.73899H31.967V2.60799H35.487ZM35.487 4.05999V3.17999H31.967V4.05999H35.487ZM36.246 1.12299V4.67599H31.219V1.12299H36.246ZM30.284 6.52399L30.46 7.24999C29.349 7.81099 28.15 8.39399 27.226 8.83399L26.907 8.03099C27.325 7.85499 27.842 7.63499 28.403 7.38199V3.93899H27.116V3.16899H28.403V0.880992H29.162V3.16899H30.35V3.93899H29.162V7.02999L30.284 6.52399ZM37.027 5.98499H32.506C32.363 6.24899 32.209 6.51299 32.033 6.75499H36.763C36.763 6.75499 36.752 6.97499 36.73 7.08499C36.565 9.35099 36.389 10.209 36.081 10.528C35.916 10.715 35.718 10.77 35.465 10.803C35.223 10.814 34.816 10.814 34.376 10.792C34.376 10.594 34.299 10.297 34.189 10.132C34.596 10.165 34.959 10.176 35.124 10.176C35.278 10.176 35.377 10.165 35.454 10.055C35.641 9.85699 35.806 9.16399 35.949 7.43699H35.091C34.651 8.74599 33.793 10.165 32.847 10.88C32.715 10.715 32.462 10.528 32.264 10.407C33.155 9.81299 33.958 8.62499 34.409 7.43699H33.342C32.759 8.56999 31.681 9.76899 30.669 10.407C30.548 10.231 30.328 10.033 30.13 9.90099C31.043 9.40599 32.011 8.41599 32.605 7.43699H31.494C31.054 7.93199 30.559 8.36099 30.064 8.69099C29.954 8.55899 29.668 8.29499 29.503 8.18499C30.372 7.66799 31.164 6.88699 31.681 5.98499H30.141V5.29199H37.027V5.98499Z" fill="#262626"/>
<path d="M35.487 2.60799V1.73899H31.967V2.60799H35.487ZM35.487 4.05999V3.17999H31.967V4.05999H35.487ZM36.246 1.12299V4.67599H31.219V1.12299H36.246ZM30.284 6.52399L30.46 7.24999C29.349 7.81099 28.15 8.39399 27.226 8.83399L26.907 8.03099C27.325 7.85499 27.842 7.63499 28.403 7.38199V3.93899H27.116V3.16899H28.403V0.880992H29.162V3.16899H30.35V3.93899H29.162V7.02999L30.284 6.52399ZM37.027 5.98499H32.506C32.363 6.24899 32.209 6.51299 32.033 6.75499H36.763C36.763 6.75499 36.752 6.97499 36.73 7.08499C36.565 9.35099 36.389 10.209 36.081 10.528C35.916 10.715 35.718 10.77 35.465 10.803C35.223 10.814 34.816 10.814 34.376 10.792C34.376 10.594 34.299 10.297 34.189 10.132C34.596 10.165 34.959 10.176 35.124 10.176C35.278 10.176 35.377 10.165 35.454 10.055C35.641 9.85699 35.806 9.16399 35.949 7.43699H35.091C34.651 8.74599 33.793 10.165 32.847 10.88C32.715 10.715 32.462 10.528 32.264 10.407C33.155 9.81299 33.958 8.62499 34.409 7.43699H33.342C32.759 8.56999 31.681 9.76899 30.669 10.407C30.548 10.231 30.328 10.033 30.13 9.90099C31.043 9.40599 32.011 8.41599 32.605 7.43699H31.494C31.054 7.93199 30.559 8.36099 30.064 8.69099C29.954 8.55899 29.668 8.29499 29.503 8.18499C30.372 7.66799 31.164 6.88699 31.681 5.98499H30.141V5.29199H37.027V5.98499Z" fill="black"/>
<path d="M0.64502 20.82C0.64502 18.675 1.51402 16.926 2.83402 15.584L3.49402 15.925C2.22902 17.234 1.44802 18.862 1.44802 20.82C1.44802 22.778 2.22902 24.406 3.49402 25.715L2.83402 26.056C1.51402 24.714 0.64502 22.965 0.64502 20.82Z" fill="#262626"/>
<path d="M0.64502 20.82C0.64502 18.675 1.51402 16.926 2.83402 15.584L3.49402 15.925C2.22902 17.234 1.44802 18.862 1.44802 20.82C1.44802 22.778 2.22902 24.406 3.49402 25.715L2.83402 26.056C1.51402 24.714 0.64502 22.965 0.64502 20.82Z" fill="black"/>
<path d="M9.13902 19.006H7.82502C7.64502 20.599 7.11402 21.526 4.99902 22.003C4.93602 21.841 4.76502 21.58 4.63002 21.445C6.55602 21.067 6.97902 20.32 7.13202 19.006H5.39502V20.203H4.73802V18.403H8.14002V17.467H8.81502V18.403H12.289V20.005H11.614V19.006H9.79602V20.788C9.79602 21.013 9.85002 21.049 10.183 21.049H11.335C11.596 21.049 11.65 20.95 11.677 20.32C11.803 20.419 12.082 20.518 12.253 20.563C12.19 21.409 12.001 21.625 11.398 21.625H10.111C9.32802 21.625 9.13902 21.454 9.13902 20.788V19.006ZM8.81502 24.802H12.433V25.414H4.56702V24.802H8.14002V22.993H5.50302V22.39H11.659V22.993H8.81502V24.802Z" fill="#262626"/>
<path d="M9.13902 19.006H7.82502C7.64502 20.599 7.11402 21.526 4.99902 22.003C4.93602 21.841 4.76502 21.58 4.63002 21.445C6.55602 21.067 6.97902 20.32 7.13202 19.006H5.39502V20.203H4.73802V18.403H8.14002V17.467H8.81502V18.403H12.289V20.005H11.614V19.006H9.79602V20.788C9.79602 21.013 9.85002 21.049 10.183 21.049H11.335C11.596 21.049 11.65 20.95 11.677 20.32C11.803 20.419 12.082 20.518 12.253 20.563C12.19 21.409 12.001 21.625 11.398 21.625H10.111C9.32802 21.625 9.13902 21.454 9.13902 20.788V19.006ZM8.81502 24.802H12.433V25.414H4.56702V24.802H8.14002V22.993H5.50302V22.39H11.659V22.993H8.81502V24.802Z" fill="black"/>
<path d="M17.518 18.718C17.446 18.448 17.356 18.169 17.266 17.917L18.031 17.818C18.067 18.16 18.148 18.529 18.247 18.889C18.886 18.808 19.516 18.673 20.092 18.484L20.191 19.132C19.678 19.276 19.039 19.411 18.418 19.492C18.481 19.717 18.553 19.924 18.616 20.113C18.679 20.284 18.751 20.473 18.823 20.653C19.57 20.563 20.2 20.401 20.623 20.266L20.731 20.941C20.299 21.058 19.732 21.175 19.102 21.265C19.291 21.652 19.498 22.039 19.732 22.381C19.831 22.525 19.939 22.642 20.065 22.768L19.696 23.317C19.192 23.182 18.346 23.101 17.725 23.029L17.788 22.48C18.265 22.534 18.85 22.597 19.138 22.633C18.868 22.219 18.634 21.778 18.436 21.337C17.338 21.436 15.862 21.454 14.476 21.355L14.44 20.68C15.79 20.824 17.158 20.815 18.175 20.725C18.112 20.563 18.049 20.41 17.995 20.257C17.905 20.005 17.824 19.771 17.752 19.555C16.879 19.609 15.781 19.591 14.656 19.492L14.611 18.835C15.691 18.961 16.717 18.988 17.581 18.943C17.554 18.871 17.536 18.79 17.518 18.718ZM15.745 22.615C15.529 22.93 15.367 23.236 15.367 23.632C15.367 24.379 16.033 24.748 17.446 24.748C18.283 24.748 18.94 24.694 19.588 24.559L19.561 25.279C18.931 25.378 18.22 25.432 17.455 25.432C15.691 25.432 14.701 24.91 14.692 23.758C14.683 23.245 14.845 22.867 15.043 22.471L15.745 22.615Z" fill="#262626"/>
<path d="M17.518 18.718C17.446 18.448 17.356 18.169 17.266 17.917L18.031 17.818C18.067 18.16 18.148 18.529 18.247 18.889C18.886 18.808 19.516 18.673 20.092 18.484L20.191 19.132C19.678 19.276 19.039 19.411 18.418 19.492C18.481 19.717 18.553 19.924 18.616 20.113C18.679 20.284 18.751 20.473 18.823 20.653C19.57 20.563 20.2 20.401 20.623 20.266L20.731 20.941C20.299 21.058 19.732 21.175 19.102 21.265C19.291 21.652 19.498 22.039 19.732 22.381C19.831 22.525 19.939 22.642 20.065 22.768L19.696 23.317C19.192 23.182 18.346 23.101 17.725 23.029L17.788 22.48C18.265 22.534 18.85 22.597 19.138 22.633C18.868 22.219 18.634 21.778 18.436 21.337C17.338 21.436 15.862 21.454 14.476 21.355L14.44 20.68C15.79 20.824 17.158 20.815 18.175 20.725C18.112 20.563 18.049 20.41 17.995 20.257C17.905 20.005 17.824 19.771 17.752 19.555C16.879 19.609 15.781 19.591 14.656 19.492L14.611 18.835C15.691 18.961 16.717 18.988 17.581 18.943C17.554 18.871 17.536 18.79 17.518 18.718ZM15.745 22.615C15.529 22.93 15.367 23.236 15.367 23.632C15.367 24.379 16.033 24.748 17.446 24.748C18.283 24.748 18.94 24.694 19.588 24.559L19.561 25.279C18.931 25.378 18.22 25.432 17.455 25.432C15.691 25.432 14.701 24.91 14.692 23.758C14.683 23.245 14.845 22.867 15.043 22.471L15.745 22.615Z" fill="black"/>
<path d="M26.059 17.854C25.978 18.178 25.852 18.727 25.708 19.249C26.176 19.177 26.662 19.069 27.121 18.916L27.139 19.591C26.662 19.726 26.095 19.843 25.501 19.924C25.06 21.193 24.259 22.75 23.539 23.722L22.846 23.362C23.593 22.489 24.358 21.049 24.772 19.996C24.502 20.014 24.232 20.023 23.971 20.023C23.638 20.023 23.26 20.014 22.918 19.996L22.873 19.321C23.206 19.366 23.593 19.384 23.971 19.384C24.295 19.384 24.637 19.366 24.988 19.339C25.123 18.835 25.249 18.268 25.267 17.782L26.059 17.854ZM25.564 24.1C25.564 24.523 25.906 24.811 26.608 24.811C27.355 24.811 27.607 24.415 27.607 23.92C27.607 23.803 27.607 23.668 27.598 23.515C27.31 23.425 26.995 23.38 26.671 23.38C26.014 23.38 25.564 23.686 25.564 24.1ZM28.183 20.635C28.165 21.004 28.165 21.283 28.174 21.607C28.183 21.94 28.219 22.525 28.237 23.083C29.011 23.362 29.641 23.803 30.109 24.199L29.722 24.811C29.335 24.469 28.849 24.064 28.264 23.776C28.273 23.92 28.273 24.046 28.273 24.154C28.273 24.874 27.814 25.459 26.698 25.459C25.708 25.459 24.898 25.054 24.898 24.163C24.898 23.335 25.681 22.813 26.698 22.813C27.004 22.813 27.301 22.84 27.58 22.903C27.544 22.165 27.499 21.274 27.481 20.635H28.183ZM29.983 20.878C29.497 20.464 28.525 19.906 27.922 19.636L28.291 19.087C28.939 19.375 29.965 19.96 30.388 20.284L29.983 20.878Z" fill="#262626"/>
<path d="M26.059 17.854C25.978 18.178 25.852 18.727 25.708 19.249C26.176 19.177 26.662 19.069 27.121 18.916L27.139 19.591C26.662 19.726 26.095 19.843 25.501 19.924C25.06 21.193 24.259 22.75 23.539 23.722L22.846 23.362C23.593 22.489 24.358 21.049 24.772 19.996C24.502 20.014 24.232 20.023 23.971 20.023C23.638 20.023 23.26 20.014 22.918 19.996L22.873 19.321C23.206 19.366 23.593 19.384 23.971 19.384C24.295 19.384 24.637 19.366 24.988 19.339C25.123 18.835 25.249 18.268 25.267 17.782L26.059 17.854ZM25.564 24.1C25.564 24.523 25.906 24.811 26.608 24.811C27.355 24.811 27.607 24.415 27.607 23.92C27.607 23.803 27.607 23.668 27.598 23.515C27.31 23.425 26.995 23.38 26.671 23.38C26.014 23.38 25.564 23.686 25.564 24.1ZM28.183 20.635C28.165 21.004 28.165 21.283 28.174 21.607C28.183 21.94 28.219 22.525 28.237 23.083C29.011 23.362 29.641 23.803 30.109 24.199L29.722 24.811C29.335 24.469 28.849 24.064 28.264 23.776C28.273 23.92 28.273 24.046 28.273 24.154C28.273 24.874 27.814 25.459 26.698 25.459C25.708 25.459 24.898 25.054 24.898 24.163C24.898 23.335 25.681 22.813 26.698 22.813C27.004 22.813 27.301 22.84 27.58 22.903C27.544 22.165 27.499 21.274 27.481 20.635H28.183ZM29.983 20.878C29.497 20.464 28.525 19.906 27.922 19.636L28.291 19.087C28.939 19.375 29.965 19.96 30.388 20.284L29.983 20.878Z" fill="black"/>
<path d="M34.06 17.989C34.015 18.286 33.988 18.601 33.979 18.898C33.934 19.915 33.871 22.039 33.871 23.38C33.871 24.37 34.492 24.721 35.347 24.721C36.994 24.721 37.921 23.794 38.569 22.858L39.082 23.47C38.461 24.325 37.3 25.459 35.32 25.459C34.024 25.459 33.133 24.919 33.133 23.452C33.133 22.12 33.223 19.843 33.223 18.898C33.223 18.565 33.205 18.241 33.151 17.98L34.06 17.989Z" fill="#262626"/>
<path d="M34.06 17.989C34.015 18.286 33.988 18.601 33.979 18.898C33.934 19.915 33.871 22.039 33.871 23.38C33.871 24.37 34.492 24.721 35.347 24.721C36.994 24.721 37.921 23.794 38.569 22.858L39.082 23.47C38.461 24.325 37.3 25.459 35.32 25.459C34.024 25.459 33.133 24.919 33.133 23.452C33.133 22.12 33.223 19.843 33.223 18.898C33.223 18.565 33.205 18.241 33.151 17.98L34.06 17.989Z" fill="black"/>
<path d="M42.745 21.58C42.745 23.335 42.034 24.766 40.954 25.864L40.414 25.585C41.449 24.514 42.088 23.182 42.088 21.58C42.088 19.978 41.449 18.646 40.414 17.575L40.954 17.296C42.034 18.394 42.745 19.825 42.745 21.58Z" fill="#262626"/>
<path d="M42.745 21.58C42.745 23.335 42.034 24.766 40.954 25.864L40.414 25.585C41.449 24.514 42.088 23.182 42.088 21.58C42.088 19.978 41.449 18.646 40.414 17.575L40.954 17.296C42.034 18.394 42.745 19.825 42.745 21.58Z" fill="black"/>
</svg>
