<svg width="34" height="11" viewBox="0 0 34 11" fill="none" xmlns="http://www.w3.org/2000/svg">
<path d="M1.32501 10.264L0.863007 10C1.25901 9.43901 1.39101 8.46001 1.42401 7.49201L1.93001 7.59101C1.87501 8.59201 1.75401 9.64801 1.32501 10.264ZM2.19401 7.72301L2.62301 7.66801C2.74401 8.30601 2.82101 9.12001 2.81001 9.65901L2.34801 9.73601C2.38101 9.18601 2.30401 8.37201 2.19401 7.72301ZM2.19401 5.20401V6.20501H3.26101V5.20401H2.19401ZM3.26101 1.93701H2.19401V2.90501H3.26101V1.93701ZM3.26101 4.54401V3.55401H2.19401V4.54401H3.26101ZM3.95401 6.20501H5.63701C5.63701 6.20501 5.63701 6.42501 5.62601 6.53501C5.48301 9.24101 5.36201 10.209 5.08701 10.539C4.92201 10.737 4.74601 10.803 4.48201 10.825C4.26201 10.847 3.87701 10.847 3.48101 10.825C3.45901 10.627 3.39301 10.341 3.29401 10.165C3.67901 10.187 4.03101 10.198 4.17401 10.198C4.31701 10.198 4.40501 10.176 4.49301 10.088C4.60301 9.94501 4.70201 9.54901 4.77901 8.70201L4.42701 8.85601C4.31701 8.46001 4.05301 7.86601 3.78901 7.42601L4.17401 7.28301C4.41601 7.66801 4.65801 8.18501 4.79001 8.55901C4.83401 8.11901 4.86701 7.56901 4.91101 6.87601H1.49001V1.24401H5.53801V1.93701H3.95401V2.90501H5.31801V3.55401H3.95401V4.54401H5.31801V5.20401H3.95401V6.20501ZM3.87701 9.26301L3.44801 9.37301C3.40401 8.90001 3.21701 8.16301 3.01901 7.60201L3.41501 7.51401C3.64601 8.06401 3.83301 8.79001 3.87701 9.26301ZM9.89401 2.00301H7.15501V4.96201H9.89401V2.00301ZM10.642 5.72101H8.89301C9.21201 7.73401 9.88301 9.41701 11.126 10.209C10.95 10.374 10.697 10.671 10.576 10.88C9.19001 9.89001 8.50801 8.05301 8.15601 5.72101H7.15501C7.13301 7.36001 6.93501 9.47201 5.92301 10.858C5.79101 10.715 5.45001 10.517 5.27401 10.44C6.29701 9.02101 6.38501 6.97501 6.38501 5.39101V1.24401H10.642V5.72101Z" fill="#262626"/>
<path d="M1.32501 10.264L0.863007 10C1.25901 9.43901 1.39101 8.46001 1.42401 7.49201L1.93001 7.59101C1.87501 8.59201 1.75401 9.64801 1.32501 10.264ZM2.19401 7.72301L2.62301 7.66801C2.74401 8.30601 2.82101 9.12001 2.81001 9.65901L2.34801 9.73601C2.38101 9.18601 2.30401 8.37201 2.19401 7.72301ZM2.19401 5.20401V6.20501H3.26101V5.20401H2.19401ZM3.26101 1.93701H2.19401V2.90501H3.26101V1.93701ZM3.26101 4.54401V3.55401H2.19401V4.54401H3.26101ZM3.95401 6.20501H5.63701C5.63701 6.20501 5.63701 6.42501 5.62601 6.53501C5.48301 9.24101 5.36201 10.209 5.08701 10.539C4.92201 10.737 4.74601 10.803 4.48201 10.825C4.26201 10.847 3.87701 10.847 3.48101 10.825C3.45901 10.627 3.39301 10.341 3.29401 10.165C3.67901 10.187 4.03101 10.198 4.17401 10.198C4.31701 10.198 4.40501 10.176 4.49301 10.088C4.60301 9.94501 4.70201 9.54901 4.77901 8.70201L4.42701 8.85601C4.31701 8.46001 4.05301 7.86601 3.78901 7.42601L4.17401 7.28301C4.41601 7.66801 4.65801 8.18501 4.79001 8.55901C4.83401 8.11901 4.86701 7.56901 4.91101 6.87601H1.49001V1.24401H5.53801V1.93701H3.95401V2.90501H5.31801V3.55401H3.95401V4.54401H5.31801V5.20401H3.95401V6.20501ZM3.87701 9.26301L3.44801 9.37301C3.40401 8.90001 3.21701 8.16301 3.01901 7.60201L3.41501 7.51401C3.64601 8.06401 3.83301 8.79001 3.87701 9.26301ZM9.89401 2.00301H7.15501V4.96201H9.89401V2.00301ZM10.642 5.72101H8.89301C9.21201 7.73401 9.88301 9.41701 11.126 10.209C10.95 10.374 10.697 10.671 10.576 10.88C9.19001 9.89001 8.50801 8.05301 8.15601 5.72101H7.15501C7.13301 7.36001 6.93501 9.47201 5.92301 10.858C5.79101 10.715 5.45001 10.517 5.27401 10.44C6.29701 9.02101 6.38501 6.97501 6.38501 5.39101V1.24401H10.642V5.72101Z" fill="black"/>
<path d="M19.783 4.96201V4.08201H15.592V4.96201H19.783ZM19.783 6.44701V5.55601H15.592V6.44701H19.783ZM19.783 7.96501V7.04101H15.592V7.96501H19.783ZM14.811 3.45501H16.483C16.527 3.18001 16.571 2.88301 16.604 2.56401H12.226V1.80501H16.681C16.714 1.43101 16.736 1.06801 16.747 0.76001L17.682 0.826009C17.649 1.14501 17.605 1.47501 17.561 1.80501H21.818V2.56401H17.451C17.407 2.88301 17.352 3.18001 17.308 3.45501H20.586V8.57001H14.811V3.45501ZM21.917 9.51601V10.264H13.59V10.847H12.798V3.76301H13.59V9.51601H21.917Z" fill="#262626"/>
<path d="M19.783 4.96201V4.08201H15.592V4.96201H19.783ZM19.783 6.44701V5.55601H15.592V6.44701H19.783ZM19.783 7.96501V7.04101H15.592V7.96501H19.783ZM14.811 3.45501H16.483C16.527 3.18001 16.571 2.88301 16.604 2.56401H12.226V1.80501H16.681C16.714 1.43101 16.736 1.06801 16.747 0.76001L17.682 0.826009C17.649 1.14501 17.605 1.47501 17.561 1.80501H21.818V2.56401H17.451C17.407 2.88301 17.352 3.18001 17.308 3.45501H20.586V8.57001H14.811V3.45501ZM21.917 9.51601V10.264H13.59V10.847H12.798V3.76301H13.59V9.51601H21.917Z" fill="black"/>
<path d="M23.534 7.03001L24.238 7.16201C24.084 8.19601 23.82 9.25201 23.457 9.95601C23.325 9.85701 22.995 9.70301 22.819 9.64801C23.182 8.97701 23.413 7.99801 23.534 7.03001ZM25.921 7.18401L26.537 6.98601C26.856 7.65701 27.175 8.52601 27.274 9.09801L26.625 9.31801C26.526 8.74601 26.218 7.86601 25.921 7.18401ZM25.646 4.57701L26.251 4.31301C26.702 5.01701 27.186 5.95201 27.34 6.54601L26.691 6.85401C26.647 6.66701 26.581 6.45801 26.482 6.21601L25.525 6.28201V10.858H24.788V6.32601C24.128 6.35901 23.523 6.39201 22.995 6.41401L22.929 5.67701C23.149 5.67701 23.402 5.66601 23.655 5.65501C23.897 5.36901 24.15 5.02801 24.392 4.67601C24.062 4.18101 23.468 3.55401 22.951 3.09201L23.369 2.56401C23.479 2.65201 23.589 2.75101 23.699 2.85001C24.062 2.23401 24.447 1.40901 24.678 0.80401L25.404 1.07901C25.03 1.81601 24.568 2.69601 24.15 3.29001C24.414 3.55401 24.645 3.81801 24.821 4.04901C25.272 3.35601 25.69 2.64101 25.998 2.04701L26.702 2.35501C26.064 3.38901 25.195 4.68701 24.425 5.62201C24.975 5.60001 25.58 5.57801 26.185 5.54501C26.02 5.21501 25.833 4.87401 25.646 4.57701ZM31.685 7.41501H28.517V9.53801H31.685V7.41501ZM27.758 10.825V6.67801H32.477V10.792H31.685V10.275H28.517V10.825H27.758ZM33.027 3.09201H30.42V4.74201H32.785V5.47901H27.406V4.74201H29.595V3.09201H27.065V2.34401H29.595V0.79301H30.42V2.34401H33.027V3.09201Z" fill="#262626"/>
<path d="M23.534 7.03001L24.238 7.16201C24.084 8.19601 23.82 9.25201 23.457 9.95601C23.325 9.85701 22.995 9.70301 22.819 9.64801C23.182 8.97701 23.413 7.99801 23.534 7.03001ZM25.921 7.18401L26.537 6.98601C26.856 7.65701 27.175 8.52601 27.274 9.09801L26.625 9.31801C26.526 8.74601 26.218 7.86601 25.921 7.18401ZM25.646 4.57701L26.251 4.31301C26.702 5.01701 27.186 5.95201 27.34 6.54601L26.691 6.85401C26.647 6.66701 26.581 6.45801 26.482 6.21601L25.525 6.28201V10.858H24.788V6.32601C24.128 6.35901 23.523 6.39201 22.995 6.41401L22.929 5.67701C23.149 5.67701 23.402 5.66601 23.655 5.65501C23.897 5.36901 24.15 5.02801 24.392 4.67601C24.062 4.18101 23.468 3.55401 22.951 3.09201L23.369 2.56401C23.479 2.65201 23.589 2.75101 23.699 2.85001C24.062 2.23401 24.447 1.40901 24.678 0.80401L25.404 1.07901C25.03 1.81601 24.568 2.69601 24.15 3.29001C24.414 3.55401 24.645 3.81801 24.821 4.04901C25.272 3.35601 25.69 2.64101 25.998 2.04701L26.702 2.35501C26.064 3.38901 25.195 4.68701 24.425 5.62201C24.975 5.60001 25.58 5.57801 26.185 5.54501C26.02 5.21501 25.833 4.87401 25.646 4.57701ZM31.685 7.41501H28.517V9.53801H31.685V7.41501ZM27.758 10.825V6.67801H32.477V10.792H31.685V10.275H28.517V10.825H27.758ZM33.027 3.09201H30.42V4.74201H32.785V5.47901H27.406V4.74201H29.595V3.09201H27.065V2.34401H29.595V0.79301H30.42V2.34401H33.027V3.09201Z" fill="black"/>
</svg>
