<?xml version="1.0" encoding="UTF-8"?><svg id="_イヤー_2" xmlns="http://www.w3.org/2000/svg" viewBox="0 0 194.93 31.49"><defs><style>.cls-1{fill:#5e5148;stroke:#5e5148;stroke-miterlimit:10;stroke-width:.57px;}</style></defs><g id="_イヤー_2-2"><g><path class="cls-1" d="M3.69,22.8c-.13,.4-.25,.78-.36,1.14-.11,.36-.16,.77-.16,1.22,0,.91,.21,1.71,.64,2.4,.43,.69,.99,1.27,1.68,1.72,.69,.45,1.47,.8,2.32,1.04,.85,.24,1.72,.36,2.6,.36,1.17,0,2.23-.17,3.16-.5,.93-.33,1.72-.8,2.36-1.4,.64-.6,1.13-1.31,1.46-2.12,.33-.81,.5-1.7,.5-2.66s-.22-1.86-.66-2.62-1.05-1.5-1.82-2.22l-2.84-2.6c-1.28-1.15-2.29-2.29-3.02-3.42-.73-1.13-1.1-2.42-1.1-3.86,0-1.12,.25-2.15,.76-3.08,.51-.93,1.19-1.73,2.04-2.4,.85-.67,1.83-1.19,2.94-1.56,1.11-.37,2.25-.56,3.42-.56,.83,0,1.55,.07,2.18,.22,.63,.15,1.2,.31,1.72,.5,.52,.19,1,.35,1.44,.5,.44,.15,.89,.22,1.34,.22,.4,0,.71-.09,.92-.28,.21-.19,.39-.44,.52-.76l.6,.12-2.76,7.64h-.48c.05-.21,.13-.51,.22-.9,.09-.39,.14-.87,.14-1.46,0-.96-.16-1.77-.48-2.44-.32-.67-.75-1.21-1.28-1.62-.53-.41-1.15-.71-1.86-.9-.71-.19-1.45-.28-2.22-.28-.96,0-1.84,.13-2.64,.4s-1.49,.63-2.06,1.08c-.57,.45-1.02,1-1.34,1.64-.32,.64-.48,1.35-.48,2.12,0,1.15,.32,2.14,.96,2.98s1.36,1.62,2.16,2.34l3.56,3.2c.96,.85,1.78,1.81,2.46,2.88,.68,1.07,1.02,2.25,1.02,3.56,0,1.01-.23,2.04-.7,3.08-.47,1.04-1.16,1.98-2.08,2.82-.92,.84-2.07,1.53-3.46,2.06-1.39,.53-3,.8-4.84,.8-.96,0-1.81-.08-2.54-.24-.73-.16-1.4-.35-2-.56-.6-.21-1.16-.4-1.68-.56s-1.03-.24-1.54-.24c-.35,0-.67,.13-.96,.38-.29,.25-.47,.54-.52,.86l-.56-.12,2.8-7.92h.52Z"/><path class="cls-1" d="M27.01,19.9c.67-1.4,1.51-2.61,2.54-3.62,1.03-1.01,2.17-1.81,3.42-2.4,1.25-.59,2.45-.88,3.6-.88,1.04,0,1.95,.21,2.72,.64,.77,.43,1.41,.97,1.92,1.64,.51,.67,.88,1.4,1.12,2.2s.36,1.57,.36,2.32c0,1.55-.33,3.01-1,4.38-.67,1.37-1.51,2.58-2.52,3.62-1.01,1.04-2.14,1.86-3.38,2.46s-2.42,.9-3.54,.9c-.96,0-1.82-.19-2.58-.56s-1.41-.87-1.96-1.48c-.55-.61-.97-1.33-1.26-2.14-.29-.81-.44-1.67-.44-2.58,0-1.6,.33-3.1,1-4.5Zm2.62,9.76c.65,.65,1.49,.98,2.5,.98,.83,0,1.6-.24,2.32-.72,.72-.48,1.37-1.11,1.96-1.9,.59-.79,1.11-1.66,1.56-2.62,.45-.96,.83-1.92,1.14-2.88,.31-.96,.54-1.87,.7-2.72,.16-.85,.24-1.55,.24-2.08,0-1.28-.27-2.29-.82-3.04-.55-.75-1.5-1.12-2.86-1.12-.77,0-1.51,.23-2.2,.68-.69,.45-1.33,1.05-1.9,1.78-.57,.73-1.09,1.57-1.54,2.5-.45,.93-.83,1.89-1.14,2.86-.31,.97-.54,1.92-.7,2.84-.16,.92-.24,1.73-.24,2.42,0,1.36,.33,2.37,.98,3.02Z"/><path class="cls-1" d="M48.89,27.08c-.13,.4-.27,.81-.4,1.22-.13,.41-.2,.81-.2,1.18,0,.32,.09,.59,.28,.82,.19,.23,.47,.34,.84,.34,.43,0,.85-.15,1.26-.44,.41-.29,.79-.63,1.14-1.02,.35-.39,.64-.78,.88-1.18,.24-.4,.41-.72,.52-.96l.48,.2c-.11,.21-.27,.54-.5,.98-.23,.44-.54,.88-.94,1.32-.4,.44-.89,.82-1.48,1.14-.59,.32-1.28,.48-2.08,.48-.88,0-1.58-.18-2.1-.54-.52-.36-.78-.97-.78-1.82,0-.45,.08-.95,.24-1.5,.16-.55,.32-1.05,.48-1.5L55.45,.84h-3.56l.16-.56h6.36l-9.52,26.8Z"/><path class="cls-1" d="M58.21,14.08l.16-.56h6.36l-4.72,13.56c-.13,.4-.27,.81-.4,1.22-.13,.41-.2,.81-.2,1.18,0,.32,.09,.59,.28,.82,.19,.23,.47,.34,.84,.34,.43,0,.85-.15,1.26-.44,.41-.29,.79-.63,1.14-1.02,.35-.39,.64-.78,.88-1.18,.24-.4,.41-.72,.52-.96l.48,.2c-.11,.21-.27,.54-.5,.98-.23,.44-.54,.88-.94,1.32-.4,.44-.89,.82-1.48,1.14-.59,.32-1.28,.48-2.08,.48-.88,0-1.58-.18-2.1-.54-.52-.36-.78-.97-.78-1.82,0-.45,.08-.95,.24-1.5,.16-.55,.32-1.05,.48-1.5l4.12-11.72h-3.56Zm6.58-11.34c.36-.36,.81-.54,1.34-.54s.98,.18,1.34,.54c.36,.36,.54,.81,.54,1.34s-.18,.98-.54,1.34c-.36,.36-.81,.54-1.34,.54s-.98-.18-1.34-.54c-.36-.36-.54-.81-.54-1.34s.18-.98,.54-1.34Z"/><path class="cls-1" d="M81.39,27.64c-.17,.64-.26,1.21-.26,1.72,0,.69,.33,1.04,1,1.04,.53,0,1.01-.15,1.44-.46,.43-.31,.79-.65,1.1-1.04,.31-.39,.56-.77,.76-1.16,.2-.39,.34-.66,.42-.82l.52,.28c-.13,.29-.33,.67-.6,1.12-.27,.45-.61,.89-1.04,1.3-.43,.41-.92,.77-1.48,1.08-.56,.31-1.21,.46-1.96,.46-1.76,0-2.64-.8-2.64-2.4,0-.19,.04-.51,.12-.98,.08-.47,.19-.89,.32-1.26h-.08c-.37,.45-.8,.95-1.28,1.5-.48,.55-1.02,1.05-1.62,1.52-.6,.47-1.26,.85-1.98,1.16-.72,.31-1.52,.46-2.4,.46-.56,0-1.1-.1-1.62-.3-.52-.2-.98-.51-1.38-.92-.4-.41-.71-.94-.94-1.58-.23-.64-.34-1.4-.34-2.28,0-1.07,.21-2.13,.64-3.2,.43-1.07,.98-2.09,1.66-3.06,.68-.97,1.47-1.87,2.36-2.7,.89-.83,1.8-1.55,2.72-2.16,.92-.61,1.83-1.09,2.72-1.44,.89-.35,1.69-.52,2.38-.52,.8,0,1.48,.23,2.04,.68,.56,.45,.84,1.05,.84,1.8h.08L88.09,.84h-3.52l.16-.56h6.36l-9.08,25.36c-.24,.69-.45,1.36-.62,2Zm.92-10.7c.09-.36,.14-.67,.14-.94,0-.24-.03-.5-.1-.78-.07-.28-.19-.54-.36-.78-.17-.24-.41-.45-.7-.62-.29-.17-.68-.26-1.16-.26-.88,0-1.74,.25-2.58,.74-.84,.49-1.63,1.14-2.36,1.94-.73,.8-1.41,1.71-2.02,2.74-.61,1.03-1.14,2.07-1.58,3.12-.44,1.05-.78,2.07-1.02,3.06s-.36,1.85-.36,2.6c0,.85,.17,1.55,.5,2.08,.33,.53,.89,.8,1.66,.8s1.56-.24,2.36-.72c.8-.48,1.53-1.05,2.2-1.72,.67-.67,1.24-1.33,1.72-2,.48-.67,.79-1.19,.92-1.56l2.12-5.88c.32-.85,.53-1.46,.62-1.82Z"/><path class="cls-1" d="M98.17,2.76l.16-.56h11.76l-.16,.56h-3.88l-.24,23.56h.08l10.44-15.64,.08-7.92h-4.2l.16-.56h12.12l-.16,.56h-4.48l-.24,23.28h.08l15.56-23.28h-3.84l.16-.56h8.2l-.16,.56h-3.56l-19.12,28.44h-.8l.16-19.28h-.08l-12.96,19.28h-1l.32-28.44h-4.4Z"/><path class="cls-1" d="M133.45,19.9c.67-1.4,1.51-2.61,2.54-3.62,1.03-1.01,2.17-1.81,3.42-2.4,1.25-.59,2.45-.88,3.6-.88,1.04,0,1.95,.21,2.72,.64,.77,.43,1.41,.97,1.92,1.64,.51,.67,.88,1.4,1.12,2.2s.36,1.57,.36,2.32c0,1.55-.33,3.01-1,4.38-.67,1.37-1.51,2.58-2.52,3.62-1.01,1.04-2.14,1.86-3.38,2.46s-2.42,.9-3.54,.9c-.96,0-1.82-.19-2.58-.56s-1.41-.87-1.96-1.48c-.55-.61-.97-1.33-1.26-2.14-.29-.81-.44-1.67-.44-2.58,0-1.6,.33-3.1,1-4.5Zm2.62,9.76c.65,.65,1.49,.98,2.5,.98,.83,0,1.6-.24,2.32-.72,.72-.48,1.37-1.11,1.96-1.9,.59-.79,1.11-1.66,1.56-2.62,.45-.96,.83-1.92,1.14-2.88,.31-.96,.54-1.87,.7-2.72,.16-.85,.24-1.55,.24-2.08,0-1.28-.27-2.29-.82-3.04-.55-.75-1.5-1.12-2.86-1.12-.77,0-1.51,.23-2.2,.68-.69,.45-1.33,1.05-1.9,1.78-.57,.73-1.09,1.57-1.54,2.5-.45,.93-.83,1.89-1.14,2.86-.31,.97-.54,1.92-.7,2.84-.16,.92-.24,1.73-.24,2.42,0,1.36,.33,2.37,.98,3.02Z"/><path class="cls-1" d="M152.69,19.9c.67-1.4,1.51-2.61,2.54-3.62,1.03-1.01,2.17-1.81,3.42-2.4,1.25-.59,2.45-.88,3.6-.88,1.04,0,1.95,.21,2.72,.64,.77,.43,1.41,.97,1.92,1.64,.51,.67,.88,1.4,1.12,2.2s.36,1.57,.36,2.32c0,1.55-.33,3.01-1,4.38-.67,1.37-1.51,2.58-2.52,3.62-1.01,1.04-2.14,1.86-3.38,2.46s-2.42,.9-3.54,.9c-.96,0-1.82-.19-2.58-.56s-1.41-.87-1.96-1.48c-.55-.61-.97-1.33-1.26-2.14-.29-.81-.44-1.67-.44-2.58,0-1.6,.33-3.1,1-4.5Zm2.62,9.76c.65,.65,1.49,.98,2.5,.98,.83,0,1.6-.24,2.32-.72,.72-.48,1.37-1.11,1.96-1.9,.59-.79,1.11-1.66,1.56-2.62,.45-.96,.83-1.92,1.14-2.88,.31-.96,.54-1.87,.7-2.72,.16-.85,.24-1.55,.24-2.08,0-1.28-.27-2.29-.82-3.04-.55-.75-1.5-1.12-2.86-1.12-.77,0-1.51,.23-2.2,.68-.69,.45-1.33,1.05-1.9,1.78-.57,.73-1.09,1.57-1.54,2.5-.45,.93-.83,1.89-1.14,2.86-.31,.97-.54,1.92-.7,2.84-.16,.92-.24,1.73-.24,2.42,0,1.36,.33,2.37,.98,3.02Z"/><path class="cls-1" d="M184.83,27.64c-.17,.64-.26,1.21-.26,1.72,0,.69,.33,1.04,1,1.04,.53,0,1.01-.15,1.44-.46,.43-.31,.79-.65,1.1-1.04,.31-.39,.56-.77,.76-1.16,.2-.39,.34-.66,.42-.82l.52,.28c-.13,.29-.33,.67-.6,1.12-.27,.45-.61,.89-1.04,1.3-.43,.41-.92,.77-1.48,1.08-.56,.31-1.21,.46-1.96,.46-1.76,0-2.64-.8-2.64-2.4,0-.19,.04-.51,.12-.98,.08-.47,.19-.89,.32-1.26h-.08c-.37,.45-.8,.95-1.28,1.5-.48,.55-1.02,1.05-1.62,1.52-.6,.47-1.26,.85-1.98,1.16-.72,.31-1.52,.46-2.4,.46-.56,0-1.1-.1-1.62-.3-.52-.2-.98-.51-1.38-.92-.4-.41-.71-.94-.94-1.58-.23-.64-.34-1.4-.34-2.28,0-1.07,.21-2.13,.64-3.2,.43-1.07,.98-2.09,1.66-3.06,.68-.97,1.47-1.87,2.36-2.7,.89-.83,1.8-1.55,2.72-2.16,.92-.61,1.83-1.09,2.72-1.44,.89-.35,1.69-.52,2.38-.52,.8,0,1.48,.23,2.04,.68,.56,.45,.84,1.05,.84,1.8h.08l5.2-14.64h-3.52l.16-.56h6.36l-9.08,25.36c-.24,.69-.45,1.36-.62,2Zm.92-10.7c.09-.36,.14-.67,.14-.94,0-.24-.03-.5-.1-.78-.07-.28-.19-.54-.36-.78-.17-.24-.41-.45-.7-.62-.29-.17-.68-.26-1.16-.26-.88,0-1.74,.25-2.58,.74-.84,.49-1.63,1.14-2.36,1.94-.73,.8-1.41,1.71-2.02,2.74-.61,1.03-1.14,2.07-1.58,3.12-.44,1.05-.78,2.07-1.02,3.06s-.36,1.85-.36,2.6c0,.85,.17,1.55,.5,2.08,.33,.53,.89,.8,1.66,.8s1.56-.24,2.36-.72c.8-.48,1.53-1.05,2.2-1.72,.67-.67,1.24-1.33,1.72-2,.48-.67,.79-1.19,.92-1.56l2.12-5.88c.32-.85,.53-1.46,.62-1.82Z"/></g></g></svg>