<?xml version="1.0" encoding="UTF-8"?><svg id="_イヤー_2" xmlns="http://www.w3.org/2000/svg" viewBox="0 0 347.09 39.77"><defs><style>.cls-1{fill:#5e5148;stroke:#5e5148;stroke-miterlimit:10;stroke-width:.57px;}</style></defs><g id="_イヤー_2-2"><g><path class="cls-1" d="M3.69,21.4c-.13,.4-.25,.78-.36,1.14-.11,.36-.16,.77-.16,1.22,0,.91,.21,1.71,.64,2.4,.43,.69,.99,1.27,1.68,1.72,.69,.45,1.47,.8,2.32,1.04,.85,.24,1.72,.36,2.6,.36,1.17,0,2.23-.17,3.16-.5,.93-.33,1.72-.8,2.36-1.4,.64-.6,1.13-1.31,1.46-2.12,.33-.81,.5-1.7,.5-2.66s-.22-1.86-.66-2.62-1.05-1.5-1.82-2.22l-2.84-2.6c-1.28-1.15-2.29-2.29-3.02-3.42-.73-1.13-1.1-2.42-1.1-3.86,0-1.12,.25-2.15,.76-3.08,.51-.93,1.19-1.73,2.04-2.4,.85-.67,1.83-1.19,2.94-1.56,1.11-.37,2.25-.56,3.42-.56,.83,0,1.55,.07,2.18,.22,.63,.15,1.2,.31,1.72,.5,.52,.19,1,.35,1.44,.5,.44,.15,.89,.22,1.34,.22,.4,0,.71-.09,.92-.28,.21-.19,.39-.44,.52-.76l.6,.12-2.76,7.64h-.48c.05-.21,.13-.51,.22-.9,.09-.39,.14-.87,.14-1.46,0-.96-.16-1.77-.48-2.44-.32-.67-.75-1.21-1.28-1.62-.53-.41-1.15-.71-1.86-.9-.71-.19-1.45-.28-2.22-.28-.96,0-1.84,.13-2.64,.4-.8,.27-1.49,.63-2.06,1.08-.57,.45-1.02,1-1.34,1.64-.32,.64-.48,1.35-.48,2.12,0,1.15,.32,2.14,.96,2.98,.64,.84,1.36,1.62,2.16,2.34l3.56,3.2c.96,.85,1.78,1.81,2.46,2.88s1.02,2.25,1.02,3.56c0,1.01-.23,2.04-.7,3.08-.47,1.04-1.16,1.98-2.08,2.82-.92,.84-2.07,1.53-3.46,2.06-1.39,.53-3,.8-4.84,.8-.96,0-1.81-.08-2.54-.24s-1.4-.35-2-.56c-.6-.21-1.16-.4-1.68-.56s-1.03-.24-1.54-.24c-.35,0-.67,.13-.96,.38-.29,.25-.47,.54-.52,.86l-.56-.12,2.8-7.92h.52Z"/><path class="cls-1" d="M35.81,8.2l-1.44,3.92h4.36l-.16,.56h-4.36l-4.56,12.72c-.13,.4-.27,.81-.4,1.24-.13,.43-.2,.85-.2,1.28,0,.4,.1,.72,.3,.96,.2,.24,.53,.36,.98,.36,.48,0,.93-.15,1.36-.44,.43-.29,.81-.63,1.16-1.02,.35-.39,.64-.78,.88-1.18,.24-.4,.41-.72,.52-.96l.48,.2c-.11,.21-.28,.54-.52,.98-.24,.44-.56,.88-.96,1.32-.4,.44-.9,.82-1.5,1.14-.6,.32-1.31,.48-2.14,.48-1.01,0-1.77-.25-2.28-.74-.51-.49-.76-1.09-.76-1.78,0-.53,.1-1.14,.3-1.82,.2-.68,.41-1.3,.62-1.86l3.92-10.88h-3.6l.16-.56h3.6l1.44-3.92h2.8Z"/><path class="cls-1" d="M43.05,14.84c.21-.72,.43-1.44,.64-2.16h-3.48l.16-.56h6.16c-.13,.56-.33,1.27-.58,2.12-.25,.85-.53,1.68-.82,2.48l.08,.08c.27-.4,.6-.88,1-1.44,.4-.56,.85-1.1,1.36-1.62,.51-.52,1.07-.96,1.68-1.32,.61-.36,1.27-.54,1.96-.54,.99,0,1.74,.28,2.26,.84,.52,.56,.77,1.16,.74,1.8,0,.43-.07,.78-.22,1.06-.15,.28-.33,.49-.56,.64-.23,.15-.46,.25-.7,.3-.24,.05-.47,.08-.68,.08-.37,0-.68-.09-.92-.28-.24-.19-.36-.47-.36-.84,0-.29,.06-.51,.18-.66s.25-.29,.38-.42c.13-.13,.26-.28,.38-.44,.12-.16,.18-.37,.18-.64s-.11-.48-.32-.64c-.21-.16-.48-.24-.8-.24-.51,0-1.09,.26-1.76,.78-.67,.52-1.33,1.19-1.98,2-.65,.81-1.27,1.74-1.86,2.78-.59,1.04-1.07,2.08-1.44,3.12l-2.88,8.16h-2.8l4.32-12.32c.24-.69,.47-1.4,.68-2.12Z"/><path class="cls-1" d="M62.41,12.12l-4.6,13.2c-.21,.56-.37,1.06-.48,1.5-.11,.44-.16,.77-.16,.98,0,.37,.1,.71,.3,1,.2,.29,.54,.44,1.02,.44,.72,0,1.5-.27,2.34-.82,.84-.55,1.66-1.25,2.46-2.1,.8-.85,1.53-1.81,2.2-2.86,.67-1.05,1.19-2.1,1.56-3.14l2.84-8.2h2.8l-4.72,13.56c-.13,.4-.27,.81-.4,1.22-.13,.41-.2,.81-.2,1.18,0,.32,.09,.59,.28,.82,.19,.23,.47,.34,.84,.34,.45,0,.89-.15,1.3-.44,.41-.29,.79-.63,1.12-1.02s.62-.78,.86-1.18c.24-.4,.41-.72,.52-.96l.48,.2c-.11,.21-.27,.54-.5,.98-.23,.44-.54,.88-.94,1.32-.4,.44-.89,.82-1.48,1.14-.59,.32-1.28,.48-2.08,.48-.88,0-1.58-.18-2.1-.54-.52-.36-.78-.97-.78-1.82,0-.45,.05-.89,.16-1.3,.11-.41,.27-.89,.48-1.42l-.08-.08c-.37,.48-.82,1.02-1.34,1.62-.52,.6-1.08,1.16-1.68,1.68-.6,.52-1.24,.96-1.92,1.32-.68,.36-1.38,.54-2.1,.54-1.15,0-2.05-.27-2.72-.8-.67-.53-1-1.31-1-2.32,0-.4,.09-.87,.28-1.42s.35-1.03,.48-1.46l3.92-11.08h-3.56l.16-.56h6.44Z"/><path class="cls-1" d="M87.51,26.9c-.44,.52-.95,.99-1.52,1.42-.57,.43-1.23,.77-1.98,1.04-.75,.27-1.59,.4-2.52,.4-.99,0-1.87-.16-2.64-.48-.77-.32-1.42-.75-1.94-1.3s-.92-1.18-1.2-1.9c-.28-.72-.42-1.49-.42-2.32,0-1.36,.32-2.75,.96-4.18,.64-1.43,1.49-2.73,2.56-3.92,1.07-1.19,2.29-2.16,3.66-2.92,1.37-.76,2.79-1.14,4.26-1.14,.45,0,.9,.05,1.34,.16s.83,.28,1.18,.52c.35,.24,.63,.57,.86,.98,.23,.41,.34,.93,.34,1.54,0,.88-.22,1.45-.66,1.72s-.9,.4-1.38,.4-.81-.1-1-.3c-.19-.2-.28-.43-.28-.7,0-.32,.05-.58,.16-.78,.11-.2,.23-.38,.38-.54s.27-.34,.38-.54c.11-.2,.16-.46,.16-.78,0-.43-.15-.72-.46-.88-.31-.16-.73-.24-1.26-.24-.85,0-1.65,.21-2.4,.64-.75,.43-1.43,.99-2.06,1.7-.63,.71-1.18,1.51-1.66,2.42-.48,.91-.89,1.84-1.24,2.8-.35,.96-.61,1.91-.78,2.84-.17,.93-.26,1.79-.26,2.56,0,1.15,.33,2.12,.98,2.92,.65,.8,1.66,1.2,3.02,1.2,.75,0,1.43-.14,2.06-.42s1.19-.63,1.7-1.06c.51-.43,.95-.89,1.32-1.38,.37-.49,.68-.94,.92-1.34l.56,.32c-.32,.51-.7,1.02-1.14,1.54Z"/><path class="cls-1" d="M100.97,8.2l-1.44,3.92h4.36l-.16,.56h-4.36l-4.56,12.72c-.13,.4-.27,.81-.4,1.24-.13,.43-.2,.85-.2,1.28,0,.4,.1,.72,.3,.96,.2,.24,.53,.36,.98,.36,.48,0,.93-.15,1.36-.44,.43-.29,.81-.63,1.16-1.02,.35-.39,.64-.78,.88-1.18,.24-.4,.41-.72,.52-.96l.48,.2c-.11,.21-.28,.54-.52,.98-.24,.44-.56,.88-.96,1.32-.4,.44-.9,.82-1.5,1.14-.6,.32-1.31,.48-2.14,.48-1.01,0-1.77-.25-2.28-.74-.51-.49-.76-1.09-.76-1.78,0-.53,.1-1.14,.3-1.82,.2-.68,.41-1.3,.62-1.86l3.92-10.88h-3.6l.16-.56h3.6l1.44-3.92h2.8Z"/><path class="cls-1" d="M111.29,12.12l-4.6,13.2c-.21,.56-.37,1.06-.48,1.5-.11,.44-.16,.77-.16,.98,0,.37,.1,.71,.3,1,.2,.29,.54,.44,1.02,.44,.72,0,1.5-.27,2.34-.82,.84-.55,1.66-1.25,2.46-2.1,.8-.85,1.53-1.81,2.2-2.86,.67-1.05,1.19-2.1,1.56-3.14l2.84-8.2h2.8l-4.72,13.56c-.13,.4-.27,.81-.4,1.22-.13,.41-.2,.81-.2,1.18,0,.32,.09,.59,.28,.82,.19,.23,.47,.34,.84,.34,.45,0,.89-.15,1.3-.44,.41-.29,.79-.63,1.12-1.02s.62-.78,.86-1.18c.24-.4,.41-.72,.52-.96l.48,.2c-.11,.21-.27,.54-.5,.98-.23,.44-.54,.88-.94,1.32-.4,.44-.89,.82-1.48,1.14-.59,.32-1.28,.48-2.08,.48-.88,0-1.58-.18-2.1-.54-.52-.36-.78-.97-.78-1.82,0-.45,.05-.89,.16-1.3,.11-.41,.27-.89,.48-1.42l-.08-.08c-.37,.48-.82,1.02-1.34,1.62-.52,.6-1.08,1.16-1.68,1.68-.6,.52-1.24,.96-1.92,1.32-.68,.36-1.38,.54-2.1,.54-1.15,0-2.05-.27-2.72-.8-.67-.53-1-1.31-1-2.32,0-.4,.09-.87,.28-1.42s.35-1.03,.48-1.46l3.92-11.08h-3.56l.16-.56h6.44Z"/><path class="cls-1" d="M128.97,14.84c.21-.72,.43-1.44,.64-2.16h-3.48l.16-.56h6.16c-.13,.56-.33,1.27-.58,2.12-.25,.85-.53,1.68-.82,2.48l.08,.08c.27-.4,.6-.88,1-1.44,.4-.56,.85-1.1,1.36-1.62,.51-.52,1.07-.96,1.68-1.32,.61-.36,1.27-.54,1.96-.54,.99,0,1.74,.28,2.26,.84,.52,.56,.77,1.16,.74,1.8,0,.43-.07,.78-.22,1.06-.15,.28-.33,.49-.56,.64-.23,.15-.46,.25-.7,.3-.24,.05-.47,.08-.68,.08-.37,0-.68-.09-.92-.28-.24-.19-.36-.47-.36-.84,0-.29,.06-.51,.18-.66s.25-.29,.38-.42c.13-.13,.26-.28,.38-.44,.12-.16,.18-.37,.18-.64s-.11-.48-.32-.64c-.21-.16-.48-.24-.8-.24-.51,0-1.09,.26-1.76,.78-.67,.52-1.33,1.19-1.98,2-.65,.81-1.27,1.74-1.86,2.78-.59,1.04-1.07,2.08-1.44,3.12l-2.88,8.16h-2.8l4.32-12.32c.24-.69,.47-1.4,.68-2.12Z"/><path class="cls-1" d="M152.69,26.38c-.32,.49-.76,.99-1.32,1.48-.56,.49-1.25,.93-2.06,1.32-.81,.39-1.79,.58-2.94,.58s-2.11-.19-2.9-.56c-.79-.37-1.43-.85-1.92-1.44-.49-.59-.85-1.23-1.08-1.94-.23-.71-.34-1.39-.34-2.06,0-1.33,.33-2.71,.98-4.14,.65-1.43,1.51-2.73,2.56-3.92,1.05-1.19,2.25-2.17,3.58-2.94,1.33-.77,2.69-1.16,4.08-1.16,.53,0,1.07,.06,1.6,.18,.53,.12,1.01,.3,1.44,.54,.43,.24,.77,.55,1.04,.92,.27,.37,.4,.83,.4,1.36,0,.72-.19,1.35-.58,1.9-.39,.55-.89,1.01-1.5,1.4-.61,.39-1.29,.71-2.02,.98-.73,.27-1.45,.47-2.14,.62-.69,.15-1.33,.25-1.9,.32-.57,.07-.99,.1-1.26,.1-.45,0-.89-.01-1.32-.04-.43-.03-.8-.07-1.12-.12-.29,.85-.54,1.7-.74,2.54-.2,.84-.3,1.73-.3,2.66,0,1.44,.37,2.51,1.12,3.22,.75,.71,1.69,1.06,2.84,1.06,.85,0,1.61-.17,2.26-.5,.65-.33,1.23-.73,1.72-1.18,.49-.45,.91-.91,1.24-1.38,.33-.47,.61-.83,.82-1.1l.48,.28c-.16,.19-.4,.53-.72,1.02Zm.16-13.66c-.32-.37-.85-.56-1.6-.56-.83,0-1.62,.24-2.38,.72-.76,.48-1.45,1.07-2.06,1.78-.61,.71-1.15,1.47-1.6,2.28-.45,.81-.8,1.57-1.04,2.26,.61,.11,1.29,.16,2.04,.16,.96,0,1.87-.15,2.72-.44,.85-.29,1.61-.68,2.26-1.16,.65-.48,1.17-1.04,1.56-1.68,.39-.64,.58-1.31,.58-2,0-.53-.16-.99-.48-1.36Z"/><path class="cls-1" d="M180.63,6.54c.31-1.03,.73-2.01,1.28-2.94,.55-.93,1.21-1.72,2-2.36,.79-.64,1.73-.96,2.82-.96s1.83,.28,2.38,.84c.55,.56,.82,1.27,.82,2.12,0,.75-.25,1.43-.76,2.06-.51,.63-1.12,1.18-1.84,1.66-.72,.48-1.47,.89-2.26,1.24-.79,.35-1.46,.61-2.02,.8,.05,1.47,.14,3.07,.26,4.82,.12,1.75,.38,3.54,.78,5.38l.56,2.52h.08c.67-1.36,1.29-2.63,1.86-3.8,.57-1.17,1.17-2.19,1.8-3.06,.63-.87,1.31-1.55,2.04-2.04,.73-.49,1.59-.74,2.58-.74s1.85,.27,2.5,.8c.65,.53,.98,1.23,.98,2.08,0,.53-.13,.98-.4,1.34-.27,.36-.67,.54-1.2,.54-.96,0-1.44-.45-1.44-1.36,0-.24,.02-.43,.06-.58s.08-.27,.12-.38,.07-.22,.1-.34c.03-.12,.04-.3,.04-.54,0-.37-.11-.63-.34-.78-.23-.15-.53-.22-.9-.22-.56,0-1.23,.27-2.02,.8s-1.59,1.51-2.42,2.92c-.29,.51-.59,1.05-.88,1.62-.29,.57-.58,1.14-.86,1.7-.28,.56-.55,1.09-.8,1.6-.25,.51-.47,.95-.66,1.32,.11,.59,.3,1.29,.58,2.1,.28,.81,.58,1.51,.9,2.1,.13,.24,.29,.51,.48,.8,.19,.29,.41,.56,.68,.8s.59,.45,.96,.62,.81,.26,1.32,.26c.69,0,1.32-.19,1.88-.56,.56-.37,1.06-.85,1.5-1.42,.44-.57,.82-1.21,1.14-1.9,.32-.69,.59-1.36,.82-2,.23-.64,.4-1.21,.52-1.7,.12-.49,.19-.83,.22-1.02l.56,.12c-.05,.16-.14,.5-.26,1.02-.12,.52-.29,1.11-.5,1.78-.21,.67-.49,1.37-.82,2.1-.33,.73-.75,1.4-1.24,2-.49,.6-1.09,1.1-1.78,1.5-.69,.4-1.49,.6-2.4,.6-.75,0-1.43-.11-2.06-.32-.63-.21-1.21-.51-1.74-.88-.53-.37-1.02-.81-1.46-1.3-.44-.49-.85-1.01-1.22-1.54l-.52,.76c-.69,1.01-1.49,1.81-2.38,2.4-.89,.59-2.02,.88-3.38,.88-.77,0-1.61-.15-2.52-.44-.91-.29-1.75-.77-2.52-1.42-.77-.65-1.42-1.5-1.94-2.54s-.78-2.32-.78-3.84c0-1.44,.23-2.77,.7-3.98,.47-1.21,1.09-2.3,1.88-3.26s1.69-1.79,2.72-2.48c1.03-.69,2.1-1.24,3.22-1.64l2.56-.92c.11-.8,.31-1.71,.62-2.74Zm-5.54,5.62c-.67,.53-1.19,1.11-1.58,1.74-.39,.63-.65,1.3-.78,2.02-.13,.72-.2,1.48-.2,2.28,0,.48,.02,1.09,.06,1.82s.11,1.51,.22,2.32c.11,.81,.27,1.63,.48,2.46,.21,.83,.49,1.57,.84,2.24,.35,.67,.78,1.21,1.3,1.62,.52,.41,1.14,.62,1.86,.62s1.36-.15,1.92-.44c.56-.29,1.06-.65,1.5-1.06,.44-.41,.82-.85,1.14-1.3,.32-.45,.59-.85,.8-1.2-.61-.99-1.11-2-1.5-3.04-.39-1.04-.69-2.05-.9-3.04-.21-.99-.36-1.91-.44-2.78-.08-.87-.12-1.59-.12-2.18s.02-1.32,.06-2.12,.1-1.55,.18-2.24l-2.28,.88c-1.04,.4-1.89,.87-2.56,1.4Zm9.7-10.64c-.49,.45-.86,1.04-1.1,1.76s-.4,1.53-.48,2.44-.13,1.81-.16,2.72c.48-.16,1.07-.4,1.78-.72,.71-.32,1.4-.71,2.08-1.16,.68-.45,1.26-.97,1.74-1.54s.72-1.19,.72-1.86-.23-1.22-.68-1.66c-.45-.44-1.07-.66-1.84-.66-.88,0-1.57,.23-2.06,.68Z"/><path class="cls-1" d="M211.77,21.4c-.13,.4-.25,.78-.36,1.14-.11,.36-.16,.77-.16,1.22,0,.91,.21,1.71,.64,2.4,.43,.69,.99,1.27,1.68,1.72,.69,.45,1.47,.8,2.32,1.04,.85,.24,1.72,.36,2.6,.36,1.17,0,2.23-.17,3.16-.5,.93-.33,1.72-.8,2.36-1.4,.64-.6,1.13-1.31,1.46-2.12,.33-.81,.5-1.7,.5-2.66s-.22-1.86-.66-2.62-1.05-1.5-1.82-2.22l-2.84-2.6c-1.28-1.15-2.29-2.29-3.02-3.42-.73-1.13-1.1-2.42-1.1-3.86,0-1.12,.25-2.15,.76-3.08,.51-.93,1.19-1.73,2.04-2.4,.85-.67,1.83-1.19,2.94-1.56,1.11-.37,2.25-.56,3.42-.56,.83,0,1.55,.07,2.18,.22,.63,.15,1.2,.31,1.72,.5,.52,.19,1,.35,1.44,.5,.44,.15,.89,.22,1.34,.22,.4,0,.71-.09,.92-.28,.21-.19,.39-.44,.52-.76l.6,.12-2.76,7.64h-.48c.05-.21,.13-.51,.22-.9,.09-.39,.14-.87,.14-1.46,0-.96-.16-1.77-.48-2.44-.32-.67-.75-1.21-1.28-1.62-.53-.41-1.15-.71-1.86-.9-.71-.19-1.45-.28-2.22-.28-.96,0-1.84,.13-2.64,.4-.8,.27-1.49,.63-2.06,1.08-.57,.45-1.02,1-1.34,1.64-.32,.64-.48,1.35-.48,2.12,0,1.15,.32,2.14,.96,2.98,.64,.84,1.36,1.62,2.16,2.34l3.56,3.2c.96,.85,1.78,1.81,2.46,2.88s1.02,2.25,1.02,3.56c0,1.01-.23,2.04-.7,3.08-.47,1.04-1.16,1.98-2.08,2.82-.92,.84-2.07,1.53-3.46,2.06-1.39,.53-3,.8-4.84,.8-.96,0-1.81-.08-2.54-.24s-1.4-.35-2-.56c-.6-.21-1.16-.4-1.68-.56s-1.03-.24-1.54-.24c-.35,0-.67,.13-.96,.38-.29,.25-.47,.54-.52,.86l-.56-.12,2.8-7.92h.52Z"/><path class="cls-1" d="M246.73,26.38c-.32,.49-.76,.99-1.32,1.48-.56,.49-1.25,.93-2.06,1.32-.81,.39-1.79,.58-2.94,.58s-2.11-.19-2.9-.56c-.79-.37-1.43-.85-1.92-1.44-.49-.59-.85-1.23-1.08-1.94-.23-.71-.34-1.39-.34-2.06,0-1.33,.33-2.71,.98-4.14,.65-1.43,1.51-2.73,2.56-3.92,1.05-1.19,2.25-2.17,3.58-2.94,1.33-.77,2.69-1.16,4.08-1.16,.53,0,1.07,.06,1.6,.18,.53,.12,1.01,.3,1.44,.54,.43,.24,.77,.55,1.04,.92,.27,.37,.4,.83,.4,1.36,0,.72-.19,1.35-.58,1.9-.39,.55-.89,1.01-1.5,1.4-.61,.39-1.29,.71-2.02,.98-.73,.27-1.45,.47-2.14,.62-.69,.15-1.33,.25-1.9,.32-.57,.07-.99,.1-1.26,.1-.45,0-.89-.01-1.32-.04-.43-.03-.8-.07-1.12-.12-.29,.85-.54,1.7-.74,2.54-.2,.84-.3,1.73-.3,2.66,0,1.44,.37,2.51,1.12,3.22,.75,.71,1.69,1.06,2.84,1.06,.85,0,1.61-.17,2.26-.5,.65-.33,1.23-.73,1.72-1.18,.49-.45,.91-.91,1.24-1.38,.33-.47,.61-.83,.82-1.1l.48,.28c-.16,.19-.4,.53-.72,1.02Zm.16-13.66c-.32-.37-.85-.56-1.6-.56-.83,0-1.62,.24-2.38,.72-.76,.48-1.45,1.07-2.06,1.78-.61,.71-1.15,1.47-1.6,2.28-.45,.81-.8,1.57-1.04,2.26,.61,.11,1.29,.16,2.04,.16,.96,0,1.87-.15,2.72-.44,.85-.29,1.61-.68,2.26-1.16,.65-.48,1.17-1.04,1.56-1.68,.39-.64,.58-1.31,.58-2,0-.53-.16-.99-.48-1.36Z"/><path class="cls-1" d="M263.75,26.9c-.44,.52-.95,.99-1.52,1.42-.57,.43-1.23,.77-1.98,1.04-.75,.27-1.59,.4-2.52,.4-.99,0-1.87-.16-2.64-.48-.77-.32-1.42-.75-1.94-1.3s-.92-1.18-1.2-1.9c-.28-.72-.42-1.49-.42-2.32,0-1.36,.32-2.75,.96-4.18,.64-1.43,1.49-2.73,2.56-3.92,1.07-1.19,2.29-2.16,3.66-2.92,1.37-.76,2.79-1.14,4.26-1.14,.45,0,.9,.05,1.34,.16s.83,.28,1.18,.52c.35,.24,.63,.57,.86,.98,.23,.41,.34,.93,.34,1.54,0,.88-.22,1.45-.66,1.72s-.9,.4-1.38,.4-.81-.1-1-.3c-.19-.2-.28-.43-.28-.7,0-.32,.05-.58,.16-.78,.11-.2,.23-.38,.38-.54s.27-.34,.38-.54c.11-.2,.16-.46,.16-.78,0-.43-.15-.72-.46-.88-.31-.16-.73-.24-1.26-.24-.85,0-1.65,.21-2.4,.64-.75,.43-1.43,.99-2.06,1.7-.63,.71-1.18,1.51-1.66,2.42-.48,.91-.89,1.84-1.24,2.8-.35,.96-.61,1.91-.78,2.84-.17,.93-.26,1.79-.26,2.56,0,1.15,.33,2.12,.98,2.92,.65,.8,1.66,1.2,3.02,1.2,.75,0,1.43-.14,2.06-.42s1.19-.63,1.7-1.06c.51-.43,.95-.89,1.32-1.38,.37-.49,.68-.94,.92-1.34l.56,.32c-.32,.51-.7,1.02-1.14,1.54Z"/><path class="cls-1" d="M275.69,12.12l-4.6,13.2c-.21,.56-.37,1.06-.48,1.5-.11,.44-.16,.77-.16,.98,0,.37,.1,.71,.3,1,.2,.29,.54,.44,1.02,.44,.72,0,1.5-.27,2.34-.82,.84-.55,1.66-1.25,2.46-2.1,.8-.85,1.53-1.81,2.2-2.86,.67-1.05,1.19-2.1,1.56-3.14l2.84-8.2h2.8l-4.72,13.56c-.13,.4-.27,.81-.4,1.22-.13,.41-.2,.81-.2,1.18,0,.32,.09,.59,.28,.82,.19,.23,.47,.34,.84,.34,.45,0,.89-.15,1.3-.44,.41-.29,.79-.63,1.12-1.02s.62-.78,.86-1.18c.24-.4,.41-.72,.52-.96l.48,.2c-.11,.21-.27,.54-.5,.98-.23,.44-.54,.88-.94,1.32-.4,.44-.89,.82-1.48,1.14-.59,.32-1.28,.48-2.08,.48-.88,0-1.58-.18-2.1-.54-.52-.36-.78-.97-.78-1.82,0-.45,.05-.89,.16-1.3,.11-.41,.27-.89,.48-1.42l-.08-.08c-.37,.48-.82,1.02-1.34,1.62-.52,.6-1.08,1.16-1.68,1.68-.6,.52-1.24,.96-1.92,1.32-.68,.36-1.38,.54-2.1,.54-1.15,0-2.05-.27-2.72-.8-.67-.53-1-1.31-1-2.32,0-.4,.09-.87,.28-1.42s.35-1.03,.48-1.46l3.92-11.08h-3.56l.16-.56h6.44Z"/><path class="cls-1" d="M293.37,14.84c.21-.72,.43-1.44,.64-2.16h-3.48l.16-.56h6.16c-.13,.56-.33,1.27-.58,2.12-.25,.85-.53,1.68-.82,2.48l.08,.08c.27-.4,.6-.88,1-1.44,.4-.56,.85-1.1,1.36-1.62,.51-.52,1.07-.96,1.68-1.32,.61-.36,1.27-.54,1.96-.54,.99,0,1.74,.28,2.26,.84,.52,.56,.77,1.16,.74,1.8,0,.43-.07,.78-.22,1.06-.15,.28-.33,.49-.56,.64-.23,.15-.46,.25-.7,.3-.24,.05-.47,.08-.68,.08-.37,0-.68-.09-.92-.28-.24-.19-.36-.47-.36-.84,0-.29,.06-.51,.18-.66s.25-.29,.38-.42c.13-.13,.26-.28,.38-.44,.12-.16,.18-.37,.18-.64s-.11-.48-.32-.64c-.21-.16-.48-.24-.8-.24-.51,0-1.09,.26-1.76,.78-.67,.52-1.33,1.19-1.98,2-.65,.81-1.27,1.74-1.86,2.78-.59,1.04-1.07,2.08-1.44,3.12l-2.88,8.16h-2.8l4.32-12.32c.24-.69,.47-1.4,.68-2.12Z"/><path class="cls-1" d="M306.29,12.68l.16-.56h6.36l-4.72,13.56c-.13,.4-.27,.81-.4,1.22-.13,.41-.2,.81-.2,1.18,0,.32,.09,.59,.28,.82s.47,.34,.84,.34c.43,0,.85-.15,1.26-.44,.41-.29,.79-.63,1.14-1.02,.35-.39,.64-.78,.88-1.18,.24-.4,.41-.72,.52-.96l.48,.2c-.11,.21-.27,.54-.5,.98-.23,.44-.54,.88-.94,1.32-.4,.44-.89,.82-1.48,1.14-.59,.32-1.28,.48-2.08,.48-.88,0-1.58-.18-2.1-.54-.52-.36-.78-.97-.78-1.82,0-.45,.08-.95,.24-1.5,.16-.55,.32-1.05,.48-1.5l4.12-11.72h-3.56Zm6.58-11.34c.36-.36,.81-.54,1.34-.54s.98,.18,1.34,.54c.36,.36,.54,.81,.54,1.34s-.18,.98-.54,1.34c-.36,.36-.81,.54-1.34,.54s-.98-.18-1.34-.54c-.36-.36-.54-.81-.54-1.34s.18-.98,.54-1.34Z"/><path class="cls-1" d="M325.37,8.2l-1.44,3.92h4.36l-.16,.56h-4.36l-4.56,12.72c-.13,.4-.27,.81-.4,1.24-.13,.43-.2,.85-.2,1.28,0,.4,.1,.72,.3,.96,.2,.24,.53,.36,.98,.36,.48,0,.93-.15,1.36-.44,.43-.29,.81-.63,1.16-1.02,.35-.39,.64-.78,.88-1.18,.24-.4,.41-.72,.52-.96l.48,.2c-.11,.21-.28,.54-.52,.98-.24,.44-.56,.88-.96,1.32-.4,.44-.9,.82-1.5,1.14-.6,.32-1.31,.48-2.14,.48-1.01,0-1.77-.25-2.28-.74-.51-.49-.76-1.09-.76-1.78,0-.53,.1-1.14,.3-1.82,.2-.68,.41-1.3,.62-1.86l3.92-10.88h-3.6l.16-.56h3.6l1.44-3.92h2.8Z"/><path class="cls-1" d="M327.89,15.2c.16-.59,.39-1.15,.7-1.68,.31-.53,.69-.99,1.16-1.36,.47-.37,1.06-.56,1.78-.56,.85,0,1.57,.22,2.14,.66,.57,.44,1.03,.99,1.36,1.66,.33,.67,.57,1.39,.72,2.16,.15,.77,.22,1.49,.22,2.16,0,1.76-.1,3.27-.3,4.54-.2,1.27-.39,2.33-.58,3.18h.08l6.12-11.04c.21-.4,.43-.8,.66-1.2,.23-.4,.49-.75,.78-1.06,.29-.31,.63-.56,1.02-.76,.39-.2,.83-.3,1.34-.3,.64,0,1.09,.16,1.34,.48,.25,.32,.38,.68,.38,1.08,0,.51-.16,.92-.48,1.24-.32,.32-.75,.48-1.28,.48s-.76-.24-.76-.72c0-.29,.07-.51,.22-.66,.15-.15,.22-.34,.22-.58,0-.4-.19-.57-.56-.52-.32,.03-.67,.26-1.04,.7-.37,.44-.85,1.18-1.44,2.22l-7.28,13.2-2.32,4.32c-.45,.85-.93,1.68-1.42,2.48-.49,.8-1.02,1.51-1.58,2.12-.56,.61-1.15,1.11-1.76,1.48s-1.25,.56-1.92,.56c-1.01,0-1.83-.25-2.46-.74-.63-.49-.94-1.17-.94-2.02,0-.69,.2-1.15,.6-1.38,.4-.23,.83-.34,1.28-.34,.35,0,.63,.09,.84,.26,.21,.17,.32,.42,.32,.74,0,.24-.02,.42-.06,.54s-.09,.24-.14,.36c-.05,.12-.1,.25-.14,.4s-.06,.35-.06,.62c0,.29,.13,.53,.38,.72,.25,.19,.58,.28,.98,.28,.75,0,1.53-.48,2.34-1.44,.81-.96,1.56-2.22,2.24-3.78,.68-1.56,1.24-3.35,1.68-5.36,.44-2.01,.66-4.07,.66-6.18s-.05-3.77-.16-5.08c-.11-1.31-.25-2.33-.42-3.06-.17-.73-.37-1.23-.58-1.48-.21-.25-.44-.38-.68-.38-.48,0-.89,.18-1.24,.54-.35,.36-.64,.79-.88,1.3-.24,.51-.43,1.03-.58,1.56-.15,.53-.26,.97-.34,1.32l-.56-.16c.11-.43,.24-.93,.4-1.52Z"/></g></g></svg>