<?xml version="1.0" encoding="UTF-8"?><svg id="Layer_2" xmlns="http://www.w3.org/2000/svg" viewBox="0 0 182.83 31.18"><defs><style>.cls-1{fill:#aa805b;}.cls-2{fill:#58595b;}</style></defs><g id="_ÉåÉCÉÑÅ__1"><path class="cls-1" d="m19.2,14.15c.83-.13,1.59-.29,2.28-.46v-3.64c-.53.19-1.32.44-2.28.65v3.46Z"/><path class="cls-1" d="m18.12,6.45c-.6.19-1.51.39-2.53.39s-1.93-.21-2.53-.39v3.35c.78.13,1.63.22,2.53.22s1.76-.09,2.53-.22v-3.35Z"/><path class="cls-1" d="m5.42,12.18l.76.35s.94.42,2.44.86v-4.98l.76.35s1.04.46,2.6.83v-4.74l.76.35s1.3.57,2.85.57,2.84-.57,2.85-.58l.76-.34v4.73c1.55-.36,2.58-.82,2.6-.83l.76-.34v4.98c1.5-.44,2.42-.85,2.44-.86l.76-.35v12.88c2.31-2.48,3.73-5.81,3.73-9.47,0-7.68-6.22-13.91-13.9-13.91S1.68,7.91,1.68,15.59c0,3.66,1.42,6.99,3.73,9.47v-12.88Z"/><path class="cls-1" d="m13.06,10.89v3.4c.81.09,1.66.15,2.53.15s1.73-.05,2.53-.15v-3.4c-.78.12-1.63.2-2.53.2s-1.75-.08-2.53-.2Z"/><path class="cls-1" d="m11.98,14.14v-3.46c-.96-.21-1.75-.46-2.28-.65v3.64c.69.17,1.45.33,2.28.46Z"/><path class="cls-1" d="m15.59,31.18C6.99,31.18,0,24.19,0,15.59S6.99,0,15.59,0s15.59,6.99,15.59,15.59-6.99,15.59-15.59,15.59ZM15.59.59C7.32.59.59,7.32.59,15.59s6.73,15,15,15,15-6.73,15-15S23.86.59,15.59.59Z"/><path class="cls-1" d="m22.56,14.52v11h-1.08v-10.71c-.7.17-1.46.32-2.28.44v9.2h-1.08v-9.06c-.81.09-1.66.14-2.53.14s-1.73-.05-2.53-.14v9.06h-1.08v-9.2c-.82-.12-1.58-.28-2.28-.44v10.71h-1.08v-11c-.9-.25-1.62-.51-2.12-.7v12.27h0c2.44,2.12,5.62,3.4,9.11,3.4s6.66-1.28,9.1-3.39v-12.28c-.5.19-1.23.44-2.12.7Z"/><path class="cls-2" d="m72.39,25.85c-.15,0-.16-.03-.25-.32-.19-.59-.77-.96-1.4-.96-.76,0-1.17.4-1.17,1,0,.46.27.78,1.24,1.14,1.35.49,2.21.81,2.21,1.87,0,.82-.62,1.65-2.22,1.65-1.7,0-2.05-1.21-2.05-1.32,0-.32.26-.44.43-.44.26,0,.27.1.29.46.05.81.99.93,1.33.93.52,0,1.46-.14,1.46-1.08,0-.81-.82-1.11-1.63-1.43-.93-.35-1.68-.64-1.68-1.56,0-1.08.94-1.53,1.83-1.53.36,0,.57.07.99.21.12.04.14.05.25.05.04,0,.26-.07.31-.07.07,0,.11.03.14.08.05.08.14.9.15,1.1,0,.07.02.24-.22.24Z"/><path class="cls-2" d="m79.14,27.7c0,.31,0,1.74.04,1.95.03.04.06.09.12.11.11.06.2.1.2.21,0,.17-.14.2-.23.2h-.6c-.16,0-.25-.03-.25-.2,0-.05.03-.27.04-.32,0-.35,0-2.04.02-2.42h-3.43c0,.57-.03,1.84,0,2.35,0,.08.02.15.14.22.17.09.19.1.19.2,0,.19-.15.19-.28.19h-.57c-.15,0-.26-.03-.26-.2,0-.02.03-.12.04-.14.03-.17.03-.23.03-.76,0-.28.04-1.62.04-1.93v-1.78c0-.64,0-.71-.39-.71-.14,0-.27,0-.27-.16,0-.12.08-.2.21-.2h.91c.1,0,.35,0,.35.25,0,.04-.1.24-.11.28,0,.29-.02,1.67-.03,1.98h3.43v-1.55c-.02-.45-.02-.59-.27-.59h-.16c-.16,0-.23-.06-.23-.18,0-.11.08-.2.2-.2h.89c.17,0,.33.05.33.25,0,.05-.07.31-.07.37,0,.18,0,.6,0,.68,0,.17-.02,1.01-.02,1.2v.92Z"/><path class="cls-2" d="m81.24,24.28c.15,0,.36,0,.36.24,0,.05-.06.3-.07.36-.04.46-.04,3.71-.04,4.52,0,.26.08.31.15.35.2.12.21.12.21.2,0,.14-.09.21-.2.21h-.36c-.51,0-.57,0-.57-.16,0-.07.04-.37.04-.45,0-.34.05-2.02.05-2.41v-1.79c0-.54,0-.59-.13-.67-.05-.03-.08-.03-.32-.03-.07,0-.22,0-.22-.18,0-.13.1-.19.2-.19h.88Z"/><path class="cls-2" d="m82.71,24.69c-.13,0-.2-.09-.2-.2,0-.21.18-.21.27-.21.08,0,1.03,0,1.09,0,.07,0,.19,0,.29.11.13.14,2.55,3.71,3.03,4.41.02-3.34-.04-4.04-.05-4.05-.03-.11-.05-.22-.05-.29,0-.08.03-.2.24-.2.79,0,.79.03.79.2,0,.13-.05.14-.24.2-.15.04-.18.11-.18.48,0,.26-.04,1.56-.04,1.86,0,.42.05,2.44.05,2.9,0,.24-.2.31-.4.31-.16,0-.2-.07-.26-.19-.34-.66-3.32-5.01-3.38-5.1,0,.62,0,3.64,0,4.33,0,.1.03.61.03.73,0,.2-.14.29-.48.29-.18,0-.18-.15-.18-.19,0-.11.06-.61.07-.72.06-.65.08-2.78.08-4.13,0-.13,0-.54-.26-.54h-.23Z"/><path class="cls-2" d="m92.33,28.4h-3.45v-.46h3.45v.46Z"/><path class="cls-2" d="m95.99,30.21c-2.22,0-2.9-1.79-2.9-3.03,0-1.65,1.21-2.94,2.91-2.94,1.58,0,2.84,1.04,2.84,2.99,0,1.56-1.11,2.97-2.86,2.97Zm-.08-5.6c-1.37,0-2.06,1.38-2.06,2.58s.7,2.63,2.14,2.63,2.04-1.35,2.04-2.57c0-1.39-.79-2.65-2.12-2.65Z"/><path class="cls-2" d="m103.97,29.12c.13.14.16.17.4.4.22.2.43.3.62.34.09.03.14.08.14.15,0,.07-.03.12-.09.14-.11.03-.57.07-.81.07-.36,0-.42-.07-.95-.71-.61-.73-.76-.93-1.85-2.3l-.4.3c0,.74-.02,1.23-.02,1.64,0,.53.03.57.16.65.17.09.2.1.2.2,0,.19-.2.19-.35.19-.74,0-.77,0-.77-.2,0-.05.06-.32.06-.38,0-.17.05-1.47.05-2.63,0-.15-.02-1.69-.03-2.01,0-.12-.02-.32-.35-.32-.22,0-.29-.04-.29-.16,0-.15.13-.2.22-.2h.85c.21,0,.32.08.32.29,0,.07-.04.39-.04.47-.03.25-.03,1.62-.03,2.01.39-.34,1.68-1.45,2.69-2.63.08-.09.11-.13.38-.13h.26c.17,0,.3.02.3.16,0,.1-.07.14-.11.18-.16.1-.18.13-.37.29l-2.24,1.93,2.03,2.28Z"/><path class="cls-2" d="m107.02,28.04c-.14.36-.8,2.06-.81,2.07-.03.04-.07.09-.37.09-.25,0-.28-.04-.28-.12,0-.07.04-.14.14-.31.22-.37,1.52-3.27,2.08-5.06.14-.42.2-.63.6-.63.23,0,.25.07.41.44.4,1.02,1.01,2.66,1.44,3.67.09.21.57,1.36.62,1.43.09.13.14.15.31.24.04.03.1.06.1.16,0,.14-.16.14-.21.14-.12,0-.65,0-.74,0-.2-.02-.23-.12-.26-.24-.2-.6-.21-.66-.67-1.89h-2.37Zm1.22-3.08l-1.05,2.69h2.07s-1.01-2.69-1.01-2.69Z"/><path class="cls-2" d="m114.83,24.66c-.92,0-2.01.88-2.01,2.62,0,1.44.76,2.46,2.2,2.46.5,0,1.33-.14,1.89-.75.12-.14.18-.2.25-.2.12,0,.17.12.17.2,0,.14-.31.44-.46.59-.54.51-1.24.63-1.93.63-1.93,0-2.9-1.25-2.9-2.89,0-1.95,1.28-3.03,2.77-3.03.45,0,.79.14.87.16.19.08.3.12.53.12.05,0,.3-.04.36-.04.27,0,.27.11.31.64,0,.13.08.73.08.88,0,.15-.18.21-.3.21-.08,0-.14-.04-.19-.2-.12-.34-.13-.38-.19-.49-.11-.21-.48-.89-1.45-.89Z"/><path class="cls-2" d="m123.46,27.7c0,.31,0,1.74.04,1.95.03.04.06.09.12.11.11.06.2.1.2.21,0,.17-.14.2-.23.2h-.6c-.16,0-.25-.03-.25-.2,0-.05.03-.27.04-.32,0-.35,0-2.04.02-2.42h-3.43c0,.57-.03,1.84,0,2.35,0,.08.02.15.14.22.17.09.19.1.19.2,0,.19-.15.19-.28.19h-.57c-.15,0-.26-.03-.26-.2,0-.02.03-.12.04-.14.03-.17.03-.23.03-.76,0-.28.04-1.62.04-1.93v-1.78c0-.64,0-.71-.39-.71-.14,0-.27,0-.27-.16,0-.12.08-.2.21-.2h.91c.1,0,.35,0,.35.25,0,.04-.1.24-.11.28,0,.29-.02,1.67-.03,1.98h3.43v-1.55c-.02-.45-.02-.59-.27-.59h-.16c-.16,0-.23-.06-.23-.18,0-.11.09-.2.2-.2h.89c.17,0,.33.05.33.25,0,.05-.07.31-.07.37,0,.18,0,.6,0,.68,0,.17-.02,1.01-.02,1.2v.92Z"/><path class="cls-2" d="m125.56,24.28c.15,0,.36,0,.36.24,0,.05-.06.3-.07.36-.04.46-.04,3.71-.04,4.52,0,.26.08.31.15.35.2.12.21.12.21.2,0,.14-.09.21-.2.21h-.36c-.51,0-.57,0-.57-.16,0-.07.04-.37.04-.45,0-.34.05-2.02.05-2.41v-1.79c0-.54,0-.59-.13-.67-.05-.03-.08-.03-.32-.03-.07,0-.22,0-.22-.18,0-.13.1-.19.2-.19h.88Z"/><path class="cls-2" d="m128.09,24.28c.29,0,.4.03.51.2.02.03,1.7,3.75,1.92,4.25.61-1.4,1.22-2.8,1.82-4.21.09-.21.14-.25.42-.25h.94c.13,0,.2.06.2.18,0,.18-.09.18-.38.18-.17,0-.2.09-.2.29,0,.63.03,3.75.03,4.45,0,.18,0,.33.18.41.22.09.25.1.25.2,0,.2-.17.2-.35.2h-.54c-.17,0-.28-.04-.28-.25,0-.05.03-.31.04-.37,0-.29,0-3.02,0-3.54v-1.03c-.18.43-1.1,2.53-1.29,3.01l-.42,1.02c-.05.12-.2.5-.25.54-.09.08-.28.12-.37.12-.14,0-.2-.1-.24-.17-.12-.2-1.28-2.86-1.52-3.4l-.31-.71c-.2-.45-.22-.5-.25-.53v5.08c0,.21-.06.3-.42.3-.14,0-.2-.05-.2-.2,0-.23.05-1.34.06-1.6.03-.7.08-2.04.08-3.33,0-.36-.03-.45-.31-.46-.2,0-.34,0-.34-.18,0-.13.09-.19.2-.19h1.02Z"/><path class="cls-2" d="m136.05,28.04c-.14.36-.8,2.06-.81,2.07-.03.04-.07.09-.37.09-.25,0-.28-.04-.28-.12,0-.07.04-.14.14-.31.22-.37,1.52-3.27,2.08-5.06.14-.42.2-.63.6-.63.23,0,.25.07.41.44.4,1.02,1.01,2.66,1.44,3.67.09.21.57,1.36.62,1.43.09.13.14.15.31.24.04.03.1.06.1.16,0,.14-.16.14-.21.14-.12,0-.65,0-.74,0-.2-.02-.23-.12-.26-.24-.2-.6-.21-.66-.67-1.89h-2.37Zm1.22-3.08l-1.05,2.69h2.07s-1.01-2.69-1.01-2.69Z"/><path class="cls-2" d="m143.87,24.66c-.92,0-2.01.88-2.01,2.62,0,1.44.76,2.46,2.2,2.46.5,0,1.33-.14,1.89-.75.12-.14.18-.2.25-.2.12,0,.17.12.17.2,0,.14-.31.44-.46.59-.54.51-1.24.63-1.93.63-1.93,0-2.9-1.25-2.9-2.89,0-1.95,1.28-3.03,2.77-3.03.45,0,.79.14.87.16.19.08.3.12.53.12.05,0,.3-.04.36-.04.27,0,.27.11.31.64,0,.13.08.73.08.88,0,.15-.18.21-.3.21-.08,0-.14-.04-.19-.2-.12-.34-.13-.38-.19-.49-.11-.21-.48-.89-1.45-.89Z"/><path class="cls-2" d="m152.49,27.7c0,.31,0,1.74.04,1.95.03.04.06.09.12.11.11.06.2.1.2.21,0,.17-.14.2-.23.2h-.6c-.16,0-.25-.03-.25-.2,0-.05.03-.27.04-.32,0-.35,0-2.04.02-2.42h-3.43c0,.57-.03,1.84,0,2.35,0,.08.02.15.14.22.17.09.19.1.19.2,0,.19-.15.19-.28.19h-.57c-.15,0-.26-.03-.26-.2,0-.02.03-.12.04-.14.03-.17.03-.23.03-.76,0-.28.04-1.62.04-1.93v-1.78c0-.64,0-.71-.39-.71-.14,0-.27,0-.27-.16,0-.12.08-.2.21-.2h.91c.1,0,.35,0,.35.25,0,.04-.1.24-.11.28,0,.29-.02,1.67-.03,1.98h3.43v-1.55c-.02-.45-.02-.59-.27-.59h-.16c-.16,0-.23-.06-.23-.18,0-.11.08-.2.2-.2h.89c.17,0,.33.05.33.25,0,.05-.07.31-.07.37,0,.18,0,.6,0,.68,0,.17-.02,1.01-.02,1.2v.92Z"/><path class="cls-2" d="m154.59,24.28c.15,0,.36,0,.36.24,0,.05-.06.3-.07.36-.04.46-.04,3.71-.04,4.52,0,.26.08.31.15.35.2.12.21.12.21.2,0,.14-.09.21-.2.21h-.36c-.51,0-.57,0-.57-.16,0-.07.04-.37.04-.45,0-.34.05-2.02.05-2.41v-1.79c0-.54,0-.59-.13-.67-.05-.03-.08-.03-.32-.03-.07,0-.22,0-.22-.18,0-.13.1-.19.2-.19h.88Z"/><polygon class="cls-2" points="116.97 7.12 121.95 7.12 121.95 19.95 123.26 19.95 123.26 7.12 128.21 7.12 128.21 5.81 116.97 5.81 116.97 7.12"/><polygon class="cls-2" points="155.25 5.81 153.91 5.81 153.91 19.95 165.16 19.95 165.16 18.65 155.25 18.65 155.25 5.81"/><path class="cls-2" d="m178.66,7.07h4.17v-1.26h-4.17c-3.67,0-6.7,2.81-7.02,6.44h-1.61v1.26h1.61c.32,3.64,3.35,6.44,7.02,6.44h4.17v-1.26h-4.17c-2.96,0-5.44-2.25-5.76-5.18h8.82v-1.26h-8.82c.32-2.93,2.79-5.18,5.76-5.18Z"/><path class="cls-2" d="m144.8,5.81c-.12.11-.6.74-4.2,5.78l-.18.24-.18-.24c-3.6-5.04-4.08-5.67-4.19-5.78h-1.54l5.23,7.32v6.83h1.36v-6.83l5.23-7.32h-1.53Z"/><path class="cls-2" d="m84.99,20.1c-3.1,0-5.62-2.35-5.62-5.24v-3.96c0-2.89,2.52-5.24,5.62-5.24s5.62,2.35,5.62,5.24v3.96c0,2.89-2.52,5.24-5.62,5.24Zm0-13.1c-2.36,0-4.28,1.75-4.28,3.9v3.96c0,2.15,1.92,3.89,4.28,3.89s4.28-1.75,4.28-3.89v-3.96c0-2.15-1.92-3.9-4.28-3.9Z"/><path class="cls-2" d="m102.48,13.53s.04,0,.06,0h3.43s-.02,0-.03,0h-3.46Z"/><path class="cls-2" d="m106,12.23s-.04,0-.06,0h-3.43s.02,0,.03,0h3.46Z"/><path class="cls-2" d="m102.54,7.1h7.31v-1.3h-7.31c-2.15,0-3.91,1.75-3.91,3.86,0,.97.37,1.88.98,2.56.7.78,1.72,1.28,2.86,1.3h3.46s.02,0,.03,0c1.42.02,2.58,1.15,2.58,2.54s-1.17,2.59-2.61,2.59h-7.31v1.3h7.31c2.16,0,3.91-1.77,3.91-3.89,0-.97-.37-1.86-.98-2.54-.7-.78-1.72-1.28-2.86-1.3h-3.46s-.02,0-.03,0c-1.42-.02-2.58-1.17-2.58-2.56s1.17-2.56,2.61-2.56Z"/><path class="cls-2" d="m44.01,19.96h-1.31v-6.37h-1.61v-1.31h1.61v-6.48h7.39c2.15,0,3.89,1.75,3.89,3.89s-1.75,3.89-3.89,3.89h-6.08v6.37Zm0-7.67h6.08c1.43,0,2.59-1.16,2.59-2.59s-1.16-2.59-2.59-2.59h-6.08v5.17Z"/><path class="cls-2" d="m72.52,19.47l-3.4-5.93c1.87-.29,3.3-1.9,3.3-3.85,0-2.15-1.75-3.89-3.89-3.89h-7.39v6.48h-1.61v1.31h1.61v6.37h1.31v-6.37h5.19l3.72,6.45,1.15-.57Zm-10.07-12.36h6.08c1.43,0,2.59,1.16,2.59,2.59s-1.16,2.59-2.59,2.59h-6.08v-5.17Z"/></g></svg>