<svg width="51" height="80" viewBox="0 0 51 80" fill="none" xmlns="http://www.w3.org/2000/svg">
<g clip-path="url(#clip0_700_15781)">
<path d="M16.7264 58.1033C14.8299 57.0688 13.2782 55.6895 12.4161 53.793L10.5195 61.2068C11.554 62.0688 12.7609 62.9309 13.9678 63.6206C15.1747 64.3102 16.554 64.655 17.9333 64.9999L22.7609 59.1378C20.8644 59.3102 18.623 59.1378 16.7264 58.1033Z" fill="#B3B3B3"/>
<path d="M11.3805 69.1379C10.5185 68.793 9.8288 68.2758 8.96673 67.7585L5.86328 80.1723L13.7943 70.1723C12.9322 69.8275 12.0702 69.4827 11.3805 69.1379Z" fill="#B3B3B3"/>
<path d="M34.4843 37.4138L31.036 51.5517L35.8636 39.3103C39.1394 44.3103 39.8291 51.0344 36.8981 56.7241C32.5877 65.3448 22.0705 68.9655 13.4498 64.4827C4.8291 60.1724 1.20841 49.6551 5.69117 41.0344C8.62221 35.1724 14.3119 31.7241 20.3463 31.3793L13.4498 43.1034L23.967 30L25.6912 27.931C16.5532 26.2069 6.89807 30.5172 2.58772 39.3103C-2.92952 50 1.20842 62.7586 11.7257 68.1034C22.2429 73.4482 35.0015 69.1379 40.3463 58.6206C44.6567 49.8275 42.4153 39.4827 35.5188 33.2758L34.4843 37.4138Z" fill="#B3B3B3"/>
<path d="M17.9335 55.862C21.7266 57.7585 26.3818 56.2068 28.2783 52.4137V52.2413C28.7956 51.3792 28.968 50.3447 28.968 49.3103L36.899 17.7585L16.3818 43.1034C15.6921 43.793 15.0025 44.4827 14.4852 45.3447C14.4852 45.3447 14.4852 45.3447 14.4852 45.5172C12.5887 49.4827 14.1404 53.9654 17.9335 55.862Z" fill="#938152"/>
<path d="M42.759 15.1724L40.3452 1.72414L36.7245 8.96552C36.3797 9.65517 36.3797 10 36.2073 10.3448C36.0349 10.6897 36.2073 10.8621 36.3797 11.0345C36.5521 11.2069 36.897 11.5517 37.5866 11.8966L37.4142 12.2414L33.6211 10.3448L33.7935 10C34.3107 10.1724 34.6556 10.3448 35.0004 10.3448C35.3452 10.3448 35.5176 10.1724 35.6901 10.1724C35.8625 10 36.0349 9.65517 36.3797 8.96552L39.1383 3.44828C39.4832 2.58621 39.828 2.06897 39.828 1.72414C39.828 1.37931 39.828 1.2069 39.6556 1.03448C39.4832 0.862069 39.1383 0.689655 38.6211 0.344828L38.9659 0L42.0694 1.55172L44.1383 12.7586L47.2418 6.55172C47.4142 6.03448 47.5866 5.68965 47.5866 5.51724C47.5866 5.34483 47.4142 5 47.2418 4.82759C47.0694 4.65517 46.7245 4.31034 46.2073 4.13793L46.3797 3.7931L50.1728 5.68965L50.0004 6.03448C49.4832 5.86207 49.1383 5.68965 48.7935 5.68965C48.4487 5.68965 48.2763 5.68965 48.1039 5.86207C47.9314 6.03448 47.759 6.37931 47.5866 6.72414L43.2763 15.3448L42.759 15.1724Z" fill="#938152"/>
</g>
<defs>
<clipPath id="clip0_700_15781">
<rect width="50.1724" height="80" fill="white"/>
</clipPath>
</defs>
</svg>
