<?xml version="1.0" encoding="UTF-8"?><svg id="Layer_2" xmlns="http://www.w3.org/2000/svg" viewBox="0 0 40.12 22.21"><defs><style>.cls-1{fill:#fff;}.cls-2{fill:#231f20;}.cls-3{fill:none;stroke:#231f20;stroke-width:.14px;}</style></defs><g id="Layer_1-2"><g><path class="cls-3" d="M18.87,10.96c-.08,4.48,3.48,8.17,7.96,8.25,4.47,.07,8.16-3.49,8.25-7.96,.08-4.48-3.49-8.17-7.96-8.25-4.48-.08-8.17,3.48-8.25,7.95Z"/><path class="cls-3" d="M20.68,10.99c-.06,3.48,2.7,6.35,6.18,6.41,3.48,.06,6.34-2.71,6.41-6.18,.06-3.48-2.71-6.35-6.18-6.41-3.48-.06-6.35,2.71-6.41,6.18Z"/><polyline class="cls-3" points="24.72 12.6 19.56 14.23 24.19 11.72"/><polyline class="cls-3" points="26.37 13.85 23.95 18.56 25.51 13.27"/><polyline class="cls-3" points="28.45 13.33 30.1 18.52 27.54 13.81"/><polyline class="cls-3" points="29.7 11.69 34.42 14.13 29.16 12.58"/><polyline class="cls-3" points="29.16 9.64 34.38 7.98 29.75 10.49"/><polyline class="cls-3" points="27.52 8.45 30 3.66 28.45 8.89"/><polyline class="cls-3" points="25.48 8.84 23.84 3.7 26.37 8.36"/><polyline class="cls-3" points="24.14 10.47 19.52 8.08 24.73 9.63"/><polyline class="cls-2" points="26.54 12.43 21.32 16.83 25.61 11.53"/><polyline class="cls-3" points="26.54 12.43 21.32 16.83 25.61 11.53"/><polyline class="cls-2" points="27.64 12.36 27.05 22.2 26.27 12.33"/><polyline class="cls-3" points="27.64 12.36 27.05 22.2 26.27 12.33"/><polyline class="cls-2" points="28.3 11.55 32.7 16.75 27.37 12.44"/><polyline class="cls-3" points="28.3 11.55 32.7 16.75 27.37 12.44"/><polyline class="cls-2" points="28.23 10.43 40.11 11.02 28.18 11.82"/><polyline class="cls-3" points="28.23 10.43 40.11 11.02 28.18 11.82"/><polyline class="cls-2" points="27.44 9.75 32.62 5.38 28.31 10.71"/><polyline class="cls-3" points="27.44 9.75 32.62 5.38 28.31 10.71"/><polyline class="cls-2" points="26.31 9.82 26.89 0 27.67 9.85"/><polyline class="cls-3" points="26.31 9.82 26.89 0 27.67 9.85"/><polyline class="cls-2" points="25.64 10.67 21.25 5.46 26.57 9.77"/><polyline class="cls-3" points="25.64 10.67 21.25 5.46 26.57 9.77"/><polyline class="cls-2" points="25.74 11.79 6.37 11.22 25.75 10.38"/><polyline class="cls-3" points="25.74 11.79 6.37 11.22 25.75 10.38"/><path class="cls-1" d="M27.03,9.43c.92,0,1.66,.74,1.66,1.66,0,.92-.74,1.66-1.66,1.66-.92,0-1.66-.74-1.66-1.66,0-.92,.74-1.66,1.66-1.66"/><path class="cls-3" d="M27.03,9.43c.92,0,1.66,.74,1.66,1.66,0,.92-.74,1.66-1.66,1.66-.92,0-1.66-.74-1.66-1.66,0-.92,.74-1.66,1.66-1.66Z"/><path class="cls-2" d="M5.26,9.36v.57s-2.76,1.68-2.76,1.68c-.59,.35-1.17,.69-1.75,.95v.03c.68-.05,1.29-.06,2.2-.06h2.32s0,.53,0,.53H0s0-.59,0-.59l2.76-1.7c.63-.37,1.17-.68,1.72-.92h0c-.73,.04-1.36,.06-2.19,.06H0s0-.54,0-.54H5.26Z"/></g></g></svg>