<svg width="20" height="21" viewBox="0 0 20 21" fill="none" xmlns="http://www.w3.org/2000/svg">
<path d="M15.1818 1.40906H4.81818C4.36364 1.40906 4 1.77269 4 2.22724V18.7727C4 19.2272 4.36364 19.5909 4.81818 19.5909H15.1818C15.6364 19.5909 16 19.2272 16 18.7727V2.22724C16.0091 1.77269 15.6364 1.40906 15.1818 1.40906ZM10 18.4545C9.27273 18.4545 8.69091 17.8636 8.69091 17.1454C8.69091 16.4181 9.28182 15.8363 10 15.8363C10.7273 15.8363 11.3091 16.4272 11.3091 17.1454C11.3091 17.8727 10.7273 18.4545 10 18.4545ZM14.8545 14.9727H5.14545V3.59997H14.8455V14.9727H14.8545Z" fill="black"/>
</svg>
