<svg width="55" height="55" viewBox="0 0 55 55" fill="none" xmlns="http://www.w3.org/2000/svg">
<circle cx="27.5" cy="27.5" r="26.5" fill="white" stroke="#938152" stroke-width="2"/>
<circle cx="28" cy="28" r="23.5" fill="white" stroke="#938152"/>
<path d="M18.768 45H20.184L21.992 39.072H20.792L20.024 41.96C19.84 42.616 19.712 43.208 19.52 43.872H19.48C19.296 43.208 19.168 42.616 18.984 41.96L18.2 39.072H16.96L18.768 45ZM22.6733 45H23.8573V39.072H22.6733V45ZM25.3139 45H29.0339V44.008H26.4979V42.424H28.5779V41.432H26.4979V40.064H28.9459V39.072H25.3139V45ZM30.7958 45H32.2438L32.8918 42.072C32.9878 41.608 33.0678 41.152 33.1478 40.696H33.1798C33.2518 41.152 33.3398 41.608 33.4358 42.072L34.0998 45H35.5718L36.6678 39.072H35.5478L35.0758 41.968C34.9878 42.584 34.8998 43.216 34.8118 43.856H34.7718C34.6438 43.216 34.5238 42.576 34.3958 41.968L33.7158 39.072H32.6998L32.0118 41.968C31.8838 42.584 31.7558 43.216 31.6358 43.856H31.6038C31.5158 43.216 31.4198 42.592 31.3318 41.968L30.8598 39.072H29.6598L30.7958 45Z" fill="#938152"/>
<g clip-path="url(#clip0_682_26099)">
<path d="M38.4688 20.5625C38.4688 14.7383 33.5482 10 27.5 10C21.4518 10 16.5312 14.7383 16.5312 20.5625C16.5312 23.6937 17.954 26.5106 20.2091 28.4465L16.9553 36H38.0447L34.7909 28.4465C37.046 26.5106 38.4688 23.6937 38.4688 20.5625ZM27.5 11.625C32.3333 11.625 36.3148 15.2012 36.7424 19.75H33.3457C32.935 16.9975 30.4703 14.875 27.5 14.875C24.5297 14.875 22.065 16.9975 21.6543 19.75H18.2575C18.6852 15.2012 22.6667 11.625 27.5 11.625ZM31.7188 20.5625C31.7188 22.8026 29.8262 24.625 27.5 24.625C25.1738 24.625 23.2813 22.8026 23.2813 20.5625C23.2813 18.3224 25.1738 16.5 27.5 16.5C29.8262 16.5 31.7188 18.3224 31.7188 20.5625ZM18.2575 21.375H21.6543C22.065 24.1275 24.5297 26.25 27.5 26.25C30.4703 26.25 32.935 24.1275 33.3457 21.375H36.7425C36.2987 26.0945 32.0413 29.7413 27.0051 29.4873C22.3974 29.253 18.6706 25.7675 18.2575 21.375ZM33.4036 29.4671L35.5178 34.375H19.4822L21.5964 29.4671C23.4838 30.6343 25.6306 31.179 27.811 31.1205C29.8214 31.0676 31.7307 30.5015 33.4036 29.4671Z" fill="#938152"/>
<path d="M27.5 18.125C26.1042 18.125 24.9688 19.2185 24.9688 20.5625C24.9688 21.9066 26.1042 23 27.5 23C28.8958 23 30.0313 21.9066 30.0313 20.5625C30.0313 19.2185 28.8958 18.125 27.5 18.125ZM27.5 21.375C27.0348 21.375 26.6563 21.0105 26.6563 20.5625C26.6563 20.1145 27.0348 19.75 27.5 19.75C27.9652 19.75 28.3438 20.1145 28.3438 20.5625C28.3438 21.0105 27.9652 21.375 27.5 21.375Z" fill="#938152"/>
</g>
<defs>
<clipPath id="clip0_682_26099">
<rect width="27" height="26" fill="white" transform="translate(14 10)"/>
</clipPath>
</defs>
</svg>
