<?xml version="1.0" encoding="UTF-8"?><svg id="Layer_2" xmlns="http://www.w3.org/2000/svg" viewBox="0 0 62.16 11.94"><defs><style>.cls-1{fill:#d52a7f;}</style></defs><g id="_情報"><g><path class="cls-1" d="M27.44,4.77c0,2.64-2.14,4.77-4.77,4.77s-4.77-2.13-4.77-4.77S20.03,0,22.67,0s4.77,2.14,4.77,4.77m-4.77-3.26c-1.66,0-2.82,1.22-2.82,3.25s1.16,3.27,2.82,3.27,2.81-1.22,2.81-3.27-1.11-3.25-2.81-3.25"/><path class="cls-1" d="M1.24,11.94c-.42,0-.89-.08-1.24-.21l.38-1.32c.24,.1,.49,.08,.77,.08,.92,0,1.05-.72,1.05-1.82V.1h1.78s0,8.95,0,8.95c0,1.73-.7,2.89-2.73,2.89"/><path class="cls-1" d="M6.84,7.52c-.55,0-.99-.44-.99-1s.44-1.02,.99-1.02,.98,.44,.98,1.02-.44,1-.98,1"/><path class="cls-1" d="M6.84,4.24c-.55,0-.99-.44-.99-1.01s.44-1.01,.99-1.01,.98,.44,.98,1.01-.44,1.01-.98,1.01"/><path class="cls-1" d="M36.6,9.39V3.86c0-.34,0-.64,.03-1h-.02c-.12,.3-.41,.73-.56,.96l-1.91,2.99h-.84l-2.09-3.04c-.19-.25-.38-.52-.57-.92h-.03c.03,.38,.03,.68,.03,.96v5.58h-1.71V.09h1.6l2.57,3.72c.27,.38,.45,.68,.62,.99h.02c.15-.3,.31-.62,.58-1.03L36.69,.09h1.61V9.39h-1.71Z"/><path class="cls-1" d="M14.03,9.64c-3.03,0-4.75-2.07-4.75-4.69S11.28,.11,14.45,.11c.94,0,1.82,.18,2.42,.49l-.06,1.58c-.85-.5-1.51-.63-2.28-.63-2.28,0-3.28,1.59-3.28,3.27,0,1.86,1.19,3.31,3.11,3.31,.9,0,1.66-.25,2.41-.66l.41,1.22c-1.09,.67-2.11,.94-3.15,.94"/><polygon class="cls-1" points="47.11 9.36 48.87 9.36 48.87 1.7 51.79 1.7 51.79 .11 44.19 .11 44.19 1.7 47.11 1.7 47.11 9.36"/><polygon class="cls-1" points="56.8 9.43 58.42 9.43 62.16 .11 60.28 .11 57.64 7.22 55 .11 53.06 .11 56.8 9.43"/></g></g></svg>