<svg width="98" height="20" viewBox="0 0 98 20" fill="none" xmlns="http://www.w3.org/2000/svg">
<g clip-path="url(#clip0_473_4724)">
<path d="M19.1276 1.05742L18.5383 0.945974C18.2678 0.92719 17.9964 0.92719 17.726 0.945974C17.4903 0.928576 17.2537 0.963813 17.0333 1.04921C16.8129 1.13461 16.6143 1.26802 16.4519 1.4397C16.1652 1.75823 15.8466 2.09269 15.5281 2.47493C15.2096 2.85717 14.7636 3.47831 14.3495 4.0676C13.9354 4.65689 13.5691 5.18247 13.2506 5.66027L12.2153 7.25295C11.8172 7.87409 11.4031 8.54301 10.9731 9.24379L9.63522 11.378L8.32923 13.4644C7.75041 14.3931 7.03649 15.2305 6.21097 15.9489C5.51962 16.5365 4.76034 17.0392 3.94937 17.446C3.77418 17.446 3.66269 17.6053 3.64676 17.6849C3.63083 17.7646 3.64676 17.8124 3.99715 17.8124L6.92766 17.5734L10.2882 17.3505L13.2506 17.1753C14.1266 17.1753 14.7477 17.0957 15.0981 17.0957H16.4519H17.2004C17.3753 17.0816 17.5511 17.0816 17.726 17.0957C18.1879 17.2071 18.4268 17.3983 18.4268 17.6531C18.3979 17.9205 18.3336 18.183 18.2356 18.4335C18.1304 18.745 18.0026 19.0484 17.8534 19.3413C17.8534 19.3413 17.8534 19.3413 17.8534 19.1821C17.8701 19.0499 17.8701 18.9161 17.8534 18.7839C17.8272 18.7112 17.7827 18.6466 17.724 18.5964C17.6654 18.5461 17.5947 18.512 17.5189 18.4972C17.0336 18.3249 16.532 18.2021 16.0218 18.1309C15.4644 18.0513 14.907 18.0035 14.3177 17.9557L12.5976 17.8761H11.0049C9.31667 17.8761 7.81957 17.8761 6.73655 17.9557C5.65353 18.0354 4.60236 18.0672 3.80603 18.1468C3.00969 18.2265 2.37262 18.322 1.87889 18.4176L0.5729 18.7043C0.449262 18.6856 0.336316 18.6235 0.254358 18.5291C0.184164 18.4611 0.139234 18.3712 0.126953 18.2742C0.126953 18.115 0.238442 18.0353 0.477343 18.0353C0.945674 18.0359 1.41364 18.0093 1.87889 17.9557C2.24678 17.9195 2.60394 17.8112 2.93005 17.6372C3.3629 17.3654 3.75445 17.0329 4.09271 16.6497C4.67879 15.9982 5.21141 15.3004 5.68538 14.5633C6.30652 13.6236 6.95953 12.6043 7.64438 11.4895C8.32923 10.3746 9.01406 9.22783 9.69891 8.06518L11.7375 4.68872C12.4224 3.57385 13.0276 2.60232 13.585 1.7582C13.6405 1.62578 13.7425 1.51817 13.8717 1.45559L14.2858 1.26448C15.0385 1.02459 15.8115 0.853984 16.5952 0.754813C17.4126 0.63102 18.2373 0.561892 19.0638 0.547806C19.2231 0.547806 19.2868 0.707061 19.2709 0.834475C19.2644 0.879754 19.2482 0.923101 19.2235 0.961576C19.1988 1.00005 19.1661 1.03273 19.1276 1.05742V1.05742Z" fill="#333333"/>
<path d="M35.1346 11.6806C34.597 12.29 33.9812 12.8255 33.303 13.2733C32.5864 13.7642 31.7348 14.0203 30.8662 14.0059C30.3592 14.0032 29.8589 13.889 29.401 13.6714C28.9278 13.4439 28.5258 13.0914 28.2383 12.6521C27.9986 13.1489 27.7328 13.6327 27.442 14.1014C27.1015 14.6573 26.7236 15.1894 26.3112 15.6941C25.8625 16.2358 25.3668 16.7368 24.83 17.1912C24.3046 17.6321 23.7269 18.0066 23.1099 18.3061C22.6918 18.4904 22.2441 18.5983 21.788 18.6246C20.7368 18.6246 20.1953 18.1946 20.1953 17.3505C20.2008 16.8435 20.2979 16.3417 20.482 15.8693C20.6756 15.36 20.9155 14.8695 21.1987 14.404C21.486 13.9302 21.7997 13.4729 22.1384 13.0344C22.4292 12.6647 22.7487 12.3185 23.094 11.9991C23.708 11.3625 24.4173 10.8252 25.1963 10.4064C25.9825 9.97508 26.8508 9.71461 27.7446 9.64196C27.8107 9.39161 27.8959 9.1467 27.9994 8.90935C28.0499 8.77783 28.1337 8.66167 28.2426 8.57232C28.3515 8.48297 28.4817 8.42348 28.6206 8.39968L29.0506 8.32002C29.1879 8.30207 29.322 8.26457 29.4487 8.20856C29.4886 8.18117 29.5358 8.16647 29.5841 8.16647C29.6325 8.16647 29.6797 8.18117 29.7195 8.20856C29.7991 8.20856 29.8151 8.32001 29.7195 8.41557C29.507 8.76015 29.3511 9.13656 29.2576 9.53046C29.1596 10.018 29.1116 10.5143 29.1143 11.0116C29.0795 11.6548 29.2406 12.2934 29.5762 12.8432C29.7558 13.0915 29.9973 13.2884 30.2768 13.4142C30.5563 13.54 30.8639 13.5902 31.1688 13.5599C31.913 13.5657 32.6392 13.3311 33.2393 12.891C33.8391 12.4769 34.3755 11.978 34.832 11.4098C34.8398 11.3809 34.8543 11.3543 34.8743 11.332C34.8943 11.3098 34.9193 11.2925 34.9472 11.2817C34.9751 11.2708 35.0051 11.2667 35.0349 11.2696C35.0647 11.2725 35.0934 11.2824 35.1187 11.2984C35.2302 11.4895 35.2461 11.5691 35.1346 11.6806ZM27.8879 11.9513C27.8239 11.679 27.7813 11.4021 27.7605 11.1231C27.7605 10.8046 27.7605 10.4861 27.7605 10.1994C27.7605 9.91273 27.7605 9.99235 27.5853 9.99235C27.2309 10.0083 26.886 10.1123 26.5819 10.295C26.1977 10.5199 25.8398 10.787 25.5148 11.0913C24.7573 11.8322 24.0843 12.6548 23.5081 13.544C23.1158 14.1488 22.7698 14.7824 22.4728 15.4393C22.1827 16.045 22.0408 16.711 22.0587 17.3823C22.0538 17.5588 22.0921 17.7337 22.1702 17.892C22.1702 18.0513 22.4091 18.1309 22.664 18.1309C23.268 18.0826 23.834 17.8166 24.2566 17.3823C24.8456 16.8422 25.3791 16.2447 25.8493 15.5985C26.3576 14.9564 26.8054 14.2686 27.1871 13.544C27.5011 13.0522 27.7374 12.515 27.8879 11.9513Z" fill="#333333"/>
<path d="M43.7339 13.114C43.2657 13.673 42.7658 14.2048 42.2368 14.7067C41.6741 15.2375 41.1007 15.7313 40.5167 16.1878C39.9479 16.65 39.3464 17.0705 38.717 17.4461C38.1614 17.7917 37.5749 18.0849 36.9651 18.322C36.5724 18.4696 36.1673 18.5815 35.7546 18.6565C35.4186 18.7225 35.0776 18.7598 34.7353 18.768C33.1426 18.768 32.3145 18.1469 32.3145 16.9205C32.3232 16.3971 32.4426 15.8814 32.6648 15.4074C33.2253 14.1544 34.0262 13.0235 35.022 12.0788C35.9287 11.1595 37.0123 10.4335 38.2073 9.94457C38.4858 9.82745 38.7819 9.75747 39.0833 9.73752C40.1663 9.73752 40.676 10.1357 40.676 10.9002C40.6914 11.2347 40.5838 11.5634 40.3734 11.8239C40.1982 11.9832 39.8956 12.2062 39.4974 12.4929H39.3541C39.4487 12.2769 39.4975 12.0437 39.4974 11.808C39.4867 11.5247 39.3668 11.2564 39.1629 11.0594C39.025 10.9302 38.8618 10.831 38.6836 10.768C38.5055 10.7049 38.3162 10.6795 38.1277 10.6931C37.5605 10.7018 37.0077 10.8732 36.535 11.1869C36 11.5382 35.5354 11.9865 35.1653 12.5088C34.7584 13.0838 34.4415 13.7175 34.2257 14.3881C33.9907 15.086 33.8723 15.8178 33.8753 16.5542C33.8551 16.7892 33.8907 17.0257 33.9793 17.2443C34.0679 17.463 34.2068 17.6576 34.3849 17.8124C34.7338 18.0988 35.1762 18.2462 35.6272 18.2264C36.8242 18.089 37.9653 17.6447 38.94 16.9364C40.604 15.8413 42.1053 14.517 43.3995 13.0025C43.5428 12.8751 43.6543 12.8432 43.718 12.9069C43.7817 12.9706 43.9091 12.9866 43.7339 13.114Z" fill="#333333"/>
<path d="M57.3208 12.9866C56.6519 13.7351 55.9193 14.4837 55.107 15.2481C54.3335 15.9777 53.52 16.6636 52.6702 17.3027C51.9132 17.8775 51.0961 18.3688 50.2334 18.7679C49.5473 19.1212 48.791 19.3171 48.0196 19.3413C47.7988 19.3641 47.5756 19.3404 47.3644 19.2719C47.1532 19.2033 46.9586 19.0913 46.7933 18.9432C46.5536 18.6651 46.4284 18.3065 46.4429 17.9398C46.4791 17.4235 46.6029 16.9173 46.8092 16.4427C47.1112 15.7292 47.4904 15.051 47.94 14.42C47.5578 14.8818 47.1118 15.3597 46.6181 15.8693C46.1151 16.3573 45.5832 16.8147 45.0254 17.239C44.5285 17.6337 43.9952 17.9804 43.4327 18.2742C43.0087 18.5321 42.5269 18.6799 42.0312 18.7043C41.426 18.7043 41.1074 18.4176 41.1074 17.8602C41.1792 17.0366 41.4527 16.2435 41.9038 15.5508C42.4793 14.5537 43.1984 13.6468 44.0379 12.8591C44.9452 11.9759 45.9686 11.2203 47.0799 10.6135C48.1653 10.005 49.3873 9.68167 50.6316 9.67379C50.7399 9.47168 50.8737 9.28433 51.0298 9.11634C51.1389 9.02598 51.2562 8.94601 51.3802 8.87745L52.6065 8.55894H52.7021C52.5442 8.7058 52.4051 8.87163 52.288 9.05267C52.1447 9.25972 52.0172 9.46674 51.858 9.67379H52.5269L53.1799 9.75345C53.3232 9.75345 53.4029 9.88082 53.4029 9.96046C53.4056 9.97781 53.4042 9.99557 53.3987 10.0123C53.3933 10.029 53.384 10.0442 53.3716 10.0566C53.3591 10.069 53.344 10.0783 53.3273 10.0838C53.3106 10.0892 53.2928 10.0906 53.2754 10.0879C53.0156 10.0156 52.7485 9.97283 52.4791 9.96046H51.6828C50.3449 12.1265 49.3575 13.8307 48.7204 15.0889C48.2231 15.9568 47.9037 16.9152 47.7807 17.9079C47.774 18.1281 47.8476 18.3432 47.9878 18.5132C48.1152 18.6724 48.3859 18.7361 48.8 18.7361C49.3563 18.7006 49.8989 18.5486 50.3927 18.2902C51.1237 17.9356 51.8173 17.5088 52.4632 17.016C53.1958 16.4586 53.9444 15.8375 54.7248 15.1208C55.5052 14.404 56.2378 13.6395 56.9386 12.8432C56.9623 12.8208 56.9936 12.8083 57.0262 12.8083C57.0588 12.8083 57.0901 12.8208 57.1138 12.8432C57.1587 12.8434 57.2025 12.8573 57.2395 12.8829C57.2764 12.9084 57.3048 12.9446 57.3208 12.9866V12.9866ZM50.4724 9.96046C49.4455 9.97272 48.4483 10.307 47.6215 10.9161C46.7158 11.551 45.9059 12.3127 45.2165 13.1777C44.559 13.9661 43.9927 14.8263 43.5283 15.7419C43.1897 16.3182 42.9729 16.9578 42.8912 17.6212C42.8912 17.8283 42.8912 17.9398 43.146 17.9398C43.437 17.895 43.7144 17.7861 43.9583 17.6212C44.3968 17.3636 44.8172 17.0763 45.2165 16.7612C45.7128 16.3694 46.1861 15.9493 46.634 15.503C47.1317 15.0178 47.5798 14.4842 47.9719 13.9103C48.4497 13.2732 48.8956 12.6043 49.3416 11.8876L50.5201 9.96046H50.4724Z" fill="#333333"/>
<path d="M65.729 3.90832C65.4549 3.98462 65.1883 4.08591 64.9327 4.21093C64.6732 4.33409 64.4487 4.52025 64.2797 4.75244C63.6107 5.60186 62.9578 6.49375 62.3207 7.42812C61.6995 8.35187 61.0943 9.29155 60.505 10.2153H65.952C65.9844 10.2298 66.0128 10.2518 66.035 10.2795C66.0571 10.3072 66.0724 10.3398 66.0794 10.3746C66.0779 10.4029 66.0679 10.4301 66.0509 10.4528C66.0339 10.4755 66.0106 10.4926 65.9838 10.502H64.9327H63.34L61.6199 10.5816H60.0272C59.3683 11.7212 58.7728 12.8962 58.2434 14.1014C57.8575 14.859 57.635 15.6892 57.5904 16.5382C57.5636 16.7342 57.5827 16.9337 57.6463 17.1209C57.7099 17.3082 57.8162 17.4781 57.9568 17.6172C58.0974 17.7563 58.2685 17.8607 58.4565 17.9222C58.6444 17.9837 58.8441 18.0006 59.0398 17.9716C59.5859 17.952 60.1246 17.8389 60.6325 17.6372C61.2839 17.3836 61.9172 17.0856 62.5277 16.7453C62.5442 16.7253 62.5648 16.7091 62.5883 16.6981C62.6117 16.687 62.6372 16.6813 62.6631 16.6813C62.689 16.6813 62.7146 16.687 62.738 16.6981C62.7614 16.7091 62.7821 16.7253 62.7985 16.7453C62.8941 16.8408 62.7985 16.9046 62.7029 16.9683C61.8357 17.4959 60.9113 17.9233 59.9476 18.2424C59.1082 18.509 58.2323 18.6433 57.3515 18.6406C56.9123 18.6486 56.4821 18.5146 56.1252 18.2583C55.9385 18.1029 55.7929 17.9039 55.7013 17.6789C55.6096 17.4539 55.5747 17.2099 55.5996 16.9683C55.6947 16.1349 55.9662 15.3314 56.3959 14.6111C57.0893 13.289 57.866 12.0123 58.7212 10.7887L57.4153 10.8842H56.5234C56.38 10.8842 56.3004 10.8842 56.3004 10.725C56.4547 10.5047 56.6492 10.3155 56.8737 10.1675H59.1194C59.3742 9.76935 59.6609 9.32341 59.9954 8.82968L60.951 7.3485L61.9385 5.91511L62.8463 4.62504L64.1841 4.09943C64.7575 3.89239 65.2512 3.71718 65.6971 3.58977C65.7255 3.59131 65.7527 3.60124 65.7753 3.61825C65.798 3.63526 65.8152 3.65858 65.8246 3.68532C65.8246 3.68532 65.8405 3.90832 65.729 3.90832Z" fill="#333333"/>
<path d="M73.5647 13.2255C72.8353 14.0817 72.0304 14.8706 71.1597 15.5826C70.371 16.2424 69.5353 16.8439 68.6592 17.3823C68.0921 17.7164 67.4882 17.9836 66.8595 18.1787C66.3442 18.3443 65.8079 18.4354 65.2668 18.4494C65.0654 18.4641 64.8631 18.4641 64.6616 18.4494C64.437 18.4264 64.2198 18.3558 64.0246 18.2424C63.8335 18.1394 63.6655 17.9985 63.5308 17.8283C63.3929 17.6216 63.3258 17.3756 63.3397 17.1275C63.3843 16.6283 63.5364 16.1448 63.7856 15.71C64.0925 15.0766 64.4328 14.4599 64.8049 13.8625C65.2031 13.2255 65.6013 12.6043 65.9995 12.031C66.288 11.5733 66.6018 11.132 66.9391 10.709C67.1339 10.456 67.4003 10.2673 67.7036 10.1675C67.936 10.0589 68.1827 9.9838 68.4362 9.94456C68.5796 9.94456 68.6433 9.94454 68.6433 10.072C68.658 10.1509 68.658 10.2319 68.6433 10.3108C68.6102 10.3984 68.5617 10.4794 68.5 10.5498C68.1177 11.0754 67.7196 11.6646 67.3373 12.3017C66.9551 12.9388 66.5728 13.5599 66.2543 14.1651C65.9648 14.6787 65.7095 15.2108 65.4898 15.7578C65.325 16.1361 65.2279 16.5404 65.2031 16.9523C65.193 17.0834 65.2137 17.215 65.2635 17.3366C65.3133 17.4583 65.3908 17.5667 65.4898 17.6531C65.7152 17.8037 65.9837 17.8764 66.2543 17.8602C66.9287 17.8369 67.5885 17.6569 68.1814 17.3345C68.9103 16.955 69.6079 16.5183 70.2678 16.0285C70.9357 15.5357 71.5739 15.0039 72.179 14.4359C72.662 13.989 73.1143 13.5102 73.5328 13.0025C73.6921 12.8751 73.7717 12.8273 73.7876 12.9069C73.7474 13.0333 73.6696 13.1444 73.5647 13.2255ZM71.5898 4.33832C71.5729 4.70318 71.4126 5.04663 71.1438 5.29393C71.0131 5.44016 70.8538 5.55801 70.6757 5.64019C70.4977 5.72238 70.3046 5.76718 70.1086 5.77177C69.7582 5.77177 69.583 5.61247 69.583 5.29393C69.5875 4.91879 69.7357 4.55966 69.9971 4.29054C70.1223 4.13781 70.2805 4.01548 70.4598 3.93272C70.6391 3.84996 70.8349 3.80894 71.0323 3.81276C71.3986 3.81276 71.5898 3.98793 71.5898 4.33832V4.33832Z" fill="#333333"/>
<path d="M86.4819 11.6806C85.9538 12.2933 85.3426 12.8294 84.6663 13.2733C83.9497 13.7642 83.0981 14.0203 82.2295 14.0059C81.7225 14.0032 81.2222 13.889 80.7642 13.6714C80.2883 13.4481 79.8853 13.0947 79.6016 12.6521C79.3946 13.0821 79.1238 13.5599 78.8053 14.1014C78.4645 14.661 78.0812 15.1935 77.6585 15.6941C77.2196 16.2393 76.7289 16.7407 76.1933 17.1912C75.6649 17.6358 75.0814 18.0106 74.4572 18.3061C74.0447 18.4902 73.6023 18.5981 73.1513 18.6246C72.1001 18.6246 71.5586 18.1946 71.5586 17.3505C71.5641 16.8435 71.6612 16.3417 71.8453 15.8693C72.0378 15.3567 72.2834 14.8656 72.5779 14.404C72.8596 13.9267 73.1736 13.4691 73.5176 13.0344C73.8078 12.6691 74.1217 12.3232 74.4572 11.9991C75.0802 11.3658 75.7942 10.8291 76.5755 10.4064C77.3568 9.97722 78.2196 9.71681 79.1079 9.64196C79.1802 9.3915 79.2707 9.14666 79.3786 8.90935C79.4263 8.77902 79.5073 8.66342 79.6135 8.57402C79.7196 8.48463 79.8473 8.42452 79.9838 8.39968L80.4298 8.32002C80.5668 8.30031 80.7006 8.26287 80.8279 8.20857C80.8653 8.18253 80.9098 8.16856 80.9554 8.16856C81.0009 8.16856 81.0454 8.18253 81.0828 8.20857C81.1783 8.20857 81.1943 8.32001 81.0828 8.41557C80.8637 8.75677 80.7073 9.13433 80.6209 9.53046C80.5173 10.0174 80.4639 10.5138 80.4616 11.0116C80.4373 11.6538 80.5976 12.2894 80.9235 12.8432C81.1053 13.0892 81.3472 13.2843 81.6261 13.4098C81.905 13.5353 82.2116 13.587 82.5162 13.5599C83.2558 13.568 83.9776 13.333 84.5707 12.891C85.1696 12.4759 85.706 11.9771 86.1634 11.4098C86.1712 11.3809 86.1857 11.3543 86.2057 11.332C86.2258 11.3098 86.2507 11.2925 86.2786 11.2817C86.3065 11.2708 86.3365 11.2667 86.3663 11.2696C86.3961 11.2725 86.4248 11.2824 86.4501 11.2984C86.5934 11.4895 86.6094 11.5691 86.4819 11.6806ZM79.2512 11.9513C79.1813 11.6795 79.1333 11.4026 79.1079 11.1231C79.1079 10.8046 79.1079 10.4861 79.1079 10.1994C79.1079 9.91273 79.1079 9.99235 78.9327 9.99235C78.5728 10.0056 78.2222 10.1097 77.9134 10.295C77.537 10.5243 77.1848 10.7911 76.8622 11.0913C76.4883 11.4513 76.1372 11.8343 75.811 12.238C75.4644 12.6559 75.1401 13.0918 74.8395 13.544C74.4527 14.1493 74.112 14.7829 73.8202 15.4393C73.5258 16.044 73.3784 16.7098 73.3902 17.3823C73.3931 17.5579 73.431 17.7312 73.5017 17.892C73.5813 18.0513 73.7405 18.1309 74.0113 18.1309C74.6139 18.0771 75.178 17.8119 75.604 17.3823C76.1929 16.8422 76.7264 16.2447 77.1966 15.5985C77.7049 14.9564 78.1528 14.2686 78.5345 13.544C78.854 13.0532 79.0958 12.5159 79.2512 11.9513V11.9513Z" fill="#333333"/>
<path d="M97.5512 13.3051C96.9867 14.0148 96.3804 14.6903 95.7355 15.3278C95.0548 15.9933 94.3197 16.6006 93.5377 17.1434C92.7982 17.6576 92.0084 18.0951 91.1805 18.4494C90.4392 18.7846 89.6368 18.9635 88.8233 18.975C88.4992 18.979 88.1765 18.9306 87.8677 18.8317C87.7219 18.7875 87.5967 18.6925 87.5148 18.564C87.433 18.4354 87.4 18.2817 87.4218 18.1309C87.4591 17.6353 87.6118 17.1553 87.8677 16.7293C88.1544 16.156 88.5048 15.5508 88.8871 14.9137C89.2693 14.2766 89.6993 13.6236 90.1134 12.9547C90.5007 12.369 90.8467 11.757 91.1486 11.1231C91.1947 11.0109 91.1947 10.885 91.1486 10.7727C91.1486 10.6772 91.0053 10.6772 90.862 10.7727C90.7186 10.8683 90.1612 11.2187 89.7152 11.5372C89.2693 11.8558 88.8233 12.1902 88.3774 12.5565L87.0555 13.6395C86.6414 14.0218 86.291 14.3562 86.0362 14.6429C85.5584 15.3119 85.1602 15.9171 84.8257 16.4745C84.4913 17.032 84.0772 17.669 83.5675 18.3539C83.456 18.5132 83.3605 18.5928 83.3127 18.5928C83.2649 18.5928 83.0419 18.4494 82.9304 18.1468C82.8611 17.9672 82.813 17.7801 82.7871 17.5894C82.855 17.2145 83.0455 16.8728 83.3286 16.6179L84.539 15.2482C85.0009 14.3881 85.4946 13.4962 85.9884 12.5565C86.4821 11.6169 86.9121 10.7568 87.2625 10.0082C87.3066 9.94456 87.3665 9.89346 87.4363 9.85995C87.5061 9.82644 87.5834 9.81167 87.6607 9.81713C87.8384 9.81794 88.0092 9.88625 88.1385 10.0082C88.2037 10.0638 88.2571 10.1319 88.2954 10.2085C88.3337 10.2852 88.3562 10.3687 88.3615 10.4542C88.2022 10.8488 87.9877 11.2189 87.7244 11.5531C87.2581 12.2469 86.8378 12.9704 86.4662 13.7192L88.2977 12.2858C88.9507 11.7921 89.5719 11.3143 90.1771 10.9002C90.7823 10.4861 91.3079 10.1198 91.7698 9.83307C92.0508 9.63111 92.3708 9.49005 92.7095 9.41896C92.7746 9.42192 92.8384 9.43914 92.8962 9.46941C92.9539 9.49968 93.0044 9.54229 93.0439 9.59418C93.129 9.68743 93.1844 9.80383 93.2032 9.92863C93.1706 10.109 93.094 10.2786 92.9802 10.4224C92.6617 10.8364 92.2635 11.3939 91.8016 12.015C91.3398 12.6362 90.8779 13.3688 90.4638 14.0696C90.0606 14.7204 89.6989 15.3959 89.3808 16.0923C89.1358 16.5631 88.9844 17.0769 88.9348 17.6053C88.9206 17.7239 88.9333 17.8442 88.9719 17.9572C89.0105 18.0703 89.074 18.1732 89.1578 18.2583C89.3634 18.3977 89.6116 18.4597 89.8586 18.4335C90.48 18.4063 91.086 18.2316 91.6265 17.9238C92.3449 17.541 93.0366 17.11 93.6969 16.6338C94.4217 16.1041 95.1082 15.524 95.7515 14.8978C96.3307 14.3253 96.8633 13.7075 97.3441 13.0503C97.3441 12.9706 97.4875 12.9547 97.599 13.0503C97.7105 13.1458 97.7104 13.1458 97.5512 13.3051Z" fill="#333333"/>
</g>
<defs>
<clipPath id="clip0_473_4724">
<rect width="98" height="19" fill="white" transform="translate(0 0.5)"/>
</clipPath>
</defs>
</svg>
