<?xml version="1.0" encoding="UTF-8"?><svg id="Layer_2" xmlns="http://www.w3.org/2000/svg" xmlns:xlink="http://www.w3.org/1999/xlink" viewBox="0 0 860 485"><defs><style>.cls-1{fill:none;}.cls-2{clip-path:url(#clippath);}.cls-3{fill:#938152;}.cls-4{fill:#d1d1d1;}.cls-5{fill:#231f20;}</style><clipPath id="clippath"><rect class="cls-1" x="288.15" y="222.06" width="293.3" height="50"/></clipPath></defs><g id="Layer_1-2"><g><rect class="cls-4" width="860" height="485"/><g class="cls-2"><g><path class="cls-5" d="M440.15,268.76c.2,.2,.3,.3,.6,.6s.6,.5,1,.5q.1,0,.2,.1t.1,.2v.2h-1.3c-.6,0-.7,0-1.5-1.1s-1.2-1.5-3-3.7l-.6,.5v2.7c0,.7,0,.9,.3,1s.3,.2,.3,.3c0,.2-.3,.3-.5,.3q-1.2,0-1.2-.3v-8q0-.5-.5-.5-.5,0-.5-.3c0-.1,0-.2,.1-.2q.1-.1,.2-.1h1.4c.4,0,.5,0,.5,.5v3.9c1.5-1.3,3-2.7,4.3-4.2,.2,0,.2-.2,.6-.2h.4c.3,0,.5,0,.5,.3s0,.2-.2,.3l-.6,.4-3.6,3.2,3,3.6Z"/><path class="cls-5" d="M444.55,260.96c.3,0,.6,0,.6,.5v5.1c0,1.7,0,3.2,2.5,3.2s2.8-2.1,2.8-3.6v-4.9c0-.1,0-.4,.4-.4h.8c.2,0,.4,0,.4,.4q0,.1-.1,.2l-.1,.1c-.4,0-.4,.2-.4,.9v3.8c0,1.8,0,4.2-3.7,4.2s-3.6-2.3-3.6-3.9v-4.5q0-.4-.4-.4c-.4,0-.5,0-.5-.3v-.1s0-.1,.1-.1l.1-.1h.1l1-.1Z"/><path class="cls-5" d="M454.75,269.06v.2c0,.3,0,.4,.2,.5s.3,.2,.3,.3-.2,.3-.8,.3-.9,0-.9-.3v-7.9c0-.1-.1-.1-.1-.2q-.1-.1-.2-.1h-.2c-.1,0-.2,0-.2-.1q-.1-.1-.1-.2c0-.3,.2-.3,.3-.4h3.4c1.6,0,3.2,.4,3.2,2.2,0,.6-.2,1.3-.7,1.7-.4,.5-1.1,.8-1.7,.8,.7,1,1.4,2,2.1,3,.3,.5,.7,.9,1.2,1.1,.5,.2,.6,.3,.6,.4s-1.1,.4-1.3,.4-.7,0-1-.6c-.4-.6-1.9-2.8-2.8-4.2h-1.3v3.1Zm0-4c0,.2,.4,.2,.7,.2,1.2,0,3,0,3-1.8s-1.6-1.9-2.7-1.9-1,0-1,.4v3.1Z"/><path class="cls-5" d="M464.25,267.06c-.2,.6-1.3,3.2-1.3,3.2,0,0,0,.2-.6,.2s-.4,0-.4-.2,.1-.4,.2-.5c1.2-2.6,2.3-5.3,3.2-8.1,.2-.7,.3-1,1-1s.4,0,.6,.7c.6,1.6,1.6,4.2,2.3,5.9,0,.4,.9,2.2,1,2.3,.1,.2,.3,.3,.5,.4v.2c0,.2-.3,.2-.4,.2h-1.1q-.1,0-.1-.1l-.1-.1v-.2c-.3-1-.4-1.1-1.1-3l-3.7,.1Zm2-5l-1.7,4.3h3.2l-1.5-4.3Z"/><path class="cls-5" d="M474.15,260.96c.5,0,.7,0,.8,.4,.2,.4,2.7,6,3.2,6.8l2.9-6.7q.2-.4,.7-.4h1.5c.2,0,.3,0,.3,.3s0,.3-.6,.3-.3,.2-.3,.5v7.2c0,.3,0,.5,.3,.6s.4,.2,.4,.3c0,.2-.3,.3-.5,.3h-.9c-.3,0-.4,0-.4-.4v-8.1l-2.1,4.9-.7,1.6c0,.2-.3,.8-.4,.9-.2,.1-.4,.2-.6,.2-.1,0-.2,0-.2-.1q-.1-.1-.1-.2c-.2-.3-2-4.6-2.4-5.5l-.5-1.1c-.3-.7-.4-.8-.4-.9v8.2c0,.3,0,.5-.7,.5s-.3,0-.3-.4v-7.9c0-.6,0-.7-.5-.7s-.5,0-.5-.3v-.1s0-.1,.1-.1l.1-.1h.1s1.7,0,1.7,0Z"/><path class="cls-5" d="M486.95,267.06l-1.3,3.2s0,.2-.6,.2-.4,0-.4-.2,.1-.4,.2-.5c1.2-2.6,2.3-5.3,3.2-8.1,.2-.7,.3-1,1-1s.4,0,.6,.7c.6,1.6,1.6,4.2,2.3,5.9,.2,.4,.9,2.2,1,2.3,.1,.2,.3,.3,.5,.4,0,0,.2,0,.2,.3s-.3,.2-.3,.2h-1.2c-.1,0-.2,0-.3-.1s-.1-.2-.2-.3c-.3-1-.3-1.1-1.1-3h-3.6Zm1.9-5l-1.7,4.3h3.2l-1.5-4.3Z"/><path class="cls-5" d="M497.05,265.16h2.1c.5,0,1.1-.1,1.5-.4h.2v.7c0,.3,0,.5-.4,.5h-2.6c-.3,0-1.1,0-1.1,.4v3.2q0,.4,1.8,.4c1.3,0,2.3,0,3.2-1.6q0-.3,.3-.3h.2v.2c0,.7-.2,1.4-.4,2,0,.2-.3,.2-1.2,.2h-4.5c-.3,0-.6,0-.6-.5v-7.8c0-.1-.1-.2-.1-.3-.1-.1-.2-.1-.3-.2-.5,0-.6,0-.6-.4s0-.3,.4-.3h6.1c.3,0,.4,0,.4,.4,.1,.4,.1,.8,.2,1.2v.1s0,.1-.1,.1c0,0-.1,0-.1,.1h-.1q-.2,0-.4-.4c-.6-1-1.1-1-3.2-1-.7,0-1.2,0-1.2,.4v3.2l.5,.1Z"/><path class="cls-3" d="M318.95,244.76c1.2-.2,2.5-.4,3.7-.7v-5.8c-1.2,.4-2.4,.8-3.7,1.1v5.4Z"/><path class="cls-3" d="M317.25,232.36c-1.4,.5-2.7,.7-4.1,.7s-2.7-.2-4.1-.6v5.4c1.3,.2,2.7,.3,4.1,.4,1.4,0,2.7-.1,4.1-.4v-5.5Z"/><path class="cls-3" d="M296.85,241.56l1.2,.5c1.3,.5,2.6,1,3.9,1.4v-8l1.2,.6c1.3,.5,2.7,1,4.2,1.3v-7.5l1.2,.6c1.5,.6,3,.9,4.6,.9s3.1-.3,4.6-.9l1.2-.5v7.5c1.4-.3,2.8-.8,4.2-1.3l1.2-.6v8c1.3-.4,2.6-.8,3.9-1.4l1.2-.5v20.7c3.9-4.1,6-9.6,6-15.3s-2.4-11.6-6.5-15.8c-4.2-4.3-9.9-6.7-15.8-6.7s-11.6,2.4-15.8,6.6c-4.2,4.2-6.6,9.8-6.6,15.8,0,5.6,2.1,11.1,6,15.2l.1-20.6Z"/><path class="cls-3" d="M309.05,239.56v5.5c1.3,0,2.6,.2,4.1,.2,1.4,0,2.8,0,4.1-.2v-5.5c-1.3,.2-2.7,.3-4.1,.3s-2.7-.1-4.1-.3Z"/><path class="cls-3" d="M307.35,244.76v-5.5c-1.2-.3-2.4-.6-3.6-1.1v5.8c1.1,.3,2.4,.6,3.6,.8Z"/><path class="cls-3" d="M313.15,272.06c-6.6,0-13-2.6-17.7-7.3-4.7-4.7-7.3-11.1-7.3-17.7s2.6-13,7.3-17.7c4.7-4.7,11-7.3,17.7-7.3s13,2.6,17.7,7.3c4.7,4.7,7.3,11.1,7.3,17.7s-2.6,13-7.3,17.7-11.1,7.3-17.7,7.3Zm0-49.1c-6.4,0-12.5,2.6-17,7.1s-7.1,10.6-7.1,17,2.5,12.5,7.1,17c4.5,4.5,10.6,7.1,17,7.1s12.5-2.6,17-7.1,7-10.6,7-17-2.5-12.5-7-17-10.7-7.1-17-7.1Z"/><path class="cls-3" d="M324.35,245.36v17.6h-1.6v-17.3c-1.1,.3-2.3,.5-3.7,.7v14.8h-1.7v-14.5c-1.4,.2-2.8,.3-4.2,.3s-2.7-.1-4.1-.2v14.6h-1.8v-14.8c-1.3-.2-2.5-.4-3.6-.7v17.1h-1.7v-17.6c-1.5-.4-2.6-.8-3.4-1.1v19.7c4.1,3.5,9.2,5.4,14.6,5.4s10.5-1.9,14.6-5.5v-19.7c-.8,.4-1.9,.8-3.4,1.2Z"/><path class="cls-5" d="M475.75,233.46h8v20.6h2.1v-20.6h7.9v-2.1h-18v2.1Z"/><path class="cls-5" d="M537.15,231.36h-2.2v22.7h18v-2.1h-15.8v-20.6Z"/><path class="cls-5" d="M574.75,233.36h6.7v-2h-6.7c-2.8,0-5.5,1.1-7.6,3s-3.4,4.5-3.6,7.3h-2.6v2h2.6c.2,2.8,1.5,5.4,3.6,7.3,2.1,1.9,4.8,3,7.6,3h6.7v-2h-6.7c-2.3,0-4.6-.8-6.3-2.3-1.7-1.5-2.8-3.7-3.1-6h14.1v-2h-14.1c.2-2.3,1.3-4.4,3.1-6,1.7-1.5,3.9-2.3,6.3-2.3Z"/><path class="cls-5" d="M520.35,231.36c-.2,.2-1,1.2-6.7,9.3l-.3,.4-.3-.4c-5.7-8.1-6.4-9.1-6.7-9.3h-2.5l8.4,11.7v11h2.2v-11l8.4-11.7h-2.5Z"/><path class="cls-5" d="M424.45,254.26c-2.3,.1-4.5-.8-6.2-2.3-1.7-1.6-2.7-3.7-2.8-6.1v-6.4c.1-2.3,1.1-4.5,2.8-6.1s3.9-2.4,6.2-2.3c2.3-.1,4.6,.8,6.2,2.3,1.7,1.6,2.7,3.8,2.8,6.1v6.4c-.1,2.3-1.1,4.5-2.8,6.1-1.6,1.6-3.9,2.4-6.2,2.3Zm0-21c-.9,0-1.7,.1-2.6,.4-.8,.3-1.6,.8-2.2,1.4-.6,.6-1.1,1.3-1.5,2.1-.4,.8-.6,1.6-.6,2.5v6.4c0,.9,.2,1.7,.6,2.5,.4,.8,.9,1.5,1.5,2.1s1.4,1.1,2.2,1.4,1.7,.4,2.6,.4,1.7-.1,2.6-.4,1.6-.8,2.2-1.4c.6-.6,1.2-1.3,1.5-2.1,.4-.8,.6-1.7,.6-2.5v-6.4c0-.9-.2-1.7-.6-2.5-.4-.8-.9-1.5-1.5-2.1s-1.4-1.1-2.2-1.4c-.9-.3-1.7-.4-2.6-.4Z"/><path class="cls-5" d="M452.65,233.46h11.7v-2.1h-11.7c-1.7,0-3.3,.6-4.4,1.8-1.2,1.2-1.9,2.7-1.9,4.4,0,1.5,.6,3,1.6,4.1,.6,.6,1.3,1.2,2.1,1.5,.8,.4,1.6,.5,2.5,.6h5.6c1.1,0,2.1,.4,2.9,1.2,.8,.8,1.2,1.8,1.2,2.9s-.5,2.2-1.2,2.9c-.8,.8-1.8,1.2-2.9,1.2h-11.7v2.1h11.7c1.7,0,3.3-.7,4.5-1.9,1.2-1.2,1.9-2.8,1.9-4.5,0-1.5-.6-3-1.6-4.1-.6-.6-1.3-1.2-2.1-1.5-.8-.4-1.6-.5-2.5-.6h-5.6c-1.1,0-2.1-.4-2.9-1.2-.8-.8-1.2-1.8-1.2-2.9,.1-1.1,.5-2.1,1.3-2.8,.6-.7,1.6-1.1,2.7-1.1Z"/><path class="cls-5" d="M358.75,254.06h-2.1v-10.3h-2.6v-2.1h2.6v-10.4h11.8c1.7,0,3.3,.7,4.5,1.8,1.2,1.2,1.9,2.7,1.9,4.4s-.7,3.3-1.9,4.5c-1.2,1.2-2.8,1.9-4.5,1.9h-9.7s0,10.2,0,10.2Zm0-12.3h9.7c.5,0,1.1-.1,1.6-.3,.5-.2,1-.5,1.3-.9,.4-.4,.7-.8,.9-1.3,.2-.5,.3-1,.3-1.6,0-.5-.1-1.1-.3-1.6-.2-.5-.5-1-.9-1.3-.4-.4-.8-.7-1.3-.9s-1-.3-1.6-.3h-9.7v8.2Z"/><path class="cls-5" d="M404.45,253.36l-5.5-9.6c1.5-.3,2.8-1,3.8-2.1s1.5-2.6,1.5-4c0-1.6-.7-3.2-1.9-4.4-1.2-1.2-2.7-1.8-4.4-1.9h-11.7v10.4h-2.6v2h2.6v10.2h2.1v-10.2h8.3l6,10.3,1.8-.7Zm-16.1-19.9h9.8c1.1,0,2.1,.4,2.9,1.2s1.2,1.8,1.2,2.9-.4,2.2-1.2,2.9c-.8,.8-1.8,1.2-2.9,1.2h-9.8v-8.2Z"/></g></g></g></g></svg>