<?xml version="1.0" encoding="UTF-8"?><svg id="Layer_2" xmlns="http://www.w3.org/2000/svg" xmlns:xlink="http://www.w3.org/1999/xlink" viewBox="0 0 105.52 89.93"><defs><style>.cls-1{clip-path:url(#clippath);}.cls-2{fill:#ece4d9;stroke:#cec6c5;stroke-width:.29px;}.cls-2,.cls-3,.cls-4,.cls-5,.cls-6,.cls-7,.cls-8,.cls-9,.cls-10,.cls-11{stroke-miterlimit:10;}.cls-3{stroke-dasharray:0 0 1.08 .49;}.cls-3,.cls-4,.cls-5,.cls-6,.cls-7,.cls-8,.cls-9,.cls-10,.cls-11{fill:none;}.cls-3,.cls-4,.cls-10{stroke-width:.22px;}.cls-3,.cls-4,.cls-10,.cls-11{stroke:#000100;}.cls-12{fill:#000100;}.cls-13{fill:#fff;}.cls-14{fill:#8eb3d3;}.cls-15{fill:#bfb9ae;}.cls-16{fill:#a71c20;}.cls-5{stroke-width:2.03px;}.cls-5,.cls-6,.cls-7,.cls-9{stroke:#e0dfdc;}.cls-6{stroke-width:2.9px;}.cls-17{fill:#9acf8e;fill-rule:evenodd;}.cls-7,.cls-8{stroke-width:.87px;}.cls-8{stroke:#fff;}.cls-9{stroke-width:1.74px;}.cls-10{stroke-dasharray:0 0 1.07 .49;}.cls-11{stroke-width:.09px;}</style><clipPath id="clippath"><rect class="cls-13" width="105.52" height="89.93"/></clipPath></defs><g id="_情報"><g><g><rect class="cls-13" width="105.52" height="89.93"/><g class="cls-1"><polygon class="cls-2" points="67.22 76.72 59.18 91.15 78.48 91.24 79.93 84.48 82.81 85.08 84.64 80.26 80.38 78.74 76.56 80.6 67.22 76.72"/><polygon class="cls-17" points="73.74 63.74 66.96 75.99 76.54 79.96 80.34 78.11 85.44 68.12 73.74 63.74"/><polygon class="cls-17" points="103.83 63.48 100.21 63.48 99.87 52.31 95.86 52.31 95.2 57.8 87.95 63.21 85.44 68.12 104.2 69.28 103.83 63.48"/><g><rect class="cls-16" x="39.83" y="48.67" width="6.95" height="3.07" transform="translate(26.52 -13.94) rotate(26.12)"/><polygon class="cls-16" points="49.95 54.22 42.46 50.55 47.24 40.8 56.05 41.8 49.95 54.22"/></g><path class="cls-14" d="M86,0h13.87l-6.68,13.77-7.19,17.37s-6.37,19.22-11.92,28.57c-5.55,9.35-21.07,30.22-21.07,30.22h-15.31l21.58-29.39c8.22-12.02,12.23-23.84,12.23-23.84,0,0,4.32-14.59,6.37-19.01S86,0,86,0Z"/><polyline class="cls-7" points="57.12 -.51 101 19.32 106.14 19.32"/><polyline class="cls-9" points="76.03 0 40.47 36.07 11.59 89.93"/><polyline class="cls-8" points="11.59 81.71 33.37 84.48 47.35 90.44"/><polyline class="cls-6" points="-.77 37.27 64.82 42.16 85.89 52.02 106.14 52.02"/><polyline class="cls-7" points="106.14 5.76 101 19.32 105.52 89.93"/><line class="cls-7" x1="42.61" y1="33.9" x2="51.36" y2="-1.85"/><line class="cls-7" x1="29.47" y1="-.92" x2="29.47" y2="39.77"/><polyline class="cls-7" points="-.82 8.12 3.26 8.84 48.43 10.14 59.8 16.46"/><line class="cls-7" x1="55.52" y1="20.81" x2="71.5" y2="36.69"/><polyline class="cls-7" points="19.6 0 19.09 26.31 17.87 38.89"/><polyline class="cls-7" points="-.82 24.05 4.8 24.77 29.47 27.44 48.22 28.21"/><polyline class="cls-7" points="-1 48.82 6.04 49.33 28.79 57.85"/><polyline class="cls-7" points="-.82 40.9 9.43 42.86 55.14 66.16"/><polyline class="cls-7" points="-.82 66.91 22 70.51 39.34 79.96"/><polyline class="cls-7" points="51.98 56.22 39.34 79.96 32.55 89.93"/><line class="cls-7" x1="25.88" y1="39.5" x2="12.5" y2="68.94"/><polyline class="cls-7" points="8.91 0 8.18 38.16 2.63 67.31 1.72 90.52"/><polyline class="cls-7" points="97.47 17.73 96.38 22.51 95.86 52.31 95.14 57.85 87.95 63.21 80.34 78.11 76.54 79.96 66.96 75.99"/><polyline class="cls-7" points="106.14 86.07 102.75 86.07 80.34 78.11"/><line class="cls-7" x1="85.44" y1="68.12" x2="73.74" y2="63.74"/><path class="cls-5" d="M100.32-.92l-7.13,14.7-7.19,17.37s-6.37,19.22-11.92,28.57c-5.55,9.35-22.71,32.48-22.71,32.48"/><polyline class="cls-7" points="103.34 13.14 98.43 11.64 93 18.5 81.27 49.88 73.15 64.9 58.89 90.44"/><polygon class="cls-15" points="77.46 82.08 71.51 80.62 69.88 81.6 68.42 87.56 69.41 89.18 75.36 90.64 76.98 89.66 78.44 83.7 77.46 82.08"/><line class="cls-7" x1="104.2" y1="69.28" x2="85.44" y2="68.12"/><rect class="cls-15" x="58.07" y="43.61" width="3.24" height="5.4" transform="translate(26.48 -21.55) rotate(26.12)"/><rect class="cls-15" x="44.95" y="53.59" width="3.02" height="6.13" transform="translate(29.69 -14.67) rotate(26.12)"/><polygon class="cls-15" points="61.52 50.82 61.53 50.79 57.21 48.67 57.23 48.64 54.52 47.31 50.91 54.67 53.62 56 56.61 49.9 59.72 51.43 58.78 53.33 60.79 54.32 62.32 51.21 61.52 50.82"/><path class="cls-7" d="M37.69,89.93l21.58-29.39c8.22-12.02,12.23-23.84,12.23-23.84,0,0,4.32-14.59,6.37-19.01,.31-.67,.71-1.54,1.17-2.54"/><g><line class="cls-4" x1="11.59" y1="89.93" x2="11.84" y2="89.46"/><polyline class="cls-10" points="12.07 89.02 40.47 36.07 75.89 .04"/></g><polyline class="cls-4" points="1 80.86 32.55 84.38 47.63 90.44"/><g><path class="cls-3" d="M105.68,88.91c-.59-8.19-4.54-63.02-5.32-66.02-.85-3.24-2.24-3.85-2.24-3.85l-3.85-2.7-22.59-10.27"/><line class="cls-4" x1="71.45" y1="5.97" x2="70.96" y2="5.74"/></g><rect class="cls-12" x="55.63" y="-.54" width="16.28" height="4.88" transform="translate(6.99 -27.2) rotate(25.43)"/><rect class="cls-12" x="-.16" y="78.89" width="16.28" height="4.88" transform="translate(7.13 -.39) rotate(5.01)"/><rect class="cls-12" x="46.32" y="19.32" width="16.28" height="4.88" transform="translate(.91 45.65) rotate(-45.82)"/><rect class="cls-12" x="9.64" y="76.13" width="16.28" height="4.88" transform="translate(-59.99 57.56) rotate(-62.13)"/><g><path class="cls-12" d="M14.95,38.03c0,.37,.03,.68,.07,.93,.14-.21,.25-.45,.33-.72l.24,.08s-.03,.03-.07,.03c-.11,.33-.26,.62-.45,.86,.09,.3,.2,.46,.32,.47,.07,0,.11-.07,.15-.38,.04,.04,.11,.09,.16,.11-.07,.4-.15,.47-.34,.45-.18-.01-.33-.18-.43-.49-.16,.18-.35,.32-.56,.43-.03-.04-.09-.11-.13-.14,.09-.04,.17-.09,.25-.14l-.83-.06v.16s-.17-.01-.17-.01l.11-1.49,1.08,.08v.15s-.43-.03-.43-.03l-.02,.22,.4,.03-.04,.56-.4-.03-.02,.24,.44,.03v.06c.09-.08,.18-.17,.26-.27-.07-.3-.11-.68-.11-1.14l-1.32-.1-.04,.58c-.03,.37-.11,.88-.39,1.21-.03-.04-.11-.09-.15-.12,.27-.31,.33-.76,.36-1.1l.06-.75,1.49,.11c0-.09,0-.17,0-.27h.06s0-.12,0-.12l-.82-.06-.02,.21h-.2s.02-.22,.02-.22l-.72-.05v-.17s.73,.05,.73,.05l.02-.24,.26,.03s-.02,.03-.06,.04v.18s.81,.06,.81,.06l.02-.24,.26,.04s-.02,.03-.06,.04v.18s.72,.05,.72,.05v.17s-.75-.05-.75-.05v.19s-.08,0-.08,0c0,.07,0,.14,0,.2l.55,.04c-.07-.09-.2-.21-.31-.29l.13-.08c.12,.08,.26,.2,.32,.29l-.12,.09,.24,.02v.18s-.81-.06-.81-.06Zm-1.26,1.03l-.02,.24,.34,.02,.02-.24-.34-.03Zm.76-.09l.02-.28-.75-.06-.02,.28,.75,.06Zm-.36-.67l-.34-.03-.02,.22,.34,.02,.02-.22Z"/><path class="cls-12" d="M18.41,37.38s-.04,.02-.07,.02c-.09,.11-.24,.27-.37,.37l.81,.06v.19s-2.72-.2-2.72-.2v-.19s.83,.06,.83,.06c-.06-.12-.2-.31-.32-.45l.18-.07c.13,.13,.27,.32,.33,.45l-.18,.07,1.04,.08-.16-.08c.12-.11,.28-.29,.37-.42l.24,.12Zm-1.22,.8h0s.1,0,.1,0l-.12,1.58c-.02,.21-.12,.22-.54,.19,0-.05-.03-.13-.06-.18,.07,0,.13,.01,.19,.02q.21,.02,.22-.04l.03-.43-.66-.05-.05,.67h-.19s.14-1.83,.14-1.83l.94,.07Zm-.82,.93l.66,.05,.02-.33-.66-.05-.02,.33Zm.72-.76l-.66-.05-.02,.32,.66,.05,.02-.32Zm.55-.11l.25,.04s-.02,.03-.06,.03l-.09,1.19h-.19s.09-1.26,.09-1.26Zm.78,1.6c-.02,.23-.11,.25-.62,.21,0-.06-.03-.14-.06-.2,.11,.01,.22,.02,.29,.03,.17,.01,.18,.01,.19-.05l.12-1.63,.26,.03s-.02,.04-.06,.04l-.12,1.58Z"/><path class="cls-12" d="M19.63,38.25l-.02,.25c.08,.12,.27,.47,.32,.55l-.12,.14c-.03-.1-.13-.31-.21-.47l-.11,1.45h-.19s.11-1.46,.11-1.46c-.12,.33-.28,.65-.44,.84-.02-.06-.06-.14-.09-.18,.2-.25,.42-.72,.54-1.14l-.4-.03v-.19s.43,.03,.43,.03l.05-.67,.24,.04s-.02,.03-.06,.03l-.05,.61,.34,.03v.19s-.36-.03-.36-.03Zm2.13-.02l-.51-.04c.13,.21,.34,.41,.54,.52-.04,.03-.11,.09-.14,.14-.11-.07-.22-.16-.32-.27l-.03,.38-.97-.07,.03-.37c-.1,.08-.22,.16-.36,.23-.02-.05-.08-.12-.12-.14,.26-.12,.46-.28,.6-.46l-.47-.04v-.16s.58,.04,.58,.04c.04-.07,.07-.14,.1-.21-.18,0-.37,0-.54-.02,0-.04-.02-.1-.04-.14,.48,.02,1.07,.02,1.39-.03l.14,.16s-.02,0-.03,0c0,0-.01,0-.02,0-.16,.02-.39,.04-.64,.04,0,.02-.03,.03-.06,.03-.02,.06-.05,.12-.09,.19l.97,.07v.17Zm-.13,.9l-.07,.98c-.01,.2-.09,.21-.51,.18,0-.05-.03-.12-.05-.18,.09,0,.17,.02,.22,.02,.13,0,.14,0,.14-.04l.06-.82-1.27-.09-.08,1.04h-.19s.09-1.22,.09-1.22l1.65,.12Zm-.5,.87l-.63-.05v.14s-.17-.01-.17-.01l.05-.71,.79,.06-.04,.56Zm-.13-.44l-.47-.03-.02,.29,.47,.04,.02-.29Zm.13-.76l.02-.28-.61-.04-.02,.28,.61,.04Zm.04-.42c-.05-.07-.09-.14-.12-.21l-.36-.03c-.04,.06-.09,.13-.15,.19l.63,.05Z"/><path class="cls-12" d="M22.62,38.82l-.07,.99c.2,.37,.63,.41,1.2,.45,.33,.02,.71,.05,.95,.05-.03,.04-.06,.13-.08,.19-.2,0-.53-.03-.83-.05-.66-.05-1.07-.08-1.34-.48-.17,.13-.34,.25-.49,.34,0,.03,0,.04-.03,.05l-.1-.22c.15-.08,.35-.2,.52-.32l.06-.81-.45-.03v-.19s.66,.05,.66,.05Zm-.37-1.16c.18,.15,.39,.38,.48,.54l-.16,.13c-.08-.16-.29-.39-.47-.55l.15-.11Zm1.63,.82c-.18-.11-.41-.23-.59-.31l.14-.11c.13,.06,.28,.13,.42,.21,.16-.06,.34-.14,.47-.22l-1.31-.1v-.17s1.53,.11,1.53,.11h.03s.15,.1,.15,.1c0,.01-.03,.02-.05,.02-.16,.12-.4,.25-.64,.35,.09,.05,.17,.1,.24,.14l.39,.03-.1,1.36c-.01,.2-.08,.21-.53,.18,0-.05-.02-.12-.04-.17,.09,0,.17,.02,.23,.02,.13,0,.14,.01,.15-.04l.02-.31-.56-.04-.04,.51h-.18s.04-.52,.04-.52l-.54-.04-.04,.52h-.19s.12-1.59,.12-1.59l.91,.07Zm-.78,.85l.54,.04,.02-.3-.54-.04-.02,.3Zm.6-.7l-.54-.04-.02,.29,.54,.04,.02-.28Zm.13,.75l.56,.04,.02-.3-.56-.04-.02,.3Zm.6-.41l.02-.28-.56-.04-.02,.28,.56,.04Z"/><path class="cls-12" d="M25.21,39.58c-.04-.17-.05-.4-.04-.57,.02-.28,.07-.61,.18-.98l.3,.07s-.05,.04-.09,.04c-.08,.24-.15,.62-.17,.86,0,.07,0,.12,0,.16,.07-.14,.2-.34,.27-.45,.02,.04,.08,.11,.11,.14-.25,.38-.33,.49-.33,.62,0,.02,0,.05,0,.07l-.21,.02Zm1.73-1.51s-.03,.05-.08,.06c0,.26,0,.7-.03,1.04-.05,.58-.29,1.08-1.23,1.39-.03-.05-.1-.14-.14-.19,.84-.25,1.1-.73,1.13-1.22,.03-.37,.02-.81,.01-1.13l.32,.04Z"/></g><g><path class="cls-12" d="M70.14,48.16c-.14,.34-.23,.64-.28,.89,.2-.14,.4-.33,.58-.54l.19,.16s-.04,.02-.07,0c-.23,.26-.47,.47-.74,.63-.03,.31,.02,.51,.12,.56,.06,.03,.13-.03,.28-.29,.02,.06,.07,.13,.11,.16-.21,.35-.31,.38-.48,.3-.16-.08-.24-.29-.22-.62-.22,.1-.45,.17-.68,.19-.01-.05-.05-.13-.07-.18,.1,0,.19-.02,.28-.04l-.75-.37-.07,.15-.15-.07,.66-1.34,.97,.48-.06,.13-.38-.19-.1,.2,.36,.18-.25,.51-.36-.18-.1,.21,.4,.19-.02,.05c.12-.04,.23-.09,.35-.15,.05-.3,.15-.67,.32-1.1l-1.19-.58-.26,.52c-.17,.34-.43,.78-.81,.97-.01-.04-.06-.12-.1-.17,.36-.18,.59-.58,.74-.89l.33-.68,1.34,.66c.04-.08,.07-.16,.11-.25l.06,.03,.06-.12-.74-.36-.09,.19-.18-.09,.09-.19-.65-.32,.08-.16,.65,.32,.1-.21,.23,.13s-.04,.02-.07,.01l-.08,.16,.74,.36,.1-.21,.23,.13s-.03,.02-.07,.01l-.08,.16,.66,.32-.08,.16-.66-.32-.08,.17-.06-.03c-.03,.06-.06,.12-.08,.19l.49,.24c-.03-.11-.1-.27-.18-.38l.15-.03c.08,.12,.17,.28,.19,.39l-.14,.04,.21,.1-.08,.16-.71-.35Zm-1.56,.49l-.1,.21,.31,.15,.1-.21-.31-.15Zm.74,.2l.12-.25-.67-.33-.12,.25,.67,.33Zm-.08-.76l-.31-.15-.1,.2,.31,.15,.1-.2Z"/><path class="cls-12" d="M72.15,49.13h0s.09,.05,.09,.05l-.7,1.42c-.09,.19-.19,.16-.57-.02,.01-.05,.02-.13,.02-.19,.06,.03,.12,.06,.17,.08q.19,.09,.22,.04l.19-.38-.59-.29-.29,.6-.17-.08,.8-1.64,.85,.42Zm-1.11,.56l.59,.29,.15-.3-.59-.29-.15,.3Zm2.55-.85s-.04,0-.07,0c-.13,.07-.32,.16-.48,.21l.73,.36-.08,.17-2.44-1.2,.08-.17,.74,.36c-.01-.14-.07-.36-.13-.53h.2c.07,.18,.13,.4,.14,.55h-.19s.94,.46,.94,.46l-.11-.14c.15-.06,.37-.17,.5-.25l.18,.2Zm-1.6,.41l-.59-.29-.14,.29,.59,.29,.14-.29Zm.55,.1l.22,.13s-.03,.02-.07,0l-.53,1.07-.17-.08,.55-1.12Zm.12,1.78c-.1,.21-.2,.19-.65-.04,.02-.06,.02-.15,.02-.21,.1,.05,.19,.1,.26,.13,.15,.07,.16,.08,.19,.02l.72-1.47,.23,.12s-.04,.03-.07,.01l-.7,1.42Z"/><path class="cls-12" d="M74.4,50.11l-.11,.22c.03,.14,.08,.54,.09,.63l-.17,.09c0-.11,0-.34-.02-.51l-.64,1.3-.17-.08,.64-1.3c-.24,.26-.51,.5-.72,.62,0-.06,0-.15-.02-.21,.28-.15,.66-.51,.93-.85l-.36-.17,.08-.17,.38,.18,.3-.6,.21,.12s-.03,.02-.07,0l-.27,.55,.31,.15-.08,.17-.31-.15Zm1.53,1.57l-.43,.88c-.09,.18-.16,.16-.54-.02,.02-.05,.02-.13,.02-.18,.08,.04,.15,.08,.2,.1,.12,.06,.13,.06,.15,.02l.36-.74-1.14-.56-.46,.94-.17-.08,.53-1.08,1.48,.73Zm-.78,.62l-.57-.28-.06,.13-.14-.07,.31-.63,.71,.35-.25,.51Zm1.23-1.41l-.46-.23c.04,.24,.16,.5,.31,.69-.05,.01-.14,.05-.18,.08-.08-.1-.14-.23-.19-.37l-.17,.34-.87-.43,.16-.33c-.13,.04-.27,.07-.42,.08,0-.05-.03-.13-.06-.17,.28-.01,.53-.09,.72-.21l-.42-.21,.07-.15,.51,.25c.06-.05,.12-.1,.17-.15-.17-.07-.34-.14-.5-.22,.01-.04,.02-.1,.02-.15,.44,.2,.99,.42,1.3,.49l.07,.2s-.02,0-.03,0c0,0-.01,0-.02-.01-.16-.04-.38-.11-.61-.2-.01,.02-.04,.02-.07,0-.04,.05-.09,.09-.15,.14l.88,.43-.07,.15Zm-1.19,.96l-.42-.21-.13,.26,.42,.21,.13-.26Zm.4-.65l.12-.25-.55-.27-.12,.25,.55,.27Zm.2-.38c-.02-.08-.03-.16-.04-.24l-.32-.16c-.06,.04-.13,.08-.21,.12l.57,.28Z"/></g><g><path class="cls-13" d="M52.08,23.46c.28,.24,.54,.42,.76,.54-.07-.24-.19-.48-.34-.72l.21-.13s0,.04-.02,.07c.18,.29,.3,.6,.37,.9,.29,.13,.49,.14,.57,.06,.05-.05,.02-.13-.19-.35,.06,0,.14-.03,.19-.05,.27,.31,.26,.41,.13,.55-.13,.13-.35,.13-.66,.02,.03,.24,.02,.48-.03,.71-.05,0-.14,0-.2,.01,.02-.09,.04-.19,.05-.28l-.58,.6,.12,.11-.11,.12-1.07-1.04,.75-.78,.1,.1-.29,.3,.16,.16,.28-.29,.41,.39-.28,.29,.17,.17,.31-.32,.04,.04c0-.13-.01-.25-.04-.38-.27-.14-.59-.35-.95-.65l-.92,.95,.42,.4c.27,.26,.61,.65,.67,1.08-.05,0-.14,.02-.19,.04-.06-.4-.37-.74-.62-.98l-.54-.53,1.04-1.07c-.06-.06-.13-.11-.2-.18l.05-.04-.09-.09-.57,.59,.15,.14-.14,.14-.15-.14-.5,.52-.13-.12,.5-.52-.17-.17,.19-.17s.01,.04-.01,.07l.13,.12,.57-.59-.17-.17,.19-.18s.01,.04-.01,.07l.13,.12,.51-.53,.13,.12-.51,.53,.14,.13-.05,.05c.05,.05,.1,.09,.15,.14l.38-.39c-.11,0-.28,.02-.42,.05l.02-.15c.14-.04,.32-.07,.43-.06v.15s.16-.17,.16-.17l.13,.12-.56,.57Zm-.35,.83l-.24,.24,.16,.16,.24-.24-.16-.16Zm.75,.16l-.2-.19-.52,.54,.2,.19,.52-.54Zm-.42,.64l.17,.17,.24-.24-.17-.17-.24,.24Z"/><path class="cls-13" d="M54.08,20.1s0,.04-.03,.07c.03,.14,.05,.36,.05,.52l.57-.58,.13,.13-1.89,1.95-.13-.13,.57-.59c-.14-.03-.37-.05-.55-.04l.06-.18c.18-.01,.42,0,.56,.03l-.07,.18,.73-.75-.17,.07c0-.17-.04-.4-.08-.55l.24-.11Zm-.17,1.45h0s.07-.07,.07-.07l1.13,1.1c.15,.15,.1,.23-.2,.54-.05-.03-.12-.06-.18-.08,.05-.04,.09-.09,.13-.13q.15-.15,.11-.19l-.31-.3-.46,.47,.48,.47-.13,.14-1.31-1.27,.66-.68Zm.06,.19l-.46,.47,.23,.22,.46-.47-.23-.22Zm.13,1.04l.46-.47-.24-.23-.46,.47,.24,.23Zm.14-1.53l.19-.17s0,.04-.01,.07l.86,.83-.13,.14-.9-.87Zm1.73,.43c.17,.16,.12,.24-.24,.6-.05-.03-.13-.07-.19-.08,.08-.08,.15-.15,.21-.21,.12-.12,.13-.13,.08-.18l-1.17-1.14,.19-.18s.01,.04-.01,.07l1.13,1.1Z"/><path class="cls-13" d="M56.64,19.5l.08-.06,.04,.04c.53,.57,.7,.78,.71,.9,0,.09-.02,.14-.12,.24-.04,.04-.09,.09-.14,.14-.04-.03-.1-.07-.15-.08,.09-.08,.16-.15,.19-.18,.06-.06,.08-.1-.19-.43l-.04,.1c-.1-.06-.28-.12-.42-.15l.04-.1c.14,.03,.3,.09,.4,.13h0c-.08-.1-.19-.22-.33-.37l-.55,.56,.06,.05-.12,.12-1.17-1.14,.78-.8,.13,.12-.32,.33,.21,.2,.27-.28,.12,.12-.27,.28,.21,.2,.27-.28,.12,.12-.27,.28,.21,.21,.24-.25,.02-.03Zm-1.25-.44l-.22,.23,.21,.2,.22-.23-.21-.2Zm.54,.52l-.21-.2-.22,.23,.21,.2,.22-.23Zm-.1,.34l.21,.21,.22-.23-.21-.21-.22,.23Zm1.75-1.6l-.35,.36c.48,.34,.95,.54,1.36,.44,0,.06,0,.16,.02,.21-.47,.08-.97-.14-1.51-.52l-.21,.22c.32,.32,.71,.77,.79,1.25-.05,0-.14,.03-.19,.04-.08-.49-.47-.9-.79-1.21l-.83-.81,.82-.84,.88,.86Zm-.88-.59l-.56,.57,.61,.59,.56-.57-.61-.59Zm-.44,2.71c.19,.2,.38,.44,.42,.64l-.13,.04c-.04-.19-.21-.41-.39-.6l.11-.08Zm.52,.32c-.11-.11-.28-.26-.43-.36l.07-.09c.15,.1,.33,.24,.44,.35l-.07,.1Zm-.24-.64c.16,.06,.34,.16,.44,.24l-.06,.1c-.1-.08-.29-.19-.44-.25l.06-.09Z"/></g><g><path class="cls-13" d="M14.02,83.02c.16-.12,.39-.26,.54-.31,.04,.09,.07,.14,.09,.18-.15,.04-.39,.18-.56,.3l-.07-.17Zm2.13-.64c.17,.04,.33,.07,.47,.08-.04-.19-.1-.37-.2-.53l.18-.15s0,.04,0,.06c.11,.19,.18,.4,.22,.63,.24,0,.42-.07,.5-.21,.05-.09-.04-.19-.33-.36,.06-.02,.13-.06,.17-.1,.36,.24,.44,.37,.33,.56-.11,.2-.34,.29-.64,.31,.03,.33,0,.69-.09,1.07-.06,0-.15,0-.21,.03,.1-.38,.14-.76,.11-1.1-.18-.01-.37-.05-.58-.1l-.29,.72-.17-.07,.29-.71c-.09-.03-.18-.05-.27-.09l-.22,.53-.17-.06,.21-.53c-.09-.03-.17-.07-.26-.11l-.23,.57-.17-.07,.24-.57c-.16-.07-.32-.15-.48-.23l.14-.23s.03,.04,.01,.08c.14,.07,.27,.14,.41,.2l.38-.92,.16,.06-.38,.92c.09,.04,.18,.07,.26,.1l.35-.84,.16,.06-.34,.84c.09,.03,.19,.06,.28,.08l.37-.91,.17,.06-.36,.89Zm-1.49,1.17c.16-.13,.38-.28,.53-.33l.09,.18c-.15,.05-.38,.19-.54,.32l-.08-.17Zm.15-2.09c.12-.11,.31-.24,.42-.3l.08,.17c-.12,.05-.31,.17-.44,.29l-.07-.16Zm1.4,2.96c-.14-.24-.41-.61-.65-.9l.18-.08c.22,.27,.47,.61,.62,.83,.02,0,.03,0,.04,0,.01,0,.02,.01,.02,.02l-.22,.12Z"/><path class="cls-13" d="M16.27,80.11l-.19-.1-.33,.63-.16-.09,.33-.63-.23-.12,.13-.22s.02,.03,.01,.07l.18,.1,.39-.74-.23-.12,.13-.22s.02,.03,0,.07l.18,.1,.34-.64,.16,.09-.34,.64,.19,.1-.09,.17-.19-.1-.39,.74,.19,.1-.09,.17Zm2.2-1.08l.16,.09-.6,1.13,.46,.24-.09,.18-.46-.24-.58,1.1-.16-.09,.58-1.1-.25-.13-.4,.76-.97-.51,.91-1.71,.97,.51-.41,.78,.25,.13,.6-1.13Zm-2.07,1.32l.27,.14,.72-1.36-.27-.14-.72,1.36Zm.41,.21l.27,.14,.72-1.36-.27-.14-.72,1.36Z"/><path class="cls-13" d="M17.83,77.58l.22,.12c.14-.02,.54-.06,.63-.07l.08,.17c-.11,0-.33,0-.51,0l1.28,.68-.09,.17-1.28-.68c.25,.25,.48,.52,.6,.74-.06,0-.15,0-.21,.01-.14-.28-.49-.68-.83-.95l-.19,.35-.17-.09,.2-.37-.59-.31,.13-.21s.02,.03,0,.07l.54,.29,.16-.3,.17,.09-.16,.3Zm.83-1.96l-.24,.45c.24-.04,.51-.15,.69-.29,0,.05,.04,.14,.07,.18-.11,.07-.24,.14-.38,.18l.34,.18-.45,.86-.33-.17c.03,.13,.06,.27,.06,.42-.05,0-.13,.02-.17,.05,0-.28-.08-.53-.19-.73l-.22,.42-.15-.08,.27-.5c-.05-.06-.09-.12-.15-.17-.08,.17-.15,.34-.23,.49-.04-.01-.1-.02-.15-.03,.21-.43,.45-.98,.53-1.28l.2-.07s0,.02,0,.03c0,0,0,.01-.01,.02-.05,.16-.13,.38-.22,.6,.02,.01,.02,.04,0,.07,.05,.04,.09,.1,.14,.15l.46-.86,.15,.08Zm-.09,.59c-.08,.02-.16,.03-.24,.03l-.17,.32c.04,.06,.08,.13,.11,.21l.29-.56Zm.37,.21l-.25-.13-.29,.54,.25,.13,.29-.54Zm.5-.33l.87,.46c.17,.09,.16,.17-.04,.54-.05-.02-.13-.03-.18-.03,.04-.08,.08-.15,.11-.2,.06-.11,.06-.13,.02-.15l-.73-.38-.59,1.12,.92,.49-.09,.17-1.07-.56,.77-1.46Zm.6,.8l-.3,.56,.12,.07-.07,.14-.62-.33,.37-.7,.5,.26Zm-.45-.06l-.22,.42,.25,.13,.22-.42-.25-.13Z"/><path class="cls-13" d="M20.11,74.65l.06-.08,.05,.03c.67,.4,.89,.55,.93,.67,.03,.08,.02,.14-.05,.26-.03,.05-.06,.11-.1,.17-.05-.02-.12-.04-.17-.04,.06-.1,.11-.19,.13-.22,.04-.08,.05-.12-.31-.36v.11c-.12-.02-.31-.03-.45-.03v-.11c.15-.01,.32,0,.43,.02h0c-.11-.07-.25-.16-.42-.27l-.37,.7,.07,.04-.08,.15-1.44-.76,.52-.99,.16,.08-.21,.4,.25,.13,.18-.35,.15,.08-.18,.35,.26,.14,.18-.35,.15,.08-.18,.35,.27,.14,.16-.3v-.04Zm-1.31-.07l-.15,.28,.25,.13,.15-.28-.25-.13Zm1.89-1.32l-.23,.44c.56,.19,1.07,.25,1.43,.04,.01,.06,.05,.15,.08,.2-.42,.21-.97,.14-1.6-.08l-.14,.27c.4,.22,.9,.54,1.11,.98-.04,.01-.13,.06-.17,.09-.21-.44-.7-.73-1.1-.94l-1.02-.54,.55-1.04,1.09,.57Zm-1.23,1.67l-.26-.14-.15,.28,.26,.14,.15-.28Zm.23-1.99l-.37,.71,.75,.4,.37-.71-.75-.4Zm-.23,2.35l.27,.14,.15-.28-.27-.14-.15,.28Zm.57,.37c.24,.14,.49,.31,.58,.5l-.12,.07c-.09-.17-.32-.33-.55-.47l.08-.1Zm.59,.17c-.13-.08-.34-.17-.52-.22l.04-.11c.17,.05,.39,.14,.52,.21l-.04,.12Zm-.41-.54c.17,.01,.37,.06,.49,.11l-.03,.12c-.12-.05-.33-.1-.5-.12l.03-.1Z"/></g><g><path class="cls-13" d="M.81,82.03c.17-.23,.4-.61,.58-.95l.15,.13c-.16,.31-.38,.67-.53,.89,.01,.02,.01,.03,.01,.04,0,.01,0,.02-.01,.03l-.2-.15Zm.19-1.77c.18,.09,.4,.25,.51,.36l-.13,.16c-.1-.11-.32-.27-.5-.38l.12-.14Zm.24-.8c.18,.1,.4,.26,.49,.38-.07,.08-.1,.12-.13,.15-.1-.12-.31-.29-.49-.4l.13-.13Zm1.42,1.72c.03,.17,.06,.33,.11,.46,.16-.11,.3-.24,.41-.39l.21,.11s-.03,.02-.06,.02c-.13,.17-.3,.32-.5,.45,.1,.22,.23,.36,.38,.38,.1,0,.16-.11,.21-.45,.04,.05,.11,.1,.16,.12-.08,.43-.17,.55-.39,.53-.23-.02-.4-.2-.53-.48-.29,.16-.64,.27-1.02,.33-.02-.06-.07-.13-.11-.18,.39-.06,.75-.17,1.05-.33-.06-.17-.1-.36-.13-.57h-.78s0-.17,0-.17h.76c-.01-.1-.02-.2-.03-.29h-.57s0-.17,0-.17h.57c0-.1,0-.2,0-.29h-.62s0-.17,0-.17h.62c0-.18,.01-.36,.03-.54l.27,.04s-.02,.04-.07,.04c-.01,.15-.02,.3-.03,.45h.99s0,.17,0,.17h-1c0,.11,0,.2,0,.29h.91s0,.17,0,.17h-.91c0,.11,.02,.21,.03,.3h.98s0,.17,0,.17h-.96Zm.34-1.58c.15,.07,.35,.19,.44,.28l-.12,.14c-.09-.09-.28-.21-.43-.29l.12-.12Z"/><path class="cls-13" d="M6.65,82.01l-.02,.19-1.27-.11-.04,.51-.2-.02,.04-.51-1.24-.11,.02-.19,1.24,.11,.02-.28-.85-.07,.1-1.1,1.93,.17-.1,1.1-.88-.08-.02,.28,1.27,.11Zm-1.85-1.61l.02-.21-.71-.06,.02-.18,.71,.06,.02-.26,.25,.04s-.02,.04-.06,.04l-.02,.21,.84,.07,.02-.26,.26,.04s-.02,.03-.06,.04l-.02,.21,.73,.06-.02,.18-.73-.06-.02,.21-.2-.02,.02-.21-.84-.07-.02,.21-.2-.02Zm-.21,.67l-.03,.31,1.54,.13,.03-.31-1.54-.13Zm.04-.46l-.03,.3,1.54,.13,.03-.3-1.54-.13Z"/><path class="cls-13" d="M7.73,80.86l-.02,.25c.07,.12,.27,.47,.31,.56l-.12,.14c-.03-.1-.13-.31-.21-.47l-.13,1.45-.19-.02,.13-1.44c-.13,.33-.29,.65-.45,.84-.02-.06-.06-.14-.09-.19,.2-.24,.43-.71,.56-1.13l-.4-.04,.02-.19,.42,.04,.06-.67,.24,.04s-.02,.03-.06,.03l-.05,.61,.34,.03-.02,.19-.34-.03Zm1.99,.91l-.09,.98c-.02,.2-.09,.21-.51,.17,0-.05-.02-.12-.05-.18,.09,0,.17,.02,.22,.03,.13,.01,.14,0,.15-.04l.07-.82-1.27-.11-.09,1.04-.19-.02,.11-1.2,1.64,.14Zm.13-.9l-.51-.04c.13,.21,.33,.41,.54,.53-.04,.03-.11,.09-.14,.14-.11-.07-.22-.17-.31-.28l-.03,.38-.96-.08,.03-.37c-.1,.08-.23,.16-.36,.22-.02-.05-.07-.12-.11-.14,.26-.11,.46-.28,.6-.46l-.47-.04v-.16s.58,.05,.58,.05c.04-.07,.08-.13,.1-.21-.18,0-.37-.01-.54-.02,0-.04-.02-.1-.03-.14,.48,.03,1.07,.03,1.39-.01l.14,.16s-.02,0-.03,0c0,0-.01,0-.02,0-.16,.02-.39,.03-.64,.03,0,.02-.03,.03-.06,.03-.02,.06-.05,.12-.09,.19l.97,.08v.16Zm-.66,1.76l-.63-.05v.14s-.17-.01-.17-.01l.06-.7,.78,.07-.05,.56Zm-.12-.44l-.47-.04-.03,.29,.47,.04,.03-.29Zm.14-.75l.02-.28-.61-.05-.02,.28,.61,.05Zm.05-.42c-.05-.07-.09-.14-.12-.21l-.36-.03c-.04,.06-.09,.12-.15,.18l.63,.06Z"/><path class="cls-13" d="M10.34,82.13c-.04,.28-.1,.57-.23,.73l-.11-.08c.12-.15,.18-.42,.22-.68l.13,.04Zm.97-.3l.1,.02v.06c-.12,.77-.17,1.03-.26,1.12-.06,.06-.12,.07-.26,.06-.06,0-.12-.01-.19-.02,0-.05,0-.12-.03-.17,.11,.02,.21,.03,.26,.03,.09,0,.13,0,.21-.42l-.11,.04c-.02-.11-.08-.29-.15-.42l.11-.03c.06,.12,.12,.28,.15,.39h0c.02-.13,.05-.29,.08-.49l-.78-.07v.08s-.18-.02-.18-.02l.14-1.63,1.12,.1-.02,.17-.46-.04-.03,.29,.39,.03v.16s-.41-.03-.41-.03l-.03,.29,.39,.03v.17s-.41-.03-.41-.03l-.03,.3,.34,.03h.04Zm-.89,.9c.02-.15,.02-.38,0-.56h.11c.02,.17,.02,.41,0,.56h-.12Zm.05-1.27l-.03,.3,.31,.03,.03-.3-.31-.03Zm.33-.14l.03-.29-.31-.03-.03,.29,.31,.03Zm.07-.74l-.31-.03-.03,.29,.31,.03,.03-.29Zm-.1,1.56c.05,.16,.09,.36,.09,.5l-.12,.02c0-.13-.04-.34-.08-.5h.11Zm2.05-.35l-.5-.04c.04,.58,.19,1.08,.52,1.33-.05,.03-.12,.1-.15,.15-.36-.31-.51-.84-.55-1.5l-.31-.03c-.05,.45-.15,1.04-.47,1.4-.03-.04-.11-.09-.15-.12,.33-.37,.4-.93,.44-1.37l.1-1.15,1.17,.1-.11,1.22Zm-.1-1.05l-.8-.07-.07,.85,.8,.07,.07-.85Z"/></g><g><path class="cls-13" d="M64.36,1.51c-.14,.34-.22,.64-.27,.89,.2-.15,.39-.33,.57-.55l.2,.16s-.04,.02-.07,0c-.22,.27-.47,.48-.73,.64-.03,.32,.02,.51,.12,.56,.06,.03,.12-.03,.27-.3,.02,.06,.07,.13,.11,.16-.21,.35-.31,.38-.48,.3-.16-.08-.24-.29-.23-.62-.22,.11-.44,.18-.68,.2-.01-.05-.05-.13-.07-.18,.1,0,.19-.02,.28-.05l-.75-.36-.07,.15-.15-.07,.64-1.35,.98,.46-.06,.13-.38-.18-.1,.2,.37,.17-.24,.51-.37-.17-.1,.21,.4,.19-.02,.05c.12-.04,.23-.09,.35-.15,.04-.3,.14-.67,.31-1.1l-1.19-.57-.25,.52c-.16,.34-.42,.79-.8,.98-.01-.04-.07-.12-.1-.17,.36-.19,.58-.59,.73-.9l.33-.68,1.35,.64c.03-.08,.07-.16,.1-.25l.06,.03,.06-.12-.74-.35-.09,.19-.18-.08,.09-.19-.65-.31,.07-.16,.65,.31,.1-.21,.23,.12s-.03,.02-.07,.01l-.08,.16,.74,.35,.1-.21,.23,.13s-.03,.02-.07,.01l-.08,.16,.67,.32-.07,.16-.67-.32-.08,.17-.06-.03c-.03,.06-.06,.13-.08,.19l.49,.23c-.03-.11-.11-.26-.19-.38l.15-.03c.08,.12,.17,.28,.2,.38l-.14,.04,.21,.1-.08,.16-.72-.34Zm-1.55,.51l-.1,.21,.31,.15,.1-.21-.31-.15Zm.74,.19l.12-.25-.68-.32-.12,.25,.68,.32Zm-.09-.76l-.31-.15-.1,.2,.31,.15,.1-.2Z"/><path class="cls-13" d="M66.48,2.51h0s.09,.05,.09,.05l-.68,1.43c-.09,.19-.19,.17-.57-.02,.01-.05,.02-.13,.02-.19,.06,.03,.12,.06,.17,.08q.19,.09,.22,.04l.18-.39-.59-.28-.29,.61-.17-.08,.78-1.65,.85,.41Zm-1.11,.57l.59,.28,.14-.3-.59-.28-.14,.3Zm2.53-.88s-.04,.01-.07,0c-.12,.07-.32,.16-.47,.21l.73,.35-.08,.17-2.45-1.17,.08-.17,.74,.35c-.01-.14-.07-.36-.14-.53h.2c.07,.17,.14,.4,.15,.54h-.19s.94,.45,.94,.45l-.12-.13c.15-.06,.37-.17,.5-.26l.18,.19Zm-1.59,.43l-.59-.28-.14,.29,.59,.28,.14-.29Zm.55,.1l.22,.12s-.03,.02-.07,0l-.51,1.08-.17-.08,.54-1.13Zm.14,1.78c-.1,.21-.19,.19-.65-.03,.02-.06,.02-.15,.02-.21,.1,.05,.19,.1,.26,.13,.15,.07,.17,.08,.19,.02l.7-1.48,.23,.12s-.04,.03-.07,.01l-.68,1.43Z"/><path class="cls-13" d="M68.01,4.25c-.13,.24-.29,.5-.47,.6l-.08-.11c.17-.1,.32-.33,.44-.56l.11,.08Zm-.14,.6c.07-.14,.15-.35,.2-.53l.11,.03c-.04,.18-.12,.39-.19,.53l-.12-.04Zm1.15-.54l.08,.05-.03,.05c-.37,.68-.52,.91-.63,.96-.08,.04-.14,.02-.26-.04-.05-.03-.11-.06-.17-.09,.02-.05,.03-.12,.03-.17,.1,.06,.19,.1,.23,.12,.08,.04,.13,.05,.35-.32h-.11c.02-.12,.02-.3,0-.45h.11c.02,.15,.01,.32,0,.43h0c.07-.11,.15-.25,.25-.43l-.71-.34-.03,.07-.16-.07,.7-1.47,1.01,.48-.07,.16-.41-.2-.12,.26,.36,.17-.07,.15-.36-.17-.12,.26,.36,.17-.07,.15-.36-.17-.13,.27,.31,.15h.04Zm-.63,.11c0,.17-.04,.37-.09,.5l-.12-.02c.05-.12,.08-.33,.1-.5l.11,.02Zm-.04-.74l-.13,.27,.28,.14,.13-.27-.28-.13Zm.36-.01l.12-.26-.28-.14-.12,.26,.28,.14Zm1.72,1.16l-.45-.21c-.17,.56-.2,1.08,.02,1.43-.06,.01-.15,.05-.2,.09-.23-.41-.18-.96,.01-1.6l-.28-.13c-.2,.41-.5,.92-.93,1.15-.02-.04-.07-.13-.1-.17,.43-.23,.7-.74,.89-1.13l.5-1.04,1.06,.5-.53,1.11Zm-1.4-1.83l-.28-.13-.12,.26,.28,.14,.12-.26Zm1.68,.81l-.72-.34-.37,.77,.72,.34,.37-.77Z"/></g><g><path class="cls-12" d="M74.8,33.08l.13,.08s-.02,.02-.02,.03c-.08,.23-.2,.53-.3,.78,.23,.25,.31,.46,.31,.65,0,.43-.26,.42-.5,.41,0-.05-.02-.13-.05-.18,.04,0,.09,0,.13,0,.12,0,.23,0,.23-.26,0-.17-.08-.37-.32-.61,.1-.23,.19-.51,.26-.72h-.43v2.48h-.18v-2.66h.74Zm1.83,1.39v1.05c0,.21-.11,.22-.45,.22,0-.05-.03-.13-.06-.18,.14,0,.25,0,.28,0,.03,0,.05-.01,.05-.04v-.87h-.55v.42l.28-.03c-.03-.08-.07-.17-.11-.24l.13-.04c.09,.18,.18,.42,.21,.56l-.14,.05c0-.05-.03-.11-.05-.18-.31,.04-.62,.08-.83,.11,0,.02-.02,.04-.04,.04l-.08-.21c.12,0,.26-.02,.43-.04v-.45h-.53v1.1h-.18v-1.27h.71v-.26h-.62v-1.13h1.45v1.13h-.64v.26h.74Zm-1.36-1.22v.32h.44v-.32h-.44Zm0,.79h.44v-.32h-.44v.32Zm1.07-.48v-.32h-.44v.32h.44Zm0,.48v-.32h-.44v.32h.44Z"/><path class="cls-12" d="M77.1,33.16h2.49v2.56h-.21v-.19h-2.08v.19h-.2v-2.56Zm1.12,.2h-.92v.87h.92v-.87Zm-.92,1.07v.9h.92v-.9h-.92Zm2.08-.2v-.87h-.96v.87h.96Zm-.96,1.1h.96v-.9h-.96v.9Z"/><path class="cls-12" d="M80.29,33.12l.26,.02s-.02,.04-.06,.04v.98c0,.58-.05,1.16-.44,1.61-.04-.04-.12-.11-.17-.14,.36-.42,.4-.94,.4-1.47v-1.03Zm.98,.12h.26s-.02,.05-.06,.06v2.18h-.2v-2.24Zm1.07-.14l.27,.02s-.02,.03-.06,.04v2.58h-.21v-2.63Z"/></g><g><path class="cls-12" d="M69.18,84.33h2.53v2.65h-.21v-.15h-2.12v.15h-.2v-2.65Zm.2,2.32h2.12v-2.12h-2.12v2.12Zm1.14-.47h.78v.18h-1.69v-.18h.72v-.55h-.59v-.17h.59v-.47h-.68v-.17h1.58v.17h-.71v.47h.64v.17h-.64v.55Zm.52-.05c-.06-.1-.2-.25-.31-.35l.13-.07c.12,.1,.25,.24,.32,.34l-.14,.08Z"/><path class="cls-12" d="M73.08,85.69l-.36,.13v.91c0,.22-.1,.25-.5,.24,0-.05-.04-.13-.07-.19,.14,0,.27,0,.31,0,.04,0,.06-.02,.06-.06v-.84c-.14,.05-.27,.09-.37,.13,0,.02-.02,.04-.04,.05l-.08-.24c.14-.04,.31-.09,.49-.14v-.71h-.46v-.19h.46v-.61h.26s-.02,.05-.06,.06v.55h.35v.19h-.35v.64l.34-.1,.03,.17Zm1.47-.29l.13,.06s-.02,.02-.03,.03c-.12,.37-.32,.67-.57,.91,.22,.18,.48,.32,.79,.4-.04,.04-.1,.12-.13,.17-.31-.1-.58-.25-.81-.45-.26,.2-.57,.35-.9,.45-.02-.05-.07-.14-.11-.18,.31-.08,.61-.21,.86-.41-.2-.21-.35-.46-.46-.75l.14-.04h-.31v-.19h.68v-.54h-.72v-.19h.72v-.5l.26,.02s-.02,.04-.06,.04v.44h.78v.19h-.78v.54h.51Zm-1.04,.19c.1,.25,.24,.48,.42,.67,.2-.18,.37-.41,.47-.67h-.9Z"/><path class="cls-12" d="M77.13,84.54h.66v.48h-.19v-.31h-1.12v.31h-.18v-.26l-.13,.12c-.09-.13-.27-.31-.44-.46-.11,.18-.25,.39-.43,.58h.35v-.3l.23,.02s-.02,.03-.06,.04v.24h.37v.98h-.73v.57c.14-.03,.29-.07,.44-.1-.07-.1-.15-.19-.22-.28l.15-.08c.2,.21,.41,.49,.49,.68l-.16,.1c-.03-.08-.09-.17-.15-.27-.31,.08-.63,.17-.84,.22,0,.02-.02,.04-.04,.04l-.09-.22c.07-.01,.14-.03,.23-.05v-1.56s-.06,.06-.09,.09c-.04-.04-.1-.1-.14-.13,.28-.25,.48-.57,.6-.81l.24,.04s-.02,.04-.06,.04c.17,.14,.38,.34,.48,.47v-.2h.63v-.35l.26,.02s-.02,.04-.06,.04v.29Zm-1.13,.62h-.54v.25h.54v-.25Zm-.54,.66h.54v-.26h-.54v.26Zm1.22-.06v.26h1.01v.94h-.19v-.13h-.82v.14h-.19v-1.98h1.08v.76h-.89Zm.7-.59h-.7v.41h.7v-.41Zm.12,1.02h-.82v.46h.82v-.46Z"/></g><g><path class="cls-12" d="M69.38,73.29v-2.63l.26,.02s-.02,.04-.06,.04v2.57h-.2Zm.73-2.53h1.68v2.51h-.2v-.2h-1.28v.2h-.2v-2.51Zm1.48,.2h-1.28v.86h1.28v-.86Zm-1.28,1.92h1.28v-.86h-1.28v.86Z"/><path class="cls-12" d="M74.91,71.95h-.55s-.03,0-.05,.01c-.1,.33-.25,.59-.47,.78,.36,.14,.69,.29,.91,.42l-.14,.17c-.23-.14-.57-.3-.94-.45-.32,.23-.75,.36-1.27,.45-.02-.05-.08-.13-.12-.17,.47-.06,.86-.17,1.16-.35-.2-.08-.41-.15-.61-.2-.02,.04-.04,.09-.07,.13l-.21-.05c.11-.19,.23-.45,.35-.72h-.73v-.2h.82c.08-.19,.17-.38,.23-.55l.26,.05s-.03,.03-.07,.03c-.06,.14-.13,.3-.2,.46h1.68v.2Zm-2.42-.85v.46h-.2v-.65h1.15v-.37l.27,.02s-.02,.04-.06,.04v.31h1.16v.65h-.21v-.46h-2.11Zm.66,.85c-.08,.17-.15,.34-.23,.49,.23,.06,.48,.14,.72,.23,.21-.18,.37-.41,.46-.72h-.96Z"/><path class="cls-12" d="M75.31,70.75h2.49v2.56h-.21v-.19h-2.08v.19h-.2v-2.56Zm1.12,.2h-.92v.87h.92v-.87Zm-.92,1.07v.9h.92v-.9h-.92Zm2.08-.2v-.87h-.96v.87h.96Zm-.96,1.1h.96v-.9h-.96v.9Z"/><path class="cls-12" d="M78.57,71v.72c0,.47-.03,1.15-.27,1.61-.04-.04-.12-.1-.17-.11,.23-.44,.25-1.05,.25-1.5v-.91h1.16v-.28l.27,.02s-.02,.04-.06,.04v.22h1.18v.19h-2.34Zm.85,.91l.11,.04s0,.02-.02,.03c-.06,.36-.16,.65-.31,.87,.23,.2,.54,.24,.94,.25,.1,0,.71,0,.84,0-.03,.04-.06,.13-.07,.18h-.77c-.44,0-.78-.06-1.03-.28-.12,.14-.26,.25-.42,.33-.03-.04-.09-.11-.13-.14,.16-.08,.3-.19,.42-.33-.1-.14-.19-.31-.26-.54l.15-.06c.05,.19,.12,.33,.21,.45,.11-.17,.19-.38,.24-.64h-.38l-.06,.09-.17-.05c.14-.22,.31-.5,.43-.7h-.44v-.17h.6s.12,.05,.12,.05c0,.01-.02,.02-.03,.04-.08,.15-.22,.37-.35,.58h.38Zm1.5,.15h-.58v.54h.52v.18h-1.2v-.18h.49v-.54h-.55v-.18h.55v-.41c-.15,.02-.31,.05-.46,.06,0-.04-.04-.11-.06-.15,.36-.04,.8-.12,1.03-.22l.16,.15s-.02,0-.03,0c0,0-.02,0-.02,0-.1,.04-.23,.07-.38,.1,0,.01-.02,.02-.05,.02v.44h.58v.18Z"/><path class="cls-12" d="M81.28,70.67h2.53v2.66h-.2v-.13h-2.14v.13h-.19v-2.66Zm.19,2.34h2.14v-2.15h-2.14v2.15Zm1.18-.77c.07,.08,.15,.15,.25,.22,.13-.08,.29-.2,.38-.27l.17,.1s-.03,.02-.06,.02c-.09,.07-.23,.16-.36,.23,.16,.09,.33,.17,.5,.21-.04,.03-.09,.09-.11,.13-.3-.09-.62-.28-.82-.5v.54h-.18v-.47c-.21,.14-.47,.27-.71,.35-.02-.03-.08-.1-.11-.13,.28-.09,.6-.25,.83-.44h-.54v-.51h1.33v.51h-.55Zm.8-.8v.14h-1.82v-.14h.81v-.2h-.62v-.13h.62v-.18l.25,.02s-.02,.03-.06,.04v.13h.64v.13h-.64v.2h.82Zm-1.4,.41v.26h.97v-.26h-.97Z"/></g><g><path class="cls-12" d="M54.75,50.22c.02,.37,.08,.68,.14,.92,.12-.22,.21-.47,.28-.74l.24,.06s-.03,.03-.07,.03c-.09,.33-.22,.63-.38,.89,.11,.3,.24,.45,.35,.45,.07,0,.1-.08,.12-.38,.04,.04,.12,.08,.17,.1-.04,.41-.11,.48-.3,.48s-.34-.16-.47-.46c-.15,.19-.32,.35-.53,.47-.03-.04-.1-.1-.14-.13,.08-.05,.16-.1,.23-.16h-.83v.16h-.16v-1.49h1.08v.15h-.42v.23h.41v.57h-.41v.24h.44v.06c.09-.09,.17-.18,.25-.29-.09-.29-.16-.67-.2-1.13h-1.32v.58c0,.38-.04,.89-.3,1.23-.03-.03-.11-.08-.16-.11,.24-.32,.27-.78,.27-1.12v-.76h1.49c0-.09,0-.17-.01-.27h.06s0-.13,0-.13h-.82v.21h-.2v-.21h-.72v-.17h.72v-.24h.26s-.02,.05-.06,.06v.18h.82v-.24h.26s-.02,.05-.06,.06v.18h.74v.17h-.74v.19h-.07c0,.07,0,.14,0,.2h.55c-.07-.08-.21-.19-.33-.26l.12-.09c.13,.07,.27,.18,.34,.26l-.11,.1h.24v.18h-.8Zm-.84,.33h-.34v.23h.34v-.23Zm.41,.65v-.28h-.75v.28h.75Zm-.75,.14v.24h.34v-.24h-.34Z"/><path class="cls-12" d="M58.14,49.31s-.03,.03-.07,.02c-.08,.12-.22,.29-.34,.4h.81v.19h-2.72v-.19h.82c-.07-.12-.22-.3-.35-.42l.18-.08c.14,.12,.29,.3,.37,.42l-.18,.08h1.05l-.16-.07c.11-.12,.26-.31,.34-.44l.25,.1Zm-1.16,.89h0s.1,0,.1,0v1.58c0,.21-.1,.23-.53,.23-.01-.05-.04-.13-.07-.18,.07,0,.13,0,.19,0q.21,0,.21-.06v-.43h-.66v.67h-.19v-1.83h.94Zm-.09,.18h-.66v.32h.66v-.32Zm-.66,.81h.66v-.33h-.66v.33Zm1.2-.96l.25,.02s-.02,.03-.06,.04v1.19h-.19v-1.25Zm.89,1.54c0,.23-.09,.25-.6,.25,0-.06-.05-.14-.08-.2,.11,0,.22,0,.29,0,.17,0,.18,0,.18-.06v-1.63h.26s-.02,.05-.06,.05v1.58Z"/><path class="cls-12" d="M60.29,51.58h1.25v.2h-2.71v-.2h1.24v-1.8h-1.09v-.2h2.42v.2h-1.12v1.8Z"/><path class="cls-12" d="M64.52,51.29h-1.04c.28,.23,.72,.42,1.12,.51-.04,.04-.1,.12-.14,.18-.42-.12-.88-.36-1.18-.64v.69h-.2v-.67c-.29,.27-.76,.5-1.17,.62-.03-.05-.09-.13-.13-.17,.39-.09,.82-.28,1.1-.51h-1.02v-.17h1.22v-.24h-.93v-.16h.93v-.24h-1.09v-.17h.69c-.03-.09-.09-.22-.16-.32l.12-.02h-.77v-.18h.5c-.04-.13-.15-.32-.25-.46l.17-.06c.11,.14,.22,.33,.27,.46l-.16,.06h.39v-.55h.26s-.03,.06-.07,.07v.49h.39v-.55h.26s-.03,.06-.07,.07v.49h.38s-.08-.03-.11-.04c.09-.13,.19-.33,.25-.47l.24,.08s-.03,.03-.06,.03c-.06,.12-.16,.28-.24,.4h.49v.18h-.68l.09,.03s-.03,.03-.06,.03c-.04,.08-.11,.2-.17,.29h.71v.17h-1.12v.24h.97v.16h-.97v.24h1.24v.17Zm-1.03-1.01c.05-.09,.12-.22,.17-.32h-.94c.07,.1,.14,.23,.17,.32l-.09,.02h.74l-.05-.02Z"/><path class="cls-12" d="M57.28,53.53h1.24v.18h-2.66v-.18h1.21v-.3l.26,.02s-.02,.04-.06,.04v.24Zm1.12,1.18v1.06c0,.12-.03,.18-.12,.21-.09,.03-.26,.03-.52,.03,0-.06-.04-.13-.07-.19,.12,0,.23,0,.32,0,.17,0,.19,0,.19-.06v-.88h-1.99v1.14h-.2v-1.31h2.39Zm-2.02-.82h1.64v.62h-1.64v-.62Zm1.43,.47v-.32h-1.24v.32h1.24Zm-.03,1.38h-.98v.16h-.18v-.8h1.16v.64Zm-.18-.49h-.8v.33h.8v-.33Z"/><path class="cls-12" d="M59.48,54.32c.09,.11,.35,.48,.4,.56l-.12,.16c-.05-.1-.18-.32-.29-.48v1.45h-.19v-1.49c-.11,.35-.26,.7-.41,.91-.02-.05-.07-.13-.11-.18,.2-.26,.4-.75,.49-1.18h-.44v-.19h.46v-.66l.25,.02s-.02,.03-.06,.04v.6h.38v.19h-.38v.25Zm.89,.21c.08,.23,.2,.44,.34,.63,.14-.2,.24-.41,.31-.65l.25,.06s-.03,.04-.07,.04c-.08,.25-.2,.5-.36,.71,.21,.24,.47,.43,.78,.54-.04,.04-.11,.12-.14,.18-.29-.12-.55-.32-.76-.56-.22,.23-.49,.42-.83,.56-.02-.04-.08-.12-.11-.16,.34-.13,.61-.32,.82-.55-.16-.22-.29-.47-.39-.74l.18-.05Zm.15-.46s-.03,.02-.06,.02c-.11,.21-.3,.47-.5,.65-.03-.04-.1-.09-.14-.12,.2-.17,.38-.42,.48-.64l.22,.09Zm1.05-.38v.19h-1.68v-.19h.73v-.46l.26,.02s-.02,.04-.06,.04v.4h.75Zm-.13,1.04c-.09-.18-.31-.46-.5-.66l.16-.09c.2,.2,.42,.47,.51,.65l-.17,.1Z"/></g><g><path class="cls-12" d="M45.69,35.78c.02,.37,.08,.68,.14,.92,.12-.22,.21-.47,.28-.74l.24,.06s-.03,.03-.07,.03c-.09,.33-.22,.63-.38,.89,.11,.3,.24,.45,.35,.45,.07,0,.1-.08,.12-.38,.04,.04,.12,.08,.17,.1-.04,.41-.11,.48-.3,.48s-.34-.16-.47-.46c-.15,.19-.32,.35-.53,.47-.03-.04-.1-.1-.14-.13,.08-.05,.16-.1,.23-.16h-.83v.16h-.16v-1.49h1.08v.15h-.42v.23h.41v.57h-.41v.24h.44v.06c.09-.09,.17-.18,.25-.29-.09-.29-.16-.67-.2-1.13h-1.32v.58c0,.38-.04,.89-.3,1.23-.03-.03-.11-.08-.16-.11,.24-.32,.27-.78,.27-1.12v-.76h1.49c0-.09,0-.17-.01-.27h.06s0-.13,0-.13h-.82v.21h-.2v-.21h-.72v-.17h.72v-.24h.26s-.02,.05-.06,.06v.18h.82v-.24h.26s-.02,.05-.06,.06v.18h.74v.17h-.74v.19h-.07c0,.07,0,.14,0,.2h.55c-.07-.08-.21-.19-.33-.26l.12-.09c.13,.07,.27,.18,.34,.26l-.11,.1h.24v.18h-.8Zm-.84,.33h-.34v.23h.34v-.23Zm.41,.65v-.28h-.75v.28h.75Zm-.75,.14v.24h.34v-.24h-.34Z"/><path class="cls-12" d="M49.08,34.87s-.03,.03-.07,.02c-.08,.12-.22,.29-.34,.4h.81v.19h-2.72v-.19h.82c-.07-.12-.22-.3-.35-.42l.18-.08c.14,.12,.29,.3,.37,.42l-.18,.08h1.05l-.16-.07c.11-.12,.26-.31,.34-.44l.25,.1Zm-1.16,.89h0s.1,0,.1,0v1.58c0,.21-.1,.23-.53,.23-.01-.05-.04-.13-.07-.18,.07,0,.13,0,.19,0q.21,0,.21-.06v-.43h-.66v.67h-.19v-1.83h.94Zm-.09,.18h-.66v.32h.66v-.32Zm-.66,.81h.66v-.33h-.66v.33Zm1.2-.96l.25,.02s-.02,.03-.06,.04v1.19h-.19v-1.25Zm.89,1.54c0,.23-.09,.25-.6,.25,0-.06-.05-.14-.08-.2,.11,0,.22,0,.29,0,.17,0,.18,0,.18-.06v-1.63h.26s-.02,.05-.06,.05v1.58Z"/><path class="cls-12" d="M49.97,35.57s-.08,.07-.13,.11c-.03-.04-.08-.09-.12-.11,.18-.12,.31-.29,.37-.43h.05s0-.07,0-.07h-.37v-.14h.37v-.14l.23,.02s-.02,.04-.06,.04v.08h.36v-.14l.23,.02s-.02,.04-.06,.04v.08h.36v.14h-.36v.12h-.18v-.12h-.36v.12h-.03s-.02,.02-.05,.02c0,.02-.02,.04-.03,.06h.77s.1,.01,.1,.01c0,.02,0,.04,0,.06-.04,.68-.07,.68-.35,.68-.03,0-.07,0-.1,0,0-.02,0-.05-.01-.08h-.49v.08h-.15v-.43Zm-.22,.85v-.13h2.76v.13h-2.76Zm.93-.56s.07,0,.09,0c.03,0,.05,0,.07-.02,.03-.04,.05-.16,.07-.46h-.77s-.05,.07-.08,.1h.62v.38Zm-.15-.06v-.19h-.4v.19h.4Zm-.32,1.78v-.55h1.85v.54h-.2v-.08h-1.46v.08h-.19Zm1.84-1.03v.12h-1.82v-.12h1.82Zm-1.82,.37v-.12h1.82v.12h-1.82Zm.08-.75v-.12h1.68v.12h-1.68Zm1.56,1h-1.46v.22h1.46v-.22Zm.63-1.97h-.22c-.07,.18-.18,.33-.32,.46,.16,.12,.35,.21,.57,.26-.04,.04-.09,.1-.11,.15-.23-.06-.42-.17-.59-.3-.17,.11-.37,.19-.58,.25-.02-.04-.07-.1-.1-.14,.21-.05,.4-.12,.56-.23-.09-.09-.17-.2-.23-.31-.07,.09-.14,.17-.21,.23-.03-.03-.09-.08-.13-.1,.18-.15,.35-.4,.44-.67l.21,.06s-.02,.03-.06,.03c-.02,.06-.04,.11-.08,.17h.85v.15Zm-.92,0c.06,.13,.15,.25,.26,.35,.11-.1,.2-.21,.26-.35h-.52Z"/><path class="cls-12" d="M55.23,35.53l.06,.04s-.02,.02-.04,.02c-.1,.17-.26,.38-.41,.54,.2,.15,.43,.27,.71,.33-.04,.04-.1,.11-.12,.16-.29-.08-.54-.21-.75-.39v.14h-1.05v-.11c-.23,.21-.51,.37-.79,.47-.02-.04-.07-.11-.1-.15,.19-.06,.38-.15,.56-.27-.08-.08-.19-.17-.28-.23l.11-.09c.1,.06,.22,.15,.3,.23,.06-.05,.11-.1,.17-.16-.08-.07-.19-.15-.29-.21l.1-.09c.1,.05,.21,.13,.29,.2,.08-.09,.14-.19,.19-.29h-.47c-.14,.15-.31,.3-.53,.43-.03-.04-.08-.1-.12-.12,.34-.18,.58-.44,.69-.66l.22,.03s-.02,.04-.06,.04c-.02,.04-.05,.08-.08,.13h.47s.12,.05,.12,.05c0,.01-.02,.02-.03,.03-.09,.24-.23,.45-.41,.62h.96c-.24-.22-.42-.5-.54-.84l.16-.04c.1,.27,.25,.51,.45,.7,.1-.11,.21-.23,.29-.36h-.53v-.17h.69s.04,.02,.04,.02v-.29h-2.13v.31h-.19v-.48h1.15v-.26h.26s-.02,.05-.06,.06v.21h1.16v.48h-.16Zm-1.51,1.45s-.03,.02-.07,.02c-.18,.2-.49,.4-.76,.52-.03-.04-.09-.11-.13-.14,.26-.1,.57-.29,.74-.5l.22,.09Zm1.45-.17h-.94v.57c0,.21-.1,.21-.56,.21,0-.05-.04-.12-.06-.17,.1,0,.2,0,.26,0,.14,0,.16,0,.16-.05v-.57h-.95v-.17h2.08v.17Zm.17,.72c-.17-.14-.52-.36-.79-.51l.13-.12c.27,.14,.62,.35,.8,.49l-.14,.14Z"/><path class="cls-12" d="M58.49,36.34h-.99c-.14,.08-.28,.14-.42,.21h1.12v1.04h-.2v-.11h-1.36v.11h-.2v-.79c-.2,.07-.42,.13-.62,.18-.02-.05-.06-.12-.09-.17,.24-.06,.48-.13,.72-.21v-.06h.17c.17-.06,.34-.13,.5-.21h-1.32v-.17h1.16v-.26h-.86v-.17h.86v-.22h-.98v-.62h2.37v.62h-1.17s.04,0,.04,0c0,.02-.02,.04-.06,.04v.17h.7v.16c.12-.08,.22-.17,.32-.27l.19,.13s-.03,.01-.04,.01c0,0-.02,0-.03,0-.14,.14-.31,.27-.49,.38h.71v.17Zm-1.82-.96v-.31h-.52v.31h.52Zm1.33,1.32h-1.3l-.07,.03v.21h1.36v-.23Zm-1.36,.62h1.36v-.24h-1.36v.24Zm.23-2.25v.31h.54v-.31h-.54Zm.28,1.11h.3c.14-.08,.28-.17,.4-.26h-.7v.26Zm.45-1.11v.31h.54v-.31h-.54Z"/></g><g><path class="cls-12" d="M43.98,55.79c.19,.08,.42,.21,.54,.31l-.12,.17c-.11-.11-.34-.24-.54-.33l.11-.15Zm-.04,1.78c.14-.24,.35-.65,.5-1l.16,.12c-.14,.32-.32,.7-.45,.93,.01,.01,.02,.03,.02,.04s0,.02,0,.03l-.21-.14Zm.2-2.6c.19,.08,.42,.23,.53,.34-.06,.08-.09,.12-.12,.16-.11-.11-.34-.26-.52-.35l.11-.14Zm1.56,1.59c.04,.17,.09,.32,.15,.45,.15-.12,.28-.26,.38-.42l.22,.09s-.03,.03-.06,.03c-.11,.18-.27,.34-.46,.49,.12,.21,.26,.34,.42,.34,.1,0,.15-.12,.17-.47,.04,.04,.11,.09,.17,.11-.05,.43-.12,.56-.34,.56s-.42-.16-.57-.43c-.28,.18-.61,.32-.98,.42-.03-.05-.08-.13-.12-.17,.39-.09,.74-.23,1.02-.42-.07-.16-.13-.35-.18-.56l-.78,.08-.02-.18,.76-.08c-.02-.09-.04-.19-.05-.28l-.57,.06-.02-.18,.56-.06c-.01-.09-.02-.19-.03-.28l-.61,.06-.02-.18,.62-.06c-.01-.17-.02-.35-.02-.53h.27s-.02,.05-.06,.06c0,.15,0,.3,.01,.45l.99-.09,.02,.17-1,.1c0,.1,.02,.19,.03,.28l.91-.09,.02,.17-.9,.09c.02,.1,.03,.19,.05,.29l.97-.1,.02,.18-.96,.1Zm.2-1.61c.16,.06,.36,.16,.46,.24l-.11,.15c-.1-.08-.3-.19-.46-.25l.11-.13Z"/><path class="cls-12" d="M49.63,57.05v.19h-1.27v.51h-.2v-.51h-1.25v-.19h1.25v-.28h-.86v-1.1h1.94v1.1h-.88v.28h1.27Zm-1.99-1.44v-.21h-.71v-.18h.71v-.26h.26s-.02,.05-.06,.06v.21h.84v-.26h.26s-.02,.05-.06,.06v.21h.73v.18h-.73v.21h-.2v-.21h-.84v.21h-.2Zm-.15,.23v.3h1.54v-.3h-1.54Zm0,.46v.31h1.54v-.31h-1.54Z"/><path class="cls-12" d="M43.86,59.49h1.12v1.42h-.21v-.18h-.92v1h-.21v-1h-.9v.19h-.2v-1.43h1.11v-.55l.27,.02s-.02,.04-.06,.04v.49Zm-1.12,1.04h.9v-.84h-.9v.84Zm1.12,0h.92v-.84h-.92v.84Z"/><path class="cls-12" d="M48.12,60.72v.19h-1.25v.58c0,.25-.14,.26-.7,.26-.02-.06-.05-.14-.09-.2,.15,0,.29,0,.38,0,.17,0,.2,0,.2-.07v-.58h-1.23v-.19h1.23v-.26h.14c.15-.07,.31-.17,.44-.28h-1.31v-.18h1.56s.16,.09,.16,.09c0,.01-.03,.02-.05,.03-.18,.17-.46,.36-.73,.5v.11h1.25Zm-2.42-1.08v.48h-.19v-.67h.47c-.06-.12-.17-.28-.27-.39l.17-.08c.12,.13,.25,.31,.3,.43l-.09,.04h.64c-.04-.13-.14-.32-.24-.46l.17-.07c.11,.15,.22,.35,.26,.48l-.1,.04h.53c.12-.14,.26-.35,.35-.49,.19,.07,.21,.08,.24,.1,0,.02-.03,.03-.06,.02-.08,.11-.18,.25-.29,.37h.49v.67h-.2v-.48h-2.17Z"/><path class="cls-12" d="M49.05,60.04c.09,.11,.35,.48,.4,.56l-.12,.16c-.05-.1-.18-.32-.29-.48v1.45h-.19v-1.49c-.11,.35-.26,.7-.41,.91-.02-.05-.07-.13-.11-.18,.2-.26,.4-.75,.49-1.18h-.44v-.19h.46v-.66l.25,.02s-.02,.03-.06,.04v.6h.38v.19h-.38v.25Zm.89,.21c.08,.23,.2,.44,.34,.63,.14-.2,.24-.41,.31-.65l.25,.06s-.03,.04-.07,.04c-.08,.25-.2,.5-.36,.71,.21,.24,.47,.43,.78,.54-.04,.04-.11,.12-.14,.18-.29-.12-.55-.32-.76-.56-.22,.23-.49,.42-.83,.56-.02-.04-.08-.12-.11-.16,.34-.13,.61-.32,.82-.55-.16-.22-.29-.47-.39-.74l.18-.05Zm.15-.46s-.03,.02-.06,.02c-.11,.21-.3,.47-.5,.65-.03-.04-.1-.09-.14-.12,.2-.17,.38-.42,.48-.64l.22,.09Zm1.05-.38v.19h-1.68v-.19h.73v-.46l.26,.02s-.02,.04-.06,.04v.4h.75Zm-.13,1.04c-.09-.18-.31-.46-.5-.66l.16-.09c.2,.2,.42,.47,.51,.65l-.17,.1Z"/></g><g><path class="cls-12" d="M22.21,81.43c-.05,.58-.34,.74-.71,.71-.1,0-.22-.04-.28-.07l.05-.2c.06,.03,.13,.05,.23,.06,.26,.02,.42-.08,.46-.53l.13-1.53,.25,.02-.14,1.55Z"/><path class="cls-12" d="M23.62,81.18c.17,.07,.26,.25,.29,.51,.04,.34,.08,.54,.11,.63l-.26-.02c-.03-.07-.06-.27-.1-.56-.04-.32-.15-.47-.42-.5l-.28-.02-.09,1.01-.25-.02,.2-2.25c.14-.02,.34-.02,.52,0,.3,.03,.49,.1,.61,.24,.1,.11,.15,.27,.13,.44-.03,.3-.23,.48-.48,.55h0Zm-.34-.13c.32,.03,.54-.13,.56-.41,.03-.34-.22-.47-.49-.49-.13-.01-.23,0-.28,0l-.08,.87,.29,.03Z"/><path class="cls-12" d="M24.65,81.62s-.03,.03-.06,.03c-.06,.25-.15,.53-.26,.7-.04-.03-.1-.06-.14-.09,.1-.16,.19-.44,.25-.71l.21,.07Zm.55-.77c.12,.2,.25,.47,.28,.64l-.17,.06c-.01-.05-.03-.11-.05-.18-.1,0-.2,0-.3-.01l-.11,1.28-.18-.02,.11-1.27c-.17,0-.32-.02-.43-.02,0,.02-.03,.03-.05,.03l-.03-.23,.21,.02c.07-.08,.15-.17,.23-.26-.08-.15-.22-.34-.34-.48l.12-.12,.09,.1c.12-.17,.25-.39,.33-.56l.21,.11s-.03,.02-.07,.02c-.1,.16-.25,.4-.37,.56,.06,.08,.12,.16,.16,.23,.15-.18,.28-.38,.38-.54l.2,.12s-.03,.02-.07,.02c-.18,.24-.45,.58-.68,.82l.53,.04c-.04-.11-.1-.22-.16-.31l.16-.05Zm.01,1.4c-.01-.16-.07-.41-.14-.6l.16-.04c.07,.19,.13,.43,.15,.6l-.17,.04Zm.49-.34c-.05,.26-.16,.52-.34,.66l-.14-.11c.15-.12,.26-.35,.31-.59l.16,.04Zm.51-1.87s-.04,.03-.06,.02c-.14,.29-.36,.57-.59,.74-.03-.04-.09-.1-.14-.13,.22-.15,.43-.43,.56-.72l.23,.09Zm-.44,1.15c.12-.19,.26-.49,.35-.71l.23,.1s-.04,.03-.07,.02c-.08,.17-.21,.41-.32,.59,.2,.01,.43,.02,.66,.03-.07-.11-.14-.22-.21-.31l.15-.07c.17,.21,.35,.48,.42,.66l-.17,.09c-.02-.06-.06-.13-.1-.2-.4,0-.81-.02-1.08-.03,0,.02-.02,.03-.05,.04l-.06-.22h.24Zm.2,1.28c0,.07,0,.08,.09,.09l.28,.02c.07,0,.09-.03,.12-.32,.04,.03,.11,.07,.16,.08-.05,.33-.1,.41-.27,.4l-.32-.03c-.21-.02-.26-.07-.24-.26l.06-.64,.24,.04s-.02,.03-.06,.04l-.05,.58Zm.38-.51c-.09-.13-.28-.31-.46-.42l.14-.1c.18,.1,.38,.27,.47,.4l-.14,.11Zm.35-1.93c.1,.29,.3,.6,.51,.76-.05,.03-.12,.09-.15,.14-.21-.19-.42-.54-.53-.85l.17-.05Zm.15,2.7c-.03-.2-.15-.5-.3-.72l.16-.06c.15,.22,.28,.52,.31,.71l-.18,.08Z"/><path class="cls-12" d="M28.33,81.83l-.06,.69c.21-.02,.43-.04,.64-.06v.18c-.58,.06-1.21,.12-1.59,.16,0,.02-.02,.04-.05,.04l-.07-.24,.29-.02,.11-1.21,.25,.04s-.02,.03-.06,.03l-.1,1.12,.39-.03,.12-1.42,.25,.04s-.02,.03-.06,.03l-.04,.46,.54,.05-.02,.18-.54-.05Zm1.75-.59l-.8-.07c-.02,.93,.12,1.67,.41,1.7,.08,0,.14-.16,.19-.57,.04,.05,.11,.1,.16,.13-.08,.52-.17,.66-.39,.65-.46-.04-.59-.89-.58-1.92l-1.69-.15,.02-.19,1.68,.15c0-.24,.02-.49,.04-.74l.27,.04s-.02,.04-.07,.04c-.02,.22-.04,.45-.04,.67l.82,.07-.02,.19Zm-1.22-.86l-.02,.19-1.16-.1,.02-.19,1.16,.1Zm.75-.08c.17,.15,.37,.36,.46,.5l-.16,.11c-.09-.14-.28-.36-.45-.51l.15-.09Z"/><path class="cls-12" d="M30.63,82.14s-.03,.03-.06,.02c-.06,.25-.16,.53-.26,.7-.04-.03-.1-.07-.14-.09,.1-.16,.19-.44,.25-.71l.22,.08Zm.53-.77c.12,.2,.24,.48,.28,.65l-.17,.06c-.01-.06-.03-.12-.05-.19-.09,0-.18,0-.27,0l-.11,1.28-.18-.02,.11-1.27c-.17,0-.32-.02-.44-.02,0,.02-.02,.03-.05,.03l-.03-.23,.21,.02c.07-.07,.15-.16,.23-.26-.08-.15-.22-.34-.35-.48l.12-.12s.06,.06,.09,.1c.12-.17,.25-.39,.34-.56l.2,.11s-.03,.02-.07,.02c-.09,.16-.25,.4-.37,.55,.06,.08,.12,.16,.16,.23,.15-.18,.28-.38,.38-.54l.2,.12s-.03,.02-.07,.02c-.17,.24-.45,.58-.68,.82l.51,.04c-.05-.11-.1-.22-.15-.31l.16-.05Zm.03,.76c.07,.18,.14,.42,.15,.57-.04,0-.07,.02-.17,.04-.01-.15-.07-.4-.14-.58l.16-.03Zm.71-.01l.11,.06s-.01,.02-.02,.03c-.15,.46-.41,.75-.73,.9-.02-.04-.08-.12-.12-.15,.27-.11,.49-.33,.62-.66l-.43-.04,.02-.17,.52,.05h.03Zm.4-.25c-.01,.13,.08,.4,.13,.54,.15-.1,.33-.24,.44-.34,.14,.12,.16,.14,.18,.16-.01,.01-.04,.02-.07,0-.12,.09-.32,.23-.48,.32,.11,.21,.28,.39,.51,.52-.04,.04-.11,.11-.14,.16-.33-.21-.52-.54-.62-.85l-.06,.67c-.02,.2-.1,.21-.5,.18,0-.05-.02-.13-.04-.18,.14,.02,.27,.03,.3,.03,.04,0,.05,0,.05-.04l.1-1.18-.6-.05,.09-1.06,.48,.04c.06-.1,.12-.22,.16-.31l.25,.08s-.03,.03-.06,.03c-.04,.06-.08,.14-.14,.21l.74,.06-.09,1.06-.64-.06Zm-.56-.5l-.02,.29,1.05,.09,.02-.28-1.05-.09Zm.04-.44l-.02,.28,1.05,.09,.02-.28-1.05-.09Z"/></g><g><path class="cls-12" d="M30.64,47.58l.12,.07c.28-.12,.55-.28,.79-.48l.17,.18s-.05,.01-.08,0c-.21,.17-.44,.31-.68,.42l.35,.18-.08,.16-.47-.25c-.14,.06-.29,.11-.44,.14l.62,.33-.6,1.14-.17-.09,.06-.11-.63-.33-.08,.15-.17-.09,.49-.92c-.1,0-.19,.01-.29,.02,0-.05-.02-.14-.03-.19,.15,0,.29,0,.43-.03l.04-.07,.1,.05c.16-.03,.32-.07,.48-.13l-.71-.37,.08-.16,.55,.29,.19-.36-.43-.23,.08-.16,.43,.23,.17-.31,.21,.13s-.03,.02-.07,0l-.14,.26,.34,.18-.08,.16-.34-.18-.19,.36Zm-.97,1.2l.63,.33,.16-.29-.63-.33-.16,.3Zm.87-.11l.15-.29-.63-.33-.15,.29,.63,.33Zm1.24-1.36l.81,.43s.04,0,.04,.01c0,.01,.02,.03,.09,.12,0,0-.02,.01-.04,.01-.22,.18-.51,.39-.8,.6,.14,.42,.14,.69,.04,.88-.22,.42-.5,.27-.68,.18-.04-.02-.08-.04-.12-.07,.02-.05,.04-.14,.03-.21,.07,.04,.14,.08,.2,.11,.12,.06,.26,.14,.39-.12,.09-.18,.07-.43-.07-.85,.27-.2,.52-.4,.72-.57l-.52-.27-1.13,2.14-.17-.09,1.22-2.31Z"/><path class="cls-12" d="M30.16,51.48l-.66-.35c-.06,.06-.13,.13-.2,.19l.96,.51-.42,.8-.18-.09,.05-.09-1.49-.79-.05,.1-.17-.09,.42-.8,.71,.37c.06-.06,.13-.14,.19-.2l-.58-.3,.33-.62,1.42,.75-.33,.62Zm-.37,.8l.2-.39-1.49-.79-.2,.38,1.49,.79Zm1.35-1.97s-.04,0-.06,0c-.12,.06-.28,.13-.42,.18l.43,.23-.27,.52-.17-.09,.19-.36-1.9-1-.19,.36-.17-.09,.27-.51,.4,.21c0-.13-.03-.32-.08-.47h.19c.05,.16,.09,.36,.09,.49h-.17l1.17,.62h0c.16-.06,.39-.18,.53-.27l.16,.2Zm-1.98,.03l-.18,.33,1.08,.57,.18-.33-1.08-.57Zm.93-.73c.03,.17,.05,.38,.03,.5l-.19-.02c.02-.13,0-.34-.02-.51l.18,.03Z"/><path class="cls-12" d="M27.2,53.59l.37,.04-.05,.17c-.34-.02-.7-.05-.93-.07-.01,.02-.03,.03-.05,.03v-.25c.13,.02,.29,.04,.45,.06l.47-.88-.32-.17,.09-.17,.32,.17,.34-.63,.22,.13s-.04,.02-.07,0l-.31,.58,.3,.16-.09,.17-.3-.16-.43,.81Zm.47,.79c-.08,.15-.06,.2,.12,.3l.68,.36c.16,.08,.22,.02,.42-.28,.02,.05,.08,.12,.12,.16-.22,.35-.34,.44-.62,.29l-.69-.36c-.3-.16-.35-.27-.2-.55l.47-.9-.33-.03,.02-.2,.41,.04,.39-.73,.21,.13s-.03,.02-.07,0l-.32,.6,.47,.04,.39-.74,.21,.13s-.03,.02-.07,.01l-.33,.62,.52,.04h.05s.12,.12,.12,.12c0,0-.02,.01-.04,.01-.27,.51-.5,.92-.57,1.01-.11,.15-.21,.13-.5-.02,.02-.05,.04-.13,.04-.18,.06,.04,.16,.09,.19,.1,.04,.02,.08,.02,.13-.03,.05-.06,.23-.38,.47-.83l-.5-.04-.54,1.02-.17-.09,.5-.95-.47-.04-.51,.97Z"/><path class="cls-12" d="M28.38,55.98l-1.13-.6h-.03s-.24,.46-.24,.46h.02c.25,.33,.56,.81,.69,1.1l-.21,.09c-.11-.25-.36-.68-.59-1.02l-.76,1.44-.19-.1,1.1-2.09-1.05-.55,.09-.18,2.39,1.27-.09,.18Z"/><path class="cls-12" d="M24.29,59.36c.15,.05,.31,.1,.46,.16l-.07,.16c-.39-.12-.8-.26-1.05-.34-.01,.02-.04,.02-.06,.02l.04-.23,.5,.18,.41-.78-.44-.23,.08-.16,.44,.23,.16-.31-.28-.15,.03-.06s-.08,.03-.13,.05c0-.05-.04-.14-.06-.18,.35-.11,.68-.31,.9-.48l.2,.15s-.04,.02-.07,0h-.01c.09,.23,.19,.51,.22,.68l-.18,.08c-.03-.16-.11-.43-.19-.65-.15,.1-.33,.21-.53,.3l.67,.35-.08,.16-.31-.16-.16,.31,.4,.21-.08,.16-.4-.21-.4,.76Zm-.37-.31c.06-.14,.12-.37,.15-.56l.14,.03c-.02,.19-.08,.43-.14,.57l-.16-.04Zm2.56,.62l-.58-.31c-.12,.47-.1,.93,.11,1.26-.06,.01-.15,.04-.2,.08-.19-.34-.21-.78-.11-1.25-.27,.29-.65,.52-1.25,.53,0-.05-.03-.15-.05-.2,.62,0,.99-.25,1.24-.55l-.58-.31,.09-.17,.61,.32c.08-.12,.15-.24,.21-.36l.09-.17-.31-.16c-.13,.14-.26,.25-.39,.33-.02-.04-.07-.11-.1-.15,.23-.14,.5-.45,.74-.77l.19,.16s-.04,.02-.07,0c-.07,.1-.15,.2-.23,.29l.26,.14,.27-.51,.22,.13s-.03,.02-.07,0l-.24,.46,.52,.28-.09,.17-.52-.28-.09,.17c-.06,.12-.13,.24-.21,.36l.64,.34-.09,.17Zm-1.48-.68s-.04,0-.07,0c-.1,.11-.26,.28-.38,.37l-.09-.11c.11-.11,.29-.29,.39-.42l.15,.16Z"/><path class="cls-12" d="M22.18,61.98c.24-.14,.61-.41,.9-.65l.09,.18c-.27,.22-.61,.47-.83,.62,0,.02,0,.03,0,.04,0,.01-.01,.02-.02,.03l-.13-.22Zm2.03-.07c-.04,.17-.07,.33-.08,.47,.19-.04,.37-.1,.53-.2l.15,.18s-.04,0-.06,0c-.19,.11-.4,.18-.63,.22,0,.25,.07,.43,.21,.5,.09,.05,.19-.04,.36-.33,.02,.06,.06,.13,.1,.17-.24,.36-.37,.44-.56,.33-.2-.11-.29-.34-.31-.64-.33,.03-.69,0-1.07-.09,0-.06,0-.15-.03-.21,.39,.1,.76,.14,1.1,.11,.01-.18,.05-.37,.1-.58l-.72-.29,.07-.17,.71,.29c.03-.09,.06-.18,.09-.27l-.53-.21,.06-.17,.53,.21c.03-.09,.07-.17,.11-.26l-.57-.23,.07-.17,.57,.24c.07-.16,.15-.32,.23-.48l.23,.14s-.04,.03-.08,.01c-.07,.13-.14,.27-.2,.41l.92,.38-.06,.16-.92-.38c-.04,.09-.07,.18-.1,.26l.85,.34-.06,.16-.84-.34c-.03,.09-.06,.19-.09,.28l.91,.37-.06,.17-.89-.36Zm-1.17-1.49c.13,.16,.28,.38,.33,.53l-.18,.09c-.05-.15-.19-.38-.32-.54l.17-.08Zm.53-.65c.13,.16,.26,.39,.31,.54-.1,.04-.14,.07-.18,.09-.04-.15-.17-.39-.3-.56l.17-.07Zm1.56,.8c.11,.12,.24,.31,.29,.42l-.17,.08c-.05-.12-.17-.31-.29-.44l.16-.07Z"/><path class="cls-12" d="M23.4,65.42l-.09,.17-1.13-.6-.24,.46-.18-.09,.24-.45-1.1-.58,.09-.16,1.1,.58,.13-.24-.76-.4,.51-.97,1.71,.91-.51,.97-.78-.41-.13,.24,1.13,.6Zm-1.54-1.66l-.14,.27,1.36,.72,.14-.27-1.36-.72Zm.45-.54l.1-.19-.63-.33,.09-.16,.63,.33,.12-.23,.22,.13s-.03,.02-.07,.01l-.1,.18,.74,.39,.12-.23,.22,.13s-.03,.02-.07,0l-.1,.18,.64,.34-.09,.16-.64-.34-.1,.19-.18-.09,.1-.19-.74-.39-.1,.19-.18-.09Zm-.24,.13l-.14,.27,1.36,.72,.14-.27-1.36-.72Z"/><path class="cls-12" d="M20.04,66.69s-.04,.01-.07,0c-.16,.21-.35,.43-.52,.54-.02-.04-.07-.1-.1-.14,.15-.11,.35-.33,.51-.56l.17,.15Zm.79-.51c.03,.23,.04,.53,0,.71h-.18c.01-.06,.02-.12,.02-.2-.08-.04-.16-.08-.24-.11l-.6,1.14-.16-.08,.6-1.13c-.15-.07-.29-.14-.4-.19-.01,.02-.03,.02-.06,.01l.06-.22,.19,.1c.1-.04,.2-.09,.31-.15-.02-.17-.07-.4-.14-.57l.15-.07s.03,.08,.04,.13c.17-.11,.39-.26,.53-.39l.15,.18s-.04,0-.07,0c-.15,.11-.38,.27-.56,.36,.03,.1,.05,.19,.06,.27,.21-.11,.41-.24,.56-.35l.14,.19s-.04,0-.07,0c-.26,.15-.63,.36-.94,.49l.45,.23c0-.12,0-.24-.02-.35h.16Zm.39,.99l.08,.1s-.02,.01-.03,.01c-.32,.37-.67,.54-1.02,.54,0-.05-.03-.14-.05-.18,.29,0,.58-.11,.83-.37l-.39-.2,.08-.15,.46,.25h.03Zm-.66-.26c0,.2-.04,.44-.08,.59-.04,0-.08-.01-.18-.03,.05-.15,.09-.39,.1-.59l.16,.03Zm1.11,.19c-.06,.12-.09,.4-.09,.54,.18-.03,.4-.09,.54-.14,.08,.17,.09,.19,.1,.22-.02,0-.04,0-.06-.02-.15,.04-.38,.08-.56,.11,.02,.23,.1,.47,.27,.68-.05,.02-.14,.06-.19,.09-.22-.33-.27-.7-.24-1.02l-.31,.59c-.1,.18-.18,.16-.53-.03,.02-.05,.03-.13,.03-.19,.13,.07,.23,.13,.27,.14,.04,.02,.05,.01,.06-.02l.56-1.05-.53-.28,.5-.94,.42,.22c.09-.07,.2-.15,.27-.22l.19,.17s-.04,.01-.07,0c-.06,.04-.13,.1-.21,.14l.66,.35-.5,.94-.57-.3Zm-.32-.68l-.13,.25,.93,.49,.13-.25-.93-.49Zm.21-.39l-.13,.25,.93,.49,.13-.25-.93-.49Z"/></g><g><path class="cls-12" d="M33.09,53.15l2.23,1.18-1.24,2.35-.18-.1,.07-.13-1.88-.99-.07,.13-.17-.09,1.24-2.35Zm-.91,2.14l1.88,.99,.99-1.88-1.88-.99-.99,1.88Zm1.23,.11l.69,.36-.08,.16-1.5-.79,.08-.16,.64,.34,.26-.49-.52-.27,.08-.15,.52,.28,.22-.42-.6-.32,.08-.15,1.4,.74-.08,.15-.63-.33-.22,.42,.56,.3-.08,.15-.56-.3-.26,.49Zm.48,.2c-.01-.12-.06-.31-.11-.46h.15c.06,.14,.11,.33,.12,.45h-.16Z"/><path class="cls-12" d="M31.66,56.98l-.46,.87c.04,.43,.42,.63,.9,.88,.29,.15,.63,.32,.84,.42-.04,.03-.12,.1-.15,.15-.19-.09-.48-.24-.75-.38-.55-.29-.91-.48-1.01-.95-.19,.05-.4,.09-.56,.12,0,.03-.02,.03-.05,.03v-.25c.17-.02,.39-.06,.59-.1l.37-.71-.39-.21,.09-.17,.56,.3Zm.52-.1l.45,.24c.06-.06,.12-.14,.18-.21l-.73-.39,.08-.15,.48,.25c.01-.11,0-.28-.03-.41h.17c.04,.15,.06,.33,.04,.44h-.12s.56,.29,.56,.29l-.06-.06c.12-.06,.28-.17,.38-.24l.18,.17s-.04,0-.07,0c-.09,.06-.24,.13-.36,.18l.53,.28-.08,.15-.79-.42c-.06,.06-.13,.14-.2,.2l.63,.33-.69,1.31-.18-.09,.05-.09-.9-.47-.05,.09-.17-.09,.69-1.31Zm-.39-1.11c.12,.21,.23,.49,.25,.67l-.2,.05c-.02-.18-.12-.47-.24-.68l.19-.04Zm0,2.28l.9,.47,.12-.23-.9-.47-.12,.23Zm.31-.58l-.12,.22,.9,.48,.12-.22-.9-.47Zm.97,.34l.12-.22-.9-.48-.12,.22,.9,.47Z"/><path class="cls-12" d="M30.4,59.85c.18-.09,.41-.1,.65,.03,.35,.19,.5,.58,.29,.98-.2,.38-.63,.55-1.04,.33-.45-.24-.54-.73-.27-1.22,.19-.37,.49-.61,.8-.72,.4-.13,.81,0,1.02,.12l-.08,.2-.05-.02c-.46-.24-1.01-.12-1.32,.3h0Zm.49,.17c-.29-.15-.6,0-.67,.12-.2,.38-.14,.72,.17,.88,.26,.14,.53,.04,.7-.27,.18-.33,.07-.6-.2-.74Z"/><path class="cls-12" d="M30.61,63.49l-1.63-.86c-.07,.07-.15,.14-.22,.21l1.2,.63h.05s.09,.11,.09,.11c0,.01-.02,.03-.04,.04-.33,.45-.51,.62-.66,.66-.1,.03-.17,0-.35-.09-.1-.05-.23-.13-.36-.21,.02-.05,.04-.14,.03-.2,.19,.12,.38,.23,.45,.26,.07,.04,.1,.05,.14,.04,.11-.02,.25-.16,.5-.48l-1.2-.63c-.06,.06-.12,.11-.18,.16-.09-.08-.13-.11-.17-.14,.15-.12,.35-.3,.52-.47l-.62-.33,.09-.16,2.44,1.29-.09,.17Zm.23-1.34l-.41,.77-1.66-.88,.41-.77,1.66,.88Zm-.5,.51l.23-.44-1.31-.69-.23,.44,1.31,.69Z"/><path class="cls-12" d="M26.93,65.32s-.04,.01-.07,0c-.16,.21-.35,.43-.51,.54-.02-.04-.07-.1-.1-.14,.16-.11,.35-.33,.51-.56l.17,.15Zm.79-.51c.03,.23,.04,.53,0,.71h-.18c.01-.06,.02-.13,.02-.2-.08-.04-.16-.08-.24-.11l-.6,1.14-.16-.08,.6-1.13c-.15-.07-.29-.14-.4-.19-.01,.02-.03,.02-.06,.01l.06-.22,.19,.1c.1-.04,.2-.09,.31-.15-.02-.17-.07-.4-.13-.57l.15-.07s.03,.08,.04,.12c.17-.11,.39-.26,.53-.39l.15,.18s-.04,0-.07,0c-.15,.11-.38,.27-.56,.37,.03,.1,.05,.19,.06,.27,.21-.11,.41-.24,.56-.35l.14,.19s-.04,0-.07,0c-.26,.15-.64,.36-.94,.49l.45,.23c0-.12,0-.24-.02-.35h.16Zm.39,.99l.08,.1s-.02,.01-.03,.01c-.32,.37-.67,.54-1.02,.54,0-.05-.03-.14-.05-.18,.29,0,.58-.11,.83-.37l-.39-.2,.08-.15,.46,.24h.03Zm-.66-.26c0,.2-.04,.44-.08,.59-.04,0-.08-.01-.17-.03,.05-.15,.09-.39,.1-.59l.16,.03Zm1.11,.19c-.06,.12-.09,.4-.09,.54,.18-.03,.39-.09,.53-.14,.08,.17,.09,.19,.1,.22-.02,0-.04,0-.07-.02-.15,.04-.38,.08-.56,.11,.02,.23,.1,.47,.27,.68-.05,.02-.14,.06-.19,.09-.22-.33-.27-.7-.24-1.02l-.31,.59c-.1,.18-.18,.16-.53-.03,.02-.05,.03-.13,.03-.19,.13,.07,.24,.13,.27,.14,.04,.02,.05,.01,.06-.02l.56-1.05-.53-.28,.5-.94,.42,.22c.09-.07,.2-.15,.27-.22l.19,.17s-.04,.01-.07,0c-.06,.04-.13,.1-.21,.14l.66,.35-.5,.94-.57-.3Zm-.32-.68l-.13,.25,.93,.49,.13-.25-.93-.49Zm.21-.39l-.13,.25,.93,.49,.13-.25-.93-.49Z"/></g><g><path class="cls-12" d="M97.92,27.79h.14c.17-.26,.31-.54,.41-.84l.23,.06s-.03,.04-.07,.04c-.09,.25-.21,.49-.35,.72l.39-.03v.18s-.52,.04-.52,.04c-.09,.13-.19,.25-.29,.36l.7-.05,.1,1.29h-.19s0-.11,0-.11l-.71,.06v.17s-.18,.01-.18,.01l-.08-1.04c-.08,.06-.16,.12-.24,.17-.03-.04-.09-.11-.13-.14,.12-.08,.24-.16,.35-.25v-.08s.1,0,.1,0c.12-.11,.23-.23,.34-.36l-.8,.06v-.18s.61-.05,.61-.05l-.03-.4-.48,.04v-.18s.47-.04,.47-.04l-.03-.35h.25s-.02,.03-.05,.04l.02,.29,.39-.03v.18s-.38,.03-.38,.03l.03,.4Zm.5,.98l-.03-.33-.71,.06,.03,.33,.71-.06Zm-.67,.55l.71-.06-.03-.33-.71,.06,.03,.33Zm1-2.37l.91-.07s.03-.01,.04-.01c.02,0,.03,.02,.14,.06,0,.01-.01,.03-.02,.03-.09,.27-.22,.6-.36,.94,.34,.29,.49,.5,.51,.72,.04,.48-.28,.5-.48,.52-.05,0-.09,0-.14,0,0-.06-.04-.14-.08-.2,.08,0,.16,0,.23,0,.13,0,.29-.02,.27-.31-.02-.2-.17-.4-.52-.68,.12-.31,.22-.61,.3-.87l-.58,.05,.19,2.42-.2,.02-.2-2.61Z"/><path class="cls-12" d="M99.81,29.84s-.03,.03-.06,.03c-.07,.11-.17,.26-.26,.38l.49-.04,.05,.58-.2,.02-.03-.41-2.14,.17,.03,.41h-.19s-.05-.57-.05-.57l.45-.04c-.07-.11-.2-.25-.32-.36l.16-.1c.12,.11,.27,.25,.33,.36l-.14,.09,1.32-.1h0c.11-.14,.24-.36,.31-.51l.24,.08Zm-.2,1.51l-.75,.06c-.02,.08-.04,.18-.07,.27l1.08-.08,.07,.9-.2,.02v-.1s-1.68,.13-1.68,.13v.11s-.19,.02-.19,.02l-.07-.91,.8-.06c.02-.08,.04-.18,.05-.27l-.65,.05-.05-.7,1.61-.12,.05,.7Zm.11,.88l-.03-.43-1.67,.13,.03,.43,1.68-.13Zm-1.57-1.3l.03,.38,1.22-.09-.03-.38-1.22,.09Zm.39-1.12c.11,.12,.24,.29,.29,.41l-.17,.09c-.05-.12-.18-.29-.29-.42l.17-.08Z"/><path class="cls-12" d="M98.23,34.7l.34-.16,.05,.17c-.3,.17-.62,.33-.82,.44,0,.02,0,.04-.03,.05l-.12-.22c.11-.05,.25-.12,.4-.19l-.08-1-.36,.03-.02-.19,.36-.03-.06-.72h.25s-.02,.03-.06,.04l.05,.66,.34-.03v.19s-.32,.03-.32,.03l.07,.92Zm.82,.42c.01,.16,.05,.2,.26,.18l.76-.06c.18-.01,.2-.1,.2-.46,.05,.03,.13,.06,.19,.07,0,.42-.06,.55-.37,.58l-.77,.06c-.34,.03-.44-.04-.47-.36l-.08-1.01-.29,.15-.09-.17,.37-.19-.06-.82h.25s-.02,.04-.06,.04l.05,.68,.42-.22-.06-.84h.25s-.02,.03-.05,.04l.05,.7,.46-.25,.04-.04,.17,.05s-.01,.03-.03,.04c.04,.57,.07,1.04,.06,1.16-.01,.19-.11,.22-.43,.25-.01-.06-.03-.13-.06-.18,.07,0,.18,0,.21-.01,.05,0,.08-.02,.09-.09,.01-.08-.01-.45-.05-.95l-.45,.23,.09,1.15h-.19s-.08-1.05-.08-1.05l-.42,.22,.09,1.1Z"/><path class="cls-12" d="M100.5,36.1l-1.27,.1h-.03s.04,.53,.04,.53v-.02c.41,.16,.92,.4,1.19,.57l-.13,.19c-.23-.16-.67-.38-1.04-.54l.13,1.63-.21,.02-.18-2.36-1.18,.09-.02-.2,2.7-.21,.02,.2Z"/><path class="cls-12" d="M98.85,41.14c.15-.04,.31-.07,.47-.11l.02,.17c-.4,.11-.81,.21-1.07,.28,0,.02-.02,.04-.04,.04l-.09-.22,.52-.12-.07-.88-.49,.04v-.18s.48-.04,.48-.04l-.03-.34-.32,.02v-.06s-.06,.07-.09,.11c-.03-.04-.1-.1-.15-.12,.24-.28,.41-.63,.5-.89l.25,.02s-.02,.04-.06,.04h0c.2,.15,.43,.34,.55,.46l-.11,.17c-.11-.12-.32-.31-.51-.45-.07,.17-.17,.35-.29,.54l.76-.06v.18s-.33,.03-.33,.03l.03,.34,.45-.03v.18s-.43,.03-.43,.03l.07,.85Zm-.48-.06c-.02-.15-.09-.38-.17-.56l.14-.05c.09,.17,.16,.4,.18,.55l-.15,.05Zm.88-.63s-.03,.03-.06,.03c-.03,.15-.07,.37-.12,.52l-.14-.04c.04-.15,.09-.4,.11-.57l.21,.05Zm1.61-.22l-.65,.05c.15,.46,.41,.84,.77,1.01-.04,.04-.1,.12-.12,.17-.34-.18-.59-.55-.76-1-.08,.39-.28,.79-.77,1.12-.03-.04-.1-.11-.15-.14,.53-.33,.71-.74,.75-1.13l-.66,.05v-.19s.67-.05,.67-.05c0-.14,0-.28-.01-.41l-.02-.2-.35,.03c-.04,.19-.09,.35-.15,.48-.04-.02-.12-.06-.17-.08,.12-.24,.19-.65,.21-1.04l.24,.04s-.02,.04-.06,.04c0,.12-.02,.25-.04,.37l.3-.02-.04-.58h.26s-.02,.03-.06,.04l.04,.52,.59-.04v.19s-.57,.04-.57,.04l.02,.2c.01,.13,.02,.27,.01,.41l.72-.06v.19Z"/><path class="cls-12" d="M101.01,42.74l-1.17,.09c.25,.7,.68,1.22,1.34,1.41-.05,.05-.11,.14-.13,.2-.65-.21-1.07-.71-1.35-1.42-.09,.61-.37,1.22-1.12,1.61-.03-.05-.1-.12-.16-.16,.77-.38,1.02-1,1.08-1.62l-1.16,.09-.02-.21,1.19-.09c.01-.31-.01-.62-.03-.88h.28s-.02,.04-.06,.05c.02,.24,.03,.52,.02,.82l1.26-.1,.02,.21Z"/><path class="cls-12" d="M98.59,45.7c.21,.05,.48,.15,.62,.24l-.1,.18c-.14-.09-.4-.2-.62-.26l.09-.16Zm.11-.84c.21,.06,.47,.18,.61,.27l-.1,.18c-.13-.1-.39-.23-.6-.3l.1-.16Zm.03,2.59c.15-.25,.36-.67,.5-1.03l.16,.12c-.13,.33-.32,.72-.46,.97,.01,.01,.02,.03,.02,.04,0,.01,0,.03-.01,.04l-.21-.14Zm1.75-.33l.91-.07,.02,.2-2.04,.16-.02-.2,.91-.07-.15-1.89-.7,.05-.02-.2,1.71-.13,.02,.2-.81,.06,.15,1.89Z"/><path class="cls-12" d="M98.75,48.03l2.63-.2,.02,.2-2.63,.2-.02-.2Zm2.43,.36l.09,1.22-.2,.02v-.16s-1.71,.13-1.71,.13c-.01,.35-.09,.74-.35,1.04-.04-.04-.12-.1-.17-.12,.33-.38,.33-.89,.3-1.27l-.05-.69,2.09-.16Zm-.19,.2l-1.68,.13,.04,.5c0,.06,0,.11,.01,.17l1.68-.13-.05-.68Z"/><path class="cls-12" d="M99.81,51.75c.15,.18,.32,.43,.38,.59l-.16,.09c-.02-.05-.05-.11-.08-.17-.09,.01-.18,.02-.27,.04l.1,1.28h-.18s-.1-1.26-.1-1.26c-.17,.02-.32,.04-.44,.05,0,.02-.02,.03-.04,.04l-.07-.22,.21-.02c.06-.08,.12-.18,.18-.29-.1-.13-.27-.29-.42-.41l.1-.14s.07,.05,.1,.08c.09-.18,.19-.43,.24-.61l.22,.07s-.03,.03-.06,.03c-.07,.17-.18,.43-.28,.61,.07,.07,.14,.14,.2,.2,.11-.21,.22-.42,.29-.6l.22,.08s-.03,.03-.06,.03c-.13,.27-.35,.64-.54,.92l.51-.05c-.06-.1-.13-.2-.2-.28l.15-.08Zm-.4,.85s-.02,.03-.06,.03c-.02,.26-.07,.55-.15,.74-.04-.02-.11-.05-.16-.07,.07-.17,.11-.47,.13-.74l.23,.04Zm.56-.1c.1,.17,.2,.39,.24,.54-.04,.01-.07,.03-.16,.07-.04-.15-.13-.38-.23-.55l.15-.06Zm.7-.13l.12,.04s-.01,.02-.02,.03c-.07,.48-.28,.81-.57,1.01-.03-.04-.1-.11-.14-.13,.25-.15,.43-.4,.51-.75l-.43,.03v-.17s.51-.04,.51-.04h.03Zm.35-.32c.01,.13,.14,.38,.22,.51,.13-.12,.29-.29,.38-.41,.16,.1,.18,.11,.2,.13,0,.02-.03,.02-.06,.02-.11,.11-.28,.28-.42,.39,.14,.18,.34,.34,.59,.43-.03,.04-.09,.12-.11,.18-.37-.16-.6-.44-.75-.73l.05,.67c.02,.2-.07,.23-.46,.26-.01-.05-.04-.12-.07-.17,.14,0,.27-.02,.3-.02,.04,0,.05-.02,.04-.05l-.09-1.18-.6,.05-.08-1.06,.48-.04c.04-.11,.08-.24,.11-.33l.26,.04s-.02,.03-.06,.03c-.03,.07-.06,.15-.1,.23l.74-.06,.08,1.06-.64,.05Zm-.67-.85l.02,.28,1.05-.08-.02-.28-1.05,.08Zm.03,.44l.02,.29,1.05-.08-.02-.29-1.05,.08Z"/></g><circle class="cls-12" cx="44.01" cy="42.96" r=".74"/><line class="cls-11" x1="44.01" y1="42.96" x2="46.55" y2="38.16"/></g></g><polygon class="cls-16" points="27.43 25.81 40.86 47.3 29.73 25.81 27.43 25.81"/><g><rect class="cls-16" x="14.17" y="16.76" width="25.51" height="10.8"/><g><path class="cls-13" d="M19.39,20.09v.38h-2.73v-.38h2.73Zm-.28,2.78v2.01h-1.72v.32h-.41v-2.33h2.13Zm-2.12-1.48v-.38h2.14v.38h-2.14Zm0,.93v-.38h2.14v.38h-2.14Zm2.14-3.14v.38h-2.11v-.38h2.11Zm-.44,4.08h-1.3v1.23h1.3v-1.23Zm4.39-1.95v.45h-1.58v3.51h-.46v-3.51h-1.65v-.45h1.65v-2.36l.6,.04s-.04,.08-.14,.1v2.22h1.58Z"/><path class="cls-13" d="M23.74,19.39h6.1v.44h-2.84v.81h1.45v3.1h-3.34v-3.1h1.43v-.81h-2.79v-.44Zm5.46,5v-3.83l.58,.03s-.04,.08-.13,.1v4.56h-.45v-.42h-4.79v.44h-.45v-4.71l.58,.03s-.04,.08-.13,.1v3.7h4.79Zm-3.7-3.36v.96h1.06v-.96h-1.06Zm0,1.34v.98h1.06v-.98h-1.06Zm2.54-.38v-.96h-1.07v.96h1.07Zm0,1.35v-.98h-1.07v.98h1.07Z"/><path class="cls-13" d="M31.98,23.15l.79-.31,.09,.4c-.71,.33-1.47,.65-1.94,.85,0,.05-.03,.1-.08,.12l-.24-.52c.26-.09,.59-.22,.94-.35v-2.26h-.83v-.44h.83v-1.63l.57,.04s-.05,.08-.14,.09v1.5h.77v.44h-.77v2.09Zm1.79,1.09c0,.38,.09,.46,.57,.46h1.74c.41,0,.48-.19,.53-1.01,.11,.08,.29,.16,.42,.18-.08,.94-.23,1.24-.94,1.24h-1.76c-.77,0-.99-.17-.99-.89v-2.3l-.69,.29-.18-.41,.87-.37v-1.87l.57,.04s-.05,.08-.14,.09v1.54l.99-.42v-1.9l.57,.03s-.04,.08-.13,.1v1.59l1.09-.47,.1-.08,.38,.14s-.03,.05-.07,.08c0,1.3-.02,2.37-.07,2.63-.06,.42-.29,.48-1.02,.48-.02-.13-.05-.3-.11-.41,.17,.01,.41,.01,.48,.01,.11,0,.18-.03,.22-.2,.04-.17,.05-1.02,.05-2.16l-1.05,.45v2.62h-.44v-2.43l-.99,.42v2.5Z"/></g></g></g></g></svg>