<?xml version="1.0" encoding="UTF-8"?><svg id="Layer_2" xmlns="http://www.w3.org/2000/svg" xmlns:xlink="http://www.w3.org/1999/xlink" viewBox="0 0 558.1 317.67"><defs><style>.cls-1,.cls-2,.cls-3,.cls-4{fill:none;}.cls-5{letter-spacing:-.02em;}.cls-6{clip-path:url(#clippath);}.cls-7{letter-spacing:.01em;}.cls-8{fill:#fff;}.cls-9{fill:#c7eafb;}.cls-10,.cls-11,.cls-12,.cls-13,.cls-14,.cls-15{fill:#231f20;}.cls-2{stroke-dasharray:0 0 1 1;}.cls-2,.cls-3{stroke-linecap:round;stroke-linejoin:round;}.cls-2,.cls-3,.cls-4{stroke:#231f20;stroke-width:.25px;}.cls-16{letter-spacing:-.09em;}.cls-17{letter-spacing:-.09em;}.cls-18{letter-spacing:-.03em;}.cls-19{letter-spacing:-.05em;}.cls-20{clip-path:url(#clippath-1);}.cls-21{clip-path:url(#clippath-4);}.cls-22{clip-path:url(#clippath-3);}.cls-23{clip-path:url(#clippath-2);}.cls-24{letter-spacing:-.19em;}.cls-25{letter-spacing:-.07em;}.cls-11{font-size:4.5px;}.cls-11,.cls-12,.cls-13,.cls-14,.cls-15{font-family:ShinGoPro-Light-83pv-RKSJ-H, 'A-OTF Shin Go Pro';}.cls-26{letter-spacing:-.17em;}.cls-27{letter-spacing:-.33em;}.cls-28{letter-spacing:-.07em;}.cls-29{letter-spacing:-.17em;}.cls-30{letter-spacing:-.04em;}.cls-31{letter-spacing:-.07em;}.cls-32{letter-spacing:-.06em;}.cls-33{letter-spacing:-.05em;}.cls-34{letter-spacing:-.06em;}.cls-12{font-size:5px;}.cls-13{font-size:5px;}.cls-14{font-size:5px;}.cls-15{font-size:6px;}.cls-35{letter-spacing:-.06em;}.cls-36{letter-spacing:-.06em;}.cls-37{letter-spacing:-.07em;}.cls-38{letter-spacing:-.26em;}.cls-39{letter-spacing:-.13em;}.cls-40{letter-spacing:-.03em;}.cls-41{letter-spacing:-.01em;}.cls-4{stroke-miterlimit:10;}.cls-42{letter-spacing:-.05em;}.cls-43{letter-spacing:-.05em;}</style><clipPath id="clippath"><rect class="cls-1" width="558.1" height="317.67"/></clipPath><clipPath id="clippath-1"><rect class="cls-1" x="-26.54" y="-18.43" width="595.28" height="420.95"/></clipPath><clipPath id="clippath-2"><rect class="cls-1" x="-26.54" y="-18.43" width="595.28" height="420.95"/></clipPath><clipPath id="clippath-3"><rect class="cls-1" x="-26.54" y="-18.43" width="595.28" height="420.95"/></clipPath><clipPath id="clippath-4"><rect class="cls-1" x="-26.54" y="-18.43" width="595.28" height="420.95"/></clipPath></defs><g id="_情報"><g class="cls-6"><g class="cls-20"><polygon class="cls-9" points="401.82 159.09 424.71 159.09 424.71 176.1 439.1 176.1 439.86 153.22 401.82 153.33 401.82 159.09"/><polygon class="cls-9" points="424.71 257.1 424.71 260.15 412.66 260.15 412.66 265.32 436.13 265.27 436.4 257.1 424.71 257.1"/><polygon class="cls-9" points="139.97 159.09 139.97 173.27 130.58 173.27 131.58 145.63 145.05 159.09 139.97 159.09"/><polygon class="cls-9" points="138.55 55.54 157.03 71.42 157.61 55.66 138.55 55.54"/><rect class="cls-9" x="301.46" y="253.06" width="36.07" height="8.3"/><rect class="cls-9" x="301.54" y="258.25" width="37.41" height="7.07"/><g class="cls-23"><path class="cls-3" d="M128,48.38c0-.78-.63-1.42-1.42-1.42s-1.42,.63-1.42,1.42,.63,1.42,1.42,1.42,1.42-.63,1.42-1.42Z"/><path class="cls-3" d="M161.66,48.59c0-.78-.63-1.42-1.42-1.42s-1.42,.63-1.42,1.42,.63,1.42,1.42,1.42,1.42-.64,1.42-1.42Z"/><path class="cls-3" d="M158.07,151.37c0-.78-.63-1.42-1.42-1.42s-1.42,.63-1.42,1.42,.63,1.42,1.42,1.42,1.42-.63,1.42-1.42Z"/><path class="cls-3" d="M449.87,150.7c0-.78-.63-1.42-1.42-1.42s-1.42,.63-1.42,1.42,.63,1.42,1.42,1.42,1.42-.63,1.42-1.42Z"/><path class="cls-3" d="M445.97,267.87c0-.78-.63-1.42-1.42-1.42s-1.42,.63-1.42,1.42,.63,1.42,1.42,1.42,1.42-.63,1.42-1.42Z"/><path class="cls-3" d="M120.08,267.87c0-.78-.63-1.42-1.42-1.42s-1.42,.63-1.42,1.42,.63,1.42,1.42,1.42,1.42-.63,1.42-1.42Z"/><path class="cls-3" d="M271.5,267.87c0-.78-.63-1.42-1.42-1.42s-1.42,.63-1.42,1.42,.63,1.42,1.42,1.42,1.42-.63,1.42-1.42Z"/><line class="cls-3" x1="32.1" y1="312.52" x2="41.65" y2="47.82"/><line class="cls-3" x1="116.94" y1="315.59" x2="126.58" y2="48.38"/><line class="cls-3" x1="126.58" y1="48.38" x2="166.51" y2="48.63"/><line class="cls-3" x1="156.66" y1="151.37" x2="160.25" y2="48.59"/><line class="cls-3" x1="448.45" y1="150.7" x2="156.66" y2="151.37"/><line class="cls-3" x1="118.66" y1="267.87" x2="444.55" y2="267.87"/><line class="cls-3" x1="443.12" y1="310.94" x2="449.7" y2="113.36"/><line class="cls-3" x1="485.11" y1="310.94" x2="491.69" y2="113.36"/><line class="cls-3" x1="501.54" y1="150.39" x2="502.77" y2="113.35"/><line class="cls-3" x1="508.54" y1="150.39" x2="509.78" y2="113.35"/><line class="cls-3" x1="7.02" y1="47.6" x2="41.65" y2="47.82"/><path class="cls-3" d="M47.93,54.09c0,.59-.48,1.06-1.06,1.06s-1.06-.48-1.06-1.06,.48-1.06,1.06-1.06,1.06,.48,1.06,1.06Z"/><path class="cls-3" d="M47.48,65.18c0,.59-.48,1.06-1.06,1.06s-1.06-.48-1.06-1.06,.48-1.06,1.06-1.06,1.06,.48,1.06,1.06Z"/><circle class="cls-3" cx="39.42" cy="303.05" r="1.06"/><path class="cls-3" d="M485.78,145.38c0,.59-.48,1.06-1.06,1.06s-1.06-.48-1.06-1.06,.48-1.06,1.06-1.06,1.06,.48,1.06,1.06Z"/><path class="cls-3" d="M485.33,156.47c0,.59-.48,1.06-1.06,1.06s-1.06-.48-1.06-1.06,.48-1.06,1.06-1.06,1.06,.48,1.06,1.06Z"/><path class="cls-3" d="M476.99,262.9c0,.59-.48,1.06-1.06,1.06s-1.06-.48-1.06-1.06,.48-1.06,1.06-1.06,1.06,.48,1.06,1.06Z"/><line class="cls-3" x1="501.54" y1="150.39" x2="508.54" y2="150.39"/><line class="cls-3" x1="482.72" y1="270.44" x2="483.62" y2="243.35"/><line class="cls-3" x1="468.24" y1="270.44" x2="469.14" y2="243.35"/><line class="cls-3" x1="468.24" y1="270.44" x2="482.72" y2="270.44"/><line class="cls-3" x1="469.14" y1="243.35" x2="483.62" y2="243.35"/><line class="cls-3" x1="515.55" y1="150.39" x2="516.78" y2="113.35"/><line class="cls-3" x1="522.56" y1="150.39" x2="523.79" y2="113.35"/><line class="cls-3" x1="515.55" y1="150.39" x2="522.56" y2="150.39"/><line class="cls-3" x1="529.56" y1="150.39" x2="530.79" y2="113.35"/><line class="cls-3" x1="536.57" y1="150.39" x2="537.8" y2="113.35"/><line class="cls-3" x1="529.56" y1="150.39" x2="536.57" y2="150.39"/><line class="cls-3" x1="543.57" y1="150.39" x2="544.8" y2="113.35"/><line class="cls-3" x1="550.58" y1="150.39" x2="551.81" y2="113.35"/><line class="cls-3" x1="543.57" y1="150.39" x2="550.58" y2="150.39"/></g><line class="cls-3" x1="227.98" y1="225.21" x2="234.36" y2="225.21"/><line class="cls-3" x1="227.98" y1="220.96" x2="234.36" y2="220.96"/><line class="cls-3" x1="234.36" y1="216.71" x2="227.98" y2="216.71"/><line class="cls-3" x1="227.98" y1="212.46" x2="234.36" y2="212.46"/><line class="cls-3" x1="227.98" y1="208.21" x2="234.36" y2="208.21"/><line class="cls-3" x1="227.98" y1="201.83" x2="234.36" y2="201.83"/><line class="cls-3" x1="234.36" y1="201.83" x2="234.36" y2="225.21"/><line class="cls-3" x1="227.98" y1="225.21" x2="227.98" y2="201.83"/><line class="cls-3" x1="283.19" y1="172.38" x2="280.45" y2="171.65"/><line class="cls-3" x1="268.31" y1="172.38" x2="283.19" y2="172.38"/><line class="cls-3" x1="283.19" y1="172.38" x2="280.45" y2="173.12"/><line class="cls-3" x1="260.48" y1="164.06" x2="260.44" y2="164.02"/><line class="cls-3" x1="285.02" y1="166.18" x2="262.57" y2="166.18"/><line class="cls-3" x1="285.65" y1="164.06" x2="260.48" y2="164.06"/><line class="cls-3" x1="274.76" y1="186.09" x2="274.76" y2="198.28"/><line class="cls-3" x1="262.57" y1="185.39" x2="274.05" y2="185.39"/><line class="cls-3" x1="262.57" y1="181.98" x2="274.05" y2="181.98"/><line class="cls-3" x1="262.57" y1="178.58" x2="274.05" y2="178.58"/><line class="cls-3" x1="274.05" y1="186.09" x2="262.57" y2="198.28"/><line class="cls-2" x1="260.44" y1="166.18" x2="260.44" y2="198.28"/><line class="cls-3" x1="274.76" y1="177.87" x2="274.76" y2="166.18"/><line class="cls-3" x1="278.16" y1="177.87" x2="278.16" y2="166.18"/><line class="cls-3" x1="281.56" y1="177.87" x2="281.56" y2="166.18"/><line class="cls-3" x1="268.31" y1="192.51" x2="268.31" y2="172.38"/><line class="cls-3" x1="281.56" y1="177.87" x2="285.65" y2="164.06"/><line class="cls-3" x1="274.05" y1="177.87" x2="262.57" y2="166.18"/><line class="cls-3" x1="260.44" y1="198.28" x2="260.44" y2="164.02"/><line class="cls-3" x1="262.57" y1="198.28" x2="262.57" y2="166.18"/><line class="cls-3" x1="441.28" y1="153.27" x2="440.47" y2="177.52"/><line class="cls-3" x1="424.71" y1="177.52" x2="440.47" y2="177.52"/><line class="cls-3" x1="410.54" y1="260.15" x2="410.54" y2="265.32"/><line class="cls-3" x1="412.66" y1="260.15" x2="412.66" y2="265.32"/><line class="cls-2" x1="424.71" y1="169.72" x2="439.91" y2="169.72"/><line class="cls-3" x1="126.33" y1="265.32" x2="444.55" y2="265.32"/><line class="cls-3" x1="338.75" y1="260.15" x2="338.75" y2="265.32"/><line class="cls-3" x1="340.45" y1="260.15" x2="340.45" y2="265.32"/><line class="cls-3" x1="301.54" y1="260.15" x2="301.54" y2="265.32"/><line class="cls-3" x1="299.84" y1="260.15" x2="299.84" y2="265.32"/><line class="cls-2" x1="304.73" y1="260.15" x2="335.91" y2="260.15"/><line class="cls-3" x1="448.46" y1="153.26" x2="154.07" y2="153.93"/><line class="cls-3" x1="401.82" y1="159.09" x2="401.82" y2="153.33"/><line class="cls-3" x1="401.82" y1="159.09" x2="407.7" y2="159.09"/><line class="cls-2" x1="309.34" y1="159.09" x2="407.7" y2="159.09"/><line class="cls-3" x1="309.34" y1="159.09" x2="309.34" y2="153.58"/><line class="cls-3" x1="307.21" y1="159.09" x2="307.21" y2="153.58"/><line class="cls-2" x1="245.91" y1="159.09" x2="293.75" y2="159.09"/><line class="cls-2" x1="293.75" y1="166.18" x2="245.56" y2="166.18"/><line class="cls-3" x1="154.14" y1="260.15" x2="154.14" y2="265.32"/><line class="cls-3" x1="152.02" y1="260.15" x2="152.02" y2="265.32"/><line class="cls-3" x1="139.97" y1="174.69" x2="129.12" y2="174.69"/><line class="cls-3" x1="129.12" y1="174.69" x2="130.28" y2="142.32"/><line class="cls-3" x1="147.06" y1="159.09" x2="130.28" y2="142.32"/><line class="cls-3" x1="154.07" y1="153.93" x2="157.49" y2="55.65"/><line class="cls-3" x1="156.77" y1="153.93" x2="156.77" y2="159.09"/><line class="cls-3" x1="154.64" y1="153.93" x2="154.64" y2="159.09"/><line class="cls-3" x1="160.04" y1="55.66" x2="138.55" y2="55.54"/><line class="cls-3" x1="156.92" y1="71.36" x2="138.55" y2="55.54"/><line class="cls-3" x1="424.71" y1="176.1" x2="439.1" y2="176.1"/><line class="cls-3" x1="439.86" y1="153.22" x2="439.1" y2="176.1"/><line class="cls-3" x1="139.97" y1="173.27" x2="130.58" y2="173.27"/><line class="cls-3" x1="130.58" y1="173.27" x2="131.58" y2="145.63"/><line class="cls-3" x1="145.05" y1="159.09" x2="131.58" y2="145.63"/><line class="cls-2" x1="424.71" y1="257.1" x2="436.72" y2="257.1"/><line class="cls-2" x1="439.91" y1="169.72" x2="437.01" y2="257.1"/><line class="cls-3" x1="436.72" y1="257.1" x2="437.82" y2="257.1"/><line class="cls-3" x1="436.13" y1="265.27" x2="436.4" y2="257.1"/><line class="cls-3" x1="437.55" y1="265.32" x2="437.82" y2="257.1"/><line class="cls-3" x1="205.87" y1="248.03" x2="176.11" y2="248.03"/><line class="cls-3" x1="205.87" y1="230.88" x2="205.87" y2="248.03"/><line class="cls-3" x1="176.11" y1="230.88" x2="176.11" y2="248.03"/><line class="cls-3" x1="278.16" y1="186.09" x2="278.16" y2="198.28"/><line class="cls-3" x1="268.31" y1="192.51" x2="278.16" y2="192.51"/><g class="cls-22"><path class="cls-3" d="M278.87,192.51c0-.39-.32-.71-.71-.71s-.71,.32-.71,.71,.32,.71,.71,.71,.71-.32,.71-.71Z"/><path class="cls-8" d="M156,65.62c0,.73-.59,1.31-1.31,1.31s-1.31-.59-1.31-1.31,.59-1.31,1.31-1.31,1.31,.59,1.31,1.31"/><path class="cls-3" d="M156,65.62c0,.73-.59,1.31-1.31,1.31s-1.31-.59-1.31-1.31,.59-1.31,1.31-1.31,1.31,.59,1.31,1.31Z"/></g><line class="cls-3" x1="281.56" y1="232.94" x2="280.99" y2="232.94"/><line class="cls-3" x1="269.65" y1="232.94" x2="269.09" y2="232.94"/><line class="cls-3" x1="281.56" y1="232.94" x2="285.24" y2="233.92"/><line class="cls-3" x1="269.09" y1="232.94" x2="265.4" y2="233.92"/><line class="cls-3" x1="280.99" y1="231.2" x2="280.99" y2="232.94"/><line class="cls-3" x1="269.65" y1="231.2" x2="269.65" y2="232.94"/><line class="cls-3" x1="287.65" y1="230.39" x2="287.65" y2="231.8"/><line class="cls-3" x1="262.99" y1="230.39" x2="262.99" y2="231.8"/><line class="cls-3" x1="287.65" y1="230.39" x2="262.99" y2="230.39"/><line class="cls-3" x1="262.99" y1="231.8" x2="265.4" y2="231.8"/><line class="cls-3" x1="287.65" y1="231.8" x2="285.24" y2="231.8"/><line class="cls-3" x1="280.99" y1="231.09" x2="269.65" y2="231.09"/><line class="cls-3" x1="269.23" y1="228.7" x2="281.42" y2="228.7"/><line class="cls-3" x1="285.24" y1="248.53" x2="265.4" y2="248.53"/><line class="cls-3" x1="285.24" y1="231.8" x2="285.24" y2="248.53"/><line class="cls-3" x1="265.4" y1="231.8" x2="265.4" y2="248.53"/><line class="cls-3" x1="137.16" y1="126.81" x2="129.02" y2="132.48"/><line class="cls-3" x1="129.02" y1="132.48" x2="145.23" y2="155.74"/><line class="cls-3" x1="145.23" y1="155.74" x2="153.37" y2="150.07"/><line class="cls-3" x1="153.37" y1="150.07" x2="137.16" y2="126.81"/><line class="cls-2" x1="129.76" y1="169.37" x2="139.97" y2="169.37"/><line class="cls-2" x1="126.62" y1="257.46" x2="139.97" y2="257.46"/><line class="cls-2" x1="126.62" y1="257.46" x2="129.76" y2="169.37"/><line class="cls-3" x1="126.24" y1="267.87" x2="126.33" y2="265.32"/><line class="cls-3" x1="156.69" y1="78.64" x2="135.75" y2="60.67"/><line class="cls-3" x1="156.52" y1="84.23" x2="135.58" y2="66.26"/><line class="cls-3" x1="156.32" y1="89.79" x2="135.41" y2="71.85"/><line class="cls-3" x1="156.13" y1="95.35" x2="135.25" y2="77.43"/><line class="cls-3" x1="155.96" y1="100.93" x2="135.08" y2="83.02"/><line class="cls-3" x1="155.71" y1="106.29" x2="134.91" y2="88.61"/><line class="cls-3" x1="155.54" y1="112.08" x2="134.74" y2="94.19"/><line class="cls-3" x1="155.37" y1="117.66" x2="134.58" y2="99.78"/><line class="cls-3" x1="155.15" y1="123.19" x2="134.41" y2="105.37"/><line class="cls-3" x1="154.98" y1="128.7" x2="134.24" y2="110.95"/><line class="cls-3" x1="154.79" y1="134.31" x2="134.07" y2="116.54"/><line class="cls-3" x1="156.86" y1="73.08" x2="135.92" y2="55.09"/><line class="cls-3" x1="135.92" y1="55.09" x2="133.91" y2="122.13"/><line class="cls-3" x1="154.62" y1="139.84" x2="133.91" y2="122.13"/><line class="cls-3" x1="309.25" y1="153.99" x2="327.09" y2="175.25"/><line class="cls-3" x1="314.8" y1="153.99" x2="332.64" y2="175.25"/><line class="cls-3" x1="320.35" y1="153.99" x2="338.19" y2="175.25"/><line class="cls-3" x1="325.9" y1="153.99" x2="343.74" y2="175.25"/><line class="cls-3" x1="331.45" y1="153.99" x2="349.29" y2="175.25"/><line class="cls-3" x1="337" y1="153.99" x2="354.84" y2="175.25"/><line class="cls-3" x1="342.55" y1="153.99" x2="360.39" y2="175.25"/><line class="cls-3" x1="348.1" y1="153.99" x2="365.94" y2="175.25"/><line class="cls-3" x1="353.65" y1="153.99" x2="371.49" y2="175.25"/><line class="cls-3" x1="359.21" y1="153.99" x2="377.04" y2="175.25"/><line class="cls-3" x1="364.76" y1="153.99" x2="382.59" y2="175.25"/><line class="cls-3" x1="370.31" y1="153.99" x2="388.15" y2="175.25"/><line class="cls-3" x1="375.86" y1="153.99" x2="393.7" y2="175.25"/><line class="cls-3" x1="381.41" y1="153.99" x2="399.25" y2="175.25"/><line class="cls-3" x1="309.25" y1="153.99" x2="386.96" y2="153.99"/><line class="cls-3" x1="386.96" y1="153.99" x2="404.8" y2="175.25"/><line class="cls-3" x1="327.09" y1="175.25" x2="404.8" y2="175.25"/><line class="cls-2" x1="166.54" y1="224.65" x2="129.21" y2="224.65"/><line class="cls-2" x1="153.08" y1="258.38" x2="166.54" y2="258.38"/><line class="cls-2" x1="129.13" y1="175.04" x2="129.13" y2="224.65"/><line class="cls-2" x1="214.17" y1="210.47" x2="129.13" y2="210.47"/><line class="cls-2" x1="129.13" y1="175.04" x2="214.17" y2="175.04"/><line class="cls-2" x1="214.17" y1="224.65" x2="129.13" y2="224.65"/><line class="cls-2" x1="214.17" y1="175.04" x2="214.17" y2="224.65"/><line class="cls-2" x1="245.8" y1="192.7" x2="245.8" y2="179.94"/><line class="cls-2" x1="245.8" y1="179.94" x2="250.76" y2="179.94"/><line class="cls-2" x1="250.76" y1="179.94" x2="250.76" y2="192.7"/><line class="cls-2" x1="250.76" y1="192.7" x2="245.8" y2="192.7"/><line class="cls-2" x1="178.59" y1="167.24" x2="178.59" y2="160.37"/><line class="cls-2" x1="153.08" y1="167.24" x2="178.59" y2="167.24"/><line class="cls-2" x1="153.08" y1="162.28" x2="178.59" y2="162.28"/><line class="cls-2" x1="165.83" y1="162.28" x2="165.83" y2="167.24"/><line class="cls-2" x1="178.59" y1="167.24" x2="153.08" y2="167.24"/><line class="cls-2" x1="153.08" y1="167.24" x2="153.08" y2="162.28"/><line class="cls-2" x1="178.59" y1="167.24" x2="178.59" y2="162.28"/><line class="cls-3" x1="291.27" y1="176.46" x2="291.27" y2="183.54"/><line class="cls-3" x1="306.15" y1="183.54" x2="291.27" y2="183.54"/><line class="cls-3" x1="289.85" y1="175.04" x2="289.85" y2="184.96"/><line class="cls-3" x1="307.57" y1="184.96" x2="289.85" y2="184.96"/><line class="cls-3" x1="293.75" y1="175.04" x2="289.85" y2="175.04"/><line class="cls-3" x1="293.75" y1="176.46" x2="291.27" y2="176.46"/><line class="cls-3" x1="306.15" y1="176.1" x2="306.15" y2="183.54"/><line class="cls-3" x1="307.57" y1="176.1" x2="307.57" y2="184.96"/><line class="cls-3" x1="293.75" y1="176.46" x2="293.75" y2="176.1"/><rect class="cls-3" x="307.78" y="176.1" width=".99" height="22.18"/><rect class="cls-10" x="407.7" y="159.1" width="17.01" height="18.43"/><rect class="cls-3" x="407.7" y="159.1" width="17.01" height="18.43"/><rect class="cls-10" x="353.63" y="199.7" width="73.98" height="2.13"/><rect class="cls-3" x="353.63" y="199.7" width="73.98" height="2.13"/><rect class="cls-10" x="214.38" y="198.28" width="141.38" height="2.13"/><rect class="cls-3" x="214.38" y="198.28" width="141.38" height="2.13"/><rect class="cls-10" x="231.39" y="159.1" width="14.17" height="15.59"/><rect class="cls-3" x="231.39" y="159.1" width="14.17" height="15.59"/><rect class="cls-10" x="242.72" y="170.22" width="2.13" height="28.75"/><rect class="cls-3" x="242.72" y="170.22" width="2.13" height="28.75"/><rect class="cls-10" x="274.05" y="177.87" width="8.22" height="8.22"/><rect class="cls-3" x="274.05" y="177.87" width="8.22" height="8.22"/><rect class="cls-10" x="293.75" y="159.1" width="15.59" height="17.01"/><rect class="cls-3" x="293.75" y="159.1" width="15.59" height="17.01"/><rect class="cls-10" x="139.97" y="159.1" width="14.17" height="15.59"/><rect class="cls-3" x="139.97" y="159.1" width="14.17" height="15.59"/><rect class="cls-10" x="151.11" y="159.1" width="81.8" height="3.54"/><rect class="cls-3" x="151.11" y="159.1" width="81.8" height="3.54"/><rect class="cls-10" x="214.38" y="161.18" width="2.13" height="96.61"/><rect class="cls-3" x="214.38" y="161.18" width="2.13" height="96.61"/><rect class="cls-10" x="231.39" y="244.56" width="14.17" height="14.25"/><rect class="cls-3" x="231.39" y="244.56" width="14.17" height="14.25"/><rect class="cls-10" x="165.48" y="228.76" width="49.62" height="2.13"/><rect class="cls-3" x="165.48" y="228.76" width="49.62" height="2.13"/><rect class="cls-10" x="165.48" y="229.87" width="2.13" height="28.51"/><rect class="cls-3" x="165.48" y="229.87" width="2.13" height="28.51"/><rect class="cls-10" x="139.97" y="244.56" width="14.17" height="15.59"/><rect class="cls-3" x="139.97" y="244.56" width="14.17" height="15.59"/><rect class="cls-10" x="149.21" y="256.61" width="151.37" height="3.54"/><rect class="cls-3" x="149.21" y="256.61" width="151.37" height="3.54"/><rect class="cls-10" x="288.43" y="244.56" width="15.95" height="15.59"/><rect class="cls-3" x="288.43" y="244.56" width="15.95" height="15.59"/><rect class="cls-10" x="299.44" y="250.73" width="38.6" height="2.13"/><rect class="cls-3" x="299.44" y="250.73" width="38.6" height="2.13"/><rect class="cls-10" x="335.91" y="251.82" width="2.13" height="8.33"/><rect class="cls-3" x="335.91" y="251.82" width="2.13" height="8.33"/><rect class="cls-10" x="336.96" y="257.6" width="73.56" height="2.55"/><rect class="cls-3" x="336.96" y="257.6" width="73.56" height="2.55"/><rect class="cls-10" x="259.38" y="225.3" width="2.83" height="33.44"/><rect class="cls-3" x="259.38" y="225.3" width="2.83" height="33.44"/><rect class="cls-10" x="261.13" y="225.3" width="8.45" height="3.46"/><rect class="cls-3" x="261.13" y="225.3" width="8.45" height="3.46"/><rect class="cls-10" x="281.07" y="225.3" width="9.69" height="3.46"/><rect class="cls-3" x="281.07" y="225.3" width="9.69" height="3.46"/><rect class="cls-10" x="288.43" y="225.3" width="4.17" height="22.56"/><rect class="cls-3" x="288.43" y="225.3" width="4.17" height="22.56"/><rect class="cls-10" x="353.63" y="236.55" width="2.13" height="22.37"/><rect class="cls-3" x="353.63" y="236.55" width="2.13" height="22.37"/><rect class="cls-10" x="354.54" y="236.55" width="55.07" height="2.13"/><rect class="cls-3" x="354.54" y="236.55" width="55.07" height="2.13"/><polygon class="cls-10" points="420.23 257.1 436.72 257.1 436.79 254.98 420.23 254.98 420.23 257.1"/><polygon class="cls-3" points="420.23 257.1 436.72 257.1 436.79 254.98 420.23 254.98 420.23 257.1"/><rect class="cls-10" x="407.49" y="241.73" width="17.22" height="18.43"/><rect class="cls-3" x="407.49" y="241.73" width="17.22" height="18.43"/><rect class="cls-10" x="407.49" y="237.09" width="2.13" height="5.89"/><rect class="cls-3" x="407.49" y="237.09" width="2.13" height="5.89"/><rect class="cls-10" x="396.15" y="235.72" width="2.83" height="1.6"/><rect class="cls-3" x="396.15" y="235.72" width="2.83" height="1.6"/><rect class="cls-10" x="396.15" y="200.23" width="2.83" height="2.31"/><rect class="cls-3" x="396.15" y="200.23" width="2.83" height="2.31"/><rect class="cls-10" x="353.63" y="235.72" width="2.83" height="1.9"/><rect class="cls-3" x="353.63" y="235.72" width="2.83" height="1.9"/><rect class="cls-10" x="353.63" y="199.85" width="2.83" height="2.68"/><rect class="cls-3" x="353.63" y="199.85" width="2.83" height="2.68"/><rect class="cls-10" x="245.84" y="199.27" width="1.42" height="27.58"/><rect class="cls-3" x="245.84" y="199.27" width="1.42" height="27.58"/><rect class="cls-10" x="232.94" y="226.46" width="1.42" height="18.1"/><rect class="cls-3" x="232.94" y="226.46" width="1.42" height="18.1"/><rect class="cls-10" x="227.98" y="225.21" width="6.38" height="2.13"/><rect class="cls-3" x="227.98" y="225.21" width="6.38" height="2.13"/><rect class="cls-10" x="227.98" y="199.32" width="6.38" height="2.5"/><rect class="cls-3" x="227.98" y="199.32" width="6.38" height="2.5"/><rect class="cls-8" x="353.63" y="239.81" width="2.13" height="11.34"/><rect class="cls-3" x="353.63" y="239.81" width="2.13" height="11.34"/><line class="cls-3" x1="353.63" y1="251.15" x2="342.29" y2="251.15"/><g class="cls-21"><path class="cls-3" d="M342.29,251.15c0-6.27,5.07-11.34,11.34-11.34"/><rect class="cls-8" x="397.57" y="224.74" width="1.06" height=".71"/><rect class="cls-3" x="397.57" y="224.74" width="1.06" height=".71"/><line class="cls-3" x1="398.1" y1="225.45" x2="398.1" y2="235.72"/><line class="cls-3" x1="396.62" y1="202.54" x2="396.62" y2="214.75"/><line class="cls-3" x1="397.09" y1="212.53" x2="397.09" y2="224.74"/><line class="cls-3" x1="395.37" y1="213.64" x2="399.76" y2="213.64"/><rect class="cls-8" x="355.05" y="224.74" width="1.06" height=".71"/><rect class="cls-3" x="355.05" y="224.74" width="1.06" height=".71"/><line class="cls-3" x1="355.58" y1="225.45" x2="355.58" y2="235.72"/><line class="cls-3" x1="354.1" y1="202.54" x2="354.1" y2="214.75"/><line class="cls-3" x1="354.58" y1="212.53" x2="354.58" y2="224.74"/><line class="cls-3" x1="352.85" y1="213.64" x2="357.24" y2="213.64"/><rect class="cls-8" x="307.78" y="185.53" width=".99" height="11.34"/><rect class="cls-3" x="307.78" y="185.53" width=".99" height="11.34"/><line class="cls-3" x1="308.77" y1="196.87" x2="320.11" y2="196.87"/><path class="cls-3" d="M320.11,196.87c0-6.27-5.07-11.34-11.34-11.34"/><rect class="cls-8" x="282.27" y="198.28" width="11.34" height="2.13"/><rect class="cls-3" x="282.27" y="198.28" width="11.34" height="2.13"/><line class="cls-3" x1="282.27" y1="200.41" x2="282.27" y2="211.75"/><path class="cls-3" d="M293.61,200.41c0,6.27-5.07,11.34-11.34,11.34"/><rect class="cls-8" x="232.95" y="231.47" width="1.42" height="11.34"/><rect class="cls-3" x="232.95" y="231.47" width="1.42" height="11.34"/><line class="cls-3" x1="232.95" y1="242.81" x2="221.61" y2="242.81"/><path class="cls-3" d="M221.61,242.81c0-6.27,5.07-11.34,11.34-11.34"/><rect class="cls-8" x="217.63" y="198.28" width="8.5" height="2.13"/><rect class="cls-3" x="217.63" y="198.28" width="8.5" height="2.13"/><line class="cls-3" x1="217.63" y1="200.41" x2="217.63" y2="208.91"/><path class="cls-3" d="M226.13,200.41c0,4.7-3.8,8.5-8.5,8.5"/><rect class="cls-8" x="214.38" y="215.29" width="2.13" height="11.34"/><rect class="cls-3" x="214.38" y="215.29" width="2.13" height="11.34"/><line class="cls-3" x1="214.38" y1="226.63" x2="203.04" y2="226.63"/><path class="cls-3" d="M203.04,226.63c0-6.27,5.07-11.34,11.34-11.34"/><rect class="cls-8" x="182.13" y="228.76" width="17.01" height="2.13"/><rect class="cls-3" x="182.13" y="228.76" width="17.01" height="2.13"/><line class="cls-3" x1="199.14" y1="228.76" x2="199.14" y2="217.42"/><line class="cls-3" x1="182.13" y1="228.76" x2="182.13" y2="223.09"/><path class="cls-3" d="M187.8,228.76c0-6.27,5.07-11.34,11.34-11.34"/><path class="cls-3" d="M187.8,228.76c0-3.13-2.54-5.67-5.67-5.67"/><rect class="cls-8" x="305.09" y="250.73" width="30.12" height="2.13"/><rect class="cls-3" x="305.09" y="250.73" width="30.12" height="2.13"/><line class="cls-3" x1="305.09" y1="251.79" x2="335.2" y2="251.79"/><rect class="cls-8" x="371.7" y="236.55" width="8.5" height="2.13"/><rect class="cls-3" x="371.7" y="236.55" width="8.5" height="2.13"/><line class="cls-3" x1="371.7" y1="237.61" x2="380.21" y2="237.61"/><line class="cls-2" x1="397.09" y1="224.74" x2="397.09" y2="235.72"/><line class="cls-2" x1="396.62" y1="224.74" x2="396.62" y2="235.72"/><line class="cls-2" x1="354.57" y1="224.74" x2="354.57" y2="235.72"/><line class="cls-2" x1="354.09" y1="224.74" x2="354.09" y2="235.72"/></g><text class="cls-15" transform="translate(367.31 222.45)"><tspan x="0" y="0">風除室</tspan></text><path class="cls-10" d="M238.76,215.94c0,1.25-.18,2.36-1.23,3.39l-.26-.26c1.1-.98,1.13-2.28,1.13-3.11v-1.59h.35v1.57Zm1.13,16.56v-1.36h.38v1.36h2.34v.35h-2.34v.26c0,2.21-1.51,2.85-2.32,3.17l-.2-.31c.28-.1,1.06-.38,1.56-.95,.57-.65,.59-1.74,.59-1.92v-.25h-2.49v-.35h2.49Zm2.12-25.8c-.19-.2-.62-.68-1.37-1.3-.97,1.38-2.27,2-2.88,2.28l-.2-.32c.55-.24,1.81-.8,2.79-2.18-.94-.74-1.52-1.09-1.89-1.3l.2-.28c.67,.35,1.3,.79,1.89,1.27,.64-.99,.94-1.94,1.04-2.26l.38,.13c-.41,1.16-.86,1.94-1.13,2.36,.81,.64,1.26,1.12,1.44,1.3l-.28,.3Zm.37,13.45v4.21h-4.55v-.35h4.17v-3.52h-4.13v-.34h4.5Zm-2.07-6.58h-.42v-5.32h.42v5.32Zm0,16.99h-.42v-5.32h.42v5.32Zm0,11.66h-.42v-5.32h.42v5.32Zm.04-23.44c1.6-.3,1.95-1.42,2.16-2.54l.34,.14c-.23,1.07-.64,2.61-2.85,2.84v-5.04h.36v4.6Z"/><text class="cls-15" transform="translate(301.49 225.57)"><tspan class="cls-32" x="0" y="0">エ</tspan><tspan class="cls-38" x="5.67" y="0">ン</tspan><tspan class="cls-31" x="10.1" y="0">ト</tspan><tspan class="cls-28" x="15.67" y="0">ラ</tspan><tspan class="cls-34" x="21.23" y="0">ン</tspan><tspan x="26.89" y="0">ス</tspan></text><text class="cls-15" transform="translate(308.87 232.77)"><tspan class="cls-30" x="0" y="0">ホ</tspan><tspan class="cls-7" x="5.78" y="0">ー</tspan><tspan x="11.84" y="0">ル</tspan></text><text class="cls-14" transform="translate(119.11 256.8)"><tspan class="cls-19" x="0" y="0">ご</tspan><tspan x="4.73" y="0">み持出</tspan></text><text class="cls-14" transform="translate(119.3 262.8)"><tspan class="cls-40" x="0" y="0">ス</tspan><tspan x="4.83" y="0">ペ</tspan><tspan class="cls-5" x="9.83" y="0">ー</tspan><tspan x="14.73" y="0">ス</tspan></text><text class="cls-15" transform="translate(270.99 242.63)"><tspan x="0" y="0">EV</tspan></text><text class="cls-15" transform="translate(372.63 250.79)"><tspan x="0" y="0">管理室</tspan></text><text class="cls-15" transform="translate(178.9 241.97)"><tspan class="cls-37" x="0" y="0">ゴミ</tspan><tspan x="11.22" y="0">置場</tspan></text><text class="cls-15" transform="translate(217.62 187.2)"><tspan x="0" y="0">防災倉庫</tspan></text><text class="cls-15" transform="translate(155.9 172.74)"><tspan x="0" y="0">引込開閉器盤</tspan></text><g><text class="cls-14" transform="translate(251.48 196.54)"><tspan x="0" y="0">プ</tspan></text><text class="cls-14" transform="translate(251.48 191.95)"><tspan x="0" y="0">ン</tspan></text><text class="cls-14" transform="translate(251.48 187.41)"><tspan x="0" y="0">ポ</tspan></text><text class="cls-14" transform="translate(251.48 182.46)"><tspan x="0" y="0">圧</tspan></text><text class="cls-14" transform="translate(251.48 177.46)"><tspan x="0" y="0">増</tspan></text></g><text class="cls-15" transform="translate(158.79 194.76)"><tspan x="0" y="0">平置駐車場</tspan></text><text class="cls-15" transform="translate(168.52 201.96)"><tspan x="0" y="0">1台</tspan></text><text class="cls-15" transform="translate(104.29 141.27)"><tspan x="0" y="0">平</tspan><tspan class="cls-41" x="6" y="0">置</tspan><tspan class="cls-42" x="11.92" y="0">バ</tspan><tspan class="cls-17" x="17.61" y="0">イ</tspan><tspan class="cls-36" x="23.05" y="0">ク</tspan><tspan x="28.66" y="0">置場</tspan></text><text class="cls-15" transform="translate(119.35 148.47)"><tspan x="0" y="0">1台</tspan></text><text class="cls-15" transform="translate(349.9 164.62)"><tspan x="0" y="0">駐輪場</tspan></text><text class="cls-15" transform="translate(345.18 171.82)"><tspan x="0" y="0">平</tspan><tspan class="cls-5" x="6" y="0">置</tspan><tspan class="cls-29" x="11.88" y="0">ラ</tspan><tspan class="cls-26" x="16.88" y="0">ッ</tspan><tspan x="21.84" y="0">ク</tspan></text><text class="cls-15" transform="translate(351.34 179.02)"><tspan x="0" y="0">14台</tspan></text><text class="cls-15" transform="translate(131.62 94.18)"><tspan x="0" y="0">駐輪場</tspan></text><text class="cls-15" transform="translate(126.9 101.38)"><tspan x="0" y="0">平</tspan><tspan class="cls-5" x="6" y="0">置</tspan><tspan class="cls-29" x="11.88" y="0">ラ</tspan><tspan class="cls-26" x="16.88" y="0">ッ</tspan><tspan x="21.84" y="0">ク</tspan></text><text class="cls-15" transform="translate(133.06 108.58)"><tspan x="0" y="0">12台</tspan></text><text class="cls-14" transform="translate(279.17 194.58)"><tspan x="0" y="0">UP</tspan></text><text class="cls-14" transform="translate(279.26 189.78)"><tspan class="cls-39" x="0" y="0">ペ</tspan><tspan class="cls-27" x="4.34" y="0">ッ</tspan><tspan class="cls-43" x="7.68" y="0">ト</tspan><tspan x="12.42" y="0">足洗場</tspan></text><text class="cls-14" transform="translate(285.6 148.82)"><tspan x="0" y="0">隣地境界線</tspan></text><text class="cls-14" transform="translate(257.11 274.09)"><tspan x="0" y="0">隣地境界線</tspan></text><text class="cls-14" transform="translate(164.29 118.6) rotate(-90)"><tspan x="0" y="0">隣地境界線</tspan></text><text class="cls-12" transform="translate(129.5 45.59) rotate(-.73)"><tspan x="0" y="0">道路境界線</tspan></text><text class="cls-13" transform="translate(120.05 171.55) rotate(-88.29)"><tspan x="0" y="0">道路境界線</tspan></text><text class="cls-13" transform="translate(451.78 219.83) rotate(-88.29)"><tspan x="0" y="0">道路境界線</tspan></text><text class="cls-14" transform="translate(425.23 263.29)"><tspan x="0" y="0">緑地</tspan></text><text class="cls-14" transform="translate(426.74 167.5)"><tspan x="0" y="0">緑地</tspan></text><text class="cls-11" transform="translate(130.75 167.65)"><tspan x="0" y="0">緑地</tspan></text><text class="cls-14" transform="translate(146.57 62.68)"><tspan x="0" y="0">緑地</tspan></text><text class="cls-14" transform="translate(163.94 71.19)"><tspan x="0" y="0">引込柱</tspan></text><text class="cls-14" transform="translate(315.14 258.67)"><tspan x="0" y="0">箱庭</tspan></text><text class="cls-11" transform="translate(453.98 226.15)"><tspan class="cls-32" x="0" y="0">マ</tspan><tspan class="cls-25" x="4.25" y="0">ン</tspan><tspan class="cls-24" x="8.42" y="0">ショ</tspan><tspan x="15.67" y="0">ン</tspan></text><text class="cls-11" transform="translate(457.27 231.55)"><tspan x="0" y="0">出入口</tspan></text><text class="cls-11" transform="translate(98.67 100.03)"><tspan x="0" y="0">駐輪場</tspan></text><text class="cls-11" transform="translate(94.61 105.43)"><tspan class="cls-33" x="0" y="0">バ</tspan><tspan class="cls-16" x="4.27" y="0">イ</tspan><tspan class="cls-35" x="8.35" y="0">ク</tspan><tspan x="12.56" y="0">置場</tspan></text><text class="cls-11" transform="translate(98.67 110.83)"><tspan x="0" y="0">出入口</tspan></text><polygon class="cls-10" points="122.56 104.05 117.76 101.28 117.76 106.83 122.56 104.05"/><text class="cls-11" transform="translate(99.09 194.33)"><tspan x="0" y="0">駐車場</tspan></text><text class="cls-11" transform="translate(99.09 199.73)"><tspan x="0" y="0">出入口</tspan></text><text class="cls-14" transform="translate(70.33 167.1)"><tspan x="0" y="0">前面道路</tspan></text><text class="cls-14" transform="translate(69.13 174.36)"><tspan x="0" y="0">約5.9</tspan><tspan class="cls-18" x="13.88" y="0">8</tspan><tspan x="17.54" y="0">ｍ</tspan></text><text class="cls-14" transform="translate(132.6 21.93)"><tspan x="0" y="0">前面道路</tspan></text><text class="cls-14" transform="translate(129.5 29.19)"><tspan x="0" y="0">約10.9</tspan><tspan class="cls-18" x="17.68" y="0">9</tspan><tspan x="21.34" y="0">ｍ</tspan></text><text class="cls-14" transform="translate(513.41 219.95)"><tspan x="0" y="0">前面道路</tspan></text><text class="cls-14" transform="translate(517.48 109.8)"><tspan x="0" y="0">横断歩道</tspan></text><text class="cls-14" transform="translate(510.31 227.21)"><tspan x="0" y="0">約23.3</tspan><tspan class="cls-18" x="17.68" y="0">3</tspan><tspan x="21.34" y="0">ｍ</tspan></text><polygon class="cls-10" points="118.66 195.51 113.85 192.74 113.85 198.29 118.66 195.51"/><text class="cls-11" transform="translate(456.04 185.55)"><tspan x="0" y="0">駐輪場</tspan></text><text class="cls-11" transform="translate(456.04 190.95)"><tspan x="0" y="0">出入口</tspan></text><text class="cls-11" transform="translate(471.43 253.41)"><tspan x="0" y="0">植込</tspan></text><text class="cls-11" transform="translate(470.62 269.02)"><tspan x="0" y="0">電柱</tspan></text><text class="cls-11" transform="translate(50.57 55.71)"><tspan x="0" y="0">電柱</tspan></text><text class="cls-11" transform="translate(50.04 67.11)"><tspan x="0" y="0">標識</tspan></text><text class="cls-11" transform="translate(459.4 295.21)"><tspan x="0" y="0">歩道</tspan></text><text class="cls-11" transform="translate(472.67 147.16)"><tspan x="0" y="0">信号</tspan></text><text class="cls-11" transform="translate(472.42 158.14)"><tspan x="0" y="0">街灯</tspan></text><text class="cls-11" transform="translate(42.68 304.66)"><tspan x="0" y="0">街灯</tspan></text><polygon class="cls-10" points="450.04 187.04 454.85 189.81 454.85 184.26 450.04 187.04"/><polygon class="cls-10" points="448.59 227.56 453.4 230.33 453.4 224.78 448.59 227.56"/><polyline class="cls-4" points="163.01 69.27 160.86 69.27 154.69 65.62"/></g></g></g></svg>