<?xml version="1.0" encoding="UTF-8"?><svg id="Layer_2" xmlns="http://www.w3.org/2000/svg" xmlns:xlink="http://www.w3.org/1999/xlink" viewBox="0 0 112.97 85.13"><defs><style>.cls-1{fill:#c2b0a4;}.cls-1,.cls-2,.cls-3,.cls-4,.cls-5,.cls-6,.cls-7,.cls-8,.cls-9{stroke:#231f20;}.cls-1,.cls-2,.cls-3,.cls-4,.cls-5,.cls-6,.cls-9{stroke-width:.34px;}.cls-10,.cls-5,.cls-7{fill:#939598;}.cls-11{fill:#231f20;}.cls-2{fill:url(#linear-gradient);}.cls-3{fill:url(#linear-gradient-2);}.cls-4,.cls-5,.cls-6,.cls-7,.cls-8,.cls-9{stroke-miterlimit:10;}.cls-4,.cls-8{fill:#fff;}.cls-6{fill:#58595b;}.cls-7{stroke-width:.28px;}.cls-8{stroke-width:.27px;}.cls-9{fill:none;}</style><linearGradient id="linear-gradient" x1="6.69" y1="68.42" x2="62.6" y2="68.42" gradientUnits="userSpaceOnUse"><stop offset="0" stop-color="#adb6bb"/><stop offset=".06" stop-color="#b6bec2"/><stop offset=".22" stop-color="#cbcfd1"/><stop offset=".37" stop-color="#d7d9da"/><stop offset=".52" stop-color="#dcddde"/><stop offset=".66" stop-color="#d7d9da"/><stop offset=".8" stop-color="#cbced0"/><stop offset=".94" stop-color="#b6bcbf"/><stop offset="1" stop-color="#acb3b7"/></linearGradient><linearGradient id="linear-gradient-2" x1="6.59" y1="6.16" x2="62.5" y2="6.16" xlink:href="#linear-gradient"/></defs><g id="_情報"><g><polygon class="cls-5" points="13.47 55.3 15.09 57.17 15.08 57.52 15.08 60.58 13.48 62.56 18.14 62.56 16.52 60.58 16.53 57.16 18.13 55.3 13.47 55.3"/><polygon class="cls-5" points="15.22 14.74 13.94 17.09 17.83 17.09 16.73 14.74 16.74 13.98 17.83 11.82 13.94 11.82 15.21 13.98 15.22 14.74"/><polygon class="cls-5" points="54.91 14.74 53.63 17.09 57.52 17.09 56.42 14.74 56.43 13.98 57.52 11.82 53.63 11.82 54.9 13.98 54.91 14.74"/><line class="cls-4" x1="16.49" y1="57.15" x2="15.03" y2="57.15"/><line class="cls-5" x1="16.52" y1="59.83" x2="15.07" y2="59.83"/><line class="cls-4" x1="16.49" y1="60.51" x2="15.03" y2="60.51"/><line class="cls-4" x1="56.32" y1="57.33" x2="54.86" y2="57.33"/><line class="cls-4" x1="56.35" y1="60.01" x2="54.9" y2="60.01"/><line class="cls-4" x1="56.32" y1="60.68" x2="54.86" y2="60.68"/><g><polygon class="cls-10" points="53.3 55.33 54.91 57.35 54.91 57.7 54.91 60.76 53.31 62.62 57.97 62.62 56.35 60.76 56.35 57.34 57.97 55.33 53.3 55.33"/><g><polygon class="cls-7" points="53.3 55.33 54.91 57.35 54.91 57.7 54.91 60.76 53.31 62.62 57.97 62.62 56.35 60.76 56.35 57.34 57.97 55.33 53.3 55.33"/><line class="cls-8" x1="56.32" y1="57.33" x2="54.86" y2="57.33"/><line class="cls-7" x1="56.35" y1="60.01" x2="54.9" y2="60.01"/><line class="cls-8" x1="56.32" y1="60.68" x2="54.86" y2="60.68"/></g><g><polygon class="cls-9" points="53.3 55.33 54.91 57.35 54.91 57.7 54.91 60.76 53.31 62.62 57.97 62.62 56.35 60.76 56.35 57.34 57.97 55.33 53.3 55.33"/><line class="cls-9" x1="56.32" y1="57.33" x2="54.86" y2="57.33"/><line class="cls-9" x1="56.35" y1="60.01" x2="54.9" y2="60.01"/><line class="cls-9" x1="56.32" y1="60.68" x2="54.86" y2="60.68"/></g></g><rect class="cls-2" x=".27" y="62.43" width="70.99" height="11.99"/><rect class="cls-1" x=".17" y="52.82" width="70.99" height="2.61"/><rect class="cls-1" x=".17" y="16.58" width="70.99" height="2.61"/><polygon class="cls-3" points="71.16 12.15 .17 12.15 .17 .17 71.16 .17 71.16 6.03 71.16 12.15"/><g><polyline class="cls-4" points="72.2 53.86 79.63 53.86 79.63 58.16 79.63 62.2 72.2 62.2"/><line class="cls-4" x1="90.61" y1="58.16" x2="79.63" y2="58.16"/></g><g><polyline class="cls-4" points="72.2 11.07 79.63 11.07 79.63 14.14 79.63 16.96 72.2 16.96"/><line class="cls-4" x1="87.09" y1="13.84" x2="79.63" y2="13.84"/></g><line class="cls-4" x1="80.5" y1="6.16" x2="71.16" y2="6.16"/><path class="cls-6" d="M27.52,60.18c0-1.26,1.02-2.28,2.28-2.28s2.28,1.02,2.28,2.28-1.02,2.28-2.28,2.28-2.28-1.02-2.28-2.28Z"/><path class="cls-6" d="M33.45,60.18c0-1.26,1.02-2.28,2.28-2.28s2.28,1.02,2.28,2.28-1.02,2.28-2.28,2.28-2.28-1.02-2.28-2.28Z"/><path class="cls-6" d="M39.38,60.18c0-1.26,1.02-2.28,2.28-2.28s2.28,1.02,2.28,2.28-1.02,2.28-2.28,2.28-2.28-1.02-2.28-2.28Z"/><polyline class="cls-4" points="72.2 35.6 58.11 35.6 39.8 56.72 58.11 35.49"/><polyline class="cls-9" points="26.22 59.77 26.22 56.77 44.7 56.77 44.7 59.77"/><g><path class="cls-11" d="M85.51,7.21c0,.14-.11,.14-.19,.14-.11,0-.6-.03-.7-.03-.4,0-1.46,.06-1.8,.18-.04,.01-.23,.11-.27,.11-.21,0-.44-.42-.44-.62,0-.08,.02-.15,.05-.21,.21,.33,.3,.4,.49,.4,.05,0,2.14-.14,2.3-.15,.18-1.25,.32-2.2,.32-2.45,0-.06-.02-.07-.06-.07-.04,0-1.96,.14-2.37,.28-.04,0-.18,.1-.21,.1-.16,0-.45-.38-.45-.64,0-.14,.03-.21,.05-.27,.05,.09,.11,.2,.23,.33,.13,.13,.2,.13,.28,.13,.3,0,2.16-.13,2.4-.19,.09-.02,.12-.04,.23-.13,.02-.03,.05-.03,.08-.03,.05,0,.28,.23,.33,.29,.04,.04,.1,.11,.1,.18,0,.07-.04,.09-.16,.16-.06,.04-.09,.07-.11,.17-.07,.36-.16,.92-.36,2.08,.12,.01,.28,.1,.28,.23Z"/><path class="cls-11" d="M88.88,4.46s-.03,.22-.2,.22c-.11,0-.15-.05-.33-.25-.32-.36-.62-.52-.94-.7,.71-.01,1.48,.32,1.48,.73Zm2.44-.11c-.44,.96-1.12,1.74-1.88,2.4-.27,.24-.5,.42-.81,.66-.17,.13-.19,.16-.38,.4-.04,.05-.08,.1-.16,.1-.19,0-.55-.49-.55-.77,0-.11,.05-.2,.08-.27,.11,.27,.26,.42,.38,.42,.19,0,.73-.43,.95-.6,1.27-1.03,1.66-1.5,2.33-2.35l.04,.03Z"/><path class="cls-11" d="M92.42,8.41c1.24-.68,2.56-2.28,3.05-3.79-.17,.01-.94,.14-1.1,.14-.08,0-.17-.01-.35-.12-.14,.22-.36,.57-.76,.96-.19,.2-.47,.44-.79,.58l-.02-.04c.93-.85,1.55-2.11,1.55-2.35,0-.13-.11-.2-.33-.33,.05-.02,.13-.04,.29-.04,.11,0,.18,0,.46,.23,.11,.08,.12,.11,.12,.17,0,.06-.02,.1-.09,.17-.09,.1-.11,.12-.36,.52,.05,0,.15,.01,.21,.01,.29,0,1.02-.09,1.15-.19,.03-.02,.15-.14,.19-.14,.03,0,.05,.01,.08,.05,.25,.22,.36,.33,.36,.42,0,.04-.01,.04-.13,.12-.19,.12-.22,.14-.36,.45-.81,1.87-2.03,2.87-3.19,3.22v-.04Z"/><path class="cls-11" d="M98.75,5.82v.21c0,.09,0,.42-.16,.42s-.21-.36-.21-.52c0-.07,0-.1,.04-.34,.01-.08,.02-.18,.02-.62,0-.2,0-.73-.05-.87-.04-.11-.08-.12-.39-.23,.13-.11,.21-.15,.32-.15,.1,0,.53,.09,.53,.28,0,.04-.06,.23-.06,.27-.03,.22-.04,.87-.04,1.38v.16Zm.43,2.69c1.15-.97,1.38-1.81,1.38-3.87,0-.18,0-.82-.07-.93-.07-.13-.34-.16-.44-.17,.08-.08,.18-.2,.35-.2,.18,0,.48,.12,.55,.2,.04,.04,.04,.08,.04,.11,0,.05-.06,.26-.07,.31-.02,.1-.02,.25-.02,.4-.04,1.59-.05,1.83-.18,2.4-.06,.27-.36,1.37-1.52,1.81l-.02-.05Z"/><path class="cls-11" d="M103.15,5.63c.08,.03,.14,.03,.66,.03,.11,0,2.04-.01,2.46-.07,.11-.01,.12-.01,.19-.05,.04-.01,.07-.02,.11-.02,.03,0,.54,.07,.54,.25,0,.16-.15,.16-.31,.16-.09,0-.64-.04-.76-.04-.35,0-2.01,.03-2.3,.06-.07,0-.24,.03-.4,.09-.11,.04-.14,.06-.18,.06s-.08,0-.22-.19c-.04-.05-.17-.22-.17-.47,0-.09,0-.17,.05-.25,.08,.23,.21,.39,.34,.43Z"/><path class="cls-11" d="M111.63,5.88c.09,.09,.14,.23,.14,.37,0,.16-.05,.25-.13,.25-.08,0-.13-.06-.26-.21-.42-.49-.86-.8-1.29-1.03,0,.59-.01,1.2-.01,1.79,0,.14,.02,.73,.02,.85,0,.31,0,.59-.18,.59-.2,0-.25-.42-.25-.49,0-.01,.05-.34,.05-.38,.05-.35,.09-2.72,.09-2.97,0-.2,0-.87-.04-1.03-.04-.17-.2-.23-.48-.33,.21-.14,.37-.15,.38-.15,.09,0,.59,.12,.59,.34,0,.03-.06,.23-.09,.34-.06,.22-.07,1-.08,1.29,.44,.11,1.17,.38,1.55,.77Z"/></g><g><path class="cls-11" d="M85.51,69.8c0,.14-.11,.14-.19,.14-.11,0-.6-.03-.7-.03-.4,0-1.46,.06-1.8,.18-.04,.01-.23,.11-.27,.11-.21,0-.44-.42-.44-.62,0-.08,.02-.15,.05-.21,.21,.33,.3,.4,.49,.4,.05,0,2.14-.14,2.3-.15,.18-1.25,.32-2.2,.32-2.45,0-.06-.02-.07-.06-.07-.04,0-1.96,.14-2.37,.28-.04,0-.18,.1-.21,.1-.16,0-.45-.38-.45-.64,0-.14,.03-.21,.05-.27,.05,.09,.11,.2,.23,.33,.13,.13,.2,.13,.28,.13,.3,0,2.16-.13,2.4-.19,.09-.02,.12-.04,.23-.13,.02-.03,.05-.03,.08-.03,.05,0,.28,.23,.33,.29,.04,.04,.1,.11,.1,.18,0,.07-.04,.09-.16,.16-.06,.04-.09,.07-.11,.17-.07,.36-.16,.92-.36,2.08,.12,.01,.28,.1,.28,.23Z"/><path class="cls-11" d="M88.88,67.05s-.03,.22-.2,.22c-.11,0-.15-.05-.33-.25-.32-.36-.62-.52-.94-.7,.71-.01,1.48,.32,1.48,.73Zm2.44-.11c-.44,.96-1.12,1.74-1.88,2.4-.27,.24-.5,.42-.81,.66-.17,.13-.19,.16-.38,.4-.04,.05-.08,.1-.16,.1-.19,0-.55-.49-.55-.77,0-.11,.05-.2,.08-.27,.11,.27,.26,.42,.38,.42,.19,0,.73-.43,.95-.6,1.27-1.03,1.66-1.5,2.33-2.35l.04,.03Z"/><path class="cls-11" d="M92.42,71c1.24-.68,2.56-2.28,3.05-3.79-.17,.01-.94,.14-1.1,.14-.08,0-.17-.01-.35-.12-.14,.22-.36,.57-.76,.96-.19,.2-.47,.44-.79,.58l-.02-.04c.93-.85,1.55-2.11,1.55-2.35,0-.13-.11-.2-.33-.33,.05-.02,.13-.04,.29-.04,.11,0,.18,0,.46,.23,.11,.08,.12,.11,.12,.17,0,.06-.02,.1-.09,.17-.09,.1-.11,.12-.36,.52,.05,0,.15,.01,.21,.01,.29,0,1.02-.09,1.15-.19,.03-.02,.15-.14,.19-.14,.03,0,.05,.01,.08,.05,.25,.22,.36,.33,.36,.42,0,.04-.01,.04-.13,.12-.19,.12-.22,.14-.36,.45-.81,1.87-2.03,2.87-3.19,3.22v-.04Z"/><path class="cls-11" d="M98.75,68.41v.21c0,.09,0,.42-.16,.42s-.21-.36-.21-.52c0-.07,0-.1,.04-.34,.01-.08,.02-.18,.02-.62,0-.2,0-.73-.05-.87-.04-.11-.08-.12-.39-.23,.13-.11,.21-.15,.32-.15,.1,0,.53,.09,.53,.28,0,.04-.06,.23-.06,.27-.03,.22-.04,.87-.04,1.38v.16Zm.43,2.69c1.15-.97,1.38-1.81,1.38-3.87,0-.18,0-.82-.07-.93-.07-.13-.34-.16-.44-.17,.08-.08,.18-.2,.35-.2,.18,0,.48,.12,.55,.2,.04,.04,.04,.08,.04,.11,0,.05-.06,.26-.07,.31-.02,.1-.02,.25-.02,.4-.04,1.59-.05,1.83-.18,2.4-.06,.27-.36,1.37-1.52,1.81l-.02-.05Z"/><path class="cls-11" d="M103.15,68.22c.08,.03,.14,.03,.66,.03,.11,0,2.04-.01,2.46-.07,.11-.01,.12-.01,.19-.05,.04-.01,.07-.02,.11-.02,.03,0,.54,.07,.54,.25,0,.16-.15,.16-.31,.16-.09,0-.64-.04-.76-.04-.35,0-2.01,.03-2.3,.06-.07,0-.24,.03-.4,.09-.11,.04-.14,.06-.18,.06s-.08,0-.22-.19c-.04-.05-.17-.22-.17-.47,0-.09,0-.17,.05-.25,.08,.23,.21,.39,.34,.43Z"/><path class="cls-11" d="M111.63,68.46c.09,.09,.14,.23,.14,.37,0,.16-.05,.25-.13,.25-.08,0-.13-.06-.26-.21-.42-.49-.86-.8-1.29-1.03,0,.59-.01,1.2-.01,1.79,0,.14,.02,.73,.02,.85,0,.31,0,.59-.18,.59-.2,0-.25-.42-.25-.49,0-.01,.05-.34,.05-.38,.05-.35,.09-2.72,.09-2.97,0-.2,0-.87-.04-1.03-.04-.17-.2-.23-.48-.33,.21-.14,.37-.15,.38-.15,.09,0,.59,.12,.59,.34,0,.03-.06,.23-.09,.34-.06,.22-.07,1-.08,1.29,.44,.11,1.17,.38,1.55,.77Z"/></g><g><path class="cls-11" d="M92.44,15.96l.3-.39c.06-.07,.08-.08,.11-.08s.05,.02,.1,.08l.36,.4s.05,.06,.05,.1c0,.06-.05,.07-.09,.07h-4.16c-.21,0-.53,.03-.76,.07l-.14-.3c.5,.05,.95,.05,.98,.05h3.25Zm-.4-3.74l.26-.33s.06-.08,.1-.08c.03,0,.06,.03,.1,.08l.29,.34s.05,.07,.05,.1c0,.06-.05,.07-.09,.07h-3.3c-.21,0-.53,.03-.76,.07l-.13-.3c.5,.05,.94,.05,.97,.05h2.5Z"/><path class="cls-11" d="M99.26,16.79h-4.38c-.21,0-.53,.03-.76,.07l-.14-.28c.44,.04,.87,.05,.98,.05h1.54v-.71h-1.04c-.21,0-.53,.03-.76,.07l-.13-.28c.44,.04,.86,.05,.97,.05h.96v-.62h-1.04c.01,.13,.02,.29-.24,.29-.06,0-.13-.04-.13-.1,0,0,0-.09,.01-.14,.04-.44,.04-1.12,.04-1.23,0-.38,0-.6-.05-.92l.46,.28h.95v-.63h-1.47c-.21,0-.53,.03-.76,.08l-.13-.28c.44,.04,.86,.05,.97,.05h1.39v-.64c-.49,.06-1.05,.14-2.07,.12v-.08c.68-.08,1.35-.2,2.03-.34,.14-.03,1.04-.21,1.44-.46l.4,.36s.04,.07,.04,.09c0,.04-.05,.05-.07,.05-.06,0-.13-.01-.26-.05-.47,.12-.8,.19-1.19,.25v.68h1.63l.23-.29c.06-.07,.07-.08,.09-.08,.04,0,.08,.04,.11,.07l.29,.29s.06,.06,.06,.1c0,.06-.05,.07-.09,.07h-2.32v.63h1.01l.12-.17c.05-.06,.07-.08,.1-.08,.02,0,.04,0,.09,.05l.23,.21s.05,.05,.05,.09c0,.05-.13,.11-.19,.13,0,.44,.02,.96,.03,1.19,0,.06,.02,.3,.02,.34,0,.23-.19,.23-.23,.23-.12,0-.12-.12-.12-.18h-1.1v.62h1.27l.17-.21c.06-.07,.07-.08,.09-.08,.04,0,.11,.07,.11,.07l.23,.21s.06,.05,.06,.1c0,.06-.05,.07-.09,.07h-1.84v.71h1.73l.24-.31c.06-.07,.06-.08,.09-.08,.04,0,.08,.04,.11,.07l.3,.31s.06,.06,.06,.1c0,.06-.05,.07-.09,.07Zm-2.76-3.32h-1.04v.68h1.04v-.68Zm0,.83h-1.04v.68h1.04v-.68Zm1.42-.83h-1.1v.68h1.1v-.68Zm0,.83h-1.1v.68h1.1v-.68Z"/><path class="cls-11" d="M104.75,16.78c-1.29-.62-2-1.88-2.22-3.09h-.08c-.06,.59-.21,1.56-1.04,2.35-.59,.55-1.15,.72-1.38,.79v-.08c1.85-.91,2.02-2.44,2.08-3.06h-.95c-.21,0-.53,.03-.75,.08l-.14-.28c.44,.04,.87,.05,.97,.05h.88c.07-.78,.07-1.28,.07-1.55h-1.32c-.21,0-.53,.03-.75,.08l-.14-.28c.44,.04,.87,.04,.97,.04h3.23l.22-.33s.05-.08,.09-.08c.04,0,.08,.04,.11,.06l.33,.33s.06,.06,.06,.1c0,.06-.05,.07-.09,.07h-2.37c0,.24,0,.71-.08,1.55h1.42l.2-.32s.05-.08,.09-.08c.04,0,.1,.07,.11,.07l.32,.32s.06,.06,.06,.1c0,.07-.05,.07-.09,.07h-1.97c.19,.58,.47,1.13,.86,1.57,.5,.56,1.07,.87,1.78,1.03v.03c-.21,.09-.37,.21-.49,.46Z"/><path class="cls-11" d="M110.95,14.84h-1.54c0,.29,.01,1.53,.02,1.78,0,.04,0,.23,0,.26,0,.18-.21,.24-.27,.24-.15,0-.15-.1-.15-.17,0-.04,.01-.25,.01-.3,0-.29,.03-1.55,.04-1.81h-1.38c-.12,.75-.63,1.74-1.8,2.13l-.02-.05c1.11-.6,1.41-1.59,1.48-2.07h-.71c-.21,0-.53,.03-.75,.08l-.14-.28c.44,.04,.87,.04,.97,.04h.65c.06-.57,.05-.97,.05-1.72h-.47c-.21,0-.53,.03-.76,.08l-.14-.28c.44,.04,.87,.05,.98,.05h.39c0-.16,0-.85-.01-.99,0-.27-.02-.38-.05-.51l.53,.16s.05,.03,.05,.07-.11,.14-.17,.19c0,.12,0,.16,0,.6v.47h1.31c0-.17,0-.92,0-1.07,0-.04-.01-.2-.05-.46l.5,.14s.08,.02,.08,.08c0,.06-.09,.13-.18,.2-.01,.21-.01,.21-.01,.51v.6h.58l.2-.28c.04-.06,.06-.08,.09-.08,.03,0,.06,.03,.11,.07l.28,.28s.06,.06,.06,.1c0,.06-.05,.07-.09,.07h-1.22c0,.19-.01,1.03-.01,1.21,0,.08,0,.44,0,.51h.85l.24-.29c.06-.07,.06-.08,.09-.08,.04,0,.06,.02,.11,.07l.29,.28s.06,.06,.06,.1c0,.06-.05,.06-.09,.06Zm-1.88-1.88h-1.31c0,.66,0,1.25-.05,1.72h1.35c.01-.43,.01-.45,.01-.55,0-.16,0-.98,0-1.17Z"/></g><g><path class="cls-11" d="M80.3,34.38c-.35,.56-.7,1.12-1.09,1.63,.25,0,.59-.03,.83-.06-.09-.21-.18-.31-.23-.37v-.03c.19,.07,.36,.15,.53,.31,.08,.08,.19,.21,.19,.36,0,.07-.03,.25-.17,.25-.11,0-.18-.1-.22-.21-.04-.15-.04-.16-.07-.23-.11,.05-.26,.08-.4,.12,0,.1,0,.31,0,.59,0,.56,.04,1.46,.04,2.01,0,.06,0,.28-.22,.28-.14,0-.14-.1-.14-.14,0-.21,.04-1.16,.04-1.36,0-.24,.02-.87,.01-1.31-.2,.05-.62,.16-.77,.19-.04,.1-.08,.16-.14,.16-.03,0-.06,0-.08-.09l-.15-.53c.24,.06,.35,.08,.86,.07,.26-.44,.64-1.27,.83-1.78,.06-.16,.06-.23,.07-.34l.47,.28s.07,.05,.07,.08c0,.09-.09,.1-.24,.12Zm-1.28,2.7c-.12,.46-.36,1.04-.7,1.56l-.03-.02c.25-.74,.39-1.34,.39-1.64,0-.11-.01-.17-.03-.24l.43,.1c.07,.02,.11,.03,.11,.08,0,.08-.08,.12-.16,.16Zm.63-3.5c-.16,.32-.44,.76-.61,.99,.11,.07,.27,.18,.27,.42,0,.12-.07,.21-.18,.21-.12,0-.17-.09-.26-.29-.04-.08-.17-.3-.45-.55v-.03c.12,.02,.29,.04,.56,.19,.25-.57,.37-1.18,.37-1.27,0-.04-.01-.09-.02-.12l.48,.21c.05,.03,.08,.06,.08,.1,0,.12-.12,.12-.23,.12Zm.74,4.25c-.18,0-.22-.17-.25-.33-.06-.28-.1-.34-.28-.62l.04-.03c.19,.1,.68,.4,.68,.74,0,.12-.05,.24-.19,.24Zm2.87-2.26c-.15-.14-.45-.44-.79-.94-.26-.4-.45-.81-.53-1.12h-.08c-.52,1.18-.85,1.71-1.35,2.17l-.05-.04c.34-.46,.77-1.41,.96-2.03,.08-.25,.07-.42,.07-.53l.5,.2s.12,.05,.12,.12-.08,.1-.11,.1c.26,.6,1.07,1.4,1.79,1.68v.03c-.13,.03-.39,.11-.54,.35Zm-.56,.21h-.93c-.21,0-.53,.03-.76,.08l-.13-.29c.44,.05,.86,.05,.97,.05h.3l.16-.23c.05-.08,.07-.08,.09-.08,.04,0,.09,.04,.11,.06l.22,.23s.06,.06,.06,.1c0,.06-.05,.07-.09,.07Zm.29,1.22c-.01,.44,0,.87,.02,1.31,0,.07,.02,.34,.02,.4,0,.15-.14,.23-.23,.23-.15,0-.14-.07-.13-.38h-1.4c0,.17,.02,.4-.22,.4-.13,0-.13-.1-.13-.16,0-.03,0-.16,0-.18,.02-.48,.02-.81,.02-.96,0-.08,0-.87-.02-1.25l.39,.27h1.3l.12-.14s.06-.07,.09-.07c.02,0,.07,.05,.09,.06l.22,.2s.06,.06,.06,.1c0,.06-.02,.07-.19,.19Zm-.32-.17h-1.41v1.59h1.41v-1.59Z"/><path class="cls-11" d="M85.25,36.22c0,.28,.02,1.5,.02,1.74,0,.05,0,.28,0,.33,0,.31-.11,.44-.29,.53-.05,.02-.21,.1-.32,.12-.05-.24-.13-.35-.49-.57v-.03c.09,0,.5,.03,.59,.03,.13,0,.16-.04,.16-.22v-1.75c-.07,.04-.47,.27-.52,.29-.02,.05-.04,.08-.07,.16-.01,.03-.05,.04-.06,.04-.03,0-.04-.03-.05-.06l-.25-.52c.2,0,.26,0,.94-.24v-1.46c-.11,0-.44,.03-.66,.08l-.14-.29c.42,.04,.74,.04,.8,.05v-.77s-.02-.29-.1-.62l.51,.15s.07,.03,.07,.07c0,.07-.02,.08-.18,.2,0,.16,.01,.84,.01,.98h.19l.13-.21s.05-.08,.09-.08,.09,.05,.11,.07l.21,.21s.06,.06,.06,.1c0,.06-.05,.07-.09,.07h-.7l.02,1.34c.49-.17,.64-.24,.75-.3l.02,.02c-.17,.15-.39,.31-.77,.53Zm1.86-2.72v2.33c0,.58-.05,1.16-.21,1.72-.1,.35-.4,1-1.21,1.33v-.05c.86-.54,1.01-1.66,1.06-2.06-.12,.07-.68,.36-.79,.44-.01,.02-.02,.12-.04,.14,0,0-.03,.04-.05,.04,0,0-.05,0-.08-.07l-.23-.53s.25,.04,.29,.04c.06,0,.4-.04,.91-.16,.04-.38,.04-.43,.05-1.09-.11,0-.44,.03-.69,.08l-.13-.28c.42,.03,.74,.05,.82,.05,0-.33,0-.72-.01-1.09-.05,0-.38,.01-.64,.07l-.14-.28c.4,.04,.71,.05,.77,.05-.03-.76-.03-.78-.05-.87,0-.03-.02-.05-.07-.21l.5,.17c.06,.02,.07,.05,.07,.08,0,.05-.08,.11-.14,.16Zm2.31,3.61h-1.22c0,.28,.03,1.44,.03,1.64s-.22,.24-.26,.24c-.08,0-.13-.04-.13-.14,0-.02,0-.04,0-.07,.02-2.67,.02-2.97,.02-3.43,0-1.72-.01-1.8-.05-2.03-.02-.12-.04-.18-.06-.24l.56,.18s.05,.03,.05,.08c0,.04-.02,.07-.04,.08-.01,.01-.03,.03-.15,.13v.72h.61l.14-.21c.04-.06,.05-.08,.08-.08,.04,0,.08,.04,.11,.06l.26,.21s.06,.06,.06,.1c0,.07-.05,.07-.09,.07h-1.17v1.11h.54l.19-.25c.04-.05,.06-.08,.09-.08s.09,.05,.11,.07l.26,.25s.06,.06,.06,.1c0,.06-.05,.06-.09,.06h-1.16v.39c0,.14,.02,.75,.02,.87h.56l.22-.28c.06-.07,.06-.08,.09-.08,.04,0,.09,.05,.11,.07l.28,.28s.06,.06,.06,.1c0,.06-.05,.06-.09,.06Z"/><path class="cls-11" d="M92.1,35.26c-.12,.51-.53,1.67-1.05,2.31-.55,.68-1.05,.92-1.26,1.03l-.02-.05c1.48-1.08,1.97-3.34,2-3.52h-.8c-.21,0-.53,.03-.76,.08l-.13-.28c.44,.04,.86,.04,.97,.04h.7l.12-.14s.05-.05,.08-.05c.02,0,.05,0,.09,.05l.23,.23s.05,.05,.05,.1c0,.07-.02,.08-.21,.17Zm.69-1.76v.12s0,2.18,0,2.18v2.2c.01,.07,.02,.25,.02,.35,0,.3-.08,.54-.63,.71-.04-.14-.08-.23-.23-.36-.14-.12-.26-.2-.42-.27v-.05c.19,.03,.43,.06,.63,.06,.3,0,.3-.05,.32-.28,0-.05,0-.08,0-.13v-2.07c0-.32,0-2.4-.04-2.57-.06-.29-.07-.31-.08-.36l.55,.16s.09,.03,.09,.09c0,.05-.02,.07-.21,.22Zm2.45,4.5s-.23,.07-.4,.32c-1.11-.75-1.91-2.56-1.91-4.09h.08c.03,.44,.1,.88,.28,1.38,.18-.14,.5-.44,.76-.77,.25-.31,.27-.42,.31-.6l.49,.45s.05,.06,.05,.1c0,.09-.09,.09-.13,.09-.05,0-.12,0-.2-.02-.43,.37-.71,.58-1.26,.82,.39,1.04,1.25,2.02,2.17,2.24v.03s-.24,.05-.25,.05Z"/><path class="cls-11" d="M98.4,34h-1.16c.33,.21,.51,.33,.51,.6,0,.18-.1,.25-.19,.25-.13,0-.15-.08-.21-.29,0-.03-.09-.38-.23-.56h-.41c-.27,.36-.56,.71-.86,.92l-.02-.03c.48-.62,.95-1.53,.95-1.92l.49,.29s.04,.03,.04,.07c0,.04-.05,.09-.11,.11q-.1,.04-.16,.08c-.05,.09-.09,.16-.22,.33h1.04l.16-.19c.06-.07,.06-.08,.1-.08,.03,0,.05,.01,.11,.07l.19,.19s.06,.05,.06,.1c0,.06-.05,.07-.09,.07Zm2.58,1.61s-.18,0-.21,0c-.08,.05-.12,.07-.3,.17-.11,.06-.13,.08-.18,.12l-.02-.03c.09-.16,.09-.17,.19-.53h-3.71c-.03,.16-.22,.75-.6,.75-.05,0-.19,0-.19-.18s.12-.26,.19-.31c.33-.2,.52-.52,.54-.76l.05,.02c.02,.19,.02,.22,.02,.33h1.61c-.03-.53-.06-.59-.12-.71l.54,.14s.06,.02,.06,.07c0,.03-.01,.06-.03,.08-.04,.04-.11,.08-.15,.12,0,.09,0,.23,0,.31h1.67l.22-.16c.06-.04,.07-.06,.1-.06,.05,0,.07,.03,.08,.05l.32,.42s.01,.04,.01,.06c0,.01-.01,.13-.12,.13Zm-.96,2.31c0,.27,.01,.44,.02,.56,0,.03,.02,.2,.02,.28,0,.05-.02,.12-.06,.15-.05,.04-.13,.08-.16,.08-.12,0-.12-.1-.11-.21h-2.31c.01,.23-.25,.25-.26,.25-.07,0-.1-.07-.1-.14,0-.04,0-.23,.01-.27,0-.33,.04-1.37,.04-2,0-.25,0-.51-.03-.66-.04-.19-.04-.21-.05-.27l.4,.25h2l.14-.16s.04-.05,.06-.05c.02,0,.08,.04,.1,.05l.23,.18s.06,.05,.06,.1c0,.03-.02,.06-.04,.07-.02,.01-.14,.08-.16,.09,0,.07,.02,.75,.02,.76,0,.17-.09,.27-.25,.27-.09,0-.09-.05-.09-.21h-2.08v.58h2.26l.11-.12s.05-.06,.08-.06,.06,.03,.09,.04l.2,.16c.06,.04,.06,.06,.06,.08,0,.06-.09,.14-.19,.2Zm-.53-1.83h-2.09v.79h2.09v-.79Zm.22,1.68h-2.31v.84h2.31v-.84Zm1.22-3.76h-1.56c.22,.1,.59,.27,.59,.58,0,.12-.06,.23-.19,.23-.14,0-.16-.07-.21-.25-.09-.31-.25-.49-.32-.55h-.29c-.27,.29-.42,.38-.53,.47h-.03c.56-.78,.7-1.27,.71-1.46l.45,.3s.05,.04,.05,.06c0,.08-.03,.08-.25,.13-.08,.12-.13,.2-.26,.35h1.16l.24-.27c.06-.07,.07-.08,.09-.08,.04,0,.08,.04,.11,.06l.26,.27s.06,.06,.06,.1c0,.06-.05,.07-.09,.07Z"/><path class="cls-11" d="M103.85,33.71c0-.08-.08-.22-.35-.29,.05-.06,.09-.1,.22-.1,.22,0,.4,.16,.52,.27,.05,.06,.07,.09,.07,.16,0,.04-.02,.06-.13,.24-.08,.11-.1,.14-.28,.48,.14-.05,.31-.11,.52-.22,.18-.09,.22-.11,.29-.11,.06,0,.31,.07,.31,.17,0,.08-.11,.13-.12,.14-.13,.06-.23,.09-1.15,.34-.13,.27-.72,1.64-.78,1.75-.08,.14-.41,.8-.45,.83-.04,.05-.09,.05-.1,.05-.04,0-.11-.03-.11-.2s.05-.25,.17-.42c.22-.3,.48-.86,.69-1.31,.1-.21,.22-.49,.28-.63-.23,.06-.4,.1-.6,.1-.52,0-.57-.41-.59-.51,.18,.19,.32,.24,.52,.24,.23,0,.56-.07,.79-.12,0-.02,.28-.72,.28-.85Zm1.52,1.27c.67,0,1.17,.64,1.17,.92,0,.09-.06,.13-.12,.13-.05,0-.12-.04-.15-.05-.16-.1-.23-.14-.45-.14-.24,0-.55,.07-.7,.24-.07,.08-.12,.2-.12,.42,0,.17,.07,.82,.09,1,.56,.14,1.11,.44,1.11,.77,0,.12-.06,.18-.13,.18-.04,0-.09-.03-.13-.06-.49-.39-.57-.46-.83-.55-.02,.85-.79,.9-.93,.9-.44,0-.84-.27-.84-.64,0-.44,.51-.69,1.06-.69,.15,0,.26,.01,.36,.03-.03-.53-.03-.58-.03-.72,0-.67,.37-.87,1.01-1.07,.05-.01,.12-.03,.12-.12,0-.07-.14-.18-.22-.24-.13-.09-.26-.15-.59-.27,.09-.03,.18-.05,.31-.05Zm-.99,2.7c-.22,0-.81,.08-.81,.43,0,.27,.36,.32,.53,.32,.19,0,.72-.08,.7-.68-.08-.03-.22-.07-.42-.07Z"/><path class="cls-11" d="M111.11,35.08c.08-.03,.12-.06,.12-.16,0-.08-.02-.12-.04-.16,.24-.05,.44,.25,.44,.48,0,.12-.07,.15-.16,.16-.48,.05-1.1,.36-1.27,.44-1.2,.6-1.42,1.27-1.42,1.56,0,.7,.86,.74,1.18,.74,.18,0,.83-.03,1.3-.13,.17-.03,.21-.04,.27-.04,.15,0,.35,.06,.35,.2,0,.29-.98,.29-1.51,.29-.63,0-1.04,0-1.43-.32-.17-.14-.33-.38-.33-.75,0-.71,.69-1.27,1.12-1.58-.26-.38-.26-.51-.28-1.58-.01-.62-.11-.74-.41-.92,.03-.03,.08-.08,.22-.08,.19,0,.57,.27,.57,.4,0,.06-.02,.18-.03,.18-.07,.31-.07,.6-.07,.77,0,.65,.13,.94,.19,1.09,.5-.33,.67-.39,1.19-.6Zm.9-.68c.49,.16,.6,.34,.6,.61,0,.06-.02,.08-.06,.08-.05,0-.06,0-.26-.2-.32-.32-.5-.42-.74-.56,.11,0,.23-.01,.46,.07Zm.13-.72c.42,0,.82,.28,.82,.64,0,.03,0,.12-.06,.12-.03,0-.1-.06-.19-.15-.4-.37-.46-.42-.79-.58,.08-.02,.14-.03,.22-.03Z"/></g><g><path class="cls-11" d="M97.38,58.58l.3-.39c.06-.07,.08-.08,.11-.08s.05,.02,.1,.08l.36,.4s.05,.06,.05,.1c0,.06-.05,.07-.09,.07h-4.16c-.21,0-.53,.03-.76,.07l-.14-.3c.5,.05,.95,.05,.98,.05h3.25Zm-.4-3.74l.26-.33s.06-.08,.1-.08c.03,0,.06,.03,.1,.08l.29,.34s.05,.07,.05,.1c0,.06-.05,.07-.09,.07h-3.3c-.21,0-.53,.03-.76,.07l-.13-.3c.5,.05,.94,.05,.97,.05h2.5Z"/><path class="cls-11" d="M104.2,59.41h-4.38c-.21,0-.53,.03-.76,.07l-.14-.28c.44,.04,.87,.05,.98,.05h1.54v-.71h-1.04c-.21,0-.53,.03-.76,.07l-.13-.28c.44,.04,.86,.05,.97,.05h.96v-.62h-1.04c.01,.13,.02,.29-.24,.29-.06,0-.13-.04-.13-.1,0,0,0-.09,.01-.14,.04-.44,.04-1.12,.04-1.23,0-.38,0-.6-.05-.92l.46,.28h.95v-.63h-1.47c-.21,0-.53,.03-.76,.08l-.13-.28c.44,.04,.86,.05,.97,.05h1.39v-.64c-.49,.06-1.05,.14-2.07,.12v-.08c.68-.08,1.35-.2,2.03-.34,.14-.03,1.04-.21,1.44-.46l.4,.36s.04,.07,.04,.09c0,.04-.05,.05-.07,.05-.06,0-.13-.01-.26-.05-.47,.12-.8,.19-1.19,.25v.68h1.63l.23-.29c.06-.07,.07-.08,.09-.08,.04,0,.08,.04,.11,.07l.29,.29s.06,.06,.06,.1c0,.06-.05,.07-.09,.07h-2.32v.63h1.01l.12-.17c.05-.06,.07-.08,.1-.08,.02,0,.04,0,.09,.05l.23,.21s.05,.05,.05,.09c0,.05-.13,.11-.19,.13,0,.44,.02,.96,.03,1.19,0,.06,.02,.3,.02,.34,0,.23-.19,.23-.23,.23-.12,0-.12-.12-.12-.18h-1.1v.62h1.27l.17-.21c.06-.07,.07-.08,.09-.08,.04,0,.11,.07,.11,.07l.23,.21s.06,.05,.06,.1c0,.06-.05,.07-.09,.07h-1.84v.71h1.73l.24-.31c.06-.07,.06-.08,.09-.08,.04,0,.08,.04,.11,.07l.3,.31s.06,.06,.06,.1c0,.06-.05,.07-.09,.07Zm-2.76-3.32h-1.04v.68h1.04v-.68Zm0,.83h-1.04v.68h1.04v-.68Zm1.42-.83h-1.1v.68h1.1v-.68Zm0,.83h-1.1v.68h1.1v-.68Z"/><path class="cls-11" d="M109.83,54.88h-4.15c.01,.71,0,1.61-.03,2.32-.05,1.08-.35,1.62-.84,2.27l-.04-.02c.08-.14,.22-.4,.36-.93,.16-.63,.23-1.09,.23-2.12,0-.65-.02-1.53-.06-1.89l.42,.21h1.55c0-.42,0-.63-.11-.97l.51,.12s.08,.03,.08,.08c0,.04-.02,.06-.17,.2-.01,.18-.01,.22-.01,.57h1.51l.2-.34c.04-.06,.05-.08,.08-.08s.04,0,.11,.08l.38,.33s.06,.05,.06,.1c0,.06-.05,.07-.09,.07Zm-.23,4.09c-.83-.53-1.6-1.83-1.77-2.63h-.01c0,1.78,0,1.98,.02,2.66,0,.07,.03,.4,.03,.47,0,.21-.2,.25-.25,.25-.1,0-.12-.07-.12-.25s.04-2.32,.04-2.67c-.3,.75-.96,1.8-1.92,2.44l-.03-.05c.46-.42,1.31-1.55,1.79-2.87h-.62c-.12,0-.47,.02-.75,.08l-.14-.28c.3,.03,.67,.04,.97,.04h.68c0-.51-.01-.86-.1-1.08l.47,.14s.08,.03,.08,.08c0,.07-.06,.11-.17,.16v.7h1.36l.23-.32s.06-.08,.09-.08c.04,0,.08,.03,.11,.07l.38,.33s.06,.05,.06,.1c0,.07-.06,.07-.09,.07h-2.06c.49,1.05,1.31,2.03,2.26,2.24v.04c-.37,.05-.47,.17-.56,.34Z"/></g><g><path class="cls-11" d="M1.02,84.91h1.2v.22H.8v-5.02h1.42v.22H1.02v4.58Z"/><path class="cls-11" d="M4.39,81.55h-.55v.52c.28,.04,.56,.27,.56,.46,0,.11-.08,.17-.15,.17-.08,0-.1-.03-.21-.27-.1-.22-.16-.27-.2-.31,0,.45,0,2.81,0,2.82-.01,.13-.17,.16-.21,.16-.11,0-.11-.06-.11-.09,0,0,0-.04,0-.08,.04-.56,.07-1.74,.07-2.35v-.09c-.2,.6-.46,1.06-.81,1.4l-.04-.03c.36-.58,.73-1.64,.8-2.3-.03,0-.33,.02-.54,.06l-.14-.25c.24,.02,.29,.02,.72,.04-.01-.42-.02-.95-.11-1.25l.48,.13s.06,.02,.06,.07c0,.03-.03,.06-.07,.08-.04,.02-.07,.05-.11,.08v.08s0,.82,0,.82h.19l.09-.11c.04-.06,.06-.07,.08-.07,.02,0,.04,.02,.1,.07l.12,.1s.06,.05,.06,.08c0,.05-.05,.06-.08,.06Zm1.41-.9s-.1,.06-.11,.07c0,.17,0,1.09,.01,1.5,0,.03,.02,.19,.02,.23,0,.16-.18,.2-.21,.2-.08,0-.08-.04-.07-.19h-.61v1.34s.24-.14,.61-.38c-.03-.07-.1-.29-.22-.45l.03-.02c.06,.04,.33,.25,.38,.29,.19,.18,.21,.34,.21,.42,0,.12-.07,.19-.16,.19s-.15-.06-.18-.23c-.02-.07-.03-.12-.04-.16-.15,.15-.81,.79-.95,.91,0,.08,.01,.15-.04,.15,0,0-.04,0-.07-.04l-.28-.35c.12-.02,.16-.04,.43-.18v-2.14c0-.25,0-1.16-.01-1.35,0-.06-.02-.12-.03-.2l.36,.21h.54l.08-.09s.06-.05,.08-.05,.04,.01,.06,.03l.19,.16s.03,.04,.03,.06c0,.03-.03,.05-.05,.07Zm-.37-.04h-.61v.78h.61v-.78Zm0,.91h-.61v.81h.61v-.81Zm2.39,3.31c-.13,.03-.36,.03-.5,.03-.38,0-.49-.03-.49-.41,0-.09,0-.51,0-.6,0-.18,0-.28,0-1.1-.17,.54-.67,1.77-1.68,2.25l-.02-.03c.69-.55,1.26-1.58,1.51-2.47-.13,0-.44,.02-.67,.07l-.14-.24c.21,.01,.23,.02,.31,.02v-1.56s-.03,0-.08,.02l-.13-.24c.42,.03,.83,.04,.94,.04h.46l.11-.13c.06-.06,.06-.07,.08-.07,.03,0,.09,.04,.11,.06l.17,.13s.06,.05,.06,.08c0,.06-.05,.06-.08,.06h-.62c-.05,.89-.15,1.3-.22,1.63h.46l.12-.17s.06-.07,.09-.07,.06,.03,.1,.06l.18,.17s.06,.05,.06,.09c0,.05-.05,.06-.08,.06h-.96c-.02,.08-.02,.08-.03,.1l.3,.09c.07,.02,.08,.04,.08,.06,0,.07-.15,.13-.16,.13,0,1.19,0,1.42,0,1.46,0,.16,.04,.22,.19,.22,.26,0,.31,0,.36-.12,.04-.08,.12-.45,.15-.62h.06c.06,.55,.07,.64,.12,.67,.07,.06,.08,.07,.08,.11,0,.12-.18,.18-.27,.2Zm-1.03-4.09c-.08,0-.14,0-.38,.02v1.6c.07,0,.14,0,.27,0,.07-.31,.16-.68,.2-1.63h-.08Z"/><path class="cls-11" d="M13.36,82.38c-1.1-.56-1.7-1.07-2.12-1.97h-.03c-.71,1.06-1.77,1.98-2.68,2.38l-.03-.03c.93-.65,1.76-1.6,2.28-2.41,.11-.17,.12-.22,.12-.32l.47,.18s.06,.04,.06,.08c0,.06-.05,.09-.11,.11,.43,.68,1.07,1.28,2.54,1.61v.02c-.26,.04-.49,.28-.51,.35Zm-3.91,2.28c-.09,.16-.22,.23-.31,.23-.12,0-.21-.08-.21-.18,0-.08,.06-.16,.12-.23,.18-.21,.36-.44,.42-.77h.04c.01,.08,.03,.21,.03,.43,0,.19-.02,.39-.1,.52Zm2.65-1.85c-.05,.07-.1,.12-.2,.33-.14,.31-.2,.33-.32,.33-.07,0-.19-.02-.19-.09,0-.06,.38-.63,.44-.75h-1.29c-.2,0-.51,.02-.73,.06l-.13-.24c.42,.03,.83,.04,.94,.04h1.14l.2-.12s.06-.03,.07-.03c.03,0,.05,.03,.07,.05l.24,.24s.03,.05,.03,.07c0,.07-.17,.09-.27,.11Zm.17,2.13c-.23,.09-.48,.09-1.11,.09-.58,0-.93,0-.95-.32-.02-.3,.02-.79-.05-1.08l.4,.11c.05,.01,.07,.03,.07,.06,0,.07-.08,.11-.13,.13,0,.09,0,.51,0,.59,.02,.17,.05,.25,.25,.25,.97,0,1.12,0,1.28-.11,.09-.07,.13-.12,.19-.4,.05-.21,.06-.31,.07-.37h.03c.02,.09,.08,.52,.11,.61,.02,.04,.02,.05,.08,.11,.03,.03,.04,.04,.04,.07,0,.06-.12,.2-.28,.26Zm-.49-3.07h-.63c-.2,0-.51,.02-.72,.06l-.14-.24c.4,.03,.8,.04,.96,.04l.14-.18s.06-.07,.08-.07c.03,0,.1,.05,.11,.06l.23,.18s.06,.04,.06,.08c0,.05-.04,.06-.08,.06Zm-.48,2.3c-.1,0-.17-.12-.22-.2-.16-.29-.18-.33-.38-.58v-.02c.33,.13,.43,.17,.54,.25,.12,.09,.24,.23,.24,.33,0,.13-.08,.22-.18,.22Zm2,.5c-.11,0-.18-.11-.21-.2-.12-.42-.16-.56-.4-.85l.02-.03c.2,.12,.49,.29,.59,.41,.19,.21,.2,.39,.2,.44,0,.17-.13,.23-.2,.23Z"/><path class="cls-11" d="M19.04,80.73c0,.32,.02,2.44,.03,3.35,0,.11,.02,.58,.02,.68,0,.19-.18,.23-.24,.23-.14,0-.13-.08-.12-.24h-3.7c0,.17,.01,.35-.26,.35-.09,0-.1-.06-.1-.11,0-.13,.02-.68,.02-.8,.03-1.36,.03-1.65,.03-2.11,0-.62-.01-1.24-.08-1.86l.41,.2h3.62l.12-.12s.04-.06,.08-.06c.02,0,.05,.02,.08,.04l.24,.17s.04,.03,.04,.07c0,.07-.03,.11-.22,.21Zm-.29-.18h-3.71v4.06h3.71v-4.06Zm-.67,.72c-.32,.95-.68,1.44-.93,1.78,.33,.16,1.1,.56,1.1,.88,0,.11-.07,.21-.18,.21-.07,0-.08-.02-.18-.11-.23-.26-.52-.51-.91-.76-.41,.48-.9,.9-1.49,1.13v-.03c.73-.53,1.09-.97,1.29-1.22-.55-.32-.96-.42-1.24-.48v-.05c.56,.06,1.02,.19,1.38,.34,.54-.74,.87-1.8,.87-1.99,0-.03,0-.05-.01-.09l.46,.19s.07,.03,.07,.06c0,.08-.18,.13-.23,.14Zm-2.01,.97c-.15,0-.17-.11-.23-.4-.03-.16-.1-.42-.28-.65l.03-.03c.4,.21,.66,.74,.66,.87,0,.12-.09,.21-.19,.21Zm.84-.25c-.14,0-.16-.07-.23-.36-.06-.28-.27-.56-.35-.66l.02-.03c.39,.17,.75,.52,.75,.82,0,.04,0,.23-.19,.23Z"/><path class="cls-11" d="M21.3,80.33h-1.2v-.22h1.42v5.02h-1.42v-.22h1.2v-4.58Z"/></g><line class="cls-4" x1="22.96" y1=".09" x2="19.18" y2="12.03"/><line class="cls-4" x1="23.85" y1=".09" x2="20.07" y2="12.03"/><line class="cls-4" x1="24.74" y1=".09" x2="20.96" y2="12.03"/><line class="cls-4" x1="22.96" y1="62.46" x2="19.18" y2="74.41"/><line class="cls-4" x1="23.85" y1="62.46" x2="20.07" y2="74.41"/><line class="cls-4" x1="24.74" y1="62.46" x2="20.96" y2="74.41"/><line class="cls-4" x1="50.04" y1=".16" x2="46.26" y2="12.1"/><line class="cls-4" x1="50.93" y1=".16" x2="47.15" y2="12.1"/><line class="cls-4" x1="51.82" y1=".16" x2="48.04" y2="12.1"/><line class="cls-4" x1="50.04" y1="62.53" x2="46.26" y2="74.48"/><line class="cls-4" x1="50.93" y1="62.53" x2="47.15" y2="74.48"/><line class="cls-4" x1="51.82" y1="62.53" x2="48.04" y2="74.48"/><rect class="cls-9" x="15.19" y="13.96" width="1.54" height=".78"/><rect class="cls-9" x="54.84" y="14" width="1.54" height=".78"/><line class="cls-4" x1="80.5" y1="69.02" x2="71.16" y2="69.02"/></g></g></svg>