<?xml version="1.0" encoding="UTF-8"?><svg id="Layer_2" xmlns="http://www.w3.org/2000/svg" viewBox="0 0 119.65 84.8"><defs><style>.cls-1{stroke-width:.86px;}.cls-1,.cls-2,.cls-3{fill:none;}.cls-1,.cls-3{stroke:#948562;}.cls-4,.cls-5,.cls-6{fill:#a6afb3;}.cls-7{fill:#231f20;}.cls-8,.cls-9,.cls-5,.cls-10{stroke-width:.78px;}.cls-8,.cls-9,.cls-5,.cls-10,.cls-6,.cls-11,.cls-12,.cls-13{stroke:#4d4d4d;stroke-linejoin:bevel;}.cls-8,.cls-13{fill:#98a3a7;}.cls-9,.cls-12{fill:#afb8bc;}.cls-10,.cls-11{fill:#c4c9cc;}.cls-6,.cls-11,.cls-12,.cls-13{stroke-width:.43px;}.cls-2{stroke:#905501;stroke-linecap:round;}.cls-2,.cls-3{stroke-width:1.41px;}</style></defs><g id="_情報"><g><g><path class="cls-7" d="M96.24,84.57h1.22v.23h-1.45v-5.15h1.45v.23h-1.22v4.69Z"/><path class="cls-7" d="M99.69,81.13h-.57v.53c.28,.05,.57,.27,.57,.47,0,.11-.08,.17-.15,.17-.09,0-.1-.03-.21-.27-.1-.23-.17-.28-.21-.31,0,.46,0,2.88,0,2.89-.01,.14-.17,.16-.22,.16-.11,0-.11-.06-.11-.09,0,0,0-.04,0-.08,.05-.57,.07-1.79,.07-2.41v-.1c-.21,.61-.47,1.09-.82,1.44l-.04-.03c.36-.59,.75-1.68,.82-2.36-.03,0-.33,.02-.55,.06l-.14-.25c.25,.02,.3,.02,.73,.04-.01-.43-.02-.98-.12-1.28l.49,.14s.06,.02,.06,.07c0,.03-.03,.06-.07,.08-.04,.02-.08,.05-.11,.08v.08s0,.84,0,.84h.19l.09-.11c.05-.06,.06-.07,.09-.07,.02,0,.04,.02,.1,.07l.12,.1s.06,.05,.06,.09c0,.05-.05,.06-.09,.06Zm1.44-.92s-.1,.06-.12,.07c0,.18,0,1.11,.01,1.54,0,.03,.02,.2,.02,.23,0,.17-.18,.2-.21,.2-.08,0-.08-.04-.08-.19h-.62v1.38s.25-.14,.62-.39c-.03-.07-.1-.3-.22-.46l.03-.02c.06,.05,.33,.26,.39,.3,.19,.18,.22,.35,.22,.43,0,.12-.07,.19-.17,.19s-.15-.06-.18-.23c-.02-.07-.03-.13-.04-.17-.16,.15-.83,.8-.97,.94,0,.09,.01,.15-.05,.15,0,0-.04,0-.07-.04l-.28-.36c.12-.02,.16-.04,.44-.19v-2.19c0-.25,0-1.19-.01-1.39,0-.06-.02-.13-.03-.21l.36,.21h.55l.09-.09s.06-.05,.08-.05,.04,.01,.06,.03l.2,.17s.03,.05,.03,.06c0,.03-.03,.05-.05,.07Zm-.38-.05h-.62v.8h.62v-.8Zm0,.94h-.62v.83h.62v-.83Zm2.45,3.39c-.13,.03-.37,.03-.51,.03-.39,0-.5-.03-.5-.42,0-.1,0-.53,0-.61,0-.19,0-.29,0-1.12-.18,.55-.68,1.82-1.71,2.31l-.02-.03c.71-.56,1.29-1.62,1.54-2.53-.13,0-.45,.02-.68,.07l-.14-.25c.21,.01,.24,.02,.32,.02v-1.6s-.03,0-.09,.02l-.13-.25c.43,.03,.85,.04,.96,.04h.47l.12-.13c.06-.06,.06-.07,.09-.07,.03,0,.09,.05,.11,.06l.17,.13s.06,.05,.06,.09c0,.06-.05,.06-.09,.06h-.63c-.05,.91-.15,1.34-.23,1.67h.47l.13-.17c.04-.05,.06-.07,.09-.07s.06,.03,.1,.06l.18,.17s.06,.05,.06,.09c0,.05-.05,.06-.09,.06h-.98c-.02,.08-.02,.08-.03,.1l.31,.1c.07,.02,.09,.04,.09,.06,0,.07-.15,.13-.16,.14,0,1.21,0,1.46,0,1.5,0,.17,.04,.23,.2,.23,.27,0,.32,0,.37-.12,.04-.08,.13-.46,.16-.63h.06c.06,.56,.07,.65,.13,.69,.07,.06,.09,.07,.09,.11,0,.12-.18,.19-.28,.21Zm-1.05-4.19c-.08,0-.14,0-.39,.02v1.64c.07,0,.14,0,.27,0,.07-.31,.16-.7,.2-1.67h-.08Z"/><path class="cls-7" d="M108.86,81.98c-1.12-.57-1.74-1.1-2.16-2.01h-.03c-.73,1.09-1.81,2.03-2.73,2.44l-.03-.03c.95-.67,1.79-1.64,2.33-2.47,.12-.18,.12-.23,.13-.33l.48,.19s.06,.04,.06,.08c0,.06-.05,.09-.11,.11,.44,.7,1.1,1.31,2.6,1.65v.02c-.27,.05-.5,.29-.52,.36Zm-4,2.33c-.09,.17-.22,.24-.32,.24-.12,0-.21-.08-.21-.18,0-.08,.06-.17,.13-.24,.18-.22,.37-.45,.43-.79h.04c.01,.08,.03,.21,.03,.44,0,.19-.02,.4-.1,.54Zm2.71-1.89c-.05,.07-.1,.12-.2,.34-.14,.31-.2,.34-.33,.34-.08,0-.2-.02-.2-.09,0-.06,.39-.64,.45-.77h-1.32c-.2,0-.52,.02-.74,.06l-.13-.25c.43,.03,.85,.05,.96,.05h1.17l.2-.13s.06-.03,.07-.03c.03,0,.05,.03,.08,.05l.25,.25s.03,.05,.03,.07c0,.07-.18,.1-.28,.11Zm.17,2.19c-.23,.09-.49,.1-1.14,.1-.59,0-.95,0-.98-.33-.02-.31,.02-.8-.05-1.1l.41,.11c.05,.01,.07,.03,.07,.06,0,.07-.09,.11-.13,.14,0,.1,0,.52,0,.61,.02,.18,.05,.25,.26,.25,.99,0,1.14,0,1.3-.11,.09-.07,.13-.12,.19-.41,.05-.21,.06-.32,.07-.38h.03c.02,.1,.09,.54,.12,.62,.02,.05,.02,.05,.08,.11,.03,.03,.05,.05,.05,.07,0,.06-.13,.2-.29,.26Zm-.5-3.14h-.65c-.2,0-.52,.02-.74,.06l-.14-.25c.41,.03,.81,.05,.98,.05l.14-.18s.06-.07,.09-.07c.03,0,.1,.05,.11,.06l.23,.18s.06,.05,.06,.09c0,.05-.05,.06-.09,.06Zm-.49,2.36c-.1,0-.18-.12-.23-.2-.17-.3-.18-.34-.39-.59v-.02c.33,.13,.44,.17,.55,.26,.13,.1,.24,.24,.24,.34,0,.13-.08,.22-.18,.22Zm2.04,.51c-.12,0-.18-.11-.21-.21-.13-.43-.17-.58-.4-.87l.02-.03c.21,.12,.5,.3,.6,.42,.19,.22,.21,.4,.21,.45,0,.18-.13,.23-.21,.23Z"/><path class="cls-7" d="M114.67,80.29c0,.33,.02,2.5,.03,3.43,0,.11,.02,.6,.02,.7,0,.19-.18,.23-.24,.23-.14,0-.13-.08-.12-.25h-3.78c0,.18,.01,.36-.27,.36-.09,0-.1-.06-.1-.11,0-.13,.02-.7,.02-.82,.03-1.4,.03-1.69,.03-2.16,0-.63-.01-1.27-.08-1.91l.42,.21h3.7l.12-.12s.05-.06,.09-.06c.02,0,.05,.02,.09,.05l.25,.17s.05,.03,.05,.07c0,.07-.03,.11-.23,.21Zm-.3-.18h-3.79v4.16h3.79v-4.16Zm-.68,.74c-.32,.98-.69,1.48-.95,1.83,.34,.17,1.12,.57,1.12,.9,0,.11-.07,.22-.18,.22-.07,0-.09-.02-.18-.11-.24-.26-.54-.52-.93-.78-.42,.49-.92,.92-1.52,1.16v-.03c.74-.54,1.11-.99,1.32-1.25-.56-.33-.98-.43-1.27-.5v-.05c.57,.06,1.04,.19,1.41,.35,.55-.76,.89-1.85,.89-2.04,0-.03,0-.05-.01-.09l.47,.19s.07,.03,.07,.06c0,.08-.18,.14-.24,.15Zm-2.05,1c-.16,0-.17-.11-.23-.41-.03-.16-.1-.43-.28-.66l.03-.03c.4,.21,.67,.75,.67,.9,0,.13-.09,.21-.19,.21Zm.85-.25c-.14,0-.16-.07-.23-.37-.06-.29-.27-.58-.36-.67l.02-.03c.4,.18,.76,.53,.76,.84,0,.04,0,.23-.19,.23Z"/><path class="cls-7" d="M116.99,79.88h-1.22v-.23h1.45v5.15h-1.45v-.23h1.22v-4.69Z"/></g><g><path class="cls-7" d="M.49,55.17c.41,0,.96,.15,.96,.54,0,.02,0,.13-.11,.13-.07,0-.12-.04-.23-.12-.47-.32-.75-.42-1.04-.51,.14-.03,.25-.04,.41-.04Zm.48-1.2c.55,0,1.01,.2,1.01,.54,0,.1-.05,.18-.13,.18-.05,0-.1-.03-.2-.13-.44-.39-.8-.51-.98-.57,.12-.01,.19-.02,.3-.02Zm3.28,1.04c-.35,.77-1.43,1.88-2.56,2.62-.15,.1-.2,.14-.4,.33-.03,.03-.06,.04-.08,.04-.15,0-.38-.27-.4-.3-.12-.14-.13-.35-.12-.53,.12,.17,.34,.35,.44,.35,.33,0,2.07-1.31,3.09-2.54l.03,.02Z"/><path class="cls-7" d="M6.24,54.81s-.03,.19-.19,.19c-.1,0-.15-.04-.32-.21-.31-.3-.59-.44-.9-.59,.68-.01,1.41,.27,1.41,.62Zm2.33-.09c-.42,.81-1.07,1.47-1.79,2.04-.26,.2-.48,.36-.77,.56-.16,.11-.18,.13-.36,.34-.04,.04-.08,.08-.15,.08-.19,0-.53-.42-.53-.65,0-.09,.04-.17,.08-.23,.1,.23,.25,.35,.36,.35,.18,0,.7-.36,.91-.51,1.21-.87,1.59-1.28,2.22-1.99l.03,.02Z"/><path class="cls-7" d="M9,58.16c.65-.28,1.37-.93,1.77-1.4,.71-.82,1.11-1.79,1.11-1.81,0-.01,0-.03-.04-.03-.08,0-.87,.12-.97,.12-.12,0-.23-.03-.34-.1-.54,.71-.91,1.08-1.52,1.36l-.02-.03c.9-.73,1.5-1.86,1.5-2.03,0-.14-.26-.25-.33-.28,.07-.02,.17-.05,.26-.05,.21,0,.58,.21,.58,.35,0,.04-.01,.06-.1,.15-.05,.06-.25,.36-.29,.42,.04,0,.11,.01,.21,.01,.35,0,.96-.07,1.06-.16,.02-.02,.1-.09,.11-.1,.02-.01,.03-.02,.05-.02,.05,0,.28,.19,.34,.25,.07,.06,.1,.09,.1,.13,0,.07-.06,.09-.2,.15-.07,.03-.12,.13-.19,.25-.45,.87-1.3,2.35-3.09,2.87v-.04Zm3.89-3.66c0,.09-.05,.14-.13,.14-.07,0-.08-.02-.27-.21-.22-.23-.35-.34-.54-.49,.38,.05,.94,.25,.94,.56Zm.55-.24c0,.08-.03,.12-.1,.12-.06,0-.13-.05-.21-.12-.34-.29-.42-.37-.71-.5,.29,.02,1.01,.05,1.01,.5Z"/><path class="cls-7" d="M13.74,57.89c.34-.29,.6-.66,.78-1.05,.28-.61,.29-1.13,.29-1.58s0-.51-.4-.6c.06-.06,.15-.14,.28-.14,.17,0,.49,.14,.49,.27,0,.03-.04,.18-.04,.21,0,.08-.01,.45-.02,.52-.03,.54-.11,1.18-.58,1.78-.17,.22-.43,.49-.78,.63l-.03-.04Zm4.56-2.56c-.3,.77-.92,1.36-1.56,1.87-.06,.05-.36,.25-.41,.3-.14,.18-.16,.2-.21,.2-.11,0-.32-.4-.32-.45,0-.03,.05-.19,.06-.21,.04-.2,.04-.5,.04-1.24,0-.23,0-1.08-.03-1.27-.02-.12-.04-.19-.38-.33,.06-.03,.15-.1,.26-.1,.15,0,.38,.14,.49,.23,.03,.02,.06,.06,.06,.11,0,.03-.04,.17-.05,.19-.02,.08-.05,.24-.06,.41-.02,.36-.03,1.57-.03,1.98,0,.08,0,.09,.02,.09,.07,0,1.1-.5,2.08-1.83l.04,.03Z"/><path class="cls-7" d="M21.31,53.96h-.89v.71h.39l.11-.09s.07-.06,.09-.06,.05,.03,.08,.06l.13,.13c.05,.05,.08,.08,.08,.12,0,.03-.02,.04-.19,.14,0,.03,0,1.08,0,1.28v.39c0,.22,.01,.52,.01,.67,0,.22,.02,.55,.02,.66,0,.06,0,.24-.24,.24-.05,0-.11-.01-.11-.14,0-.02,.01-.14,.01-.17h-1.55c.01,.27,.03,.48-.21,.48-.11,0-.13-.06-.13-.13,0-.04,.02-.22,.02-.26,.03-.44,.04-2.06,.04-2.59,0-.61,0-.65-.06-.91l.35,.2h.38c0-.38,0-.48,0-.71-.25,0-.54,.02-.75,.07l-.13-.24c.31,.02,.62,.04,.93,.04h1.04l.18-.21s.06-.07,.09-.07c.03,0,.06,.02,.1,.06l.22,.21s.06,.05,.06,.09c0,.05-.04,.06-.08,.06Zm-.5,2.04c-.1,.08-.28,.08-.34,.08-.3,0-.31-.09-.31-.2,0-.17,0-.93,0-1.08h-.26c-.02,.54-.04,1.07-.64,1.5v.38h1.55v-.68Zm-1.55-1.2v1.4c.35-.39,.38-1,.39-1.4h-.39Zm1.55,2.01h-1.55v.94h1.55v-.94Zm-.64-2.86h-.24c0,.12-.02,.63-.02,.71h.26v-.71Zm.64,.84h-.39c0,.15,0,.78,0,.92,0,.07,.02,.07,.11,.07,.11,0,.11,0,.13-.18h.04c.03,.07,.04,.08,.12,.18v-.98Zm2.78,3.21c-.22,.12-.59,.12-.9,.12-.22,0-.64,0-.84-.06-.25-.07-.25-.15-.25-.64,0-.22,.02-1.21,.02-1.41,0-.54-.03-.66-.05-.76l.41,.23h1.05c0-.49,.01-.59,.01-1.53h-.61c-.18,0-.49,.02-.72,.07l-.13-.24c.31,.02,.62,.04,.93,.04h.46l.13-.15s.05-.06,.08-.06c.02,0,.05,.02,.09,.05l.22,.19s.04,.04,.04,.07c0,.04-.04,.06-.08,.08-.01,0-.07,.04-.1,.06-.03,.44,.01,1.14,.01,1.57,0,.04,0,.1-.05,.14-.06,.05-.15,.08-.2,.08-.1,0-.1-.1-.09-.23h-1.11c-.01,.13-.03,1.19-.03,1.42,0,.12,0,.63,.03,.69,.05,.09,.56,.09,.67,.09,.7,0,.73-.08,.78-.25,.08-.23,.09-.35,.12-.62h.06c.02,.22,.05,.47,.12,.61,.03,.05,.12,.15,.12,.2,0,.11-.12,.2-.22,.25Z"/><path class="cls-7" d="M26.56,54.41h-.99c.23,.15,.26,.17,.29,.19,.15,.13,.18,.28,.18,.33,0,.11-.07,.19-.2,.19s-.12-.02-.19-.35c-.02-.09-.08-.26-.17-.36h-.39c-.26,.3-.49,.56-.79,.78l-.03-.02c.55-.7,.78-1.09,.94-1.45,.07-.15,.07-.23,.07-.35l.44,.25s.04,.04,.04,.07c0,.07-.02,.07-.21,.1-.08,.12-.15,.23-.36,.49h.88l.13-.15c.06-.07,.08-.07,.09-.07,.03,0,.07,.03,.1,.05l.18,.16s.05,.06,.05,.08c0,.05-.04,.06-.08,.06Zm-.26,1.2v2.21c0,.21,0,.52-.55,.62-.02-.14-.13-.32-.34-.44v-.03c.12,.02,.22,.03,.44,.03,.15,0,.16-.07,.16-.19v-.76h-.9c-.03,.26-.11,.9-.82,1.42h-.01c.6-.79,.6-1.5,.6-2.07,0-.36-.01-.94-.03-1.05-.03-.15-.03-.17-.03-.21l.39,.24h.76l.08-.1s.06-.07,.09-.07,.06,.02,.08,.03l.19,.14s.06,.04,.06,.07c0,.05-.03,.08-.16,.15Zm-.29,.68h-.85c-.01,.35-.02,.54-.03,.64h.88v-.64Zm0-.77h-.85c0,.24,0,.44,0,.64h.85v-.64Zm3,.65c-.01,.58-.06,1.63-.27,1.93-.23,.31-.64,.36-.68,.37-.02-.1-.03-.15-.1-.24-.03-.05-.15-.2-.32-.3l.02-.03c.05,.02,.06,.02,.15,.05,.19,.07,.38,.07,.44,.07,.19,0,.29-.04,.38-.56,.08-.47,.1-.94,.09-1.42h-.96c-.05,.6-.18,1.93-1.38,2.45l-.02-.03c.47-.3,1.02-1.09,1.1-2.42-.18,0-.5,.02-.72,.07l-.13-.24c.39,.03,.69,.04,.86,.04,.01-.29-.01-.53-.02-.57-.01-.18-.03-.21-.07-.29l.51,.15c.05,.02,.07,.02,.07,.08s-.09,.13-.17,.19c0,.18,0,.28-.02,.43h.88l.12-.13c.05-.05,.06-.05,.08-.05,0,0,.04,0,.07,.03l.21,.18s.06,.05,.06,.08c0,.04-.13,.14-.17,.17Zm.22-1.76h-1.6c.13,.04,.64,.2,.64,.48,0,.04-.01,.18-.18,.18-.11,0-.12-.03-.27-.3-.1-.18-.23-.29-.35-.36h-.37c-.13,.16-.39,.46-.7,.7l-.02-.02c.38-.52,.7-1.08,.82-1.38,.06-.14,.06-.28,.06-.33l.47,.24s.03,.07,.03,.08c0,.05,0,.09-.24,.13-.08,.12-.15,.23-.32,.45h1.38l.23-.22c.06-.06,.07-.07,.09-.07,.04,0,.09,.05,.1,.06l.24,.21s.06,.05,.06,.08c0,.05-.05,.06-.08,.06Z"/></g><g><path class="cls-5" d="M59.07,52.9l-.17,13.01,50.17-18.07,.92-28.18-9.11,2.68s2.13,21.6-41.81,30.56Z"/><path class="cls-4" d="M65.88,57.37l-.71,12.48,47.73-19.5,2.54-27.11-9.38,2.5s2.4,21.78-40.19,31.62Z"/><polygon class="cls-9" points="110 19.66 119.33 25.5 110.6 28.43 100.69 22.37 110 19.66"/><path class="cls-10" d="M69.01,59.8v13.2l50.25-17.6-.07-29.86-8.59,2.88s.4,20.71-41.59,31.38Z"/><line class="cls-3" x1="107.12" y1="24.37" x2="107.29" y2="0"/><line class="cls-3" x1="61.68" y1="21.91" x2="109.32" y2="6.43"/><line class="cls-3" x1="62.15" y1="29.04" x2="109.36" y2="13.75"/><line class="cls-3" x1="62.8" y1="36.14" x2="109.36" y2="20.9"/><line class="cls-3" x1="61.66" y1="44.27" x2="103.68" y2="30.34"/><line class="cls-3" x1="62.44" y1="51.02" x2="98.74" y2="38.68"/><line class="cls-3" x1="100.64" y1="34.63" x2="100.81" y2="1.88"/><line class="cls-3" x1="94.19" y1="41.28" x2="94.33" y2="3.75"/><line class="cls-3" x1="87.7" y1="44.87" x2="87.83" y2="5.61"/><line class="cls-3" x1="81.26" y1="47.68" x2="81.36" y2="7.48"/><line class="cls-3" x1="74.86" y1="50.92" x2="74.87" y2="9.35"/><line class="cls-3" x1="68.17" y1="53.17" x2="68.39" y2="11.22"/><line class="cls-2" x1="110.94" y1="26.92" x2="110.94" y2=".77"/><line class="cls-2" x1="65.5" y1="24.48" x2="113.55" y2="8.82"/><line class="cls-2" x1="65.96" y1="31.6" x2="114.02" y2="15.94"/><line class="cls-2" x1="66.62" y1="38.7" x2="114.09" y2="23.15"/><line class="cls-2" x1="65.47" y1="46.84" x2="107.49" y2="32.9"/><line class="cls-2" x1="66.26" y1="53.58" x2="102.56" y2="41.25"/><line class="cls-2" x1="104.45" y1="37.2" x2="104.52" y2="2.74"/><line class="cls-2" x1="98.01" y1="43.84" x2="97.91" y2="4.39"/><line class="cls-2" x1="91.52" y1="47.43" x2="91.47" y2="6.18"/><line class="cls-2" x1="85.08" y1="50.24" x2="84.96" y2="8.23"/><line class="cls-2" x1="78.68" y1="53.49" x2="78.49" y2="9.7"/><line class="cls-2" x1="71.98" y1="55.74" x2="71.99" y2="11.58"/><polygon class="cls-8" points="69.05 59.8 58.9 52.93 58.91 65.9 69.01 73 69.05 59.8"/></g><g><path class="cls-6" d="M.32,36.51l-.1,7.87,30.35-10.93,.55-17.05-5.51,1.62S26.91,31.09,.32,36.51Z"/><path class="cls-4" d="M4.44,39.22l-.43,7.55,28.87-11.79,1.54-16.4-5.68,1.52s1.45,13.18-24.31,19.13Z"/><polygon class="cls-12" points="31.12 16.4 36.77 19.93 31.49 21.71 25.49 18.04 31.12 16.4"/><path class="cls-11" d="M6.33,40.69v7.98l30.4-10.65-.04-18.06-5.19,1.74s.24,12.53-25.16,18.98Z"/><line class="cls-1" x1="30.79" y1="20.14" x2="30.9" y2="5.4"/><line class="cls-1" x1="3.3" y1="18.65" x2="32.13" y2="9.28"/><line class="cls-1" x1="3.58" y1="22.96" x2="32.15" y2="13.71"/><line class="cls-1" x1="3.98" y1="27.25" x2="32.15" y2="18.04"/><line class="cls-1" x1="3.29" y1="32.18" x2="28.71" y2="23.75"/><line class="cls-1" x1="3.76" y1="36.26" x2="25.73" y2="28.8"/><line class="cls-1" x1="26.87" y1="26.35" x2="26.98" y2="6.53"/><line class="cls-1" x1="22.97" y1="30.37" x2="23.05" y2="7.66"/><line class="cls-1" x1="19.05" y1="32.54" x2="19.12" y2="8.79"/><line class="cls-1" x1="15.15" y1="34.24" x2="15.21" y2="9.92"/><line class="cls-1" x1="11.28" y1="36.2" x2="11.28" y2="11.05"/><line class="cls-1" x1="7.23" y1="37.57" x2="7.36" y2="12.18"/><polygon class="cls-13" points="6.35 40.69 .21 36.53 .22 44.38 6.33 48.68 6.35 40.69"/></g><g><path class="cls-7" d="M25.57,74.8c1.03-.59,1.89-1.3,2.47-2.21,.34-.53,.77-1.29,.97-1.89-.22,.04-.97,.13-1.24,.13-.07,0-.25,0-.39-.05-.08,.11-.41,.62-.49,.72-.03,.04-.07,.08-.09,.12,.29,.07,.57,.17,.83,.31,.23,.13,.43,.28,.43,.54,0,.19-.1,.23-.15,.23-.09,0-.15-.08-.25-.22-.22-.29-.39-.43-.92-.77-.47,.53-.9,.76-1.1,.87l-.02-.03c.9-.87,1.68-2.25,1.68-2.48,0-.18-.21-.29-.38-.39,.1-.02,.16-.03,.23-.03,.38,0,.73,.36,.73,.45,0,.06-.02,.09-.12,.18-.05,.05-.15,.2-.23,.31,.09,.02,.31,.02,.34,.02,.55,0,1.06-.11,1.22-.23,.11-.08,.12-.09,.15-.09,.05,0,.45,.37,.47,.43v.03c0,.07-.04,.09-.18,.14-.1,.03-.13,.07-.24,.27-.65,1.21-.72,1.34-.89,1.59-.99,1.42-2.01,1.86-2.77,2.13l-.03-.06Zm3.94-5.1c.38,.15,.6,.31,.6,.56,0,.13-.07,.2-.13,.2-.1,0-.12-.03-.32-.31-.2-.28-.38-.39-.66-.55,.14,0,.28,0,.51,.09Zm.9-.18c.15,.06,.43,.18,.43,.5,0,.09-.03,.19-.11,.19-.09,0-.12-.03-.31-.27-.24-.31-.45-.43-.68-.55,.15,0,.32,0,.68,.13Z"/><path class="cls-7" d="M31.85,74.68c1.82-.8,2.85-2.76,3.05-3.97-.72-.03-2.62,.27-2.72,.29-.17,.03-.26,.07-.33,.11-.1,.05-.11,.06-.15,.06-.06,0-.07-.02-.18-.15-.18-.21-.29-.33-.29-.5,0-.05,.01-.09,.04-.22,.24,.36,.38,.39,.65,.39,.05,0,2.31-.17,2.4-.18,.13-.01,.53-.05,.61-.11,0,0,.07-.05,.1-.08,.01-.01,.03-.03,.07-.03,.03,0,.07,.02,.09,.05,.27,.25,.34,.31,.39,.37,.03,.03,.03,.05,.03,.07,0,.06-.02,.07-.15,.12-.18,.07-.2,.11-.32,.43-.34,.87-.65,1.66-1.46,2.39-.53,.47-1.14,.84-1.82,1.03v-.06Zm4.4-4.19c0,.05-.03,.21-.13,.21-.07,0-.09-.03-.23-.23-.17-.25-.25-.33-.73-.71,.35,.06,1.08,.36,1.08,.73Zm.17-.88c.27,.12,.35,.32,.35,.49,0,.11-.05,.17-.11,.17-.05,0-.06-.02-.17-.17-.25-.32-.57-.57-.77-.68,.15,0,.32,.02,.69,.19Z"/><path class="cls-7" d="M37.07,74.46c.41-.35,.71-.79,.93-1.27,.33-.74,.35-1.36,.35-1.91s0-.61-.47-.72c.07-.07,.17-.17,.33-.17,.21,0,.58,.17,.58,.32,0,.04-.05,.21-.05,.25,0,.1-.01,.55-.02,.63-.04,.65-.13,1.42-.69,2.15-.2,.27-.51,.58-.92,.76l-.03-.05Zm5.42-3.09c-.35,.92-1.1,1.64-1.86,2.25-.07,.06-.43,.3-.49,.37-.17,.22-.19,.25-.25,.25-.13,0-.38-.48-.38-.55,0-.04,.06-.23,.07-.26,.05-.24,.05-.6,.05-1.49,0-.28,0-1.3-.03-1.52-.02-.15-.05-.23-.45-.39,.07-.04,.18-.12,.31-.12,.17,0,.45,.17,.58,.28,.03,.03,.07,.07,.07,.13,0,.04-.05,.2-.06,.23-.03,.09-.06,.29-.07,.49-.02,.44-.03,1.9-.03,2.38,0,.1,0,.11,.02,.11,.08,0,1.3-.6,2.48-2.2l.05,.04Z"/><path class="cls-7" d="M46,69.73h-1.06v.86h.46l.13-.11s.08-.07,.11-.07,.06,.03,.09,.07l.16,.16c.06,.06,.09,.09,.09,.14,0,.04-.03,.05-.23,.17,0,.03,0,1.3,0,1.54v.47c0,.27,.01,.63,.01,.8,0,.27,.02,.66,.03,.8,0,.07,0,.29-.28,.29-.06,0-.13-.01-.13-.17,0-.02,.01-.17,.01-.21h-1.84c.01,.32,.03,.57-.25,.57-.13,0-.15-.07-.15-.16,0-.05,.02-.27,.02-.31,.04-.53,.05-2.48,.05-3.12,0-.73,0-.78-.07-1.1l.42,.25h.45c0-.45,0-.58,0-.86-.29,0-.65,.03-.89,.08l-.16-.29c.37,.03,.74,.05,1.1,.05h1.23l.22-.25s.07-.08,.11-.08c.04,0,.07,.03,.12,.07l.27,.25s.07,.06,.07,.11c0,.06-.05,.07-.1,.07Zm-.59,2.46c-.12,.1-.33,.1-.41,.1-.35,0-.37-.11-.37-.24,0-.21,0-1.12,0-1.3h-.31c-.03,.65-.05,1.28-.77,1.81v.45h1.84v-.82Zm-1.84-1.44v1.68c.42-.47,.45-1.21,.47-1.68h-.47Zm1.84,2.42h-1.84v1.13h1.84v-1.13Zm-.77-3.44h-.29c0,.14-.02,.76-.02,.86h.31v-.86Zm.77,1.02h-.47c0,.18,0,.95,0,1.1,0,.08,.02,.09,.13,.09,.13,0,.13,0,.15-.22h.05c.04,.08,.05,.09,.15,.21v-1.18Zm3.3,3.87c-.27,.14-.7,.14-1.06,.14-.26,0-.77,0-1-.07-.3-.09-.3-.19-.3-.77,0-.27,.03-1.46,.03-1.7,0-.65-.03-.79-.06-.91l.49,.27h1.24c0-.59,.01-.71,.01-1.84h-.73c-.21,0-.59,.03-.86,.08l-.15-.29c.37,.03,.73,.05,1.1,.05h.55l.15-.18s.06-.07,.09-.07c.03,0,.06,.02,.11,.06l.27,.23s.05,.05,.05,.08c0,.05-.05,.07-.1,.1-.01,0-.08,.05-.12,.07-.03,.53,.01,1.37,.01,1.9,0,.05,0,.12-.06,.17-.07,.06-.17,.09-.23,.09-.11,0-.11-.12-.11-.27h-1.32c-.01,.15-.03,1.44-.03,1.71,0,.14,0,.77,.04,.83,.06,.11,.67,.11,.8,.11,.83,0,.87-.1,.93-.31,.09-.28,.11-.42,.15-.75h.07c.03,.26,.06,.57,.15,.73,.03,.07,.14,.19,.14,.24,0,.13-.14,.24-.27,.31Z"/><path class="cls-7" d="M52.18,70.27h-1.18c.27,.18,.31,.2,.34,.23,.17,.16,.21,.33,.21,.39,0,.13-.09,.23-.23,.23s-.14-.03-.23-.42c-.02-.11-.1-.32-.2-.44h-.46c-.31,.37-.59,.68-.94,.94l-.03-.03c.66-.84,.93-1.31,1.12-1.74,.08-.18,.08-.27,.09-.43l.53,.31s.05,.05,.05,.08c0,.08-.03,.08-.25,.13-.09,.14-.18,.27-.43,.58h1.04l.16-.19c.07-.08,.09-.08,.11-.08,.04,0,.09,.04,.12,.07l.22,.19s.06,.07,.06,.1c0,.06-.05,.07-.1,.07Zm-.31,1.44v2.66c0,.25,0,.62-.66,.75-.02-.17-.16-.39-.4-.53v-.03c.14,.02,.26,.04,.53,.04,.17,0,.19-.08,.19-.23v-.91h-1.06c-.04,.32-.13,1.08-.98,1.71h-.01c.71-.95,.71-1.8,.71-2.5,0-.44-.01-1.14-.03-1.27-.03-.19-.03-.21-.04-.26l.47,.29h.9l.1-.13c.05-.05,.07-.08,.11-.08s.07,.02,.09,.03l.22,.17c.05,.05,.07,.05,.07,.09,0,.06-.03,.09-.19,.19Zm-.35,.82h-1.01c-.01,.42-.03,.65-.04,.77h1.05v-.77Zm0-.93h-1c0,.29,0,.53,0,.77h1.01v-.77Zm3.56,.79c-.01,.7-.07,1.97-.33,2.33-.27,.37-.77,.43-.81,.44-.03-.12-.04-.18-.11-.29-.04-.06-.18-.25-.39-.37l.02-.04c.06,.02,.07,.02,.18,.06,.23,.08,.45,.08,.52,.08,.23,0,.34-.05,.45-.68,.1-.57,.11-1.14,.11-1.71h-1.14c-.06,.73-.21,2.32-1.64,2.95l-.03-.04c.56-.36,1.21-1.32,1.31-2.91-.21,0-.59,.03-.85,.08l-.16-.29c.46,.04,.82,.05,1.02,.05,.01-.35-.01-.64-.02-.68-.01-.21-.04-.26-.09-.35l.6,.19c.06,.02,.08,.02,.08,.09s-.11,.15-.21,.23c0,.21,0,.34-.02,.52h1.05l.14-.15c.06-.06,.07-.06,.1-.06,0,0,.05,0,.09,.03l.25,.21s.07,.06,.07,.09c0,.05-.15,.17-.21,.21Zm.27-2.12h-1.9c.16,.05,.77,.24,.77,.57,0,.05-.01,.22-.21,.22-.13,0-.15-.03-.32-.36-.11-.21-.27-.35-.41-.43h-.44c-.15,.19-.46,.55-.83,.84l-.02-.02c.45-.62,.83-1.3,.98-1.66,.07-.17,.07-.33,.07-.4l.56,.29s.03,.09,.03,.09c0,.07,0,.11-.29,.15-.09,.14-.18,.27-.38,.54h1.64l.27-.27c.07-.07,.08-.08,.11-.08,.05,0,.11,.06,.12,.07l.29,.26s.07,.06,.07,.1c0,.06-.06,.07-.1,.07Z"/></g><g><path class="cls-7" d="M26.28,84.36c-.28-.22-1.29-1.17-1.29-2.67s1.01-2.45,1.29-2.67l.06,.08c-.9,.93-1.1,1.96-1.1,2.6s.2,1.66,1.1,2.6l-.06,.08Z"/><path class="cls-7" d="M31.05,81.54l.25-.3s.07-.07,.09-.07,.04,.02,.09,.07l.33,.33s.06,.05,.06,.09c0,.05-.05,.06-.08,.06h-3.91c-.19,0-.5,.02-.71,.06l-.13-.27c.41,.03,.74,.04,.92,.04h3.09Z"/><path class="cls-7" d="M35.62,81.64h-2.03c-.17,0-.48,.02-.71,.07l-.13-.24c.3,.03,.61,.04,.92,.04h.56c.21-.56,.33-.91,.33-1.27l.43,.2s.07,.04,.07,.08c0,.07-.06,.1-.22,.17-.18,.28-.41,.63-.55,.81h.81l.14-.19s.06-.08,.09-.08c.03,0,.06,.02,.1,.06l.2,.19s.06,.06,.06,.09c0,.05-.05,.05-.08,.05Zm-.14-1.5h-1.73c-.18,0-.49,.02-.71,.07l-.13-.24c.31,.02,.61,.04,.92,.04h.17c0-.42,0-.43-.09-.81l.48,.13c.08,.02,.12,.04,.12,.09,0,.07-.06,.08-.19,.15-.01,.08-.02,.15-.02,.43h.7l.14-.17s.06-.08,.09-.08,.05,.02,.11,.07l.18,.16s.06,.06,.06,.09c0,.04-.04,.06-.08,.06Zm-.38,2.31c0,.1-.01,.19-.01,.4,0,.13,.02,.71,.02,.83,0,.28-.22,.28-.23,.28-.07,0-.09-.03-.08-.12,0-.02,0-.09,0-.15h-1.23s.01,.11,.01,.14c0,.05-.03,.23-.24,.23-.1,0-.1-.08-.1-.11,0-.03,.02-.31,.02-.36,0-.09,.02-.37,.02-.71,0-.43-.02-.61-.05-.88l.4,.21h1.09l.1-.11s.06-.07,.09-.07,.04,.02,.09,.05l.17,.12s.07,.05,.07,.09c0,.05-.04,.08-.14,.14Zm-1.35-1.17c-.16,0-.18-.13-.21-.34-.02-.16-.09-.41-.2-.52l.03-.02c.26,.11,.57,.36,.57,.65,0,.17-.11,.23-.19,.23Zm1.06,1.07h-1.24v1.21h1.24v-1.21Zm2.02,1.28c-.06-.19-.19-.33-.39-.45v-.05c.1,.02,.22,.04,.39,.04,.43,0,.55-.14,.55-.41,0-.3-.14-.97-.82-1.45,.04-.14,.27-.84,.28-.87,.02-.07,.04-.13,.19-.7h-.85c-.01,.76,0,1.69,.01,2.54,0,.47,.03,1.22,.03,1.68,0,.07,0,.17-.05,.21-.07,.06-.15,.07-.19,.07-.1,0-.1-.08-.09-.31,.02-1.08,.02-2.17,.02-3.26,0-.34,0-.97-.05-1.27l.39,.21h.73l.13-.12s.06-.05,.1-.05,.08,.03,.09,.04l.24,.19s.07,.07,.07,.1c0,.05-.04,.08-.2,.15-.08,.13-.39,.71-.46,.82-.1,.18-.26,.45-.3,.53,.17,.1,.44,.28,.68,.6,.22,.29,.38,.66,.38,.98,0,.53-.5,.69-.87,.79Z"/><path class="cls-7" d="M38.75,83.91c.86-.49,1.57-1.08,2.05-1.83,.28-.44,.64-1.07,.81-1.57-.18,.03-.81,.11-1.03,.11-.06,0-.21,0-.33-.04-.07,.09-.34,.51-.4,.6-.03,.03-.06,.07-.08,.1,.24,.06,.47,.14,.69,.25,.19,.1,.35,.23,.35,.45,0,.16-.08,.19-.12,.19-.07,0-.12-.07-.21-.18-.18-.24-.33-.36-.77-.64-.39,.44-.75,.63-.92,.72l-.02-.03c.75-.72,1.39-1.87,1.39-2.06,0-.15-.17-.24-.31-.33,.08-.02,.13-.02,.19-.02,.31,0,.6,.3,.6,.38,0,.05-.02,.07-.1,.15-.04,.04-.13,.17-.19,.25,.07,.02,.26,.02,.28,.02,.45,0,.88-.09,1.01-.19,.09-.07,.1-.08,.12-.08,.04,0,.38,.31,.39,.35v.02c0,.06-.03,.07-.15,.12-.08,.03-.11,.06-.2,.22-.54,1-.6,1.12-.74,1.32-.82,1.18-1.67,1.55-2.3,1.77l-.02-.05Zm3.27-4.23c.31,.13,.5,.25,.5,.46,0,.1-.06,.17-.11,.17-.08,0-.1-.03-.27-.25-.17-.23-.31-.33-.55-.45,.12,0,.23,0,.43,.08Zm.75-.15c.12,.05,.35,.15,.35,.41,0,.08-.03,.16-.09,.16-.08,0-.1-.02-.26-.23-.2-.26-.38-.36-.56-.46,.12,0,.27,0,.56,.11Z"/><path class="cls-7" d="M44.65,83.81c1.51-.66,2.37-2.29,2.54-3.3-.6-.02-2.18,.23-2.26,.24-.14,.03-.22,.06-.27,.09-.08,.04-.09,.05-.13,.05-.05,0-.06-.02-.15-.12-.15-.17-.24-.28-.24-.42,0-.04,.01-.08,.03-.18,.2,.3,.31,.33,.54,.33,.04,0,1.92-.14,1.99-.15,.1-.01,.44-.04,.5-.09,0,0,.06-.04,.08-.07,.01-.01,.03-.02,.06-.02,.03,0,.06,.02,.08,.04,.22,.21,.28,.26,.33,.3,.02,.03,.03,.04,.03,.05,0,.05-.02,.06-.12,.1-.15,.06-.17,.09-.26,.35-.28,.72-.54,1.38-1.22,1.98-.44,.39-.95,.7-1.51,.85v-.05Zm3.65-3.48s-.03,.17-.11,.17c-.06,0-.07-.02-.19-.19-.14-.21-.21-.27-.6-.59,.29,.05,.9,.3,.9,.61Zm.14-.73c.23,.1,.29,.26,.29,.41,0,.09-.04,.14-.09,.14-.04,0-.05-.02-.14-.14-.2-.26-.48-.47-.64-.57,.12,0,.27,.02,.57,.16Z"/><path class="cls-7" d="M49.3,83.62c.34-.29,.59-.66,.77-1.05,.28-.61,.29-1.13,.29-1.58s0-.51-.39-.6c.06-.06,.14-.14,.28-.14,.17,0,.48,.14,.48,.27,0,.03-.04,.18-.04,.21,0,.08-.01,.45-.02,.52-.03,.54-.11,1.18-.57,1.78-.17,.22-.42,.49-.77,.63l-.03-.04Zm4.5-2.56c-.29,.77-.91,1.36-1.54,1.87-.06,.05-.36,.25-.4,.3-.14,.18-.15,.2-.21,.2-.1,0-.31-.4-.31-.45,0-.03,.05-.19,.06-.21,.04-.2,.04-.5,.04-1.24,0-.23,0-1.08-.03-1.27-.02-.12-.04-.19-.37-.33,.06-.03,.15-.1,.26-.1,.14,0,.38,.14,.48,.23,.03,.02,.06,.06,.06,.11,0,.03-.04,.17-.05,.19-.02,.08-.05,.24-.06,.41-.02,.36-.03,1.57-.03,1.98,0,.08,0,.09,.02,.09,.07,0,1.08-.5,2.05-1.83l.04,.03Z"/><path class="cls-7" d="M55.71,83.87c.82-.71,1.2-1.33,1.29-2.48-.87,.09-1.24,.18-1.55,.32-.03,.01-.18,.07-.2,.07-.1,0-.31-.22-.39-.31-.08-.11-.07-.34-.07-.42,.22,.3,.36,.34,.51,.34,.09,0,.24-.01,.42-.03,.57-.07,.64-.08,1.28-.15,0-.18,0-.53-.04-.64-.03-.1-.09-.15-.23-.26-.09,.02-.8,.15-1.24,.14v-.04c.71-.08,2.02-.59,2.09-.7,.01-.01,.02-.02,.02-.04,0-.03-.01-.06-.17-.14,.07-.03,.09-.03,.12-.03,.22,0,.65,.31,.65,.43,0,.05-.04,.06-.08,.06-.23,0-.24,0-.62,.12-.27,.08-.44,.12-.54,.14,.29,.09,.4,.17,.43,.19,.02,.02,.03,.05,.03,.09,0,.04,0,.06-.06,.16-.03,.06-.06,.32-.07,.48,.3-.02,.8-.05,1.11-.08,.04,0,.25-.06,.29-.06,.14,0,.56,.12,.56,.3,0,.05-.03,.11-.1,.11-.02,0-.06,0-.12-.02-.17-.04-.45-.09-.82-.09-.31,0-.64,.01-.94,.03-.08,.97-.28,1.4-.64,1.82-.38,.46-.77,.64-.93,.71l-.02-.03Z"/><path class="cls-7" d="M63.21,82.03c0,.15-.07,.2-.14,.2-.08,0-.09-.02-.28-.21-.43-.42-.92-.73-1.19-.84,0,.09,0,1.89,0,1.98,0,.07,.02,.34,.02,.4,0,.12,0,.39-.17,.39-.13,0-.22-.24-.22-.44,0-.05,.04-.25,.05-.33,.02-.13,.08-2.82,.08-2.94,0-.51-.06-.6-.5-.7,.07-.04,.18-.13,.35-.13,.18,0,.55,.14,.55,.28,0,.06-.05,.19-.07,.24-.08,.24-.09,.86-.09,1.14,.47,.1,1.61,.48,1.61,.95Zm-.49-1.93c.25,0,.95,.17,.95,.55,0,.06-.03,.16-.12,.16s-.1-.02-.28-.23c-.16-.19-.33-.29-.68-.47,.01,0,.09,0,.13,0Zm.57-.39c.19,0,.44,.05,.6,.12,.17,.07,.24,.23,.24,.33,0,.05-.02,.15-.09,.15-.04,0-.06-.01-.22-.13-.29-.24-.44-.31-.72-.46,.08-.01,.12-.01,.18-.01Z"/><path class="cls-7" d="M66.22,81.7v.18c0,.08,0,.36-.15,.36s-.19-.31-.19-.44c0-.06,0-.08,.03-.29,.01-.07,.02-.16,.02-.53,0-.17,0-.62-.04-.74-.04-.09-.07-.1-.37-.19,.12-.09,.2-.13,.3-.13s.5,.08,.5,.24c0,.03-.06,.19-.06,.23-.03,.19-.04,.74-.04,1.18v.14Zm.41,2.29c1.09-.82,1.3-1.54,1.3-3.29,0-.15,0-.7-.07-.79-.07-.11-.32-.14-.41-.15,.07-.07,.17-.17,.33-.17,.17,0,.45,.1,.52,.17,.04,.03,.04,.07,.04,.09,0,.04-.06,.22-.07,.26-.02,.09-.02,.21-.02,.34-.03,1.35-.04,1.55-.17,2.04-.06,.23-.34,1.16-1.43,1.54l-.02-.04Z"/><path class="cls-7" d="M72.34,79.69h-.88v.71h.38l.11-.09s.07-.06,.09-.06,.05,.03,.08,.06l.13,.13s.08,.08,.08,.12c0,.03-.02,.04-.19,.14,0,.03,0,1.08,0,1.28v.39c0,.22,.01,.52,.01,.67,0,.22,.02,.55,.02,.66,0,.06,0,.24-.23,.24-.05,0-.11-.01-.11-.14,0-.02,.01-.14,.01-.17h-1.52c.01,.27,.03,.48-.21,.48-.11,0-.13-.06-.13-.13,0-.04,.02-.22,.02-.26,.03-.44,.04-2.06,.04-2.59,0-.61,0-.65-.06-.91l.35,.2h.37c0-.38,0-.48,0-.71-.24,0-.54,.02-.74,.07l-.13-.24c.3,.02,.61,.04,.92,.04h1.02l.18-.21s.06-.07,.09-.07c.03,0,.06,.02,.1,.06l.22,.21s.06,.05,.06,.09c0,.05-.04,.06-.08,.06Zm-.49,2.04c-.1,.08-.28,.08-.34,.08-.29,0-.3-.09-.3-.2,0-.17,0-.93,0-1.08h-.26c-.02,.54-.04,1.07-.64,1.5v.38h1.53v-.68Zm-1.53-1.2v1.4c.35-.39,.37-1,.39-1.4h-.39Zm1.53,2.01h-1.53v.94h1.53v-.94Zm-.64-2.86h-.24c0,.12-.02,.63-.02,.71h.25v-.71Zm.64,.84h-.39c0,.15,0,.78,0,.92,0,.07,.02,.07,.1,.07,.1,0,.1,0,.13-.18h.04c.03,.07,.04,.08,.12,.18v-.98Zm2.74,3.21c-.22,.12-.58,.12-.88,.12-.22,0-.64,0-.83-.06-.25-.07-.25-.15-.25-.64,0-.22,.02-1.21,.02-1.41,0-.54-.03-.66-.05-.76l.41,.23h1.03c0-.49,.01-.59,.01-1.53h-.6c-.18,0-.49,.02-.71,.07l-.13-.24c.3,.02,.61,.04,.92,.04h.46l.13-.15s.05-.06,.08-.06c.02,0,.05,.02,.09,.05l.22,.19s.04,.04,.04,.07c0,.04-.04,.06-.08,.08-.01,0-.07,.04-.1,.06-.03,.44,.01,1.14,.01,1.57,0,.04,0,.1-.05,.14-.06,.05-.14,.08-.19,.08-.09,0-.09-.1-.09-.23h-1.09c-.01,.13-.03,1.19-.03,1.42,0,.12,0,.63,.03,.69,.05,.09,.55,.09,.66,.09,.69,0,.72-.08,.77-.25,.08-.23,.09-.35,.12-.62h.06c.02,.22,.05,.47,.12,.61,.03,.05,.12,.15,.12,.2,0,.11-.12,.2-.22,.25Z"/><path class="cls-7" d="M77.65,80.14h-.98c.23,.15,.25,.17,.28,.19,.14,.13,.18,.28,.18,.33,0,.11-.07,.19-.19,.19s-.12-.02-.19-.35c-.02-.09-.08-.26-.17-.36h-.38c-.25,.3-.49,.56-.78,.78l-.03-.02c.55-.7,.77-1.09,.93-1.45,.07-.15,.07-.23,.07-.35l.44,.25s.04,.04,.04,.07c0,.07-.02,.07-.2,.1-.08,.12-.15,.23-.35,.49h.87l.13-.15c.06-.07,.08-.07,.09-.07,.03,0,.07,.03,.1,.05l.18,.16s.05,.06,.05,.08c0,.05-.04,.06-.08,.06Zm-.26,1.2v2.21c0,.21,0,.52-.55,.62-.02-.14-.13-.32-.33-.44v-.03c.12,.02,.22,.03,.44,.03,.14,0,.15-.07,.15-.19v-.76h-.88c-.03,.26-.11,.9-.81,1.42h-.01c.59-.79,.59-1.5,.59-2.07,0-.36-.01-.94-.03-1.05-.03-.15-.03-.17-.03-.21l.39,.24h.75l.08-.1s.06-.07,.09-.07,.06,.02,.08,.03l.18,.14s.06,.04,.06,.07c0,.05-.03,.08-.16,.15Zm-.29,.68h-.84c-.01,.35-.02,.54-.03,.64h.87v-.64Zm0-.77h-.83c0,.24,0,.44,0,.64h.84v-.64Zm2.96,.65c-.01,.58-.06,1.63-.27,1.93-.23,.31-.64,.36-.67,.37-.02-.1-.03-.15-.09-.24-.03-.05-.15-.2-.32-.3l.02-.03s.06,.02,.15,.05c.19,.07,.37,.07,.43,.07,.19,0,.28-.04,.37-.56,.08-.47,.09-.94,.09-1.42h-.94c-.05,.6-.18,1.93-1.36,2.45l-.02-.03c.46-.3,1.01-1.09,1.09-2.42-.18,0-.49,.02-.71,.07l-.13-.24c.38,.03,.68,.04,.85,.04,.01-.29-.01-.53-.02-.57-.01-.18-.03-.21-.07-.29l.5,.15s.07,.02,.07,.08-.09,.13-.17,.19c0,.18,0,.28-.02,.43h.87l.12-.13s.06-.05,.08-.05c0,0,.04,0,.07,.03l.21,.18s.06,.05,.06,.08c0,.04-.13,.14-.17,.17Zm.22-1.76h-1.58c.13,.04,.64,.2,.64,.48,0,.04-.01,.18-.18,.18-.1,0-.12-.03-.27-.3-.09-.18-.23-.29-.34-.36h-.36c-.13,.16-.38,.46-.69,.7l-.02-.02c.37-.52,.69-1.08,.81-1.38,.06-.14,.06-.28,.06-.33l.46,.24s.03,.07,.03,.08c0,.05,0,.09-.24,.13-.08,.12-.15,.23-.31,.45h1.36l.23-.22c.06-.06,.07-.07,.09-.07,.04,0,.09,.05,.1,.06l.24,.21s.06,.05,.06,.08c0,.05-.05,.06-.08,.06Z"/><path class="cls-7" d="M81.13,84.28c.9-.93,1.1-1.96,1.1-2.6s-.2-1.66-1.1-2.6l.06-.08c.28,.22,1.29,1.17,1.29,2.67s-1.01,2.45-1.29,2.67l-.06-.08Z"/></g></g></g></svg>