<?xml version="1.0" encoding="UTF-8"?><svg id="Layer_2" xmlns="http://www.w3.org/2000/svg" viewBox="0 0 117.11 85.35"><defs><style>.cls-1{stroke:#231f20;}.cls-1,.cls-2{fill:none;}.cls-1,.cls-2,.cls-3,.cls-4,.cls-5,.cls-6,.cls-7,.cls-8,.cls-9,.cls-10,.cls-11,.cls-12,.cls-13,.cls-14,.cls-15,.cls-16,.cls-17,.cls-18,.cls-19,.cls-20,.cls-21,.cls-22{stroke-width:.34px;}.cls-2,.cls-3,.cls-4,.cls-5,.cls-6,.cls-7,.cls-8,.cls-9,.cls-10,.cls-11,.cls-12,.cls-13,.cls-14,.cls-15,.cls-16,.cls-17,.cls-18,.cls-19,.cls-20,.cls-21,.cls-22{stroke:#58595b;}.cls-3{fill:#fdd1b0;}.cls-4,.cls-21{fill:#f0e0c1;}.cls-5,.cls-15{fill:#a7a9ac;}.cls-6{fill:#fffde3;}.cls-7{fill:#ffefcf;}.cls-8{fill:#fee0c2;}.cls-9,.cls-17{fill:#e5d2b4;}.cls-10{fill:#e0e1e2;}.cls-23{fill:#231f20;}.cls-11{fill:#d6c3a6;}.cls-11,.cls-13,.cls-14,.cls-15,.cls-16,.cls-17,.cls-18,.cls-19,.cls-20,.cls-21,.cls-22{stroke-linejoin:bevel;}.cls-12{fill:#e1d9d3;stroke-linejoin:round;}.cls-13{fill:#c7c8ca;}.cls-14{fill:#bcbec0;}.cls-16{fill:#bba88e;}.cls-18{fill:#eec3a3;}.cls-19{fill:#f3c8a8;}.cls-20{fill:#e3b697;}.cls-22{fill:#f6e6c7;}</style></defs><g id="_情報"><g><g><path class="cls-23" d="M.27,85.13H1.5v.23H.04v-5.15H1.5v.23H.27v4.69Z"/><path class="cls-23" d="M3.72,81.68h-.57v.53c.28,.05,.57,.27,.57,.47,0,.11-.08,.17-.15,.17-.09,0-.1-.03-.21-.27-.1-.23-.17-.28-.21-.31,0,.46,0,2.88,0,2.89-.01,.14-.17,.16-.22,.16-.11,0-.11-.06-.11-.09,0,0,0-.04,0-.08,.05-.57,.07-1.79,.07-2.41v-.1c-.21,.61-.47,1.09-.82,1.44l-.04-.03c.36-.59,.75-1.68,.82-2.36-.03,0-.33,.02-.55,.06l-.14-.25c.25,.02,.3,.02,.73,.04-.01-.43-.02-.98-.12-1.28l.49,.14s.06,.02,.06,.07c0,.03-.03,.06-.07,.08-.04,.02-.07,.05-.11,.08v.08s0,.84,0,.84h.19l.09-.11c.05-.06,.06-.07,.09-.07,.02,0,.04,.02,.1,.07l.12,.1s.06,.05,.06,.09c0,.05-.05,.06-.09,.06Zm1.44-.92s-.1,.06-.12,.07c0,.18,0,1.11,.01,1.54,0,.03,.02,.2,.02,.23,0,.17-.18,.2-.21,.2-.08,0-.08-.04-.08-.19h-.62v1.38s.25-.14,.62-.39c-.03-.07-.1-.3-.22-.46l.03-.02c.06,.05,.33,.26,.39,.3,.19,.18,.22,.35,.22,.43,0,.12-.07,.19-.17,.19s-.15-.06-.18-.23c-.02-.07-.03-.13-.04-.17-.16,.15-.83,.8-.97,.94,0,.08,.01,.15-.05,.15,0,0-.04,0-.07-.04l-.28-.36c.12-.02,.16-.04,.44-.19v-2.19c0-.25,0-1.19-.01-1.39,0-.06-.02-.13-.03-.21l.36,.21h.55l.09-.09s.06-.05,.08-.05,.04,.01,.06,.03l.2,.17s.03,.05,.03,.06c0,.03-.03,.05-.05,.07Zm-.38-.05h-.62v.8h.62v-.8Zm0,.94h-.62v.83h.62v-.83Zm2.45,3.39c-.13,.03-.37,.03-.51,.03-.39,0-.5-.03-.5-.42,0-.1,0-.53,0-.61,0-.19,0-.29,0-1.12-.18,.55-.68,1.82-1.71,2.31l-.02-.03c.71-.56,1.29-1.62,1.54-2.53-.13,0-.45,.02-.68,.07l-.14-.25c.21,.01,.24,.02,.32,.02v-1.6s-.03,0-.09,.02l-.13-.25c.43,.03,.85,.04,.96,.04h.47l.12-.13c.06-.06,.06-.07,.09-.07,.03,0,.09,.05,.11,.06l.17,.13s.06,.05,.06,.09c0,.06-.05,.06-.09,.06h-.63c-.05,.91-.15,1.34-.23,1.67h.47l.13-.17c.04-.05,.06-.07,.09-.07s.06,.03,.1,.06l.18,.17s.06,.05,.06,.09c0,.05-.05,.06-.09,.06h-.98c-.02,.08-.02,.08-.03,.1l.31,.1c.07,.02,.09,.04,.09,.06,0,.07-.15,.13-.16,.14,0,1.21,0,1.46,0,1.5,0,.17,.04,.23,.2,.23,.27,0,.32,0,.37-.12,.04-.08,.13-.46,.16-.63h.06c.06,.56,.07,.65,.13,.69,.07,.06,.09,.07,.09,.11,0,.12-.18,.19-.28,.21Zm-1.05-4.19c-.08,0-.14,0-.39,.02v1.64c.07,0,.14,0,.27,0,.08-.31,.16-.7,.2-1.67h-.08Z"/><path class="cls-23" d="M12.89,82.54c-1.12-.57-1.74-1.1-2.16-2.01h-.03c-.73,1.09-1.81,2.03-2.73,2.44l-.03-.03c.95-.67,1.79-1.64,2.33-2.47,.12-.18,.12-.23,.13-.33l.48,.19s.06,.04,.06,.08c0,.06-.05,.09-.11,.11,.44,.7,1.1,1.31,2.6,1.65v.02c-.27,.05-.5,.29-.52,.36Zm-4,2.33c-.09,.17-.22,.24-.32,.24-.12,0-.21-.08-.21-.18,0-.08,.06-.17,.13-.24,.18-.22,.37-.45,.43-.79h.04c.01,.08,.03,.21,.03,.44,0,.19-.02,.4-.1,.54Zm2.71-1.89c-.05,.07-.1,.12-.2,.34-.14,.31-.2,.34-.33,.34-.08,0-.2-.02-.2-.09,0-.06,.39-.64,.45-.77h-1.32c-.2,0-.52,.02-.74,.06l-.13-.25c.43,.03,.85,.05,.96,.05h1.17l.2-.13s.06-.03,.07-.03c.03,0,.05,.03,.07,.05l.25,.25s.03,.05,.03,.07c0,.07-.18,.1-.28,.11Zm.17,2.19c-.23,.09-.49,.1-1.14,.1-.59,0-.95,0-.98-.33-.02-.31,.02-.8-.05-1.1l.41,.11c.05,.01,.07,.03,.07,.06,0,.07-.09,.11-.13,.14,0,.1,0,.52,0,.61,.02,.18,.05,.25,.26,.25,.99,0,1.14,0,1.3-.11,.09-.07,.13-.12,.19-.41,.05-.21,.06-.32,.07-.38h.03c.02,.1,.09,.54,.12,.62,.02,.05,.02,.05,.08,.11,.03,.03,.05,.05,.05,.07,0,.06-.13,.2-.29,.26Zm-.5-3.14h-.65c-.2,0-.52,.02-.74,.06l-.14-.25c.41,.03,.81,.05,.98,.05l.14-.18s.06-.07,.09-.07c.03,0,.1,.05,.11,.06l.23,.18s.06,.05,.06,.09c0,.05-.05,.06-.09,.06Zm-.49,2.36c-.1,0-.18-.12-.23-.2-.17-.3-.18-.34-.39-.59v-.02c.33,.13,.44,.17,.55,.26,.13,.1,.24,.24,.24,.34,0,.13-.08,.22-.18,.22Zm2.04,.51c-.12,0-.18-.11-.21-.21-.13-.43-.17-.58-.4-.87l.02-.03c.21,.12,.5,.3,.6,.42,.19,.22,.21,.4,.21,.45,0,.18-.13,.23-.21,.23Z"/><path class="cls-23" d="M18.71,80.85c0,.33,.02,2.5,.03,3.43,0,.11,.02,.6,.02,.7,0,.19-.18,.23-.24,.23-.14,0-.13-.08-.12-.25h-3.78c0,.18,.01,.36-.27,.36-.09,0-.1-.06-.1-.11,0-.13,.02-.7,.02-.82,.03-1.4,.03-1.69,.03-2.16,0-.63-.01-1.27-.08-1.91l.42,.21h3.7l.12-.12s.05-.06,.09-.06c.02,0,.05,.02,.09,.05l.25,.17s.05,.03,.05,.07c0,.07-.03,.11-.23,.21Zm-.3-.18h-3.79v4.16h3.79v-4.16Zm-.68,.74c-.32,.98-.69,1.48-.95,1.83,.34,.17,1.12,.57,1.12,.9,0,.11-.07,.22-.18,.22-.07,0-.09-.02-.18-.11-.24-.26-.54-.52-.93-.78-.42,.49-.92,.92-1.52,1.16v-.03c.74-.54,1.11-.99,1.32-1.25-.56-.33-.98-.43-1.27-.5v-.05c.57,.06,1.04,.19,1.41,.35,.55-.76,.89-1.85,.89-2.04,0-.03,0-.05-.01-.09l.47,.19s.07,.03,.07,.06c0,.08-.18,.14-.24,.15Zm-2.05,1c-.16,0-.17-.11-.23-.41-.03-.16-.1-.43-.28-.66l.03-.03c.4,.21,.67,.75,.67,.9,0,.13-.09,.21-.19,.21Zm.85-.25c-.14,0-.16-.07-.23-.37-.06-.29-.27-.58-.36-.67l.02-.03c.4,.18,.76,.53,.76,.84,0,.04,0,.23-.19,.23Z"/><path class="cls-23" d="M21.02,80.44h-1.22v-.23h1.45v5.15h-1.45v-.23h1.22v-4.69Z"/></g><g><g><path class="cls-23" d="M81.78,2.67c0-.07-.23-.3-.23-.3,.14-.01,.21-.02,.42,.11,.32,.2,.36,.46,.36,.51,0,.07-.01,.07-.16,.11-.08,.02-.18,.06-.25,.09-1.3,.71-1.44,.78-1.75,.89-.3,.11-.53,.15-.63,.17-.01,.25-.02,.51-.02,.76,0,.35,.02,.53,.19,.66,.23,.17,.75,.21,1.05,.21,.46,0,.69-.07,1.14-.2,.11-.03,.16-.05,.22-.05,.07,0,.22,.03,.32,.09,.07,.03,.1,.1,.1,.15,0,.1-.1,.16-.12,.17-.16,.07-1.26,.14-1.52,.14-.1,0-1.11,0-1.41-.33-.21-.22-.24-.51-.24-1.05,0-.24,.04-1.3,.04-1.52,0-.27,0-.53,0-.8,0-.22,0-.29-.08-.39-.08-.11-.24-.21-.41-.27,.14-.08,.17-.1,.25-.1,.14,0,.72,.2,.72,.41,0,.05-.02,.08-.09,.22-.02,.04-.04,.08-.05,.2-.03,.44-.06,1.14-.08,1.58,.87-.26,2.23-1.28,2.23-1.46Zm.55-1.01c.09,.05,.29,.14,.29,.41,0,.14-.07,.2-.12,.2-.06,0-.07-.02-.23-.25-.07-.09-.13-.18-.66-.58,.25,.03,.49,.11,.72,.22Zm-.04-.54c.2,0,.96,.15,.96,.59,0,.09-.03,.17-.1,.17-.06,0-.08-.02-.27-.21-.05-.04-.23-.2-.31-.27-.2-.15-.33-.22-.43-.27,.08-.01,.1-.02,.16-.02Z"/><path class="cls-23" d="M84.21,5.23s.05,0,.07,0c1.48-.13,1.65-.14,3.01-.24,.07-.02,.16-.05,.24-.09,.13-.05,.14-.06,.17-.06,.1,0,.52,.26,.52,.46,0,.1-.07,.17-.13,.17-.06,0-.33-.08-.39-.09-.28-.06-.81-.07-1.05-.07-.95,0-1.93,.13-2.27,.27-.17,.07-.25,.09-.29,.09-.13,0-.5-.2-.5-.71,0-.04,0-.07,.01-.13,.23,.35,.4,.41,.61,.41Zm.8-2.54c.19,0,1.14-.06,1.56-.18,.06-.02,.34-.14,.4-.14,.07,0,.4,.12,.4,.28,0,.11-.05,.11-.36,.14-1.44,.11-1.69,.13-1.96,.19-.12,.03-.14,.03-.18,.03-.31,0-.47-.27-.51-.53,.2,.13,.36,.21,.66,.21Z"/><path class="cls-23" d="M89.43,3.86c.08,.03,.14,.03,.67,.03,.11,0,2.09-.01,2.51-.07,.11-.01,.12-.01,.19-.05,.04-.01,.07-.02,.11-.02,.03,0,.56,.07,.56,.26,0,.16-.16,.16-.32,.16-.09,0-.65-.04-.78-.04-.36,0-2.05,.03-2.34,.07-.07,0-.25,.03-.41,.09-.11,.05-.14,.06-.19,.06s-.08,0-.22-.19c-.04-.05-.17-.23-.17-.48,0-.09,0-.17,.05-.26,.08,.24,.21,.4,.35,.44Z"/><path class="cls-23" d="M94.15,6.36c.36-.35,.64-.79,.84-1.27,.3-.74,.31-1.36,.31-1.91s0-.61-.42-.72c.06-.07,.16-.17,.3-.17,.19,0,.52,.17,.52,.32,0,.04-.04,.21-.05,.25,0,.1-.01,.55-.02,.63-.04,.65-.12,1.42-.62,2.15-.18,.27-.45,.58-.83,.76l-.03-.05Zm4.87-3.09c-.32,.92-.99,1.64-1.67,2.25-.07,.06-.39,.3-.44,.37-.15,.22-.17,.25-.23,.25-.11,0-.34-.48-.34-.55,0-.04,.05-.23,.06-.26,.04-.24,.05-.6,.05-1.49,0-.28,0-1.3-.03-1.52-.02-.15-.05-.23-.4-.39,.06-.04,.16-.12,.28-.12,.16,0,.41,.17,.52,.28,.03,.03,.06,.07,.06,.13,0,.04-.05,.2-.05,.23-.02,.09-.05,.29-.07,.49-.02,.44-.03,1.9-.03,2.38,0,.1,0,.11,.02,.11,.07,0,1.17-.6,2.23-2.2l.04,.04Z"/><path class="cls-23" d="M99.3,6.7c1.26-.69,2.61-2.33,3.12-3.88-.17,.01-.96,.14-1.12,.14-.08,0-.17-.01-.36-.12-.14,.23-.37,.58-.77,.98-.2,.2-.48,.45-.81,.6l-.02-.05c.95-.87,1.58-2.16,1.58-2.41,0-.13-.11-.2-.33-.33,.05-.02,.14-.05,.3-.05,.11,0,.18,0,.47,.23,.11,.09,.13,.11,.13,.18,0,.06-.02,.1-.09,.17-.09,.1-.11,.12-.37,.53,.05,0,.15,.01,.22,.01,.3,0,1.04-.09,1.18-.19,.03-.02,.16-.14,.19-.14,.03,0,.05,.01,.08,.05,.25,.23,.37,.33,.37,.43,0,.04-.01,.04-.14,.12-.2,.12-.23,.14-.36,.46-.83,1.92-2.07,2.93-3.25,3.3v-.05Z"/><path class="cls-23" d="M103.99,2.19c.14,0,.23,.05,.47,.21,.09,.06,.18,.07,.29,.07,.05,0,1.9-.14,2.08-.16,.26-.03,.32-.09,.36-.13,.08-.07,.08-.07,.11-.07,.08,0,.44,.36,.47,.41,0,.01,.01,.03,.01,.05,0,.07-.03,.09-.13,.17-.1,.07-.13,.11-.19,.53-.11,.8-.13,.91-.27,1.78,0,.01,0,.04,0,.07,0,.06,.02,.08,.12,.17,.08,.08,.14,.14,.14,.23,0,.11-.1,.11-.11,.11-.01,0-.05,0-.11-.01-.29-.05-.48-.09-.96-.09-.26,0-1.42,.07-1.65,.07,0,.18,.01,.36-.13,.36-.2,0-.25-.49-.25-.53,0-.07,.03-.39,.03-.45,0-.65-.1-2-.16-2.29-.05-.24-.16-.29-.39-.39,.07-.05,.16-.11,.28-.11Zm.6,3.04s0,.09,0,.11c.27-.01,1.59-.06,1.88-.07,.18,0,.3-.02,.41-.03,.04-.39,.26-2.26,.26-2.5,0-.15-.05-.17-.14-.17h-.03c-1.17,0-1.21,.07-1.79,.13-.04,0-.38,.03-.38,.03-.05,0-.08,0-.13-.02-.05-.02-.15-.05-.15-.05-.04,0-.04,.06-.04,.09l.06,1.36,.04,1.14Z"/><path class="cls-23" d="M108.26,6.24c1.33-.62,2.72-2.32,3.27-4-.19,.04-.99,.19-1.15,.23-.24,.07-.49,.14-.69,.26-.08,.05-.11,.07-.14,.07-.08,0-.18-.16-.25-.27-.06-.09-.11-.19-.11-.32,0-.09,.03-.2,.05-.29,.03,.06,.05,.13,.13,.22,.1,.13,.16,.17,.29,.17,.26,0,1.48-.19,1.66-.27,.07-.03,.1-.05,.24-.15,.05-.04,.07-.04,.08-.04,.06,0,.47,.35,.47,.45,0,.08-.04,.09-.23,.16-.03,0-.05,.05-.07,.09-.33,.83-.66,1.33-.84,1.6,.78,.42,1.76,1.15,1.76,1.81,0,.05,0,.26-.18,.26-.09,0-.13-.07-.17-.15-.4-.73-.8-1.32-1.48-1.82-.37,.53-1.24,1.72-2.63,2.04v-.05Z"/></g><g><path class="cls-23" d="M82.53,49.51c0,.15-.11,.15-.2,.15-.11,0-.62-.03-.72-.03-.41,0-1.5,.06-1.84,.18-.04,.01-.23,.11-.28,.11-.21,0-.45-.43-.45-.64,0-.09,.02-.15,.05-.22,.21,.34,.31,.41,.5,.41,.05,0,2.19-.14,2.34-.15,.19-1.28,.32-2.25,.32-2.51,0-.06-.02-.07-.07-.07-.04,0-2,.15-2.42,.29-.04,0-.19,.11-.22,.11-.16,0-.46-.39-.46-.66,0-.14,.03-.21,.05-.27,.05,.09,.11,.21,.23,.34,.13,.13,.2,.13,.29,.13,.31,0,2.21-.13,2.45-.19,.1-.02,.13-.05,.24-.13,.02-.03,.05-.03,.08-.03,.05,0,.28,.24,.34,.3,.04,.04,.1,.11,.1,.19,0,.07-.04,.09-.17,.17-.07,.04-.09,.07-.11,.17-.07,.37-.17,.95-.36,2.13,.12,.01,.28,.1,.28,.23Z"/><path class="cls-23" d="M85.26,46.69s-.03,.23-.2,.23c-.11,0-.16-.05-.34-.26-.33-.37-.63-.53-.96-.71,.72-.01,1.51,.33,1.51,.75Zm2.49-.11c-.45,.98-1.14,1.78-1.91,2.46-.27,.25-.51,.43-.83,.67-.17,.13-.19,.16-.38,.41-.04,.05-.08,.1-.16,.1-.2,0-.56-.51-.56-.79,0-.11,.05-.2,.08-.28,.11,.27,.26,.43,.38,.43,.19,0,.75-.44,.97-.62,1.29-1.05,1.7-1.54,2.38-2.4l.04,.03Z"/><path class="cls-23" d="M88.09,50.74c1.26-.69,2.61-2.33,3.12-3.88-.17,.01-.96,.14-1.12,.14-.08,0-.17-.01-.36-.12-.14,.23-.37,.58-.77,.98-.2,.2-.48,.45-.81,.6l-.02-.05c.95-.87,1.58-2.16,1.58-2.41,0-.13-.11-.2-.33-.33,.05-.02,.14-.05,.3-.05,.11,0,.18,0,.47,.23,.11,.09,.13,.11,.13,.18,0,.06-.02,.1-.09,.17-.09,.1-.11,.12-.37,.53,.05,0,.15,.01,.22,.01,.3,0,1.04-.09,1.18-.19,.03-.02,.16-.14,.19-.14,.03,0,.05,.01,.08,.05,.25,.23,.37,.33,.37,.43,0,.04-.01,.04-.14,.12-.2,.12-.23,.14-.37,.46-.83,1.92-2.07,2.93-3.25,3.3v-.05Z"/><path class="cls-23" d="M93.16,48.09v.21c0,.09,0,.43-.17,.43s-.21-.37-.21-.53c0-.07,0-.1,.04-.35,.01-.09,.02-.19,.02-.63,0-.21,0-.75-.05-.89-.04-.11-.08-.13-.4-.23,.13-.11,.22-.15,.32-.15,.1,0,.54,.09,.54,.29,0,.04-.06,.23-.06,.27-.03,.23-.04,.89-.04,1.42v.17Zm.44,2.75c1.18-.99,1.41-1.86,1.41-3.96,0-.18,0-.84-.07-.95-.07-.13-.35-.17-.45-.18,.08-.09,.19-.2,.36-.2,.19,0,.49,.12,.56,.2,.04,.04,.04,.09,.04,.11,0,.05-.06,.27-.07,.31-.02,.11-.02,.25-.02,.41-.04,1.63-.05,1.87-.19,2.46-.07,.27-.36,1.4-1.55,1.85l-.02-.05Z"/><path class="cls-23" d="M96.85,47.89c.08,.03,.14,.03,.67,.03,.11,0,2.09-.01,2.51-.07,.11-.01,.12-.01,.19-.05,.04-.01,.07-.02,.11-.02,.03,0,.56,.07,.56,.26,0,.16-.16,.16-.32,.16-.09,0-.65-.04-.78-.04-.36,0-2.05,.03-2.34,.07-.07,0-.25,.03-.41,.09-.11,.05-.14,.06-.19,.06s-.08,0-.22-.19c-.04-.05-.17-.23-.17-.48,0-.09,0-.17,.05-.26,.08,.24,.21,.4,.35,.44Z"/><path class="cls-23" d="M103.98,48.14c.09,.09,.14,.23,.14,.38,0,.16-.05,.25-.14,.25-.08,0-.14-.07-.27-.22-.43-.51-.88-.82-1.32-1.06,0,.61-.01,1.22-.01,1.83,0,.14,.02,.75,.02,.87,0,.32,0,.61-.18,.61-.2,0-.25-.43-.25-.5,0-.01,.05-.35,.05-.39,.05-.36,.09-2.79,.09-3.04,0-.21,0-.89-.04-1.06-.04-.17-.2-.24-.49-.33,.21-.15,.38-.15,.39-.15,.09,0,.6,.13,.6,.35,0,.03-.06,.23-.09,.35-.07,.23-.07,1.02-.08,1.32,.45,.11,1.2,.39,1.58,.79Z"/><path class="cls-23" d="M81.19,56.26c-.16,0-.19-.15-.22-.26-.03-.12-.05-.17-.07-.23-.17,.05-.35,.09-.63,.15,0,1.58,0,1.76,.01,2.11,0,.09,.03,.47,.03,.53,0,.17-.19,.27-.25,.27-.1,0-.12-.1-.12-.2,0-.07,.03-.35,.03-.41,.03-.75,.02-1.95,.02-2.24-.61,.13-.68,.15-.81,.18,0,.03-.06,.19-.12,.19-.01,0-.08,0-.1-.09l-.12-.51c.16,.05,.25,.05,.41,.05,.14,0,.33,0,.55-.02,.16-.23,.92-1.4,.91-1.99l.5,.26s.05,.05,.05,.1-.01,.1-.24,.14c-.35,.56-.84,1.19-1.08,1.48,.31-.02,.62-.04,.93-.09-.08-.17-.16-.29-.25-.4l.04-.04c.25,.15,.74,.45,.74,.77,0,.13-.07,.25-.2,.25Zm-1.58,.69c-.21,.66-.39,1.04-.74,1.49l-.03-.02c.25-.54,.48-1.52,.46-1.86l.45,.18s.07,.03,.07,.07c0,.04-.04,.07-.21,.14Zm.75-3.67c-.16,.25-.22,.33-.71,1.01,.21,.15,.32,.34,.32,.49,0,.12-.06,.29-.2,.29-.11,0-.15-.09-.28-.41-.13-.33-.27-.47-.38-.59v-.03c.28,.09,.37,.15,.47,.19,.16-.33,.44-.95,.44-1.33,0-.05,0-.11-.01-.15l.53,.29s.05,.03,.05,.09c0,.09-.04,.12-.23,.15Zm.72,4.48c-.13,0-.15-.09-.22-.37-.09-.38-.14-.47-.33-.75v-.02c.56,.3,.78,.63,.78,.84,0,.16-.1,.29-.23,.29Zm2.94-3.07c-.1,.06-.13,.08-.17,.12,.01,.94,0,2.51-.34,3.32-.19,.45-.49,.65-.9,.7-.02-.15-.07-.33-.57-.67v-.03c.12,.02,.66,.13,.78,.13,.17,0,.28-.07,.4-.35,.32-.76,.32-2.2,.32-2.68,0-.29,0-.49-.01-.64h-1.74c-.09,.19-.32,.71-.54,.97l-.04-.03c.31-.69,.68-1.94,.68-2.47,0-.14-.01-.17-.02-.23l.59,.26s.04,.04,.04,.07c0,.05-.01,.08-.02,.1-.02,.01-.18,.1-.21,.13-.11,.32-.2,.58-.4,1.04h1.61l.14-.17c.05-.05,.06-.07,.08-.07,.01,0,.04,.02,.08,.05l.29,.29s.04,.06,.04,.08c0,.03-.03,.05-.07,.07Zm-1.66,2.13c-.16,0-.2-.13-.29-.45-.1-.37-.25-.53-.32-.61l.02-.04c.45,.23,.78,.44,.78,.8,0,.04,0,.29-.2,.29Z"/><path class="cls-23" d="M85.1,58.35v-.21h.21c.39,0,.59-.2,.59-.65v-2.99c0-.43-.14-.63-.59-.63h-.2v-.18h.1c.36,0,.8-.18,.92-.25,.04-.03,.09-.06,.13-.06,.03,0,.04,.03,.04,.07v4.04c0,.38,.14,.65,.53,.65h.27v.21h-1.97Z"/><path class="cls-23" d="M88.88,58.48c-.71,0-1.12-.58-1.12-1,0-.21,.12-.39,.31-.39,.14,0,.26,.14,.26,.37,0,.09-.04,.27-.04,.32,0,.23,.22,.47,.62,.47,.76,0,.99-.86,.99-1.46,0-.56-.15-1.27-.89-1.27-.42,0-.67,.26-.96,.58l-.09-.07,.11-2.54h2.06l-.11,.43h-1.78l-.08,1.82c.13-.15,.23-.25,.46-.37,.19-.09,.37-.13,.51-.13,.46,0,1.22,.42,1.22,1.49s-.7,1.74-1.47,1.74Z"/><path class="cls-23" d="M92.05,58.48c-.84,0-1.35-1.2-1.35-2.55s.49-2.55,1.35-2.55,1.35,1.2,1.35,2.55-.5,2.55-1.35,2.55Zm0-4.92c-.45,0-.9,.63-.9,2.36s.46,2.37,.9,2.37c.42,0,.9-.55,.9-2.37s-.48-2.36-.9-2.36Z"/><path class="cls-23" d="M97.31,58.35v-.21h.14c.26,0,.34-.19,.34-.49v-1.63c0-.39-.18-.64-.54-.64-.48,0-.79,.41-.93,.61v1.66c0,.26,.07,.49,.36,.49h.14v.21h-1.34v-.21h.13c.26,0,.34-.19,.34-.49v-1.58c0-.45-.16-.68-.57-.68-.44,0-.69,.3-.85,.49v1.78c0,.26,.08,.49,.36,.49h.1v.21h-1.27v-.21h.11c.26,0,.33-.2,.33-.49v-1.93c0-.13-.08-.3-.22-.3-.01,0-.08,0-.17,.03l-.03-.14,.79-.26v.57c.25-.24,.54-.54,1-.54,.26,0,.66,.11,.75,.67,.25-.29,.57-.67,1.05-.67,.5,0,.82,.37,.82,.97v1.6c0,.34,.1,.49,.3,.49h.14v.21h-1.28Z"/><path class="cls-23" d="M102.52,58.35v-.21h.14c.26,0,.34-.19,.34-.49v-1.63c0-.39-.18-.64-.54-.64-.48,0-.79,.41-.93,.61v1.66c0,.26,.07,.49,.36,.49h.14v.21h-1.34v-.21h.13c.26,0,.34-.19,.34-.49v-1.58c0-.45-.16-.68-.57-.68-.44,0-.69,.3-.85,.49v1.78c0,.26,.08,.49,.36,.49h.1v.21h-1.27v-.21h.11c.26,0,.33-.2,.33-.49v-1.93c0-.13-.08-.3-.22-.3-.01,0-.08,0-.17,.03l-.03-.14,.79-.26v.57c.25-.24,.54-.54,1-.54,.26,0,.66,.11,.75,.67,.25-.29,.57-.67,1.05-.67,.5,0,.82,.37,.82,.97v1.6c0,.34,.1,.49,.3,.49h.14v.21h-1.28Z"/><path class="cls-23" d="M106.01,57.32c-.27,.21-.53,.43-.8,.64-.14,.11-.15,.13-.24,.21,0,.03-.03,.13-.04,.15,0,.03-.02,.09-.07,.09-.04,0-.05-.02-.1-.08l-.41-.51c.22-.01,.34-.02,.92-.37-.01-.28-.1-4.09-.11-4.2-.01-.12-.04-.23-.07-.33l.57,.16s.09,.03,.09,.1c0,.02,0,.05-.05,.11-.04,.03-.08,.07-.17,.16,.02,1.78,.02,1.98,.06,3.81,0,0,.92-.57,1.6-1.14l.03,.05c-.21,.23-.6,.66-1.21,1.14Zm3.36,1.03c-.17,0-.25-.19-.34-.45-.19-.53-.56-.88-.65-.96-.27,.75-1.27,1.5-2.64,1.6v-.05c.73-.16,1.46-.51,2-1.1,.49-.53,.57-1.34,.57-3.21,0-.79-.01-.83-.07-1.16l.5,.11c.06,.01,.1,.04,.1,.1s-.01,.07-.16,.19v.1s-.05,1.63-.05,1.63c-.01,.51-.08,1.3-.23,1.74,.43,.13,1.22,.65,1.22,1.14,0,.19-.12,.31-.25,.31Zm-2.14-3.47c-.19,0-.23-.17-.32-.48-.05-.18-.25-.69-.48-1v-.03c.4,.16,1,.73,1,1.18,0,.18-.08,.33-.21,.33Z"/><path class="cls-23" d="M115.53,58.33h-4.37c-.21,0-.54,.03-.77,.07l-.14-.29c.45,.04,.89,.05,.99,.05h1.29v-2.54c0-.43,0-2.17-.05-2.48-.02-.11-.04-.16-.07-.21l.59,.17s.09,.03,.09,.09c0,.07-.05,.11-.2,.23,0,.08-.01,.15-.01,.26,0,.23,0,1.26,0,1.46h1.24l.23-.33c.05-.07,.07-.08,.09-.08,.03,0,.09,.05,.11,.07l.36,.33s.06,.05,.06,.1c0,.06-.05,.07-.09,.07h-2.02c-.01,1.41-.01,1.72,0,2.85h1.92l.23-.32c.06-.08,.08-.08,.1-.08,.03,0,.09,.05,.11,.07l.34,.32s.06,.05,.06,.1c0,.06-.05,.07-.09,.07Z"/></g><g><path class="cls-23" d="M81.05,65.71h-.89c-.14,.55-.33,1.09-.54,1.62,0,.02-.01,.03-.02,.05h.02s.6,.01,.6,.01l.08-.09c.04-.06,.05-.07,.07-.07,.02,0,.02,0,.07,.05l.22,.19s.05,.05,.05,.09c0,.03,0,.04-.07,.08-.02,.01-.05,.03-.09,.08-.01,.33,0,2.06,0,2.1-.01,.11-.11,.16-.19,.16-.11,0-.12-.1-.12-.11,0-.03,.01-.12,.01-.15h-.61c0,.09,0,.7,0,.74,0,.16-.13,.31-.25,.31-.09,0-.12-.07-.12-.17,0-.03,0-.07,0-.08,.06-.81,.09-1.89,.08-2.58-.31,.59-.59,.85-.7,.96l-.04-.04c.57-.69,1.12-2.79,1.18-3.15-.28,0-.59,.03-.8,.08l-.14-.29c.45,.04,.88,.05,.99,.05h.63l.17-.2c.07-.07,.07-.09,.1-.09,.02,0,.05,.03,.1,.07l.21,.2s.06,.06,.06,.11c0,.07-.06,.07-.08,.07Zm-.8,1.84h-.61v2.01h.61v-2.01Zm2.03,.63s-.11,.03-.13,.04c-.35,.73-.65,1.33-1.09,1.96,.29-.04,.53-.09,.77-.17-.02-.06-.08-.26-.19-.49l.04-.02c.35,.21,.62,.65,.62,.96,0,.08-.04,.23-.18,.23-.19,0-.22-.23-.23-.33-.02-.16-.03-.21-.04-.25-.16,.07-.33,.15-.49,.21-.36,.14-.4,.16-.5,.19-.04,.19-.05,.21-.11,.21-.04,0-.06-.03-.08-.09l-.22-.45c.07,.01,.11,.02,.2,.02s.14,0,.29-.02c.25-.41,.79-1.76,.86-2.13,.03-.17,.04-.23,.04-.32l.46,.25s.06,.05,.06,.09c0,.04-.08,.09-.1,.09Zm-.37-1.23c-.18,.3-.47,.76-.66,.99,.23,.21,.23,.41,.23,.44,0,.15-.1,.21-.16,.21-.1,0-.12-.04-.29-.44-.07-.17-.17-.33-.29-.43l.02-.03c.21,.09,.35,.15,.42,.2,.19-.35,.39-.88,.43-1.12,.02-.13,.02-.21,.02-.3l.44,.3s.05,.05,.05,.09c0,.07-.03,.07-.2,.11Zm2.27-.61h-2.5c-.21,0-.54,.03-.77,.08l-.14-.29c.45,.04,.88,.05,.99,.05h.77c.18-.41,.4-.95,.39-1.35l.52,.33s.05,.03,.05,.07-.01,.06-.07,.08c-.04,.02-.07,.03-.19,.05-.1,.15-.31,.49-.6,.83h.96l.19-.21c.07-.07,.07-.08,.1-.08s.04,0,.11,.07l.23,.21s.06,.06,.06,.11c0,.06-.05,.07-.09,.07Zm-2.2-.44c-.15,0-.19-.13-.26-.41-.07-.27-.13-.39-.29-.57l.02-.03c.19,.04,.71,.35,.71,.75,0,.13-.05,.26-.19,.26Zm2.08,4.85c-.14,0-.19-.16-.22-.34-.02-.11-.04-.15-.05-.22-.09,.03-.36,.13-.47,.17-.12,.05-.31,.11-.46,.17-.04,.13-.06,.17-.12,.17-.05,0-.06-.03-.09-.11l-.18-.42c.07,.02,.11,.04,.33,.03,.23-.35,.63-1.32,.81-1.82,.09-.25,.09-.43,.09-.51l.42,.31s.07,.06,.07,.09c0,.04-.04,.05-.08,.07-.02,0-.11,.04-.13,.05-.27,.61-.93,1.66-1.05,1.81,.18-.01,.5-.05,.81-.13-.08-.24-.15-.37-.22-.49l.03-.02c.51,.37,.69,.61,.69,.9,0,.2-.11,.27-.19,.27Zm-.37-3.74s-.11,.05-.13,.06c-.16,.36-.54,1.01-.6,1.1,.06,.06,.22,.2,.22,.47,0,.21-.11,.25-.17,.25-.14,0-.19-.18-.23-.38-.02-.06-.09-.35-.31-.67l.03-.03c.07,.05,.18,.11,.39,.3,.16-.41,.38-1.17,.38-1.41,0-.05,0-.09-.01-.15l.46,.29s.06,.04,.06,.08,0,.05-.09,.09Z"/><path class="cls-23" d="M90.05,69.07c-.46-.07-1.32-.55-1.93-1.41h-1.22c-.3,.36-.67,.78-1.24,1.18l.24,.1h.86l.09-.11c.05-.06,.05-.07,.08-.07,.01,0,.09,.05,.1,.05l.21,.14s.04,.05,.04,.07c0,.05-.02,.06-.17,.19,0,.02,0,.09,0,.14,.01,.6,.04,.67,.04,1.15v.02c0,.2-.19,.24-.24,.24-.1,0-.1-.07-.1-.3h-.87c0,.21,0,.23-.02,.27-.05,.11-.16,.15-.22,.15-.1,0-.1-.08-.1-.13,0-.16,.02-.94,.02-1.12,0-.33,0-.56-.03-.75-.39,.25-.6,.32-.75,.37l-.03-.04c.72-.41,1.36-1.1,1.7-1.54h-.76c-.12,0-.48,.01-.77,.07l-.14-.29c.31,.03,.68,.05,.99,.05h.8c.46-.62,.57-.96,.57-1.06l.44,.2s.05,.03,.05,.07c0,.08-.04,.1-.28,.19-.1,.17-.22,.35-.41,.6h2.48l.19-.27c.04-.05,.07-.09,.1-.09,.02,0,.08,.05,.1,.07l.26,.27s.07,.06,.07,.11c0,.07-.07,.07-.1,.07h-1.9c.59,.59,1.51,.99,2.31,.93v.03c-.1,.04-.33,.13-.5,.45Zm-2.99-3.59c0,.14,.02,.77,.02,.89,0,.1,0,.14-.08,.21-.05,.05-.13,.07-.16,.07-.1,0-.1-.09-.1-.18h-.93c.01,.17,.01,.19-.01,.23-.04,.07-.14,.13-.22,.13-.09,0-.11-.07-.11-.15,0-.06,.01-.34,.01-.39,0-.17,.01-.36,.01-.55,0-.34-.01-.46-.04-.76l.33,.13h.9l.1-.1c.05-.05,.05-.06,.07-.06,.02,0,.05,.02,.08,.04l.25,.19s.04,.03,.04,.07c0,.05-.13,.17-.18,.22Zm-.32-.2h-.93v1.04h.93v-1.04Zm.06,3.82h-.87v1.21h.87v-1.21Zm2.46,.17c0,.29,.01,.63,.02,.82,0,.05,.02,.37,.02,.47,0,.21-.15,.28-.22,.28-.05,0-.11-.02-.11-.11v-.26h-.85s0,.16-.02,.21c-.04,.09-.16,.13-.22,.13-.05,0-.1-.03-.1-.11,0,0,0-.04,0-.09,0-.09,.02-.78,.02-1.14,0-.21-.01-.49-.04-.72l.35,.19h.8l.06-.09s.04-.05,.05-.05c.02,0,.05,.03,.07,.04l.25,.19s.05,.04,.05,.07c0,.03-.1,.14-.14,.18Zm.31-3.82c0,.15,.03,.86,.03,.98,0,.17-.14,.23-.25,.23-.06,0-.08-.03-.08-.19h-.99c0,.05,0,.11-.01,.13-.04,.08-.19,.11-.23,.11-.05,0-.08-.03-.08-.11,0-.02,0-.1,0-.12,0-.1,0-.21,0-.43,0-.41,0-.77-.04-1.1l.37,.16h.93l.11-.13s.06-.05,.07-.05c.02,0,.06,.02,.08,.04l.23,.2s.04,.05,.04,.09c0,.05-.02,.06-.19,.18Zm-.6,3.63h-.85v1.22h.85v-1.22Zm.3-3.81h-.99v1.04h.99v-1.04Z"/><path class="cls-23" d="M93.56,66.18h-.74c0,.14,.02,.9,.02,.91,0,.09-.01,.15-.06,.19-.08,.05-.16,.07-.2,.07-.05,0-.06-.03-.06-.08,0-.03,0-.59,0-1.08h-.57c-.09,.59-.28,1.07-.93,1.52l-.02-.03c.39-.47,.65-.95,.65-1.9,0-.34-.04-.57-.06-.71l.45,.26c.1-.03,.32-.08,.71-.24,.28-.11,.32-.16,.4-.27l.34,.33s.05,.07,.05,.08c0,.04-.03,.1-.12,.1-.06,0-.11-.02-.14-.04-.42,.08-.86,.11-1.28,.14-.01,.3-.02,.39-.04,.6h1.13l.09-.16c.04-.07,.06-.09,.09-.09,.02,0,.04,.01,.11,.07l.2,.17s.06,.05,.06,.1c0,.06-.05,.07-.09,.07Zm1.64,1.71c0,.26,0,.57,.04,1.33,0,.15,.02,.37,.02,.52,0,.09-.02,.13-.09,.16-.05,.03-.11,.05-.15,.05-.05,0-.1-.04-.1-.07v-.1h-2.05l.38,.32c.05,.04,.05,.07,.05,.09,0,.1-.04,.1-.31,.09-1,.49-1.16,.58-1.91,.7v-.07c.52-.15,1.21-.61,1.58-.9,.12-.1,.16-.16,.2-.23h-.48s0,.11-.04,.15c-.04,.04-.14,.08-.2,.08-.07,0-.11-.06-.11-.14s.03-.42,.03-.49c0-.17,0-.33,0-.49,0-.25-.01-1.34-.01-1.56l.42,.27h2.37l.11-.11s.07-.06,.09-.06,.04,.01,.05,.03l.23,.18s.05,.05,.05,.09c0,.06-.09,.11-.19,.17Zm-.29-.13h-2.54v.49h2.54v-.49Zm0,.65h-2.54v.49h2.54v-.49Zm0,.65h-2.54v.57h2.54v-.57Zm1.21-2.87h-.86c0,.11,.01,.28,.01,.39,0,.15,.02,.38,.02,.53,0,.17-.16,.21-.21,.21-.07,0-.11-.05-.11-.11,0-.35,0-.67,0-1.02h-.78c-.1,.57-.36,.99-.96,1.26l-.02-.04c.64-.43,.73-1.36,.73-1.76,0-.22-.02-.37-.05-.65l.4,.23c.23-.05,.52-.15,.69-.21,.32-.13,.36-.2,.43-.29l.37,.31c.05,.05,.07,.06,.07,.09,0,.1-.09,.1-.11,.1-.04,0-.1-.02-.14-.03-.21,.03-1.15,.11-1.35,.13,0,.23,0,.39-.04,.69h1.35l.16-.22c.07-.07,.07-.09,.1-.09,.04,0,.09,.05,.11,.08l.2,.21s.06,.06,.06,.1c0,.07-.05,.07-.09,.07Zm-.45,4.74c-.16,0-.34-.19-.36-.21-.25-.27-.5-.53-1.12-.72l.02-.05c.47,.04,1.08,.17,1.47,.43,.11,.08,.19,.19,.19,.35,0,.13-.09,.2-.2,.2Z"/><path class="cls-23" d="M96.77,68.2c.99-1.06,1.5-2.27,1.5-2.45,0-.21-.23-.33-.34-.38,.09-.03,.14-.05,.22-.05,.37,0,.64,.34,.64,.46,0,.08-.04,.11-.16,.21-.03,.03-.04,.05-.16,.26,.07,.01,.11,.02,.26,.02,.29,0,.69-.07,.98-.13,.05-.01,.09-.05,.2-.13,.05-.04,.07-.05,.08-.05,.05,0,.16,.11,.21,.17,.19,.19,.22,.22,.22,.27,0,.07-.06,.1-.14,.14-.13,.06-.19,.13-.35,.51-.43,1.04-1.03,1.94-1.54,2.44-.68,.66-1.31,.88-1.6,.99l-.02-.05c1.38-.95,1.87-1.67,2.11-2.03-.07,0-.14-.05-.26-.2-.35-.43-.47-.59-.87-.83-.41,.55-.78,.77-.98,.88l-.02-.05Zm3.06-1.82c-.17,.01-.98,.15-1.17,.15-.1,0-.23-.05-.3-.09-.14,.23-.34,.56-.42,.69-.06,.09-.08,.13-.11,.17,.38,.09,1.2,.33,1.17,.95,.26-.42,.51-.92,.83-1.86Z"/><path class="cls-23" d="M100.85,68.79c1.42-1.12,2.56-2.34,3.04-3.07,.09-.14,.1-.21,.1-.25,0-.05,0-.12-.09-.19-.04-.03-.19-.13-.22-.15,.06-.02,.13-.05,.22-.05,.25,0,.47,.19,.59,.33,.07,.08,.11,.13,.11,.22,0,.07-.04,.09-.12,.13-.1,.04-.11,.06-.29,.25-.65,.72-.72,.8-.95,1.04,.12,.06,.3,.15,.3,.26,0,.03-.06,.17-.07,.2-.03,.09-.03,.21-.03,.39v2.28c0,.28,0,.39-.13,.39-.2,0-.31-.38-.31-.45,0-.05,.06-.25,.07-.29,.05-.24,.08-.95,.08-1.22,0-.15-.04-1.16-.05-1.22-.01-.07-.02-.09-.07-.14-.66,.63-1.37,1.2-2.17,1.59l-.02-.03Z"/><path class="cls-23" d="M105.22,70.18c.36-.35,.64-.79,.84-1.27,.3-.74,.31-1.36,.31-1.91s0-.61-.42-.72c.06-.07,.16-.17,.3-.17,.19,0,.52,.17,.52,.32,0,.04-.04,.21-.05,.25,0,.1-.01,.55-.02,.63-.04,.65-.12,1.42-.62,2.15-.18,.27-.45,.58-.83,.76l-.03-.05Zm4.87-3.09c-.32,.92-.99,1.64-1.67,2.25-.07,.06-.39,.3-.44,.37-.15,.22-.17,.25-.23,.25-.11,0-.34-.48-.34-.55,0-.04,.05-.23,.06-.26,.04-.24,.05-.6,.05-1.49,0-.28,0-1.3-.03-1.52-.02-.15-.05-.23-.4-.39,.06-.04,.16-.12,.28-.12,.16,0,.41,.17,.52,.28,.03,.03,.06,.07,.06,.13,0,.04-.05,.2-.05,.23-.02,.09-.05,.29-.07,.49-.02,.44-.03,1.9-.03,2.38,0,.1,0,.11,.02,.11,.07,0,1.17-.6,2.23-2.2l.04,.04Z"/><path class="cls-23" d="M111.67,69.8s-.13,.01-.15,.02c-.25,.34-.91,.86-1.26,1.06l-.02-.05c.41-.38,.66-.75,.74-.86,.24-.35,.27-.51,.3-.67l.44,.32s.05,.05,.05,.09c0,.07-.07,.08-.11,.09Zm.92-4.3v1.87c0,.22,.05,1.57,.05,1.64,0,.16-.17,.28-.25,.28-.11,0-.11-.15-.11-.21h-1.09c0,.15-.2,.24-.25,.24-.11,0-.11-.12-.11-.16,0-.25,.02-.64,.03-.88,.02-.62,.02-1.11,.02-1.54,0-.4,0-1.5-.07-1.82l.45,.25h.89l.16-.13s.07-.07,.1-.07,.06,.03,.08,.05l.22,.19s.07,.06,.07,.1c0,.07-.13,.15-.19,.19Zm-.31-.17h-1.09v1.06h1.09v-1.06Zm0,1.22h-1.09v1.06h1.09v-1.06Zm0,1.22h-1.09v1.14h1.09v-1.14Zm.31,2.63c-.13,0-.16-.05-.29-.35-.19-.43-.29-.53-.4-.64l.02-.03c.24,.14,.51,.31,.59,.37,.23,.2,.26,.36,.26,.43,0,.11-.07,.23-.19,.23Zm3.19-3.76h-1.47v1.49h.69l.15-.17s.07-.08,.1-.08c.02,0,.05,.03,.09,.06l.21,.19s.08,.07,.08,.1c0,.05-.07,.1-.2,.18,.01,.24,.04,1.3,.04,1.55,0,.19,.02,.53,.02,.62,0,.23-.19,.3-.24,.3-.13,0-.13-.15-.13-.53h-1.66c0,.09,.01,.3,0,.4-.02,.1-.11,.19-.22,.19-.13,0-.13-.11-.13-.15,0-.11,.02-.59,.02-.69,0-.3,.01-.61,.01-.95s0-1.09-.05-1.33l.48,.3h.42c0-1.34,.01-2.32-.02-2.81-.01-.19-.03-.39-.09-.52l.57,.19s.1,.03,.1,.09c0,.09-.19,.18-.23,.21,0,.28-.01,1.03-.01,1.19h.78l.2-.28c.04-.05,.07-.09,.1-.09,.02,0,.07,.03,.11,.07l.32,.29s.06,.05,.06,.1c0,.06-.05,.07-.09,.07Zm-.66,1.65h-1.66v1.92h1.66v-1.92Z"/><path class="cls-23" d="M83.8,78.42c-1.14-.38-1.88-1.14-2.25-1.64-.5,.65-1.14,1.14-1.84,1.48-.38,.18-.67,.25-.86,.29v-.05c.96-.51,1.91-1.22,2.51-2.04-.39-.71-.78-2.04-.8-3.27h-.41c-.22,0-.54,.03-.77,.07l-.14-.29c.45,.04,.89,.05,1,.05h2.36l.21-.19c.07-.06,.07-.07,.09-.07,.02,0,.04,.01,.06,.03l.36,.31s.06,.07,.06,.12c0,.13-.14,.18-.34,.25-.3,1.08-.69,2.14-1.3,3.04,.63,.79,1.71,1.34,2.64,1.32v.03c-.29,.15-.45,.23-.58,.53Zm-3.15-5.22c.07,1.06,.46,2.37,.87,3.02,.42-.64,.9-1.76,1.15-3.02h-2.02Z"/><path class="cls-23" d="M86.05,75.69c-.07,.33-.25,1.3-.29,1.55,0,.06-.02,.26-.02,.34,0,.07,.02,.35,.02,.41,0,.09-.05,.15-.13,.15-.37,0-.5-1.23-.5-1.62,0-.64,.17-1.7,.29-2.33,.04-.23,.05-.31,.05-.39,0-.33-.1-.43-.26-.55,.04-.01,.08-.02,.13-.02,.31,0,.55,.38,.55,.54,0,.07,0,.1-.1,.35-.25,.68-.4,1.41-.4,2.15,0,.43,.06,.86,.08,.88,0,0,.01,.01,.02,.01,.04,0,.06-.09,.07-.11,.2-.66,.23-.73,.41-1.31,0,0,.02-.04,.02-.05h.06Zm2.24-2.17c-.01-.35-.1-.39-.41-.48,.07-.05,.19-.12,.36-.12s.33,.15,.37,.19c.05,.05,.07,.07,.07,.13,0,.05-.04,.23-.05,.27-.04,.25-.05,.53-.05,.92,.13-.03,.66-.19,.77-.19,.07,0,.29,.09,.29,.19s-.11,.14-.15,.15c-.35,.09-.89,.15-.91,.16,.01,.72,.03,1.5,.09,2.15,.63,.31,.65,.32,.77,.41,.13,.09,.25,.24,.25,.38,0,.07-.04,.18-.15,.18-.05,0-.09-.03-.2-.11-.23-.17-.57-.41-.71-.49-.14,.44-.38,.75-.93,.75-.51,0-.95-.31-.95-.69,0-.27,.2-.43,.34-.51,.2-.11,.51-.11,.61-.11,.28,0,.49,.03,.65,.06,.01-.2-.04-1.68-.05-2-.14,.02-.35,.05-.54,.05-.28,0-.62-.08-.85-.25-.1-.07-.13-.14-.16-.23,.26,.13,.48,.19,.88,.19,.1,0,.35,0,.67-.05,0-.15-.01-.83-.02-.97Zm-.62,3.44c-.26,0-.7,.1-.7,.36,0,.21,.29,.37,.63,.37,.6,0,.71-.45,.74-.58-.26-.12-.48-.15-.67-.15Z"/><path class="cls-23" d="M91.91,73.84c0,.39,0,.71,0,.98,0,.25,.03,1.59,.03,1.68,0,.09,0,.13-.04,.17-.02,.03-.09,.11-.19,.11-.11,0-.11-.09-.11-.31h-.82c0,.09,.02,.59,.02,.61,0,.3-.24,.31-.25,.31-.13,0-.13-.11-.13-.16,0-.04,.02-.29,.02-.34,.02-.67,.02-1.71,.02-2.18,0-.58,0-.94-.02-1.12-.01-.13-.04-.23-.06-.33l.44,.27h.7l.11-.15s.07-.08,.11-.08c.04,0,.06,.03,.08,.05l.22,.21s.05,.05,.05,.09c0,.05-.1,.11-.19,.17Zm-.31-.14h-.82v2.61h.82v-2.61Zm3.75,4.81c-.9-.81-1.36-2.12-1.56-3.68-.15,1.64-.76,3.37-2.63,3.78v-.03c1.33-.49,2.3-2.17,2.3-4.45h-.54c-.16,.33-.41,.88-.84,1.39l-.02-.02c.36-.67,.66-1.63,.78-2.04,.08-.31,.19-.67,.16-.95l.54,.23s.05,.05,.05,.09c0,.02,0,.05-.05,.08-.08,.05-.13,.08-.19,.11-.14,.43-.26,.71-.36,.96h1.98l.15-.17s.07-.08,.1-.08c.04,0,.08,.05,.11,.07l.35,.37s.03,.05,.03,.07c0,.11-.11,.11-.14,.11s-.16,0-.18,0c-.28,.23-.33,.27-.77,.64h-.02c.14-.3,.27-.55,.38-.85h-1.18c.06,1.72,.81,3.53,2.09,4v.05c-.35,.06-.46,.18-.57,.33Z"/><path class="cls-23" d="M97.94,73.09c-.08,.19-.25,.57-.53,1.08l.14,.08c.1,.05,.13,.07,.13,.13,0,.09-.1,.13-.14,.14,0,1.72,0,1.91,.01,2.42,0,.23,.02,1.25,.02,1.46,0,.05,0,.13-.07,.18-.07,.05-.14,.06-.19,.06-.1,0-.14-.05-.14-.2,0-.07,.02-.43,.03-.51,.03-.6,.04-.72,.04-3.45-.55,.9-.95,1.24-1.12,1.4l-.04-.05c.72-1.03,1.3-2.22,1.47-2.77,.08-.27,.08-.37,.07-.52l.47,.31c.05,.03,.08,.07,.08,.11,0,.08-.07,.1-.22,.14Zm3.64,1.64h-1.12c0,.33,0,1.44,.01,2.1,0,.17,.02,.9,.02,1.06,0,.39-.2,.61-.68,.78-.07-.21-.11-.32-.32-.43-.09-.05-.27-.17-.4-.23v-.06c.14,.04,.31,.07,.52,.07,.48,0,.51-.04,.51-.3,0-.06,0-1.2,0-1.44,0-.23,0-.53,0-.71,0-.09-.01-.7-.01-.84h-1.29c-.19,0-.52,.02-.77,.07l-.14-.29c.33,.03,.66,.05,.99,.05h1.21c0-.07-.01-1.33-.02-1.41,0-.21-.04-.3-.08-.43l.53,.15c.06,.02,.09,.04,.09,.09,0,.07-.04,.09-.2,.21,0,.09,0,.13,0,.53v.85h.53l.18-.27s.06-.09,.1-.09,.07,.03,.1,.07l.25,.27s.06,.06,.06,.11-.05,.07-.09,.07Zm-2.41,2.12c-.14,0-.16-.09-.22-.42-.05-.3-.18-.84-.35-1l.02-.04c.2,.12,.8,.6,.8,1.14,0,.24-.17,.32-.26,.32Z"/><path class="cls-23" d="M102.21,75.95c.99-1.06,1.5-2.27,1.5-2.45,0-.21-.23-.33-.34-.38,.09-.03,.14-.05,.22-.05,.37,0,.64,.34,.64,.46,0,.08-.04,.11-.16,.21-.03,.03-.04,.05-.16,.26,.07,.01,.11,.02,.26,.02,.29,0,.69-.07,.98-.13,.05-.01,.09-.05,.2-.13,.05-.04,.07-.05,.08-.05,.05,0,.16,.11,.22,.17,.19,.19,.21,.22,.21,.27,0,.07-.06,.1-.14,.14-.13,.06-.19,.13-.35,.51-.43,1.04-1.03,1.94-1.54,2.44-.68,.66-1.31,.88-1.6,.99l-.02-.05c1.38-.95,1.87-1.67,2.11-2.03-.07,0-.14-.05-.26-.2-.35-.43-.47-.59-.87-.83-.41,.55-.78,.77-.98,.88l-.02-.05Zm3.06-1.82c-.17,.01-.98,.15-1.17,.15-.1,0-.23-.05-.3-.09-.14,.23-.34,.56-.42,.69-.06,.09-.08,.13-.11,.17,.38,.09,1.2,.33,1.17,.95,.26-.42,.51-.92,.83-1.86Z"/><path class="cls-23" d="M106.29,76.54c1.42-1.12,2.56-2.34,3.04-3.07,.09-.14,.1-.21,.1-.25,0-.05,0-.12-.09-.19-.04-.03-.19-.13-.22-.15,.06-.02,.13-.05,.21-.05,.25,0,.47,.19,.59,.33,.07,.08,.11,.13,.11,.22,0,.07-.04,.09-.12,.13-.1,.04-.11,.06-.29,.25-.65,.72-.72,.8-.95,1.04,.12,.06,.3,.15,.3,.26,0,.03-.06,.17-.07,.2-.03,.09-.03,.21-.03,.39v2.28c0,.28,0,.39-.13,.39-.2,0-.31-.38-.31-.45,0-.05,.06-.25,.07-.29,.05-.24,.08-.95,.08-1.22,0-.15-.04-1.16-.05-1.22-.01-.07-.02-.09-.07-.14-.66,.63-1.37,1.2-2.17,1.59l-.02-.03Z"/><path class="cls-23" d="M110.66,77.94c.36-.35,.64-.79,.84-1.27,.3-.74,.31-1.36,.31-1.91s0-.61-.42-.72c.06-.07,.16-.17,.3-.17,.19,0,.52,.17,.52,.32,0,.04-.04,.21-.05,.25,0,.1-.01,.55-.02,.63-.04,.65-.12,1.42-.62,2.15-.18,.27-.45,.58-.83,.76l-.03-.05Zm4.87-3.09c-.32,.92-.99,1.64-1.67,2.25-.07,.06-.39,.3-.44,.37-.15,.22-.17,.25-.23,.25-.11,0-.34-.48-.34-.55,0-.04,.05-.23,.06-.26,.04-.24,.05-.6,.05-1.49,0-.28,0-1.3-.03-1.52-.02-.15-.05-.23-.4-.39,.06-.04,.16-.12,.28-.12,.16,0,.41,.17,.52,.28,.03,.03,.06,.07,.06,.13,0,.04-.05,.2-.05,.23-.02,.09-.05,.29-.07,.49-.02,.44-.03,1.9-.03,2.38,0,.1,0,.11,.02,.11,.07,0,1.17-.6,2.22-2.2l.04,.04Z"/></g><g><path class="cls-23" d="M79.52,16.86c.81-.47,1.48-1.31,1.74-1.7,.54-.81,.77-1.68,.92-2.3-1.27,.07-2.48,.3-2.59,.35-.1,.05-.13,.06-.19,.11-.07,.04-.1,.05-.11,.05-.07,0-.17-.13-.23-.2-.07-.09-.2-.25-.2-.49,0-.06,0-.1,.03-.19,.11,.18,.27,.32,.31,.34,.1,.05,.13,.05,.27,.05,.25,0,2.56-.25,2.64-.28,.04-.02,.21-.17,.23-.17,.05,0,.47,.37,.47,.49,0,.05-.02,.05-.19,.16-.11,.07-.13,.11-.2,.31-.4,1.19-.65,1.77-1.29,2.45-.46,.48-.99,.88-1.6,1.07l-.02-.05Zm3.72-4.25c-.31,0-.56-.28-.56-.62s.25-.62,.56-.62,.56,.29,.56,.62-.25,.62-.56,.62Zm0-1.03c-.2,0-.37,.19-.37,.41s.16,.41,.37,.41,.37-.19,.37-.41-.17-.41-.37-.41Z"/><path class="cls-23" d="M84.74,16.96c1.49-.73,2.42-2.41,2.57-3.39-.46,.04-2.17,.22-2.44,.41-.11,.09-.13,.09-.17,.09-.16,0-.56-.39-.56-.74,0-.05,0-.11,.03-.21,.14,.25,.36,.43,.65,.43,.22,0,2.22-.18,2.37-.22,.05-.01,.11-.03,.26-.18,.04-.04,.06-.05,.08-.05,.07,0,.47,.33,.47,.46,0,.07-.02,.07-.19,.17-.12,.07-.13,.08-.2,.29-.05,.15-.52,1.41-1.39,2.2-.42,.39-.93,.67-1.47,.78v-.05Zm.6-4.68c.3,0,1.22-.11,1.46-.2,.19-.08,.22-.09,.28-.09,.1,0,.42,.04,.42,.21s-.17,.18-.63,.21c-.28,.02-1.65,.18-1.78,.18-.12,0-.41-.15-.46-.63,.27,.25,.36,.31,.71,.31Z"/><path class="cls-23" d="M88.43,16.49c1.33-.62,2.72-2.32,3.27-4-.19,.04-.99,.19-1.15,.23-.24,.07-.49,.14-.69,.26-.08,.05-.11,.07-.14,.07-.08,0-.18-.16-.25-.27-.06-.09-.11-.19-.11-.32,0-.09,.03-.2,.05-.29,.03,.06,.05,.13,.13,.22,.1,.13,.16,.17,.29,.17,.26,0,1.48-.19,1.66-.27,.07-.03,.1-.05,.24-.15,.05-.04,.07-.04,.08-.04,.06,0,.47,.35,.47,.45,0,.08-.04,.09-.23,.16-.03,0-.05,.05-.07,.09-.33,.83-.66,1.33-.84,1.6,.78,.42,1.76,1.15,1.76,1.81,0,.05,0,.26-.18,.26-.09,0-.13-.07-.17-.15-.4-.73-.8-1.32-1.48-1.82-.37,.53-1.24,1.72-2.63,2.04v-.05Z"/><path class="cls-23" d="M93.46,14.63c.99-1.06,1.5-2.27,1.5-2.45,0-.21-.23-.33-.34-.38,.09-.03,.14-.05,.22-.05,.37,0,.64,.34,.64,.46,0,.08-.04,.11-.16,.21-.03,.03-.04,.05-.16,.26,.07,.01,.11,.02,.26,.02,.29,0,.69-.07,.98-.13,.05-.01,.09-.05,.2-.13,.05-.04,.07-.05,.08-.05,.05,0,.16,.11,.21,.17,.19,.19,.22,.22,.22,.27,0,.07-.06,.1-.14,.14-.13,.06-.19,.13-.35,.51-.43,1.04-1.03,1.94-1.54,2.44-.68,.66-1.31,.88-1.6,.99l-.02-.05c1.38-.95,1.87-1.67,2.11-2.03-.07,0-.14-.05-.26-.2-.35-.43-.47-.59-.87-.83-.41,.55-.78,.77-.98,.88l-.02-.05Zm3.06-1.82c-.17,.01-.98,.15-1.17,.15-.1,0-.23-.05-.3-.09-.14,.23-.34,.56-.42,.69-.06,.09-.08,.13-.11,.17,.38,.09,1.2,.33,1.17,.95,.26-.42,.51-.92,.83-1.86Z"/><path class="cls-23" d="M98.31,14.1c.08,.03,.14,.03,.67,.03,.11,0,2.09-.01,2.51-.07,.11-.01,.12-.01,.19-.05,.04-.01,.07-.02,.11-.02,.03,0,.56,.07,.56,.26,0,.16-.16,.16-.32,.16-.09,0-.65-.04-.78-.04-.36,0-2.05,.03-2.34,.07-.07,0-.25,.03-.41,.09-.11,.05-.14,.06-.19,.06s-.08,0-.22-.19c-.04-.05-.17-.23-.17-.48,0-.09,0-.17,.05-.26,.08,.24,.21,.4,.35,.44Z"/><path class="cls-23" d="M103.2,15.94c-.17,0-.19-.19-.19-.25,0-.18,.11-.25,.37-.43,.35-.23,.58-.65,.77-1.02-.03,.93-.69,1.7-.95,1.7Zm1.06-.1c.1,.03,.54,.17,.63,.19,.04,0,.11,.03,.15,.03,.01,0,.05,0,.07-.05,.02-.06,.02-.73,.02-.85,0-.37,0-.64-.01-1.65-.48,.07-1.06,.15-1.41,.32-.1,.05-.13,.06-.17,.06-.07,0-.44-.26-.44-.65,0-.07,.01-.16,.02-.23,.15,.21,.29,.42,.56,.42,.05,0,1.3-.09,1.44-.11,0-.17,0-.96-.02-1.06-.02-.2-.04-.33-.53-.4,.05-.04,.21-.17,.35-.17,.19,0,.65,.23,.65,.37,0,.03-.01,.07-.12,.33-.05,.12-.06,.73-.07,.9,.14-.01,1.24-.1,1.31-.11,.04,0,.23-.08,.28-.08,.07,0,.53,.14,.53,.34,0,.04-.01,.16-.13,.16-.03,0-.45-.09-.54-.11-.26-.05-.5-.07-.8-.07-.32,0-.56,.03-.66,.04,0,.6,0,1.79,.03,2.33,0,.11,0,.12,0,.18,0,.18,0,.85-.26,.85-.08,0-.09-.04-.19-.29-.06-.15-.08-.17-.16-.23-.36-.31-.45-.38-.56-.45v-.03Zm3.19-.27c0,.12-.07,.25-.16,.25-.1,0-.13-.05-.35-.41-.34-.55-.5-.72-.97-1.2,.71,.17,1.47,.97,1.47,1.36Zm-.27-3.48c.1,.06,.28,.18,.28,.42,0,.11-.05,.17-.13,.17s-.11-.03-.33-.31c-.19-.22-.28-.3-.54-.49,.11,0,.36,0,.72,.21Zm-.01-.61c.27,0,.57,.13,.69,.2,.13,.09,.18,.27,.18,.37,0,.12-.05,.17-.11,.17-.08,0-.16-.11-.31-.29-.23-.29-.49-.39-.6-.44,.08-.01,.1-.01,.16-.01Z"/><path class="cls-23" d="M108.87,14.1c.08,.03,.14,.03,.67,.03,.11,0,2.09-.01,2.51-.07,.11-.01,.12-.01,.19-.05,.04-.01,.07-.02,.11-.02,.03,0,.56,.07,.56,.26,0,.16-.16,.16-.32,.16-.09,0-.65-.04-.78-.04-.36,0-2.05,.03-2.34,.07-.07,0-.25,.03-.41,.09-.11,.05-.14,.06-.19,.06s-.08,0-.22-.19c-.04-.05-.17-.23-.17-.48,0-.09,0-.17,.05-.26,.08,.24,.21,.4,.35,.44Z"/><path class="cls-23" d="M116.11,14.7c0,.18-.08,.24-.15,.24-.08,0-.1-.02-.3-.25-.46-.51-.99-.88-1.29-1.01,0,.11,0,2.28,0,2.39,0,.09,.02,.41,.02,.48,0,.14,0,.47-.18,.47-.14,0-.24-.29-.24-.53,0-.07,.04-.31,.05-.39,.02-.15,.08-3.4,.08-3.54,0-.61-.07-.73-.54-.84,.07-.05,.2-.15,.38-.15,.19,0,.6,.17,.6,.33,0,.07-.05,.23-.07,.29-.09,.29-.1,1.03-.1,1.37,.51,.12,1.74,.57,1.74,1.14Zm-.53-2.33c.27,0,1.03,.21,1.03,.67,0,.07-.04,.19-.13,.19s-.11-.03-.31-.28c-.17-.23-.35-.35-.74-.57,.01,0,.1,0,.14,0Zm.62-.47c.21,0,.48,.06,.65,.15,.19,.09,.26,.27,.26,.4,0,.07-.02,.19-.1,.19-.05,0-.07-.01-.23-.16-.32-.29-.48-.38-.78-.56,.08-.01,.13-.01,.2-.01Z"/></g><g><path class="cls-23" d="M84.19,29.16h-4.34c-.12,0-.48,.02-.77,.08l-.14-.29c.31,.03,.68,.05,.99,.05h1.5v-1.56h-1.01c-.12,0-.48,.01-.77,.07l-.14-.29c.31,.03,.68,.05,.99,.05h2.37l.23-.28c.06-.07,.07-.08,.1-.08s.08,.05,.11,.07l.31,.28s.06,.05,.06,.1c0,.07-.07,.07-.09,.07h-1.82v1.56h1.69l.26-.29c.07-.07,.07-.08,.09-.08,.03,0,.09,.05,.11,.07l.31,.29s.06,.05,.06,.1c0,.07-.06,.07-.09,.07Zm-.19-2.84c-.26,.07-1.04,.06-1.37,.06-.56,0-.7-.03-.71-.32,0-.09-.01-1.32-.01-1.51h-2.08c-.02,.15-.05,.28-.13,.41-.13,.2-.3,.27-.39,.27-.13,0-.2-.11-.2-.19,0-.17,.11-.24,.33-.39,.29-.21,.31-.45,.32-.59h.07c.02,.08,.03,.11,.02,.33h1.61c.01-.55-.03-.73-.08-.94l.48,.13c.09,.03,.13,.03,.13,.11,0,.04-.02,.07-.06,.1-.02,.01-.12,.07-.14,.08v.53h1.53l.2-.19s.07-.06,.12-.06c.04,0,.07,.03,.1,.05l.33,.31c.05,.05,.07,.07,.07,.11,0,.16-.13,.16-.34,.15-.09,.06-.47,.37-.55,.42l-.02-.03c.08-.24,.1-.33,.15-.61h-1.14v.73c0,.57,0,.63,.02,.68,.01,.04,.05,.05,.08,.05,.02,0,.23,.04,.55,.04,.34,0,.63-.04,.75-.09,.14-.05,.23-.18,.34-.77h.04c.02,.08,.1,.45,.11,.53,.02,.07,.05,.09,.11,.15,.02,.02,.07,.07,.07,.15,0,.13-.18,.25-.32,.29Zm-2.9-1.22c-.36,.77-.74,1.36-1.95,1.66l-.02-.06c.8-.31,1.52-1.05,1.71-2.12l.43,.28c.05,.03,.08,.05,.08,.11,0,.1-.02,.1-.25,.14Z"/><path class="cls-23" d="M89.86,24.54h-3.72c-.4,.74-.77,1.28-1.41,1.68l-.04-.05c.68-.62,1.33-2.12,1.43-2.51,.04-.17,.03-.24,.02-.33l.53,.26s.07,.03,.07,.09c0,.07-.05,.09-.26,.18-.08,.17-.14,.29-.26,.51h2.88l.25-.32c.06-.07,.07-.08,.09-.08,.04,0,.1,.05,.11,.07l.33,.32s.06,.06,.06,.1c0,.07-.05,.07-.1,.07Zm-2.15,2.45c-.14,.24-.27,.45-.48,.74,.08,.06,.69,.55,.69,.97,0,.13-.08,.2-.16,.2-.13,0-.17-.09-.31-.33-.05-.1-.22-.32-.44-.57-.42,.51-1.05,1.18-2.21,1.5v-.05c.75-.42,1.45-.96,2-1.68-.29-.28-.61-.54-.96-.73v-.05c.22,.07,.6,.18,1.13,.54,.07-.11,.47-.67,.48-1.11l.47,.33s.07,.05,.07,.1c0,.09-.1,.1-.28,.12Zm2.42,1.92c0,.11,.02,.18,.06,.26,.05,.1,.05,.12,.05,.16,0,.15-.13,.17-.17,.17-.23,0-.91-.53-1.16-1.21-.27-.74-.26-1.48-.26-2.03h-2.4c-.12,0-.48,.01-.77,.08l-.14-.29c.31,.03,.68,.05,.99,.05h2.17l.25-.26c.06-.06,.07-.07,.08-.07,.04,0,.08,.04,.1,.07l.25,.25s.05,.05,.05,.08c0,.05-.07,.09-.26,.18,0,.12,0,.21,0,.36,0,.85,.13,1.34,.42,1.78,.02,.04,.16,.23,.27,.23,.07,0,.1-.03,.13-.09,.19-.27,.27-.46,.42-.79l.04,.03c-.06,.29-.13,.88-.13,1.04Zm-1.13-3.48h-1.94c-.21,0-.54,.03-.77,.08l-.14-.29c.45,.04,.89,.05,.99,.05h1.22l.2-.27s.06-.08,.09-.08c.04,0,.11,.07,.11,.07l.26,.27s.06,.06,.06,.11c0,.06-.05,.07-.09,.07Z"/><path class="cls-23" d="M95.62,24.05c0,.09,0,.19,.01,.32,0,.09,.02,.23,.02,.31,0,.13-.14,.25-.23,.25-.09,0-.1-.05-.1-.15h-3.51c0,.85,0,3.45-.93,4.36l-.04-.03c.35-.55,.48-1.65,.55-2.28,.07-.69,.07-1.39,.07-2.08,0-.77-.03-.96-.07-1.18l.47,.22h3.39l.11-.14c.05-.07,.06-.08,.08-.08,.01,0,.05,.03,.1,.06l.22,.16s.04,.05,.04,.07c0,.06-.03,.09-.19,.19Zm-.3-.1h-3.51c0,.09,0,.57,0,.67h3.51v-.67Zm.44,2.06c0,.23,.02,.86,.03,1.01,0,.03,.01,.18,.01,.21,0,.18-.21,.21-.22,.21-.11,0-.11-.09-.12-.13h-3.01c0,.2-.18,.2-.21,.2-.09,0-.12-.07-.12-.16,0-.05,0-.17,0-.18,.01-.15,.02-.38,.02-.73,0-.48,0-.66-.04-.89l.38,.18h1.9c.16-.25,.26-.46,.3-.57,.07-.17,.07-.24,.07-.35l.39,.29s.07,.05,.07,.09c0,.07-.13,.08-.21,.09-.13,.13-.35,.33-.48,.46h.86l.08-.12c.07-.08,.08-.09,.11-.09,.02,0,.03,0,.09,.05l.19,.18s.07,.07,.07,.11c0,.04-.02,.05-.17,.15Zm-1.97-.12h-1.34v.52h1.34v-.52Zm0,.68h-1.34v.58h1.34v-.58Zm1.54,1.5c0,.15,.02,.92,.02,1.09,0,.09,0,.3-.23,.3-.1,0-.1-.03-.1-.25h-2.15c.02,.23-.13,.31-.21,.31-.13,0-.13-.12-.13-.17s.04-.75,.04-.89c0-.26,0-.66-.05-.9l.37,.19h2.05l.1-.12s.06-.08,.1-.08c.02,0,.04,.01,.1,.07l.17,.15c.07,.05,.08,.06,.08,.1,0,.07-.1,.15-.17,.21Zm-2-2.45c-.12,0-.17-.13-.23-.27-.07-.17-.16-.33-.28-.45v-.05c.26,.07,.68,.23,.68,.57,0,.15-.13,.19-.17,.19Zm1.69,2.29h-2.15v.51h2.15v-.51Zm0,.67h-2.15v.48h2.15v-.48Zm.44-2.68h-1.35v.52h1.35v-.52Zm0,.68h-1.35v.58h1.35v-.58Z"/></g><g><path class="cls-23" d="M81.26,36.15c-.39,.65-.64,1.08-1.05,1.54-.49,.55-.83,.74-1.4,1.04l-.02-.05c.29-.23,.99-.84,1.45-1.5,.35-.51,.59-.95,.69-1.28h-.5c-.13,0-.48,.01-.77,.08l-.14-.29c.31,.03,.69,.05,1,.05h.44l.16-.16s.05-.04,.07-.04c.04,0,.06,.02,.08,.05l.24,.3s.04,.05,.04,.09c0,.07-.06,.1-.28,.17Zm2.6,4.9c-.22,.13-.34,.13-.9,.13-.81,0-.96,0-1.08-.25-.02-.05-.04-.11-.04-.31s0-1.04,0-1.21h-.7c-.1,1.1-.51,1.66-1.93,1.98l-.02-.07c1.21-.53,1.54-.96,1.63-1.92h-.6c-.21,0-.54,.03-.77,.07l-.14-.29c.45,.04,.89,.05,.99,.05h.53s0-.08,0-.11v-.84c-.19,0-.41,.03-.6,.07l-.14-.29c.45,.04,.88,.05,.99,.05h1.08l.15-.22s.06-.08,.09-.08,.1,.05,.12,.07l.26,.22s.07,.05,.07,.11c0,.06-.05,.07-.1,.07h-.59v.96h.8l.23-.31s.06-.08,.09-.08,.08,.05,.11,.07l.32,.31s.06,.07,.06,.1c0,.07-.05,.07-.1,.07h-1.5c0,.19-.01,1.12,0,1.21,.03,.19,.16,.22,.74,.22,.6,0,.68,0,.85-1.12h.05c.02,.22,.07,.77,.21,.87,.07,.06,.08,.07,.08,.09,0,.11-.09,.27-.23,.37Zm-3.79-3.9c-.08,0-.1-.03-.22-.24-.18-.28-.28-.37-.42-.49l.02-.05c.34,.04,.8,.25,.8,.55,0,.11-.08,.23-.17,.23Zm1.78,1.14h-.69v.96h.69v-.96Zm2.08,.11c-.42-.16-1.76-1.07-2.27-2.7l.05-.03c.23,.42,.33,.57,.41,.69,.42-.57,.5-.7,.55-.98l.39,.33c.05,.05,.06,.07,.06,.09,0,.08-.05,.08-.24,.09-.33,.28-.47,.38-.71,.55,.04,.05,.18,.27,.42,.53,.24-.21,.41-.44,.5-.56,.08-.11,.1-.17,.14-.31l.4,.35s.06,.05,.06,.11c0,.07-.05,.08-.1,.08-.05,0-.11,0-.17-.02-.47,.25-.62,.33-.78,.41,.58,.58,1.38,.89,1.89,.89v.05c-.12,.03-.44,.11-.6,.44Z"/><path class="cls-23" d="M85.51,37.94c-.14,0-.2-.14-.26-.29-.11-.27-.28-.45-.39-.56v-.02c.41,.07,.83,.24,.83,.65,0,.15-.1,.22-.18,.22Zm.63,.15c-.13,.39-.35,1.01-.48,1.4-.04,.12-.07,.23-.07,.38,0,.21,.04,.33,.19,.82,.07,.23,.09,.34,.09,.44,0,.28-.21,.29-.24,.29-.26,0-.26-.25-.26-.41,0-.05,.01-.31,0-.36,0-.33-.03-.92-.5-.99v-.04c.27-.02,.36-.05,.53-.33,.28-.45,.98-2.22,1.12-2.69l.05,.03c-.07,.23-.36,1.26-.43,1.47Zm-.03-1.72c-.14,0-.19-.13-.24-.25-.11-.27-.25-.47-.43-.62v-.03c.23,.06,.45,.12,.59,.22,.18,.14,.26,.33,.26,.45s-.07,.23-.18,.23Zm3.6,.69c.02,.97-.04,2.01-.12,2.4-.06,.28-.19,.67-.69,.76,0-.26-.17-.39-.41-.53v-.03c.14,.03,.32,.07,.42,.07,.21,0,.38-.14,.44-.69,.05-.54,.06-1.36,.06-2.16h-2.02c-.32,.52-.56,.8-.92,1.11l-.03-.03c.59-.71,1.06-2.01,1.12-2.33,.02-.12,.02-.19,.02-.27l.5,.32s.07,.07,.07,.11c0,.07-.1,.1-.25,.14-.13,.26-.24,.49-.41,.79h1.78l.19-.15s.08-.05,.08-.05c.02,0,.02,0,.09,.06l.25,.25s.05,.05,.05,.07c0,.05-.06,.09-.22,.17Zm.17,4.16c-.23,.07-1.14,.08-1.45,.08-1.3,0-1.3-.08-1.3-.82,0-.18,.02-.98,.02-1.14,0-.3-.04-.45-.06-.54l.48,.29h.78v-1.12h-.46c-.22,0-.54,.03-.77,.08l-.14-.29c.45,.05,.89,.05,1,.05h.36l.1-.13c.05-.06,.06-.07,.08-.07,.02,0,.04,.02,.08,.05l.15,.13c.08,.07,.08,.08,.08,.11,0,.03-.02,.05-.16,.16,0,.14,.02,.85,.02,1.04,0,0,.01,.09,.01,.11,0,.1-.11,.19-.23,.19s-.13-.07-.13-.15h-.89c0,.19,0,.67,0,.93,0,.71,0,.8,.38,.8,.34,0,.68,0,1.02,0,.69,0,.82-.15,.92-.39,.13-.3,.19-.59,.21-.71h.03c0,.13,.04,.63,.05,.74,.01,.11,.04,.13,.09,.15,.04,.03,.08,.05,.08,.12,0,.06-.05,.23-.35,.33Z"/><path class="cls-23" d="M93.95,41.06c1.13-.7,1.7-1.46,2.06-2.67,.16-.52,.23-.96,.23-1.02,0-.02,0-.02-.02-.02-.06,0-.3,.03-.35,.03-1.04,.08-1.53,.05-2,.12-.04,0-.19,.03-.22,.03-.01,0-.12-.05-.18-.08,.02,.27,.04,1.12,.04,1.38,0,.16-.07,.23-.13,.23-.13,0-.23-.27-.23-.37,0-.03,.02-.15,.02-.17,0-.07,.01-.21,.01-.27,0-.87-.05-.98-.35-1.22,.33-.03,.42,.04,.54,.13,.15,.11,.16,.12,.22,.12,.05,0,.66-.03,.75-.04,.16,0,.18-.01,.36-.02,0-.81-.01-.84-.04-.9-.05-.08-.1-.14-.46-.21,.06-.05,.22-.17,.37-.17,.19,0,.43,.15,.5,.2,.04,.02,.06,.05,.06,.11,0,.05-.08,.27-.09,.31-.02,.07-.03,.15-.05,.43,0,.12,0,.17,0,.21,.13,0,.97-.05,1.04-.07,.08-.01,.2-.05,.27-.11,.05-.04,.07-.05,.09-.05,.04,0,.05,.02,.22,.17,.05,.05,.23,.23,.23,.29,0,.05-.02,.07-.17,.16-.13,.07-.13,.1-.2,.35-.27,1.1-.59,1.74-1.26,2.39-.58,.57-1.05,.72-1.26,.79l-.02-.05Z"/><path class="cls-23" d="M101.54,37.64c-.59,1.06-1.35,1.82-2.75,2.69-.05,.03-.27,.16-.31,.19-.05,.05-.14,.15-.2,.24-.01,.01-.05,.05-.11,.05-.14,0-.35-.47-.35-.56,0-.05,.1-.25,.11-.29,.02-.06,.04-.16,.04-.4,.01-.58,.02-1.16,.02-1.74,0-.25,0-1.01-.03-1.2-.04-.21-.14-.29-.5-.35,.16-.11,.27-.2,.39-.2,.17,0,.61,.15,.61,.34,0,.05-.09,.29-.1,.34-.02,.13-.02,.38-.03,.52-.02,1.15-.04,1.6-.06,2.79,.55-.17,2.07-1.08,3.21-2.47l.04,.04Z"/><path class="cls-23" d="M101.87,38.76c.99-1.06,1.5-2.28,1.5-2.46,0-.21-.23-.33-.34-.38,.09-.03,.14-.05,.22-.05,.37,0,.64,.34,.64,.46,0,.08-.04,.11-.16,.21-.03,.03-.04,.05-.16,.26,.07,.01,.11,.02,.26,.02,.29,0,.69-.07,.98-.13,.05-.01,.09-.05,.2-.13,.05-.04,.07-.05,.08-.05,.05,0,.16,.11,.21,.17,.19,.19,.22,.22,.22,.27,0,.07-.06,.1-.14,.14-.13,.06-.19,.13-.35,.51-.43,1.04-1.03,1.94-1.54,2.44-.68,.66-1.31,.88-1.6,.99l-.02-.05c1.38-.95,1.87-1.67,2.11-2.03-.07,0-.14-.05-.26-.2-.35-.43-.47-.59-.87-.83-.41,.55-.78,.77-.98,.88l-.02-.05Zm3.06-1.82c-.17,.01-.98,.15-1.17,.15-.1,0-.23-.05-.3-.09-.14,.23-.34,.56-.42,.69-.06,.09-.08,.13-.11,.17,.38,.09,1.2,.33,1.17,.95,.26-.42,.51-.92,.83-1.86Z"/><path class="cls-23" d="M107.77,37.04s-.03,.23-.2,.23c-.11,0-.16-.05-.34-.26-.33-.37-.63-.53-.96-.71,.72-.01,1.51,.33,1.51,.75Zm2.49-.11c-.45,.98-1.14,1.78-1.91,2.46-.27,.25-.51,.43-.83,.67-.17,.13-.19,.16-.38,.41-.04,.05-.08,.1-.16,.1-.2,0-.56-.51-.56-.79,0-.11,.05-.2,.08-.28,.11,.27,.26,.43,.38,.43,.19,0,.75-.44,.97-.62,1.29-1.05,1.7-1.54,2.38-2.4l.04,.03Z"/></g><polygon class="cls-12" points="67.09 61.25 31.25 56 31.25 .66 67.09 5.92 67.09 61.25"/><polygon class="cls-7" points="54.87 4.13 31.25 .66 31.25 56.85 67.09 61.15 67.09 23.51 54.87 4.13"/><polygon class="cls-6" points="52.94 5.09 28.85 1.25 28.85 58.03 65.27 62.35 65.27 24.61 52.94 5.09"/><polygon class="cls-22" points="52.94 5.09 28.85 1.25 31.25 .66 54.87 4.13 52.94 5.09"/><polygon class="cls-21" points="52.94 5.09 65.27 24.61 67.09 23.51 54.87 4.13 52.94 5.09"/><polygon class="cls-17" points="65.27 62.35 65.27 24.61 67.09 23.51 67.09 61.15 65.27 62.35"/><polygon class="cls-12" points="67.09 61.15 67.09 5.92 68.18 5.23 68.18 60.34 67.09 61.15"/><polygon class="cls-3" points="46.64 5.66 24.48 2.35 24.48 59.1 63.08 63.86 63.08 33.22 46.64 5.66"/><polygon class="cls-8" points="44.74 6.63 21.8 2.99 21.8 59.77 61.24 65.06 61.24 34.32 44.74 6.63"/><polygon class="cls-19" points="44.74 6.63 21.8 2.99 24.48 2.35 46.64 5.66 44.74 6.63"/><polygon class="cls-18" points="44.74 6.63 61.24 34.32 63.08 33.22 46.64 5.66 44.74 6.63"/><polygon class="cls-20" points="61.24 65.06 61.24 34.32 63.08 33.22 63.08 63.86 61.24 65.06"/><polygon class="cls-5" points="44.71 6.61 21.8 2.99 21.8 59.77 61.23 65.06 61.23 34.32 44.71 6.61"/><polygon class="cls-10" points="29.61 13.97 4.31 7.34 4.31 64.1 46.14 75.07 46.14 43.2 29.61 13.97"/><polygon class="cls-15" points="29.61 13.97 4.31 7.34 21.8 2.99 44.71 6.61 29.61 13.97"/><polygon class="cls-13" points="29.61 13.97 46.14 43.2 61.23 34.32 44.71 6.61 29.61 13.97"/><polygon class="cls-14" points="46.14 75.07 46.14 43.2 61.23 34.32 61.24 65.06 46.14 75.07"/><line class="cls-2" x1="8" y1="8.32" x2="29.23" y2="4.17"/><line class="cls-2" x1="10.58" y1="8.99" x2="32.63" y2="4.7"/><line class="cls-2" x1="13.49" y1="9.74" x2="36.38" y2="5.33"/><polyline class="cls-2" points="48.85 13.54 42.56 36.88 32.69 48.01"/><polyline class="cls-2" points="47.8 11.69 41.5 35.01 31.64 46.14"/><polyline class="cls-2" points="46.79 9.88 40.48 33.22 30.64 44.35"/><line class="cls-2" x1="61.23" y1="46.57" x2="46.14" y2="67.49"/><line class="cls-2" x1="61.23" y1="43.87" x2="46.14" y2="64.79"/><line class="cls-2" x1="61.23" y1="41.13" x2="46.14" y2="62.05"/><polygon class="cls-9" points="43.21 62.56 43.21 51.39 34.43 49.07 34.43 37.88 24.83 35.36 24.83 12.65 4.31 7.34 4.31 64.1 45.67 75.23 45.67 63.21 43.21 62.56"/><polygon class="cls-4" points="22.81 14.29 .17 8.34 .17 19.49 22.81 25.5 22.81 14.29"/><polygon class="cls-4" points=".17 19.49 .17 30.95 22.81 36.98 22.81 25.5 .17 19.49"/><polygon class="cls-4" points=".17 30.95 .17 42.12 22.81 48.13 22.81 36.96 .17 30.95"/><polygon class="cls-4" points="32.42 39.5 22.81 36.96 22.81 48.13 32.42 50.7 32.42 39.5"/><polygon class="cls-4" points=".17 42.12 .17 53.25 22.81 59.29 22.81 48.13 .17 42.12"/><polygon class="cls-4" points="41.19 53.03 32.42 50.7 22.81 48.13 22.81 59.29 41.19 64.18 41.19 53.03"/><polygon class="cls-11" points="22.81 14.29 .17 8.34 4.31 7.34 24.83 12.65 22.81 14.29"/><polygon class="cls-12" points="67.09 5.92 31.25 .66 33.25 .17 68.18 5.23 67.09 5.92"/><polygon class="cls-16" points="22.81 25.5 22.81 36.98 24.83 35.36 24.83 23.88 22.81 25.5"/><polygon class="cls-11" points="32.42 39.5 22.81 36.98 24.83 35.36 34.43 37.88 32.42 39.5"/><polygon class="cls-16" points="32.42 39.5 32.42 50.7 34.43 49.07 34.43 37.88 32.42 39.5"/><polygon class="cls-11" points="41.19 53.03 32.42 50.7 34.43 49.07 43.21 51.39 41.19 53.03"/><polygon class="cls-16" points="41.19 53.03 41.19 64.18 43.21 62.56 43.21 51.39 41.19 53.03"/><polygon class="cls-11" points="43.67 64.83 41.19 64.18 43.21 62.56 45.67 63.21 43.67 64.83"/><polygon class="cls-16" points="43.67 64.83 43.67 76.53 45.67 75.23 45.67 63.21 43.67 64.83"/><polygon class="cls-4" points=".17 53.25 .17 65.12 22.81 71.05 22.81 59.29 .17 53.25"/><polygon class="cls-4" points="22.81 59.29 22.81 71.05 43.67 76.53 43.67 64.83 22.81 59.29"/><polygon class="cls-16" points="22.81 14.29 22.81 25.5 24.83 23.88 24.83 12.65 22.81 14.29"/><line class="cls-1" x1="76.07" y1="67.54" x2="44.62" y2="72.72"/><line class="cls-1" x1="76.07" y1="26.49" x2="64.08" y2="37.12"/><line class="cls-1" x1="76.07" y1="38.38" x2="62.15" y2="49.11"/><line class="cls-1" x1="76.07" y1="3.79" x2="62.17" y2="11.28"/><line class="cls-1" x1="76.07" y1="14.89" x2="66.24" y2="23.68"/><line class="cls-1" x1="76.07" y1="51.7" x2="52.15" y2="64.88"/></g></g></g></svg>