<?xml version="1.0" encoding="UTF-8"?><svg id="Layer_2" xmlns="http://www.w3.org/2000/svg" viewBox="0 0 99.21 79.38"><defs><style>.cls-1{stroke-width:.49px;}.cls-1,.cls-2,.cls-3{fill:none;}.cls-1,.cls-3{stroke:#d91d52;stroke-miterlimit:3.86;}.cls-4{fill:#fceddf;}.cls-5{fill:#a1957b;}.cls-6{fill:#d91d52;}.cls-7{fill:#231f20;}.cls-8{fill:#839092;}.cls-9{fill:#4c6d6f;}.cls-10{fill:#625a49;}.cls-11{fill:#d0bf9c;stroke-width:.31px;}.cls-11,.cls-2{stroke:#231f20;}.cls-2{stroke-width:.32px;}.cls-3{stroke-width:.54px;}</style></defs><g id="_情報"><path class="cls-1" d="M3.2,76.33c0,.82-.66,1.48-1.47,1.48s-1.48-.66-1.48-1.48,.67-1.49,1.48-1.49,1.47,.66,1.47,1.49Z"/><path class="cls-10" d="M31.92,68.07H3.55V19.1H31.92v48.97M.55,71.06H34.92V16.1H.55v54.96Z"/><path class="cls-11" d="M5.55,21.1v44.97H31.92V21.1H5.55"/><path class="cls-9" d="M9.43,44.52c0,.56-.45,1-1,1s-1-.45-1-1,.45-1,1-1,1,.45,1,1"/><rect class="cls-9" x="9.23" y="44.25" width="2.37" height=".54"/><path class="cls-9" d="M8.63,41.34c0,.33-.27,.6-.6,.6s-.6-.27-.6-.6,.27-.6,.6-.6,.6,.27,.6,.6"/><rect class="cls-9" x="31.92" y="27.09" width="1" height="3"/><rect class="cls-9" x="30.92" y="24.1" width="1" height="3"/><rect class="cls-9" x="31.92" y="60.07" width="1" height="2.99"/><rect class="cls-9" x="30.92" y="60.07" width="1" height="2.95"/><path class="cls-3" d="M98.13,26.94h-5.08M20.91,67.09c0,.55-.45,1-1,1s-1-.45-1-1,.45-1,1-1,1,.45,1,1ZM5.62,31.84c0,.55-.44,1-1,1s-1-.45-1-1,.45-1,1-1,1,.45,1,1Zm0-11.71c0,.55-.44,1-1,1s-1-.45-1-1,.45-1,1-1,1,.44,1,1Z"/><polyline class="cls-6" points="91.31 26.94 94.57 28.66 93.57 26.94 94.57 25.22 91.31 26.94"/><line class="cls-3" x1="42.62" y1="26.94" x2="47.71" y2="26.94"/><polyline class="cls-6" points="49.44 26.94 46.19 28.66 47.18 26.94 46.19 25.22 49.44 26.94"/><path class="cls-5" d="M81.91,19.11h5.61c.22,5.13,2.07,43.84,2.29,48.97h-7.9v3h11.02l-2.55-54.96h-8.47v3"/><path class="cls-4" d="M65.87,21.12c.16,3.56,1.97,41.4,2.13,44.97h21.72c-.15-3.57-1.97-41.41-2.12-44.97h-21.72"/><polyline class="cls-8" points="87.99 30.11 88.98 30.11 88.87 27.12 87.86 27.12 87.99 30.11"/><polyline class="cls-8" points="86.86 27.12 87.86 27.12 87.73 24.11 86.73 24.11 86.86 27.12"/><polyline class="cls-8" points="89.6 63.09 90.59 63.09 90.47 60.09 89.48 60.09 89.6 63.09"/><polyline class="cls-8" points="88.47 60.09 89.48 60.09 89.35 63.04 88.34 63.04 88.47 60.09"/><path class="cls-3" d="M89.43,67.1c0,.55-.45,1-1,1s-1-.45-1-1,.45-1,1-1,1,.45,1,1Z"/><path class="cls-10" d="M79.1,68.08h-28.37c.23-5.13,2.2-43.84,2.43-48.97h28.37c-.22,5.13-2.21,43.84-2.43,48.97M50.3,16.12l-2.7,54.96h34.37l2.7-54.96H50.3Z"/><path class="cls-5" d="M55.08,21.12c-.16,3.56-2.1,41.4-2.25,44.97h26.37c.16-3.57,2.09-41.41,2.25-44.97h-26.37"/><path class="cls-11" d="M55.08,21.12c-.16,3.56-2.03,39.91-2.19,43.47,3.06,0,23.26,1.5,26.31,1.5,.16-3.57,2.02-39.91,2.19-43.47-3.06,0-23.26-1.5-26.31-1.5"/><path class="cls-9" d="M57.8,44.54c0,.55-.44,1-1,1s-1-.45-1-1,.45-1,1-1,1,.45,1,1"/><rect class="cls-9" x="57.6" y="44.27" width="2.37" height=".54"/><path class="cls-9" d="M57.01,41.36c0,.33-.27,.6-.6,.6s-.6-.27-.6-.6,.27-.6,.6-.6,.6,.27,.6,.6"/><polyline class="cls-9" points="81.04 30.11 82.04 30.11 82.18 27.12 81.18 27.12 81.04 30.11"/><polyline class="cls-9" points="80.18 27.12 81.18 27.12 81.32 24.11 80.31 24.11 80.18 27.12"/><polyline class="cls-9" points="79.33 63.09 80.33 63.09 80.47 60.09 79.47 60.09 79.33 63.09"/><polyline class="cls-9" points="78.47 60.09 79.47 60.09 79.6 63.04 78.6 63.04 78.47 60.09"/><path class="cls-3" d="M54.73,67.1c0,.55-.44,1-1,1s-1-.45-1-1,.45-1,1-1,1,.45,1,1Zm-.3-35.24c0,.55-.45,1-1,1s-1-.45-1-1,.44-1,1-1,1,.45,1,1Zm11.27-11.71c0,.55-.45,1-1,1s-.99-.45-.99-1,.44-1,.99-1,1,.45,1,1Z"/><line class="cls-2" x1="49.51" y1="55.63" x2="44.82" y2="55.63"/><line class="cls-2" x1="33.79" y1="55.63" x2="38.48" y2="55.63"/><g><path class="cls-7" d="M43.23,32.07s-.13,.03-.15,.04c-.44,.61-.83,.95-1.23,1.18l-.02-.02c.27-.32,.64-.78,.88-1.36,.04-.1,.04-.18,.05-.28l.46,.27s.08,.05,.08,.09c0,.01,0,.05-.07,.08Zm3.92-.81h-1.82c0,.21,.03,1.14,.03,1.33,0,.36-.04,.52-.54,.72-.03-.19-.18-.35-.39-.45v-.04c.09,0,.47,.02,.51,0s.05-.07,.05-.14c0-.39,0-1.02,0-1.42h-.77c0,.73-.13,1.43-.89,2.07-.53,.45-.99,.53-1.17,.56v-.03c.56-.24,1.04-.65,1.36-1.17,.23-.36,.33-.75,.33-1.43h-1.03c-.21,0-.56,.03-.79,.07l-.14-.26c.46,.04,.9,.04,1.02,.04h1.46c0-.21,0-.42-.1-.8l.54,.13c.07,.02,.12,.04,.12,.1,0,.05-.04,.08-.06,.08q-.09,.05-.13,.09c-.02,.06-.02,.27-.02,.4h1.68l.21-.28s.06-.08,.09-.08c.04,0,.1,.05,.12,.07l.32,.28s.06,.05,.06,.09c0,.06-.05,.06-.09,.06Zm-.18,4.49c-1.15-.2-1.85-.53-2.17-.73-1.08,.73-2.12,.91-2.85,.86v-.03c.94-.07,1.84-.44,2.59-1-.28-.21-.53-.47-.67-.79-.29,.28-.96,.9-1.7,1.16v-.02c.53-.32,.99-.75,1.39-1.23,.18-.23,.4-.49,.44-.73l.45,.18s.08,.04,.08,.08c0,.02-.03,.13-.26,.12-.07,.09-.09,.11-.12,.14h1.35l.31-.22c.07-.05,.08-.06,.12-.06,.03,0,.06,.02,.07,.03l.25,.21s.06,.07,.06,.1c0,.05-.03,.07-.06,.09-.01,0-.29,.05-.35,.07-.21,.25-.48,.56-.89,.88,.47,.23,1.1,.42,1.84,.42,.25,0,.42-.02,.53-.03v.04c-.12,.05-.34,.24-.42,.47Zm-2.96-1.85s-.02,.02-.06,.07c.2,.31,.48,.54,.8,.73,.18-.14,.52-.43,.75-.79h-1.48Zm2.87-.99c-.12,0-.14-.03-.32-.29-.33-.49-.72-.76-.91-.89l.02-.04c.18,.05,.56,.16,.88,.34,.47,.28,.53,.58,.53,.69,0,.13-.09,.2-.21,.2Z"/><path class="cls-7" d="M45.32,38.82h-1.02c.01,.52,0,1.35,.02,1.87,0,.17,.01,.89,.01,1.04,0,.16-.16,.21-.3,.21-.11,0-.13-.05-.13-.11,0-.01,.02-.31,.02-.37,.03-.55,.03-1.03,.03-1.17,0-.09,.01-1.38,.01-1.47h-.69c0,1.4-.17,2.4-1.32,3.06l-.04-.05c.83-.75,1.02-1.5,1.02-3.01h-.21c-.2,0-.54,.02-.79,.07l-.15-.26c.34,.02,.68,.04,1.02,.04h.13v-1.59c-.24,0-.58,.03-.81,.07l-.15-.26c.34,.02,.68,.04,1.02,.04h1.6l.17-.22s.05-.07,.1-.07c.03,0,.04,0,.1,.06l.25,.23s.06,.05,.06,.09c0,.05-.05,.06-.09,.06h-.91v1.59h.39l.19-.24s.07-.08,.1-.08c.03,0,.07,.03,.12,.08l.26,.23s.06,.06,.06,.1c0,.05-.06,.06-.1,.06Zm-1.35-1.74h-.69v1.59h.69v-1.59Zm3.38,3.33c-.05,0-.1,0-.15-.01-.71,.7-1.34,1.22-2.55,1.6l-.02-.05c.62-.31,1.36-.87,1.86-1.37,.38-.37,.51-.57,.56-.77l.4,.43s.05,.05,.05,.09c0,.07-.08,.08-.15,.08Zm-.46-1.69c-.32,.39-1,1.08-1.99,1.5l-.03-.04c.54-.38,1.03-.84,1.45-1.35,.37-.44,.38-.55,.39-.69l.44,.4s.05,.06,.05,.1c0,.1-.13,.09-.31,.08Zm-.16-1.74c-.29,.35-.9,.99-1.51,1.3l-.04-.06c.37-.3,.79-.81,1-1.11,.26-.37,.29-.51,.32-.67l.48,.36s.05,.05,.05,.08c0,.09-.12,.09-.31,.09Z"/></g><g><path class="cls-7" d="M43.19,51.29c0,.17-.08,.22-.15,.22-.09,0-.1-.02-.31-.23-.47-.47-1.02-.81-1.32-.93,0,.1,0,2.09,0,2.2,0,.08,.02,.38,.02,.44,0,.13,0,.43-.18,.43-.14,0-.24-.27-.24-.48,0-.06,.04-.28,.06-.36,.02-.14,.09-3.13,.09-3.26,0-.56-.07-.67-.55-.78,.07-.05,.2-.14,.39-.14,.2,0,.61,.15,.61,.31,0,.06-.06,.21-.07,.27-.09,.27-.1,.95-.1,1.26,.52,.11,1.78,.53,1.78,1.05Zm-.54-2.14c.28,0,1.05,.19,1.05,.61,0,.07-.04,.18-.13,.18s-.11-.02-.31-.26c-.18-.21-.36-.32-.75-.53,.01,0,.1,0,.14,0Zm.64-.43c.21,0,.49,.05,.67,.13,.19,.08,.27,.25,.27,.37,0,.06-.02,.17-.1,.17-.05,0-.07-.01-.24-.15-.32-.26-.49-.35-.8-.51,.09-.01,.13-.01,.2-.01Z"/><path class="cls-7" d="M40.26,58.81c.95-1,1.3-2.6,1.3-3.02,0-.2-.29-.31-.39-.35,.12-.05,.19-.08,.28-.08,.23,0,.56,.18,.56,.31,0,.04-.03,.13-.04,.17,.58-.4,1.22-1.11,1.22-1.16,0-.04-.04-.04-.12-.04-.68,0-2.59,.28-2.61,.28-.18,.04-.27,.07-.4,.14-.06,.02-.09,.03-.11,.03-.06,0-.13-.05-.22-.13-.21-.19-.26-.29-.26-.44,0-.08,.01-.16,.04-.28,.21,.4,.45,.42,.61,.42,.43,0,2.81-.23,2.97-.26,.09-.02,.18-.06,.21-.07,.07-.04,.07-.05,.1-.05,.05,0,.21,.18,.27,.25,.07,.09,.22,.25,.22,.32,0,.09-.06,.1-.27,.11-.1,0-.17,.05-.44,.25-.51,.37-.72,.51-.9,.63-.12,.07-.27,.15-.36,.18-.04,.12-.17,.63-.2,.73-.1,.37-.35,1.08-.89,1.66-.24,.26-.45,.39-.54,.45l-.02-.04Z"/><path class="cls-7" d="M41.06,60.99h-.86s0,.25,0,.29c.39,.1,.75,.36,.75,.56,0,.12-.07,.2-.15,.2-.12,0-.18-.11-.31-.34-.04-.08-.15-.23-.29-.35v.13c0,.5,0,2.69,.02,3.15,0,.02,0,.06,0,.08,0,.25-.27,.25-.29,.25-.04,0-.11,0-.11-.15,0-.02,0-.05,0-.07,.03-.54,.04-1.02,.07-2.78-.26,.58-.7,1.27-1.16,1.6l-.02-.02c.55-.69,.95-1.71,1.17-2.53h-.11c-.21,0-.55,.02-.78,.07l-.15-.26c.42,.03,.84,.04,1.05,.04,0-1.21-.04-1.29-.12-1.47l.54,.18s.1,.06,.1,.1c0,.05,0,.05-.2,.17-.01,.16-.02,.88-.02,1.02h.3l.17-.21s.06-.07,.1-.07,.09,.05,.1,.06l.23,.21s.06,.06,.06,.09c0,.06-.05,.07-.09,.07Zm3.24,2.21h-1.83c0,.15,.01,.34,.01,.48,0,.17,.03,.9,.03,1.05,0,.1,0,.26-.26,.26-.11,0-.15-.08-.15-.17,0-.04,.01-.2,.01-.23,.01-.63,.01-1.27,.01-1.39h-.71c-.21,0-.56,.02-.79,.07l-.14-.26c.46,.04,.9,.04,1.02,.04h.62c-.02-.64-.02-.7-.11-.94l.52,.15c.1,.03,.11,.04,.11,.1s-.08,.1-.18,.16c0,.37,0,.42,0,.53h1.2l.21-.25s.07-.07,.1-.07c.04,0,.08,.04,.1,.06l.26,.25s.06,.05,.06,.1c0,.06-.05,.06-.09,.06Zm0-1.15c-.18,.11-.57,.11-.74,.11-.61,0-.73-.03-.73-.36,0-.19,.04-1.03,.03-1.21h-.67c-.38,1.52-1.2,1.92-1.5,2.02v-.04c.62-.4,1-1.26,1.16-1.97-.31,.02-.37,.03-.54,.07l-.15-.27c.32,.03,.42,.03,.72,.04,.02-.08,.06-.35,.06-.64,0-.19-.03-.32-.05-.4l.54,.18c.07,.02,.1,.03,.1,.07,0,.07-.09,.11-.2,.16-.03,.3-.06,.46-.1,.63h.58l.14-.13s.07-.06,.1-.06c.03,0,.06,.02,.1,.05l.19,.15s.06,.07,.06,.1c0,.04-.13,.15-.19,.18,0,.15-.03,.82-.03,.96s.05,.16,.32,.16c.39,0,.47-.04,.56-.28,.03-.07,.12-.4,.14-.46h.03c.01,.07,.06,.42,.07,.49,.02,.06,.07,.14,.09,.15,.05,.05,.06,.05,.06,.09,0,.02-.02,.15-.13,.21Z"/></g><g><path class="cls-7" d="M7.29,76.54c0,.17-.08,.22-.15,.22-.09,0-.1-.02-.31-.23-.47-.47-1.02-.81-1.32-.93,0,.1,0,2.09,0,2.2,0,.08,.02,.38,.02,.44,0,.13,0,.43-.18,.43-.14,0-.24-.27-.24-.48,0-.06,.04-.28,.06-.36,.02-.14,.09-3.13,.09-3.26,0-.56-.07-.67-.55-.78,.07-.05,.2-.14,.39-.14,.2,0,.61,.15,.61,.31,0,.06-.06,.21-.07,.27-.09,.27-.1,.95-.1,1.26,.52,.11,1.78,.53,1.78,1.05Zm-.54-2.14c.28,0,1.05,.19,1.05,.61,0,.07-.04,.18-.13,.18s-.11-.02-.31-.26c-.18-.21-.36-.32-.75-.53,.01,0,.1,0,.14,0Zm.64-.43c.21,0,.49,.05,.67,.13,.19,.08,.27,.25,.27,.37,0,.06-.02,.17-.1,.17-.05,0-.07-.01-.24-.15-.32-.26-.49-.35-.8-.51,.09-.01,.13-.01,.2-.01Z"/><path class="cls-7" d="M9.5,78.64c.95-1,1.3-2.6,1.3-3.02,0-.2-.29-.31-.39-.35,.12-.05,.19-.08,.28-.08,.23,0,.56,.18,.56,.31,0,.04-.03,.13-.04,.17,.58-.4,1.22-1.11,1.22-1.16,0-.04-.04-.04-.12-.04-.68,0-2.59,.28-2.61,.28-.18,.04-.27,.07-.4,.14-.06,.02-.09,.03-.11,.03-.06,0-.13-.05-.22-.13-.21-.19-.26-.29-.26-.44,0-.08,.01-.16,.04-.28,.21,.4,.45,.42,.61,.42,.43,0,2.81-.23,2.97-.26,.09-.02,.18-.06,.21-.07,.07-.04,.07-.05,.1-.05,.05,0,.21,.18,.27,.25,.07,.09,.22,.25,.22,.32,0,.09-.06,.1-.27,.11-.1,0-.17,.05-.44,.25-.51,.37-.72,.51-.9,.63-.12,.07-.27,.15-.36,.18-.04,.12-.17,.63-.2,.73-.1,.37-.35,1.08-.89,1.66-.24,.26-.45,.39-.54,.45l-.02-.04Z"/><path class="cls-7" d="M15.92,74.95h-.86s0,.25,0,.29c.39,.1,.75,.36,.75,.56,0,.12-.07,.2-.15,.2-.12,0-.18-.11-.31-.34-.04-.08-.15-.23-.29-.35v.13c0,.5,0,2.69,.02,3.15,0,.02,0,.06,0,.08,0,.25-.27,.25-.29,.25-.04,0-.11,0-.11-.15,0-.02,0-.05,0-.07,.03-.54,.04-1.02,.07-2.78-.26,.58-.7,1.27-1.16,1.6l-.02-.02c.55-.69,.95-1.71,1.17-2.53h-.11c-.21,0-.55,.02-.78,.07l-.15-.26c.42,.03,.84,.04,1.05,.04,0-1.21-.04-1.29-.12-1.47l.54,.18s.1,.06,.1,.1c0,.05,0,.05-.2,.17-.01,.16-.02,.88-.02,1.02h.3l.17-.21s.06-.07,.1-.07,.09,.05,.1,.06l.23,.21s.06,.06,.06,.09c0,.06-.05,.07-.09,.07Zm3.24,2.21h-1.83c0,.15,.01,.34,.01,.48,0,.17,.03,.9,.03,1.05,0,.1,0,.26-.26,.26-.11,0-.15-.08-.15-.17,0-.04,.01-.2,.01-.23,.01-.63,.01-1.27,.01-1.39h-.71c-.21,0-.56,.02-.79,.07l-.14-.26c.46,.04,.9,.04,1.02,.04h.62c-.02-.64-.02-.7-.11-.94l.52,.15c.1,.03,.11,.04,.11,.1s-.08,.1-.18,.16c0,.37,0,.42,0,.53h1.2l.21-.25s.07-.07,.1-.07c.04,0,.08,.04,.1,.06l.26,.25s.06,.05,.06,.1c0,.06-.05,.06-.09,.06Zm0-1.15c-.18,.11-.57,.11-.74,.11-.61,0-.73-.03-.73-.36,0-.19,.04-1.03,.03-1.21h-.67c-.38,1.52-1.2,1.92-1.5,2.02v-.04c.62-.4,1-1.26,1.16-1.97-.31,.02-.37,.03-.54,.07l-.15-.27c.32,.03,.42,.03,.72,.04,.02-.08,.06-.35,.06-.64,0-.19-.03-.32-.05-.4l.54,.18c.07,.02,.1,.03,.1,.07,0,.07-.09,.11-.2,.16-.03,.3-.06,.46-.1,.63h.58l.14-.13s.07-.06,.1-.06c.03,0,.06,.02,.1,.05l.19,.15s.06,.07,.06,.1c0,.04-.13,.15-.19,.18,0,.15-.03,.82-.03,.96s.05,.16,.32,.16c.39,0,.47-.04,.56-.28,.03-.07,.12-.4,.14-.46h.03c.01,.07,.06,.42,.07,.49,.02,.06,.07,.14,.09,.15,.05,.05,.06,.05,.06,.09,0,.02-.02,.15-.13,.21Z"/><path class="cls-7" d="M23.08,76.11h-2.25c-.19,0-.53,.02-.78,.07l-.15-.27c.34,.03,.68,.05,1.02,.05h.62c.23-.62,.37-1.01,.36-1.4l.48,.22s.08,.05,.08,.09c0,.07-.07,.11-.24,.19-.2,.31-.46,.7-.61,.9h.89l.16-.21s.07-.09,.1-.09c.04,0,.07,.02,.12,.07l.23,.21s.06,.07,.06,.1c0,.06-.06,.06-.09,.06Zm-.16-1.66h-1.92c-.2,0-.54,.02-.79,.07l-.15-.26c.34,.03,.68,.04,1.02,.04h.19c0-.47,0-.48-.1-.89l.53,.15c.09,.02,.13,.05,.13,.1,0,.07-.06,.09-.21,.17-.01,.09-.02,.17-.02,.48h.78l.15-.19s.07-.09,.1-.09,.06,.02,.12,.08l.2,.18s.06,.06,.06,.1c0,.05-.05,.06-.09,.06Zm-.42,2.56c0,.11-.01,.21-.01,.45,0,.15,.02,.79,.02,.92,0,.31-.24,.31-.26,.31-.07,0-.1-.03-.09-.13,0-.02,0-.1,0-.17h-1.36s.01,.12,.01,.16c0,.06-.04,.26-.27,.26-.12,0-.12-.09-.12-.12,0-.03,.02-.34,.02-.4,0-.1,.02-.41,.02-.78,0-.47-.02-.67-.06-.97l.45,.23h1.21l.12-.12c.06-.06,.07-.07,.1-.07s.05,.02,.1,.06l.18,.13s.08,.05,.08,.1c0,.05-.04,.09-.15,.15Zm-1.49-1.3c-.18,0-.2-.15-.23-.38-.02-.18-.1-.46-.22-.58l.03-.02c.29,.12,.63,.4,.63,.72,0,.19-.12,.26-.21,.26Zm1.17,1.19h-1.38v1.34h1.38v-1.34Zm2.24,1.42c-.06-.21-.21-.37-.43-.5v-.06c.12,.02,.24,.04,.43,.04,.47,0,.61-.16,.61-.46,0-.34-.16-1.07-.91-1.61,.05-.15,.3-.93,.31-.96,.02-.07,.04-.15,.21-.78h-.94c-.01,.84,0,1.87,.01,2.81,0,.52,.03,1.35,.03,1.87,0,.07,0,.18-.05,.23-.07,.07-.17,.08-.21,.08-.12,0-.11-.09-.1-.35,.02-1.2,.02-2.4,.02-3.61,0-.38,0-1.08-.06-1.4l.43,.23h.81l.14-.13s.07-.06,.12-.06,.09,.04,.1,.05l.27,.21s.07,.07,.07,.12c0,.05-.04,.09-.22,.17-.09,.14-.43,.78-.51,.91-.12,.2-.29,.5-.33,.59,.18,.12,.48,.31,.75,.66,.24,.32,.42,.73,.42,1.09,0,.58-.56,.76-.97,.87Z"/><path class="cls-7" d="M27.79,74.23c-.45,.87-1.14,1.68-1.85,2.13l-.02-.04c.35-.4,.94-1.17,1.31-1.85,.23-.42,.25-.58,.26-.76l.47,.31c.06,.04,.09,.05,.09,.09,0,.08-.15,.12-.24,.13Zm2.42,1.83s-.06,.05-.13,.1c-.01,.22-.05,1.2-.07,1.39-.08,.72-.17,1.3-1.13,1.36-.02-.29-.21-.46-.46-.54v-.06c.09,.01,.13,.02,.49,.06,.09,.01,.16,.01,.2,.01,.1,0,.35,0,.42-.2,.15-.4,.21-1.59,.21-2.04,0-.1,0-.11-.01-.21h-1.37c-.02,.38-.08,.75-.18,1.11-.28,1.04-1.03,1.65-2.1,1.92v-.05c1.55-.72,1.87-1.84,1.92-2.99h-.1c-.21,0-.56,.03-.79,.07l-.14-.26c.46,.04,.9,.04,1.02,.04h1.71l.14-.13s.06-.06,.09-.06,.05,.02,.08,.05l.22,.23s.05,.05,.05,.08c0,.04-.02,.06-.06,.09Zm.96,.04c-.9-.4-1.52-1.25-1.86-2.26h-.65c-.1,0-.24,.01-.34,.04l-.06-.2c.11,0,.34,.02,.43,.02h.58l.14-.15c.06-.07,.09-.07,.11-.07,.04,0,.09,.04,.1,.06l.21,.2s.05,.05,.05,.09c0,.12-.17,.14-.41,.17,.36,.98,1.55,1.64,2.27,1.66v.05c-.31,.07-.45,.25-.58,.39Z"/><path class="cls-7" d="M34.77,78.31c1.83-.63,1.92-1.95,1.92-2.26,0-1.07-1.02-1.65-1.92-1.65-.13,0-.17,.01-.23,.03,.3,.25,.3,.43,.3,.46,0,.07-.02,.1-.15,.37-.75,1.57-.81,1.72-1.16,2.24-.03,.04-.23,.33-.35,.38-.04,.02-.08,.02-.12,.02-.14,0-.18-.07-.35-.31-.04-.06-.08-.09-.17-.17-.24-.2-.32-.41-.32-.83,0-1.23,1.03-2.39,2.6-2.39,1.12,0,2.23,.64,2.23,1.9,0,1.12-.9,2.12-2.28,2.26v-.07Zm-.7-2.38c.18-.34,.36-.82,.36-1.06,0-.21-.12-.34-.17-.39-.69,.05-1.72,.96-1.72,2.16,0,.46,.29,.88,.53,.88,.04,0,.08,0,.12-.04,.13-.13,.24-.34,.35-.54l.53-1Z"/><path class="cls-7" d="M39.4,78.77c.48-.27,.84-.7,1.08-1.19-.5-.12-1.04-.77-1.04-1.94-.42,.48-.64,1.11-.75,1.68-.01,.05-.05,.4-.06,.47,0,.06-.03,.13-.13,.13-.14,0-.29-.21-.33-.28-.21-.32-.23-.84-.23-1.22,0-.34,.04-.54,.06-.93,0-.05,.01-.15,.01-.28,0-.34-.05-.49-.09-.61,.29,.05,.46,.42,.46,.61,0,.08-.02,.18-.03,.21-.09,.4-.18,.81-.18,1.19,0,.31,.08,.65,.17,.65,.03,0,.04-.01,.07-.12,.21-.66,.54-1.28,1.03-1.76,.06-.81,.43-1.49,.9-1.49,.32,0,.64,.36,.73,.75,1.14-.04,1.41,.91,1.41,1.43,0,1.15-.93,1.57-1.47,1.57-.1,0-.17,0-.21-.01-.27,.51-.68,.91-1.4,1.16v-.02Zm.21-3.3c-.05,.75,.18,1.64,.98,1.83,.15-.47,.2-.97,.2-1.46,0-.46-.03-.81-.04-.96-.2,.04-.67,.15-1.14,.59Zm1.12-.77c-.08-.5-.3-.6-.43-.6-.27,0-.54,.37-.67,1.13,.17-.13,.5-.41,1.1-.53Zm1.42,1.29c0-.49-.24-1.13-1.05-1.14,.01,.12,.04,.42,.04,.86,0,.5-.04,.91-.1,1.25-.04,.2-.09,.34-.1,.4,.56,.01,1.22-.38,1.22-1.37Z"/><path class="cls-7" d="M45.91,75.24c.1-.04,.17-.07,.17-.17,0-.06-.02-.12-.04-.17,.27,.06,.47,.21,.47,.49,0,.13-.03,.13-.21,.15-.81,.11-2.78,.91-2.78,1.9,0,.09,.01,.23,.15,.38,.24,.28,1.1,.28,1.26,.28,.5,0,.73-.04,1.23-.14,.1-.02,.2-.02,.22-.02,.16,0,.38,.06,.38,.2,0,.09-.1,.15-.29,.19-.21,.05-.8,.07-1.02,.07-.69,0-1.08-.07-1.4-.13-.45-.1-.72-.46-.72-.82,0-.48,.39-1.06,1.19-1.54-.08-.11-.23-.34-.24-.66-.03-1.04-.04-1.15-.05-1.25-.02-.12-.06-.2-.15-.3-.03-.04-.2-.17-.24-.2,.06-.02,.13-.04,.23-.04,.36,0,.61,.35,.61,.42,0,.03-.02,.09-.02,.12-.07,.26-.1,.49-.1,.75,0,.13,0,.66,.17,1.03,.16-.09,.58-.31,1.2-.54Z"/><path class="cls-7" d="M48.49,78.93c.44-.31,.82-.8,1.06-1.37,.23-.53,.29-1.11,.29-1.69,0-.63-.1-1.17-.2-1.33-.07-.1-.18-.2-.3-.2-.06,0-.18,.02-.28,.11-.57,.54-.85,1.73-.87,1.8-.04,.21-.07,.62-.07,.7,0,.04,.02,.25,.02,.29,0,.07-.04,.1-.09,.1-.08,0-.17-.08-.2-.12-.23-.33-.23-.94-.23-1.04,0-.37,.17-1.41,.23-1.83,.02-.13,.02-.23,.02-.28,0-.29-.18-.41-.39-.56,.04,0,.09-.02,.15-.02,.2,0,.58,.11,.58,.41,0,.09-.02,.15-.06,.29-.04,.1-.31,1.01-.31,1.73,0,.07,0,.42,.05,.46,0,.01,.02,.01,.03,.01,.03,0,.04-.02,.06-.06,.09-.37,.43-1.62,1.13-2.07,.1-.07,.23-.07,.27-.07,.73,0,.81,1.19,.81,1.76,0,.81-.12,1.83-.99,2.58-.18,.15-.49,.38-.72,.44v-.04Z"/></g><g><path class="cls-7" d="M5.21,.16V4.75H.62V.16H5.21Z"/><path class="cls-7" d="M10.57,2.77h-2.18c0,.51,0,1.33,0,1.84,0,.07,0,.15-.05,.21-.05,.06-.15,.09-.2,.09-.11,0-.13-.08-.13-.16,0-.02,0-.06,.01-.19,.02-.25,.04-1.51,.05-1.79h-1.45c-.11,0-.43,.01-.69,.06l-.13-.23c.28,.02,.61,.04,.89,.04h1.37c0-.21,.01-.39,.01-.46,0-.24,0-1.39,0-1.65h-1.18c-.11,0-.43,.01-.69,.06l-.12-.23c.27,.03,.61,.04,.88,.04h2.72l.2-.26c.04-.06,.06-.07,.09-.07,.03,0,.06,.03,.09,.05l.3,.26s.05,.05,.05,.08c0,.06-.05,.06-.08,.06h-1.94c0,.27,0,1.61,0,1.92v.19h1.51l.23-.25c.05-.05,.06-.07,.08-.07,.03,0,.07,.04,.1,.06l.29,.25s.05,.05,.05,.08c0,.05-.06,.06-.08,.06Zm-3.5-.6c.07,0,.17-.05,.17-.2,0-.08-.05-.3-.28-.56-.06-.07-.07-.08-.54-.45l-.04,.03c.07,.08,.18,.22,.35,.68,.14,.41,.19,.51,.35,.51Zm3-.91s-.06,.01-.22,.01c-.3,.45-.48,.62-1.04,1.12l-.03-.03c.39-.5,.76-1.21,.81-1.53l.48,.31s.04,.03,.04,.06-.03,.05-.05,.05Z"/><path class="cls-7" d="M15.66,1.42c-.19,.11-.37,.25-.45,.31l-.02-.03c.07-.18,.12-.27,.17-.46h-3.58c-.02,.5-.26,.74-.44,.74-.11,0-.19-.07-.19-.18,0-.07,.02-.09,.2-.27,.27-.27,.31-.46,.36-.67h.03c.02,.07,.04,.12,.04,.24h1.66c0-.6,0-.79-.12-1.11l.51,.13c.07,.02,.1,.04,.1,.07,0,.05-.02,.06-.21,.19,0,.12,0,.62,0,.72h1.6l.14-.15s.06-.05,.08-.05c.03,0,.05,.03,.09,.05l.29,.24s.06,.06,.06,.11c0,.1-.04,.13-.32,.12Zm-.54,1.98c0,.15,.02,.84-.03,.95-.04,.13-.21,.25-.47,.29-.11-.27-.21-.32-.34-.38v-.03c.07,0,.14,.01,.25,.01,.05,0,.26,0,.29-.03,.03-.03,.03-.34,.03-.4,0-.08,0-.43,0-.51h-1.12c0,.12,0,.39,0,.52,.01,.2,.05,.77,.05,.81,0,.15-.08,.24-.2,.24-.08,0-.15-.02-.15-.18,0-.03,.03-.71,.03-.84v-.56h-1.06v.53c0,.1,.02,.53,.02,.62,0,.16-.1,.21-.2,.21-.11,0-.12-.05-.12-.12,0-.11,.03-.58,.03-.68,0-.2,0-.35,0-.37,0-.24-.01-.33-.04-.5l.36,.19h1c0-.19,0-.51-.02-.57h-.71c-.01,.11-.11,.18-.2,.18-.02,0-.1-.01-.1-.08,0-.02,0-.04,0-.07,.02-.13,.02-.38,.02-.52,0-.36-.02-.5-.03-.59l.34,.18h1.54l.09-.1s.05-.05,.08-.05c.02,0,.04,.02,.07,.03l.19,.12s.07,.05,.07,.08-.03,.05-.05,.07c-.03,.02-.06,.04-.1,.06,0,.11,.01,.56,.01,.66,0,.14-.11,.17-.19,.17-.11,0-.11-.05-.1-.14h-.8l.18,.06s.12,.04,.12,.1c0,.06-.09,.09-.13,.11v.31h1.09l.08-.12s.04-.06,.07-.06c.04,0,.05,.02,.09,.04l.19,.13s.07,.05,.07,.07c0,.05-.02,.06-.19,.16ZM12.72,.97c-.09,0-.12-.06-.16-.15-.16-.36-.32-.49-.4-.55l.02-.03c.16,.04,.7,.18,.7,.53,0,.09-.04,.21-.17,.21Zm1.63,.87h-1.65v.64h1.65v-.64Zm.46-1.34c-.22,.22-.4,.39-.53,.49l-.04-.02c.05-.07,.31-.49,.31-.86l.43,.22s.06,.04,.06,.08c0,.06-.07,.08-.23,.1Z"/><path class="cls-7" d="M18.01,.82c0,.11-.01,.26-.01,.5,0,.59,.02,1.34,.04,1.93,0,.06,.02,.37,.02,.43,0,.05,0,.1-.06,.15-.04,.03-.09,.05-.13,.05-.13,0-.13-.04-.12-.36h-.76c0,.09,.01,.44,.01,.52,0,.13-.17,.17-.21,.17-.09,0-.1-.08-.1-.13,0-.03,0-.2,0-.29,.02-.72,.03-1.43,.03-2.15,0-.77-.01-.87-.05-1.24l.38,.19h.63l.14-.13s.06-.06,.09-.06c.03,0,.07,.03,.11,.07l.12,.12s.05,.05,.05,.09c0,.04-.11,.12-.18,.16Zm-.26-.11h-.77V1.96h.77V.71Zm0,1.37h-.77v1.3h.77v-1.3Zm3.46-.1h-2.29c-.17,0-.47,.02-.69,.06l-.13-.23c.3,.02,.59,.04,.89,.04h.45v-.81h-.23c-.17,0-.47,.02-.69,.06l-.12-.23c.29,.02,.59,.04,.88,.04h.15c0-.5-.02-.61-.09-.87l.47,.14s.08,.03,.08,.08c0,0,0,.04-.04,.06-.07,.05-.07,.06-.12,.09,0,.07-.01,.21-.01,.5h.65l.14-.19s.05-.06,.08-.06c.04,0,.07,.03,.1,.05l.21,.19s.05,.05,.05,.08c0,.05-.05,.06-.08,.06h-1.16c0,.28,0,.58,0,.81h.94l.17-.21s.06-.06,.08-.06c.03,0,.07,.03,.09,.05l.22,.22s.05,.06,.05,.08c0,.05-.06,.05-.08,.05Zm0,1.05h-.91c0,.37,.02,.87,.02,1.25,0,.18-.02,.29-.19,.41-.18,.12-.35,.16-.42,.18-.03-.11-.08-.25-.5-.45v-.04c.25,.03,.47,.04,.52,.04,.08,0,.25,0,.29-.06,.03-.04,.03-.32,.03-.4,0-.18,0-.49-.02-.92h-1.04c-.17,0-.47,.02-.69,.06l-.12-.23c.29,.03,.59,.04,.88,.04h.96c-.02-.55-.02-.62-.05-.75l.4,.1c.05,.02,.07,.03,.07,.06,0,.05-.11,.14-.14,.17,0,.06,0,.1,0,.42h.4l.14-.2s.05-.06,.08-.06c.03,0,.07,.03,.09,.05l.22,.2s.05,.04,.05,.08c0,.05-.04,.06-.08,.06Zm-2.02,.98c-.13,0-.15-.07-.19-.29-.02-.09-.05-.19-.06-.22-.07-.19-.11-.22-.14-.26l.02-.04c.28,.11,.56,.4,.56,.61,0,.16-.12,.2-.19,.2Z"/></g><g><path class="cls-7" d="M50.59,.16V4.75h-4.59V.16h4.59Z"/><path class="cls-7" d="M52.88,.59c0,.26,.01,.52,.02,.78,0,.02,0,.13,0,.15,0,.15-.13,.21-.2,.21-.11,0-.11-.06-.1-.2h-.76c-.02,.29-.03,.76-.05,1.05h.66l.1-.12s.06-.05,.09-.05c.03,0,.06,.02,.08,.04l.15,.13s.06,.05,.06,.08c0,.06-.05,.1-.17,.16-.04,1.02-.12,1.39-.26,1.62-.06,.1-.26,.35-.69,.38-.05-.31-.3-.45-.4-.5l.02-.04c.31,.07,.44,.11,.55,.11,.18,0,.26-.11,.31-.2,.13-.23,.2-.84,.2-1.21,0-.04,0-.22-.01-.27h-.69c0,.11,0,.3-.25,.3-.04,0-.09-.02-.09-.07,0,0,.07-.69,.08-.78,.02-.29,.03-.75,.02-.99l.31,.23h.73c0-.36,0-.56-.01-.92h-.42c-.19,0-.48,.02-.69,.06l-.12-.23c.4,.03,.78,.04,.88,.04h.36l.08-.11s.05-.07,.08-.07c.01,0,.02,0,.06,.04l.17,.15s.04,.03,.04,.07c0,.08-.03,.09-.15,.15Zm2.9,4.21c-.09,0-.15-.04-.23-.23-.09-.23-.1-.26-.15-.36-.19,.05-1.93,.42-2.12,.44-.06,.08-.12,.12-.17,.12-.02,0-.06-.02-.08-.06l-.13-.39c.14,.01,.27,.02,.34,.02,.15,0,.85-.05,1.04-.07,0-.12,0-.67,0-.78h-.68c0,.09,.02,.21-.21,.21-.03,0-.09,0-.09-.06,0-.08,.02-.2,.02-.28,.01-.31,.01-.68,.01-.81,0-.29,0-.34-.02-.46l.33,.2h.64c-.01-.26-.02-.38-.06-.6l.43,.08s.07,.03,.07,.08c0,.03-.02,.04-.14,.14-.01,.07-.01,.08-.01,.14v.17h.75l.11-.11c.05-.05,.05-.06,.06-.06,.02,0,.05,.02,.07,.04l.17,.13s.06,.04,.06,.07c0,.05-.05,.08-.17,.14,0,.16,.01,.66,.01,.84,0,.02,.01,.12,.01,.14,0,.1-.11,.15-.21,.15s-.1-.1-.09-.15h-.79v.76l.82-.08c-.06-.1-.12-.2-.26-.37l.02-.04c.21,.11,.82,.44,.82,.86,0,.07-.04,.2-.17,.2Zm-.14-3c-.11,0-.13-.06-.2-.19-.04-.08-.12-.26-.13-.27-1.26,.25-1.38,.27-1.71,.31-.08,.12-.09,.14-.14,.14-.04,0-.05-.01-.08-.1l-.13-.37c.15,.02,.31,.04,.64,.03,.17-.46,.3-.99,.3-1.16,0-.03,0-.04,0-.08l.46,.14c.05,.02,.07,.03,.07,.09,0,.07-.13,.1-.19,.11-.29,.49-.42,.7-.57,.9,.35-.02,.44-.02,1.3-.09-.19-.3-.31-.41-.4-.47l.02-.04c.14,.06,.44,.18,.64,.36,.28,.25,.3,.45,.3,.49,0,.11-.09,.2-.19,.2Zm-1.36,.61h-.69v.95h.69v-.95Zm1.07,0h-.79c0,.51,0,.57,0,.95h.8v-.95Z"/><path class="cls-7" d="M61.19,1.76h-1.25v.38s.02,.23,.02,.27c0,.11-.06,.18-.2,.18-.09,0-.11-.04-.1-.14h-1.03c-.01,.12-.12,.18-.22,.18-.03,0-.09,0-.09-.11,0-.02,0-.1,.01-.12,0-.26,.01-.58,.01-.64h-.95c.02,1.43-.07,2.3-.77,3.08l-.03-.02c.4-.74,.51-1.44,.51-2.97,0-.93-.03-1.1-.09-1.38l.44,.22h1.39c0-.52-.04-.58-.11-.67l.48,.11s.09,.02,.09,.08c0,.03-.01,.05-.06,.08-.02,.02-.05,.04-.1,.08v.32h1.37l.18-.22s.05-.06,.08-.06,.09,.05,.09,.05l.27,.22s.05,.05,.05,.08c0,.05-.04,.05-.08,.05h-3.7s-.01,.15-.01,.16c0,.1,.01,.56,.01,.65h.95c0-.28,0-.38-.05-.64l.37,.13c.05,.02,.09,.03,.09,.09,0,.05-.03,.06-.12,.12,0,.1,0,.12,0,.3h1.05c-.02-.35-.02-.46-.09-.65l.43,.11s.07,.03,.07,.08c0,.04-.05,.07-.14,.13,0,.04,0,.22,0,.33h.69l.19-.22c.05-.06,.06-.06,.09-.06,.03,0,.07,.04,.1,.06l.22,.21s.05,.05,.05,.08c0,.05-.04,.05-.08,.05Zm-.21,3.05c-.37-.04-1.11-.2-1.75-.69-.36,.29-1.12,.69-1.94,.7v-.03c.59-.11,1.35-.52,1.75-.84-.4-.4-.54-.69-.63-.94-.19,.01-.38,.03-.57,.06l-.13-.23c.4,.03,.79,.04,.89,.04h1.26l.11-.11s.05-.06,.08-.06c.02,0,.06,.04,.08,.06l.23,.21s.04,.04,.04,.08c0,.05-.04,.08-.08,.09-.05,.02-.11,.03-.25,.06-.09,.13-.32,.46-.67,.77,.59,.37,1.66,.41,1.99,.41v.02c-.27,.15-.35,.2-.42,.4Zm-2.49-1.79c.2,.37,.47,.62,.7,.81,.22-.21,.53-.51,.63-.81h-1.34Zm1.18-1.26h-1.05c0,.23,0,.37,0,.56h1.05c.01-.16,0-.39,0-.56Z"/><path class="cls-7" d="M64.18,4.32c1.59-.55,1.67-1.69,1.67-1.97,0-.93-.88-1.43-1.67-1.43-.11,0-.14,.01-.2,.03,.26,.22,.26,.38,.26,.4,0,.06-.02,.09-.13,.32-.65,1.36-.71,1.5-1.01,1.95-.03,.04-.2,.29-.3,.33-.03,.02-.07,.02-.1,.02-.12,0-.16-.06-.31-.27-.04-.05-.07-.08-.14-.14-.21-.17-.28-.36-.28-.72,0-1.07,.9-2.08,2.26-2.08,.97,0,1.94,.55,1.94,1.66,0,.97-.78,1.85-1.98,1.96v-.06Zm-.61-2.07c.16-.3,.31-.71,.31-.93,0-.18-.11-.29-.15-.34-.6,.05-1.5,.84-1.5,1.88,0,.41,.26,.76,.46,.76,.03,0,.07,0,.1-.04,.12-.12,.21-.29,.31-.47l.46-.87Z"/><path class="cls-7" d="M68.73,1.92h-.69c0,.6,0,1.19,0,1.79,.14-.05,.67-.21,.75-.25l.02,.04c-.23,.16-.55,.31-.81,.43-.39,.18-.53,.25-.66,.31-.05,.14-.06,.16-.11,.16-.03,0-.06-.03-.07-.05l-.25-.4c.34-.03,.39-.04,.86-.17V1.92h-.07c-.19,0-.48,.02-.69,.06l-.12-.23c.32,.03,.61,.04,.88,.04,0-.83,0-.86-.01-1.11-.01-.26-.05-.38-.08-.48l.48,.18c.07,.03,.08,.03,.08,.06,0,.05-.13,.16-.19,.21-.02,.54-.02,.72-.02,1.15h.27l.12-.14s.05-.06,.08-.06,.07,.04,.1,.05l.16,.14s.05,.05,.05,.08c0,.05-.05,.05-.09,.05Zm2.36,2.71c-.1,.02-1.08,.02-1.26,.02-.57,0-.63,0-.77-.06-.15-.07-.17-.2-.17-.36,0-.29,0-1.57,0-1.83-.24,.11-.44,.23-.57,.32l-.21-.17c.11-.03,.35-.12,.78-.29,0-.15,.01-.82,.01-.95,0-.21-.02-.33-.08-.59l.46,.17s.07,.03,.07,.06c0,.03-.02,.05-.18,.19,0,.16-.01,.86-.01,1l.66-.29c0-1.28-.02-1.4-.1-1.75l.48,.16s.08,.03,.08,.06-.02,.05-.05,.08c-.04,.05-.13,.13-.14,.14,0,.22-.01,.38,0,1.19l.62-.27,.11-.18c.04-.06,.05-.06,.06-.06,.03,0,.05,.02,.07,.03l.23,.14s.04,.03,.04,.06c0,.05-.02,.06-.14,.17-.02,.97-.03,1.38-.08,1.62-.08,.38-.36,.47-.49,.51-.07-.24-.25-.31-.31-.33v-.04c.09,.02,.14,.03,.2,.03,.23,0,.29-.11,.32-.18,.09-.22,.09-1.08,.09-1.36,0-.08-.01-.2-.02-.3l-.71,.31c0,.16,0,.84,0,.98,0,.08,.03,.86,.03,.93,0,.07,0,.24-.23,.24-.06,0-.1,0-.1-.08,0-.05,.02-.29,.02-.33,0-.26,0-.59,.01-1.63l-.66,.29c0,.22,0,1.92,0,1.97,.02,.11,.12,.13,.16,.13,.03,0,.71,0,.8,0,.73,0,.77-.02,.85-.05,.1-.04,.14-.12,.22-.29,.04-.1,.05-.14,.18-.51h.05c0,.06,0,.36,.01,.42,0,.06,.02,.2,.1,.25,.04,.03,.05,.03,.05,.06,0,.07-.1,.31-.5,.36Z"/><path class="cls-7" d="M76.66,4.58c-.13,.1-.15,.16-.17,.23-.18-.05-.6-.18-1.08-.44-.55-.31-.87-.75-.97-1.07h-.5v.96c.29-.07,.73-.17,.97-.25l.02,.05c-.35,.2-1.67,.63-1.71,.64-.02,.08-.03,.14-.09,.14-.04,0-.05-.03-.08-.07l-.21-.36c.07,0,.13,.01,.18,.01,.15,0,.47-.07,.64-.11v-1.02h-.65c-.07,.33-.2,.95-.98,1.37v-.02c.65-.62,.75-1.17,.75-2.01,0-.15,0-.45-.05-.59l.4,.22h2.93l.14-.16c.05-.06,.06-.07,.09-.07,.03,0,.08,.05,.1,.06l.2,.16s.05,.05,.05,.09c0,.05-.04,.05-.08,.05h-3.49c0,.18,0,.41-.05,.77h3.15l.15-.17s.06-.06,.09-.06c.03,0,.07,.03,.1,.05l.2,.17s.05,.04,.05,.08c0,.06-.06,.06-.08,.06h-2.19c.06,.12,.19,.35,.47,.56,.23-.17,.43-.33,.53-.53l.03,.02,.24,.19c.05,.04,.08,.06,.08,.1,0,.02,0,.07-.08,.07-.05,0-.11-.02-.15-.03-.2,.1-.59,.2-.61,.21,.61,.42,1.49,.48,1.93,.5v.03c-.15,.05-.26,.13-.28,.16Zm-.12-3.41c-.2,.08-.46,.31-.48,.33l-.02-.04c.04-.09,.13-.38,.15-.48h-1.59c0,.59,0,.66,.01,.77,0,.03,.02,.16,.02,.19,0,.1-.12,.19-.2,.19-.07,0-.13-.07-.13-.12,0-.03,0-.08,0-.11,0-.05,0-.21,0-.27,0-.22,0-.44,.01-.64h-1.6c-.04,.47-.32,.53-.39,.53-.06,0-.17-.04-.17-.15s.06-.16,.23-.28c.18-.13,.25-.23,.3-.43h.03c.01,.09,.01,.13,.01,.21h1.59V.41h-.78c-.19,0-.48,.02-.69,.06l-.12-.23c.4,.03,.78,.04,.88,.04h2.21l.15-.15c.06-.06,.07-.06,.09-.06,.03,0,.07,.04,.1,.05l.17,.15s.05,.05,.05,.08c0,.05-.04,.05-.08,.05h-1.7v.44h1.54l.17-.13s.06-.05,.08-.05c.04,0,.06,.03,.12,.08l.26,.25s.05,.05,.05,.1c0,.1-.1,.09-.28,.08Zm-2.64,.71h-.66c-.08,0-.21,0-.29,.03l-.05-.18c.1,0,.3,.02,.38,.02h.48l.02-.08s.02-.08,.07-.08c.04,0,.06,.05,.07,.07l.03,.07s.03,.08,.03,.1c0,.04-.04,.05-.08,.05Zm0-.45h-.59c-.08,0-.21,0-.29,.03l-.05-.18c.1,0,.3,.02,.38,.02h.37l.05-.08s.05-.06,.07-.06c.05,0,.14,.18,.14,.21,0,.04-.03,.06-.08,.06Zm1.96,1.42h-1.63c-.19,0-.48,.02-.68,.06l-.13-.23c.4,.03,.79,.04,.88,.04h1.19l.07-.12s.05-.07,.09-.07c.03,0,.07,.04,.11,.06l.12,.11s.06,.05,.06,.09c0,.05-.04,.05-.09,.05Zm-.12-1.43h-.52c-.09,0-.21,.01-.29,.03l-.05-.18c.1,.01,.3,.02,.38,.02h.34c.05-.1,.06-.11,.08-.11,.06,0,.15,.15,.15,.18,0,.05-.04,.06-.09,.06Zm.17,.46h-.68c-.08,0-.21,.01-.29,.03l-.05-.17c.1,0,.3,.02,.38,.02h.46l.04-.06s.04-.07,.08-.07c.06,0,.14,.19,.14,.21,0,.04-.04,.05-.08,.05Z"/><path class="cls-7" d="M78.6,2.46c-.04,.16-.22,.87-.26,1.01-.08,.32-.11,.47-.11,.61,0,.06,.03,.37,.03,.37,0,.06-.01,.14-.1,.14-.08,0-.18-.1-.22-.18-.24-.41-.29-.82-.29-1.36,0-.1,0-.28,.04-.51l.17-1.17c.02-.1,.03-.24,.03-.39,0-.29-.11-.42-.17-.48,.25-.04,.53,.29,.53,.48,0,.04-.06,.23-.09,.29-.12,.37-.3,1.14-.3,1.76,0,.44,.09,.77,.15,.77,.03,0,.06-.08,.06-.08,.17-.51,.25-.72,.48-1.3l.04,.03Zm1.02,1.21c.3,.14,.77,.15,.88,.15,.19,0,.28-.01,.56-.05,.04,0,.07,0,.09,0,.09,0,.37,.07,.37,.2s-.18,.15-.51,.15c-.25,0-1.12-.04-1.45-.22-.33-.18-.37-.51-.37-.62,0-.07,.01-.11,.03-.16,.1,.27,.17,.45,.39,.56Zm.35-2.03c.11-.09,.55-.44,.55-.49,0-.04-.15-.04-.17-.04-.15,0-.56,.06-1.03,.23,.48-.37,.82-.47,1.19-.47,.32,0,.76,.09,.76,.26,0,.09-.07,.11-.27,.14-.48,.09-.8,.28-1,.41l-.03-.04Z"/><path class="cls-7" d="M84.63,1.16s.06-.02,.11-.02c.03,0,.29,.03,.29,.16,0,.07-.05,.1-.11,.13-.1,.04-.53,.15-.87,.15-.03,0-.18,0-.34-.06-.01,.1-.02,.23-.02,.46,0,.47,.03,.93,.12,1.42,.18,.04,1.37,.29,1.37,.7,0,.07-.04,.14-.12,.14-.1,0-.26-.11-.38-.2-.26-.18-.54-.31-.85-.37-.03,.28-.11,.76-.89,.76-.47,0-.89-.23-.89-.52,0-.24,.27-.44,.47-.5,.15-.04,.39-.1,.76-.1,.1,0,.17,0,.26,.01-.02-.31-.08-1.06-.08-1.33,0-.19,.01-1.11,0-1.17-.03-.31-.08-.38-.4-.46,.07-.06,.16-.1,.26-.1,.16,0,.54,.15,.54,.34,0,.03-.05,.22-.06,.25-.04,.15-.05,.3-.07,.48,.37,0,.61-.1,.91-.2Zm-1.54,2.41c-.6,0-.84,.19-.84,.35,0,.14,.22,.28,.58,.28,.05,0,.35,0,.55-.15,.17-.13,.16-.36,.15-.43-.07-.02-.17-.04-.44-.04Z"/><path class="cls-7" d="M86.65,4.87c.38-.27,.71-.7,.93-1.19,.2-.46,.25-.97,.25-1.47,0-.55-.08-1.02-.18-1.16-.06-.09-.16-.17-.26-.17-.05,0-.15,.02-.24,.1-.5,.47-.74,1.51-.76,1.57-.04,.18-.06,.54-.06,.61,0,.04,.02,.22,.02,.26,0,.06-.03,.08-.08,.08-.07,0-.14-.07-.17-.11-.2-.28-.2-.81-.2-.91,0-.33,.14-1.22,.2-1.6,.02-.11,.02-.2,.02-.24,0-.25-.15-.36-.34-.49,.04,0,.07-.02,.13-.02,.17,0,.51,.1,.51,.36,0,.07-.02,.13-.05,.25-.03,.09-.27,.88-.27,1.5,0,.06,0,.36,.05,.41,0,0,.02,0,.03,0,.03,0,.04-.02,.05-.05,.07-.33,.38-1.41,.98-1.8,.09-.06,.2-.06,.23-.06,.64,0,.7,1.04,.7,1.53,0,.71-.11,1.59-.86,2.25-.15,.13-.43,.33-.62,.38v-.04Z"/><path class="cls-7" d="M53.42,9.55c0,.14-.07,.19-.13,.19-.07,0-.09-.02-.27-.2-.41-.41-.88-.7-1.15-.81,0,.08,0,1.82,0,1.91,0,.07,.02,.33,.02,.38,0,.11,0,.37-.16,.37-.12,0-.21-.23-.21-.42,0-.05,.04-.25,.05-.31,.02-.12,.07-2.72,.07-2.83,0-.49-.06-.58-.48-.68,.06-.04,.18-.12,.34-.12,.17,0,.53,.13,.53,.27,0,.05-.05,.18-.06,.23-.08,.23-.08,.83-.09,1.1,.45,.1,1.55,.46,1.55,.92Zm-.47-1.86c.24,0,.92,.17,.92,.53,0,.06-.03,.15-.11,.15s-.1-.02-.27-.22c-.15-.18-.31-.28-.65-.46,.01,0,.09,0,.12,0Zm.55-.38c.19,0,.43,.05,.58,.12,.17,.07,.23,.22,.23,.32,0,.05-.02,.15-.09,.15-.04,0-.06,0-.21-.13-.28-.23-.43-.3-.69-.45,.07,0,.12,0,.18,0Z"/><path class="cls-7" d="M55.34,11.38c.83-.87,1.13-2.26,1.13-2.63,0-.18-.25-.27-.34-.3,.1-.04,.17-.07,.24-.07,.2,0,.48,.16,.48,.27,0,.03-.03,.11-.04,.15,.51-.35,1.06-.96,1.06-1.01,0-.03-.03-.04-.1-.04-.59,0-2.25,.24-2.27,.25-.16,.03-.23,.06-.35,.12-.05,.02-.07,.03-.1,.03-.05,0-.11-.04-.19-.12-.18-.17-.22-.26-.22-.38,0-.07,.01-.14,.03-.25,.19,.35,.39,.36,.53,.36,.38,0,2.44-.2,2.59-.22,.08-.02,.15-.05,.18-.06,.06-.04,.06-.04,.08-.04,.05,0,.18,.15,.23,.22,.06,.07,.19,.22,.19,.28,0,.08-.05,.08-.23,.1-.09,0-.14,.04-.38,.21-.44,.32-.62,.45-.78,.55-.11,.06-.23,.13-.31,.16-.03,.1-.15,.55-.18,.64-.09,.33-.3,.94-.77,1.44-.21,.22-.39,.34-.47,.39l-.02-.03Z"/><path class="cls-7" d="M60.91,8.17h-.75s0,.22,0,.25c.34,.09,.65,.31,.65,.49,0,.1-.06,.17-.13,.17-.11,0-.16-.1-.27-.3-.04-.07-.13-.2-.25-.3v.11c0,.44,0,2.34,.02,2.74,0,.02,0,.05,0,.07,0,.21-.23,.21-.26,.21-.03,0-.1,0-.1-.13,0-.02,0-.04,0-.06,.03-.47,.04-.88,.06-2.42-.22,.5-.61,1.11-1.01,1.39l-.02-.02c.48-.6,.83-1.49,1.02-2.2h-.1c-.19,0-.48,.02-.68,.06l-.13-.23c.36,.03,.73,.04,.92,.04,0-1.05-.03-1.12-.11-1.28l.47,.15s.09,.05,.09,.08c0,.04,0,.04-.17,.15-.01,.14-.02,.76-.02,.89h.26l.15-.18s.05-.06,.08-.06,.08,.04,.09,.05l.2,.19s.05,.05,.05,.08c0,.05-.04,.06-.08,.06Zm2.82,1.93h-1.59c0,.13,.01,.29,.01,.42,0,.14,.03,.78,.03,.91,0,.09,0,.23-.22,.23-.1,0-.13-.07-.13-.14,0-.03,.01-.18,.01-.2,.01-.55,.01-1.1,.01-1.21h-.62c-.19,0-.48,.02-.69,.06l-.12-.23c.4,.03,.78,.04,.88,.04h.54c-.02-.55-.02-.61-.1-.82l.45,.13c.09,.03,.1,.03,.1,.08s-.07,.09-.16,.14c0,.33,0,.36,0,.46h1.04l.18-.21s.06-.06,.08-.06c.04,0,.07,.04,.09,.05l.22,.21s.05,.05,.05,.08c0,.05-.04,.05-.08,.05Zm0-1c-.15,.1-.5,.1-.64,.1-.53,0-.64-.03-.64-.31,0-.17,.03-.9,.03-1.05h-.59c-.33,1.32-1.04,1.67-1.3,1.76v-.04c.54-.35,.87-1.1,1.01-1.71-.27,.02-.32,.03-.47,.06l-.13-.23c.28,.03,.37,.03,.62,.04,.02-.08,.05-.3,.05-.55,0-.17-.03-.28-.04-.35l.47,.16c.06,.02,.09,.03,.09,.06,0,.06-.07,.1-.18,.14-.03,.26-.05,.4-.09,.55h.5l.12-.12s.06-.05,.09-.05c.03,0,.05,.02,.08,.04l.17,.13s.05,.06,.05,.08c0,.04-.12,.13-.17,.16,0,.13-.03,.71-.03,.84s.04,.14,.28,.14c.34,0,.41-.04,.48-.25,.03-.06,.11-.35,.12-.4h.03c.01,.06,.05,.37,.06,.43,.02,.05,.06,.12,.07,.13,.04,.04,.05,.05,.05,.08,0,.02-.02,.13-.11,.19Z"/><path class="cls-7" d="M65.6,10.47c.5,.34,.55,.38,.69,.38,.1,0,.17-.07,.21-.17,.33-.65,.38-1.34,.38-1.66,0-.25,0-.6-.36-.6-.13,0-.26,.03-.46,.08-.44,1.09-.87,2.17-1.22,2.66-.02,.03-.05,.07-.11,.07-.07,0-.12-.15-.12-.23,0-.08,0-.09,.19-.38,.44-.69,.69-1.29,1-2.03-.4,.14-.59,.21-.78,.33-.09,.05-.14,.09-.2,.09-.1,0-.43-.17-.43-.5,0-.05,.01-.08,.03-.13,.12,.21,.21,.28,.35,.28,.04,0,.09,0,.25-.05,.25-.08,.6-.17,.88-.25,.08-.22,.27-.69,.27-.88,0-.24-.36-.35-.41-.36,.05-.04,.09-.07,.21-.07,.2,0,.6,.14,.6,.34,0,.06-.03,.13-.06,.17-.15,.27-.21,.43-.34,.74,.1-.03,.23-.06,.39-.06,.63,0,.63,.55,.63,.84,0,.52-.16,1.74-.72,2.16-.1,.07-.21,.11-.27,.11-.07,0-.08-.02-.13-.22-.04-.17-.31-.51-.44-.66v-.03Zm2.23-1.05c.29,0,.51-.07,.56-.1,.07-.03,.13-.08,.13-.16,0-.1-.31-.59-1.04-1.05,.47-.01,1.45,.71,1.45,1.37,0,.09-.01,.23-.11,.23-.04,0-.2-.1-.23-.11-.12-.04-.66-.13-.77-.15v-.04Zm0-1.86c.25,0,.86,.17,.86,.47,0,.04-.03,.13-.11,.13-.05,0-.21-.17-.25-.19-.26-.2-.51-.31-.69-.38,.06-.02,.1-.03,.19-.03Zm.54-.41c.24,0,.83,.08,.83,.46,0,.06-.02,.12-.08,.12s-.25-.19-.29-.22c-.09-.06-.3-.2-.74-.33,.1-.02,.18-.03,.28-.03Z"/><path class="cls-7" d="M70.69,8.3s-.12,.03-.13,.04c-.38,.53-.72,.83-1.07,1.03l-.02-.02c.23-.28,.55-.68,.77-1.19,.03-.08,.04-.15,.04-.24l.4,.23s.07,.04,.07,.08c0,0,0,.05-.06,.07Zm3.41-.7h-1.58c0,.19,.03,.99,.03,1.16,0,.31-.03,.45-.47,.63-.03-.17-.16-.31-.34-.39v-.03c.07,0,.41,.02,.45,0,.04-.02,.04-.06,.04-.12,0-.34,0-.89,0-1.24h-.67c0,.64-.12,1.25-.78,1.8-.46,.39-.86,.46-1.02,.49v-.03c.49-.21,.91-.56,1.19-1.02,.2-.31,.29-.66,.29-1.25h-.89c-.19,0-.48,.03-.69,.06l-.12-.23c.4,.03,.78,.04,.88,.04h1.27c0-.18,0-.36-.09-.7l.47,.11c.06,.02,.1,.04,.1,.08,0,.04-.04,.07-.05,.07q-.07,.04-.11,.08c-.02,.05-.02,.23-.02,.35h1.46l.19-.24s.05-.07,.08-.07c.04,0,.09,.04,.11,.06l.28,.25s.05,.04,.05,.08c0,.05-.04,.05-.08,.05Zm-.15,3.91c-1-.18-1.61-.46-1.89-.63-.94,.64-1.84,.79-2.48,.75v-.03c.82-.06,1.6-.38,2.26-.87-.24-.18-.46-.41-.59-.69-.25,.25-.84,.78-1.48,1.01v-.02c.46-.28,.86-.65,1.21-1.07,.16-.2,.35-.43,.38-.63l.39,.16s.07,.03,.07,.07c0,.02-.03,.11-.23,.1-.06,.07-.08,.1-.1,.12h1.18l.27-.19c.06-.04,.07-.05,.11-.05,.03,0,.05,.02,.06,.03l.22,.19s.05,.06,.05,.08c0,.04-.03,.06-.05,.08-.01,0-.26,.05-.3,.06-.18,.22-.42,.49-.78,.76,.41,.2,.96,.36,1.6,.36,.22,0,.37-.02,.46-.03v.04c-.11,.04-.29,.21-.37,.41Zm-2.57-1.61s-.02,.02-.05,.06c.18,.27,.42,.47,.69,.63,.15-.12,.45-.37,.65-.69h-1.29Zm2.5-.86c-.11,0-.12-.03-.28-.25-.29-.43-.63-.67-.79-.77l.02-.04c.15,.04,.49,.14,.77,.3,.41,.25,.46,.51,.46,.6,0,.11-.08,.17-.18,.17Z"/><path class="cls-7" d="M77.83,8.84h-.89c.01,.45,0,1.17,.02,1.62,0,.14,.01,.78,.01,.91,0,.14-.14,.18-.26,.18-.1,0-.11-.04-.11-.1,0-.01,.02-.27,.02-.32,.03-.48,.03-.9,.03-1.02,0-.07,.01-1.2,.01-1.28h-.6c0,1.22-.15,2.09-1.15,2.66l-.03-.04c.72-.66,.89-1.31,.89-2.62h-.19c-.17,0-.47,.02-.69,.06l-.13-.23c.3,.02,.59,.04,.89,.04h.11v-1.38c-.21,0-.5,.03-.7,.06l-.13-.23c.29,.02,.59,.04,.88,.04h1.4l.15-.19s.05-.06,.08-.06c.03,0,.03,0,.09,.05l.22,.2s.05,.04,.05,.08c0,.05-.04,.05-.08,.05h-.79v1.38h.34l.17-.21s.06-.07,.09-.07c.03,0,.06,.03,.11,.07l.22,.2s.05,.05,.05,.08c0,.05-.05,.05-.08,.05Zm-1.18-1.51h-.6v1.38h.6v-1.38Zm2.94,2.9s-.09,0-.13,0c-.62,.61-1.17,1.06-2.22,1.39l-.02-.05c.54-.27,1.18-.76,1.62-1.19,.33-.33,.45-.5,.48-.67l.35,.38s.04,.04,.04,.08c0,.06-.07,.07-.13,.07Zm-.4-1.47c-.28,.34-.87,.94-1.73,1.31l-.03-.04c.47-.33,.89-.73,1.26-1.17,.32-.38,.33-.48,.34-.6l.38,.35s.04,.05,.04,.08c0,.09-.11,.08-.27,.07Zm-.14-1.52c-.26,.3-.78,.86-1.31,1.13l-.03-.05c.32-.26,.69-.71,.87-.96,.23-.32,.25-.44,.28-.58l.42,.31s.04,.04,.04,.07c0,.08-.11,.08-.27,.08Z"/><path class="cls-7" d="M83.6,10.19c-.38,.72-1.29,1.22-2.13,1.22-.14,0-.6-.03-.79-.25-.18-.2-.22-.54-.22-1.08,0-.08,.03-1.13,.03-1.3s.03-.88,.03-1.03c0-.45-.15-.5-.37-.59,.04-.04,.09-.08,.23-.08,.22,0,.52,.26,.52,.39,0,.05-.03,.2-.04,.29-.12,.65-.19,1.72-.19,2.4,0,.21,0,.68,.11,.82,.12,.15,.32,.19,.52,.19,.67,0,1.82-.55,2.28-1.01l.02,.02Z"/><path class="cls-7" d="M85.59,7.37c0-.19-.13-.25-.28-.33,.05-.02,.08-.04,.16-.04,.42,0,.5,.3,.5,.4,0,.03-.04,.09-.08,.17-.1,.17-.19,.39-.23,.51,.27-.1,.38-.17,.48-.22,.05-.03,.2-.12,.29-.12,.06,0,.18,.04,.18,.14,0,.03,0,.06-.11,.12-.29,.16-.58,.25-.94,.35-.01,.03-.02,.06-.05,.14-.51,1.42-1.03,2.54-1.09,2.65-.02,.04-.05,.1-.14,.1-.1,0-.14-.14-.14-.23,0-.1,.01-.11,.17-.34,.22-.32,.31-.54,.97-2.17,.02-.06,.02-.06,.03-.08-.23,.05-.55,.1-.72,.1-.19,0-.43-.12-.52-.28,.1,.03,.28,.07,.54,.07s.53-.05,.78-.12c.05-.14,.2-.62,.2-.79Zm1.58,3.58c.3,0,.53-.03,.6-.04,.11-.02,.14-.02,.18-.02,.17,0,.26,.11,.26,.21,0,.06-.05,.1-.11,.11-.1,.02-.31,.04-.6,.04-.31,0-.87-.02-1.17-.19-.22-.12-.38-.33-.38-.57,0-.17,.06-.28,.1-.36,.03,.48,.1,.83,1.12,.83Zm-.06-1.79c.34-.28,.45-.37,.45-.44,0-.11-.24-.15-.48-.15-.17,0-.3,.02-.4,.02,.21-.15,.48-.21,.74-.21,.54,0,.8,.25,.8,.43,0,.07-.05,.1-.12,.1-.03,0-.15-.01-.17-.01-.02,0-.45,.08-.79,.3l-.03-.03Z"/><path class="cls-7" d="M90.52,8.29h-.73v.31c0,.22,0,1.03,0,1.3,.48-.2,.62-.28,.71-.33l.02,.04c-.06,.06-.15,.15-.54,.38-.08,.05-.78,.46-.88,.52-.01,.07-.04,.2-.1,.2-.04,0-.07-.06-.08-.09l-.22-.41c.19,0,.32-.01,.81-.2,0-.58,0-1.14,0-1.72-.05,0-.37,.01-.61,.06l-.13-.23c.18,.02,.42,.03,.74,.04,0-.19,0-.76-.03-1.01-.02-.14-.06-.27-.08-.33l.51,.16s.08,.03,.08,.08c0,.06-.12,.11-.19,.14,0,.15,0,.83,0,.96h.27l.13-.19c.04-.06,.06-.07,.07-.07,.04,0,.07,.03,.1,.06l.2,.19s.05,.06,.05,.08c0,.06-.06,.06-.08,.06Zm3.02,.84h-2.18c-.05,.1-.12,.25-.29,.5h1.78l.08-.13s.04-.06,.06-.06,.06,.02,.09,.04l.25,.16s.05,.04,.05,.08c0,.07-.07,.1-.2,.14-.04,.88-.23,1.32-.32,1.46-.19,.32-.47,.32-.58,.32-.02-.12-.03-.2-.37-.45v-.04c.25,.04,.43,.07,.53,.07,.14,0,.21-.06,.33-.5,.08-.31,.09-.45,.12-.96h-.43c-.26,.61-.53,1-.73,1.22-.27,.31-.53,.49-.91,.63l-.03-.03c.47-.35,.96-.85,1.33-1.83h-.4c-.64,1.09-1.2,1.47-1.86,1.74l-.02-.04c.71-.44,1.25-1.14,1.52-1.7h-.4c-.26,.33-.55,.63-.93,.8l-.03-.03c.44-.38,.76-.87,.98-1.39h-.12c-.17,0-.47,.02-.69,.06l-.12-.23c.29,.03,.59,.04,.88,.04h2l.17-.23s.05-.07,.08-.07,.07,.04,.1,.06l.28,.23s.05,.04,.05,.08c0,.05-.05,.06-.08,.06Zm-.93-1.85c0,.14,.01,.77,.02,.9,.01,.2,.02,.36,.02,.4,0,.05,0,.1-.06,.13-.05,.04-.11,.05-.14,.05-.11,0-.11-.07-.1-.19h-1.05c0,.09,0,.1,0,.12-.01,.04-.09,.1-.19,.1-.11,0-.11-.08-.11-.11,0-.1,.02-.26,.02-.36,0-.14,.01-.41,.01-.6,0-.25,0-.62-.05-.85l.36,.18h1l.09-.11s.04-.04,.06-.04c.02,0,.02,0,.06,.03l.2,.14s.05,.04,.05,.06c0,.05-.05,.08-.18,.15Zm-.27-.1h-1.05v.54h1.05v-.54Zm0,.67h-1.05v.6h1.05v-.6Z"/><path class="cls-7" d="M98.55,9.08c-.91-.4-1.69-1.2-2.06-1.92h-.03c-.9,1.2-1.53,1.91-2.45,2.34l-.03-.04c.82-.52,1.58-1.59,1.9-2.04,.14-.2,.28-.39,.34-.64l.43,.18s.05,.04,.05,.06c0,.06-.05,.11-.11,.13,.4,.66,1.43,1.42,2.42,1.55v.04c-.12,.03-.37,.16-.47,.33Zm-.79,.95c-.01,.31-.01,.78,0,1.03,0,.04,.02,.21,.02,.25,0,.14-.18,.18-.23,.18-.08,0-.1-.05-.1-.1,0-.02,0-.1,.01-.12h-1.98c0,.05,0,.15,0,.16-.02,.06-.13,.14-.23,.14-.05,0-.1-.03-.1-.1,0-.04,.02-.21,.02-.24,.02-.37,.03-.79,.03-1.16,0-.19,0-.27-.03-.5l.39,.19h1.9l.1-.12s.04-.05,.07-.05c.02,0,.04,.02,.07,.04l.18,.16s.06,.06,.06,.07c0,.04-.02,.05-.17,.16Zm-.17-.97h-1.54c-.19,0-.48,.02-.69,.06l-.12-.23c.4,.04,.78,.04,.88,.04h.92l.16-.19s.05-.07,.08-.07c.03,0,.09,.05,.1,.06l.24,.19s.05,.05,.05,.08c0,.05-.04,.06-.08,.06Zm-.13,.84h-1.98v1.25h1.98v-1.25Z"/></g><g><path class="cls-7" d="M94.95,32.07s-.13,.03-.15,.04c-.44,.61-.83,.95-1.23,1.18l-.02-.02c.27-.32,.64-.78,.88-1.36,.04-.1,.04-.18,.05-.28l.46,.27s.08,.05,.08,.09c0,.01,0,.05-.07,.08Zm3.92-.81h-1.82c0,.21,.03,1.14,.03,1.33,0,.36-.04,.52-.54,.72-.03-.19-.18-.35-.39-.45v-.04c.09,0,.47,.02,.51,0s.05-.07,.05-.14c0-.39,0-1.02,0-1.42h-.77c0,.73-.13,1.43-.89,2.07-.53,.45-.99,.53-1.17,.56v-.03c.56-.24,1.04-.65,1.36-1.17,.23-.36,.33-.75,.33-1.43h-1.03c-.21,0-.56,.03-.79,.07l-.14-.26c.46,.04,.9,.04,1.02,.04h1.46c0-.21,0-.42-.1-.8l.54,.13c.07,.02,.12,.04,.12,.1,0,.05-.04,.08-.06,.08q-.09,.05-.13,.09c-.02,.06-.02,.27-.02,.4h1.68l.21-.28s.06-.08,.09-.08c.04,0,.1,.05,.12,.07l.32,.28s.06,.05,.06,.09c0,.06-.05,.06-.09,.06Zm-.18,4.49c-1.15-.2-1.85-.53-2.17-.73-1.08,.73-2.12,.91-2.85,.86v-.03c.94-.07,1.84-.44,2.59-1-.28-.21-.53-.47-.67-.79-.29,.28-.96,.9-1.7,1.16v-.02c.53-.32,.99-.75,1.39-1.23,.18-.23,.4-.49,.44-.73l.45,.18s.08,.04,.08,.08c0,.02-.03,.13-.26,.12-.07,.09-.09,.11-.12,.14h1.35l.31-.22c.07-.05,.08-.06,.12-.06,.03,0,.06,.02,.07,.03l.25,.21s.06,.07,.06,.1c0,.05-.03,.07-.06,.09-.01,0-.29,.05-.35,.07-.21,.25-.48,.56-.89,.88,.47,.23,1.1,.42,1.84,.42,.25,0,.42-.02,.53-.03v.04c-.12,.05-.34,.24-.42,.47Zm-2.96-1.85s-.02,.02-.06,.07c.2,.31,.48,.54,.8,.73,.18-.14,.52-.43,.75-.79h-1.48Zm2.87-.99c-.12,0-.14-.03-.32-.29-.33-.49-.72-.76-.91-.89l.02-.04c.18,.05,.56,.16,.88,.34,.47,.28,.53,.58,.53,.69,0,.13-.09,.2-.21,.2Z"/><path class="cls-7" d="M97.03,38.82h-1.02c.01,.52,0,1.35,.02,1.87,0,.17,.01,.89,.01,1.04,0,.16-.16,.21-.3,.21-.11,0-.13-.05-.13-.11,0-.01,.02-.31,.02-.37,.03-.55,.03-1.03,.03-1.17,0-.09,.01-1.38,.01-1.47h-.69c0,1.4-.17,2.4-1.32,3.06l-.04-.05c.83-.75,1.02-1.5,1.02-3.01h-.21c-.2,0-.54,.02-.79,.07l-.15-.26c.34,.02,.68,.04,1.02,.04h.13v-1.59c-.24,0-.58,.03-.81,.07l-.15-.26c.34,.02,.68,.04,1.02,.04h1.6l.17-.22s.05-.07,.1-.07c.03,0,.04,0,.1,.06l.25,.23s.06,.05,.06,.09c0,.05-.05,.06-.09,.06h-.91v1.59h.39l.19-.24s.07-.08,.1-.08c.03,0,.07,.03,.12,.08l.26,.23s.06,.06,.06,.1c0,.05-.06,.06-.1,.06Zm-1.35-1.74h-.69v1.59h.69v-1.59Zm3.38,3.33c-.05,0-.1,0-.15-.01-.71,.7-1.34,1.22-2.55,1.6l-.02-.05c.62-.31,1.36-.87,1.86-1.37,.38-.37,.51-.57,.56-.77l.4,.43s.05,.05,.05,.09c0,.07-.08,.08-.15,.08Zm-.46-1.69c-.32,.39-1,1.08-1.99,1.5l-.03-.04c.54-.38,1.03-.84,1.45-1.35,.37-.44,.38-.55,.39-.69l.44,.4s.05,.06,.05,.1c0,.1-.13,.09-.31,.08Zm-.16-1.74c-.29,.35-.9,.99-1.51,1.3l-.04-.06c.37-.3,.79-.81,1-1.11,.26-.37,.29-.51,.32-.67l.48,.36s.05,.05,.05,.08c0,.09-.12,.09-.31,.09Z"/></g><g><path class="cls-7" d="M77.17,79.15h1.22v.23h-1.45v-5.15h1.45v.23h-1.22v4.69Z"/><path class="cls-7" d="M80.62,75.71h-.57v.53c.28,.05,.57,.27,.57,.47,0,.11-.08,.17-.15,.17-.09,0-.1-.03-.21-.27-.1-.23-.17-.28-.21-.31,0,.46,0,2.88,0,2.89-.01,.14-.17,.16-.22,.16-.11,0-.11-.06-.11-.09,0,0,0-.04,0-.08,.05-.57,.07-1.79,.07-2.41v-.1c-.21,.61-.47,1.09-.82,1.44l-.04-.03c.36-.59,.75-1.68,.82-2.36-.03,0-.33,.02-.55,.06l-.14-.25c.25,.02,.3,.02,.73,.04-.01-.43-.02-.98-.12-1.28l.49,.14s.06,.02,.06,.07c0,.03-.03,.06-.07,.08-.04,.02-.07,.05-.11,.08v.08s0,.84,0,.84h.19l.09-.11c.05-.06,.06-.07,.09-.07,.02,0,.04,.02,.1,.07l.12,.1s.06,.05,.06,.09c0,.05-.05,.06-.09,.06Zm1.44-.92s-.1,.06-.12,.07c0,.18,0,1.11,.01,1.54,0,.03,.02,.2,.02,.23,0,.17-.18,.2-.21,.2-.08,0-.08-.04-.08-.19h-.62v1.38s.25-.14,.62-.39c-.03-.07-.1-.3-.22-.46l.03-.02c.06,.05,.33,.26,.39,.3,.19,.18,.22,.35,.22,.43,0,.12-.07,.19-.17,.19s-.15-.06-.18-.23c-.02-.07-.03-.13-.04-.17-.16,.15-.83,.8-.97,.94,0,.08,.01,.15-.05,.15,0,0-.04,0-.07-.04l-.28-.36c.12-.02,.16-.04,.44-.19v-2.19c0-.25,0-1.19-.01-1.39,0-.06-.02-.13-.03-.21l.36,.21h.55l.09-.09s.06-.05,.08-.05,.04,.01,.06,.03l.2,.17s.03,.05,.03,.06c0,.03-.03,.05-.05,.07Zm-.38-.05h-.62v.8h.62v-.8Zm0,.94h-.62v.83h.62v-.83Zm2.45,3.39c-.13,.03-.37,.03-.51,.03-.39,0-.5-.03-.5-.42,0-.1,0-.53,0-.61,0-.19,0-.29,0-1.12-.18,.55-.68,1.82-1.71,2.31l-.02-.03c.71-.56,1.29-1.62,1.54-2.53-.13,0-.45,.02-.68,.07l-.14-.25c.21,.01,.24,.02,.32,.02v-1.6s-.03,0-.09,.02l-.13-.25c.43,.03,.85,.04,.96,.04h.47l.12-.13c.06-.06,.06-.07,.09-.07,.03,0,.09,.05,.11,.06l.17,.13s.06,.05,.06,.09c0,.06-.05,.06-.09,.06h-.63c-.05,.91-.15,1.34-.23,1.67h.47l.13-.17c.04-.05,.06-.07,.09-.07s.06,.03,.1,.06l.18,.17s.06,.05,.06,.09c0,.05-.05,.06-.09,.06h-.98c-.02,.08-.02,.08-.03,.1l.31,.1c.07,.02,.09,.04,.09,.06,0,.07-.15,.13-.16,.14,0,1.21,0,1.46,0,1.5,0,.17,.04,.23,.2,.23,.27,0,.32,0,.37-.12,.04-.08,.13-.46,.16-.63h.06c.06,.56,.07,.65,.13,.69,.07,.06,.09,.07,.09,.11,0,.12-.18,.19-.28,.21Zm-1.05-4.19c-.08,0-.14,0-.39,.02v1.64c.07,0,.14,0,.27,0,.08-.31,.16-.7,.2-1.67h-.08Z"/><path class="cls-7" d="M89.79,76.56c-1.12-.57-1.74-1.1-2.16-2.01h-.03c-.73,1.09-1.81,2.03-2.73,2.44l-.03-.03c.95-.67,1.79-1.64,2.33-2.47,.12-.18,.12-.23,.13-.33l.48,.19s.06,.04,.06,.08c0,.06-.05,.09-.11,.11,.44,.7,1.1,1.31,2.6,1.65v.02c-.27,.05-.5,.29-.52,.36Zm-4,2.33c-.09,.17-.22,.24-.32,.24-.12,0-.21-.08-.21-.18,0-.08,.06-.17,.13-.24,.18-.22,.37-.45,.43-.79h.04c.01,.08,.03,.21,.03,.44,0,.19-.02,.4-.1,.54Zm2.71-1.89c-.05,.07-.1,.12-.2,.34-.14,.31-.2,.34-.33,.34-.08,0-.2-.02-.2-.09,0-.06,.39-.64,.45-.77h-1.32c-.2,0-.52,.02-.74,.06l-.13-.25c.43,.03,.85,.05,.96,.05h1.17l.2-.13s.06-.03,.07-.03c.03,0,.05,.03,.07,.05l.25,.25s.03,.05,.03,.07c0,.07-.18,.1-.28,.11Zm.17,2.19c-.23,.09-.49,.1-1.14,.1-.59,0-.95,0-.98-.33-.02-.31,.02-.8-.05-1.1l.41,.11c.05,.01,.07,.03,.07,.06,0,.07-.09,.11-.13,.14,0,.1,0,.52,0,.61,.02,.18,.05,.25,.26,.25,.99,0,1.14,0,1.3-.11,.09-.07,.13-.12,.19-.41,.05-.21,.06-.32,.07-.38h.03c.02,.1,.09,.54,.12,.62,.02,.05,.02,.05,.08,.11,.03,.03,.05,.05,.05,.07,0,.06-.13,.2-.29,.26Zm-.5-3.14h-.65c-.2,0-.52,.02-.74,.06l-.14-.25c.41,.03,.81,.05,.98,.05l.14-.18s.06-.07,.09-.07c.03,0,.1,.05,.11,.06l.23,.18s.06,.05,.06,.09c0,.05-.05,.06-.09,.06Zm-.49,2.36c-.1,0-.18-.12-.23-.2-.17-.3-.18-.34-.39-.59v-.02c.33,.13,.44,.17,.55,.26,.13,.1,.24,.24,.24,.34,0,.13-.08,.22-.18,.22Zm2.04,.51c-.12,0-.18-.11-.21-.21-.13-.43-.17-.58-.4-.87l.02-.03c.21,.12,.5,.3,.6,.42,.19,.22,.21,.4,.21,.45,0,.18-.13,.23-.21,.23Z"/><path class="cls-7" d="M95.6,74.88c0,.33,.02,2.5,.03,3.43,0,.11,.02,.6,.02,.7,0,.19-.18,.23-.24,.23-.14,0-.13-.08-.12-.25h-3.78c0,.18,.01,.36-.27,.36-.09,0-.1-.06-.1-.11,0-.13,.02-.7,.02-.82,.03-1.4,.03-1.69,.03-2.16,0-.63-.01-1.27-.08-1.91l.42,.21h3.7l.12-.12s.05-.06,.09-.06c.02,0,.05,.02,.09,.05l.25,.17s.05,.03,.05,.07c0,.07-.03,.11-.23,.21Zm-.3-.18h-3.79v4.16h3.79v-4.16Zm-.68,.74c-.32,.98-.69,1.48-.95,1.83,.34,.17,1.12,.57,1.12,.9,0,.11-.07,.22-.18,.22-.07,0-.09-.02-.18-.11-.24-.26-.54-.52-.93-.78-.42,.49-.92,.92-1.52,1.16v-.03c.74-.54,1.11-.99,1.32-1.25-.56-.33-.98-.43-1.27-.5v-.05c.57,.06,1.04,.19,1.41,.35,.55-.76,.89-1.85,.89-2.04,0-.03,0-.05-.01-.09l.47,.19s.07,.03,.07,.06c0,.08-.18,.14-.24,.15Zm-2.05,1c-.16,0-.17-.11-.23-.41-.03-.16-.1-.43-.28-.66l.03-.03c.4,.21,.67,.75,.67,.9,0,.13-.09,.21-.19,.21Zm.85-.25c-.14,0-.16-.07-.23-.37-.06-.29-.27-.58-.36-.67l.02-.03c.4,.18,.76,.53,.76,.84,0,.04,0,.23-.19,.23Z"/><path class="cls-7" d="M97.92,74.46h-1.22v-.23h1.45v5.15h-1.45v-.23h1.22v-4.69Z"/></g></g></svg>