<?xml version="1.0" encoding="UTF-8"?><svg id="Layer_2" xmlns="http://www.w3.org/2000/svg" xmlns:xlink="http://www.w3.org/1999/xlink" viewBox="0 0 209.62 116.1"><defs><style>.cls-1{letter-spacing:-.17em;}.cls-2,.cls-3{fill:none;}.cls-2,.cls-4,.cls-5{stroke-width:.34px;}.cls-2,.cls-4,.cls-5,.cls-6,.cls-7,.cls-8,.cls-9,.cls-10{stroke:#231f20;}.cls-11{font-size:7.76px;}.cls-11,.cls-12,.cls-13{fill:#231f20;}.cls-11,.cls-14{font-family:RyuminPr5-Medium-83pv-RKSJ-H, 'A-OTF Ryumin Pr5';}.cls-15{letter-spacing:0em;}.cls-16{letter-spacing:-.08em;}.cls-3{stroke:#be1e2d;stroke-miterlimit:10;stroke-width:1.08px;}.cls-4{fill:#81755f;}.cls-5{fill:#a7a9ac;}.cls-17{letter-spacing:0em;}.cls-18{font-family:RyuminPr5-Regular-83pv-RKSJ-H, 'A-OTF Ryumin Pr5';font-size:9.87px;}.cls-18,.cls-19{fill:#be1e2d;}.cls-20{fill:#f8edd8;}.cls-21{letter-spacing:.07em;}.cls-22{letter-spacing:.04em;}.cls-23{letter-spacing:-.05em;}.cls-14{fill:#fff;font-size:8.14px;}.cls-24{letter-spacing:-.08em;}.cls-25{letter-spacing:-.17em;}.cls-26{letter-spacing:-.04em;}.cls-27{letter-spacing:-.23em;}.cls-13{font-family:RyuminPr5-Light-83pv-RKSJ-H, 'A-OTF Ryumin Pr5';font-size:5.7px;}.cls-28{letter-spacing:0em;}.cls-29{letter-spacing:-.06em;}.cls-30{letter-spacing:.12em;}.cls-31{letter-spacing:-.38em;}.cls-32{letter-spacing:.09em;}.cls-33{letter-spacing:-.15em;}.cls-6{fill:url(#_シルバー);}.cls-6,.cls-7,.cls-8,.cls-9,.cls-10{stroke-width:.24px;}.cls-34{letter-spacing:-.5em;}.cls-35{letter-spacing:-.49em;}.cls-7{fill:url(#_シルバー-3);}.cls-8{fill:url(#_シルバー-4);}.cls-9{fill:url(#_シルバー-5);}.cls-10{fill:url(#_シルバー-2);}.cls-36{letter-spacing:-.1em;}</style><linearGradient id="_シルバー" x1="46.49" y1="53.66" x2="61.69" y2="53.66" gradientUnits="userSpaceOnUse"><stop offset="0" stop-color="#e5e2df"/><stop offset="0" stop-color="#ded9d6"/><stop offset=".06" stop-color="#cfcac8"/><stop offset=".18" stop-color="#a8a4a6"/><stop offset=".26" stop-color="#8b878d"/><stop offset=".52" stop-color="#f3f4f4"/><stop offset=".58" stop-color="#e4e5e5"/><stop offset=".7" stop-color="#bfbec0"/><stop offset=".86" stop-color="#847f84"/><stop offset=".88" stop-color="#807b80"/><stop offset="1" stop-color="#d1d3d4"/><stop offset="1" stop-color="#a7a9ac"/></linearGradient><linearGradient id="_シルバー-2" x1="105.45" x2="120.65" xlink:href="#_シルバー"/><linearGradient id="_シルバー-3" x1="75.98" x2="91.16" xlink:href="#_シルバー"/><linearGradient id="_シルバー-4" x1="134.94" x2="150.13" xlink:href="#_シルバー"/><linearGradient id="_シルバー-5" x1="164.42" x2="179.61" xlink:href="#_シルバー"/></defs><g id="_情報"><g><g><polygon class="cls-20" points=".73 .17 209.45 .34 209.45 105.69 .73 105.69 .73 .17"/><g><rect class="cls-4" x=".73" y="80.21" width="208.72" height="25.48"/><polyline class="cls-5" points="184.29 .56 184.29 15.24 42.58 15.24 42.58 .1"/><text class="cls-14" transform="translate(185.69 91.08)"><tspan x="0" y="0">支持</tspan><tspan x="0" y="8.91">地盤</tspan></text><text class="cls-11" transform="translate(182.91 23.8)"><tspan x="0" y="0">地表面</tspan></text><polygon class="cls-12" points="190.56 14.1 200.53 14.1 195.55 6.4 190.56 14.1"/><polygon class="cls-19" points="37.25 21.38 42.25 21.38 39.75 15.87 37.25 21.38"/><polygon class="cls-19" points="42.25 85.53 37.25 85.53 39.75 91.04 42.25 85.53"/><g><text class="cls-13" transform="translate(-2.89 114.62) scale(1.01 1)"><tspan class="cls-28" x="0" y="0">［概念図</tspan><tspan class="cls-35" x="23.04" y="0">］</tspan></text><text class="cls-13" transform="translate(23.39 114.62)"><tspan class="cls-30" x="0" y="0" xml:space="preserve"> ※本構造</tspan><tspan class="cls-21" x="28.14" y="0">図は</tspan><tspan class="cls-34" x="40.39" y="0">、</tspan><tspan class="cls-25" x="43.25" y="0">イ</tspan><tspan class="cls-36" x="47.97" y="0">メ</tspan><tspan class="cls-23" x="53.07" y="0">ー</tspan><tspan class="cls-17" x="58.49" y="0">ジ</tspan><tspan class="cls-15" x="64.23" y="0">で</tspan><tspan class="cls-33" x="69.92" y="0">あ</tspan><tspan class="cls-24" x="74.77" y="0">り</tspan><tspan class="cls-30" x="79.99" y="0">実</tspan><tspan class="cls-26" x="86.38" y="0">物</tspan><tspan class="cls-16" x="91.87" y="0">と</tspan><tspan class="cls-21" x="97.1" y="0">は</tspan><tspan class="cls-22" x="103.23" y="0">異</tspan><tspan class="cls-1" x="109.15" y="0">な</tspan><tspan class="cls-27" x="113.9" y="0">り</tspan><tspan class="cls-29" x="118.28" y="0">ま</tspan><tspan class="cls-32" x="123.66" y="0">す</tspan><tspan class="cls-31" x="129.89" y="0">。</tspan></text></g><polygon class="cls-6" points="61.69 88.4 54.08 91.85 46.49 88.4 48.41 75.57 48.41 15.47 59.38 15.47 59.38 75.54 61.69 88.4"/><polygon class="cls-10" points="120.65 88.4 113.05 91.85 105.45 88.4 107.37 75.57 107.37 15.47 118.34 15.47 118.34 75.54 120.65 88.4"/><polygon class="cls-7" points="91.16 88.4 83.57 91.85 75.98 88.4 77.89 75.57 77.89 15.47 88.86 15.47 88.86 75.54 91.16 88.4"/><polygon class="cls-8" points="150.13 88.4 142.53 91.85 134.94 88.4 136.85 75.57 136.85 15.47 147.83 15.47 147.83 75.54 150.13 88.4"/><polygon class="cls-9" points="179.61 88.4 172.01 91.85 164.42 88.4 166.33 75.57 166.33 15.47 177.3 15.47 177.3 75.54 179.61 88.4"/></g></g><line class="cls-3" x1="39.72" y1="20.46" x2="39.72" y2="86.51"/><text class="cls-18" transform="translate(2.95 57.11)"><tspan x="0" y="0">約18.5m</tspan></text><polygon class="cls-2" points=".73 .17 209.45 .34 209.45 105.69 .73 105.69 .73 .17"/></g></g></svg>