<svg width="196" height="117" viewBox="0 0 196 117" fill="none" xmlns="http://www.w3.org/2000/svg">
<g clip-path="url(#clip0_70_46)">
<path d="M145.434 97.2583H107.079C106.732 97.2589 106.397 97.136 106.132 96.9117C105.868 96.6874 105.692 96.3763 105.636 96.0341C105.597 95.7936 101.653 71.5301 96.4095 24.925C96.3862 24.7215 96.406 24.5153 96.4679 24.32C96.5297 24.1246 96.6321 23.9446 96.7683 23.7915C96.9045 23.6385 97.0715 23.516 97.2584 23.432C97.4452 23.3479 97.6477 23.3043 97.8526 23.304H102.74C103.061 23.3037 103.374 23.4097 103.629 23.6055C103.884 23.8012 104.067 24.0757 104.149 24.3863C104.202 24.5883 109.535 44.686 115.935 68.7474C116.034 69.1212 115.981 69.5192 115.787 69.8539C115.593 70.1886 115.274 70.4325 114.901 70.532C114.527 70.6315 114.129 70.5784 113.794 70.3845C113.459 70.1905 113.215 69.8716 113.116 69.4978C107.558 48.6136 102.807 30.7143 101.614 26.219H99.493C103.981 65.9044 107.481 88.9581 108.322 94.3408H144.292L149.22 74.2937C139.616 70.3179 129.671 69.6421 125.741 69.5387C125.549 69.5336 125.361 69.4909 125.186 69.413C125.011 69.3351 124.853 69.2235 124.721 69.0845C124.59 68.9456 124.486 68.7821 124.418 68.6033C124.349 68.4246 124.317 68.2341 124.322 68.0426C124.327 67.8512 124.369 67.6627 124.447 67.4878C124.525 67.3129 124.637 67.155 124.776 67.0233C124.915 66.8915 125.078 66.7884 125.257 66.7198C125.436 66.6512 125.626 66.6185 125.818 66.6236C130.075 66.7342 141.105 67.4943 151.522 72.1074C151.835 72.2461 152.09 72.491 152.241 72.7989C152.392 73.1069 152.429 73.4582 152.347 73.791L146.851 96.1591C146.771 96.4738 146.588 96.7528 146.331 96.9518C146.075 97.1509 145.759 97.2588 145.434 97.2583Z" fill="white" stroke="white"/>
<path d="M130.806 39.8204C130.146 39.8192 129.49 39.7278 128.855 39.5486C127.039 39.0377 125.5 37.8273 124.574 36.183C123.649 34.5387 123.414 32.5946 123.92 30.7769C124.025 30.4047 124.273 30.0895 124.611 29.9005C124.948 29.7115 125.347 29.6642 125.719 29.7692C126.091 29.8741 126.407 30.1226 126.596 30.46C126.785 30.7974 126.832 31.196 126.727 31.5682C126.425 32.6466 126.564 33.8007 127.113 34.7765C127.662 35.7524 128.577 36.4701 129.655 36.7718C130.733 37.0736 131.888 36.9346 132.863 36.3854C133.839 35.8362 134.557 34.9219 134.859 33.8435L135.936 29.3675L135.951 29.3146C136.22 28.3525 135.681 27.3183 135.037 26.4909C134.782 26.6821 134.515 26.8572 134.238 27.0152C133.036 27.7079 130.955 28.4584 127.903 28.1625C127.707 28.1507 127.515 28.0993 127.339 28.0115C127.163 27.9237 127.007 27.8013 126.879 27.6516C126.752 27.5019 126.656 27.3281 126.597 27.1404C126.539 26.9528 126.519 26.7552 126.538 26.5596C126.558 26.364 126.617 26.1744 126.712 26.0021C126.806 25.8298 126.935 25.6784 127.089 25.557C127.244 25.4356 127.421 25.3467 127.611 25.2955C127.801 25.2444 127.999 25.2321 128.194 25.2595C132.218 25.6635 133.757 23.7659 133.894 23.5758C134.007 23.3969 134.159 23.2457 134.339 23.1333C134.518 23.0209 134.72 22.9502 134.931 22.9264C135.146 22.903 135.364 22.9283 135.568 23.0003C135.772 23.0723 135.957 23.1893 136.109 23.3425C139.056 26.1614 139.183 28.5522 138.767 30.077L137.687 34.5555L137.673 34.6084C137.249 36.1049 136.35 37.4228 135.111 38.3631C133.872 39.3034 132.361 39.8149 130.806 39.8204Z" fill="white" stroke="white"/>
<path d="M125.096 34.8417C124.914 34.8424 124.734 34.8081 124.565 34.7407C120.476 33.1316 121.385 26.9142 121.825 23.9174L121.904 23.3714C122.044 22.1968 122.524 21.0887 123.285 20.1832C124.046 19.2777 125.055 18.6144 126.188 18.2748C129.394 15.4415 133.404 16.7764 133.885 16.9544C137.112 18.0223 138.964 17.356 139.145 17.2863C139.332 17.195 139.536 17.1463 139.744 17.1438C139.952 17.1413 140.158 17.1851 140.347 17.2719C140.539 17.3589 140.71 17.4869 140.847 17.6469C140.984 17.8069 141.084 17.9949 141.141 18.1978C143.145 24.8217 138.784 29.3242 138.596 29.5142C138.325 29.7895 137.955 29.9455 137.568 29.948C137.181 29.9504 136.809 29.7992 136.534 29.5274C136.259 29.2557 136.103 28.8857 136.1 28.499C136.098 28.1122 136.249 27.7402 136.521 27.465C137.367 26.5091 137.996 25.381 138.364 24.1585C138.731 22.9361 138.83 21.6483 138.652 20.3842C137.382 20.5573 135.443 20.5453 132.947 19.7131L132.882 19.6891C132.771 19.6482 129.959 18.6356 127.932 20.6391C127.719 20.8497 127.447 20.9899 127.152 21.0408C126.96 21.0792 125.11 21.5074 124.795 23.7731C124.771 23.9438 124.745 24.1362 124.714 24.3431C124.435 26.2335 123.696 31.2555 125.632 32.0156C125.95 32.1387 126.214 32.3693 126.38 32.6671C126.545 32.965 126.601 33.3113 126.537 33.646C126.474 33.9807 126.295 34.2826 126.032 34.4993C125.77 34.7159 125.439 34.8337 125.098 34.8321L125.096 34.8417Z" fill="white" stroke="white"/>
<path d="M119.552 70.241C118.712 70.2397 117.88 70.0658 117.11 69.73C116.339 69.3943 115.645 68.9039 115.072 68.2892C114.499 67.6746 114.058 66.9487 113.776 66.1567C113.495 65.3646 113.379 64.5232 113.436 63.6845C113.871 57.2555 114.506 48.4141 115.052 42.7956C115.234 40.9821 115.881 39.2462 116.931 37.7562C117.98 36.2662 119.397 35.0726 121.043 34.2909L123.323 33.2182C123.674 33.0533 124.076 33.0345 124.441 33.166C124.806 33.2975 125.103 33.5684 125.268 33.9193C125.433 34.2701 125.452 34.6721 125.32 35.0368C125.189 35.4015 124.918 35.699 124.567 35.8639L122.287 36.9366C121.096 37.5003 120.072 38.3626 119.313 39.4394C118.555 40.5162 118.088 41.771 117.958 43.0818C117.416 48.6666 116.784 57.4768 116.348 63.8866C116.316 64.3589 116.389 64.8325 116.56 65.2737C116.732 65.715 116.998 66.113 117.341 66.4395C117.684 66.766 118.094 67.013 118.544 67.1629C118.993 67.3128 119.469 67.3619 119.939 67.3067C124.892 66.7199 133.976 65.652 139.162 65.0627C139.492 65.025 139.811 64.9187 140.098 64.7507C140.384 64.5826 140.633 64.3565 140.828 64.0869C141.022 63.8173 141.158 63.51 141.227 63.1847C141.296 62.8595 141.296 62.5235 141.228 62.1981C141.1 61.6075 140.755 61.0867 140.26 60.7391C139.766 60.3914 139.159 60.2426 138.56 60.3221L123.206 62.3497C123.011 62.3854 122.812 62.3812 122.619 62.3374C122.427 62.2936 122.245 62.2111 122.085 62.095C121.925 61.9788 121.791 61.8314 121.69 61.6616C121.589 61.4919 121.523 61.3034 121.497 61.1076C121.471 60.9117 121.486 60.7127 121.539 60.5225C121.592 60.3323 121.684 60.1549 121.808 60.0012C121.932 59.8474 122.086 59.7204 122.26 59.628C122.435 59.5356 122.626 59.4796 122.823 59.4634L138.171 57.4359C139.567 57.2608 140.976 57.6476 142.087 58.5111C143.198 59.3747 143.921 60.6443 144.096 62.0406C144.271 63.4369 143.884 64.8457 143.021 65.9568C142.157 67.068 140.887 67.7907 139.491 67.9658C134.313 68.555 125.233 69.6229 120.281 70.2074C120.039 70.2331 119.796 70.2443 119.552 70.241Z" fill="white" stroke="white"/>
<path d="M135.535 60.3318C135.479 60.3318 135.424 60.3318 135.369 60.3318C135.178 60.3103 134.994 60.2515 134.826 60.1587C134.659 60.0659 134.511 59.941 134.392 59.7911C134.273 59.6412 134.184 59.4693 134.131 59.2852C134.078 59.101 134.062 58.9083 134.084 58.7179L135.84 43.2911C135.862 43.0967 135.924 42.9088 136.02 42.7385C136.117 42.5682 136.246 42.4191 136.402 42.2999C136.557 42.1808 136.734 42.0941 136.924 42.045C137.113 41.9958 137.311 41.9853 137.504 42.014L149.53 43.7962L155.303 40.3448C155.538 40.2042 155.808 40.1328 156.083 40.1388C156.357 40.1447 156.624 40.2277 156.853 40.3783C157.082 40.5289 157.264 40.741 157.378 40.9903C157.493 41.2396 157.534 41.516 157.499 41.7879L155.87 54.5498C155.8 54.9125 155.595 55.235 155.296 55.4521C154.997 55.6691 154.626 55.7646 154.26 55.719C153.893 55.6735 153.557 55.4904 153.321 55.2068C153.084 54.9232 152.963 54.5603 152.984 54.1914L154.232 44.3879L150.579 46.5574C150.289 46.7285 149.95 46.7955 149.617 46.7474L138.565 45.1095L136.98 59.0378C136.939 59.3931 136.77 59.7211 136.503 59.9597C136.237 60.1982 135.892 60.3306 135.535 60.3318Z" fill="white" stroke="white"/>
<path d="M154.408 66.3445C154.223 66.3444 154.038 66.3323 153.855 66.3084L153.164 66.217C152.068 66.0727 151.074 65.4988 150.4 64.6215C149.727 63.7443 149.43 62.6354 149.574 61.5389L150.043 57.9744C150.188 56.879 150.762 55.8859 151.638 55.2128C152.515 54.5397 153.622 54.2415 154.718 54.3835L155.411 54.4749C155.953 54.5463 156.477 54.724 156.95 54.9976C157.424 55.2713 157.84 55.6356 158.173 56.0698C158.506 56.504 158.75 56.9996 158.891 57.5282C159.033 58.0568 159.069 58.6081 158.997 59.1506L158.53 62.7175C158.398 63.7189 157.907 64.6383 157.149 65.3053C156.39 65.9723 155.416 66.3415 154.406 66.3445H154.408ZM154.167 57.2649C153.864 57.2653 153.571 57.3761 153.343 57.5765C153.115 57.777 152.968 58.0535 152.929 58.3545L152.46 61.9214C152.417 62.2502 152.506 62.5826 152.708 62.8456C152.91 63.1085 153.208 63.2804 153.537 63.3236L154.228 63.415C154.391 63.4366 154.556 63.4259 154.715 63.3834C154.874 63.3409 155.023 63.2676 155.153 63.1675C155.284 63.0674 155.393 62.9426 155.475 62.8001C155.558 62.6577 155.611 62.5005 155.632 62.3374L156.111 58.7609C156.132 58.5979 156.122 58.4323 156.079 58.2734C156.037 58.1146 155.963 57.9657 155.863 57.8352C155.763 57.7047 155.638 57.5953 155.496 57.5131C155.354 57.4309 155.196 57.3777 155.033 57.3563L154.341 57.2649C154.289 57.2618 154.238 57.2618 154.187 57.2649H154.167Z" fill="white" stroke="white"/>
<path d="M142.579 45.0517C142.243 45.0512 141.918 44.9345 141.658 44.7215C141.398 44.5085 141.22 44.2122 141.153 43.8828L140.256 39.4693C140.08 38.6095 139.682 37.8111 139.1 37.1542C138.518 36.4973 137.774 36.005 136.942 35.7269C136.76 35.6664 136.592 35.5707 136.447 35.4453C136.303 35.3199 136.184 35.1673 136.099 34.9961C136.013 34.8249 135.962 34.6385 135.948 34.4476C135.935 34.2567 135.959 34.0649 136.019 33.8833C136.08 33.7017 136.175 33.5337 136.301 33.3891C136.426 33.2445 136.579 33.1259 136.75 33.0403C136.921 32.9546 137.108 32.9035 137.298 32.8899C137.489 32.8763 137.681 32.9004 137.863 32.9609C139.183 33.4002 140.365 34.1798 141.288 35.221C142.212 36.2623 142.845 37.5285 143.123 38.8921L144.018 43.3056C144.056 43.4934 144.057 43.687 144.021 43.8752C143.984 44.0634 143.911 44.2426 143.805 44.4024C143.699 44.5622 143.563 44.6995 143.403 44.8064C143.244 44.9133 143.066 44.9877 142.878 45.0253C142.779 45.0441 142.679 45.0529 142.579 45.0517Z" fill="white" stroke="white"/>
<path d="M110.025 27.1595C105.467 27.1595 102.48 26.1974 102.295 26.1469C101.927 26.0273 101.622 25.7665 101.447 25.4219C101.271 25.0773 101.24 24.6771 101.359 24.3094C101.479 23.9416 101.74 23.6364 102.084 23.461C102.429 23.2855 102.829 23.2541 103.197 23.3737C103.286 23.4026 109.407 25.3123 117.339 23.3449C117.711 23.2621 118.101 23.3281 118.425 23.5287C118.749 23.7293 118.982 24.0488 119.074 24.4187C119.165 24.7886 119.109 25.1798 118.916 25.5085C118.723 25.8373 118.409 26.0776 118.042 26.1782C115.419 26.828 112.727 27.1575 110.025 27.1595Z" fill="white" stroke="white"/>
<path d="M178.703 96.3133C178.205 96.313 177.709 96.2467 177.228 96.1161C176.501 95.9205 175.821 95.5783 175.23 95.1105C174.64 94.6427 174.151 94.0593 173.794 93.3958L164.202 75.8381C164.037 75.5303 163.761 75.2965 163.43 75.1836C163.1 75.0707 162.739 75.0871 162.42 75.2295L150.24 80.5763C150.064 80.6578 149.873 80.7033 149.679 80.7103C149.486 80.7172 149.292 80.6854 149.111 80.6166C148.929 80.5479 148.764 80.4436 148.623 80.31C148.482 80.1763 148.37 80.0159 148.292 79.8382C148.214 79.6606 148.173 79.4691 148.17 79.2752C148.167 79.0812 148.203 78.8886 148.275 78.7087C148.348 78.5288 148.456 78.3652 148.592 78.2274C148.729 78.0897 148.892 77.9806 149.071 77.9065L161.248 72.5694C162.235 72.1306 163.352 72.0806 164.374 72.4293C165.397 72.778 166.25 73.4998 166.763 74.4503L176.355 92.0081C176.527 92.3227 176.761 92.5993 177.042 92.8213C177.324 93.0433 177.647 93.2062 177.993 93.3001C178.339 93.394 178.7 93.417 179.055 93.3678C179.41 93.3185 179.752 93.198 180.059 93.0134C180.642 92.6642 181.069 92.1057 181.253 91.452C181.437 90.7983 181.365 90.099 181.05 89.497L169.878 68.1704C169.104 66.6816 167.804 65.534 166.231 64.9507C164.658 64.3675 162.924 64.3903 161.366 65.0148L144.239 72.1293C144.062 72.2027 143.872 72.2406 143.681 72.2407C143.489 72.2409 143.3 72.2033 143.123 72.1302C142.946 72.057 142.785 71.9498 142.649 71.8145C142.514 71.6791 142.406 71.5185 142.333 71.3416C142.259 71.1647 142.221 70.9751 142.221 70.7836C142.221 70.5921 142.259 70.4024 142.332 70.2254C142.48 69.8679 142.763 69.5838 143.12 69.4355L160.267 62.3138C162.497 61.4145 164.981 61.3777 167.236 62.2106C169.492 63.0434 171.356 64.6861 172.466 66.8186L183.636 88.1429C184.295 89.4044 184.448 90.8701 184.062 92.2404C183.677 93.6107 182.783 94.782 181.562 95.5148C180.7 96.0366 179.711 96.3127 178.703 96.3133Z" fill="white" stroke="white"/>
<path d="M124.139 61.8035H124.059C123.673 61.7824 123.311 61.6086 123.052 61.3204C122.794 61.0322 122.66 60.6531 122.681 60.2666L123.357 47.7284C123.378 47.3422 123.551 46.98 123.839 46.7215C124.127 46.4631 124.505 46.3295 124.892 46.3502C125.278 46.371 125.64 46.5443 125.899 46.8321C126.157 47.1198 126.291 47.4985 126.27 47.8847L125.594 60.4253C125.574 60.7976 125.412 61.1479 125.141 61.4042C124.87 61.6605 124.512 61.8034 124.139 61.8035Z" fill="white" stroke="white"/>
<path d="M158.559 116.485C158.269 116.485 157.979 116.464 157.691 116.423C156.148 116.206 154.75 115.399 153.79 114.172C152.831 112.945 152.385 111.394 152.546 109.845L155.305 82.832C155.344 82.4474 155.535 82.0941 155.834 81.8498C156.134 81.6056 156.519 81.4904 156.903 81.5296C157.288 81.5688 157.641 81.7593 157.886 82.059C158.13 82.3587 158.245 82.7432 158.206 83.1279L155.449 110.14C155.368 110.962 155.616 111.782 156.139 112.42C156.662 113.059 157.417 113.463 158.238 113.545C159.059 113.627 159.88 113.379 160.518 112.856C161.157 112.333 161.561 111.577 161.643 110.756L164.81 76.4367C164.859 76.0619 165.051 75.7206 165.346 75.4846C165.641 75.2485 166.017 75.1361 166.393 75.171C166.769 75.2059 167.117 75.3854 167.364 75.6717C167.611 75.9579 167.737 76.3287 167.716 76.706L164.541 111.033C164.398 112.522 163.706 113.904 162.601 114.912C161.496 115.919 160.055 116.48 158.559 116.485Z" fill="white" stroke="white"/>
<path d="M103.565 116.485C103.476 116.484 103.388 116.476 103.3 116.461C102.92 116.391 102.583 116.173 102.363 115.855C102.144 115.536 102.06 115.144 102.129 114.763L105.643 95.5364C105.677 95.348 105.749 95.1682 105.853 95.0073C105.956 94.8464 106.091 94.7075 106.249 94.5987C106.406 94.4898 106.584 94.413 106.771 94.3727C106.958 94.3324 107.151 94.3294 107.34 94.3638C107.528 94.3983 107.708 94.4695 107.869 94.5734C108.03 94.6773 108.169 94.8119 108.278 94.9694C108.386 95.127 108.463 95.3045 108.504 95.4917C108.544 95.6789 108.547 95.8723 108.512 96.0607L104.998 115.283C104.938 115.619 104.762 115.924 104.5 116.144C104.238 116.364 103.907 116.485 103.565 116.485Z" fill="white" stroke="white"/>
<path d="M148.958 116.485C148.614 116.487 148.281 116.367 148.017 116.147C147.753 115.927 147.575 115.621 147.515 115.283L144.001 96.0556C143.931 95.6751 144.016 95.2825 144.236 94.9643C144.455 94.6461 144.793 94.4283 145.173 94.3587C145.554 94.2892 145.946 94.3737 146.265 94.5936C146.583 94.8135 146.801 95.1507 146.87 95.5312L150.384 114.758C150.419 114.947 150.416 115.14 150.376 115.327C150.336 115.515 150.259 115.692 150.15 115.85C150.042 116.008 149.903 116.143 149.742 116.247C149.581 116.351 149.401 116.422 149.213 116.456C149.129 116.472 149.043 116.482 148.958 116.485Z" fill="white" stroke="white"/>
<path d="M178.388 67.7252C178.013 67.727 177.652 67.5844 177.38 67.3271C177.107 67.0699 176.945 66.7176 176.925 66.3435C176.906 65.9694 177.031 65.6022 177.275 65.318C177.519 65.0338 177.863 64.8545 178.236 64.8173C182.409 64.3748 186.135 63.4873 188.72 62.3184C190.885 61.3419 192.172 60.197 192.172 59.2614C192.172 57.2964 186.544 54.2105 175.975 53.5106C175.784 53.498 175.597 53.4478 175.426 53.363C175.254 53.2782 175.101 53.1604 174.974 53.0164C174.848 52.8723 174.752 52.7048 174.69 52.5234C174.629 52.3421 174.604 52.1504 174.616 51.9593C174.629 51.7682 174.679 51.5815 174.764 51.4097C174.849 51.238 174.966 51.0847 175.111 50.9585C175.255 50.8323 175.422 50.7357 175.603 50.6743C175.785 50.6128 175.977 50.5877 176.168 50.6003C181.199 50.9323 185.81 51.8607 189.156 53.2148C194.065 55.2039 195.094 57.5994 195.094 59.2614C195.094 60.8007 194.197 63.0447 189.928 64.9761C187.022 66.2893 183.087 67.2369 178.546 67.718C178.491 67.7228 178.438 67.7252 178.388 67.7252Z" fill="white" stroke="white"/>
<path d="M161.248 54.3117C160.888 54.3071 160.543 54.1695 160.278 53.9254C160.014 53.6814 159.849 53.3481 159.816 52.9897C159.782 52.6314 159.883 52.2734 160.097 51.9846C160.312 51.6958 160.626 51.4966 160.979 51.4255C163.011 51.0468 165.062 50.7834 167.124 50.6366C167.502 50.6219 167.871 50.7547 168.153 51.0069C168.436 51.2591 168.609 51.611 168.637 51.9884C168.664 52.3658 168.545 52.7392 168.302 53.03C168.06 53.3207 167.714 53.506 167.338 53.5469C165.387 53.6842 163.445 53.9331 161.522 54.2925C161.432 54.307 161.34 54.3134 161.248 54.3117Z" fill="white" stroke="white"/>
<path d="M174.243 57.7172H169.005C168.222 57.7166 167.472 57.4056 166.918 56.8523C166.364 56.2991 166.053 55.5488 166.051 54.7661V46.2542C166.051 46.0626 166.089 45.8728 166.163 45.6958C166.236 45.5189 166.344 45.3581 166.479 45.2227C166.615 45.0873 166.776 44.98 166.953 44.9069C167.13 44.8338 167.32 44.7963 167.511 44.7966H175.737C175.929 44.7963 176.118 44.8338 176.296 44.9069C176.473 44.98 176.634 45.0873 176.769 45.2227C176.905 45.3581 177.012 45.5189 177.086 45.6958C177.159 45.8728 177.197 46.0626 177.197 46.2542V54.7757C177.193 55.5568 176.88 56.3046 176.327 56.8557C175.774 57.4069 175.025 57.7166 174.243 57.7172ZM168.969 47.6973V54.7589C168.969 54.7684 168.973 54.7776 168.98 54.7844C168.986 54.7912 168.995 54.795 169.005 54.795H174.243C174.253 54.795 174.262 54.7912 174.269 54.7844C174.276 54.7776 174.28 54.7684 174.28 54.7589V47.6973H168.969Z" fill="white" stroke="white"/>
<path d="M169.724 41.7684C169.337 41.7684 168.966 41.6146 168.692 41.3408C168.418 41.067 168.264 40.6956 168.264 40.3084C168.243 39.2993 168.493 38.3029 168.986 37.4222C169.254 36.9413 169.395 36.3998 169.395 35.8492C169.395 35.2986 169.254 34.7572 168.986 34.2763C168.493 33.3956 168.243 32.3992 168.264 31.39C168.256 31.1935 168.288 30.9974 168.358 30.8134C168.427 30.6295 168.534 30.4615 168.67 30.3196C168.806 30.1777 168.97 30.0648 169.151 29.9877C169.332 29.9106 169.526 29.8708 169.723 29.8708C169.92 29.8708 170.114 29.9106 170.295 29.9877C170.476 30.0648 170.64 30.1777 170.776 30.3196C170.912 30.4615 171.018 30.6295 171.088 30.8134C171.158 30.9974 171.19 31.1935 171.182 31.39C171.163 31.9428 171.305 32.4891 171.591 32.963C172.063 33.8518 172.31 34.8428 172.31 35.8492C172.31 36.8556 172.063 37.8467 171.591 38.7354C171.305 39.2094 171.163 39.7556 171.182 40.3084C171.182 40.5 171.145 40.6898 171.071 40.8669C170.998 41.0441 170.891 41.205 170.756 41.3406C170.62 41.4762 170.459 41.5838 170.282 41.6572C170.105 41.7306 169.916 41.7684 169.724 41.7684Z" fill="white" stroke="white"/>
<path d="M174.939 43.5051C174.552 43.5051 174.181 43.3515 173.908 43.0781C173.635 42.8048 173.481 42.4341 173.481 42.0475C173.464 41.1078 173.734 40.1851 174.253 39.4018C174.487 39.063 174.612 38.6612 174.612 38.2497C174.612 37.8382 174.487 37.4365 174.253 37.0977C173.734 36.3144 173.464 35.3917 173.481 34.452C173.496 34.0753 173.657 33.7192 173.929 33.4581C174.2 33.1971 174.563 33.0513 174.94 33.0513C175.317 33.0513 175.679 33.1971 175.951 33.4581C176.223 33.7192 176.383 34.0753 176.398 34.452C176.385 34.8654 176.511 35.2713 176.757 35.604C177.26 36.3946 177.528 37.3125 177.528 38.2497C177.528 39.187 177.26 40.1048 176.757 40.8954C176.509 41.2274 176.382 41.6337 176.396 42.0475C176.396 42.4341 176.243 42.8048 175.969 43.0781C175.696 43.3515 175.325 43.5051 174.939 43.5051Z" fill="white" stroke="white"/>
<path d="M71.6535 19.0159C72.6773 19.0155 73.6788 18.7164 74.5352 18.1554C75.3917 17.5943 76.0658 16.7956 76.4751 15.8571C76.6264 15.5113 76.634 15.1195 76.4964 14.768C76.3588 14.4166 76.0872 14.1341 75.7413 13.9829C75.3955 13.8317 75.0037 13.8241 74.6522 13.9617C74.3008 14.0993 74.0184 14.3709 73.8671 14.7167C73.7413 15.0096 73.5582 15.2743 73.3285 15.4953C73.0988 15.7163 72.8271 15.8891 72.5296 16.0034C72.0792 16.1776 71.5874 16.2153 71.1157 16.1117C70.644 16.008 70.2133 15.7677 69.8774 15.4207C69.5415 15.0738 69.3153 14.6355 69.227 14.1607C69.1387 13.6859 69.1922 13.1956 69.3809 12.7511L71.1535 9.2182C71.3214 8.88018 71.3482 8.48929 71.2279 8.13153C71.1076 7.77376 70.8501 7.47842 70.5121 7.31049C70.1741 7.14256 69.7832 7.11578 69.4254 7.23605C69.0677 7.35632 68.7723 7.61379 68.6044 7.95182L66.8136 11.5213C66.8015 11.5437 66.7907 11.5668 66.7811 11.5904C66.5023 12.2278 66.3518 12.914 66.3383 13.6096C66.3247 14.3052 66.4483 14.9966 66.702 15.6444C66.9557 16.2923 67.3345 16.8838 67.8169 17.3852C68.2992 17.8866 68.8755 18.2881 69.513 18.5667C70.1879 18.8626 70.9166 19.0156 71.6535 19.0159Z" fill="white" stroke="white"/>
<path d="M74.9486 18.0648C77.5911 18.0648 79.5222 14.8408 80.5101 13.1862L80.7134 12.865C81.1899 12.1315 81.4424 11.275 81.4399 10.4003C81.4373 9.52553 81.1799 8.6705 80.6992 7.93974C80.1585 4.9313 77.3716 3.82956 76.9569 3.68117C75.0136 2.93516 74.3571 1.931 74.2717 1.78668C74.1894 1.60389 74.0676 1.44163 73.915 1.31158C73.7625 1.18153 73.583 1.08692 73.3895 1.03457C73.1893 0.980865 72.9796 0.972338 72.7757 1.0096C72.5718 1.04687 72.3788 1.12899 72.2105 1.25003C68.0739 4.03893 68.4459 8.53329 68.4622 8.72437C68.4964 9.10175 68.6791 9.45008 68.9702 9.69272C69.2612 9.93536 69.6368 10.0524 70.0141 10.0182C70.3915 9.98396 70.7398 9.80122 70.9825 9.51016C71.2251 9.21911 71.3422 8.8436 71.308 8.46622C71.2811 7.73061 71.3994 6.99691 71.6561 6.30702C71.9128 5.61714 72.3029 4.98458 72.8041 4.44548C73.7167 5.28208 74.7853 5.93067 75.9487 6.35421L76.0117 6.37657C76.0707 6.3969 77.7436 7.00265 77.9164 8.65323C77.9363 8.94196 78.0531 9.21553 78.2477 9.42973C78.3839 9.60251 78.8961 10.3749 78.2762 11.3893C78.2131 11.4909 78.144 11.6047 78.0729 11.7287C76.1926 14.8612 75.2413 15.3368 74.7717 15.1844C74.4113 15.0674 74.0192 15.0984 73.6817 15.2705C73.3441 15.4426 73.0887 15.7417 72.9718 16.1021C72.8548 16.4625 72.8857 16.8547 73.0579 17.1922C73.23 17.5298 73.5291 17.7851 73.8895 17.9021C74.2317 18.0123 74.5892 18.0672 74.9486 18.0648Z" fill="white" stroke="white"/>
<path d="M77.8533 23.303C78.0708 23.3029 78.2854 23.253 78.4805 23.157C78.6757 23.0611 78.8463 22.9217 78.9792 22.7495C79.1121 22.5774 79.2037 22.3771 79.2471 22.164C79.2905 21.9509 79.2845 21.7307 79.2295 21.5203L77.709 15.788C77.6636 15.6047 77.5821 15.4324 77.4693 15.281C77.3566 15.1295 77.2149 15.0021 77.0524 14.9059C76.8899 14.8098 76.7099 14.747 76.5229 14.7212C76.3358 14.6953 76.1456 14.7069 75.9631 14.7554C75.7806 14.8038 75.6096 14.888 75.46 15.0032C75.3104 15.1184 75.1852 15.2621 75.0917 15.4262C74.9983 15.5902 74.9384 15.7712 74.9155 15.9586C74.8927 16.146 74.9074 16.3361 74.9587 16.5177L76.4792 22.25C76.5606 22.5522 76.7393 22.8192 76.9877 23.0095C77.2362 23.1999 77.5404 23.303 77.8533 23.303Z" fill="white" stroke="white"/>
<path d="M80.9553 28.9704C81.6672 28.9706 82.3701 28.8103 83.0116 28.5014C83.6531 28.1926 84.2168 27.7432 84.6607 27.1866C85.1046 26.6299 85.4174 25.9804 85.5758 25.2863C85.7342 24.5921 85.7342 23.8712 85.5756 23.1771C85.5756 23.1528 85.5634 23.1263 85.5553 23.1019L83.1018 14.5645C83.0539 14.3808 82.9696 14.2086 82.8541 14.0579C82.7386 13.9073 82.5941 13.7813 82.4291 13.6874C82.2642 13.5935 82.0821 13.5335 81.8936 13.511C81.7051 13.4885 81.514 13.504 81.3316 13.5565C81.1492 13.6089 80.9791 13.6974 80.8314 13.8166C80.6836 13.9359 80.5613 14.0834 80.4715 14.2507C80.3817 14.4179 80.3262 14.6014 80.3084 14.7904C80.2906 14.9794 80.3108 15.1701 80.3678 15.3511L82.8071 23.854C82.868 24.1455 82.8594 24.4473 82.7819 24.7348C82.7044 25.0224 82.5601 25.2876 82.361 25.5089C82.1618 25.7303 81.9132 25.9016 81.6354 26.0089C81.3576 26.1162 81.0584 26.1566 80.7621 26.1266L69.8545 24.1447C69.6685 24.1058 69.4766 24.1046 69.2901 24.1411C69.1036 24.1776 68.9263 24.2511 68.7687 24.3572C68.6111 24.4633 68.4763 24.6 68.3724 24.759C68.2684 24.9181 68.1973 25.0964 68.1634 25.2833C68.1294 25.4703 68.1333 25.6622 68.1747 25.8477C68.2161 26.0331 68.2943 26.2084 68.4045 26.3632C68.5148 26.5179 68.6549 26.649 68.8167 26.7488C68.9785 26.8485 69.1585 26.9148 69.3463 26.9438L80.3007 28.9338L80.3841 28.948C80.5739 28.9667 80.7646 28.9741 80.9553 28.9704Z" fill="white" stroke="white"/>
<path d="M51.0071 24.5694C51.2976 24.5711 51.5816 24.483 51.8202 24.3173L62.1566 17.2028C62.4034 17.0318 62.5898 16.7871 62.6891 16.5038C62.7884 16.2205 62.7956 15.913 62.7095 15.6254L59.9572 6.16505C59.9051 5.83856 59.9379 5.50416 60.0526 5.19406C60.1672 4.88396 60.3598 4.60861 60.6118 4.39454C61.2439 3.8518 62.1566 3.72577 63.112 4.04898L67.1226 5.40684C67.2996 5.4669 67.4866 5.49152 67.6731 5.47928C67.8596 5.46704 68.0419 5.41819 68.2095 5.33552C68.3771 5.25284 68.5268 5.13796 68.65 4.99743C68.7733 4.85691 68.8676 4.69349 68.9276 4.51651C68.9877 4.33952 69.0123 4.15244 69.0001 3.96595C68.9878 3.77945 68.939 3.5972 68.8563 3.42958C68.7736 3.26196 68.6588 3.11228 68.5182 2.98906C68.3777 2.86584 68.2143 2.77151 68.0373 2.71144L64.0247 1.35358C62.12 0.70921 60.1625 1.04054 58.7579 2.23579C58.1227 2.77854 57.6412 3.47859 57.3615 4.2659C57.0818 5.05321 57.0138 5.90017 57.1643 6.72202C57.1733 6.7742 57.1855 6.82579 57.2008 6.8765L59.6909 15.4221L50.2001 21.9553C50.046 22.0612 49.9143 22.1964 49.8125 22.3533C49.7107 22.5101 49.6408 22.6855 49.6068 22.8694C49.5728 23.0532 49.5754 23.242 49.6145 23.4249C49.6535 23.6078 49.7282 23.7812 49.8342 23.9351C49.9631 24.1286 50.1373 24.2876 50.3418 24.3981C50.5463 24.5087 50.7747 24.5675 51.0071 24.5694Z" fill="white" stroke="white"/>
<path d="M45.8196 29.4013C46.0908 29.4011 46.3561 29.3228 46.5839 29.1757C46.9015 28.9725 47.1255 28.6516 47.2067 28.2834C47.2878 27.9153 47.2196 27.5299 47.0169 27.212L43.5613 21.8294C43.3996 21.5772 43.1624 21.3825 42.8835 21.273C42.6047 21.1635 42.2984 21.1448 42.0083 21.2196L27.0149 25.0634L26.9214 25.0919C26.5221 25.2235 26.0874 25.1955 25.7084 25.0135C25.3295 24.8316 25.0356 24.51 24.8886 24.1162C24.811 23.9119 24.7756 23.6939 24.7847 23.4756C24.7938 23.2572 24.8471 23.0429 24.9415 22.8457C25.0319 22.6533 25.1594 22.4806 25.3167 22.3376C25.474 22.1945 25.6581 22.084 25.8582 22.0123L42.8356 17.2659C43.1031 17.1949 43.3839 17.19 43.6537 17.2516C43.9235 17.3132 44.1743 17.4395 44.3845 17.6196L52.1821 27.147C52.3002 27.2918 52.4457 27.412 52.6102 27.5006C52.7747 27.5892 52.9551 27.6445 53.1411 27.6634C53.327 27.6823 53.5148 27.6643 53.6938 27.6106C53.8728 27.5569 54.0395 27.4684 54.1843 27.3503C54.3291 27.2322 54.4493 27.0867 54.5379 26.9221C54.6265 26.7576 54.6818 26.5772 54.7007 26.3913C54.7196 26.2053 54.7016 26.0175 54.6479 25.8385C54.5942 25.6595 54.5057 25.4928 54.3876 25.348L46.5209 15.7353C46.4807 15.6863 46.4373 15.6401 46.3908 15.597C45.8246 15.0653 45.1315 14.6877 44.3778 14.5001C43.6241 14.3126 42.8349 14.3214 42.0855 14.5258L25.0533 19.2844L24.9781 19.3068C24.4097 19.4976 23.8859 19.8017 23.4383 20.2007C22.9908 20.5997 22.6287 21.0853 22.3741 21.6281C22.1151 22.1691 21.9686 22.757 21.9434 23.3562C21.9183 23.9554 22.015 24.5535 22.2278 25.1143C22.6297 26.1897 23.4298 27.0695 24.4625 27.5712C25.4951 28.073 26.6812 28.1584 27.7751 27.8097L41.7277 24.2321L44.6183 28.7447C44.7472 28.9463 44.9248 29.1122 45.1348 29.227C45.3448 29.3417 45.5803 29.4017 45.8196 29.4013Z" fill="white" stroke="white"/>
<path d="M83.1201 21.1869C83.3941 21.187 83.6624 21.1079 83.8925 20.9592C91.8568 15.7961 96.9203 10.7631 97.1337 10.5517C97.3447 10.3406 97.484 10.0686 97.5319 9.77398C97.5798 9.47941 97.5338 9.17726 97.4005 8.91024C97.2672 8.64322 97.0534 8.42486 96.7892 8.28606C96.525 8.14727 96.2238 8.09504 95.9283 8.1368L84.0755 9.80771C83.8905 9.8344 83.7126 9.89727 83.5519 9.99273C83.3912 10.0882 83.2509 10.2144 83.1389 10.364C83.027 10.5137 82.9457 10.684 82.8995 10.8651C82.8534 11.0462 82.8434 11.2347 82.8701 11.4197C82.8968 11.6046 82.9597 11.7826 83.0551 11.9433C83.1506 12.104 83.2767 12.2443 83.4264 12.3562C83.5761 12.4681 83.7464 12.5495 83.9275 12.5956C84.1086 12.6418 84.2971 12.6518 84.482 12.6251L91.7267 11.6087C88.7518 14.1253 85.6213 16.4519 82.3538 18.5749C82.0964 18.7421 81.9 18.9881 81.7938 19.2761C81.6877 19.5641 81.6775 19.8787 81.7649 20.173C81.8522 20.4672 82.0324 20.7253 82.2784 20.9088C82.5245 21.0923 82.8233 21.1913 83.1303 21.191L83.1201 21.1869Z" fill="white" stroke="white"/>
<path d="M52.1942 31.7715C58.5079 31.7715 65.2037 30.2693 72.1149 27.2995C72.2867 27.2258 72.4423 27.119 72.5728 26.9852C72.7033 26.8514 72.8062 26.6932 72.8756 26.5196C72.9449 26.3461 72.9794 26.1605 72.9771 25.9737C72.9748 25.7868 72.9356 25.6022 72.862 25.4304C72.7883 25.2586 72.6815 25.103 72.5477 24.9725C72.4139 24.842 72.2557 24.7391 72.0821 24.6698C71.9086 24.6004 71.723 24.5659 71.5362 24.5682C71.3493 24.5706 71.1646 24.6097 70.9929 24.6833C64.2158 27.5922 57.6968 29.0151 51.5905 28.9175C44.9475 28.8078 37.7984 27.4092 30.3444 24.7586C29.9889 24.6322 29.5977 24.6522 29.2569 24.8142C28.9161 24.9762 28.6536 25.2669 28.5272 25.6225C28.4643 25.7986 28.4367 25.9855 28.4461 26.1723C28.4555 26.3591 28.5017 26.5423 28.5819 26.7112C28.6621 26.8802 28.7749 27.0317 28.9138 27.1571C29.0526 27.2824 29.2148 27.3792 29.3911 27.4418C37.1378 30.1961 44.5918 31.6495 51.5478 31.7613C51.7653 31.7694 51.9808 31.7715 52.1942 31.7715Z" fill="white" stroke="white"/>
<path d="M19.0059 22.8782C19.2705 22.8785 19.5299 22.8051 19.755 22.6661C19.9802 22.5272 20.1621 22.3282 20.2804 22.0915C20.4491 21.754 20.4768 21.3634 20.3575 21.0054C20.2382 20.6475 19.9816 20.3516 19.6442 20.1828C17.089 18.9083 14.851 17.6561 13.0155 16.5645L23.1608 18.0505C23.5341 18.1051 23.9139 18.0093 24.2166 17.784C24.5192 17.5587 24.72 17.2224 24.7748 16.8491C24.8295 16.4758 24.7336 16.096 24.5083 15.7934C24.283 15.4907 23.9468 15.2899 23.5734 15.2351L6.94574 12.7959C6.63174 12.7497 6.31133 12.8099 6.03546 12.9668C5.75958 13.1237 5.54408 13.3684 5.42323 13.6618C5.3028 13.9558 5.2842 14.2816 5.3704 14.5873C5.4566 14.8931 5.64264 15.1612 5.89888 15.349C6.10216 15.4953 10.8547 18.9693 18.3717 22.7217C18.5678 22.8233 18.7851 22.8769 19.0059 22.8782Z" fill="white" stroke="white"/>
<path d="M53.6212 42.864C60.5029 42.8679 67.2682 41.0883 73.2573 37.6988C78.1359 34.975 82.7176 31.1839 86.8766 26.4314C93.178 19.2376 96.5341 12.1312 97.2801 10.4562L101.681 7.11237C101.843 7.00463 101.981 6.86487 102.086 6.70173C102.192 6.53858 102.263 6.35551 102.295 6.16381C102.328 5.97211 102.32 5.77583 102.274 5.58711C102.227 5.39838 102.142 5.22119 102.025 5.06649C101.907 4.91178 101.759 4.78283 101.589 4.6876C101.42 4.59236 101.233 4.53285 101.039 4.51275C100.846 4.49265 100.651 4.51239 100.465 4.57073C100.28 4.62907 100.108 4.72479 99.9613 4.85198L95.2657 8.41738C95.0666 8.5688 94.9109 8.77002 94.8144 9.00077C94.7819 9.08005 91.4523 16.9142 84.6812 24.6223C80.7378 29.1146 76.4141 32.6861 71.8283 35.2412C66.2726 38.3767 60.0006 40.0223 53.6212 40.0182C47.1876 40.0182 40.7947 38.6339 34.6193 35.906C29.6513 33.7106 24.8113 30.6453 20.2296 26.7932C12.3853 20.197 7.97427 13.5012 7.93158 13.4341C7.82165 13.2718 7.67988 13.1335 7.51487 13.0276L3.19939 10.2163C2.88438 10.0099 2.50037 9.93677 2.13153 10.013C1.76269 10.0892 1.43911 10.3085 1.23171 10.6229C1.02527 10.9379 0.952132 11.3219 1.02834 11.6907C1.10455 12.0596 1.32388 12.3832 1.63826 12.5906L5.70371 15.2331C6.60827 16.5646 10.9563 22.6973 18.3066 28.9012C23.0998 32.9402 28.1775 36.1621 33.3976 38.4753C39.9755 41.3882 46.7709 42.864 53.6212 42.864Z" fill="white" stroke="white"/>
<path d="M34.0602 55.6703H74.4302C74.8076 55.6703 75.1695 55.5204 75.4363 55.2535C75.7032 54.9867 75.8531 54.6248 75.8531 54.2474C75.8531 53.87 75.7032 53.5081 75.4363 53.2412C75.1695 52.9744 74.8076 52.8245 74.4302 52.8245H34.0602C33.6829 52.8245 33.3209 52.9744 33.0541 53.2412C32.7872 53.5081 32.6373 53.87 32.6373 54.2474C32.6373 54.6248 32.7872 54.9867 33.0541 55.2535C33.3209 55.5204 33.6829 55.6703 34.0602 55.6703Z" fill="white" stroke="white"/>
<path d="M26.4843 55.6703H28.2101C28.5875 55.6703 28.9494 55.5204 29.2162 55.2535C29.4831 54.9867 29.633 54.6248 29.633 54.2474C29.633 53.87 29.4831 53.5081 29.2162 53.2412C28.9494 52.9744 28.5875 52.8245 28.2101 52.8245H26.4843C26.1069 52.8245 25.745 52.9744 25.4782 53.2412C25.2113 53.5081 25.0614 53.87 25.0614 54.2474C25.0614 54.6248 25.2113 54.9867 25.4782 55.2535C25.745 55.5204 26.1069 55.6703 26.4843 55.6703Z" fill="white" stroke="white"/>
<path d="M79.9999 55.6703H81.7257C82.103 55.6703 82.465 55.5204 82.7318 55.2535C82.9987 54.9867 83.1486 54.6248 83.1486 54.2474C83.1486 53.87 82.9987 53.5081 82.7318 53.2412C82.465 52.9744 82.103 52.8245 81.7257 52.8245H79.9999C79.6225 52.8245 79.2606 52.9744 78.9937 53.2412C78.7269 53.5081 78.577 53.87 78.577 54.2474C78.577 54.6248 78.7269 54.9867 78.9937 55.2535C79.2606 55.5204 79.6225 55.6703 79.9999 55.6703Z" fill="white" stroke="white"/>
<path d="M69.1533 11.5275C69.4917 11.5277 69.8192 11.4073 70.0768 11.1878C70.3345 10.9683 70.5055 10.6642 70.5591 10.33C70.6127 9.99585 70.5454 9.6535 70.3694 9.36444C70.1933 9.07538 69.92 8.85854 69.5984 8.75286L65.1081 7.27913C64.7523 7.17134 64.3684 7.2071 64.0386 7.37877C63.7088 7.55044 63.4593 7.84438 63.3435 8.19768C63.2277 8.55098 63.2548 8.93558 63.4189 9.26918C63.5831 9.60278 63.8713 9.85887 64.2219 9.98266L68.7101 11.4564C68.8531 11.5037 69.0027 11.5278 69.1533 11.5275Z" fill="white" stroke="white"/>
</g>
<defs>
<clipPath id="clip0_70_46">
<rect width="196" height="117" fill="white"/>
</clipPath>
</defs>
</svg>
