<svg width="91" height="100" viewBox="0 0 91 100" fill="none" xmlns="http://www.w3.org/2000/svg">
<g clip-path="url(#clip0_40_273)">
<path d="M82.3146 77.7415C81.9448 77.3799 81.4498 77.1746 80.9326 77.1685C80.4141 77.1685 79.9168 77.3744 79.5502 77.7411C79.1835 78.1077 78.9776 78.605 78.9776 79.1235C78.9838 79.6408 79.189 80.1357 79.5506 80.5055C79.9184 80.8702 80.4147 81.0759 80.9326 81.0786C81.4511 81.0786 81.9484 80.8726 82.3151 80.5059C82.6817 80.1393 82.8877 79.642 82.8877 79.1235C82.885 78.6056 82.6793 78.1094 82.3146 77.7415Z" fill="white"/>
<path d="M53.7528 77.7416C53.4814 77.4564 53.1302 77.2599 52.7452 77.1777C52.3602 77.0954 51.9593 77.1313 51.5951 77.2807C51.2309 77.43 50.9202 77.6858 50.7037 78.0147C50.4873 78.3435 50.3752 78.73 50.382 79.1236C50.3882 79.6408 50.5934 80.1358 50.9551 80.5056C51.3217 80.872 51.8187 81.0778 52.3371 81.0778C52.8554 81.0778 53.3525 80.872 53.7191 80.5056C54.0807 80.1358 54.2859 79.6408 54.2921 79.1236C54.2895 78.6057 54.0837 78.1094 53.7191 77.7416H53.7528Z" fill="white"/>
<path d="M25.2809 77.7415C24.9131 77.3769 24.4168 77.1711 23.8989 77.1685C23.3817 77.1746 22.8867 77.3799 22.5169 77.7415C22.1523 78.1094 21.9465 78.6056 21.9438 79.1235C21.9438 79.642 22.1498 80.1393 22.5165 80.5059C22.8831 80.8726 23.3804 81.0786 23.8989 81.0786C24.4174 81.0786 24.9147 80.8726 25.2813 80.5059C25.648 80.1393 25.854 79.642 25.854 79.1235C25.8551 78.8667 25.805 78.6121 25.7066 78.3748C25.6082 78.1375 25.4635 77.9222 25.2809 77.7415Z" fill="white"/>
<path d="M86.1012 68.7527H75.7528V60.9437H86.1012V68.7527ZM86.1012 85.5505H75.7528V72.6628H86.1012V85.5505ZM86.1012 96.0898H75.7528V89.4493H86.1012V96.0898ZM71.854 68.7527H61.4944V60.9437H71.854V68.7527ZM71.854 85.5505H61.4944V72.6628H71.854V85.5505ZM71.854 96.0898H61.4944V89.4493H71.854V96.0898ZM59.4944 53.9774C59.2382 53.9774 58.9845 54.0281 58.748 54.1264C58.5114 54.2248 58.2966 54.369 58.1159 54.5507C57.9353 54.7324 57.7924 54.948 57.6953 55.1852C57.5983 55.4223 57.5491 55.6763 57.5506 55.9325V57.0561H32.9439V55.9325C32.9439 55.414 32.7379 54.9167 32.3712 54.55C32.0046 54.1834 31.5073 53.9774 30.9888 53.9774C30.4703 53.9774 29.973 54.1834 29.6064 54.55C29.2397 54.9167 29.0337 55.414 29.0337 55.9325V57.0561H25.1349C25.4695 55.503 26.1907 54.0596 27.2317 52.8595C28.2727 51.6594 29.5997 50.7416 31.0899 50.1909L39.7866 47.0111C40.5784 46.7365 41.2663 46.2246 41.7568 45.545C42.2474 44.8655 42.5167 44.0514 42.5281 43.2134V41.91C43.3684 42.3454 44.3009 42.5726 45.2472 42.5726C46.1936 42.5726 47.1261 42.3454 47.9663 41.91V43.1909C47.9745 44.0297 48.2425 44.8454 48.7335 45.5255C49.2245 46.2056 49.9143 46.7168 50.7079 46.9887L59.3933 50.1684C60.885 50.7184 62.2139 51.6359 63.2568 52.836C64.2997 54.036 65.0229 55.4798 65.3596 57.0336H61.4495V55.91C61.4495 55.3915 61.2435 54.8942 60.8768 54.5276C60.5102 54.1609 60.0129 53.9549 59.4944 53.9549V53.9774ZM57.5506 68.7527H47.236V60.9437H57.5956V68.7527H57.5506ZM57.5506 85.5505H47.236V72.6628H57.5956V85.5505H57.5506ZM57.5506 96.0898H47.236V89.4493H57.5956V96.0898H57.5506ZM43.2922 68.7527H32.9439V60.9437H43.2922V68.7527ZM43.2922 85.5505H32.9439V72.6628H43.2922V85.5505ZM43.2922 96.0898H32.9439V89.4493H43.2922V96.0898ZM29.0337 68.7527H18.6854V60.9437H29.0337V68.7527ZM29.0337 85.5505H18.6854V72.6628H29.0337V85.5505ZM29.0337 96.0898H18.6854V89.4493H29.0337V96.0898ZM14.7753 68.7527H4.427V60.9437H14.7753V68.7527ZM14.7753 85.5505H4.427V72.6628H14.7753V85.5505ZM14.7753 96.0898H4.427V89.4493H14.7753V96.0898ZM37.1124 34.292C36.6937 33.9666 36.3489 33.5559 36.1009 33.0871C35.853 32.6183 35.7075 32.1022 35.6742 31.5729V28.9999L45.7866 18.8875L52.9214 26.0111C53.4642 26.5661 54.1246 26.9923 54.854 27.2583V31.528C54.8207 32.0585 54.6741 32.5757 54.4241 33.0447C54.1741 33.5137 53.8264 33.9238 53.4045 34.2471L46.5618 38.2021L46.4495 38.2695C46.1077 38.5058 45.702 38.6324 45.2865 38.6324C44.871 38.6324 44.4654 38.5058 44.1236 38.2695L44.0225 38.2021L37.1573 34.2808L37.1124 34.292ZM33.7416 25.4156L33 24.6741C31.4686 23.1422 30.6083 21.0648 30.6083 18.8988C30.6083 16.7327 31.4686 14.6553 33 13.1235L40.7641 5.37067C41.2311 4.90137 41.7861 4.52881 42.3972 4.2743C43.0084 4.0198 43.6638 3.88837 44.3259 3.88754C44.8683 3.88557 45.4073 3.97287 45.9214 4.14596C46.6395 4.38444 47.2848 4.80258 47.7958 5.36064C48.3069 5.91871 48.6667 6.59817 48.8412 7.33448C49.0157 8.07079 48.9991 8.83948 48.7929 9.56754C48.5866 10.2956 48.1977 10.9589 47.6629 11.4943L33.7416 25.4156ZM52.3034 11.3594L58.3034 17.3594C59.0163 18.0736 59.4167 19.0414 59.4167 20.0505C59.4167 21.0595 59.0163 22.0273 58.3034 22.7415L57.7416 23.3033C57.4619 23.5798 57.0844 23.7349 56.691 23.7349C56.2977 23.7349 55.9202 23.5798 55.6405 23.3033L48.5056 16.1684L50.427 14.2471C51.2495 13.4279 51.889 12.4438 52.3034 11.3594ZM88.0113 57.0111H69.3708C69.0121 54.649 68.0265 52.4263 66.5167 50.5746C65.0069 48.7229 63.0281 47.31 60.7866 46.483L52.1124 43.3033C51.9663 43.3033 51.9214 43.1797 51.9214 43.1684V39.6516L55.4158 37.6403C55.452 37.6218 55.4859 37.5992 55.5169 37.5729C56.4575 36.9199 57.2375 36.0617 57.7981 35.0632C58.3586 34.0647 58.6851 32.952 58.7529 31.8089C58.7584 31.7566 58.7584 31.7039 58.7529 31.6516V27.2471C59.4212 26.972 60.0284 26.5672 60.5394 26.0561L61.1012 25.4943C62.5434 24.0474 63.3533 22.0878 63.3533 20.0448C63.3533 18.0019 62.5434 16.0423 61.1012 14.5954L52.6292 6.101C52.2579 4.79332 51.5708 3.597 50.6284 2.61734C49.6859 1.63767 48.5171 0.904717 47.2248 0.483027C45.6495 -0.0425608 43.9588 -0.118032 42.343 0.265084C40.7271 0.648199 39.2503 1.4747 38.0787 2.65158L30.3147 10.4156C28.0566 12.6817 26.7887 15.7503 26.7887 18.9493C26.7887 22.1484 28.0566 25.217 30.3147 27.483L31.854 29.0111V31.8538C31.9212 32.9958 32.2463 34.1076 32.8048 35.1059C33.3633 36.1042 34.1407 36.963 35.0787 37.6179C35.1118 37.6468 35.1499 37.6697 35.1911 37.6853L38.6967 39.6965V43.2134C38.6554 43.2789 38.5914 43.3269 38.5169 43.3482L29.8315 46.528C27.5874 47.3508 25.6061 48.7625 24.0957 50.6149C22.5853 52.4674 21.6014 54.6923 21.2472 57.0561H2.51687C2.26008 57.0556 2.00575 57.1059 1.76854 57.2043C1.53133 57.3027 1.31596 57.447 1.13487 57.6291C0.772261 57.9983 0.566853 58.4937 0.561829 59.0111V98.0673C0.567744 98.5819 0.776343 99.0734 1.14235 99.4352C1.50835 99.797 2.00223 99.9999 2.51687 99.9999H88.0562C88.313 99.9999 88.5672 99.9493 88.8044 99.8511C89.0416 99.7528 89.2571 99.6088 89.4387 99.4273C89.6202 99.2457 89.7642 99.0302 89.8624 98.793C89.9607 98.5558 90.0113 98.3016 90.0113 98.0448V58.9887C90.0113 58.7319 89.9607 58.4777 89.8624 58.2405C89.7642 58.0033 89.6202 57.7878 89.4387 57.6062C89.2571 57.4247 89.0416 57.2807 88.8044 57.1824C88.5672 57.0842 88.313 57.0336 88.0562 57.0336L88.0113 57.0111Z" fill="white"/>
</g>
<defs>
<clipPath id="clip0_40_273">
<rect width="91" height="100" fill="white"/>
</clipPath>
</defs>
</svg>
