<svg xmlns="http://www.w3.org/2000/svg" viewBox="0 0 201.19 149.51"><defs><style>.cls-1{fill:none;stroke:#1238a6;stroke-miterlimit:10;stroke-width:3.44px;}.cls-2{fill:#0d38a6;}.cls-3{fill:#fff;}.cls-4{fill:#ffe33f;}</style></defs><g id="Layer_2" data-name="Layer 2"><g id="レイヤー_3" data-name="レイヤー 3"><circle class="cls-1" cx="126.43" cy="74.75" r="73.03"/><path class="cls-2" d="M101.55,54.24l1.26.15c0,.17-.06.41-.07.62-.19,3.4-.41,4.84-.87,5.39s-1.21.79-3.2.74a5.19,5.19,0,0,0-.52-1.92l-1.24.39a10.76,10.76,0,0,0-.67-2.43l1.55-.46a10.32,10.32,0,0,1,.77,2.37l-.23.06c.46,0,.87.05,1.11.05.49,0,.66-.2.82-1.12l-1.35.6a6.83,6.83,0,0,0-.83-1.91l1.36-.59a7.15,7.15,0,0,1,.85,1.61c0-.4.1-.93.15-1.61H93.32a7.35,7.35,0,0,1-.65.59l1.43.48a7.64,7.64,0,0,1-1.49,3.55l-1.77-1a6.11,6.11,0,0,0,1.26-2.52,10.88,10.88,0,0,1-.9.66c-.16-.18-.4-.44-.65-.69v3.94H88.2V53.32a14.41,14.41,0,0,1-.86,1.18,27.83,27.83,0,0,0-1-2.66A20.69,20.69,0,0,0,89.51,45l2.65.89c-.06.15-.23.24-.51.22-.35,1-.74,2-1.19,3l.58.19a.57.57,0,0,1-.49.34v5.91a15,15,0,0,0,4.27-5.42H91.69V48.22h1.58a13.42,13.42,0,0,0-1-2.51l2-.66a11.21,11.21,0,0,1,1.12,2.6l-1.61.57h1.87a28.56,28.56,0,0,0,1-3.28l2.66.68c-.06.17-.23.28-.52.28-.22.79-.46,1.58-.72,2.32H99.8l1.14.15c-.12,1-.29,1.9-.48,2.86h.19l1.14.15c-.11.85-.34,2.28-.46,2.89Zm-7.07,6a13.36,13.36,0,0,0-.28-3l1.74-.23A12,12,0,0,1,96.31,60Zm4.77-7.14H95.73c-.23.39-.49.76-.76,1.14h4.08Zm-.85-3H97.3c-.15.36-.32.72-.49,1.07H98.2Z"/><path class="cls-2" d="M108.15,51.54v5.34c1,1.58,2.81,1.58,5.73,1.58,2,0,4.41-.07,6.12-.22a12.49,12.49,0,0,0-.78,2.51c-1.27.07-3,.12-4.62.12-4.22,0-6-.08-7.53-1.89-.7.62-1.41,1.23-2,1.7,0,.23-.06.33-.27.39l-1.22-2.71A25.46,25.46,0,0,0,105.74,57V53.82H104V51.54Zm-2.39-6.19a14.11,14.11,0,0,1,2.79,2.53l-2,1.64a13.36,13.36,0,0,0-2.65-2.69Zm2.84,4.74h1.66a19.71,19.71,0,0,0-1.82-.85,10.16,10.16,0,0,0,1.84-4.14l2.62.66V45l3,.15c0,.19-.17.31-.51.38v1.27h3.51v2.08h-3.51v1.25h4.26v2.06h-11Zm9.87,8H116v-.39h-3.81v.44h-2.31V52.68h8.55Zm-5.57-8V48.84h-1.52a8.41,8.41,0,0,1-.74,1.25Zm-.67,5.55H116v-1h-3.81Zm.67-8.88v-.92a.45.45,0,0,1-.41.16c-.07.25-.15.51-.24.76Z"/><path class="cls-2" d="M131.59,49.87c0,.56-.06,1.16-.1,1.74H134l.54,0,1.36.1c0,.19,0,.49,0,.75-.14,5-.31,7-.84,7.67a2,2,0,0,1-1.44.86,6.9,6.9,0,0,1-1.46.1h-.68a6,6,0,0,0-.73-2.43c.64.06,1.24.07,1.58.07a.69.69,0,0,0,.57-.25c.26-.33.4-1.58.5-4.63h-2.09c-.41,2.74-1.31,5.39-3.59,7.3a6.42,6.42,0,0,0-1.7-1.79c2.86-2.26,3.11-5.88,3.23-9.47H127v-2c-.3,1.19-.69,2.5-1,3.51a5,5,0,0,1,1.35,3.26,2.8,2.8,0,0,1-1,2.5,2.46,2.46,0,0,1-1,.39,8,8,0,0,1-1.15.05,6.16,6.16,0,0,0-.51-2.12v5.66h-2.3V45.69h4.08l.38-.07,1.6.8a1.3,1.3,0,0,1-.16.31c-.07.27-.13.56-.2.85h3.42V45l2.95.15c0,.19-.17.31-.51.37v2.08h3.86v2.29Zm-8,5.6a5.18,5.18,0,0,0,.64,0,.64.64,0,0,0,.45-.14c.18-.12.25-.47.25-1a4.6,4.6,0,0,0-1.19-2.73c.27-1,.58-2.57.82-3.78h-1Z"/><path class="cls-2" d="M147.06,57.78h6v2.46H137.25V57.78h2.08V48.34l3.11.17c0,.19-.17.31-.53.38v8.89h2.5V44.94l3.19.17c0,.21-.17.33-.54.38v4.6h4.81v2.49h-4.81Z"/><path class="cls-2" d="M158.64,46.35c0,.19-.17.33-.49.36a38.39,38.39,0,0,0-.9,8.14A8.27,8.27,0,0,0,157.3,56c.15-.34.8-1.63,1-2.14l1.14,2a17.39,17.39,0,0,0-1.39,2.7,2.76,2.76,0,0,0-.14.81A2.52,2.52,0,0,0,158,60l-2.59.38a21.09,21.09,0,0,1-.8-6.19,61.44,61.44,0,0,1,.75-8.26Zm9.91,12.84c-.63,0-1.29.05-1.93.05-2.23,0-6.26,0-6.26-3.26a5.48,5.48,0,0,1,1.39-3.44l2.5.8a3.15,3.15,0,0,0-1.17,2.24c0,.92.78,1.16,3,1.16a20,20,0,0,0,2.52-.15ZM160.82,47.9a61.48,61.48,0,0,0,7.1-.63l.23,2.55a63.19,63.19,0,0,1-7.25.56Z"/><path class="cls-2" d="M105,74.86a18.49,18.49,0,0,1-2.75.52c0,.67,0,1.29,0,1.89a12.25,12.25,0,0,1,3-.46c2.74,0,5,1.34,5,4.25,0,2.57-1.39,4.39-4.45,4.39a4.1,4.1,0,0,1-3.1-1.45,14.91,14.91,0,0,0,1.26-2,2.54,2.54,0,0,0,1.87,1,1.76,1.76,0,0,0,1.8-2c0-1.22-.9-2-2.48-2a11,11,0,0,0-2.9.46v3.18a3,3,0,0,1-3.32,3,3,3,0,0,1-3.3-3c0-1.42,1.13-3.17,4.15-4.51V75.59c-1.07,0-2.28.07-3.6.07l0-2.47c1.36,0,2.56,0,3.65,0V70.39l3.15.06a.46.46,0,0,1-.45.41c0,.66-.08,1.34-.12,2a12.19,12.19,0,0,0,2.38-.59Zm-5.25,5.66c-.76.49-1.8,1.17-1.8,2.1a.8.8,0,0,0,.87.91c.61,0,1-.31,1-1C99.76,82.15,99.76,81.33,99.74,80.52Zm9.54-4.2a13,13,0,0,0-3.81-2.18L106.73,72a12.2,12.2,0,0,1,4,2.09Z"/><path class="cls-2" d="M116.93,73.28a22.62,22.62,0,0,1,1.59,2.24l-1.75,1.14a10.41,10.41,0,0,0-.69-1.24V86.11h-2.42V77a5,5,0,0,1-.61,1.36l-1.68-1a7.64,7.64,0,0,0,.83-3.91l1.46.21V70l2.91.15c0,.19-.15.31-.49.36V73.8Zm2.32-2.72a17.36,17.36,0,0,1,1.64,3.73l-2.28.94a16.83,16.83,0,0,0-1.46-3.86Zm5.55,6.34a.45.45,0,0,1-.46.22,16.59,16.59,0,0,1-.67,2.22c.34.31.65.62.91.9V77.12l3,.15c0,.2-.15.31-.51.37v8.2h-2.46v-.39h-4.7v.62h-2.36V77.12l2.86.15c0,.19-.16.29-.5.36v1.14l1.28-1.57c.22.17.44.34.66.53a14.81,14.81,0,0,0,.36-1.46Zm-4.92,4.92A8.57,8.57,0,0,0,121,79.9c-.39-.35-.78-.71-1.16-1Zm0,1.4h4.7V81.43l-1,1.26a9.79,9.79,0,0,0-.92-1.14,8.16,8.16,0,0,1-1,1.58,13.39,13.39,0,0,0-1.77-1.08Zm3.1-13a19.46,19.46,0,0,1,.63,2.94,13.94,13.94,0,0,0,1.27-2.65l2.82.88a.45.45,0,0,1-.49.21,19.61,19.61,0,0,1-3,4.91A13.53,13.53,0,0,0,122,75.33a9.23,9.23,0,0,0,.87-1l-1.58.36a20.88,20.88,0,0,0-.58-4Z"/><path class="cls-2" d="M143.23,75.08a.51.51,0,0,1-.53.34c-.18.81-.49,2.09-.76,3.11.71.32,1.6.75,2.36,1.14l-1.1,2.48c-.72-.41-1.38-.77-2-1.12a9.76,9.76,0,0,1-3.35,4.76,13.3,13.3,0,0,0-2.14-1.43,8.43,8.43,0,0,0,3.13-4.4,15.92,15.92,0,0,0-2.79-.87c-1.15,3.77-2.29,5-4.6,5-1.91,0-2.86-1.36-2.86-3.24,0-2.72,2.89-4.19,5.51-4.15a25.11,25.11,0,0,0,.64-3.4c-.83.08-2.67.25-4,.34a.8.8,0,0,1-.46.27L130,71.2c2,0,4.91-.25,5.61-.32a1,1,0,0,0,.47-.26l2,1a1.23,1.23,0,0,1-.46.36c-.24,1.32-.71,3.53-1.07,4.87a18.61,18.61,0,0,1,2.87.77,26,26,0,0,0,.67-3.21Zm-9.71,3.79c-1.56,0-2.67.83-2.67,1.95,0,.58.28,1,.7,1C132.45,81.79,132.91,80.86,133.52,78.87Z"/><path class="cls-2" d="M154.91,74.45a.62.62,0,0,1-.55.29c-.74,6.07-2.41,8.84-5.37,8.84-2.05,0-3.43-1.62-3.43-4.63a7.56,7.56,0,0,1,7.87-7.54c4.78,0,7.41,2.71,7.41,6.57s-1.94,6.11-6.31,7.28a11.78,11.78,0,0,0-1.66-2.18c3.86-.76,5.2-2.6,5.2-5,0-2.71-1.95-4.23-4.69-4.23a6.79,6.79,0,0,0-1,.09Zm-3.21-.39a5,5,0,0,0-3.59,4.79c0,1.24.25,2.18,1,2.18C150.54,81,151.48,77.69,151.7,74.06Z"/><path class="cls-2" d="M114.91,102.49a3.17,3.17,0,0,1,2.49,3.15,3.67,3.67,0,0,1-1.23,2.72c-.9.79-2.39,1.25-4.93,1.25a20.3,20.3,0,0,1-2.92-.18V96.54a21.37,21.37,0,0,1,3.55-.27,6.56,6.56,0,0,1,3.71.8,2.92,2.92,0,0,1,1.36,2.55,3,3,0,0,1-2,2.82Zm-2.92-.88c1.26,0,2-.68,2-1.63s-.73-1.52-1.73-1.52a4.1,4.1,0,0,0-1,.09v3.06Zm-.7,5.71a4,4,0,0,0,.84.05c1.14,0,2.14-.55,2.14-1.82s-1.12-1.78-2.21-1.78h-.77Z"/><path class="cls-2" d="M127.45,95.44a.54.54,0,0,1-.47.46,19.92,19.92,0,0,0,.25,2.24,27.39,27.39,0,0,0,5-.87l.46,2.62a37.29,37.29,0,0,1-4.88.66,5.18,5.18,0,0,0,2.8,3.3L128.76,106a6.42,6.42,0,0,0-1-.77,6.26,6.26,0,0,0-2.57-.42l-.73-2.06a8.54,8.54,0,0,1,1.67.12,9.5,9.5,0,0,1-1-2.16c-.63,0-1.19.05-2,.05-1,0-3.12,0-4.3-.05V98.29c.93,0,2.1.07,4.31.07.43,0,.92,0,1.36,0-.18-1-.3-2-.44-3Zm-1.17,15c-4.38,0-6.27-1.82-6.27-3.82a4.13,4.13,0,0,1,1.43-2.94l2,1.44a1.69,1.69,0,0,0-.75,1.38c0,1.07,1.45,1.5,3.71,1.5,1.31,0,2.36-.06,3.26-.11l-.23,2.55Z"/><path class="cls-2" d="M132.8,109.58c.94-2.84,3.11-9.18,3.64-10.64.35-1,.93-2.81,1.07-3.42l3.42.8a.76.76,0,0,1-.75.48c-.6,1.24-1.89,4.57-2.5,6.2a4.41,4.41,0,0,1,2.82-1,2.22,2.22,0,0,1,2.24,2.53c0,.36-.06,2.19-.06,2.21,0,.8.23,1.09.76,1.09,1.17,0,1.94-1.4,2.67-4.07a19.41,19.41,0,0,0,2.41,1.47c-1.08,3.29-2.6,5.28-5.16,5.28-2.2,0-3.45-1.12-3.45-2.94,0-.3.06-1.83.06-2.17,0-.63-.12-.9-.44-.9-1.41,0-2.89,2.12-3.41,3.74-.23.69-.46,1.44-.68,2.21Z"/><path class="cls-3" d="M63.47,22.12c.29.55.57,1.12.85,1.7,2.26,4.79,5.6,9,7.49,14.12a48.37,48.37,0,0,1,.39,32.84c-2.58,7.16-7.36,14-14.5,16.65,1.46-.51,3.74,6.38,4.1,7.06,1.88,3.51,4.74,4.19,7.62,6.42,2.6,2,4.84,5.85,6.34,8.73,2.85,5.49,3.54,11.75,3.41,17.86,0,4.47.38,8.63.64,13-3.71.32-7.85,1.24-11.54.5a67.46,67.46,0,0,0-13-1c-5.57,0-11.14-.08-16.71-.11-12.65-.07-25.18,2.26-37.82,1.93C2,136,1.19,130,2.45,123.93c.56-2.71,1.68-5.17,2.35-7.79.78-3,.94-5.92,2.39-8.74,2.09-4.09,6.07-5.31,9.21-8.2a166,166,0,0,1,13.43-11c2.47-1.84.75-3.18-1.54-2.7-1.71.36-3.11,2-4.95,2.28-2.69.47-7.58-.41-9.72-1.93,2.47-3.52-.28-5.69-1.77-8.87-1.87-4-5-9.2-5.69-13.54A62.5,62.5,0,0,1,8.71,34.9c2.22-6.82,5.74-13.44,11.3-18,8.32-6.66,17.37-6.07,27.32-4.93a32.19,32.19,0,0,1,6.47,1.18C58.57,14.71,61.31,18,63.47,22.12Z"/><path class="cls-4" d="M3.62,140.78c.35-11,1.36-21.29,5-31.75,1.32-3.82,4.57-4,7.74-6.25a22.94,22.94,0,0,0,6.4-6.51c-3.47,5.61,6.43,25.26,10,29,3.16,3.26,4.78,4.06,7.91,7.21,4.09-5.82,9.05-10.38,12.11-16,3.6-6.61,5.83-12.1,6.38-21.59,0-.42,4.09,7.84,4.41,8.44,1.52,2.92,4,4.28,6.33,6.46,4.89,4.58,4.06,10,4.28,16.22a53.77,53.77,0,0,0,.85,8.26c.34,1.7,2.1,5.45.64,6.76C74.92,141.64,7.43,141.94,3.62,140.78Z"/><path class="cls-4" d="M8.47,44.26c-1.35,3.46-4.11,8.58-3.94,12.35A46,46,0,0,0,7.65,69.39c1.44,3.68,4.1,6.76,5.61,10.41s1.48,7.45,6,8.39c3,.61,9.09,0,10.41-3.29,0-.08-4-2.54-4.4-2.84a15.76,15.76,0,0,1-4.28-5c-1.56-2.74-2.5-5.72-5-7.79-3.23-2.61-9.71-4.35-9.1-9.61a5.77,5.77,0,0,1,4.65-5.12c1.45-.17,4-.84,5-1.94C18,50.94,17.83,49.18,20.24,48a23.71,23.71,0,0,1,6.2-1.5,46.73,46.73,0,0,0,25-13c-1.12,1.12,3.53,8.12,4.27,9.1,1.94,2.57,4.45,4.63,6.47,7.14,3.06,3.79,10.05,4.65,10.39,10.11.27,4.37-3.4,6.32-7.12,6.1.13,0-4.66,9.52-5.31,10.43-2.14,3-5.38,4.8-8.35,6.9-4.33,3.07,6,5,8.27,4.43C67.47,86,66.84,78.48,70,73A16.5,16.5,0,0,0,72.4,65.5c.79-5.87,3.19-13.1,0-18.67-3.68-6.52-7-13.32-11.4-19.37-3.07-4.18-6.68-10.59-12-12a22.33,22.33,0,0,0-7.3-.27c-5.93.43-12.27,1-17.53,4-5.75,3.31-6.56,8-10,13.34A64.62,64.62,0,0,0,8.47,44.26Z"/><path class="cls-2" d="M43.38,76a1.41,1.41,0,0,1-.69-.17c-2.41-1.34-4-1.39-5.56-.18a1.42,1.42,0,0,1-1.75-2.23c3.27-2.58,6.52-1.28,8.69-.07A1.41,1.41,0,0,1,43.38,76Z"/><path class="cls-2" d="M26.19,49.22a1,1,0,0,1-.88-.55.92.92,0,0,1,.45-1.24l.06,0A11.31,11.31,0,0,0,29.67,45a.95.95,0,1,1,1.47,1.19,12.19,12.19,0,0,1-4.55,3A.93.93,0,0,1,26.19,49.22Z"/><path class="cls-2" d="M52.36,49.16l.39-.86-.45.83a12.27,12.27,0,0,1-4.55-3A.95.95,0,0,1,49.22,45a11.4,11.4,0,0,0,3.85,2.42l-.32.89Z"/><path class="cls-2" d="M28.54,91.56a1.44,1.44,0,0,1-1-.41,1.42,1.42,0,0,1,0-2c1.41-1.43,1.64-3.85,1.67-4.82a1.42,1.42,0,1,1,2.84.1,10.21,10.21,0,0,1-2.49,6.72A1.43,1.43,0,0,1,28.54,91.56Z"/><path class="cls-2" d="M49.52,96.87a1.38,1.38,0,0,1-.82-.26,1.42,1.42,0,0,1-.34-2,4.86,4.86,0,0,0,.61-1.1c.45-1.19.09-2-.62-3.52a9.05,9.05,0,0,1-1.21-4.68A1.42,1.42,0,1,1,50,85.5a6.61,6.61,0,0,0,.93,3.29c.72,1.5,1.62,3.36.72,5.74a7.46,7.46,0,0,1-.95,1.74A1.4,1.4,0,0,1,49.52,96.87Z"/><path class="cls-2" d="M57.22,100.58h-.16A1.42,1.42,0,0,1,55.81,99a10.22,10.22,0,0,0-.51-4.36c-.64-2-2.26-5.23-5.71-5.11a1.45,1.45,0,0,1-1.46-1.39,1.42,1.42,0,0,1,1.38-1.45c3.92-.09,7,2.48,8.48,7.07a13,13,0,0,1,.64,5.56A1.42,1.42,0,0,1,57.22,100.58Z"/><path class="cls-2" d="M40.37,106a1.41,1.41,0,0,1-1.14-.57h0A36.22,36.22,0,0,0,36.14,102a26.93,26.93,0,0,1-4.68-5.87A1.42,1.42,0,1,1,34,94.75,24.47,24.47,0,0,0,38.18,100c.67.68,1.34,1.38,2,2.12a54.8,54.8,0,0,1,4.15-3.73,36.18,36.18,0,0,0,3.94-3.65,1.42,1.42,0,0,1,2.71.86c-.29,1-1.55,2.16-4.81,5a42.55,42.55,0,0,0-4.38,4,1.41,1.41,0,0,1-.56,1.14A1.44,1.44,0,0,1,40.37,106Zm1.13-2.26Zm6.73-8.9Z"/><path class="cls-2" d="M1.42,142H1.33A1.42,1.42,0,0,1,0,140.46c0-.25,1.68-25.51,6.08-34.73,1.49-3.12,4.24-4.58,6.67-5.88a16.71,16.71,0,0,0,4.16-2.75,11,11,0,0,1,2.42-4c.27-.33.54-.65.79-1a1.42,1.42,0,1,1,2.26,1.72c-.27.36-.57.72-.87,1.08a7.91,7.91,0,0,0-1.91,3.1,1.45,1.45,0,0,1-.34.69,17.85,17.85,0,0,1-5.18,3.62c-2.24,1.19-4.35,2.31-5.44,4.59-3.5,7.33-5.41,27.28-5.81,33.69A1.41,1.41,0,0,1,1.42,142Z"/><path class="cls-2" d="M79.17,141.85a1.42,1.42,0,0,1-1.41-1.33c-.48-7.2-2.17-27-4.17-32.17-1.47-3.76-4.26-5.42-7.48-7.34a39.42,39.42,0,0,1-4.26-2.8,10,10,0,0,1-2-2.95c-.67-1.21-2.41-4.38-3.3-4.69a1.45,1.45,0,0,1-2-.11,1.39,1.39,0,0,1,.07-2A2.7,2.7,0,0,1,57,87.75c2,.35,3.58,2.88,5.38,6.15A16.45,16.45,0,0,0,63.64,96a40,40,0,0,0,3.92,2.56c3.37,2,6.85,4.08,8.67,8.75,2.57,6.6,4.29,31.94,4.36,33a1.41,1.41,0,0,1-1.32,1.51Z"/><path class="cls-2" d="M40.81,132.05a1.43,1.43,0,0,1-1.07-2.36c7.19-8.16,13.46-23,16.64-33.24a1.42,1.42,0,1,1,2.71.84c-3.27,10.5-9.73,25.78-17.22,34.28A1.44,1.44,0,0,1,40.81,132.05Z"/><path class="cls-2" d="M39.55,132.67a1.39,1.39,0,0,1-.84-.28c-3.45-2.57-15.77-26.17-15.48-32.39a1.42,1.42,0,0,1,2.83.13c-.26,5.6,12,28.22,14.34,30a1.41,1.41,0,0,1,.29,2A1.39,1.39,0,0,1,39.55,132.67Z"/><path class="cls-2" d="M36.05,133.11h-.16c-2.33-.25-5.47-2.56-8.79-5-1.18-.88-2.41-1.78-3.52-2.52a1.42,1.42,0,0,1,1.57-2.36c1.17.78,2.42,1.7,3.64,2.6,2.6,1.91,5.83,4.3,7.41,4.47a1.42,1.42,0,0,1-.15,2.83Z"/><path class="cls-2" d="M20.2,122.06a1.43,1.43,0,0,1-1.34-.93c-.75-2.07.16-4.69,1.6-6.63l-.34-.4c-.33-.38-.64-.73-1-1.06a12.32,12.32,0,0,0-1.25-.89c-1.5-1-2.52-1.75-2.88-2.66-.82-2.07,2.17-11.93,2.61-12.84a1.42,1.42,0,0,1,2.56,1.23c-.56,1.16-2.6,8.91-2.51,10.56a13.58,13.58,0,0,0,1.8,1.35A13,13,0,0,1,21.14,111c.41.4.77.82,1.12,1.22a13.76,13.76,0,0,0,1.08,1.16,1.41,1.41,0,0,1,0,2c-1.41,1.42-2.26,3.58-1.85,4.7a1.42,1.42,0,0,1-.85,1.82A1.36,1.36,0,0,1,20.2,122.06Z"/><path class="cls-2" d="M46.26,132.9a1.42,1.42,0,0,1-.54-2.73,41.91,41.91,0,0,0,14.53-10.74,24.38,24.38,0,0,1-4.19-3.76l-.38-.4a1.42,1.42,0,0,1,.48-2.29c.46-.19.93-.4,1.41-.62a19.68,19.68,0,0,1,4.4-1.6,71,71,0,0,0-.66-7.67l-.11-.91a1.43,1.43,0,0,1,1.24-1.58A1.41,1.41,0,0,1,64,101.84l.11.9a61.7,61.7,0,0,1,.65,9.34,1.42,1.42,0,0,1-1.38,1.37,11.88,11.88,0,0,0-4.27,1.31A13.38,13.38,0,0,0,63,117.71a1.42,1.42,0,0,1,.56,2.1c-3.94,5.59-11.39,10.76-16.72,13A1.35,1.35,0,0,1,46.26,132.9ZM63.37,112Z"/><path class="cls-2" d="M22.84,98h0a1.41,1.41,0,0,1-1.4-1.41c0-1.75,2.27-7.62,5.12-9.37A3.31,3.31,0,0,1,29.87,87a1.42,1.42,0,0,1-1.27,2.54c-.08,0-.21-.11-.56.1-1.86,1.13-3.76,5.94-3.78,7A1.44,1.44,0,0,1,22.84,98Z"/><path class="cls-2" d="M32.57,114.91a1.42,1.42,0,0,1-1-2.42c.35-.35,1.08-1.39,1.8-2.39,2.56-3.6,4.68-6.4,6.65-6.9a1.42,1.42,0,0,1,1.13.19,1.46,1.46,0,0,1,.62,1c.27,1.16,4.1,5.91,5,6.53a1.4,1.4,0,0,1,.56,1.91,1.45,1.45,0,0,1-1.95.56c-.91-.49-4.11-4.16-5.63-6.73a42.51,42.51,0,0,0-4.07,5.13,26.88,26.88,0,0,1-2.11,2.75A1.42,1.42,0,0,1,32.57,114.91Z"/><path class="cls-2" d="M40.12,87.34h-.76a25.59,25.59,0,0,1-19.68-9.68c-4.47-5.54-6.48-16.9-4.57-25.84a1.42,1.42,0,0,1,2.78.59c-1.72,8.07.07,18.6,4,23.47a22.81,22.81,0,0,0,17.56,8.62,21.89,21.89,0,0,0,17.24-7.73c4.29-5.07,6.88-16.77,5.56-25a1.42,1.42,0,0,1,2.8-.45c1.46,9.12-1.38,21.63-6.19,27.32A24.76,24.76,0,0,1,40.12,87.34Z"/><path class="cls-2" d="M14.76,67.37l-.21,0c-4.15-.59-7.08-2.88-8-6.27a8.7,8.7,0,0,1,2.53-8.77,5.61,5.61,0,0,1,6.34-.59,1.42,1.42,0,1,1-1.29,2.52,2.78,2.78,0,0,0-3.25.26,5.87,5.87,0,0,0-1.6,5.82c.64,2.29,2.66,3.79,5.7,4.22a1.42,1.42,0,0,1-.2,2.83Z"/><path class="cls-2" d="M65.54,66.84A1.42,1.42,0,0,1,65.43,64c2.88-.22,4.89-1.5,5.68-3.62a5.21,5.21,0,0,0-1-5.34c-1.29-1.3-3.25-1.56-5.5-.72a1.42,1.42,0,1,1-1-2.66C66.88,50.45,70,51,72.07,53a8,8,0,0,1,1.7,8.34c-1.18,3.17-4.14,5.16-8.12,5.46Z"/><path class="cls-2" d="M67.85,87.7a1.39,1.39,0,0,1-1.14-.57c-3.59-4.78-.84-10,1.81-15.11.25-.46.49-.93.73-1.4,1.91-3.71,4-10,3.42-19.05-.43-6.16-2.87-13.22-5-17.77l-.25-.51c-3.92-8.35-9.84-21-20.11-19.83a31.23,31.23,0,0,1-7.1-.31,28.65,28.65,0,0,0-6.67-.29c-9.4,1.13-14.86,7.74-19,14.05a1.42,1.42,0,1,1-2.38-1.54c4.45-6.87,10.44-14.06,21-15.32a31.06,31.06,0,0,1,7.34.29,29.09,29.09,0,0,0,6.45.3C59.26,9.28,66,23.55,70,32.08l.24.51C72.47,37.38,75,44.82,75.5,51.37c.67,9.69-1.65,16.52-3.73,20.55L71,73.34c-2.84,5.42-4.45,8.9-2.06,12.09a1.41,1.41,0,0,1-1.13,2.27Z"/><path class="cls-2" d="M12.52,88.26a1.42,1.42,0,0,1-.75-2.63c1.63-1,.94-4.45-1.86-9.19C1.8,62.73,4.11,51.34,8,37.87a1.42,1.42,0,0,1,2.73.78C6.9,51.88,4.81,62.23,12.35,75c5.12,8.66,2.77,11.89.92,13A1.41,1.41,0,0,1,12.52,88.26Z"/><path class="cls-2" d="M40.19,66.94a4.76,4.76,0,0,1-3.11-1,3.51,3.51,0,0,1-1.17-3.14,1.42,1.42,0,0,1,2.83.24c-.05.55.12.69.17.74a4,4,0,0,0,2.86.08,1.43,1.43,0,0,1,1.73,1,1.42,1.42,0,0,1-1,1.72A9.4,9.4,0,0,1,40.19,66.94Z"/><path class="cls-2" d="M31.43,52.85a2.06,2.06,0,1,1-1.81-2.28A2.06,2.06,0,0,1,31.43,52.85Z"/><path class="cls-2" d="M52.77,52.86A2.06,2.06,0,1,1,51,50.57,2.06,2.06,0,0,1,52.77,52.86Z"/><path class="cls-2" d="M17.87,50.31a1.42,1.42,0,0,1-.46-2.76c8.8-3,14.6-8.24,15.13-13.61a1.42,1.42,0,1,1,2.82.28c-.64,6.48-7.16,12.62-17,16A1.48,1.48,0,0,1,17.87,50.31Z"/><path class="cls-2" d="M30.38,47.8A1.42,1.42,0,0,1,30,45c9.81-3.13,15.91-7.24,16.33-11a1.42,1.42,0,0,1,2.82.31c-.57,5.1-6.89,9.72-18.29,13.37A1.59,1.59,0,0,1,30.38,47.8Z"/><path class="cls-2" d="M60.43,50.08a1.42,1.42,0,0,1-1.14-.58A27.4,27.4,0,0,1,54,33a1.42,1.42,0,1,1,2.83,0,24.63,24.63,0,0,0,4.76,14.76,1.42,1.42,0,0,1-.31,2A1.39,1.39,0,0,1,60.43,50.08Z"/></g></g></svg>