<svg xmlns="http://www.w3.org/2000/svg" viewBox="0 0 745.21 378.14"><defs><style>.cls-1,.cls-3,.cls-7{fill:#fff;}.cls-2,.cls-8,.cls-9{fill:none;stroke-miterlimit:10;}.cls-2,.cls-3,.cls-7{stroke:#717071;}.cls-2,.cls-7{stroke-width:3.49px;}.cls-3{stroke-width:1.74px;}.cls-4{fill:#ea635f;}.cls-4,.cls-5,.cls-6,.cls-8{stroke:#fff;}.cls-4,.cls-5,.cls-6{stroke-width:1.74px;}.cls-5{fill:#f3afaf;}.cls-6{fill:#6a89a0;}.cls-8{stroke-width:1.33px;stroke-dasharray:2.65 2.65;}.cls-9{stroke:#ea635f;stroke-width:3.32px;}</style></defs><g id="Layer_2" data-name="Layer 2"><g id="レイヤー_3" data-name="レイヤー 3"><path class="cls-1" d="M673.88,213.51a16.55,16.55,0,0,0-.74-1.63c-.3.05-1.71.19-2.63.31V224h-2V212.41c-.5,0-2.3.2-3.68.28-.05.23-.16.73-.45.73-.08,0-.39-.08-.44-.67l-.17-2c.47,0,1.77-.06,2.19-.09A15.28,15.28,0,0,0,667.3,209c.23-.31.82-1.07,1.21-1.6a27.77,27.77,0,0,0-4.43-3.74l1.23-1.46c.59.37,1.27.85,1.55,1a48.53,48.53,0,0,0,2.92-4.83l1.71,1.07a.61.61,0,0,1,.31.45c0,.36-.59.31-.84.31a40.45,40.45,0,0,1-2.73,4.24c.25.22,1.38,1.23,1.6,1.46.9-1.21,1.85-2.53,2.56-3.65l1.65,1.21c.23.16.48.42.48.61s-.39.34-1.21.37a72.55,72.55,0,0,1-4.94,6.2c1.49-.08,2.81-.22,4-.36-.28-.59-.42-.82-.73-1.38l1.54-.81a24.75,24.75,0,0,1,2.39,4.69Zm-6.63,1.93a31.82,31.82,0,0,1-1.35,7.28l-2-.45a32.69,32.69,0,0,0,1.46-7.89l2,.22c.11,0,.5.06.5.37S667.45,215.36,667.25,215.44Zm5.89,6.41a32.67,32.67,0,0,0-1.54-7.11l1.83-.5a29,29,0,0,1,1.68,6.88Zm13.93-.68c-.67,2.61-2.58,2.72-4,2.72l-2.1,0-.73-2.47a13.82,13.82,0,0,0,2.72.45c2,0,2.3-1.66,2.53-3.65a117.19,117.19,0,0,0,.53-12h-7.83a19.79,19.79,0,0,1-2.28,3.14l-1.88-1a30.67,30.67,0,0,0,5.62-9.43l1.77,1c.22.11.39.25.39.42s-.65.48-.76.51a38.55,38.55,0,0,1-1.82,3.56H688C688,208.59,688,217.35,687.07,221.17Zm-6.54-4.52a36.2,36.2,0,0,0-2.42-5.42l1.89-.73a33.76,33.76,0,0,1,2.35,5.42Z"/><path class="cls-1" d="M697.4,221.9h-2.66A32.22,32.22,0,0,1,697.8,212a33.36,33.36,0,0,1,5.61-8.51H691.17v-2.1h15v2.1A34.1,34.1,0,0,0,697.4,221.9Z"/><path class="cls-1" d="M709.14,214.12v-1.68h7.16v-1.88h-4.38v-1.77h4.38v-1.74h-3.88v-1.77h3.88v-1.91l2,.23c.2,0,.54.05.54.28s-.34.47-.51.61v.79h3.93v1.77h-3.93v1.74h4.38v1.77h-4.38v1.88h6.88v1.68Zm13.9-7.77v-3.57H711.36v3.88h-1.91v-5.48h6.85v-2.75l2.1.22c.14,0,.34.06.34.23s-.31.45-.45.56v1.74h6.65v5.17Zm-1.83,17.32v-1.26h-7.83v1.46H711.5V216H723v7.66Zm0-5.9h-7.83v2.9h7.83ZM729,201.35v16h-2V200.2l2,.14c.17,0,.57,0,.57.34S729.21,201.21,729,201.35Zm4.1-1.52V221c0,2.7-1,2.7-5.2,2.7l-.59-2.19c1.13.11,2.5.14,2.73.14,1.12,0,1.15-.56,1.15-1.38V198.54l2.13.31c.09,0,.42.06.42.28S733.28,199.72,733.06,199.83Z"/><path class="cls-1" d="M660.13,244.57a53,53,0,0,0,5.87-1.46,27.1,27.1,0,0,0,.42-5.84l2.55.93c-.28,1.21-.42,2.08-.78,4.24a13.64,13.64,0,0,1,2.33-.28c1.63,0,4,1,4,5.22a20.5,20.5,0,0,1-1.82,8.53,3.9,3.9,0,0,1-3.74,2.17c-.31,0-.64,0-1.51-.12l-.9-2.27a21,21,0,0,0,2.33.22c.7,0,1.77,0,2.5-1.91a19.27,19.27,0,0,0,1.09-6.17c0-1.57-.17-3.85-2.36-3.85a10.77,10.77,0,0,0-2.24.37,43.14,43.14,0,0,1-5.7,14l-2.11-1.12a21.82,21.82,0,0,0,3.6-6.1,26.42,26.42,0,0,0,1.93-6.26c-.42.17-2.27.9-2.66,1.07a11.45,11.45,0,0,1-1.86.62Zm15.36-5.33c1.51,1.4,5.19,4.77,5.19,7.75,0,2-1.66,2.35-3.23,2.69l-1-2.24c.79,0,2,.05,2-.88a3.73,3.73,0,0,0-.7-1.79,19,19,0,0,0-3.68-4.16Zm4.91,1.37a21,21,0,0,0-2.64-2.41l1.32-1.15a22.65,22.65,0,0,1,2.84,2.41Zm1.52-5.39a20.39,20.39,0,0,1,2.63,2.33l-1.31,1.18c-.82-.84-1.72-1.71-2.48-2.36Z"/><path class="cls-1" d="M695,250.13a11.75,11.75,0,0,0-.73-1.91c-1.09.25-1.26.28-2.36.51v11.68H690V249.09l-3.28.82c-.09.16-.26.53-.48.53s-.28-.28-.28-.34l-.73-2a16.11,16.11,0,0,0,2.41-.22c.68-.87,1.07-1.49,2.28-3.2a33.35,33.35,0,0,0-4.24-3.37l1-1.55a9.06,9.06,0,0,1,1.4,1,25.22,25.22,0,0,0,3.2-6l1.94.95c.2.12.31.26.31.4s-.25.33-.81.42a60.65,60.65,0,0,1-3.18,5.42c.2.14,1,.75,1.46,1.15a37.4,37.4,0,0,0,2.42-3.93l1.94,1.2c.05,0,.22.14.22.28s-.59.37-1,.48c-1.24,1.8-3.29,4.63-4.52,6.43a20,20,0,0,0,3.51-.73c-.17-.34-.7-1.26-1-1.74l1.6-.81a20.11,20.11,0,0,1,2.41,5.19Zm-5.84,1.57a42,42,0,0,1-1.49,7.64l-1.74-.59a31.43,31.43,0,0,0,1.38-7.89l2,.17c.26,0,.42.14.42.28S689.57,251.56,689.17,251.7Zm4.94,6.32a30.73,30.73,0,0,0-1.37-6.94l1.68-.67a37.18,37.18,0,0,1,1.55,7.33Zm4.69.81v1.46h-1.91V235.14l1.91.17c.37,0,.59.08.59.28s-.31.42-.59.53v20.95h12.27v1.76Zm11-5.11a27.86,27.86,0,0,1-3.73-5.5v7.89h-1.77v-7.94a33.45,33.45,0,0,1-3.57,6.06l-1.77-.87a27,27,0,0,0,4.47-7.61h-4V244h4.89v-9l1.91.22c.14,0,.5.06.5.28s-.36.42-.64.56V244h4.74v1.77h-4.1a20.58,20.58,0,0,0,4.92,6.94Zm-8.2-10.83a24.58,24.58,0,0,0-2.13-5.06l1.63-.78a22.66,22.66,0,0,1,2.19,5.11Zm8.87-4.89a31.25,31.25,0,0,1-2,5.17l-1.6-.87a42,42,0,0,0,2-5.62l1.88.62c.28.08.37.17.37.28S710.79,237.92,710.45,238Z"/><path class="cls-1" d="M737,251.08v-3.36H726.42v3.42h-1.91v-2l-1.32.68c-.11-.34-.53-1.44-.73-1.83l-2.05.42v11.88h-1.88V248.67c-2.41.42-2.69.48-3.37.62-.2.56-.48.76-.64.76s-.34-.26-.37-.45l-.45-2.25c1.18,0,1.43,0,2.64-.14a34.52,34.52,0,0,0,2-2.86,34.42,34.42,0,0,0-4.69-3.29l1.15-1.54c.45.28,1.32.78,1.32.81a25.08,25.08,0,0,0,3.15-5.56l2,1c.14.08.37.19.37.33s-.51.34-.82.37a48.47,48.47,0,0,1-3.11,5,15.09,15.09,0,0,1,1.82,1.4c.79-1.18,1.26-2,2.42-4.1l1.85,1.07a.6.6,0,0,1,.31.45c0,.28-.2.28-.82.22-1.37,2.19-2.8,4.35-4.35,6.43.54-.08,2.08-.36,2.73-.5a13.8,13.8,0,0,0-.73-1.46l1.6-.82a26.06,26.06,0,0,1,2,3.74V246h14.57v5.05Zm-19.65.37a38.29,38.29,0,0,1-1.35,7.61l-2-.45a26.84,26.84,0,0,0,1.37-8.2l2,.23c.5.05.53,0,.53.3S717.63,251.34,717.38,251.45Zm5.25,5.78a35.11,35.11,0,0,0-1.26-6.15l1.68-.44a21.85,21.85,0,0,1,1.46,6.23Zm7.69-7.18c-.28,6.65-1.35,7.8-4.77,10.3l-1.77-1.6c3-1.35,4.52-3.09,4.52-8.11,0-.54,0-1,0-1.6l2.1.19c.37,0,.53.09.53.25S730.49,249.93,730.32,250.05ZM732.79,240v2.41h5.48v1.69H725.41v-1.69h5.33V240H724.6V238.2h6.14v-3l2.14.14c.28,0,.48.06.48.26s-.43.47-.57.56v2h6.43V240Zm4,19.73h-2.47c-1.15,0-2.08-.11-2.08-1.88V249l1.94.14c.34,0,.59.08.59.28s-.39.5-.65.61v6.71c0,.54.15,1,.82,1h1.18c1,0,1.32-.11,1.74-3.14l1.91,1C738.75,259.7,738.1,259.7,736.75,259.7Z"/><path class="cls-1" d="M20.74,360.3c-3.29,0-4.06-2.95-4.06-5.64s.77-5.65,4.06-5.65,4.05,3,4.05,5.65S24,360.3,20.74,360.3Zm0-10.19c-2.1,0-2.67,2.14-2.67,4.55s.62,4.54,2.67,4.54,2.67-2.05,2.67-4.54S22.81,350.11,20.74,350.11Z"/><path class="cls-1" d="M31.34,351.8c0,1.71-1,2.77-2.32,2.77s-2.32-1.07-2.32-2.77S27.69,349,29,349,31.34,350.07,31.34,351.8Zm-3.71,0c0,.32,0,1.95,1.39,1.95,1.19,0,1.38-1.19,1.38-1.95,0-.4,0-2-1.38-2C28,349.83,27.63,350.64,27.63,351.8Zm7.14-2.5h.95L30,360H29Zm3.28,8.23c0,1.69-.95,2.77-2.31,2.77s-2.32-1.05-2.32-2.77.95-2.77,2.32-2.77S38.05,355.87,38.05,357.53Zm-3.69,0c0,.35,0,2,1.38,2,.92,0,1.39-.72,1.39-2,0-.38,0-1.95-1.39-1.95C34.78,355.58,34.36,356.36,34.36,357.53Z"/><path class="cls-1" d="M7.08,291.9c.22-2.55,1.79-3.62,4.47-5.15,1.6-.91,2.32-1.3,2.32-2.65a2.09,2.09,0,0,0-2.38-2.1,2.52,2.52,0,0,0-2.67,2.7H7.43a3.93,3.93,0,0,1,1-2.58,4.23,4.23,0,0,1,3.08-1.22c1.53,0,3.73.71,3.73,3.13,0,1.89-1.1,2.69-3.07,3.74-2.69,1.43-3.06,2.36-3.35,3h6.42v1.1Z"/><path class="cls-1" d="M20.74,292.19c-3.29,0-4.06-2.94-4.06-5.64s.77-5.65,4.06-5.65,4.05,3,4.05,5.65S24,292.19,20.74,292.19Zm0-10.19c-2.1,0-2.67,2.14-2.67,4.55s.62,4.54,2.67,4.54,2.67-2,2.67-4.54S22.81,282,20.74,282Z"/><path class="cls-1" d="M31.34,283.69c0,1.71-1,2.77-2.32,2.77s-2.32-1.07-2.32-2.77,1-2.79,2.32-2.79S31.34,282,31.34,283.69Zm-3.71,0c0,.32,0,1.95,1.39,1.95,1.19,0,1.38-1.19,1.38-1.95,0-.4,0-2-1.38-2C28,281.72,27.63,282.53,27.63,283.69Zm7.14-2.49h.95L30,291.9H29Zm3.28,8.22c0,1.69-.95,2.77-2.31,2.77s-2.32-1.05-2.32-2.77.95-2.77,2.32-2.77S38.05,287.77,38.05,289.42Zm-3.69,0c0,.35,0,1.95,1.38,1.95.92,0,1.39-.72,1.39-1.95,0-.38,0-1.95-1.39-1.95C34.78,287.47,34.36,288.25,34.36,289.42Z"/><path class="cls-1" d="M75.07,377.85V370H72.81v-1a2.35,2.35,0,0,0,2.6-1.92h1v10.71Z"/><path class="cls-1" d="M82.86,378.14a3.38,3.38,0,0,1-3.55-2.71h1.38A2,2,0,0,0,82.85,377c2.83,0,3-3.22,3-4.3a3.49,3.49,0,0,1-3.05,1.49,3.42,3.42,0,0,1-3.68-3.52,4,4,0,0,1,7.15-2.19,7.35,7.35,0,0,1,.95,3.85C87.24,375.69,85.79,378.14,82.86,378.14ZM83.07,368a2.41,2.41,0,0,0-2.56,2.59A2.32,2.32,0,0,0,83,373.09a2.41,2.41,0,0,0,2.69-2.42A2.52,2.52,0,0,0,83.07,368Z"/><path class="cls-1" d="M92.12,378.14c-2.63,0-4.07-1.39-4.07-3.18a3,3,0,0,1,2.25-2.89,2.47,2.47,0,0,1-1.81-2.39c0-1.59,1.29-2.83,3.63-2.83s3.6,1.3,3.6,2.83a2.47,2.47,0,0,1-1.79,2.39A3,3,0,0,1,96.16,375C96.16,376.79,94.68,378.14,92.12,378.14Zm0-5.54c-1.57,0-2.69.88-2.69,2.27,0,1.05.71,2.17,2.69,2.17s2.66-1.12,2.66-2.17C94.78,373.55,93.77,372.6,92.12,372.6Zm0-4.65c-1.05,0-2.25.38-2.25,1.86s1.22,1.86,2.25,1.86,2.22-.35,2.22-1.86S93.14,368,92.12,368Z"/><path class="cls-1" d="M100.94,378.14a3.54,3.54,0,0,1-3.89-3.05h1.39a2.38,2.38,0,0,0,2.5,2,2.61,2.61,0,0,0,2.84-2.62,2.4,2.4,0,0,0-2.6-2.51,2.83,2.83,0,0,0-2.3,1H97.5l1-5.75h6.11v1.1H99.62l-.55,3.27a3.6,3.6,0,0,1,2.29-.69c2.19,0,3.8,1.25,3.8,3.59S103.21,378.14,100.94,378.14Z"/><path class="cls-1" d="M106.43,374.53v-1.17h3.27v1.17Z"/><path class="cls-1" d="M114.9,378.14c-2.63,0-4.07-1.39-4.07-3.18a3,3,0,0,1,2.25-2.89,2.47,2.47,0,0,1-1.81-2.39c0-1.59,1.29-2.83,3.63-2.83s3.6,1.3,3.6,2.83a2.47,2.47,0,0,1-1.79,2.39,3,3,0,0,1,2.23,2.89C118.94,376.79,117.46,378.14,114.9,378.14Zm0-5.54c-1.57,0-2.69.88-2.69,2.27,0,1.05.71,2.17,2.69,2.17s2.66-1.12,2.66-2.17C117.56,373.55,116.55,372.6,114.9,372.6Zm0-4.65c-1.05,0-2.25.38-2.25,1.86s1.22,1.86,2.25,1.86,2.22-.35,2.22-1.86S115.92,368,114.9,368Z"/><path class="cls-1" d="M123.48,378.14a3.36,3.36,0,0,1-3.55-2.71h1.38a2,2,0,0,0,2.15,1.57c2.83,0,3-3.22,3-4.3a3.47,3.47,0,0,1-3,1.49,3.42,3.42,0,0,1-3.68-3.52,3.7,3.7,0,0,1,3.9-3.82,3.76,3.76,0,0,1,3.26,1.63,7.45,7.45,0,0,1,1,3.85C127.86,375.69,126.41,378.14,123.48,378.14Zm.2-10.19a2.4,2.4,0,0,0-2.55,2.59,2.32,2.32,0,0,0,2.45,2.55,2.41,2.41,0,0,0,2.68-2.42A2.52,2.52,0,0,0,123.68,368Z"/><path class="cls-1" d="M174.06,377.85V370H171.8v-1a2.35,2.35,0,0,0,2.6-1.92h1v10.71Z"/><path class="cls-1" d="M181.85,378.14a3.38,3.38,0,0,1-3.55-2.71h1.38a2,2,0,0,0,2.16,1.57c2.83,0,3-3.22,3-4.3a3.49,3.49,0,0,1-3.05,1.49,3.42,3.42,0,0,1-3.68-3.52,4,4,0,0,1,7.15-2.19,7.35,7.35,0,0,1,.95,3.85C186.23,375.69,184.78,378.14,181.85,378.14Zm.21-10.19a2.41,2.41,0,0,0-2.56,2.59,2.32,2.32,0,0,0,2.45,2.55,2.41,2.41,0,0,0,2.69-2.42A2.52,2.52,0,0,0,182.06,368Z"/><path class="cls-1" d="M190.85,378.14a3.36,3.36,0,0,1-3.55-2.71h1.38a2,2,0,0,0,2.15,1.57c2.83,0,3-3.22,3-4.3a3.47,3.47,0,0,1-3,1.49,3.42,3.42,0,0,1-3.68-3.52,3.7,3.7,0,0,1,3.9-3.82,3.76,3.76,0,0,1,3.26,1.63,7.45,7.45,0,0,1,.95,3.85C195.23,375.69,193.78,378.14,190.85,378.14Zm.2-10.19a2.4,2.4,0,0,0-2.55,2.59,2.32,2.32,0,0,0,2.45,2.55,2.41,2.41,0,0,0,2.68-2.42A2.52,2.52,0,0,0,191.05,368Z"/><path class="cls-1" d="M200.28,378.14c-3.28,0-4.06-2.95-4.06-5.65s.78-5.64,4.06-5.64,4.05,3,4.05,5.64S203.57,378.14,200.28,378.14Zm0-10.19c-2.09,0-2.67,2.14-2.67,4.54s.62,4.55,2.67,4.55S203,375,203,372.49,202.35,368,200.28,368Z"/><path class="cls-1" d="M205.6,374.53v-1.17h3.27v1.17Z"/><path class="cls-1" d="M213.51,378.14a3.38,3.38,0,0,1-3.55-2.71h1.38a2,2,0,0,0,2.15,1.57c2.83,0,3-3.22,3-4.3a3.75,3.75,0,0,1-6.73-2,3.7,3.7,0,0,1,3.9-3.82,3.74,3.74,0,0,1,3.26,1.63,7.35,7.35,0,0,1,.95,3.85C217.89,375.69,216.44,378.14,213.51,378.14Zm.2-10.19a2.4,2.4,0,0,0-2.55,2.59,2.32,2.32,0,0,0,2.45,2.55,2.41,2.41,0,0,0,2.68-2.42A2.52,2.52,0,0,0,213.71,368Z"/><path class="cls-1" d="M225.25,375.31v2.54h-1.32v-2.54h-5.2v-1.13l5.32-7h1.2v7h1.57v1.13ZM223.93,369,220,374.18h3.94Z"/><path class="cls-1" d="M274,377.85V370H271.7v-1a2.34,2.34,0,0,0,2.59-1.92h1v10.71Z"/><path class="cls-1" d="M281.75,378.14a3.36,3.36,0,0,1-3.55-2.71h1.38a2,2,0,0,0,2.15,1.57c2.83,0,3-3.22,3-4.3a3.47,3.47,0,0,1-3.05,1.49,3.42,3.42,0,0,1-3.68-3.52,3.7,3.7,0,0,1,3.9-3.82,3.77,3.77,0,0,1,3.26,1.63,7.45,7.45,0,0,1,.95,3.85C286.13,375.69,284.68,378.14,281.75,378.14ZM282,368a2.4,2.4,0,0,0-2.55,2.59,2.32,2.32,0,0,0,2.45,2.55,2.41,2.41,0,0,0,2.68-2.42A2.52,2.52,0,0,0,282,368Z"/><path class="cls-1" d="M290.74,378.14a3.38,3.38,0,0,1-3.55-2.71h1.38a2,2,0,0,0,2.16,1.57c2.83,0,3-3.22,3-4.3a3.49,3.49,0,0,1-3.05,1.49,3.42,3.42,0,0,1-3.68-3.52,4,4,0,0,1,7.15-2.19,7.37,7.37,0,0,1,1,3.85C295.13,375.69,293.67,378.14,290.74,378.14ZM291,368a2.4,2.4,0,0,0-2.55,2.59,2.31,2.31,0,0,0,2.44,2.55,2.41,2.41,0,0,0,2.69-2.42A2.52,2.52,0,0,0,291,368Z"/><path class="cls-1" d="M299.74,378.14a3.54,3.54,0,0,1-3.89-3.05h1.4a2.37,2.37,0,0,0,2.49,2,2.61,2.61,0,0,0,2.84-2.62,2.39,2.39,0,0,0-2.59-2.51,2.83,2.83,0,0,0-2.3,1h-1.38l.95-5.75h6.12v1.1h-5l-.54,3.27a3.57,3.57,0,0,1,2.28-.69c2.19,0,3.8,1.25,3.8,3.59S302,378.14,299.74,378.14Z"/><path class="cls-1" d="M305.24,374.53v-1.17h3.27v1.17Z"/><path class="cls-1" d="M313.14,378.14a3.38,3.38,0,0,1-3.55-2.71H311a2,2,0,0,0,2.16,1.57c2.83,0,3-3.22,3-4.3a3.49,3.49,0,0,1-3,1.49,3.42,3.42,0,0,1-3.68-3.52,4,4,0,0,1,7.15-2.19,7.35,7.35,0,0,1,.95,3.85C317.52,375.69,316.07,378.14,313.14,378.14Zm.21-10.19a2.41,2.41,0,0,0-2.56,2.59,2.32,2.32,0,0,0,2.45,2.55,2.41,2.41,0,0,0,2.69-2.42A2.52,2.52,0,0,0,313.35,368Z"/><path class="cls-1" d="M322.14,378.14a3.36,3.36,0,0,1-3.55-2.71H320a2,2,0,0,0,2.15,1.57c2.83,0,3-3.22,3-4.3a3.47,3.47,0,0,1-3.05,1.49,3.42,3.42,0,0,1-3.68-3.52,3.7,3.7,0,0,1,3.9-3.82,3.76,3.76,0,0,1,3.26,1.63,7.45,7.45,0,0,1,.95,3.85C326.52,375.69,325.07,378.14,322.14,378.14Zm.2-10.19a2.4,2.4,0,0,0-2.55,2.59,2.32,2.32,0,0,0,2.45,2.55,2.41,2.41,0,0,0,2.68-2.42A2.52,2.52,0,0,0,322.34,368Z"/><path class="cls-1" d="M365,377.85c.22-2.56,1.79-3.63,4.47-5.15,1.6-.91,2.32-1.31,2.32-2.66a2.09,2.09,0,0,0-2.38-2.09,2.51,2.51,0,0,0-2.67,2.7h-1.39a3.88,3.88,0,0,1,.95-2.58,4.23,4.23,0,0,1,3.08-1.22c1.53,0,3.73.7,3.73,3.12,0,1.89-1.1,2.7-3.07,3.74-2.7,1.44-3.06,2.36-3.36,3h6.43v1.1Z"/><path class="cls-1" d="M378.08,378.14c-3.28,0-4.06-2.95-4.06-5.65s.78-5.64,4.06-5.64,4.05,3,4.05,5.64S381.37,378.14,378.08,378.14Zm0-10.19c-2.1,0-2.67,2.14-2.67,4.54S376,377,378.08,377s2.67-2.05,2.67-4.55S380.15,368,378.08,368Z"/><path class="cls-1" d="M387.21,378.14c-3.28,0-4.06-2.95-4.06-5.65s.78-5.64,4.06-5.64,4.05,3,4.05,5.64S390.5,378.14,387.21,378.14Zm0-10.19c-2.09,0-2.67,2.14-2.67,4.54s.62,4.55,2.67,4.55,2.67-2.05,2.67-4.55S389.28,368,387.21,368Z"/><path class="cls-1" d="M396.34,378.14c-3.28,0-4.06-2.95-4.06-5.65s.78-5.64,4.06-5.64,4.05,3,4.05,5.64S399.63,378.14,396.34,378.14Zm0-10.19c-2.09,0-2.67,2.14-2.67,4.54s.62,4.55,2.67,4.55S399,375,399,372.49,398.41,368,396.34,368Z"/><path class="cls-1" d="M401.66,374.53v-1.17h3.27v1.17Z"/><path class="cls-1" d="M410.24,378.14c-3.28,0-4.06-2.95-4.06-5.65s.78-5.64,4.06-5.64,4.05,3,4.05,5.64S413.52,378.14,410.24,378.14Zm0-10.19c-2.1,0-2.67,2.14-2.67,4.54s.62,4.55,2.67,4.55,2.67-2.05,2.67-4.55S412.31,368,410.24,368Z"/><path class="cls-1" d="M421.66,375.31v2.54h-1.32v-2.54h-5.2v-1.13l5.32-7h1.2v7h1.57v1.13ZM420.34,369l-3.94,5.21h3.94Z"/><path class="cls-1" d="M462.48,377.85c.22-2.56,1.79-3.63,4.47-5.15,1.6-.91,2.32-1.31,2.32-2.66a2.09,2.09,0,0,0-2.38-2.09,2.5,2.5,0,0,0-2.66,2.7h-1.4a4,4,0,0,1,1-2.58,4.2,4.2,0,0,1,3.08-1.22c1.52,0,3.72.7,3.72,3.12,0,1.89-1.1,2.7-3.06,3.74-2.7,1.44-3.07,2.36-3.36,3h6.42v1.1Z"/><path class="cls-1" d="M475.55,378.14c-3.28,0-4.06-2.95-4.06-5.65s.78-5.64,4.06-5.64,4.05,3,4.05,5.64S478.84,378.14,475.55,378.14Zm0-10.19c-2.09,0-2.67,2.14-2.67,4.54s.62,4.55,2.67,4.55,2.67-2.05,2.67-4.55S477.62,368,475.55,368Z"/><path class="cls-1" d="M484.68,378.14c-3.28,0-4.06-2.95-4.06-5.65s.78-5.64,4.06-5.64,4.05,3,4.05,5.64S488,378.14,484.68,378.14Zm0-10.19c-2.09,0-2.66,2.14-2.66,4.54s.61,4.55,2.66,4.55,2.67-2.05,2.67-4.55S486.75,368,484.68,368Z"/><path class="cls-1" d="M493.39,378.14a3.54,3.54,0,0,1-3.89-3.05h1.39a2.38,2.38,0,0,0,2.5,2,2.61,2.61,0,0,0,2.84-2.62,2.39,2.39,0,0,0-2.59-2.51,2.85,2.85,0,0,0-2.31,1H490l1-5.75H497v1.1h-4.95l-.55,3.27a3.63,3.63,0,0,1,2.29-.69c2.19,0,3.8,1.25,3.8,3.59S495.66,378.14,493.39,378.14Z"/><path class="cls-1" d="M498.88,374.53v-1.17h3.27v1.17Z"/><path class="cls-1" d="M507.46,378.14c-3.28,0-4.06-2.95-4.06-5.65s.78-5.64,4.06-5.64,4.05,3,4.05,5.64S510.75,378.14,507.46,378.14Zm0-10.19c-2.1,0-2.67,2.14-2.67,4.54s.62,4.55,2.67,4.55,2.67-2.05,2.67-4.55S509.53,368,507.46,368Z"/><path class="cls-1" d="M516.12,378.14a3.38,3.38,0,0,1-3.55-2.71H514a2,2,0,0,0,2.16,1.57c2.83,0,3-3.22,3-4.3a3.49,3.49,0,0,1-3,1.49,3.42,3.42,0,0,1-3.68-3.52,4,4,0,0,1,7.15-2.19,7.35,7.35,0,0,1,1,3.85C520.5,375.69,519.05,378.14,516.12,378.14Zm.21-10.19a2.41,2.41,0,0,0-2.56,2.59,2.32,2.32,0,0,0,2.45,2.55,2.41,2.41,0,0,0,2.69-2.42A2.52,2.52,0,0,0,516.33,368Z"/><path class="cls-1" d="M562.19,377.85c.22-2.56,1.79-3.63,4.47-5.15,1.6-.91,2.32-1.31,2.32-2.66A2.09,2.09,0,0,0,566.6,368a2.51,2.51,0,0,0-2.67,2.7h-1.39a3.9,3.9,0,0,1,1-2.58,4.2,4.2,0,0,1,3.07-1.22c1.53,0,3.73.7,3.73,3.12,0,1.89-1.1,2.7-3.07,3.74-2.69,1.44-3.06,2.36-3.35,3h6.42v1.1Z"/><path class="cls-1" d="M575.26,378.14c-3.28,0-4.06-2.95-4.06-5.65s.78-5.64,4.06-5.64,4,3,4,5.64S578.55,378.14,575.26,378.14Zm0-10.19c-2.09,0-2.67,2.14-2.67,4.54s.62,4.55,2.67,4.55,2.67-2.05,2.67-4.55S577.33,368,575.26,368Z"/><path class="cls-1" d="M583,377.85V370h-2.26v-1a2.34,2.34,0,0,0,2.59-1.92h1v10.71Z"/><path class="cls-1" d="M591.16,378.14c-3.28,0-4.06-2.95-4.06-5.65s.78-5.64,4.06-5.64,4.05,3,4.05,5.64S594.45,378.14,591.16,378.14Zm0-10.19c-2.09,0-2.67,2.14-2.67,4.54s.62,4.55,2.67,4.55,2.67-2.05,2.67-4.55S593.23,368,591.16,368Z"/><path class="cls-1" d="M596.48,374.53v-1.17h3.27v1.17Z"/><path class="cls-1" d="M602.85,377.85V370h-2.26v-1a2.34,2.34,0,0,0,2.59-1.92h1v10.71Z"/><path class="cls-1" d="M613.2,375.31v2.54h-1.32v-2.54h-5.21v-1.13l5.33-7h1.2v7h1.57v1.13ZM611.88,369l-4,5.21h4Z"/><path class="cls-1" d="M13.67,222.07v2.54H12.35v-2.54H7.15v-1.13l5.32-7h1.2v7h1.57v1.13Zm-1.32-6.33-3.94,5.2h3.94Z"/><path class="cls-1" d="M20.74,224.9c-3.29,0-4.06-3-4.06-5.65s.77-5.64,4.06-5.64,4.05,3,4.05,5.64S24,224.9,20.74,224.9Zm0-10.19c-2.1,0-2.67,2.14-2.67,4.54s.62,4.55,2.67,4.55,2.67-2.05,2.67-4.55S22.81,214.71,20.74,214.71Z"/><path class="cls-1" d="M31.34,216.4c0,1.71-1,2.77-2.32,2.77s-2.32-1.07-2.32-2.77,1-2.79,2.32-2.79S31.34,214.67,31.34,216.4Zm-3.71,0c0,.32,0,1.95,1.39,1.95,1.19,0,1.38-1.19,1.38-1.95,0-.4,0-2-1.38-2C28,214.43,27.63,215.24,27.63,216.4Zm7.14-2.5h.95L30,224.61H29Zm3.28,8.23c0,1.69-.95,2.77-2.31,2.77s-2.32-1.06-2.32-2.77.95-2.77,2.32-2.77S38.05,220.47,38.05,222.13Zm-3.69,0c0,.35,0,2,1.38,2,.92,0,1.39-.72,1.39-2,0-.38,0-1.95-1.39-1.95C34.78,220.18,34.36,221,34.36,222.13Z"/><path class="cls-1" d="M11.28,155.17c-3.67,0-4.22-3.55-4.22-5.41,0-3.81,1.73-5.88,4.4-5.88A3.37,3.37,0,0,1,15,146.61H13.61A1.94,1.94,0,0,0,11.46,145c-2.83,0-3,3.21-3,4.29a3.5,3.5,0,0,1,3.05-1.48,3.41,3.41,0,0,1,3.67,3.52A3.69,3.69,0,0,1,11.28,155.17Zm2-5.44a2.36,2.36,0,0,0-1.95-.8,2.41,2.41,0,0,0-2.65,2.41,2.53,2.53,0,0,0,2.58,2.73,2.4,2.4,0,0,0,2.55-2.59A2.91,2.91,0,0,0,13.26,149.73Z"/><path class="cls-1" d="M20.74,155.17c-3.29,0-4.06-2.95-4.06-5.64s.77-5.65,4.06-5.65,4.05,3,4.05,5.65S24,155.17,20.74,155.17Zm0-10.19c-2.1,0-2.67,2.14-2.67,4.55s.62,4.54,2.67,4.54,2.67-2,2.67-4.54S22.81,145,20.74,145Z"/><path class="cls-1" d="M31.34,146.67c0,1.71-1,2.77-2.32,2.77s-2.32-1.07-2.32-2.77,1-2.79,2.32-2.79S31.34,144.94,31.34,146.67Zm-3.71,0c0,.32,0,2,1.39,2,1.19,0,1.38-1.19,1.38-2,0-.4,0-2-1.38-2C28,144.7,27.63,145.51,27.63,146.67Zm7.14-2.5h.95L30,154.88H29Zm3.28,8.23c0,1.69-.95,2.77-2.31,2.77s-2.32-1-2.32-2.77.95-2.77,2.32-2.77S38.05,150.74,38.05,152.4Zm-3.69,0c0,.35,0,1.95,1.38,1.95.92,0,1.39-.72,1.39-1.95,0-.38,0-2-1.39-2C34.78,150.45,34.36,151.23,34.36,152.4Z"/><path class="cls-1" d="M11.19,85.45c-2.62,0-4.06-1.4-4.06-3.18a3,3,0,0,1,2.25-2.89A2.47,2.47,0,0,1,7.57,77c0-1.59,1.29-2.83,3.62-2.83S14.8,75.46,14.8,77A2.47,2.47,0,0,1,13,79.38a3,3,0,0,1,2.23,2.89C15.24,84.1,13.76,85.45,11.19,85.45Zm0-5.55c-1.57,0-2.68.88-2.68,2.28,0,1,.7,2.17,2.68,2.17s2.67-1.12,2.67-2.17C13.86,80.86,12.85,79.9,11.19,79.9Zm0-4.64c-1,0-2.24.38-2.24,1.86S10.17,79,11.19,79s2.23-.35,2.23-1.86S12.22,75.26,11.19,75.26Z"/><path class="cls-1" d="M20.74,85.45c-3.29,0-4.06-3-4.06-5.65s.77-5.64,4.06-5.64,4.05,3,4.05,5.64S24,85.45,20.74,85.45Zm0-10.19c-2.1,0-2.67,2.14-2.67,4.54s.62,4.55,2.67,4.55,2.67-2.06,2.67-4.55S22.81,75.26,20.74,75.26Z"/><path class="cls-1" d="M31.34,76.94c0,1.72-1,2.77-2.32,2.77s-2.32-1.07-2.32-2.77,1-2.78,2.32-2.78S31.34,75.21,31.34,76.94Zm-3.71,0c0,.33,0,2,1.39,2,1.19,0,1.38-1.18,1.38-2,0-.39,0-2-1.38-2C28,75,27.63,75.78,27.63,76.94Zm7.14-2.49h.95L30,85.15H29Zm3.28,8.23c0,1.68-.95,2.77-2.31,2.77s-2.32-1.06-2.32-2.77.95-2.78,2.32-2.78S38.05,81,38.05,82.68Zm-3.69,0c0,.35,0,1.95,1.38,1.95.92,0,1.39-.72,1.39-1.95,0-.39,0-2-1.39-2C34.78,80.73,34.36,81.5,34.36,82.68Z"/><path class="cls-1" d="M2.26,15.42V7.59H0v-1A2.35,2.35,0,0,0,2.6,4.72h1v10.7Z"/><path class="cls-1" d="M11,15.72c-3.28,0-4.06-3-4.06-5.65S7.74,4.43,11,4.43s4.05,3,4.05,5.64S14.31,15.72,11,15.72ZM11,5.53c-2.1,0-2.67,2.14-2.67,4.54S9,14.62,11,14.62s2.67-2.06,2.67-4.55S13.09,5.53,11,5.53Z"/><path class="cls-1" d="M20.74,15.72c-3.29,0-4.06-3-4.06-5.65s.77-5.64,4.06-5.64,4.05,3,4.05,5.64S24,15.72,20.74,15.72Zm0-10.19c-2.1,0-2.67,2.14-2.67,4.54s.62,4.55,2.67,4.55,2.67-2.06,2.67-4.55S22.81,5.53,20.74,5.53Z"/><path class="cls-1" d="M31.34,7.21c0,1.72-1,2.77-2.32,2.77S26.7,8.91,26.7,7.21s1-2.78,2.32-2.78S31.34,5.48,31.34,7.21Zm-3.71,0c0,.33,0,2,1.39,2,1.19,0,1.38-1.19,1.38-1.95,0-.39,0-2-1.38-2C28,5.25,27.63,6.05,27.63,7.21Zm7.14-2.49h.95L30,15.42H29ZM38.05,13c0,1.68-.95,2.77-2.31,2.77S33.42,14.66,33.42,13s.95-2.78,2.32-2.78S38.05,11.29,38.05,13Zm-3.69,0c0,.35,0,2,1.38,2,.92,0,1.39-.72,1.39-2,0-.39,0-1.95-1.39-1.95C34.78,11,34.36,11.77,34.36,13Z"/><line class="cls-2" x1="47.47" x2="47.47" y2="356.69"/><line class="cls-3" x1="40.94" y1="287.88" x2="643.53" y2="287.88"/><line class="cls-3" x1="40.94" y1="218.09" x2="643.53" y2="218.09"/><line class="cls-3" x1="40.94" y1="148.3" x2="643.53" y2="148.3"/><line class="cls-3" x1="40.94" y1="78.51" x2="643.53" y2="78.51"/><rect class="cls-4" x="76.32" y="313.72" width="46.75" height="41.8"/><rect class="cls-5" x="76.32" y="218.21" width="46.75" height="95.51"/><rect class="cls-6" x="76.32" y="8.7" width="46.75" height="209.51"/><rect class="cls-4" x="175.31" y="289.25" width="46.75" height="66.26"/><rect class="cls-5" x="175.31" y="200.81" width="46.75" height="88.44"/><rect class="cls-6" x="175.31" y="8.7" width="46.75" height="192.12"/><rect class="cls-4" x="273.74" y="259.9" width="46.75" height="95.61"/><rect class="cls-5" x="273.74" y="195.92" width="46.75" height="63.98"/><rect class="cls-6" x="273.74" y="8.7" width="46.75" height="187.22"/><rect class="cls-4" x="372.73" y="226.2" width="46.75" height="129.32"/><rect class="cls-5" x="372.73" y="172" width="46.75" height="54.19"/><rect class="cls-6" x="372.73" y="8.7" width="46.75" height="163.31"/><rect class="cls-4" x="471.17" y="194.13" width="46.75" height="161.39"/><rect class="cls-5" x="471.17" y="157.87" width="46.75" height="36.26"/><rect class="cls-6" x="471.17" y="8.7" width="46.75" height="149.17"/><rect class="cls-4" x="565.21" y="148.95" width="46.75" height="206.57"/><rect class="cls-5" x="565.21" y="112.21" width="46.75" height="36.74"/><rect class="cls-6" x="565.21" y="8.7" width="46.75" height="103.51"/><line class="cls-7" x1="40.94" y1="355.51" x2="643.53" y2="355.51"/><line class="cls-8" x1="650.54" y1="112.08" x2="745.21" y2="112.08"/><line class="cls-8" x1="650.54" y1="355.88" x2="745.21" y2="355.88"/><polyline class="cls-9" points="95.24 209.91 449.21 148.15 553.28 98.59"/><line class="cls-3" x1="40.94" y1="8.7" x2="643.53" y2="8.7"/></g></g></svg>