<svg xmlns="http://www.w3.org/2000/svg" viewBox="0 0 224.44 51.96"><defs><style>.cls-1{fill:#1238a6;}</style></defs><g id="Layer_2" data-name="Layer 2"><g id="ガイド"><path class="cls-1" d="M65.92,34.93a9.45,9.45,0,0,1-7.48-.17c-3.35-1.5-4.42-4.53-6-8.68S49.65,19,51.15,15.6a9.48,9.48,0,0,1,5.48-5.09c4.49-1.71,9-.48,11.73,4.22L63.6,16.54c-1.2-1.74-3-2.76-5.34-1.86a4.09,4.09,0,0,0-2.53,2.39c-.53,1.36-.36,2.61,1.4,7.23s2.46,5.66,3.76,6.33a4.16,4.16,0,0,0,3.47.11c2.37-.9,3-2.85,2.76-4.95L71.87,24C72.94,29.33,70.38,33.24,65.92,34.93Z"/><path class="cls-1" d="M91.39,27.77,89.27,17.23l-8.53,1.71,2.12,10.55-4.92,1L72.88,5.28l4.92-1,2.07,10.3,8.53-1.72L86.33,2.58l4.92-1,5.06,25.19Z"/><path class="cls-1" d="M101.31,26.31l-1-25.68L117.27,0l.17,4.47-11.9.45.22,6,10.14-.38.16,4.48-10.13.37.23,6.24,11.9-.44.17,4.47Z"/><path class="cls-1" d="M130.71,27.1a9.45,9.45,0,0,1-6.56-3.59c-2.29-2.88-1.85-6.07-1.34-10.48s.81-7.61,3.69-9.89a9.41,9.41,0,0,1,7.2-2c4.77.55,8.19,3.7,8.47,9.15l-5.06-.58c-.26-2.11-1.37-3.83-3.88-4.12a4.12,4.12,0,0,0-3.35,1c-1.09,1-1.52,2.15-2.08,7.06s-.42,6.16.42,7.35a4.16,4.16,0,0,0,3,1.7c2.51.29,4-1.14,4.72-3.13l5.06.58C139.52,25.35,135.44,27.64,130.71,27.1Z"/><path class="cls-1" d="M157.82,32.77l-3.17-13.06-4.28,2.91-2.1,7.43-4.83-1.37,7-24.72,4.82,1.37-3.05,10.76L164,7.8l5.87,1.67-11,7.5,4.56,17.39Z"/><path class="cls-1" d="M171.31,38.17l2-4.34L177.86,36l-2,4.34Zm7.28-5.47-3.2-1.51,6.5-16.45,5.23,2.46Z"/><path class="cls-1" d="M23.28,48.44a2.37,2.37,0,0,1-2.06-1.18L.32,11.16A2.37,2.37,0,1,1,4.43,8.78l20.9,36.1a2.37,2.37,0,0,1-2,3.56Z"/><path class="cls-1" d="M199.59,52a2.4,2.4,0,0,1-1.28-.37,2.38,2.38,0,0,1-.72-3.28l22.47-35.15a2.37,2.37,0,1,1,4,2.56L201.59,50.87A2.36,2.36,0,0,1,199.59,52Z"/></g></g></svg>