<svg xmlns="http://www.w3.org/2000/svg" xmlns:xlink="http://www.w3.org/1999/xlink" viewBox="0 0 116.42 220.08"><defs><style>.cls-1{fill:none;}.cls-2{clip-path:url(#clip-path);}.cls-3{fill:#fff;}.cls-4{fill:#f8e251;}.cls-5{fill:#0d38a6;}</style><clipPath id="clip-path" transform="translate(-20.36 -3.64)"><rect class="cls-1" width="164" height="200"/></clipPath></defs><g id="Layer_2" data-name="Layer 2"><g id="レイヤー_4" data-name="レイヤー 4"><g class="cls-2"><path class="cls-3" d="M111.86,73.51c-4.2-12.61-11.58-24.67-23.16-27.89-6.47-1.8-14-.79-20.55.2-6.73,1-12.38,6-16.58,11a72.7,72.7,0,0,0-12.65,70.67c1.25,3.54,2.22,7.23,5,9.88a89.91,89.91,0,0,0,9.85,8.75c-1.2-.85-6.09,3.88-6.67,4.77-1.58,2.39-2,4.63-4.32,6.67-2.83,2.5-6.35,5.19-8.44,8.37-1.32,2-1.47,4.3-2.27,6.51-2.46,6.8-6.74,12.34-8.73,19.39a36.53,36.53,0,0,0,.9,22.62,11.19,11.19,0,0,0,2.32,4,4.84,4.84,0,0,0,4.22,1.54c1.65-.32,1.85-1.6,3-2.48A15.13,15.13,0,0,1,37,216c3.25-1.51,5.92-4,9.2-5.49a44.36,44.36,0,0,1,17.37-3.67c10-.15,20,1.83,29.66,4.37,6.38,1.67,12.66,2.92,19,4.93,5,1.59,10.82,2.59,15.4-.54a15.19,15.19,0,0,0,6.16-12.76c-.11-5.41-3.19-8.43-5-13.08-1.7-4.28-2.87-8.64-5-12.87-2.94-5.95-5.07-12.69-8.8-18.25a23.55,23.55,0,0,0-9.1-8.2c-.91-.44-6.75-4.54-7-4.22,10.45-12,19.68-26.9,19.93-43.52a32.77,32.77,0,0,0-2.49-13.43C114.22,84.25,113.59,78.7,111.86,73.51Z" transform="translate(-20.36 -3.64)"/><path class="cls-4" d="M39.22,84C37.61,88.14,34.3,94.28,34.5,98.8c.11,2.59,1.37,5,1.45,7.51.07,2.21-.35,4.27-.11,6.53a62.15,62.15,0,0,0,4.72,17.8,24.62,24.62,0,0,0,5.59,8.64,15.36,15.36,0,0,0,8.43,3.91c3.35.43,7.32-.61,9.23-3.59.59-.92,4-7.9,1.82-7.82C54.1,132.2,55.19,119.59,48.24,114c-1.8-1.48-3.84-2.26-5.32-4.08-1.05-1.27-5-4.21-4.06-6,.35-.7,1.22-.92,2-1.15,2.84-.88,5.71-3.15,6.62-6,1-3.3,1.3,1.5,3.45-.92C53.49,92.82,56,89.88,58.65,87c6-6.51,13.84-12,19.81-18.46,1.4,6.26,6,9.91,10.82,14.08,3.86,3.32,8,6.27,11.64,9.88,1.71,1.71,1.81-2.9,2.62-.82s3,3.83,4.7,5.38a12.25,12.25,0,0,0,7.6,3.1c.11,0-2.35,4.65-2.67,5.06-1.37,1.76-3.1,2.74-4.74,4.17-2.34,2-3,6.24-4.51,9-2.43,4.3-6.07,7.46-8.89,11.43-2.49,3.5-4.5,4.65-9.06,4.06a6.39,6.39,0,0,0,2.45,4.47,7.14,7.14,0,0,0,2.76.83l6.7,1a9.41,9.41,0,0,0,4.32,0c1.73-.57,3-2.08,4.09-3.52,1.95-2.49,4.34-4.95,6-7.65,1.38-2.25,1.39-4.45,1.72-7.14l2.25-18.24c.68-5.53,2.53-11.45-.33-16.53-4.41-7.82-8.34-16-13.66-23.21-3.68-5-8-12.71-14.35-14.37a26.72,26.72,0,0,0-8.75-.33c-7.11.52-14.7,1.15-21,4.79-6.89,4-7.87,9.61-12,16A78.58,78.58,0,0,0,39.22,84Z" transform="translate(-20.36 -3.64)"/><path class="cls-4" d="M34.47,202.2a44.9,44.9,0,0,1-1.25-9.4l44.84-.1,22.42,0c1.73,0,19,0,19.19-.7-1,2.93.21,6.52,1.48,9.34-28.75.27-57.29.37-86,1.33" transform="translate(-20.36 -3.64)"/><path class="cls-4" d="M68,184.93l2.13-6a6.21,6.21,0,0,1,2-3.22c2.16-1.51,9.08-.6,11.71-.63l14.84-.18c2.13,0,23.43-1.12,23.66-.27.91,3.48,4.82,7,5.73,10.44-12.28.66-28.07-.18-40.4-.35C81.07,184.72,74.57,184.2,68,184.93Z" transform="translate(-20.36 -3.64)"/><path class="cls-4" d="M61.58,156c1.09,1.53,10.32,7.59,12.8,7.91-11,.33-30.33.66-38.67,1.4,2.75-3,6.35-6.55,9.09-9.54C49.37,156.2,60.3,156,61.58,156Z" transform="translate(-20.36 -3.64)"/><path class="cls-4" d="M88.68,156.23c-1.87,1.23-9,6.4-10.3,8.18,7-.4,37.92-1.68,39.17.11q-3.18-4.56-6.35-9.11C105.46,155.85,89.07,156,88.68,156.23Z" transform="translate(-20.36 -3.64)"/><path class="cls-4" d="M22.54,200.47a3.27,3.27,0,0,0-.14.33c-.57,1.57-.08,12,1.83,12.59.69.19,6.7,1,6.68.11-.17-5.2.18-10.77-.59-15.89C27.81,197.79,23.77,198,22.54,200.47Z" transform="translate(-20.36 -3.64)"/><path class="cls-4" d="M132.67,200.62c3,2.95.41,11.29-2.35,13.49-1,.84-2.93.78-3.48-.45a3.39,3.39,0,0,1-.2-1.45c0-4,.67-6.13-2.88-8.51-1.24-.83-4.49-4.42-6-4.47,4.15.15,9.26-.53,13.26.49A3.44,3.44,0,0,1,132.67,200.62Z" transform="translate(-20.36 -3.64)"/><path class="cls-4" d="M32.16,175.48c1-.47,2.2-.37,4.11-.46l21-1c-.46,1.56-.91,3.13-1.4,4.69-2.82-5.74-6.33,4.74-6.12,4.73-7.41.06-15.07,1.67-22.52,2.43.6-.06,2.52-7.13,3-8.09A4.39,4.39,0,0,1,32.16,175.48Z" transform="translate(-20.36 -3.64)"/><path class="cls-5" d="M64.22,112c-.33,0-.66,0-1,0a10.79,10.79,0,0,1-7.71-3.94,7.61,7.61,0,0,1-1.73-5.59.86.86,0,0,1,1-.71.85.85,0,0,1,.7,1A6,6,0,0,0,56.85,107a8.91,8.91,0,0,0,6.52,3.28,8.34,8.34,0,0,0,6.82-2.39,6.92,6.92,0,0,0,2.3-4.7.85.85,0,0,1,1.7-.12c.13,1.83-1,4.25-2.8,6A10.11,10.11,0,0,1,64.22,112Z" transform="translate(-20.36 -3.64)"/><path class="cls-5" d="M88.65,112a10.11,10.11,0,0,1-7.17-2.92c-1.81-1.78-2.94-4.2-2.8-6a.85.85,0,1,1,1.69.12,7,7,0,0,0,2.3,4.7,8.35,8.35,0,0,0,6.82,2.39A8.94,8.94,0,0,0,96,107a5.9,5.9,0,0,0,1.38-4.28.86.86,0,0,1,.71-1,.85.85,0,0,1,1,.71,7.64,7.64,0,0,1-1.72,5.59A10.79,10.79,0,0,1,89.65,112C89.31,112,89,112,88.65,112Z" transform="translate(-20.36 -3.64)"/><path class="cls-5" d="M78.94,99.07a.87.87,0,0,1-.32-.06A6.46,6.46,0,0,0,74,99a.86.86,0,0,1-1-.28,11.58,11.58,0,0,0-8.17-4.58c-2.89-.27-6.2,1.07-8.86,3.56a.81.81,0,0,1-.61.23l-1.78,0a.84.84,0,0,1-.82-.87.87.87,0,0,1,.87-.83l1.44,0A13.57,13.57,0,0,1,65,92.39a13.35,13.35,0,0,1,9,4.77,8.21,8.21,0,0,1,4.76.07,15.59,15.59,0,0,1,9.63-4.42A15.83,15.83,0,0,1,98.72,96.3l3.2-.41a.85.85,0,0,1,1,.73.86.86,0,0,1-.74,1L98.59,98a.86.86,0,0,1-.64-.17,14.16,14.16,0,0,0-9.47-3.35,13.81,13.81,0,0,0-8.92,4.29A.83.83,0,0,1,78.94,99.07Z" transform="translate(-20.36 -3.64)"/><path class="cls-5" d="M77.52,135.65l-1.26,0A31.43,31.43,0,0,1,52.38,124c-5.84-7.25-7.23-21.45-5.19-31a1.7,1.7,0,0,1,3.33.71c-2.1,9.82-.08,22.44,4.51,28.13a28,28,0,0,0,21.34,10.34c8.64.28,16-2.61,20.67-8.14S106.38,107,103.71,93a1.7,1.7,0,1,1,3.34-.64c2.9,15.15-2.18,27.75-7.42,33.94S86.69,135.65,77.52,135.65Z" transform="translate(-20.36 -3.64)"/><path class="cls-5" d="M105,140.24a1.7,1.7,0,0,1-1.15-3c12.6-11.56,13.11-32.86,12.3-44.54-.42-6.06-2.67-13.92-6-21l-.4-.87c-4.7-10-11.8-25.15-24-23.81a37.78,37.78,0,0,1-8.5-.36,34.15,34.15,0,0,0-8-.35C58,47.7,51.45,55.62,46.53,63.2a1.7,1.7,0,1,1-2.85-1.86C49,53.11,56.2,44.49,68.87,43a37.5,37.5,0,0,1,8.8.35,34.71,34.71,0,0,0,7.73.36c14.6-1.62,22.65,15.52,27.46,25.74l.4.87c3.51,7.46,5.88,15.77,6.33,22.23.85,12.28.25,34.76-13.4,47.28A1.69,1.69,0,0,1,105,140.24Z" transform="translate(-20.36 -3.64)"/><path class="cls-5" d="M45.8,141.48a1.71,1.71,0,0,1-1.31-.61c-5.64-6.79-9.66-18.18-10.76-30.47-1.07-12,2-23.86,4.88-34.07a1.7,1.7,0,0,1,3.27.94c-2.83,9.92-5.78,21.45-4.76,32.83,1,11.62,4.77,22.32,10,28.6a1.7,1.7,0,0,1-.22,2.39A1.68,1.68,0,0,1,45.8,141.48Z" transform="translate(-20.36 -3.64)"/><path class="cls-5" d="M63.67,140.49a1.68,1.68,0,0,1-1.2-.49,1.71,1.71,0,0,1,0-2.41c1.69-1.72,2-4.61,2-5.78a1.7,1.7,0,0,1,3.4.12c-.07,1.94-.54,5.57-3,8A1.7,1.7,0,0,1,63.67,140.49Z" transform="translate(-20.36 -3.64)"/><path class="cls-5" d="M91.78,145.54a1.7,1.7,0,0,1-1.53-1c-.32-.65-.7-1.35-1.1-2.08-1.58-2.9-3.37-6.19-3.18-9.48a1.7,1.7,0,1,1,3.39.2c-.13,2.32,1.42,5.15,2.78,7.66.42.77.83,1.51,1.17,2.21a1.71,1.71,0,0,1-1.53,2.45Z" transform="translate(-20.36 -3.64)"/><path class="cls-5" d="M120,221.79a15.88,15.88,0,0,1-2.75-.24,1.7,1.7,0,0,1,.58-3.35,13.22,13.22,0,0,0,9.67-2.18,15.07,15.07,0,0,0,5.88-10.75c.27-4.63-2.73-10.73-5.14-15.62-.49-1-1-2-1.37-2.83-3.42-7.31-6.77-14.49-10-22a23.23,23.23,0,0,0-9.19-10.65l-1.68-1.14A70.15,70.15,0,0,0,99,148.74a1.7,1.7,0,0,1,1.57-3,72.8,72.8,0,0,1,7.26,4.54l1.66,1.12a26.75,26.75,0,0,1,10.42,12.11c3.26,7.44,6.6,14.6,10,21.88.41.87.86,1.8,1.34,2.78,2.59,5.25,5.8,11.79,5.49,17.31a18.42,18.42,0,0,1-7.32,13.34A16.46,16.46,0,0,1,120,221.79Z" transform="translate(-20.36 -3.64)"/><path class="cls-5" d="M77.25,118.27a5.66,5.66,0,0,1-3.72-1.16,4.19,4.19,0,0,1-1.4-3.76,1.7,1.7,0,1,1,3.39.28c-.06.66.14.83.21.88.5.43,2,.48,3.42.11a1.7,1.7,0,1,1,.84,3.29A11.09,11.09,0,0,1,77.25,118.27Z" transform="translate(-20.36 -3.64)"/><path class="cls-5" d="M66.57,101.34a2.52,2.52,0,0,1-4,2.87,1.7,1.7,0,0,1-.46-.57,2.53,2.53,0,0,1,3.71-3.26A2,2,0,0,1,66.57,101.34Z" transform="translate(-20.36 -3.64)"/><path class="cls-5" d="M92.34,102.65a2.47,2.47,0,1,1-2.17-2.74A2.47,2.47,0,0,1,92.34,102.65Z" transform="translate(-20.36 -3.64)"/><path class="cls-5" d="M53.08,96.11a1.71,1.71,0,0,1-1.59-2.32C53.75,88,58.94,83.64,63.21,80.52l3-2.17C70,75.72,73.54,73.22,76.33,70a1.7,1.7,0,0,1,2.56,2.24c-3.06,3.5-6.93,6.23-10.68,8.86-1,.71-2,1.42-3,2.14C61.32,86.12,56.6,90,54.66,95A1.69,1.69,0,0,1,53.08,96.11Z" transform="translate(-20.36 -3.64)"/><path class="cls-5" d="M104.93,96.79a1.72,1.72,0,0,1-.94-.28C95.59,91,85.13,84.06,80.13,74a1.7,1.7,0,0,1,3.05-1.52c4.59,9.23,14.2,15.57,22.69,21.17a1.7,1.7,0,0,1-.94,3.12Z" transform="translate(-20.36 -3.64)"/><path class="cls-5" d="M106.07,112.37a1.71,1.71,0,0,1-.52-3.33,12.85,12.85,0,0,0,7.52-6.46,13.13,13.13,0,0,1-7.3-4.47A1.7,1.7,0,0,1,108.4,96a9.72,9.72,0,0,0,7.12,3.52,1.72,1.72,0,0,1,1.33.71,1.68,1.68,0,0,1,.24,1.49,16.34,16.34,0,0,1-10.51,10.61A1.81,1.81,0,0,1,106.07,112.37Z" transform="translate(-20.36 -3.64)"/><path class="cls-5" d="M46.63,113.07c-1.59,0-3.52-1.12-5.74-3.33,0,0-4.36-5.89-3.61-7.71A1.78,1.78,0,0,1,38.89,101a8.81,8.81,0,0,0,6.92-3.48,1.7,1.7,0,0,1,2.73,2,12.3,12.3,0,0,1-7.19,4.58,38,38,0,0,0,2,3.32,8.64,8.64,0,0,0,3.13,2.25,1.7,1.7,0,0,1,2.81,1.92A3.07,3.07,0,0,1,47,113.05Z" transform="translate(-20.36 -3.64)"/><path class="cls-5" d="M63.41,155.34a1.69,1.69,0,0,1-1.15-.45c-1.8-1.67-3.41-3.26-4.79-4.73A1.7,1.7,0,0,1,60,147.83c1.33,1.41,2.88,2.95,4.62,4.57a1.7,1.7,0,0,1-1.16,2.94Z" transform="translate(-20.36 -3.64)"/><path class="cls-5" d="M82.11,161.69a1.7,1.7,0,0,1-1-3.05A86,86,0,0,0,94.85,146.1a1.7,1.7,0,0,1,2.57,2.23,89,89,0,0,1-14.27,13A1.71,1.71,0,0,1,82.11,161.69Z" transform="translate(-20.36 -3.64)"/><path class="cls-5" d="M32.54,223.72l-.27,0c-12.71-2.08-12.2-19.31-11.74-24.54,1-11.37,6.45-22,10.45-29L32.17,168c2.32-4.18,5-8.92,8.72-12.14a1.7,1.7,0,1,1,2.21,2.58c-3.29,2.83-5.67,7.09-8,11.21-.41.73-.81,1.45-1.21,2.14-3.84,6.74-9.06,16.94-10,27.65-.39,4.49-.92,19.28,8.9,20.88a1.7,1.7,0,0,1-.28,3.38Z" transform="translate(-20.36 -3.64)"/><path class="cls-5" d="M46.77,154.4a1.66,1.66,0,0,1-1.25-.55,1.69,1.69,0,0,1,.1-2.4c.48-.43,1-.9,1.43-1.37a21.6,21.6,0,0,1,5.8-4.47c2.14-1,5.24-.56,6.5,1.78a1.7,1.7,0,1,1-3,1.62c-.28-.51-1.32-.66-2.11-.3a18.7,18.7,0,0,0-4.82,3.81c-.51.5-1,1-1.51,1.44A1.69,1.69,0,0,1,46.77,154.4Z" transform="translate(-20.36 -3.64)"/><path class="cls-5" d="M80.64,127.17a1.4,1.4,0,0,1-1.09-.51,3.38,3.38,0,0,0-2.4-.78h0a3.23,3.23,0,0,0-2.31.73,1.42,1.42,0,1,1-2.19-1.8,5.82,5.82,0,0,1,4.48-1.76,6,6,0,0,1,4.63,1.8,1.41,1.41,0,0,1-.18,2A1.38,1.38,0,0,1,80.64,127.17Z" transform="translate(-20.36 -3.64)"/><path class="cls-3" d="M80.39,162.8c0-.06,1.14-6.53.23-10.49s-4.87-4.47-8.9-5c1.63-4.52,8.42-13.34,5.3-16.25s-13,17.12-14.46,27.63c-1.07,7.78-1.42,14.65-5.45,21.09" transform="translate(-20.36 -3.64)"/><path class="cls-5" d="M57.11,181.47a1.65,1.65,0,0,1-.9-.26,1.69,1.69,0,0,1-.54-2.34c3.27-5.22,4-10.76,4.78-17.18.14-1.07.28-2.15.43-3.24,1.21-8.81,9.25-27.38,14.37-29.2a2.79,2.79,0,0,1,2.93.55c3.16,2.95.13,8.52-2.55,13.43-.52,1-1,1.87-1.44,2.71,3.53.6,7.11,1.8,8.08,6,.88,3.78.07,9.44-.19,11.08a1.66,1.66,0,0,1-1.82,1.53,1.74,1.74,0,0,1-1.57-1.87s0-.16,0-.21c.5-3.06.82-7.24.24-9.77s-3.22-3.14-7.41-3.7a1.74,1.74,0,0,1-1.25-.81,1.72,1.72,0,0,1-.18-1.46,42.5,42.5,0,0,1,2.52-5.12c1.44-2.64,4-7.39,3.42-9-2.93,1.83-10.52,16.91-11.81,26.3-.15,1.08-.29,2.15-.42,3.2-.83,6.54-1.61,12.71-5.28,18.56A1.69,1.69,0,0,1,57.11,181.47Z" transform="translate(-20.36 -3.64)"/><path class="cls-5" d="M67.89,183.38a1.71,1.71,0,0,1-1.61-2.25,35.29,35.29,0,0,1,2.81-6.52c.6-1,1.21-1.91,1.79-2.76a17.64,17.64,0,0,0,2.52-4.51,1.7,1.7,0,0,1,3.22,1.1,21,21,0,0,1-2.94,5.35c-.55.8-1.12,1.62-1.66,2.53a32.86,32.86,0,0,0-2.52,5.91A1.71,1.71,0,0,1,67.89,183.38Z" transform="translate(-20.36 -3.64)"/><path class="cls-5" d="M41.34,202a1.69,1.69,0,0,1-1.46-2.56l12.52-22a1.71,1.71,0,0,1,1.16-.81,1.73,1.73,0,0,1,1.37.34,15.83,15.83,0,0,0,13.21,3,1.69,1.69,0,0,1,1.61.47,1.73,1.73,0,0,1,.42,1.62l-.52,2c-.24.9-6.65,21-9.65,19-1.86-1.24,6.36-18.64,6.31-19.35a19.08,19.08,0,0,1-11.92-2.93l-11.58,20.4A1.69,1.69,0,0,1,41.34,202Z" transform="translate(-20.36 -3.64)"/><path class="cls-5" d="M61.41,98.2a1.15,1.15,0,0,1-1.11-.81A1.1,1.1,0,0,1,61,96l.06,0a16,16,0,0,0,4.65-1.87,1.13,1.13,0,0,1,1.43,1.76,17.05,17.05,0,0,1-5.45,2.29A1.19,1.19,0,0,1,61.41,98.2Z" transform="translate(-20.36 -3.64)"/><path class="cls-5" d="M92.93,98.17l.32-1.09-.38,1.07c-1.51-.43-4.05-1.16-5.44-2.29a1.13,1.13,0,0,1,1.42-1.76A16,16,0,0,0,93.5,96l-.25,1.11Z" transform="translate(-20.36 -3.64)"/><path class="cls-5" d="M43.18,35.32a2.83,2.83,0,0,1-2.71-1.06,12.39,12.39,0,0,1,2-17.14c.46-.39,1-.77,1.45-1.14a10.64,10.64,0,0,0,1.84-1.6,1.81,1.81,0,0,0,.33-1.64,4.25,4.25,0,0,0-2.39-2.68,9.55,9.55,0,0,0-8.92.78,5.62,5.62,0,0,0-2.33,6,2.83,2.83,0,1,1-5.49,1.41A11.33,11.33,0,0,1,31.44,6.23,15.27,15.27,0,0,1,46.1,4.94a9.94,9.94,0,0,1,5.48,6.52,7.52,7.52,0,0,1-1.4,6.44,14.89,14.89,0,0,1-2.9,2.61c-.39.3-.79.6-1.16.92A6.7,6.7,0,0,0,45,30.8a2.83,2.83,0,0,1-1.78,4.52Z" transform="translate(-20.36 -3.64)"/><path class="cls-5" d="M44.28,41.64A1.74,1.74,0,1,0,44,41.3Z" transform="translate(-20.36 -3.64)"/><path class="cls-5" d="M46,43.72a3.35,3.35,0,0,1-2.91-.86A1.07,1.07,0,0,1,43,42.7l-.27-.34-.12-.17A3.52,3.52,0,0,1,45.11,37a3.42,3.42,0,0,1,3,1.31,3.29,3.29,0,0,1-1.85,5.38Z" transform="translate(-20.36 -3.64)"/></g></g></g></svg>