<svg xmlns="http://www.w3.org/2000/svg" viewBox="0 0 210.01 149.69"><defs><style>.cls-1{fill:none;stroke:#1238a6;stroke-miterlimit:10;stroke-width:3.44px;}.cls-2{fill:#0d38a6;}.cls-3{fill:#fff;}.cls-4{fill:#ffe33f;}</style></defs><g id="Layer_2" data-name="Layer 2"><g id="レイヤー_3" data-name="レイヤー 3"><circle class="cls-1" cx="135.26" cy="74.75" r="73.03"/><path class="cls-2" d="M105.61,51.15V48.76h13.44v2.41h-5l.38.1a.44.44,0,0,1-.43.24,9.57,9.57,0,0,1-5,7.19,19.45,19.45,0,0,0-2-1.7c3.19-1.67,4-3.62,4.28-5.85ZM117.08,46a8,8,0,0,0-.6-1v1.57H107.2v-2.4h8.62a3.91,3.91,0,0,0-.54-.54l1.12-.85a14.08,14.08,0,0,1,1.85,2.29Zm2.53-.38a13.09,13.09,0,0,0-1.77-2.29l1.06-.8a15,15,0,0,1,1.87,2.23Z"/><path class="cls-2" d="M134.05,46.8a11.84,11.84,0,0,0-1.5-1.89v2.18h3.23v2.47h-3.23c0,2.49-.17,6.57-5.28,9.07a14.35,14.35,0,0,0-1.91-1.8c4.47-2,4.58-5,4.58-7.27h-3.57v3.51h-2.59V49.56H121V47.09h2.75V43.71l3.13.19a.61.61,0,0,1-.54.47v2.72h3.57V43.52l3.16.17c0,.21-.19.36-.55.43v.68l.94-.72a11.51,11.51,0,0,1,1.6,1.87Zm1.85-1.44a10.24,10.24,0,0,0-1.63-1.94l1-.78a10.52,10.52,0,0,1,1.66,1.88Z"/><path class="cls-2" d="M143.21,51A52.66,52.66,0,0,1,138,53.86a9.84,9.84,0,0,0-1.56-2c4.33-1.89,9.43-5.37,12-8.42l2.55,1.87a.63.63,0,0,1-.57.21,45.54,45.54,0,0,1-4.48,3.75l.62.21c0,.17-.22.32-.55.37V58.6h-2.75Z"/><path class="cls-2" d="M154.06,44.51A22.08,22.08,0,0,1,159,46.7l-1.36,2.36a26.51,26.51,0,0,0-4.81-2.31Zm-.81,11.35c5.59-1.7,9.48-5,11.42-9.67a17.46,17.46,0,0,0,2.43,1.53A19.88,19.88,0,0,1,155.41,58a.66.66,0,0,1-.33.46Z"/><path class="cls-2" d="M88.75,76.15V73.76h13.44v2.41H97.25l.37.1a.43.43,0,0,1-.42.24,9.61,9.61,0,0,1-5,7.19,19.45,19.45,0,0,0-2-1.7c3.19-1.67,4-3.62,4.28-5.85ZM100.22,71a9.32,9.32,0,0,0-.59-1v1.57H90.34v-2.4H99a3.43,3.43,0,0,0-.54-.54l1.12-.85a13.57,13.57,0,0,1,1.85,2.29Zm2.53-.38A13.5,13.5,0,0,0,101,68.37l1.05-.8a14.37,14.37,0,0,1,1.87,2.23Z"/><path class="cls-2" d="M104.55,74.5h14.19v2.59H105.29a.85.85,0,0,1-.61.32Z"/><path class="cls-2" d="M134.32,71.56a.7.7,0,0,1-.32.36,25.26,25.26,0,0,1-2.3,5.19c.55.32,1.3.81,1.72,1.12l-1.48,2.53c-.44-.36-1.27-1-1.83-1.33a15.93,15.93,0,0,1-5.53,4.27,8.08,8.08,0,0,0-2-2,15.31,15.31,0,0,0,5.32-3.68,19.2,19.2,0,0,0-2.46-1.29l1.44-2a23.19,23.19,0,0,1,2.57,1.11,14,14,0,0,0,1.31-2.77h-4.17A19.62,19.62,0,0,1,123,77.19a15.34,15.34,0,0,0-2.14-1.61A14.85,14.85,0,0,0,126,68.37l3.26.7c-.06.18-.27.3-.59.3-.16.39-.43.94-.66,1.38h4l.42-.1Z"/><path class="cls-2" d="M143.08,68.84c-.05.24-.28.33-.56.38-.16.76-.38,2.14-.57,3.11a11,11,0,0,1,1.16-.07c2.92,0,3.77,2.07,3.77,4.79v0c0,2.89-.69,6.46-3.79,6.46a5.61,5.61,0,0,1-3-1.36,12.57,12.57,0,0,0,.85-2.23,4.06,4.06,0,0,0,2.11.91c.59,0,.83-.58,1.05-1.48a13.59,13.59,0,0,0,.27-2.45c0-1.57-.47-2.28-1.44-2.28a9.85,9.85,0,0,0-1.41.1,43.38,43.38,0,0,1-3,8.72l-2.39-1.17A31.73,31.73,0,0,0,138.84,75c-.47.09-1.7.27-2.38.39l-.2-2.55c.7-.07,2.07-.22,3-.34.22-1.24.41-2.62.55-4Zm3-.57A8.56,8.56,0,0,1,148,70.6l-1.25.81a8.08,8.08,0,0,0-1.83-2.36ZM149,78.11a10.68,10.68,0,0,0-2.5-5.49l2.17-1.34a11.54,11.54,0,0,1,3.05,5.89Zm-.21-10.54a8.56,8.56,0,0,1,1.91,2.33l-1.25.81a8.35,8.35,0,0,0-1.83-2.36Z"/><path class="cls-2" d="M165.38,72.18a59.67,59.67,0,0,1-6,.54c0,.44,0,.88,0,1.34a10,10,0,0,1,2.22-.15,3.78,3.78,0,0,0,.12-.75l2.5.65c0,.17-.08.34-.12.51a4.38,4.38,0,0,1,3.3,4.3c0,2.72-1.92,4.6-6.34,5.18a10.11,10.11,0,0,0-1.07-2c2.82-.33,4.71-1.26,4.71-3.1a2.25,2.25,0,0,0-1.43-2.07,12.7,12.7,0,0,1-3.14,4.15l.15.4-2.11,1.36-.17-.42a6.27,6.27,0,0,1-2.5.54A2.47,2.47,0,0,1,152.74,80c0-2.37,1.71-4.22,4.11-5.22,0-.65,0-1.29,0-2-1,0-2.16.07-2.86.07h-.29l-.12-2.39h3.3c0-.7.05-1.5.09-2.18l3.12.24c0,.19-.17.3-.46.36,0,.42-.08,1-.13,1.49a39.79,39.79,0,0,0,5.69-.7Zm-8,7.64a26.15,26.15,0,0,1-.34-2.7,2.93,2.93,0,0,0-1.77,2.33c0,.24,0,.78.85.75A3.16,3.16,0,0,0,157.33,79.82Zm3.4-3.68a11.06,11.06,0,0,0-1.4.15c0,.61.07,1.19.14,1.75A9.36,9.36,0,0,0,160.73,76.14Z"/><path class="cls-2" d="M176.05,74.91a8.24,8.24,0,0,1,2.79-.46,4.08,4.08,0,0,1,4.37,4.32c0,3-2.63,4.83-6.49,4.83-2.18,0-3.74-1.06-3.74-2.87a2.93,2.93,0,0,1,3.09-2.6,3.36,3.36,0,0,1,3.44,2.48,2,2,0,0,0,1-1.8c0-1.3-1.12-2.11-2.65-2.11a8.06,8.06,0,0,0-5.4,2c-.36.34-1.06,1-1.48,1.46l-1.84-1.82c1.06-1,5.07-4.79,7.33-6.88-.75.1-3.49.27-4.56.35-.05.14-.29.24-.44.27l-.2-2.85c2.1,0,7.09-.19,8.16-.37l.27-.14,1.6,2.06a1,1,0,0,1-.55.18c-.73.5-3.21,2.66-4.66,3.9Zm.23,6.46c.18,0,.68,0,.79-.05a1.29,1.29,0,0,0-1.22-1.16c-.41,0-.78.23-.78.57S175.19,81.37,176.28,81.37Z"/><path class="cls-2" d="M125.85,107.49h-3.09l-.76-3.06h-3l-.71,3.06h-3l3.47-13.14h3.79Zm-4.21-5.32-.58-2.63c-.17-.78-.39-2-.56-2.76h0c-.17.8-.39,2-.55,2.76l-.59,2.63Z"/><path class="cls-2" d="M135.2,93.44a.55.55,0,0,1-.48.46,17.83,17.83,0,0,0,.26,2.24,27.13,27.13,0,0,0,5-.87l.46,2.62a36.82,36.82,0,0,1-4.88.66,5.2,5.2,0,0,0,2.81,3.3L136.51,104a6.05,6.05,0,0,0-1.06-.77,6.17,6.17,0,0,0-2.56-.42l-.73-2.06a8.44,8.44,0,0,1,1.66.12,10,10,0,0,1-.95-2.16c-.63,0-1.19.05-2,.05-1,0-3.13,0-4.3-.05l0-2.45c.94,0,2.11.07,4.32.07.42,0,.92,0,1.36,0-.19-1-.31-2-.44-3Zm-1.17,15c-4.39,0-6.28-1.82-6.28-3.82a4.17,4.17,0,0,1,1.43-2.94l2,1.44a1.66,1.66,0,0,0-.75,1.38c0,1.07,1.44,1.5,3.7,1.5,1.31,0,2.37-.06,3.27-.11l-.24,2.55Z"/><path class="cls-2" d="M140.54,107.58c.94-2.84,3.12-9.18,3.64-10.64.36-1,.94-2.81,1.07-3.42l3.42.8a.76.76,0,0,1-.75.48c-.59,1.24-1.88,4.57-2.5,6.2a4.43,4.43,0,0,1,2.82-1,2.23,2.23,0,0,1,2.25,2.53c0,.36-.07,2.19-.07,2.21,0,.8.24,1.09.77,1.09,1.17,0,1.93-1.4,2.66-4.07a19.52,19.52,0,0,0,2.42,1.47c-1.09,3.29-2.6,5.28-5.17,5.28-2.19,0-3.45-1.12-3.45-2.94,0-.3.07-1.83.07-2.17,0-.63-.12-.9-.44-.9-1.41,0-2.89,2.12-3.42,3.74-.22.69-.46,1.44-.68,2.21Z"/><path class="cls-3" d="M57,16.82c-.7,0-3.78-2.7-4.71-3.11a17.51,17.51,0,0,0-6-1.43,34.34,34.34,0,0,0-11.89,1.47c-6.74,2.49-13,6.55-16.86,12.74-5.13,8.24-4.62,20.3,2.79,26.58-4.48-3.8-10.54,9.69-5,13.34A5.64,5.64,0,0,0,22,65.9c-1.8,1.64,1.22,8.16,2.23,9.87,2.17,3.67,5.22,6.67,8,9.9s2.28,3.62-1.41,4.73c-6.41,1.93-12.53,5.47-18.09,9.13-3.55,2.35-5.58,4.66-6.4,8.88C5.16,114.34,4,120.35,3,126.3c-1.17,7-.45,14.24-1.51,21.21L48,148.7c13.37.34,26.66-.13,39.81-.07a70.69,70.69,0,0,0-.1-13.17c-.55-5.24-1.68-10.75-1.68-16-.8-7.55-1.1-12.46-6.66-18-5.92-5.92-14.17-9.49-20.36-15.16a41.85,41.85,0,0,0,8.17-11.32c.37-.77,3.71-8.12,2.41-8.43a7.23,7.23,0,0,0,8.49-6.11,7.22,7.22,0,0,0-7.25-7.54A21.94,21.94,0,0,0,76.4,29.78a22.74,22.74,0,0,0-9.67-11.24C63.44,16.48,60.77,16.56,57,16.82Z"/><path class="cls-4" d="M52.44,17.19C45.51,13.91,34.49,16.6,29.17,20c-4.88,3.1-9,5.25-12.14,10.48A14.9,14.9,0,0,0,16.11,43c1.32,3.71,6.49,7.55,5.61,11.63a19.8,19.8,0,0,1,3.88-8.17c2-2.39,5.41-2.61,8.34-3.12,7.68-1.34,17.77-2.75,23.17-9-2.17,2.53,5.41,9.28,7,10.79,1.35,1.26,6.37,7.57,4.6,9.22,3.43-3.2,5.09-8.55,6.74-12.83.34-.87-3.74-12.89-4.41-14.45-2.34-5.41-8.38-8.22-12.89-2.75A10.07,10.07,0,0,0,52.44,17.19Z"/><path class="cls-4" d="M48.68,103.44a17.18,17.18,0,0,0-3.18-6.89c-1.68,3.76-4.2,5-3.66,9.25.21,1.71,1.76,2.77,1.85,4.58.14,3-2,6.34-2.37,9.32-.39,3.25-1.6,8.43-1.14,11.45s3.31,8.59,4.5,11.46a41.39,41.39,0,0,0,5.57-7.39c.78-2.79-1.32-8.58-1.55-11.78-.32-4.53,1.07-12.34-.77-16.24.93-.3,1.89-1.1,2.79-1.3Z"/><path class="cls-4" d="M85.66,149.21c-12.19.48-78.2.73-79.48-.21C3,146.66,6,134.87,6.7,131.34c1.18-5.64.71-14.26,2.36-19.81s5.88-7,10.07-9.94c3.78-2.7,5.26-3.89,10.29-4.42-1.56.17,3.41,17.85,3.77,19.16,1.14,4.1,1.78,8.91,3.29,12.82,1.84,4.79,4.37,4.19,5.75,9.29,3.53-6.87,11.43-8.94,15-16.15,1.38-2.76,9.59-21.14,7.36-23.43,3.1,3.18,3.69,9.78,9,10.66,1.69.28,3.92,0,5.5.67,4.16,1.75,4.07,12.11,4.49,15.87C84.53,134.19,86.28,141,85.66,149.21Z"/><path class="cls-2" d="M45.28,68.33a4.75,4.75,0,0,1-3.1-1A3.5,3.5,0,0,1,41,64.23,1.4,1.4,0,0,1,42.51,63a1.38,1.38,0,0,1,1.27,1.5c0,.58.13.73.19.78a4,4,0,0,0,2.92.1A1.39,1.39,0,0,1,47.58,68,9.51,9.51,0,0,1,45.28,68.33Z"/><path class="cls-2" d="M45.61,91.32c-.33,0-.67,0-1,0C36.8,91,30.53,87.6,25.46,80.83c-4.74-6.33-6.26-19-5.29-27.73a1.39,1.39,0,1,1,2.76.31c-.92,8.3.6,20.21,4.75,25.75,4.54,6.06,10.11,9.12,17,9.37a19.81,19.81,0,0,0,16.92-7.61C66.3,75,69,62.62,67.71,52.77a1.39,1.39,0,1,1,2.76-.35c1.36,10.67-1.5,23.66-6.66,30.22A22.34,22.34,0,0,1,45.61,91.32Z"/><path class="cls-2" d="M19.79,69.22h-.2c-4.17-.6-7.11-2.9-8.06-6.3a8.74,8.74,0,0,1,2.55-8.8,5.61,5.61,0,0,1,6.34-.59A1.39,1.39,0,1,1,19.16,56a2.85,2.85,0,0,0-3.32.27,5.94,5.94,0,0,0-1.63,5.91c.65,2.32,2.7,3.84,5.78,4.29a1.39,1.39,0,0,1-.2,2.76Z"/><path class="cls-2" d="M71,68.69a1.39,1.39,0,0,1-.11-2.77c2.92-.22,5-1.53,5.76-3.68a5.28,5.28,0,0,0-1.06-5.43c-1.32-1.32-3.3-1.58-5.59-.73a1.41,1.41,0,0,1-1.79-.83A1.39,1.39,0,0,1,69,53.47c3.32-1.23,6.43-.72,8.52,1.38a8,8,0,0,1,1.71,8.36c-1.18,3.18-4.15,5.18-8.16,5.48Z"/><path class="cls-2" d="M45.36,80a8.16,8.16,0,0,1-7.36-5l-.06-.14h0a1.17,1.17,0,0,1,1.55-1.52c.9.13,5,.08,7.54,0,2.68,0,4.22,0,4.73,0a1.15,1.15,0,0,1,.87.57,1.16,1.16,0,0,1,.07,1,8,8,0,0,1-7.3,5Zm-4.18-4.28a5.49,5.49,0,0,0,4.18,2h0a5.52,5.52,0,0,0,4.21-2l-2.54,0C44.35,75.67,42.48,75.68,41.18,75.67Z"/><path class="cls-2" d="M46.06,95.85a22.9,22.9,0,0,1-5.2-.5c-4.5-1-9.27-4.46-9.26-8.76A1.39,1.39,0,0,1,33,85.2h0a1.4,1.4,0,0,1,1.39,1.4c0,2.72,3.68,5.25,7.11,6a30.6,30.6,0,0,0,9.1.2,1.39,1.39,0,1,1,.26,2.76C49.09,95.77,47.49,95.85,46.06,95.85Z"/><path class="cls-2" d="M55.42,93.8a1.36,1.36,0,0,1-.77-.23,1.39,1.39,0,0,1-.38-1.93,2.57,2.57,0,0,1,.67-.63c.74-.57,3-2.28,2.34-3.47a1.39,1.39,0,0,1,2.45-1.32c1.77,3.28-1.9,6.08-3.1,7l-.2.15A1.41,1.41,0,0,1,55.42,93.8Zm1.16-.61Z"/><path class="cls-2" d="M29.51,93a1.6,1.6,0,0,1-.52-.1,1.4,1.4,0,0,1-.77-1.81,18,18,0,0,1,2.05-3.23c.33-.45.66-.9,1-1.33a1.39,1.39,0,0,1,2.29,1.57c-.31.46-.66.93-1,1.4A17.1,17.1,0,0,0,30.8,92.1,1.39,1.39,0,0,1,29.51,93Z"/><path class="cls-2" d="M44.76,109.28a4.13,4.13,0,0,1-2.17-.6c-4-2.39-1.6-6.39,0-9a10.68,10.68,0,0,0,1.55-3.25,1.4,1.4,0,0,1,2.54-.62c.16.25,4.05,6,5,8.13a1.39,1.39,0,0,1-.24,1.52C49.1,108,46.77,109.28,44.76,109.28Zm1.07-9.72c-.27.5-.57,1-.87,1.51-2.05,3.43-2.23,4.45-.94,5.23s3.13-.57,4.7-2.07C48,103,46.84,101.12,45.83,99.56Z"/><path class="cls-2" d="M40.35,132a1.24,1.24,0,0,1-.33,0,1.38,1.38,0,0,1-1-1.68c.74-3.05,1.2-6.26,1.65-9.36s.9-6.28,1.64-9.38a1.39,1.39,0,1,1,2.7.64c-.71,3-1.16,6.11-1.59,9.13-.46,3.17-.93,6.45-1.7,9.63A1.41,1.41,0,0,1,40.35,132Z"/><path class="cls-2" d="M50.76,130.56a1.39,1.39,0,0,1-1.29-.88c-2-4.93-3.19-15.76-3.47-20.22A1.4,1.4,0,0,1,47.3,108a1.37,1.37,0,0,1,1.47,1.3c.26,4.15,1.44,14.79,3.28,19.37a1.39,1.39,0,0,1-.77,1.81A1.37,1.37,0,0,1,50.76,130.56Z"/><path class="cls-2" d="M42.23,139.83a1.38,1.38,0,0,1-1.3-.92c-.26-.7-.66-1.74-1.16-3-1.58-4.1-4.21-11-6.88-18.92a116.75,116.75,0,0,1-3.4-14.55c-.57-3-1.11-5.84-1.74-8.45a1.39,1.39,0,0,1,2.71-.64c.64,2.67,1.18,5.53,1.76,8.57a114.77,114.77,0,0,0,3.31,14.19c2.64,7.9,5.27,14.73,6.83,18.81.51,1.32.92,2.37,1.18,3.09a1.39,1.39,0,0,1-.83,1.78A1.36,1.36,0,0,1,42.23,139.83Z"/><path class="cls-2" d="M48.68,136.09a1.39,1.39,0,0,1-1-2.31c.69-1.15,4.79-9.94,6.21-13.11,1.74-3.89,7.43-17.34,7.35-27.24A1.38,1.38,0,0,1,62.57,92h0A1.39,1.39,0,0,1,64,93.4c.08,10.47-5.79,24.39-7.59,28.41-6.32,14.09-6.69,14.14-7.5,14.27Zm-.21-2.76Z"/><path class="cls-2" d="M1.39,149.28H1.28A1.39,1.39,0,0,1,0,147.78c.09-1,2-24.87,2.19-26.47l0-.21c.75-6.25,2-16.72,7.64-20.95a42.75,42.75,0,0,1,6.81-4c.91-.47,1.83-.93,2.75-1.43a24.71,24.71,0,0,0,3.15-2.21,19.55,19.55,0,0,1,5.22-3.27,1.39,1.39,0,1,1,.94,2.61,18,18,0,0,0-4.45,2.85,26.82,26.82,0,0,1-3.54,2.47c-.94.51-1.88,1-2.83,1.46a40.31,40.31,0,0,0-6.38,3.71C6.83,105.89,5.67,115.62,5,121.43l0,.21C4.8,122.88,3.46,139.43,2.78,148A1.39,1.39,0,0,1,1.39,149.28Z"/><path class="cls-2" d="M89.1,149.69a1.39,1.39,0,0,1-1.39-1.39c0-3.71-.91-27-4.95-40.54-1.44-4.85-6.23-7.21-10.85-9.49-4.25-2.1-8.65-4.27-10.23-8.43a1.39,1.39,0,1,1,2.6-1c1.19,3.13,4.92,5,8.86,6.92C78.06,98.21,83.64,101,85.42,107c4.19,14.09,5.07,37.34,5.07,41.33A1.39,1.39,0,0,1,89.1,149.69Z"/><path class="cls-2" d="M36.66,146a1.38,1.38,0,0,1-1-.44c-2.1-2.24-13.76-23.68-14.78-26.68a1.41,1.41,0,0,1,.3-1.4l1-1.11c.7-.76,1.42-1.55,2.17-2.31-.43-.15-.9-.28-1.37-.4a6.36,6.36,0,0,1-3.61-1.81c-2.16-2.68-.21-8.1,2.22-13.56l.06-.13a1.39,1.39,0,0,1,2.54,1.13l-.06.13c-3.29,7.41-3.23,9.9-2.6,10.69a5.09,5.09,0,0,0,2.16.86,7.44,7.44,0,0,1,3.92,1.94,1.4,1.4,0,0,1-.09,1.93c-1.14,1.07-2.24,2.26-3.3,3.41l-.44.48c2.11,4.79,12.37,23.32,13.88,24.92a1.4,1.4,0,0,1-.07,2A1.38,1.38,0,0,1,36.66,146Z"/><path class="cls-2" d="M54.86,142.1a1.35,1.35,0,0,1-.87-.31,1.39,1.39,0,0,1-.21-2c6.89-8.56,14-18.94,15.28-21.91a39.16,39.16,0,0,1-4.93-3.37,1.4,1.4,0,0,1,.58-2.46l.55-.11a21.07,21.07,0,0,1,3.13-.5c.06-2.15,0-4.64-.13-7.07-.07-1.82-.13-3.54-.13-5a1.39,1.39,0,0,1,2.78,0c0,1.46.06,3.15.13,5,.11,3,.23,6.11.07,8.67a1.38,1.38,0,0,1-.48,1,1.36,1.36,0,0,1-1,.32,7.49,7.49,0,0,0-1.16,0,24.54,24.54,0,0,0,2.73,1.62A1.6,1.6,0,0,1,72,117c.73,3.39-15.89,24.39-16.06,24.6A1.39,1.39,0,0,1,54.86,142.1Zm15-23.73Z"/><path class="cls-2" d="M69.83,59a1.26,1.26,0,0,1-.33-.05,1.38,1.38,0,0,1-1-1.68,54,54,0,0,0-1.67-8.15A5.72,5.72,0,0,0,64.7,46.8a9.08,9.08,0,0,1-2.9-3.11l-.31-.63c-1.25-2.55-2.66-5.44-2.9-7.8a1.4,1.4,0,0,1,1.25-1.52A1.38,1.38,0,0,1,61.36,35c.18,1.86,1.54,4.63,2.63,6.85l.31.63a6.84,6.84,0,0,0,2.1,2.13,7.91,7.91,0,0,1,3,3.57c.09.25.5,1.79.91,3.59.28-.58.59-1.18,1-1.8,1.22-2.12,3.38-6.08,4.07-8.87A8.43,8.43,0,0,0,75,36.51c-.17-.62-.35-1.27-.49-2-.57-2.73-2.29-9.48-6.07-13.26C64.1,17,58.19,16.77,57.17,17.21a1.37,1.37,0,0,1-1.42-.1c-4.6-3.2-14.75-4-19.52-2.46-3.3,1.09-6.07,3.17-9,5.37l-2,1.49c-7.35,5.32-10.94,14.82-8.73,23.1.27,1,.32,1.06.51,1.23a9.43,9.43,0,0,1,1.25,1.45c1.4,2,3.14,4.39,2.85,7.29a1.39,1.39,0,1,1-2.77-.29c.19-1.85-1.15-3.72-2.34-5.38a5.37,5.37,0,0,0-.89-1,4.34,4.34,0,0,1-1.3-2.55C11.28,36,15.3,25.24,23.57,19.26q1-.72,2-1.47c3-2.23,6.08-4.55,9.81-5.78,5.31-1.76,15.78-1,21.4,2.44,2.71-.58,9,.23,13.61,4.86,4.15,4.16,6.06,11,6.82,14.66.13.62.29,1.23.45,1.81a10.93,10.93,0,0,1,.43,6,43.38,43.38,0,0,1-4.36,9.59,22.94,22.94,0,0,0-2.53,6.55A1.39,1.39,0,0,1,69.83,59Z"/><path class="cls-2" d="M36.61,53.47a2.08,2.08,0,1,1-1.82-2.3A2.08,2.08,0,0,1,36.61,53.47Z"/><path class="cls-2" d="M58.14,53.47A2.08,2.08,0,1,1,54,53a2.08,2.08,0,0,1,4.13.48Z"/><path class="cls-2" d="M30.88,45.92h-.15a1.4,1.4,0,0,1-1.38-1.4,1.38,1.38,0,0,1,1.39-1.38h.14a35.05,35.05,0,0,0,24.29-9.89,1.39,1.39,0,0,1,1.94,2A37.85,37.85,0,0,1,30.88,45.92Z"/><path class="cls-2" d="M22.05,52.3l-.27,0a1.39,1.39,0,0,1-1.09-1.64c.84-4.16,4-8,8.41-10.15A1.39,1.39,0,0,1,30.33,43c-3.66,1.81-6.25,4.87-6.92,8.2A1.39,1.39,0,0,1,22.05,52.3Z"/></g></g></svg>