<svg xmlns="http://www.w3.org/2000/svg" viewBox="0 0 593 118"><defs><style>.cls-1{fill:#0d38a6;}.cls-2{fill:#faed00;}.cls-3{fill:#6a89a0;}</style></defs><g id="Layer_2" data-name="Layer 2"><g id="レイヤー_3" data-name="レイヤー 3"><rect class="cls-1" x="-32.5" y="32.5" width="118" height="53" transform="translate(85.5 32.5) rotate(90)"/><rect class="cls-2" x="57.5" y="32.5" width="118" height="53" transform="translate(175.5 -57.5) rotate(90)"/><rect class="cls-2" x="147.5" y="32.5" width="118" height="53" transform="translate(265.5 -147.5) rotate(90)"/><rect class="cls-2" x="237.5" y="32.5" width="118" height="53" transform="translate(355.5 -237.5) rotate(90)"/><rect class="cls-1" x="327.5" y="32.5" width="118" height="53" transform="translate(445.5 -327.5) rotate(90)"/><rect class="cls-2" x="417.5" y="32.5" width="118" height="53" transform="translate(535.5 -417.5) rotate(90)"/><path class="cls-2" d="M27.87,30.77a18.82,18.82,0,0,1-2.76.53c0,.66,0,1.29,0,1.89a12.25,12.25,0,0,1,3-.46c2.74,0,5,1.34,5,4.25,0,2.56-1.39,4.38-4.45,4.38a4.06,4.06,0,0,1-3.09-1.44,16.77,16.77,0,0,0,1.26-2,2.49,2.49,0,0,0,1.87,1,1.75,1.75,0,0,0,1.8-2c0-1.23-.9-2-2.48-2a11,11,0,0,0-2.91.46v3.17a3,3,0,0,1-3.32,3,3,3,0,0,1-3.29-3c0-1.41,1.12-3.16,4.14-4.5V31.5c-1.07.05-2.27.07-3.6.07L19,29.11c1.36,0,2.57,0,3.65-.05V26.3l3.15.07a.46.46,0,0,1-.44.41q-.08,1-.12,2a12.94,12.94,0,0,0,2.38-.6Zm-5.26,5.66c-.76.5-1.8,1.18-1.8,2.11a.79.79,0,0,0,.87.9.85.85,0,0,0,.95-1C22.63,38.06,22.63,37.25,22.61,36.43Zm9.54-4.2a12.94,12.94,0,0,0-3.81-2.17l1.26-2.13a12.21,12.21,0,0,1,4,2.1Z"/><path class="cls-2" d="M25.37,55.47c0,.17-.19.31-.49.34-.43,2.31-1,4-5.72,5a7.36,7.36,0,0,0-1.34-2.21c4-.56,4.28-1.58,4.49-3.4ZM29,57.6c0,.59.08.66.65.66H31c.53,0,.63-.29.72-2.23A7.1,7.1,0,0,0,34,57c-.26,2.82-.9,3.57-2.74,3.57h-2c-2.26,0-2.8-.75-2.8-3V54.83H20.27V45.07h11.4v9.76H29ZM22.65,47.08v.68h6.51v-.68Zm0,2.51v.7h6.51v-.7Zm0,2.55v.7h6.51v-.7Z"/><path class="cls-2" d="M22.55,70.62c.45.42,1.8,1.94,2.1,2.33l-1.39,1.92c-.17-.41-.43-.93-.71-1.46v6H20.18V74.22a13,13,0,0,1-1.41,2.72,13.63,13.63,0,0,0-1.1-2.39,15.85,15.85,0,0,0,2.12-4.15H18V68.14h2.22V66.61L18.52,67a6.89,6.89,0,0,0-.72-1.75,20.12,20.12,0,0,0,5.12-2l1.72,1.66v-.51h3.18V63.28l2.9.15c0,.19-.17.31-.51.36v.64h3.15V66H30.21v.39h2.6v1.46h-2.6v.39H34v1.7H24.25v-1.7h3.57v-.39h-2.5V66.37h2.5V66H24.64v-.85a1,1,0,0,1-.36,0,12.36,12.36,0,0,1-1.73.72v2.26h1.39V70.4H22.55Zm10.37,6.19H31.86c.9.51,1.85,1,2.43,1.44L32,79.43a27.12,27.12,0,0,0-2.61-1.84l1.1-.78H27.71l1.14.76a.38.38,0,0,1-.29.12,10.68,10.68,0,0,1-3.82,1.72,12.72,12.72,0,0,0-1.4-1.6,12.31,12.31,0,0,0,2.71-1h-.77v-6.5h7.64Zm-5.36-5.1v.42h3v-.42Zm0,1.63v.43h3v-.43Zm0,1.65v.42h3V75Z"/><path class="cls-2" d="M21.12,92.14a18.1,18.1,0,0,1-.44-3.93,31.54,31.54,0,0,1,.45-4.94l3.12.39a.49.49,0,0,1-.41.3,20.2,20.2,0,0,0-.63,4.31h0a14.91,14.91,0,0,1,1.24-2.15,13.2,13.2,0,0,0,1.12,1.65,16,16,0,0,0-1.85,3.11,1.34,1.34,0,0,0-.07.45,3.44,3.44,0,0,0,0,.42Zm10.09-9.31c0,.18-.15.32-.4.4.13,1.28.29,3.46.29,5.72,0,3.28-1,6.42-6.55,8.72a14.23,14.23,0,0,0-1.87-2.06c4.68-1.82,5.54-4.54,5.54-6.63a50.75,50.75,0,0,0-.42-6.29Z"/><path class="cls-1" d="M121.66,49.85a40.7,40.7,0,0,1-5,.28,21.35,21.35,0,0,1-3.66-.22,3.67,3.67,0,0,1-3.21-3.6,5.2,5.2,0,0,1,1.55-3.54l2.22,1a3.13,3.13,0,0,0-1.12,2.07c0,1.82,2,1.85,3.9,1.85a30.26,30.26,0,0,0,5.16-.47Zm-8.62-9a16.53,16.53,0,0,1,1.77-1.26h0a32.1,32.1,0,0,1-4,.13c0-.61,0-1.95-.07-2.52.32,0,.8,0,1.33,0,1.66,0,4,0,5.15-.1a29.87,29.87,0,0,0,3.45-.39l.17,2.67A11.83,11.83,0,0,0,115.32,42ZM121.15,44a10.62,10.62,0,0,0-2-2.16l1-.94a12.08,12.08,0,0,1,2,2.13Zm1.95-1.89a12.73,12.73,0,0,0-2-2.12l1-.94a11.6,11.6,0,0,1,2,2.09Z"/><path class="cls-1" d="M120.5,61.87h-1.27v1.58h3.4v2.26h-3.4V67c0,.68,0,.77.46.77h.93c.39,0,.48-.33.54-1.8a7.39,7.39,0,0,0,2.21,1c-.23,2.29-.86,3-2.49,3h-1.67c-2.07,0-2.57-.73-2.57-2.92V65.71h-1.83c-.41,1.76-1.58,3.43-4.64,4.43a9.19,9.19,0,0,0-1.57-2c2.06-.61,3.06-1.49,3.54-2.46h-3.06V63.45h3.48V61.87h-1.24v-.51a12.84,12.84,0,0,1-2.11,1.27,9.1,9.1,0,0,0-1.49-1.85,10.27,10.27,0,0,0,2.48-1.52c-.41-.39-1-.88-1.46-1.25l1.55-1.28c.4.29,1,.68,1.37,1a8.34,8.34,0,0,0,.78-1.12h-3V54.54h4.4l.39-.09,1.72.77a.68.68,0,0,1-.29.29,11.64,11.64,0,0,1-2.33,4h5.29a16.24,16.24,0,0,1-2.77-5l2.22-.63a15.32,15.32,0,0,0,.72,1.6,13.7,13.7,0,0,0,1.2-1.28l2,1.53a.38.38,0,0,1-.34.12.71.71,0,0,1-.2,0,17.4,17.4,0,0,1-1.61,1.29c.17.21.34.43.52.62a13.81,13.81,0,0,0,1.63-1.6l2,1.49a.41.41,0,0,1-.34.12h-.19a19.54,19.54,0,0,1-1.68,1.3,10.21,10.21,0,0,0,2.33,1.31,9.86,9.86,0,0,0-1.72,2.14,11.57,11.57,0,0,1-1.92-1.17Zm-3.86,1.58V61.87H115v1.58Z"/><path class="cls-1" d="M109,77.25a13.46,13.46,0,0,1,3.31,1.65L111,81a13.23,13.23,0,0,0-3.21-1.84Zm-.5,9.67a46,46,0,0,0,3.23-5.3l1.82,1.65c-.88,1.75-1.85,3.47-2.7,4.81a.59.59,0,0,1,.12.34.5.5,0,0,1-.12.32Zm1.79-14.24a12.61,12.61,0,0,1,3.25,1.71l-1.45,2A13.13,13.13,0,0,0,109,74.5Zm9.54,13.19H124v2.34H113V85.87h4.23V83.35h-3V81h3V78.7h-3.6V76.35h4.43a22,22,0,0,0-2.95-1.84l1.63-1.92a18.59,18.59,0,0,1,4.1,2.48l-1.06,1.28h3.81V78.7h-3.77V81H123v2.34h-3.12Z"/><path class="cls-1" d="M201.3,45.48h6.19c0,3.35.5,9.48,6.56,13a12.47,12.47,0,0,0-2,2.17,14.18,14.18,0,0,1-6-8,14.47,14.47,0,0,1-6.1,8,14.4,14.4,0,0,0-2.08-1.94c3.32-1.66,5.34-5.06,6.21-9.36l1.22.29c-.1-.61-.17-1.19-.22-1.74H201.3Z"/><path class="cls-1" d="M214,65v1.83h-9.88V65.25c-.46.22-1,.42-1.54.63v2.26h1.68V70.4h-1.68v.22c.35.32,1.22,1.28,1.75,1.89v-.89h9.21v5.77c0,1.58-.49,2-2.7,2a7.45,7.45,0,0,0-.5-1.8h-1.87v.78h-1.56V73.9h4v3.66a1.2,1.2,0,0,0,.33,0c.06,0,.07-.09.07-.17V73.51h-4.79v5.92H204.3v-6l-1,1.43c-.17-.41-.43-.93-.71-1.46v6h-2.37V74.22a13,13,0,0,1-1.41,2.72,13.63,13.63,0,0,0-1.1-2.39,15.85,15.85,0,0,0,2.12-4.15H198V68.14h2.22V66.61l-1.66.39a6.89,6.89,0,0,0-.72-1.75,20.12,20.12,0,0,0,5.12-2l1.8,1.75h3V63.28l2.89.15c0,.19-.15.31-.49.36V65Zm-1.53,6.17h-6.92V67.29h6.92Zm-5-2.3v.68h2.92V68.9Zm1.82,7.31v-.86h-.84v.86Z"/><path class="cls-1" d="M295.93,24.24a.46.46,0,0,1-.32.11.62.62,0,0,1-.19,0c-.31.37-.82.92-1.28,1.38.46.4.89.79,1.06,1l-1.45,1.89c-.3-.44-.73-1-1.19-1.55v5.67h-2.43V27.56a13.52,13.52,0,0,1-1.27,1.17,9.51,9.51,0,0,0-1.26-2.29,13.77,13.77,0,0,0,4-4.75h-3.55V19.48h2.05V16.54l2.94.16c0,.18-.15.3-.51.37v2.41a2,2,0,0,0,.73-.1l1.64,1a.62.62,0,0,1-.34.27,22.13,22.13,0,0,1-2,3.76l.34.29a18,18,0,0,0,1.23-1.92Zm6.34-6.57,1.39.08c0,.19,0,.56,0,.87-.15,8.75-.31,11.79-.95,12.75-.78,1.24-1.65,1.36-4.15,1.31a6.66,6.66,0,0,0-.78-2.56c.83.07,1.56.07,2,.07a.69.69,0,0,0,.65-.35c.45-.55.61-3.25.71-9.83h-1.94c-.15,4.66-.51,9.62-4.37,12.68A7.31,7.31,0,0,0,293,30.74c3.39-2.45,3.61-6.46,3.69-10.73h-2.22V17.68h7.85Z"/><path class="cls-1" d="M292.34,41.55c.48.63,1.79,2.69,2.08,3.16l-1.33,1.82c-.19-.49-.46-1.12-.75-1.75v6.6h-2.28V45.85a12.11,12.11,0,0,1-1.32,2.65,12.71,12.71,0,0,0-1.09-2.26,16.08,16.08,0,0,0,2.26-5.3h-1.82V38.66h2V35.23l2.77.15c0,.17-.15.29-.49.34v2.94h1.74v2.28h-1.74Zm9.32-1.77a14.36,14.36,0,0,1,2.44,3.4L302,44.39a2.12,2.12,0,0,0-.11-.29A13,13,0,0,1,300.45,47a10.33,10.33,0,0,0,3.71,2.2,10,10,0,0,0-1.72,2.21A10.94,10.94,0,0,1,298.83,49a11.07,11.07,0,0,1-4.16,2.47,11.78,11.78,0,0,0-1.24-2,9.18,9.18,0,0,0,4-2.35,16.11,16.11,0,0,1-1.53-3l-.48.43a10.69,10.69,0,0,0-1.68-1.6,9.34,9.34,0,0,0,2.43-3.15H294.3V37.52h3.48V35.23l2.94.15c0,.19-.15.31-.51.37v1.77h3.66v2.26Zm-3,1a.44.44,0,0,1-.44.19,13.8,13.8,0,0,1-1.56,2.31l1.15-.31a11,11,0,0,0,1.07,2.14,9.21,9.21,0,0,0,.85-2.26l1.72.38a18.7,18.7,0,0,0-1.79-2.47l1.72-1h-5.08Z"/><path class="cls-1" d="M297.87,58.82a18.82,18.82,0,0,1-2.76.53c0,.66,0,1.29,0,1.89a12.25,12.25,0,0,1,3-.46c2.74,0,5,1.34,5,4.25,0,2.56-1.39,4.38-4.45,4.38A4.06,4.06,0,0,1,295.54,68a16.77,16.77,0,0,0,1.26-2,2.51,2.51,0,0,0,1.87,1,1.76,1.76,0,0,0,1.8-2c0-1.23-.9-2-2.48-2a11,11,0,0,0-2.91.46v3.17a3,3,0,0,1-3.32,3,3,3,0,0,1-3.29-3c0-1.41,1.12-3.16,4.14-4.5V59.55c-1.07.05-2.27.07-3.6.07L289,57.16c1.36,0,2.57,0,3.65,0V54.35l3.15.07a.46.46,0,0,1-.44.41q-.07,1-.12,2a12.94,12.94,0,0,0,2.38-.6Zm-5.26,5.66c-.76.5-1.8,1.18-1.8,2.11a.79.79,0,0,0,.87.9.85.85,0,0,0,.95-1C292.63,66.12,292.63,65.3,292.61,64.48Zm9.54-4.19a12.74,12.74,0,0,0-3.81-2.18L299.6,56a12.39,12.39,0,0,1,4,2.09Z"/><path class="cls-1" d="M289.11,77.23a11.22,11.22,0,0,1,3,1.48l-1.43,2.06a11.25,11.25,0,0,0-2.87-1.67Zm-1.07,10a47.74,47.74,0,0,0,2.5-5.56l2,1.41c-.66,1.86-1.41,3.64-2.05,5a.66.66,0,0,1,.17.39.58.58,0,0,1-.09.29Zm2-14.57a12.16,12.16,0,0,1,3,1.55q-.7,1-1.44,2a11.78,11.78,0,0,0-2.91-1.73Zm12.12,9.2,1.55.61a.67.67,0,0,1-.22.27,8.44,8.44,0,0,1-2.2,3.25,13.62,13.62,0,0,0,3,.75,8.43,8.43,0,0,0-1.48,2.06,11.63,11.63,0,0,1-3.57-1.35,14.52,14.52,0,0,1-3.65,1.36,8.28,8.28,0,0,0-1.09-1.87,10.34,10.34,0,0,1-.85,1.84,8.91,8.91,0,0,0-2.07-1.18c1.54-2.51,1.66-6.22,1.66-8.8V74.17h4.18V72.61l3.05.15c0,.21-.17.33-.53.38v1H304v2h-8.47v1.06h.9v-.94l2.65.15c0,.17-.15.29-.49.34v.45H300v-.94l2.75.15c0,.17-.15.29-.49.34v.45h1.56v1.9h-1.56v2.4h-5.87v-2.4h-.9a26.28,26.28,0,0,1-1,7.6,13.34,13.34,0,0,0,2.81-.83,9.46,9.46,0,0,1-1.28-1.7l1.43-.43h-2v-1.9h6.26Zm-3.93,2a4.65,4.65,0,0,0,1,1,6.34,6.34,0,0,0,1-1ZM300,79.17h-1.45v.56H300Z"/><path class="cls-1" d="M294.77,92.19c0,.21-.18.36-.51.41-.15,2.4-.32,6.12-.32,8.6,0,2,1,2.93,2.69,2.93,1.49,0,3.26-.79,5.2-2.59a19.45,19.45,0,0,0,1.46,2.35,9.5,9.5,0,0,1-6.68,2.92c-4.08,0-5.49-2.19-5.49-5.59,0-2.35.1-7.12.22-9.15Z"/><path class="cls-2" d="M382.34,50.9c.48.63,1.79,2.69,2.08,3.16l-1.33,1.82c-.19-.49-.46-1.12-.75-1.75v6.6h-2.28V55.2a11.89,11.89,0,0,1-1.32,2.65,13.05,13.05,0,0,0-1.09-2.26,16,16,0,0,0,2.26-5.3h-1.82V48h2V44.58l2.77.15c0,.17-.15.29-.49.34V48h1.74v2.28h-1.74Zm9.32-1.77a14.36,14.36,0,0,1,2.44,3.4L392,53.74a2.12,2.12,0,0,0-.11-.29,13.32,13.32,0,0,1-1.45,2.93,10.31,10.31,0,0,0,3.71,2.19,10,10,0,0,0-1.72,2.21,10.94,10.94,0,0,1-3.61-2.47,11.07,11.07,0,0,1-4.16,2.47,11.38,11.38,0,0,0-1.24-2,9.17,9.17,0,0,0,4-2.34,16.52,16.52,0,0,1-1.53-3l-.48.43a11.17,11.17,0,0,0-1.68-1.6,9.34,9.34,0,0,0,2.43-3.15H384.3V46.87h3.48V44.58l2.94.15c0,.19-.15.31-.51.37v1.77h3.66v2.26Zm-3,1a.44.44,0,0,1-.44.19,13.8,13.8,0,0,1-1.56,2.31l1.15-.31a11,11,0,0,0,1.07,2.14,9.21,9.21,0,0,0,.85-2.26l1.72.38a18.7,18.7,0,0,0-1.79-2.47l1.72-1h-5.08Z"/><path class="cls-2" d="M391.11,64.25l2.28,1.36a.83.83,0,0,1-.53.32,29.5,29.5,0,0,1-5.5,5.22v5.5c0,2.23-.9,2.78-5.07,2.78a10.32,10.32,0,0,0-1-2.54c1.09.07,2.53.07,2.92.07s.51-.08.51-.37V69.11l1.26,0a19.3,19.3,0,0,0,2.46-2.33h-9.31V64.38h11.52Z"/><path class="cls-1" d="M469,22.31l1.2.44a18.65,18.65,0,0,0,3.47-2l2.3,2.1a.79.79,0,0,1-.55.12,33.75,33.75,0,0,1-3.92,1.7v2h3.75v2.4h-3.75V32h3.84v2.4h-3.84v1.27H469Zm14.34.05v9.76c0,1.85-.54,2.8-3.51,2.8a9.62,9.62,0,0,0-.92-2.62,11.15,11.15,0,0,0,1.14,0c.71,0,.8,0,.8-.31V24.8H478.5V36.93H476V22.36Z"/><path class="cls-1" d="M477.19,46.92v5c0,1.08-.16,2-2,2a5.66,5.66,0,0,0-.34-1.38v3h-2V48.93h-.39v4.91h-1.82V50.07h0a19.14,19.14,0,0,1-.9,4.81,8.71,8.71,0,0,0-2-1.07c.83-2.32.88-5.73.88-8.13V40.11h8.22v5.33h-6c0,.7,0,1,0,1.48h2.06V45.51l2.48.14c0,.17-.13.27-.44.32v1Zm-2.71-4.64h-3.72v1h3.72Zm.36,6.65v3.12h.34c.07,0,.07-.07.07-.16v-3Zm5.58-7.21c0,.17-.16.29-.48.34v9.23h-2.29V41.57Zm.69-1.89L484,40c0,.19-.15.33-.49.38V52.85c0,2.16-.67,2.77-4,2.77a10.92,10.92,0,0,0-.74-2.46c.82,0,1.67,0,2,0s.37-.09.37-.36Z"/><path class="cls-1" d="M478.27,62a2.38,2.38,0,1,1-2.38-2.38A2.39,2.39,0,0,1,478.27,62Z"/><path class="cls-1" d="M473.94,71.5h.54l1.31.06c0,.19,0,.53,0,.8-.12,7.28-.22,10-.72,10.75-.61,1-1.2,1.15-3.12,1.1a6.58,6.58,0,0,0-.68-2.46,10.09,10.09,0,0,0,1.14.05c.22,0,.35-.09.51-.34.25-.43.37-2.3.45-7.53h-1.13c-.17,4.33-.74,8-2.76,10.62a6.92,6.92,0,0,0-1.82-1.8c1.67-2.12,2.09-5.08,2.2-8.82h-1.74V71.5h1.77V68.38l3,.13c0,.22-.19.36-.53.41,0,.88,0,1.73,0,2.58Zm2.84-1.36h6.27V83.91h-2.46v-1h-1.45v1.14h-2.36Zm2.36,10.37h1.45v-8h-1.45Z"/><path class="cls-1" d="M477.22,99.62h6.34v2.5H468.25v-2.5h6.27V91.26h-5.46v-2.5h13.7v2.5h-5.54Z"/><rect class="cls-2" x="507.5" y="32.5" width="118" height="53" transform="translate(625.5 -507.5) rotate(90)"/><path class="cls-1" d="M573.42,47.6V58.29c0,2-.71,2.42-3.24,2.42a8.51,8.51,0,0,0-.61-2.19h.81c.75,0,.83,0,.83-.27V56l-.74.75a28.56,28.56,0,0,0-1.11-2.64,8.2,8.2,0,0,1-1.73,3,4.43,4.43,0,0,0-.61-.79v4.41h-2.16V58c-.56.18-1.11.39-1.67.59a19.7,19.7,0,0,0-.73-2.65v4.78H560.3V55.46h0a14.54,14.54,0,0,1-.9,4,11.37,11.37,0,0,0-1.72-.83,14.45,14.45,0,0,0,.72-4l1.95.45V54c-.66,0-1.27.09-1.78.11a.39.39,0,0,1-.34.27L557.74,52H559c.22-.28.44-.58.66-.89a15.73,15.73,0,0,0-2-2.24l1.13-1.72.29.27a20.49,20.49,0,0,0,1.16-2.84l2.41,1c-.06.14-.25.21-.51.19a25.67,25.67,0,0,1-1.66,3.08,4.49,4.49,0,0,1,.35.44,25.34,25.34,0,0,0,1.45-2.62l2.29,1a.59.59,0,0,1-.52.2c-.51.85-1.21,1.87-1.94,2.86l1.56-.7a19.19,19.19,0,0,1,1.11,2.28V47.6H568c0-1,0-2,0-3l2.77.15c0,.19-.17.31-.48.36,0,.87,0,1.72,0,2.53ZM562.51,52c-.15-.36-.3-.7-.47-1-.28.35-.55.71-.82,1Zm0,3.21,1.6-.53c.27.71.58,1.57.8,2.3v-3l-1.48.68c0-.22-.1-.47-.17-.75l-.75.07ZM567,49.86v4.29a11.88,11.88,0,0,0,.91-4.29Zm4.19,0h-1.07l-.1,1c.41.72.82,1.48,1.17,2.21Z"/><path class="cls-1" d="M558.52,79.41V71.86h6.75v7.48H562.8v-.46h-1.95v.53Zm4.28-5.19h-1.95v2.3h1.95Zm7.72-10.38v6.87h-9.16V63.84ZM568,68.36V66.2h-4.25v2.16Zm-1.52,3.5h6.92v7.41h-2.48v-.4h-2.08v.47h-2.36Zm2.36,4.64h2.08V74.22h-2.08Z"/><polygon class="cls-3" points="76.79 60.1 67 46.2 67 74 76.79 60.1"/><polygon class="cls-3" points="166.79 60.1 157 46.2 157 74 166.79 60.1"/><polygon class="cls-3" points="256.79 60.1 247 46.2 247 74 256.79 60.1"/><polygon class="cls-3" points="346.79 60.1 337 46.2 337 74 346.79 60.1"/><polygon class="cls-3" points="436.79 60.1 427 46.2 427 74 436.79 60.1"/><polygon class="cls-3" points="526.79 60.1 517 46.2 517 74 526.79 60.1"/></g></g></svg>