<svg xmlns="http://www.w3.org/2000/svg" xmlns:xlink="http://www.w3.org/1999/xlink" viewBox="0 0 222.09 191.4"><defs><style>.cls-1,.cls-2{fill:none;}.cls-2{stroke:#1238a6;stroke-miterlimit:10;stroke-width:3.44px;}.cls-3{fill:#0d38a6;}.cls-4{clip-path:url(#clip-path);}.cls-5{fill:#fff;}.cls-6{fill:#ffe33f;}</style><clipPath id="clip-path" transform="translate(-22.27 -11.98)"><rect class="cls-1" width="157" height="176"/></clipPath></defs><g id="Layer_2" data-name="Layer 2"><g id="レイヤー_3" data-name="レイヤー 3"><circle class="cls-2" cx="147.34" cy="87.84" r="73.03"/><path class="cls-3" d="M154,71.58v2.23h-2.65c-.07.16-.22.23-.51.24a11.4,11.4,0,0,1-.55,1h3v8.54c0,2.15-1,2.54-4,2.54a9.43,9.43,0,0,0-.43-1.49h-3.84v.93H142.9V80.3a5.47,5.47,0,0,1-.58.15,5.36,5.36,0,0,0-.67-1.17V86.2h-2.34V75.08h2.87a11,11,0,0,0-.46-1.22l.29,0h-3.5V71.58h6.32V70l3.06.17c0,.19-.15.31-.51.36v1Zm-12.33,5.61v1.53c1.36-.29,1.74-.75,1.84-1.53Zm8.15,3v3.73h.74c.28,0,.38-.09.38-.33v-4a3.08,3.08,0,0,1-.72.07h-1.27c-2,0-2.07-.73-2.07-2.45h-1.13l-.11,0a3,3,0,0,1-2.28,3Zm-5.49-6.35a10.9,10.9,0,0,1,.49,1.27h2.75c.17-.41.33-.85.46-1.27Zm3.28,9.06V82h-2.52v.92Zm2.33-5c.23,0,.3,0,.35-.21a3.89,3.89,0,0,0,.65.33v-.82h-2c0,.63,0,.7.33.7Z" transform="translate(-22.27 -11.98)"/><path class="cls-3" d="M155.2,86.16V78.62H162V86.1h-2.47v-.46h-1.95v.52ZM159.48,81h-1.95v2.3h1.95Zm7.72-10.39v6.87H158V70.59Zm-2.53,4.53V73h-4.25v2.16Zm-1.52,3.5h6.92V86h-2.48v-.41h-2.07v.48h-2.37Zm2.37,4.64h2.07V81h-2.07Z" transform="translate(-22.27 -11.98)"/><path class="cls-3" d="M187.29,78.21h-2.5a9.16,9.16,0,0,0,2.84,1.89,9.14,9.14,0,0,0-1.63,2,9.48,9.48,0,0,1-1.68-1c-.33,4.49-.65,5.14-3.69,5.14-.26,0-.53,0-.8,0a5.65,5.65,0,0,0-.71-2.31c.64.06,1.29.08,1.61.08a.74.74,0,0,0,.6-.2,4.35,4.35,0,0,0,.44-2.08h-2.18c-.47,2-1.43,3.61-5.3,4.56a6.89,6.89,0,0,0-1.35-2.11c2.71-.52,3.66-1.32,4.05-2.45h-2.28V80.9a13.46,13.46,0,0,1-1.88,1.15,15.47,15.47,0,0,0-1.53-2,9.87,9.87,0,0,0,2.77-1.85h-2.38V76h4.13c.2-.34.39-.68.56-1h-3.47V72.79h1.53a12.58,12.58,0,0,0-.88-1.91l2-.73a10.92,10.92,0,0,1,1.17,2.31l-.88.33h1.34a19.74,19.74,0,0,0,.66-2.81l3,.6c0,.17-.22.29-.51.3-.14.63-.31,1.28-.48,1.91h2.38l-.61-.24a12.4,12.4,0,0,0,1.17-2.5l2.66.94a.56.56,0,0,1-.51.2c-.23.48-.57,1.07-.89,1.6h2.18V75h-3.67a9,9,0,0,0,.52,1h4.2Zm-4.66,1.26a11.7,11.7,0,0,1-.93-1.26h-4.37a12.39,12.39,0,0,1-1,1.28h6.21ZM180.54,76c-.15-.34-.29-.68-.42-1h-1l-.46,1Z" transform="translate(-22.27 -11.98)"/><path class="cls-3" d="M203.75,78.48a.37.37,0,0,1-.14,0,.51.51,0,0,1-.25-.09c-1.26.36-2.86.82-4,1.23,0,.32,0,.66,0,1s0,.74,0,1.16l-2.59.2c0-.52.07-1,.09-1.39-1.05.54-1.73,1.28-1.73,1.73,0,.65.81.87,2.53.87a39.83,39.83,0,0,0,4.2-.2l0,2.36c-.83.1-2.24.12-4.25.12-3.28,0-5-.7-5-3,0-1.29,1.66-2.89,4-4.08,0-.22-.17-.65-.59-.65-1.07,0-2.23.53-3.54,2-.39.44-1,1.12-1.73,1.85l-1.82-1.76a24.16,24.16,0,0,0,1.88-1.72,9.61,9.61,0,0,0,1.94-3.43h-3V72.46c.9.07,2.14.09,2.91.09l.78,0c.13-.66.22-1.32.32-2.16l3,.28c0,.17-.2.28-.42.34-.09.47-.2,1-.32,1.42a17.5,17.5,0,0,0,4.84-.9l.41,2.42a26.49,26.49,0,0,1-5.93.76,9.38,9.38,0,0,1-.65,1.58h0a3.78,3.78,0,0,1,2.14-.71,2.19,2.19,0,0,1,2.09,1.89c1.26-.53,2.75-1,3.93-1.52Z" transform="translate(-22.27 -11.98)"/><path class="cls-3" d="M125.2,110.21a28.25,28.25,0,0,1-.66-6.73,42,42,0,0,1,.83-7.58l3.15.58a.58.58,0,0,1-.48.36,26.83,26.83,0,0,0-1.09,8.55,6.45,6.45,0,0,0,0,.68c.19-.48.65-1.77.89-2.33l1.27,1.73a31.39,31.39,0,0,0-1.33,3,3,3,0,0,0-.18,1,3.73,3.73,0,0,0,0,.64Zm4.63-10.72h.71c.63,0,2,0,2.77,0-.07-1.25-.12-2.36-.13-3.62l3.17.1a.45.45,0,0,1-.42.38v2.94a22.19,22.19,0,0,0,2.77-.55l.19,2.52a18,18,0,0,1-2.89.41c.05,1.36.12,2.7.2,3.82a12.55,12.55,0,0,1,3,1.86l-1.33,2.44a8.61,8.61,0,0,0-1.61-1.46c-.41,2.08-2.28,2.26-3.42,2.26-2.14,0-3.38-1.24-3.38-2.85,0-1.82,1.61-2.89,3.41-2.89.24,0,.48,0,.73,0-.06-.82-.11-2-.18-3l-1.33,0h-2.26Zm4,7.54a3,3,0,0,0-.94-.17c-.73,0-1.31.24-1.31.8s.56.75,1.24.75a1,1,0,0,0,1-1C133.87,107.34,133.87,107.19,133.86,107Z" transform="translate(-22.27 -11.98)"/><path class="cls-3" d="M145.67,96c0,.21-.18.36-.51.41-.15,2.4-.32,6.12-.32,8.6,0,2,1,2.92,2.69,2.92,1.49,0,3.26-.78,5.2-2.58a19,19,0,0,0,1.46,2.35,9.5,9.5,0,0,1-6.68,2.92c-4.08,0-5.49-2.19-5.49-5.59,0-2.35.1-7.12.22-9.15Zm3.86,1.68a15.4,15.4,0,0,1,2,2.25l-1.16,1a15.78,15.78,0,0,0-1.95-2.26ZM151.76,96a15.69,15.69,0,0,1,2,2.17l-1.18,1a16.4,16.4,0,0,0-1.93-2.22Z" transform="translate(-22.27 -11.98)"/><path class="cls-3" d="M168.19,96.21a.45.45,0,0,1-.41.27c-.21,1-.5,2.12-.75,3a5.44,5.44,0,0,1,3.81,5.46c0,3.06-2,5-6.14,5.69a20.11,20.11,0,0,0-1.22-2.21c2.92-.47,4.69-1.36,4.69-3.41a3.38,3.38,0,0,0-1.91-3.15,18.37,18.37,0,0,1-2.43,4.62c.16.17.34.33.51.48l-1.75,1.8a5.78,5.78,0,0,1-.51-.49,5.43,5.43,0,0,1-3.33,1.24c-1.89,0-3.06-1.5-3.06-3.52a4,4,0,0,1,0-.49,6.46,6.46,0,0,1,2.84-4.9,36.73,36.73,0,0,1-.78-3.92l3-.11a.48.48,0,0,1-.36.41c.09.85.22,1.7.38,2.55a8.19,8.19,0,0,1,3.18-.58,2.89,2.89,0,0,1,.44,0,32.71,32.71,0,0,0,.56-3.53Zm-7.5,10.2a18,18,0,0,1-1.45-3.34,4.23,4.23,0,0,0-1.19,2.76c0,.78.4,1.32,1,1.32A2.74,2.74,0,0,0,160.69,106.41Zm1.65-2a16.38,16.38,0,0,0,1.39-3.06,2,2,0,0,0-.35,0,4.43,4.43,0,0,0-2.1.5A13.89,13.89,0,0,0,162.34,104.42Z" transform="translate(-22.27 -11.98)"/><path class="cls-3" d="M171.33,97c.53,0,1.4,0,1.86,0,2.17-.13,8.9-.54,12.1-.71l.05,2.77a5,5,0,0,0-3.77,1.12c-1.55,1.1-3.78,3.26-3.78,5.08s1.74,2.71,5.22,3l-1.27,2.58c-4.85-.52-6.8-2.68-6.8-5.57,0-1.92,1.7-4.51,4-6.21-2,.12-5.65.48-6.89.63,0,.14-.27.26-.44.29Z" transform="translate(-22.27 -11.98)"/><path class="cls-3" d="M202.31,100.12h-4.58v1.41h4.15v2.24h-4.15v1.53h4.37v2.3h-4.37v3.58h-2.55V100.12h-.52a19.6,19.6,0,0,1-2.11,3.38,15.54,15.54,0,0,0-1.74-1.68v9.36h-2.44v-8.26c-.45.61-.9,1.16-1.36,1.67a21.79,21.79,0,0,0-1.21-2.54,20.23,20.23,0,0,0,4-7l2.77,1c-.07.15-.25.23-.53.22-.42,1-.91,2.07-1.44,3.09l.76.21c0,.17-.2.3-.51.34v1.69a18.86,18.86,0,0,0,3-6.42l2.91.87a.47.47,0,0,1-.51.22c-.17.49-.36,1-.55,1.51h6.62Z" transform="translate(-22.27 -11.98)"/><path class="cls-3" d="M210.48,102a8.14,8.14,0,0,1,2.78-.46,4.07,4.07,0,0,1,4.37,4.31c0,3-2.63,4.83-6.49,4.83-2.18,0-3.74-1-3.74-2.87a2.93,2.93,0,0,1,3.09-2.6,3.36,3.36,0,0,1,3.44,2.48,2,2,0,0,0,1-1.8c0-1.29-1.12-2.11-2.65-2.11a8.1,8.1,0,0,0-5.4,2c-.36.34-1.06,1-1.48,1.46l-1.84-1.82c1.06-1,5.07-4.79,7.33-6.88-.75.1-3.49.27-4.56.36,0,.13-.29.23-.44.27l-.2-2.86c2.11,0,7.09-.18,8.16-.37l.27-.14,1.6,2.06a1.09,1.09,0,0,1-.55.19c-.73.49-3.21,2.65-4.65,3.89Zm.22,6.46c.18,0,.68,0,.8-.06a1.3,1.3,0,0,0-1.23-1.15c-.41,0-.78.22-.78.56S209.61,108.45,210.7,108.45Z" transform="translate(-22.27 -11.98)"/><path class="cls-3" d="M160.13,134.29a7.44,7.44,0,0,1-2.77.45c-4.16,0-6.13-2.91-6.13-6.55,0-4.71,3.05-6.93,6.44-6.93a6.18,6.18,0,0,1,2.62.47l-.55,2.43a4.54,4.54,0,0,0-1.9-.39c-1.89,0-3.47,1.3-3.47,4.25,0,2.74,1.36,4.17,3.48,4.17a6.15,6.15,0,0,0,1.91-.31Z" transform="translate(-22.27 -11.98)"/><path class="cls-3" d="M170.27,120.51a.55.55,0,0,1-.48.46,17.83,17.83,0,0,0,.26,2.24,28,28,0,0,0,5-.86l.46,2.61a38.43,38.43,0,0,1-4.88.67,5.15,5.15,0,0,0,2.81,3.29l-1.87,2.18a6.62,6.62,0,0,0-1.06-.77,6.34,6.34,0,0,0-2.56-.42l-.73-2.06a10.3,10.3,0,0,1,1.66.12,9.55,9.55,0,0,1-.95-2.16c-.63,0-1.19,0-2,0-.95,0-3.13,0-4.3,0l0-2.44c.94,0,2.11.06,4.32.06.42,0,.92,0,1.36-.05-.19-.95-.31-1.95-.44-3Zm-1.17,15c-4.39,0-6.28-1.82-6.28-3.83a4.17,4.17,0,0,1,1.43-2.94l2,1.45a1.65,1.65,0,0,0-.75,1.37c0,1.07,1.44,1.5,3.7,1.5,1.31,0,2.37-.05,3.27-.1l-.24,2.55Z" transform="translate(-22.27 -11.98)"/><path class="cls-3" d="M175.61,134.65c.94-2.84,3.12-9.18,3.64-10.64.36-1,.94-2.8,1.07-3.42l3.42.8a.73.73,0,0,1-.75.48c-.59,1.24-1.88,4.57-2.5,6.2a4.43,4.43,0,0,1,2.82-1,2.23,2.23,0,0,1,2.25,2.53c0,.36-.07,2.2-.07,2.21,0,.8.24,1.09.77,1.09,1.17,0,1.93-1.39,2.66-4.06a19.44,19.44,0,0,0,2.42,1.46c-1.09,3.3-2.6,5.29-5.17,5.29-2.19,0-3.45-1.13-3.45-2.94,0-.31.07-1.84.07-2.18,0-.63-.12-.9-.44-.9-1.41,0-2.89,2.12-3.42,3.74-.22.69-.46,1.44-.68,2.21Z" transform="translate(-22.27 -11.98)"/><g class="cls-4"><path class="cls-5" d="M88.09,41.42c-4-1.79-8.27-4.61-12.81-3.85-3.28.54-5.94,2.47-9,3.45a24.15,24.15,0,0,0-7.9,3.84,17.69,17.69,0,0,0-5.71,6.8,10,10,0,0,0,.1,8.67c-3-1.49-6.48,1.9-6.44,5.21s2.26,6.15,4.38,8.71l5.39,6.49a7.54,7.54,0,0,0,2,14.85A35.36,35.36,0,0,0,72,116.39c-9.3,4.27-19,8.83-25.25,16.93-4.39,5.67-6.65,12.6-7.7,19.63-1.19,8-3.56,16.36-3.75,24.67-.15,6.25,1.16,20.27,8.92,21.81,2.53.5,5.78-.3,8.35-.42,4.21-.2,8.4-.29,12.61-.16,16.74.51,33.44,3.38,50.19,1.71,7.45-.74,16.58-1.29,18.66-9.66,1.41-5.7,1.12-12.81,0-18.47-1.84-9.6-7.61-17.24-9.21-26.9-1.64-9.89-9.75-18.2-18.56-22.46A21.61,21.61,0,0,1,93.81,117a35,35,0,0,0,13.07-22.43A7.39,7.39,0,1,0,112,80.67c1.31-3.71,3.31-6.43,3.25-10.54,0-2.65,0-5.65,1.87-7.49,1.12-1.08,2.94-1.91,2.87-3.47s-1.72-2.15-3-2.7a19,19,0,0,1-7-5c-1.64-1.85-2.37-4.09-4.09-5.84a17.52,17.52,0,0,0-13.31-5.43C92,40.24,88.25,41.49,88.09,41.42Z" transform="translate(-22.27 -11.98)"/><path class="cls-6" d="M91.07,44.75l-.15,0c-2,.4-3.23,1.86-5,2.46-4.7,1.53-7.51-4.38-13-2-3.35,1.43-5.2,3.7-8.89,4.32-2.84.48-6.27.45-8,3.18-1.22,1.91.45,2.83.24,4.35s-1.81,3.09-2.72,4.33c-1.68,2.3-3.91,4.43-3.3,7.47s3.51,6.18,5.08,8.71c.37.59.9,7.19,1.58,7.1a1.4,1.4,0,0,0,1-1.17c.12-.54.09-1.1.23-1.64,1.1-4.07,7.36-1.68,8.83-5.93,1.22-3.53,1.79-6.82,7-5.68,1.59.35,3.27,1.22,4.74.53,2.27-1.06,4.59-8,7.36-3.1,1.07,1.9-.26,4.48,1.23,6.38s4.14,1.46,5.81,3c1.32,1.18,1.65,3.3,3.18,4.19,1.83,1.07,4-.3,5.79.59,1.22.6,1.51,2.11,2.6,2.82,3.48,2.29,6.59-6.72,7.88-9.9l3.84-9.47c.62-1.51,1.24-3.19.71-4.74a7,7,0,0,0-2.69-3,92.65,92.65,0,0,1-10.23-9.07C101,45.3,95.36,44,91.07,44.75Z" transform="translate(-22.27 -11.98)"/><path class="cls-3" d="M48.5,38.55a2.39,2.39,0,0,1-2.27-.9,10.38,10.38,0,0,1,1.64-14.36c.39-.34.8-.65,1.22-1A9.11,9.11,0,0,0,50.64,21a1.5,1.5,0,0,0,.27-1.37,3.6,3.6,0,0,0-2-2.26,8,8,0,0,0-7.47.66,4.71,4.71,0,0,0-2,5.06,2.37,2.37,0,1,1-4.6,1.18,9.48,9.48,0,0,1,3.79-10.1A12.8,12.8,0,0,1,51,13.07a8.32,8.32,0,0,1,4.59,5.47,6.25,6.25,0,0,1-1.17,5.39,12.35,12.35,0,0,1-2.43,2.2c-.33.25-.67.5-1,.76a5.62,5.62,0,0,0-1,7.86,2.37,2.37,0,0,1-.44,3.33A2.41,2.41,0,0,1,48.5,38.55Z" transform="translate(-22.27 -11.98)"/><path class="cls-3" d="M49.42,43.84a1.46,1.46,0,1,0-.22-.28Z" transform="translate(-22.27 -11.98)"/><path class="cls-3" d="M50.87,45.59a2.83,2.83,0,0,1-2.44-.73l-.12-.13-.22-.28L48,44.3a2.88,2.88,0,0,1-.08-2.75,2.85,2.85,0,1,1,3.19,4Z" transform="translate(-22.27 -11.98)"/><path class="cls-3" d="M46,202a6.72,6.72,0,0,1-4.44-1.74c-5.89-5-7.61-19.59-7.74-23.23-.32-8.21,1.17-17.08,4.66-27.91.43-1.32.81-2.75,1.21-4.27C41.26,139,43,132.36,48.66,129a44.57,44.57,0,0,0,5.74-4.31c.92-.76,1.86-1.55,2.81-2.29A1.43,1.43,0,1,1,59,124.7c-.9.7-1.78,1.44-2.72,2.22a45.52,45.52,0,0,1-6.12,4.57C45.47,134.22,44,140,42.47,145.6c-.4,1.55-.79,3-1.24,4.42-3.39,10.5-4.83,19.06-4.54,26.92.21,5.57,2.41,17.49,6.74,21.17a3.86,3.86,0,0,0,3.09,1,1.43,1.43,0,1,1,.36,2.83A8.24,8.24,0,0,1,46,202Z" transform="translate(-22.27 -11.98)"/><path class="cls-3" d="M125.83,143.91a1.42,1.42,0,0,1-1.39-1.12,51.25,51.25,0,0,0-1.76-6.2c-.86-2.41-2.66-4.19-6-6-4-2.12-6.3-4.17-9.51-7.71a1.43,1.43,0,1,1,2.11-1.92c3,3.35,5,5.17,8.73,7.11,2.69,1.41,6,3.53,7.38,7.51a57.65,57.65,0,0,1,1.85,6.54,1.42,1.42,0,0,1-1.08,1.7A1.15,1.15,0,0,1,125.83,143.91Z" transform="translate(-22.27 -11.98)"/><path class="cls-3" d="M83.94,101.58a4.85,4.85,0,0,1-3.18-1,3.6,3.6,0,0,1-1.19-3.21,1.42,1.42,0,1,1,2.84.23c0,.6.13.75.19.8a4.12,4.12,0,0,0,3,.1,1.42,1.42,0,0,1,.7,2.76A9.85,9.85,0,0,1,83.94,101.58Z" transform="translate(-22.27 -11.98)"/><path class="cls-3" d="M84.35,119.47l-1.09,0a26.43,26.43,0,0,1-20.6-10.75c-4.47-6-5.35-17.45-4.69-26.21a1.43,1.43,0,0,1,2.85.22c-.6,7.87.13,18.94,4.12,24.28a23.62,23.62,0,0,0,18.42,9.61c7.44.27,13.78-2.43,17.83-7.57,3.59-4.57,6-13.75,6.12-22.84a1.43,1.43,0,0,1,1.43-1.42h0a1.44,1.44,0,0,1,1.42,1.44c-.08,9.83-2.73,19.48-6.74,24.58C99,116.41,92.26,119.47,84.35,119.47Z" transform="translate(-22.27 -11.98)"/><path class="cls-3" d="M57.8,96.79h-.21c-4.28-.62-7.3-3-8.27-6.46a9,9,0,0,1,2.61-9,5.76,5.76,0,0,1,6.51-.61,1.42,1.42,0,0,1-1.29,2.54,2.92,2.92,0,0,0-3.41.28,6.07,6.07,0,0,0-1.67,6.06C52.73,91.94,54.84,93.5,58,94a1.43,1.43,0,0,1-.2,2.84Z" transform="translate(-22.27 -11.98)"/><path class="cls-3" d="M110.33,96.25a1.43,1.43,0,0,1-.11-2.85c3-.22,5.09-1.56,5.91-3.77a5.42,5.42,0,0,0-1.1-5.57c-1.35-1.35-3.38-1.62-5.73-.75a1.43,1.43,0,0,1-1-2.68c3.4-1.25,6.59-.74,8.74,1.42a8.22,8.22,0,0,1,1.75,8.57c-1.21,3.27-4.26,5.32-8.36,5.63Z" transform="translate(-22.27 -11.98)"/><path class="cls-3" d="M82.29,133.17c-7.66,0-16.2-1.5-22-7.76a1.43,1.43,0,1,1,2.1-1.93c6.87,7.47,18.7,7.26,27,6.46a1.43,1.43,0,0,1,.27,2.84C87.43,133,84.91,133.17,82.29,133.17Z" transform="translate(-22.27 -11.98)"/><path class="cls-3" d="M94,132.69a1.42,1.42,0,0,1-.64-2.69,37.78,37.78,0,0,1,4.46-1.83c3.85-1.39,6-2.3,6.51-5a1.43,1.43,0,1,1,2.81.49c-.78,4.43-4.63,5.82-8.35,7.16a37.84,37.84,0,0,0-4.14,1.69A1.38,1.38,0,0,1,94,132.69Z" transform="translate(-22.27 -11.98)"/><path class="cls-3" d="M47.12,68.44a1.44,1.44,0,0,1-1.42-1.27,8.72,8.72,0,0,1,6.59-9.44,9.82,9.82,0,0,1-.24-7.34c1.18-3.16,4-4.78,6.42-6.2A20.88,20.88,0,0,0,61.83,42a21.57,21.57,0,0,1,12.49-5.28c.61-.05,1.32-.17,2.08-.29a16.69,16.69,0,0,1,4.93-.32c2.38.37,4.26,2.06,5.93,3.55l.62.56a17.56,17.56,0,0,1,19.33,3.38,20.35,20.35,0,0,1,3.19,4.65c1.19,2.17,2.33,4.22,4.35,5.15a14.2,14.2,0,0,0,1.71.62c.51.17,1,.34,1.56.55a6.33,6.33,0,0,1,3.43,2.84,3.88,3.88,0,0,1-1.12,5A1.42,1.42,0,0,1,118.78,60a1.15,1.15,0,0,0,.14-1.32,3.7,3.7,0,0,0-2-1.51c-.43-.17-.89-.32-1.37-.47a21.09,21.09,0,0,1-2-.75c-2.87-1.33-4.28-3.88-5.65-6.35a18.2,18.2,0,0,0-2.71-4,14.58,14.58,0,0,0-16.82-2.44A1.44,1.44,0,0,1,86.79,43c-.47-.38-1-.81-1.43-1.24-1.44-1.29-2.93-2.62-4.46-2.86a14.78,14.78,0,0,0-4.05.31c-.8.13-1.57.26-2.29.32A18.73,18.73,0,0,0,63.71,44.1a23.45,23.45,0,0,1-3.81,2.55c-2.24,1.3-4.36,2.53-5.18,4.74a7,7,0,0,0,1,6.62,1.44,1.44,0,0,1,.15,1.53,1.4,1.4,0,0,1-1.32.78,5.89,5.89,0,0,0-6,6.54,1.42,1.42,0,0,1-1.26,1.57Z" transform="translate(-22.27 -11.98)"/><path class="cls-3" d="M75.05,88.24a2.13,2.13,0,1,1-1.87-2.37A2.14,2.14,0,0,1,75.05,88.24Z" transform="translate(-22.27 -11.98)"/><path class="cls-3" d="M97.13,88.24a2.13,2.13,0,1,1-1.87-2.37A2.12,2.12,0,0,1,97.13,88.24Z" transform="translate(-22.27 -11.98)"/><path class="cls-3" d="M56.66,84.63a1.43,1.43,0,0,1-1.41-1.27C55,80.8,54.49,78,52.6,76.76c-.2-.13-.42-.24-.63-.36a5.46,5.46,0,0,1-2-1.52,3.06,3.06,0,0,1-.24-3.09,2.2,2.2,0,0,1,2-1.29,1.43,1.43,0,0,1,.53,2.75,3.53,3.53,0,0,0,1,.63c.28.15.56.31.83.48,3.18,2,3.68,6.36,3.94,8.68a1.43,1.43,0,0,1-1.25,1.58Z" transform="translate(-22.27 -11.98)"/><path class="cls-3" d="M109,85.48a1.42,1.42,0,0,1-.92-.34,1.44,1.44,0,0,1-.17-2L114,76a3.69,3.69,0,0,0,.86-1.34,3.69,3.69,0,0,0-.4-1.76l-.21-.58c-.66-1.89-.39-3.54.73-4.53a1.42,1.42,0,0,1,1.89,2.13c-.16.14-.18.74.07,1.46.06.17.13.34.19.52a5.89,5.89,0,0,1,.53,3.31,6,6,0,0,1-1.48,2.63l-6,7.14A1.43,1.43,0,0,1,109,85.48Z" transform="translate(-22.27 -11.98)"/><path class="cls-3" d="M66.59,122.63a1.45,1.45,0,0,1-1.24-.7,1.43,1.43,0,0,1,.52-2,14.21,14.21,0,0,0,5.32-5.58,1.43,1.43,0,0,1,2.53,1.32,17,17,0,0,1-6.42,6.72A1.4,1.4,0,0,1,66.59,122.63Z" transform="translate(-22.27 -11.98)"/><path class="cls-3" d="M105.43,124A1.45,1.45,0,0,1,105,124a17.8,17.8,0,0,1-10-7.33,1.43,1.43,0,1,1,2.42-1.51,14.93,14.93,0,0,0,8.39,6.11,1.43,1.43,0,0,1-.41,2.79Z" transform="translate(-22.27 -11.98)"/><path class="cls-3" d="M60.24,87.22a1.44,1.44,0,0,1-.67-.16,3.31,3.31,0,0,1-1.7-2.46,4.69,4.69,0,0,1,1.19-3.82A9.45,9.45,0,0,1,63,78.62l.75-.28c2.15-.82,5.19-3.72,5.67-5.93l0-.1c.29-1.36.83-3.89,3.16-3.89h.06a3.61,3.61,0,0,1,2.67,1.66c.09.11.17.22.26.32a3.06,3.06,0,0,0,5.36-2,1.43,1.43,0,0,1,2.86.06,5.92,5.92,0,0,1-10.37,3.78c-.11-.12-.22-.26-.33-.39s-.3-.38-.44-.52a7.43,7.43,0,0,0-.44,1.55l0,.1c-.72,3.32-4.5,6.88-7.45,8l-.81.29a7.15,7.15,0,0,0-2.79,1.45,1.74,1.74,0,0,0-.44,1.39c.05.31.18.38.22.4a1.42,1.42,0,0,1-.67,2.68Z" transform="translate(-22.27 -11.98)"/><path class="cls-3" d="M108.72,88.93a5.68,5.68,0,0,1-1.92-.34,5.19,5.19,0,0,1-3.29-3.39,9.81,9.81,0,0,1-.25-1.32,2.76,2.76,0,0,0-.38-1.35c-.24-.21-.92-.16-1.66.13l-.52.22a6.35,6.35,0,0,1-3.34.69c-1.87-.25-3-1.62-3.9-2.83A6.56,6.56,0,0,0,91.74,79,6,6,0,0,0,90,78.54a7.38,7.38,0,0,1-2.88-.94,5.62,5.62,0,0,1-2.32-4.9A13.47,13.47,0,0,1,86,68.17a1.43,1.43,0,1,1,2.66,1,11.11,11.11,0,0,0-1,3.57,2.79,2.79,0,0,0,1,2.43,5,5,0,0,0,1.82.53,8,8,0,0,1,2.58.77A8.75,8.75,0,0,1,95.7,79c.81,1,1.36,1.67,2,1.76a4.12,4.12,0,0,0,1.86-.49,6.07,6.07,0,0,1,.59-.24c1.86-.73,3.49-.59,4.6.4a4.69,4.69,0,0,1,1.3,3.08,7.32,7.32,0,0,0,.16.94,2.4,2.4,0,0,0,1.53,1.48,2.36,2.36,0,0,0,2.11-.17,1.43,1.43,0,0,1,1.61,2.36A4.89,4.89,0,0,1,108.72,88.93Z" transform="translate(-22.27 -11.98)"/><path class="cls-3" d="M71.83,95.44a12.44,12.44,0,0,1-5.4-1.17c-3.12-1.54-4.87-4.47-4.37-7.29a1,1,0,1,1,1.87.34c-.35,2,1,4.08,3.34,5.24a11.1,11.1,0,0,0,8.58.23c2.48-1,4.05-3.09,3.89-5.1a.94.94,0,0,1,.87-1,1,1,0,0,1,1,.87c.23,2.83-1.8,5.64-5,7A12.56,12.56,0,0,1,71.83,95.44Z" transform="translate(-22.27 -11.98)"/><path class="cls-3" d="M95.12,94.85a12.23,12.23,0,0,1-4.78-.93c-3.13-1.33-5.11-4.07-4.92-6.8a.95.95,0,1,1,1.89.12c-.12,1.94,1.39,3.92,3.77,4.94a10.86,10.86,0,0,0,8.34-.11c2.33-1.08,3.74-3.09,3.52-5a.95.95,0,1,1,1.88-.22c.32,2.74-1.53,5.53-4.6,7A12.13,12.13,0,0,1,95.12,94.85Z" transform="translate(-22.27 -11.98)"/><path class="cls-3" d="M85.12,84.19a.9.9,0,0,1-.28,0,4.13,4.13,0,0,0-3.18,0,1,1,0,0,1-1-.26c-1.44-1.5-4.45-2.51-8.27-2.78a12.9,12.9,0,0,0-8.24,2.19,1,1,0,0,1-.58.18l-1.66,0a1,1,0,1,1,0-1.9l1.34,0a14.93,14.93,0,0,1,9.22-2.36c2.38.16,6.6.77,9.09,3a5.41,5.41,0,0,1,3.28,0c2.11-1.55,5.28-2.46,9.43-2.71A17.6,17.6,0,0,1,104,81.63l3-.3a.95.95,0,1,1,.19,1.89l-3.31.33a.91.91,0,0,1-.58-.13,15.56,15.56,0,0,0-8.83-2c-2.77.16-6.53.75-8.75,2.59A.92.92,0,0,1,85.12,84.19Z" transform="translate(-22.27 -11.98)"/><path class="cls-3" d="M110.2,203.38a1.42,1.42,0,0,1-.09-2.84l.56,0a1.1,1.1,0,0,1,.32,0,22.22,22.22,0,0,0,11.71-3.9c1.53-1.06,2.34-2,2.56-3,.45-2-.51-2.73-3.37-4.17a18.18,18.18,0,0,1-4.74-3.76,15.29,15.29,0,0,0-3.72-3c-1.56-.8-2.82-1-3.84-.56-2.24.91-3.52,4.66-4.64,8a40,40,0,0,1-1.51,4,1.43,1.43,0,1,1-2.58-1.22,36.43,36.43,0,0,0,1.39-3.67c1.32-3.89,2.82-8.3,6.26-9.7,1.81-.74,3.9-.52,6.21.65a17.73,17.73,0,0,1,4.45,3.57,15.61,15.61,0,0,0,4,3.19c2.52,1.28,5.89,3,4.92,7.36-.5,2.3-2.36,3.81-3.71,4.75a25,25,0,0,1-14.13,4.42Z" transform="translate(-22.27 -11.98)"/><path class="cls-3" d="M37.46,191.33H23.7a1.43,1.43,0,1,1,0-2.85H37.46a1.43,1.43,0,1,1,0,2.85Z" transform="translate(-22.27 -11.98)"/><path class="cls-3" d="M144.57,191.33h-9.79a1.43,1.43,0,1,1,0-2.85h9.79a1.43,1.43,0,1,1,0,2.85Z" transform="translate(-22.27 -11.98)"/><path class="cls-3" d="M123.13,201.78a10,10,0,0,1-3.68-.68,1.43,1.43,0,0,1,1-2.65c3.24,1.29,7.46,0,10-3.08,2.28-2.73,3.41-6.71,3.16-11.2-.62-11.54-3.79-22.65-7.11-32.94a1.42,1.42,0,1,1,2.71-.88c3.38,10.48,6.61,21.8,7.25,33.66.28,5.22-1.08,9.9-3.83,13.19A12.75,12.75,0,0,1,123.13,201.78Z" transform="translate(-22.27 -11.98)"/><path class="cls-3" d="M87.41,109.82a1.19,1.19,0,0,1-.91-.42,3.46,3.46,0,0,0-2.55-.86h0a3.49,3.49,0,0,0-2.47.8,1.19,1.19,0,1,1-1.84-1.5,5.58,5.58,0,0,1,4.29-1.68h0a5.71,5.71,0,0,1,4.38,1.71,1.19,1.19,0,0,1-.92,1.95Z" transform="translate(-22.27 -11.98)"/><path class="cls-5" d="M75,156c.78-5,2-10.88,2.77-12.35s2.57-2.35,4-3.35c2-1.36,2-5.65,1.82-5.59,2.65,1.12,6.53-5.34,4.38-8.93a5.45,5.45,0,0,0-4.59-2.42c-.75,0-1.68-.21-1.05-1.15,2.31-.21,3.07.71,4.82,2s3.88,2.72,5.66.94c1.21-1.21.42-2.82-.54-3.65-1.61-1.41-9.19-7.08-11.82-6.2-2.46.82-3.84,2.71-5.24,5.24-.53,1-3.83,1.46-4.2,2.3-2.1,4.89-2.49,12.18-3.68,17.36a63.94,63.94,0,0,1-3.72,12.07" transform="translate(-22.27 -11.98)"/><path class="cls-3" d="M75,157.39h-.22a1.44,1.44,0,0,1-1.19-1.63c.62-3.92,2-10.85,2.91-12.76A8.41,8.41,0,0,1,80,139.71l1-.62c1-.66,1.29-3.14,1.24-4a1.86,1.86,0,0,1-.06-.34,1.42,1.42,0,0,1,.79-1.32,1.38,1.38,0,0,1,1.19,0h0c.19.08.74-.14,1.38-.88,1.38-1.59,2.2-4.38,1.23-6a4.09,4.09,0,0,0-3.28-1.73h-.17A2.52,2.52,0,0,1,81,123.63a2,2,0,0,1,.22-2.24,1.4,1.4,0,0,1,1-.63,6.35,6.35,0,0,1,5.09,1.73l.7.52c2.18,1.58,3.07,1.84,3.81,1.09a.54.54,0,0,0,.2-.43,1.87,1.87,0,0,0-.66-1.14c-2.93-2.56-9.07-6.37-10.44-5.92-2,.66-3.11,2.18-4.45,4.58-.52.94-1.69,1.38-2.94,1.85a11.66,11.66,0,0,0-1.27.53c-1.23,3-1.84,6.92-2.43,10.74-.34,2.21-.66,4.29-1.09,6.17A64.79,64.79,0,0,1,65,152.77a1.42,1.42,0,1,1-2.63-1.08A62.11,62.11,0,0,0,66,139.84c.41-1.78.72-3.81,1.05-6,.63-4.09,1.28-8.31,2.72-11.64.42-1,1.52-1.39,2.8-1.87a9.1,9.1,0,0,0,1.5-.66c1.28-2.28,2.9-4.77,6-5.8,3.95-1.33,13.13,6.39,13.22,6.47a4.61,4.61,0,0,1,1.64,3.2,3.39,3.39,0,0,1-1,2.54A3.91,3.91,0,0,1,90,127.24a9.46,9.46,0,0,1-2.29,7.12,5.35,5.35,0,0,1-2.64,1.77c-.13,1.8-.79,4.2-2.46,5.32-.36.24-.73.47-1.1.69a6.13,6.13,0,0,0-2.47,2.12c-.6,1.19-1.83,6.76-2.64,11.93A1.43,1.43,0,0,1,75,157.39Z" transform="translate(-22.27 -11.98)"/><path class="cls-3" d="M47.27,185.85a1.52,1.52,0,0,1-.51-.09,1.43,1.43,0,0,1-.82-1.85c1.47-3.8,7.8-20.31,9.13-23.82s2.66-7,4.14-10.84a1.42,1.42,0,0,1,1.28-.91,1.41,1.41,0,0,1,1.34.82c1.79,3.8,4.25,6.15,7.1,6.79a9.06,9.06,0,0,0,7.66-2.25,1.42,1.42,0,0,1,2.28,1.45,69,69,0,0,0-1.49,8.56c-.31,2.4-3.62,21.89-4.29,24.89A1.43,1.43,0,0,1,70.3,188c.64-2.87,4-22.29,4.25-24.63.23-1.75.46-3.54.82-5.51a10.76,10.76,0,0,1-7.07.89c-2.14-.48-5-1.88-7.52-5.62-1.06,2.74-2.05,5.37-3,8-1.33,3.52-7.66,20-9.14,23.84A1.42,1.42,0,0,1,47.27,185.85Z" transform="translate(-22.27 -11.98)"/><path class="cls-3" d="M70.24,79.45a1,1,0,0,1-.93-.68.94.94,0,0,1,.63-1.17h0A13.49,13.49,0,0,0,73.88,76a1,1,0,1,1,1.2,1.48,14.25,14.25,0,0,1-4.57,1.92A.84.84,0,0,1,70.24,79.45Z" transform="translate(-22.27 -11.98)"/><path class="cls-3" d="M96.67,79.43l.26-.92-.31.9a14.25,14.25,0,0,1-4.57-1.92A1,1,0,0,1,93.25,76a13.49,13.49,0,0,0,3.89,1.58l-.21.92Z" transform="translate(-22.27 -11.98)"/></g></g></g></svg>