<svg xmlns="http://www.w3.org/2000/svg" viewBox="0 0 844.85 165"><defs><style>.cls-1{fill:#faed00;}.cls-2{fill:#1238a6;}.cls-3{fill:none;stroke:#1238a6;stroke-miterlimit:10;stroke-width:2px;}</style></defs><g id="Layer_2" data-name="Layer 2"><g id="レイヤー_3" data-name="レイヤー 3"><path class="cls-1" d="M612.32,7.52V18H599.44l.4.08c-.32.72-1,1-2.4,1.12-.72,1.52-1.6,3.2-2.56,4.8h14.24V64.16c0,10.16-4.56,12-18.64,12a43.72,43.72,0,0,0-2-7H570.4v4.4H560.16v-25a27,27,0,0,1-2.72.72,24.81,24.81,0,0,0-3.12-5.52V76.32h-11V24H556.8a61.27,61.27,0,0,0-2.16-5.76L556,18H539.52V7.52h29.76V.24l14.4.8c-.08.88-.72,1.44-2.4,1.68v4.8Zm-58,26.4v7.2c6.4-1.36,8.16-3.52,8.64-7.2Zm38.32,14V65.44h3.52c1.28,0,1.76-.4,1.76-1.52V45.12a14.09,14.09,0,0,1-3.36.32h-6c-9.28,0-9.76-3.44-9.76-11.52h-5.28c-.16,0-.32.08-.56.08-.64,5.92-2.16,10.88-10.72,13.92ZM566.8,18a48.11,48.11,0,0,1,2.32,6h13c.8-1.92,1.52-4,2.16-6Zm15.44,42.64V56.32H570.4v4.32Zm11-23.44c1.12,0,1.44-.24,1.68-1a17.82,17.82,0,0,0,3,1.52V33.92h-9.2c0,3,0,3.28,1.52,3.28Z"/><path class="cls-1" d="M619,76.16V40.64h31.76v35.2h-11.6V73.68H630v2.48Zm20.16-24.4H630v10.8h9.2ZM675.47,2.88V35.2H632.35V2.88ZM663.55,24.16V14h-20V24.16Zm-7.12,16.48H689V75.52H677.31V73.6h-9.76v2.24H656.43Zm11.12,21.84h9.76V51.76h-9.76Z"/><path class="cls-1" d="M771.21,38.72H759.45a42.86,42.86,0,0,0,13.36,8.88,42.23,42.23,0,0,0-7.68,9.52,43.79,43.79,0,0,1-7.92-4.88c-1.52,21.12-3,24.16-17.36,24.16-1.2,0-2.48,0-3.76-.08a26.55,26.55,0,0,0-3.36-10.88c3,.32,6.08.4,7.6.4a3.46,3.46,0,0,0,2.8-1c.88-.88,1.6-3.76,2.08-9.76H735c-2.24,9.36-6.72,17-25,21.44a32.66,32.66,0,0,0-6.32-9.92c12.72-2.48,17.2-6.24,19-11.52H712V51.36a61.18,61.18,0,0,1-8.88,5.44,67.72,67.72,0,0,0-7.2-9.36,47.08,47.08,0,0,0,13-8.72h-11.2V28.24h19.44c1-1.6,1.84-3.2,2.64-4.88H703.53V13.2h7.2a60.15,60.15,0,0,0-4.16-9L716.17.8a49.83,49.83,0,0,1,5.52,10.88l-4.16,1.52h6.32A95.75,95.75,0,0,0,727,0l13.92,2.8c-.24.8-1,1.36-2.4,1.44-.64,3-1.44,6-2.24,9h11.2l-2.88-1.12A60.78,60.78,0,0,0,750.09.32l12.48,4.4c-.32.64-1.2,1-2.4,1A81,81,0,0,1,756,13.2h10.24V23.36H749a40,40,0,0,0,2.48,4.88h19.76Zm-21.92,5.92a54.07,54.07,0,0,1-4.4-5.92H724.33a57.16,57.16,0,0,1-4.88,6h29.2Zm-9.84-16.4c-.72-1.6-1.36-3.2-2-4.88h-4.72l-2.16,4.88Z"/><path class="cls-1" d="M423.32,99.88c-.4.88-1.84,1.44-2.88,1.52-13.76,32.64-29.92,50.08-52,63.6a67.9,67.9,0,0,0-10.08-9.28c20.56-12,37.44-28.72,49-61.76Z"/><path class="cls-1" d="M457,93.24l15.28.8c-.08,1-1,2-2.72,2.24v10.64h14l2.16-.88,10.64,4.16a3.47,3.47,0,0,1-1.52,1.52c-5.2,29.28-16,44.32-41,53.28a74,74,0,0,0-8.32-10.4c21.52-7.12,31.44-19.12,34.16-36.16H445.46V134.2H433.62V106.92H457Z"/><path class="cls-1" d="M529.2,106.92a2.47,2.47,0,0,1-2.32,1.68c-3.28,17.84-8.48,37.2-18,51.44a70.94,70.94,0,0,0-12.16-5.92c9.44-13.12,14.08-31.44,16.56-50.8Zm24.08-4.8c8.08,16.64,16.56,37.6,19.6,51.92l-13.2,5.28c-3.36-14.08-11.44-37.52-18.88-52.4Z"/><path class="cls-1" d="M602.75,93.24,618,94c-.08,1-1,2-2.72,2.24v10.64h14l2.16-.88,10.64,4.16a3.47,3.47,0,0,1-1.52,1.52c-5.2,29.28-16,44.32-41,53.28a74,74,0,0,0-8.32-10.4c21.52-7.12,31.44-19.12,34.16-36.16H591.23V134.2H579.39V106.92h23.36Z"/><path class="cls-2" d="M16.93,48.17l5.33-1.89,1.82,8.5c-6.61,3.1-13.63,6.14-18.35,8.1a1.68,1.68,0,0,1-1.14,1.48L.34,53.64C2.43,53,5,52.22,7.82,51.27V33.47H2V24.23H7.82V9l11.06.6c-.06.75-.6,1.15-1.95,1.35V24.23h5.73v9.24H16.93ZM36.49,58c0,4.11.47,4.59,4.45,4.59H52.27c3.51,0,4.18-1.35,4.79-7.83a27.78,27.78,0,0,0,8.49,3.51c-1.14,9.71-4,13-12.34,13H40c-10,0-12.81-2.84-12.81-13.29V42.24l-4.52,1.95L19,35.49l8.16-3.44V15.12l11.26.61c-.06.74-.6,1.15-1.95,1.42V28.07l3.64-1.55V8.31l11.13.61c-.07.74-.61,1.15-2,1.35V22.61l4.79-2,2-1.28,7.68,2.76a2.92,2.92,0,0,1-1.21,1.22c0,13-.13,20-.34,22.86-.27,6.34-4.31,7.49-10.79,7.49a28.07,28.07,0,0,0-2-8.1c.88.07,2,.07,2.56.07s1-.2,1.15-1.21c.13-.81.13-4.66.13-13.43L49.3,32.66V56.33H40.13V36.64l-3.64,1.55Z"/><path class="cls-2" d="M90.59,47.57l1.62,8.56c-6.34,2.7-13,5.46-17.54,7.15a1.82,1.82,0,0,1-1.15,1.42L69.41,53.91c2.09-.54,4.59-1.22,7.35-2v-19H71.09V23.62h5.67V8.38L87.62,9c-.07.67-.61,1.14-1.89,1.35V23.62h5.13v9.24H85.73V49.12Zm31.83-8.37a87.92,87.92,0,0,0,2.5-9.78l10.25,2.3c-.21.67-.88,1.07-2,1.07a83.83,83.83,0,0,1-8.7,23c.88,4.59,2,7.49,3,7.56.81,0,1.55-2.7,1.68-8.1a20.85,20.85,0,0,0,6,5.94c-1.48,8.9-3.64,11.19-8.83,11.19-3.58,0-6.21-2.69-8.23-7.68a43.41,43.41,0,0,1-8.5,7.62,43.86,43.86,0,0,0-6.54-6,32.67,32.67,0,0,0,5.26-3.84V62.4c-5.46,2-10.79,4-14.7,5.26a1.82,1.82,0,0,1-1.08,1.42L88,59.17c5.66-1.35,14.7-3.92,23.13-6.34l1,5.73a50.1,50.1,0,0,0,3.24-4.25,195.07,195.07,0,0,1-2.7-28.53h-21V17h20.77c0-2.9-.07-5.8-.07-8.57l11.2.67c-.07.75-.68,1.15-2,1.35-.07,2.09-.07,4.32-.07,6.55h5.46A41,41,0,0,0,122,12.63l5.26-4.92a41,41,0,0,1,7,5.73L130.58,17h3.58v8.83H121.61c.14,4.59.41,9.11.74,13.42ZM92.61,29.9h17.87V51.41H92.61Zm10,14.36V37.11H100v7.15Z"/><path class="cls-2" d="M160.75,37l1.15,8.23c-2.23.74-4.45,1.48-6.61,2.15v15c0,6.47-1.35,10.31-12.82,10.11a34.26,34.26,0,0,0-2.43-9.1c1.29.06,2.57.13,3.58.13,2.43,0,2.7,0,2.7-1.14V50.2l-3.91,1.14a1.75,1.75,0,0,1-1.35,1.35L138.83,42.1c2.09-.4,4.65-1,7.49-1.62V30h-6.48V21h6.48V8.38l10.86.47c-.07.74-.54,1.22-1.89,1.42V21h6.13v9h-6.13v8.37Zm30.82,6.34c.34,1.89.74,3.71,1.22,5.39A61.87,61.87,0,0,0,197.1,44l7.08,7a1.75,1.75,0,0,1-1.21.41,4.27,4.27,0,0,1-.94-.14,72.72,72.72,0,0,1-6.28,4.79,18.53,18.53,0,0,0,8.64,8.23,33.72,33.72,0,0,0-6,8,25,25,0,0,1-10.31-11.13l.47,6.27c-5.8,1.22-11.67,2.36-15.58,3.1a1.44,1.44,0,0,1-1.22,1.15l-2.83-9.24c1.28-.13,2.7-.34,4.18-.47V43.32h-1.21c-.88,10-3.17,21.31-8.5,29a31.15,31.15,0,0,0-7.42-5.6c6.81-10,7.35-24.95,7.35-35.54V10.94H202.5v8.37H172.35V31.18c0,1.28,0,2.56-.07,4h31.16v8.16Zm8.7-12.21H174.71v-8h25.56ZM181.66,60.78l5.87-.87a63.76,63.76,0,0,1-4.39-16.59h-1.48Z"/><path class="cls-2" d="M271.64,57.21h-16.8c6.28,2.9,13,6.2,17.07,8.43l-9.78,6.68a156.71,156.71,0,0,0-18.35-10.25l5.6-4.86H230l6.94,4.92a1.9,1.9,0,0,1-1.35.41,96.84,96.84,0,0,1-18.47,9.84,72.37,72.37,0,0,0-7.76-6.87,79.4,79.4,0,0,0,16.59-8.3H209.39v-9h5.32l-.87-36.69,5.93.94a60.81,60.81,0,0,0,5.67-4.11l2.36,2.83h25.36v37h5.12c.14-1.62.21-3.3.27-5.06h-4V35.49h4.32l.13-4.25h-4.45V23.56h4.59l.07-4.32h-4.79V11.42h13.35c-.13,11.87-.6,26.23-1.28,36.82h5.13Zm-48.76-14,.06,5.06h4.79V17.55c-1.69.81-3.64,1.62-5.46,2.36l.06,3.65h4v7.68h-3.84l.13,4.25h3.71v7.69Zm23.33-24.75h-11.8V48.24h11.8Zm-1.42,2.63v5.87h-9.17V21.06Zm-.06,8.16V44.33h-9.11V29.22ZM241,38.93V34.62h-1.69v4.31Z"/><path class="cls-2" d="M315,26.12a2.39,2.39,0,0,1-2.16,1.14c-3,24.08-9.58,35.08-21.31,35.08-8.17,0-13.63-6.41-13.63-18.35,0-17.74,14.3-29.94,31.23-29.94,18.95,0,29.4,10.79,29.4,26.1,0,15.78-7.69,24.21-25,28.86a46.07,46.07,0,0,0-6.61-8.63c15.31-3,20.64-10.32,20.64-20,0-10.79-7.76-16.79-18.61-16.79a26.88,26.88,0,0,0-4.05.33Zm-12.75-1.55a20,20,0,0,0-14.23,19c0,4.92,1,8.63,3.84,8.63C297.65,52.22,301.36,39,302.24,24.57Z"/><path class="cls-2" d="M384.19,27.6a83.1,83.1,0,0,1-17.4,3.1c-2.56,13.49-6.74,28.8-11.26,39.93l-10.66-3.71a129.25,129.25,0,0,0,11.27-35.68c-.95.07-5.47.07-6.61.07-1.42,0-2.77,0-3.85-.07l-.2-9.71c2.16.14,5.66.2,8.83.2,1,0,2.1-.06,3.17-.06.48-3.71.88-8.3,1.15-12.14l12.95,1.08a2.15,2.15,0,0,1-1.89,1.68c-.27,2.23-.81,5.87-1.21,8.37a67.16,67.16,0,0,0,13.82-3.24ZM402,69.35c-1.89.13-4.32.27-6.81.27a71.55,71.55,0,0,1-13.83-1.15c-6.61-1.41-9.65-5.8-9.58-10.72a16,16,0,0,1,4.32-10l8.77,3.1c-2,1.89-2.9,3.71-2.9,5.2,0,3,2.9,3.64,11.66,3.64a85.34,85.34,0,0,0,8.64-.41ZM376.91,34.62c6.67-2.09,16-3.24,23.87-3.24l.07,9.78a83.61,83.61,0,0,0-21.78,2.22Z"/><path class="cls-2" d="M458.9,13a1.69,1.69,0,0,1-1.62,1.08c-.81,4.11-1.95,8.43-3,12.07,8.83,3.1,15.1,10.25,15.1,21.65,0,12.14-7.75,19.76-24.34,22.59a72.28,72.28,0,0,0-4.86-8.77c11.6-1.88,18.61-5.39,18.61-13.55a13.38,13.38,0,0,0-7.55-12.48,73.81,73.81,0,0,1-9.64,18.35,25.68,25.68,0,0,0,2,1.88l-7,7.15a28,28,0,0,1-2-1.95,21.51,21.51,0,0,1-13.22,4.92c-7.48,0-12.14-5.93-12.14-14a18.34,18.34,0,0,1,.07-2,25.6,25.6,0,0,1,11.26-19.42c-1.28-5-2.29-10.25-3.1-15.58l11.8-.4A1.9,1.9,0,0,1,428,16.2c.33,3.38.87,6.75,1.48,10.12A32.12,32.12,0,0,1,442,24a15.11,15.11,0,0,1,1.75.06,126.15,126.15,0,0,0,2.23-14ZM429.16,53.43a69.76,69.76,0,0,1-5.73-13.22,16.56,16.56,0,0,0-4.72,10.93c0,3.1,1.55,5.26,3.77,5.26C425,56.4,427.2,55.05,429.16,53.43Zm6.54-7.89a63.84,63.84,0,0,0,5.53-12.14,8.78,8.78,0,0,0-1.41-.13,17.5,17.5,0,0,0-8.3,1.95A51.72,51.72,0,0,0,435.7,45.54Z"/><path class="cls-2" d="M493.51,13.84c-.07.75-.67,1.28-2,1.42A151.64,151.64,0,0,0,488,47.57a32.86,32.86,0,0,0,.2,4.72c.61-1.35,3.17-6.48,4-8.5l4.52,7.75c-2,3.71-4.52,7.36-5.53,10.73a11.44,11.44,0,0,0-.54,3.24A10.24,10.24,0,0,0,491,68L480.7,69.48c-2.16-6.54-3.17-15.51-3.17-24.54,0-9.31,1.35-21.92,3-32.78Zm39.32,50.92c-2.5.14-5.13.21-7.69.21-8.83,0-24.82,0-24.82-12.95,0-5,2.09-9.31,5.53-13.63l9.92,3.17c-2.9,2.7-4.66,5.74-4.66,8.91,0,3.64,3.11,4.58,12.08,4.58a76.87,76.87,0,0,0,10-.61ZM502.14,20a246.67,246.67,0,0,0,28.19-2.49l.88,10.11a257.26,257.26,0,0,1-28.73,2.23Z"/><path class="cls-3" d="M616.89,9.63V20.11H604l.4.08c-.32.72-1,1-2.4,1.12-.72,1.52-1.6,3.2-2.56,4.8h14.24V66.27c0,10.16-4.56,12-18.64,12a43.72,43.72,0,0,0-2-7H575v4.4H564.73v-25a27,27,0,0,1-2.72.72,24.81,24.81,0,0,0-3.12-5.52V78.43h-11V26.11h13.52a61.27,61.27,0,0,0-2.16-5.76l1.36-.24H544.09V9.63h29.76V2.35l14.4.8c-.08.88-.72,1.44-2.4,1.68v4.8Zm-58,26.4v7.2c6.4-1.36,8.16-3.52,8.64-7.2Zm38.32,14V67.55h3.52c1.28,0,1.76-.4,1.76-1.52V47.23a14.09,14.09,0,0,1-3.36.32h-6c-9.28,0-9.76-3.44-9.76-11.52h-5.28c-.16,0-.32.08-.56.08C576.89,42,575.37,47,566.81,50ZM571.37,20.11a48.11,48.11,0,0,1,2.32,6h13c.8-1.92,1.52-4,2.16-6Zm15.44,42.64V58.43H575v4.32Zm11-23.44c1.12,0,1.44-.24,1.68-1a17.82,17.82,0,0,0,3,1.52V36h-9.2c0,3,0,3.28,1.52,3.28Z"/><path class="cls-3" d="M623.56,78.27V42.75h31.76V78h-11.6V75.79h-9.2v2.48Zm20.16-24.4h-9.2v10.8h9.2ZM680,5V37.31H636.92V5ZM668.12,26.27V16.11h-20V26.27ZM661,42.75h32.56V77.63H681.88V75.71h-9.76V78H661Zm11.12,21.84h9.76V53.87h-9.76Z"/><path class="cls-3" d="M775.78,40.83H764a42.86,42.86,0,0,0,13.36,8.88,42.23,42.23,0,0,0-7.68,9.52,43.79,43.79,0,0,1-7.92-4.88c-1.52,21.12-3,24.16-17.36,24.16-1.2,0-2.48,0-3.76-.08a26.55,26.55,0,0,0-3.36-10.88c3,.32,6.08.4,7.6.4a3.46,3.46,0,0,0,2.8-1c.88-.88,1.6-3.76,2.08-9.76H739.54c-2.24,9.36-6.72,17-25,21.44a32.66,32.66,0,0,0-6.32-9.92c12.72-2.48,17.2-6.24,19-11.52H716.58V53.47a61.18,61.18,0,0,1-8.88,5.44,67.72,67.72,0,0,0-7.2-9.36,47.08,47.08,0,0,0,13-8.72h-11.2V30.35h19.44c1-1.6,1.84-3.2,2.64-4.88H708.1V15.31h7.2a60.15,60.15,0,0,0-4.16-9l9.6-3.44a49.83,49.83,0,0,1,5.52,10.88l-4.16,1.52h6.32a95.75,95.75,0,0,0,3.12-13.2l13.92,2.8c-.24.8-1,1.36-2.4,1.44-.64,3-1.44,6-2.24,9H752l-2.88-1.12a60.78,60.78,0,0,0,5.52-11.76l12.48,4.4c-.32.64-1.2,1-2.4,1a81,81,0,0,1-4.16,7.52h10.24V25.47H753.54A40,40,0,0,0,756,30.35h19.76Zm-21.92,5.92a54.07,54.07,0,0,1-4.4-5.92H728.9a57.16,57.16,0,0,1-4.88,6h29.2ZM744,30.35c-.72-1.6-1.36-3.2-2-4.88H737.3l-2.16,4.88Z"/><path class="cls-2" d="M842.62,41.83a1.49,1.49,0,0,1-.54.14,2.06,2.06,0,0,1-1-.34c-5,1.42-11.33,3.24-16,4.86.06,1.28.13,2.63.13,4s-.07,2.9-.13,4.59l-10.25.81c.2-2.09.27-3.91.33-5.53-4.18,2.16-6.88,5.06-6.88,6.88,0,2.56,3.24,3.44,10.05,3.44A151.06,151.06,0,0,0,835,59.91l.14,9.37a168.55,168.55,0,0,1-16.86.47c-13,0-19.9-2.76-19.9-11.87,0-5.12,6.61-11.46,15.85-16.18-.14-.88-.68-2.57-2.36-2.57-4.25,0-8.84,2.1-14,8.1-1.55,1.75-3.91,4.45-6.88,7.35l-7.22-7a92,92,0,0,0,7.49-6.82,38,38,0,0,0,7.69-13.62c-2.43.07-3.64.07-6.88.07-1.82,0-3.71,0-5.19-.07V18c3.57.27,8.49.33,11.53.33l3.1-.06c.54-2.63.88-5.26,1.28-8.57l12.08,1.08a2,2,0,0,1-1.69,1.35c-.34,1.89-.81,3.78-1.28,5.67a69.54,69.54,0,0,0,19.22-3.58l1.62,9.58c-5.6,1.82-14.5,2.56-23.54,3a36.68,36.68,0,0,1-2.56,6.27h.06a15.1,15.1,0,0,1,8.5-2.83c3.58,0,7.22,2.5,8.3,7.49,5-2.09,10.92-4.12,15.58-6Z"/><path class="cls-2" d="M65.49,115.48H47.35v5.6H63.8V130H47.35v6.07H64.68v9.1H47.35v14.23H37.23v-43.9H35.14a75.89,75.89,0,0,1-8.37,13.42,66.37,66.37,0,0,0-6.87-6.68v37.16H10.18V126.61a79,79,0,0,1-5.39,6.61,85.36,85.36,0,0,0-4.79-10C5.93,117.1,12.07,106,15.71,95.45l11,3.84c-.27.61-1,.95-2.09.88-1.69,4.11-3.65,8.23-5.74,12.27l3,.81c-.2.68-.81,1.22-2,1.35v6.75c4.85-6,9.44-16.06,12-25.5l11.53,3.44a1.82,1.82,0,0,1-2,.88c-.67,2-1.42,4-2.16,6H65.49Z"/><path class="cls-2" d="M77.21,135.64a75,75,0,0,1-1.76-15.58,126.07,126.07,0,0,1,1.82-19.62L89.61,102A2,2,0,0,1,88,103.2a80,80,0,0,0-2.5,17.07h.07a60.21,60.21,0,0,1,4.92-8.5,56.11,56.11,0,0,0,4.45,6.54c-4,5.53-6.88,10.73-7.35,12.34a6.34,6.34,0,0,0-.27,1.76,16,16,0,0,0,.14,1.68Zm40.06-36.95c-.07.74-.61,1.28-1.62,1.61.54,5.06,1.14,13.7,1.14,22.66-.06,13-4,25.5-26,34.6a59.54,59.54,0,0,0-7.42-8.16c18.55-7.21,22-18,22-26.3a203.22,203.22,0,0,0-1.69-24.95Z"/><path class="cls-2" d="M167.38,114.6a83.22,83.22,0,0,1-17.4,3.1c-2.56,13.49-6.74,28.8-11.26,39.93l-10.66-3.71a128.91,128.91,0,0,0,11.26-35.68c-.94.07-5.46.07-6.61.07-1.41,0-2.76,0-3.84-.07l-.2-9.71c2.16.14,5.66.2,8.83.2,1,0,2.09-.06,3.17-.06.47-3.71.88-8.3,1.15-12.14l13,1.08a2.16,2.16,0,0,1-1.89,1.68c-.27,2.23-.81,5.87-1.21,8.37a67.31,67.31,0,0,0,13.82-3.24Zm17.8,41.75c-1.88.13-4.31.27-6.81.27a71.44,71.44,0,0,1-13.82-1.15c-6.61-1.41-9.65-5.8-9.58-10.72a16,16,0,0,1,4.32-10.05l8.76,3.1c-2,1.89-2.9,3.71-2.9,5.2,0,3,2.9,3.64,11.67,3.64a85.34,85.34,0,0,0,8.64-.41ZM160.1,121.62c6.67-2.09,16.05-3.24,23.87-3.24l.07,9.78a83.73,83.73,0,0,0-21.79,2.22Z"/><path class="cls-2" d="M207.17,105a2,2,0,0,1-1.69,1.21,104,104,0,0,0-1.95,19.22c0,12.28,3.3,17.81,6.74,17.81,2.09,0,4.59-6.68,5.6-11.4a51.8,51.8,0,0,0,8.36,6.61c-3.1,11.4-7.82,16-14.3,16-11.46,0-16.25-14.29-16.79-24.41-.14-2.36-.2-4.92-.2-7.62a154.15,154.15,0,0,1,1.28-19.76Zm34.39,33.11c-2.09-12.27-7.48-18.81-15.44-23.74l6.54-7.62a38,38,0,0,1,19.69,27.79Z"/><path class="cls-2" d="M284.56,98.82c-.2.94-1.08,1.28-2.22,1.48-.61,3-1.49,8.5-2.23,12.35,1.15-.14,3.37-.27,4.59-.27,11.6,0,15,8.22,15,19v.06c-.2,11.47-2.77,25.63-15,25.63-2.63,0-6.81-1.41-12.07-5.39a51.39,51.39,0,0,0,3.37-8.84c4.18,2.83,6.74,3.58,8.36,3.58,2.36,0,3.31-2.3,4.18-5.87a56,56,0,0,0,1.08-9.71c-.06-6.21-1.89-9-5.73-9a37.67,37.67,0,0,0-5.6.4c-2.9,11.6-6.41,23.68-11.8,34.6l-9.51-4.65a125,125,0,0,0,10.86-28.8c-1.89.34-6.75,1.08-9.44,1.55l-.81-10.12c2.76-.27,8.23-.87,12.07-1.34.88-4.93,1.62-10.39,2.16-15.92Zm12-2.29a34,34,0,0,1,7.55,9.24L299.2,109a33.3,33.3,0,0,0-7.29-9.37Zm11.6,39.05c-1.35-8.1-5.2-17.34-9.92-21.79l8.64-5.33c6.07,5.8,10.52,15,12.07,23.41Zm-.81-41.82a33.94,33.94,0,0,1,7.55,9.24L310,106.24a33.34,33.34,0,0,0-7.29-9.38Z"/><path class="cls-2" d="M331.84,137.74a139.75,139.75,0,0,1,14.23,14.09l-8.36,7.55a162.16,162.16,0,0,0-13.49-15Z"/><path class="cls-3" d="M429.06,98c-.4.88-1.84,1.44-2.88,1.52-13.76,32.64-29.92,50.08-52,63.6a67.9,67.9,0,0,0-10.08-9.28c20.56-12,37.44-28.72,49-61.76Z"/><path class="cls-3" d="M462.72,91.35l15.28.8c-.08,1-1,2-2.72,2.24V105h14l2.16-.88,10.64,4.16a3.47,3.47,0,0,1-1.52,1.52c-5.2,29.28-16,44.32-41,53.28a74,74,0,0,0-8.32-10.4c21.52-7.12,31.44-19.12,34.16-36.16H451.2v15.76H439.36V105h23.36Z"/><path class="cls-3" d="M534.94,105a2.47,2.47,0,0,1-2.32,1.68c-3.28,17.84-8.48,37.2-18,51.44a70.94,70.94,0,0,0-12.16-5.92c9.44-13.12,14.08-31.44,16.56-50.8Zm24.08-4.8c8.08,16.64,16.56,37.6,19.6,51.92l-13.2,5.28c-3.36-14.08-11.44-37.52-18.88-52.4Z"/><path class="cls-3" d="M608.49,91.35l15.28.8c-.08,1-1,2-2.72,2.24V105h14l2.16-.88,10.64,4.16a3.47,3.47,0,0,1-1.52,1.52c-5.2,29.28-16,44.32-41,53.28a74,74,0,0,0-8.32-10.4c21.52-7.12,31.44-19.12,34.16-36.16H597v15.76H585.13V105h23.36Z"/><path class="cls-2" d="M682.42,98.82c-.21.94-1.08,1.28-2.23,1.48-.61,3-1.48,8.5-2.22,12.35,1.14-.14,3.37-.27,4.58-.27,11.6,0,15,8.22,15,19v.06c-.2,11.47-2.76,25.63-15,25.63-2.63,0-6.81-1.41-12.07-5.39a51.39,51.39,0,0,0,3.37-8.84c4.19,2.83,6.75,3.58,8.37,3.58,2.36,0,3.3-2.3,4.18-5.87a56,56,0,0,0,1.08-9.71c-.07-6.21-1.89-9-5.74-9a37.63,37.63,0,0,0-5.59.4c-2.9,11.6-6.41,23.68-11.81,34.6l-9.51-4.65a124.5,124.5,0,0,0,10.86-28.8c-1.88.34-6.74,1.08-9.44,1.55l-.81-10.12c2.77-.27,8.23-.87,12.07-1.34.88-4.93,1.62-10.39,2.16-15.92Zm12-2.29a34,34,0,0,1,7.56,9.24L697.05,109a33.27,33.27,0,0,0-7.28-9.37ZM706,135.58c-1.35-8.1-5.19-17.34-9.91-21.79l8.63-5.33c6.07,5.8,10.52,15,12.07,23.41Zm-.81-41.82a34.18,34.18,0,0,1,7.56,9.24l-4.93,3.24a33.31,33.31,0,0,0-7.28-9.38Z"/><path class="cls-2" d="M747.87,97.54a2.52,2.52,0,0,1-2,1.55c-.34,2.09-1,5.33-1.35,7a67.4,67.4,0,0,0,15-3l1.21,9.64a126.26,126.26,0,0,1-18.07,2.77,122.61,122.61,0,0,1-12.41,31.76L720,143.74a85.08,85.08,0,0,0,11.73-28.06H721v-9.17h12.41a96.68,96.68,0,0,0,1.22-9.92Zm16.93,29.67c0,3.44.14,7.36.47,10.86a87.31,87.31,0,0,1,12.48,6.41L773,154.06a72.64,72.64,0,0,0-7.82-5.2c-.07,1.76-1.15,9.45-14.1,9.45-5.6,0-13.69-2.77-13.69-11.47.13-7,6.88-11.4,13.76-11.4,1.35,0,2.7.07,4.11.2-.13-1.82-.13-4.85-.13-7.28Zm-9,17.27a14.26,14.26,0,0,0-4.92-.88c-2.9,0-4.79,1.49-4.86,3.24s1.89,3.24,5.06,3.24c2.83,0,4.72-1.62,4.72-3.91Zm21-21.11a128.53,128.53,0,0,0-23.34,2.5L752.12,117a111.62,111.62,0,0,1,24.08-3.24Z"/><path class="cls-2" d="M799.67,105a2,2,0,0,1-1.69,1.21,104,104,0,0,0-2,19.22c0,12.28,3.31,17.81,6.75,17.81,2.09,0,4.58-6.68,5.6-11.4a51.8,51.8,0,0,0,8.36,6.61c-3.1,11.4-7.82,16-14.3,16-11.46,0-16.25-14.29-16.79-24.41-.14-2.36-.2-4.92-.2-7.62a154.15,154.15,0,0,1,1.28-19.76Zm34.39,33.11c-2.09-12.27-7.48-18.81-15.44-23.74l6.54-7.62a38,38,0,0,1,19.69,27.79Z"/></g></g></svg>