<svg xmlns="http://www.w3.org/2000/svg" viewBox="0 0 213.7 488.72"><defs><style>.cls-1{fill:#faed00;}.cls-2{fill:#0d38a6;}.cls-3{fill:none;stroke:#0d38a6;stroke-miterlimit:10;stroke-width:1.91px;}</style></defs><g id="Layer_2" data-name="Layer 2"><g id="レイヤー_3" data-name="レイヤー 3"><path class="cls-1" d="M156.87,216.25c3.15-4.87,4.7-11.85,5.44-19.64l8.19,1.66c-.86,8.13-2.18,16.72-5.79,22.44ZM173,192.84l10.42.57c-.06.63-.51,1-1.72,1.26v24.72c0,2.87.29,3.21,2.75,3.21h6.3c2.46,0,2.92-1.72,3.32-10.19A24.18,24.18,0,0,0,201.8,216c-.85,10.7-3,14.19-10.3,14.19h-8.24c-8.07,0-10.25-2.63-10.25-10.76ZM191.9,194c-4.35-3.83-12.13-8.41-18.83-11.1l5.44-6.47a78.56,78.56,0,0,1,18.94,10.24Zm12.48,24.78C203.29,213,199.46,204.23,195,198l7.67-3.84c4.81,6.18,8.82,14.43,10.19,20.38Z"/><path class="cls-1" d="M157.62,243.61v-6.87h27.87v6.87h-7.61v6.07h6.58V288.2h-6.7v-2.64H165.63V289h-6.41V249.68h6.3v-6.07Zm20.14,24c-2.06,0-3.37,0-4.23-.63s-1.15-1.95-1.15-4.47v-6H170.9v2.52c0,3.21-.35,7.61-2.35,10.59a15.67,15.67,0,0,0-2.92-2.06v3h12.13ZM167,256.54h-1.32v10A18.59,18.59,0,0,0,167,259Zm-1.32,22.56h12.13v-2.24H165.63Zm6.75-29.42v-6.07H171v6.07Zm4,12.76c0,.92.06,1,.4,1,.58,0,1,0,1-.34v-6.53h-1.43Zm18.89,15.45c0,2.41.34,2.69,2.29,2.69h5c1.89,0,2.23-1.31,2.58-8.64a23.61,23.61,0,0,0,7.38,3.21c-.86,10.07-2.92,13.05-9.22,13.05h-7c-6.92,0-9.16-2.29-9.16-10.25v-21h14.37V245.38H186.52v-7.67h23.07v29h-8.13v-2.12h-6.24Z"/><path class="cls-1" d="M131.05,39.36l5,.61c-.07.68-.2,1.62-.27,2.44-.75,13.54-1.63,19.3-3.46,21.47-2.16,2.57-4.8,3.18-12.73,3a21,21,0,0,0-2.1-7.66l-4.94,1.56a42.41,42.41,0,0,0-2.65-9.68l6.17-1.83a40.15,40.15,0,0,1,3,9.41l-.88.27c1.82.14,3.45.21,4.4.21,2,0,2.64-.82,3.25-4.47L120.55,57a26.73,26.73,0,0,0-3.32-7.59l5.42-2.37A28.47,28.47,0,0,1,126,53.51c.2-1.62.4-3.72.6-6.43H98.26c-.81.81-1.69,1.63-2.57,2.37l5.69,1.9c-1.08,5.15-2.71,10.63-6,14.15l-7-4.13a24.15,24.15,0,0,0,5-10A42.94,42.94,0,0,1,89.8,54c-.61-.75-1.56-1.76-2.58-2.78V66.93H77.88V35.7q-1.74,2.53-3.46,4.67a105,105,0,0,0-4-10.56c4.87-6,9.75-16.87,12.66-27.3L93.66,6c-.27.61-1,1-2,.88C90.2,11,88.65,15,86.88,19l2.31.74a2.3,2.3,0,0,1-2,1.36V44.71c7-5.35,12.67-12.73,17-21.61H91.76V15.38h6.3a53.13,53.13,0,0,0-3.86-10l7.86-2.65a46.18,46.18,0,0,1,4.47,10.37l-6.44,2.3h7.45a107.56,107.56,0,0,0,3.93-13.07L122.11,5c-.27.67-1,1.08-2.1,1.08-.88,3.18-1.83,6.3-2.85,9.28h5l2-.07,4.54.61c-.48,3.8-1.15,7.59-1.9,11.38h.75l4.54.61c-.41,3.39-1.36,9.08-1.83,11.52Zm-28.18,24a52.88,52.88,0,0,0-1.08-11.71l6.91-.95a50,50,0,0,1,1.49,11.44ZM121.9,35h-14c-.95,1.55-2,3-3,4.53h16.26ZM118.52,23.1h-4.41c-.61,1.42-1.28,2.85-2,4.27h5.55Z"/><path class="cls-1" d="M89.26,97.68V119c3.79,6.3,11.17,6.3,22.82,6.3,8,0,17.54-.27,24.39-.88a48.9,48.9,0,0,0-3.12,10c-5.08.27-11.92.47-18.42.47-16.8,0-23.85-.33-30-7.51-2.78,2.43-5.62,4.87-8.06,6.77a1.37,1.37,0,0,1-1.08,1.56L70.9,124.84a96.19,96.19,0,0,0,8.74-5.49v-12.6h-7V97.68ZM79.71,73c3.86,2.78,8.8,6.91,11.1,10.1L83,89.62C81,86.5,76.25,82,72.39,78.92ZM91,91.92h6.63a77.94,77.94,0,0,0-7.24-3.39c3.32-3.86,6-10.49,7.31-16.52l10.43,2.64V71.47l11.79.61c-.07.74-.68,1.21-2,1.49v5.08h14v8.26h-14v5h17v8.2H91Zm39.35,31.84h-9.69V122.2H105.51V124H96.3V102.22h34.07ZM108.15,91.92v-5h-6a32,32,0,0,1-3,5ZM105.51,114h15.17v-4.13H105.51Zm2.64-35.35V75a1.84,1.84,0,0,1-1.62.61c-.27,1-.61,2-1,3.05Z"/><path class="cls-1" d="M115.4,160.13c-.13,2.23-.27,4.6-.41,6.91h9.83L127,167l5.42.41c0,.74-.07,2-.13,3-.55,19.84-1.22,27.84-3.32,30.54a8,8,0,0,1-5.76,3.46,28.43,28.43,0,0,1-5.82.41h-2.71a22.93,22.93,0,0,0-2.92-9.69c2.58.2,5,.27,6.3.27a2.74,2.74,0,0,0,2.31-1c1-1.28,1.55-6.29,2-18.42H114c-1.63,10.91-5.22,21.47-14.29,29.06a25.85,25.85,0,0,0-6.78-7.11c11.38-9,12.4-23.44,12.87-37.73H96.91V152.2c-1.22,4.75-2.78,10-4.06,14,4,5.08,5.35,8.94,5.35,13,0,5.08-1.22,8-3.86,10a9.59,9.59,0,0,1-4,1.56,32.52,32.52,0,0,1-4.61.2,24,24,0,0,0-2-8.47V205H74.56v-61.5H90.81l1.49-.27,6.37,3.18a4,4,0,0,1-.61,1.22c-.27,1.08-.54,2.23-.81,3.38h13.61V140.62l11.79.61c-.07.75-.68,1.22-2,1.49V151H136v9.15ZM83.7,182.41a18.17,18.17,0,0,0,2.58.14A2.66,2.66,0,0,0,88,182c.74-.48,1-1.9,1-3.86,0-2.85-1.35-6.71-4.74-10.91,1.08-4.13,2.3-10.23,3.25-15H83.7Z"/><path class="cls-1" d="M111.4,260.71h23.78v9.83H72.32v-9.83h8.27V223.12L93,223.8c-.07.74-.68,1.22-2.1,1.49v35.42h10V209.58l12.73.67c-.07.82-.68,1.29-2.17,1.49V230.1h19.17V240H111.4Z"/><path class="cls-1" d="M76.39,284.83l4.81,1.76A74.94,74.94,0,0,0,95,278.73l9.15,8.4a3.13,3.13,0,0,1-2.17.48,141.58,141.58,0,0,1-15.65,6.77v7.92h15v9.55h-15V323.3h15.31v9.55H86.34v5.08h-10Zm57.16.2v38.88c0,7.38-2.16,11.18-14,11.18a36.61,36.61,0,0,0-3.65-10.43c1.49.13,3.18.13,4.53.13,2.85,0,3.19,0,3.19-1.22V294.79h-9.49v48.29h-10V285Z"/><path class="cls-1" d="M108.9,377.49v20c0,4.34-.61,8-8,8A23.29,23.29,0,0,0,99.55,400V412.1H91.42V385.48H89.87v19.58H82.62V390h-.07c-.61,6.91-1.63,13.89-3.59,19.17a36.59,36.59,0,0,0-7.86-4.27c3.32-9.21,3.52-22.82,3.52-32.38V350.33h32.72V371.6h-24c0,2.77,0,4.13-.06,5.89h8.19v-5.62l9.89.54c-.07.68-.54,1.08-1.76,1.29v3.79ZM98.13,359H83.29v3.86H98.13Zm1.42,26.48v12.46a6.75,6.75,0,0,0,1.36-.06c.27-.14.27-.27.27-.61V385.48Zm22.22-28.72c-.07.68-.61,1.15-1.9,1.36V394.9h-9.14V356.15Zm2.77-7.52,11.38.48c-.13.74-.61,1.29-2,1.49v49.92c0,8.6-2.64,11-15.78,11a43.07,43.07,0,0,0-2.91-9.82c3.25.13,6.63.13,7.78.13s1.49-.34,1.49-1.42Z"/><path class="cls-2" d="M207.63,32.22l4.23.52c-.06.57-.17,1.37-.23,2.06-.63,11.45-1.37,16.31-2.92,18.14-1.83,2.18-4.06,2.69-10.76,2.52A17.68,17.68,0,0,0,196.18,49L192,50.31a35.83,35.83,0,0,0-2.23-8.18L195,40.58a33.55,33.55,0,0,1,2.57,8l-.74.22c1.54.12,2.92.18,3.72.18,1.66,0,2.23-.69,2.75-3.78l-4.53,2a22.35,22.35,0,0,0-2.8-6.41l4.58-2a23.73,23.73,0,0,1,2.86,5.44c.17-1.38.34-3.15.52-5.44h-24c-.68.69-1.43,1.37-2.17,2l4.81,1.6c-.92,4.35-2.29,9-5,12l-6-3.49a20.47,20.47,0,0,0,4.23-8.48,35.83,35.83,0,0,1-3,2.24c-.52-.63-1.32-1.49-2.18-2.35V55.52H162.7V29.13q-1.47,2.14-2.92,3.95a89.65,89.65,0,0,0-3.38-8.93c4.12-5.09,8.24-14.25,10.7-23.06l8.93,3c-.23.52-.8.8-1.71.75-1.21,3.43-2.52,6.87-4,10.24l1.94.63a1.91,1.91,0,0,1-1.66,1.15V36.75A50.75,50.75,0,0,0,185,18.49H174.43V12h5.32a44.52,44.52,0,0,0-3.26-8.47l6.64-2.23A39.43,39.43,0,0,1,186.91,10L181.47,12h6.3a92.17,92.17,0,0,0,3.31-11l9,2.29c-.23.57-.8.91-1.77.91-.75,2.69-1.55,5.32-2.41,7.84h4.18l1.66-.06,3.84.52c-.4,3.21-1,6.41-1.61,9.62h.63l3.84.51c-.35,2.86-1.15,7.67-1.55,9.73ZM183.82,52.54a45,45,0,0,0-.92-9.9l5.84-.8A42,42,0,0,1,190,51.51Zm16.08-24H188.05c-.8,1.32-1.66,2.58-2.57,3.84h13.73Zm-2.86-10h-3.72c-.52,1.2-1.09,2.4-1.66,3.6h4.69Z"/><path class="cls-2" d="M172.31,81.51v18c3.21,5.32,9.45,5.32,19.29,5.32,6.75,0,14.82-.22,20.61-.74a41.52,41.52,0,0,0-2.64,8.47c-4.29.23-10.07.4-15.57.4-14.19,0-20.14-.28-25.35-6.35-2.35,2.06-4.75,4.12-6.81,5.72a1.16,1.16,0,0,1-.92,1.32l-4.12-9.16a81.2,81.2,0,0,0,7.38-4.64V89.18h-5.89V81.51Zm-8.07-20.83c3.26,2.34,7.44,5.83,9.39,8.52L167,74.7c-1.66-2.63-5.67-6.47-8.93-9Zm9.56,16h5.61a66.66,66.66,0,0,0-6.12-2.86c2.8-3.26,5-8.87,6.18-14l8.81,2.23V59.36l10,.51c-.06.63-.57,1-1.72,1.26v4.3h11.85v7H196.52v4.23h14.37v6.93H173.8Zm33.25,26.9h-8.18v-1.31H186.05v1.49h-7.79V85.34h28.79Zm-18.77-26.9V72.41h-5.09a28.82,28.82,0,0,1-2.52,4.23ZM186.05,95.3h12.82V91.81H186.05Zm2.23-29.87v-3.1a1.53,1.53,0,0,1-1.37.52c-.23.86-.52,1.72-.8,2.58Z"/><path class="cls-2" d="M182.56,120.72c-.17.8-.92,1.09-1.89,1.26-.52,2.57-1.26,7.21-1.89,10.47,1-.11,2.86-.23,3.89-.23,9.85,0,12.71,7,12.71,16.14v.06c-.17,9.73-2.35,21.75-12.77,21.75-2.23,0-5.78-1.2-10.24-4.58a43.17,43.17,0,0,0,2.86-7.5c3.55,2.41,5.72,3,7.1,3,2,0,2.8-1.95,3.55-5a48.26,48.26,0,0,0,.91-8.24c0-5.27-1.6-7.67-4.86-7.67a30.67,30.67,0,0,0-4.75.34c-2.46,9.85-5.44,20.09-10,29.36L159.09,166a106,106,0,0,0,9.22-24.44c-1.61.29-5.73.92-8,1.32l-.68-8.59c2.34-.22,7-.74,10.24-1.14.74-4.18,1.37-8.81,1.83-13.51Zm10.19-2a29,29,0,0,1,6.41,7.85L195,129.36a28.33,28.33,0,0,0-6.18-8Zm9.84,33.14c-1.15-6.87-4.41-14.71-8.41-18.48l7.32-4.53c5.15,4.93,8.93,12.77,10.25,19.87Zm-.69-35.48a28.74,28.74,0,0,1,6.41,7.84L204.13,127a28,28,0,0,0-6.18-8Z"/><path class="cls-3" d="M156.63,216.14c3.15-4.87,4.69-11.85,5.44-19.64l8.18,1.66c-.86,8.13-2.17,16.72-5.78,22.44Zm16.14-23.41,10.42.57c-.06.63-.52,1-1.72,1.26v24.72c0,2.87.29,3.21,2.75,3.21h6.29c2.46,0,2.92-1.72,3.32-10.19a24.23,24.23,0,0,0,7.73,3.55c-.86,10.7-3,14.19-10.3,14.19H183c-8.07,0-10.24-2.63-10.24-10.76Zm18.89,1.14c-4.35-3.83-12.14-8.41-18.83-11.1l5.43-6.47a78.5,78.5,0,0,1,19,10.25Zm12.47,24.79c-1.08-5.79-4.92-14.54-9.38-20.78l7.67-3.84c4.81,6.19,8.81,14.43,10.19,20.38Z"/><path class="cls-3" d="M157.37,243.5v-6.87h27.88v6.87h-7.62v6.07h6.59v38.52h-6.7v-2.64H165.39v3.44H159V249.57h6.29V243.5Zm20.15,24c-2.06,0-3.38,0-4.23-.63s-1.15-2-1.15-4.47v-6h-1.49V259c0,3.21-.34,7.62-2.34,10.59a16,16,0,0,0-2.92-2.06v3h12.13Zm-10.82-11.1h-1.31v10c1.2-2.46,1.31-5.78,1.31-7.61ZM165.39,279h12.13v-2.24H165.39Zm6.75-29.42V243.5h-1.43v6.07Zm4,12.76c0,.92.06,1,.4,1,.57,0,1,0,1-.34v-6.52h-1.43ZM195,277.78c0,2.41.34,2.69,2.29,2.69h5c1.88,0,2.23-1.31,2.57-8.64a23.77,23.77,0,0,0,7.39,3.21c-.86,10.07-2.92,13-9.22,13h-7c-6.93,0-9.16-2.29-9.16-10.25v-21h14.37V245.27H186.28V237.6h23.06v29h-8.12v-2.11H195Z"/><path class="cls-2" d="M193.49,315a71,71,0,0,1-14.77,2.64,192.56,192.56,0,0,1-9.56,33.88l-9-3.15a109.63,109.63,0,0,0,9.56-30.28c-.8.06-4.64.06-5.61.06-1.2,0-2.35,0-3.26-.06l-.17-8.24c1.83.12,4.8.17,7.49.17.86,0,1.78-.05,2.69-.05.4-3.15.75-7,1-10.31l11,.92a1.84,1.84,0,0,1-1.61,1.43c-.23,1.89-.68,5-1,7.1a57,57,0,0,0,11.74-2.75Zm15.28,35.43c-1.94.12-4,.17-6,.17a60.78,60.78,0,0,1-11.68-.91c-5.6-1.2-8.18-4.93-8.12-9.1a13.51,13.51,0,0,1,3.66-8.53l7.44,2.63c-1.66,1.6-2.46,3.15-2.46,4.41,0,2.52,2.35,3.09,9.22,3.09,2.68,0,5.55-.17,7.84-.4Zm-21.46-29.48a74.2,74.2,0,0,1,20.26-2.74l.06,8.3a70.42,70.42,0,0,0-18.49,1.89Zm10-19.8a38,38,0,0,1,7.1,7.21l-3.78,3.32a38.94,38.94,0,0,0-6.81-7.38Zm8.25-3.26a32.36,32.36,0,0,1,7,7.15l-3.72,3.32a42.85,42.85,0,0,0-6.82-7.27Z"/><path class="cls-2" d="M173.29,361.13c-.06.57-.86,1.09-1.55,1.2-1.49,6.13-3,16.54-3,21.24,0,1.77,0,4.12.11,6.52.86-1.89,2.46-5.27,3.78-7.55l4.86,6.63a52.87,52.87,0,0,0-5.38,8.88,7.86,7.86,0,0,0-.8,3.49,12.14,12.14,0,0,0,.17,1.89l-8.53,1.31a77.91,77.91,0,0,1-2.63-20.83,156.11,156.11,0,0,1,2.35-24.1Zm5.49,11.1c2.4,0,9.1-.11,12.53-.34-.28-6.7-.63-12.59-1-14.42l11.22.34a2.19,2.19,0,0,1-1.77,1.72c0,2.46.11,7.09.28,11.84a57.8,57.8,0,0,0,9.1-1.54l.69,8.53c-2.58.45-5.78.91-9.5,1.2l0,3.15c0,11.9-3.09,20.89-13.45,26.84a47.62,47.62,0,0,0-7-5.95c9.79-5.1,11.68-11.79,11.68-20l-.06-3.67c-3.32.23-8.41.35-12.59.35Z"/><path class="cls-2" d="M203.73,437.14a1.66,1.66,0,0,1-.57.06,3,3,0,0,1-1.43-.4c-17.34,4.52-29,10-28.85,15.45.06,3.72,3.78,5.33,11.16,5.33a129.79,129.79,0,0,0,20.21-1.66l.8,8.81c-6.3.92-17.86,1.15-21.18,1.15-9.15,0-20-1.89-20-13.28,0-6,5-10.88,13.28-15.4-2.23-4.46-2.8-10.7-2.69-22.78l12,1c-.06.86-.63,1.32-1.95,1.49-.05,1.83-.05,3.55-.05,5.21,0,4.64.22,8.41,1,11.1,4.57-2,9.78-3.95,15.39-5.89Zm-7.32-22.72a35.86,35.86,0,0,1,6.41,7.84l-4.29,3.15a38.34,38.34,0,0,0-6.19-8Zm8.7-2.58a29.7,29.7,0,0,1,6.41,7.85l-4.07,3a37.82,37.82,0,0,0-6.18-8Z"/><path class="cls-2" d="M199.73,470.34a125.85,125.85,0,0,1,12,12l-7.1,6.41A136.19,136.19,0,0,0,193.2,476Z"/><path class="cls-3" d="M128.38,38.21l5,.61c-.07.68-.21,1.63-.28,2.44-.74,13.55-1.62,19.31-3.45,21.47-2.17,2.58-4.81,3.19-12.73,3a21,21,0,0,0-2.1-7.65l-5,1.56a42.43,42.43,0,0,0-2.64-9.69l6.16-1.83a39.61,39.61,0,0,1,3,9.42l-.88.27c1.83.13,3.46.2,4.4.2,2,0,2.65-.81,3.26-4.47l-5.36,2.37a26.47,26.47,0,0,0-3.31-7.58L120,45.94a27.87,27.87,0,0,1,3.39,6.43c.2-1.63.41-3.72.61-6.43H95.6c-.81.81-1.69,1.62-2.57,2.37l5.69,1.89c-1.09,5.15-2.71,10.64-6,14.16l-7-4.13a24.13,24.13,0,0,0,5-10,42.94,42.94,0,0,1-3.59,2.64c-.61-.74-1.55-1.76-2.57-2.77V65.78H75.21V34.56q-1.72,2.53-3.45,4.67a106.81,106.81,0,0,0-4-10.57c4.88-6,9.76-16.86,12.67-27.29L91,4.89c-.27.61-.94,1-2,.88-1.42,4.06-3,8.13-4.74,12.12l2.3.75a2.26,2.26,0,0,1-2,1.35V43.56c7-5.35,12.67-12.73,17-21.6H89.1V14.24h6.3a53.9,53.9,0,0,0-3.86-10l7.85-2.64a45.67,45.67,0,0,1,4.47,10.36l-6.43,2.31h7.45a110.09,110.09,0,0,0,3.93-13.08l10.63,2.71c-.27.68-1,1.09-2.1,1.09-.88,3.18-1.83,6.3-2.84,9.28h4.94l2-.07,4.54.61c-.48,3.79-1.16,7.58-1.9,11.38h.74l4.54.61c-.41,3.38-1.35,9.07-1.83,11.51Zm-28.17,24a53,53,0,0,0-1.09-11.72l6.91-.95A49.06,49.06,0,0,1,107.52,61Zm19-28.45h-14c-1,1.56-2,3-3,4.54h16.26ZM115.85,22h-4.4c-.61,1.42-1.29,2.84-2,4.27H115Z"/><path class="cls-3" d="M86.59,96.53V117.8c3.79,6.3,11.18,6.3,22.83,6.3,8,0,17.54-.27,24.38-.88a49.41,49.41,0,0,0-3.11,10c-5.08.27-11.93.47-18.43.47-16.8,0-23.84-.34-30-7.52-2.78,2.44-5.63,4.88-8.06,6.77a1.37,1.37,0,0,1-1.09,1.56L68.24,123.7A98.33,98.33,0,0,0,77,118.21v-12.6H70V96.53ZM77,71.88C80.9,74.66,85.85,78.79,88.15,82l-7.86,6.5c-2-3.11-6.7-7.65-10.56-10.7Zm11.31,18.9H95a76.73,76.73,0,0,0-7.25-3.39c3.32-3.86,6-10.5,7.32-16.53l10.43,2.64V70.32l11.79.61c-.07.75-.68,1.22-2,1.49V77.5h14v8.26h-14v5h17V99H88.35Zm39.36,31.83H118v-1.56H102.85v1.76H93.64V101.07h34.07ZM105.49,90.78v-5h-6a32.92,32.92,0,0,1-3,5Zm-2.64,22.08H118v-4.13H102.85Zm2.64-35.36V73.84a1.82,1.82,0,0,1-1.63.61c-.27,1-.61,2-.94,3Z"/><path class="cls-3" d="M112.74,159c-.14,2.24-.27,4.61-.41,6.91h9.82l2.17-.06,5.42.4c0,.75-.07,2-.14,3-.54,19.85-1.22,27.84-3.32,30.55a7.93,7.93,0,0,1-5.75,3.45,28.54,28.54,0,0,1-5.83.41H112a22.77,22.77,0,0,0-2.91-9.68c2.57.2,4.94.27,6.3.27a2.73,2.73,0,0,0,2.3-1c1-1.29,1.56-6.3,2-18.42h-8.34c-1.62,10.9-5.21,21.47-14.29,29a26.25,26.25,0,0,0-6.77-7.11c11.38-9,12.39-23.43,12.87-37.73H94.25v-7.92C93,155.8,91.47,161,90.18,165c4,5.08,5.35,8.94,5.35,13,0,5.08-1.22,8-3.86,9.95a9.41,9.41,0,0,1-4,1.56,31,31,0,0,1-4.61.21,24.34,24.34,0,0,0-2-8.47v22.55H71.89v-61.5H88.15l1.49-.27L96,145.23a4.11,4.11,0,0,1-.61,1.22c-.27,1.09-.54,2.24-.82,3.39H108.2V139.48l11.78.61c-.06.74-.67,1.22-2,1.49v8.26h15.38V159ZM81,181.27a19.34,19.34,0,0,0,2.57.13,2.57,2.57,0,0,0,1.76-.54c.75-.47,1-1.89,1-3.86,0-2.84-1.36-6.7-4.74-10.9,1.08-4.14,2.3-10.23,3.25-15H81Z"/><path class="cls-3" d="M108.74,259.57h23.77v9.82H69.66v-9.82h8.26V222l12.4.67c-.07.75-.68,1.22-2.1,1.49v35.43h10V208.43l12.74.68c-.07.81-.68,1.29-2.17,1.49V229h19.17v9.89H108.74Z"/><path class="cls-3" d="M73.72,283.68l4.81,1.77a75.29,75.29,0,0,0,13.82-7.86l9.14,8.4a3.15,3.15,0,0,1-2.16.47,139.64,139.64,0,0,1-15.65,6.78v7.92h15v9.55h-15v11.45H99v9.55H83.68v5.08h-10Zm57.17.21v38.88c0,7.38-2.17,11.17-14,11.17a37,37,0,0,0-3.66-10.43c1.49.14,3.18.14,4.54.14,2.84,0,3.18,0,3.18-1.22V293.64h-9.48v48.3h-10V283.89Z"/><path class="cls-3" d="M106.23,376.34v20c0,4.33-.61,8-8,8a23.19,23.19,0,0,0-1.35-5.49V411H88.76V384.34H87.2v19.57H80v-15h-.06c-.61,6.9-1.63,13.88-3.59,19.16a36.55,36.55,0,0,0-7.86-4.26C71.76,394.57,72,381,72,371.4V349.18h32.72v21.27H80.63c0,2.78,0,4.13-.07,5.89h8.2v-5.62l9.89.54c-.07.68-.54,1.09-1.76,1.29v3.79ZM95.46,357.85H80.63v3.86H95.46Zm1.43,26.49V396.8a5.7,5.7,0,0,0,1.35-.07c.27-.13.27-.27.27-.61V384.34Zm22.21-28.72c-.06.68-.61,1.15-1.89,1.35v36.78h-9.15V355Zm2.78-7.52,11.38.47c-.14.75-.61,1.29-2,1.49V400c0,8.61-2.65,11-15.79,11a42.72,42.72,0,0,0-2.91-9.82c3.25.14,6.64.14,7.79.14s1.49-.34,1.49-1.42Z"/><path class="cls-2" d="M95,423.9c-.18.8-.92,1.09-1.89,1.26-.52,2.58-1.26,7.21-1.89,10.48,1-.12,2.86-.23,3.89-.23,9.84,0,12.71,7,12.71,16.14v.05c-.18,9.73-2.35,21.75-12.77,21.75-2.23,0-5.78-1.2-10.24-4.57a44.31,44.31,0,0,0,2.86-7.5c3.55,2.4,5.72,3,7.1,3,2,0,2.8-1.94,3.55-5a48.15,48.15,0,0,0,.91-8.24c-.06-5.27-1.6-7.67-4.86-7.67a31.88,31.88,0,0,0-4.75.34c-2.47,9.85-5.44,20.09-10,29.37l-8.07-3.95a105.66,105.66,0,0,0,9.21-24.44c-1.6.28-5.72.91-8,1.31l-.69-8.58c2.35-.23,7-.75,10.25-1.15.74-4.17,1.37-8.81,1.83-13.5ZM105.21,422a28.74,28.74,0,0,1,6.41,7.84l-4.17,2.75a28.08,28.08,0,0,0-6.19-8Zm9.85,33.14c-1.15-6.87-4.41-14.71-8.42-18.49l7.33-4.52c5.15,4.92,8.93,12.76,10.25,19.86Zm-.69-35.49a28.89,28.89,0,0,1,6.41,7.84l-4.18,2.75a28.18,28.18,0,0,0-6.18-8Z"/><path class="cls-2" d="M49,20.2a139.71,139.71,0,0,1-17.28,1.61c.06,3.89.46,7.44.57,9.61a19.3,19.3,0,0,1,.23,1.95A73,73,0,0,1,50.94,43.1l-5.72,8.24a83.5,83.5,0,0,0-12.37-8.76,11.09,11.09,0,0,1-2.52,7.84c-1.54,1.84-4.86,3-9.78,3.1C12.13,53.57,5.21,49.28,5,42.64,5,35.14,12.19,31.82,19.29,31.77c1,0,3.26.05,4.35.17l-.17-1.72C23,22.44,22.15,8.41,22.09,2.52L33,3c0,.58-.46,1.09-1.43,1.32-.06,1.32.05,7.78.05,9.21a123.72,123.72,0,0,0,16.6-2ZM19,38.75c-3.6,0-6.12,1.49-6.12,3.55C12.88,45,16,46,19.58,46,22.21,46,24,44.36,24,42.24a23.2,23.2,0,0,0-.17-2.75A15.81,15.81,0,0,0,19,38.75Z"/><path class="cls-2" d="M36.06,117.8c-4.52-5.21-12.88-12.88-21.81-19.75-3.72-2.86-4.41-4.46-4.41-7.61a7.16,7.16,0,0,1,2.52-5.73c6-5.6,16.43-16.14,20.32-20.31l9.73,6.23a2.56,2.56,0,0,1-2.29.75c-5,4.52-12.7,11.22-17.4,15.57-1.26,1.2-2.63,2.34-2.63,3.14s1.6,2,3.66,3.38A177.88,177.88,0,0,1,45,110.93Z"/><path class="cls-2" d="M42.41,147.39a105.19,105.19,0,0,1-11.27-16.94l8.24-3.26c3.55,7,10.64,15.17,16.94,20.26a42.67,42.67,0,0,0-7.1,7.55c-.86-.8-1.66-1.66-2.51-2.57-.52,16.2-1.15,22.72-3,25.07-2.52,3.26-5.55,3.66-14.19,3.49a19.72,19.72,0,0,0-2.75-8.41c2.86.23,5.55.28,7,.28A2.81,2.81,0,0,0,36,172c1-1.14,1.55-5.89,2-16.48H28.33c-1.6,10.13-4.58,20.09-20,26.1a28.13,28.13,0,0,0-5.44-7.73c12.54-4.12,15.51-10.81,16.6-18.37H10.88v-4a43.25,43.25,0,0,1-4.3,3.78A58.85,58.85,0,0,0,0,148.88c6.75-4.58,13.17-13.11,16.54-21.58l10.13,3.44a1.71,1.71,0,0,1-1.89.74,74.22,74.22,0,0,1-10.18,16H40.18Z"/><path class="cls-2" d="M26.1,192.67c-.17.8-.92,1.09-1.89,1.26-.51,2.58-1.26,7.21-1.89,10.47,1-.11,2.86-.22,3.89-.22,9.85,0,12.71,7,12.71,16.14v.05c-.17,9.73-2.35,21.75-12.76,21.75-2.24,0-5.78-1.2-10.25-4.58a42.57,42.57,0,0,0,2.86-7.49c3.55,2.4,5.73,3,7.1,3,2,0,2.81-2,3.55-5a48.15,48.15,0,0,0,.91-8.24c0-5.27-1.6-7.67-4.86-7.67a32,32,0,0,0-4.75.34c-2.46,9.85-5.44,20.09-10,29.36l-8.07-3.95a105.36,105.36,0,0,0,9.22-24.44c-1.6.29-5.73.92-8,1.32l-.68-8.58c2.35-.23,7-.75,10.24-1.15.75-4.18,1.38-8.81,1.84-13.51Zm20,28.56c-1.09-7.27-6-14.48-10.59-18.66l6.76-4.69c5.84,4.41,11.79,13.22,12.82,20Z"/><path class="cls-2" d="M20.83,266.17a1.6,1.6,0,0,1-1.48.91c-.81,7.73-1.21,11.05-2.35,12.65h.06a36.32,36.32,0,0,1,17.45-5.21c8.25,0,14.77,4.64,14.77,13.45,0,11.11-8.07,16.77-31.31,17.63a46.52,46.52,0,0,0-3.2-8c18.66-.75,25.07-3.32,25.07-9.5,0-3.38-2.58-5.84-6.93-5.84s-13.56,1.89-17.86,8.47l-8-3.44c1.26-.86,3.38-12.36,3.49-22.49Zm-2.17-12.54c6.52.57,15.8,2,22,4.24l-2.81,8.53c-5.66-2.29-15.74-4.07-21.75-4.7Z"/><path class="cls-2" d="M27.13,317.4a2.14,2.14,0,0,1-1.72,1.31c-.28,1.78-.86,4.53-1.14,5.9A57,57,0,0,0,37,322.09l1,8.19a109.68,109.68,0,0,1-15.34,2.34,103.85,103.85,0,0,1-10.53,27l-8.7-3a72.08,72.08,0,0,0,10-23.81H4.29V325H14.82a79.5,79.5,0,0,0,1-8.41ZM41.5,342.58c0,2.92.11,6.24.4,9.22a74.24,74.24,0,0,1,10.59,5.43l-4,8.13A61.61,61.61,0,0,0,41.84,361c-.06,1.49-1,8-12,8-4.75,0-11.62-2.35-11.62-9.73.11-6,5.84-9.68,11.67-9.68,1.15,0,2.29.06,3.5.18-.12-1.55-.12-4.13-.12-6.19Zm-7.62,14.65a12.24,12.24,0,0,0-4.17-.74c-2.46,0-4.07,1.26-4.13,2.75s1.61,2.74,4.3,2.74c2.4,0,4-1.37,4-3.32Zm17.8-17.91a108.6,108.6,0,0,0-19.8,2.12l-1.14-7.5a94.27,94.27,0,0,1,20.43-2.75Z"/><path class="cls-2" d="M16,386.6a1.66,1.66,0,0,1-1.43,1,88,88,0,0,0-1.66,16.31c0,10.42,2.8,15.11,5.72,15.11,1.78,0,3.89-5.66,4.75-9.67a44.79,44.79,0,0,0,7.1,5.61c-2.63,9.67-6.64,13.56-12.13,13.56-9.73,0-13.8-12.13-14.26-20.72-.11-2-.17-4.17-.17-6.46A132.09,132.09,0,0,1,5,384.6Zm29.19,28.1c-1.78-10.41-6.35-16-13.11-20.14l5.55-6.47a32.25,32.25,0,0,1,16.72,23.58Z"/></g></g></svg>