<?xml version="1.0" encoding="utf-8"?>
<!-- Generator: Adobe Illustrator 25.3.1, SVG Export Plug-In . SVG Version: 6.00 Build 0)  -->
<svg version="1.1" id="Layer_1" xmlns="http://www.w3.org/2000/svg" xmlns:xlink="http://www.w3.org/1999/xlink" x="0px" y="0px"
	 viewBox="0 0 77.2 67.6" style="enable-background:new 0 0 77.2 67.6;" xml:space="preserve">
<style type="text/css">
	.st0{fill:#514736;}
</style>
<g id="Layer_2_1_">
	<g id="Layer_1-2">
		<path class="st0" d="M77.2,31.4c0,7-2.7,13.4-8,19c0.8,1.9,1.7,3.8,2.8,5.5c0.8,1.4,1.8,2.8,2.9,4.1c0.8,0.9,1.2,1.4,1.4,1.6
			c1,1,1.2,2.6,0.6,3.8c-0.5,1.4-1.8,2.3-3.3,2.2c-7.6,0-14.9-2.5-21-6.9c-4.5,1.4-9.3,2.1-14,2.1c-10.7,0-19.8-3.1-27.3-9.2
			S0,40,0,31.4c0-8.6,3.8-16,11.3-22.2S27.9,0,38.6,0c10.7,0,19.8,3.1,27.3,9.2S77.2,22.7,77.2,31.4z M50.4,53.7l3.5-1.1l3,2
			c2.6,2,5.5,3.5,8.6,4.5c-1.1-2-2.1-4.1-3-6.2l-1.5-4.3l3-3.3c4-4.2,6-8.9,6-14c0-6.6-3.1-12.3-9.2-17S47.2,7.3,38.6,7.2
			c-8.7,0-16.1,2.4-22.2,7.1s-9.2,10.4-9.2,17c0,6.7,3.1,12.3,9.2,17s13.5,7.1,22.2,7.2C42.6,55.5,46.6,54.9,50.4,53.7z M26.5,31.4
			c0,2.6-2.2,4.8-4.8,4.8c-2.7,0-4.8-2.2-4.8-4.8c0-1.3,0.5-2.5,1.4-3.4c1.8-1.9,4.8-1.9,6.7-0.1c0,0,0.1,0.1,0.1,0.1
			C26,28.9,26.5,30.1,26.5,31.4z M43.4,31.4c0,2.6-2.1,4.8-4.8,4.8c-1.3,0-2.5-0.5-3.5-1.4c-1.9-1.8-2-4.8-0.2-6.8s4.8-2,6.8-0.2
			c0.1,0.1,0.2,0.2,0.2,0.2C42.9,28.9,43.4,30.1,43.4,31.4z M60.3,31.4c0.1,2.7-2.1,4.9-4.8,5c-2.7,0.1-4.9-2.1-5-4.8
			c-0.1-2.7,2.1-4.9,4.8-5c1.3,0,2.6,0.5,3.5,1.4C59.8,28.9,60.3,30.1,60.3,31.4z"/>
	</g>
</g>
</svg>
