<svg xmlns="http://www.w3.org/2000/svg" viewBox="0 0 77.23 67.55"><defs><style>.cls-1{fill:#8c7d60;}</style></defs><g id="Layer_2" data-name="Layer 2"><g id="Layer_1-2" data-name="Layer 1"><path class="cls-1" d="M77.2,31.36q0,10.56-8,19A33.44,33.44,0,0,0,72,55.86a31.63,31.63,0,0,0,2.87,4.07c.75.86,1.23,1.39,1.43,1.59a3.35,3.35,0,0,1,.6,3.84,3.29,3.29,0,0,1-3.31,2.19,35.67,35.67,0,0,1-21-6.94,47.81,47.81,0,0,1-14,2.11q-16,0-27.29-9.2T0,31.36Q0,18.4,11.31,9.2T38.6,0q16,0,27.29,9.2T77.2,31.36ZM50.36,53.68l3.47-1.06,3,2a30.63,30.63,0,0,0,8.6,4.52,50,50,0,0,1-3-6.18L60.91,48.7l3-3.32q6-6.33,6-14,0-9.94-9.2-17T38.6,7.24q-13,0-22.17,7.08t-9.19,17q0,10,9.19,17T38.6,55.48A39,39,0,0,0,50.36,53.68ZM26.54,31.36a4.92,4.92,0,0,1-4.83,4.83A4.8,4.8,0,0,1,18.32,28a4.73,4.73,0,0,1,6.78,0A4.62,4.62,0,0,1,26.54,31.36Zm16.88,0a4.79,4.79,0,0,1-8.21,3.39A4.79,4.79,0,1,1,42,28,4.61,4.61,0,0,1,43.42,31.36Zm16.89,0A4.88,4.88,0,1,1,58.88,28,4.63,4.63,0,0,1,60.31,31.36Z"/></g></g></svg>