<svg xmlns="http://www.w3.org/2000/svg" viewBox="0 0 27 21"><g id="Layer_2" data-name="Layer 2"><g id="Layer_1-2" data-name="Layer 1"><path d="M26.81,10.27a.6.6,0,0,1,.19.46.45.45,0,0,1-.14.33l-1.17,1.46a.56.56,0,0,1-.42.23.52.52,0,0,1-.38-.14l-11-9.09a.77.77,0,0,0-.76,0l-11,9.09a.45.45,0,0,1-.33.14.6.6,0,0,1-.47-.23L.14,11.06A.45.45,0,0,1,0,10.73a.6.6,0,0,1,.19-.46L12.05.52A2.25,2.25,0,0,1,13.5,0a2.1,2.1,0,0,1,1.41.52L19.12,4V.56a.56.56,0,0,1,.17-.4.54.54,0,0,1,.4-.16h2.62a.54.54,0,0,1,.4.16.56.56,0,0,1,.17.4V7.08ZM13.12,5.44a.77.77,0,0,1,.76,0l8.62,7.12v7.69a.72.72,0,0,1-.75.75H16.5a.71.71,0,0,1-.54-.23.77.77,0,0,1-.21-.52v-4.5a.84.84,0,0,0-.09-.37.71.71,0,0,0-.28-.29A.92.92,0,0,0,15,15H12a.72.72,0,0,0-.75.75v4.5a.77.77,0,0,1-.21.52.71.71,0,0,1-.54.23H5.25a.72.72,0,0,1-.75-.75V12.56Z"/></g></g></svg>