<svg xmlns="http://www.w3.org/2000/svg" viewBox="0 0 18 24"><g id="Layer_2" data-name="Layer 2"><g id="Layer_1-2" data-name="Layer 1"><path d="M8.06,23.53l-2.55-3.7c-1-1.38-1.63-2.35-2-2.91s-.88-1.26-1.41-2.08-.88-1.42-1-1.76S.65,12.3.45,11.77a6,6,0,0,1-.38-1.39A11.11,11.11,0,0,1,0,9,8.74,8.74,0,0,1,2.62,2.62,8.74,8.74,0,0,1,9,0a8.74,8.74,0,0,1,6.38,2.62A8.74,8.74,0,0,1,18,9a11.11,11.11,0,0,1-.07,1.38,6,6,0,0,1-.38,1.39c-.2.53-.39,1-.56,1.31s-.52.93-1,1.76-1,1.52-1.41,2.08-1.08,1.53-2,2.91l-2.55,3.7A1.08,1.08,0,0,1,9,24,1.08,1.08,0,0,1,8.06,23.53ZM6.35,11.65a3.74,3.74,0,0,0,5.3,0A3.62,3.62,0,0,0,12.75,9,3.76,3.76,0,0,0,9,5.25,3.76,3.76,0,0,0,5.25,9,3.62,3.62,0,0,0,6.35,11.65Z"/></g></g></svg>