<svg xmlns="http://www.w3.org/2000/svg" viewBox="0 0 282.92 52.3"><defs><style>.cls-1{fill:#514736;}.cls-2{fill:#8c7d5e;}</style></defs><g id="Layer_2" data-name="Layer 2"><g id="Layer_1-2" data-name="Layer 1"><g id="レイヤー_2" data-name="レイヤー 2"><g id="process"><path class="cls-1" d="M87.32,25.69s.51,0,.59.19a2.82,2.82,0,0,1,.15,1s-.13,1-.13,1.2a8.36,8.36,0,0,1-.23,1.5,2.53,2.53,0,0,1-.57,1.28,2.4,2.4,0,0,1-1.14.82c-.46.09-1,.38-1.59.49s-1.1.1-1.83.18a17,17,0,0,1-2.26.11H77.16l-5.26-.19a9.6,9.6,0,0,1-2.5-.8,2.83,2.83,0,0,1-1.41-2c-.1-.77,0-3.13-.08-3.82s.12-6.91.12-6.91V13.61l.12-6.06L68.28.71a.69.69,0,0,1,0-.35c.07-.17.11-.38.57-.36s2.4,0,2.71.06a5.23,5.23,0,0,1,1.83.49A5.14,5.14,0,0,1,74.78,1.7a2.9,2.9,0,0,1,.72,1.94c0,1,.06,6.42,0,6.63a5.61,5.61,0,0,0,.06.92c0,.3.06,8.73.06,8.73v2.72c0,.28-.06,1.6-.1,1.89a2.58,2.58,0,0,0,.21.95c.08.17.31.23.76.25s4.22,0,4.22,0l5.73.06Z"/><path class="cls-1" d="M111.64,20.32a17.22,17.22,0,0,0-.5-3.85,21.08,21.08,0,0,0-1-2.86,7.85,7.85,0,0,0-1.45-2.33,8.14,8.14,0,0,0-3.54-2.4A11.41,11.41,0,0,0,96.5,9a10.54,10.54,0,0,0-2.18,1.58,20.54,20.54,0,0,0-2.49,3.09c-2,2.69-2.44,7.13-1.43,10.31A14,14,0,0,0,94,30.4c2.76,2.54,8,2.75,11.5,1.9,2.14-.52,3.42-2.7,4.37-4.51A16,16,0,0,0,111.64,20.32Zm-7.07.15a13.6,13.6,0,0,1-.4,3.76,3.57,3.57,0,0,1-3.41,3.06c-2.41,0-3.09-2.7-3.13-3s-.21-4.28-.23-4.82c-.08-2.28.67-5.79,3.58-5.79a2.89,2.89,0,0,1,3.13,2.19A27.37,27.37,0,0,1,104.57,20.47Z"/><path class="cls-1" d="M135.56,19.46a25.45,25.45,0,0,0-.25-2.9c-1-6.26-9.46-10-14.9-7.43-2.17,1-3.89,3.66-5,5.73a11.27,11.27,0,0,0-.74,3.93,20.86,20.86,0,0,0,1.16,9.13,10.6,10.6,0,0,0,3,3.32c2.35,1.73,5.93,1.55,8.39.25a7.24,7.24,0,0,0,1.07-1v.31a5.69,5.69,0,0,1-.19,1c-.08.4-.33,1.77-.46,2.19a5.16,5.16,0,0,1-1.09,1.6,9.27,9.27,0,0,1-2.11,1,9.08,9.08,0,0,1-2.75.19,7.65,7.65,0,0,1-1.71-.23,11.59,11.59,0,0,1-1.89-.7,1,1,0,0,0-.8.09,5.46,5.46,0,0,0-.46.9,18.79,18.79,0,0,0-.74,2.19A8.78,8.78,0,0,0,116,40.8c.06.16.06.25.54.44a46.92,46.92,0,0,0,5.39.88c4.25,0,8.54.38,11.13-3.66.17-.27,1-2.08,1.26-2.61a29.2,29.2,0,0,0,.9-3.51c.1-.51.32-4.3.32-4.5S135.58,20.09,135.56,19.46Zm-7.13-1.31c0,1.08-.06,4.55-.06,4.68a6.49,6.49,0,0,1-.09,1.76,2.76,2.76,0,0,1-2.77,2.09,3.14,3.14,0,0,1-3-2.09,29.88,29.88,0,0,1-.46-3.13c0-.53.14-3.47.12-4a7.44,7.44,0,0,1,.66-2.58,3.41,3.41,0,0,1,2.52-1.48A2.93,2.93,0,0,1,127,14a5,5,0,0,1,1.28,1.32A10,10,0,0,1,128.43,18.15Z"/><path class="cls-1" d="M188.62,16.14a6.86,6.86,0,0,0-.53-2.14,11.19,11.19,0,0,0-2.1-3,20.4,20.4,0,0,0-2.5-1.81c-.43-.21-1.48-.61-2.17-.84a15.06,15.06,0,0,0-2.84-.4h-1.2a16.88,16.88,0,0,0-2.86.8,9.17,9.17,0,0,0-2.3,1.61c-3.08,2.67-3.84,7-3.61,10.8.06,1,.42,3,.65,4.18.7,3.55,4,6.87,7.66,7.2a23.66,23.66,0,0,0,8.12-.82c.52-.13,2.18-1,2.4-1.07s.46-.59.48-.87a4.8,4.8,0,0,0-.19-1.36,14.4,14.4,0,0,0-.59-1.67,1.55,1.55,0,0,0-.76-.69.75.75,0,0,0-.48.1l-1,.47a14.78,14.78,0,0,1-2.65.42c-.55.06-1.66.06-2,.08a9.77,9.77,0,0,1-2.21-.4c-.82-.23-2-2.14-2.14-2.5a2.8,2.8,0,0,1-.11-1.49c.1-.38.63-.47.69-.49s4.28.11,4.36.09,2.67,0,3.55,0h2.53a3.23,3.23,0,0,0,1.2-.11,1.59,1.59,0,0,0,.65-.61,9.73,9.73,0,0,0,.11-1.43A32.27,32.27,0,0,0,188.62,16.14ZM182,17.44c-.06.36-.51.46-1.05.42-1.51-.11-3-.1-4.53-.19a4.21,4.21,0,0,1-.71,0c-.11,0-.13-.63,0-1.37a6.56,6.56,0,0,1,1.6-2.57,2.91,2.91,0,0,1,1.15-.67l.76-.15a1.81,1.81,0,0,1,1.41.45,5.6,5.6,0,0,1,1.29,2A9.06,9.06,0,0,1,182,17.44Z"/><path class="cls-1" d="M193,32.23s-.31-4.75-.31-5.34.25-6.4.29-6.88.28-5.1.28-5.62-.09-2.29-.15-3a4.63,4.63,0,0,0-.69-1.76.25.25,0,0,1,0-.36.3.3,0,0,1,.11-.06,12.31,12.31,0,0,1,2.68-.57,10.37,10.37,0,0,1,2,.37A5.67,5.67,0,0,1,199,10a5.22,5.22,0,0,1,.76.8c.1.13.42-.08.55-.15a18.74,18.74,0,0,1,2.25-1.4A13.57,13.57,0,0,1,205,8.44a13,13,0,0,1,2.92.09,8.6,8.6,0,0,1,2.57,1.37,5.91,5.91,0,0,1,1.7,2.23,8.23,8.23,0,0,1,.68,2.63c0,.78.06,2.63.12,2.92s.23,7.89.23,7.89-.1,3.79-.08,3.89a6.36,6.36,0,0,1-.46,1.54,1.63,1.63,0,0,1-.55.74,4.34,4.34,0,0,1-1.47.31c-.66,0-2,.11-2.42.08a2.3,2.3,0,0,1-1.52-.54c-1.94-1.87-1.25-5.67-1.32-8.1,0-.68,0-6.74-.13-7.22a3,3,0,0,0-1.39-1.41,2.59,2.59,0,0,0-1.78,0,11.45,11.45,0,0,0-1.81,1.44,3.73,3.73,0,0,0-.53,1.8c0,.64.08,1.54.1,2.55s.19,9.17.19,9.17V31a1.17,1.17,0,0,1-.35.57,1.63,1.63,0,0,1-1,.42c-.55,0-2,.09-2.61.11s-1.67,0-1.9,0Z"/><path class="cls-1" d="M238,19.73a15.87,15.87,0,0,0-.48-4,11.43,11.43,0,0,0-6.2-7.09c-2.58-1.16-6-.64-8.57.23a10.66,10.66,0,0,0-3.32,2.27,18,18,0,0,0-2.06,3.24,10.77,10.77,0,0,0-.55,2.92v4.42c0,.63.34,2.19.44,3a16.76,16.76,0,0,0,1.5,3.45,10.24,10.24,0,0,0,2.54,2.67,13.51,13.51,0,0,0,3.52,1.66,13.53,13.53,0,0,0,2.46.19,9,9,0,0,0,2.73-.36,11.14,11.14,0,0,0,5.25-3.48,14.05,14.05,0,0,0,2-3.46,6.42,6.42,0,0,0,.57-2.48A15.14,15.14,0,0,0,238,19.73Zm-7.51,3.81a4.71,4.71,0,0,1-1,2.76c-.57.48-1,1.15-2,1.13a3.23,3.23,0,0,1-2.28-1.22A12.68,12.68,0,0,1,224,22.72c-.09-.86,0-4.86,0-5.24a8.5,8.5,0,0,1,.92-2.54,5.71,5.71,0,0,1,1.54-1.44,4.33,4.33,0,0,1,1-.2,1.85,1.85,0,0,1,1.37.35A2.73,2.73,0,0,1,230,14.94a9.72,9.72,0,0,1,.72,3.53C230.74,19.82,230.53,22.64,230.48,23.54Z"/><path class="cls-1" d="M238.86,8.84a1.78,1.78,0,0,1,.71-.22,15.35,15.35,0,0,1,1.66-.06c1.39.12,3.92-.65,4.84.82A19.47,19.47,0,0,1,247.29,12c.07.29.85,3.3.85,3.3l2.1,8.67.36,2,.25.06.84-4.63,1.73-6.88L255,9.07a3,3,0,0,1,.89-.45c.52,0,6-.24,5.78.74,0,.15-.5,2-.8,2.92S258.7,19,258.7,19l-2.55,9s-.9,2.95-.94,3.15a1.78,1.78,0,0,1-.61.82,25.71,25.71,0,0,1-3.16.38c-.55,0-1.77-.14-2.63-.16a4.3,4.3,0,0,1-2.59-.83c-.8-.63-1.45-2.58-1.62-2.86s-3.07-11.15-3.07-11.15L239,9.49S238.69,9,238.86,8.84Z"/><path class="cls-1" d="M270.46,22.53H272c.33,0,5.54.25,6,.23s2.19,0,2.77-.1a3.89,3.89,0,0,0,1.52-.53c.46-.27.53-1,.61-1.58s-.06-3.64-.13-4.4a12.65,12.65,0,0,0-.9-3,10.46,10.46,0,0,0-2.5-3.15,11.51,11.51,0,0,0-11.72-.86c-5,2.59-5.3,9.06-4.94,13.93a10.94,10.94,0,0,0,4.36,7.84c2.71,2,6,1.86,9.18,1.44a15.9,15.9,0,0,0,3.16-1,16.41,16.41,0,0,0,2.5-1.2c1.45-.73-.12-3.68-1.13-4.19-.38-.19-.87,0-1.66.27a22.7,22.7,0,0,1-3.27.72c-2.46.21-5.64-.91-6-3.83C269.83,22.76,270.08,22.57,270.46,22.53ZM270,17.08c.07-.36.49-2,.64-2.42a3.74,3.74,0,0,1,1.13-1.39,4.33,4.33,0,0,1,1.14-.46,3.22,3.22,0,0,1,1.37.3,4.38,4.38,0,0,1,1.41,1.3c.25.48.42.51.5,1.12a8.24,8.24,0,0,1,0,1.72.4.4,0,0,1-.42.4h0c-.25,0-2.51.1-3.05.08s-2.42.07-2.51.07S269.89,17.44,270,17.08Z"/><path class="cls-1" d="M166,10.28a7.78,7.78,0,0,1-.63,2.69,9.45,9.45,0,0,1-1.23,2.46,6.78,6.78,0,0,1-1.52,1.81c-.73.52-1.61.84-2.36,1.32a7.35,7.35,0,0,1,3.48,4.27l1,3.31a9.34,9.34,0,0,0,2.19,3.5c.43.49.72.62.11,1.06s-1.51,1-1.63,1.06a6.17,6.17,0,0,1-1.19.4,7.87,7.87,0,0,1-1.88.23,4.3,4.3,0,0,1-2.86-1.2A7.69,7.69,0,0,1,158,28.12l-1.67-4.87A5.1,5.1,0,0,0,155,21.11a3.87,3.87,0,0,0-2.57-.74c-.65,0-2-.36-1.91.56v2.42l-.21,2.84.21,5.16V32a17.1,17.1,0,0,1-2.15.07c-.5,0-1,.21-1.56.21a10.87,10.87,0,0,1-3.68-.3V24.31l.19-15.73L143.09.51l.33-.32c2.69-.07,3.71.1,5.55.07s5-.21,6.06-.21a13,13,0,0,1,4.16.58,8.3,8.3,0,0,1,3.38,1.56A10.21,10.21,0,0,1,165,5.66,12.25,12.25,0,0,1,166,10.28ZM150.63,5.65c-.39.49-.16,1.8-.16,2.34v6.64a1.93,1.93,0,0,0,.48,0c1.77,0,4,.19,5.48-.64a3.13,3.13,0,0,0,1.37-1.37,5.55,5.55,0,0,0,.47-2.57,4.72,4.72,0,0,0-1.17-3.46c-1.58-1.54-4.08-1.07-6-1.16A.52.52,0,0,0,150.63,5.65Z"/><path class="cls-2" d="M28.7,44.15a1.42,1.42,0,0,1,2,0L37.62,51a1.42,1.42,0,0,0,2,0l1.54-1.54a1.42,1.42,0,0,0,0-2l-6.89-6.9a1.42,1.42,0,0,1,0-2l3.33-3.33a1.44,1.44,0,0,1,2,0l6.89,6.9a1.44,1.44,0,0,0,2,0L50,40.58a1.44,1.44,0,0,0,0-2L34.29,22.75a1.42,1.42,0,0,1,0-2l3.33-3.33a1.44,1.44,0,0,1,2,0L55.45,33.21a1.42,1.42,0,0,0,2,0L59,31.67a1.42,1.42,0,0,0,0-2L30.72,1.35a1.44,1.44,0,0,0-2,0L.41,29.65a1.42,1.42,0,0,0,0,2L2,33.21a1.42,1.42,0,0,0,2,0L28.7,8.49a1.42,1.42,0,0,1,2,0L34,11.81a1.44,1.44,0,0,1,0,2L9.32,38.56a1.44,1.44,0,0,0,0,2l1.55,1.55a1.44,1.44,0,0,0,2,0L28.7,26.32a1.42,1.42,0,0,1,2,0L34,29.65a1.42,1.42,0,0,1,0,2L18.24,47.48a1.42,1.42,0,0,0,0,2L19.78,51a1.44,1.44,0,0,0,2,0Z"/><path class="cls-1" d="M165.81,40.36a.53.53,0,0,1,.47.3,2.66,2.66,0,0,1,.19,2.3c-.28.7-.54,1.16-.82,1.77a15.09,15.09,0,0,1-5,6.31,13.45,13.45,0,0,1-2.07,1.23.42.42,0,0,1-.47-.1,7.37,7.37,0,0,0-1.17-1.06.21.21,0,0,1-.07-.29.23.23,0,0,1,.07-.07,13.63,13.63,0,0,0,2.86-1.67,14.2,14.2,0,0,0,2.36-2.54,12.54,12.54,0,0,0,2-3.77.21.21,0,0,0-.13-.27H164c-.32,0-1.13-.13-1.71-.13-.75,0-1.31.13-1.8.13a.91.91,0,0,0-.73.37,19.86,19.86,0,0,1-2.21,2.63,1.6,1.6,0,0,1-2.15.11c-.09-.08-.19-.15-.3-.23a.27.27,0,0,1,0-.39l0,0a17.79,17.79,0,0,0,2-1.78,15.52,15.52,0,0,0,1.63-2.31,1.09,1.09,0,0,1,.93-.51h2.25Z"/><path class="cls-1" d="M173.9,41.36c0,1-.17,2.07-.11,3.11,0,.62.08,1.25.11,1.88a.31.31,0,0,1-.31.31h-.89a1,1,0,0,1-1-.95c0-.49.09-1,.07-1.5V39.54a.32.32,0,0,1,.32-.32h0A2.19,2.19,0,0,1,173.9,41.36Zm5-2.19a.3.3,0,0,1,.3-.3h.05a2.29,2.29,0,0,1,1.83,2.25,23.13,23.13,0,0,1,0,3.33,9,9,0,0,1-1.62,4.76,8.9,8.9,0,0,1-2.65,2.19,4.19,4.19,0,0,1-1.51.67c-.38,0-.59-.55-.72-.84A.9.9,0,0,1,175,50l0,0a7.8,7.8,0,0,0,2.36-1.47,5.43,5.43,0,0,0,1.3-2.53,14.26,14.26,0,0,0,.35-2.68c0-.85-.14-1.74-.14-2.61Z"/><path class="cls-1" d="M193.6,40.24a19.55,19.55,0,0,1-4,7.64,14.65,14.65,0,0,1-4,3.08c-.22.13-.43.25-.65.36a.31.31,0,0,1-.21.07c-.18,0-.47-.46-.6-.58a1,1,0,0,1,.05-1.41l.16-.13a12.53,12.53,0,0,0,4.85-4.17,16.57,16.57,0,0,0,1.62-3.4,14.34,14.34,0,0,0,.56-2.68.2.2,0,0,1,.23-.16h0a13.68,13.68,0,0,1,1.73.93A.4.4,0,0,1,193.6,40.24Z"/><path class="cls-1" d="M197,46.69A1.18,1.18,0,0,1,197,45h0c1.26-1.19,2.33-2.54,3.49-3.82a2.23,2.23,0,0,1,3.11-.51,2,2,0,0,1,.42.39c1.14,1.18,2,2.56,3.07,3.81a28.68,28.68,0,0,0,3.24,3.28.33.33,0,0,1,.09.42,9.37,9.37,0,0,1-.88,1.28.31.31,0,0,1-.44,0l0,0c-.75-.74-1.44-1.55-2.12-2.36A13.46,13.46,0,0,1,205.9,46a20.47,20.47,0,0,0-1.62-1.87c-1.17-1.46-1.39-1.65-1.81-1.65-.59,0-1.07.54-1.43,1s-.85,1-1.26,1.5c-.67.83-1.32,1.73-1.82,2.22a.32.32,0,0,1-.46,0Z"/><path class="cls-1" d="M151.4,42.8c0-1.24-.38-2.31-1.62-2.31l-8.92.07a.93.93,0,0,0-.93.93v.42c.07,3,.08,6,0,8.94a.38.38,0,0,0,.38.38h10.6a.49.49,0,0,0,.49-.49h0l-.13-2.61Zm-2.24,6.46a.25.25,0,0,1-.17,0c-1.13.09-2.27.16-3.41.15a17.65,17.65,0,0,1-3.7-.28c0-1,.13-2,.12-3,0-1.17-.09-2.33-.12-3.5a.35.35,0,0,1,.35-.35h.44c1,0,1.23-.12,2.21-.12h1.93c.35,0,1.18.11,1.52.15a.83.83,0,0,1,.85.81h0a13.53,13.53,0,0,1,0,1.56v3.89C149.17,48.73,149.3,49.16,149.16,49.26Z"/><path class="cls-1" d="M208.61,40.13a10.27,10.27,0,0,1,.68.8l-.25.27a.9.9,0,0,1-1.27.06l-.06-.06a8,8,0,0,0-1-.93l.11-.12a1.22,1.22,0,0,1,1.73-.08Z"/><path class="cls-1" d="M210.12,38.69c.25.26.5.52.68.73a3.07,3.07,0,0,0-.26.25.92.92,0,0,1-1.3,0l0,0a11,11,0,0,0-.92-.88l.07-.07A1.26,1.26,0,0,1,210.12,38.69Z"/><path class="cls-1" d="M166.13,38.15c.26.25.51.51.74.78-.12.08-.38.22-.67.42a.66.66,0,0,1-.86-.1,8.59,8.59,0,0,0-1-1l.3-.23A1.17,1.17,0,0,1,166.13,38.15Z"/><path class="cls-1" d="M168.69,37.71c.26.28.49.55.63.73l-.69.46a.54.54,0,0,1-.74-.13,8.36,8.36,0,0,0-1.06-1.17l.1-.07A1.31,1.31,0,0,1,168.69,37.71Z"/></g></g></g></g></svg>