<?xml version="1.0" encoding="utf-8"?>
<!-- Generator: Adobe Illustrator 26.2.1, SVG Export Plug-In . SVG Version: 6.00 Build 0)  -->
<svg version="1.1" id="a" xmlns="http://www.w3.org/2000/svg" xmlns:xlink="http://www.w3.org/1999/xlink" x="0px" y="0px"
	 viewBox="0 0 313.2 63" style="enable-background:new 0 0 313.2 63;" xml:space="preserve">
<style type="text/css">
	.st0{fill:#FFFFFF;}
</style>
<path class="st0" d="M228.2,35.2c-0.4-0.8-1-1.4-1.9-1.6c-0.1,0-0.2,0-0.3-0.1c0,0-0.1,0-0.1,0c-0.1,0-0.3,0-0.5,0h-5.6v4.9h-1.2v1
	h1.2v4.8h1v-4.8h4.6c0,0,0,0,0.1,0c1.2,0,2.2-0.7,2.6-1.7c0.2-0.4,0.3-0.8,0.3-1.2S228.3,35.5,228.2,35.2 M227.5,36.4
	c0,0.1,0,0.2,0,0.4l0,0c-0.2,0.9-1,1.6-1.9,1.6h-4.6v-3.9h4.6C226.6,34.5,227.4,35.3,227.5,36.4C227.5,36.4,227.5,36.4,227.5,36.4"
	/>
<path class="st0" d="M182.6,39.3L182.6,39.3L182.6,39.3c1-0.2,1.8-0.8,2.2-1.7c0.2-0.4,0.3-0.8,0.3-1.2s-0.1-0.8-0.3-1.2
	c-0.4-0.8-1-1.4-1.9-1.6c-0.1,0-0.2,0-0.3-0.1c0,0-0.1,0-0.1,0c-0.1,0-0.3,0-0.5,0h-5.6v4.9h-1.2v1h1.2v4.8h1v-4.8h3.9
	c0.2,0.3,0.8,1.4,2.7,4.7l0.1,0.2l0.9-0.4L182.6,39.3L182.6,39.3z M177.6,34.4h4.6c1.1,0,1.9,0.9,1.9,1.9v0c0,0.1,0,0.2,0,0.4l0,0
	c-0.2,0.9-1,1.6-1.9,1.6h-4.6L177.6,34.4L177.6,34.4z"/>
<path class="st0" d="M194.7,44.2c-2.3,0-4.2-1.8-4.2-4v-3c0-2.2,1.9-4,4.2-4s4.2,1.8,4.2,4v3C199,42.5,197.1,44.2,194.7,44.2
	 M194.7,34.4c-1.8,0-3.2,1.3-3.2,2.9v3c0,1.6,1.4,2.9,3.2,2.9s3.2-1.3,3.2-2.9v-3C198,35.7,196.5,34.4,194.7,34.4"/>
<path class="st0" d="M213.1,33.5v6.8c0,2.2-1.9,4-4.2,4s-4.2-1.8-4.2-4v-6.8h1v6.8c0,1.6,1.4,2.9,3.2,2.9s3.2-1.3,3.2-2.9v-6.8
	H213.1L213.1,33.5z"/>
<path class="st0" d="M169.9,44.1h-3.6c-2.9,0-5.3-2.4-5.3-5.3s2.4-5.3,5.3-5.3h3.2v1h-3.2c-2.4,0-4.4,2-4.4,4.4s2,4.4,4.4,4.4h2.7
	v-3.8h-3.5v-1h4.5V44.1L169.9,44.1z"/>
<path class="st0" d="M132.8,60.8l0.2-6.5c-1.1,1.5-1.5,1.6-1.7,1.6c-0.2,0-0.4-0.2-0.4-0.4c0-0.1,0.1-0.2,0.2-0.3
	c1.3-1.1,2.5-2.8,3.2-4.5c0.1-0.2,0.2-0.3,0.4-0.3c0.2,0,0.5,0.2,0.5,0.5c0,0.3-0.8,1.5-1.3,2.3l-0.1,7.7c0,0.3-0.2,0.4-0.4,0.4
	S132.8,61,132.8,60.8L132.8,60.8 M134.7,60.6c-0.3,0-0.4-0.2-0.4-0.4s0.1-0.4,0.4-0.4h3.2v-3l-2.2,0c-0.3,0-0.4-0.2-0.4-0.4
	s0.1-0.4,0.4-0.4l2.2,0v-2.5h-2.5c-0.3,0-0.4-0.2-0.4-0.4c0-0.2,0.1-0.4,0.4-0.4h6c0.3,0,0.4,0.2,0.4,0.4c0,0.2-0.1,0.4-0.4,0.4
	h-2.7v2.5l2.2,0c0.3,0,0.4,0.2,0.4,0.4s-0.1,0.4-0.4,0.4l-2.2,0v3h3.2c0.3,0,0.4,0.2,0.4,0.4s-0.1,0.4-0.4,0.4H134.7L134.7,60.6z
	 M138.7,52c-0.5-0.5-1.1-0.8-1.7-1.1c-0.1-0.1-0.2-0.2-0.2-0.3c0-0.2,0.2-0.4,0.4-0.4c0.3,0,1.6,0.7,2.1,1.1
	c0.1,0.1,0.1,0.2,0.1,0.3c0,0.3-0.2,0.5-0.5,0.5C138.9,52.1,138.8,52.1,138.7,52"/>
<path class="st0" d="M155,57.4c0-0.5,0-1,0.1-1.5c0.1-1.5,0.5-2.8,0.6-3.6c0.1-0.3,0.2-0.4,0.4-0.4c0.2,0,0.5,0.2,0.5,0.4
	c0,0,0,0,0,0.1c-0.5,2.4-0.7,3.8-0.7,4.9c0,0.8,0.1,1,0.2,1c0,0,0.1-0.1,0.1-0.2c0-0.1,0.4-0.7,0.4-0.8c0.1-0.1,0.2-0.2,0.3-0.2
	c0.2,0,0.4,0.2,0.4,0.4c0,0,0,0.1-0.1,0.2c-0.4,0.7-0.9,1.7-0.9,2.2V60c0,0.4-0.3,0.5-0.4,0.5C155.2,60.5,155,58.1,155,57.4
	 M161.4,59.9c-1.9,0-2.8-0.7-2.8-1.2c0-0.2,0.2-0.4,0.4-0.4c0.1,0,0.2,0,0.3,0.1c0.4,0.4,1.1,0.5,1.8,0.5c0.6,0,1.2-0.1,1.6-0.2
	c0.1,0,0.1,0,0.2,0c0.3,0,0.5,0.2,0.5,0.4c0,0.2-0.1,0.5-0.4,0.5C162.6,59.9,162,59.9,161.4,59.9 M162.5,53.9
	c-0.5-0.1-1-0.2-1.5-0.2c-0.5,0-1.1,0.1-1.7,0.2c0,0-0.1,0-0.1,0c-0.2,0-0.4-0.2-0.4-0.4c0-0.2,0.1-0.3,0.4-0.4
	c0.6-0.2,1.3-0.2,2-0.2c1.7,0,1.8,0.3,1.8,0.6c0,0.2-0.2,0.4-0.4,0.4C162.5,53.9,162.5,53.9,162.5,53.9"/>
<path class="st0" d="M175,51.8c0.9,0,1.5,0.6,1.5,1.4c0,0.8,0.1,1.9,0.1,3.1s0,2.3,0,3c0,1-0.6,1.5-1.8,1.6c-0.5,0-1,0-1.6,0
	c-0.9,0-1.7,0-2.3,0c-1.2,0-1.8-0.5-1.8-1.5c0-0.8,0-1.8,0-2.9s0-2.2,0-3.1c0-0.9,0.6-1.4,1.6-1.5c0.2,0,0.6,0,1,0
	c0.2-0.5,0.3-1.2,0.4-1.5c0-0.2,0.2-0.3,0.4-0.3c0.2,0,0.5,0.1,0.5,0.4c0,0.1-0.2,0.7-0.5,1.4C173.4,51.8,174.4,51.8,175,51.8
	 M175.7,54.5c0-1.4,0-1.9-1.1-2c-0.5,0-1.2,0-1.9,0s-1.4,0-1.8,0c-1.1,0-1.1,0.5-1.1,2H175.7z M175.7,55.3h-5.9v1.9h5.9V55.3z
	 M169.8,57.9c0,0.5,0,0.9,0,1.2c0,1,0.5,1,3,1c2.2,0,2.8,0,2.8-1c0-0.3,0-0.7,0-1.1C175.7,57.9,169.8,57.9,169.8,57.9z"/>
<path class="st0" d="M186,50.6c0-0.3,0.2-0.4,0.4-0.4c0.2,0,0.4,0.1,0.4,0.4v2.2c0.9,0,1.8,0,2.6,0c0.9,0,1.5,0.6,1.5,1.4
	c0,0.7,0,1.5,0,2.3c0,0.9,0,1.9,0,2.6c0,1-0.7,1.5-1.7,1.6c-0.8,0-1.7,0-2.5,0c-1.1,0-2.1,0-3,0c-1.2,0-1.7-0.5-1.8-1.5
	c0-0.7,0-1.5,0-2.4s0-1.7,0-2.5c0-0.8,0.6-1.4,1.6-1.4c0.7,0,1.6,0,2.4,0L186,50.6 M186,53.6c-0.8,0-1.5,0-2.1,0c-0.8,0-1,0.3-1,1
	c0,0.5,0,1.1,0,1.7h3.2L186,53.6L186,53.6z M186,57h-3.2c0,0.7,0,1.4,0,2c0,1,0.4,1,3.2,1V57L186,57z M186.9,57v3c0.8,0,1.5,0,2.2,0
	c0.8,0,1-0.4,1.1-1c0-0.6,0-1.3,0-2H186.9z M190.2,56.3c0-0.6,0-1.2,0-1.7c0-0.6-0.2-0.9-1-0.9c-0.7,0-1.5,0-2.3,0v2.7L190.2,56.3
	L190.2,56.3z"/>
<path class="st0" d="M197.1,52.3c-0.1-0.1-0.2-0.2-0.2-0.3c0-0.2,0.3-0.4,0.5-0.4c0.1,0,0.3,0.1,0.4,0.2c0.6,0.8,1.2,2.1,1.6,3.2
	c0.1,0,2.4-1.6,2.8-1.6c0.3,0,0.4,0.2,0.4,0.4c0,0.2-0.1,0.4-0.4,0.5c-3.8,1.9-4.7,3.1-4.7,4c0,0.8,0.7,1.3,2.2,1.3
	c0.8,0,1.7-0.2,2.2-0.4c0.1,0,0.2-0.1,0.3-0.1c0.3,0,0.4,0.2,0.4,0.5c0,0.2-0.1,0.5-0.5,0.6c-0.6,0.2-1.5,0.3-2.3,0.3
	c-2.6,0-3.2-1.3-3.2-2.2c0-1,0.6-1.9,2-2.9C198.4,54.4,197.7,53,197.1,52.3"/>
<path class="st0" d="M208.8,56.2c0-0.5,0-1,0-1.6c0-0.8,0.5-1.5,1.8-1.6c0.6,0,1.2,0,1.8,0c0.7,0,1.4,0,2.1,0c1,0,1.6,0.7,1.6,1.4
	c0,0.6,0,1.2,0,1.7s0,1.1,0,1.7c0,0.9-0.6,1.6-1.7,1.6c-0.7,0-1.3,0-1.9,0c-0.6,0-1.2,0-1.9,0c-1.2,0-1.8-0.6-1.8-1.6
	C208.8,57.2,208.8,56.7,208.8,56.2 M215.1,55.9c0-0.5,0-0.9,0-1.2c0-0.5-0.3-0.9-1-0.9c-0.6,0-1.1,0-1.7,0s-1.1,0-1.6,0
	c-1.1,0-1.1,0.5-1.1,2.4c0,0.5,0,1,0,1.5c0.1,0.9,0.4,0.9,2.8,0.9c1.9,0,2.5,0,2.6-1C215.1,57.2,215.1,56.5,215.1,55.9"/>
<path class="st0" d="M227.8,58.9c0,0.3-0.3,0.5-0.5,0.5c-0.1,0-0.3-0.1-0.4-0.2c-0.5-0.8-2.1-2.2-3.2-2.7c-0.1-0.1-0.2-0.2-0.2-0.3
	c0-0.2,0.2-0.4,0.5-0.4c0.3,0,1.4,0.7,2.1,1.2c1-0.6,2.4-1.8,3-2.4c0.1-0.1,0.1-0.2,0.1-0.3c0-0.1-0.1-0.2-0.4-0.2H228
	c-1.8,0-4.4,0-6.1,0.1h0c-0.3,0-0.5-0.2-0.5-0.4s0.2-0.4,0.5-0.4c1.5,0,3.7-0.1,5.6-0.1c0.6,0,1.2,0,1.8,0c0.8,0,1.2,0.4,1.2,0.9
	c0,0.2-0.1,0.4-0.3,0.7c-0.7,0.8-2.2,2-3.4,2.8C227.5,58.2,227.8,58.7,227.8,58.9"/>
<path class="st0" d="M238.1,54.9c-0.5-0.5-1.4-0.9-2-1.1c-0.2,0-0.3-0.2-0.3-0.4c0-0.2,0.2-0.5,0.5-0.5c0.2,0,1.6,0.5,2.5,1.1
	c0.1,0.1,0.2,0.3,0.2,0.4c0,0.3-0.2,0.6-0.5,0.6C238.3,55,238.2,55,238.1,54.9 M236.8,60.1c-0.3,0-0.5-0.2-0.5-0.5
	c0-0.2,0.1-0.4,0.5-0.5c2.6-0.7,5.2-3,6.5-5.7c0.1-0.2,0.3-0.3,0.4-0.3c0.2,0,0.5,0.2,0.5,0.5c0,0.1,0,0.2-0.1,0.3
	C241.6,58.6,237.3,60.1,236.8,60.1"/>
<path class="st0" d="M253.9,57.5c0,0.2,0,0.4,0,0.6c0,0.4-0.3,0.5-0.5,0.5c-0.2,0-0.4-0.1-0.4-0.4v-0.1c0-0.3,0-0.6,0-0.9V57
	c-1,0.6-1.8,1.2-1.8,1.9c0,0.6,0.6,1.1,1.7,1.1c0.6,0,1.4-0.2,1.7-0.3c0.1,0,0.2,0,0.3,0c0.3,0,0.5,0.2,0.5,0.4s-0.1,0.4-0.5,0.5
	c-0.4,0.1-1.1,0.2-1.8,0.2c-2.4,0-2.8-1.4-2.8-1.8c0-0.7,0.6-1.6,1.8-2.4c0.2-0.1,0.5-0.3,0.8-0.5c-0.1-0.7-0.5-1-1-1
	c-0.5,0-1,0.3-1.5,0.8c-0.2,0.3-0.5,0.7-0.9,0.7c-0.2,0-0.4-0.2-0.4-0.4c0-0.1,0.1-0.2,0.2-0.4c0.7-0.6,1.4-1.6,1.8-2.8
	c-0.3,0.1-0.6,0.1-0.8,0.1c-0.8,0-1.3-0.3-1.3-0.7c0-0.2,0.2-0.4,0.4-0.4c0.1,0,0.2,0,0.4,0.1c0.1,0.1,0.4,0.1,0.6,0.1
	c0.4,0,0.8-0.1,1-0.1c0.1-0.5,0.1-0.7,0.2-1.2c0-0.3,0.2-0.4,0.5-0.4s0.4,0.1,0.4,0.4c0,0.1,0,0.3-0.2,1c0.4-0.1,0.7-0.2,0.9-0.4
	c0.1,0,0.2-0.1,0.2-0.1c0.2,0,0.4,0.2,0.4,0.4c0,0.3-0.3,0.6-1.9,0.9c-0.2,0.5-0.5,1.1-0.8,1.7c0.2-0.1,0.5-0.1,0.8-0.1
	c0.7,0,1.3,0.4,1.6,1.3c0.6-0.3,1.2-0.6,1.7-0.8c0.3-0.1,0.7-0.3,1-0.5c0.1-0.1,0.2-0.1,0.4-0.1c0.3,0,0.5,0.2,0.5,0.5
	c0,0.2-0.1,0.3-0.3,0.4c-0.4,0.2-0.6,0.2-1.3,0.5c-0.6,0.2-1.3,0.5-1.8,0.8C253.9,56.8,253.9,57.2,253.9,57.5"/>
<path class="st0" d="M262.6,61.2c-0.8,0-1.5-0.6-1.5-1.5s0.6-1.5,1.5-1.5s1.5,0.7,1.5,1.5S263.4,61.2,262.6,61.2 M263.6,59.8
	c0-0.5-0.5-1-1-1s-1,0.4-1,1s0.5,1,1,1S263.6,60.3,263.6,59.8"/>
<path class="st0" d="M125.9,51.4c0,0.8,0,1.7,0,2.8c0,2,0,0.9,0.1,2.6c0,0.2-0.1,0.3-0.3,0.3c-0.2,0-0.3-0.1-0.3-0.3
	c0-1.1,0,1,0-0.3c0-1.8,0-3.7,0-5.2c0-0.8,0.5-1.4,1.4-1.5c0.3,0,0.6,0,0.8,0c0.4,0,0.7,0,1.1,0c0.2,0,0.3,0.1,0.3,0.3
	c0,0.2-0.1,0.3-0.3,0.3h0c-0.1,0-0.4,0-1.7,0C126.3,50.4,125.9,50.7,125.9,51.4"/>
<path class="st0" d="M148.1,59.8c0-0.8,0-1.7,0-2.8c0-2,0-0.9-0.1-2.6c0-0.2,0.1-0.3,0.3-0.3s0.3,0.1,0.3,0.3c0,1.1,0-1,0,0.3
	c0,1.8,0,3.7,0,5.2c0,0.8-0.5,1.4-1.4,1.5c-0.3,0-0.6,0-0.8,0c-0.4,0-0.7,0-1.1,0c-0.2,0-0.3-0.2-0.3-0.3s0.1-0.3,0.3-0.3h0
	c0.4,0,0.7,0,1.7,0C147.6,60.8,148,60.5,148.1,59.8"/>
<polygon class="st0" points="226.9,5.7 224.8,5.7 224.8,27.5 242.2,27.5 242.2,25.5 226.9,25.5 "/>
<path class="st0" d="M95.4,9.2c-0.7-1.6-2.1-2.8-3.8-3.3c-0.2-0.1-0.3-0.1-0.5-0.1c-0.1,0-0.1,0-0.2,0c-0.3-0.1-0.6-0.1-0.9-0.1
	H78.6v10h-2.5v2h2.5v9.8h2v-9.8H90c0,0,0.1,0,0.1,0c2.4,0,4.4-1.5,5.3-3.5c0.3-0.8,0.5-1.6,0.5-2.4S95.8,10,95.4,9.2 M94,11.8
	c0,0.2,0,0.5-0.1,0.7v0c-0.4,1.8-2,3.2-3.9,3.2h-9.4v-8H90C92.2,7.7,93.9,9.5,94,11.8C94,11.7,94,11.7,94,11.8"/>
<path class="st0" d="M183.7,9.2c-0.7-1.6-2.1-2.8-3.8-3.3c-0.2-0.1-0.4-0.1-0.6-0.1c-0.1,0-0.1,0-0.1,0c-0.3-0.1-0.6-0.1-0.9-0.1
	h-11.4v10h-2.5v2h2.5v9.8h2v-9.8h9.4c0,0,0.1,0,0.1,0c2.4,0,4.4-1.5,5.3-3.5c0.3-0.8,0.5-1.6,0.5-2.4S184.1,10,183.7,9.2
	 M182.3,11.8c0,0.2,0,0.5-0.1,0.7v0c-0.4,1.8-2,3.2-3.9,3.2h-9.4v-8h9.4C180.5,7.7,182.2,9.5,182.3,11.8
	C182.3,11.7,182.3,11.7,182.3,11.8"/>
<path class="st0" d="M119.4,17.6L119.4,17.6c2-0.4,3.7-1.7,4.5-3.5c0.3-0.8,0.5-1.6,0.5-2.4s-0.2-1.7-0.6-2.5
	c-0.7-1.6-2.1-2.8-3.8-3.3c-0.2-0.1-0.4-0.1-0.5-0.1c-0.1,0-0.1,0-0.1,0c-0.3-0.1-0.6-0.1-0.9-0.1h-11.4v10h-2.5v2h2.5v9.8h2v-9.8h8
	c0.4,0.6,1.7,2.9,5.5,9.6l0.2,0.4l1.8-0.9L119.4,17.6 M109.1,7.7h9.4c2.2,0,3.9,1.8,4,4c0,0,0,0,0,0.1c0,0.2,0,0.5-0.1,0.7v0
	c-0.4,1.8-2,3.2-3.9,3.2h-9.4L109.1,7.7L109.1,7.7z"/>
<path class="st0" d="M143.8,27.7c-4.8,0-8.7-3.6-8.7-8.1v-6.1c0-4.5,3.9-8.1,8.7-8.1s8.7,3.6,8.7,8.1v6.1
	C152.4,24.1,148.6,27.7,143.8,27.7 M143.8,7.5c-3.6,0-6.6,2.7-6.6,6v6.1c0,3.3,3,6,6.6,6s6.6-2.7,6.6-6v-6.1
	C150.4,10.2,147.4,7.5,143.8,7.5"/>
<path class="st0" d="M203.3,27.7c-4.8,0-8.7-3.6-8.7-8.1v-6.1c0-4.5,3.9-8.1,8.7-8.1s8.7,3.6,8.7,8.1v6.1
	C212,24.1,208.1,27.7,203.3,27.7 M203.3,7.5c-3.6,0-6.6,2.7-6.6,6v6.1c0,3.3,3,6,6.6,6s6.6-2.7,6.6-6v-6.1
	C209.9,10.2,206.9,7.5,203.3,7.5"/>
<rect x="251.7" y="5.7" class="st0" width="2" height="21.8"/>
<path class="st0" d="M306.8,7.7h6.4v-2h-6.4c-5.7,0-10.4,4.4-10.9,9.9h-2.4v2h2.4c0.5,5.5,5.2,9.9,10.9,9.9h6.4v-2h-6.4
	c-4.6,0-8.4-3.5-8.9-7.9h13.6v-2h-13.6C298.4,11.2,302.2,7.7,306.8,7.7"/>
<path class="st0" d="M267,15.6h-2.4v2h2.4v9.9h2v-9.9h13.6v-2H269c0.5-4.5,4.3-7.9,8.9-7.9h6.4v-2h-6.4
	C272.2,5.7,267.5,10.1,267,15.6"/>
<path class="st0" d="M28.7,55.6c0.8,0,1.5-0.1,1.5-1.7s-0.7-1.7-1.5-1.7s-1.5,0.1-1.5,1.7S27.9,55.6,28.7,55.6"/>
<path class="st0" d="M33.9,55.6c0.8,0,1.5-0.1,1.5-1.7s-0.7-1.7-1.5-1.7s-1.5,0.1-1.5,1.7S33.1,55.6,33.9,55.6"/>
<path class="st0" d="M39,55.5c1.3,0,1.3-0.6,1.3-0.8c0-0.4-0.1-0.8-0.9-0.8h-1.8C37.7,54.9,37.9,55.5,39,55.5"/>
<path class="st0" d="M57.8,41.4c1.2-3.1,1.8-6.4,1.8-9.9C59.6,16,47,3.4,31.5,3.4S3.4,16,3.4,31.5S16,59.6,31.5,59.6
	c11.6,0,21.5-7,25.8-17H22v-1.2H57.8 M39,51.6h1.7v0.5H39c-1,0-1.3,0.5-1.4,1.3h1.8c1.1,0,1.4,0.7,1.4,1.3c0,0.5-0.2,1.3-1.8,1.3
	c-1.3,0-1.9-0.7-1.9-2.2S37.7,51.6,39,51.6 M33.9,51.6c0.9,0,2,0.3,2,2.2s-1.1,2.2-2,2.2s-2-0.3-2-2.2S32.9,51.6,33.9,51.6
	 M28.7,51.6c0.9,0,2,0.3,2,2.2s-1.1,2.2-2,2.2s-2-0.3-2-2.2S27.8,51.6,28.7,51.6 M22.1,54.9c0-0.8,0.5-1.3,1.3-1.3h1.1
	c0.2,0,0.4-0.1,0.5-0.2c0.1-0.1,0.2-0.3,0.2-0.5c0-0.3-0.2-0.7-0.6-0.7h-2.2v-0.5h2.2c0.8,0,1.1,0.6,1.1,1.2s-0.4,1.2-1.1,1.2h-1.1
	c-0.5,0-0.7,0.2-0.7,0.8v0.7h2.9v0.5h-3.4V54.9z M17.2,34.2v6.2c0,0.8-0.8,1.5-1.8,1.5s-1.8-0.7-1.8-1.5v-9.9h28.6
	c2.5,0,4.5-2,4.5-4.5s-2-4.5-4.5-4.5H15.1c-0.8,0-1.5-0.8-1.5-1.8s0.7-1.8,1.5-1.8h28.3c0.1,0,0.1,0,0.2,0c4.2,0.3,7.4,3.8,7.4,8.1
	s-3.3,7.9-7.4,8.1c-0.1,0-0.1,0-0.2,0C43.4,34.2,17.2,34.2,17.2,34.2z"/>
<path class="st0" d="M31.5,63C14.1,63,0,48.9,0,31.5S14.1,0,31.5,0S63,14.1,63,31.5S48.9,63,31.5,63 M31.5,1.2
	C14.8,1.2,1.2,14.8,1.2,31.5s13.6,30.3,30.3,30.3s30.3-13.6,30.3-30.3S48.2,1.2,31.5,1.2"/>
</svg>
