<svg width="40" height="30" viewBox="0 0 40 30" fill="none" xmlns="http://www.w3.org/2000/svg">
<path d="M10.0428 7.14307H30.0428V12.1431H10.0428V7.14307Z" fill="#262626"/>
<path d="M10.0428 7.14307H30.0428V12.1431H10.0428V7.14307Z" fill="black"/>
<path d="M32.1857 4.99986V24.9999H7.90001V4.99986H32.1857ZM33.6143 3.57129H6.47144V26.4284H33.6143V3.57129Z" fill="#262626"/>
<path d="M32.1857 4.99986V24.9999H7.90001V4.99986H32.1857ZM33.6143 3.57129H6.47144V26.4284H33.6143V3.57129Z" fill="black"/>
<path d="M21.8285 16.4285C22.4202 16.4285 22.8999 15.9488 22.8999 15.3571C22.8999 14.7653 22.4202 14.2856 21.8285 14.2856C21.2368 14.2856 20.7571 14.7653 20.7571 15.3571C20.7571 15.9488 21.2368 16.4285 21.8285 16.4285Z" fill="#262626"/>
<path d="M21.8285 16.4285C22.4202 16.4285 22.8999 15.9488 22.8999 15.3571C22.8999 14.7653 22.4202 14.2856 21.8285 14.2856C21.2368 14.2856 20.7571 14.7653 20.7571 15.3571C20.7571 15.9488 21.2368 16.4285 21.8285 16.4285Z" fill="black"/>
<path d="M25.4 16.4285C25.9918 16.4285 26.4715 15.9488 26.4715 15.3571C26.4715 14.7653 25.9918 14.2856 25.4 14.2856C24.8083 14.2856 24.3286 14.7653 24.3286 15.3571C24.3286 15.9488 24.8083 16.4285 25.4 16.4285Z" fill="#262626"/>
<path d="M25.4 16.4285C25.9918 16.4285 26.4715 15.9488 26.4715 15.3571C26.4715 14.7653 25.9918 14.2856 25.4 14.2856C24.8083 14.2856 24.3286 14.7653 24.3286 15.3571C24.3286 15.9488 24.8083 16.4285 25.4 16.4285Z" fill="black"/>
<path d="M28.9715 16.4285C29.5632 16.4285 30.0429 15.9488 30.0429 15.3571C30.0429 14.7653 29.5632 14.2856 28.9715 14.2856C28.3797 14.2856 27.9 14.7653 27.9 15.3571C27.9 15.9488 28.3797 16.4285 28.9715 16.4285Z" fill="#262626"/>
<path d="M28.9715 16.4285C29.5632 16.4285 30.0429 15.9488 30.0429 15.3571C30.0429 14.7653 29.5632 14.2856 28.9715 14.2856C28.3797 14.2856 27.9 14.7653 27.9 15.3571C27.9 15.9488 28.3797 16.4285 28.9715 16.4285Z" fill="black"/>
<path d="M21.8285 19.9998C22.4202 19.9998 22.8999 19.5201 22.8999 18.9284C22.8999 18.3366 22.4202 17.8569 21.8285 17.8569C21.2368 17.8569 20.7571 18.3366 20.7571 18.9284C20.7571 19.5201 21.2368 19.9998 21.8285 19.9998Z" fill="#262626"/>
<path d="M21.8285 19.9998C22.4202 19.9998 22.8999 19.5201 22.8999 18.9284C22.8999 18.3366 22.4202 17.8569 21.8285 17.8569C21.2368 17.8569 20.7571 18.3366 20.7571 18.9284C20.7571 19.5201 21.2368 19.9998 21.8285 19.9998Z" fill="black"/>
<path d="M25.4 19.9998C25.9918 19.9998 26.4715 19.5201 26.4715 18.9284C26.4715 18.3366 25.9918 17.8569 25.4 17.8569C24.8083 17.8569 24.3286 18.3366 24.3286 18.9284C24.3286 19.5201 24.8083 19.9998 25.4 19.9998Z" fill="#262626"/>
<path d="M25.4 19.9998C25.9918 19.9998 26.4715 19.5201 26.4715 18.9284C26.4715 18.3366 25.9918 17.8569 25.4 17.8569C24.8083 17.8569 24.3286 18.3366 24.3286 18.9284C24.3286 19.5201 24.8083 19.9998 25.4 19.9998Z" fill="black"/>
<path d="M28.9715 19.9998C29.5632 19.9998 30.0429 19.5201 30.0429 18.9284C30.0429 18.3366 29.5632 17.8569 28.9715 17.8569C28.3797 17.8569 27.9 18.3366 27.9 18.9284C27.9 19.5201 28.3797 19.9998 28.9715 19.9998Z" fill="#262626"/>
<path d="M28.9715 19.9998C29.5632 19.9998 30.0429 19.5201 30.0429 18.9284C30.0429 18.3366 29.5632 17.8569 28.9715 17.8569C28.3797 17.8569 27.9 18.3366 27.9 18.9284C27.9 19.5201 28.3797 19.9998 28.9715 19.9998Z" fill="black"/>
<path d="M21.8285 23.5716C22.4202 23.5716 22.8999 23.0919 22.8999 22.5001C22.8999 21.9084 22.4202 21.4287 21.8285 21.4287C21.2368 21.4287 20.7571 21.9084 20.7571 22.5001C20.7571 23.0919 21.2368 23.5716 21.8285 23.5716Z" fill="#262626"/>
<path d="M21.8285 23.5716C22.4202 23.5716 22.8999 23.0919 22.8999 22.5001C22.8999 21.9084 22.4202 21.4287 21.8285 21.4287C21.2368 21.4287 20.7571 21.9084 20.7571 22.5001C20.7571 23.0919 21.2368 23.5716 21.8285 23.5716Z" fill="black"/>
<path d="M25.4 23.5716C25.9918 23.5716 26.4715 23.0919 26.4715 22.5001C26.4715 21.9084 25.9918 21.4287 25.4 21.4287C24.8083 21.4287 24.3286 21.9084 24.3286 22.5001C24.3286 23.0919 24.8083 23.5716 25.4 23.5716Z" fill="#262626"/>
<path d="M25.4 23.5716C25.9918 23.5716 26.4715 23.0919 26.4715 22.5001C26.4715 21.9084 25.9918 21.4287 25.4 21.4287C24.8083 21.4287 24.3286 21.9084 24.3286 22.5001C24.3286 23.0919 24.8083 23.5716 25.4 23.5716Z" fill="black"/>
<path d="M28.9715 23.5716C29.5632 23.5716 30.0429 23.0919 30.0429 22.5001C30.0429 21.9084 29.5632 21.4287 28.9715 21.4287C28.3797 21.4287 27.9 21.9084 27.9 22.5001C27.9 23.0919 28.3797 23.5716 28.9715 23.5716Z" fill="#262626"/>
<path d="M28.9715 23.5716C29.5632 23.5716 30.0429 23.0919 30.0429 22.5001C30.0429 21.9084 29.5632 21.4287 28.9715 21.4287C28.3797 21.4287 27.9 21.9084 27.9 22.5001C27.9 23.0919 28.3797 23.5716 28.9715 23.5716Z" fill="black"/>
<path d="M10.0428 14.2856H11.4714V23.5714H10.0428V14.2856ZM13.6143 14.2856H15.0428V23.5714H13.6143V14.2856ZM17.1857 14.2856H18.6143V23.5714H17.1857V14.2856Z" fill="#262626"/>
<path d="M10.0428 14.2856H11.4714V23.5714H10.0428V14.2856ZM13.6143 14.2856H15.0428V23.5714H13.6143V14.2856ZM17.1857 14.2856H18.6143V23.5714H17.1857V14.2856Z" fill="black"/>
</svg>
