<svg width="40" height="30" viewBox="0 0 40 30" fill="none" xmlns="http://www.w3.org/2000/svg">
<path d="M30.0786 13.8357H30.2857L29.4 13.2785L29.2286 13.5714L28.35 13.0571L28.5429 12.7357L28.35 12.6143L26.3643 15.4714L24.8143 14.3714L24.6857 14.25C23.9459 13.5263 23.0137 13.0304 22 12.8214H20.3357C20.2822 12.8875 20.2148 12.9409 20.1382 12.978C20.0617 13.015 19.9779 13.0347 19.8929 13.0357H19.7643L18.1072 15.8928L15.7572 13.0357L13.4215 13.9143C11.7715 14.6714 11.1572 16.4357 10.8 17.9357L9.93575 24.2143C9.88792 24.4488 9.88699 24.6906 9.933 24.9255C9.97902 25.1604 10.0711 25.3839 10.2039 25.5831C10.3367 25.7823 10.5076 25.9533 10.7067 26.0861C10.9059 26.2189 11.1294 26.311 11.3643 26.3571L18.0643 26.6214V25.9785L17.2 25.8357V25.3143H17.0715V24.4571V25.5857L11.5429 25.3785C11.3432 25.3348 11.1687 25.2142 11.0572 25.0428C10.9952 24.9465 10.9531 24.8387 10.9335 24.7258C10.9139 24.613 10.9171 24.4973 10.9429 24.3857L11.8072 18.0785C12.1072 16.85 12.6072 15.3714 13.8215 14.8071L15.45 14.2L18.2572 17.6357L20.4857 13.8143H21.8643C22.6763 13.9949 23.4198 14.4038 24.0072 14.9928L26.6143 16.8857L28.6357 13.9928L30.2072 15L27.2072 19.1643C27.1291 19.2749 27.012 19.3519 26.8795 19.3797C26.747 19.4075 26.6089 19.3842 26.4929 19.3143L23.1143 17.3428V24.2857H23.0143V24.6357C23.0117 24.8809 22.9204 25.1169 22.7572 25.3L24.1072 25.2643V19.1L25.9572 20.1785C26.291 20.3748 26.686 20.4396 27.065 20.3604C27.444 20.2811 27.7799 20.0635 28.0072 19.75L31.5 14.9L30.0215 14.85L30.0786 13.8357Z" fill="#262626"/>
<path d="M30.0786 13.8357H30.2857L29.4 13.2785L29.2286 13.5714L28.35 13.0571L28.5429 12.7357L28.35 12.6143L26.3643 15.4714L24.8143 14.3714L24.6857 14.25C23.9459 13.5263 23.0137 13.0304 22 12.8214H20.3357C20.2822 12.8875 20.2148 12.9409 20.1382 12.978C20.0617 13.015 19.9779 13.0347 19.8929 13.0357H19.7643L18.1072 15.8928L15.7572 13.0357L13.4215 13.9143C11.7715 14.6714 11.1572 16.4357 10.8 17.9357L9.93575 24.2143C9.88792 24.4488 9.88699 24.6906 9.933 24.9255C9.97902 25.1604 10.0711 25.3839 10.2039 25.5831C10.3367 25.7823 10.5076 25.9533 10.7067 26.0861C10.9059 26.2189 11.1294 26.311 11.3643 26.3571L18.0643 26.6214V25.9785L17.2 25.8357V25.3143H17.0715V24.4571V25.5857L11.5429 25.3785C11.3432 25.3348 11.1687 25.2142 11.0572 25.0428C10.9952 24.9465 10.9531 24.8387 10.9335 24.7258C10.9139 24.613 10.9171 24.4973 10.9429 24.3857L11.8072 18.0785C12.1072 16.85 12.6072 15.3714 13.8215 14.8071L15.45 14.2L18.2572 17.6357L20.4857 13.8143H21.8643C22.6763 13.9949 23.4198 14.4038 24.0072 14.9928L26.6143 16.8857L28.6357 13.9928L30.2072 15L27.2072 19.1643C27.1291 19.2749 27.012 19.3519 26.8795 19.3797C26.747 19.4075 26.6089 19.3842 26.4929 19.3143L23.1143 17.3428V24.2857H23.0143V24.6357C23.0117 24.8809 22.9204 25.1169 22.7572 25.3L24.1072 25.2643V19.1L25.9572 20.1785C26.291 20.3748 26.686 20.4396 27.065 20.3604C27.444 20.2811 27.7799 20.0635 28.0072 19.75L31.5 14.9L30.0215 14.85L30.0786 13.8357Z" fill="black"/>
<path d="M34.3357 13.0143C34.2529 12.8509 34.1361 12.7072 33.9932 12.5926C33.8503 12.478 33.6846 12.3953 33.5071 12.35L32.6571 12.1429C32.7427 12.0469 32.8053 11.9327 32.8399 11.8089C32.8746 11.6851 32.8805 11.555 32.8571 11.4286L32.8071 11.2714C32.7592 11.1273 32.6667 11.0022 32.5428 10.9143C32.4378 10.8477 32.32 10.8037 32.197 10.7853C32.074 10.7668 31.9485 10.7743 31.8286 10.8071L30.2143 11.1429C29.9673 11.1782 29.7324 11.2726 29.5297 11.4181C29.327 11.5636 29.1625 11.7559 29.05 11.9786L28.5714 12.7429L29.4286 13.2857L29.9286 12.4286C29.9702 12.3413 30.0334 12.266 30.1121 12.2098C30.1908 12.1536 30.2825 12.1183 30.3786 12.1071L30.8643 12.0071C30.8292 12.0907 30.8121 12.1808 30.8143 12.2714C30.8198 12.3994 30.8666 12.5222 30.9477 12.6213C31.0289 12.7205 31.1399 12.7907 31.2643 12.8214L33.2857 13.3286C33.3226 13.3393 33.3568 13.3575 33.3863 13.3821C33.4158 13.4067 33.4399 13.4371 33.4571 13.4714C33.4798 13.5169 33.4916 13.567 33.4916 13.6179C33.4916 13.6687 33.4798 13.7188 33.4571 13.7643C33.4338 13.817 33.3958 13.8618 33.3477 13.8935C33.2995 13.9252 33.2433 13.9423 33.1857 13.9429L30.3286 13.8429L31.7 14.7143L31.5643 14.9L33.1643 14.9571H33.2143C33.4392 14.9491 33.6586 14.885 33.8524 14.7705C34.0463 14.6561 34.2084 14.495 34.3241 14.302C34.4398 14.1089 34.5054 13.8899 34.5149 13.665C34.5244 13.4401 34.4775 13.2164 34.3786 13.0143H34.3357Z" fill="#262626"/>
<path d="M34.3357 13.0143C34.2529 12.8509 34.1361 12.7072 33.9932 12.5926C33.8503 12.478 33.6846 12.3953 33.5071 12.35L32.6571 12.1429C32.7427 12.0469 32.8053 11.9327 32.8399 11.8089C32.8746 11.6851 32.8805 11.555 32.8571 11.4286L32.8071 11.2714C32.7592 11.1273 32.6667 11.0022 32.5428 10.9143C32.4378 10.8477 32.32 10.8037 32.197 10.7853C32.074 10.7668 31.9485 10.7743 31.8286 10.8071L30.2143 11.1429C29.9673 11.1782 29.7324 11.2726 29.5297 11.4181C29.327 11.5636 29.1625 11.7559 29.05 11.9786L28.5714 12.7429L29.4286 13.2857L29.9286 12.4286C29.9702 12.3413 30.0334 12.266 30.1121 12.2098C30.1908 12.1536 30.2825 12.1183 30.3786 12.1071L30.8643 12.0071C30.8292 12.0907 30.8121 12.1808 30.8143 12.2714C30.8198 12.3994 30.8666 12.5222 30.9477 12.6213C31.0289 12.7205 31.1399 12.7907 31.2643 12.8214L33.2857 13.3286C33.3226 13.3393 33.3568 13.3575 33.3863 13.3821C33.4158 13.4067 33.4399 13.4371 33.4571 13.4714C33.4798 13.5169 33.4916 13.567 33.4916 13.6179C33.4916 13.6687 33.4798 13.7188 33.4571 13.7643C33.4338 13.817 33.3958 13.8618 33.3477 13.8935C33.2995 13.9252 33.2433 13.9423 33.1857 13.9429L30.3286 13.8429L31.7 14.7143L31.5643 14.9L33.1643 14.9571H33.2143C33.4392 14.9491 33.6586 14.885 33.8524 14.7705C34.0463 14.6561 34.2084 14.495 34.3241 14.302C34.4398 14.1089 34.5054 13.8899 34.5149 13.665C34.5244 13.4401 34.4775 13.2164 34.3786 13.0143H34.3357Z" fill="black"/>
<path d="M30.2858 13.8427L30.0786 13.8356L30.0429 14.8498L31.5215 14.8998L31.6572 14.7141L30.2858 13.8427ZM29.2286 13.5784L29.4 13.2856L28.5429 12.7427L28.35 13.0641L29.2286 13.5784ZM15.9143 12.957C15.9944 12.9967 16.0821 13.0186 16.1715 13.0213H19.7429V12.957H15.9143ZM20.3358 12.807C20.3937 12.7363 20.4336 12.6526 20.4521 12.5631C20.4705 12.4735 20.4669 12.3809 20.4416 12.293C20.4163 12.2052 20.3701 12.1248 20.3068 12.0588C20.2436 11.9928 20.1653 11.9432 20.0786 11.9141V12.807H20.3358ZM15.5929 12.4498C15.5939 12.5338 15.6137 12.6165 15.6508 12.6919C15.6878 12.7673 15.7413 12.8335 15.8072 12.8856V12.0141C15.7413 12.0662 15.6878 12.1324 15.6508 12.2078C15.6137 12.2831 15.5939 12.3659 15.5929 12.4498ZM16.8215 11.8784H19.0643V11.9427H16.8215V11.8784ZM20.3358 12.807H20.0786V12.957H19.8V13.0213H19.9286C20.0075 13.0153 20.0844 12.9932 20.1544 12.9563C20.2244 12.9195 20.2862 12.8687 20.3358 12.807Z" fill="#262626"/>
<path d="M30.2858 13.8427L30.0786 13.8356L30.0429 14.8498L31.5215 14.8998L31.6572 14.7141L30.2858 13.8427ZM29.2286 13.5784L29.4 13.2856L28.5429 12.7427L28.35 13.0641L29.2286 13.5784ZM15.9143 12.957C15.9944 12.9967 16.0821 13.0186 16.1715 13.0213H19.7429V12.957H15.9143ZM20.3358 12.807C20.3937 12.7363 20.4336 12.6526 20.4521 12.5631C20.4705 12.4735 20.4669 12.3809 20.4416 12.293C20.4163 12.2052 20.3701 12.1248 20.3068 12.0588C20.2436 11.9928 20.1653 11.9432 20.0786 11.9141V12.807H20.3358ZM15.5929 12.4498C15.5939 12.5338 15.6137 12.6165 15.6508 12.6919C15.6878 12.7673 15.7413 12.8335 15.8072 12.8856V12.0141C15.7413 12.0662 15.6878 12.1324 15.6508 12.2078C15.6137 12.2831 15.5939 12.3659 15.5929 12.4498ZM16.8215 11.8784H19.0643V11.9427H16.8215V11.8784ZM20.3358 12.807H20.0786V12.957H19.8V13.0213H19.9286C20.0075 13.0153 20.0844 12.9932 20.1544 12.9563C20.2244 12.9195 20.2862 12.8687 20.3358 12.807Z" fill="black"/>
<path d="M16.8215 11.8787V11.8144C16.8209 11.6094 16.7729 11.4072 16.6812 11.2238C16.5895 11.0404 16.4566 10.8807 16.2929 10.7573C15.8118 10.3671 15.4381 9.86064 15.2072 9.28583L15.0858 9.00011H14.5929C14.3704 8.92964 14.1837 8.77615 14.0715 8.57154C14.0223 8.5019 13.9891 8.42224 13.9743 8.33827C13.9594 8.25431 13.9634 8.1681 13.9858 8.08583C14.0205 7.97773 14.083 7.88062 14.167 7.80417C14.2509 7.72772 14.3535 7.67461 14.4643 7.65011L14.8286 7.55725V7.18583C14.8252 7.13827 14.8252 7.09053 14.8286 7.04297C14.7507 7.08087 14.6652 7.10056 14.5786 7.10056C14.492 7.10056 14.4065 7.08087 14.3286 7.04297C14.1846 6.86818 14.0826 6.66263 14.0306 6.44218C13.9786 6.22174 13.9779 5.99229 14.0286 5.77154C13.9261 6.10679 13.8567 6.4513 13.8215 6.80011C13.6177 6.90734 13.4394 7.0573 13.2989 7.23974C13.1583 7.42219 13.0588 7.63283 13.0072 7.85725C12.9483 8.07906 12.9369 8.3108 12.9739 8.5373C13.0108 8.7638 13.0952 8.97994 13.2215 9.17154C13.4799 9.55897 13.8712 9.83844 14.3215 9.95725H14.3929C14.6927 10.5844 15.1296 11.1361 15.6715 11.5715C15.7127 11.6007 15.7465 11.6392 15.7701 11.6839C15.7936 11.7286 15.8064 11.7782 15.8072 11.8287V12.0287C15.9096 11.9433 16.0381 11.8954 16.1715 11.893L16.8215 11.8787ZM18.9643 2.7144C18.7104 2.6253 18.4466 2.56772 18.1786 2.54297C18.3833 2.59418 18.5676 2.70626 18.7072 2.8644C18.7786 2.79309 18.8671 2.74142 18.9643 2.7144ZM20.8215 6.92868V7.6144H21.2858C21.4311 7.60838 21.5744 7.6497 21.6942 7.73214C21.814 7.81458 21.9038 7.93368 21.95 8.07154C21.9724 8.15382 21.9764 8.24002 21.9615 8.32399C21.9467 8.40796 21.9135 8.48761 21.8643 8.55726C21.7414 8.74032 21.5561 8.87236 21.3429 8.92868C21.2201 8.95046 21.0943 8.95046 20.9715 8.92868L20.5929 8.87868L20.4429 9.23583C20.2284 9.76131 19.896 10.2305 19.4715 10.6073C19.3278 10.7327 19.2126 10.8876 19.1338 11.0613C19.0549 11.235 19.0142 11.4236 19.0143 11.6144V11.8358H19.8429C19.9064 11.8373 19.9691 11.8494 20.0286 11.8715V11.6144C20.0282 11.5686 20.0375 11.5233 20.0559 11.4814C20.0744 11.4395 20.1016 11.4021 20.1358 11.3715C20.5913 10.9727 20.9629 10.487 21.2286 9.94297C21.3591 9.9355 21.4885 9.91395 21.6143 9.87868C22.0646 9.75987 22.4559 9.4804 22.7143 9.09297C22.8406 8.90136 22.925 8.68523 22.9619 8.45873C22.9989 8.23223 22.9875 8.00049 22.9286 7.77868C22.8494 7.50678 22.7012 7.25999 22.4984 7.06224C22.2957 6.8645 22.0453 6.72253 21.7715 6.65011L21.7786 6.42868C21.7546 6.66404 21.6628 6.88737 21.5143 7.07154C21.3643 7.19297 21.1143 7.14297 20.8215 6.92868ZM15.8072 12.9573H15.9143C15.875 12.9394 15.8388 12.9153 15.8072 12.8858V12.9573Z" fill="#262626"/>
<path d="M16.8215 11.8787V11.8144C16.8209 11.6094 16.7729 11.4072 16.6812 11.2238C16.5895 11.0404 16.4566 10.8807 16.2929 10.7573C15.8118 10.3671 15.4381 9.86064 15.2072 9.28583L15.0858 9.00011H14.5929C14.3704 8.92964 14.1837 8.77615 14.0715 8.57154C14.0223 8.5019 13.9891 8.42224 13.9743 8.33827C13.9594 8.25431 13.9634 8.1681 13.9858 8.08583C14.0205 7.97773 14.083 7.88062 14.167 7.80417C14.2509 7.72772 14.3535 7.67461 14.4643 7.65011L14.8286 7.55725V7.18583C14.8252 7.13827 14.8252 7.09053 14.8286 7.04297C14.7507 7.08087 14.6652 7.10056 14.5786 7.10056C14.492 7.10056 14.4065 7.08087 14.3286 7.04297C14.1846 6.86818 14.0826 6.66263 14.0306 6.44218C13.9786 6.22174 13.9779 5.99229 14.0286 5.77154C13.9261 6.10679 13.8567 6.4513 13.8215 6.80011C13.6177 6.90734 13.4394 7.0573 13.2989 7.23974C13.1583 7.42219 13.0588 7.63283 13.0072 7.85725C12.9483 8.07906 12.9369 8.3108 12.9739 8.5373C13.0108 8.7638 13.0952 8.97994 13.2215 9.17154C13.4799 9.55897 13.8712 9.83844 14.3215 9.95725H14.3929C14.6927 10.5844 15.1296 11.1361 15.6715 11.5715C15.7127 11.6007 15.7465 11.6392 15.7701 11.6839C15.7936 11.7286 15.8064 11.7782 15.8072 11.8287V12.0287C15.9096 11.9433 16.0381 11.8954 16.1715 11.893L16.8215 11.8787ZM18.9643 2.7144C18.7104 2.6253 18.4466 2.56772 18.1786 2.54297C18.3833 2.59418 18.5676 2.70626 18.7072 2.8644C18.7786 2.79309 18.8671 2.74142 18.9643 2.7144ZM20.8215 6.92868V7.6144H21.2858C21.4311 7.60838 21.5744 7.6497 21.6942 7.73214C21.814 7.81458 21.9038 7.93368 21.95 8.07154C21.9724 8.15382 21.9764 8.24002 21.9615 8.32399C21.9467 8.40796 21.9135 8.48761 21.8643 8.55726C21.7414 8.74032 21.5561 8.87236 21.3429 8.92868C21.2201 8.95046 21.0943 8.95046 20.9715 8.92868L20.5929 8.87868L20.4429 9.23583C20.2284 9.76131 19.896 10.2305 19.4715 10.6073C19.3278 10.7327 19.2126 10.8876 19.1338 11.0613C19.0549 11.235 19.0142 11.4236 19.0143 11.6144V11.8358H19.8429C19.9064 11.8373 19.9691 11.8494 20.0286 11.8715V11.6144C20.0282 11.5686 20.0375 11.5233 20.0559 11.4814C20.0744 11.4395 20.1016 11.4021 20.1358 11.3715C20.5913 10.9727 20.9629 10.487 21.2286 9.94297C21.3591 9.9355 21.4885 9.91395 21.6143 9.87868C22.0646 9.75987 22.4559 9.4804 22.7143 9.09297C22.8406 8.90136 22.925 8.68523 22.9619 8.45873C22.9989 8.23223 22.9875 8.00049 22.9286 7.77868C22.8494 7.50678 22.7012 7.25999 22.4984 7.06224C22.2957 6.8645 22.0453 6.72253 21.7715 6.65011L21.7786 6.42868C21.7546 6.66404 21.6628 6.88737 21.5143 7.07154C21.3643 7.19297 21.1143 7.14297 20.8215 6.92868ZM15.8072 12.9573H15.9143C15.875 12.9394 15.8388 12.9153 15.8072 12.8858V12.9573Z" fill="black"/>
<path d="M19.8928 12.807H20.0786V11.9141C20.0191 11.892 19.9563 11.8799 19.8928 11.8784H19.0643V11.9427H16.8214V11.8784H16.1714C16.0381 11.8809 15.9096 11.9287 15.8071 12.0141V12.857C15.8388 12.8864 15.8749 12.9106 15.9143 12.9284H19.8L19.8928 12.807Z" fill="#262626"/>
<path d="M19.8928 12.807H20.0786V11.9141C20.0191 11.892 19.9563 11.8799 19.8928 11.8784H19.0643V11.9427H16.8214V11.8784H16.1714C16.0381 11.8809 15.9096 11.9287 15.8071 12.0141V12.857C15.8388 12.8864 15.8749 12.9106 15.9143 12.9284H19.8L19.8928 12.807Z" fill="black"/>
<path d="M19.8 12.9572H20.0786V12.8072H19.8928L19.8 12.9572ZM17.8571 2.52153C17.9665 2.51443 18.0763 2.51443 18.1857 2.52153C17.5808 2.38734 16.9497 2.43455 16.3714 2.65725C15.7313 2.89931 15.1743 3.32017 14.7665 3.86975C14.3588 4.41933 14.1175 5.07448 14.0714 5.75725C14.6214 3.87153 16.1071 2.52153 17.8571 2.52153Z" fill="#262626"/>
<path d="M19.8 12.9572H20.0786V12.8072H19.8928L19.8 12.9572ZM17.8571 2.52153C17.9665 2.51443 18.0763 2.51443 18.1857 2.52153C17.5808 2.38734 16.9497 2.43455 16.3714 2.65725C15.7313 2.89931 15.1743 3.32017 14.7665 3.86975C14.3588 4.41933 14.1175 5.07448 14.0714 5.75725C14.6214 3.87153 16.1071 2.52153 17.8571 2.52153Z" fill="black"/>
<path d="M18.6786 4.10724C18.6315 3.96503 18.5957 3.81934 18.5715 3.67152C18.3399 3.60185 18.099 3.56813 17.8572 3.57152C16.3 3.57152 15 5.10724 14.8715 7.08581C15.9072 6.73581 17.9857 4.92866 18.6786 4.10724Z" fill="#262626"/>
<path d="M18.6786 4.10724C18.6315 3.96503 18.5957 3.81934 18.5715 3.67152C18.3399 3.60185 18.099 3.56813 17.8572 3.57152C16.3 3.57152 15 5.10724 14.8715 7.08581C15.9072 6.73581 17.9857 4.92866 18.6786 4.10724Z" fill="black"/>
<path d="M14.3643 7.04989C14.4422 7.08778 14.5277 7.10748 14.6143 7.10748C14.7009 7.10748 14.7864 7.08778 14.8643 7.04989C15 5.07132 16.2929 3.57132 17.8572 3.57132C18.1001 3.57485 18.341 3.61581 18.5715 3.69274C18.5198 3.55361 18.5051 3.40345 18.5289 3.25696C18.5527 3.11047 18.6141 2.97266 18.7072 2.85703C18.5675 2.69889 18.3832 2.58682 18.1786 2.5356C18.0692 2.5285 17.9594 2.5285 17.85 2.5356C16.1072 2.5356 14.6215 3.8856 14.0643 5.79274C14.0159 6.01133 14.0177 6.23806 14.0697 6.45583C14.1216 6.6736 14.2224 6.87673 14.3643 7.04989ZM20.8215 6.92846C20.7888 6.28683 20.5959 5.66363 20.2602 5.11583C19.9245 4.56804 19.4569 4.11314 18.9 3.79274C18.8415 3.90748 18.7669 4.01331 18.6786 4.10703C19.1618 5.2025 19.8958 6.16899 20.8215 6.92846ZM21.7786 6.42846C21.8693 5.75363 21.7599 5.06702 21.4641 4.45375C21.1683 3.84048 20.6989 3.32752 20.1143 2.97846C19.766 2.77906 19.363 2.69645 18.9643 2.74274C19.7133 3.05953 20.3667 3.56606 20.8602 4.21239C21.3537 4.85871 21.6703 5.62251 21.7786 6.42846Z" fill="#262626"/>
<path d="M14.3643 7.04989C14.4422 7.08778 14.5277 7.10748 14.6143 7.10748C14.7009 7.10748 14.7864 7.08778 14.8643 7.04989C15 5.07132 16.2929 3.57132 17.8572 3.57132C18.1001 3.57485 18.341 3.61581 18.5715 3.69274C18.5198 3.55361 18.5051 3.40345 18.5289 3.25696C18.5527 3.11047 18.6141 2.97266 18.7072 2.85703C18.5675 2.69889 18.3832 2.58682 18.1786 2.5356C18.0692 2.5285 17.9594 2.5285 17.85 2.5356C16.1072 2.5356 14.6215 3.8856 14.0643 5.79274C14.0159 6.01133 14.0177 6.23806 14.0697 6.45583C14.1216 6.6736 14.2224 6.87673 14.3643 7.04989ZM20.8215 6.92846C20.7888 6.28683 20.5959 5.66363 20.2602 5.11583C19.9245 4.56804 19.4569 4.11314 18.9 3.79274C18.8415 3.90748 18.7669 4.01331 18.6786 4.10703C19.1618 5.2025 19.8958 6.16899 20.8215 6.92846ZM21.7786 6.42846C21.8693 5.75363 21.7599 5.06702 21.4641 4.45375C21.1683 3.84048 20.6989 3.32752 20.1143 2.97846C19.766 2.77906 19.363 2.69645 18.9643 2.74274C19.7133 3.05953 20.3667 3.56606 20.8602 4.21239C21.3537 4.85871 21.6703 5.62251 21.7786 6.42846Z" fill="black"/>
<path d="M18.7071 2.85721C18.8154 2.97867 18.8911 3.12554 18.9274 3.28415C18.9636 3.44276 18.9591 3.60795 18.9143 3.76436C19.4724 4.08908 19.9397 4.54922 20.2731 5.10227C20.6064 5.65532 20.795 6.28345 20.8214 6.92864C21.1143 7.12864 21.3643 7.19293 21.5357 7.04293C21.6842 6.85876 21.776 6.63543 21.8 6.40007C21.6897 5.59182 21.3699 4.82647 20.8725 4.17994C20.3751 3.53341 19.7172 3.02817 18.9643 2.71436C18.8678 2.73932 18.7793 2.78849 18.7071 2.85721ZM18.6786 4.10721C18.7669 4.01349 18.8415 3.90767 18.9 3.79293C18.7945 3.73842 18.6846 3.69302 18.5714 3.65721C18.5949 3.80986 18.6307 3.96036 18.6786 4.10721Z" fill="#262626"/>
<path d="M18.7071 2.85721C18.8154 2.97867 18.8911 3.12554 18.9274 3.28415C18.9636 3.44276 18.9591 3.60795 18.9143 3.76436C19.4724 4.08908 19.9397 4.54922 20.2731 5.10227C20.6064 5.65532 20.795 6.28345 20.8214 6.92864C21.1143 7.12864 21.3643 7.19293 21.5357 7.04293C21.6842 6.85876 21.776 6.63543 21.8 6.40007C21.6897 5.59182 21.3699 4.82647 20.8725 4.17994C20.3751 3.53341 19.7172 3.02817 18.9643 2.71436C18.8678 2.73932 18.7793 2.78849 18.7071 2.85721ZM18.6786 4.10721C18.7669 4.01349 18.8415 3.90767 18.9 3.79293C18.7945 3.73842 18.6846 3.69302 18.5714 3.65721C18.5949 3.80986 18.6307 3.96036 18.6786 4.10721Z" fill="black"/>
<path d="M18.9143 3.77122C18.9604 3.61379 18.9655 3.4472 18.9293 3.28721C18.893 3.12722 18.8166 2.97913 18.7071 2.85693C18.6202 2.9687 18.5623 3.10026 18.5386 3.23986C18.5149 3.37946 18.5262 3.52275 18.5714 3.65693C18.6919 3.69156 18.8091 3.73698 18.9214 3.79265L18.9143 3.77122ZM20.7143 11.7784C21.2673 11.7747 21.8188 11.8371 22.3571 11.9641C23.5857 12.3712 23.45 12.6784 24.5428 12.6784C25.6357 12.6784 26.1786 11.0355 26.1786 11.0355C25.5712 11.3767 24.8672 11.5049 24.1786 11.3998C23.5714 11.2926 23.5428 11.0069 22.9 10.8569C21.9143 10.6355 20.7143 11.7784 20.7143 11.7784ZM18.0714 25.9998L19.9 26.3141H20.0643C20.1832 26.3131 20.3012 26.2938 20.4143 26.2569L22.3286 25.6069C22.5051 25.5429 22.6607 25.4317 22.7786 25.2855L18.0714 25.4212V25.9998ZM22.1428 23.4855H21.7571C21.7337 23.3957 21.6917 23.3118 21.6339 23.2392C21.5761 23.1666 21.5037 23.107 21.4214 23.0641L20.8143 22.7569C20.7015 22.6987 20.5769 22.667 20.45 22.6641H18.0786V24.4212H18.2143V23.7069H20.4L20.4857 23.7569L20.3428 24.3355L20.5214 24.3855L23.0143 24.3141C22.9999 24.0917 22.9022 23.8828 22.7407 23.7292C22.5792 23.5757 22.3657 23.4886 22.1428 23.4855Z" fill="#262626"/>
<path d="M18.9143 3.77122C18.9604 3.61379 18.9655 3.4472 18.9293 3.28721C18.893 3.12722 18.8166 2.97913 18.7071 2.85693C18.6202 2.9687 18.5623 3.10026 18.5386 3.23986C18.5149 3.37946 18.5262 3.52275 18.5714 3.65693C18.6919 3.69156 18.8091 3.73698 18.9214 3.79265L18.9143 3.77122ZM20.7143 11.7784C21.2673 11.7747 21.8188 11.8371 22.3571 11.9641C23.5857 12.3712 23.45 12.6784 24.5428 12.6784C25.6357 12.6784 26.1786 11.0355 26.1786 11.0355C25.5712 11.3767 24.8672 11.5049 24.1786 11.3998C23.5714 11.2926 23.5428 11.0069 22.9 10.8569C21.9143 10.6355 20.7143 11.7784 20.7143 11.7784ZM18.0714 25.9998L19.9 26.3141H20.0643C20.1832 26.3131 20.3012 26.2938 20.4143 26.2569L22.3286 25.6069C22.5051 25.5429 22.6607 25.4317 22.7786 25.2855L18.0714 25.4212V25.9998ZM22.1428 23.4855H21.7571C21.7337 23.3957 21.6917 23.3118 21.6339 23.2392C21.5761 23.1666 21.5037 23.107 21.4214 23.0641L20.8143 22.7569C20.7015 22.6987 20.5769 22.667 20.45 22.6641H18.0786V24.4212H18.2143V23.7069H20.4L20.4857 23.7569L20.3428 24.3355L20.5214 24.3855L23.0143 24.3141C22.9999 24.0917 22.9022 23.8828 22.7407 23.7292C22.5792 23.5757 22.3657 23.4886 22.1428 23.4855Z" fill="black"/>
<path d="M23.0358 24.3858V24.2858L20.5429 24.3572L21.0572 24.4858H22.0358V24.6429L20.0929 25.3001L18.2143 25.0001V24.4215H18.0786V25.3358H17.2072V25.8572L18.0715 26.0001V25.4358L22.7786 25.3001C22.9418 25.117 23.0332 24.881 23.0358 24.6358V24.3858ZM17.2072 22.6644H18.0786V22.3929H14.6929L15.0715 18.5072L14.0643 18.4072L13.5786 23.4072H17.0643V24.4501H17.2072V22.6644ZM17.0715 24.4501H17.2072V25.3358H17.0715V24.4501Z" fill="#262626"/>
<path d="M23.0358 24.3858V24.2858L20.5429 24.3572L21.0572 24.4858H22.0358V24.6429L20.0929 25.3001L18.2143 25.0001V24.4215H18.0786V25.3358H17.2072V25.8572L18.0715 26.0001V25.4358L22.7786 25.3001C22.9418 25.117 23.0332 24.881 23.0358 24.6358V24.3858ZM17.2072 22.6644H18.0786V22.3929H14.6929L15.0715 18.5072L14.0643 18.4072L13.5786 23.4072H17.0643V24.4501H17.2072V22.6644ZM17.0715 24.4501H17.2072V25.3358H17.0715V24.4501Z" fill="black"/>
<path d="M17.2072 22.6641V24.4498L18.0786 24.4283V22.6641H17.2072Z" fill="#262626"/>
<path d="M17.2072 22.6641V24.4498L18.0786 24.4283V22.6641H17.2072Z" fill="black"/>
<path d="M18.0786 24.4287L17.2072 24.4501V25.3359H18.0786V24.4287Z" fill="#262626"/>
<path d="M18.0786 24.4287L17.2072 24.4501V25.3359H18.0786V24.4287Z" fill="black"/>
</svg>
