<svg width="40" height="30" viewBox="0 0 40 30" fill="none" xmlns="http://www.w3.org/2000/svg">
<path d="M31.8286 8.92857V21.0714H13.9714V8.92857H31.8286ZM33.2571 7.5H12.5428V22.5H33.2571V7.5Z" fill="#262626"/>
<path d="M31.8286 8.92857V21.0714H13.9714V8.92857H31.8286ZM33.2571 7.5H12.5428V22.5H33.2571V7.5Z" fill="black"/>
<path d="M27.9 13.5716V18.5716H18.6142V13.5716H27.9ZM29.3285 12.1431H17.1857V20.0002H29.3285V12.1431Z" fill="#262626"/>
<path d="M27.9 13.5716V18.5716H18.6142V13.5716H27.9ZM29.3285 12.1431H17.1857V20.0002H29.3285V12.1431Z" fill="black"/>
<path d="M24.3286 13.5714V15.7143H22.1857V13.5714H24.3286ZM25.7571 12.1429H20.7571V17.1429H25.7571V12.1429ZM6.47142 6.95L12.1857 8.76429V21.4286L6.47142 23.1214V6.95ZM5.04285 5V25L13.6143 22.4714V7.71429L5.04285 5Z" fill="#262626"/>
<path d="M24.3286 13.5714V15.7143H22.1857V13.5714H24.3286ZM25.7571 12.1429H20.7571V17.1429H25.7571V12.1429ZM6.47142 6.95L12.1857 8.76429V21.4286L6.47142 23.1214V6.95ZM5.04285 5V25L13.6143 22.4714V7.71429L5.04285 5Z" fill="black"/>
</svg>
