<svg width="5" height="16" viewBox="0 0 5 16" fill="none" xmlns="http://www.w3.org/2000/svg">
<path d="M0.805664 1.71875C0.805664 2.72461 1.53809 3.4375 2.50488 3.4375C3.47168 3.4375 4.19434 2.72461 4.19434 1.71875C4.19434 0.722656 3.47168 -3.15883e-08 2.50488 -7.38483e-08C1.53809 -1.16108e-07 0.805664 0.722656 0.805664 1.71875ZM0.805664 7.7832C0.805664 8.78906 1.53809 9.50195 2.50488 9.50195C3.47168 9.50195 4.19434 8.78906 4.19434 7.7832C4.19434 6.78711 3.47168 6.06445 2.50488 6.06445C1.53809 6.06445 0.805664 6.78711 0.805664 7.7832ZM0.805663 13.8477C0.805663 14.8535 1.53809 15.5664 2.50488 15.5664C3.47168 15.5664 4.19434 14.8535 4.19434 13.8477C4.19434 12.8516 3.47168 12.1289 2.50488 12.1289C1.53809 12.1289 0.805664 12.8516 0.805663 13.8477Z" fill="#9B9B9B"/>
</svg>
