<svg width="24" height="25" viewBox="0 0 24 25" fill="none" xmlns="http://www.w3.org/2000/svg">
<g clip-path="url(#clip0_2131_5442)">
<path d="M23.4461 9.68951C23.4435 9.26552 23.2369 8.86393 22.8939 8.615L20.124 6.60496V4.79264C20.124 4.05772 19.5263 3.46029 18.7914 3.46029H15.7901L12.9864 1.42621C12.2462 0.888951 11.2506 0.888251 10.5095 1.42384L7.68904 3.46048H4.74385C4.00893 3.46048 3.41131 4.0581 3.41131 4.79284V6.54937L0.444967 8.69162C0.166312 8.89295 0 9.21847 0 9.56221V22.9105C0 23.4986 0.478151 23.977 1.06648 23.977H22.1631C22.5299 23.977 22.8741 23.8336 23.1326 23.5736C23.3912 23.3135 23.5321 22.9683 23.5298 22.6018L23.4461 9.68951ZM20.1236 7.96089L22.0089 9.32882L20.1236 10.9395V7.96089ZM11.1521 2.31337C11.5084 2.05605 11.9866 2.05642 12.3422 2.31464L13.9214 3.46044H9.56327L11.1521 2.31337ZM4.50874 4.79278C4.50874 4.66312 4.61433 4.55753 4.74399 4.55753H18.7911C18.9208 4.55753 19.0264 4.66312 19.0264 4.79278V11.8768L18.7255 12.1338L12.1008 17.7953C11.9068 17.9607 11.6247 17.9616 11.4303 17.7966L4.80565 12.1827L4.50858 11.9308L4.50874 4.79278ZM3.41163 7.90282V11.0006L1.4381 9.32798L3.41163 7.90282ZM1.08848 10.4696L8.30743 16.5877L1.09688 22.4537L1.08848 10.4696ZM2.31271 22.8795L9.15911 17.3094L10.7209 18.6331C11.0236 18.89 11.3944 19.0179 11.7647 19.0179C12.1373 19.0179 12.51 18.8882 12.8133 18.6289L14.3419 17.3228L21.1383 22.8792L2.31247 22.8794L2.31271 22.8795ZM15.1904 16.5984L22.3543 10.477L22.4321 22.5191L15.1904 16.5984Z" fill="black"/>
<path d="M7.76901 8.19598H15.6747C15.9778 8.19598 16.2233 7.95016 16.2233 7.64743C16.2233 7.34434 15.9774 7.09888 15.6747 7.09888H7.76901C7.46592 7.09888 7.22046 7.3447 7.22046 7.64743C7.22028 7.95052 7.46592 8.19598 7.76901 8.19598Z" fill="black"/>
<path d="M7.76901 10.893H15.6747C15.9778 10.893 16.2233 10.6472 16.2233 10.3445C16.2233 10.0414 15.9774 9.7959 15.6747 9.7959H7.76901C7.46592 9.7959 7.22046 10.0417 7.22046 10.3445C7.22028 10.6475 7.46592 10.893 7.76901 10.893Z" fill="black"/>
<path d="M7.76901 13.59H15.6747C15.9778 13.59 16.2233 13.3442 16.2233 13.0415C16.2233 12.7387 15.9774 12.4929 15.6747 12.4929H7.76901C7.46592 12.4929 7.22046 12.7387 7.22046 13.0415C7.22046 13.3444 7.46592 13.59 7.76901 13.59Z" fill="black"/>
</g>
<defs>
<clipPath id="clip0_2131_5442">
<rect width="23.5298" height="25" fill="white"/>
</clipPath>
</defs>
</svg>
