<svg width="40" height="30" viewBox="0 0 40 30" fill="none" xmlns="http://www.w3.org/2000/svg">
<path d="M30.5715 18.2142L33.5715 24.6428H6.57146L9.50003 18.2142H30.5715ZM31.5 16.7856H8.64289L4.35718 26.0714H35.7857L31.5 16.7856Z" fill="#262626"/>
<path d="M30.5715 18.2142L33.5715 24.6428H6.57146L9.50003 18.2142H30.5715ZM31.5 16.7856H8.64289L4.35718 26.0714H35.7857L31.5 16.7856Z" fill="black"/>
<path d="M6.5 21.7856H33.6429V22.4999H6.5V21.7856ZM8.21429 19.357H31.7857V20.0713H8.21429V19.357ZM14.3571 14.4999H12.8571C12.8571 13.9284 13.2143 13.4284 13.7143 13.1427C14 12.9284 14.2143 12.7141 14.2143 12.357C14.2143 11.9999 14 11.857 13.7143 11.5713C13.2143 11.2856 12.9286 10.7856 12.8571 10.2141C12.8571 9.64272 13.2143 9.14272 13.7143 8.857C14 8.64272 14.2143 8.42843 14.2143 8.07129H15.7143C15.7143 8.64272 15.3571 9.14272 14.8571 9.42843C14.5714 9.64272 14.3571 9.857 14.3571 10.2141C14.3571 10.5713 14.5714 10.7141 14.8571 10.9999C15.3571 11.2856 15.6429 11.7856 15.7143 12.357C15.7143 12.9284 15.3571 13.4284 14.8571 13.7141C14.5714 13.9999 14.3571 14.1427 14.3571 14.4999ZM19.7143 14.4999H18.2143C18.2143 13.9284 18.5714 13.4284 19.0714 13.1427C19.3571 12.9284 19.5714 12.7141 19.5714 12.357C19.5714 11.9999 19.3571 11.857 19.0714 11.5713C18.5714 11.2856 18.2857 10.7856 18.2143 10.2141C18.2143 9.64272 18.5714 9.14272 19.0714 8.857C19.3571 8.64272 19.6429 8.49986 19.5714 8.07129H21.0714C21 8.64272 20.7143 9.14272 20.2143 9.42843C19.9286 9.64272 19.7143 9.857 19.7143 10.2141C19.7143 10.5713 19.9286 10.7141 20.2143 10.9999C20.7143 11.2856 21 11.7856 21.0714 12.357C21 12.9284 20.7143 13.4284 20.2143 13.7141C19.9286 13.9999 19.7143 14.1427 19.7143 14.4999ZM25.0714 14.4999H23.5714C23.5714 13.9284 23.9286 13.4284 24.4286 13.1427C24.7143 12.9284 24.9286 12.7141 24.9286 12.357C24.9286 11.9999 24.7143 11.857 24.4286 11.5713C23.9286 11.2856 23.6429 10.7856 23.5714 10.2141C23.5714 9.64272 23.9286 9.14272 24.4286 8.857C24.7143 8.64272 24.9286 8.42843 24.9286 8.07129H26.4286C26.4286 8.64272 26.0714 9.14272 25.5714 9.42843C25.2857 9.64272 25.0714 9.857 25.0714 10.2141C25.0714 10.5713 25.2857 10.7141 25.5714 10.9999C26.0714 11.2856 26.3571 11.7856 26.4286 12.357C26.4286 12.9284 26.0714 13.4284 25.5714 13.7141C25.2857 13.9999 25.0714 14.1427 25.0714 14.4999Z" fill="#262626"/>
<path d="M6.5 21.7856H33.6429V22.4999H6.5V21.7856ZM8.21429 19.357H31.7857V20.0713H8.21429V19.357ZM14.3571 14.4999H12.8571C12.8571 13.9284 13.2143 13.4284 13.7143 13.1427C14 12.9284 14.2143 12.7141 14.2143 12.357C14.2143 11.9999 14 11.857 13.7143 11.5713C13.2143 11.2856 12.9286 10.7856 12.8571 10.2141C12.8571 9.64272 13.2143 9.14272 13.7143 8.857C14 8.64272 14.2143 8.42843 14.2143 8.07129H15.7143C15.7143 8.64272 15.3571 9.14272 14.8571 9.42843C14.5714 9.64272 14.3571 9.857 14.3571 10.2141C14.3571 10.5713 14.5714 10.7141 14.8571 10.9999C15.3571 11.2856 15.6429 11.7856 15.7143 12.357C15.7143 12.9284 15.3571 13.4284 14.8571 13.7141C14.5714 13.9999 14.3571 14.1427 14.3571 14.4999ZM19.7143 14.4999H18.2143C18.2143 13.9284 18.5714 13.4284 19.0714 13.1427C19.3571 12.9284 19.5714 12.7141 19.5714 12.357C19.5714 11.9999 19.3571 11.857 19.0714 11.5713C18.5714 11.2856 18.2857 10.7856 18.2143 10.2141C18.2143 9.64272 18.5714 9.14272 19.0714 8.857C19.3571 8.64272 19.6429 8.49986 19.5714 8.07129H21.0714C21 8.64272 20.7143 9.14272 20.2143 9.42843C19.9286 9.64272 19.7143 9.857 19.7143 10.2141C19.7143 10.5713 19.9286 10.7141 20.2143 10.9999C20.7143 11.2856 21 11.7856 21.0714 12.357C21 12.9284 20.7143 13.4284 20.2143 13.7141C19.9286 13.9999 19.7143 14.1427 19.7143 14.4999ZM25.0714 14.4999H23.5714C23.5714 13.9284 23.9286 13.4284 24.4286 13.1427C24.7143 12.9284 24.9286 12.7141 24.9286 12.357C24.9286 11.9999 24.7143 11.857 24.4286 11.5713C23.9286 11.2856 23.6429 10.7856 23.5714 10.2141C23.5714 9.64272 23.9286 9.14272 24.4286 8.857C24.7143 8.64272 24.9286 8.42843 24.9286 8.07129H26.4286C26.4286 8.64272 26.0714 9.14272 25.5714 9.42843C25.2857 9.64272 25.0714 9.857 25.0714 10.2141C25.0714 10.5713 25.2857 10.7141 25.5714 10.9999C26.0714 11.2856 26.3571 11.7856 26.4286 12.357C26.4286 12.9284 26.0714 13.4284 25.5714 13.7141C25.2857 13.9999 25.0714 14.1427 25.0714 14.4999Z" fill="black"/>
<path d="M12.9113 24.9126L13.6208 22.0713L14.3138 22.2444L13.6043 25.0857L12.9113 24.9126Z" fill="#262626"/>
<path d="M12.9113 24.9126L13.6208 22.0713L14.3138 22.2444L13.6043 25.0857L12.9113 24.9126Z" fill="black"/>
<path d="M14.3514 19.5156L15.0749 17.3474L15.7524 17.5735L15.029 19.7417L14.3514 19.5156Z" fill="#262626"/>
<path d="M14.3514 19.5156L15.0749 17.3474L15.7524 17.5735L15.029 19.7417L14.3514 19.5156Z" fill="black"/>
<path d="M24.3596 22.1968L25.0526 22.0236L25.7628 24.8647L25.0698 25.0379L24.3596 22.1968Z" fill="#262626"/>
<path d="M24.3596 22.1968L25.0526 22.0236L25.7628 24.8647L25.0698 25.0379L24.3596 22.1968Z" fill="black"/>
<path d="M22.9412 17.5918L23.6188 17.366L24.3415 19.5344L23.6639 19.7603L22.9412 17.5918Z" fill="#262626"/>
<path d="M22.9412 17.5918L23.6188 17.366L24.3415 19.5344L23.6639 19.7603L22.9412 17.5918Z" fill="black"/>
</svg>
