<svg width="38" height="25" viewBox="0 0 38 25" fill="none" xmlns="http://www.w3.org/2000/svg">
<g clip-path="url(#clip0_5293_30418)">
<path d="M23.6903 14.3275C23.6903 17.495 26.1878 19.0483 28.1979 19.0483C30.2081 19.0483 32.7055 17.495 32.7055 14.3275C32.7055 11.8605 30.269 9.88081 28.1979 8.69299C26.1573 9.91127 23.6903 11.8605 23.6903 14.3275Z" fill="#BE9C59"/>
<path d="M23.6903 14.3275C23.6903 17.495 26.1878 19.0483 28.1979 19.0483C30.2081 19.0483 32.7055 17.495 32.7055 14.3275C32.7055 11.8605 30.269 9.88081 28.1979 8.69299C26.1573 9.91127 23.6903 11.8605 23.6903 14.3275Z" fill="#E0C184" fill-opacity="0.5"/>
<path d="M5.32483 14.3882C5.32483 17.5558 7.82229 19.1091 9.83244 19.1091C11.8426 19.1091 14.3401 17.5558 14.3401 14.3882C14.3401 11.9212 11.9035 9.94154 9.83244 8.75372C7.76138 9.94154 5.32483 11.9212 5.32483 14.3882Z" fill="#BE9C59"/>
<path d="M5.32483 14.3882C5.32483 17.5558 7.82229 19.1091 9.83244 19.1091C11.8426 19.1091 14.3401 17.5558 14.3401 14.3882C14.3401 11.9212 11.9035 9.94154 9.83244 8.75372C7.76138 9.94154 5.32483 11.9212 5.32483 14.3882Z" fill="#E0C184" fill-opacity="0.5"/>
<path d="M0.604005 0.5V24.5H37.3959V0.5H0.604005ZM37.3654 6.34772C35.1421 6.34772 32.4619 6.77411 30.3604 7.68782C32.6446 9.21066 34.8375 11.4949 34.8375 14.4188C34.8375 18.2563 31.6091 21.1802 28.0761 21.1802C24.5431 21.1802 21.406 18.2563 21.406 14.4188C21.406 11.5254 23.5076 9.21066 25.7614 7.68782C23.6598 6.77411 21.1928 6.34772 18.9695 6.34772C16.7461 6.34772 14.2791 6.77411 12.1776 7.68782C14.4619 9.21066 16.5329 11.4949 16.5329 14.4188C16.5329 18.2563 13.4263 21.1802 9.86289 21.1802C6.32989 21.1802 3.04055 18.2563 3.04055 14.4188C3.04055 11.5254 5.29436 9.21066 7.54817 7.68782C5.44664 6.77411 2.76644 6.34772 0.543091 6.34772V4.24619C4.28928 4.24619 7.57862 5.19036 9.83243 6.34772C12.0862 5.19036 15.1928 4.24619 18.939 4.24619C22.6852 4.24619 25.7918 5.19036 28.0152 6.34772C30.269 5.19036 33.5888 4.24619 37.3045 4.24619V6.34772H37.3654Z" fill="#BE9C59"/>
<path d="M0.604005 0.5V24.5H37.3959V0.5H0.604005ZM37.3654 6.34772C35.1421 6.34772 32.4619 6.77411 30.3604 7.68782C32.6446 9.21066 34.8375 11.4949 34.8375 14.4188C34.8375 18.2563 31.6091 21.1802 28.0761 21.1802C24.5431 21.1802 21.406 18.2563 21.406 14.4188C21.406 11.5254 23.5076 9.21066 25.7614 7.68782C23.6598 6.77411 21.1928 6.34772 18.9695 6.34772C16.7461 6.34772 14.2791 6.77411 12.1776 7.68782C14.4619 9.21066 16.5329 11.4949 16.5329 14.4188C16.5329 18.2563 13.4263 21.1802 9.86289 21.1802C6.32989 21.1802 3.04055 18.2563 3.04055 14.4188C3.04055 11.5254 5.29436 9.21066 7.54817 7.68782C5.44664 6.77411 2.76644 6.34772 0.543091 6.34772V4.24619C4.28928 4.24619 7.57862 5.19036 9.83243 6.34772C12.0862 5.19036 15.1928 4.24619 18.939 4.24619C22.6852 4.24619 25.7918 5.19036 28.0152 6.34772C30.269 5.19036 33.5888 4.24619 37.3045 4.24619V6.34772H37.3654Z" fill="#E0C184" fill-opacity="0.5"/>
</g>
<defs>
<clipPath id="clip0_5293_30418">
<rect width="36.7919" height="24" fill="white" transform="translate(0.604004 0.5)"/>
</clipPath>
</defs>
</svg>
