<svg width="40" height="30" viewBox="0 0 40 30" fill="none" xmlns="http://www.w3.org/2000/svg">
<path d="M26.5001 10.7142V24.9999H12.2143V10.7142H26.5001ZM27.9286 9.28564H10.7858V26.4285H27.9286V9.28564Z" fill="#262626"/>
<path d="M26.5001 10.7142V24.9999H12.2143V10.7142H26.5001ZM27.9286 9.28564H10.7858V26.4285H27.9286V9.28564Z" fill="black"/>
<path d="M16.9286 3.78571V2.71429C17.0714 2.71429 17.2143 2.78571 17.3572 2.78571C17.4286 2.78571 17.4286 2.85714 17.4286 2.92857C17.4286 3 17.3572 3.14286 17.3572 3.28571C17.3572 3.42857 17.3572 3.57143 17.2857 3.78571H18.7857C18.8572 3.78571 18.8572 3.78571 18.8572 3.85714V4.28571C18.8572 4.85714 18.7857 5.5 18.6429 5.85714C18.5714 6.21429 18.4286 6.35714 18.2143 6.42857C18.0714 6.5 17.8572 6.5 17.7143 6.5C17.6429 6.5 17.6429 6.5 17.6429 6.42857C17.6429 6.28571 17.5714 6.21429 17.5 6.14286C17.7857 6.14286 18 6.14286 18.1429 6.07143C18.2857 6 18.3572 6 18.4286 5.64286C18.5 5.28571 18.5714 4.64286 18.5714 4H17.3572C17.2857 4.57143 17.1429 5 16.9286 5.42857C16.7143 5.78571 16.2857 6.21429 15.8572 6.42857H15.7143C15.6429 6.35714 15.5714 6.28571 15.4286 6.28571C15.9286 6 16.3572 5.64286 16.5714 5.28571C16.7857 5 16.9286 4.57143 17 4H15.7143C15.6429 4 15.6429 4 15.6429 3.92857V3.64286H16.9286V3.78571ZM18.5714 2.85714C18.6429 2.78571 18.6429 2.78571 18.5714 2.85714C18.8572 3 19.0714 3.21429 19.2143 3.42857V3.5L19.0714 3.64286H19C18.8572 3.42857 18.6429 3.14286 18.4286 3L18.5714 2.85714ZM19 2.5C19.0714 2.5 19.0714 2.5 19 2.5C19.2857 2.64286 19.5 2.85714 19.6429 3.07143V3.14286L19.5 3.28571H19.4286C19.2857 3.07143 19.0714 2.85714 18.8572 2.64286L19 2.5Z" fill="#262626"/>
<path d="M16.9286 3.78571V2.71429C17.0714 2.71429 17.2143 2.78571 17.3572 2.78571C17.4286 2.78571 17.4286 2.85714 17.4286 2.92857C17.4286 3 17.3572 3.14286 17.3572 3.28571C17.3572 3.42857 17.3572 3.57143 17.2857 3.78571H18.7857C18.8572 3.78571 18.8572 3.78571 18.8572 3.85714V4.28571C18.8572 4.85714 18.7857 5.5 18.6429 5.85714C18.5714 6.21429 18.4286 6.35714 18.2143 6.42857C18.0714 6.5 17.8572 6.5 17.7143 6.5C17.6429 6.5 17.6429 6.5 17.6429 6.42857C17.6429 6.28571 17.5714 6.21429 17.5 6.14286C17.7857 6.14286 18 6.14286 18.1429 6.07143C18.2857 6 18.3572 6 18.4286 5.64286C18.5 5.28571 18.5714 4.64286 18.5714 4H17.3572C17.2857 4.57143 17.1429 5 16.9286 5.42857C16.7143 5.78571 16.2857 6.21429 15.8572 6.42857H15.7143C15.6429 6.35714 15.5714 6.28571 15.4286 6.28571C15.9286 6 16.3572 5.64286 16.5714 5.28571C16.7857 5 16.9286 4.57143 17 4H15.7143C15.6429 4 15.6429 4 15.6429 3.92857V3.64286H16.9286V3.78571ZM18.5714 2.85714C18.6429 2.78571 18.6429 2.78571 18.5714 2.85714C18.8572 3 19.0714 3.21429 19.2143 3.42857V3.5L19.0714 3.64286H19C18.8572 3.42857 18.6429 3.14286 18.4286 3L18.5714 2.85714ZM19 2.5C19.0714 2.5 19.0714 2.5 19 2.5C19.2857 2.64286 19.5 2.85714 19.6429 3.07143V3.14286L19.5 3.28571H19.4286C19.2857 3.07143 19.0714 2.85714 18.8572 2.64286L19 2.5Z" fill="black"/>
<path d="M23.0715 3.21449C23.2143 3.21449 23.2858 3.21449 23.3572 3.14307H23.4286L23.6429 3.35735V3.50021C23.5715 3.50021 23.5715 3.57164 23.5 3.64307C23.2858 4.00021 23 4.35735 22.7858 4.7145C23.2858 5.07164 23.7858 5.50021 24.2143 6.00021C24.2858 6.07164 24.2858 6.07164 24.2143 6.07164L24 6.28592H23.9286C23.5 5.78592 23 5.35735 22.5715 5.00021C22 5.57164 21.4286 6.07164 20.7857 6.42878H20.6429C20.5715 6.35735 20.5 6.28592 20.3572 6.2145C21.1429 5.85735 21.7143 5.35735 22.2143 4.85735C22.5715 4.50021 22.8572 4.07164 23.1429 3.50021H20.9286C20.8572 3.50021 20.8572 3.50021 20.8572 3.42878V3.14307H23.0715V3.21449Z" fill="#262626"/>
<path d="M23.0715 3.21449C23.2143 3.21449 23.2858 3.21449 23.3572 3.14307H23.4286L23.6429 3.35735V3.50021C23.5715 3.50021 23.5715 3.57164 23.5 3.64307C23.2858 4.00021 23 4.35735 22.7858 4.7145C23.2858 5.07164 23.7858 5.50021 24.2143 6.00021C24.2858 6.07164 24.2858 6.07164 24.2143 6.07164L24 6.28592H23.9286C23.5 5.78592 23 5.35735 22.5715 5.00021C22 5.57164 21.4286 6.07164 20.7857 6.42878H20.6429C20.5715 6.35735 20.5 6.28592 20.3572 6.2145C21.1429 5.85735 21.7143 5.35735 22.2143 4.85735C22.5715 4.50021 22.8572 4.07164 23.1429 3.50021H20.9286C20.8572 3.50021 20.8572 3.50021 20.8572 3.42878V3.14307H23.0715V3.21449Z" fill="black"/>
<path d="M19.3571 13.9286C21.4999 13.9286 23.2857 15.7144 23.2857 17.8572C23.2857 20.0001 21.4999 21.7858 19.3571 21.7858C17.2142 21.7858 15.4285 20.0001 15.4285 17.8572C15.4285 16.7858 15.8571 15.7858 16.5714 15.0715C17.2857 14.3572 18.2857 13.9286 19.3571 13.9286ZM19.3571 13.2144C16.7857 13.2144 14.7142 15.2858 14.7142 17.8572C14.7142 20.4286 16.7857 22.5001 19.3571 22.5001C21.9285 22.5001 23.9999 20.4286 23.9999 17.8572C23.9999 16.6429 23.4999 15.4286 22.6428 14.5715C21.7142 13.7144 20.5714 13.2144 19.3571 13.2144Z" fill="#262626"/>
<path d="M19.3571 13.9286C21.4999 13.9286 23.2857 15.7144 23.2857 17.8572C23.2857 20.0001 21.4999 21.7858 19.3571 21.7858C17.2142 21.7858 15.4285 20.0001 15.4285 17.8572C15.4285 16.7858 15.8571 15.7858 16.5714 15.0715C17.2857 14.3572 18.2857 13.9286 19.3571 13.9286ZM19.3571 13.2144C16.7857 13.2144 14.7142 15.2858 14.7142 17.8572C14.7142 20.4286 16.7857 22.5001 19.3571 22.5001C21.9285 22.5001 23.9999 20.4286 23.9999 17.8572C23.9999 16.6429 23.4999 15.4286 22.6428 14.5715C21.7142 13.7144 20.5714 13.2144 19.3571 13.2144Z" fill="black"/>
<path d="M20.8622 15.3936L24.45 12.2265L24.9227 12.7619L21.3349 15.9291L20.8622 15.3936Z" fill="#262626"/>
<path d="M20.8622 15.3936L24.45 12.2265L24.9227 12.7619L21.3349 15.9291L20.8622 15.3936Z" fill="black"/>
<path d="M13.7697 12.7593L14.2421 12.2236L17.8313 15.3892L17.3588 15.9249L13.7697 12.7593Z" fill="#262626"/>
<path d="M13.7697 12.7593L14.2421 12.2236L17.8313 15.3892L17.3588 15.9249L13.7697 12.7593Z" fill="black"/>
<path d="M20.9178 20.3267L21.3903 19.791L24.9795 22.9566L24.507 23.4923L20.9178 20.3267Z" fill="#262626"/>
<path d="M20.9178 20.3267L21.3903 19.791L24.9795 22.9566L24.507 23.4923L20.9178 20.3267Z" fill="black"/>
<path d="M13.7239 22.9609L17.3139 19.7963L17.7862 20.3322L14.1962 23.4968L13.7239 22.9609Z" fill="#262626"/>
<path d="M13.7239 22.9609L17.3139 19.7963L17.7862 20.3322L14.1962 23.4968L13.7239 22.9609Z" fill="black"/>
</svg>
