<svg width="40" height="30" viewBox="0 0 40 30" fill="none" xmlns="http://www.w3.org/2000/svg">
<path d="M10.2857 17.2144C9.85713 17.2144 9.57141 17.5001 9.57141 17.9286C9.57141 18.3572 9.85713 18.6429 10.2857 18.6429C10.7143 18.6429 11 18.3572 11 17.9286C11 17.5001 10.6428 17.2144 10.2857 17.2144Z" fill="#262626"/>
<path d="M10.2857 17.2144C9.85713 17.2144 9.57141 17.5001 9.57141 17.9286C9.57141 18.3572 9.85713 18.6429 10.2857 18.6429C10.7143 18.6429 11 18.3572 11 17.9286C11 17.5001 10.6428 17.2144 10.2857 17.2144Z" fill="black"/>
<path d="M29.3571 11.7856L24.2857 9.78564C23.4285 9.4285 22.5714 9.28564 21.6428 9.28564H18.5714C17.4285 9.28564 16.3571 9.57136 15.3571 10.0714L10.7857 12.3571L7.57138 12.8571C5.92852 13.0714 4.71423 14.4999 4.71423 16.1428V18.0714C4.71423 18.3571 4.92852 18.6428 5.28566 18.6428H7.57138C7.92852 20.1428 9.42852 21.0714 10.9285 20.7142C11.9999 20.4999 12.7857 19.6428 12.9999 18.6428H22.7142C23.0714 20.1428 24.5714 21.0714 26.0714 20.7142C27.0714 20.4999 27.9285 19.6428 28.1428 18.6428H30.6428C30.9285 18.6428 31.2142 18.4285 31.2142 18.0714V14.4999C31.1428 13.2856 30.4285 12.2142 29.3571 11.7856ZM23.8571 10.7856L27.7857 12.3571H24.8571L23.5714 10.6428L23.8571 10.7856ZM19.0714 10.3571H21.9285L23.4285 12.3571H19.0714V10.3571ZM15.8571 10.9999C16.4999 10.6428 17.2857 10.4285 17.9999 10.3571V12.2856H13.2142L15.8571 10.9999ZM7.64281 13.9285C7.42852 14.7142 6.71423 15.2142 5.92852 15.2856C6.21423 14.5714 6.85709 14.0714 7.64281 13.9285ZM10.2857 19.6428C9.35709 19.6428 8.57138 18.8571 8.64281 17.9285C8.64281 16.9999 9.42852 16.2142 10.3571 16.2856C11.2857 16.2856 12.0714 17.0714 11.9999 17.9999C11.9285 18.8571 11.2142 19.6428 10.2857 19.6428ZM25.3571 19.6428C24.4285 19.6428 23.6428 18.8571 23.7142 17.9285C23.7142 16.9999 24.4999 16.2142 25.4285 16.2856C26.3571 16.2856 27.1428 17.0714 27.0714 17.9999C27.0714 18.8571 26.3571 19.6428 25.3571 19.6428ZM30 17.4999H28.0714C27.7857 15.9999 26.3571 14.9999 24.8571 15.2142C23.7142 15.4285 22.7857 16.2856 22.5714 17.4999H12.9999C12.7142 15.9999 11.2857 14.9999 9.71423 15.2856C8.57138 15.4999 7.71423 16.3571 7.49995 17.4999H5.78566V16.4285C7.28566 16.4285 8.57138 15.2856 8.78566 13.7856L11.0714 13.4285H28.0714V14.1428C28.0714 15.1428 28.8571 15.9285 29.8571 15.9285H30V17.4999ZM30 14.7856H29.7857C29.3571 14.7856 29.0714 14.4999 29.0714 14.0714V13.3571H29.7142C29.9285 13.6428 30.0714 13.9999 30.0714 14.3571L30 14.7856Z" fill="#262626"/>
<path d="M29.3571 11.7856L24.2857 9.78564C23.4285 9.4285 22.5714 9.28564 21.6428 9.28564H18.5714C17.4285 9.28564 16.3571 9.57136 15.3571 10.0714L10.7857 12.3571L7.57138 12.8571C5.92852 13.0714 4.71423 14.4999 4.71423 16.1428V18.0714C4.71423 18.3571 4.92852 18.6428 5.28566 18.6428H7.57138C7.92852 20.1428 9.42852 21.0714 10.9285 20.7142C11.9999 20.4999 12.7857 19.6428 12.9999 18.6428H22.7142C23.0714 20.1428 24.5714 21.0714 26.0714 20.7142C27.0714 20.4999 27.9285 19.6428 28.1428 18.6428H30.6428C30.9285 18.6428 31.2142 18.4285 31.2142 18.0714V14.4999C31.1428 13.2856 30.4285 12.2142 29.3571 11.7856ZM23.8571 10.7856L27.7857 12.3571H24.8571L23.5714 10.6428L23.8571 10.7856ZM19.0714 10.3571H21.9285L23.4285 12.3571H19.0714V10.3571ZM15.8571 10.9999C16.4999 10.6428 17.2857 10.4285 17.9999 10.3571V12.2856H13.2142L15.8571 10.9999ZM7.64281 13.9285C7.42852 14.7142 6.71423 15.2142 5.92852 15.2856C6.21423 14.5714 6.85709 14.0714 7.64281 13.9285ZM10.2857 19.6428C9.35709 19.6428 8.57138 18.8571 8.64281 17.9285C8.64281 16.9999 9.42852 16.2142 10.3571 16.2856C11.2857 16.2856 12.0714 17.0714 11.9999 17.9999C11.9285 18.8571 11.2142 19.6428 10.2857 19.6428ZM25.3571 19.6428C24.4285 19.6428 23.6428 18.8571 23.7142 17.9285C23.7142 16.9999 24.4999 16.2142 25.4285 16.2856C26.3571 16.2856 27.1428 17.0714 27.0714 17.9999C27.0714 18.8571 26.3571 19.6428 25.3571 19.6428ZM30 17.4999H28.0714C27.7857 15.9999 26.3571 14.9999 24.8571 15.2142C23.7142 15.4285 22.7857 16.2856 22.5714 17.4999H12.9999C12.7142 15.9999 11.2857 14.9999 9.71423 15.2856C8.57138 15.4999 7.71423 16.3571 7.49995 17.4999H5.78566V16.4285C7.28566 16.4285 8.57138 15.2856 8.78566 13.7856L11.0714 13.4285H28.0714V14.1428C28.0714 15.1428 28.8571 15.9285 29.8571 15.9285H30V17.4999ZM30 14.7856H29.7857C29.3571 14.7856 29.0714 14.4999 29.0714 14.0714V13.3571H29.7142C29.9285 13.6428 30.0714 13.9999 30.0714 14.3571L30 14.7856Z" fill="black"/>
<path d="M25.3571 17.2144C24.9285 17.2144 24.6428 17.5001 24.6428 17.9286C24.6428 18.3572 24.9285 18.6429 25.3571 18.6429C25.7857 18.6429 26.0714 18.3572 26.0714 17.9286C26.0714 17.5715 25.7857 17.2144 25.3571 17.2144Z" fill="#262626"/>
<path d="M25.3571 17.2144C24.9285 17.2144 24.6428 17.5001 24.6428 17.9286C24.6428 18.3572 24.9285 18.6429 25.3571 18.6429C25.7857 18.6429 26.0714 18.3572 26.0714 17.9286C26.0714 17.5715 25.7857 17.2144 25.3571 17.2144Z" fill="black"/>
<path d="M19.6429 14.9287H16.0714C15.7857 14.9287 15.5 15.143 15.5 15.5001C15.5 15.7859 15.7143 16.0001 16.0714 16.0001H19.6429C19.9286 16.0001 20.2143 15.7859 20.2143 15.4287C20.2143 15.0716 20 14.9287 19.6429 14.9287Z" fill="#262626"/>
<path d="M19.6429 14.9287H16.0714C15.7857 14.9287 15.5 15.143 15.5 15.5001C15.5 15.7859 15.7143 16.0001 16.0714 16.0001H19.6429C19.9286 16.0001 20.2143 15.7859 20.2143 15.4287C20.2143 15.0716 20 14.9287 19.6429 14.9287Z" fill="black"/>
<path d="M10.2857 17.2144C9.85713 17.2144 9.57141 17.5001 9.57141 17.9286C9.57141 18.3572 9.85713 18.6429 10.2857 18.6429C10.7143 18.6429 11 18.3572 11 17.9286C11 17.5001 10.6428 17.2144 10.2857 17.2144Z" fill="#262626"/>
<path d="M10.2857 17.2144C9.85713 17.2144 9.57141 17.5001 9.57141 17.9286C9.57141 18.3572 9.85713 18.6429 10.2857 18.6429C10.7143 18.6429 11 18.3572 11 17.9286C11 17.5001 10.6428 17.2144 10.2857 17.2144Z" fill="black"/>
<path d="M25.3571 17.2144C24.9285 17.2144 24.6428 17.5001 24.6428 17.9286C24.6428 18.3572 24.9285 18.6429 25.3571 18.6429C25.7857 18.6429 26.0714 18.3572 26.0714 17.9286C26.0714 17.5715 25.7857 17.2144 25.3571 17.2144Z" fill="#262626"/>
<path d="M25.3571 17.2144C24.9285 17.2144 24.6428 17.5001 24.6428 17.9286C24.6428 18.3572 24.9285 18.6429 25.3571 18.6429C25.7857 18.6429 26.0714 18.3572 26.0714 17.9286C26.0714 17.5715 25.7857 17.2144 25.3571 17.2144Z" fill="black"/>
<path d="M10.2857 17.2144C9.85713 17.2144 9.57141 17.5001 9.57141 17.9286C9.57141 18.3572 9.85713 18.6429 10.2857 18.6429C10.7143 18.6429 11 18.3572 11 17.9286C11 17.5001 10.6428 17.2144 10.2857 17.2144Z" fill="#262626"/>
<path d="M10.2857 17.2144C9.85713 17.2144 9.57141 17.5001 9.57141 17.9286C9.57141 18.3572 9.85713 18.6429 10.2857 18.6429C10.7143 18.6429 11 18.3572 11 17.9286C11 17.5001 10.6428 17.2144 10.2857 17.2144Z" fill="black"/>
<path d="M25.3571 17.2144C24.9285 17.2144 24.6428 17.5001 24.6428 17.9286C24.6428 18.3572 24.9285 18.6429 25.3571 18.6429C25.7857 18.6429 26.0714 18.3572 26.0714 17.9286C26.0714 17.5715 25.7857 17.2144 25.3571 17.2144Z" fill="#262626"/>
<path d="M25.3571 17.2144C24.9285 17.2144 24.6428 17.5001 24.6428 17.9286C24.6428 18.3572 24.9285 18.6429 25.3571 18.6429C25.7857 18.6429 26.0714 18.3572 26.0714 17.9286C26.0714 17.5715 25.7857 17.2144 25.3571 17.2144Z" fill="black"/>
<path d="M5.07141 20.7144H35.0714V22.143H5.07141V20.7144ZM32.2143 16.4287H35.0714V20.7144H32.2143V16.4287Z" fill="#262626"/>
<path d="M5.07141 20.7144H35.0714V22.143H5.07141V20.7144ZM32.2143 16.4287H35.0714V20.7144H32.2143V16.4287Z" fill="black"/>
</svg>
