<svg width="40" height="30" viewBox="0 0 40 30" fill="none" xmlns="http://www.w3.org/2000/svg">
<path d="M14.6143 14.2855L15.6571 16.1998C14.7929 18.5783 13.2786 22.9498 13.2643 22.9926C13.1074 23.4332 13.1303 23.9179 13.3282 24.3417C13.5261 24.7655 13.8829 25.0943 14.3214 25.2569C14.5073 25.3225 14.7029 25.3563 14.9 25.3569C15.1921 25.3507 15.4776 25.2684 15.7281 25.1181C15.9787 24.9678 16.1856 24.7546 16.3286 24.4998C16.4026 24.5941 16.4864 24.6803 16.5786 24.7569C17.0703 25.1413 17.6837 25.3364 18.3071 25.3069H26C26.5664 25.3452 27.1333 25.2395 27.6478 24.9997C28.1624 24.7599 28.6079 24.3938 28.9429 23.9355C29.2357 23.4577 29.4185 22.9207 29.4778 22.3635C29.5371 21.8062 29.4715 21.2428 29.2857 20.7141C30.4643 19.3998 32.0286 17.0498 31.3214 14.3926C31.1929 13.8355 30.9286 13.5283 30.5357 13.4783C30.3248 13.4687 30.1161 13.5247 29.9383 13.6385C29.7605 13.7523 29.6224 13.9185 29.5429 14.1141L29.4929 14.2069C28.8902 15.3994 28.0963 16.4852 27.1429 17.4212C25.8857 15.8141 23.5143 12.7069 21.65 10.2783L20.9857 9.56406L21.05 9.5212L20.7143 8.99263L17.8571 5.19263C17.7236 4.96531 17.5134 4.79308 17.2643 4.70692C17.126 4.66041 16.9798 4.64206 16.8343 4.65295C16.6889 4.66384 16.547 4.70375 16.4172 4.77032C16.2874 4.83689 16.1722 4.92878 16.0785 5.04056C15.9848 5.15235 15.9143 5.28177 15.8714 5.4212L15.6143 5.99263C15.5572 6.10637 15.4658 6.19929 15.353 6.25825C15.2402 6.31721 15.1117 6.33923 14.9857 6.3212L10.1429 5.19977C9.94113 5.14985 9.73029 5.14985 9.52857 5.19977C9.22312 5.27925 8.96029 5.47387 8.79517 5.74285C8.63005 6.01183 8.57547 6.33429 8.64285 6.64263L9.00714 8.84263C9.08384 9.23843 9.27065 9.60456 9.5461 9.89896C9.82154 10.1934 10.1745 10.4041 10.5643 10.5069L10.7857 10.5498C10.6876 10.7294 10.6361 10.9308 10.6361 11.1355C10.6361 11.3402 10.6876 11.5416 10.7857 11.7212C10.9683 12.0611 11.2215 12.358 11.5282 12.5921C11.835 12.8262 12.1882 12.9919 12.5643 13.0783L12.9 13.1426L14.0214 13.8569L14.6143 14.2855ZM17.8571 21.3355L18.0357 20.9712C18.0287 21.0854 18.0287 21.1999 18.0357 21.3141L17.8571 21.3355ZM26.6286 18.6783L27 19.1498L27.4643 18.7783C28.6077 17.8058 29.5535 16.6224 30.25 15.2926C30.4714 17.3355 29.0571 19.1712 28.1071 20.1283L27.8357 20.4141L27.9786 20.7855C28.1642 21.1706 28.2552 21.5945 28.244 22.0218C28.2328 22.4492 28.1198 22.8678 27.9143 23.2426C27.6865 23.5355 27.3881 23.7658 27.0471 23.912C26.706 24.0582 26.3335 24.1154 25.9643 24.0783H18.3071C17.9659 24.1055 17.6262 24.0092 17.35 23.8069C17.2835 23.7526 17.2303 23.6838 17.1944 23.6059C17.1585 23.5279 17.1409 23.4427 17.1429 23.3569C17.1429 22.9355 17.6 22.5069 18.4643 22.5069H19.1786V21.3855C19.1919 21.0733 19.313 20.7754 19.5214 20.5426L19.8429 20.1783L18.2143 17.7998L15.3571 23.7212C15.3071 23.8426 15.1071 24.2426 14.7071 24.0998C14.571 24.0489 14.4606 23.9461 14.4 23.8141C14.3717 23.7487 14.3571 23.6782 14.3571 23.6069C14.3571 23.5357 14.3717 23.4652 14.4 23.3998C14.4 23.3569 16.0643 18.6069 16.8929 16.3283L17.0071 16.0283C17.0071 16.0283 15.3143 12.1426 13.9071 12.1426L13.1143 11.9498L12.7786 11.8855C12.4213 11.7889 12.1115 11.5655 11.9071 11.2569L13.3357 11.2998C13.6214 11.2998 14.2714 11.2998 14.35 10.7212C14.4286 10.1426 13.7786 9.9712 13.5 9.90692L10.8214 9.28549C10.6679 9.23905 10.5292 9.15334 10.4189 9.03683C10.3087 8.92033 10.2307 8.77706 10.1929 8.6212L9.87857 6.42835L14.6857 7.53549C15.0855 7.61713 15.5012 7.56051 15.8645 7.37492C16.2279 7.18934 16.5175 6.88579 16.6857 6.51406L16.9143 6.0212L19.3929 9.28549L27.3 19.2855" fill="#262626"/>
<path d="M14.6143 14.2855L15.6571 16.1998C14.7929 18.5783 13.2786 22.9498 13.2643 22.9926C13.1074 23.4332 13.1303 23.9179 13.3282 24.3417C13.5261 24.7655 13.8829 25.0943 14.3214 25.2569C14.5073 25.3225 14.7029 25.3563 14.9 25.3569C15.1921 25.3507 15.4776 25.2684 15.7281 25.1181C15.9787 24.9678 16.1856 24.7546 16.3286 24.4998C16.4026 24.5941 16.4864 24.6803 16.5786 24.7569C17.0703 25.1413 17.6837 25.3364 18.3071 25.3069H26C26.5664 25.3452 27.1333 25.2395 27.6478 24.9997C28.1624 24.7599 28.6079 24.3938 28.9429 23.9355C29.2357 23.4577 29.4185 22.9207 29.4778 22.3635C29.5371 21.8062 29.4715 21.2428 29.2857 20.7141C30.4643 19.3998 32.0286 17.0498 31.3214 14.3926C31.1929 13.8355 30.9286 13.5283 30.5357 13.4783C30.3248 13.4687 30.1161 13.5247 29.9383 13.6385C29.7605 13.7523 29.6224 13.9185 29.5429 14.1141L29.4929 14.2069C28.8902 15.3994 28.0963 16.4852 27.1429 17.4212C25.8857 15.8141 23.5143 12.7069 21.65 10.2783L20.9857 9.56406L21.05 9.5212L20.7143 8.99263L17.8571 5.19263C17.7236 4.96531 17.5134 4.79308 17.2643 4.70692C17.126 4.66041 16.9798 4.64206 16.8343 4.65295C16.6889 4.66384 16.547 4.70375 16.4172 4.77032C16.2874 4.83689 16.1722 4.92878 16.0785 5.04056C15.9848 5.15235 15.9143 5.28177 15.8714 5.4212L15.6143 5.99263C15.5572 6.10637 15.4658 6.19929 15.353 6.25825C15.2402 6.31721 15.1117 6.33923 14.9857 6.3212L10.1429 5.19977C9.94113 5.14985 9.73029 5.14985 9.52857 5.19977C9.22312 5.27925 8.96029 5.47387 8.79517 5.74285C8.63005 6.01183 8.57547 6.33429 8.64285 6.64263L9.00714 8.84263C9.08384 9.23843 9.27065 9.60456 9.5461 9.89896C9.82154 10.1934 10.1745 10.4041 10.5643 10.5069L10.7857 10.5498C10.6876 10.7294 10.6361 10.9308 10.6361 11.1355C10.6361 11.3402 10.6876 11.5416 10.7857 11.7212C10.9683 12.0611 11.2215 12.358 11.5282 12.5921C11.835 12.8262 12.1882 12.9919 12.5643 13.0783L12.9 13.1426L14.0214 13.8569L14.6143 14.2855ZM17.8571 21.3355L18.0357 20.9712C18.0287 21.0854 18.0287 21.1999 18.0357 21.3141L17.8571 21.3355ZM26.6286 18.6783L27 19.1498L27.4643 18.7783C28.6077 17.8058 29.5535 16.6224 30.25 15.2926C30.4714 17.3355 29.0571 19.1712 28.1071 20.1283L27.8357 20.4141L27.9786 20.7855C28.1642 21.1706 28.2552 21.5945 28.244 22.0218C28.2328 22.4492 28.1198 22.8678 27.9143 23.2426C27.6865 23.5355 27.3881 23.7658 27.0471 23.912C26.706 24.0582 26.3335 24.1154 25.9643 24.0783H18.3071C17.9659 24.1055 17.6262 24.0092 17.35 23.8069C17.2835 23.7526 17.2303 23.6838 17.1944 23.6059C17.1585 23.5279 17.1409 23.4427 17.1429 23.3569C17.1429 22.9355 17.6 22.5069 18.4643 22.5069H19.1786V21.3855C19.1919 21.0733 19.313 20.7754 19.5214 20.5426L19.8429 20.1783L18.2143 17.7998L15.3571 23.7212C15.3071 23.8426 15.1071 24.2426 14.7071 24.0998C14.571 24.0489 14.4606 23.9461 14.4 23.8141C14.3717 23.7487 14.3571 23.6782 14.3571 23.6069C14.3571 23.5357 14.3717 23.4652 14.4 23.3998C14.4 23.3569 16.0643 18.6069 16.8929 16.3283L17.0071 16.0283C17.0071 16.0283 15.3143 12.1426 13.9071 12.1426L13.1143 11.9498L12.7786 11.8855C12.4213 11.7889 12.1115 11.5655 11.9071 11.2569L13.3357 11.2998C13.6214 11.2998 14.2714 11.2998 14.35 10.7212C14.4286 10.1426 13.7786 9.9712 13.5 9.90692L10.8214 9.28549C10.6679 9.23905 10.5292 9.15334 10.4189 9.03683C10.3087 8.92033 10.2307 8.77706 10.1929 8.6212L9.87857 6.42835L14.6857 7.53549C15.0855 7.61713 15.5012 7.56051 15.8645 7.37492C16.2279 7.18934 16.5175 6.88579 16.6857 6.51406L16.9143 6.0212L19.3929 9.28549L27.3 19.2855" fill="black"/>
<path d="M15.3714 15.0216L14.5071 13.8858L20.0929 9.48584L20.9571 10.6216L15.3714 15.0216Z" fill="#262626"/>
<path d="M15.3714 15.0216L14.5071 13.8858L20.0929 9.48584L20.9571 10.6216L15.3714 15.0216Z" fill="black"/>
</svg>
