<svg width="21" height="20" viewBox="0 0 21 20" fill="none" xmlns="http://www.w3.org/2000/svg">
<g clip-path="url(#clip0_5234_30436)">
<path d="M12.9787 19.8275C12.9592 19.8275 12.9404 19.8275 12.9231 19.8275C12.3738 19.7569 11.8413 19.5895 11.3504 19.3331C6.66831 17.3018 2.93321 13.5671 0.901496 8.88528C0.645377 8.39406 0.47815 7.86141 0.407586 7.31194C0.344252 5.92806 2.55148 4.56917 3.16203 4.41472C3.60043 4.30425 4.06146 4.32352 4.48911 4.47018C4.91676 4.61684 5.29259 4.88457 5.57092 5.24083L6.56091 6.50972C6.89981 6.94419 7.07374 7.48473 7.05177 8.03531C7.0298 8.58589 6.81335 9.11085 6.44091 9.51694C6.28721 9.68694 6.14832 9.83064 6.02424 9.94805C7.12301 11.658 8.57685 13.1114 10.287 14.2097C10.4044 14.0871 10.5482 13.9482 10.7182 13.7931C11.1247 13.4218 11.6494 13.2062 12.1995 13.1844C12.7496 13.1627 13.2897 13.3362 13.7243 13.6742L14.9932 14.6642C15.3496 14.9424 15.6176 15.3181 15.7644 15.7458C15.9113 16.1734 15.9307 16.6346 15.8204 17.0731C15.6676 17.6747 14.3431 19.8275 12.9787 19.8275ZM3.73315 5.66084C3.6494 5.66081 3.56596 5.67126 3.48481 5.69195C3.01592 5.81917 1.71481 6.85528 1.72425 7.25194C1.80232 7.63839 1.93318 8.01227 2.11315 8.36305C4.01227 12.7363 7.50138 16.225 11.8748 18.1236C12.2244 18.304 12.5974 18.4349 12.9831 18.5125H12.9876C13.3859 18.5125 14.4159 17.218 14.5432 16.7508C14.5909 16.5606 14.5822 16.3606 14.5183 16.1751C14.4544 15.9897 14.3379 15.8269 14.1832 15.7064L12.9137 14.7164C12.7247 14.5694 12.4896 14.4944 12.2504 14.5045C12.0112 14.5147 11.7834 14.6095 11.6076 14.7719C11.4251 14.9279 11.256 15.0989 11.102 15.2831C11.0284 15.3781 10.9348 15.4559 10.8279 15.511C10.721 15.5661 10.6033 15.5971 10.4831 15.6019C9.36591 15.6703 7.0087 13.2592 6.98314 13.2347C6.9787 13.2303 4.57481 10.8319 4.63481 9.75638C4.63985 9.63614 4.67109 9.51846 4.72637 9.41155C4.78164 9.30465 4.85961 9.21113 4.95481 9.13751C5.13777 8.98319 5.30831 8.8147 5.46482 8.63361C5.62721 8.45716 5.72185 8.22892 5.73202 7.98933C5.74219 7.74975 5.66721 7.5143 5.52036 7.32473L4.53037 6.05584C4.43653 5.93375 4.31601 5.83473 4.17803 5.76636C4.04005 5.698 3.88826 5.66209 3.73427 5.66138L3.73315 5.66084Z" fill="#CFAF6E"/>
<path d="M12.6654 4.30021H16.6198C16.6946 4.30021 16.7663 4.27052 16.8192 4.21764C16.8721 4.16477 16.9018 4.09305 16.9018 4.01828C16.9018 3.9435 16.8721 3.87179 16.8192 3.81891C16.7663 3.76604 16.6946 3.73633 16.6198 3.73633H12.6654C12.5906 3.73633 12.5189 3.76604 12.466 3.81891C12.4131 3.87179 12.3834 3.9435 12.3834 4.01828C12.3834 4.09305 12.4131 4.16477 12.466 4.21764C12.5189 4.27052 12.5906 4.30021 12.6654 4.30021Z" fill="#CFAF6E"/>
<path d="M12.6654 5.67742H16.6198C16.6946 5.67742 16.7663 5.64771 16.8192 5.59484C16.8721 5.54196 16.9018 5.47025 16.9018 5.39547C16.9018 5.3207 16.8721 5.24898 16.8192 5.19611C16.7663 5.14323 16.6946 5.11353 16.6198 5.11353H12.6654C12.5906 5.11353 12.5189 5.14323 12.466 5.19611C12.4131 5.24898 12.3834 5.3207 12.3834 5.39547C12.3834 5.47025 12.4131 5.54196 12.466 5.59484C12.5189 5.64771 12.5906 5.67742 12.6654 5.67742Z" fill="#CFAF6E"/>
<path d="M15.207 6.77141C15.2069 6.69675 15.1772 6.62521 15.1244 6.57241C15.0716 6.51962 15 6.48989 14.9254 6.48975H12.6654C12.5906 6.48975 12.5189 6.51946 12.466 6.57233C12.4131 6.6252 12.3834 6.69692 12.3834 6.77169C12.3834 6.84647 12.4131 6.91818 12.466 6.97106C12.5189 7.02393 12.5906 7.05364 12.6654 7.05364H14.9254C14.9624 7.05364 14.9991 7.04634 15.0333 7.03215C15.0675 7.01796 15.0986 6.99715 15.1247 6.97094C15.1509 6.94473 15.1717 6.91361 15.1858 6.87937C15.1999 6.84513 15.2071 6.80844 15.207 6.77141Z" fill="#CFAF6E"/>
<path d="M18.6371 1.56637C17.5012 0.66402 16.0933 0.172852 14.6426 0.172852C13.1919 0.172852 11.784 0.66402 10.6482 1.56637C10.1023 1.99977 9.6602 2.54957 9.35398 3.17566C9.04776 3.80175 8.88519 4.48833 8.87817 5.18526C8.90338 6.07598 9.17034 6.94309 9.65044 7.69377C10.1305 8.44446 10.8057 9.05045 11.6037 9.44692L11.7349 10.3853C11.765 10.5984 11.8507 10.7998 11.9832 10.9694C12.1158 11.139 12.2906 11.2707 12.4902 11.3514C12.6898 11.4321 12.907 11.459 13.1202 11.4292C13.3334 11.3995 13.535 11.3142 13.7048 11.1819L14.9748 10.1891C16.3137 10.1366 17.5992 9.65037 18.6376 8.8036C19.1887 8.37504 19.6347 7.82628 19.9414 7.19915C20.2482 6.57203 20.4077 5.88312 20.4077 5.18499C20.4077 4.48686 20.2482 3.79794 19.9414 3.17081C19.6347 2.54369 19.1887 1.99492 18.6376 1.56637H18.6371ZM12.9509 10.2092L12.8743 9.68082L12.7254 8.61527C12.0842 8.37138 11.5075 7.98388 11.0393 7.48249L11.0137 7.45638C10.9693 7.40749 10.9271 7.35637 10.8865 7.30471C10.8665 7.28082 10.8465 7.2586 10.8271 7.2336C10.7954 7.19193 10.766 7.14915 10.7354 7.10638C10.7049 7.0636 10.6854 7.03804 10.6626 7.00304C10.6398 6.96804 10.6126 6.92304 10.5887 6.88304C10.5648 6.84304 10.5404 6.80471 10.5187 6.76582C10.4921 6.71748 10.4687 6.6697 10.4448 6.62137C10.4287 6.58859 10.4115 6.55581 10.3959 6.52303C10.3626 6.44859 10.3315 6.37192 10.3032 6.29581L10.2948 6.27582C10.1687 5.92586 10.104 5.5567 10.1037 5.1847C10.1037 3.09359 12.1354 1.39915 14.6421 1.39915C17.1487 1.39915 19.1798 3.09359 19.1798 5.1847C19.1798 7.27581 17.1482 8.97025 14.6421 8.97025C14.6093 8.97025 14.5765 8.97025 14.5437 8.97025L13.4804 9.80359L12.9509 10.2092Z" fill="#CFAF6E"/>
</g>
<defs>
<clipPath id="clip0_5234_30436">
<rect width="20.5556" height="20" fill="white"/>
</clipPath>
</defs>
</svg>
