<svg width="40" height="30" viewBox="0 0 40 30" fill="none" xmlns="http://www.w3.org/2000/svg">
<path d="M34.1715 23.7926H28.05V22.3641H33.3215L31.5715 18.8641H33.3215L30.7143 13.6212L28.5286 17.1926L27.3429 16.4783L30 12.0926C30.0712 11.965 30.1746 11.8582 30.3 11.783C30.4253 11.7078 30.5682 11.6668 30.7143 11.6641C30.8764 11.6646 31.0352 11.7103 31.1727 11.7961C31.3103 11.8819 31.4211 12.0044 31.4929 12.1498L34.8929 19.0141C34.9649 19.1416 35.0027 19.2855 35.0027 19.4319C35.0027 19.5783 34.9649 19.7223 34.8929 19.8498C34.8165 19.9712 34.7114 20.0719 34.5868 20.1429C34.4622 20.2139 34.322 20.2531 34.1786 20.2569H33.8286L34.9572 22.5426C35.0292 22.6701 35.067 22.8141 35.067 22.9605C35.067 23.1069 35.0292 23.2508 34.9572 23.3783C34.8754 23.5115 34.7593 23.6202 34.6211 23.6931C34.4828 23.766 34.3276 23.8004 34.1715 23.7926V23.7926ZM31.2429 12.7712L31.1929 12.8498L31.2429 12.7712Z" fill="#262626"/>
<path d="M34.1715 23.7926H28.05V22.3641H33.3215L31.5715 18.8641H33.3215L30.7143 13.6212L28.5286 17.1926L27.3429 16.4783L30 12.0926C30.0712 11.965 30.1746 11.8582 30.3 11.783C30.4253 11.7078 30.5682 11.6668 30.7143 11.6641C30.8764 11.6646 31.0352 11.7103 31.1727 11.7961C31.3103 11.8819 31.4211 12.0044 31.4929 12.1498L34.8929 19.0141C34.9649 19.1416 35.0027 19.2855 35.0027 19.4319C35.0027 19.5783 34.9649 19.7223 34.8929 19.8498C34.8165 19.9712 34.7114 20.0719 34.5868 20.1429C34.4622 20.2139 34.322 20.2531 34.1786 20.2569H33.8286L34.9572 22.5426C35.0292 22.6701 35.067 22.8141 35.067 22.9605C35.067 23.1069 35.0292 23.2508 34.9572 23.3783C34.8754 23.5115 34.7593 23.6202 34.6211 23.6931C34.4828 23.766 34.3276 23.8004 34.1715 23.7926V23.7926ZM31.2429 12.7712L31.1929 12.8498L31.2429 12.7712Z" fill="black"/>
<path d="M30.1093 20.4165L31.5021 20.4051L31.5515 26.4334L30.1587 26.4449L30.1093 20.4165Z" fill="#262626"/>
<path d="M30.1093 20.4165L31.5021 20.4051L31.5515 26.4334L30.1587 26.4449L30.1093 20.4165Z" fill="black"/>
<path d="M12.7214 20.2573H12.3643L13.0785 21.6859V20.1787C12.9667 20.2307 12.8448 20.2575 12.7214 20.2573V20.2573Z" fill="#262626"/>
<path d="M12.7214 20.2573H12.3643L13.0785 21.6859V20.1787C12.9667 20.2307 12.8448 20.2575 12.7214 20.2573V20.2573Z" fill="black"/>
<path d="M27.0786 13.0856V8.38563H24.7215V10.7142L20.35 6.34277L11.55 15.0928L13.0786 18.1713V17.2213L20.2858 9.99992L27.55 17.2213V24.4213H18.9786V17.3142H15.6572V24.4571H13.0786V23.7428C12.9672 23.797 12.8453 23.8263 12.7215 23.8285H11.6V25.9285H29.0286V18.7142L29.1072 18.7856L30.9358 17.5428L31.2643 17.3285L27.0786 13.0856Z" fill="#262626"/>
<path d="M27.0786 13.0856V8.38563H24.7215V10.7142L20.35 6.34277L11.55 15.0928L13.0786 18.1713V17.2213L20.2858 9.99992L27.55 17.2213V24.4213H18.9786V17.3142H15.6572V24.4571H13.0786V23.7428C12.9672 23.797 12.8453 23.8263 12.7215 23.8285H11.6V25.9285H29.0286V18.7142L29.1072 18.7856L30.9358 17.5428L31.2643 17.3285L27.0786 13.0856Z" fill="black"/>
<path d="M24.8357 17.8569H22.0643V20.9712H24.8357V17.8569ZM22.7714 20.2355V18.5712H24.1285V20.2641L22.7714 20.2355ZM13.4571 23.3784C13.5338 23.2538 13.5779 23.112 13.5854 22.966C13.5929 22.8199 13.5635 22.6744 13.5 22.5426L13.0785 21.6998V23.7069C13.2351 23.6383 13.3672 23.5237 13.4571 23.3784V23.3784ZM11.6 21.8498V18.8641H10.1143L11.6 21.8498ZM13.4571 19.8498C13.5338 19.7253 13.5779 19.5835 13.5854 19.4374C13.5929 19.2914 13.5635 19.1458 13.5 19.0141L13.0785 18.1712V20.1784C13.2351 20.1098 13.3672 19.9952 13.4571 19.8498V19.8498Z" fill="#262626"/>
<path d="M24.8357 17.8569H22.0643V20.9712H24.8357V17.8569ZM22.7714 20.2355V18.5712H24.1285V20.2641L22.7714 20.2355ZM13.4571 23.3784C13.5338 23.2538 13.5779 23.112 13.5854 22.966C13.5929 22.8199 13.5635 22.6744 13.5 22.5426L13.0785 21.6998V23.7069C13.2351 23.6383 13.3672 23.5237 13.4571 23.3784V23.3784ZM11.6 21.8498V18.8641H10.1143L11.6 21.8498ZM13.4571 19.8498C13.5338 19.7253 13.5779 19.5835 13.5854 19.4374C13.5929 19.2914 13.5635 19.1458 13.5 19.0141L13.0785 18.1712V20.1784C13.2351 20.1098 13.3672 19.9952 13.4571 19.8498V19.8498Z" fill="black"/>
<path d="M6.76424 22.3929L8.51424 18.8643H6.76424L9.28567 13.7214L10.4857 16.1286L11.0428 15.5714L11.5214 15.0929L10.0928 12.15C10.0194 12.0124 9.91016 11.8972 9.77661 11.8166C9.64306 11.736 9.4902 11.6931 9.33423 11.6924C9.17826 11.6917 9.025 11.7331 8.8907 11.8125C8.7564 11.8918 8.64606 12.0059 8.57138 12.1429L5.12853 19.0143C5.06497 19.146 5.03559 19.2916 5.04308 19.4376C5.05057 19.5837 5.09469 19.7255 5.17138 19.85C5.24678 19.9723 5.35171 20.0737 5.47652 20.1448C5.60134 20.216 5.74203 20.2546 5.88567 20.2572H6.23567L5.09995 22.5429C5.03585 22.6758 5.00655 22.8228 5.01479 22.9701C5.02303 23.1174 5.06855 23.2603 5.14707 23.3852C5.2256 23.5101 5.33456 23.6131 5.46375 23.6844C5.59293 23.7557 5.73811 23.793 5.88567 23.7929H11.6V22.3643L6.76424 22.3929Z" fill="#262626"/>
<path d="M6.76424 22.3929L8.51424 18.8643H6.76424L9.28567 13.7214L10.4857 16.1286L11.0428 15.5714L11.5214 15.0929L10.0928 12.15C10.0194 12.0124 9.91016 11.8972 9.77661 11.8166C9.64306 11.736 9.4902 11.6931 9.33423 11.6924C9.17826 11.6917 9.025 11.7331 8.8907 11.8125C8.7564 11.8918 8.64606 12.0059 8.57138 12.1429L5.12853 19.0143C5.06497 19.146 5.03559 19.2916 5.04308 19.4376C5.05057 19.5837 5.09469 19.7255 5.17138 19.85C5.24678 19.9723 5.35171 20.0737 5.47652 20.1448C5.60134 20.216 5.74203 20.2546 5.88567 20.2572H6.23567L5.09995 22.5429C5.03585 22.6758 5.00655 22.8228 5.01479 22.9701C5.02303 23.1174 5.06855 23.2603 5.14707 23.3852C5.2256 23.5101 5.33456 23.6131 5.46375 23.6844C5.59293 23.7557 5.73811 23.793 5.88567 23.7929H11.6V22.3643L6.76424 22.3929Z" fill="black"/>
<path d="M13.0785 23.7071V21.6999L12.3643 20.2713H12.7214C12.8448 20.2716 12.9667 20.2448 13.0785 20.1928V18.1713L11.55 15.0928L11.0714 15.5713L10.5143 16.1285L11.8714 18.8642H11.6V21.8571L11.8714 22.3928H11.6V23.8213H12.7214C12.8475 23.8103 12.9695 23.7713 13.0785 23.7071V23.7071ZM8.62854 21.1213H10.0214V26.8499H8.62854V21.1213Z" fill="#262626"/>
<path d="M13.0785 23.7071V21.6999L12.3643 20.2713H12.7214C12.8448 20.2716 12.9667 20.2448 13.0785 20.1928V18.1713L11.55 15.0928L11.0714 15.5713L10.5143 16.1285L11.8714 18.8642H11.6V21.8571L11.8714 22.3928H11.6V23.8213H12.7214C12.8475 23.8103 12.9695 23.7713 13.0785 23.7071V23.7071ZM8.62854 21.1213H10.0214V26.8499H8.62854V21.1213Z" fill="black"/>
</svg>
