<svg width="9" height="16" viewBox="0 0 9 16" fill="none" xmlns="http://www.w3.org/2000/svg">
<g clip-path="url(#clip0_5270_30530)">
<path d="M8.65856 7.40073L1.99686 0.739148C1.84278 0.584949 1.6371 0.5 1.41779 0.5C1.19848 0.5 0.992804 0.584949 0.838727 0.739148L0.348138 1.22961C0.0289091 1.54921 0.0289091 2.06864 0.348138 2.38775L5.94213 7.98174L0.341931 13.5819C0.187854 13.7361 0.102783 13.9417 0.102783 14.1609C0.102783 14.3803 0.187854 14.5859 0.341931 14.7402L0.83252 15.2305C0.986718 15.3847 1.19228 15.4697 1.41159 15.4697C1.6309 15.4697 1.83658 15.3847 1.99065 15.2305L8.65856 8.56288C8.81301 8.4082 8.89783 8.20166 8.89735 7.98211C8.89783 7.7617 8.81301 7.55529 8.65856 7.40073Z" fill="url(#paint0_linear_5270_30530)"/>
</g>
<defs>
<linearGradient id="paint0_linear_5270_30530" x1="0.102783" y1="0.5" x2="13.1788" y2="8.18204" gradientUnits="userSpaceOnUse">
<stop stop-color="#CFAF6E"/>
<stop offset="1" stop-color="#A3864B"/>
</linearGradient>
<clipPath id="clip0_5270_30530">
<rect width="8.82353" height="15" fill="white" transform="translate(0.0882568 0.5)"/>
</clipPath>
</defs>
</svg>
