<svg xmlns="http://www.w3.org/2000/svg" viewBox="0 0 41.74 40.01"><defs><style>.cls-1{fill:#8c7d5f;}</style></defs><g id="Layer_2" data-name="Layer 2"><g id="Layer_1-2" data-name="Layer 1"><path class="cls-1" d="M26.78,10.29a.76.76,0,0,0-.52-.21.78.78,0,0,0-.52.21l-2.85,2.82a.69.69,0,0,0,0,1L37.45,28a17.28,17.28,0,0,0,1.82-5.7Z"/><path class="cls-1" d="M24.18,7.85,21.33,5.12A.83.83,0,0,0,21.1,5a.69.69,0,0,0-.28,0,.66.66,0,0,0-.28,0,.75.75,0,0,0-.24.15L2.42,22.25A17.29,17.29,0,0,0,4.23,28l20-19.13a.67.67,0,0,0,0-1Z"/><path class="cls-1" d="M39.46,19.5A17.53,17.53,0,0,0,34,7.42,19,19,0,0,0,21.4,2.2Z"/><path class="cls-1" d="M20.22,2.2A19,19,0,0,0,7.73,7.42a17.54,17.54,0,0,0-5.44,12Z"/><path class="cls-1" d="M26.77,20.77a.73.73,0,0,0-.23-.16.92.92,0,0,0-.28-.05.87.87,0,0,0-.28.05.78.78,0,0,0-.24.16l-2.85,2.72a.67.67,0,0,0-.21.5.69.69,0,0,0,.21.5l9.74,9.34a18.52,18.52,0,0,0,3.71-3.9Z"/><path class="cls-1" d="M24.18,19.27a.57.57,0,0,0,.16-.22.64.64,0,0,0,0-.54.69.69,0,0,0-.16-.23l-2.85-2.73a.83.83,0,0,0-.23-.15.69.69,0,0,0-.28-.05.66.66,0,0,0-.28.05.75.75,0,0,0-.24.15L5.36,29.86A18.38,18.38,0,0,0,9,33.78Z"/><path class="cls-1" d="M22.18,33.23c-.44,0-.82.08-.82.94s.38.94.82.94S23,35,23,34.17,22.62,33.23,22.18,33.23Z"/><path class="cls-1" d="M19.35,33.23c-.43,0-.82.08-.82.94s.39.94.82.94.82-.07.82-.94S19.8,33.23,19.35,33.23Z"/><path class="cls-1" d="M25.25,34.21h-1c0,.5.16.82.75.82.74,0,.74-.31.74-.41S25.68,34.21,25.25,34.21Z"/><path class="cls-1" d="M21.33,26a.76.76,0,0,0-.52-.21.78.78,0,0,0-.52.21L10.85,35a19.2,19.2,0,0,0,20,0ZM17.62,35v.27H15.73v-.58a.63.63,0,0,1,0-.27.67.67,0,0,1,.38-.38.9.9,0,0,1,.28,0H17a.32.32,0,0,0,.14,0,.27.27,0,0,0,.12-.09.43.43,0,0,0,.09-.26.32.32,0,0,0,0-.14.35.35,0,0,0-.08-.13.36.36,0,0,0-.12-.08.32.32,0,0,0-.14,0H15.78V33H17a.68.68,0,0,1,.47.19.61.61,0,0,1,0,.9.68.68,0,0,1-.47.19h-.59c-.28,0-.41.13-.41.42v.36Zm1.73.3c-.51,0-1.1-.13-1.1-1.18S18.84,33,19.35,33s1.11.13,1.11,1.18-.59,1.18-1.11,1.18Zm2.83,0c-.52,0-1.1-.13-1.1-1.18S21.66,33,22.18,33s1.1.13,1.1,1.18-.54,1.18-1.1,1.18Zm2.81,0c-.7,0-1-.39-1-1.17S24.34,33,25,33h1v.26H25c-.54,0-.72.28-.75.72h1c.63,0,.76.35.76.66s-.1.66-1,.66Z"/><path class="cls-1" d="M20.87,40A21.47,21.47,0,0,1,9.28,36.64a20.16,20.16,0,0,1-7.69-9A19.28,19.28,0,0,1,.4,16.1,19.79,19.79,0,0,1,6.11,5.86,21.23,21.23,0,0,1,16.8.38,21.78,21.78,0,0,1,28.86,1.52a20.73,20.73,0,0,1,9.36,7.37A19.38,19.38,0,0,1,41.74,20a19.61,19.61,0,0,1-6.11,14.15A21.35,21.35,0,0,1,20.87,40Zm0-39.25A20.75,20.75,0,0,0,9.71,4a19.43,19.43,0,0,0-7.4,8.64A18.5,18.5,0,0,0,1.16,23.77a19,19,0,0,0,5.5,9.86A20.38,20.38,0,0,0,16.94,38.9a20.91,20.91,0,0,0,11.61-1.1,20,20,0,0,0,9-7.1A18.62,18.62,0,0,0,35.06,6.41,20.56,20.56,0,0,0,20.87.76Z"/></g></g></svg>