<svg width="116" height="20" viewBox="0 0 116 20" fill="none" xmlns="http://www.w3.org/2000/svg">
<g clip-path="url(#clip0_5382_32476)">
<path d="M12.0166 5.17915L17.0773 13.9414C16.4237 15.1037 15.4978 16.09 14.3792 16.8159C13.2606 17.5418 11.9826 17.9855 10.6549 18.109C9.32713 18.2324 7.98925 18.0319 6.75599 17.5248C5.52273 17.0176 4.43091 16.2188 3.57418 15.1969H12.905C13.1908 15.2286 13.4797 15.1763 13.7364 15.0465C13.993 14.9166 14.2063 14.7149 14.3501 14.4658C14.494 14.2168 14.5622 13.9312 14.5464 13.644C14.5306 13.3568 14.4315 13.0805 14.2612 12.8487L12.5259 9.84602L10.5301 6.39029L11.2289 5.17915C11.3533 4.96594 11.5043 4.83269 11.6228 4.83269C11.7412 4.83269 11.8922 4.96594 12.0166 5.17915ZM8.60823 11.0838H11.1697C11.2586 11.1206 11.3578 11.1239 11.449 11.093C11.5401 11.0621 11.6169 10.9992 11.6651 10.9159C11.7132 10.8326 11.7295 10.7346 11.7108 10.6402C11.6921 10.5458 11.6398 10.4614 11.5635 10.4027L11.448 10.1984L10.2843 8.18478C10.1599 7.96861 10.0089 7.83536 9.89044 7.83536C9.772 7.83536 9.61801 7.96861 9.4966 8.18478L8.2144 10.4175C8.13813 10.4762 8.08579 10.5606 8.06711 10.655C8.04843 10.7494 8.06469 10.8474 8.11286 10.9307C8.16103 11.014 8.23783 11.0769 8.32896 11.1078C8.42009 11.1387 8.51934 11.1354 8.60823 11.0986V11.0838ZM13.4024 13.9206C13.426 13.8326 13.4289 13.7403 13.4109 13.6509C13.3929 13.5615 13.3546 13.4775 13.2988 13.4054L12.5999 12.1943H5.14066C4.8548 12.2259 4.56589 12.1737 4.30925 12.0438C4.05261 11.914 3.83934 11.7122 3.69549 11.4631C3.55165 11.2141 3.48345 10.9285 3.49925 10.6413C3.51504 10.3542 3.61414 10.0778 3.78443 9.84602L8.45129 1.76192C6.54326 2.1035 4.8159 3.10462 3.571 4.59038C2.3261 6.07614 1.64281 7.95206 1.64051 9.89042C1.6387 11.3674 2.03675 12.8174 2.79243 14.0865H12.9109C13.1507 14.0865 13.3432 14.0243 13.4024 13.9206ZM9.89044 1.63459H9.80753L4.73498 10.4175C4.65871 10.4762 4.60637 10.5606 4.58769 10.655C4.56901 10.7494 4.58527 10.8474 4.63344 10.9307C4.68161 11.014 4.75841 11.0769 4.84954 11.1078C4.94067 11.1387 5.03992 11.1354 5.12881 11.0986H6.52651L7.24016 9.86082L10.2547 4.64021C10.3701 4.37661 10.5599 4.15238 10.8007 3.99492C11.0416 3.83746 11.3231 3.7536 11.6109 3.7536C11.8987 3.7536 12.1802 3.83746 12.4211 3.99492C12.6619 4.15238 12.8517 4.37661 12.9671 4.64021L17.637 12.7243C18.0893 11.4773 18.2346 10.1398 18.0605 8.82479C17.8865 7.5098 17.3984 6.25606 16.6373 5.16966C15.8762 4.08326 14.8647 3.19615 13.6882 2.58339C12.5118 1.97064 11.2051 1.65028 9.8786 1.64939L9.89044 1.63459ZM19.7809 9.89042C19.7809 11.8466 19.2008 13.7588 18.114 15.3853C17.0273 17.0117 15.4826 18.2794 13.6753 19.028C11.8681 19.7766 9.87947 19.9724 7.96091 19.5908C6.04236 19.2092 4.28005 18.2672 2.89685 16.884C1.51364 15.5008 0.57167 13.7385 0.190045 11.82C-0.191579 9.90141 0.00428829 7.91276 0.752872 6.10552C1.50146 4.29828 2.76913 2.75361 4.39561 1.66684C6.02208 0.580061 7.9343 0 9.89044 0C12.5123 0.00391622 15.0257 1.0472 16.8797 2.90117C18.7337 4.75513 19.777 7.26852 19.7809 9.89042V9.89042ZM19.1324 9.89042C19.133 8.0617 18.5912 6.2739 17.5756 4.75313C16.5599 3.23236 15.1161 2.04697 13.4267 1.34688C11.7373 0.646785 9.87823 0.463458 8.08462 0.82008C6.29101 1.1767 4.64345 2.05725 3.35035 3.35035C2.05725 4.64345 1.1767 6.29099 0.820079 8.0846C0.463458 9.87821 0.646794 11.7373 1.34688 13.4267C2.04698 15.1161 3.23237 16.5599 4.75314 17.5756C6.27391 18.5912 8.06172 19.1329 9.89044 19.1324C12.3408 19.13 14.6902 18.1556 16.4229 16.4229C18.1556 14.6902 19.13 12.3408 19.1324 9.89042Z" fill="white"/>
<path d="M8.67044 16.9944H9.01098V17.1247H8.39209L8.7119 16.7368C8.74447 16.6983 8.77113 16.6657 8.79186 16.6361C8.81019 16.6136 8.827 16.5898 8.84219 16.5651C8.86146 16.5348 8.87267 16.5002 8.87477 16.4644C8.87524 16.4445 8.87152 16.4247 8.86387 16.4064C8.85622 16.388 8.8448 16.3714 8.83034 16.3578C8.81556 16.3432 8.79796 16.3317 8.77863 16.324C8.75929 16.3164 8.73861 16.3128 8.71783 16.3133C8.62307 16.3133 8.56976 16.3696 8.55792 16.4792H8.41874C8.44243 16.2818 8.54114 16.1831 8.71486 16.1831C8.75392 16.1817 8.79287 16.188 8.82946 16.2017C8.86605 16.2154 8.89956 16.2363 8.92807 16.263C8.95545 16.2882 8.97723 16.3189 8.99202 16.3531C9.00681 16.3873 9.01429 16.4242 9.01395 16.4614C9.01341 16.5135 8.9991 16.5646 8.97249 16.6095C8.95663 16.6415 8.93672 16.6714 8.91326 16.6983C8.88661 16.7339 8.85404 16.7753 8.81554 16.8197L8.67044 16.9944Z" fill="white"/>
<path d="M9.17682 16.6569C9.16924 16.5318 9.20593 16.4081 9.28047 16.3075C9.30471 16.2706 9.33764 16.2402 9.37637 16.2191C9.41509 16.1979 9.45843 16.1865 9.50256 16.186C9.54659 16.187 9.58973 16.1986 9.62838 16.2197C9.66702 16.2409 9.70003 16.2709 9.72465 16.3075C9.79871 16.4106 9.83529 16.536 9.82829 16.6628C9.83479 16.7905 9.79829 16.9166 9.72465 17.0211C9.70034 17.0577 9.66734 17.0878 9.62859 17.1086C9.58983 17.1294 9.54654 17.1403 9.50256 17.1403C9.45858 17.1403 9.41528 17.1294 9.37653 17.1086C9.33778 17.0878 9.30478 17.0577 9.28047 17.0211C9.20509 16.9152 9.16849 16.7866 9.17682 16.6569ZM9.31304 16.6569C9.30949 16.7449 9.32781 16.8324 9.36634 16.9115C9.37407 16.9414 9.3915 16.9678 9.41588 16.9867C9.44027 17.0056 9.47024 17.0158 9.50108 17.0158C9.53191 17.0158 9.56188 17.0056 9.58627 16.9867C9.61065 16.9678 9.62808 16.9414 9.63581 16.9115C9.67652 16.8352 9.69595 16.7493 9.69207 16.6628C9.69549 16.5754 9.6761 16.4887 9.63581 16.4111C9.62632 16.3829 9.60822 16.3583 9.58404 16.341C9.55987 16.3236 9.53085 16.3142 9.50108 16.3142C9.4713 16.3142 9.44228 16.3236 9.41811 16.341C9.39393 16.3583 9.37583 16.3829 9.36634 16.4111C9.32878 16.4874 9.31047 16.5718 9.31304 16.6569Z" fill="white"/>
<path d="M9.97929 16.6569C9.97232 16.5324 10.0078 16.4092 10.08 16.3075C10.1042 16.2702 10.1373 16.2396 10.1763 16.2184C10.2154 16.1972 10.2591 16.186 10.3035 16.186C10.348 16.186 10.3917 16.1972 10.4308 16.2184C10.4698 16.2396 10.5029 16.2702 10.5271 16.3075C10.6001 16.411 10.6357 16.5364 10.6278 16.6628C10.6352 16.7902 10.5997 16.9163 10.5271 17.0211C10.5025 17.0578 10.4692 17.0878 10.4302 17.1086C10.3912 17.1293 10.3477 17.1402 10.3035 17.1402C10.2594 17.1402 10.2159 17.1293 10.1769 17.1086C10.1379 17.0878 10.1046 17.0578 10.08 17.0211C10.0075 16.914 9.97218 16.7861 9.97929 16.6569ZM10.1155 16.6569C10.112 16.7449 10.1303 16.8324 10.1688 16.9116C10.1765 16.9414 10.194 16.9679 10.2184 16.9867C10.2427 17.0056 10.2727 17.0159 10.3035 17.0159C10.3344 17.0159 10.3643 17.0056 10.3887 16.9867C10.4131 16.9679 10.4306 16.9414 10.4383 16.9116C10.4766 16.8344 10.4949 16.7489 10.4916 16.6628C10.4945 16.5759 10.4762 16.4895 10.4383 16.4111C10.4288 16.3829 10.4107 16.3584 10.3865 16.341C10.3623 16.3236 10.3333 16.3143 10.3035 16.3143C10.2738 16.3143 10.2448 16.3236 10.2206 16.341C10.1964 16.3584 10.1783 16.3829 10.1688 16.4111C10.1312 16.4875 10.113 16.5719 10.1155 16.6569Z" fill="white"/>
<path d="M10.9742 17.1544L10.8706 17.0803L11.0897 16.7842H11.0394C11.0029 16.7849 10.9668 16.7775 10.9336 16.7627C10.9003 16.7478 10.8707 16.7259 10.8469 16.6984C10.7951 16.643 10.7664 16.5699 10.7669 16.494C10.7607 16.4307 10.775 16.3671 10.8078 16.3126C10.8405 16.2581 10.8899 16.2156 10.9487 16.1913C11.0075 16.1671 11.0725 16.1624 11.1342 16.178C11.1959 16.1936 11.2509 16.2286 11.2911 16.2779C11.321 16.3041 11.3449 16.3364 11.3612 16.3727C11.3776 16.409 11.386 16.4483 11.3858 16.4881C11.3812 16.573 11.3489 16.6541 11.294 16.7191L10.9742 17.1544ZM10.9002 16.4851C10.9004 16.5193 10.9107 16.5527 10.9297 16.5811C10.9488 16.6095 10.9757 16.6317 11.0072 16.645C11.0388 16.6582 11.0735 16.6619 11.1071 16.6556C11.1407 16.6493 11.1717 16.6333 11.1963 16.6095C11.2124 16.5937 11.2251 16.5748 11.2338 16.5539C11.2424 16.5331 11.2468 16.5107 11.2466 16.4881C11.247 16.465 11.2428 16.4422 11.2342 16.4208C11.2255 16.3994 11.2127 16.38 11.1964 16.3637C11.1801 16.3474 11.1606 16.3345 11.1393 16.3259C11.1179 16.3172 11.095 16.313 11.0719 16.3134C11.0494 16.3132 11.027 16.3176 11.0061 16.3263C10.9853 16.3349 10.9664 16.3477 10.9505 16.3637C10.9342 16.3794 10.9212 16.3982 10.9126 16.4191C10.9039 16.44 10.8997 16.4625 10.9002 16.4851V16.4851Z" fill="white"/>
<path d="M56.3074 14.3886H57.1632L54.0451 5.67969H53.1863L51.2586 11.0691H50.0415V11.8745H50.9743L50.0859 14.3975H50.9299L51.8182 11.8745H55.3954L56.3074 14.3886ZM52.1144 11.0602L53.6157 6.86417L55.117 11.0572L52.1144 11.0602Z" fill="white"/>
<path d="M25.801 5.67065H24.9749V14.3855H31.9011V13.58H25.801V5.67065Z" fill="white"/>
<path d="M35.9875 14.3856C35.2522 14.3856 34.5469 14.0936 34.0266 13.5739C33.5064 13.0542 33.2137 12.3492 33.2129 11.6139V10.8292C33.2008 10.4574 33.2635 10.0869 33.3974 9.73983C33.5313 9.39276 33.7336 9.07616 33.9923 8.80885C34.251 8.54155 34.5608 8.329 34.9034 8.18384C35.2459 8.03868 35.6141 7.96387 35.9861 7.96387C36.3581 7.96387 36.7263 8.03868 37.0688 8.18384C37.4113 8.329 37.7211 8.54155 37.9798 8.80885C38.2385 9.07616 38.4409 9.39276 38.5748 9.73983C38.7086 10.0869 38.7714 10.4574 38.7593 10.8292V11.602C38.7604 11.9669 38.6896 12.3284 38.5509 12.6659C38.4121 13.0034 38.2082 13.3102 37.9508 13.5687C37.6933 13.8273 37.3874 14.0325 37.0505 14.1727C36.7136 14.3128 36.3524 14.3852 35.9875 14.3856ZM35.9875 8.85995C35.4653 8.85995 34.9644 9.06742 34.5951 9.43672C34.2258 9.80601 34.0184 10.3069 34.0184 10.8292V11.602C34.0381 12.1107 34.254 12.592 34.6209 12.9449C34.9878 13.2978 35.477 13.4949 35.9861 13.4949C36.4951 13.4949 36.9844 13.2978 37.3512 12.9449C37.7181 12.592 37.9341 12.1107 37.9538 11.602V10.8173C37.9507 10.2976 37.7422 9.80023 37.3739 9.43357C37.0056 9.06692 36.5073 8.86072 35.9875 8.85995V8.85995Z" fill="white"/>
<path d="M43.592 8.04858C42.8566 8.04937 42.1517 8.34204 41.632 8.8623C41.1122 9.38256 40.8203 10.0879 40.8203 10.8232V11.602C40.8211 12.3369 41.1134 13.0414 41.633 13.5611C42.1526 14.0807 42.8571 14.3729 43.592 14.3737H45.5582V14.6432C45.5582 14.8929 45.459 15.1325 45.2824 15.3091C45.1058 15.4857 44.8663 15.5849 44.6166 15.5849H41.3593V16.3903H44.6166C45.0799 16.3903 45.5243 16.2062 45.852 15.8786C46.1796 15.5509 46.3637 15.1066 46.3637 14.6432V8.04858H43.592ZM43.592 13.5742C43.0708 13.5734 42.5711 13.366 42.2025 12.9974C41.834 12.6289 41.6266 12.1292 41.6258 11.608V10.8232C41.6258 10.3015 41.8328 9.80105 42.2015 9.43184C42.5701 9.06263 43.0702 8.85481 43.592 8.85402H45.5582V13.5742H43.592Z" fill="white"/>
<path d="M81.3504 8.05737H80.5449V14.3884H81.3504V8.05737Z" fill="white"/>
<path d="M81.3504 5.66772H80.5449V6.82556H81.3504V5.66772Z" fill="white"/>
<path d="M73.2247 8.86299H76.2185C76.4675 8.86299 76.7063 8.96188 76.8823 9.13792C77.0583 9.31396 77.1572 9.55272 77.1572 9.80168V14.3856H77.9656V9.80168C77.9648 9.33856 77.7805 8.89463 77.4531 8.56715C77.1256 8.23968 76.6817 8.05536 76.2185 8.05458H73.2247V5.67969H72.4193V14.3975H73.2247V8.86299Z" fill="white"/>
<path d="M113.814 14.3855H110.557V13.58H113.814C114.099 13.58 114.373 13.4668 114.574 13.2652C114.776 13.0636 114.889 12.7902 114.889 12.5051C114.889 12.22 114.776 11.9466 114.574 11.7451C114.373 11.5435 114.099 11.4302 113.814 11.4302H111.812C111.365 11.4302 110.935 11.2524 110.619 10.9358C110.302 10.6193 110.124 10.19 110.124 9.74232C110.124 9.29466 110.302 8.86536 110.619 8.54882C110.935 8.23227 111.365 8.05444 111.812 8.05444H115.292V8.86285H111.812C111.577 8.86285 111.351 8.95644 111.184 9.12304C111.018 9.28964 110.924 9.5156 110.924 9.75121C110.924 9.98682 111.018 10.2128 111.184 10.3794C111.351 10.546 111.577 10.6396 111.812 10.6396H113.814C114.313 10.6396 114.791 10.8377 115.144 11.1903C115.496 11.543 115.694 12.0212 115.694 12.5199C115.694 13.0186 115.496 13.4969 115.144 13.8496C114.791 14.2022 114.313 14.4003 113.814 14.4003V14.3855Z" fill="white"/>
<path d="M94.8475 14.3855H91.4983C91.0352 14.3847 90.5913 14.2004 90.2638 13.8729C89.9363 13.5454 89.752 13.1015 89.7512 12.6384V9.93774C89.7512 9.69055 89.8 9.44579 89.8946 9.21746C89.9893 8.98913 90.1281 8.78172 90.303 8.60707C90.4779 8.43242 90.6856 8.29398 90.9141 8.19965C91.1425 8.10533 91.3874 8.05699 91.6346 8.05738H93.4113C93.91 8.05738 94.3883 8.25548 94.7409 8.60812C95.0935 8.96076 95.2916 9.43903 95.2916 9.93774C95.2916 10.4364 95.0935 10.9147 94.7409 11.2674C94.3883 11.62 93.91 11.8181 93.4113 11.8181H90.5537V12.6384C90.5537 12.8876 90.6525 13.1267 90.8285 13.3032C91.0044 13.4797 91.2432 13.5792 91.4924 13.58H94.8356L94.8475 14.3855ZM90.5656 11.0097H93.4231C93.7082 11.0097 93.9816 10.8964 94.1832 10.6948C94.3848 10.4933 94.498 10.2199 94.498 9.93477C94.498 9.64969 94.3848 9.37628 94.1832 9.1747C93.9816 8.97311 93.7082 8.85985 93.4231 8.85985H91.6464C91.5051 8.85946 91.3652 8.88699 91.2346 8.94088C91.104 8.99476 90.9853 9.07392 90.8854 9.17381C90.7855 9.2737 90.7064 9.39237 90.6525 9.52296C90.5986 9.65355 90.5711 9.7935 90.5715 9.93477L90.5656 11.0097Z" fill="white"/>
<path d="M87.2727 14.3857H86.6065C86.1431 14.3857 85.6987 14.2016 85.3711 13.8739C85.0434 13.5463 84.8594 13.1019 84.8594 12.6385V6.02319H85.6648V12.6385C85.6648 12.8883 85.764 13.1278 85.9406 13.3044C86.1172 13.481 86.3567 13.5802 86.6065 13.5802H87.2727V14.3857Z" fill="white"/>
<path d="M87.2757 8.05737H83.7607V8.86282H87.2757V8.05737Z" fill="white"/>
<path d="M108.034 14.3857H107.365C106.902 14.3849 106.458 14.2005 106.131 13.8729C105.804 13.5453 105.62 13.1014 105.62 12.6385V6.02319H106.426V12.6385C106.426 12.8878 106.525 13.1268 106.701 13.3033C106.877 13.4799 107.115 13.5794 107.365 13.5802H108.034V14.3857Z" fill="white"/>
<path d="M108.037 8.05737H104.522V8.86282H108.037V8.05737Z" fill="white"/>
<path d="M60.1718 14.3825H59.3663V9.79858C59.3671 9.33573 59.5515 8.89211 59.8791 8.5651C60.2067 8.23809 60.6506 8.05444 61.1135 8.05444H63.1626V8.85988H61.1135C60.8642 8.85988 60.6252 8.95868 60.4486 9.13464C60.2721 9.3106 60.1726 9.54935 60.1718 9.79858V14.3825Z" fill="white"/>
<path d="M67.5422 14.3856C66.8073 14.3848 66.1028 14.0925 65.5832 13.5729C65.0636 13.0533 64.7713 12.3487 64.7705 11.6139V10.8292C64.7697 10.4645 64.8408 10.1033 64.9797 9.76621C65.1186 9.42908 65.3226 9.12264 65.5801 8.8644C65.8375 8.60616 66.1433 8.40119 66.4799 8.2612C66.8166 8.12122 67.1776 8.04897 67.5422 8.04858H69.9112V8.85402H67.5422C67.0204 8.85481 66.5203 9.06263 66.1517 9.43184C65.783 9.80105 65.576 10.3015 65.576 10.8232V11.602C65.5768 12.1233 65.7842 12.6229 66.1527 12.9915C66.5213 13.3601 67.021 13.5675 67.5422 13.5683H69.9112V14.3737L67.5422 14.3856Z" fill="white"/>
<path d="M99.9881 14.3855C99.2533 14.3847 98.5487 14.0924 98.0291 13.5728C97.5095 13.0532 97.2172 12.3487 97.2164 11.6138V10.8291C97.2164 10.0937 97.5084 9.38842 98.0281 8.86816C98.5478 8.3479 99.2527 8.05523 99.9881 8.05444H102.357V8.85988H99.9881C99.4664 8.86067 98.9662 9.06849 98.5976 9.4377C98.2289 9.80691 98.0219 10.3073 98.0219 10.8291V11.602C98.0227 12.1232 98.2301 12.6229 98.5986 12.9914C98.9672 13.36 99.4669 13.5674 99.9881 13.5682H102.357V14.3737L99.9881 14.3855Z" fill="white"/>
<path d="M68.9754 19.535C68.9784 19.5567 68.9763 19.5787 68.9693 19.5995C68.9623 19.6202 68.9506 19.639 68.9351 19.6545C68.9196 19.67 68.9008 19.6817 68.88 19.6887C68.8593 19.6957 68.8372 19.6978 68.8155 19.6949H66.0942C66.0725 19.6978 66.0504 19.6957 66.0297 19.6887C66.0089 19.6817 65.9901 19.67 65.9746 19.6545C65.9591 19.639 65.9474 19.6202 65.9404 19.5995C65.9334 19.5787 65.9313 19.5567 65.9343 19.535V16.8284C65.9313 16.8067 65.9334 16.7847 65.9404 16.7639C65.9474 16.7432 65.9591 16.7244 65.9746 16.7089C65.9901 16.6934 66.0089 16.6817 66.0297 16.6747C66.0504 16.6677 66.0725 16.6656 66.0942 16.6685H68.8155C68.8372 16.6656 68.8593 16.6677 68.88 16.6747C68.9008 16.6817 68.9196 16.6934 68.9351 16.7089C68.9506 16.7244 68.9623 16.7432 68.9693 16.7639C68.9763 16.7847 68.9784 16.8067 68.9754 16.8284V19.535ZM68.6556 19.3721V17.0031H66.2541V19.3721H68.6556Z" fill="white"/>
<path d="M73.6274 16.953C73.5424 17.7007 73.2232 18.4024 72.7154 18.9577C72.256 19.4411 71.6668 19.7814 71.0186 19.9379C71.0039 19.9401 70.9889 19.9401 70.9742 19.9379C70.9528 19.9389 70.9315 19.9349 70.9119 19.9262C70.8924 19.9174 70.8752 19.9042 70.8617 19.8875C70.833 19.8571 70.8171 19.8168 70.8173 19.775C70.8153 19.7393 70.8267 19.7041 70.8491 19.6763C70.8715 19.6484 70.9034 19.6298 70.9387 19.624C71.5168 19.4797 72.0443 19.1796 72.4637 18.7564C72.9032 18.2986 73.188 17.7144 73.278 17.0862H71.6997C71.4369 17.4766 71.1082 17.8182 70.7284 18.096C70.7019 18.1184 70.6684 18.1309 70.6337 18.1315C70.6121 18.1318 70.5907 18.1271 70.5713 18.1179C70.5518 18.1086 70.5346 18.0951 70.5211 18.0782C70.506 18.0637 70.494 18.0462 70.4858 18.0269C70.4777 18.0075 70.4736 17.9867 70.4738 17.9657C70.4736 17.9405 70.4797 17.9156 70.4916 17.8934C70.5035 17.8711 70.5208 17.8522 70.5419 17.8384C71.0606 17.4669 71.4697 16.9626 71.7263 16.3785C71.7373 16.3481 71.7575 16.3218 71.784 16.3032C71.8105 16.2847 71.842 16.2748 71.8744 16.2749C71.917 16.2754 71.958 16.2911 71.9899 16.3193C72.0058 16.3327 72.0186 16.3495 72.0272 16.3685C72.0359 16.3874 72.0404 16.408 72.0402 16.4288C72.0079 16.5486 71.9569 16.6625 71.8892 16.7664H73.3195C73.2602 16.6746 73.1862 16.571 73.0974 16.4525C73.0769 16.4285 73.0654 16.3982 73.0648 16.3667C73.0641 16.3492 73.0675 16.3318 73.0747 16.3159C73.0819 16.2999 73.0927 16.2859 73.1063 16.2749C73.1183 16.2617 73.1329 16.2512 73.1492 16.2441C73.1656 16.2369 73.1832 16.2333 73.201 16.2334C73.2204 16.2336 73.2395 16.2386 73.2565 16.2479C73.2736 16.2572 73.2881 16.2705 73.2987 16.2867C73.414 16.4251 73.5134 16.5761 73.5949 16.7368C73.605 16.7555 73.6103 16.7763 73.6103 16.7975C73.6103 16.8187 73.605 16.8396 73.5949 16.8582C73.6144 16.8861 73.6257 16.919 73.6274 16.953ZM74.1605 16.6806C74.1607 16.6984 74.1572 16.7161 74.15 16.7324C74.1429 16.7488 74.1323 16.7634 74.119 16.7753C74.0915 16.7981 74.057 16.8107 74.0213 16.8109C73.9982 16.8121 73.9754 16.8062 73.9558 16.794C73.9362 16.7819 73.9208 16.7639 73.9117 16.7427C73.8271 16.6008 73.7352 16.4634 73.6363 16.3311C73.6175 16.3075 73.6071 16.2784 73.6067 16.2482C73.6067 16.2311 73.6101 16.2142 73.6166 16.1983C73.6232 16.1825 73.6328 16.1682 73.6449 16.1561C73.657 16.144 73.6713 16.1344 73.6871 16.1278C73.7029 16.1213 73.7199 16.1179 73.737 16.1179C73.7562 16.1179 73.7752 16.1221 73.7927 16.1303C73.8101 16.1385 73.8254 16.1505 73.8377 16.1653C73.9505 16.3066 74.0497 16.4583 74.1338 16.6184C74.1478 16.6365 74.1569 16.6579 74.1605 16.6806V16.6806Z" fill="white"/>
<path d="M78.8481 16.7871C78.7911 17.1611 78.6389 17.5142 78.406 17.8123C78.1732 18.1105 77.8676 18.3438 77.5185 18.4898C77.496 18.4938 77.473 18.4938 77.4504 18.4898C77.4287 18.4902 77.4071 18.4859 77.3872 18.4772C77.3673 18.4686 77.3494 18.4557 77.335 18.4395C77.3043 18.4077 77.2873 18.3652 77.2876 18.321C77.2865 18.2907 77.2951 18.2609 77.3121 18.2359C77.3292 18.2109 77.3538 18.1919 77.3823 18.1818C77.659 18.0653 77.9067 17.8894 78.1078 17.6666C78.2976 17.4505 78.429 17.1896 78.4898 16.9085H75.6056C75.5836 16.9116 75.5613 16.9094 75.5403 16.9023C75.5193 16.8951 75.5002 16.8831 75.4847 16.8673C75.4692 16.8515 75.4575 16.8322 75.4508 16.8111C75.444 16.79 75.4422 16.7676 75.4457 16.7457C75.4428 16.724 75.4449 16.7019 75.4519 16.6811C75.4589 16.6604 75.4706 16.6416 75.4861 16.6261C75.5015 16.6106 75.5204 16.5989 75.5411 16.5919C75.5618 16.5849 75.5839 16.5828 75.6056 16.5858H78.6912C78.7978 16.5858 78.8511 16.6361 78.8511 16.7338C78.8525 16.7516 78.8516 16.7696 78.8481 16.7871V16.7871ZM77.0862 17.8206C77.0951 18.2995 76.9622 18.7703 76.7042 19.1738C76.4924 19.5216 76.1703 19.7884 75.7892 19.9319H75.727C75.7053 19.9323 75.6837 19.928 75.6638 19.9194C75.6438 19.9107 75.626 19.8978 75.6115 19.8816C75.5833 19.8508 75.5675 19.8108 75.5671 19.7691C75.5658 19.736 75.5756 19.7035 75.5949 19.6766C75.6142 19.6498 75.642 19.6302 75.6737 19.621C75.9922 19.4985 76.2617 19.2748 76.4407 18.9843C76.6617 18.635 76.774 18.2279 76.7634 17.8146V17.4415C76.7604 17.4196 76.7625 17.3972 76.7697 17.3762C76.7768 17.3552 76.7888 17.3362 76.8047 17.3206C76.8205 17.3051 76.8397 17.2935 76.8609 17.2867C76.882 17.2799 76.9044 17.2782 76.9263 17.2816C76.9675 17.2817 77.0074 17.2964 77.0388 17.3231C77.0549 17.3382 77.0675 17.3566 77.0756 17.3771C77.0838 17.3975 77.0874 17.4195 77.0862 17.4415V17.8206Z" fill="white"/>
<path d="M83.2218 17.9687C83.222 17.9897 83.2179 18.0105 83.2098 18.0298C83.2016 18.0492 83.1896 18.0667 83.1745 18.0812C83.1576 18.0984 83.1372 18.1118 83.1148 18.1205C83.0923 18.1292 83.0682 18.1329 83.0442 18.1315H80.0385C80.0149 18.1331 79.9912 18.1294 79.9692 18.1207C79.9472 18.112 79.9274 18.0985 79.9112 18.0812C79.8953 18.0668 79.8826 18.0492 79.8739 18.0295C79.8652 18.0099 79.8607 17.9887 79.8607 17.9672C79.8607 17.9457 79.8652 17.9245 79.8739 17.9049C79.8826 17.8852 79.8953 17.8676 79.9112 17.8532C79.9278 17.8365 79.9477 17.8234 79.9696 17.8148C79.9915 17.8061 80.015 17.8021 80.0385 17.8028H83.0442C83.0682 17.802 83.0921 17.806 83.1145 17.8147C83.1369 17.8233 83.1573 17.8364 83.1745 17.8532C83.1898 17.8682 83.202 17.8861 83.2101 17.906C83.2183 17.9259 83.2223 17.9472 83.2218 17.9687V17.9687Z" fill="white"/>
<path d="M87.7998 18.4514C87.8019 18.4718 87.7997 18.4924 87.7931 18.5118C87.7865 18.5312 87.7759 18.549 87.7618 18.5639C87.7478 18.5788 87.7306 18.5905 87.7116 18.5982C87.6926 18.6058 87.6722 18.6093 87.6517 18.6083L86.254 18.709L86.3813 19.8224C86.3851 19.8457 86.383 19.8695 86.3752 19.8917C86.3674 19.9139 86.3543 19.9339 86.3369 19.9498C86.3211 19.9658 86.3022 19.9786 86.2813 19.9872C86.2605 19.9959 86.2381 20.0002 86.2155 20.0001C86.1955 20.0021 86.1753 20 86.1561 19.9938C86.137 19.9877 86.1193 19.9776 86.1043 19.9642C86.0893 19.9508 86.0772 19.9345 86.0688 19.9162C86.0604 19.8979 86.0559 19.8781 86.0556 19.858L85.9283 18.7327L84.424 18.8393C84.4021 18.8418 84.38 18.8391 84.3594 18.8313C84.3388 18.8236 84.3204 18.8111 84.3056 18.7949C84.2785 18.7625 84.2638 18.7216 84.2641 18.6794C84.2619 18.659 84.2642 18.6384 84.2708 18.619C84.2773 18.5996 84.288 18.5818 84.3021 18.5669C84.3161 18.552 84.3332 18.5403 84.3522 18.5326C84.3712 18.525 84.3917 18.5215 84.4122 18.5224L85.8928 18.4159L85.7773 17.3705L84.5573 17.4623C84.5358 17.4651 84.5141 17.4625 84.4939 17.4547C84.4737 17.447 84.4558 17.4343 84.4418 17.4179C84.4144 17.3869 84.3996 17.3468 84.4003 17.3054C84.3986 17.2854 84.4011 17.2652 84.4079 17.2463C84.4147 17.2274 84.4255 17.2101 84.4396 17.1958C84.4536 17.1814 84.4707 17.1703 84.4894 17.1632C84.5082 17.156 84.5283 17.153 84.5484 17.1544L85.7329 17.0655C85.7329 17.0478 85.7151 16.9441 85.6914 16.7694C85.6758 16.6714 85.6669 16.5725 85.6647 16.4733C85.6669 16.4335 85.6836 16.3959 85.7117 16.3676C85.7397 16.3393 85.7771 16.3222 85.8169 16.3197C85.8567 16.3171 85.896 16.3292 85.9275 16.3537C85.9589 16.3782 85.9803 16.4134 85.9875 16.4526L86.0556 17.0655L87.3556 16.9708C87.377 16.968 87.3988 16.9707 87.4189 16.9784C87.4391 16.9862 87.457 16.9988 87.4711 17.0152C87.4985 17.0462 87.5132 17.0863 87.5125 17.1277C87.5143 17.1477 87.5117 17.1679 87.5049 17.1868C87.4981 17.2057 87.4873 17.223 87.4733 17.2373C87.4592 17.2517 87.4422 17.2628 87.4234 17.27C87.4046 17.2771 87.3845 17.2801 87.3645 17.2787L86.0882 17.3735L86.2037 18.4188L87.628 18.3152C87.6497 18.3125 87.6717 18.3154 87.692 18.3237C87.7122 18.332 87.7299 18.3454 87.7435 18.3626C87.7716 18.3851 87.7914 18.4164 87.7998 18.4514V18.4514Z" fill="white"/>
<path d="M92.4993 17.8027C92.4989 17.8444 92.483 17.8845 92.4548 17.9152C92.4402 17.931 92.4223 17.9435 92.4023 17.9517C92.3824 17.9599 92.3609 17.9636 92.3394 17.9626H91.1016C91.1056 18.4536 90.9309 18.9294 90.61 19.3011C90.3103 19.6236 89.9184 19.846 89.4877 19.9377H89.4463C89.4247 19.938 89.4033 19.9333 89.3839 19.924C89.3644 19.9148 89.3472 19.9013 89.3337 19.8844C89.3071 19.853 89.2924 19.8131 89.2923 19.7719C89.2895 19.7354 89.3004 19.6991 89.3228 19.6701C89.3452 19.6411 89.3776 19.6214 89.4137 19.6149C89.8035 19.5531 90.1573 19.3511 90.4086 19.0468C90.66 18.7426 90.7916 18.357 90.7788 17.9626H89.0939C89.0719 17.9638 89.0499 17.9602 89.0294 17.952C89.0089 17.9438 88.9905 17.9313 88.9754 17.9152C88.9494 17.8834 88.9348 17.8438 88.934 17.8027C88.9305 17.7808 88.9323 17.7584 88.939 17.7372C88.9458 17.7161 88.9574 17.6969 88.973 17.681C88.9885 17.6652 89.0075 17.6532 89.0285 17.6461C89.0495 17.6389 89.0719 17.6368 89.0939 17.6398H92.3512C92.3722 17.6387 92.3933 17.6423 92.4127 17.6503C92.4322 17.6583 92.4497 17.6706 92.4638 17.6861C92.478 17.7017 92.4885 17.7203 92.4947 17.7404C92.5008 17.7606 92.5024 17.7819 92.4993 17.8027V17.8027ZM92.2031 16.7574C92.2061 16.7795 92.2039 16.8019 92.1967 16.823C92.1896 16.8441 92.1776 16.8633 92.1619 16.879C92.1461 16.8948 92.127 16.9067 92.1059 16.9138C92.0848 16.921 92.0624 16.9232 92.0403 16.9203H89.4255C89.4036 16.9233 89.3812 16.9211 89.3602 16.914C89.3392 16.9068 89.3202 16.8949 89.3046 16.879C89.2891 16.8632 89.2774 16.844 89.2707 16.8228C89.2639 16.8017 89.2622 16.7793 89.2656 16.7574C89.2627 16.7357 89.2648 16.7136 89.2718 16.6929C89.2788 16.6721 89.2905 16.6533 89.306 16.6378C89.3214 16.6224 89.3403 16.6107 89.361 16.6037C89.3818 16.5967 89.4038 16.5945 89.4255 16.5975H92.0432C92.064 16.5964 92.0847 16.6 92.104 16.6078C92.1232 16.6157 92.1405 16.6276 92.1546 16.6429C92.1687 16.6581 92.1793 16.6763 92.1856 16.696C92.192 16.7158 92.1939 16.7368 92.1913 16.7574H92.2031Z" fill="white"/>
<path d="M97.0358 16.953C96.9502 17.7023 96.6311 18.4057 96.1237 18.9637C95.6627 19.4421 95.0753 19.7799 94.4299 19.9379H94.3855C94.3641 19.9387 94.3429 19.9346 94.3234 19.9259C94.3038 19.9172 94.2866 19.904 94.273 19.8876C94.2444 19.8582 94.2285 19.8189 94.2285 19.778C94.2258 19.7426 94.2365 19.7074 94.2584 19.6795C94.2804 19.6515 94.312 19.6328 94.347 19.627C94.9251 19.4827 95.4526 19.1826 95.872 18.7593C96.3127 18.3024 96.5977 17.7179 96.6864 17.0892H95.108C94.8452 17.4795 94.5165 17.8212 94.1367 18.099C94.1114 18.1214 94.0788 18.134 94.0449 18.1345C94.023 18.1346 94.0013 18.1298 93.9813 18.1206C93.9614 18.1114 93.9437 18.098 93.9295 18.0812C93.9002 18.051 93.8833 18.0108 93.8821 17.9687C93.8819 17.9435 93.888 17.9186 93.8999 17.8964C93.9118 17.8741 93.9291 17.8552 93.9502 17.8414C94.4744 17.4719 94.8888 16.9674 95.1495 16.3815C95.1601 16.3508 95.1801 16.3243 95.2067 16.3057C95.2333 16.2871 95.2651 16.2773 95.2976 16.2779C95.3393 16.2782 95.3794 16.2941 95.4101 16.3223C95.4256 16.3359 95.4379 16.3528 95.4461 16.3717C95.4543 16.3907 95.4582 16.4112 95.4575 16.4318C95.4289 16.5524 95.3788 16.6668 95.3094 16.7694H96.8759C96.8995 16.7674 96.9234 16.7709 96.9455 16.7797C96.9675 16.7884 96.9873 16.8021 97.0032 16.8198C97.019 16.8377 97.0302 16.8592 97.0359 16.8824C97.0415 16.9056 97.0415 16.9298 97.0358 16.953V16.953Z" fill="white"/>
<path d="M99.1531 17.8797C99.1709 18.0129 99.1176 18.0781 99.0021 18.0781C98.9817 18.0797 98.9611 18.0772 98.9416 18.0707C98.9221 18.0643 98.9041 18.054 98.8886 18.0404C98.8732 18.0269 98.8606 18.0105 98.8516 17.992C98.8426 17.9735 98.8374 17.9535 98.8363 17.933C98.7679 17.5338 98.679 17.1385 98.5698 16.7485C98.5669 16.7289 98.5669 16.7089 98.5698 16.6893C98.5698 16.5915 98.626 16.5412 98.7386 16.5412C98.7739 16.5381 98.8091 16.5477 98.8379 16.5684C98.8667 16.589 98.8871 16.6193 98.8955 16.6537C98.937 16.787 98.9873 16.9943 99.0495 17.2785C99.1117 17.5628 99.1383 17.7642 99.1531 17.8797ZM101.901 16.7337C101.912 17.5253 101.653 18.297 101.167 18.922C100.701 19.4554 100.069 19.8154 99.3723 19.9436C99.3473 19.9505 99.3209 19.9505 99.296 19.9438C99.271 19.937 99.2482 19.9236 99.2301 19.9051C99.2123 19.8897 99.1981 19.8706 99.1883 19.8491C99.1786 19.8277 99.1737 19.8043 99.1739 19.7808C99.1705 19.7432 99.1819 19.7058 99.2057 19.6765C99.2295 19.6472 99.2637 19.6283 99.3012 19.6238C100.79 19.2764 101.548 18.309 101.575 16.7218C101.573 16.7004 101.575 16.6786 101.583 16.6583C101.59 16.6379 101.602 16.6195 101.617 16.6043C101.633 16.5892 101.651 16.5778 101.672 16.571C101.692 16.5641 101.714 16.5621 101.735 16.5649C101.779 16.5646 101.822 16.5816 101.854 16.6123C101.87 16.628 101.882 16.647 101.89 16.6679C101.899 16.6889 101.902 16.7113 101.901 16.7337V16.7337ZM100.349 17.7849C100.353 17.8079 100.352 17.8315 100.346 17.854C100.34 17.8765 100.329 17.8974 100.314 17.9152C100.298 17.9329 100.278 17.9468 100.256 17.956C100.234 17.9652 100.21 17.9695 100.187 17.9685C100.166 17.971 100.146 17.9692 100.126 17.9632C100.107 17.9573 100.089 17.9472 100.073 17.9338C100.058 17.9204 100.046 17.9039 100.037 17.8854C100.029 17.8669 100.024 17.8468 100.024 17.8264C99.9749 17.422 99.9037 17.0206 99.8105 16.6241C99.8092 16.6084 99.8092 16.5925 99.8105 16.5767C99.8105 16.4761 99.8638 16.4257 99.9734 16.4257C100.011 16.4215 100.049 16.4321 100.079 16.4554C100.109 16.4786 100.128 16.5126 100.133 16.5501C100.234 16.9563 100.306 17.3688 100.349 17.7849Z" fill="white"/>
</g>
<defs>
<clipPath id="clip0_5382_32476">
<rect width="115.694" height="20" fill="white"/>
</clipPath>
</defs>
</svg>
