<?xml version="1.0" encoding="UTF-8"?><svg id="Layer_2" xmlns="http://www.w3.org/2000/svg" viewBox="0 0 263.67 66.8"><defs><style>.cls-1{fill:white;}.cls-2{fill:white;}</style></defs><g id="LogKnot"><g><g><path class="cls-1" d="M23.47,39.54c-1.64,1.64-3.82,2.54-6.14,2.54s-4.5-.9-6.14-2.54c-1.64-1.64-2.54-3.82-2.54-6.14s.9-4.5,2.54-6.14c1.64-1.64,3.82-2.54,6.14-2.54s4.5,.9,6.14,2.54l3.15,3.15L47.69,9.35c-4.18-2.49-9.07-3.92-14.29-3.92-15.45,0-27.98,12.53-27.98,27.98s12.53,27.98,27.98,27.98c5.22,0,10.1-1.43,14.29-3.92l-21.07-21.07-3.15,3.15Z"/><path class="cls-1" d="M42.04,39.54c-.76,.76-1.64,1.36-2.63,1.8l-1.3,.57,13.08,13.08c2.3-1.9,4.29-4.17,5.89-6.71l-11.89-11.89-3.15,3.15Z"/><path class="cls-1" d="M59.15,44.36c1.44-3.37,2.23-7.07,2.23-10.96s-.8-7.6-2.23-10.96l-10.96,10.96,10.96,10.96Z"/><path class="cls-1" d="M39.42,25.46c.99,.44,1.87,1.04,2.63,1.8l3.15,3.15,11.89-11.89c-1.6-2.54-3.59-4.81-5.89-6.71l-13.08,13.08,1.3,.57Z"/><path class="cls-1" d="M35.91,28.95c-1.19,0-2.31,.46-3.15,1.31-1.74,1.74-1.74,4.56,0,6.3,.84,.84,1.96,1.3,3.15,1.3s2.31-.46,3.15-1.3l3.15-3.15-3.15-3.15c-.84-.84-1.96-1.3-3.15-1.3Z"/><path class="cls-1" d="M17.33,28.95c-1.19,0-2.31,.46-3.15,1.3-1.74,1.74-1.74,4.56,0,6.3,.84,.84,1.96,1.3,3.15,1.3s2.31-.46,3.15-1.3l3.15-3.15-3.15-3.15c-.84-.84-1.96-1.3-3.15-1.3Z"/><path class="cls-1" d="M33.4,66.8C14.98,66.8,0,51.82,0,33.4S14.98,0,33.4,0s33.4,14.98,33.4,33.4-14.98,33.4-33.4,33.4Zm0-64.71C16.13,2.09,2.09,16.13,2.09,33.4s14.05,31.31,31.31,31.31,31.31-14.05,31.31-31.31S50.67,2.09,33.4,2.09Z"/></g><g><g><polygon class="cls-2" points="192.74 21.97 191.05 19.86 172.98 34.39 172.98 20.31 170.27 20.31 170.27 49.56 172.98 49.56 172.98 35.49 191.05 50.02 192.74 47.91 176.61 34.94 192.74 21.97"/><polygon class="cls-2" points="88.78 20.32 86.02 20.32 86.02 49.57 109.26 49.57 109.26 46.86 88.78 46.86 88.78 20.32"/><path class="cls-2" d="M122.97,49.56c-5.13,0-9.3-4.17-9.3-9.3v-2.63c0-5.13,4.17-9.3,9.3-9.3s9.3,4.17,9.3,9.3v2.63c0,5.13-4.17,9.3-9.3,9.3Zm0-18.54c-3.64,0-6.6,2.96-6.6,6.6v2.63c0,3.64,2.96,6.6,6.6,6.6s6.6-2.96,6.6-6.6v-2.63c0-3.64-2.96-6.6-6.6-6.6Z"/><path class="cls-2" d="M236.44,49.56c-5.13,0-9.3-4.17-9.3-9.3v-2.63c0-5.13,4.17-9.3,9.3-9.3s9.3,4.17,9.3,9.3v2.63c0,5.13-4.17,9.3-9.3,9.3Zm0-18.54c-3.64,0-6.6,2.96-6.6,6.6v2.63c0,3.64,2.96,6.6,6.6,6.6s6.6-2.96,6.6-6.6v-2.63c0-3.64-2.96-6.6-6.6-6.6Z"/><path class="cls-2" d="M148.48,28.33c-5.13,0-9.3,4.17-9.3,9.3v2.63c0,5.13,4.17,9.3,9.3,9.3h6.6v.9c0,1.74-1.42,3.16-3.16,3.16h-10.98v2.7h10.98c3.23,0,5.86-2.63,5.86-5.86V28.33h-9.3Zm0,18.54c-3.64,0-6.6-2.96-6.6-6.6v-2.63c0-3.64,2.96-6.6,6.6-6.6h6.6v15.83h-6.6Z"/><path class="cls-2" d="M219.69,49.56h-2.7v-15.38c0-1.74-1.42-3.16-3.16-3.16h-10.04v18.53h-2.7V28.33h12.75c3.23,0,5.86,2.63,5.86,5.86v15.38Z"/><path class="cls-2" d="M263.67,49.56h-2.24c-3.23,0-5.86-2.63-5.86-5.86V21.51h2.7v22.2c0,1.74,1.42,3.16,3.16,3.16h2.24v2.7Z"/></g><rect class="cls-2" x="251.88" y="28.33" width="11.79" height="2.7"/></g></g></g></svg>