<svg width="85" height="20" viewBox="0 0 85 20" fill="none" xmlns="http://www.w3.org/2000/svg">
<path d="M7.01324 11.8552C6.5155 12.3529 5.88202 12.6244 5.15804 12.6244C4.47931 12.6244 3.80057 12.3529 3.30283 11.8552C2.8051 11.3574 2.5336 10.7239 2.5336 9.99995C2.5336 9.32121 2.8051 8.64248 3.30283 8.14474C3.80057 7.64701 4.43406 7.37551 5.15804 7.37551C5.83677 7.37551 6.5155 7.64701 7.01324 8.14474L7.96347 9.09497L14.2531 2.80538C12.9861 2.08139 11.5381 1.62891 9.95442 1.62891C5.33903 1.62891 1.58337 5.38456 1.58337 9.99995C1.58337 14.6153 5.33903 18.371 9.95442 18.371C11.5381 18.371 12.9861 17.9637 14.2531 17.1945L7.96347 10.9049L7.01324 11.8552Z" fill="white"/>
<path d="M12.5794 11.8554C12.3532 12.0817 12.0817 12.2627 11.8102 12.3984L11.403 12.5794L15.3396 16.5161C16.0183 15.9278 16.6066 15.2491 17.1043 14.5251L13.5296 10.9504L12.5794 11.8554Z" fill="white"/>
<path d="M17.6924 13.3029C18.0997 12.3074 18.3712 11.1762 18.3712 9.9997C18.3712 8.82323 18.1449 7.73726 17.6924 6.69653L14.3893 9.9997L17.6924 13.3029Z" fill="white"/>
<path d="M11.8102 7.64662C12.1269 7.78236 12.3532 7.96336 12.5794 8.1896L13.5296 9.13983L17.1043 5.56517C16.6066 4.79594 16.0183 4.11721 15.3396 3.57422L11.403 7.51087L11.8102 7.64662Z" fill="white"/>
<path d="M10.7239 8.6875C10.3619 8.6875 10.0452 8.82325 9.77369 9.09474C9.27596 9.59248 9.27596 10.4522 9.77369 10.9952C10.0452 11.2667 10.3619 11.4024 10.7239 11.4024C11.0859 11.4024 11.4027 11.2667 11.6741 10.9952L12.6244 10.045L11.6741 9.09474C11.4479 8.82325 11.0859 8.6875 10.7239 8.6875Z" fill="white"/>
<path d="M5.15813 8.6875C4.79614 8.6875 4.47939 8.82325 4.2079 9.09474C3.71016 9.59248 3.71016 10.4522 4.2079 10.9952C4.47939 11.2667 4.79614 11.4024 5.15813 11.4024C5.52012 11.4024 5.83686 11.2667 6.10835 10.9952L7.05858 10.045L6.10835 9.09474C5.8821 8.82325 5.52012 8.6875 5.15813 8.6875Z" fill="white"/>
<path d="M10 20C4.47964 20 0 15.5204 0 10C0 4.47964 4.47964 0 10 0C15.5204 0 20 4.47964 20 10C20 15.5204 15.5204 20 10 20ZM10 0.633483C4.84163 0.633483 0.633488 4.84163 0.633488 10C0.633488 15.1584 4.84163 19.3665 10 19.3665C15.1584 19.3665 19.3665 15.1584 19.3665 10C19.3665 4.84163 15.1584 0.633483 10 0.633483Z" fill="white"/>
<path d="M25.4749 4.29956H27.4659V13.5303H31.9908V15.3403H25.4297V4.29956H25.4749Z" fill="white"/>
<path d="M34.8412 14.888C34.253 14.526 33.7553 14.0283 33.4385 13.3948C33.1218 12.7613 32.9408 12.0826 32.9408 11.3586C32.9408 10.6346 33.1218 9.91065 33.4385 9.27717C33.7553 8.64368 34.2078 8.14594 34.8412 7.78395C35.4295 7.42196 36.1535 7.24097 37.0132 7.24097C37.8277 7.24097 38.5517 7.42196 39.1851 7.78395C39.7734 8.14594 40.2711 8.64368 40.5879 9.27717C40.9046 9.91065 41.0856 10.5894 41.0856 11.3586C41.0856 12.0826 40.9046 12.8066 40.5879 13.3948C40.2711 14.0283 39.8186 14.526 39.1851 14.888C38.5969 15.25 37.8729 15.431 37.0132 15.431C36.1535 15.431 35.4295 15.25 34.8412 14.888ZM38.5064 13.1686C38.8684 12.7161 39.0494 12.1278 39.0494 11.3586C39.0494 10.5894 38.8684 10.0011 38.5064 9.54866C38.1444 9.09617 37.6467 8.86993 37.0132 8.86993C36.3797 8.86993 35.882 9.09617 35.52 9.54866C35.158 10.0011 34.977 10.5894 34.977 11.3586C34.977 12.0826 35.158 12.7161 35.52 13.1686C35.882 13.6211 36.3797 13.8473 37.0132 13.8473C37.6467 13.8473 38.1444 13.6211 38.5064 13.1686Z" fill="white"/>
<path d="M43.1673 18.6426C42.4886 18.2354 42.1719 17.6924 42.1719 17.0137C42.1719 16.2444 42.5791 15.6562 43.4388 15.1585C42.9863 14.887 42.7601 14.525 42.7601 14.0272C42.7601 13.801 42.8506 13.5747 42.9863 13.3938C43.1221 13.2128 43.3031 13.0318 43.5746 12.9413C43.1674 12.6698 42.8959 12.3078 42.6696 11.8553C42.4434 11.4028 42.3529 10.9503 42.3529 10.4073C42.3529 9.81909 42.4886 9.32136 42.7149 8.82362C42.9863 8.32588 43.3483 7.96389 43.8008 7.6924C44.2986 7.4209 44.8416 7.28516 45.5203 7.28516C46.199 7.28516 46.7873 7.46615 47.3302 7.78289C47.5112 7.6924 47.7375 7.6019 48.0542 7.55665C48.371 7.46615 48.6877 7.46615 49.0045 7.46615H49.5022L49.3664 8.68787H48.6425C48.4615 8.68787 48.3257 8.68787 48.19 8.68787C48.5067 9.18561 48.6425 9.7286 48.6425 10.4073C48.6425 10.9956 48.5067 11.4933 48.2805 11.991C48.0542 12.4888 47.647 12.8508 47.1945 13.1223C46.6968 13.3938 46.1538 13.5295 45.475 13.5295C45.2488 13.5295 44.9773 13.4843 44.6606 13.439C44.5248 13.4843 44.4796 13.5747 44.4796 13.7105C44.4796 13.8462 44.5701 13.9367 44.7058 14.0272C44.8868 14.1177 45.1583 14.163 45.5203 14.2082L46.8778 14.3892C48.6877 14.6155 49.5927 15.3847 49.5927 16.6517C49.5927 17.4662 49.2759 18.0996 48.5972 18.5521C47.9185 19.0046 46.9683 19.2761 45.7918 19.2761C44.7511 19.2309 43.8461 19.0499 43.1673 18.6426ZM47.9185 16.7874C47.9185 16.5159 47.7827 16.2897 47.5565 16.1539C47.3302 16.0182 46.923 15.8824 46.4253 15.8372L44.7058 15.5657C44.1176 15.7919 43.8008 16.1539 43.8008 16.6517C43.8008 17.0137 43.9818 17.3304 44.3438 17.5114C44.7058 17.6924 45.2488 17.7829 45.8823 17.7829C47.2397 17.7829 47.9185 17.4209 47.9185 16.7874ZM46.6063 11.629C46.8325 11.3123 46.9683 10.9051 46.9683 10.4073C46.9683 9.86434 46.8325 9.4571 46.6063 9.18561C46.38 8.86887 46.018 8.73312 45.5655 8.73312C45.1131 8.73312 44.7511 8.86887 44.5248 9.18561C44.2986 9.50235 44.1628 9.90959 44.1628 10.4073C44.1628 10.9503 44.2986 11.3576 44.5248 11.629C44.7511 11.9458 45.1131 12.0815 45.5655 12.0815C45.9728 12.0815 46.3348 11.9458 46.6063 11.629Z" fill="white"/>
<path d="M51.4479 4.29916H53.4388V15.2946H51.4479V4.29916ZM53.6198 9.45753L57.6922 4.25391H60.0452L55.9275 9.45753L60.0452 15.2946H57.6922L53.6198 9.45753Z" fill="white"/>
<path d="M61.7194 7.4209H63.5293L63.5746 7.96389C64.2533 7.5114 64.932 7.28516 65.7013 7.28516C66.6967 7.28516 67.4207 7.6019 67.9185 8.28063C68.4162 8.91412 68.6877 9.81909 68.6877 10.9051V15.2942H66.742V11.0861C66.742 10.3621 66.6062 9.81909 66.38 9.4571C66.1538 9.09511 65.7465 8.91412 65.2035 8.91412C64.6153 8.91412 64.1176 9.14036 63.7103 9.59285V15.2942H61.7646V7.4209H61.7194Z" fill="white"/>
<path d="M72.2624 14.888C71.6742 14.526 71.1764 14.0283 70.8597 13.3948C70.5429 12.7613 70.3619 12.0826 70.3619 11.3586C70.3619 10.6346 70.5429 9.91065 70.8597 9.27717C71.1764 8.64368 71.6289 8.14594 72.2624 7.78395C72.8506 7.42196 73.5746 7.24097 74.4343 7.24097C75.2488 7.24097 75.9728 7.42196 76.6063 7.78395C77.1945 8.14594 77.6923 8.64368 78.009 9.27717C78.3257 9.91065 78.5067 10.5894 78.5067 11.3586C78.5067 12.0826 78.3257 12.8066 78.009 13.3948C77.6923 14.0283 77.2398 14.526 76.6063 14.888C76.0181 15.25 75.2941 15.431 74.4343 15.431C73.5746 15.431 72.8506 15.25 72.2624 14.888ZM75.9276 13.1686C76.2895 12.7161 76.4705 12.1278 76.4705 11.3586C76.4705 10.5894 76.2895 10.0011 75.9276 9.54866C75.5656 9.09617 75.0678 8.86993 74.4343 8.86993C73.8009 8.86993 73.3031 9.09617 72.9411 9.54866C72.5791 10.0011 72.3981 10.5894 72.3981 11.3586C72.3981 12.0826 72.5791 12.7161 72.9411 13.1686C73.3031 13.6211 73.8009 13.8473 74.4343 13.8473C75.0678 13.8473 75.5656 13.6211 75.9276 13.1686Z" fill="white"/>
<path d="M81.0857 14.8419C80.7237 14.4346 80.5427 13.9369 80.5427 13.3939V9.05H79.4115L79.5925 7.46629H80.5427V5.70159L82.4884 5.47534V7.42104H84.2079V9.00475H82.4884V12.5794C82.4884 12.9867 82.5337 13.3034 82.5789 13.4391C82.6242 13.6201 82.7147 13.7106 82.8957 13.7559C83.0314 13.8011 83.3029 13.8464 83.7101 13.8464H84.2531L84.0721 15.4301H82.6694C81.9907 15.4301 81.4477 15.2491 81.0857 14.8419Z" fill="white"/>
</svg>
