<svg width="202" height="40" viewBox="0 0 202 40" fill="none" xmlns="http://www.w3.org/2000/svg">
<g clip-path="url(#clip0_5372_33514)">
<g clip-path="url(#clip1_5372_33514)">
<path d="M25.6613 10.2796C25.5291 10.1476 25.35 10.0735 25.1633 10.0735C24.9765 10.0735 24.7974 10.1476 24.6653 10.2796L21.9309 13.0985C21.799 13.2306 21.7249 13.4097 21.7249 13.5965C21.7249 13.7832 21.799 13.9623 21.9309 14.0945L35.8844 28.0292C36.7844 26.2401 37.3753 24.3118 37.6321 22.3256L25.6613 10.2796Z" fill="white"/>
<path d="M23.1713 7.83648L20.437 5.11155C20.3723 5.04649 20.2955 4.99486 20.2108 4.95963C20.1261 4.9244 20.0354 4.90625 19.9437 4.90625C19.852 4.90625 19.7612 4.9244 19.6765 4.95963C19.5918 4.99486 19.515 5.04649 19.4503 5.11155L2.31152 22.241C2.56206 24.2332 3.14988 26.1683 4.04983 27.9633L23.1713 8.83248C23.3033 8.70034 23.3774 8.52123 23.3774 8.33448C23.3774 8.14773 23.3033 7.96861 23.1713 7.83648V7.83648Z" fill="white"/>
<path d="M37.8104 19.488C37.6712 14.9426 35.8028 10.6217 32.5863 7.40697C29.3699 4.19226 25.0479 2.32614 20.5024 2.18945L37.8104 19.488Z" fill="white"/>
<path d="M19.3753 2.18945C14.8685 2.35503 10.5914 4.22009 7.40333 7.40987C4.21529 10.5997 2.35256 14.8778 2.18945 19.3847L19.3753 2.18945Z" fill="white"/>
<path d="M25.6519 20.7566C25.5873 20.6915 25.5104 20.6399 25.4257 20.6046C25.3411 20.5694 25.2503 20.5513 25.1586 20.5513C25.0669 20.5513 24.9761 20.5694 24.8914 20.6046C24.8068 20.6399 24.7299 20.6915 24.6653 20.7566L21.9309 23.4815C21.799 23.6136 21.7249 23.7927 21.7249 23.9795C21.7249 24.1662 21.799 24.3454 21.9309 24.4775L31.2709 33.8174C32.6378 32.6968 33.8342 31.3832 34.8227 29.9179L25.6519 20.7566Z" fill="white"/>
<path d="M23.171 19.2624C23.2361 19.1978 23.2877 19.1209 23.3229 19.0363C23.3582 18.9516 23.3763 18.8608 23.3763 18.7691C23.3763 18.6774 23.3582 18.5866 23.3229 18.5019C23.2877 18.4173 23.2361 18.3404 23.171 18.2758L20.4367 15.5415C20.372 15.4764 20.2952 15.4248 20.2105 15.3896C20.1259 15.3543 20.0351 15.3362 19.9434 15.3362C19.8517 15.3362 19.7609 15.3543 19.6762 15.3896C19.5915 15.4248 19.5147 15.4764 19.4501 15.5415L5.13013 29.852C6.1006 31.3224 7.28143 32.6425 8.63494 33.7703L23.171 19.2624Z" fill="white"/>
<path d="M21.2544 33.2253C20.8315 33.2253 20.4651 33.3005 20.4651 34.165C20.4651 35.0294 20.8315 35.1046 21.2544 35.1046C21.6772 35.1046 22.0343 35.0294 22.0343 34.165C22.0343 33.3005 21.6678 33.2253 21.2544 33.2253Z" fill="white"/>
<path d="M18.5387 33.2253C18.1252 33.2253 17.7494 33.3005 17.7494 34.165C17.7494 35.0294 18.1252 35.1046 18.5387 35.1046C18.9521 35.1046 19.328 35.0294 19.328 34.165C19.328 33.3005 18.9709 33.2253 18.5387 33.2253Z" fill="white"/>
<path d="M24.1952 34.2026H23.2556C23.2556 34.7006 23.406 35.0201 23.9697 35.0201C24.6839 35.0201 24.6839 34.71 24.6839 34.6067C24.6839 34.5033 24.6087 34.2026 24.1952 34.2026Z" fill="white"/>
<path d="M20.4368 25.9715C20.3047 25.8395 20.1256 25.7654 19.9388 25.7654C19.7521 25.7654 19.573 25.8395 19.4408 25.9715L10.3922 35.0201C13.2495 36.848 16.5704 37.8193 19.9623 37.8193C23.3542 37.8193 26.6752 36.848 29.5325 35.0201L20.4368 25.9715ZM16.8757 35.0201V35.2926H15.0716V34.71C15.06 34.6196 15.0688 34.5278 15.0974 34.4413C15.1259 34.3547 15.1735 34.2757 15.2366 34.2099C15.2996 34.1442 15.3766 34.0933 15.4619 34.0612C15.5471 34.029 15.6385 34.0164 15.7293 34.0241H16.2931C16.3411 34.0256 16.3889 34.0162 16.4328 33.9967C16.4768 33.9772 16.5157 33.948 16.5468 33.9113C16.6036 33.8356 16.6334 33.7429 16.6313 33.6482C16.6367 33.6008 16.6319 33.5527 16.6173 33.5072C16.6026 33.4617 16.5786 33.4199 16.5466 33.3844C16.5147 33.3489 16.4755 33.3205 16.4318 33.3012C16.3881 33.2819 16.3408 33.2721 16.2931 33.2724H15.1185V33.0093H16.2931C16.4625 33.0093 16.6251 33.0766 16.7449 33.1964C16.8647 33.3163 16.932 33.4788 16.932 33.6482C16.932 33.8177 16.8647 33.9802 16.7449 34.1C16.6251 34.2199 16.4625 34.2872 16.2931 34.2872H15.7293C15.4568 34.2872 15.3347 34.4187 15.3347 34.71V35.0671L16.8757 35.0201ZM18.5388 35.3208C18.0502 35.3208 17.4864 35.1892 17.4864 34.1368C17.4864 33.0845 18.0502 32.9623 18.5388 32.9623C19.0274 32.9623 19.6006 33.0939 19.6006 34.1368C19.6006 35.1798 19.0368 35.3208 18.5388 35.3208V35.3208ZM21.2543 35.3208C20.7563 35.3208 20.1925 35.1892 20.1925 34.1368C20.1925 33.0845 20.7563 32.9623 21.2543 32.9623C21.7523 32.9623 22.3067 33.0939 22.3067 34.1368C22.3067 35.1798 21.7899 35.3208 21.2543 35.3208V35.3208ZM23.9417 35.3208C23.2745 35.3208 23.002 34.9355 23.002 34.1556C23.002 33.3758 23.3215 32.9905 23.9417 32.9905H24.8813V33.2536H23.9417C23.4249 33.2536 23.2557 33.5355 23.2275 33.9677H24.1672C24.7685 33.9677 24.8907 34.3248 24.8907 34.6349C24.8907 34.9449 24.7967 35.2926 23.9417 35.2926V35.3208Z" fill="white"/>
<path d="M19.9953 40.0001C16.0387 40.0001 12.1711 38.8269 8.8813 36.6287C5.59155 34.4306 3.02749 31.3063 1.51338 27.6509C-0.00072528 23.9955 -0.396894 19.9732 0.374992 16.0927C1.14688 12.2122 3.05214 8.64768 5.84985 5.84997C8.64755 3.05226 12.2121 1.147 16.0926 0.375116C19.9731 -0.39677 23.9954 -0.000608587 27.6508 1.5135C31.3062 3.02761 34.4305 5.59166 36.6286 8.88141C38.8268 12.1712 40 16.0389 40 19.9954C39.9975 25.3002 37.8891 30.3871 34.138 34.1381C30.3869 37.8892 25.3001 39.9976 19.9953 40.0001V40.0001ZM19.9953 0.751829C16.1866 0.749971 12.463 1.8778 9.29539 3.99263C6.12781 6.10746 3.65865 9.11427 2.20027 12.6327C0.74189 16.1511 0.359829 20.023 1.10241 23.7586C1.84499 27.4942 3.67885 30.9256 6.37199 33.6187C9.06514 36.3119 12.4966 38.1458 16.2321 38.8883C19.9677 39.6309 23.8396 39.2489 27.358 37.7905C30.8765 36.3321 33.8833 33.8629 35.9981 30.6954C38.1129 27.5278 39.2408 23.8041 39.2389 19.9954C39.2315 14.894 37.2016 10.0036 33.5943 6.39638C29.9871 2.78912 25.0967 0.759285 19.9953 0.751829V0.751829Z" fill="white"/>
<path d="M115.283 15.767V15.7106C116.094 15.5895 116.863 15.2684 117.519 14.7763C118.175 14.2842 118.698 13.6366 119.042 12.8917C119.332 12.2513 119.483 11.5561 119.483 10.8527C119.483 10.1494 119.332 9.45419 119.042 8.81375C118.743 8.16486 118.309 7.58799 117.767 7.12258C117.225 6.65716 116.59 6.31415 115.903 6.11701C115.755 6.07366 115.604 6.03914 115.452 6.01365C115.412 6.00472 115.37 6.00472 115.33 6.01365C115.076 5.96493 114.818 5.93976 114.56 5.93848H105.163V14.1602H103.068V15.8234H105.116V23.923H106.77V15.8234H113.347C113.657 16.3214 114.757 18.2006 117.914 23.7351L118.093 24.0357L119.558 23.3028L115.283 15.767ZM106.77 7.54524H114.522C115.388 7.54773 116.217 7.89334 116.828 8.5063C117.439 9.11925 117.782 9.94954 117.782 10.8152V10.8715C117.784 11.077 117.762 11.2819 117.717 11.4823C117.564 12.2177 117.163 12.8784 116.582 13.3539C116 13.8294 115.273 14.0908 114.522 14.0945H106.77V7.54524Z" fill="white"/>
<path d="M164.529 23.9229C163.011 23.9229 161.556 23.32 160.483 22.2469C159.41 21.1737 158.807 19.7182 158.807 18.2006V16.5844C158.807 15.0667 159.41 13.6112 160.483 12.5381C161.556 11.4649 163.011 10.8621 164.529 10.8621C166.047 10.8621 167.502 11.4649 168.575 12.5381C169.648 13.6112 170.251 15.0667 170.251 16.5844V18.2006C170.251 19.7182 169.648 21.1737 168.575 22.2469C167.502 23.32 166.047 23.9229 164.529 23.9229V23.9229ZM164.529 12.5252C163.453 12.5277 162.422 12.9561 161.661 13.7169C160.901 14.4776 160.472 15.5086 160.47 16.5844V18.2006C160.47 19.2771 160.897 20.3096 161.659 21.0708C162.42 21.8321 163.452 22.2598 164.529 22.2598C165.606 22.2598 166.638 21.8321 167.399 21.0708C168.16 20.3096 168.588 19.2771 168.588 18.2006V16.5844C168.586 15.5086 168.157 14.4776 167.397 13.7169C166.636 12.9561 165.605 12.5277 164.529 12.5252V12.5252Z" fill="white"/>
<path d="M143.716 24.1108H142.062V10.8621H149.899C150.372 10.8621 150.841 10.9555 151.278 11.1369C151.716 11.3183 152.113 11.5843 152.447 11.9194C152.781 12.2546 153.046 12.6524 153.227 13.0902C153.407 13.5279 153.499 13.9968 153.498 14.4702V23.9229H151.835V14.4702C151.835 13.9544 151.63 13.4597 151.265 13.0949C150.9 12.7301 150.405 12.5252 149.89 12.5252H143.716V24.1108Z" fill="white"/>
<path d="M135.56 23.9229H128.663C127.708 23.9229 126.792 23.5441 126.115 22.8694C125.439 22.1948 125.058 21.2794 125.055 20.3241V14.7427C125.058 13.7143 125.467 12.7286 126.195 12.0014C126.922 11.2742 127.907 10.8645 128.936 10.8621H132.666C133.695 10.8621 134.682 11.2709 135.41 11.9987C136.138 12.7264 136.547 13.7135 136.547 14.7427C136.547 15.7719 136.138 16.759 135.41 17.4868C134.682 18.2145 133.695 18.6234 132.666 18.6234H126.765V20.3241C126.768 20.8383 126.974 21.3307 127.338 21.6934C127.703 22.0561 128.196 22.2598 128.71 22.2598H135.607L135.56 23.9229ZM126.718 16.9603H132.666C133.254 16.9603 133.818 16.7266 134.234 16.3108C134.65 15.8949 134.884 15.3308 134.884 14.7427C134.884 14.1546 134.65 13.5906 134.234 13.1747C133.818 12.7588 133.254 12.5252 132.666 12.5252H128.908C128.32 12.5252 127.756 12.7588 127.34 13.1747C126.924 13.5906 126.69 14.1546 126.69 14.7427L126.718 16.9603Z" fill="white"/>
<path d="M200.319 23.9229H193.423C192.469 23.9204 191.555 23.5405 190.881 22.8661C190.206 22.1917 189.826 21.2778 189.824 20.3241V14.7427C189.824 13.7135 190.233 12.7264 190.96 11.9987C191.688 11.2709 192.675 10.8621 193.704 10.8621H197.378C198.408 10.8621 199.395 11.2709 200.122 11.9987C200.85 12.7264 201.259 13.7135 201.259 14.7427C201.259 15.7719 200.85 16.759 200.122 17.4868C199.395 18.2145 198.408 18.6234 197.378 18.6234H191.487V20.3241C191.487 20.8375 191.691 21.3298 192.054 21.6928C192.417 22.0558 192.909 22.2598 193.423 22.2598H200.319V23.9229ZM191.487 16.9603H197.378C197.966 16.9603 198.53 16.7266 198.946 16.3108C199.362 15.8949 199.596 15.3308 199.596 14.7427C199.596 14.1546 199.362 13.5906 198.946 13.1747C198.53 12.7588 197.966 12.5252 197.378 12.5252H193.704C193.116 12.5252 192.552 12.7588 192.136 13.1747C191.721 13.5906 191.487 14.1546 191.487 14.7427V16.9603Z" fill="white"/>
<path d="M183.82 10.8621L179.657 22.5041L175.495 10.8621H173.728L178.398 23.9229H180.916L185.586 10.8621H183.82Z" fill="white"/>
<path d="M52.826 5.89136H51.1252V23.8759H65.4264V22.2127H52.826V5.89136Z" fill="white"/>
<path d="M73.8454 23.8854C72.3285 23.8829 70.8744 23.2793 69.8018 22.2066C68.7292 21.134 68.1255 19.68 68.123 18.1631V16.5375C68.123 15.0199 68.7259 13.5644 69.7991 12.4912C70.8722 11.4181 72.3277 10.8152 73.8454 10.8152C75.363 10.8152 76.8185 11.4181 77.8917 12.4912C78.9648 13.5644 79.5677 15.0199 79.5677 16.5375V18.1631C79.5677 19.6807 78.9648 21.1362 77.8917 22.2094C76.8185 23.2825 75.363 23.8854 73.8454 23.8854V23.8854ZM73.8454 12.4783C72.7696 12.4808 71.7386 12.9093 70.9778 13.67C70.2171 14.4307 69.7887 15.4617 69.7862 16.5375V18.1631C69.7862 19.2396 70.2138 20.2721 70.9751 21.0334C71.7363 21.7946 72.7688 22.2223 73.8454 22.2223C74.9219 22.2223 75.9544 21.7946 76.7157 21.0334C77.4769 20.2721 77.9046 19.2396 77.9046 18.1631V16.5375C77.9046 16.0045 77.7996 15.4766 77.5956 14.9841C77.3916 14.4917 77.0926 14.0442 76.7157 13.6672C76.3387 13.2903 75.8913 12.9913 75.3988 12.7873C74.9063 12.5833 74.3784 12.4783 73.8454 12.4783V12.4783Z" fill="white"/>
<path d="M89.5467 10.8152C88.0298 10.8177 86.5757 11.4214 85.5031 12.494C84.4305 13.5666 83.8268 15.0206 83.8243 16.5375V18.1631C83.8243 19.6807 84.4272 21.1362 85.5004 22.2094C86.5735 23.2825 88.029 23.8854 89.5467 23.8854H93.6059V24.4398C93.6034 24.954 93.3974 25.4463 93.0329 25.8091C92.6684 26.1718 92.1751 26.3754 91.6608 26.3754H84.9049V28.0386H91.6608C92.6162 28.0386 93.5325 27.6597 94.2089 26.9851C94.8853 26.3105 95.2665 25.3951 95.269 24.4398V10.8152H89.5467ZM89.5467 22.2223C88.4709 22.2198 87.4398 21.7913 86.6791 21.0306C85.9184 20.2699 85.49 19.2389 85.4875 18.1631V16.5375C85.49 15.4617 85.9184 14.4307 86.6791 13.67C87.4398 12.9093 88.4709 12.4808 89.5467 12.4783H93.6059V22.2223H89.5467Z" fill="white"/>
<path d="M112.389 33.4884C112.411 33.6102 112.405 33.7355 112.371 33.8545C112.337 33.9735 112.275 34.0829 112.191 34.174C112.107 34.2651 112.004 34.3355 111.888 34.3796C111.772 34.4237 111.648 34.4403 111.525 34.428H106.967C106.844 34.4403 106.72 34.4237 106.604 34.3796C106.488 34.3355 106.384 34.2651 106.301 34.174C106.217 34.0829 106.155 33.9735 106.121 33.8545C106.087 33.7355 106.08 33.6102 106.103 33.4884V29.1755C106.08 29.0537 106.087 28.9284 106.121 28.8094C106.155 28.6904 106.217 28.581 106.301 28.4899C106.384 28.3987 106.488 28.3283 106.604 28.2843C106.72 28.2402 106.844 28.2236 106.967 28.2359H111.525C111.648 28.2236 111.772 28.2402 111.888 28.2843C112.004 28.3283 112.107 28.3987 112.191 28.4899C112.275 28.581 112.337 28.6904 112.371 28.8094C112.405 28.9284 112.411 29.0537 112.389 29.1755V33.4884ZM111.308 33.7797C111.637 33.7797 111.731 33.7045 111.731 33.385V29.26C111.731 28.9594 111.637 28.8748 111.308 28.8748H107.183C106.855 28.8748 106.761 28.95 106.761 29.26V33.385C106.761 33.7139 106.855 33.7797 107.183 33.7797H111.308Z" fill="white"/>
<path d="M116.692 29.3351C116.183 30.1329 115.514 30.8174 114.729 31.3459C114.674 31.3868 114.609 31.4097 114.541 31.4117C114.491 31.4117 114.442 31.3998 114.398 31.3769C114.354 31.354 114.316 31.3208 114.287 31.2802C114.244 31.231 114.22 31.1673 114.221 31.1016C114.223 31.0429 114.24 30.9856 114.269 30.9348C114.299 30.884 114.34 30.8412 114.39 30.8104C114.993 30.4131 115.516 29.9063 115.931 29.3163C116.267 28.852 116.541 28.3468 116.749 27.8129C116.765 27.7534 116.801 27.7009 116.85 27.6635C116.899 27.6262 116.96 27.606 117.021 27.6062H117.162C117.223 27.6224 117.277 27.6576 117.315 27.7067C117.354 27.7558 117.376 27.8161 117.378 27.8787C117.384 27.9193 117.384 27.9603 117.378 28.0009C117.283 28.2604 117.167 28.5118 117.031 28.7526H117.594H119.812C119.923 28.7397 120.035 28.7515 120.14 28.7871C120.245 28.8227 120.341 28.8813 120.421 28.9586C120.501 29.0359 120.563 29.1301 120.603 29.2342C120.642 29.3383 120.657 29.4498 120.648 29.5607C120.662 29.6667 120.662 29.7741 120.648 29.8801C120.388 31.1534 119.757 32.3211 118.834 33.2359C117.911 34.1506 116.737 34.7714 115.462 35.0199H115.358C115.293 35.019 115.23 34.9977 115.178 34.9589C115.125 34.9201 115.087 34.8658 115.067 34.8038C115.063 34.7694 115.063 34.7348 115.067 34.7004C115.067 34.6325 115.091 34.5667 115.134 34.5138C115.176 34.4609 115.235 34.424 115.302 34.4091C116.463 34.1812 117.53 33.6126 118.367 32.7759C119.203 31.9391 119.772 30.8721 120 29.711C120.004 29.6547 120.004 29.5982 120 29.5419C120 29.3821 119.915 29.3069 119.662 29.3069L116.692 29.3351ZM120.282 27.4559C120.563 27.7661 120.817 28.0993 121.043 28.4519C121.076 28.5092 121.096 28.5736 121.099 28.6398C121.095 28.7029 121.065 28.7618 121.018 28.8038C120.971 28.8459 120.909 28.8679 120.846 28.8653C120.799 28.863 120.754 28.8489 120.714 28.8242C120.675 28.7996 120.643 28.7652 120.62 28.7244C120.408 28.3949 120.172 28.0809 119.915 27.7848C119.885 27.7614 119.861 27.7314 119.845 27.6972C119.829 27.6629 119.821 27.6254 119.821 27.5874C119.824 27.5268 119.85 27.4694 119.893 27.4274C119.937 27.3853 119.996 27.3619 120.056 27.3619C120.138 27.3742 120.213 27.418 120.263 27.4841L120.282 27.4559ZM121.325 27.0706C121.594 27.3586 121.834 27.6734 122.039 28.0103C122.07 28.0646 122.086 28.1262 122.086 28.1888C122.083 28.2519 122.057 28.3117 122.011 28.3555C121.966 28.3993 121.905 28.4237 121.842 28.4237C121.796 28.4233 121.751 28.4109 121.711 28.3879C121.672 28.3648 121.639 28.3318 121.616 28.2921C121.418 27.9646 121.198 27.6507 120.958 27.3525C120.908 27.2989 120.878 27.2289 120.874 27.1552C120.876 27.0945 120.902 27.0372 120.946 26.9951C120.99 26.9531 121.048 26.9296 121.109 26.9297C121.152 26.9407 121.193 26.9617 121.227 26.991C121.262 27.0204 121.288 27.0573 121.306 27.0988L121.325 27.0706Z" fill="white"/>
<path d="M124.482 31.891C124.469 31.9699 124.428 32.0415 124.367 32.0931C124.306 32.1448 124.228 32.1731 124.149 32.1731C124.069 32.1731 123.991 32.1448 123.93 32.0931C123.869 32.0415 123.828 31.9699 123.815 31.891V28.0761C123.813 28.0325 123.821 27.989 123.838 27.9487C123.855 27.9084 123.88 27.8722 123.912 27.8427C123.944 27.8132 123.983 27.7911 124.024 27.7778C124.066 27.7646 124.11 27.7606 124.153 27.7661C124.195 27.7621 124.237 27.767 124.277 27.7803C124.317 27.7937 124.353 27.8152 124.384 27.8435C124.415 27.8718 124.44 27.9063 124.457 27.9448C124.474 27.9832 124.482 28.0248 124.482 28.0667V31.891ZM128.062 28.0761C128.061 28.0342 128.068 27.9925 128.084 27.9536C128.099 27.9147 128.123 27.8796 128.153 27.8504C128.183 27.8212 128.219 27.7986 128.258 27.7841C128.298 27.7695 128.34 27.7634 128.382 27.7661C128.425 27.7609 128.469 27.7646 128.511 27.7772C128.553 27.7897 128.592 27.8107 128.625 27.8389C128.659 27.8671 128.686 27.9019 128.706 27.941C128.725 27.9802 128.736 28.023 128.739 28.0667V30.8856C128.783 31.4065 128.708 31.9307 128.521 32.4189C128.334 32.907 128.039 33.3465 127.658 33.7045C126.896 34.3036 125.981 34.6778 125.018 34.7851V34.7851C124.938 34.7885 124.859 34.7628 124.797 34.7126C124.735 34.6625 124.693 34.5914 124.679 34.5126C124.676 34.4908 124.676 34.4686 124.679 34.4468C124.677 34.409 124.682 34.3711 124.694 34.3353C124.707 34.2996 124.726 34.2667 124.752 34.2386C124.777 34.2105 124.808 34.1879 124.842 34.172C124.877 34.1561 124.914 34.1473 124.952 34.1461C125.798 34.0675 126.602 33.7406 127.263 33.2065C127.575 32.8943 127.813 32.5162 127.959 32.0999C128.106 31.6836 128.157 31.2397 128.109 30.8011L128.062 28.0761Z" fill="white"/>
<path d="M137.017 28.3111C137.021 28.3454 137.021 28.3801 137.017 28.4144C136.722 29.7982 136.093 31.0887 135.184 32.1729C134.202 33.2873 132.926 34.1016 131.501 34.522H131.351C131.283 34.525 131.216 34.5025 131.164 34.4591C131.112 34.4157 131.078 34.3543 131.069 34.2871C131.065 34.2465 131.065 34.2056 131.069 34.1649C131.065 34.0974 131.086 34.0308 131.127 33.9774C131.169 33.9239 131.228 33.8871 131.294 33.8737C132.615 33.4689 133.798 32.7081 134.715 31.6749C135.528 30.6848 136.095 29.5158 136.368 28.2641C136.368 28.0667 136.5 27.9822 136.66 27.9822H136.782C136.819 27.9879 136.855 28.001 136.887 28.0207C136.919 28.0404 136.947 28.0663 136.969 28.097C136.991 28.1277 137.006 28.1624 137.014 28.1992C137.023 28.2359 137.023 28.274 137.017 28.3111Z" fill="white"/>
<path d="M142.532 29.5514C143.662 30.8636 144.857 32.118 146.112 33.3099C146.195 33.3851 146.246 33.4896 146.253 33.6012C146.25 33.6908 146.217 33.7768 146.159 33.8455C146.132 33.883 146.097 33.9136 146.056 33.9348C146.016 33.9561 145.97 33.9673 145.924 33.9677C145.874 33.9669 145.825 33.9556 145.78 33.9345C145.734 33.9135 145.694 33.8832 145.661 33.8455C144.43 32.6522 143.134 31.2428 142.091 30.0119C141.649 29.4951 141.583 29.4481 141.424 29.4481C141.264 29.4481 141.179 29.5138 140.888 29.9649C140.399 30.7354 139.77 31.6374 139.244 32.3045C139.211 32.3498 139.169 32.3869 139.12 32.413C139.071 32.4391 139.017 32.4534 138.962 32.4549C138.865 32.4516 138.772 32.4151 138.699 32.3515C138.663 32.3215 138.635 32.284 138.615 32.2418C138.596 32.1996 138.586 32.1537 138.586 32.1072C138.592 32.0063 138.632 31.9104 138.699 31.8347C139.33 31.113 139.905 30.3433 140.418 29.5326C140.841 28.8655 141.038 28.7528 141.358 28.7528C141.677 28.7528 141.912 28.8185 142.532 29.5514ZM144.299 28.6118C144.582 28.9171 144.836 29.2473 145.06 29.5984C145.091 29.6595 145.107 29.7272 145.107 29.7957C145.102 29.8572 145.074 29.9146 145.029 29.9565C144.984 29.9983 144.924 30.0214 144.863 30.0212C144.816 30.0181 144.771 30.0036 144.732 29.979C144.693 29.9545 144.66 29.9205 144.637 29.8803C144.424 29.549 144.185 29.2349 143.923 28.9407C143.869 28.8852 143.839 28.8112 143.838 28.734C143.84 28.7043 143.847 28.6752 143.859 28.6483C143.872 28.6214 143.889 28.5973 143.911 28.5772C143.933 28.5571 143.958 28.5415 143.986 28.5314C144.014 28.5212 144.044 28.5166 144.073 28.5178C144.118 28.5203 144.161 28.5326 144.2 28.5537C144.239 28.5748 144.273 28.6043 144.299 28.64V28.6118ZM145.238 28.0762C145.508 28.3642 145.747 28.679 145.953 29.0158C145.98 29.0716 145.996 29.1323 145.999 29.1944C145.997 29.2575 145.97 29.3173 145.925 29.3611C145.879 29.4049 145.818 29.4293 145.755 29.4293C145.708 29.4279 145.663 29.4142 145.623 29.3894C145.584 29.3646 145.551 29.3297 145.53 29.2883C145.336 28.973 145.116 28.6744 144.872 28.3957C144.82 28.3388 144.791 28.2656 144.787 28.189C144.789 28.1593 144.796 28.1303 144.808 28.1034C144.821 28.0765 144.838 28.0523 144.86 28.0322C144.882 28.0121 144.907 27.9966 144.935 27.9864C144.963 27.9762 144.993 27.9716 145.022 27.9729C145.066 27.9807 145.107 27.9994 145.141 28.0274C145.176 28.0553 145.203 28.0915 145.22 28.1326L145.238 28.0762Z" fill="white"/>
</g>
</g>
<defs>
<clipPath id="clip0_5372_33514">
<rect width="201.667" height="40" fill="white"/>
</clipPath>
<clipPath id="clip1_5372_33514">
<rect width="201.231" height="40" fill="white"/>
</clipPath>
</defs>
</svg>
