<svg width="60" height="63" viewBox="0 0 60 63" fill="none" xmlns="http://www.w3.org/2000/svg">
<g clip-path="url(#clip0_5234_30290)">
<path d="M29.5286 24.9803L25.3244 20.7855L29.5286 16.586L33.7282 20.7855L29.5286 24.9803ZM21.2474 24.8578C20.7794 25.3308 20.5169 25.9693 20.5169 26.6347C20.5169 27.3001 20.7794 27.9386 21.2474 28.4116L23.6747 30.8342L27.8743 26.6347L23.6747 22.4352L21.2474 24.8578ZM21.2474 16.7038L23.6747 19.1312L37.4564 5.34954C35.4177 4.3063 33.1927 3.67678 30.9096 3.49723L21.2474 13.1547C20.7783 13.6271 20.515 14.2659 20.515 14.9316C20.515 15.5974 20.7783 16.2362 21.2474 16.7085V16.7038ZM37.8051 16.7038C38.2732 16.2308 38.5357 15.5923 38.5357 14.9269C38.5357 14.2615 38.2732 13.623 37.8051 13.15L35.3825 10.7274L31.1783 14.9269L35.3825 19.1312L37.8051 16.7038ZM19.5978 30.066C18.69 29.1567 18.1801 27.9243 18.1801 26.6394C18.1801 25.3545 18.69 24.1222 19.5978 23.2129L22.0204 20.7855L19.5978 18.3818C18.69 17.4724 18.1801 16.2401 18.1801 14.9552C18.1801 13.6703 18.69 12.438 19.5978 11.5286L27.5491 3.55379C24.3061 3.92332 21.2333 5.20037 18.6837 7.23817C16.1341 9.27597 14.2112 11.9918 13.136 15.0736C12.0609 18.1553 11.877 21.4779 12.6057 24.6594C13.3344 27.8409 14.946 30.7523 17.2553 33.0589C17.9612 33.7623 18.7259 34.4041 19.5412 34.9772L22.0204 32.4933L19.5978 30.066ZM44.2341 35.4909C41.3257 38.3988 37.6204 40.3791 33.5866 41.1812C29.5529 41.9833 25.3719 41.5713 21.5723 39.9973C17.7727 38.4232 14.5252 35.7579 12.2403 32.3382C9.95548 28.9186 8.73596 24.8982 8.73596 20.7855C8.73596 16.6728 9.95548 12.6524 12.2403 9.23279C14.5252 5.81315 17.7727 3.1478 21.5723 1.57378C25.3719 -0.000233931 29.5529 -0.412234 33.5866 0.38988C37.6204 1.19199 41.3257 3.1722 44.2341 6.0801C46.1721 8.00734 47.7102 10.2987 48.7597 12.8224C49.8092 15.3461 50.3495 18.0523 50.3495 20.7855C50.3495 23.5187 49.8092 26.225 48.7597 28.7487C47.7102 31.2724 46.1721 33.5637 44.2341 35.4909ZM43.2678 7.06989C40.5509 4.35483 37.0899 2.50627 33.3225 1.75791C29.5551 1.00954 25.6504 1.39498 22.102 2.86549C18.5537 4.336 15.5209 6.82555 13.3873 10.0194C11.2536 13.2133 10.1148 16.9681 10.1148 20.8091C10.1148 24.6501 11.2536 28.4049 13.3873 31.5988C15.5209 34.7926 18.5537 37.2822 22.102 38.7527C25.6504 40.2232 29.5551 40.6086 33.3225 39.8603C37.0899 39.1119 40.5509 37.2633 43.2678 34.5483C46.9064 30.9016 48.9499 25.9605 48.9499 20.8091C48.9499 15.6576 46.9064 10.7165 43.2678 7.06989V7.06989ZM41.802 8.53572C41.0969 7.82578 40.3321 7.17769 39.5161 6.59856L37.0322 9.08246L39.4595 11.5098C40.3673 12.4191 40.8771 13.6515 40.8771 14.9363C40.8771 16.2212 40.3673 17.4536 39.4595 18.3629L37.0322 20.7855L39.4595 23.2129C40.3673 24.1222 40.8771 25.3545 40.8771 26.6394C40.8771 27.9243 40.3673 29.1567 39.4595 30.066L31.5082 38.0173C34.7511 37.6477 37.824 36.3707 40.3736 34.3329C42.9232 32.2951 44.8461 29.5792 45.9212 26.4975C46.9964 23.4157 47.1802 20.0932 46.4515 16.9116C45.7229 13.7301 44.1113 10.8187 41.802 8.51215V8.53572ZM37.8051 24.8625L35.3825 22.4399L21.5962 36.2215C23.6363 37.2653 25.863 37.8949 28.1476 38.0738L37.8051 28.4163C38.2754 27.9445 38.5395 27.3056 38.5395 26.6394C38.5395 25.9733 38.2754 25.3343 37.8051 24.8625V24.8625Z" fill="#754639"/>
<path d="M39.9545 21.4642H40.6756V21.7376H39.3748L40.0629 20.9222L40.2279 20.7148C40.2649 20.6663 40.2996 20.616 40.3315 20.564C40.3732 20.5007 40.3976 20.4276 40.4022 20.3519C40.4027 20.3098 40.3945 20.268 40.3783 20.2291C40.3621 20.1902 40.3382 20.155 40.308 20.1257C40.2769 20.0952 40.24 20.0712 40.1996 20.055C40.1591 20.0388 40.1159 20.0308 40.0723 20.0314C39.8744 20.0314 39.7612 20.1492 39.733 20.3802H39.4455C39.4926 19.9701 39.6953 19.7675 40.0629 19.7675C40.1443 19.7651 40.2253 19.7789 40.3014 19.8081C40.3774 19.8372 40.4469 19.881 40.5059 19.9371C40.5641 19.9891 40.6103 20.0532 40.6412 20.1248C40.6721 20.1964 40.6871 20.2739 40.685 20.3519C40.6854 20.4607 40.6578 20.5679 40.6049 20.663C40.5669 20.7287 40.5243 20.7917 40.4777 20.8515C40.4258 20.9222 40.3551 21.0071 40.2703 21.106L39.9545 21.4642Z" fill="white"/>
<path d="M41.0055 20.7384C40.9914 20.4749 41.066 20.2144 41.2176 19.9984C41.271 19.9226 41.3415 19.8605 41.4234 19.8171C41.5053 19.7737 41.5963 19.7502 41.6889 19.7486C41.7818 19.7491 41.8732 19.772 41.9553 19.8155C42.0374 19.859 42.1077 19.9218 42.1603 19.9984C42.3017 20.2237 42.3767 20.4842 42.3767 20.7502C42.3767 21.0161 42.3017 21.2767 42.1603 21.5019C42.1077 21.5785 42.0374 21.6413 41.9553 21.6848C41.8732 21.7283 41.7818 21.7513 41.6889 21.7517C41.5963 21.7501 41.5053 21.7266 41.4234 21.6832C41.3415 21.6398 41.271 21.5777 41.2176 21.5019C41.0643 21.2779 40.9897 21.0094 41.0055 20.7384V20.7384ZM41.293 20.7384C41.2847 20.9237 41.322 21.1081 41.4014 21.2757C41.4219 21.335 41.4604 21.3865 41.5115 21.4229C41.5626 21.4594 41.6238 21.479 41.6866 21.479C41.7493 21.479 41.8105 21.4594 41.8617 21.4229C41.9128 21.3865 41.9513 21.335 41.9717 21.2757C42.0464 21.1097 42.085 20.9298 42.085 20.7478C42.085 20.5658 42.0464 20.3859 41.9717 20.2199C41.9488 20.1623 41.9102 20.1122 41.8602 20.0755C41.8101 20.0389 41.7508 20.017 41.6889 20.0125C41.6265 20.0172 41.5667 20.0391 41.5159 20.0757C41.4652 20.1123 41.4256 20.1622 41.4014 20.2199C41.3316 20.3834 41.3009 20.5609 41.3119 20.7384H41.293Z" fill="white"/>
<path d="M42.707 20.7384C42.6923 20.4742 42.7688 20.213 42.9238 19.9984C42.9746 19.9196 43.0444 19.8548 43.1267 19.81C43.209 19.7651 43.3013 19.7416 43.3951 19.7416C43.4889 19.7416 43.5811 19.7651 43.6635 19.81C43.7458 19.8548 43.8156 19.9196 43.8664 19.9984C44.0078 20.2237 44.0828 20.4842 44.0828 20.7502C44.0828 21.0161 44.0078 21.2767 43.8664 21.502C43.8139 21.5786 43.7436 21.6413 43.6615 21.6848C43.5794 21.7283 43.488 21.7513 43.3951 21.7518C43.3024 21.7501 43.2114 21.7267 43.1295 21.6833C43.0476 21.6399 42.9771 21.5777 42.9238 21.502C42.7668 21.2795 42.6903 21.0102 42.707 20.7384V20.7384ZM42.9945 20.7384C42.9877 20.9241 43.0265 21.1086 43.1076 21.2757C43.13 21.3337 43.1685 21.384 43.2186 21.4208C43.2688 21.4576 43.3284 21.4792 43.3904 21.4831C43.4528 21.4784 43.5126 21.4565 43.5634 21.4199C43.6141 21.3833 43.6537 21.3334 43.6779 21.2757C43.7526 21.1097 43.7912 20.9298 43.7912 20.7478C43.7912 20.5658 43.7526 20.3859 43.6779 20.2199C43.6537 20.1622 43.6141 20.1123 43.5634 20.0757C43.5126 20.0391 43.4528 20.0173 43.3904 20.0126C43.3285 20.0171 43.2692 20.0389 43.2191 20.0756C43.1691 20.1123 43.1305 20.1623 43.1076 20.2199C43.0273 20.3807 42.9884 20.5589 42.9945 20.7384V20.7384Z" fill="white"/>
<path d="M44.7997 21.8036L44.5829 21.6434L45.0542 21.0118H44.9882H44.9458C44.869 21.0119 44.7931 20.9955 44.7232 20.9638C44.6533 20.9321 44.5909 20.8858 44.5404 20.828C44.485 20.7714 44.4414 20.7043 44.4123 20.6307C44.3831 20.557 44.369 20.4783 44.3708 20.3991C44.3664 20.3116 44.3809 20.2241 44.4135 20.1428C44.446 20.0614 44.4958 19.9881 44.5593 19.9277C44.619 19.867 44.6901 19.8188 44.7686 19.7859C44.8471 19.753 44.9314 19.736 45.0165 19.736C45.1016 19.736 45.1859 19.753 45.2644 19.7859C45.3429 19.8188 45.414 19.867 45.4737 19.9277C45.5362 19.9833 45.5862 20.0515 45.6204 20.1279C45.6545 20.2043 45.672 20.2871 45.6716 20.3708C45.6573 20.544 45.5898 20.7087 45.4784 20.8421L44.7997 21.8036ZM44.6488 20.3896C44.647 20.4388 44.6557 20.4878 44.6744 20.5334C44.6931 20.5789 44.7213 20.6199 44.7572 20.6536C44.7908 20.6884 44.831 20.716 44.8756 20.7346C44.9202 20.7533 44.9682 20.7626 45.0165 20.762C45.1138 20.7616 45.2071 20.7226 45.2757 20.6536C45.3097 20.6197 45.3364 20.5792 45.3542 20.5346C45.3721 20.4901 45.3806 20.4423 45.3794 20.3943C45.3809 20.3463 45.3725 20.2985 45.3546 20.2539C45.3368 20.2093 45.3099 20.1689 45.2757 20.1351C45.241 20.1006 45.1998 20.0732 45.1545 20.0546C45.1092 20.036 45.0607 20.0265 45.0118 20.0267C44.9163 20.0291 44.8253 20.0681 44.7578 20.1357C44.6902 20.2032 44.6512 20.2941 44.6488 20.3896V20.3896Z" fill="white"/>
<path d="M28.685 48.8248H33.3983V47.9905H28.685C28.0232 47.9893 27.3878 48.2497 26.9172 48.715C26.4466 49.1802 26.179 49.8127 26.1728 50.4744C26.1735 51.0818 26.3984 51.6676 26.8044 52.1194C27.0368 52.3788 27.3207 52.587 27.638 52.7306C27.9553 52.8742 28.299 52.9502 28.6473 52.9536H30.8908C31.326 52.9536 31.7437 53.1245 32.0541 53.4295C32.3644 53.7346 32.5425 54.1493 32.5499 54.5844C32.5449 55.0266 32.3661 55.449 32.0521 55.7604C31.7381 56.0718 31.3142 56.247 30.872 56.2482H26.1587V57.0824H30.872C31.5354 57.0812 32.1716 56.8181 32.642 56.3503C33.1125 55.8825 33.3792 55.2478 33.3841 54.5844C33.3836 53.9812 33.1584 53.3999 32.7526 52.9536C32.5207 52.6948 32.2376 52.487 31.9211 52.3433C31.6047 52.1997 31.2619 52.1235 30.9144 52.1194H28.6662C28.2286 52.1194 27.809 51.9456 27.4997 51.6362C27.1903 51.3268 27.0165 50.9072 27.0165 50.4697C27.0165 50.0322 27.1903 49.6126 27.4997 49.3032C27.809 48.9939 28.2286 48.8201 28.6662 48.8201L28.685 48.8248Z" fill="#595757"/>
<path d="M0.857816 47.9952H0V57.0872H7.23017V56.2482H0.857816V47.9952Z" fill="#595757"/>
<path d="M11.491 57.0919C10.7247 57.0906 9.99002 56.786 9.4477 56.2446C8.90538 55.7031 8.59954 54.969 8.59705 54.2026V53.3825C8.59705 52.615 8.90194 51.8789 9.44466 51.3362C9.98739 50.7935 10.7235 50.4886 11.491 50.4886C12.2585 50.4886 12.9946 50.7935 13.5373 51.3362C14.0801 51.8789 14.3849 52.615 14.3849 53.3825V54.2026C14.3825 54.969 14.0766 55.7031 13.5343 56.2446C12.992 56.786 12.2573 57.0906 11.491 57.0919ZM11.491 51.3228C11.2203 51.3216 10.9521 51.3738 10.7017 51.4765C10.4513 51.5793 10.2236 51.7304 10.0318 51.9214C9.83998 52.1123 9.68777 52.3393 9.58391 52.5892C9.48004 52.8392 9.42658 53.1072 9.42658 53.3778V54.2026C9.45186 54.73 9.67916 55.2274 10.0613 55.5917C10.4435 55.956 10.9512 56.1592 11.4792 56.1592C12.0072 56.1592 12.5149 55.956 12.8971 55.5917C13.2793 55.2274 13.5066 54.73 13.5318 54.2026V53.3825C13.5319 52.8395 13.3175 52.3185 12.9353 51.9327C12.5531 51.547 12.034 51.3278 11.491 51.3228V51.3228Z" fill="#595757"/>
<path d="M39.0165 57.0919C38.2502 57.0906 37.5155 56.786 36.9732 56.2446C36.4309 55.7031 36.125 54.969 36.1226 54.2026V50.4886H36.9662V54.2026C36.9662 54.7464 37.1822 55.2679 37.5667 55.6524C37.9512 56.0369 38.4727 56.2529 39.0165 56.2529C39.5603 56.2529 40.0818 56.0369 40.4663 55.6524C40.8508 55.2679 41.0668 54.7464 41.0668 54.2026V50.4886H41.9105V54.2026C41.908 54.969 41.6021 55.7031 41.0598 56.2446C40.5175 56.786 39.7828 57.0906 39.0165 57.0919V57.0919Z" fill="#595757"/>
<path d="M45.8177 50.4839H44.9788V57.0919H45.8177V50.4839Z" fill="#595757"/>
<path d="M45.8177 47.9905H44.9788V49.2018H45.8177V47.9905Z" fill="#595757"/>
<path d="M19.4281 50.4839C18.661 50.4851 17.9256 50.7904 17.3832 51.3329C16.8407 51.8753 16.5354 52.6107 16.5342 53.3778V54.2027C16.5354 54.9698 16.8407 55.7052 17.3832 56.2476C17.9256 56.7901 18.661 57.0954 19.4281 57.0966H21.4831V57.3747C21.4819 57.6351 21.3775 57.8845 21.1929 58.0682C21.0083 58.2519 20.7585 58.3551 20.498 58.3551H17.0856V59.1987H20.498C20.9818 59.1987 21.4458 59.0066 21.7878 58.6645C22.1299 58.3224 22.3221 57.8585 22.3221 57.3747V50.4839H19.4281ZM19.4281 56.2482C18.8852 56.2482 18.3644 56.0329 17.98 55.6494C17.5957 55.2659 17.3791 54.7456 17.3779 54.2027V53.3826C17.3779 52.8384 17.5937 52.3164 17.9781 51.9311C18.3624 51.5459 18.8839 51.3288 19.4281 51.3276H21.4831V56.2529L19.4281 56.2482Z" fill="#595757"/>
<path d="M59.5192 57.0919H56.0314C55.5484 57.0906 55.0857 56.8979 54.7446 56.556C54.4036 56.214 54.212 55.7508 54.212 55.2679V52.4399C54.212 51.9195 54.4185 51.4202 54.786 51.0518C55.1536 50.6833 55.6523 50.4757 56.1728 50.4745H58.0345C58.3004 50.4614 58.5662 50.5026 58.8157 50.5953C59.0652 50.6881 59.2933 50.8306 59.4861 51.0142C59.6788 51.1977 59.8323 51.4186 59.9372 51.6632C60.0421 51.9079 60.0962 52.1713 60.0962 52.4375C60.0962 52.7037 60.0421 52.9672 59.9372 53.2119C59.8323 53.4565 59.6788 53.6774 59.4861 53.8609C59.2933 54.0445 59.0652 54.187 58.8157 54.2798C58.5662 54.3725 58.3004 54.4137 58.0345 54.4006H55.051V55.2584C55.051 55.5184 55.1543 55.7678 55.3381 55.9517C55.522 56.1355 55.7714 56.2388 56.0314 56.2388H59.5192V57.0919ZM55.051 53.5711H58.0345C58.332 53.5711 58.6173 53.4529 58.8277 53.2425C59.0381 53.0322 59.1563 52.7468 59.1563 52.4493C59.1563 52.1518 59.0381 51.8665 58.8277 51.6561C58.6173 51.4458 58.332 51.3276 58.0345 51.3276H56.1728C55.8753 51.3276 55.5899 51.4458 55.3796 51.6561C55.1692 51.8665 55.051 52.1518 55.051 52.4493V53.5711Z" fill="#595757"/>
<path d="M51.846 51.3276V50.4839H50.1681V48.3629H49.3291V50.4839H48.1791V51.3276H49.3291V55.2679C49.3291 55.7508 49.5206 56.2141 49.8617 56.556C50.2027 56.8979 50.6655 57.0907 51.1484 57.0919H51.846V56.2482H51.1484C50.8884 56.2482 50.6391 56.1449 50.4552 55.9611C50.2714 55.7772 50.1681 55.5279 50.1681 55.2679V51.3276H51.846Z" fill="#595757"/>
<path d="M30.2592 62.2388C30.2615 62.2614 30.2587 62.2843 30.2509 62.3057C30.2431 62.3271 30.2306 62.3465 30.2143 62.3623C30.198 62.3782 30.1783 62.3902 30.1566 62.3974C30.135 62.4045 30.1121 62.4067 30.0895 62.4037H27.2615C27.239 62.4067 27.216 62.4045 27.1944 62.3974C27.1728 62.3902 27.1531 62.3782 27.1368 62.3623C27.1204 62.3465 27.1079 62.3271 27.1001 62.3057C27.0924 62.2843 27.0895 62.2614 27.0919 62.2388V59.4108C27.0919 59.2977 27.1484 59.2458 27.2615 59.2458H30.0895C30.2026 59.2458 30.2592 59.2977 30.2592 59.4108V62.2388ZM29.9245 62.0738V59.5993H27.4359V62.0738H29.9245Z" fill="#5B5658"/>
<path d="M35.0763 59.5616C34.9911 60.3371 34.6609 61.0653 34.1336 61.6402C33.6587 62.1419 33.0477 62.4941 32.3755 62.6536H32.3284C32.3061 62.6549 32.2837 62.6508 32.2633 62.6418C32.2428 62.6328 32.2247 62.6191 32.2106 62.6017C32.1834 62.5684 32.1685 62.5268 32.1682 62.4839C32.1653 62.4473 32.1764 62.411 32.1991 62.3822C32.2218 62.3534 32.2545 62.3341 32.2907 62.3283C32.8896 62.1788 33.4359 61.8673 33.8697 61.4281C34.3264 60.955 34.6217 60.3495 34.7133 59.6983H33.0778C32.8057 60.1021 32.4661 60.4561 32.0739 60.7447C32.0453 60.7661 32.0106 60.7777 31.9749 60.7777C31.9526 60.7786 31.9304 60.7744 31.91 60.7654C31.8896 60.7564 31.8715 60.7429 31.8571 60.7258C31.8418 60.7103 31.8298 60.6918 31.8217 60.6716C31.8136 60.6514 31.8096 60.6298 31.81 60.608C31.8097 60.5818 31.816 60.556 31.8284 60.5329C31.8407 60.5099 31.8587 60.4903 31.8807 60.476C32.424 60.0941 32.8527 59.5709 33.1202 58.9631C33.1321 58.9317 33.1534 58.9048 33.1813 58.8862C33.2092 58.8676 33.2423 58.8582 33.2758 58.8594C33.3187 58.8597 33.3603 58.8746 33.3936 58.9018C33.4103 58.9154 33.4237 58.9327 33.4327 58.9523C33.4416 58.9719 33.446 58.9933 33.4455 59.0149C33.4131 59.1389 33.3605 59.2567 33.2899 59.3637H34.7699C34.6989 59.2512 34.6218 59.1426 34.5389 59.0385C34.5198 59.0123 34.5084 58.9813 34.5059 58.9489C34.5063 58.9312 34.5103 58.9137 34.5175 58.8975C34.5248 58.8813 34.5353 58.8667 34.5484 58.8547C34.5611 58.8412 34.5765 58.8306 34.5935 58.8233C34.6105 58.816 34.6288 58.8122 34.6473 58.8122C34.668 58.8122 34.6883 58.8173 34.7065 58.8272C34.7246 58.8371 34.7399 58.8514 34.751 58.8688C34.8738 59.0145 34.9812 59.1724 35.0715 59.3401C35.0819 59.3597 35.0873 59.3816 35.0873 59.4037C35.0873 59.4259 35.0819 59.4478 35.0715 59.4674C35.0835 59.4974 35.0852 59.5306 35.0763 59.5616ZM35.6324 59.2788C35.6336 59.298 35.6299 59.3171 35.6216 59.3344C35.6134 59.3517 35.6009 59.3667 35.5853 59.3778C35.5579 59.4019 35.5228 59.4153 35.4863 59.4155C35.4625 59.4166 35.439 59.4103 35.4188 59.3977C35.3986 59.3851 35.3827 59.3667 35.3732 59.3448C35.3308 59.2694 35.2365 59.128 35.0857 58.9159C35.0679 58.8912 35.058 58.8616 35.0574 58.8311C35.0579 58.7961 35.0713 58.7625 35.0951 58.7368C35.1079 58.7234 35.1232 58.7127 35.1402 58.7055C35.1573 58.6982 35.1756 58.6944 35.1941 58.6944C35.2134 58.6953 35.2322 58.7004 35.2493 58.7093C35.2664 58.7183 35.2814 58.7309 35.2931 58.7462C35.4149 58.8916 35.5208 59.0496 35.6089 59.2176C35.6206 59.2363 35.6286 59.2571 35.6324 59.2788V59.2788Z" fill="#5B5658"/>
<path d="M40.2797 62.5074C40.2785 62.552 40.2599 62.5943 40.2278 62.6252C40.2122 62.6405 40.1938 62.6525 40.1736 62.6606C40.1534 62.6687 40.1318 62.6727 40.11 62.6724C40.0862 62.6726 40.0626 62.6671 40.0413 62.6565C40.02 62.6458 40.0016 62.6303 39.9874 62.6111C39.6089 62.1428 39.1927 61.7061 38.7431 61.3055C38.2935 61.8775 37.7133 62.3333 37.0511 62.6347C37.0293 62.6395 37.0068 62.6395 36.9851 62.6347C36.9623 62.6354 36.9397 62.6307 36.9192 62.6208C36.8987 62.611 36.8809 62.5963 36.8672 62.5781C36.8394 62.5452 36.8243 62.5034 36.8248 62.4603C36.8236 62.428 36.8325 62.3961 36.8502 62.3691C36.8679 62.342 36.8937 62.3212 36.9238 62.3095C37.4657 62.055 37.9476 61.6888 38.3378 61.2348C38.7887 60.7419 39.1265 60.1564 39.3276 59.5192H37.282C37.2424 59.5125 37.2065 59.4921 37.1806 59.4615C37.1547 59.4308 37.1405 59.392 37.1405 59.3519C37.1405 59.3118 37.1547 59.273 37.1806 59.2423C37.2065 59.2117 37.2424 59.1912 37.282 59.1846H39.5915C39.7046 59.1846 39.7612 59.2317 39.7612 59.3307C39.7628 59.3511 39.7628 59.3716 39.7612 59.392C39.6194 59.9879 39.3528 60.547 38.9788 61.0322C39.4452 61.4491 39.8771 61.903 40.2702 62.3896C40.287 62.4266 40.2903 62.4682 40.2797 62.5074V62.5074Z" fill="#5B5658"/>
<path d="M44.432 59.1186C44.4287 59.1589 44.4121 59.197 44.3849 59.227C44.0724 59.5508 43.7299 59.8444 43.3621 60.1037V62.5122C43.3652 62.5346 43.3631 62.5574 43.3559 62.5788C43.3488 62.6003 43.3367 62.6198 43.3207 62.6357C43.3047 62.6517 43.2852 62.6638 43.2638 62.671C43.2423 62.6782 43.2195 62.6803 43.1971 62.6771C43.1747 62.6803 43.1519 62.6782 43.1305 62.671C43.109 62.6638 43.0895 62.6517 43.0736 62.6357C43.0576 62.6198 43.0455 62.6003 43.0383 62.5788C43.0311 62.5574 43.029 62.5346 43.0322 62.5122V60.3299C42.5391 60.6489 42.0186 60.9233 41.4768 61.15C41.4552 61.1558 41.4324 61.1558 41.4108 61.15C41.3881 61.1508 41.3655 61.146 41.345 61.1362C41.3244 61.1263 41.3066 61.1117 41.293 61.0935C41.2619 61.0603 41.245 61.0163 41.2458 60.9709C41.2436 60.9378 41.252 60.9049 41.2698 60.8769C41.2876 60.8489 41.3139 60.8274 41.3448 60.8154C42.3906 60.4124 43.3363 59.7868 44.1162 58.9819C44.1306 58.9645 44.1486 58.9504 44.1689 58.9407C44.1893 58.9309 44.2115 58.9257 44.2341 58.9254C44.2569 58.9253 44.2796 58.9299 44.3006 58.9388C44.3217 58.9477 44.3407 58.9607 44.3566 58.9772C44.3801 58.9924 44.3994 59.0134 44.4126 59.0381C44.4258 59.0629 44.4325 59.0906 44.432 59.1186V59.1186Z" fill="#5B5658"/>
<path d="M48.8483 60.6127C48.8492 60.6581 48.8323 60.7021 48.8012 60.7352C48.7828 60.7519 48.7612 60.7647 48.7377 60.7728C48.7142 60.7809 48.6893 60.7841 48.6645 60.7823H45.5491C45.525 60.784 45.5008 60.7807 45.4781 60.7726C45.4554 60.7645 45.4346 60.7518 45.4171 60.7352C45.3847 60.7025 45.3661 60.6587 45.3652 60.6127C45.3664 60.5681 45.385 60.5258 45.4171 60.4948C45.4344 60.4777 45.455 60.4642 45.4777 60.4553C45.5004 60.4464 45.5247 60.4422 45.5491 60.443H48.6645C48.6896 60.4421 48.7146 60.4462 48.7381 60.4551C48.7616 60.464 48.783 60.4775 48.8012 60.4948C48.8165 60.5104 48.8285 60.5288 48.8366 60.549C48.8447 60.5693 48.8487 60.5909 48.8483 60.6127V60.6127Z" fill="#5B5658"/>
<path d="M53.1139 60.9521C53.1118 60.9984 53.0954 61.0429 53.0667 61.0793C53.0526 61.0985 53.0341 61.114 53.0128 61.1247C52.9915 61.1353 52.968 61.1408 52.9442 61.1406C52.9241 61.1456 52.903 61.1456 52.8829 61.1406C52.1936 60.8706 51.4865 60.6485 50.7666 60.476V62.5923C50.7709 62.6149 50.7695 62.6382 50.7627 62.6601C50.7559 62.682 50.7439 62.702 50.7276 62.7182C50.7114 62.7345 50.6914 62.7465 50.6695 62.7533C50.6475 62.7601 50.6243 62.7615 50.6017 62.7573C50.5793 62.7604 50.5565 62.7583 50.535 62.7511C50.5136 62.7439 50.4941 62.7319 50.4781 62.7159C50.4621 62.6999 50.45 62.6804 50.4429 62.659C50.4357 62.6375 50.4336 62.6147 50.4367 62.5923V59.0338C50.4336 59.0114 50.4357 58.9885 50.4429 58.9671C50.45 58.9457 50.4621 58.9262 50.4781 58.9102C50.4941 58.8942 50.5136 58.8821 50.535 58.8749C50.5565 58.8678 50.5793 58.8657 50.6017 58.8688C50.6243 58.8646 50.6475 58.8659 50.6695 58.8727C50.6914 58.8795 50.7114 58.8916 50.7276 58.9078C50.7439 58.9241 50.7559 58.944 50.7627 58.966C50.7695 58.9879 50.7709 59.0112 50.7666 59.0338V60.1272C51.5272 60.3032 52.2752 60.53 53.0054 60.806C53.0366 60.8158 53.0638 60.8353 53.0832 60.8615C53.1027 60.8877 53.1134 60.9194 53.1139 60.9521V60.9521Z" fill="#5B5658"/>
</g>
<defs>
<clipPath id="clip0_5234_30290">
<rect width="60" height="62.7478" fill="white"/>
</clipPath>
</defs>
</svg>
