<svg width="86" height="85" viewBox="0 0 86 85" fill="none" xmlns="http://www.w3.org/2000/svg">
<circle cx="43" cy="42.5" r="41" fill="white" stroke="#8C7D5E" stroke-width="3"/>
<g clip-path="url(#clip0_1365_4793)">
<path d="M53.9731 65.7119C50.3656 65.707 46.9073 64.2714 44.3568 61.72C41.8064 59.1687 40.372 55.7099 40.3683 52.1024C40.3769 48.4981 41.8135 45.0441 44.3634 42.4967C46.9133 39.9494 50.3688 38.5164 53.9731 38.5115C57.5807 38.5152 61.0394 39.9496 63.5908 42.5C66.1421 45.0505 67.5777 48.5088 67.5826 52.1163C67.5753 55.7222 66.1386 59.1782 63.5875 61.7266C61.0364 64.2751 57.5791 65.7082 53.9731 65.7119ZM53.9731 40.8208C50.9818 40.8232 48.1137 42.0126 45.9985 44.1278C43.8834 46.243 42.694 49.1111 42.6915 52.1024C42.694 55.0941 43.8832 57.9627 45.9983 60.0786C48.1133 62.1945 50.9814 63.385 53.9731 63.3887C56.9653 63.385 59.8339 62.1947 61.9497 60.0789C64.0654 57.9631 65.2557 55.0946 65.2594 52.1024C65.252 49.1131 64.06 46.2486 61.9445 44.1365C59.8289 42.0245 56.9625 40.8372 53.9731 40.8347V40.8208Z" fill="#8C7D5E"/>
<path d="M42.2083 37.782H26.0944C25.7863 37.782 25.4908 37.6596 25.273 37.4417C25.0551 37.2239 24.9327 36.9284 24.9327 36.6203V29.0513C24.9327 28.7432 25.0551 28.4477 25.273 28.2299C25.4908 28.012 25.7863 27.8896 26.0944 27.8896H42.2083C42.5164 27.8896 42.8118 28.012 43.0297 28.2299C43.2475 28.4477 43.3699 28.7432 43.3699 29.0513V36.6203C43.3699 36.7729 43.3399 36.924 43.2815 37.0649C43.2231 37.2058 43.1375 37.3339 43.0297 37.4417C42.9218 37.5496 42.7938 37.6352 42.6528 37.6935C42.5119 37.7519 42.3608 37.782 42.2083 37.782ZM27.256 35.4587H41.0467V30.2129H27.256V35.4587Z" fill="#8C7D5E"/>
<path d="M28.3478 44.9329C27.5842 44.9316 26.8522 44.6277 26.3122 44.0877C25.7722 43.5478 25.4683 42.8157 25.467 42.0521C25.4683 41.2884 25.7722 40.5564 26.3122 40.0164C26.8522 39.4764 27.5842 39.1725 28.3478 39.1713C29.1115 39.1725 29.8435 39.4764 30.3835 40.0164C30.9235 40.5564 31.2274 41.2884 31.2287 42.0521C31.2274 42.8157 30.9235 43.5478 30.3835 44.0877C29.8435 44.6277 29.1115 44.9316 28.3478 44.9329V44.9329ZM28.3478 41.0299C28.0771 41.0311 27.8178 41.1392 27.6264 41.3306C27.4349 41.522 27.3268 41.7813 27.3256 42.0521C27.3256 42.3232 27.4333 42.5832 27.625 42.7749C27.8167 42.9666 28.0767 43.0743 28.3478 43.0743C28.619 43.0743 28.879 42.9666 29.0707 42.7749C29.2624 42.5832 29.3701 42.3232 29.3701 42.0521C29.3688 41.7813 29.2608 41.522 29.0693 41.3306C28.8779 41.1392 28.6186 41.0311 28.3478 41.0299V41.0299Z" fill="#8C7D5E"/>
<path d="M39.9548 44.9329C39.1911 44.9316 38.4591 44.6277 37.9191 44.0877C37.3791 43.5478 37.0752 42.8157 37.074 42.0521C37.0752 41.2884 37.3791 40.5564 37.9191 40.0164C38.4591 39.4764 39.1911 39.1725 39.9548 39.1713C40.7184 39.1725 41.4505 39.4764 41.9905 40.0164C42.5305 40.5564 42.8344 41.2884 42.8356 42.0521C42.8344 42.8157 42.5305 43.5478 41.9905 44.0877C41.4505 44.6277 40.7184 44.9316 39.9548 44.9329V44.9329ZM39.9548 41.0299C39.684 41.0311 39.4248 41.1392 39.2333 41.3306C39.0419 41.522 38.9338 41.7813 38.9326 42.0521C38.9326 42.3232 39.0403 42.5832 39.232 42.7749C39.4237 42.9666 39.6837 43.0743 39.9548 43.0743C40.0892 43.0749 40.2224 43.0489 40.3467 42.9977C40.471 42.9466 40.5839 42.8713 40.679 42.7763C40.774 42.6812 40.8493 42.5683 40.9004 42.444C40.9516 42.3197 40.9776 42.1865 40.977 42.0521C40.977 41.781 40.8693 41.5209 40.6776 41.3292C40.4859 41.1375 40.2259 41.0299 39.9548 41.0299V41.0299Z" fill="#8C7D5E"/>
<path d="M45.4654 20H22.8372V22.3232H45.4654V20Z" fill="#8C7D5E"/>
<path d="M30.5062 28.7756L27.9976 31.017L29.2359 32.4029L31.7445 30.1616L30.5062 28.7756Z" fill="#8C7D5E"/>
<path d="M34.1388 28.7773L30.317 32.192L31.5553 33.578L35.3771 30.1633L34.1388 28.7773Z" fill="#8C7D5E"/>
<path d="M25.3751 48.262L23.9535 51.9119L26.1183 52.755L27.5399 49.1051L25.3751 48.262Z" fill="#8C7D5E"/>
<path d="M46.641 54.7742L46.4179 53.7427C46.325 53.3152 46.2042 52.8738 46.0741 52.4045C45.6095 50.6899 45.0705 48.7477 45.8975 46.9263C46.1241 46.3887 46.4684 45.9089 46.905 45.5221C47.3417 45.1353 47.8596 44.8514 48.4206 44.6914C48.9335 44.5542 49.4705 44.5327 49.9928 44.6284C50.5151 44.724 51.0096 44.9343 51.4408 45.2443C52.0519 45.735 52.5357 46.3658 52.8512 47.0832C53.1666 47.8007 53.3044 48.5836 53.2529 49.3657C53.196 50.3142 53.0164 51.2513 52.7185 52.1536C52.6349 52.4417 52.5513 52.7297 52.4769 53.0271L52.305 53.7101H51.6034C50.2518 53.7054 48.9096 53.9333 47.6353 54.3839L46.641 54.7742ZM49.3452 46.4105C49.196 46.4104 49.0475 46.4307 48.9038 46.471C48.6086 46.5632 48.3375 46.7199 48.1101 46.9296C47.8827 47.1393 47.7047 47.3969 47.5888 47.6837V47.6837C47.0406 48.8918 47.4448 50.3554 47.8676 51.898C47.9095 52.0467 47.9466 52.2 47.9884 52.3627C48.9245 52.0977 49.8881 51.9418 50.86 51.898C50.86 51.8097 50.9064 51.7215 50.9343 51.6378C51.1872 50.8863 51.3434 50.1056 51.3989 49.3146C51.4374 48.8373 51.3637 48.3577 51.1838 47.914C51.0039 47.4703 50.7227 47.0748 50.3628 46.759C50.0681 46.5399 49.7124 46.4181 49.3452 46.4105Z" fill="#8C7D5E"/>
<path d="M50.1584 61.3768C49.6671 61.3786 49.1849 61.2452 48.7644 60.9911C47.1614 60.0386 47.0499 58.417 46.9616 57.116C46.9616 56.8325 46.9244 56.5445 46.8919 56.261L46.7804 55.3317L47.7097 55.2295C49.0027 55.0694 50.2845 54.8289 51.5477 54.5093L52.5188 54.277L52.6814 55.262C52.7279 55.5501 52.8069 55.8475 52.8905 56.1634C53.0416 56.6715 53.1443 57.1926 53.1972 57.72V57.72C53.255 58.3551 53.138 58.994 52.8587 59.5673C52.5794 60.1406 52.1485 60.6266 51.6127 60.9725C51.1743 61.2385 50.6711 61.3783 50.1584 61.3768V61.3768ZM48.8248 56.958C48.8226 56.9687 48.8226 56.9798 48.8248 56.9905C48.9085 58.2729 48.9875 58.9606 49.717 59.3927C49.8563 59.4824 50.0195 59.5282 50.1852 59.524C50.3509 59.5199 50.5115 59.4661 50.6462 59.3695C50.8925 59.2078 51.0903 58.9825 51.2187 58.7174C51.3472 58.4524 51.4014 58.1575 51.3757 57.8641C51.3301 57.4498 51.2461 57.0407 51.1248 56.642L51.097 56.5352C50.3628 56.6885 49.6147 56.8418 48.8248 56.958V56.958Z" fill="#8C7D5E"/>
<path d="M61.3099 54.7741L60.3156 54.421C59.0463 53.9704 57.7083 53.744 56.3614 53.7519L55.6552 53.7287L55.474 53.0456C55.3996 52.7483 55.316 52.4602 55.2323 52.1721C54.9345 51.2698 54.7548 50.3327 54.698 49.3842C54.6426 48.6013 54.7762 47.8165 55.0875 47.0961C55.3989 46.3756 55.8788 45.7404 56.4869 45.2442C56.9192 44.933 57.4151 44.7216 57.939 44.6252C58.4629 44.5287 59.0016 44.5497 59.5164 44.6867C60.0816 44.8436 60.6041 45.1261 61.045 45.5131C61.4859 45.9 61.8337 46.3815 62.0627 46.9216V46.9216C62.8897 48.743 62.3554 50.6852 61.8861 52.3998C61.756 52.8644 61.6352 53.3291 61.5422 53.738L61.3099 54.7741ZM57.0909 51.9166C58.0629 51.9596 59.0265 52.1155 59.9625 52.3812C60.0043 52.2325 60.0414 52.0792 60.0833 51.9166C60.5061 50.3739 60.9103 48.9103 60.362 47.7022C60.2462 47.4154 60.0682 47.1578 59.8408 46.9481C59.6134 46.7384 59.3423 46.5818 59.0471 46.4895C58.7978 46.4232 58.5369 46.4138 58.2835 46.4621C58.0301 46.5103 57.7909 46.615 57.5835 46.7683C57.2268 47.0842 56.9484 47.4786 56.7702 47.9205C56.592 48.3623 56.5189 48.8396 56.5566 49.3145C56.6122 50.1055 56.7683 50.8862 57.0212 51.6378C57.0445 51.7353 57.0677 51.8236 57.0909 51.9119V51.9166Z" fill="#8C7D5E"/>
<path d="M57.7925 61.3768C57.2728 61.3739 56.7642 61.2259 56.3242 60.9493C55.7884 60.6034 55.3575 60.1174 55.0782 59.5441C54.7989 58.9707 54.6819 58.3319 54.7398 57.6968V57.6968C54.7943 57.1788 54.897 56.667 55.0464 56.1681C55.1301 55.8521 55.2091 55.5547 55.2555 55.2667L55.4181 54.2816L56.3893 54.5139C57.6523 54.8351 58.9341 55.0772 60.2272 55.2388L61.1565 55.341L61.045 56.2703C61.0125 56.5537 60.9939 56.8418 60.9753 57.1252C60.887 58.4263 60.7755 60.0479 59.1725 61.0004C58.7551 61.2487 58.2781 61.3788 57.7925 61.3768ZM56.5937 57.864C56.5661 58.1557 56.6175 58.4494 56.7426 58.7143C56.8677 58.9792 57.0618 59.2055 57.3046 59.3695C57.4393 59.466 57.6 59.5199 57.7657 59.524C57.9314 59.5282 58.0945 59.4824 58.2339 59.3927C58.9634 58.9606 59.0424 58.2729 59.1307 56.9905V56.958C58.3408 56.8418 57.5927 56.6885 56.8771 56.5305L56.8493 56.642C56.7271 57.0405 56.6431 57.4497 56.5983 57.864H56.5937Z" fill="#8C7D5E"/>
<path d="M39.6341 49.7328H22.7349C22.1418 49.7315 21.5733 49.495 21.1543 49.0752C20.7353 48.6553 20.5 48.0863 20.5 47.4932V27.8804C20.5012 26.7496 20.951 25.6653 21.7507 24.8657C22.5503 24.066 23.6346 23.6162 24.7655 23.615H43.5418C44.6723 23.6162 45.756 24.0662 46.5549 24.866C47.3539 25.6657 47.8026 26.75 47.8026 27.8804V39.1621H45.4794V27.8804C45.4794 27.3661 45.2754 26.8728 44.9122 26.5087C44.5489 26.1446 44.0561 25.9395 43.5418 25.9382H24.7655C24.5104 25.9382 24.2578 25.9885 24.0222 26.0861C23.7866 26.1837 23.5724 26.3267 23.3921 26.5071C23.2117 26.6874 23.0687 26.9015 22.9711 27.1372C22.8735 27.3728 22.8232 27.6254 22.8232 27.8804V47.3956H39.6341V49.7328Z" fill="#8C7D5E"/>
</g>
<defs>
<clipPath id="clip0_1365_4793">
<rect width="47.3939" height="46" fill="white" transform="translate(20.5 20)"/>
</clipPath>
</defs>
</svg>
