<svg width="86" height="85" viewBox="0 0 86 85" fill="none" xmlns="http://www.w3.org/2000/svg">
<circle cx="42.5" cy="42.5" r="41" fill="white" stroke="#8C7D5E" stroke-width="3"/>
<path d="M67.2659 39.9091H62.6474C62.11 39.9091 61.6531 40.3646 61.6531 40.9034V47.7178V58.4991V60.982C61.9846 60.6505 62.316 60.3191 62.6474 59.9877H59.4505H51.7738H42.4897H34.4921C33.1976 59.9877 31.8809 59.9176 30.5878 59.9877C30.5698 59.9881 30.5513 59.9877 30.5328 59.9877L31.5272 60.982V54.1675V43.3863V40.9034C31.5272 40.366 31.0717 39.9091 30.5328 39.9091H25.9144C26.0816 39.9541 26.2492 40 26.4163 40.045C26.3997 40.0331 26.3827 40.0218 26.3661 40.01C26.5186 40.3845 26.671 40.7585 26.823 41.1331C26.8278 41.1132 26.833 41.0933 26.8377 41.0734C26.752 41.2197 26.6673 41.3655 26.582 41.5123C27.8533 40.4186 29.1247 39.3248 30.3964 38.2306C32.0408 36.8158 33.6848 35.4015 35.3297 33.9863C36.0986 33.3248 36.868 32.6624 37.6369 32.0009C39.5423 30.3618 41.448 28.7225 43.3528 27.0829C44.6422 25.974 45.9812 24.9025 47.2292 23.7471C47.2495 23.7286 47.2709 23.7111 47.2922 23.6926H45.8863C47.0899 24.7282 48.293 25.7637 49.4971 26.7987C51.3039 28.3531 53.1112 29.908 54.919 31.4626C55.9961 32.3892 57.0729 33.3158 58.149 34.243C59.2626 35.2013 60.3763 36.1587 61.4899 37.1165C63.1551 38.5488 64.8204 39.9816 66.4851 41.4139C66.523 41.4465 66.56 41.4783 66.5978 41.5105C66.5121 41.3642 66.4274 41.2183 66.3421 41.0715C66.3469 41.0914 66.3521 41.1113 66.3568 41.1312C66.5093 40.7567 66.6617 40.3826 66.8137 40.0081C66.7972 40.0199 66.7801 40.0313 66.7635 40.0431C66.3232 40.3495 66.1205 40.9143 66.407 41.4035C66.6617 41.8391 67.3246 42.0683 67.7674 41.76C67.7839 41.7482 67.801 41.7368 67.8176 41.725C68.1907 41.4651 68.3876 41.056 68.2745 40.6019C68.1769 40.2113 67.9217 40.0332 67.6428 39.7932C67.2915 39.4911 66.9402 39.1885 66.5884 38.8864C65.6159 38.0498 64.6428 37.2126 63.6703 36.376C62.3772 35.2629 61.0832 34.1502 59.7891 33.038C58.7744 32.1649 57.7603 31.2908 56.7451 30.4177C55.0519 28.9612 53.3597 27.5049 51.6669 26.0489C50.2337 24.8159 48.8085 23.5715 47.3663 22.3495C47.3417 22.3282 47.3171 22.3069 47.2929 22.286C46.8621 21.9153 46.3204 21.9129 45.8871 22.286C44.8 23.2211 43.7125 24.1573 42.6253 25.0928C40.6779 26.7684 38.7304 28.4437 36.7825 30.1194C35.8961 30.8817 35.0098 31.6445 34.1238 32.4068C32.621 33.6998 31.1177 34.9925 29.6149 36.286C28.6764 37.0933 27.7375 37.9006 26.7991 38.7088C26.2773 39.1577 25.7267 39.5867 25.2281 40.0606C25.0709 40.2097 24.9601 40.3854 24.9052 40.6037C24.791 41.0615 24.9899 41.4673 25.3621 41.7268C25.6897 41.955 26.1476 41.8977 26.5283 41.8977H28.1253H30.5335C30.202 41.5663 29.8706 41.2348 29.5392 40.9034V47.7178V58.499V60.9819C29.5392 61.5193 29.9946 61.9763 30.5335 61.9763H33.7304H41.4071H50.6912H58.6888C59.988 61.9763 61.2939 62.0146 62.5931 61.9763C62.6116 61.9758 62.6296 61.9763 62.648 61.9763C63.1855 61.9763 63.6424 61.5208 63.6424 60.9819V54.1675V43.3863V40.9034L62.648 41.8977H67.2665C67.7868 41.8977 68.2845 41.4403 68.2608 40.9034C68.2352 40.3646 67.8223 39.9091 67.2655 39.9091L67.2659 39.9091Z" fill="#8C7D5E"/>
<path d="M67.2659 39.9091H62.6474C62.11 39.9091 61.6531 40.3646 61.6531 40.9034V47.7178V58.4991V60.982C61.9846 60.6505 62.316 60.3191 62.6474 59.9877H59.4505H51.7738H42.4897H34.4921C33.1976 59.9877 31.8809 59.9176 30.5878 59.9877C30.5698 59.9881 30.5513 59.9877 30.5328 59.9877L31.5272 60.982V54.1675V43.3863V40.9034C31.5272 40.366 31.0717 39.9091 30.5328 39.9091H25.9144C26.0816 39.9541 26.2492 40 26.4163 40.045C26.3997 40.0331 26.3827 40.0218 26.3661 40.01C26.5186 40.3845 26.671 40.7585 26.823 41.1331C26.8278 41.1132 26.833 41.0933 26.8377 41.0734C26.752 41.2197 26.6673 41.3655 26.582 41.5123C27.8533 40.4186 29.1247 39.3248 30.3964 38.2306C32.0408 36.8158 33.6848 35.4015 35.3297 33.9863C36.0986 33.3248 36.868 32.6624 37.6369 32.0009C39.5423 30.3618 41.448 28.7225 43.3528 27.0829C44.6422 25.974 45.9812 24.9025 47.2292 23.7471C47.2495 23.7286 47.2709 23.7111 47.2922 23.6926H45.8863C47.0899 24.7282 48.293 25.7637 49.4971 26.7987C51.3039 28.3531 53.1112 29.908 54.919 31.4626C55.9961 32.3892 57.0729 33.3158 58.149 34.243C59.2626 35.2013 60.3763 36.1587 61.4899 37.1165C63.1551 38.5488 64.8204 39.9816 66.4851 41.4139C66.523 41.4465 66.56 41.4783 66.5978 41.5105C66.5121 41.3642 66.4274 41.2183 66.3421 41.0715C66.3469 41.0914 66.3521 41.1113 66.3568 41.1312C66.5093 40.7567 66.6617 40.3826 66.8137 40.0081C66.7972 40.0199 66.7801 40.0313 66.7635 40.0431C66.3232 40.3495 66.1205 40.9143 66.407 41.4035C66.6617 41.8391 67.3246 42.0683 67.7674 41.76C67.7839 41.7482 67.801 41.7368 67.8176 41.725C68.1907 41.4651 68.3876 41.056 68.2745 40.6019C68.1769 40.2113 67.9217 40.0332 67.6428 39.7932C67.2915 39.4911 66.9402 39.1885 66.5884 38.8864C65.6159 38.0498 64.6428 37.2126 63.6703 36.376C62.3772 35.2629 61.0832 34.1502 59.7891 33.038C58.7744 32.1649 57.7603 31.2908 56.7451 30.4177C55.0519 28.9612 53.3597 27.5049 51.6669 26.0489C50.2337 24.8159 48.8085 23.5715 47.3663 22.3495C47.3417 22.3282 47.3171 22.3069 47.2929 22.286C46.8621 21.9153 46.3204 21.9129 45.8871 22.286C44.8 23.2211 43.7125 24.1573 42.6253 25.0928C40.6779 26.7684 38.7304 28.4437 36.7825 30.1194C35.8961 30.8817 35.0098 31.6445 34.1238 32.4068C32.621 33.6998 31.1177 34.9925 29.6149 36.286C28.6764 37.0933 27.7375 37.9006 26.7991 38.7088C26.2773 39.1577 25.7267 39.5867 25.2281 40.0606C25.0709 40.2097 24.9601 40.3854 24.9052 40.6037C24.791 41.0615 24.9899 41.4673 25.3621 41.7268C25.6897 41.955 26.1476 41.8977 26.5283 41.8977H28.1253H30.5335C30.202 41.5663 29.8706 41.2348 29.5392 40.9034V47.7178V58.499V60.9819C29.5392 61.5193 29.9946 61.9763 30.5335 61.9763H33.7304H41.4071H50.6912H58.6888C59.988 61.9763 61.2939 62.0146 62.5931 61.9763C62.6116 61.9758 62.6296 61.9763 62.648 61.9763C63.1855 61.9763 63.6424 61.5208 63.6424 60.9819V54.1675V43.3863V40.9034L62.648 41.8977H67.2665C67.7868 41.8977 68.2845 41.4403 68.2608 40.9034C68.2352 40.3646 67.8223 39.9091 67.2655 39.9091L67.2659 39.9091Z" fill="#8C7D5E"/>
<path d="M67.2659 39.9091H62.6474C62.11 39.9091 61.6531 40.3646 61.6531 40.9034V47.7178V58.4991V60.982C61.9846 60.6505 62.316 60.3191 62.6474 59.9877H59.4505H51.7738H42.4897H34.4921C33.1976 59.9877 31.8809 59.9176 30.5878 59.9877C30.5698 59.9881 30.5513 59.9877 30.5328 59.9877L31.5272 60.982V54.1675V43.3863V40.9034C31.5272 40.366 31.0717 39.9091 30.5328 39.9091H25.9144C26.0816 39.9541 26.2492 40 26.4163 40.045C26.3997 40.0331 26.3827 40.0218 26.3661 40.01C26.5186 40.3845 26.671 40.7585 26.823 41.1331C26.8278 41.1132 26.833 41.0933 26.8377 41.0734C26.752 41.2197 26.6673 41.3655 26.582 41.5123C27.8533 40.4186 29.1247 39.3248 30.3964 38.2306C32.0408 36.8158 33.6848 35.4015 35.3297 33.9863C36.0986 33.3248 36.868 32.6624 37.6369 32.0009C39.5423 30.3618 41.448 28.7225 43.3528 27.0829C44.6422 25.974 45.9812 24.9025 47.2292 23.7471C47.2495 23.7286 47.2709 23.7111 47.2922 23.6926H45.8863C47.0899 24.7282 48.293 25.7637 49.4971 26.7987C51.3039 28.3531 53.1112 29.908 54.919 31.4626C55.9961 32.3892 57.0729 33.3158 58.149 34.243C59.2626 35.2013 60.3763 36.1587 61.4899 37.1165C63.1551 38.5488 64.8204 39.9816 66.4851 41.4139C66.523 41.4465 66.56 41.4783 66.5978 41.5105C66.5121 41.3642 66.4274 41.2183 66.3421 41.0715C66.3469 41.0914 66.3521 41.1113 66.3568 41.1312C66.5093 40.7567 66.6617 40.3826 66.8137 40.0081C66.7972 40.0199 66.7801 40.0313 66.7635 40.0431C66.3232 40.3495 66.1205 40.9143 66.407 41.4035C66.6617 41.8391 67.3246 42.0683 67.7674 41.76C67.7839 41.7482 67.801 41.7368 67.8176 41.725C68.1907 41.4651 68.3876 41.056 68.2745 40.6019C68.1769 40.2113 67.9217 40.0332 67.6428 39.7932C67.2915 39.4911 66.9402 39.1885 66.5884 38.8864C65.6159 38.0498 64.6428 37.2126 63.6703 36.376C62.3772 35.2629 61.0832 34.1502 59.7891 33.038C58.7744 32.1649 57.7603 31.2908 56.7451 30.4177C55.0519 28.9612 53.3597 27.5049 51.6669 26.0489C50.2337 24.8159 48.8085 23.5715 47.3663 22.3495C47.3417 22.3282 47.3171 22.3069 47.2929 22.286C46.8621 21.9153 46.3204 21.9129 45.8871 22.286C44.8 23.2211 43.7125 24.1573 42.6253 25.0928C40.6779 26.7684 38.7304 28.4437 36.7825 30.1194C35.8961 30.8817 35.0098 31.6445 34.1238 32.4068C32.621 33.6998 31.1177 34.9925 29.6149 36.286C28.6764 37.0933 27.7375 37.9006 26.7991 38.7088C26.2773 39.1577 25.7267 39.5867 25.2281 40.0606C25.0709 40.2097 24.9601 40.3854 24.9052 40.6037C24.791 41.0615 24.9899 41.4673 25.3621 41.7268C25.6897 41.955 26.1476 41.8977 26.5283 41.8977H28.1253H30.5335C30.202 41.5663 29.8706 41.2348 29.5392 40.9034V47.7178V58.499V60.9819C29.5392 61.5193 29.9946 61.9763 30.5335 61.9763H33.7304H41.4071H50.6912H58.6888C59.988 61.9763 61.2939 62.0146 62.5931 61.9763C62.6116 61.9758 62.6296 61.9763 62.648 61.9763C63.1855 61.9763 63.6424 61.5208 63.6424 60.9819V54.1675V43.3863V40.9034L62.648 41.8977H67.2665C67.7868 41.8977 68.2845 41.4403 68.2608 40.9034C68.2352 40.3646 67.8223 39.9091 67.2655 39.9091L67.2659 39.9091Z" stroke="#8C7D5E" stroke-width="0.6"/>
<path d="M67.2659 39.9091H62.6474C62.11 39.9091 61.6531 40.3646 61.6531 40.9034V47.7178V58.4991V60.982C61.9846 60.6505 62.316 60.3191 62.6474 59.9877H59.4505H51.7738H42.4897H34.4921C33.1976 59.9877 31.8809 59.9176 30.5878 59.9877C30.5698 59.9881 30.5513 59.9877 30.5328 59.9877L31.5272 60.982V54.1675V43.3863V40.9034C31.5272 40.366 31.0717 39.9091 30.5328 39.9091H25.9144C26.0816 39.9541 26.2492 40 26.4163 40.045C26.3997 40.0331 26.3827 40.0218 26.3661 40.01C26.5186 40.3845 26.671 40.7585 26.823 41.1331C26.8278 41.1132 26.833 41.0933 26.8377 41.0734C26.752 41.2197 26.6673 41.3655 26.582 41.5123C27.8533 40.4186 29.1247 39.3248 30.3964 38.2306C32.0408 36.8158 33.6848 35.4015 35.3297 33.9863C36.0986 33.3248 36.868 32.6624 37.6369 32.0009C39.5423 30.3618 41.448 28.7225 43.3528 27.0829C44.6422 25.974 45.9812 24.9025 47.2292 23.7471C47.2495 23.7286 47.2709 23.7111 47.2922 23.6926H45.8863C47.0899 24.7282 48.293 25.7637 49.4971 26.7987C51.3039 28.3531 53.1112 29.908 54.919 31.4626C55.9961 32.3892 57.0729 33.3158 58.149 34.243C59.2626 35.2013 60.3763 36.1587 61.4899 37.1165C63.1551 38.5488 64.8204 39.9816 66.4851 41.4139C66.523 41.4465 66.56 41.4783 66.5978 41.5105C66.5121 41.3642 66.4274 41.2183 66.3421 41.0715C66.3469 41.0914 66.3521 41.1113 66.3568 41.1312C66.5093 40.7567 66.6617 40.3826 66.8137 40.0081C66.7972 40.0199 66.7801 40.0313 66.7635 40.0431C66.3232 40.3495 66.1205 40.9143 66.407 41.4035C66.6617 41.8391 67.3246 42.0683 67.7674 41.76C67.7839 41.7482 67.801 41.7368 67.8176 41.725C68.1907 41.4651 68.3876 41.056 68.2745 40.6019C68.1769 40.2113 67.9217 40.0332 67.6428 39.7932C67.2915 39.4911 66.9402 39.1885 66.5884 38.8864C65.6159 38.0498 64.6428 37.2126 63.6703 36.376C62.3772 35.2629 61.0832 34.1502 59.7891 33.038C58.7744 32.1649 57.7603 31.2908 56.7451 30.4177C55.0519 28.9612 53.3597 27.5049 51.6669 26.0489C50.2337 24.8159 48.8085 23.5715 47.3663 22.3495C47.3417 22.3282 47.3171 22.3069 47.2929 22.286C46.8621 21.9153 46.3204 21.9129 45.8871 22.286C44.8 23.2211 43.7125 24.1573 42.6253 25.0928C40.6779 26.7684 38.7304 28.4437 36.7825 30.1194C35.8961 30.8817 35.0098 31.6445 34.1238 32.4068C32.621 33.6998 31.1177 34.9925 29.6149 36.286C28.6764 37.0933 27.7375 37.9006 26.7991 38.7088C26.2773 39.1577 25.7267 39.5867 25.2281 40.0606C25.0709 40.2097 24.9601 40.3854 24.9052 40.6037C24.791 41.0615 24.9899 41.4673 25.3621 41.7268C25.6897 41.955 26.1476 41.8977 26.5283 41.8977H28.1253H30.5335C30.202 41.5663 29.8706 41.2348 29.5392 40.9034V47.7178V58.499V60.9819C29.5392 61.5193 29.9946 61.9763 30.5335 61.9763H33.7304H41.4071H50.6912H58.6888C59.988 61.9763 61.2939 62.0146 62.5931 61.9763C62.6116 61.9758 62.6296 61.9763 62.648 61.9763C63.1855 61.9763 63.6424 61.5208 63.6424 60.9819V54.1675V43.3863V40.9034L62.648 41.8977H67.2665C67.7868 41.8977 68.2845 41.4403 68.2608 40.9034C68.2352 40.3646 67.8223 39.9091 67.2655 39.9091L67.2659 39.9091Z" stroke="#8C7D5E" stroke-width="0.6"/>
<path d="M51.7663 44.7039H46.7881H43.2464C42.6451 44.7039 42.0333 44.6708 41.433 44.7039C40.6768 44.7451 40.1404 45.2844 40.119 46.0435C40.1143 46.2144 40.119 46.3863 40.119 46.5572V48.9336V56.1476C40.119 57.7323 40.0797 59.3228 40.119 60.9076C40.1195 60.9322 40.119 60.9573 40.119 60.9819C40.119 61.5194 40.5745 61.9763 41.1133 61.9763H50.6886H52.0655C52.6029 61.9763 53.0598 61.5208 53.0598 60.9819V55.6439V47.4725C53.0598 46.5629 53.3056 44.9109 52.0305 44.7395C51.5172 44.6704 50.9372 44.8622 50.8074 45.4341C50.7014 45.9 50.9504 46.5828 51.502 46.6572C51.6166 46.6723 51.7312 46.6875 51.8463 46.7036C51.6791 46.6586 51.5115 46.6127 51.3444 46.5677C51.3955 46.5814 51.4391 46.6074 51.4765 46.6444C51.3576 46.5255 51.2383 46.4062 51.1199 46.2878C51.1569 46.3248 51.1829 46.3693 51.1966 46.4199C51.1516 46.2528 51.1057 46.0852 51.0607 45.918C51.1275 46.4152 51.0712 46.9517 51.0712 47.4521V51.0199V59.1165V60.982C51.4026 60.6506 51.734 60.3192 52.0655 59.9877H42.4902H41.1133L42.1076 60.982V57.1753V50.011V47.2142V46.3605C42.1076 46.2549 42.1356 46.1057 42.1076 46.003C42.146 46.1441 41.1431 46.6431 41.4732 46.6929C41.5541 46.7047 41.6455 46.6929 41.727 46.6929H42.7549H46.0281C47.9041 46.6929 49.7838 46.7288 51.6593 46.6929C51.6943 46.6924 51.7294 46.6929 51.7653 46.6929C52.2857 46.6929 52.7833 46.2355 52.7597 45.6985C52.7369 45.1592 52.3241 44.7042 51.7663 44.7042L51.7663 44.7039Z" fill="#8C7D5E"/>
<path d="M51.7663 44.7039H46.7881H43.2464C42.6451 44.7039 42.0333 44.6708 41.433 44.7039C40.6768 44.7451 40.1404 45.2844 40.119 46.0435C40.1143 46.2144 40.119 46.3863 40.119 46.5572V48.9336V56.1476C40.119 57.7323 40.0797 59.3228 40.119 60.9076C40.1195 60.9322 40.119 60.9573 40.119 60.9819C40.119 61.5194 40.5745 61.9763 41.1133 61.9763H50.6886H52.0655C52.6029 61.9763 53.0598 61.5208 53.0598 60.9819V55.6439V47.4725C53.0598 46.5629 53.3056 44.9109 52.0305 44.7395C51.5172 44.6704 50.9372 44.8622 50.8074 45.4341C50.7014 45.9 50.9504 46.5828 51.502 46.6572C51.6166 46.6723 51.7312 46.6875 51.8463 46.7036C51.6791 46.6586 51.5115 46.6127 51.3444 46.5677C51.3955 46.5814 51.4391 46.6074 51.4765 46.6444C51.3576 46.5255 51.2383 46.4062 51.1199 46.2878C51.1569 46.3248 51.1829 46.3693 51.1966 46.4199C51.1516 46.2528 51.1057 46.0852 51.0607 45.918C51.1275 46.4152 51.0712 46.9517 51.0712 47.4521V51.0199V59.1165V60.982C51.4026 60.6506 51.734 60.3192 52.0655 59.9877H42.4902H41.1133L42.1076 60.982V57.1753V50.011V47.2142V46.3605C42.1076 46.2549 42.1356 46.1057 42.1076 46.003C42.146 46.1441 41.1431 46.6431 41.4732 46.6929C41.5541 46.7047 41.6455 46.6929 41.727 46.6929H42.7549H46.0281C47.9041 46.6929 49.7838 46.7288 51.6593 46.6929C51.6943 46.6924 51.7294 46.6929 51.7653 46.6929C52.2857 46.6929 52.7833 46.2355 52.7597 45.6985C52.7369 45.1592 52.3241 44.7042 51.7663 44.7042L51.7663 44.7039Z" fill="#8C7D5E"/>
<path d="M51.7663 44.7039H46.7881H43.2464C42.6451 44.7039 42.0333 44.6708 41.433 44.7039C40.6768 44.7451 40.1404 45.2844 40.119 46.0435C40.1143 46.2144 40.119 46.3863 40.119 46.5572V48.9336V56.1476C40.119 57.7323 40.0797 59.3228 40.119 60.9076C40.1195 60.9322 40.119 60.9573 40.119 60.9819C40.119 61.5194 40.5745 61.9763 41.1133 61.9763H50.6886H52.0655C52.6029 61.9763 53.0598 61.5208 53.0598 60.9819V55.6439V47.4725C53.0598 46.5629 53.3056 44.9109 52.0305 44.7395C51.5172 44.6704 50.9372 44.8622 50.8074 45.4341C50.7014 45.9 50.9504 46.5828 51.502 46.6572C51.6166 46.6723 51.7312 46.6875 51.8463 46.7036C51.6791 46.6586 51.5115 46.6127 51.3444 46.5677C51.3955 46.5814 51.4391 46.6074 51.4765 46.6444C51.3576 46.5255 51.2383 46.4062 51.1199 46.2878C51.1569 46.3248 51.1829 46.3693 51.1966 46.4199C51.1516 46.2528 51.1057 46.0852 51.0607 45.918C51.1275 46.4152 51.0712 46.9517 51.0712 47.4521V51.0199V59.1165V60.982C51.4026 60.6506 51.734 60.3192 52.0655 59.9877H42.4902H41.1133L42.1076 60.982V57.1753V50.011V47.2142V46.3605C42.1076 46.2549 42.1356 46.1057 42.1076 46.003C42.146 46.1441 41.1431 46.6431 41.4732 46.6929C41.5541 46.7047 41.6455 46.6929 41.727 46.6929H42.7549H46.0281C47.9041 46.6929 49.7838 46.7288 51.6593 46.6929C51.6943 46.6924 51.7294 46.6929 51.7653 46.6929C52.2857 46.6929 52.7833 46.2355 52.7597 45.6985C52.7369 45.1592 52.3241 44.7042 51.7663 44.7042L51.7663 44.7039Z" stroke="#8C7D5E" stroke-width="0.6"/>
<path d="M51.7663 44.7039H46.7881H43.2464C42.6451 44.7039 42.0333 44.6708 41.433 44.7039C40.6768 44.7451 40.1404 45.2844 40.119 46.0435C40.1143 46.2144 40.119 46.3863 40.119 46.5572V48.9336V56.1476C40.119 57.7323 40.0797 59.3228 40.119 60.9076C40.1195 60.9322 40.119 60.9573 40.119 60.9819C40.119 61.5194 40.5745 61.9763 41.1133 61.9763H50.6886H52.0655C52.6029 61.9763 53.0598 61.5208 53.0598 60.9819V55.6439V47.4725C53.0598 46.5629 53.3056 44.9109 52.0305 44.7395C51.5172 44.6704 50.9372 44.8622 50.8074 45.4341C50.7014 45.9 50.9504 46.5828 51.502 46.6572C51.6166 46.6723 51.7312 46.6875 51.8463 46.7036C51.6791 46.6586 51.5115 46.6127 51.3444 46.5677C51.3955 46.5814 51.4391 46.6074 51.4765 46.6444C51.3576 46.5255 51.2383 46.4062 51.1199 46.2878C51.1569 46.3248 51.1829 46.3693 51.1966 46.4199C51.1516 46.2528 51.1057 46.0852 51.0607 45.918C51.1275 46.4152 51.0712 46.9517 51.0712 47.4521V51.0199V59.1165V60.982C51.4026 60.6506 51.734 60.3192 52.0655 59.9877H42.4902H41.1133L42.1076 60.982V57.1753V50.011V47.2142V46.3605C42.1076 46.2549 42.1356 46.1057 42.1076 46.003C42.146 46.1441 41.1431 46.6431 41.4732 46.6929C41.5541 46.7047 41.6455 46.6929 41.727 46.6929H42.7549H46.0281C47.9041 46.6929 49.7838 46.7288 51.6593 46.6929C51.6943 46.6924 51.7294 46.6929 51.7653 46.6929C52.2857 46.6929 52.7833 46.2355 52.7597 45.6985C52.7369 45.1592 52.3241 44.7042 51.7663 44.7042L51.7663 44.7039Z" stroke="#8C7D5E" stroke-width="0.6"/>
<path d="M59.9508 27.1078V34.3252V35.3389C60.5171 35.104 61.0824 34.8701 61.6483 34.6358C60.3505 33.5188 59.0517 32.4018 57.7539 31.2849C57.5668 31.1244 57.3798 30.9634 57.1937 30.8029C57.2903 31.0377 57.3879 31.2716 57.4849 31.506V27.1078C57.3883 27.3426 57.2908 27.5765 57.1937 27.8109C57.1951 27.8095 57.1966 27.8081 57.1985 27.8062C56.9636 27.9028 56.7297 28.0003 56.4953 28.0974H60.9414C60.7065 28.0008 60.4726 27.9032 60.2383 27.8062C60.2397 27.8076 60.2411 27.809 60.243 27.8109C60.6227 28.1907 61.269 28.1907 61.6488 27.8109C62.03 27.4298 62.03 26.7854 61.6488 26.4051C61.244 26.0003 60.5238 26.1096 59.9978 26.1096H57.8482C57.4027 26.1096 56.9519 26.0902 56.5064 26.1096C55.8928 26.1362 55.5173 26.5789 55.496 27.1703C55.4889 27.362 55.496 27.5552 55.496 27.747C55.496 28.9714 55.4567 30.203 55.496 31.4264C55.513 31.9628 55.7715 32.1958 56.1262 32.5016C56.5897 32.8998 57.0523 33.2985 57.5154 33.6967C58.424 34.4789 59.3331 35.2606 60.2417 36.0428C60.8747 36.5878 61.9391 36.2469 61.9391 35.3397V28.1223V27.1086C61.9391 26.5882 61.4818 26.0906 60.9448 26.1143C60.4065 26.1379 59.951 26.5504 59.951 27.1076L59.9508 27.1078Z" fill="#8C7D5E"/>
<path d="M59.9508 27.1078V34.3252V35.3389C60.5171 35.104 61.0824 34.8701 61.6483 34.6358C60.3505 33.5188 59.0517 32.4018 57.7539 31.2849C57.5668 31.1244 57.3798 30.9634 57.1937 30.8029C57.2903 31.0377 57.3879 31.2716 57.4849 31.506V27.1078C57.3883 27.3426 57.2908 27.5765 57.1937 27.8109C57.1951 27.8095 57.1966 27.8081 57.1985 27.8062C56.9636 27.9028 56.7297 28.0003 56.4953 28.0974H60.9414C60.7065 28.0008 60.4726 27.9032 60.2383 27.8062C60.2397 27.8076 60.2411 27.809 60.243 27.8109C60.6227 28.1907 61.269 28.1907 61.6488 27.8109C62.03 27.4298 62.03 26.7854 61.6488 26.4051C61.244 26.0003 60.5238 26.1096 59.9978 26.1096H57.8482C57.4027 26.1096 56.9519 26.0902 56.5064 26.1096C55.8928 26.1362 55.5173 26.5789 55.496 27.1703C55.4889 27.362 55.496 27.5552 55.496 27.747C55.496 28.9714 55.4567 30.203 55.496 31.4264C55.513 31.9628 55.7715 32.1958 56.1262 32.5016C56.5897 32.8998 57.0523 33.2985 57.5154 33.6967C58.424 34.4789 59.3331 35.2606 60.2417 36.0428C60.8747 36.5878 61.9391 36.2469 61.9391 35.3397V28.1223V27.1086C61.9391 26.5882 61.4818 26.0906 60.9448 26.1143C60.4065 26.1379 59.951 26.5504 59.951 27.1076L59.9508 27.1078Z" fill="#8C7D5E"/>
<path d="M59.9508 27.1078V34.3252V35.3389C60.5171 35.104 61.0824 34.8701 61.6483 34.6358C60.3505 33.5188 59.0517 32.4018 57.7539 31.2849C57.5668 31.1244 57.3798 30.9634 57.1937 30.8029C57.2903 31.0377 57.3879 31.2716 57.4849 31.506V27.1078C57.3883 27.3426 57.2908 27.5765 57.1937 27.8109C57.1951 27.8095 57.1966 27.8081 57.1985 27.8062C56.9636 27.9028 56.7297 28.0003 56.4953 28.0974H60.9414C60.7065 28.0008 60.4726 27.9032 60.2383 27.8062C60.2397 27.8076 60.2411 27.809 60.243 27.8109C60.6227 28.1907 61.269 28.1907 61.6488 27.8109C62.03 27.4298 62.03 26.7854 61.6488 26.4051C61.244 26.0003 60.5238 26.1096 59.9978 26.1096H57.8482C57.4027 26.1096 56.9519 26.0902 56.5064 26.1096C55.8928 26.1362 55.5173 26.5789 55.496 27.1703C55.4889 27.362 55.496 27.5552 55.496 27.747C55.496 28.9714 55.4567 30.203 55.496 31.4264C55.513 31.9628 55.7715 32.1958 56.1262 32.5016C56.5897 32.8998 57.0523 33.2985 57.5154 33.6967C58.424 34.4789 59.3331 35.2606 60.2417 36.0428C60.8747 36.5878 61.9391 36.2469 61.9391 35.3397V28.1223V27.1086C61.9391 26.5882 61.4818 26.0906 60.9448 26.1143C60.4065 26.1379 59.951 26.5504 59.951 27.1076L59.9508 27.1078Z" stroke="#8C7D5E" stroke-width="0.6"/>
<path d="M59.9508 27.1078V34.3252V35.3389C60.5171 35.104 61.0824 34.8701 61.6483 34.6358C60.3505 33.5188 59.0517 32.4018 57.7539 31.2849C57.5668 31.1244 57.3798 30.9634 57.1937 30.8029C57.2903 31.0377 57.3879 31.2716 57.4849 31.506V27.1078C57.3883 27.3426 57.2908 27.5765 57.1937 27.8109C57.1951 27.8095 57.1966 27.8081 57.1985 27.8062C56.9636 27.9028 56.7297 28.0003 56.4953 28.0974H60.9414C60.7065 28.0008 60.4726 27.9032 60.2383 27.8062C60.2397 27.8076 60.2411 27.809 60.243 27.8109C60.6227 28.1907 61.269 28.1907 61.6488 27.8109C62.03 27.4298 62.03 26.7854 61.6488 26.4051C61.244 26.0003 60.5238 26.1096 59.9978 26.1096H57.8482C57.4027 26.1096 56.9519 26.0902 56.5064 26.1096C55.8928 26.1362 55.5173 26.5789 55.496 27.1703C55.4889 27.362 55.496 27.5552 55.496 27.747C55.496 28.9714 55.4567 30.203 55.496 31.4264C55.513 31.9628 55.7715 32.1958 56.1262 32.5016C56.5897 32.8998 57.0523 33.2985 57.5154 33.6967C58.424 34.4789 59.3331 35.2606 60.2417 36.0428C60.8747 36.5878 61.9391 36.2469 61.9391 35.3397V28.1223V27.1086C61.9391 26.5882 61.4818 26.0906 60.9448 26.1143C60.4065 26.1379 59.951 26.5504 59.951 27.1076L59.9508 27.1078Z" stroke="#8C7D5E" stroke-width="0.6"/>
<path d="M25.9141 41.8971H30.5325L29.5382 40.9028V46.6944V55.9169V58.0215C29.8696 57.6901 30.2011 57.3586 30.5325 57.0272H25.2622H16.8536H14.9127C15.2442 57.3587 15.5756 57.6901 15.9071 58.0215V52.4884V43.6802V41.6731C15.9071 41.1357 15.4516 40.6787 14.9127 40.6787H11.1514C11.3185 40.7237 11.4862 40.7697 11.6533 40.8146C11.6396 40.8052 11.6263 40.7952 11.6121 40.7862C11.7646 41.1607 11.917 41.5348 12.069 41.9093C12.0728 41.8932 12.0771 41.8767 12.0818 41.861C11.9961 42.0073 11.9113 42.1532 11.8261 42.3C13.7314 40.6608 15.6363 39.022 17.5415 37.3829C20.5594 34.7863 23.5785 32.1892 26.5964 29.5926C27.2943 28.9922 27.9923 28.3923 28.6897 27.7915H27.2839C29.2996 29.5254 31.3147 31.2597 33.3308 32.9937C33.622 33.2441 33.9128 33.4946 34.2039 33.7446V32.3388C33.1684 33.2299 32.1329 34.12 31.0979 35.0107C29.469 36.4113 27.8413 37.8127 26.2124 39.2133C25.7844 39.5817 25.0505 40.0187 24.9047 40.604C24.7906 41.0618 24.9894 41.4676 25.3616 41.7271C25.3781 41.7389 25.3952 41.7503 25.4118 41.7621C25.8526 42.0689 26.5159 41.8431 26.7721 41.4056C27.0619 40.9103 26.8578 40.353 26.4156 40.0452C26.399 40.0334 26.382 40.022 26.3654 40.0102C26.5179 40.3847 26.6703 40.7588 26.8223 41.1333C26.8271 41.1134 26.8323 41.0935 26.837 41.0736C26.7513 41.2199 26.6665 41.3658 26.5813 41.5126C27.6007 40.6357 28.6201 39.7587 29.6391 38.8814C31.2551 37.4912 32.8711 36.1007 34.4876 34.7105C34.8617 34.389 35.2362 34.067 35.6098 33.7455C35.9961 33.4136 35.9947 32.6712 35.6098 32.3397C33.5941 30.6058 31.579 28.8715 29.5629 27.1376C29.2717 26.8871 28.9809 26.6366 28.6898 26.3866C28.2589 26.0159 27.7172 26.0135 27.2839 26.3866C25.363 28.0391 23.4421 29.6916 21.5207 31.3449C18.4842 33.9571 15.4473 36.5697 12.4113 39.182C11.9208 39.6034 11.4308 40.0257 10.9402 40.4476C10.6239 40.7193 10.2607 40.9518 10.1518 41.3827C10.0358 41.8405 10.238 42.2463 10.6087 42.5058C10.9018 42.7108 11.282 42.6701 11.6215 42.6701H12.934H14.9127C14.5812 42.3387 14.2498 42.0072 13.9184 41.6758V47.2089V56.0171V58.0243C13.9184 58.5617 14.3739 59.0186 14.9127 59.0186H20.183H28.5916H30.5324C31.0698 59.0186 31.5268 58.5631 31.5268 58.0243V52.2326V43.0101V40.9055C31.5268 40.3681 31.0713 39.9112 30.5324 39.9112H25.914C25.3936 39.9112 24.896 40.3685 24.9197 40.9055C24.9438 41.441 25.3567 41.897 25.914 41.897L25.9141 41.8971Z" fill="#8C7D5E"/>
<path d="M25.9141 41.8971H30.5325L29.5382 40.9028V46.6944V55.9169V58.0215C29.8696 57.6901 30.2011 57.3586 30.5325 57.0272H25.2622H16.8536H14.9127C15.2442 57.3587 15.5756 57.6901 15.9071 58.0215V52.4884V43.6802V41.6731C15.9071 41.1357 15.4516 40.6787 14.9127 40.6787H11.1514C11.3185 40.7237 11.4862 40.7697 11.6533 40.8146C11.6396 40.8052 11.6263 40.7952 11.6121 40.7862C11.7646 41.1607 11.917 41.5348 12.069 41.9093C12.0728 41.8932 12.0771 41.8767 12.0818 41.861C11.9961 42.0073 11.9113 42.1532 11.8261 42.3C13.7314 40.6608 15.6363 39.022 17.5415 37.3829C20.5594 34.7863 23.5785 32.1892 26.5964 29.5926C27.2943 28.9922 27.9923 28.3923 28.6897 27.7915H27.2839C29.2996 29.5254 31.3147 31.2597 33.3308 32.9937C33.622 33.2441 33.9128 33.4946 34.2039 33.7446V32.3388C33.1684 33.2299 32.1329 34.12 31.0979 35.0107C29.469 36.4113 27.8413 37.8127 26.2124 39.2133C25.7844 39.5817 25.0505 40.0187 24.9047 40.604C24.7906 41.0618 24.9894 41.4676 25.3616 41.7271C25.3781 41.7389 25.3952 41.7503 25.4118 41.7621C25.8526 42.0689 26.5159 41.8431 26.7721 41.4056C27.0619 40.9103 26.8578 40.353 26.4156 40.0452C26.399 40.0334 26.382 40.022 26.3654 40.0102C26.5179 40.3847 26.6703 40.7588 26.8223 41.1333C26.8271 41.1134 26.8323 41.0935 26.837 41.0736C26.7513 41.2199 26.6665 41.3658 26.5813 41.5126C27.6007 40.6357 28.6201 39.7587 29.6391 38.8814C31.2551 37.4912 32.8711 36.1007 34.4876 34.7105C34.8617 34.389 35.2362 34.067 35.6098 33.7455C35.9961 33.4136 35.9947 32.6712 35.6098 32.3397C33.5941 30.6058 31.579 28.8715 29.5629 27.1376C29.2717 26.8871 28.9809 26.6366 28.6898 26.3866C28.2589 26.0159 27.7172 26.0135 27.2839 26.3866C25.363 28.0391 23.4421 29.6916 21.5207 31.3449C18.4842 33.9571 15.4473 36.5697 12.4113 39.182C11.9208 39.6034 11.4308 40.0257 10.9402 40.4476C10.6239 40.7193 10.2607 40.9518 10.1518 41.3827C10.0358 41.8405 10.238 42.2463 10.6087 42.5058C10.9018 42.7108 11.282 42.6701 11.6215 42.6701H12.934H14.9127C14.5812 42.3387 14.2498 42.0072 13.9184 41.6758V47.2089V56.0171V58.0243C13.9184 58.5617 14.3739 59.0186 14.9127 59.0186H20.183H28.5916H30.5324C31.0698 59.0186 31.5268 58.5631 31.5268 58.0243V52.2326V43.0101V40.9055C31.5268 40.3681 31.0713 39.9112 30.5324 39.9112H25.914C25.3936 39.9112 24.896 40.3685 24.9197 40.9055C24.9438 41.441 25.3567 41.897 25.914 41.897L25.9141 41.8971Z" fill="#8C7D5E"/>
<path d="M25.9141 41.8971H30.5325L29.5382 40.9028V46.6944V55.9169V58.0215C29.8696 57.6901 30.2011 57.3586 30.5325 57.0272H25.2622H16.8536H14.9127C15.2442 57.3587 15.5756 57.6901 15.9071 58.0215V52.4884V43.6802V41.6731C15.9071 41.1357 15.4516 40.6787 14.9127 40.6787H11.1514C11.3185 40.7237 11.4862 40.7697 11.6533 40.8146C11.6396 40.8052 11.6263 40.7952 11.6121 40.7862C11.7646 41.1607 11.917 41.5348 12.069 41.9093C12.0728 41.8932 12.0771 41.8767 12.0818 41.861C11.9961 42.0073 11.9113 42.1532 11.8261 42.3C13.7314 40.6608 15.6363 39.022 17.5415 37.3829C20.5594 34.7863 23.5785 32.1892 26.5964 29.5926C27.2943 28.9922 27.9923 28.3923 28.6897 27.7915H27.2839C29.2996 29.5254 31.3147 31.2597 33.3308 32.9937C33.622 33.2441 33.9128 33.4946 34.2039 33.7446V32.3388C33.1684 33.2299 32.1329 34.12 31.0979 35.0107C29.469 36.4113 27.8413 37.8127 26.2124 39.2133C25.7844 39.5817 25.0505 40.0187 24.9047 40.604C24.7906 41.0618 24.9894 41.4676 25.3616 41.7271C25.3781 41.7389 25.3952 41.7503 25.4118 41.7621C25.8526 42.0689 26.5159 41.8431 26.7721 41.4056C27.0619 40.9103 26.8578 40.353 26.4156 40.0452C26.399 40.0334 26.382 40.022 26.3654 40.0102C26.5179 40.3847 26.6703 40.7588 26.8223 41.1333C26.8271 41.1134 26.8323 41.0935 26.837 41.0736C26.7513 41.2199 26.6665 41.3658 26.5813 41.5126C27.6007 40.6357 28.6201 39.7587 29.6391 38.8814C31.2551 37.4912 32.8711 36.1007 34.4876 34.7105C34.8617 34.389 35.2362 34.067 35.6098 33.7455C35.9961 33.4136 35.9947 32.6712 35.6098 32.3397C33.5941 30.6058 31.579 28.8715 29.5629 27.1376C29.2717 26.8871 28.9809 26.6366 28.6898 26.3866C28.2589 26.0159 27.7172 26.0135 27.2839 26.3866C25.363 28.0391 23.4421 29.6916 21.5207 31.3449C18.4842 33.9571 15.4473 36.5697 12.4113 39.182C11.9208 39.6034 11.4308 40.0257 10.9402 40.4476C10.6239 40.7193 10.2607 40.9518 10.1518 41.3827C10.0358 41.8405 10.238 42.2463 10.6087 42.5058C10.9018 42.7108 11.282 42.6701 11.6215 42.6701H12.934H14.9127C14.5812 42.3387 14.2498 42.0072 13.9184 41.6758V47.2089V56.0171V58.0243C13.9184 58.5617 14.3739 59.0186 14.9127 59.0186H20.183H28.5916H30.5324C31.0698 59.0186 31.5268 58.5631 31.5268 58.0243V52.2326V43.0101V40.9055C31.5268 40.3681 31.0713 39.9112 30.5324 39.9112H25.914C25.3936 39.9112 24.896 40.3685 24.9197 40.9055C24.9438 41.441 25.3567 41.897 25.914 41.897L25.9141 41.8971Z" stroke="#8C7D5E" stroke-width="0.6"/>
<path d="M25.9141 41.8971H30.5325L29.5382 40.9028V46.6944V55.9169V58.0215C29.8696 57.6901 30.2011 57.3586 30.5325 57.0272H25.2622H16.8536H14.9127C15.2442 57.3587 15.5756 57.6901 15.9071 58.0215V52.4884V43.6802V41.6731C15.9071 41.1357 15.4516 40.6787 14.9127 40.6787H11.1514C11.3185 40.7237 11.4862 40.7697 11.6533 40.8146C11.6396 40.8052 11.6263 40.7952 11.6121 40.7862C11.7646 41.1607 11.917 41.5348 12.069 41.9093C12.0728 41.8932 12.0771 41.8767 12.0818 41.861C11.9961 42.0073 11.9113 42.1532 11.8261 42.3C13.7314 40.6608 15.6363 39.022 17.5415 37.3829C20.5594 34.7863 23.5785 32.1892 26.5964 29.5926C27.2943 28.9922 27.9923 28.3923 28.6897 27.7915H27.2839C29.2996 29.5254 31.3147 31.2597 33.3308 32.9937C33.622 33.2441 33.9128 33.4946 34.2039 33.7446V32.3388C33.1684 33.2299 32.1329 34.12 31.0979 35.0107C29.469 36.4113 27.8413 37.8127 26.2124 39.2133C25.7844 39.5817 25.0505 40.0187 24.9047 40.604C24.7906 41.0618 24.9894 41.4676 25.3616 41.7271C25.3781 41.7389 25.3952 41.7503 25.4118 41.7621C25.8526 42.0689 26.5159 41.8431 26.7721 41.4056C27.0619 40.9103 26.8578 40.353 26.4156 40.0452C26.399 40.0334 26.382 40.022 26.3654 40.0102C26.5179 40.3847 26.6703 40.7588 26.8223 41.1333C26.8271 41.1134 26.8323 41.0935 26.837 41.0736C26.7513 41.2199 26.6665 41.3658 26.5813 41.5126C27.6007 40.6357 28.6201 39.7587 29.6391 38.8814C31.2551 37.4912 32.8711 36.1007 34.4876 34.7105C34.8617 34.389 35.2362 34.067 35.6098 33.7455C35.9961 33.4136 35.9947 32.6712 35.6098 32.3397C33.5941 30.6058 31.579 28.8715 29.5629 27.1376C29.2717 26.8871 28.9809 26.6366 28.6898 26.3866C28.2589 26.0159 27.7172 26.0135 27.2839 26.3866C25.363 28.0391 23.4421 29.6916 21.5207 31.3449C18.4842 33.9571 15.4473 36.5697 12.4113 39.182C11.9208 39.6034 11.4308 40.0257 10.9402 40.4476C10.6239 40.7193 10.2607 40.9518 10.1518 41.3827C10.0358 41.8405 10.238 42.2463 10.6087 42.5058C10.9018 42.7108 11.282 42.6701 11.6215 42.6701H12.934H14.9127C14.5812 42.3387 14.2498 42.0072 13.9184 41.6758V47.2089V56.0171V58.0243C13.9184 58.5617 14.3739 59.0186 14.9127 59.0186H20.183H28.5916H30.5324C31.0698 59.0186 31.5268 58.5631 31.5268 58.0243V52.2326V43.0101V40.9055C31.5268 40.3681 31.0713 39.9112 30.5324 39.9112H25.914C25.3936 39.9112 24.896 40.3685 24.9197 40.9055C24.9438 41.441 25.3567 41.897 25.914 41.897L25.9141 41.8971Z" stroke="#8C7D5E" stroke-width="0.6"/>
</svg>
