<svg width="86" height="85" viewBox="0 0 86 85" fill="none" xmlns="http://www.w3.org/2000/svg">
<circle cx="42.5" cy="42.5" r="41" fill="white" stroke="#8C7D5E" stroke-width="3"/>
<g clip-path="url(#clip0_1428_4754)">
<path d="M57.668 20H25.5388V22.2415H57.668V20Z" fill="#8C7D5E"/>
<path d="M57.668 20H25.5388V22.2415H57.668V20Z" fill="#8C7D5E"/>
<path d="M62.7068 45.1223H20.5V40.2628H62.7068V45.1223ZM22.7415 42.8809H60.4653V42.5043H22.7415V42.8809Z" fill="#8C7D5E"/>
<path d="M62.7068 45.1223H20.5V40.2628H62.7068V45.1223ZM22.7415 42.8809H60.4653V42.5043H22.7415V42.8809Z" fill="#8C7D5E"/>
<path d="M62.7068 64H20.5V59.1405H62.7068V64ZM22.7415 61.7585H60.4653V61.382H22.7415V61.7585Z" fill="#8C7D5E"/>
<path d="M62.7068 64H20.5V59.1405H62.7068V64ZM22.7415 61.7585H60.4653V61.382H22.7415V61.7585Z" fill="#8C7D5E"/>
<path d="M57.6635 41.3837H55.4221V25.8413H27.7803V41.3837H25.5388V23.5999H57.6635V41.3837Z" fill="#8C7D5E"/>
<path d="M57.6635 41.3837H55.4221V25.8413H27.7803V41.3837H25.5388V23.5999H57.6635V41.3837Z" fill="#8C7D5E"/>
<path d="M42.7219 27.621H40.4804V41.0967H42.7219V27.621Z" fill="#8C7D5E"/>
<path d="M42.7219 27.621H40.4804V41.0967H42.7219V27.621Z" fill="#8C7D5E"/>
<path d="M23.3781 43.9972H21.1366V59.9789H23.3781V43.9972Z" fill="#8C7D5E"/>
<path d="M23.3781 43.9972H21.1366V59.9789H23.3781V43.9972Z" fill="#8C7D5E"/>
<path d="M31.1156 43.9972H28.8741V59.9789H31.1156V43.9972Z" fill="#8C7D5E"/>
<path d="M31.1156 43.9972H28.8741V59.9789H31.1156V43.9972Z" fill="#8C7D5E"/>
<path d="M38.8532 43.9972H36.6117V59.9789H38.8532V43.9972Z" fill="#8C7D5E"/>
<path d="M38.8532 43.9972H36.6117V59.9789H38.8532V43.9972Z" fill="#8C7D5E"/>
<path d="M46.5907 43.9972H44.3492V59.9789H46.5907V43.9972Z" fill="#8C7D5E"/>
<path d="M46.5907 43.9972H44.3492V59.9789H46.5907V43.9972Z" fill="#8C7D5E"/>
<path d="M62.0703 43.9972H59.8288V59.9789H62.0703V43.9972Z" fill="#8C7D5E"/>
<path d="M62.0703 43.9972H59.8288V59.9789H62.0703V43.9972Z" fill="#8C7D5E"/>
<path d="M54.3282 43.9972H52.0867V59.9789H54.3282V43.9972Z" fill="#8C7D5E"/>
<path d="M54.3282 43.9972H52.0867V59.9789H54.3282V43.9972Z" fill="#8C7D5E"/>
<path d="M34.1269 27.2284L32.1221 29.8995L33.9148 31.245L35.9196 28.5739L34.1269 27.2284Z" fill="#8C7D5E"/>
<path d="M34.1269 27.2284L32.1221 29.8995L33.9148 31.245L35.9196 28.5739L34.1269 27.2284Z" fill="#8C7D5E"/>
<path d="M37.3851 27.2303L33.9379 31.8232L35.7306 33.1688L39.1778 28.5759L37.3851 27.2303Z" fill="#8C7D5E"/>
<path d="M37.3851 27.2303L33.9379 31.8232L35.7306 33.1688L39.1778 28.5759L37.3851 27.2303Z" fill="#8C7D5E"/>
<path d="M54.3193 41.3836H52.0778V28.7417H31.129V41.3836H28.8876V26.5048H54.3193V41.3836Z" fill="#8C7D5E"/>
<path d="M54.3193 41.3836H52.0778V28.7417H31.129V41.3836H28.8876V26.5048H54.3193V41.3836Z" fill="#8C7D5E"/>
</g>
<defs>
<clipPath id="clip0_1428_4754">
<rect width="42.2023" height="44" fill="white" transform="translate(20.5 20)"/>
</clipPath>
</defs>
</svg>
