<svg width="86" height="85" viewBox="0 0 86 85" fill="none" xmlns="http://www.w3.org/2000/svg">
<circle cx="42.5" cy="42.5" r="41" fill="white" stroke="#8C7D5E" stroke-width="3"/>
<path d="M31.7287 41.2712L33.8144 45.0997C32.0858 49.8569 29.0573 58.5997 29.0287 58.6855C28.7149 59.5667 28.7608 60.536 29.1565 61.3836C29.5522 62.2312 30.2659 62.8888 31.143 63.214C31.5147 63.3451 31.9059 63.4127 32.3001 63.414C32.8844 63.4017 33.4553 63.237 33.9564 62.9364C34.4575 62.6357 34.8714 62.2094 35.1573 61.6997C35.3053 61.8883 35.4729 62.0607 35.6573 62.214C36.6408 62.9827 37.8675 63.373 39.1144 63.314H54.5001C55.6329 63.3905 56.7666 63.1792 57.7957 62.6996C58.8248 62.22 59.7159 61.4878 60.3858 60.5712C60.9716 59.6157 61.3371 58.5416 61.4557 57.4271C61.5743 56.3126 61.4431 55.1857 61.0715 54.1283C63.4287 51.4997 66.5573 46.7997 65.143 41.4855C64.8858 40.3712 64.3573 39.7569 63.5715 39.6569C63.1497 39.6376 62.7323 39.7495 62.3767 39.9772C62.0211 40.2049 61.7448 40.5372 61.5858 40.9283L61.4858 41.114C60.2805 43.499 58.6928 45.6706 56.7858 47.5426C54.2715 44.3283 49.5287 38.114 45.8001 33.2569L44.4715 31.8283L44.6001 31.7426L43.9287 30.6855L38.2144 23.0855C37.9474 22.6308 37.527 22.2863 37.0287 22.114C36.7521 22.021 36.4598 21.9843 36.1688 22.0061C35.8778 22.0279 35.5942 22.1077 35.3346 22.2408C35.0749 22.374 34.8446 22.5577 34.6571 22.7813C34.4696 23.0049 34.3288 23.2637 34.243 23.5426L33.7287 24.6855C33.6145 24.9129 33.4316 25.0988 33.206 25.2167C32.9805 25.3346 32.7235 25.3787 32.4715 25.3426L22.7858 23.0997C22.3824 22.9999 21.9607 22.9999 21.5573 23.0997C20.9464 23.2587 20.4207 23.6479 20.0905 24.1859C19.7602 24.7239 19.6511 25.3688 19.7858 25.9855L20.5144 30.3855C20.6678 31.1771 21.0414 31.9093 21.5923 32.4981C22.1432 33.0869 22.849 33.5084 23.6287 33.714L24.0715 33.7997C23.8752 34.159 23.7724 34.5618 23.7724 34.9712C23.7724 35.3806 23.8752 35.7834 24.0715 36.1426C24.4368 36.8224 24.9431 37.4163 25.5566 37.8844C26.1701 38.3525 26.8766 38.6841 27.6287 38.8569L28.3001 38.9855L30.543 40.414L31.7287 41.2712ZM38.2144 55.3712L38.5715 54.6426C38.5575 54.871 38.5575 55.1 38.5715 55.3283L38.2144 55.3712ZM55.7573 50.0569L56.5001 50.9997L57.4287 50.2569C59.7156 48.3118 61.6071 45.945 63.0001 43.2855C63.443 47.3712 60.6144 51.0426 58.7144 52.9569L58.1715 53.5283L58.4573 54.2712C58.8285 55.0414 59.0105 55.8891 58.9882 56.7439C58.9658 57.5986 58.7397 58.4357 58.3287 59.1855C57.8731 59.7713 57.2764 60.2319 56.5943 60.5242C55.9122 60.8165 55.1671 60.931 54.4287 60.8569H39.1144C38.4319 60.9112 37.7526 60.7185 37.2001 60.314C37.0672 60.2054 36.9607 60.0679 36.8889 59.9119C36.8171 59.756 36.7819 59.5857 36.7858 59.414C36.7858 58.5712 37.7001 57.714 39.4287 57.714H40.8573V55.4712C40.8839 54.8469 41.1262 54.2511 41.543 53.7855L42.1858 53.0569L38.9287 48.2997L33.2144 60.1426C33.1144 60.3855 32.7144 61.1855 31.9144 60.8997C31.6422 60.7979 31.4213 60.5925 31.3001 60.3283C31.2435 60.1975 31.2143 60.0565 31.2143 59.914C31.2143 59.7715 31.2435 59.6305 31.3001 59.4997C31.3001 59.414 34.6287 49.914 36.2858 45.3569L36.5144 44.7569C36.5144 44.7569 33.1287 36.9855 30.3144 36.9855L28.7287 36.5997L28.0573 36.4712C27.3427 36.278 26.7231 35.8311 26.3144 35.214L29.1715 35.2997C29.743 35.2997 31.043 35.2997 31.2001 34.1426C31.3573 32.9855 30.0573 32.6426 29.5001 32.514L24.143 31.2712C23.8359 31.1783 23.5584 31.0069 23.3379 30.7739C23.1175 30.5408 22.9616 30.2543 22.8858 29.9426L22.2573 25.5569L31.8715 27.7712C32.6711 27.9344 33.5024 27.8212 34.2292 27.45C34.956 27.0789 35.5351 26.4718 35.8715 25.7283L36.3287 24.7426L41.2858 31.2712L57.1001 51.2712" fill="#8C7D5E"/>
<path d="M31.7287 41.2712L33.8144 45.0997C32.0858 49.8569 29.0573 58.5997 29.0287 58.6855C28.7149 59.5667 28.7608 60.536 29.1565 61.3836C29.5522 62.2312 30.2659 62.8888 31.143 63.214C31.5147 63.3451 31.9059 63.4127 32.3001 63.414C32.8844 63.4017 33.4553 63.237 33.9564 62.9364C34.4575 62.6357 34.8714 62.2094 35.1573 61.6997C35.3053 61.8883 35.4729 62.0607 35.6573 62.214C36.6408 62.9827 37.8675 63.373 39.1144 63.314H54.5001C55.6329 63.3905 56.7666 63.1792 57.7957 62.6996C58.8248 62.22 59.7159 61.4878 60.3858 60.5712C60.9716 59.6157 61.3371 58.5416 61.4557 57.4271C61.5743 56.3126 61.4431 55.1857 61.0715 54.1283C63.4287 51.4997 66.5573 46.7997 65.143 41.4855C64.8858 40.3712 64.3573 39.7569 63.5715 39.6569C63.1497 39.6376 62.7323 39.7495 62.3767 39.9772C62.0211 40.2049 61.7448 40.5372 61.5858 40.9283L61.4858 41.114C60.2805 43.499 58.6928 45.6706 56.7858 47.5426C54.2715 44.3283 49.5287 38.114 45.8001 33.2569L44.4715 31.8283L44.6001 31.7426L43.9287 30.6855L38.2144 23.0855C37.9474 22.6308 37.527 22.2863 37.0287 22.114C36.7521 22.021 36.4598 21.9843 36.1688 22.0061C35.8778 22.0279 35.5942 22.1077 35.3346 22.2408C35.0749 22.374 34.8446 22.5577 34.6571 22.7813C34.4696 23.0049 34.3288 23.2637 34.243 23.5426L33.7287 24.6855C33.6145 24.9129 33.4316 25.0988 33.206 25.2167C32.9805 25.3346 32.7235 25.3787 32.4715 25.3426L22.7858 23.0997C22.3824 22.9999 21.9607 22.9999 21.5573 23.0997C20.9464 23.2587 20.4207 23.6479 20.0905 24.1859C19.7602 24.7239 19.6511 25.3688 19.7858 25.9855L20.5144 30.3855C20.6678 31.1771 21.0414 31.9093 21.5923 32.4981C22.1432 33.0869 22.849 33.5084 23.6287 33.714L24.0715 33.7997C23.8752 34.159 23.7724 34.5618 23.7724 34.9712C23.7724 35.3806 23.8752 35.7834 24.0715 36.1426C24.4368 36.8224 24.9431 37.4163 25.5566 37.8844C26.1701 38.3525 26.8766 38.6841 27.6287 38.8569L28.3001 38.9855L30.543 40.414L31.7287 41.2712ZM38.2144 55.3712L38.5715 54.6426C38.5575 54.871 38.5575 55.1 38.5715 55.3283L38.2144 55.3712ZM55.7573 50.0569L56.5001 50.9997L57.4287 50.2569C59.7156 48.3118 61.6071 45.945 63.0001 43.2855C63.443 47.3712 60.6144 51.0426 58.7144 52.9569L58.1715 53.5283L58.4573 54.2712C58.8285 55.0414 59.0105 55.8891 58.9882 56.7439C58.9658 57.5986 58.7397 58.4357 58.3287 59.1855C57.8731 59.7713 57.2764 60.2319 56.5943 60.5242C55.9122 60.8165 55.1671 60.931 54.4287 60.8569H39.1144C38.4319 60.9112 37.7526 60.7185 37.2001 60.314C37.0672 60.2054 36.9607 60.0679 36.8889 59.9119C36.8171 59.756 36.7819 59.5857 36.7858 59.414C36.7858 58.5712 37.7001 57.714 39.4287 57.714H40.8573V55.4712C40.8839 54.8469 41.1262 54.2511 41.543 53.7855L42.1858 53.0569L38.9287 48.2997L33.2144 60.1426C33.1144 60.3855 32.7144 61.1855 31.9144 60.8997C31.6422 60.7979 31.4213 60.5925 31.3001 60.3283C31.2435 60.1975 31.2143 60.0565 31.2143 59.914C31.2143 59.7715 31.2435 59.6305 31.3001 59.4997C31.3001 59.414 34.6287 49.914 36.2858 45.3569L36.5144 44.7569C36.5144 44.7569 33.1287 36.9855 30.3144 36.9855L28.7287 36.5997L28.0573 36.4712C27.3427 36.278 26.7231 35.8311 26.3144 35.214L29.1715 35.2997C29.743 35.2997 31.043 35.2997 31.2001 34.1426C31.3573 32.9855 30.0573 32.6426 29.5001 32.514L24.143 31.2712C23.8359 31.1783 23.5584 31.0069 23.3379 30.7739C23.1175 30.5408 22.9616 30.2543 22.8858 29.9426L22.2573 25.5569L31.8715 27.7712C32.6711 27.9344 33.5024 27.8212 34.2292 27.45C34.956 27.0789 35.5351 26.4718 35.8715 25.7283L36.3287 24.7426L41.2858 31.2712L57.1001 51.2712" fill="#8C7D5E"/>
<path d="M33.243 42.7433L31.5144 40.4719L42.6858 31.6719L44.4144 33.9433L33.243 42.7433Z" fill="#8C7D5E"/>
<path d="M33.243 42.7433L31.5144 40.4719L42.6858 31.6719L44.4144 33.9433L33.243 42.7433Z" fill="#8C7D5E"/>
</svg>
