<svg width="86" height="85" viewBox="0 0 86 85" fill="none" xmlns="http://www.w3.org/2000/svg">
<circle cx="42.5" cy="42.5" r="41" fill="white" stroke="#8C7D5E" stroke-width="3"/>
<g clip-path="url(#clip0_1428_4634)">
<path d="M64.2098 38.2077L42.2284 24.2576L20.247 38.2077L19 36.244L42.2284 21.5029L65.4569 36.244L64.2098 38.2077Z" fill="#8C7D5E"/>
<path d="M64.2098 38.2077L42.2284 24.2576L20.247 38.2077L19 36.244L42.2284 21.5029L65.4569 36.244L64.2098 38.2077Z" fill="#8C7D5E"/>
<path d="M64.2098 42.4746L42.2284 28.5246L20.247 42.4746L19 40.511L42.2284 25.7699L65.4569 40.511L64.2098 42.4746Z" fill="#8C7D5E"/>
<path d="M64.2098 42.4746L42.2284 28.5246L20.247 42.4746L19 40.511L42.2284 25.7699L65.4569 40.511L64.2098 42.4746Z" fill="#8C7D5E"/>
<path d="M62.0555 64H22.4015V39.0918H24.7281V61.6734H59.7289V39.0918H62.0555V64Z" fill="#8C7D5E"/>
<path d="M62.0555 64H22.4015V39.0918H24.7281V61.6734H59.7289V39.0918H62.0555V64Z" fill="#8C7D5E"/>
<path d="M26.5706 33.2056H24.244V20H33.5922V28.3617H31.2656V22.3266H26.5706V33.2056Z" fill="#8C7D5E"/>
<path d="M26.5706 33.2056H24.244V20H33.5922V28.3617H31.2656V22.3266H26.5706V33.2056Z" fill="#8C7D5E"/>
<path d="M44.071 62.8367H41.7445V59.6679H36.9052V55.3312H32.0706V50.9945H27.236V46.6577H23.5647V44.3312H29.5626V48.6679H34.3972V53.0046H39.2318V57.3413H44.071V62.8367Z" fill="#8C7D5E"/>
<path d="M44.071 62.8367H41.7445V59.6679H36.9052V55.3312H32.0706V50.9945H27.236V46.6577H23.5647V44.3312H29.5626V48.6679H34.3972V53.0046H39.2318V57.3413H44.071V62.8367Z" fill="#8C7D5E"/>
<path d="M56.253 62.8599H53.9264V53.9445C53.9264 53.6268 53.8639 53.3122 53.7423 53.0186C53.6207 52.725 53.4424 52.4583 53.2178 52.2336C52.9931 52.0089 52.7263 51.8307 52.4328 51.7091C52.1392 51.5875 51.8246 51.5249 51.5068 51.5249C51.1891 51.5249 50.8744 51.5875 50.5809 51.7091C50.2873 51.8307 50.0206 52.0089 49.7959 52.2336C49.5712 52.4583 49.393 52.725 49.2714 53.0186C49.1498 53.3122 49.0872 53.6268 49.0872 53.9445V62.8599H46.7606V53.9445C46.7606 52.6858 47.2607 51.4786 48.1508 50.5885C49.0408 49.6984 50.248 49.1984 51.5068 49.1984C52.7656 49.1984 53.9728 49.6984 54.8629 50.5885C55.753 51.4786 56.253 52.6858 56.253 53.9445V62.8599Z" fill="#8C7D5E"/>
<path d="M56.253 62.8599H53.9264V53.9445C53.9264 53.6268 53.8639 53.3122 53.7423 53.0186C53.6207 52.725 53.4424 52.4583 53.2178 52.2336C52.9931 52.0089 52.7263 51.8307 52.4328 51.7091C52.1392 51.5875 51.8246 51.5249 51.5068 51.5249C51.1891 51.5249 50.8744 51.5875 50.5809 51.7091C50.2873 51.8307 50.0206 52.0089 49.7959 52.2336C49.5712 52.4583 49.393 52.725 49.2714 53.0186C49.1498 53.3122 49.0872 53.6268 49.0872 53.9445V62.8599H46.7606V53.9445C46.7606 52.6858 47.2607 51.4786 48.1508 50.5885C49.0408 49.6984 50.248 49.1984 51.5068 49.1984C52.7656 49.1984 53.9728 49.6984 54.8629 50.5885C55.753 51.4786 56.253 52.6858 56.253 53.9445V62.8599Z" fill="#8C7D5E"/>
<path d="M48.7195 44.5266H35.7419V36.2673H48.7195V44.5266ZM38.0685 42.2001H46.3929V38.5939H38.0685V42.2001Z" fill="#8C7D5E"/>
<path d="M48.7195 44.5266H35.7419V36.2673H48.7195V44.5266ZM38.0685 42.2001H46.3929V38.5939H38.0685V42.2001Z" fill="#8C7D5E"/>
</g>
<defs>
<clipPath id="clip0_1428_4634">
<rect width="46.4569" height="44" fill="white" transform="translate(19 20)"/>
</clipPath>
</defs>
</svg>
