<svg width="86" height="85" viewBox="0 0 86 85" fill="none" xmlns="http://www.w3.org/2000/svg">
<circle cx="42.5" cy="42.5" r="41" fill="white" stroke="#8C7D5E" stroke-width="3"/>
<path d="M23.1428 45.8572C22.2857 45.8572 21.7142 46.4286 21.7142 47.2857C21.7142 48.1429 22.2857 48.7143 23.1428 48.7143C23.9999 48.7143 24.5714 48.1429 24.5714 47.2857C24.5714 46.4286 23.8571 45.8572 23.1428 45.8572Z" fill="#8C7D5E"/>
<path d="M23.1428 45.8572C22.2857 45.8572 21.7142 46.4286 21.7142 47.2857C21.7142 48.1429 22.2857 48.7143 23.1428 48.7143C23.9999 48.7143 24.5714 48.1429 24.5714 47.2857C24.5714 46.4286 23.8571 45.8572 23.1428 45.8572Z" fill="#8C7D5E"/>
<path d="M61.2857 35L51.1429 31C49.4286 30.2857 47.7143 30 45.8571 30H39.7143C37.4286 30 35.2857 30.5714 33.2857 31.5714L24.1429 36.1429L17.7143 37.1429C14.4286 37.5714 12 40.4286 12 43.7143V47.5714C12 48.1429 12.4286 48.7143 13.1429 48.7143H17.7143C18.4286 51.7143 21.4286 53.5714 24.4286 52.8571C26.5714 52.4286 28.1429 50.7143 28.5714 48.7143H48C48.7143 51.7143 51.7143 53.5714 54.7143 52.8571C56.7143 52.4286 58.4286 50.7143 58.8572 48.7143H63.8572C64.4286 48.7143 65 48.2857 65 47.5714V40.4286C64.8572 38 63.4286 35.8571 61.2857 35ZM50.2857 33L58.1429 36.1429H52.2857L49.7143 32.7143L50.2857 33ZM40.7143 32.1429H46.4286L49.4286 36.1429H40.7143V32.1429ZM34.2857 33.4286C35.5714 32.7143 37.1429 32.2857 38.5714 32.1429V36H29L34.2857 33.4286ZM17.8571 39.2857C17.4286 40.8571 16 41.8571 14.4286 42C15 40.5714 16.2857 39.5714 17.8571 39.2857ZM23.1429 50.7143C21.2857 50.7143 19.7143 49.1429 19.8571 47.2857C19.8571 45.4286 21.4286 43.8571 23.2857 44C25.1429 44 26.7143 45.5714 26.5714 47.4286C26.4286 49.1429 25 50.7143 23.1429 50.7143ZM53.2857 50.7143C51.4286 50.7143 49.8571 49.1429 50 47.2857C50 45.4286 51.5714 43.8571 53.4286 44C55.2857 44 56.8572 45.5714 56.7143 47.4286C56.7143 49.1429 55.2857 50.7143 53.2857 50.7143ZM62.5714 46.4286H58.7143C58.1429 43.4286 55.2857 41.4286 52.2857 41.8571C50 42.2857 48.1429 44 47.7143 46.4286H28.5714C28 43.4286 25.1429 41.4286 22 42C19.7143 42.4286 18 44.1429 17.5714 46.4286H14.1429V44.2857C17.1429 44.2857 19.7143 42 20.1429 39L24.7143 38.2857H58.7143V39.7143C58.7143 41.7143 60.2857 43.2857 62.2857 43.2857H62.5714V46.4286ZM62.5714 41H62.1429C61.2857 41 60.7143 40.4286 60.7143 39.5714V38.1429H62C62.4286 38.7143 62.7143 39.4286 62.7143 40.1429L62.5714 41Z" fill="#8C7D5E"/>
<path d="M61.2857 35L51.1429 31C49.4286 30.2857 47.7143 30 45.8571 30H39.7143C37.4286 30 35.2857 30.5714 33.2857 31.5714L24.1429 36.1429L17.7143 37.1429C14.4286 37.5714 12 40.4286 12 43.7143V47.5714C12 48.1429 12.4286 48.7143 13.1429 48.7143H17.7143C18.4286 51.7143 21.4286 53.5714 24.4286 52.8571C26.5714 52.4286 28.1429 50.7143 28.5714 48.7143H48C48.7143 51.7143 51.7143 53.5714 54.7143 52.8571C56.7143 52.4286 58.4286 50.7143 58.8572 48.7143H63.8572C64.4286 48.7143 65 48.2857 65 47.5714V40.4286C64.8572 38 63.4286 35.8571 61.2857 35ZM50.2857 33L58.1429 36.1429H52.2857L49.7143 32.7143L50.2857 33ZM40.7143 32.1429H46.4286L49.4286 36.1429H40.7143V32.1429ZM34.2857 33.4286C35.5714 32.7143 37.1429 32.2857 38.5714 32.1429V36H29L34.2857 33.4286ZM17.8571 39.2857C17.4286 40.8571 16 41.8571 14.4286 42C15 40.5714 16.2857 39.5714 17.8571 39.2857ZM23.1429 50.7143C21.2857 50.7143 19.7143 49.1429 19.8571 47.2857C19.8571 45.4286 21.4286 43.8571 23.2857 44C25.1429 44 26.7143 45.5714 26.5714 47.4286C26.4286 49.1429 25 50.7143 23.1429 50.7143ZM53.2857 50.7143C51.4286 50.7143 49.8571 49.1429 50 47.2857C50 45.4286 51.5714 43.8571 53.4286 44C55.2857 44 56.8572 45.5714 56.7143 47.4286C56.7143 49.1429 55.2857 50.7143 53.2857 50.7143ZM62.5714 46.4286H58.7143C58.1429 43.4286 55.2857 41.4286 52.2857 41.8571C50 42.2857 48.1429 44 47.7143 46.4286H28.5714C28 43.4286 25.1429 41.4286 22 42C19.7143 42.4286 18 44.1429 17.5714 46.4286H14.1429V44.2857C17.1429 44.2857 19.7143 42 20.1429 39L24.7143 38.2857H58.7143V39.7143C58.7143 41.7143 60.2857 43.2857 62.2857 43.2857H62.5714V46.4286ZM62.5714 41H62.1429C61.2857 41 60.7143 40.4286 60.7143 39.5714V38.1429H62C62.4286 38.7143 62.7143 39.4286 62.7143 40.1429L62.5714 41Z" fill="#8C7D5E"/>
<path d="M53.2857 45.8572C52.4285 45.8572 51.8571 46.4286 51.8571 47.2857C51.8571 48.1429 52.4285 48.7143 53.2857 48.7143C54.1428 48.7143 54.7143 48.1429 54.7143 47.2857C54.7143 46.5715 54.1428 45.8572 53.2857 45.8572Z" fill="#8C7D5E"/>
<path d="M53.2857 45.8572C52.4285 45.8572 51.8571 46.4286 51.8571 47.2857C51.8571 48.1429 52.4285 48.7143 53.2857 48.7143C54.1428 48.7143 54.7143 48.1429 54.7143 47.2857C54.7143 46.5715 54.1428 45.8572 53.2857 45.8572Z" fill="#8C7D5E"/>
<path d="M41.8571 41.2858H34.7143C34.1428 41.2858 33.5714 41.7143 33.5714 42.4286C33.5714 43.0001 34 43.4286 34.7143 43.4286H41.8571C42.4286 43.4286 43 43.0001 43 42.2858C43 41.5715 42.5714 41.2858 41.8571 41.2858Z" fill="#8C7D5E"/>
<path d="M41.8571 41.2858H34.7143C34.1428 41.2858 33.5714 41.7143 33.5714 42.4286C33.5714 43.0001 34 43.4286 34.7143 43.4286H41.8571C42.4286 43.4286 43 43.0001 43 42.2858C43 41.5715 42.5714 41.2858 41.8571 41.2858Z" fill="#8C7D5E"/>
<path d="M23.1428 45.8572C22.2857 45.8572 21.7142 46.4286 21.7142 47.2857C21.7142 48.1429 22.2857 48.7143 23.1428 48.7143C23.9999 48.7143 24.5714 48.1429 24.5714 47.2857C24.5714 46.4286 23.8571 45.8572 23.1428 45.8572Z" fill="#8C7D5E"/>
<path d="M23.1428 45.8572C22.2857 45.8572 21.7142 46.4286 21.7142 47.2857C21.7142 48.1429 22.2857 48.7143 23.1428 48.7143C23.9999 48.7143 24.5714 48.1429 24.5714 47.2857C24.5714 46.4286 23.8571 45.8572 23.1428 45.8572Z" fill="#8C7D5E"/>
<path d="M53.2857 45.8572C52.4285 45.8572 51.8571 46.4286 51.8571 47.2857C51.8571 48.1429 52.4285 48.7143 53.2857 48.7143C54.1428 48.7143 54.7143 48.1429 54.7143 47.2857C54.7143 46.5715 54.1428 45.8572 53.2857 45.8572Z" fill="#8C7D5E"/>
<path d="M53.2857 45.8572C52.4285 45.8572 51.8571 46.4286 51.8571 47.2857C51.8571 48.1429 52.4285 48.7143 53.2857 48.7143C54.1428 48.7143 54.7143 48.1429 54.7143 47.2857C54.7143 46.5715 54.1428 45.8572 53.2857 45.8572Z" fill="#8C7D5E"/>
<path d="M23.1428 45.8572C22.2857 45.8572 21.7142 46.4286 21.7142 47.2857C21.7142 48.1429 22.2857 48.7143 23.1428 48.7143C23.9999 48.7143 24.5714 48.1429 24.5714 47.2857C24.5714 46.4286 23.8571 45.8572 23.1428 45.8572Z" fill="#8C7D5E"/>
<path d="M23.1428 45.8572C22.2857 45.8572 21.7142 46.4286 21.7142 47.2857C21.7142 48.1429 22.2857 48.7143 23.1428 48.7143C23.9999 48.7143 24.5714 48.1429 24.5714 47.2857C24.5714 46.4286 23.8571 45.8572 23.1428 45.8572Z" fill="#8C7D5E"/>
<path d="M53.2857 45.8572C52.4285 45.8572 51.8571 46.4286 51.8571 47.2857C51.8571 48.1429 52.4285 48.7143 53.2857 48.7143C54.1428 48.7143 54.7143 48.1429 54.7143 47.2857C54.7143 46.5715 54.1428 45.8572 53.2857 45.8572Z" fill="#8C7D5E"/>
<path d="M53.2857 45.8572C52.4285 45.8572 51.8571 46.4286 51.8571 47.2857C51.8571 48.1429 52.4285 48.7143 53.2857 48.7143C54.1428 48.7143 54.7143 48.1429 54.7143 47.2857C54.7143 46.5715 54.1428 45.8572 53.2857 45.8572Z" fill="#8C7D5E"/>
<path d="M12.7144 52.8576H72.7144V55.7147H12.7144V52.8576ZM67.0001 44.2861H72.7144V52.8576H67.0001V44.2861Z" fill="#8C7D5E"/>
<path d="M12.7144 52.8576H72.7144V55.7147H12.7144V52.8576ZM67.0001 44.2861H72.7144V52.8576H67.0001V44.2861Z" fill="#8C7D5E"/>
</svg>
