<svg width="19" height="13" viewBox="0 0 19 13" fill="none" xmlns="http://www.w3.org/2000/svg">
<path d="M8.26232 7.06523C8.61342 7.34686 9.05006 7.50035 9.50015 7.50035C9.95024 7.50035 10.3869 7.34686 10.738 7.06523L17.8767 1.41305C17.9394 1.36229 17.9905 1.2987 18.0265 1.22656C18.0626 1.15441 18.0828 1.07539 18.0858 0.994785C18.0888 0.913499 18.0741 0.832535 18.0429 0.757424C18.0117 0.682313 17.9646 0.614824 17.905 0.559566C17.5471 0.207587 17.0673 0.00716122 16.5654 0H2.43492C1.9428 0.00158011 1.46904 0.18705 1.10665 0.520001C1.04594 0.574741 0.997824 0.641999 0.965623 0.717137C0.933421 0.792274 0.917901 0.873503 0.920133 0.95522C0.923012 1.03724 0.943717 1.11764 0.980808 1.19085C1.0179 1.26405 1.07049 1.3283 1.13492 1.37913L8.26232 7.06523Z" fill="white"/>
<path d="M18.3626 11.8356C18.4802 11.5803 18.5419 11.3028 18.5435 11.0217V2.66211L12.9365 7.13299L18.3626 11.8356Z" fill="white"/>
<path d="M6.06351 7.13286L0.456543 2.64502V11.0216C0.458153 11.3027 0.51982 11.5802 0.637413 11.8355L6.06351 7.13286Z" fill="white"/>
<path d="M17.3566 12.8302L11.8175 8.03153L11.6197 8.18979C11.0182 8.67137 10.2706 8.93376 9.50009 8.93376C8.72957 8.93376 7.98201 8.67137 7.38052 8.18979L7.1827 8.02588L1.64355 12.8302C1.89256 12.9415 2.16214 12.9992 2.43486 12.9998H16.5653C16.8381 12.9992 17.1076 12.9415 17.3566 12.8302Z" fill="white"/>
</svg>
