<?xml version="1.0" encoding="utf-8"?>
<!-- Generator: Adobe Illustrator 25.0.1, SVG Export Plug-In . SVG Version: 6.00 Build 0)  -->
<svg version="1.1" id="Capa_1" xmlns="http://www.w3.org/2000/svg" xmlns:xlink="http://www.w3.org/1999/xlink" x="0px" y="0px"
	 viewBox="0 0 455.7 455.7" style="enable-background:new 0 0 455.7 455.7;" xml:space="preserve">
<style type="text/css">
	.st0{fill:#8C7D5E;}
	.st1{fill:#FFFFFF;}
</style>
<g>
	<path class="st0" d="M56.7,0H399c31.3,0,56.7,25.4,56.7,56.7V399c0,31.3-25.4,56.7-56.7,56.7H56.7C25.4,455.7,0,430.3,0,399V56.7
		C0,25.4,25.4,0,56.7,0z"/>
	<g>
		<path class="st1" d="M351.5,221.7c0.6-3,0.9-5.6,1-7.5c0.2-3.3,0-8.2-0.1-9.7c-3-52.6-57.6-94.6-124.6-94.6
			c-68.9,0-124.7,44.4-124.7,99.2c0,50.3,47.2,91.9,108.3,98.3c3.7,0.4,6.4,3.8,6,7.5l-2.6,23.4c-0.6,5.3,4.9,9.2,9.7,6.9
			c51.6-24.9,82.5-50.5,100.9-72.7c3.4-4,14.3-19.4,16.5-23.4C346.7,240.5,350,231.3,351.5,221.7z"/>
		<path class="st0" d="M159.3,229.2v-41.8c0-3.5-2.9-6.4-6.4-6.4l0,0c-3.5,0-6.4,2.9-6.4,6.4v48.2c0,3.5,2.9,6.4,6.4,6.4h25.5
			c3.5,0,6.4-2.9,6.4-6.4l0,0c0-3.5-2.9-6.4-6.4-6.4H159.3z"/>
		<path class="st0" d="M198.6,241.9h-2.8c-2.8,0-5-2.2-5-5V186c0-2.8,2.2-5,5-5h2.8c2.8,0,5,2.2,5,5v50.9
			C203.6,239.7,201.4,241.9,198.6,241.9z"/>
		<path class="st0" d="M250.2,187.4v29.4c0,0-25.5-33.2-25.9-33.7c-1.2-1.4-3-2.2-5-2.1c-3.5,0.1-6.1,3.2-6.1,6.6v47.9
			c0,3.5,2.9,6.4,6.4,6.4l0,0c3.5,0,6.4-2.9,6.4-6.4v-29.2c0,0,25.9,33.5,26.2,33.9c1.1,1.1,2.6,1.7,4.3,1.7c3.5,0,6.4-3.1,6.4-6.6
			v-47.9c0-3.5-2.9-6.4-6.4-6.4l0,0C253,181,250.2,183.9,250.2,187.4z"/>
		<path class="st0" d="M310.7,187.4L310.7,187.4c0-3.5-2.9-6.4-6.4-6.4h-25.5c-3.5,0-6.4,2.9-6.4,6.4v48.2c0,3.5,2.9,6.4,6.4,6.4
			h25.5c3.5,0,6.4-2.9,6.4-6.4l0,0c0-3.5-2.9-6.4-6.4-6.4h-19.1v-11.3h19.1c3.5,0,6.4-2.9,6.4-6.4l0,0c0-3.5-2.9-6.4-6.4-6.4h-19.1
			v-11.3h19.1C307.9,193.8,310.7,190.9,310.7,187.4z"/>
	</g>
</g>
</svg>
