<svg width="18" height="18" viewBox="0 0 18 18" fill="none" xmlns="http://www.w3.org/2000/svg">
<mask id="mask0_0_5850" style="mask-type:luminance" maskUnits="userSpaceOnUse" x="0" y="0" width="18" height="18">
<path fill-rule="evenodd" clip-rule="evenodd" d="M0 0H18V17.9921H0V0Z" fill="white"/>
</mask>
<g mask="url(#mask0_0_5850)">
<path fill-rule="evenodd" clip-rule="evenodd" d="M13.9936 6.65726C14.2674 6.38502 14.3992 5.91604 14.1501 5.50752C13.8934 5.08667 13.2365 4.94232 12.8627 5.26269C12.5548 5.52653 12.2572 5.80352 11.9693 6.08913C10.9921 7.05838 10.0214 8.03398 9.04818 9.0072C9.01508 9.0403 8.98175 9.07324 8.94903 9.10673C8.52454 9.54117 8.10043 9.97595 7.67544 10.4099C7.62012 10.4664 7.57315 10.4671 7.50793 10.4055C7.33164 10.2391 7.14186 10.0871 6.96346 9.92284C6.46331 9.46225 5.97493 8.98846 5.46378 8.54054C5.25112 8.35424 5.07399 8.12019 4.74511 8.072C4.06523 7.9723 3.68301 8.46543 3.7023 9.00692C3.70998 9.22268 3.80974 9.42246 3.97852 9.57688C4.55709 10.1062 5.1323 10.6391 5.71175 11.1674C6.02428 11.4523 6.3431 11.7302 6.65845 12.0119C6.78357 12.1237 6.90471 12.2401 7.03171 12.3497C7.28135 12.5651 7.55513 12.7133 7.88484 12.5417C8.07352 12.4435 13.4454 7.20223 13.9936 6.65726V6.65726ZM8.86238 17.9921H8.30005C8.26325 17.9695 8.22793 17.9306 8.1893 17.9269C7.88573 17.8976 7.57464 17.9072 7.2788 17.8442C6.5608 17.6913 5.86185 17.4715 5.1943 17.1576C4.26076 16.7185 3.42404 16.1368 2.69338 15.4143C2.32945 15.0545 2.00168 14.6526 1.69484 14.2418C1.28975 13.6995 0.947653 13.115 0.707967 12.4768C0.698572 12.4644 0.689121 12.4519 0.679671 12.4396C0.665744 12.3933 0.651817 12.3469 0.637835 12.3006C0.628551 12.2884 0.619211 12.2761 0.609926 12.2639C0.502159 11.9682 0.394391 11.6725 0.286624 11.3768C0.277339 11.3679 0.26811 11.359 0.25888 11.3502C0.244843 11.2656 0.230861 11.1811 0.216879 11.0966C0.216934 11.0862 0.216492 11.0759 0.215663 11.0657C0.192617 10.9707 0.169571 10.8757 0.146526 10.7807C0.146581 10.7701 0.146139 10.7596 0.145255 10.7491C0.120883 10.551 0.0965105 10.3529 0.0721384 10.1549C0.0500875 9.95135 0.0175915 9.74831 0.00858322 9.54421C-0.00252513 9.2937 -0.00307778 9.04196 0.00825163 8.79144C0.0219022 8.48903 0.0506402 8.18712 0.076836 7.88537C0.095571 7.66961 0.120827 7.45441 0.143155 7.23898C0.154926 7.21478 0.166642 7.19063 0.178359 7.16642C0.190185 7.08512 0.202012 7.00383 0.213839 6.92253C0.225555 6.89844 0.237271 6.87434 0.248988 6.85025C0.261422 6.78105 0.273802 6.71186 0.286237 6.64267C0.2869 6.63294 0.287231 6.62316 0.287176 6.61343C0.298616 6.60155 0.315306 6.59166 0.320667 6.57746C0.495748 6.11345 0.641593 5.63601 0.849446 5.18725C1.3433 4.12107 2.0098 3.17112 2.90189 2.39757C3.30268 2.05 3.72281 1.7204 4.15979 1.41987C4.92405 0.894237 5.77072 0.535067 6.6705 0.314779C7.10582 0.208227 7.55082 0.135609 7.99499 0.0726613C8.31956 0.0266805 8.64966 0.0121457 8.97788 0.00147947C9.20851 -0.00598136 9.44012 0.0167327 9.6713 0.0260173C9.70628 0.0380652 9.74121 0.050113 9.77614 0.0621609C10.1475 0.111071 10.522 0.143954 10.8894 0.21392C11.2015 0.273385 11.5056 0.375682 11.8132 0.459022C11.9073 0.490855 12.0015 0.522688 12.0957 0.55452C12.3534 0.660188 12.6112 0.765911 12.8689 0.871578C12.9621 0.921483 13.0554 0.971387 13.1485 1.02129C13.2422 1.06827 13.3359 1.11519 13.4296 1.16216C13.4527 1.17471 13.4758 1.18731 13.4989 1.19985C13.6283 1.28049 13.7577 1.36112 13.8871 1.44175C13.9099 1.4549 13.9328 1.46806 13.9557 1.48121C14.1545 1.63164 14.3532 1.78202 14.552 1.9324C14.5647 1.94135 14.5775 1.95036 14.5902 1.95937C14.7071 2.05669 14.824 2.15401 14.9409 2.25133L15.0459 2.3229C15.0611 2.34479 15.0762 2.36667 15.0913 2.3885C15.1 2.39701 15.1086 2.40552 15.1173 2.41398C15.2731 2.56955 15.4288 2.72512 15.5846 2.8807C15.5928 2.88921 15.6011 2.89772 15.6093 2.90623L15.6752 2.95216L15.7844 3.09485C16.0285 3.41069 16.2727 3.72653 16.5169 4.04238C16.5301 4.06531 16.5432 4.08819 16.5564 4.11107C16.6371 4.24045 16.7176 4.36982 16.7982 4.4992C16.8109 4.52236 16.8235 4.54551 16.8361 4.56867C16.8881 4.68158 16.9401 4.79448 16.9921 4.90739C17.0369 4.98134 17.0817 5.05523 17.1265 5.12917C17.1425 5.17576 17.1574 5.22273 17.1745 5.26894C17.3208 5.66458 17.4741 6.05779 17.6114 6.45653C17.6953 6.69998 17.7549 6.95182 17.8253 7.19991L17.8255 7.24114C17.8268 7.29292 17.8225 7.34559 17.8304 7.39638C17.875 7.68304 17.9226 7.9692 17.9692 8.25559C17.9696 8.30212 17.9701 8.34871 17.9705 8.3953C17.9803 8.43122 17.9902 8.46715 18 8.50307V8.8545V8.95995V9.48712C17.9902 9.52305 17.9803 9.55897 17.9705 9.59489C17.9701 9.64148 17.9696 9.68801 17.9692 9.7346C17.9069 10.1852 17.8631 10.6394 17.7751 11.085C17.725 11.3393 17.5849 11.5746 17.5168 11.827C17.3693 12.3736 17.1168 12.8732 16.8475 13.3638C16.3952 14.1881 15.8351 14.9324 15.12 15.5493C14.7621 15.8581 14.4 16.165 14.0173 16.4416C13.4936 16.8203 12.9194 17.1154 12.3184 17.3553C11.6095 17.6382 10.8769 17.8298 10.1185 17.9218C9.95702 17.9414 9.79653 17.9685 9.63554 17.9921H8.96782H8.86238Z" fill="#0092B7"/>
</g>
</svg>
