<?xml version="1.0" standalone="no"?>
<!DOCTYPE svg PUBLIC "-//W3C//DTD SVG 20010904//EN"
 "http://www.w3.org/TR/2001/REC-SVG-20010904/DTD/svg10.dtd">
<svg version="1.0" xmlns="http://www.w3.org/2000/svg"
 width="672.000000pt" height="672.000000pt" viewBox="0 0 672.000000 672.000000"
 preserveAspectRatio="xMidYMid meet">
<metadata>
Created by potrace 1.14, written by Peter Selinger 2001-2017
</metadata>
<g transform="translate(0.000000,672.000000) scale(0.100000,-0.100000)"
fill="#000000" stroke="none">
<path d="M3128 6576 c-1 -2 -39 -6 -83 -10 -44 -4 -91 -9 -105 -10 -84 -12
-118 -17 -140 -21 -14 -3 -38 -7 -55 -9 -16 -3 -64 -12 -105 -21 -41 -9 -84
-18 -95 -20 -90 -14 -435 -130 -580 -195 -130 -58 -315 -155 -410 -215 -27
-17 -58 -34 -67 -38 -10 -3 -18 -11 -18 -17 0 -5 -5 -10 -10 -10 -9 0 -216
-143 -230 -159 -3 -3 -27 -24 -55 -46 -129 -102 -367 -339 -460 -459 -16 -21
-40 -50 -53 -65 -43 -49 -211 -306 -271 -415 -93 -169 -229 -486 -246 -577 -2
-10 -7 -24 -10 -29 -3 -5 -8 -20 -11 -32 -6 -28 -9 -38 -17 -58 -7 -21 -45
-189 -53 -235 -3 -21 -7 -46 -9 -55 -2 -10 -7 -40 -11 -67 -3 -26 -8 -56 -10
-67 -19 -103 -26 -534 -11 -666 20 -176 25 -211 48 -330 16 -80 79 -316 96
-360 3 -8 7 -20 8 -25 2 -6 23 -63 48 -127 70 -179 193 -423 277 -550 22 -33
40 -64 40 -69 0 -5 4 -9 8 -9 4 0 15 -13 25 -29 59 -100 237 -312 386 -461
106 -105 144 -139 251 -226 19 -16 37 -32 38 -36 2 -5 8 -8 13 -8 8 0 35 -20
64 -47 8 -7 17 -13 22 -13 4 0 20 -11 35 -25 15 -14 30 -25 33 -25 4 0 21 -11
38 -24 78 -58 347 -207 497 -274 121 -54 441 -169 490 -176 8 -1 22 -5 30 -8
8 -4 26 -8 40 -11 14 -3 59 -12 100 -22 110 -24 110 -24 175 -35 232 -37 334
-45 595 -44 202 0 287 4 391 18 19 3 57 8 84 11 61 8 112 15 134 20 9 2 49 11
88 19 40 9 85 18 100 21 16 2 60 14 98 25 39 11 79 22 90 25 45 10 270 91 273
98 2 4 11 7 19 7 8 0 49 16 90 35 41 19 81 35 88 35 7 0 15 3 17 8 2 4 44 27
93 51 296 146 603 368 850 616 128 128 170 173 225 245 19 25 37 47 40 50 10
9 115 154 142 195 200 305 346 638 432 980 14 55 28 116 31 135 3 19 8 42 10
50 2 8 7 31 9 50 3 19 7 46 10 60 3 14 8 46 11 70 2 25 8 77 12 115 9 83 9
501 0 565 -3 25 -9 68 -12 95 -3 28 -7 61 -10 75 -2 13 -7 41 -10 61 -3 21
-12 66 -19 101 -8 35 -19 88 -26 118 -6 30 -14 62 -17 70 -8 19 -11 29 -17 57
-8 37 -78 236 -93 265 -7 15 -14 31 -14 35 -8 61 -226 476 -281 537 -10 11
-18 24 -18 28 0 10 -128 185 -174 238 -17 20 -51 60 -76 90 -69 84 -264 275
-375 369 -274 229 -573 407 -905 539 -128 51 -211 81 -243 87 -9 2 -22 7 -29
11 -6 4 -28 11 -47 15 -20 4 -63 15 -96 24 -68 19 -65 18 -165 40 -41 9 -86
18 -100 20 -24 3 -66 10 -120 20 -14 2 -50 7 -80 11 -30 3 -73 8 -95 11 -45 5
-551 13 -557 9z m517 -130 c75 -6 157 -16 180 -21 11 -2 43 -7 70 -10 28 -4
70 -11 95 -17 25 -5 59 -12 75 -15 36 -6 190 -46 295 -78 3 -1 12 -4 20 -8 8
-3 49 -17 90 -30 166 -56 380 -154 543 -249 74 -42 229 -141 250 -158 7 -5 53
-40 102 -77 200 -148 428 -370 585 -568 181 -229 340 -510 442 -780 54 -145
113 -342 132 -445 2 -14 9 -45 14 -70 6 -25 13 -65 16 -90 3 -25 8 -56 11 -69
13 -68 20 -208 20 -406 0 -195 -3 -254 -21 -394 -10 -80 -39 -230 -61 -316 -8
-33 -16 -67 -18 -76 -2 -9 -23 -77 -48 -150 -123 -367 -298 -679 -567 -1009
-113 -139 -419 -423 -560 -520 -19 -13 -37 -27 -40 -30 -5 -5 -110 -76 -142
-95 -29 -17 -131 -77 -168 -98 -84 -48 -271 -137 -290 -139 -3 0 -21 -8 -40
-17 -19 -10 -64 -28 -100 -40 -36 -13 -72 -26 -80 -29 -8 -3 -17 -6 -20 -7 -3
-1 -12 -5 -20 -8 -60 -26 -395 -107 -500 -121 -19 -3 -60 -9 -91 -15 -191 -33
-665 -36 -887 -6 -114 16 -311 53 -392 75 -84 22 -257 73 -275 80 -11 5 -74
30 -140 56 -157 61 -320 140 -464 225 -66 38 -236 153 -239 160 -2 5 -8 9 -13
9 -5 0 -17 6 -26 14 -10 8 -69 56 -131 106 -132 107 -307 278 -408 400 -80 96
-194 247 -194 257 0 4 -7 15 -17 25 -9 10 -21 27 -27 37 -6 11 -33 57 -60 103
-155 261 -305 638 -352 886 -8 42 -13 67 -23 117 -5 28 -13 77 -16 110 -4 33
-9 68 -11 79 -23 123 -23 494 1 676 2 19 7 58 11 85 5 42 18 108 51 265 7 35
8 39 22 90 16 61 72 233 80 245 3 6 6 17 8 25 1 8 6 23 12 35 5 11 26 58 46
105 59 139 158 321 242 446 43 65 83 125 88 135 19 31 161 204 220 268 106
114 239 241 356 336 61 50 295 215 304 215 3 0 29 16 59 35 30 19 60 35 66 35
5 0 10 3 10 8 0 4 29 21 65 37 36 17 65 33 65 38 0 4 5 7 12 7 6 0 45 16 87
36 123 59 282 120 420 163 128 39 366 95 451 106 25 3 56 8 70 11 34 6 87 12
185 20 44 3 81 7 83 9 4 4 429 -4 487 -9z"/>
<path d="M3188 6225 c-2 -2 -43 -6 -93 -10 -102 -8 -138 -12 -145 -15 -3 -1
-9 -2 -13 -1 -19 3 -240 -42 -362 -74 -121 -32 -283 -83 -330 -105 -11 -5 -49
-21 -85 -35 -84 -34 -320 -153 -341 -171 -8 -8 -19 -14 -24 -14 -26 0 -363
-243 -464 -334 -80 -73 -221 -216 -276 -281 -33 -38 -62 -72 -65 -75 -38 -38
-230 -320 -230 -338 0 -7 -3 -12 -8 -12 -4 0 -17 -21 -30 -47 -13 -27 -33 -66
-45 -88 -59 -106 -168 -380 -203 -510 -22 -83 -55 -225 -60 -255 -2 -14 -6
-41 -8 -60 -3 -19 -7 -46 -10 -60 -7 -35 -14 -102 -22 -200 l-6 -85 53 50 c29
28 69 66 89 85 262 251 434 416 485 465 34 33 148 143 254 245 107 102 219
210 250 240 32 30 144 138 250 240 277 265 288 276 502 481 107 103 219 210
249 239 30 29 151 145 269 259 252 242 308 297 387 372 33 31 67 65 77 76 17
19 16 20 -13 20 -16 0 -31 -1 -32 -2z"/>
<path d="M3454 6219 c-2 -4 0 -9 5 -11 6 -1 96 -86 202 -188 105 -102 213
-205 239 -230 26 -25 132 -126 235 -225 104 -99 203 -193 220 -210 18 -16 113
-108 211 -202 99 -95 208 -200 244 -234 36 -34 145 -138 244 -233 98 -94 206
-197 240 -229 33 -32 144 -139 246 -237 102 -98 210 -202 240 -230 91 -87 429
-411 498 -477 35 -35 67 -63 69 -63 16 0 -21 325 -54 469 -8 36 -18 84 -23
106 -19 86 -79 270 -125 380 -35 85 -112 249 -122 258 -4 5 -8 12 -9 15 -1 16
-28 62 -36 62 -4 0 -8 5 -8 10 0 22 -199 317 -254 377 -6 6 -33 37 -61 69 -70
81 -199 210 -270 269 -33 28 -64 55 -70 61 -13 15 -151 118 -235 176 -60 42
-306 188 -315 188 -2 0 -40 17 -84 39 -133 65 -392 163 -496 187 -5 1 -57 14
-115 27 -112 27 -240 51 -330 62 -148 17 -280 24 -286 14z"/>
<path d="M3290 5761 c-24 -13 -169 -148 -415 -386 -62 -60 -390 -373 -460
-440 -51 -48 -381 -364 -465 -445 -26 -25 -122 -117 -215 -205 -237 -225 -240
-229 -460 -440 -260 -249 -267 -256 -441 -422 -82 -78 -183 -174 -225 -215
-42 -40 -109 -104 -148 -141 -77 -73 -73 -64 -57 -162 3 -16 8 -43 10 -60 3
-16 12 -61 21 -100 9 -38 18 -77 20 -85 36 -154 192 -555 224 -574 6 -4 59 40
118 98 59 57 131 126 159 152 28 27 134 128 234 224 100 96 204 195 230 220
76 72 400 382 440 420 20 19 119 114 221 212 197 189 225 215 490 468 95 91
191 183 214 205 23 22 116 111 206 197 90 86 194 185 230 220 36 35 144 137
239 228 505 482 484 460 475 506 -2 11 -4 24 -4 31 -1 16 -57 71 -460 453 -24
23 -54 45 -66 50 -34 13 -82 9 -115 -9z"/>
<path d="M4166 4935 c-41 -27 -483 -462 -498 -489 -17 -30 -20 -74 -7 -98 13
-26 164 -174 584 -573 165 -157 379 -361 430 -410 34 -33 133 -127 220 -210
87 -82 181 -172 210 -200 28 -27 120 -115 204 -195 84 -80 196 -187 249 -238
54 -51 147 -140 207 -197 61 -57 143 -135 184 -174 40 -39 76 -71 81 -71 12 0
153 325 165 382 2 9 8 25 13 35 11 22 71 239 77 279 2 16 9 54 15 84 28 133
30 124 -57 207 -43 42 -132 128 -199 192 -66 64 -205 197 -308 296 -104 99
-221 212 -261 250 -40 39 -164 158 -275 265 -112 107 -233 224 -269 259 -36
35 -144 138 -240 230 -95 91 -219 210 -275 265 -55 54 -111 105 -123 113 -37
25 -88 24 -127 -2z"/>
<path d="M3305 4101 c-17 -7 -139 -120 -295 -271 -25 -25 -126 -121 -224 -215
-98 -93 -215 -206 -261 -250 -46 -44 -156 -150 -246 -235 -89 -85 -185 -177
-214 -205 -44 -42 -252 -242 -475 -455 -122 -117 -436 -417 -480 -460 -26 -25
-90 -87 -143 -137 -54 -51 -97 -97 -97 -102 0 -9 57 -90 107 -150 15 -18 32
-40 36 -47 39 -66 393 -413 431 -422 7 -1 46 29 87 68 41 39 150 144 243 233
392 375 387 370 662 634 93 88 194 184 224 213 70 66 384 366 466 445 34 33
137 132 230 220 92 88 188 180 214 205 25 25 112 108 193 184 186 177 199 208
119 292 -28 30 -364 352 -436 419 -46 43 -94 55 -141 36z"/>
<path d="M4175 3260 c-11 -4 -27 -16 -36 -27 -9 -10 -85 -83 -169 -163 -315
-299 -320 -304 -320 -350 0 -35 27 -76 87 -132 31 -29 82 -78 114 -108 127
-123 437 -420 479 -460 25 -23 133 -127 240 -230 107 -103 218 -210 246 -236
28 -27 133 -128 234 -224 100 -96 188 -179 196 -183 19 -11 114 67 267 219
113 111 161 167 271 307 l69 88 -64 61 c-35 33 -140 134 -234 224 -93 89 -200
191 -236 226 -37 35 -144 137 -239 228 -95 91 -198 189 -229 218 -31 30 -137
132 -236 227 -300 289 -319 307 -343 316 -28 11 -70 11 -97 -1z"/>
<path d="M3292 2410 c-18 -11 -76 -62 -129 -113 -52 -50 -117 -112 -143 -137
-80 -76 -402 -383 -440 -420 -20 -19 -114 -109 -210 -200 -95 -91 -192 -183
-215 -205 -23 -22 -124 -118 -224 -214 l-181 -174 32 -21 c182 -114 561 -276
755 -321 10 -3 38 -9 63 -16 25 -6 53 -12 63 -14 10 -2 26 -6 35 -9 15 -5 70
-15 112 -21 8 -1 26 -5 40 -8 14 -4 48 -9 75 -13 28 -3 61 -7 75 -9 129 -18
433 -24 590 -11 147 12 169 14 265 31 50 9 104 18 120 21 17 3 48 10 70 15 22
6 56 15 75 20 57 14 271 80 299 91 14 6 31 12 37 13 39 9 329 145 374 176 14
9 27 16 30 16 9 -1 100 55 100 62 0 3 -17 21 -37 40 -21 19 -86 79 -144 135
-59 56 -166 157 -239 226 -73 69 -154 145 -180 170 -26 25 -107 101 -180 170
-73 69 -154 145 -180 170 -25 25 -104 99 -174 165 -71 66 -159 149 -196 185
-78 75 -176 166 -208 194 -32 28 -90 31 -130 6z m-512 -1151 c62 -35 77 -79
48 -138 -23 -48 -57 -60 -155 -59 -44 1 -66 -4 -78 -15 -18 -19 -28 -107 -11
-108 12 -1 106 2 194 6 28 1 53 -2 54 -6 5 -33 3 -34 -148 -35 l-151 -1 1 79
c1 65 4 81 19 89 9 6 22 16 28 22 8 8 41 11 101 9 l89 -3 13 33 c10 23 11 38
3 55 -12 27 -3 25 -137 27 l-105 1 -3 27 -3 28 113 -2 c62 0 120 -5 128 -9z
m447 -18 c46 -34 66 -87 65 -166 -1 -93 -23 -137 -83 -168 -27 -14 -47 -17
-94 -12 -128 14 -166 53 -171 178 -3 67 0 88 18 124 12 24 22 43 22 43 1 0 19
7 41 14 61 22 164 15 202 -13z m452 2 c42 -32 64 -79 67 -145 5 -133 -42 -201
-140 -202 -156 -2 -211 49 -209 194 1 106 27 149 103 173 8 3 46 4 84 2 49 -2
75 -8 95 -22z m505 11 c4 -9 4 -19 2 -21 -2 -3 -49 -6 -103 -7 -54 -2 -104 -4
-111 -5 -24 -2 -62 -53 -62 -82 l0 -29 96 0 c143 0 187 -29 179 -118 -5 -61
-57 -92 -152 -92 -118 0 -166 52 -167 179 -1 148 42 188 210 190 87 2 102 0
108 -15z"/>
<path d="M3029 1207 c-40 -33 -50 -81 -40 -198 0 -9 14 -31 30 -48 26 -28 35
-31 88 -31 106 0 141 41 138 159 -3 109 -34 141 -138 141 -39 0 -58 -6 -78
-23z"/>
<path d="M3475 1202 c-14 -14 -25 -30 -26 -36 -1 -6 -3 -24 -5 -41 -17 -137
17 -193 123 -197 88 -3 131 41 134 138 4 124 -33 167 -142 163 -48 -2 -64 -7
-84 -27z"/>
<path d="M3923 1072 c-19 -3 -21 -8 -16 -35 14 -74 60 -103 148 -91 60 7 71
12 82 37 12 25 3 56 -20 76 -15 12 -142 20 -194 13z"/>
</g>
</svg>
