<?xml version="1.0" standalone="no"?>
<!DOCTYPE svg PUBLIC "-//W3C//DTD SVG 20010904//EN"
 "http://www.w3.org/TR/2001/REC-SVG-20010904/DTD/svg10.dtd">
<svg version="1.0" xmlns="http://www.w3.org/2000/svg"
 width="103.000000pt" height="103.000000pt" viewBox="0 0 103.000000 103.000000"
 preserveAspectRatio="xMidYMid meet">
<metadata>
Created by potrace 1.11, written by Peter Selinger 2001-2013
</metadata>
<g transform="translate(0.000000,103.000000) scale(0.100000,-0.100000)"
fill="#000000" stroke="none">
<path d="M369 1011 c-227 -73 -375 -278 -364 -505 4 -108 9 -129 50 -211 58
-120 165 -213 292 -256 55 -18 82 -21 181 -17 110 3 121 5 192 39 185 89 294
260 292 458 -2 205 -107 371 -292 460 -73 35 -79 36 -200 38 -69 1 -137 -2
-151 -6z m281 -41 c129 -39 235 -133 290 -257 29 -65 33 -87 36 -188 3 -129
-32 -225 -124 -332 -35 -40 -134 -102 -195 -122 -348 -113 -686 187 -612 543
31 149 123 268 258 331 114 55 222 62 347 25z"/>
<path d="M383 925 c-299 -93 -397 -477 -178 -699 25 -25 50 -46 55 -46 20 0
60 48 54 64 -3 9 -10 16 -15 16 -14 0 -60 67 -65 96 -8 44 3 71 48 120 l41 44
-41 44 c-83 90 -74 124 67 267 60 60 101 109 92 108 -9 0 -35 -6 -58 -14z"/>
<path d="M413 815 c-142 -143 -148 -157 -85 -218 l38 -37 168 169 168 169 -56
21 c-95 35 -97 35 -233 -104z"/>
<path d="M717 833 l-27 -27 41 -42 c70 -71 68 -138 -6 -208 l-35 -34 37 -38
c45 -47 64 -96 52 -138 -5 -19 -51 -73 -116 -139 -92 -92 -104 -107 -80 -103
134 24 248 113 310 244 30 62 32 75 32 172 0 97 -2 110 -32 172 -31 66 -114
168 -137 168 -6 0 -24 -12 -39 -27z"/>
<path d="M596 711 l-48 -48 52 -52 52 -52 28 29 c30 32 50 64 50 81 0 12 -69
91 -79 91 -4 0 -28 -22 -55 -49z"/>
<path d="M455 570 l-50 -50 51 -51 51 -50 51 50 52 51 -49 50 c-27 28 -51 50
-53 50 -2 0 -26 -23 -53 -50z"/>
<path d="M327 442 c-47 -48 -48 -79 -3 -126 18 -20 37 -36 41 -36 10 0 95 89
95 99 0 4 -22 28 -48 54 l-48 47 -37 -38z"/>
<path d="M482 314 c-89 -91 -160 -169 -157 -174 7 -11 100 -40 130 -40 23 0
275 247 275 269 0 20 -21 54 -53 84 -16 15 -30 27 -31 26 0 0 -74 -75 -164
-165z"/>
</g>
</svg>
