<svg width="375" height="667" viewBox="0 0 375 667" fill="none" xmlns="http://www.w3.org/2000/svg">
<rect width="375" height="667" fill="white"/>
<path d="M23.566 44.73H34.434V46.342H23.566V44.73ZM23.566 40.596H34.434V42.208H23.566V40.596ZM23.566 36.488H34.434V38.1H23.566V36.488ZM34.486 54.116C33.498 54.116 33.342 54.012 33.342 53.18V49.046H37.58V33.784H20.576V49.046H23.748C23.306 51.88 22.188 53.622 16.858 54.61C17.456 55.26 18.288 56.534 18.574 57.366C24.996 55.91 26.53 53.18 27.076 49.046H30.222V53.206C30.222 56.118 30.95 57.054 34.044 57.054H37.476C40.05 57.054 40.856 55.988 41.194 51.88C40.388 51.672 39.01 51.152 38.36 50.658C38.23 53.674 38.074 54.116 37.19 54.116H34.486ZM62.228 46.238V52.712H56.43V44.86H64.412V35.422H61.162V41.844H56.43V33.238H53.258V41.844H48.786V35.422H45.718V44.86H53.258V52.712H47.824V46.238H44.678V57.262H47.824V55.754H62.228V57.236H65.452V46.238H62.228ZM77.646 34.382L73.46 34.33C73.694 35.37 73.798 36.618 73.798 37.84C73.798 40.076 73.538 46.914 73.538 50.398C73.538 54.844 76.294 56.716 80.558 56.716C86.486 56.716 90.178 53.232 91.842 50.736L89.476 47.876C87.604 50.71 84.874 53.18 80.584 53.18C78.556 53.18 76.996 52.322 76.996 49.696C76.996 46.472 77.204 40.648 77.308 37.84C77.36 36.8 77.49 35.474 77.646 34.382ZM108.794 34.408L105.024 33.238C104.79 34.122 104.244 35.318 103.828 35.942C102.528 38.204 100.11 41.766 95.56 44.6L98.368 46.758C100.994 44.938 103.412 42.442 105.232 40.024H112.668C112.278 41.636 111.16 43.898 109.808 45.77C108.17 44.678 106.532 43.612 105.154 42.832L102.84 45.198C104.166 46.03 105.882 47.2 107.572 48.448C105.414 50.606 102.528 52.712 98.03 54.09L101.046 56.716C105.102 55.182 108.066 52.972 110.354 50.554C111.42 51.412 112.382 52.218 113.084 52.868L115.554 49.93C114.8 49.306 113.786 48.552 112.668 47.746C114.514 45.146 115.814 42.364 116.516 40.258C116.75 39.608 117.088 38.906 117.374 38.412L114.722 36.774C114.15 36.956 113.266 37.06 112.46 37.06H107.182C107.494 36.488 108.144 35.318 108.794 34.408ZM121.612 44.886L123.25 48.162C126.448 47.226 129.75 45.822 132.428 44.418V52.738C132.428 53.882 132.35 55.52 132.246 56.144H136.354C136.172 55.494 136.12 53.882 136.12 52.738V42.234C138.642 40.57 141.138 38.542 143.114 36.592L140.306 33.914C138.616 35.968 135.652 38.568 132.974 40.232C130.088 42 126.266 43.69 121.612 44.886ZM154.164 52.504C154.164 53.544 154.06 55.104 153.904 56.144H157.96C157.856 55.078 157.726 53.258 157.726 52.504V45.146C160.534 46.108 164.434 47.616 167.112 49.02L168.594 45.432C166.202 44.262 161.21 42.416 157.726 41.402V37.554C157.726 36.488 157.856 35.344 157.96 34.434H153.904C154.086 35.344 154.164 36.644 154.164 37.554V52.504ZM185.078 54.428L187.262 56.222C187.496 56.014 187.808 55.754 188.38 55.442C191.292 53.96 195.036 51.152 197.194 48.344L195.192 45.484C193.45 48.006 190.876 50.06 188.77 50.97V37.372C188.77 36.202 188.926 35.188 188.952 35.11H185.078C185.104 35.188 185.286 36.176 185.286 37.346V52.504C185.286 53.206 185.182 53.934 185.078 54.428ZM173.04 54.038L176.212 56.144C178.422 54.168 180.06 51.62 180.84 48.682C181.542 46.056 181.62 40.57 181.62 37.502C181.62 36.41 181.776 35.266 181.802 35.136H177.98C178.136 35.786 178.214 36.488 178.214 37.528C178.214 40.674 178.188 45.588 177.46 47.824C176.732 50.034 175.328 52.426 173.04 54.038ZM209.83 34.642L205.956 34.252C206.008 35.89 205.774 37.788 205.41 39.738C204.084 39.868 202.862 39.946 202.056 39.972C201.094 39.998 200.236 40.05 199.274 39.972L199.586 43.508C200.392 43.378 201.744 43.196 202.498 43.066C202.966 43.014 203.798 42.91 204.734 42.806C203.772 46.368 201.978 51.62 199.456 55.026L202.836 56.378C205.228 52.556 207.152 46.394 208.14 42.442C208.894 42.39 209.544 42.338 209.96 42.338C211.572 42.338 212.482 42.624 212.482 44.704C212.482 47.278 212.118 50.424 211.416 51.906C211 52.764 210.35 53.024 209.466 53.024C208.79 53.024 207.282 52.764 206.294 52.478L206.84 55.91C207.724 56.092 208.972 56.274 209.96 56.274C211.936 56.274 213.366 55.702 214.224 53.882C215.342 51.62 215.706 47.408 215.706 44.34C215.706 40.596 213.756 39.374 211 39.374C210.454 39.374 209.7 39.426 208.816 39.478C208.998 38.542 209.206 37.58 209.362 36.8C209.492 36.15 209.674 35.318 209.83 34.642ZM221.4 32.484L219.32 33.316C220.048 34.304 220.88 35.838 221.426 36.904L223.48 36.02C223.038 35.11 222.076 33.472 221.4 32.484ZM218.306 33.654L216.252 34.512C216.85 35.344 217.5 36.592 218.02 37.58L215.68 38.594C217.526 40.882 219.372 45.458 220.048 48.344L223.35 46.836C222.622 44.522 220.672 40.18 219.112 37.762L220.386 37.216C219.892 36.254 218.956 34.616 218.306 33.654ZM230.006 34.434V37.58H235.934C236.012 38.464 236.116 39.4 236.298 40.388L234.712 40.102C233.282 46.94 230.188 51.958 224.78 54.688C225.586 55.286 227.042 56.56 227.614 57.21C232.138 54.506 235.258 50.19 237.208 44.366C238.638 49.02 241.394 53.934 246.776 57.184C247.322 56.378 248.596 55.026 249.272 54.48C239.704 48.838 239.002 39.348 239.002 34.434H230.006ZM259.386 34.122L255.824 33.966C255.824 34.668 255.746 35.708 255.616 36.696C255.252 39.374 254.888 42.598 254.888 45.016C254.888 46.758 255.07 48.344 255.226 49.358L258.424 49.15C258.268 47.928 258.242 47.096 258.294 46.394C258.424 42.962 261.102 38.36 264.17 38.36C266.354 38.36 267.706 40.596 267.706 44.6C267.706 50.892 263.624 52.79 257.852 53.674L259.828 56.69C266.718 55.442 271.216 51.932 271.216 44.574C271.216 38.854 268.408 35.318 264.794 35.318C261.856 35.318 259.594 37.502 258.346 39.53C258.502 38.074 259.022 35.396 259.386 34.122ZM283.384 52.062C283.384 51.178 284.398 50.45 286.244 50.45C286.972 50.45 287.674 50.528 288.376 50.632C288.402 51.1 288.402 51.464 288.402 51.75C288.402 53.258 287.492 53.648 286.114 53.648C284.32 53.648 283.384 53.05 283.384 52.062ZM291.522 33.966H288.012C288.116 34.46 288.168 35.266 288.168 35.76C288.168 36.072 288.168 36.488 288.168 36.982C287.83 36.982 287.492 36.982 287.154 36.982C285.568 36.982 282.604 36.722 280.732 36.41L280.81 39.374C282.526 39.608 285.542 39.842 287.18 39.842C287.492 39.842 287.804 39.842 288.142 39.842C288.116 40.726 288.116 41.662 288.116 42.52C287.7 42.52 287.284 42.52 286.868 42.52C285.49 42.52 282.292 42.338 280.602 42.026L280.628 45.094C282.344 45.302 285.308 45.432 286.816 45.432C287.284 45.432 287.726 45.432 288.168 45.432C288.194 46.212 288.22 47.044 288.272 47.85C287.752 47.798 287.206 47.772 286.66 47.772C282.656 47.772 280.238 49.618 280.238 52.244C280.238 55 282.422 56.586 286.582 56.586C290.014 56.586 291.704 54.87 291.704 52.66C291.704 52.374 291.704 52.062 291.678 51.698C293.758 52.634 295.526 54.012 296.93 55.312L298.802 52.4C297.294 51.152 294.798 49.41 291.522 48.474C291.444 47.434 291.392 46.368 291.34 45.38C293.836 45.302 295.864 45.12 298.204 44.86L298.23 41.792C296.124 42.078 293.914 42.286 291.288 42.416C291.288 41.61 291.288 40.648 291.288 39.738C293.81 39.608 296.176 39.374 297.892 39.166L297.918 36.176C295.63 36.566 293.472 36.774 291.34 36.878C291.34 36.462 291.34 36.072 291.366 35.812C291.392 35.136 291.444 34.486 291.522 33.966ZM318.978 34.044H315.208C315.286 34.356 315.39 35.24 315.468 36.306C315.494 36.514 315.494 36.774 315.52 37.112C311.984 37.164 307.252 37.268 304.288 37.268L304.366 40.414C307.564 40.232 311.62 40.076 315.546 40.024C315.572 40.596 315.572 41.194 315.572 41.766C315.234 41.714 314.896 41.688 314.532 41.688C311.698 41.688 309.332 43.612 309.332 46.55C309.332 49.722 311.802 51.334 313.804 51.334C314.22 51.334 314.61 51.282 314.974 51.204C313.544 52.764 311.256 53.622 308.63 54.168L311.412 56.924C317.756 55.156 319.732 50.84 319.732 47.46C319.732 46.108 319.42 44.886 318.796 43.898C318.796 42.754 318.77 41.324 318.77 39.998C322.306 39.998 324.724 40.05 326.284 40.128L326.31 37.06C324.958 37.034 321.396 37.086 318.77 37.086C318.796 36.774 318.796 36.488 318.796 36.28C318.822 35.864 318.926 34.46 318.978 34.044ZM312.452 46.498C312.452 45.12 313.44 44.418 314.454 44.418C315.156 44.418 315.78 44.73 316.144 45.328C316.508 47.616 315.546 48.448 314.454 48.448C313.414 48.448 312.452 47.694 312.452 46.498Z" fill="#303030"/>
<rect x="16" y="84" width="343" height="192.938" fill="#7879F1"/>
<path d="M131.69 197.695C133.25 196.54 134.585 195.19 135.44 193.975C136.31 195.19 137.75 196.555 139.31 197.695H131.69ZM136.385 202.555H140.585V200.995H136.385V199.27H139.895V198.1C140.435 198.475 140.975 198.805 141.515 199.105C141.845 198.55 142.235 197.98 142.7 197.5C140.33 196.495 137.885 194.53 136.28 192.25H134.435C133.325 194.08 130.91 196.39 128.345 197.68C128.75 198.055 129.245 198.7 129.47 199.12C130.04 198.805 130.595 198.46 131.135 198.085V199.27H134.525V200.995H130.37V202.555H134.525V204.34H129.17V205.945H141.935V204.34H136.385V202.555ZM155.045 203.74H145.985V195.85H144.245V206.305H145.985V205.42H155.045V206.29H156.77V195.85H155.045V203.74ZM152.525 198.775H151.22V197.515H152.525V198.775ZM152.525 201.4H151.22V200.125H152.525V201.4ZM148.385 200.125H149.69V201.4H148.385V200.125ZM148.385 197.515H149.69V198.775H148.385V197.515ZM143.795 193.195V194.86H149.555V196.06H146.93V202.855H154.07V196.06H151.34V194.86H157.22V193.195H143.795ZM169.775 203.905H168.155V197.83H169.775V203.905ZM161.12 197.83H162.65V203.905H161.12V197.83ZM166.55 198.865H164.255V197.83H166.55V198.865ZM164.255 202.795H166.55V203.905H164.255V202.795ZM166.55 201.4H164.255V200.26H166.55V201.4ZM172.28 194.83V193.15H158.78V194.83H164.255C164.195 195.28 164.105 195.745 164.015 196.18H159.395V206.305H161.12V205.54H169.775V206.305H171.59V196.18H165.89C166.01 195.745 166.16 195.295 166.295 194.83H172.28ZM186.095 205.33C186.065 204.88 186.035 204.085 186.035 203.56V195.79C186.035 195.355 186.065 194.755 186.08 194.41C185.825 194.425 185.195 194.44 184.76 194.44H177.215C176.69 194.44 175.91 194.41 175.355 194.35V196.435C175.775 196.405 176.585 196.375 177.215 196.375H183.95V202.585H177.035C176.36 202.585 175.685 202.54 175.16 202.495V204.64C175.655 204.595 176.51 204.55 177.095 204.55H183.935C183.935 204.835 183.935 205.09 183.92 205.33H186.095ZM191.615 193.6L190.205 195.1C191.3 195.865 193.175 197.5 193.955 198.34L195.485 196.765C194.615 195.865 192.665 194.305 191.615 193.6ZM189.74 203.59L191 205.57C193.115 205.21 195.05 204.37 196.565 203.455C198.98 202 200.975 199.93 202.115 197.905L200.945 195.79C200 197.815 198.035 200.11 195.485 201.625C194.03 202.495 192.08 203.26 189.74 203.59ZM213.65 195.37C214.175 195.37 214.745 195.4 215.27 195.43V193.495C214.76 193.57 214.16 193.6 213.65 193.6H207.62C207.125 193.6 206.51 193.57 206.03 193.495V195.43C206.48 195.4 207.11 195.37 207.635 195.37H213.65ZM205.715 197.425C205.25 197.425 204.725 197.38 204.275 197.335V199.3C204.695 199.27 205.28 199.24 205.715 199.24H209.84C209.78 200.5 209.525 201.625 208.91 202.555C208.31 203.425 207.26 204.295 206.195 204.7L207.95 205.975C209.285 205.3 210.44 204.13 210.965 203.095C211.505 202.045 211.835 200.785 211.925 199.24H215.54C215.96 199.24 216.53 199.255 216.905 199.285V197.335C216.5 197.395 215.855 197.425 215.54 197.425H205.715ZM221.615 193.6L220.205 195.1C221.3 195.865 223.175 197.5 223.955 198.34L225.485 196.765C224.615 195.865 222.665 194.305 221.615 193.6ZM219.74 203.59L221 205.57C223.115 205.21 225.05 204.37 226.565 203.455C228.98 202 230.975 199.93 232.115 197.905L230.945 195.79C230 197.815 228.035 200.11 225.485 201.625C224.03 202.495 222.08 203.26 219.74 203.59ZM240.095 193.315L238.22 193.93C238.67 194.86 239.495 197.035 239.78 197.995L241.67 197.335C241.385 196.36 240.47 194.05 240.095 193.315ZM244.7 193.87C244.475 195.925 243.62 198.61 242.39 200.17C240.86 202.105 238.52 203.455 236.465 204.04L238.145 205.72C240.29 204.91 242.465 203.395 244.04 201.325C245.285 199.69 246.14 197.305 246.56 195.685C246.65 195.34 246.785 194.89 246.935 194.515L244.7 193.87ZM235.925 194.245L234.005 194.905C234.44 195.715 235.43 198.175 235.73 199.15L237.665 198.445C237.32 197.425 236.39 195.19 235.925 194.245Z" fill="white"/>
<path d="M165.857 164.818C165.857 162.452 167.027 161.282 168.457 161.282C170.095 161.282 171.421 162.582 171.759 166.066C170.875 167.548 169.653 168.146 168.587 168.146C166.923 168.146 165.857 167.08 165.857 164.818ZM167.937 178.364C171.759 178.364 175.321 175.218 175.321 167.938C175.321 161.256 172.045 158.396 168.405 158.396C165.103 158.396 162.347 160.866 162.347 164.818C162.347 168.9 164.661 170.876 167.859 170.876C169.159 170.876 170.797 170.096 171.811 168.796C171.629 173.606 169.861 175.244 167.703 175.244C166.559 175.244 165.389 174.646 164.687 173.866L162.659 176.18C163.803 177.35 165.545 178.364 167.937 178.364ZM180.829 168.484C182.207 168.484 183.221 167.418 183.221 166.014C183.221 164.584 182.207 163.518 180.829 163.518C179.477 163.518 178.463 164.584 178.463 166.014C178.463 167.418 179.477 168.484 180.829 168.484ZM180.829 178.364C182.207 178.364 183.221 177.272 183.221 175.868C183.221 174.438 182.207 173.372 180.829 173.372C179.477 173.372 178.463 174.438 178.463 175.868C178.463 177.272 179.477 178.364 180.829 178.364ZM187.204 178H198.774V174.906H195.16V158.734H192.326C191.104 159.514 189.778 160.008 187.854 160.372V162.738H191.338V174.906H187.204V178ZM208.391 168.588C210.055 168.588 211.147 169.654 211.147 171.916C211.147 174.282 209.951 175.478 208.521 175.478C206.909 175.478 205.609 174.126 205.245 170.616C206.129 169.16 207.351 168.588 208.391 168.588ZM208.599 178.364C211.875 178.364 214.631 175.868 214.631 171.916C214.631 167.808 212.343 165.884 209.119 165.884C207.871 165.884 206.207 166.664 205.167 167.964C205.323 163.128 207.143 161.464 209.353 161.464C210.471 161.464 211.641 162.088 212.317 162.868L214.345 160.58C213.175 159.384 211.485 158.396 209.119 158.396C205.245 158.396 201.683 161.464 201.683 168.64C201.683 175.426 204.933 178.364 208.599 178.364Z" fill="white"/>
<rect x="16" y="289.938" width="343" height="15" rx="7.5" fill="#F2F2F2"/>
<rect x="16" y="313.938" width="343" height="15" rx="7.5" fill="#F2F2F2"/>
<rect x="16" y="337.938" width="343" height="15" rx="7.5" fill="#F2F2F2"/>
<rect x="16" y="361.938" width="343" height="15" rx="7.5" fill="#F2F2F2"/>
<rect x="16" y="385.938" width="343" height="15" rx="7.5" fill="#F2F2F2"/>
<g filter="url(#filter0_bd_1370_47564)">
<path d="M16 471C16 448.909 33.9086 431 56 431H319C341.091 431 359 448.909 359 471V619H16V471Z" fill="#FBFBFB" fill-opacity="0.8"/>
<path d="M52 467C52 455.954 60.9543 447 72 447H161.5C172.546 447 181.5 455.954 181.5 467V497C181.5 508.046 172.546 517 161.5 517H72C60.9543 517 52 508.046 52 497V467Z" fill="#A5A6F6"/>
<path d="M99.365 483.615L97.67 482.82C97.055 484.08 95.855 485.73 94.85 486.69L96.47 487.8C97.295 486.915 98.675 484.95 99.365 483.615ZM105.815 482.775L104.18 483.66C104.9 484.575 105.965 486.39 106.61 487.68L108.38 486.72C107.78 485.625 106.58 483.735 105.815 482.775ZM105.725 476.865L104.54 477.36C104.945 477.93 105.365 478.74 105.665 479.34L106.88 478.83C106.595 478.275 106.1 477.42 105.725 476.865ZM107.675 476.445L106.49 476.925C106.91 477.495 107.345 478.275 107.66 478.905L108.845 478.38C108.575 477.855 108.08 477 107.675 476.445ZM102.89 477.165H100.67C100.73 477.42 100.805 478.08 100.805 478.47V479.67H96.995C96.515 479.67 95.99 479.61 95.54 479.55V481.545C95.96 481.5 96.545 481.485 96.995 481.485H100.805V481.5C100.805 482.205 100.805 486.96 100.79 487.515C100.775 487.905 100.625 488.055 100.235 488.055C99.875 488.055 99.215 487.995 98.57 487.875L98.75 489.735C99.515 489.825 100.385 489.87 101.195 489.87C102.26 489.87 102.755 489.33 102.755 488.46V481.485H106.265C106.67 481.485 107.255 481.5 107.735 481.53V479.565C107.33 479.625 106.67 479.67 106.25 479.67H102.755V478.47C102.755 478.095 102.86 477.375 102.89 477.165ZM117.785 477.12L115.61 476.445C115.475 476.955 115.16 477.645 114.92 478.005C114.17 479.31 112.775 481.365 110.15 483L111.77 484.245C113.285 483.195 114.68 481.755 115.73 480.36H120.02C119.795 481.29 119.15 482.595 118.37 483.675C117.425 483.045 116.48 482.43 115.685 481.98L114.35 483.345C115.115 483.825 116.105 484.5 117.08 485.22C115.835 486.465 114.17 487.68 111.575 488.475L113.315 489.99C115.655 489.105 117.365 487.83 118.685 486.435C119.3 486.93 119.855 487.395 120.26 487.77L121.685 486.075C121.25 485.715 120.665 485.28 120.02 484.815C121.085 483.315 121.835 481.71 122.24 480.495C122.375 480.12 122.57 479.715 122.735 479.43L121.205 478.485C120.875 478.59 120.365 478.65 119.9 478.65H116.855C117.035 478.32 117.41 477.645 117.785 477.12ZM127.865 477.6L126.455 479.1C127.55 479.865 129.425 481.5 130.205 482.34L131.735 480.78C130.865 479.865 128.915 478.305 127.865 477.6ZM125.99 487.59L127.25 489.57C129.365 489.21 131.3 488.37 132.815 487.455C135.23 486 137.225 483.93 138.365 481.905L137.195 479.79C136.25 481.815 134.3 484.11 131.735 485.625C130.28 486.495 128.33 487.26 125.99 487.59Z" fill="#303030"/>
<path d="M193.5 467C193.5 455.954 202.454 447 213.5 447H303C314.046 447 323 455.954 323 467V497C323 508.046 314.046 517 303 517H213.5C202.454 517 193.5 508.046 193.5 497V467Z" fill="#A5A6F6"/>
<path d="M240.865 483.615L239.17 482.82C238.555 484.08 237.355 485.73 236.35 486.69L237.97 487.8C238.795 486.915 240.175 484.95 240.865 483.615ZM247.315 482.775L245.68 483.66C246.4 484.575 247.465 486.39 248.11 487.68L249.88 486.72C249.28 485.625 248.08 483.735 247.315 482.775ZM247.225 476.865L246.04 477.36C246.445 477.93 246.865 478.74 247.165 479.34L248.38 478.83C248.095 478.275 247.6 477.42 247.225 476.865ZM249.175 476.445L247.99 476.925C248.41 477.495 248.845 478.275 249.16 478.905L250.345 478.38C250.075 477.855 249.58 477 249.175 476.445ZM244.39 477.165H242.17C242.23 477.42 242.305 478.08 242.305 478.47V479.67H238.495C238.015 479.67 237.49 479.61 237.04 479.55V481.545C237.46 481.5 238.045 481.485 238.495 481.485H242.305V481.5C242.305 482.205 242.305 486.96 242.29 487.515C242.275 487.905 242.125 488.055 241.735 488.055C241.375 488.055 240.715 487.995 240.07 487.875L240.25 489.735C241.015 489.825 241.885 489.87 242.695 489.87C243.76 489.87 244.255 489.33 244.255 488.46V481.485H247.765C248.17 481.485 248.755 481.5 249.235 481.53V479.565C248.83 479.625 248.17 479.67 247.75 479.67H244.255V478.47C244.255 478.095 244.36 477.375 244.39 477.165ZM259.285 477.12L257.11 476.445C256.975 476.955 256.66 477.645 256.42 478.005C255.67 479.31 254.275 481.365 251.65 483L253.27 484.245C254.785 483.195 256.18 481.755 257.23 480.36H261.52C261.295 481.29 260.65 482.595 259.87 483.675C258.925 483.045 257.98 482.43 257.185 481.98L255.85 483.345C256.615 483.825 257.605 484.5 258.58 485.22C257.335 486.465 255.67 487.68 253.075 488.475L254.815 489.99C257.155 489.105 258.865 487.83 260.185 486.435C260.8 486.93 261.355 487.395 261.76 487.77L263.185 486.075C262.75 485.715 262.165 485.28 261.52 484.815C262.585 483.315 263.335 481.71 263.74 480.495C263.875 480.12 264.07 479.715 264.235 479.43L262.705 478.485C262.375 478.59 261.865 478.65 261.4 478.65H258.355C258.535 478.32 258.91 477.645 259.285 477.12ZM269.365 477.6L267.955 479.1C269.05 479.865 270.925 481.5 271.705 482.34L273.235 480.78C272.365 479.865 270.415 478.305 269.365 477.6ZM267.49 487.59L268.75 489.57C270.865 489.21 272.8 488.37 274.315 487.455C276.73 486 278.725 483.93 279.865 481.905L278.695 479.79C277.75 481.815 275.8 484.11 273.235 485.625C271.78 486.495 269.83 487.26 267.49 487.59Z" fill="#303030"/>
<path d="M52 549C52 537.954 60.9543 529 72 529H161.5C172.546 529 181.5 537.954 181.5 549V579C181.5 590.046 172.546 599 161.5 599H72C60.9543 599 52 590.046 52 579V549Z" fill="#A5A6F6"/>
<path d="M99.365 565.615L97.67 564.82C97.055 566.08 95.855 567.73 94.85 568.69L96.47 569.8C97.295 568.915 98.675 566.95 99.365 565.615ZM105.815 564.775L104.18 565.66C104.9 566.575 105.965 568.39 106.61 569.68L108.38 568.72C107.78 567.625 106.58 565.735 105.815 564.775ZM105.725 558.865L104.54 559.36C104.945 559.93 105.365 560.74 105.665 561.34L106.88 560.83C106.595 560.275 106.1 559.42 105.725 558.865ZM107.675 558.445L106.49 558.925C106.91 559.495 107.345 560.275 107.66 560.905L108.845 560.38C108.575 559.855 108.08 559 107.675 558.445ZM102.89 559.165H100.67C100.73 559.42 100.805 560.08 100.805 560.47V561.67H96.995C96.515 561.67 95.99 561.61 95.54 561.55V563.545C95.96 563.5 96.545 563.485 96.995 563.485H100.805V563.5C100.805 564.205 100.805 568.96 100.79 569.515C100.775 569.905 100.625 570.055 100.235 570.055C99.875 570.055 99.215 569.995 98.57 569.875L98.75 571.735C99.515 571.825 100.385 571.87 101.195 571.87C102.26 571.87 102.755 571.33 102.755 570.46V563.485H106.265C106.67 563.485 107.255 563.5 107.735 563.53V561.565C107.33 561.625 106.67 561.67 106.25 561.67H102.755V560.47C102.755 560.095 102.86 559.375 102.89 559.165ZM117.785 559.12L115.61 558.445C115.475 558.955 115.16 559.645 114.92 560.005C114.17 561.31 112.775 563.365 110.15 565L111.77 566.245C113.285 565.195 114.68 563.755 115.73 562.36H120.02C119.795 563.29 119.15 564.595 118.37 565.675C117.425 565.045 116.48 564.43 115.685 563.98L114.35 565.345C115.115 565.825 116.105 566.5 117.08 567.22C115.835 568.465 114.17 569.68 111.575 570.475L113.315 571.99C115.655 571.105 117.365 569.83 118.685 568.435C119.3 568.93 119.855 569.395 120.26 569.77L121.685 568.075C121.25 567.715 120.665 567.28 120.02 566.815C121.085 565.315 121.835 563.71 122.24 562.495C122.375 562.12 122.57 561.715 122.735 561.43L121.205 560.485C120.875 560.59 120.365 560.65 119.9 560.65H116.855C117.035 560.32 117.41 559.645 117.785 559.12ZM127.865 559.6L126.455 561.1C127.55 561.865 129.425 563.5 130.205 564.34L131.735 562.78C130.865 561.865 128.915 560.305 127.865 559.6ZM125.99 569.59L127.25 571.57C129.365 571.21 131.3 570.37 132.815 569.455C135.23 568 137.225 565.93 138.365 563.905L137.195 561.79C136.25 563.815 134.3 566.11 131.735 567.625C130.28 568.495 128.33 569.26 125.99 569.59Z" fill="#303030"/>
<path d="M193.5 549C193.5 537.954 202.454 529 213.5 529H303C314.046 529 323 537.954 323 549V579C323 590.046 314.046 599 303 599H213.5C202.454 599 193.5 590.046 193.5 579V549Z" fill="#A5A6F6"/>
<path d="M240.865 565.615L239.17 564.82C238.555 566.08 237.355 567.73 236.35 568.69L237.97 569.8C238.795 568.915 240.175 566.95 240.865 565.615ZM247.315 564.775L245.68 565.66C246.4 566.575 247.465 568.39 248.11 569.68L249.88 568.72C249.28 567.625 248.08 565.735 247.315 564.775ZM247.225 558.865L246.04 559.36C246.445 559.93 246.865 560.74 247.165 561.34L248.38 560.83C248.095 560.275 247.6 559.42 247.225 558.865ZM249.175 558.445L247.99 558.925C248.41 559.495 248.845 560.275 249.16 560.905L250.345 560.38C250.075 559.855 249.58 559 249.175 558.445ZM244.39 559.165H242.17C242.23 559.42 242.305 560.08 242.305 560.47V561.67H238.495C238.015 561.67 237.49 561.61 237.04 561.55V563.545C237.46 563.5 238.045 563.485 238.495 563.485H242.305V563.5C242.305 564.205 242.305 568.96 242.29 569.515C242.275 569.905 242.125 570.055 241.735 570.055C241.375 570.055 240.715 569.995 240.07 569.875L240.25 571.735C241.015 571.825 241.885 571.87 242.695 571.87C243.76 571.87 244.255 571.33 244.255 570.46V563.485H247.765C248.17 563.485 248.755 563.5 249.235 563.53V561.565C248.83 561.625 248.17 561.67 247.75 561.67H244.255V560.47C244.255 560.095 244.36 559.375 244.39 559.165ZM259.285 559.12L257.11 558.445C256.975 558.955 256.66 559.645 256.42 560.005C255.67 561.31 254.275 563.365 251.65 565L253.27 566.245C254.785 565.195 256.18 563.755 257.23 562.36H261.52C261.295 563.29 260.65 564.595 259.87 565.675C258.925 565.045 257.98 564.43 257.185 563.98L255.85 565.345C256.615 565.825 257.605 566.5 258.58 567.22C257.335 568.465 255.67 569.68 253.075 570.475L254.815 571.99C257.155 571.105 258.865 569.83 260.185 568.435C260.8 568.93 261.355 569.395 261.76 569.77L263.185 568.075C262.75 567.715 262.165 567.28 261.52 566.815C262.585 565.315 263.335 563.71 263.74 562.495C263.875 562.12 264.07 561.715 264.235 561.43L262.705 560.485C262.375 560.59 261.865 560.65 261.4 560.65H258.355C258.535 560.32 258.91 559.645 259.285 559.12ZM269.365 559.6L267.955 561.1C269.05 561.865 270.925 563.5 271.705 564.34L273.235 562.78C272.365 561.865 270.415 560.305 269.365 559.6ZM267.49 569.59L268.75 571.57C270.865 571.21 272.8 570.37 274.315 569.455C276.73 568 278.725 565.93 279.865 563.905L278.695 561.79C277.75 563.815 275.8 566.11 273.235 567.625C271.78 568.495 269.83 569.26 267.49 569.59Z" fill="#303030"/>
</g>
<g filter="url(#filter1_d_1370_47564)">
<path d="M327 525C327 513.954 335.954 505 347 505C358.046 505 367 513.954 367 525C367 536.046 358.046 545 347 545C335.954 545 327 536.046 327 525Z" fill="#616161"/>
<path d="M347 517L345.59 518.41L351.17 524H339V526H351.17L345.59 531.59L347 533L355 525L347 517Z" fill="white"/>
</g>
<g filter="url(#filter2_d_1370_47564)">
<path d="M8 525C8 513.954 16.9543 505 28 505C39.0457 505 48 513.954 48 525C48 536.046 39.0457 545 28 545C16.9543 545 8 536.046 8 525Z" fill="#616161"/>
<path d="M36 524H23.83L29.42 518.41L28 517L20 525L28 533L29.41 531.59L23.83 526H36V524Z" fill="white"/>
</g>
<rect width="187" height="48" transform="translate(0 619)" fill="#616161"/>
<path d="M57.8473 639.275L57.9973 641.225C58.3273 641.165 58.5673 641.135 58.8973 641.09C59.3323 641.03 60.2773 640.925 60.8623 640.865C59.4673 642.65 58.4473 644.465 58.4473 646.91C58.4473 649.64 60.5023 650.96 62.9023 650.96C67.1023 650.96 68.2723 647.72 68.0623 644.3C68.5723 645.185 69.1123 645.95 69.7273 646.64L70.9423 644.9C68.6473 642.785 68.0323 640.4 67.7473 638.525L65.8423 639.05C65.9323 639.32 66.0223 639.59 66.1123 639.86C67.3123 645.35 66.2773 648.935 62.9473 648.935C61.5073 648.935 60.3823 648.245 60.3823 646.49C60.3823 643.61 62.3923 641.3 63.4273 640.52C63.6523 640.385 63.9523 640.28 64.1773 640.19L63.6223 638.525C62.6173 638.885 60.1273 639.215 58.7023 639.275C58.4173 639.29 58.1173 639.29 57.8473 639.275ZM76.0232 638.045L74.1482 638.81C74.8232 640.4 75.5432 642.005 76.2332 643.28C74.7932 644.345 73.7432 645.59 73.7432 647.24C73.7432 649.82 76.0082 650.645 78.9932 650.645C80.9432 650.645 82.5332 650.495 83.8082 650.27L83.8382 648.11C82.5032 648.44 80.4782 648.665 78.9332 648.665C76.8482 648.665 75.8132 648.095 75.8132 647.015C75.8132 645.965 76.6532 645.11 77.8982 644.285C79.2632 643.4 81.1532 642.53 82.0832 642.065C82.6382 641.78 83.1182 641.525 83.5682 641.255L82.5332 639.515C82.1432 639.845 81.7082 640.1 81.1382 640.43C80.4332 640.835 79.1282 641.48 77.8982 642.2C77.2982 641.045 76.5932 639.605 76.0232 638.045ZM86.2827 641.78L87.1377 643.88C88.6977 643.205 92.2527 641.705 94.4577 641.705C96.2577 641.705 97.2327 642.785 97.2327 644.195C97.2327 646.805 94.0527 647.975 89.9877 648.08L90.8577 650.075C96.1377 649.805 99.3777 647.63 99.3777 644.225C99.3777 641.45 97.2477 639.89 94.5327 639.89C92.3427 639.89 89.2827 640.97 88.1277 641.33C87.5877 641.48 86.8377 641.69 86.2827 641.78ZM114.408 638.075H101.688V639.68H114.408V638.075ZM104.298 645.56C104.343 645.11 104.373 644.66 104.388 644.24H107.928C107.898 644.705 107.868 645.155 107.823 645.56H104.298ZM111.948 641.75V642.89H104.403V641.75H111.948ZM114.438 647.105V645.56H109.653C109.698 645.14 109.743 644.705 109.758 644.24H113.703V640.385H102.618V643.22C102.618 645.245 102.468 648.17 100.818 650.18C101.268 650.36 102.063 650.825 102.393 651.125C103.278 650.015 103.788 648.56 104.073 647.105H107.463C106.953 648.44 105.858 649.31 103.323 649.85C103.683 650.195 104.133 650.885 104.283 651.32C106.863 650.69 108.198 649.715 108.918 648.305C109.923 649.955 111.453 650.885 113.973 651.29C114.183 650.795 114.648 650.06 115.023 649.685C112.473 649.415 110.913 648.62 110.088 647.105H114.438ZM121.323 648.23C121.323 647.855 121.683 647.51 122.253 647.51C123.063 647.51 123.618 648.14 123.708 649.115C123.438 649.145 123.153 649.16 122.838 649.16C121.938 649.16 121.323 648.785 121.323 648.23ZM118.773 638.57L118.833 640.52C119.178 640.475 119.658 640.43 120.063 640.4C120.858 640.355 122.928 640.265 123.693 640.25C122.958 640.895 121.398 642.155 120.558 642.845C119.673 643.58 117.858 645.11 116.793 645.965L118.158 647.375C119.763 645.545 121.263 644.33 123.558 644.33C125.328 644.33 126.678 645.245 126.678 646.595C126.678 647.51 126.258 648.2 125.433 648.635C125.223 647.21 124.098 646.07 122.238 646.07C120.648 646.07 119.553 647.195 119.553 648.41C119.553 649.91 121.128 650.87 123.213 650.87C126.843 650.87 128.643 648.995 128.643 646.625C128.643 644.435 126.708 642.845 124.158 642.845C123.678 642.845 123.228 642.89 122.733 643.01C123.678 642.26 125.253 640.94 126.063 640.37C126.408 640.115 126.768 639.905 127.113 639.68L126.138 638.345C125.958 638.405 125.613 638.45 124.998 638.51C124.143 638.585 120.933 638.645 120.138 638.645C119.718 638.645 119.193 638.63 118.773 638.57Z" fill="white"/>
<rect width="187" height="48" transform="translate(188 619)" fill="#616161"/>
<path d="M241.21 648.56C241.21 649.16 241.15 650.06 241.06 650.66H243.4C243.34 650.045 243.265 648.995 243.265 648.56V644.315C244.885 644.87 247.135 645.74 248.68 646.55L249.535 644.48C248.155 643.805 245.275 642.74 243.265 642.155V639.935C243.265 639.32 243.34 638.66 243.4 638.135H241.06C241.165 638.66 241.21 639.41 241.21 639.935V648.56ZM259.075 641.09L257.29 641.675C257.665 642.455 258.325 644.27 258.505 645.005L260.305 644.375C260.095 643.685 259.36 641.735 259.075 641.09ZM264.61 642.185L262.51 641.51C262.33 643.385 261.61 645.38 260.59 646.655C259.345 648.215 257.26 649.355 255.61 649.79L257.185 651.395C258.94 650.735 260.815 649.475 262.21 647.675C263.23 646.355 263.86 644.795 264.25 643.28C264.34 642.98 264.43 642.665 264.61 642.185ZM255.595 641.885L253.795 642.53C254.155 643.19 254.905 645.185 255.16 645.995L256.99 645.305C256.69 644.465 255.97 642.65 255.595 641.885ZM278.56 639.005C278.56 638.525 278.95 638.135 279.43 638.135C279.895 638.135 280.285 638.525 280.285 639.005C280.285 639.47 279.895 639.86 279.43 639.86C278.95 639.86 278.56 639.47 278.56 639.005ZM277.63 639.005C277.63 639.11 277.645 639.2 277.66 639.29C277.345 639.335 277.015 639.35 276.805 639.35H269.86C269.365 639.35 268.51 639.29 268.075 639.23V641.345C268.45 641.315 269.17 641.285 269.86 641.285H276.835C276.64 642.575 276.07 644.27 275.08 645.515C273.865 647.045 272.17 648.35 269.2 649.04L270.835 650.84C273.505 649.97 275.515 648.485 276.865 646.685C278.125 645.02 278.77 642.695 279.115 641.225C279.16 641.09 279.19 640.94 279.235 640.775C279.295 640.79 279.37 640.79 279.43 640.79C280.405 640.79 281.215 639.98 281.215 639.005C281.215 638.015 280.405 637.205 279.43 637.205C278.44 637.205 277.63 638.015 277.63 639.005ZM288.22 639.515V641.435C290.11 641.615 292.825 641.6 294.67 641.435V639.5C293.05 639.695 290.065 639.77 288.22 639.515ZM289.42 645.92L287.695 645.755C287.53 646.52 287.44 647.12 287.44 647.705C287.44 649.25 288.685 650.165 291.265 650.165C292.96 650.165 294.16 650.06 295.135 649.88L295.105 647.855C293.785 648.125 292.675 648.245 291.34 648.245C289.81 648.245 289.24 647.84 289.24 647.18C289.24 646.775 289.3 646.415 289.42 645.92ZM285.91 638.51L283.81 638.33C283.795 638.81 283.705 639.38 283.66 639.8C283.495 640.955 283.03 643.49 283.03 645.74C283.03 647.78 283.315 649.61 283.615 650.645L285.355 650.525C285.34 650.315 285.325 650.075 285.325 649.91C285.325 649.76 285.355 649.43 285.4 649.205C285.565 648.41 286.06 646.775 286.48 645.53L285.55 644.795C285.34 645.29 285.1 645.815 284.875 646.325C284.83 646.025 284.815 645.635 284.815 645.35C284.815 643.85 285.34 640.85 285.535 639.845C285.595 639.575 285.79 638.825 285.91 638.51ZM310.435 638.075H297.715V639.68H310.435V638.075ZM300.325 645.56C300.37 645.11 300.4 644.66 300.415 644.24H303.955C303.925 644.705 303.895 645.155 303.85 645.56H300.325ZM307.975 641.75V642.89H300.43V641.75H307.975ZM310.465 647.105V645.56H305.68C305.725 645.14 305.77 644.705 305.785 644.24H309.73V640.385H298.645V643.22C298.645 645.245 298.495 648.17 296.845 650.18C297.295 650.36 298.09 650.825 298.42 651.125C299.305 650.015 299.815 648.56 300.1 647.105H303.49C302.98 648.44 301.885 649.31 299.35 649.85C299.71 650.195 300.16 650.885 300.31 651.32C302.89 650.69 304.225 649.715 304.945 648.305C305.95 649.955 307.48 650.885 310 651.29C310.21 650.795 310.675 650.06 311.05 649.685C308.5 649.415 306.94 648.62 306.115 647.105H310.465ZM317.35 648.23C317.35 647.855 317.71 647.51 318.28 647.51C319.09 647.51 319.645 648.14 319.735 649.115C319.465 649.145 319.18 649.16 318.865 649.16C317.965 649.16 317.35 648.785 317.35 648.23ZM314.8 638.57L314.86 640.52C315.205 640.475 315.685 640.43 316.09 640.4C316.885 640.355 318.955 640.265 319.72 640.25C318.985 640.895 317.425 642.155 316.585 642.845C315.7 643.58 313.885 645.11 312.82 645.965L314.185 647.375C315.79 645.545 317.29 644.33 319.585 644.33C321.355 644.33 322.705 645.245 322.705 646.595C322.705 647.51 322.285 648.2 321.46 648.635C321.25 647.21 320.125 646.07 318.265 646.07C316.675 646.07 315.58 647.195 315.58 648.41C315.58 649.91 317.155 650.87 319.24 650.87C322.87 650.87 324.67 648.995 324.67 646.625C324.67 644.435 322.735 642.845 320.185 642.845C319.705 642.845 319.255 642.89 318.76 643.01C319.705 642.26 321.28 640.94 322.09 640.37C322.435 640.115 322.795 639.905 323.14 639.68L322.165 638.345C321.985 638.405 321.64 638.45 321.025 638.51C320.17 638.585 316.96 638.645 316.165 638.645C315.745 638.645 315.22 638.63 314.8 638.57Z" fill="white"/>
<defs>
<filter id="filter0_bd_1370_47564" x="6" y="421" width="363" height="208" filterUnits="userSpaceOnUse" color-interpolation-filters="sRGB">
<feFlood flood-opacity="0" result="BackgroundImageFix"/>
<feGaussianBlur in="BackgroundImage" stdDeviation="5"/>
<feComposite in2="SourceAlpha" operator="in" result="effect1_backgroundBlur_1370_47564"/>
<feColorMatrix in="SourceAlpha" type="matrix" values="0 0 0 0 0 0 0 0 0 0 0 0 0 0 0 0 0 0 127 0" result="hardAlpha"/>
<feOffset dy="4"/>
<feGaussianBlur stdDeviation="3"/>
<feColorMatrix type="matrix" values="0 0 0 0 0 0 0 0 0 0 0 0 0 0 0 0 0 0 0.2 0"/>
<feBlend mode="normal" in2="effect1_backgroundBlur_1370_47564" result="effect2_dropShadow_1370_47564"/>
<feBlend mode="normal" in="SourceGraphic" in2="effect2_dropShadow_1370_47564" result="shape"/>
</filter>
<filter id="filter1_d_1370_47564" x="319" y="501" width="56" height="56" filterUnits="userSpaceOnUse" color-interpolation-filters="sRGB">
<feFlood flood-opacity="0" result="BackgroundImageFix"/>
<feColorMatrix in="SourceAlpha" type="matrix" values="0 0 0 0 0 0 0 0 0 0 0 0 0 0 0 0 0 0 127 0" result="hardAlpha"/>
<feOffset dy="4"/>
<feGaussianBlur stdDeviation="4"/>
<feColorMatrix type="matrix" values="0 0 0 0 0.188235 0 0 0 0 0.188235 0 0 0 0 0.188235 0 0 0 1 0"/>
<feBlend mode="normal" in2="BackgroundImageFix" result="effect1_dropShadow_1370_47564"/>
<feBlend mode="normal" in="SourceGraphic" in2="effect1_dropShadow_1370_47564" result="shape"/>
</filter>
<filter id="filter2_d_1370_47564" x="0" y="501" width="56" height="56" filterUnits="userSpaceOnUse" color-interpolation-filters="sRGB">
<feFlood flood-opacity="0" result="BackgroundImageFix"/>
<feColorMatrix in="SourceAlpha" type="matrix" values="0 0 0 0 0 0 0 0 0 0 0 0 0 0 0 0 0 0 127 0" result="hardAlpha"/>
<feOffset dy="4"/>
<feGaussianBlur stdDeviation="4"/>
<feColorMatrix type="matrix" values="0 0 0 0 0.188235 0 0 0 0 0.188235 0 0 0 0 0.188235 0 0 0 1 0"/>
<feBlend mode="normal" in2="BackgroundImageFix" result="effect1_dropShadow_1370_47564"/>
<feBlend mode="normal" in="SourceGraphic" in2="effect1_dropShadow_1370_47564" result="shape"/>
</filter>
</defs>
</svg>
