<svg width="375" height="667" viewBox="0 0 375 667" fill="none" xmlns="http://www.w3.org/2000/svg">
<rect width="375" height="561.98" fill="#7879F1"/>
<path d="M131.69 298.695C133.25 297.54 134.585 296.19 135.44 294.975C136.31 296.19 137.75 297.555 139.31 298.695H131.69ZM136.385 303.555H140.585V301.995H136.385V300.27H139.895V299.1C140.435 299.475 140.975 299.805 141.515 300.105C141.845 299.55 142.235 298.98 142.7 298.5C140.33 297.495 137.885 295.53 136.28 293.25H134.435C133.325 295.08 130.91 297.39 128.345 298.68C128.75 299.055 129.245 299.7 129.47 300.12C130.04 299.805 130.595 299.46 131.135 299.085V300.27H134.525V301.995H130.37V303.555H134.525V305.34H129.17V306.945H141.935V305.34H136.385V303.555ZM155.045 304.74H145.985V296.85H144.245V307.305H145.985V306.42H155.045V307.29H156.77V296.85H155.045V304.74ZM152.525 299.775H151.22V298.515H152.525V299.775ZM152.525 302.4H151.22V301.125H152.525V302.4ZM148.385 301.125H149.69V302.4H148.385V301.125ZM148.385 298.515H149.69V299.775H148.385V298.515ZM143.795 294.195V295.86H149.555V297.06H146.93V303.855H154.07V297.06H151.34V295.86H157.22V294.195H143.795ZM169.775 304.905H168.155V298.83H169.775V304.905ZM161.12 298.83H162.65V304.905H161.12V298.83ZM166.55 299.865H164.255V298.83H166.55V299.865ZM164.255 303.795H166.55V304.905H164.255V303.795ZM166.55 302.4H164.255V301.26H166.55V302.4ZM172.28 295.83V294.15H158.78V295.83H164.255C164.195 296.28 164.105 296.745 164.015 297.18H159.395V307.305H161.12V306.54H169.775V307.305H171.59V297.18H165.89C166.01 296.745 166.16 296.295 166.295 295.83H172.28ZM186.095 306.33C186.065 305.88 186.035 305.085 186.035 304.56V296.79C186.035 296.355 186.065 295.755 186.08 295.41C185.825 295.425 185.195 295.44 184.76 295.44H177.215C176.69 295.44 175.91 295.41 175.355 295.35V297.435C175.775 297.405 176.585 297.375 177.215 297.375H183.95V303.585H177.035C176.36 303.585 175.685 303.54 175.16 303.495V305.64C175.655 305.595 176.51 305.55 177.095 305.55H183.935C183.935 305.835 183.935 306.09 183.92 306.33H186.095ZM191.615 294.6L190.205 296.1C191.3 296.865 193.175 298.5 193.955 299.34L195.485 297.765C194.615 296.865 192.665 295.305 191.615 294.6ZM189.74 304.59L191 306.57C193.115 306.21 195.05 305.37 196.565 304.455C198.98 303 200.975 300.93 202.115 298.905L200.945 296.79C200 298.815 198.035 301.11 195.485 302.625C194.03 303.495 192.08 304.26 189.74 304.59ZM213.65 296.37C214.175 296.37 214.745 296.4 215.27 296.43V294.495C214.76 294.57 214.16 294.6 213.65 294.6H207.62C207.125 294.6 206.51 294.57 206.03 294.495V296.43C206.48 296.4 207.11 296.37 207.635 296.37H213.65ZM205.715 298.425C205.25 298.425 204.725 298.38 204.275 298.335V300.3C204.695 300.27 205.28 300.24 205.715 300.24H209.84C209.78 301.5 209.525 302.625 208.91 303.555C208.31 304.425 207.26 305.295 206.195 305.7L207.95 306.975C209.285 306.3 210.44 305.13 210.965 304.095C211.505 303.045 211.835 301.785 211.925 300.24H215.54C215.96 300.24 216.53 300.255 216.905 300.285V298.335C216.5 298.395 215.855 298.425 215.54 298.425H205.715ZM221.615 294.6L220.205 296.1C221.3 296.865 223.175 298.5 223.955 299.34L225.485 297.765C224.615 296.865 222.665 295.305 221.615 294.6ZM219.74 304.59L221 306.57C223.115 306.21 225.05 305.37 226.565 304.455C228.98 303 230.975 300.93 232.115 298.905L230.945 296.79C230 298.815 228.035 301.11 225.485 302.625C224.03 303.495 222.08 304.26 219.74 304.59ZM240.095 294.315L238.22 294.93C238.67 295.86 239.495 298.035 239.78 298.995L241.67 298.335C241.385 297.36 240.47 295.05 240.095 294.315ZM244.7 294.87C244.475 296.925 243.62 299.61 242.39 301.17C240.86 303.105 238.52 304.455 236.465 305.04L238.145 306.72C240.29 305.91 242.465 304.395 244.04 302.325C245.285 300.69 246.14 298.305 246.56 296.685C246.65 296.34 246.785 295.89 246.935 295.515L244.7 294.87ZM235.925 295.245L234.005 295.905C234.44 296.715 235.43 299.175 235.73 300.15L237.665 299.445C237.32 298.425 236.39 296.19 235.925 295.245Z" fill="white"/>
<path d="M175.586 279.364C179.252 279.364 182.346 277.31 182.346 273.774C182.346 271.252 180.682 269.64 178.498 269.042V268.912C180.552 268.106 181.722 266.598 181.722 264.518C181.722 261.216 179.2 259.396 175.482 259.396C173.22 259.396 171.374 260.306 169.71 261.762L171.66 264.102C172.804 263.062 173.922 262.412 175.3 262.386C176.938 262.412 177.874 263.296 177.874 264.804C177.874 266.52 176.73 267.742 173.194 267.742V270.498C177.38 270.498 178.498 271.668 178.498 273.566C178.498 275.282 177.172 276.244 175.222 276.244C173.48 276.244 172.076 275.386 170.932 274.268L169.138 276.686C170.49 278.22 172.544 279.364 175.586 279.364ZM187.984 269.484C189.362 269.484 190.376 268.418 190.376 267.014C190.376 265.584 189.362 264.518 187.984 264.518C186.632 264.518 185.618 265.584 185.618 267.014C185.618 268.418 186.632 269.484 187.984 269.484ZM187.984 279.364C189.362 279.364 190.376 278.272 190.376 276.868C190.376 275.464 189.362 274.372 187.984 274.372C186.632 274.372 185.618 275.464 185.618 276.868C185.618 278.272 186.632 279.364 187.984 279.364ZM193.346 279H206.242V275.776H202.056C201.172 275.776 199.898 275.88 198.936 275.984C202.446 272.552 205.332 268.808 205.332 265.324C205.332 261.736 202.914 259.396 199.274 259.396C196.648 259.396 194.932 260.436 193.164 262.308L195.244 264.388C196.206 263.322 197.376 262.412 198.78 262.412C200.6 262.412 201.666 263.582 201.666 265.532C201.666 268.496 198.572 272.11 193.346 276.79V279Z" fill="white"/>
<rect width="375" height="48" transform="translate(0 619)" fill="#616161"/>
<path d="M147.21 648.56C147.21 649.16 147.15 650.06 147.06 650.66H149.4C149.34 650.045 149.265 648.995 149.265 648.56V644.315C150.885 644.87 153.135 645.74 154.68 646.55L155.535 644.48C154.155 643.805 151.275 642.74 149.265 642.155V639.935C149.265 639.32 149.34 638.66 149.4 638.135H147.06C147.165 638.66 147.21 639.41 147.21 639.935V648.56ZM165.075 641.09L163.29 641.675C163.665 642.455 164.325 644.27 164.505 645.005L166.305 644.375C166.095 643.685 165.36 641.735 165.075 641.09ZM170.61 642.185L168.51 641.51C168.33 643.385 167.61 645.38 166.59 646.655C165.345 648.215 163.26 649.355 161.61 649.79L163.185 651.395C164.94 650.735 166.815 649.475 168.21 647.675C169.23 646.355 169.86 644.795 170.25 643.28C170.34 642.98 170.43 642.665 170.61 642.185ZM161.595 641.885L159.795 642.53C160.155 643.19 160.905 645.185 161.16 645.995L162.99 645.305C162.69 644.465 161.97 642.65 161.595 641.885ZM184.56 639.005C184.56 638.525 184.95 638.135 185.43 638.135C185.895 638.135 186.285 638.525 186.285 639.005C186.285 639.47 185.895 639.86 185.43 639.86C184.95 639.86 184.56 639.47 184.56 639.005ZM183.63 639.005C183.63 639.11 183.645 639.2 183.66 639.29C183.345 639.335 183.015 639.35 182.805 639.35H175.86C175.365 639.35 174.51 639.29 174.075 639.23V641.345C174.45 641.315 175.17 641.285 175.86 641.285H182.835C182.64 642.575 182.07 644.27 181.08 645.515C179.865 647.045 178.17 648.35 175.2 649.04L176.835 650.84C179.505 649.97 181.515 648.485 182.865 646.685C184.125 645.02 184.77 642.695 185.115 641.225C185.16 641.09 185.19 640.94 185.235 640.775C185.295 640.79 185.37 640.79 185.43 640.79C186.405 640.79 187.215 639.98 187.215 639.005C187.215 638.015 186.405 637.205 185.43 637.205C184.44 637.205 183.63 638.015 183.63 639.005ZM194.22 639.515V641.435C196.11 641.615 198.825 641.6 200.67 641.435V639.5C199.05 639.695 196.065 639.77 194.22 639.515ZM195.42 645.92L193.695 645.755C193.53 646.52 193.44 647.12 193.44 647.705C193.44 649.25 194.685 650.165 197.265 650.165C198.96 650.165 200.16 650.06 201.135 649.88L201.105 647.855C199.785 648.125 198.675 648.245 197.34 648.245C195.81 648.245 195.24 647.84 195.24 647.18C195.24 646.775 195.3 646.415 195.42 645.92ZM191.91 638.51L189.81 638.33C189.795 638.81 189.705 639.38 189.66 639.8C189.495 640.955 189.03 643.49 189.03 645.74C189.03 647.78 189.315 649.61 189.615 650.645L191.355 650.525C191.34 650.315 191.325 650.075 191.325 649.91C191.325 649.76 191.355 649.43 191.4 649.205C191.565 648.41 192.06 646.775 192.48 645.53L191.55 644.795C191.34 645.29 191.1 645.815 190.875 646.325C190.83 646.025 190.815 645.635 190.815 645.35C190.815 643.85 191.34 640.85 191.535 639.845C191.595 639.575 191.79 638.825 191.91 638.51ZM216.435 638.075H203.715V639.68H216.435V638.075ZM206.325 645.56C206.37 645.11 206.4 644.66 206.415 644.24H209.955C209.925 644.705 209.895 645.155 209.85 645.56H206.325ZM213.975 641.75V642.89H206.43V641.75H213.975ZM216.465 647.105V645.56H211.68C211.725 645.14 211.77 644.705 211.785 644.24H215.73V640.385H204.645V643.22C204.645 645.245 204.495 648.17 202.845 650.18C203.295 650.36 204.09 650.825 204.42 651.125C205.305 650.015 205.815 648.56 206.1 647.105H209.49C208.98 648.44 207.885 649.31 205.35 649.85C205.71 650.195 206.16 650.885 206.31 651.32C208.89 650.69 210.225 649.715 210.945 648.305C211.95 649.955 213.48 650.885 216 651.29C216.21 650.795 216.675 650.06 217.05 649.685C214.5 649.415 212.94 648.62 212.115 647.105H216.465ZM223.35 648.23C223.35 647.855 223.71 647.51 224.28 647.51C225.09 647.51 225.645 648.14 225.735 649.115C225.465 649.145 225.18 649.16 224.865 649.16C223.965 649.16 223.35 648.785 223.35 648.23ZM220.8 638.57L220.86 640.52C221.205 640.475 221.685 640.43 222.09 640.4C222.885 640.355 224.955 640.265 225.72 640.25C224.985 640.895 223.425 642.155 222.585 642.845C221.7 643.58 219.885 645.11 218.82 645.965L220.185 647.375C221.79 645.545 223.29 644.33 225.585 644.33C227.355 644.33 228.705 645.245 228.705 646.595C228.705 647.51 228.285 648.2 227.46 648.635C227.25 647.21 226.125 646.07 224.265 646.07C222.675 646.07 221.58 647.195 221.58 648.41C221.58 649.91 223.155 650.87 225.24 650.87C228.87 650.87 230.67 648.995 230.67 646.625C230.67 644.435 228.735 642.845 226.185 642.845C225.705 642.845 225.255 642.89 224.76 643.01C225.705 642.26 227.28 640.94 228.09 640.37C228.435 640.115 228.795 639.905 229.14 639.68L228.165 638.345C227.985 638.405 227.64 638.45 227.025 638.51C226.17 638.585 222.96 638.645 222.165 638.645C221.745 638.645 221.22 638.63 220.8 638.57Z" fill="white"/>
</svg>
