<svg width="375" height="667" viewBox="0 0 375 667" fill="none" xmlns="http://www.w3.org/2000/svg">
<rect width="375" height="667" fill="white"/>
<rect width="343" height="215" transform="matrix(1 0 0 -1 16 334)" fill="#7879F1"/>
<rect width="375" height="50" fill="#4A4A4A"/>
<path d="M118.453 19.84C118.389 20.192 118.245 20.704 118.133 21.024C117.653 22.384 116.997 23.888 115.973 25.376C114.709 24.4 112.853 23.088 111.493 22.224L110.645 23.232C112.181 24.176 113.957 25.488 115.141 26.464C113.573 28.4 111.589 30.16 108.789 31.488L109.925 32.496C112.709 31.056 114.693 29.152 116.181 27.328C117.557 28.512 118.773 29.648 119.957 31.008L120.965 29.888C119.829 28.672 118.453 27.424 117.029 26.24C118.101 24.688 118.917 22.928 119.429 21.52C119.557 21.184 119.797 20.656 119.957 20.352L118.453 19.84ZM130.859 22.784L129.691 23.184C130.027 23.904 130.763 25.936 130.939 26.656L132.123 26.24C131.915 25.536 131.131 23.424 130.859 22.784ZM135.275 23.248C135.035 25.296 134.203 27.328 133.067 28.72C131.755 30.368 129.723 31.584 127.867 32.112L128.923 33.2C130.715 32.512 132.667 31.264 134.139 29.392C135.291 27.952 135.979 26.24 136.411 24.48C136.475 24.272 136.539 24.016 136.651 23.68L135.275 23.248ZM127.147 23.584L125.963 24.048C126.283 24.608 127.147 26.816 127.387 27.648L128.603 27.2C128.299 26.368 127.467 24.272 127.147 23.584ZM149.793 28.096C151.073 26.768 152.321 24.768 153.057 23.44C153.169 23.232 153.345 22.96 153.457 22.8L152.513 22.064C152.321 22.176 152.017 22.272 151.665 22.352C150.993 22.496 148.193 23.072 145.473 23.6V21.104C145.473 20.64 145.505 20.096 145.585 19.632H144.065C144.145 20.096 144.177 20.624 144.177 21.104V23.84C142.481 24.16 140.961 24.432 140.241 24.528L140.497 25.872C141.137 25.728 142.561 25.424 144.177 25.104V29.936C144.177 31.52 144.721 32.288 147.697 32.288C149.697 32.288 151.297 32.16 152.721 31.968L152.785 30.592C151.185 30.896 149.649 31.056 147.793 31.056C145.873 31.056 145.473 30.704 145.473 29.6V24.848C148.305 24.272 151.249 23.68 151.521 23.616C151.041 24.576 149.873 26.336 148.673 27.424L149.793 28.096ZM157.063 26.64C157.559 26.592 158.407 26.56 159.287 26.56H168.071C168.791 26.56 169.463 26.624 169.783 26.64V25.072C169.431 25.104 168.855 25.152 168.055 25.152H159.287C158.391 25.152 157.543 25.104 157.063 25.072V26.64ZM182.725 20.064L181.845 20.448C182.373 21.168 182.901 22.112 183.301 22.96L184.213 22.544C183.845 21.792 183.125 20.64 182.725 20.064ZM184.821 19.296L183.925 19.68C184.453 20.4 185.013 21.312 185.445 22.16L186.357 21.744C185.957 21.008 185.253 19.856 184.821 19.296ZM175.893 19.824L175.173 20.896C176.101 21.44 177.845 22.592 178.613 23.184L179.365 22.08C178.677 21.584 176.837 20.352 175.893 19.824ZM173.493 31.264L174.229 32.56C175.717 32.256 177.925 31.52 179.525 30.576C182.085 29.072 184.293 27.008 185.685 24.864L184.917 23.536C183.621 25.792 181.509 27.888 178.853 29.408C177.237 30.32 175.253 30.96 173.493 31.264ZM173.477 23.424L172.757 24.512C173.733 25.008 175.461 26.128 176.261 26.704L176.997 25.584C176.293 25.088 174.421 23.936 173.477 23.424ZM203.003 20.64C202.699 20.048 202.075 19.04 201.659 18.464L200.811 18.816C201.259 19.424 201.787 20.336 202.139 21.024L203.003 20.64ZM201.211 21.296C200.875 20.656 200.283 19.664 199.883 19.104L199.035 19.456C199.467 20.064 200.011 21.04 200.331 21.68L201.211 21.296ZM192.731 19.472C192.747 20.544 192.555 21.776 192.331 22.912C191.371 22.992 190.459 23.072 189.931 23.088C189.419 23.104 189.019 23.104 188.523 23.088L188.651 24.48C189.051 24.4 189.691 24.336 190.075 24.288C190.491 24.24 191.243 24.16 192.075 24.08C191.531 26.192 190.363 29.76 188.747 31.92L190.043 32.448C191.707 29.792 192.795 26.224 193.371 23.952C194.059 23.888 194.683 23.84 195.067 23.84C196.091 23.84 196.747 24.096 196.747 25.536C196.747 27.248 196.507 29.312 195.995 30.368C195.659 31.056 195.195 31.184 194.619 31.184C194.171 31.184 193.339 31.056 192.667 30.832L192.875 32.192C193.387 32.304 194.139 32.416 194.747 32.416C195.771 32.416 196.555 32.16 197.067 31.104C197.723 29.776 197.979 27.28 197.979 25.392C197.979 23.248 196.827 22.688 195.403 22.688C195.019 22.688 194.363 22.736 193.627 22.8C193.803 21.952 193.947 21.024 194.043 20.56C194.091 20.24 194.171 19.92 194.235 19.616L192.731 19.472ZM198.507 21.968C199.611 23.264 200.859 26.032 201.339 27.664L202.571 27.056C202.043 25.584 200.667 22.704 199.675 21.424L198.507 21.968ZM207.249 19.584V20.768H211.185C211.217 21.376 211.281 22.08 211.393 22.816L210.689 22.704C209.713 27.184 207.745 30.4 204.209 32.24C204.529 32.448 205.057 32.944 205.281 33.184C208.465 31.312 210.481 28.4 211.665 24.256C212.385 27.28 214.081 30.784 218.017 33.168C218.225 32.88 218.705 32.368 218.977 32.176C212.705 28.448 212.337 22.416 212.337 19.584H207.249ZM223.767 19.376C223.751 19.76 223.703 20.24 223.639 20.736C223.447 22.016 223.159 24.352 223.159 25.856C223.159 26.88 223.239 27.776 223.319 28.368L224.567 28.272C224.455 27.488 224.455 26.944 224.535 26.336C224.727 24.256 226.551 21.392 228.519 21.392C230.199 21.392 231.031 23.184 231.031 25.68C231.031 29.664 228.343 31.04 224.903 31.568L225.655 32.72C229.591 32 232.359 30.064 232.359 25.664C232.359 22.336 230.839 20.224 228.727 20.224C226.727 20.224 225.063 22.192 224.439 23.824C224.535 22.72 224.839 20.592 225.175 19.424L223.767 19.376ZM243.885 30.144C243.885 31.232 243.117 31.504 242.205 31.504C240.637 31.504 240.013 30.96 240.013 30.224C240.013 29.504 240.829 28.928 242.333 28.928C242.861 28.928 243.373 28.976 243.869 29.072C243.869 29.504 243.885 29.872 243.885 30.144ZM249.661 30.688C248.765 29.968 247.149 28.8 245.053 28.224C245.021 27.472 244.973 26.64 244.941 25.824C246.445 25.76 247.853 25.648 249.341 25.456L249.325 24.256C247.901 24.464 246.445 24.608 244.925 24.672V24.496V22.4C246.413 22.32 247.773 22.192 249.021 22.064L249.005 20.896C247.613 21.104 246.317 21.232 244.941 21.28C244.941 20.896 244.941 20.592 244.957 20.4C244.973 19.936 244.989 19.632 245.037 19.344H243.677C243.709 19.568 243.725 20.032 243.725 20.288V21.328C243.453 21.328 243.181 21.328 242.909 21.328C241.853 21.328 240.157 21.2 239.197 21.024V22.208C240.141 22.32 241.821 22.448 242.925 22.448C243.197 22.448 243.453 22.448 243.709 22.448V24.496V24.72C243.437 24.72 243.149 24.72 242.861 24.72C241.821 24.72 239.949 24.608 238.877 24.416V25.632C240.013 25.76 241.773 25.856 242.861 25.856C243.165 25.856 243.453 25.856 243.741 25.856C243.757 26.512 243.789 27.264 243.821 27.968C243.389 27.904 242.957 27.872 242.493 27.872C240.205 27.872 238.813 28.848 238.813 30.288C238.813 31.824 240.077 32.64 242.349 32.64C244.413 32.64 245.149 31.504 245.149 30.416C245.149 30.176 245.133 29.824 245.117 29.424C246.701 30 248.013 30.96 248.941 31.808L249.661 30.688ZM259.699 28.256C258.819 28.256 258.083 27.68 258.083 26.688C258.083 25.664 258.867 25.024 259.683 25.024C260.307 25.024 260.835 25.312 261.091 26C261.235 27.504 260.627 28.256 259.699 28.256ZM262.147 22.528C264.467 22.528 265.907 22.56 266.803 22.608L266.819 21.408C266.051 21.408 264.099 21.392 262.179 21.392H261.939C261.939 20.976 261.955 20.608 261.955 20.368L262.035 19.376H260.579C260.611 19.568 260.659 20.032 260.675 20.368C260.691 20.592 260.707 20.96 260.707 21.408C258.355 21.44 255.379 21.536 253.619 21.568L253.651 22.816C255.635 22.672 258.323 22.56 260.723 22.544C260.739 23.088 260.739 23.648 260.739 24.112C260.419 24 260.067 23.936 259.683 23.936C258.179 23.936 256.883 25.136 256.883 26.704C256.883 28.416 258.163 29.36 259.507 29.36C260.035 29.36 260.483 29.232 260.867 28.96C260.211 30.368 258.739 31.232 256.659 31.712L257.763 32.784C261.443 31.68 262.483 29.296 262.483 27.152C262.483 26.368 262.307 25.664 261.971 25.12C261.955 24.4 261.939 23.424 261.939 22.528H262.147Z" fill="white"/>
<rect x="16" y="65" width="343" height="15" rx="7.5" fill="#F2F2F2"/>
<rect x="16" y="89" width="343" height="15" rx="7.5" fill="#F2F2F2"/>
<line x1="16" y1="413.5" x2="360" y2="413.5" stroke="#D2D2D2"/>
<rect x="16.5" y="434" width="343" height="15" rx="7.5" fill="#F2F2F2"/>
<rect x="16.5" y="458" width="343" height="15" rx="7.5" fill="#F2F2F2"/>
<path d="M29.145 498.975L26.91 498.195C26.85 498.585 26.685 499.185 26.55 499.575C26.16 500.76 25.65 501.945 24.885 503.145C23.67 502.245 22.095 501.165 20.895 500.43L19.62 501.96C21.15 502.89 22.59 503.955 23.67 504.81C22.185 506.595 20.415 508.05 17.97 509.235L19.65 510.75C22.185 509.37 23.91 507.705 25.23 506.115C26.43 507.15 27.51 508.2 28.56 509.43L30.105 507.72C29.085 506.64 27.825 505.485 26.505 504.405C27.39 503.025 28.065 501.51 28.515 500.325C28.665 499.98 28.95 499.32 29.145 498.975ZM32.88 503.055V505.41C33.435 505.365 34.44 505.335 35.295 505.335H43.35C43.98 505.335 44.745 505.395 45.105 505.41V503.055C44.715 503.085 44.055 503.145 43.35 503.145H35.295C34.515 503.145 33.42 503.1 32.88 503.055ZM54.045 509.67L55.305 510.705C55.44 510.585 55.62 510.435 55.95 510.255C57.63 509.4 59.79 507.78 61.035 506.16L59.88 504.51C58.875 505.965 57.39 507.15 56.175 507.675V499.83C56.175 499.155 56.265 498.57 56.28 498.525H54.045C54.06 498.57 54.165 499.14 54.165 499.815V508.56C54.165 508.965 54.105 509.385 54.045 509.67ZM47.1 509.445L48.93 510.66C50.205 509.52 51.15 508.05 51.6 506.355C52.005 504.84 52.05 501.675 52.05 499.905C52.05 499.275 52.14 498.615 52.155 498.54H49.95C50.04 498.915 50.085 499.32 50.085 499.92C50.085 501.735 50.07 504.57 49.65 505.86C49.23 507.135 48.42 508.515 47.1 509.445ZM75.825 499.845L74.64 498.735C74.355 498.825 73.53 498.87 73.11 498.87H65.025C64.395 498.87 63.765 498.81 63.195 498.72V500.805C63.9 500.745 64.395 500.7 65.025 500.7H72.84C72.45 501.435 71.28 502.755 70.08 503.49L71.64 504.735C73.11 503.685 74.535 501.795 75.24 500.625C75.375 500.4 75.66 500.04 75.825 499.845ZM69.705 501.87H67.53C67.605 502.35 67.635 502.755 67.635 503.22C67.635 505.68 67.275 507.27 65.37 508.59C64.815 508.995 64.275 509.25 63.795 509.415L65.55 510.84C69.63 508.65 69.705 505.59 69.705 501.87ZM86.73 498.84L85.47 499.365C86.025 500.145 86.355 500.745 86.79 501.69L88.095 501.105C87.75 500.43 87.15 499.47 86.73 498.84ZM88.695 498.015L87.45 498.6C88.005 499.35 88.365 499.905 88.845 500.85L90.105 500.235C89.76 499.56 89.13 498.615 88.695 498.015ZM80.745 508.785C80.745 509.37 80.685 510.285 80.595 510.87H82.95C82.875 510.255 82.8 509.205 82.8 508.785V504.54C84.42 505.08 86.67 505.95 88.23 506.775L89.07 504.69C87.69 504.015 84.795 502.95 82.8 502.35V500.16C82.8 499.53 82.875 498.87 82.935 498.345H80.595C80.7 498.885 80.745 499.62 80.745 500.16V508.785ZM94.425 509.4L95.85 510.63C96.195 510.405 96.525 510.3 96.735 510.225C100.275 509.07 103.38 507.285 105.435 504.825L104.37 503.13C102.45 505.47 99.105 507.39 96.66 508.095V500.295C96.66 499.71 96.72 499.17 96.81 498.585H94.455C94.545 499.02 94.62 499.725 94.62 500.295V508.425C94.62 508.77 94.605 509.025 94.425 509.4ZM119.01 499.83L117.78 498.915C117.48 499.02 116.88 499.11 116.235 499.11H110.94C110.49 499.11 109.575 499.065 109.17 499.005V501.135C109.485 501.12 110.31 501.03 110.94 501.03H116.025C115.695 502.095 114.78 503.58 113.79 504.705C112.38 506.28 110.055 508.11 107.64 509.01L109.185 510.63C111.24 509.655 113.235 508.095 114.825 506.415C116.235 507.78 117.63 509.31 118.605 510.66L120.315 509.175C119.43 508.095 117.615 506.175 116.13 504.885C117.135 503.535 117.975 501.93 118.485 500.76C118.62 500.46 118.89 499.995 119.01 499.83Z" fill="#303030"/>
<rect x="17" y="523.5" width="342" height="39" rx="7.5" fill="white"/>
<path d="M41.504 537.282C41.224 537.982 40.65 538.99 40.202 539.634L41.056 539.942C41.518 539.354 42.078 538.43 42.568 537.632L41.504 537.282ZM43.744 543.75V542.812H39.726C39.74 542.686 39.74 542.56 39.74 542.434V540.866H43.324V539.942H37.29L38.13 539.564C37.934 538.934 37.402 538.01 36.856 537.338L35.974 537.688C36.492 538.374 37.01 539.312 37.178 539.942H35.428V540.866H38.704V542.42C38.704 542.546 38.704 542.672 38.69 542.812H34.98V543.75H38.578C38.326 544.954 37.514 546.284 35.092 547.264C35.316 547.46 35.638 547.824 35.778 548.034C38.004 547.04 38.998 545.752 39.432 544.492C40.118 546.27 41.294 547.46 43.114 548.09C43.254 547.824 43.534 547.432 43.772 547.222C41.896 546.69 40.706 545.5 40.118 543.75H43.744ZM34.588 539.788C34.112 539.116 33.048 538.22 32.152 537.632L31.382 538.262C32.292 538.878 33.328 539.802 33.762 540.474L34.588 539.788ZM34.196 542.77H31.228V543.75H33.174V547.292C32.474 547.88 31.69 548.468 31.046 548.888L31.606 549.938C32.348 549.336 33.048 548.734 33.72 548.146C34.616 549.224 35.862 549.728 37.682 549.798C39.222 549.854 42.092 549.826 43.618 549.77C43.66 549.448 43.842 548.958 43.954 548.706C42.316 548.818 39.208 548.86 37.682 548.804C36.072 548.734 34.854 548.258 34.196 547.236V542.77ZM57.016 537.954H50.604V538.808H57.016V537.954ZM48.826 537.324C48.014 539.438 46.656 541.51 45.242 542.84C45.424 543.078 45.732 543.624 45.83 543.848C46.362 543.316 46.88 542.7 47.384 542V550.022H48.364V540.502C48.91 539.592 49.4 538.598 49.792 537.618L48.826 537.324ZM56.358 546.494V548.552H51.29V546.494H56.358ZM50.282 550.064H51.29V549.406H56.358V550.022H57.394V545.654H50.282V550.064ZM50.436 544.576H57.24V543.736H50.436V544.576ZM57.268 541.804H50.436V542.658H57.268V541.804ZM49.288 539.872V540.74H58.332V539.872H49.288ZM64.1 538.094L62.686 538.08C62.77 538.486 62.798 538.99 62.798 539.508C62.798 540.978 62.658 544.52 62.658 546.592C62.658 548.874 64.044 549.714 66.06 549.714C69.14 549.714 70.946 547.95 71.912 546.62L71.114 545.668C70.106 547.124 68.664 548.566 66.102 548.566C64.772 548.566 63.806 548.02 63.806 546.48C63.806 544.394 63.904 541.09 63.974 539.508C63.988 539.046 64.03 538.556 64.1 538.094ZM81.572 545.654L80.522 545.556C80.41 546.144 80.312 546.662 80.312 547.208C80.312 548.594 81.516 549.266 83.728 549.266C84.75 549.266 85.674 549.182 86.43 549.07L86.472 547.936C85.618 548.118 84.652 548.216 83.742 548.216C81.74 548.216 81.376 547.572 81.376 546.914C81.376 546.55 81.446 546.116 81.572 545.654ZM79.962 537.982L78.618 537.87C78.646 538.164 78.632 538.64 78.576 539.032C78.534 539.312 78.464 539.76 78.366 540.25C77.82 540.292 77.316 540.32 76.854 540.32C76.35 540.32 75.846 540.306 75.174 540.222L75.216 541.314C75.72 541.342 76.224 541.37 76.84 541.37C77.232 541.37 77.666 541.356 78.128 541.328C78.016 541.832 77.89 542.364 77.764 542.826C77.246 544.8 76.252 547.642 75.412 549.084L76.644 549.504C77.372 547.964 78.324 545.08 78.828 543.092C78.996 542.476 79.15 541.832 79.276 541.216C80.256 541.104 81.278 540.95 82.188 540.74V539.634C81.334 539.858 80.41 540.026 79.5 540.138C79.584 539.76 79.654 539.396 79.71 539.102C79.766 538.822 79.878 538.29 79.962 537.982ZM81.278 542.252V543.288C82.146 543.19 83 543.148 83.882 543.148C84.694 543.148 85.52 543.218 86.234 543.316L86.262 542.252C85.506 542.168 84.666 542.126 83.84 542.126C82.944 542.126 82.02 542.182 81.278 542.252ZM91.302 539.228L89.944 539.2C90.028 539.536 90.042 540.124 90.042 540.446C90.042 541.258 90.07 542.966 90.196 544.184C90.574 547.81 91.848 549.126 93.178 549.126C94.116 549.126 94.97 548.314 95.81 545.934L94.928 544.94C94.564 546.34 93.906 547.796 93.192 547.796C92.198 547.796 91.512 546.242 91.288 543.904C91.19 542.742 91.176 541.468 91.19 540.586C91.19 540.222 91.246 539.564 91.302 539.228ZM98.596 539.62L97.504 539.998C98.848 541.636 99.688 544.506 99.94 547.04L101.06 546.578C100.85 544.212 99.842 541.244 98.596 539.62ZM115.634 539.536L114.948 538.878C114.738 538.92 114.234 538.962 113.968 538.962H105.932C105.414 538.962 104.826 538.906 104.336 538.836V540.11C104.882 540.054 105.414 540.026 105.932 540.026H113.912C113.45 540.894 112.134 542.42 110.846 543.162L111.77 543.904C113.366 542.798 114.696 540.992 115.256 540.04C115.354 539.886 115.536 539.676 115.634 539.536ZM110.048 541.384H108.788C108.83 541.748 108.844 542.056 108.844 542.392C108.844 544.73 108.536 546.718 106.366 548.048C105.974 548.328 105.498 548.552 105.106 548.678L106.142 549.518C109.712 547.74 110.048 545.178 110.048 541.384ZM126.204 538.92L125.434 539.27C125.896 539.9 126.33 540.67 126.68 541.398L127.478 541.034C127.156 540.376 126.554 539.438 126.204 538.92ZM127.898 538.22L127.128 538.584C127.604 539.2 128.052 539.942 128.43 540.684L129.214 540.292C128.878 539.648 128.262 538.71 127.898 538.22ZM121.29 547.95C121.29 548.468 121.262 549.154 121.206 549.602H122.55C122.508 549.154 122.466 548.398 122.466 547.95V543.344C124.02 543.834 126.442 544.758 127.954 545.584L128.444 544.394C126.96 543.652 124.314 542.658 122.466 542.084V539.802C122.466 539.382 122.508 538.78 122.564 538.346H121.178C121.262 538.78 121.29 539.41 121.29 539.802V547.95ZM134.548 548.552L135.36 549.252C135.584 549.112 135.794 549.042 135.948 549C139.434 547.992 142.318 546.256 144.138 544.002L143.508 543.022C141.772 545.276 138.524 547.124 135.85 547.796V539.858C135.85 539.452 135.892 538.934 135.948 538.584H134.562C134.618 538.864 134.688 539.494 134.688 539.858V547.866C134.688 548.146 134.646 548.328 134.548 548.552ZM157.06 539.634L156.346 539.088C156.122 539.158 155.758 539.2 155.296 539.2H149.892C149.472 539.2 148.674 539.144 148.478 539.116V540.39C148.632 540.376 149.402 540.32 149.892 540.32H155.352C155.002 541.482 153.98 543.134 153.028 544.212C151.586 545.822 149.514 547.488 147.26 548.37L148.156 549.308C150.228 548.37 152.118 546.83 153.616 545.22C155.044 546.494 156.528 548.146 157.466 549.378L158.446 548.538C157.536 547.432 155.828 545.612 154.358 544.352C155.352 543.092 156.234 541.454 156.71 540.25C156.794 540.054 156.976 539.746 157.06 539.634ZM166.72 537.926L165.572 537.828C165.544 538.346 165.418 538.976 165.222 539.578C164.914 539.592 164.592 539.592 164.298 539.592C163.654 539.592 162.674 539.536 161.932 539.438V540.488C162.702 540.544 163.626 540.572 164.228 540.572C164.424 540.572 164.634 540.572 164.844 540.572C164.312 541.706 163.374 543.148 161.61 544.856L162.562 545.556C163.038 544.996 163.43 544.478 163.836 544.1C164.466 543.512 165.362 543.078 166.244 543.078C166.874 543.078 167.378 543.344 167.518 543.946C165.88 544.8 164.214 545.836 164.214 547.488C164.214 549.196 165.824 549.63 167.826 549.63C169.044 549.63 170.598 549.518 171.662 549.378L171.69 548.258C170.458 548.468 168.96 548.594 167.868 548.594C166.426 548.594 165.334 548.426 165.334 547.334C165.334 546.41 166.244 545.668 167.546 544.982C167.546 545.724 167.532 546.634 167.504 547.166H168.582C168.568 546.48 168.554 545.29 168.54 544.478C169.604 543.974 170.598 543.568 171.382 543.274C171.76 543.12 172.264 542.924 172.628 542.826L172.166 541.776C171.774 541.986 171.438 542.14 171.018 542.322C170.29 542.658 169.436 542.994 168.484 543.456C168.26 542.644 167.518 542.196 166.608 542.196C166.006 542.196 165.194 542.378 164.662 542.714C165.138 542.084 165.6 541.286 165.922 540.544C167.448 540.488 169.184 540.376 170.57 540.152L170.584 539.116C169.268 539.354 167.742 539.48 166.314 539.55C166.524 538.892 166.636 538.346 166.72 537.926ZM177.92 538.136V539.172H181.364C181.392 539.704 181.448 540.32 181.546 540.964L180.93 540.866C180.076 544.786 178.354 547.6 175.26 549.21C175.54 549.392 176.002 549.826 176.198 550.036C178.984 548.398 180.748 545.85 181.784 542.224C182.414 544.87 183.898 547.936 187.342 550.022C187.524 549.77 187.944 549.322 188.182 549.154C182.694 545.892 182.372 540.614 182.372 538.136H177.92ZM195.952 540.334C195.952 540.124 195.952 539.928 195.952 539.732V537.31H194.874V539.732C194.874 539.928 194.874 540.124 194.874 540.334H190.338V541.37H194.818C194.608 543.988 193.712 547.054 189.918 549.308C190.17 549.476 190.548 549.882 190.716 550.134C194.776 547.656 195.7 544.268 195.896 541.37H200.67C200.404 546.298 200.096 548.272 199.592 548.748C199.424 548.916 199.242 548.958 198.948 548.958C198.598 548.958 197.702 548.944 196.75 548.86C196.96 549.168 197.086 549.616 197.1 549.924C197.954 549.98 198.85 550.008 199.34 549.966C199.872 549.91 200.208 549.798 200.53 549.406C201.146 548.706 201.44 546.62 201.748 540.88C201.762 540.726 201.776 540.334 201.776 540.334H195.952ZM208.3 538.094L206.886 538.08C206.97 538.486 206.998 538.99 206.998 539.508C206.998 540.978 206.858 544.52 206.858 546.592C206.858 548.874 208.244 549.714 210.26 549.714C213.34 549.714 215.146 547.95 216.112 546.62L215.314 545.668C214.306 547.124 212.864 548.566 210.302 548.566C208.972 548.566 208.006 548.02 208.006 546.48C208.006 544.394 208.104 541.09 208.174 539.508C208.188 539.046 208.23 538.556 208.3 538.094ZM218.726 539.704L218.852 540.922C220.364 540.6 223.934 540.264 225.432 540.096C224.144 540.866 222.814 542.644 222.814 544.828C222.814 547.95 225.768 549.336 228.358 549.434L228.764 548.272C226.482 548.188 223.934 547.32 223.934 544.576C223.934 542.924 225.152 540.796 227.14 540.152C227.854 539.942 229.086 539.928 229.884 539.928V538.808C228.946 538.85 227.63 538.92 226.104 539.06C223.528 539.27 220.882 539.536 219.972 539.634C219.706 539.662 219.258 539.69 218.726 539.704ZM241.388 538.668L240.352 537.744C240.184 538.01 239.834 538.402 239.554 538.682C238.602 539.648 236.474 541.328 235.424 542.21C234.164 543.274 233.996 543.876 235.326 544.982C236.628 546.06 238.756 547.88 239.736 548.888C240.086 549.224 240.408 549.574 240.702 549.91L241.696 548.986C240.212 547.502 237.734 545.5 236.46 544.464C235.564 543.708 235.578 543.484 236.418 542.77C237.454 541.902 239.47 540.306 240.422 539.466C240.66 539.27 241.094 538.906 241.388 538.668ZM253.344 545.85L252.294 545.752C252.168 546.34 252.084 546.872 252.084 547.404C252.084 548.79 253.288 549.476 255.5 549.476C256.522 549.476 257.446 549.378 258.202 549.266L258.244 548.132C257.39 548.314 256.424 548.412 255.514 548.412C253.512 548.412 253.148 547.768 253.148 547.11C253.148 546.746 253.218 546.312 253.344 545.85ZM251.734 538.192L250.39 538.08C250.418 538.36 250.404 538.836 250.348 539.228C250.306 539.508 250.236 539.956 250.138 540.446C249.592 540.488 249.088 540.516 248.626 540.516C248.122 540.516 247.618 540.502 246.946 540.418L246.988 541.51C247.492 541.538 247.996 541.566 248.612 541.566C249.004 541.566 249.438 541.552 249.9 541.524C249.788 542.028 249.662 542.56 249.536 543.022C249.018 544.996 248.024 547.838 247.184 549.28L248.416 549.7C249.144 548.174 250.096 545.276 250.6 543.288C250.768 542.672 250.908 542.028 251.048 541.412C252.028 541.3 253.05 541.146 253.96 540.936V539.844C253.106 540.054 252.182 540.222 251.272 540.334C251.342 539.956 251.426 539.606 251.482 539.298C251.538 539.018 251.65 538.486 251.734 538.192ZM253.05 542.448V543.498C253.918 543.4 254.772 543.344 255.654 543.344C256.466 543.344 257.292 543.414 258.006 543.512L258.034 542.448C257.278 542.364 256.438 542.322 255.612 542.322C254.716 542.322 253.792 542.378 253.05 542.448ZM256.522 538.612L255.78 538.934C256.158 539.466 256.634 540.306 256.914 540.88L257.67 540.544C257.39 539.97 256.886 539.116 256.522 538.612ZM258.062 538.038L257.334 538.36C257.726 538.892 258.188 539.69 258.496 540.306L259.252 539.97C258.986 539.438 258.44 538.57 258.062 538.038ZM267.708 539.074C267.806 539.396 267.946 539.816 268.114 540.334C266.588 540.446 264.642 540.418 262.584 540.166L262.612 541.286C264.81 541.454 266.826 541.468 268.492 541.314C268.968 542.476 269.64 543.708 270.186 544.506C269.682 544.45 268.646 544.366 267.862 544.296L267.778 545.234C268.786 545.304 270.48 545.458 271.152 545.612L271.726 544.828C271.516 544.59 271.306 544.352 271.11 544.086C270.592 543.358 269.976 542.28 269.542 541.202C270.48 541.076 271.586 540.88 272.44 540.628L272.314 539.536C271.362 539.858 270.2 540.082 269.192 540.222C268.912 539.41 268.66 538.486 268.548 537.828L267.358 537.982C267.484 538.346 267.61 538.78 267.708 539.074ZM264.74 544.632L263.648 544.38C263.256 545.206 262.976 545.934 262.976 546.704C262.976 548.608 264.656 549.574 267.316 549.588C268.87 549.588 270.06 549.434 270.928 549.28L270.984 548.16C270.004 548.384 268.8 548.524 267.372 548.51C265.3 548.496 264.082 547.908 264.082 546.578C264.082 545.906 264.32 545.304 264.74 544.632ZM277.914 539.228L276.556 539.2C276.64 539.536 276.654 540.124 276.654 540.446C276.654 541.258 276.682 542.966 276.808 544.184C277.186 547.81 278.46 549.126 279.79 549.126C280.728 549.126 281.582 548.314 282.422 545.934L281.54 544.94C281.176 546.34 280.518 547.796 279.804 547.796C278.81 547.796 278.124 546.242 277.9 543.904C277.802 542.742 277.788 541.468 277.802 540.586C277.802 540.222 277.858 539.564 277.914 539.228ZM285.208 539.62L284.116 539.998C285.46 541.636 286.3 544.506 286.552 547.04L287.672 546.578C287.462 544.212 286.454 541.244 285.208 539.62Z" fill="#B4B4B4"/>
<rect x="17" y="523.5" width="342" height="39" rx="7.5" stroke="#B4B4B4"/>
<rect x="103" y="583" width="170" height="44" rx="22" fill="#7879F1"/>
<path d="M136.51 614L157.5 605L136.51 596L136.5 603L151.5 605L136.5 607L136.51 614Z" fill="white" fill-opacity="0.54"/>
<path d="M182.648 597.434C182.288 598.334 181.55 599.63 180.974 600.458L182.072 600.854C182.666 600.098 183.386 598.91 184.016 597.884L182.648 597.434ZM185.528 605.75V604.544H180.362C180.38 604.382 180.38 604.22 180.38 604.058V602.042H184.988V600.854H177.23L178.31 600.368C178.058 599.558 177.374 598.37 176.672 597.506L175.538 597.956C176.204 598.838 176.87 600.044 177.086 600.854H174.836V602.042H179.048V604.04C179.048 604.202 179.048 604.364 179.03 604.544H174.26V605.75H178.886C178.562 607.298 177.518 609.008 174.404 610.268C174.692 610.52 175.106 610.988 175.286 611.258C178.148 609.98 179.426 608.324 179.984 606.704C180.866 608.99 182.378 610.52 184.718 611.33C184.898 610.988 185.258 610.484 185.564 610.214C183.152 609.53 181.622 608 180.866 605.75H185.528ZM173.756 600.656C173.144 599.792 171.776 598.64 170.624 597.884L169.634 598.694C170.804 599.486 172.136 600.674 172.694 601.538L173.756 600.656ZM173.252 604.49H169.436V605.75H171.938V610.304C171.038 611.06 170.03 611.816 169.202 612.356L169.922 613.706C170.876 612.932 171.776 612.158 172.64 611.402C173.792 612.788 175.394 613.436 177.734 613.526C179.714 613.598 183.404 613.562 185.366 613.49C185.42 613.076 185.654 612.446 185.798 612.122C183.692 612.266 179.696 612.32 177.734 612.248C175.664 612.158 174.098 611.546 173.252 610.232V604.49ZM202.202 598.298H193.958V599.396H202.202V598.298ZM191.672 597.488C190.628 600.206 188.882 602.87 187.064 604.58C187.298 604.886 187.694 605.588 187.82 605.876C188.504 605.192 189.17 604.4 189.818 603.5V613.814H191.078V601.574C191.78 600.404 192.41 599.126 192.914 597.866L191.672 597.488ZM201.356 609.278V611.924H194.84V609.278H201.356ZM193.544 613.868H194.84V613.022H201.356V613.814H202.688V608.198H193.544V613.868ZM193.742 606.812H202.49V605.732H193.742V606.812ZM202.526 603.248H193.742V604.346H202.526V603.248ZM192.266 600.764V601.88H203.894V600.764H192.266ZM216.086 598.244H214.448C214.466 598.388 214.538 598.91 214.556 599.378C214.574 599.63 214.592 600.062 214.592 600.566C211.91 600.602 208.526 600.71 206.528 600.746L206.564 602.132C208.814 601.97 211.874 601.844 214.61 601.826C214.628 602.456 214.628 603.104 214.628 603.644C214.268 603.518 213.872 603.446 213.422 603.446C211.712 603.446 210.254 604.796 210.254 606.578C210.254 608.54 211.694 609.584 213.206 609.584C213.818 609.584 214.34 609.422 214.772 609.098C214.052 610.736 212.396 611.744 210.002 612.284L211.208 613.472C215.402 612.212 216.59 609.512 216.59 607.082C216.59 606.182 216.392 605.39 216.014 604.778C215.996 603.95 215.978 602.834 215.978 601.808C216.068 601.808 216.14 601.808 216.23 601.808C218.858 601.808 220.496 601.844 221.504 601.898L221.522 600.566C220.658 600.566 218.444 600.548 216.248 600.548C216.158 600.548 216.068 600.548 215.978 600.548C215.978 600.062 215.996 599.648 215.996 599.378C216.014 599.144 216.05 598.442 216.086 598.244ZM211.604 606.56C211.604 605.39 212.486 604.652 213.422 604.652C214.124 604.652 214.736 604.994 215.024 605.786C215.186 607.496 214.502 608.342 213.44 608.342C212.432 608.342 211.604 607.676 211.604 606.56ZM229.538 610.61C229.538 609.98 230.168 609.458 230.978 609.458C232.346 609.458 233.246 610.484 233.39 611.906C232.94 611.978 232.454 612.014 231.932 612.014C230.528 612.014 229.538 611.474 229.538 610.61ZM227.234 599.234L227.288 600.728C227.666 600.674 228.08 600.638 228.476 600.62C229.43 600.566 233.03 600.404 233.984 600.368C233.066 601.178 230.816 603.068 229.808 603.896C228.764 604.778 226.46 606.704 224.966 607.928L225.992 608.99C228.278 606.668 229.88 605.39 232.886 605.39C235.226 605.39 236.918 606.722 236.918 608.486C236.918 609.962 236.108 611.006 234.668 611.564C234.452 609.854 233.246 608.378 230.996 608.378C229.322 608.378 228.224 609.476 228.224 610.718C228.224 612.212 229.718 613.274 232.166 613.274C235.982 613.274 238.358 611.402 238.358 608.504C238.358 606.074 236.216 604.274 233.228 604.274C232.418 604.274 231.554 604.364 230.726 604.652C232.13 603.482 234.578 601.394 235.478 600.71C235.802 600.44 236.162 600.206 236.486 599.972L235.658 598.928C235.478 598.982 235.226 599.036 234.686 599.072C233.732 599.162 229.448 599.306 228.512 599.306C228.152 599.306 227.648 599.288 227.234 599.234Z" fill="white"/>
<path d="M15 365C15 356.163 22.1634 349 31 349H342C350.837 349 358 356.163 358 365V383C358 391.837 350.837 399 342 399H15V365Z" fill="#F0F0F0"/>
</svg>
