<svg width="144" height="32" viewBox="0 0 144 32" fill="none" xmlns="http://www.w3.org/2000/svg">
<path d="M5.23199 1.25622H3.57598C3.61199 1.47222 3.65999 2.06022 3.65999 2.31222C3.65999 2.51622 3.65998 2.86422 3.64798 3.28422C3.40798 3.29622 3.16798 3.30822 2.95199 3.30822C2.51999 3.30822 2.00398 3.29622 1.29598 3.21222L1.31998 4.66422C1.72798 4.71222 2.19598 4.72422 2.99998 4.72422C3.19198 4.72422 3.40798 4.71222 3.63598 4.70022C3.63598 5.03622 3.63598 5.37222 3.63598 5.70822C3.63598 5.98422 3.63598 6.27222 3.64798 6.56022C2.17198 7.19622 0.971985 8.28822 0.971985 9.33222C0.971985 10.6042 2.61598 11.6122 3.77998 11.6122C4.57198 11.6122 5.09999 11.2162 5.09999 9.72822C5.09999 9.32022 5.07598 8.38422 5.05199 7.43622C5.78399 7.22022 6.56399 7.10022 7.30799 7.10022C8.35199 7.10022 9.07199 7.58022 9.07199 8.39622C9.07199 9.27222 8.30398 9.75222 7.33198 9.93222C6.91198 10.0042 6.39599 10.0162 5.85599 10.0162L6.40799 11.5642C6.89999 11.5282 7.42799 11.4922 7.97999 11.3722C9.88799 10.8922 10.632 9.82422 10.632 8.40822C10.632 6.75222 9.17999 5.79222 7.33198 5.79222C6.67199 5.79222 5.84398 5.90022 5.02799 6.10422C5.02799 5.94822 5.02799 5.80422 5.02799 5.66022C5.02799 5.31222 5.02798 4.94022 5.03998 4.58022C5.81998 4.48422 6.64798 4.36422 7.33198 4.20822L7.29599 2.72022C6.67199 2.90022 5.87998 3.05622 5.08799 3.15222C5.09998 2.85222 5.11198 2.56422 5.12398 2.30022C5.14798 1.98822 5.19599 1.47222 5.23199 1.25622ZM8.65199 2.55222L7.99198 3.71622C8.73599 4.07622 10.308 4.97622 10.884 5.46822L11.604 4.24422C10.968 3.78822 9.57599 2.99622 8.65199 2.55222ZM2.44799 9.27222C2.44799 8.85222 2.93998 8.36022 3.67199 7.96422C3.69599 8.61222 3.70798 9.16422 3.70798 9.46422C3.70798 9.87222 3.53999 9.96822 3.32399 9.96822C3.01199 9.96822 2.44799 9.64422 2.44799 9.27222Z" fill="url(#paint0_linear)"/>
<path d="M16.236 2.38422V3.03222H14.4V2.38422H16.236ZM14.4 4.67622V3.99222H16.236V4.67622H14.4ZM17.568 5.75622V1.29222H12.984V12.0442H14.4V5.75622H17.568ZM18.948 7.76022V9.17622H16.968V7.76022H18.948ZM20.28 10.3522V6.58422H15.636V11.0242H16.968V10.3522H20.28ZM19.752 4.68822V3.99222H21.648V4.68822H19.752ZM21.648 2.37222V3.03222H19.752V2.37222H21.648ZM23.088 1.29222H18.396V5.76822H21.648V10.3162C21.648 10.5322 21.564 10.6042 21.336 10.6042C21.108 10.6162 20.292 10.6282 19.596 10.5802C19.8 10.9642 20.028 11.6362 20.076 12.0442C21.18 12.0442 21.936 12.0082 22.428 11.7682C22.932 11.5402 23.088 11.1322 23.088 10.3402V1.29222Z" fill="url(#paint1_linear)"/>
<path d="M27.12 2.42022L25.272 2.39622C25.344 2.76822 25.368 3.28422 25.368 3.62022C25.368 4.35222 25.38 5.75622 25.5 6.86022C25.836 10.0762 26.976 11.2642 28.296 11.2642C29.256 11.2642 30.012 10.5322 30.804 8.44422L29.604 6.98022C29.376 7.94022 28.896 9.34422 28.332 9.34422C27.576 9.34422 27.216 8.15622 27.048 6.42822C26.976 5.56422 26.964 4.66422 26.976 3.88422C26.976 3.54822 27.036 2.85222 27.12 2.42022ZM33.12 2.69622L31.596 3.18822C32.904 4.67622 33.54 7.59222 33.732 9.52422L35.304 8.91222C35.172 7.07622 34.26 4.07622 33.12 2.69622Z" fill="url(#paint2_linear)"/>
<path d="M44.388 8.39622V10.3522H39.648V8.39622H44.388ZM38.244 12.0562H39.648V11.6122H44.388V12.0562H45.852V7.13622H38.244V12.0562ZM39.576 4.68822C40.56 3.90822 41.4 3.05622 41.964 2.25222C42.54 3.04422 43.428 3.90822 44.424 4.68822H39.576ZM41.16 0.848221C40.26 2.31222 38.34 4.12422 36.276 5.12022C36.588 5.42022 36.984 5.93622 37.176 6.28422C37.812 5.93622 38.448 5.54022 39.036 5.10822V5.94822H45.012V5.12022C45.612 5.55222 46.236 5.94822 46.848 6.26022C47.1 5.81622 47.424 5.34822 47.772 4.97622C45.864 4.20822 43.92 2.68422 42.636 0.848221H41.16Z" fill="url(#paint3_linear)"/>
<path d="M51.264 2.34822C51.264 2.48022 51.24 2.81622 51.216 3.27222C50.7 3.34422 50.172 3.40422 49.824 3.42822C49.404 3.45222 49.128 3.45222 48.78 3.44022L48.936 4.97622C49.608 4.88022 50.532 4.76022 51.12 4.68822C51.108 4.97622 51.084 5.26422 51.06 5.54022C50.376 6.54822 49.176 8.13222 48.492 8.97222L49.44 10.2802C49.86 9.71622 50.448 8.84022 50.952 8.08422C50.94 9.09222 50.928 9.78822 50.904 10.7242C50.904 10.9162 50.892 11.3482 50.868 11.6122H52.524C52.488 11.3362 52.452 10.9042 52.44 10.6882C52.368 9.56022 52.368 8.55222 52.368 7.56822C52.368 7.25622 52.38 6.90822 52.392 6.56022C53.4 5.63622 54.516 5.02422 55.788 5.02422C56.988 5.02422 57.744 5.88822 57.744 6.82422C57.756 8.69622 56.244 9.56022 54.132 9.87222L54.852 11.3242C57.828 10.7362 59.352 9.28422 59.352 6.86022C59.34 4.92822 57.888 3.62022 56.04 3.62022C54.96 3.62022 53.724 3.95622 52.512 4.85622C52.524 4.74822 52.524 4.62822 52.536 4.52022C52.74 4.20822 52.98 3.81222 53.148 3.59622L52.704 3.03222C52.8 2.27622 52.896 1.66422 52.968 1.32822L51.216 1.26822C51.276 1.64022 51.264 2.00022 51.264 2.34822Z" fill="url(#paint4_linear)"/>
<path d="M69.18 1.58022H67.572C67.608 1.82022 67.656 2.38422 67.656 2.68422V4.04022C66.564 4.13622 65.4 4.24422 64.38 4.34022C64.38 3.87222 64.392 3.46422 64.392 3.18822C64.392 2.68422 64.404 2.34822 64.464 1.94022H62.772C62.832 2.37222 62.868 2.78022 62.868 3.27222C62.868 3.47622 62.868 3.92022 62.868 4.48422C62.484 4.52022 62.172 4.54422 61.956 4.56822C61.344 4.62822 60.792 4.65222 60.444 4.65222L60.612 6.18822C60.924 6.14022 61.668 6.02022 62.052 5.97222C62.256 5.94822 62.532 5.92422 62.856 5.88822C62.856 7.00422 62.856 8.16822 62.868 8.68422C62.928 10.7602 63.3 11.4082 66.408 11.4082C67.548 11.4082 69.024 11.3122 69.828 11.2162L69.888 9.58422C68.988 9.74022 67.476 9.88422 66.3 9.88422C64.5 9.88422 64.392 9.62022 64.368 8.44422C64.344 7.92822 64.356 6.82422 64.368 5.72022C65.388 5.61222 66.564 5.50422 67.632 5.42022C67.62 5.99622 67.584 6.54822 67.536 6.87222C67.512 7.10022 67.404 7.14822 67.164 7.14822C66.924 7.14822 66.432 7.07622 66.06 6.99222L66.024 8.32422C66.444 8.38422 67.404 8.50422 67.836 8.50422C68.448 8.50422 68.748 8.34822 68.88 7.71222C68.976 7.20822 69.024 6.22422 69.06 5.31222C69.408 5.28822 69.72 5.27622 69.984 5.26422C70.296 5.25222 70.932 5.24022 71.136 5.25222V3.77622C70.788 3.81222 70.32 3.83622 69.984 3.86022C69.708 3.87222 69.408 3.89622 69.084 3.92022C69.096 3.52422 69.096 3.09222 69.108 2.62422C69.12 2.30022 69.156 1.77222 69.18 1.58022Z" fill="url(#paint5_linear)"/>
<path d="M77.688 9.44022C77.688 8.98422 78.144 8.69622 78.828 8.69622C79.152 8.69622 79.476 8.74422 79.788 8.82822C79.788 8.91222 79.788 8.98422 79.788 9.04422C79.788 9.75222 79.536 10.1362 78.804 10.1362C78.168 10.1362 77.688 9.93222 77.688 9.44022ZM81.252 1.60422H79.536C79.584 1.84422 79.62 2.21622 79.62 2.39622C79.62 2.64822 79.632 3.14022 79.632 3.72822C79.356 3.74022 79.068 3.74022 78.792 3.74022C78.072 3.74022 77.376 3.70422 76.692 3.63222V5.06022C77.4 5.10822 78.084 5.13222 78.792 5.13222C79.068 5.13222 79.356 5.13222 79.644 5.12022C79.656 5.97222 79.704 6.84822 79.728 7.59222C79.488 7.55622 79.224 7.54422 78.948 7.54422C77.316 7.54422 76.284 8.38422 76.284 9.59622C76.284 10.8562 77.316 11.5522 78.972 11.5522C80.592 11.5522 81.24 10.7362 81.312 9.58422C81.792 9.90822 82.272 10.3282 82.776 10.7962L83.604 9.53622C83.028 9.00822 82.272 8.39622 81.276 7.98822C81.228 7.17222 81.168 6.21222 81.144 5.04822C81.804 5.00022 82.428 4.92822 83.004 4.84422V3.34422C82.428 3.46422 81.804 3.56022 81.144 3.62022C81.156 3.09222 81.168 2.64822 81.18 2.38422C81.192 2.12022 81.216 1.83222 81.252 1.60422ZM75.396 1.73622L73.74 1.59222C73.728 1.97622 73.668 2.43222 73.62 2.76822C73.488 3.69222 73.128 5.96022 73.128 7.77222C73.128 9.40422 73.356 10.7722 73.608 11.6122L74.964 11.5042C74.952 11.3362 74.94 11.1322 74.94 11.0122C74.94 10.8802 74.964 10.6162 75 10.4482C75.144 9.80022 75.528 8.57622 75.864 7.59222L75.132 6.99222C74.952 7.40022 74.748 7.80822 74.592 8.22822C74.556 7.98822 74.544 7.68822 74.544 7.44822C74.544 6.24822 74.94 3.60822 75.12 2.80422C75.156 2.58822 75.3 1.97622 75.396 1.73622Z" fill="url(#paint6_linear)"/>
<path d="M93.384 4.67622H90.372V2.92422H93.384V4.67622ZM93.384 7.82022H90.372V6.00822H93.384V7.82022ZM94.812 1.60422H89.004V9.14022H94.812V1.60422ZM88.548 5.90022L87.372 6.20022V4.43622H88.632V3.11622H87.372V0.848221H85.98V3.11622H84.492V4.43622H85.98V6.53622C85.38 6.68022 84.804 6.81222 84.336 6.90822L84.708 8.27622L85.98 7.94022V10.4362C85.98 10.6042 85.92 10.6642 85.752 10.6642C85.596 10.6642 85.092 10.6642 84.624 10.6522C84.792 11.0122 84.984 11.5762 85.02 11.9482C85.86 11.9482 86.448 11.9122 86.844 11.6842C87.24 11.4802 87.372 11.1322 87.372 10.4362V7.58022C87.828 7.46022 88.272 7.32822 88.716 7.20822L88.548 5.90022ZM88.176 10.3162V11.6482H95.544V10.3162H88.176Z" fill="url(#paint7_linear)"/>
<path d="M105.216 1.19622C104.928 2.13222 104.376 3.36822 103.908 4.19622L105.156 4.62822C105.672 3.87222 106.284 2.73222 106.812 1.66422L105.216 1.19622ZM100.08 4.00422C99.816 3.23622 99.228 2.13222 98.604 1.30422L97.296 1.82022C97.884 2.66022 98.472 3.82422 98.7 4.58022L100.08 4.00422ZM102.792 0.824219H101.22V4.97622H97.584V6.40422H105.084V7.50822H97.992V8.88822H105.084V10.1362H97.308V11.5522H105.084V12.0442H106.608V4.97622H102.792V0.824219Z" fill="url(#paint8_linear)"/>
<path d="M113.892 3.36822H115.848C115.44 3.75222 115.008 4.11222 114.552 4.46022H113.892V3.36822ZM116.508 8.61222H112.38V7.84422H116.508V8.61222ZM112.38 10.5082V9.69222H116.508V10.5082H112.38ZM119.376 5.72022V4.46022H116.592C117.468 3.65622 118.272 2.76822 118.956 1.82022L117.732 1.19622C117.36 1.72422 116.952 2.22822 116.496 2.72022V2.13222H113.892V0.83622H112.476V2.13222H109.656V3.36822H112.476V4.46022H108.624V5.72022H112.704C111.324 6.53622 109.824 7.22022 108.252 7.71222C108.516 8.00022 108.948 8.57622 109.116 8.88822C109.728 8.66022 110.352 8.39622 110.952 8.13222V12.0562H112.38V11.6962H116.508V12.0082H118.008V6.68022H113.64C114.132 6.36822 114.588 6.05622 115.056 5.72022H119.376Z" fill="url(#paint9_linear)"/>
<path d="M123.408 9.64422C123.408 9.23622 123.876 8.90022 124.728 8.90022C125.064 8.90022 125.388 8.93622 125.712 8.98422C125.724 9.20022 125.724 9.36822 125.724 9.50022C125.724 10.1962 125.304 10.3762 124.668 10.3762C123.84 10.3762 123.408 10.1002 123.408 9.64422ZM127.164 1.29222H125.544C125.592 1.52022 125.616 1.89222 125.616 2.12022C125.616 2.26422 125.616 2.45622 125.616 2.68422C125.46 2.68422 125.304 2.68422 125.148 2.68422C124.416 2.68422 123.048 2.56422 122.184 2.42022L122.22 3.78822C123.012 3.89622 124.404 4.00422 125.16 4.00422C125.304 4.00422 125.448 4.00422 125.604 4.00422C125.592 4.41222 125.592 4.84422 125.592 5.24022C125.4 5.24022 125.208 5.24022 125.016 5.24022C124.38 5.24022 122.904 5.15622 122.124 5.01222L122.136 6.42822C122.928 6.52422 124.296 6.58422 124.992 6.58422C125.208 6.58422 125.412 6.58422 125.616 6.58422C125.628 6.94422 125.64 7.32822 125.664 7.70022C125.424 7.67622 125.172 7.66422 124.92 7.66422C123.072 7.66422 121.956 8.51622 121.956 9.72822C121.956 11.0002 122.964 11.7322 124.884 11.7322C126.468 11.7322 127.248 10.9402 127.248 9.92022C127.248 9.78822 127.248 9.64422 127.236 9.47622C128.196 9.90822 129.012 10.5442 129.66 11.1442L130.524 9.80022C129.828 9.22422 128.676 8.42022 127.164 7.98822C127.128 7.50822 127.104 7.01622 127.08 6.56022C128.232 6.52422 129.168 6.44022 130.248 6.32022L130.26 4.90422C129.288 5.03622 128.268 5.13222 127.056 5.19222C127.056 4.82022 127.056 4.37622 127.056 3.95622C128.22 3.89622 129.312 3.78822 130.104 3.69222L130.116 2.31222C129.06 2.49222 128.064 2.58822 127.08 2.63622C127.08 2.44422 127.08 2.26422 127.092 2.14422C127.104 1.83222 127.128 1.53222 127.164 1.29222Z" fill="url(#paint10_linear)"/>
<path d="M132.828 2.76822L132.984 4.41222C134.376 4.11222 136.824 3.84822 137.952 3.72822C137.136 4.34022 136.164 5.70822 136.164 7.43622C136.164 10.0402 138.54 11.3842 141.06 11.5522L141.624 9.90822C139.584 9.80022 137.736 9.09222 137.736 7.11222C137.736 5.68422 138.828 4.13622 140.28 3.75222C140.916 3.59622 141.948 3.59622 142.596 3.58422L142.584 2.04822C141.732 2.08422 140.424 2.15622 139.188 2.26422C136.992 2.44422 135.012 2.62422 134.004 2.70822C133.776 2.73222 133.308 2.75622 132.828 2.76822ZM140.88 4.76022L139.992 5.13222C140.376 5.67222 140.628 6.14022 140.928 6.80022L141.84 6.39222C141.612 5.92422 141.18 5.19222 140.88 4.76022ZM142.224 4.20822L141.348 4.61622C141.732 5.14422 142.008 5.58822 142.332 6.23622L143.232 5.80422C142.98 5.33622 142.524 4.62822 142.224 4.20822Z" fill="url(#paint11_linear)"/>
<path d="M5.23199 20.2562H3.57598C3.61199 20.4722 3.65999 21.0602 3.65999 21.3122C3.65999 21.5162 3.65998 21.8642 3.64798 22.2842C3.40798 22.2962 3.16798 22.3082 2.95199 22.3082C2.51999 22.3082 2.00398 22.2962 1.29598 22.2122L1.31998 23.6642C1.72798 23.7122 2.19598 23.7242 2.99998 23.7242C3.19198 23.7242 3.40798 23.7122 3.63598 23.7002C3.63598 24.0362 3.63598 24.3722 3.63598 24.7082C3.63598 24.9842 3.63598 25.2722 3.64798 25.5602C2.17198 26.1962 0.971985 27.2882 0.971985 28.3322C0.971985 29.6042 2.61598 30.6122 3.77998 30.6122C4.57198 30.6122 5.09999 30.2162 5.09999 28.7282C5.09999 28.3202 5.07598 27.3842 5.05199 26.4362C5.78399 26.2202 6.56399 26.1002 7.30799 26.1002C8.35199 26.1002 9.07199 26.5802 9.07199 27.3962C9.07199 28.2722 8.30398 28.7522 7.33198 28.9322C6.91198 29.0042 6.39599 29.0162 5.85599 29.0162L6.40799 30.5642C6.89999 30.5282 7.42799 30.4922 7.97999 30.3722C9.88799 29.8922 10.632 28.8242 10.632 27.4082C10.632 25.7522 9.17999 24.7922 7.33198 24.7922C6.67199 24.7922 5.84398 24.9002 5.02799 25.1042C5.02799 24.9482 5.02799 24.8042 5.02799 24.6602C5.02799 24.3122 5.02798 23.9402 5.03998 23.5802C5.81998 23.4842 6.64798 23.3642 7.33198 23.2082L7.29599 21.7202C6.67199 21.9002 5.87998 22.0562 5.08799 22.1522C5.09998 21.8522 5.11198 21.5642 5.12398 21.3002C5.14798 20.9882 5.19599 20.4722 5.23199 20.2562ZM8.65199 21.5522L7.99198 22.7162C8.73599 23.0762 10.308 23.9762 10.884 24.4682L11.604 23.2442C10.968 22.7882 9.57599 21.9962 8.65199 21.5522ZM2.44799 28.2722C2.44799 27.8522 2.93998 27.3602 3.67199 26.9642C3.69599 27.6122 3.70798 28.1642 3.70798 28.4642C3.70798 28.8722 3.53999 28.9682 3.32399 28.9682C3.01199 28.9682 2.44799 28.6442 2.44799 28.2722Z" fill="url(#paint12_linear)"/>
<path d="M21.972 24.1562H19.92V23.3882H21.972V24.1562ZM21.972 25.8962H19.92V25.1282H21.972V25.8962ZM21.972 27.6602H19.92V26.8802H21.972V27.6602ZM18.72 22.3442V28.6922H23.22V22.3442H21.384C21.468 22.0802 21.552 21.7922 21.636 21.5042H23.484V20.3042H18.396V21.5042H20.244C20.22 21.7802 20.184 22.0682 20.136 22.3442H18.72ZM14.592 27.3002C14.46 28.1162 14.22 28.9562 13.86 29.5202C14.124 29.6402 14.604 29.8802 14.82 30.0482C15.18 29.4122 15.48 28.4402 15.648 27.5162L14.592 27.3002ZM15.648 25.0802H17.088V25.8122H15.648V25.0802ZM17.088 24.1682H15.648V23.4362H17.088V24.1682ZM18.216 26.8082V22.4522H16.812C16.908 22.1642 17.004 21.8522 17.1 21.5282H18.18V20.3042H12.888V24.9482C12.888 26.5802 12.852 28.7042 12.228 30.1682C12.504 30.3002 13.032 30.6842 13.236 30.9002C13.98 29.3042 14.1 26.7362 14.1 24.9362V21.5282H15.744C15.708 21.8282 15.66 22.1522 15.624 22.4522H14.556V26.8082H15.804V29.8322C15.804 29.9402 15.768 29.9762 15.648 29.9762C15.54 29.9762 15.204 29.9762 14.88 29.9642C15.036 30.2642 15.18 30.7202 15.228 31.0322C15.816 31.0322 16.224 31.0202 16.548 30.8402C16.884 30.6602 16.956 30.3722 16.956 29.8562V26.8082H18.216ZM18.648 29.1482C18.54 28.6562 18.228 27.8642 17.952 27.2642L17.052 27.5882C17.316 28.2002 17.58 29.0282 17.688 29.5082L18.648 29.1482ZM19.632 28.7522C19.212 29.2442 18.384 29.8682 17.652 30.1922C17.928 30.4322 18.324 30.8042 18.54 31.0562C19.272 30.6962 20.184 30.0482 20.748 29.4362L19.632 28.7522ZM21.12 29.4122C21.672 29.9042 22.38 30.5882 22.704 31.0322L23.772 30.3122C23.412 29.8682 22.68 29.2202 22.14 28.7642L21.12 29.4122Z" fill="url(#paint13_linear)"/>
<path d="M27.12 21.4202L25.272 21.3962C25.344 21.7682 25.368 22.2842 25.368 22.6202C25.368 23.3522 25.38 24.7562 25.5 25.8602C25.836 29.0762 26.976 30.2642 28.296 30.2642C29.256 30.2642 30.012 29.5322 30.804 27.4442L29.604 25.9802C29.376 26.9402 28.896 28.3442 28.332 28.3442C27.576 28.3442 27.216 27.1562 27.048 25.4282C26.976 24.5642 26.964 23.6642 26.976 22.8842C26.976 22.5482 27.036 21.8522 27.12 21.4202ZM33.12 21.6962L31.596 22.1882C32.904 23.6762 33.54 26.5922 33.732 28.5242L35.304 27.9122C35.172 26.0762 34.26 23.0762 33.12 21.6962Z" fill="url(#paint14_linear)"/>
<path d="M45.336 23.3522C45.18 24.4922 44.928 25.4882 44.544 26.3402C44.148 25.4402 43.872 24.4322 43.668 23.3522H45.336ZM47.484 23.3522V22.0202H44.112C44.28 21.3962 44.436 20.7362 44.556 20.0642L43.08 19.8362C42.852 21.2882 42.444 22.7042 41.856 23.8082C41.58 23.2322 41.172 22.5962 40.8 22.0682L39.696 22.5962C39.852 22.8482 40.02 23.1242 40.176 23.4122L38.568 23.5082C38.832 22.9682 39.096 22.3562 39.336 21.7802H41.928V20.4842H36.468V21.7802H37.824C37.656 22.3682 37.428 23.0402 37.2 23.5922L36.336 23.6402L36.492 24.9482C37.68 24.8402 39.252 24.7082 40.764 24.5762C40.836 24.7322 40.896 24.8882 40.944 25.0322L41.088 24.9602C41.424 25.1882 42.012 25.6802 42.264 25.9202C42.432 25.7162 42.6 25.4882 42.756 25.2362C42.996 26.1722 43.308 27.0362 43.692 27.8042C43.224 28.3922 42.66 28.8842 41.976 29.2922L41.928 28.3082C41.244 28.4042 40.536 28.5122 39.84 28.5962V27.3962H41.664V26.1122H39.84V24.9602H38.472V26.1122H36.732V27.3962H38.472V28.7882C37.68 28.8842 36.96 28.9802 36.36 29.0402L36.564 30.4922C37.788 30.3002 39.42 30.0602 41.016 29.8082C41.28 30.1322 41.664 30.7442 41.796 31.0682C42.9 30.5522 43.776 29.9042 44.484 29.1122C45.084 29.9162 45.828 30.5642 46.74 31.0562C46.968 30.6602 47.4 30.0842 47.724 29.7962C46.764 29.3522 45.996 28.6802 45.396 27.8402C46.092 26.6282 46.536 25.1402 46.812 23.3522H47.484Z" fill="url(#paint15_linear)"/>
<path d="M52.452 20.4842L50.52 20.4602C50.628 20.9402 50.676 21.5162 50.676 22.0802C50.676 23.1122 50.556 26.2682 50.556 27.8762C50.556 29.9282 51.828 30.7922 53.796 30.7922C56.532 30.7922 58.236 29.1842 59.004 28.0322L57.912 26.7122C57.048 28.0202 55.788 29.1602 53.808 29.1602C52.872 29.1602 52.152 28.7642 52.152 27.5522C52.152 26.0642 52.248 23.3762 52.296 22.0802C52.32 21.6002 52.38 20.9882 52.452 20.4842Z" fill="url(#paint16_linear)"/>
<path d="M63.408 28.6442C63.408 28.2362 63.876 27.9002 64.728 27.9002C65.064 27.9002 65.388 27.9362 65.712 27.9842C65.724 28.2002 65.724 28.3682 65.724 28.5002C65.724 29.1962 65.304 29.3762 64.668 29.3762C63.84 29.3762 63.408 29.1002 63.408 28.6442ZM67.164 20.2922H65.544C65.592 20.5202 65.616 20.8922 65.616 21.1202C65.616 21.2642 65.616 21.4562 65.616 21.6842C65.46 21.6842 65.304 21.6842 65.148 21.6842C64.416 21.6842 63.048 21.5642 62.184 21.4202L62.22 22.7882C63.012 22.8962 64.404 23.0042 65.16 23.0042C65.304 23.0042 65.448 23.0042 65.604 23.0042C65.592 23.4122 65.592 23.8442 65.592 24.2402C65.4 24.2402 65.208 24.2402 65.016 24.2402C64.38 24.2402 62.904 24.1562 62.124 24.0122L62.136 25.4282C62.928 25.5242 64.296 25.5842 64.992 25.5842C65.208 25.5842 65.412 25.5842 65.616 25.5842C65.628 25.9442 65.64 26.3282 65.664 26.7002C65.424 26.6762 65.172 26.6642 64.92 26.6642C63.072 26.6642 61.956 27.5162 61.956 28.7282C61.956 30.0002 62.964 30.7322 64.884 30.7322C66.468 30.7322 67.248 29.9402 67.248 28.9202C67.248 28.7882 67.248 28.6442 67.236 28.4762C68.196 28.9082 69.012 29.5442 69.66 30.1442L70.524 28.8002C69.828 28.2242 68.676 27.4202 67.164 26.9882C67.128 26.5082 67.104 26.0162 67.08 25.5602C68.232 25.5242 69.168 25.4402 70.248 25.3202L70.26 23.9042C69.288 24.0362 68.268 24.1322 67.056 24.1922C67.056 23.8202 67.056 23.3762 67.056 22.9562C68.22 22.8962 69.312 22.7882 70.104 22.6922L70.116 21.3122C69.06 21.4922 68.064 21.5882 67.08 21.6362C67.08 21.4442 67.08 21.2642 67.092 21.1442C67.104 20.8322 67.128 20.5322 67.164 20.2922Z" fill="url(#paint17_linear)"/>
<path d="M79.836 20.3282H78.096C78.132 20.4722 78.18 20.8802 78.216 21.3722C78.228 21.4682 78.228 21.5882 78.24 21.7442C76.608 21.7682 74.424 21.8162 73.056 21.8162L73.092 23.2682C74.568 23.1842 76.44 23.1122 78.252 23.0882C78.264 23.3522 78.264 23.6282 78.264 23.8922C78.108 23.8682 77.952 23.8562 77.784 23.8562C76.476 23.8562 75.384 24.7442 75.384 26.1002C75.384 27.5642 76.524 28.3082 77.448 28.3082C77.64 28.3082 77.82 28.2842 77.988 28.2482C77.328 28.9682 76.272 29.3642 75.06 29.6162L76.344 30.8882C79.272 30.0722 80.184 28.0802 80.184 26.5202C80.184 25.8962 80.04 25.3322 79.752 24.8762C79.752 24.3482 79.74 23.6882 79.74 23.0762C81.372 23.0762 82.488 23.1002 83.208 23.1362L83.22 21.7202C82.596 21.7082 80.952 21.7322 79.74 21.7322C79.752 21.5882 79.752 21.4562 79.752 21.3602C79.764 21.1682 79.812 20.5202 79.836 20.3282ZM76.824 26.0762C76.824 25.4402 77.28 25.1162 77.748 25.1162C78.072 25.1162 78.36 25.2602 78.528 25.5362C78.696 26.5922 78.252 26.9762 77.748 26.9762C77.268 26.9762 76.824 26.6282 76.824 26.0762Z" fill="url(#paint18_linear)"/>
<defs>
<linearGradient id="paint0_linear" x1="0.971984" y1="0.933574" x2="47.1376" y2="84.1747" gradientUnits="userSpaceOnUse">
<stop stop-color="#B48856"/>
<stop offset="0.1167" stop-color="#AD7D36"/>
<stop offset="0.2822" stop-color="#C99950"/>
<stop offset="0.4197" stop-color="#DBB963"/>
<stop offset="0.5112" stop-color="#E1C06B"/>
<stop offset="0.5987" stop-color="#DBB963"/>
<stop offset="0.7283" stop-color="#C99950"/>
<stop offset="0.8834" stop-color="#AD7D36"/>
<stop offset="1" stop-color="#B48856"/>
</linearGradient>
<linearGradient id="paint1_linear" x1="0.971984" y1="0.933574" x2="47.1376" y2="84.1747" gradientUnits="userSpaceOnUse">
<stop stop-color="#B48856"/>
<stop offset="0.1167" stop-color="#AD7D36"/>
<stop offset="0.2822" stop-color="#C99950"/>
<stop offset="0.4197" stop-color="#DBB963"/>
<stop offset="0.5112" stop-color="#E1C06B"/>
<stop offset="0.5987" stop-color="#DBB963"/>
<stop offset="0.7283" stop-color="#C99950"/>
<stop offset="0.8834" stop-color="#AD7D36"/>
<stop offset="1" stop-color="#B48856"/>
</linearGradient>
<linearGradient id="paint2_linear" x1="0.971984" y1="0.933574" x2="47.1376" y2="84.1747" gradientUnits="userSpaceOnUse">
<stop stop-color="#B48856"/>
<stop offset="0.1167" stop-color="#AD7D36"/>
<stop offset="0.2822" stop-color="#C99950"/>
<stop offset="0.4197" stop-color="#DBB963"/>
<stop offset="0.5112" stop-color="#E1C06B"/>
<stop offset="0.5987" stop-color="#DBB963"/>
<stop offset="0.7283" stop-color="#C99950"/>
<stop offset="0.8834" stop-color="#AD7D36"/>
<stop offset="1" stop-color="#B48856"/>
</linearGradient>
<linearGradient id="paint3_linear" x1="0.971984" y1="0.933574" x2="47.1376" y2="84.1747" gradientUnits="userSpaceOnUse">
<stop stop-color="#B48856"/>
<stop offset="0.1167" stop-color="#AD7D36"/>
<stop offset="0.2822" stop-color="#C99950"/>
<stop offset="0.4197" stop-color="#DBB963"/>
<stop offset="0.5112" stop-color="#E1C06B"/>
<stop offset="0.5987" stop-color="#DBB963"/>
<stop offset="0.7283" stop-color="#C99950"/>
<stop offset="0.8834" stop-color="#AD7D36"/>
<stop offset="1" stop-color="#B48856"/>
</linearGradient>
<linearGradient id="paint4_linear" x1="0.971984" y1="0.933574" x2="47.1376" y2="84.1747" gradientUnits="userSpaceOnUse">
<stop stop-color="#B48856"/>
<stop offset="0.1167" stop-color="#AD7D36"/>
<stop offset="0.2822" stop-color="#C99950"/>
<stop offset="0.4197" stop-color="#DBB963"/>
<stop offset="0.5112" stop-color="#E1C06B"/>
<stop offset="0.5987" stop-color="#DBB963"/>
<stop offset="0.7283" stop-color="#C99950"/>
<stop offset="0.8834" stop-color="#AD7D36"/>
<stop offset="1" stop-color="#B48856"/>
</linearGradient>
<linearGradient id="paint5_linear" x1="0.971984" y1="0.933574" x2="47.1376" y2="84.1747" gradientUnits="userSpaceOnUse">
<stop stop-color="#B48856"/>
<stop offset="0.1167" stop-color="#AD7D36"/>
<stop offset="0.2822" stop-color="#C99950"/>
<stop offset="0.4197" stop-color="#DBB963"/>
<stop offset="0.5112" stop-color="#E1C06B"/>
<stop offset="0.5987" stop-color="#DBB963"/>
<stop offset="0.7283" stop-color="#C99950"/>
<stop offset="0.8834" stop-color="#AD7D36"/>
<stop offset="1" stop-color="#B48856"/>
</linearGradient>
<linearGradient id="paint6_linear" x1="0.971984" y1="0.933574" x2="47.1376" y2="84.1747" gradientUnits="userSpaceOnUse">
<stop stop-color="#B48856"/>
<stop offset="0.1167" stop-color="#AD7D36"/>
<stop offset="0.2822" stop-color="#C99950"/>
<stop offset="0.4197" stop-color="#DBB963"/>
<stop offset="0.5112" stop-color="#E1C06B"/>
<stop offset="0.5987" stop-color="#DBB963"/>
<stop offset="0.7283" stop-color="#C99950"/>
<stop offset="0.8834" stop-color="#AD7D36"/>
<stop offset="1" stop-color="#B48856"/>
</linearGradient>
<linearGradient id="paint7_linear" x1="0.971984" y1="0.933574" x2="47.1376" y2="84.1747" gradientUnits="userSpaceOnUse">
<stop stop-color="#B48856"/>
<stop offset="0.1167" stop-color="#AD7D36"/>
<stop offset="0.2822" stop-color="#C99950"/>
<stop offset="0.4197" stop-color="#DBB963"/>
<stop offset="0.5112" stop-color="#E1C06B"/>
<stop offset="0.5987" stop-color="#DBB963"/>
<stop offset="0.7283" stop-color="#C99950"/>
<stop offset="0.8834" stop-color="#AD7D36"/>
<stop offset="1" stop-color="#B48856"/>
</linearGradient>
<linearGradient id="paint8_linear" x1="0.971984" y1="0.933574" x2="47.1376" y2="84.1747" gradientUnits="userSpaceOnUse">
<stop stop-color="#B48856"/>
<stop offset="0.1167" stop-color="#AD7D36"/>
<stop offset="0.2822" stop-color="#C99950"/>
<stop offset="0.4197" stop-color="#DBB963"/>
<stop offset="0.5112" stop-color="#E1C06B"/>
<stop offset="0.5987" stop-color="#DBB963"/>
<stop offset="0.7283" stop-color="#C99950"/>
<stop offset="0.8834" stop-color="#AD7D36"/>
<stop offset="1" stop-color="#B48856"/>
</linearGradient>
<linearGradient id="paint9_linear" x1="0.971984" y1="0.933574" x2="47.1376" y2="84.1747" gradientUnits="userSpaceOnUse">
<stop stop-color="#B48856"/>
<stop offset="0.1167" stop-color="#AD7D36"/>
<stop offset="0.2822" stop-color="#C99950"/>
<stop offset="0.4197" stop-color="#DBB963"/>
<stop offset="0.5112" stop-color="#E1C06B"/>
<stop offset="0.5987" stop-color="#DBB963"/>
<stop offset="0.7283" stop-color="#C99950"/>
<stop offset="0.8834" stop-color="#AD7D36"/>
<stop offset="1" stop-color="#B48856"/>
</linearGradient>
<linearGradient id="paint10_linear" x1="0.971984" y1="0.933574" x2="47.1376" y2="84.1747" gradientUnits="userSpaceOnUse">
<stop stop-color="#B48856"/>
<stop offset="0.1167" stop-color="#AD7D36"/>
<stop offset="0.2822" stop-color="#C99950"/>
<stop offset="0.4197" stop-color="#DBB963"/>
<stop offset="0.5112" stop-color="#E1C06B"/>
<stop offset="0.5987" stop-color="#DBB963"/>
<stop offset="0.7283" stop-color="#C99950"/>
<stop offset="0.8834" stop-color="#AD7D36"/>
<stop offset="1" stop-color="#B48856"/>
</linearGradient>
<linearGradient id="paint11_linear" x1="0.971984" y1="0.933574" x2="47.1376" y2="84.1747" gradientUnits="userSpaceOnUse">
<stop stop-color="#B48856"/>
<stop offset="0.1167" stop-color="#AD7D36"/>
<stop offset="0.2822" stop-color="#C99950"/>
<stop offset="0.4197" stop-color="#DBB963"/>
<stop offset="0.5112" stop-color="#E1C06B"/>
<stop offset="0.5987" stop-color="#DBB963"/>
<stop offset="0.7283" stop-color="#C99950"/>
<stop offset="0.8834" stop-color="#AD7D36"/>
<stop offset="1" stop-color="#B48856"/>
</linearGradient>
<linearGradient id="paint12_linear" x1="0.971984" y1="0.933574" x2="47.1376" y2="84.1747" gradientUnits="userSpaceOnUse">
<stop stop-color="#B48856"/>
<stop offset="0.1167" stop-color="#AD7D36"/>
<stop offset="0.2822" stop-color="#C99950"/>
<stop offset="0.4197" stop-color="#DBB963"/>
<stop offset="0.5112" stop-color="#E1C06B"/>
<stop offset="0.5987" stop-color="#DBB963"/>
<stop offset="0.7283" stop-color="#C99950"/>
<stop offset="0.8834" stop-color="#AD7D36"/>
<stop offset="1" stop-color="#B48856"/>
</linearGradient>
<linearGradient id="paint13_linear" x1="0.971984" y1="0.933574" x2="47.1376" y2="84.1747" gradientUnits="userSpaceOnUse">
<stop stop-color="#B48856"/>
<stop offset="0.1167" stop-color="#AD7D36"/>
<stop offset="0.2822" stop-color="#C99950"/>
<stop offset="0.4197" stop-color="#DBB963"/>
<stop offset="0.5112" stop-color="#E1C06B"/>
<stop offset="0.5987" stop-color="#DBB963"/>
<stop offset="0.7283" stop-color="#C99950"/>
<stop offset="0.8834" stop-color="#AD7D36"/>
<stop offset="1" stop-color="#B48856"/>
</linearGradient>
<linearGradient id="paint14_linear" x1="0.971984" y1="0.933574" x2="47.1376" y2="84.1747" gradientUnits="userSpaceOnUse">
<stop stop-color="#B48856"/>
<stop offset="0.1167" stop-color="#AD7D36"/>
<stop offset="0.2822" stop-color="#C99950"/>
<stop offset="0.4197" stop-color="#DBB963"/>
<stop offset="0.5112" stop-color="#E1C06B"/>
<stop offset="0.5987" stop-color="#DBB963"/>
<stop offset="0.7283" stop-color="#C99950"/>
<stop offset="0.8834" stop-color="#AD7D36"/>
<stop offset="1" stop-color="#B48856"/>
</linearGradient>
<linearGradient id="paint15_linear" x1="0.971984" y1="0.933574" x2="47.1376" y2="84.1747" gradientUnits="userSpaceOnUse">
<stop stop-color="#B48856"/>
<stop offset="0.1167" stop-color="#AD7D36"/>
<stop offset="0.2822" stop-color="#C99950"/>
<stop offset="0.4197" stop-color="#DBB963"/>
<stop offset="0.5112" stop-color="#E1C06B"/>
<stop offset="0.5987" stop-color="#DBB963"/>
<stop offset="0.7283" stop-color="#C99950"/>
<stop offset="0.8834" stop-color="#AD7D36"/>
<stop offset="1" stop-color="#B48856"/>
</linearGradient>
<linearGradient id="paint16_linear" x1="0.971984" y1="0.933574" x2="47.1376" y2="84.1747" gradientUnits="userSpaceOnUse">
<stop stop-color="#B48856"/>
<stop offset="0.1167" stop-color="#AD7D36"/>
<stop offset="0.2822" stop-color="#C99950"/>
<stop offset="0.4197" stop-color="#DBB963"/>
<stop offset="0.5112" stop-color="#E1C06B"/>
<stop offset="0.5987" stop-color="#DBB963"/>
<stop offset="0.7283" stop-color="#C99950"/>
<stop offset="0.8834" stop-color="#AD7D36"/>
<stop offset="1" stop-color="#B48856"/>
</linearGradient>
<linearGradient id="paint17_linear" x1="0.971984" y1="0.933574" x2="47.1376" y2="84.1747" gradientUnits="userSpaceOnUse">
<stop stop-color="#B48856"/>
<stop offset="0.1167" stop-color="#AD7D36"/>
<stop offset="0.2822" stop-color="#C99950"/>
<stop offset="0.4197" stop-color="#DBB963"/>
<stop offset="0.5112" stop-color="#E1C06B"/>
<stop offset="0.5987" stop-color="#DBB963"/>
<stop offset="0.7283" stop-color="#C99950"/>
<stop offset="0.8834" stop-color="#AD7D36"/>
<stop offset="1" stop-color="#B48856"/>
</linearGradient>
<linearGradient id="paint18_linear" x1="0.971984" y1="0.933574" x2="47.1376" y2="84.1747" gradientUnits="userSpaceOnUse">
<stop stop-color="#B48856"/>
<stop offset="0.1167" stop-color="#AD7D36"/>
<stop offset="0.2822" stop-color="#C99950"/>
<stop offset="0.4197" stop-color="#DBB963"/>
<stop offset="0.5112" stop-color="#E1C06B"/>
<stop offset="0.5987" stop-color="#DBB963"/>
<stop offset="0.7283" stop-color="#C99950"/>
<stop offset="0.8834" stop-color="#AD7D36"/>
<stop offset="1" stop-color="#B48856"/>
</linearGradient>
</defs>
</svg>
