<?xml version="1.0" encoding="UTF-8"?><svg id="_イヤー_2" xmlns="http://www.w3.org/2000/svg" viewBox="0 0 36.43 36.43"><defs><style>.cls-1{fill:#fff;}.cls-2{fill:#5e5148;}</style></defs><g id="_イヤー_2-2"><g><circle class="cls-2" cx="18.21" cy="18.21" r="18.21"/><path class="cls-1" d="M22.42,6.92c-.3,0-.6,.07-.86,.19-.43-.83-.84-1.63-.89-1.76-.12-.25-.07-.44,.05-.62,.07-.1,.13-.17,.13-.31,0-.14-.11-.25-.24-.25h-2.27c-.13,0-.23,.11-.23,.25s.1,.25,.23,.25h1.66c.16,0,.19,.1,.14,.22-.05,.12-.08,.39,.01,.55,.04,.06,0,.16-.07,.16h-4.11c-.1,0-.16-.05-.18-.09-.03-.06-.06-.12-.1-.19-.05-.1-.06-.19,.09-.21,.21-.03,.34-.05,.53-.09,.22-.04,.18-.33,0-.33h-1.75c-.13,0-.23,.08-.23,.25s0,.34,.19,.34c.12,0,.38-.04,.45-.06,.07-.01,.14,0,.16,.04,.04,.07,.09,.17,.13,.24,.02,.04,.04,.12,0,.21-.03,.08-.27,.65-.54,1.31-.22-.08-.45-.12-.69-.12-1.23,0-2.23,1.07-2.23,2.39s1,2.4,2.23,2.4c1.15,0,2.1-.94,2.21-2.14h.43c.08,.44,.44,.78,.87,.78,.49,0,.89-.43,.89-.95,0-.14-.03-.28-.08-.4,.35-.28,1.61-1.32,2.41-1.98,.09-.07,.22-.04,.27,.05,0,0,.07,.14,.15,.28-.6,.44-.97,1.17-.97,1.98,0,1.32,1,2.4,2.23,2.4s2.23-1.07,2.23-2.4-1-2.39-2.23-2.39Zm-7.5,.84c.42,.28,.72,.75,.79,1.31-.42,0-.88,0-1.2,0-.08,0-.1-.05-.08-.11,.08-.2,.29-.69,.5-1.2Zm-.9,3.39c-.94,0-1.71-.82-1.71-1.84s.76-1.84,1.71-1.84c.17,0,.33,.03,.48,.07-.32,.78-.64,1.55-.69,1.66-.01,.03-.02,.07-.02,.1,0,.14,.1,.25,.23,.25h1.69c-.11,.9-.83,1.59-1.69,1.59Zm2.68-2.09c-.12,0-.28,0-.46,0-.08-.78-.5-1.45-1.1-1.82,.19-.46,.35-.85,.4-.96,.03-.08,.07-.07,.11,0,.45,.9,1.04,2.05,1.24,2.45-.08,.09-.15,.21-.19,.33Zm.84,.78c-.23,0-.42-.2-.42-.46s.19-.46,.42-.46,.42,.2,.42,.46-.19,.46-.42,.46Zm3.03-3.31c-.21,.17-2.52,2.07-2.52,2.07-.14-.11-.32-.17-.51-.17-.09,0-.17,.01-.25,.04-.11-.23-.37-.74-1.13-2.24-.04-.08-.02-.13,.13-.13h4.12c.1,0,.14,.03,.17,.09,.02,.04,.05,.08,.05,.08,.05,.09,.03,.19-.06,.26Zm1.86,4.62c-.94,0-1.71-.82-1.71-1.84,0-.61,.27-1.15,.7-1.48,.38,.73,.72,1.42,.81,1.59,.06,.12,.2,.17,.32,.1,.11-.07,.15-.22,.09-.34-.06-.12-.42-.82-.82-1.59,.19-.08,.39-.12,.61-.12,.94,0,1.71,.82,1.71,1.84s-.76,1.84-1.71,1.84Z"/><g><path class="cls-1" d="M3.36,23.52c.79-.18,1.02-.37,1.1-1.07,.07-.55,.11-1.65,.11-4.72,0-1.77-.02-2.34-.06-2.57-.03-.17-.18-.32-.36-.35-.26-.05-.57-.08-.73-.13-.24-.07-.31-.12-.31-.22s.16-.22,.32-.25c.62-.15,1.23-.22,1.7-.48,.32-.17,.58-.32,.66-.32s.13,.08,.13,.17c0,.33-.06,.7-.05,1.92,0,1.18,0,4.51,.02,6.48,0,1.13,.05,1.3,1.05,1.55,.23,.05,.42,.15,.42,.3,0,.12-.15,.18-.39,.18-.4,0-1.07-.07-1.57-.07-.92,0-1.96,.08-2.19,.08-.18,0-.4-.03-.4-.17s.16-.23,.53-.33Z"/><path class="cls-1" d="M13.84,15.59c0,.77-.42,1.3-.89,1.7-.29,.28-.76,.57-1.1,.8-.06,.03-.06,.12-.03,.15,.83,.63,2.15,1.72,2.15,3.1,0,.92-.53,1.7-1.17,2.17-.66,.52-1.49,.63-1.99,.63-2.01,0-2.91-1.39-2.91-2.49s.68-1.69,1.13-2.07c.26-.22,.84-.7,1.04-.83,.02-.02,0-.08-.02-.1-.44-.32-.94-.75-1.29-1.22-.37-.47-.6-1-.6-1.67,0-.85,.39-1.5,.88-1.9,.58-.52,1.38-.77,2.06-.77,1.55,0,2.75,1.04,2.75,2.49Zm-1.18,6.28c0-1.24-1.04-2.07-1.97-2.77-.07-.05-.21-.12-.24-.08-.63,.45-1.29,1.57-1.29,2.47,0,.53,.23,1.08,.52,1.52,.36,.4,.92,.68,1.38,.68,1.07,0,1.62-.82,1.62-1.82Zm-3.32-6.58c0,1.14,.86,1.84,1.91,2.59,.05,.03,.15,.07,.19,.03,.21-.17,.57-.5,.73-.77,.11-.2,.47-.83,.47-1.67,0-.37-.42-1.92-1.72-1.92-.76,0-1.59,.58-1.59,1.74Z"/></g><g><path class="cls-1" d="M16.18,19.48c.21-.09,.69-.37,.8-.45,.04-.03,.06-.04,.08-.04,.05,.01,.13,.09,.13,.11,0,.15-.04,.46-.04,.57,0,.03,.02,.11,.06,.07,.26-.22,.92-.63,1.42-.63,.38,0,.63,.08,.82,.22s.3,.31,.34,.38c.02,.04,.04,.07,.08,.04,.2-.15,.48-.33,.75-.47,.24-.12,.49-.17,.68-.17,.39,0,.69,.13,.91,.37,.23,.27,.33,.65,.35,1.05,.04,.57,.02,1.33,.02,2.22,.01,.2,.07,.4,.46,.51,.14,.04,.2,.09,.2,.15,0,.08-.1,.12-.3,.12-.21,0-.5-.03-.76-.03-.32,0-.48,.02-.72,.02-.2,0-.26-.07-.26-.14,0-.07,.12-.11,.23-.14,.34-.11,.38-.24,.38-.62,0-.26-.02-1.48-.02-1.84,0-.38-.06-.53-.17-.73-.13-.21-.36-.38-.8-.38-.48,0-.67,.21-.81,.34-.03,.03-.11,.24-.11,.32s-.02,2.14,0,2.38c.03,.35,.08,.46,.44,.54,.12,.03,.22,.1,.22,.15,0,.08-.08,.13-.25,.13-.23,0-.55-.02-.79-.02-.22,0-.53,.02-.75,.02-.24,0-.28-.09-.28-.13,0-.03,.04-.11,.21-.15,.36-.09,.4-.2,.4-.59v-2.14c0-.32-.06-.46-.14-.56-.14-.18-.41-.33-.79-.33-.35,0-.59,.13-.85,.34-.07,.07-.11,.15-.12,.27-.02,.28-.02,1.66-.02,2.48,0,.21,.04,.38,.38,.49,.2,.07,.29,.11,.29,.2,0,.08-.15,.11-.29,.11-.04,0-.43-.02-.83-.02-.35,0-.56,.03-.79,.03-.16,0-.26-.04-.26-.12,0-.04,.06-.12,.25-.16,.34-.09,.4-.25,.44-.72,.02-.32,.03-1.41,.03-2.16,0-.05,.02-.2-.07-.29-.3-.28-.37-.34-.37-.39,0-.07,.1-.13,.21-.2Z"/><path class="cls-1" d="M24.1,23.54c-.17,0-.28-.04-.28-.12,0-.07,.07-.12,.25-.17,.24-.07,.4-.2,.42-.3,.03-.15,.04-.81,.04-1.12s.01-1.57-.01-1.7c-.01-.08-.13-.16-.43-.39-.06-.04-.08-.08-.08-.12,0-.08,.1-.16,.21-.18,.39-.09,.89-.33,1.05-.37,.04,0,.09,.11,.09,.12,0,.12-.06,1.54-.06,2.16s.01,1.07,.02,1.45c.01,.35,.24,.37,.51,.46,.17,.05,.23,.11,.23,.19,0,.07-.13,.11-.24,.11-.07,0-.6-.03-.83-.03-.35,0-.72,.04-.9,.04Zm1.34-6.12c0,.29-.3,.53-.51,.53-.07,0-.24-.04-.34-.13-.08-.1-.16-.22-.16-.4,0-.1,.04-.27,.13-.39,.11-.1,.26-.14,.41-.14,.29,0,.46,.34,.46,.53Z"/><path class="cls-1" d="M26.9,19.4c.18-.07,.56-.21,.71-.32,.11-.07,.2-.12,.25-.12s.11,.12,.11,.16c0,.19-.04,.45-.04,.54,0,.05,.05,.03,.06,.03,.42-.29,.97-.6,1.42-.6,.52,0,.81,.24,.96,.41,.23,.28,.37,.78,.37,1.33,0,.21,.02,1.83,.03,1.98,.02,.16,.13,.31,.39,.38,.2,.05,.26,.11,.26,.19s-.15,.12-.32,.12c-.24,0-.49-.02-.78-.02-.26,0-.59,.02-.73,.02-.09,0-.24-.04-.24-.13,0-.08,.12-.14,.24-.18,.25-.1,.31-.19,.33-.54,.02-.36,.03-1.68,.03-1.99,0-.39-.19-.71-.32-.81-.12-.09-.43-.21-.68-.21-.46,0-.74,.16-.94,.35-.03,.03-.11,.16-.11,.26,0,.14,0,2.48,.01,2.61,.01,.15,.05,.24,.39,.34,.11,.03,.19,.1,.19,.16,0,.08-.12,.13-.26,.13-.13,0-.42-.01-.65-.01-.39,0-.7,.03-.88,.03-.16,0-.28-.04-.28-.14,0-.08,.11-.13,.22-.16,.35-.11,.41-.22,.44-.61,.03-.33,.05-1.27,.05-2.39,0-.12-.02-.23-.25-.42-.14-.1-.2-.15-.2-.19,0-.08,.12-.18,.19-.22Z"/><path class="cls-1" d="M33.43,23c0,.35-.24,.63-.59,.63-.25,0-.58-.16-.58-.63s.39-.63,.58-.63c.46,0,.59,.41,.59,.63Z"/></g><g><path class="cls-1" d="M8.64,30.63c-.61-.41-1.17-1.31-1.17-2.42s.56-2.02,1.17-2.42l.05,.07c-.51,.48-.88,1.4-.88,2.35s.37,1.87,.88,2.35l-.05,.07Z"/><path class="cls-1" d="M11.19,26.88c.07,.04,.09,.06,.09,.1,0,.06-.02,.06-.21,.12-.15,.15-.76,.89-.89,1.03,.04,0,.42-.02,.63-.05-.09-.16-.14-.21-.2-.27l.02-.03c.34,.1,.73,.34,.73,.62,0,.12-.07,.23-.2,.23-.16,0-.19-.09-.22-.18,0-.04-.06-.2-.07-.23l-.38,.1c0,.17,0,1.04,0,1.06,0,.3,.03,.84,.03,.89,0,.07,0,.25-.27,.25-.16,0-.16-.1-.16-.15,0-.04,0-.1,0-.15,.02-.74,.02-.84,.02-1.81-.1,.02-.51,.12-.56,.13-.02,.03-.05,.06-.07,.08-.02,.04-.04,.07-.08,.07-.06,0-.08-.05-.09-.11l-.11-.47c.14,.03,.23,.04,.43,.04,.13,0,.25,0,.37-.01,.27-.39,.63-1.11,.69-1.29,.02-.06,.02-.13,.02-.2l.46,.25Zm-1.92,3.3c.08-.21,.32-.87,.32-1.52l.42,.17s.08,.04,.08,.08c0,.05-.05,.08-.14,.12-.14,.44-.29,.73-.65,1.17h-.03Zm.16-3.3c.3,.06,.43,.12,.45,.13,.13-.31,.31-.82,.3-1.13l.5,.25s.07,.04,.07,.08c0,.07-.08,.08-.18,.11-.28,.35-.32,.39-.61,.72,.16,.08,.31,.22,.31,.41,0,.12-.07,.27-.22,.27-.14,0-.16-.05-.28-.33-.08-.18-.15-.3-.33-.49v-.03Zm1.15,1.88c.42,.17,.74,.35,.74,.67,0,.19-.14,.27-.23,.27-.16,0-.19-.13-.26-.38-.05-.16-.16-.4-.26-.54l.02-.02Zm2.27-1.59l.17-.16s.05-.05,.08-.05,.04,0,.08,.05l.22,.19s.05,.04,.05,.08-.13,.17-.17,.2c0,.08,0,.2-.04,1.27,0,.09-.04,1.25-.56,1.59-.1,.07-.28,.14-.49,.13-.04-.33-.31-.54-.42-.62v-.04c.31,.08,.58,.11,.66,.11,.09,0,.17,0,.29-.35,.19-.52,.18-1.71,.17-2.28h-1.21c-.24,.43-.42,.61-.51,.7l-.03-.02c.42-.87,.5-1.66,.5-1.82,0-.07,0-.14-.02-.21l.56,.26c.05,.02,.07,.05,.07,.08,0,.04-.02,.05-.19,.13-.14,.42-.28,.7-.32,.77h1.11Zm-1.29,.94c.65,.23,.74,.44,.74,.64,0,.18-.13,.25-.23,.25-.16,0-.2-.12-.26-.31-.04-.14-.11-.34-.27-.55l.02-.03Z"/><path class="cls-1" d="M13.92,28.91l1.5-2.55h.24v2.55h.5v.17h-.5v.57c0,.2,.09,.31,.27,.31h.13v.16h-1.28v-.16h.12c.16,0,.28-.12,.28-.32v-.56h-1.26v-.17Zm.18,0h1.08v-1.84l-1.08,1.84Z"/><path class="cls-1" d="M16.42,30.66c.26-.23,.27-.36,.27-.39,0-.05-.03-.06-.05-.07-.08-.03-.24-.09-.24-.32,0-.17,.14-.32,.31-.32,.15,0,.31,.12,.31,.33,0,.13-.07,.48-.51,.85l-.08-.08Z"/><path class="cls-1" d="M19.43,29.1c0,.58-.48,1.11-1.15,1.11-.63,0-.98-.45-.98-.76,0-.17,.14-.32,.3-.32,.1,0,.27,.08,.27,.33,0,.06,0,.12-.03,.18-.02,.04-.03,.09-.03,.14,0,.21,.24,.25,.38,.25,.49,0,.7-.43,.7-.87,0-.61-.37-.94-.69-.94-.02,0-.15,.03-.17,.03-.06,0-.11-.03-.11-.1,0-.07,.04-.12,.11-.12,.02,0,.15,.03,.17,.03,.34,0,.6-.3,.6-.79,0-.41-.19-.73-.53-.73-.22,0-.35,.13-.35,.29,0,.04,.05,.25,.05,.29,0,.18-.14,.28-.27,.28-.15,0-.29-.12-.29-.29,0-.33,.33-.75,.95-.75s.96,.44,.96,.86c0,.25-.14,.69-.78,.9,.28,.09,.89,.32,.89,.97Z"/><path class="cls-1" d="M21.88,28.28c0,1.09-.45,1.92-1.09,1.92s-1.09-.86-1.09-1.92,.45-1.92,1.09-1.92,1.09,.85,1.09,1.92Zm-1.64,0c0,.67,.05,1.76,.55,1.76s.55-1.06,.55-1.76c0-.66-.05-1.76-.55-1.76s-.55,1.07-.55,1.76Z"/><path class="cls-1" d="M24.31,28.28c0,1.09-.45,1.92-1.09,1.92s-1.09-.86-1.09-1.92,.45-1.92,1.09-1.92,1.09,.85,1.09,1.92Zm-1.64,0c0,.67,.05,1.76,.55,1.76s.55-1.06,.55-1.76c0-.66-.05-1.76-.55-1.76s-.55,1.07-.55,1.76Z"/><path class="cls-1" d="M24.59,27.85l.73-.22v.46c.33-.34,.58-.43,.79-.43s.5,.11,.61,.47c.12-.13,.42-.47,.8-.47,.26,0,.63,.19,.63,.67v1.39c0,.12,.06,.24,.17,.24h.17v.16h-1.05v-.16h.13c.11,0,.2-.12,.2-.25v-1.28c0-.31-.2-.5-.42-.5-.24,0-.47,.2-.61,.41v1.38c0,.12,.07,.24,.18,.24h.15v.16h-1.05v-.16h.13c.11,0,.21-.12,.21-.25v-1.28c0-.3-.16-.51-.39-.51-.15,0-.36,.06-.64,.37v1.45c0,.11,.08,.22,.21,.22h.13v.16h-1.05v-.16h.16c.11,0,.18-.1,.18-.22v-1.54c0-.12-.04-.26-.17-.26-.02,0-.08,0-.16,.02l-.02-.1Z"/><path class="cls-1" d="M28.98,30.63l-.05-.07c.51-.48,.88-1.4,.88-2.35s-.37-1.87-.88-2.35l.05-.07c.61,.41,1.16,1.31,1.16,2.42s-.56,2.02-1.16,2.42Z"/></g></g></g></svg>