<svg width="8" height="16" viewBox="0 0 8 16" fill="none" xmlns="http://www.w3.org/2000/svg">
<path d="M5.03969 15.4881C4.96527 15.4911 4.91764 15.497 4.87001 15.497C3.85195 15.497 2.83687 15.494 1.81881 15.5C1.67593 15.5 1.63723 15.4613 1.63723 15.3184C1.64021 12.9489 1.64021 10.5764 1.64021 8.20689C1.64021 8.14438 1.64021 8.08186 1.64021 8.00149C1.08652 8.00149 0.547727 8.00149 0 8.00149C0 7.15609 0 6.32556 0 5.47123C0.0565588 5.47123 0.110141 5.47123 0.160746 5.47123C0.607263 5.47123 1.05378 5.46825 1.5003 5.47421C1.61341 5.47421 1.64318 5.44146 1.64318 5.33132C1.63723 4.6675 1.63723 4.0007 1.64318 3.33688C1.64616 2.8725 1.72058 2.42003 1.93491 2.0003C2.24152 1.40793 2.72673 1.02392 3.33995 0.785778C3.84005 0.589311 4.36694 0.517868 4.8968 0.508938C5.76007 0.497031 6.62333 0.502984 7.4866 0.500007C7.56697 0.500007 7.63246 0.497031 7.63246 0.610148C7.62949 1.42876 7.62949 2.24738 7.62949 3.06599C7.62949 3.07492 7.62651 3.08385 7.6146 3.12255C7.564 3.12255 7.50744 3.12255 7.45088 3.12255C6.91506 3.12255 6.37924 3.11957 5.84342 3.12255C5.53383 3.12255 5.28378 3.24758 5.12601 3.51846C5.07839 3.59884 5.04862 3.70302 5.04862 3.79828C5.03969 4.30433 5.04862 4.81038 5.04266 5.31644C5.04266 5.43551 5.07839 5.46825 5.19448 5.46825C5.93868 5.4623 6.68287 5.46528 7.42707 5.46528C7.4866 5.46528 7.54316 5.46528 7.64437 5.46528C7.54018 6.31663 7.43897 7.15013 7.33478 7.99256C6.56082 7.99256 5.8077 7.99256 5.03969 7.99256C5.03969 10.496 5.03969 12.9846 5.03969 15.4881Z" fill="#4F4F4F"/>
</svg>
