<?xml version="1.0" encoding="UTF-8"?><svg id="Layer_2" xmlns="http://www.w3.org/2000/svg" viewBox="0 0 179.9 336.26"><defs><style>.cls-1{fill:#fff;}</style></defs><g id="Layer_1-2"><path class="cls-1" d="M28.15,167.91c1.89-1.39,3.22-2.14,4.27-3.19C79.92,117.2,127.38,69.64,174.88,22.13c2.84-2.84,5.07-5.84,4.98-10.07-.1-4.8-2.27-8.41-6.49-10.6-4.38-2.28-8.69-1.83-12.68,1.05-1.2.87-2.22,2.01-3.28,3.06C106.86,56.22,56.31,106.87,5.77,157.52c-7.66,7.67-7.69,13.55-.11,21.14,50.81,50.92,101.63,101.83,152.41,152.78,3.94,3.95,8.26,6.02,13.78,4.08,7.97-2.79,10.63-12.54,5.23-19.03-.72-.86-1.55-1.63-2.34-2.42-47.38-47.46-94.77-94.92-142.16-142.36-1.06-1.06-2.27-1.96-4.42-3.81Z"/></g></svg>