<svg width="20" height="20" viewBox="0 0 20 20" fill="none" xmlns="http://www.w3.org/2000/svg">
<g clip-path="url(#clip0_2376_7114)">
<path d="M10 20C15.5228 20 20 15.5228 20 10C20 4.47715 15.5228 0 10 0C4.47715 0 0 4.47715 0 10C0 15.5228 4.47715 20 10 20Z" fill="#AD814D"/>
<path d="M16.6506 9.4C16.6506 6.41667 13.6673 4 10.0006 4C6.33392 4 3.35059 6.41667 3.35059 9.4C3.35059 12.0667 5.71725 14.3 8.91725 14.7333C9.13392 14.7833 9.43392 14.8833 9.50059 15.0667C9.56725 15.2333 9.55059 15.5 9.51725 15.6667C9.51725 15.6667 9.43392 16.1333 9.41725 16.2333C9.38392 16.4 9.28392 16.8833 10.0006 16.6C10.7173 16.3 13.8339 14.35 15.2339 12.7333C16.1839 11.6667 16.6506 10.5833 16.6506 9.4Z" fill="white"/>
<path d="M8.65078 7.9668H8.18411C8.11745 7.9668 8.05078 8.0168 8.05078 8.10013V11.0001C8.05078 11.0668 8.10078 11.1335 8.18411 11.1335H8.65078C8.71745 11.1335 8.78411 11.0835 8.78411 11.0001V8.08346C8.78411 8.0168 8.71745 7.9668 8.65078 7.9668Z" fill="#AD814D"/>
<path d="M11.8674 7.9668H11.4007C11.3341 7.9668 11.2674 8.0168 11.2674 8.10013V9.8168L9.93405 8.0168C9.93405 8.0168 9.93405 8.00013 9.91738 8.00013H9.45072C9.38405 8.00013 9.31738 8.05013 9.31738 8.13346V11.0335C9.31738 11.1001 9.36738 11.1668 9.45072 11.1668H9.83405C9.90072 11.1668 9.96738 11.1168 9.96738 11.0335V9.2668L11.3007 11.0668C11.3174 11.0835 11.3174 11.0835 11.3341 11.1001C11.3341 11.1001 11.334 11.1001 11.3507 11.1001C11.3674 11.1001 11.3674 11.1001 11.3841 11.1001H11.8507C11.9174 11.1001 11.9841 11.0501 11.9841 10.9668V8.08346C11.9841 8.0168 11.9341 7.9668 11.8674 7.9668Z" fill="#AD814D"/>
<path d="M7.51751 10.3992H6.25085V8.08255C6.25085 8.01589 6.20085 7.94922 6.11751 7.94922H5.66751C5.60085 7.94922 5.53418 7.99922 5.53418 8.08255V10.9825C5.53418 11.0159 5.55085 11.0492 5.56751 11.0659C5.58418 11.0825 5.61751 11.0992 5.65085 11.0992H7.51751C7.58418 11.0992 7.65085 11.0492 7.65085 10.9659V10.4992C7.65085 10.4492 7.60085 10.3992 7.51751 10.3992Z" fill="#AD814D"/>
<path d="M14.434 8.68255C14.5007 8.68255 14.5673 8.63255 14.5673 8.54922V8.08255C14.5673 8.01589 14.5173 7.94922 14.434 7.94922H12.5674C12.534 7.94922 12.5007 7.96589 12.484 7.98255C12.4674 7.99922 12.4507 8.03255 12.4507 8.06589V10.9659C12.4507 10.9992 12.4674 11.0325 12.484 11.0492C12.5007 11.0659 12.534 11.0825 12.5674 11.0825H14.434C14.5007 11.0825 14.5673 11.0325 14.5673 10.9492V10.4825C14.5673 10.4159 14.5173 10.3492 14.434 10.3492H13.1673V9.86588H14.434C14.5007 9.86588 14.5673 9.81588 14.5673 9.73255V9.26588C14.5673 9.19922 14.5173 9.13255 14.434 9.13255H13.1673V8.64922H14.434V8.68255Z" fill="#AD814D"/>
</g>
<defs>
<clipPath id="clip0_2376_7114">
<rect width="20" height="20" fill="white"/>
</clipPath>
</defs>
</svg>
