<?xml version="1.0" encoding="UTF-8"?><svg id="Layer_2" xmlns="http://www.w3.org/2000/svg" viewBox="0 0 179.9 336.26"><defs><style>.cls-1{fill:#fff;}</style></defs><g id="Layer_1-2"><path class="cls-1" d="M151.75,167.91c-1.89-1.39-3.22-2.14-4.27-3.19C99.99,117.2,52.52,69.64,5.02,22.13,2.18,19.29-.04,16.28.05,12.06.15,7.25,2.31,3.65,6.53,1.45,10.92-.83,15.23-.38,19.21,2.5c1.2.87,2.22,2.01,3.28,3.06,50.55,50.65,101.1,101.3,151.64,151.96,7.66,7.67,7.69,13.55.11,21.14-50.81,50.92-101.63,101.83-152.41,152.78-3.94,3.95-8.26,6.02-13.78,4.08-7.97-2.79-10.63-12.54-5.23-19.03.72-.86,1.55-1.63,2.34-2.42,47.38-47.46,94.77-94.92,142.16-142.36,1.06-1.06,2.27-1.96,4.42-3.81Z"/></g></svg>