<svg width="16" height="13" viewBox="0 0 16 13" fill="none" xmlns="http://www.w3.org/2000/svg">
<g clip-path="url(#clip0_2221_4606)">
<path d="M15.0845 1.68166C14.2647 1.01953 11.3735 0.5 8 0.5C4.62647 0.5 1.73534 1.01953 0.915531 1.68166C0.162125 2.28906 0 5.03516 0 6.59375C0 8.15234 0.162125 10.8984 0.915531 11.5059C1.73534 12.168 4.62647 12.6875 8 12.6875C11.3735 12.6875 14.2647 12.168 15.0845 11.5058C15.8379 10.8984 16 8.15234 16 6.59375C16 5.03516 15.8379 2.28906 15.0845 1.68166ZM10.4004 6.66894L6.68653 8.88575C6.65919 8.90137 6.62597 8.90234 6.59863 8.88672C6.57128 8.87109 6.55419 8.84178 6.55419 8.81053V6.59375V4.37694C6.55419 4.34519 6.57128 4.31637 6.59863 4.30075C6.62597 4.28512 6.65919 4.28609 6.68653 4.30172L10.4004 6.51853C10.4268 6.53416 10.4429 6.56247 10.4429 6.59372C10.4429 6.62403 10.4267 6.65331 10.4004 6.66894Z" fill="#4F4F4F"/>
</g>
<defs>
<clipPath id="clip0_2221_4606">
<rect width="16" height="12.1875" fill="white" transform="translate(0 0.5)"/>
</clipPath>
</defs>
</svg>
