<svg width="736" height="45" viewBox="0 0 736 45" fill="none" xmlns="http://www.w3.org/2000/svg">
<path d="M0 26.9375H5.33198V27.5457H0.643616V38.2569H0V26.9375Z" fill="white"/>
<path d="M18.5172 32.0923C18.5703 33.9936 18.777 35.8359 19.2494 37.4242C19.8753 36.1724 20.3654 34.7435 20.6606 33.1197L22.3848 33.6275C22.3139 33.8342 22.1072 33.9936 21.7057 33.9759C21.2156 35.8241 20.5543 37.3711 19.704 38.6642C20.1587 39.6739 20.7846 40.5301 21.6053 41.1383C21.8474 41.3627 21.9537 41.3627 22.0954 41.0497C22.2726 40.6837 22.5324 39.9338 22.7213 39.3079L22.928 39.3433L22.7036 41.6579C23.1406 42.2484 23.176 42.4787 23.0343 42.6676C22.6859 43.1696 21.7471 42.7562 21.1034 42.2307C20.2177 41.5339 19.5328 40.66 18.9954 39.6326C17.8086 41.1147 16.3324 42.1953 14.6082 42.9452L14.4016 42.7031C15.3404 42.148 16.2143 41.469 16.9997 40.6659H11.7385V41.4867C11.7385 41.5753 11.4256 41.8528 10.9001 41.8528H10.7406V32.8835L11.9452 33.4208H15.3936L16.0195 32.6178C16.0195 32.6178 16.7517 33.2083 17.224 33.6452C17.1709 33.8342 16.9997 33.9227 16.7694 33.9227H14.3307V35.5052H15.5176L16.0549 34.9502L17.2772 35.8536C17.1886 35.9776 16.9465 36.1134 16.6513 36.1665V38.4635C16.6336 38.5698 16.1257 38.7941 15.8128 38.7941H15.6711V38.186H14.3307V40.1522H15.5353L16.1789 39.3138C16.1789 39.3138 16.8757 39.8511 17.3303 40.288C17.785 39.7979 18.1983 39.2429 18.5644 38.6524C17.8499 36.8042 17.5193 34.5604 17.3953 32.0864H9.8372V34.525C9.8372 36.9637 9.64825 40.4652 7.22731 42.9038L7.00293 42.6972C8.60311 40.2231 8.74483 37.2294 8.74483 34.5427V30.9881L10.0498 31.5608H17.3835C17.3657 31.2302 17.3657 30.8995 17.348 30.5688C17.2417 30.6043 17.1059 30.622 16.9465 30.622H16.7576V29.2639H13.3446V30.3799C13.3446 30.5039 12.8722 30.6751 12.4235 30.6751H12.2463V29.2639H7.2155L7.12693 28.7561H12.2286V26.9788L13.9528 27.1559C13.9174 27.398 13.7639 27.5751 13.3269 27.6283V28.762H16.7398V26.9847L18.4817 27.1618C18.4463 27.4039 18.3105 27.581 17.8558 27.6342V28.7679H20.7492L21.5522 27.7582C21.5522 27.7582 22.4733 28.4727 23.0166 28.9923C22.9811 29.1812 22.8276 29.2698 22.5796 29.2698H17.8617V30.0551L19.0663 30.1968C19.0309 30.4035 18.8892 30.5984 18.5113 30.6692V31.5726H21.2452L21.9596 30.6515C21.9596 30.6515 22.7981 31.3128 23.3 31.8206C23.2469 32.0096 23.0933 32.0982 22.8631 32.0982H18.5231L18.5172 32.0923ZM11.7208 33.9227V35.5052H13.321V33.9227H11.7208ZM11.7208 36.0307V37.7018H15.6593V36.0307H11.7208ZM11.7208 40.1581H13.321V38.1919H11.7208V40.1581ZM19.2139 29.4469C21.9655 29.9547 21.2156 31.797 20.2591 31.1888C20.0996 30.6338 19.5446 29.9725 19.025 29.5887L19.2139 29.4469Z" fill="white"/>
<path d="M39.4792 29.2048C39.4792 29.2048 40.4534 29.9547 41.0439 30.5275C40.9908 30.7164 40.855 30.7873 40.607 30.7873H25.172L25.0303 30.2795H30.7579C30.6162 30.2795 30.4626 30.2086 30.3032 30.1023C30.132 29.1103 29.2404 27.8881 28.455 27.1913L28.644 27.0496C31.9211 28.0947 31.7262 30.2204 30.8228 30.2736H34.2535C34.8617 29.2993 35.5407 27.9766 35.9422 27.0142L37.7904 27.5515C37.7018 27.7404 37.4952 27.8822 37.0937 27.8644C36.5563 28.5966 35.647 29.5178 34.7967 30.2677H38.5757L39.4615 29.1871L39.4792 29.2048ZM31.5019 31.8856L32.9662 32.9838C32.8422 33.1078 32.547 33.2614 32.2163 33.3145V41.4158C32.2163 42.3074 32.0392 42.827 30.6339 42.9688C30.6162 42.6381 30.5276 42.3606 30.3386 42.2011C30.1497 42.0299 29.8131 41.8882 29.2226 41.8173V41.5398C29.2226 41.5398 30.4744 41.6461 30.7874 41.6461C31.0295 41.6461 31.1003 41.5398 31.1003 41.3154V38.4753H27.7405V42.5672C27.7405 42.6912 27.3036 42.9688 26.8194 42.9688H26.6305V32.045L27.835 32.5823H30.935L31.5078 31.8856H31.5019ZM27.7405 33.1078V35.2158H31.1003V33.1078H27.7405ZM31.1003 37.9497V35.7355H27.7405V37.9497H31.1003ZM36.3083 32.5351C36.2729 32.7772 36.1017 32.9543 35.6647 33.0252V39.9928C35.6647 40.1345 35.1923 40.3766 34.7967 40.3766H34.59V32.3461L36.3142 32.5351H36.3083ZM38.31 31.9623L40.0342 32.1513C39.9811 32.3757 39.8275 32.5351 39.426 32.5882V41.3509C39.426 42.2543 39.2194 42.8152 37.6133 42.951C37.5601 42.6381 37.4538 42.3606 37.2117 42.2011C36.9519 42.0122 36.515 41.8705 35.7297 41.7819V41.5044C35.7297 41.5044 37.5247 41.6461 37.9085 41.6461C38.2215 41.6461 38.31 41.5398 38.31 41.28V31.9623Z" fill="white"/>
<path d="M48.123 43.0691H42.791V42.461H47.4794V31.7498H48.123V43.0691Z" fill="white"/>
<path d="M64.3201 35.0919C65.9734 42.9157 61.2909 42.089 62.6372 39.9928C63.4107 39.0835 63.8477 37.318 63.8772 35.0919H64.3201ZM75.3383 32.4466C75.1434 32.6651 74.8128 32.7773 74.2636 32.8599C73.9861 38.2864 73.2716 41.097 72.1675 42.0359C71.5356 42.6145 70.6499 42.833 69.717 42.833C69.717 42.3902 69.6343 41.9532 69.3568 41.7052C69.0793 41.4572 68.3353 41.2624 67.6208 41.1266V40.6601C68.4475 40.7132 69.7406 40.8254 70.2366 40.8254C70.6795 40.8254 70.8979 40.7723 71.1459 40.5774C71.8368 39.9692 72.3859 37.4066 72.6634 32.671H65.749V33.5508C65.749 33.6866 65.2235 34.1294 64.3968 34.1294H64.1488V19.6687L66.1033 20.4954H71.9431L73.1535 19.0605C73.1535 19.0605 74.5057 20.0821 75.356 20.8792C75.2733 21.1803 75.0253 21.3221 74.6415 21.3221H69.9886V24.239H71.8899L72.9114 22.8868C72.9114 22.8868 74.181 23.8788 74.8954 24.5933C74.8423 24.8944 74.5648 25.0361 74.2046 25.0361H69.9886V28.0121H71.7777L72.8229 26.6895C72.8229 26.6895 74.0629 27.6519 74.8069 28.3959C74.7242 28.6971 74.4762 28.8388 74.116 28.8388H69.9827V31.8679H72.4095L73.372 30.8464L75.3265 32.4466H75.3383ZM65.9439 34.8144C68.5892 38.3395 66.9063 41.286 65.7785 39.9102C66.0797 38.31 65.8612 36.2433 65.5305 34.9266L65.9439 34.8144ZM65.749 21.3162V24.2331H68.4238V21.3162H65.749ZM68.4238 25.0361H65.749V28.0121H68.4238V25.0361ZM65.749 31.8679H68.4238V28.8388H65.749V31.8679ZM67.5677 34.3479C71.0928 37.0464 69.6875 39.8039 68.477 38.5934C68.477 37.3239 67.7861 35.5879 67.2075 34.5191L67.5677 34.3538V34.3479ZM69.3037 33.7397C73.1594 35.0919 71.9785 37.873 70.6795 36.8515C70.5141 35.889 69.717 34.6491 68.973 33.9582L69.3037 33.7397ZM80.6526 30.0729C81.8099 35.1982 84.343 39.9102 88.311 41.8351L88.2579 42.1363C87.567 42.2721 86.9647 42.8271 86.7167 43.7364C82.8905 41.0085 81.0423 36.326 80.1034 30.0729H78.3674C78.2552 34.7553 77.5703 40.0755 73.4665 43.766L73.0532 43.4884C76.2476 39.3551 76.6373 34.094 76.6373 28.8329V19.6569L78.704 20.5367H84.7386L85.7011 19.4621L87.88 21.1449C87.7441 21.3634 87.2718 21.5878 86.7521 21.6704V31.0354C86.7226 31.2007 85.8133 31.614 85.2642 31.614H85.0162V30.0729H80.6644H80.6526ZM78.3674 29.2462H85.0044V21.3398H78.3674V29.2462Z" fill="white"/>
<path d="M99.9076 25.3372C99.7423 25.6384 99.4647 25.7505 98.8034 25.6384C98.1952 26.6008 97.3686 27.705 96.4356 28.8328L97.2091 29.134C97.0969 29.382 96.8253 29.5473 96.3825 29.63V43.1282C96.3529 43.2935 95.6385 43.76 94.9476 43.76H94.6169V30.8936C93.4891 32.0804 92.2728 33.2378 91.0387 34.2002L90.708 33.8696C93.3238 31.0589 95.9691 26.8429 97.2623 24.0323L99.9076 25.3254V25.3372ZM99.3289 19.9403C99.1636 20.2178 98.8861 20.3241 98.2838 20.1883C96.7427 21.9774 93.9851 24.4043 91.204 25.9159L90.9029 25.5557C93.188 23.6248 95.668 20.6252 96.8253 18.5291L99.3348 19.9344L99.3289 19.9403ZM108.475 40.7663C109.745 41.097 111.203 41.2328 112.88 41.2328C113.79 41.2328 115.691 41.2328 116.766 41.2032V41.5871C116.134 41.6992 115.827 42.3015 115.803 43.0455H112.691C107.377 43.0455 104.318 41.5044 102.553 35.6056C101.726 38.6347 100.291 41.6638 97.7347 43.7069L97.4335 43.4057C100.191 40.2349 101.236 35.0564 101.431 30.7341L104.295 31.2597C104.212 31.6435 103.911 31.8679 103.303 31.8915C103.167 32.8008 103.002 33.7633 102.777 34.7317C103.716 37.4596 104.98 39.113 106.716 40.0754V28.8328L109.361 29.1103C109.308 29.4705 109.084 29.7421 108.481 29.8248V33.7101H111.924L113.193 32.1099C113.193 32.1099 114.628 33.2673 115.537 34.0644C115.455 34.3656 115.177 34.5073 114.793 34.5073H108.487V40.7604L108.475 40.7663ZM100.374 22.7509H106.214V18.7003L108.912 18.9778C108.859 19.338 108.611 19.586 108.003 19.6923V22.7509H111.64L112.91 21.1803C112.91 21.1803 114.345 22.2845 115.254 23.1347C115.171 23.4359 114.923 23.5776 114.54 23.5776H108.009V27.8467H112.827L114.097 26.2465C114.097 26.2465 115.555 27.3744 116.464 28.2305C116.382 28.5317 116.134 28.6734 115.75 28.6734H99.1931L98.9746 27.8467H106.22V23.5776H100.598L100.38 22.7509H100.374Z" fill="white"/>
<path d="M142.139 25.532C142.139 25.532 143.71 26.7424 144.672 27.6281C144.589 27.9293 144.341 28.071 143.928 28.071H119.683L119.465 27.2443H124.755V20.6074L127.401 20.8849C127.348 21.2451 127.1 21.4931 126.491 21.5994V27.2443H131.174V18.5112L133.985 18.8124C133.931 19.1962 133.654 19.4737 132.993 19.5564V22.6682H137.728L139.08 20.9853C139.08 20.9853 140.598 22.1958 141.56 23.0225C141.507 23.3236 141.2 23.4653 140.816 23.4653H132.993V27.2384H140.734L142.139 25.532ZM128.753 30.5746C128.617 30.8226 128.369 30.9584 127.731 30.8521C126.108 33.031 123.102 35.6999 119.796 37.3001L119.548 36.9399C122.305 34.9264 124.974 31.7083 126.214 29.2283L128.747 30.5805L128.753 30.5746ZM120.545 43.2167C127.655 41.8113 133.217 39.7978 137.681 33.462L140.131 34.8969C139.966 35.1744 139.665 35.2275 138.974 35.0917C133.99 41.0673 128.31 42.8328 120.652 43.7422L120.54 43.2167H120.545ZM127.324 35.6113C127.324 35.6113 130.052 35.8062 130.601 35.8062C131.044 35.8062 131.18 35.6704 131.18 35.2807V28.2009L133.908 28.502C133.825 28.8859 133.577 29.0512 132.998 29.1634V35.387C132.998 36.8218 132.668 37.7016 130.158 37.9496C130.076 37.4241 129.94 36.9576 129.55 36.6801C129.166 36.379 128.529 36.1546 127.318 36.0188V35.6054L127.324 35.6113ZM136.417 29.6358C144.956 31.8677 144.46 36.5502 142.228 35.5051C141.206 33.5742 138.313 31.2359 136.169 29.9428L136.417 29.6417V29.6358Z" fill="white"/>
<path d="M155.892 17.7496C158.395 16.4152 161.289 15.6357 164.796 15.6357C173.813 15.6357 178.542 20.9205 178.542 28.6557C178.542 36.9459 172.809 42.6794 162.906 42.6794C156.116 42.6794 151.056 39.733 150.164 34.3892C150.554 33.3322 151.445 32.8303 152.39 32.8303C153.725 32.8303 154.392 33.5566 154.841 35.2808L156.063 39.2842C157.899 40.1758 159.848 40.5655 162.853 40.5655C169.307 40.5655 173.37 36.2256 173.37 28.9923C173.37 21.759 169.254 18.1394 163.019 18.1394C160.072 18.1394 157.51 18.9719 154.669 20.702L153.335 20.2001L154.835 0H177.09V4.00341H156.836L155.892 17.7496Z" fill="white"/>
<path d="M195.305 19.6393C195.193 19.9404 194.945 20.1057 194.26 20.0231C192.471 23.7962 189.028 28.3133 184.175 30.9055L183.927 30.5453C188.031 27.5398 191.142 22.6093 192.524 18.5587L195.305 19.6334V19.6393ZM203.324 28.2366L205.444 30.0021C205.249 30.1969 204.894 30.3623 204.339 30.4154C203.979 36.4737 203.182 41.2388 201.859 42.5083C201.062 43.2523 199.958 43.6125 198.606 43.583C198.606 43.0574 198.47 42.5615 197.998 42.2603C197.555 41.9592 196.096 41.6285 194.856 41.4336L194.886 40.9672C196.291 41.103 198.742 41.3274 199.433 41.3274C200.011 41.3274 200.259 41.2447 200.56 40.9672C201.523 40.17 202.184 35.7061 202.491 30.1969H195.772C195.305 34.7672 193.841 39.922 185.356 43.7483L184.996 43.3054C192.435 39.2017 193.534 34.2712 193.782 30.191H187.995L187.747 29.3644H202.267L203.312 28.2366H203.324ZM199.604 18.4819C201.34 22.7511 205.692 26.6069 209.66 28.5377L209.577 28.8388C208.833 28.892 208.225 29.388 207.87 30.2737C204.15 27.7642 200.679 23.6072 199.137 18.7595L199.604 18.4819Z" fill="white"/>
<path d="M246.44 27.4275C246.405 27.6342 246.181 27.705 245.744 27.7582C247.314 30.0197 250.219 31.9742 253.284 33.2968L253.249 33.5389C252.729 33.6452 252.292 34.0467 252.168 34.4778C249.346 32.9603 246.683 30.557 245.425 27.9648C243.754 30.5629 240.305 33.5566 237.064 35.1214L236.904 34.8793C239.833 33.1374 243.4 29.4646 244.362 26.8843L246.435 27.4216L246.44 27.4275ZM251.147 40.7368C251.147 40.7368 252.139 41.4867 252.764 42.0595C252.711 42.2484 252.522 42.3193 252.274 42.3193H237.589L237.43 41.8292H244.362V38.0856H239.798L239.656 37.5955H244.356V34.2888H240.052L239.928 33.781H248.064L248.867 32.8422C248.867 32.8422 249.771 33.5035 250.332 34.0113C250.296 34.2002 250.107 34.2888 249.877 34.2888H245.519V37.5955H248.584L249.44 36.6035C249.44 36.6035 250.361 37.3002 250.975 37.8199C250.922 37.997 250.751 38.0797 250.503 38.0797H245.519V41.8233H250.237L251.123 40.725L251.147 40.7368Z" fill="white"/>
<path d="M268.046 30.6811L269.474 31.7616C269.368 31.9034 269.091 32.0392 268.742 32.1277V37.1763C268.725 37.3003 268.116 37.5601 267.75 37.5601H267.579V36.3732H258.433C258.244 38.6525 257.511 41.1974 254.967 42.9924L254.742 42.7976C256.992 40.4298 257.323 37.4833 257.323 34.6963V30.7578L258.716 31.366H267.408L268.051 30.6693L268.046 30.6811ZM269.055 27.3862C269.055 27.3862 270.047 28.1361 270.673 28.7089C270.638 28.8978 270.466 28.9864 270.218 28.9864H255.516L255.356 28.4668H268.158L269.043 27.3862H269.055ZM267.573 35.8536V31.8974H258.498V34.6845C258.498 35.0506 258.498 35.4521 258.462 35.8536H267.573Z" fill="white"/>
<path d="M285.919 34.1116V37.7194H286.669L287.419 36.6742C287.419 36.6742 288.304 37.4064 288.83 37.9437C288.777 38.1209 288.641 38.2036 288.393 38.2036H273.117L272.976 37.7135H275.674V34.1057H272.993L272.852 33.6156H275.674V30.3916C274.871 31.2301 273.985 31.9091 273.111 32.411L272.905 32.2043C274.192 31.0529 275.621 29.0866 276.53 26.9609L278.254 27.764C278.148 27.9234 277.924 28.0415 277.54 27.9884C277.245 28.4785 276.932 28.9272 276.583 29.3642L276.896 29.5059H286.179L287.017 28.4607C287.017 28.4607 287.938 29.2106 288.499 29.7303C288.464 29.9251 288.292 30.0078 288.044 30.0078H285.919V33.6156H286.722L287.507 32.5704C287.507 32.5704 288.428 33.3026 288.972 33.8222C288.936 34.0171 288.783 34.0998 288.535 34.0998H285.925L285.919 34.1116ZM275.904 38.8826C276.288 41.026 275.278 42.2601 274.44 42.7148C273.95 43.0277 273.306 43.0454 273.117 42.6439C272.976 42.2955 273.206 41.9649 273.572 41.7405C274.475 41.3567 275.521 40.2938 275.609 38.8649L275.904 38.8826ZM276.725 33.6215H278.638V30.0137H276.725V33.6215ZM276.725 37.7135H278.638V34.1057H276.725V37.7135ZM278.225 39.0538C280.823 41.3035 279.53 43.6359 278.591 42.5553C278.697 41.4571 278.367 40.0635 277.983 39.1424L278.225 39.0538ZM279.689 30.0137V33.6215H281.744V30.0137H279.689ZM279.689 34.1057V37.7135H281.744V34.1057H279.689ZM281.431 39.0184C284.968 40.9197 283.994 43.4588 282.896 42.5022C282.772 41.4216 281.921 40.0104 281.224 39.1601L281.431 39.0184ZM282.825 30.0137V33.6215H284.844V30.0137H282.825ZM284.844 34.1057H282.825V37.7135H284.844V34.1057ZM284.844 38.8117C289.775 40.5536 289.025 43.6891 287.631 42.7856C287.283 41.4984 285.836 39.8746 284.637 38.9712L284.844 38.8117Z" fill="white"/>
<path d="M296.742 36.5858C295.573 37.3711 293.884 38.4989 291.706 39.8452C291.652 40.0341 291.534 40.229 291.357 40.2998L290.625 38.8532C291.133 38.6819 292.019 38.3336 293.117 37.8789V32.3934H291.044L290.92 31.8856H293.117V27.3212L294.876 27.5102C294.841 27.7523 294.67 27.9117 294.233 27.9826V31.8856H294.947L295.679 30.8582C295.679 30.8582 296.518 31.5903 297.02 32.1277C296.967 32.2989 296.795 32.3875 296.565 32.3875H294.233V37.4065C295 37.0758 295.833 36.7275 296.654 36.3614L296.742 36.5858ZM305.346 31.2183C305.346 31.2183 306.302 31.986 306.881 32.5233C306.828 32.7122 306.674 32.8008 306.426 32.8008H298.307V33.4267C298.307 36.4736 297.941 40.2172 294.439 42.7444L294.197 42.52C296.778 39.9101 297.191 36.6684 297.191 33.4267V28.4431L298.691 28.9982C300.905 28.5435 303.308 27.8113 304.631 27.2031L306.095 28.5612C305.918 28.7029 305.588 28.7029 305.174 28.5435C303.415 28.9627 300.769 29.3288 298.313 29.4469V32.2694H304.531L305.351 31.2065L305.346 31.2183ZM305.086 35.0682L306.497 36.1665C306.373 36.3259 306.095 36.4618 305.729 36.5149V42.4019C305.712 42.5259 305.174 42.8034 304.79 42.8034H304.613V41.2505H299.913V42.5377C299.913 42.6617 299.476 42.9215 299.01 42.9215H298.821V35.2395L300.008 35.7768H304.448L305.092 35.0623L305.086 35.0682ZM304.613 40.7486V36.3082H299.913V40.7486H304.613Z" fill="white"/>
<path d="M313.188 33.3145C317.002 34.8143 316.063 37.2353 314.894 36.3791C314.67 35.5052 313.867 34.3774 313.188 33.6452V42.579C313.188 42.7208 312.733 42.9983 312.32 42.9983H312.078V34.5663C311.292 36.3614 310.194 37.9793 308.818 39.3373L308.576 39.113C310.159 37.0581 311.239 34.2711 311.836 31.5372H309.102L308.96 31.0176H312.078V27.0142L313.82 27.2208C313.784 27.4806 313.642 27.6401 313.194 27.7109V31.0176H314.257L315.024 30.0256C315.024 30.0256 315.928 30.74 316.453 31.2597C316.4 31.4486 316.246 31.5372 316.016 31.5372H313.194V33.3145H313.188ZM323.45 29.9901C323.45 29.9901 324.324 30.74 324.844 31.242C324.791 31.4309 324.637 31.5195 324.407 31.5195H321.986V41.2918C321.986 42.213 321.779 42.7739 320.055 42.9274C319.984 42.5968 319.878 42.337 319.618 42.1952C319.305 42.0063 318.833 41.8823 317.912 41.7583V41.4808C317.912 41.4808 319.984 41.6402 320.386 41.6402C320.752 41.6402 320.858 41.5162 320.858 41.221V33.592C319.465 36.2019 317.392 38.4871 314.782 40.1758L314.575 39.9337C317.221 37.7903 319.293 34.6017 320.409 31.5195H316.719L316.577 31.0117H320.864V27.0201L322.641 27.209C322.588 27.4688 322.435 27.6283 321.998 27.6991V31.0058H322.73L323.462 29.9783L323.45 29.9901Z" fill="white"/>
<path d="M329.354 30.8758C330.346 30.8758 335.885 30.2853 336.723 30.1082C337.178 30.0019 337.402 29.7244 337.698 29.7244C338.205 29.7244 339.422 30.6278 339.422 31.1179C339.422 31.5017 338.867 31.7969 338.619 32.3697C336.788 36.7097 333.671 39.9632 328.533 41.9354L328.274 41.5161C333.257 39.0066 336.458 35.2807 337.538 31.2065C337.609 30.9466 337.503 30.9112 337.331 30.9112C336.564 30.9112 331.616 31.608 330.624 31.8324C330.151 31.9386 329.767 32.287 329.437 32.287C328.917 32.287 328.096 31.4485 327.919 31.0175C327.831 30.7754 327.778 30.5097 327.748 30.0255L328.079 29.9015C328.356 30.3207 328.74 30.8758 329.348 30.8758H329.354Z" fill="white"/>
<path d="M351.569 31.1181C352.177 31.065 352.248 30.6812 352.578 30.6812C353.015 30.6812 354.214 31.6554 354.214 32.0747C354.214 32.4939 353.677 32.5943 353.57 33.0667C353.411 33.8343 353.033 36.1844 352.685 38.0857C353.311 38.1388 353.748 38.3809 353.748 38.7116C353.748 39.0068 353.606 39.2194 353.24 39.2194C352.874 39.2194 351.935 39.1131 351.132 39.1131C349.774 39.1131 347.424 39.2371 345.333 39.3552C345.351 39.5796 345.351 39.7922 345.351 40.052C345.351 40.4889 345.192 40.6956 344.831 40.6956C344.501 40.6956 344.117 40.2232 344.117 39.5087C344.117 39.1604 344.17 38.0798 344.17 37.3299C344.152 36.0249 343.946 33.5331 343.68 32.5057C343.521 31.8798 343.225 31.4783 342.741 31.0413L342.983 30.7461C343.715 30.9528 344.288 31.1299 344.867 31.6495C346.591 31.5787 350.896 31.1949 351.575 31.1122L351.569 31.1181ZM351.586 38.0857C351.917 36.1017 352.319 33.1552 352.319 32.181C352.319 32.0392 352.266 31.992 352.112 31.992C350.996 31.992 348.073 32.2164 347.111 32.3227C346.538 32.3758 346.048 32.547 345.735 32.547C345.546 32.547 345.28 32.4408 345.038 32.3227C345.091 33.3855 345.245 36.5564 345.316 38.4872C347.182 38.3632 349.969 38.1565 351.586 38.0857Z" fill="white"/>
<path d="M358.66 34.2534C359.044 34.8439 359.321 35.3871 360.053 35.3871C361.606 35.3871 367.7 34.9856 368.503 34.9502C369.672 34.8616 370.156 34.7612 370.611 34.7612C371.272 34.7612 372.058 35.0565 372.058 35.5288C372.058 35.8418 371.881 36.0366 371.29 36.0366C370.7 36.0366 370.074 36.0012 369.011 36.0012C367.948 36.0012 363.018 36.261 361.713 36.4205C360.721 36.5267 360.526 36.7866 360.024 36.7866C359.522 36.7866 358.719 35.9304 358.471 35.3399C358.347 35.0092 358.329 34.714 358.312 34.3656L358.66 34.2593V34.2534Z" fill="white"/>
<path d="M376.061 30.002V29.6536C376.409 29.5474 376.775 29.4588 377.053 29.4588C377.696 29.4588 378.759 30.0847 378.759 30.5216C378.759 30.8523 378.552 31.0294 378.499 31.6731C378.446 32.423 378.481 36.2551 378.481 36.9696C378.481 37.6309 378.239 37.8435 377.926 37.8435C377.543 37.8435 377.247 37.3062 377.247 36.6567C377.247 36.1843 377.389 35.5052 377.425 34.0763C377.425 33.2732 377.389 31.5668 377.318 30.9232C377.283 30.5039 377.265 30.3681 376.97 30.2441C376.71 30.1201 376.433 30.0729 376.066 30.002H376.061ZM378.062 42.5968L377.838 42.213C381.233 40.418 382.875 38.0856 383.081 34.5132C383.17 32.9308 383.205 31.4487 383.134 30.2441C383.099 29.9489 383.064 29.7068 382.751 29.5296C382.556 29.4234 382.16 29.3525 381.705 29.3053L381.688 28.9569C382.072 28.7797 382.556 28.6262 382.875 28.6262C383.536 28.6262 384.687 29.3053 384.687 29.6714C384.687 30.0375 384.392 30.1437 384.357 30.6988C384.321 31.7262 384.25 33.4858 384.197 34.5664C384.002 38.6052 382.001 41.1147 378.068 42.5968H378.062Z" fill="white"/>
<path d="M402.018 31.36L402.419 31.6198C400.329 35.328 397.087 38.115 393.273 40.5537C392.925 40.7603 392.736 41.1973 392.352 41.1973C391.673 41.1973 390.628 40.3765 390.279 39.8569C390.108 39.5617 389.949 39.0007 389.913 38.7232L390.191 38.546C390.716 39.1188 391.271 39.6798 391.826 39.6798C393.167 39.6798 399.544 35.0622 402.018 31.3541V31.36ZM390.315 29.7244C392.299 30.2794 394.702 31.4663 394.702 32.8066C394.702 33.1904 394.46 33.4503 394.094 33.4503C393.816 33.4503 393.586 33.2613 393.137 32.7181C392.299 31.7084 391.637 31.1002 390.108 30.0905L390.315 29.7244Z" fill="white"/>
<path d="M408.643 28.4373C408.956 28.4373 409.305 28.4373 409.689 28.5081C410.368 28.6676 411.289 29.1872 411.289 29.5001C411.289 29.7954 411.047 29.9725 410.781 30.4035C410.586 30.7165 410.397 31.0472 410.19 31.3424C410.314 31.3601 410.415 31.3601 410.521 31.3601C411.36 31.3601 413.497 31.118 413.987 31.0294C414.46 30.9232 414.578 30.6279 414.873 30.6279C415.292 30.6279 416.39 31.3424 416.39 31.7971C416.39 32.1454 415.818 32.2517 415.57 32.7005C413.184 37.0405 409.647 40.6246 404.735 42.6618L404.475 42.278C408.951 39.9456 413.042 35.4521 414.401 32.0037C414.489 31.7971 414.418 31.7439 414.259 31.7439C413.875 31.7439 412.098 32.0214 411.472 32.1454C411.106 32.234 410.74 32.3698 410.498 32.3698C410.303 32.3698 410.025 32.1927 409.748 31.9506C408.372 33.7988 406.63 35.3635 404.593 36.4795L404.333 36.1134C407.049 34.1649 409.612 30.6102 409.612 29.6005C409.612 29.3053 409.157 29.0277 408.549 28.762L408.638 28.4314L408.643 28.4373ZM415.174 28.6439C416.078 28.9923 416.745 29.3761 417.176 29.7776C417.613 30.1969 417.766 30.4921 417.766 30.8405C417.766 31.118 417.607 31.2952 417.347 31.2952C417.105 31.2952 416.892 30.9114 416.544 30.4567C416.178 30.0197 415.706 29.4824 414.944 28.9215L415.168 28.6439H415.174ZM416.674 27.5457C417.577 27.8586 418.227 28.2424 418.658 28.5554C419.13 28.9215 419.319 29.2698 419.319 29.6359C419.319 29.9312 419.16 30.0906 418.918 30.0906C418.622 30.0906 418.445 29.6891 418.062 29.2521C417.678 28.8152 417.258 28.4137 416.461 27.8409L416.668 27.5457H416.674Z" fill="white"/>
<path d="M461.202 37.4538C461.202 40.1287 458.899 41.9651 455.775 41.9651C452.652 41.9651 450.319 40.4298 450.319 37.6487C450.319 35.5939 451.683 34.2535 454.287 32.9662C451.908 31.7026 450.916 30.0906 450.916 28.2306C450.916 25.479 453.095 23.7903 455.823 23.7903C458.551 23.7903 460.357 25.5027 460.357 27.9531C460.357 29.3171 459.566 30.9055 457.063 32.3167C459.938 33.6807 461.202 35.1156 461.202 37.4479V37.4538ZM459.318 37.6251C459.318 35.9895 458.303 34.8499 455.102 33.3619C453.142 34.5251 452.179 35.5939 452.179 37.4538C452.179 39.5618 453.614 40.9967 455.823 40.9967C458.031 40.9967 459.318 39.5618 459.318 37.6251ZM456.242 31.9506C458.001 30.7343 458.698 29.6183 458.698 28.0063C458.698 26.2467 457.659 24.8059 455.775 24.8059C454.14 24.8059 452.699 25.9219 452.699 27.7287C452.699 29.2404 453.443 30.628 456.242 31.9447V31.9506Z" fill="white"/>
<path d="M464.944 37.4951C465.989 42.4433 463.031 41.9178 463.881 40.5951C464.371 40.0223 464.649 38.9064 464.667 37.4951H464.944ZM471.912 35.8241C471.788 35.9658 471.581 36.0307 471.233 36.0839C471.056 39.5145 470.607 41.2919 469.91 41.8823C469.509 42.2484 468.953 42.3902 468.357 42.3902C468.357 42.1126 468.304 41.8351 468.133 41.6757C467.956 41.5162 467.489 41.3982 467.034 41.3096V41.0143C467.554 41.0498 468.375 41.1206 468.688 41.1206C468.965 41.1206 469.107 41.0852 469.26 40.9612C469.697 40.5774 470.046 38.9595 470.217 35.9599H465.848V36.5149C465.848 36.6035 465.517 36.881 464.991 36.881H464.832V27.7346L466.066 28.2601H469.757L470.524 27.3567C470.524 27.3567 471.38 28.0003 471.918 28.5081C471.864 28.6971 471.711 28.7856 471.463 28.7856H468.517V30.6338H469.721L470.365 29.7776C470.365 29.7776 471.168 30.4035 471.617 30.8582C471.581 31.0471 471.41 31.1357 471.18 31.1357H468.517V33.0193H469.65L470.312 32.1809C470.312 32.1809 471.097 32.789 471.563 33.2614C471.51 33.4504 471.357 33.5389 471.126 33.5389H468.517V35.4521H470.052L470.66 34.8085L471.894 35.8182L471.912 35.8241ZM465.972 37.3239C467.643 39.5559 466.58 41.4159 465.865 40.5479C466.054 39.5382 465.918 38.2332 465.706 37.3947L465.966 37.3239H465.972ZM465.848 28.7915V30.6397H467.536V28.7915H465.848ZM467.536 31.1416H465.848V33.0252H467.536V31.1416ZM465.848 35.4639H467.536V33.5508H465.848V35.4639ZM466.999 37.0346C469.231 38.741 468.339 40.4829 467.572 39.7153C467.572 38.9123 467.135 37.814 466.769 37.1349L466.993 37.0286L466.999 37.0346ZM468.097 36.6507C470.536 37.5069 469.786 39.2606 468.971 38.617C468.865 38.0088 468.363 37.2235 467.891 36.7866L468.097 36.6448V36.6507ZM475.272 34.3361C476.004 37.5778 477.604 40.5538 480.113 41.7761L480.078 41.965C479.641 42.0536 479.257 42.402 479.104 42.9747C476.683 41.2505 475.514 38.2864 474.923 34.3361H473.825C473.754 37.3003 473.317 40.6601 470.725 42.9924L470.465 42.8153C472.484 40.2054 472.727 36.8751 472.727 33.5508V27.7523L474.032 28.3074H477.846L478.454 27.6283L479.83 28.6912C479.741 28.8329 479.446 28.9687 479.115 29.0218V34.9443C479.098 35.0506 478.525 35.3104 478.177 35.3104H478.017V34.3361H475.266H475.272ZM473.825 33.8165H478.023V28.8152H473.825V33.8165Z" fill="white"/>
<path d="M484.726 31.1358C485.641 30.8642 486.509 30.7166 487.525 30.7166C490.944 30.7166 493.276 32.6769 493.276 36.1725C493.276 39.6681 490.849 41.971 487.106 41.971C484.478 41.971 482.718 40.7782 482.146 38.3986C482.346 37.8554 482.766 37.5779 483.309 37.5779C484.006 37.5779 484.301 37.9262 484.626 39.0895L485.122 40.7015C485.742 40.8727 486.308 40.9731 486.958 40.9731C489.757 40.9731 491.298 39.1899 491.298 36.4146C491.298 33.6394 489.585 32.0038 486.958 32.0038C486.043 32.0038 485.121 32.1278 484.254 32.423L483.557 32.2754L484.124 24.1682H492.827V26.0282H485.092L484.72 31.1358H484.726Z" fill="white"/>
<path d="M500.013 40.1581C500.881 39.9515 501.826 39.7035 502.783 39.4614L502.854 39.7212C501.371 40.3471 499.37 41.2033 496.707 42.213C496.654 42.4019 496.482 42.5614 496.323 42.6145L495.732 41.1501C496.01 41.097 496.376 41.0261 496.831 40.9257V34.7966L498.366 34.9561C498.331 35.1509 498.177 35.3044 497.829 35.3576V40.7073L498.945 40.4475V32.9425H497.864V33.4326C497.864 33.5212 497.516 33.781 496.978 33.781H496.801V27.6873L498.071 28.2424H500.681L501.289 27.581L502.647 28.6085C502.523 28.7502 502.245 28.886 501.915 28.9568V33.2437C501.879 33.3323 501.36 33.5566 501.011 33.5566H500.852V32.9484H500.013V35.6646H500.692L501.425 34.6903C501.425 34.6903 502.263 35.3694 502.765 35.8949C502.712 36.0839 502.558 36.1724 502.31 36.1724H500.013V40.1818V40.1581ZM497.852 32.4052H500.846V28.7325H497.852V32.4052ZM510.553 29.4587C510.412 29.6182 510.24 29.6654 509.821 29.6831C509.248 31.0058 508.463 32.2458 507.453 33.3559C508.67 34.3833 510.223 35.1863 512.171 35.706L512.118 35.8949C511.681 36.0189 511.315 36.2964 511.215 36.8338C509.331 36.1193 507.938 35.1627 506.857 33.9759C505.983 34.8321 504.944 35.6115 503.757 36.2728L504.802 36.6921H508.841L509.396 36.0307L510.648 37.005C510.524 37.129 510.388 37.2294 510.022 37.2825V42.5614C510.022 42.6499 509.585 42.9097 509.065 42.9097H508.888V41.7406H504.601V42.5968C504.601 42.6854 504.253 42.9452 503.68 42.9452H503.503V36.3968C502.859 36.7452 502.163 37.0404 501.413 37.318L501.236 37.0581C503.255 36.1193 504.962 34.8084 506.272 33.2791C505.7 32.5292 505.227 31.6966 504.826 30.7873C504.094 31.797 503.273 32.6532 502.369 33.2791L502.127 33.0724C503.45 31.7144 504.69 29.4469 505.387 26.9788L507.075 27.5692C506.987 27.7582 506.78 27.8999 506.396 27.8822C506.237 28.2837 506.066 28.6675 505.877 29.0336H508.575L509.325 28.3191L510.547 29.4528L510.553 29.4587ZM504.613 37.2294V41.2505H508.9V37.2294H504.613ZM505.641 29.5296C505.463 29.8426 505.274 30.1378 505.103 30.4153C505.558 31.2538 506.095 32.0332 506.774 32.7123C507.542 31.7203 508.15 30.6397 508.605 29.5237H505.641V29.5296Z" fill="white"/>
<path d="M518.27 27.6517C518.182 27.8466 517.975 27.9647 517.609 27.947C517.036 28.8681 516.339 29.8778 515.696 30.6277C516.948 31.6551 516.269 32.8774 515.436 32.281C515.247 31.4957 514.497 30.5391 513.854 29.9841L514.031 29.8424C514.568 30.0018 514.987 30.173 515.318 30.3797C515.719 29.4409 516.192 28.13 516.552 27.0022L518.276 27.6458L518.27 27.6517ZM513.883 41.4098C514.338 40.2229 514.739 38.4987 514.91 36.8808L516.481 37.2646C516.41 37.489 516.221 37.6484 515.873 37.6484C515.471 39.0774 514.899 40.5772 514.166 41.5515L513.889 41.4098H513.883ZM518.27 32.8066C521.299 34.5307 520.237 36.6919 519.245 35.8003C519.209 35.505 519.138 35.1744 519.02 34.8437C518.654 34.9145 518.253 35.0031 517.798 35.0858V42.6084C517.798 42.697 517.414 42.9568 516.877 42.9568H516.717V35.2747C516.162 35.381 515.53 35.4814 514.869 35.5877C514.745 35.8121 514.592 35.9184 514.414 35.9538L513.924 34.6311C514.308 34.6311 514.863 34.6134 515.542 34.5957C516.552 32.9246 517.774 30.6572 518.518 29.0216L520.136 29.7715C520.03 29.9487 519.788 30.0668 519.439 30.0136C518.619 31.2831 517.278 33.1136 516.026 34.578C516.883 34.5425 517.857 34.5071 518.867 34.454C518.625 33.8812 518.312 33.3203 518.028 32.901L518.253 32.7947L518.27 32.8066ZM518.583 36.7273C521.282 38.6936 520.154 40.8016 519.209 39.8627C519.209 38.9061 518.754 37.6307 518.353 36.8159L518.577 36.7273H518.583ZM524.21 36.8985C524.069 37.058 523.915 37.0934 523.531 37.1052C522.923 39.0715 521.683 40.9374 519.457 42.0888L519.298 41.829C520.933 40.6599 521.961 38.8648 522.415 37.0225H520.136L519.977 36.5147H522.362L523.024 35.8711L524.21 36.8985ZM529.973 36.2018C529.903 36.3435 529.661 36.4616 529.33 36.3435C528.793 36.7982 527.83 37.4949 526.927 38.0145C527.848 39.3726 529.017 40.2111 530.251 40.8193L530.216 41.026C529.779 41.1145 529.466 41.4806 529.294 42.0179C527.293 40.5359 525.952 38.6581 525.321 34.8732V41.268C525.321 42.1538 525.132 42.7856 523.667 42.9568C523.649 42.6261 523.561 42.3132 523.354 42.136C523.112 41.9471 522.693 41.7877 521.978 41.6991V41.4393C521.978 41.4393 523.579 41.5633 523.909 41.5633C524.187 41.5633 524.258 41.4747 524.258 41.2326V34.454H522.167V34.9264C522.167 35.0326 521.801 35.257 521.246 35.257H521.087V28.4666L522.356 29.0216H523.59C523.732 28.4311 523.903 27.5927 524.027 27.0022L525.84 27.3683C525.769 27.6104 525.563 27.7521 525.214 27.7521C524.937 28.1182 524.535 28.6083 524.205 29.0216H527.529L528.084 28.3426L529.318 29.3169C529.212 29.4409 529.041 29.5235 528.674 29.5944V34.7846C528.674 34.8732 528.273 35.1153 527.753 35.1153H527.576V34.454H525.486C525.763 35.7766 526.2 36.8572 526.738 37.7311C527.417 36.9458 528.22 35.8298 528.586 35.1862L529.962 36.1959L529.973 36.2018ZM522.167 29.5117V31.478H527.582V29.5117H522.167ZM527.582 33.9521V31.9858H522.167V33.9521H527.582Z" fill="white"/>
<path d="M540.083 31.36C540.083 31.36 540.986 32.1099 541.547 32.6296C541.494 32.8185 541.34 32.9071 541.092 32.9071H537.502V34.1766C541.86 36.0425 541.039 38.6701 539.817 37.8021C539.522 36.7393 538.423 35.4166 537.502 34.525V42.5731C537.502 42.6794 537.101 42.9569 536.563 42.9569H536.374V34.8911C535.258 36.9105 533.729 38.6878 531.845 40.0991L531.621 39.857C533.54 38.0265 535.052 35.4166 535.961 32.9071H532.288L532.147 32.3993H536.38V29.2284C535.04 29.4882 533.593 29.7008 532.217 29.8189L532.147 29.506C534.827 28.9982 538.016 27.9058 539.622 27.0142L541.069 28.2837C540.909 28.4431 540.579 28.4431 540.165 28.2837C539.433 28.5258 538.512 28.7738 537.52 28.9982V32.3934H539.28L540.1 31.3482L540.083 31.36ZM543.2 39.0598C543.2 39.2193 542.728 39.4613 542.315 39.4613H542.108V28.5081L543.832 28.697C543.779 28.9391 543.625 29.1162 543.206 29.1694V39.0657L543.2 39.0598ZM547.623 27.5456C547.57 27.7877 547.399 27.9471 546.979 28.0003V41.2387C546.979 42.1952 546.773 42.7739 545.113 42.9451C545.043 42.579 544.936 42.2838 544.73 42.1067C544.434 41.9 543.962 41.7583 543.147 41.6343V41.3745C543.147 41.3745 545.048 41.5339 545.415 41.5339C545.781 41.5339 545.869 41.4099 545.869 41.1324V27.3389L547.629 27.5456H547.623Z" fill="white"/>
<path d="M564.871 28.6616C564.747 28.821 564.434 28.9746 564.05 29.0631V41.2387C564.05 42.1776 563.879 42.7562 562.184 42.9275C562.131 42.5614 562.025 42.2484 561.783 42.089C561.523 41.9 561.051 41.7406 560.23 41.6343V41.3568C560.23 41.3568 562.096 41.5162 562.48 41.5162C562.81 41.5162 562.899 41.3922 562.899 41.1147V37.0227H558.423V42.4374C558.423 42.5259 558.057 42.8035 557.467 42.8035H557.289V37.0227H552.932C552.636 39.1839 551.851 41.3273 549.985 42.9452L549.743 42.768C551.745 40.1877 552.005 36.9164 552.005 33.5862V27.6991L553.345 28.2542H562.716L563.324 27.4866L564.859 28.6557L564.871 28.6616ZM557.295 36.5149V32.854H553.15V33.5685C553.15 34.5073 553.132 35.4993 553.008 36.5149H557.295ZM553.15 28.7797V32.3344H557.295V28.7797H553.15ZM558.429 28.7797V32.3344H562.905V28.7797H558.429ZM562.905 36.5149V32.854H558.429V36.5149H562.905Z" fill="white"/>
<path d="M582.084 27.2502C582.084 27.2502 583.093 28.0179 583.702 28.6083C583.666 28.7973 583.513 28.8859 583.265 28.8859H580.968V41.1677C580.968 42.0888 580.743 42.7856 578.877 42.9628C578.842 42.5967 578.689 42.2837 578.387 42.1243C578.021 41.9176 577.484 41.7582 576.439 41.6342V41.3744C576.439 41.3744 578.86 41.5515 579.332 41.5515C579.716 41.5515 579.84 41.4098 579.84 41.0969V28.8859H567.889L567.747 28.3662H581.174L582.078 27.2502H582.084ZM577.018 32.2693C576.894 32.411 576.616 32.5468 576.285 32.6177V38.5047C576.268 38.611 575.695 38.8885 575.311 38.8885H575.152V37.5481H570.882V39.1837C570.882 39.29 570.446 39.5498 569.979 39.5498H569.79V31.3658L570.977 31.9032H574.998L575.606 31.2064L577.018 32.2693ZM575.152 37.0226V32.4051H570.882V37.0226H575.152Z" fill="white"/>
<path d="M590.763 28.6617C594.754 30.2146 593.916 32.7359 592.694 31.9034C592.587 31.555 592.381 31.1535 592.138 30.7519C590.763 31.0295 588.932 31.3955 586.547 31.8148C586.458 32.0392 586.287 32.1454 586.11 32.1809L585.555 30.7696C586.062 30.7696 586.789 30.7342 587.698 30.6634C588.082 29.5119 588.483 28.0535 588.708 26.9729L590.591 27.4098C590.521 27.6165 590.314 27.7759 589.966 27.7759C589.564 28.5967 588.92 29.6891 588.277 30.6338C589.357 30.5807 590.609 30.4744 591.92 30.3917C591.501 29.8013 590.999 29.2226 590.562 28.8093L590.769 28.6676L590.763 28.6617ZM591.896 32.4053L593.361 33.5213C593.254 33.6453 592.959 33.7988 592.629 33.8519V41.3273C592.629 42.2485 592.469 42.8094 591.046 42.9452C591.028 42.5968 590.94 42.2839 590.769 42.1067C590.562 41.9119 590.249 41.7761 589.67 41.6875V41.41C589.67 41.41 590.893 41.5163 591.188 41.5163C591.448 41.5163 591.518 41.4277 591.518 41.1856V38.6938H587.928V42.526C587.928 42.65 587.491 42.9275 587.025 42.9275H586.848V32.5647L588.017 33.1197H591.341L591.896 32.4053ZM587.922 33.6393V35.6233H591.513V33.6393H587.922ZM591.513 38.186V36.1311H587.922V38.186H591.513ZM596.266 34.4601C594.908 34.4601 594.648 34.2003 594.648 33.3264V27.1796L596.284 27.3685C596.266 27.5752 596.095 27.7523 595.776 27.8055V30.6102C597.276 29.9666 598.893 28.9215 599.732 28.1538L601.108 29.1281C600.966 29.3053 600.689 29.3171 600.269 29.2167C599.224 29.7717 597.429 30.5394 595.776 30.9586V33.0843C595.776 33.3618 595.829 33.4504 596.473 33.4504H598.126C598.858 33.4504 599.466 33.4504 599.679 33.415C599.868 33.3973 599.956 33.3618 600.027 33.2437C600.151 33.0194 600.34 32.234 600.517 31.4133H600.742L600.795 33.2969C601.179 33.4209 601.285 33.539 601.285 33.7515C601.285 34.2889 600.73 34.466 598.079 34.466H596.266V34.4601ZM600.954 41.4277C601.338 41.5871 601.444 41.7052 601.444 41.9355C601.444 42.4551 600.872 42.65 598.167 42.65H596.301C594.926 42.65 594.648 42.3725 594.648 41.4631V35.0683L596.319 35.2572C596.284 35.4639 596.112 35.6411 595.782 35.6942V38.6229C597.335 37.9085 598.988 36.757 599.785 35.9245L601.267 36.881C601.143 37.0405 600.866 37.07 600.446 36.9873C599.348 37.6664 597.518 38.5049 595.776 38.989V41.2387C595.776 41.5163 595.847 41.6048 596.508 41.6048H598.214C598.964 41.6048 599.573 41.6048 599.815 41.5871C600.004 41.5694 600.092 41.5163 600.145 41.3805C600.287 41.1384 600.476 40.2999 600.665 39.3965H600.872L600.942 41.4336L600.954 41.4277Z" fill="white"/>
<path d="M607.905 28.1066C608.183 28.0003 608.602 27.8999 608.932 27.8999C609.387 27.8999 609.907 28.0062 610.202 28.1951C610.497 28.3723 610.426 28.6852 609.783 30.9113C611.454 30.3917 611.802 29.9725 612.133 29.9725C612.499 29.9725 612.776 30.2146 612.776 30.498C612.776 30.8109 612.375 31.053 612.186 31.1593C611.649 31.4368 610.603 31.8029 609.434 32.045C608.826 33.9286 607.568 37.129 606.14 39.2016C605.897 39.5499 605.685 39.8275 605.354 39.8275C605.006 39.8275 604.846 39.4614 604.846 39.1484C604.846 38.8709 604.935 38.6111 605.159 38.31C606.222 36.8987 607.687 34.7553 608.466 32.2104C607.994 32.2812 607.527 32.3166 607.09 32.3166C605.785 32.3166 605.195 31.8266 604.634 30.5925L604.947 30.3504C605.697 30.9763 606.08 31.3601 607.279 31.3601C607.787 31.3601 608.324 31.2715 608.761 31.1711C608.921 30.4921 609.039 29.7422 609.074 29.2875C609.092 28.9214 609.003 28.7797 608.708 28.6616C608.466 28.5376 608.135 28.4549 607.887 28.3841V28.1066H607.905ZM614.14 31.1003C614.997 30.9763 615.882 31.0471 616.544 31.3069C617.607 31.7085 618.144 32.3875 618.144 33.0843C618.144 33.4858 617.967 33.7102 617.636 33.7102C617.235 33.7102 616.939 33.4326 616.189 33.4858C615.581 33.5566 614.955 33.7633 614.572 34.1648C614.188 34.5486 614.117 35.1037 614.134 35.7355C614.152 36.261 614.323 37.3534 614.465 38.3985C615.599 38.6583 616.52 39.1661 617.181 39.6149C618.02 40.1522 618.38 40.6423 618.38 41.0793C618.38 41.4277 618.221 41.6343 617.943 41.6343C617.612 41.6343 617.406 41.3391 617.022 40.9907C616.361 40.3471 615.558 39.7684 614.566 39.4023C614.583 39.6621 614.601 39.8924 614.601 40.0991C614.601 41.5458 613.538 42.3842 611.761 42.3842C609.984 42.3842 608.974 41.4926 608.974 40.4829C608.974 39.1602 610.385 38.186 612.7 38.186C612.977 38.186 613.237 38.2037 613.485 38.2214C613.432 37.4538 613.343 36.6684 613.343 35.9894C613.343 35.0151 613.621 34.3715 614.182 33.8105C614.719 33.2378 615.504 32.9544 616.113 32.6945C616.479 32.5056 616.408 32.2753 616.113 32.0509C615.623 31.6848 614.908 31.5313 614.111 31.5313L614.129 31.0944L614.14 31.1003ZM613.568 39.1307C613.095 39.0421 612.611 38.989 612.068 38.989C610.485 38.989 609.647 39.6503 609.647 40.2762C609.647 40.9021 610.237 41.3745 611.513 41.3745C613.184 41.3745 613.568 40.536 613.568 39.5086V39.1248V39.1307Z" fill="white"/>
<path d="M622.419 29.5355C622.767 30.0551 623.009 30.492 623.517 30.492C624.633 30.492 631.388 29.7598 632.398 29.6004C632.764 29.5473 632.923 29.3052 633.219 29.3052C633.691 29.3052 634.925 30.368 634.925 30.8581C634.925 31.2596 634.228 31.3305 633.844 31.6257C633.095 32.1808 631.548 33.2968 629.959 34.1884C629.959 34.277 629.941 34.3655 629.906 34.4659C628.601 38.0206 626.788 40.4592 623.116 42.3369L622.838 41.9708C626.286 39.8628 628.43 35.7177 628.43 34.5309C628.43 34.0113 627.786 33.7455 627.019 33.4857L627.107 33.1019C627.615 33.1019 627.91 33.1019 628.223 33.1728C628.778 33.2613 629.268 33.4326 629.581 33.6452C630.922 32.7063 632.333 31.5195 632.841 30.805C633.065 30.4743 633 30.4035 632.634 30.4035C631.796 30.4035 626.853 31.1002 624.899 31.484C624.22 31.6257 624.202 31.9387 623.783 31.9387C623.364 31.9387 622.549 31.2419 622.283 30.7046C622.141 30.4094 622.106 30.0433 622.059 29.6417L622.425 29.5355H622.419Z" fill="white"/>
<path d="M640.971 28.1893C641.283 28.1893 641.632 28.1893 642.016 28.2601C642.695 28.4195 643.616 28.9392 643.616 29.2521C643.616 29.5473 643.374 29.7245 643.114 30.1555C642.919 30.4685 642.73 30.7991 642.523 31.0944C642.647 31.1121 642.748 31.1121 642.854 31.1121C643.693 31.1121 645.83 30.87 646.32 30.7814C646.793 30.6751 646.911 30.3799 647.212 30.3799C647.631 30.3799 648.729 31.0944 648.729 31.5491C648.729 31.8974 648.157 32.0037 647.909 32.4525C645.523 36.7925 641.986 40.3766 637.073 42.4138L636.814 42.03C641.289 39.6976 645.381 35.2041 646.739 31.7557C646.828 31.549 646.757 31.4959 646.598 31.4959C646.214 31.4959 644.437 31.7734 643.811 31.8974C643.445 31.986 643.079 32.1218 642.836 32.1218C642.642 32.1218 642.364 31.9447 642.087 31.7026C640.711 33.5508 638.969 35.1155 636.932 36.2315L636.672 35.8654C639.388 33.9169 641.951 30.3622 641.951 29.3525C641.951 29.0573 641.496 28.7797 640.888 28.514L640.976 28.1833L640.971 28.1893Z" fill="white"/>
<path d="M660.12 36.3081C661.218 35.1743 662.192 33.9403 662.73 32.9837C662.854 32.777 662.783 32.653 662.541 32.6884C661.584 32.8479 658.915 33.6982 657.351 34.2237C657.28 35.7589 657.227 37.3945 657.244 38.4219C657.28 39.8509 657.451 39.9926 659.577 39.9926C661.998 39.9926 662.801 39.6088 663.202 39.6088C663.675 39.6088 664.371 39.8155 664.371 40.2701C664.371 40.5831 664.041 40.7425 663.568 40.8075C662.783 40.9669 661.254 41.1027 660.102 41.1027C657.368 41.1027 656.323 40.9433 656.288 38.6463C656.252 37.4418 656.305 35.7176 656.341 34.5721C655.502 34.8496 654.375 35.2511 653.642 35.5641C653.016 35.8416 652.999 36.0896 652.509 36.0896C652.107 36.0896 651.151 35.3751 650.926 34.885C650.802 34.6429 650.802 34.2945 650.82 33.9639L651.097 33.8576C651.446 34.3772 651.723 34.7256 652.16 34.7256C652.768 34.7256 655.172 34.0111 656.359 33.645C656.394 32.2161 656.447 30.4742 656.394 29.7774C656.359 29.3405 655.839 29.2401 654.983 29.1161L654.965 28.7854C655.437 28.626 655.886 28.561 656.252 28.561C656.878 28.561 658.012 29.2224 658.012 29.6062C658.012 29.99 657.664 30.2144 657.593 30.7399C657.522 31.2477 657.451 32.222 657.386 33.3498C658.886 32.9128 661.094 32.3046 662.122 32.0094C662.629 31.8677 662.747 31.5547 663.007 31.5547C663.515 31.5547 664.696 32.4936 664.696 32.9128C664.696 33.2789 664.188 33.3321 663.793 33.7336C663.06 34.4658 661.826 35.6644 660.415 36.6092L660.12 36.314V36.3081Z" fill="white"/>
<path d="M668.186 32.9484L668.363 32.5646C669.248 32.789 669.898 32.9839 670.695 33.2968C671.758 33.7338 672.402 34.3597 672.402 35.021C672.402 35.2985 672.224 35.5583 671.894 35.5583C671.356 35.5583 671.073 34.9324 670.17 34.2534C669.508 33.7338 668.918 33.3322 668.186 32.9484ZM681.04 31.9742L681.442 32.234C679.458 35.7178 675.779 38.7646 671.929 40.8903C671.581 41.097 671.392 41.5516 670.937 41.5516C670.4 41.5516 669.302 40.8195 668.918 40.2644C668.711 39.9869 668.552 39.361 668.534 39.0953L668.811 38.9358C669.284 39.4909 669.821 40.0873 670.412 40.0873C671.598 40.0873 677.899 36.3259 681.034 31.9683L681.04 31.9742ZM670.518 29.6064L670.707 29.2048C671.368 29.382 672.154 29.6418 672.903 29.9547C674.09 30.5452 674.61 31.1239 674.61 31.7321C674.61 32.045 674.421 32.3048 674.102 32.3048C673.612 32.3048 673.264 31.6081 672.343 30.8582C671.752 30.3563 671.02 29.8662 670.512 29.6064H670.518Z" fill="white"/>
<path d="M692.608 31.2774C692.939 31.3306 693.181 31.4192 693.429 31.5727C693.901 31.9033 694.403 32.547 694.403 32.913C694.403 33.2791 693.948 33.3677 693.287 33.7161C692.053 34.3243 689.597 35.458 686.721 36.2787C686.686 37.3239 686.668 38.245 686.668 38.6997C686.668 40.4062 687.052 40.5302 689.142 40.5302C691.893 40.5302 693.08 39.9751 693.671 39.9751C694.492 39.9751 695.011 40.17 695.011 40.5656C695.011 40.914 694.769 41.0734 694.438 41.1915C693.724 41.3982 691.982 41.6107 689.266 41.6107C686.148 41.6107 685.693 41.0852 685.676 38.6288C685.658 37.0759 685.865 31.3483 685.782 30.5275C685.711 30.0374 685.327 29.9371 684.424 29.8131L684.406 29.5001C684.808 29.3938 685.262 29.258 685.64 29.2757C686.355 29.3112 687.365 29.9725 687.365 30.3917C687.365 30.7224 687.034 30.7932 686.981 31.3306C686.892 32.0805 686.804 33.9109 686.739 35.582C689.106 34.7435 691.439 33.598 692.555 32.7418C692.85 32.5174 692.903 32.3757 692.761 32.0805C692.673 31.8738 692.502 31.6612 692.342 31.5077L692.602 31.2833L692.608 31.2774ZM693.671 29.3289C694.545 29.7127 695.188 30.1319 695.619 30.5512C696.021 30.9704 696.21 31.2656 696.192 31.5963C696.192 31.8915 695.985 32.1041 695.72 32.0687C695.46 32.051 695.3 31.6494 694.952 31.2125C694.604 30.7401 694.131 30.1851 693.417 29.63L693.659 29.3348L693.671 29.3289ZM695.153 28.0239C696.027 28.3723 696.688 28.7384 697.101 29.1045C697.556 29.4883 697.71 29.819 697.692 30.1851C697.692 30.4803 697.533 30.6397 697.273 30.6397C696.995 30.622 696.818 30.2205 696.452 29.7658C696.068 29.3289 695.684 28.8919 694.917 28.3192L695.141 28.0239H695.153Z" fill="white"/>
<path d="M700.644 30.002V29.6536C700.992 29.5474 701.358 29.4588 701.636 29.4588C702.279 29.4588 703.342 30.0847 703.342 30.5216C703.342 30.8523 703.135 31.0294 703.082 31.6731C703.029 32.423 703.065 36.2551 703.065 36.9696C703.065 37.6309 702.822 37.8435 702.509 37.8435C702.126 37.8435 701.83 37.3062 701.83 36.6567C701.83 36.1843 701.972 35.5052 702.008 34.0763C702.008 33.2732 701.972 31.5668 701.901 30.9232C701.866 30.5039 701.848 30.3681 701.553 30.2441C701.293 30.1201 701.016 30.0729 700.649 30.002H700.644ZM702.645 42.5968L702.421 42.213C705.816 40.418 707.458 38.0856 707.664 34.5132C707.753 32.9308 707.788 31.4487 707.717 30.2441C707.682 29.9489 707.647 29.7068 707.334 29.5296C707.139 29.4234 706.743 29.3525 706.289 29.3053L706.271 28.9569C706.655 28.7797 707.139 28.6262 707.458 28.6262C708.119 28.6262 709.27 29.3053 709.27 29.6714C709.27 30.0375 708.975 30.1437 708.94 30.6988C708.904 31.7262 708.833 33.4858 708.78 34.5664C708.585 38.6052 706.584 41.1147 702.651 42.5968H702.645Z" fill="white"/>
<path d="M713.918 32.653C714.249 33.1254 714.597 33.5742 715.052 33.5742C716.239 33.5742 720.662 32.9128 723.868 32.6353C725.084 32.5113 725.368 32.3224 725.627 32.3224C726.342 32.3224 727.334 32.7062 727.334 33.2081C727.334 33.4856 727.228 33.645 726.844 33.645C726.566 33.645 725.905 33.5387 725.049 33.5387C724.263 33.5387 722.799 33.5742 721.199 33.7277C721.671 33.9875 722.067 34.3005 722.067 34.5839C722.067 34.9323 721.665 35.0031 721.476 35.5227C720.868 37.3532 719.752 40.2583 715.572 42.5612L715.223 42.1951C719.422 39.4612 720.396 35.4873 720.396 34.5485C720.396 34.3064 720.307 34.0938 720.101 33.8517C718.654 34.0288 717.036 34.2886 716.51 34.4245C715.973 34.5839 715.518 34.7728 715.117 34.7905C714.715 34.8083 713.93 34.1115 713.741 33.6214C713.653 33.4147 713.635 33.1313 713.617 32.7652L713.912 32.6412L713.918 32.653ZM716.581 28.9803C717.243 29.4704 717.697 29.6593 718.27 29.6593C719.333 29.6593 720.532 29.4527 721.406 29.2578C722.433 29.0334 722.657 28.75 723.023 28.75C723.773 28.75 724.346 29.0098 724.346 29.429C724.346 29.6889 724.151 29.8483 723.596 29.9487C722.256 30.1908 719.817 30.61 718.264 30.61C717.379 30.61 716.888 30.1022 716.316 29.1988L716.575 28.9744L716.581 28.9803Z" fill="white"/>
<path d="M733.569 31.8325C733.865 31.8325 734.16 31.8325 734.491 31.9565C735.063 32.1455 735.725 32.7596 735.725 33.1611C735.725 33.474 735.482 33.4563 735.116 33.8224C734.626 34.3597 733.983 35.0742 733.15 35.8595C733.534 36.1194 733.829 36.3496 733.829 36.5563C733.829 36.7453 733.705 36.9401 733.687 37.2885C733.617 39.1839 733.705 41.1561 733.705 41.906C733.705 42.4256 733.546 42.6382 733.203 42.6382C732.695 42.6382 732.418 41.9946 732.418 41.4691C732.418 41.2447 732.542 40.979 732.577 40.5302C732.701 39.5205 732.737 37.5365 732.719 36.9401C732.701 36.7157 732.666 36.5563 732.577 36.3851C731.721 37.1173 729.826 38.5816 727.511 39.4673L727.334 39.1544C731.024 37.0818 734.231 33.5095 734.231 32.795C734.231 32.5175 733.847 32.2399 733.463 32.0628L733.569 31.8384V31.8325Z" fill="white"/>
<path d="M223.146 14.1831V44.9999" stroke="white" stroke-width="0.43" stroke-miterlimit="10"/>
<path d="M434.671 14.1831V44.9999" stroke="white" stroke-width="0.43" stroke-miterlimit="10"/>
<path d="M2.94569 15.2638C2.94569 15.2638 3.2055 15.4646 3.42988 15.6653C3.60112 15.3642 3.75464 15.0571 3.87864 14.7619L4.5754 15.0926C4.52226 15.187 4.4455 15.2166 4.25064 15.1752C3.9495 15.7598 3.54207 16.3857 3.03426 16.988H3.49483L3.84321 16.5451C3.84321 16.5451 4.24474 16.8522 4.48092 17.0943C4.45731 17.1769 4.38645 17.2183 4.28016 17.2183H2.8276C2.55008 17.5194 2.24893 17.8205 1.92417 18.0981H3.14645L3.42988 17.7969L4.03216 18.2693C3.98493 18.3224 3.85502 18.3933 3.7074 18.4228V21.2217C3.7015 21.2689 3.4535 21.387 3.29998 21.387H3.22322V20.8556H1.55217V21.3398C1.55217 21.387 1.39865 21.511 1.15656 21.511H1.0798V18.7476C0.796368 18.9424 0.495227 19.1196 0.176371 19.279L0.0996094 19.1727C0.442084 18.9661 0.77275 18.724 1.0798 18.4642V17.8914L1.51675 18.0744C1.81198 17.8028 2.0777 17.5135 2.3257 17.2183H0.253133L0.194085 16.988H1.7057V15.9133H0.495227L0.436179 15.683H1.7057V14.5493L2.47922 14.632C2.4615 14.7383 2.38474 14.815 2.19579 14.8386V15.683H2.62684L2.9516 15.2579L2.94569 15.2638ZM1.64075 18.3343L1.54627 18.411V19.344H3.22322V18.3343H1.64665H1.64075ZM3.22322 20.6253V19.5742H1.55217V20.6253H3.22912H3.22322ZM2.52055 16.988C2.80398 16.6396 3.05198 16.2794 3.27636 15.9133H2.18989V16.988H2.52055ZM7.41558 15.3642C7.35653 15.435 7.24434 15.4468 7.0613 15.4468C6.78968 15.9665 6.27596 16.923 5.92759 17.4249C6.83692 18.0685 7.17939 18.7594 7.17939 19.3794C7.17939 20.1352 6.87825 20.5013 6.05749 20.5426C6.05749 20.3714 6.01616 20.212 5.95711 20.147C5.88625 20.0939 5.6973 20.0466 5.48473 20.0289V19.9049H6.21101C6.30549 19.9049 6.35273 19.899 6.42949 19.8577C6.58301 19.775 6.65977 19.5979 6.65977 19.279C6.65977 18.6944 6.41177 18.0626 5.73273 17.4249C5.95711 16.923 6.29368 15.9605 6.51215 15.311H5.17178V21.3752C5.17178 21.4224 5.01235 21.5582 4.75254 21.5582H4.68169V14.7796L5.26035 15.0807H6.49444L6.8192 14.7619L7.41558 15.3465V15.3642Z" fill="white"/>
<path d="M15.7825 16.1377C15.7294 16.1849 15.6349 16.1967 15.4873 16.2086C15.2688 16.4447 14.885 16.7813 14.5898 16.9644L14.4894 16.9053C14.5957 16.7046 14.7433 16.3857 14.8437 16.1259H9.78331C9.80103 16.6278 9.60027 16.9644 9.3877 17.1238C9.19284 17.2655 8.91532 17.2832 8.82675 17.1061C8.75589 16.9466 8.85627 16.7872 9.0216 16.6868C9.32274 16.5038 9.58255 16.0137 9.52941 15.4882H9.67112C9.71836 15.6299 9.74789 15.7598 9.7656 15.8897H13.2435C13.521 15.4882 13.8281 14.9331 14.017 14.5139L14.7964 14.8387C14.7551 14.9154 14.6488 14.9627 14.4894 14.939C14.2414 15.2343 13.8576 15.5945 13.4797 15.8897H14.8555L15.1861 15.5531L15.7884 16.1377H15.7825ZM9.93093 14.6261C11.4071 15.1221 10.982 16.1318 10.5037 15.7598C10.4328 15.4055 10.1081 14.939 9.84827 14.6851L9.93093 14.6261ZM14.3654 19.0074L14.9913 19.4798C14.9381 19.5388 14.8141 19.6038 14.6606 19.6451V21.387C14.6547 21.4402 14.4008 21.5582 14.2355 21.5582H14.1587V21.0623H10.362V21.4106C10.362 21.4638 10.1435 21.5701 9.94274 21.5701H9.87188V19.0724L10.4033 19.3204H11.6256C11.7083 19.0369 11.8027 18.6649 11.8559 18.3933H10.8285V18.6118C10.8285 18.659 10.61 18.7653 10.4033 18.7653H10.3325V16.6691L10.8639 16.8994H13.5623L13.834 16.6219L14.4303 17.0588C14.3831 17.112 14.2709 17.1769 14.1351 17.2006V18.5586C14.1292 18.6059 13.8753 18.7181 13.7159 18.7181H13.6391V18.3933H12.4523C12.2987 18.6767 12.0803 19.0487 11.9031 19.3204H14.0702L14.3536 19.0133L14.3654 19.0074ZM14.1587 20.8261V19.5388H10.362V20.8261H14.1587ZM10.8344 18.163H13.6509V17.1238H10.8344V18.163ZM11.6197 14.4844C12.9778 15.1221 12.4523 16.1141 11.9976 15.6948C11.9799 15.311 11.7437 14.8328 11.5193 14.5375L11.6197 14.4844Z" fill="white"/>
<path d="M17.2173 16.2678C18.8293 16.5099 18.5164 17.5904 17.9672 17.2716C17.8669 16.935 17.4712 16.5512 17.1465 16.3386L17.2173 16.2678ZM19.408 15.8426C19.101 16.8169 18.5046 18.6533 18.3983 19.0253C18.3392 19.2733 18.2802 19.5095 18.292 19.7043C18.292 20.0409 18.5164 20.407 18.4869 21.0388C18.4691 21.3635 18.3274 21.5643 18.0617 21.5643C17.9141 21.5643 17.8373 21.4226 17.8196 21.1864C17.92 20.407 17.8787 19.787 17.7133 19.6748C17.613 19.598 17.5067 19.5803 17.3354 19.5685V19.3973H17.672C17.7547 19.3973 17.7901 19.3914 17.8551 19.2437C17.9417 19.0587 18.4101 17.9132 19.2604 15.8072L19.408 15.8426ZM17.8669 14.5908C19.5438 14.8624 19.219 15.9961 18.6522 15.6773C18.5341 15.3171 18.1267 14.892 17.796 14.6617L17.8669 14.5908ZM24.055 20.9975C24.2971 21.2573 24.3266 21.3576 24.2558 21.4521C24.1082 21.7119 23.624 21.5348 23.2284 21.2986C22.7737 21.0506 22.4017 20.7258 22.1006 20.3243C21.1912 20.9207 20.1579 21.2632 18.9651 21.5112L18.9179 21.3635C20.0162 21.0329 20.9964 20.6077 21.8408 19.9405C21.5987 19.5331 21.4156 19.0784 21.268 18.5647L19.1895 18.7832L19.1128 18.5647L21.2089 18.3403C21.1322 18.0333 21.0613 17.7026 21.0141 17.3542L19.532 17.4959L19.4493 17.2775L20.9846 17.1299C20.9432 16.8287 20.9137 16.5217 20.9019 16.2028L19.4611 16.3268L19.3785 16.1201L20.8901 15.9902C20.8606 15.512 20.8488 15.01 20.8488 14.4963L21.6695 14.5967C21.6518 14.6971 21.5868 14.7798 21.392 14.8152C21.3861 15.199 21.392 15.5769 21.4097 15.9489L22.9745 15.8072L23.3228 15.3053C23.3228 15.3053 23.7775 15.6005 24.0609 15.8072C24.055 15.8899 23.9783 15.9489 23.8779 15.9548L21.4156 16.1615C21.4333 16.4803 21.4569 16.7874 21.4924 17.0826L22.9331 16.9409L23.2697 16.439C23.2697 16.439 23.7303 16.7342 24.0196 16.935C24.0137 17.0295 23.9369 17.0826 23.8366 17.0885L21.516 17.3129C21.5632 17.6495 21.6223 17.986 21.7108 18.2931L23.1988 18.1396L23.5354 17.6377C23.5354 17.6377 23.9901 17.9329 24.2735 18.1337C24.2558 18.2163 24.1908 18.2754 24.0905 18.2813L21.7699 18.5234C21.888 18.9249 22.0415 19.2969 22.2246 19.6216C22.567 19.3146 22.8741 18.9485 23.1634 18.5411L23.8956 18.9662C23.8366 19.043 23.7539 19.0666 23.5708 19.0253C23.2402 19.4209 22.8859 19.7516 22.5139 20.035C22.7678 20.3538 23.0748 20.6077 23.4468 20.7908C23.5945 20.8853 23.6476 20.8853 23.7185 20.7317C23.8188 20.5369 23.9665 20.1531 24.0668 19.8342L24.1672 19.8519L24.0432 21.0034L24.055 20.9975ZM21.8939 14.6853C23.4527 14.7857 23.1811 15.819 22.632 15.5592C22.4903 15.2876 22.1242 14.9333 21.823 14.7561L21.8939 14.6853Z" fill="white"/>
<path d="M32.097 19.3675C32.097 19.3675 32.528 19.7041 32.7996 19.9521C32.776 20.0289 32.6993 20.0702 32.593 20.0702H29.4694V21.4106C29.4694 21.4401 29.2981 21.5641 29.0442 21.5641H28.9616V20.0702H25.7612L25.7021 19.8517H28.9675V18.9778H27.3673V19.2199C27.3673 19.2672 27.1488 19.3735 26.948 19.3735H26.8713V16.303L27.4027 16.5569H31.0164L31.288 16.2558L31.8844 16.7163C31.8372 16.7695 31.725 16.8226 31.5833 16.8462V19.1136C31.5774 19.1668 31.3353 19.2967 31.164 19.2967H31.0873V18.9719H29.4753V19.8458H31.7368L32.1088 19.3616L32.097 19.3675ZM25.7435 15.5944L25.7021 15.37H27.8633V14.4961L28.625 14.5788C28.6191 14.6792 28.5482 14.7559 28.3534 14.7796V15.3641H30.0421V14.4902L30.8157 14.567C30.8097 14.6733 30.7389 14.75 30.544 14.7737V15.3582H31.7191L32.0793 14.8977C32.0793 14.8977 32.4985 15.2342 32.7347 15.4704C32.717 15.5472 32.652 15.5885 32.5398 15.5885H30.5381V16.1613C30.5381 16.2085 30.361 16.3089 30.1189 16.3089H30.0362V15.5885H28.3475V16.1908C28.3475 16.2498 28.129 16.3325 27.9282 16.3325H27.8515V15.5944H25.7317H25.7435ZM27.3555 16.7813V17.6316H31.0755V16.7813H27.3555ZM31.0755 18.7475V17.8618H27.3555V18.7475H31.0755Z" fill="white"/>
<path d="M36.1069 14.7857C36.0656 14.8683 35.977 14.9274 35.8117 14.9156C35.5578 15.323 35.2507 15.7718 34.9614 16.1024C35.5164 16.5571 35.2153 17.1003 34.8433 16.8346C34.7606 16.4862 34.4241 16.0611 34.1406 15.8131L34.2174 15.754C34.4595 15.8249 34.6425 15.9017 34.7901 15.9902C34.9673 15.571 35.174 14.9923 35.3393 14.4963L36.101 14.7798L36.1069 14.7857ZM34.1642 20.8853C34.365 20.3597 34.5421 19.598 34.6189 18.8777L35.3157 19.0489C35.2861 19.1493 35.1976 19.2201 35.044 19.2201C34.8669 19.8519 34.613 20.5192 34.2882 20.9502L34.1642 20.8912V20.8853ZM36.1069 17.0708C37.4473 17.8325 36.9808 18.7891 36.5379 18.3994C36.5202 18.2695 36.4907 18.1218 36.4376 17.9742C36.2781 18.0038 36.101 18.0451 35.9002 18.0805V21.4167C35.9002 21.4521 35.729 21.5702 35.4928 21.5702H35.422V18.1691C35.174 18.2163 34.8964 18.2636 34.6012 18.3108C34.5481 18.4112 34.4772 18.4584 34.4004 18.4702L34.182 17.8857C34.3532 17.8857 34.6012 17.8798 34.9023 17.8679C35.3511 17.1299 35.8884 16.126 36.225 15.3998L36.9454 15.7304C36.8981 15.8072 36.7919 15.8603 36.6383 15.8367C36.2781 16.3977 35.6818 17.2125 35.1267 17.8561C35.5046 17.8384 35.9357 17.8266 36.3844 17.803C36.2781 17.5491 36.1364 17.3011 36.0124 17.118L36.1128 17.0708H36.1069ZM36.2486 18.8068C37.4473 19.6807 36.9454 20.6136 36.5261 20.1944C36.5261 19.7693 36.3254 19.2083 36.1482 18.8422L36.2486 18.8009V18.8068ZM38.7404 18.8836C38.6814 18.9544 38.6105 18.9662 38.4393 18.978C38.1677 19.8519 37.6185 20.6786 36.6324 21.1864L36.5616 21.0683C37.2878 20.5487 37.7425 19.7575 37.9433 18.9367H36.9336L36.8627 18.7123H37.9197L38.2149 18.4289L38.7404 18.8836ZM41.2972 18.5765C41.2676 18.6356 41.1555 18.6946 41.0137 18.6356C40.7716 18.8363 40.3524 19.1434 39.9509 19.3737C40.3583 19.9759 40.8779 20.3479 41.4271 20.6136L41.4094 20.7081C41.2145 20.7495 41.0787 20.9089 41.0019 21.151C40.1162 20.4956 39.5198 19.663 39.2423 17.986V20.8203C39.2423 21.2159 39.1597 21.4935 38.5101 21.5702C38.5042 21.4226 38.4629 21.2868 38.3684 21.21C38.2621 21.1274 38.0732 21.0565 37.7602 21.0152V20.8971C37.7602 20.8971 38.4688 20.9502 38.6164 20.9502C38.7404 20.9502 38.7699 20.9089 38.7699 20.8026V17.803H37.8429V18.0097C37.8429 18.0569 37.6835 18.1573 37.4355 18.1573H37.3646V15.1459L37.9256 15.3939H38.4747C38.5338 15.134 38.6164 14.7621 38.6696 14.4963L39.4726 14.6558C39.4431 14.7621 39.3486 14.827 39.1951 14.827C39.0711 14.9923 38.8939 15.2049 38.7463 15.388H40.2225L40.4705 15.0868L41.0196 15.5179C40.9724 15.571 40.8956 15.6123 40.7362 15.6419V17.9388C40.7362 17.9801 40.5591 18.0864 40.3288 18.0864H40.252V17.7912H39.325C39.449 18.3758 39.6438 18.854 39.88 19.2437C40.1812 18.8954 40.5355 18.4053 40.6949 18.1159L41.3031 18.5647L41.2972 18.5765ZM37.837 15.6123V16.4862H40.2343V15.6123H37.837ZM40.2343 17.5786V16.7047H37.837V17.5786H40.2343Z" fill="white"/>
<path d="M718.122 18.2751L718.252 18.4287C717.355 19.155 716.552 20.265 716.552 21.8888C716.552 23.5126 717.355 24.6227 718.252 25.349L718.122 25.5025C717.083 24.8412 716.044 23.7488 716.044 21.8888C716.044 20.0289 717.077 18.9424 718.122 18.2751Z" fill="white"/>
<path d="M722.415 21.6644L724.96 19.1195L725.184 19.3439L722.639 21.8888L725.184 24.4337L724.96 24.6581L722.415 22.1132L719.858 24.6699L719.634 24.4455L722.191 21.8888L719.646 19.3439L719.87 19.1195L722.415 21.6644ZM720.218 22.4675C719.899 22.4675 719.64 22.2077 719.64 21.8888C719.64 21.5699 719.899 21.3101 720.218 21.3101C720.537 21.3101 720.797 21.5699 720.797 21.8888C720.797 22.2077 720.537 22.4675 720.218 22.4675ZM721.836 19.6863C721.836 19.3675 722.096 19.1077 722.415 19.1077C722.734 19.1077 722.994 19.3675 722.994 19.6863C722.994 20.0052 722.734 20.265 722.415 20.265C722.096 20.265 721.836 20.0052 721.836 19.6863ZM722.994 24.0854C722.994 24.4042 722.734 24.664 722.415 24.664C722.096 24.664 721.836 24.4042 721.836 24.0854C721.836 23.7665 722.096 23.5067 722.415 23.5067C722.734 23.5067 722.994 23.7665 722.994 24.0854ZM724.617 21.3101C724.936 21.3101 725.196 21.5699 725.196 21.8888C725.196 22.2077 724.936 22.4675 724.617 22.4675C724.299 22.4675 724.039 22.2077 724.039 21.8888C724.039 21.5699 724.299 21.3101 724.617 21.3101Z" fill="white"/>
<path d="M730.445 24.5518V24.8235H727.026V24.5518L728.414 24.4751C728.42 23.9555 728.432 23.4417 728.432 22.9339V19.4738L727.245 19.71V19.4088L729.01 18.9482L729.14 19.0486L729.099 20.3477V22.9339C729.099 23.4417 729.105 23.9614 729.117 24.4751L730.445 24.5518Z" fill="white"/>
<path d="M731.49 18.2751C732.529 18.9365 733.569 20.0289 733.569 21.8888C733.569 23.7488 732.535 24.8353 731.49 25.5025L731.36 25.349C732.258 24.6227 733.061 23.5126 733.061 21.8888C733.061 20.265 732.258 19.155 731.36 18.4287L731.49 18.2751Z" fill="white"/>
</svg>
