<?xml version="1.0" encoding="UTF-8"?><svg id="Layer_2" xmlns="http://www.w3.org/2000/svg" viewBox="0 0 140.02 140.02"><defs><style>.cls-1{fill:#ff1352;}.cls-2{fill:#fff;}.cls-3{fill:#00f1ea;}</style></defs><g id="OBJECTS"><rect x="0" y="0" width="140.02" height="140.02" rx="70.01" ry="70.01"/><path class="cls-1" d="M111.63,48.31c-11.68,0-21.16-9.47-21.16-21.16h-15.87v61.41c0,7.14-5.79,12.93-12.93,12.93s-12.93-5.79-12.93-12.93,5.79-12.93,12.93-12.93c1.34,0,2.86.2,4.07.58v-16.16c-1.33-.19-2.69-.29-4.07-.29-15.9,0-28.8,12.89-28.8,28.8s12.89,28.8,28.8,28.8,28.8-12.89,28.8-28.8v-32.5c5.77,4.7,13.13,7.53,21.16,7.53v-15.28Z"/><path class="cls-3" d="M107.14,43.82c-11.68,0-21.16-9.47-21.16-21.16h-15.87v61.41c0,7.14-5.79,12.93-12.93,12.93s-12.93-5.79-12.93-12.93,5.79-12.93,12.93-12.93c1.34,0,2.86.2,4.07.58v-16.16c-1.33-.19-2.69-.29-4.07-.29-15.9,0-28.8,12.89-28.8,28.8s12.89,28.8,28.8,28.8,28.8-12.89,28.8-28.8v-32.5c5.77,4.7,13.13,7.53,21.16,7.53v-15.28Z"/><path class="cls-2" d="M107.14,47.83c-5.11-1.11-9.54-4.06-12.54-8.13-4.07-3-7.02-7.43-8.13-12.54h-11.86v61.41c0,7.14-5.79,12.93-12.93,12.93-4.72,0-8.85-2.53-11.11-6.31-3.78-2.26-6.31-6.39-6.31-11.11,0-7.14,5.79-12.93,12.93-12.93,1.34,0,2.86.2,4.07.58v-11.95c-15.71.23-28.37,13.03-28.37,28.79,0,6.81,2.36,13.06,6.31,17.99,4.93,3.95,11.18,6.31,17.99,6.31,15.9,0,28.8-12.89,28.8-28.8v-32.5c5.77,4.7,13.13,7.53,21.16,7.53v-11.27Z"/></g></svg>