<svg id="Layer_1" data-name="Layer 1" xmlns="http://www.w3.org/2000/svg" viewBox="0 0 462.56 462.56"><defs><style>.cls-1{fill:#fff;}</style></defs><title>icon-line-black</title><g id="FULL_COLOR_ICON" data-name="FULL COLOR ICON"><rect width="462.56" height="462.56" rx="26"/><g id="TYPE_A" data-name="TYPE A"><path class="cls-1" d="M403.38,216.23c0-75.36-75.55-136.67-168.41-136.67S66.55,140.87,66.55,216.23c0,67.56,59.92,124.14,140.85,134.84,5.48,1.18,12.95,3.62,14.84,8.31,1.7,4.25,1.11,10.92.54,15.22,0,0-2,11.89-2.4,14.42-.74,4.26-3.39,16.65,14.59,9.08S332,341,367.29,300.32h0c24.41-26.77,36.1-53.93,36.1-84.09" transform="translate(-4.44 -5.29)"/><path d="M200.75,179.81H188.93a3.28,3.28,0,0,0-3.28,3.28v73.38a3.28,3.28,0,0,0,3.28,3.28h11.82a3.28,3.28,0,0,0,3.28-3.28V183.09a3.28,3.28,0,0,0-3.28-3.28" transform="translate(-4.44 -5.29)"/><path d="M282.06,179.81H270.25a3.28,3.28,0,0,0-3.28,3.28v43.6l-33.63-45.42a4.19,4.19,0,0,0-.26-.33l0,0-.2-.2-.06-.06-.17-.15-.09-.06-.17-.12-.1-.06-.17-.1-.11,0-.19-.08-.1,0-.2-.07-.11,0-.19,0-.14,0-.17,0h-12.1a3.28,3.28,0,0,0-3.28,3.28v73.38a3.28,3.28,0,0,0,3.28,3.28h11.82a3.28,3.28,0,0,0,3.28-3.28V212.89l33.67,45.47a3.19,3.19,0,0,0,.83.81l0,0,.2.12.09.05.16.08.16.06.1,0,.22.07h.05a2.84,2.84,0,0,0,.84.12h11.81a3.28,3.28,0,0,0,3.28-3.28V183.09a3.28,3.28,0,0,0-3.28-3.28" transform="translate(-4.44 -5.29)"/><path d="M172.27,241.37h-32.1V183.09a3.28,3.28,0,0,0-3.28-3.28H125.08a3.28,3.28,0,0,0-3.28,3.28v73.38h0a3.26,3.26,0,0,0,.92,2.27l0,.05,0,0a3.23,3.23,0,0,0,2.26.92h47.2a3.28,3.28,0,0,0,3.28-3.28V244.65a3.28,3.28,0,0,0-3.28-3.28" transform="translate(-4.44 -5.29)"/><path d="M347.3,198.19a3.27,3.27,0,0,0,3.27-3.28V183.1a3.28,3.28,0,0,0-3.27-3.29H300.1a3.29,3.29,0,0,0-2.28.93l0,0-.06.06a3.29,3.29,0,0,0-.91,2.26h0v73.37h0a3.26,3.26,0,0,0,.92,2.27l.05.05,0,0a3.26,3.26,0,0,0,2.27.92h47.2a3.27,3.27,0,0,0,3.27-3.28V244.65a3.27,3.27,0,0,0-3.27-3.28H315.2V229h32.1a3.27,3.27,0,0,0,3.27-3.28V213.88a3.28,3.28,0,0,0-3.27-3.29H315.2v-12.4Z" transform="translate(-4.44 -5.29)"/></g></g></svg>