<svg width="395" height="29" viewBox="0 0 395 29" fill="none" xmlns="http://www.w3.org/2000/svg">
<path d="M60.2939 15.1309C60.2939 11.3384 63.0803 8.62939 66.9503 8.62939C70.8203 8.62939 73.6066 11.4158 73.6066 15.1309C73.6066 18.9235 70.8203 21.6325 66.9503 21.6325C63.0803 21.6325 60.2939 18.8461 60.2939 15.1309ZM71.6716 15.1309C71.6716 12.422 69.7367 10.4096 66.9503 10.4096C64.1639 10.4096 62.2289 12.422 62.2289 15.1309C62.2289 17.8399 64.1639 19.8523 66.9503 19.8523C69.7367 19.8523 71.6716 17.8399 71.6716 15.1309Z" fill="black"/>
<path d="M75.2319 15.8275C75.2319 13.0411 76.8573 11.7253 79.3341 11.7253C81.7335 11.7253 83.3589 13.0411 83.3589 15.9049V15.9823H81.5787V15.9049C81.5787 14.1247 80.6499 13.4281 79.3341 13.4281C77.9409 13.4281 77.0895 14.1247 77.0895 15.9049V21.4777H75.2319V15.8275Z" fill="black"/>
<path d="M84.2104 16.6014C84.2104 13.428 86.5324 11.6478 89.0092 11.6478C90.5572 11.6478 91.873 12.3444 92.5696 13.5828V7.77783H94.4272V16.6014C94.4272 19.6974 92.3374 21.6323 89.3962 21.6323C86.3002 21.6323 84.2104 19.5426 84.2104 16.6014ZM92.5696 16.6788C92.5696 14.7438 91.2538 13.3506 89.3188 13.3506C87.3838 13.3506 86.068 14.7438 86.068 16.6788C86.068 18.6137 87.3838 20.007 89.3188 20.007C91.2538 19.9296 92.5696 18.5363 92.5696 16.6788Z" fill="black"/>
<path d="M95.8203 16.6789C95.8203 13.8151 97.9101 11.7253 100.929 11.7253C103.947 11.7253 105.96 13.8151 105.96 16.6789V17.3755H97.7553C97.9875 19.0783 99.3033 20.0071 100.929 20.0071C102.167 20.0071 103.018 19.6201 103.56 18.7687H105.573C104.876 20.5489 103.096 21.6325 100.929 21.6325C97.9875 21.6325 95.8203 19.5427 95.8203 16.6789ZM104.102 15.6727C103.715 14.1247 102.477 13.3507 100.929 13.3507C99.3807 13.3507 98.1423 14.2021 97.8327 15.6727H104.102Z" fill="black"/>
<path d="M107.507 15.8275C107.507 13.0411 109.133 11.7253 111.609 11.7253C114.009 11.7253 115.634 13.0411 115.634 15.9049V15.9823H113.854V15.9049C113.854 14.1247 112.925 13.4281 111.609 13.4281C110.216 13.4281 109.365 14.1247 109.365 15.9049V21.4777H107.507V15.8275Z" fill="black"/>
<path d="M122.291 8.86157H127.709C130.805 8.86157 132.121 10.5643 132.121 12.8863C132.121 14.7439 131.269 16.2145 129.257 16.7563L132.585 21.4003H130.263L127.245 16.9111H124.226V21.4003H122.291V8.86157ZM127.709 15.0535C129.567 15.0535 130.108 14.1247 130.108 12.8089C130.108 11.4931 129.489 10.5643 127.709 10.5643H124.226V14.9761H127.709V15.0535Z" fill="black"/>
<path d="M133.514 16.6789C133.514 13.8151 135.603 11.7253 138.622 11.7253C141.641 11.7253 143.653 13.8151 143.653 16.6789V17.3755H135.449C135.681 19.0783 136.997 20.0071 138.622 20.0071C139.86 20.0071 140.712 19.6201 141.254 18.7687H143.266C142.569 20.5489 140.789 21.6325 138.622 21.6325C135.603 21.6325 133.514 19.5427 133.514 16.6789ZM141.795 15.6727C141.408 14.1247 140.17 13.3507 138.622 13.3507C137.074 13.3507 135.836 14.2021 135.526 15.6727H141.795Z" fill="black"/>
<path d="M145.201 16.4465C145.201 13.2731 147.059 11.6477 149.845 11.6477C152.632 11.6477 154.489 13.2731 154.489 16.4465V21.4H152.632V16.4465C152.632 14.4341 151.471 13.3505 149.768 13.3505C148.065 13.3505 146.904 14.4341 146.904 16.4465V21.4H145.046V16.4465H145.201Z" fill="black"/>
<path d="M156.037 16.6789C156.037 13.8151 158.126 11.7253 161.145 11.7253C164.164 11.7253 166.253 13.8151 166.253 16.6789C166.253 19.5427 164.164 21.6325 161.145 21.6325C158.126 21.6325 156.037 19.5427 156.037 16.6789ZM164.396 16.6789C164.396 14.7439 163.08 13.3507 161.145 13.3507C159.21 13.3507 157.894 14.7439 157.894 16.6789C157.894 18.6139 159.21 20.0071 161.145 20.0071C163.08 19.9297 164.396 18.5365 164.396 16.6789Z" fill="black"/>
<path d="M166.718 11.8801H168.731L171.827 19.6975L174.923 11.8801H176.858L172.91 21.3228H170.743L166.718 11.8801Z" fill="black"/>
<path d="M177.245 16.6789C177.245 13.8151 179.334 11.7253 182.353 11.7253C185.372 11.7253 187.384 13.8151 187.384 16.6789V17.3755H179.18C179.412 19.0783 180.728 20.0071 182.353 20.0071C183.591 20.0071 184.443 19.6201 184.985 18.7687H186.997C186.3 20.5489 184.52 21.6325 182.353 21.6325C179.334 21.6325 177.245 19.5427 177.245 16.6789ZM185.526 15.6727C185.139 14.1247 183.901 13.3507 182.353 13.3507C180.805 13.3507 179.567 14.2021 179.257 15.6727H185.526Z" fill="black"/>
<path d="M40.2477 18.421C42.4149 17.7244 44.0402 16.4087 45.0464 14.5511C45.743 13.2353 46.13 11.6099 46.13 9.82973C46.13 4.48917 43.0341 0.619186 35.9133 0.619186H24.226H24.1486V14.5511C24.1486 19.969 20.356 23.9938 14.8607 23.9938C9.28793 23.9938 5.57276 19.969 5.57276 14.5511C5.57276 9.13312 9.28793 5.10836 14.8607 5.10836C16.3313 5.10836 17.6471 5.34056 18.8081 5.88236V0.464401C17.5697 0.154803 16.2539 0 14.8607 0C6.11455 0 0 6.11456 0 14.4737C0 22.8328 6.11455 28.9474 14.8607 28.9474C18.4985 28.9474 21.7492 27.8638 24.226 25.9288C27.6316 23.3746 29.644 19.2725 29.644 14.4737V5.57277H35.9907C39.4737 5.57277 40.5573 7.35294 40.5573 9.67492C40.5573 11.9969 39.3963 13.8545 35.9907 13.8545H31.5016L40.6347 28.3282H47.1362L40.2477 18.421Z" fill="black"/>
<path d="M214.602 9.66L212.802 8.184C212.424 8.31 211.812 8.382 211.128 8.382H201.138C200.526 8.382 199.536 8.292 199.068 8.22V10.74C199.446 10.704 200.418 10.614 201.138 10.614H210.66C209.814 12.09 208.122 14.178 206.088 15.798C204.954 14.808 203.766 13.836 203.046 13.296L201.138 14.826C202.218 15.6 204.054 17.22 205.098 18.282C206.268 19.47 207.78 21.162 208.536 22.17L210.642 20.496C209.94 19.65 208.878 18.48 207.852 17.454C210.39 15.402 212.694 12.522 213.99 10.416C214.134 10.182 214.35 9.948 214.602 9.66ZM219.786 7.32L218.094 9.12C219.408 10.038 221.658 12 222.594 13.008L224.43 11.136C223.386 10.038 221.046 8.166 219.786 7.32ZM217.536 19.308L219.048 21.684C221.586 21.252 223.908 20.244 225.726 19.146C228.624 17.4 231.018 14.916 232.386 12.486L230.982 9.948C229.848 12.378 227.508 15.132 224.43 16.95C222.684 17.994 220.344 18.912 217.536 19.308ZM239.01 6.744L237.696 8.724C238.884 9.39 240.756 10.614 241.764 11.316L243.114 9.318C242.178 8.67 240.198 7.392 239.01 6.744ZM235.662 19.524L237.012 21.9C238.614 21.612 241.188 20.712 243.024 19.668C245.976 17.976 248.514 15.69 250.188 13.206L248.802 10.758C247.362 13.332 244.86 15.798 241.8 17.508C239.838 18.588 237.678 19.182 235.662 19.524ZM236.238 10.848L234.924 12.846C236.13 13.476 238.002 14.7 239.028 15.402L240.342 13.386C239.424 12.738 237.444 11.496 236.238 10.848ZM255.282 10.83V13.008C255.714 12.972 256.848 12.936 257.514 12.936H263.454V15.114H257.712C257.028 15.114 256.218 15.096 255.75 15.06V17.184C256.164 17.166 257.028 17.148 257.712 17.148H263.454V19.542H256.65C256.002 19.542 255.39 19.506 255.084 19.47V21.684C255.39 21.666 256.128 21.63 256.632 21.63H263.454C263.454 21.9 263.454 22.188 263.436 22.35H265.704C265.704 22.026 265.686 21.414 265.686 21.126V12.09C265.686 11.712 265.686 11.118 265.704 10.884C265.416 10.902 264.75 10.92 264.318 10.92H257.514C256.848 10.92 255.75 10.884 255.282 10.83ZM273.786 7.32L272.094 9.12C273.408 10.038 275.658 12 276.594 13.008L278.43 11.136C277.386 10.038 275.046 8.166 273.786 7.32ZM271.536 19.308L273.048 21.684C275.586 21.252 277.908 20.244 279.726 19.146C282.624 17.4 285.018 14.916 286.386 12.486L284.982 9.948C283.848 12.378 281.508 15.132 278.43 16.95C276.684 17.994 274.344 18.912 271.536 19.308ZM290.832 7.41V9.732C291.372 9.696 292.146 9.678 292.758 9.678H298.644C299.274 9.678 299.976 9.696 300.588 9.732V7.41C299.976 7.5 299.256 7.554 298.644 7.554H292.758C292.146 7.554 291.408 7.5 290.832 7.41ZM288.744 12.018V14.376C289.248 14.34 289.95 14.304 290.472 14.304H295.422C295.35 15.816 295.044 17.166 294.306 18.282C293.586 19.344 292.326 20.37 291.048 20.856L293.154 22.386C294.756 21.576 296.142 20.19 296.772 18.93C297.42 17.67 297.816 16.158 297.924 14.304H302.262C302.766 14.304 303.45 14.322 303.9 14.358V12.018C303.432 12.09 302.64 12.126 302.262 12.126H290.472C289.914 12.126 289.284 12.09 288.744 12.018ZM301.668 6.168L300.228 6.762C300.714 7.446 301.272 8.526 301.65 9.264L303.09 8.634C302.748 7.968 302.118 6.834 301.668 6.168ZM303.792 5.358L302.37 5.952C302.856 6.636 303.432 7.68 303.81 8.436L305.25 7.806C304.926 7.176 304.26 6.042 303.792 5.358ZM307.104 12.666V15.492C307.77 15.438 308.976 15.402 310.002 15.402H319.668C320.424 15.402 321.342 15.474 321.774 15.492V12.666C321.306 12.702 320.514 12.774 319.668 12.774H310.002C309.066 12.774 307.752 12.72 307.104 12.666ZM333.69 6.744L331.08 5.934C330.918 6.546 330.54 7.374 330.252 7.806C329.352 9.372 327.678 11.838 324.528 13.8L326.472 15.294C328.29 14.034 329.964 12.306 331.224 10.632H336.372C336.102 11.748 335.328 13.314 334.392 14.61C333.258 13.854 332.124 13.116 331.17 12.576L329.568 14.214C330.486 14.79 331.674 15.6 332.844 16.464C331.35 17.958 329.352 19.416 326.238 20.37L328.326 22.188C331.134 21.126 333.186 19.596 334.77 17.922C335.508 18.516 336.174 19.074 336.66 19.524L338.37 17.49C337.848 17.058 337.146 16.536 336.372 15.978C337.65 14.178 338.55 12.252 339.036 10.794C339.198 10.344 339.432 9.858 339.63 9.516L337.794 8.382C337.398 8.508 336.786 8.58 336.228 8.58H332.574C332.79 8.184 333.24 7.374 333.69 6.744ZM354.21 8.526L352.644 9.174C353.31 10.092 353.76 10.974 354.282 12.108L355.902 11.406C355.506 10.578 354.714 9.264 354.21 8.526ZM356.622 7.536L355.074 8.238C355.74 9.138 356.226 9.966 356.802 11.1L358.368 10.344C357.954 9.534 357.144 8.256 356.622 7.536ZM342.078 15.87L344.238 18.102C344.562 17.634 344.994 17.004 345.408 16.428C346.128 15.456 347.406 13.674 348.108 12.774C348.63 12.126 349.008 12.09 349.584 12.666C350.232 13.332 351.834 15.078 352.878 16.32C353.94 17.562 355.47 19.416 356.676 20.91L358.656 18.786C357.27 17.31 355.434 15.312 354.228 14.034C353.148 12.864 351.762 11.424 350.556 10.29C349.152 8.976 348.09 9.174 347.028 10.434C345.786 11.91 344.382 13.674 343.572 14.502C343.014 15.042 342.618 15.438 342.078 15.87ZM361.104 12.666V15.492C361.77 15.438 362.976 15.402 364.002 15.402H373.668C374.424 15.402 375.342 15.474 375.774 15.492V12.666C375.306 12.702 374.514 12.774 373.668 12.774H364.002C363.066 12.774 361.752 12.72 361.104 12.666ZM391.564 8.796L390.088 7.698C389.728 7.824 389.008 7.932 388.234 7.932H381.88C381.34 7.932 380.242 7.878 379.756 7.806V10.362C380.134 10.344 381.124 10.236 381.88 10.236H387.982C387.586 11.514 386.488 13.296 385.3 14.646C383.608 16.536 380.818 18.732 377.92 19.812L379.774 21.756C382.24 20.586 384.634 18.714 386.542 16.698C388.234 18.336 389.908 20.172 391.078 21.792L393.13 20.01C392.068 18.714 389.89 16.41 388.108 14.862C389.314 13.242 390.322 11.316 390.934 9.912C391.096 9.552 391.42 8.994 391.564 8.796Z" fill="black"/>
</svg>
