<svg width="224" height="30" viewBox="0 0 224 30" fill="none" xmlns="http://www.w3.org/2000/svg">
<g clip-path="url(#clip0_4367_9313)">
<path d="M52.2395 7.56305C54.4106 9.62188 55.474 12.0589 55.474 14.958C55.474 17.8572 54.4106 20.3362 52.2395 22.437C50.0684 24.4958 47.4985 25.5042 44.4412 25.5042C41.384 25.5042 38.7698 24.4958 36.5543 22.437C34.3832 20.3782 33.3198 17.8992 33.3198 14.958C33.3198 12.0589 34.3832 9.62188 36.5543 7.56305C38.7255 5.50423 41.3396 4.49583 44.4412 4.49583C47.4099 4.45381 50.0684 5.46221 52.2395 7.56305ZM44.3969 7.47902C42.2258 7.47902 40.3206 8.23532 38.8141 9.66389C37.3076 11.0925 36.51 12.8992 36.51 14.958C36.51 17.0168 37.3076 18.8236 38.8141 20.2521C40.3206 21.6807 42.2258 22.479 44.3969 22.479C46.568 22.479 48.429 21.7227 49.9798 20.2521C51.5306 18.7815 52.3281 17.0168 52.3281 14.958C52.3281 12.8992 51.5306 11.1345 49.9798 9.66389C48.429 8.23532 46.568 7.47902 44.3969 7.47902Z" fill="white"/>
<path d="M61.1458 14.1176V24.8739H57.9556V9.24369H61.1458V9.87394C62.4307 9.07562 63.9372 8.65546 65.5323 8.65546V11.6807C64.1587 11.6807 62.9624 12.1429 61.9433 13.0672C61.6775 13.4034 61.3673 13.7395 61.1458 14.1176Z" fill="white"/>
<path d="M80.1096 23.9916C78.6474 25 76.9194 25.4622 75.0142 25.4622C72.5772 25.4622 70.4947 24.6638 68.7667 23.0252C67.0386 21.3865 66.1968 19.4117 66.1968 17.1008C66.1968 14.7899 67.0386 12.8151 68.7667 11.1764C70.4947 9.53779 72.5772 8.73947 75.0142 8.73947C76.9194 8.73947 78.6031 9.20166 80.1096 10.2101V5.04199H83.2998V24.8319H80.1096V23.9916ZM80.1096 19.5378V14.5798C79.8438 14.1176 79.4893 13.6975 79.0462 13.2773C77.9385 12.2269 76.6093 11.6806 75.0142 11.6806C73.4634 11.6806 72.1341 12.2269 70.9821 13.2773C69.8744 14.3277 69.2984 15.5882 69.2984 17.1008C69.2984 18.5714 69.8744 19.8319 70.9821 20.9243C72.0898 21.9748 73.419 22.521 75.0142 22.521C76.5649 22.521 77.8942 21.9748 79.0462 20.9243C79.5336 20.5042 79.8881 20.042 80.1096 19.5378Z" fill="white"/>
<path d="M101.954 12.2689L99.6498 14.4538L91.8958 21.8067C92.7377 22.2269 93.6238 22.479 94.6429 22.479C96.371 22.479 97.8774 21.8067 99.1181 20.4201L101.555 22.2689C99.6941 24.4538 97.3901 25.5042 94.5986 25.5042C92.1617 25.5042 90.0792 24.7059 88.3511 23.0672C86.6231 21.4286 85.7812 19.4538 85.7812 17.1428C85.7812 14.8319 86.6231 12.8571 88.3511 11.2185C90.0792 9.57981 92.1617 8.78149 94.5986 8.78149C97.0356 8.78149 99.1181 9.57981 100.846 11.2185C101.334 11.5126 101.688 11.8907 101.954 12.2689ZM97.4344 12.3529C96.5925 11.9328 95.7063 11.6807 94.6872 11.6807C93.1364 11.6807 91.8072 12.2269 90.6552 13.2773C89.5475 14.3277 88.9715 15.5882 88.9715 17.1008C88.9715 18.0672 89.193 18.9496 89.6804 19.7059L97.4344 12.3529Z" fill="white"/>
<path d="M107.98 14.1176V24.8739H104.79V9.24369H107.98V9.87394C109.265 9.07562 110.771 8.65546 112.366 8.65546V11.6807C110.993 11.6807 109.796 12.1429 108.777 13.0672C108.467 13.4034 108.201 13.7395 107.98 14.1176Z" fill="white"/>
<path d="M129.868 20C129.425 20.042 129.026 20.126 128.539 20.126H123.798V24.958H120.607V5.04199H128.539C130.71 5.04199 132.571 5.7983 134.121 7.22687C135.672 8.65544 136.47 10.4622 136.47 12.521C136.47 14.5798 135.672 16.3865 134.166 17.8151C133.723 18.2353 133.28 18.5714 132.837 18.8655L136.027 24.8319H132.526L129.868 20ZM123.753 17.0588H128.494C129.779 17.0588 130.887 16.6386 131.862 15.7563C132.792 14.8739 133.235 13.7815 133.235 12.563C133.235 11.3445 132.792 10.2941 131.862 9.36972C130.931 8.48737 129.779 8.0672 128.494 8.0672H123.753V17.0588Z" fill="white"/>
<path d="M154.504 12.2689L152.2 14.4538L144.446 21.8067C145.287 22.2269 146.174 22.479 147.193 22.479C148.921 22.479 150.427 21.8067 151.668 20.4201L154.105 22.2689C152.244 24.4538 149.94 25.5042 147.148 25.5042C144.711 25.5042 142.629 24.7059 140.901 23.0672C139.173 21.4286 138.331 19.4538 138.331 17.1428C138.331 14.8319 139.173 12.8571 140.901 11.2185C142.629 9.57981 144.711 8.78149 147.148 8.78149C149.585 8.78149 151.668 9.57981 153.396 11.2185C153.839 11.5126 154.193 11.8907 154.504 12.2689ZM149.94 12.3529C149.098 11.9328 148.212 11.6807 147.193 11.6807C145.642 11.6807 144.268 12.2269 143.161 13.2773C142.053 14.3277 141.477 15.5882 141.477 17.1008C141.477 18.0672 141.698 18.9496 142.186 19.7059L149.94 12.3529Z" fill="white"/>
<path d="M160.485 14.1176V24.8739H157.295V9.24369H160.485V9.87394C161.77 9.07562 163.277 8.65546 164.872 8.65546C167.176 8.65546 169.125 9.41176 170.676 10.9244C172.315 12.479 173.069 14.2437 173.069 16.4286V24.8319H169.879V16.4706C169.879 15.1681 169.391 14.0336 168.372 13.0672C167.353 12.1008 166.201 11.6387 164.783 11.6387C163.409 11.6387 162.213 12.1008 161.194 13.0252C160.973 13.4034 160.707 13.7395 160.485 14.1176Z" fill="white"/>
<path d="M190.172 11.1344C191.9 12.7731 192.742 14.7479 192.742 17.0588C192.742 19.3697 191.9 21.3445 190.172 22.9832C188.444 24.6218 186.361 25.4201 183.924 25.4201C181.487 25.4201 179.405 24.6218 177.677 22.9832C175.949 21.3445 175.107 19.3697 175.107 17.0588C175.107 14.7479 175.949 12.7731 177.677 11.1344C179.405 9.49577 181.487 8.69745 183.924 8.69745C186.361 8.69745 188.444 9.49577 190.172 11.1344ZM183.924 11.6806C182.374 11.6806 181.044 12.2269 179.892 13.2773C178.785 14.3277 178.209 15.5882 178.209 17.1008C178.209 18.5714 178.785 19.8319 179.892 20.9243C181 21.9748 182.329 22.521 183.924 22.521C185.475 22.521 186.804 21.9748 187.956 20.9243C189.064 19.8739 189.64 18.6134 189.64 17.1008C189.64 15.6302 189.064 14.3697 187.956 13.2773C186.804 12.1848 185.475 11.6806 183.924 11.6806Z" fill="white"/>
<path d="M196.242 9.28571L200.097 19.4958L203.907 9.28571H207.319L201.337 24.916H198.812L192.83 9.28571C192.83 9.28571 196.242 9.28571 196.242 9.28571Z" fill="white"/>
<path d="M223.447 12.2689L221.143 14.4538L213.389 21.8067C214.231 22.2269 215.117 22.479 216.137 22.479C217.865 22.479 219.371 21.8067 220.612 20.4201L223.049 22.2689C221.188 24.4538 218.884 25.5042 216.092 25.5042C213.655 25.5042 211.573 24.7059 209.845 23.0672C208.117 21.4286 207.275 19.4538 207.275 17.1428C207.275 14.8319 208.117 12.8571 209.845 11.2185C211.573 9.57981 213.655 8.78149 216.092 8.78149C218.529 8.78149 220.612 9.57981 222.34 11.2185C222.827 11.5126 223.137 11.8907 223.447 12.2689ZM218.928 12.3529C218.086 11.9328 217.2 11.6807 216.181 11.6807C214.63 11.6807 213.301 12.2269 212.149 13.2773C211.041 14.3277 210.465 15.5882 210.465 17.1008C210.465 18.0672 210.687 18.9496 211.174 19.7059L218.928 12.3529Z" fill="white"/>
<path d="M28.7112 19.0756C28.7112 21.9327 28.7555 24.8739 28.6669 27.7311C28.6669 28.4033 28.3567 29.3277 27.8694 29.6638C27.382 29.9159 26.3186 29.6638 25.7425 29.3277C22.2422 27.3529 18.8304 25.2941 15.3744 23.2353C14.6211 22.7731 14.0008 22.3109 14.2224 21.3865C14.4439 20.4622 15.2415 20.3781 16.0833 20.2941C17.9443 20 19.1406 18.5714 19.052 16.8907C18.9634 15.2101 17.5455 13.8655 15.6402 13.8235C14.2224 13.7815 12.7159 13.8655 11.298 13.7815C10.2346 13.7395 9.92444 14.0756 9.92444 15.084C9.96875 19.3277 9.92444 23.5294 9.92444 27.7731C9.92444 29.7479 9.56998 30.084 7.44317 30.084C5.67084 30.084 3.94281 30.084 2.12616 30.084C0.53106 30.084 -0.000641645 29.5798 -0.000641645 28.0252C-0.000641645 22.1008 -0.0449501 16.1344 0.0436668 10.2101C0.0436668 9.53778 0.575368 8.65543 1.15138 8.23526C5.13913 5.63022 9.1712 3.10921 13.2033 0.462154C14.0451 -0.0840643 14.7984 -0.0840643 15.6402 0.462154C19.628 3.02518 23.6157 5.5882 27.6035 8.10921C28.4454 8.65543 28.7555 9.36972 28.7555 10.3361C28.7112 13.1932 28.7112 16.1764 28.7112 19.0756ZM25.4767 25.8403C25.5653 25.5042 25.6539 25.3361 25.6539 25.168C25.6539 20.4201 25.6982 15.7143 25.6096 11.0084C25.6096 10.5462 25.1665 9.99997 24.7678 9.74787C21.6219 7.68904 18.3874 5.67224 15.2858 3.61341C14.6654 3.19325 14.1781 3.15123 13.5134 3.61341C10.3675 5.71425 7.13301 7.64703 3.98712 9.78988C3.49972 10.084 3.10095 10.8403 3.10095 11.3865C3.05664 16.2185 3.10095 21.0924 3.05664 25.9243C3.05664 26.8907 3.3668 27.3529 4.38589 27.2269C4.74036 27.1848 5.09483 27.1848 5.44929 27.2269C6.68993 27.3949 7.0444 26.8907 7.0444 25.7143C7.00009 21.4285 7.00009 17.1008 7.0444 12.8151C7.0444 11.3025 7.39886 10.9664 8.99397 10.9664C11.2094 10.9664 13.5134 10.9243 15.7288 10.9664C18.4317 11.0084 20.3812 12.2689 21.5332 14.6218C22.5967 16.8487 22.0206 19.4958 20.204 21.2605C19.9381 21.5546 19.628 21.8487 19.3178 22.2269C21.4003 23.4033 23.3499 24.5798 25.4767 25.8403Z" fill="white"/>
</g>
<defs>
<clipPath id="clip0_4367_9313">
<rect width="223.846" height="30" fill="white"/>
</clipPath>
</defs>
</svg>
