<!--?xml version="1.0" encoding="utf-8"?-->
<!-- Generator: Adobe Illustrator 19.1.1, SVG Export Plug-In . SVG Version: 6.00 Build 0)  -->
<svg version="1.1" id="_x31_0" xmlns="http://www.w3.org/2000/svg" xmlns:xlink="http://www.w3.org/1999/xlink" x="0px" y="0px" viewBox="0 0 512 512" style="width: 256px; height: 256px; opacity: 1;" xml:space="preserve">
<style type="text/css">
	.st0{fill:#374149;}
</style>
<g>
	<path class="st0" d="M366.942,220.364l-0.985-0.508l-1.019,0.422c-26.824,10.993-39.321,26.695-39.321,49.414
		c0,33.57,20.422,45.527,39.535,45.527c19.321,0,39.965-11.957,39.965-45.527C405.117,249.972,392.274,233.375,366.942,220.364z" style="fill: rgb(255, 255, 255);"></path>
	<path class="st0" d="M502.59,67.922H9.41c-5.199,0-9.41,4.215-9.41,9.41v357.336c0,5.195,4.211,9.41,9.41,9.41H502.59
		c5.195,0,9.41-4.214,9.41-9.41V77.332C512,72.137,507.785,67.922,502.59,67.922z M415.91,202.067l-2.039,0.106l0.102,0.094
		l-0.211,0.023l3.863,3.602c19.149,17.844,28.859,39.309,28.859,63.801c0,57.047-40.914,86.898-81.332,86.898
		c-40.199,0-80.894-29.851-80.894-86.898c0-28.286,10.742-51.418,31.934-68.758l2.328-1.902l1.559-1.145l-0.129-0.023l0.16-0.133
		l-4.961-1.008c-19.512-3.961-39.977-6.054-59.18-6.054c-19.226,0-39.672,2.094-59.129,6.05l-2.969,0.606l-1.883,0.278l0.102,0.086
		l-0.203,0.039l3.914,3.203c21.191,17.34,31.942,40.476,31.942,68.762c0,57.047-40.695,86.898-80.898,86.898
		c-40.414,0-81.328-29.851-81.328-86.898c0-24.531,9.702-46,28.835-63.805l2.27-2.114l1.59-1.332l-0.141-0.015l0.156-0.145
		l-5.262-0.539c-12.297-1.266-25.558-1.906-39.41-1.906H35.926v-35.25h17.629c34.848,0,65.23,3.621,90.305,10.77l0.782,0.218
		l0.758-0.297c32.047-12.625,72.352-19.863,110.57-19.863c38.203,0,78.527,7.238,110.629,19.863l0.754,0.297l0.782-0.218
		c25.074-7.149,55.457-10.77,90.313-10.77h17.625v35.25h-17.625c-13.879,0-27.145,0.644-39.43,1.91L415.91,202.067z" style="fill: rgb(255, 255, 255);"></path>
	<path class="st0" d="M147.054,220.277l-1.023-0.422l-0.981,0.508c-25.328,13.015-38.167,29.613-38.167,49.328
		c0,33.57,20.64,45.527,39.961,45.527c19.113,0,39.535-11.957,39.535-45.527C186.379,246.972,173.883,231.27,147.054,220.277z" style="fill: rgb(255, 255, 255);"></path>
</g>
</svg>
