<svg xmlns="http://www.w3.org/2000/svg" viewBox="0 0 18 19.87"><defs><style>.cls-1{fill:#646464;}</style></defs><g id="Layer_2" data-name="Layer 2"><g id="Layer_1-2" data-name="Layer 1"><path id="path7846" class="cls-1" d="M9.1,19.8l7.8-4.5c.1-.1.1-.3,0-.3L9.1,10.5H8.9L1.1,14.9c-.1.1-.1.3,0,.3l7.8,4.5C9,19.9,9,19.9,9.1,19.8Z"/><path id="path7848" class="cls-1" d="M0,4.7v8.7c0,.2.2.3.3.2l2.6-1.5c.1,0,.1-.1.1-.2V6.8c0-.1,0-.1.1-.2L5.8,5.1c.1,0,.1,0,.1.1V10c0,.2.2.3.3.2l1.6-.9c.1,0,.1-.1.1-.2V.4c0-.2-.2-.3-.3-.2L0,4.7Z"/><path id="path7850" class="cls-1" d="M10,.3V9.1l7.7,4.5c.1.1.3,0,.3-.2V4.7c0-.1,0-.1-.1-.2L10.3,0A.32.32,0,0,0,10,.3Z"/></g></g></svg>