<svg xmlns="http://www.w3.org/2000/svg" viewBox="0 0 20 18"><defs><style>.cls-1{fill:#646464;}</style></defs><g id="Layer_2" data-name="Layer 2"><g id="Layer_1-2" data-name="Layer 1"><path id="path6468" class="cls-1" d="M18.5,5A1.54,1.54,0,0,0,17,6.5V11H3V6.5A1.54,1.54,0,0,0,1.5,5,1.54,1.54,0,0,0,0,6.5v10A1.54,1.54,0,0,0,1.5,18,1.54,1.54,0,0,0,3,16.5V16H17v.5a1.5,1.5,0,0,0,3,0V6.5A1.54,1.54,0,0,0,18.5,5Z"/><path id="path6470" class="cls-1" d="M5.5,9h9A1.54,1.54,0,0,0,16,7.5v-6A1.54,1.54,0,0,0,14.5,0h-9A1.54,1.54,0,0,0,4,1.5v6A1.54,1.54,0,0,0,5.5,9Z"/></g></g></svg>