<svg xmlns="http://www.w3.org/2000/svg" viewBox="0 0 20 19"><defs><style>.cls-1{fill:#646464;}</style></defs><g id="Layer_2" data-name="Layer 2"><g id="Layer_1-2" data-name="Layer 1"><path id="path7748" class="cls-1" d="M20,12a6.47,6.47,0,0,0-.4-2H.4A4.48,4.48,0,0,0,0,12a5,5,0,0,0,4,4.9V18a1.08,1.08,0,0,0,1,1,1.08,1.08,0,0,0,1-1V17h8v1a1,1,0,0,0,2,0V16.9A5,5,0,0,0,20,12Z"/><path id="path7750" class="cls-1" d="M3,2H5V3A1.08,1.08,0,0,0,6,4,1.08,1.08,0,0,0,7,3V1A.94.94,0,0,0,6,0H2A.94.94,0,0,0,1,1V8H3Z"/></g></g></svg>