<svg xmlns="http://www.w3.org/2000/svg" viewBox="0 0 20 18"><defs><style>.cls-1{fill:#646464;}</style></defs><g id="Layer_2" data-name="Layer 2"><g id="Layer_1-2" data-name="Layer 1"><path id="path6584" class="cls-1" d="M2,18a.94.94,0,0,1-1-1V3.9a.94.94,0,0,1,1-1,1,1,0,0,1,1,1V17A.94.94,0,0,1,2,18Z"/><path id="path6586" class="cls-1" d="M18,18a.94.94,0,0,1-1-1V3.9a.94.94,0,0,1,1-1,1,1,0,0,1,1,1V17A.94.94,0,0,1,18,18Z"/><circle id="circle6588" class="cls-1" cx="2" cy="2" r="2"/><circle id="circle6590" class="cls-1" cx="18" cy="2" r="2"/><path id="path6592" class="cls-1" d="M2,14H18v2H2ZM2,6H18V8H2Z"/><rect id="rect6594" class="cls-1" x="5" y="7" width="2" height="8"/><rect id="rect6596" class="cls-1" x="9" y="7" width="2" height="8"/><rect id="rect6598" class="cls-1" x="13" y="7" width="2" height="8"/></g></g></svg>