<svg xmlns="http://www.w3.org/2000/svg" viewBox="0 0 20 20"><defs><style>.cls-1{fill:#646464;}</style></defs><g id="Layer_2" data-name="Layer 2"><g id="Layer_1-2" data-name="Layer 1"><path id="settings-applications" class="cls-1" d="M10,7.8A2.2,2.2,0,1,0,12.2,10,2.22,2.22,0,0,0,10,7.8ZM17.8,0H2.2A2.22,2.22,0,0,0,0,2.2V17.8A2.22,2.22,0,0,0,2.2,20H17.8A2.22,2.22,0,0,0,20,17.8V2.2A2.22,2.22,0,0,0,17.8,0Zm-2,10v.8l1.7,1.3c.1.1.2.3.1.4L16,15.2a.4.4,0,0,1-.4.2l-1.9-.8a9.13,9.13,0,0,1-1.3.8l-.3,2.1a.32.32,0,0,1-.3.3H8.7a.27.27,0,0,1-.3-.3L8,15.4a4.58,4.58,0,0,1-1.3-.8l-1.9.8c-.2.1-.3,0-.4-.2L2.8,12.5c-.1-.2,0-.3.1-.4l1.7-1.3V9.2L2.9,7.9c-.1-.1-.2-.3-.1-.4L4.4,4.8a.4.4,0,0,1,.4-.2l1.9.8c.4-.2.9-.6,1.3-.8l.3-2.1a.32.32,0,0,1,.3-.3h3.1a.27.27,0,0,1,.3.3l.3,2.1a4.58,4.58,0,0,1,1.3.8l1.9-.8c.2-.1.3,0,.4.2l1.6,2.7c.1.2,0,.3-.1.4L15.7,9.2A2.2,2.2,0,0,1,15.8,10Z"/></g></g></svg>