<svg xmlns="http://www.w3.org/2000/svg" viewBox="0 0 20 19"><defs><style>.cls-1{fill:#646464;}</style></defs><g id="Layer_2" data-name="Layer 2"><g id="Layer_1-2" data-name="Layer 1"><path id="path6759" class="cls-1" d="M18.5,0H1.5A1.54,1.54,0,0,0,0,1.5,1.5,1.5,0,0,0,1,2.9V19H19V2.9a1.5,1.5,0,0,0,1-1.4A1.54,1.54,0,0,0,18.5,0ZM11.8,17H8.3a1.85,1.85,0,0,1,1-2c1.4-1,1.2-1.7,1.2-1.8a4,4,0,0,0,1.1,1.7A1.77,1.77,0,0,1,11.8,17ZM17,17H12.3A4.26,4.26,0,0,0,14,14.6c.3-2.8-2.6-6.1-3.6-6.6a6,6,0,0,1-1.9,3.6C7,12.6,6.8,13.2,6.7,14A3.41,3.41,0,0,0,8,17.1H3V6.1H17Z"/></g></g></svg>