<svg xmlns="http://www.w3.org/2000/svg" viewBox="0 0 20 18"><defs><style>.cls-1{fill:#646464;}</style></defs><g id="Layer_2" data-name="Layer 2"><g id="Layer_1-2" data-name="Layer 1"><path id="path6600" class="cls-1" d="M17,0H3A1.13,1.13,0,0,0,2,1.2V7H18V1.2A1.13,1.13,0,0,0,17,0ZM9,4A.94.94,0,0,1,8,5H5A.94.94,0,0,1,4,4V3A.94.94,0,0,1,5,2H8A.94.94,0,0,1,9,3Zm7,0a.94.94,0,0,1-1,1H12a.94.94,0,0,1-1-1V3a.94.94,0,0,1,1-1h3a.94.94,0,0,1,1,1Z"/><path id="path6602" class="cls-1" d="M18,9H2a2,2,0,0,0-2,2v5a2,2,0,0,0,2,2H3V16H17v2h1a2,2,0,0,0,2-2V11A2,2,0,0,0,18,9Z"/></g></g></svg>