<svg xmlns="http://www.w3.org/2000/svg" viewBox="0 0 16.29 17.26"><defs><style>.cls-1{fill:#646464;}</style></defs><g id="Layer_2" data-name="Layer 2"><g id="Layer_1-2" data-name="Layer 1"><path id="path6514" class="cls-1" d="M16,15.36,9.3,8.66v-.8a4.09,4.09,0,0,0,2-6.6L11,1a4.15,4.15,0,0,0-6.6,1.8A1.06,1.06,0,0,0,5.4,4a1.1,1.1,0,0,0,1-.6A2,2,0,0,1,8.3,2a2,2,0,0,1,0,4,1.08,1.08,0,0,0-1,1v1.6l-7,7A1,1,0,0,0,.3,17a1,1,0,0,0,1.4,0l6.5-6.5,6.3,6.3a1,1,0,0,0,1.4,0A.9.9,0,0,0,16,15.36Z"/></g></g></svg>