<svg xmlns="http://www.w3.org/2000/svg" viewBox="0 0 18 20"><defs><style>.cls-1{fill:#646464;}</style></defs><g id="Layer_2" data-name="Layer 2"><g id="Layer_1-2" data-name="Layer 1"><path id="path6691" class="cls-1" d="M16,8V6H1v4a6,6,0,0,0,6,6h3a6.09,6.09,0,0,0,5.2-3h.3A2.48,2.48,0,0,0,18,10.5,2.67,2.67,0,0,0,16,8Z"/><path id="path6693" class="cls-1" d="M4,4A1.08,1.08,0,0,0,5,3V1A1.08,1.08,0,0,0,4,0,1.08,1.08,0,0,0,3,1V3A1.08,1.08,0,0,0,4,4Z"/><path id="path6695" class="cls-1" d="M12,4a1.08,1.08,0,0,0,1-1V1a1.08,1.08,0,0,0-1-1,1.08,1.08,0,0,0-1,1V3A1.08,1.08,0,0,0,12,4Z"/><path id="path6697" class="cls-1" d="M8,4A1.08,1.08,0,0,0,9,3V1A1.08,1.08,0,0,0,8,0,1.08,1.08,0,0,0,7,1V3A1.08,1.08,0,0,0,8,4Z"/><path id="path6699" class="cls-1" d="M.1,18a.9.9,0,0,0-.1.5A1.54,1.54,0,0,0,1.5,20h14A1.54,1.54,0,0,0,17,18.5a.9.9,0,0,0-.1-.5Z"/></g></g></svg>