<svg xmlns="http://www.w3.org/2000/svg" viewBox="0 0 19 16.52"><defs><style>.cls-1{fill:#646464;}</style></defs><g id="Layer_2" data-name="Layer 2"><g id="Layer_1-2" data-name="Layer 1"><path id="path6478" class="cls-1" d="M12.8,8.2a2.19,2.19,0,0,0-.3-.5,2.66,2.66,0,0,0-2.2-1.1H3.8A2.8,2.8,0,0,0,1,9.4v1.4a2.92,2.92,0,0,0,2,2.7v.1H1a1,1,0,0,0,0,2H5a.94.94,0,0,0,1-1v-.5l-.2-.6h4.4a3.59,3.59,0,0,0,1.1-.2l.6,2.3a1.31,1.31,0,0,0,1.5.9l.3-.1a1.31,1.31,0,0,0,.9-1.5L12.8,8.2Z"/><circle id="circle6480" class="cls-1" cx="15.2" cy="3.8" r="3.8"/></g></g></svg>