<svg xmlns="http://www.w3.org/2000/svg" viewBox="0 0 16 21"><defs><style>.cls-1{fill:#646464;}</style></defs><g id="Layer_2" data-name="Layer 2"><g id="Layer_1-2" data-name="Layer 1"><path id="path6526" class="cls-1" d="M14,0H2A2,2,0,0,0,0,2V19a2,2,0,0,0,2,2H14a2,2,0,0,0,2-2V2A2,2,0,0,0,14,0ZM5.5,18.9a1.08,1.08,0,0,1-1.4-.3L2.5,15.9a1.08,1.08,0,0,1,.3-1.4,1.08,1.08,0,0,1,1.4.3l1.6,2.7A1,1,0,0,1,5.5,18.9Zm5.7-.2a1.08,1.08,0,0,1-1.4-.3L2.1,5.5a1.08,1.08,0,0,1,.3-1.4,1.08,1.08,0,0,1,1.4.3l7.7,12.9A1,1,0,0,1,11.2,18.7Z"/></g></g></svg>