<svg xmlns="http://www.w3.org/2000/svg" viewBox="0 0 20 18"><defs><style>.cls-1{fill:#646464;}</style></defs><g id="Layer_2" data-name="Layer 2"><g id="Layer_1-2" data-name="Layer 1"><path id="path7728" class="cls-1" d="M18,6H2A2,2,0,0,0,0,8v8a2,2,0,0,0,2,2H18a2,2,0,0,0,2-2V8A2,2,0,0,0,18,6Zm0,6H2V9C2,7.9,2,8,3,8H17c1,0,1-.1,1,1Z"/><path id="path7730" class="cls-1" d="M5,1A1.08,1.08,0,0,0,4,0,1.08,1.08,0,0,0,3,1V4H5Z"/><path id="path7732" class="cls-1" d="M11,1a1.08,1.08,0,0,0-1-1A1.08,1.08,0,0,0,9,1V4h2Z"/><path id="path7734" class="cls-1" d="M17,1a1,1,0,0,0-2,0V4h2Z"/></g></g></svg>