<svg xmlns="http://www.w3.org/2000/svg" viewBox="0 0 22 17.56"><defs><style>.cls-1{fill:#646464;}</style></defs><g id="Layer_2" data-name="Layer 2"><g id="Layer_1-2" data-name="Layer 1"><ellipse id="ellipse6705" class="cls-1" cx="7.2" cy="3.5" rx="2.6" ry="3.5"/><ellipse id="ellipse6707" class="cls-1" cx="14.6" cy="3.5" rx="2.6" ry="3.5"/><ellipse id="ellipse6709" class="cls-1" cx="19.9" cy="8.9" rx="2.1" ry="2.7"/><ellipse id="ellipse6711" class="cls-1" cx="2.1" cy="9.1" rx="2.1" ry="2.7"/><path id="path6713" class="cls-1" d="M12.9,8.6A4.88,4.88,0,0,0,11,8.2a5,5,0,0,0-2,.4,6.23,6.23,0,0,0-2.9,2.5c-1.5,2.4-1.3,5.1.3,6.1,1.3.8,3.2.2,4.6-1.3,1.4,1.5,3.3,2.1,4.6,1.3,1.6-1,1.8-3.7.3-6.1A6.44,6.44,0,0,0,12.9,8.6Z"/></g></g></svg>