<svg xmlns="http://www.w3.org/2000/svg" viewBox="0 0 14 21.2"><defs><style>.cls-1{fill:#646464;}</style></defs><g id="Layer_2" data-name="Layer 2"><g id="Layer_1-2" data-name="Layer 1"><path id="path6510" class="cls-1" d="M12.5,11.2H7.8L7.6,9.1a2.73,2.73,0,0,0,1.6.4A2.86,2.86,0,0,0,12,6.7a2.79,2.79,0,0,0-.8-2,2.93,2.93,0,0,0,.4-1.6A3.11,3.11,0,0,0,5.9,1.4,2.92,2.92,0,0,0,5,1.2,2.8,2.8,0,0,0,2.2,4a2,2,0,0,0,.1.8,2.72,2.72,0,0,0-.6,1.7A2.8,2.8,0,0,0,4.5,9.3a2.85,2.85,0,0,0,1.6-.2l-.2,2.1H1.5c-.8,0-1.5.4-1.5,1.2l1.5,7.4A1.45,1.45,0,0,0,3,21.2h8a1.54,1.54,0,0,0,1.5-1.5L14,12.5c0-.9-.7-1.3-1.5-1.3Z"/></g></g></svg>