<svg xmlns="http://www.w3.org/2000/svg" viewBox="0 0 20 13"><defs><style>.cls-1{fill:#646464;}</style></defs><g id="Layer_2" data-name="Layer 2"><g id="Layer_1-2" data-name="Layer 1"><path id="path6548" class="cls-1" d="M3,6A1.08,1.08,0,0,0,4,5V1A1.08,1.08,0,0,0,3,0,1.08,1.08,0,0,0,2,1V5A1.08,1.08,0,0,0,3,6Z"/><path id="path6550" class="cls-1" d="M7,6A1.08,1.08,0,0,0,8,5V1A1.08,1.08,0,0,0,7,0,1.08,1.08,0,0,0,6,1V5A1.08,1.08,0,0,0,7,6Z"/><path id="path6552" class="cls-1" d="M13,6a1.08,1.08,0,0,0,1-1V1a1.08,1.08,0,0,0-1-1,1.08,1.08,0,0,0-1,1V5A1.08,1.08,0,0,0,13,6Z"/><path id="path6554" class="cls-1" d="M17,6a1.08,1.08,0,0,0,1-1V1a1,1,0,0,0-2,0V5A1.08,1.08,0,0,0,17,6Z"/><polygon id="polygon6556" class="cls-1" points="0 8 0 11 2 11 2 13 4 13 4 11 16 11 16 13 18 13 18 11 20 11 20 8 0 8"/></g></g></svg>