<svg xmlns="http://www.w3.org/2000/svg" viewBox="0 0 16 18"><defs><style>.cls-1{fill:#646464;}</style></defs><g id="Layer_2" data-name="Layer 2"><g id="Layer_1-2" data-name="Layer 1"><path id="path6604" class="cls-1" d="M13.7,9H2.3A2.15,2.15,0,0,0,0,11v5a2.15,2.15,0,0,0,2.3,2H3V16H13v2h.7A2.15,2.15,0,0,0,16,16V11A2.15,2.15,0,0,0,13.7,9Z"/><path id="path6606" class="cls-1" d="M12,0H4A2,2,0,0,0,2,2V7H14V2A2,2,0,0,0,12,0ZM9.5,5h-3A1.54,1.54,0,0,1,5,3.5,1.54,1.54,0,0,1,6.5,2h3A1.54,1.54,0,0,1,11,3.5,1.54,1.54,0,0,1,9.5,5Z"/></g></g></svg>