<svg xmlns="http://www.w3.org/2000/svg" viewBox="0 0 20 12"><defs><style>.cls-1{fill:#646464;}</style></defs><g id="Layer_2" data-name="Layer 2"><g id="Layer_1-2" data-name="Layer 1"><path id="path6616" class="cls-1" d="M19,4a1.08,1.08,0,0,0-1,1V3a1,1,0,0,0-2,0V1a1,1,0,0,0-2,0V5H6V1A1.08,1.08,0,0,0,5,0,1.08,1.08,0,0,0,4,1V3A1.08,1.08,0,0,0,3,2,1.08,1.08,0,0,0,2,3V5A1.08,1.08,0,0,0,1,4,1.08,1.08,0,0,0,0,5V7A1.08,1.08,0,0,0,1,8,1.08,1.08,0,0,0,2,7V9a1.08,1.08,0,0,0,1,1A1.08,1.08,0,0,0,4,9v2a1.08,1.08,0,0,0,1,1,1.08,1.08,0,0,0,1-1V7h8v4a1,1,0,0,0,2,0V9a1,1,0,0,0,2,0V7a1,1,0,0,0,2,0V5A1.08,1.08,0,0,0,19,4Z"/></g></g></svg>