<svg width="20" height="20" viewBox="0 0 20 20" fill="none" xmlns="http://www.w3.org/2000/svg">
<path d="M9.96768 3.36689C10.8974 3.36689 11.6511 2.61318 11.6511 1.68344C11.6511 0.753704 10.8974 0 9.96768 0C9.03794 0 8.28424 0.753704 8.28424 1.68344C8.28424 2.61318 9.03794 3.36689 9.96768 3.36689Z" fill="#010002"/>
<path d="M10.5541 4.16956C10.1346 4.0844 9.67858 4.08813 9.26659 4.18525C6.46782 4.5132 5.55905 7.75271 5.81566 10.2228C5.92697 11.2907 7.61041 11.3019 7.49798 10.2228C7.4046 9.32261 7.44457 7.96413 7.92304 6.99858C7.92304 8.17217 7.92304 9.34577 7.92304 10.519C7.92304 10.5604 7.92715 10.5993 7.92902 10.6393C7.9279 10.6583 7.92342 10.6744 7.92342 10.6938C7.92342 13.4873 7.91856 16.2797 7.80314 19.071C7.75197 20.3119 9.67596 20.307 9.72676 19.071C9.81715 16.8834 9.83994 14.6945 9.84516 12.5054C9.9363 12.5113 10.0274 12.5113 10.1186 12.5061C10.1242 14.6953 10.1462 16.8841 10.2359 19.071C10.287 20.307 12.211 20.3119 12.1595 19.071C12.0441 16.2797 12.04 13.4873 12.04 10.6938C12.04 10.6071 12.0284 10.5283 12.0108 10.4525C12.0082 9.23969 11.9619 8.02576 11.9761 6.81369C12.5491 7.78372 12.6014 9.26322 12.502 10.222C12.3892 11.3004 14.073 11.2896 14.1843 10.222C14.4469 7.7008 13.4944 4.37724 10.5541 4.16956Z" fill="#010002"/>
</svg>
