<?xml version="1.0" encoding="utf-8"?>
<!-- Generator: Adobe Illustrator 22.0.1, SVG Export Plug-In . SVG Version: 6.00 Build 0)  -->
<svg version="1.1" id="Layer_1" xmlns="http://www.w3.org/2000/svg" xmlns:xlink="http://www.w3.org/1999/xlink" x="0px" y="0px"
	 viewBox="0 0 30 30" style="enable-background:new 0 0 30 30;" xml:space="preserve">
<style type="text/css">
	.st0{fill:#4C4C4C;}
</style>
<g>
	<g>
		<path class="st0" d="M15,1.7c7.4,0,13.3,6,13.3,13.3s-6,13.3-13.3,13.3S1.7,22.4,1.7,15S7.6,1.7,15,1.7 M15,0C6.7,0,0,6.7,0,15
			s6.7,15,15,15s15-6.7,15-15S23.3,0,15,0L15,0z"/>
	</g>
	<g>
		<path class="st0" d="M16.2,11.4c0.2,0,0.2,0.1,0.2,0.2c0,1-0.2,4.5-0.2,5.7c0,1.1-0.1,3.9-0.1,4.9c0,0.2,0.1,0.3,0.2,0.3l1.3,0.3
			c0,0,0.1,0.2,0.1,0.3c0,0.1,0,0.1,0,0.1c-0.6,0-1.8-0.1-3.2-0.1c-1.4,0-2.6,0-3.1,0.1c-0.1,0-0.1,0-0.1-0.1c0-0.1,0.1-0.3,0.1-0.3
			l1.2-0.3c0.2-0.1,0.3-0.1,0.3-0.3c0-0.6-0.1-3.6-0.1-4.8c0-1-0.1-3.7-0.1-4.3c0-0.2,0-0.4-0.3-0.4l-1.1-0.1
			c-0.1,0-0.2-0.2-0.2-0.3c0,0,0-0.1,0-0.1L16.2,11.4z M14.4,6.8c1.1,0,1.7,0.8,1.7,1.6c0,1-0.7,1.7-1.7,1.7c-0.9,0-1.8-0.6-1.8-1.7
			C12.5,7.7,13.2,6.8,14.4,6.8L14.4,6.8z"/>
	</g>
</g>
</svg>
