<svg width="50" height="50" viewBox="0 0 50 50" fill="none" xmlns="http://www.w3.org/2000/svg">
<path d="M30.7791 22.6691C32.0156 22.4921 33.2414 22.2469 34.4508 21.9347V16.0918C33.2497 16.5181 32.0235 16.8699 30.7791 17.1454V22.6691Z" fill="#938152"/>
<path d="M29.0549 10.3447C27.7408 10.7506 26.3752 10.9656 25 10.9832C23.6245 10.9682 22.2586 10.7532 20.9451 10.3447V15.7087C22.2856 15.9304 23.6413 16.0478 25 16.0599C26.3586 16.0464 27.7142 15.929 29.0549 15.7087V10.3447Z" fill="#938152"/>
<path d="M8.68451 19.5403L9.89781 20.0831C11.1728 20.633 12.4851 21.0918 13.825 21.456V13.4739L15.0383 14.0486C16.3842 14.5965 17.7723 15.0343 19.189 15.3577V7.75878L20.4342 8.33347C21.8886 8.9085 23.4361 9.21152 25 9.22746C26.5678 9.22074 28.1191 8.90612 29.5658 8.30151L30.7791 7.75878V15.2939C32.2052 14.9671 33.6037 14.5294 34.9617 13.9848L36.1749 13.4101V21.3922C37.5127 21.0211 38.8246 20.5625 40.1022 20.0193L41.3154 19.4765V40.1342C45.1779 35.9913 47.3233 30.5365 47.318 24.8724C47.318 18.9448 44.9633 13.2601 40.7719 9.06864C36.5804 4.87721 30.8956 2.52246 24.9681 2.52246C19.0405 2.52246 13.3557 4.87721 9.16425 9.06864C4.97282 13.2601 2.61812 18.9448 2.61812 24.8724C2.60654 30.5187 4.75399 35.9558 8.62069 40.0704L8.68451 19.5403Z" fill="#938152"/>
<path d="M20.9451 17.4648V22.9247C22.2222 22.9247 23.5951 23.1481 25 23.1481C26.4048 23.1481 27.7778 23.1482 29.0549 22.9247V17.4648C27.7133 17.6739 26.3578 17.7806 25 17.7841C23.6422 17.7806 22.2867 17.6739 20.9451 17.4648Z" fill="#938152"/>
<path d="M19.189 22.6691V17.1454C17.9549 16.8706 16.7393 16.5188 15.5492 16.0918V21.9347C16.7478 22.2471 17.963 22.4923 19.189 22.6691V22.6691Z" fill="#938152"/>
<path d="M24.9681 50C18.3403 49.9916 11.9863 47.355 7.29975 42.6684C2.61317 37.9818 -0.0234729 31.6279 -0.0319214 25.0001C-0.0234729 18.3722 2.61317 12.0183 7.29975 7.33172C11.9863 2.64514 18.3403 0.00844847 24.9681 0C31.5959 0.00844847 37.9498 2.64514 42.6364 7.33172C47.323 12.0183 49.9596 18.3722 49.9681 25.0001C49.9596 31.6279 47.323 37.9818 42.6364 42.6684C37.9498 47.355 31.5959 49.9916 24.9681 50ZM24.9681 0.925953C18.5858 0.934401 12.4674 3.47347 7.95449 7.98641C3.44155 12.4993 0.90248 18.6178 0.894032 25.0001C0.90248 31.3823 3.44155 37.5007 7.95449 42.0136C12.4674 46.5265 18.5858 49.0656 24.9681 49.0741C31.3448 49.0572 37.455 46.5144 41.9611 42.0024C46.4671 37.4904 49.0018 31.3768 49.0102 25.0001C49.0102 18.6207 46.4782 12.5022 41.9704 7.98836C37.4625 3.47451 31.3474 0.934414 24.9681 0.925953V0.925953Z" fill="#938152"/>
<path d="M36.175 23.2758V40.8365H34.5466V23.627C33.4291 23.9143 32.2159 24.1379 30.8749 24.3614V39.1123H29.1507V24.5529C27.7647 24.7478 26.3676 24.8545 24.9681 24.8722C23.6131 24.8809 22.2589 24.8063 20.9131 24.6487V39.2081H19.1571V24.4571C17.848 24.2336 16.6347 24.0102 15.5172 23.7228V40.8365H13.7931V23.2758C12.3244 22.8607 11.175 22.4776 10.3767 22.1583V41.8582C14.4419 45.3346 19.6191 47.2378 24.9681 47.2222C30.3293 47.2112 35.5079 45.2735 39.5594 41.7624V22.0625C38.7931 22.4776 37.7395 22.8607 36.175 23.2758Z" fill="#938152"/>
</svg>
