<svg width="294" height="50" viewBox="0 0 294 50" fill="none" xmlns="http://www.w3.org/2000/svg">
<g clip-path="url(#clip0_434_1169)">
<path d="M152.012 46.7114C152.203 46.9349 152.267 46.9669 152.65 47.35C152.927 47.6138 153.268 47.8008 153.64 47.8927C153.702 47.9005 153.759 47.9309 153.8 47.978C153.841 48.0251 153.864 48.0857 153.863 48.1482V48.3398C153.428 48.3809 152.99 48.3809 152.554 48.3398C151.98 48.3398 151.884 48.3397 151.022 47.1903C150.16 46.0409 149.808 45.6896 148.052 43.4866L147.414 43.9656C147.414 45.1469 147.414 45.9451 147.414 46.6156C147.414 47.2861 147.414 47.5096 147.669 47.6373C147.925 47.7651 147.989 47.797 147.989 47.9566C147.989 48.1163 147.669 48.244 147.446 48.244C146.264 48.244 146.201 48.244 146.201 47.9566C146.201 47.6693 146.201 47.4138 146.201 47.318C146.201 47.2223 146.201 44.9553 146.201 43.1035C146.201 42.88 146.201 40.3895 146.201 39.9106C146.201 39.4317 146.201 39.3679 145.658 39.3679C145.115 39.3679 145.179 39.3678 145.179 39.1124C145.187 39.0249 145.227 38.9436 145.292 38.8845C145.357 38.8254 145.442 38.7927 145.53 38.7931H146.903C147.254 38.7931 147.414 38.7932 147.414 39.2721C147.414 39.751 147.414 39.9106 147.414 40.0064C147.414 40.1022 147.414 42.6245 147.414 43.1992C148.96 41.8996 150.402 40.4797 151.724 38.9528C151.884 38.9528 151.916 38.7612 152.363 38.7612H152.778C153.033 38.7612 153.257 38.7612 153.257 39.0166C153.257 39.272 153.257 39.2401 153.065 39.304L152.459 39.751L148.883 42.9439L152.012 46.7114Z" fill="white"/>
<path d="M156.354 38.9207C156.641 38.9207 156.96 38.9207 156.96 39.3996C156.96 39.8785 156.96 40.134 156.96 40.2617C156.96 40.3894 156.96 43.9015 156.96 44.5082C156.96 46.1684 156.96 47.701 159.419 47.701C161.877 47.701 162.197 45.5937 162.197 44.0931C162.197 42.5924 162.197 41.5388 162.197 40.134C162.197 40.134 162.197 39.3038 162.197 39.24C162.197 39.1761 162.197 38.8888 162.548 38.8888H163.346C163.57 38.8888 163.793 38.8888 163.793 39.24C163.795 39.298 163.777 39.3549 163.742 39.4013C163.707 39.4478 163.658 39.4809 163.602 39.4954C163.25 39.4954 163.218 39.7189 163.218 40.3575C163.218 40.9961 163.218 43.5503 163.218 44.1889C163.218 45.9449 163.218 48.4034 159.483 48.4034C155.747 48.4034 155.875 46.1365 155.875 44.5401V39.9744C155.875 39.6232 155.875 39.5273 155.46 39.5273C155.045 39.5273 154.949 39.5273 154.949 39.208C154.949 39.1633 154.958 39.119 154.976 39.078C154.994 39.0371 155.02 39.0003 155.053 38.9702C155.087 38.9401 155.126 38.9173 155.168 38.9032C155.211 38.8892 155.256 38.8843 155.3 38.8888L156.354 38.9207Z" fill="white"/>
<path d="M166.603 46.9985V47.222C166.603 47.5094 166.603 47.6371 166.826 47.7648C167.05 47.8926 167.146 47.9883 167.146 48.0841C167.146 48.1798 166.922 48.3714 166.347 48.3714C165.773 48.3714 165.421 48.3714 165.421 48.0841C165.421 47.7967 165.421 47.701 165.421 47.6691C165.421 46.7112 165.421 41.443 165.421 40.3255C165.427 40.2417 165.413 40.1578 165.383 40.0796C165.352 40.0015 165.305 39.931 165.244 39.8732C165.183 39.8153 165.11 39.7716 165.03 39.7449C164.951 39.7183 164.866 39.7093 164.783 39.7188C164.698 39.7188 164.617 39.6851 164.557 39.6253C164.497 39.5654 164.464 39.4842 164.464 39.3995C164.464 39.1122 164.687 39.0803 164.783 39.0483H166.986H168.167C169.732 39.0483 171.36 39.4953 171.36 41.2514C171.377 41.8982 171.139 42.5256 170.697 42.9978C170.255 43.47 169.644 43.7488 168.997 43.7738C169.668 44.7955 170.37 45.8171 171.137 46.775C171.436 47.2473 171.855 47.6327 172.35 47.8925C172.861 48.0841 172.925 48.148 172.925 48.2438C172.925 48.3395 171.839 48.5949 171.616 48.5949C171.392 48.5949 170.945 48.5949 170.594 48.0202C170.243 47.4455 168.678 45.2106 167.816 43.8696C167.381 43.917 166.942 43.917 166.507 43.8696L166.603 46.9985ZM166.603 43.0074C166.603 43.2309 166.954 43.231 167.273 43.231C168.423 43.231 170.243 43.2309 170.243 41.411C170.243 39.5911 168.678 39.4953 167.561 39.4953C166.443 39.4953 166.603 39.4954 166.603 39.8785V43.0074Z" fill="white"/>
<path d="M176.118 44.9871C175.894 45.5618 174.84 48.18 174.808 48.18C174.777 48.18 174.808 48.3397 174.234 48.3397C173.659 48.3397 173.787 48.3397 173.787 48.1481C173.825 47.964 173.901 47.79 174.01 47.6372C175.239 45.0019 176.306 42.2935 177.203 39.5274C177.395 38.8569 177.49 38.5376 178.161 38.5376C178.831 38.5376 178.576 38.5376 178.799 39.24C179.438 40.8684 180.428 43.4865 181.13 45.1149C181.13 45.4661 182.024 47.3179 182.12 47.4137C182.242 47.5961 182.422 47.7313 182.631 47.7968C182.653 47.8357 182.665 47.8797 182.665 47.9246C182.665 47.9694 182.653 48.0135 182.631 48.0523C182.631 48.2758 182.376 48.2757 182.28 48.2757H181.418C181.365 48.2802 181.311 48.2736 181.261 48.2564C181.211 48.2391 181.165 48.2115 181.126 48.1755C181.087 48.1395 181.056 48.0958 181.034 48.0471C181.013 47.9984 181.002 47.9457 181.003 47.8926C180.683 46.9348 180.651 46.839 179.917 44.8913L176.118 44.9871ZM178.065 40.0382L176.373 44.3486H179.566L178.065 40.0382Z" fill="white"/>
<path d="M185.951 38.921C186.43 38.921 186.622 38.921 186.782 39.2722C186.941 39.6234 189.527 45.2748 189.974 46.073L192.88 39.336C193.04 38.9848 193.103 38.921 193.55 38.921H195.051C195.243 38.921 195.37 38.9209 195.37 39.2083C195.37 39.4957 195.37 39.4956 194.764 39.4956C194.157 39.4956 194.444 39.6554 194.444 39.9746C194.444 40.9644 194.444 45.9772 194.444 47.1266C194.444 47.414 194.444 47.6375 194.732 47.7652C195.019 47.8929 195.115 47.9248 195.115 48.0844C195.115 48.2441 194.86 48.4037 194.572 48.4037H193.71C193.423 48.4037 193.263 48.4037 193.263 47.9886C193.247 47.7867 193.247 47.5839 193.263 47.382V40.0385L191.188 44.8916L190.517 46.5199C190.517 46.7115 190.198 47.3181 190.134 47.382C189.953 47.4987 189.743 47.5648 189.527 47.5735C189.442 47.5711 189.359 47.5422 189.29 47.4907C189.222 47.4393 189.171 47.3678 189.144 47.2862C188.953 46.9669 187.101 42.6885 186.718 41.8265L186.207 40.7089C185.888 39.9746 185.856 39.9108 185.792 39.8469V48.0206C185.792 48.3399 185.792 48.4995 185.121 48.4995C184.451 48.4995 184.802 48.4995 184.802 48.1483C184.802 47.7971 184.802 46.0091 184.802 45.594C184.802 44.4765 184.802 42.4012 184.802 40.262C184.802 39.6873 184.802 39.5276 184.291 39.5276C183.78 39.5276 183.748 39.5276 183.748 39.2403C183.743 39.1971 183.748 39.1533 183.762 39.1122C183.776 39.0712 183.8 39.0338 183.831 39.0031C183.861 38.9724 183.899 38.949 183.94 38.9348C183.981 38.9206 184.025 38.9158 184.068 38.921H185.951Z" fill="white"/>
<path d="M198.755 44.9871L197.446 48.18C197.446 48.18 197.446 48.3397 196.871 48.3397C196.296 48.3397 196.424 48.3397 196.424 48.1481C196.462 47.964 196.538 47.79 196.648 47.6372C197.887 45.0064 198.954 42.2973 199.84 39.5274C200.064 38.8569 200.16 38.5376 200.83 38.5376C201.501 38.5376 201.245 38.5376 201.469 39.24C202.107 40.8684 203.097 43.4865 203.768 45.1149C203.927 45.4661 204.694 47.3179 204.789 47.4137C204.904 47.5889 205.072 47.7231 205.268 47.7968C205.268 47.7968 205.428 47.7969 205.428 48.0523C205.428 48.3077 205.172 48.2757 205.109 48.2757H203.927C203.819 48.2769 203.714 48.2386 203.632 48.1682C203.55 48.0977 203.496 47.9998 203.48 47.8926C203.193 46.9348 203.161 46.839 202.427 44.8913L198.755 44.9871ZM200.702 40.0382L199.01 44.3486H202.203L200.702 40.0382Z" fill="white"/>
<path d="M208.94 43.1356H211.079C211.624 43.1498 212.16 42.9935 212.612 42.6885H212.835C212.853 42.9117 212.853 43.136 212.835 43.3591C212.835 43.6465 212.835 43.838 212.42 43.838H211.814C211.398 43.838 210.026 43.838 209.77 43.838C209.515 43.838 208.653 43.838 208.653 44.285V47.4778C208.653 47.829 208.653 47.9249 210.473 47.9249C211.75 47.9249 212.803 47.9249 213.665 46.3604C213.665 46.073 213.665 46.0411 213.985 46.0411C214.011 46.035 214.039 46.0357 214.065 46.0431C214.091 46.0506 214.114 46.0645 214.134 46.0837C214.153 46.1028 214.167 46.1266 214.174 46.1527C214.182 46.1787 214.182 46.2063 214.176 46.2327C214.146 46.9314 214.006 47.621 213.761 48.276C213.761 48.4676 213.506 48.4677 212.548 48.4677H208.046C207.791 48.4677 207.439 48.4676 207.439 47.9887C207.439 47.5098 207.439 47.2544 207.439 47.1267C207.439 45.8495 207.439 44.4127 207.439 43.1356C207.439 42.6886 207.439 40.6133 207.439 40.262C207.429 40.1488 207.383 40.0416 207.309 39.9557C207.234 39.8698 207.135 39.8094 207.024 39.7831C206.545 39.7831 206.418 39.7831 206.418 39.4319C206.418 39.0807 206.418 39.1126 206.833 39.1126H210.026H212.931C213.25 39.1126 213.282 39.1126 213.378 39.5596C213.458 39.96 213.512 40.3654 213.538 40.7729C213.542 40.809 213.539 40.8457 213.528 40.8805C213.517 40.9153 213.499 40.9473 213.475 40.9745C213.451 41.0017 213.421 41.0235 213.388 41.0382C213.355 41.053 213.319 41.0605 213.282 41.0603C213.091 41.0603 213.059 41.0603 212.867 40.6771C212.261 39.7193 211.814 39.7192 209.674 39.7192C208.94 39.7192 208.429 39.7192 208.429 40.1023V43.2952L208.94 43.1356Z" fill="white"/>
<path d="M30.7791 22.6691C32.0156 22.4921 33.2414 22.2469 34.4508 21.9347V16.0918C33.2497 16.5181 32.0235 16.8699 30.7791 17.1454V22.6691Z" fill="#938152"/>
<path d="M29.0549 10.3447C27.7408 10.7506 26.3752 10.9656 25 10.9832C23.6245 10.9682 22.2586 10.7532 20.9451 10.3447V15.7087C22.2856 15.9304 23.6413 16.0478 25 16.0599C26.3586 16.0464 27.7142 15.929 29.0549 15.7087V10.3447Z" fill="#938152"/>
<path d="M8.68451 19.5403L9.89781 20.0831C11.1728 20.633 12.4851 21.0918 13.825 21.456V13.4739L15.0383 14.0486C16.3842 14.5965 17.7723 15.0344 19.189 15.3577V7.75878L20.4342 8.33347C21.8886 8.9085 23.4361 9.21152 25 9.22746C26.5678 9.22074 28.1191 8.90612 29.5658 8.30151L30.7791 7.75878V15.2939C32.2052 14.9671 33.6037 14.5294 34.9617 13.9848L36.1749 13.4101V21.3922C37.5127 21.0211 38.8246 20.5625 40.1022 20.0193L41.3154 19.4765V40.1342C45.1779 35.9913 47.3233 30.5365 47.318 24.8724C47.318 18.9448 44.9633 13.2601 40.7719 9.06864C36.5804 4.87721 30.8956 2.52246 24.9681 2.52246C19.0405 2.52246 13.3557 4.87721 9.16425 9.06864C4.97282 13.2601 2.61812 18.9448 2.61812 24.8724C2.60654 30.5187 4.75399 35.9558 8.62069 40.0704L8.68451 19.5403Z" fill="#938152"/>
<path d="M20.9451 17.4648V22.9247C22.2222 22.9247 23.5951 23.1481 25 23.1481C26.4048 23.1481 27.7778 23.1482 29.0549 22.9247V17.4648C27.7133 17.6739 26.3578 17.7806 25 17.7841C23.6422 17.7806 22.2867 17.6739 20.9451 17.4648Z" fill="#938152"/>
<path d="M19.189 22.6691V17.1454C17.9549 16.8706 16.7393 16.5188 15.5492 16.0918V21.9347C16.7478 22.2471 17.963 22.4923 19.189 22.6691Z" fill="#938152"/>
<path d="M24.9681 50C18.3403 49.9916 11.9863 47.355 7.29975 42.6684C2.61317 37.9818 -0.0234729 31.6279 -0.0319214 25.0001C-0.0234729 18.3722 2.61317 12.0183 7.29975 7.33172C11.9863 2.64514 18.3403 0.00844847 24.9681 0C31.5959 0.00844847 37.9498 2.64514 42.6364 7.33172C47.323 12.0183 49.9596 18.3722 49.9681 25.0001C49.9596 31.6279 47.323 37.9818 42.6364 42.6684C37.9498 47.355 31.5959 49.9916 24.9681 50ZM24.9681 0.925953C18.5858 0.934401 12.4674 3.47347 7.95449 7.98641C3.44155 12.4993 0.90248 18.6178 0.894032 25.0001C0.90248 31.3823 3.44155 37.5007 7.95449 42.0136C12.4674 46.5265 18.5858 49.0656 24.9681 49.0741C31.3448 49.0572 37.455 46.5144 41.9611 42.0024C46.4671 37.4904 49.0018 31.3768 49.0102 25.0001C49.0102 18.6207 46.4782 12.5022 41.9704 7.98836C37.4625 3.47451 31.3474 0.934414 24.9681 0.925953Z" fill="#938152"/>
<path d="M36.175 23.2758V40.8365H34.5466V23.627C33.4291 23.9143 32.2159 24.1379 30.8749 24.3614V39.1123H29.1507V24.5529C27.7647 24.7478 26.3676 24.8545 24.9681 24.8722C23.6131 24.8809 22.2589 24.8063 20.9131 24.6487V39.2081H19.1571V24.4571C17.848 24.2336 16.6347 24.0102 15.5172 23.7228V40.8365H13.7931V23.2758C12.3244 22.8607 11.175 22.4776 10.3767 22.1583V41.8582C14.4419 45.3346 19.6191 47.2378 24.9681 47.2222C30.3293 47.2112 35.5079 45.2735 39.5594 41.7624V22.0625C38.7931 22.4776 37.7395 22.8607 36.175 23.2758Z" fill="#938152"/>
<path d="M187.612 11.4305H195.626V31.9925H197.701V11.4305H205.651V9.32324H187.612V11.4305Z" fill="white"/>
<path d="M249.042 9.32324H246.871V31.9925H264.911V29.9171H249.042V9.32324Z" fill="white"/>
<path d="M286.558 11.3348H293.263V9.32324H286.558C283.735 9.32835 281.017 10.3895 278.937 12.298C276.857 14.2065 275.566 16.8241 275.319 19.6361H272.733V21.6795H275.319C275.566 24.4915 276.857 27.1092 278.937 29.0177C281.017 30.9262 283.735 31.9874 286.558 31.9925H293.263V29.981H286.558C284.245 30.01 282.005 29.1753 280.275 27.64C278.545 26.1048 277.449 23.9795 277.203 21.6795H291.347V19.6361H277.203C277.449 17.3362 278.545 15.2108 280.275 13.6756C282.005 12.1404 284.245 11.3057 286.558 11.3348Z" fill="white"/>
<path d="M232.248 9.32324C232.056 9.48288 231.29 10.5046 225.511 18.5825L225.223 18.9656L224.936 18.5825C219.189 10.5046 218.55 9.48288 218.231 9.32324H215.741L224.138 21.0409V31.9925H226.309V21.0409L234.706 9.32324H232.248Z" fill="white"/>
<path d="M136.303 32.2157C133.998 32.2849 131.76 31.4416 130.074 29.8691C128.388 28.2967 127.39 26.1223 127.299 23.8186V17.4329C127.39 15.1292 128.388 12.9548 130.074 11.3823C131.76 9.80987 133.998 8.96658 136.303 9.03572C138.613 8.95799 140.859 9.79747 142.552 11.3708C144.245 12.9442 145.247 15.1235 145.338 17.4329V23.8186C145.247 26.128 144.245 28.3073 142.552 29.8806C140.859 31.454 138.613 32.2935 136.303 32.2157ZM136.303 11.2068C135.434 11.1727 134.566 11.3113 133.751 11.6146C132.936 11.9179 132.189 12.3798 131.554 12.9737C130.918 13.5676 130.407 14.2816 130.049 15.0744C129.691 15.8673 129.495 16.7231 129.47 17.5925V23.9782C129.495 24.8476 129.691 25.7035 130.049 26.4963C130.407 27.2891 130.918 28.0032 131.554 28.5971C132.189 29.191 132.936 29.6529 133.751 29.9561C134.566 30.2594 135.434 30.398 136.303 30.3639C137.174 30.4024 138.045 30.267 138.864 29.9657C139.683 29.6644 140.434 29.2032 141.072 28.6089C141.711 28.0146 142.226 27.299 142.585 26.504C142.945 25.709 143.143 24.8504 143.167 23.9782V17.5925C143.143 16.7203 142.945 15.8617 142.585 15.0667C142.226 14.2717 141.711 13.5562 141.072 12.9619C140.434 12.3676 139.683 11.9064 138.864 11.6051C138.045 11.3037 137.174 11.1684 136.303 11.2068Z" fill="white"/>
<path d="M164.464 11.3983H176.181V9.29102H164.464C162.803 9.29027 161.207 9.93671 160.015 11.0931C158.822 12.2496 158.128 13.825 158.078 15.4851C158.094 17.0002 158.649 18.4601 159.642 19.604C160.228 20.244 160.937 20.758 161.728 21.1148C162.518 21.4716 163.373 21.6637 164.24 21.6793H169.86C170.944 21.6875 171.982 22.1198 172.752 22.8835C173.521 23.6473 173.962 24.6819 173.978 25.7661C173.962 26.8673 173.515 27.9182 172.733 28.6939C171.951 29.4697 170.897 29.9086 169.796 29.9168H158.078V31.9922H169.796C171.489 31.9922 173.113 31.3194 174.311 30.1219C175.509 28.9243 176.181 27.3001 176.181 25.6065C176.183 24.0976 175.626 22.6415 174.617 21.5197C174.032 20.8797 173.322 20.3655 172.532 20.0087C171.741 19.6519 170.886 19.4598 170.019 19.4442H164.432C163.339 19.436 162.293 19.0005 161.517 18.2308C160.741 17.461 160.298 16.4182 160.281 15.3255C160.338 14.2584 160.805 13.2545 161.585 12.5229C162.364 11.7914 163.395 11.3885 164.464 11.3983Z" fill="white"/>
<path d="M70.5938 32.0242H68.4866V21.6794H65.9004V19.5721H68.4866V9.19531H80.332C81.9983 9.19479 83.5988 9.84559 84.7919 11.0088C85.985 12.1721 86.6761 13.7556 86.7177 15.4214C86.7177 17.115 86.045 18.7392 84.8474 19.9368C83.6499 21.1343 82.0256 21.8071 80.332 21.8071H70.5938V32.0242ZM70.5938 19.6998H80.332C80.8771 19.6998 81.4169 19.5924 81.9205 19.3838C82.424 19.1752 82.8816 18.8695 83.267 18.4841C83.6524 18.0986 83.9582 17.6411 84.1668 17.1375C84.3754 16.6339 84.4827 16.0941 84.4827 15.549C84.4827 15.004 84.3754 14.4643 84.1668 13.9607C83.9582 13.4571 83.6524 12.9995 83.267 12.6141C82.8816 12.2287 82.424 11.923 81.9205 11.7144C81.4169 11.5058 80.8771 11.3984 80.332 11.3984H70.5938V19.6998Z" fill="white"/>
<path d="M116.315 31.2578L110.856 21.6793C112.317 21.4275 113.646 20.6748 114.613 19.5504C115.58 18.4259 116.125 16.9999 116.156 15.5171C116.115 13.8786 115.446 12.3183 114.287 11.1594C113.128 10.0004 111.568 9.33149 109.93 9.29102H98.0843V19.6678H95.4981V21.6793H98.0843V31.8964H100.16V21.6793H108.493L114.464 32.0241L116.315 31.2578ZM100.16 11.4303H109.93C111.028 11.4386 112.079 11.8786 112.856 12.6552C113.632 13.4318 114.072 14.4827 114.08 15.5809C114.08 16.6818 113.643 17.7375 112.865 18.516C112.086 19.2944 111.031 19.7317 109.93 19.7317H100.16V11.4303Z" fill="white"/>
</g>
<defs>
<clipPath id="clip0_434_1169">
<rect width="293.263" height="50" fill="white"/>
</clipPath>
</defs>
</svg>
