<?xml version="1.0" encoding="utf-8"?>
<!-- Generator: Adobe Illustrator 26.3.1, SVG Export Plug-In . SVG Version: 6.00 Build 0)  -->
<svg version="1.1" id="Layer_1" xmlns="http://www.w3.org/2000/svg" xmlns:xlink="http://www.w3.org/1999/xlink" x="0px" y="0px"
	 viewBox="0 0 294 50" style="enable-background:new 0 0 294 50;" xml:space="preserve">
<style type="text/css">
	.st0{clip-path:url(#SVGID_00000077315822194469950290000007448372272265937061_);}
	.st1{fill:#231F20;}
	.st2{fill:#938152;}
</style>
<g>
	<defs>
		<rect id="SVGID_1_" y="0" width="293.3" height="50"/>
	</defs>
	<clipPath id="SVGID_00000139991481588290628120000002282415521432894848_">
		<use xlink:href="#SVGID_1_"  style="overflow:visible;"/>
	</clipPath>
	<g style="clip-path:url(#SVGID_00000139991481588290628120000002282415521432894848_);">
		<path class="st1" d="M152,46.7c0.2,0.2,0.3,0.3,0.6,0.6c0.3,0.3,0.6,0.5,1,0.5c0.1,0,0.1,0,0.2,0.1s0.1,0.1,0.1,0.2v0.2
			c-0.4,0-0.9,0-1.3,0c-0.6,0-0.7,0-1.5-1.1s-1.2-1.5-3-3.7l-0.6,0.5c0,1.2,0,2,0,2.7c0,0.7,0,0.9,0.3,1c0.3,0.1,0.3,0.2,0.3,0.3
			c0,0.2-0.3,0.3-0.5,0.3c-1.2,0-1.2,0-1.2-0.3c0-0.3,0-0.5,0-0.6c0-0.1,0-2.4,0-4.2c0-0.2,0-2.7,0-3.2c0-0.5,0-0.5-0.5-0.5
			s-0.5,0-0.5-0.3c0-0.1,0-0.2,0.1-0.2c0.1-0.1,0.1-0.1,0.2-0.1h1.4c0.4,0,0.5,0,0.5,0.5c0,0.5,0,0.6,0,0.7c0,0.1,0,2.6,0,3.2
			c1.5-1.3,3-2.7,4.3-4.2c0.2,0,0.2-0.2,0.6-0.2h0.4c0.3,0,0.5,0,0.5,0.3c0,0.3,0,0.2-0.2,0.3l-0.6,0.4l-3.6,3.2L152,46.7z"/>
		<path class="st1" d="M156.4,38.9c0.3,0,0.6,0,0.6,0.5s0,0.7,0,0.9s0,3.6,0,4.2c0,1.7,0,3.2,2.5,3.2c2.5,0,2.8-2.1,2.8-3.6
			c0-1.5,0-2.6,0-4c0,0,0-0.8,0-0.9c0-0.1,0-0.4,0.4-0.4h0.8c0.2,0,0.4,0,0.4,0.4c0,0.1,0,0.1-0.1,0.2c0,0-0.1,0.1-0.1,0.1
			c-0.4,0-0.4,0.2-0.4,0.9c0,0.6,0,3.2,0,3.8c0,1.8,0,4.2-3.7,4.2c-3.7,0-3.6-2.3-3.6-3.9V40c0-0.4,0-0.4-0.4-0.4
			c-0.4,0-0.5,0-0.5-0.3c0,0,0-0.1,0-0.1c0,0,0-0.1,0.1-0.1c0,0,0.1-0.1,0.1-0.1c0,0,0.1,0,0.1,0L156.4,38.9z"/>
		<path class="st1" d="M166.6,47v0.2c0,0.3,0,0.4,0.2,0.5c0.2,0.1,0.3,0.2,0.3,0.3c0,0.1-0.2,0.3-0.8,0.3c-0.6,0-0.9,0-0.9-0.3
			c0-0.3,0-0.4,0-0.4c0-1,0-6.2,0-7.3c0-0.1,0-0.2,0-0.2c0-0.1-0.1-0.1-0.1-0.2c-0.1-0.1-0.1-0.1-0.2-0.1c-0.1,0-0.2,0-0.2,0
			c-0.1,0-0.2,0-0.2-0.1c-0.1-0.1-0.1-0.1-0.1-0.2c0-0.3,0.2-0.3,0.3-0.4h2.2h1.2c1.6,0,3.2,0.4,3.2,2.2c0,0.6-0.2,1.3-0.7,1.7
			c-0.4,0.5-1.1,0.8-1.7,0.8c0.7,1,1.4,2,2.1,3c0.3,0.5,0.7,0.9,1.2,1.1c0.5,0.2,0.6,0.3,0.6,0.4c0,0.1-1.1,0.4-1.3,0.4
			c-0.2,0-0.7,0-1-0.6c-0.4-0.6-1.9-2.8-2.8-4.2c-0.4,0-0.9,0-1.3,0L166.6,47z M166.6,43c0,0.2,0.4,0.2,0.7,0.2c1.2,0,3,0,3-1.8
			s-1.6-1.9-2.7-1.9c-1.1,0-1,0-1,0.4V43z"/>
		<path class="st1" d="M176.1,45c-0.2,0.6-1.3,3.2-1.3,3.2c0,0,0,0.2-0.6,0.2c-0.6,0-0.4,0-0.4-0.2c0-0.2,0.1-0.4,0.2-0.5
			c1.2-2.6,2.3-5.3,3.2-8.1c0.2-0.7,0.3-1,1-1c0.7,0,0.4,0,0.6,0.7c0.6,1.6,1.6,4.2,2.3,5.9c0,0.4,0.9,2.2,1,2.3
			c0.1,0.2,0.3,0.3,0.5,0.4c0,0,0,0.1,0,0.1c0,0,0,0.1,0,0.1c0,0.2-0.3,0.2-0.4,0.2h-0.9c-0.1,0-0.1,0-0.2,0c-0.1,0-0.1,0-0.1-0.1
			c0,0-0.1-0.1-0.1-0.1c0,0,0-0.1,0-0.2c-0.3-1-0.4-1.1-1.1-3L176.1,45z M178.1,40l-1.7,4.3h3.2L178.1,40z"/>
		<path class="st1" d="M186,38.9c0.5,0,0.7,0,0.8,0.4c0.2,0.4,2.7,6,3.2,6.8l2.9-6.7c0.2-0.4,0.2-0.4,0.7-0.4h1.5
			c0.2,0,0.3,0,0.3,0.3c0,0.3,0,0.3-0.6,0.3c-0.6,0-0.3,0.2-0.3,0.5c0,1,0,6,0,7.2c0,0.3,0,0.5,0.3,0.6c0.3,0.1,0.4,0.2,0.4,0.3
			c0,0.2-0.3,0.3-0.5,0.3h-0.9c-0.3,0-0.4,0-0.4-0.4c0-0.2,0-0.4,0-0.6V40l-2.1,4.9l-0.7,1.6c0,0.2-0.3,0.8-0.4,0.9
			c-0.2,0.1-0.4,0.2-0.6,0.2c-0.1,0-0.2,0-0.2-0.1c-0.1-0.1-0.1-0.1-0.1-0.2c-0.2-0.3-2-4.6-2.4-5.5l-0.5-1.1
			c-0.3-0.7-0.4-0.8-0.4-0.9V48c0,0.3,0,0.5-0.7,0.5c-0.7,0-0.3,0-0.3-0.4s0-2.1,0-2.6c0-1.1,0-3.2,0-5.3c0-0.6,0-0.7-0.5-0.7
			s-0.5,0-0.5-0.3c0,0,0-0.1,0-0.1c0,0,0-0.1,0.1-0.1c0,0,0.1-0.1,0.1-0.1c0,0,0.1,0,0.1,0H186z"/>
		<path class="st1" d="M198.8,45l-1.3,3.2c0,0,0,0.2-0.6,0.2s-0.4,0-0.4-0.2c0-0.2,0.1-0.4,0.2-0.5c1.2-2.6,2.3-5.3,3.2-8.1
			c0.2-0.7,0.3-1,1-1c0.7,0,0.4,0,0.6,0.7c0.6,1.6,1.6,4.2,2.3,5.9c0.2,0.4,0.9,2.2,1,2.3c0.1,0.2,0.3,0.3,0.5,0.4
			c0,0,0.2,0,0.2,0.3c0,0.3-0.3,0.2-0.3,0.2h-1.2c-0.1,0-0.2,0-0.3-0.1c-0.1-0.1-0.1-0.2-0.2-0.3c-0.3-1-0.3-1.1-1.1-3L198.8,45z
			 M200.7,40l-1.7,4.3h3.2L200.7,40z"/>
		<path class="st1" d="M208.9,43.1h2.1c0.5,0,1.1-0.1,1.5-0.4h0.2c0,0.2,0,0.4,0,0.7c0,0.3,0,0.5-0.4,0.5h-0.6c-0.4,0-1.8,0-2,0
			c-0.3,0-1.1,0-1.1,0.4v3.2c0,0.4,0,0.4,1.8,0.4c1.3,0,2.3,0,3.2-1.6c0-0.3,0-0.3,0.3-0.3c0,0,0.1,0,0.1,0c0,0,0,0,0.1,0
			c0,0,0,0,0,0.1c0,0,0,0.1,0,0.1c0,0.7-0.2,1.4-0.4,2c0,0.2-0.3,0.2-1.2,0.2H208c-0.3,0-0.6,0-0.6-0.5s0-0.7,0-0.9c0-1.3,0-2.7,0-4
			c0-0.4,0-2.5,0-2.9c0-0.1-0.1-0.2-0.1-0.3c-0.1-0.1-0.2-0.1-0.3-0.2c-0.5,0-0.6,0-0.6-0.4s0-0.3,0.4-0.3h3.2h2.9
			c0.3,0,0.4,0,0.4,0.4c0.1,0.4,0.1,0.8,0.2,1.2c0,0,0,0.1,0,0.1c0,0,0,0.1-0.1,0.1c0,0-0.1,0-0.1,0.1c0,0-0.1,0-0.1,0
			c-0.2,0-0.2,0-0.4-0.4c-0.6-1-1.1-1-3.2-1c-0.7,0-1.2,0-1.2,0.4v3.2L208.9,43.1z"/>
		<path class="st2" d="M30.8,22.7c1.2-0.2,2.5-0.4,3.7-0.7v-5.8c-1.2,0.4-2.4,0.8-3.7,1.1V22.7z"/>
		<path class="st2" d="M29.1,10.3C27.7,10.8,26.4,11,25,11c-1.4,0-2.7-0.2-4.1-0.6v5.4c1.3,0.2,2.7,0.3,4.1,0.4
			c1.4,0,2.7-0.1,4.1-0.4V10.3z"/>
		<path class="st2" d="M8.7,19.5l1.2,0.5c1.3,0.5,2.6,1,3.9,1.4v-8L15,14c1.3,0.5,2.7,1,4.2,1.3V7.8l1.2,0.6c1.5,0.6,3,0.9,4.6,0.9
			c1.6,0,3.1-0.3,4.6-0.9l1.2-0.5v7.5c1.4-0.3,2.8-0.8,4.2-1.3l1.2-0.6v8c1.3-0.4,2.6-0.8,3.9-1.4l1.2-0.5v20.7
			c3.9-4.1,6-9.6,6-15.3c0-5.9-2.4-11.6-6.5-15.8C36.6,4.9,30.9,2.5,25,2.5C19,2.5,13.4,4.9,9.2,9.1C5,13.3,2.6,18.9,2.6,24.9
			c0,5.6,2.1,11.1,6,15.2L8.7,19.5z"/>
		<path class="st2" d="M20.9,17.5v5.5c1.3,0,2.6,0.2,4.1,0.2c1.4,0,2.8,0,4.1-0.2v-5.5c-1.3,0.2-2.7,0.3-4.1,0.3
			C23.6,17.8,22.3,17.7,20.9,17.5z"/>
		<path class="st2" d="M19.2,22.7v-5.5c-1.2-0.3-2.4-0.6-3.6-1.1v5.8C16.7,22.2,18,22.5,19.2,22.7z"/>
		<path class="st2" d="M25,50c-6.6,0-13-2.6-17.7-7.3C2.6,38,0,31.6,0,25c0-6.6,2.6-13,7.3-17.7C12,2.6,18.3,0,25,0
			c6.6,0,13,2.6,17.7,7.3S50,18.4,50,25c0,6.6-2.6,13-7.3,17.7S31.6,50,25,50z M25,0.9C18.6,0.9,12.5,3.5,8,8
			c-4.5,4.5-7.1,10.6-7.1,17c0,6.4,2.5,12.5,7.1,17c4.5,4.5,10.6,7.1,17,7.1c6.4,0,12.5-2.6,17-7.1c4.5-4.5,7-10.6,7-17
			c0-6.4-2.5-12.5-7-17C37.5,3.5,31.3,0.9,25,0.9z"/>
		<path class="st2" d="M36.2,23.3v17.6h-1.6V23.6c-1.1,0.3-2.3,0.5-3.7,0.7v14.8h-1.7V24.6c-1.4,0.2-2.8,0.3-4.2,0.3
			c-1.4,0-2.7-0.1-4.1-0.2v14.6h-1.8V24.5c-1.3-0.2-2.5-0.4-3.6-0.7v17.1h-1.7V23.3c-1.5-0.4-2.6-0.8-3.4-1.1v19.7
			c4.1,3.5,9.2,5.4,14.6,5.4c5.4,0,10.5-1.9,14.6-5.5V22.1C38.8,22.5,37.7,22.9,36.2,23.3z"/>
		<path class="st1" d="M187.6,11.4h8V32h2.1V11.4h7.9V9.3h-18V11.4z"/>
		<path class="st1" d="M249,9.3h-2.2V32h18v-2.1H249V9.3z"/>
		<path class="st1" d="M286.6,11.3h6.7v-2h-6.7c-2.8,0-5.5,1.1-7.6,3c-2.1,1.9-3.4,4.5-3.6,7.3h-2.6v2h2.6c0.2,2.8,1.5,5.4,3.6,7.3
			c2.1,1.9,4.8,3,7.6,3h6.7v-2h-6.7c-2.3,0-4.6-0.8-6.3-2.3c-1.7-1.5-2.8-3.7-3.1-6h14.1v-2h-14.1c0.2-2.3,1.3-4.4,3.1-6
			C282,12.1,284.2,11.3,286.6,11.3z"/>
		<path class="st1" d="M232.2,9.3c-0.2,0.2-1,1.2-6.7,9.3l-0.3,0.4l-0.3-0.4c-5.7-8.1-6.4-9.1-6.7-9.3h-2.5l8.4,11.7v11h2.2V21
			l8.4-11.7H232.2z"/>
		<path class="st1" d="M136.3,32.2c-2.3,0.1-4.5-0.8-6.2-2.3c-1.7-1.6-2.7-3.7-2.8-6.1v-6.4c0.1-2.3,1.1-4.5,2.8-6.1
			c1.7-1.6,3.9-2.4,6.2-2.3c2.3-0.1,4.6,0.8,6.2,2.3c1.7,1.6,2.7,3.8,2.8,6.1v6.4c-0.1,2.3-1.1,4.5-2.8,6.1
			C140.9,31.5,138.6,32.3,136.3,32.2z M136.3,11.2c-0.9,0-1.7,0.1-2.6,0.4c-0.8,0.3-1.6,0.8-2.2,1.4c-0.6,0.6-1.1,1.3-1.5,2.1
			c-0.4,0.8-0.6,1.6-0.6,2.5V24c0,0.9,0.2,1.7,0.6,2.5c0.4,0.8,0.9,1.5,1.5,2.1c0.6,0.6,1.4,1.1,2.2,1.4c0.8,0.3,1.7,0.4,2.6,0.4
			c0.9,0,1.7-0.1,2.6-0.4s1.6-0.8,2.2-1.4c0.6-0.6,1.2-1.3,1.5-2.1c0.4-0.8,0.6-1.7,0.6-2.5v-6.4c0-0.9-0.2-1.7-0.6-2.5
			c-0.4-0.8-0.9-1.5-1.5-2.1c-0.6-0.6-1.4-1.1-2.2-1.4C138,11.3,137.2,11.2,136.3,11.2z"/>
		<path class="st1" d="M164.5,11.4h11.7V9.3h-11.7c-1.7,0-3.3,0.6-4.4,1.8c-1.2,1.2-1.9,2.7-1.9,4.4c0,1.5,0.6,3,1.6,4.1
			c0.6,0.6,1.3,1.2,2.1,1.5c0.8,0.4,1.6,0.5,2.5,0.6h5.6c1.1,0,2.1,0.4,2.9,1.2c0.8,0.8,1.2,1.8,1.2,2.9c0,1.1-0.5,2.2-1.2,2.9
			c-0.8,0.8-1.8,1.2-2.9,1.2h-11.7V32h11.7c1.7,0,3.3-0.7,4.5-1.9c1.2-1.2,1.9-2.8,1.9-4.5c0-1.5-0.6-3-1.6-4.1
			c-0.6-0.6-1.3-1.2-2.1-1.5c-0.8-0.4-1.6-0.5-2.5-0.6h-5.6c-1.1,0-2.1-0.4-2.9-1.2c-0.8-0.8-1.2-1.8-1.2-2.9
			c0.1-1.1,0.5-2.1,1.3-2.8C162.4,11.8,163.4,11.4,164.5,11.4z"/>
		<path class="st1" d="M70.6,32h-2.1V21.7h-2.6v-2.1h2.6V9.2h11.8c1.7,0,3.3,0.7,4.5,1.8c1.2,1.2,1.9,2.7,1.9,4.4
			c0,1.7-0.7,3.3-1.9,4.5c-1.2,1.2-2.8,1.9-4.5,1.9h-9.7V32z M70.6,19.7h9.7c0.5,0,1.1-0.1,1.6-0.3c0.5-0.2,1-0.5,1.3-0.9
			c0.4-0.4,0.7-0.8,0.9-1.3c0.2-0.5,0.3-1,0.3-1.6c0-0.5-0.1-1.1-0.3-1.6c-0.2-0.5-0.5-1-0.9-1.3c-0.4-0.4-0.8-0.7-1.3-0.9
			c-0.5-0.2-1-0.3-1.6-0.3h-9.7V19.7z"/>
		<path class="st1" d="M116.3,31.3l-5.5-9.6c1.5-0.3,2.8-1,3.8-2.1c1-1.1,1.5-2.6,1.5-4c0-1.6-0.7-3.2-1.9-4.4
			c-1.2-1.2-2.7-1.8-4.4-1.9H98.1v10.4h-2.6v2h2.6v10.2h2.1V21.7h8.3l6,10.3L116.3,31.3z M100.2,11.4h9.8c1.1,0,2.1,0.4,2.9,1.2
			c0.8,0.8,1.2,1.8,1.2,2.9c0,1.1-0.4,2.2-1.2,2.9c-0.8,0.8-1.8,1.2-2.9,1.2h-9.8V11.4z"/>
	</g>
</g>
</svg>
