<svg width="83" height="20" viewBox="0 0 83 20" fill="none" xmlns="http://www.w3.org/2000/svg">
<g clip-path="url(#clip0_5382_32200)">
<path d="M9.99998 12.0298L7.97902 10.0089L9.99998 7.98792L12.0209 10.0089L9.99998 12.0298ZM6.01794 11.9699C5.90433 12.0814 5.81408 12.2144 5.75248 12.3612C5.69087 12.508 5.65914 12.6656 5.65914 12.8247C5.65914 12.9839 5.69087 13.1415 5.75248 13.2883C5.81408 13.435 5.90433 13.568 6.01794 13.6795L7.18261 14.8442L9.20656 12.8233L7.18261 10.8023L6.01794 11.9699ZM6.01794 8.0478L7.18261 9.21247L13.8143 2.58073C12.8347 2.0747 11.7639 1.76934 10.6646 1.68253L6.01794 6.34121C5.90614 6.45249 5.81743 6.58476 5.7569 6.73043C5.69636 6.87609 5.6652 7.03228 5.6652 7.19002C5.6652 7.34776 5.69636 7.50395 5.7569 7.64961C5.81743 7.79527 5.90614 7.92753 6.01794 8.03881V8.0478ZM13.982 8.0478C14.0956 7.93631 14.1859 7.8033 14.2475 7.65653C14.3091 7.50977 14.3408 7.35217 14.3408 7.193C14.3408 7.03382 14.3091 6.87625 14.2475 6.72948C14.1859 6.58271 14.0956 6.4497 13.982 6.33821L12.8173 5.17056L10.7934 7.19152L12.8173 9.21247L13.982 8.0478ZM5.2365 14.464C4.80136 14.0264 4.55711 13.4344 4.55711 12.8173C4.55711 12.2001 4.80136 11.6081 5.2365 11.1706L6.40417 10.0029L5.2365 8.83523C4.80281 8.39688 4.55956 7.80515 4.55956 7.18852C4.55956 6.57189 4.80281 5.98015 5.2365 5.54181L9.06285 1.71845C7.38319 1.90956 5.80124 2.60649 4.52661 3.71693C3.25197 4.82738 2.34482 6.2989 1.92535 7.93653C1.50588 9.57415 1.59389 11.3006 2.17772 12.8871C2.76155 14.4735 3.81364 15.8452 5.19459 16.8202L6.39219 15.6226L5.2365 14.464ZM17.0898 17.0747C15.6905 18.4742 13.9076 19.4273 11.9666 19.8135C10.0256 20.1997 8.01364 20.0016 6.18521 19.2443C4.35678 18.487 2.79399 17.2046 1.69446 15.5591C0.594929 13.9135 0.00805664 11.9789 0.00805664 9.99988C0.00805664 8.02083 0.594929 6.08624 1.69446 4.44073C2.79399 2.79523 4.35678 1.51274 6.18521 0.755451C8.01364 -0.00184089 10.0256 -0.199934 11.9666 0.186253C13.9076 0.572439 15.6905 1.52556 17.0898 2.92505C18.0207 3.85355 18.759 4.95681 19.2622 6.17146C19.7655 7.38611 20.0239 8.68822 20.0225 10.003C20.0211 11.3178 19.76 12.6193 19.2541 13.8329C18.7483 15.0465 18.0077 16.1482 17.0748 17.0747H17.0898ZM16.6137 3.38912C15.3065 2.08324 13.6415 1.19421 11.8292 0.834431C10.0168 0.474648 8.13847 0.660249 6.43157 1.36778C4.72468 2.0753 3.26585 3.27301 2.23951 4.80946C1.21316 6.34592 0.665367 8.15216 0.665367 9.99988C0.665367 11.8476 1.21316 13.6539 2.23951 15.1903C3.26585 16.7268 4.72468 17.9245 6.43157 18.632C8.13847 19.3395 10.0168 19.5251 11.8292 19.1654C13.6415 18.8056 15.3065 17.9165 16.6137 16.6107C18.3653 14.8564 19.349 12.4788 19.349 9.99988C19.349 7.52095 18.3653 5.14334 16.6137 3.38912ZM15.9072 4.0957C15.5716 3.75704 15.2069 3.44847 14.8173 3.17354L13.6197 4.37114L14.7874 5.53582C15.2211 5.97416 15.4644 6.5659 15.4644 7.18253C15.4644 7.79915 15.2211 8.39089 14.7874 8.82923L13.6197 9.9969L14.7874 11.1646C15.2225 11.6021 15.4668 12.1942 15.4668 12.8113C15.4668 13.4284 15.2225 14.0204 14.7874 14.458L10.9521 18.2903C12.5122 18.1125 13.9906 17.4982 15.2172 16.5178C16.4438 15.5374 17.3688 14.2309 17.8861 12.7483C18.4033 11.2656 18.4917 9.66718 18.1411 8.13657C17.7905 6.60597 17.0152 5.20535 15.9042 4.0957H15.9072ZM13.985 11.961L12.8203 10.7933L6.18561 17.4191C7.16586 17.9236 8.23638 18.2289 9.33531 18.3173L13.982 13.6705C14.0956 13.5591 14.1859 13.426 14.2475 13.2793C14.3091 13.1325 14.3408 12.9749 14.3408 12.8158C14.3408 12.6566 14.3091 12.499 14.2475 12.3522C14.1859 12.2055 14.0956 12.0725 13.982 11.961H13.985Z" fill="white"/>
<path d="M15.018 10.3263H15.3653V10.4581H14.7366L15.0629 10.0658L15.1408 9.96404L15.1917 9.89218C15.2108 9.86145 15.2221 9.82651 15.2246 9.7904C15.2251 9.76984 15.2214 9.74939 15.2137 9.73033C15.2059 9.71127 15.1944 9.69401 15.1797 9.67962C15.1483 9.65194 15.1077 9.63699 15.0659 9.6377C14.9731 9.6377 14.9192 9.69159 14.9042 9.80536H14.7635C14.7875 9.60776 14.8863 9.50596 15.0629 9.50596C15.1417 9.5039 15.218 9.53295 15.2755 9.58681C15.3032 9.61232 15.3252 9.64335 15.3402 9.6779C15.3551 9.71245 15.3627 9.74975 15.3623 9.7874C15.3618 9.84012 15.3473 9.89176 15.3204 9.9371C15.3029 9.96863 15.2829 9.99867 15.2605 10.0269C15.2366 10.0628 15.2006 10.1018 15.1617 10.1497L15.018 10.3263Z" fill="white"/>
<path d="M15.53 9.98507C15.5238 9.8579 15.5608 9.73237 15.6348 9.62878C15.6602 9.59258 15.6937 9.56288 15.7327 9.54207C15.7718 9.52127 15.8151 9.50995 15.8593 9.50903C15.9033 9.51128 15.9462 9.52316 15.985 9.54386C16.0238 9.56456 16.0576 9.59355 16.0839 9.62878C16.1522 9.73726 16.1885 9.86286 16.1885 9.99106C16.1885 10.1193 16.1522 10.2449 16.0839 10.3533C16.0593 10.3904 16.0259 10.4208 15.9868 10.4418C15.9476 10.4628 15.9038 10.4738 15.8593 10.4738C15.8149 10.4738 15.7711 10.4628 15.7319 10.4418C15.6927 10.4208 15.6594 10.3904 15.6348 10.3533C15.5605 10.2454 15.5237 10.116 15.53 9.98507ZM15.6677 9.98507C15.6637 10.0705 15.6802 10.1557 15.7156 10.2336C15.7261 10.2622 15.7448 10.287 15.7692 10.3051C15.7937 10.3232 15.823 10.3337 15.8533 10.3354C15.8836 10.3334 15.9127 10.3227 15.9371 10.3046C15.9615 10.2866 15.9803 10.2619 15.9911 10.2336C16.0298 10.1556 16.0483 10.0691 16.045 9.98207C16.0479 9.89413 16.0294 9.80679 15.9911 9.72759C15.9807 9.69939 15.962 9.67505 15.9373 9.65786C15.9127 9.64066 15.8834 9.63143 15.8533 9.63143C15.8233 9.63143 15.794 9.64066 15.7694 9.65786C15.7447 9.67505 15.726 9.69939 15.7156 9.72759C15.6779 9.8079 15.6614 9.89656 15.6677 9.98507Z" fill="white"/>
<path d="M16.3413 9.98507C16.3337 9.85773 16.3707 9.73172 16.4461 9.62878C16.4711 9.59223 16.5046 9.56226 16.5437 9.54141C16.5828 9.52057 16.6263 9.50947 16.6706 9.50903C16.7145 9.51128 16.7574 9.52316 16.7962 9.54386C16.835 9.56456 16.8688 9.59355 16.8952 9.62878C16.9635 9.73726 16.9998 9.86286 16.9998 9.99106C16.9998 10.1193 16.9635 10.2449 16.8952 10.3533C16.8688 10.3886 16.835 10.4176 16.7962 10.4383C16.7574 10.459 16.7145 10.4709 16.6706 10.4731C16.6264 10.4722 16.583 10.4609 16.544 10.4401C16.505 10.4192 16.4714 10.3895 16.4461 10.3533C16.3698 10.2463 16.3328 10.1162 16.3413 9.98507ZM16.479 9.98507C16.4754 10.074 16.4939 10.1625 16.5329 10.2426C16.5407 10.2728 16.5583 10.2995 16.583 10.3186C16.6076 10.3377 16.6379 10.348 16.6691 10.348C16.7003 10.348 16.7306 10.3377 16.7552 10.3186C16.7799 10.2995 16.7975 10.2728 16.8053 10.2426C16.8465 10.1654 16.8662 10.0785 16.8622 9.99106C16.8657 9.90273 16.8461 9.81503 16.8053 9.73658C16.7957 9.70805 16.7774 9.68323 16.753 9.66566C16.7286 9.64809 16.6992 9.63863 16.6691 9.63863C16.639 9.63863 16.6097 9.64809 16.5852 9.66566C16.5608 9.68323 16.5425 9.70805 16.5329 9.73658C16.4945 9.81365 16.476 9.89905 16.479 9.98507Z" fill="white"/>
<path d="M17.3473 10.4879L17.2455 10.4131L17.467 10.1137H17.4371H17.4161C17.379 10.1134 17.3424 10.1056 17.3084 10.0906C17.2744 10.0757 17.2438 10.054 17.2185 10.0268C17.1661 9.97087 17.1372 9.89692 17.1377 9.82025C17.1377 9.74084 17.1692 9.66469 17.2254 9.60855C17.2815 9.5524 17.3577 9.52085 17.4371 9.52085C17.4782 9.5198 17.5191 9.52723 17.5572 9.54269C17.5954 9.55814 17.6299 9.58128 17.6587 9.61067C17.6875 9.63814 17.7106 9.67111 17.7265 9.70761C17.7424 9.74411 17.7509 9.78342 17.7515 9.82325C17.7472 9.90958 17.7158 9.99236 17.6617 10.0598L17.3473 10.4879ZM17.2754 9.81128C17.2749 9.8346 17.2791 9.85779 17.2878 9.87942C17.2966 9.90105 17.3097 9.92065 17.3263 9.93702C17.3423 9.95411 17.3619 9.9675 17.3836 9.97629C17.4053 9.98508 17.4287 9.98905 17.4521 9.98791C17.475 9.98881 17.4978 9.98473 17.519 9.97594C17.5402 9.96716 17.5593 9.95387 17.5748 9.93702C17.5921 9.9216 17.6058 9.90266 17.6151 9.88149C17.6244 9.86031 17.629 9.83738 17.6287 9.81426C17.6295 9.79063 17.625 9.76713 17.6157 9.7454C17.6064 9.72367 17.5925 9.70426 17.5748 9.68851C17.5588 9.67143 17.5393 9.65803 17.5175 9.64924C17.4958 9.64045 17.4725 9.63649 17.4491 9.63762C17.4262 9.63692 17.4034 9.64109 17.3822 9.64986C17.3611 9.65864 17.342 9.67182 17.3263 9.68851C17.3101 9.70453 17.2972 9.72366 17.2884 9.74474C17.2797 9.76583 17.2753 9.78845 17.2754 9.81128Z" fill="white"/>
<path d="M52.1706 6.87419H56.6796V6.07178H52.1706C51.5354 6.07178 50.9261 6.32413 50.4769 6.77332C50.0278 7.22251 49.7754 7.83174 49.7754 8.46699C49.7748 9.04857 49.9879 9.61012 50.3742 10.0448C50.5964 10.2944 50.8683 10.4947 51.1726 10.6329C51.4768 10.7711 51.8066 10.8441 52.1407 10.8472H54.2934C54.7109 10.8472 55.1117 11.0114 55.4092 11.3044C55.7066 11.5974 55.8769 11.9956 55.8832 12.4131C55.8777 12.8364 55.7061 13.2406 55.4053 13.5386C55.1046 13.8365 54.6988 14.0044 54.2754 14.0059H49.7634V14.8083H54.2694C54.903 14.8028 55.509 14.5487 55.957 14.1007C56.405 13.6527 56.6591 13.0467 56.6646 12.4131C56.6657 11.835 56.4523 11.2771 56.0658 10.8472C55.8422 10.5994 55.57 10.4002 55.2661 10.2622C54.9622 10.1241 54.6331 10.0502 54.2994 10.0448H52.1437C51.9305 10.0528 51.7179 10.0176 51.5187 9.94122C51.3195 9.86487 51.1378 9.74898 50.9845 9.60054C50.8313 9.4521 50.7097 9.27418 50.6271 9.0775C50.5444 8.88082 50.5024 8.66945 50.5036 8.45611C50.5049 8.24278 50.5492 8.0319 50.6341 7.83617C50.719 7.64044 50.8426 7.46393 50.9975 7.31724C51.1524 7.17056 51.3354 7.05673 51.5355 6.98264C51.7356 6.90856 51.9485 6.87574 52.1616 6.88616L52.1706 6.87419Z" fill="white"/>
<path d="M25.4791 6.07495H24.6527V14.7995H31.5868V13.9941H25.4791V6.07495Z" fill="white"/>
<path d="M35.6767 14.8024C34.9414 14.8016 34.2363 14.5093 33.7161 13.9896C33.1958 13.47 32.9028 12.7653 32.9012 12.0299V11.2425C32.9012 10.5064 33.1937 9.80046 33.7142 9.27996C34.2347 8.75946 34.9406 8.46704 35.6767 8.46704C36.4128 8.46704 37.1187 8.75946 37.6392 9.27996C38.1597 9.80046 38.4521 10.5064 38.4521 11.2425V12.0299C38.4506 12.7653 38.1575 13.47 37.6373 13.9896C37.1171 14.5093 36.412 14.8016 35.6767 14.8024ZM35.6767 9.27243C35.1552 9.27322 34.6554 9.48073 34.2866 9.84945C33.9179 10.2182 33.7104 10.718 33.7096 11.2395V12.0299C33.7295 12.5387 33.9456 13.0201 34.3126 13.3731C34.6796 13.726 35.169 13.9232 35.6782 13.9232C36.1874 13.9232 36.6768 13.726 37.0438 13.3731C37.4108 13.0201 37.6269 12.5387 37.6467 12.0299V11.2425C37.6467 10.9838 37.5958 10.7276 37.4968 10.4886C37.3978 10.2496 37.2527 10.0324 37.0697 9.84945C36.8868 9.66651 36.6696 9.52141 36.4306 9.42241C36.1916 9.3234 35.9354 9.27243 35.6767 9.27243Z" fill="white"/>
<path d="M62.0809 14.8024C61.345 14.8016 60.6395 14.509 60.1192 13.9886C59.5989 13.4683 59.3062 12.7628 59.3054 12.027V8.46411H60.1108V12.03C60.1108 12.5525 60.3184 13.0536 60.6878 13.423C61.0573 13.7925 61.5584 14 62.0809 14C62.6034 14 63.1045 13.7925 63.4739 13.423C63.8434 13.0536 64.0509 12.5525 64.0509 12.03V8.46709H64.8563V12.03C64.8547 12.7653 64.5617 13.47 64.0415 13.9897C63.5212 14.5094 62.8162 14.8016 62.0809 14.8024Z" fill="white"/>
<path d="M68.6048 8.46411H67.7994V14.8024H68.6048V8.46411Z" fill="white"/>
<path d="M68.6048 6.07495H67.7994V7.23363H68.6048V6.07495Z" fill="white"/>
<path d="M43.2905 8.46411C42.5546 8.4649 41.8491 8.75756 41.3288 9.27789C40.8085 9.79821 40.5158 10.5037 40.515 11.2395V12.03C40.5158 12.7658 40.8085 13.4713 41.3288 13.9916C41.8491 14.512 42.5546 14.8046 43.2905 14.8054H45.2605V15.0749C45.2597 15.3245 45.16 15.5636 44.9832 15.7398C44.8065 15.9161 44.567 16.015 44.3174 16.015H41.042V16.8204H44.3174C44.7809 16.8196 45.2252 16.6351 45.5529 16.3074C45.8807 15.9796 46.0651 15.5354 46.0659 15.0719V8.46411H43.2905ZM43.2905 13.994C42.769 13.9933 42.2691 13.7857 41.9004 13.417C41.5317 13.0483 41.3242 12.5484 41.3234 12.027V11.2395C41.3242 10.7181 41.5317 10.2182 41.9004 9.8495C42.2691 9.48077 42.769 9.27327 43.2905 9.27248H45.2605V13.994H43.2905Z" fill="white"/>
<path d="M81.7514 14.8024H78.4041C77.9407 14.8016 77.4964 14.6172 77.1686 14.2894C76.8409 13.9617 76.6564 13.5174 76.6556 13.0539V10.3593C76.6556 10.112 76.7043 9.86711 76.799 9.63863C76.8936 9.41014 77.0323 9.20253 77.2072 9.02766C77.3821 8.85278 77.5897 8.71408 77.8182 8.61943C78.0467 8.52479 78.2916 8.47607 78.5389 8.47607H80.3353C80.8347 8.47607 81.3137 8.67448 81.6669 9.02766C82.0201 9.38083 82.2185 9.85984 82.2185 10.3593C82.2185 10.8588 82.0201 11.3378 81.6669 11.6909C81.3137 12.0441 80.8347 12.2425 80.3353 12.2425H77.473V13.0659C77.4738 13.315 77.5731 13.5537 77.7492 13.7298C77.9254 13.9059 78.164 14.0052 78.4131 14.006H81.7604L81.7514 14.8024ZM77.464 11.4312H80.3263C80.6019 11.4166 80.8615 11.2969 81.0515 11.0966C81.2414 10.8964 81.3473 10.6309 81.3473 10.3548C81.3473 10.0788 81.2414 9.81327 81.0515 9.61301C80.8615 9.41275 80.6019 9.29301 80.3263 9.27847H78.5299C78.2448 9.27847 77.9714 9.39172 77.7698 9.59329C77.5683 9.79487 77.455 10.0683 77.455 10.3533L77.464 11.4312Z" fill="white"/>
<path d="M74.3982 9.27247V8.4641H72.7874V6.43115H71.982V8.4641H70.8802V9.27247H71.982V13.0539C71.9828 13.5174 72.1673 13.9617 72.495 14.2894C72.8228 14.6171 73.2671 14.8016 73.7305 14.8024H74.3982V13.994H73.7305C73.4809 13.994 73.2415 13.8951 73.0647 13.7189C72.8879 13.5426 72.7882 13.3035 72.7874 13.0539V9.27247H74.3982Z" fill="white"/>
<path d="M52.9281 19.4341C52.931 19.4564 52.9288 19.4792 52.9216 19.5005C52.9144 19.5218 52.9023 19.5412 52.8864 19.5571C52.8705 19.573 52.8511 19.5851 52.8298 19.5923C52.8085 19.5995 52.7858 19.6018 52.7634 19.5988H49.973C49.9507 19.6018 49.928 19.5995 49.9067 19.5923C49.8853 19.5851 49.866 19.573 49.85 19.5571C49.8341 19.5412 49.8221 19.5218 49.8148 19.5005C49.8076 19.4792 49.8054 19.4564 49.8083 19.4341V16.6587C49.8047 16.6362 49.8065 16.6133 49.8135 16.5916C49.8205 16.57 49.8325 16.5504 49.8486 16.5343C49.8647 16.5182 49.8843 16.5062 49.906 16.4992C49.9276 16.4922 49.9506 16.4904 49.973 16.494H52.7634C52.7859 16.4904 52.8088 16.4922 52.8305 16.4992C52.8521 16.5062 52.8717 16.5182 52.8878 16.5343C52.9039 16.5504 52.9159 16.57 52.9229 16.5916C52.9299 16.6133 52.9317 16.6362 52.9281 16.6587V19.4341ZM52.5988 19.2695V16.8204H50.1467V19.2665L52.5988 19.2695Z" fill="white"/>
<path d="M57.6977 16.7844C57.6116 17.553 57.2835 18.2744 56.7605 18.8443C56.2907 19.3393 55.6876 19.6877 55.024 19.8473H54.9791C54.9568 19.848 54.9346 19.8435 54.9143 19.8341C54.8941 19.8248 54.8763 19.8108 54.8623 19.7934C54.8339 19.7611 54.8179 19.7197 54.8174 19.6766C54.816 19.6403 54.8276 19.6047 54.8501 19.5761C54.8726 19.5476 54.9045 19.528 54.9402 19.5209C55.5345 19.3727 56.0758 19.0617 56.5031 18.6227C56.9555 18.1545 57.2479 17.5549 57.3384 16.9101H55.7186C55.4499 17.3114 55.1136 17.6629 54.7246 17.9491C54.6968 17.9697 54.6634 17.9812 54.6288 17.982C54.6066 17.9821 54.5846 17.9773 54.5645 17.968C54.5443 17.9587 54.5264 17.9451 54.512 17.9281C54.4967 17.9134 54.4846 17.8958 54.4763 17.8762C54.4681 17.8566 54.4639 17.8356 54.4641 17.8143C54.4638 17.7881 54.4702 17.7621 54.4828 17.739C54.4953 17.716 54.5137 17.6965 54.536 17.6826C55.0721 17.3028 55.4961 16.7857 55.7635 16.1856C55.7738 16.1543 55.794 16.1272 55.821 16.1083C55.848 16.0895 55.8803 16.0798 55.9132 16.0808C55.9557 16.0815 55.9968 16.0962 56.03 16.1227C56.047 16.1364 56.0607 16.1537 56.0701 16.1734C56.0794 16.1931 56.0841 16.2147 56.0839 16.2365C56.05 16.3591 55.9964 16.4754 55.9252 16.5808H57.3953C57.3354 16.488 57.2605 16.3832 57.1677 16.2605C57.1464 16.2364 57.1337 16.2058 57.1318 16.1736C57.1317 16.1556 57.1354 16.1378 57.1426 16.1213C57.1498 16.1048 57.1604 16.09 57.1737 16.0778C57.2005 16.0527 57.2358 16.0388 57.2725 16.0389C57.2926 16.0389 57.3124 16.0438 57.3301 16.0532C57.3479 16.0625 57.363 16.0762 57.3743 16.0928C57.4967 16.2327 57.6022 16.3864 57.6887 16.5509C57.6989 16.5708 57.7043 16.5929 57.7043 16.6152C57.7043 16.6376 57.6989 16.6597 57.6887 16.6796C57.7005 16.7132 57.7036 16.7493 57.6977 16.7844ZM58.2456 16.506C58.2457 16.5247 58.2418 16.5433 58.234 16.5603C58.2263 16.5774 58.2149 16.5926 58.2007 16.6048C58.1729 16.6278 58.138 16.6405 58.1019 16.6407C58.078 16.6411 58.0545 16.6345 58.0342 16.6217C58.014 16.609 57.998 16.5906 57.9881 16.5688C57.9018 16.4242 57.8079 16.2843 57.7067 16.1497C57.6874 16.1248 57.6769 16.0943 57.6767 16.0628C57.6765 16.0455 57.6798 16.0284 57.6865 16.0124C57.6932 15.9964 57.7031 15.982 57.7156 15.97C57.7277 15.9556 57.7428 15.9439 57.7599 15.9359C57.777 15.928 57.7956 15.9238 57.8144 15.9238C57.8333 15.9238 57.8519 15.928 57.869 15.9359C57.886 15.9439 57.9012 15.9556 57.9132 15.97C58.0282 16.1144 58.1285 16.2699 58.2126 16.4341C58.2317 16.4593 58.2432 16.4894 58.2456 16.5209V16.506Z" fill="white"/>
<path d="M62.8443 19.6977C62.8442 19.7196 62.8396 19.7413 62.8309 19.7613C62.8221 19.7814 62.8094 19.7995 62.7934 19.8145C62.7783 19.83 62.7601 19.8423 62.74 19.8505C62.7199 19.8588 62.6984 19.8628 62.6767 19.8624C62.6527 19.8623 62.6291 19.8565 62.6078 19.8456C62.5865 19.8347 62.568 19.8189 62.5539 19.7995C62.1773 19.3395 61.767 18.9082 61.3264 18.5091C60.8818 19.0757 60.3079 19.5274 59.6527 19.8265C59.63 19.8312 59.6066 19.8312 59.5839 19.8265C59.562 19.8274 59.5401 19.823 59.5203 19.8136C59.5005 19.8042 59.4832 19.7901 59.4701 19.7726C59.4407 19.7397 59.4247 19.6969 59.4252 19.6528C59.4246 19.6208 59.4341 19.5894 59.4524 19.563C59.4707 19.5367 59.4968 19.5168 59.527 19.5061C60.0704 19.2571 60.5543 18.8947 60.9461 18.4432C61.3925 17.9545 61.7267 17.3741 61.9252 16.7426H59.8803C59.857 16.7458 59.8333 16.7439 59.8108 16.7372C59.7883 16.7304 59.7675 16.7189 59.7498 16.7035C59.7321 16.688 59.7179 16.669 59.7082 16.6476C59.6985 16.6262 59.6935 16.603 59.6935 16.5795C59.6935 16.556 59.6985 16.5327 59.7082 16.5114C59.7179 16.49 59.7321 16.4709 59.7498 16.4554C59.7675 16.44 59.7883 16.4285 59.8108 16.4217C59.8333 16.415 59.857 16.4131 59.8803 16.4163H62.1437C62.2575 16.4163 62.3144 16.4642 62.3144 16.557C62.3168 16.5789 62.3168 16.601 62.3144 16.6229C62.1719 17.2101 61.9077 17.7609 61.539 18.2396C61.9994 18.6539 62.4259 19.1045 62.8144 19.5869C62.8267 19.6024 62.8358 19.6202 62.8409 19.6392C62.8461 19.6583 62.8472 19.6782 62.8443 19.6977Z" fill="white"/>
<path d="M66.9491 16.3472C66.9479 16.3866 66.9319 16.424 66.9042 16.452C66.6001 16.7746 66.264 17.0655 65.9012 17.3203V19.7155C65.9012 19.7592 65.8839 19.801 65.853 19.8319C65.8221 19.8628 65.7802 19.8801 65.7366 19.8801C65.6929 19.8801 65.651 19.8628 65.6201 19.8319C65.5892 19.801 65.5719 19.7592 65.5719 19.7155V17.5568C65.0881 17.8713 64.5782 18.1437 64.0479 18.3712C64.027 18.3798 64.0047 18.3849 63.9821 18.3861C63.9594 18.3864 63.9369 18.3818 63.9162 18.3725C63.8955 18.3631 63.8771 18.3494 63.8623 18.3322C63.8332 18.298 63.8173 18.2545 63.8174 18.2095C63.816 18.1765 63.8251 18.144 63.8434 18.1166C63.8617 18.0891 63.8882 18.0682 63.9192 18.0568C64.9541 17.6583 65.8892 17.0379 66.6587 16.2394C66.6737 16.2224 66.6921 16.2088 66.7128 16.1995C66.7334 16.1902 66.7558 16.1855 66.7785 16.1855C66.8011 16.1858 66.8233 16.1908 66.844 16.2C66.8646 16.2093 66.883 16.2227 66.8982 16.2394C66.9278 16.2679 66.9459 16.3063 66.9491 16.3472Z" fill="white"/>
<path d="M71.3233 17.8263C71.3225 17.8713 71.3043 17.9143 71.2724 17.9461C71.2548 17.9625 71.2341 17.9752 71.2114 17.9834C71.1888 17.9917 71.1648 17.9953 71.1407 17.994H68.0599C68.0353 17.9955 68.0108 17.992 67.9876 17.9838C67.9645 17.9756 67.9432 17.9627 67.9251 17.9461C67.8941 17.914 67.8769 17.871 67.8772 17.8263C67.8768 17.8046 67.8808 17.7831 67.8891 17.763C67.8973 17.7429 67.9096 17.7247 67.9251 17.7096C67.9425 17.6918 67.9636 17.678 67.9869 17.6692C68.0101 17.6604 68.035 17.6568 68.0599 17.6587H71.1407C71.165 17.6573 71.1894 17.6611 71.2121 17.6699C71.2348 17.6786 71.2554 17.6922 71.2724 17.7096C71.2884 17.7246 71.3011 17.7427 71.3099 17.7627C71.3186 17.7828 71.3232 17.8044 71.3233 17.8263Z" fill="white"/>
<path d="M75.5389 18.1587C75.5387 18.2054 75.5229 18.2507 75.494 18.2875C75.4805 18.3074 75.4621 18.3236 75.4407 18.3346C75.4192 18.3456 75.3953 18.351 75.3712 18.3503C75.3514 18.3531 75.3312 18.3531 75.3114 18.3503C74.629 18.082 73.9287 17.8619 73.2156 17.6916V19.7874C73.2156 19.8091 73.2113 19.8305 73.203 19.8505C73.1948 19.8704 73.1826 19.8886 73.1673 19.9039C73.152 19.9192 73.1339 19.9313 73.1139 19.9396C73.0939 19.9479 73.0725 19.9521 73.0509 19.9521C73.0293 19.9521 73.0079 19.9479 72.9879 19.9396C72.9679 19.9313 72.9497 19.9192 72.9345 19.9039C72.9192 19.8886 72.907 19.8704 72.8988 19.8505C72.8905 19.8305 72.8862 19.8091 72.8862 19.7874V16.2545C72.8862 16.2329 72.8905 16.2115 72.8988 16.1915C72.907 16.1715 72.9192 16.1534 72.9345 16.1381C72.9497 16.1228 72.9679 16.1107 72.9879 16.1024C73.0079 16.0941 73.0293 16.0898 73.0509 16.0898C73.0725 16.0898 73.0939 16.0941 73.1139 16.1024C73.1339 16.1107 73.152 16.1228 73.1673 16.1381C73.1826 16.1534 73.1948 16.1715 73.203 16.1915C73.2113 16.2115 73.2156 16.2329 73.2156 16.2545V17.3324C73.9676 17.5075 74.7068 17.7335 75.4281 18.009C75.4611 18.0173 75.4901 18.0367 75.5103 18.064C75.5305 18.0913 75.5406 18.1248 75.5389 18.1587Z" fill="white"/>
</g>
<defs>
<clipPath id="clip0_5382_32200">
<rect width="82.2066" height="20" fill="white"/>
</clipPath>
</defs>
</svg>
