<?xml version="1.0" encoding="UTF-8"?><svg id="Layer_2" xmlns="http://www.w3.org/2000/svg" viewBox="0 0 137.95 32.05"><defs><style>.cls-1{fill:#fff;}</style></defs><g id="Layer_1-2"><g><g><path class="cls-1" d="M19.74,14.54c.85-.13,1.64-.3,2.34-.48v-3.75c-.55,.2-1.36,.45-2.34,.67v3.55Z"/><path class="cls-1" d="M18.63,6.63c-.62,.19-1.55,.41-2.6,.41s-1.98-.22-2.6-.41v3.44c.8,.13,1.68,.22,2.6,.22s1.81-.09,2.6-.22v-3.44Z"/><path class="cls-1" d="M5.57,12.52l.78,.35s.97,.43,2.51,.89v-5.12l.78,.35s1.07,.48,2.67,.85V4.98l.78,.36s1.34,.59,2.93,.59,2.92-.59,2.93-.59l.78-.35v4.87c1.6-.37,2.65-.84,2.67-.85l.78-.35v5.12c1.54-.45,2.49-.88,2.51-.89l.78-.36v13.24c2.38-2.55,3.84-5.98,3.84-9.74,0-7.9-6.4-14.3-14.29-14.3S1.73,8.13,1.73,16.03c0,3.76,1.46,7.19,3.84,9.74V12.52Z"/><path class="cls-1" d="M13.42,11.2v3.5c.83,.09,1.7,.15,2.6,.15s1.77-.06,2.6-.15v-3.5c-.8,.12-1.68,.21-2.6,.21s-1.8-.09-2.6-.21Z"/><path class="cls-1" d="M12.31,14.54v-3.55c-.98-.21-1.79-.47-2.34-.67v3.74c.71,.18,1.5,.34,2.34,.48Z"/><path class="cls-1" d="M16.03,32.05C7.19,32.05,0,24.86,0,16.03S7.19,0,16.03,0s16.03,7.19,16.03,16.03-7.19,16.03-16.03,16.03ZM16.03,.61C7.52,.61,.61,7.52,.61,16.03s6.92,15.42,15.42,15.42,15.42-6.92,15.42-15.42S24.53,.61,16.03,.61Z"/><path class="cls-1" d="M23.19,14.93v11.3h-1.11V15.21c-.71,.17-1.5,.33-2.34,.46v9.46h-1.11V15.81c-.83,.09-1.7,.14-2.6,.14s-1.77-.05-2.6-.14v9.31h-1.11V15.67c-.84-.13-1.63-.29-2.34-.46v11.02h-1.11V14.93c-.92-.26-1.67-.52-2.18-.72v12.62h0c2.51,2.17,5.78,3.49,9.36,3.49s6.84-1.31,9.35-3.49V14.21c-.51,.2-1.26,.46-2.18,.72Z"/></g><g><polygon class="cls-1" points="90.99 11.92 94.55 11.92 94.55 21.07 95.48 21.07 95.48 11.92 99.01 11.92 99.01 10.99 90.99 10.99 90.99 11.92"/><polygon class="cls-1" points="118.29 10.99 117.33 10.99 117.33 21.07 125.35 21.07 125.35 20.14 118.29 20.14 118.29 10.99"/><path class="cls-1" d="M134.98,11.89h2.97v-.9h-2.97c-2.62,0-4.78,2-5.01,4.6h-1.15v.9h1.15c.23,2.59,2.39,4.59,5.01,4.59h2.97v-.9h-2.97c-2.12,0-3.88-1.61-4.11-3.7h6.29v-.9h-6.29c.23-2.09,1.99-3.7,4.11-3.7Z"/><path class="cls-1" d="M110.83,10.99c-.08,.08-.42,.53-2.99,4.12l-.13,.17-.13-.17c-2.57-3.59-2.91-4.04-2.99-4.12h-1.1l3.73,5.22v4.87h.97v-4.87l3.73-5.22h-1.1Z"/><path class="cls-1" d="M45.83,12.61c-.34-.73-.98-1.29-1.76-1.51-.08-.02-.16-.04-.25-.06-.02,0-.05,0-.07-.01-.14-.02-.29-.04-.43-.04h-5.28v4.61h-1.15v.93h1.15v4.54h.93v-4.54h4.34s.04,0,.05,0c1.1-.02,2.04-.69,2.47-1.64,.16-.35,.24-.73,.24-1.13s-.09-.8-.25-1.15Zm-.68,1.18c0,.12-.01,.23-.03,.34h0c-.17,.84-.91,1.47-1.79,1.47h-4.34v-3.67h4.34c1.01,0,1.83,.82,1.83,1.83,0,.01,0,.02,0,.03Z"/><path class="cls-1" d="M56.89,16.53h0l-.02-.03c.94-.14,1.73-.76,2.11-1.61,.16-.35,.24-.73,.24-1.13s-.09-.8-.25-1.15c-.34-.73-.98-1.29-1.76-1.51-.08-.02-.16-.04-.25-.06-.02,0-.05,0-.07-.01-.14-.02-.29-.04-.43-.04h-5.27v4.61h-1.15v.93h1.15v4.54h.93v-4.54h3.7c.17,.28,.79,1.33,2.56,4.44l.1,.17,.82-.41-2.41-4.2Zm-4.77-4.61h4.34c1.01,0,1.83,.82,1.83,1.83,0,.01,0,.02,0,.03,0,.12-.01,.23-.03,.34h0c-.17,.84-.91,1.47-1.79,1.47h-4.34v-3.67Z"/><path class="cls-1" d="M68.19,21.18c-2.21,0-4.01-1.68-4.01-3.74v-2.83c0-2.06,1.8-3.74,4.01-3.74s4.01,1.68,4.01,3.74v2.83c0,2.06-1.8,3.74-4.01,3.74Zm0-9.34c-1.68,0-3.05,1.25-3.05,2.78v2.83c0,1.53,1.37,2.78,3.05,2.78s3.05-1.25,3.05-2.78v-2.83c0-1.53-1.37-2.78-3.05-2.78Z"/><path class="cls-1" d="M80.66,16.49s.03,0,.05,0h2.45s-.02,0-.02,0h-2.47Z"/><path class="cls-1" d="M83.17,15.57s-.03,0-.05,0h.05Z"/><path class="cls-1" d="M80.71,11.91h5.21v-.93h-5.21c-1.54,0-2.79,1.25-2.79,2.76,0,.69,.27,1.34,.7,1.82,.5,.56,1.23,.91,2.04,.93h2.47s.01,0,.02,0c1.01,.01,1.84,.82,1.84,1.81s-.83,1.85-1.86,1.85h-5.21v.93h5.21c1.54,0,2.79-1.26,2.79-2.77,0-.69-.27-1.33-.7-1.81-.5-.56-1.23-.91-2.04-.93h-2.49c-1.01-.01-1.84-.84-1.84-1.83s.83-1.83,1.86-1.83Z"/></g></g></g></svg>