<svg width="115" height="36" viewBox="0 0 115 36" fill="none" xmlns="http://www.w3.org/2000/svg">
<g clip-path="url(#clip0_473_4936)">
<path d="M2.84889 10.5455H2.72768C2.81619 10.3512 2.88398 10.148 2.92978 9.93947C2.92978 9.71725 3.05092 9.51526 3.11152 9.33344C3.11896 9.21846 3.15908 9.10797 3.22706 9.01495C3.29504 8.92192 3.38808 8.85017 3.49537 8.80817C4.15072 8.50143 4.82559 8.23821 5.51557 8.02026C6.21686 7.78718 6.93206 7.59832 7.65698 7.45466C8.99016 7.21261 10.3424 7.09092 11.6974 7.09104C13.0642 7.0369 14.4303 7.21451 15.7378 7.61632C16.1509 7.7367 16.5147 7.98584 16.7764 8.32741C17.038 8.66898 17.1838 9.08514 17.1924 9.51531C17.1729 10.0116 17.0039 10.4904 16.7076 10.889C16.3393 11.4048 15.8806 11.8496 15.3539 12.2021C14.7286 12.6378 14.0496 12.9909 13.3337 13.2526C12.4423 13.5487 11.5209 13.7451 10.5863 13.8384C10.3843 13.8384 10.3035 13.8384 10.3843 14.0809C10.8086 14.7879 11.3742 15.6768 12.1217 16.7273C12.8691 17.7778 13.7176 18.9295 14.6469 20.1214C15.1507 20.7511 15.7047 21.3388 16.3035 21.8789C16.9233 22.4459 17.6003 22.9469 18.3237 23.3739C19.0427 23.8088 19.8085 24.1612 20.6065 24.4244C21.4162 24.6833 22.2616 24.8127 23.1116 24.8081C24.5116 24.8108 25.8938 24.493 27.152 23.8789C27.2732 23.8789 27.3539 23.8789 27.3539 23.8789C27.3539 23.8789 27.3539 24.0001 27.2125 24.0203C26.4948 24.3711 25.7435 24.6486 24.9701 24.8486C24.1612 25.0728 23.3247 25.1817 22.4853 25.1719C21.3647 25.1848 20.2463 25.0695 19.1519 24.8284C18.2212 24.6057 17.3292 24.2448 16.5055 23.7577C15.666 23.2334 14.8986 22.6019 14.2226 21.8789C13.4152 20.9995 12.6662 20.0682 11.9802 19.091L11.1721 17.8789L10.2025 16.4244L9.25302 14.9497C8.97019 14.4648 8.70745 14.0809 8.50543 13.7779C8.30341 13.4749 8.50543 13.6567 8.50543 13.6567C9.42692 13.6645 10.3471 13.5833 11.253 13.4143C12.0153 13.2824 12.7517 13.0301 13.4347 12.6668C14.008 12.3638 14.5001 11.9273 14.8691 11.3941C15.2164 10.8601 15.3926 10.2328 15.3742 9.59607C15.3745 9.33368 15.3265 9.07345 15.2327 8.82839C15.1263 8.53764 14.9367 8.28472 14.6874 8.10114C14.3904 7.85844 14.0465 7.67961 13.6773 7.57587C13.1606 7.41686 12.6217 7.34186 12.0812 7.35368C11.8668 7.32274 11.6491 7.32274 11.4347 7.35368C11.2172 7.40005 11.0196 7.51297 10.8692 7.67686C10.4993 8.09322 10.1553 8.53179 9.83883 8.99004C9.39439 9.5961 8.90947 10.3234 8.38422 11.1314C7.85897 11.9395 7.2934 12.7879 6.70754 13.697C6.12168 14.6061 5.57622 15.4951 5.05096 16.3436L3.67724 18.687C3.2732 19.3739 2.97015 19.9395 2.76813 20.3436C2.7497 20.3542 2.72874 20.3598 2.70746 20.3598C2.68618 20.3598 2.66534 20.3542 2.64692 20.3436H2.30352H1.57615H1.0711C0.788809 20.4934 0.530128 20.6839 0.303415 20.9092H0.162109C0.162109 20.9092 0.162109 20.9092 0.162109 20.8082C2.18231 18.1011 3.93988 15.697 5.33382 13.5758C6.72776 11.4546 7.93986 9.53552 8.97016 7.75774C8.97016 7.59613 8.97016 7.49507 8.97016 7.45466C8.93504 7.43966 8.89725 7.43198 8.85906 7.43198C8.82087 7.43198 8.78309 7.43966 8.74797 7.45466C8.06256 7.49561 7.38443 7.61766 6.72777 7.81829C6.09013 8.01161 5.46859 8.25475 4.86909 8.54553C4.47285 8.75837 4.11178 9.03097 3.79845 9.35366C3.43783 9.71372 3.11922 10.1135 2.84889 10.5455Z" fill="#333333"/>
<path d="M24.8494 16.8687C24.428 17.336 23.9758 17.7748 23.4959 18.1819C22.9647 18.6442 22.3972 19.063 21.7989 19.4344C21.1925 19.7901 20.5572 20.0942 19.8999 20.3435C19.2504 20.57 18.5675 20.686 17.8797 20.6869C16.8292 20.6869 16.3242 20.2627 16.3242 19.4142C16.3447 18.7726 16.5104 18.1441 16.809 17.5759C17.1296 16.9133 17.5446 16.3008 18.0413 15.7576C18.5447 15.2219 19.1151 14.7534 19.7384 14.3637C20.2574 14.0279 20.8579 13.8395 21.4757 13.8183C21.7072 13.7958 21.9399 13.8451 22.1423 13.9596C22.2013 14.0087 22.2484 14.0706 22.2799 14.1406C22.3114 14.2106 22.3266 14.2869 22.3242 14.3637C22.3049 14.6443 22.2145 14.9155 22.0615 15.1516C21.8735 15.4661 21.6183 15.7352 21.3141 15.9395C20.9302 16.2267 20.4996 16.4454 20.0413 16.586C19.4521 16.7654 18.8391 16.854 18.2232 16.8486C18.065 17.1141 17.9426 17.3994 17.8595 17.6971C17.7239 18.0867 17.6556 18.4966 17.6575 18.9091C17.6339 19.0765 17.6496 19.247 17.7032 19.4073C17.7568 19.5675 17.8469 19.7131 17.9664 19.8326C18.0859 19.952 18.2315 20.0422 18.3918 20.0958C18.552 20.1494 18.7225 20.165 18.8898 20.1414C19.4311 20.1377 19.9665 20.0279 20.4656 19.8182C21.0192 19.5916 21.5474 19.3073 22.0413 18.9698C22.5526 18.6521 23.0329 18.2867 23.4757 17.8788C23.8582 17.5412 24.2159 17.1767 24.5463 16.7879C24.5709 16.7738 24.5988 16.7662 24.6272 16.7662C24.6556 16.7662 24.6834 16.7738 24.708 16.7879C24.737 16.7852 24.7661 16.7915 24.7915 16.8059C24.8168 16.8204 24.837 16.8423 24.8494 16.8687ZM21.3343 14.5051C21.3343 14.2425 21.1928 14.1213 20.91 14.1213C20.6636 14.1226 20.4237 14.2002 20.2232 14.3435C19.9701 14.5086 19.7392 14.7056 19.5363 14.9294C19.3117 15.179 19.1025 15.442 18.91 15.7172C18.7242 15.9823 18.5555 16.259 18.405 16.5455H18.6474H18.91C19.5326 16.5479 20.1352 16.3255 20.607 15.9193C20.8233 15.7501 21.0002 15.5362 21.1258 15.292C21.2513 15.0479 21.3225 14.7794 21.3343 14.5051Z" fill="#333333"/>
<path d="M44.8275 0.323242C44.8229 0.395046 44.8024 0.465029 44.7675 0.527925C44.7325 0.590821 44.684 0.645161 44.6254 0.686986C44.4868 0.831475 44.3952 1.01452 44.3628 1.21214C44.3628 1.35355 44.2416 1.41423 44.1406 1.41423H43.9386H43.676L43.4133 1.13137H42.8073C42.419 1.12845 42.0319 1.17601 41.6558 1.2728C41.2944 1.35617 40.9472 1.49234 40.6255 1.67687C39.8992 2.12292 39.2221 2.64424 38.6053 3.23234C37.8745 3.90437 37.199 4.63402 36.5851 5.41419C35.1103 7.43439 33.7972 9.15157 32.6659 10.8485C31.5345 12.5455 30.6456 14.0404 29.8577 15.3738C29.2226 16.476 28.656 17.6162 28.1608 18.7879C27.8586 19.4242 27.6672 20.1074 27.5951 20.8081C27.5834 21.1096 27.6683 21.4068 27.8375 21.6566C27.9398 21.7726 28.0684 21.8625 28.2125 21.9187C28.3566 21.9749 28.5121 21.996 28.6659 21.9799C29.2747 21.9787 29.8705 21.8035 30.383 21.4748C30.9415 21.1025 31.4565 20.6688 31.9184 20.1819C32.4117 19.6491 32.8578 19.0746 33.2517 18.4647C33.6557 17.8317 33.9992 17.2459 34.282 16.7072C34.3138 16.6826 34.3529 16.6692 34.3931 16.6692C34.4333 16.6692 34.4725 16.6826 34.5043 16.7072C34.6053 16.7072 34.6053 16.7072 34.5043 16.9496C34.1191 17.6468 33.6941 18.3213 33.2316 18.9698C32.8062 19.5905 32.3261 20.1719 31.7972 20.7071C31.3302 21.1705 30.7996 21.5651 30.2214 21.8789C29.7255 22.1504 29.1705 22.296 28.6052 22.3031C28.1203 22.3309 27.6432 22.1719 27.272 21.8587C27.1303 21.7073 27.0198 21.5294 26.947 21.3352C26.8742 21.1411 26.8405 20.9346 26.8477 20.7274C26.8554 20.1865 26.9651 19.6518 27.171 19.1515C27.4461 18.4561 27.7701 17.781 28.1406 17.1313C27.5144 17.8182 26.9689 18.4042 26.5043 18.8688C26.1223 19.2638 25.7103 19.6284 25.272 19.9597C24.9956 20.1827 24.6897 20.3663 24.3629 20.5052C24.1497 20.6147 23.9153 20.6767 23.6759 20.6869C23.5596 20.7016 23.4415 20.6872 23.3322 20.6449C23.2228 20.6026 23.1258 20.5337 23.0497 20.4445C22.927 20.275 22.8697 20.0671 22.8881 19.8587C22.894 19.6145 22.9489 19.374 23.0497 19.1515C23.1601 18.8403 23.3168 18.5475 23.5144 18.2829C24.2644 17.1515 25.1921 16.1488 26.2618 15.3132C27.37 14.5056 28.661 13.9851 30.0194 13.7981C31.0699 12.1011 32.0396 10.5859 33.0699 9.2324C34.1002 7.87887 35.0901 6.54553 36.282 5.192C37.1646 4.17162 38.1164 3.21316 39.1305 2.32335C39.9961 1.54889 40.9777 0.914819 42.0396 0.444449C42.6737 0.1489 43.3607 -0.0159712 44.0598 -0.04038C44.2739 -0.0750817 44.4922 -0.0750817 44.7063 -0.04038C44.7871 0.107768 44.8275 0.228965 44.8275 0.323242ZM29.6558 14.2425C28.957 14.2066 28.2609 14.3528 27.6356 14.6668C27.1788 14.9429 26.7696 15.2908 26.4235 15.6971C25.7294 16.4304 25.1257 17.2442 24.6255 18.1212C24.3375 18.5815 24.1514 19.0981 24.08 19.6364C24.078 19.6809 24.0908 19.725 24.1164 19.7615C24.142 19.7981 24.1789 19.8251 24.2214 19.8385H24.4234C24.7378 19.7605 25.0289 19.608 25.272 19.394C25.7546 19.0192 26.2072 18.6072 26.6255 18.1617C27.1778 17.5925 27.6972 16.9921 28.1811 16.3637C28.7381 15.7044 29.2318 14.9942 29.6558 14.2425Z" fill="#333333"/>
<path d="M41.6972 16.8688C41.2757 17.3361 40.8235 17.7748 40.3436 18.1819C39.8124 18.6442 39.2449 19.0631 38.6467 19.4345C38.0403 19.7902 37.405 20.0943 36.7477 20.3436C36.0982 20.57 35.4153 20.6861 34.7275 20.687C33.677 20.687 33.1719 20.2627 33.1719 19.4142C33.1839 18.7739 33.3429 18.145 33.6365 17.5759C33.9716 16.917 34.3929 16.3056 34.8891 15.7577C35.3925 15.222 35.9628 14.7535 36.586 14.3637C37.1051 14.028 37.7055 13.8395 38.3234 13.8184C38.5486 13.7916 38.7763 13.8413 38.9698 13.9597C39.0315 14.0077 39.0816 14.069 39.1166 14.1389C39.1515 14.2088 39.1704 14.2856 39.1719 14.3637C39.1527 14.6444 39.0623 14.9156 38.9093 15.1516C38.7213 15.4662 38.466 15.7352 38.1618 15.9395C37.778 16.2267 37.3474 16.4454 36.8891 16.586C36.2999 16.7654 35.6868 16.854 35.0709 16.8487C34.913 17.117 34.7843 17.4014 34.687 17.6971C34.5675 18.0901 34.5063 18.4984 34.5053 18.9092C34.4817 19.0765 34.4973 19.2471 34.5509 19.4073C34.6045 19.5676 34.6947 19.7131 34.8142 19.8326C34.9336 19.9521 35.0792 20.0423 35.2394 20.0959C35.3997 20.1495 35.5702 20.165 35.7376 20.1415C36.2789 20.1378 36.8142 20.028 37.3133 19.8183C38.4146 19.3146 39.425 18.6319 40.3032 17.7981C40.6967 17.4655 41.0615 17.1007 41.3941 16.7072C41.4187 16.693 41.4465 16.6855 41.4749 16.6855C41.5032 16.6855 41.5312 16.693 41.5558 16.7072C41.5762 16.707 41.5963 16.7112 41.6149 16.7196C41.6336 16.7279 41.6502 16.7401 41.6637 16.7554C41.6771 16.7708 41.687 16.7889 41.6928 16.8085C41.6985 16.828 41.7001 16.8486 41.6972 16.8688ZM38.1819 14.5052C38.1819 14.2425 38.0406 14.1213 37.7578 14.1213C37.5114 14.1226 37.2713 14.2002 37.0709 14.3435C36.8178 14.5086 36.587 14.7056 36.3841 14.9294C36.1594 15.1791 35.9503 15.4421 35.7578 15.7172C35.572 15.9823 35.4033 16.259 35.2527 16.5456H35.4952H35.7578C36.3804 16.5479 36.9829 16.3256 37.4547 15.9193C37.6709 15.7502 37.848 15.5362 37.9736 15.2921C38.0991 15.0479 38.1701 14.7794 38.1819 14.5052Z" fill="#333333"/>
<path d="M47.3331 14.4242C47.2857 14.8808 47.1107 15.3149 46.8281 15.6767C46.4934 16.1617 46.1147 16.6148 45.6968 17.0302C45.2386 17.5103 44.7457 17.956 44.222 18.3636C43.7092 18.7825 43.1692 19.167 42.6058 19.515C42.1469 19.8232 41.6678 20.1 41.1715 20.3433C40.8516 20.5153 40.502 20.625 40.1412 20.6665L39.5957 20.1817C39.5957 20.1817 39.5957 20.0605 39.7371 20.1817C40.2027 20.1564 40.6453 19.9708 40.9896 19.6564C41.4308 19.1307 41.6989 18.4817 41.7573 17.7979C41.8179 17.5514 41.8651 17.3019 41.8988 17.0504C41.9326 16.7856 41.9798 16.5226 42.0402 16.2625C42.0715 16.0306 42.1188 15.8011 42.1816 15.5757C42.2192 15.4313 42.2665 15.2895 42.323 15.1514C42.3646 15.0062 42.3646 14.8521 42.323 14.7069C42.323 14.7069 42.1816 14.7069 41.9997 14.7069L41.0301 14.8483C40.8281 14.8483 40.8483 14.707 41.0301 14.6464L42.5857 14.4242C43.0694 14.3703 43.5486 14.2826 44.02 14.1615C44.02 14.1615 44.02 14.1615 44.02 14.2827L43.717 14.4847C43.5975 14.5708 43.5062 14.6904 43.4544 14.8282C43.3265 15.0847 43.2315 15.3561 43.1715 15.6362C43.1715 15.9595 43.0099 16.2828 42.9493 16.5858C42.8887 16.8888 42.828 17.1514 42.7674 17.414C42.7068 17.6767 42.7674 17.8383 42.626 17.9393C42.4665 18.3134 42.2407 18.6556 41.9594 18.9494C41.6685 19.2475 41.3506 19.5179 41.0099 19.7574C41.0099 19.8988 41.0099 19.9393 41.0099 19.8787C41.6567 19.677 42.2798 19.4061 42.8684 19.0706C43.442 18.7497 43.9717 18.3558 44.4442 17.8989C44.9019 17.4468 45.29 16.9294 45.5958 16.3635C45.9007 15.7942 46.0863 15.1687 46.1411 14.5252C46.1411 13.7373 46.1412 13.212 45.7372 12.9696C45.3332 12.7271 45.7372 12.9696 45.7372 12.9696H45.9594C46.1434 12.9832 46.3222 13.0375 46.4828 13.1283C46.6435 13.2191 46.782 13.3442 46.8886 13.4948C47.1393 13.7442 47.2964 14.0725 47.3331 14.4242Z" fill="#333333"/>
<path d="M55.2524 16.8687C54.831 17.336 54.3788 17.7748 53.8989 18.1819C53.3677 18.6442 52.8002 19.063 52.2019 19.4344C51.5997 19.7978 50.9637 20.1023 50.3029 20.3435C49.6545 20.5742 48.9709 20.6903 48.2827 20.6869C47.2322 20.6869 46.707 20.2627 46.707 19.4142C46.7275 18.7726 46.8932 18.1441 47.1919 17.5758C47.8565 16.2577 48.8697 15.1467 50.1212 14.3637C50.6461 14.0244 51.254 13.8358 51.8787 13.8183C52.1038 13.7946 52.3306 13.8441 52.5252 13.9596C52.5842 14.0087 52.6313 14.0706 52.6628 14.1406C52.6943 14.2106 52.7094 14.2869 52.707 14.3637C52.6966 14.643 52.613 14.9147 52.4646 15.1516C52.2649 15.4571 52.0117 15.724 51.7171 15.9395C51.3283 16.2187 50.8991 16.4367 50.4444 16.586C49.8487 16.7674 49.2287 16.856 48.606 16.8486C48.4649 17.1225 48.3434 17.406 48.2424 17.6971C48.1068 18.0867 48.0384 18.4966 48.0403 18.9091C48.0168 19.0765 48.0325 19.247 48.0861 19.4073C48.1397 19.5675 48.2297 19.7131 48.3492 19.8325C48.4687 19.952 48.6143 20.0422 48.7746 20.0958C48.9348 20.1494 49.1054 20.165 49.2727 20.1414C49.8143 20.1404 50.3501 20.0305 50.8484 19.8182C51.4085 19.5918 51.9434 19.3075 52.4443 18.9698C52.9493 18.6519 53.4228 18.2865 53.8585 17.8788C54.2421 17.5357 54.6064 17.1716 54.9495 16.7879C54.9701 16.7731 54.9948 16.7651 55.0201 16.7651C55.0455 16.7651 55.0703 16.7731 55.0909 16.7879C55.1059 16.7767 55.1237 16.7698 55.1423 16.7681C55.161 16.7664 55.1798 16.7701 55.1966 16.7784C55.2134 16.7868 55.2275 16.7997 55.2374 16.8157C55.2473 16.8316 55.2524 16.8499 55.2524 16.8687ZM51.7575 14.5051C51.7575 14.2425 51.6161 14.1213 51.313 14.1213C51.0724 14.1198 50.8381 14.1979 50.6464 14.3435C50.3895 14.5033 50.1579 14.7009 49.9595 14.9294C49.7283 15.1787 49.5124 15.4417 49.313 15.7172C49.1334 15.9823 48.9715 16.2591 48.8282 16.5455H49.0504H49.313C49.941 16.5439 50.5487 16.3223 51.0303 15.9193C51.2465 15.7501 51.4235 15.5362 51.549 15.292C51.6746 15.0479 51.7457 14.7794 51.7575 14.5051Z" fill="#333333"/>
<path d="M69.8377 0.727288C69.7961 1.15747 69.6727 1.57571 69.4741 1.95958C69.1714 2.61769 68.8202 3.25243 68.4236 3.85858C67.9791 4.56565 67.4135 5.33335 66.767 6.16164C66.064 7.01613 65.3154 7.83217 64.5246 8.60612C63.6675 9.44123 62.7491 10.2111 61.7772 10.9092C60.7777 11.6796 59.7092 12.3558 58.5852 12.9294L57.7368 14.2424L56.6862 15.9597C56.3428 16.5658 56.0599 17.1717 55.7973 17.7576C55.5683 18.2172 55.4376 18.7195 55.4135 19.2324C55.3928 19.3645 55.4035 19.4995 55.4449 19.6266C55.4863 19.7537 55.5572 19.8693 55.6517 19.9638C55.7462 20.0584 55.8618 20.1292 55.9889 20.1706C56.116 20.212 56.2511 20.2228 56.3831 20.2021C56.9867 20.1922 57.5804 20.0472 58.1206 19.7778C58.7238 19.4885 59.2986 19.1436 59.8377 18.7475C60.3741 18.3546 60.8805 17.9225 61.3529 17.4546C61.8377 17.0102 62.2417 16.6061 62.5852 16.2424C62.9286 15.8788 62.8276 16.0606 62.8478 16.1212C62.8673 16.1587 62.8775 16.2002 62.8775 16.2424C62.8775 16.2846 62.8673 16.3262 62.8478 16.3636C62.4438 16.8081 61.9791 17.2727 61.4336 17.7778C60.8868 18.2813 60.3063 18.747 59.6963 19.1717C59.0637 19.6008 58.3863 19.9599 57.6761 20.2425C57.0387 20.5204 56.3512 20.6647 55.6559 20.6667C55.2052 20.6988 54.7587 20.562 54.4034 20.2828C54.1591 20.035 54.0213 19.7016 54.0195 19.3536C54.081 18.8034 54.2602 18.2729 54.5448 17.798C54.8882 17.1112 55.2922 16.4041 55.7569 15.6566C56.2215 14.9091 56.6862 14.2021 57.1508 13.6364C57.6155 13.0708 57.9791 12.4647 58.2014 12.1213L59.3731 10.2829L60.5852 8.42425L61.7367 6.68691C62.1004 6.12125 62.4438 5.63644 62.767 5.2122C63.0903 4.78796 63.5347 4.20202 63.9186 3.73737C64.3785 3.21863 64.8932 2.75125 65.4538 2.34342C66.1846 1.77021 66.9695 1.26955 67.7973 0.848495C68.2411 0.595131 68.7271 0.424033 69.2317 0.343445C69.3828 0.334525 69.5323 0.377267 69.6559 0.464652C69.7433 0.530219 69.8071 0.622381 69.8377 0.727288ZM68.3428 1.5152C68.3428 1.19196 68.2014 1.03037 67.9185 1.03037C67.799 1.00201 67.6745 1.00201 67.5549 1.03037C67.3577 1.12492 67.1796 1.25505 67.0296 1.41421C66.7599 1.67006 66.5036 1.93971 66.2619 2.22222L65.1104 3.55562L64.363 4.52528L63.1307 6.20208C62.6256 6.88895 62.0195 7.75767 61.3327 8.76778L58.8478 12.4041C60.1869 11.7068 61.4467 10.8669 62.6054 9.89908C63.6929 8.98352 64.6999 7.97637 65.6155 6.88888C66.3996 5.96445 67.0773 4.95475 67.6357 3.8788C68.0406 3.15177 68.282 2.34515 68.3428 1.5152Z" fill="#333333"/>
<path d="M72.3431 15.2728C71.9368 15.751 71.468 16.1723 70.9492 16.5253C70.408 16.896 69.7667 17.0934 69.1107 17.091C68.7259 17.0835 68.3471 16.9939 67.9997 16.8284C67.6339 16.6662 67.3245 16.399 67.1108 16.0607C66.9491 16.3839 66.7472 16.7475 66.5047 17.1516C66.2498 17.5921 65.9593 18.011 65.6361 18.4041C65.3023 18.8154 64.9303 19.1942 64.525 19.5354C64.1257 19.8737 63.6843 20.159 63.2118 20.384C62.8926 20.5256 62.5503 20.6077 62.2017 20.6264C61.4138 20.6264 61.0098 20.3031 61.0098 19.6566C61.0071 19.2749 61.0827 18.8968 61.232 18.5455C61.3767 18.1516 61.5594 17.7727 61.7775 17.4142C61.9997 17.0506 62.2421 16.7071 62.4845 16.3839C62.7072 16.1037 62.9503 15.8403 63.2118 15.596C63.6823 15.1279 64.2203 14.733 64.8078 14.4243C65.4324 14.0889 66.1209 13.8891 66.828 13.8384C66.8778 13.644 66.9454 13.4547 67.03 13.2728C67.0684 13.1765 67.1316 13.0921 67.2132 13.0282C67.2949 12.9643 67.3919 12.9233 67.4946 12.9092H67.8179L68.1209 12.8082C68.1526 12.7937 68.1871 12.7861 68.222 12.7861C68.2568 12.7861 68.2913 12.7937 68.323 12.8082C68.3359 12.8196 68.3461 12.8335 68.3532 12.8491C68.3602 12.8648 68.364 12.8819 68.364 12.8991C68.364 12.9163 68.3602 12.9332 68.3532 12.9489C68.3461 12.9646 68.3359 12.9786 68.323 12.99C68.1467 13.2459 68.0231 13.5343 67.9593 13.8384C67.8759 14.2028 67.8352 14.5758 67.8381 14.9496C67.8178 15.4401 67.9444 15.9255 68.2018 16.3436C68.337 16.5341 68.5206 16.685 68.7337 16.7809C68.9468 16.8768 69.1815 16.9141 69.4138 16.8889C69.9798 16.8948 70.5325 16.7176 70.9896 16.3839C71.4263 16.0646 71.8141 15.6835 72.141 15.2526C72.1711 15.2242 72.2109 15.2083 72.2523 15.2083C72.2936 15.2083 72.3333 15.2242 72.3634 15.2526C72.424 15.2728 72.424 15.2728 72.3431 15.2728ZM66.8481 15.4748C66.79 15.2707 66.7562 15.0605 66.7471 14.8485C66.7471 14.6061 66.7471 14.3637 66.7471 14.1415C66.7471 13.9193 66.7471 14.0001 66.6057 14.0001C66.3403 14.0004 66.0807 14.0775 65.8582 14.2222C65.5579 14.3792 65.285 14.584 65.0502 14.8284C64.761 15.0989 64.491 15.3891 64.2421 15.6971C63.9819 16.0136 63.7392 16.3441 63.5149 16.687C63.2242 17.1491 62.9611 17.628 62.727 18.1212C62.5067 18.5806 62.4026 19.0871 62.4239 19.5961C62.3936 19.729 62.3936 19.8671 62.4239 20.0001C62.4239 20.1213 62.6057 20.1819 62.8077 20.1819C63.274 20.1354 63.7097 19.9284 64.0401 19.5961C64.5079 19.1941 64.9282 18.7399 65.2927 18.2424C65.6822 17.7559 66.027 17.2354 66.323 16.687C66.5404 16.3239 66.7165 15.9376 66.8481 15.5354V15.4748Z" fill="#333333"/>
<path d="M79.9601 15.7172C78.9155 16.9638 77.6306 17.9876 76.1822 18.7274C74.8418 19.3884 73.4232 19.877 71.96 20.1819L70.6266 20.4243L69.4953 20.6062C68.8489 21.5961 68.2429 22.6263 67.657 23.5556L65.9196 26.4849C65.0712 27.926 64.3035 29.2728 63.6166 30.5253C62.9297 31.798 62.1823 33.0505 61.3944 34.3031C61.2339 34.5465 61.0105 34.742 60.7479 34.8688C60.4481 35.0084 60.1372 35.1233 59.8186 35.2122L58.5863 35.5153C58.1217 35.6163 57.6166 35.7576 57.0509 35.9394C56.9297 35.9394 56.8489 35.9394 56.8287 35.9394C56.8085 35.9394 56.8287 35.7779 56.9903 35.7375C57.5761 35.5354 58.0611 35.3335 58.4651 35.1516C58.8437 34.9584 59.2023 34.7283 59.5357 34.4647C59.8751 34.186 60.1864 33.8747 60.4651 33.5354C60.7479 33.1717 61.0711 32.7071 61.455 32.1617L62.8489 30.1415C63.3742 29.293 63.9802 28.3839 64.6469 27.3738L66.6671 24.1415L68.9095 20.7071C68.7681 20.7071 68.7075 20.5456 68.7075 20.3637C68.7075 20.1819 68.7075 20.1819 68.9297 20.1617H69.2731L70.8085 17.8788C71.5156 16.8283 72.2226 15.7374 72.9499 14.6061C73.6053 13.5411 74.3415 12.528 75.152 11.5758C75.2547 11.4836 75.3803 11.4209 75.5156 11.394H75.7782H76.1822H76.5459H76.7479H76.8489C76.8279 11.4818 76.7781 11.56 76.7075 11.6162C76.2428 12.0001 75.8388 12.3637 75.4752 12.7071L74.4853 13.7374C74.1621 14.0809 73.8792 14.4243 73.5964 14.7677C73.3136 15.1112 73.0308 15.4748 72.7479 15.8788L73.4752 15.192C73.7303 14.9531 74.0002 14.7304 74.2833 14.5253C74.5268 14.3288 74.7909 14.1595 75.0711 14.0203C75.2989 13.8902 75.5562 13.8207 75.8186 13.8183C76.0165 13.81 76.2107 13.8746 76.3641 14.0001C76.4393 14.0807 76.4963 14.1765 76.5311 14.2811C76.566 14.3856 76.5778 14.4965 76.566 14.6061C76.5376 14.9386 76.4414 15.2618 76.2833 15.5557C76.0364 16.0702 75.7165 16.5465 75.3337 16.9698C74.7827 17.5735 74.1738 18.1216 73.5156 18.6062C72.6318 19.2423 71.6756 19.7712 70.6671 20.1819C71.2731 20.1819 71.9398 20.0202 72.6873 19.899C73.4793 19.7435 74.2566 19.5206 75.0106 19.2324C75.8518 18.8882 76.657 18.4619 77.4146 17.9597C78.2556 17.3903 79.0166 16.7109 79.6772 15.9395H79.7984C79.7984 15.9395 79.9601 15.6162 79.9601 15.7172ZM75.2934 14.9294C75.309 14.829 75.309 14.7267 75.2934 14.6263C75.2934 14.5051 75.1519 14.4446 74.9499 14.4446C74.7794 14.4667 74.6147 14.5215 74.4651 14.6061C74.2201 14.7464 73.984 14.9017 73.758 15.0708C73.455 15.2812 73.171 15.5177 72.9095 15.7778C72.6129 16.0759 72.3363 16.393 72.0812 16.7273C71.6854 17.2225 71.3211 17.742 70.9904 18.2829C70.6267 18.8283 70.263 19.4143 69.9196 20.0001C70.6381 19.8094 71.3206 19.5023 71.9398 19.091C72.5649 18.6867 73.147 18.2197 73.6772 17.6971C74.1356 17.2483 74.5299 16.7385 74.8489 16.1819C75.1028 15.8098 75.256 15.3783 75.2934 14.9294Z" fill="#333333"/>
<path d="M90.828 17.8787L89.7169 18.9697C89.2725 19.3737 88.8078 19.7576 88.323 20.1212C87.8514 20.4769 87.3436 20.7815 86.8078 21.0302C86.3352 21.2601 85.8182 21.3843 85.2927 21.3939C84.964 21.4257 84.6347 21.3397 84.3635 21.1514C84.2643 21.051 84.1878 20.9306 84.1391 20.7982C84.0903 20.6658 84.0703 20.5245 84.0806 20.3838C84.1406 19.9997 84.2707 19.6299 84.4645 19.2928C84.7271 18.7878 85.0099 18.2626 85.3331 17.7171L86.1816 16.1615C86.3703 15.8367 86.5003 15.481 86.5654 15.111C86.5688 15.0863 86.5663 15.0612 86.5584 15.0376C86.5504 15.0141 86.5371 14.9927 86.5195 14.9751C86.5019 14.9575 86.4805 14.9442 86.4569 14.9363C86.4333 14.9283 86.4083 14.9259 86.3837 14.9293C86.0407 15.1057 85.7158 15.3155 85.4139 15.5555C85.0357 15.8335 84.6717 16.1302 84.323 16.4444C83.9594 16.7676 83.6362 17.0908 83.3331 17.3938C83.0966 17.6298 82.874 17.8794 82.6664 18.1413C82.4864 18.3709 82.3243 18.6141 82.1816 18.8687L81.7371 19.6969C81.6143 19.9304 81.4725 20.1534 81.3129 20.3636C81.2712 20.4321 81.2154 20.4908 81.1492 20.5361C81.083 20.5814 81.008 20.6122 80.9291 20.6262C80.871 20.6286 80.813 20.6169 80.7603 20.5923C80.7076 20.5677 80.6615 20.5309 80.626 20.4848C80.5471 20.4019 80.4975 20.2954 80.4846 20.1817C80.4685 20.0746 80.4685 19.9657 80.4846 19.8586C80.5906 19.6607 80.7123 19.4715 80.8483 19.2928C81.1473 18.9351 81.411 18.5495 81.6361 18.1413C81.8785 17.7373 82.0805 17.3737 82.2422 17.0302C82.4038 16.6868 82.525 16.3837 82.626 16.1413C82.6787 16.0037 82.7193 15.8617 82.7472 15.717C82.7472 15.5554 82.7068 15.4746 82.626 15.4746C82.3649 15.534 82.1265 15.6672 81.9392 15.8585C81.5724 16.149 81.2217 16.4592 80.8887 16.7878C80.5048 17.1514 80.1412 17.5353 79.7776 17.9393C79.4139 18.3434 79.0907 18.707 78.8482 19.0302L78.0604 20.1413C77.8382 20.4645 77.6766 20.6262 77.5554 20.6262C77.4342 20.6262 77.2725 20.6262 77.2321 20.4241C77.2221 20.2829 77.2221 20.1412 77.2321 20C77.2272 19.9266 77.2373 19.8529 77.2616 19.7835C77.2859 19.714 77.3239 19.6502 77.3735 19.5959L79.1311 16.9292L80.8684 14.2423C80.8684 14.0605 81.0906 13.9595 81.2321 13.9595C81.2908 13.965 81.3478 13.9822 81.3999 14.0099C81.4519 14.0377 81.4979 14.0754 81.5351 14.1211C81.6071 14.2142 81.6493 14.327 81.6563 14.4444C81.4445 14.9679 81.1805 15.4687 80.8684 15.9394C80.4846 16.5252 80.1614 17.0504 79.8583 17.5353C80.557 16.8096 81.3065 16.1345 82.1008 15.5151C82.4984 15.1311 83.0078 14.8835 83.5553 14.808C83.7978 14.808 83.9392 14.9494 83.9392 15.2524C83.9002 15.5791 83.7971 15.8949 83.6361 16.1818C83.4341 16.5858 83.2523 16.9292 83.0907 17.1919C82.9291 17.4545 83.0907 17.3131 83.0907 17.2929C83.1299 17.3067 83.1727 17.3067 83.2119 17.2929C83.4746 17.01 83.7977 16.707 84.1411 16.3837C84.4846 16.0605 84.8483 15.7777 85.2321 15.4948C85.616 15.212 86.0201 14.9494 86.4039 14.7069C86.7461 14.4919 87.104 14.3029 87.4745 14.1413C87.818 14.1413 87.9796 14.2828 87.9796 14.5656C87.9894 14.6258 87.9894 14.6872 87.9796 14.7474C87.9419 14.8126 87.9082 14.8802 87.8786 14.9495C87.7574 15.1717 87.5554 15.5353 87.2523 16.0403C86.9493 16.5454 86.6463 17.0908 86.3432 17.6565C86.0402 18.2221 85.7574 18.7878 85.515 19.3333C85.3274 19.7201 85.2109 20.1375 85.1715 20.5656C85.1715 20.9696 85.3735 21.1716 85.7977 21.1716C86.2458 21.1593 86.6835 21.0342 87.0705 20.808C87.5377 20.5475 87.9837 20.2502 88.4039 19.9191C88.8324 19.5832 89.2437 19.2259 89.6362 18.8485L90.6058 17.8586C90.6301 17.8111 90.6683 17.7721 90.7152 17.7469C90.7621 17.7216 90.8155 17.7113 90.8685 17.7171C90.8685 17.7171 90.9492 17.6969 90.828 17.8787Z" fill="#333333"/>
<path d="M98.5454 16.8687C98.1313 17.3362 97.6859 17.775 97.2121 18.1819C96.6775 18.6489 96.103 19.068 95.495 19.4344C94.8927 19.7978 94.2568 20.1023 93.596 20.3435C92.9476 20.5742 92.264 20.6903 91.5758 20.6869C90.5253 20.6869 90 20.2627 90 19.4142C90.0205 18.7726 90.1862 18.1441 90.4848 17.5758C91.1495 16.2577 92.1626 15.1467 93.4141 14.3637C93.9416 14.0299 94.548 13.8418 95.1717 13.8183C95.3968 13.7946 95.6236 13.8441 95.8182 13.9596C95.8772 14.0087 95.9243 14.0706 95.9558 14.1406C95.9873 14.2106 96.0025 14.2869 96.0001 14.3637C95.9896 14.643 95.9059 14.9147 95.7575 15.1516C95.5637 15.4617 95.3095 15.7296 95.0101 15.9395C94.6213 16.2187 94.1921 16.4367 93.7373 16.586C93.1417 16.7674 92.5216 16.856 91.899 16.8486C91.7579 17.1225 91.6364 17.406 91.5354 17.6971C91.4093 18.0891 91.3411 18.4974 91.3333 18.9091C91.3097 19.0765 91.3254 19.247 91.379 19.4073C91.4326 19.5675 91.5227 19.7131 91.6422 19.8325C91.7616 19.952 91.9073 20.0422 92.0676 20.0958C92.2278 20.1494 92.3984 20.165 92.5657 20.1414C93.1138 20.1398 93.6561 20.03 94.1616 19.8182C94.7152 19.5916 95.2435 19.3073 95.7374 18.9698C96.2424 18.6519 96.7158 18.2865 97.1515 17.8788C97.5449 17.5462 97.9099 17.1814 98.2425 16.7879C98.2631 16.7731 98.2877 16.7651 98.3131 16.7651C98.3385 16.7651 98.3633 16.7731 98.3839 16.7879C98.3989 16.7767 98.4167 16.7698 98.4354 16.7681C98.4541 16.7664 98.4729 16.7701 98.4897 16.7784C98.5065 16.7868 98.5205 16.7997 98.5304 16.8157C98.5402 16.8316 98.5454 16.8499 98.5454 16.8687ZM95.0505 14.5051C95.0505 14.2425 94.909 14.1213 94.6262 14.1213C94.3794 14.1198 94.1386 14.1977 93.9394 14.3435C93.6825 14.5033 93.4509 14.7009 93.2525 14.9294C93.0279 15.179 92.8187 15.442 92.6262 15.7172C92.4405 15.9823 92.2718 16.259 92.1212 16.5455H92.3434H92.6262C93.2488 16.5479 93.8514 16.3255 94.3233 15.9193C94.5395 15.7501 94.7164 15.5362 94.842 15.292C94.9676 15.0479 95.0387 14.7794 95.0505 14.5051Z" fill="#333333"/>
<path d="M107.819 16.5658C107.382 17.1028 106.917 17.6154 106.425 18.1012C105.915 18.6079 105.36 19.0677 104.768 19.4749C104.203 19.8689 103.601 20.2072 102.97 20.485C102.41 20.733 101.805 20.8636 101.192 20.8688C100.944 20.9024 100.693 20.9024 100.445 20.8688C100.338 20.8324 100.248 20.76 100.189 20.6641C100.13 20.5683 100.106 20.455 100.122 20.3436C100.146 19.9603 100.257 19.5874 100.445 19.2526C100.667 18.8283 100.93 18.3637 101.233 17.8788L102.162 16.4041C102.453 15.9562 102.716 15.4906 102.95 15.0102C102.969 14.9692 102.98 14.9243 102.98 14.8789C102.98 14.8334 102.969 14.7885 102.95 14.7476C102.95 14.7476 102.849 14.7476 102.728 14.7476C102.606 14.7476 102.202 15.0911 101.859 15.3335C101.515 15.5759 101.192 15.8182 100.849 16.1011L99.8387 16.9294C99.5678 17.1698 99.3114 17.4262 99.071 17.6971C98.7074 18.2022 98.4044 18.6668 98.1418 19.091C97.851 19.5792 97.534 20.0513 97.1922 20.5052C97.1922 20.6264 97.0509 20.687 96.9903 20.687C96.9297 20.687 96.7882 20.687 96.7074 20.3638C96.6861 20.2232 96.6861 20.0801 96.7074 19.9395C96.7492 19.6503 96.8924 19.3854 97.1115 19.192L98.0407 18.1415L99.1317 16.1213C99.5155 15.394 99.8387 14.7677 100.101 14.1011C100.132 14.0484 100.176 14.0054 100.23 13.9768C100.283 13.9482 100.344 13.9353 100.404 13.9396C100.541 13.9493 100.669 14.0064 100.768 14.1011C100.815 14.1414 100.854 14.1908 100.881 14.2463C100.909 14.3018 100.926 14.3624 100.93 14.4244C100.812 14.724 100.648 15.0034 100.445 15.2526C100.098 15.7868 99.781 16.3399 99.4953 16.9092L100.889 15.8183C101.374 15.4345 101.859 15.091 102.324 14.7678C102.788 14.4446 103.172 14.1617 103.515 13.9597C103.723 13.7993 103.965 13.6887 104.222 13.6365C104.274 13.6372 104.325 13.6505 104.371 13.6751C104.417 13.6997 104.456 13.735 104.485 13.7779C104.558 13.8463 104.602 13.9405 104.606 14.0405C104.582 14.1766 104.519 14.3027 104.425 14.4042C104.182 14.7274 103.879 15.1314 103.536 15.6365C103.192 16.1415 102.829 16.6668 102.505 17.1921C102.209 17.6892 101.939 18.2017 101.697 18.7274C101.512 19.0852 101.402 19.4771 101.374 19.879C101.361 19.9699 101.369 20.0625 101.397 20.15C101.425 20.2375 101.472 20.3176 101.536 20.384C101.691 20.4862 101.875 20.5356 102.061 20.5253C102.531 20.4968 102.988 20.3585 103.394 20.1214C103.952 19.834 104.485 19.5029 104.99 19.1314C105.535 18.7334 106.048 18.2945 106.526 17.8183C106.965 17.3858 107.37 16.9197 107.738 16.4244C107.738 16.4244 107.839 16.4244 107.94 16.4244C108.041 16.4244 107.92 16.4446 107.819 16.5658Z" fill="#333333"/>
<path d="M114.323 9.41403C114.114 9.46769 113.911 9.54223 113.717 9.63634C113.522 9.73384 113.355 9.87985 113.232 10.0605C112.707 10.707 112.222 11.3736 111.737 12.0807C111.252 12.7878 110.808 13.4948 110.363 14.2019H114.404C114.404 14.2019 114.505 14.202 114.505 14.3232C114.514 14.3386 114.518 14.3559 114.518 14.3737C114.518 14.3914 114.514 14.4089 114.505 14.4242H113.697H112.545H111.232H110.06C109.544 15.2541 109.072 16.1104 108.646 16.9898C108.341 17.564 108.169 18.199 108.141 18.8485C108.121 18.9964 108.135 19.1469 108.183 19.2884C108.231 19.4299 108.311 19.5585 108.416 19.6641C108.522 19.7697 108.65 19.8494 108.792 19.8972C108.933 19.9449 109.084 19.9593 109.232 19.9393C109.648 19.9214 110.058 19.8326 110.444 19.6767C110.944 19.4816 111.43 19.2521 111.899 18.9899C111.91 18.9732 111.925 18.9595 111.942 18.9501C111.96 18.9406 111.98 18.9356 112 18.9356C112.02 18.9356 112.039 18.9406 112.057 18.9501C112.075 18.9595 112.09 18.9732 112.101 18.9899C112.101 18.9899 112.101 19.111 112.101 19.1514C111.464 19.5456 110.786 19.8708 110.08 20.1212C109.427 20.3273 108.745 20.4295 108.06 20.4242C107.729 20.4261 107.405 20.3275 107.131 20.1413C106.99 20.0202 106.88 19.8673 106.81 19.6952C106.739 19.5231 106.711 19.3366 106.727 19.1514C106.799 18.5223 107.006 17.916 107.333 17.3736C107.865 16.3684 108.459 15.3969 109.111 14.4645H108.121H107.434C107.434 14.4645 107.272 14.4645 107.272 14.3433C107.381 14.1728 107.526 14.0281 107.697 13.9192H109.414L110.06 12.9091L110.808 11.7778L111.555 10.6868C111.818 10.3433 112.04 10.0201 112.242 9.71711L113.252 9.31304L114.404 8.9292C114.404 8.9292 114.404 9.37362 114.323 9.41403Z" fill="#333333"/>
</g>
<defs>
<clipPath id="clip0_473_4936">
<rect width="114.606" height="36" fill="white"/>
</clipPath>
</defs>
</svg>
