<?xml version="1.0" encoding="UTF-8"?><svg id="Layer_2" xmlns="http://www.w3.org/2000/svg" viewBox="0 0 355.07 74.13"><g id="Layer_1-2"><g><path d="M0,45.62H9.03v1.03H1.09v18.14H0v-19.17Z"/><path d="M31.36,54.35c.09,3.22,.44,6.34,1.24,9.03,1.06-2.12,1.89-4.54,2.39-7.29l2.92,.86c-.12,.35-.47,.62-1.15,.59-.83,3.13-1.95,5.75-3.39,7.94,.77,1.71,1.83,3.16,3.22,4.19,.41,.38,.59,.38,.83-.15,.3-.62,.74-1.89,1.06-2.95l.35,.06-.38,3.92c.74,1,.8,1.39,.56,1.71-.59,.85-2.18,.15-3.27-.74-1.5-1.18-2.66-2.66-3.57-4.4-2.01,2.51-4.51,4.34-7.43,5.61l-.35-.41c1.59-.94,3.07-2.09,4.4-3.45h-8.91v1.39c0,.15-.53,.62-1.42,.62h-.27v-15.19l2.04,.91h5.84l1.06-1.36s1.24,1,2.04,1.74c-.09,.32-.38,.47-.77,.47h-4.13v2.68h2.01l.91-.94,2.07,1.53c-.15,.21-.56,.44-1.06,.53v3.89c-.03,.18-.89,.56-1.42,.56h-.24v-1.03h-2.27v3.33h2.04l1.09-1.42s1.18,.91,1.95,1.65c.77-.83,1.47-1.77,2.09-2.77-1.21-3.13-1.77-6.93-1.98-11.12h-12.8v4.13c0,4.13-.32,10.06-4.42,14.19l-.38-.35c2.71-4.19,2.95-9.26,2.95-13.81v-6.02l2.21,.97h12.42c-.03-.56-.03-1.12-.06-1.68-.18,.06-.41,.09-.68,.09h-.32v-2.3h-5.78v1.89c0,.21-.8,.5-1.56,.5h-.3v-2.39H12.22l-.15-.86h8.64v-3.01l2.92,.3c-.06,.41-.32,.71-1.06,.8v1.92h5.78v-3.01l2.95,.3c-.06,.41-.29,.71-1.06,.8v1.92h4.9l1.36-1.71s1.56,1.21,2.48,2.09c-.06,.32-.32,.47-.74,.47h-7.99v1.33l2.04,.24c-.06,.35-.3,.68-.94,.8v1.53h4.63l1.21-1.56s1.42,1.12,2.27,1.98c-.09,.32-.35,.47-.74,.47h-7.35Zm-11.51,3.1v2.68h2.71v-2.68h-2.71Zm0,3.57v2.83h6.67v-2.83h-6.67Zm0,6.99h2.71v-3.33h-2.71v3.33Zm12.69-18.14c4.66,.86,3.39,3.98,1.77,2.95-.27-.94-1.21-2.06-2.09-2.71l.32-.24Z"/><path d="M66.86,49.46s1.65,1.27,2.65,2.24c-.09,.32-.32,.44-.74,.44h-26.14l-.24-.86h9.7c-.24,0-.5-.12-.77-.3-.29-1.68-1.8-3.75-3.13-4.93l.32-.24c5.55,1.77,5.22,5.37,3.69,5.46h5.81c1.03-1.65,2.18-3.89,2.86-5.52l3.13,.91c-.15,.32-.5,.56-1.18,.53-.91,1.24-2.45,2.8-3.89,4.07h6.4l1.5-1.83Zm-13.51,4.54l2.48,1.86c-.21,.21-.71,.47-1.27,.56v13.72c0,1.51-.3,2.39-2.68,2.63-.03-.56-.18-1.03-.5-1.3-.32-.29-.89-.53-1.89-.65v-.47s2.12,.18,2.65,.18c.41,0,.53-.18,.53-.56v-4.81h-5.69v6.93c0,.21-.74,.68-1.56,.68h-.32v-18.5l2.04,.91h5.25l.97-1.18Zm-6.37,2.07v3.57h5.69v-3.57h-5.69Zm5.69,8.2v-3.75h-5.69v3.75h5.69Zm8.82-9.17c-.06,.41-.35,.71-1.09,.83v11.8c0,.24-.8,.65-1.47,.65h-.35v-13.6l2.92,.32Zm3.39-.97l2.92,.32c-.09,.38-.35,.65-1.03,.74v14.84c0,1.53-.35,2.48-3.07,2.71-.09-.53-.27-1-.68-1.27-.44-.32-1.18-.56-2.51-.71v-.47s3.04,.24,3.69,.24c.53,0,.68-.18,.68-.62v-15.78Z"/><path d="M81.5,72.94h-9.03v-1.03h7.94v-18.14h1.09v19.17Z"/><path d="M108.93,59.43c2.8,13.25-5.13,11.85-2.85,8.3,1.31-1.54,2.05-4.53,2.1-8.3h.75Zm18.66-4.48c-.33,.37-.89,.56-1.82,.7-.47,9.19-1.68,13.95-3.55,15.54-1.07,.98-2.57,1.35-4.15,1.35,0-.75-.14-1.49-.61-1.91-.47-.42-1.73-.75-2.94-.98v-.79c1.4,.09,3.59,.28,4.43,.28,.75,0,1.12-.09,1.54-.42,1.17-1.03,2.1-5.37,2.57-13.39h-11.71v1.49c0,.23-.89,.98-2.29,.98h-.42v-24.49l3.31,1.4h9.89l2.05-2.43s2.29,1.73,3.73,3.08c-.14,.51-.56,.75-1.21,.75h-7.88v4.94h3.22l1.73-2.29s2.15,1.68,3.36,2.89c-.09,.51-.56,.75-1.17,.75h-7.14v5.04h3.03l1.77-2.24s2.1,1.63,3.36,2.89c-.14,.51-.56,.75-1.17,.75h-7v5.13h4.11l1.63-1.73,3.31,2.71Zm-15.91,4.01c4.48,5.97,1.63,10.96-.28,8.63,.51-2.71,.14-6.21-.42-8.44l.7-.19Zm-.33-22.86v4.94h4.53v-4.94h-4.53Zm4.53,6.3h-4.53v5.04h4.53v-5.04Zm-4.53,11.57h4.53v-5.13h-4.53v5.13Zm3.08,4.2c5.97,4.57,3.59,9.24,1.54,7.19,0-2.15-1.17-5.09-2.15-6.9l.61-.28Zm2.94-1.03c6.53,2.29,4.53,7,2.33,5.27-.28-1.63-1.63-3.73-2.89-4.9l.56-.37Zm19.22-6.21c1.96,8.68,6.25,16.66,12.97,19.92l-.09,.51c-1.17,.23-2.19,1.17-2.61,2.71-6.48-4.62-9.61-12.55-11.2-23.14h-2.94c-.19,7.93-1.35,16.94-8.3,23.19l-.7-.47c5.41-7,6.07-15.91,6.07-24.82v-15.54l3.5,1.49h10.22l1.63-1.82,3.69,2.85c-.23,.37-1.03,.75-1.91,.89v15.86c-.05,.28-1.59,.98-2.52,.98h-.42v-2.61h-7.37Zm-3.87-1.4h11.24v-13.39h-11.24v13.39Z"/><path d="M169.2,42.91c-.28,.51-.75,.7-1.87,.51-1.03,1.63-2.43,3.5-4.01,5.41l1.31,.51c-.19,.42-.65,.7-1.4,.84v22.86c-.05,.28-1.26,1.07-2.43,1.07h-.56v-21.79c-1.91,2.01-3.97,3.97-6.06,5.6l-.56-.56c4.43-4.76,8.91-11.9,11.1-16.66l4.48,2.19Zm-.98-9.14c-.28,.47-.75,.65-1.77,.42-2.61,3.03-7.28,7.14-11.99,9.7l-.51-.61c3.87-3.27,8.07-8.35,10.03-11.9l4.25,2.38Zm15.49,35.27c2.15,.56,4.62,.79,7.46,.79,1.54,0,4.76,0,6.58-.05v.65c-1.07,.19-1.59,1.21-1.63,2.47h-5.27c-9,0-14.18-2.61-17.17-12.6-1.4,5.13-3.83,10.26-8.16,13.72l-.51-.51c4.67-5.37,6.44-14.14,6.77-21.46l4.85,.89c-.14,.65-.65,1.03-1.68,1.07-.23,1.54-.51,3.17-.89,4.81,1.59,4.62,3.73,7.42,6.67,9.05v-19.04l4.48,.47c-.09,.61-.47,1.07-1.49,1.21v6.58h5.83l2.15-2.71s2.43,1.96,3.97,3.31c-.14,.51-.61,.75-1.26,.75h-10.68v10.59Zm-13.72-30.51h9.89v-6.86l4.57,.47c-.09,.61-.51,1.03-1.54,1.21v5.18h6.16l2.15-2.66s2.43,1.87,3.97,3.31c-.14,.51-.56,.75-1.21,.75h-11.06v7.23h8.16l2.15-2.71s2.47,1.91,4.01,3.36c-.14,.51-.56,.75-1.21,.75h-28.04l-.37-1.4h12.27v-7.23h-9.52l-.37-1.4Z"/><path d="M240.72,43.24s2.66,2.05,4.29,3.55c-.14,.51-.56,.75-1.26,.75h-41.06l-.37-1.4h8.96v-11.24l4.48,.47c-.09,.61-.51,1.03-1.54,1.21v9.56h7.93v-14.79l4.76,.51c-.09,.65-.56,1.12-1.68,1.26v5.27h8.02l2.29-2.85s2.57,2.05,4.2,3.45c-.09,.51-.61,.75-1.26,.75h-13.25v6.39h13.11l2.38-2.89Zm-22.67,8.54c-.23,.42-.65,.65-1.73,.47-2.75,3.69-7.84,8.21-13.44,10.92l-.42-.61c4.67-3.41,9.19-8.86,11.29-13.06l4.29,2.29Zm-13.9,21.41c12.04-2.38,21.46-5.79,29.02-16.52l4.15,2.43c-.28,.47-.79,.56-1.96,.33-8.44,10.12-18.06,13.11-31.03,14.65l-.19-.89Zm11.48-12.88s4.62,.33,5.55,.33c.75,0,.98-.23,.98-.89v-11.99l4.62,.51c-.14,.65-.56,.93-1.54,1.12v10.54c0,2.43-.56,3.92-4.81,4.34-.14-.89-.37-1.68-1.03-2.15-.65-.51-1.73-.89-3.78-1.12v-.7Zm15.4-10.12c14.46,3.78,13.62,11.71,9.84,9.94-1.73-3.27-6.63-7.23-10.26-9.42l.42-.51Z"/><path d="M264.01,30.06c4.24-2.26,9.14-3.58,15.08-3.58,15.27,0,23.28,8.95,23.28,22.05,0,14.04-9.71,23.75-26.48,23.75-11.5,0-20.07-4.99-21.58-14.04,.66-1.79,2.17-2.64,3.77-2.64,2.26,0,3.39,1.23,4.15,4.15l2.07,6.78c3.11,1.51,6.41,2.17,11.5,2.17,10.93,0,17.81-7.35,17.81-19.6s-6.97-18.38-17.53-18.38c-4.99,0-9.33,1.41-14.14,4.34l-2.26-.85,2.54-34.21h37.69V6.78h-34.3l-1.6,23.28Z"/><path d="M330.76,33.26c-.19,.51-.61,.79-1.77,.65-3.03,6.39-8.86,14.04-17.08,18.43l-.42-.61c6.95-5.09,12.22-13.44,14.56-20.3l4.71,1.82Zm13.58,14.56l3.59,2.99c-.33,.33-.93,.61-1.87,.7-.61,10.26-1.96,18.33-4.2,20.48-1.35,1.26-3.22,1.87-5.51,1.82,0-.89-.23-1.73-1.03-2.24-.75-.51-3.22-1.07-5.32-1.4l.05-.79c2.38,.23,6.53,.61,7.7,.61,.98,0,1.4-.14,1.91-.61,1.63-1.35,2.75-8.91,3.27-18.24h-11.38c-.79,7.74-3.27,16.47-17.64,22.95l-.61-.75c12.6-6.95,14.46-15.3,14.88-22.21h-9.8l-.42-1.4h24.59l1.77-1.91Zm-6.3-16.52c2.94,7.23,10.31,13.76,17.03,17.03l-.14,.51c-1.26,.09-2.29,.93-2.89,2.43-6.3-4.25-12.18-11.29-14.79-19.5l.79-.47Z"/><g><path d="M4.99,25.85s.44,.34,.82,.68c.29-.51,.55-1.03,.76-1.53l1.18,.56c-.09,.16-.22,.21-.55,.14-.51,.99-1.2,2.05-2.06,3.07h.78l.59-.75s.68,.52,1.08,.93c-.04,.14-.16,.21-.34,.21h-2.46c-.47,.51-.98,1.02-1.53,1.49h2.07l.48-.51,1.02,.8c-.08,.09-.3,.21-.55,.26v4.74c-.01,.08-.43,.28-.69,.28h-.13v-.9H2.63v.82c0,.08-.26,.29-.67,.29h-.13v-4.68c-.48,.33-.99,.63-1.53,.9l-.13-.18c.58-.35,1.14-.76,1.66-1.2v-.97l.74,.31c.5-.46,.95-.95,1.37-1.45H.43l-.1-.39H2.89v-1.82H.84l-.1-.39H2.89v-1.92l1.31,.14c-.03,.18-.16,.31-.48,.35v1.43h.73l.55-.72Zm-2.21,5.2l-.16,.13v1.58h2.84v-1.71H2.79Zm2.68,3.88v-1.78H2.63v1.78h2.84Zm-1.19-6.16c.48-.59,.9-1.2,1.28-1.82h-1.84v1.82h.56Zm8.29-2.75c-.1,.12-.29,.14-.6,.14-.46,.88-1.33,2.5-1.92,3.35,1.54,1.09,2.12,2.26,2.12,3.31,0,1.28-.51,1.9-1.9,1.97,0-.29-.07-.56-.17-.67-.12-.09-.44-.17-.8-.2v-.21h1.23c.16,0,.24-.01,.37-.08,.26-.14,.39-.44,.39-.98,0-.99-.42-2.06-1.57-3.14,.38-.85,.95-2.48,1.32-3.58h-2.27v10.27c0,.08-.27,.31-.71,.31h-.12v-11.48l.98,.51h2.09l.55-.54,1.01,.99Z"/><path d="M26.73,27.33c-.09,.08-.25,.1-.5,.12-.37,.4-1.02,.97-1.52,1.28l-.17-.1c.18-.34,.43-.88,.6-1.32h-8.57c.03,.85-.31,1.42-.67,1.69-.33,.24-.8,.27-.95-.03-.12-.27,.05-.54,.33-.71,.51-.31,.95-1.14,.86-2.03h.24c.08,.24,.13,.46,.16,.68h5.89c.47-.68,.99-1.62,1.31-2.33l1.32,.55c-.07,.13-.25,.21-.52,.17-.42,.5-1.07,1.11-1.71,1.61h2.33l.56-.57,1.02,.99Zm-9.91-2.56c2.5,.84,1.78,2.55,.97,1.92-.12-.6-.67-1.39-1.11-1.82l.14-.1Zm7.51,7.42l1.06,.8c-.09,.1-.3,.21-.56,.28v2.95c-.01,.09-.44,.29-.72,.29h-.13v-.84h-6.43v.59c0,.09-.37,.27-.71,.27h-.12v-4.23l.9,.42h2.07c.14-.48,.3-1.11,.39-1.57h-1.74v.37c0,.08-.37,.26-.72,.26h-.12v-3.55l.9,.39h4.57l.46-.47,1.01,.74c-.08,.09-.27,.2-.5,.24v2.3c-.01,.08-.44,.27-.71,.27h-.13v-.55h-2.01c-.26,.48-.63,1.11-.93,1.57h3.67l.48-.52Zm-.35,3.08v-2.18h-6.43v2.18h6.43Zm-5.63-4.51h4.77v-1.76h-4.77v1.76Zm1.33-6.23c2.3,1.08,1.41,2.76,.64,2.05-.03-.65-.43-1.46-.81-1.96l.17-.09Z"/><path d="M29.16,27.55c2.73,.41,2.2,2.24,1.27,1.7-.17-.57-.84-1.22-1.39-1.58l.12-.12Zm3.71-.72c-.52,1.65-1.53,4.76-1.71,5.39-.1,.42-.2,.82-.18,1.15,0,.57,.38,1.19,.33,2.26-.03,.55-.27,.89-.72,.89-.25,0-.38-.24-.41-.64,.17-1.32,.1-2.37-.18-2.56-.17-.13-.35-.16-.64-.18v-.29h.57c.14,0,.2-.01,.31-.26q.22-.47,2.38-5.82l.25,.06Zm-2.61-2.12c2.84,.46,2.29,2.38,1.33,1.84-.2-.61-.89-1.33-1.45-1.72l.12-.12Zm10.48,10.85c.41,.44,.46,.61,.34,.77-.25,.44-1.07,.14-1.74-.26-.77-.42-1.4-.97-1.91-1.65-1.54,1.01-3.29,1.59-5.31,2.01l-.08-.25c1.86-.56,3.52-1.28,4.95-2.41-.41-.69-.72-1.46-.97-2.33l-3.52,.37-.13-.37,3.55-.38c-.13-.52-.25-1.08-.33-1.67l-2.51,.24-.14-.37,2.6-.25c-.07-.51-.12-1.03-.14-1.57l-2.44,.21-.14-.35,2.56-.22c-.05-.81-.07-1.66-.07-2.53l1.39,.17c-.03,.17-.14,.31-.47,.37-.01,.65,0,1.29,.03,1.92l2.65-.24,.59-.85s.77,.5,1.25,.85c-.01,.14-.14,.24-.31,.25l-4.17,.35c.03,.54,.07,1.06,.13,1.56l2.44-.24,.57-.85s.78,.5,1.27,.84c-.01,.16-.14,.25-.31,.26l-3.93,.38c.08,.57,.18,1.14,.33,1.66l2.52-.26,.57-.85s.77,.5,1.25,.84c-.03,.14-.14,.24-.31,.25l-3.93,.41c.2,.68,.46,1.31,.77,1.86,.58-.52,1.1-1.14,1.59-1.83l1.24,.72c-.1,.13-.24,.17-.55,.1-.56,.67-1.16,1.23-1.79,1.71,.43,.54,.95,.97,1.58,1.28,.25,.16,.34,.16,.46-.1,.17-.33,.42-.98,.59-1.52l.17,.03-.21,1.95Zm-3.66-10.69c2.64,.17,2.18,1.92,1.25,1.48-.24-.46-.86-1.06-1.37-1.36l.12-.12Z"/><path d="M54.36,32.8s.73,.57,1.19,.99c-.04,.13-.17,.2-.35,.2h-5.29v2.27c0,.05-.29,.26-.72,.26h-.14v-2.53h-5.42l-.1-.37h5.53v-1.48h-2.71v.41c0,.08-.37,.26-.71,.26h-.13v-5.2l.9,.43h6.12l.46-.51,1.01,.78c-.08,.09-.27,.18-.51,.22v3.84c-.01,.09-.42,.31-.71,.31h-.13v-.55h-2.73v1.48h3.83l.63-.82Zm-10.76-6.39l-.07-.38h3.66v-1.48l1.29,.14c-.01,.17-.13,.3-.46,.34v.99h2.86v-1.48l1.31,.13c-.01,.18-.13,.31-.46,.35v.99h1.99l.61-.78s.71,.57,1.11,.97c-.03,.13-.14,.2-.33,.2h-3.39v.97c0,.08-.3,.25-.71,.25h-.14v-1.22h-2.86v1.02c0,.1-.37,.24-.71,.24h-.13v-1.25h-3.59Zm2.73,2.01v1.44h6.3v-1.44h-6.3Zm6.3,3.33v-1.5h-6.3v1.5h6.3Z"/><path d="M61.15,25.04c-.07,.14-.22,.24-.5,.22-.43,.69-.95,1.45-1.44,2.01,.94,.77,.43,1.69-.2,1.24-.14-.59-.71-1.31-1.19-1.73l.13-.1c.41,.12,.72,.25,.97,.4,.3-.71,.65-1.69,.93-2.53l1.29,.48Zm-3.29,10.33c.34-.89,.64-2.18,.77-3.4l1.18,.29c-.05,.17-.2,.29-.46,.29-.3,1.07-.73,2.2-1.28,2.93l-.21-.1Zm3.29-6.46c2.27,1.29,1.48,2.91,.73,2.25-.03-.22-.08-.47-.17-.72-.27,.05-.57,.12-.91,.18v5.65c0,.06-.29,.26-.69,.26h-.12v-5.76c-.42,.08-.89,.16-1.39,.24-.09,.17-.21,.25-.34,.27l-.37-.99c.29,0,.71-.01,1.22-.03,.76-1.25,1.67-2.95,2.24-4.18l1.22,.56c-.08,.13-.26,.22-.52,.18-.61,.95-1.62,2.33-2.56,3.42,.64-.03,1.37-.05,2.13-.09-.18-.43-.42-.85-.63-1.16l.17-.08Zm.24,2.94c2.03,1.48,1.18,3.06,.47,2.35,0-.72-.34-1.67-.64-2.29l.17-.07Zm4.22,.13c-.1,.12-.22,.14-.51,.16-.46,1.48-1.39,2.88-3.06,3.74l-.12-.2c1.23-.88,2-2.22,2.34-3.61h-1.71l-.12-.38h1.79l.5-.48,.89,.77Zm4.33-.52c-.05,.1-.24,.2-.48,.1-.41,.34-1.12,.86-1.8,1.25,.69,1.02,1.57,1.65,2.5,2.1l-.03,.16c-.33,.07-.56,.34-.69,.75-1.5-1.11-2.51-2.52-2.98-5.36v4.8c0,.67-.14,1.14-1.24,1.27-.01-.25-.08-.48-.24-.61-.18-.14-.5-.26-1.03-.33v-.2s1.2,.09,1.45,.09c.21,0,.26-.07,.26-.25v-5.08h-1.57v.35c0,.08-.27,.25-.69,.25h-.12v-5.1l.95,.42h.93c.1-.44,.24-1.07,.33-1.52l1.36,.27c-.05,.18-.21,.29-.47,.29-.21,.28-.51,.64-.76,.95h2.5l.42-.51,.93,.73c-.08,.09-.21,.16-.48,.21v3.89c0,.07-.3,.25-.69,.25h-.13v-.5h-1.57c.21,.99,.54,1.8,.94,2.46,.51-.59,1.11-1.42,1.38-1.91l1.03,.76Zm-5.86-5.02v1.48h4.06v-1.48h-4.06Zm4.06,3.33v-1.48h-4.06v1.48h4.06Z"/></g></g></g></svg>