<?xml version="1.0" encoding="UTF-8"?><svg id="Layer_2" xmlns="http://www.w3.org/2000/svg" viewBox="0 0 1246 76.21"><defs><style>.cls-1{fill:none;stroke:#221714;stroke-miterlimit:10;stroke-width:.43px;}</style></defs><g id="Layer_1-2"><g><g><path d="M0,45.62H9.03v1.03H1.09v18.14H0v-19.17Z"/><path d="M31.36,54.35c.09,3.22,.44,6.34,1.24,9.03,1.06-2.12,1.89-4.54,2.39-7.29l2.92,.86c-.12,.35-.47,.62-1.15,.59-.83,3.13-1.95,5.75-3.39,7.94,.77,1.71,1.83,3.16,3.22,4.19,.41,.38,.59,.38,.83-.15,.3-.62,.74-1.89,1.06-2.95l.35,.06-.38,3.92c.74,1,.8,1.39,.56,1.71-.59,.85-2.18,.15-3.27-.74-1.5-1.18-2.66-2.66-3.57-4.4-2.01,2.51-4.51,4.34-7.43,5.61l-.35-.41c1.59-.94,3.07-2.09,4.4-3.45h-8.91v1.39c0,.15-.53,.62-1.42,.62h-.27v-15.19l2.04,.91h5.84l1.06-1.36s1.24,1,2.04,1.74c-.09,.32-.38,.47-.77,.47h-4.13v2.68h2.01l.91-.94,2.07,1.53c-.15,.21-.56,.44-1.06,.53v3.89c-.03,.18-.89,.56-1.42,.56h-.24v-1.03h-2.27v3.33h2.04l1.09-1.42s1.18,.91,1.95,1.65c.77-.83,1.47-1.77,2.09-2.77-1.21-3.13-1.77-6.93-1.98-11.12h-12.8v4.13c0,4.13-.32,10.06-4.42,14.19l-.38-.35c2.71-4.19,2.95-9.26,2.95-13.81v-6.02l2.21,.97h12.42c-.03-.56-.03-1.12-.06-1.68-.18,.06-.41,.09-.68,.09h-.32v-2.3h-5.78v1.89c0,.21-.8,.5-1.56,.5h-.3v-2.39H12.22l-.15-.86h8.64v-3.01l2.92,.3c-.06,.41-.32,.71-1.06,.8v1.92h5.78v-3.01l2.95,.3c-.06,.41-.29,.71-1.06,.8v1.92h4.9l1.36-1.71s1.56,1.21,2.48,2.09c-.06,.32-.32,.47-.74,.47h-7.99v1.33l2.04,.24c-.06,.35-.3,.68-.94,.8v1.53h4.63l1.21-1.56s1.42,1.12,2.27,1.98c-.09,.32-.35,.47-.74,.47h-7.35Zm-11.51,3.1v2.68h2.71v-2.68h-2.71Zm0,3.57v2.83h6.67v-2.83h-6.67Zm0,6.99h2.71v-3.33h-2.71v3.33Zm12.69-18.14c4.66,.86,3.39,3.98,1.77,2.95-.27-.94-1.21-2.06-2.09-2.71l.32-.24Z"/><path d="M66.86,49.46s1.65,1.27,2.65,2.24c-.09,.32-.32,.44-.74,.44h-26.14l-.24-.86h9.7c-.24,0-.5-.12-.77-.3-.29-1.68-1.8-3.75-3.13-4.93l.32-.24c5.55,1.77,5.22,5.37,3.69,5.46h5.81c1.03-1.65,2.18-3.89,2.86-5.52l3.13,.91c-.15,.32-.5,.56-1.18,.53-.91,1.24-2.45,2.8-3.89,4.07h6.4l1.5-1.83Zm-13.51,4.54l2.48,1.86c-.21,.21-.71,.47-1.27,.56v13.72c0,1.51-.3,2.39-2.68,2.63-.03-.56-.18-1.03-.5-1.3-.32-.29-.89-.53-1.89-.65v-.47s2.12,.18,2.65,.18c.41,0,.53-.18,.53-.56v-4.81h-5.69v6.93c0,.21-.74,.68-1.56,.68h-.32v-18.5l2.04,.91h5.25l.97-1.18Zm-6.37,2.07v3.57h5.69v-3.57h-5.69Zm5.69,8.2v-3.75h-5.69v3.75h5.69Zm8.82-9.17c-.06,.41-.35,.71-1.09,.83v11.8c0,.24-.8,.65-1.47,.65h-.35v-13.6l2.92,.32Zm3.39-.97l2.92,.32c-.09,.38-.35,.65-1.03,.74v14.84c0,1.53-.35,2.48-3.07,2.71-.09-.53-.27-1-.68-1.27-.44-.32-1.18-.56-2.51-.71v-.47s3.04,.24,3.69,.24c.53,0,.68-.18,.68-.62v-15.78Z"/><path d="M81.5,72.94h-9.03v-1.03h7.94v-18.14h1.09v19.17Z"/><path d="M108.93,59.43c2.8,13.25-5.13,11.85-2.85,8.3,1.31-1.54,2.05-4.53,2.1-8.3h.75Zm18.66-4.48c-.33,.37-.89,.56-1.82,.7-.47,9.19-1.68,13.95-3.55,15.54-1.07,.98-2.57,1.35-4.15,1.35,0-.75-.14-1.49-.61-1.91-.47-.42-1.73-.75-2.94-.98v-.79c1.4,.09,3.59,.28,4.43,.28,.75,0,1.12-.09,1.54-.42,1.17-1.03,2.1-5.37,2.57-13.39h-11.71v1.49c0,.23-.89,.98-2.29,.98h-.42v-24.49l3.31,1.4h9.89l2.05-2.43s2.29,1.73,3.73,3.08c-.14,.51-.56,.75-1.21,.75h-7.88v4.94h3.22l1.73-2.29s2.15,1.68,3.36,2.89c-.09,.51-.56,.75-1.17,.75h-7.14v5.04h3.03l1.77-2.24s2.1,1.63,3.36,2.89c-.14,.51-.56,.75-1.17,.75h-7v5.13h4.11l1.63-1.73,3.31,2.71Zm-15.91,4.01c4.48,5.97,1.63,10.96-.28,8.63,.51-2.71,.14-6.21-.42-8.44l.7-.19Zm-.33-22.86v4.94h4.53v-4.94h-4.53Zm4.53,6.3h-4.53v5.04h4.53v-5.04Zm-4.53,11.57h4.53v-5.13h-4.53v5.13Zm3.08,4.2c5.97,4.57,3.59,9.24,1.54,7.19,0-2.15-1.17-5.09-2.15-6.9l.61-.28Zm2.94-1.03c6.53,2.29,4.53,7,2.33,5.27-.28-1.63-1.63-3.73-2.89-4.9l.56-.37Zm19.22-6.21c1.96,8.68,6.25,16.66,12.97,19.92l-.09,.51c-1.17,.23-2.19,1.17-2.61,2.71-6.48-4.62-9.61-12.55-11.2-23.14h-2.94c-.19,7.93-1.35,16.94-8.3,23.19l-.7-.47c5.41-7,6.07-15.91,6.07-24.82v-15.54l3.5,1.49h10.22l1.63-1.82,3.69,2.85c-.23,.37-1.03,.75-1.91,.89v15.86c-.05,.28-1.59,.98-2.52,.98h-.42v-2.61h-7.37Zm-3.87-1.4h11.24v-13.39h-11.24v13.39Z"/><path d="M169.2,42.91c-.28,.51-.75,.7-1.87,.51-1.03,1.63-2.43,3.5-4.01,5.41l1.31,.51c-.19,.42-.65,.7-1.4,.84v22.86c-.05,.28-1.26,1.07-2.43,1.07h-.56v-21.79c-1.91,2.01-3.97,3.97-6.06,5.6l-.56-.56c4.43-4.76,8.91-11.9,11.1-16.66l4.48,2.19Zm-.98-9.14c-.28,.47-.75,.65-1.77,.42-2.61,3.03-7.28,7.14-11.99,9.7l-.51-.61c3.87-3.27,8.07-8.35,10.03-11.9l4.25,2.38Zm15.49,35.27c2.15,.56,4.62,.79,7.46,.79,1.54,0,4.76,0,6.58-.05v.65c-1.07,.19-1.59,1.21-1.63,2.47h-5.27c-9,0-14.18-2.61-17.17-12.6-1.4,5.13-3.83,10.26-8.16,13.72l-.51-.51c4.67-5.37,6.44-14.14,6.77-21.46l4.85,.89c-.14,.65-.65,1.03-1.68,1.07-.23,1.54-.51,3.17-.89,4.81,1.59,4.62,3.73,7.42,6.67,9.05v-19.04l4.48,.47c-.09,.61-.47,1.07-1.49,1.21v6.58h5.83l2.15-2.71s2.43,1.96,3.97,3.31c-.14,.51-.61,.75-1.26,.75h-10.68v10.59Zm-13.72-30.51h9.89v-6.86l4.57,.47c-.09,.61-.51,1.03-1.54,1.21v5.18h6.16l2.15-2.66s2.43,1.87,3.97,3.31c-.14,.51-.56,.75-1.21,.75h-11.06v7.23h8.16l2.15-2.71s2.47,1.91,4.01,3.36c-.14,.51-.56,.75-1.21,.75h-28.04l-.37-1.4h12.27v-7.23h-9.52l-.37-1.4Z"/><path d="M240.72,43.24s2.66,2.05,4.29,3.55c-.14,.51-.56,.75-1.26,.75h-41.06l-.37-1.4h8.96v-11.24l4.48,.47c-.09,.61-.51,1.03-1.54,1.21v9.56h7.93v-14.79l4.76,.51c-.09,.65-.56,1.12-1.68,1.26v5.27h8.02l2.29-2.85s2.57,2.05,4.2,3.45c-.09,.51-.61,.75-1.26,.75h-13.25v6.39h13.11l2.38-2.89Zm-22.67,8.54c-.23,.42-.65,.65-1.73,.47-2.75,3.69-7.84,8.21-13.44,10.92l-.42-.61c4.67-3.41,9.19-8.86,11.29-13.06l4.29,2.29Zm-13.9,21.41c12.04-2.38,21.46-5.79,29.02-16.52l4.15,2.43c-.28,.47-.79,.56-1.96,.33-8.44,10.12-18.06,13.11-31.03,14.65l-.19-.89Zm11.48-12.88s4.62,.33,5.55,.33c.75,0,.98-.23,.98-.89v-11.99l4.62,.51c-.14,.65-.56,.93-1.54,1.12v10.54c0,2.43-.56,3.92-4.81,4.34-.14-.89-.37-1.68-1.03-2.15-.65-.51-1.73-.89-3.78-1.12v-.7Zm15.4-10.12c14.46,3.78,13.62,11.71,9.84,9.94-1.73-3.27-6.63-7.23-10.26-9.42l.42-.51Z"/><path d="M264.01,30.06c4.24-2.26,9.14-3.58,15.08-3.58,15.27,0,23.28,8.95,23.28,22.05,0,14.04-9.71,23.75-26.48,23.75-11.5,0-20.07-4.99-21.58-14.04,.66-1.79,2.17-2.64,3.77-2.64,2.26,0,3.39,1.23,4.15,4.15l2.07,6.78c3.11,1.51,6.41,2.17,11.5,2.17,10.93,0,17.81-7.35,17.81-19.6s-6.97-18.38-17.53-18.38c-4.99,0-9.33,1.41-14.14,4.34l-2.26-.85,2.54-34.21h37.69V6.78h-34.3l-1.6,23.28Z"/><path d="M330.76,33.26c-.19,.51-.61,.79-1.77,.65-3.03,6.39-8.86,14.04-17.08,18.43l-.42-.61c6.95-5.09,12.22-13.44,14.56-20.3l4.71,1.82Zm13.58,14.56l3.59,2.99c-.33,.33-.93,.61-1.87,.7-.61,10.26-1.96,18.33-4.2,20.48-1.35,1.26-3.22,1.87-5.51,1.82,0-.89-.23-1.73-1.03-2.24-.75-.51-3.22-1.07-5.32-1.4l.05-.79c2.38,.23,6.53,.61,7.7,.61,.98,0,1.4-.14,1.91-.61,1.63-1.35,2.75-8.91,3.27-18.24h-11.38c-.79,7.74-3.27,16.47-17.64,22.95l-.61-.75c12.6-6.95,14.46-15.3,14.88-22.21h-9.8l-.42-1.4h24.59l1.77-1.91Zm-6.3-16.52c2.94,7.23,10.31,13.76,17.03,17.03l-.14,.51c-1.26,.09-2.29,.93-2.89,2.43-6.3-4.25-12.18-11.29-14.79-19.5l.79-.47Z"/><path d="M417.36,46.45c-.06,.35-.44,.47-1.18,.56,2.66,3.83,7.58,7.14,12.77,9.38l-.06,.41c-.88,.18-1.62,.86-1.83,1.59-4.78-2.57-9.29-6.64-11.42-11.03-2.83,4.4-8.67,9.47-14.16,12.12l-.27-.41c4.96-2.95,11-9.17,12.63-13.54l3.51,.91Zm7.97,22.54s1.68,1.27,2.74,2.24c-.09,.32-.41,.44-.83,.44h-24.87l-.27-.83h11.74v-6.34h-7.73l-.24-.83h7.96v-5.6h-7.29l-.21-.86h13.78l1.36-1.59s1.53,1.12,2.48,1.98c-.06,.32-.38,.47-.77,.47h-7.38v5.6h5.19l1.45-1.68s1.56,1.18,2.6,2.06c-.09,.3-.38,.44-.8,.44h-8.44v6.34h7.99l1.5-1.86Z"/><path d="M453.95,51.96l2.42,1.83c-.18,.24-.65,.47-1.24,.62v8.55c-.03,.21-1.06,.65-1.68,.65h-.29v-2.01h-15.49c-.32,3.86-1.56,8.17-5.87,11.21l-.38-.33c3.81-4.01,4.37-9,4.37-13.72v-6.67l2.36,1.03h14.72l1.09-1.18Zm1.71-5.58s1.68,1.27,2.74,2.24c-.06,.32-.35,.47-.77,.47h-24.9l-.27-.88h21.68l1.5-1.83Zm-2.51,14.34v-6.7h-15.37v4.72c0,.62,0,1.3-.06,1.98h15.43Z"/><path d="M484.22,57.77v6.11h1.27l1.27-1.77s1.5,1.24,2.39,2.15c-.09,.3-.32,.44-.74,.44h-25.87l-.24-.83h4.57v-6.11h-4.54l-.24-.83h4.78v-5.46c-1.36,1.42-2.86,2.57-4.34,3.42l-.35-.35c2.18-1.95,4.6-5.28,6.14-8.88l2.92,1.36c-.18,.27-.56,.47-1.21,.38-.5,.83-1.03,1.59-1.62,2.33l.53,.24h15.72l1.42-1.77s1.56,1.27,2.51,2.15c-.06,.33-.35,.47-.77,.47h-3.6v6.11h1.36l1.33-1.77s1.56,1.24,2.48,2.12c-.06,.33-.32,.47-.74,.47h-4.42Zm-16.96,8.08c.65,3.63-1.06,5.72-2.48,6.49-.83,.53-1.92,.56-2.24-.12-.24-.59,.15-1.15,.77-1.53,1.53-.65,3.3-2.45,3.45-4.87l.5,.03Zm1.39-8.91h3.24v-6.11h-3.24v6.11Zm0,6.93h3.24v-6.11h-3.24v6.11Zm2.54,2.27c4.4,3.81,2.21,7.76,.62,5.93,.18-1.86-.38-4.22-1.03-5.78l.41-.15Zm2.48-15.31v6.11h3.48v-6.11h-3.48Zm0,6.93v6.11h3.48v-6.11h-3.48Zm2.95,8.32c5.99,3.22,4.34,7.52,2.48,5.9-.21-1.83-1.65-4.22-2.83-5.66l.35-.24Zm2.36-15.25v6.11h3.42v-6.11h-3.42Zm3.42,6.93h-3.42v6.11h3.42v-6.11Zm0,7.97c8.35,2.95,7.08,8.26,4.72,6.73-.59-2.18-3.04-4.93-5.07-6.46l.35-.27Z"/><path d="M502.55,61.96c-1.98,1.33-4.84,3.24-8.53,5.52-.09,.32-.29,.65-.59,.77l-1.24-2.45c.86-.29,2.36-.88,4.22-1.65v-9.29h-3.51l-.21-.86h3.72v-7.73l2.98,.32c-.06,.41-.35,.68-1.09,.8v6.61h1.21l1.24-1.74s1.42,1.24,2.27,2.15c-.09,.29-.38,.44-.77,.44h-3.95v8.5c1.3-.56,2.71-1.15,4.1-1.77l.15,.38Zm14.57-9.09s1.62,1.3,2.6,2.21c-.09,.32-.35,.47-.77,.47h-13.75v1.06c0,5.16-.62,11.5-6.55,15.78l-.41-.38c4.37-4.42,5.07-9.91,5.07-15.4v-8.44l2.54,.94c3.75-.77,7.82-2.01,10.06-3.04l2.48,2.3c-.3,.24-.86,.24-1.56-.03-2.98,.71-7.46,1.33-11.62,1.53v4.78h10.53l1.39-1.8Zm-.44,6.52l2.39,1.86c-.21,.27-.68,.5-1.3,.59v9.97c-.03,.21-.94,.68-1.59,.68h-.3v-2.63h-7.96v2.18c0,.21-.74,.65-1.53,.65h-.32v-13.01l2.01,.91h7.52l1.09-1.21Zm-.8,9.62v-7.52h-7.96v7.52h7.96Z"/><path d="M530.4,56.42c6.46,2.54,4.87,6.64,2.89,5.19-.38-1.48-1.74-3.39-2.89-4.63v15.13c0,.24-.77,.71-1.47,.71h-.41v-14.28c-1.33,3.04-3.19,5.78-5.52,8.08l-.41-.38c2.68-3.48,4.51-8.2,5.52-12.83h-4.63l-.24-.88h5.28v-6.78l2.95,.35c-.06,.44-.3,.71-1.06,.83v5.6h1.8l1.3-1.68s1.53,1.21,2.42,2.09c-.09,.32-.35,.47-.74,.47h-4.78v3.01Zm17.38-5.63s1.48,1.27,2.36,2.12c-.09,.32-.35,.47-.74,.47h-4.1v16.55c0,1.56-.35,2.51-3.27,2.77-.12-.56-.3-1-.74-1.24-.53-.32-1.33-.53-2.89-.74v-.47s3.51,.27,4.19,.27c.62,0,.8-.21,.8-.71v-12.92c-2.36,4.42-5.87,8.29-10.29,11.15l-.35-.41c4.48-3.63,7.99-9.03,9.88-14.25h-6.25l-.24-.86h7.26v-6.76l3.01,.32c-.09,.44-.35,.71-1.09,.83v5.6h1.24l1.24-1.74Z"/><path d="M557.78,52.29c1.68,0,11.06-1,12.48-1.3,.77-.18,1.15-.65,1.65-.65,.86,0,2.92,1.53,2.92,2.36,0,.65-.94,1.15-1.36,2.12-3.1,7.35-8.38,12.86-17.08,16.2l-.44-.71c8.44-4.25,13.86-10.56,15.69-17.46,.12-.44-.06-.5-.35-.5-1.3,0-9.68,1.18-11.36,1.56-.8,.18-1.45,.77-2.01,.77-.88,0-2.27-1.42-2.57-2.15-.15-.41-.24-.86-.29-1.68l.56-.21c.47,.71,1.12,1.65,2.15,1.65Z"/><path d="M595.4,52.7c1.03-.09,1.15-.74,1.71-.74,.74,0,2.77,1.65,2.77,2.36s-.91,.88-1.09,1.68c-.27,1.3-.91,5.28-1.5,8.5,1.06,.09,1.8,.5,1.8,1.06,0,.5-.24,.86-.86,.86s-2.21-.18-3.57-.18c-2.3,0-6.28,.21-9.82,.41,.03,.38,.03,.74,.03,1.18,0,.74-.27,1.09-.88,1.09-.56,0-1.21-.8-1.21-2.01,0-.59,.09-2.42,.09-3.69-.03-2.21-.38-6.43-.83-8.17-.27-1.06-.77-1.74-1.59-2.48l.41-.5c1.24,.35,2.21,.65,3.19,1.53,2.92-.12,10.21-.77,11.36-.91Zm.03,11.8c.56-3.36,1.24-8.35,1.24-10,0-.24-.09-.32-.35-.32-1.89,0-6.84,.38-8.47,.56-.97,.09-1.8,.38-2.33,.38-.32,0-.77-.18-1.18-.38,.09,1.8,.35,7.17,.47,10.44,3.16-.21,7.88-.56,10.62-.68Z"/><path d="M607.41,58.01c.65,1,1.12,1.92,2.36,1.92,2.63,0,12.95-.68,14.31-.74,1.98-.15,2.8-.32,3.57-.32,1.12,0,2.45,.5,2.45,1.3,0,.53-.3,.86-1.3,.86s-2.06-.06-3.86-.06-10.15,.44-12.36,.71c-1.68,.18-2.01,.62-2.86,.62s-2.21-1.45-2.63-2.45c-.21-.56-.24-1.06-.27-1.65l.59-.18Z"/><path d="M636.88,50.81v-.59c.59-.18,1.21-.33,1.68-.33,1.09,0,2.89,1.06,2.89,1.8,0,.56-.35,.86-.44,1.95-.09,1.27-.03,7.76-.03,8.97,0,1.12-.41,1.48-.94,1.48-.65,0-1.15-.91-1.15-2.01,0-.8,.24-1.95,.3-4.37,0-1.36-.06-4.25-.18-5.34-.06-.71-.09-.94-.59-1.15-.44-.21-.91-.29-1.53-.41Zm3.39,21.33l-.38-.65c5.75-3.04,8.53-6.99,8.88-13.04,.15-2.68,.21-5.19,.09-7.23-.06-.5-.12-.91-.65-1.21-.33-.18-1-.3-1.77-.38l-.03-.59c.65-.3,1.47-.56,2.01-.56,1.12,0,3.07,1.15,3.07,1.77s-.5,.8-.56,1.74c-.06,1.74-.18,4.72-.27,6.55-.33,6.84-3.72,11.09-10.38,13.6Z"/><path d="M680.84,53.11l.68,.44c-3.54,6.28-9.03,11-15.49,15.13-.59,.35-.91,1.09-1.56,1.09-1.15,0-2.92-1.39-3.51-2.27-.29-.5-.56-1.45-.62-1.92l.47-.3c.89,.97,1.83,1.92,2.77,1.92,2.27,0,13.07-7.82,17.26-14.1Zm-19.82-2.77c3.36,.94,7.43,2.95,7.43,5.22,0,.65-.41,1.09-1.03,1.09-.47,0-.86-.32-1.62-1.24-1.42-1.71-2.54-2.74-5.13-4.45l.35-.62Z"/><path d="M692.06,48.16c.53,0,1.12,0,1.77,.12,1.15,.27,2.71,1.15,2.71,1.68,0,.5-.41,.8-.86,1.53-.33,.53-.65,1.09-1,1.59,.21,.03,.38,.03,.56,.03,1.42,0,5.04-.41,5.87-.56,.8-.18,1-.68,1.5-.68,.71,0,2.57,1.21,2.57,1.98,0,.59-.97,.77-1.39,1.53-4.04,7.35-10.03,13.42-18.35,16.87l-.44-.65c7.58-3.95,14.51-11.56,16.81-17.4,.15-.35,.03-.44-.24-.44-.65,0-3.66,.47-4.72,.68-.62,.15-1.24,.38-1.65,.38-.33,0-.8-.3-1.27-.71-2.33,3.13-5.28,5.78-8.73,7.67l-.44-.62c4.6-3.3,8.94-9.32,8.94-11.03,0-.5-.77-.97-1.8-1.42l.15-.56Zm11.06,.35c1.53,.59,2.66,1.24,3.39,1.92,.74,.71,1,1.21,1,1.8,0,.47-.27,.77-.71,.77-.41,0-.77-.65-1.36-1.42-.62-.74-1.42-1.65-2.71-2.6l.38-.47Zm2.54-1.86c1.53,.53,2.63,1.18,3.36,1.71,.8,.62,1.12,1.21,1.12,1.83,0,.5-.27,.77-.68,.77-.5,0-.8-.68-1.45-1.42-.65-.74-1.36-1.42-2.71-2.39l.35-.5Z"/><path d="M781.07,63.43c0,4.53-3.9,7.64-9.19,7.64s-9.24-2.6-9.24-7.31c0-3.48,2.31-5.75,6.72-7.93-4.03-2.14-5.71-4.87-5.71-8.02,0-4.66,3.69-7.52,8.31-7.52s7.68,2.9,7.68,7.05c0,2.31-1.34,5-5.58,7.39,4.87,2.31,7.01,4.74,7.01,8.69Zm-3.19,.29c0-2.77-1.72-4.7-7.14-7.22-3.32,1.97-4.95,3.78-4.95,6.93,0,3.57,2.43,6,6.17,6s5.92-2.43,5.92-5.71Zm-5.21-9.61c2.98-2.06,4.16-3.95,4.16-6.68,0-2.98-1.76-5.42-4.95-5.42-2.77,0-5.21,1.89-5.21,4.95,0,2.56,1.26,4.91,6,7.14Z"/><path d="M787.41,63.5c1.77,8.38-3.24,7.49-1.8,5.25,.83-.97,1.3-2.86,1.33-5.25h.47Zm11.8-2.83c-.21,.24-.56,.35-1.15,.44-.3,5.81-1.06,8.82-2.24,9.82-.68,.62-1.62,.86-2.63,.86,0-.47-.09-.94-.38-1.21-.3-.27-1.09-.47-1.86-.62v-.5c.88,.06,2.27,.18,2.8,.18,.47,0,.71-.06,.97-.27,.74-.65,1.33-3.39,1.62-8.47h-7.4v.94c0,.15-.56,.62-1.45,.62h-.27v-15.49l2.09,.89h6.25l1.3-1.53s1.45,1.09,2.36,1.95c-.09,.32-.35,.47-.77,.47h-4.99v3.13h2.04l1.09-1.45s1.36,1.06,2.12,1.83c-.06,.32-.35,.47-.74,.47h-4.51v3.19h1.92l1.12-1.42s1.33,1.03,2.12,1.83c-.09,.32-.35,.47-.74,.47h-4.42v3.24h2.6l1.03-1.09,2.09,1.71Zm-10.06,2.54c2.83,3.78,1.03,6.93-.18,5.46,.32-1.71,.09-3.92-.27-5.34l.44-.12Zm-.21-14.45v3.13h2.86v-3.13h-2.86Zm2.86,3.98h-2.86v3.19h2.86v-3.19Zm-2.86,7.32h2.86v-3.24h-2.86v3.24Zm1.95,2.66c3.78,2.89,2.27,5.84,.97,4.54,0-1.36-.74-3.22-1.36-4.37l.38-.18Zm1.86-.65c4.13,1.45,2.86,4.42,1.48,3.33-.18-1.03-1.03-2.36-1.83-3.1l.35-.24Zm12.15-3.92c1.24,5.49,3.95,10.53,8.2,12.6l-.06,.32c-.74,.15-1.39,.74-1.65,1.71-4.1-2.92-6.08-7.94-7.08-14.63h-1.86c-.12,5.02-.86,10.71-5.25,14.66l-.44-.3c3.42-4.42,3.83-10.06,3.83-15.69v-9.82l2.21,.94h6.46l1.03-1.15,2.33,1.8c-.15,.24-.65,.47-1.21,.56v10.03c-.03,.18-1,.62-1.59,.62h-.27v-1.65h-4.66Zm-2.45-.88h7.11v-8.47h-7.11v8.47Z"/><path d="M820.91,52.73c1.55-.46,3.02-.71,4.74-.71,5.79,0,9.74,3.32,9.74,9.24s-4.11,9.82-10.45,9.82c-4.45,0-7.43-2.02-8.4-6.05,.34-.92,1.05-1.39,1.97-1.39,1.18,0,1.68,.59,2.23,2.56l.84,2.73c1.05,.29,2.01,.46,3.11,.46,4.74,0,7.35-3.02,7.35-7.72s-2.9-7.47-7.35-7.47c-1.55,0-3.11,.21-4.58,.71l-1.18-.25,.96-13.73h14.74v3.15h-13.1l-.63,8.65Z"/><path d="M846.8,68.01c1.47-.35,3.07-.77,4.69-1.18l.12,.44c-2.51,1.06-5.9,2.51-10.41,4.22-.09,.32-.38,.59-.65,.68l-1-2.48c.47-.09,1.09-.21,1.86-.38v-10.38l2.6,.27c-.06,.33-.32,.59-.91,.68v9.06l1.89-.44v-12.71h-1.83v.83c0,.15-.59,.59-1.5,.59h-.3v-10.32l2.15,.94h4.42l1.03-1.12,2.3,1.74c-.21,.24-.68,.47-1.24,.59v7.26c-.06,.15-.94,.53-1.53,.53h-.27v-1.03h-1.42v4.6h1.15l1.24-1.65s1.42,1.15,2.27,2.04c-.09,.32-.35,.47-.77,.47h-3.89v6.79Zm-3.66-13.13h5.07v-6.22h-5.07v6.22Zm21.51-4.99c-.24,.27-.53,.35-1.24,.38-.97,2.24-2.3,4.34-4.01,6.22,2.06,1.74,4.69,3.1,7.99,3.98l-.09,.32c-.74,.21-1.36,.68-1.53,1.59-3.19-1.21-5.55-2.83-7.38-4.84-1.48,1.45-3.24,2.77-5.25,3.89l1.77,.71h6.84l.94-1.12,2.12,1.65c-.21,.21-.44,.38-1.06,.47v8.94c0,.15-.74,.59-1.62,.59h-.3v-1.98h-7.26v1.45c0,.15-.59,.59-1.56,.59h-.3v-11.09c-1.09,.59-2.27,1.09-3.54,1.56l-.3-.44c3.42-1.59,6.31-3.81,8.53-6.4-.97-1.27-1.77-2.68-2.45-4.22-1.24,1.71-2.63,3.16-4.16,4.22l-.41-.35c2.24-2.3,4.34-6.14,5.52-10.32l2.86,1c-.15,.32-.5,.56-1.15,.53-.27,.68-.56,1.33-.88,1.95h4.57l1.27-1.21,2.07,1.92Zm-10.06,13.16v6.81h7.26v-6.81h-7.26Zm1.74-13.04c-.3,.53-.62,1.03-.91,1.5,.77,1.42,1.68,2.74,2.83,3.89,1.3-1.68,2.33-3.51,3.1-5.4h-5.02Z"/><path d="M877.72,46.83c-.15,.33-.5,.53-1.12,.5-.97,1.56-2.15,3.27-3.24,4.54,2.12,1.74,.97,3.81-.44,2.8-.32-1.33-1.59-2.95-2.68-3.89l.3-.24c.91,.27,1.62,.56,2.18,.91,.68-1.59,1.48-3.81,2.09-5.72l2.92,1.09Zm-7.43,23.3c.77-2.01,1.45-4.93,1.74-7.67l2.66,.65c-.12,.38-.44,.65-1.03,.65-.68,2.42-1.65,4.96-2.89,6.61l-.47-.24Zm7.43-14.57c5.13,2.92,3.33,6.58,1.65,5.07-.06-.5-.18-1.06-.38-1.62-.62,.12-1.3,.27-2.07,.41v12.74c0,.15-.65,.59-1.56,.59h-.27v-13.01c-.94,.18-2.01,.35-3.13,.53-.21,.38-.47,.56-.77,.62l-.83-2.24c.65,0,1.59-.03,2.74-.06,1.71-2.83,3.78-6.67,5.04-9.44l2.74,1.27c-.18,.3-.59,.5-1.18,.41-1.39,2.15-3.66,5.25-5.78,7.73,1.45-.06,3.1-.12,4.81-.21-.41-.97-.94-1.92-1.42-2.63l.38-.18Zm.53,6.64c4.57,3.33,2.66,6.9,1.06,5.31,0-1.62-.77-3.78-1.45-5.16l.38-.15Zm9.53,.29c-.24,.27-.5,.33-1.15,.35-1.03,3.33-3.13,6.49-6.9,8.44l-.27-.44c2.77-1.98,4.51-5.02,5.28-8.14h-3.86l-.27-.86h4.04l1.12-1.09,2.01,1.74Zm9.76-1.18c-.12,.24-.53,.44-1.09,.24-.91,.77-2.54,1.95-4.07,2.83,1.56,2.3,3.54,3.72,5.63,4.75l-.06,.35c-.74,.15-1.27,.77-1.56,1.68-3.39-2.51-5.66-5.69-6.73-12.1v10.83c0,1.5-.32,2.57-2.8,2.86-.03-.56-.18-1.09-.53-1.39-.41-.32-1.12-.59-2.33-.74v-.44s2.71,.21,3.27,.21c.47,0,.59-.15,.59-.56v-11.48h-3.54v.8c0,.18-.62,.56-1.56,.56h-.27v-11.5l2.15,.94h2.09c.24-1,.53-2.42,.74-3.42l3.07,.62c-.12,.41-.47,.65-1.06,.65-.47,.62-1.15,1.45-1.71,2.15h5.63l.94-1.15,2.09,1.65c-.18,.21-.47,.35-1.09,.47v8.79c0,.15-.68,.56-1.56,.56h-.3v-1.12h-3.54c.47,2.24,1.21,4.07,2.12,5.55,1.15-1.33,2.51-3.22,3.13-4.31l2.33,1.71Zm-13.22-11.33v3.33h9.17v-3.33h-9.17Zm9.17,7.52v-3.33h-9.17v3.33h9.17Z"/><path d="M914.66,53.11s1.53,1.27,2.48,2.15c-.09,.32-.35,.47-.77,.47h-6.08v2.15c7.38,3.16,5.99,7.61,3.92,6.14-.5-1.8-2.36-4.04-3.92-5.55v13.63c0,.18-.68,.65-1.59,.65h-.32v-13.66c-1.89,3.42-4.48,6.43-7.67,8.82l-.38-.41c3.25-3.1,5.81-7.52,7.35-11.77h-6.22l-.24-.86h7.17v-5.37c-2.27,.44-4.72,.8-7.05,1l-.12-.53c4.54-.86,9.94-2.71,12.66-4.22l2.45,2.15c-.27,.27-.83,.27-1.53,0-1.24,.41-2.8,.83-4.48,1.21v5.75h2.98l1.39-1.77Zm5.28,13.04c0,.27-.8,.68-1.5,.68h-.35v-18.55l2.92,.32c-.09,.41-.35,.71-1.06,.8v16.76Zm7.49-19.5c-.09,.41-.38,.68-1.09,.77v22.42c0,1.62-.35,2.6-3.16,2.89-.12-.62-.3-1.12-.65-1.42-.5-.35-1.3-.59-2.68-.8v-.44s3.22,.27,3.84,.27,.77-.21,.77-.68v-23.36l2.98,.35Z"/><path d="M956.64,48.54c-.21,.27-.74,.53-1.39,.68v20.62c0,1.59-.29,2.57-3.16,2.86-.09-.62-.27-1.15-.68-1.42-.44-.32-1.24-.59-2.63-.77v-.47s3.16,.27,3.81,.27c.56,0,.71-.21,.71-.68v-6.93h-7.58v9.17c0,.15-.62,.62-1.62,.62h-.3v-9.79h-7.38c-.5,3.66-1.83,7.29-4.99,10.03l-.41-.3c3.39-4.37,3.83-9.91,3.83-15.55v-9.97l2.27,.94h15.87l1.03-1.3,2.6,1.98Zm-12.83,13.3v-6.2h-7.02v1.21c0,1.59-.03,3.27-.24,4.99h7.26Zm-7.02-13.1v6.02h7.02v-6.02h-7.02Zm8.94,0v6.02h7.58v-6.02h-7.58Zm7.58,13.1v-6.2h-7.58v6.2h7.58Z"/><path d="M985.79,46.15s1.71,1.3,2.74,2.3c-.06,.32-.32,.47-.74,.47h-3.89v20.8c0,1.56-.38,2.74-3.54,3.04-.06-.62-.32-1.15-.83-1.42-.62-.35-1.53-.62-3.3-.83v-.44s4.1,.3,4.9,.3c.65,0,.86-.24,.86-.77v-20.68h-20.24l-.24-.88h22.74l1.53-1.89Zm-8.58,8.5c-.21,.24-.68,.47-1.24,.59v9.97c-.03,.18-1,.65-1.65,.65h-.27v-2.27h-7.23v2.77c0,.18-.74,.62-1.53,.62h-.32v-13.86l2.01,.91h6.81l1.03-1.18,2.39,1.8Zm-3.16,8.05v-7.82h-7.23v7.82h7.23Z"/><path d="M1000.49,48.54c6.76,2.63,5.34,6.9,3.27,5.49-.18-.59-.53-1.27-.94-1.95-2.33,.47-5.43,1.09-9.47,1.8-.15,.38-.44,.56-.74,.62l-.94-2.39c.86,0,2.09-.06,3.63-.18,.65-1.95,1.33-4.42,1.71-6.25l3.19,.74c-.12,.35-.47,.62-1.06,.62-.68,1.39-1.77,3.24-2.86,4.84,1.83-.09,3.95-.27,6.17-.41-.71-1-1.56-1.98-2.3-2.68l.35-.24Zm1.92,6.34l2.48,1.89c-.18,.21-.68,.47-1.24,.56v12.66c0,1.56-.27,2.51-2.68,2.74-.03-.59-.18-1.12-.47-1.42-.35-.33-.88-.56-1.86-.71v-.47s2.07,.18,2.57,.18c.44,0,.56-.15,.56-.56v-4.22h-6.08v6.49c0,.21-.74,.68-1.53,.68h-.3v-17.55l1.98,.94h5.63l.94-1.21Zm-6.73,2.09v3.36h6.08v-3.36h-6.08Zm6.08,7.7v-3.48h-6.08v3.48h6.08Zm8.05-6.31c-2.3,0-2.74-.44-2.74-1.92v-10.41l2.77,.32c-.03,.35-.32,.65-.86,.74v4.75c2.54-1.09,5.28-2.86,6.7-4.16l2.33,1.65c-.24,.3-.71,.32-1.42,.15-1.77,.94-4.81,2.24-7.61,2.95v3.6c0,.47,.09,.62,1.18,.62h2.8c1.24,0,2.27,0,2.63-.06,.32-.03,.47-.09,.59-.29,.21-.38,.53-1.71,.83-3.1h.38l.09,3.19c.65,.21,.83,.41,.83,.77,0,.91-.94,1.21-5.43,1.21h-3.07Zm7.94,11.8c.65,.27,.83,.47,.83,.86,0,.88-.97,1.21-5.55,1.21h-3.16c-2.33,0-2.8-.47-2.8-2.01v-10.83l2.83,.32c-.06,.35-.35,.65-.91,.74v4.96c2.63-1.21,5.43-3.16,6.78-4.57l2.51,1.62c-.21,.27-.68,.32-1.39,.18-1.86,1.15-4.96,2.57-7.91,3.39v3.81c0,.47,.12,.62,1.24,.62h2.89c1.27,0,2.3,0,2.71-.03,.32-.03,.47-.12,.56-.35,.24-.41,.56-1.83,.88-3.36h.35l.12,3.45Z"/><path d="M1029.52,47.6c.47-.18,1.18-.35,1.74-.35,.77,0,1.65,.18,2.15,.5,.5,.3,.38,.83-.71,4.6,2.83-.88,3.42-1.59,3.98-1.59,.62,0,1.09,.41,1.09,.89,0,.53-.68,.94-1,1.12-.91,.47-2.68,1.09-4.66,1.5-1.03,3.19-3.16,8.61-5.58,12.12-.41,.59-.77,1.06-1.33,1.06-.59,0-.86-.62-.86-1.15,0-.47,.15-.91,.53-1.42,1.8-2.39,4.28-6.02,5.6-10.33-.8,.12-1.59,.18-2.33,.18-2.21,0-3.21-.83-4.16-2.92l.53-.41c1.27,1.06,1.92,1.71,3.95,1.71,.86,0,1.77-.15,2.51-.32,.27-1.15,.47-2.42,.53-3.19,.03-.62-.12-.86-.62-1.06-.41-.21-.97-.35-1.39-.47v-.47Zm10.56,5.07c1.45-.21,2.95-.09,4.07,.35,1.8,.68,2.71,1.83,2.71,3.01,0,.68-.3,1.06-.86,1.06-.68,0-1.18-.47-2.45-.38-1.03,.12-2.09,.47-2.74,1.15-.65,.65-.77,1.59-.74,2.66,.03,.89,.32,2.74,.56,4.51,1.92,.44,3.48,1.3,4.6,2.06,1.42,.91,2.03,1.74,2.03,2.48,0,.59-.27,.94-.74,.94-.56,0-.91-.5-1.56-1.09-1.12-1.09-2.48-2.07-4.16-2.69,.03,.44,.06,.83,.06,1.18,0,2.45-1.8,3.87-4.81,3.87s-4.72-1.51-4.72-3.22c0-2.24,2.39-3.89,6.31-3.89,.47,0,.91,.03,1.33,.06-.09-1.3-.24-2.63-.24-3.78,0-1.65,.47-2.74,1.42-3.69,.91-.97,2.24-1.45,3.27-1.89,.62-.32,.5-.71,0-1.09-.83-.62-2.04-.88-3.39-.88l.03-.74Zm-.97,13.6c-.8-.15-1.62-.24-2.54-.24-2.68,0-4.1,1.12-4.1,2.18s1,1.86,3.16,1.86c2.83,0,3.48-1.42,3.48-3.16v-.65Z"/><path d="M1054.1,50.02c.59,.88,1,1.62,1.86,1.62,1.89,0,13.33-1.24,15.04-1.51,.62-.09,.89-.5,1.39-.5,.8,0,2.89,1.8,2.89,2.63,0,.68-1.18,.8-1.83,1.3-1.27,.94-3.89,2.83-6.58,4.34,0,.15-.03,.3-.09,.47-2.21,6.02-5.28,10.15-11.5,13.33l-.47-.62c5.84-3.57,9.47-10.59,9.47-12.6,0-.88-1.09-1.33-2.39-1.77l.15-.65c.86,0,1.36,0,1.89,.12,.94,.15,1.77,.44,2.3,.8,2.27-1.59,4.66-3.6,5.52-4.81,.38-.56,.27-.68-.35-.68-1.42,0-9.79,1.18-13.1,1.83-1.15,.24-1.18,.77-1.89,.77s-2.09-1.18-2.54-2.09c-.24-.5-.3-1.12-.38-1.8l.62-.18Z"/><path d="M1085.52,47.74c.53,0,1.12,0,1.77,.12,1.15,.27,2.71,1.15,2.71,1.68,0,.5-.41,.8-.85,1.53-.33,.53-.65,1.09-1,1.59,.21,.03,.38,.03,.56,.03,1.42,0,5.04-.41,5.87-.56,.8-.18,1-.68,1.51-.68,.71,0,2.57,1.21,2.57,1.98,0,.59-.97,.77-1.39,1.53-4.04,7.35-10.03,13.42-18.35,16.87l-.44-.65c7.58-3.95,14.51-11.56,16.81-17.4,.15-.35,.03-.44-.24-.44-.65,0-3.66,.47-4.72,.68-.62,.15-1.24,.38-1.65,.38-.33,0-.8-.3-1.27-.71-2.33,3.13-5.28,5.78-8.73,7.67l-.44-.62c4.6-3.3,8.94-9.32,8.94-11.03,0-.5-.77-.97-1.8-1.42l.15-.56Z"/><path d="M1117.95,61.49c1.86-1.92,3.51-4.01,4.42-5.63,.21-.35,.09-.56-.32-.5-1.62,.27-6.14,1.71-8.79,2.6-.12,2.6-.21,5.37-.18,7.11,.06,2.42,.35,2.66,3.95,2.66,4.1,0,5.46-.65,6.14-.65,.8,0,1.98,.35,1.98,1.12,0,.53-.56,.8-1.36,.91-1.33,.27-3.92,.5-5.87,.5-4.63,0-6.4-.27-6.46-4.16-.06-2.04,.03-4.96,.09-6.9-1.42,.47-3.33,1.15-4.57,1.68-1.06,.47-1.09,.89-1.92,.89-.68,0-2.3-1.21-2.68-2.04-.21-.41-.21-1-.18-1.56l.47-.18c.59,.88,1.06,1.47,1.8,1.47,1.03,0,5.1-1.21,7.11-1.83,.06-2.42,.15-5.37,.06-6.55-.06-.74-.94-.91-2.39-1.12l-.03-.56c.8-.27,1.56-.38,2.18-.38,1.06,0,2.98,1.12,2.98,1.77s-.59,1.03-.71,1.92c-.12,.86-.24,2.51-.35,4.42,2.54-.74,6.28-1.77,8.02-2.27,.86-.24,1.06-.77,1.5-.77,.86,0,2.86,1.59,2.86,2.3,0,.62-.86,.71-1.53,1.39-1.24,1.24-3.33,3.27-5.72,4.87l-.5-.5Z"/><path d="M1131.61,55.8l.3-.65c1.5,.38,2.6,.71,3.95,1.24,1.8,.74,2.89,1.8,2.89,2.92,0,.47-.3,.91-.86,.91-.91,0-1.39-1.06-2.92-2.21-1.12-.88-2.12-1.56-3.36-2.21Zm21.77-1.65l.68,.44c-3.36,5.9-9.59,11.06-16.11,14.66-.59,.35-.91,1.12-1.68,1.12-.91,0-2.77-1.24-3.42-2.18-.35-.47-.62-1.53-.65-1.98l.47-.27c.8,.94,1.71,1.95,2.71,1.95,2.01,0,12.68-6.37,17.99-13.75Zm-17.82-4.01l.32-.68c1.12,.3,2.45,.74,3.72,1.27,2.01,1,2.89,1.98,2.89,3.01,0,.53-.32,.97-.86,.97-.83,0-1.42-1.18-2.98-2.45-1-.85-2.24-1.68-3.1-2.12Z"/><path d="M1172.97,52.97c.56,.09,.97,.24,1.39,.5,.8,.56,1.65,1.65,1.65,2.27s-.77,.77-1.89,1.36c-2.09,1.03-6.25,2.95-11.12,4.34-.06,1.77-.09,3.33-.09,4.1,0,2.89,.65,3.1,4.19,3.1,4.66,0,6.67-.94,7.67-.94,1.39,0,2.27,.33,2.27,1,0,.59-.41,.86-.97,1.06-1.21,.35-4.16,.71-8.76,.71-5.28,0-6.05-.89-6.08-5.05-.03-2.63,.32-12.33,.18-13.72-.12-.83-.77-1-2.3-1.21l-.03-.53c.68-.18,1.45-.41,2.09-.38,1.21,.06,2.92,1.18,2.92,1.89,0,.56-.56,.68-.65,1.59-.15,1.27-.3,4.37-.41,7.2,4.01-1.42,7.96-3.36,9.85-4.81,.5-.38,.59-.62,.35-1.12-.15-.35-.44-.71-.71-.97l.44-.38Zm1.8-3.3c1.48,.65,2.57,1.36,3.3,2.07,.68,.71,1,1.21,.97,1.77,0,.5-.35,.86-.8,.8-.44-.03-.71-.71-1.3-1.45-.59-.8-1.39-1.74-2.6-2.68l.41-.5Zm2.51-2.21c1.48,.59,2.6,1.21,3.3,1.83,.77,.65,1.03,1.21,1,1.83,0,.5-.27,.77-.71,.77-.47-.03-.77-.71-1.39-1.48-.65-.74-1.3-1.48-2.6-2.45l.38-.5Z"/><path d="M1186.58,50.81v-.59c.59-.18,1.21-.33,1.68-.33,1.09,0,2.89,1.06,2.89,1.8,0,.56-.35,.86-.44,1.95-.09,1.27-.03,7.76-.03,8.97,0,1.12-.41,1.48-.94,1.48-.65,0-1.15-.91-1.15-2.01,0-.8,.24-1.95,.3-4.37,0-1.36-.06-4.25-.18-5.34-.06-.71-.09-.94-.59-1.15-.44-.21-.91-.29-1.53-.41Zm3.39,21.33l-.38-.65c5.75-3.04,8.53-6.99,8.88-13.04,.15-2.68,.21-5.19,.09-7.23-.06-.5-.12-.91-.65-1.21-.33-.18-1-.3-1.77-.38l-.03-.59c.65-.3,1.47-.56,2.01-.56,1.12,0,3.07,1.15,3.07,1.77s-.5,.8-.56,1.74c-.06,1.74-.18,4.72-.27,6.55-.33,6.84-3.72,11.09-10.38,13.6Z"/><path d="M1209.06,55.3c.56,.8,1.15,1.56,1.92,1.56,2.01,0,9.5-1.12,14.93-1.59,2.06-.21,2.54-.53,2.98-.53,1.21,0,2.89,.65,2.89,1.5,0,.47-.18,.74-.83,.74-.47,0-1.59-.18-3.04-.18-1.33,0-3.81,.06-6.52,.32,.8,.44,1.47,.97,1.47,1.45,0,.59-.68,.71-1,1.59-1.03,3.1-2.92,8.02-10,11.92l-.59-.62c7.11-4.63,8.76-11.36,8.76-12.95,0-.41-.15-.77-.5-1.18-2.45,.3-5.19,.74-6.08,.97-.91,.27-1.68,.59-2.36,.62-.68,.03-2.01-1.15-2.33-1.98-.15-.35-.18-.83-.21-1.45l.5-.21Zm4.51-6.22c1.12,.83,1.89,1.15,2.86,1.15,1.8,0,3.83-.35,5.31-.68,1.74-.38,2.12-.86,2.74-.86,1.27,0,2.24,.44,2.24,1.15,0,.44-.33,.71-1.27,.88-2.27,.41-6.4,1.12-9.03,1.12-1.5,0-2.33-.86-3.3-2.39l.44-.38Z"/><path d="M1242.34,53.91c.5,0,1,0,1.56,.21,.97,.32,2.09,1.36,2.09,2.04,0,.53-.41,.5-1.03,1.12-.83,.91-1.92,2.12-3.33,3.45,.65,.44,1.15,.83,1.15,1.18,0,.32-.21,.65-.24,1.24-.12,3.21,.03,6.55,.03,7.82,0,.88-.27,1.24-.85,1.24-.86,0-1.33-1.09-1.33-1.98,0-.38,.21-.83,.27-1.59,.21-1.71,.27-5.07,.24-6.08-.03-.38-.09-.65-.24-.94-1.45,1.24-4.66,3.72-8.58,5.22l-.3-.53c6.25-3.51,11.68-9.56,11.68-10.77,0-.47-.65-.94-1.3-1.24l.18-.38Z"/></g><path class="cls-1" d="M377.91,24.02v52.19"/><path class="cls-1" d="M736.14,24.02v52.19"/><g><path d="M4.99,25.85s.44,.34,.82,.68c.29-.51,.55-1.03,.76-1.53l1.18,.56c-.09,.16-.22,.21-.55,.14-.51,.99-1.2,2.05-2.06,3.07h.78l.59-.75s.68,.52,1.08,.93c-.04,.14-.16,.21-.34,.21h-2.46c-.47,.51-.98,1.02-1.53,1.49h2.07l.48-.51,1.02,.8c-.08,.09-.3,.21-.55,.26v4.74c-.01,.08-.43,.28-.69,.28h-.13v-.9H2.63v.82c0,.08-.26,.29-.67,.29h-.13v-4.68c-.48,.33-.99,.63-1.53,.9l-.13-.18c.58-.35,1.14-.76,1.66-1.2v-.97l.74,.31c.5-.46,.95-.95,1.37-1.45H.43l-.1-.39H2.89v-1.82H.84l-.1-.39H2.89v-1.92l1.31,.14c-.03,.18-.16,.31-.48,.35v1.43h.73l.55-.72Zm-2.21,5.2l-.16,.13v1.58h2.84v-1.71H2.79Zm2.68,3.88v-1.78H2.63v1.78h2.84Zm-1.19-6.16c.48-.59,.9-1.2,1.28-1.82h-1.84v1.82h.56Zm8.29-2.75c-.1,.12-.29,.14-.6,.14-.46,.88-1.33,2.5-1.92,3.35,1.54,1.09,2.12,2.26,2.12,3.31,0,1.28-.51,1.9-1.9,1.97,0-.29-.07-.56-.17-.67-.12-.09-.44-.17-.8-.2v-.21h1.23c.16,0,.24-.01,.37-.08,.26-.14,.39-.44,.39-.98,0-.99-.42-2.06-1.57-3.14,.38-.85,.95-2.48,1.32-3.58h-2.27v10.27c0,.08-.27,.31-.71,.31h-.12v-11.48l.98,.51h2.09l.55-.54,1.01,.99Z"/><path d="M26.73,27.33c-.09,.08-.25,.1-.5,.12-.37,.4-1.02,.97-1.52,1.28l-.17-.1c.18-.34,.43-.88,.6-1.32h-8.57c.03,.85-.31,1.42-.67,1.69-.33,.24-.8,.27-.95-.03-.12-.27,.05-.54,.33-.71,.51-.31,.95-1.14,.86-2.03h.24c.08,.24,.13,.46,.16,.68h5.89c.47-.68,.99-1.62,1.31-2.33l1.32,.55c-.07,.13-.25,.21-.52,.17-.42,.5-1.07,1.11-1.71,1.61h2.33l.56-.57,1.02,.99Zm-9.91-2.56c2.5,.84,1.78,2.55,.97,1.92-.12-.6-.67-1.39-1.11-1.82l.14-.1Zm7.51,7.42l1.06,.8c-.09,.1-.3,.21-.56,.28v2.95c-.01,.09-.44,.29-.72,.29h-.13v-.84h-6.43v.59c0,.09-.37,.27-.71,.27h-.12v-4.23l.9,.42h2.07c.14-.48,.3-1.11,.39-1.57h-1.74v.37c0,.08-.37,.26-.72,.26h-.12v-3.55l.9,.39h4.57l.46-.47,1.01,.74c-.08,.09-.27,.2-.5,.24v2.3c-.01,.08-.44,.27-.71,.27h-.13v-.55h-2.01c-.26,.48-.63,1.11-.93,1.57h3.67l.48-.52Zm-.35,3.08v-2.18h-6.43v2.18h6.43Zm-5.63-4.51h4.77v-1.76h-4.77v1.76Zm1.33-6.23c2.3,1.08,1.41,2.76,.64,2.05-.03-.65-.43-1.46-.81-1.96l.17-.09Z"/><path d="M29.16,27.55c2.73,.41,2.2,2.24,1.27,1.7-.17-.57-.84-1.22-1.39-1.58l.12-.12Zm3.71-.72c-.52,1.65-1.53,4.76-1.71,5.39-.1,.42-.2,.82-.18,1.15,0,.57,.38,1.19,.33,2.26-.03,.55-.27,.89-.72,.89-.25,0-.38-.24-.41-.64,.17-1.32,.1-2.37-.18-2.56-.17-.13-.35-.16-.64-.18v-.29h.57c.14,0,.2-.01,.31-.26q.22-.47,2.38-5.82l.25,.06Zm-2.61-2.12c2.84,.46,2.29,2.38,1.33,1.84-.2-.61-.89-1.33-1.45-1.72l.12-.12Zm10.48,10.85c.41,.44,.46,.61,.34,.77-.25,.44-1.07,.14-1.74-.26-.77-.42-1.4-.97-1.91-1.65-1.54,1.01-3.29,1.59-5.31,2.01l-.08-.25c1.86-.56,3.52-1.28,4.95-2.41-.41-.69-.72-1.46-.97-2.33l-3.52,.37-.13-.37,3.55-.38c-.13-.52-.25-1.08-.33-1.67l-2.51,.24-.14-.37,2.6-.25c-.07-.51-.12-1.03-.14-1.57l-2.44,.21-.14-.35,2.56-.22c-.05-.81-.07-1.66-.07-2.53l1.39,.17c-.03,.17-.14,.31-.47,.37-.01,.65,0,1.29,.03,1.92l2.65-.24,.59-.85s.77,.5,1.25,.85c-.01,.14-.14,.24-.31,.25l-4.17,.35c.03,.54,.07,1.06,.13,1.56l2.44-.24,.57-.85s.78,.5,1.27,.84c-.01,.16-.14,.25-.31,.26l-3.93,.38c.08,.57,.18,1.14,.33,1.66l2.52-.26,.57-.85s.77,.5,1.25,.84c-.03,.14-.14,.24-.31,.25l-3.93,.41c.2,.68,.46,1.31,.77,1.86,.58-.52,1.1-1.14,1.59-1.83l1.24,.72c-.1,.13-.24,.17-.55,.1-.56,.67-1.16,1.23-1.79,1.71,.43,.54,.95,.97,1.58,1.28,.25,.16,.34,.16,.46-.1,.17-.33,.42-.98,.59-1.52l.17,.03-.21,1.95Zm-3.66-10.69c2.64,.17,2.18,1.92,1.25,1.48-.24-.46-.86-1.06-1.37-1.36l.12-.12Z"/><path d="M54.36,32.8s.73,.57,1.19,.99c-.04,.13-.17,.2-.35,.2h-5.29v2.27c0,.05-.29,.26-.72,.26h-.14v-2.53h-5.42l-.1-.37h5.53v-1.48h-2.71v.41c0,.08-.37,.26-.71,.26h-.13v-5.2l.9,.43h6.12l.46-.51,1.01,.78c-.08,.09-.27,.18-.51,.22v3.84c-.01,.09-.42,.31-.71,.31h-.13v-.55h-2.73v1.48h3.83l.63-.82Zm-10.76-6.39l-.07-.38h3.66v-1.48l1.29,.14c-.01,.17-.13,.3-.46,.34v.99h2.86v-1.48l1.31,.13c-.01,.18-.13,.31-.46,.35v.99h1.99l.61-.78s.71,.57,1.11,.97c-.03,.13-.14,.2-.33,.2h-3.39v.97c0,.08-.3,.25-.71,.25h-.14v-1.22h-2.86v1.02c0,.1-.37,.24-.71,.24h-.13v-1.25h-3.59Zm2.73,2.01v1.44h6.3v-1.44h-6.3Zm6.3,3.33v-1.5h-6.3v1.5h6.3Z"/><path d="M61.15,25.04c-.07,.14-.22,.24-.5,.22-.43,.69-.95,1.45-1.44,2.01,.94,.77,.43,1.69-.2,1.24-.14-.59-.71-1.31-1.19-1.73l.13-.1c.41,.12,.72,.25,.97,.4,.3-.71,.65-1.69,.93-2.53l1.29,.48Zm-3.29,10.33c.34-.89,.64-2.18,.77-3.4l1.18,.29c-.05,.17-.2,.29-.46,.29-.3,1.07-.73,2.2-1.28,2.93l-.21-.1Zm3.29-6.46c2.27,1.29,1.48,2.91,.73,2.25-.03-.22-.08-.47-.17-.72-.27,.05-.57,.12-.91,.18v5.65c0,.06-.29,.26-.69,.26h-.12v-5.76c-.42,.08-.89,.16-1.39,.24-.09,.17-.21,.25-.34,.27l-.37-.99c.29,0,.71-.01,1.22-.03,.76-1.25,1.67-2.95,2.24-4.18l1.22,.56c-.08,.13-.26,.22-.52,.18-.61,.95-1.62,2.33-2.56,3.42,.64-.03,1.37-.05,2.13-.09-.18-.43-.42-.85-.63-1.16l.17-.08Zm.24,2.94c2.03,1.48,1.18,3.06,.47,2.35,0-.72-.34-1.67-.64-2.29l.17-.07Zm4.22,.13c-.1,.12-.22,.14-.51,.16-.46,1.48-1.39,2.88-3.06,3.74l-.12-.2c1.23-.88,2-2.22,2.34-3.61h-1.71l-.12-.38h1.79l.5-.48,.89,.77Zm4.33-.52c-.05,.1-.24,.2-.48,.1-.41,.34-1.12,.86-1.8,1.25,.69,1.02,1.57,1.65,2.5,2.1l-.03,.16c-.33,.07-.56,.34-.69,.75-1.5-1.11-2.51-2.52-2.98-5.36v4.8c0,.67-.14,1.14-1.24,1.27-.01-.25-.08-.48-.24-.61-.18-.14-.5-.26-1.03-.33v-.2s1.2,.09,1.45,.09c.21,0,.26-.07,.26-.25v-5.08h-1.57v.35c0,.08-.27,.25-.69,.25h-.12v-5.1l.95,.42h.93c.1-.44,.24-1.07,.33-1.52l1.36,.27c-.05,.18-.21,.29-.47,.29-.21,.28-.51,.64-.76,.95h2.5l.42-.51,.93,.73c-.08,.09-.21,.16-.48,.21v3.89c0,.07-.3,.25-.69,.25h-.13v-.5h-1.57c.21,.99,.54,1.8,.94,2.46,.51-.59,1.11-1.42,1.38-1.91l1.03,.76Zm-5.86-5.02v1.48h4.06v-1.48h-4.06Zm4.06,3.33v-1.48h-4.06v1.48h4.06Z"/></g><g><path d="M1216.18,30.95l.22,.26c-1.52,1.23-2.88,3.11-2.88,5.86s1.36,4.63,2.88,5.86l-.22,.26c-1.76-1.12-3.52-2.97-3.52-6.12s1.75-4.99,3.52-6.12Z"/><path d="M1223.45,36.69l4.31-4.31,.38,.38-4.31,4.31,4.31,4.31-.38,.38-4.31-4.31-4.33,4.33-.38-.38,4.33-4.33-4.31-4.31,.38-.38,4.31,4.31Zm-3.72,1.36c-.54,0-.98-.44-.98-.98s.44-.98,.98-.98,.98,.44,.98,.98-.44,.98-.98,.98Zm2.74-4.71c0-.54,.44-.98,.98-.98s.98,.44,.98,.98-.44,.98-.98,.98-.98-.44-.98-.98Zm1.96,7.45c0,.54-.44,.98-.98,.98s-.98-.44-.98-.98,.44-.98,.98-.98,.98,.44,.98,.98Zm2.75-4.7c.54,0,.98,.44,.98,.98s-.44,.98-.98,.98-.98-.44-.98-.98,.44-.98,.98-.98Z"/><path d="M1237.05,41.58v.46h-5.79v-.46l2.35-.13c.01-.88,.03-1.75,.03-2.61v-5.86l-2.01,.4v-.51l2.99-.78,.22,.17-.07,2.2v4.38c0,.86,.01,1.74,.03,2.61l2.25,.13Z"/><path d="M1238.82,30.95c1.76,1.12,3.52,2.97,3.52,6.12s-1.75,4.99-3.52,6.12l-.22-.26c1.52-1.23,2.88-3.11,2.88-5.86s-1.36-4.63-2.88-5.86l.22-.26Z"/></g></g></g></svg>