<?xml version="1.0" encoding="utf-8"?>
<!-- Generator: Adobe Illustrator 25.2.1, SVG Export Plug-In . SVG Version: 6.00 Build 0)  -->
<svg version="1.1" id="Capa_1" xmlns="http://www.w3.org/2000/svg" xmlns:xlink="http://www.w3.org/1999/xlink" x="0px" y="0px"
	 viewBox="0 0 512 512" style="enable-background:new 0 0 512 512;" xml:space="preserve">
<g>
	<g>
		<g>
			<path d="M407.8,62.9C367.2,22.3,313.3,0,256,0S144.8,22.3,104.2,62.9s-62.9,94.4-62.9,151.8s22.3,111.2,62.9,151.8l141.3,141.3
				c2.9,2.9,6.7,4.3,10.4,4.3s7.6-1.4,10.4-4.3l141.3-141.3c40.5-40.5,62.9-94.4,62.9-151.8S448.3,103.4,407.8,62.9z M386.9,345.5
				L256,476.3L125.1,345.5C53,273.3,53,155.9,125.1,83.7c36.1-36.1,83.5-54.1,130.9-54.1s94.8,18,130.9,54.1
				C459,155.9,459,273.3,386.9,345.5z"/>
		</g>
	</g>
	<g>
		<g>
			<path d="M285.5,123.1h-59.1c-35.3,0-64,28.7-64,64v88.6c0,17.6,13.3,32.2,30.4,34.2l-9.1,18.3c-3.6,7.3-0.7,16.2,6.6,19.8
				c2.1,1.1,4.4,1.6,6.6,1.6c5.4,0,10.6-3,13.2-8.2l15.6-31.2h60.5l15.6,31.2c2.6,5.2,7.8,8.2,13.2,8.2c2.2,0,4.5-0.5,6.6-1.6
				c7.3-3.6,10.3-12.5,6.6-19.8l-9.1-18.3c17.1-2,30.4-16.6,30.4-34.2v-88.6C349.5,151.8,320.8,123.1,285.5,123.1z M320,275.7
				c0,2.7-2.2,4.9-4.9,4.9H196.9c-2.7,0-4.9-2.2-4.9-4.9v-88.6c0-19,15.5-34.5,34.5-34.5h59.1c19,0,34.5,15.5,34.5,34.5L320,275.7
				L320,275.7z"/>
		</g>
	</g>
	<g>
		<g>
			<path d="M241.2,244.7c0-0.5-0.1-1-0.2-1.4c-0.1-0.5-0.2-0.9-0.4-1.4c-0.1-0.5-0.3-0.9-0.5-1.4c-0.2-0.4-0.4-0.9-0.6-1.3
				c-0.2-0.4-0.5-0.8-0.7-1.2c-0.3-0.4-0.6-0.8-0.9-1.2c-0.3-0.4-0.6-0.7-1-1.1c-0.3-0.3-0.7-0.7-1.1-1c-0.4-0.3-0.8-0.6-1.2-0.9
				c-0.4-0.3-0.8-0.5-1.2-0.7c-0.4-0.2-0.9-0.4-1.3-0.6c-0.4-0.2-0.9-0.3-1.4-0.5c-0.5-0.1-0.9-0.3-1.4-0.4c-0.5-0.1-1-0.2-1.4-0.2
				c-1-0.1-1.9-0.1-2.9,0c-0.5,0.1-1,0.1-1.4,0.2c-0.5,0.1-0.9,0.2-1.4,0.4c-0.5,0.1-0.9,0.3-1.4,0.5c-0.4,0.2-0.9,0.4-1.3,0.6
				c-0.4,0.2-0.8,0.5-1.2,0.7c-0.4,0.3-0.8,0.6-1.2,0.9c-0.4,0.3-0.7,0.6-1.1,1c-0.3,0.3-0.7,0.7-1,1.1c-0.3,0.4-0.6,0.8-0.9,1.2
				c-0.3,0.4-0.5,0.8-0.7,1.2c-0.2,0.4-0.4,0.9-0.6,1.3c-0.2,0.4-0.3,0.9-0.5,1.4c-0.1,0.5-0.3,0.9-0.4,1.4c-0.1,0.5-0.2,1-0.2,1.4
				c0,0.5-0.1,1-0.1,1.5s0,1,0.1,1.5c0,0.5,0.1,1,0.2,1.4c0.1,0.5,0.2,0.9,0.4,1.4c0.1,0.5,0.3,0.9,0.5,1.4c0.2,0.4,0.4,0.9,0.6,1.3
				c0.2,0.4,0.5,0.8,0.7,1.3c0.3,0.4,0.6,0.8,0.9,1.2s0.6,0.7,1,1.1c0.3,0.3,0.7,0.7,1.1,1c0.4,0.3,0.8,0.6,1.2,0.9
				c0.4,0.3,0.8,0.5,1.2,0.7c0.4,0.2,0.9,0.4,1.3,0.6c0.4,0.2,0.9,0.3,1.4,0.5c0.5,0.1,0.9,0.3,1.4,0.4c0.5,0.1,1,0.2,1.4,0.2
				c0.5,0,1,0.1,1.5,0.1s1,0,1.5-0.1c0.5,0,1-0.1,1.4-0.2c0.5-0.1,0.9-0.2,1.4-0.4c0.5-0.1,0.9-0.3,1.4-0.5c0.4-0.2,0.9-0.4,1.3-0.6
				c0.4-0.2,0.8-0.5,1.2-0.7c0.4-0.3,0.8-0.6,1.2-0.9c0.4-0.3,0.7-0.6,1.1-1c0.3-0.3,0.7-0.7,1-1.1s0.6-0.8,0.9-1.2
				c0.3-0.4,0.5-0.8,0.7-1.3c0.2-0.4,0.4-0.9,0.6-1.3c0.2-0.4,0.3-0.9,0.5-1.4c0.1-0.5,0.3-0.9,0.4-1.4c0.1-0.5,0.2-1,0.2-1.4
				c0-0.5,0.1-1,0.1-1.5C241.2,245.7,241.2,245.2,241.2,244.7z"/>
		</g>
	</g>
	<g>
		<g>
			<path d="M300.2,244.7c0-0.5-0.1-1-0.2-1.4c-0.1-0.5-0.2-0.9-0.4-1.4c-0.1-0.5-0.3-0.9-0.5-1.4s-0.4-0.9-0.6-1.3
				c-0.2-0.4-0.5-0.8-0.7-1.2c-0.3-0.4-0.6-0.8-0.9-1.2c-0.3-0.4-0.6-0.7-1-1.1c-0.3-0.3-0.7-0.7-1.1-1c-0.4-0.3-0.8-0.6-1.2-0.9
				c-0.4-0.3-0.8-0.5-1.2-0.7c-0.4-0.2-0.9-0.4-1.3-0.6c-0.4-0.2-0.9-0.3-1.4-0.5c-0.5-0.1-0.9-0.3-1.4-0.4c-0.5-0.1-1-0.2-1.4-0.2
				c-1-0.1-2-0.1-2.9,0c-0.5,0.1-1,0.1-1.4,0.2c-0.5,0.1-0.9,0.2-1.4,0.4c-0.5,0.1-0.9,0.3-1.4,0.5c-0.4,0.2-0.9,0.4-1.3,0.6
				c-0.4,0.2-0.8,0.5-1.2,0.7c-0.4,0.3-0.8,0.6-1.2,0.9c-0.4,0.3-0.7,0.6-1.1,1c-0.3,0.3-0.7,0.7-1,1.1c-0.3,0.4-0.6,0.8-0.9,1.2
				c-0.3,0.4-0.5,0.8-0.7,1.2c-0.2,0.4-0.4,0.9-0.6,1.3c-0.2,0.4-0.3,0.9-0.5,1.4c-0.1,0.5-0.3,0.9-0.4,1.4c-0.1,0.5-0.2,1-0.2,1.4
				c0,0.5-0.1,1-0.1,1.5s0,1,0.1,1.5c0,0.5,0.1,1,0.2,1.4c0.1,0.5,0.2,0.9,0.4,1.4c0.1,0.5,0.3,0.9,0.5,1.4c0.2,0.4,0.4,0.9,0.6,1.3
				c0.2,0.4,0.5,0.8,0.7,1.3c0.3,0.4,0.6,0.8,0.9,1.2s0.6,0.7,1,1.1c0.3,0.3,0.7,0.7,1.1,1c0.4,0.3,0.8,0.6,1.2,0.9
				c0.4,0.3,0.8,0.5,1.2,0.7c0.4,0.2,0.9,0.4,1.3,0.6c0.4,0.2,0.9,0.3,1.4,0.5c0.5,0.1,0.9,0.3,1.4,0.4c0.5,0.1,1,0.2,1.4,0.2
				c0.5,0,1,0.1,1.5,0.1s1,0,1.5-0.1c0.5,0,1-0.1,1.4-0.2c0.5-0.1,0.9-0.2,1.4-0.4c0.5-0.1,0.9-0.3,1.4-0.5c0.4-0.2,0.9-0.4,1.3-0.6
				c0.4-0.2,0.8-0.5,1.2-0.7c0.4-0.3,0.8-0.6,1.2-0.9c0.4-0.3,0.7-0.6,1.1-1c0.3-0.3,0.7-0.7,1-1.1s0.6-0.8,0.9-1.2
				c0.3-0.4,0.5-0.8,0.7-1.3c0.2-0.4,0.4-0.9,0.6-1.3c0.2-0.4,0.3-0.9,0.5-1.4c0.1-0.5,0.3-0.9,0.4-1.4c0.1-0.5,0.2-1,0.2-1.4
				c0-0.5,0.1-1,0.1-1.5C300.3,245.7,300.3,245.2,300.2,244.7z"/>
		</g>
	</g>
	<g>
		<g>
			<path d="M285.5,172.3h-59.1c-8.2,0-14.8,6.6-14.8,14.8s6.6,14.8,14.8,14.8h59.1c8.2,0,14.8-6.6,14.8-14.8
				S293.7,172.3,285.5,172.3z"/>
		</g>
	</g>
</g>
</svg>
