<?xml version="1.0" standalone="no"?>
<!DOCTYPE svg PUBLIC "-//W3C//DTD SVG 20010904//EN"
 "http://www.w3.org/TR/2001/REC-SVG-20010904/DTD/svg10.dtd">
<svg version="1.0" xmlns="http://www.w3.org/2000/svg"
 width="260.000000pt" height="260.000000pt" viewBox="0 0 260.000000 260.000000"
 preserveAspectRatio="xMidYMid meet">
<metadata>
Created by potrace 1.11, written by Peter Selinger 2001-2013
</metadata>
<g transform="translate(0.000000,260.000000) scale(0.100000,-0.100000)"
fill="#000000" stroke="none">
<path d="M1119 2484 c-303 -56 -551 -163 -696 -300 -192 -183 -363 -517 -391
-764 -18 -161 1 -330 53 -485 43 -128 152 -330 230 -425 95 -115 230 -225 338
-274 210 -95 441 -144 687 -144 365 0 675 116 907 339 172 165 217 224 259
334 50 134 64 240 59 440 -4 189 -7 223 -31 370 -17 103 -65 253 -97 305 -86
140 -348 385 -488 455 -107 55 -366 127 -549 154 -125 18 -156 17 -281 -5z"/>
</g>
</svg>
