<?xml version="1.0" standalone="no"?>
<!DOCTYPE svg PUBLIC "-//W3C//DTD SVG 20010904//EN"
 "http://www.w3.org/TR/2001/REC-SVG-20010904/DTD/svg10.dtd">
<svg version="1.0" xmlns="http://www.w3.org/2000/svg"
 width="700.000000pt" height="700.000000pt" viewBox="0 0 700.000000 700.000000"
 preserveAspectRatio="xMidYMid meet">
<metadata>
Created by potrace 1.14, written by Peter Selinger 2001-2017
</metadata>
<g transform="translate(0.000000,700.000000) scale(0.100000,-0.100000)"
fill="#000000" stroke="none">
<path d="M3278 6996 c-1 -2 -39 -6 -83 -10 -551 -42 -1166 -258 -1630 -569
-546 -367 -1006 -907 -1250 -1467 -25 -58 -50 -114 -55 -125 -45 -93 -150
-427 -176 -560 -2 -11 -10 -54 -19 -95 -29 -147 -36 -198 -52 -370 -15 -163
-8 -591 12 -711 2 -13 6 -46 9 -74 16 -141 68 -376 123 -555 70 -231 234 -594
346 -768 26 -40 47 -75 47 -78 0 -2 5 -10 10 -17 6 -7 40 -55 76 -107 196
-280 459 -555 739 -771 296 -228 684 -431 1045 -548 89 -29 268 -78 314 -87
22 -4 35 -6 121 -24 62 -12 95 -17 154 -26 25 -3 57 -8 71 -10 163 -25 682
-25 842 1 13 2 46 7 73 10 72 10 86 12 120 19 17 3 44 8 60 11 73 14 178 39
275 67 1187 334 2110 1271 2431 2466 35 129 32 114 63 292 43 235 51 330 51
605 0 244 -17 474 -40 555 -2 8 -7 35 -10 60 -39 280 -173 674 -334 985 -381
734 -996 1306 -1752 1628 -230 98 -555 195 -749 223 -19 3 -60 9 -91 15 -31 5
-81 12 -110 15 -30 3 -67 8 -84 10 -34 6 -541 14 -547 10z m397 -90 c77 -4
154 -8 170 -10 17 -3 53 -7 80 -11 73 -8 175 -24 251 -39 180 -35 513 -137
639 -196 11 -5 43 -19 70 -31 688 -298 1291 -864 1644 -1541 144 -275 265
-613 317 -883 4 -22 8 -44 9 -50 2 -5 8 -46 15 -90 7 -44 14 -87 15 -96 2 -9
7 -54 10 -100 4 -46 9 -97 11 -114 4 -46 5 -436 0 -465 -2 -14 -7 -60 -10
-102 -31 -385 -155 -821 -339 -1193 -340 -685 -914 -1246 -1610 -1575 -253
-120 -496 -198 -817 -265 -19 -3 -83 -13 -135 -21 -22 -3 -47 -7 -55 -9 -99
-26 -742 -27 -878 0 -9 1 -52 8 -95 15 -110 16 -119 18 -237 46 -58 14 -112
27 -120 29 -37 8 -225 68 -296 96 -206 78 -409 177 -588 285 -87 54 -304 205
-356 250 -14 12 -61 52 -105 90 -130 110 -307 293 -420 432 -5 7 -15 18 -20
25 -144 172 -374 558 -459 767 -10 25 -27 64 -37 88 -69 153 -177 554 -203
752 -4 25 -9 61 -11 80 -6 45 -16 143 -21 200 -4 60 -4 404 0 455 13 142 18
193 21 215 28 177 41 246 70 365 200 812 664 1493 1350 1982 262 187 578 347
890 451 200 67 466 128 645 147 30 4 69 8 85 10 17 3 100 8 185 11 85 4 156 8
158 9 2 2 11 1 20 -1 9 -1 80 -5 157 -8z"/>
<path d="M3299 6616 c-2 -2 -42 -6 -89 -10 -121 -9 -174 -17 -390 -60 -86 -17
-200 -50 -340 -98 -547 -188 -1049 -541 -1405 -988 -33 -41 -64 -79 -68 -85
-32 -39 -136 -192 -170 -250 -80 -135 -88 -151 -146 -270 -104 -215 -196 -475
-237 -670 -6 -30 -42 -234 -48 -275 -29 -189 -29 -637 0 -820 60 -387 138
-642 289 -955 201 -413 502 -789 865 -1076 480 -381 1065 -617 1655 -666 171
-15 617 -7 685 12 8 2 35 6 60 9 220 28 534 116 760 213 119 52 352 172 358
186 2 4 8 7 13 7 5 0 41 21 81 46 567 361 1016 914 1250 1539 44 118 102 306
114 370 2 17 11 57 19 90 7 33 16 78 19 100 4 22 9 54 12 70 21 116 29 248 29
470 0 217 -8 343 -29 460 -3 17 -8 48 -11 70 -4 22 -8 47 -10 55 -2 8 -7 29
-9 45 -3 17 -15 66 -26 110 -12 44 -23 87 -25 96 -20 91 -116 349 -185 493
-172 363 -444 727 -745 997 -185 165 -433 333 -669 455 -206 106 -573 235
-761 269 -16 3 -42 7 -58 10 -83 15 -148 25 -192 30 -27 4 -61 9 -75 12 -30 6
-515 15 -521 9z m290 -1248 c251 -171 499 -341 551 -376 52 -36 142 -98 200
-137 111 -76 460 -315 620 -423 52 -36 135 -93 185 -126 49 -34 94 -65 100
-69 11 -8 171 -118 405 -277 l140 -95 0 -977 0 -978 -1448 0 -1448 0 -134 288
c-74 158 -165 351 -202 430 -37 79 -68 145 -68 146 0 3 -53 117 -171 365 -33
68 -59 125 -59 127 0 1 -23 51 -51 111 -67 142 -126 268 -150 321 -28 60 -23
115 14 152 27 28 292 218 687 495 85 60 165 117 178 128 l22 20 0 379 0 379
-62 -45 c-35 -25 -99 -70 -143 -101 -86 -59 -135 -93 -400 -279 -93 -66 -184
-129 -200 -140 -17 -12 -170 -119 -341 -239 l-311 -218 -1 -1157 0 -1157 -146
-3 -146 -3 2 1242 3 1242 240 163 c132 89 330 224 440 298 110 75 241 163 290
197 266 182 408 278 580 394 105 71 224 153 265 181 41 29 81 53 89 54 7 0
219 -140 470 -312z"/>
<path d="M3502 4148 l3 -241 45 -14 c25 -7 77 -22 115 -33 39 -10 117 -33 174
-50 57 -16 106 -29 108 -27 7 8 4 440 -4 447 -4 4 -35 16 -68 28 -33 11 -131
45 -218 76 l-157 55 2 -241z"/>
<path d="M4129 4133 c-2 -71 -1 -395 2 -398 4 -4 307 -98 350 -108 l26 -7 -1
203 0 203 -181 62 c-99 34 -183 62 -187 62 -5 0 -8 -8 -9 -17z"/>
<path d="M2682 3920 c-155 -103 -287 -191 -293 -197 -7 -7 18 -70 77 -194 47
-101 99 -211 114 -244 15 -33 44 -96 65 -140 21 -44 50 -107 65 -140 15 -33
48 -103 72 -155 25 -52 58 -123 73 -157 25 -56 32 -63 57 -63 68 0 63 -59 63
743 0 399 -2 727 -5 730 -3 2 -132 -80 -288 -183z"/>
<path d="M4681 3771 l-1 -196 73 -23 c78 -25 223 -68 247 -74 13 -3 15 23 16
182 1 126 -2 187 -10 193 -6 4 -45 18 -86 32 -41 13 -112 37 -157 53 l-82 29
0 -196z"/>
<path d="M5190 3591 l0 -178 128 -38 c70 -21 135 -42 145 -47 20 -10 19 -23
21 185 0 82 -1 153 -4 158 -6 9 -259 99 -279 99 -8 0 -11 -55 -11 -179z"/>
<path d="M3500 3267 l0 -234 93 -17 c106 -21 106 -21 212 -42 44 -9 95 -18
113 -21 l32 -5 1 91 c0 50 0 111 0 136 0 224 0 224 -23 229 -63 14 -395 88
-410 93 -17 4 -18 -12 -18 -230z"/>
<path d="M4129 3313 c-1 -43 -1 -360 0 -384 1 -11 21 -19 79 -29 42 -7 84 -15
92 -16 113 -23 178 -34 191 -34 13 0 15 26 15 200 l1 200 -66 19 c-86 25 -296
81 -304 81 -4 0 -7 -17 -8 -37z"/>
<path d="M4683 3011 l2 -196 120 -22 c66 -12 141 -25 166 -28 l46 -6 -1 187
-1 188 -30 8 c-16 4 -41 10 -55 13 -14 3 -76 16 -137 29 l-113 23 3 -196z"/>
<path d="M5190 2910 l0 -179 38 -10 c34 -9 87 -19 182 -37 80 -15 74 -29 74
158 0 92 -3 170 -6 174 -6 5 -263 73 -280 74 -5 0 -8 -81 -8 -180z"/>
</g>
</svg>
