<?xml version="1.0" encoding="utf-8"?>
<!-- Generator: Adobe Illustrator 20.1.0, SVG Export Plug-In . SVG Version: 6.00 Build 0)  -->
<svg version="1.1" id="Layer_1" xmlns="https://www.w3.org/2000/svg" xmlns:xlink="https://www.w3.org/1999/xlink" x="0px" y="0px"
	 viewBox="0 0 32 39" style="enable-background:new 0 0 32 39;" xml:space="preserve">
<style type="text/css">
	.st0{fill:#828181;}
	.st1{fill:#FFFFFF;}
</style>
<path class="st0" d="M23.1,2.3c4.2,0,7.7,3.4,7.7,7.7c0,2.2-0.9,4.1-2.4,5.6L16,28L3.4,15.3C2.1,13.9,1.3,12,1.3,10
	c0-4.3,3.4-7.7,7.7-7.7c3.2,0,5.9,2,7.1,4.7C17.1,4.2,19.9,2.3,23.1,2.3 M23.1,1c-2.8,0-5.4,1.3-7.1,3.5C14.3,2.3,11.8,1,8.9,1
	C4,1,0,5,0,10c0,2.3,0.9,4.5,2.5,6.2l12.6,12.7l0.9,0.9l0.9-0.9l12.4-12.5c1.8-1.7,2.7-4,2.7-6.5C32,5,28,1,23.1,1L23.1,1z"/>
<path class="st1" d="M23.1,1.3c4.2,0,7.7,3.4,7.7,7.7c0,2.2-0.9,4.1-2.4,5.6L16,27L3.4,14.3C2.1,12.9,1.3,11,1.3,9
	c0-4.3,3.4-7.7,7.7-7.7c3.2,0,5.9,2,7.1,4.7C17.1,3.2,19.9,1.3,23.1,1.3 M23.1,0c-2.8,0-5.4,1.3-7.1,3.5C14.3,1.3,11.8,0,8.9,0
	C4,0,0,4,0,9c0,2.3,0.9,4.5,2.5,6.2l12.6,12.7l0.9,0.9l0.9-0.9l12.4-12.5C31,13.7,32,11.4,32,9C32,4,28,0,23.1,0L23.1,0z"/>
</svg>
