<?xml version="1.0" encoding="utf-8"?>
<!-- Generator: Adobe Illustrator 20.1.0, SVG Export Plug-In . SVG Version: 6.00 Build 0)  -->
<svg version="1.1" id="Layer_1" xmlns="https://www.w3.org/2000/svg" xmlns:xlink="https://www.w3.org/1999/xlink" x="0px" y="0px"
	 viewBox="0 0 32 27" style="enable-background:new 0 0 32 27;" xml:space="preserve">
<style type="text/css">
	.st0{fill:#009C95;}
</style>
<g>
	<polygon class="st0" points="11.8,3.2 11.3,1.9 10.3,2.4 10.8,3.6 	"/>
	<polygon class="st0" points="10.1,3.9 9.6,2.7 8.6,3.1 9.1,4.3 	"/>
	<polygon class="st0" points="13.9,0.8 12.3,1.5 12.8,2.8 14.4,2.1 14.8,1.9 14.6,3 17.6,0 13.5,0 14.3,0.7 13.9,0.8 	"/>
	<polygon class="st0" points="6.9,3.8 7.3,5.1 8.3,4.6 7.9,3.4 6.9,3.8 6.9,3.8 	"/>
	<polygon class="st0" points="24.1,3.1 23.5,4.3 30.7,7.8 30.7,25.7 14.1,25.7 14.1,14.9 5.9,14.9 5.9,25.7 1.3,25.7 1.3,7.6
		6.1,5.6 5.6,4.3 5.6,4.3 5.6,4.3 0,6.7 0,27 7.1,27 7.1,16.2 12.8,16.2 12.8,27 32,27 32,6.9 	"/>
</g>
</svg>
