<?xml version="1.0" encoding="utf-8"?>
<!-- Generator: Adobe Illustrator 20.1.0, SVG Export Plug-In . SVG Version: 6.00 Build 0)  -->
<svg version="1.1" id="Layer_1" xmlns="https://www.w3.org/2000/svg" xmlns:xlink="https://www.w3.org/1999/xlink" x="0px" y="0px"
	 viewBox="0 0 38 39" style="enable-background:new 0 0 38 39;" xml:space="preserve">
<style type="text/css">
	.st0{fill:#FFFFFF;}
	.st1{fill:#828181;}
</style>
<g>
	<path class="st0" d="M15.3,4.2L30,9.5v10.2c-0.1,0-0.2-0.1-0.3-0.1c-0.5-0.1-1-0.1-1.5-0.1c-3.8,0-6.9,2.9-7.3,6.6h-0.1H14v-8v-2
		h-2H8H6v2v8H2V9.4L15.3,4.2 M15.3,2L0,8v20h8V18h4v10h8.8c0.6,3.6,3.7,6.3,7.4,6.3c1.5,0,3-0.5,4.2-1.3l3.3,3.3
		c0.2,0.2,0.5,0.3,0.8,0.3c0.3,0,0.6-0.1,0.8-0.3c0.4-0.4,0.4-1.1,0-1.5L34,31.6c1.1-1.3,1.7-3,1.7-4.8c0-2.8-1.5-5.2-3.8-6.5V8
		L15.3,2L15.3,2z M28.3,32.1c-2.5,0-4.6-1.8-5.2-4.1c0-0.1,0-0.3-0.1-0.4c0-0.3-0.1-0.6-0.1-0.9c0-2.9,2.4-5.3,5.3-5.3
		c0.4,0,0.7,0,1.1,0.1c0.1,0,0.2,0.1,0.3,0.1c0.2,0.1,0.5,0.1,0.7,0.2c0.1,0.1,0.2,0.1,0.4,0.2c0.2,0.1,0.4,0.2,0.5,0.3
		c0.1,0.1,0.3,0.2,0.4,0.3c1.2,1,2,2.5,2,4.1C33.6,29.7,31.2,32.1,28.3,32.1L28.3,32.1z"/>
</g>
<g>
	<path class="st1" d="M15.3,5.3L30,10.6v10.2c-0.1,0-0.2-0.1-0.3-0.1c-0.5-0.1-1-0.1-1.5-0.1c-3.8,0-6.9,2.9-7.3,6.6h-0.1H14v-8v-2
		h-2H8H6v2v8H2V10.5L15.3,5.3 M15.3,3.2L0,9.1v20h8v-10h4v10h8.8c0.6,3.6,3.7,6.3,7.4,6.3c1.5,0,3-0.5,4.2-1.3l3.3,3.3
		c0.2,0.2,0.5,0.3,0.8,0.3c0.3,0,0.6-0.1,0.8-0.3c0.4-0.4,0.4-1.1,0-1.5L34,32.7c1.1-1.3,1.7-3,1.7-4.8c0-2.8-1.5-5.2-3.8-6.5V9.2
		L15.3,3.2L15.3,3.2z M28.3,33.2c-2.5,0-4.6-1.8-5.2-4.1c0-0.1,0-0.3-0.1-0.4c0-0.3-0.1-0.6-0.1-0.9c0-2.9,2.4-5.3,5.3-5.3
		c0.4,0,0.7,0,1.1,0.1c0.1,0,0.2,0.1,0.3,0.1c0.2,0.1,0.5,0.1,0.7,0.2c0.1,0.1,0.2,0.1,0.4,0.2c0.2,0.1,0.4,0.2,0.5,0.3
		c0.1,0.1,0.3,0.2,0.4,0.3c1.2,1,2,2.5,2,4.1C33.6,30.8,31.2,33.2,28.3,33.2L28.3,33.2z"/>
</g>
<g>
	<path class="st0" d="M15.3,4.2L30,9.5v10.2c-0.1,0-0.2-0.1-0.3-0.1c-0.5-0.1-1-0.1-1.5-0.1c-3.8,0-6.9,2.9-7.3,6.6h-0.1H14v-8v-2
		h-2H8H6v2v8H2V9.4L15.3,4.2 M15.3,2L0,8v20h8V18h4v10h8.8c0.6,3.6,3.7,6.3,7.4,6.3c1.5,0,3-0.5,4.2-1.3l3.3,3.3
		c0.2,0.2,0.5,0.3,0.8,0.3c0.3,0,0.6-0.1,0.8-0.3c0.4-0.4,0.4-1.1,0-1.5L34,31.6c1.1-1.3,1.7-3,1.7-4.8c0-2.8-1.5-5.2-3.8-6.5V8
		L15.3,2L15.3,2z M28.3,32.1c-2.5,0-4.6-1.8-5.2-4.1c0-0.1,0-0.3-0.1-0.4c0-0.3-0.1-0.6-0.1-0.9c0-2.9,2.4-5.3,5.3-5.3
		c0.4,0,0.7,0,1.1,0.1c0.1,0,0.2,0.1,0.3,0.1c0.2,0.1,0.5,0.1,0.7,0.2c0.1,0.1,0.2,0.1,0.4,0.2c0.2,0.1,0.4,0.2,0.5,0.3
		c0.1,0.1,0.3,0.2,0.4,0.3c1.2,1,2,2.5,2,4.1C33.6,29.7,31.2,32.1,28.3,32.1L28.3,32.1z"/>
</g>
</svg>
