<?xml version="1.0" encoding="utf-8"?>
<!-- Generator: Adobe Illustrator 20.1.0, SVG Export Plug-In . SVG Version: 6.00 Build 0)  -->
<svg version="1.1" id="Layer_1" xmlns="https://www.w3.org/2000/svg" xmlns:xlink="https://www.w3.org/1999/xlink" x="0px" y="0px"
	 viewBox="0 0 26 33" style="enable-background:new 0 0 26 33;" xml:space="preserve">
<style type="text/css">
	.st0{fill:#828181;}
	.st1{fill:#FFFFFF;}
</style>
<g>
	<g>
		<path class="st0" d="M13,3.7C6.4,3.7,0.9,9,1.1,15.6C1.3,25.4,13,33,13,33s12-8.1,12-17.4C24.9,9,19.6,3.7,13,3.7z M12.9,31.8
			c-2.3-1.6-10.7-8.2-10.9-16.2C2,12.7,3.1,10,5.1,8c2.1-2.1,4.9-3.3,7.9-3.3c6,0,10.9,4.9,10.9,10.9C23.9,23.1,15.2,30.1,12.9,31.8
			z"/>
		<path class="st0" d="M13,7.1c-4.6,0-8.4,3.8-8.4,8.4c0,4.6,3.8,8.4,8.4,8.4c4.6,0,8.4-3.8,8.4-8.4C21.4,10.9,17.6,7.1,13,7.1z
			 M13,22.9c-4.1,0-7.4-3.3-7.4-7.4S8.9,8.1,13,8.1s7.4,3.3,7.4,7.4S17.1,22.9,13,22.9z"/>
	</g>
	<g>
		<path class="st1" d="M13,2.7C6.4,2.7,0.9,8,1.1,14.6C1.3,24.4,13,32,13,32s12-8.1,12-17.4C24.9,8,19.6,2.7,13,2.7z M12.9,30.8
			c-2.3-1.6-10.7-8.2-10.9-16.2C2,11.7,3.1,9,5.1,7c2.1-2.1,4.9-3.3,7.9-3.3c6,0,10.9,4.9,10.9,10.9C23.9,22.1,15.2,29.1,12.9,30.8z
			"/>
		<path class="st1" d="M13,6.1c-4.6,0-8.4,3.8-8.4,8.4c0,4.6,3.8,8.4,8.4,8.4c4.6,0,8.4-3.8,8.4-8.4C21.4,9.9,17.6,6.1,13,6.1z
			 M13,21.9c-4.1,0-7.4-3.3-7.4-7.4S8.9,7.1,13,7.1s7.4,3.3,7.4,7.4S17.1,21.9,13,21.9z"/>
	</g>
</g>
</svg>
