<?xml version="1.0" encoding="utf-8"?>
<!-- Generator: Adobe Illustrator 20.1.0, SVG Export Plug-In . SVG Version: 6.00 Build 0)  -->
<svg version="1.1" id="Layer_1" xmlns="https://www.w3.org/2000/svg" xmlns:xlink="https://www.w3.org/1999/xlink" x="0px" y="0px"
	 viewBox="0 0 33 35" style="enable-background:new 0 0 33 35;" xml:space="preserve">
<style type="text/css">
	.st0{fill:#828181;}
	.st1{fill:#FFFFFF;}
</style>
<g>
	<g>
		<g>
			<path class="st0" d="M15.9,33C7.3,33,0.4,26,0.4,17.4c0-8.6,7-15.5,15.5-15.5c8.6,0,15.5,7,15.5,15.5C31.4,26,24.5,33,15.9,33z
				 M15.9,3.4c-7.7,0-14,6.3-14,14c0,7.7,6.3,14,14,14c7.7,0,14-6.3,14-14C29.9,9.7,23.6,3.4,15.9,3.4z"/>
		</g>
		<g>
			<path class="st0" d="M25.4,29.4H6.4V6h19.1V29.4z M7.4,28.4h17.1V7H7.4V28.4z"/>
		</g>
		<g>
			<path class="st0" d="M14,13.4H8.8v-4H14V13.4z M9.6,12.6h3.6v-2.4H9.6V12.6z"/>
		</g>
		<g>
			<rect x="15" y="9" class="st0" width="8" height="1"/>
		</g>
		<g>
			<rect x="15" y="12" class="st0" width="8" height="1"/>
		</g>
		<g>
			<path class="st0" d="M14,19.4H8.8v-4H14V19.4z M9.6,18.6h3.6v-2.4H9.6V18.6z"/>
		</g>
		<g>
			<rect x="15" y="15" class="st0" width="8" height="1"/>
		</g>
		<g>
			<rect x="15" y="18" class="st0" width="8" height="1"/>
		</g>
		<g>
			<path class="st0" d="M14,25.4H8.8v-4H14V25.4z M9.6,24.6h3.6v-2.4H9.6V24.6z"/>
		</g>
		<g>
			<rect x="15" y="21" class="st0" width="8" height="1"/>
		</g>
		<g>
			<rect x="15" y="24" class="st0" width="8" height="1"/>
		</g>
		<g>
			<path class="st0" d="M32,34.1c-0.2,0-0.4-0.1-0.5-0.2l-5.5-5c-0.3-0.3-0.3-0.8-0.1-1.1c0.3-0.3,0.8-0.3,1.1-0.1l5.5,5
				c0.3,0.3,0.3,0.8,0.1,1.1C32.4,34,32.2,34.1,32,34.1z"/>
		</g>
	</g>
	<g>
		<g>
			<path class="st1" d="M15.9,32C7.3,32,0.4,25,0.4,16.4c0-8.6,7-15.5,15.5-15.5c8.6,0,15.5,7,15.5,15.5C31.4,25,24.5,32,15.9,32z
				 M15.9,2.4c-7.7,0-14,6.3-14,14c0,7.7,6.3,14,14,14c7.7,0,14-6.3,14-14C29.9,8.7,23.6,2.4,15.9,2.4z"/>
		</g>
		<g>
			<path class="st1" d="M25.4,28.4H6.4V5h19.1V28.4z M7.4,27.4h17.1V6H7.4V27.4z"/>
		</g>
		<g>
			<path class="st1" d="M14,12.4H8.8v-4H14V12.4z M9.6,11.6h3.6V9.2H9.6V11.6z"/>
		</g>
		<g>
			<rect x="15" y="8" class="st1" width="8" height="1"/>
		</g>
		<g>
			<rect x="15" y="11" class="st1" width="8" height="1"/>
		</g>
		<g>
			<path class="st1" d="M14,18.4H8.8v-4H14V18.4z M9.6,17.6h3.6v-2.4H9.6V17.6z"/>
		</g>
		<g>
			<rect x="15" y="14" class="st1" width="8" height="1"/>
		</g>
		<g>
			<rect x="15" y="17" class="st1" width="8" height="1"/>
		</g>
		<g>
			<path class="st1" d="M14,24.4H8.8v-4H14V24.4z M9.6,23.6h3.6v-2.4H9.6V23.6z"/>
		</g>
		<g>
			<rect x="15" y="20" class="st1" width="8" height="1"/>
		</g>
		<g>
			<rect x="15" y="23" class="st1" width="8" height="1"/>
		</g>
		<g>
			<path class="st1" d="M32,33.1c-0.2,0-0.4-0.1-0.5-0.2l-5.5-5c-0.3-0.3-0.3-0.8-0.1-1.1c0.3-0.3,0.8-0.3,1.1-0.1l5.5,5
				c0.3,0.3,0.3,0.8,0.1,1.1C32.4,33,32.2,33.1,32,33.1z"/>
		</g>
	</g>
</g>
</svg>
