<?xml version="1.0" encoding="utf-8"?>
<!-- Generator: Adobe Illustrator 20.1.0, SVG Export Plug-In . SVG Version: 6.00 Build 0)  -->
<svg version="1.1" id="Layer_1" xmlns="https://www.w3.org/2000/svg" xmlns:xlink="https://www.w3.org/1999/xlink" x="0px" y="0px"
	 viewBox="0 0 34 39" style="enable-background:new 0 0 34 39;" xml:space="preserve">
<style type="text/css">
	.st0{fill:#828181;}
	.st1{fill:none;}
	.st2{fill:#FFFFFF;}
</style>
<g>
	<g>
		<path class="st0" d="M8.2,11.4H2.8V6h5.5v5.4H8.2z M4.5,9.7h2.1v-2H4.5V9.7z"/>
	</g>
	<g>
		<path class="st0" d="M15,11.4H9.5V6H15V11.4z M11.2,9.7h2v-2h-2V9.7z"/>
	</g>
	<g>
		<path class="st0" d="M21.7,11.4h-5.5V6h5.5V11.4z M18,9.7h2v-2h-2V9.7z"/>
	</g>
	<g>
		<path class="st0" d="M8.2,18H2.8v-5.5h5.5V18H8.2z M4.5,16.3h2.1v-2.1H4.5V16.3z"/>
	</g>
	<g>
		<path class="st0" d="M15,18H9.5v-5.5H15V18z M11.2,16.3h2v-2.1h-2V16.3z"/>
	</g>
	<g>
		<path class="st0" d="M21.7,18h-5.5v-5.5h5.5V18z M18,16.3h2v-2.1h-2V16.3z"/>
	</g>
	<g>
		<path class="st0" d="M8.2,24.6H2.8v-5.5h5.5v5.5H8.2z M4.5,22.8h2.1v-2H4.5V22.8z"/>
	</g>
	<g>
		<path class="st0" d="M15,24.6H9.5v-5.5H15V24.6z M11.2,22.8h2v-2h-2V22.8z"/>
	</g>
	<path class="st1" d="M2,5v24h8v-3h5v3h2.8c-0.1,0,0-0.5,0-0.9c0-3,2.2-5.3,5.2-5.7V5H2z"/>
	<path class="st0" d="M15,29v-3h-5v3H2V5h21v16.5c0,0,0.7,0.9,1,0.9s0,0,1,0.1V3H0v28h9.5H11v-4h2v4h2h3.3c-0.3,0-1.4-1-1.5-2H15z"
		/>
	<path class="st0" d="M33.7,36.5l-4.1-3.4c1-1.3,1.7-3,1.7-4.7c0-4.2-3.4-7.6-7.6-7.6S16,24.1,16,28.3s3.4,7.6,7.6,7.6
		c1.8,0,3.5-0.6,4.8-1.7l4.2,3.5c0.2,0.1,0.4,0.2,0.5,0.2c0.2,0,0.5-0.1,0.7-0.3C34.1,37.3,34.1,36.8,33.7,36.5z M23.6,22.4
		c3.3,0,5.9,2.7,5.9,5.9s-2.7,5.9-5.9,5.9s-5.9-2.7-5.9-5.9S20.4,22.4,23.6,22.4z"/>
	<path class="st0" d="M22,21.8V19h-6v6h2.1C18.8,24,21,22.1,22,21.8z M18,21h2v2h-2V21z"/>
</g>
<g>
	<g>
		<path class="st2" d="M8.2,10.4H2.8V5h5.5v5.4H8.2z M4.5,8.7h2.1v-2H4.5V8.7z"/>
	</g>
	<g>
		<path class="st2" d="M15,10.4H9.5V5H15V10.4z M11.2,8.7h2v-2h-2V8.7z"/>
	</g>
	<g>
		<path class="st2" d="M21.7,10.4h-5.5V5h5.5V10.4z M18,8.7h2v-2h-2V8.7z"/>
	</g>
	<g>
		<path class="st2" d="M8.2,17H2.8v-5.5h5.5V17H8.2z M4.5,15.3h2.1v-2.1H4.5V15.3z"/>
	</g>
	<g>
		<path class="st2" d="M15,17H9.5v-5.5H15V17z M11.2,15.3h2v-2.1h-2V15.3z"/>
	</g>
	<g>
		<path class="st2" d="M21.7,17h-5.5v-5.5h5.5V17z M18,15.3h2v-2.1h-2V15.3z"/>
	</g>
	<g>
		<path class="st2" d="M8.2,23.6H2.8v-5.5h5.5v5.5H8.2z M4.5,21.8h2.1v-2H4.5V21.8z"/>
	</g>
	<g>
		<path class="st2" d="M15,23.6H9.5v-5.5H15V23.6z M11.2,21.8h2v-2h-2V21.8z"/>
	</g>
	<path class="st1" d="M2,4v24h8v-3h5v3h2.8c-0.1,0,0-0.5,0-0.9c0-3,2.2-5.3,5.2-5.7V4H2z"/>
	<path class="st2" d="M15,28v-3h-5v3H2V4h21v16.5c0,0,0.7,0.9,1,0.9s0,0,1,0.1V2H0v28h9.5H11v-4h2v4h2h3.3c-0.3,0-1.4-1-1.5-2H15z"
		/>
	<path class="st2" d="M33.7,35.5l-4.1-3.4c1-1.3,1.7-3,1.7-4.7c0-4.2-3.4-7.6-7.6-7.6S16,23.1,16,27.3s3.4,7.6,7.6,7.6
		c1.8,0,3.5-0.6,4.8-1.7l4.2,3.5c0.2,0.1,0.4,0.2,0.5,0.2c0.2,0,0.5-0.1,0.7-0.3C34.1,36.3,34.1,35.8,33.7,35.5z M23.6,21.4
		c3.3,0,5.9,2.7,5.9,5.9s-2.7,5.9-5.9,5.9s-5.9-2.7-5.9-5.9S20.4,21.4,23.6,21.4z"/>
	<path class="st2" d="M22,20.8V18h-6v6h2.1C18.8,23,21,21.1,22,20.8z M18,20h2v2h-2V20z"/>
</g>
</svg>
