<?xml version="1.0" encoding="utf-8"?>
<!-- Generator: Adobe Illustrator 20.1.0, SVG Export Plug-In . SVG Version: 6.00 Build 0)  -->
<svg version="1.1" id="Layer_1" xmlns="https://www.w3.org/2000/svg" xmlns:xlink="https://www.w3.org/1999/xlink" x="0px" y="0px"
	 viewBox="0 0 50 51" style="enable-background:new 0 0 50 51;" xml:space="preserve">
<style type="text/css">
	.st0{fill:#959595;}
	.st1{fill:#FFFFFF;}
</style>
<g>
	<g>
		<g>
			<path class="st0" d="M29.7,39.3c-0.1,0-0.2,0-0.4,0c-2-0.1-3.5-0.8-4.8-1.4c-2.9-1.5-5-3.7-6.6-5.5c-2.2-2.5-3.8-5-4.7-7.5
				c-1.2-3.5-0.6-7.3,1.5-9.7c0.3-0.3,0.6-0.6,1-0.9l0.6-0.5c0.4-0.4,0.9-0.8,1.6-0.9c1.8-0.3,2.8,1.4,3.6,2.6l0.2,0.3
				c0.7,1.2,1.7,2.6,1.3,4.2c-0.2,0.8-0.9,1.4-1.4,1.8c-0.1,0.1-0.2,0.2-0.3,0.3c-0.1,0.1-0.3,0.3-0.5,0.4c-0.4,0.3-0.9,0.7-1,1
				c-0.3,0.9,0.3,2,0.8,2.8c1.1,1.7,2.3,3.1,3.8,4.3c0.6,0.5,1.6,1.3,2.5,1.2c0.6-0.1,1-0.6,1.5-1.1c0.6-0.6,1.2-1.3,2.3-1.5
				c1.7-0.3,3,0.8,3.9,1.6l0.7,0.6c0.9,0.8,2.2,1.8,2.1,3.3c-0.1,0.9-0.7,1.5-1.3,2L36,36.6c-0.2,0.2-0.3,0.3-0.5,0.5
				c-0.3,0.3-0.7,0.7-1.1,0.9C33.1,38.9,31.5,39.3,29.7,39.3z M18.3,13.7c-0.1,0-0.2,0-0.2,0h0c-0.4,0.1-0.7,0.4-1.1,0.7l-0.6,0.5
				c-0.4,0.3-0.7,0.6-0.9,0.8c-1.9,2.1-2.4,5.5-1.3,8.7c0.8,2.4,2.3,4.8,4.5,7.2c1.6,1.8,3.6,3.9,6.4,5.3c1.2,0.7,2.6,1.3,4.4,1.3
				c1.7,0.1,3.2-0.3,4.5-1.1c0.3-0.2,0.6-0.5,1-0.8c0.2-0.2,0.4-0.3,0.5-0.5l0.1-0.1c0.5-0.4,0.9-0.8,0.9-1.3
				c0.1-0.9-0.9-1.7-1.7-2.4L34,31.4c-0.8-0.7-1.8-1.6-3-1.4c-0.7,0.1-1.2,0.6-1.7,1.2c-0.5,0.6-1.1,1.2-2.1,1.4
				c-1.4,0.3-2.6-0.8-3.4-1.4c-1.6-1.3-2.9-2.8-4-4.5c-0.6-1-1.3-2.3-0.9-3.6c0.2-0.7,0.8-1.2,1.3-1.6c0.2-0.1,0.3-0.2,0.4-0.3
				c0.1-0.1,0.2-0.2,0.3-0.3c0.5-0.4,0.9-0.7,1-1.2c0.3-1.2-0.5-2.4-1.1-3.5l-0.2-0.3C20,14.9,19.3,13.7,18.3,13.7z"/>
		</g>
		<g>
			<path class="st0" d="M25,2c13.2,0,24,10.8,24,24S38.2,50,25,50S1,39.2,1,26S11.8,2,25,2 M25,1C11.2,1,0,12.2,0,26s11.2,25,25,25
				s25-11.2,25-25S38.8,1,25,1L25,1z"/>
		</g>
	</g>
	<g>
		<g>
			<path class="st1" d="M29.7,38.3c-0.1,0-0.2,0-0.4,0c-2-0.1-3.5-0.8-4.8-1.4c-2.9-1.5-5-3.7-6.6-5.5c-2.2-2.5-3.8-5-4.7-7.5
				c-1.2-3.5-0.6-7.3,1.5-9.7c0.3-0.3,0.6-0.6,1-0.9l0.6-0.5c0.4-0.4,0.9-0.8,1.6-0.9c1.8-0.3,2.8,1.4,3.6,2.6l0.2,0.3
				c0.7,1.2,1.7,2.6,1.3,4.2c-0.2,0.8-0.9,1.4-1.4,1.8c-0.1,0.1-0.2,0.2-0.3,0.3c-0.1,0.1-0.3,0.3-0.5,0.4c-0.4,0.3-0.9,0.7-1,1
				c-0.3,0.9,0.3,2,0.8,2.8c1.1,1.7,2.3,3.1,3.8,4.3c0.6,0.5,1.6,1.3,2.5,1.2c0.6-0.1,1-0.6,1.5-1.1c0.6-0.6,1.2-1.3,2.3-1.5
				c1.7-0.3,3,0.8,3.9,1.6l0.7,0.6c0.9,0.8,2.2,1.8,2.1,3.3c-0.1,0.9-0.7,1.5-1.3,2L36,35.6c-0.2,0.2-0.3,0.3-0.5,0.5
				c-0.3,0.3-0.7,0.7-1.1,0.9C33.1,37.9,31.5,38.3,29.7,38.3z M18.3,12.7c-0.1,0-0.2,0-0.2,0h0c-0.4,0.1-0.7,0.4-1.1,0.7l-0.6,0.5
				c-0.4,0.3-0.7,0.6-0.9,0.8c-1.9,2.1-2.4,5.5-1.3,8.7c0.8,2.4,2.3,4.8,4.5,7.2c1.6,1.8,3.6,3.9,6.4,5.3c1.2,0.7,2.6,1.3,4.4,1.3
				c1.7,0.1,3.2-0.3,4.5-1.1c0.3-0.2,0.6-0.5,1-0.8c0.2-0.2,0.4-0.3,0.5-0.5l0.1-0.1c0.5-0.4,0.9-0.8,0.9-1.3
				c0.1-0.9-0.9-1.7-1.7-2.4L34,30.4c-0.8-0.7-1.8-1.6-3-1.4c-0.7,0.1-1.2,0.6-1.7,1.2c-0.5,0.6-1.1,1.2-2.1,1.4
				c-1.4,0.3-2.6-0.8-3.4-1.4c-1.6-1.3-2.9-2.8-4-4.5c-0.6-1-1.3-2.3-0.9-3.6c0.2-0.7,0.8-1.2,1.3-1.6c0.2-0.1,0.3-0.2,0.4-0.3
				c0.1-0.1,0.2-0.2,0.3-0.3c0.5-0.4,0.9-0.7,1-1.2c0.3-1.2-0.5-2.4-1.1-3.5l-0.2-0.3C20,13.9,19.3,12.7,18.3,12.7z"/>
		</g>
		<g>
			<path class="st1" d="M25,1c13.2,0,24,10.8,24,24S38.2,49,25,49S1,38.2,1,25S11.8,1,25,1 M25,0C11.2,0,0,11.2,0,25s11.2,25,25,25
				s25-11.2,25-25S38.8,0,25,0L25,0z"/>
		</g>
	</g>
</g>
</svg>
