<?xml version="1.0" encoding="utf-8"?>
<!-- Generator: Adobe Illustrator 20.1.0, SVG Export Plug-In . SVG Version: 6.00 Build 0)  -->
<svg version="1.1" id="Layer_1" xmlns="https://www.w3.org/2000/svg" xmlns:xlink="https://www.w3.org/1999/xlink" x="0px" y="0px"
	 viewBox="0 0 23 23" style="enable-background:new 0 0 23 23;" xml:space="preserve">
<style type="text/css">
	.st0{fill:#FFFFFF;}
</style>
<path class="st0" d="M22.4,21.3l-5-5c1.4-1.7,2.3-3.8,2.3-6.2c0-5.2-4.2-9.5-9.5-9.5c-5.2,0-9.5,4.2-9.5,9.5s4.2,9.5,9.5,9.5
	c2.3,0,4.4-0.8,6.1-2.2l5,5c0.1,0.1,0.3,0.2,0.5,0.2s0.4-0.1,0.5-0.2C22.7,22.1,22.7,21.6,22.4,21.3z M2.3,10.1c0-4.4,3.6-8,8-8
	c4.4,0,8,3.6,8,8s-3.6,8-8,8C5.8,18.1,2.3,14.5,2.3,10.1z"/>
<path d="M22.4,21.3l-5-5c1.4-1.7,2.3-3.8,2.3-6.2c0-5.2-4.2-9.5-9.5-9.5c-5.2,0-9.5,4.2-9.5,9.5s4.2,9.5,9.5,9.5
	c2.3,0,4.4-0.8,6.1-2.2l5,5c0.1,0.1,0.3,0.2,0.5,0.2s0.4-0.1,0.5-0.2C22.7,22.1,22.7,21.6,22.4,21.3z M2.3,10.1c0-4.4,3.6-8,8-8
	c4.4,0,8,3.6,8,8s-3.6,8-8,8C5.8,18.1,2.3,14.5,2.3,10.1z"/>
</svg>
