<svg width="15" height="15" viewBox="0 0 15 15" fill="none" xmlns="http://www.w3.org/2000/svg">
<rect width="15" height="15" fill="black"/>
<g id="PC_A" clip-path="url(#clip0_0_1)">
<rect width="1280" height="2759" transform="translate(-112 -474)" fill="#FBFBFB"/>
<g id="&#232;&#135;&#170;&#229;&#183;&#177;&#231;&#180;&#185;&#228;&#187;&#139;">
<g id="Rectangle 2" filter="url(#filter0_d_0_1)">
<rect x="-20" y="-402" width="260" height="1086" rx="5" fill="white"/>
</g>
<g id="Frame 9">
<g id="Frame 6">
<g id="&#233;&#128;&#163;&#231;&#181;&#161;&#229;&#133;&#136;">
<g id="&#233;&#155;&#187;&#232;&#169;&#177;">
<g id="phone" clip-path="url(#clip1_0_1)">
<path id="Vector" d="M13.7499 10.575V12.45C13.7506 12.6241 13.7149 12.7964 13.6452 12.9558C13.5755 13.1153 13.4732 13.2585 13.3449 13.3762C13.2167 13.4938 13.0653 13.5834 12.9004 13.6392C12.7355 13.695 12.5608 13.7157 12.3874 13.7C10.4642 13.491 8.61677 12.8338 6.99365 11.7812C5.48354 10.8217 4.20323 9.54136 3.24365 8.03125C2.18738 6.40075 1.53005 4.54437 1.3249 2.6125C1.30928 2.43967 1.32982 2.26547 1.38521 2.10101C1.4406 1.93655 1.52963 1.78543 1.64663 1.65726C1.76362 1.5291 1.90603 1.42669 2.06477 1.35658C2.22351 1.28646 2.39511 1.25016 2.56865 1.25H4.44365C4.74696 1.24701 5.04102 1.35442 5.271 1.55221C5.50098 1.74999 5.6512 2.02465 5.69365 2.325C5.77279 2.92504 5.91955 3.5142 6.13115 4.08125C6.21524 4.30495 6.23344 4.54807 6.18359 4.7818C6.13374 5.01553 6.01794 5.23007 5.8499 5.4L5.05615 6.19375C5.94587 7.75847 7.24143 9.05403 8.80615 9.94375L9.5999 9.15C9.76983 8.98196 9.98437 8.86616 10.2181 8.81631C10.4518 8.76646 10.6949 8.78466 10.9186 8.86875C11.4857 9.08034 12.0749 9.22711 12.6749 9.30625C12.9785 9.34908 13.2558 9.502 13.454 9.73593C13.6522 9.96986 13.7575 10.2685 13.7499 10.575Z" stroke="black" stroke-linecap="round" stroke-linejoin="round"/>
</g>
</g>
</g>
</g>
</g>
</g>
</g>
<defs>
<filter id="filter0_d_0_1" x="-24" y="-406" width="268" height="1094" filterUnits="userSpaceOnUse" color-interpolation-filters="sRGB">
<feFlood flood-opacity="0" result="BackgroundImageFix"/>
<feColorMatrix in="SourceAlpha" type="matrix" values="0 0 0 0 0 0 0 0 0 0 0 0 0 0 0 0 0 0 127 0" result="hardAlpha"/>
<feMorphology radius="2" operator="dilate" in="SourceAlpha" result="effect1_dropShadow_0_1"/>
<feOffset/>
<feGaussianBlur stdDeviation="1"/>
<feComposite in2="hardAlpha" operator="out"/>
<feColorMatrix type="matrix" values="0 0 0 0 0 0 0 0 0 0 0 0 0 0 0 0 0 0 0.02 0"/>
<feBlend mode="normal" in2="BackgroundImageFix" result="effect1_dropShadow_0_1"/>
<feBlend mode="normal" in="SourceGraphic" in2="effect1_dropShadow_0_1" result="shape"/>
</filter>
<clipPath id="clip0_0_1">
<rect width="1280" height="2759" fill="white" transform="translate(-112 -474)"/>
</clipPath>
<clipPath id="clip1_0_1">
<rect width="15" height="15" fill="white"/>
</clipPath>
</defs>
</svg>
