<svg width="32" height="24" viewBox="0 0 32 24" fill="none" xmlns="http://www.w3.org/2000/svg">
<g id="fluent-mdl2:photo-collection" clip-path="url(#clip0_357_26985)">
<path id="Vector" d="M22.6974 6.07926C22.4301 6.07926 22.1988 5.9816 22.0035 5.78629C21.8082 5.59097 21.7105 5.35968 21.7105 5.09241C21.7105 4.82514 21.8082 4.59385 22.0035 4.39854C22.1988 4.20323 22.4301 4.10557 22.6974 4.10557C22.9646 4.10557 23.1959 4.20323 23.3912 4.39854C23.5866 4.59385 23.6842 4.82514 23.6842 5.09241C23.6842 5.35968 23.5866 5.59097 23.3912 5.78629C23.1959 5.9816 22.9646 6.07926 22.6974 6.07926ZM31.5789 4.10557V23.8424H3.94737V19.895H0V0.158203H27.6316V4.10557H31.5789ZM24.2547 17.9214L18.75 12.4012L16.1904 14.9608L19.1663 17.9214H24.2547ZM1.97368 2.13189V10.5971L6.9079 5.67835L14.8026 13.5731L18.75 9.62572L25.6579 16.5182V2.13189H1.97368ZM16.36 17.9214L6.9079 8.45384L1.97368 13.4035V17.9214H16.36ZM29.6053 6.07926H27.6316V19.895H5.92105V21.8687H29.6053V6.07926Z" fill="#0168B7"/>
</g>
<defs>
<clipPath id="clip0_357_26985">
<rect width="31.5789" height="24" fill="white"/>
</clipPath>
</defs>
</svg>
