<svg width="12" height="12" viewBox="0 0 12 12" fill="none" xmlns="http://www.w3.org/2000/svg">
<path d="M8.0835 1.83333H3.91683C2.76624 1.83333 1.8335 2.76607 1.8335 3.91666V8.08333C1.8335 9.23392 2.76624 10.1667 3.91683 10.1667H8.0835C9.23409 10.1667 10.1668 9.23392 10.1668 8.08333V3.91666C10.1668 2.76607 9.23409 1.83333 8.0835 1.83333Z" stroke="black" stroke-linecap="round" stroke-linejoin="round"/>
<path d="M7.66687 5.7375C7.71829 6.08427 7.65906 6.43843 7.4976 6.74959C7.33614 7.06076 7.08068 7.31309 6.76755 7.4707C6.45441 7.62831 6.09956 7.68317 5.75345 7.62748C5.40734 7.57178 5.0876 7.40837 4.83972 7.16049C4.59184 6.9126 4.42843 6.59287 4.37273 6.24676C4.31704 5.90065 4.3719 5.54579 4.52951 5.23266C4.68711 4.91953 4.93945 4.66406 5.25061 4.5026C5.56178 4.34115 5.91593 4.28192 6.2627 4.33334C6.61642 4.38579 6.94389 4.55061 7.19674 4.80346C7.44959 5.05632 7.61442 5.38379 7.66687 5.7375Z" stroke="black" stroke-linecap="round" stroke-linejoin="round"/>
<path d="M8.2915 3.70833H8.29567" stroke="black" stroke-linecap="round" stroke-linejoin="round"/>
</svg>
