<svg width="422" height="240" viewBox="0 0 422 240" fill="none" xmlns="http://www.w3.org/2000/svg">
<rect x="0.5" y="10.5" width="173" height="39" rx="3.5" fill="white"/>
<rect x="0.5" y="10.5" width="173" height="39" rx="3.5" stroke="#828282"/>
<path d="M20.864 25.374C20.836 25.724 20.822 26.116 20.822 26.592V28.86C20.822 32.22 20.36 33.326 19.352 34.53C18.442 35.622 17.042 36.224 16.02 36.574L15.11 35.608C16.398 35.286 17.588 34.726 18.456 33.746C19.45 32.584 19.618 31.45 19.618 28.804V26.592C19.618 26.116 19.59 25.724 19.548 25.374H20.864ZM14.368 25.486C14.34 25.752 14.312 26.158 14.312 26.494V31.17C14.312 31.52 14.34 31.982 14.368 32.234H13.08C13.108 32.024 13.15 31.576 13.15 31.156V26.494C13.15 26.242 13.122 25.752 13.094 25.486H14.368ZM27.178 25.738C28.172 26.396 29.964 27.852 30.748 28.636L29.866 29.518C29.166 28.79 27.416 27.292 26.38 26.592L27.178 25.738ZM25.974 35.118C28.424 34.754 30.244 33.9 31.574 33.074C33.73 31.716 35.438 29.644 36.25 27.922L36.922 29.112C35.97 30.862 34.332 32.766 32.218 34.096C30.818 34.978 29.054 35.832 26.716 36.266L25.974 35.118ZM45.518 25.122C45.28 25.486 45.028 25.962 44.902 26.228C44.804 26.424 44.692 26.62 44.566 26.816H48.36C48.738 26.816 49.046 26.774 49.27 26.676L50.208 27.25C50.096 27.446 49.956 27.768 49.886 27.992C49.508 29.406 48.64 31.296 47.394 32.808C46.12 34.362 44.454 35.65 41.822 36.616L40.814 35.706C43.376 34.95 45.126 33.676 46.4 32.192C47.492 30.904 48.346 29.098 48.64 27.824H43.908C43.054 29 41.878 30.246 40.352 31.268L39.386 30.54C41.794 29.098 43.18 27.068 43.782 25.808C43.922 25.57 44.132 25.066 44.216 24.702L45.518 25.122ZM58.384 26.55C59.91 26.802 62.738 26.746 64.138 26.536V27.67C62.64 27.838 59.924 27.838 58.384 27.67V26.55ZM58.93 32.248C58.79 32.766 58.72 33.158 58.72 33.536C58.72 34.18 59.182 34.796 61.086 34.796C62.346 34.796 63.424 34.684 64.558 34.432L64.586 35.608C63.704 35.776 62.528 35.902 61.086 35.902C58.734 35.902 57.684 35.118 57.684 33.802C57.684 33.326 57.768 32.836 57.922 32.15L58.93 32.248ZM55.71 25.472C55.64 25.71 55.514 26.158 55.458 26.41C55.192 27.698 54.758 30.204 54.758 31.772C54.758 32.458 54.8 33.046 54.884 33.732C55.122 33.102 55.458 32.262 55.696 31.688L56.284 32.136C55.92 33.13 55.416 34.614 55.29 35.272C55.248 35.482 55.206 35.748 55.22 35.902C55.234 36.056 55.248 36.252 55.262 36.392L54.254 36.462C53.974 35.468 53.736 33.858 53.736 31.968C53.736 29.91 54.198 27.516 54.366 26.354C54.422 26.032 54.464 25.668 54.464 25.36L55.71 25.472ZM71.376 25.668H68.31V26.746H71.376V25.668ZM68.31 28.622H71.376V27.46H68.31V28.622ZM72.356 29.392H68.31V37.078H67.288V24.884H72.356V29.392ZM74.582 28.65H77.76V27.46H74.582V28.65ZM77.76 25.668H74.582V26.746H77.76V25.668ZM78.782 24.884V35.832C78.782 36.392 78.67 36.7 78.292 36.882C77.942 37.05 77.34 37.064 76.458 37.064C76.43 36.812 76.304 36.406 76.178 36.14C76.122 36.224 76.066 36.308 76.038 36.378C74.666 36.014 73.644 35.286 73 34.278C72.594 35.062 71.712 35.846 69.85 36.42C69.724 36.224 69.444 35.902 69.234 35.72C71.208 35.174 71.978 34.376 72.258 33.648H69.36V32.85H72.412V32.724V31.758H69.598V30.974H71.096C70.956 30.61 70.718 30.162 70.466 29.84L71.278 29.574C71.614 30.008 71.936 30.582 72.034 30.974H73.854C74.092 30.54 74.386 29.966 74.526 29.546L75.464 29.854C75.226 30.232 74.974 30.638 74.75 30.974H76.402V31.758H73.336V32.738V32.85H76.64V33.648H73.56C74.148 34.642 75.198 35.328 76.626 35.608C76.5 35.72 76.346 35.902 76.22 36.07C76.808 36.098 77.354 36.098 77.522 36.084C77.704 36.084 77.76 36.014 77.76 35.818V29.406H73.588V24.884H78.782ZM88.778 24.912C88.75 25.066 88.722 25.612 88.708 25.794C88.708 26.004 88.694 26.326 88.694 26.704C88.764 26.704 88.834 26.704 88.904 26.704C90.612 26.704 92.334 26.718 93.006 26.718L92.992 27.754C92.208 27.712 90.934 27.684 88.89 27.684C88.82 27.684 88.764 27.684 88.694 27.684C88.694 28.482 88.708 29.35 88.722 29.994C89.016 30.47 89.17 31.086 89.17 31.786C89.17 33.676 88.246 35.776 84.984 36.756L84.046 35.832C85.908 35.412 87.196 34.628 87.756 33.354C87.42 33.606 87.014 33.732 86.538 33.732C85.362 33.732 84.242 32.92 84.242 31.394C84.242 30.008 85.376 28.958 86.706 28.958C87.056 28.958 87.364 29.014 87.644 29.112C87.644 28.692 87.644 28.188 87.63 27.698C85.502 27.712 83.122 27.81 81.372 27.936L81.344 26.858C82.898 26.83 85.53 26.746 87.616 26.718C87.616 26.326 87.602 25.99 87.588 25.794C87.574 25.43 87.518 25.024 87.504 24.912H88.778ZM85.292 31.38C85.292 32.248 85.936 32.766 86.72 32.766C87.546 32.766 88.078 32.108 87.952 30.778C87.728 30.162 87.252 29.896 86.706 29.896C85.978 29.896 85.292 30.47 85.292 31.38ZM99.124 34.53C99.124 35.202 99.894 35.622 100.986 35.622C101.392 35.622 101.77 35.594 102.12 35.538C102.008 34.432 101.308 33.634 100.244 33.634C99.614 33.634 99.124 34.04 99.124 34.53ZM97.332 25.682C97.654 25.724 98.046 25.738 98.326 25.738C99.054 25.738 102.386 25.626 103.128 25.556C103.548 25.528 103.744 25.486 103.884 25.444L104.528 26.256C104.276 26.438 103.996 26.62 103.744 26.83C103.044 27.362 101.14 28.986 100.048 29.896C100.692 29.672 101.364 29.602 101.994 29.602C104.318 29.602 105.984 31.002 105.984 32.892C105.984 35.146 104.136 36.602 101.168 36.602C99.264 36.602 98.102 35.776 98.102 34.614C98.102 33.648 98.956 32.794 100.258 32.794C102.008 32.794 102.946 33.942 103.114 35.272C104.234 34.838 104.864 34.026 104.864 32.878C104.864 31.506 103.548 30.47 101.728 30.47C99.39 30.47 98.144 31.464 96.366 33.27L95.568 32.444C96.73 31.492 98.522 29.994 99.334 29.308C100.118 28.664 101.868 27.194 102.582 26.564C101.84 26.592 99.04 26.718 98.298 26.76C97.99 26.774 97.668 26.802 97.374 26.844L97.332 25.682ZM111.01 25.64C111.402 25.682 111.822 25.724 112.27 25.724H117.94C118.332 25.724 118.836 25.696 119.242 25.64V26.802C118.836 26.774 118.346 26.76 117.94 26.76H112.284C111.822 26.76 111.36 26.774 111.01 26.802V25.64ZM109.33 29.154C109.722 29.196 110.114 29.224 110.548 29.224H119.718C120.012 29.224 120.474 29.21 120.81 29.154V30.316C120.502 30.302 120.054 30.288 119.718 30.288H115.91C115.868 31.8 115.644 33.074 115.084 34.11C114.58 35.048 113.516 36.056 112.326 36.672L111.29 35.902C112.382 35.454 113.39 34.642 113.936 33.76C114.552 32.78 114.706 31.604 114.748 30.288H110.548C110.128 30.288 109.722 30.288 109.33 30.316V29.154ZM127.488 26.102C127.418 25.738 127.32 25.43 127.222 25.15L128.482 24.926C128.496 25.192 128.566 25.584 128.608 25.892C128.636 26.046 128.734 26.62 128.902 27.404C130.26 27.18 131.548 26.97 132.136 26.858C132.542 26.788 132.892 26.69 133.13 26.62L133.368 27.796C133.158 27.824 132.724 27.88 132.36 27.936C131.716 28.034 130.442 28.244 129.098 28.454C129.28 29.322 129.476 30.316 129.658 31.254C131.072 31.03 132.402 30.792 133.102 30.666C133.648 30.568 134.04 30.484 134.348 30.4L134.572 31.576C134.278 31.604 133.83 31.674 133.312 31.758C132.542 31.884 131.24 32.094 129.868 32.304C130.148 33.676 130.372 34.796 130.442 35.118C130.54 35.524 130.652 36 130.778 36.392L129.504 36.63C129.434 36.154 129.392 35.734 129.294 35.314C129.238 35.006 129.014 33.872 128.748 32.486C127.166 32.752 125.668 33.004 124.982 33.13C124.436 33.228 124.044 33.298 123.75 33.382L123.498 32.164C123.82 32.15 124.366 32.094 124.73 32.038C125.43 31.94 126.956 31.702 128.552 31.45C128.356 30.498 128.16 29.504 127.992 28.636C126.662 28.846 125.444 29.042 124.912 29.14C124.52 29.21 124.198 29.28 123.778 29.378L123.54 28.118C123.89 28.104 124.254 28.076 124.702 28.02C125.248 27.964 126.466 27.782 127.782 27.572C127.628 26.816 127.53 26.27 127.488 26.102ZM146.776 26.634C146.692 26.746 146.51 27.054 146.426 27.25C145.95 28.454 145.068 30.092 144.074 31.352C145.544 32.612 147.252 34.432 148.162 35.538L147.182 36.378C146.244 35.146 144.76 33.494 143.332 32.22C141.834 33.83 139.944 35.37 137.872 36.308L136.976 35.37C139.23 34.488 141.302 32.822 142.744 31.212C143.696 30.134 144.718 28.482 145.068 27.32H139.608C139.118 27.32 138.348 27.376 138.194 27.39V26.116C138.39 26.144 139.188 26.2 139.608 26.2H145.012C145.474 26.2 145.838 26.158 146.062 26.088L146.776 26.634ZM154.294 34.768V26.62C154.294 26.228 154.266 25.598 154.182 25.164H155.554C155.512 25.598 155.456 26.2 155.456 26.62C155.456 27.208 155.456 28.02 155.456 28.902C157.304 29.462 159.964 30.47 161.434 31.212L160.958 32.402C159.432 31.576 157.01 30.638 155.456 30.148C155.47 32.248 155.47 34.362 155.47 34.768C155.47 35.202 155.498 35.958 155.554 36.42H154.196C154.266 35.972 154.294 35.286 154.294 34.768Z" fill="#828282"/>
<rect x="195" y="1" width="226" height="58" rx="3" fill="white"/>
<rect x="195" y="1" width="226" height="58" rx="3" stroke="#0168B7" stroke-width="2"/>
<path d="M222.5 30.8333V35.8333C222.5 36.2754 222.324 36.6993 222.012 37.0118C221.699 37.3244 221.275 37.5 220.833 37.5H211.667C211.225 37.5 210.801 37.3244 210.488 37.0118C210.176 36.6993 210 36.2754 210 35.8333V26.6667C210 26.2246 210.176 25.8007 210.488 25.4882C210.801 25.1756 211.225 25 211.667 25H216.667" stroke="#0168B7" stroke-width="2" stroke-linecap="round" stroke-linejoin="round"/>
<path d="M220 22.5H225V27.5" stroke="#0168B7" stroke-width="2" stroke-linecap="round" stroke-linejoin="round"/>
<path d="M215.833 31.6667L225 22.5" stroke="#0168B7" stroke-width="2" stroke-linecap="round" stroke-linejoin="round"/>
<rect x="238" y="10.5" width="170" height="39" rx="3.5" fill="white"/>
<rect x="238" y="10.5" width="170" height="39" rx="3.5" stroke="#828282"/>
<path d="M250.79 24.338L251.756 24.604C251.448 25.542 251.07 26.48 250.636 27.376V37.064H249.67V29.182C249.25 29.868 248.816 30.498 248.354 31.044C248.256 30.792 247.976 30.246 247.808 29.994C249.012 28.608 250.118 26.48 250.79 24.338ZM255.34 28.818H253.436C253.282 29.336 253.1 29.84 252.904 30.33C253.52 30.736 254.22 31.268 254.668 31.702C254.962 30.848 255.186 29.882 255.34 28.818ZM251.812 25.934V24.996H256.866V25.934H254.08C253.968 26.578 253.842 27.236 253.688 27.908H255.62L255.802 27.88L256.404 28.062C255.858 32.584 254.318 35.552 252.176 37.106C252.05 36.868 251.714 36.462 251.504 36.308C252.652 35.51 253.604 34.292 254.304 32.668C253.87 32.206 253.156 31.604 252.512 31.156C252.246 31.674 251.924 32.136 251.574 32.556C251.434 32.346 251.14 32.01 250.944 31.842C252.176 30.372 252.778 27.964 253.072 25.934H251.812ZM257.86 25.864V33.886H256.936V25.864H257.86ZM259.484 24.506H260.436V35.762C260.436 36.406 260.296 36.714 259.876 36.882C259.484 37.05 258.798 37.078 257.692 37.078C257.636 36.812 257.51 36.35 257.356 36.07C258.196 36.098 258.938 36.084 259.162 36.084C259.4 36.07 259.484 36 259.484 35.762V24.506ZM262.886 38.758L262.102 38.38C263.306 36.392 263.894 34.026 263.894 31.646C263.894 29.266 263.306 26.914 262.102 24.912L262.886 24.548C264.188 26.634 264.958 28.902 264.958 31.646C264.958 34.404 264.188 36.658 262.886 38.758ZM270.649 36V24.856H271.923V27.908L271.881 29.476C272.581 28.776 273.365 28.202 274.401 28.202C275.997 28.202 276.725 29.238 276.725 31.184V36H275.451V31.352C275.451 29.924 275.017 29.322 274.009 29.322C273.225 29.322 272.693 29.714 271.923 30.484V36H270.649ZM281.547 36.182C279.923 36.182 279.377 35.16 279.377 33.648V29.434H278.243V28.468L279.433 28.398L279.587 26.256H280.651V28.398H282.709V29.434H280.651V33.676C280.651 34.614 280.945 35.146 281.827 35.146C282.093 35.146 282.443 35.048 282.695 34.95L282.947 35.902C282.513 36.042 282.009 36.182 281.547 36.182ZM286.51 36.182C284.886 36.182 284.34 35.16 284.34 33.648V29.434H283.206V28.468L284.396 28.398L284.55 26.256H285.614V28.398H287.672V29.434H285.614V33.676C285.614 34.614 285.908 35.146 286.79 35.146C287.056 35.146 287.406 35.048 287.658 34.95L287.91 35.902C287.476 36.042 286.972 36.182 286.51 36.182ZM289.393 39.206V28.398H290.443L290.555 29.266H290.597C291.283 28.706 292.137 28.202 293.019 28.202C294.979 28.202 296.043 29.742 296.043 32.08C296.043 34.684 294.489 36.182 292.739 36.182C292.053 36.182 291.325 35.86 290.639 35.3L290.667 36.63V39.206H289.393ZM292.529 35.118C293.789 35.118 294.713 33.984 294.713 32.094C294.713 30.414 294.153 29.28 292.711 29.28C292.067 29.28 291.409 29.644 290.667 30.33V34.32C291.353 34.908 292.025 35.118 292.529 35.118ZM300.063 36.182C298.985 36.182 297.949 35.734 297.221 35.132L297.851 34.292C298.509 34.824 299.195 35.188 300.105 35.188C301.113 35.188 301.603 34.656 301.603 33.998C301.603 33.214 300.707 32.878 299.867 32.556C298.803 32.164 297.641 31.646 297.641 30.358C297.641 29.154 298.621 28.202 300.273 28.202C301.211 28.202 302.037 28.594 302.625 29.056L302.009 29.882C301.491 29.49 300.959 29.21 300.287 29.21C299.321 29.21 298.873 29.714 298.873 30.302C298.873 31.03 299.657 31.296 300.511 31.618C301.617 32.038 302.835 32.486 302.835 33.928C302.835 35.16 301.855 36.182 300.063 36.182ZM305.282 30.54C304.778 30.54 304.358 30.134 304.358 29.574C304.358 28.986 304.778 28.58 305.282 28.58C305.786 28.58 306.206 28.986 306.206 29.574C306.206 30.134 305.786 30.54 305.282 30.54ZM305.282 36.182C304.778 36.182 304.358 35.79 304.358 35.216C304.358 34.628 304.778 34.222 305.282 34.222C305.786 34.222 306.206 34.628 306.206 35.216C306.206 35.79 305.786 36.182 305.282 36.182ZM307.386 38.506L311.586 24.884H312.51L308.324 38.506H307.386ZM312.869 38.506L317.069 24.884H317.993L313.807 38.506H312.869ZM320.689 36L318.575 28.398H319.877L321.011 32.794C321.165 33.522 321.319 34.208 321.459 34.922H321.529C321.697 34.208 321.851 33.508 322.047 32.794L323.223 28.398H324.469L325.659 32.794C325.841 33.522 326.009 34.208 326.191 34.922H326.247C326.415 34.208 326.555 33.522 326.723 32.794L327.843 28.398H329.047L327.003 36H325.463L324.357 31.898C324.161 31.184 324.021 30.484 323.839 29.714H323.769C323.601 30.484 323.447 31.198 323.251 31.926L322.187 36H320.689ZM331.914 36L329.8 28.398H331.102L332.236 32.794C332.39 33.522 332.544 34.208 332.684 34.922H332.754C332.922 34.208 333.076 33.508 333.272 32.794L334.448 28.398H335.694L336.884 32.794C337.066 33.522 337.234 34.208 337.416 34.922H337.472C337.64 34.208 337.78 33.522 337.948 32.794L339.068 28.398H340.272L338.228 36H336.688L335.582 31.898C335.386 31.184 335.246 30.484 335.064 29.714H334.994C334.826 30.484 334.672 31.198 334.476 31.926L333.412 36H331.914ZM343.138 36L341.024 28.398H342.326L343.46 32.794C343.614 33.522 343.768 34.208 343.908 34.922H343.978C344.146 34.208 344.3 33.508 344.496 32.794L345.672 28.398H346.918L348.108 32.794C348.29 33.522 348.458 34.208 348.64 34.922H348.696C348.864 34.208 349.004 33.522 349.172 32.794L350.292 28.398H351.496L349.452 36H347.912L346.806 31.898C346.61 31.184 346.47 30.484 346.288 29.714H346.218C346.05 30.484 345.896 31.198 345.7 31.926L344.636 36H343.138ZM353.188 36.182C352.684 36.182 352.264 35.79 352.264 35.216C352.264 34.628 352.684 34.222 353.188 34.222C353.692 34.222 354.112 34.628 354.112 35.216C354.112 35.79 353.692 36.182 353.188 36.182Z" fill="#828282"/>
<rect x="0.5" y="100.5" width="173" height="39" rx="3.5" fill="white"/>
<rect x="0.5" y="100.5" width="173" height="39" rx="3.5" stroke="#828282"/>
<path d="M20.864 115.374C20.836 115.724 20.822 116.116 20.822 116.592V118.86C20.822 122.22 20.36 123.326 19.352 124.53C18.442 125.622 17.042 126.224 16.02 126.574L15.11 125.608C16.398 125.286 17.588 124.726 18.456 123.746C19.45 122.584 19.618 121.45 19.618 118.804V116.592C19.618 116.116 19.59 115.724 19.548 115.374H20.864ZM14.368 115.486C14.34 115.752 14.312 116.158 14.312 116.494V121.17C14.312 121.52 14.34 121.982 14.368 122.234H13.08C13.108 122.024 13.15 121.576 13.15 121.156V116.494C13.15 116.242 13.122 115.752 13.094 115.486H14.368ZM27.178 115.738C28.172 116.396 29.964 117.852 30.748 118.636L29.866 119.518C29.166 118.79 27.416 117.292 26.38 116.592L27.178 115.738ZM25.974 125.118C28.424 124.754 30.244 123.9 31.574 123.074C33.73 121.716 35.438 119.644 36.25 117.922L36.922 119.112C35.97 120.862 34.332 122.766 32.218 124.096C30.818 124.978 29.054 125.832 26.716 126.266L25.974 125.118ZM45.518 115.122C45.28 115.486 45.028 115.962 44.902 116.228C44.804 116.424 44.692 116.62 44.566 116.816H48.36C48.738 116.816 49.046 116.774 49.27 116.676L50.208 117.25C50.096 117.446 49.956 117.768 49.886 117.992C49.508 119.406 48.64 121.296 47.394 122.808C46.12 124.362 44.454 125.65 41.822 126.616L40.814 125.706C43.376 124.95 45.126 123.676 46.4 122.192C47.492 120.904 48.346 119.098 48.64 117.824H43.908C43.054 119 41.878 120.246 40.352 121.268L39.386 120.54C41.794 119.098 43.18 117.068 43.782 115.808C43.922 115.57 44.132 115.066 44.216 114.702L45.518 115.122ZM58.384 116.55C59.91 116.802 62.738 116.746 64.138 116.536V117.67C62.64 117.838 59.924 117.838 58.384 117.67V116.55ZM58.93 122.248C58.79 122.766 58.72 123.158 58.72 123.536C58.72 124.18 59.182 124.796 61.086 124.796C62.346 124.796 63.424 124.684 64.558 124.432L64.586 125.608C63.704 125.776 62.528 125.902 61.086 125.902C58.734 125.902 57.684 125.118 57.684 123.802C57.684 123.326 57.768 122.836 57.922 122.15L58.93 122.248ZM55.71 115.472C55.64 115.71 55.514 116.158 55.458 116.41C55.192 117.698 54.758 120.204 54.758 121.772C54.758 122.458 54.8 123.046 54.884 123.732C55.122 123.102 55.458 122.262 55.696 121.688L56.284 122.136C55.92 123.13 55.416 124.614 55.29 125.272C55.248 125.482 55.206 125.748 55.22 125.902C55.234 126.056 55.248 126.252 55.262 126.392L54.254 126.462C53.974 125.468 53.736 123.858 53.736 121.968C53.736 119.91 54.198 117.516 54.366 116.354C54.422 116.032 54.464 115.668 54.464 115.36L55.71 115.472ZM71.376 115.668H68.31V116.746H71.376V115.668ZM68.31 118.622H71.376V117.46H68.31V118.622ZM72.356 119.392H68.31V127.078H67.288V114.884H72.356V119.392ZM74.582 118.65H77.76V117.46H74.582V118.65ZM77.76 115.668H74.582V116.746H77.76V115.668ZM78.782 114.884V125.832C78.782 126.392 78.67 126.7 78.292 126.882C77.942 127.05 77.34 127.064 76.458 127.064C76.43 126.812 76.304 126.406 76.178 126.14C76.122 126.224 76.066 126.308 76.038 126.378C74.666 126.014 73.644 125.286 73 124.278C72.594 125.062 71.712 125.846 69.85 126.42C69.724 126.224 69.444 125.902 69.234 125.72C71.208 125.174 71.978 124.376 72.258 123.648H69.36V122.85H72.412V122.724V121.758H69.598V120.974H71.096C70.956 120.61 70.718 120.162 70.466 119.84L71.278 119.574C71.614 120.008 71.936 120.582 72.034 120.974H73.854C74.092 120.54 74.386 119.966 74.526 119.546L75.464 119.854C75.226 120.232 74.974 120.638 74.75 120.974H76.402V121.758H73.336V122.738V122.85H76.64V123.648H73.56C74.148 124.642 75.198 125.328 76.626 125.608C76.5 125.72 76.346 125.902 76.22 126.07C76.808 126.098 77.354 126.098 77.522 126.084C77.704 126.084 77.76 126.014 77.76 125.818V119.406H73.588V114.884H78.782ZM88.778 114.912C88.75 115.066 88.722 115.612 88.708 115.794C88.708 116.004 88.694 116.326 88.694 116.704C88.764 116.704 88.834 116.704 88.904 116.704C90.612 116.704 92.334 116.718 93.006 116.718L92.992 117.754C92.208 117.712 90.934 117.684 88.89 117.684C88.82 117.684 88.764 117.684 88.694 117.684C88.694 118.482 88.708 119.35 88.722 119.994C89.016 120.47 89.17 121.086 89.17 121.786C89.17 123.676 88.246 125.776 84.984 126.756L84.046 125.832C85.908 125.412 87.196 124.628 87.756 123.354C87.42 123.606 87.014 123.732 86.538 123.732C85.362 123.732 84.242 122.92 84.242 121.394C84.242 120.008 85.376 118.958 86.706 118.958C87.056 118.958 87.364 119.014 87.644 119.112C87.644 118.692 87.644 118.188 87.63 117.698C85.502 117.712 83.122 117.81 81.372 117.936L81.344 116.858C82.898 116.83 85.53 116.746 87.616 116.718C87.616 116.326 87.602 115.99 87.588 115.794C87.574 115.43 87.518 115.024 87.504 114.912H88.778ZM85.292 121.38C85.292 122.248 85.936 122.766 86.72 122.766C87.546 122.766 88.078 122.108 87.952 120.778C87.728 120.162 87.252 119.896 86.706 119.896C85.978 119.896 85.292 120.47 85.292 121.38ZM99.124 124.53C99.124 125.202 99.894 125.622 100.986 125.622C101.392 125.622 101.77 125.594 102.12 125.538C102.008 124.432 101.308 123.634 100.244 123.634C99.614 123.634 99.124 124.04 99.124 124.53ZM97.332 115.682C97.654 115.724 98.046 115.738 98.326 115.738C99.054 115.738 102.386 115.626 103.128 115.556C103.548 115.528 103.744 115.486 103.884 115.444L104.528 116.256C104.276 116.438 103.996 116.62 103.744 116.83C103.044 117.362 101.14 118.986 100.048 119.896C100.692 119.672 101.364 119.602 101.994 119.602C104.318 119.602 105.984 121.002 105.984 122.892C105.984 125.146 104.136 126.602 101.168 126.602C99.264 126.602 98.102 125.776 98.102 124.614C98.102 123.648 98.956 122.794 100.258 122.794C102.008 122.794 102.946 123.942 103.114 125.272C104.234 124.838 104.864 124.026 104.864 122.878C104.864 121.506 103.548 120.47 101.728 120.47C99.39 120.47 98.144 121.464 96.366 123.27L95.568 122.444C96.73 121.492 98.522 119.994 99.334 119.308C100.118 118.664 101.868 117.194 102.582 116.564C101.84 116.592 99.04 116.718 98.298 116.76C97.99 116.774 97.668 116.802 97.374 116.844L97.332 115.682ZM111.01 115.64C111.402 115.682 111.822 115.724 112.27 115.724H117.94C118.332 115.724 118.836 115.696 119.242 115.64V116.802C118.836 116.774 118.346 116.76 117.94 116.76H112.284C111.822 116.76 111.36 116.774 111.01 116.802V115.64ZM109.33 119.154C109.722 119.196 110.114 119.224 110.548 119.224H119.718C120.012 119.224 120.474 119.21 120.81 119.154V120.316C120.502 120.302 120.054 120.288 119.718 120.288H115.91C115.868 121.8 115.644 123.074 115.084 124.11C114.58 125.048 113.516 126.056 112.326 126.672L111.29 125.902C112.382 125.454 113.39 124.642 113.936 123.76C114.552 122.78 114.706 121.604 114.748 120.288H110.548C110.128 120.288 109.722 120.288 109.33 120.316V119.154ZM127.488 116.102C127.418 115.738 127.32 115.43 127.222 115.15L128.482 114.926C128.496 115.192 128.566 115.584 128.608 115.892C128.636 116.046 128.734 116.62 128.902 117.404C130.26 117.18 131.548 116.97 132.136 116.858C132.542 116.788 132.892 116.69 133.13 116.62L133.368 117.796C133.158 117.824 132.724 117.88 132.36 117.936C131.716 118.034 130.442 118.244 129.098 118.454C129.28 119.322 129.476 120.316 129.658 121.254C131.072 121.03 132.402 120.792 133.102 120.666C133.648 120.568 134.04 120.484 134.348 120.4L134.572 121.576C134.278 121.604 133.83 121.674 133.312 121.758C132.542 121.884 131.24 122.094 129.868 122.304C130.148 123.676 130.372 124.796 130.442 125.118C130.54 125.524 130.652 126 130.778 126.392L129.504 126.63C129.434 126.154 129.392 125.734 129.294 125.314C129.238 125.006 129.014 123.872 128.748 122.486C127.166 122.752 125.668 123.004 124.982 123.13C124.436 123.228 124.044 123.298 123.75 123.382L123.498 122.164C123.82 122.15 124.366 122.094 124.73 122.038C125.43 121.94 126.956 121.702 128.552 121.45C128.356 120.498 128.16 119.504 127.992 118.636C126.662 118.846 125.444 119.042 124.912 119.14C124.52 119.21 124.198 119.28 123.778 119.378L123.54 118.118C123.89 118.104 124.254 118.076 124.702 118.02C125.248 117.964 126.466 117.782 127.782 117.572C127.628 116.816 127.53 116.27 127.488 116.102ZM146.776 116.634C146.692 116.746 146.51 117.054 146.426 117.25C145.95 118.454 145.068 120.092 144.074 121.352C145.544 122.612 147.252 124.432 148.162 125.538L147.182 126.378C146.244 125.146 144.76 123.494 143.332 122.22C141.834 123.83 139.944 125.37 137.872 126.308L136.976 125.37C139.23 124.488 141.302 122.822 142.744 121.212C143.696 120.134 144.718 118.482 145.068 117.32H139.608C139.118 117.32 138.348 117.376 138.194 117.39V116.116C138.39 116.144 139.188 116.2 139.608 116.2H145.012C145.474 116.2 145.838 116.158 146.062 116.088L146.776 116.634ZM154.294 124.768V116.62C154.294 116.228 154.266 115.598 154.182 115.164H155.554C155.512 115.598 155.456 116.2 155.456 116.62C155.456 117.208 155.456 118.02 155.456 118.902C157.304 119.462 159.964 120.47 161.434 121.212L160.958 122.402C159.432 121.576 157.01 120.638 155.456 120.148C155.47 122.248 155.47 124.362 155.47 124.768C155.47 125.202 155.498 125.958 155.554 126.42H154.196C154.266 125.972 154.294 125.286 154.294 124.768Z" fill="#828282"/>
<rect x="195" y="91" width="226" height="58" rx="3" fill="white"/>
<rect x="195" y="91" width="226" height="58" rx="3" stroke="#0168B7" stroke-width="2"/>
<path d="M222.5 120.833V125.833C222.5 126.275 222.324 126.699 222.012 127.012C221.699 127.324 221.275 127.5 220.833 127.5H211.667C211.225 127.5 210.801 127.324 210.488 127.012C210.176 126.699 210 126.275 210 125.833V116.667C210 116.225 210.176 115.801 210.488 115.488C210.801 115.176 211.225 115 211.667 115H216.667" stroke="#0168B7" stroke-width="2" stroke-linecap="round" stroke-linejoin="round"/>
<path d="M220 112.5H225V117.5" stroke="#0168B7" stroke-width="2" stroke-linecap="round" stroke-linejoin="round"/>
<path d="M215.833 121.667L225 112.5" stroke="#0168B7" stroke-width="2" stroke-linecap="round" stroke-linejoin="round"/>
<rect x="238" y="100.5" width="170" height="39" rx="3.5" fill="white"/>
<rect x="238" y="100.5" width="170" height="39" rx="3.5" stroke="#828282"/>
<path d="M250.79 114.338L251.756 114.604C251.448 115.542 251.07 116.48 250.636 117.376V127.064H249.67V119.182C249.25 119.868 248.816 120.498 248.354 121.044C248.256 120.792 247.976 120.246 247.808 119.994C249.012 118.608 250.118 116.48 250.79 114.338ZM255.34 118.818H253.436C253.282 119.336 253.1 119.84 252.904 120.33C253.52 120.736 254.22 121.268 254.668 121.702C254.962 120.848 255.186 119.882 255.34 118.818ZM251.812 115.934V114.996H256.866V115.934H254.08C253.968 116.578 253.842 117.236 253.688 117.908H255.62L255.802 117.88L256.404 118.062C255.858 122.584 254.318 125.552 252.176 127.106C252.05 126.868 251.714 126.462 251.504 126.308C252.652 125.51 253.604 124.292 254.304 122.668C253.87 122.206 253.156 121.604 252.512 121.156C252.246 121.674 251.924 122.136 251.574 122.556C251.434 122.346 251.14 122.01 250.944 121.842C252.176 120.372 252.778 117.964 253.072 115.934H251.812ZM257.86 115.864V123.886H256.936V115.864H257.86ZM259.484 114.506H260.436V125.762C260.436 126.406 260.296 126.714 259.876 126.882C259.484 127.05 258.798 127.078 257.692 127.078C257.636 126.812 257.51 126.35 257.356 126.07C258.196 126.098 258.938 126.084 259.162 126.084C259.4 126.07 259.484 126 259.484 125.762V114.506ZM262.886 128.758L262.102 128.38C263.306 126.392 263.894 124.026 263.894 121.646C263.894 119.266 263.306 116.914 262.102 114.912L262.886 114.548C264.188 116.634 264.958 118.902 264.958 121.646C264.958 124.404 264.188 126.658 262.886 128.758ZM270.649 126V114.856H271.923V117.908L271.881 119.476C272.581 118.776 273.365 118.202 274.401 118.202C275.997 118.202 276.725 119.238 276.725 121.184V126H275.451V121.352C275.451 119.924 275.017 119.322 274.009 119.322C273.225 119.322 272.693 119.714 271.923 120.484V126H270.649ZM281.547 126.182C279.923 126.182 279.377 125.16 279.377 123.648V119.434H278.243V118.468L279.433 118.398L279.587 116.256H280.651V118.398H282.709V119.434H280.651V123.676C280.651 124.614 280.945 125.146 281.827 125.146C282.093 125.146 282.443 125.048 282.695 124.95L282.947 125.902C282.513 126.042 282.009 126.182 281.547 126.182ZM286.51 126.182C284.886 126.182 284.34 125.16 284.34 123.648V119.434H283.206V118.468L284.396 118.398L284.55 116.256H285.614V118.398H287.672V119.434H285.614V123.676C285.614 124.614 285.908 125.146 286.79 125.146C287.056 125.146 287.406 125.048 287.658 124.95L287.91 125.902C287.476 126.042 286.972 126.182 286.51 126.182ZM289.393 129.206V118.398H290.443L290.555 119.266H290.597C291.283 118.706 292.137 118.202 293.019 118.202C294.979 118.202 296.043 119.742 296.043 122.08C296.043 124.684 294.489 126.182 292.739 126.182C292.053 126.182 291.325 125.86 290.639 125.3L290.667 126.63V129.206H289.393ZM292.529 125.118C293.789 125.118 294.713 123.984 294.713 122.094C294.713 120.414 294.153 119.28 292.711 119.28C292.067 119.28 291.409 119.644 290.667 120.33V124.32C291.353 124.908 292.025 125.118 292.529 125.118ZM300.063 126.182C298.985 126.182 297.949 125.734 297.221 125.132L297.851 124.292C298.509 124.824 299.195 125.188 300.105 125.188C301.113 125.188 301.603 124.656 301.603 123.998C301.603 123.214 300.707 122.878 299.867 122.556C298.803 122.164 297.641 121.646 297.641 120.358C297.641 119.154 298.621 118.202 300.273 118.202C301.211 118.202 302.037 118.594 302.625 119.056L302.009 119.882C301.491 119.49 300.959 119.21 300.287 119.21C299.321 119.21 298.873 119.714 298.873 120.302C298.873 121.03 299.657 121.296 300.511 121.618C301.617 122.038 302.835 122.486 302.835 123.928C302.835 125.16 301.855 126.182 300.063 126.182ZM305.282 120.54C304.778 120.54 304.358 120.134 304.358 119.574C304.358 118.986 304.778 118.58 305.282 118.58C305.786 118.58 306.206 118.986 306.206 119.574C306.206 120.134 305.786 120.54 305.282 120.54ZM305.282 126.182C304.778 126.182 304.358 125.79 304.358 125.216C304.358 124.628 304.778 124.222 305.282 124.222C305.786 124.222 306.206 124.628 306.206 125.216C306.206 125.79 305.786 126.182 305.282 126.182ZM307.386 128.506L311.586 114.884H312.51L308.324 128.506H307.386ZM312.869 128.506L317.069 114.884H317.993L313.807 128.506H312.869ZM320.689 126L318.575 118.398H319.877L321.011 122.794C321.165 123.522 321.319 124.208 321.459 124.922H321.529C321.697 124.208 321.851 123.508 322.047 122.794L323.223 118.398H324.469L325.659 122.794C325.841 123.522 326.009 124.208 326.191 124.922H326.247C326.415 124.208 326.555 123.522 326.723 122.794L327.843 118.398H329.047L327.003 126H325.463L324.357 121.898C324.161 121.184 324.021 120.484 323.839 119.714H323.769C323.601 120.484 323.447 121.198 323.251 121.926L322.187 126H320.689ZM331.914 126L329.8 118.398H331.102L332.236 122.794C332.39 123.522 332.544 124.208 332.684 124.922H332.754C332.922 124.208 333.076 123.508 333.272 122.794L334.448 118.398H335.694L336.884 122.794C337.066 123.522 337.234 124.208 337.416 124.922H337.472C337.64 124.208 337.78 123.522 337.948 122.794L339.068 118.398H340.272L338.228 126H336.688L335.582 121.898C335.386 121.184 335.246 120.484 335.064 119.714H334.994C334.826 120.484 334.672 121.198 334.476 121.926L333.412 126H331.914ZM343.138 126L341.024 118.398H342.326L343.46 122.794C343.614 123.522 343.768 124.208 343.908 124.922H343.978C344.146 124.208 344.3 123.508 344.496 122.794L345.672 118.398H346.918L348.108 122.794C348.29 123.522 348.458 124.208 348.64 124.922H348.696C348.864 124.208 349.004 123.522 349.172 122.794L350.292 118.398H351.496L349.452 126H347.912L346.806 121.898C346.61 121.184 346.47 120.484 346.288 119.714H346.218C346.05 120.484 345.896 121.198 345.7 121.926L344.636 126H343.138ZM353.188 126.182C352.684 126.182 352.264 125.79 352.264 125.216C352.264 124.628 352.684 124.222 353.188 124.222C353.692 124.222 354.112 124.628 354.112 125.216C354.112 125.79 353.692 126.182 353.188 126.182Z" fill="#828282"/>
<rect x="0.5" y="190.5" width="173" height="39" rx="3.5" fill="white"/>
<rect x="0.5" y="190.5" width="173" height="39" rx="3.5" stroke="#828282"/>
<path d="M20.864 205.374C20.836 205.724 20.822 206.116 20.822 206.592V208.86C20.822 212.22 20.36 213.326 19.352 214.53C18.442 215.622 17.042 216.224 16.02 216.574L15.11 215.608C16.398 215.286 17.588 214.726 18.456 213.746C19.45 212.584 19.618 211.45 19.618 208.804V206.592C19.618 206.116 19.59 205.724 19.548 205.374H20.864ZM14.368 205.486C14.34 205.752 14.312 206.158 14.312 206.494V211.17C14.312 211.52 14.34 211.982 14.368 212.234H13.08C13.108 212.024 13.15 211.576 13.15 211.156V206.494C13.15 206.242 13.122 205.752 13.094 205.486H14.368ZM27.178 205.738C28.172 206.396 29.964 207.852 30.748 208.636L29.866 209.518C29.166 208.79 27.416 207.292 26.38 206.592L27.178 205.738ZM25.974 215.118C28.424 214.754 30.244 213.9 31.574 213.074C33.73 211.716 35.438 209.644 36.25 207.922L36.922 209.112C35.97 210.862 34.332 212.766 32.218 214.096C30.818 214.978 29.054 215.832 26.716 216.266L25.974 215.118ZM45.518 205.122C45.28 205.486 45.028 205.962 44.902 206.228C44.804 206.424 44.692 206.62 44.566 206.816H48.36C48.738 206.816 49.046 206.774 49.27 206.676L50.208 207.25C50.096 207.446 49.956 207.768 49.886 207.992C49.508 209.406 48.64 211.296 47.394 212.808C46.12 214.362 44.454 215.65 41.822 216.616L40.814 215.706C43.376 214.95 45.126 213.676 46.4 212.192C47.492 210.904 48.346 209.098 48.64 207.824H43.908C43.054 209 41.878 210.246 40.352 211.268L39.386 210.54C41.794 209.098 43.18 207.068 43.782 205.808C43.922 205.57 44.132 205.066 44.216 204.702L45.518 205.122ZM58.384 206.55C59.91 206.802 62.738 206.746 64.138 206.536V207.67C62.64 207.838 59.924 207.838 58.384 207.67V206.55ZM58.93 212.248C58.79 212.766 58.72 213.158 58.72 213.536C58.72 214.18 59.182 214.796 61.086 214.796C62.346 214.796 63.424 214.684 64.558 214.432L64.586 215.608C63.704 215.776 62.528 215.902 61.086 215.902C58.734 215.902 57.684 215.118 57.684 213.802C57.684 213.326 57.768 212.836 57.922 212.15L58.93 212.248ZM55.71 205.472C55.64 205.71 55.514 206.158 55.458 206.41C55.192 207.698 54.758 210.204 54.758 211.772C54.758 212.458 54.8 213.046 54.884 213.732C55.122 213.102 55.458 212.262 55.696 211.688L56.284 212.136C55.92 213.13 55.416 214.614 55.29 215.272C55.248 215.482 55.206 215.748 55.22 215.902C55.234 216.056 55.248 216.252 55.262 216.392L54.254 216.462C53.974 215.468 53.736 213.858 53.736 211.968C53.736 209.91 54.198 207.516 54.366 206.354C54.422 206.032 54.464 205.668 54.464 205.36L55.71 205.472ZM71.376 205.668H68.31V206.746H71.376V205.668ZM68.31 208.622H71.376V207.46H68.31V208.622ZM72.356 209.392H68.31V217.078H67.288V204.884H72.356V209.392ZM74.582 208.65H77.76V207.46H74.582V208.65ZM77.76 205.668H74.582V206.746H77.76V205.668ZM78.782 204.884V215.832C78.782 216.392 78.67 216.7 78.292 216.882C77.942 217.05 77.34 217.064 76.458 217.064C76.43 216.812 76.304 216.406 76.178 216.14C76.122 216.224 76.066 216.308 76.038 216.378C74.666 216.014 73.644 215.286 73 214.278C72.594 215.062 71.712 215.846 69.85 216.42C69.724 216.224 69.444 215.902 69.234 215.72C71.208 215.174 71.978 214.376 72.258 213.648H69.36V212.85H72.412V212.724V211.758H69.598V210.974H71.096C70.956 210.61 70.718 210.162 70.466 209.84L71.278 209.574C71.614 210.008 71.936 210.582 72.034 210.974H73.854C74.092 210.54 74.386 209.966 74.526 209.546L75.464 209.854C75.226 210.232 74.974 210.638 74.75 210.974H76.402V211.758H73.336V212.738V212.85H76.64V213.648H73.56C74.148 214.642 75.198 215.328 76.626 215.608C76.5 215.72 76.346 215.902 76.22 216.07C76.808 216.098 77.354 216.098 77.522 216.084C77.704 216.084 77.76 216.014 77.76 215.818V209.406H73.588V204.884H78.782ZM88.778 204.912C88.75 205.066 88.722 205.612 88.708 205.794C88.708 206.004 88.694 206.326 88.694 206.704C88.764 206.704 88.834 206.704 88.904 206.704C90.612 206.704 92.334 206.718 93.006 206.718L92.992 207.754C92.208 207.712 90.934 207.684 88.89 207.684C88.82 207.684 88.764 207.684 88.694 207.684C88.694 208.482 88.708 209.35 88.722 209.994C89.016 210.47 89.17 211.086 89.17 211.786C89.17 213.676 88.246 215.776 84.984 216.756L84.046 215.832C85.908 215.412 87.196 214.628 87.756 213.354C87.42 213.606 87.014 213.732 86.538 213.732C85.362 213.732 84.242 212.92 84.242 211.394C84.242 210.008 85.376 208.958 86.706 208.958C87.056 208.958 87.364 209.014 87.644 209.112C87.644 208.692 87.644 208.188 87.63 207.698C85.502 207.712 83.122 207.81 81.372 207.936L81.344 206.858C82.898 206.83 85.53 206.746 87.616 206.718C87.616 206.326 87.602 205.99 87.588 205.794C87.574 205.43 87.518 205.024 87.504 204.912H88.778ZM85.292 211.38C85.292 212.248 85.936 212.766 86.72 212.766C87.546 212.766 88.078 212.108 87.952 210.778C87.728 210.162 87.252 209.896 86.706 209.896C85.978 209.896 85.292 210.47 85.292 211.38ZM99.124 214.53C99.124 215.202 99.894 215.622 100.986 215.622C101.392 215.622 101.77 215.594 102.12 215.538C102.008 214.432 101.308 213.634 100.244 213.634C99.614 213.634 99.124 214.04 99.124 214.53ZM97.332 205.682C97.654 205.724 98.046 205.738 98.326 205.738C99.054 205.738 102.386 205.626 103.128 205.556C103.548 205.528 103.744 205.486 103.884 205.444L104.528 206.256C104.276 206.438 103.996 206.62 103.744 206.83C103.044 207.362 101.14 208.986 100.048 209.896C100.692 209.672 101.364 209.602 101.994 209.602C104.318 209.602 105.984 211.002 105.984 212.892C105.984 215.146 104.136 216.602 101.168 216.602C99.264 216.602 98.102 215.776 98.102 214.614C98.102 213.648 98.956 212.794 100.258 212.794C102.008 212.794 102.946 213.942 103.114 215.272C104.234 214.838 104.864 214.026 104.864 212.878C104.864 211.506 103.548 210.47 101.728 210.47C99.39 210.47 98.144 211.464 96.366 213.27L95.568 212.444C96.73 211.492 98.522 209.994 99.334 209.308C100.118 208.664 101.868 207.194 102.582 206.564C101.84 206.592 99.04 206.718 98.298 206.76C97.99 206.774 97.668 206.802 97.374 206.844L97.332 205.682ZM111.01 205.64C111.402 205.682 111.822 205.724 112.27 205.724H117.94C118.332 205.724 118.836 205.696 119.242 205.64V206.802C118.836 206.774 118.346 206.76 117.94 206.76H112.284C111.822 206.76 111.36 206.774 111.01 206.802V205.64ZM109.33 209.154C109.722 209.196 110.114 209.224 110.548 209.224H119.718C120.012 209.224 120.474 209.21 120.81 209.154V210.316C120.502 210.302 120.054 210.288 119.718 210.288H115.91C115.868 211.8 115.644 213.074 115.084 214.11C114.58 215.048 113.516 216.056 112.326 216.672L111.29 215.902C112.382 215.454 113.39 214.642 113.936 213.76C114.552 212.78 114.706 211.604 114.748 210.288H110.548C110.128 210.288 109.722 210.288 109.33 210.316V209.154ZM127.488 206.102C127.418 205.738 127.32 205.43 127.222 205.15L128.482 204.926C128.496 205.192 128.566 205.584 128.608 205.892C128.636 206.046 128.734 206.62 128.902 207.404C130.26 207.18 131.548 206.97 132.136 206.858C132.542 206.788 132.892 206.69 133.13 206.62L133.368 207.796C133.158 207.824 132.724 207.88 132.36 207.936C131.716 208.034 130.442 208.244 129.098 208.454C129.28 209.322 129.476 210.316 129.658 211.254C131.072 211.03 132.402 210.792 133.102 210.666C133.648 210.568 134.04 210.484 134.348 210.4L134.572 211.576C134.278 211.604 133.83 211.674 133.312 211.758C132.542 211.884 131.24 212.094 129.868 212.304C130.148 213.676 130.372 214.796 130.442 215.118C130.54 215.524 130.652 216 130.778 216.392L129.504 216.63C129.434 216.154 129.392 215.734 129.294 215.314C129.238 215.006 129.014 213.872 128.748 212.486C127.166 212.752 125.668 213.004 124.982 213.13C124.436 213.228 124.044 213.298 123.75 213.382L123.498 212.164C123.82 212.15 124.366 212.094 124.73 212.038C125.43 211.94 126.956 211.702 128.552 211.45C128.356 210.498 128.16 209.504 127.992 208.636C126.662 208.846 125.444 209.042 124.912 209.14C124.52 209.21 124.198 209.28 123.778 209.378L123.54 208.118C123.89 208.104 124.254 208.076 124.702 208.02C125.248 207.964 126.466 207.782 127.782 207.572C127.628 206.816 127.53 206.27 127.488 206.102ZM146.776 206.634C146.692 206.746 146.51 207.054 146.426 207.25C145.95 208.454 145.068 210.092 144.074 211.352C145.544 212.612 147.252 214.432 148.162 215.538L147.182 216.378C146.244 215.146 144.76 213.494 143.332 212.22C141.834 213.83 139.944 215.37 137.872 216.308L136.976 215.37C139.23 214.488 141.302 212.822 142.744 211.212C143.696 210.134 144.718 208.482 145.068 207.32H139.608C139.118 207.32 138.348 207.376 138.194 207.39V206.116C138.39 206.144 139.188 206.2 139.608 206.2H145.012C145.474 206.2 145.838 206.158 146.062 206.088L146.776 206.634ZM154.294 214.768V206.62C154.294 206.228 154.266 205.598 154.182 205.164H155.554C155.512 205.598 155.456 206.2 155.456 206.62C155.456 207.208 155.456 208.02 155.456 208.902C157.304 209.462 159.964 210.47 161.434 211.212L160.958 212.402C159.432 211.576 157.01 210.638 155.456 210.148C155.47 212.248 155.47 214.362 155.47 214.768C155.47 215.202 155.498 215.958 155.554 216.42H154.196C154.266 215.972 154.294 215.286 154.294 214.768Z" fill="#828282"/>
<rect x="195" y="181" width="226" height="58" rx="3" fill="white"/>
<rect x="195" y="181" width="226" height="58" rx="3" stroke="#0168B7" stroke-width="2"/>
<path d="M222.5 210.833V215.833C222.5 216.275 222.324 216.699 222.012 217.012C221.699 217.324 221.275 217.5 220.833 217.5H211.667C211.225 217.5 210.801 217.324 210.488 217.012C210.176 216.699 210 216.275 210 215.833V206.667C210 206.225 210.176 205.801 210.488 205.488C210.801 205.176 211.225 205 211.667 205H216.667" stroke="#0168B7" stroke-width="2" stroke-linecap="round" stroke-linejoin="round"/>
<path d="M220 202.5H225V207.5" stroke="#0168B7" stroke-width="2" stroke-linecap="round" stroke-linejoin="round"/>
<path d="M215.833 211.667L225 202.5" stroke="#0168B7" stroke-width="2" stroke-linecap="round" stroke-linejoin="round"/>
<rect x="238" y="190.5" width="170" height="39" rx="3.5" fill="white"/>
<rect x="238" y="190.5" width="170" height="39" rx="3.5" stroke="#828282"/>
<path d="M250.79 204.338L251.756 204.604C251.448 205.542 251.07 206.48 250.636 207.376V217.064H249.67V209.182C249.25 209.868 248.816 210.498 248.354 211.044C248.256 210.792 247.976 210.246 247.808 209.994C249.012 208.608 250.118 206.48 250.79 204.338ZM255.34 208.818H253.436C253.282 209.336 253.1 209.84 252.904 210.33C253.52 210.736 254.22 211.268 254.668 211.702C254.962 210.848 255.186 209.882 255.34 208.818ZM251.812 205.934V204.996H256.866V205.934H254.08C253.968 206.578 253.842 207.236 253.688 207.908H255.62L255.802 207.88L256.404 208.062C255.858 212.584 254.318 215.552 252.176 217.106C252.05 216.868 251.714 216.462 251.504 216.308C252.652 215.51 253.604 214.292 254.304 212.668C253.87 212.206 253.156 211.604 252.512 211.156C252.246 211.674 251.924 212.136 251.574 212.556C251.434 212.346 251.14 212.01 250.944 211.842C252.176 210.372 252.778 207.964 253.072 205.934H251.812ZM257.86 205.864V213.886H256.936V205.864H257.86ZM259.484 204.506H260.436V215.762C260.436 216.406 260.296 216.714 259.876 216.882C259.484 217.05 258.798 217.078 257.692 217.078C257.636 216.812 257.51 216.35 257.356 216.07C258.196 216.098 258.938 216.084 259.162 216.084C259.4 216.07 259.484 216 259.484 215.762V204.506ZM262.886 218.758L262.102 218.38C263.306 216.392 263.894 214.026 263.894 211.646C263.894 209.266 263.306 206.914 262.102 204.912L262.886 204.548C264.188 206.634 264.958 208.902 264.958 211.646C264.958 214.404 264.188 216.658 262.886 218.758ZM270.649 216V204.856H271.923V207.908L271.881 209.476C272.581 208.776 273.365 208.202 274.401 208.202C275.997 208.202 276.725 209.238 276.725 211.184V216H275.451V211.352C275.451 209.924 275.017 209.322 274.009 209.322C273.225 209.322 272.693 209.714 271.923 210.484V216H270.649ZM281.547 216.182C279.923 216.182 279.377 215.16 279.377 213.648V209.434H278.243V208.468L279.433 208.398L279.587 206.256H280.651V208.398H282.709V209.434H280.651V213.676C280.651 214.614 280.945 215.146 281.827 215.146C282.093 215.146 282.443 215.048 282.695 214.95L282.947 215.902C282.513 216.042 282.009 216.182 281.547 216.182ZM286.51 216.182C284.886 216.182 284.34 215.16 284.34 213.648V209.434H283.206V208.468L284.396 208.398L284.55 206.256H285.614V208.398H287.672V209.434H285.614V213.676C285.614 214.614 285.908 215.146 286.79 215.146C287.056 215.146 287.406 215.048 287.658 214.95L287.91 215.902C287.476 216.042 286.972 216.182 286.51 216.182ZM289.393 219.206V208.398H290.443L290.555 209.266H290.597C291.283 208.706 292.137 208.202 293.019 208.202C294.979 208.202 296.043 209.742 296.043 212.08C296.043 214.684 294.489 216.182 292.739 216.182C292.053 216.182 291.325 215.86 290.639 215.3L290.667 216.63V219.206H289.393ZM292.529 215.118C293.789 215.118 294.713 213.984 294.713 212.094C294.713 210.414 294.153 209.28 292.711 209.28C292.067 209.28 291.409 209.644 290.667 210.33V214.32C291.353 214.908 292.025 215.118 292.529 215.118ZM300.063 216.182C298.985 216.182 297.949 215.734 297.221 215.132L297.851 214.292C298.509 214.824 299.195 215.188 300.105 215.188C301.113 215.188 301.603 214.656 301.603 213.998C301.603 213.214 300.707 212.878 299.867 212.556C298.803 212.164 297.641 211.646 297.641 210.358C297.641 209.154 298.621 208.202 300.273 208.202C301.211 208.202 302.037 208.594 302.625 209.056L302.009 209.882C301.491 209.49 300.959 209.21 300.287 209.21C299.321 209.21 298.873 209.714 298.873 210.302C298.873 211.03 299.657 211.296 300.511 211.618C301.617 212.038 302.835 212.486 302.835 213.928C302.835 215.16 301.855 216.182 300.063 216.182ZM305.282 210.54C304.778 210.54 304.358 210.134 304.358 209.574C304.358 208.986 304.778 208.58 305.282 208.58C305.786 208.58 306.206 208.986 306.206 209.574C306.206 210.134 305.786 210.54 305.282 210.54ZM305.282 216.182C304.778 216.182 304.358 215.79 304.358 215.216C304.358 214.628 304.778 214.222 305.282 214.222C305.786 214.222 306.206 214.628 306.206 215.216C306.206 215.79 305.786 216.182 305.282 216.182ZM307.386 218.506L311.586 204.884H312.51L308.324 218.506H307.386ZM312.869 218.506L317.069 204.884H317.993L313.807 218.506H312.869ZM320.689 216L318.575 208.398H319.877L321.011 212.794C321.165 213.522 321.319 214.208 321.459 214.922H321.529C321.697 214.208 321.851 213.508 322.047 212.794L323.223 208.398H324.469L325.659 212.794C325.841 213.522 326.009 214.208 326.191 214.922H326.247C326.415 214.208 326.555 213.522 326.723 212.794L327.843 208.398H329.047L327.003 216H325.463L324.357 211.898C324.161 211.184 324.021 210.484 323.839 209.714H323.769C323.601 210.484 323.447 211.198 323.251 211.926L322.187 216H320.689ZM331.914 216L329.8 208.398H331.102L332.236 212.794C332.39 213.522 332.544 214.208 332.684 214.922H332.754C332.922 214.208 333.076 213.508 333.272 212.794L334.448 208.398H335.694L336.884 212.794C337.066 213.522 337.234 214.208 337.416 214.922H337.472C337.64 214.208 337.78 213.522 337.948 212.794L339.068 208.398H340.272L338.228 216H336.688L335.582 211.898C335.386 211.184 335.246 210.484 335.064 209.714H334.994C334.826 210.484 334.672 211.198 334.476 211.926L333.412 216H331.914ZM343.138 216L341.024 208.398H342.326L343.46 212.794C343.614 213.522 343.768 214.208 343.908 214.922H343.978C344.146 214.208 344.3 213.508 344.496 212.794L345.672 208.398H346.918L348.108 212.794C348.29 213.522 348.458 214.208 348.64 214.922H348.696C348.864 214.208 349.004 213.522 349.172 212.794L350.292 208.398H351.496L349.452 216H347.912L346.806 211.898C346.61 211.184 346.47 210.484 346.288 209.714H346.218C346.05 210.484 345.896 211.198 345.7 211.926L344.636 216H343.138ZM353.188 216.182C352.684 216.182 352.264 215.79 352.264 215.216C352.264 214.628 352.684 214.222 353.188 214.222C353.692 214.222 354.112 214.628 354.112 215.216C354.112 215.79 353.692 216.182 353.188 216.182Z" fill="#828282"/>
</svg>
