<svg width="200" height="40" viewBox="0 0 200 40" fill="none" xmlns="http://www.w3.org/2000/svg">
<rect width="6" height="40" rx="3" fill="#0168B7"/>
<rect x="16.5" y="0.5" width="183" height="39" rx="3.5" fill="white"/>
<rect x="16.5" y="0.5" width="183" height="39" rx="3.5" stroke="#828282"/>
<path d="M29.626 20.33V21.786H36.374V20.33H29.626ZM29.626 18.006V19.448H36.374V18.006H29.626ZM29.626 15.71V17.138H36.374V15.71H29.626ZM35.66 25.972H37.732C38.292 25.972 38.404 25.72 38.46 23.998C38.684 24.18 39.132 24.348 39.426 24.418C39.3 26.448 38.992 26.952 37.816 26.952H35.562C34.246 26.952 33.896 26.644 33.896 25.51V22.71H31.6C31.264 24.95 30.368 26.35 27.19 27.078C27.106 26.812 26.812 26.378 26.602 26.168C29.472 25.594 30.214 24.502 30.508 22.71H28.618V14.772H37.424V22.71H34.946V25.496C34.946 25.902 35.058 25.972 35.66 25.972ZM51.396 21.296H52.46V27.036H51.396V26.196H42.66V27.064H41.624V21.296H42.66V25.174H46.398V20.4H42.156V15.612H43.192V19.392H46.398V14.366H47.462V19.392H50.822V15.612H51.9V20.4H47.462V25.174H51.396V21.296ZM58.76 15.094C58.69 15.556 58.648 16.046 58.634 16.508C58.564 18.09 58.466 21.394 58.466 23.48C58.466 25.02 59.432 25.566 60.762 25.566C63.324 25.566 64.766 24.124 65.774 22.668L66.572 23.62C65.606 24.95 63.8 26.714 60.72 26.714C58.704 26.714 57.318 25.874 57.318 23.592C57.318 21.52 57.458 17.978 57.458 16.508C57.458 15.99 57.43 15.486 57.346 15.08L58.76 15.094Z" fill="#828282"/>
</svg>
