<svg width="200" height="40" viewBox="0 0 200 40" fill="none" xmlns="http://www.w3.org/2000/svg">
<rect width="6" height="40" rx="3" fill="#0168B7"/>
<rect x="16.5" y="0.5" width="183" height="39" rx="3.5" fill="white"/>
<rect x="16.5" y="0.5" width="183" height="39" rx="3.5" stroke="#828282"/>
<path d="M36.08 19.574C36.08 23.298 35.282 25.216 32.076 26.644L31.138 25.762C33.686 24.782 34.96 23.578 34.96 19.658V19.07H30.97V21.338C30.97 21.856 31.012 22.472 31.026 22.612H29.794C29.808 22.472 29.85 21.87 29.85 21.338V19.07H28.338C27.736 19.07 27.106 19.112 26.938 19.126V17.908C27.064 17.936 27.75 18.006 28.338 18.006H29.85V16.214C29.85 15.92 29.836 15.514 29.794 15.192H31.04C31.026 15.332 30.97 15.724 30.97 16.214V18.006H34.96V16.256C34.96 15.71 34.918 15.248 34.89 15.108H36.15C36.136 15.248 36.08 15.71 36.08 16.256V18.006H37.62C38.236 18.006 38.712 17.964 38.908 17.936V19.112C38.754 19.098 38.236 19.07 37.62 19.07H36.08V19.574ZM50.584 14.366C50.906 14.842 51.41 15.682 51.69 16.214L51.158 16.452L51.844 16.886C51.746 17.082 51.69 17.306 51.634 17.586C51.326 19.056 50.654 21.31 49.548 22.752C48.26 24.39 46.594 25.692 44.032 26.49L43.08 25.44C45.796 24.768 47.364 23.578 48.54 22.08C49.534 20.806 50.178 18.86 50.374 17.516H43.206C42.66 17.516 42.17 17.544 41.82 17.558V16.312C42.198 16.368 42.758 16.41 43.22 16.41H50.234C50.416 16.41 50.626 16.41 50.836 16.368C50.542 15.822 50.136 15.136 49.814 14.688L50.584 14.366ZM52.376 14.002C52.726 14.478 53.23 15.318 53.524 15.85L52.754 16.186C52.446 15.612 51.984 14.814 51.606 14.324L52.376 14.002ZM61.504 15.01C61.266 15.374 61.014 15.85 60.874 16.102C60.79 16.27 60.692 16.438 60.58 16.606H64.374C64.752 16.606 65.06 16.55 65.298 16.466L66.222 17.026C66.096 17.222 65.97 17.558 65.886 17.782C65.522 19.07 64.766 20.708 63.702 22.136C64.29 22.57 64.85 23.004 65.298 23.368L64.472 24.334C64.052 23.956 63.52 23.522 62.946 23.06C61.7 24.446 59.978 25.734 57.612 26.616L56.604 25.748C58.97 25.02 60.762 23.732 62.022 22.374C61.014 21.646 59.95 20.918 59.054 20.358L59.81 19.588C60.734 20.12 61.784 20.792 62.764 21.478C63.674 20.26 64.388 18.748 64.668 17.6H59.936C59.04 18.86 57.794 20.232 56.226 21.31L55.288 20.582C57.696 19.084 59.124 16.984 59.782 15.71C59.922 15.458 60.146 14.968 60.23 14.604L61.504 15.01ZM69.204 20.946C71.626 20.288 73.768 19.308 75.322 18.328C76.778 17.418 78.178 16.2 79.144 15.038L80.082 15.906C79.018 17.012 77.73 18.076 76.302 19.028V24.936C76.302 25.468 76.33 26.154 76.386 26.434H75.014C75.056 26.168 75.098 25.468 75.098 24.936V19.756C73.628 20.596 71.71 21.436 69.764 22.038L69.204 20.946ZM86.718 24.768V16.62C86.718 16.228 86.69 15.598 86.606 15.164H87.978C87.936 15.598 87.88 16.2 87.88 16.62C87.88 17.208 87.88 18.02 87.88 18.902C89.728 19.462 92.388 20.47 93.858 21.212L93.382 22.402C91.856 21.576 89.434 20.638 87.88 20.148C87.894 22.248 87.894 24.362 87.894 24.768C87.894 25.202 87.922 25.958 87.978 26.42H86.62C86.69 25.972 86.718 25.286 86.718 24.768ZM103.336 25.706C103.392 25.482 103.434 25.202 103.434 24.922V16.536C103.434 16.004 103.364 15.598 103.35 15.5H104.638C104.624 15.598 104.582 16.004 104.582 16.536V24.614C105.87 24.026 107.592 22.752 108.67 21.17L109.328 22.122C108.124 23.76 106.178 25.202 104.554 26C104.33 26.126 104.176 26.238 104.078 26.322L103.336 25.706ZM96.924 25.636C98.1 24.796 98.94 23.55 99.36 22.192C99.766 20.918 99.78 18.118 99.78 16.564C99.78 16.144 99.738 15.836 99.682 15.542H100.97C100.956 15.71 100.9 16.13 100.9 16.55C100.9 18.104 100.844 21.1 100.466 22.5C100.046 23.998 99.15 25.37 97.974 26.35L96.924 25.636Z" fill="#828282"/>
</svg>
