<svg width="318" height="277" viewBox="0 0 318 277" fill="none" xmlns="http://www.w3.org/2000/svg">
<rect x="1" y="1" width="149.805" height="98" rx="5" fill="white"/>
<rect x="1" y="1" width="149.805" height="98" rx="5" stroke="#0168B7" stroke-width="2"/>
<ellipse opacity="0.1" cx="75.903" cy="40" rx="24.5531" ry="24" fill="#0168B7"/>
<path d="M71.8106 44.0926L75.9028 40.0004M75.9028 40.0004L79.995 44.0926M75.9028 40.0004V49.2078M84.0872 44.8525C85.3369 43.8205 86.1333 42.2592 86.1333 40.5119C86.1333 37.4043 83.6141 34.8852 80.5065 34.8852C80.283 34.8852 80.0739 34.7685 79.9604 34.5759C78.6262 32.312 76.1631 30.793 73.3452 30.793C69.1076 30.793 65.6724 34.2282 65.6724 38.4658C65.6724 40.5795 66.5271 42.4936 67.9097 43.8814" stroke="#0168B7" stroke-width="1.6" stroke-linecap="round" stroke-linejoin="round"/>
<path d="M68.0428 71.88L67.3948 72.96C66.8428 72.66 65.7148 72.228 64.8868 71.988L65.5108 71.016C66.3028 71.208 67.4428 71.592 68.0428 71.88ZM67.3588 78.648V79.176H72.5548V78.648H67.3588ZM67.3588 77.328V77.844H72.5548V77.328H67.3588ZM67.3588 76.008V76.524H72.5548V76.008H67.3588ZM69.3028 75.156H73.3348C72.4108 74.82 71.8588 74.376 71.4988 73.86C71.0788 74.424 70.4068 74.844 69.3028 75.156ZM74.0068 80.028H71.9308C73.1548 80.46 74.5348 81.036 75.3508 81.432L73.6948 82.068C73.0108 81.672 71.7868 81.108 70.5748 80.652L71.6548 80.028H68.1508L69.2428 80.508C68.2468 81.156 66.7108 81.744 65.4988 82.08C65.2468 81.804 64.7428 81.288 64.4428 81.036C65.6068 80.82 66.9148 80.436 67.7428 80.028H65.9788V75.156H68.4868C68.3428 74.868 68.1148 74.52 67.9228 74.328L67.9348 74.376C66.9028 74.676 65.7868 75 64.8868 75.252L64.3588 74.004C65.2468 73.836 66.5308 73.536 67.8028 73.236L67.9228 74.316C69.8308 74.004 70.4668 73.488 70.7308 72.636H69.8668C69.5908 72.972 69.2788 73.296 68.9068 73.596C68.6548 73.344 68.1628 73.056 67.8388 72.924C68.7028 72.324 69.2908 71.532 69.6028 70.836L70.8628 71.04C70.7668 71.244 70.6708 71.436 70.5508 71.628H74.0908L74.3068 71.592L75.2548 71.832C74.9428 72.48 74.5108 73.2 74.1148 73.644L73.0108 73.296C73.1548 73.116 73.3228 72.888 73.4788 72.636H72.1468C72.3988 73.404 73.0828 74.064 75.5068 74.352C75.2428 74.616 74.9308 75.168 74.7988 75.516C74.5108 75.468 74.2468 75.42 74.0068 75.36V80.028ZM84.5308 72.936L83.7988 74.004C83.4268 73.536 82.5988 72.888 81.9388 72.444L82.6228 71.484C83.2948 71.88 84.1468 72.492 84.5308 72.936ZM81.3868 75.456L82.0588 74.436C82.7548 74.808 83.6428 75.384 84.0748 75.816L83.3548 76.956C82.9588 76.512 82.0828 75.876 81.3868 75.456ZM80.3068 71.496L81.5068 71.76C81.1948 72.72 80.8468 73.86 80.5468 74.556L79.6468 74.304C79.8868 73.548 80.1748 72.336 80.3068 71.496ZM77.9788 74.304L76.9108 74.592C76.8868 73.848 76.6468 72.684 76.3708 71.82L77.3668 71.556C77.6788 72.42 77.9188 73.56 77.9788 74.304ZM81.2548 78.252L80.3788 79.356C80.1988 78.972 79.8628 78.348 79.5148 77.796V82.008H78.1948V77.772C77.8108 78.888 77.3308 80.004 76.8148 80.724C76.6948 80.292 76.3828 79.644 76.1668 79.248C76.7668 78.516 77.3788 77.232 77.7508 76.14H76.3828V74.808H78.1948V70.884H79.5148V74.808H81.2908V76.14H79.5148V76.224C79.8628 76.572 81.0028 77.916 81.2548 78.252ZM87.6028 78.528L86.1628 78.792V82.032H84.8188V79.032L81.4708 79.632L81.2548 78.3L84.8188 77.664V70.824H86.1628V77.424L87.3868 77.196L87.6028 78.528Z" fill="#0168B7"/>
<path opacity="0.5" d="M75.1184 117.128C74.4792 117.128 73.9252 116.987 73.4565 116.706C72.9877 116.425 72.6241 116.031 72.3656 115.526C72.1099 115.02 71.9821 114.429 71.9821 113.753C71.9821 113.077 72.1099 112.484 72.3656 111.976C72.6241 111.467 72.9877 111.072 73.4565 110.791C73.9252 110.51 74.4792 110.369 75.1184 110.369C75.7576 110.369 76.3116 110.51 76.7804 110.791C77.2491 111.072 77.6113 111.467 77.867 111.976C78.1255 112.484 78.2548 113.077 78.2548 113.753C78.2548 114.429 78.1255 115.02 77.867 115.526C77.6113 116.031 77.2491 116.425 76.7804 116.706C76.3116 116.987 75.7576 117.128 75.1184 117.128ZM75.127 115.892C75.4735 115.892 75.7633 115.797 75.9963 115.607C76.2292 115.413 76.4025 115.155 76.5162 114.831C76.6326 114.507 76.6909 114.146 76.6909 113.749C76.6909 113.348 76.6326 112.986 76.5162 112.662C76.4025 112.335 76.2292 112.075 75.9963 111.882C75.7633 111.689 75.4735 111.592 75.127 111.592C74.7718 111.592 74.4764 111.689 74.2406 111.882C74.0076 112.075 73.8329 112.335 73.7164 112.662C73.6028 112.986 73.546 113.348 73.546 113.749C73.546 114.146 73.6028 114.507 73.7164 114.831C73.8329 115.155 74.0076 115.413 74.2406 115.607C74.4764 115.797 74.7718 115.892 75.127 115.892ZM79.5641 117V110.455H81.0598V111.545H81.128C81.2473 111.168 81.4519 110.876 81.7417 110.672C82.0343 110.464 82.3681 110.361 82.7431 110.361C82.8283 110.361 82.9235 110.365 83.0286 110.374C83.1365 110.379 83.226 110.389 83.2971 110.403V111.822C83.2317 111.8 83.128 111.78 82.986 111.763C82.8468 111.743 82.7118 111.733 82.5811 111.733C82.2999 111.733 82.0471 111.794 81.8226 111.916C81.601 112.036 81.4263 112.202 81.2985 112.415C81.1706 112.628 81.1067 112.874 81.1067 113.152V117H79.5641Z" fill="#0168B7"/>
<path d="M4.128 137.56V138.172C4.812 138.124 5.52 138.064 6.216 138.004C7.152 136.708 7.44 134.992 7.524 132.844H6.432V131.908H4.128V132.376H6.252V136.084H4.128V136.552H6.3V137.56H4.128ZM1.896 135.196H2.832V134.656H1.896V135.196ZM5.064 134.656H4.128V135.196H5.064V134.656ZM4.128 133.804H5.064V133.276H4.128V133.804ZM1.896 133.276V133.804H2.832V133.276H1.896ZM8.916 131.536H11.352C11.352 131.536 11.34 132.004 11.34 132.172C11.232 137.08 11.136 138.82 10.752 139.372C10.476 139.768 10.2 139.888 9.804 139.972C9.444 140.044 8.892 140.032 8.316 140.02C8.292 139.624 8.136 139.048 7.896 138.652C8.424 138.7 8.88 138.712 9.108 138.712C9.288 138.712 9.408 138.664 9.516 138.508C9.768 138.184 9.888 136.72 9.96 132.844H8.88C8.724 136.06 8.172 138.532 6.156 140.128C5.976 139.84 5.628 139.444 5.316 139.18C3.588 139.36 1.86 139.54 0.564 139.648L0.396 138.448C1.068 138.4 1.908 138.34 2.832 138.28V137.56H0.72V136.552H2.832V136.084H0.768V132.376H2.832V131.908H0.468V130.876H2.832V130.396C2.136 130.444 1.452 130.48 0.804 130.492C0.756 130.204 0.624 129.76 0.492 129.484C2.268 129.388 4.344 129.184 5.664 128.896L6.288 129.964C5.652 130.096 4.908 130.204 4.128 130.288V130.876H6.432V131.536H7.56C7.572 130.744 7.572 129.916 7.572 129.028H8.94C8.94 129.904 8.94 130.744 8.916 131.536ZM21.636 137.992V131.68H23.016V140.032H21.636V139.336H14.388V140.044H12.996V131.68H14.388V137.992H21.636ZM19.62 134.02V133.012H18.576V134.02H19.62ZM19.62 136.12V135.1H18.576V136.12H19.62ZM16.308 135.1V136.12H17.352V135.1H16.308ZM16.308 133.012V134.02H17.352V133.012H16.308ZM12.636 129.556H23.376V130.888H18.672V131.848H20.856V137.284H15.144V131.848H17.244V130.888H12.636V129.556ZM30 132.904C30.84 132.904 31.536 133.6 31.536 134.44C31.536 135.28 30.84 135.976 30 135.976C29.16 135.976 28.464 135.28 28.464 134.44C28.464 133.6 29.16 132.904 30 132.904ZM37.932 139L36.228 130.108H38.028L38.736 134.452C38.868 135.388 39.012 136.324 39.144 137.284H39.192C39.372 136.324 39.564 135.376 39.756 134.452L40.788 130.108H42.312L43.332 134.452C43.524 135.364 43.704 136.324 43.896 137.284H43.956C44.088 136.324 44.22 135.376 44.352 134.452L45.06 130.108H46.74L45.096 139H42.888L41.892 134.608C41.748 133.912 41.616 133.228 41.508 132.544H41.46C41.34 133.228 41.22 133.912 41.076 134.608L40.104 139H37.932ZM50.8565 139.168C48.9725 139.168 47.5085 137.86 47.5085 135.64C47.5085 133.468 49.0445 132.112 50.6405 132.112C52.4885 132.112 53.4485 133.468 53.4485 135.316C53.4485 135.652 53.4125 135.976 53.3645 136.132H49.2245C49.3685 137.236 50.0885 137.812 51.0845 137.812C51.6365 137.812 52.1165 137.644 52.5965 137.344L53.1965 138.424C52.5365 138.88 51.6845 139.168 50.8565 139.168ZM49.2005 134.956H51.9365C51.9365 134.056 51.5285 133.48 50.6645 133.48C49.9565 133.48 49.3325 133.984 49.2005 134.956ZM58.2731 139.168C57.6731 139.168 57.0251 138.856 56.4851 138.292H56.4371L56.2811 139H54.9011V129.424H56.6651V131.836L56.6171 132.916C57.1451 132.436 57.8171 132.112 58.4771 132.112C60.1331 132.112 61.1291 133.468 61.1291 135.52C61.1291 137.836 59.7491 139.168 58.2731 139.168ZM57.8771 137.716C58.6931 137.716 59.3171 137.02 59.3171 135.556C59.3171 134.272 58.9091 133.564 57.9851 133.564C57.5291 133.564 57.1211 133.792 56.6651 134.26V137.212C57.0851 137.584 57.5171 137.716 57.8771 137.716ZM72.7998 134.776C72.7998 137.308 71.2518 139.096 68.2278 139.564L67.3278 138.136C67.7838 138.088 68.1198 138.016 68.4438 137.944C69.9798 137.584 71.1798 136.48 71.1798 134.728C71.1798 133.072 70.2798 131.836 68.6598 131.56C68.4918 132.58 68.2878 133.684 67.9398 134.812C67.2198 137.236 66.1878 138.724 64.8798 138.724C63.5478 138.724 62.4438 137.26 62.4438 135.232C62.4438 132.46 64.8438 130.096 67.9518 130.096C70.9278 130.096 72.7998 132.16 72.7998 134.776ZM63.9798 135.076C63.9798 136.288 64.4598 136.876 64.9278 136.876C65.4318 136.876 65.8998 136.12 66.3918 134.5C66.6678 133.612 66.8958 132.592 67.0278 131.596C65.0478 132.004 63.9798 133.756 63.9798 135.076ZM78.1758 139.168C76.0158 139.168 74.7198 137.956 74.7198 135.004V130.108H76.4958V135.16C76.4958 137.008 77.1438 137.632 78.1758 137.632C79.2318 137.632 79.9038 137.008 79.9038 135.16V130.108H81.6078V135.004C81.6078 137.956 80.3478 139.168 78.1758 139.168ZM83.7443 139V130.108H86.8403C88.7003 130.108 90.1763 130.768 90.1763 132.808C90.1763 134.14 89.5043 134.968 88.4843 135.364L90.5603 139H88.5803L86.7563 135.64H85.5203V139H83.7443ZM85.5203 134.236H86.6723C87.8123 134.236 88.4483 133.756 88.4483 132.808C88.4483 131.848 87.8123 131.524 86.6723 131.524H85.5203V134.236ZM91.924 139V130.108H93.7V137.512H97.312V139H91.924Z" fill="#0168B7"/>
<rect x="1" y="148" width="149.805" height="38" rx="3" fill="white"/>
<rect x="1" y="148" width="149.805" height="38" rx="3" stroke="#0168B7" stroke-width="2"/>
<path d="M13.29 161.338L14.256 161.604C13.948 162.542 13.57 163.48 13.136 164.376V174.064H12.17V166.182C11.75 166.868 11.316 167.498 10.854 168.044C10.756 167.792 10.476 167.246 10.308 166.994C11.512 165.608 12.618 163.48 13.29 161.338ZM17.84 165.818H15.936C15.782 166.336 15.6 166.84 15.404 167.33C16.02 167.736 16.72 168.268 17.168 168.702C17.462 167.848 17.686 166.882 17.84 165.818ZM14.312 162.934V161.996H19.366V162.934H16.58C16.468 163.578 16.342 164.236 16.188 164.908H18.12L18.302 164.88L18.904 165.062C18.358 169.584 16.818 172.552 14.676 174.106C14.55 173.868 14.214 173.462 14.004 173.308C15.152 172.51 16.104 171.292 16.804 169.668C16.37 169.206 15.656 168.604 15.012 168.156C14.746 168.674 14.424 169.136 14.074 169.556C13.934 169.346 13.64 169.01 13.444 168.842C14.676 167.372 15.278 164.964 15.572 162.934H14.312ZM20.36 162.864V170.886H19.436V162.864H20.36ZM21.984 161.506H22.936V172.762C22.936 173.406 22.796 173.714 22.376 173.882C21.984 174.05 21.298 174.078 20.192 174.078C20.136 173.812 20.01 173.35 19.856 173.07C20.696 173.098 21.438 173.084 21.662 173.084C21.9 173.07 21.984 173 21.984 172.762V161.506ZM25.386 175.758L24.602 175.38C25.806 173.392 26.394 171.026 26.394 168.646C26.394 166.266 25.806 163.914 24.602 161.912L25.386 161.548C26.688 163.634 27.458 165.902 27.458 168.646C27.458 171.404 26.688 173.658 25.386 175.758ZM33.1493 173V161.856H34.4233V164.908L34.3813 166.476C35.0813 165.776 35.8653 165.202 36.9013 165.202C38.4973 165.202 39.2253 166.238 39.2253 168.184V173H37.9513V168.352C37.9513 166.924 37.5173 166.322 36.5093 166.322C35.7253 166.322 35.1933 166.714 34.4233 167.484V173H33.1493ZM44.0472 173.182C42.4232 173.182 41.8772 172.16 41.8772 170.648V166.434H40.7432V165.468L41.9332 165.398L42.0872 163.256H43.1512V165.398H45.2092V166.434H43.1512V170.676C43.1512 171.614 43.4452 172.146 44.3272 172.146C44.5932 172.146 44.9432 172.048 45.1952 171.95L45.4472 172.902C45.0132 173.042 44.5092 173.182 44.0472 173.182ZM49.0101 173.182C47.3861 173.182 46.8401 172.16 46.8401 170.648V166.434H45.7061V165.468L46.8961 165.398L47.0501 163.256H48.1141V165.398H50.1721V166.434H48.1141V170.676C48.1141 171.614 48.4081 172.146 49.2901 172.146C49.5561 172.146 49.9061 172.048 50.1581 171.95L50.4101 172.902C49.9761 173.042 49.4721 173.182 49.0101 173.182ZM51.8935 176.206V165.398H52.9435L53.0555 166.266H53.0975C53.7835 165.706 54.6375 165.202 55.5195 165.202C57.4795 165.202 58.5435 166.742 58.5435 169.08C58.5435 171.684 56.9895 173.182 55.2395 173.182C54.5535 173.182 53.8255 172.86 53.1395 172.3L53.1675 173.63V176.206H51.8935ZM55.0295 172.118C56.2895 172.118 57.2135 170.984 57.2135 169.094C57.2135 167.414 56.6535 166.28 55.2115 166.28C54.5675 166.28 53.9095 166.644 53.1675 167.33V171.32C53.8535 171.908 54.5255 172.118 55.0295 172.118ZM62.5631 173.182C61.4851 173.182 60.4491 172.734 59.7211 172.132L60.3511 171.292C61.0091 171.824 61.6951 172.188 62.6051 172.188C63.6131 172.188 64.1031 171.656 64.1031 170.998C64.1031 170.214 63.2071 169.878 62.3671 169.556C61.3031 169.164 60.1411 168.646 60.1411 167.358C60.1411 166.154 61.1211 165.202 62.7731 165.202C63.7111 165.202 64.5371 165.594 65.1251 166.056L64.5091 166.882C63.9911 166.49 63.4591 166.21 62.7871 166.21C61.8211 166.21 61.3731 166.714 61.3731 167.302C61.3731 168.03 62.1571 168.296 63.0111 168.618C64.1171 169.038 65.3351 169.486 65.3351 170.928C65.3351 172.16 64.3551 173.182 62.5631 173.182ZM67.7819 167.54C67.2779 167.54 66.8579 167.134 66.8579 166.574C66.8579 165.986 67.2779 165.58 67.7819 165.58C68.2859 165.58 68.7059 165.986 68.7059 166.574C68.7059 167.134 68.2859 167.54 67.7819 167.54ZM67.7819 173.182C67.2779 173.182 66.8579 172.79 66.8579 172.216C66.8579 171.628 67.2779 171.222 67.7819 171.222C68.2859 171.222 68.7059 171.628 68.7059 172.216C68.7059 172.79 68.2859 173.182 67.7819 173.182ZM69.8864 175.506L74.0864 161.884H75.0104L70.8244 175.506H69.8864ZM75.3688 175.506L79.5688 161.884H80.4928L76.3068 175.506H75.3688ZM83.1893 173L81.0753 165.398H82.3773L83.5113 169.794C83.6653 170.522 83.8193 171.208 83.9593 171.922H84.0293C84.1973 171.208 84.3513 170.508 84.5473 169.794L85.7233 165.398H86.9693L88.1593 169.794C88.3413 170.522 88.5093 171.208 88.6913 171.922H88.7473C88.9153 171.208 89.0553 170.522 89.2233 169.794L90.3433 165.398H91.5473L89.5033 173H87.9633L86.8573 168.898C86.6613 168.184 86.5213 167.484 86.3393 166.714H86.2693C86.1013 167.484 85.9473 168.198 85.7513 168.926L84.6873 173H83.1893ZM94.4139 173L92.2999 165.398H93.6019L94.7359 169.794C94.8899 170.522 95.0439 171.208 95.1839 171.922H95.2539C95.4219 171.208 95.5759 170.508 95.7719 169.794L96.9479 165.398H98.1939L99.3839 169.794C99.5659 170.522 99.7339 171.208 99.9159 171.922H99.9719C100.14 171.208 100.28 170.522 100.448 169.794L101.568 165.398H102.772L100.728 173H99.1879L98.0819 168.898C97.8859 168.184 97.7459 167.484 97.5639 166.714H97.4939C97.3259 167.484 97.1719 168.198 96.9759 168.926L95.9119 173H94.4139ZM105.638 173L103.524 165.398H104.826L105.96 169.794C106.114 170.522 106.268 171.208 106.408 171.922H106.478C106.646 171.208 106.8 170.508 106.996 169.794L108.172 165.398H109.418L110.608 169.794C110.79 170.522 110.958 171.208 111.14 171.922H111.196C111.364 171.208 111.504 170.522 111.672 169.794L112.792 165.398H113.996L111.952 173H110.412L109.306 168.898C109.11 168.184 108.97 167.484 108.788 166.714H108.718C108.55 167.484 108.396 168.198 108.2 168.926L107.136 173H105.638ZM115.688 173.182C115.184 173.182 114.764 172.79 114.764 172.216C114.764 171.628 115.184 171.222 115.688 171.222C116.192 171.222 116.612 171.628 116.612 172.216C116.612 172.79 116.192 173.182 115.688 173.182Z" fill="#828282"/>
<rect x="0.5" y="197.5" width="150.805" height="79" rx="3.5" fill="white"/>
<rect x="0.5" y="197.5" width="150.805" height="79" rx="3.5" stroke="#828282"/>
<path d="M11.904 218.786H13.668V217.764H11.904V218.786ZM11.904 216.07V217.078H13.668V216.07H11.904ZM16.44 216.07H14.606V217.078H16.44V216.07ZM16.44 218.786V217.764H14.606V218.786H16.44ZM20.122 214.53H23.09C23.09 214.53 23.076 214.922 23.076 215.062C22.922 220.928 22.796 222.874 22.32 223.462C22.082 223.826 21.802 223.938 21.382 223.98C20.99 224.036 20.332 224.022 19.688 223.98C19.66 223.7 19.548 223.266 19.394 223C20.066 223.056 20.682 223.07 20.948 223.07C21.186 223.07 21.312 223.028 21.452 222.846C21.774 222.44 21.942 220.592 22.082 215.51H20.08C19.912 219.234 19.268 222.286 16.804 224.134C16.65 223.91 16.286 223.56 16.034 223.392C16.258 223.238 16.454 223.07 16.636 222.902C14.522 223.154 12.352 223.392 10.784 223.56L10.63 222.65C11.47 222.58 12.52 222.482 13.668 222.37V221.166H11.022V220.368H13.668V219.514H11.05V215.356H13.668V214.474H10.644V213.662H13.668V212.738C12.772 212.808 11.862 212.864 11.036 212.892C10.994 212.668 10.896 212.332 10.784 212.122C12.856 212.01 15.376 211.758 16.818 211.436L17.336 212.234C16.58 212.402 15.628 212.528 14.606 212.64V213.662H17.574V214.474H14.606V215.356H17.322V219.514H14.606V220.368H17.35V221.166H14.606V222.272C15.516 222.188 16.468 222.09 17.406 221.978V222.034C18.61 220.382 18.988 218.128 19.114 215.51H17.476V214.53H19.142C19.17 213.55 19.17 212.528 19.17 211.464H20.15C20.15 212.514 20.15 213.55 20.122 214.53ZM35.746 222.202V214.572H36.754V224.022H35.746V223.196H26.296V224.064H25.288V214.572H26.296V222.202H35.746ZM33.408 217.428V215.608H31.406V217.428H33.408ZM33.408 220.102V218.268H31.406V220.102H33.408ZM28.508 218.268V220.102H30.496V218.268H28.508ZM28.508 215.608V217.428H30.496V215.608H28.508ZM24.854 212.206H37.146V213.172H31.462V214.726H34.318V220.984H27.626V214.726H30.426V213.172H24.854V212.206ZM45 216.196C45.826 216.196 46.484 216.854 46.484 217.68C46.484 218.506 45.826 219.164 45 219.164C44.174 219.164 43.516 218.506 43.516 217.68C43.516 216.854 44.174 216.196 45 216.196ZM60.288 213.088H58.804C58.454 213.522 58.048 213.928 57.558 214.306C57.362 214.11 57.026 213.886 56.774 213.788C57.824 213.06 58.524 212.122 58.888 211.282L59.826 211.436C59.686 211.73 59.532 212.01 59.35 212.304H64.138L64.306 212.262L65.006 212.472C64.614 213.186 64.096 213.97 63.592 214.46L62.766 214.166C63.06 213.886 63.368 213.494 63.62 213.088H61.38C61.688 214.166 62.472 215.188 65.342 215.608C65.146 215.804 64.908 216.196 64.81 216.448C62.43 216.028 61.408 215.132 60.89 214.124C60.344 215.16 59.308 215.818 57.32 216.21C57.236 215.986 56.998 215.65 56.83 215.468C59.112 215.062 59.952 214.362 60.288 213.088ZM55.57 220.172V221.152H62.584V220.172H55.57ZM55.57 218.534V219.5H62.584V218.534H55.57ZM55.57 216.924V217.862H62.584V216.924H55.57ZM54.562 221.838V216.224H63.62V221.838H54.562ZM56.774 212.668L56.312 213.48C55.668 213.102 54.38 212.612 53.386 212.304L53.848 211.59C54.814 211.856 56.102 212.318 56.774 212.668ZM56.606 214.194L56.732 215.006C55.472 215.412 54.156 215.818 53.106 216.154L52.7 215.244C53.708 215.006 55.178 214.586 56.606 214.194ZM56.9 221.978L57.838 222.426C56.704 223.084 54.954 223.728 53.568 224.106C53.386 223.91 53.036 223.504 52.798 223.322C54.226 223.028 55.906 222.538 56.9 221.978ZM60.162 222.552L61.016 222.02C62.528 222.51 64.194 223.112 65.216 223.574L64.068 224.092C63.2 223.644 61.688 223.056 60.162 222.552ZM75.954 213.984L75.422 214.782C74.974 214.25 74.022 213.494 73.224 212.976L73.756 212.276C74.54 212.752 75.506 213.466 75.954 213.984ZM75.352 217.33L74.834 218.17C74.344 217.652 73.35 216.938 72.51 216.49L73 215.762C73.826 216.196 74.862 216.826 75.352 217.33ZM71.306 212.122L72.202 212.346C71.866 213.396 71.432 214.712 71.054 215.496L70.382 215.272C70.704 214.446 71.096 213.06 71.306 212.122ZM68.394 215.244L67.568 215.468C67.498 214.628 67.176 213.34 66.812 212.36L67.568 212.178C67.974 213.144 68.296 214.404 68.394 215.244ZM69.92 216.938V217.134C70.312 217.568 71.712 219.416 72.02 219.892L71.334 220.704C71.082 220.186 70.424 219.108 69.92 218.324V224.064H68.954V218.31C68.436 219.808 67.722 221.362 67.022 222.3C66.91 222.006 66.658 221.544 66.49 221.292C67.302 220.312 68.184 218.506 68.674 216.938H66.714V215.958H68.954V211.338H69.92V215.958H72.202V216.938H69.92ZM79.468 219.808L77.662 220.13V224.064H76.682V220.312L72.342 221.096L72.174 220.13L76.682 219.332V211.296H77.662V219.15L79.314 218.856L79.468 219.808ZM92.712 218.1C92.712 221.04 90.78 223 87.462 223.434L86.804 222.398C87.252 222.356 87.686 222.286 88.008 222.216C89.8 221.81 91.564 220.48 91.564 218.058C91.564 215.944 90.206 214.194 87.826 213.998C87.644 215.3 87.378 216.728 86.986 218.03C86.132 220.914 85.026 222.384 83.724 222.384C82.478 222.384 81.232 220.956 81.232 218.646C81.232 215.608 83.934 212.948 87.35 212.948C90.626 212.948 92.712 215.258 92.712 218.1ZM82.324 218.548C82.324 220.312 83.136 221.096 83.766 221.096C84.424 221.096 85.166 220.158 85.88 217.792C86.23 216.63 86.51 215.3 86.664 214.012C83.976 214.348 82.324 216.644 82.324 218.548ZM99.152 211.772V212.612H95.33V211.772H99.152ZM99.642 213.634V214.488H94.588V213.634H99.642ZM99.166 215.566V216.392H95.246V215.566H99.166ZM95.246 218.296V217.47H99.166V218.296H95.246ZM101.266 214.782V217.582H105.858V214.782H101.266ZM98.326 222.566V220.228H96.128V222.566H98.326ZM105.354 223.042H106.25C106.572 223.042 106.642 222.762 106.67 220.872C106.88 221.054 107.286 221.208 107.566 221.278C107.482 223.434 107.23 223.952 106.362 223.952H105.2C104.248 223.952 104.038 223.658 104.038 222.622V218.492H102.778C102.582 220.956 102.05 222.972 99.908 224.148C99.768 223.91 99.488 223.546 99.25 223.364V223.42H96.128V224.05H95.218V219.374H99.25V223.322C101.168 222.342 101.574 220.606 101.742 218.492H100.258V213.858H101.574C101.392 213.228 100.972 212.332 100.566 211.646L101.462 211.352C101.938 212.038 102.372 212.948 102.554 213.592L101.826 213.858H105.354L104.57 213.606C104.906 212.962 105.34 211.968 105.536 211.268L106.6 211.576C106.222 212.374 105.802 213.27 105.452 213.858H106.894V218.492H105.004V222.608C105.004 222.986 105.046 223.042 105.354 223.042ZM112.76 213.088H110.142V215.734H112.76V213.088ZM110.142 219.472H112.76V216.686H110.142V219.472ZM113.726 220.438H110.142V221.726H109.162V212.15H113.726V220.438ZM115.938 218.66H119.928V216.21H116.022V216.84C116.022 217.414 116.008 218.03 115.938 218.66ZM119.928 212.864H116.022V215.258H119.928V212.864ZM120.936 211.884V222.692C120.936 223.35 120.796 223.672 120.348 223.854C119.9 224.008 119.13 224.036 117.94 224.036C117.884 223.756 117.716 223.294 117.548 223.028C118.458 223.056 119.34 223.042 119.564 223.042C119.83 223.028 119.928 222.944 119.928 222.692V219.612H115.798C115.49 221.278 114.776 222.944 113.194 224.162C113.026 223.938 112.634 223.588 112.424 223.448C114.776 221.642 115.014 219.01 115.014 216.84V211.884H120.936Z" fill="#828282"/>
<rect x="160" y="1" width="157" height="98" rx="5" fill="white"/>
<rect x="160" y="1" width="157" height="98" rx="5" stroke="#0168B7" stroke-width="2"/>
<ellipse opacity="0.1" cx="238.5" cy="40" rx="24.5531" ry="24" fill="#0168B7"/>
<path d="M234.408 44.0926L238.5 40.0004M238.5 40.0004L242.592 44.0926M238.5 40.0004V49.2078M246.684 44.8525C247.934 43.8205 248.73 42.2592 248.73 40.5119C248.73 37.4043 246.211 34.8852 243.104 34.8852C242.88 34.8852 242.671 34.7685 242.558 34.5759C241.223 32.312 238.76 30.793 235.942 30.793C231.705 30.793 228.27 34.2282 228.27 38.4658C228.27 40.5795 229.124 42.4936 230.507 43.8814" stroke="#0168B7" stroke-width="1.6" stroke-linecap="round" stroke-linejoin="round"/>
<path d="M230.64 71.88L229.992 72.96C229.44 72.66 228.312 72.228 227.484 71.988L228.108 71.016C228.9 71.208 230.04 71.592 230.64 71.88ZM229.956 78.648V79.176H235.152V78.648H229.956ZM229.956 77.328V77.844H235.152V77.328H229.956ZM229.956 76.008V76.524H235.152V76.008H229.956ZM231.9 75.156H235.932C235.008 74.82 234.456 74.376 234.096 73.86C233.676 74.424 233.004 74.844 231.9 75.156ZM236.604 80.028H234.528C235.752 80.46 237.132 81.036 237.948 81.432L236.292 82.068C235.608 81.672 234.384 81.108 233.172 80.652L234.252 80.028H230.748L231.84 80.508C230.844 81.156 229.308 81.744 228.096 82.08C227.844 81.804 227.34 81.288 227.04 81.036C228.204 80.82 229.512 80.436 230.34 80.028H228.576V75.156H231.084C230.94 74.868 230.712 74.52 230.52 74.328L230.532 74.376C229.5 74.676 228.384 75 227.484 75.252L226.956 74.004C227.844 73.836 229.128 73.536 230.4 73.236L230.52 74.316C232.428 74.004 233.064 73.488 233.328 72.636H232.464C232.188 72.972 231.876 73.296 231.504 73.596C231.252 73.344 230.76 73.056 230.436 72.924C231.3 72.324 231.888 71.532 232.2 70.836L233.46 71.04C233.364 71.244 233.268 71.436 233.148 71.628H236.688L236.904 71.592L237.852 71.832C237.54 72.48 237.108 73.2 236.712 73.644L235.608 73.296C235.752 73.116 235.92 72.888 236.076 72.636H234.744C234.996 73.404 235.68 74.064 238.104 74.352C237.84 74.616 237.528 75.168 237.396 75.516C237.108 75.468 236.844 75.42 236.604 75.36V80.028ZM247.128 72.936L246.396 74.004C246.024 73.536 245.196 72.888 244.536 72.444L245.22 71.484C245.892 71.88 246.744 72.492 247.128 72.936ZM243.984 75.456L244.656 74.436C245.352 74.808 246.24 75.384 246.672 75.816L245.952 76.956C245.556 76.512 244.68 75.876 243.984 75.456ZM242.904 71.496L244.104 71.76C243.792 72.72 243.444 73.86 243.144 74.556L242.244 74.304C242.484 73.548 242.772 72.336 242.904 71.496ZM240.576 74.304L239.508 74.592C239.484 73.848 239.244 72.684 238.968 71.82L239.964 71.556C240.276 72.42 240.516 73.56 240.576 74.304ZM243.852 78.252L242.976 79.356C242.796 78.972 242.46 78.348 242.112 77.796V82.008H240.792V77.772C240.408 78.888 239.928 80.004 239.412 80.724C239.292 80.292 238.98 79.644 238.764 79.248C239.364 78.516 239.976 77.232 240.348 76.14H238.98V74.808H240.792V70.884H242.112V74.808H243.888V76.14H242.112V76.224C242.46 76.572 243.6 77.916 243.852 78.252ZM250.2 78.528L248.76 78.792V82.032H247.416V79.032L244.068 79.632L243.852 78.3L247.416 77.664V70.824H248.76V77.424L249.984 77.196L250.2 78.528Z" fill="#0168B7"/>
<path opacity="0.5" d="M237.118 117.128C236.479 117.128 235.925 116.987 235.456 116.706C234.988 116.425 234.624 116.031 234.366 115.526C234.11 115.02 233.982 114.429 233.982 113.753C233.982 113.077 234.11 112.484 234.366 111.976C234.624 111.467 234.988 111.072 235.456 110.791C235.925 110.51 236.479 110.369 237.118 110.369C237.758 110.369 238.312 110.51 238.78 110.791C239.249 111.072 239.611 111.467 239.867 111.976C240.126 112.484 240.255 113.077 240.255 113.753C240.255 114.429 240.126 115.02 239.867 115.526C239.611 116.031 239.249 116.425 238.78 116.706C238.312 116.987 237.758 117.128 237.118 117.128ZM237.127 115.892C237.474 115.892 237.763 115.797 237.996 115.607C238.229 115.413 238.403 115.155 238.516 114.831C238.633 114.507 238.691 114.146 238.691 113.749C238.691 113.348 238.633 112.986 238.516 112.662C238.403 112.335 238.229 112.075 237.996 111.882C237.763 111.689 237.474 111.592 237.127 111.592C236.772 111.592 236.476 111.689 236.241 111.882C236.008 112.075 235.833 112.335 235.716 112.662C235.603 112.986 235.546 113.348 235.546 113.749C235.546 114.146 235.603 114.507 235.716 114.831C235.833 115.155 236.008 115.413 236.241 115.607C236.476 115.797 236.772 115.892 237.127 115.892ZM241.564 117V110.455H243.06V111.545H243.128C243.247 111.168 243.452 110.876 243.742 110.672C244.034 110.464 244.368 110.361 244.743 110.361C244.828 110.361 244.923 110.365 245.029 110.374C245.137 110.379 245.226 110.389 245.297 110.403V111.822C245.232 111.8 245.128 111.78 244.986 111.763C244.847 111.743 244.712 111.733 244.581 111.733C244.3 111.733 244.047 111.794 243.823 111.916C243.601 112.036 243.426 112.202 243.298 112.415C243.171 112.628 243.107 112.874 243.107 113.152V117H241.564Z" fill="#0168B7"/>
<path d="M163.128 137.56V138.172C163.812 138.124 164.52 138.064 165.216 138.004C166.152 136.708 166.44 134.992 166.524 132.844H165.432V131.908H163.128V132.376H165.252V136.084H163.128V136.552H165.3V137.56H163.128ZM160.896 135.196H161.832V134.656H160.896V135.196ZM164.064 134.656H163.128V135.196H164.064V134.656ZM163.128 133.804H164.064V133.276H163.128V133.804ZM160.896 133.276V133.804H161.832V133.276H160.896ZM167.916 131.536H170.352C170.352 131.536 170.34 132.004 170.34 132.172C170.232 137.08 170.136 138.82 169.752 139.372C169.476 139.768 169.2 139.888 168.804 139.972C168.444 140.044 167.892 140.032 167.316 140.02C167.292 139.624 167.136 139.048 166.896 138.652C167.424 138.7 167.88 138.712 168.108 138.712C168.288 138.712 168.408 138.664 168.516 138.508C168.768 138.184 168.888 136.72 168.96 132.844H167.88C167.724 136.06 167.172 138.532 165.156 140.128C164.976 139.84 164.628 139.444 164.316 139.18C162.588 139.36 160.86 139.54 159.564 139.648L159.396 138.448C160.068 138.4 160.908 138.34 161.832 138.28V137.56H159.72V136.552H161.832V136.084H159.768V132.376H161.832V131.908H159.468V130.876H161.832V130.396C161.136 130.444 160.452 130.48 159.804 130.492C159.756 130.204 159.624 129.76 159.492 129.484C161.268 129.388 163.344 129.184 164.664 128.896L165.288 129.964C164.652 130.096 163.908 130.204 163.128 130.288V130.876H165.432V131.536H166.56C166.572 130.744 166.572 129.916 166.572 129.028H167.94C167.94 129.904 167.94 130.744 167.916 131.536ZM180.636 137.992V131.68H182.016V140.032H180.636V139.336H173.388V140.044H171.996V131.68H173.388V137.992H180.636ZM178.62 134.02V133.012H177.576V134.02H178.62ZM178.62 136.12V135.1H177.576V136.12H178.62ZM175.308 135.1V136.12H176.352V135.1H175.308ZM175.308 133.012V134.02H176.352V133.012H175.308ZM171.636 129.556H182.376V130.888H177.672V131.848H179.856V137.284H174.144V131.848H176.244V130.888H171.636V129.556ZM189 132.904C189.84 132.904 190.536 133.6 190.536 134.44C190.536 135.28 189.84 135.976 189 135.976C188.16 135.976 187.464 135.28 187.464 134.44C187.464 133.6 188.16 132.904 189 132.904ZM196.932 139L195.228 130.108H197.028L197.736 134.452C197.868 135.388 198.012 136.324 198.144 137.284H198.192C198.372 136.324 198.564 135.376 198.756 134.452L199.788 130.108H201.312L202.332 134.452C202.524 135.364 202.704 136.324 202.896 137.284H202.956C203.088 136.324 203.22 135.376 203.352 134.452L204.06 130.108H205.74L204.096 139H201.888L200.892 134.608C200.748 133.912 200.616 133.228 200.508 132.544H200.46C200.34 133.228 200.22 133.912 200.076 134.608L199.104 139H196.932ZM209.856 139.168C207.972 139.168 206.508 137.86 206.508 135.64C206.508 133.468 208.044 132.112 209.64 132.112C211.488 132.112 212.448 133.468 212.448 135.316C212.448 135.652 212.412 135.976 212.364 136.132H208.224C208.368 137.236 209.088 137.812 210.084 137.812C210.636 137.812 211.116 137.644 211.596 137.344L212.196 138.424C211.536 138.88 210.684 139.168 209.856 139.168ZM208.2 134.956H210.936C210.936 134.056 210.528 133.48 209.664 133.48C208.956 133.48 208.332 133.984 208.2 134.956ZM217.273 139.168C216.673 139.168 216.025 138.856 215.485 138.292H215.437L215.281 139H213.901V129.424H215.665V131.836L215.617 132.916C216.145 132.436 216.817 132.112 217.477 132.112C219.133 132.112 220.129 133.468 220.129 135.52C220.129 137.836 218.749 139.168 217.273 139.168ZM216.877 137.716C217.693 137.716 218.317 137.02 218.317 135.556C218.317 134.272 217.909 133.564 216.985 133.564C216.529 133.564 216.121 133.792 215.665 134.26V137.212C216.085 137.584 216.517 137.716 216.877 137.716ZM231.8 134.776C231.8 137.308 230.252 139.096 227.228 139.564L226.328 138.136C226.784 138.088 227.12 138.016 227.444 137.944C228.98 137.584 230.18 136.48 230.18 134.728C230.18 133.072 229.28 131.836 227.66 131.56C227.492 132.58 227.288 133.684 226.94 134.812C226.22 137.236 225.188 138.724 223.88 138.724C222.548 138.724 221.444 137.26 221.444 135.232C221.444 132.46 223.844 130.096 226.952 130.096C229.928 130.096 231.8 132.16 231.8 134.776ZM222.98 135.076C222.98 136.288 223.46 136.876 223.928 136.876C224.432 136.876 224.9 136.12 225.392 134.5C225.668 133.612 225.896 132.592 226.028 131.596C224.048 132.004 222.98 133.756 222.98 135.076ZM237.176 139.168C235.016 139.168 233.72 137.956 233.72 135.004V130.108H235.496V135.16C235.496 137.008 236.144 137.632 237.176 137.632C238.232 137.632 238.904 137.008 238.904 135.16V130.108H240.608V135.004C240.608 137.956 239.348 139.168 237.176 139.168ZM242.744 139V130.108H245.84C247.7 130.108 249.176 130.768 249.176 132.808C249.176 134.14 248.504 134.968 247.484 135.364L249.56 139H247.58L245.756 135.64H244.52V139H242.744ZM244.52 134.236H245.672C246.812 134.236 247.448 133.756 247.448 132.808C247.448 131.848 246.812 131.524 245.672 131.524H244.52V134.236ZM250.924 139V130.108H252.7V137.512H256.312V139H250.924Z" fill="#0168B7"/>
<rect x="160" y="148" width="157" height="38" rx="3" fill="white"/>
<rect x="160" y="148" width="157" height="38" rx="3" stroke="#0168B7" stroke-width="2"/>
<path d="M172.29 161.338L173.256 161.604C172.948 162.542 172.57 163.48 172.136 164.376V174.064H171.17V166.182C170.75 166.868 170.316 167.498 169.854 168.044C169.756 167.792 169.476 167.246 169.308 166.994C170.512 165.608 171.618 163.48 172.29 161.338ZM176.84 165.818H174.936C174.782 166.336 174.6 166.84 174.404 167.33C175.02 167.736 175.72 168.268 176.168 168.702C176.462 167.848 176.686 166.882 176.84 165.818ZM173.312 162.934V161.996H178.366V162.934H175.58C175.468 163.578 175.342 164.236 175.188 164.908H177.12L177.302 164.88L177.904 165.062C177.358 169.584 175.818 172.552 173.676 174.106C173.55 173.868 173.214 173.462 173.004 173.308C174.152 172.51 175.104 171.292 175.804 169.668C175.37 169.206 174.656 168.604 174.012 168.156C173.746 168.674 173.424 169.136 173.074 169.556C172.934 169.346 172.64 169.01 172.444 168.842C173.676 167.372 174.278 164.964 174.572 162.934H173.312ZM179.36 162.864V170.886H178.436V162.864H179.36ZM180.984 161.506H181.936V172.762C181.936 173.406 181.796 173.714 181.376 173.882C180.984 174.05 180.298 174.078 179.192 174.078C179.136 173.812 179.01 173.35 178.856 173.07C179.696 173.098 180.438 173.084 180.662 173.084C180.9 173.07 180.984 173 180.984 172.762V161.506ZM184.386 175.758L183.602 175.38C184.806 173.392 185.394 171.026 185.394 168.646C185.394 166.266 184.806 163.914 183.602 161.912L184.386 161.548C185.688 163.634 186.458 165.902 186.458 168.646C186.458 171.404 185.688 173.658 184.386 175.758ZM192.149 173V161.856H193.423V164.908L193.381 166.476C194.081 165.776 194.865 165.202 195.901 165.202C197.497 165.202 198.225 166.238 198.225 168.184V173H196.951V168.352C196.951 166.924 196.517 166.322 195.509 166.322C194.725 166.322 194.193 166.714 193.423 167.484V173H192.149ZM203.047 173.182C201.423 173.182 200.877 172.16 200.877 170.648V166.434H199.743V165.468L200.933 165.398L201.087 163.256H202.151V165.398H204.209V166.434H202.151V170.676C202.151 171.614 202.445 172.146 203.327 172.146C203.593 172.146 203.943 172.048 204.195 171.95L204.447 172.902C204.013 173.042 203.509 173.182 203.047 173.182ZM208.01 173.182C206.386 173.182 205.84 172.16 205.84 170.648V166.434H204.706V165.468L205.896 165.398L206.05 163.256H207.114V165.398H209.172V166.434H207.114V170.676C207.114 171.614 207.408 172.146 208.29 172.146C208.556 172.146 208.906 172.048 209.158 171.95L209.41 172.902C208.976 173.042 208.472 173.182 208.01 173.182ZM210.893 176.206V165.398H211.943L212.055 166.266H212.097C212.783 165.706 213.637 165.202 214.519 165.202C216.479 165.202 217.543 166.742 217.543 169.08C217.543 171.684 215.989 173.182 214.239 173.182C213.553 173.182 212.825 172.86 212.139 172.3L212.167 173.63V176.206H210.893ZM214.029 172.118C215.289 172.118 216.213 170.984 216.213 169.094C216.213 167.414 215.653 166.28 214.211 166.28C213.567 166.28 212.909 166.644 212.167 167.33V171.32C212.853 171.908 213.525 172.118 214.029 172.118ZM221.563 173.182C220.485 173.182 219.449 172.734 218.721 172.132L219.351 171.292C220.009 171.824 220.695 172.188 221.605 172.188C222.613 172.188 223.103 171.656 223.103 170.998C223.103 170.214 222.207 169.878 221.367 169.556C220.303 169.164 219.141 168.646 219.141 167.358C219.141 166.154 220.121 165.202 221.773 165.202C222.711 165.202 223.537 165.594 224.125 166.056L223.509 166.882C222.991 166.49 222.459 166.21 221.787 166.21C220.821 166.21 220.373 166.714 220.373 167.302C220.373 168.03 221.157 168.296 222.011 168.618C223.117 169.038 224.335 169.486 224.335 170.928C224.335 172.16 223.355 173.182 221.563 173.182ZM226.782 167.54C226.278 167.54 225.858 167.134 225.858 166.574C225.858 165.986 226.278 165.58 226.782 165.58C227.286 165.58 227.706 165.986 227.706 166.574C227.706 167.134 227.286 167.54 226.782 167.54ZM226.782 173.182C226.278 173.182 225.858 172.79 225.858 172.216C225.858 171.628 226.278 171.222 226.782 171.222C227.286 171.222 227.706 171.628 227.706 172.216C227.706 172.79 227.286 173.182 226.782 173.182ZM228.886 175.506L233.086 161.884H234.01L229.824 175.506H228.886ZM234.369 175.506L238.569 161.884H239.493L235.307 175.506H234.369ZM242.189 173L240.075 165.398H241.377L242.511 169.794C242.665 170.522 242.819 171.208 242.959 171.922H243.029C243.197 171.208 243.351 170.508 243.547 169.794L244.723 165.398H245.969L247.159 169.794C247.341 170.522 247.509 171.208 247.691 171.922H247.747C247.915 171.208 248.055 170.522 248.223 169.794L249.343 165.398H250.547L248.503 173H246.963L245.857 168.898C245.661 168.184 245.521 167.484 245.339 166.714H245.269C245.101 167.484 244.947 168.198 244.751 168.926L243.687 173H242.189ZM253.414 173L251.3 165.398H252.602L253.736 169.794C253.89 170.522 254.044 171.208 254.184 171.922H254.254C254.422 171.208 254.576 170.508 254.772 169.794L255.948 165.398H257.194L258.384 169.794C258.566 170.522 258.734 171.208 258.916 171.922H258.972C259.14 171.208 259.28 170.522 259.448 169.794L260.568 165.398H261.772L259.728 173H258.188L257.082 168.898C256.886 168.184 256.746 167.484 256.564 166.714H256.494C256.326 167.484 256.172 168.198 255.976 168.926L254.912 173H253.414ZM264.638 173L262.524 165.398H263.826L264.96 169.794C265.114 170.522 265.268 171.208 265.408 171.922H265.478C265.646 171.208 265.8 170.508 265.996 169.794L267.172 165.398H268.418L269.608 169.794C269.79 170.522 269.958 171.208 270.14 171.922H270.196C270.364 171.208 270.504 170.522 270.672 169.794L271.792 165.398H272.996L270.952 173H269.412L268.306 168.898C268.11 168.184 267.97 167.484 267.788 166.714H267.718C267.55 167.484 267.396 168.198 267.2 168.926L266.136 173H264.638ZM274.688 173.182C274.184 173.182 273.764 172.79 273.764 172.216C273.764 171.628 274.184 171.222 274.688 171.222C275.192 171.222 275.612 171.628 275.612 172.216C275.612 172.79 275.192 173.182 274.688 173.182Z" fill="#828282"/>
<rect x="159.5" y="197.5" width="158" height="79" rx="3.5" fill="white"/>
<rect x="159.5" y="197.5" width="158" height="79" rx="3.5" stroke="#828282"/>
<path d="M170.904 218.786H172.668V217.764H170.904V218.786ZM170.904 216.07V217.078H172.668V216.07H170.904ZM175.44 216.07H173.606V217.078H175.44V216.07ZM175.44 218.786V217.764H173.606V218.786H175.44ZM179.122 214.53H182.09C182.09 214.53 182.076 214.922 182.076 215.062C181.922 220.928 181.796 222.874 181.32 223.462C181.082 223.826 180.802 223.938 180.382 223.98C179.99 224.036 179.332 224.022 178.688 223.98C178.66 223.7 178.548 223.266 178.394 223C179.066 223.056 179.682 223.07 179.948 223.07C180.186 223.07 180.312 223.028 180.452 222.846C180.774 222.44 180.942 220.592 181.082 215.51H179.08C178.912 219.234 178.268 222.286 175.804 224.134C175.65 223.91 175.286 223.56 175.034 223.392C175.258 223.238 175.454 223.07 175.636 222.902C173.522 223.154 171.352 223.392 169.784 223.56L169.63 222.65C170.47 222.58 171.52 222.482 172.668 222.37V221.166H170.022V220.368H172.668V219.514H170.05V215.356H172.668V214.474H169.644V213.662H172.668V212.738C171.772 212.808 170.862 212.864 170.036 212.892C169.994 212.668 169.896 212.332 169.784 212.122C171.856 212.01 174.376 211.758 175.818 211.436L176.336 212.234C175.58 212.402 174.628 212.528 173.606 212.64V213.662H176.574V214.474H173.606V215.356H176.322V219.514H173.606V220.368H176.35V221.166H173.606V222.272C174.516 222.188 175.468 222.09 176.406 221.978V222.034C177.61 220.382 177.988 218.128 178.114 215.51H176.476V214.53H178.142C178.17 213.55 178.17 212.528 178.17 211.464H179.15C179.15 212.514 179.15 213.55 179.122 214.53ZM194.746 222.202V214.572H195.754V224.022H194.746V223.196H185.296V224.064H184.288V214.572H185.296V222.202H194.746ZM192.408 217.428V215.608H190.406V217.428H192.408ZM192.408 220.102V218.268H190.406V220.102H192.408ZM187.508 218.268V220.102H189.496V218.268H187.508ZM187.508 215.608V217.428H189.496V215.608H187.508ZM183.854 212.206H196.146V213.172H190.462V214.726H193.318V220.984H186.626V214.726H189.426V213.172H183.854V212.206ZM204 216.196C204.826 216.196 205.484 216.854 205.484 217.68C205.484 218.506 204.826 219.164 204 219.164C203.174 219.164 202.516 218.506 202.516 217.68C202.516 216.854 203.174 216.196 204 216.196ZM219.288 213.088H217.804C217.454 213.522 217.048 213.928 216.558 214.306C216.362 214.11 216.026 213.886 215.774 213.788C216.824 213.06 217.524 212.122 217.888 211.282L218.826 211.436C218.686 211.73 218.532 212.01 218.35 212.304H223.138L223.306 212.262L224.006 212.472C223.614 213.186 223.096 213.97 222.592 214.46L221.766 214.166C222.06 213.886 222.368 213.494 222.62 213.088H220.38C220.688 214.166 221.472 215.188 224.342 215.608C224.146 215.804 223.908 216.196 223.81 216.448C221.43 216.028 220.408 215.132 219.89 214.124C219.344 215.16 218.308 215.818 216.32 216.21C216.236 215.986 215.998 215.65 215.83 215.468C218.112 215.062 218.952 214.362 219.288 213.088ZM214.57 220.172V221.152H221.584V220.172H214.57ZM214.57 218.534V219.5H221.584V218.534H214.57ZM214.57 216.924V217.862H221.584V216.924H214.57ZM213.562 221.838V216.224H222.62V221.838H213.562ZM215.774 212.668L215.312 213.48C214.668 213.102 213.38 212.612 212.386 212.304L212.848 211.59C213.814 211.856 215.102 212.318 215.774 212.668ZM215.606 214.194L215.732 215.006C214.472 215.412 213.156 215.818 212.106 216.154L211.7 215.244C212.708 215.006 214.178 214.586 215.606 214.194ZM215.9 221.978L216.838 222.426C215.704 223.084 213.954 223.728 212.568 224.106C212.386 223.91 212.036 223.504 211.798 223.322C213.226 223.028 214.906 222.538 215.9 221.978ZM219.162 222.552L220.016 222.02C221.528 222.51 223.194 223.112 224.216 223.574L223.068 224.092C222.2 223.644 220.688 223.056 219.162 222.552ZM234.954 213.984L234.422 214.782C233.974 214.25 233.022 213.494 232.224 212.976L232.756 212.276C233.54 212.752 234.506 213.466 234.954 213.984ZM234.352 217.33L233.834 218.17C233.344 217.652 232.35 216.938 231.51 216.49L232 215.762C232.826 216.196 233.862 216.826 234.352 217.33ZM230.306 212.122L231.202 212.346C230.866 213.396 230.432 214.712 230.054 215.496L229.382 215.272C229.704 214.446 230.096 213.06 230.306 212.122ZM227.394 215.244L226.568 215.468C226.498 214.628 226.176 213.34 225.812 212.36L226.568 212.178C226.974 213.144 227.296 214.404 227.394 215.244ZM228.92 216.938V217.134C229.312 217.568 230.712 219.416 231.02 219.892L230.334 220.704C230.082 220.186 229.424 219.108 228.92 218.324V224.064H227.954V218.31C227.436 219.808 226.722 221.362 226.022 222.3C225.91 222.006 225.658 221.544 225.49 221.292C226.302 220.312 227.184 218.506 227.674 216.938H225.714V215.958H227.954V211.338H228.92V215.958H231.202V216.938H228.92ZM238.468 219.808L236.662 220.13V224.064H235.682V220.312L231.342 221.096L231.174 220.13L235.682 219.332V211.296H236.662V219.15L238.314 218.856L238.468 219.808ZM251.712 218.1C251.712 221.04 249.78 223 246.462 223.434L245.804 222.398C246.252 222.356 246.686 222.286 247.008 222.216C248.8 221.81 250.564 220.48 250.564 218.058C250.564 215.944 249.206 214.194 246.826 213.998C246.644 215.3 246.378 216.728 245.986 218.03C245.132 220.914 244.026 222.384 242.724 222.384C241.478 222.384 240.232 220.956 240.232 218.646C240.232 215.608 242.934 212.948 246.35 212.948C249.626 212.948 251.712 215.258 251.712 218.1ZM241.324 218.548C241.324 220.312 242.136 221.096 242.766 221.096C243.424 221.096 244.166 220.158 244.88 217.792C245.23 216.63 245.51 215.3 245.664 214.012C242.976 214.348 241.324 216.644 241.324 218.548ZM258.152 211.772V212.612H254.33V211.772H258.152ZM258.642 213.634V214.488H253.588V213.634H258.642ZM258.166 215.566V216.392H254.246V215.566H258.166ZM254.246 218.296V217.47H258.166V218.296H254.246ZM260.266 214.782V217.582H264.858V214.782H260.266ZM257.326 222.566V220.228H255.128V222.566H257.326ZM264.354 223.042H265.25C265.572 223.042 265.642 222.762 265.67 220.872C265.88 221.054 266.286 221.208 266.566 221.278C266.482 223.434 266.23 223.952 265.362 223.952H264.2C263.248 223.952 263.038 223.658 263.038 222.622V218.492H261.778C261.582 220.956 261.05 222.972 258.908 224.148C258.768 223.91 258.488 223.546 258.25 223.364V223.42H255.128V224.05H254.218V219.374H258.25V223.322C260.168 222.342 260.574 220.606 260.742 218.492H259.258V213.858H260.574C260.392 213.228 259.972 212.332 259.566 211.646L260.462 211.352C260.938 212.038 261.372 212.948 261.554 213.592L260.826 213.858H264.354L263.57 213.606C263.906 212.962 264.34 211.968 264.536 211.268L265.6 211.576C265.222 212.374 264.802 213.27 264.452 213.858H265.894V218.492H264.004V222.608C264.004 222.986 264.046 223.042 264.354 223.042ZM271.76 213.088H269.142V215.734H271.76V213.088ZM269.142 219.472H271.76V216.686H269.142V219.472ZM272.726 220.438H269.142V221.726H268.162V212.15H272.726V220.438ZM274.938 218.66H278.928V216.21H275.022V216.84C275.022 217.414 275.008 218.03 274.938 218.66ZM278.928 212.864H275.022V215.258H278.928V212.864ZM279.936 211.884V222.692C279.936 223.35 279.796 223.672 279.348 223.854C278.9 224.008 278.13 224.036 276.94 224.036C276.884 223.756 276.716 223.294 276.548 223.028C277.458 223.056 278.34 223.042 278.564 223.042C278.83 223.028 278.928 222.944 278.928 222.692V219.612H274.798C274.49 221.278 273.776 222.944 272.194 224.162C272.026 223.938 271.634 223.588 271.424 223.448C273.776 221.642 274.014 219.01 274.014 216.84V211.884H279.936Z" fill="#828282"/>
</svg>
