<svg width="736" height="45" viewBox="0 0 736 45" fill="none" xmlns="http://www.w3.org/2000/svg">
<path d="M0 26.9374H5.33198V27.5456H0.643616V38.2568H0V26.9374Z" fill="white"/>
<path d="M18.5181 32.0923C18.5713 33.9936 18.778 35.8359 19.2503 37.4242C19.8762 36.1724 20.3663 34.7435 20.6616 33.1197L22.3857 33.6275C22.3149 33.8342 22.1082 33.9936 21.7067 33.9759C21.2166 35.8241 20.5553 37.3711 19.705 38.6642C20.1597 39.6739 20.7856 40.5301 21.6063 41.1383C21.8484 41.3627 21.9547 41.3627 22.0964 41.0497C22.2736 40.6837 22.5334 39.9338 22.7223 39.3079L22.929 39.3433L22.7046 41.6579C23.1416 42.2484 23.177 42.4787 23.0353 42.6676C22.6869 43.1696 21.748 42.7562 21.1044 42.2307C20.2187 41.5339 19.5338 40.66 18.9964 39.6326C17.8096 41.1147 16.3334 42.1953 14.6092 42.9452L14.4025 42.7031C15.3414 42.148 16.2153 41.469 17.0006 40.6659H11.7395V41.4867C11.7395 41.5753 11.4266 41.8528 10.901 41.8528H10.7416V32.8835L11.9462 33.4208H15.3945L16.0204 32.6178C16.0204 32.6178 16.7526 33.2083 17.225 33.6452C17.1719 33.8342 17.0006 33.9227 16.7703 33.9227H14.3317V35.5052H15.5185L16.0559 34.9502L17.2781 35.8536C17.1896 35.9776 16.9475 36.1134 16.6522 36.1665V38.4635C16.6345 38.5698 16.1267 38.7941 15.8138 38.7941H15.6721V38.186H14.3317V40.1522H15.5363L16.1799 39.3138C16.1799 39.3138 16.8766 39.8511 17.3313 40.288C17.786 39.7979 18.1993 39.2429 18.5654 38.6524C17.8509 36.8042 17.5202 34.5604 17.3962 32.0864H9.83818V34.525C9.83818 36.9637 9.64923 40.4652 7.22829 42.9038L7.00391 42.6972C8.60409 40.2231 8.7458 37.2294 8.7458 34.5427V30.9881L10.0508 31.5608H17.3844C17.3667 31.2302 17.3667 30.8995 17.349 30.5688C17.2427 30.6043 17.1069 30.622 16.9475 30.622H16.7585V29.2639H13.3456V30.3799C13.3456 30.5039 12.8732 30.6751 12.4245 30.6751H12.2473V29.2639H7.21648L7.12791 28.7561H12.2296V26.9788L13.9538 27.1559C13.9184 27.398 13.7648 27.5751 13.3279 27.6283V28.762H16.7408V26.9847L18.4827 27.1618C18.4473 27.4039 18.3115 27.581 17.8568 27.6342V28.7679H20.7501L21.5532 27.7582C21.5532 27.7582 22.4743 28.4727 23.0176 28.9923C22.9821 29.1812 22.8286 29.2698 22.5806 29.2698H17.8627V30.0551L19.0673 30.1968C19.0319 30.4035 18.8901 30.5984 18.5122 30.6692V31.5726H21.2461L21.9606 30.6515C21.9606 30.6515 22.7991 31.3128 23.301 31.8206C23.2478 32.0096 23.0943 32.0982 22.864 32.0982H18.524L18.5181 32.0923ZM11.7218 33.9227V35.5052H13.322V33.9227H11.7218ZM11.7218 36.0307V37.7018H15.6603V36.0307H11.7218ZM11.7218 40.1581H13.322V38.1919H11.7218V40.1581ZM19.2149 29.4469C21.9665 29.9547 21.2166 31.797 20.26 31.1888C20.1006 30.6338 19.5456 29.9725 19.026 29.5887L19.2149 29.4469Z" fill="white"/>
<path d="M39.4782 29.2048C39.4782 29.2048 40.4525 29.9547 41.0429 30.5275C40.9898 30.7164 40.854 30.7873 40.606 30.7873H25.171L25.0293 30.2795H30.7569C30.6152 30.2795 30.4617 30.2086 30.3022 30.1023C30.131 29.1103 29.2394 27.8881 28.454 27.1913L28.643 27.0496C31.9201 28.0947 31.7253 30.2204 30.8218 30.2736H34.2525C34.8607 29.2993 35.5397 27.9766 35.9413 27.0142L37.7894 27.5515C37.7009 27.7404 37.4942 27.8822 37.0927 27.8644C36.5553 28.5966 35.646 29.5178 34.7957 30.2677H38.5748L39.4605 29.1871L39.4782 29.2048ZM31.5009 31.8856L32.9653 32.9838C32.8413 33.1078 32.546 33.2614 32.2154 33.3145V41.4158C32.2154 42.3074 32.0382 42.827 30.6329 42.9688C30.6152 42.6381 30.5266 42.3606 30.3377 42.2011C30.1487 42.0299 29.8121 41.8882 29.2217 41.8173V41.5398C29.2217 41.5398 30.4735 41.6461 30.7864 41.6461C31.0285 41.6461 31.0994 41.5398 31.0994 41.3154V38.4753H27.7396V42.5672C27.7396 42.6912 27.3026 42.9688 26.8184 42.9688H26.6295V32.045L27.834 32.5823H30.934L31.5068 31.8856H31.5009ZM27.7396 33.1078V35.2158H31.0994V33.1078H27.7396ZM31.0994 37.9497V35.7355H27.7396V37.9497H31.0994ZM36.3073 32.5351C36.2719 32.7772 36.1007 32.9543 35.6637 33.0252V39.9928C35.6637 40.1345 35.1913 40.3766 34.7957 40.3766H34.5891V32.3461L36.3132 32.5351H36.3073ZM38.309 31.9623L40.0332 32.1513C39.9801 32.3757 39.8266 32.5351 39.425 32.5882V41.3509C39.425 42.2543 39.2184 42.8152 37.6123 42.951C37.5591 42.6381 37.4529 42.3606 37.2108 42.2011C36.951 42.0122 36.514 41.8705 35.7287 41.7819V41.5044C35.7287 41.5044 37.5237 41.6461 37.9075 41.6461C38.2205 41.6461 38.309 41.5398 38.309 41.28V31.9623Z" fill="white"/>
<path d="M48.123 43.0691H42.791V42.461H47.4794V31.7498H48.123V43.0691Z" fill="white"/>
<path d="M64.3201 35.0919C65.9734 42.9157 61.2909 42.089 62.6372 39.9928C63.4107 39.0835 63.8477 37.318 63.8772 35.0919H64.3201ZM75.3383 32.4466C75.1434 32.6651 74.8128 32.7773 74.2636 32.8599C73.9861 38.2864 73.2716 41.097 72.1675 42.0359C71.5356 42.6145 70.6499 42.833 69.717 42.833C69.717 42.3902 69.6343 41.9532 69.3568 41.7052C69.0793 41.4572 68.3353 41.2624 67.6208 41.1266V40.6601C68.4475 40.7132 69.7406 40.8254 70.2366 40.8254C70.6795 40.8254 70.8979 40.7723 71.1459 40.5774C71.8368 39.9692 72.3859 37.4066 72.6634 32.671H65.749V33.5508C65.749 33.6866 65.2235 34.1294 64.3968 34.1294H64.1488V19.6687L66.1033 20.4954H71.9431L73.1535 19.0605C73.1535 19.0605 74.5057 20.0821 75.356 20.8792C75.2733 21.1803 75.0253 21.3221 74.6415 21.3221H69.9886V24.239H71.8899L72.9114 22.8868C72.9114 22.8868 74.181 23.8788 74.8954 24.5933C74.8423 24.8944 74.5648 25.0361 74.2046 25.0361H69.9886V28.0121H71.7777L72.8229 26.6895C72.8229 26.6895 74.0629 27.6519 74.8069 28.3959C74.7242 28.6971 74.4762 28.8388 74.116 28.8388H69.9827V31.8679H72.4095L73.372 30.8464L75.3265 32.4466H75.3383ZM65.9439 34.8144C68.5892 38.3395 66.9063 41.286 65.7785 39.9102C66.0797 38.31 65.8612 36.2433 65.5305 34.9266L65.9439 34.8144ZM65.749 21.3162V24.2331H68.4238V21.3162H65.749ZM68.4238 25.0361H65.749V28.0121H68.4238V25.0361ZM65.749 31.8679H68.4238V28.8388H65.749V31.8679ZM67.5677 34.3479C71.0928 37.0464 69.6875 39.8039 68.477 38.5934C68.477 37.3239 67.7861 35.5879 67.2075 34.5191L67.5677 34.3538V34.3479ZM69.3037 33.7397C73.1594 35.0919 71.9785 37.873 70.6795 36.8515C70.5141 35.889 69.717 34.6491 68.973 33.9582L69.3037 33.7397ZM80.6526 30.0729C81.8099 35.1982 84.343 39.9102 88.311 41.8351L88.2579 42.1363C87.567 42.2721 86.9647 42.8271 86.7167 43.7364C82.8905 41.0085 81.0423 36.326 80.1034 30.0729H78.3674C78.2552 34.7553 77.5703 40.0755 73.4665 43.766L73.0532 43.4884C76.2476 39.3551 76.6373 34.094 76.6373 28.8329V19.6569L78.704 20.5367H84.7386L85.7011 19.4621L87.88 21.1449C87.7441 21.3634 87.2718 21.5878 86.7521 21.6704V31.0354C86.7226 31.2007 85.8133 31.614 85.2642 31.614H85.0162V30.0729H80.6644H80.6526ZM78.3674 29.2462H85.0044V21.3398H78.3674V29.2462Z" fill="white"/>
<path d="M99.9086 25.3372C99.7432 25.6384 99.4657 25.7505 98.8044 25.6384C98.1962 26.6008 97.3695 27.705 96.4366 28.8328L97.2101 29.134C97.0979 29.382 96.8263 29.5473 96.3834 29.63V43.1282C96.3539 43.2935 95.6394 43.76 94.9486 43.76H94.6179V30.8936C93.4901 32.0804 92.2737 33.2378 91.0396 34.2002L90.709 33.8696C93.3248 31.0589 95.9701 26.8429 97.2632 24.0323L99.9086 25.3254V25.3372ZM99.3299 19.9403C99.1646 20.2178 98.887 20.3241 98.2848 20.1883C96.7436 21.9774 93.9861 24.4043 91.205 25.9159L90.9038 25.5557C93.189 23.6248 95.669 20.6252 96.8263 18.5291L99.3358 19.9344L99.3299 19.9403ZM108.476 40.7663C109.746 41.097 111.204 41.2328 112.881 41.2328C113.791 41.2328 115.692 41.2328 116.767 41.2032V41.5871C116.135 41.6992 115.828 42.3015 115.804 43.0455H112.692C107.378 43.0455 104.319 41.5044 102.554 35.6056C101.727 38.6347 100.292 41.6638 97.7356 43.7069L97.4345 43.4057C100.192 40.2349 101.237 35.0564 101.432 30.7341L104.296 31.2597C104.213 31.6435 103.912 31.8679 103.304 31.8915C103.168 32.8008 103.003 33.7633 102.778 34.7317C103.717 37.4596 104.981 39.113 106.717 40.0754V28.8328L109.362 29.1103C109.309 29.4705 109.085 29.7421 108.482 29.8248V33.7101H111.925L113.194 32.1099C113.194 32.1099 114.629 33.2673 115.538 34.0644C115.456 34.3656 115.178 34.5073 114.794 34.5073H108.488V40.7604L108.476 40.7663ZM100.375 22.7509H106.215V18.7003L108.913 18.9778C108.86 19.338 108.612 19.586 108.004 19.6923V22.7509H111.641L112.911 21.1803C112.911 21.1803 114.346 22.2845 115.255 23.1347C115.172 23.4359 114.924 23.5776 114.541 23.5776H108.01V27.8467H112.828L114.098 26.2465C114.098 26.2465 115.556 27.3744 116.465 28.2305C116.383 28.5317 116.135 28.6734 115.751 28.6734H99.1941L98.9756 27.8467H106.221V23.5776H100.599L100.381 22.7509H100.375Z" fill="white"/>
<path d="M142.139 25.5321C142.139 25.5321 143.71 26.7426 144.672 27.6283C144.589 27.9294 144.341 28.0711 143.928 28.0711H119.683L119.465 27.2445H124.755V20.6075L127.401 20.8851C127.348 21.2452 127.1 21.4932 126.491 21.5995V27.2445H131.174V18.5114L133.985 18.8125C133.931 19.1963 133.654 19.4738 132.993 19.5565V22.6683H137.728L139.08 20.9854C139.08 20.9854 140.598 22.1959 141.56 23.0226C141.507 23.3237 141.2 23.4654 140.816 23.4654H132.993V27.2386H140.734L142.139 25.5321ZM128.753 30.5747C128.617 30.8227 128.369 30.9585 127.731 30.8523C126.108 33.0311 123.102 35.7 119.796 37.3002L119.548 36.94C122.305 34.9265 124.974 31.7084 126.214 29.2284L128.747 30.5806L128.753 30.5747ZM120.545 43.2168C127.655 41.8114 133.217 39.7979 137.681 33.4621L140.131 34.897C139.966 35.1745 139.665 35.2277 138.974 35.0919C133.99 41.0674 128.31 42.833 120.652 43.7423L120.54 43.2168H120.545ZM127.324 35.6115C127.324 35.6115 130.052 35.8063 130.601 35.8063C131.044 35.8063 131.18 35.6705 131.18 35.2808V28.201L133.908 28.5022C133.825 28.886 133.577 29.0513 132.998 29.1635V35.3871C132.998 36.8219 132.668 37.7017 130.158 37.9497C130.076 37.4242 129.94 36.9578 129.55 36.6802C129.166 36.3791 128.529 36.1547 127.318 36.0189V35.6056L127.324 35.6115ZM136.417 29.6359C144.956 31.8679 144.46 36.5503 142.228 35.5052C141.206 33.5743 138.313 31.2361 136.169 29.9429L136.417 29.6418V29.6359Z" fill="white"/>
<path d="M155.892 17.7496C158.395 16.4152 161.289 15.6357 164.796 15.6357C173.813 15.6357 178.542 20.9205 178.542 28.6557C178.542 36.9459 172.809 42.6794 162.906 42.6794C156.116 42.6794 151.056 39.733 150.164 34.3892C150.554 33.3322 151.445 32.8303 152.39 32.8303C153.725 32.8303 154.392 33.5566 154.841 35.2808L156.063 39.2842C157.899 40.1758 159.848 40.5655 162.853 40.5655C169.307 40.5655 173.37 36.2256 173.37 28.9923C173.37 21.759 169.254 18.1394 163.019 18.1394C160.072 18.1394 157.51 18.9719 154.669 20.702L153.335 20.2001L154.835 0H177.09V4.00341H156.836L155.892 17.7496Z" fill="white"/>
<path d="M195.304 19.6391C195.192 19.9403 194.944 20.1056 194.259 20.0229C192.47 23.7961 189.027 28.3132 184.174 30.9054L183.926 30.5452C188.03 27.5397 191.141 22.6092 192.523 18.5586L195.304 19.6332V19.6391ZM203.323 28.2364L205.443 30.002C205.248 30.1968 204.894 30.3621 204.338 30.4153C203.978 36.4735 203.181 41.2387 201.858 42.5082C201.061 43.2522 199.957 43.6124 198.605 43.5828C198.605 43.0573 198.469 42.5613 197.997 42.2602C197.554 41.959 196.095 41.6284 194.855 41.4335L194.885 40.967C196.29 41.1029 198.741 41.3272 199.432 41.3272C200.01 41.3272 200.258 41.2446 200.559 40.967C201.522 40.1699 202.183 35.7059 202.49 30.1968H195.771C195.304 34.7671 193.84 39.9219 185.355 43.7482L184.995 43.3053C192.435 39.2015 193.533 34.2711 193.781 30.1909H187.994L187.746 29.3642H202.266L203.311 28.2364H203.323ZM199.603 18.4818C201.339 22.7509 205.691 26.6067 209.659 28.5376L209.576 28.8387C208.832 28.8919 208.224 29.3879 207.869 30.2736C204.15 27.7641 200.678 23.6071 199.136 18.7593L199.603 18.4818Z" fill="white"/>
<path d="M246.44 27.4275C246.405 27.6342 246.181 27.705 245.744 27.7582C247.314 30.0197 250.219 31.9742 253.284 33.2968L253.249 33.5389C252.729 33.6452 252.292 34.0467 252.168 34.4778C249.346 32.9603 246.683 30.557 245.425 27.9648C243.754 30.5629 240.305 33.5566 237.064 35.1214L236.904 34.8793C239.833 33.1374 243.4 29.4646 244.362 26.8843L246.435 27.4216L246.44 27.4275ZM251.147 40.7368C251.147 40.7368 252.139 41.4867 252.764 42.0595C252.711 42.2484 252.522 42.3193 252.274 42.3193H237.589L237.43 41.8292H244.362V38.0856H239.798L239.656 37.5955H244.356V34.2888H240.052L239.928 33.781H248.064L248.867 32.8422C248.867 32.8422 249.771 33.5035 250.332 34.0113C250.296 34.2002 250.107 34.2888 249.877 34.2888H245.519V37.5955H248.584L249.44 36.6035C249.44 36.6035 250.361 37.3002 250.975 37.8199C250.922 37.997 250.751 38.0797 250.503 38.0797H245.519V41.8233H250.237L251.123 40.725L251.147 40.7368Z" fill="white"/>
<path d="M268.046 30.681L269.474 31.7615C269.368 31.9032 269.091 32.039 268.742 32.1276V37.1762C268.725 37.3002 268.116 37.56 267.75 37.56H267.579V36.3731H258.433C258.244 38.6523 257.511 41.1973 254.967 42.9923L254.742 42.7975C256.992 40.4297 257.323 37.4832 257.323 34.6962V30.7577L258.716 31.3659H267.408L268.051 30.6691L268.046 30.681ZM269.055 27.3861C269.055 27.3861 270.047 28.136 270.673 28.7088C270.638 28.8977 270.466 28.9863 270.218 28.9863H255.516L255.356 28.4667H268.158L269.043 27.3861H269.055ZM267.573 35.8535V31.8973H258.498V34.6844C258.498 35.0505 258.498 35.452 258.462 35.8535H267.573Z" fill="white"/>
<path d="M285.919 34.1117V37.7195H286.669L287.419 36.6744C287.419 36.6744 288.304 37.4065 288.83 37.9439C288.777 38.121 288.641 38.2037 288.393 38.2037H273.117L272.976 37.7136H275.674V34.1058H272.993L272.852 33.6157H275.674V30.3917C274.871 31.2302 273.985 31.9092 273.111 32.4111L272.905 32.2045C274.192 31.053 275.621 29.0868 276.53 26.9611L278.254 27.7641C278.148 27.9235 277.924 28.0416 277.54 27.9885C277.245 28.4786 276.932 28.9273 276.583 29.3643L276.896 29.506H286.179L287.017 28.4609C287.017 28.4609 287.938 29.2108 288.499 29.7304C288.464 29.9252 288.292 30.0079 288.044 30.0079H285.919V33.6157H286.722L287.507 32.5706C287.507 32.5706 288.428 33.3027 288.972 33.8224C288.936 34.0172 288.783 34.0999 288.535 34.0999H285.925L285.919 34.1117ZM275.904 38.8827C276.288 41.0261 275.278 42.2602 274.44 42.7149C273.95 43.0278 273.306 43.0456 273.117 42.644C272.976 42.2957 273.206 41.965 273.572 41.7406C274.475 41.3568 275.521 40.294 275.609 38.865L275.904 38.8827ZM276.725 33.6216H278.638V30.0138H276.725V33.6216ZM276.725 37.7136H278.638V34.1058H276.725V37.7136ZM278.225 39.054C280.823 41.3037 279.53 43.636 278.591 42.5555C278.697 41.4572 278.367 40.0637 277.983 39.1425L278.225 39.054ZM279.689 30.0138V33.6216H281.744V30.0138H279.689ZM279.689 34.1058V37.7136H281.744V34.1058H279.689ZM281.431 39.0185C284.968 40.9199 283.994 43.4589 282.896 42.5023C282.772 41.4218 281.921 40.0105 281.224 39.1602L281.431 39.0185ZM282.825 30.0138V33.6216H284.844V30.0138H282.825ZM284.844 34.1058H282.825V37.7136H284.844V34.1058ZM284.844 38.8119C289.775 40.5538 289.025 43.6892 287.631 42.7858C287.283 41.4985 285.836 39.8747 284.637 38.9713L284.844 38.8119Z" fill="white"/>
<path d="M296.742 36.5858C295.573 37.3711 293.884 38.4989 291.706 39.8452C291.652 40.0341 291.534 40.229 291.357 40.2998L290.625 38.8532C291.133 38.6819 292.019 38.3336 293.117 37.8789V32.3934H291.044L290.92 31.8856H293.117V27.3212L294.876 27.5102C294.841 27.7523 294.67 27.9117 294.233 27.9826V31.8856H294.947L295.679 30.8582C295.679 30.8582 296.518 31.5903 297.02 32.1277C296.967 32.2989 296.795 32.3875 296.565 32.3875H294.233V37.4065C295 37.0758 295.833 36.7275 296.654 36.3614L296.742 36.5858ZM305.346 31.2183C305.346 31.2183 306.302 31.986 306.881 32.5233C306.828 32.7122 306.674 32.8008 306.426 32.8008H298.307V33.4267C298.307 36.4736 297.941 40.2172 294.439 42.7444L294.197 42.52C296.778 39.9101 297.191 36.6684 297.191 33.4267V28.4431L298.691 28.9982C300.905 28.5435 303.308 27.8113 304.631 27.2031L306.095 28.5612C305.918 28.7029 305.588 28.7029 305.174 28.5435C303.415 28.9627 300.769 29.3288 298.313 29.4469V32.2694H304.531L305.351 31.2065L305.346 31.2183ZM305.086 35.0682L306.497 36.1665C306.373 36.3259 306.095 36.4618 305.729 36.5149V42.4019C305.712 42.5259 305.174 42.8034 304.79 42.8034H304.613V41.2505H299.913V42.5377C299.913 42.6617 299.476 42.9215 299.01 42.9215H298.821V35.2395L300.008 35.7768H304.448L305.092 35.0623L305.086 35.0682ZM304.613 40.7486V36.3082H299.913V40.7486H304.613Z" fill="white"/>
<path d="M313.188 33.3145C317.002 34.8143 316.063 37.2353 314.894 36.3791C314.67 35.5052 313.867 34.3774 313.188 33.6452V42.579C313.188 42.7208 312.733 42.9983 312.32 42.9983H312.078V34.5663C311.292 36.3614 310.194 37.9793 308.818 39.3373L308.576 39.113C310.159 37.0581 311.239 34.2711 311.836 31.5372H309.102L308.96 31.0176H312.078V27.0142L313.82 27.2208C313.784 27.4806 313.642 27.6401 313.194 27.7109V31.0176H314.257L315.024 30.0256C315.024 30.0256 315.928 30.74 316.453 31.2597C316.4 31.4486 316.246 31.5372 316.016 31.5372H313.194V33.3145H313.188ZM323.45 29.9901C323.45 29.9901 324.324 30.74 324.844 31.242C324.791 31.4309 324.637 31.5195 324.407 31.5195H321.986V41.2918C321.986 42.213 321.779 42.7739 320.055 42.9274C319.984 42.5968 319.878 42.337 319.618 42.1952C319.305 42.0063 318.833 41.8823 317.912 41.7583V41.4808C317.912 41.4808 319.984 41.6402 320.386 41.6402C320.752 41.6402 320.858 41.5162 320.858 41.221V33.592C319.465 36.2019 317.392 38.4871 314.782 40.1758L314.575 39.9337C317.221 37.7903 319.293 34.6017 320.409 31.5195H316.719L316.577 31.0117H320.864V27.0201L322.641 27.209C322.588 27.4688 322.435 27.6283 321.998 27.6991V31.0058H322.73L323.462 29.9783L323.45 29.9901Z" fill="white"/>
<path d="M329.354 30.8758C330.346 30.8758 335.885 30.2853 336.723 30.1082C337.178 30.0019 337.402 29.7244 337.698 29.7244C338.205 29.7244 339.422 30.6278 339.422 31.1179C339.422 31.5017 338.867 31.7969 338.619 32.3697C336.788 36.7097 333.671 39.9632 328.533 41.9354L328.274 41.5161C333.257 39.0066 336.458 35.2807 337.538 31.2065C337.609 30.9466 337.503 30.9112 337.331 30.9112C336.564 30.9112 331.616 31.608 330.624 31.8324C330.151 31.9386 329.767 32.287 329.437 32.287C328.917 32.287 328.096 31.4485 327.919 31.0175C327.831 30.7754 327.778 30.5097 327.748 30.0255L328.079 29.9015C328.356 30.3207 328.74 30.8758 329.348 30.8758H329.354Z" fill="white"/>
<path d="M351.568 31.118C352.176 31.0648 352.247 30.681 352.578 30.681C353.014 30.681 354.213 31.6553 354.213 32.0745C354.213 32.4938 353.676 32.5942 353.57 33.0665C353.41 33.8342 353.032 36.1842 352.684 38.0856C353.31 38.1387 353.747 38.3808 353.747 38.7115C353.747 39.0067 353.605 39.2193 353.239 39.2193C352.873 39.2193 351.934 39.113 351.131 39.113C349.773 39.113 347.423 39.237 345.332 39.3551C345.35 39.5795 345.35 39.792 345.35 40.0518C345.35 40.4888 345.191 40.6955 344.83 40.6955C344.5 40.6955 344.116 40.2231 344.116 39.5086C344.116 39.1602 344.169 38.0797 344.169 37.3298C344.151 36.0248 343.945 33.533 343.679 32.5056C343.52 31.8797 343.224 31.4782 342.74 31.0412L342.982 30.746C343.715 30.9526 344.287 31.1298 344.866 31.6494C346.59 31.5785 350.895 31.1947 351.574 31.1121L351.568 31.118ZM351.586 38.0856C351.916 36.1016 352.318 33.1551 352.318 32.1808C352.318 32.0391 352.265 31.9919 352.111 31.9919C350.995 31.9919 348.072 32.2163 347.11 32.3225C346.537 32.3757 346.047 32.5469 345.734 32.5469C345.545 32.5469 345.279 32.4406 345.037 32.3225C345.09 33.3854 345.244 36.5562 345.315 38.4871C347.181 38.3631 349.968 38.1564 351.586 38.0856Z" fill="white"/>
<path d="M358.659 34.2534C359.043 34.8439 359.32 35.3871 360.052 35.3871C361.605 35.3871 367.699 34.9856 368.502 34.9502C369.671 34.8616 370.155 34.7612 370.61 34.7612C371.271 34.7612 372.057 35.0565 372.057 35.5288C372.057 35.8418 371.88 36.0366 371.289 36.0366C370.699 36.0366 370.073 36.0012 369.01 36.0012C367.947 36.0012 363.017 36.261 361.712 36.4205C360.72 36.5267 360.525 36.7866 360.023 36.7866C359.521 36.7866 358.718 35.9304 358.47 35.3399C358.346 35.0092 358.328 34.714 358.311 34.3656L358.659 34.2593V34.2534Z" fill="white"/>
<path d="M376.061 30.0019V29.6535C376.409 29.5472 376.775 29.4587 377.053 29.4587C377.696 29.4587 378.759 30.0846 378.759 30.5215C378.759 30.8522 378.552 31.0293 378.499 31.6729C378.446 32.4228 378.481 36.255 378.481 36.9695C378.481 37.6308 378.239 37.8434 377.926 37.8434C377.543 37.8434 377.247 37.3061 377.247 36.6565C377.247 36.1842 377.389 35.5051 377.425 34.0762C377.425 33.2731 377.389 31.5667 377.318 30.923C377.283 30.5038 377.265 30.368 376.97 30.244C376.71 30.12 376.433 30.0728 376.066 30.0019H376.061ZM378.062 42.5967L377.838 42.2129C381.233 40.4179 382.875 38.0855 383.081 34.5131C383.17 32.9307 383.205 31.4486 383.134 30.244C383.099 29.9488 383.064 29.7067 382.751 29.5295C382.556 29.4232 382.16 29.3524 381.705 29.3051L381.688 28.9568C382.072 28.7796 382.556 28.6261 382.875 28.6261C383.536 28.6261 384.687 29.3051 384.687 29.6712C384.687 30.0373 384.392 30.1436 384.357 30.6987C384.321 31.7261 384.25 33.4857 384.197 34.5663C384.002 38.6051 382.001 41.1146 378.068 42.5967H378.062Z" fill="white"/>
<path d="M402.019 31.36L402.42 31.6198C400.33 35.328 397.088 38.115 393.274 40.5537C392.925 40.7603 392.736 41.1973 392.353 41.1973C391.674 41.1973 390.629 40.3765 390.28 39.8569C390.109 39.5617 389.949 39.0007 389.914 38.7232L390.192 38.546C390.717 39.1188 391.272 39.6798 391.827 39.6798C393.168 39.6798 399.545 35.0622 402.019 31.3541V31.36ZM390.316 29.7244C392.3 30.2794 394.703 31.4663 394.703 32.8066C394.703 33.1904 394.461 33.4503 394.095 33.4503C393.817 33.4503 393.587 33.2613 393.138 32.7181C392.3 31.7084 391.638 31.1002 390.109 30.0905L390.316 29.7244Z" fill="white"/>
<path d="M408.644 28.4371C408.957 28.4371 409.306 28.4371 409.69 28.508C410.369 28.6674 411.29 29.187 411.29 29.5C411.29 29.7952 411.048 29.9724 410.782 30.4034C410.587 30.7164 410.398 31.047 410.191 31.3423C410.315 31.36 410.416 31.36 410.522 31.36C411.361 31.36 413.498 31.1179 413.988 31.0293C414.461 30.923 414.579 30.6278 414.874 30.6278C415.293 30.6278 416.391 31.3423 416.391 31.7969C416.391 32.1453 415.819 32.2516 415.571 32.7004C413.185 37.0403 409.648 40.6245 404.736 42.6617L404.476 42.2778C408.951 39.9455 413.043 35.452 414.402 32.0036C414.49 31.7969 414.419 31.7438 414.26 31.7438C413.876 31.7438 412.099 32.0213 411.473 32.1453C411.107 32.2339 410.741 32.3697 410.499 32.3697C410.304 32.3697 410.026 32.1926 409.749 31.9505C408.373 33.7986 406.631 35.3634 404.594 36.4794L404.334 36.1133C407.05 34.1647 409.613 30.6101 409.613 29.6004C409.613 29.3051 409.158 29.0276 408.55 28.7619L408.639 28.4312L408.644 28.4371ZM415.175 28.6438C416.078 28.9922 416.746 29.376 417.177 29.7775C417.614 30.1968 417.767 30.492 417.767 30.8404C417.767 31.1179 417.608 31.295 417.348 31.295C417.106 31.295 416.893 30.9112 416.545 30.4566C416.179 30.0196 415.706 29.4823 414.945 28.9213L415.169 28.6438H415.175ZM416.675 27.5455C417.578 27.8585 418.228 28.2423 418.659 28.5552C419.131 28.9213 419.32 29.2697 419.32 29.6358C419.32 29.931 419.161 30.0905 418.919 30.0905C418.623 30.0905 418.446 29.689 418.062 29.252C417.679 28.8151 417.259 28.4135 416.462 27.8408L416.669 27.5455H416.675Z" fill="white"/>
<path d="M461.201 37.4537C461.201 40.1286 458.898 41.9649 455.774 41.9649C452.651 41.9649 450.318 40.4297 450.318 37.6486C450.318 35.5937 451.682 34.2534 454.286 32.9661C451.907 31.7025 450.915 30.0905 450.915 28.2305C450.915 25.4789 453.094 23.7902 455.822 23.7902C458.55 23.7902 460.356 25.5025 460.356 27.953C460.356 29.317 459.565 30.9054 457.062 32.3166C459.937 33.6806 461.201 35.1154 461.201 37.4478V37.4537ZM459.317 37.625C459.317 35.9893 458.302 34.8497 455.101 33.3617C453.141 34.525 452.178 35.5937 452.178 37.4537C452.178 39.5617 453.613 40.9966 455.822 40.9966C458.03 40.9966 459.317 39.5617 459.317 37.625ZM456.241 31.9505C458 30.7341 458.697 29.6181 458.697 28.0061C458.697 26.2465 457.658 24.8058 455.774 24.8058C454.139 24.8058 452.698 25.9218 452.698 27.7286C452.698 29.2402 453.442 30.6278 456.241 31.9446V31.9505Z" fill="white"/>
<path d="M464.945 37.495C465.99 42.4432 463.032 41.9176 463.882 40.595C464.372 40.0222 464.65 38.9062 464.668 37.495H464.945ZM471.913 35.824C471.789 35.9657 471.582 36.0306 471.234 36.0838C471.057 39.5144 470.608 41.2917 469.911 41.8822C469.509 42.2483 468.954 42.39 468.358 42.39C468.358 42.1125 468.305 41.835 468.134 41.6756C467.957 41.5161 467.49 41.398 467.035 41.3095V41.0142C467.555 41.0497 468.376 41.1205 468.689 41.1205C468.966 41.1205 469.108 41.0851 469.261 40.9611C469.698 40.5773 470.047 38.9594 470.218 35.9598H465.849V36.5148C465.849 36.6034 465.518 36.8809 464.992 36.8809H464.833V27.7345L466.067 28.26H469.757L470.525 27.3566C470.525 27.3566 471.381 28.0002 471.919 28.508C471.865 28.6969 471.712 28.7855 471.464 28.7855H468.517V30.6337H469.722L470.366 29.7775C470.366 29.7775 471.169 30.4034 471.617 30.8581C471.582 31.047 471.411 31.1356 471.181 31.1356H468.517V33.0192H469.651L470.313 32.1807C470.313 32.1807 471.098 32.7889 471.564 33.2613C471.511 33.4503 471.358 33.5388 471.127 33.5388H468.517V35.452H470.053L470.661 34.8083L471.895 35.8181L471.913 35.824ZM465.973 37.3238C467.644 39.5558 466.581 41.4157 465.866 40.5477C466.055 39.538 465.919 38.2331 465.707 37.3946L465.967 37.3238H465.973ZM465.849 28.7914V30.6396H467.537V28.7914H465.849ZM467.537 31.1415H465.849V33.0251H467.537V31.1415ZM465.849 35.4638H467.537V33.5506H465.849V35.4638ZM467 37.0344C469.232 38.7409 468.34 40.4828 467.573 39.7152C467.573 38.9121 467.136 37.8139 466.77 37.1348L466.994 37.0285L467 37.0344ZM468.098 36.6506C470.537 37.5068 469.787 39.2605 468.972 38.6169C468.866 38.0087 468.364 37.2234 467.892 36.7864L468.098 36.6447V36.6506ZM475.273 34.336C476.005 37.5777 477.605 40.5537 480.114 41.7759L480.079 41.9649C479.642 42.0535 479.258 42.4018 479.105 42.9746C476.684 41.2504 475.515 38.2862 474.924 34.336H473.826C473.755 37.3001 473.318 40.6599 470.726 42.9923L470.466 42.8152C472.485 40.2053 472.728 36.875 472.728 33.5506V27.7522L474.033 28.3072H477.847L478.455 27.6282L479.831 28.691C479.742 28.8328 479.447 28.9686 479.116 29.0217V34.9442C479.099 35.0504 478.526 35.3102 478.178 35.3102H478.018V34.336H475.267H475.273ZM473.826 33.8163H478.024V28.815H473.826V33.8163Z" fill="white"/>
<path d="M484.727 31.1357C485.642 30.8641 486.51 30.7164 487.526 30.7164C490.945 30.7164 493.277 32.6768 493.277 36.1724C493.277 39.668 490.85 41.9709 487.106 41.9709C484.479 41.9709 482.719 40.7781 482.146 38.3985C482.347 37.8553 482.767 37.5777 483.31 37.5777C484.006 37.5777 484.302 37.9261 484.626 39.0894L485.122 40.7014C485.742 40.8726 486.309 40.973 486.959 40.973C489.758 40.973 491.299 39.1897 491.299 36.4145C491.299 33.6393 489.586 32.0037 486.959 32.0037C486.044 32.0037 485.122 32.1277 484.254 32.4229L483.558 32.2753L484.125 24.1681H492.828V26.0281H485.093L484.721 31.1357H484.727Z" fill="white"/>
<path d="M500.013 40.1581C500.881 39.9515 501.826 39.7035 502.783 39.4614L502.854 39.7212C501.371 40.3471 499.37 41.2033 496.707 42.213C496.654 42.4019 496.482 42.5614 496.323 42.6145L495.732 41.1501C496.01 41.097 496.376 41.0261 496.831 40.9257V34.7966L498.366 34.9561C498.331 35.1509 498.177 35.3044 497.829 35.3576V40.7073L498.945 40.4475V32.9425H497.864V33.4326C497.864 33.5212 497.516 33.781 496.978 33.781H496.801V27.6873L498.071 28.2424H500.681L501.289 27.581L502.647 28.6085C502.523 28.7502 502.245 28.886 501.915 28.9568V33.2437C501.879 33.3323 501.36 33.5566 501.011 33.5566H500.852V32.9484H500.013V35.6646H500.692L501.425 34.6903C501.425 34.6903 502.263 35.3694 502.765 35.8949C502.712 36.0839 502.558 36.1724 502.31 36.1724H500.013V40.1818V40.1581ZM497.852 32.4052H500.846V28.7325H497.852V32.4052ZM510.553 29.4587C510.412 29.6182 510.24 29.6654 509.821 29.6831C509.248 31.0058 508.463 32.2458 507.453 33.3559C508.67 34.3833 510.223 35.1863 512.171 35.706L512.118 35.8949C511.681 36.0189 511.315 36.2964 511.215 36.8338C509.331 36.1193 507.938 35.1627 506.857 33.9759C505.983 34.8321 504.944 35.6115 503.757 36.2728L504.802 36.6921H508.841L509.396 36.0307L510.648 37.005C510.524 37.129 510.388 37.2294 510.022 37.2825V42.5614C510.022 42.6499 509.585 42.9097 509.065 42.9097H508.888V41.7406H504.601V42.5968C504.601 42.6854 504.253 42.9452 503.68 42.9452H503.503V36.3968C502.859 36.7452 502.163 37.0404 501.413 37.318L501.236 37.0581C503.255 36.1193 504.962 34.8084 506.272 33.2791C505.7 32.5292 505.227 31.6966 504.826 30.7873C504.094 31.797 503.273 32.6532 502.369 33.2791L502.127 33.0724C503.45 31.7144 504.69 29.4469 505.387 26.9788L507.075 27.5692C506.987 27.7582 506.78 27.8999 506.396 27.8822C506.237 28.2837 506.066 28.6675 505.877 29.0336H508.575L509.325 28.3191L510.547 29.4528L510.553 29.4587ZM504.613 37.2294V41.2505H508.9V37.2294H504.613ZM505.641 29.5296C505.463 29.8426 505.274 30.1378 505.103 30.4153C505.558 31.2538 506.095 32.0332 506.774 32.7123C507.542 31.7203 508.15 30.6397 508.605 29.5237H505.641V29.5296Z" fill="white"/>
<path d="M518.27 27.6518C518.182 27.8467 517.975 27.9648 517.609 27.9471C517.036 28.8682 516.339 29.8779 515.696 30.6278C516.948 31.6553 516.269 32.8775 515.436 32.2812C515.247 31.4958 514.497 30.5393 513.854 29.9842L514.031 29.8425C514.568 30.0019 514.987 30.1732 515.318 30.3798C515.719 29.441 516.192 28.1301 516.552 27.0023L518.276 27.6459L518.27 27.6518ZM513.883 41.4099C514.338 40.223 514.739 38.4988 514.91 36.8809L516.481 37.2648C516.41 37.4891 516.221 37.6486 515.873 37.6486C515.471 39.0775 514.899 40.5773 514.166 41.5516L513.889 41.4099H513.883ZM518.27 32.8067C521.299 34.5309 520.237 36.692 519.245 35.8004C519.209 35.5051 519.138 35.1745 519.02 34.8438C518.654 34.9147 518.253 35.0032 517.798 35.0859V42.6085C517.798 42.6971 517.414 42.9569 516.877 42.9569H516.717V35.2749C516.162 35.3811 515.53 35.4815 514.869 35.5878C514.745 35.8122 514.592 35.9185 514.414 35.9539L513.924 34.6312C514.308 34.6312 514.863 34.6135 515.542 34.5958C516.552 32.9248 517.774 30.6574 518.518 29.0217L520.136 29.7716C520.03 29.9488 519.788 30.0669 519.439 30.0137C518.619 31.2833 517.278 33.1137 516.026 34.5781C516.883 34.5427 517.857 34.5072 518.867 34.4541C518.625 33.8813 518.312 33.3204 518.028 32.9012L518.253 32.7949L518.27 32.8067ZM518.583 36.7274C521.282 38.6937 520.154 40.8017 519.209 39.8628C519.209 38.9063 518.754 37.6308 518.353 36.816L518.577 36.7274H518.583ZM524.21 36.8987C524.069 37.0581 523.915 37.0935 523.531 37.1053C522.923 39.0716 521.683 40.9375 519.457 42.0889L519.298 41.8291C520.933 40.66 521.961 38.8649 522.415 37.0227H520.136L519.977 36.5149H522.362L523.024 35.8712L524.21 36.8987ZM529.973 36.2019C529.903 36.3436 529.661 36.4617 529.33 36.3436C528.793 36.7983 527.83 37.495 526.927 38.0147C527.848 39.3727 529.017 40.2112 530.251 40.8194L530.216 41.0261C529.779 41.1146 529.466 41.4807 529.294 42.0181C527.293 40.536 525.952 38.6583 525.321 34.8733V41.2682C525.321 42.1539 525.132 42.7857 523.667 42.9569C523.649 42.6263 523.561 42.3133 523.354 42.1362C523.112 41.9472 522.693 41.7878 521.978 41.6992V41.4394C521.978 41.4394 523.579 41.5634 523.909 41.5634C524.187 41.5634 524.258 41.4748 524.258 41.2327V34.4541H522.167V34.9265C522.167 35.0328 521.801 35.2571 521.246 35.2571H521.087V28.4667L522.356 29.0217H523.59C523.732 28.4313 523.903 27.5928 524.027 27.0023L525.84 27.3684C525.769 27.6105 525.563 27.7522 525.214 27.7522C524.937 28.1183 524.535 28.6084 524.205 29.0217H527.529L528.084 28.3427L529.318 29.317C529.212 29.441 529.041 29.5236 528.674 29.5945V34.7848C528.674 34.8733 528.273 35.1154 527.753 35.1154H527.576V34.4541H525.486C525.763 35.7768 526.2 36.8573 526.738 37.7312C527.417 36.9459 528.22 35.8299 528.586 35.1863L529.962 36.196L529.973 36.2019ZM522.167 29.5118V31.4781H527.582V29.5118H522.167ZM527.582 33.9522V31.9859H522.167V33.9522H527.582Z" fill="white"/>
<path d="M540.083 31.36C540.083 31.36 540.986 32.1099 541.547 32.6296C541.494 32.8185 541.34 32.9071 541.092 32.9071H537.502V34.1766C541.86 36.0425 541.039 38.6701 539.817 37.8021C539.522 36.7393 538.423 35.4166 537.502 34.525V42.5731C537.502 42.6794 537.101 42.9569 536.563 42.9569H536.374V34.8911C535.258 36.9105 533.729 38.6878 531.845 40.0991L531.621 39.857C533.54 38.0265 535.052 35.4166 535.961 32.9071H532.288L532.147 32.3993H536.38V29.2284C535.04 29.4882 533.593 29.7008 532.217 29.8189L532.147 29.506C534.827 28.9982 538.016 27.9058 539.622 27.0142L541.069 28.2837C540.909 28.4431 540.579 28.4431 540.165 28.2837C539.433 28.5258 538.512 28.7738 537.52 28.9982V32.3934H539.28L540.1 31.3482L540.083 31.36ZM543.2 39.0598C543.2 39.2193 542.728 39.4613 542.315 39.4613H542.108V28.5081L543.832 28.697C543.779 28.9391 543.625 29.1162 543.206 29.1694V39.0657L543.2 39.0598ZM547.623 27.5456C547.57 27.7877 547.399 27.9471 546.979 28.0003V41.2387C546.979 42.1952 546.773 42.7739 545.113 42.9451C545.043 42.579 544.936 42.2838 544.73 42.1067C544.434 41.9 543.962 41.7583 543.147 41.6343V41.3745C543.147 41.3745 545.048 41.5339 545.415 41.5339C545.781 41.5339 545.869 41.4099 545.869 41.1324V27.3389L547.629 27.5456H547.623Z" fill="white"/>
<path d="M564.872 28.6615C564.748 28.8209 564.435 28.9744 564.051 29.063V41.2386C564.051 42.1774 563.88 42.7561 562.185 42.9273C562.132 42.5612 562.026 42.2483 561.784 42.0889C561.524 41.8999 561.052 41.7405 560.231 41.6342V41.3567C560.231 41.3567 562.097 41.5161 562.481 41.5161C562.811 41.5161 562.9 41.3921 562.9 41.1146V37.0226H558.424V42.4372C558.424 42.5258 558.058 42.8033 557.468 42.8033H557.29V37.0226H552.933C552.637 39.1837 551.852 41.3272 549.986 42.9451L549.744 42.7679C551.746 40.1875 552.006 36.9163 552.006 33.586V27.699L553.346 28.2541H562.717L563.325 27.4865L564.86 28.6556L564.872 28.6615ZM557.296 36.5148V32.8539H553.151V33.5683C553.151 34.5072 553.133 35.4992 553.009 36.5148H557.296ZM553.151 28.7796V32.3342H557.296V28.7796H553.151ZM558.43 28.7796V32.3342H562.906V28.7796H558.43ZM562.906 36.5148V32.8539H558.43V36.5148H562.906Z" fill="white"/>
<path d="M582.083 27.2504C582.083 27.2504 583.093 28.018 583.701 28.6085C583.665 28.7974 583.512 28.886 583.264 28.886H580.967V41.1678C580.967 42.089 580.742 42.7857 578.877 42.9629C578.841 42.5968 578.688 42.2838 578.386 42.1244C578.02 41.9177 577.483 41.7583 576.438 41.6343V41.3745C576.438 41.3745 578.859 41.5516 579.331 41.5516C579.715 41.5516 579.839 41.4099 579.839 41.097V28.886H567.888L567.746 28.3664H581.173L582.077 27.2504H582.083ZM577.017 32.2694C576.893 32.4111 576.615 32.5469 576.284 32.6178V38.5048C576.267 38.6111 575.694 38.8886 575.31 38.8886H575.151V37.5482H570.882V39.1838C570.882 39.2901 570.445 39.5499 569.978 39.5499H569.789V31.366L570.976 31.9033H574.997L575.605 31.2065L577.017 32.2694ZM575.151 37.0227V32.4052H570.882V37.0227H575.151Z" fill="white"/>
<path d="M590.763 28.6617C594.754 30.2146 593.916 32.7359 592.694 31.9034C592.587 31.555 592.381 31.1535 592.138 30.7519C590.763 31.0295 588.932 31.3955 586.547 31.8148C586.458 32.0392 586.287 32.1454 586.11 32.1809L585.555 30.7696C586.062 30.7696 586.789 30.7342 587.698 30.6634C588.082 29.5119 588.483 28.0535 588.708 26.9729L590.591 27.4098C590.521 27.6165 590.314 27.7759 589.966 27.7759C589.564 28.5967 588.92 29.6891 588.277 30.6338C589.357 30.5807 590.609 30.4744 591.92 30.3917C591.501 29.8013 590.999 29.2226 590.562 28.8093L590.769 28.6676L590.763 28.6617ZM591.896 32.4053L593.361 33.5213C593.254 33.6453 592.959 33.7988 592.629 33.8519V41.3273C592.629 42.2485 592.469 42.8094 591.046 42.9452C591.028 42.5968 590.94 42.2839 590.769 42.1067C590.562 41.9119 590.249 41.7761 589.67 41.6875V41.41C589.67 41.41 590.893 41.5163 591.188 41.5163C591.448 41.5163 591.518 41.4277 591.518 41.1856V38.6938H587.928V42.526C587.928 42.65 587.491 42.9275 587.025 42.9275H586.848V32.5647L588.017 33.1197H591.341L591.896 32.4053ZM587.922 33.6393V35.6233H591.513V33.6393H587.922ZM591.513 38.186V36.1311H587.922V38.186H591.513ZM596.266 34.4601C594.908 34.4601 594.648 34.2003 594.648 33.3264V27.1796L596.284 27.3685C596.266 27.5752 596.095 27.7523 595.776 27.8055V30.6102C597.276 29.9666 598.893 28.9215 599.732 28.1538L601.108 29.1281C600.966 29.3053 600.689 29.3171 600.269 29.2167C599.224 29.7717 597.429 30.5394 595.776 30.9586V33.0843C595.776 33.3618 595.829 33.4504 596.473 33.4504H598.126C598.858 33.4504 599.466 33.4504 599.679 33.415C599.868 33.3973 599.956 33.3618 600.027 33.2437C600.151 33.0194 600.34 32.234 600.517 31.4133H600.742L600.795 33.2969C601.179 33.4209 601.285 33.539 601.285 33.7515C601.285 34.2889 600.73 34.466 598.079 34.466H596.266V34.4601ZM600.954 41.4277C601.338 41.5871 601.444 41.7052 601.444 41.9355C601.444 42.4551 600.872 42.65 598.167 42.65H596.301C594.926 42.65 594.648 42.3725 594.648 41.4631V35.0683L596.319 35.2572C596.284 35.4639 596.112 35.6411 595.782 35.6942V38.6229C597.335 37.9085 598.988 36.757 599.785 35.9245L601.267 36.881C601.143 37.0405 600.866 37.07 600.446 36.9873C599.348 37.6664 597.518 38.5049 595.776 38.989V41.2387C595.776 41.5163 595.847 41.6048 596.508 41.6048H598.214C598.964 41.6048 599.573 41.6048 599.815 41.5871C600.004 41.5694 600.092 41.5163 600.145 41.3805C600.287 41.1384 600.476 40.2999 600.665 39.3965H600.872L600.942 41.4336L600.954 41.4277Z" fill="white"/>
<path d="M607.904 28.1066C608.182 28.0003 608.601 27.8999 608.931 27.8999C609.386 27.8999 609.906 28.0062 610.201 28.1951C610.496 28.3723 610.425 28.6852 609.782 30.9113C611.453 30.3917 611.801 29.9725 612.132 29.9725C612.498 29.9725 612.775 30.2146 612.775 30.498C612.775 30.8109 612.374 31.053 612.185 31.1593C611.648 31.4368 610.603 31.8029 609.433 32.045C608.825 33.9286 607.567 37.129 606.139 39.2016C605.896 39.5499 605.684 39.8275 605.353 39.8275C605.005 39.8275 604.845 39.4614 604.845 39.1484C604.845 38.8709 604.934 38.6111 605.158 38.31C606.221 36.8987 607.686 34.7553 608.465 32.2104C607.993 32.2812 607.526 32.3166 607.089 32.3166C605.784 32.3166 605.194 31.8266 604.633 30.5925L604.946 30.3504C605.696 30.9763 606.079 31.3601 607.278 31.3601C607.786 31.3601 608.323 31.2715 608.76 31.1711C608.92 30.4921 609.038 29.7422 609.073 29.2875C609.091 28.9214 609.002 28.7797 608.707 28.6616C608.465 28.5376 608.134 28.4549 607.886 28.3841V28.1066H607.904ZM614.139 31.1003C614.996 30.9763 615.881 31.0471 616.543 31.3069C617.606 31.7085 618.143 32.3875 618.143 33.0843C618.143 33.4858 617.966 33.7102 617.635 33.7102C617.234 33.7102 616.938 33.4326 616.188 33.4858C615.58 33.5566 614.954 33.7633 614.571 34.1648C614.187 34.5486 614.116 35.1037 614.134 35.7355C614.151 36.261 614.323 37.3534 614.464 38.3985C615.598 38.6583 616.519 39.1661 617.18 39.6149C618.019 40.1522 618.379 40.6423 618.379 41.0793C618.379 41.4277 618.22 41.6343 617.942 41.6343C617.611 41.6343 617.405 41.3391 617.021 40.9907C616.36 40.3471 615.557 39.7684 614.565 39.4023C614.582 39.6621 614.6 39.8924 614.6 40.0991C614.6 41.5458 613.537 42.3842 611.76 42.3842C609.983 42.3842 608.973 41.4926 608.973 40.4829C608.973 39.1602 610.384 38.186 612.699 38.186C612.976 38.186 613.236 38.2037 613.484 38.2214C613.431 37.4538 613.342 36.6684 613.342 35.9894C613.342 35.0151 613.62 34.3715 614.181 33.8105C614.718 33.2378 615.503 32.9544 616.112 32.6945C616.478 32.5056 616.407 32.2753 616.112 32.0509C615.622 31.6848 614.907 31.5313 614.11 31.5313L614.128 31.0944L614.139 31.1003ZM613.567 39.1307C613.094 39.0421 612.61 38.989 612.067 38.989C610.484 38.989 609.646 39.6503 609.646 40.2762C609.646 40.9021 610.236 41.3745 611.512 41.3745C613.183 41.3745 613.567 40.536 613.567 39.5086V39.1248V39.1307Z" fill="white"/>
<path d="M622.419 29.5355C622.767 30.0551 623.009 30.492 623.517 30.492C624.633 30.492 631.388 29.7598 632.398 29.6004C632.764 29.5473 632.923 29.3052 633.219 29.3052C633.691 29.3052 634.925 30.368 634.925 30.8581C634.925 31.2596 634.228 31.3305 633.844 31.6257C633.095 32.1808 631.548 33.2968 629.959 34.1884C629.959 34.277 629.941 34.3655 629.906 34.4659C628.601 38.0206 626.788 40.4592 623.116 42.3369L622.838 41.9708C626.286 39.8628 628.43 35.7177 628.43 34.5309C628.43 34.0113 627.786 33.7455 627.019 33.4857L627.107 33.1019C627.615 33.1019 627.91 33.1019 628.223 33.1728C628.778 33.2613 629.268 33.4326 629.581 33.6452C630.922 32.7063 632.333 31.5195 632.841 30.805C633.065 30.4743 633 30.4035 632.634 30.4035C631.796 30.4035 626.853 31.1002 624.899 31.484C624.22 31.6257 624.202 31.9387 623.783 31.9387C623.364 31.9387 622.549 31.2419 622.283 30.7046C622.141 30.4094 622.106 30.0433 622.059 29.6417L622.425 29.5355H622.419Z" fill="white"/>
<path d="M640.971 28.1893C641.283 28.1893 641.632 28.1893 642.016 28.2601C642.695 28.4195 643.616 28.9392 643.616 29.2521C643.616 29.5473 643.374 29.7245 643.114 30.1555C642.919 30.4685 642.73 30.7991 642.523 31.0944C642.647 31.1121 642.748 31.1121 642.854 31.1121C643.693 31.1121 645.83 30.87 646.32 30.7814C646.793 30.6751 646.911 30.3799 647.212 30.3799C647.631 30.3799 648.729 31.0944 648.729 31.5491C648.729 31.8974 648.157 32.0037 647.909 32.4525C645.523 36.7925 641.986 40.3766 637.073 42.4138L636.814 42.03C641.289 39.6976 645.381 35.2041 646.739 31.7557C646.828 31.549 646.757 31.4959 646.598 31.4959C646.214 31.4959 644.437 31.7734 643.811 31.8974C643.445 31.986 643.079 32.1218 642.836 32.1218C642.642 32.1218 642.364 31.9447 642.087 31.7026C640.711 33.5508 638.969 35.1155 636.932 36.2315L636.672 35.8654C639.388 33.9169 641.951 30.3622 641.951 29.3525C641.951 29.0573 641.496 28.7797 640.888 28.514L640.976 28.1833L640.971 28.1893Z" fill="white"/>
<path d="M660.121 36.3082C661.219 35.1745 662.193 33.9404 662.731 32.9838C662.855 32.7771 662.784 32.6531 662.542 32.6886C661.585 32.848 658.916 33.6983 657.352 34.2238C657.281 35.759 657.228 37.3946 657.245 38.4221C657.281 39.851 657.452 39.9927 659.578 39.9927C661.999 39.9927 662.802 39.6089 663.203 39.6089C663.676 39.6089 664.372 39.8156 664.372 40.2702C664.372 40.5832 664.042 40.7426 663.569 40.8076C662.784 40.967 661.255 41.1028 660.103 41.1028C657.369 41.1028 656.324 40.9434 656.289 38.6464C656.253 37.4419 656.306 35.7177 656.342 34.5722C655.503 34.8497 654.376 35.2512 653.643 35.5642C653.017 35.8417 653 36.0897 652.51 36.0897C652.108 36.0897 651.152 35.3752 650.927 34.8851C650.803 34.643 650.803 34.2947 650.821 33.964L651.098 33.8577C651.447 34.3773 651.724 34.7257 652.161 34.7257C652.769 34.7257 655.173 34.0112 656.36 33.6451C656.395 32.2162 656.448 30.4743 656.395 29.7775C656.36 29.3406 655.84 29.2402 654.984 29.1162L654.966 28.7855C655.438 28.6261 655.887 28.5612 656.253 28.5612C656.879 28.5612 658.013 29.2225 658.013 29.6063C658.013 29.9901 657.665 30.2145 657.594 30.74C657.523 31.2478 657.452 32.2221 657.387 33.3499C658.887 32.9129 661.095 32.3048 662.123 32.0095C662.63 31.8678 662.748 31.5549 663.008 31.5549C663.516 31.5549 664.697 32.4937 664.697 32.913C664.697 33.279 664.189 33.3322 663.794 33.7337C663.061 34.4659 661.827 35.6646 660.416 36.6093L660.121 36.3141V36.3082Z" fill="white"/>
<path d="M668.186 32.9484L668.363 32.5646C669.248 32.789 669.898 32.9839 670.695 33.2968C671.758 33.7338 672.402 34.3597 672.402 35.021C672.402 35.2985 672.224 35.5583 671.894 35.5583C671.356 35.5583 671.073 34.9324 670.17 34.2534C669.508 33.7338 668.918 33.3322 668.186 32.9484ZM681.04 31.9742L681.442 32.234C679.458 35.7178 675.779 38.7646 671.929 40.8903C671.581 41.097 671.392 41.5516 670.937 41.5516C670.4 41.5516 669.302 40.8195 668.918 40.2644C668.711 39.9869 668.552 39.361 668.534 39.0953L668.811 38.9358C669.284 39.4909 669.821 40.0873 670.412 40.0873C671.598 40.0873 677.899 36.3259 681.034 31.9683L681.04 31.9742ZM670.518 29.6064L670.707 29.2048C671.368 29.382 672.154 29.6418 672.903 29.9547C674.09 30.5452 674.61 31.1239 674.61 31.7321C674.61 32.045 674.421 32.3048 674.102 32.3048C673.612 32.3048 673.264 31.6081 672.343 30.8582C671.752 30.3563 671.02 29.8662 670.512 29.6064H670.518Z" fill="white"/>
<path d="M692.608 31.2773C692.939 31.3305 693.181 31.419 693.429 31.5726C693.901 31.9032 694.403 32.5468 694.403 32.9129C694.403 33.279 693.948 33.3676 693.287 33.716C692.053 34.3242 689.597 35.4579 686.721 36.2786C686.686 37.3238 686.668 38.2449 686.668 38.6996C686.668 40.406 687.052 40.53 689.142 40.53C691.893 40.53 693.08 39.975 693.671 39.975C694.492 39.975 695.011 40.1698 695.011 40.5655C695.011 40.9138 694.769 41.0733 694.438 41.1914C693.724 41.398 691.982 41.6106 689.266 41.6106C686.148 41.6106 685.693 41.0851 685.676 38.6287C685.658 37.0758 685.865 31.3482 685.782 30.5274C685.711 30.0373 685.327 29.9369 684.424 29.8129L684.406 29.5C684.808 29.3937 685.262 29.2579 685.64 29.2756C686.355 29.311 687.365 29.9724 687.365 30.3916C687.365 30.7223 687.034 30.7931 686.981 31.3305C686.892 32.0804 686.804 33.9108 686.739 35.5819C689.106 34.7434 691.439 33.5979 692.555 32.7417C692.85 32.5173 692.903 32.3756 692.761 32.0804C692.673 31.8737 692.502 31.6611 692.342 31.5076L692.602 31.2832L692.608 31.2773ZM693.671 29.3287C694.545 29.7126 695.188 30.1318 695.619 30.551C696.021 30.9703 696.21 31.2655 696.192 31.5962C696.192 31.8914 695.985 32.104 695.72 32.0685C695.46 32.0508 695.3 31.6493 694.952 31.2124C694.604 30.74 694.131 30.1849 693.417 29.6299L693.659 29.3347L693.671 29.3287ZM695.153 28.0238C696.027 28.3722 696.688 28.7383 697.101 29.1044C697.556 29.4882 697.71 29.8188 697.692 30.1849C697.692 30.4802 697.533 30.6396 697.273 30.6396C696.995 30.6219 696.818 30.2204 696.452 29.7657C696.068 29.3288 695.684 28.8918 694.917 28.319L695.141 28.0238H695.153Z" fill="white"/>
<path d="M700.645 30.0019V29.6535C700.993 29.5472 701.359 29.4587 701.637 29.4587C702.28 29.4587 703.343 30.0846 703.343 30.5215C703.343 30.8522 703.136 31.0293 703.083 31.6729C703.03 32.4228 703.066 36.255 703.066 36.9695C703.066 37.6308 702.823 37.8434 702.51 37.8434C702.127 37.8434 701.831 37.3061 701.831 36.6565C701.831 36.1842 701.973 35.5051 702.009 34.0762C702.009 33.2731 701.973 31.5667 701.902 30.923C701.867 30.5038 701.849 30.368 701.554 30.244C701.294 30.12 701.017 30.0728 700.65 30.0019H700.645ZM702.646 42.5967L702.422 42.2129C705.817 40.4179 707.459 38.0855 707.665 34.5131C707.754 32.9307 707.789 31.4486 707.718 30.244C707.683 29.9488 707.648 29.7067 707.335 29.5295C707.14 29.4232 706.744 29.3524 706.289 29.3051L706.272 28.9568C706.656 28.7796 707.14 28.6261 707.459 28.6261C708.12 28.6261 709.271 29.3051 709.271 29.6712C709.271 30.0373 708.976 30.1436 708.941 30.6987C708.905 31.7261 708.834 33.4857 708.781 34.5663C708.586 38.6051 706.585 41.1146 702.652 42.5967H702.646Z" fill="white"/>
<path d="M713.918 32.6532C714.249 33.1255 714.597 33.5743 715.052 33.5743C716.239 33.5743 720.662 32.913 723.868 32.6354C725.084 32.5114 725.368 32.3225 725.627 32.3225C726.342 32.3225 727.334 32.7063 727.334 33.2082C727.334 33.4857 727.228 33.6451 726.844 33.6451C726.566 33.6451 725.905 33.5389 725.049 33.5389C724.263 33.5389 722.799 33.5743 721.199 33.7278C721.671 33.9876 722.067 34.3006 722.067 34.584C722.067 34.9324 721.665 35.0032 721.476 35.5229C720.868 37.3533 719.752 40.2585 715.572 42.5613L715.223 42.1952C719.422 39.4613 720.396 35.4874 720.396 34.5486C720.396 34.3065 720.307 34.0939 720.101 33.8518C718.654 34.029 717.036 34.2888 716.51 34.4246C715.973 34.584 715.518 34.773 715.117 34.7907C714.715 34.8084 713.93 34.1116 713.741 33.6215C713.653 33.4149 713.635 33.1314 713.617 32.7653L713.912 32.6413L713.918 32.6532ZM716.581 28.9804C717.243 29.4705 717.697 29.6595 718.27 29.6595C719.333 29.6595 720.532 29.4528 721.406 29.2579C722.433 29.0335 722.657 28.7501 723.023 28.7501C723.773 28.7501 724.346 29.0099 724.346 29.4292C724.346 29.689 724.151 29.8484 723.596 29.9488C722.256 30.1909 719.817 30.6101 718.264 30.6101C717.379 30.6101 716.888 30.1023 716.316 29.1989L716.575 28.9745L716.581 28.9804Z" fill="white"/>
<path d="M733.569 31.8324C733.865 31.8324 734.16 31.8324 734.491 31.9564C735.063 32.1453 735.725 32.7594 735.725 33.161C735.725 33.4739 735.482 33.4562 735.116 33.8223C734.626 34.3596 733.983 35.0741 733.15 35.8594C733.534 36.1192 733.829 36.3495 733.829 36.5562C733.829 36.7451 733.705 36.94 733.687 37.2884C733.617 39.1838 733.705 41.156 733.705 41.9059C733.705 42.4255 733.546 42.6381 733.203 42.6381C732.695 42.6381 732.418 41.9945 732.418 41.4689C732.418 41.2446 732.542 40.9788 732.577 40.5301C732.701 39.5204 732.737 37.5364 732.719 36.94C732.701 36.7156 732.666 36.5562 732.577 36.3849C731.721 37.1171 729.826 38.5815 727.511 39.4672L727.334 39.1543C731.024 37.0817 734.231 33.5093 734.231 32.7949C734.231 32.5173 733.847 32.2398 733.463 32.0627L733.569 31.8383V31.8324Z" fill="white"/>
<path d="M223.146 14.1832V45" stroke="white" stroke-width="0.43" stroke-miterlimit="10"/>
<path d="M434.672 14.1832V45" stroke="white" stroke-width="0.43" stroke-miterlimit="10"/>
<path d="M2.94569 15.2638C2.94569 15.2638 3.2055 15.4646 3.42988 15.6653C3.60112 15.3642 3.75464 15.0571 3.87864 14.7619L4.5754 15.0926C4.52226 15.187 4.4455 15.2166 4.25064 15.1752C3.9495 15.7598 3.54207 16.3857 3.03426 16.988H3.49483L3.84321 16.5451C3.84321 16.5451 4.24474 16.8522 4.48092 17.0943C4.45731 17.1769 4.38645 17.2183 4.28016 17.2183H2.8276C2.55008 17.5194 2.24893 17.8205 1.92417 18.0981H3.14645L3.42988 17.7969L4.03216 18.2693C3.98493 18.3224 3.85502 18.3933 3.7074 18.4228V21.2217C3.7015 21.2689 3.4535 21.387 3.29998 21.387H3.22322V20.8556H1.55217V21.3398C1.55217 21.387 1.39865 21.511 1.15656 21.511H1.0798V18.7476C0.796368 18.9424 0.495227 19.1196 0.176371 19.279L0.0996094 19.1727C0.442084 18.9661 0.77275 18.724 1.0798 18.4642V17.8914L1.51675 18.0744C1.81198 17.8028 2.0777 17.5135 2.3257 17.2183H0.253133L0.194085 16.988H1.7057V15.9133H0.495227L0.436179 15.683H1.7057V14.5493L2.47922 14.632C2.4615 14.7383 2.38474 14.815 2.19579 14.8386V15.683H2.62684L2.9516 15.2579L2.94569 15.2638ZM1.64075 18.3343L1.54627 18.411V19.344H3.22322V18.3343H1.64665H1.64075ZM3.22322 20.6253V19.5742H1.55217V20.6253H3.22912H3.22322ZM2.52055 16.988C2.80398 16.6396 3.05198 16.2794 3.27636 15.9133H2.18989V16.988H2.52055ZM7.41558 15.3642C7.35653 15.435 7.24434 15.4468 7.0613 15.4468C6.78968 15.9665 6.27596 16.923 5.92759 17.4249C6.83692 18.0685 7.17939 18.7594 7.17939 19.3794C7.17939 20.1352 6.87825 20.5013 6.05749 20.5426C6.05749 20.3714 6.01616 20.212 5.95711 20.147C5.88625 20.0939 5.6973 20.0466 5.48473 20.0289V19.9049H6.21101C6.30549 19.9049 6.35273 19.899 6.42949 19.8577C6.58301 19.775 6.65977 19.5979 6.65977 19.279C6.65977 18.6944 6.41177 18.0626 5.73273 17.4249C5.95711 16.923 6.29368 15.9605 6.51215 15.311H5.17178V21.3752C5.17178 21.4224 5.01235 21.5582 4.75254 21.5582H4.68169V14.7796L5.26035 15.0807H6.49444L6.8192 14.7619L7.41558 15.3465V15.3642Z" fill="white"/>
<path d="M15.7835 16.1377C15.7304 16.1849 15.6359 16.1967 15.4883 16.2086C15.2698 16.4447 14.886 16.7813 14.5907 16.9644L14.4904 16.9053C14.5967 16.7046 14.7443 16.3857 14.8446 16.1259H9.78429C9.802 16.6278 9.60124 16.9644 9.38867 17.1238C9.19382 17.2655 8.91629 17.2832 8.82772 17.1061C8.75687 16.9466 8.85725 16.7872 9.02258 16.6868C9.32372 16.5038 9.58353 16.0137 9.53039 15.4882H9.6721C9.71934 15.6299 9.74886 15.7598 9.76658 15.8897H13.2445C13.522 15.4882 13.829 14.9331 14.018 14.5139L14.7974 14.8387C14.7561 14.9154 14.6498 14.9627 14.4904 14.939C14.2424 15.2343 13.8586 15.5945 13.4807 15.8897H14.8565L15.1871 15.5531L15.7894 16.1377H15.7835ZM9.93191 14.6261C11.4081 15.1221 10.983 16.1318 10.5047 15.7598C10.4338 15.4055 10.1091 14.939 9.84924 14.6851L9.93191 14.6261ZM14.3664 19.0074L14.9923 19.4798C14.9391 19.5388 14.8151 19.6038 14.6616 19.6451V21.387C14.6557 21.4402 14.4018 21.5582 14.2365 21.5582H14.1597V21.0623H10.363V21.4106C10.363 21.4638 10.1445 21.5701 9.94372 21.5701H9.87286V19.0724L10.4043 19.3204H11.6266C11.7092 19.0369 11.8037 18.6649 11.8569 18.3933H10.8294V18.6118C10.8294 18.659 10.611 18.7653 10.4043 18.7653H10.3334V16.6691L10.8649 16.8994H13.5633L13.8349 16.6219L14.4313 17.0588C14.3841 17.112 14.2719 17.1769 14.1361 17.2006V18.5586C14.1302 18.6059 13.8763 18.7181 13.7168 18.7181H13.6401V18.3933H12.4532C12.2997 18.6767 12.0812 19.0487 11.9041 19.3204H14.0711L14.3546 19.0133L14.3664 19.0074ZM14.1597 20.8261V19.5388H10.363V20.8261H14.1597ZM10.8353 18.163H13.6519V17.1238H10.8353V18.163ZM11.6207 14.4844C12.9788 15.1221 12.4532 16.1141 11.9986 15.6948C11.9809 15.311 11.7447 14.8328 11.5203 14.5375L11.6207 14.4844Z" fill="white"/>
<path d="M17.2173 16.2676C18.8293 16.5097 18.5164 17.5903 17.9672 17.2714C17.8669 16.9349 17.4712 16.5511 17.1465 16.3385L17.2173 16.2676ZM19.408 15.8425C19.101 16.8168 18.5046 18.6532 18.3983 19.0252C18.3392 19.2731 18.2802 19.5093 18.292 19.7042C18.292 20.0408 18.5164 20.4069 18.4869 21.0387C18.4691 21.3634 18.3274 21.5642 18.0617 21.5642C17.9141 21.5642 17.8373 21.4225 17.8196 21.1863C17.92 20.4069 17.8787 19.7869 17.7133 19.6747C17.613 19.5979 17.5067 19.5802 17.3354 19.5684V19.3971H17.672C17.7547 19.3971 17.7901 19.3912 17.8551 19.2436C17.9417 19.0586 18.4101 17.9131 19.2604 15.8071L19.408 15.8425ZM17.8669 14.5907C19.5438 14.8623 19.219 15.996 18.6522 15.6772C18.5341 15.317 18.1267 14.8918 17.796 14.6615L17.8669 14.5907ZM24.055 20.9973C24.2971 21.2571 24.3266 21.3575 24.2558 21.452C24.1082 21.7118 23.624 21.5347 23.2284 21.2985C22.7737 21.0505 22.4017 20.7257 22.1006 20.3242C21.1912 20.9206 20.1579 21.263 18.9651 21.511L18.9179 21.3634C20.0162 21.0328 20.9964 20.6076 21.8408 19.9404C21.5987 19.533 21.4156 19.0783 21.268 18.5646L19.1895 18.7831L19.1128 18.5646L21.2089 18.3402C21.1322 18.0332 21.0613 17.7025 21.0141 17.3541L19.532 17.4958L19.4493 17.2773L20.9846 17.1297C20.9432 16.8286 20.9137 16.5215 20.9019 16.2027L19.4611 16.3267L19.3785 16.12L20.8901 15.9901C20.8606 15.5118 20.8488 15.0099 20.8488 14.4962L21.6695 14.5966C21.6518 14.697 21.5868 14.7796 21.392 14.8151C21.3861 15.1989 21.392 15.5768 21.4097 15.9488L22.9745 15.8071L23.3228 15.3052C23.3228 15.3052 23.7775 15.6004 24.0609 15.8071C24.055 15.8897 23.9783 15.9488 23.8779 15.9547L21.4156 16.1614C21.4333 16.4802 21.4569 16.7873 21.4924 17.0825L22.9331 16.9408L23.2697 16.4389C23.2697 16.4389 23.7303 16.7341 24.0196 16.9349C24.0137 17.0293 23.9369 17.0825 23.8366 17.0884L21.516 17.3128C21.5632 17.6493 21.6223 17.9859 21.7108 18.293L23.1988 18.1394L23.5354 17.6375C23.5354 17.6375 23.9901 17.9328 24.2735 18.1335C24.2558 18.2162 24.1908 18.2752 24.0905 18.2812L21.7699 18.5232C21.888 18.9248 22.0415 19.2968 22.2246 19.6215C22.567 19.3145 22.8741 18.9484 23.1634 18.541L23.8956 18.9661C23.8366 19.0429 23.7539 19.0665 23.5708 19.0252C23.2402 19.4208 22.8859 19.7514 22.5139 20.0349C22.7678 20.3537 23.0748 20.6076 23.4468 20.7907C23.5945 20.8851 23.6476 20.8851 23.7185 20.7316C23.8188 20.5368 23.9665 20.153 24.0668 19.8341L24.1672 19.8518L24.0432 21.0032L24.055 20.9973ZM21.8939 14.6852C23.4527 14.7855 23.1811 15.8189 22.632 15.5591C22.4903 15.2875 22.1242 14.9332 21.823 14.756L21.8939 14.6852Z" fill="white"/>
<path d="M32.098 19.3677C32.098 19.3677 32.529 19.7042 32.8006 19.9522C32.777 20.029 32.7002 20.0703 32.594 20.0703H29.4703V21.4107C29.4703 21.4402 29.2991 21.5642 29.0452 21.5642H28.9625V20.0703H25.7622L25.7031 19.8519H28.9684V18.978H27.3683V19.22C27.3683 19.2673 27.1498 19.3736 26.949 19.3736H26.8723V16.3031L27.4037 16.557H31.0174L31.289 16.2559L31.8854 16.7164C31.8381 16.7696 31.726 16.8227 31.5842 16.8463V19.1138C31.5783 19.1669 31.3362 19.2968 31.165 19.2968H31.0882V18.9721H29.4763V19.846H31.7378L32.1098 19.3618L32.098 19.3677ZM25.7445 15.5945L25.7031 15.3702H27.8643V14.4963L28.626 14.5789C28.6201 14.6793 28.5492 14.7561 28.3544 14.7797V15.3643H30.0431V14.4904L30.8166 14.5671C30.8107 14.6734 30.7399 14.7502 30.545 14.7738V15.3584H31.7201L32.0802 14.8978C32.0802 14.8978 32.4995 15.2344 32.7357 15.4705C32.718 15.5473 32.653 15.5886 32.5408 15.5886H30.5391V16.1614C30.5391 16.2086 30.362 16.309 30.1199 16.309H30.0372V15.5886H28.3484V16.1909C28.3484 16.25 28.13 16.3326 27.9292 16.3326H27.8524V15.5945H25.7327H25.7445ZM27.3565 16.7814V17.6317H31.0764V16.7814H27.3565ZM31.0764 18.7477V17.862H27.3565V18.7477H31.0764Z" fill="white"/>
<path d="M36.1069 14.7855C36.0656 14.8682 35.977 14.9273 35.8117 14.9155C35.5578 15.3229 35.2507 15.7716 34.9614 16.1023C35.5164 16.557 35.2153 17.1002 34.8433 16.8345C34.7606 16.4861 34.4241 16.061 34.1406 15.813L34.2174 15.7539C34.4595 15.8248 34.6425 15.9015 34.7901 15.9901C34.9673 15.5709 35.174 14.9922 35.3393 14.4962L36.101 14.7796L36.1069 14.7855ZM34.1642 20.8851C34.365 20.3596 34.5421 19.5979 34.6189 18.8775L35.3157 19.0488C35.2861 19.1491 35.1976 19.22 35.044 19.22C34.8669 19.8518 34.613 20.519 34.2882 20.9501L34.1642 20.891V20.8851ZM36.1069 17.0707C37.4473 17.8324 36.9808 18.789 36.5379 18.3992C36.5202 18.2693 36.4907 18.1217 36.4376 17.9741C36.2781 18.0036 36.101 18.045 35.9002 18.0804V21.4166C35.9002 21.452 35.729 21.5701 35.4928 21.5701H35.422V18.169C35.174 18.2162 34.8964 18.2634 34.6012 18.3107C34.5481 18.4111 34.4772 18.4583 34.4004 18.4701L34.182 17.8855C34.3532 17.8855 34.6012 17.8796 34.9023 17.8678C35.3511 17.1297 35.8884 16.1259 36.225 15.3996L36.9454 15.7303C36.8981 15.8071 36.7919 15.8602 36.6383 15.8366C36.2781 16.3975 35.6818 17.2124 35.1267 17.856C35.5046 17.8383 35.9357 17.8265 36.3844 17.8029C36.2781 17.549 36.1364 17.301 36.0124 17.1179L36.1128 17.0707H36.1069ZM36.2486 18.8067C37.4473 19.6806 36.9454 20.6135 36.5261 20.1943C36.5261 19.7691 36.3254 19.2082 36.1482 18.8421L36.2486 18.8008V18.8067ZM38.7404 18.8834C38.6814 18.9543 38.6105 18.9661 38.4393 18.9779C38.1677 19.8518 37.6185 20.6785 36.6324 21.1863L36.5616 21.0682C37.2878 20.5486 37.7425 19.7573 37.9433 18.9366H36.9336L36.8627 18.7122H37.9197L38.2149 18.4288L38.7404 18.8834ZM41.2972 18.5764C41.2676 18.6354 41.1555 18.6945 41.0137 18.6354C40.7716 18.8362 40.3524 19.1432 39.9509 19.3735C40.3583 19.9758 40.8779 20.3478 41.4271 20.6135L41.4094 20.708C41.2145 20.7493 41.0787 20.9088 41.0019 21.1509C40.1162 20.4954 39.5198 19.6629 39.2423 17.9859V20.8202C39.2423 21.2158 39.1597 21.4933 38.5101 21.5701C38.5042 21.4225 38.4629 21.2867 38.3684 21.2099C38.2621 21.1272 38.0732 21.0564 37.7602 21.015V20.897C37.7602 20.897 38.4688 20.9501 38.6164 20.9501C38.7404 20.9501 38.7699 20.9088 38.7699 20.8025V17.8029H37.8429V18.0095C37.8429 18.0568 37.6835 18.1572 37.4355 18.1572H37.3646V15.1457L37.9256 15.3937H38.4747C38.5338 15.1339 38.6164 14.7619 38.6696 14.4962L39.4726 14.6556C39.4431 14.7619 39.3486 14.8269 39.1951 14.8269C39.0711 14.9922 38.8939 15.2048 38.7463 15.3878H40.2225L40.4705 15.0867L41.0196 15.5177C40.9724 15.5709 40.8956 15.6122 40.7362 15.6417V17.9387C40.7362 17.98 40.5591 18.0863 40.3288 18.0863H40.252V17.7911H39.325C39.449 18.3756 39.6438 18.8539 39.88 19.2436C40.1812 18.8952 40.5355 18.4052 40.6949 18.1158L41.3031 18.5646L41.2972 18.5764ZM37.837 15.6122V16.4861H40.2343V15.6122H37.837ZM40.2343 17.5785V16.7046H37.837V17.5785H40.2343Z" fill="white"/>
<path d="M718.121 18.2751L718.251 18.4287C717.354 19.155 716.551 20.265 716.551 21.8888C716.551 23.5126 717.354 24.6227 718.251 25.349L718.121 25.5025C717.082 24.8412 716.043 23.7488 716.043 21.8888C716.043 20.0289 717.076 18.9424 718.121 18.2751Z" fill="white"/>
<path d="M722.414 21.6645L724.959 19.1196L725.183 19.344L722.638 21.8889L725.183 24.4339L724.959 24.6582L722.414 22.1133L719.857 24.6701L719.633 24.4457L722.19 21.8889L719.645 19.344L719.869 19.1196L722.414 21.6645ZM720.217 22.4676C719.899 22.4676 719.639 22.2078 719.639 21.8889C719.639 21.5701 719.899 21.3103 720.217 21.3103C720.536 21.3103 720.796 21.5701 720.796 21.8889C720.796 22.2078 720.536 22.4676 720.217 22.4676ZM721.835 19.6865C721.835 19.3676 722.095 19.1078 722.414 19.1078C722.733 19.1078 722.993 19.3676 722.993 19.6865C722.993 20.0053 722.733 20.2651 722.414 20.2651C722.095 20.2651 721.835 20.0053 721.835 19.6865ZM722.993 24.0855C722.993 24.4043 722.733 24.6641 722.414 24.6641C722.095 24.6641 721.835 24.4043 721.835 24.0855C721.835 23.7666 722.095 23.5068 722.414 23.5068C722.733 23.5068 722.993 23.7666 722.993 24.0855ZM724.616 21.3103C724.935 21.3103 725.195 21.5701 725.195 21.8889C725.195 22.2078 724.935 22.4676 724.616 22.4676C724.298 22.4676 724.038 22.2078 724.038 21.8889C724.038 21.5701 724.298 21.3103 724.616 21.3103Z" fill="white"/>
<path d="M730.444 24.552V24.8236H727.025V24.552L728.413 24.4752C728.419 23.9556 728.431 23.4419 728.431 22.9341V19.4739L727.244 19.7101V19.4089L729.009 18.9484L729.139 19.0487L729.098 20.3478V22.9341C729.098 23.4419 729.104 23.9615 729.116 24.4752L730.444 24.552Z" fill="white"/>
<path d="M731.489 18.2751C732.528 18.9365 733.568 20.0289 733.568 21.8888C733.568 23.7488 732.534 24.8353 731.489 25.5025L731.359 25.349C732.257 24.6227 733.06 23.5126 733.06 21.8888C733.06 20.265 732.257 19.155 731.359 18.4287L731.489 18.2751Z" fill="white"/>
</svg>
