<svg width="20" height="16" viewBox="0 0 20 16" fill="none" xmlns="http://www.w3.org/2000/svg">
<g id="equalizer_filter_filtering_mixer_sorting_icon_123287 (1) 1" clip-path="url(#clip0_2976_4405)">
<path id="Vector" d="M19.9997 2.99996C19.9997 2.77895 19.9119 2.56698 19.7556 2.4107C19.5993 2.25442 19.3874 2.16663 19.1663 2.16663H10.4163C10.1953 2.16663 9.98337 2.25442 9.82709 2.4107C9.67081 2.56698 9.58301 2.77895 9.58301 2.99996C9.58301 3.22097 9.67081 3.43293 9.82709 3.58921C9.98337 3.74549 10.1953 3.83329 10.4163 3.83329H19.1663C19.3874 3.83329 19.5993 3.74549 19.7556 3.58921C19.9119 3.43293 19.9997 3.22097 19.9997 2.99996Z" fill="#333333"/>
<path id="Vector_2" d="M1.66634 3.83334H3.89551C4.09209 4.38935 4.4789 4.85797 4.98757 5.15636C5.49625 5.45476 6.09404 5.56373 6.67528 5.464C7.25653 5.36427 7.78381 5.06228 8.16393 4.61139C8.54404 4.1605 8.75253 3.58974 8.75253 3C8.75253 2.41027 8.54404 1.83951 8.16393 1.38862C7.78381 0.937731 7.25653 0.635735 6.67528 0.536009C6.09404 0.436283 5.49625 0.545248 4.98757 0.843645C4.4789 1.14204 4.09209 1.61066 3.89551 2.16667H1.66634C1.44533 2.16667 1.23337 2.25447 1.07709 2.41075C0.920805 2.56703 0.833008 2.77899 0.833008 3C0.833008 3.22102 0.920805 3.43298 1.07709 3.58926C1.23337 3.74554 1.44533 3.83334 1.66634 3.83334ZM6.24967 2.16667C6.41449 2.16667 6.57561 2.21555 6.71265 2.30711C6.84969 2.39868 6.9565 2.52883 7.01957 2.6811C7.08265 2.83337 7.09915 3.00093 7.06699 3.16258C7.03484 3.32423 6.95547 3.47272 6.83893 3.58926C6.72238 3.7058 6.5739 3.78517 6.41225 3.81733C6.2506 3.84948 6.08304 3.83298 5.93077 3.7699C5.7785 3.70683 5.64835 3.60002 5.55678 3.46298C5.46521 3.32594 5.41634 3.16482 5.41634 3C5.41634 2.77899 5.50414 2.56703 5.66042 2.41075C5.8167 2.25447 6.02866 2.16667 6.24967 2.16667Z" fill="#333333"/>
<path id="Vector_3" d="M19.1666 7.16667H16.1041C15.9075 6.61066 15.5207 6.14204 15.012 5.84365C14.5034 5.54525 13.9056 5.43628 13.3243 5.53601C12.7431 5.63573 12.2158 5.93773 11.8357 6.38862C11.4556 6.83951 11.2471 7.41027 11.2471 8C11.2471 8.58974 11.4556 9.1605 11.8357 9.61139C12.2158 10.0623 12.7431 10.3643 13.3243 10.464C13.9056 10.5637 14.5034 10.4548 15.012 10.1564C15.5207 9.85797 15.9075 9.38935 16.1041 8.83334H19.1666C19.3876 8.83334 19.5996 8.74554 19.7558 8.58926C19.9121 8.43298 19.9999 8.22102 19.9999 8C19.9999 7.77899 19.9121 7.56703 19.7558 7.41075C19.5996 7.25447 19.3876 7.16667 19.1666 7.16667ZM13.7499 8.83334C13.5851 8.83334 13.424 8.78446 13.287 8.6929C13.1499 8.60133 13.0431 8.47118 12.98 8.31891C12.917 8.16664 12.9005 7.99908 12.9326 7.83743C12.9648 7.67578 13.0441 7.52729 13.1607 7.41075C13.2772 7.29421 13.4257 7.21484 13.5874 7.18268C13.749 7.15053 13.9166 7.16703 14.0688 7.2301C14.2211 7.29318 14.3512 7.39999 14.4428 7.53703C14.5344 7.67407 14.5833 7.83519 14.5833 8C14.5833 8.22102 14.4955 8.43298 14.3392 8.58926C14.1829 8.74554 13.9709 8.83334 13.7499 8.83334Z" fill="#333333"/>
<path id="Vector_4" d="M9.58301 7.16663H1.66634C1.44533 7.16663 1.23337 7.25442 1.07709 7.4107C0.920805 7.56698 0.833008 7.77895 0.833008 7.99996C0.833008 8.22097 0.920805 8.43293 1.07709 8.58921C1.23337 8.74549 1.44533 8.83329 1.66634 8.83329H9.58301C9.80402 8.83329 10.016 8.74549 10.1723 8.58921C10.3285 8.43293 10.4163 8.22097 10.4163 7.99996C10.4163 7.77895 10.3285 7.56698 10.1723 7.4107C10.016 7.25442 9.80402 7.16663 9.58301 7.16663Z" fill="#333333"/>
<path id="Vector_5" d="M19.1667 12.1666H12.0833C11.8623 12.1666 11.6504 12.2544 11.4941 12.4107C11.3378 12.567 11.25 12.7789 11.25 13C11.25 13.221 11.3378 13.4329 11.4941 13.5892C11.6504 13.7455 11.8623 13.8333 12.0833 13.8333H19.1667C19.3877 13.8333 19.5996 13.7455 19.7559 13.5892C19.9122 13.4329 20 13.221 20 13C20 12.7789 19.9122 12.567 19.7559 12.4107C19.5996 12.2544 19.3877 12.1666 19.1667 12.1666Z" fill="#333333"/>
<path id="Vector_6" d="M7.91634 10.5C7.39984 10.5006 6.8962 10.6611 6.47465 10.9596C6.0531 11.258 5.73434 11.6797 5.56217 12.1667H1.66634C1.44533 12.1667 1.23337 12.2545 1.07709 12.4107C0.920805 12.567 0.833008 12.779 0.833008 13C0.833008 13.221 0.920805 13.433 1.07709 13.5893C1.23337 13.7455 1.44533 13.8333 1.66634 13.8333H5.56217C5.71499 14.2656 5.98372 14.6475 6.33897 14.9372C6.69422 15.227 7.12232 15.4135 7.57644 15.4764C8.03056 15.5392 8.49322 15.476 8.91383 15.2936C9.33443 15.1112 9.69679 14.8167 9.96126 14.4422C10.2257 14.0677 10.3821 13.6277 10.4134 13.1704C10.4446 12.713 10.3495 12.2558 10.1384 11.8488C9.92729 11.4419 9.60836 11.1008 9.21646 10.8629C8.82456 10.625 8.37479 10.4995 7.91634 10.5ZM7.91634 13.8333C7.75152 13.8333 7.5904 13.7845 7.45336 13.6929C7.31632 13.6013 7.20951 13.4712 7.14644 13.3189C7.08337 13.1666 7.06686 12.9991 7.09902 12.8374C7.13117 12.6758 7.21054 12.5273 7.32708 12.4107C7.44363 12.2942 7.59211 12.2148 7.75376 12.1827C7.91541 12.1505 8.08297 12.167 8.23524 12.2301C8.38751 12.2932 8.51766 12.4 8.60923 12.537C8.7008 12.6741 8.74967 12.8352 8.74967 13C8.74967 13.221 8.66187 13.433 8.50559 13.5893C8.34931 13.7455 8.13735 13.8333 7.91634 13.8333Z" fill="#333333"/>
</g>
<defs>
<clipPath id="clip0_2976_4405">
<rect width="19.1667" height="15" fill="white" transform="translate(0.833008 0.5)"/>
</clipPath>
</defs>
</svg>
