<svg width="15" height="16" viewBox="0 0 15 16" fill="none" xmlns="http://www.w3.org/2000/svg">
<g clip-path="url(#clip0_2221_4600)">
<path d="M7.49407 4.14355C6.73232 4.14355 5.98767 4.36944 5.3543 4.79265C4.72092 5.21585 4.22727 5.81738 3.93576 6.52114C3.64425 7.22491 3.56797 7.99932 3.71659 8.74643C3.8652 9.49355 4.23201 10.1798 4.77065 10.7185C5.3093 11.2571 5.99556 11.6239 6.74268 11.7725C7.4898 11.9211 8.2642 11.8449 8.96797 11.5534C9.67174 11.2618 10.2733 10.7682 10.6965 10.1348C11.1197 9.50144 11.3456 8.7568 11.3456 7.99504C11.3456 7.48926 11.2459 6.98843 11.0524 6.52114C10.8588 6.05386 10.5751 5.62927 10.2175 5.27163C9.85984 4.91399 9.43525 4.63029 8.96797 4.43673C8.50069 4.24318 7.99985 4.14355 7.49407 4.14355ZM7.49407 10.4967C6.99928 10.4967 6.5156 10.35 6.1042 10.0751C5.6928 9.80023 5.37215 9.40952 5.18281 8.9524C4.99346 8.49528 4.94392 7.99227 5.04045 7.50699C5.13697 7.02171 5.37524 6.57595 5.72511 6.22608C6.07497 5.87621 6.52073 5.63795 7.00601 5.54142C7.49129 5.44489 7.9943 5.49443 8.45142 5.68378C8.90855 5.87313 9.29926 6.19378 9.57415 6.60518C9.84904 7.01658 9.99576 7.50026 9.99576 7.99504C9.99576 8.65853 9.73219 9.29485 9.26303 9.76401C8.79387 10.2332 8.15756 10.4967 7.49407 10.4967Z" fill="#4F4F4F"/>
<path d="M11.4978 4.89962C11.9938 4.89962 12.396 4.49749 12.396 4.00144C12.396 3.5054 11.9938 3.10327 11.4978 3.10327C11.0017 3.10327 10.5996 3.5054 10.5996 4.00144C10.5996 4.49749 11.0017 4.89962 11.4978 4.89962Z" fill="#4F4F4F"/>
<path d="M14.6042 3.08796C14.4114 2.59015 14.1169 2.13805 13.7394 1.76058C13.3619 1.38311 12.9099 1.08857 12.412 0.895805C11.829 0.676898 11.213 0.558506 10.5903 0.54567C9.78857 0.510149 9.53484 0.5 7.5 0.5C5.46516 0.5 5.20636 0.5 4.40968 0.54567C3.787 0.558506 3.17102 0.676898 2.58796 0.895805C2.09015 1.08857 1.63805 1.38311 1.26058 1.76058C0.883107 2.13805 0.588569 2.59015 0.395805 3.08796C0.176898 3.67102 0.0585061 4.287 0.0456698 4.90968C0.0101489 5.71143 0 5.96516 0 8C0 10.0348 0 10.2936 0.0456698 11.0903C0.0585061 11.713 0.176898 12.329 0.395805 12.912C0.588569 13.4099 0.883107 13.8619 1.26058 14.2394C1.63805 14.6169 2.09015 14.9114 2.58796 15.1042C3.16951 15.3318 3.78553 15.4588 4.40968 15.4797C5.21143 15.5152 5.46516 15.5254 7.5 15.5254C9.53484 15.5254 9.79364 15.5254 10.5903 15.4797C11.213 15.4669 11.829 15.3485 12.412 15.1296C12.9099 14.9368 13.3619 14.6423 13.7394 14.2648C14.1169 13.8873 14.4114 13.4352 14.6042 12.9374C14.8231 12.3544 14.9415 11.7384 14.9543 11.1157C14.9899 10.3139 15 10.0602 15 8.02537C15 5.99053 15 5.73173 14.9543 4.93505C14.9444 4.30383 14.8259 3.67903 14.6042 3.08796ZM13.5893 11.0294C13.585 11.5094 13.4974 11.985 13.3305 12.435C13.2056 12.7591 13.0142 13.0535 12.7686 13.299C12.523 13.5446 12.2287 13.7361 11.9046 13.861C11.4594 14.0261 10.9891 14.1137 10.5142 14.1198C9.7226 14.1553 9.49932 14.1654 7.46955 14.1654C5.43978 14.1654 5.23173 14.1654 4.4249 14.1198C3.95004 14.1137 3.47975 14.0261 3.03451 13.861C2.70932 13.7369 2.41387 13.5459 2.16734 13.3002C1.9208 13.0546 1.72871 12.7598 1.60352 12.435C1.43835 11.9898 1.35082 11.5195 1.34472 11.0447C1.3092 10.253 1.29905 10.0298 1.29905 8C1.29905 5.97023 1.29905 5.76218 1.34472 4.95534C1.34907 4.47537 1.43663 3.99978 1.60352 3.54973C1.72871 3.22499 1.9208 2.93022 2.16734 2.68456C2.41387 2.4389 2.70932 2.24785 3.03451 2.12382C3.47975 1.95865 3.95004 1.87111 4.4249 1.86502C5.21651 1.8295 5.43978 1.81935 7.46955 1.81935C9.49932 1.81935 9.70737 1.81935 10.5142 1.86502C10.9891 1.87111 11.4594 1.95865 11.9046 2.12382C12.2287 2.24872 12.523 2.44014 12.7686 2.68573C13.0142 2.93132 13.2056 3.22565 13.3305 3.54973C13.4957 3.99498 13.5832 4.46527 13.5893 4.94012C13.6248 5.73173 13.635 5.95501 13.635 7.98478C13.635 10.0145 13.635 10.2327 13.5995 11.0294H13.5893Z" fill="#4F4F4F"/>
</g>
<defs>
<clipPath id="clip0_2221_4600">
<rect width="15" height="15" fill="white" transform="translate(0 0.5)"/>
</clipPath>
</defs>
</svg>
