<svg width="17" height="17" viewBox="0 0 17 17" fill="none" xmlns="http://www.w3.org/2000/svg">
<g clip-path="url(#clip0_2221_4611)">
<path d="M8.5 17C13.1944 17 17 13.1944 17 8.5C17 3.80558 13.1944 0 8.5 0C3.80558 0 0 3.80558 0 8.5C0 13.1944 3.80558 17 8.5 17Z" fill="#4F4F4F"/>
<path d="M14.1527 7.9899C14.1527 5.45407 11.6168 3.3999 8.50016 3.3999C5.38349 3.3999 2.84766 5.45407 2.84766 7.9899C2.84766 10.2566 4.85932 12.1549 7.57932 12.5232C7.76349 12.5657 8.01849 12.6507 8.07516 12.8066C8.13182 12.9482 8.11766 13.1749 8.08932 13.3166C8.08932 13.3166 8.01849 13.7132 8.00432 13.7982C7.97599 13.9399 7.89099 14.3507 8.50016 14.1099C9.10932 13.8549 11.7585 12.1974 12.9485 10.8232C13.756 9.91657 14.1527 8.99574 14.1527 7.9899Z" fill="white"/>
<path d="M7.3518 6.77173H6.95513C6.89846 6.77173 6.8418 6.81423 6.8418 6.88506V9.35006C6.8418 9.40673 6.8843 9.4634 6.95513 9.4634H7.3518C7.40846 9.4634 7.46513 9.4209 7.46513 9.35006V6.8709C7.46513 6.81423 7.40846 6.77173 7.3518 6.77173Z" fill="#4F4F4F"/>
<path d="M10.0855 6.77173H9.6888C9.63214 6.77173 9.57547 6.81423 9.57547 6.88506V8.34423L8.44214 6.81423C8.44214 6.81423 8.44214 6.80006 8.42797 6.80006H8.0313C7.97464 6.80006 7.91797 6.84256 7.91797 6.9134V9.37839C7.91797 9.43506 7.96047 9.49173 8.0313 9.49173H8.35714C8.4138 9.49173 8.47047 9.44923 8.47047 9.37839V7.87673L9.6038 9.40673C9.61797 9.42089 9.61797 9.42089 9.63214 9.43506C9.63214 9.43506 9.63214 9.43506 9.6463 9.43506C9.66047 9.43506 9.66047 9.43506 9.67464 9.43506H10.0713C10.128 9.43506 10.1846 9.39256 10.1846 9.32173V6.8709C10.1846 6.81423 10.1421 6.77173 10.0855 6.77173Z" fill="#4F4F4F"/>
<path d="M6.38896 8.84007H5.31229V6.8709C5.31229 6.81423 5.26979 6.75757 5.19896 6.75757H4.81646C4.75979 6.75757 4.70312 6.80007 4.70312 6.8709V9.3359C4.70312 9.36423 4.71729 9.39257 4.73146 9.40673C4.74563 9.4209 4.77396 9.43507 4.80229 9.43507H6.38896C6.44562 9.43507 6.50229 9.39257 6.50229 9.32173V8.92507C6.50229 8.88257 6.45979 8.84007 6.38896 8.84007Z" fill="#4F4F4F"/>
<path d="M12.2679 7.3809C12.3245 7.3809 12.3812 7.3384 12.3812 7.26757V6.8709C12.3812 6.81423 12.3387 6.75757 12.2679 6.75757H10.6812C10.6529 6.75757 10.6245 6.77174 10.6104 6.7859C10.5962 6.80007 10.582 6.8284 10.582 6.85674V9.32173C10.582 9.35007 10.5962 9.3784 10.6104 9.39257C10.6245 9.40673 10.6529 9.4209 10.6812 9.4209H12.2679C12.3245 9.4209 12.3812 9.3784 12.3812 9.30757V8.9109C12.3812 8.85423 12.3387 8.79757 12.2679 8.79757H11.1912V8.38673H12.2679C12.3245 8.38673 12.3812 8.34423 12.3812 8.2734V7.87673C12.3812 7.82007 12.3387 7.7634 12.2679 7.7634H11.1912V7.35257H12.2679V7.3809Z" fill="#4F4F4F"/>
</g>
<defs>
<clipPath id="clip0_2221_4611">
<rect width="17" height="17" fill="white"/>
</clipPath>
</defs>
</svg>
