<svg width="176" height="30" viewBox="0 0 176 30" fill="none" xmlns="http://www.w3.org/2000/svg">
<g id="Frame" clip-path="url(#clip0_2593_2094)">
<g id="Group 1144">
<path id="Vector" d="M91.2485 28.0269C91.3634 28.161 91.4017 28.1802 91.6316 28.4101C91.7979 28.5684 92.0026 28.6806 92.2255 28.7357C92.2627 28.7404 92.2969 28.7586 92.3217 28.7869C92.3464 28.8151 92.3599 28.8515 92.3596 28.889V29.004C92.0983 29.0286 91.8354 29.0286 91.5742 29.004C91.2293 29.004 91.1718 29.0039 90.6546 28.3143C90.1374 27.6246 89.9266 27.4139 88.873 26.092L88.4899 26.3795C88.4899 27.0883 88.4899 27.5672 88.4899 27.9695C88.4899 28.3718 88.4898 28.5059 88.6431 28.5825C88.7964 28.6591 88.8347 28.6783 88.8347 28.7741C88.8347 28.8699 88.6431 28.9465 88.509 28.9465C87.8002 28.9465 87.7619 28.9465 87.7619 28.7741C87.7619 28.6017 87.7619 28.4484 87.7619 28.3909C87.7619 28.3335 87.7619 26.9733 87.7619 25.8622C87.7619 25.7281 87.7619 24.2338 87.7619 23.9465C87.7619 23.6591 87.7619 23.6208 87.4362 23.6208C87.1106 23.6208 87.1488 23.6208 87.1488 23.4675C87.1536 23.415 87.1779 23.3663 87.217 23.3308C87.256 23.2953 87.3069 23.2757 87.3596 23.276H88.1833C88.3941 23.276 88.4899 23.276 88.4899 23.5634C88.4899 23.8507 88.4899 23.9465 88.4899 24.0039C88.4899 24.0614 88.4899 25.5748 88.4899 25.9196C89.4178 25.1398 90.2825 24.2879 91.0761 23.3718C91.1718 23.3718 91.191 23.2568 91.4592 23.2568H91.7082C91.8615 23.2568 91.9956 23.2568 91.9956 23.4101C91.9956 23.5633 91.9956 23.5442 91.8807 23.5825L91.5167 23.8507L89.3711 25.7664L91.2485 28.0269Z" fill="#231815"/>
<path id="Vector_2" d="M93.8536 23.3524C94.026 23.3524 94.2176 23.3523 94.2176 23.6397C94.2176 23.9271 94.2176 24.0804 94.2176 24.157C94.2176 24.2336 94.2176 26.3409 94.2176 26.7048C94.2176 27.701 94.2176 28.6206 95.6927 28.6206C97.1678 28.6206 97.3594 27.3562 97.3594 26.4558C97.3594 25.5554 97.3594 24.9232 97.3594 24.0803C97.3594 24.0803 97.3594 23.5823 97.3594 23.5439C97.3594 23.5056 97.3594 23.3332 97.5701 23.3332H98.049C98.1831 23.3332 98.3172 23.3332 98.3172 23.5439C98.3183 23.5787 98.3076 23.6129 98.2867 23.6408C98.2658 23.6686 98.236 23.6885 98.2023 23.6972C97.9916 23.6972 97.9724 23.8313 97.9724 24.2145C97.9724 24.5976 97.9724 26.1301 97.9724 26.5133C97.9724 27.5669 97.9724 29.042 95.731 29.042C93.4897 29.042 93.5663 27.6819 93.5663 26.724V23.9846C93.5663 23.7738 93.5663 23.7163 93.3172 23.7163C93.0682 23.7163 93.0107 23.7163 93.0107 23.5248C93.0106 23.4979 93.0161 23.4714 93.0269 23.4468C93.0377 23.4222 93.0536 23.4001 93.0734 23.3821C93.0933 23.364 93.1168 23.3503 93.1423 23.3419C93.1678 23.3335 93.1948 23.3306 93.2215 23.3332L93.8536 23.3524Z" fill="#231815"/>
<path id="Vector_3" d="M100.003 28.1991V28.3332C100.003 28.5056 100.003 28.5822 100.137 28.6589C100.271 28.7355 100.329 28.7929 100.329 28.8504C100.329 28.9079 100.195 29.0228 99.85 29.0228C99.5052 29.0228 99.2944 29.0228 99.2944 28.8504C99.2944 28.678 99.2944 28.6205 99.2944 28.6014C99.2944 28.0267 99.2944 24.8657 99.2944 24.1952C99.2976 24.1449 99.2896 24.0946 99.2712 24.0477C99.2528 24.0008 99.2243 23.9585 99.1878 23.9238C99.1513 23.8891 99.1076 23.8629 99.0598 23.8469C99.012 23.8309 98.9613 23.8255 98.9113 23.8312C98.8605 23.8312 98.8117 23.811 98.7758 23.7751C98.7399 23.7392 98.7197 23.6905 98.7197 23.6397C98.7197 23.4672 98.8538 23.4481 98.9113 23.429H100.233H100.942C101.881 23.429 102.858 23.6972 102.858 24.7508C102.868 25.1388 102.725 25.5153 102.46 25.7986C102.194 26.0819 101.828 26.2492 101.44 26.2642C101.842 26.8773 102.264 27.4902 102.724 28.0649C102.903 28.3483 103.154 28.5796 103.452 28.7354C103.758 28.8504 103.796 28.8887 103.796 28.9462C103.796 29.0037 103.145 29.1569 103.011 29.1569C102.877 29.1569 102.609 29.1569 102.398 28.8121C102.187 28.4673 101.248 27.1263 100.731 26.3217C100.47 26.3502 100.207 26.3502 99.9458 26.3217L100.003 28.1991ZM100.003 25.8044C100.003 25.9385 100.214 25.9385 100.406 25.9385C101.095 25.9385 102.187 25.9385 102.187 24.8466C102.187 23.7546 101.248 23.6971 100.578 23.6971C99.9075 23.6971 100.003 23.6972 100.003 23.9271V25.8044Z" fill="#231815"/>
<path id="Vector_4" d="M105.712 26.9923C105.578 27.3371 104.946 28.908 104.927 28.908C104.908 28.908 104.927 29.0038 104.582 29.0038C104.237 29.0038 104.314 29.0038 104.314 28.8889C104.337 28.7784 104.382 28.674 104.448 28.5823C105.186 27.0011 105.825 25.3761 106.364 23.7164C106.479 23.3141 106.536 23.1226 106.938 23.1226C107.341 23.1226 107.187 23.1226 107.322 23.544C107.705 24.521 108.299 26.0919 108.72 27.0689C108.72 27.2796 109.256 28.3908 109.314 28.4482C109.387 28.5577 109.495 28.6388 109.62 28.6781C109.634 28.7014 109.641 28.7278 109.641 28.7547C109.641 28.7816 109.634 28.8081 109.62 28.8314C109.62 28.9655 109.467 28.9654 109.41 28.9654H108.892C108.861 28.9681 108.829 28.9642 108.799 28.9538C108.768 28.9435 108.741 28.9269 108.717 28.9053C108.694 28.8837 108.675 28.8575 108.663 28.8282C108.65 28.799 108.643 28.7674 108.643 28.7356C108.452 28.1609 108.433 28.1034 107.992 26.9348L105.712 26.9923ZM106.881 24.0229L105.866 26.6092H107.781L106.881 24.0229Z" fill="#231815"/>
<path id="Vector_5" d="M111.612 23.3525C111.899 23.3525 112.014 23.3526 112.11 23.5633C112.206 23.774 113.758 27.1648 114.026 27.6438L115.769 23.6016C115.865 23.3908 115.903 23.3525 116.172 23.3525H117.072C117.187 23.3525 117.263 23.3525 117.263 23.5249C117.263 23.6973 117.263 23.6973 116.899 23.6973C116.535 23.6973 116.708 23.7932 116.708 23.9847C116.708 24.5786 116.708 27.5863 116.708 28.2759C116.708 28.4483 116.708 28.5824 116.88 28.6591C117.053 28.7357 117.11 28.7548 117.11 28.8506C117.11 28.9464 116.957 29.0422 116.785 29.0422H116.267C116.095 29.0422 115.999 29.0422 115.999 28.7931C115.99 28.672 115.99 28.5503 115.999 28.4291V24.023L114.754 26.9349L114.352 27.9119C114.352 28.0269 114.16 28.3908 114.122 28.4291C114.013 28.4991 113.887 28.5388 113.758 28.5441C113.706 28.5426 113.657 28.5253 113.615 28.4944C113.574 28.4635 113.544 28.4206 113.528 28.3717C113.413 28.1801 112.302 25.6131 112.072 25.0958L111.765 24.4253C111.574 23.9847 111.555 23.9464 111.516 23.9081V28.8123C111.516 29.0039 111.516 29.0997 111.114 29.0997C110.712 29.0997 110.922 29.0997 110.922 28.889C110.922 28.6782 110.922 27.6054 110.922 27.3563C110.922 26.6859 110.922 25.4407 110.922 24.1571C110.922 23.8123 110.922 23.7165 110.616 23.7165C110.309 23.7165 110.29 23.7165 110.29 23.5441C110.287 23.5182 110.29 23.4919 110.299 23.4673C110.307 23.4426 110.321 23.4203 110.34 23.4018C110.358 23.3834 110.38 23.3694 110.405 23.3608C110.43 23.3523 110.456 23.3494 110.482 23.3525H111.612Z" fill="#231815"/>
<path id="Vector_6" d="M119.294 26.9923L118.509 28.908C118.509 28.908 118.509 29.0038 118.164 29.0038C117.819 29.0038 117.896 29.0038 117.896 28.8889C117.919 28.7784 117.964 28.674 118.03 28.5823C118.774 27.0039 119.414 25.3784 119.946 23.7164C120.08 23.3141 120.137 23.1226 120.54 23.1226C120.942 23.1226 120.789 23.1226 120.923 23.544C121.306 24.521 121.9 26.0919 122.302 27.0689C122.398 27.2796 122.858 28.3908 122.915 28.4482C122.984 28.5533 123.085 28.6338 123.202 28.6781C123.202 28.6781 123.298 28.6781 123.298 28.8314C123.298 28.9846 123.145 28.9654 123.107 28.9654H122.398C122.333 28.9661 122.27 28.9432 122.221 28.9009C122.171 28.8586 122.139 28.7999 122.13 28.7356C121.957 28.1609 121.938 28.1034 121.497 26.9348L119.294 26.9923ZM120.463 24.0229L119.448 26.6092H121.363L120.463 24.0229Z" fill="#231815"/>
<path id="Vector_7" d="M125.406 25.8813H126.689C127.016 25.8898 127.338 25.796 127.609 25.6131H127.743C127.754 25.747 127.754 25.8815 127.743 26.0154C127.743 26.1878 127.743 26.3028 127.494 26.3028H127.13C126.881 26.3028 126.057 26.3028 125.904 26.3028C125.751 26.3028 125.234 26.3027 125.234 26.5709V28.4866C125.234 28.6974 125.234 28.7549 126.326 28.7549C127.092 28.7549 127.724 28.7549 128.241 27.8162C128.241 27.6438 128.241 27.6246 128.433 27.6246C128.449 27.6209 128.465 27.6214 128.481 27.6258C128.496 27.6303 128.511 27.6387 128.522 27.6502C128.534 27.6617 128.542 27.6759 128.547 27.6915C128.551 27.7072 128.551 27.7237 128.548 27.7395C128.53 28.1588 128.446 28.5725 128.299 28.9656C128.299 29.0805 128.145 29.0806 127.571 29.0806H124.87C124.716 29.0806 124.506 29.0805 124.506 28.7932C124.506 28.5058 124.506 28.3526 124.506 28.2759C124.506 27.5097 124.506 26.6476 124.506 25.8813C124.506 25.6131 124.506 24.3679 124.506 24.1572C124.499 24.0892 124.472 24.0249 124.427 23.9734C124.383 23.9218 124.323 23.8856 124.257 23.8698C123.969 23.8698 123.893 23.8698 123.893 23.6591C123.893 23.4483 123.893 23.4675 124.142 23.4675H126.057H127.801C127.992 23.4675 128.011 23.4675 128.069 23.7357C128.117 23.9759 128.149 24.2192 128.165 24.4637C128.167 24.4854 128.165 24.5074 128.159 24.5282C128.152 24.5491 128.142 24.5683 128.127 24.5847C128.113 24.601 128.095 24.614 128.075 24.6229C128.055 24.6318 128.033 24.6363 128.011 24.6361C127.896 24.6361 127.877 24.6361 127.762 24.4062C127.398 23.8315 127.13 23.8315 125.847 23.8315C125.406 23.8315 125.099 23.8315 125.099 24.0614V25.9771L125.406 25.8813Z" fill="#231815"/>
</g>
<g id="Group 1145">
<path id="Vector_8" d="M18.5088 13.6014C19.2507 13.4952 19.9862 13.3481 20.7118 13.1608V9.65503C19.9912 9.9108 19.2554 10.1219 18.5088 10.2872V13.6014Z" fill="#938152"/>
<path id="Vector_9" d="M17.4743 6.20679C16.6858 6.45029 15.8665 6.57928 15.0413 6.58989C14.2161 6.58089 13.3965 6.45186 12.6084 6.20679V9.42516C13.4127 9.5582 14.2261 9.62863 15.0413 9.63586C15.8565 9.62779 16.6699 9.55737 17.4743 9.42516V6.20679Z" fill="#938152"/>
<path id="Vector_10" d="M5.25217 11.7241L5.98015 12.0498C6.74513 12.3798 7.53254 12.655 8.33646 12.8736V8.0843L9.06444 8.42911C9.87196 8.75788 10.7048 9.02056 11.5549 9.21456V4.65522L12.302 5.00003C13.1746 5.34505 14.1031 5.52687 15.0414 5.53643C15.9822 5.53239 16.9129 5.34362 17.7809 4.98086L18.5089 4.65522V9.17626C19.3646 8.98019 20.2037 8.71757 21.0185 8.39082L21.7464 8.046V12.8353C22.5491 12.6126 23.3362 12.3375 24.1028 12.0115L24.8307 11.6858V24.0805C27.1482 21.5947 28.4354 18.3218 28.4323 14.9234C28.4323 11.3668 27.0194 7.95599 24.5046 5.44113C21.9897 2.92628 18.5788 1.51343 15.0223 1.51343C11.4658 1.51343 8.05486 2.92628 5.54001 5.44113C3.02515 7.95599 1.61233 11.3668 1.61233 14.9234C1.60539 18.3112 2.89386 21.5735 5.21387 24.0422L5.25217 11.7241Z" fill="#938152"/>
<path id="Vector_11" d="M12.6084 10.479V13.7549C13.3747 13.7549 14.1984 13.889 15.0413 13.889C15.8842 13.889 16.708 13.889 17.4743 13.7549V10.479C16.6693 10.6044 15.856 10.6685 15.0413 10.6706C14.2267 10.6685 13.4134 10.6044 12.6084 10.479Z" fill="#938152"/>
<path id="Vector_12" d="M11.555 13.6014V10.2872C10.8145 10.1223 10.0851 9.91121 9.37109 9.65503V13.1608C10.0903 13.3482 10.8194 13.4953 11.555 13.6014Z" fill="#938152"/>
<path id="Vector_13" d="M15.0225 30C11.0458 29.9949 7.23341 28.413 4.42146 25.601C1.60952 22.7891 0.02753 18.9767 0.0224609 15C0.02753 11.0233 1.60952 7.21098 4.42146 4.39903C7.23341 1.58709 11.0458 0.00506908 15.0225 0C18.9992 0.00506908 22.8115 1.58709 25.6235 4.39903C28.4354 7.21098 30.0174 11.0233 30.0225 15C30.0174 18.9767 28.4354 22.7891 25.6235 25.601C22.8115 28.413 18.9992 29.9949 15.0225 30ZM15.0225 0.555572C11.1931 0.560641 7.52207 2.08408 4.81431 4.79184C2.10654 7.49961 0.583102 11.1707 0.578033 15C0.583102 18.8294 2.10654 22.5004 4.81431 25.2082C7.52207 27.9159 11.1931 29.4394 15.0225 29.4444C18.8485 29.4343 22.5146 27.9087 25.2183 25.2014C27.9219 22.4942 29.4427 18.8261 29.4478 15C29.4478 11.1724 27.9286 7.50132 25.2238 4.79301C22.5191 2.0847 18.85 0.560648 15.0225 0.555572Z" fill="#938152"/>
<path id="Vector_14" d="M21.7465 13.9655V24.5019H20.7695V14.1762C20.099 14.3486 19.3711 14.4828 18.5665 14.6169V23.4674H17.532V14.7318C16.7003 14.8487 15.8621 14.9127 15.0224 14.9234C14.2094 14.9286 13.3969 14.8838 12.5894 14.7893V23.5249H11.5358V14.6743C10.7503 14.5402 10.0224 14.4062 9.35187 14.2338V24.5019H8.3174V13.9655C7.43617 13.7165 6.74651 13.4866 6.26758 13.295V25.115C8.70669 27.2008 11.813 28.3427 15.0224 28.3333C18.2391 28.3268 21.3463 27.1641 23.7772 25.0575V13.2375C23.3174 13.4866 22.6852 13.7165 21.7465 13.9655Z" fill="#938152"/>
</g>
<g id="Group 1143">
<path id="Vector_15" d="M112.608 6.85836H117.417V19.1955H118.662V6.85836H123.432V5.59399H112.608V6.85836Z" fill="#231815"/>
<path id="Vector_16" d="M149.467 5.59399H148.164V19.1955H158.988V17.9503H149.467V5.59399Z" fill="#231815"/>
<path id="Vector_17" d="M171.977 6.8009H176V5.59399H171.977C170.283 5.59706 168.652 6.23376 167.404 7.37886C166.156 8.52396 165.382 10.0945 165.233 11.7817H163.682V13.0078H165.233C165.382 14.6949 166.156 16.2656 167.404 17.4107C168.652 18.5558 170.283 19.1925 171.977 19.1955H176V17.9886H171.977C170.589 18.0061 169.245 17.5052 168.207 16.5841C167.168 15.6629 166.511 14.3877 166.364 13.0078H174.85V11.7817H166.364C166.511 10.4018 167.168 9.12655 168.207 8.20541C169.245 7.28427 170.589 6.78348 171.977 6.8009Z" fill="#231815"/>
<path id="Vector_18" d="M139.391 5.59399C139.276 5.68978 138.816 6.30279 135.348 11.1495L135.176 11.3794L135.004 11.1495C131.555 6.30279 131.172 5.68978 130.981 5.59399H129.486L134.525 12.6246V19.1955H135.827V12.6246L140.866 5.59399H139.391Z" fill="#231815"/>
<path id="Vector_19" d="M81.8232 19.3294C80.4405 19.3709 79.0974 18.8649 78.0857 17.9215C77.0741 16.978 76.4758 15.6734 76.4209 14.2912V10.4598C76.4758 9.07755 77.0741 7.77285 78.0857 6.82939C79.0974 5.88592 80.4405 5.37995 81.8232 5.42143C83.2091 5.37479 84.5572 5.87848 85.573 6.82249C86.5888 7.7665 87.1898 9.07412 87.2446 10.4598V14.2912C87.1898 15.6768 86.5888 16.9844 85.573 17.9284C84.5572 18.8724 83.2091 19.3761 81.8232 19.3294ZM81.8232 6.7241C81.3017 6.70362 80.7814 6.7868 80.2923 6.96876C79.8032 7.15073 79.355 7.42788 78.9738 7.7842C78.5925 8.14053 78.2857 8.56897 78.0711 9.04466C77.8565 9.52036 77.7384 10.0339 77.7236 10.5555V14.3869C77.7384 14.9086 77.8565 15.4221 78.0711 15.8978C78.2857 16.3735 78.5925 16.8019 78.9738 17.1582C79.355 17.5146 79.8032 17.7917 80.2923 17.9737C80.7814 18.1557 81.3017 18.2388 81.8232 18.2184C82.3462 18.2414 82.8686 18.1602 83.3599 17.9794C83.8513 17.7986 84.3017 17.5219 84.6851 17.1653C85.0684 16.8087 85.3769 16.3794 85.5927 15.9024C85.8085 15.4254 85.9272 14.9103 85.942 14.3869V10.5555C85.9272 10.0322 85.8085 9.51704 85.5927 9.04004C85.3769 8.56305 85.0684 8.13371 84.6851 7.77713C84.3017 7.42055 83.8513 7.14383 83.3599 6.96303C82.8686 6.78224 82.3462 6.70102 81.8232 6.7241Z" fill="#231815"/>
<path id="Vector_20" d="M98.7201 6.83908H105.751V5.57471H98.7201C97.7235 5.57426 96.766 5.96212 96.0507 6.65598C95.3354 7.34983 94.9186 8.29509 94.8887 9.29119C94.8985 10.2002 95.2312 11.0762 95.8274 11.7625C96.1785 12.1465 96.6042 12.4549 97.0785 12.669C97.5528 12.8831 98.0657 12.9983 98.586 13.0077H101.958C102.608 13.0126 103.231 13.2719 103.693 13.7302C104.155 14.1885 104.419 14.8092 104.429 15.4598C104.419 16.1205 104.151 16.751 103.682 17.2165C103.213 17.6819 102.58 17.9452 101.919 17.9502H94.8887V19.1954H101.919C102.935 19.1954 103.91 18.7918 104.629 18.0732C105.347 17.3547 105.751 16.3802 105.751 15.364C105.752 14.4587 105.418 13.585 104.812 12.9119C104.461 12.5279 104.035 12.2194 103.561 12.0053C103.087 11.7912 102.574 11.676 102.053 11.6666H98.7009C98.0452 11.6617 97.4175 11.4004 96.9521 10.9386C96.4867 10.4767 96.2205 9.85104 96.2105 9.19543C96.245 8.55512 96.5252 7.95279 96.9926 7.51386C97.4601 7.07493 98.0789 6.83322 98.7201 6.83908Z" fill="#231815"/>
<path id="Vector_21" d="M42.3981 19.2144H41.1338V13.0075H39.582V11.7431H41.1338V5.51709H48.241C49.2408 5.51678 50.2011 5.90726 50.9169 6.6052C51.6328 7.30314 52.0474 8.25328 52.0724 9.25275C52.0724 10.2689 51.6688 11.2434 50.9502 11.962C50.2317 12.6805 49.2572 13.0842 48.241 13.0842H42.3981V19.2144ZM42.3981 11.8198H48.241C48.5681 11.8198 48.8919 11.7553 49.1941 11.6302C49.4962 11.505 49.7707 11.3216 50.002 11.0903C50.2333 10.8591 50.4167 10.5845 50.5419 10.2824C50.667 9.98024 50.7314 9.65638 50.7314 9.32933C50.7314 9.00229 50.667 8.67848 50.5419 8.37633C50.4167 8.07418 50.2333 7.79963 50.002 7.56837C49.7707 7.33712 49.4962 7.15368 49.1941 7.02853C48.8919 6.90337 48.5681 6.83893 48.241 6.83893H42.3981V11.8198Z" fill="#231815"/>
<path id="Vector_22" d="M69.8313 18.7548L66.5554 13.0077C67.4323 12.8566 68.2293 12.405 68.8096 11.7303C69.3899 11.0557 69.7172 10.2 69.7355 9.31036C69.7112 8.32726 69.3098 7.3911 68.6144 6.69573C67.9191 6.00036 66.9829 5.59899 65.9998 5.57471H58.8925V11.8008H57.3408V13.0077H58.8925V19.138H60.1378V13.0077H65.1378L68.7201 19.2145L69.8313 18.7548ZM60.1378 6.85826H65.9998C66.6588 6.86327 67.2893 7.12723 67.7553 7.59319C68.2213 8.05916 68.4852 8.6897 68.4903 9.34866C68.4903 10.0092 68.2279 10.6426 67.7608 11.1097C67.2938 11.5767 66.6603 11.8391 65.9998 11.8391H60.1378V6.85826Z" fill="#231815"/>
</g>
</g>
<defs>
<clipPath id="clip0_2593_2094">
<rect width="175.958" height="30" fill="white" transform="translate(0.0419922)"/>
</clipPath>
</defs>
</svg>
