<svg width="17" height="20" viewBox="0 0 17 20" fill="none" xmlns="http://www.w3.org/2000/svg">
<g clip-path="url(#clip0_2513_3459)">
<path d="M15.833 8.3335C15.833 14.1668 8.33301 19.1668 8.33301 19.1668C8.33301 19.1668 0.833008 14.1668 0.833008 8.3335C0.833008 6.34437 1.62318 4.43672 3.02971 3.0302C4.43623 1.62367 6.34388 0.833496 8.33301 0.833496C10.3221 0.833496 12.2298 1.62367 13.6363 3.0302C15.0428 4.43672 15.833 6.34437 15.833 8.3335Z" stroke="#AD814D" stroke-width="2" stroke-linecap="round" stroke-linejoin="round"/>
<path d="M8.33301 10.8335C9.71372 10.8335 10.833 9.71421 10.833 8.3335C10.833 6.95278 9.71372 5.8335 8.33301 5.8335C6.9523 5.8335 5.83301 6.95278 5.83301 8.3335C5.83301 9.71421 6.9523 10.8335 8.33301 10.8335Z" stroke="#AD814D" stroke-width="2" stroke-linecap="round" stroke-linejoin="round"/>
</g>
<defs>
<clipPath id="clip0_2513_3459">
<rect width="16.6667" height="20" fill="white"/>
</clipPath>
</defs>
</svg>
