<svg width="40" height="40" viewBox="0 0 40 40" fill="none" xmlns="http://www.w3.org/2000/svg">
<g id="icon/SNS" clip-path="url(#clip0_9_1569)">
<circle id="Ellipse 7" cx="20" cy="20" r="20" fill="white"/>
<path id="Vector" d="M21.7191 29.9841C21.6199 29.9881 21.5564 29.996 21.4929 29.996C20.1354 29.996 18.782 29.9921 17.4246 30C17.2341 30 17.1825 29.9484 17.1825 29.7579C17.1865 26.5985 17.1865 23.4352 17.1865 20.2759C17.1865 20.1925 17.1865 20.1092 17.1865 20.002C16.4482 20.002 15.7298 20.002 14.9995 20.002C14.9995 18.8748 14.9995 17.7674 14.9995 16.6283C15.0749 16.6283 15.1464 16.6283 15.2138 16.6283C15.8092 16.6283 16.4046 16.6243 16.9999 16.6323C17.1507 16.6323 17.1904 16.5886 17.1904 16.4418C17.1825 15.5567 17.1825 14.6676 17.1904 13.7825C17.1944 13.1633 17.2936 12.56 17.5794 12.0004C17.9882 11.2106 18.6352 10.6986 19.4528 10.381C20.1196 10.1191 20.8221 10.0238 21.5286 10.0119C22.6796 9.99604 23.8306 10.004 24.9816 10C25.0888 10 25.1761 9.99604 25.1761 10.1469C25.1722 11.2384 25.1722 12.3298 25.1722 13.4213C25.1722 13.4332 25.1682 13.4451 25.1523 13.4967C25.0848 13.4967 25.0094 13.4967 24.934 13.4967C24.2196 13.4967 23.5052 13.4928 22.7907 13.4967C22.378 13.4967 22.0446 13.6634 21.8342 14.0246C21.7707 14.1318 21.731 14.2707 21.731 14.3977C21.7191 15.0724 21.731 15.7472 21.7231 16.4219C21.7231 16.5807 21.7707 16.6243 21.9255 16.6243C22.9177 16.6164 23.91 16.6204 24.9023 16.6204C24.9816 16.6204 25.0571 16.6204 25.192 16.6204C25.0531 17.7555 24.9181 18.8668 24.7792 19.9901C23.7473 19.9901 22.7431 19.9901 21.7191 19.9901C21.7191 23.328 21.7191 26.6462 21.7191 29.9841Z" fill="#4F4F4F"/>
</g>
<defs>
<clipPath id="clip0_9_1569">
<rect width="40" height="40" fill="white"/>
</clipPath>
</defs>
</svg>
