<svg width="16" height="20" viewBox="0 0 16 20" fill="none" xmlns="http://www.w3.org/2000/svg">
<g id="noun-man-1764245 1" clip-path="url(#clip0_6_240)">
<path id="Vector" fill-rule="evenodd" clip-rule="evenodd" d="M10.6475 11.1C9.85346 11.5868 8.92982 11.8196 7.99995 11.7675C7.07008 11.8196 6.14644 11.5868 5.35245 11.1C4.47745 11.12 2.94495 11.5325 2.29995 12.2C0.649952 13.905 0.274951 17.2725 0.199951 20H15.8C15.725 17.25 15.345 13.885 13.685 12.185C13.0425 11.5275 11.515 11.12 10.6475 11.1Z" fill="white"/>
<path id="Vector_2" fill-rule="evenodd" clip-rule="evenodd" d="M12.3375 3.285C12 1.4225 10.0825 0 8.03752 0C5.99252 0 4.07752 1.4225 3.73502 3.285C3.64752 3.7625 3.48502 5.0775 4.21002 7.785C4.62752 9.365 6.00002 10.625 8.03752 10.625C10.075 10.625 11.445 9.375 11.8625 7.7925C12.58 5.0775 12.425 3.7625 12.3375 3.285Z" fill="white"/>
</g>
<defs>
<clipPath id="clip0_6_240">
<rect width="16" height="20" fill="white"/>
</clipPath>
</defs>
</svg>
