<svg width="40" height="40" viewBox="0 0 40 40" fill="none" xmlns="http://www.w3.org/2000/svg">
<g id="icon/SNS" clip-path="url(#clip0_9_1572)">
<circle id="Ellipse 7" cx="20" cy="20" r="20" fill="white"/>
<path id="Vector" d="M33.0002 12.3698C32.0624 12.7773 31.0702 13.0457 30.0549 13.1667C31.1219 12.5419 31.9243 11.5493 32.3116 10.375C31.3028 10.9649 30.201 11.3788 29.0533 11.599C28.57 11.0925 27.9888 10.6895 27.3449 10.4147C26.7011 10.1398 26.0081 9.99871 25.308 10C22.4736 10 20.1799 12.2604 20.1799 15.0469C20.1779 15.4345 20.2223 15.8209 20.3122 16.1979C18.2797 16.1026 16.2896 15.5841 14.469 14.6756C12.6484 13.7671 11.0375 12.4886 9.7393 10.9219C9.28387 11.6896 9.04302 12.5656 9.04191 13.4583C9.04191 15.2083 9.95493 16.7552 11.3336 17.6614C10.5168 17.6421 9.71669 17.4259 9.00128 17.0312V17.0937C9.00128 19.5416 10.7721 21.5781 13.1159 22.0416C12.6751 22.1591 12.2209 22.2187 11.7648 22.2187C11.4412 22.2193 11.1182 22.1879 10.8008 22.125C11.4523 24.1302 13.3487 25.5885 15.595 25.6302C13.7697 27.0369 11.5287 27.7972 9.2242 27.7916C8.81515 27.791 8.40647 27.7667 8.00024 27.7187C10.3446 29.2157 13.0697 30.0075 15.8513 29.9999C25.2971 29.9999 30.4575 22.3073 30.4575 15.6354C30.4575 15.4167 30.4517 15.1979 30.4413 14.9844C31.4429 14.2719 32.3094 13.3865 33.0002 12.3698Z" fill="#4F4F4F"/>
</g>
<defs>
<clipPath id="clip0_9_1572">
<rect width="40" height="40" fill="white"/>
</clipPath>
</defs>
</svg>
