<?xml version="1.0" standalone="no"?>
<!DOCTYPE svg PUBLIC "-//W3C//DTD SVG 20010904//EN"
 "http://www.w3.org/TR/2001/REC-SVG-20010904/DTD/svg10.dtd">
<svg version="1.0" xmlns="http://www.w3.org/2000/svg"
 width="1384.000000pt" height="1384.000000pt" viewBox="0 0 1384.000000 1384.000000"
 preserveAspectRatio="xMidYMid meet">
<metadata>
Created by potrace 1.14, written by Peter Selinger 2001-2017
</metadata>
<g transform="translate(0.000000,1384.000000) scale(0.100000,-0.100000)"
fill="#000000" stroke="none">
<path d="M6359 13825 c-2 -2 -60 -6 -128 -10 -68 -4 -134 -9 -145 -11 -12 -2
-50 -7 -86 -10 -91 -9 -98 -9 -165 -18 -33 -5 -70 -13 -83 -17 -15 -6 -21 -5
-17 1 4 7 -3 7 -20 0 -14 -5 -45 -12 -68 -15 -23 -3 -49 -7 -57 -10 -8 -2 -28
-7 -45 -10 -16 -2 -41 -7 -55 -11 -14 -3 -36 -7 -50 -9 -14 -2 -26 -4 -27 -5
-2 -1 -6 -3 -10 -4 -12 -3 -86 -19 -99 -22 -39 -7 -312 -88 -326 -95 -9 -5
-28 -10 -42 -11 -15 -1 -26 -6 -26 -10 0 -4 -3 -7 -7 -6 -5 0 -15 -1 -23 -5
-37 -14 -96 -31 -102 -29 -5 1 -8 -3 -8 -8 0 -6 -6 -10 -13 -10 -15 0 -116
-39 -195 -76 -29 -13 -55 -24 -58 -24 -8 0 -291 -142 -331 -166 -95 -57 -144
-84 -153 -84 -5 0 -10 -5 -10 -10 0 -6 -8 -14 -18 -18 -33 -13 -172 -105 -172
-113 0 -5 -7 -9 -15 -9 -8 0 -15 -4 -15 -10 0 -5 -5 -10 -10 -10 -6 0 -16 -5
-23 -10 -7 -6 -46 -36 -87 -68 -80 -61 -89 -69 -214 -177 -109 -95 -276 -262
-269 -269 4 -3 1 -6 -5 -6 -10 0 -152 -159 -212 -239 -14 -18 -41 -54 -61 -79
-20 -26 -61 -85 -92 -132 -31 -47 -60 -89 -65 -95 -27 -35 -146 -244 -204
-360 -77 -153 -88 -177 -88 -191 0 -8 -4 -14 -10 -14 -5 0 -9 -3 -8 -7 1 -9
-6 -30 -29 -82 -8 -18 -16 -39 -17 -45 -1 -6 -6 -18 -11 -26 -5 -8 -11 -24
-12 -34 -2 -11 -8 -26 -15 -33 -6 -7 -8 -16 -5 -20 4 -3 3 -11 -2 -17 -11 -14
-59 -155 -76 -226 0 -3 -9 -30 -18 -61 -19 -62 -82 -351 -92 -415 -14 -99 -17
-121 -21 -149 -6 -49 -15 -127 -19 -170 -1 -22 -4 -40 -5 -40 -8 0 -12 -518
-4 -655 2 -47 4 -96 3 -110 0 -14 0 -29 1 -35 1 -5 3 -30 5 -55 2 -25 4 -45 5
-45 1 0 3 -22 5 -50 8 -106 18 -170 27 -182 7 -9 7 -13 -1 -13 -7 0 -9 -5 -6
-11 4 -6 9 -27 10 -47 2 -20 4 -38 6 -39 1 -2 2 -11 3 -20 6 -49 18 -120 23
-133 3 -8 7 -24 8 -35 3 -31 25 -133 47 -220 11 -44 21 -85 22 -92 1 -7 5 -16
9 -19 4 -4 7 -15 7 -25 0 -16 71 -242 89 -284 5 -11 24 -58 42 -105 18 -47 45
-112 61 -144 15 -33 28 -65 28 -72 0 -7 3 -14 8 -16 4 -1 23 -34 42 -73 45
-92 131 -239 142 -243 4 -2 8 -8 8 -13 0 -11 96 -156 117 -177 7 -7 13 -16 13
-20 0 -4 13 -21 28 -38 15 -18 34 -42 42 -54 8 -13 25 -33 38 -46 13 -13 21
-24 19 -24 -2 0 23 -30 57 -67 114 -125 358 -363 373 -363 3 0 13 -8 22 -17
20 -22 76 -66 211 -165 58 -43 111 -82 118 -88 6 -6 12 -7 12 -3 0 4 4 4 8 -2
8 -12 179 -125 188 -125 3 0 18 -8 32 -19 15 -10 54 -33 87 -51 33 -18 63 -38
67 -44 4 -6 8 -7 8 -3 0 5 15 0 33 -11 55 -34 291 -152 305 -152 6 0 12 -4 12
-10 0 -5 7 -10 15 -10 8 0 23 -4 33 -10 9 -5 53 -26 97 -45 44 -20 89 -40 100
-45 11 -5 56 -24 100 -41 44 -17 91 -36 105 -42 14 -5 30 -11 35 -13 6 -1 33
-11 60 -22 136 -53 215 -81 215 -76 0 3 12 -1 28 -9 46 -24 194 -74 512 -173
47 -14 105 -32 129 -40 24 -7 47 -11 51 -9 5 3 10 2 12 -3 1 -4 57 -23 123
-41 66 -18 147 -41 180 -51 59 -18 81 -24 325 -96 69 -20 131 -37 138 -37 6 0
12 -3 12 -7 0 -5 18 -9 58 -12 6 -1 12 -6 12 -11 0 -6 3 -8 6 -4 4 3 21 0 38
-7 17 -7 34 -14 38 -15 16 -3 36 -10 153 -46 66 -20 127 -40 135 -43 8 -3 20
-6 25 -8 6 -1 37 -12 70 -24 33 -12 69 -24 80 -26 11 -3 27 -8 35 -11 8 -3 20
-7 25 -8 77 -19 766 -294 790 -316 5 -5 17 -9 27 -9 10 0 18 -4 18 -8 0 -5 18
-15 40 -22 22 -7 40 -17 40 -22 0 -4 6 -8 13 -8 6 0 41 -16 77 -35 36 -20 79
-42 95 -51 17 -8 39 -21 50 -27 11 -7 43 -25 70 -42 59 -34 258 -165 265 -175
3 -3 19 -16 37 -28 43 -30 111 -89 213 -185 83 -80 270 -311 270 -336 0 -5 3
-11 8 -13 24 -10 175 -333 175 -373 0 -8 5 -15 10 -15 6 0 8 -3 4 -6 -3 -3 1
-24 9 -46 15 -43 24 -80 29 -113 1 -11 6 -28 10 -37 4 -9 4 -22 0 -28 -3 -5
-2 -10 3 -10 5 0 9 -6 9 -12 0 -16 11 -94 18 -128 17 -87 24 -439 11 -555 -4
-38 -9 -83 -11 -100 -2 -16 -6 -43 -10 -60 -4 -16 -8 -41 -10 -55 -1 -14 -5
-32 -8 -40 -5 -13 -15 -55 -19 -77 -12 -70 -149 -392 -171 -401 -4 -2 -7 -9
-7 -16 0 -7 -9 -22 -20 -34 -12 -12 -18 -22 -16 -22 11 0 -104 -155 -159 -215
-77 -84 -126 -135 -130 -135 -2 0 -25 -20 -51 -45 -25 -25 -49 -45 -53 -45 -3
0 -22 -14 -41 -31 -19 -17 -47 -38 -62 -47 -15 -9 -28 -20 -28 -24 0 -4 -4 -8
-10 -8 -8 0 -121 -68 -145 -88 -10 -8 -232 -117 -270 -132 -11 -4 -36 -15 -55
-23 -61 -26 -240 -86 -240 -80 0 3 -6 0 -14 -6 -8 -6 -18 -11 -22 -10 -5 2
-34 -5 -64 -14 -30 -9 -66 -18 -80 -21 -14 -3 -36 -8 -50 -11 -14 -4 -36 -8
-50 -10 -14 -2 -36 -6 -50 -9 -14 -2 -41 -7 -60 -10 -19 -3 -51 -8 -70 -11
-277 -43 -687 -39 -951 10 -9 2 -33 6 -52 9 -29 5 -170 35 -237 51 -39 10
-167 46 -180 52 -18 7 -14 6 -69 22 -24 7 -51 16 -60 21 -9 5 -70 29 -135 55
-109 42 -250 104 -286 125 -8 4 -56 29 -107 55 -51 25 -108 57 -127 70 -20 14
-36 22 -36 18 0 -3 -8 1 -17 9 -15 12 -97 62 -128 78 -16 8 -99 64 -105 71 -3
3 -24 16 -47 29 -24 13 -43 27 -43 32 0 4 -6 8 -14 8 -8 0 -16 4 -18 8 -1 4
-32 28 -68 52 -74 52 -75 52 -115 86 -16 13 -45 34 -62 45 -18 11 -33 24 -33
29 0 5 -8 11 -17 14 -10 4 -34 21 -54 39 -20 17 -58 50 -85 72 -26 22 -58 49
-70 60 -12 11 -37 33 -56 48 -160 136 -460 435 -643 641 -38 43 -87 96 -107
117 -20 22 -35 39 -32 39 2 0 -4 8 -14 18 -9 11 -24 28 -32 38 -19 24 -113
137 -120 144 -3 3 -23 28 -45 55 -21 28 -44 53 -50 57 -5 4 -6 8 -1 8 6 0 3 6
-5 13 -28 23 -148 184 -142 191 4 3 0 6 -9 6 -8 0 -20 11 -26 24 -6 14 -18 33
-26 43 -24 29 -78 104 -126 173 -24 36 -48 66 -52 68 -4 2 -8 9 -8 16 0 7 -9
21 -20 31 -11 10 -20 23 -20 28 0 6 -7 19 -17 29 -9 10 -21 26 -27 37 -30 50
-92 145 -103 156 -7 8 -13 16 -13 20 0 3 -18 33 -40 66 -22 33 -40 65 -40 70
0 5 -3 9 -7 9 -5 0 -13 10 -19 23 -11 21 -89 154 -123 207 -8 14 -14 28 -13
33 1 4 -2 7 -8 7 -5 0 -10 6 -10 14 0 8 -3 16 -7 18 -7 3 -34 49 -82 143 -9
16 -19 32 -22 35 -3 3 -12 20 -20 37 -8 18 -17 33 -21 33 -5 0 -8 9 -8 19 0
11 -4 23 -10 26 -5 3 -29 45 -52 93 -24 48 -46 89 -50 90 -5 2 -8 12 -8 23 0
10 -3 19 -8 19 -4 0 -12 10 -17 23 -10 21 -14 22 -173 22 l-164 0 6 -110 c10
-193 19 -437 20 -537 1 -54 3 -98 6 -98 3 0 6 -26 6 -58 2 -72 13 -372 20
-522 3 -63 6 -154 8 -202 1 -48 5 -90 8 -93 3 -4 2 -19 -2 -35 -4 -16 -6 -31
-3 -34 3 -3 7 -52 9 -108 8 -249 13 -328 19 -338 3 -5 1 -10 -5 -10 -6 0 -8
-5 -4 -12 6 -10 11 -100 17 -323 1 -44 6 -86 10 -92 5 -8 4 -13 -2 -13 -7 0
-7 -8 -1 -26 7 -18 7 -23 -2 -18 -7 4 -8 3 -4 -4 7 -11 12 -94 21 -337 3 -66
8 -187 11 -270 3 -82 7 -183 8 -222 0 -40 3 -73 6 -73 3 0 6 -51 6 -113 1
-101 5 -204 19 -522 3 -55 7 -162 10 -238 2 -76 7 -142 10 -148 4 -5 64 -9
136 -9 l129 0 25 55 c13 31 24 58 24 60 1 3 15 33 32 68 126 251 241 360 404
384 68 10 228 5 300 -10 11 -3 41 -7 66 -11 44 -6 71 -11 114 -20 11 -2 61
-12 110 -21 50 -9 97 -19 105 -22 8 -3 26 -7 40 -9 14 -1 54 -10 90 -19 70
-17 103 -25 135 -30 11 -2 40 -9 65 -14 25 -6 56 -13 70 -15 14 -3 36 -8 50
-11 14 -3 34 -7 45 -9 11 -2 38 -9 60 -14 22 -6 56 -13 76 -16 20 -3 42 -8 50
-10 14 -5 52 -14 99 -22 50 -8 55 -10 68 -17 6 -5 12 -6 12 -4 0 2 21 0 48 -5
26 -5 61 -12 77 -15 17 -3 35 -9 41 -14 6 -5 13 -6 16 -4 3 3 27 1 54 -5 27
-6 67 -13 89 -16 22 -3 47 -8 55 -11 8 -3 29 -7 45 -9 17 -3 66 -11 110 -19
44 -8 92 -17 108 -19 15 -3 53 -10 85 -15 31 -6 73 -13 92 -15 19 -3 51 -8 70
-11 19 -4 51 -8 70 -10 19 -2 49 -7 65 -11 17 -3 50 -7 75 -9 25 -2 45 -4 45
-5 0 -1 14 -4 30 -6 40 -4 102 -12 145 -18 19 -2 62 -7 95 -10 33 -4 76 -8 95
-10 33 -4 97 -10 235 -21 33 -3 83 -7 111 -10 296 -26 1094 -26 1255 0 13 2
71 9 129 15 58 6 116 13 130 15 45 6 115 16 130 18 8 2 20 5 25 8 6 2 25 4 43
4 17 0 32 2 32 6 0 4 10 7 23 7 12 0 58 8 102 17 44 9 91 18 105 21 14 3 52
12 85 21 33 8 65 16 70 17 6 2 30 8 55 15 25 8 50 14 55 15 34 8 163 48 177
56 10 6 26 10 36 10 10 0 22 3 26 7 4 5 12 9 17 9 5 1 10 2 12 4 1 1 9 3 17 5
13 2 71 24 135 50 11 4 25 9 30 10 22 6 212 89 235 104 13 9 24 14 25 12 0 -6
80 34 87 44 4 6 8 6 8 2 0 -4 26 7 57 24 32 17 72 39 88 48 97 51 175 98 298
179 44 29 83 52 88 52 5 0 9 3 9 8 0 4 18 18 40 32 22 14 40 28 40 32 0 5 6 8
13 8 6 0 26 13 42 28 17 15 46 39 65 52 19 13 40 29 46 35 6 5 35 30 65 55
131 111 313 289 413 404 28 33 59 68 69 78 9 10 17 21 17 24 0 4 8 14 18 23
10 9 59 72 110 141 50 69 96 130 102 137 5 7 10 14 10 17 0 2 22 37 50 78 27
40 50 78 50 85 0 6 6 18 14 25 14 14 75 120 111 193 11 22 24 43 28 46 5 3 9
10 9 15 1 16 22 59 33 66 5 4 7 8 3 8 -3 0 7 27 22 59 32 65 99 220 106 246 4
13 82 225 91 245 3 8 5 18 5 22 -1 4 4 25 12 45 7 21 19 58 26 83 7 25 16 56
21 70 5 14 11 36 13 50 3 14 9 40 15 58 5 17 8 32 5 32 -3 0 0 8 5 19 6 10 12
36 15 57 2 21 5 39 6 39 1 0 3 7 5 15 2 8 6 26 9 40 12 58 18 87 21 120 2 19
4 35 5 35 3 0 10 39 14 75 2 19 5 35 6 35 1 0 3 23 6 50 2 28 7 57 10 65 3 8
7 42 9 75 2 33 6 78 9 100 21 155 29 725 13 930 -14 191 -21 265 -31 320 -3
17 -7 51 -10 77 -3 26 -9 64 -12 85 -4 21 -8 47 -9 58 -1 11 -3 20 -4 20 -3 0
-7 19 -15 70 -4 22 -9 48 -12 58 -3 11 -7 29 -9 40 -2 12 -6 33 -10 47 -3 14
-8 34 -10 45 -2 11 -8 35 -13 53 -6 18 -10 33 -10 35 1 1 -7 29 -17 62 -9 33
-18 65 -20 70 -1 6 -4 17 -7 25 -3 8 -18 51 -33 95 -14 44 -29 87 -32 95 -4 8
-7 17 -8 20 -6 16 -19 49 -31 77 -8 17 -14 34 -14 38 0 13 -148 323 -160 335
-3 3 -11 16 -18 30 -6 14 -18 34 -24 45 -124 196 -154 242 -167 252 -8 7 -12
13 -8 13 7 0 -14 28 -45 62 -10 10 -18 21 -18 26 0 4 -15 24 -33 44 -17 20
-42 49 -54 65 -12 15 -44 53 -72 83 -28 30 -51 56 -51 58 0 11 -297 289 -344
322 -12 8 -25 19 -31 25 -5 7 -39 34 -75 61 -35 27 -69 53 -75 57 -5 4 -41 30
-80 57 -38 27 -75 53 -81 57 -5 4 -19 13 -30 20 -10 7 -74 46 -140 88 -67 41
-125 75 -129 75 -5 0 -16 6 -24 14 -19 18 -451 237 -451 229 0 -3 -10 1 -22 9
-13 8 -75 36 -138 62 -63 27 -128 54 -145 62 -16 7 -59 24 -95 37 -36 14 -78
31 -95 37 -16 7 -36 14 -43 16 -8 1 -21 6 -30 10 -9 4 -21 8 -27 10 -5 2 -55
19 -110 39 -126 45 -206 72 -375 125 -74 23 -142 44 -150 47 -8 3 -20 7 -27 9
-6 1 -58 16 -115 33 -57 17 -128 38 -158 47 -30 8 -75 21 -100 29 -51 15 -127
36 -150 40 -8 2 -15 4 -15 5 0 1 -7 3 -15 5 -13 3 -94 25 -150 40 -8 2 -15 4
-15 5 0 2 -13 5 -51 14 -12 2 -52 13 -90 24 -38 11 -82 23 -99 28 -63 15 -263
71 -300 83 -16 6 -41 12 -55 15 -14 2 -38 9 -55 16 -16 6 -30 11 -30 10 0 -1
-13 3 -28 9 -16 6 -34 11 -41 11 -7 0 -39 9 -72 20 -32 11 -61 21 -64 22 -3 0
-9 2 -15 4 -114 35 -191 57 -195 57 -3 -1 -13 3 -23 9 -10 5 -26 11 -35 13
-19 4 -230 76 -307 104 -27 11 -86 33 -130 49 -85 32 -111 41 -123 42 -4 1
-14 8 -22 15 -8 7 -19 14 -25 14 -47 4 -434 192 -594 288 -20 12 -51 30 -68
39 -18 10 -33 21 -33 26 0 4 -5 8 -11 8 -6 0 -21 8 -34 18 -12 9 -33 24 -45
32 -122 81 -294 236 -395 356 -28 32 -53 61 -57 62 -5 2 -8 8 -8 14 0 5 -6 16
-12 23 -28 31 -88 120 -88 130 0 3 -11 23 -24 44 -14 21 -22 42 -19 45 4 3 2
6 -4 6 -8 0 -70 141 -89 205 -36 123 -43 149 -60 240 -20 105 -27 202 -25 350
1 134 3 165 16 265 15 121 69 325 110 415 7 17 23 52 35 80 26 59 110 209 137
244 7 9 32 43 57 76 70 94 138 168 228 250 95 87 116 104 122 98 3 -4 6 -1 6
5 0 5 16 20 35 32 20 12 41 27 48 34 6 6 46 31 87 56 41 24 77 47 80 50 8 8
64 34 72 32 3 -1 12 5 18 13 7 8 16 15 21 15 4 0 37 13 72 30 84 39 247 101
270 103 9 1 17 5 17 10 0 4 4 6 9 3 5 -3 24 1 43 8 19 8 48 17 64 20 16 2 30
5 32 6 4 4 16 7 70 15 28 4 52 12 52 17 0 5 4 7 9 4 5 -4 31 -2 58 4 60 12
101 18 178 26 33 3 89 10 125 14 68 9 517 6 560 -3 14 -3 50 -8 80 -11 50 -5
88 -11 145 -21 11 -2 54 -11 95 -20 41 -9 86 -19 100 -22 40 -8 43 -9 90 -23
206 -60 588 -214 598 -241 2 -5 9 -9 16 -9 7 0 53 -23 102 -52 49 -28 99 -56
111 -62 13 -6 23 -14 23 -18 0 -5 7 -8 15 -8 8 0 15 -4 15 -10 0 -5 5 -10 10
-10 10 0 89 -50 142 -91 15 -11 30 -20 33 -19 4 1 12 -5 18 -12 7 -8 48 -41
92 -74 44 -32 85 -63 91 -69 7 -5 31 -26 54 -45 77 -65 123 -105 184 -160 89
-81 331 -326 406 -410 36 -40 70 -78 75 -84 14 -15 108 -126 131 -155 10 -13
24 -28 30 -35 13 -14 174 -221 234 -301 25 -33 48 -61 53 -63 4 -2 7 -9 7 -16
0 -7 11 -23 25 -36 14 -13 25 -28 25 -32 0 -5 6 -15 13 -22 6 -8 19 -24 27
-36 8 -12 20 -28 26 -34 6 -7 15 -22 18 -34 4 -12 11 -22 16 -22 5 0 17 -14
26 -32 9 -17 25 -40 35 -51 10 -11 21 -29 25 -39 3 -10 10 -18 15 -18 5 0 9
-5 9 -10 0 -12 41 -73 53 -78 4 -2 7 -8 7 -13 0 -4 27 -49 60 -98 33 -50 60
-94 60 -100 0 -5 3 -11 8 -13 7 -3 152 -232 193 -305 10 -17 28 -49 41 -70 13
-21 32 -55 43 -75 11 -21 23 -38 27 -38 5 0 8 -4 8 -8 0 -5 38 -75 85 -157 47
-81 85 -151 85 -156 0 -4 3 -9 8 -11 4 -1 24 -34 44 -73 l37 -70 153 0 153 0
-1 75 c-4 202 -13 422 -18 427 -2 3 -1 16 4 29 6 15 6 24 0 24 -6 0 -6 9 0 24
5 13 6 27 2 31 -4 3 -7 27 -8 53 -2 65 -15 450 -20 602 -2 69 -6 188 -8 265
-3 77 -5 140 -6 140 -1 0 -3 61 -5 135 -8 287 -14 430 -17 437 -2 4 -3 72 -3
150 0 79 -2 143 -5 143 -3 0 -5 55 -5 123 1 67 -3 127 -8 134 -4 6 -3 14 3 18
6 3 7 13 2 23 -4 9 -7 68 -7 129 0 62 -4 113 -9 113 -5 0 -3 6 3 13 6 8 9 16
6 19 -5 4 -8 87 -21 473 -3 110 -7 220 -8 245 l-1 45 -105 2 -104 1 -22 -31
c-12 -18 -20 -35 -18 -38 2 -4 -3 -9 -11 -13 -8 -3 -15 -10 -15 -16 0 -19 -59
-99 -112 -152 -47 -47 -145 -103 -199 -113 -149 -29 -299 -24 -519 19 -14 3
-54 12 -90 21 -35 9 -74 18 -85 20 -11 2 -20 4 -20 5 0 1 -7 3 -15 5 -19 3
-95 23 -135 35 -16 5 -50 14 -75 21 -25 6 -52 14 -60 17 -8 3 -24 7 -34 9 -11
2 -38 10 -60 17 -43 14 -190 56 -216 61 -8 2 -16 4 -17 5 -2 2 -6 3 -10 4 -5
1 -18 5 -31 10 -12 4 -32 9 -45 10 -12 2 -29 6 -37 9 -18 8 -236 66 -265 72
-11 2 -30 6 -42 9 -46 12 -60 15 -153 36 -52 11 -104 23 -115 25 -11 3 -31 7
-45 10 -14 3 -35 7 -46 9 -12 2 -39 7 -60 10 -22 4 -46 8 -54 11 -24 7 -72 15
-125 21 -27 3 -53 8 -58 11 -4 2 -29 7 -55 9 -26 3 -58 7 -72 9 -25 4 -97 14
-155 21 -16 2 -57 6 -90 9 -33 3 -76 7 -95 10 -19 4 -69 8 -110 11 -41 2 -102
6 -135 10 -67 6 -771 15 -776 9z"/>
</g>
</svg>
