<svg width="259" height="200" viewBox="0 0 259 200" fill="none" xmlns="http://www.w3.org/2000/svg">
<g clip-path="url(#clip0_320_5021)">
<path d="M0.0175781 196.888V94.6617L2.99232 90.7467C9.49743 82.19 19.2765 76.7705 29.9359 75.8046L74.7537 71.7699L128.239 86.5325V195.034C128.239 195.034 0.564657 197.436 0.0175781 196.888Z" fill="#1E7FB8"/>
<path d="M81.7119 157.148C82.3701 156.49 82.7206 155.61 82.7035 154.661C82.6864 153.721 82.3103 152.832 81.635 152.156L56.6488 127.17C56.6488 127.17 56.5805 127.119 56.5463 127.102C56.5463 127.102 56.5463 127.102 56.5463 127.093C49.8958 120.443 39.0825 120.443 32.4321 127.093L24.2772 135.248C11.8824 147.643 5.06104 164.115 5.06104 181.647V197.504C5.06104 197.615 5.10378 197.718 5.18071 197.795C5.25764 197.872 5.36022 197.914 5.47134 197.914L40.6468 197.547C40.869 197.547 41.0571 197.359 41.0571 197.136V180.203C43.3822 179.305 45.562 177.929 47.4425 176.057L52.238 171.253C52.315 171.176 52.3577 171.073 52.3577 170.962V164.816C52.3577 164.765 52.3492 164.713 52.3321 164.671C52.6483 164.44 52.9646 164.192 53.2467 163.91C54.6229 162.534 55.3752 160.704 55.3752 158.764C55.3752 157.96 55.2384 157.174 54.9905 156.43L67.4109 168.851C68.9581 170.398 70.984 171.167 73.0185 171.167C75.0529 171.167 77.0788 170.398 78.626 168.851C80.0194 167.457 80.0194 165.184 78.626 163.79L73.6938 158.858C74.5657 159.166 75.4632 159.337 76.3693 159.337C78.3268 159.337 80.2587 158.61 81.7204 157.148H81.7119Z" fill="white"/>
<path d="M91.183 76.9415L95.628 60.8625L68.8554 53.4684L63.1709 74.0266C60.5295 74.0608 57.9138 74.1804 55.3323 74.3685C56.4692 88.6267 64.2907 99.782 74.5399 100.492C84.507 101.175 93.5594 91.7468 96.8761 78.369C95.004 77.8476 93.1064 77.386 91.183 76.95V76.9415Z" fill="white"/>
<path d="M75.5573 101.372C75.1983 101.372 74.8478 101.363 74.4888 101.338C64.0857 100.62 55.6744 89.3106 54.4862 74.4283C54.4691 74.1975 54.5375 73.9753 54.6914 73.8043C54.8367 73.6334 55.0504 73.5222 55.2726 73.5051C57.6832 73.3256 60.1194 73.2145 62.5214 73.1718L68.035 53.229C68.1632 52.776 68.6248 52.511 69.0864 52.6307L95.859 60.0248C96.0813 60.0846 96.2608 60.2299 96.3719 60.4265C96.483 60.6232 96.5087 60.8539 96.4488 61.0762L92.2432 76.2918C94.0468 76.7107 95.6453 77.1124 97.1071 77.5228C97.5516 77.651 97.8165 78.104 97.7054 78.5485C94.3375 92.1657 85.3192 101.355 75.5487 101.355L75.5573 101.372ZM56.2728 75.1549C57.6319 88.755 65.2483 98.987 74.6084 99.6282C83.7549 100.252 92.4056 91.7895 95.8505 78.9588C94.3973 78.5656 92.7988 78.181 91.0037 77.7706C90.7729 77.7194 90.5763 77.574 90.4566 77.3774C90.337 77.1808 90.3028 76.9329 90.3626 76.7107L94.5768 61.4523L69.4539 54.5113L64.0002 74.2488C63.8977 74.6164 63.5643 74.8728 63.1882 74.8728C60.9058 74.8985 58.5807 74.9925 56.2728 75.1549Z" fill="black"/>
<path d="M90.4651 79.523L95.6196 60.8625L78.6174 56.161L71.4199 61.042C73.6766 69.3593 80.3271 76.0867 90.4566 79.523H90.4651Z" fill="black"/>
<path d="M62.983 34.0642C62.983 49.7709 75.7158 62.5037 91.4225 62.5037C107.129 62.5037 119.862 49.7709 119.862 34.0642V32.5512C119.862 16.8445 107.129 4.11164 91.4225 4.11164C75.7158 4.11164 62.983 16.8445 62.983 32.5512L62.983 34.0642Z" fill="black"/>
<path d="M84.4644 53.8873C97.5687 53.8873 108.202 43.262 108.202 30.1492V25.2938C108.202 12.1896 97.5772 1.55576 84.4644 1.55576C71.3602 1.55576 60.7263 12.1811 60.7263 25.2938V30.1492C60.7263 43.2534 71.3516 53.8873 84.4644 53.8873Z" fill="black"/>
<path d="M58.6062 22.755C58.5463 22.755 58.4865 22.755 58.4267 22.738C57.9651 22.6439 57.6659 22.1823 57.7685 21.7207C59.3242 14.395 62.8631 8.90712 68.2997 5.41094C73.9928 1.74381 81.7801 0.529977 89.1144 2.15412C89.576 2.25669 89.8666 2.70974 89.764 3.17134C89.6614 3.63294 89.1998 3.92357 88.7468 3.821C81.8485 2.29089 74.5569 3.41924 69.2315 6.84703C64.1966 10.0868 60.8971 15.2156 59.4439 22.0797C59.3584 22.4815 59.0079 22.755 58.6062 22.755Z" fill="black"/>
<path d="M64.9319 37.5347L59.7945 36.0046C56.6574 35.0729 54.8708 31.7733 55.8026 28.6361C56.7343 25.499 60.0339 23.7124 63.171 24.6442L68.3084 26.1743C71.4456 27.106 73.2321 30.4056 72.3004 33.5428C71.3687 36.6799 68.0691 38.4665 64.9319 37.5347Z" fill="white"/>
<path d="M66.6159 38.6374C65.9748 38.6374 65.3337 38.5434 64.6926 38.3553L59.5552 36.8252C57.8199 36.3124 56.3924 35.1498 55.529 33.5599C54.6657 31.9699 54.4776 30.1321 54.9905 28.3968C56.059 24.8152 59.8373 22.7636 63.4189 23.8321L68.5563 25.3622C70.2916 25.8751 71.7191 27.0377 72.5825 28.6276C73.4459 30.2176 73.6339 32.0554 73.121 33.7907C72.2491 36.7312 69.5394 38.6374 66.6245 38.6374H66.6159ZM65.1713 36.7141C67.8554 37.5091 70.6763 35.979 71.4712 33.3034C71.8559 32.0041 71.7106 30.6364 71.0695 29.4482C70.4284 28.26 69.3513 27.3881 68.0605 27.0035L62.9231 25.4734C60.2476 24.6784 57.4182 26.2085 56.6232 28.8841C56.2385 30.1834 56.3838 31.5511 57.0249 32.7392C57.6661 33.9274 58.7431 34.7993 60.0339 35.184L65.1713 36.7141Z" fill="black"/>
<path d="M109.143 48.9123L114.502 48.8097C117.776 48.7498 120.375 46.0486 120.315 42.7747C120.255 39.5008 117.554 36.9022 114.28 36.962L108.92 37.0646C105.646 37.1244 103.048 39.8256 103.108 43.0995C103.168 46.3735 105.869 48.9721 109.143 48.9123Z" fill="white"/>
<path d="M109.032 49.7671C107.271 49.7671 105.604 49.1003 104.33 47.8694C103.031 46.6128 102.287 44.9203 102.253 43.1166C102.184 39.3811 105.168 36.2867 108.903 36.2183L114.263 36.1157C117.964 36.0303 121.093 39.0306 121.161 42.7662C121.23 46.5017 118.246 49.5961 114.511 49.6645L109.151 49.7671C109.108 49.7671 109.066 49.7671 109.023 49.7671H109.032ZM114.391 37.8254C114.391 37.8254 114.331 37.8254 114.297 37.8254L108.937 37.9279C106.142 37.9792 103.911 40.2958 103.962 43.091C103.988 44.4416 104.535 45.7067 105.51 46.647C106.484 47.5873 107.766 48.1087 109.117 48.066L114.477 47.9634C117.272 47.9121 119.503 45.5956 119.452 42.8004C119.4 40.0393 117.135 37.8254 114.383 37.8254H114.391Z" fill="black"/>
<path d="M61.6408 45.3648C61.6408 58.9801 72.6763 70.0175 86.2893 70.0175C99.9023 70.0175 110.938 58.9801 110.938 45.3648V37.5433C110.938 23.9279 99.9023 12.8905 86.2893 12.8905C72.6763 12.8905 61.6408 23.9279 61.6408 37.5433L61.6408 45.3648Z" fill="white"/>
<path d="M86.2851 70.8723C72.2235 70.8723 60.7776 59.435 60.7776 45.3648V37.5347C60.7776 23.4731 72.2149 12.0272 86.2851 12.0272C100.355 12.0272 111.793 23.4645 111.793 37.5347V45.3648C111.793 59.4264 100.355 70.8723 86.2851 70.8723ZM86.2851 13.7453C73.1638 13.7453 62.4872 24.4219 62.4872 37.5433V45.3733C62.4872 58.4947 73.1638 69.1712 86.2851 69.1712C99.4065 69.1712 110.083 58.4947 110.083 45.3733V37.5433C110.083 24.4219 99.4065 13.7453 86.2851 13.7453Z" fill="black"/>
<path d="M112.143 36.7739V36.8167C107.895 33.9445 104.766 23.9432 104.766 12.0443V12.0015C109.015 14.8737 112.143 24.875 112.143 36.7739Z" fill="black"/>
<path d="M62.1795 33.3718C62.1367 33.3718 62.0854 33.3718 62.0342 33.3632C61.5726 33.2863 61.2563 32.8418 61.3332 32.3802C61.7948 29.6021 59.5039 28.1916 59.4783 28.1745C59.0765 27.9352 58.9397 27.4052 59.1876 27.0035C59.427 26.6017 59.957 26.4649 60.3587 26.7128C60.4955 26.7983 63.6668 28.7473 63.0172 32.6623C62.9488 33.0812 62.5812 33.3803 62.1709 33.3803L62.1795 33.3718Z" fill="black"/>
<path d="M111.75 45.5614C111.75 45.5614 111.69 45.5614 111.656 45.5614C111.186 45.5101 110.844 45.0913 110.895 44.6211C111.314 40.6719 114.895 39.6376 115.049 39.5948C115.502 39.4666 115.973 39.7316 116.101 40.1932C116.229 40.6462 115.964 41.1164 115.511 41.2446C115.4 41.2788 112.887 42.031 112.596 44.8006C112.553 45.2366 112.177 45.5614 111.75 45.5614Z" fill="black"/>
<path d="M93.6962 31.7135C93.3457 32.6367 95.1237 34.1753 97.671 35.1584C100.218 36.1414 102.578 36.1927 102.928 35.2695C103.279 34.3463 101.501 32.8076 98.9533 31.8246C96.4059 30.8416 94.0466 30.7988 93.6962 31.7135Z" fill="black"/>
<path d="M75.3776 30.3885C75.4459 31.3715 77.7112 32.0212 80.438 31.8331C83.1649 31.6451 85.319 30.6962 85.2506 29.7132C85.1822 28.7302 82.917 28.0805 80.1901 28.2686C77.4633 28.4566 75.3092 29.4055 75.3776 30.3885Z" fill="black"/>
<path d="M86.3621 47.0659C85.9261 47.0659 85.5586 46.741 85.5158 46.2965C85.4645 45.8264 85.8065 45.4075 86.2766 45.3562C86.9519 45.2879 87.5417 44.9459 87.9435 44.3989C88.3453 43.8518 88.4906 43.185 88.3538 42.5183L87.0459 36.1927C86.9519 35.7311 87.2511 35.278 87.7127 35.184C88.1743 35.09 88.6273 35.3892 88.7214 35.8507L90.0292 42.1763C90.26 43.3047 90.0036 44.4843 89.3283 45.4075C88.6444 46.3393 87.6016 46.9376 86.4561 47.0573C86.4305 47.0573 86.3963 47.0573 86.3706 47.0573L86.3621 47.0659Z" fill="black"/>
<path d="M82.5923 58.5118C81.823 58.5118 81.0879 58.3323 80.3955 57.9647C77.6003 56.4859 76.6514 52.4854 76.6087 52.3144C76.5061 51.8528 76.7882 51.3998 77.2498 51.2886C77.7114 51.1775 78.1644 51.4681 78.2756 51.9297C78.2756 51.9639 79.0876 55.3404 81.199 56.4517C82.0538 56.9047 83.0112 56.9133 84.131 56.4773C84.5755 56.3064 85.0628 56.5201 85.2423 56.9646C85.4132 57.4005 85.1995 57.8963 84.755 58.0758C84.0113 58.3665 83.2847 58.5118 82.6009 58.5118H82.5923Z" fill="black"/>
<path d="M78.3268 7.8557C73.4886 9.47984 69.2658 11.6254 66.1543 13.8821C66.2654 14.7626 66.4535 15.643 66.7441 16.5064C68.1204 20.6009 71.3515 23.6697 75.5401 25.3964C78.0704 24.9776 80.7801 24.3023 83.5411 23.3791C94.705 19.6264 102.586 13.1128 101.142 8.83019C99.7056 4.54759 89.4821 4.11163 78.3268 7.86425V7.8557Z" fill="black"/>
<path d="M112.964 20.9172C115.981 25.0374 116.776 29.5764 115.853 33.312C114.998 33.5428 114.109 33.6881 113.203 33.7479C108.895 34.0044 104.834 32.158 101.672 28.9182C102.809 26.1401 101.159 20.6437 97.3121 16.5235C89.2769 7.91555 103.903 8.55665 112.972 20.9172H112.964Z" fill="black"/>
<path d="M79.7373 37.5518C79.6603 39.2187 80.4639 40.612 81.5238 40.6548C82.5838 40.6975 83.507 39.3897 83.5754 37.7228C83.6523 36.0559 82.8488 34.6626 81.7888 34.6198C80.7289 34.5771 79.8057 35.8849 79.7373 37.5518Z" fill="black"/>
<path d="M95.3288 41.3044C95.2519 42.9713 96.0554 44.3647 97.1154 44.4074C98.1753 44.4502 99.0985 43.1423 99.1669 41.4754C99.2439 39.8085 98.4403 38.4152 97.3804 38.3724C96.3204 38.3297 95.3972 39.6376 95.3288 41.3044Z" fill="black"/>
<path d="M96.842 7.73604C96.842 7.73604 96.8078 7.73604 96.7907 7.73604C96.3205 7.71039 95.9615 7.30009 95.9872 6.82994C96.1923 3.57311 92.1918 1.64979 92.1491 1.63269C91.7217 1.43609 91.5336 0.9232 91.7388 0.495795C91.9439 0.0683896 92.4482 -0.119669 92.8757 0.0854859C93.0808 0.179515 97.9789 2.5046 97.6968 6.94106C97.6711 7.39411 97.295 7.74459 96.842 7.74459V7.73604Z" fill="black"/>
<path d="M97.1497 5.81272C97.107 5.81272 97.0557 5.81272 97.013 5.80417C96.5514 5.72724 96.2351 5.29128 96.3035 4.82114C96.6881 2.45331 98.5431 1.76946 99.4748 1.73527C99.9535 1.72672 100.347 2.08574 100.355 2.55589C100.372 3.02604 100.005 3.41925 99.5432 3.43634C99.321 3.45344 98.2354 3.59876 97.9875 5.09468C97.9191 5.51353 97.5601 5.81272 97.1412 5.81272H97.1497Z" fill="black"/>
<path d="M82.0624 26.6359C81.6692 26.6359 81.3187 26.3624 81.2247 25.9691C81.1221 25.5075 81.4128 25.0545 81.8744 24.9519C88.4735 23.4816 93.4485 20.3103 96.654 15.5405C96.919 15.1472 97.449 15.0447 97.8422 15.3097C98.2354 15.5746 98.338 16.1046 98.073 16.4978C94.611 21.6523 89.2856 25.0545 82.2419 26.6273C82.1821 26.6444 82.1137 26.6444 82.0539 26.6444L82.0624 26.6359Z" fill="black"/>
<path d="M64.7012 18.8058L64.0515 34.7822L66.6416 35.4746L73.121 17.0706L64.7012 18.8058Z" fill="black"/>
<path d="M52.3577 125.965V101.757C52.3577 94.3882 58.3329 88.4131 65.7013 88.4131H244.776C252.144 88.4131 258.119 94.3882 258.119 101.757V199.145H52.3577L52.144 166.141L52.3577 125.956V125.965Z" fill="white"/>
<path d="M52.3576 200C51.8874 200 51.5028 199.624 51.5028 199.154L51.2891 166.15C51.2891 165.679 51.6652 165.295 52.1353 165.286C52.6311 165.295 52.9901 165.662 52.9987 166.132L53.2124 199.137C53.2124 199.607 52.8363 199.991 52.3661 200H52.3576Z" fill="black"/>
<path d="M258.128 200C257.658 200 257.273 199.615 257.273 199.145V101.757C257.273 94.8669 251.665 89.2678 244.784 89.2678H65.7013C58.8116 89.2678 53.2126 94.8754 53.2126 101.757V125.965C53.2126 126.435 52.8279 126.82 52.3577 126.82C51.8876 126.82 51.5029 126.435 51.5029 125.965V101.757C51.5029 93.9266 57.8713 87.5582 65.7013 87.5582H244.776C252.606 87.5582 258.974 93.9266 258.974 101.757V199.145C258.974 199.615 258.589 200 258.119 200H258.128Z" fill="black"/>
<path d="M64.9831 103.552C62.5383 103.552 60.5552 101.569 60.5552 99.1238C60.5552 96.6791 62.5383 94.6959 64.9831 94.6959C67.4279 94.6959 69.411 96.6791 69.411 99.1238C69.411 101.569 67.4279 103.552 64.9831 103.552ZM64.9831 96.4055C63.4872 96.4055 62.2648 97.6279 62.2648 99.1238C62.2648 100.62 63.4872 101.842 64.9831 101.842C66.479 101.842 67.7014 100.62 67.7014 99.1238C67.7014 97.6279 66.479 96.4055 64.9831 96.4055Z" fill="black"/>
<path d="M77.0104 103.552C74.5657 103.552 72.5825 101.569 72.5825 99.1238C72.5825 96.6791 74.5657 94.6959 77.0104 94.6959C79.4552 94.6959 81.4384 96.6791 81.4384 99.1238C81.4384 101.569 79.4552 103.552 77.0104 103.552ZM77.0104 96.4055C75.5145 96.4055 74.2921 97.6279 74.2921 99.1238C74.2921 100.62 75.5145 101.842 77.0104 101.842C78.5064 101.842 79.7287 100.62 79.7287 99.1238C79.7287 97.6279 78.5064 96.4055 77.0104 96.4055Z" fill="black"/>
<path d="M89.029 103.552C86.5842 103.552 84.6011 101.569 84.6011 99.1238C84.6011 96.6791 86.5842 94.6959 89.029 94.6959C91.4738 94.6959 93.4569 96.6791 93.4569 99.1238C93.4569 101.569 91.4738 103.552 89.029 103.552ZM89.029 96.4055C87.5331 96.4055 86.3107 97.6279 86.3107 99.1238C86.3107 100.62 87.5331 101.842 89.029 101.842C90.5249 101.842 91.7473 100.62 91.7473 99.1238C91.7473 97.6279 90.5249 96.4055 89.029 96.4055Z" fill="black"/>
<path d="M250.289 107.065H56.606V108.775H250.289V107.065Z" fill="black"/>
<path d="M76.3607 159.756C74.2151 159.756 72.0439 158.918 70.3855 157.259C70.0607 156.935 70.0607 156.413 70.3855 156.088C70.7104 155.764 71.2318 155.764 71.5566 156.088C74.1638 158.696 78.3267 158.781 80.8399 156.268C81.2587 155.849 81.481 155.285 81.4724 154.678C81.4639 154.062 81.2074 153.473 80.7629 153.028L55.7768 128.042C55.452 127.717 55.452 127.196 55.7768 126.871C56.1017 126.546 56.6231 126.546 56.9479 126.871L81.934 151.857C82.6863 152.609 83.1051 153.601 83.1222 154.644C83.1393 155.704 82.7461 156.687 82.0024 157.43C80.4552 158.978 78.4207 159.747 76.3607 159.747V159.756Z" fill="black"/>
<path d="M73.0013 171.595C70.7702 171.595 68.676 170.731 67.1031 169.15L38.6037 140.65C38.2789 140.326 38.2789 139.804 38.6037 139.479C38.9286 139.155 39.45 139.155 39.7748 139.479L68.2742 167.979C70.8814 170.586 75.1212 170.586 77.7369 167.979C78.6516 167.064 78.6516 165.585 77.7369 164.671L46.0235 132.957C45.6987 132.632 45.6987 132.111 46.0235 131.786C46.3483 131.461 46.8697 131.461 47.1946 131.786L78.908 163.5C80.4638 165.055 80.4638 167.586 78.908 169.15C77.3352 170.723 75.2409 171.595 73.0098 171.595H73.0013Z" fill="black"/>
<path d="M48.075 166.457C46.4851 166.457 44.8866 165.97 43.5445 164.987C43.177 164.713 43.1 164.201 43.365 163.833C43.6386 163.465 44.1515 163.388 44.519 163.653C46.8954 165.397 50.2719 165.141 52.3576 163.047C54.7169 160.687 54.7169 156.858 52.3576 154.498L37.9113 140.052C37.5865 139.727 37.5865 139.206 37.9113 138.881C38.2362 138.556 38.7576 138.556 39.0824 138.881L53.5287 153.327C56.5291 156.328 56.5291 161.209 53.5287 164.209C52.0499 165.688 50.0667 166.449 48.075 166.449V166.457Z" fill="black"/>
<path d="M31.3121 164.978C31.0984 164.978 30.8932 164.901 30.7308 164.739L22.5332 156.541C22.2083 156.217 22.2083 155.695 22.5332 155.37C22.858 155.046 23.3794 155.046 23.7043 155.37L31.9019 163.568C32.2267 163.893 32.2267 164.414 31.9019 164.739C31.7395 164.901 31.5258 164.978 31.3206 164.978H31.3121Z" fill="black"/>
<path d="M34.7741 173.629C32.3208 173.629 30.0128 172.672 28.2861 170.936L23.0205 165.671C22.7811 165.431 22.7127 165.064 22.8495 164.756C22.9093 164.619 24.3283 161.457 27.7732 160.448C28.2092 160.32 28.6708 160.568 28.799 161.004C28.9272 161.44 28.6793 161.901 28.2433 162.029C26.2687 162.611 25.1147 164.149 24.636 164.936L29.4657 169.765C30.8847 171.184 32.7824 171.971 34.7912 171.971C36.8 171.971 38.6891 171.184 40.1167 169.765C43.0487 166.833 43.0487 162.055 40.1167 159.123L30.3633 149.37C30.0384 149.045 30.0384 148.523 30.3633 148.198C30.6881 147.874 31.2095 147.874 31.5344 148.198L41.2878 157.952C44.8694 161.534 44.8694 167.355 41.2878 170.936C39.5525 172.672 37.2445 173.629 34.7997 173.629H34.7741Z" fill="black"/>
<path d="M34.3638 181.887C29.5256 181.887 24.6874 180.04 21.0031 176.364C20.6783 176.04 20.6783 175.518 21.0031 175.193C21.328 174.869 21.8494 174.869 22.1742 175.193C28.893 181.921 39.8346 181.921 46.562 175.193L51.3575 170.389C51.6823 170.065 52.2037 170.065 52.5286 170.389C52.8534 170.714 52.8534 171.236 52.5286 171.56L47.7331 176.364C44.0488 180.049 39.2106 181.887 34.3724 181.887H34.3638Z" fill="black"/>
<path d="M5.47126 198.333C5.01821 198.333 4.64209 197.966 4.64209 197.504V181.647C4.64209 164.012 11.5148 147.429 23.9779 134.957L32.1328 126.803C35.4324 123.503 39.8175 121.691 44.4848 121.691C49.1521 121.691 53.5373 123.512 56.8368 126.803C57.1616 127.127 57.1616 127.649 56.8368 127.974C56.512 128.299 55.9906 128.299 55.6657 127.974C49.5025 121.81 39.4671 121.81 33.3039 127.974L25.149 136.129C12.9936 148.284 6.29187 164.457 6.29187 181.647V197.504C6.29187 197.957 5.92431 198.333 5.46271 198.333H5.47126Z" fill="black"/>
<path d="M40.6382 197.974C40.1852 197.974 39.8091 197.607 39.8091 197.145V181.023C39.8091 180.57 40.1767 180.194 40.6382 180.194C41.0998 180.194 41.4674 180.562 41.4674 181.023V197.145C41.4674 197.598 41.0998 197.974 40.6382 197.974Z" fill="black"/>
<path d="M150.379 121.588H87.157V123.298H150.379V121.588Z" fill="black"/>
<path d="M102.843 129.034H92.3884V130.743H102.843V129.034Z" fill="black"/>
<path d="M102.843 136.488H92.3884V138.197H102.843V136.488Z" fill="black"/>
<path d="M102.843 143.933H92.3884V145.643H102.843V143.933Z" fill="black"/>
<path d="M155.371 129.034H123.281V130.743H155.371V129.034Z" fill="black"/>
<path d="M155.371 136.488H123.281V138.197H155.371V136.488Z" fill="black"/>
<path d="M155.371 143.933H123.281V145.643H155.371V143.933Z" fill="black"/>
<path d="M114.725 129.034H107.356V130.743H114.725V129.034Z" fill="black"/>
<path d="M114.725 136.488H107.356V138.197H114.725V136.488Z" fill="black"/>
<path d="M114.725 143.933H107.356V145.643H114.725V143.933Z" fill="black"/>
<path d="M119.862 129.034H117.905V130.743H119.862V129.034Z" fill="black"/>
<path d="M119.862 136.488H117.905V138.197H119.862V136.488Z" fill="black"/>
<path d="M119.862 143.933H117.905V145.643H119.862V143.933Z" fill="black"/>
<path d="M89.3538 129.034H87.3962V130.743H89.3538V129.034Z" fill="black"/>
<path d="M89.3538 136.488H87.3962V138.197H89.3538V136.488Z" fill="black"/>
<path d="M89.3538 143.933H87.3962V145.643H89.3538V143.933Z" fill="black"/>
<path d="M108.553 158.832H92.3884V160.542H108.553V158.832Z" fill="black"/>
<path d="M155.371 158.832H130.889V160.542H155.371V158.832Z" fill="black"/>
<path d="M122.332 158.832H113.066V160.542H122.332V158.832Z" fill="black"/>
<path d="M127.47 158.832H125.512V160.542H127.47V158.832Z" fill="black"/>
<path d="M232.141 173.723H156.32V175.433H232.141V173.723Z" fill="black"/>
<path d="M150.379 173.723H114.015V175.433H150.379V173.723Z" fill="black"/>
<path d="M208.378 158.832H183.896V160.542H208.378V158.832Z" fill="black"/>
<path d="M175.331 158.832H162.26V160.542H175.331V158.832Z" fill="black"/>
<path d="M180.477 158.832H178.519V160.542H180.477V158.832Z" fill="black"/>
<path d="M212.797 158.832H210.84V160.542H212.797V158.832Z" fill="black"/>
<path d="M89.3538 158.832H87.3962V160.542H89.3538V158.832Z" fill="black"/>
<path d="M108.553 188.622H92.3884V190.332H108.553V188.622Z" fill="black"/>
<path d="M89.3538 188.622H87.3962V190.332H89.3538V188.622Z" fill="black"/>
<path d="M113.596 188.622H111.639V190.332H113.596V188.622Z" fill="black"/>
<path d="M102.911 181.177H100.945V182.887H102.911V181.177Z" fill="black"/>
<path d="M110.451 166.278H100.945V167.987H110.451V166.278Z" fill="black"/>
<path d="M151.08 166.278H114.015V167.987H151.08V166.278Z" fill="black"/>
<path d="M210.044 129.034H177.955V130.743H210.044V129.034Z" fill="black"/>
<path d="M210.044 136.488H177.955V138.197H210.044V136.488Z" fill="black"/>
<path d="M210.044 143.933H177.955V145.643H210.044V143.933Z" fill="black"/>
<path d="M223.559 129.034H211.703V130.743H223.559V129.034Z" fill="black"/>
<path d="M220.431 136.488H211.703V138.197H220.431V136.488Z" fill="black"/>
<path d="M234.219 143.933H211.703V145.643H234.219V143.933Z" fill="black"/>
<path d="M169.398 129.034H162.03V130.743H169.398V129.034Z" fill="black"/>
<path d="M169.398 136.488H162.03V138.197H169.398V136.488Z" fill="black"/>
<path d="M169.398 143.933H162.03V145.643H169.398V143.933Z" fill="black"/>
<path d="M174.536 129.034H172.578V130.743H174.536V129.034Z" fill="black"/>
<path d="M174.536 136.488H172.578V138.197H174.536V136.488Z" fill="black"/>
<path d="M174.536 143.933H172.578V145.643H174.536V143.933Z" fill="black"/>
<path d="M232.885 129.034H230.927V130.743H232.885V129.034Z" fill="black"/>
<path d="M227.944 136.488H225.987V138.197H227.944V136.488Z" fill="black"/>
<path d="M240.783 143.933H238.826V145.643H240.783V143.933Z" fill="black"/>
<path d="M150.379 151.378H87.157V153.088H150.379V151.378Z" fill="black"/>
</g>
<defs>
<clipPath id="clip0_320_5021">
<rect width="258.965" height="200" fill="white" transform="translate(0.0175781)"/>
</clipPath>
</defs>
</svg>
