<svg width="25" height="24" viewBox="0 0 25 24" fill="none" xmlns="http://www.w3.org/2000/svg">
<path d="M14.0701 2H6.07007C5.53964 2 5.03093 2.21071 4.65585 2.58579C4.28078 2.96086 4.07007 3.46957 4.07007 4V20C4.07007 20.5304 4.28078 21.0391 4.65585 21.4142C5.03093 21.7893 5.53964 22 6.07007 22H18.0701C18.6005 22 19.1092 21.7893 19.4843 21.4142C19.8594 21.0391 20.0701 20.5304 20.0701 20V8L14.0701 2Z" stroke="#EBFF00" stroke-width="2" stroke-linecap="round" stroke-linejoin="round"/>
<path d="M14.0701 2V8H20.0701" stroke="#EBFF00" stroke-width="2" stroke-linecap="round" stroke-linejoin="round"/>
<path d="M16.0701 13H8.07007" stroke="#EBFF00" stroke-width="2" stroke-linecap="round" stroke-linejoin="round"/>
<path d="M16.0701 17H8.07007" stroke="#EBFF00" stroke-width="2" stroke-linecap="round" stroke-linejoin="round"/>
<path d="M10.0701 9H9.07007H8.07007" stroke="#EBFF00" stroke-width="2" stroke-linecap="round" stroke-linejoin="round"/>
</svg>
