<svg width="60" height="60" viewBox="0 0 60 60" fill="none" xmlns="http://www.w3.org/2000/svg">
<path d="M46.2055 13.8039C46.989 14.5873 48.2668 14.5873 49.0502 13.8039C49.8337 13.0204 49.8337 11.7426 49.0502 10.9592C48.2668 10.1757 46.989 10.1757 46.2055 10.9592C45.4221 11.7426 45.4221 13.0204 46.2055 13.8039Z" fill="#1E7FB8"/>
<path d="M33.1853 17.6559C33.5303 18.001 33.7915 18.4114 33.9501 18.8404L35.8434 16.947H38.6135L33.9314 21.6292C33.521 22.0395 33.521 22.7111 33.9314 23.1215C34.3418 23.5318 35.0133 23.5318 35.4237 23.1215L39.826 18.7192C40.0312 18.9896 40.255 19.2601 40.4975 19.5026C40.74 19.7451 41.0012 19.969 41.281 20.1742L36.8787 24.5765C36.4683 24.9868 36.4683 25.6584 36.8787 26.0688C37.2891 26.4791 37.9606 26.4791 38.371 26.0688L43.0531 21.3867V24.1567L41.1598 26.0501C41.5888 26.2087 41.9992 26.4698 42.3443 26.8149C43.65 28.1207 43.65 30.2379 42.3443 31.5436L45.59 34.7894L55.7843 24.5951C61.3991 18.9803 61.4085 9.83061 55.7843 4.21581C53.0609 1.49235 49.4421 -0.00927734 45.59 -0.00927734C41.738 -0.00927734 38.1192 1.49235 35.3957 4.21581L25.2014 14.4101L28.4472 17.6559C29.7529 16.3501 31.8702 16.3501 33.1759 17.6559H33.1853ZM41.6074 10.3902H43.9765C47.8845 6.83667 51.9696 5.1485 53.4153 6.59417C54.861 8.03984 53.1728 12.125 49.6193 16.033V18.402C49.6193 19.3627 49.1063 20.2488 48.2762 20.7244L44.6853 22.795V19.8664C43.5754 19.7078 42.5028 19.2042 41.6541 18.3461C40.8053 17.488 40.2924 16.4247 40.1338 15.3148H37.2051L39.2757 11.724C39.7514 10.8939 40.6374 10.3809 41.5981 10.3809L41.6074 10.3902Z" fill="#1E7FB8"/>
<path d="M23.7556 15.8652L33.2224 25.332L23.3173 35.2372C20.5005 38.0539 16.6858 39.6302 12.7126 39.6302H0L23.7556 15.8746V15.8652Z" fill="#1E7FB8"/>
<path d="M24.7723 36.692L34.6775 26.7869L44.1443 36.2537L33.7728 46.6252V60H20.3887V47.2967C20.3887 43.3141 21.9649 39.4994 24.7816 36.692H24.7723Z" fill="#1E7FB8"/>
</svg>
