<svg width="240" height="201" viewBox="0 0 240 201" fill="none" xmlns="http://www.w3.org/2000/svg">
<path d="M144.985 129.33C163.733 129.33 178.932 114.132 178.932 95.3832C178.932 76.6348 163.733 61.4362 144.985 61.4362C126.236 61.4362 111.037 76.6348 111.037 95.3832C111.037 114.132 126.236 129.33 144.985 129.33Z" fill="black"/>
<path d="M197.758 91.6802C208.292 87.3168 213.295 75.2401 208.931 64.706C204.568 54.1719 192.491 49.1695 181.957 53.5329C171.423 57.8963 166.421 69.973 170.784 80.5071C175.147 91.0412 187.224 96.0436 197.758 91.6802Z" fill="black"/>
<path d="M131.066 92.3129L185.168 63.09C191.625 59.6003 199.68 61.7685 203.51 68.0277L213.868 84.9379L168.962 114.406L131.066 92.305V92.3129Z" fill="#1E7FB8"/>
<path d="M164.287 76.2169C181.608 69.0422 189.834 49.1843 182.659 31.863C175.484 14.5417 155.626 6.31626 138.305 13.491C120.984 20.6657 112.758 40.5236 119.933 57.8449C127.108 75.1662 146.966 83.3916 164.287 76.2169Z" fill="black"/>
<path d="M140.529 66.7059C141.566 66.7851 142.579 66.7376 143.584 66.5951L147.469 82.358L137.712 87.0741L137.641 87.1137C142.5 95.549 148.996 100.716 156.142 100.716C168.407 100.716 178.773 85.5153 182.192 64.609C177.911 65.9542 173.764 67.9008 169.895 70.4884L166.01 54.7097C166.88 55.0183 167.79 55.1449 168.708 55.0262C173.013 54.4802 175.861 49.1627 174.943 43.2516C174.097 37.7916 170.14 33.748 166.128 34.2228C163.224 34.5631 160.985 37.0873 160.091 40.49C159.212 29.8865 152.565 21.467 143.908 20.826C134.025 20.098 125.257 29.7757 124.316 42.4445C123.382 55.1133 130.638 65.97 140.522 66.698L140.529 66.7059Z" fill="white"/>
<path d="M156.149 101.508C148.98 101.508 142.159 96.5384 136.96 87.5096C136.857 87.3276 136.826 87.106 136.881 86.9003C136.937 86.6945 137.071 86.5204 137.261 86.4175C137.277 86.4175 137.356 86.3622 137.372 86.3622L146.551 81.9229L142.99 67.4579C142.143 67.537 141.305 67.5528 140.482 67.4895C135.457 67.1176 130.923 64.2768 127.726 59.4894C124.568 54.7653 123.081 48.6881 123.548 42.3893C124.513 29.309 133.676 19.2911 143.987 20.0428C152.05 20.6363 158.666 27.7739 160.494 37.4357C161.791 35.1726 163.77 33.7087 166.049 33.4396C170.488 32.9174 174.832 37.2616 175.742 43.1331C176.304 46.7415 175.529 50.3736 173.661 52.8424C172.379 54.5517 170.702 55.5804 168.818 55.8177C168.249 55.889 167.679 55.8811 167.101 55.8019L170.409 69.2304C173.978 66.9593 177.863 65.1552 181.97 63.8653C182.231 63.7862 182.516 63.8416 182.722 64.0236C182.927 64.2056 183.03 64.4746 182.983 64.7516C179.382 86.742 168.605 101.524 156.149 101.524V101.508ZM138.764 87.4463C143.607 95.5017 149.756 99.9251 156.149 99.9251C167.378 99.9251 177.57 85.9507 181.194 65.7724C177.333 67.1018 173.685 68.9059 170.345 71.1533C170.132 71.2957 169.863 71.3274 169.617 71.2324C169.38 71.1374 169.198 70.9317 169.135 70.6864L165.249 54.9077C165.178 54.6229 165.273 54.3301 165.487 54.1323C165.701 53.9344 166.009 53.8791 166.278 53.974C167.069 54.251 167.853 54.3459 168.613 54.251C170.061 54.069 171.366 53.2539 172.387 51.9008C174.001 49.7643 174.666 46.5832 174.167 43.3863C173.384 38.3457 169.823 34.5949 166.223 35.0222C163.754 35.315 161.696 37.4911 160.858 40.7038C160.763 41.0757 160.415 41.3289 160.027 41.2894C159.639 41.2577 159.338 40.9491 159.307 40.5693C158.444 30.1953 151.948 22.2268 143.853 21.6254C134.428 20.9291 126.009 30.2981 125.114 42.508C124.679 48.4586 126.064 54.1797 129.031 58.6111C131.951 62.987 136.058 65.5746 140.592 65.9148C141.534 65.986 142.499 65.9465 143.473 65.8119C143.876 65.7565 144.256 66.0098 144.351 66.4054L148.236 82.1682C148.323 82.5322 148.149 82.9042 147.809 83.0703L138.757 87.4463H138.764Z" fill="black"/>
<path d="M161.191 36.5019C161.017 36.6364 160.843 36.7709 160.661 36.8976C150.595 44.0035 135.078 39.5722 126.017 27.0062C125.915 26.8638 125.82 26.7214 125.717 26.5789C128.66 23.2792 132.419 21.0081 136.732 20.2485C146.75 18.4839 156.609 25.4394 161.183 36.5019H161.191Z" fill="black"/>
<path d="M144.091 67.2599C143.735 67.2599 143.418 67.0225 143.323 66.6664C143.212 66.247 143.466 65.8118 143.893 65.701C148.878 64.4191 153.246 60.3993 155.865 54.6781C156.047 54.2825 156.514 54.1084 156.918 54.2904C157.313 54.4724 157.488 54.9393 157.306 55.3428C154.481 61.4992 149.741 65.8356 144.289 67.2441C144.225 67.2599 144.154 67.2678 144.091 67.2678V67.2599Z" fill="black"/>
<path d="M129.594 44.3597C130.013 44.8424 129.254 46.1718 127.908 47.3271C126.563 48.4824 125.131 49.0205 124.719 48.5378C124.3 48.0551 125.06 46.7257 126.405 45.5704C127.75 44.4151 129.182 43.877 129.594 44.3597Z" fill="black"/>
<path d="M145.459 43.9957C145.435 44.787 143.639 45.3884 141.439 45.333C139.239 45.2776 137.475 44.5892 137.499 43.7899C137.522 42.9986 139.319 42.3972 141.518 42.4526C143.718 42.508 145.483 43.1965 145.459 43.9957Z" fill="black"/>
<path d="M134.611 55.0424C134.469 55.0424 134.327 55.0028 134.2 54.9237C133.179 54.2985 132.562 53.167 132.586 51.9721L132.681 46.7732C132.689 46.338 133.061 45.9819 133.488 45.9977C133.923 46.0056 134.271 46.3696 134.263 46.8049L134.168 52.0037C134.153 52.6526 134.477 53.2382 135.031 53.5784C135.403 53.8079 135.521 54.2985 135.292 54.6704C135.142 54.9158 134.881 55.0503 134.619 55.0503L134.611 55.0424Z" fill="black"/>
<path d="M137.222 58.5239C136.707 58.5239 136.13 58.429 135.473 58.1916C135.061 58.0412 134.848 57.5902 134.998 57.1787C135.148 56.7672 135.591 56.5536 136.011 56.7039C137.942 57.3923 138.503 56.4111 138.598 56.2133C138.78 55.8176 139.239 55.6356 139.635 55.8097C140.031 55.9838 140.221 56.427 140.054 56.8305C139.77 57.519 138.867 58.5318 137.222 58.5318V58.5239Z" fill="black"/>
<path d="M164.126 45.3806C163.762 45.3806 163.438 45.1274 163.351 44.7554C162.852 42.4923 163.113 40.5932 164.11 39.0897C165.551 36.9294 168.004 36.4705 168.106 36.4467C168.534 36.3676 168.945 36.6525 169.024 37.0877C169.103 37.515 168.819 37.9265 168.391 38.0056C168.36 38.0056 166.468 38.3933 165.416 39.9839C164.672 41.1075 164.498 42.6031 164.894 44.4152C164.989 44.8425 164.72 45.2619 164.292 45.3568C164.237 45.3727 164.182 45.3727 164.118 45.3727L164.126 45.3806Z" fill="black"/>
<path d="M129.349 51.5763C129.405 52.51 128.961 53.2934 128.352 53.333C127.751 53.3726 127.213 52.6446 127.157 51.7108C127.102 50.7771 127.545 49.9937 128.154 49.9541C128.756 49.9145 129.294 50.6426 129.349 51.5763Z" fill="black"/>
<path d="M141.922 49.0521C141.977 49.9858 141.534 50.7692 140.925 50.8088C140.324 50.8484 139.786 50.1204 139.73 49.1866C139.675 48.2529 140.118 47.4695 140.727 47.4299C141.329 47.3903 141.867 48.1184 141.922 49.0521Z" fill="black"/>
<path d="M231.918 75.988H95.2359C91.3813 75.988 88.2566 79.1128 88.2566 82.9674V158.165C88.2566 162.02 91.3813 165.145 95.2359 165.145H231.918C235.773 165.145 238.898 162.02 238.898 158.165V82.9674C238.898 79.1128 235.773 75.988 231.918 75.988Z" fill="white"/>
<path d="M231.918 165.936H95.2358C90.9549 165.936 87.4652 162.454 87.4652 158.165V82.9673C87.4652 78.6864 90.947 75.1967 95.2358 75.1967H231.926C236.207 75.1967 239.697 78.6785 239.697 82.9673V158.165C239.697 162.446 236.215 165.936 231.926 165.936H231.918ZM95.2358 76.7793C91.8253 76.7793 89.0478 79.5568 89.0478 82.9673V158.165C89.0478 161.576 91.8253 164.353 95.2358 164.353H231.926C235.337 164.353 238.114 161.576 238.114 158.165V82.9673C238.114 79.5568 235.337 76.7793 231.926 76.7793H95.2358Z" fill="black"/>
<path d="M97.1746 86.8686C95.3467 86.8686 93.859 85.3809 93.859 83.553C93.859 81.7251 95.3467 80.2374 97.1746 80.2374C99.0025 80.2374 100.49 81.7251 100.49 83.553C100.49 85.3809 99.0025 86.8686 97.1746 86.8686ZM97.1746 81.828C96.2171 81.828 95.4416 82.6034 95.4416 83.5609C95.4416 84.5184 96.2171 85.2939 97.1746 85.2939C98.1321 85.2939 98.9075 84.5184 98.9075 83.5609C98.9075 82.6034 98.1321 81.828 97.1746 81.828Z" fill="black"/>
<path d="M105.664 86.8686C103.836 86.8686 102.349 85.3809 102.349 83.553C102.349 81.7251 103.836 80.2374 105.664 80.2374C107.492 80.2374 108.98 81.7251 108.98 83.553C108.98 85.3809 107.492 86.8686 105.664 86.8686ZM105.664 81.828C104.707 81.828 103.931 82.6034 103.931 83.5609C103.931 84.5184 104.707 85.2939 105.664 85.2939C106.622 85.2939 107.397 84.5184 107.397 83.5609C107.397 82.6034 106.622 81.828 105.664 81.828Z" fill="black"/>
<path d="M114.147 86.8686C112.32 86.8686 110.832 85.3809 110.832 83.553C110.832 81.7251 112.32 80.2374 114.147 80.2374C115.975 80.2374 117.463 81.7251 117.463 83.553C117.463 85.3809 115.975 86.8686 114.147 86.8686ZM114.147 81.828C113.19 81.828 112.415 82.6034 112.415 83.5609C112.415 84.5184 113.19 85.2939 114.147 85.2939C115.105 85.2939 115.88 84.5184 115.88 83.5609C115.88 82.6034 115.105 81.828 114.147 81.828Z" fill="black"/>
<path d="M87.9232 105.575L87.9627 111.019L84.3227 107.538C82.9142 106.192 82.0438 104.388 81.8618 102.449C81.7035 100.724 82.3128 99.8302 84.386 98.5641L95.3615 92.3524L95.86 94.932C96.2161 96.7758 95.5751 98.667 94.1903 99.9172L87.9311 105.575H87.9232Z" fill="white"/>
<path d="M87.9627 111.81C87.7649 111.81 87.5671 111.731 87.4167 111.589L83.7767 108.107C82.2337 106.627 81.2762 104.649 81.0705 102.521C80.8568 100.249 81.9251 99.1337 83.9666 97.8834L94.9658 91.6559C95.1874 91.5293 95.4564 91.5213 95.6859 91.6242C95.9154 91.735 96.0815 91.9407 96.129 92.194L96.6275 94.7736C97.0311 96.8706 96.2952 99.0625 94.7126 100.495L88.7145 105.915L88.754 111.003C88.754 111.32 88.572 111.613 88.2793 111.739C88.1764 111.787 88.0735 111.803 87.9627 111.803V111.81ZM94.7917 93.5787L84.7738 99.2445C82.8351 100.431 82.5265 101.096 82.6452 102.37C82.8113 104.119 83.5947 105.749 84.8687 106.96L87.1556 109.152L87.1319 105.583C87.1319 105.353 87.2268 105.14 87.393 104.989L93.6522 99.3315C94.8313 98.2712 95.3773 96.6411 95.0766 95.0822L94.7917 93.5787Z" fill="black"/>
<path d="M87.9709 112.736L88.0104 118.181L84.3704 114.699C82.9619 113.354 82.0915 111.549 81.9095 109.611C81.7512 107.886 82.7957 106.279 84.4337 105.725L98.424 100.78L98.6377 104.364C98.7485 106.216 97.7593 107.965 96.1134 108.819L87.9788 112.744L87.9709 112.736Z" fill="white"/>
<path d="M88.0181 118.972C87.8203 118.972 87.6225 118.893 87.4721 118.75L83.8321 115.269C82.2891 113.789 81.3237 111.811 81.1259 109.682C80.928 107.585 82.1862 105.646 84.1882 104.974L98.1706 100.028C98.408 99.9489 98.6612 99.9806 98.8749 100.115C99.0806 100.25 99.2151 100.479 99.223 100.724L99.4367 104.309C99.5633 106.469 98.408 108.511 96.4851 109.516L88.7778 113.235L88.8173 118.173C88.8173 118.489 88.6353 118.782 88.3426 118.909C88.2397 118.956 88.1368 118.972 88.026 118.972H88.0181ZM97.6958 101.872L84.6946 106.469C83.3811 106.912 82.566 108.171 82.6926 109.54C82.8588 111.288 83.6422 112.918 84.9162 114.129L87.2031 116.321L87.1793 112.752C87.1793 112.444 87.3534 112.167 87.6225 112.032L95.7571 108.107C97.1023 107.403 97.9332 105.947 97.8382 104.412L97.6879 101.88L97.6958 101.872Z" fill="black"/>
<path d="M88.0264 119.898L88.066 125.342L84.426 121.86C83.0175 120.515 82.147 118.711 81.965 116.772C81.8068 115.047 82.8513 113.441 84.4893 112.887L97.2926 108.416L97.5063 112C97.617 113.852 96.6279 115.601 94.982 116.455L88.0343 119.906L88.0264 119.898Z" fill="white"/>
<path d="M88.0737 126.125C87.8758 126.125 87.678 126.046 87.5277 125.904L83.8877 122.422C82.3446 120.942 81.3792 118.964 81.1814 116.836C80.9836 114.739 82.2417 112.8 84.2437 112.127L97.0392 107.656C97.2766 107.577 97.5298 107.609 97.7355 107.743C97.9413 107.878 98.0758 108.107 98.0837 108.353L98.2973 111.937C98.424 114.098 97.2686 116.139 95.3458 117.144L88.8333 120.388L88.8729 125.334C88.8729 125.651 88.6909 125.943 88.3981 126.07C88.2952 126.118 88.1924 126.133 88.0816 126.133L88.0737 126.125ZM96.5644 109.492L84.7502 113.623C83.4445 114.066 82.6216 115.324 82.7482 116.693C82.9144 118.442 83.6978 120.072 84.9718 121.283L87.2586 123.475L87.2349 119.906C87.2349 119.605 87.4011 119.328 87.6701 119.194L94.6178 115.744C95.9709 115.039 96.8018 113.583 96.7068 112.04L96.5565 109.508L96.5644 109.492Z" fill="black"/>
<path d="M88.0821 126.695L88.1216 132.139L84.4816 128.657C83.0731 127.312 82.2027 125.508 82.0207 123.569C81.8624 121.844 82.9069 120.238 84.5449 119.684L95.6549 115.933L95.8685 119.518C95.9793 121.369 94.9902 123.118 93.3443 123.973L88.09 126.703L88.0821 126.695Z" fill="white"/>
<path d="M88.1216 132.931C87.9238 132.931 87.726 132.851 87.5756 132.709L83.9356 129.227C82.3926 127.747 81.4272 125.769 81.2294 123.641C81.0315 121.544 82.2897 119.605 84.2917 118.932L95.4017 115.182C95.6391 115.102 95.8923 115.134 96.098 115.276C96.3038 115.411 96.4304 115.64 96.4462 115.886L96.6598 119.47C96.7864 121.631 95.6311 123.672 93.7083 124.677L88.8892 127.186L88.9288 132.139C88.9288 132.456 88.7468 132.749 88.454 132.875C88.3511 132.923 88.2483 132.938 88.1375 132.938L88.1216 132.931ZM94.919 117.009L84.7902 120.428C83.4925 120.863 82.6696 122.129 82.7962 123.49C82.9623 125.239 83.7457 126.869 85.0197 128.08L87.3066 130.272L87.2829 126.703C87.2829 126.402 87.449 126.133 87.7102 125.999L92.9644 123.269C94.3334 122.556 95.1564 121.1 95.0693 119.565L94.919 117.017V117.009Z" fill="black"/>
<path d="M175.695 73.2422L173.923 70.7021C173.29 69.7921 172.245 69.2461 171.137 69.2461H167.545C166.215 69.2461 165.013 70.0137 164.459 71.2244L162.916 74.5716C162.472 75.5291 162.504 76.6448 162.995 77.5785L165.725 82.7616H170.449C171.652 82.7616 172.767 82.1286 173.377 81.0919L175.838 76.9218C176.518 75.7744 176.463 74.3421 175.703 73.2501L175.695 73.2422Z" fill="white"/>
<path d="M170.441 83.5452H165.716C165.424 83.5452 165.155 83.379 165.02 83.1258L162.29 77.9427C161.689 76.7953 161.649 75.4105 162.195 74.2315L163.738 70.8843C164.419 69.4045 165.914 68.4471 167.544 68.4471H171.137C172.506 68.4471 173.788 69.1197 174.571 70.2433L176.344 72.7834C177.277 74.1286 177.349 75.9012 176.51 77.3097L174.049 81.4799C173.297 82.746 171.912 83.5373 170.441 83.5373V83.5452ZM166.191 81.9626H170.441C171.359 81.9626 172.221 81.4719 172.688 80.6806L175.149 76.5105C175.663 75.6321 175.624 74.5243 175.046 73.6934L173.273 71.1533C172.783 70.457 171.984 70.0376 171.137 70.0376H167.544C166.532 70.0376 165.598 70.6311 165.178 71.549L163.635 74.8962C163.295 75.6242 163.319 76.4867 163.699 77.2068L166.207 81.9626H166.191Z" fill="black"/>
<path d="M179.249 75.8694L185.453 75.9169L181.48 71.7626C179.945 70.1562 177.888 69.1592 175.68 68.9534C173.718 68.7714 171.882 69.9584 171.249 71.8338L165.607 87.7786L169.69 88.016C171.803 88.1426 173.789 87.011 174.77 85.1356L179.249 75.8615V75.8694Z" fill="white"/>
<path d="M170.006 88.8232C169.888 88.8232 169.769 88.8232 169.642 88.8152L165.559 88.5779C165.314 88.562 165.084 88.4354 164.95 88.2218C164.815 88.016 164.784 87.7549 164.863 87.5175L170.505 71.5727C171.257 69.357 173.425 67.9485 175.759 68.1701C178.157 68.3916 180.396 69.4757 182.058 71.2166L186.03 75.371C186.252 75.6004 186.307 75.9407 186.181 76.2335C186.054 76.5263 185.769 76.7083 185.453 76.7083L179.747 76.6608L175.49 85.4838C174.414 87.5492 172.301 88.8232 170.014 88.8232H170.006ZM166.707 87.0506L169.737 87.2326C171.534 87.3434 173.235 86.378 174.066 84.7796L178.537 75.5292C178.671 75.2523 178.948 75.0782 179.249 75.0782L183.577 75.1098L180.903 72.3086C179.502 70.8447 177.619 69.9347 175.601 69.7448C173.987 69.5944 172.507 70.5598 171.993 72.087L166.699 87.0506H166.707Z" fill="black"/>
<path d="M187.407 75.9328L193.611 75.9803L189.639 71.8259C188.103 70.2196 186.046 69.2225 183.838 69.0168C181.876 68.8348 180.04 70.0217 179.407 71.8971L174.311 86.4888L178.394 86.7262C180.507 86.8528 182.493 85.7212 183.474 83.8458L187.415 75.9249L187.407 75.9328Z" fill="white"/>
<path d="M178.711 87.5331C178.592 87.5331 178.474 87.5331 178.347 87.5252L174.264 87.2878C174.019 87.272 173.789 87.1454 173.655 86.9397C173.52 86.7339 173.481 86.4728 173.568 86.2433L178.664 71.6516C179.415 69.4281 181.568 68.0274 183.918 68.249C186.316 68.4706 188.555 69.5547 190.217 71.2955L194.189 75.4499C194.411 75.6794 194.466 76.0196 194.347 76.3124C194.221 76.6052 193.936 76.7872 193.619 76.7872L187.914 76.7397L184.195 84.2176C183.127 86.275 181.006 87.549 178.727 87.549L178.711 87.5331ZM175.403 85.7606L178.442 85.9426C180.23 86.0534 181.94 85.088 182.771 83.4896L186.703 75.5844C186.838 75.3154 187.115 75.1492 187.415 75.1492L191.744 75.1808L189.069 72.3796C187.669 70.9157 185.785 70.0057 183.768 69.8158C182.161 69.6654 180.674 70.6308 180.159 72.1581L175.403 85.7685V85.7606Z" fill="black"/>
<path d="M195.162 75.988L201.366 76.0355L197.393 71.8811C195.858 70.2748 193.801 69.2777 191.593 69.072C189.631 68.89 187.795 70.077 187.162 71.9524L182.889 84.6133L186.972 84.8506C189.085 84.9773 191.071 83.8457 192.052 81.9703L195.17 75.9801L195.162 75.988Z" fill="white"/>
<path d="M187.28 85.6578C187.161 85.6578 187.035 85.6578 186.916 85.6499L182.833 85.4125C182.588 85.3966 182.358 85.27 182.224 85.0643C182.089 84.8585 182.049 84.6053 182.129 84.3679L186.402 71.707C187.153 69.4756 189.314 68.0749 191.656 68.2965C194.054 68.5181 196.293 69.6022 197.955 71.343L201.927 75.4974C202.149 75.7269 202.204 76.0671 202.085 76.3599C201.959 76.6527 201.674 76.8347 201.357 76.8347L195.636 76.7872L192.748 82.3422C191.688 84.3838 189.567 85.6578 187.28 85.6578ZM183.964 83.8852L187.011 84.0672C188.799 84.178 190.509 83.2126 191.339 81.6142L194.457 75.624C194.592 75.3629 194.853 75.2046 195.169 75.1967L199.498 75.2284L196.823 72.4271C195.423 70.9632 193.539 70.0532 191.521 69.8633C189.907 69.7129 188.427 70.6783 187.913 72.2056L183.964 83.8852Z" fill="black"/>
<path d="M167.181 137.188H159.109V147.253H167.181V137.188Z" fill="black"/>
<path d="M183.324 119.067H175.252V147.261H183.324V119.067Z" fill="#1E7FB8"/>
<path d="M199.467 131.142H191.395V147.253H199.467V131.142Z" fill="black"/>
<path d="M215.61 100.938H207.538V147.253H215.61V100.938Z" fill="#1E7FB8"/>
<path d="M138.782 101.729H110.532C110.097 101.729 109.741 101.373 109.741 100.938C109.741 100.503 110.097 100.147 110.532 100.147H138.782C139.217 100.147 139.573 100.503 139.573 100.938C139.573 101.373 139.217 101.729 138.782 101.729Z" fill="black"/>
<path d="M124.657 106.105H110.532C110.097 106.105 109.741 105.749 109.741 105.314C109.741 104.879 110.097 104.523 110.532 104.523H124.657C125.092 104.523 125.448 104.879 125.448 105.314C125.448 105.749 125.092 106.105 124.657 106.105Z" fill="black"/>
<path d="M154.481 140.764C154.473 140.582 154.409 140.408 154.299 140.266C153.618 139.364 152.7 138.699 151.663 138.327L151.537 137.599C151.07 134.917 148.854 132.844 146.211 132.677C145.824 132.654 145.436 132.677 145.056 132.725C145.088 132.709 145.127 132.701 145.159 132.677C145.562 132.377 145.642 131.807 145.341 131.403L145.127 131.111C144.368 130.098 143.339 129.354 142.184 128.927L148.87 116.962C149.733 115.411 149.566 113.528 148.443 112.159C147.644 111.178 146.457 110.608 145.191 110.584C143.956 110.568 142.722 111.098 141.891 112.056L131.794 123.633L131.928 120.958C132.039 118.766 130.559 116.859 128.415 116.408C126.049 115.917 123.699 117.429 123.184 119.795L118.903 139.293C118.888 139.38 118.88 139.467 118.888 139.546L109.914 151.186L100.458 163.238C100.308 163.435 100.236 163.689 100.276 163.934C100.316 164.179 100.45 164.401 100.656 164.543L120.375 178.225C120.533 178.336 120.715 178.383 120.89 178.383C121.167 178.383 121.436 178.257 121.618 178.019L127.679 169.979L140.182 160.903C143.917 158.189 146.425 154.24 147.288 149.722L150.848 149.888C150.967 149.888 151.086 149.872 151.197 149.833C153.396 149.049 154.797 146.952 154.678 144.626L154.488 140.749L154.481 140.764Z" fill="white"/>
<path d="M119.782 140.282C119.727 140.282 119.671 140.282 119.608 140.266C119.181 140.171 118.912 139.752 119.007 139.324L123.288 119.827C123.794 117.524 126.081 116.052 128.384 116.535C130.473 116.97 131.913 118.838 131.81 120.966L131.549 126.323C131.525 126.759 131.153 127.091 130.718 127.075C130.283 127.051 129.943 126.679 129.966 126.244L130.227 120.887C130.291 119.542 129.381 118.363 128.059 118.086C126.603 117.777 125.155 118.719 124.839 120.175L120.558 139.673C120.479 140.045 120.146 140.298 119.782 140.298V140.282Z" fill="black"/>
<path d="M120.882 178.28C120.724 178.28 120.565 178.233 120.431 178.138L100.711 164.456C100.529 164.33 100.411 164.14 100.379 163.926C100.347 163.712 100.403 163.491 100.537 163.317L109.993 151.265L126.389 129.995L141.962 112.135C142.769 111.209 143.964 110.695 145.175 110.703C146.409 110.719 147.557 111.28 148.34 112.23C149.432 113.567 149.598 115.403 148.752 116.907L141.535 129.837C141.321 130.216 140.839 130.351 140.459 130.145C140.079 129.932 139.936 129.449 140.15 129.069L147.367 116.139C147.889 115.205 147.786 114.066 147.114 113.235C146.631 112.642 145.919 112.301 145.151 112.285C144.368 112.262 143.663 112.594 143.157 113.172L127.608 130.992L111.236 152.231L102.294 163.625L120.7 176.397L126.381 168.856C126.429 168.793 126.484 168.737 126.548 168.69L139.161 159.534C142.674 156.986 144.985 153.22 145.681 148.939C145.689 148.875 145.705 148.82 145.729 148.765C145.729 148.535 145.84 148.322 146.029 148.171L148.245 146.399C148.577 146.13 149.068 146.177 149.345 146.502C149.622 146.826 149.59 147.317 149.274 147.601L148.356 148.432L150.263 148.907C151.664 148.274 153.175 146.264 152.977 144.784L152.795 141.097C152.091 140.258 151.07 139.752 149.97 139.688C148.728 139.617 147.533 140.131 146.726 141.065L143.434 144.871C143.149 145.204 142.651 145.235 142.318 144.951C141.986 144.666 141.954 144.167 142.239 143.835L145.531 140.029C146.655 138.731 148.34 138.011 150.057 138.106C151.703 138.201 153.215 139.008 154.212 140.329C154.307 140.456 154.362 140.606 154.37 140.765L154.56 144.642C154.868 146.953 152.645 149.754 150.595 150.482C150.445 150.537 150.287 150.545 150.136 150.506L147.161 149.762C146.299 154.225 143.806 158.134 140.111 160.816L127.592 169.9L121.523 177.956C121.364 178.162 121.127 178.272 120.89 178.272L120.882 178.28Z" fill="black"/>
<path d="M131.904 136.587C131.722 136.587 131.54 136.523 131.39 136.397C131.057 136.112 131.026 135.613 131.311 135.281L135.141 130.85C136.423 129.37 138.353 128.555 140.3 128.658C142.175 128.76 143.9 129.686 145.032 131.19C145.056 131.221 145.072 131.253 145.095 131.285L145.744 132.472C145.958 132.852 145.815 133.334 145.428 133.548C145.04 133.762 144.565 133.619 144.351 133.231L143.734 132.1C142.888 130.992 141.606 130.319 140.213 130.24C138.741 130.161 137.293 130.77 136.335 131.886L132.506 136.317C132.347 136.499 132.126 136.594 131.904 136.594V136.587Z" fill="black"/>
<path d="M137.808 140.725C137.626 140.725 137.444 140.662 137.294 140.535C136.961 140.25 136.93 139.752 137.215 139.419L141.044 134.988C142.326 133.508 144.249 132.693 146.204 132.796C148.791 132.962 150.967 134.996 151.426 137.623L151.6 138.62C151.672 139.047 151.387 139.459 150.96 139.538C150.524 139.617 150.121 139.324 150.042 138.897L149.867 137.9C149.535 135.977 147.976 134.497 146.164 134.387C144.661 134.3 143.205 134.917 142.247 136.033L138.417 140.464C138.259 140.646 138.037 140.741 137.816 140.741L137.808 140.725Z" fill="black"/>
<path d="M80.699 176.903L101.756 160.057L124.561 177.6L118.246 199.353H83.5081L80.699 176.903Z" fill="white"/>
<path d="M90.5509 199.709H1.75842V150.442L18.542 147.19L21.4066 136.555L54.7364 143.922L55.0845 151.993L66.052 157.746C75.4369 161.813 84.3312 169.536 86.531 180.211L90.543 199.709H90.5509Z" fill="white"/>
<path d="M80.699 176.903L101.756 160.057L124.561 177.6L118.246 199.353H90.3608L80.699 176.903Z" fill="white"/>
<path d="M118.239 200.144H90.3614C89.9262 200.144 89.5701 199.788 89.5701 199.353C89.5701 198.917 89.9262 198.561 90.3614 198.561H117.646L123.644 177.9L101.756 161.069L81.1901 177.521C80.8499 177.797 80.3513 177.742 80.0744 177.394C79.7974 177.054 79.8528 176.555 80.201 176.278L101.25 159.439C101.535 159.21 101.938 159.21 102.223 159.431L125.028 176.975C125.29 177.172 125.4 177.513 125.305 177.821L118.991 199.574C118.896 199.914 118.579 200.144 118.231 200.144H118.239Z" fill="black"/>
<path d="M20.7653 152.515L52.4808 148.685L53.2088 116.796L23.606 116.115L20.7653 152.515Z" fill="white"/>
<path d="M20.7656 153.307C20.5598 153.307 20.3699 153.228 20.2195 153.085C20.0455 152.919 19.9584 152.689 19.9742 152.452L22.815 116.052C22.8467 115.633 23.2186 115.316 23.6222 115.324L53.2249 115.997C53.6601 116.004 54.0083 116.368 54.0004 116.804L53.2724 148.693C53.2645 149.089 52.9638 149.413 52.5761 149.461L20.8605 153.299C20.8605 153.299 20.7972 153.299 20.7656 153.299V153.307ZM24.3343 116.922L21.6281 151.613L51.6977 147.973L52.3941 117.563L24.3264 116.922H24.3343Z" fill="black"/>
<path d="M35.1355 76.5578C35.1355 76.5578 49.3157 88.3166 53.0111 86.8448C56.7065 85.3809 65.6562 79.8813 63.2902 73.1077C60.9242 66.3341 58.7876 68.7001 55.7648 69.4598C52.7421 70.2194 51.7054 62.8603 49.7193 63.0502C47.7331 63.2401 45.7865 64.6012 42.2652 67.7268C38.7439 70.8525 35.1434 76.5578 35.1434 76.5578H35.1355Z" fill="black"/>
<path d="M30.8784 127.771C24.0731 125.603 17.9959 120.839 14.2372 113.979C6.64067 100.099 11.5547 83.1968 24.817 75.5369C46.5858 62.971 60.7423 80.8624 62.2932 85.2621C62.6572 86.2908 63.0133 87.2878 63.3615 88.2532C64.137 89.7962 64.77 91.3789 65.2606 92.9852C66.772 96.2929 68.4338 98.6668 70.7365 99.4502C74.2657 100.661 72.3507 128.008 51.9034 125.999L30.8705 127.771H30.8784Z" fill="white"/>
<path d="M30.8785 128.562C30.7993 128.562 30.7202 128.547 30.6411 128.523C23.3532 126.204 17.2759 121.172 13.5489 114.351C5.80199 100.194 10.5815 82.8408 24.4293 74.8407C32.6906 70.0691 40.6986 69.072 48.2556 71.8574C56.5089 74.904 61.9689 81.9149 63.053 84.9852C63.4091 85.9981 63.7572 86.9793 64.1054 87.9289C64.8809 89.464 65.5219 91.0703 66.0125 92.6925C67.6267 96.2138 69.1619 98.0655 71.0056 98.6906C73.1975 99.4424 73.4033 105.013 72.3271 109.959C71.2905 114.73 69.1381 118.964 66.2657 121.884C62.507 125.698 57.6563 127.344 51.8323 126.774C51.397 126.735 51.0805 126.347 51.1201 125.912C51.1597 125.476 51.5553 125.16 51.9826 125.199C65.8938 126.568 69.8582 113.733 70.7366 109.769C72.0185 104 71.0531 100.392 70.4833 100.194C68.1886 99.4107 66.3606 97.2821 64.5406 93.3097C64.5248 93.2781 64.5169 93.2464 64.5011 93.2148C64.0263 91.648 63.4012 90.097 62.6573 88.6094C62.6415 88.5856 62.6336 88.554 62.6178 88.5223C62.2617 87.5569 61.9135 86.5599 61.5416 85.5233C60.8057 83.4422 55.9708 76.4074 47.6858 73.353C40.5957 70.7338 33.0387 71.6992 25.2048 76.2254C12.1087 83.7903 7.59034 100.202 14.9257 113.599C18.4629 120.056 24.2078 124.82 31.108 127.019C31.5274 127.154 31.7568 127.597 31.6223 128.016C31.5115 128.357 31.2029 128.57 30.8706 128.57L30.8785 128.562Z" fill="black"/>
<path d="M19.8632 70.7496C28.8445 65.8356 39.3056 66.1363 47.9387 70.6072C45.2483 71.2482 42.6212 72.2294 40.1048 73.5983C23.0522 82.9278 17.7425 106.05 28.251 125.247C28.8366 126.315 29.4617 127.336 30.1106 128.333C21.2717 126.687 13.1213 121.116 8.38134 112.451C0.143843 97.4008 5.27942 78.726 19.8553 70.7496H19.8632Z" fill="black"/>
<path d="M43.4768 86.3937C42.4877 82.2156 37.1305 82.7854 40.7152 80.7042C47.4967 76.7714 49.8785 68.6606 49.8785 68.6606C33.1898 64.158 15.9077 89.0921 15.9077 89.0921L20.2045 122.39L22.8475 130.121L31.267 129.393C34.0603 129.156 36.3788 127.122 36.9723 124.376L40.0979 110.046C39.9713 110.125 39.8447 110.212 39.7102 110.283C36.4975 112.04 32.4698 110.861 30.7131 107.648C28.9564 104.436 30.1354 100.408 33.3481 98.6511C36.5608 96.8944 40.5886 98.0734 42.3453 101.286C42.3532 101.302 42.3611 101.326 42.369 101.341C43.2711 101.009 45.3285 100.06 44.6084 98.3978C43.6984 96.3009 44.458 90.5718 43.4689 86.3937H43.4768Z" fill="black"/>
<path d="M66.3929 113.211C66.3929 113.211 66.3375 113.211 66.3059 113.211C63.4176 112.895 61.9537 110.275 61.8904 110.165C61.6767 109.785 61.8192 109.302 62.2069 109.088C62.5867 108.875 63.0694 109.017 63.2831 109.397C63.3068 109.437 64.4305 111.407 66.48 111.628C66.9152 111.676 67.2238 112.064 67.1763 112.499C67.1288 112.902 66.7886 113.203 66.3929 113.203V113.211Z" fill="black"/>
<path d="M39.5038 105.092C39.1794 105.092 38.8787 104.895 38.76 104.578C38.76 104.578 37.937 102.418 35.935 101.88C35.5156 101.769 35.2624 101.334 35.3732 100.914C35.484 100.495 35.9192 100.242 36.3465 100.353C39.1556 101.104 40.2002 103.913 40.2476 104.032C40.398 104.444 40.1843 104.895 39.7729 105.045C39.6858 105.077 39.5909 105.092 39.5038 105.092Z" fill="black"/>
<path d="M54.1272 91.4265C53.7395 91.4265 53.3992 91.1416 53.3438 90.7381C53.1618 89.377 54.0402 87.5491 55.4803 86.2909C57.0313 84.9299 58.9225 84.4709 60.7979 84.9853C61.2173 85.104 61.4705 85.5392 61.3518 85.9586C61.2331 86.378 60.7979 86.6312 60.3785 86.5125C58.5585 86.014 57.1817 86.9082 56.517 87.4858C55.3854 88.4749 54.8156 89.8043 54.9106 90.5244C54.966 90.9596 54.6653 91.3553 54.2301 91.4107C54.1905 91.4107 54.1589 91.4107 54.1272 91.4107V91.4265Z" fill="black"/>
<path d="M60.2051 95.1773C60.7036 95.8736 61.5108 96.1585 62.0172 95.7945C62.5236 95.4384 62.5236 94.5838 62.033 93.8795C61.5345 93.1832 60.7274 92.8983 60.2209 93.2623C59.7145 93.6184 59.7145 94.473 60.2051 95.1773Z" fill="black"/>
<path d="M52.9959 125.318L52.7665 135.526C48.4538 133.674 44.711 130.43 42.2817 125.999C41.3083 124.226 40.6199 122.374 40.1847 120.499C43.8405 123.458 48.351 125.128 52.9959 125.318Z" fill="black"/>
<path d="M1.75842 150.442L18.542 147.19L21.4066 136.555L54.7364 143.922L55.0845 151.993L66.052 157.746C75.4369 161.813 84.3312 169.536 86.531 180.211L90.543 199.709L1.75842 150.442Z" fill="white"/>
<path d="M90.5516 200.5C90.1876 200.5 89.8553 200.239 89.7762 199.867L85.7642 180.369C83.8968 171.285 76.411 163.103 65.7442 158.474L54.7213 152.697C54.4681 152.563 54.3098 152.309 54.3019 152.033L53.9775 144.57L21.9771 137.496L19.3104 147.403C19.2312 147.696 18.9938 147.918 18.6931 147.973L1.90953 151.225C1.48222 151.312 1.06283 151.028 0.9837 150.6C0.904569 150.173 1.18153 149.754 1.60883 149.674L17.9097 146.517L20.6477 136.357C20.7584 135.945 21.1699 135.7 21.5814 135.787L54.9112 143.154C55.2594 143.233 55.5126 143.534 55.5284 143.89L55.8608 151.502L66.4247 157.041C82.4249 163.981 86.3656 175.439 87.3073 180.045L91.3192 199.543C91.4062 199.97 91.1293 200.389 90.702 200.476C90.6466 200.484 90.5912 200.492 90.5437 200.492L90.5516 200.5Z" fill="black"/>
</svg>
