<svg width="245" height="200" viewBox="0 0 245 200" fill="none" xmlns="http://www.w3.org/2000/svg">
<path d="M75.1228 56.2856L116.368 59.9589C116.114 44.5376 105.322 30.7498 89.5963 27.3388C71.2549 23.3607 53.1589 35.0072 49.1809 53.3486C45.4483 70.5558 55.4694 87.543 71.8641 92.8668L75.1228 56.294V56.2856Z" fill="black"/>
<path d="M41.6309 94.9489C52.7048 94.9489 61.682 85.9717 61.682 74.8978C61.682 63.8239 52.7048 54.8467 41.6309 54.8467C30.557 54.8467 21.5798 63.8239 21.5798 74.8978C21.5798 85.9717 30.557 94.9489 41.6309 94.9489Z" fill="black"/>
<path d="M40.8353 93.3408C39.3456 93.3408 37.8475 93.18 36.3663 92.8584C30.907 91.6734 26.2433 88.4402 23.2217 83.7427C20.2001 79.0452 19.1845 73.459 20.3695 67.9997C21.5544 62.5404 24.7877 57.8768 29.4852 54.8551C34.1827 51.8335 39.7687 50.8178 45.228 52.0028C50.6873 53.1877 55.3509 56.421 58.3726 61.1185C61.3942 65.816 62.41 71.4022 61.225 76.8614C60.0401 82.3207 56.8068 86.9844 52.1093 90.006C48.6983 92.2066 44.8049 93.3408 40.8437 93.3408H40.8353ZM40.7505 53.2216C37.1026 53.2216 33.5308 54.2627 30.3907 56.2856C26.074 59.0617 23.1033 63.353 22.0114 68.3636C20.928 73.3743 21.8507 78.512 24.6353 82.8286C27.4115 87.1452 31.7025 90.116 36.7132 91.2079C41.7239 92.2997 46.8616 91.3687 51.1782 88.5925C55.4948 85.8164 58.4656 81.5251 59.5574 76.5144C60.6408 71.5038 59.7184 66.3661 56.9337 62.0495C54.1575 57.7329 49.8663 54.7621 44.8556 53.6702C43.4929 53.374 42.1132 53.2301 40.7421 53.2301L40.7505 53.2216Z" fill="black"/>
<path d="M85.8298 40.8811C78.3815 40.7711 71.7458 46.0272 67.7424 54.1188L67.6577 54.0849C67.226 50.3354 64.9409 47.2799 61.6569 46.5943C57.518 45.7225 53.1251 49.0997 51.864 54.1357C50.5013 59.5865 53.0912 64.8765 57.5263 65.8414C58.4743 66.0445 59.4308 66.0276 60.3534 65.8329L46.6924 104.09C45.0589 108.661 47.2597 113.705 51.7117 115.626L53.7684 116.515C61.3267 119.774 70.1799 114.788 73.5401 105.377L75.7408 99.2063C78.5085 101.128 81.6233 102.228 84.9243 102.279C96.85 102.448 106.719 88.8549 106.964 71.9016C107.21 54.9482 97.7386 41.0673 85.8128 40.8981L85.8298 40.8811Z" fill="white"/>
<path d="M58.6012 118.335C56.8323 118.335 55.0886 117.979 53.4551 117.277L51.3984 116.388C46.5485 114.298 44.1448 108.771 45.9138 103.794L59.1176 66.8232C58.5251 66.8486 57.9411 66.7893 57.3655 66.6624C55.2919 66.2138 53.4805 64.885 52.2702 62.9298C50.7044 60.3991 50.2558 57.1235 51.0599 53.9241C52.4311 48.4649 57.2725 44.8 61.843 45.7648C64.7546 46.3743 67.0397 48.6511 68.0385 51.7912C72.3382 44.3768 78.7792 40.0347 85.6181 40.0347C85.6943 40.0347 85.7705 40.0347 85.8551 40.0347C98.2295 40.2125 108.09 54.5081 107.844 71.9016C107.726 80.2724 105.305 88.1185 101.039 94.001C96.7059 99.9681 91.0183 103.176 84.9412 103.117C81.8857 103.074 78.9571 102.194 76.2063 100.493L74.3695 105.647C72.4651 110.98 68.7664 115.169 64.2212 117.15C62.393 117.946 60.4887 118.343 58.6182 118.343L58.6012 118.335ZM60.3703 64.9696C60.6157 64.9696 60.8443 65.0712 61.0051 65.2574C61.2082 65.4859 61.2674 65.8075 61.1658 66.1038L47.5049 104.361C46.0322 108.5 48.0298 113.096 52.0586 114.831L54.1153 115.72C57.0692 116.989 60.4041 116.947 63.5273 115.584C67.6493 113.79 71.0094 109.956 72.7529 105.072L74.9537 98.9016C75.0383 98.6562 75.2413 98.4615 75.4953 98.3769C75.7492 98.2922 76.0201 98.3345 76.2402 98.4869C78.9741 100.383 81.9024 101.365 84.9494 101.407C90.4426 101.475 95.6564 98.4954 99.6514 92.9853C103.714 87.3906 106.016 79.8831 106.135 71.8593C106.372 55.4053 97.2561 41.8799 85.8128 41.7106C78.9824 41.6514 72.499 46.3828 68.4956 54.4743C68.3009 54.8721 67.8184 55.0498 67.4037 54.8806L67.3192 54.8467C67.0398 54.7282 66.8451 54.4658 66.8112 54.1611C66.405 50.6485 64.3143 47.9909 61.4789 47.3984C57.7801 46.6197 53.836 49.726 52.6849 54.3135C51.9909 57.0643 52.3632 59.8743 53.6921 62.0157C54.6654 63.5815 56.0874 64.631 57.7125 64.9865C58.5081 65.1558 59.3377 65.1558 60.1841 64.9781C60.2433 64.9611 60.3026 64.9611 60.3618 64.9611L60.3703 64.9696Z" fill="black"/>
<path d="M75.1738 99.6211C74.9961 99.6211 74.8183 99.5703 74.6659 99.4518C70.4085 96.2693 66.9553 91.1148 64.9493 84.953C64.8054 84.5129 65.0508 84.0305 65.4909 83.8866C65.9395 83.7427 66.4135 83.9881 66.5574 84.4282C68.4618 90.2599 71.7035 95.1182 75.6815 98.0975C76.054 98.3769 76.1301 98.9101 75.8508 99.2825C75.6815 99.5025 75.4277 99.6211 75.1738 99.6211Z" fill="black"/>
<path d="M102.732 61.6179C102.343 62.2273 103.384 63.5984 105.068 64.6903C106.752 65.7821 108.437 66.1715 108.826 65.5621C109.216 64.9527 108.175 63.5815 106.49 62.4897C104.806 61.3978 103.121 61.0085 102.732 61.6179Z" fill="black"/>
<path d="M82.5628 61.4571C82.7067 62.3458 84.8143 62.7436 87.2688 62.3458C89.7234 61.948 91.6023 60.9069 91.4584 60.0267C91.3145 59.138 89.207 58.7401 86.7524 59.1379C84.2979 59.5357 82.4189 60.5768 82.5628 61.4571Z" fill="black"/>
<path d="M91.4244 94.5935C87.6072 94.5935 86.4477 89.2612 86.3969 89.0242C86.3038 88.5671 86.5916 88.1185 87.0486 88.0254C87.5057 87.9323 87.9542 88.2201 88.0473 88.6772C88.0558 88.7195 89.0459 93.2054 91.729 92.8837C92.1945 92.8245 92.6178 93.1631 92.6686 93.6286C92.7194 94.0941 92.3894 94.5173 91.9239 94.5681C91.7461 94.585 91.5768 94.602 91.4159 94.602L91.4244 94.5935Z" fill="black"/>
<path d="M63.5272 59.4426C63.4426 59.4426 63.3579 59.4341 63.2732 59.4003C62.8246 59.2564 62.5793 58.7824 62.7232 58.3423C63.358 56.3194 63.307 54.6097 62.5707 53.2555C61.5296 51.3342 59.4051 50.7163 59.3882 50.7078C58.9396 50.5809 58.6773 50.1153 58.7958 49.6667C58.9227 49.2181 59.3798 48.9473 59.8283 49.0743C59.9468 49.1081 62.6468 49.8699 64.0434 52.426C65.0167 54.2034 65.1099 56.3618 64.3312 58.8502C64.2212 59.2141 63.8827 59.4426 63.5272 59.4426Z" fill="black"/>
<path d="M100.506 74.0345C100.21 75.5073 100.853 76.8784 101.945 77.0985C103.037 77.3186 104.163 76.2944 104.45 74.8217C104.747 73.349 104.103 71.9778 103.011 71.7577C101.92 71.5377 100.794 72.5618 100.506 74.0345Z" fill="black"/>
<path d="M87.6834 72.0201C87.5564 73.5182 88.3604 74.8047 89.4691 74.8978C90.5779 74.9909 91.5768 73.8483 91.7037 72.3502C91.8307 70.8521 91.0265 69.5655 89.9178 69.4724C88.809 69.3793 87.8103 70.522 87.6834 72.0201Z" fill="black"/>
<path d="M89.0545 57.8599C92.4739 54.3643 95.5126 49.8445 97.8148 44.5037C97.8994 44.3091 97.9756 44.1144 98.0518 43.9197C94.6493 40.5426 90.5696 38.579 86.1345 38.5705C77.7721 38.5705 70.2983 45.5025 66.1171 55.8201L89.0545 57.8599Z" fill="black"/>
<path d="M119.347 60.7291C118.915 60.7291 118.551 60.399 118.509 59.9674C118.492 59.7896 116.537 41.7698 100.887 34.5924C100.464 34.3977 100.278 33.8984 100.472 33.4667C100.667 33.0435 101.175 32.8573 101.598 33.0519C118.145 40.6441 120.177 59.6119 120.202 59.7981C120.244 60.2636 119.906 60.6783 119.44 60.7206C119.415 60.7206 119.381 60.7206 119.356 60.7206L119.347 60.7291Z" fill="black"/>
<path d="M86.5236 82.727C86.1258 82.727 85.7281 82.6847 85.3303 82.6085C83.2651 82.1938 81.5467 80.738 80.5057 78.5204C79.4985 76.379 79.2362 73.7637 79.7609 71.1568C80.2857 68.5499 81.5298 66.2307 83.2819 64.648C85.1016 62.9975 87.2431 62.312 89.3083 62.7267C93.4726 63.5646 95.978 68.7022 94.8777 74.1869C94.3529 76.7938 93.1086 79.1129 91.3565 80.6957C89.8838 82.033 88.1995 82.7355 86.5152 82.7355L86.5236 82.727ZM88.1317 64.2925C86.8621 64.2925 85.5757 64.8427 84.4246 65.8922C82.9434 67.238 81.8769 69.227 81.4283 71.4784C80.9797 73.7383 81.1998 75.9812 82.0462 77.7925C82.8587 79.5192 84.1453 80.6364 85.6688 80.9411C87.2008 81.2458 88.8175 80.7126 90.231 79.4261C91.7122 78.0803 92.7784 76.0912 93.227 73.8398C94.1411 69.2693 92.2367 65.0288 88.9866 64.3771C88.7073 64.3179 88.428 64.2925 88.1402 64.2925H88.1317Z" fill="#1E7FB8"/>
<path d="M104.053 86.2396C103.655 86.2396 103.257 86.1972 102.859 86.1211C98.6865 85.2831 96.1896 80.1455 97.2899 74.6609C97.8147 72.054 99.059 69.7348 100.811 68.1521C102.631 66.5016 104.772 65.816 106.837 66.2307C108.902 66.6455 110.621 68.1013 111.662 70.3189C112.66 72.4602 112.931 75.0756 112.407 77.6825C111.882 80.2894 110.638 82.6085 108.885 84.1913C107.413 85.5286 105.728 86.2311 104.044 86.2311L104.053 86.2396ZM105.661 67.8051C104.391 67.8051 103.105 68.3552 101.954 69.4047C100.472 70.7505 99.4059 72.7396 98.9573 74.9994C98.0432 79.57 99.9476 83.8104 103.198 84.4622C104.721 84.7669 106.346 84.2336 107.76 82.9471C109.241 81.6013 110.308 79.6123 110.756 77.3609C111.205 75.101 110.985 72.858 110.138 71.0467C109.326 69.3201 108.039 68.2029 106.516 67.8982C106.236 67.8389 105.949 67.8135 105.669 67.8135L105.661 67.8051Z" fill="#1E7FB8"/>
<path d="M97.273 75.5072C97.2222 75.5072 97.163 75.5072 97.1037 75.4903L94.5815 74.9825C94.1244 74.8893 93.8282 74.4492 93.9213 73.9837C94.0144 73.5267 94.4545 73.2219 94.92 73.3235L97.4422 73.8314C97.8993 73.9245 98.1955 74.3646 98.1024 74.8301C98.0178 75.2364 97.6708 75.5072 97.273 75.5072Z" fill="#1E7FB8"/>
<path d="M95.0047 85.3C94.7084 85.3 94.4121 85.1392 94.2597 84.8599C94.0397 84.4452 94.1837 83.9373 94.5984 83.7088C95.2586 83.3533 95.6649 82.6931 95.6903 81.9398L95.8849 76.0574C95.9019 75.5919 96.2912 75.2279 96.7568 75.2364C97.2223 75.2533 97.5862 75.6427 97.5777 76.1082L97.3831 81.9906C97.3408 83.3194 96.5789 84.5467 95.4109 85.19C95.284 85.2577 95.1401 85.2916 95.0047 85.2916V85.3Z" fill="black"/>
<path d="M75.0922 107.933L48.5854 99.9407C45.9404 99.1431 43.1495 100.641 42.352 103.286L39.6494 112.248C38.8519 114.893 40.3496 117.684 42.9946 118.482L69.5014 126.474C72.1464 127.272 74.9371 125.774 75.7346 123.129L78.4372 114.167C79.2348 111.522 77.7372 108.731 75.0922 107.933Z" fill="black"/>
<path d="M125.255 198.681L143.216 164.775L141.125 147.838H170.08L160.042 198.681H125.255Z" fill="white"/>
<path d="M125.255 199.528C125.12 199.528 124.984 199.494 124.857 199.426C124.443 199.206 124.29 198.698 124.502 198.283L142.344 164.614L140.287 147.94C140.253 147.694 140.33 147.457 140.49 147.271C140.651 147.093 140.88 146.983 141.125 146.983H170.08C170.334 146.983 170.571 147.093 170.732 147.296C170.893 147.491 170.961 147.754 170.91 147.999L160.872 198.842C160.779 199.299 160.338 199.595 159.881 199.511C159.424 199.418 159.128 198.977 159.213 198.52L169.048 148.685H142.082L144.054 164.673C144.071 164.842 144.045 165.02 143.961 165.172L125.992 199.079C125.839 199.367 125.543 199.528 125.247 199.528H125.255Z" fill="black"/>
<path d="M180.592 80.5667C172.526 80.3804 154.219 80.2196 147.786 80.1096C146.204 80.0842 144.798 81.0999 144.316 82.6064L124.866 149.26C124.129 151.571 125.856 153.941 128.285 153.941H161.913C163.521 153.941 164.934 152.874 165.366 151.325L183.953 85.1203C184.588 82.8689 182.937 80.6174 180.592 80.5667Z" fill="black"/>
<path d="M163.529 159.273L160.821 154.449L160.567 144.8L142.589 133.119C141.117 132.163 140.186 130.572 140.067 128.828L140.05 128.54C139.915 126.551 142.005 125.189 143.758 126.128C148.328 128.566 155.556 132.451 158.62 134.22C155.565 131.96 148.379 126.128 144.028 122.565C141.836 120.77 140.77 117.952 141.21 115.15V115.091C141.481 113.432 143.368 112.603 144.765 113.534L165.383 127.279L146.821 109.623C145.484 108.345 145.129 106.348 145.958 104.697L146.398 103.826C147.041 102.548 148.667 102.141 149.835 102.962L172.12 118.756L171.858 109.259L164.232 102.7C162.251 100.999 161.532 98.2394 162.429 95.7848C162.886 94.5152 164.426 94.0497 165.501 94.8453L176.809 103.106C178.714 104.503 179.839 106.72 179.839 109.082V124.241L180.009 135.523C180.068 139.433 179.052 143.285 177.08 146.662L166.559 164.682L163.521 159.273H163.529Z" fill="white"/>
<path d="M166.576 165.528C166.432 165.528 166.288 165.494 166.153 165.409C165.747 165.172 165.611 164.656 165.848 164.25L176.369 146.23C178.265 142.98 179.238 139.281 179.179 135.523L179.01 124.241V109.073C179.01 106.991 178.003 105.011 176.327 103.783L165.019 95.5225C164.723 95.3024 164.35 95.2431 163.995 95.3447C163.639 95.4547 163.368 95.7087 163.241 96.0557C162.463 98.1802 163.089 100.584 164.799 102.048L172.425 108.608C172.602 108.76 172.713 108.989 172.721 109.226L172.983 118.722C172.992 119.044 172.823 119.34 172.535 119.492C172.256 119.645 171.909 119.628 171.646 119.433L149.36 103.639C149.005 103.386 148.565 103.309 148.142 103.411C147.718 103.512 147.371 103.8 147.177 104.19L146.737 105.07C146.068 106.399 146.347 107.981 147.422 109.006L165.984 126.661C166.305 126.966 166.339 127.457 166.06 127.804C165.789 128.151 165.298 128.227 164.926 127.982L144.307 114.236C143.884 113.957 143.385 113.915 142.919 114.118C142.454 114.321 142.149 114.719 142.073 115.218C141.675 117.774 142.64 120.313 144.587 121.905C148.7 125.265 156.055 131.257 159.145 133.534C159.509 133.805 159.593 134.304 159.348 134.677C159.103 135.049 158.603 135.168 158.214 134.948C155.091 133.145 147.574 129.107 143.376 126.864C142.835 126.577 142.2 126.602 141.684 126.932C141.159 127.271 140.871 127.846 140.913 128.481L140.93 128.769C141.032 130.242 141.828 131.604 143.063 132.408L161.041 144.089C161.278 144.241 161.422 144.495 161.422 144.774L161.667 154.212L164.274 158.858C164.503 159.265 164.359 159.781 163.952 160.009C163.546 160.238 163.03 160.094 162.801 159.688L160.084 154.863C160.017 154.745 159.983 154.609 159.974 154.474L159.729 145.274L142.132 133.83C140.448 132.739 139.365 130.885 139.229 128.879L139.212 128.591C139.128 127.339 139.703 126.187 140.753 125.51C141.794 124.842 143.072 124.782 144.164 125.366C145.772 126.23 147.871 127.347 150.021 128.507C147.642 126.594 145.272 124.655 143.503 123.208C141.091 121.236 139.898 118.096 140.38 115.007C140.558 113.889 141.244 112.992 142.234 112.56C143.216 112.129 144.341 112.222 145.239 112.823L157.706 121.134L146.237 110.233C144.621 108.692 144.197 106.314 145.196 104.317L145.636 103.436C146.051 102.607 146.804 101.997 147.71 101.777C148.607 101.549 149.564 101.727 150.317 102.268L171.214 117.08L171.011 109.657L163.673 103.343C161.438 101.422 160.618 98.2648 161.625 95.4971C161.938 94.6337 162.615 93.999 163.487 93.7366C164.35 93.4742 165.273 93.6266 166.001 94.1598L177.308 102.421C179.424 103.97 180.686 106.458 180.686 109.082V124.241L180.855 135.515C180.914 139.577 179.865 143.581 177.816 147.093L167.296 165.113C167.135 165.384 166.856 165.536 166.568 165.536L166.576 165.528Z" fill="black"/>
<path d="M171.173 132.315C170.995 132.315 170.818 132.265 170.674 132.146L154.804 120.39C154.431 120.11 154.347 119.586 154.626 119.205C154.905 118.832 155.43 118.748 155.811 119.027L171.681 130.783C172.053 131.063 172.138 131.596 171.859 131.968C171.689 132.188 171.436 132.307 171.182 132.307L171.173 132.315Z" fill="black"/>
<path d="M164.528 138.74C164.375 138.74 164.223 138.697 164.087 138.613L147.634 128.617C147.236 128.371 147.109 127.855 147.346 127.457C147.591 127.059 148.108 126.932 148.505 127.169L164.959 137.165C165.357 137.411 165.484 137.927 165.247 138.325C165.086 138.587 164.807 138.731 164.519 138.731L164.528 138.74Z" fill="black"/>
<path d="M179.688 125.942C179.442 125.942 179.197 125.832 179.027 125.629L177.157 123.31C176.463 122.446 175.625 121.727 174.668 121.168L171.241 119.154C170.834 118.917 170.699 118.401 170.944 117.994C171.181 117.588 171.698 117.453 172.104 117.69L175.532 119.704C176.657 120.373 177.648 121.219 178.477 122.243L180.348 124.562C180.644 124.926 180.585 125.459 180.221 125.756C180.06 125.883 179.874 125.942 179.688 125.942Z" fill="black"/>
<path d="M0.818359 197.886L13.379 131.477C15.3003 121.338 23.3663 113.483 33.5654 111.841L48.1066 109.505L69.4442 126.213L71.1879 114.575L75.0388 114.008C82.2332 112.941 89.5291 115.108 94.9799 119.924C98.9072 123.394 101.624 128.033 102.733 133.153L116.783 197.886H0.818359Z" fill="black"/>
<path d="M67.0072 128.566C65.9915 128.566 64.9758 128.405 64.0024 128.075L49.5292 123.25C49.0891 123.107 48.8435 122.624 48.9959 122.184C49.1397 121.744 49.6222 121.498 50.0708 121.651L64.5443 126.475C66.6518 127.178 68.9624 126.949 70.8922 125.849C72.822 124.749 74.2016 122.878 74.6671 120.703L75.4288 117.199C75.5304 116.742 75.9791 116.454 76.4362 116.555C76.8932 116.657 77.181 117.106 77.0794 117.563L76.3176 121.067C75.742 123.707 74.0662 125.984 71.7217 127.322C70.2743 128.143 68.6407 128.566 67.0072 128.566Z" fill="white"/>
<path d="M46.4136 197.606C46.4136 197.606 46.3712 197.606 46.3458 197.606C45.8803 197.573 45.5334 197.166 45.5672 196.701L47.26 174.745C47.2939 174.28 47.7085 173.924 48.1655 173.967C48.631 174 48.9782 174.407 48.9443 174.872L47.2515 196.828C47.2177 197.268 46.8453 197.606 46.4051 197.606H46.4136Z" fill="white"/>
<path d="M200.734 5.18633C191.667 8.64833 186.148 17.889 187.406 27.5114L187.884 31.1383C189.046 40.0406 187.719 49.099 184.057 57.2985L183.753 57.9666L199.814 65.1509L200.118 64.4828C203.788 56.2834 209.645 49.2639 217.063 44.1881L220.083 42.123C228.1 36.6393 231.31 26.3748 227.84 17.3077C223.701 6.47919 211.571 1.04755 200.742 5.18633H200.734Z" fill="white"/>
<path d="M199.816 66.0186C199.695 66.0186 199.573 65.9926 199.461 65.9405L183.4 58.7562C182.966 58.5567 182.767 58.0447 182.966 57.6109L183.27 56.9428C186.871 48.8909 188.172 40.0059 187.027 31.2511L186.55 27.6243C185.231 17.5593 190.94 7.99762 200.424 4.37077C205.881 2.28836 211.816 2.4532 217.152 4.83929C222.48 7.22538 226.567 11.5377 228.649 16.9953C232.276 26.479 228.953 37.1079 220.571 42.8432L217.552 44.9083C210.263 49.8887 204.511 56.778 200.91 64.8386L200.606 65.5067C200.511 65.715 200.337 65.8798 200.12 65.9666C200.016 66.0013 199.912 66.0273 199.808 66.0273L199.816 66.0186ZM184.901 57.5328L199.374 64.0056C203.114 55.7107 209.057 48.6132 216.563 43.4766L219.582 41.4115C227.296 36.1361 230.358 26.3488 227.018 17.6201C225.1 12.5963 221.343 8.62234 216.432 6.42714C211.521 4.23194 206.055 4.08444 201.031 6.00199C192.302 9.33384 187.044 18.1407 188.259 27.4074L188.736 31.0342C189.916 40.058 188.589 49.2206 184.893 57.5328H184.901Z" fill="#080717"/>
<path d="M186.476 47.1671L205.684 55.7554L202.373 63.1615C200.57 67.1933 195.833 69.0099 191.793 67.2037L187.199 65.1496C183.167 63.347 181.351 58.6094 183.157 54.5697L186.468 47.1635L186.476 47.1671Z" fill="#080717"/>
<path d="M198.202 54.5132C198.081 54.5132 197.95 54.4872 197.838 54.4352C197.404 54.2356 197.213 53.715 197.421 53.2811C197.473 53.1597 201.976 43.5286 204.284 38.1751C203.174 37.9755 202.098 37.6631 201.091 37.238L194.619 51.7194C194.419 52.1532 193.907 52.3528 193.473 52.1532C193.039 51.9536 192.84 51.4417 193.039 51.0079L199.538 36.4744C199 36.1621 198.497 35.8237 198.028 35.4419C195 32.9864 194.358 29.4637 195.651 27.7023C196.389 26.7045 197.89 26.1144 199.894 27.468C203.061 29.6025 201.872 35.3291 201.82 35.5721C201.82 35.5981 201.803 35.6241 201.794 35.6501C202.792 36.0666 203.876 36.3616 204.978 36.5265C205.169 36.0666 205.317 35.6761 205.43 35.3725C206.67 31.9191 207.694 30.0884 210.141 28.9777C213.681 27.3812 215.373 28.917 215.928 29.6459C217.039 31.0949 216.926 33.3335 215.668 34.8606C213.43 37.5677 209.733 38.6176 206.08 38.3833C203.85 43.6153 199.226 53.5068 198.992 54.0013C198.844 54.3137 198.532 54.5046 198.202 54.5046V54.5132ZM206.783 36.6913C209.742 36.7607 212.605 35.8584 214.323 33.776C215.069 32.8736 215.165 31.5287 214.549 30.7218C213.898 29.8628 212.545 29.8107 210.853 30.583C209.117 31.3639 208.302 32.5265 207.061 35.9798C206.991 36.1794 206.896 36.4224 206.783 36.7V36.6913ZM197.681 28.4311C197.438 28.4311 197.213 28.5179 197.039 28.7435C196.432 29.5678 196.597 32.0667 199.113 34.097C199.443 34.366 199.807 34.6176 200.18 34.8432C200.441 33.2901 200.597 30.0363 198.913 28.9084C198.592 28.6915 198.107 28.4225 197.673 28.4225L197.681 28.4311Z" fill="#080717"/>
<path d="M239.98 41.4375C239.876 41.4375 239.763 41.4115 239.659 41.3681L232.284 38.071C231.885 37.8888 231.711 37.4289 231.885 37.0298C232.058 36.6306 232.527 36.4571 232.926 36.6306L240.301 39.9277C240.7 40.11 240.874 40.5698 240.7 40.969C240.57 41.264 240.284 41.4375 239.98 41.4375Z" fill="#080717"/>
<path d="M243.243 31.3117C243.182 31.3117 243.112 31.3118 243.052 31.2857L235.477 29.3769C235.052 29.2727 234.8 28.8389 234.904 28.4224C235.008 27.9973 235.442 27.7456 235.859 27.8498L243.434 29.7586C243.859 29.8628 244.11 30.2966 244.006 30.713C243.919 31.0688 243.598 31.3117 243.243 31.3117Z" fill="#080717"/>
<path d="M232.36 48.5698C232.169 48.5698 231.987 48.5004 231.839 48.3702L228.525 45.4114C228.195 45.1251 228.169 44.6219 228.464 44.3008C228.75 43.9711 229.254 43.9451 229.575 44.2401L232.889 47.1988C233.219 47.4852 233.245 47.9884 232.95 48.3095C232.794 48.483 232.577 48.5698 232.36 48.5698Z" fill="#080717"/>
<path d="M182.73 21.9758C182.73 21.9758 182.644 21.9758 182.6 21.9672L174.635 20.6396C174.201 20.5702 173.915 20.1624 173.984 19.7286C174.054 19.2947 174.461 19.0084 174.895 19.0778L182.86 20.4053C183.294 20.4747 183.581 20.8826 183.511 21.3164C183.45 21.6982 183.112 21.9758 182.73 21.9758Z" fill="#080717"/>
<path d="M185.014 12.9955C184.927 12.9955 184.84 12.9782 184.753 12.9522L177.387 10.3579C176.979 10.2103 176.762 9.75913 176.901 9.35133C177.048 8.94352 177.5 8.72661 177.907 8.86543L185.274 11.4598C185.682 11.6073 185.899 12.0585 185.76 12.4663C185.647 12.7873 185.343 12.9955 185.014 12.9955Z" fill="#080717"/>
<path d="M177.16 30.7997C176.77 30.7997 176.44 30.5133 176.379 30.1229C176.319 29.689 176.614 29.2899 177.048 29.2292L181.447 28.5958C181.872 28.535 182.28 28.8301 182.34 29.2639C182.401 29.6977 182.106 30.0969 181.672 30.1576L177.273 30.791C177.273 30.791 177.195 30.791 177.16 30.791V30.7997Z" fill="#080717"/>
<path d="M189.533 6.16691C189.308 6.16691 189.091 6.07146 188.935 5.88925L185.403 1.77651C185.117 1.44679 185.16 0.952195 185.49 0.665864C185.82 0.379534 186.314 0.414272 186.601 0.752663L190.132 4.8654C190.418 5.19512 190.375 5.69834 190.045 5.97599C189.898 6.10614 189.716 6.16691 189.533 6.16691Z" fill="#080717"/>
</svg>
