<svg width="187" height="200" viewBox="0 0 187 200" fill="none" xmlns="http://www.w3.org/2000/svg">
<path d="M163.079 74.853V116.689C163.079 136.745 148.273 153 130.01 153H60.2777C42.0148 153 27.2088 136.745 27.2088 116.689V74.853H1.26843V122.23C1.26843 134.703 5.78066 146.669 13.8184 155.496C21.7446 164.203 31.8497 175.878 42.744 180.459V199.151H147.921V181.617C157.614 178.331 166.518 165.756 172.823 157.401C180.861 148.582 185.373 136.616 185.373 124.135V74.8616H163.07L163.079 74.853Z" fill="white"/>
<path d="M147.929 200H42.7523C42.2805 200 41.8945 199.614 41.8945 199.142V181.017C31.7551 176.539 22.3791 166.193 14.8131 157.847L13.192 156.063C4.95691 147.021 0.418945 135.003 0.418945 122.222V74.8446C0.418945 74.3728 0.804963 73.9868 1.27676 73.9868H27.2171C27.6889 73.9868 28.0749 74.3728 28.0749 74.8446V116.68C28.0749 136.23 42.5206 152.134 60.286 152.134H130.018C147.775 152.134 162.229 136.23 162.229 116.68V74.8446C162.229 74.3728 162.615 73.9868 163.087 73.9868H185.39C185.862 73.9868 186.248 74.3728 186.248 74.8446V124.118C186.248 136.899 181.71 148.917 173.475 157.958L172.18 159.683C166.106 167.772 157.837 178.795 148.795 182.2V199.134C148.795 199.605 148.409 199.991 147.938 199.991L147.929 200ZM43.6101 198.284H147.071V181.608C147.071 181.24 147.303 180.914 147.655 180.794C156.422 177.825 164.734 166.751 170.799 158.662L172.145 156.869C180.14 148.085 184.515 136.479 184.515 124.126V75.711H163.927V116.689C163.927 137.182 148.71 153.858 130.001 153.858H60.2688C41.5599 153.858 26.3421 137.182 26.3421 116.689V75.711H2.11741V122.23C2.11741 134.583 6.49237 146.189 14.4443 154.913L16.0655 156.697C23.64 165.053 33.076 175.458 43.0696 179.661C43.387 179.799 43.5929 180.107 43.5929 180.45V198.284H43.6101Z" fill="black"/>
<path d="M15.9463 0.857727H169.916C174.093 0.857727 177.482 4.24611 177.482 8.42368V111.079C177.482 115.256 174.093 118.645 169.916 118.645H15.9463C11.7687 118.645 8.38025 115.256 8.38025 111.079V8.42368C8.38025 4.24611 11.7687 0.857727 15.9463 0.857727Z" fill="white"/>
<path d="M169.924 119.502H15.9463C11.3055 119.502 7.52246 115.728 7.52246 111.079V8.42371C7.52246 3.78292 11.2969 -6.10352e-05 15.9463 -6.10352e-05H169.924C174.565 -6.10352e-05 178.348 3.77434 178.348 8.42371V111.079C178.348 115.719 174.574 119.502 169.924 119.502ZM15.9463 1.72416C12.2491 1.72416 9.23809 4.7351 9.23809 8.43229V111.087C9.23809 114.784 12.2491 117.795 15.9463 117.795H169.924C173.622 117.795 176.632 114.784 176.632 111.087V8.43229C176.632 4.7351 173.622 1.72416 169.924 1.72416H15.9463Z" fill="black"/>
<path d="M18.0557 12.6529C16.0742 12.6529 14.4615 11.0402 14.4615 9.05861C14.4615 7.07705 16.0742 5.46436 18.0557 5.46436C20.0373 5.46436 21.65 7.07705 21.65 9.05861C21.65 11.0402 20.0373 12.6529 18.0557 12.6529ZM18.0557 7.18858C17.0178 7.18858 16.1772 8.02924 16.1772 9.0672C16.1772 10.1052 17.0178 10.9458 18.0557 10.9458C19.0937 10.9458 19.9343 10.1052 19.9343 9.0672C19.9343 8.02924 19.0937 7.18858 18.0557 7.18858Z" fill="black"/>
<path d="M27.2522 12.6529C25.2706 12.6529 23.658 11.0402 23.658 9.05861C23.658 7.07705 25.2706 5.46436 27.2522 5.46436C29.2337 5.46436 30.8464 7.07705 30.8464 9.05861C30.8464 11.0402 29.2337 12.6529 27.2522 12.6529ZM27.2522 7.18858C26.2142 7.18858 25.3736 8.02924 25.3736 9.0672C25.3736 10.1052 26.2142 10.9458 27.2522 10.9458C28.2901 10.9458 29.1307 10.1052 29.1307 9.0672C29.1307 8.02924 28.2901 7.18858 27.2522 7.18858Z" fill="black"/>
<path d="M36.4552 12.6529C34.4736 12.6529 32.861 11.0402 32.861 9.05861C32.861 7.07705 34.4736 5.46436 36.4552 5.46436C38.4367 5.46436 40.0494 7.07705 40.0494 9.05861C40.0494 11.0402 38.4367 12.6529 36.4552 12.6529ZM36.4552 7.18858C35.4172 7.18858 34.5766 8.02924 34.5766 9.0672C34.5766 10.1052 35.4172 10.9458 36.4552 10.9458C37.4931 10.9458 38.3337 10.1052 38.3337 9.0672C38.3337 8.02924 37.4931 7.18858 36.4552 7.18858Z" fill="black"/>
<path d="M81.0649 135.472C82.187 128.589 77.5171 122.1 70.6343 120.978C63.7514 119.855 57.262 124.525 56.1398 131.408C55.0176 138.291 59.6876 144.78 66.5705 145.903C73.4534 147.025 79.9427 142.355 81.0649 135.472Z" fill="black"/>
<path d="M93.9553 146.189C110.518 146.189 123.945 132.762 123.945 116.2C123.945 99.6371 110.518 86.2105 93.9553 86.2105C77.3927 86.2105 63.9661 99.6371 63.9661 116.2C63.9661 132.762 77.3927 146.189 93.9553 146.189Z" fill="black"/>
<path d="M97.2426 136.491C99.1656 128.407 94.171 120.295 86.0868 118.372C78.0026 116.449 69.8902 121.443 67.9673 129.528C66.0443 137.612 71.039 145.724 79.1232 147.647C87.2074 149.57 95.3197 144.575 97.2426 136.491Z" fill="black"/>
<path d="M122.342 136.495C124.265 128.411 119.27 120.298 111.186 118.375C103.102 116.452 94.9897 121.447 93.0668 129.531C91.1438 137.615 96.1385 145.728 104.223 147.651C112.307 149.574 120.419 144.579 122.342 136.495Z" fill="black"/>
<path d="M80.0625 120.668C81.157 113.781 76.4611 107.31 69.5738 106.216C62.6865 105.121 56.2159 109.817 55.1214 116.704C54.0269 123.592 58.7228 130.062 65.6101 131.157C72.4974 132.251 78.9679 127.555 80.0625 120.668Z" fill="black"/>
<path d="M120.079 145.923C126.962 144.801 131.632 138.312 130.51 131.429C129.388 124.546 122.898 119.876 116.015 120.998C109.133 122.12 104.463 128.61 105.585 135.493C106.707 142.375 113.196 147.045 120.079 145.923Z" fill="black"/>
<path d="M121.197 130.933C128.084 129.838 132.78 123.368 131.686 116.48C130.591 109.593 124.121 104.897 117.233 105.992C110.346 107.086 105.65 113.557 106.745 120.444C107.839 127.331 114.31 132.027 121.197 130.933Z" fill="black"/>
<path d="M107.8 153C107.86 152.494 107.894 151.979 107.894 151.456V112.425H80.5128V151.456C80.5128 151.979 80.547 152.494 80.607 153H70.176C74.3193 161.621 83.129 167.574 93.3285 167.574C103.528 167.574 112.346 161.621 116.481 153H107.8Z" fill="white"/>
<path d="M93.3288 168.432C83.1894 168.432 73.7964 162.522 69.3958 153.369C69.2671 153.103 69.2841 152.794 69.4385 152.537C69.5929 152.288 69.8675 152.134 70.1677 152.134H79.6638C79.6552 151.902 79.6467 151.671 79.6467 151.448V112.417C79.6467 111.945 80.0327 111.559 80.5045 111.559H107.886C108.358 111.559 108.744 111.945 108.744 112.417V151.448C108.744 151.671 108.744 151.894 108.727 152.134H116.481C116.773 152.134 117.047 152.288 117.21 152.537C117.365 152.786 117.382 153.103 117.253 153.369C112.861 162.522 103.468 168.432 93.3202 168.432H93.3288ZM71.5831 153.858C75.915 161.716 84.3046 166.717 93.3288 166.717C102.353 166.717 110.742 161.716 115.083 153.858H107.809C107.568 153.858 107.328 153.755 107.165 153.575C107.002 153.395 106.925 153.146 106.951 152.906C107.011 152.383 107.037 151.911 107.037 151.456V113.283H81.3709V151.456C81.3709 151.902 81.3965 152.374 81.4565 152.906C81.4823 153.146 81.4051 153.395 81.2421 153.575C81.0791 153.755 80.8475 153.858 80.5987 153.858H71.5745H71.5831Z" fill="black"/>
<path d="M121.45 116.466C120.404 116.466 119.417 116.749 118.568 117.229C117.187 105.211 106.979 95.8697 94.5833 95.8697C82.1878 95.8697 72.4172 104.817 70.693 116.466C70.6244 116.466 70.5557 116.457 70.4785 116.457C67.2531 116.457 64.637 119.074 64.637 122.299C64.637 125.524 67.2531 128.141 70.4785 128.141C70.9246 128.141 71.3621 128.089 71.7824 127.986C75.0765 137.405 84.0321 144.156 94.5747 144.156C105.117 144.156 114.802 136.839 117.744 126.82C118.748 127.643 120.043 128.141 121.442 128.141C124.667 128.141 127.283 125.524 127.283 122.299C127.283 119.074 124.667 116.457 121.442 116.457L121.45 116.466Z" fill="white"/>
<path d="M94.583 145.031C84.212 145.031 74.9219 138.606 71.2333 128.973C67.2101 129.436 63.7875 126.254 63.7875 122.316C63.7875 118.799 66.5153 115.9 69.9723 115.634C72.074 103.83 82.5221 95.0204 94.5916 95.0204C106.661 95.0204 117.315 103.95 119.262 115.985C119.966 115.737 120.712 115.617 121.458 115.617C125.156 115.617 128.158 118.619 128.158 122.316C128.158 126.013 125.156 129.016 121.458 129.016C120.326 129.016 119.211 128.724 118.224 128.184C114.776 138.16 105.22 145.031 94.583 145.031ZM71.7908 127.146C72.151 127.146 72.4772 127.369 72.5973 127.72C75.8656 137.045 84.6924 143.316 94.583 143.316C104.474 143.316 114.038 136.436 116.929 126.588C117.006 126.314 117.221 126.099 117.504 126.013C117.778 125.928 118.079 125.988 118.302 126.168C119.185 126.897 120.309 127.292 121.458 127.292C124.212 127.292 126.442 125.053 126.442 122.308C126.442 119.563 124.203 117.324 121.458 117.324C120.601 117.324 119.751 117.547 118.996 117.976C118.748 118.121 118.439 118.121 118.182 117.993C117.924 117.864 117.753 117.615 117.718 117.324C116.363 105.58 106.421 96.7275 94.5916 96.7275C82.7623 96.7275 73.2233 105.271 71.5505 116.595C71.4905 117.023 71.139 117.332 70.6672 117.324H70.5556C67.7419 117.324 65.5117 119.563 65.5117 122.308C65.5117 125.422 68.3681 127.909 71.6107 127.163C71.6793 127.146 71.7393 127.146 71.7993 127.146H71.7908Z" fill="black"/>
<path d="M93.9547 86.202C82.8632 86.202 73.187 92.2239 67.9972 101.179C71.2741 103.804 75.4344 105.374 79.9551 105.374C90.3862 105.374 98.87 97.0276 99.1016 86.648C97.4289 86.3564 95.7133 86.202 93.9547 86.202Z" fill="black"/>
<path d="M96.8639 122.47C94.402 122.47 89.9843 121.389 89.4267 121.244C88.9635 121.132 88.689 120.66 88.8005 120.206C88.9121 119.742 89.3838 119.459 89.8385 119.579C92.1203 120.146 96.2036 120.961 97.4474 120.712C97.9192 120.617 98.3652 120.918 98.4596 121.381C98.5539 121.844 98.2537 122.299 97.7905 122.393C97.5331 122.445 97.2156 122.47 96.8639 122.47Z" fill="black"/>
<path d="M85.6341 119.185C80.4357 119.185 76.2067 114.956 76.2067 109.758C76.2067 104.559 80.4357 100.33 85.6341 100.33C90.8324 100.33 95.0615 104.559 95.0615 109.758C95.0615 114.956 90.8324 119.185 85.6341 119.185ZM85.6341 102.046C81.3793 102.046 77.9223 105.503 77.9223 109.758C77.9223 114.012 81.3793 117.469 85.6341 117.469C89.8888 117.469 93.3458 114.012 93.3458 109.758C93.3458 105.503 89.8888 102.046 85.6341 102.046Z" fill="#1E7FB8"/>
<path d="M108.83 119.185C103.632 119.185 99.403 114.956 99.403 109.758C99.403 104.559 103.632 100.33 108.83 100.33C114.029 100.33 118.258 104.559 118.258 109.758C118.258 114.956 114.029 119.185 108.83 119.185ZM108.83 102.046C104.576 102.046 101.119 105.503 101.119 109.758C101.119 114.012 104.576 117.469 108.83 117.469C113.085 117.469 116.542 114.012 116.542 109.758C116.542 105.503 113.085 102.046 108.83 102.046Z" fill="#1E7FB8"/>
<path d="M71.3769 117.083C71.1539 117.083 70.9394 116.998 70.7679 116.835C70.4333 116.5 70.4333 115.96 70.7679 115.625L76.4725 109.921C76.807 109.586 77.3474 109.586 77.6819 109.921C78.0165 110.255 78.0165 110.796 77.6819 111.13L71.9773 116.835C71.8058 117.006 71.5913 117.083 71.3683 117.083H71.3769Z" fill="#1E7FB8"/>
<path d="M99.9081 110.615H94.5811C94.1093 110.615 93.7233 110.229 93.7233 109.758C93.7233 109.286 94.1093 108.9 94.5811 108.9H99.9081C100.38 108.9 100.766 109.286 100.766 109.758C100.766 110.229 100.38 110.615 99.9081 110.615Z" fill="#1E7FB8"/>
<path d="M88.5001 108.136C88.5001 109.5 87.5652 110.607 86.4071 110.607C85.2491 110.607 84.3141 109.5 84.3141 108.136C84.3141 106.772 85.2491 105.666 86.4071 105.666C87.5652 105.666 88.5001 106.772 88.5001 108.136Z" fill="black"/>
<path d="M109.036 108.136C109.036 109.5 108.101 110.607 106.943 110.607C105.785 110.607 104.85 109.5 104.85 108.136C104.85 106.772 105.785 105.666 106.943 105.666C108.101 105.666 109.036 106.772 109.036 108.136Z" fill="black"/>
<path d="M80.4762 24.1354L41.3199 24.6138C36.3458 24.6745 32.3627 28.7561 32.4235 33.7302L32.9019 72.8867C32.9627 77.8608 37.0443 81.8438 42.0184 81.783L81.1747 81.3046C86.1488 81.2438 90.1318 77.1623 90.0711 72.1882L89.5927 33.0317C89.5319 28.0576 85.4503 24.0746 80.4762 24.1354Z" fill="#1E7FB8"/>
<path d="M60.236 42.5392C60.2875 47.0942 56.6418 50.8257 52.0954 50.8857C47.5404 50.9372 43.8089 47.2915 43.7488 42.745C43.6974 38.19 47.3431 34.4585 51.8895 34.3985C56.4445 34.347 60.176 37.9927 60.236 42.5392Z" fill="white"/>
<path d="M32.8456 73.0603L32.734 64.1733L36.68 60.1244C39.5966 57.1307 44.3918 57.0706 47.3856 59.9957C50.2164 62.7579 54.7543 62.7065 57.5165 59.8757L73.0258 43.9889C76.7059 40.2145 82.7535 40.1459 86.5279 43.8259L89.7018 46.9226L90.0104 72.374C90.0705 77.3494 86.0903 81.424 81.115 81.484L41.9555 81.9559C36.9802 82.0159 32.9057 78.0357 32.8456 73.0603Z" fill="black"/>
<path d="M19.3756 39.3738C19.041 39.0392 18.6206 38.8591 18.1917 38.799C19.7015 36.9204 19.4184 34.1754 17.5483 32.6485C16.6734 31.9365 15.3954 32.0652 14.6834 32.9401L14.6662 32.9573L14.7604 32.5026C15.2751 30.1351 13.7654 27.7933 11.3893 27.2786C10.2913 27.0384 9.20178 27.7417 8.97017 28.8397L8.24974 32.1595C7.46912 30.9328 6.10514 30.1093 4.54391 30.1093C3.42017 30.1093 2.5022 31.0186 2.5022 32.1424V75.0418H7.74355L12.7103 60.4246C13.5596 57.9283 13.2165 55.2348 11.8783 53.0645L19.367 45.5758C21.0826 43.8601 21.0826 41.0808 19.367 39.3652L19.3756 39.3738Z" fill="white"/>
<path d="M7.7603 75.9167H2.51895C2.04715 75.9167 1.66113 75.5307 1.66113 75.0589V32.1595C1.66113 30.5639 2.95654 29.2686 4.56066 29.2686C5.74445 29.2686 6.86819 29.6633 7.77747 30.3753L8.14628 28.6768C8.30926 27.9219 8.7553 27.2699 9.40724 26.8582C10.0592 26.4379 10.8313 26.3006 11.5861 26.4636C13.9794 26.9783 15.6437 29.0628 15.7295 31.4047C15.8152 31.3875 15.8925 31.3789 15.9783 31.3703C16.7503 31.2931 17.5051 31.5161 18.097 32.0051C20.01 33.5749 20.5331 36.2427 19.4866 38.3872C19.6667 38.4988 19.8384 38.636 19.9928 38.7904C22.043 40.8406 22.043 44.1689 19.9928 46.2191L12.9673 53.2446C14.1768 55.5522 14.3912 58.2457 13.542 60.7419L8.57519 75.3592C8.45509 75.7109 8.12916 75.9425 7.7603 75.9425V75.9167ZM3.37677 74.2011H7.15129L11.9208 60.1672C12.6757 57.9455 12.4011 55.5264 11.1658 53.5277C10.9599 53.1932 11.0113 52.7557 11.2858 52.4726L18.7747 44.9839C20.1558 43.6028 20.1558 41.3639 18.7747 39.9828C18.5431 39.7512 18.2772 39.674 18.0884 39.6568C17.7796 39.614 17.5137 39.4167 17.4022 39.125C17.2821 38.8333 17.3334 38.5074 17.5307 38.2672C18.7403 36.7574 18.5088 34.5357 17.0162 33.3176C16.776 33.1203 16.4672 33.0259 16.1498 33.0602C15.8324 33.0945 15.5579 33.2404 15.3521 33.4891C15.1033 33.798 14.6656 33.9009 14.3053 33.7293C13.9451 33.5577 13.7479 33.1717 13.8337 32.7857L13.928 32.3311C14.3397 30.4267 13.1217 28.5395 11.2173 28.1278C10.9085 28.0592 10.5911 28.1192 10.3252 28.2908C10.0592 28.4623 9.87902 28.7283 9.81039 29.0371L9.08996 32.3568C9.01276 32.6999 8.74679 32.9573 8.40366 33.0173C8.06054 33.0774 7.71739 32.923 7.52867 32.6313C6.87673 31.5934 5.7616 30.9757 4.55208 30.9757C3.90014 30.9757 3.36818 31.5076 3.36818 32.151V74.1925L3.37677 74.2011Z" fill="black"/>
<path d="M5.85701 44.1517C5.79697 44.1517 5.73695 44.1517 5.6769 44.1345C5.21368 44.0316 4.92201 43.5769 5.01637 43.1137L7.68406 30.7354C7.787 30.2722 8.2418 29.9805 8.70502 30.0749C9.16824 30.1778 9.45971 30.6325 9.36535 31.0957L6.69766 43.474C6.61187 43.8772 6.25161 44.1517 5.85701 44.1517Z" fill="black"/>
<path d="M2.4775 48.7324C2.28878 48.7324 2.09137 48.6724 1.93697 48.5351C1.56811 48.2349 1.51673 47.6945 1.81696 47.3256L14.0237 32.391C14.3239 32.0221 14.8643 31.9707 15.2331 32.2709C15.602 32.5711 15.6536 33.1116 15.3533 33.4805L3.14641 48.415C2.97485 48.6209 2.72628 48.7324 2.48609 48.7324H2.4775Z" fill="black"/>
<path d="M9.09984 55.8608L19.3679 45.5927C21.0835 43.8771 21.0835 41.0978 19.3679 39.3821C18.5701 38.5844 17.2833 38.5844 16.4855 39.3821L6.30334 49.5644L9.09125 55.8694L9.09984 55.8608Z" fill="white"/>
<path d="M9.10003 56.7187C8.87699 56.7187 8.66257 56.6329 8.49101 56.4699C8.15646 56.1354 8.15646 55.595 8.49101 55.2604L18.7676 44.9923C20.1487 43.6113 20.1487 41.3723 18.7676 39.9913C18.3216 39.5452 17.5408 39.5452 17.1033 39.9913L6.92114 50.1735C6.58659 50.5081 6.04603 50.5081 5.71148 50.1735C5.37693 49.839 5.37693 49.2986 5.71148 48.964L15.8939 38.7818C16.9833 37.6838 18.8962 37.6838 19.9857 38.7818C22.0359 40.8319 22.0359 44.1602 19.9857 46.2104L9.70904 56.4785C9.53748 56.6501 9.32306 56.7273 9.10003 56.7273V56.7187Z" fill="black"/>
<path d="M166.554 39.3739C166.888 39.0393 167.309 38.8592 167.738 38.7992C166.228 36.9205 166.511 34.1755 168.381 32.6486C169.256 31.9366 170.534 32.0653 171.246 32.9403L171.263 32.9574L171.169 32.5028C170.654 30.1352 172.164 27.7934 174.54 27.2787C175.638 27.0385 176.727 27.7419 176.959 28.8399L177.68 32.1596C178.46 30.9329 179.824 30.1095 181.385 30.1095C182.509 30.1095 183.427 31.0188 183.427 32.1425V75.0419H178.186L173.219 60.4247C172.37 57.9284 172.713 55.2349 174.051 53.0647L166.562 45.5759C164.847 43.8602 164.847 41.0809 166.562 39.3653L166.554 39.3739Z" fill="white"/>
<path d="M183.409 75.9168H178.168C177.799 75.9168 177.473 75.6852 177.353 75.3335L172.386 60.7163C171.537 58.2287 171.751 55.5351 172.961 53.219L165.935 46.1935C163.885 44.1433 163.885 40.815 165.935 38.7648C166.09 38.6104 166.261 38.4732 166.441 38.3616C165.395 36.2171 165.91 33.5493 167.831 31.9795C168.432 31.4905 169.178 31.2675 169.95 31.3447C170.036 31.3533 170.121 31.3618 170.198 31.379C170.284 29.0372 171.948 26.9527 174.342 26.438C175.903 26.1034 177.447 27.0985 177.782 28.6597L178.15 30.3582C179.06 29.6462 180.183 29.2516 181.367 29.2516C182.963 29.2516 184.267 30.5469 184.267 32.1425V75.0419C184.267 75.5137 183.881 75.8997 183.409 75.8997V75.9168ZM178.785 74.2012H182.551V32.1596C182.551 31.5077 182.019 30.9844 181.367 30.9844C180.158 30.9844 179.043 31.6021 178.391 32.64C178.202 32.9317 177.867 33.086 177.516 33.026C177.172 32.966 176.898 32.7001 176.83 32.3655L176.109 29.0458C175.972 28.411 175.337 28.0078 174.711 28.145C172.806 28.5568 171.588 30.444 172 32.3483L172.094 32.803C172.18 33.189 171.991 33.5836 171.64 33.7552C171.288 33.9267 170.859 33.841 170.61 33.5407C170.387 33.2662 170.104 33.1118 169.787 33.0861C169.478 33.0517 169.169 33.1461 168.92 33.3434C167.428 34.5615 167.196 36.7832 168.406 38.293C168.603 38.5332 168.646 38.8592 168.534 39.1508C168.414 39.4425 168.157 39.6398 167.848 39.6827C167.659 39.7084 167.394 39.7856 167.162 40.0086C165.781 41.3897 165.781 43.6286 167.162 45.0097L174.651 52.4984C174.934 52.7815 174.985 53.219 174.771 53.5535C173.535 55.5523 173.261 57.9713 174.016 60.1931L178.785 74.227V74.2012Z" fill="black"/>
<path d="M180.072 44.1518C179.677 44.1518 179.317 43.8772 179.231 43.4741L176.555 31.0958C176.452 30.6325 176.752 30.1779 177.215 30.075C177.678 29.9806 178.133 30.2723 178.236 30.7355L180.912 43.1138C181.015 43.577 180.715 44.0317 180.252 44.1346C180.192 44.1517 180.132 44.1518 180.072 44.1518Z" fill="black"/>
<path d="M183.452 48.7325C183.203 48.7325 182.955 48.621 182.783 48.4151L170.576 33.4805C170.276 33.1117 170.328 32.5712 170.696 32.271C171.065 31.9707 171.606 32.0222 171.906 32.3911L184.113 47.3257C184.413 47.6946 184.361 48.235 183.993 48.5352C183.83 48.6639 183.641 48.7325 183.452 48.7325Z" fill="black"/>
<path d="M176.821 55.8608L166.552 45.5928C164.837 43.8772 164.837 41.0978 166.552 39.3822C167.35 38.5844 168.637 38.5844 169.435 39.3822L179.617 49.5645L176.829 55.8694L176.821 55.8608Z" fill="white"/>
<path d="M176.821 56.7188C176.598 56.7188 176.384 56.633 176.212 56.47L165.935 46.202C163.885 44.1518 163.885 40.8234 165.935 38.7732C167.068 37.6409 168.903 37.6409 170.027 38.7732L180.21 48.9555C180.544 49.2901 180.544 49.8305 180.21 50.1651C179.875 50.4996 179.334 50.4996 179 50.1651L168.818 39.9828C168.354 39.5196 167.608 39.5196 167.145 39.9828C165.764 41.3639 165.764 43.6027 167.145 44.9838L177.422 55.2519C177.756 55.5865 177.756 56.1269 177.422 56.4614C177.25 56.633 177.036 56.7102 176.813 56.7102L176.821 56.7188Z" fill="black"/>
<path d="M149.936 79.451L139.625 76.097L129.314 72.7515L132.668 83.0539L136.013 93.3648L139.642 86.3135L145.141 91.8208L148.383 88.5782L142.885 83.071L149.936 79.451Z" fill="white"/>
<path d="M136.014 94.2226C136.014 94.2226 135.971 94.2226 135.945 94.2226C135.602 94.1969 135.302 93.9652 135.199 93.6307L128.499 73.0173C128.396 72.7085 128.482 72.374 128.705 72.1424C128.937 71.9108 129.271 71.8336 129.58 71.9365L150.193 78.6361C150.519 78.739 150.76 79.0392 150.785 79.3824C150.811 79.7255 150.631 80.06 150.322 80.2144L144.317 83.3026L148.992 87.9777C149.327 88.3122 149.327 88.8527 148.992 89.1872L145.75 92.4297C145.424 92.7471 144.858 92.7471 144.54 92.4297L139.865 87.7547L136.786 93.7594C136.64 94.0425 136.34 94.2226 136.022 94.2226H136.014ZM130.652 74.0896L136.194 91.143L138.87 85.9275C138.999 85.6873 139.231 85.5157 139.497 85.4728C139.762 85.43 140.045 85.5158 140.234 85.7131L145.132 90.6112L147.165 88.5781L142.267 83.68C142.07 83.4827 141.984 83.2082 142.027 82.9423C142.07 82.6678 142.242 82.4362 142.482 82.3161L147.697 79.6397L130.644 74.0982L130.652 74.0896Z" fill="black"/>
<path d="M133.654 45.9617C126.732 45.9617 121.104 40.3344 121.104 33.4119C121.104 26.4893 126.732 20.862 133.654 20.862C140.577 20.862 146.204 26.4893 146.204 33.4119C146.204 40.3344 140.568 45.9617 133.654 45.9617ZM133.654 22.569C127.675 22.569 122.82 27.4329 122.82 33.4033C122.82 39.3737 127.684 44.2375 133.654 44.2375C139.625 44.2375 144.489 39.3737 144.489 33.4033C144.489 27.4329 139.625 22.569 133.654 22.569Z" fill="black"/>
<path d="M131.973 38.2587C131.913 38.2587 131.861 38.2587 131.801 38.2416C129.794 37.907 127.615 34.2699 127.203 33.5407L128.696 32.6915C129.674 34.3986 131.201 36.3201 132.024 36.5345C133.053 36.1914 136.39 31.7822 138.921 27.8019L140.371 28.7198C136.348 35.0419 133.525 38.2501 131.973 38.2501V38.2587Z" fill="black"/>
<path d="M144.686 54.5142H100.183C99.7112 54.5142 99.3252 54.1281 99.3252 53.6563C99.3252 53.1845 99.7112 52.7985 100.183 52.7985H144.686C145.158 52.7985 145.544 53.1845 145.544 53.6563C145.544 54.1281 145.158 54.5142 144.686 54.5142Z" fill="black"/>
<path d="M120.719 60.7935H100.183C99.7112 60.7935 99.3252 60.4074 99.3252 59.9356C99.3252 59.4638 99.7112 59.0778 100.183 59.0778H120.719C121.191 59.0778 121.577 59.4638 121.577 59.9356C121.577 60.4074 121.191 60.7935 120.719 60.7935Z" fill="black"/>
</svg>
