<svg width="242" height="200" viewBox="0 0 242 200" fill="none" xmlns="http://www.w3.org/2000/svg">
<path d="M51.1369 195.831L47.256 144.963L176.342 116.514L201.784 68.5189L225.603 79.5952L209.746 124.45C205.357 136.868 196.229 147.045 184.353 152.749L146.394 170.988L147.501 199.154L51.1286 195.822L51.1369 195.831Z" fill="white"/>
<path d="M147.51 199.995C147.068 199.995 146.694 199.645 146.677 199.195L145.569 171.03C145.553 170.696 145.744 170.388 146.044 170.247L184.004 152.008C195.763 146.362 204.624 136.476 208.971 124.184L224.578 80.0366L202.167 69.6098L177.091 116.905C176.975 117.122 176.775 117.28 176.533 117.33L48.1471 145.62L51.9697 195.772C52.003 196.23 51.6615 196.63 51.2035 196.663C50.7454 196.697 50.3457 196.355 50.3124 195.897L46.4315 145.029C46.3982 144.613 46.6814 144.238 47.0811 144.155L175.792 115.789L201.059 68.1357C201.268 67.7443 201.742 67.5861 202.15 67.7693L225.969 78.8457C226.36 79.0289 226.544 79.4703 226.402 79.8784L210.545 124.734C206.048 137.451 196.879 147.669 184.728 153.507L147.26 171.504L148.343 199.129C148.359 199.587 148.001 199.978 147.543 199.995C147.535 199.995 147.518 199.995 147.51 199.995Z" fill="black"/>
<path d="M77.5362 199.162L45.3647 118.263L47.6133 100.082H16.5245L33.9053 199.162H77.5362Z" fill="white"/>
<path d="M77.5361 199.995C77.203 199.995 76.8949 199.795 76.7617 199.47L44.5902 118.571C44.5402 118.438 44.5235 118.296 44.5402 118.163L46.6722 100.915H17.5239L34.7298 199.02C34.813 199.47 34.5049 199.903 34.0551 199.986C33.5971 200.07 33.1723 199.762 33.089 199.312L15.7083 100.232C15.6667 99.9908 15.7334 99.741 15.8916 99.5494C16.0498 99.3579 16.2829 99.2496 16.5328 99.2496H47.6217C47.8632 99.2496 48.088 99.3495 48.2463 99.5328C48.4045 99.7077 48.4794 99.9492 48.4461 100.182L46.2225 118.154L78.3107 198.854C78.4773 199.279 78.269 199.762 77.8443 199.936C77.7443 199.978 77.6361 199.995 77.5361 199.995Z" fill="black"/>
<path d="M71.773 4.75053L13.4479 25.416C6.04307 28.0396 2.16718 36.1693 4.79083 43.5742L25.4563 101.899C28.0799 109.304 36.2096 113.18 43.6145 110.556L101.94 89.8909C109.344 87.2673 113.22 79.1376 110.597 71.7327L89.9312 13.4077C87.3075 6.00284 79.1778 2.12688 71.773 4.75053Z" fill="#1E7FB8"/>
<g clip-path="url(#clip0_687_38930)">
<path d="M71.9496 27.0996L27.7152 42.7725L45.6543 93.4029L89.8887 77.7299L71.9496 27.0996Z" fill="white"/>
<path d="M90.2952 78.8771L46.0608 94.55C45.428 94.7742 44.7315 94.4421 44.5073 93.8093L26.5682 43.179C26.344 42.5462 26.676 41.8497 27.3088 41.6255L71.5432 25.9526C72.176 25.7284 72.8725 26.0604 73.0967 26.6932L91.0358 77.3236C91.26 77.9564 90.928 78.6529 90.2952 78.8771ZM46.395 91.8494L88.3353 76.9893L71.209 28.6532L29.2688 43.5132L46.3959 91.8519L46.395 91.8494Z" fill="black"/>
<path d="M67.1171 29.4616C66.4843 29.6858 65.7878 29.3538 65.5636 28.721L62.6999 20.6385C58.9561 22.5495 57.0395 26.7585 58.3794 30.5401C58.6036 31.1729 58.2715 31.8694 57.6387 32.0936C57.0059 32.3178 56.3094 31.9857 56.0852 31.3529C54.1692 25.9453 57.2744 19.8935 63.0073 17.8623C63.6401 17.6381 64.3366 17.9701 64.5608 18.6029L67.8578 27.9081C68.082 28.5409 67.7499 29.2374 67.1171 29.4616Z" fill="black"/>
<path d="M67.4871 58.4637L58.1818 61.7607C57.5491 61.9849 56.8525 61.6528 56.6283 61.02C56.4041 60.3872 56.7362 59.6907 57.369 59.4665L65.4515 56.6027C63.5405 52.8589 59.3315 50.9424 55.5499 52.2822C54.9171 52.5064 54.2206 52.1744 53.9964 51.5416C53.7722 50.9088 54.1043 50.2123 54.737 49.9881C60.1447 48.0721 66.1965 51.1773 68.2277 56.9102C68.4519 57.543 68.1198 58.2395 67.4871 58.4637Z" fill="black"/>
<path d="M59.2422 64.7531L38.1511 72.2261C37.5183 72.4503 36.8218 72.1182 36.5976 71.4854C36.3733 70.8526 36.7054 70.1561 37.3382 69.9319L57.2823 62.8654L47.6593 35.7061C47.4351 35.0733 47.7672 34.3768 48.4 34.1526C49.0327 33.9284 49.7293 34.2605 49.9535 34.8932L59.9829 63.1996C60.2071 63.8324 59.875 64.5289 59.2422 64.7531Z" fill="black"/>
<path d="M53.3691 49.8513L32.8049 57.1375C32.1721 57.3617 31.4756 57.0296 31.2514 56.3968C31.0272 55.7641 31.3593 55.0675 31.9921 54.8433L52.5588 47.5562C53.1916 47.332 53.8881 47.6641 54.1123 48.2969C54.3365 48.9297 54.0045 49.6262 53.3717 49.8504L53.3691 49.8513Z" fill="black"/>
<path d="M68.8561 86.4732C68.2233 86.6974 67.5268 86.3654 67.3026 85.7326L62.6487 72.5979C62.4245 71.9651 62.7566 71.2686 63.3894 71.0444L84.8284 63.4482C85.4612 63.224 86.1577 63.5561 86.3819 64.1889C86.6062 64.8216 86.2741 65.5182 85.6413 65.7424L65.3493 72.9321L69.5967 84.9197C69.8209 85.5525 69.4889 86.249 68.8561 86.4732Z" fill="black"/>
</g>
<path d="M218.834 9.45441L156.961 10.2104C149.106 10.3064 142.815 16.7522 142.911 24.6075L143.667 86.4807C143.763 94.3361 150.209 100.626 158.065 100.53L219.938 99.7743C227.793 99.6784 234.083 93.2325 233.987 85.3772L233.231 23.504C233.135 15.6487 226.69 9.35844 218.834 9.45441Z" fill="white"/>
<path d="M157.853 101.481C153.898 101.481 150.175 99.9657 147.343 97.2008C144.462 94.3942 142.854 90.6299 142.805 86.6074L142.055 24.7379C141.955 16.4348 148.626 9.59743 156.929 9.49749L218.798 8.74794C222.813 8.68965 226.619 10.222 229.5 13.0286C232.382 15.8352 233.989 19.5995 234.039 23.622L234.788 85.4915C234.888 93.7946 228.218 100.632 219.915 100.732L158.045 101.481C157.978 101.481 157.92 101.481 157.853 101.481ZM218.982 10.4052C218.923 10.4052 218.873 10.4052 218.815 10.4052L156.946 11.1548C149.559 11.2464 143.621 17.3259 143.712 24.713L144.462 86.5824C144.504 90.1635 145.936 93.5031 148.501 96.0015C151.058 98.5 154.456 99.8658 158.02 99.8075L219.89 99.0579C227.277 98.9663 233.214 92.8868 233.123 85.4998L232.373 23.6303C232.332 20.0492 230.899 16.7096 228.334 14.2112C225.811 11.7544 222.496 10.4052 218.982 10.4052Z" fill="black"/>
<path d="M173.61 22.7142C171.686 22.7142 170.121 21.1485 170.121 19.2247C170.121 17.3009 171.686 15.7352 173.61 15.7352C175.534 15.7352 177.1 17.3009 177.1 19.2247C177.1 21.1485 175.534 22.7142 173.61 22.7142ZM173.61 17.4009C172.603 17.4009 171.786 18.217 171.786 19.2247C171.786 20.2324 172.603 21.0486 173.61 21.0486C174.618 21.0486 175.434 20.2324 175.434 19.2247C175.434 18.217 174.618 17.4009 173.61 17.4009Z" fill="black"/>
<path d="M164.682 22.7142C162.759 22.7142 161.193 21.1485 161.193 19.2247C161.193 17.3009 162.759 15.7352 164.682 15.7352C166.606 15.7352 168.172 17.3009 168.172 19.2247C168.172 21.1485 166.606 22.7142 164.682 22.7142ZM164.682 17.4009C163.675 17.4009 162.859 18.217 162.859 19.2247C162.859 20.2324 163.675 21.0486 164.682 21.0486C165.69 21.0486 166.506 20.2324 166.506 19.2247C166.506 18.217 165.69 17.4009 164.682 17.4009Z" fill="black"/>
<path d="M155.746 22.7142C153.823 22.7142 152.257 21.1485 152.257 19.2247C152.257 17.3009 153.823 15.7352 155.746 15.7352C157.67 15.7352 159.236 17.3009 159.236 19.2247C159.236 21.1485 157.67 22.7142 155.746 22.7142ZM155.746 17.4009C154.739 17.4009 153.923 18.217 153.923 19.2247C153.923 20.2324 154.739 21.0486 155.746 21.0486C156.754 21.0486 157.57 20.2324 157.57 19.2247C157.57 18.217 156.754 17.4009 155.746 17.4009Z" fill="black"/>
<g clip-path="url(#clip1_687_38930)">
<path d="M217.179 51.1888H162.942V85.5207H217.179V51.1888Z" fill="#1E7FB8"/>
<path d="M218.914 58.4556L217.179 50.8263L196.343 59.0954L190.087 50.3651L184.734 51.1888L191.716 60.9294L162.83 72.392L162.398 80.8797L181.535 73.2877L191.956 87.1041L196.748 85.4354L186.192 71.4377L218.914 58.4556Z" fill="white"/>
<path d="M215.907 87.7306H164.994C163.2 87.7306 161.742 86.2724 161.742 84.4784V52.5963C161.742 50.8023 163.2 49.3441 164.994 49.3441H215.907C217.701 49.3441 219.159 50.8023 219.159 52.5963V84.4784C219.159 86.2724 217.701 87.7306 215.907 87.7306ZM164.994 51.7433C164.525 51.7433 164.141 52.1271 164.141 52.5963V84.4784C164.141 84.9475 164.525 85.3314 164.994 85.3314H215.907C216.376 85.3314 216.76 84.9475 216.76 84.4784V52.5963C216.76 52.1271 216.379 51.7433 215.907 51.7433H164.994Z" fill="black"/>
<path d="M179.589 30.7081C173.941 30.7081 169.364 35.2851 169.364 40.9338C169.364 46.5825 179.589 60.7535 179.589 60.7535C179.589 60.7535 189.815 46.5825 189.815 40.9338C189.815 35.2851 185.235 30.7081 179.589 30.7081ZM179.589 47.5768C176.593 47.5768 174.164 45.1483 174.164 42.152C174.164 39.1558 176.593 36.7273 179.589 36.7273C182.586 36.7273 185.014 39.1558 185.014 42.152C185.014 45.1483 182.586 47.5768 179.589 47.5768Z" fill="#1E7FB8"/>
<path d="M179.589 62.6701L178.851 61.6465C178.416 61.044 168.207 46.825 168.207 40.8165C168.207 34.8079 173.311 29.4338 179.589 29.4338C185.867 29.4338 190.972 34.5414 190.972 40.8165C190.972 47.0916 180.762 61.044 180.328 61.6465L179.589 62.6701ZM179.589 31.2545C174.316 31.2545 170.027 35.5437 170.027 40.8165C170.027 44.9697 176.358 54.9075 179.589 59.5379C182.817 54.9075 189.151 44.9697 189.151 40.8165C189.151 35.5437 184.862 31.2545 179.589 31.2545Z" fill="white"/>
<path d="M179.589 47.9206C182.777 47.9206 185.36 45.3367 185.36 42.1493C185.36 38.9619 182.777 36.3781 179.589 36.3781C176.402 36.3781 173.818 38.9619 173.818 42.1493C173.818 45.3367 176.402 47.9206 179.589 47.9206Z" fill="white"/>
</g>
<path d="M23.5538 112.358L26.4686 107.178L26.7434 96.8176L46.0397 84.2755C47.6137 83.2512 48.6214 81.5439 48.7463 79.6618L48.763 79.3536C48.9046 77.2216 46.6643 75.7559 44.7821 76.7636C39.8769 79.387 32.1151 83.551 28.8255 85.4582C32.1067 83.0347 39.8186 76.7636 44.4907 72.9493C46.8475 71.0172 47.9885 68.0024 47.5221 64.9877V64.9294C47.2306 63.1471 45.2068 62.256 43.7078 63.2554L21.5717 78.0128L41.5009 59.058C42.9417 57.6922 43.3164 55.5436 42.4253 53.7697L41.9589 52.8286C41.276 51.4545 39.5271 51.0214 38.2696 51.9042L14.3429 68.8602L14.6178 58.6666L22.8042 51.6211C24.9279 49.7889 25.7025 46.8324 24.7364 44.2007C24.2451 42.8432 22.596 42.3435 21.4384 43.1847L9.29608 52.0541C7.24737 53.5531 6.03976 55.935 6.03976 58.4667V74.7398L5.86491 86.8573C5.80661 91.0546 6.88928 95.1937 9.00462 98.8164L20.3058 118.163L23.5705 112.35L23.5538 112.358Z" fill="white"/>
<path d="M20.2892 118.995C20.006 118.995 19.7229 118.845 19.573 118.579L8.27179 99.2328C6.0815 95.4768 4.94885 91.1879 5.01547 86.8406L5.19033 74.7315V58.4751C5.19033 55.6851 6.53121 53.0368 8.78813 51.3878L20.9305 42.5184C21.6967 41.9604 22.6544 41.7938 23.5622 42.0687C24.4699 42.3435 25.1778 43.0098 25.5026 43.9009C26.5853 46.8573 25.7108 50.2052 23.3373 52.2539L15.4339 59.058L15.2091 67.2196L37.7699 51.2296C38.5694 50.6633 39.5688 50.4801 40.5099 50.7133C41.4593 50.9464 42.2504 51.5877 42.6835 52.4621L43.1499 53.4032C44.2076 55.5186 43.7661 58.042 42.0505 59.6743L29.1087 71.9832L43.2248 62.5725C44.1659 61.9479 45.3485 61.8396 46.3812 62.2976C47.4139 62.7557 48.1384 63.6884 48.3133 64.8127C48.838 68.1606 47.5638 71.5085 44.9987 73.6072C42.9417 75.2895 40.1184 77.5881 37.3618 79.8117C39.9185 78.4292 42.467 77.0634 44.3825 76.0473C45.5317 75.4311 46.8726 75.4893 47.9636 76.1972C49.0629 76.9135 49.6708 78.121 49.5875 79.4369L49.5708 79.745C49.4293 81.8687 48.28 83.8341 46.4895 85.0001L27.5597 97.3007L27.3015 107.219C27.3015 107.353 27.2599 107.486 27.1932 107.603L24.2784 112.783C24.0535 113.182 23.5455 113.324 23.1458 113.099C22.746 112.874 22.6044 112.366 22.8293 111.966L25.6442 106.961L25.9107 96.8093C25.9107 96.5345 26.0606 96.2846 26.2855 96.1347L45.5816 83.5926C46.9308 82.7181 47.8053 81.2275 47.9136 79.6201L47.9302 79.312C47.9802 78.6124 47.6554 77.9628 47.0641 77.5881C46.4811 77.2133 45.7732 77.1883 45.1652 77.5131C40.6431 79.9282 32.5731 84.2588 29.2336 86.191C28.8505 86.4158 28.3591 86.2993 28.1176 85.9245C27.8761 85.5581 27.9677 85.0584 28.3175 84.8002C31.6321 82.3517 39.5355 75.9308 43.9494 72.3164C46.0564 70.5924 47.1058 67.8358 46.681 65.1292C46.5811 64.5046 46.2313 64.0549 45.7149 63.8217C45.1986 63.5968 44.6239 63.6468 44.1492 63.955L22.0132 78.7123C21.6551 78.9539 21.1721 78.8789 20.8972 78.5374C20.6307 78.196 20.664 77.713 20.9722 77.4132L40.9013 58.4584C42.0838 57.3341 42.3837 55.6018 41.6591 54.1444L41.1928 53.2033C40.9763 52.762 40.5765 52.4455 40.1018 52.3289C39.6271 52.2123 39.1274 52.3039 38.7276 52.5871L14.801 69.5431C14.5428 69.7263 14.2013 69.743 13.9265 69.6014C13.6517 69.4515 13.4769 69.16 13.4852 68.8436L13.76 58.65C13.76 58.4168 13.8682 58.1919 14.0514 58.042L22.238 50.9964C24.0869 49.4058 24.7697 46.7907 23.9369 44.4922C23.787 44.0841 23.4789 43.7926 23.0709 43.6677C22.6711 43.5427 22.238 43.6177 21.9049 43.8676L9.76245 52.737C7.9386 54.0695 6.84762 56.2181 6.84762 58.4751V74.7482L6.67276 86.8739C6.61446 90.9213 7.66382 94.9105 9.7042 98.4083L21.0054 117.755C21.2386 118.154 21.1053 118.662 20.7056 118.895C20.5723 118.97 20.4308 119.012 20.2892 119.012V118.995Z" fill="black"/>
<path d="M15.3597 83.3346C15.1016 83.3346 14.8517 83.218 14.6934 83.0015C14.4186 82.635 14.4935 82.1104 14.8683 81.8355L31.9077 69.2185C32.2741 68.9436 32.7988 69.0186 33.0736 69.3933C33.3485 69.7598 33.2734 70.2845 32.8987 70.5593L15.8594 83.1763C15.7095 83.2846 15.5346 83.3429 15.3681 83.3429L15.3597 83.3346Z" fill="black"/>
<path d="M22.4885 90.2385C22.2054 90.2385 21.9305 90.0969 21.7723 89.8387C21.5308 89.4473 21.6557 88.9309 22.0554 88.6978L39.7278 77.9711C40.1192 77.7296 40.6355 77.8546 40.8687 78.2543C41.1102 78.6457 40.9852 79.1621 40.5855 79.3953L22.9133 90.1219C22.78 90.2052 22.6301 90.2468 22.4802 90.2468L22.4885 90.2385Z" fill="black"/>
<path d="M6.21436 76.4972C6.03114 76.4972 5.84792 76.4389 5.68968 76.314C5.33157 76.0225 5.27326 75.4979 5.56474 75.1398L7.57184 72.6579C8.44629 71.5753 9.50388 70.6592 10.7115 69.9513L14.3925 67.786C14.7923 67.5528 15.3003 67.6861 15.5335 68.0775C15.7666 68.4772 15.6334 68.9853 15.242 69.2185L11.5609 71.3838C10.5283 71.9917 9.6205 72.7662 8.87097 73.699L6.86387 76.1808C6.69731 76.3806 6.45587 76.4889 6.21436 76.4889V76.4972Z" fill="black"/>
<path d="M233.622 31.492V38.2211L238.094 33.8821C239.826 32.2082 240.884 29.9596 241.092 27.5611C241.275 25.4291 240.509 24.3298 237.927 22.7725L224.286 15.1938L223.695 18.3919C223.278 20.6738 224.078 23.0056 225.81 24.5463L233.613 31.492H233.622Z" fill="white"/>
<path d="M233.622 39.0622C233.514 39.0622 233.405 39.0372 233.297 38.9956C232.989 38.8624 232.789 38.5626 232.789 38.2294V31.8667L225.269 25.171C223.328 23.447 222.421 20.7904 222.887 18.242L223.478 15.044C223.528 14.7775 223.703 14.5526 223.945 14.4444C224.186 14.3278 224.469 14.3361 224.702 14.4693L238.344 22.0479C240.859 23.5636 242.166 24.8961 241.933 27.6361C241.708 30.2344 240.559 32.6663 238.685 34.4818L234.213 38.8207C234.055 38.9706 233.847 39.0539 233.63 39.0539L233.622 39.0622ZM224.902 16.493L224.528 18.5501C224.161 20.5322 224.869 22.5976 226.376 23.9301L234.18 30.8757C234.355 31.0339 234.455 31.2588 234.455 31.5003V36.264L237.519 33.2909C239.102 31.7502 240.076 29.6931 240.268 27.4945C240.409 25.8539 240.009 25.0044 237.503 23.4887L224.902 16.4848V16.493Z" fill="black"/>
<path d="M233.622 40.3531V47.0822L238.094 42.7433C239.826 41.0693 240.884 38.8208 241.092 36.4223C241.275 34.2903 239.968 32.3082 237.927 31.6336L220.572 25.6457L220.347 30.0763C220.23 32.3748 221.471 34.5234 223.52 35.5644L233.622 40.3448V40.3531Z" fill="white"/>
<path d="M233.622 47.915C233.513 47.915 233.405 47.89 233.297 47.8484C232.989 47.7151 232.789 47.4153 232.789 47.0822V40.8778L223.162 36.3223C220.805 35.1231 219.381 32.6579 219.514 30.0345L219.739 25.604C219.756 25.3458 219.889 25.1043 220.105 24.9544C220.322 24.8045 220.597 24.7712 220.846 24.8545L238.202 30.8424C240.601 31.6336 242.141 33.9571 241.925 36.4888C241.7 39.0872 240.551 41.519 238.677 43.3346L234.205 47.6735C234.046 47.8234 233.838 47.9067 233.622 47.9067V47.915ZM221.354 26.7866L221.18 30.1179C221.08 32.0833 222.146 33.9321 223.895 34.8232L233.971 39.5953C234.263 39.7368 234.446 40.0283 234.446 40.3448V45.1085L237.511 42.1353C239.093 40.5946 240.068 38.5376 240.259 36.3389C240.409 34.5817 239.343 32.9661 237.669 32.4164L221.346 26.7866H221.354Z" fill="black"/>
<path d="M233.622 49.2142V55.9433L238.094 51.6043C239.826 49.9304 240.884 47.6818 241.092 45.2833C241.275 43.1513 239.968 41.1692 237.927 40.4946L222.046 35.0814L221.821 39.5119C221.704 41.8105 222.945 43.9592 224.994 45.0002L233.622 49.2058V49.2142Z" fill="white"/>
<path d="M233.622 56.7761C233.514 56.7761 233.405 56.7511 233.297 56.7095C232.989 56.5762 232.789 56.2764 232.789 55.9433V49.7305L224.627 45.7497C222.279 44.5504 220.855 42.0853 220.988 39.4703L221.213 35.0397C221.23 34.7815 221.363 34.5401 221.579 34.3902C221.796 34.2402 222.071 34.2069 222.312 34.2902L238.194 39.7035C240.601 40.4947 242.133 42.8182 241.917 45.3499C241.692 47.9483 240.542 50.3801 238.669 52.1957L234.196 56.5346C234.038 56.6845 233.83 56.7678 233.613 56.7678L233.622 56.7761ZM222.829 36.2223L222.654 39.5535C222.554 41.519 223.62 43.3678 225.369 44.2589L233.98 48.4563C234.263 48.5979 234.446 48.8894 234.446 49.2058V53.9695L237.511 50.9964C239.093 49.4557 240.068 47.3986 240.259 45.2C240.409 43.4428 239.343 41.8271 237.669 41.2775L222.82 36.214L222.829 36.2223Z" fill="black"/>
<path d="M233.622 57.6256V64.3547L238.094 60.0157C239.826 58.3418 240.884 56.0932 241.092 53.6947C241.275 51.5627 239.968 49.5807 237.927 48.9061L224.144 44.3672L223.92 48.7978C223.803 51.0964 225.044 53.245 227.092 54.286L233.622 57.6172V57.6256Z" fill="white"/>
<path d="M233.622 65.1959C233.514 65.1959 233.405 65.1709 233.297 65.1292C232.989 64.996 232.789 64.6962 232.789 64.363V58.1419L226.718 55.0439C224.386 53.853 222.962 51.3878 223.095 48.7728L223.32 44.3422C223.337 44.0841 223.47 43.8426 223.678 43.701C223.895 43.5511 224.161 43.5178 224.411 43.6011L238.194 48.1399C240.609 48.931 242.141 51.2546 241.925 53.7863C241.7 56.3847 240.551 58.8165 238.677 60.632L234.205 64.971C234.046 65.1209 233.838 65.2042 233.622 65.2042V65.1959ZM224.927 45.5082L224.752 48.8561C224.652 50.8215 225.719 52.6703 227.467 53.5615L233.988 56.8927C234.263 57.0343 234.446 57.3258 234.446 57.6339V62.3976L237.511 59.4245C239.093 57.8838 240.068 55.8267 240.259 53.6281C240.409 51.8709 239.343 50.2552 237.669 49.7055L224.927 45.5082Z" fill="black"/>
<path d="M121.342 128.631L109.5 131.238L119.943 107.578L95.8083 96.926L77.6779 136.768C77.4364 137.292 77.2949 137.825 77.195 138.35L66.2852 140.757C67.5344 153.657 79.8765 163.784 94.9338 163.784C110.815 163.784 123.691 152.508 123.691 138.6C123.691 135.052 122.85 131.679 121.342 128.623V128.631Z" fill="white"/>
<path d="M94.9338 164.625C79.7017 164.625 66.7515 154.182 65.4606 140.848C65.419 140.432 65.7021 140.049 66.1102 139.957L76.4953 137.667C76.6036 137.234 76.7452 136.826 76.9201 136.435L95.0504 96.5929C95.2419 96.1765 95.725 95.9933 96.1414 96.1765L120.276 106.828C120.476 106.92 120.634 107.086 120.718 107.286C120.801 107.494 120.793 107.719 120.701 107.927L110.924 130.08L121.159 127.823C121.534 127.74 121.917 127.923 122.083 128.265C123.699 131.538 124.524 135.019 124.524 138.608C124.524 152.949 111.249 164.625 94.9338 164.625ZM67.2012 141.415C68.8086 153.557 80.826 162.96 94.9338 162.96C110.332 162.96 122.858 152.033 122.858 138.608C122.858 135.493 122.192 132.462 120.876 129.589L109.683 132.054C109.375 132.121 109.058 132.012 108.858 131.771C108.659 131.529 108.617 131.196 108.742 130.905L118.844 108.011L96.2247 98.0336L78.4359 137.126C78.2443 137.542 78.1111 137.992 78.0111 138.508C77.9528 138.841 77.6946 139.1 77.3698 139.174L67.1929 141.415H67.2012Z" fill="black"/>
<path d="M110.399 125.658L118.819 106.587L96.1331 96.5762L87.1221 116.988C92.9851 123.06 101.43 126.474 110.399 125.658Z" fill="black"/>
<path d="M142.512 73.9987L137.241 70.3843C124.948 61.9563 108.933 62.5893 98.3984 71.9251L85.673 83.2013C80.9177 87.4153 80.6761 94.844 85.1317 99.8825L102.238 119.212L142.512 73.9987Z" fill="black"/>
<path d="M133.21 66.57L139.089 71.0672C152.797 81.544 158.286 98.45 152.414 112.091L145.319 128.556C142.67 134.711 134.859 137.051 127.78 133.803L100.622 121.361L133.218 66.57H133.21Z" fill="black"/>
<path d="M130.911 73.8655C130.811 73.8655 130.711 73.8488 130.62 73.8155C130.187 73.6573 129.97 73.1743 130.137 72.7412L135.983 57.176C136.957 54.5776 139.173 52.7454 142.063 52.1458C142.512 52.0542 142.954 52.3457 143.045 52.7954C143.137 53.2451 142.845 53.6865 142.396 53.7781C140.039 54.2611 138.315 55.6769 137.532 57.7589L131.686 73.3242C131.561 73.6573 131.244 73.8655 130.903 73.8655H130.911Z" fill="black"/>
<path d="M130.986 73.3825L138.498 58.7582C140.847 54.1778 146.835 52.912 151.273 56.0433L156.187 59.5161C161.084 62.9806 161.575 69.9346 157.17 73.499L142.729 85.2L130.986 73.3658V73.3825Z" fill="black"/>
<path d="M148.134 116.014C149.949 112.1 148.242 107.453 144.328 105.646L144.203 105.587C149.5 94.4026 148.409 82.127 140.539 75.1813C131.836 67.5028 117.695 68.8686 106.668 77.6714C103.853 75.3978 99.7475 75.3229 96.8327 77.6964C93.4848 80.4197 92.9851 85.3416 95.7084 88.6895L96.5662 89.7388C90.2868 101.373 91.0613 114.582 99.3394 121.885C108.392 129.872 123.316 128.073 134.509 118.313L137.757 119.82C141.671 121.635 146.318 119.928 148.125 116.014H148.134Z" fill="white"/>
<path d="M113.372 127.765C107.909 127.765 102.796 126.041 98.798 122.51C90.5948 115.273 89.2957 101.898 95.5834 89.8387L95.0754 89.2141C92.0689 85.5164 92.6269 80.0616 96.3246 77.0551C99.2977 74.6316 103.545 74.49 106.668 76.6304C118.236 67.686 132.327 66.8199 141.105 74.565C148.842 81.3941 150.491 93.628 145.31 105.212C149.191 107.403 150.807 112.258 148.9 116.372C147.926 118.471 146.202 120.061 144.036 120.853C141.871 121.644 139.522 121.552 137.424 120.578L134.659 119.295C128.071 124.892 120.434 127.765 113.372 127.765ZM101.771 76.7803C100.206 76.7803 98.6398 77.2966 97.3656 78.3376C94.3842 80.7694 93.9261 85.175 96.3579 88.1565L97.2157 89.2141C97.4239 89.4723 97.4656 89.8388 97.299 90.1386C91.0863 101.64 92.1522 114.44 99.8891 121.269C108.525 128.889 122.858 127.382 133.959 117.696C134.209 117.48 134.559 117.43 134.859 117.571L138.107 119.079C139.797 119.862 141.696 119.937 143.445 119.295C145.194 118.654 146.593 117.371 147.376 115.681C148.992 112.191 147.467 108.036 143.978 106.412L143.853 106.353C143.653 106.262 143.495 106.087 143.42 105.879C143.345 105.67 143.353 105.437 143.453 105.237C148.725 94.1111 147.334 82.2935 139.989 75.8142C131.827 68.6187 118.028 69.6681 107.184 78.3293C106.876 78.5708 106.443 78.5708 106.143 78.3293C104.878 77.3049 103.32 76.7886 101.763 76.7886L101.771 76.7803Z" fill="black"/>
<path d="M147.393 83.6094C146.352 79.7534 144.369 76.3473 141.405 73.7322C132.444 65.8289 117.495 67.6777 105.619 77.33C105.003 76.8386 104.32 76.4555 103.603 76.1724C113.672 85.9995 130.395 88.6978 147.401 83.6094H147.393Z" fill="black"/>
<path d="M126.189 89.8221C119.593 89.8221 113.514 88.0732 108.692 84.6004C108.317 84.3339 108.234 83.8092 108.5 83.4344C108.767 83.0597 109.291 82.9764 109.666 83.2429C118.427 89.5639 131.711 89.7971 144.336 83.8675C144.753 83.676 145.252 83.8508 145.444 84.2672C145.635 84.6836 145.46 85.1833 145.044 85.3749C138.731 88.3397 132.244 89.8138 126.189 89.8138V89.8221Z" fill="black"/>
<path d="M134.467 91.7875C134.093 91.7875 133.751 91.5294 133.659 91.1546C133.551 90.7049 133.826 90.2551 134.276 90.1469C138.698 89.0726 142.804 86.7574 146.468 83.2512C146.801 82.9348 147.326 82.9431 147.642 83.2762C147.959 83.6093 147.95 84.134 147.617 84.4505C143.736 88.1648 139.381 90.6216 134.667 91.7625C134.601 91.7792 134.534 91.7875 134.467 91.7875Z" fill="black"/>
<path d="M138.315 114.34C138.165 114.34 138.015 114.298 137.874 114.215C137.482 113.974 137.365 113.457 137.607 113.066C139.606 109.86 143.112 110.459 143.262 110.493C143.712 110.576 144.011 111.009 143.928 111.459C143.845 111.908 143.42 112.208 142.962 112.125C142.845 112.108 140.405 111.725 139.023 113.949C138.865 114.198 138.59 114.34 138.315 114.34Z" fill="black"/>
<path d="M99.7724 84.9835C99.5393 84.9835 99.3061 84.8835 99.1478 84.7003C98.848 84.3505 98.8813 83.8342 99.2228 83.5261C99.3144 83.4428 101.13 81.7772 100.247 79.3037C100.089 78.8706 100.322 78.3959 100.755 78.2377C101.188 78.0878 101.663 78.3126 101.821 78.7457C103.087 82.3101 100.439 84.6753 100.322 84.7753C100.164 84.9169 99.9723 84.9835 99.7724 84.9835Z" fill="black"/>
<path d="M114.272 102.048C111.973 102.048 109.775 101.223 108.034 99.6826C106.143 98.017 105.011 95.7101 104.853 93.1867C104.694 90.6716 105.527 88.2398 107.193 86.3493C110.641 82.4434 116.62 82.0687 120.526 85.5165C122.417 87.1821 123.549 89.489 123.707 92.0125C123.866 94.5275 123.033 96.9593 121.367 98.8498C119.702 100.74 117.395 101.873 114.871 102.031C114.672 102.048 114.472 102.048 114.272 102.048ZM114.288 84.8253C112.131 84.8253 109.983 85.7164 108.45 87.4569C107.076 89.0143 106.393 91.0131 106.518 93.0868C106.652 95.1605 107.576 97.0592 109.133 98.4334C110.691 99.8075 112.689 100.499 114.763 100.366C116.837 100.232 118.736 99.3078 120.11 97.7505C121.484 96.1931 122.167 94.1944 122.042 92.1207C121.909 90.047 120.984 88.1482 119.427 86.774C117.953 85.4749 116.112 84.8336 114.288 84.8336V84.8253Z" fill="#1E7FB8"/>
<path d="M129.421 115.406C127.197 115.406 124.973 114.632 123.174 113.049C119.269 109.601 118.894 103.622 122.342 99.7159C125.789 95.8101 131.769 95.4353 135.675 98.8831C139.581 102.331 139.956 108.31 136.508 112.216C134.642 114.332 132.036 115.406 129.421 115.406ZM129.429 98.1919C127.272 98.1919 125.123 99.083 123.591 100.824C120.751 104.038 121.059 108.968 124.282 111.8C127.497 114.64 132.427 114.332 135.259 111.109C136.633 109.551 137.316 107.553 137.191 105.479C137.057 103.405 136.133 101.506 134.576 100.132C133.102 98.8332 131.261 98.1919 129.437 98.1919H129.429Z" fill="#1E7FB8"/>
<path d="M121.917 101.307C121.725 101.307 121.525 101.24 121.367 101.098L120.051 99.9324C119.71 99.6243 119.677 99.0996 119.976 98.7582C120.285 98.4167 120.809 98.3834 121.151 98.6832L122.467 99.8492C122.808 100.157 122.841 100.682 122.541 101.023C122.375 101.207 122.15 101.307 121.917 101.307Z" fill="#1E7FB8"/>
<path d="M113.639 92.837C112.673 94.0945 112.539 95.6102 113.347 96.2265C114.147 96.8428 115.579 96.3181 116.545 95.0605C117.511 93.803 117.645 92.2873 116.837 91.671C116.037 91.0547 114.605 91.5794 113.639 92.837Z" fill="black"/>
<path d="M125.881 103.38C124.832 104.571 124.598 106.07 125.348 106.745C126.106 107.411 127.572 106.986 128.613 105.804C129.662 104.613 129.895 103.114 129.146 102.439C128.396 101.765 126.922 102.198 125.881 103.38Z" fill="black"/>
<path d="M105.919 114.598C105.66 114.598 105.411 114.482 105.252 114.265C102.054 109.976 102.696 105.471 102.721 105.287C102.787 104.829 103.22 104.521 103.67 104.588C104.128 104.654 104.436 105.079 104.37 105.537C104.37 105.587 103.82 109.56 106.585 113.274C106.86 113.64 106.785 114.165 106.418 114.44C106.268 114.548 106.093 114.607 105.919 114.607V114.598Z" fill="black"/>
<path d="M115.646 109.959C115.004 109.959 114.363 109.801 113.789 109.485C113.38 109.268 113.231 108.76 113.455 108.352C113.672 107.944 114.18 107.803 114.588 108.019C115.146 108.327 115.787 108.377 116.387 108.161C116.987 107.952 117.453 107.511 117.703 106.92L120.068 101.257C120.243 100.832 120.734 100.632 121.159 100.807C121.584 100.982 121.784 101.473 121.609 101.898L119.243 107.561C118.819 108.577 117.986 109.368 116.945 109.735C116.529 109.885 116.087 109.951 115.654 109.951L115.646 109.959Z" fill="black"/>
<path d="M149.075 81.5274C148.758 81.5274 148.459 81.3441 148.317 81.036C148.275 80.9527 144.403 72.6829 132.618 67.9609C132.194 67.786 131.986 67.3029 132.152 66.8782C132.327 66.4535 132.802 66.2453 133.235 66.4118C145.677 71.4004 149.674 79.9867 149.833 80.3531C150.024 80.7695 149.833 81.2608 149.416 81.4524C149.308 81.5024 149.191 81.5274 149.075 81.5274Z" fill="#1E7FB8"/>
<path d="M84.507 100.432C79.7683 95.0772 80.0432 87.0739 85.115 82.5767L97.8403 71.3004C101.18 68.3356 105.069 66.1953 109.408 64.9211L109.874 66.5201C105.777 67.7276 102.104 69.7514 98.948 72.5497L86.2226 83.8259C81.8421 87.7151 81.6255 94.6691 85.7562 99.3328L84.507 100.44V100.432Z" fill="white"/>
<path d="M60.5475 159.453H27.31C26.8519 159.453 26.4772 159.079 26.4772 158.621C26.4772 158.162 26.8519 157.788 27.31 157.788H60.5475C61.0055 157.788 61.3803 158.162 61.3803 158.621C61.3803 159.079 61.0055 159.453 60.5475 159.453Z" fill="black"/>
<defs>
<clipPath id="clip0_687_38930">
<rect width="49.3628" height="66.6249" fill="white" transform="translate(22.6628 32.1569) rotate(-19.51)"/>
</clipPath>
<clipPath id="clip1_687_38930">
<rect width="57.4171" height="58.2967" fill="white" transform="translate(161.742 29.4338)"/>
</clipPath>
</defs>
</svg>
