<svg width="290" height="70" viewBox="0 0 290 70" fill="none" xmlns="http://www.w3.org/2000/svg">
<path d="M88.9529 22.5048V49.2887H96.8905V36.889H113.42V34.4111H96.8905V24.9826H114.214V22.5048H88.9529Z" fill="black"/>
<path d="M116.498 22.5048V49.2887H138.852C142.167 49.2887 144.848 46.6071 144.848 43.2927V28.5009C144.848 25.1864 142.167 22.5048 138.852 22.5048H116.498ZM133.907 46.8109H124.436V24.9826H133.907C135.559 24.9826 136.911 26.3234 136.911 27.986V43.8183C136.911 45.4701 135.57 46.8217 133.907 46.8217V46.8109Z" fill="black"/>
<path d="M173.327 22.5048H147.927V24.9826H173.327V22.5048Z" fill="black"/>
<path d="M189.47 22.5048H175.977V24.9826H189.47V22.5048Z" fill="black"/>
<path d="M289.152 31.9333H266.143V36.535H289.152V31.9333Z" fill="black"/>
<path d="M147.133 28.458V30.9358H166.183V43.8076C166.183 45.4595 164.843 46.811 163.18 46.811H151.006V49.2888H168.114C171.429 49.2888 174.11 46.6072 174.11 43.2927V28.458H147.123H147.133Z" fill="black"/>
<path d="M192.023 46.8109H177.564V49.2887H196.958C200.272 49.2887 202.954 46.6071 202.954 43.2926V24.9825H195.016V43.8075C195.016 45.4594 193.675 46.8109 192.013 46.8109H192.023Z" fill="black"/>
<path d="M226.659 24.5106L233.009 24.1674V21.6896L205.228 23.1806V25.6584L218.722 24.9397V31.9334H205.228V34.4112H218.722V43.8076C218.722 45.4594 217.381 46.811 215.718 46.811H206.815V49.2888H220.663C223.978 49.2888 226.659 46.6072 226.659 43.2927V34.4112H233.803V31.9334H226.659V24.5106Z" fill="black"/>
<path d="M249.142 31.9333L248.884 29.4448H240.947L241.215 31.9333H236.088V34.4111H241.472L243.06 49.2887H250.997L249.41 34.4111H254.891L254.344 39.8709H262.282L263.075 31.9333H249.142Z" fill="black"/>
<path d="M53.7593 16.8627C54.6603 17.7637 56.1298 17.7637 57.0308 16.8627C57.9319 15.9617 57.9319 14.4921 57.0308 13.5911C56.1298 12.6901 54.6603 12.6901 53.7593 13.5911C52.8582 14.4921 52.8582 15.9617 53.7593 16.8627Z" fill="black"/>
<path d="M38.7851 21.2927C39.182 21.6896 39.4823 22.1615 39.6647 22.6549L41.8422 20.4775H45.0279L39.6432 25.8622C39.1713 26.3341 39.1713 27.1064 39.6432 27.5784C40.1152 28.0504 40.8875 28.0504 41.3595 27.5784L46.4224 22.5155C46.6584 22.8266 46.9158 23.1376 47.1947 23.4165C47.4736 23.6954 47.7739 23.9528 48.0957 24.1888L43.0328 29.2517C42.5608 29.7237 42.5608 30.496 43.0328 30.9679C43.5048 31.4399 44.2771 31.4399 44.749 30.9679L50.1337 25.5833V28.769L47.9563 30.9465C48.4497 31.1288 48.9216 31.4292 49.3185 31.8261C50.8202 33.3278 50.8202 35.7627 49.3185 37.2644L53.0513 40.9972L64.7754 29.2732C71.2327 22.8158 71.2434 12.2932 64.7754 5.83584C61.6432 2.70371 57.4814 0.976746 53.0513 0.976746C48.6213 0.976746 44.4594 2.70371 41.3273 5.83584L29.6033 17.5599L33.3361 21.2927C34.8378 19.791 37.2727 19.791 38.7744 21.2927H38.7851ZM48.4711 12.9368H51.1957C55.69 8.84997 60.3882 6.90848 62.0508 8.57108C63.7134 10.2337 61.7719 14.9319 57.6852 19.4263V22.1508C57.6852 23.2556 57.0952 24.2746 56.1405 24.8217L52.0109 27.203V23.8348C50.7344 23.6525 49.5009 23.0733 48.5248 22.0864C47.5487 21.0996 46.9587 19.8768 46.7763 18.6003H43.4082L45.7895 14.4706C46.3366 13.516 47.3556 12.926 48.4604 12.926L48.4711 12.9368Z" fill="black"/>
<path d="M27.9407 19.2332L38.828 30.1205L27.4365 41.512C24.1971 44.7514 19.81 46.5642 15.2405 46.5642H0.620361L27.9407 19.2439V19.2332Z" fill="black"/>
<path d="M29.1098 43.1854L40.5013 31.7939L51.3887 42.6812L39.4608 54.6091V69.9908H24.0684V55.3814C24.0684 50.8012 25.8811 46.4141 29.1205 43.1854H29.1098Z" fill="black"/>
</svg>
