<svg width="257" height="201" viewBox="0 0 257 201" fill="none" xmlns="http://www.w3.org/2000/svg">
<path d="M98.6553 194.711L103.231 128.648L126.728 91.7771C129.308 87.7262 133.05 84.5439 137.47 82.6517L170.738 68.3918L179.683 68.1768L208.891 75.9518C219.151 78.6868 227.959 85.2922 233.437 94.3917L252.419 125.862C260.28 138.892 251.696 155.646 236.525 156.885L218.025 158.39V197.291L98.6639 194.711H98.6553Z" fill="white"/>
<path d="M218.016 198.151C217.543 198.151 217.156 197.764 217.156 197.291V158.39C217.156 157.942 217.5 157.573 217.947 157.53L236.447 156.025C243.276 155.465 249.211 151.501 252.333 145.403C255.455 139.305 255.206 132.166 251.671 126.309L232.689 94.839C227.288 85.8856 218.756 79.4781 208.658 76.7861L179.571 69.0368L170.91 69.2432L137.797 83.4344C133.522 85.2663 129.945 88.311 127.442 92.2329L104.065 128.924L99.5066 194.771C99.4722 195.244 99.068 195.605 98.5864 195.571C98.1133 195.536 97.752 195.123 97.7864 194.65L102.362 128.588C102.371 128.442 102.414 128.304 102.491 128.184L125.988 91.3126C128.672 87.0983 132.525 83.83 137.118 81.8604L170.385 67.6004C170.488 67.5574 170.592 67.5317 170.703 67.5317L179.648 67.3167C179.734 67.3167 179.812 67.3166 179.889 67.3424L209.097 75.1175C219.633 77.9213 228.535 84.6041 234.159 93.9445L253.141 125.414C256.986 131.796 257.253 139.554 253.864 146.185C250.467 152.816 244.007 157.134 236.585 157.736L218.876 159.181V197.282C218.876 197.755 218.489 198.142 218.016 198.142V198.151Z" fill="black"/>
<path d="M1.13184 197.291V116.298C1.13184 110.75 5.62145 106.261 11.1689 106.261H145.848C151.395 106.261 155.885 110.75 155.885 116.298V134.497L156.039 164.72L155.885 197.291H1.13184Z" fill="white"/>
<path d="M155.885 198.151C155.412 198.151 155.025 197.764 155.025 197.291L155.18 164.72L155.025 134.506V116.298C155.025 111.241 150.905 107.121 145.848 107.121H11.1691C6.1119 107.121 1.99212 111.241 1.99212 116.298V197.291C1.99212 197.764 1.60508 198.151 1.13204 198.151C0.659005 198.151 0.271973 197.764 0.271973 197.291V116.298C0.271973 110.286 5.15722 105.401 11.1691 105.401H145.848C151.86 105.401 156.745 110.286 156.745 116.298V134.497L156.9 164.711L156.745 197.291C156.745 197.764 156.358 198.151 155.885 198.151Z" fill="black"/>
<path d="M146.39 117.863C144.437 117.863 142.846 116.272 142.846 114.32C142.846 112.367 144.437 110.776 146.39 110.776C148.342 110.776 149.933 112.367 149.933 114.32C149.933 116.272 148.342 117.863 146.39 117.863ZM146.39 112.488C145.383 112.488 144.566 113.305 144.566 114.311C144.566 115.317 145.383 116.134 146.39 116.134C147.396 116.134 148.213 115.317 148.213 114.311C148.213 113.305 147.396 112.488 146.39 112.488Z" fill="black"/>
<path d="M137.35 117.863C135.398 117.863 133.807 116.272 133.807 114.32C133.807 112.367 135.398 110.776 137.35 110.776C139.302 110.776 140.894 112.367 140.894 114.32C140.894 116.272 139.302 117.863 137.35 117.863ZM137.35 112.488C136.344 112.488 135.527 113.305 135.527 114.311C135.527 115.317 136.344 116.134 137.35 116.134C138.356 116.134 139.173 115.317 139.173 114.311C139.173 113.305 138.356 112.488 137.35 112.488Z" fill="black"/>
<path d="M128.302 117.863C126.35 117.863 124.759 116.272 124.759 114.32C124.759 112.367 126.35 110.776 128.302 110.776C130.255 110.776 131.846 112.367 131.846 114.32C131.846 116.272 130.255 117.863 128.302 117.863ZM128.302 112.488C127.296 112.488 126.479 113.305 126.479 114.311C126.479 115.317 127.296 116.134 128.302 116.134C129.309 116.134 130.126 115.317 130.126 114.311C130.126 113.305 129.309 112.488 128.302 112.488Z" fill="black"/>
<path d="M152.686 120.073H7.03223V121.794H152.686V120.073Z" fill="black"/>
<path d="M170.885 52.5062L173.973 64.8569L179.675 68.1854L171.788 81.3616C166.825 89.6527 154.363 88.0616 151.654 78.7814L149.039 69.8453L170.894 52.5062H170.885Z" fill="white"/>
<path d="M162.345 87.6144C161.82 87.6144 161.295 87.58 160.762 87.5112C155.98 86.9005 152.17 83.6495 150.82 79.0223L148.205 70.0861C148.11 69.7507 148.222 69.3894 148.497 69.1744L170.352 51.8354C170.584 51.6548 170.885 51.6031 171.16 51.6978C171.436 51.7924 171.651 52.016 171.719 52.2998L174.721 64.2978L180.105 67.4371C180.303 67.5489 180.449 67.7467 180.501 67.9617C180.561 68.1854 180.526 68.4176 180.406 68.6154L172.519 81.7917C170.317 85.4642 166.516 87.6058 162.345 87.6058V87.6144ZM150.02 70.1635L152.471 78.5492C153.632 82.5056 156.892 85.2922 160.977 85.8169C165.062 86.3415 168.924 84.4665 171.04 80.9316L178.48 68.5036L173.534 65.6137C173.336 65.4933 173.19 65.3041 173.13 65.0805L170.369 54.02L150.011 70.1721L150.02 70.1635Z" fill="black"/>
<path d="M151.645 78.7814C151.817 79.3576 152.023 79.9081 152.264 80.4241C154.388 79.048 156.272 77.1387 157.743 74.6875L170.171 53.9253L169.543 53.5641L149.03 69.8452L151.645 78.7814Z" fill="black"/>
<path d="M168.141 7.33522C159.377 2.51021 147.628 4.37655 145.668 7.79964C144.016 6.05369 141.72 4.73776 139.028 4.17871C132.749 2.8714 126.694 6.19132 125.516 11.584C124.492 16.2542 127.468 20.9588 132.362 22.9799C130.848 26.1364 129.636 29.6025 128.827 33.318C125.593 48.1284 149.435 54.3123 153.959 55.2584C166.215 57.8042 178.514 49.0229 181.429 35.6488C184.354 22.2747 178.711 13.1665 168.124 7.34377L168.141 7.33522Z" fill="black"/>
<path d="M167.978 11.0937C164.46 11.6613 161.57 13.0891 159.781 15.3941C154.741 21.9134 158.766 37.7731 172.071 40.9382C172.897 41.136 173.835 40.9124 174.583 41.2994C177.198 29.1724 174.402 17.7936 167.978 11.0851V11.0937Z" fill="black"/>
<path d="M131.846 22.7907C136.826 25.5946 143.655 27.3233 151.198 27.3233C163.884 27.3233 174.566 22.4295 177.765 15.7726C174.471 9.05539 169.122 4.31636 162.362 2.99184C150.794 0.729854 138.598 9.14999 131.846 22.7993V22.7907Z" fill="black"/>
<path d="M177.01 55.5749C181.715 53.4595 183.814 47.9305 181.699 43.2257C179.583 38.5208 174.054 36.4217 169.349 38.5371C164.645 40.6525 162.545 46.1815 164.661 50.8863C166.776 55.5912 172.305 57.6903 177.01 55.5749Z" fill="white"/>
<path d="M173.181 37.7732C171.229 37.7732 169.414 38.3753 167.909 39.3987C162.645 36.6895 159.42 31.7269 158.225 26.7987C155.98 27.1341 153.632 27.3147 151.206 27.3147C143.818 27.3147 137.11 25.6462 132.156 22.9456C130.711 26.0762 129.55 29.5079 128.767 33.1718C124.94 51.1473 131.58 67.7897 143.595 70.3527C152.6 72.2707 162.06 65.7428 167.857 54.7854C169.371 55.8347 171.203 56.454 173.181 56.454C178.342 56.454 182.522 52.2741 182.522 47.1136C182.522 41.9532 178.342 37.7732 173.181 37.7732Z" fill="white"/>
<path d="M146.751 71.5482C145.633 71.5482 144.523 71.4364 143.414 71.1956C137.307 69.8969 132.345 65.1579 129.438 57.8645C126.574 50.6829 126.04 41.8499 127.924 32.9997C128.698 29.3702 129.859 25.8698 131.373 22.5929C131.476 22.3779 131.657 22.2144 131.88 22.137C132.104 22.0596 132.353 22.0854 132.56 22.1972C137.591 24.9495 144.214 26.4632 151.197 26.4632C153.528 26.4632 155.85 26.2912 158.095 25.9557C158.543 25.8869 158.955 26.1708 159.059 26.6008C160.306 31.7182 163.497 35.9928 167.866 38.4096C169.465 37.4291 171.289 36.9131 173.181 36.9131C178.806 36.9131 183.381 41.4887 183.381 47.1136C183.381 52.7384 178.806 57.314 173.181 57.314C171.418 57.314 169.706 56.8667 168.175 55.9981C162.748 65.7685 154.672 71.5396 146.751 71.5396V71.5482ZM132.56 24.141C131.278 27.0652 130.289 30.1529 129.601 33.361C127.786 41.8929 128.294 50.3646 131.029 57.2366C133.721 63.9795 138.245 68.3487 143.767 69.527C152.126 71.3074 161.286 65.3729 167.092 54.3983C167.204 54.1833 167.41 54.0199 167.651 53.9683C167.891 53.9081 168.141 53.9597 168.347 54.0973C169.775 55.0864 171.444 55.6111 173.181 55.6111C177.86 55.6111 181.661 51.8095 181.661 47.1307C181.661 42.4519 177.86 38.6504 173.181 38.6504C171.461 38.6504 169.809 39.1579 168.399 40.1298C168.141 40.3104 167.797 40.3276 167.522 40.1814C162.705 37.7044 159.119 33.2147 157.588 27.7791C155.498 28.0543 153.356 28.2005 151.206 28.2005C144.308 28.2005 137.737 26.7728 132.568 24.1582L132.56 24.141Z" fill="black"/>
<path d="M145.814 8.26405C145.495 8.26405 145.194 8.09205 145.048 7.79102C143.337 4.37654 140.309 2.54457 136.043 2.34675C132.749 2.19194 129.928 3.11224 129.902 3.12084C129.455 3.27565 128.965 3.02622 128.819 2.57038C128.672 2.12314 128.913 1.63289 129.36 1.48668C129.481 1.44367 141.806 -2.51261 146.588 7.01699C146.803 7.43843 146.631 7.95444 146.201 8.16946C146.08 8.22966 145.943 8.26405 145.814 8.26405Z" fill="black"/>
<path d="M129.498 40.4995C129.73 41.9273 130.659 42.9593 131.562 42.8045C132.465 42.6583 133.016 41.3768 132.775 39.9577C132.543 38.53 131.614 37.4979 130.711 37.6527C129.808 37.8075 129.257 39.0804 129.498 40.4995Z" fill="black"/>
<path d="M127.176 35.8639C126.84 35.8639 126.531 35.6746 126.384 35.3478C126.195 34.9092 126.384 34.4018 126.832 34.2125C129.851 32.888 133.059 33.404 133.196 33.4299C133.661 33.5073 133.979 33.9545 133.902 34.419C133.824 34.8834 133.377 35.2016 132.912 35.1242C132.887 35.1242 130.066 34.6769 127.52 35.7864C127.408 35.838 127.288 35.8553 127.176 35.8553V35.8639Z" fill="black"/>
<path d="M143.354 40.8952C143.586 42.3229 144.515 43.355 145.418 43.2002C146.321 43.0539 146.872 41.7724 146.631 40.3533C146.399 38.9256 145.47 37.8935 144.567 38.0483C143.664 38.1945 143.113 39.476 143.354 40.8952Z" fill="black"/>
<path d="M150.725 37.7903C150.518 37.7903 150.303 37.7129 150.14 37.5581C150.106 37.5237 146.407 34.135 142.425 35.2359C141.969 35.3649 141.496 35.0897 141.367 34.6339C141.238 34.178 141.513 33.7049 141.969 33.5759C146.889 32.217 151.138 36.139 151.318 36.3024C151.662 36.6292 151.68 37.1711 151.361 37.5151C151.189 37.6957 150.966 37.7903 150.734 37.7903H150.725Z" fill="black"/>
<path d="M137.626 49.4873C137.11 49.4873 134.487 49.4099 133.463 47.9564C133.154 47.5178 132.87 46.7781 133.248 45.7202C133.988 43.6991 135.338 37.1195 135.355 37.0507C135.45 36.5863 135.906 36.2852 136.37 36.3798C136.835 36.4744 137.136 36.9303 137.041 37.3947C136.981 37.6699 135.648 44.1635 134.865 46.3051C134.71 46.7351 134.822 46.8985 134.865 46.9587C135.244 47.5005 136.732 47.7586 137.617 47.7586C138.091 47.7586 138.478 48.1456 138.478 48.6187C138.478 49.0917 138.091 49.4787 137.617 49.4787L137.626 49.4873Z" fill="black"/>
<path d="M138.52 56.7893C137.437 56.7893 136.723 56.5915 136.697 56.5829C136.241 56.4539 135.983 55.9722 136.112 55.5164C136.241 55.0606 136.723 54.7939 137.179 54.9316C137.437 55.0004 143.234 56.5227 145.926 48.5842C146.08 48.137 146.562 47.8962 147.018 48.0424C147.465 48.1972 147.706 48.6874 147.56 49.1347C145.315 55.7572 140.989 56.7807 138.529 56.7807L138.52 56.7893Z" fill="black"/>
<path d="M169.173 45.9095C169.001 45.9095 168.821 45.8579 168.666 45.7461C168.279 45.4709 168.193 44.929 168.468 44.5506C168.58 44.3958 171.272 40.7405 175.52 41.4113C175.993 41.4887 176.312 41.9273 176.234 42.3918C176.157 42.8648 175.718 43.1831 175.254 43.1057C172.046 42.6068 169.947 45.4279 169.861 45.5483C169.689 45.7805 169.431 45.9009 169.165 45.9009L169.173 45.9095Z" fill="black"/>
<path d="M8.2276 191.528C7.75456 191.528 7.37613 191.15 7.36753 190.677L6.60205 127.659C6.60205 127.186 6.98047 126.791 7.45351 126.791L70.471 126.025C70.9527 126.008 71.3397 126.404 71.3397 126.877L72.1052 189.894C72.1052 190.367 71.7268 190.763 71.2537 190.763L8.23621 191.528H8.2276ZM8.3308 128.502L9.07906 189.8L70.3764 189.051L69.6282 127.754L8.3308 128.502Z" fill="black"/>
<path d="M71.2449 190.763C71.0213 190.763 70.8064 190.677 70.6429 190.522L6.85996 128.27C6.61054 128.029 6.53315 127.659 6.66216 127.333C6.79117 127.006 7.10073 126.799 7.45336 126.791L70.4709 126.025C70.9525 126.008 71.3395 126.404 71.3395 126.877L72.105 189.894C72.105 190.238 71.9072 190.556 71.5804 190.694C71.4686 190.737 71.3568 190.763 71.2449 190.763ZM9.55199 128.485L70.3591 187.83L69.628 127.754L9.55199 128.485Z" fill="black"/>
<path d="M8.2276 191.528C8.12439 191.528 8.01259 191.511 7.90938 191.468C7.58255 191.339 7.37613 191.029 7.36753 190.677L6.60205 127.659C6.60205 127.186 6.98047 126.791 7.45351 126.791L70.471 126.025C70.8323 126.042 71.1333 126.223 71.2709 126.55C71.4085 126.868 71.3397 127.238 71.0989 127.487L8.84683 191.27C8.68341 191.442 8.45982 191.528 8.2276 191.528ZM8.3308 128.502L9.06184 188.578L68.4068 127.771L8.3308 128.502Z" fill="black"/>
<path d="M87.0316 79.4305L43.8679 79.9578C38.3867 80.0248 33.9976 84.5225 34.0646 90.0036L34.592 133.167C34.659 138.649 39.1566 143.038 44.6378 142.971L87.8015 142.443C93.2827 142.376 97.6718 137.879 97.6048 132.398L97.0774 89.2337C97.0105 83.7526 92.5128 79.3635 87.0316 79.4305Z" fill="#1E7FB8"/>
<path d="M64.7345 99.6295C64.7948 104.652 60.7782 108.763 55.7553 108.824C50.7325 108.884 46.6214 104.867 46.5612 99.8445C46.501 94.8217 50.5175 90.7105 55.5403 90.6503C60.5631 90.5901 64.6743 94.6067 64.7345 99.6295Z" fill="white"/>
<path d="M34.5374 133.284L34.417 123.488L38.7689 119.024C41.9856 115.73 47.2664 115.661 50.5691 118.878C53.6911 121.923 58.6881 121.862 61.7414 118.74L78.8396 101.229C82.8992 97.0665 89.5562 96.9891 93.7189 101.049L97.2194 104.463L97.5634 132.519C97.6322 137.997 93.2372 142.496 87.7586 142.564L44.5916 143.089C39.1129 143.158 34.6147 138.763 34.5459 133.284H34.5374Z" fill="black"/>
<path d="M77.3428 69.8281H86.537L96.7116 80.321C97.5631 81.1983 97.4685 82.626 96.5052 83.3915C94.5528 84.931 91.792 84.9052 89.8569 83.3399L79.5532 74.9799L77.3428 69.8281Z" fill="white"/>
<path d="M93.2112 85.3954C91.8351 85.3954 90.459 84.9309 89.3151 84.0021L79.0114 75.6422C78.8996 75.5562 78.8136 75.4444 78.762 75.3154L76.5516 70.1635C76.4398 69.8969 76.4656 69.5959 76.6204 69.3551C76.7752 69.1142 77.0504 68.968 77.3342 68.968H86.5285C86.7607 68.968 86.9843 69.0626 87.1477 69.226L97.3224 79.7189C97.8987 80.3124 98.1996 81.1294 98.1394 81.9551C98.0878 82.7808 97.675 83.5462 97.0299 84.0623C95.9032 84.9481 94.5529 85.3954 93.2026 85.3954H93.2112ZM80.2585 74.4467L90.3988 82.669C92.0329 83.9935 94.3207 84.0107 95.972 82.712C96.2473 82.4969 96.4107 82.1874 96.4279 81.8433C96.4537 81.4993 96.3333 81.1725 96.0925 80.923L86.1758 70.6968H78.6502L80.2585 74.4553V74.4467Z" fill="black"/>
<path d="M78.2029 69.8281H85.4276V89.7302C85.4276 90.7107 84.6278 91.5106 83.6473 91.5106H83.3892C80.5252 91.5106 78.1943 89.1797 78.1943 86.3157V69.8281H78.2029Z" fill="white"/>
<path d="M83.6475 92.3706H83.3894C80.0523 92.3706 77.3345 89.6527 77.3345 86.3157V69.8281C77.3345 69.3551 77.7215 68.968 78.1945 68.968H85.4192C85.8922 68.968 86.2792 69.3551 86.2792 69.8281V89.7302C86.2792 91.1837 85.0924 92.3706 83.6389 92.3706H83.6475ZM79.0632 70.6882V86.3157C79.0632 88.7067 81.007 90.6505 83.398 90.6505H83.6561C84.1635 90.6505 84.5763 90.2376 84.5763 89.7302V70.6882H79.0718H79.0632Z" fill="black"/>
<path d="M71.159 69.8281H78.3836V89.7302C78.3836 90.7107 77.5837 91.5106 76.6032 91.5106H76.3453C73.4812 91.5106 71.1504 89.1797 71.1504 86.3157V69.8281H71.159Z" fill="white"/>
<path d="M76.6034 92.3706H76.3455C73.0084 92.3706 70.2905 89.6527 70.2905 86.3157V69.8281C70.2905 69.3551 70.6776 68.968 71.1506 68.968H78.3752C78.8483 68.968 79.2353 69.3551 79.2353 69.8281V89.7302C79.2353 91.1837 78.0483 92.3706 76.5948 92.3706H76.6034ZM72.0193 70.6882V86.3157C72.0193 88.7067 73.9631 90.6505 76.3541 90.6505H76.612C77.1195 90.6505 77.5324 90.2376 77.5324 89.7302V70.6882H72.0279H72.0193Z" fill="black"/>
<path d="M69.3016 87.0811H69.5596C70.5401 87.0811 71.3399 86.2812 71.3399 85.3008V69.8195H67.9255C65.5345 69.8195 63.3069 70.9892 61.9394 72.9501L57.4756 79.3921L64.1153 79.5641V81.8777C64.1153 84.7417 66.4375 87.0725 69.3102 87.0725L69.3016 87.0811Z" fill="white"/>
<path d="M69.5508 87.9412H69.2928C65.9557 87.9412 63.2379 85.2233 63.2379 81.8863V80.4069L57.441 80.2521C57.1227 80.2521 56.8389 80.0629 56.6927 79.7791C56.5465 79.4952 56.5723 79.1598 56.753 78.9018L61.2167 72.4599C62.739 70.2667 65.2418 68.9594 67.9081 68.9594H71.3225C71.7956 68.9594 72.1826 69.3464 72.1826 69.8194V85.3007C72.1826 86.7542 70.9958 87.9412 69.5422 87.9412H69.5508ZM59.0837 78.575L64.1323 78.7126C64.5968 78.7212 64.9666 79.1082 64.9666 79.5727V81.8863C64.9666 84.2773 66.9104 86.221 69.3014 86.221H69.5594C70.0669 86.221 70.4797 85.8082 70.4797 85.3007V70.6795H67.9253C65.8181 70.6795 63.8485 71.7116 62.653 73.4403L59.0923 78.575H59.0837Z" fill="black"/>
<path d="M110.422 167.115C112.781 166.249 113.991 163.635 113.125 161.276C112.259 158.917 109.645 157.707 107.286 158.573C104.927 159.439 103.717 162.053 104.583 164.412C105.449 166.771 108.063 167.981 110.422 167.115Z" fill="black"/>
<path d="M96.6431 151.277C96.6431 148.765 94.6047 146.727 92.0933 146.727C89.5819 146.727 87.5435 148.765 87.5435 151.277C87.5435 153.788 89.5819 155.827 92.0933 155.827C94.6047 155.827 96.6431 153.788 96.6431 151.277Z" fill="black"/>
<path d="M193.169 130.515C192.765 130.515 192.404 130.231 192.326 129.818C192.232 129.354 192.541 128.898 193.006 128.812L226.996 122.086C227.469 121.991 227.916 122.301 228.002 122.765C228.096 123.23 227.787 123.686 227.322 123.772L193.332 130.498C193.272 130.506 193.221 130.515 193.169 130.515Z" fill="black"/>
<path d="M206.956 127.221C206.595 127.221 206.259 126.988 206.139 126.627L200.419 109.082C200.273 108.634 200.522 108.144 200.97 107.998C201.426 107.852 201.907 108.101 202.053 108.548L207.773 126.094C207.919 126.541 207.67 127.031 207.222 127.178C207.136 127.203 207.042 127.221 206.956 127.221Z" fill="black"/>
<path d="M197.229 161.288C196.79 161.288 196.42 160.953 196.377 160.514C196.334 160.041 196.678 159.62 197.151 159.577L217.931 157.547C218.412 157.495 218.825 157.848 218.868 158.321C218.911 158.794 218.567 159.215 218.094 159.258L197.315 161.288C197.315 161.288 197.254 161.288 197.229 161.288Z" fill="black"/>
<path d="M146.321 78.6953L149.374 96.9977L158.525 87.081L168.442 97.7631L179.494 68.4003L174.54 63.4376L158.525 82.5054L148.987 73.7327L146.321 78.6953Z" fill="white"/>
<path d="M168.442 98.6232C168.201 98.6232 167.977 98.5286 167.814 98.3479L158.534 88.3539L150.01 97.5825C149.787 97.8233 149.443 97.9179 149.133 97.8233C148.815 97.7287 148.583 97.4621 148.531 97.1439L145.478 78.8415C145.443 78.6523 145.478 78.4631 145.572 78.2911L148.239 73.3371C148.368 73.1049 148.591 72.9414 148.849 72.8984C149.116 72.8554 149.383 72.9328 149.572 73.1135L158.439 81.2755L173.877 62.8958C174.032 62.7152 174.256 62.6034 174.497 62.5862C174.746 62.5862 174.97 62.6636 175.142 62.8356L180.096 67.7896C180.337 68.0304 180.414 68.3831 180.294 68.7013L169.233 98.0642C169.13 98.3394 168.889 98.5458 168.597 98.606C168.545 98.6146 168.485 98.6232 168.433 98.6232H168.442ZM158.525 86.2296C158.766 86.2296 158.99 86.3328 159.153 86.5048L168.124 96.1634L178.496 68.6153L174.591 64.7105L159.179 83.0559C159.024 83.2365 158.809 83.3483 158.577 83.3569C158.345 83.3655 158.112 83.2881 157.94 83.1333L149.219 75.1088L147.215 78.833L149.924 95.1141L157.889 86.4876C158.052 86.3156 158.276 86.2123 158.517 86.2123L158.525 86.2296Z" fill="black"/>
<path d="M144.799 164.591H81.4978C81.0247 164.591 80.6377 164.204 80.6377 163.731C80.6377 163.258 81.0247 162.871 81.4978 162.871H144.799C145.272 162.871 145.659 163.258 145.659 163.731C145.659 164.204 145.272 164.591 144.799 164.591Z" fill="black"/>
<path d="M144.799 152.395H81.4978C81.0247 152.395 80.6377 152.008 80.6377 151.535C80.6377 151.062 81.0247 150.675 81.4978 150.675H144.799C145.272 150.675 145.659 151.062 145.659 151.535C145.659 152.008 145.272 152.395 144.799 152.395Z" fill="black"/>
<path d="M193.169 129.655C193.169 129.655 189.247 129.844 186.099 130.79C183.029 131.71 145.969 138.29 135.149 142.306C126.264 144.955 121.138 150.262 117.517 152.877C113.613 155.698 107.102 156.128 105.803 158.734C105.21 159.912 106.147 160.918 107.601 161.658C105.984 161.022 108.788 162.251 108.185 161.933C109.871 162.656 112.021 163.069 113.398 163.069C116.133 163.069 124.94 161.245 126.875 160.729C126.901 160.729 126.935 160.746 126.961 160.738C129.257 160.368 133.274 159.026 132.139 164.264C131.003 169.502 122.205 172.228 122.205 172.228C122.205 172.228 110.155 166.947 108.306 166.38C104.031 165.09 103.455 170.396 103.455 170.396L112.159 177.053C109.536 176.864 103.361 176.752 102.999 179.917C102.75 182.119 123.392 187.856 123.392 187.856C123.392 187.856 124.492 187.71 126.032 187.443C125.086 190.298 123.211 196.026 122.936 197.377C122.566 199.192 125.955 199.751 125.955 199.751L142.451 179.307C143.689 177.75 146.054 175.032 147.895 172.959C152.754 168.951 154.879 165.012 154.879 165.012L197.212 160.42L193.152 129.646L193.169 129.655Z" fill="white"/>
<path d="M125.972 200.628C125.929 200.628 125.877 200.628 125.834 200.619C125.585 200.576 123.349 200.181 122.454 198.882C122.11 198.383 121.99 197.815 122.11 197.231C122.351 196.044 123.736 191.726 124.785 188.544C124.002 188.664 123.521 188.733 123.521 188.733C123.409 188.75 123.288 188.733 123.176 188.707C101.829 182.773 102.079 180.571 102.165 179.849C102.492 176.933 106.207 176.202 109.536 176.142L102.948 171.11C102.707 170.93 102.586 170.637 102.612 170.336C102.629 170.216 102.965 167.274 104.952 165.967C105.966 165.296 107.179 165.167 108.572 165.589C110.31 166.113 120.338 170.491 122.265 171.334C123.761 170.818 130.41 168.281 131.313 164.109C131.588 162.828 131.545 161.908 131.175 161.529C130.616 160.961 129.051 161.254 127.898 161.477C127.623 161.529 127.356 161.581 127.116 161.615C127.073 161.615 127.012 161.615 126.961 161.615C124.871 162.14 116.227 163.946 113.406 163.946C111.858 163.946 109.691 163.49 108.056 162.819C107.747 162.742 107.377 162.578 106.956 162.381C106.672 162.252 106.491 162.097 106.379 161.95C104.298 160.531 104.728 159 105.046 158.364C105.915 156.627 108.297 155.81 111.067 154.864C113.182 154.141 115.367 153.393 117.036 152.189C117.767 151.664 118.584 151.002 119.452 150.296C122.936 147.484 127.709 143.64 134.925 141.481C142.614 138.634 163.608 134.471 176.148 131.986C181.102 131.005 185.016 130.231 185.867 129.973C189.075 129.01 192.98 128.812 193.143 128.803C193.599 128.786 193.978 129.104 194.038 129.552L198.097 160.325C198.132 160.557 198.063 160.789 197.925 160.97C197.779 161.151 197.573 161.271 197.34 161.297L155.438 165.847C154.758 166.965 152.582 170.25 148.523 173.604C146.734 175.626 144.377 178.326 143.156 179.866L126.651 200.318C126.488 200.525 126.238 200.637 125.98 200.637L125.972 200.628ZM126.049 186.6C126.299 186.6 126.539 186.703 126.703 186.901C126.901 187.133 126.961 187.443 126.866 187.735C125.103 193.051 123.994 196.637 123.796 197.566C123.77 197.695 123.796 197.79 123.865 197.901C124.157 198.323 125.008 198.65 125.636 198.813L141.797 178.782C143.044 177.208 145.461 174.439 147.267 172.4C147.293 172.366 147.327 172.331 147.362 172.306C152.015 168.461 154.122 164.651 154.139 164.608C154.277 164.359 154.526 164.195 154.801 164.161L196.265 159.663L192.43 130.566C191.148 130.67 188.533 130.953 186.357 131.607C185.428 131.882 181.868 132.588 176.475 133.663C163.978 136.14 143.07 140.285 135.458 143.106C128.518 145.179 123.89 148.903 120.519 151.63C119.633 152.343 118.799 153.023 118.025 153.573C116.15 154.924 113.733 155.749 111.609 156.48C109.304 157.272 107.127 158.011 106.577 159.121C106.233 159.817 107.153 160.471 107.996 160.901C108.074 160.944 108.142 160.987 108.203 161.047C108.237 161.065 108.28 161.082 108.314 161.09C108.392 161.099 108.469 161.116 108.538 161.151C110.172 161.847 112.228 162.217 113.406 162.217C115.986 162.217 124.613 160.445 126.668 159.912C126.763 159.886 126.866 159.878 126.961 159.886C127.159 159.852 127.365 159.817 127.58 159.774C129.197 159.465 131.21 159.086 132.405 160.316C133.222 161.159 133.42 162.518 132.99 164.462C131.76 170.121 122.85 172.951 122.471 173.063C122.273 173.123 122.058 173.114 121.869 173.028C117.715 171.205 109.493 167.653 108.065 167.214C107.179 166.948 106.474 166.999 105.898 167.377C105.02 167.954 104.573 169.244 104.401 170.044L112.701 176.382C113.002 176.615 113.114 177.019 112.985 177.372C112.847 177.724 112.494 177.948 112.116 177.922C108.375 177.647 104.315 178.025 103.902 179.874C105.02 181.216 114.782 184.562 123.469 186.987C123.83 186.936 124.742 186.807 125.903 186.6C125.955 186.6 125.997 186.591 126.049 186.591V186.6Z" fill="black"/>
<path d="M122.738 184.708C121.19 184.708 117.414 182.403 111.488 177.853C111.11 177.561 111.041 177.027 111.333 176.649C111.626 176.271 112.159 176.202 112.538 176.494C116.537 179.573 121.465 182.902 122.575 183.014C124.303 182.36 135.235 178.92 135.708 178.773C136.164 178.636 136.645 178.885 136.783 179.332C136.929 179.788 136.671 180.27 136.224 180.407C132.164 181.68 124.2 184.209 123.125 184.639C123.013 184.682 122.893 184.699 122.738 184.699V184.708Z" fill="black"/>
<path d="M125.886 188.492C125.482 188.492 125.121 188.2 125.043 187.787C124.957 187.323 125.267 186.875 125.731 186.781C125.8 186.772 132.38 185.534 136.611 183.272C137.033 183.048 137.549 183.203 137.772 183.624C137.996 184.046 137.841 184.562 137.42 184.785C132.947 187.176 126.325 188.415 126.041 188.466C125.989 188.475 125.938 188.484 125.886 188.484V188.492Z" fill="black"/>
</svg>
