<svg width="201" height="201" viewBox="0 0 201 201" fill="none" xmlns="http://www.w3.org/2000/svg">
<path fill-rule="evenodd" clip-rule="evenodd" d="M93.7634 3.72648C95.7206 4.91414 97.9661 5.54215 100.255 5.54215C102.545 5.54215 104.79 4.91414 106.747 3.72648L110.08 1.47262C111.853 0.318954 113.992 -0.135824 116.081 0.196231C118.17 0.528286 120.062 1.62346 121.391 3.27007L123.852 6.43657C125.352 8.16783 127.296 9.4564 129.474 10.1631C131.653 10.8698 133.983 10.9679 136.214 10.4465L140.058 9.34027C142.101 8.78671 144.276 9.01226 146.162 9.97307C148.048 10.9339 149.509 12.5613 150.262 14.5393L151.645 18.3142C152.537 20.4218 153.987 22.2463 155.839 23.5912C157.69 24.9361 159.874 25.7506 162.154 25.9469L166.164 26.0851C168.277 26.1887 170.277 27.0738 171.774 28.5685C173.271 30.0633 174.16 32.0612 174.267 34.1742L174.405 38.184C174.596 40.4659 175.408 42.6521 176.753 44.5048C178.099 46.3576 179.927 47.8061 182.038 48.6929L185.813 50.0756C187.791 50.8286 189.418 52.29 190.379 54.1758C191.34 56.0617 191.566 58.2373 191.012 60.2801L189.906 64.1378C189.373 66.3657 189.465 68.6974 190.173 70.8761C190.881 73.0548 192.176 74.9959 193.916 76.4857L197.082 78.9607C198.729 80.2891 199.824 82.1823 200.154 84.2725C200.483 86.3627 200.024 88.5006 198.866 90.2715L196.626 93.59C195.439 95.5498 194.811 97.7974 194.811 100.089C194.811 102.38 195.439 104.628 196.626 106.588L198.866 109.906C200.024 111.677 200.483 113.815 200.154 115.905C199.824 117.995 198.729 119.889 197.082 121.217L193.916 123.692C192.176 125.182 190.881 127.123 190.173 129.302C189.465 131.48 189.373 133.812 189.906 136.04L191.012 139.898C191.562 141.94 191.335 144.115 190.375 146C189.415 147.885 187.789 149.347 185.813 150.102L182.038 151.485C179.927 152.372 178.099 153.82 176.753 155.673C175.408 157.526 174.596 159.712 174.405 161.994L174.267 166.004C174.16 168.117 173.271 170.114 171.774 171.609C170.277 173.104 168.277 173.989 166.164 174.092L162.154 174.231C159.874 174.427 157.69 175.241 155.839 176.586C153.987 177.931 152.537 179.756 151.645 181.863L150.262 185.638C149.509 187.616 148.048 189.244 146.162 190.205C144.276 191.165 142.101 191.391 140.058 190.837L136.214 189.731C133.983 189.21 131.653 189.308 129.474 190.014C127.296 190.721 125.352 192.01 123.852 193.741L121.391 196.908C120.064 198.557 118.171 199.654 116.08 199.984C113.989 200.313 111.85 199.853 110.08 198.691L106.747 196.451C104.79 195.264 102.545 194.636 100.255 194.636C97.9661 194.636 95.7206 195.264 93.7634 196.451L90.4448 198.691C88.6728 199.854 86.5316 200.315 84.4382 199.985C82.3448 199.655 80.4491 198.558 79.1201 196.908L76.6588 193.741C75.1614 192.011 73.2196 190.723 71.0434 190.016C68.8671 189.31 66.5391 189.211 64.3109 189.731L60.453 190.837C58.4102 191.391 56.2345 191.165 54.3486 190.205C52.4628 189.244 51.0014 187.616 50.2484 185.638L48.8656 181.863C47.9762 179.754 46.5271 177.928 44.6748 176.583C42.8226 175.237 40.6378 174.424 38.3567 174.231L34.3468 174.092C32.2336 173.989 30.2342 173.104 28.7369 171.609C27.2395 170.114 26.351 168.117 26.2438 166.004L26.1056 161.994C25.9152 159.712 25.1031 157.526 23.7575 155.673C22.4118 153.82 20.584 152.372 18.4728 151.485L14.7117 150.102C12.7337 149.349 11.1062 147.888 10.1454 146.002C9.18458 144.116 8.95903 141.94 9.51259 139.898L10.6188 136.04C11.139 133.81 11.039 131.481 10.3297 129.305C9.62038 127.128 8.32883 125.187 6.59502 123.692L3.44235 121.217C1.79573 119.889 0.700367 117.997 0.368307 115.907C0.0362483 113.818 0.491074 111.68 1.64476 109.906L3.89864 106.588C5.07873 104.625 5.70223 102.379 5.70223 100.089C5.70223 97.799 5.07873 95.5524 3.89864 93.59L1.64476 90.2715C0.487995 88.499 0.0313833 86.3599 0.363581 84.2696C0.695779 82.1794 1.79309 80.2872 3.44235 78.9607L6.59502 76.4857C8.32883 74.9908 9.62038 73.0497 10.3297 70.8731C11.039 68.6965 11.139 66.3672 10.6188 64.1378L9.51259 60.2801C8.95579 58.2373 9.17987 56.0603 10.1411 54.1737C11.1023 52.287 12.7318 50.826 14.7117 50.0756L18.4728 48.6929C20.584 47.8061 22.4118 46.3576 23.7575 44.5048C25.1031 42.6521 25.9152 40.4659 26.1056 38.184L26.2438 34.1742C26.351 32.0612 27.2395 30.0633 28.7369 28.5685C30.2342 27.0738 32.2336 26.1887 34.3468 26.0851L38.3567 25.9469C40.6378 25.7536 42.8226 24.9402 44.6748 23.5949C46.5271 22.2497 47.9762 20.4236 48.8656 18.3142L50.2484 14.5393C51.0014 12.5613 52.4628 10.9339 54.3486 9.97307C56.2345 9.01226 58.4102 8.78671 60.453 9.34027L64.3109 10.4465C66.5391 10.9667 68.8671 10.8682 71.0434 10.1614C73.2196 9.45471 75.1614 8.16667 76.6588 6.43657L79.1201 3.27007C80.4508 1.62244 82.3452 0.526731 84.437 0.194712C86.5287 -0.137306 88.6693 0.31805 90.4448 1.47262L93.7634 3.72648Z" fill="black"/>
</svg>
