<svg width="200" height="201" viewBox="0 0 200 201" fill="none" xmlns="http://www.w3.org/2000/svg">
<path fill-rule="evenodd" clip-rule="evenodd" d="M93.5056 4.18204C95.4628 5.36971 97.7082 5.99772 99.9976 5.99772C102.287 5.99772 104.532 5.36971 106.49 4.18204L109.822 1.92819C111.595 0.77452 113.734 0.319743 115.823 0.651798C117.913 0.983852 119.805 2.07903 121.133 3.72564L123.594 6.89214C125.094 8.6234 127.038 9.91197 129.217 10.6187C131.395 11.3254 133.726 11.4234 135.956 10.9021L139.8 9.79584C141.843 9.24228 144.018 9.46783 145.904 10.4286C147.79 11.3894 149.252 13.0169 150.005 14.9949L151.387 18.7697C152.279 20.8774 153.729 22.7019 155.581 24.0468C157.433 25.3917 159.616 26.2061 161.896 26.4024L165.906 26.5407C168.019 26.6443 170.019 27.5293 171.516 29.0241C173.013 30.5188 173.902 32.5168 174.009 34.6298L174.147 38.6396C174.338 40.9215 175.15 43.1077 176.496 44.9604C177.841 46.8131 179.669 48.2616 181.78 49.1484L185.555 50.5312C187.533 51.2842 189.161 52.7456 190.121 54.6314C191.082 56.5173 191.308 58.6929 190.754 60.7357L189.648 64.5934C189.115 66.8213 189.208 69.153 189.915 71.3317C190.623 73.5104 191.918 75.4515 193.658 76.9413L196.825 79.4162C198.472 80.7447 199.566 82.6379 199.896 84.7281C200.225 86.8182 199.767 88.9562 198.608 90.727L196.368 94.0456C195.181 96.0054 194.553 98.2529 194.553 100.544C194.553 102.836 195.181 105.084 196.368 107.043L198.608 110.362C199.767 112.133 200.225 114.271 199.896 116.361C199.566 118.451 198.472 120.344 196.825 121.673L193.658 124.148C191.918 125.637 190.623 127.579 189.915 129.757C189.208 131.936 189.115 134.267 189.648 136.495L190.754 140.353C191.305 142.396 191.078 144.57 190.117 146.455C189.157 148.34 187.531 149.802 185.555 150.558L181.78 151.94C179.669 152.827 177.841 154.276 176.496 156.128C175.15 157.981 174.338 160.167 174.147 162.449L174.009 166.459C173.902 168.572 173.013 170.57 171.516 172.065C170.019 173.559 168.019 174.444 165.906 174.548L161.896 174.686C159.616 174.883 157.433 175.697 155.581 177.042C153.729 178.387 152.279 180.211 151.387 182.319L150.005 186.094C149.252 188.072 147.79 189.699 145.904 190.66C144.018 191.621 141.843 191.846 139.8 191.293L135.956 190.187C133.726 189.665 131.395 189.763 129.217 190.47C127.038 191.177 125.094 192.465 123.594 194.197L121.133 197.363C119.806 199.013 117.913 200.109 115.822 200.439C113.731 200.769 111.592 200.308 109.822 199.147L106.49 196.907C104.532 195.719 102.287 195.091 99.9976 195.091C97.7082 195.091 95.4628 195.719 93.5056 196.907L90.187 199.147C88.415 200.309 86.2738 200.77 84.1804 200.441C82.087 200.111 80.1912 199.014 78.8623 197.363L76.401 194.197C74.9036 192.467 72.9618 191.179 70.7856 190.472C68.6093 189.765 66.2813 189.667 64.0531 190.187L60.1952 191.293C58.1523 191.846 55.9767 191.621 54.0908 190.66C52.205 189.699 50.7436 188.072 49.9906 186.094L48.6078 182.319C47.7184 180.21 46.2693 178.384 44.417 177.038C42.5648 175.693 40.38 174.88 38.0989 174.686L34.089 174.548C31.9758 174.444 29.9764 173.559 28.4791 172.065C26.9817 170.57 26.0932 168.572 25.986 166.459L25.8478 162.449C25.6574 160.167 24.8453 157.981 23.4996 156.128C22.154 154.276 20.3262 152.827 18.215 151.94L14.4539 150.558C12.4759 149.805 10.8484 148.343 9.88758 146.458C8.92677 144.572 8.70122 142.396 9.25478 140.353L10.361 136.495C10.8812 134.266 10.7812 131.937 10.0719 129.76C9.36256 127.583 8.07102 125.643 6.3372 124.148L3.18454 121.673C1.53791 120.344 0.442554 118.452 0.110495 116.363C-0.221564 114.273 0.233261 112.135 1.38695 110.362L3.64083 107.043C4.82092 105.081 5.44442 102.834 5.44442 100.544C5.44442 98.2545 4.82092 96.008 3.64083 94.0456L1.38695 90.727C0.230183 88.9546 -0.226429 86.8154 0.105769 84.7252C0.437967 82.6349 1.53528 80.7427 3.18454 79.4162L6.3372 76.9413C8.07102 75.4463 9.36256 73.5053 10.0719 71.3287C10.7812 69.152 10.8812 66.8228 10.361 64.5934L9.25478 60.7357C8.69798 58.6929 8.92206 56.5159 9.88328 54.6292C10.8445 52.7426 12.474 51.2816 14.4539 50.5312L18.215 49.1484C20.3262 48.2616 22.154 46.8131 23.4996 44.9604C24.8453 43.1077 25.6574 40.9215 25.8478 38.6396L25.986 34.6298C26.0932 32.5168 26.9817 30.5188 28.4791 29.0241C29.9764 27.5293 31.9758 26.6443 34.089 26.5407L38.0989 26.4024C40.38 26.2091 42.5648 25.3958 44.417 24.0505C46.2693 22.7052 47.7184 20.8791 48.6078 18.7697L49.9906 14.9949C50.7436 13.0169 52.205 11.3894 54.0908 10.4286C55.9767 9.46783 58.1523 9.24228 60.1952 9.79584L64.0531 10.9021C66.2813 11.4223 68.6093 11.3237 70.7856 10.617C72.9618 9.91028 74.9036 8.62224 76.401 6.89214L78.8623 3.72564C80.193 2.07801 82.0874 0.982297 84.1792 0.650278C86.2709 0.31826 88.4114 0.773616 90.187 1.92819L93.5056 4.18204Z" fill="black"/>
<path d="M64.1003 120.768C63.9563 121.452 63.8123 123 63.7763 123.9C63.5963 126.744 63.4883 130.632 63.4883 133.98C63.4883 137.904 63.7043 144.132 63.7043 146.22C63.7043 150.648 62.1203 151.872 59.7443 151.872C56.2523 151.872 51.2843 148.848 51.2843 145.032C51.2843 141.54 55.7843 137.868 60.7883 136.104C63.9923 134.952 67.6283 134.376 70.3643 134.376C75.9083 134.376 80.3003 137.256 80.3003 142.224C80.3003 146.508 78.0683 149.712 72.3443 151.116C70.6883 151.476 69.0683 151.584 67.5923 151.728L65.9723 147.048C67.5563 147.048 69.1403 147.048 70.3643 146.796C73.2803 146.292 75.6203 144.816 75.6203 142.224C75.6203 139.74 73.4603 138.336 70.3283 138.336C67.2683 138.336 64.1003 138.984 61.2923 140.1C58.0523 141.324 55.7483 143.268 55.7483 144.816C55.7483 145.968 57.4403 146.94 58.3763 146.94C59.0243 146.94 59.4923 146.652 59.4923 145.392C59.4923 143.52 59.3123 138.516 59.3123 134.16C59.3123 130.056 59.3483 125.592 59.3483 123.936C59.3483 123.216 59.2403 121.416 59.1323 120.768H64.1003ZM74.3603 124.692C77.0963 126.024 81.2723 128.364 83.2163 129.732L81.0203 133.404C79.2923 131.964 74.6123 129.264 72.3803 128.184L74.3603 124.692ZM52.2563 126.672C54.3803 126.924 55.9283 126.924 57.2243 126.924C60.9683 126.924 66.5843 126.24 70.2923 125.16L70.4003 129.624C66.3323 130.56 60.5363 131.208 57.3683 131.208C54.9923 131.208 53.5883 131.172 52.3643 131.028L52.2563 126.672ZM103.124 128.148V129.984H112.52V128.148H103.124ZM103.124 123.504V125.304H112.52V123.504H103.124ZM98.9483 120.48H116.876V133.008H98.9483V120.48ZM97.1483 134.592H118.064V138.12H97.1483V134.592ZM96.2123 140.172H118.784V143.844H96.2123V140.172ZM109.496 137.688H113.852V148.956C113.852 150.936 113.492 151.98 112.088 152.592C110.756 153.204 108.956 153.24 106.472 153.24C106.292 152.052 105.68 150.468 105.14 149.388C106.652 149.46 108.344 149.46 108.812 149.424C109.352 149.388 109.496 149.28 109.496 148.848V137.688ZM98.6243 145.608L101.612 143.592C103.16 144.996 105.068 147.012 106.004 148.344L102.764 150.648C101.972 149.28 100.1 147.156 98.6243 145.608ZM93.6923 127.392L97.4723 128.976C94.8443 133.404 90.6323 138.156 86.8523 141.108C86.5643 140.172 85.4843 137.724 84.8363 136.68C88.0043 134.448 91.5323 130.884 93.6923 127.392ZM92.7203 119.472L96.8243 121.128C94.4123 124.476 90.7403 128.004 87.3563 130.2C86.8883 129.228 85.8803 127.464 85.1963 126.564C88.0043 124.836 91.2083 121.884 92.7203 119.472ZM90.1283 135.42L94.1243 131.424L94.3043 131.532V153.24H90.1283V135.42ZM127.898 150L126.978 149.08L133.098 142.88L126.958 136.7L127.878 135.76L134.038 141.94L140.218 135.78L141.138 136.7L134.978 142.88L141.098 149.1L140.178 150.02L134.038 143.82L127.898 150ZM127.758 144.1C127.438 144.1 127.178 144.013 126.978 143.84C126.778 143.653 126.678 143.353 126.678 142.94C126.678 142.527 126.778 142.227 126.978 142.04C127.178 141.853 127.438 141.76 127.758 141.76C128.091 141.76 128.358 141.853 128.558 142.04C128.758 142.227 128.858 142.527 128.858 142.94C128.858 143.353 128.758 143.653 128.558 143.84C128.358 144.013 128.091 144.1 127.758 144.1ZM133.958 150.3C133.718 150.3 133.518 150.247 133.358 150.14C133.198 150.047 133.078 149.913 132.998 149.74C132.931 149.567 132.898 149.353 132.898 149.1C132.898 148.86 132.931 148.653 132.998 148.48C133.078 148.293 133.198 148.153 133.358 148.06C133.518 147.967 133.718 147.92 133.958 147.92C134.211 147.92 134.418 147.967 134.578 148.06C134.738 148.153 134.858 148.293 134.938 148.48C135.018 148.653 135.058 148.86 135.058 149.1C135.058 149.353 135.018 149.567 134.938 149.74C134.858 149.913 134.738 150.047 134.578 150.14C134.418 150.247 134.211 150.3 133.958 150.3ZM133.958 137.88C133.718 137.88 133.518 137.833 133.358 137.74C133.198 137.633 133.078 137.493 132.998 137.32C132.931 137.133 132.898 136.92 132.898 136.68C132.898 136.44 132.931 136.233 132.998 136.06C133.078 135.873 133.198 135.733 133.358 135.64C133.518 135.547 133.718 135.5 133.958 135.5C134.211 135.5 134.418 135.547 134.578 135.64C134.738 135.733 134.858 135.873 134.938 136.06C135.018 136.233 135.058 136.44 135.058 136.68C135.058 136.92 135.018 137.133 134.938 137.32C134.858 137.493 134.738 137.633 134.578 137.74C134.418 137.833 134.211 137.88 133.958 137.88ZM140.318 144.1C139.998 144.1 139.738 144.013 139.538 143.84C139.338 143.653 139.238 143.353 139.238 142.94C139.238 142.527 139.338 142.227 139.538 142.04C139.738 141.853 139.998 141.76 140.318 141.76C140.651 141.76 140.918 141.853 141.118 142.04C141.318 142.227 141.418 142.527 141.418 142.94C141.418 143.353 141.318 143.653 141.118 143.84C140.918 144.013 140.651 144.1 140.318 144.1ZM147.367 150V137.842H147.24L143.617 140.439V138.604L147.367 135.908H149.115V150H147.367Z" fill="#EBFF00"/>
<path d="M86.4 59.2H89.86V56.16H86.4V59.2ZM99.16 59.2V61.48H92.32V65.76H89.86V61.48H80.86V59.2H84.02V53.94H89.86V51.56H85.58C84.76 52.98 83.8 54.26 82.86 55.2C82.4 54.8 81.38 54 80.8 53.66C82.6 52.14 84.14 49.58 85 47L87.42 47.62C87.24 48.18 87.02 48.72 86.76 49.26H98.06V51.56H92.32V53.94H97.6V56.16H92.32V59.2H99.16ZM107.06 49.54H103.98V50.6H107.06V49.54ZM103.98 53.34H107.06V52.2H103.98V53.34ZM109.28 55.04H103.98V65.74H101.62V47.82H109.28V55.04ZM112.92 53.38H116.1V52.2H112.92V53.38ZM116.1 49.54H112.92V50.6H116.1V49.54ZM108.3 62.14H111.6V60.9H108.3V62.14ZM111.6 59.2V58H108.3V59.2H111.6ZM118.5 47.82V62.92C118.5 64.2 118.24 64.9 117.44 65.28C116.66 65.68 115.5 65.74 113.78 65.74C113.72 65.24 113.5 64.5 113.26 63.88H108.3V64.9H106.14V56.26H107.12V56.24L113.84 56.26V63.34C114.62 63.36 115.36 63.36 115.62 63.34C115.98 63.34 116.1 63.22 116.1 62.9V55.08H110.66V47.82H118.5ZM44.625 107.586C42.1719 107.586 40.0234 107.148 38.1797 106.273C36.3359 105.398 34.875 104.211 33.7969 102.711C32.7188 101.211 32.1094 99.5234 31.9688 97.6484L31.9453 97.2969H38.4844L38.5312 97.4609C38.7031 98.3047 39.0625 99.0703 39.6094 99.7578C40.1719 100.445 40.8828 100.992 41.7422 101.398C42.6016 101.789 43.5703 101.984 44.6484 101.984C45.8828 101.984 46.9688 101.727 47.9062 101.211C48.8594 100.68 49.6016 99.9531 50.1328 99.0312C50.6797 98.1094 50.9531 97.0469 50.9531 95.8438V95.7969C50.9531 94.6094 50.6797 93.5625 50.1328 92.6562C49.6016 91.7344 48.8594 91.0156 47.9062 90.5C46.9688 89.9844 45.8906 89.7266 44.6719 89.7266C43.8125 89.7266 43.0156 89.8516 42.2812 90.1016C41.5469 90.3359 40.8906 90.6875 40.3125 91.1562C39.9844 91.4219 39.6797 91.7109 39.3984 92.0234C39.1172 92.3359 38.8828 92.6719 38.6953 93.0312H32.5312L34.0781 73.1797H55.6641V78.8047H39.7031L38.8828 88.3203H39.0234C39.4922 87.5547 40.1016 86.9062 40.8516 86.375C41.6172 85.8281 42.4844 85.4062 43.4531 85.1094C44.4375 84.8125 45.5 84.6641 46.6406 84.6641C48.7969 84.6641 50.7031 85.1406 52.3594 86.0938C54.0156 87.0312 55.3203 88.3281 56.2734 89.9844C57.2266 91.6406 57.7031 93.5312 57.7031 95.6562V95.7031C57.7031 98.0625 57.1484 100.133 56.0391 101.914C54.9453 103.695 53.4141 105.086 51.4453 106.086C49.4766 107.086 47.2031 107.586 44.625 107.586ZM75 107.586C72.1406 107.586 69.6797 106.875 67.6172 105.453C65.5547 104.031 63.9688 102.016 62.8594 99.4062C61.7656 96.7812 61.2188 93.6797 61.2188 90.1016V90.0547C61.2188 86.4609 61.7656 83.3594 62.8594 80.75C63.9688 78.1406 65.5547 76.1328 67.6172 74.7266C69.6797 73.3047 72.1406 72.5938 75 72.5938C77.8594 72.5938 80.3125 73.3047 82.3594 74.7266C84.4219 76.1328 86.0078 78.1406 87.1172 80.75C88.2266 83.3594 88.7812 86.4609 88.7812 90.0547V90.1016C88.7812 93.6797 88.2266 96.7812 87.1172 99.4062C86.0078 102.016 84.4219 104.031 82.3594 105.453C80.3125 106.875 77.8594 107.586 75 107.586ZM75 101.914C76.4062 101.914 77.6016 101.445 78.5859 100.508C79.5703 99.5703 80.3203 98.2188 80.8359 96.4531C81.3672 94.6875 81.6328 92.5703 81.6328 90.1016V90.0547C81.6328 87.5703 81.3672 85.4531 80.8359 83.7031C80.3203 81.9375 79.5703 80.5938 78.5859 79.6719C77.6016 78.7344 76.4062 78.2656 75 78.2656C73.5938 78.2656 72.3906 78.7344 71.3906 79.6719C70.4062 80.5938 69.6562 81.9375 69.1406 83.7031C68.625 85.4531 68.3672 87.5703 68.3672 90.0547V90.1016C68.3672 92.5703 68.625 94.6875 69.1406 96.4531C69.6562 98.2188 70.4062 99.5703 71.3906 100.508C72.3906 101.445 73.5938 101.914 75 101.914ZM109.55 93.76H99.15C99.11 94.82 99.07 95.92 98.97 97H107.95C107.95 97 107.93 97.76 107.89 98.06C107.59 104.2 107.25 106.62 106.47 107.5C105.87 108.2 105.23 108.4 104.33 108.5C103.55 108.6 102.17 108.58 100.85 108.52C100.79 107.84 100.45 106.84 100.01 106.18C101.39 106.3 102.75 106.3 103.35 106.3C103.77 106.3 104.03 106.26 104.29 106.04C104.81 105.54 105.13 103.58 105.35 99.3H98.69C98.07 103 96.63 106.46 92.91 108.7C92.55 108.06 91.81 107.24 91.19 106.78C96.33 103.9 96.49 98.58 96.63 93.76H91.97V91.42H109.55V93.76ZM121.87 98.72H126.87V93.68H121.87V98.72ZM114.79 93.68V98.72H119.51V93.68H114.79ZM129.27 91.32V105.94C129.27 107.24 128.99 107.9 128.15 108.28C127.35 108.68 126.15 108.72 124.37 108.72C124.25 108.06 123.85 106.96 123.51 106.34C124.65 106.42 125.95 106.4 126.35 106.4C126.73 106.38 126.87 106.26 126.87 105.92V101.08H114.79V108.72H112.39V91.32H129.27ZM143.11 97.22L140.77 98.46C140.27 97.08 138.99 94.98 137.79 93.5L139.95 92.42C141.25 93.88 142.51 95.84 143.11 97.22ZM139.45 100.76L139.99 103.1C137.35 104.28 134.39 105.54 132.13 106.48L131.33 103.94C132.09 103.68 132.99 103.36 133.99 102.96L133.59 91.28L136.07 91.18L136.43 102C137.43 101.58 138.45 101.16 139.45 100.76ZM150.31 106.74L148.27 108.72C147.51 107.42 146.01 105.58 144.53 103.9C143.07 105.98 141.09 107.58 138.45 108.76C138.11 108.24 137.13 107.16 136.55 106.66C142.89 104.26 144.95 99.42 145.69 91.2L148.31 91.44C147.89 95.54 147.17 98.88 145.87 101.6C147.53 103.32 149.39 105.34 150.31 106.74ZM161.39 105.36H169.85V107.76H151.67V105.36H158.83V90.3H161.39V96.02H168.45V98.44H161.39V105.36Z" fill="#EBFF00"/>
</svg>
