<svg width="186" height="200" viewBox="0 0 186 200" fill="none" xmlns="http://www.w3.org/2000/svg">
<g clip-path="url(#clip0_320_4960)">
<path d="M162.749 74.8445V116.68C162.749 136.736 147.943 152.992 129.68 152.992H59.9484C41.6855 152.992 26.8796 136.736 26.8796 116.68V74.8445H0.947754V122.222C0.947754 134.694 5.45987 146.661 13.4976 155.488C21.4238 164.195 31.5289 175.87 42.4232 180.45V199.142H147.6V181.608C157.293 178.323 166.198 165.747 172.503 157.392C180.54 148.574 185.052 136.607 185.052 124.126V74.8531H162.749V74.8445Z" fill="#1E7FB8"/>
<path d="M147.6 200H42.4146C41.9428 200 41.5567 199.614 41.5567 199.142V181.017C31.4173 176.539 22.0414 166.193 14.4755 157.847L12.8542 156.063C4.61915 147.021 0.0812988 135.003 0.0812988 122.222V74.8445C0.0812988 74.3727 0.467316 73.9867 0.939116 73.9867H26.8795C27.3513 73.9867 27.7373 74.3727 27.7373 74.8445V116.68C27.7373 136.23 42.183 152.134 59.9483 152.134H129.68C147.437 152.134 161.891 136.23 161.891 116.68V74.8445C161.891 74.3727 162.277 73.9867 162.749 73.9867H185.052C185.524 73.9867 185.91 74.3727 185.91 74.8445V124.118C185.91 136.899 181.372 148.917 173.137 157.958L171.842 159.683C165.769 167.772 157.499 178.795 148.458 182.2V199.134C148.458 199.605 148.072 199.991 147.6 199.991V200ZM43.281 198.284H146.742V181.608C146.742 181.24 146.974 180.914 147.326 180.793C156.092 177.825 164.405 166.751 170.469 158.662L171.816 156.869C179.811 148.085 184.186 136.479 184.186 124.126V75.7109H163.598V116.689C163.598 137.182 148.381 153.858 129.672 153.858H59.9398C41.2308 153.858 26.0131 137.182 26.0131 116.689V75.7109H1.80551V122.23C1.80551 134.583 6.18038 146.189 14.1323 154.913L15.7536 156.697C23.3281 165.053 32.7641 175.458 42.7577 179.661C43.0751 179.798 43.281 180.107 43.281 180.45V198.284Z" fill="#1E7FB8"/>
<path d="M15.6162 0.857819H169.586C173.763 0.857819 177.152 4.2462 177.152 8.42376V111.079C177.152 115.256 173.763 118.645 169.586 118.645H15.6162C11.4387 118.645 8.05029 115.256 8.05029 111.079V8.42376C8.05029 4.2462 11.4387 0.857819 15.6162 0.857819Z" fill="white"/>
<path d="M169.586 119.494H15.6164C10.9756 119.494 7.19263 115.719 7.19263 111.07V8.42376C7.19263 3.77439 10.9756 0 15.6164 0H169.595C174.235 0 178.018 3.77439 178.018 8.42376V111.079C178.018 115.719 174.244 119.502 169.595 119.502L169.586 119.494ZM15.6164 1.71563C11.9192 1.71563 8.90826 4.72657 8.90826 8.42376V111.079C8.90826 114.776 11.9192 117.787 15.6164 117.787H169.595C173.292 117.787 176.303 114.776 176.303 111.079V8.42376C176.303 4.72657 173.292 1.71563 169.595 1.71563H15.6164Z" fill="black"/>
<path d="M17.718 12.6528C15.7365 12.6528 14.1238 11.0401 14.1238 9.05855C14.1238 7.07699 15.7365 5.46429 17.718 5.46429C19.6996 5.46429 21.3123 7.07699 21.3123 9.05855C21.3123 11.0401 19.6996 12.6528 17.718 12.6528ZM17.718 7.18851C16.6801 7.18851 15.8394 8.02917 15.8394 9.06713C15.8394 10.1051 16.6801 10.9457 17.718 10.9457C18.756 10.9457 19.5967 10.1051 19.5967 9.06713C19.5967 8.02917 18.756 7.18851 17.718 7.18851Z" fill="black"/>
<path d="M26.9224 12.6528C24.9408 12.6528 23.3281 11.0401 23.3281 9.05855C23.3281 7.07699 24.9408 5.46429 26.9224 5.46429C28.9039 5.46429 30.5166 7.07699 30.5166 9.05855C30.5166 11.0401 28.9039 12.6528 26.9224 12.6528ZM26.9224 7.18851C25.8844 7.18851 25.0438 8.02917 25.0438 9.06713C25.0438 10.1051 25.8844 10.9457 26.9224 10.9457C27.9603 10.9457 28.801 10.1051 28.801 9.06713C28.801 8.02917 27.9603 7.18851 26.9224 7.18851Z" fill="black"/>
<path d="M36.1267 12.6528C34.1452 12.6528 32.5325 11.0401 32.5325 9.05855C32.5325 7.07699 34.1452 5.46429 36.1267 5.46429C38.1083 5.46429 39.721 7.07699 39.721 9.05855C39.721 11.0401 38.1083 12.6528 36.1267 12.6528ZM36.1267 7.18851C35.0888 7.18851 34.2481 8.02917 34.2481 9.06713C34.2481 10.1051 35.0888 10.9457 36.1267 10.9457C37.1647 10.9457 38.0053 10.1051 38.0053 9.06713C38.0053 8.02917 37.1647 7.18851 36.1267 7.18851Z" fill="black"/>
<path d="M80.735 135.472C81.8572 128.589 77.1872 122.1 70.3044 120.978C63.4215 119.855 56.9321 124.525 55.81 131.408C54.6878 138.291 59.3577 144.78 66.2406 145.903C73.1234 147.025 79.6128 142.355 80.735 135.472Z" fill="black"/>
<path d="M93.6262 146.181C110.189 146.181 123.616 132.754 123.616 116.191C123.616 99.6287 110.189 86.202 93.6262 86.202C77.0636 86.202 63.637 99.6287 63.637 116.191C63.637 132.754 77.0636 146.181 93.6262 146.181Z" fill="black"/>
<path d="M97.0927 136.599C99.0156 128.514 94.0209 120.402 85.9367 118.479C77.8526 116.556 69.7402 121.551 67.8172 129.635C65.8943 137.719 70.889 145.832 78.9731 147.754C87.0573 149.677 95.1697 144.683 97.0927 136.599Z" fill="black"/>
<path d="M122.195 136.594C124.118 128.51 119.123 120.397 111.039 118.474C102.955 116.551 94.8427 121.546 92.9198 129.63C90.9968 137.714 95.9915 145.827 104.076 147.75C112.16 149.673 120.272 144.678 122.195 136.594Z" fill="black"/>
<path d="M79.6105 120.593C80.705 113.705 76.009 107.235 69.1217 106.14C62.2344 105.046 55.7639 109.742 54.6693 116.629C53.5748 123.516 58.2708 129.987 65.1581 131.081C72.0454 132.176 78.5159 127.48 79.6105 120.593Z" fill="black"/>
<path d="M119.75 145.902C126.633 144.779 131.302 138.29 130.18 131.407C129.058 124.524 122.569 119.854 115.686 120.977C108.803 122.099 104.133 128.588 105.255 135.471C106.377 142.354 112.867 147.024 119.75 145.902Z" fill="black"/>
<path d="M120.85 131.076C127.737 129.982 132.433 123.511 131.338 116.624C130.244 109.737 123.773 105.041 116.886 106.135C109.999 107.23 105.303 113.7 106.397 120.588C107.492 127.475 113.962 132.171 120.85 131.076Z" fill="black"/>
<path d="M107.471 152.992C107.531 152.486 107.566 151.971 107.566 151.448V112.417H80.1841V151.448C80.1841 151.971 80.2184 152.486 80.2785 152.992H69.8474C73.9907 161.613 82.8004 167.566 92.9999 167.566C103.199 167.566 112.018 161.613 116.152 152.992H107.471Z" fill="white"/>
<path d="M92.9999 168.424C82.8606 168.424 73.4675 162.513 69.0669 153.36C68.9382 153.095 68.9553 152.786 69.1097 152.528C69.2642 152.28 69.5387 152.125 69.8389 152.125H79.3349C79.3263 151.894 79.3178 151.662 79.3178 151.439V112.408C79.3178 111.937 79.7038 111.55 80.1756 111.55H107.557C108.029 111.55 108.415 111.937 108.415 112.408V151.439C108.415 151.662 108.415 151.885 108.398 152.125H116.152C116.444 152.125 116.719 152.28 116.882 152.528C117.036 152.777 117.053 153.095 116.924 153.36C112.532 162.513 103.139 168.424 92.9914 168.424H92.9999ZM71.2543 153.849C75.5863 161.707 83.9757 166.708 92.9999 166.708C102.024 166.708 110.414 161.707 114.754 153.849H107.48C107.24 153.849 107 153.747 106.837 153.566C106.674 153.386 106.596 153.137 106.622 152.897C106.682 152.374 106.708 151.902 106.708 151.448V113.275H81.042V151.448C81.042 151.894 81.0677 152.365 81.1278 152.897C81.1535 153.137 81.0763 153.386 80.9133 153.566C80.7503 153.747 80.5187 153.849 80.2699 153.849H71.2457H71.2543Z" fill="black"/>
<path d="M121.119 116.466C120.073 116.466 119.086 116.749 118.237 117.229C116.856 105.211 106.648 95.8696 94.2523 95.8696C81.8568 95.8696 72.0863 104.817 70.3621 116.466C70.2935 116.466 70.2248 116.457 70.1476 116.457C66.9222 116.457 64.3059 119.074 64.3059 122.299C64.3059 125.524 66.9222 128.141 70.1476 128.141C70.5937 128.141 71.0312 128.089 71.4515 127.986C74.7455 137.405 83.7011 144.156 94.2437 144.156C104.786 144.156 114.471 136.839 117.413 126.82C118.417 127.643 119.712 128.141 121.111 128.141C124.336 128.141 126.952 125.524 126.952 122.299C126.952 119.074 124.336 116.457 121.111 116.457L121.119 116.466Z" fill="white"/>
<path d="M94.2439 145.031C83.8729 145.031 74.5827 138.606 70.8941 128.973C66.8709 129.436 63.4482 126.253 63.4482 122.316C63.4482 118.799 66.1761 115.9 69.6331 115.634C71.7348 103.83 82.183 95.0204 94.2524 95.0204C106.322 95.0204 116.976 103.95 118.923 115.985C119.627 115.737 120.373 115.617 121.119 115.617C124.816 115.617 127.819 118.619 127.819 122.316C127.819 126.013 124.816 129.016 121.119 129.016C119.987 129.016 118.872 128.724 117.885 128.184C114.437 138.16 104.881 145.031 94.2439 145.031ZM71.4517 127.146C71.812 127.146 72.1379 127.369 72.258 127.72C75.5263 137.045 84.3532 143.315 94.2439 143.315C104.134 143.315 113.699 136.436 116.59 126.588C116.667 126.314 116.882 126.099 117.165 126.013C117.439 125.928 117.739 125.988 117.963 126.168C118.846 126.897 119.97 127.291 121.119 127.291C123.873 127.291 126.103 125.053 126.103 122.308C126.103 119.563 123.864 117.324 121.119 117.324C120.261 117.324 119.412 117.547 118.657 117.976C118.409 118.121 118.1 118.121 117.842 117.993C117.585 117.864 117.413 117.615 117.379 117.324C116.024 105.58 106.082 96.7274 94.2524 96.7274C82.4231 96.7274 72.8842 105.271 71.2115 116.594C71.1514 117.023 70.7997 117.332 70.3279 117.324H70.2164C67.4028 117.324 65.1725 119.563 65.1725 122.308C65.1725 125.421 68.029 127.909 71.2715 127.163C71.3402 127.146 71.4002 127.146 71.4602 127.146H71.4517Z" fill="black"/>
<path d="M93.6262 86.202C82.5347 86.202 72.8585 92.2239 67.6687 101.18C70.9456 103.804 75.106 105.374 79.6267 105.374C90.0577 105.374 98.5415 97.0277 98.7731 86.6481C97.1004 86.3564 95.3848 86.202 93.6262 86.202Z" fill="black"/>
<path d="M96.5341 122.462C94.0721 122.462 89.6544 121.381 89.0968 121.235C88.6336 121.124 88.3591 120.652 88.4706 120.197C88.5821 119.734 89.0539 119.451 89.5086 119.571C91.7903 120.137 95.8736 120.952 97.1174 120.703C97.5892 120.609 98.0353 120.909 98.1296 121.373C98.224 121.836 97.9237 122.29 97.4605 122.385C97.2032 122.436 96.8858 122.462 96.5341 122.462Z" fill="black"/>
<path d="M85.2968 119.185C80.0984 119.185 75.8694 114.956 75.8694 109.758C75.8694 104.559 80.0984 100.33 85.2968 100.33C90.4952 100.33 94.7242 104.559 94.7242 109.758C94.7242 114.956 90.4952 119.185 85.2968 119.185ZM85.2968 102.046C81.042 102.046 77.585 105.503 77.585 109.758C77.585 114.012 81.042 117.469 85.2968 117.469C89.5516 117.469 93.0086 114.012 93.0086 109.758C93.0086 105.503 89.5516 102.046 85.2968 102.046Z" fill="#1E7FB8"/>
<path d="M108.501 119.185C103.302 119.185 99.0732 114.956 99.0732 109.758C99.0732 104.559 103.302 100.33 108.501 100.33C113.699 100.33 117.928 104.559 117.928 109.758C117.928 114.956 113.699 119.185 108.501 119.185ZM108.501 102.046C104.246 102.046 100.789 105.503 100.789 109.758C100.789 114.012 104.246 117.469 108.501 117.469C112.755 117.469 116.212 114.012 116.212 109.758C116.212 105.503 112.755 102.046 108.501 102.046Z" fill="#1E7FB8"/>
<path d="M71.0484 117.083C70.8254 117.083 70.611 116.998 70.4394 116.835C70.1048 116.5 70.1048 115.96 70.4394 115.625L76.1439 109.921C76.4784 109.586 77.0188 109.586 77.3534 109.921C77.6879 110.255 77.6879 110.796 77.3534 111.13L71.6489 116.835C71.4773 117.006 71.2629 117.083 71.0399 117.083H71.0484Z" fill="#1E7FB8"/>
<path d="M99.5794 110.615H94.2523C93.7805 110.615 93.3945 110.229 93.3945 109.758C93.3945 109.286 93.7805 108.9 94.2523 108.9H99.5794C100.051 108.9 100.437 109.286 100.437 109.758C100.437 110.229 100.051 110.615 99.5794 110.615Z" fill="#1E7FB8"/>
<path d="M88.162 108.136C88.162 109.5 87.227 110.607 86.0689 110.607C84.9109 110.607 83.9758 109.5 83.9758 108.136C83.9758 106.772 84.9109 105.666 86.0689 105.666C87.227 105.666 88.162 106.772 88.162 108.136Z" fill="black"/>
<path d="M108.707 108.136C108.707 109.5 107.772 110.607 106.614 110.607C105.456 110.607 104.521 109.5 104.521 108.136C104.521 106.772 105.456 105.666 106.614 105.666C107.772 105.666 108.707 106.772 108.707 108.136Z" fill="black"/>
<path d="M80.092 24.3135L40.9356 24.7919C35.9615 24.8527 31.9785 28.9343 32.0392 33.9084L32.5176 73.0648C32.5784 78.0389 36.66 82.0219 41.6341 81.9612L80.7905 81.4828C85.7646 81.422 89.7476 77.3404 89.6869 72.3663L89.2085 33.2099C89.1477 28.2358 85.0661 24.2528 80.092 24.3135Z" fill="#1E7FB8"/>
<path d="M59.9055 42.5391C59.957 47.0941 56.3113 50.8257 51.7648 50.8857C47.2098 50.9372 43.4783 47.2914 43.4183 42.745C43.3668 38.19 47.0125 34.4585 51.5589 34.3985C56.114 34.347 59.8455 37.9927 59.9055 42.5391Z" fill="white"/>
<path d="M32.5153 73.0603L32.4038 64.1733L36.3498 60.1244C39.2663 57.1306 44.0615 57.0706 47.0553 59.9957C49.8861 62.7579 54.424 62.7064 57.1861 59.8756L72.6955 43.9888C76.3755 40.2145 82.4231 40.1458 86.1975 43.8259L89.3714 46.9226L89.6802 72.374C89.7403 77.3493 85.76 81.424 80.7847 81.484L41.6253 81.9558C36.65 82.0159 32.5754 78.0356 32.5153 73.0603Z" fill="black"/>
<path d="M19.0476 39.3738C18.713 39.0392 18.2927 38.8591 17.8638 38.7991C19.3735 36.9204 19.0905 34.1754 17.2204 32.6485C16.3455 31.9365 15.0673 32.0652 14.3553 32.9402L14.3382 32.9573L14.4325 32.5027C14.9472 30.1351 13.4375 27.7933 11.0613 27.2786C9.96329 27.0384 8.87387 27.7418 8.64226 28.8398L7.92169 32.1596C7.14108 30.9329 5.77715 30.1094 4.21592 30.1094C3.09218 30.1094 2.17432 31.0187 2.17432 32.1424V75.0418H7.41558L12.3823 60.4246C13.2316 57.9284 12.8884 55.2348 11.5503 53.0646L19.039 45.5758C20.7546 43.8602 20.7546 41.0808 19.039 39.3652L19.0476 39.3738Z" fill="white"/>
<path d="M7.42427 75.9082H2.18301C1.71121 75.9082 1.3252 75.5222 1.3252 75.0504V32.151C1.3252 30.5554 2.6205 29.2601 4.22462 29.2601C5.4084 29.2601 6.53214 29.6547 7.44143 30.3667L7.81029 28.6682C7.97328 27.9134 8.41934 27.2614 9.07128 26.8497C9.72322 26.4293 10.4953 26.2921 11.2501 26.4551C13.6434 26.9698 15.3076 29.0543 15.3934 31.3961C15.4792 31.3789 15.5564 31.3704 15.6422 31.3618C16.4142 31.2846 17.1691 31.5076 17.761 31.9966C19.6739 33.5664 20.1972 36.2342 19.1506 38.3787C19.3308 38.4902 19.5023 38.6275 19.6567 38.7819C21.7069 40.8321 21.7069 44.1604 19.6567 46.2106L12.6312 53.2361C13.8407 55.5436 14.0552 58.2372 13.206 60.7334L8.2392 75.3506C8.1191 75.7023 7.79313 75.9339 7.42427 75.9339V75.9082ZM3.04083 74.1926H6.81522L11.5847 60.1587C12.3396 57.9369 12.0651 55.5179 10.8298 53.5192C10.6239 53.1846 10.6754 52.7472 10.9499 52.4641L18.4386 44.9753C19.8197 43.5943 19.8197 41.3553 18.4386 39.9743C18.207 39.7427 17.9411 39.6655 17.7524 39.6483C17.4436 39.6054 17.1777 39.4081 17.0661 39.1164C16.946 38.8248 16.9975 38.4988 17.1948 38.2586C18.4043 36.7489 18.1727 34.5271 16.6801 33.309C16.4399 33.1117 16.1311 33.0174 15.8137 33.0517C15.4963 33.086 15.2218 33.2318 15.016 33.4806C14.7672 33.7894 14.3297 33.8923 13.9694 33.7208C13.6091 33.5492 13.4118 33.1632 13.4976 32.7772L13.592 32.3225C14.0037 30.4182 12.7856 28.531 10.8813 28.1192C10.5725 28.0506 10.2551 28.1107 9.98915 28.2822C9.72322 28.4538 9.54308 28.7197 9.47445 29.0285L8.75389 32.3483C8.67669 32.6914 8.41076 32.9487 8.06764 33.0088C7.72451 33.0688 7.38138 32.9144 7.19266 32.6228C6.54072 31.5848 5.42556 30.9672 4.21604 30.9672C3.5641 30.9672 3.03225 31.499 3.03225 32.1424V74.184L3.04083 74.1926Z" fill="black"/>
<path d="M5.52829 44.1518C5.46825 44.1518 5.4082 44.1518 5.34815 44.1347C4.88493 44.0317 4.59327 43.5771 4.68763 43.1139L7.35544 30.7356C7.45838 30.2724 7.91303 29.9807 8.37625 30.0751C8.83947 30.178 9.13113 30.6326 9.03677 31.0959L6.36896 43.4742C6.28317 43.8773 5.92289 44.1518 5.52829 44.1518Z" fill="black"/>
<path d="M2.13992 48.7326C1.9512 48.7326 1.7539 48.6725 1.5995 48.5353C1.23064 48.235 1.17917 47.6946 1.4794 47.3257L13.6861 32.3912C13.9864 32.0223 14.5268 31.9708 14.8957 32.2711C15.2645 32.5713 15.316 33.1117 15.0158 33.4806L2.80902 48.4152C2.63746 48.621 2.38869 48.7326 2.1485 48.7326H2.13992Z" fill="black"/>
<path d="M8.77085 55.861L19.0389 45.593C20.7545 43.8773 20.7545 41.098 19.0389 39.3824C18.2411 38.5846 16.9544 38.5846 16.1567 39.3824L5.97437 49.5647L8.76227 55.8696L8.77085 55.861Z" fill="white"/>
<path d="M8.77088 56.7189C8.54785 56.7189 8.33339 56.6331 8.16183 56.4701C7.82728 56.1355 7.82728 55.5951 8.16183 55.2606L18.4385 44.9925C19.8196 43.6114 19.8196 41.3725 18.4385 39.9914C17.9924 39.5454 17.2118 39.5454 16.7743 39.9914L6.59202 50.1737C6.25748 50.5083 5.71705 50.5083 5.3825 50.1737C5.04795 49.8392 5.04795 49.2987 5.3825 48.9642L15.5648 38.7819C16.6542 37.6839 18.5671 37.6839 19.6566 38.7819C21.7068 40.8321 21.7068 44.1604 19.6566 46.2106L9.37993 56.4787C9.20837 56.6502 8.99391 56.7274 8.77088 56.7274V56.7189Z" fill="black"/>
<path d="M166.215 39.3738C166.549 39.0392 166.97 38.8591 167.398 38.7991C165.889 36.9204 166.172 34.1754 168.042 32.6485C168.917 31.9365 170.195 32.0652 170.907 32.9402L170.924 32.9573L170.83 32.5027C170.315 30.1351 171.825 27.7933 174.201 27.2786C175.299 27.0384 176.388 27.7418 176.62 28.8398L177.341 32.1596C178.121 30.9329 179.485 30.1094 181.046 30.1094C182.17 30.1094 183.088 31.0187 183.088 32.1424V75.0418H177.847L172.88 60.4246C172.031 57.9284 172.374 55.2348 173.712 53.0646L166.223 45.5758C164.508 43.8602 164.508 41.0808 166.223 39.3652L166.215 39.3738Z" fill="white"/>
<path d="M183.079 75.9082H177.838C177.469 75.9082 177.143 75.6766 177.023 75.3249L172.056 60.7077C171.207 58.22 171.422 55.5265 172.631 53.2104L165.606 46.1849C163.555 44.1347 163.555 40.8063 165.606 38.7562C165.76 38.6018 165.931 38.4645 166.112 38.353C165.065 36.2084 165.58 33.5406 167.501 31.9708C168.102 31.4819 168.848 31.2588 169.62 31.336C169.706 31.3446 169.792 31.3532 169.869 31.3704C169.955 29.0285 171.619 26.944 174.012 26.4293C175.573 26.0948 177.117 27.0899 177.452 28.6511L177.821 30.3496C178.73 29.6376 179.854 29.243 181.038 29.243C182.633 29.243 183.937 30.5383 183.937 32.1338V75.0332C183.937 75.505 183.551 75.8911 183.079 75.8911V75.9082ZM178.456 74.1926H182.221V32.151C182.221 31.499 181.69 30.9758 181.038 30.9758C179.828 30.9758 178.713 31.5934 178.061 32.6314C177.872 32.923 177.538 33.0774 177.186 33.0174C176.843 32.9573 176.568 32.6914 176.5 32.3569L175.779 29.0371C175.642 28.4023 175.007 27.9991 174.381 28.1364C172.477 28.5481 171.259 30.4353 171.67 32.3397L171.765 32.7943C171.85 33.1804 171.662 33.575 171.31 33.7465C170.958 33.9181 170.529 33.8323 170.281 33.5321C170.058 33.2576 169.775 33.1032 169.457 33.0774C169.148 33.0431 168.839 33.1375 168.591 33.3348C167.098 34.5529 166.867 36.7746 168.076 38.2844C168.273 38.5246 168.316 38.8505 168.205 39.1422C168.085 39.4338 167.827 39.6311 167.518 39.674C167.33 39.6998 167.064 39.777 166.832 40C165.451 41.3811 165.451 43.62 166.832 45.0011L174.321 52.4898C174.604 52.7729 174.655 53.2104 174.441 53.5449C173.206 55.5436 172.931 57.9627 173.686 60.1844L178.456 74.2183V74.1926Z" fill="black"/>
<path d="M179.734 44.1518C179.339 44.1518 178.979 43.8773 178.893 43.4742L176.217 31.0959C176.114 30.6326 176.414 30.178 176.877 30.0751C177.341 29.9807 177.795 30.2724 177.898 30.7356L180.574 43.1139C180.677 43.5771 180.377 44.0317 179.914 44.1347C179.854 44.1518 179.794 44.1518 179.734 44.1518Z" fill="black"/>
<path d="M183.122 48.7326C182.874 48.7326 182.625 48.621 182.453 48.4152L170.246 33.4806C169.946 33.1117 169.998 32.5713 170.367 32.2711C170.735 31.9708 171.276 32.0223 171.576 32.3912L183.783 47.3257C184.083 47.6946 184.032 48.235 183.663 48.5353C183.5 48.6639 183.311 48.7326 183.122 48.7326Z" fill="black"/>
<path d="M176.491 55.861L166.223 45.593C164.508 43.8773 164.508 41.098 166.223 39.3824C167.021 38.5846 168.308 38.5846 169.106 39.3824L179.288 49.5647L176.5 55.8696L176.491 55.861Z" fill="white"/>
<path d="M176.491 56.7189C176.268 56.7189 176.054 56.6331 175.882 56.4701L165.606 46.202C163.555 44.1518 163.555 40.8235 165.606 38.7733C166.738 37.641 168.574 37.641 169.697 38.7733L179.88 48.9556C180.214 49.2902 180.214 49.8306 179.88 50.1651C179.545 50.4997 179.005 50.4997 178.67 50.1651L168.488 39.9828C168.025 39.5196 167.278 39.5196 166.815 39.9828C165.434 41.3639 165.434 43.6028 166.815 44.9839L177.092 55.252C177.426 55.5865 177.426 56.127 177.092 56.4615C176.92 56.6331 176.706 56.7103 176.483 56.7103L176.491 56.7189Z" fill="black"/>
<path d="M149.599 79.4424L139.296 76.0969L128.985 72.7429L132.339 83.0538L135.685 93.3648L139.305 86.3135L144.812 91.8121L148.055 88.5696L142.547 83.071L149.599 79.4424Z" fill="white"/>
<path d="M135.685 94.2226C135.685 94.2226 135.642 94.2226 135.616 94.2226C135.273 94.1969 134.973 93.9653 134.87 93.6307L128.17 73.0174C128.067 72.7086 128.153 72.374 128.376 72.1424C128.608 71.9108 128.942 71.8336 129.251 71.9365L149.865 78.6361C150.191 78.739 150.431 79.0392 150.456 79.3824C150.482 79.7255 150.302 80.06 149.993 80.2145L143.989 83.3026L148.664 87.9777C148.998 88.3122 148.998 88.8527 148.664 89.1872L145.421 92.4298C145.095 92.7472 144.529 92.7472 144.212 92.4298L139.536 87.7547L136.457 93.7594C136.311 94.0425 136.011 94.2226 135.693 94.2226H135.685ZM130.324 74.0896L135.865 91.143L138.541 85.9275C138.67 85.6873 138.902 85.5158 139.168 85.4729C139.434 85.43 139.717 85.5158 139.905 85.7131L144.803 90.6112L146.837 88.5782L141.938 83.68C141.741 83.4827 141.655 83.2082 141.698 82.9423C141.741 82.6678 141.913 82.4362 142.153 82.3161L147.368 79.6397L130.315 74.0982L130.324 74.0896Z" fill="black"/>
<path d="M133.317 45.9533C126.395 45.9533 120.768 40.326 120.768 33.4034C120.768 26.4808 126.395 20.8535 133.317 20.8535C140.24 20.8535 145.867 26.4808 145.867 33.4034C145.867 40.326 140.231 45.9533 133.317 45.9533ZM133.317 22.5606C127.338 22.5606 122.483 27.4244 122.483 33.3948C122.483 39.3652 127.347 44.229 133.317 44.229C139.288 44.229 144.152 39.3652 144.152 33.3948C144.152 27.4244 139.288 22.5606 133.317 22.5606Z" fill="black"/>
<path d="M131.636 38.2586C131.576 38.2586 131.525 38.2586 131.465 38.2415C129.457 37.9069 127.278 34.2698 126.867 33.5406L128.359 32.6914C129.337 34.3985 130.864 36.32 131.688 36.5344C132.717 36.1913 136.054 31.7821 138.584 27.8018L140.034 28.7197C136.011 35.0418 133.189 38.2501 131.636 38.2501V38.2586Z" fill="black"/>
<path d="M144.349 54.5143H99.8454C99.3736 54.5143 98.9875 54.1282 98.9875 53.6564C98.9875 53.1846 99.3736 52.7986 99.8454 52.7986H144.349C144.821 52.7986 145.207 53.1846 145.207 53.6564C145.207 54.1282 144.821 54.5143 144.349 54.5143Z" fill="black"/>
<path d="M120.39 60.7935H99.8539C99.3821 60.7935 98.9961 60.4075 98.9961 59.9357C98.9961 59.4639 99.3821 59.0779 99.8539 59.0779H120.39C120.862 59.0779 121.248 59.4639 121.248 59.9357C121.248 60.4075 120.862 60.7935 120.39 60.7935Z" fill="black"/>
</g>
<defs>
<clipPath id="clip0_320_4960">
<rect width="186" height="200" fill="white"/>
</clipPath>
</defs>
</svg>
