<svg width="40" height="30" viewBox="0 0 40 30" fill="none" xmlns="http://www.w3.org/2000/svg">
<path d="M33.185 14.1377C33.0424 14.1376 32.9028 14.0968 32.7825 14.0202L19.9675 5.88771L7.1525 14.0202C7.06927 14.0729 6.97648 14.1087 6.87943 14.1255C6.78237 14.1424 6.68296 14.1399 6.58686 14.1183C6.49075 14.0967 6.39984 14.0564 6.31931 13.9997C6.23878 13.943 6.17019 13.8709 6.1175 13.7877C6.0648 13.7045 6.02903 13.6117 6.01219 13.5146C5.99536 13.4176 5.99781 13.3182 6.0194 13.2221C6.04099 13.126 6.08128 13.035 6.138 12.9545C6.19473 12.874 6.26678 12.8054 6.35001 12.7527L19.565 4.3652C19.6853 4.28869 19.8249 4.24805 19.9675 4.24805C20.1101 4.24805 20.2497 4.28869 20.37 4.3652L33.5875 12.7527C33.7255 12.8394 33.8315 12.9688 33.8894 13.1211C33.9474 13.2734 33.9541 13.4405 33.9086 13.597C33.8632 13.7535 33.7679 13.891 33.6373 13.9885C33.5068 14.0861 33.348 14.1385 33.185 14.1377Z" fill="#262626"/>
<path d="M33.185 14.1377C33.0424 14.1376 32.9028 14.0968 32.7825 14.0202L19.9675 5.88771L7.1525 14.0202C7.06927 14.0729 6.97648 14.1087 6.87943 14.1255C6.78237 14.1424 6.68296 14.1399 6.58686 14.1183C6.49075 14.0967 6.39984 14.0564 6.31931 13.9997C6.23878 13.943 6.17019 13.8709 6.1175 13.7877C6.0648 13.7045 6.02903 13.6117 6.01219 13.5146C5.99536 13.4176 5.99781 13.3182 6.0194 13.2221C6.04099 13.126 6.08128 13.035 6.138 12.9545C6.19473 12.874 6.26678 12.8054 6.35001 12.7527L19.565 4.3652C19.6853 4.28869 19.8249 4.24805 19.9675 4.24805C20.1101 4.24805 20.2497 4.28869 20.37 4.3652L33.5875 12.7527C33.7255 12.8394 33.8315 12.9688 33.8894 13.1211C33.9474 13.2734 33.9541 13.4405 33.9086 13.597C33.8632 13.7535 33.7679 13.891 33.6373 13.9885C33.5068 14.0861 33.348 14.1385 33.185 14.1377Z" fill="black"/>
<path d="M28.5425 25.8751H11.3925C11.1936 25.8751 11.0028 25.7961 10.8622 25.6554C10.7215 25.5148 10.6425 25.324 10.6425 25.1251V11.0176C10.6425 10.8187 10.7215 10.6279 10.8622 10.4873C11.0028 10.3466 11.1936 10.2676 11.3925 10.2676C11.5914 10.2676 11.7822 10.3466 11.9228 10.4873C12.0635 10.6279 12.1425 10.8187 12.1425 11.0176V24.3751H27.7925V11.0176C27.7925 10.8187 27.8715 10.6279 28.0122 10.4873C28.1528 10.3466 28.3436 10.2676 28.5425 10.2676C28.7414 10.2676 28.9322 10.3466 29.0728 10.4873C29.2135 10.6279 29.2925 10.8187 29.2925 11.0176V25.1251C29.2925 25.2236 29.2731 25.3211 29.2354 25.4121C29.1977 25.5031 29.1425 25.5858 29.0728 25.6554C29.0032 25.7251 28.9205 25.7803 28.8295 25.818C28.7385 25.8557 28.641 25.8751 28.5425 25.8751Z" fill="#262626"/>
<path d="M28.5425 25.8751H11.3925C11.1936 25.8751 11.0028 25.7961 10.8622 25.6554C10.7215 25.5148 10.6425 25.324 10.6425 25.1251V11.0176C10.6425 10.8187 10.7215 10.6279 10.8622 10.4873C11.0028 10.3466 11.1936 10.2676 11.3925 10.2676C11.5914 10.2676 11.7822 10.3466 11.9228 10.4873C12.0635 10.6279 12.1425 10.8187 12.1425 11.0176V24.3751H27.7925V11.0176C27.7925 10.8187 27.8715 10.6279 28.0122 10.4873C28.1528 10.3466 28.3436 10.2676 28.5425 10.2676C28.7414 10.2676 28.9322 10.3466 29.0728 10.4873C29.2135 10.6279 29.2925 10.8187 29.2925 11.0176V25.1251C29.2925 25.2236 29.2731 25.3211 29.2354 25.4121C29.1977 25.5031 29.1425 25.5858 29.0728 25.6554C29.0032 25.7251 28.9205 25.7803 28.8295 25.818C28.7385 25.8557 28.641 25.8751 28.5425 25.8751Z" fill="black"/>
<path d="M23.245 21.0848H16.69C16.4911 21.0848 16.3003 21.0058 16.1597 20.8651C16.019 20.7245 15.94 20.5337 15.94 20.3348V13.7798C15.94 13.5809 16.019 13.3901 16.1597 13.2495C16.3003 13.1088 16.4911 13.0298 16.69 13.0298H23.245C23.4439 13.0298 23.6347 13.1088 23.7753 13.2495C23.916 13.3901 23.995 13.5809 23.995 13.7798V20.3348C23.995 20.5337 23.916 20.7245 23.7753 20.8651C23.6347 21.0058 23.4439 21.0848 23.245 21.0848ZM17.44 19.5848H22.495V14.5298H17.44V19.5848Z" fill="#262626"/>
<path d="M23.245 21.0848H16.69C16.4911 21.0848 16.3003 21.0058 16.1597 20.8651C16.019 20.7245 15.94 20.5337 15.94 20.3348V13.7798C15.94 13.5809 16.019 13.3901 16.1597 13.2495C16.3003 13.1088 16.4911 13.0298 16.69 13.0298H23.245C23.4439 13.0298 23.6347 13.1088 23.7753 13.2495C23.916 13.3901 23.995 13.5809 23.995 13.7798V20.3348C23.995 20.5337 23.916 20.7245 23.7753 20.8651C23.6347 21.0058 23.4439 21.0848 23.245 21.0848ZM17.44 19.5848H22.495V14.5298H17.44V19.5848Z" fill="black"/>
<path d="M19.9675 20.8373C19.7686 20.8373 19.5778 20.7583 19.4372 20.6177C19.2965 20.477 19.2175 20.2863 19.2175 20.0873V14.0273C19.2175 13.8284 19.2965 13.6377 19.4372 13.497C19.5778 13.3564 19.7686 13.2773 19.9675 13.2773C20.1664 13.2773 20.3572 13.3564 20.4978 13.497C20.6385 13.6377 20.7175 13.8284 20.7175 14.0273V20.0873C20.7175 20.2863 20.6385 20.477 20.4978 20.6177C20.3572 20.7583 20.1664 20.8373 19.9675 20.8373Z" fill="#262626"/>
<path d="M19.9675 20.8373C19.7686 20.8373 19.5778 20.7583 19.4372 20.6177C19.2965 20.477 19.2175 20.2863 19.2175 20.0873V14.0273C19.2175 13.8284 19.2965 13.6377 19.4372 13.497C19.5778 13.3564 19.7686 13.2773 19.9675 13.2773C20.1664 13.2773 20.3572 13.3564 20.4978 13.497C20.6385 13.6377 20.7175 13.8284 20.7175 14.0273V20.0873C20.7175 20.2863 20.6385 20.477 20.4978 20.6177C20.3572 20.7583 20.1664 20.8373 19.9675 20.8373Z" fill="black"/>
<path d="M23.025 17.8076H16.91C16.7111 17.8076 16.5203 17.7286 16.3797 17.588C16.239 17.4473 16.16 17.2565 16.16 17.0576C16.16 16.8587 16.239 16.6679 16.3797 16.5273C16.5203 16.3866 16.7111 16.3076 16.91 16.3076H23.025C23.2239 16.3076 23.4147 16.3866 23.5553 16.5273C23.696 16.6679 23.775 16.8587 23.775 17.0576C23.775 17.2565 23.696 17.4473 23.5553 17.588C23.4147 17.7286 23.2239 17.8076 23.025 17.8076Z" fill="#262626"/>
<path d="M23.025 17.8076H16.91C16.7111 17.8076 16.5203 17.7286 16.3797 17.588C16.239 17.4473 16.16 17.2565 16.16 17.0576C16.16 16.8587 16.239 16.6679 16.3797 16.5273C16.5203 16.3866 16.7111 16.3076 16.91 16.3076H23.025C23.2239 16.3076 23.4147 16.3866 23.5553 16.5273C23.696 16.6679 23.775 16.8587 23.775 17.0576C23.775 17.2565 23.696 17.4473 23.5553 17.588C23.4147 17.7286 23.2239 17.8076 23.025 17.8076Z" fill="black"/>
</svg>
