<svg width="15" height="10" viewBox="0 0 15 10" fill="none" xmlns="http://www.w3.org/2000/svg">
<path d="M8.08364 9.15856L14.7452 2.49686C14.8994 2.34278 14.9844 2.1371 14.9844 1.91779C14.9844 1.69848 14.8994 1.4928 14.7452 1.33873L14.2548 0.848138C13.9352 0.528909 13.4157 0.528909 13.0966 0.848138L7.50263 6.44213L1.90243 0.841931C1.74823 0.687854 1.54267 0.602783 1.32348 0.602783C1.10405 0.602783 0.898492 0.687854 0.744171 0.841931L0.253827 1.33252C0.0996275 1.48672 0.0146789 1.69228 0.0146789 1.91159C0.0146789 2.1309 0.0996274 2.33658 0.253827 2.49065L6.92149 9.15856C7.07618 9.31301 7.28271 9.39783 7.50227 9.39735C7.72267 9.39783 7.92908 9.31301 8.08364 9.15856Z" fill="white"/>
</svg>
