<svg width="20" height="14" viewBox="0 0 20 14" fill="none" xmlns="http://www.w3.org/2000/svg">
<path d="M8.7633 7.56523C9.1144 7.84686 9.55103 8.00035 10.0011 8.00035C10.4512 8.00035 10.8879 7.84686 11.239 7.56523L18.3777 1.91305C18.4403 1.86229 18.4914 1.7987 18.5275 1.72656C18.5636 1.65441 18.5838 1.57539 18.5868 1.49478C18.5897 1.4135 18.5751 1.33254 18.5439 1.25742C18.5127 1.18231 18.4656 1.11482 18.4059 1.05957C18.0481 0.707587 17.5683 0.507161 17.0664 0.5H2.93589C2.44378 0.50158 1.97002 0.68705 1.60763 1.02C1.54692 1.07474 1.4988 1.142 1.4666 1.21714C1.4344 1.29227 1.41888 1.3735 1.42111 1.45522C1.42399 1.53724 1.44469 1.61764 1.48178 1.69085C1.51888 1.76405 1.57146 1.8283 1.63589 1.87913L8.7633 7.56523Z" fill="white"/>
<path d="M18.8636 12.3356C18.9812 12.0803 19.0429 11.8028 19.0445 11.5217V3.16211L13.4375 7.63299L18.8636 12.3356Z" fill="white"/>
<path d="M6.564 7.6331L0.957031 3.14526V11.5218C0.958641 11.8029 1.02031 12.0804 1.1379 12.3357L6.564 7.6331Z" fill="white"/>
<path d="M17.8576 13.3305L12.3185 8.53177L12.1206 8.69004C11.5191 9.17161 10.7716 9.43401 10.0011 9.43401C9.23055 9.43401 8.48299 9.17161 7.8815 8.69004L7.68367 8.52612L2.14453 13.3305C2.39354 13.4417 2.66311 13.4995 2.93584 13.5H17.0663C17.339 13.4995 17.6086 13.4417 17.8576 13.3305Z" fill="white"/>
</svg>
