<svg width="50" height="73" viewBox="0 0 50 73" fill="none" xmlns="http://www.w3.org/2000/svg">
<path fill-rule="evenodd" clip-rule="evenodd" d="M0 2C0 0.895431 0.895432 0 2 0H48C49.1046 0 50 0.895432 50 2V50V70.1716C50 71.9534 47.8457 72.8457 46.5858 71.5858L26.4142 51.4142C25.6332 50.6332 24.3668 50.6332 23.5858 51.4142L3.41421 71.5858C2.15428 72.8457 0 71.9534 0 70.1716V50V2Z" fill="#EE2929"/>
<mask id="path-2-inside-1_3145_16156" fill="white">
<path fill-rule="evenodd" clip-rule="evenodd" d="M2 4C2 2.89543 2.89543 2 4 2H46C47.1046 2 48 2.89543 48 4V48V66.1716C48 67.9534 45.8457 68.8457 44.5858 67.5858L26.4142 49.4142C25.6332 48.6332 24.3668 48.6332 23.5858 49.4142L5.41421 67.5858C4.15428 68.8457 2 67.9534 2 66.1716V48V4Z"/>
</mask>
<path d="M26.4142 49.4142L25.7071 50.1213L26.4142 49.4142ZM23.5858 49.4142L22.8787 48.7071L23.5858 49.4142ZM5.41421 67.5858L4.70711 66.8787L5.41421 67.5858ZM46 1H4V3H46V1ZM49 48V4H47V48H49ZM49 66.1716V48H47V66.1716H49ZM25.7071 50.1213L43.8787 68.2929L45.2929 66.8787L27.1213 48.7071L25.7071 50.1213ZM6.12132 68.2929L24.2929 50.1213L22.8787 48.7071L4.70711 66.8787L6.12132 68.2929ZM1 48V66.1716H3V48H1ZM1 4V48H3V4H1ZM27.1213 48.7071C25.9497 47.5355 24.0502 47.5355 22.8787 48.7071L24.2929 50.1213C24.6834 49.7308 25.3166 49.7308 25.7071 50.1213L27.1213 48.7071ZM47 66.1716C47 67.0625 45.9229 67.5086 45.2929 66.8787L43.8787 68.2929C45.7686 70.1828 49 68.8443 49 66.1716H47ZM4 1C2.34314 1 1 2.34315 1 4H3C3 3.44772 3.44772 3 4 3V1ZM4.70711 66.8787C4.07714 67.5086 3 67.0625 3 66.1716H1C1 68.8443 4.23143 70.1828 6.12132 68.2929L4.70711 66.8787ZM46 3C46.5523 3 47 3.44772 47 4H49C49 2.34314 47.6569 1 46 1V3Z" fill="white" mask="url(#path-2-inside-1_3145_16156)"/>
<path d="M8.20045 20.2299H11.0849V21.6035H8.20045V20.2299ZM10.5105 20.2299H11.9715C11.9715 20.2299 11.959 20.6045 11.959 20.7793C11.9091 23.4266 11.8467 24.5379 11.5594 24.925C11.3097 25.2372 11.06 25.3496 10.6978 25.412C10.3607 25.4619 9.82376 25.4619 9.23687 25.4495C9.21189 25.0124 9.04956 24.4255 8.8248 24.0509C9.27433 24.1009 9.69889 24.1009 9.89868 24.1009C10.0735 24.1009 10.1859 24.0759 10.2858 23.951C10.4356 23.7512 10.4856 22.8771 10.5105 20.4547V20.2299ZM14.2691 16.3215L15.1682 15.4099C15.855 15.772 16.779 16.3464 17.2285 16.7585L16.267 17.77C15.855 17.3329 14.9684 16.721 14.2691 16.3215ZM15.7426 19.5306L17.2535 19.8927C16.2046 23.1518 14.369 25.6867 11.8966 27.2101C11.6718 26.8979 11.1224 26.2736 10.8102 25.9739C13.2077 24.6877 14.881 22.4276 15.7426 19.5306ZM8.28786 17.4078H17.9153V18.8813H8.28786V17.4078ZM7.2889 17.4078H8.86226V21.079C8.86226 22.9521 8.64998 25.7242 7.51366 27.4099C7.26392 27.1102 6.58963 26.5608 6.23999 26.386C7.20149 24.8875 7.2889 22.7023 7.2889 21.0665V17.4078ZM12.3586 15.5473H13.932C13.8446 20.642 14.9934 25.6492 16.2546 25.6492C16.5418 25.6492 16.6916 25.0124 16.7665 23.439C17.1037 23.7887 17.6406 24.1383 18.0402 24.2882C17.8029 26.6107 17.3035 27.1727 16.1297 27.1727C13.4075 27.1727 12.3961 21.2413 12.3586 15.5473Z" fill="white"/>
<path d="M24.8331 21.1914L26.0319 20.5795C26.6812 21.4411 27.393 22.6024 27.6677 23.4016L26.3565 24.0759C26.1318 23.3017 25.47 22.0905 24.8331 21.1914ZM25.2452 17.6576H29.728V19.0686H25.2452V17.6576ZM29.0912 17.6576H30.5397C30.5397 17.6576 30.5397 18.157 30.5272 18.3444C30.3399 23.8511 30.1776 25.8366 29.6531 26.4984C29.3035 26.9729 28.9663 27.1102 28.4419 27.1976C27.9798 27.2601 27.2181 27.2601 26.4814 27.2226C26.4564 26.798 26.2566 26.1487 25.9819 25.7242C26.7686 25.7866 27.4929 25.7866 27.8175 25.7866C28.0673 25.7866 28.2171 25.7491 28.3545 25.5743C28.7665 25.1498 28.9413 23.0395 29.0912 17.9573V17.6576ZM25.3201 15.5223L26.8685 15.8594C26.344 17.72 25.4824 19.5556 24.5334 20.6919C24.2337 20.4422 23.5719 19.9926 23.1973 19.7804C24.1463 18.7939 24.908 17.1581 25.3201 15.5223ZM20.9247 15.5473L22.2483 16.0093C21.7363 16.9833 21.1495 18.0946 20.6625 18.7814L19.651 18.3693C20.1006 17.6201 20.6375 16.4214 20.9247 15.5473ZM22.4231 17.0207L23.6843 17.5452C22.7603 18.9812 21.5366 20.7169 20.5751 21.7783L19.6635 21.3163C20.625 20.1924 21.7613 18.3568 22.4231 17.0207ZM19.0017 18.5067L19.701 17.4703C20.3753 18.0447 21.1495 18.8438 21.4741 19.3933L20.7124 20.567C20.4002 19.9677 19.6385 19.1061 19.0017 18.5067ZM22.111 20.0301L23.1724 19.5681C23.6718 20.4047 24.1713 21.4911 24.3336 22.2153L23.1973 22.7398C23.0475 22.028 22.5855 20.8917 22.111 20.0301ZM18.9892 21.0415C20.1505 21.0041 21.8737 20.9292 23.547 20.8418V22.028C21.9736 22.1529 20.3503 22.2653 19.1141 22.3402L18.9892 21.0415ZM22.3357 23.1643L23.4346 22.8022C23.7592 23.5514 24.0964 24.5254 24.2462 25.1623L23.0725 25.5868C22.9601 24.9375 22.6354 23.926 22.3357 23.1643ZM19.5261 22.8771L20.7624 23.0894C20.6375 24.2882 20.3628 25.5369 20.0007 26.336C19.7384 26.1737 19.1765 25.9115 18.8643 25.7866C19.2265 25.0499 19.4263 23.9385 19.5261 22.8771ZM20.9746 21.7034H22.3107V27.2726H20.9746V21.7034Z" fill="white"/>
<path d="M35.4596 16.6586H43.3638V17.9448H35.4596V16.6586ZM37.2702 21.7783H41.6531V23.027H37.2702V21.7783ZM37.2827 23.8761H41.6906V25.1248H37.2827V23.8761ZM38.6188 15.5473H40.1671V17.233H38.6188V15.5473ZM40.9413 21.2538H42.4148V27.2351H40.9413V21.2538ZM40.8914 17.4328L42.2899 17.8324C41.0163 19.9052 38.4814 20.9292 35.6593 21.4786C35.522 21.1539 35.1848 20.5171 34.9476 20.2174C37.5823 19.8553 39.9424 19.0561 40.8914 17.4328ZM32.4752 16.6961L33.2868 15.5972C34.061 15.8969 35.0725 16.4089 35.5719 16.8334L34.7103 18.0572C34.2483 17.6201 33.2618 17.0457 32.4752 16.6961ZM31.7509 20.0925L32.5626 18.9687C33.3368 19.2434 34.3732 19.7429 34.8852 20.155L34.0235 21.4037C33.549 20.9791 32.5501 20.4297 31.7509 20.0925ZM32.113 26.1487C32.7499 25.1997 33.6489 23.6139 34.3482 22.1529L35.497 23.0894C34.8727 24.413 34.1234 25.8615 33.4242 27.0977L32.113 26.1487ZM36.4335 21.2164H37.8695V22.7023C37.8695 24.0134 37.6448 26.1113 36.0714 27.3974C35.7967 27.1602 35.2223 26.7731 34.8727 26.5858C36.2587 25.4869 36.4335 23.7387 36.4335 22.6773V21.2164ZM37.5699 17.3204C39.1432 19.206 41.2036 19.6929 43.6635 20.0301C43.3388 20.3672 43.0017 20.9167 42.8643 21.3787C40.2795 20.8917 38.0693 20.1675 36.3461 17.8449L37.5699 17.3204Z" fill="white"/>
</svg>
