
<svg xmlns="http://www.w3.org/2000/svg" viewBox="0 0 30 21" fill="#fffefd"><g id="Layer_2" data-name="Layer 2"><g id="Layer_1-2" data-name="Layer 1"><path d="M8.11,11.39A6.48,6.48,0,0,0,5.77,13.5a7,7,0,0,0-1.18,3H1.5a1.41,1.41,0,0,1-1-.45A1.41,1.41,0,0,1,0,15V13.5a2.9,2.9,0,0,1,.89-2.11A2.9,2.9,0,0,1,3,10.5H6A2.9,2.9,0,0,1,8.11,11.39ZM6.61,8.11a2.95,2.95,0,0,1-4.22,0,2.95,2.95,0,0,1,0-4.22,2.95,2.95,0,0,1,4.22,0,2.95,2.95,0,0,1,0,4.22Zm12,3.89A5.36,5.36,0,0,1,24,17.39v1.36A2.25,2.25,0,0,1,21.75,21H8.25A2.25,2.25,0,0,1,6,18.75V17.39A5.36,5.36,0,0,1,11.39,12h.42a7.16,7.16,0,0,0,6.38,0ZM18.7,9a5.19,5.19,0,0,1-7.4,0,5,5,0,0,1-1.55-3.7,5,5,0,0,1,1.55-3.7,5.19,5.19,0,0,1,7.4,0,5,5,0,0,1,1.55,3.7A5,5,0,0,1,18.7,9ZM27,10.5a3,3,0,0,1,3,3V15a1.54,1.54,0,0,1-1.5,1.5H25.41a7,7,0,0,0-.61-2.06,6.76,6.76,0,0,0-1.22-1.76,6.83,6.83,0,0,0-1.69-1.29A2.9,2.9,0,0,1,24,10.5Zm.61-2.39a2.95,2.95,0,0,1-4.22,0,2.95,2.95,0,0,1,0-4.22,2.95,2.95,0,0,1,4.22,0,2.95,2.95,0,0,1,0,4.22Z"/></g></g></svg>