<svg width="40" height="30" viewBox="0 0 40 30" fill="none" xmlns="http://www.w3.org/2000/svg">
<rect width="40" height="30" fill="none"/>
<g clip-path="url(#clip0_5308_31084)">
<path d="M33.1154 26H8V4H33.1154V26ZM9.33951 24.6662H31.7816V5.3338H9.3338L9.33951 24.6662Z" fill="#262626"/>
<path d="M33.1154 26H8V4H33.1154V26ZM9.33951 24.6662H31.7816V5.3338H9.3338L9.33951 24.6662Z" fill="black"/>
<path d="M33.1096 21.0039H8V22.3377H33.1096V21.0039Z" fill="#262626"/>
<path d="M33.1096 21.0039H8V22.3377H33.1096V21.0039Z" fill="black"/>
<path d="M14.6499 19.9179C13.8867 19.9183 13.1405 19.6923 12.5058 19.2685C11.871 18.8448 11.3761 18.2423 11.0838 17.5373C10.7915 16.8323 10.7148 16.0564 10.8635 15.3078C11.0121 14.5592 11.3795 13.8715 11.919 13.3317C12.4585 12.7919 13.1461 12.4242 13.8946 12.2752C14.6431 12.1262 15.419 12.2025 16.1242 12.4945C16.8293 12.7864 17.4321 13.281 17.8561 13.9156C18.2802 14.5501 18.5065 15.2962 18.5065 16.0594C18.5055 17.0821 18.0989 18.0626 17.376 18.786C16.653 19.5093 15.6726 19.9164 14.6499 19.9179ZM14.6499 13.5366C14.1504 13.5363 13.6621 13.6841 13.2466 13.9613C12.8311 14.2386 12.5072 14.6329 12.3159 15.0943C12.1246 15.5557 12.0744 16.0635 12.1718 16.5534C12.2691 17.0433 12.5096 17.4933 12.8628 17.8465C13.216 18.1997 13.666 18.4402 14.156 18.5376C14.6459 18.6349 15.1537 18.5848 15.6151 18.3935C16.0765 18.2021 16.4708 17.8782 16.748 17.4628C17.0253 17.0473 17.1731 16.5589 17.1727 16.0594C17.1712 15.391 16.9049 14.7504 16.432 14.2779C15.9592 13.8054 15.3184 13.5395 14.6499 13.5385V13.5366Z" fill="#262626"/>
<path d="M14.6499 19.9179C13.8867 19.9183 13.1405 19.6923 12.5058 19.2685C11.871 18.8448 11.3761 18.2423 11.0838 17.5373C10.7915 16.8323 10.7148 16.0564 10.8635 15.3078C11.0121 14.5592 11.3795 13.8715 11.919 13.3317C12.4585 12.7919 13.1461 12.4242 13.8946 12.2752C14.6431 12.1262 15.419 12.2025 16.1242 12.4945C16.8293 12.7864 17.4321 13.281 17.8561 13.9156C18.2802 14.5501 18.5065 15.2962 18.5065 16.0594C18.5055 17.0821 18.0989 18.0626 17.376 18.786C16.653 19.5093 15.6726 19.9164 14.6499 19.9179ZM14.6499 13.5366C14.1504 13.5363 13.6621 13.6841 13.2466 13.9613C12.8311 14.2386 12.5072 14.6329 12.3159 15.0943C12.1246 15.5557 12.0744 16.0635 12.1718 16.5534C12.2691 17.0433 12.5096 17.4933 12.8628 17.8465C13.216 18.1997 13.666 18.4402 14.156 18.5376C14.6459 18.6349 15.1537 18.5848 15.6151 18.3935C16.0765 18.2021 16.4708 17.8782 16.748 17.4628C17.0253 17.0473 17.1731 16.5589 17.1727 16.0594C17.1712 15.391 16.9049 14.7504 16.432 14.2779C15.9592 13.8054 15.3184 13.5395 14.6499 13.5385V13.5366Z" fill="black"/>
<path d="M26.4598 19.9179C25.6965 19.9183 24.9504 19.6923 24.3156 19.2685C23.6808 18.8448 23.186 18.2423 22.8936 17.5373C22.6013 16.8323 22.5246 16.0564 22.6733 15.3078C22.8219 14.5592 23.1893 13.8715 23.7288 13.3317C24.2684 12.7919 24.9559 12.4242 25.7044 12.2752C26.4529 12.1262 27.2288 12.2025 27.934 12.4945C28.6391 12.7864 29.2419 13.281 29.6659 13.9156C30.09 14.5501 30.3163 15.2962 30.3163 16.0594C30.3153 17.0821 29.9087 18.0626 29.1858 18.786C28.4628 19.5093 27.4824 19.9164 26.4598 19.9179ZM26.4598 13.5366C25.9603 13.5363 25.4719 13.6841 25.0564 13.9613C24.6409 14.2386 24.317 14.6329 24.1257 15.0943C23.9344 15.5557 23.8842 16.0635 23.9816 16.5534C24.0789 17.0433 24.3194 17.4933 24.6726 17.8465C25.0258 18.1997 25.4759 18.4402 25.9658 18.5376C26.4557 18.6349 26.9635 18.5848 27.4249 18.3935C27.8863 18.2021 28.2806 17.8782 28.5578 17.4628C28.8351 17.0473 28.9829 16.5589 28.9825 16.0594C28.981 15.391 28.7147 14.7504 28.2418 14.2779C27.769 13.8054 27.1282 13.5395 26.4598 13.5385V13.5366Z" fill="#262626"/>
<path d="M26.4598 19.9179C25.6965 19.9183 24.9504 19.6923 24.3156 19.2685C23.6808 18.8448 23.186 18.2423 22.8936 17.5373C22.6013 16.8323 22.5246 16.0564 22.6733 15.3078C22.8219 14.5592 23.1893 13.8715 23.7288 13.3317C24.2684 12.7919 24.9559 12.4242 25.7044 12.2752C26.4529 12.1262 27.2288 12.2025 27.934 12.4945C28.6391 12.7864 29.2419 13.281 29.6659 13.9156C30.09 14.5501 30.3163 15.2962 30.3163 16.0594C30.3153 17.0821 29.9087 18.0626 29.1858 18.786C28.4628 19.5093 27.4824 19.9164 26.4598 19.9179ZM26.4598 13.5366C25.9603 13.5363 25.4719 13.6841 25.0564 13.9613C24.6409 14.2386 24.317 14.6329 24.1257 15.0943C23.9344 15.5557 23.8842 16.0635 23.9816 16.5534C24.0789 17.0433 24.3194 17.4933 24.6726 17.8465C25.0258 18.1997 25.4759 18.4402 25.9658 18.5376C26.4557 18.6349 26.9635 18.5848 27.4249 18.3935C27.8863 18.2021 28.2806 17.8782 28.5578 17.4628C28.8351 17.0473 28.9829 16.5589 28.9825 16.0594C28.981 15.391 28.7147 14.7504 28.2418 14.2779C27.769 13.8054 27.1282 13.5395 26.4598 13.5385V13.5366Z" fill="black"/>
<path d="M20.5548 12.7821C19.971 12.7821 19.4004 12.609 18.915 12.2847C18.4296 11.9604 18.0513 11.4995 17.8279 10.9601C17.6046 10.4208 17.5461 9.82738 17.66 9.25484C17.7739 8.68231 18.055 8.1564 18.4677 7.74362C18.8805 7.33085 19.4064 7.04975 19.979 6.93586C20.5515 6.82198 21.1449 6.88043 21.6843 7.10382C22.2236 7.32721 22.6845 7.70551 23.0089 8.19089C23.3332 8.67626 23.5063 9.2469 23.5063 9.83065C23.5053 10.6131 23.194 11.3633 22.6407 11.9166C22.0874 12.4699 21.3372 12.7811 20.5548 12.7821ZM20.5548 8.20913C20.2348 8.20913 19.9221 8.30401 19.656 8.48177C19.39 8.65952 19.1826 8.91217 19.0602 9.20777C18.9378 9.50337 18.9057 9.82863 18.9682 10.1424C19.0306 10.4562 19.1846 10.7445 19.4109 10.9707C19.6371 11.197 19.9254 11.351 20.2392 11.4135C20.553 11.4759 20.8782 11.4438 21.1738 11.3214C21.4694 11.199 21.7221 10.9916 21.8998 10.7256C22.0776 10.4596 22.1725 10.1468 22.1725 9.82684C22.171 9.39861 21.9999 8.98841 21.6968 8.68596C21.3936 8.38352 20.983 8.21345 20.5548 8.21295V8.20913Z" fill="#262626"/>
<path d="M20.5548 12.7821C19.971 12.7821 19.4004 12.609 18.915 12.2847C18.4296 11.9604 18.0513 11.4995 17.8279 10.9601C17.6046 10.4208 17.5461 9.82738 17.66 9.25484C17.7739 8.68231 18.055 8.1564 18.4677 7.74362C18.8805 7.33085 19.4064 7.04975 19.979 6.93586C20.5515 6.82198 21.1449 6.88043 21.6843 7.10382C22.2236 7.32721 22.6845 7.70551 23.0089 8.19089C23.3332 8.67626 23.5063 9.2469 23.5063 9.83065C23.5053 10.6131 23.194 11.3633 22.6407 11.9166C22.0874 12.4699 21.3372 12.7811 20.5548 12.7821ZM20.5548 8.20913C20.2348 8.20913 19.9221 8.30401 19.656 8.48177C19.39 8.65952 19.1826 8.91217 19.0602 9.20777C18.9378 9.50337 18.9057 9.82863 18.9682 10.1424C19.0306 10.4562 19.1846 10.7445 19.4109 10.9707C19.6371 11.197 19.9254 11.351 20.2392 11.4135C20.553 11.4759 20.8782 11.4438 21.1738 11.3214C21.4694 11.199 21.7221 10.9916 21.8998 10.7256C22.0776 10.4596 22.1725 10.1468 22.1725 9.82684C22.171 9.39861 21.9999 8.98841 21.6968 8.68596C21.3936 8.38352 20.983 8.21345 20.5548 8.21295V8.20913Z" fill="black"/>
<path d="M14.2211 22.7856H11.2734V24.1194H14.2211V22.7856Z" fill="#262626"/>
<path d="M14.2211 22.7856H11.2734V24.1194H14.2211V22.7856Z" fill="black"/>
<path d="M19.4269 22.7856H16.4792V24.1194H19.4269V22.7856Z" fill="#262626"/>
<path d="M19.4269 22.7856H16.4792V24.1194H19.4269V22.7856Z" fill="black"/>
<path d="M24.6305 22.7856H21.6829V24.1194H24.6305V22.7856Z" fill="#262626"/>
<path d="M24.6305 22.7856H21.6829V24.1194H24.6305V22.7856Z" fill="black"/>
<path d="M29.8361 22.7856H26.8884V24.1194H29.8361V22.7856Z" fill="#262626"/>
<path d="M29.8361 22.7856H26.8884V24.1194H29.8361V22.7856Z" fill="black"/>
<path d="M28.6395 6.42358H27.3057V10.726H28.6395V6.42358Z" fill="#262626"/>
<path d="M28.6395 6.42358H27.3057V10.726H28.6395V6.42358Z" fill="black"/>
<path d="M30.8404 6.42358H29.5066V10.726H30.8404V6.42358Z" fill="#262626"/>
<path d="M30.8404 6.42358H29.5066V10.726H30.8404V6.42358Z" fill="black"/>
<path d="M30.6917 7.6355H27.4543V8.96929H30.6917V7.6355Z" fill="#262626"/>
<path d="M30.6917 7.6355H27.4543V8.96929H30.6917V7.6355Z" fill="black"/>
<path d="M26.2064 6.45801H24.8726V10.7395H26.2064V6.45801Z" fill="#262626"/>
<path d="M26.2064 6.45801H24.8726V10.7395H26.2064V6.45801Z" fill="black"/>
<path d="M26.7437 6.41797H24.3352V7.75176H26.7437V6.41797Z" fill="#262626"/>
<path d="M26.7437 6.41797H24.3352V7.75176H26.7437V6.41797Z" fill="black"/>
<path d="M26.7437 9.49146H24.3352V10.8253H26.7437V9.49146Z" fill="#262626"/>
<path d="M26.7437 9.49146H24.3352V10.8253H26.7437V9.49146Z" fill="black"/>
</g>
<defs>
<clipPath id="clip0_5308_31084">
<rect width="25.1096" height="22" fill="white" transform="translate(8 4)"/>
</clipPath>
</defs>
</svg>
