<svg width="40" height="30" viewBox="0 0 40 30" fill="none" xmlns="http://www.w3.org/2000/svg">
<rect width="40" height="30" fill="none"/>
<path d="M14.0991 21.103V19.4783L17.213 13.606C17.3519 13.3692 17.4439 13.1077 17.4837 12.836C17.509 12.5632 17.5203 12.2892 17.5176 12.0153C17.5176 11.8693 17.5176 11.7149 17.5176 11.5499C17.514 11.4042 17.4824 11.2606 17.4245 11.1268C17.3671 11.0031 17.2799 10.8955 17.1707 10.8137C17.0249 10.7199 16.8528 10.6754 16.6799 10.6868C16.5646 10.676 16.4484 10.691 16.3396 10.7308C16.2309 10.7706 16.1324 10.8342 16.0513 10.9169C15.9703 10.9996 15.9087 11.0993 15.871 11.2088C15.8334 11.3183 15.8206 11.4348 15.8337 11.5499V12.5314H14.1076V11.5837C14.1081 11.2344 14.1801 10.8888 14.3191 10.5683C14.4505 10.2587 14.6401 9.97723 14.8776 9.73911C15.1089 9.49909 15.3848 9.3065 15.6899 9.17218C16.0097 9.03086 16.3557 8.95877 16.7053 8.96064C17.1056 8.94984 17.5029 9.03393 17.8645 9.20603C18.1797 9.36499 18.4546 9.59358 18.6683 9.87449C18.8755 10.1659 19.0275 10.4929 19.1168 10.8391C19.2142 11.2149 19.2625 11.6017 19.2607 11.9899C19.2607 12.2839 19.2606 12.5293 19.2437 12.726C19.2338 12.9163 19.2112 13.1057 19.176 13.293C19.1404 13.4793 19.0836 13.661 19.0068 13.8345C18.9285 14.0164 18.8207 14.2364 18.6853 14.4945L16.1468 19.3853H19.2607V21.1114L14.0991 21.103Z" fill="#262626"/>
<path d="M14.0991 21.103V19.4783L17.213 13.606C17.3519 13.3692 17.4439 13.1077 17.4837 12.836C17.509 12.5632 17.5203 12.2892 17.5176 12.0153C17.5176 11.8693 17.5176 11.7149 17.5176 11.5499C17.514 11.4042 17.4824 11.2606 17.4245 11.1268C17.3671 11.0031 17.2799 10.8955 17.1707 10.8137C17.0249 10.7199 16.8528 10.6754 16.6799 10.6868C16.5646 10.676 16.4484 10.691 16.3396 10.7308C16.2309 10.7706 16.1324 10.8342 16.0513 10.9169C15.9703 10.9996 15.9087 11.0993 15.871 11.2088C15.8334 11.3183 15.8206 11.4348 15.8337 11.5499V12.5314H14.1076V11.5837C14.1081 11.2344 14.1801 10.8888 14.3191 10.5683C14.4505 10.2587 14.6401 9.97723 14.8776 9.73911C15.1089 9.49909 15.3848 9.3065 15.6899 9.17218C16.0097 9.03086 16.3557 8.95877 16.7053 8.96064C17.1056 8.94984 17.5029 9.03393 17.8645 9.20603C18.1797 9.36499 18.4546 9.59358 18.6683 9.87449C18.8755 10.1659 19.0275 10.4929 19.1168 10.8391C19.2142 11.2149 19.2625 11.6017 19.2607 11.9899C19.2607 12.2839 19.2606 12.5293 19.2437 12.726C19.2338 12.9163 19.2112 13.1057 19.176 13.293C19.1404 13.4793 19.0836 13.661 19.0068 13.8345C18.9285 14.0164 18.8207 14.2364 18.6853 14.4945L16.1468 19.3853H19.2607V21.1114L14.0991 21.103Z" fill="black"/>
<path d="M20.3946 11.5413C20.3876 11.1694 20.4597 10.8002 20.6062 10.4583C20.7405 10.1532 20.9331 9.87728 21.1731 9.64597C21.4096 9.42105 21.6886 9.24557 21.9938 9.12982C22.6209 8.8926 23.313 8.8926 23.94 9.12982C24.2452 9.24557 24.5242 9.42105 24.7608 9.64597C25.0008 9.87728 25.1934 10.1532 25.3277 10.4583C25.4741 10.8002 25.5462 11.1694 25.5392 11.5413V18.6152C25.5464 18.9871 25.4743 19.3564 25.3277 19.6983C25.1929 20.0036 24.9988 20.279 24.7565 20.5085C24.5205 20.7341 24.2414 20.9096 23.9358 21.0246C23.3087 21.2618 22.6167 21.2618 21.9896 21.0246C21.684 20.9096 21.4049 20.7341 21.1689 20.5085C20.9279 20.278 20.7352 20.0018 20.6019 19.6962C20.4553 19.3543 20.3832 18.985 20.3904 18.6131L20.3946 11.5413ZM22.1208 18.6152C22.1168 18.7288 22.1357 18.842 22.1764 18.9482C22.2171 19.0543 22.2787 19.1511 22.3577 19.2329C22.5216 19.3901 22.7399 19.4779 22.9669 19.4779C23.194 19.4779 23.4123 19.3901 23.5762 19.2329C23.6551 19.1511 23.7168 19.0543 23.7575 18.9482C23.7982 18.842 23.8171 18.7288 23.8131 18.6152V11.5413C23.8171 11.4278 23.7982 11.3145 23.7575 11.2084C23.7168 11.1023 23.6551 11.0054 23.5762 10.9237C23.4123 10.7665 23.194 10.6787 22.9669 10.6787C22.7399 10.6787 22.5216 10.7665 22.3577 10.9237C22.2787 11.0054 22.2171 11.1023 22.1764 11.2084C22.1357 11.3145 22.1168 11.4278 22.1208 11.5413V18.6152Z" fill="#262626"/>
<path d="M20.3946 11.5413C20.3876 11.1694 20.4597 10.8002 20.6062 10.4583C20.7405 10.1532 20.9331 9.87728 21.1731 9.64597C21.4096 9.42105 21.6886 9.24557 21.9938 9.12982C22.6209 8.8926 23.313 8.8926 23.94 9.12982C24.2452 9.24557 24.5242 9.42105 24.7608 9.64597C25.0008 9.87728 25.1934 10.1532 25.3277 10.4583C25.4741 10.8002 25.5462 11.1694 25.5392 11.5413V18.6152C25.5464 18.9871 25.4743 19.3564 25.3277 19.6983C25.1929 20.0036 24.9988 20.279 24.7565 20.5085C24.5205 20.7341 24.2414 20.9096 23.9358 21.0246C23.3087 21.2618 22.6167 21.2618 21.9896 21.0246C21.684 20.9096 21.4049 20.7341 21.1689 20.5085C20.9279 20.278 20.7352 20.0018 20.6019 19.6962C20.4553 19.3543 20.3832 18.985 20.3904 18.6131L20.3946 11.5413ZM22.1208 18.6152C22.1168 18.7288 22.1357 18.842 22.1764 18.9482C22.2171 19.0543 22.2787 19.1511 22.3577 19.2329C22.5216 19.3901 22.7399 19.4779 22.9669 19.4779C23.194 19.4779 23.4123 19.3901 23.5762 19.2329C23.6551 19.1511 23.7168 19.0543 23.7575 18.9482C23.7982 18.842 23.8171 18.7288 23.8131 18.6152V11.5413C23.8171 11.4278 23.7982 11.3145 23.7575 11.2084C23.7168 11.1023 23.6551 11.0054 23.5762 10.9237C23.4123 10.7665 23.194 10.6787 22.9669 10.6787C22.7399 10.6787 22.5216 10.7665 22.3577 10.9237C22.2787 11.0054 22.2171 11.1023 22.1764 11.2084C22.1357 11.3145 22.1168 11.4278 22.1208 11.5413V18.6152Z" fill="black"/>
<path d="M32.5116 10.6424V9.39854C32.511 8.2541 32.0579 7.15631 31.251 6.34469C30.4442 5.53307 29.3491 5.0735 28.2046 5.06624V4.00854H7.12695V25.797H32.1223V12.4701H28.2046V10.636L32.5116 10.6424ZM28.2046 6.33547C29.0079 6.34319 29.7761 6.66571 30.3441 7.23372C30.9121 7.80173 31.2346 8.5699 31.2423 9.37316H28.2046V6.33547ZM30.8531 13.7393V24.5278H22.9564V22.3532C22.5455 22.5257 22.1209 22.6637 21.6871 22.7657V24.5278H8.39618V13.7393H11.8104C11.8708 13.3093 11.9656 12.8849 12.0939 12.4701H8.39618V5.27778H13.3335V10.0585C13.7041 9.56395 14.1299 9.11328 14.6027 8.71528V5.27778H26.9333V11.0464C27.3895 11.8887 27.6918 12.8057 27.826 13.7541H30.851L30.8531 13.7393Z" fill="#262626"/>
<path d="M32.5116 10.6424V9.39854C32.511 8.2541 32.0579 7.15631 31.251 6.34469C30.4442 5.53307 29.3491 5.0735 28.2046 5.06624V4.00854H7.12695V25.797H32.1223V12.4701H28.2046V10.636L32.5116 10.6424ZM28.2046 6.33547C29.0079 6.34319 29.7761 6.66571 30.3441 7.23372C30.9121 7.80173 31.2346 8.5699 31.2423 9.37316H28.2046V6.33547ZM30.8531 13.7393V24.5278H22.9564V22.3532C22.5455 22.5257 22.1209 22.6637 21.6871 22.7657V24.5278H8.39618V13.7393H11.8104C11.8708 13.3093 11.9656 12.8849 12.0939 12.4701H8.39618V5.27778H13.3335V10.0585C13.7041 9.56395 14.1299 9.11328 14.6027 8.71528V5.27778H26.9333V11.0464C27.3895 11.8887 27.6918 12.8057 27.826 13.7541H30.851L30.8531 13.7393Z" fill="black"/>
</svg>
