<svg width="40" height="30" viewBox="0 0 40 30" fill="none" xmlns="http://www.w3.org/2000/svg">
<rect width="40" height="30" fill="none"/>
<g clip-path="url(#clip0_5308_31197)">
<path d="M16.0199 14.6468C16.5382 14.6468 16.8957 14.5834 17.0946 14.4607C17.2934 14.338 17.3907 14.0482 17.3907 13.5976V12.047C17.3947 11.9354 17.3766 11.8241 17.3374 11.7196C17.2982 11.615 17.2386 11.5192 17.1622 11.4378C17.0815 11.3574 16.9849 11.2948 16.8785 11.254C16.7721 11.2132 16.6584 11.1951 16.5446 11.2009C16.4204 11.1888 16.2952 11.2089 16.1811 11.2593C16.0669 11.3097 15.9677 11.3886 15.893 11.4886C15.7723 11.6503 15.7043 11.8453 15.6984 12.047V13.0286H13.968V12.028C13.9694 11.6849 14.0414 11.3457 14.1796 11.0317C14.3075 10.7251 14.4976 10.4485 14.738 10.2193C14.9798 9.99006 15.2606 9.80594 15.5673 9.67568C15.8879 9.53724 16.2333 9.46527 16.5826 9.46414C16.993 9.4492 17.3996 9.54647 17.7588 9.74549C18.0221 9.89421 18.2594 10.085 18.4611 10.3103C18.5682 10.4401 18.6671 10.5764 18.7573 10.7186C18.8495 10.8719 18.9207 11.037 18.9688 11.2093C19.0879 11.753 19.1391 12.3094 19.1211 12.8657C19.1211 13.2888 19.1211 13.623 19.0957 13.8832C19.0857 14.0999 19.0429 14.3139 18.9688 14.5178C18.8931 14.6915 18.7804 14.8467 18.6388 14.9726C18.457 15.1256 18.2616 15.2615 18.0549 15.3788C18.2788 15.5127 18.4861 15.6724 18.6726 15.8547C18.8122 15.9995 18.919 16.1727 18.9857 16.3624C19.0577 16.5949 19.0976 16.8362 19.1042 17.0795C19.1042 17.3566 19.1211 17.7141 19.1211 18.1372C19.1211 18.5603 19.1211 18.8607 19.0957 19.1209C19.0837 19.3338 19.0582 19.5458 19.0196 19.7555C18.9919 19.9124 18.9465 20.0657 18.8842 20.2124C18.8225 20.3468 18.7519 20.4768 18.6726 20.6016C18.4562 20.9178 18.1768 21.1857 17.8519 21.3886C17.4525 21.6132 16.9982 21.7217 16.5403 21.7017C16.2477 21.6976 15.9571 21.652 15.6772 21.5663C15.3626 21.4739 15.0711 21.3161 14.8218 21.1032C14.5724 20.8903 14.3709 20.6271 14.2303 20.3309C14.056 19.955 13.9719 19.5435 13.9849 19.1293V18.1457H15.7111V19.0447C15.7016 19.2882 15.7831 19.5264 15.9395 19.7132C16.0196 19.7961 16.1156 19.862 16.2217 19.9071C16.3279 19.9521 16.442 19.9753 16.5572 19.9753C16.6725 19.9753 16.7866 19.9521 16.8928 19.9071C16.9989 19.862 17.0949 19.7961 17.1749 19.7132C17.3349 19.5152 17.4163 19.2651 17.4034 19.0109V17.2826C17.4034 16.8109 17.3124 16.4999 17.1326 16.354C17.0128 16.2546 16.8648 16.1954 16.7095 16.1847C16.482 16.1591 16.2531 16.1478 16.0242 16.1509L16.0199 14.6468Z" fill="#262626"/>
<path d="M16.0199 14.6468C16.5382 14.6468 16.8957 14.5834 17.0946 14.4607C17.2934 14.338 17.3907 14.0482 17.3907 13.5976V12.047C17.3947 11.9354 17.3766 11.8241 17.3374 11.7196C17.2982 11.615 17.2386 11.5192 17.1622 11.4378C17.0815 11.3574 16.9849 11.2948 16.8785 11.254C16.7721 11.2132 16.6584 11.1951 16.5446 11.2009C16.4204 11.1888 16.2952 11.2089 16.1811 11.2593C16.0669 11.3097 15.9677 11.3886 15.893 11.4886C15.7723 11.6503 15.7043 11.8453 15.6984 12.047V13.0286H13.968V12.028C13.9694 11.6849 14.0414 11.3457 14.1796 11.0317C14.3075 10.7251 14.4976 10.4485 14.738 10.2193C14.9798 9.99006 15.2606 9.80594 15.5673 9.67568C15.8879 9.53724 16.2333 9.46527 16.5826 9.46414C16.993 9.4492 17.3996 9.54647 17.7588 9.74549C18.0221 9.89421 18.2594 10.085 18.4611 10.3103C18.5682 10.4401 18.6671 10.5764 18.7573 10.7186C18.8495 10.8719 18.9207 11.037 18.9688 11.2093C19.0879 11.753 19.1391 12.3094 19.1211 12.8657C19.1211 13.2888 19.1211 13.623 19.0957 13.8832C19.0857 14.0999 19.0429 14.3139 18.9688 14.5178C18.8931 14.6915 18.7804 14.8467 18.6388 14.9726C18.457 15.1256 18.2616 15.2615 18.0549 15.3788C18.2788 15.5127 18.4861 15.6724 18.6726 15.8547C18.8122 15.9995 18.919 16.1727 18.9857 16.3624C19.0577 16.5949 19.0976 16.8362 19.1042 17.0795C19.1042 17.3566 19.1211 17.7141 19.1211 18.1372C19.1211 18.5603 19.1211 18.8607 19.0957 19.1209C19.0837 19.3338 19.0582 19.5458 19.0196 19.7555C18.9919 19.9124 18.9465 20.0657 18.8842 20.2124C18.8225 20.3468 18.7519 20.4768 18.6726 20.6016C18.4562 20.9178 18.1768 21.1857 17.8519 21.3886C17.4525 21.6132 16.9982 21.7217 16.5403 21.7017C16.2477 21.6976 15.9571 21.652 15.6772 21.5663C15.3626 21.4739 15.0711 21.3161 14.8218 21.1032C14.5724 20.8903 14.3709 20.6271 14.2303 20.3309C14.056 19.955 13.9719 19.5435 13.9849 19.1293V18.1457H15.7111V19.0447C15.7016 19.2882 15.7831 19.5264 15.9395 19.7132C16.0196 19.7961 16.1156 19.862 16.2217 19.9071C16.3279 19.9521 16.442 19.9753 16.5572 19.9753C16.6725 19.9753 16.7866 19.9521 16.8928 19.9071C16.9989 19.862 17.0949 19.7961 17.1749 19.7132C17.3349 19.5152 17.4163 19.2651 17.4034 19.0109V17.2826C17.4034 16.8109 17.3124 16.4999 17.1326 16.354C17.0128 16.2546 16.8648 16.1954 16.7095 16.1847C16.482 16.1591 16.2531 16.1478 16.0242 16.1509L16.0199 14.6468Z" fill="black"/>
<path d="M20.2678 12.0574C20.2608 11.6848 20.3329 11.3149 20.4793 10.9722C20.6124 10.6671 20.8051 10.3916 21.0462 10.1621C21.2823 9.93645 21.5614 9.76088 21.867 9.6459C22.4936 9.40612 23.1866 9.40612 23.8132 9.6459C24.1185 9.76135 24.3976 9.93686 24.634 10.1621C24.8742 10.3923 25.0668 10.6676 25.2009 10.9722C25.3463 11.3152 25.4184 11.6849 25.4124 12.0574V19.1313C25.4184 19.5031 25.3463 19.8721 25.2009 20.2144C25.0665 20.5194 24.874 20.7954 24.634 21.0267C24.3975 21.2512 24.1184 21.426 23.8132 21.5407C23.1866 21.7805 22.4936 21.7805 21.867 21.5407C21.5615 21.4265 21.2823 21.2517 21.0462 21.0267C20.8058 20.7958 20.6131 20.5197 20.4793 20.2144C20.3329 19.8724 20.2608 19.5032 20.2678 19.1313V12.0574ZM21.9939 19.1313C21.9899 19.2449 22.0088 19.3581 22.0495 19.4643C22.0902 19.5704 22.1519 19.6672 22.2309 19.749C22.3947 19.9062 22.613 19.994 22.8401 19.994C23.0672 19.994 23.2855 19.9062 23.4493 19.749C23.5275 19.6667 23.5887 19.5697 23.6293 19.4637C23.67 19.3577 23.6893 19.2448 23.6862 19.1313V12.0574C23.6903 11.9438 23.6714 11.8306 23.6307 11.7245C23.59 11.6184 23.5283 11.5215 23.4493 11.4397C23.2855 11.2825 23.0672 11.1948 22.8401 11.1948C22.613 11.1948 22.3947 11.2825 22.2309 11.4397C22.1519 11.5215 22.0902 11.6184 22.0495 11.7245C22.0088 11.8306 21.9899 11.9438 21.9939 12.0574V19.1313Z" fill="#262626"/>
<path d="M20.2678 12.0574C20.2608 11.6848 20.3329 11.3149 20.4793 10.9722C20.6124 10.6671 20.8051 10.3916 21.0462 10.1621C21.2823 9.93645 21.5614 9.76088 21.867 9.6459C22.4936 9.40612 23.1866 9.40612 23.8132 9.6459C24.1185 9.76135 24.3976 9.93686 24.634 10.1621C24.8742 10.3923 25.0668 10.6676 25.2009 10.9722C25.3463 11.3152 25.4184 11.6849 25.4124 12.0574V19.1313C25.4184 19.5031 25.3463 19.8721 25.2009 20.2144C25.0665 20.5194 24.874 20.7954 24.634 21.0267C24.3975 21.2512 24.1184 21.426 23.8132 21.5407C23.1866 21.7805 22.4936 21.7805 21.867 21.5407C21.5615 21.4265 21.2823 21.2517 21.0462 21.0267C20.8058 20.7958 20.6131 20.5197 20.4793 20.2144C20.3329 19.8724 20.2608 19.5032 20.2678 19.1313V12.0574ZM21.9939 19.1313C21.9899 19.2449 22.0088 19.3581 22.0495 19.4643C22.0902 19.5704 22.1519 19.6672 22.2309 19.749C22.3947 19.9062 22.613 19.994 22.8401 19.994C23.0672 19.994 23.2855 19.9062 23.4493 19.749C23.5275 19.6667 23.5887 19.5697 23.6293 19.4637C23.67 19.3577 23.6893 19.2448 23.6862 19.1313V12.0574C23.6903 11.9438 23.6714 11.8306 23.6307 11.7245C23.59 11.6184 23.5283 11.5215 23.4493 11.4397C23.2855 11.2825 23.0672 11.1948 22.8401 11.1948C22.613 11.1948 22.3947 11.2825 22.2309 11.4397C22.1519 11.5215 22.0902 11.6184 22.0495 11.7245C22.0088 11.8306 21.9899 11.9438 21.9939 12.0574V19.1313Z" fill="black"/>
<path d="M32.3846 10.6424V9.39854C32.3835 8.25427 31.9302 7.15681 31.1235 6.34531C30.3167 5.53381 29.2219 5.07405 28.0777 5.06624V4.00854H7V25.797H31.9932V12.4701H28.0777V10.636L32.3846 10.6424ZM28.0777 6.33547C28.8806 6.34374 29.6482 6.6665 30.2158 7.23445C30.7833 7.80241 31.1056 8.57026 31.1133 9.37316H28.0777V6.33547ZM30.724 13.7393V24.5278H22.8294V22.3532C22.4185 22.5257 21.994 22.6637 21.5602 22.7657V24.5278H8.26923V13.7393H11.6813C11.7435 13.3095 11.839 12.8851 11.9669 12.4701H8.26923V5.27778H13.2086V10.0585C13.5792 9.56395 14.0051 9.11328 14.4779 8.71528V5.27778H26.8084V11.0464C27.2646 11.8887 27.5669 12.8057 27.7012 13.7541H30.724V13.7393Z" fill="#262626"/>
<path d="M32.3846 10.6424V9.39854C32.3835 8.25427 31.9302 7.15681 31.1235 6.34531C30.3167 5.53381 29.2219 5.07405 28.0777 5.06624V4.00854H7V25.797H31.9932V12.4701H28.0777V10.636L32.3846 10.6424ZM28.0777 6.33547C28.8806 6.34374 29.6482 6.6665 30.2158 7.23445C30.7833 7.80241 31.1056 8.57026 31.1133 9.37316H28.0777V6.33547ZM30.724 13.7393V24.5278H22.8294V22.3532C22.4185 22.5257 21.994 22.6637 21.5602 22.7657V24.5278H8.26923V13.7393H11.6813C11.7435 13.3095 11.839 12.8851 11.9669 12.4701H8.26923V5.27778H13.2086V10.0585C13.5792 9.56395 14.0051 9.11328 14.4779 8.71528V5.27778H26.8084V11.0464C27.2646 11.8887 27.5669 12.8057 27.7012 13.7541H30.724V13.7393Z" fill="black"/>
</g>
<defs>
<clipPath id="clip0_5308_31197">
<rect width="25.3846" height="22" fill="white" transform="translate(7 4)"/>
</clipPath>
</defs>
</svg>
