<?xml version="1.0" encoding="utf-8"?>
<!-- Generator: Adobe Illustrator 27.0.1, SVG Export Plug-In . SVG Version: 6.00 Build 0)  -->
<svg version="1.1" id="Layer_1" xmlns="http://www.w3.org/2000/svg" xmlns:xlink="http://www.w3.org/1999/xlink" x="0px" y="0px"
	 viewBox="0 0 11 9" style="enable-background:new 0 0 11 9;" xml:space="preserve">
<style type="text/css">
	.st0{fill-rule:evenodd;clip-rule:evenodd;fill:#F39A7B;}
	.st1{fill:#F39A7B;}
</style>
<g>
	<g>
		<path class="st0" d="M1.6,2.1C1.5,2.2,1.5,2.3,1.5,2.5c0,0.1,0,0.2,0.1,0.3l3.6,4.1C5.3,7,5.4,7,5.5,7c0.1,0,0.2,0,0.3-0.1
			l3.6-4.1c0.2-0.2,0.2-0.5,0-0.7C9.2,2,9,2,8.8,2.1L5.5,5.9L2.2,2.1C2,2,1.8,2,1.6,2.1z"/>
		<path class="st1" d="M2.3,2.1l3.2,3.7l3.2-3.7c0.2-0.2,0.5-0.2,0.7,0s0.2,0.6,0,0.8l-3.5,4c-0.2,0.2-0.5,0.2-0.7,0l-3.7-4
			c0-0.1-0.1-0.3-0.1-0.4c0-0.1,0.1-0.3,0.1-0.4C1.6,2,1.7,1.9,1.9,1.9l0,0C2,1.9,2.2,2,2.3,2.1z M5.7,6.8l3.6-4.1
			c0.1-0.1,0.1-0.4,0-0.5C9.2,2.1,9,2.1,8.9,2.2L5.5,6L2.1,2.2c0-0.1-0.1-0.1-0.2-0.1l0,0c-0.1,0-0.2,0-0.2,0.1
			C1.6,2.3,1.6,2.4,1.6,2.5c0,0.1,0,0.2,0.1,0.3l3.6,4.1C5.4,7,5.4,7,5.5,7S5.7,6.9,5.7,6.8z"/>
	</g>
</g>
</svg>
