<svg width="40" height="30" viewBox="0 0 40 30" fill="none" xmlns="http://www.w3.org/2000/svg">
<rect width="40" height="30" fill="none"/>
<g clip-path="url(#clip0_5308_31151)">
<path d="M27.9053 25.2246H13.1572V5.96021H27.9053V25.2246ZM14.3539 24.0279H26.7086V7.1569H14.3539V24.0279Z" fill="#262626"/>
<path d="M27.9053 25.2246H13.1572V5.96021H27.9053V25.2246ZM14.3539 24.0279H26.7086V7.1569H14.3539V24.0279Z" fill="black"/>
<path d="M9 25.9976V4L14.354 6.15405V25.136L9 25.9976ZM10.1967 5.7711V24.5927L13.1573 24.114V6.96301L10.1967 5.7711Z" fill="#262626"/>
<path d="M9 25.9976V4L14.354 6.15405V25.136L9 25.9976ZM10.1967 5.7711V24.5927L13.1573 24.114V6.96301L10.1967 5.7711Z" fill="black"/>
<path d="M32.0604 25.9976L26.7087 25.136V6.15405L32.0604 4V25.9976ZM27.9054 24.1164L30.8637 24.5951V5.7711L27.9054 6.9678V24.1164Z" fill="#262626"/>
<path d="M32.0604 25.9976L26.7087 25.136V6.15405L32.0604 4V25.9976ZM27.9054 24.1164L30.8637 24.5951V5.7711L27.9054 6.9678V24.1164Z" fill="black"/>
<path d="M21.1298 16.3954H19.9331V14.1264H20.5314C20.6377 14.1269 20.7417 14.0958 20.8302 14.0371C20.9187 13.9784 20.9878 13.8946 21.0287 13.7966C21.0696 13.6985 21.0804 13.5905 21.0598 13.4863C21.0392 13.3821 20.988 13.2864 20.9129 13.2112C20.8378 13.1361 20.7421 13.085 20.6378 13.0644C20.5336 13.0438 20.4256 13.0546 20.3276 13.0955C20.2295 13.1363 20.1458 13.2054 20.0871 13.294C20.0283 13.3825 19.9972 13.4865 19.9977 13.5927H18.801C18.8008 13.2764 18.8874 12.9661 19.0512 12.6955C19.215 12.4249 19.4499 12.2044 19.7302 12.058C20.0106 11.9115 20.3258 11.8447 20.6414 11.8648C20.9571 11.8849 21.2612 11.9912 21.5207 12.172C21.7803 12.3528 21.9852 12.6014 22.1134 12.8905C22.2416 13.1797 22.2881 13.4985 22.2478 13.8122C22.2075 14.126 22.0819 14.4226 21.8848 14.67C21.6877 14.9174 21.4266 15.1061 21.1298 15.2154V16.3954Z" fill="#262626"/>
<path d="M21.1298 16.3954H19.9331V14.1264H20.5314C20.6377 14.1269 20.7417 14.0958 20.8302 14.0371C20.9187 13.9784 20.9878 13.8946 21.0287 13.7966C21.0696 13.6985 21.0804 13.5905 21.0598 13.4863C21.0392 13.3821 20.988 13.2864 20.9129 13.2112C20.8378 13.1361 20.7421 13.085 20.6378 13.0644C20.5336 13.0438 20.4256 13.0546 20.3276 13.0955C20.2295 13.1363 20.1458 13.2054 20.0871 13.294C20.0283 13.3825 19.9972 13.4865 19.9977 13.5927H18.801C18.8008 13.2764 18.8874 12.9661 19.0512 12.6955C19.215 12.4249 19.4499 12.2044 19.7302 12.058C20.0106 11.9115 20.3258 11.8447 20.6414 11.8648C20.9571 11.8849 21.2612 11.9912 21.5207 12.172C21.7803 12.3528 21.9852 12.6014 22.1134 12.8905C22.2416 13.1797 22.2881 13.4985 22.2478 13.8122C22.2075 14.126 22.0819 14.4226 21.8848 14.67C21.6877 14.9174 21.4266 15.1061 21.1298 15.2154V16.3954Z" fill="black"/>
<path d="M25.1554 19.8945H15.8978C15.7172 19.8932 15.541 19.8388 15.3911 19.7379C15.2413 19.637 15.1245 19.4942 15.0554 19.3273C14.9733 19.1457 14.9455 18.9443 14.9752 18.7473C15.0049 18.5503 15.0909 18.3661 15.2229 18.2168C15.8989 17.4861 16.7187 16.9031 17.6308 16.5044C18.5429 16.1057 19.5276 15.8999 20.523 15.8999C21.5185 15.8999 22.5032 16.1057 23.4152 16.5044C24.3273 16.9031 25.1472 17.4861 25.8232 18.2168C25.9557 18.3658 26.0421 18.55 26.0718 18.7472C26.1015 18.9443 26.0734 19.1459 25.9907 19.3273C25.9223 19.4933 25.8067 19.6355 25.6582 19.7363C25.5097 19.8371 25.3349 19.8922 25.1554 19.8945ZM16.4339 18.6978H24.6289C23.5127 17.6683 22.0499 17.0966 20.5314 17.0966C19.0129 17.0966 17.5501 17.6683 16.4339 18.6978Z" fill="#262626"/>
<path d="M25.1554 19.8945H15.8978C15.7172 19.8932 15.541 19.8388 15.3911 19.7379C15.2413 19.637 15.1245 19.4942 15.0554 19.3273C14.9733 19.1457 14.9455 18.9443 14.9752 18.7473C15.0049 18.5503 15.0909 18.3661 15.2229 18.2168C15.8989 17.4861 16.7187 16.9031 17.6308 16.5044C18.5429 16.1057 19.5276 15.8999 20.523 15.8999C21.5185 15.8999 22.5032 16.1057 23.4152 16.5044C24.3273 16.9031 25.1472 17.4861 25.8232 18.2168C25.9557 18.3658 26.0421 18.55 26.0718 18.7472C26.1015 18.9443 26.0734 19.1459 25.9907 19.3273C25.9223 19.4933 25.8067 19.6355 25.6582 19.7363C25.5097 19.8371 25.3349 19.8922 25.1554 19.8945ZM16.4339 18.6978H24.6289C23.5127 17.6683 22.0499 17.0966 20.5314 17.0966C19.0129 17.0966 17.5501 17.6683 16.4339 18.6978Z" fill="black"/>
<path d="M27.2114 9.56226H13.8491V10.7589H27.2114V9.56226Z" fill="#262626"/>
<path d="M27.2114 9.56226H13.8491V10.7589H27.2114V9.56226Z" fill="black"/>
</g>
<defs>
<clipPath id="clip0_5308_31151">
<rect width="23.0603" height="22" fill="white" transform="translate(9 4)"/>
</clipPath>
</defs>
</svg>
