<svg width="40" height="30" viewBox="0 0 40 30" fill="none" xmlns="http://www.w3.org/2000/svg">
<g clip-path="url(#clip0_5308_31244)">
<path d="M19.5417 13.6527H18.4508V11.1981H18.0072V13.6527H16.9163V10.949C16.9172 10.7267 17.0061 10.5138 17.1635 10.3568C17.3208 10.1997 17.5339 10.1113 17.7563 10.1108H18.6999C18.8104 10.1108 18.9199 10.1327 19.0219 10.1752C19.124 10.2176 19.2166 10.2799 19.2945 10.3583C19.3724 10.4367 19.4341 10.5297 19.4759 10.632C19.5177 10.7344 19.5388 10.8439 19.5381 10.9545L19.5417 13.6527Z" fill="#231815"/>
<path d="M22.5727 13.6636H21.4818V11.2091H21.0382V13.6636H19.9473L19.9564 10.96C19.9573 10.7377 20.0462 10.5248 20.2036 10.3677C20.3609 10.2107 20.574 10.1223 20.7964 10.1218H21.74C21.9629 10.1228 22.1764 10.2122 22.3335 10.3703C22.4907 10.5285 22.5787 10.7425 22.5782 10.9655L22.5727 13.6636Z" fill="#231815"/>
<path d="M20.88 21.0437L18.5636 21.0346C18.3294 21.0331 18.1053 20.939 17.9404 20.7727C17.7755 20.6064 17.6831 20.3815 17.6836 20.1473V19.6019C16.7491 19.1164 16.1291 18.3291 15.9673 17.44H15.9272V16.9255L15.9418 12.7146L23.5563 12.7419L23.54 17.4964H23.4909C23.3091 18.3746 22.6945 19.1437 21.7673 19.6182V20.1728C21.7644 20.4057 21.6694 20.628 21.5032 20.7912C21.337 20.9544 21.1129 21.0451 20.88 21.0437ZM18.7709 19.9528H20.6727V18.8891L21.0127 18.751C21.8872 18.4 22.4345 17.7291 22.4454 17C22.4454 16.9819 22.4454 16.9637 22.4454 16.9473V16.4019H22.4563L22.4654 13.8237L17.0327 13.8055L17.0236 16.411H17.0345L17.0254 16.9346C17.0254 16.951 17.0254 16.9673 17.0254 16.9837C17.0254 17.711 17.5709 18.3873 18.4454 18.7455L18.7836 18.8855L18.7709 19.9528Z" fill="#231815"/>
<path d="M30.4018 25.96L21.7927 25.9345L21.7964 24.8436L29.3145 24.8673L29.3582 12.1036L19.7727 5.52727L15.0764 8.7L15.0891 5.10545L11.8891 5.09455L11.8691 10.8673L10.14 12.0364L10.0945 24.8L19.16 24.8345L19.1764 20.06L20.2673 20.0636L20.2455 25.9255L19.7 25.9273L9 25.8855L9.05091 11.4564L10.78 10.2873L10.8036 4L16.1836 4.01818L16.1745 6.64182L19.7764 4.20727L30.4527 11.5309L30.4018 25.96Z" fill="#231815"/>
</g>
<defs>
<clipPath id="clip0_5308_31244">
<rect width="21.4545" height="22" fill="white" transform="translate(9 4)"/>
</clipPath>
</defs>
</svg>
