<svg width="40" height="30" viewBox="0 0 40 30" fill="none" xmlns="http://www.w3.org/2000/svg">
<path d="M25.0713 11.4286H23.5713V12.8571H25.0713V11.4286ZM29.357 11.4286H27.857V12.8571H29.357V11.4286ZM27.5713 11.4286H25.4284C24.857 11.4286 24.357 10.9286 24.357 10.3571V8.57143H28.6427V10.3571C28.6427 10.9286 28.1427 11.4286 27.5713 11.4286ZM31.4998 8.57143H28.6427V9.28571H31.4998V8.57143ZM22.9284 5H12.9284V6.42857H22.9284V5ZM12.2141 10H7.21411V11.4286H12.2141V10ZM12.2141 13.5714H7.21411V15H12.2141V13.5714ZM34.357 22.8571H15.7855V24.2857H34.357V22.8571Z" fill="#424242"/>
<path d="M34.357 12.1426H20.0713V13.5711H34.357V12.1426Z" fill="#424242"/>
<path d="M34.357 12.1429H32.9285V24.2858H34.357V12.1429ZM21.4999 5.71436H20.0713V12.8572H21.4999V5.71436ZM11.4285 24.3572L10.7856 11.4286H8.4999L7.85704 24.3572L6.42847 24.2144L7.21418 10.0001H12.0713L12.857 24.2144L11.4285 24.3572ZM15.7856 5.71436H17.2142V24.2858H15.7856V5.71436Z" fill="#262626"/>
<path d="M34.357 12.1429H32.9285V24.2858H34.357V12.1429ZM21.4999 5.71436H20.0713V12.8572H21.4999V5.71436ZM11.4285 24.3572L10.7856 11.4286H8.4999L7.85704 24.3572L6.42847 24.2144L7.21418 10.0001H12.0713L12.857 24.2144L11.4285 24.3572ZM15.7856 5.71436H17.2142V24.2858H15.7856V5.71436Z" fill="black"/>
</svg>
