<svg width="40" height="30" viewBox="0 0 40 30" fill="none" xmlns="http://www.w3.org/2000/svg">
<g clip-path="url(#clip0_5308_31060)">
<path d="M32.1368 25.9999H7V4.00757H32.1368V25.9999ZM8.15324 24.8466H30.9836V5.16081H8.15324V24.8466Z" fill="#262626"/>
<path d="M32.1368 25.9999H7V4.00757H32.1368V25.9999ZM8.15324 24.8466H30.9836V5.16081H8.15324V24.8466Z" fill="black"/>
<path d="M32.1368 21.1526H7V22.3058H32.1368V21.1526Z" fill="#262626"/>
<path d="M32.1368 21.1526H7V22.3058H32.1368V21.1526Z" fill="black"/>
<path d="M19.5683 11.7978C19.0361 11.7978 18.5159 11.64 18.0734 11.3443C17.6308 11.0486 17.2859 10.6284 17.0823 10.1367C16.8786 9.64498 16.8253 9.10393 16.9291 8.58195C17.033 8.05996 17.2893 7.58049 17.6656 7.20416C18.0419 6.82783 18.5214 6.57155 19.0434 6.46772C19.5654 6.36389 20.1064 6.41718 20.5981 6.62085C21.0898 6.82451 21.5101 7.16942 21.8057 7.61193C22.1014 8.05445 22.2592 8.5747 22.2592 9.10691C22.2592 9.82058 21.9757 10.505 21.4711 11.0097C20.9664 11.5143 20.282 11.7978 19.5683 11.7978ZM19.5683 7.56926C19.2642 7.56926 18.9669 7.65944 18.7141 7.8284C18.4612 7.99736 18.2641 8.23751 18.1477 8.51848C18.0314 8.79945 18.0009 9.10862 18.0602 9.4069C18.1196 9.70517 18.266 9.97916 18.4811 10.1942C18.6961 10.4092 18.9701 10.5557 19.2684 10.615C19.5666 10.6744 19.8758 10.6439 20.1568 10.5275C20.4377 10.4111 20.6779 10.2141 20.8469 9.96119C21.0158 9.70832 21.106 9.41103 21.106 9.10691C21.1065 8.90466 21.0671 8.7043 20.9901 8.5173C20.913 8.3303 20.7998 8.16033 20.657 8.01714C20.5142 7.87395 20.3445 7.76034 20.1577 7.68283C19.9709 7.60531 19.7706 7.56542 19.5683 7.56542V7.56926Z" fill="#262626"/>
<path d="M19.5683 11.7978C19.0361 11.7978 18.5159 11.64 18.0734 11.3443C17.6308 11.0486 17.2859 10.6284 17.0823 10.1367C16.8786 9.64498 16.8253 9.10393 16.9291 8.58195C17.033 8.05996 17.2893 7.58049 17.6656 7.20416C18.0419 6.82783 18.5214 6.57155 19.0434 6.46772C19.5654 6.36389 20.1064 6.41718 20.5981 6.62085C21.0898 6.82451 21.5101 7.16942 21.8057 7.61193C22.1014 8.05445 22.2592 8.5747 22.2592 9.10691C22.2592 9.82058 21.9757 10.505 21.4711 11.0097C20.9664 11.5143 20.282 11.7978 19.5683 11.7978ZM19.5683 7.56926C19.2642 7.56926 18.9669 7.65944 18.7141 7.8284C18.4612 7.99736 18.2641 8.23751 18.1477 8.51848C18.0314 8.79945 18.0009 9.10862 18.0602 9.4069C18.1196 9.70517 18.266 9.97916 18.4811 10.1942C18.6961 10.4092 18.9701 10.5557 19.2684 10.615C19.5666 10.6744 19.8758 10.6439 20.1568 10.5275C20.4377 10.4111 20.6779 10.2141 20.8469 9.96119C21.0158 9.70832 21.106 9.41103 21.106 9.10691C21.1065 8.90466 21.0671 8.7043 20.9901 8.5173C20.913 8.3303 20.7998 8.16033 20.657 8.01714C20.5142 7.87395 20.3445 7.76034 20.1577 7.68283C19.9709 7.60531 19.7706 7.56542 19.5683 7.56542V7.56926Z" fill="black"/>
<path d="M17.2281 5.94869L16.4126 6.76416L18.4866 8.83816L19.3021 8.0227L17.2281 5.94869Z" fill="#262626"/>
<path d="M17.2281 5.94869L16.4126 6.76416L18.4866 8.83816L19.3021 8.0227L17.2281 5.94869Z" fill="black"/>
<path d="M20.6492 9.37057L19.8337 10.186L21.9077 12.26L22.7232 11.4446L20.6492 9.37057Z" fill="#262626"/>
<path d="M20.6492 9.37057L19.8337 10.186L21.9077 12.26L22.7232 11.4446L20.6492 9.37057Z" fill="black"/>
<path d="M21.9085 5.94993L19.8345 8.02393L20.6499 8.83939L22.7239 6.76539L21.9085 5.94993Z" fill="#262626"/>
<path d="M21.9085 5.94993L19.8345 8.02393L20.6499 8.83939L22.7239 6.76539L21.9085 5.94993Z" fill="black"/>
<path d="M18.4854 9.37253L16.4114 11.4465L17.2268 12.262L19.3008 10.188L18.4854 9.37253Z" fill="#262626"/>
<path d="M18.4854 9.37253L16.4114 11.4465L17.2268 12.262L19.3008 10.188L18.4854 9.37253Z" fill="black"/>
<path d="M13.6888 19.8666C12.9996 19.8666 12.3259 19.6623 11.7528 19.2794C11.1798 18.8965 10.7331 18.3522 10.4694 17.7155C10.2056 17.0787 10.1366 16.3781 10.2711 15.7021C10.4055 15.0261 10.7374 14.4052 11.2248 13.9179C11.7121 13.4305 12.333 13.0986 13.009 12.9642C13.6849 12.8297 14.3856 12.8987 15.0224 13.1625C15.6591 13.4262 16.2033 13.8729 16.5862 14.4459C16.9691 15.019 17.1735 15.6927 17.1735 16.3819C17.1725 17.3058 16.805 18.1916 16.1517 18.8449C15.4985 19.4982 14.6127 19.8656 13.6888 19.8666ZM13.6888 14.0505C13.2277 14.0505 12.7769 14.1872 12.3935 14.4434C12.0101 14.6996 11.7113 15.0637 11.5348 15.4897C11.3584 15.9157 11.3122 16.3845 11.4021 16.8368C11.4921 17.289 11.7142 17.7045 12.0402 18.0305C12.3663 18.3566 12.7817 18.5786 13.234 18.6686C13.6862 18.7586 14.155 18.7124 14.581 18.5359C15.007 18.3595 15.3712 18.0606 15.6274 17.6772C15.8835 17.2938 16.0203 16.843 16.0203 16.3819C16.0198 15.7637 15.774 15.171 15.3368 14.7339C14.8997 14.2968 14.307 14.051 13.6888 14.0505Z" fill="#262626"/>
<path d="M13.6888 19.8666C12.9996 19.8666 12.3259 19.6623 11.7528 19.2794C11.1798 18.8965 10.7331 18.3522 10.4694 17.7155C10.2056 17.0787 10.1366 16.3781 10.2711 15.7021C10.4055 15.0261 10.7374 14.4052 11.2248 13.9179C11.7121 13.4305 12.333 13.0986 13.009 12.9642C13.6849 12.8297 14.3856 12.8987 15.0224 13.1625C15.6591 13.4262 16.2033 13.8729 16.5862 14.4459C16.9691 15.019 17.1735 15.6927 17.1735 16.3819C17.1725 17.3058 16.805 18.1916 16.1517 18.8449C15.4985 19.4982 14.6127 19.8656 13.6888 19.8666ZM13.6888 14.0505C13.2277 14.0505 12.7769 14.1872 12.3935 14.4434C12.0101 14.6996 11.7113 15.0637 11.5348 15.4897C11.3584 15.9157 11.3122 16.3845 11.4021 16.8368C11.4921 17.289 11.7142 17.7045 12.0402 18.0305C12.3663 18.3566 12.7817 18.5786 13.234 18.6686C13.6862 18.7586 14.155 18.7124 14.581 18.5359C15.007 18.3595 15.3712 18.0606 15.6274 17.6772C15.8835 17.2938 16.0203 16.843 16.0203 16.3819C16.0198 15.7637 15.774 15.171 15.3368 14.7339C14.8997 14.2968 14.307 14.051 13.6888 14.0505Z" fill="black"/>
<path d="M10.4734 12.3498L9.65796 13.1653L12.2036 15.7109L13.019 14.8954L10.4734 12.3498Z" fill="#262626"/>
<path d="M10.4734 12.3498L9.65796 13.1653L12.2036 15.7109L13.019 14.8954L10.4734 12.3498Z" fill="black"/>
<path d="M15.1761 17.0532L14.3606 17.8687L16.9062 20.4143L17.7217 19.5988L15.1761 17.0532Z" fill="#262626"/>
<path d="M15.1761 17.0532L14.3606 17.8687L16.9062 20.4143L17.7217 19.5988L15.1761 17.0532Z" fill="black"/>
<path d="M16.9062 12.3494L14.3606 14.895L15.1761 15.7105L17.7217 13.1649L16.9062 12.3494Z" fill="#262626"/>
<path d="M16.9062 12.3494L14.3606 14.895L15.1761 15.7105L17.7217 13.1649L16.9062 12.3494Z" fill="black"/>
<path d="M12.2023 17.0562L9.65674 19.6018L10.4722 20.4173L13.0178 17.8717L12.2023 17.0562Z" fill="#262626"/>
<path d="M12.2023 17.0562L9.65674 19.6018L10.4722 20.4173L13.0178 17.8717L12.2023 17.0562Z" fill="black"/>
<path d="M25.4461 19.8666C24.7569 19.8666 24.0832 19.6623 23.5101 19.2794C22.9371 18.8965 22.4904 18.3522 22.2267 17.7155C21.9629 17.0787 21.8939 16.3781 22.0284 15.7021C22.1628 15.0261 22.4947 14.4052 22.9821 13.9179C23.4694 13.4305 24.0903 13.0986 24.7663 12.9642C25.4423 12.8297 26.1429 12.8987 26.7797 13.1625C27.4164 13.4262 27.9607 13.8729 28.3436 14.4459C28.7265 15.019 28.9309 15.6927 28.9309 16.3819C28.9298 17.3058 28.5624 18.1916 27.9091 18.8449C27.2558 19.4982 26.37 19.8656 25.4461 19.8666ZM25.4461 14.0505C24.985 14.0505 24.5343 14.1872 24.1508 14.4434C23.7674 14.6996 23.4686 15.0637 23.2921 15.4897C23.1157 15.9157 23.0695 16.3845 23.1595 16.8368C23.2494 17.289 23.4715 17.7045 23.7975 18.0305C24.1236 18.3566 24.539 18.5786 24.9913 18.6686C25.4436 18.7586 25.9123 18.7124 26.3384 18.5359C26.7644 18.3595 27.1285 18.0606 27.3847 17.6772C27.6409 17.2938 27.7776 16.843 27.7776 16.3819C27.7771 15.7637 27.5313 15.171 27.0942 14.7339C26.6571 14.2968 26.0643 14.051 25.4461 14.0505Z" fill="#262626"/>
<path d="M25.4461 19.8666C24.7569 19.8666 24.0832 19.6623 23.5101 19.2794C22.9371 18.8965 22.4904 18.3522 22.2267 17.7155C21.9629 17.0787 21.8939 16.3781 22.0284 15.7021C22.1628 15.0261 22.4947 14.4052 22.9821 13.9179C23.4694 13.4305 24.0903 13.0986 24.7663 12.9642C25.4423 12.8297 26.1429 12.8987 26.7797 13.1625C27.4164 13.4262 27.9607 13.8729 28.3436 14.4459C28.7265 15.019 28.9309 15.6927 28.9309 16.3819C28.9298 17.3058 28.5624 18.1916 27.9091 18.8449C27.2558 19.4982 26.37 19.8656 25.4461 19.8666ZM25.4461 14.0505C24.985 14.0505 24.5343 14.1872 24.1508 14.4434C23.7674 14.6996 23.4686 15.0637 23.2921 15.4897C23.1157 15.9157 23.0695 16.3845 23.1595 16.8368C23.2494 17.289 23.4715 17.7045 23.7975 18.0305C24.1236 18.3566 24.539 18.5786 24.9913 18.6686C25.4436 18.7586 25.9123 18.7124 26.3384 18.5359C26.7644 18.3595 27.1285 18.0606 27.3847 17.6772C27.6409 17.2938 27.7776 16.843 27.7776 16.3819C27.7771 15.7637 27.5313 15.171 27.0942 14.7339C26.6571 14.2968 26.0643 14.051 25.4461 14.0505Z" fill="black"/>
<path d="M22.2295 12.3491L21.4141 13.1646L23.9597 15.7102L24.7751 14.8947L22.2295 12.3491Z" fill="#262626"/>
<path d="M22.2295 12.3491L21.4141 13.1646L23.9597 15.7102L24.7751 14.8947L22.2295 12.3491Z" fill="black"/>
<path d="M26.9327 17.0539L26.1172 17.8694L28.6628 20.415L29.4783 19.5995L26.9327 17.0539Z" fill="#262626"/>
<path d="M26.9327 17.0539L26.1172 17.8694L28.6628 20.415L29.4783 19.5995L26.9327 17.0539Z" fill="black"/>
<path d="M28.6623 12.3487L26.1167 14.8943L26.9322 15.7098L29.4778 13.1641L28.6623 12.3487Z" fill="#262626"/>
<path d="M28.6623 12.3487L26.1167 14.8943L26.9322 15.7098L29.4778 13.1641L28.6623 12.3487Z" fill="black"/>
<path d="M23.9589 17.0589L21.4133 19.6045L22.2288 20.42L24.7744 17.8743L23.9589 17.0589Z" fill="#262626"/>
<path d="M23.9589 17.0589L21.4133 19.6045L22.2288 20.42L24.7744 17.8743L23.9589 17.0589Z" fill="black"/>
<path d="M13.0832 22.9497H10.302V24.1029H13.0832V22.9497Z" fill="#262626"/>
<path d="M13.0832 22.9497H10.302V24.1029H13.0832V22.9497Z" fill="black"/>
<path d="M18.3345 22.9497H15.5532V24.1029H18.3345V22.9497Z" fill="#262626"/>
<path d="M18.3345 22.9497H15.5532V24.1029H18.3345V22.9497Z" fill="black"/>
<path d="M23.5837 22.9497H20.8025V24.1029H23.5837V22.9497Z" fill="#262626"/>
<path d="M23.5837 22.9497H20.8025V24.1029H23.5837V22.9497Z" fill="black"/>
<path d="M28.8347 22.9497H26.0535V24.1029H28.8347V22.9497Z" fill="#262626"/>
<path d="M28.8347 22.9497H26.0535V24.1029H28.8347V22.9497Z" fill="black"/>
</g>
<defs>
<clipPath id="clip0_5308_31060">
<rect width="25.1368" height="22" fill="white" transform="translate(7 4)"/>
</clipPath>
</defs>
</svg>
