<svg width="40" height="30" viewBox="0 0 40 30" fill="none" xmlns="http://www.w3.org/2000/svg">
<rect width="40" height="30" fill="none"/>
<g clip-path="url(#clip0_5342_31714)">
<path d="M27.8865 25.2061H13.1513V5.9585H27.8865V25.2061ZM14.347 24.0105H26.6909V7.15415H14.347V24.0105Z" fill="#231815"/>
<path d="M9 25.9785V4L14.347 6.15217V25.1176L9 25.9785ZM10.1957 5.76956V24.5772L13.1513 24.0989V6.96043L10.1957 5.76956Z" fill="#231815"/>
<path d="M32.0402 25.9785L26.6909 25.1176V6.15217L32.0402 4V25.9785ZM27.8865 24.0989L30.8446 24.5772V5.76956L27.8865 6.96522V24.0989Z" fill="#231815"/>
<path d="M18.6991 16.4516L18.4361 15.916C18.1959 15.4013 17.9961 14.8689 17.8383 14.3233L17.6733 13.747L18.8235 13.4194L18.9885 13.9933C19.1268 14.4702 19.3003 14.9362 19.5074 15.3875L19.7728 15.9231L18.6991 16.4516Z" fill="#231815"/>
<path d="M19.9211 15.9397L19.713 15.3777C19.5031 14.8148 19.3298 14.2389 19.1941 13.6536L19.0722 13.0677L20.2415 12.8286L20.3659 13.4145C20.49 13.9436 20.6498 14.4637 20.8441 14.9712L21.0522 15.5308L19.9211 15.9397Z" fill="#231815"/>
<path d="M18.1635 19.0653C17.1065 19.0653 16.1739 19.0103 15.2198 18.2714C14.7224 17.8864 14.5502 17.169 14.555 16.6286C14.555 15.0933 16.0209 14.8303 16.6402 14.7155C17.1654 14.652 17.6726 14.4846 18.1324 14.2229C19.0506 13.6227 20.7891 13.2664 20.9828 13.2138C21.1348 13.1785 21.2914 13.168 21.4467 13.1827C21.8086 13.2304 22.1387 13.4143 22.3698 13.6968C22.5611 13.9001 22.7117 14.0603 23.465 14.0388C24.067 14.0462 24.6526 13.8423 25.1198 13.4625C25.1978 13.4082 25.2876 13.3733 25.3817 13.3607C25.4759 13.3481 25.5717 13.3581 25.6612 13.3899C25.7508 13.4217 25.8314 13.4743 25.8965 13.5435C25.9616 13.6127 26.0093 13.6964 26.0356 13.7877L26.3035 14.7083C26.8917 16.7433 26.4111 18.4651 25.8252 18.929C25.7187 19.0144 25.5863 19.0608 25.4498 19.0605H18.1635V19.0653ZM21.3057 14.3736L21.2243 14.3879C20.4137 14.5529 19.3113 14.8877 18.7876 15.2249C18.1958 15.579 17.5371 15.807 16.853 15.8944C16.0017 16.0499 15.753 16.2149 15.7506 16.6381C15.7342 16.8835 15.8054 17.1267 15.9515 17.3244C16.6689 17.8768 17.3696 17.872 18.4385 17.8673H25.1604C25.3254 17.4918 25.5622 16.4516 25.1604 15.0431L25.1102 14.871C24.61 15.113 24.0613 15.2381 23.5056 15.2368C22.31 15.2703 21.8652 14.8997 21.5065 14.5194C21.3678 14.3807 21.3607 14.3783 21.3057 14.3736Z" fill="#231815"/>
<path d="M16.382 18.7183L16.3676 18.1205C16.3558 17.3361 16.2863 16.5536 16.1596 15.7794L16.0496 15.1935L17.2213 14.9688L17.3337 15.5546C17.4785 16.3929 17.5585 17.2412 17.5728 18.0918L17.5872 18.6896L16.382 18.7183Z" fill="#231815"/>
<path d="M27.6737 9.55762H13.1274V10.7533H27.6737V9.55762Z" fill="#231815"/>
<path d="M27.6737 20.5073H13.1274V21.703H27.6737V20.5073Z" fill="#231815"/>
</g>
<defs>
<clipPath id="clip0_5342_31714">
<rect width="23.1957" height="22" fill="white" transform="translate(9 4)"/>
</clipPath>
</defs>
</svg>
