<svg width="40" height="30" viewBox="0 0 40 30" fill="none" xmlns="http://www.w3.org/2000/svg">
<rect width="40" height="30" fill="none"/>
<g clip-path="url(#clip0_5308_30982)">
<path d="M28.6719 9.94738C28.4446 9.74525 28.1161 9.77045 27.914 9.99795L26.752 11.3115H25.5646C25.514 11.7158 25.3373 12.0946 25.0594 12.3726H26.272L23.8214 20.3557C23.2908 20.103 22.7098 19.8757 22.154 19.6483L21.9771 20.6588V20.7093C22.7096 21.0125 23.493 21.3661 24.3265 21.7452C25.3118 22.1998 25.5139 23.1853 25.3623 23.8672C25.2108 24.524 24.6802 25.3073 23.6445 25.3073H16.3687C14.6255 25.3073 13.1856 24.019 13.0845 22.3515C13.0339 21.4672 13.3372 20.6337 13.9434 19.9768C14.398 19.4967 14.9792 19.1683 15.6108 19.0421C15.8129 18.9915 16.0402 18.9663 16.2676 18.9663C16.3939 18.9663 16.5203 18.9663 16.6718 18.9915C17.0255 19.0167 17.4804 19.1178 17.9856 19.2442L18.1625 18.2084C17.5561 18.0568 17.0257 17.9557 16.5709 17.9053L16.4699 16.6421L17.4552 16.819C17.7331 16.8696 17.9858 16.7181 18.0615 16.4402V16.3896C18.1121 16.1117 17.9352 15.8338 17.6321 15.7832L14.7015 15.2526C14.4236 15.202 14.1457 15.379 14.0951 15.6821C14.0446 15.96 14.2215 16.2378 14.5246 16.2884L15.3835 16.44L15.5098 17.9558C14.6255 18.1074 13.792 18.5622 13.1605 19.219C12.3519 20.0779 11.9479 21.1895 12.0237 22.3769C12.1246 24.1707 13.4132 25.6611 15.131 26.1411V26.4443C15.131 26.7474 15.3583 26.9749 15.6616 26.9749H16.0405C16.3436 26.9749 16.5711 26.7475 16.5711 26.4443V26.2927H22.4069V26.4443C22.4069 26.7474 22.6342 26.9749 22.9375 26.9749H23.3164C23.6195 26.9749 23.847 26.7475 23.847 26.4443V26.2927C25.0849 26.1917 26.0954 25.3074 26.3733 24.0443C26.626 22.9075 26.1964 21.4422 24.7817 20.76L27.4344 12.0948L28.6975 10.6801C28.8995 10.4778 28.8741 10.1493 28.672 9.94718L28.6719 9.94738Z" fill="#262626"/>
<path d="M28.6719 9.94738C28.4446 9.74525 28.1161 9.77045 27.914 9.99795L26.752 11.3115H25.5646C25.514 11.7158 25.3373 12.0946 25.0594 12.3726H26.272L23.8214 20.3557C23.2908 20.103 22.7098 19.8757 22.154 19.6483L21.9771 20.6588V20.7093C22.7096 21.0125 23.493 21.3661 24.3265 21.7452C25.3118 22.1998 25.5139 23.1853 25.3623 23.8672C25.2108 24.524 24.6802 25.3073 23.6445 25.3073H16.3687C14.6255 25.3073 13.1856 24.019 13.0845 22.3515C13.0339 21.4672 13.3372 20.6337 13.9434 19.9768C14.398 19.4967 14.9792 19.1683 15.6108 19.0421C15.8129 18.9915 16.0402 18.9663 16.2676 18.9663C16.3939 18.9663 16.5203 18.9663 16.6718 18.9915C17.0255 19.0167 17.4804 19.1178 17.9856 19.2442L18.1625 18.2084C17.5561 18.0568 17.0257 17.9557 16.5709 17.9053L16.4699 16.6421L17.4552 16.819C17.7331 16.8696 17.9858 16.7181 18.0615 16.4402V16.3896C18.1121 16.1117 17.9352 15.8338 17.6321 15.7832L14.7015 15.2526C14.4236 15.202 14.1457 15.379 14.0951 15.6821C14.0446 15.96 14.2215 16.2378 14.5246 16.2884L15.3835 16.44L15.5098 17.9558C14.6255 18.1074 13.792 18.5622 13.1605 19.219C12.3519 20.0779 11.9479 21.1895 12.0237 22.3769C12.1246 24.1707 13.4132 25.6611 15.131 26.1411V26.4443C15.131 26.7474 15.3583 26.9749 15.6616 26.9749H16.0405C16.3436 26.9749 16.5711 26.7475 16.5711 26.4443V26.2927H22.4069V26.4443C22.4069 26.7474 22.6342 26.9749 22.9375 26.9749H23.3164C23.6195 26.9749 23.847 26.7475 23.847 26.4443V26.2927C25.0849 26.1917 26.0954 25.3074 26.3733 24.0443C26.626 22.9075 26.1964 21.4422 24.7817 20.76L27.4344 12.0948L28.6975 10.6801C28.8995 10.4778 28.8741 10.1493 28.672 9.94718L28.6719 9.94738Z" fill="black"/>
<path d="M15.788 14.6463L19.249 15.2779C19.4763 15.3284 19.6278 15.5306 19.5774 15.7579L18.7943 20.0526C18.6934 20.6589 19.0974 21.2652 19.7038 21.3663C20.3102 21.4673 20.9164 21.0632 21.0175 20.4568L21.9776 15.1011C22.1291 14.2168 21.5481 13.3579 20.6638 13.2063L18.6933 12.8526L19.628 10.6042L20.8912 11.5137C21.0175 11.6147 21.1439 11.6652 21.2954 11.6906H21.346L23.4428 11.9685C23.9986 12.0443 24.5039 11.6654 24.5796 11.1096C24.6554 10.5538 24.2512 10.0486 23.7207 9.97283L21.8766 9.72012C21.8766 9.72012 19.9818 8.25486 19.7291 8.15385C19.4512 8.0275 18.3144 7.54749 18.3144 7.54749C17.9102 7.37056 17.4807 7.37056 17.0765 7.54749C16.6722 7.72442 16.3691 8.02754 16.1922 8.43179L14.5502 12.4486C14.3732 12.9032 14.3986 13.3833 14.6259 13.8127C14.9037 14.2674 15.3079 14.5453 15.788 14.6463L15.788 14.6463Z" fill="#262626"/>
<path d="M15.788 14.6463L19.249 15.2779C19.4763 15.3284 19.6278 15.5306 19.5774 15.7579L18.7943 20.0526C18.6934 20.6589 19.0974 21.2652 19.7038 21.3663C20.3102 21.4673 20.9164 21.0632 21.0175 20.4568L21.9776 15.1011C22.1291 14.2168 21.5481 13.3579 20.6638 13.2063L18.6933 12.8526L19.628 10.6042L20.8912 11.5137C21.0175 11.6147 21.1439 11.6652 21.2954 11.6906H21.346L23.4428 11.9685C23.9986 12.0443 24.5039 11.6654 24.5796 11.1096C24.6554 10.5538 24.2512 10.0486 23.7207 9.97283L21.8766 9.72012C21.8766 9.72012 19.9818 8.25486 19.7291 8.15385C19.4512 8.0275 18.3144 7.54749 18.3144 7.54749C17.9102 7.37056 17.4807 7.37056 17.0765 7.54749C16.6722 7.72442 16.3691 8.02754 16.1922 8.43179L14.5502 12.4486C14.3732 12.9032 14.3986 13.3833 14.6259 13.8127C14.9037 14.2674 15.3079 14.5453 15.788 14.6463L15.788 14.6463Z" fill="black"/>
<path d="M19.1224 7.29479C20.2846 7.64847 21.4972 6.96632 21.8509 5.82953C22.2045 4.64216 21.5477 3.42957 20.3856 3.1011C19.2236 2.74743 18.0108 3.40438 17.6572 4.56637C17.3035 5.72856 17.9856 6.94115 19.1224 7.29479Z" fill="#262626"/>
<path d="M19.1224 7.29479C20.2846 7.64847 21.4972 6.96632 21.8509 5.82953C22.2045 4.64216 21.5477 3.42957 20.3856 3.1011C19.2236 2.74743 18.0108 3.40438 17.6572 4.56637C17.3035 5.72856 17.9856 6.94115 19.1224 7.29479Z" fill="black"/>
<path d="M17.5058 21.7706C17.3543 21.2148 16.849 20.8105 16.2679 20.8105C15.5605 20.8105 14.9795 21.3916 14.9795 22.0989C14.9795 22.8063 15.5605 23.3873 16.2679 23.3873C16.7985 23.3873 17.2783 23.0588 17.4552 22.5788L19.931 22.7557C20.1079 22.7809 20.2594 22.6799 20.3352 22.5284C20.3604 22.4778 20.3858 22.4274 20.3858 22.3768C20.411 22.1495 20.2342 21.9474 20.0069 21.9222L17.5058 21.7706Z" fill="#262626"/>
<path d="M17.5058 21.7706C17.3543 21.2148 16.849 20.8105 16.2679 20.8105C15.5605 20.8105 14.9795 21.3916 14.9795 22.0989C14.9795 22.8063 15.5605 23.3873 16.2679 23.3873C16.7985 23.3873 17.2783 23.0588 17.4552 22.5788L19.931 22.7557C20.1079 22.7809 20.2594 22.6799 20.3352 22.5284C20.3604 22.4778 20.3858 22.4274 20.3858 22.3768C20.411 22.1495 20.2342 21.9474 20.0069 21.9222L17.5058 21.7706Z" fill="black"/>
</g>
<defs>
<clipPath id="clip0_5308_30982">
<rect width="16.8722" height="24" fill="white" transform="translate(12 3)"/>
</clipPath>
</defs>
</svg>
