<svg width="40" height="30" viewBox="0 0 40 30" fill="none" xmlns="http://www.w3.org/2000/svg">
<g clip-path="url(#clip0_5308_31170)">
<path d="M27.5839 4H11.5193V5.12073H27.5839V4Z" fill="#262626"/>
<path d="M27.5839 4H11.5193V5.12073H27.5839V4Z" fill="black"/>
<path d="M30.1034 16.5611H9V14.1313H30.1034V16.5611ZM10.1207 15.4404H28.9827V15.2521H10.1207V15.4404Z" fill="#262626"/>
<path d="M30.1034 16.5611H9V14.1313H30.1034V16.5611ZM10.1207 15.4404H28.9827V15.2521H10.1207V15.4404Z" fill="black"/>
<path d="M30.1034 26.0001H9V23.5703H30.1034V26.0001ZM10.1207 24.8793H28.9827V24.691H10.1207V24.8793Z" fill="#262626"/>
<path d="M30.1034 26.0001H9V23.5703H30.1034V26.0001ZM10.1207 24.8793H28.9827V24.691H10.1207V24.8793Z" fill="black"/>
<path d="M27.5816 14.6917H26.4609V6.92054H12.64V14.6917H11.5193V5.7998H27.5816V14.6917Z" fill="#262626"/>
<path d="M27.5816 14.6917H26.4609V6.92054H12.64V14.6917H11.5193V5.7998H27.5816V14.6917Z" fill="black"/>
<path d="M20.111 7.81055H18.9902V14.5484H20.111V7.81055Z" fill="#262626"/>
<path d="M20.111 7.81055H18.9902V14.5484H20.111V7.81055Z" fill="black"/>
<path d="M10.4391 15.9985H9.31836V23.9894H10.4391V15.9985Z" fill="#262626"/>
<path d="M10.4391 15.9985H9.31836V23.9894H10.4391V15.9985Z" fill="black"/>
<path d="M14.3077 15.9985H13.187V23.9894H14.3077V15.9985Z" fill="#262626"/>
<path d="M14.3077 15.9985H13.187V23.9894H14.3077V15.9985Z" fill="black"/>
<path d="M18.1766 15.9985H17.0559V23.9894H18.1766V15.9985Z" fill="#262626"/>
<path d="M18.1766 15.9985H17.0559V23.9894H18.1766V15.9985Z" fill="black"/>
<path d="M22.0453 15.9985H20.9246V23.9894H22.0453V15.9985Z" fill="#262626"/>
<path d="M22.0453 15.9985H20.9246V23.9894H22.0453V15.9985Z" fill="black"/>
<path d="M29.785 15.9985H28.6643V23.9894H29.785V15.9985Z" fill="#262626"/>
<path d="M29.785 15.9985H28.6643V23.9894H29.785V15.9985Z" fill="black"/>
<path d="M25.9142 15.9985H24.7935V23.9894H25.9142V15.9985Z" fill="#262626"/>
<path d="M25.9142 15.9985H24.7935V23.9894H25.9142V15.9985Z" fill="black"/>
<path d="M15.8134 7.61414L14.811 8.94971L15.7074 9.62246L16.7098 8.2869L15.8134 7.61414Z" fill="#262626"/>
<path d="M15.8134 7.61414L14.811 8.94971L15.7074 9.62246L16.7098 8.2869L15.8134 7.61414Z" fill="black"/>
<path d="M17.4426 7.61517L15.719 9.91162L16.6153 10.5844L18.3389 8.28793L17.4426 7.61517Z" fill="#262626"/>
<path d="M17.4426 7.61517L15.719 9.91162L16.6153 10.5844L18.3389 8.28793L17.4426 7.61517Z" fill="black"/>
<path d="M25.9097 14.6919H24.789V8.37093H14.3146V14.6919H13.1938V7.25244H25.9097V14.6919Z" fill="#262626"/>
<path d="M25.9097 14.6919H24.789V8.37093H14.3146V14.6919H13.1938V7.25244H25.9097V14.6919Z" fill="black"/>
</g>
<defs>
<clipPath id="clip0_5308_31170">
<rect width="21.1012" height="22" fill="white" transform="translate(9 4)"/>
</clipPath>
</defs>
</svg>
