<svg width="40" height="30" viewBox="0 0 40 30" fill="none" xmlns="http://www.w3.org/2000/svg">
<path d="M18.6429 25.7143C23.7712 25.7143 27.9286 24.9148 27.9286 23.9285C27.9286 22.9423 23.7712 22.1428 18.6429 22.1428C13.5145 22.1428 9.35718 22.9423 9.35718 23.9285C9.35718 24.9148 13.5145 25.7143 18.6429 25.7143Z" fill="#424242"/>
<path d="M8.92847 6.07136L15.1428 4.85707L14.4285 4.28564C13.7856 3.78564 12.9285 3.78564 12.2856 4.28564L11.857 4.57136L11.357 4.4285C10.5713 4.21422 9.78561 4.57136 9.35704 5.21422L8.92847 6.07136ZM10.0713 11.1428L16.2856 9.99993L15.857 10.8571C15.4999 11.5714 14.6428 11.9285 13.857 11.6428L13.357 11.4999L12.9285 11.8571C12.2856 12.3571 11.357 12.3571 10.7142 11.8571L10.0713 11.1428Z" fill="#424242"/>
<path d="M11.5001 4.9285C11.2144 4.35707 11.2858 3.64279 11.7858 3.21422C12.0715 2.99993 12.4287 2.9285 12.7144 2.99993L12.5715 3.71422C12.4287 3.71422 12.3572 3.71422 12.2144 3.78564C12.0001 3.9285 11.9287 4.28564 12.143 4.57136L11.5001 4.9285ZM11.2858 11.4999L10.5715 11.2856L11.0001 9.9285L11.0715 8.07136L10.643 6.99993L9.57153 5.71422L10.0715 5.28565L11.2858 6.64279L11.7858 7.9285L11.7144 10.0714L11.2858 11.4999ZM14.9287 10.7856L13.9287 9.49993L13.2858 7.64279V5.99993L13.7144 4.57136L14.4287 4.78564L14.0001 6.14279V7.49993L14.5715 9.21422L15.5001 10.3571L14.9287 10.7856ZM19.7858 21.3571C19.2858 21.3571 18.7858 21.2856 18.3572 21.0714C17.8572 20.8571 17.4287 20.4285 17.2144 19.7856C16.4287 17.7856 17.143 13.9999 17.9287 12.2142L18.2144 11.6428L18.7144 12.0714C21.0715 13.8571 23.643 15.5714 26.2144 17.0714L26.7858 17.4285L26.4287 17.7856C24.5715 19.7142 22.0001 21.3571 19.7858 21.3571ZM18.7144 13.2856C18.143 14.9999 17.643 17.9285 18.2858 19.4285C18.4287 19.7856 18.643 19.9999 18.8572 20.1428C20.5001 20.8571 23.2858 19.4285 25.2144 17.5714C22.9287 16.2142 20.7858 14.7856 18.7144 13.2856Z" fill="#424242"/>
<path d="M22.2857 14.8571L21.2857 14.4285C21.9285 12.9285 26.5 6.28568 30.9285 4.85711L31.2857 5.85711C27.2857 7.21425 22.8571 13.5 22.2857 14.8571ZM19.3571 15.7143C18.9285 15.7143 18.6428 16 18.6428 16.4285C18.6428 16.8571 18.9285 17.1428 19.3571 17.1428C19.7857 17.1428 20.0714 16.8571 20.0714 16.4285C20.0714 16 19.7143 15.7143 19.3571 15.7143ZM21.5714 11.1428C22.0714 12.9285 22.7143 13.5714 25 14.1428L21.5714 11.1428ZM21.5714 8.35711C22.8571 10.8571 24 11.8571 27.4285 13.3571L21.5714 8.35711ZM24 6.99997C24.5 8.99997 25.5 10.2857 28 11.3571L24 6.99997ZM26 6.21425C26.2857 7.99996 26.7143 8.78568 28.9285 9.92854L26 6.21425ZM27.6428 5.28568C27.6428 6.78568 28.0714 7.42854 29.7142 8.42854L27.6428 5.28568ZM29.3571 4.64282C29.2857 5.78568 29.3571 6.35711 30.7857 7.07139L29.3571 4.64282Z" fill="#424242"/>
<path d="M33.2142 7.49997L30.7856 5.85711L31.4285 4.99997L32.5714 5.78568L31.3571 2.14282H32.4999L32.7142 2.57139L34.0714 6.92854L33.4999 7.07139L33.2142 7.49997Z" fill="#424242"/>
</svg>
