<svg width="40" height="30" viewBox="0 0 40 30" fill="none" xmlns="http://www.w3.org/2000/svg">
<rect width="40" height="30" fill="none"/>
<g clip-path="url(#clip0_5343_31849)">
<path d="M5.22869 13.6307C5.22869 11.1702 5.22869 8.70967 5.22869 6.24914C5.22869 5.49506 5.25764 5.44224 6.0081 5.35612C7.76448 5.15421 9.52375 4.97618 11.2823 4.78947C12.569 4.65269 13.8637 4.56513 15.141 4.36756C16.2945 4.18954 17.4228 4.3596 18.559 4.44934C20.8805 4.63316 23.2007 4.84375 25.5208 5.04855C28.3576 5.29846 31.1937 5.55175 34.0291 5.80842C34.5357 5.85474 34.6146 5.94737 34.6443 6.44888C34.653 6.59941 34.6443 6.75066 34.6443 6.90191C34.6472 11.3487 34.6503 15.7955 34.6537 20.2423C34.6537 20.3291 34.6537 20.4153 34.6537 20.5014C34.6472 21.2641 34.632 21.2859 33.909 21.466C32.5499 21.8038 31.1906 22.1415 29.8311 22.4792C25.5415 23.5445 21.253 24.6119 16.9654 25.6815C16.4902 25.814 15.9848 25.7886 15.5253 25.6091C12.3215 24.3876 9.10979 23.1891 5.90025 21.9828C5.22289 21.728 5.21493 21.7222 5.2142 21.0101C5.2142 18.5496 5.2142 16.0891 5.2142 13.6285L5.22869 13.6307ZM33.6738 20.5354V6.71881L16.8641 5.25769C16.6918 6.24769 16.7512 24.2298 16.922 24.6973L33.6738 20.5354ZM6.18033 6.30052V20.9978C7.17395 21.5348 15.3603 24.5374 15.8017 24.5272V5.26276L6.18033 6.30052Z" fill="#262626"/>
<path d="M5.22869 13.6307C5.22869 11.1702 5.22869 8.70967 5.22869 6.24914C5.22869 5.49506 5.25764 5.44224 6.0081 5.35612C7.76448 5.15421 9.52375 4.97618 11.2823 4.78947C12.569 4.65269 13.8637 4.56513 15.141 4.36756C16.2945 4.18954 17.4228 4.3596 18.559 4.44934C20.8805 4.63316 23.2007 4.84375 25.5208 5.04855C28.3576 5.29846 31.1937 5.55175 34.0291 5.80842C34.5357 5.85474 34.6146 5.94737 34.6443 6.44888C34.653 6.59941 34.6443 6.75066 34.6443 6.90191C34.6472 11.3487 34.6503 15.7955 34.6537 20.2423C34.6537 20.3291 34.6537 20.4153 34.6537 20.5014C34.6472 21.2641 34.632 21.2859 33.909 21.466C32.5499 21.8038 31.1906 22.1415 29.8311 22.4792C25.5415 23.5445 21.253 24.6119 16.9654 25.6815C16.4902 25.814 15.9848 25.7886 15.5253 25.6091C12.3215 24.3876 9.10979 23.1891 5.90025 21.9828C5.22289 21.728 5.21493 21.7222 5.2142 21.0101C5.2142 18.5496 5.2142 16.0891 5.2142 13.6285L5.22869 13.6307ZM33.6738 20.5354V6.71881L16.8641 5.25769C16.6918 6.24769 16.7512 24.2298 16.922 24.6973L33.6738 20.5354ZM6.18033 6.30052V20.9978C7.17395 21.5348 15.3603 24.5374 15.8017 24.5272V5.26276L6.18033 6.30052Z" fill="black"/>
<path d="M16.2395 4.28959C17.0175 4.28959 17.7882 4.38801 18.5633 4.4488C20.8849 4.63261 23.205 4.84321 25.5251 5.04801C28.362 5.29792 31.1981 5.55121 34.0335 5.80788C34.5401 5.85419 34.6189 5.94682 34.6486 6.44834C34.6573 6.59886 34.6486 6.75011 34.6486 6.90136C34.6515 11.3482 34.6546 15.795 34.658 20.2418C34.658 20.3286 34.658 20.4147 34.658 20.5008C34.6515 21.2636 34.6363 21.2853 33.9134 21.4655C32.5543 21.8032 31.195 22.1409 29.8354 22.4787C25.5459 23.5439 21.2573 24.6114 16.9697 25.681C16.7638 25.7344 16.5521 25.7624 16.3394 25.7642C16.0622 25.7632 15.7876 25.7107 15.5296 25.6093C12.3259 24.3877 9.11414 23.1893 5.9046 21.9829C5.22723 21.7282 5.21927 21.7224 5.21855 21.0103C5.21855 18.5498 5.21855 16.0893 5.21855 13.6287H5.23014C5.23014 11.1682 5.23014 8.70768 5.23014 6.24715C5.23014 5.49307 5.25907 5.44025 6.00953 5.35413C7.76591 5.15222 9.5252 4.97419 11.2838 4.78748C12.5705 4.6507 13.8651 4.56314 15.1424 4.36557C15.5047 4.31184 15.8705 4.28595 16.2366 4.28814L16.2395 4.28959ZM16.9227 24.696L33.6745 20.5341V6.71899L16.8648 5.25787C16.6926 6.24787 16.7519 24.23 16.9227 24.6975V24.696ZM15.7974 24.5274V5.26294L6.18033 6.3007V20.998C7.17178 21.5343 15.3328 24.5274 15.7995 24.5274H15.7974ZM16.2388 4.07249C15.8615 4.07021 15.4845 4.09707 15.1113 4.15281C14.2357 4.28814 13.334 4.36991 12.4619 4.45531C12.069 4.49222 11.6622 4.52768 11.2628 4.57255L9.87257 4.71728C8.59888 4.85044 7.28178 4.98867 5.98711 5.13775C5.58691 5.18406 5.33218 5.22459 5.17586 5.4084C5.01955 5.59222 5.01591 5.83103 5.01519 6.2457C5.01519 8.02379 5.01519 9.83156 5.01519 11.5793V13.4116H5.00362V15.6876C5.00362 17.4621 5.00362 19.2368 5.00362 21.0118C5.00362 21.3866 5.00362 21.6131 5.13243 21.7948C5.26125 21.9764 5.4617 22.0488 5.83006 22.1877L8.15237 23.0562C10.547 23.955 13.0235 24.8842 15.4536 25.8105C15.7363 25.9216 16.0372 25.979 16.3408 25.9798C16.5714 25.9785 16.8009 25.9484 17.024 25.8901C20.2321 25.0832 23.4966 24.2734 26.6533 23.4904L29.8897 22.6878C31.2755 22.3441 32.6636 21.9967 33.9676 21.6747C34.3375 21.582 34.5821 21.5205 34.7275 21.3324C34.873 21.1442 34.8722 20.8895 34.8766 20.5008C34.8766 20.4451 34.8766 20.3887 34.8766 20.3329V20.2396L34.873 15.6218L34.8672 6.89919C34.8672 6.85505 34.8672 6.8109 34.8672 6.76676C34.8672 6.65893 34.8672 6.54966 34.8628 6.43314C34.8266 5.81801 34.6595 5.64505 34.0509 5.58932C31.4058 5.34979 28.6232 5.10084 25.5425 4.82946L24.2485 4.71511C22.3901 4.55011 20.4695 4.38005 18.5778 4.23024C18.3665 4.2136 18.1508 4.19406 17.9431 4.17452C17.3866 4.12314 16.8112 4.07031 16.2374 4.07031L16.2388 4.07249ZM17.108 24.4275C16.969 22.4012 16.9299 7.54255 17.0588 5.49235L21.5246 5.88097L33.4567 6.91801V20.3691L22.2034 23.1654L17.108 24.4275ZM6.39743 6.4961L15.5846 5.50465V24.2589C15.0245 24.1004 13.5018 23.5823 11.2114 22.7392C8.87243 21.8809 6.99664 21.1471 6.39743 20.862V6.4961Z" fill="#262626"/>
<path d="M16.2395 4.28959C17.0175 4.28959 17.7882 4.38801 18.5633 4.4488C20.8849 4.63261 23.205 4.84321 25.5251 5.04801C28.362 5.29792 31.1981 5.55121 34.0335 5.80788C34.5401 5.85419 34.6189 5.94682 34.6486 6.44834C34.6573 6.59886 34.6486 6.75011 34.6486 6.90136C34.6515 11.3482 34.6546 15.795 34.658 20.2418C34.658 20.3286 34.658 20.4147 34.658 20.5008C34.6515 21.2636 34.6363 21.2853 33.9134 21.4655C32.5543 21.8032 31.195 22.1409 29.8354 22.4787C25.5459 23.5439 21.2573 24.6114 16.9697 25.681C16.7638 25.7344 16.5521 25.7624 16.3394 25.7642C16.0622 25.7632 15.7876 25.7107 15.5296 25.6093C12.3259 24.3877 9.11414 23.1893 5.9046 21.9829C5.22723 21.7282 5.21927 21.7224 5.21855 21.0103C5.21855 18.5498 5.21855 16.0893 5.21855 13.6287H5.23014C5.23014 11.1682 5.23014 8.70768 5.23014 6.24715C5.23014 5.49307 5.25907 5.44025 6.00953 5.35413C7.76591 5.15222 9.5252 4.97419 11.2838 4.78748C12.5705 4.6507 13.8651 4.56314 15.1424 4.36557C15.5047 4.31184 15.8705 4.28595 16.2366 4.28814L16.2395 4.28959ZM16.9227 24.696L33.6745 20.5341V6.71899L16.8648 5.25787C16.6926 6.24787 16.7519 24.23 16.9227 24.6975V24.696ZM15.7974 24.5274V5.26294L6.18033 6.3007V20.998C7.17178 21.5343 15.3328 24.5274 15.7995 24.5274H15.7974ZM16.2388 4.07249C15.8615 4.07021 15.4845 4.09707 15.1113 4.15281C14.2357 4.28814 13.334 4.36991 12.4619 4.45531C12.069 4.49222 11.6622 4.52768 11.2628 4.57255L9.87257 4.71728C8.59888 4.85044 7.28178 4.98867 5.98711 5.13775C5.58691 5.18406 5.33218 5.22459 5.17586 5.4084C5.01955 5.59222 5.01591 5.83103 5.01519 6.2457C5.01519 8.02379 5.01519 9.83156 5.01519 11.5793V13.4116H5.00362V15.6876C5.00362 17.4621 5.00362 19.2368 5.00362 21.0118C5.00362 21.3866 5.00362 21.6131 5.13243 21.7948C5.26125 21.9764 5.4617 22.0488 5.83006 22.1877L8.15237 23.0562C10.547 23.955 13.0235 24.8842 15.4536 25.8105C15.7363 25.9216 16.0372 25.979 16.3408 25.9798C16.5714 25.9785 16.8009 25.9484 17.024 25.8901C20.2321 25.0832 23.4966 24.2734 26.6533 23.4904L29.8897 22.6878C31.2755 22.3441 32.6636 21.9967 33.9676 21.6747C34.3375 21.582 34.5821 21.5205 34.7275 21.3324C34.873 21.1442 34.8722 20.8895 34.8766 20.5008C34.8766 20.4451 34.8766 20.3887 34.8766 20.3329V20.2396L34.873 15.6218L34.8672 6.89919C34.8672 6.85505 34.8672 6.8109 34.8672 6.76676C34.8672 6.65893 34.8672 6.54966 34.8628 6.43314C34.8266 5.81801 34.6595 5.64505 34.0509 5.58932C31.4058 5.34979 28.6232 5.10084 25.5425 4.82946L24.2485 4.71511C22.3901 4.55011 20.4695 4.38005 18.5778 4.23024C18.3665 4.2136 18.1508 4.19406 17.9431 4.17452C17.3866 4.12314 16.8112 4.07031 16.2374 4.07031L16.2388 4.07249ZM17.108 24.4275C16.969 22.4012 16.9299 7.54255 17.0588 5.49235L21.5246 5.88097L33.4567 6.91801V20.3691L22.2034 23.1654L17.108 24.4275ZM6.39743 6.4961L15.5846 5.50465V24.2589C15.0245 24.1004 13.5018 23.5823 11.2114 22.7392C8.87243 21.8809 6.99664 21.1471 6.39743 20.862V6.4961Z" fill="black"/>
<path d="M21.3169 14.5851C21.3169 16.1584 21.3169 17.7317 21.3169 19.305C21.3169 19.5221 21.3488 19.7537 21.2757 19.9447C21.2199 20.0895 21.0159 20.2885 20.8899 20.2798C20.7206 20.2682 20.5281 20.1083 20.413 19.9592C20.3407 19.8608 20.3768 19.6697 20.3768 19.5185C20.3768 16.2214 20.3781 12.9238 20.3805 9.62573V9.56132C20.3935 9.03086 20.5513 8.7754 20.8697 8.81086C21.3205 8.8608 21.3039 9.21178 21.3039 9.54178C21.3039 11.2227 21.3039 12.9038 21.3039 14.5851H21.3169Z" fill="#262626"/>
<path d="M21.3169 14.5851C21.3169 16.1584 21.3169 17.7317 21.3169 19.305C21.3169 19.5221 21.3488 19.7537 21.2757 19.9447C21.2199 20.0895 21.0159 20.2885 20.8899 20.2798C20.7206 20.2682 20.5281 20.1083 20.413 19.9592C20.3407 19.8608 20.3768 19.6697 20.3768 19.5185C20.3768 16.2214 20.3781 12.9238 20.3805 9.62573V9.56132C20.3935 9.03086 20.5513 8.7754 20.8697 8.81086C21.3205 8.8608 21.3039 9.21178 21.3039 9.54178C21.3039 11.2227 21.3039 12.9038 21.3039 14.5851H21.3169Z" fill="black"/>
<path d="M20.8125 8.80764C20.8313 8.80661 20.8501 8.80661 20.8689 8.80764C21.3198 8.85758 21.3032 9.20856 21.3032 9.53856C21.3032 11.2194 21.3032 12.9006 21.3032 14.5819H21.3133C21.3133 16.1552 21.3133 17.7285 21.3133 19.3018C21.3133 19.5189 21.3451 19.7505 21.272 19.9415C21.217 20.0863 21.0209 20.2766 20.8943 20.2766H20.8863C20.717 20.265 20.5245 20.1051 20.4094 19.956C20.3371 19.8576 20.3732 19.6665 20.3732 19.5153C20.3732 16.2182 20.3744 12.9206 20.3768 9.62251V9.5581C20.3891 9.06021 20.5288 8.80402 20.811 8.80402L20.8125 8.80764ZM20.811 8.58691C20.5216 8.58691 20.18 8.75482 20.1597 9.55304V11.1271C20.1597 13.9253 20.1597 16.7214 20.1597 19.5153C20.1597 19.5464 20.1598 19.5826 20.1554 19.6209C20.146 19.7657 20.1351 19.9495 20.2408 20.0877C20.3819 20.273 20.6229 20.4763 20.8755 20.493H20.8979C21.1454 20.493 21.4045 20.2165 21.4768 20.0175C21.5339 19.8337 21.5536 19.6403 21.5347 19.4487C21.5347 19.3973 21.5311 19.3488 21.5347 19.304C21.5347 18.1048 21.5347 16.8861 21.5347 15.7072V14.3663H21.5224V13.2807C21.5224 12.0336 21.5224 10.7867 21.5224 9.54001V9.51396C21.5224 9.19626 21.5224 8.66508 20.8921 8.59488C20.8654 8.59203 20.8386 8.59058 20.8118 8.59054L20.811 8.58691Z" fill="#262626"/>
<path d="M20.8125 8.80764C20.8313 8.80661 20.8501 8.80661 20.8689 8.80764C21.3198 8.85758 21.3032 9.20856 21.3032 9.53856C21.3032 11.2194 21.3032 12.9006 21.3032 14.5819H21.3133C21.3133 16.1552 21.3133 17.7285 21.3133 19.3018C21.3133 19.5189 21.3451 19.7505 21.272 19.9415C21.217 20.0863 21.0209 20.2766 20.8943 20.2766H20.8863C20.717 20.265 20.5245 20.1051 20.4094 19.956C20.3371 19.8576 20.3732 19.6665 20.3732 19.5153C20.3732 16.2182 20.3744 12.9206 20.3768 9.62251V9.5581C20.3891 9.06021 20.5288 8.80402 20.811 8.80402L20.8125 8.80764ZM20.811 8.58691C20.5216 8.58691 20.18 8.75482 20.1597 9.55304V11.1271C20.1597 13.9253 20.1597 16.7214 20.1597 19.5153C20.1597 19.5464 20.1598 19.5826 20.1554 19.6209C20.146 19.7657 20.1351 19.9495 20.2408 20.0877C20.3819 20.273 20.6229 20.4763 20.8755 20.493H20.8979C21.1454 20.493 21.4045 20.2165 21.4768 20.0175C21.5339 19.8337 21.5536 19.6403 21.5347 19.4487C21.5347 19.3973 21.5311 19.3488 21.5347 19.304C21.5347 18.1048 21.5347 16.8861 21.5347 15.7072V14.3663H21.5224V13.2807C21.5224 12.0336 21.5224 10.7867 21.5224 9.54001V9.51396C21.5224 9.19626 21.5224 8.66508 20.8921 8.59488C20.8654 8.59203 20.8386 8.59058 20.8118 8.59054L20.811 8.58691Z" fill="black"/>
<path d="M25.0497 14.4159C25.0497 13.0785 25.0497 11.7412 25.0497 10.4038C25.0457 10.2314 25.0508 10.0589 25.0649 9.88708C25.0953 9.61136 25.2726 9.41668 25.5345 9.4753C25.6974 9.51221 25.853 9.71412 25.947 9.87912C26.0129 9.99491 25.976 10.1737 25.976 10.3242C25.976 13.0206 25.9774 15.7168 25.9803 18.4128C25.9803 18.5843 26.0165 18.7812 25.9463 18.9194C25.8761 19.0576 25.6829 19.2617 25.5577 19.2523C25.3869 19.2392 25.1814 19.0844 25.0801 18.931C24.9983 18.8079 25.0403 18.5973 25.0403 18.4244C25.0403 17.087 25.0403 15.7499 25.0403 14.413L25.0497 14.4159Z" fill="#262626"/>
<path d="M25.0497 14.4159C25.0497 13.0785 25.0497 11.7412 25.0497 10.4038C25.0457 10.2314 25.0508 10.0589 25.0649 9.88708C25.0953 9.61136 25.2726 9.41668 25.5345 9.4753C25.6974 9.51221 25.853 9.71412 25.947 9.87912C26.0129 9.99491 25.976 10.1737 25.976 10.3242C25.976 13.0206 25.9774 15.7168 25.9803 18.4128C25.9803 18.5843 26.0165 18.7812 25.9463 18.9194C25.8761 19.0576 25.6829 19.2617 25.5577 19.2523C25.3869 19.2392 25.1814 19.0844 25.0801 18.931C24.9983 18.8079 25.0403 18.5973 25.0403 18.4244C25.0403 17.087 25.0403 15.7499 25.0403 14.413L25.0497 14.4159Z" fill="black"/>
<path d="M25.4441 9.46511C25.4747 9.46506 25.5053 9.46846 25.5353 9.47524C25.6981 9.51215 25.8537 9.71407 25.9478 9.87907C26.0136 9.99485 25.9767 10.1736 25.9767 10.3241C25.9767 13.0206 25.9782 15.7168 25.9811 18.4127C25.9811 18.5843 26.0172 18.7811 25.947 18.9193C25.8768 19.0575 25.6923 19.2522 25.5671 19.2522H25.5584C25.3876 19.2392 25.1821 19.0843 25.0808 18.9309C24.999 18.8079 25.041 18.5973 25.041 18.4243C25.041 17.087 25.041 15.7498 25.041 14.4129H25.0511C25.0511 13.0756 25.0511 11.7382 25.0511 10.4008C25.0471 10.2285 25.0522 10.056 25.0663 9.88413C25.0931 9.64169 25.2328 9.46222 25.4448 9.46222L25.4441 9.46511ZM25.4448 9.24512C25.1293 9.24512 24.8912 9.49262 24.8506 9.86097C24.8365 10.0166 24.831 10.1729 24.834 10.3292V10.4016C24.834 11.4331 24.834 12.4638 24.834 13.4939V14.1973H24.8239V15.3639C24.8239 16.3676 24.8239 17.4047 24.8239 18.4258C24.8239 18.4627 24.8239 18.5039 24.8188 18.5488C24.8094 18.7123 24.7985 18.8991 24.8999 19.051C25.0279 19.2443 25.2899 19.4498 25.5418 19.4686H25.5671C25.8298 19.4686 26.0672 19.1639 26.141 19.0163C26.2148 18.8687 26.2133 18.6863 26.2025 18.5329C26.2025 18.4887 26.1982 18.4475 26.1982 18.4099C26.1982 15.8364 26.1982 13.1906 26.1938 10.3212C26.1938 10.2879 26.1938 10.2489 26.1982 10.2112C26.2068 10.0665 26.217 9.91018 26.1359 9.76834C26.0426 9.60406 25.8465 9.31966 25.583 9.26176C25.5375 9.25123 25.4908 9.24589 25.4441 9.24584L25.4448 9.24512Z" fill="#262626"/>
<path d="M25.4441 9.46511C25.4747 9.46506 25.5053 9.46846 25.5353 9.47524C25.6981 9.51215 25.8537 9.71407 25.9478 9.87907C26.0136 9.99485 25.9767 10.1736 25.9767 10.3241C25.9767 13.0206 25.9782 15.7168 25.9811 18.4127C25.9811 18.5843 26.0172 18.7811 25.947 18.9193C25.8768 19.0575 25.6923 19.2522 25.5671 19.2522H25.5584C25.3876 19.2392 25.1821 19.0843 25.0808 18.9309C24.999 18.8079 25.041 18.5973 25.041 18.4243C25.041 17.087 25.041 15.7498 25.041 14.4129H25.0511C25.0511 13.0756 25.0511 11.7382 25.0511 10.4008C25.0471 10.2285 25.0522 10.056 25.0663 9.88413C25.0931 9.64169 25.2328 9.46222 25.4448 9.46222L25.4441 9.46511ZM25.4448 9.24512C25.1293 9.24512 24.8912 9.49262 24.8506 9.86097C24.8365 10.0166 24.831 10.1729 24.834 10.3292V10.4016C24.834 11.4331 24.834 12.4638 24.834 13.4939V14.1973H24.8239V15.3639C24.8239 16.3676 24.8239 17.4047 24.8239 18.4258C24.8239 18.4627 24.8239 18.5039 24.8188 18.5488C24.8094 18.7123 24.7985 18.8991 24.8999 19.051C25.0279 19.2443 25.2899 19.4498 25.5418 19.4686H25.5671C25.8298 19.4686 26.0672 19.1639 26.141 19.0163C26.2148 18.8687 26.2133 18.6863 26.2025 18.5329C26.2025 18.4887 26.1982 18.4475 26.1982 18.4099C26.1982 15.8364 26.1982 13.1906 26.1938 10.3212C26.1938 10.2879 26.1938 10.2489 26.1982 10.2112C26.2068 10.0665 26.217 9.91018 26.1359 9.76834C26.0426 9.60406 25.8465 9.31966 25.583 9.26176C25.5375 9.25123 25.4908 9.24589 25.4441 9.24584L25.4448 9.24512Z" fill="black"/>
<path d="M30.672 14.1253V17.4224C30.672 17.4651 30.672 17.5085 30.672 17.5519C30.659 18.1048 30.5272 18.332 30.2067 18.3371C29.8861 18.3422 29.7218 18.1055 29.7189 17.5751C29.7131 16.627 29.7189 15.679 29.7189 14.7303C29.7189 13.416 29.7189 12.1016 29.7189 10.7869C29.7189 10.6147 29.6841 10.4178 29.755 10.2803C29.826 10.1428 30.0178 9.93875 30.1451 9.94599C30.2423 9.96083 30.335 9.99686 30.4166 10.0515C30.4983 10.1062 30.567 10.1781 30.6177 10.2622C30.7089 10.4374 30.6821 10.6813 30.6829 10.8955C30.6879 11.973 30.6829 13.0506 30.6829 14.1282L30.672 14.1253Z" fill="#262626"/>
<path d="M30.672 14.1253V17.4224C30.672 17.4651 30.672 17.5085 30.672 17.5519C30.659 18.1048 30.5272 18.332 30.2067 18.3371C29.8861 18.3422 29.7218 18.1055 29.7189 17.5751C29.7131 16.627 29.7189 15.679 29.7189 14.7303C29.7189 13.416 29.7189 12.1016 29.7189 10.7869C29.7189 10.6147 29.6841 10.4178 29.755 10.2803C29.826 10.1428 30.0178 9.93875 30.1451 9.94599C30.2423 9.96083 30.335 9.99686 30.4166 10.0515C30.4983 10.1062 30.567 10.1781 30.6177 10.2622C30.7089 10.4374 30.6821 10.6813 30.6829 10.8955C30.6879 11.973 30.6829 13.0506 30.6829 14.1282L30.672 14.1253Z" fill="black"/>
<path d="M30.1415 9.94273H30.1488C30.2459 9.95757 30.3386 9.99359 30.4203 10.0482C30.5019 10.1029 30.5706 10.1748 30.6213 10.259C30.7125 10.4341 30.6857 10.678 30.6864 10.8922C30.6915 11.9698 30.6864 13.0473 30.6864 14.1249H30.6698V17.422C30.6698 17.4647 30.6698 17.5081 30.6698 17.5515C30.6568 18.1044 30.5251 18.3317 30.2045 18.3368H30.1944C29.8767 18.3368 29.7196 18.1001 29.7167 17.5747C29.7109 16.6267 29.7167 15.6787 29.7167 14.7299C29.7167 13.4157 29.7167 12.1012 29.7167 10.7865C29.7167 10.6143 29.682 10.4175 29.7529 10.28C29.8238 10.1425 30.0084 9.94562 30.1357 9.94562L30.1415 9.94273ZM30.1357 9.72852C29.8825 9.72852 29.648 10.0071 29.5568 10.1823C29.4779 10.3386 29.4844 10.5137 29.4938 10.6686C29.4938 10.7113 29.4975 10.7518 29.4975 10.7887C29.4975 11.6089 29.4975 12.4264 29.4975 13.2413V14.7328C29.4975 15.0556 29.4975 15.3776 29.4975 15.7004C29.4975 16.3155 29.4939 16.9523 29.4975 17.5819C29.5018 18.3903 29.8774 18.5596 30.1922 18.5596H30.206C30.8616 18.5495 30.8782 17.8323 30.8848 17.5624C30.8848 17.5306 30.8848 17.4994 30.8848 17.4676V14.3478H30.9014V14.1307C30.9014 13.8506 30.9014 13.5698 30.9014 13.2898C30.9014 12.5053 30.9014 11.6977 30.9014 10.8973C30.9014 10.8582 30.9014 10.8184 30.9014 10.7786C30.905 10.5803 30.9093 10.3552 30.8102 10.1642C30.7425 10.0464 30.6485 9.94593 30.5355 9.87059C30.4225 9.79526 30.2936 9.74712 30.1589 9.72996L30.1357 9.72852Z" fill="#262626"/>
<path d="M30.1415 9.94273H30.1488C30.2459 9.95757 30.3386 9.99359 30.4203 10.0482C30.5019 10.1029 30.5706 10.1748 30.6213 10.259C30.7125 10.4341 30.6857 10.678 30.6864 10.8922C30.6915 11.9698 30.6864 13.0473 30.6864 14.1249H30.6698V17.422C30.6698 17.4647 30.6698 17.5081 30.6698 17.5515C30.6568 18.1044 30.5251 18.3317 30.2045 18.3368H30.1944C29.8767 18.3368 29.7196 18.1001 29.7167 17.5747C29.7109 16.6267 29.7167 15.6787 29.7167 14.7299C29.7167 13.4157 29.7167 12.1012 29.7167 10.7865C29.7167 10.6143 29.682 10.4175 29.7529 10.28C29.8238 10.1425 30.0084 9.94562 30.1357 9.94562L30.1415 9.94273ZM30.1357 9.72852C29.8825 9.72852 29.648 10.0071 29.5568 10.1823C29.4779 10.3386 29.4844 10.5137 29.4938 10.6686C29.4938 10.7113 29.4975 10.7518 29.4975 10.7887C29.4975 11.6089 29.4975 12.4264 29.4975 13.2413V14.7328C29.4975 15.0556 29.4975 15.3776 29.4975 15.7004C29.4975 16.3155 29.4939 16.9523 29.4975 17.5819C29.5018 18.3903 29.8774 18.5596 30.1922 18.5596H30.206C30.8616 18.5495 30.8782 17.8323 30.8848 17.5624C30.8848 17.5306 30.8848 17.4994 30.8848 17.4676V14.3478H30.9014V14.1307C30.9014 13.8506 30.9014 13.5698 30.9014 13.2898C30.9014 12.5053 30.9014 11.6977 30.9014 10.8973C30.9014 10.8582 30.9014 10.8184 30.9014 10.7786C30.905 10.5803 30.9093 10.3552 30.8102 10.1642C30.7425 10.0464 30.6485 9.94593 30.5355 9.87059C30.4225 9.79526 30.2936 9.74712 30.1589 9.72996L30.1357 9.72852Z" fill="black"/>
<path d="M9.91455 14.1532C9.91455 11.9744 9.91455 9.79541 9.91455 7.61615C9.91455 6.98582 10.0752 6.72023 10.4211 6.73977C10.7424 6.75786 10.8807 7.00536 10.8814 7.59878C10.8814 12.0002 10.8814 16.4014 10.8814 20.8024C10.8814 21.4045 10.7417 21.6361 10.4001 21.6419C10.0586 21.6477 9.90513 21.4183 9.90368 20.8198C9.89982 18.5981 9.89982 16.3759 9.90368 14.1532H9.91455Z" fill="#262626"/>
<path d="M9.91455 14.1532C9.91455 11.9744 9.91455 9.79541 9.91455 7.61615C9.91455 6.98582 10.0752 6.72023 10.4211 6.73977C10.7424 6.75786 10.8807 7.00536 10.8814 7.59878C10.8814 12.0002 10.8814 16.4014 10.8814 20.8024C10.8814 21.4045 10.7417 21.6361 10.4001 21.6419C10.0586 21.6477 9.90513 21.4183 9.90368 20.8198C9.89982 18.5981 9.89982 16.3759 9.90368 14.1532H9.91455Z" fill="black"/>
<path d="M10.3885 6.73857H10.424C10.7453 6.75667 10.8835 7.00417 10.8843 7.59759C10.8843 11.999 10.8843 16.4002 10.8843 20.8012C10.8843 21.4033 10.7446 21.6349 10.403 21.6407H10.39C10.0513 21.6407 9.90802 21.4098 9.90657 20.8186C9.90271 18.5969 9.90271 16.3747 9.90657 14.152H9.91309C9.91309 11.9732 9.91309 9.79421 9.91309 7.61495C9.91309 7.00561 10.0629 6.73712 10.3864 6.73712L10.3885 6.73857ZM10.3864 6.52002C9.69744 6.52002 9.69671 7.34357 9.69599 7.61423C9.69599 9.19403 9.69599 10.7984 9.69599 12.3536V13.9349H9.68947V15.9778C9.68947 17.5649 9.68947 19.2055 9.68947 20.8193C9.68947 21.103 9.68946 21.8578 10.39 21.8578H10.4066C11.1006 21.8462 11.1007 21.1138 11.1014 20.8012C11.1014 16.6234 11.1014 12.3037 11.1014 7.59686C11.1014 7.31318 11.1014 6.5591 10.4356 6.52147H10.3885L10.3864 6.52002Z" fill="#262626"/>
<path d="M10.3885 6.73857H10.424C10.7453 6.75667 10.8835 7.00417 10.8843 7.59759C10.8843 11.999 10.8843 16.4002 10.8843 20.8012C10.8843 21.4033 10.7446 21.6349 10.403 21.6407H10.39C10.0513 21.6407 9.90802 21.4098 9.90657 20.8186C9.90271 18.5969 9.90271 16.3747 9.90657 14.152H9.91309C9.91309 11.9732 9.91309 9.79421 9.91309 7.61495C9.91309 7.00561 10.0629 6.73712 10.3864 6.73712L10.3885 6.73857ZM10.3864 6.52002C9.69744 6.52002 9.69671 7.34357 9.69599 7.61423C9.69599 9.19403 9.69599 10.7984 9.69599 12.3536V13.9349H9.68947V15.9778C9.68947 17.5649 9.68947 19.2055 9.68947 20.8193C9.68947 21.103 9.68946 21.8578 10.39 21.8578H10.4066C11.1006 21.8462 11.1007 21.1138 11.1014 20.8012C11.1014 16.6234 11.1014 12.3037 11.1014 7.59686C11.1014 7.31318 11.1014 6.5591 10.4356 6.52147H10.3885L10.3864 6.52002Z" fill="black"/>
<path d="M8.47368 13.0903C8.72191 13.112 8.94625 13.2054 8.98026 13.5245C9.01355 13.8234 8.79934 14.0463 8.47368 14.0514C8.18421 14.0557 7.97145 13.9414 7.93309 13.6266C7.90053 13.3378 8.13428 13.1012 8.47368 13.0903Z" fill="#262626"/>
<path d="M8.47368 13.0903C8.72191 13.112 8.94625 13.2054 8.98026 13.5245C9.01355 13.8234 8.79934 14.0463 8.47368 14.0514C8.18421 14.0557 7.97145 13.9414 7.93309 13.6266C7.90053 13.3378 8.13428 13.1012 8.47368 13.0903Z" fill="black"/>
<path d="M8.47368 13.0902C8.7219 13.1119 8.94625 13.2052 8.98026 13.5244C9.01355 13.8232 8.79934 14.0461 8.47368 14.0512H8.45776C8.17552 14.0512 7.97072 13.9354 7.93309 13.6264C7.89835 13.3369 8.1292 13.101 8.47151 13.0902H8.47368ZM8.47803 12.873H8.46501C8.35314 12.8734 8.24258 12.8973 8.1405 12.943C8.03841 12.9888 7.94704 13.0554 7.87229 13.1386C7.81146 13.2084 7.76619 13.2902 7.73948 13.3788C7.71278 13.4674 7.70527 13.5607 7.71743 13.6524C7.7652 14.044 8.03513 14.2683 8.45776 14.2683H8.47658C8.58157 14.2698 8.68571 14.2492 8.78222 14.2078C8.87872 14.1664 8.96543 14.1051 9.03671 14.028C9.09885 13.9562 9.14516 13.8721 9.17259 13.7812C9.20003 13.6903 9.20797 13.5947 9.19592 13.5005C9.16697 13.2407 9.02079 12.9215 8.49105 12.8738L8.47803 12.873Z" fill="#262626"/>
<path d="M8.47368 13.0902C8.7219 13.1119 8.94625 13.2052 8.98026 13.5244C9.01355 13.8232 8.79934 14.0461 8.47368 14.0512H8.45776C8.17552 14.0512 7.97072 13.9354 7.93309 13.6264C7.89835 13.3369 8.1292 13.101 8.47151 13.0902H8.47368ZM8.47803 12.873H8.46501C8.35314 12.8734 8.24258 12.8973 8.1405 12.943C8.03841 12.9888 7.94704 13.0554 7.87229 13.1386C7.81146 13.2084 7.76619 13.2902 7.73948 13.3788C7.71278 13.4674 7.70527 13.5607 7.71743 13.6524C7.7652 14.044 8.03513 14.2683 8.45776 14.2683H8.47658C8.58157 14.2698 8.68571 14.2492 8.78222 14.2078C8.87872 14.1664 8.96543 14.1051 9.03671 14.028C9.09885 13.9562 9.14516 13.8721 9.17259 13.7812C9.20003 13.6903 9.20797 13.5947 9.19592 13.5005C9.16697 13.2407 9.02079 12.9215 8.49105 12.8738L8.47803 12.873Z" fill="black"/>
<path d="M12.2499 14.4704C11.8265 14.4704 11.5834 14.2584 11.621 13.9797C11.663 13.6707 11.8699 13.5535 12.1674 13.5593C12.5155 13.5658 12.7384 13.7576 12.7072 14.0492C12.6739 14.3705 12.4532 14.469 12.2499 14.4704Z" fill="#262626"/>
<path d="M12.2499 14.4704C11.8265 14.4704 11.5834 14.2584 11.621 13.9797C11.663 13.6707 11.8699 13.5535 12.1674 13.5593C12.5155 13.5658 12.7384 13.7576 12.7072 14.0492C12.6739 14.3705 12.4532 14.469 12.2499 14.4704Z" fill="black"/>
<path d="M12.1464 13.5592H12.1674C12.5154 13.5657 12.7383 13.7575 12.7072 14.0492C12.6739 14.3705 12.4532 14.4689 12.2499 14.4703C11.8265 14.4703 11.5833 14.2583 11.621 13.9797C11.6622 13.6786 11.8605 13.5592 12.1464 13.5592ZM12.1464 13.3421C11.7288 13.3421 11.4589 13.5636 11.406 13.95C11.3935 14.0332 11.3993 14.1181 11.4229 14.1988C11.4465 14.2796 11.4874 14.3542 11.5428 14.4175C11.6926 14.5897 11.943 14.6853 12.2484 14.6874C12.6262 14.6874 12.8838 14.4486 12.9236 14.0723C12.9352 13.986 12.9283 13.8981 12.9034 13.8147C12.8784 13.7312 12.836 13.654 12.7789 13.5882C12.7006 13.5074 12.6064 13.4439 12.5023 13.4015C12.3981 13.3592 12.2863 13.3389 12.1739 13.3421H12.1464Z" fill="#262626"/>
<path d="M12.1464 13.5592H12.1674C12.5154 13.5657 12.7383 13.7575 12.7072 14.0492C12.6739 14.3705 12.4532 14.4689 12.2499 14.4703C11.8265 14.4703 11.5833 14.2583 11.621 13.9797C11.6622 13.6786 11.8605 13.5592 12.1464 13.5592ZM12.1464 13.3421C11.7288 13.3421 11.4589 13.5636 11.406 13.95C11.3935 14.0332 11.3993 14.1181 11.4229 14.1988C11.4465 14.2796 11.4874 14.3542 11.5428 14.4175C11.6926 14.5897 11.943 14.6853 12.2484 14.6874C12.6262 14.6874 12.8838 14.4486 12.9236 14.0723C12.9352 13.986 12.9283 13.8981 12.9034 13.8147C12.8784 13.7312 12.836 13.654 12.7789 13.5882C12.7006 13.5074 12.6064 13.4439 12.5023 13.4015C12.3981 13.3592 12.2863 13.3389 12.1739 13.3421H12.1464Z" fill="black"/>
</g>
<defs>
<clipPath id="clip0_5343_31849">
<rect width="29.8882" height="22" fill="white" transform="translate(5 4)"/>
</clipPath>
</defs>
</svg>
