<svg width="40" height="30" viewBox="0 0 40 30" fill="none" xmlns="http://www.w3.org/2000/svg">
<g clip-path="url(#clip0_5342_31650)">
<path d="M5.07153 20.4288H35.0715V21.8574H5.07153V20.4288ZM32.2144 16.1431H35.0715V20.4288H32.2144V16.1431Z" fill="#262626"/>
<path d="M5.07153 20.4288H35.0715V21.8574H5.07153V20.4288ZM32.2144 16.1431H35.0715V20.4288H32.2144V16.1431Z" fill="black"/>
<path d="M8.75528 15.3535C8.26088 15.3535 7.78664 15.5499 7.43687 15.8995C7.0873 16.2493 6.89087 16.7235 6.89087 17.2179C6.89087 17.7123 7.0873 18.1866 7.43687 18.5363C7.78666 18.8859 8.26089 19.0823 8.75528 19.0823C9.24966 19.0823 9.72392 18.8859 10.0737 18.5363C10.4233 18.1865 10.6197 17.7123 10.6197 17.2179C10.6197 16.7235 10.4233 16.2493 10.0737 15.8995C9.72389 15.5499 9.24966 15.3535 8.75528 15.3535ZM8.75528 18.1501C8.50808 18.1501 8.27086 18.0519 8.09608 17.8771C7.92129 17.7023 7.82307 17.4651 7.82307 17.2179C7.82307 16.9707 7.92129 16.7335 8.09608 16.5587C8.27086 16.3839 8.50808 16.2857 8.75528 16.2857C9.00248 16.2857 9.23969 16.3839 9.41448 16.5587C9.58926 16.7335 9.68748 16.9707 9.68748 17.2179C9.68748 17.4651 9.58926 17.7023 9.41448 17.8771C9.23969 18.0519 9.00248 18.1501 8.75528 18.1501Z" fill="#262626"/>
<path d="M8.75528 15.3535C8.26088 15.3535 7.78664 15.5499 7.43687 15.8995C7.0873 16.2493 6.89087 16.7235 6.89087 17.2179C6.89087 17.7123 7.0873 18.1866 7.43687 18.5363C7.78666 18.8859 8.26089 19.0823 8.75528 19.0823C9.24966 19.0823 9.72392 18.8859 10.0737 18.5363C10.4233 18.1865 10.6197 17.7123 10.6197 17.2179C10.6197 16.7235 10.4233 16.2493 10.0737 15.8995C9.72389 15.5499 9.24966 15.3535 8.75528 15.3535ZM8.75528 18.1501C8.50808 18.1501 8.27086 18.0519 8.09608 17.8771C7.92129 17.7023 7.82307 17.4651 7.82307 17.2179C7.82307 16.9707 7.92129 16.7335 8.09608 16.5587C8.27086 16.3839 8.50808 16.2857 8.75528 16.2857C9.00248 16.2857 9.23969 16.3839 9.41448 16.5587C9.58926 16.7335 9.68748 16.9707 9.68748 17.2179C9.68748 17.4651 9.58926 17.7023 9.41448 17.8771C9.23969 18.0519 9.00248 18.1501 8.75528 18.1501Z" fill="black"/>
<path d="M32.0466 12.6698L32.5127 10.8054C32.5474 10.6662 32.516 10.5189 32.4278 10.4057C32.3394 10.2927 32.2039 10.2266 32.0605 10.2266H29.2639C29.2323 10.2303 29.2009 10.2374 29.1707 10.2476C29.0015 10.1543 28.8294 10.0611 28.6538 9.98102C28.9836 9.75442 29.2007 9.39735 29.25 9.00012C29.2991 8.6029 29.1757 8.20381 28.911 7.90353C28.6463 7.60326 28.2657 7.43098 27.8656 7.42994H19.4758C19.105 7.42994 18.7491 7.57726 18.487 7.83945C18.2249 8.10163 18.0775 8.45747 18.0775 8.82822V9.76042C18.0775 9.88402 18.1266 10.0026 18.214 10.09C18.3014 10.1774 18.42 10.2265 18.5436 10.2265V11.1587C18.5436 11.2511 18.5708 11.3416 18.6224 11.4184L19.0555 12.0649C19.5226 12.7624 19.6061 13.6488 19.2773 14.4214H15.099L15.9869 13.8888H15.9871C16.1562 13.787 16.2432 13.5895 16.2037 13.396L15.2715 8.735C15.2272 8.51797 15.0364 8.36212 14.8147 8.36212H14.4512L14.7775 6.72432C15.2097 6.49002 15.5308 6.09361 15.6704 5.62229C15.8098 5.15099 15.7559 4.64348 15.5208 4.21189C15.2857 3.78033 14.8884 3.4599 14.4167 3.32172L14.7565 1.28211L15.747 1.03533V1.37055C15.747 1.62794 15.9557 1.83665 16.2131 1.83665C16.4705 1.83665 16.6792 1.62794 16.6792 1.37055V-0.493859C16.6792 -0.751254 16.4705 -0.959961 16.2131 -0.959961C15.9557 -0.959961 15.747 -0.751254 15.747 -0.493859V0.0748383L14.2355 0.452296C14.0555 0.497449 13.9194 0.644979 13.889 0.828091L13.4878 3.23499H11.552C11.2946 3.23499 11.0859 3.4437 11.0859 3.70109V6.4977C11.0859 6.6213 11.135 6.73991 11.2224 6.8273C11.3098 6.9147 11.4284 6.9638 11.552 6.9638H12.2783L11.4859 9.08683C11.2913 9.60412 10.9084 10.0286 10.4138 10.275C10.2547 10.3534 10.154 10.5153 10.1537 10.6926V11.7003C9.88594 11.6523 9.6144 11.6271 9.34225 11.6248C7.65869 11.63 6.09972 12.5135 5.23038 13.9553L5.09325 14.1838C5.00794 14.3276 5.00628 14.5061 5.08888 14.6516C5.17149 14.797 5.32547 14.8869 5.49277 14.8875H5.85483C5.09761 15.8297 4.84459 17.0809 5.17608 18.2435C5.50776 19.406 6.38272 20.3353 7.52321 20.7363C8.66369 21.1372 9.92781 20.9598 10.9139 20.2606C11.9 19.5612 12.4853 18.427 12.4842 17.2181H22.7385C22.7385 18.5502 23.4493 19.7812 24.6029 20.4473C25.7565 21.1133 27.1781 21.1133 28.3317 20.4473C29.4853 19.7812 30.1961 18.5502 30.1961 17.2181H32.5266C32.6502 17.2181 32.7688 17.1689 32.8562 17.0815C32.9436 16.9942 32.9927 16.8755 32.9927 16.7519C32.9954 15.3899 32.6215 14.0536 31.9124 12.8908C31.9775 12.8317 32.0241 12.7549 32.0466 12.6698L32.0466 12.6698ZM31.2576 11.9824H31.2574C31.0114 11.6879 30.7434 11.4126 30.4558 11.1588H31.4636L31.2576 11.9824ZM28.3317 8.82826C28.3317 8.95186 28.2826 9.07046 28.1952 9.15786C28.1078 9.24525 27.9892 9.29436 27.8656 9.29436H25.5351V8.36215H27.8656C27.9892 8.36215 28.1078 8.41126 28.1952 8.49866C28.2826 8.58605 28.3317 8.70466 28.3317 8.82826ZM19.0097 8.82826C19.0097 8.57086 19.2184 8.36215 19.4758 8.36215H24.6029V9.29436H19.0097V8.82826ZM15.2253 13.2585L13.8826 14.0644V13.5219C13.8845 12.1039 14.0143 10.6889 14.2704 9.29436H14.4327L15.2253 13.2585ZM12.0182 4.16713H13.8826C14.2157 4.16713 14.5235 4.34483 14.6899 4.63323C14.8564 4.92164 14.8564 5.27704 14.6899 5.56544C14.5235 5.85383 14.2157 6.03154 13.8826 6.03154H12.0182V4.16713ZM11.086 10.9664C11.668 10.6028 12.1145 10.0581 12.3569 9.41613L13.2739 6.9639H13.7806L13.4348 8.69972H13.4346C13.4289 8.71657 13.4244 8.73384 13.421 8.75132C13.1254 10.2418 12.9693 11.7564 12.9549 13.2759C12.4487 12.6913 11.8069 12.2396 11.086 11.9602L11.086 10.9664ZM8.75546 20.0146C8.01406 20.0138 7.30303 19.7189 6.77871 19.1947C6.25455 18.6704 5.9597 17.9594 5.95885 17.218C5.95531 16.277 6.43078 15.399 7.22068 14.8875H9.93573L11.5159 16.7835H11.5157C11.5384 16.9273 11.5506 17.0725 11.5521 17.218C11.5513 17.9594 11.2564 18.6704 10.7322 19.1947C10.2079 19.7189 9.49689 20.0138 8.7555 20.0146L8.75546 20.0146ZM12.3141 16.2858L10.5117 14.1226C10.423 14.0165 10.2919 13.9553 10.1538 13.9553H6.36818C7.10414 13.0724 8.19306 12.5605 9.34228 12.557C10.0603 12.5545 10.7647 12.7534 11.3754 13.1309C11.9862 13.5083 12.4791 14.0493 12.7981 14.6927L13.5946 16.2857L12.3141 16.2858ZM22.2727 16.2858V15.3536H29.9785C30.0749 15.6568 30.14 15.9693 30.1725 16.2858H22.2727ZM22.2727 14.4214V13.4892C22.2727 13.1184 22.42 12.7625 22.6822 12.5004C22.9444 12.2383 23.3002 12.0909 23.671 12.0909H25.5354C27.1981 12.0932 28.7338 12.9813 29.5653 14.4214L22.2727 14.4214ZM27.3998 17.218C27.3998 17.5511 27.2221 17.8589 26.9337 18.0253C26.6453 18.1918 26.2899 18.1918 26.0015 18.0253C25.7131 17.8589 25.5354 17.5511 25.5354 17.218H27.3998ZM26.4676 20.0146C25.7262 20.0138 25.0152 19.7189 24.4908 19.1947C23.9667 18.6704 23.6718 17.9594 23.671 17.218H24.6032C24.6032 17.8841 24.9586 18.4996 25.5354 18.8327C26.1122 19.1656 26.823 19.1656 27.3998 18.8327C27.9766 18.4995 28.332 17.884 28.332 17.218H29.2642C29.2634 17.9594 28.9685 18.6704 28.4443 19.1947C27.92 19.7189 27.209 20.0137 26.4676 20.0146ZM31.1068 16.2858C31.1068 16.2616 31.1041 16.2392 31.1012 16.2132C31.0918 16.112 31.0741 16.0136 31.0587 15.9139C31.0475 15.8417 31.0396 15.7685 31.0256 15.6963C31 15.5629 30.9665 15.4329 30.9324 15.3034C30.9226 15.267 30.9151 15.2308 30.9045 15.1948C30.8635 15.055 30.815 14.9151 30.7647 14.7786C30.7572 14.7587 30.7522 14.7381 30.7441 14.7181L30.7395 14.7102V14.71C30.3285 13.6639 29.6126 12.7661 28.6845 12.1327C27.7562 11.4993 26.6591 11.1599 25.5354 11.1587H23.671C23.0532 11.1595 22.4608 11.4052 22.0238 11.842C21.5871 12.279 21.3414 12.8714 21.3405 13.4892V16.2858H14.6372L14.1711 15.3536H19.5693C19.7395 15.3536 19.8964 15.2606 19.978 15.1112C20.2834 14.561 20.4314 13.9372 20.4054 13.3083C20.3794 12.6795 20.1806 12.07 19.8309 11.5469L19.4761 11.0188V10.2265H25.5354C26.7831 10.224 28.0049 10.5833 29.0526 11.2608C29.0661 11.2692 29.0796 11.2777 29.094 11.285C29.7339 11.7018 30.2963 12.2268 30.7557 12.8366C31.5111 13.8369 31.9589 15.0354 32.0446 16.2858L31.1068 16.2858Z" fill="#262626"/>
<path d="M32.0466 12.6698L32.5127 10.8054C32.5474 10.6662 32.516 10.5189 32.4278 10.4057C32.3394 10.2927 32.2039 10.2266 32.0605 10.2266H29.2639C29.2323 10.2303 29.2009 10.2374 29.1707 10.2476C29.0015 10.1543 28.8294 10.0611 28.6538 9.98102C28.9836 9.75442 29.2007 9.39735 29.25 9.00012C29.2991 8.6029 29.1757 8.20381 28.911 7.90353C28.6463 7.60326 28.2657 7.43098 27.8656 7.42994H19.4758C19.105 7.42994 18.7491 7.57726 18.487 7.83945C18.2249 8.10163 18.0775 8.45747 18.0775 8.82822V9.76042C18.0775 9.88402 18.1266 10.0026 18.214 10.09C18.3014 10.1774 18.42 10.2265 18.5436 10.2265V11.1587C18.5436 11.2511 18.5708 11.3416 18.6224 11.4184L19.0555 12.0649C19.5226 12.7624 19.6061 13.6488 19.2773 14.4214H15.099L15.9869 13.8888H15.9871C16.1562 13.787 16.2432 13.5895 16.2037 13.396L15.2715 8.735C15.2272 8.51797 15.0364 8.36212 14.8147 8.36212H14.4512L14.7775 6.72432C15.2097 6.49002 15.5308 6.09361 15.6704 5.62229C15.8098 5.15099 15.7559 4.64348 15.5208 4.21189C15.2857 3.78033 14.8884 3.4599 14.4167 3.32172L14.7565 1.28211L15.747 1.03533V1.37055C15.747 1.62794 15.9557 1.83665 16.2131 1.83665C16.4705 1.83665 16.6792 1.62794 16.6792 1.37055V-0.493859C16.6792 -0.751254 16.4705 -0.959961 16.2131 -0.959961C15.9557 -0.959961 15.747 -0.751254 15.747 -0.493859V0.0748383L14.2355 0.452296C14.0555 0.497449 13.9194 0.644979 13.889 0.828091L13.4878 3.23499H11.552C11.2946 3.23499 11.0859 3.4437 11.0859 3.70109V6.4977C11.0859 6.6213 11.135 6.73991 11.2224 6.8273C11.3098 6.9147 11.4284 6.9638 11.552 6.9638H12.2783L11.4859 9.08683C11.2913 9.60412 10.9084 10.0286 10.4138 10.275C10.2547 10.3534 10.154 10.5153 10.1537 10.6926V11.7003C9.88594 11.6523 9.6144 11.6271 9.34225 11.6248C7.65869 11.63 6.09972 12.5135 5.23038 13.9553L5.09325 14.1838C5.00794 14.3276 5.00628 14.5061 5.08888 14.6516C5.17149 14.797 5.32547 14.8869 5.49277 14.8875H5.85483C5.09761 15.8297 4.84459 17.0809 5.17608 18.2435C5.50776 19.406 6.38272 20.3353 7.52321 20.7363C8.66369 21.1372 9.92781 20.9598 10.9139 20.2606C11.9 19.5612 12.4853 18.427 12.4842 17.2181H22.7385C22.7385 18.5502 23.4493 19.7812 24.6029 20.4473C25.7565 21.1133 27.1781 21.1133 28.3317 20.4473C29.4853 19.7812 30.1961 18.5502 30.1961 17.2181H32.5266C32.6502 17.2181 32.7688 17.1689 32.8562 17.0815C32.9436 16.9942 32.9927 16.8755 32.9927 16.7519C32.9954 15.3899 32.6215 14.0536 31.9124 12.8908C31.9775 12.8317 32.0241 12.7549 32.0466 12.6698L32.0466 12.6698ZM31.2576 11.9824H31.2574C31.0114 11.6879 30.7434 11.4126 30.4558 11.1588H31.4636L31.2576 11.9824ZM28.3317 8.82826C28.3317 8.95186 28.2826 9.07046 28.1952 9.15786C28.1078 9.24525 27.9892 9.29436 27.8656 9.29436H25.5351V8.36215H27.8656C27.9892 8.36215 28.1078 8.41126 28.1952 8.49866C28.2826 8.58605 28.3317 8.70466 28.3317 8.82826ZM19.0097 8.82826C19.0097 8.57086 19.2184 8.36215 19.4758 8.36215H24.6029V9.29436H19.0097V8.82826ZM15.2253 13.2585L13.8826 14.0644V13.5219C13.8845 12.1039 14.0143 10.6889 14.2704 9.29436H14.4327L15.2253 13.2585ZM12.0182 4.16713H13.8826C14.2157 4.16713 14.5235 4.34483 14.6899 4.63323C14.8564 4.92164 14.8564 5.27704 14.6899 5.56544C14.5235 5.85383 14.2157 6.03154 13.8826 6.03154H12.0182V4.16713ZM11.086 10.9664C11.668 10.6028 12.1145 10.0581 12.3569 9.41613L13.2739 6.9639H13.7806L13.4348 8.69972H13.4346C13.4289 8.71657 13.4244 8.73384 13.421 8.75132C13.1254 10.2418 12.9693 11.7564 12.9549 13.2759C12.4487 12.6913 11.8069 12.2396 11.086 11.9602L11.086 10.9664ZM8.75546 20.0146C8.01406 20.0138 7.30303 19.7189 6.77871 19.1947C6.25455 18.6704 5.9597 17.9594 5.95885 17.218C5.95531 16.277 6.43078 15.399 7.22068 14.8875H9.93573L11.5159 16.7835H11.5157C11.5384 16.9273 11.5506 17.0725 11.5521 17.218C11.5513 17.9594 11.2564 18.6704 10.7322 19.1947C10.2079 19.7189 9.49689 20.0138 8.7555 20.0146L8.75546 20.0146ZM12.3141 16.2858L10.5117 14.1226C10.423 14.0165 10.2919 13.9553 10.1538 13.9553H6.36818C7.10414 13.0724 8.19306 12.5605 9.34228 12.557C10.0603 12.5545 10.7647 12.7534 11.3754 13.1309C11.9862 13.5083 12.4791 14.0493 12.7981 14.6927L13.5946 16.2857L12.3141 16.2858ZM22.2727 16.2858V15.3536H29.9785C30.0749 15.6568 30.14 15.9693 30.1725 16.2858H22.2727ZM22.2727 14.4214V13.4892C22.2727 13.1184 22.42 12.7625 22.6822 12.5004C22.9444 12.2383 23.3002 12.0909 23.671 12.0909H25.5354C27.1981 12.0932 28.7338 12.9813 29.5653 14.4214L22.2727 14.4214ZM27.3998 17.218C27.3998 17.5511 27.2221 17.8589 26.9337 18.0253C26.6453 18.1918 26.2899 18.1918 26.0015 18.0253C25.7131 17.8589 25.5354 17.5511 25.5354 17.218H27.3998ZM26.4676 20.0146C25.7262 20.0138 25.0152 19.7189 24.4908 19.1947C23.9667 18.6704 23.6718 17.9594 23.671 17.218H24.6032C24.6032 17.8841 24.9586 18.4996 25.5354 18.8327C26.1122 19.1656 26.823 19.1656 27.3998 18.8327C27.9766 18.4995 28.332 17.884 28.332 17.218H29.2642C29.2634 17.9594 28.9685 18.6704 28.4443 19.1947C27.92 19.7189 27.209 20.0137 26.4676 20.0146ZM31.1068 16.2858C31.1068 16.2616 31.1041 16.2392 31.1012 16.2132C31.0918 16.112 31.0741 16.0136 31.0587 15.9139C31.0475 15.8417 31.0396 15.7685 31.0256 15.6963C31 15.5629 30.9665 15.4329 30.9324 15.3034C30.9226 15.267 30.9151 15.2308 30.9045 15.1948C30.8635 15.055 30.815 14.9151 30.7647 14.7786C30.7572 14.7587 30.7522 14.7381 30.7441 14.7181L30.7395 14.7102V14.71C30.3285 13.6639 29.6126 12.7661 28.6845 12.1327C27.7562 11.4993 26.6591 11.1599 25.5354 11.1587H23.671C23.0532 11.1595 22.4608 11.4052 22.0238 11.842C21.5871 12.279 21.3414 12.8714 21.3405 13.4892V16.2858H14.6372L14.1711 15.3536H19.5693C19.7395 15.3536 19.8964 15.2606 19.978 15.1112C20.2834 14.561 20.4314 13.9372 20.4054 13.3083C20.3794 12.6795 20.1806 12.07 19.8309 11.5469L19.4761 11.0188V10.2265H25.5354C26.7831 10.224 28.0049 10.5833 29.0526 11.2608C29.0661 11.2692 29.0796 11.2777 29.094 11.285C29.7339 11.7018 30.2963 12.2268 30.7557 12.8366C31.5111 13.8369 31.9589 15.0354 32.0446 16.2858L31.1068 16.2858Z" fill="black"/>
</g>
<defs>
<clipPath id="clip0_5342_31650">
<rect width="40" height="30" fill="none"/>
</clipPath>
</defs>
</svg>
