<svg width="40" height="30" viewBox="0 0 40 30" fill="none" xmlns="http://www.w3.org/2000/svg">
<g clip-path="url(#clip0_5308_31160)">
<path d="M30.6049 13.1038L19.6142 6.12879L8.62352 13.1038L8 12.122L19.6142 4.75146L31.2284 12.122L30.6049 13.1038Z" fill="#262626"/>
<path d="M30.6049 13.1038L19.6142 6.12879L8.62352 13.1038L8 12.122L19.6142 4.75146L31.2284 12.122L30.6049 13.1038Z" fill="black"/>
<path d="M30.6049 15.2374L19.6142 8.26234L8.62352 15.2374L8 14.2556L19.6142 6.88501L31.2284 14.2556L30.6049 15.2374Z" fill="#262626"/>
<path d="M30.6049 15.2374L19.6142 8.26234L8.62352 15.2374L8 14.2556L19.6142 6.88501L31.2284 14.2556L30.6049 15.2374Z" fill="black"/>
<path d="M29.5277 26H9.70068V13.5459H10.864V24.8367H28.3644V13.5459H29.5277V26Z" fill="#262626"/>
<path d="M29.5277 26H9.70068V13.5459H10.864V24.8367H28.3644V13.5459H29.5277V26Z" fill="black"/>
<path d="M11.7854 10.6028H10.6221V4H15.2961V8.18084H14.1329V5.16328H11.7854V10.6028Z" fill="#262626"/>
<path d="M11.7854 10.6028H10.6221V4H15.2961V8.18084H14.1329V5.16328H11.7854V10.6028Z" fill="black"/>
<path d="M20.5356 25.4183H19.3724V23.8339H16.9527V21.6655H14.5354V19.4972H12.1181V17.3288H10.2825V16.1655H13.2814V18.3339H15.6987V20.5022H18.116V22.6706H20.5356V25.4183Z" fill="#262626"/>
<path d="M20.5356 25.4183H19.3724V23.8339H16.9527V21.6655H14.5354V19.4972H12.1181V17.3288H10.2825V16.1655H13.2814V18.3339H15.6987V20.5022H18.116V22.6706H20.5356V25.4183Z" fill="black"/>
<path d="M26.6266 25.4299H25.4633V20.9722C25.4633 20.8133 25.432 20.656 25.3712 20.5092C25.3104 20.3625 25.2213 20.2291 25.1089 20.1167C24.9966 20.0044 24.8632 19.9153 24.7164 19.8545C24.5697 19.7937 24.4123 19.7624 24.2535 19.7624C24.0946 19.7624 23.9373 19.7937 23.7905 19.8545C23.6437 19.9153 23.5103 20.0044 23.398 20.1167C23.2857 20.2291 23.1965 20.3625 23.1357 20.5092C23.0749 20.656 23.0437 20.8133 23.0437 20.9722V25.4299H21.8804V20.9722C21.8804 20.3428 22.1304 19.7392 22.5754 19.2942C23.0205 18.8491 23.6241 18.5991 24.2535 18.5991C24.8828 18.5991 25.4865 18.8491 25.9315 19.2942C26.3765 19.7392 26.6266 20.3428 26.6266 20.9722V25.4299Z" fill="#262626"/>
<path d="M26.6266 25.4299H25.4633V20.9722C25.4633 20.8133 25.432 20.656 25.3712 20.5092C25.3104 20.3625 25.2213 20.2291 25.1089 20.1167C24.9966 20.0044 24.8632 19.9153 24.7164 19.8545C24.5697 19.7937 24.4123 19.7624 24.2535 19.7624C24.0946 19.7624 23.9373 19.7937 23.7905 19.8545C23.6437 19.9153 23.5103 20.0044 23.398 20.1167C23.2857 20.2291 23.1965 20.3625 23.1357 20.5092C23.0749 20.656 23.0437 20.8133 23.0437 20.9722V25.4299H21.8804V20.9722C21.8804 20.3428 22.1304 19.7392 22.5754 19.2942C23.0205 18.8491 23.6241 18.5991 24.2535 18.5991C24.8828 18.5991 25.4865 18.8491 25.9315 19.2942C26.3765 19.7392 26.6266 20.3428 26.6266 20.9722V25.4299Z" fill="black"/>
<path d="M22.8599 16.2634H16.3711V12.1338H22.8599V16.2634ZM17.5344 15.1002H21.6966V13.2971H17.5344V15.1002Z" fill="#262626"/>
<path d="M22.8599 16.2634H16.3711V12.1338H22.8599V16.2634ZM17.5344 15.1002H21.6966V13.2971H17.5344V15.1002Z" fill="black"/>
</g>
<defs>
<clipPath id="clip0_5308_31160">
<rect width="23.2284" height="22" fill="white" transform="translate(8 4)"/>
</clipPath>
</defs>
</svg>
