<svg width="40" height="30" viewBox="0 0 40 30" fill="none" xmlns="http://www.w3.org/2000/svg">
<rect width="40" height="30" fill="none"/>
<g clip-path="url(#clip0_5308_31207)">
<path d="M30.4408 26L21.816 25.9745L21.8197 24.8816L29.3515 24.9053L29.3953 12.1184L19.7923 5.53005L15.0874 8.70856L15.1002 5.10747L11.8944 5.09654L11.8743 10.8798L10.1421 12.051L10.0965 24.8379L19.1785 24.8725L19.1949 20.0893L20.2878 20.0929L20.2659 25.9654L19.7195 25.9672L9 25.9253L9.051 11.4699L10.7832 10.2987L10.8069 4L16.1967 4.01821L16.1876 6.64663L19.796 4.20765L30.4918 11.5446L30.4408 26Z" fill="#262626"/>
<path d="M30.4408 26L21.816 25.9745L21.8197 24.8816L29.3515 24.9053L29.3953 12.1184L19.7923 5.53005L15.0874 8.70856L15.1002 5.10747L11.8944 5.09654L11.8743 10.8798L10.1421 12.051L10.0965 24.8379L19.1785 24.8725L19.1949 20.0893L20.2878 20.0929L20.2659 25.9654L19.7195 25.9672L9 25.9253L9.051 11.4699L10.7832 10.2987L10.8069 4L16.1967 4.01821L16.1876 6.64663L19.796 4.20765L30.4918 11.5446L30.4408 26Z" fill="black"/>
<path d="M24.7614 15.5355H14.0947V10.5847H24.7614V15.5355ZM15.4171 14.2113H23.4317V11.9071H15.4171V14.2113Z" fill="#262626"/>
<path d="M24.7614 15.5355H14.0947V10.5847H24.7614V15.5355ZM15.4171 14.2113H23.4317V11.9071H15.4171V14.2113Z" fill="black"/>
<path d="M21.0728 19.1948H18.6685V25.918H21.0728V19.1948Z" fill="#262626"/>
<path d="M21.0728 19.1948H18.6685V25.918H21.0728V19.1948Z" fill="black"/>
<path d="M20.4972 20.2622H19.1748V18.0035C19.1758 17.5987 19.3371 17.2107 19.6236 16.9246C19.91 16.6385 20.2982 16.4776 20.703 16.4771H25.3515C25.4058 16.4771 25.4578 16.4557 25.4964 16.4175C25.5349 16.3793 25.5568 16.3274 25.5573 16.2731V14.0873C25.5568 14.0329 25.535 13.9808 25.4965 13.9423C25.458 13.9038 25.4059 13.882 25.3515 13.8815H24.3387V12.5591H25.3515C25.7568 12.5591 26.1455 12.7201 26.4321 13.0067C26.7187 13.2933 26.8797 13.682 26.8797 14.0873V16.2731C26.8792 16.6781 26.718 17.0663 26.4315 17.3526C26.1449 17.6388 25.7565 17.7995 25.3515 17.7995H20.703C20.6488 17.7995 20.5967 17.821 20.5581 17.8592C20.5196 17.8974 20.4977 17.9492 20.4972 18.0035V20.2622Z" fill="#262626"/>
<path d="M20.4972 20.2622H19.1748V18.0035C19.1758 17.5987 19.3371 17.2107 19.6236 16.9246C19.91 16.6385 20.2982 16.4776 20.703 16.4771H25.3515C25.4058 16.4771 25.4578 16.4557 25.4964 16.4175C25.5349 16.3793 25.5568 16.3274 25.5573 16.2731V14.0873C25.5568 14.0329 25.535 13.9808 25.4965 13.9423C25.458 13.9038 25.4059 13.882 25.3515 13.8815H24.3387V12.5591H25.3515C25.7568 12.5591 26.1455 12.7201 26.4321 13.0067C26.7187 13.2933 26.8797 13.682 26.8797 14.0873V16.2731C26.8792 16.6781 26.718 17.0663 26.4315 17.3526C26.1449 17.6388 25.7565 17.7995 25.3515 17.7995H20.703C20.6488 17.7995 20.5967 17.821 20.5581 17.8592C20.5196 17.8974 20.4977 17.9492 20.4972 18.0035V20.2622Z" fill="black"/>
</g>
<defs>
<clipPath id="clip0_5308_31207">
<rect width="21.4918" height="22" fill="white" transform="translate(9 4)"/>
</clipPath>
</defs>
</svg>
