<svg width="40" height="30" viewBox="0 0 40 30" fill="none" xmlns="http://www.w3.org/2000/svg">
<g clip-path="url(#clip0_5308_31120)">
<path d="M15.1379 4.53247H14.073V25.4676H15.1379V4.53247Z" fill="#262626"/>
<path d="M15.1379 4.53247H14.073V25.4676H15.1379V4.53247Z" fill="black"/>
<path d="M19.2091 4.53247H18.1443V25.4676H19.2091V4.53247Z" fill="#262626"/>
<path d="M19.2091 4.53247H18.1443V25.4676H19.2091V4.53247Z" fill="black"/>
<path d="M23.2824 4.53247H22.2175V25.4676H23.2824V4.53247Z" fill="#262626"/>
<path d="M23.2824 4.53247H22.2175V25.4676H23.2824V4.53247Z" fill="black"/>
<path d="M27.3537 4.53247H26.2888V25.4676H27.3537V4.53247Z" fill="#262626"/>
<path d="M27.3537 4.53247H26.2888V25.4676H27.3537V4.53247Z" fill="black"/>
<path d="M14.6056 17.0073H10.5325V18.0722H14.6056V17.0073Z" fill="#262626"/>
<path d="M14.6056 17.0073H10.5325V18.0722H14.6056V17.0073Z" fill="black"/>
<path d="M18.6786 11.928H14.6055V12.9928H18.6786V11.928Z" fill="#262626"/>
<path d="M18.6786 11.928H14.6055V12.9928H18.6786V11.928Z" fill="black"/>
<path d="M22.7498 17.0073H18.6768V18.0722H22.7498V17.0073Z" fill="#262626"/>
<path d="M22.7498 17.0073H18.6768V18.0722H22.7498V17.0073Z" fill="black"/>
<path d="M26.8231 11.928H22.75V12.9928H26.8231V11.928Z" fill="#262626"/>
<path d="M26.8231 11.928H22.75V12.9928H26.8231V11.928Z" fill="black"/>
<path d="M30.8944 17.0073H26.8213V18.0722H30.8944V17.0073Z" fill="#262626"/>
<path d="M30.8944 17.0073H26.8213V18.0722H30.8944V17.0073Z" fill="black"/>
<path d="M31.4268 26H10V3.99292H31.4268V26ZM11.0649 24.9352H30.3619V5.05778H11.0649V24.9352Z" fill="#262626"/>
<path d="M31.4268 26H10V3.99292H31.4268V26ZM11.0649 24.9352H30.3619V5.05778H11.0649V24.9352Z" fill="black"/>
<path d="M30.8961 7.50513H26.823V8.56999H30.8961V7.50513Z" fill="#262626"/>
<path d="M30.8961 7.50513H26.823V8.56999H30.8961V7.50513Z" fill="black"/>
<path d="M26.8231 21.4299H22.75V22.4948H26.8231V21.4299Z" fill="#262626"/>
<path d="M26.8231 21.4299H22.75V22.4948H26.8231V21.4299Z" fill="black"/>
<path d="M22.7498 7.50513H18.6768V8.56999H22.7498V7.50513Z" fill="#262626"/>
<path d="M22.7498 7.50513H18.6768V8.56999H22.7498V7.50513Z" fill="black"/>
<path d="M18.6786 21.4299H14.6055V22.4948H18.6786V21.4299Z" fill="#262626"/>
<path d="M18.6786 21.4299H14.6055V22.4948H18.6786V21.4299Z" fill="black"/>
<path d="M14.6056 7.50513H10.5325V8.56999H14.6056V7.50513Z" fill="#262626"/>
<path d="M14.6056 7.50513H10.5325V8.56999H14.6056V7.50513Z" fill="black"/>
</g>
<defs>
<clipPath id="clip0_5308_31120">
<rect width="21.4268" height="22" fill="white" transform="translate(10 4)"/>
</clipPath>
</defs>
</svg>
