<svg width="40" height="30" viewBox="0 0 40 30" fill="none" xmlns="http://www.w3.org/2000/svg">
<path d="M27.9385 24.9625V4H12.1326V24.9621L8.38428 24.9622V26H31.6866V24.9625L27.9385 24.9625ZM17.3759 21.7959V24.962H13.1701V5.03734H26.9007V24.9616L22.6953 24.9617L22.6956 21.7956L17.3759 21.7959Z" fill="black"/>
<path d="M21.2764 16.1555H24.7576V18.6327H21.2764V16.1555Z" fill="black"/>
<path d="M21.2764 11.844H24.7576V14.3215H21.2764V11.844Z" fill="black"/>
<path d="M21.2764 7.53369H24.7575V10.0112H21.2764V7.53369Z" fill="black"/>
<path d="M15.3125 11.844H18.7938V14.3215H15.3125V11.844Z" fill="black"/>
<path d="M15.313 16.155H18.7942V18.6322H15.313V16.155Z" fill="black"/>
<path d="M15.3125 7.53369H18.7938V10.0112H15.3125V7.53369Z" fill="black"/>
<path d="M7.12957 12.2205L8.41609 10.1943L7.12957 8.10527L8.31977 6.23102L7.51101 5.71753L6 8.09745L7.28652 10.1868L6 12.213L7.2862 14.3022L6 16.3284L7.28652 18.4177L6 20.4436L6.03932 20.5075L7.5063 22.8903L8.32179 22.3881L7.12959 20.4515L8.41611 18.4256L7.12959 16.3362L8.41611 14.3102L7.12957 12.2205Z" fill="black"/>
<path d="M9.35352 12.2205L10.6397 10.1943L9.35352 8.10527L10.5437 6.23102L9.73496 5.71753L8.22363 8.09745L9.50984 10.1868L8.22363 12.213L9.51016 14.3022L8.22363 16.3284L9.51048 18.4177L8.22363 20.4436L8.26326 20.5075L9.72992 22.8899L10.5457 22.388L9.35353 20.4514L10.6397 18.4255L9.35353 16.3362L10.6397 14.3101L9.35352 12.2205Z" fill="black"/>
<path d="M32.7847 10.187L34.0709 8.09761L32.5599 5.71753L31.7514 6.23119L32.9416 8.10543L31.6548 10.1945L32.9416 12.221L31.6548 14.3103L32.9413 16.3364L31.6548 18.4257L32.9413 20.4516L31.7491 22.3879L31.8514 22.4509L32.5649 22.8907L34.0709 20.4441L32.7847 18.4176L34.0709 16.3285L32.7847 14.3022L34.0709 12.2133L32.7847 10.187Z" fill="black"/>
<path d="M30.5602 10.187L31.8468 8.09761L30.3356 5.71753L29.527 6.23086L30.7169 8.10543L29.4307 10.1945L30.7172 12.221L29.4307 14.3103L30.7172 16.3364L29.4307 18.4257L30.7169 20.4516L29.5249 22.3879L29.6269 22.4509L30.3408 22.8907L31.8468 20.4441L30.5602 18.4176L31.8468 16.3285L30.5602 14.3022L31.8468 12.2133L30.5602 10.187Z" fill="black"/>
</svg>
