<svg width="40" height="30" viewBox="0 0 40 30" fill="none" xmlns="http://www.w3.org/2000/svg">
<rect width="40" height="30" fill="none"/>
<g clip-path="url(#clip0_5308_31222)">
<path d="M24.0019 26.0001H8V12.5366H9.33885V24.6613H24.0019V26.0001Z" fill="#231815"/>
<path d="M15.5913 4H14.2524V13.8754H15.5913V4Z" fill="#231815"/>
<path d="M17.5327 20.5348V16.8236C17.5327 16.2554 17.7584 15.7106 18.1601 15.3088C18.5619 14.9071 19.1067 14.6814 19.6749 14.6814C20.243 14.6814 20.7879 14.9071 21.1896 15.3088C21.5913 15.7106 21.817 16.2554 21.817 16.8236V20.5375H20.4782V16.8236C20.4782 16.6105 20.3935 16.4062 20.2429 16.2555C20.0922 16.1049 19.8879 16.0202 19.6749 16.0202C19.4618 16.0202 19.2575 16.1049 19.1068 16.2555C18.9562 16.4062 18.8716 16.6105 18.8716 16.8236V20.5348H17.5327Z" fill="#231815"/>
<path d="M15.9233 17.493H14.5845V16.8236C14.5845 16.2554 14.8102 15.7106 15.2119 15.3088C15.6136 14.9071 16.1585 14.6814 16.7266 14.6814C17.2948 14.6814 17.8396 14.9071 18.2414 15.3088C18.6431 15.7106 18.8688 16.2554 18.8688 16.8236V17.493H17.5299V16.8236C17.5299 16.6105 17.4453 16.4062 17.2946 16.2555C17.144 16.1049 16.9397 16.0202 16.7266 16.0202C16.5136 16.0202 16.3093 16.1049 16.1586 16.2555C16.008 16.4062 15.9233 16.6105 15.9233 16.8236V17.493Z" fill="#231815"/>
<path d="M14.5683 20.5349V16.9254C14.5857 16.6561 14.5048 16.3897 14.3407 16.1756C14.2814 16.1221 14.2035 16.0942 14.1238 16.098L14.0515 15.4312L13.9578 14.7698C14.178 14.7453 14.4009 14.7657 14.6131 14.8296C14.8252 14.8936 15.0222 14.9999 15.1922 15.142C15.6394 15.5169 15.8804 16.1087 15.9071 16.9039V20.5322L14.5683 20.5349Z" fill="#231815"/>
<path d="M23.3781 15.6346C23.0514 15.6346 22.5132 15.6105 22.2535 15.1714C21.9937 14.7322 21.9509 14.1003 23.0327 13.2782C23.1344 13.2032 23.2523 13.1256 23.3728 13.0453C23.5629 12.9194 23.8494 12.7346 23.9083 12.6088C23.9268 12.574 23.9321 12.5337 23.9232 12.4954C23.9144 12.457 23.892 12.4231 23.8601 12.3999C23.8027 12.3688 23.7393 12.3503 23.6742 12.3457C23.6091 12.3411 23.5437 12.3504 23.4825 12.3732C23.4531 12.3732 23.4156 12.4026 23.4102 12.4187L23.2255 13.0613L21.9402 12.6891L22.1249 12.0465C22.1908 11.8281 22.3085 11.6288 22.4679 11.4656C22.6274 11.3025 22.8239 11.1802 23.0407 11.1093C23.3008 11.0187 23.5784 10.9897 23.8516 11.0246C24.1248 11.0594 24.3862 11.1572 24.6152 11.3101C24.8983 11.5086 25.1041 11.7988 25.1978 12.1316C25.2915 12.4644 25.2673 12.8193 25.1293 13.1363C24.8978 13.5753 24.5395 13.9345 24.1011 14.1672C24.0341 14.2127 23.9672 14.2556 23.9083 14.2984H25.2766V15.6373H23.3728L23.3781 15.6346Z" fill="#231815"/>
<path d="M33.232 26.0001H22.6631V16.8772H24.0019V24.6613H31.8931V13.8755H26.4145V12.5366H33.232V26.0001Z" fill="#231815"/>
<path d="M29.285 13.8754H26.4146V12.5365H27.9462V5.33885H9.33885V12.5365H21.1368V13.8754H8V4H29.285V13.8754Z" fill="#231815"/>
<path d="M33.623 10.7505H27.9463V5.07373H29.2289C30.3939 5.07515 31.5107 5.53856 32.3345 6.36231C33.1582 7.18606 33.6216 8.30289 33.623 9.46785V10.7505ZM29.2851 9.41161H32.2815C32.2664 8.6214 31.946 7.86771 31.3874 7.30859C30.8287 6.74947 30.0753 6.42836 29.2851 6.41258V9.41161Z" fill="#231815"/>
</g>
<defs>
<clipPath id="clip0_5308_31222">
<rect width="25.6229" height="22" fill="white" transform="translate(8 4)"/>
</clipPath>
</defs>
</svg>
