<svg width="40" height="30" viewBox="0 0 40 30" fill="none" xmlns="http://www.w3.org/2000/svg">
<path d="M31.8553 25.7968L27.3128 15.8838H11.7342L7.19165 25.7968H31.8553Z" stroke="#262626" stroke-width="1.2" stroke-linecap="round"/>
<path d="M31.8553 25.7968L27.3128 15.8838H11.7342L7.19165 25.7968H31.8553Z" stroke="black" stroke-width="1.2" stroke-linecap="round"/>
<path d="M9.21948 21.373H13.3403" stroke="#262626" stroke-width="1.2" stroke-linecap="round"/>
<path d="M9.21948 21.373H13.3403" stroke="black" stroke-width="1.2" stroke-linecap="round"/>
<path d="M14.8488 15.8838L12.1252 25.7968" stroke="#262626" stroke-width="1.2" stroke-linecap="round"/>
<path d="M14.8488 15.8838L12.1252 25.7968" stroke="black" stroke-width="1.2" stroke-linecap="round"/>
<path d="M14.2507 18.061H17.7659" stroke="#262626" stroke-width="1.2" stroke-linecap="round"/>
<path d="M14.2507 18.061H17.7659" stroke="black" stroke-width="1.2" stroke-linecap="round"/>
<path d="M17.9653 15.8838L17.0568 25.7968" stroke="#262626" stroke-width="1.2" stroke-linecap="round"/>
<path d="M17.9653 15.8838L17.0568 25.7968" stroke="black" stroke-width="1.2" stroke-linecap="round"/>
<path d="M17.4631 21.373H21.5839" stroke="#262626" stroke-width="1.2" stroke-linecap="round"/>
<path d="M17.4631 21.373H21.5839" stroke="black" stroke-width="1.2" stroke-linecap="round"/>
<path d="M21.0817 15.8838L21.9902 25.7968" stroke="#262626" stroke-width="1.2" stroke-linecap="round"/>
<path d="M21.0817 15.8838L21.9902 25.7968" stroke="black" stroke-width="1.2" stroke-linecap="round"/>
<path d="M21.2811 18.061H24.7962" stroke="#262626" stroke-width="1.2" stroke-linecap="round"/>
<path d="M21.2811 18.061H24.7962" stroke="black" stroke-width="1.2" stroke-linecap="round"/>
<path d="M24.1982 15.8838L26.9218 25.7968" stroke="#262626" stroke-width="1.2" stroke-linecap="round"/>
<path d="M24.1982 15.8838L26.9218 25.7968" stroke="black" stroke-width="1.2" stroke-linecap="round"/>
<path d="M25.7067 21.373H29.8275" stroke="#262626" stroke-width="1.2" stroke-linecap="round"/>
<path d="M25.7067 21.373H29.8275" stroke="black" stroke-width="1.2" stroke-linecap="round"/>
<path d="M19.5293 3.19189C19.5293 3.19189 17.2446 6.09181 19.5293 9.62423C21.0875 12.0316 20.0238 14.0326 20.0238 14.0326" stroke="#262626" stroke-width="1.2" stroke-linecap="round"/>
<path d="M19.5293 3.19189C19.5293 3.19189 17.2446 6.09181 19.5293 9.62423C21.0875 12.0316 20.0238 14.0326 20.0238 14.0326" stroke="black" stroke-width="1.2" stroke-linecap="round"/>
<path d="M14.8238 5.51465C14.8238 5.51465 12.9646 7.38915 14.8238 9.98815C16.683 12.5871 14.774 13.7755 14.774 13.7755" stroke="#262626" stroke-width="1.2" stroke-linecap="round"/>
<path d="M14.8238 5.51465C14.8238 5.51465 12.9646 7.38915 14.8238 9.98815C16.683 12.5871 14.774 13.7755 14.774 13.7755" stroke="black" stroke-width="1.2" stroke-linecap="round"/>
<path d="M24.2423 5.51465C24.2423 5.51465 22.3851 7.38915 24.2423 9.98815C26.0996 12.5871 24.1925 13.7755 24.1925 13.7755" stroke="#262626" stroke-width="1.2" stroke-linecap="round"/>
<path d="M24.2423 5.51465C24.2423 5.51465 22.3851 7.38915 24.2423 9.98815C26.0996 12.5871 24.1925 13.7755 24.1925 13.7755" stroke="black" stroke-width="1.2" stroke-linecap="round"/>
</svg>
