<svg width="40" height="30" viewBox="0 0 40 30" fill="none" xmlns="http://www.w3.org/2000/svg">
<rect width="40" height="30" fill="none"/>
<path d="M32.6329 13.9547H30.3237C30.055 13.9547 29.8266 14.1824 29.8266 14.4518V17.859V23.2496V24.4911C29.9923 24.3254 30.158 24.1597 30.3237 23.9939H28.7252H24.8869H20.2449H16.2461C15.5988 23.9939 14.9404 23.9589 14.2939 23.9939C14.2849 23.9942 14.2757 23.9939 14.2664 23.9939L14.7636 24.4911V21.0839V15.6933V14.4518C14.7636 14.1831 14.5358 13.9547 14.2664 13.9547H11.9572C12.0408 13.9772 12.1246 14.0001 12.2082 14.0226C12.1999 14.0167 12.1913 14.011 12.1831 14.0051C12.2593 14.1924 12.3355 14.3794 12.4115 14.5666C12.4139 14.5567 12.4165 14.5468 12.4189 14.5368C12.376 14.61 12.3336 14.6829 12.291 14.7563C12.9266 14.2094 13.5623 13.6625 14.1982 13.1154C15.0204 12.408 15.8424 11.7009 16.6648 10.9932C17.0493 10.6625 17.434 10.3313 17.8185 10.0006C18.7711 9.18101 19.724 8.36137 20.6764 7.54155C21.3211 6.9871 21.9906 6.45137 22.6146 5.87367C22.6248 5.86444 22.6354 5.85568 22.6461 5.84645H21.9432C22.545 6.3642 23.1465 6.88196 23.7486 7.39948C24.652 8.17669 25.5556 8.95414 26.4595 9.73142C26.9981 10.1947 27.5364 10.658 28.0745 11.1216C28.6313 11.6008 29.1881 12.0795 29.7449 12.5584C30.5775 13.2745 31.4102 13.9909 32.2426 14.7071C32.2615 14.7234 32.28 14.7393 32.2989 14.7554C32.2561 14.6822 32.2137 14.6093 32.1711 14.5359C32.1734 14.5458 32.176 14.5558 32.1784 14.5657C32.2546 14.3785 32.3309 14.1914 32.4069 14.0042C32.3986 14.0101 32.3901 14.0158 32.3818 14.0217C32.1616 14.1749 32.0603 14.4573 32.2035 14.7019C32.3309 14.9197 32.6623 15.0343 32.8837 14.8801C32.892 14.8742 32.9005 14.8685 32.9088 14.8626C33.0953 14.7326 33.1938 14.5281 33.1372 14.3011C33.0885 14.1058 32.9609 14.0167 32.8214 13.8967C32.6458 13.7457 32.4701 13.5944 32.2942 13.4433C31.8079 13.025 31.3214 12.6064 30.8352 12.1881C30.1886 11.6315 29.5416 11.0752 28.8946 10.5191C28.3872 10.0825 27.8801 9.64552 27.3726 9.20898C26.526 8.48074 25.6798 7.75255 24.8335 7.02455C24.1169 6.40807 23.4043 5.78589 22.6832 5.17486C22.6709 5.1642 22.6585 5.15355 22.6465 5.14313C22.431 4.95776 22.1602 4.95658 21.9436 5.14313C21.4 5.6107 20.8562 6.07877 20.3126 6.54653C19.339 7.38435 18.3652 8.22198 17.3913 9.0598C16.9481 9.44096 16.5049 9.82235 16.0619 10.2035C15.3105 10.85 14.5588 11.4963 13.8074 12.1431C13.3382 12.5468 12.8688 12.9504 12.3996 13.3545C12.1387 13.579 11.8633 13.7935 11.614 14.0304C11.5354 14.105 11.48 14.1928 11.4526 14.302C11.3955 14.5309 11.495 14.7338 11.681 14.8635C11.8449 14.9776 12.0738 14.949 12.2641 14.949H13.0627H14.2667C14.101 14.7832 13.9353 14.6175 13.7696 14.4518V17.859V23.2496V24.4911C13.7696 24.7598 13.9973 24.9882 14.2667 24.9882H15.8652H19.7035H24.3456H28.3444C28.994 24.9882 29.6469 25.0074 30.2966 24.9882C30.3058 24.988 30.3148 24.9882 30.324 24.9882C30.5927 24.9882 30.8212 24.7605 30.8212 24.4911V21.0839V15.6933V14.4518L30.324 14.949H32.6332C32.8934 14.949 33.1422 14.7203 33.1304 14.4518C33.1176 14.1824 32.9112 13.9547 32.6328 13.9547L32.6329 13.9547Z" fill="#262626"/>
<path d="M32.6329 13.9547H30.3237C30.055 13.9547 29.8266 14.1824 29.8266 14.4518V17.859V23.2496V24.4911C29.9923 24.3254 30.158 24.1597 30.3237 23.9939H28.7252H24.8869H20.2449H16.2461C15.5988 23.9939 14.9404 23.9589 14.2939 23.9939C14.2849 23.9942 14.2757 23.9939 14.2664 23.9939L14.7636 24.4911V21.0839V15.6933V14.4518C14.7636 14.1831 14.5358 13.9547 14.2664 13.9547H11.9572C12.0408 13.9772 12.1246 14.0001 12.2082 14.0226C12.1999 14.0167 12.1913 14.011 12.1831 14.0051C12.2593 14.1924 12.3355 14.3794 12.4115 14.5666C12.4139 14.5567 12.4165 14.5468 12.4189 14.5368C12.376 14.61 12.3336 14.6829 12.291 14.7563C12.9266 14.2094 13.5623 13.6625 14.1982 13.1154C15.0204 12.408 15.8424 11.7009 16.6648 10.9932C17.0493 10.6625 17.434 10.3313 17.8185 10.0006C18.7711 9.18101 19.724 8.36137 20.6764 7.54155C21.3211 6.9871 21.9906 6.45137 22.6146 5.87367C22.6248 5.86444 22.6354 5.85568 22.6461 5.84645H21.9432C22.545 6.3642 23.1465 6.88196 23.7486 7.39948C24.652 8.17669 25.5556 8.95414 26.4595 9.73142C26.9981 10.1947 27.5364 10.658 28.0745 11.1216C28.6313 11.6008 29.1881 12.0795 29.7449 12.5584C30.5775 13.2745 31.4102 13.9909 32.2426 14.7071C32.2615 14.7234 32.28 14.7393 32.2989 14.7554C32.2561 14.6822 32.2137 14.6093 32.1711 14.5359C32.1734 14.5458 32.176 14.5558 32.1784 14.5657C32.2546 14.3785 32.3309 14.1914 32.4069 14.0042C32.3986 14.0101 32.3901 14.0158 32.3818 14.0217C32.1616 14.1749 32.0603 14.4573 32.2035 14.7019C32.3309 14.9197 32.6623 15.0343 32.8837 14.8801C32.892 14.8742 32.9005 14.8685 32.9088 14.8626C33.0953 14.7326 33.1938 14.5281 33.1372 14.3011C33.0885 14.1058 32.9609 14.0167 32.8214 13.8967C32.6458 13.7457 32.4701 13.5944 32.2942 13.4433C31.8079 13.025 31.3214 12.6064 30.8352 12.1881C30.1886 11.6315 29.5416 11.0752 28.8946 10.5191C28.3872 10.0825 27.8801 9.64552 27.3726 9.20898C26.526 8.48074 25.6798 7.75255 24.8335 7.02455C24.1169 6.40807 23.4043 5.78589 22.6832 5.17486C22.6709 5.1642 22.6585 5.15355 22.6465 5.14313C22.431 4.95776 22.1602 4.95658 21.9436 5.14313C21.4 5.6107 20.8562 6.07877 20.3126 6.54653C19.339 7.38435 18.3652 8.22198 17.3913 9.0598C16.9481 9.44096 16.5049 9.82235 16.0619 10.2035C15.3105 10.85 14.5588 11.4963 13.8074 12.1431C13.3382 12.5468 12.8688 12.9504 12.3996 13.3545C12.1387 13.579 11.8633 13.7935 11.614 14.0304C11.5354 14.105 11.48 14.1928 11.4526 14.302C11.3955 14.5309 11.495 14.7338 11.681 14.8635C11.8449 14.9776 12.0738 14.949 12.2641 14.949H13.0627H14.2667C14.101 14.7832 13.9353 14.6175 13.7696 14.4518V17.859V23.2496V24.4911C13.7696 24.7598 13.9973 24.9882 14.2667 24.9882H15.8652H19.7035H24.3456H28.3444C28.994 24.9882 29.6469 25.0074 30.2966 24.9882C30.3058 24.988 30.3148 24.9882 30.324 24.9882C30.5927 24.9882 30.8212 24.7605 30.8212 24.4911V21.0839V15.6933V14.4518L30.324 14.949H32.6332C32.8934 14.949 33.1422 14.7203 33.1304 14.4518C33.1176 14.1824 32.9112 13.9547 32.6328 13.9547L32.6329 13.9547Z" fill="black"/>
<path d="M32.6329 13.9547H30.3237C30.055 13.9547 29.8266 14.1824 29.8266 14.4518V17.859V23.2496V24.4911C29.9923 24.3254 30.158 24.1597 30.3237 23.9939H28.7252H24.8869H20.2449H16.2461C15.5988 23.9939 14.9404 23.9589 14.2939 23.9939C14.2849 23.9942 14.2757 23.9939 14.2664 23.9939L14.7636 24.4911V21.0839V15.6933V14.4518C14.7636 14.1831 14.5358 13.9547 14.2664 13.9547H11.9572C12.0408 13.9772 12.1246 14.0001 12.2082 14.0226C12.1999 14.0167 12.1913 14.011 12.1831 14.0051C12.2593 14.1924 12.3355 14.3794 12.4115 14.5666C12.4139 14.5567 12.4165 14.5468 12.4189 14.5368C12.376 14.61 12.3336 14.6829 12.291 14.7563C12.9266 14.2094 13.5623 13.6625 14.1982 13.1154C15.0204 12.408 15.8424 11.7009 16.6648 10.9932C17.0493 10.6625 17.434 10.3313 17.8185 10.0006C18.7711 9.18101 19.724 8.36137 20.6764 7.54155C21.3211 6.9871 21.9906 6.45137 22.6146 5.87367C22.6248 5.86444 22.6354 5.85568 22.6461 5.84645H21.9432C22.545 6.3642 23.1465 6.88196 23.7486 7.39948C24.652 8.17669 25.5556 8.95414 26.4595 9.73142C26.9981 10.1947 27.5364 10.658 28.0745 11.1216C28.6313 11.6008 29.1881 12.0795 29.7449 12.5584C30.5775 13.2745 31.4102 13.9909 32.2426 14.7071C32.2615 14.7234 32.28 14.7393 32.2989 14.7554C32.2561 14.6822 32.2137 14.6093 32.1711 14.5359C32.1734 14.5458 32.176 14.5558 32.1784 14.5657C32.2546 14.3785 32.3309 14.1914 32.4069 14.0042C32.3986 14.0101 32.3901 14.0158 32.3818 14.0217C32.1616 14.1749 32.0603 14.4573 32.2035 14.7019C32.3309 14.9197 32.6623 15.0343 32.8837 14.8801C32.892 14.8742 32.9005 14.8685 32.9088 14.8626C33.0953 14.7326 33.1938 14.5281 33.1372 14.3011C33.0885 14.1058 32.9609 14.0167 32.8214 13.8967C32.6458 13.7457 32.4701 13.5944 32.2942 13.4433C31.8079 13.025 31.3214 12.6064 30.8352 12.1881C30.1886 11.6315 29.5416 11.0752 28.8946 10.5191C28.3872 10.0825 27.8801 9.64552 27.3726 9.20898C26.526 8.48074 25.6798 7.75255 24.8335 7.02455C24.1169 6.40807 23.4043 5.78589 22.6832 5.17486C22.6709 5.1642 22.6585 5.15355 22.6465 5.14313C22.431 4.95776 22.1602 4.95658 21.9436 5.14313C21.4 5.6107 20.8562 6.07877 20.3126 6.54653C19.339 7.38435 18.3652 8.22198 17.3913 9.0598C16.9481 9.44096 16.5049 9.82235 16.0619 10.2035C15.3105 10.85 14.5588 11.4963 13.8074 12.1431C13.3382 12.5468 12.8688 12.9504 12.3996 13.3545C12.1387 13.579 11.8633 13.7935 11.614 14.0304C11.5354 14.105 11.48 14.1928 11.4526 14.302C11.3955 14.5309 11.495 14.7338 11.681 14.8635C11.8449 14.9776 12.0738 14.949 12.2641 14.949H13.0627H14.2667C14.101 14.7832 13.9353 14.6175 13.7696 14.4518V17.859V23.2496V24.4911C13.7696 24.7598 13.9973 24.9882 14.2667 24.9882H15.8652H19.7035H24.3456H28.3444C28.994 24.9882 29.6469 25.0074 30.2966 24.9882C30.3058 24.988 30.3148 24.9882 30.324 24.9882C30.5927 24.9882 30.8212 24.7605 30.8212 24.4911V21.0839V15.6933V14.4518L30.324 14.949H32.6332C32.8934 14.949 33.1422 14.7203 33.1304 14.4518C33.1176 14.1824 32.9112 13.9547 32.6328 13.9547L32.6329 13.9547Z" stroke="#262626" stroke-width="0.6"/>
<path d="M32.6329 13.9547H30.3237C30.055 13.9547 29.8266 14.1824 29.8266 14.4518V17.859V23.2496V24.4911C29.9923 24.3254 30.158 24.1597 30.3237 23.9939H28.7252H24.8869H20.2449H16.2461C15.5988 23.9939 14.9404 23.9589 14.2939 23.9939C14.2849 23.9942 14.2757 23.9939 14.2664 23.9939L14.7636 24.4911V21.0839V15.6933V14.4518C14.7636 14.1831 14.5358 13.9547 14.2664 13.9547H11.9572C12.0408 13.9772 12.1246 14.0001 12.2082 14.0226C12.1999 14.0167 12.1913 14.011 12.1831 14.0051C12.2593 14.1924 12.3355 14.3794 12.4115 14.5666C12.4139 14.5567 12.4165 14.5468 12.4189 14.5368C12.376 14.61 12.3336 14.6829 12.291 14.7563C12.9266 14.2094 13.5623 13.6625 14.1982 13.1154C15.0204 12.408 15.8424 11.7009 16.6648 10.9932C17.0493 10.6625 17.434 10.3313 17.8185 10.0006C18.7711 9.18101 19.724 8.36137 20.6764 7.54155C21.3211 6.9871 21.9906 6.45137 22.6146 5.87367C22.6248 5.86444 22.6354 5.85568 22.6461 5.84645H21.9432C22.545 6.3642 23.1465 6.88196 23.7486 7.39948C24.652 8.17669 25.5556 8.95414 26.4595 9.73142C26.9981 10.1947 27.5364 10.658 28.0745 11.1216C28.6313 11.6008 29.1881 12.0795 29.7449 12.5584C30.5775 13.2745 31.4102 13.9909 32.2426 14.7071C32.2615 14.7234 32.28 14.7393 32.2989 14.7554C32.2561 14.6822 32.2137 14.6093 32.1711 14.5359C32.1734 14.5458 32.176 14.5558 32.1784 14.5657C32.2546 14.3785 32.3309 14.1914 32.4069 14.0042C32.3986 14.0101 32.3901 14.0158 32.3818 14.0217C32.1616 14.1749 32.0603 14.4573 32.2035 14.7019C32.3309 14.9197 32.6623 15.0343 32.8837 14.8801C32.892 14.8742 32.9005 14.8685 32.9088 14.8626C33.0953 14.7326 33.1938 14.5281 33.1372 14.3011C33.0885 14.1058 32.9609 14.0167 32.8214 13.8967C32.6458 13.7457 32.4701 13.5944 32.2942 13.4433C31.8079 13.025 31.3214 12.6064 30.8352 12.1881C30.1886 11.6315 29.5416 11.0752 28.8946 10.5191C28.3872 10.0825 27.8801 9.64552 27.3726 9.20898C26.526 8.48074 25.6798 7.75255 24.8335 7.02455C24.1169 6.40807 23.4043 5.78589 22.6832 5.17486C22.6709 5.1642 22.6585 5.15355 22.6465 5.14313C22.431 4.95776 22.1602 4.95658 21.9436 5.14313C21.4 5.6107 20.8562 6.07877 20.3126 6.54653C19.339 7.38435 18.3652 8.22198 17.3913 9.0598C16.9481 9.44096 16.5049 9.82235 16.0619 10.2035C15.3105 10.85 14.5588 11.4963 13.8074 12.1431C13.3382 12.5468 12.8688 12.9504 12.3996 13.3545C12.1387 13.579 11.8633 13.7935 11.614 14.0304C11.5354 14.105 11.48 14.1928 11.4526 14.302C11.3955 14.5309 11.495 14.7338 11.681 14.8635C11.8449 14.9776 12.0738 14.949 12.2641 14.949H13.0627H14.2667C14.101 14.7832 13.9353 14.6175 13.7696 14.4518V17.859V23.2496V24.4911C13.7696 24.7598 13.9973 24.9882 14.2667 24.9882H15.8652H19.7035H24.3456H28.3444C28.994 24.9882 29.6469 25.0074 30.2966 24.9882C30.3058 24.988 30.3148 24.9882 30.324 24.9882C30.5927 24.9882 30.8212 24.7605 30.8212 24.4911V21.0839V15.6933V14.4518L30.324 14.949H32.6332C32.8934 14.949 33.1422 14.7203 33.1304 14.4518C33.1176 14.1824 32.9112 13.9547 32.6328 13.9547L32.6329 13.9547Z" stroke="black" stroke-width="0.6"/>
<path d="M24.8832 16.3518H22.3941H20.6232C20.3226 16.3518 20.0167 16.3353 19.7165 16.3518C19.3384 16.3724 19.0702 16.6421 19.0595 17.0216C19.0571 17.1071 19.0595 17.193 19.0595 17.2785V18.4667V22.0737C19.0595 22.866 19.0399 23.6613 19.0595 24.4537C19.0598 24.466 19.0595 24.4785 19.0595 24.4909C19.0595 24.7596 19.2873 24.988 19.5567 24.988H24.3443H25.0327C25.3015 24.988 25.5299 24.7603 25.5299 24.4909V21.8218V17.7361C25.5299 17.2813 25.6528 16.4553 25.0152 16.3696C24.7586 16.3351 24.4686 16.431 24.4037 16.7169C24.3507 16.9499 24.4752 17.2913 24.751 17.3285C24.8083 17.336 24.8656 17.3436 24.9231 17.3517C24.8396 17.3292 24.7558 17.3062 24.6722 17.2837C24.6977 17.2906 24.7195 17.3036 24.7382 17.3221C24.6788 17.2626 24.6191 17.203 24.56 17.1438C24.5784 17.1623 24.5914 17.1845 24.5983 17.2098C24.5758 17.1263 24.5529 17.0425 24.5304 16.9589C24.5637 17.2075 24.5356 17.4757 24.5356 17.7259V19.5098V23.5581V24.4909C24.7013 24.3252 24.867 24.1595 25.0327 23.9937H20.2451H19.5567L20.0538 24.4909V22.5875V19.0054V17.607V17.1801C20.0538 17.1273 20.0678 17.0527 20.0538 17.0014C20.073 17.0719 19.5716 17.3214 19.7366 17.3463C19.7771 17.3522 19.8228 17.3463 19.8635 17.3463H20.3774H22.0141C22.9521 17.3463 23.8919 17.3643 24.8296 17.3463C24.8472 17.3461 24.8647 17.3463 24.8827 17.3463C25.1429 17.3463 25.3917 17.1176 25.3798 16.8492C25.3685 16.5795 25.162 16.352 24.8831 16.352L24.8832 16.3518Z" fill="#262626"/>
<path d="M24.8832 16.3518H22.3941H20.6232C20.3226 16.3518 20.0167 16.3353 19.7165 16.3518C19.3384 16.3724 19.0702 16.6421 19.0595 17.0216C19.0571 17.1071 19.0595 17.193 19.0595 17.2785V18.4667V22.0737C19.0595 22.866 19.0399 23.6613 19.0595 24.4537C19.0598 24.466 19.0595 24.4785 19.0595 24.4909C19.0595 24.7596 19.2873 24.988 19.5567 24.988H24.3443H25.0327C25.3015 24.988 25.5299 24.7603 25.5299 24.4909V21.8218V17.7361C25.5299 17.2813 25.6528 16.4553 25.0152 16.3696C24.7586 16.3351 24.4686 16.431 24.4037 16.7169C24.3507 16.9499 24.4752 17.2913 24.751 17.3285C24.8083 17.336 24.8656 17.3436 24.9231 17.3517C24.8396 17.3292 24.7558 17.3062 24.6722 17.2837C24.6977 17.2906 24.7195 17.3036 24.7382 17.3221C24.6788 17.2626 24.6191 17.203 24.56 17.1438C24.5784 17.1623 24.5914 17.1845 24.5983 17.2098C24.5758 17.1263 24.5529 17.0425 24.5304 16.9589C24.5637 17.2075 24.5356 17.4757 24.5356 17.7259V19.5098V23.5581V24.4909C24.7013 24.3252 24.867 24.1595 25.0327 23.9937H20.2451H19.5567L20.0538 24.4909V22.5875V19.0054V17.607V17.1801C20.0538 17.1273 20.0678 17.0527 20.0538 17.0014C20.073 17.0719 19.5716 17.3214 19.7366 17.3463C19.7771 17.3522 19.8228 17.3463 19.8635 17.3463H20.3774H22.0141C22.9521 17.3463 23.8919 17.3643 24.8296 17.3463C24.8472 17.3461 24.8647 17.3463 24.8827 17.3463C25.1429 17.3463 25.3917 17.1176 25.3798 16.8492C25.3685 16.5795 25.162 16.352 24.8831 16.352L24.8832 16.3518Z" fill="black"/>
<path d="M24.8832 16.3518H22.3941H20.6232C20.3226 16.3518 20.0167 16.3353 19.7165 16.3518C19.3384 16.3724 19.0702 16.6421 19.0595 17.0216C19.0571 17.1071 19.0595 17.193 19.0595 17.2785V18.4667V22.0737C19.0595 22.866 19.0399 23.6613 19.0595 24.4537C19.0598 24.466 19.0595 24.4785 19.0595 24.4909C19.0595 24.7596 19.2873 24.988 19.5567 24.988H24.3443H25.0327C25.3015 24.988 25.5299 24.7603 25.5299 24.4909V21.8218V17.7361C25.5299 17.2813 25.6528 16.4553 25.0152 16.3696C24.7586 16.3351 24.4686 16.431 24.4037 16.7169C24.3507 16.9499 24.4752 17.2913 24.751 17.3285C24.8083 17.336 24.8656 17.3436 24.9231 17.3517C24.8396 17.3292 24.7558 17.3062 24.6722 17.2837C24.6977 17.2906 24.7195 17.3036 24.7382 17.3221C24.6788 17.2626 24.6191 17.203 24.56 17.1438C24.5784 17.1623 24.5914 17.1845 24.5983 17.2098C24.5758 17.1263 24.5529 17.0425 24.5304 16.9589C24.5637 17.2075 24.5356 17.4757 24.5356 17.7259V19.5098V23.5581V24.4909C24.7013 24.3252 24.867 24.1595 25.0327 23.9937H20.2451H19.5567L20.0538 24.4909V22.5875V19.0054V17.607V17.1801C20.0538 17.1273 20.0678 17.0527 20.0538 17.0014C20.073 17.0719 19.5716 17.3214 19.7366 17.3463C19.7771 17.3522 19.8228 17.3463 19.8635 17.3463H20.3774H22.0141C22.9521 17.3463 23.8919 17.3643 24.8296 17.3463C24.8472 17.3461 24.8647 17.3463 24.8827 17.3463C25.1429 17.3463 25.3917 17.1176 25.3798 16.8492C25.3685 16.5795 25.162 16.352 24.8831 16.352L24.8832 16.3518Z" stroke="#262626" stroke-width="0.6"/>
<path d="M24.8832 16.3518H22.3941H20.6232C20.3226 16.3518 20.0167 16.3353 19.7165 16.3518C19.3384 16.3724 19.0702 16.6421 19.0595 17.0216C19.0571 17.1071 19.0595 17.193 19.0595 17.2785V18.4667V22.0737C19.0595 22.866 19.0399 23.6613 19.0595 24.4537C19.0598 24.466 19.0595 24.4785 19.0595 24.4909C19.0595 24.7596 19.2873 24.988 19.5567 24.988H24.3443H25.0327C25.3015 24.988 25.5299 24.7603 25.5299 24.4909V21.8218V17.7361C25.5299 17.2813 25.6528 16.4553 25.0152 16.3696C24.7586 16.3351 24.4686 16.431 24.4037 16.7169C24.3507 16.9499 24.4752 17.2913 24.751 17.3285C24.8083 17.336 24.8656 17.3436 24.9231 17.3517C24.8396 17.3292 24.7558 17.3062 24.6722 17.2837C24.6977 17.2906 24.7195 17.3036 24.7382 17.3221C24.6788 17.2626 24.6191 17.203 24.56 17.1438C24.5784 17.1623 24.5914 17.1845 24.5983 17.2098C24.5758 17.1263 24.5529 17.0425 24.5304 16.9589C24.5637 17.2075 24.5356 17.4757 24.5356 17.7259V19.5098V23.5581V24.4909C24.7013 24.3252 24.867 24.1595 25.0327 23.9937H20.2451H19.5567L20.0538 24.4909V22.5875V19.0054V17.607V17.1801C20.0538 17.1273 20.0678 17.0527 20.0538 17.0014C20.073 17.0719 19.5716 17.3214 19.7366 17.3463C19.7771 17.3522 19.8228 17.3463 19.8635 17.3463H20.3774H22.0141C22.9521 17.3463 23.8919 17.3643 24.8296 17.3463C24.8472 17.3461 24.8647 17.3463 24.8827 17.3463C25.1429 17.3463 25.3917 17.1176 25.3798 16.8492C25.3685 16.5795 25.162 16.352 24.8831 16.352L24.8832 16.3518Z" stroke="black" stroke-width="0.6"/>
<path d="M28.9754 7.55392V11.1626V11.6694C29.2586 11.552 29.5412 11.4351 29.8241 11.3179C29.1752 10.7594 28.5258 10.2009 27.8769 9.64243C27.7834 9.56218 27.6899 9.48169 27.5969 9.40143C27.6452 9.51885 27.6939 9.6358 27.7425 9.75299V7.5539C27.6942 7.67132 27.6454 7.78827 27.5969 7.90546C27.5976 7.90475 27.5983 7.90404 27.5992 7.90309C27.4818 7.95139 27.3649 8.00016 27.2477 8.04869H29.4707C29.3533 8.00039 29.2363 7.95162 29.1191 7.90309C29.1198 7.9038 29.1205 7.90451 29.1215 7.90546C29.3114 8.09533 29.6345 8.09533 29.8244 7.90546C30.015 7.71489 30.015 7.39268 29.8244 7.20255C29.622 7.00014 29.2619 7.05482 28.9989 7.05482H27.9241C27.7013 7.05482 27.476 7.04512 27.2532 7.05482C26.9464 7.06808 26.7586 7.28944 26.748 7.58513C26.7444 7.68101 26.748 7.7776 26.748 7.87348C26.748 8.48572 26.7283 9.10148 26.748 9.71318C26.7565 9.98141 26.8858 10.0979 27.0631 10.2508C27.2949 10.4499 27.5262 10.6493 27.7577 10.8484C28.212 11.2395 28.6665 11.6303 29.1208 12.0214C29.4374 12.2939 29.9696 12.1234 29.9696 11.6698V8.06116V7.55429C29.9696 7.29411 29.7409 7.0453 29.4724 7.05713C29.2032 7.06897 28.9755 7.27518 28.9755 7.55382L28.9754 7.55392Z" fill="#262626"/>
<path d="M28.9754 7.55392V11.1626V11.6694C29.2586 11.552 29.5412 11.4351 29.8241 11.3179C29.1752 10.7594 28.5258 10.2009 27.8769 9.64243C27.7834 9.56218 27.6899 9.48169 27.5969 9.40143C27.6452 9.51885 27.6939 9.6358 27.7425 9.75299V7.5539C27.6942 7.67132 27.6454 7.78827 27.5969 7.90546C27.5976 7.90475 27.5983 7.90404 27.5992 7.90309C27.4818 7.95139 27.3649 8.00016 27.2477 8.04869H29.4707C29.3533 8.00039 29.2363 7.95162 29.1191 7.90309C29.1198 7.9038 29.1205 7.90451 29.1215 7.90546C29.3114 8.09533 29.6345 8.09533 29.8244 7.90546C30.015 7.71489 30.015 7.39268 29.8244 7.20255C29.622 7.00014 29.2619 7.05482 28.9989 7.05482H27.9241C27.7013 7.05482 27.476 7.04512 27.2532 7.05482C26.9464 7.06808 26.7586 7.28944 26.748 7.58513C26.7444 7.68101 26.748 7.7776 26.748 7.87348C26.748 8.48572 26.7283 9.10148 26.748 9.71318C26.7565 9.98141 26.8858 10.0979 27.0631 10.2508C27.2949 10.4499 27.5262 10.6493 27.7577 10.8484C28.212 11.2395 28.6665 11.6303 29.1208 12.0214C29.4374 12.2939 29.9696 12.1234 29.9696 11.6698V8.06116V7.55429C29.9696 7.29411 29.7409 7.0453 29.4724 7.05713C29.2032 7.06897 28.9755 7.27518 28.9755 7.55382L28.9754 7.55392Z" fill="black"/>
<path d="M28.9754 7.55392V11.1626V11.6694C29.2586 11.552 29.5412 11.4351 29.8241 11.3179C29.1752 10.7594 28.5258 10.2009 27.8769 9.64243C27.7834 9.56218 27.6899 9.48169 27.5969 9.40143C27.6452 9.51885 27.6939 9.6358 27.7425 9.75299V7.5539C27.6942 7.67132 27.6454 7.78827 27.5969 7.90546C27.5976 7.90475 27.5983 7.90404 27.5992 7.90309C27.4818 7.95139 27.3649 8.00016 27.2477 8.04869H29.4707C29.3533 8.00039 29.2363 7.95162 29.1191 7.90309C29.1198 7.9038 29.1205 7.90451 29.1215 7.90546C29.3114 8.09533 29.6345 8.09533 29.8244 7.90546C30.015 7.71489 30.015 7.39268 29.8244 7.20255C29.622 7.00014 29.2619 7.05482 28.9989 7.05482H27.9241C27.7013 7.05482 27.476 7.04512 27.2532 7.05482C26.9464 7.06808 26.7586 7.28944 26.748 7.58513C26.7444 7.68101 26.748 7.7776 26.748 7.87348C26.748 8.48572 26.7283 9.10148 26.748 9.71318C26.7565 9.98141 26.8858 10.0979 27.0631 10.2508C27.2949 10.4499 27.5262 10.6493 27.7577 10.8484C28.212 11.2395 28.6665 11.6303 29.1208 12.0214C29.4374 12.2939 29.9696 12.1234 29.9696 11.6698V8.06116V7.55429C29.9696 7.29411 29.7409 7.0453 29.4724 7.05713C29.2032 7.06897 28.9755 7.27518 28.9755 7.55382L28.9754 7.55392Z" stroke="#262626" stroke-width="0.6"/>
<path d="M28.9754 7.55392V11.1626V11.6694C29.2586 11.552 29.5412 11.4351 29.8241 11.3179C29.1752 10.7594 28.5258 10.2009 27.8769 9.64243C27.7834 9.56218 27.6899 9.48169 27.5969 9.40143C27.6452 9.51885 27.6939 9.6358 27.7425 9.75299V7.5539C27.6942 7.67132 27.6454 7.78827 27.5969 7.90546C27.5976 7.90475 27.5983 7.90404 27.5992 7.90309C27.4818 7.95139 27.3649 8.00016 27.2477 8.04869H29.4707C29.3533 8.00039 29.2363 7.95162 29.1191 7.90309C29.1198 7.9038 29.1205 7.90451 29.1215 7.90546C29.3114 8.09533 29.6345 8.09533 29.8244 7.90546C30.015 7.71489 30.015 7.39268 29.8244 7.20255C29.622 7.00014 29.2619 7.05482 28.9989 7.05482H27.9241C27.7013 7.05482 27.476 7.04512 27.2532 7.05482C26.9464 7.06808 26.7586 7.28944 26.748 7.58513C26.7444 7.68101 26.748 7.7776 26.748 7.87348C26.748 8.48572 26.7283 9.10148 26.748 9.71318C26.7565 9.98141 26.8858 10.0979 27.0631 10.2508C27.2949 10.4499 27.5262 10.6493 27.7577 10.8484C28.212 11.2395 28.6665 11.6303 29.1208 12.0214C29.4374 12.2939 29.9696 12.1234 29.9696 11.6698V8.06116V7.55429C29.9696 7.29411 29.7409 7.0453 29.4724 7.05713C29.2032 7.06897 28.9755 7.27518 28.9755 7.55382L28.9754 7.55392Z" stroke="black" stroke-width="0.6"/>
<path d="M11.957 14.9487H14.2662L13.7691 14.4515V17.3473V21.9586V23.0109C13.9348 22.8452 14.1005 22.6794 14.2662 22.5137H11.6311H7.42679H6.45637C6.62209 22.6794 6.78781 22.8452 6.95353 23.0109V20.2443V15.8402V14.8367C6.95353 14.5679 6.72578 14.3395 6.45637 14.3395H4.5757C4.65927 14.362 4.74308 14.3849 4.82665 14.4074C4.81978 14.4027 4.81315 14.3977 4.80605 14.3932C4.88228 14.5805 4.95851 14.7675 5.03451 14.9548C5.0364 14.9467 5.03853 14.9385 5.0409 14.9306C4.99805 15.0038 4.95567 15.0767 4.91306 15.1501C5.86572 14.3305 6.81815 13.5111 7.77075 12.6916C9.27972 11.3933 10.7892 10.0947 12.2982 8.79641C12.6472 8.49622 12.9961 8.19627 13.3449 7.89586H12.642C13.6498 8.76283 14.6574 9.62998 15.6654 10.4969C15.811 10.6222 15.9564 10.7474 16.102 10.8724V10.1695C15.5842 10.6151 15.0665 11.0601 14.5489 11.5055C13.7345 12.2058 12.9206 12.9065 12.1062 13.6068C11.8922 13.791 11.5252 14.0095 11.4523 14.3021C11.3953 14.531 11.4947 14.7339 11.6808 14.8637C11.6891 14.8696 11.6976 14.8753 11.7059 14.8812C11.9263 15.0346 12.258 14.9217 12.3861 14.7029C12.5309 14.4553 12.4289 14.1766 12.2078 14.0227C12.1995 14.0168 12.191 14.0111 12.1827 14.0052C12.2589 14.1925 12.3352 14.3795 12.4112 14.5668C12.4135 14.5568 12.4161 14.5469 12.4185 14.5369C12.3756 14.6101 12.3333 14.683 12.2907 14.7564C12.8004 14.318 13.31 13.8795 13.8196 13.4408C14.6276 12.7457 15.4356 12.0505 16.2438 11.3554C16.4308 11.1946 16.6181 11.0336 16.8049 10.8729C16.9981 10.7069 16.9974 10.3357 16.8049 10.17C15.7971 9.30302 14.7895 8.43587 13.7814 7.5689C13.6358 7.44366 13.4905 7.31843 13.3449 7.19343C13.1294 7.00806 12.8586 7.00687 12.642 7.19343C11.6815 8.01967 10.7211 8.84591 9.76033 9.67258C8.24209 10.9787 6.72367 12.285 5.20567 13.5911C4.9604 13.8018 4.71538 14.013 4.47009 14.2239C4.31195 14.3598 4.13036 14.476 4.07592 14.6915C4.01791 14.9204 4.119 15.1233 4.30437 15.253C4.45092 15.3555 4.64102 15.3352 4.81076 15.3352H5.46701H6.45634C6.29062 15.1694 6.1249 15.0037 5.95918 14.838V17.6046V22.0087V23.0122C5.95918 23.281 6.18693 23.5094 6.45634 23.5094H9.09149H13.2958H14.2662C14.5349 23.5094 14.7634 23.2817 14.7634 23.0122V20.1164V15.5052V14.4529C14.7634 14.1842 14.5356 13.9557 14.2662 13.9557H11.957C11.6968 13.9557 11.448 14.1844 11.4598 14.4529C11.4719 14.7206 11.6784 14.9486 11.957 14.9486L11.957 14.9487Z" fill="#262626"/>
<path d="M11.957 14.9487H14.2662L13.7691 14.4515V17.3473V21.9586V23.0109C13.9348 22.8452 14.1005 22.6794 14.2662 22.5137H11.6311H7.42679H6.45637C6.62209 22.6794 6.78781 22.8452 6.95353 23.0109V20.2443V15.8402V14.8367C6.95353 14.5679 6.72578 14.3395 6.45637 14.3395H4.5757C4.65927 14.362 4.74308 14.3849 4.82665 14.4074C4.81978 14.4027 4.81315 14.3977 4.80605 14.3932C4.88228 14.5805 4.95851 14.7675 5.03451 14.9548C5.0364 14.9467 5.03853 14.9385 5.0409 14.9306C4.99805 15.0038 4.95567 15.0767 4.91306 15.1501C5.86572 14.3305 6.81815 13.5111 7.77075 12.6916C9.27972 11.3933 10.7892 10.0947 12.2982 8.79641C12.6472 8.49622 12.9961 8.19627 13.3449 7.89586H12.642C13.6498 8.76283 14.6574 9.62998 15.6654 10.4969C15.811 10.6222 15.9564 10.7474 16.102 10.8724V10.1695C15.5842 10.6151 15.0665 11.0601 14.5489 11.5055C13.7345 12.2058 12.9206 12.9065 12.1062 13.6068C11.8922 13.791 11.5252 14.0095 11.4523 14.3021C11.3953 14.531 11.4947 14.7339 11.6808 14.8637C11.6891 14.8696 11.6976 14.8753 11.7059 14.8812C11.9263 15.0346 12.258 14.9217 12.3861 14.7029C12.5309 14.4553 12.4289 14.1766 12.2078 14.0227C12.1995 14.0168 12.191 14.0111 12.1827 14.0052C12.2589 14.1925 12.3352 14.3795 12.4112 14.5668C12.4135 14.5568 12.4161 14.5469 12.4185 14.5369C12.3756 14.6101 12.3333 14.683 12.2907 14.7564C12.8004 14.318 13.31 13.8795 13.8196 13.4408C14.6276 12.7457 15.4356 12.0505 16.2438 11.3554C16.4308 11.1946 16.6181 11.0336 16.8049 10.8729C16.9981 10.7069 16.9974 10.3357 16.8049 10.17C15.7971 9.30302 14.7895 8.43587 13.7814 7.5689C13.6358 7.44366 13.4905 7.31843 13.3449 7.19343C13.1294 7.00806 12.8586 7.00687 12.642 7.19343C11.6815 8.01967 10.7211 8.84591 9.76033 9.67258C8.24209 10.9787 6.72367 12.285 5.20567 13.5911C4.9604 13.8018 4.71538 14.013 4.47009 14.2239C4.31195 14.3598 4.13036 14.476 4.07592 14.6915C4.01791 14.9204 4.119 15.1233 4.30437 15.253C4.45092 15.3555 4.64102 15.3352 4.81076 15.3352H5.46701H6.45634C6.29062 15.1694 6.1249 15.0037 5.95918 14.838V17.6046V22.0087V23.0122C5.95918 23.281 6.18693 23.5094 6.45634 23.5094H9.09149H13.2958H14.2662C14.5349 23.5094 14.7634 23.2817 14.7634 23.0122V20.1164V15.5052V14.4529C14.7634 14.1842 14.5356 13.9557 14.2662 13.9557H11.957C11.6968 13.9557 11.448 14.1844 11.4598 14.4529C11.4719 14.7206 11.6784 14.9486 11.957 14.9486L11.957 14.9487Z" fill="black"/>
<path d="M11.957 14.9487H14.2662L13.7691 14.4515V17.3473V21.9586V23.0109C13.9348 22.8452 14.1005 22.6794 14.2662 22.5137H11.6311H7.42679H6.45637C6.62209 22.6794 6.78781 22.8452 6.95353 23.0109V20.2443V15.8402V14.8367C6.95353 14.5679 6.72578 14.3395 6.45637 14.3395H4.5757C4.65927 14.362 4.74308 14.3849 4.82665 14.4074C4.81978 14.4027 4.81315 14.3977 4.80605 14.3932C4.88228 14.5805 4.95851 14.7675 5.03451 14.9548C5.0364 14.9467 5.03853 14.9385 5.0409 14.9306C4.99805 15.0038 4.95567 15.0767 4.91306 15.1501C5.86572 14.3305 6.81815 13.5111 7.77075 12.6916C9.27972 11.3933 10.7892 10.0947 12.2982 8.79641C12.6472 8.49622 12.9961 8.19627 13.3449 7.89586H12.642C13.6498 8.76283 14.6574 9.62998 15.6654 10.4969C15.811 10.6222 15.9564 10.7474 16.102 10.8724V10.1695C15.5842 10.6151 15.0665 11.0601 14.5489 11.5055C13.7345 12.2058 12.9206 12.9065 12.1062 13.6068C11.8922 13.791 11.5252 14.0095 11.4523 14.3021C11.3953 14.531 11.4947 14.7339 11.6808 14.8637C11.6891 14.8696 11.6976 14.8753 11.7059 14.8812C11.9263 15.0346 12.258 14.9217 12.3861 14.7029C12.5309 14.4553 12.4289 14.1766 12.2078 14.0227C12.1995 14.0168 12.191 14.0111 12.1827 14.0052C12.2589 14.1925 12.3352 14.3795 12.4112 14.5668C12.4135 14.5568 12.4161 14.5469 12.4185 14.5369C12.3756 14.6101 12.3333 14.683 12.2907 14.7564C12.8004 14.318 13.31 13.8795 13.8196 13.4408C14.6276 12.7457 15.4356 12.0505 16.2438 11.3554C16.4308 11.1946 16.6181 11.0336 16.8049 10.8729C16.9981 10.7069 16.9974 10.3357 16.8049 10.17C15.7971 9.30302 14.7895 8.43587 13.7814 7.5689C13.6358 7.44366 13.4905 7.31843 13.3449 7.19343C13.1294 7.00806 12.8586 7.00687 12.642 7.19343C11.6815 8.01967 10.7211 8.84591 9.76033 9.67258C8.24209 10.9787 6.72367 12.285 5.20567 13.5911C4.9604 13.8018 4.71538 14.013 4.47009 14.2239C4.31195 14.3598 4.13036 14.476 4.07592 14.6915C4.01791 14.9204 4.119 15.1233 4.30437 15.253C4.45092 15.3555 4.64102 15.3352 4.81076 15.3352H5.46701H6.45634C6.29062 15.1694 6.1249 15.0037 5.95918 14.838V17.6046V22.0087V23.0122C5.95918 23.281 6.18693 23.5094 6.45634 23.5094H9.09149H13.2958H14.2662C14.5349 23.5094 14.7634 23.2817 14.7634 23.0122V20.1164V15.5052V14.4529C14.7634 14.1842 14.5356 13.9557 14.2662 13.9557H11.957C11.6968 13.9557 11.448 14.1844 11.4598 14.4529C11.4719 14.7206 11.6784 14.9486 11.957 14.9486L11.957 14.9487Z" stroke="#262626" stroke-width="0.6"/>
<path d="M11.957 14.9487H14.2662L13.7691 14.4515V17.3473V21.9586V23.0109C13.9348 22.8452 14.1005 22.6794 14.2662 22.5137H11.6311H7.42679H6.45637C6.62209 22.6794 6.78781 22.8452 6.95353 23.0109V20.2443V15.8402V14.8367C6.95353 14.5679 6.72578 14.3395 6.45637 14.3395H4.5757C4.65927 14.362 4.74308 14.3849 4.82665 14.4074C4.81978 14.4027 4.81315 14.3977 4.80605 14.3932C4.88228 14.5805 4.95851 14.7675 5.03451 14.9548C5.0364 14.9467 5.03853 14.9385 5.0409 14.9306C4.99805 15.0038 4.95567 15.0767 4.91306 15.1501C5.86572 14.3305 6.81815 13.5111 7.77075 12.6916C9.27972 11.3933 10.7892 10.0947 12.2982 8.79641C12.6472 8.49622 12.9961 8.19627 13.3449 7.89586H12.642C13.6498 8.76283 14.6574 9.62998 15.6654 10.4969C15.811 10.6222 15.9564 10.7474 16.102 10.8724V10.1695C15.5842 10.6151 15.0665 11.0601 14.5489 11.5055C13.7345 12.2058 12.9206 12.9065 12.1062 13.6068C11.8922 13.791 11.5252 14.0095 11.4523 14.3021C11.3953 14.531 11.4947 14.7339 11.6808 14.8637C11.6891 14.8696 11.6976 14.8753 11.7059 14.8812C11.9263 15.0346 12.258 14.9217 12.3861 14.7029C12.5309 14.4553 12.4289 14.1766 12.2078 14.0227C12.1995 14.0168 12.191 14.0111 12.1827 14.0052C12.2589 14.1925 12.3352 14.3795 12.4112 14.5668C12.4135 14.5568 12.4161 14.5469 12.4185 14.5369C12.3756 14.6101 12.3333 14.683 12.2907 14.7564C12.8004 14.318 13.31 13.8795 13.8196 13.4408C14.6276 12.7457 15.4356 12.0505 16.2438 11.3554C16.4308 11.1946 16.6181 11.0336 16.8049 10.8729C16.9981 10.7069 16.9974 10.3357 16.8049 10.17C15.7971 9.30302 14.7895 8.43587 13.7814 7.5689C13.6358 7.44366 13.4905 7.31843 13.3449 7.19343C13.1294 7.00806 12.8586 7.00687 12.642 7.19343C11.6815 8.01967 10.7211 8.84591 9.76033 9.67258C8.24209 10.9787 6.72367 12.285 5.20567 13.5911C4.9604 13.8018 4.71538 14.013 4.47009 14.2239C4.31195 14.3598 4.13036 14.476 4.07592 14.6915C4.01791 14.9204 4.119 15.1233 4.30437 15.253C4.45092 15.3555 4.64102 15.3352 4.81076 15.3352H5.46701H6.45634C6.29062 15.1694 6.1249 15.0037 5.95918 14.838V17.6046V22.0087V23.0122C5.95918 23.281 6.18693 23.5094 6.45634 23.5094H9.09149H13.2958H14.2662C14.5349 23.5094 14.7634 23.2817 14.7634 23.0122V20.1164V15.5052V14.4529C14.7634 14.1842 14.5356 13.9557 14.2662 13.9557H11.957C11.6968 13.9557 11.448 14.1844 11.4598 14.4529C11.4719 14.7206 11.6784 14.9486 11.957 14.9486L11.957 14.9487Z" stroke="black" stroke-width="0.6"/>
</svg>
