<svg width="40" height="30" viewBox="0 0 40 30" fill="none" xmlns="http://www.w3.org/2000/svg">
<path d="M16.4286 4.28564V15.7142H15V4.28564H16.4286Z" fill="#262626"/>
<path d="M16.4286 4.28564V15.7142H15V4.28564H16.4286Z" fill="black"/>
<path d="M29.2858 15V10.7143H30.7143V15H29.2858Z" fill="#262626"/>
<path d="M29.2858 15V10.7143H30.7143V15H29.2858Z" fill="black"/>
<path d="M26.4286 15V10.7143H27.8572V15H26.4286Z" fill="#262626"/>
<path d="M26.4286 15V10.7143H27.8572V15H26.4286Z" fill="black"/>
<path d="M23.5714 15V10.7143H25V15H23.5714Z" fill="#262626"/>
<path d="M23.5714 15V10.7143H25V15H23.5714Z" fill="black"/>
<path d="M20.7142 15V10.7143H22.1428V15H20.7142Z" fill="#262626"/>
<path d="M20.7142 15V10.7143H22.1428V15H20.7142Z" fill="black"/>
<path d="M17.8572 15V10.7143H19.2857V15H17.8572Z" fill="#262626"/>
<path d="M17.8572 15V10.7143H19.2857V15H17.8572Z" fill="black"/>
<path d="M16.4286 9.28565H30.7143V10.7142H16.4286V9.28565ZM6.42859 4.28564H16.4286V5.71422H6.42859V4.28564ZM27.8572 19.9999V21.4285H25V19.9999H27.8572ZM29.2857 18.5714H23.5714V22.8571H29.2857V18.5714ZM20 19.9999V21.4285H17.1429V19.9999H20ZM21.4286 18.5714H15.7143V22.8571H21.4286V18.5714ZM12.1429 19.9999V21.4285H9.28573V19.9999H12.1429ZM13.5714 18.5714H7.85716V22.8571H13.5714V18.5714ZM12.1429 8.57136V9.99993H9.28573V8.57136H12.1429ZM13.5714 7.14279H7.85716V11.4285H13.5714V7.14279ZM6.42859 14.9999H32.8572V16.4285H6.42859V14.9999Z" fill="#262626"/>
<path d="M16.4286 9.28565H30.7143V10.7142H16.4286V9.28565ZM6.42859 4.28564H16.4286V5.71422H6.42859V4.28564ZM27.8572 19.9999V21.4285H25V19.9999H27.8572ZM29.2857 18.5714H23.5714V22.8571H29.2857V18.5714ZM20 19.9999V21.4285H17.1429V19.9999H20ZM21.4286 18.5714H15.7143V22.8571H21.4286V18.5714ZM12.1429 19.9999V21.4285H9.28573V19.9999H12.1429ZM13.5714 18.5714H7.85716V22.8571H13.5714V18.5714ZM12.1429 8.57136V9.99993H9.28573V8.57136H12.1429ZM13.5714 7.14279H7.85716V11.4285H13.5714V7.14279ZM6.42859 14.9999H32.8572V16.4285H6.42859V14.9999Z" fill="black"/>
<path d="M31.4286 15.7144H32.8572V24.2858H31.4286V15.7144Z" fill="#262626"/>
<path d="M31.4286 15.7144H32.8572V24.2858H31.4286V15.7144Z" fill="black"/>
</svg>
