<svg width="40" height="30" viewBox="0 0 40 30" fill="none" xmlns="http://www.w3.org/2000/svg">
<g clip-path="url(#clip0_5342_31754)">
<path d="M25.7366 27.8561C23.9328 27.8536 22.2037 27.1358 20.9284 25.8601C19.6532 24.5845 18.936 22.8551 18.9341 21.0513C18.9384 19.2492 19.6567 17.5222 20.9317 16.2485C22.2067 14.9748 23.9344 14.2583 25.7366 14.2559C27.5403 14.2577 29.2697 14.9749 30.5454 16.2501C31.8211 17.5254 32.5389 19.2545 32.5413 21.0583C32.5376 22.8612 31.8193 24.5892 30.5438 25.8634C29.2682 27.1377 27.5395 27.8542 25.7366 27.8561ZM25.7366 15.4105C24.2409 15.4117 22.8069 16.0064 21.7493 17.064C20.6917 18.1216 20.097 19.5557 20.0958 21.0513C20.097 22.5472 20.6916 23.9815 21.7491 25.0394C22.8067 26.0974 24.2407 26.6926 25.7366 26.6945C27.2327 26.6926 28.6669 26.0975 29.7248 25.0396C30.7827 23.9817 31.3779 22.5474 31.3797 21.0513C31.376 19.5567 30.78 18.1244 29.7222 17.0684C28.6645 16.0124 27.2312 15.4187 25.7366 15.4175V15.4105Z" fill="#231815"/>
<path d="M19.8541 13.891H11.7972C11.6431 13.891 11.4954 13.8298 11.3865 13.7209C11.2776 13.6119 11.2164 13.4642 11.2164 13.3102V9.52563C11.2164 9.37159 11.2776 9.22386 11.3865 9.11493C11.4954 9.00601 11.6431 8.94482 11.7972 8.94482H19.8541C20.0082 8.94482 20.1559 9.00601 20.2648 9.11493C20.3738 9.22386 20.435 9.37159 20.435 9.52563V13.3102C20.435 13.3864 20.4199 13.462 20.3907 13.5324C20.3616 13.6029 20.3188 13.6669 20.2648 13.7209C20.2109 13.7748 20.1469 13.8176 20.0764 13.8468C20.0059 13.876 19.9304 13.891 19.8541 13.891ZM12.378 12.7294H19.2733V10.1064H12.378V12.7294Z" fill="#231815"/>
<path d="M12.9239 17.4663C12.5421 17.4656 12.1761 17.3137 11.9061 17.0437C11.6361 16.7737 11.4841 16.4077 11.4835 16.0258C11.4841 15.644 11.6361 15.278 11.9061 15.008C12.1761 14.738 12.5421 14.5861 12.9239 14.5854C13.3058 14.5861 13.6718 14.738 13.9418 15.008C14.2118 15.278 14.3637 15.644 14.3643 16.0258C14.3637 16.4077 14.2118 16.7737 13.9418 17.0437C13.6718 17.3137 13.3058 17.4656 12.9239 17.4663ZM12.9239 15.5147C12.7886 15.5154 12.6589 15.5694 12.5632 15.6651C12.4675 15.7608 12.4134 15.8905 12.4128 16.0258C12.4128 16.1614 12.4667 16.2914 12.5625 16.3873C12.6584 16.4831 12.7884 16.537 12.9239 16.537C13.0595 16.537 13.1895 16.4831 13.2853 16.3873C13.3812 16.2914 13.435 16.1614 13.435 16.0258C13.4344 15.8905 13.3804 15.7608 13.2847 15.6651C13.1889 15.5694 13.0593 15.5154 12.9239 15.5147Z" fill="#231815"/>
<path d="M18.7274 17.4663C18.3456 17.4656 17.9795 17.3137 17.7095 17.0437C17.4396 16.7737 17.2876 16.4077 17.287 16.0258C17.2876 15.644 17.4396 15.278 17.7095 15.008C17.9795 14.738 18.3456 14.5861 18.7274 14.5854C19.1092 14.5861 19.4752 14.738 19.7452 15.008C20.0152 15.278 20.1672 15.644 20.1678 16.0258C20.1672 16.4077 20.0152 16.7737 19.7452 17.0437C19.4752 17.3137 19.1092 17.4656 18.7274 17.4663ZM18.7274 15.5147C18.592 15.5154 18.4624 15.5694 18.3667 15.6651C18.2709 15.7608 18.2169 15.8905 18.2163 16.0258C18.2163 16.1614 18.2701 16.2914 18.366 16.3873C18.4618 16.4831 18.5918 16.537 18.7274 16.537C18.7946 16.5373 18.8612 16.5243 18.9233 16.4987C18.9855 16.4731 19.042 16.4355 19.0895 16.3879C19.137 16.3404 19.1746 16.284 19.2002 16.2218C19.2258 16.1597 19.2388 16.0931 19.2385 16.0258C19.2385 15.8903 19.1847 15.7603 19.0888 15.6644C18.9929 15.5686 18.8629 15.5147 18.7274 15.5147Z" fill="#231815"/>
<path d="M21.4827 5H10.1686V6.16162H21.4827V5Z" fill="#231815"/>
<path d="M14.0031 9.38762L12.7488 10.5083L13.3679 11.2013L14.6222 10.0806L14.0031 9.38762Z" fill="#231815"/>
<path d="M15.8194 9.38885L13.9085 11.0962L14.5277 11.7892L16.4386 10.0818L15.8194 9.38885Z" fill="#231815"/>
<path d="M11.4375 19.1311L10.7267 20.9561L11.8092 21.3776L12.5199 19.5527L11.4375 19.1311Z" fill="#231815"/>
<path d="M22.0705 22.3869L21.959 21.8712C21.9125 21.6574 21.8521 21.4367 21.7871 21.2021C21.5547 20.3448 21.2852 19.3737 21.6988 18.463C21.812 18.1942 21.9842 17.9543 22.2025 17.7609C22.4208 17.5674 22.6798 17.4255 22.9603 17.3455C23.2168 17.2769 23.4853 17.2662 23.7464 17.314C24.0076 17.3618 24.2548 17.467 24.4704 17.622C24.776 17.8673 25.0179 18.1827 25.1756 18.5414C25.3333 18.9002 25.4022 19.2916 25.3764 19.6827C25.348 20.1569 25.2582 20.6255 25.1093 21.0766C25.0675 21.2206 25.0256 21.3647 24.9885 21.5134L24.9025 21.8549H24.5517C23.8759 21.8525 23.2048 21.9665 22.5677 22.1918L22.0705 22.3869ZM23.4226 18.2051C23.348 18.205 23.2737 18.2152 23.2019 18.2353C23.0543 18.2814 22.9187 18.3598 22.805 18.4646C22.6914 18.5695 22.6023 18.6982 22.5444 18.8417C22.2703 19.4457 22.4724 20.1775 22.6838 20.9488C22.7047 21.0232 22.7233 21.0998 22.7442 21.1812C23.2123 21.0487 23.694 20.9707 24.18 20.9488C24.18 20.9047 24.2032 20.8605 24.2171 20.8187C24.3436 20.443 24.4217 20.0526 24.4495 19.6571C24.4687 19.4185 24.4319 19.1787 24.3419 18.9568C24.2519 18.735 24.1114 18.5372 23.9314 18.3793C23.784 18.2698 23.6062 18.2088 23.4226 18.2051Z" fill="#231815"/>
<path d="M23.8292 25.6886C23.5836 25.6895 23.3424 25.6228 23.1322 25.4957C22.3307 25.0195 22.2749 24.2087 22.2308 23.5582C22.2308 23.4165 22.2122 23.2724 22.196 23.1307L22.1402 22.6661L22.6048 22.6149C23.2514 22.5349 23.8923 22.4146 24.5238 22.2548L25.0094 22.1387L25.0907 22.6312C25.1139 22.7752 25.1534 22.9239 25.1952 23.0819C25.2708 23.3359 25.3221 23.5965 25.3486 23.8602C25.3775 24.1777 25.319 24.4972 25.1793 24.7838C25.0397 25.0705 24.8242 25.3135 24.5564 25.4865C24.3372 25.6194 24.0855 25.6893 23.8292 25.6886ZM23.1624 23.4792C23.1613 23.4845 23.1613 23.4901 23.1624 23.4954C23.2042 24.1367 23.2437 24.4805 23.6085 24.6966C23.6782 24.7414 23.7597 24.7643 23.8426 24.7622C23.9254 24.7601 24.0058 24.7332 24.0731 24.6849C24.1962 24.6041 24.2951 24.4914 24.3594 24.3589C24.4236 24.2264 24.4507 24.0789 24.4379 23.9322C24.4151 23.7251 24.3731 23.5205 24.3124 23.3212L24.2985 23.2678C23.9314 23.3444 23.5574 23.4211 23.1624 23.4792Z" fill="#231815"/>
<path d="M29.405 22.3869L28.9078 22.2104C28.2731 21.9851 27.6042 21.8719 26.9307 21.8758L26.5776 21.8642L26.487 21.5227C26.4498 21.374 26.408 21.23 26.3662 21.0859C26.2172 20.6348 26.1274 20.1662 26.099 19.692C26.0713 19.3005 26.1381 18.9082 26.2938 18.5479C26.4494 18.1877 26.6894 17.8701 26.9934 17.622C27.2096 17.4664 27.4576 17.3607 27.7195 17.3125C27.9814 17.2642 28.2508 17.2748 28.5082 17.3432C28.7908 17.4217 29.0521 17.5629 29.2725 17.7564C29.4929 17.9499 29.6669 18.1906 29.7813 18.4607C30.1949 19.3714 29.9277 20.3425 29.693 21.1998C29.628 21.4321 29.5676 21.6644 29.5211 21.8689L29.405 22.3869ZM27.2955 20.9582C27.7814 20.9797 28.2633 21.0576 28.7312 21.1905C28.7521 21.1161 28.7707 21.0395 28.7916 20.9582C29.003 20.1868 29.2052 19.455 28.931 18.851C28.8731 18.7076 28.7841 18.5788 28.6704 18.4739C28.5567 18.3691 28.4212 18.2908 28.2735 18.2446C28.1489 18.2115 28.0184 18.2068 27.8918 18.2309C27.7651 18.255 27.6454 18.3074 27.5417 18.384C27.3634 18.542 27.2242 18.7392 27.1351 18.9601C27.046 19.1811 27.0094 19.4197 27.0283 19.6571C27.0561 20.0526 27.1342 20.443 27.2606 20.8188C27.2722 20.8675 27.2839 20.9117 27.2955 20.9558V20.9582Z" fill="#231815"/>
<path d="M27.6462 25.6882C27.3864 25.6868 27.1321 25.6127 26.9121 25.4745C26.6442 25.3015 26.4288 25.0585 26.2891 24.7719C26.1495 24.4852 26.0909 24.1658 26.1199 23.8482C26.1472 23.5892 26.1985 23.3333 26.2732 23.0839C26.315 22.9259 26.3545 22.7772 26.3778 22.6331L26.4591 22.1406L26.9446 22.2568C27.5761 22.4174 28.217 22.5384 28.8636 22.6192L29.3283 22.6703L29.2725 23.135C29.2562 23.2767 29.2469 23.4207 29.2377 23.5624C29.1935 24.2129 29.1378 25.0238 28.3362 25.5C28.1276 25.6242 27.8891 25.6892 27.6462 25.6882ZM27.0468 23.9318C27.033 24.0777 27.0587 24.2245 27.1213 24.357C27.1838 24.4894 27.2809 24.6026 27.4023 24.6846C27.4697 24.7328 27.55 24.7598 27.6328 24.7618C27.7157 24.7639 27.7973 24.741 27.8669 24.6962C28.2317 24.4801 28.2712 24.1363 28.3153 23.4951V23.4788C27.9204 23.4207 27.5463 23.3441 27.1886 23.2651L27.1746 23.3208C27.1135 23.5201 27.0715 23.7246 27.0492 23.9318H27.0468Z" fill="#231815"/>
<path d="M18.5671 19.8665H10.1175C9.82089 19.8659 9.53666 19.7476 9.32716 19.5377C9.11766 19.3278 9 19.0433 9 18.7467V8.94034C9.00061 8.3749 9.22551 7.83279 9.62534 7.43296C10.0252 7.03313 10.5673 6.80823 11.1327 6.80762H20.5209C21.0861 6.80823 21.628 7.0332 22.0275 7.4331C22.4269 7.833 22.6513 8.37511 22.6513 8.94034V14.5812H21.4897V8.94034C21.4897 8.68319 21.3877 8.43654 21.2061 8.25448C21.0245 8.07243 20.7781 7.96985 20.5209 7.96923H11.1327C11.0052 7.96923 10.8789 7.99435 10.7611 8.04315C10.6433 8.09196 10.5362 8.16349 10.446 8.25367C10.3559 8.34384 10.2843 8.4509 10.2355 8.56872C10.1867 8.68654 10.1616 8.81282 10.1616 8.94034V18.6979H18.5671V19.8665Z" fill="#231815"/>
</g>
<defs>
<clipPath id="clip0_5342_31754">
<rect width="23.697" height="23" fill="white" transform="translate(9 5)"/>
</clipPath>
</defs>
</svg>
