<svg width="40" height="30" viewBox="0 0 40 30" fill="none" xmlns="http://www.w3.org/2000/svg">
<g clip-path="url(#clip0_5308_31010)">
<path d="M26.5617 23.5043H12.8219C12.6606 23.5043 12.5009 23.4725 12.3519 23.4107C12.2029 23.3489 12.0675 23.2583 11.9535 23.1441C11.8396 23.0299 11.7492 22.8944 11.6877 22.7453C11.6262 22.5961 11.5947 22.4363 11.595 22.275V10.4683C11.5968 9.82066 11.855 9.20015 12.3132 8.74244C12.7713 8.28474 13.3921 8.0271 14.0397 8.02588H25.3417C25.9905 8.02649 26.6126 8.2845 27.0713 8.74327C27.5301 9.20204 27.7881 9.82409 27.7887 10.4729V22.2796C27.7881 22.6046 27.6586 22.9161 27.4285 23.1457C27.1985 23.3753 26.8868 23.5043 26.5617 23.5043ZM14.0397 9.1834C13.6981 9.18402 13.3707 9.32014 13.1294 9.5619C12.888 9.80366 12.7525 10.1313 12.7525 10.4729V22.2796C12.7522 22.2889 12.7538 22.2982 12.7571 22.3069C12.7605 22.3156 12.7655 22.3235 12.772 22.3302C12.7785 22.3369 12.7862 22.3423 12.7948 22.3459C12.8034 22.3495 12.8126 22.3514 12.8219 22.3514H26.5617C26.5711 22.3514 26.5803 22.3495 26.5889 22.3459C26.5975 22.3423 26.6052 22.3369 26.6117 22.3302C26.6182 22.3235 26.6232 22.3156 26.6266 22.3069C26.6299 22.2982 26.6315 22.2889 26.6312 22.2796V10.4729C26.6312 10.1309 26.4953 9.80291 26.2535 9.56108C26.0117 9.31926 25.6837 9.1834 25.3417 9.1834H14.0397Z" fill="#262626"/>
<path d="M26.5617 23.5043H12.8219C12.6606 23.5043 12.5009 23.4725 12.3519 23.4107C12.2029 23.3489 12.0675 23.2583 11.9535 23.1441C11.8396 23.0299 11.7492 22.8944 11.6877 22.7453C11.6262 22.5961 11.5947 22.4363 11.595 22.275V10.4683C11.5968 9.82066 11.855 9.20015 12.3132 8.74244C12.7713 8.28474 13.3921 8.0271 14.0397 8.02588H25.3417C25.9905 8.02649 26.6126 8.2845 27.0713 8.74327C27.5301 9.20204 27.7881 9.82409 27.7887 10.4729V22.2796C27.7881 22.6046 27.6586 22.9161 27.4285 23.1457C27.1985 23.3753 26.8868 23.5043 26.5617 23.5043ZM14.0397 9.1834C13.6981 9.18402 13.3707 9.32014 13.1294 9.5619C12.888 9.80366 12.7525 10.1313 12.7525 10.4729V22.2796C12.7522 22.2889 12.7538 22.2982 12.7571 22.3069C12.7605 22.3156 12.7655 22.3235 12.772 22.3302C12.7785 22.3369 12.7862 22.3423 12.7948 22.3459C12.8034 22.3495 12.8126 22.3514 12.8219 22.3514H26.5617C26.5711 22.3514 26.5803 22.3495 26.5889 22.3459C26.5975 22.3423 26.6052 22.3369 26.6117 22.3302C26.6182 22.3235 26.6232 22.3156 26.6266 22.3069C26.6299 22.2982 26.6315 22.2889 26.6312 22.2796V10.4729C26.6312 10.1309 26.4953 9.80291 26.2535 9.56108C26.0117 9.31926 25.6837 9.1834 25.3417 9.1834H14.0397Z" fill="black"/>
<path d="M25.1197 16.3091H14.2644V10.5979H25.1197V16.3091ZM15.4219 15.1516H23.9621V11.7554H15.4219V15.1516Z" fill="#262626"/>
<path d="M25.1197 16.3091H14.2644V10.5979H25.1197V16.3091ZM15.4219 15.1516H23.9621V11.7554H15.4219V15.1516Z" fill="black"/>
<path d="M15.8316 21.6244C15.4603 21.6244 15.0973 21.5143 14.7885 21.308C14.4798 21.1017 14.2391 20.8084 14.097 20.4654C13.9549 20.1223 13.9177 19.7448 13.9902 19.3806C14.0626 19.0164 14.2414 18.6819 14.504 18.4193C14.7666 18.1567 15.1011 17.9779 15.4653 17.9055C15.8295 17.833 16.207 17.8702 16.5501 18.0123C16.8932 18.1544 17.1864 18.395 17.3927 18.7038C17.599 19.0126 17.7091 19.3756 17.7091 19.7469C17.7091 20.2448 17.5113 20.7224 17.1592 21.0745C16.8071 21.4266 16.3296 21.6244 15.8316 21.6244ZM15.8316 19.0292C15.6891 19.0292 15.5498 19.0715 15.4314 19.1507C15.3129 19.2299 15.2206 19.3425 15.1662 19.4742C15.1118 19.6059 15.0977 19.7508 15.1256 19.8905C15.1536 20.0302 15.2224 20.1585 15.3233 20.2591C15.4242 20.3597 15.5528 20.4281 15.6926 20.4556C15.8324 20.4831 15.9772 20.4686 16.1087 20.4137C16.2403 20.3589 16.3525 20.2662 16.4314 20.1475C16.5102 20.0288 16.552 19.8894 16.5516 19.7469C16.5516 19.6524 16.5329 19.5589 16.4967 19.4717C16.4605 19.3845 16.4075 19.3053 16.3406 19.2386C16.2737 19.1719 16.1943 19.1191 16.107 19.0832C16.0196 19.0473 15.926 19.0289 15.8316 19.0292Z" fill="#262626"/>
<path d="M15.8316 21.6244C15.4603 21.6244 15.0973 21.5143 14.7885 21.308C14.4798 21.1017 14.2391 20.8084 14.097 20.4654C13.9549 20.1223 13.9177 19.7448 13.9902 19.3806C14.0626 19.0164 14.2414 18.6819 14.504 18.4193C14.7666 18.1567 15.1011 17.9779 15.4653 17.9055C15.8295 17.833 16.207 17.8702 16.5501 18.0123C16.8932 18.1544 17.1864 18.395 17.3927 18.7038C17.599 19.0126 17.7091 19.3756 17.7091 19.7469C17.7091 20.2448 17.5113 20.7224 17.1592 21.0745C16.8071 21.4266 16.3296 21.6244 15.8316 21.6244ZM15.8316 19.0292C15.6891 19.0292 15.5498 19.0715 15.4314 19.1507C15.3129 19.2299 15.2206 19.3425 15.1662 19.4742C15.1118 19.6059 15.0977 19.7508 15.1256 19.8905C15.1536 20.0302 15.2224 20.1585 15.3233 20.2591C15.4242 20.3597 15.5528 20.4281 15.6926 20.4556C15.8324 20.4831 15.9772 20.4686 16.1087 20.4137C16.2403 20.3589 16.3525 20.2662 16.4314 20.1475C16.5102 20.0288 16.552 19.8894 16.5516 19.7469C16.5516 19.6524 16.5329 19.5589 16.4967 19.4717C16.4605 19.3845 16.4075 19.3053 16.3406 19.2386C16.2737 19.1719 16.1943 19.1191 16.107 19.0832C16.0196 19.0473 15.926 19.0289 15.8316 19.0292Z" fill="black"/>
<path d="M23.5522 21.6244C23.1807 21.6248 22.8175 21.5151 22.5085 21.3091C22.1994 21.1031 21.9584 20.81 21.816 20.467C21.6735 20.124 21.636 19.7464 21.7082 19.382C21.7803 19.0177 21.959 18.6829 22.2215 18.4201C22.4839 18.1573 22.8185 17.9783 23.1827 17.9056C23.547 17.833 23.9246 17.87 24.2678 18.0121C24.611 18.1541 24.9044 18.3948 25.1108 18.7036C25.3172 19.0124 25.4274 19.3755 25.4274 19.7469C25.4268 20.2442 25.2291 20.7211 24.8776 21.073C24.5261 21.4249 24.0495 21.6232 23.5522 21.6244ZM23.5522 19.0292C23.4096 19.0288 23.2701 19.0707 23.1513 19.1496C23.0326 19.2285 22.9399 19.341 22.8851 19.4726C22.8304 19.6043 22.8159 19.7492 22.8436 19.8891C22.8713 20.029 22.9399 20.1575 23.0408 20.2583C23.1416 20.3591 23.2701 20.4277 23.41 20.4555C23.5499 20.4832 23.6948 20.4687 23.8265 20.4139C23.9581 20.3591 24.0705 20.2665 24.1495 20.1478C24.2284 20.029 24.2703 19.8895 24.2699 19.7469C24.2699 19.6526 24.2513 19.5593 24.2152 19.4723C24.1792 19.3852 24.1263 19.3061 24.0597 19.2394C23.993 19.1728 23.9139 19.1199 23.8268 19.0838C23.7398 19.0478 23.6464 19.0292 23.5522 19.0292Z" fill="#262626"/>
<path d="M23.5522 21.6244C23.1807 21.6248 22.8175 21.5151 22.5085 21.3091C22.1994 21.1031 21.9584 20.81 21.816 20.467C21.6735 20.124 21.636 19.7464 21.7082 19.382C21.7803 19.0177 21.959 18.6829 22.2215 18.4201C22.4839 18.1573 22.8185 17.9783 23.1827 17.9056C23.547 17.833 23.9246 17.87 24.2678 18.0121C24.611 18.1541 24.9044 18.3948 25.1108 18.7036C25.3172 19.0124 25.4274 19.3755 25.4274 19.7469C25.4268 20.2442 25.2291 20.7211 24.8776 21.073C24.5261 21.4249 24.0495 21.6232 23.5522 21.6244ZM23.5522 19.0292C23.4096 19.0288 23.2701 19.0707 23.1513 19.1496C23.0326 19.2285 22.9399 19.341 22.8851 19.4726C22.8304 19.6043 22.8159 19.7492 22.8436 19.8891C22.8713 20.029 22.9399 20.1575 23.0408 20.2583C23.1416 20.3591 23.2701 20.4277 23.41 20.4555C23.5499 20.4832 23.6948 20.4687 23.8265 20.4139C23.9581 20.3591 24.0705 20.2665 24.1495 20.1478C24.2284 20.029 24.2703 19.8895 24.2699 19.7469C24.2699 19.6526 24.2513 19.5593 24.2152 19.4723C24.1792 19.3852 24.1263 19.3061 24.0597 19.2394C23.993 19.1728 23.9139 19.1199 23.8268 19.0838C23.7398 19.0478 23.6464 19.0292 23.5522 19.0292Z" fill="black"/>
<path d="M26.3812 5H13.0002V6.15752H26.3812V5Z" fill="#262626"/>
<path d="M26.3812 5H13.0002V6.15752H26.3812V5Z" fill="black"/>
<path d="M23.8718 6.36597H15.5076V7.52349H23.8718V6.36597Z" fill="#262626"/>
<path d="M23.8718 6.36597H15.5076V7.52349H23.8718V6.36597Z" fill="black"/>
<path d="M26.798 24.6987H12.5813V25.8563H26.798V24.6987Z" fill="#262626"/>
<path d="M26.798 24.6987H12.5813V25.8563H26.798V24.6987Z" fill="black"/>
<path d="M15.0425 22.3249L9.99634 27.1572L10.7969 27.9932L15.8431 23.1609L15.0425 22.3249Z" fill="#262626"/>
<path d="M15.0425 22.3249L9.99634 27.1572L10.7969 27.9932L15.8431 23.1609L15.0425 22.3249Z" fill="black"/>
<path d="M24.3436 22.3488L23.543 23.1848L28.5892 28.0172L29.3897 27.1812L24.3436 22.3488Z" fill="#262626"/>
<path d="M24.3436 22.3488L23.543 23.1848L28.5892 28.0172L29.3897 27.1812L24.3436 22.3488Z" fill="black"/>
<path d="M17.9195 10.6061L15.5479 12.7258L16.3192 13.5889L18.6909 11.4691L17.9195 10.6061Z" fill="#262626"/>
<path d="M17.9195 10.6061L15.5479 12.7258L16.3192 13.5889L18.6909 11.4691L17.9195 10.6061Z" fill="black"/>
<path d="M20.1033 10.6085L16.9412 13.4348L17.7125 14.2979L20.8747 11.4715L20.1033 10.6085Z" fill="#262626"/>
<path d="M20.1033 10.6085L16.9412 13.4348L17.7125 14.2979L20.8747 11.4715L20.1033 10.6085Z" fill="black"/>
</g>
<defs>
<clipPath id="clip0_5308_31010">
<rect width="19.3816" height="23" fill="white" transform="translate(10 5)"/>
</clipPath>
</defs>
</svg>
