<svg width="40" height="30" viewBox="0 0 40 30" fill="none" xmlns="http://www.w3.org/2000/svg">
<path d="M5.07141 20.4288H35.0714V21.8574H5.07141V20.4288ZM32.2143 16.1431H35.0714V20.4288H32.2143V16.1431Z" fill="#262626"/>
<path d="M5.07141 20.4288H35.0714V21.8574H5.07141V20.4288ZM32.2143 16.1431H35.0714V20.4288H32.2143V16.1431Z" fill="black"/>
<g clip-path="url(#clip0_5342_31678)">
<path d="M5.01252 15.7568C5.01423 14.371 5.56546 13.0425 6.54541 12.0626C7.52536 11.0826 8.85409 10.5314 10.2399 10.5299C11.163 10.5295 12.0695 10.7768 12.8647 11.2459C13.1348 10.3758 13.268 9.65705 13.268 8.67225V6.77925H12.353C12.0733 6.78798 11.8532 7.02125 11.8609 7.30114C11.8541 7.53335 11.664 7.71788 11.432 7.71788C11.1998 7.71788 11.0098 7.53335 11.003 7.30114C11.003 6.54044 11.6087 5.9213 12.353 5.9213L13.6969 5.92152C13.934 5.92152 14.1259 6.1135 14.1259 6.3506V7.44885H20.5473L20.7618 6.59067H19.5954C19.3583 6.59067 19.1664 6.39848 19.1664 6.16159V5.61159C19.1664 5.05332 19.5661 4.57312 20.1391 4.44459L21.8997 4.04977C22.2877 3.95995 22.6954 4.05211 23.0071 4.30007C23.2886 4.521 23.4538 4.85835 23.4553 5.21611V6.16157C23.4553 6.39846 23.2633 6.59066 23.0262 6.59066H21.6459L21.3514 7.76938L24.7132 11.7748L24.713 11.7746C25.6546 10.9684 26.8537 10.5268 28.0931 10.5295C29.604 10.5284 31.0413 11.1816 32.0342 12.3205C33.0272 13.4594 33.4782 14.9723 33.271 16.469C33.0639 17.9657 32.219 19.2994 30.9543 20.1258H32.8915C33.0073 20.1229 33.1193 20.1665 33.2023 20.2474C33.2851 20.328 33.3319 20.4389 33.3319 20.5547C33.3319 20.6705 33.2851 20.7814 33.2023 20.862C33.1193 20.9429 33.0073 20.9868 32.8915 20.9836H5.44144C5.20902 20.9776 5.02385 20.7873 5.02385 20.5547C5.02385 20.3221 5.20902 20.132 5.44144 20.1258H7.3783C5.90355 19.1617 5.01383 17.5189 5.01258 15.7568L5.01252 15.7568ZM22.5977 5.21629C22.5977 4.99174 22.344 4.83168 22.0877 4.8866L20.3273 5.28163C20.1492 5.32186 20.0245 5.45765 20.0245 5.61175V5.73285H22.5977V5.21629ZM12.6075 13.8798C11.6003 15.4778 10.4987 16.1039 10.4476 16.1323V16.132C10.2413 16.2389 9.98783 16.1625 9.87501 15.9596C9.76221 15.7568 9.83117 15.501 10.0308 15.3824C10.0419 15.376 11.0644 14.7873 11.9724 13.2791C11.1203 12.678 10.0212 12.5516 9.05495 12.9432C8.08867 13.3351 7.38797 14.1911 7.19492 15.2157C7.00187 16.2404 7.34327 17.2928 8.10077 18.0093C8.85825 18.7255 9.928 19.0075 10.9403 18.7578C11.9525 18.508 12.7684 17.7604 13.1055 16.7737C13.4426 15.7872 13.2549 14.6968 12.6074 13.8797L12.6075 13.8798ZM14.0616 9.76297L17.6565 14.1299V14.1301C17.886 14.0236 18.1386 13.9779 18.3909 13.997L20.2875 8.30639H14.1261C14.1355 8.79274 14.114 9.27926 14.0614 9.76284L14.0616 9.76297ZM18.2267 15.1766L18.2265 15.1768C18.3382 15.1544 18.4542 15.1778 18.5487 15.2415C18.6432 15.3051 18.7084 15.4037 18.7299 15.5156L18.8478 16.1188H18.8476C19.0757 15.8832 19.1245 15.5267 18.968 15.2385C18.8114 14.9503 18.4859 14.797 18.1641 14.8601C17.8423 14.9233 17.5986 15.1878 17.5624 15.5137C17.5262 15.8398 17.7057 16.1513 18.0058 16.2835L17.8878 15.6797C17.8661 15.5682 17.8896 15.4524 17.953 15.3581C18.0164 15.2636 18.115 15.1985 18.2265 15.1768L18.2267 15.1766ZM22.8977 15.2427V15.243C22.9997 14.1885 23.4222 13.1907 24.1082 12.3835L21.0471 8.74007L19.2064 14.2629C19.5302 14.4834 19.7626 14.8144 19.8601 15.1939L22.8977 15.2427ZM25.6255 14.0119C25.3575 14.3888 25.18 14.8226 25.107 15.2791L26.9972 15.3098L25.6255 14.0119ZM28.3883 15.4452H28.3881C28.5156 15.5658 28.5567 15.7523 28.4918 15.9153C28.4267 16.0784 28.2689 16.1856 28.0933 16.1856H28.0865L25.0897 16.1371C25.1881 16.9123 25.5823 17.6193 26.1897 18.1108C26.7971 18.602 27.5711 18.8398 28.3497 18.774C29.1282 18.7082 29.8513 18.3441 30.3678 17.7577C30.8842 17.1713 31.1541 16.4081 31.121 15.6274C31.0878 14.8469 30.7543 14.1092 30.1901 13.5686C29.626 13.028 28.8747 12.7264 28.0934 12.7268C27.41 12.726 26.747 12.9594 26.2151 13.3883L28.3883 15.4452ZM24.2418 15.2651H24.2415C24.3282 14.584 24.5944 13.9382 25.0133 13.3942L24.6811 13.0328C24.1688 13.6722 23.848 14.4436 23.756 15.2576L24.2418 15.2651ZM32.4628 15.7568C32.4615 14.5985 32.0007 13.4879 31.1815 12.6686C30.3625 11.8496 29.2519 11.3888 28.0933 11.3875C27.0623 11.385 26.0644 11.7506 25.2788 12.4185L25.6044 12.7778H25.6046C26.3 12.1889 27.1822 11.8666 28.0934 11.8688C29.1035 11.8683 30.0743 12.2612 30.7999 12.9638C31.5254 13.6666 31.949 14.6242 31.9811 15.6337C32.0131 16.6434 31.6508 17.6259 30.9712 18.3732C30.2914 19.1205 29.3477 19.5738 28.3394 19.6372C27.3314 19.7009 26.3381 19.3697 25.57 18.7137C24.8018 18.0577 24.3191 17.1285 24.224 16.1228L23.7423 16.1149C23.8664 17.628 24.7672 18.968 26.1214 19.6542C27.4756 20.3402 29.0889 20.274 30.3821 19.4791C31.6755 18.6843 32.4632 17.2747 32.4628 15.7567L32.4628 15.7568ZM25.2323 20.126C23.8614 19.2272 22.9918 17.7366 22.8838 16.1007L19.8445 16.0516C19.7185 16.477 19.4222 16.8312 19.0257 17.0302L19.3237 18.5559H19.839C20.0761 18.5559 20.2681 18.7481 20.2681 18.9849C20.2681 19.2221 20.0761 19.414 19.839 19.414H18.102C17.8651 19.414 17.6729 19.2221 17.6729 18.9849C17.6729 18.7481 17.8651 18.5559 18.102 18.5559H18.4497L18.1837 17.1937C17.8051 17.1664 17.4486 17.0053 17.1778 16.739C16.9073 16.473 16.7402 16.1193 16.7066 15.7411C16.673 15.3631 16.7751 14.9853 16.9946 14.6756L13.8592 10.8668C13.7836 11.1709 13.696 11.4713 13.5961 11.768C14.7838 12.7517 15.47 14.2145 15.4674 15.7568C15.4662 17.5191 14.5767 19.162 13.1015 20.126L25.2323 20.126ZM10.2402 20.126C11.3985 20.1247 12.5091 19.6639 13.3281 18.8447C14.1473 18.0257 14.6081 16.915 14.6094 15.7568C14.6128 14.5714 14.129 13.437 13.2711 12.6191C13.2019 12.7772 13.127 12.9304 13.0506 13.083V13.0833C13.9777 14.0572 14.3393 15.4394 14.0081 16.7426C13.6768 18.0458 12.6992 19.0875 11.4196 19.5008C10.14 19.9139 8.73776 19.6409 7.70676 18.7776C6.67597 17.9141 6.1609 16.5817 6.3431 15.2493C6.5253 13.9172 7.37923 12.7719 8.60389 12.217C9.82876 11.6621 11.2529 11.7754 12.3746 12.5171C12.4442 12.3698 12.5084 12.2196 12.5706 12.0674H12.5708C11.875 11.6226 11.0663 11.3867 10.2406 11.3876C8.67966 11.3876 7.23722 12.2202 6.45675 13.5722C5.67627 14.9239 5.67627 16.5894 6.45675 17.9412C7.23722 19.2931 8.67966 20.1258 10.2406 20.1258L10.2402 20.126Z" fill="#262626"/>
<path d="M5.01252 15.7568C5.01423 14.371 5.56546 13.0425 6.54541 12.0626C7.52536 11.0826 8.85409 10.5314 10.2399 10.5299C11.163 10.5295 12.0695 10.7768 12.8647 11.2459C13.1348 10.3758 13.268 9.65705 13.268 8.67225V6.77925H12.353C12.0733 6.78798 11.8532 7.02125 11.8609 7.30114C11.8541 7.53335 11.664 7.71788 11.432 7.71788C11.1998 7.71788 11.0098 7.53335 11.003 7.30114C11.003 6.54044 11.6087 5.9213 12.353 5.9213L13.6969 5.92152C13.934 5.92152 14.1259 6.1135 14.1259 6.3506V7.44885H20.5473L20.7618 6.59067H19.5954C19.3583 6.59067 19.1664 6.39848 19.1664 6.16159V5.61159C19.1664 5.05332 19.5661 4.57312 20.1391 4.44459L21.8997 4.04977C22.2877 3.95995 22.6954 4.05211 23.0071 4.30007C23.2886 4.521 23.4538 4.85835 23.4553 5.21611V6.16157C23.4553 6.39846 23.2633 6.59066 23.0262 6.59066H21.6459L21.3514 7.76938L24.7132 11.7748L24.713 11.7746C25.6546 10.9684 26.8537 10.5268 28.0931 10.5295C29.604 10.5284 31.0413 11.1816 32.0342 12.3205C33.0272 13.4594 33.4782 14.9723 33.271 16.469C33.0639 17.9657 32.219 19.2994 30.9543 20.1258H32.8915C33.0073 20.1229 33.1193 20.1665 33.2023 20.2474C33.2851 20.328 33.3319 20.4389 33.3319 20.5547C33.3319 20.6705 33.2851 20.7814 33.2023 20.862C33.1193 20.9429 33.0073 20.9868 32.8915 20.9836H5.44144C5.20902 20.9776 5.02385 20.7873 5.02385 20.5547C5.02385 20.3221 5.20902 20.132 5.44144 20.1258H7.3783C5.90355 19.1617 5.01383 17.5189 5.01258 15.7568L5.01252 15.7568ZM22.5977 5.21629C22.5977 4.99174 22.344 4.83168 22.0877 4.8866L20.3273 5.28163C20.1492 5.32186 20.0245 5.45765 20.0245 5.61175V5.73285H22.5977V5.21629ZM12.6075 13.8798C11.6003 15.4778 10.4987 16.1039 10.4476 16.1323V16.132C10.2413 16.2389 9.98783 16.1625 9.87501 15.9596C9.76221 15.7568 9.83117 15.501 10.0308 15.3824C10.0419 15.376 11.0644 14.7873 11.9724 13.2791C11.1203 12.678 10.0212 12.5516 9.05495 12.9432C8.08867 13.3351 7.38797 14.1911 7.19492 15.2157C7.00187 16.2404 7.34327 17.2928 8.10077 18.0093C8.85825 18.7255 9.928 19.0075 10.9403 18.7578C11.9525 18.508 12.7684 17.7604 13.1055 16.7737C13.4426 15.7872 13.2549 14.6968 12.6074 13.8797L12.6075 13.8798ZM14.0616 9.76297L17.6565 14.1299V14.1301C17.886 14.0236 18.1386 13.9779 18.3909 13.997L20.2875 8.30639H14.1261C14.1355 8.79274 14.114 9.27926 14.0614 9.76284L14.0616 9.76297ZM18.2267 15.1766L18.2265 15.1768C18.3382 15.1544 18.4542 15.1778 18.5487 15.2415C18.6432 15.3051 18.7084 15.4037 18.7299 15.5156L18.8478 16.1188H18.8476C19.0757 15.8832 19.1245 15.5267 18.968 15.2385C18.8114 14.9503 18.4859 14.797 18.1641 14.8601C17.8423 14.9233 17.5986 15.1878 17.5624 15.5137C17.5262 15.8398 17.7057 16.1513 18.0058 16.2835L17.8878 15.6797C17.8661 15.5682 17.8896 15.4524 17.953 15.3581C18.0164 15.2636 18.115 15.1985 18.2265 15.1768L18.2267 15.1766ZM22.8977 15.2427V15.243C22.9997 14.1885 23.4222 13.1907 24.1082 12.3835L21.0471 8.74007L19.2064 14.2629C19.5302 14.4834 19.7626 14.8144 19.8601 15.1939L22.8977 15.2427ZM25.6255 14.0119C25.3575 14.3888 25.18 14.8226 25.107 15.2791L26.9972 15.3098L25.6255 14.0119ZM28.3883 15.4452H28.3881C28.5156 15.5658 28.5567 15.7523 28.4918 15.9153C28.4267 16.0784 28.2689 16.1856 28.0933 16.1856H28.0865L25.0897 16.1371C25.1881 16.9123 25.5823 17.6193 26.1897 18.1108C26.7971 18.602 27.5711 18.8398 28.3497 18.774C29.1282 18.7082 29.8513 18.3441 30.3678 17.7577C30.8842 17.1713 31.1541 16.4081 31.121 15.6274C31.0878 14.8469 30.7543 14.1092 30.1901 13.5686C29.626 13.028 28.8747 12.7264 28.0934 12.7268C27.41 12.726 26.747 12.9594 26.2151 13.3883L28.3883 15.4452ZM24.2418 15.2651H24.2415C24.3282 14.584 24.5944 13.9382 25.0133 13.3942L24.6811 13.0328C24.1688 13.6722 23.848 14.4436 23.756 15.2576L24.2418 15.2651ZM32.4628 15.7568C32.4615 14.5985 32.0007 13.4879 31.1815 12.6686C30.3625 11.8496 29.2519 11.3888 28.0933 11.3875C27.0623 11.385 26.0644 11.7506 25.2788 12.4185L25.6044 12.7778H25.6046C26.3 12.1889 27.1822 11.8666 28.0934 11.8688C29.1035 11.8683 30.0743 12.2612 30.7999 12.9638C31.5254 13.6666 31.949 14.6242 31.9811 15.6337C32.0131 16.6434 31.6508 17.6259 30.9712 18.3732C30.2914 19.1205 29.3477 19.5738 28.3394 19.6372C27.3314 19.7009 26.3381 19.3697 25.57 18.7137C24.8018 18.0577 24.3191 17.1285 24.224 16.1228L23.7423 16.1149C23.8664 17.628 24.7672 18.968 26.1214 19.6542C27.4756 20.3402 29.0889 20.274 30.3821 19.4791C31.6755 18.6843 32.4632 17.2747 32.4628 15.7567L32.4628 15.7568ZM25.2323 20.126C23.8614 19.2272 22.9918 17.7366 22.8838 16.1007L19.8445 16.0516C19.7185 16.477 19.4222 16.8312 19.0257 17.0302L19.3237 18.5559H19.839C20.0761 18.5559 20.2681 18.7481 20.2681 18.9849C20.2681 19.2221 20.0761 19.414 19.839 19.414H18.102C17.8651 19.414 17.6729 19.2221 17.6729 18.9849C17.6729 18.7481 17.8651 18.5559 18.102 18.5559H18.4497L18.1837 17.1937C17.8051 17.1664 17.4486 17.0053 17.1778 16.739C16.9073 16.473 16.7402 16.1193 16.7066 15.7411C16.673 15.3631 16.7751 14.9853 16.9946 14.6756L13.8592 10.8668C13.7836 11.1709 13.696 11.4713 13.5961 11.768C14.7838 12.7517 15.47 14.2145 15.4674 15.7568C15.4662 17.5191 14.5767 19.162 13.1015 20.126L25.2323 20.126ZM10.2402 20.126C11.3985 20.1247 12.5091 19.6639 13.3281 18.8447C14.1473 18.0257 14.6081 16.915 14.6094 15.7568C14.6128 14.5714 14.129 13.437 13.2711 12.6191C13.2019 12.7772 13.127 12.9304 13.0506 13.083V13.0833C13.9777 14.0572 14.3393 15.4394 14.0081 16.7426C13.6768 18.0458 12.6992 19.0875 11.4196 19.5008C10.14 19.9139 8.73776 19.6409 7.70676 18.7776C6.67597 17.9141 6.1609 16.5817 6.3431 15.2493C6.5253 13.9172 7.37923 12.7719 8.60389 12.217C9.82876 11.6621 11.2529 11.7754 12.3746 12.5171C12.4442 12.3698 12.5084 12.2196 12.5706 12.0674H12.5708C11.875 11.6226 11.0663 11.3867 10.2406 11.3876C8.67966 11.3876 7.23722 12.2202 6.45675 13.5722C5.67627 14.9239 5.67627 16.5894 6.45675 17.9412C7.23722 19.2931 8.67966 20.1258 10.2406 20.1258L10.2402 20.126Z" fill="black"/>
</g>
<defs>
<clipPath id="clip0_5342_31678">
<rect width="28.3333" height="17" fill="white" transform="matrix(-1 0 0 1 33.3334 4)"/>
</clipPath>
</defs>
</svg>
