<?xml version="1.0" encoding="utf-8"?>
<!-- Generator: Adobe Illustrator 22.1.0, SVG Export Plug-In . SVG Version: 6.00 Build 0)  -->
<svg version="1.1" id="Layer_1" xmlns="http://www.w3.org/2000/svg" xmlns:xlink="http://www.w3.org/1999/xlink" x="0px" y="0px"
	 viewBox="0 0 502.9 245" style="enable-background:new 0 0 502.9 245;" xml:space="preserve">
<style type="text/css">
	.st0{fill:#F6B917;}
	.st1{fill:none;}
	.st2{fill:#F0E8DC;}
	.st3{fill:#A07239;}
	.st4{fill:#B78C4C;}
	.st5{fill:#B08344;}
	.st6{fill:#A5773C;}
	.st7{fill:#B18241;}
	.st8{fill:#B08143;}
	.st9{fill:#B58946;}
	.st10{fill:#B98D4C;}
	.st11{fill:#BC9355;}
	.st12{fill:#D0A967;}
	.st13{fill:#BB9354;}
	.st14{fill:#B2894A;}
	.st15{fill:#C19651;}
	.st16{fill:#B48A4B;}
	.st17{fill:#BD904D;}
	.st18{fill:#C09351;}
	.st19{fill:#966B33;}
	.st20{fill:#AE7E40;}
	.st21{fill:#AC7C3C;}
	.st22{fill:#A87B3F;}
	.st23{fill:#B08141;}
	.st24{fill:#CFA35E;}
	.st25{fill:#A0753B;}
	.st26{fill:#966830;}
	.st27{fill:#8E632F;}
	.st28{fill:#B18142;}
	.st29{fill:#99652D;}
	.st30{fill:#D2B16F;}
	.st31{fill:#B78C48;}
	.st32{fill:#865C28;}
	.st33{fill:#A27235;}
	.st34{fill:#A4763C;}
	.st35{fill:#D9B56E;}
	.st36{fill:#CCA057;}
	.st37{fill:#D6B374;}
	.st38{fill:#B78C4A;}
	.st39{fill:#C09551;}
	.st40{fill:#B68D4D;}
	.st41{fill:#B88E4F;}
	.st42{fill:#9E7237;}
	.st43{fill:#AF8142;}
	.st44{fill:#8C6632;}
	.st45{fill:#BC9551;}
	.st46{fill:#9E7038;}
	.st47{fill:#AC8144;}
	.st48{fill:#B08345;}
	.st49{fill:#B48644;}
	.st50{fill:#B58949;}
	.st51{fill:#BB8F50;}
	.st52{fill:#AD8042;}
	.st53{fill:#C69C5B;}
	.st54{fill:#CCA96B;}
	.st55{fill:#BB9155;}
	.st56{fill:#C09A57;}
	.st57{fill:#956A34;}
	.st58{fill:#AA783B;}
	.st59{fill:#A87B3E;}
	.st60{fill:#B48649;}
	.st61{fill:#AC7F41;}
	.st62{fill:#885E2B;}
	.st63{fill:#B48949;}
	.st64{fill:#996B32;}
	.st65{fill:#BE9450;}
	.st66{fill:#B98A46;}
	.st67{fill:#D2AA65;}
	.st68{fill:#8E632C;}
	.st69{fill:#9C692C;}
	.st70{fill:#B88C4B;}
	.st71{fill:#C39853;}
	.st72{fill:#7F5221;}
	.st73{fill:#B28543;}
	.st74{fill:#9C6E34;}
	.st75{fill:#AB7B40;}
	.st76{fill:#90632D;}
	.st77{fill:#C39C58;}
	.st78{fill:#A6783B;}
	.st79{fill:#CBA45E;}
	.st80{fill:#9F7236;}
	.st81{fill:#B08343;}
	.st82{fill:#C1924D;}
	.st83{fill:#AC7939;}
	.st84{fill:#C1964E;}
	.st85{fill:#9C7535;}
	.st86{fill:#A17339;}
	.st87{fill:#AA7D40;}
	.st88{fill:#966730;}
	.st89{fill:#875C29;}
	.st90{fill:#B58746;}
	.st91{fill:#B68747;}
	.st92{fill:#9E7037;}
	.st93{fill:#B28746;}
	.st94{fill:#8A5F2A;}
	.st95{fill:#B78B4C;}
	.st96{fill:#CDA15C;}
	.st97{fill:#BB8E46;}
	.st98{fill:#A77E40;}
	.st99{fill:#AE8244;}
	.st100{fill:#AC7D3B;}
	.st101{fill:#B68947;}
	.st102{fill:#B89758;}
	.st103{fill:#9B6F37;}
	.st104{fill:#A5783B;}
	.st105{fill:#B18648;}
	.st106{fill:#9E7238;}
	.st107{fill:#B48948;}
	.st108{fill:#8F642E;}
	.st109{fill:#775021;}
	.st110{fill:#916631;}
	.st111{fill:#8E632D;}
	.st112{fill:#9D723B;}
	.st113{fill:#BE9352;}
	.st114{fill:#93662E;}
	.st115{fill:#B48847;}
	.st116{fill:#A97C3D;}
	.st117{fill:#B48747;}
	.st118{fill:#A98045;}
	.st119{fill:#9A6B35;}
	.st120{fill:#AB7F40;}
	.st121{fill:#BC914F;}
	.st122{fill:#A77941;}
	.st123{fill:#A2753D;}
	.st124{fill:#B28749;}
	.st125{fill:#C6A05F;}
	.st126{fill:#C99F5E;}
	.st127{fill:#A2743C;}
	.st128{fill:#B78B4A;}
	.st129{fill:#9E7138;}
	.st130{fill:#A0733A;}
	.st131{fill:#AD8445;}
	.st132{fill:#B28747;}
	.st133{fill:#B98E4A;}
	.st134{fill:#AA783C;}
	.st135{fill:#A9783A;}
	.st136{fill:#956832;}
	.st137{fill:#CBA25D;}
	.st138{fill:#B1813F;}
	.st139{fill:#C09455;}
	.st140{fill:#B28240;}
	.st141{fill:#BF934F;}
	.st142{fill:#A97E41;}
	.st143{fill:#C39550;}
	.st144{fill:#B28545;}
	.st145{fill:#B08241;}
	.st146{fill:#B5894A;}
	.st147{fill:#AE8543;}
	.st148{fill:#CBA462;}
	.st149{fill:#B68A4A;}
	.st150{fill:#C59E5D;}
	.st151{fill:#A2753A;}
	.st152{fill:#BD9252;}
	.st153{fill:#B08446;}
	.st154{fill:#A8793D;}
	.st155{fill:#9A6E38;}
	.st156{fill:#B38546;}
	.st157{fill:#CDA765;}
	.st158{fill:#D1A568;}
	.st159{fill:#AC8043;}
	.st160{fill:#916531;}
	.st161{fill:#825B29;}
	.st162{fill:#9B7036;}
	.st163{fill:#91652D;}
	.st164{fill:#D2B171;}
	.st165{fill:#A87C3F;}
	.st166{fill:#AF8345;}
	.st167{fill:#D1A864;}
	.st168{fill:#CBA05F;}
	.st169{fill:#B38949;}
	.st170{fill:#A3773E;}
	.st171{fill:#B48E4D;}
	.st172{fill:#A0753A;}
	.st173{fill:#C9A25E;}
	.st174{fill:#BB9150;}
	.st175{fill:#9F7138;}
	.st176{fill:#815825;}
	.st177{fill:#B38849;}
	.st178{fill:#BC9251;}
	.st179{fill:#BA904E;}
	.st180{fill:#9E753C;}
	.st181{fill:#B78C4D;}
	.st182{fill:#CAA05B;}
	.st183{fill:#B28546;}
	.st184{fill:#9F7137;}
	.st185{fill:#996C35;}
	.st186{fill:#BD924C;}
	.st187{fill:#C09353;}
	.st188{fill:#B4884B;}
	.st189{fill:#925F27;}
	.st190{fill:#C09452;}
	.st191{fill:#A67637;}
	.st192{fill:#9B6E33;}
	.st193{fill:#BD924F;}
	.st194{fill:#A2753C;}
	.st195{fill:#A07434;}
	.st196{fill:#B18443;}
	.st197{fill:#946730;}
	.st198{fill:#B58A4C;}
	.st199{fill:#C89756;}
	.st200{fill:#835B27;}
	.st201{fill:#B78E4A;}
	.st202{fill:#8B602A;}
	.st203{fill:#92662F;}
	.st204{fill:#996E36;}
	.st205{fill:#B28648;}
	.st206{fill:#AD8142;}
	.st207{fill:#9A6E35;}
	.st208{fill:#AF8343;}
	.st209{fill:#CDA061;}
	.st210{fill:#895E29;}
	.st211{fill:#785224;}
	.st212{fill:#AF8546;}
	.st213{fill:#9E7136;}
	.st214{fill:#CCA562;}
	.st215{fill:#AA7A3D;}
	.st216{fill:#A1733A;}
	.st217{fill:#B38748;}
	.st218{fill:#AC8042;}
	.st219{fill:#AF8548;}
	.st220{fill:#AC8044;}
	.st221{fill:#B28646;}
	.st222{fill:#C49856;}
	.st223{fill:#A37538;}
	.st224{fill:#C99E5E;}
	.st225{fill:#BF9453;}
	.st226{fill:#B0864B;}
	.st227{fill:#B98C47;}
	.st228{fill:#986A31;}
	.st229{fill:#805625;}
	.st230{fill:#BC9250;}
	.st231{fill:#B08142;}
	.st232{fill:#CCA05B;}
	.st233{fill:#D5A551;}
	.st234{fill:#C59E5E;}
	.st235{fill:#BF9656;}
	.st236{fill:#B38847;}
	.st237{fill:#C9A168;}
	.st238{fill:#7A5021;}
	.st239{fill:#8D6133;}
	.st240{fill:#AA7D41;}
	.st241{fill:#C09554;}
	.st242{fill:#B48546;}
	.st243{fill:#855B28;}
	.st244{fill:#C59852;}
	.st245{fill:#B88A48;}
	.st246{fill:#966931;}
</style>
<g>
	<g>
		<path class="st0" d="M502.4,244.5h-16.3v-14h16.3V244.5z M487.1,243.5h14.3v-12h-14.3L487.1,243.5L487.1,243.5z"/>
	</g>
	<g>
		<rect x="489" y="226" class="st1" width="11" height="11"/>
	</g>
	<g>
		<polygon points="495.5,231 494.5,231 494.5,0.5 5,0.5 5,-0.5 495.5,-0.5 		"/>
	</g>
	<g>
		<g>
			<path class="st2" d="M500,237.2c0,0.4-0.3,0.2-0.4,0.2c-3.4,0-6.8,0-10.3,0c-0.2,0-0.6,0.2-0.6-0.3c0-3.3,0-6.5,0-9.8
				c0-0.2,0.1-0.1,0.2-0.1c0.2,0.2,0.3,0.5,0.3,0.7c0,0.3,0,0.5,0,0.8c0,0.2,0,0.4,0,0.6c0,0.1,0,0.3,0,0.4c0,0.1,0,0.2,0,0.3
				c0,0.2,0,0.5,0,0.7s0,0.5,0,0.7c0,0.1,0,0.3,0,0.4c0,0.1,0,0.3,0,0.4c0,0.3,0,0.5,0.1,0.8c0,0.1,0,0.2,0,0.3
				c0,0.2-0.1,0.3-0.1,0.5s0,0.4,0,0.7c0,0.2,0,0.5,0,0.7c0,0.1,0,0.2,0,0.3s0,0.3,0,0.4c0,0.3,0.1,0.6,0.3,0.8s0.5,0.1,0.7,0.2
				c0.1,0,0.2,0,0.3,0c0.4,0,0.9-0.1,1.3-0.1c0.6,0.1,1.2,0.1,1.7,0.1c0.3,0,0.5,0,0.8,0s0.7,0,1,0c0.2,0,0.5,0,0.7,0
				c0.8,0,1.7,0,2.5,0C499.1,236.9,499.6,236.8,500,237.2z"/>
			<path class="st3" d="M494.2,227.2c0.5,0,0.9,0,1.4,0c0.1,0.1,0.1,0.1,0.1,0.2c-0.1,0.3-0.4,0.4-0.7,0.6c-0.2,0.1-0.2,0.4-0.4,0.5
				c-0.3,0-0.6-0.1-0.9-0.2c-0.2-0.2-0.3-0.4-0.2-0.7C493.6,227.2,494,227.4,494.2,227.2z"/>
			<path class="st4" d="M500,229.6c0,0.2,0,0.4,0,0.6c-0.2,0.2,0,0.4-0.2,0.6c-0.1,0.1-0.1,0.1-0.2,0.2c-0.1,0-0.2,0-0.3,0
				c-0.1,0-0.2-0.1-0.2-0.1c-0.1-0.1-0.2-0.3-0.2-0.5c-0.1-0.2-0.2-0.4-0.3-0.6c0-0.2,0-0.4,0.1-0.6c0.1-0.1,0.1-0.1,0.2-0.2
				c0.1,0,0.2-0.1,0.3,0c0.1,0,0.2,0.1,0.2,0.1C499.6,229.3,499.8,229.4,500,229.6z"/>
			<path class="st5" d="M500,237.2c-0.5,0-0.9,0-1.4-0.1c-0.1-0.2-0.1-0.4,0-0.6c0-0.1,0.1-0.2,0.1-0.3c0.1-0.2,0.3-0.2,0.5-0.3
				c0.2,0,0.3,0.1,0.5,0.3c0.1,0.2,0,0.5,0.3,0.5C500,236.9,500,237.1,500,237.2z"/>
			<path class="st6" d="M498.2,227.2c0.1,0,0.3,0,0.4,0c0.5,0.3,0.7,0.7,0.3,1.2c-0.3,0.2-0.6,0-0.9,0c-0.1,0-0.3-0.1-0.4-0.2
				c0-0.1-0.1-0.2-0.1-0.3C497.6,227.5,497.9,227.4,498.2,227.2z"/>
			<path class="st7" d="M499.6,236.4c-0.1-0.1-0.3-0.1-0.4-0.2c-0.4-0.2-0.5-0.5-0.4-0.9c0-0.1,0.1-0.2,0.1-0.3
				c0.2-0.2,0.5-0.1,0.7,0s0.3,0.3,0.4,0.4c0,0.1,0,0.1,0,0.2C499.8,235.8,499.9,236.2,499.6,236.4z"/>
			<path class="st8" d="M498.8,228.4c0.2-0.4,0-0.8-0.2-1.2c0.2,0,0.4,0,0.6,0c0.1,0.1,0.2,0.1,0.3,0.2c0.1,0.2,0.2,0.4,0.2,0.6
				c0,0.1,0,0.2-0.1,0.3c-0.1,0.2-0.2,0.3-0.4,0.4c-0.1,0-0.3,0-0.4-0.1C498.7,228.6,498.7,228.5,498.8,228.4z"/>
			<path class="st9" d="M500,232c0,0.2,0,0.4,0,0.6c-0.1,0.1-0.2,0.1-0.3,0.1c-0.4-0.1-0.7-0.2-0.9-0.6c0-0.1,0-0.3,0-0.4
				c0-0.1,0.1-0.2,0.3-0.3c0.1,0,0.2-0.1,0.3,0c0.1,0,0.2,0.1,0.3,0.2c0.1,0.1,0.1,0.2,0.2,0.3C499.9,231.9,499.9,231.9,500,232z"/>
			<path class="st10" d="M494.2,227.2c-0.2,0.1-0.4,0.3-0.6,0.4c-0.4,0.3-0.8,0.4-1.2,0.1c-0.1-0.2-0.2-0.3,0-0.5
				C493,227.2,493.6,227.2,494.2,227.2z"/>
			<path class="st11" d="M489,228c0-0.3,0-0.5,0-0.8c0.3,0,0.7,0,1,0c0.1,0.1,0.1,0.1,0.1,0.2c-0.1,0.4-0.5,0.5-0.8,0.6
				C489.2,228.1,489.1,228.1,489,228z"/>
			<path class="st12" d="M492.4,227.2c0,0.1,0,0.3,0,0.4c0.1,0.1,0.1,0.2,0,0.2s-0.2,0.1-0.3,0.1c-0.3,0-0.6,0-0.8-0.2
				c-0.1-0.1-0.1-0.2-0.1-0.3s0.1-0.2,0.1-0.2C491.7,227.2,492.1,227.2,492.4,227.2z"/>
			<path class="st13" d="M499.6,236.4c0-0.3,0-0.6,0.4-0.8c0,0.4,0,0.8,0,1.2C499.5,237,499.6,236.7,499.6,236.4z"/>
			<path class="st14" d="M499.6,228.2c-0.1-0.3-0.4-0.4-0.2-0.8c0.1-0.1,0.2-0.1,0.4-0.1c0.1,0,0.2,0,0.2,0.1c0,0.3,0,0.5,0,0.8
				C499.9,228.3,499.7,228.3,499.6,228.2z"/>
			<path class="st15" d="M491.4,227.2c0,0.1,0,0.1,0,0.2c-0.3,0.4-0.7,0.5-1.1,0.3c-0.1-0.1-0.2-0.2-0.3-0.4c0-0.1,0-0.1,0-0.2
				C490.5,227.2,490.9,227.2,491.4,227.2z"/>
			<path class="st16" d="M498.2,227.2c-0.1,0.3-0.4,0.5-0.4,0.8c-0.2,0.2-0.4,0.1-0.5-0.1c-0.1-0.3,0.1-0.5,0.3-0.7
				C497.8,227.2,498,227.2,498.2,227.2z"/>
			<path class="st17" d="M500,229.6c-0.3,0-0.7,0-0.8-0.4c0.1-0.1,0.2-0.3,0.4-0.3c0.1,0,0.3,0,0.4,0.1
				C500,229.2,500,229.4,500,229.6z"/>
			<path class="st18" d="M500,233.6c0,0.2,0,0.4,0,0.6c-0.1,0.1-0.2,0.1-0.4,0.1c-0.3-0.2-0.3-0.5-0.3-0.8c0-0.1,0.1-0.2,0.2-0.2
				s0.2,0,0.3,0C499.9,233.4,499.9,233.5,500,233.6z"/>
			<path class="st19" d="M497.6,227.2c-0.1,0.2-0.1,0.4-0.2,0.6c-0.1,0.1-0.1,0.1-0.2,0.1s-0.2,0-0.2-0.1c-0.1-0.1-0.1-0.2-0.1-0.4
				c0-0.1,0.1-0.2,0.2-0.2C497.2,227.2,497.4,227.2,497.6,227.2z"/>
			<path class="st20" d="M495.6,227.4c0-0.1,0-0.1,0-0.2c0.1,0,0.3,0,0.4,0c0.1,0.1,0.1,0.2,0.1,0.3c-0.1,0.3-0.1,0.6-0.5,0.6
				c-0.1,0-0.2,0-0.3-0.1C495.2,227.7,495.4,227.5,495.6,227.4z"/>
			<path class="st21" d="M500,235.4c-0.1-0.1-0.3-0.1-0.4-0.2c-0.1-0.3,0-0.5,0.1-0.6c0.1,0,0.2,0,0.3,0
				C500,234.9,500,235.1,500,235.4z"/>
			<path class="st22" d="M500,229c-0.1,0-0.3,0-0.4,0c-0.2,0.1-0.2,0-0.3-0.1c0-0.1,0-0.2,0-0.3c0.1-0.1,0.1-0.1,0.2-0.1
				c0.2,0,0.3,0.2,0.4,0.3C500,228.9,500,228.9,500,229z"/>
			<path class="st23" d="M499.6,230.8c0.1,0,0.1,0,0.2,0h0.1c0,0.1,0.1,0.1,0.1,0.2c0,0.1,0,0.3,0,0.4l-0.1,0.1h-0.1
				c-0.1,0-0.2-0.1-0.2-0.2c0-0.1-0.1-0.2-0.1-0.3S499.5,230.9,499.6,230.8z"/>
			<path class="st24" d="M499.8,233.4c-0.1,0-0.1,0-0.2,0c-0.2-0.2-0.2-0.4-0.1-0.6c0.2-0.1,0.3-0.1,0.5,0c0,0.1,0,0.1,0,0.2
				c-0.1,0.1-0.1,0.2-0.1,0.3C499.9,233.3,499.9,233.4,499.8,233.4z"/>
			<path class="st15" d="M500,234.6c-0.1,0-0.1,0-0.2,0s-0.2-0.1-0.3-0.2v-0.1c0,0,0-0.1,0.1-0.1s0.3,0,0.4,0
				C500,234.3,500,234.5,500,234.6z"/>
			<path class="st25" d="M497,227.2c0,0.1,0,0.1,0,0.2c-0.2,0.2-0.3,0.2-0.5,0.1c-0.1-0.1-0.1-0.2-0.1-0.3
				C496.6,227.2,496.8,227.2,497,227.2z"/>
			<path class="st14" d="M499.8,230.8c0-0.2,0-0.5,0.2-0.6c0,0.2,0,0.4,0,0.6C499.9,230.9,499.9,230.9,499.8,230.8L499.8,230.8z"/>
			<path class="st26" d="M496.4,227.2c0,0.1,0,0.1,0,0.2v0.1c-0.1,0.1-0.1,0.1-0.2,0.1h-0.1l-0.1-0.1c0-0.1,0-0.1,0-0.1
				c0-0.1,0-0.1,0-0.2C496.1,227.2,496.3,227.2,496.4,227.2z"/>
			<path class="st27" d="M499.8,227.4c-0.1,0-0.3,0-0.4,0c-0.1-0.1-0.1-0.1-0.2-0.2c0.2,0,0.4,0,0.6,0
				C499.9,227.2,499.9,227.3,499.8,227.4L499.8,227.4z"/>
			<path class="st28" d="M500,232c-0.1,0-0.1,0-0.2,0c-0.1-0.1-0.1-0.3,0-0.4c0.1-0.1,0.2-0.1,0.2,0C500,231.7,500,231.9,500,232z"
				/>
			<path class="st29" d="M500,232.8c-0.1,0-0.3,0-0.4,0c-0.1-0.1-0.1-0.1,0-0.2c0.1,0,0.2,0,0.2,0c0.1,0,0.1,0,0.2,0
				C500,232.7,500,232.7,500,232.8z"/>
			<path class="st30" d="M499.6,228.2c0.1,0,0.3,0,0.4,0c0,0.1,0,0.1,0,0.2c-0.1,0.1-0.2,0.1-0.4,0.1
				C499.6,228.4,499.5,228.3,499.6,228.2L499.6,228.2L499.6,228.2z"/>
			<path class="st31" d="M499.8,233.4c0-0.1,0-0.1,0-0.2c0.1-0.1,0.1-0.1,0.2,0c0,0.1,0,0.3,0,0.4
				C499.9,233.5,499.9,233.5,499.8,233.4z"/>
			<path class="st32" d="M500,228.8c-0.2,0-0.3,0-0.4-0.2c0.1-0.1,0.2-0.1,0.4,0C500,228.7,500,228.7,500,228.8z"/>
			<path class="st33" d="M500,228.6c-0.1,0-0.2,0-0.4,0l0,0c0,0-0.1-0.1,0-0.1c0,0,0-0.1,0.1-0.1s0.3,0,0.4,0
				C500,228.5,500,228.5,500,228.6z"/>
			<path class="st34" d="M499.8,227.4c0-0.1,0-0.1,0-0.2c0.2,0,0.2,0,0.2,0.2C499.9,227.4,499.9,227.4,499.8,227.4z"/>
			<path class="st35" d="M499.8,230.8c0.1,0,0.1,0,0.2,0c0,0.1,0,0.1,0,0.2C499.9,230.9,499.9,230.9,499.8,230.8z"/>
			<path class="st36" d="M500,231.6c-0.1,0-0.1,0-0.2,0c0,0-0.1-0.1,0-0.1v-0.1c0.1,0,0.1,0,0.2,0C500,231.5,500,231.5,500,231.6z"
				/>
			<path class="st37" d="M500,233.2c-0.1,0-0.1,0-0.2,0c0.1-0.1,0.1-0.1,0.2-0.2C500,233.1,500,233.1,500,233.2z"/>
			<path class="st38" d="M498.8,236.6c-0.1,0.2-0.1,0.3-0.2,0.5c-0.9,0-1.8,0-2.6,0c-0.2-0.2-0.5-0.1-0.7-0.3
				c-0.4-0.8,0.4-0.8,0.7-1.2c0.1,0,0.2-0.1,0.3-0.1c0.2,0,0.4,0.1,0.5,0.3c0.3,0.6,0.8,0.3,1.2,0.3
				C498.3,236.2,498.6,236.3,498.8,236.6z"/>
			<path class="st39" d="M489.1,229.4c0-0.2,0-0.4,0-0.6c0.1-0.1,0.2-0.2,0.3-0.3c0.5-0.3,1-0.8,1.7-0.7c0.3,0.1,0.5,0.3,0.7,0.6
				c0,0.2-0.1,0.4-0.2,0.5s-0.3,0.1-0.4,0.2c-0.3,0-0.5,0-0.8,0.2C489.9,229.4,489.5,229.6,489.1,229.4z"/>
			<path class="st40" d="M489,232c0-0.1,0-0.3,0-0.4c0.1-0.1,0.1-0.1,0.2-0.2c0.2-0.1,0.4-0.2,0.5-0.3c0.2-0.1,0.3-0.2,0.3-0.4
				s0.2-0.3,0.3-0.4c0.1,0,0.2,0,0.3,0c0.3,0.3,0.6,0.6,0.8,0.9c0,0.1,0,0.2,0,0.3s-0.1,0.2-0.3,0.3c-0.1,0.1-0.3,0.1-0.4,0.1
				c-0.5-0.1-0.8,0.1-1.3,0.2C489.3,232.2,489.2,232.2,489,232z"/>
			<path class="st41" d="M493.6,237.2c-0.6,0-1.2,0.2-1.8-0.2c-0.1-0.1-0.1-0.2-0.1-0.3s0.1-0.2,0.1-0.2c0.1-0.1,0.1-0.1,0.2-0.1
				s0.2,0,0.2,0c0.2,0,0.3,0,0.5,0c0.1,0,0.2,0,0.3,0c0.3,0.1,0.6,0.1,0.7,0.3C493.8,236.8,493.8,237,493.6,237.2z"/>
			<path class="st42" d="M490.4,230.4c-0.1,0.1-0.1,0.3-0.2,0.4c-0.4,0.1-0.8,0.3-1.1,0c0-0.3,0-0.5,0-0.8c0.3-0.3,0.7-0.3,1-0.2
				c0.2,0.1,0.3,0.2,0.3,0.4C490.4,230.3,490.4,230.3,490.4,230.4z"/>
			<path class="st43" d="M491.8,236.6c0,0.1,0,0.3,0,0.4c-0.4,0.3-0.9,0.1-1.4,0.2c-0.2-0.3,0.1-0.5,0.2-0.7
				c0.2-0.1,0.4-0.3,0.6-0.4C491.5,236.1,491.7,236.3,491.8,236.6z"/>
			<path class="st44" d="M489.1,229.4c0.4-0.1,0.8-0.3,1.1-0.4c0.3,0,0.5,0.1,0.5,0.4c0,0.1,0,0.2-0.1,0.3s-0.2,0.1-0.2,0.1
				c-0.2,0-0.5,0-0.7,0.1c-0.2,0-0.5,0.1-0.7-0.1C489,229.7,489.1,229.5,489.1,229.4z"/>
			<path class="st45" d="M495.4,237.2c-0.3,0-0.7,0-1,0c-0.2-0.2-0.5-0.4-0.5-0.8c0-0.2,0.1-0.3,0.3-0.4c0.1,0,0.2,0,0.3,0
				c0.5,0.2,0.5,0.8,0.9,1C495.4,237,495.4,237,495.4,237.2C495.4,237.1,495.4,237.2,495.4,237.2z"/>
			<path class="st46" d="M489,230.8c0.4,0,0.8-0.3,1.1,0c0.2,0.5-0.1,0.4-0.4,0.4c-0.2,0.1-0.4,0.2-0.6,0.4c-0.1,0-0.1,0-0.2,0
				C489,231.3,489,231.1,489,230.8z"/>
			<path class="st47" d="M494,236.4c0.1,0.2,0.6,0.3,0.4,0.7c-0.3,0-0.5,0-0.8,0c0-0.2,0-0.4,0-0.6c-0.1-0.1-0.1-0.1,0-0.2
				c0.1-0.1,0.1-0.1,0.2-0.1C493.9,236.3,494,236.3,494,236.4z"/>
			<path class="st48" d="M489.2,233.4c0-0.1,0-0.1,0-0.2c0,0,0.1,0,0.1-0.1c0.3,0,0.5,0.1,0.8,0.3c0.1,0.1,0.2,0.3,0.2,0.5
				c0,0.1,0,0.2-0.1,0.3c-0.1,0.2-0.3,0.3-0.5,0.2c-0.2-0.1-0.4-0.2-0.5-0.3C489.3,233.9,489.1,233.7,489.2,233.4z"/>
			<path class="st49" d="M489.2,237c-0.1-0.3-0.1-0.7-0.2-1c0.6-0.6,0.7,0.2,0.9,0.4c0,0.2,0,0.3-0.1,0.4
				C489.7,237,489.5,237.2,489.2,237z"/>
			<path class="st50" d="M489.8,236.4c-0.3,0-0.3-0.7-0.8-0.4c0-0.1,0-0.3,0-0.4c0.3-0.4,0.7-0.1,1,0c0.1,0.1,0.1,0.1,0.2,0.2
				c0,0.1,0,0.2,0,0.3C490.2,236.3,490.1,236.5,489.8,236.4z"/>
			<path class="st51" d="M489.4,234.2c0.2-0.1,0.4-0.1,0.4,0.2c0.1,0.2,0,0.4-0.2,0.5c-0.3,0.1-0.5,0-0.6-0.3c0-0.3,0-0.5,0-0.8
				C489.4,233.7,489.2,234.1,489.4,234.2z"/>
			<path class="st52" d="M489.8,236.4c0.1-0.1,0.3-0.3,0.4-0.4c0.3,0.1,0.5,0.3,0.6,0.6c-0.1,0.2-0.4,0.3-0.4,0.6h-0.1h-0.1
				c-0.1-0.1-0.3-0.2-0.4-0.4C489.8,236.7,489.8,236.5,489.8,236.4z"/>
			<path class="st53" d="M489,234.6c0.2,0.1,0.4,0.1,0.6,0.2c0.2,0,0.4,0.1,0.4,0.3s-0.1,0.3-0.3,0.3c-0.2,0-0.5,0.2-0.7,0
				C489,235.1,489,234.9,489,234.6z"/>
			<path class="st54" d="M489.1,235.4c0.2-0.1,0.4-0.1,0.6-0.2c0.2,0.2,0.5,0.1,0.7,0.3c0.1,0.2,0.2,0.3-0.1,0.3
				c-0.4-0.1-0.8-0.1-1.1-0.2C489,235.5,489,235.5,489.1,235.4z"/>
			<path class="st40" d="M489.2,233.2c-0.3-0.2-0.2-0.5-0.2-0.8c0.1-0.2,0.3-0.3,0.6-0.3c0.1,0.1,0.1,0.2,0.1,0.3s-0.1,0.2-0.1,0.3
				c-0.1,0.1-0.1,0.2-0.2,0.3C489.3,233.1,489.3,233.2,489.2,233.2L489.2,233.2z"/>
			<path class="st55" d="M489.8,236.8c0.2,0,0.4,0.1,0.4,0.4c-0.3,0-0.7,0.2-1-0.2C489.4,236.9,489.6,236.9,489.8,236.8z"/>
			<path class="st56" d="M489,229.8c0.2,0,0.5,0,0.7,0c0.2-0.1,0.4-0.2,0.4,0.2c-0.4,0-0.8,0-1.2,0C489,229.9,489,229.9,489,229.8z"
				/>
			<path class="st57" d="M489.4,228.8c-0.1,0-0.2,0-0.4,0c0-0.3,0-0.5,0-0.8h0.1C489.6,228.2,489.6,228.2,489.4,228.8z"/>
			<path class="st58" d="M495.4,237.2c0-0.1,0-0.1,0-0.2c-0.1,0-0.1-0.1-0.1-0.1s0-0.1,0.1-0.1c0.3,0,0.5,0,0.6,0.4
				C495.8,237.2,495.6,237.2,495.4,237.2z"/>
			<path class="st59" d="M489.4,234.2c-0.1-0.1-0.2-0.3-0.4-0.4c0-0.2,0-0.3,0.2-0.4C489.5,233.6,489.5,233.9,489.4,234.2z"/>
			<path class="st60" d="M489.6,232.2c-0.2,0.1-0.4,0.1-0.6,0.2c0-0.1,0-0.3,0-0.4c0.2,0,0.4,0,0.6,0
				C489.6,232.1,489.6,232.1,489.6,232.2z"/>
			<path class="st61" d="M492.4,227.8c0-0.1,0-0.1,0-0.2c0.4,0,0.8,0,1.2,0c0.1,0.2,0.1,0.4,0.2,0.6c0,0.1-0.1,0.2-0.2,0.3
				c-0.2,0-0.3-0.1-0.5,0c-0.3,0-0.5-0.2-0.7-0.4C492.3,228,492.3,227.9,492.4,227.8z"/>
			<path class="st62" d="M493.6,228.4c0.1-0.1,0.1-0.1,0.2-0.2c0.3-0.2,0.6,0.1,0.8,0.2c0.2-0.1,0.2,0,0.2,0.2
				c-0.1,0.1-0.1,0.1-0.2,0.2c-0.1,0-0.3,0.1-0.4,0C494,228.8,493.8,228.7,493.6,228.4C493.6,228.5,493.6,228.4,493.6,228.4z"/>
			<path class="st63" d="M495.6,227.4c-0.1,0.2-0.1,0.4-0.2,0.6c0.1,0.1,0,0.2-0.1,0.3c-0.4,0.1-0.6,0-0.6-0.5
				C495.1,227.7,495.3,227.5,495.6,227.4z"/>
			<path class="st64" d="M494.8,227.8c0.1,0.2,0.3,0.4,0.6,0.4c0,0.5-0.2,0.5-0.6,0.4c-0.1-0.1-0.1-0.1-0.2-0.2
				C494.6,228.2,494.6,228,494.8,227.8z"/>
			<path class="st65" d="M499.2,230.2c0,0.2,0,0.4,0,0.6c0,0,0,0.1-0.1,0.1c-0.1,0.1-0.1,0.1-0.2,0.1c-0.2,0.1-0.4,0.1-0.6,0.1
				c-0.3-0.1-0.4-0.3-0.5-0.6c0-0.1,0-0.2,0.1-0.3s0.1-0.1,0.2-0.1c0.2,0,0.3,0,0.5,0C498.8,230.1,499,230,499.2,230.2z"/>
			<path class="st66" d="M499,229.2c-0.1,0.2-0.1,0.4-0.2,0.6c-0.1,0.1-0.1,0.1-0.2,0.1h-0.1c-0.1,0-0.1-0.1-0.2-0.2
				c-0.1-0.2-0.2-0.4-0.1-0.7c0.1-0.2,0.4-0.3,0.6-0.2C498.9,229,498.9,229.1,499,229.2z"/>
			<path class="st67" d="M498.6,229.8c0.1,0,0.1,0,0.2,0c0.1,0.1,0.3,0.3,0.4,0.4c-0.3-0.1-0.3,0.4-0.6,0.2
				c-0.1-0.1-0.1-0.1-0.1-0.2C498.4,230,498.5,229.9,498.6,229.8z"/>
			<path class="st68" d="M499.4,228.8c0.1,0.1,0.1,0.1,0.2,0.2c-0.1,0.2-0.2,0.2-0.4,0.2c0-0.1,0-0.1,0-0.2c0-0.1-0.1-0.1,0-0.2
				C499.3,228.7,499.3,228.7,499.4,228.8z"/>
			<path class="st69" d="M499.6,230.8c0,0.1,0,0.1,0,0.2c-0.1,0-0.1,0-0.2,0c-0.1-0.1,0-0.1,0-0.2
				C499.5,230.8,499.5,230.8,499.6,230.8z"/>
			<path class="st70" d="M499.4,230.8c0,0.1,0,0.1,0,0.2c0,0-0.1,0-0.1,0.1c-0.1,0-0.1,0-0.2-0.1c0-0.1,0-0.1,0.1-0.2l0,0
				C499.3,230.8,499.3,230.8,499.4,230.8z"/>
			<path class="st71" d="M499,229.2c-0.1-0.1-0.1-0.1-0.2-0.2l0.1-0.1h0.1l0.1,0.1C499,229.1,499,229.1,499,229.2z"/>
			<path class="st72" d="M499.2,228.8c0,0.1,0,0.1,0,0.2h-0.1H499l0,0c0-0.1,0-0.2,0.1-0.2H499.2z"/>
			<path class="st73" d="M499,235.2c0,0.3,0,0.7,0.2,1c-0.1,0.1-0.3,0.1-0.4,0.2c-0.3-0.1-0.6-0.1-0.8-0.4c0-0.1-0.1-0.2,0-0.3
				c0.1-0.3,0.2-0.5,0.5-0.7C498.7,235,498.8,235,499,235.2z"/>
			<path class="st74" d="M498,236c0.3,0,0.7-0.1,0.8,0.4c0,0.1,0,0.1,0,0.2c-0.3-0.1-0.7-0.1-1-0.2c-0.2,0.1-0.2,0-0.3-0.2
				C497.6,236,497.8,236,498,236z"/>
			<path class="st74" d="M498.8,229c-0.2,0-0.5,0-0.6,0.2c-0.5,0-0.6,0-0.5-0.8c0.1-0.2,0.3-0.1,0.5-0.2c0.3-0.2,0.4,0.2,0.6,0.2
				c0,0.1,0,0.1,0,0.2C498.9,228.7,498.9,228.9,498.8,229L498.8,229z"/>
			<path class="st75" d="M497.2,227.8c0.1,0,0.1,0,0.2,0c0.1,0.1,0.2,0.2,0.4,0.2c0,0.1,0,0.1,0,0.2c-0.1,0.1-0.1,0.1-0.2,0.1
				c-0.2,0-0.3,0-0.4-0.1C497.1,228.1,497.1,227.9,497.2,227.8z"/>
			<path class="st76" d="M497.6,228.2c0.1,0,0.1,0,0.2,0s0.3,0,0.4,0c-0.1,0.1-0.3,0.1-0.4,0.2c-0.1,0-0.1,0-0.2,0
				C497.5,228.3,497.5,228.3,497.6,228.2z"/>
			<path class="st77" d="M499,235.2c-0.2,0-0.4,0-0.6,0c-0.2,0.1-0.3,0.3-0.6,0.3c-0.2-0.1-0.3-0.2-0.3-0.4c0-0.3,0.2-0.4,0.4-0.6
				c0.2-0.1,0.5-0.2,0.7-0.3c0.2,0,0.3,0.1,0.3,0.2c0.1,0.2,0.1,0.4,0,0.7C499,235.1,499,235.1,499,235.2z"/>
			<path class="st78" d="M499,235c-0.2-0.2-0.2-0.4-0.2-0.6c0.1-0.1,0.2-0.2,0.4-0.2c0.2,0,0.3,0.1,0.4,0.2c0.1,0.1,0.1,0.1,0.2,0.2
				c-0.1,0.2-0.1,0.4-0.2,0.6C499.4,235.1,499.2,235.1,499,235z"/>
			<path class="st79" d="M499.4,228.8c-0.1,0-0.1,0-0.2,0l0,0c-0.1,0-0.1-0.1-0.1-0.1s0-0.1,0.1-0.1c0.1-0.2,0.2-0.3,0.4-0.4
				c0,0.1,0,0.1,0,0.2c0,0.1,0,0.1,0,0.2C499.5,228.7,499.5,228.7,499.4,228.8z"/>
			<path class="st80" d="M499.2,228.6c0,0.1,0,0.1,0,0.2c-0.1,0.1-0.1,0.1-0.2,0.2c-0.1,0-0.2,0-0.2,0c0-0.1,0-0.3,0-0.4
				C498.9,228.6,499.1,228.6,499.2,228.6z"/>
			<path class="st81" d="M499,231.6c0,0.1,0,0.3,0,0.4c-0.2,0.2,0.2,0.4,0.1,0.6c-0.1,0.2-0.3,0.3-0.5,0.3c-0.4-0.1-0.4-0.5-0.8-0.6
				c-0.1-0.1-0.2-0.2-0.3-0.3c0-0.1,0-0.3,0-0.4c0.2-0.2,0.4-0.3,0.6-0.5c0.1,0,0.2,0,0.2,0c0.1,0,0.2,0,0.2,0.1
				c0.1,0.1,0.2,0.1,0.3,0.2C498.9,231.5,499,231.5,499,231.6z"/>
			<path class="st82" d="M499,232.6c-0.1-0.2-0.3-0.4,0-0.6c0.1,0.4,0.6,0.3,0.8,0.6c-0.1,0-0.1,0-0.2,0
				C499.4,232.9,499.2,233.1,499,232.6z"/>
			<path class="st83" d="M499.8,231.4c0,0.1,0,0.1,0,0.2c0,0.1,0,0.3,0,0.4c-0.2-0.1-0.2-0.2-0.2-0.4c-0.1,0-0.1-0.1-0.1-0.1
				c0-0.1,0-0.1,0-0.1C499.7,231.3,499.7,231.3,499.8,231.4L499.8,231.4z"/>
			<path class="st84" d="M499,231.6c-0.1,0-0.1,0-0.2,0c-0.1-0.1-0.1-0.1-0.1-0.2c0-0.1,0-0.1,0.1-0.1s0.2-0.1,0.3,0l0.1,0.1
				C499.1,231.5,499.1,231.5,499,231.6z"/>
			<path class="st85" d="M499.6,231.4c0,0.1,0,0.1,0,0.2c-0.1-0.1-0.1-0.1-0.2-0.2C499.4,231.4,499.5,231.4,499.6,231.4
				C499.5,231.4,499.6,231.4,499.6,231.4z"/>
			<path class="st70" d="M499.4,231.4c-0.1,0-0.1,0-0.2,0l0,0c0-0.1,0-0.2,0.1-0.2h0.1C499.5,231.2,499.5,231.3,499.4,231.4
				L499.4,231.4L499.4,231.4z"/>
			<path class="st86" d="M489.4,228.8c-0.1-0.3-0.1-0.5-0.2-0.8c0.3-0.2,0.5-0.4,0.8-0.6c0.1,0.1,0.1,0.1,0.2,0.2
				c0.2,0.2,0.5,0,0.8,0.1c0.1,0.1,0.1,0.2,0,0.2C490.4,228.1,489.9,228.5,489.4,228.8z"/>
			<path class="st87" d="M491,228c0-0.1,0-0.1,0-0.2c0.1-0.2,0.3-0.2,0.4-0.2c0.2,0.3,0.6-0.1,0.8,0.2c0.1,0.3-0.1,0.5-0.3,0.7
				c-0.1,0-0.2,0-0.3-0.1C491.3,228.4,491.2,228.1,491,228z"/>
			<path class="st88" d="M491.8,228.4c0.1-0.2,0.3-0.4,0.4-0.6c0.1,0,0.1,0,0.2,0c0,0.1,0,0.1,0,0.2c0.3,0.2,0.5,0.4,0.3,0.8
				c-0.1,0.1-0.2,0.1-0.3,0.2C492,229,491.7,228.9,491.8,228.4z"/>
			<path class="st89" d="M491.4,227.6c-0.1,0.2-0.2,0.2-0.4,0.2c-0.3,0-0.6,0.1-0.8-0.2c0.4-0.1,0.8-0.1,1.2-0.2
				C491.4,227.5,491.4,227.5,491.4,227.6z"/>
			<path class="st90" d="M499,232.6c0.2,0.3,0.4,0.1,0.6,0c0,0.1,0,0.1,0,0.2c0,0.2,0,0.4,0,0.6c-0.1,0-0.1,0-0.2,0
				c-0.1,0.4-0.4,0.5-0.8,0.5c-0.3-0.1-0.6,0.1-0.9-0.1c-0.1-0.7,0.4-0.8,0.9-1C498.7,232.7,498.9,232.7,499,232.6z"/>
			<path class="st91" d="M498.6,233.8c0.3-0.1,0.5-0.3,0.8-0.4c0.1,0.3,0.2,0.5,0.2,0.8l0,0c-0.1,0.1-0.3,0.1-0.4,0.2
				c-0.1,0-0.3,0-0.4,0c-0.1-0.1-0.1-0.1-0.2-0.2l-0.1-0.1C498.5,234,498.5,233.9,498.6,233.8z"/>
			<path class="st92" d="M496.4,227.4c0.2,0,0.4,0,0.6,0c0,0.1,0,0.3,0,0.4c-0.1,0.2-0.2,0.3-0.5,0.3c-0.2,0-0.3,0-0.4-0.1
				s-0.1-0.3,0.1-0.4l0,0C496.3,227.5,496.3,227.5,496.4,227.4L496.4,227.4z"/>
			<path class="st93" d="M496.6,228c0.1-0.1,0.3-0.1,0.4-0.2c0.1,0,0.1,0,0.2,0c0,0.1,0,0.3,0,0.4c0,0,0,0.1-0.1,0.1
				c-0.2,0.2-0.4,0.3-0.6,0.1C496.5,228.2,496.5,228.1,496.6,228z"/>
			<path class="st94" d="M494.8,228.6c0.2-0.1,0.4-0.3,0.6-0.4c0-0.1,0-0.1,0-0.2c0.1,0,0.1,0,0.2,0c0.3,0.1,0.4,0.3,0.3,0.6
				c0,0.1-0.1,0.2-0.2,0.2c-0.2,0.1-0.4,0.2-0.7,0.3c-0.3,0-0.7,0-0.4-0.5C494.7,228.6,494.7,228.6,494.8,228.6z"/>
			<path class="st95" d="M495.8,228.6c-0.1-0.2-0.1-0.4-0.2-0.6c0.1-0.2,0.3-0.4,0.4-0.6c0.1,0.1,0.1,0.1,0.2,0.2c0,0.1,0,0.3,0,0.4
				C496.2,228.3,496.3,228.7,495.8,228.6z"/>
			<path class="st96" d="M499.4,231.4c0-0.1,0-0.1,0-0.2c0.1-0.1,0.1-0.1,0.2,0s0.1,0.1,0.2,0.2c-0.1,0-0.1,0-0.2,0
				S499.5,231.4,499.4,231.4z"/>
			<path class="st70" d="M499.6,231.2L499.6,231.2c-0.1,0-0.2,0-0.2,0l0,0c-0.1,0-0.1-0.1-0.1-0.1s0-0.1,0.1-0.1l0,0
				c0.1,0,0.1,0,0.2,0C499.6,231.1,499.6,231.1,499.6,231.2z"/>
			<path class="st97" d="M499.2,234.4c0.1-0.1,0.3-0.1,0.4-0.2c0,0.1,0,0.1,0,0.2C499.5,234.4,499.3,234.4,499.2,234.4z"/>
			<path class="st98" d="M496.4,227.4c-0.1,0.1-0.1,0.1-0.2,0.2C496.3,227.5,496.3,227.5,496.4,227.4z"/>
			<path class="st99" d="M495.4,236.8c0,0.1,0,0.1,0,0.2c-0.5-0.2-0.8-0.6-1-1c0.2-0.3,0.5-0.4,0.8-0.6c0.3-0.1,0.6-0.5,0.9-0.1
				c0,0.1,0,0.2,0,0.3s-0.1,0.2-0.1,0.2c0,0.3-0.2,0.5-0.5,0.6C495.3,236.5,495.2,236.6,495.4,236.8z"/>
			<path class="st100" d="M497.6,236.2c0.1,0.1,0.1,0.1,0.2,0.2c-0.5,0.1-1.2,0.8-1.2-0.4c0.2-0.1,0.4-0.1,0.6-0.1
				C497.4,235.9,497.7,235.8,497.6,236.2z"/>
			<path class="st101" d="M497.2,236c-0.2,0.1-0.4,0.1-0.6,0c-0.1-0.1-0.3-0.1-0.4-0.2c-0.1-0.1-0.1-0.1-0.1-0.2
				c0-0.1,0.1-0.2,0.1-0.4c0-0.1,0.1-0.2,0.1-0.2c0.1-0.1,0.2-0.1,0.4,0C496.9,235.3,497.3,235.5,497.2,236z"/>
			<path class="st102" d="M496.2,235.6c0,0.1,0,0.1,0,0.2h-0.1H496c0-0.1,0-0.1,0-0.2C496.1,235.5,496.1,235.5,496.2,235.6z"/>
			<path class="st103" d="M490.6,229.6c0-0.1,0-0.1,0-0.2c0.1-0.2,0.1-0.5,0.4-0.6c0.1,0,0.3,0,0.4,0c0.4-0.1,0.5,0.1,0.7,0.4
				c0,0.1,0,0.2,0,0.3c-0.1,0.2-0.3,0.3-0.6,0.2c-0.2-0.3-0.4,0.2-0.6,0C490.7,229.7,490.7,229.7,490.6,229.6z"/>
			<path class="st104" d="M492,229.2c-0.2-0.1-0.4-0.3-0.6-0.4c0.1-0.1,0.1-0.3,0.2-0.4c0.1,0,0.1,0,0.2,0c0.1,0.3,0.3,0.4,0.6,0.4
				c0.1,0.1,0.1,0.1,0.1,0.2C492.4,229.2,492.2,229.3,492,229.2z"/>
			<path class="st105" d="M491,228.8c-0.1,0.2-0.3,0.4-0.4,0.6c-0.1-0.1-0.3-0.3-0.4-0.4C490.4,228.7,490.7,228.8,491,228.8z"/>
			<path class="st106" d="M489.6,232.2c0-0.1,0-0.1,0-0.2c0.4-0.2,0.7-0.6,1.2-0.2c-0.1,0.4-0.3,0.7-0.5,1c-0.3,0.1-0.5,0.1-0.7-0.2
				C489.6,232.5,489.6,232.3,489.6,232.2z"/>
			<path class="st107" d="M491.4,231.4c-0.4-0.2-0.7-0.5-0.8-1c0-0.2,0.1-0.3,0.3-0.4c0.2-0.1,0.4-0.2,0.6-0.3
				c0.2,0.1,0.3,0.2,0.3,0.4C491.7,230.5,491.5,230.9,491.4,231.4C491.4,231.3,491.4,231.4,491.4,231.4z"/>
			<path class="st108" d="M490.4,232.6c-0.4-0.5,0.3-0.5,0.4-0.8c0.1,0,0.3,0,0.4,0c0.1,0.1,0.1,0.1,0.2,0.2c0,0.1,0,0.2,0,0.3
				c-0.1,0.2-0.2,0.4-0.4,0.4C490.7,232.8,490.5,232.8,490.4,232.6z"/>
			<path class="st109" d="M491,230.2c-0.1,0.1-0.3,0.2-0.4,0.2s-0.1,0-0.2,0l0,0c-0.2-0.3-0.2-0.5,0-0.8c0.1,0,0.1,0,0.2,0
				s0.1,0,0.2,0C491,229.7,491.2,229.9,491,230.2z"/>
			<path class="st110" d="M491.4,231.6c0-0.1,0-0.1,0-0.2l0,0c0.1-0.2,0.2-0.5,0.5-0.5s0.5,0.2,0.4,0.5c-0.2,0.3-0.4,0.4-0.8,0.3
				C491.5,231.7,491.4,231.6,491.4,231.6z"/>
			<path class="st111" d="M489.2,231.6c0.1-0.3,0.2-0.5,0.6-0.4C489.8,231.6,489.5,231.6,489.2,231.6z"/>
			<path class="st112" d="M491.2,232c0-0.1,0-0.1,0-0.2c0.1-0.1,0.1-0.1,0.2-0.2l0,0c0.1,0.1,0.1,0.1,0.1,0.2v0.1c0,0,0,0.1-0.1,0.1
				C491.3,232.1,491.3,232.1,491.2,232z"/>
			<path class="st113" d="M491.8,236.6c-0.2-0.1-0.4-0.3-0.6-0.4c-0.1,0.1-0.2,0-0.3,0c-0.1-0.1-0.1-0.3,0-0.4
				c0.1-0.2,0.3-0.3,0.5-0.3c0.2,0,0.3,0,0.4,0.1c0.2,0.2,0.6,0.4,0.3,0.9C492,236.5,492,236.5,491.8,236.6
				C491.9,236.5,491.9,236.5,491.8,236.6L491.8,236.6z"/>
			<path class="st114" d="M492.2,236.4c-0.1-0.3-0.2-0.5-0.4-0.8c0.1-0.1,0.2-0.2,0.4-0.2c0.1,0,0.2,0.1,0.3,0.1
				c0.2,0.3,0.4,0.5,0.1,0.8C492.5,236.6,492.3,236.6,492.2,236.4z"/>
			<path class="st115" d="M492.6,236.4c-0.1-0.3-0.2-0.5-0.2-0.8c0.1-0.2,0.3-0.2,0.5-0.2s0.3,0.1,0.4,0.2c0,0.1,0,0.2,0,0.3
				c-0.1,0.2-0.2,0.3-0.4,0.4h-0.1C492.7,236.4,492.7,236.4,492.6,236.4z"/>
			<path class="st116" d="M493.6,236.4c0,0.1,0,0.1,0,0.2c-0.3,0-0.6,0.1-0.8-0.2l0,0c0.1-0.1,0.2-0.2,0.3-0.2c0.1,0,0.2,0,0.3,0
				c0,0,0.1,0,0.1,0.1L493.6,236.4z"/>
			<path class="st117" d="M491.8,236.6c0.1-0.1,0.1-0.1,0.2-0.2C491.9,236.5,491.9,236.5,491.8,236.6z"/>
			<path class="st118" d="M490.4,229.6c0,0.3,0,0.5,0,0.8c-0.2-0.1-0.2-0.2-0.2-0.4c-0.1-0.2-0.2-0.2-0.4-0.2
				C490,229.6,490.2,229.6,490.4,229.6z"/>
			<path class="st119" d="M491,236.2c0.1,0,0.1,0,0.2,0c-0.1,0.1-0.3,0.3-0.4,0.4c-0.4,0-0.6-0.2-0.6-0.6l0,0
				C490.5,235.7,490.8,236,491,236.2z"/>
			<path class="st120" d="M495.2,235.4c0,0.5-0.4,0.6-0.8,0.6c-0.1,0-0.1,0-0.2,0l-0.1-0.1c-0.1-0.2,0-0.3,0.2-0.5
				c0.2-0.1,0.5-0.2,0.8-0.1C495.1,235.3,495.2,235.4,495.2,235.4z"/>
			<path class="st121" d="M494,236.4c-0.1,0-0.1,0-0.2,0c-0.1-0.1-0.1-0.2-0.1-0.4c0.1-0.1,0.1-0.1,0.2-0.1s0.2,0,0.2,0.1l0,0
				C494.1,236.1,494.1,236.3,494,236.4z"/>
			<path class="st122" d="M493.8,236c0,0.1,0,0.3,0,0.4c-0.1,0-0.1,0-0.2,0l0,0c-0.1-0.1-0.2-0.1-0.3-0.2c0-0.2,0.1-0.3,0.3-0.4
				c0.1,0,0.2,0,0.2,0C493.9,235.9,493.9,235.9,493.8,236z"/>
			<path class="st50" d="M490.2,235.6c-0.3,0-0.5-0.1-0.6-0.4c0.6-0.1-0.1-0.3,0-0.4c0.1-0.1,0.1-0.3,0.2-0.4
				c0.1-0.1,0.3-0.1,0.4-0.2c0.1,0,0.2,0.1,0.2,0.2c0.2,0.3,0.5,0.5,0.7,0.8c0,0.2-0.1,0.3-0.2,0.3
				C490.6,235.7,490.4,235.5,490.2,235.6z"/>
			<path class="st123" d="M490.2,234.4c0-0.1,0-0.1,0-0.2c0-0.1,0-0.1,0-0.2c0.3-0.5,0.7-0.5,1.2-0.3c0.1,0.1,0.2,0.3,0.2,0.4
				c0,0.1,0,0.2-0.1,0.3C491.1,235,490.6,234.4,490.2,234.4z"/>
			<path class="st124" d="M491.4,233.8c-0.4,0-0.8,0-1.2,0.2c-0.1-0.1-0.1-0.3-0.2-0.4c0.1-0.2,0.3-0.3,0.5-0.4
				c0.3-0.1,0.6-0.3,0.9-0.2c0.2,0.1,0.3,0.3,0.3,0.4c0,0.1,0,0.3-0.1,0.4C491.6,233.8,491.5,233.8,491.4,233.8z"/>
			<path class="st125" d="M490.6,233.4c-0.2,0.1-0.4,0.1-0.6,0.2c-0.3-0.1-0.5-0.3-0.8-0.4c0-0.1,0-0.1,0-0.2c0.3-0.2,0.7-0.1,1.1,0
				C490.5,233,490.7,233.1,490.6,233.4z"/>
			<path class="st126" d="M490.2,235.6c0.2-0.2,0.4-0.2,0.6-0.2c0.1,0.1,0.2,0.2,0.2,0.4c0,0.1,0,0.2,0,0.4
				c-0.3-0.1-0.5-0.1-0.8-0.2c0-0.1,0-0.1,0-0.2C490.2,235.8,490.2,235.7,490.2,235.6C490.3,235.6,490.2,235.6,490.2,235.6z"/>
			<path class="st60" d="M490.6,233.4c-0.1-0.2-0.2-0.2-0.4-0.2c-0.2-0.3-0.6-0.2-0.8-0.4c0.1-0.1,0.1-0.1,0.2-0.2
				c0.3,0,0.5,0,0.8,0c0.2,0,0.4,0,0.6,0c0.1,0.1,0.3,0,0.4,0.2c0,0.1,0,0.2,0,0.2C491.1,233.1,490.9,233.4,490.6,233.4z"/>
			<path class="st127" d="M489.4,232.8c0.3,0,0.7-0.1,0.8,0.4c-0.3-0.1-0.7-0.1-1-0.2C489.3,232.9,489.3,232.9,489.4,232.8z"/>
			<path class="st128" d="M492.6,228.8c0-0.3-0.1-0.5-0.2-0.8c0.3,0,0.5,0.3,0.8,0.4c0.1,0.2,0,0.4-0.2,0.5
				C492.8,228.9,492.7,228.9,492.6,228.8z"/>
			<path class="st129" d="M493,228.8c0.1-0.1,0.1-0.3,0.2-0.4c0.1-0.2,0.3,0,0.4,0l0,0c0.2,0.3,0.1,0.5-0.1,0.7
				c-0.1,0.1-0.2,0.1-0.3,0.1C493,229.1,492.9,229,493,228.8z"/>
			<path class="st130" d="M494.6,228.6c0,0.3,0.2,0.3,0.4,0.2c0.2,0.3,0.1,0.5-0.1,0.7c-0.4,0.1-0.7,0-1-0.2
				c-0.2-0.4,0.1-0.5,0.4-0.7C494.3,228.6,494.5,228.6,494.6,228.6z"/>
			<path class="st131" d="M494.2,228.6c-0.1,0.2-0.3,0.4-0.4,0.6c0.1,0,0.1,0.1,0.1,0.2c0,0.1,0,0.1,0,0.1c-0.2,0.1-0.3,0-0.5-0.2
				c0-0.1,0-0.2,0-0.2c0.1-0.2,0.1-0.4,0.2-0.6C493.8,228.5,494,228.5,494.2,228.6z"/>
			<path class="st132" d="M498,230.2c0,0.1,0,0.1,0,0.2c-0.1,0.2-0.1,0.5-0.4,0.6c-0.2,0-0.3,0-0.4-0.1c-0.2-0.2-0.3-0.5-0.3-0.8
				c0.1-0.2,0.2-0.4,0.4-0.5c0.1,0,0.2-0.1,0.3,0c0.2,0.1,0.4,0.2,0.5,0.4C498.1,230.1,498.1,230.1,498,230.2z"/>
			<path class="st133" d="M497.6,230.8c0.1-0.1,0.3-0.3,0.4-0.4c0,0.3,0.1,0.5,0.4,0.6c0,0,0.1,0.1,0,0.1v0.1
				c-0.2,0.2-0.4,0.5-0.8,0.4c-0.2,0.1-0.3,0-0.3-0.2C497.2,231.1,497.4,231,497.6,230.8z"/>
			<path class="st134" d="M498.4,231.2c0-0.1,0-0.1,0-0.2c0.2-0.1,0.4-0.1,0.6-0.2l0.1,0.1v0.1c0,0.1-0.1,0.1-0.1,0.2
				c0,0-0.1,0-0.1,0.1c-0.1,0-0.2,0-0.2,0C498.5,231.3,498.5,231.3,498.4,231.2L498.4,231.2z"/>
			<path class="st135" d="M498.6,230.2c0,0.1,0,0.1,0,0.2c-0.2,0-0.3,0-0.4-0.2c-0.1-0.1-0.1-0.2-0.1-0.4c0.1-0.1,0.2-0.1,0.2,0l0,0
				C498.5,229.9,498.5,230.1,498.6,230.2z"/>
			<path class="st136" d="M498.2,229.8c0,0.1,0,0.3,0,0.4c-0.1,0-0.1,0-0.2,0c0-0.1,0-0.1,0-0.2C497.9,229.8,498,229.8,498.2,229.8z
				"/>
			<path class="st137" d="M499,231c0-0.1,0-0.1,0-0.2c0.1,0,0.1,0,0.2,0c0,0.1,0,0.1,0,0.2C499.1,231.1,499.1,231,499,231z"/>
			<path class="st138" d="M498.2,229.8c-0.1,0.1-0.1,0.1-0.2,0.2c-0.1-0.1-0.3-0.3-0.4-0.4c-0.1-0.1-0.2-0.3-0.3-0.5
				c0-0.2,0-0.4,0.1-0.6l0.1-0.1c0.1,0,0.1,0,0.2,0c0.3,0.2-0.1,0.7,0.4,0.8c0.2,0.2,0.2,0.4,0.2,0.6
				C498.3,229.8,498.3,229.8,498.2,229.8z"/>
			<path class="st139" d="M498.6,230.2c-0.1-0.1-0.1-0.3-0.2-0.4c0.1,0,0.1,0,0.2,0C498.6,229.9,498.6,230.1,498.6,230.2z"/>
			<path class="st140" d="M499,231c0.1,0,0.1,0,0.2,0s0.1,0,0.2,0c0,0.1,0,0.1,0,0.2c-0.1,0.1-0.1,0.1-0.2,0.2c-0.1,0-0.3,0-0.4,0
				s-0.1-0.1-0.1-0.1s0-0.1,0.1-0.1l0,0C498.9,231.1,498.9,231.1,499,231L499,231z"/>
			<path class="st141" d="M497.2,236c-0.1-0.4-0.7-0.5-0.6-1c-0.1-0.2,0-0.4,0.2-0.5c0.4,0,0.7,0.1,0.8,0.5c0.1,0.1,0.1,0.3,0.2,0.4
				c0.2,0.1,0.3,0.2,0.2,0.4c0,0.1,0,0.1,0,0.2c-0.1,0.1-0.3,0.1-0.4,0.2C497.5,236.1,497.3,236.1,497.2,236z"/>
			<path class="st142" d="M498,235.8c-0.1-0.1-0.1-0.3-0.2-0.4c0.3,0.1,0.2-0.8,0.6-0.2C498.4,235.5,498.3,235.7,498,235.8z"/>
			<path class="st143" d="M497.6,228.2c0,0.1,0,0.1,0,0.2l0,0c-0.2,0.1-0.4,0.1-0.4-0.2l0,0C497.3,228.2,497.5,228.2,497.6,228.2z"
				/>
			<path class="st144" d="M497.6,235c-0.3-0.1-0.5-0.3-0.8-0.4c-0.2-0.1-0.3-0.3-0.3-0.6s0.2-0.4,0.5-0.5c0.3,0,0.5,0.1,0.7,0.3
				c0.1,0.1,0.1,0.1,0.2,0.2c0.2,0.2,0.3,0.4,0.1,0.6C497.9,234.7,497.7,234.9,497.6,235z"/>
			<path class="st145" d="M498,234.6c-0.1-0.2-0.1-0.4-0.2-0.6c0.3-0.1,0.6,0,0.8,0.2l0,0C498.6,234.6,498.3,234.6,498,234.6z"/>
			<path class="st146" d="M498.6,232.8c-0.2,0.4-0.8,0.4-0.8,1c-0.1,0.1-0.2,0.1-0.3,0c-0.2-0.3-0.2-0.7-0.3-1
				c0.1-0.3,0.1-0.6,0.5-0.6C498.6,231.7,498.3,232.6,498.6,232.8z"/>
			<path class="st147" d="M497.8,232.2c-0.1,0.2-0.3,0.4-0.4,0.6c-0.1,0.1-0.1,0.1-0.2,0.2c-0.3,0-0.5-0.1-0.7-0.2
				c-0.1-0.1-0.2-0.3-0.2-0.5s0.1-0.4,0.3-0.5c0.1-0.1,0.3-0.1,0.4-0.1c0.2,0,0.4,0.2,0.6,0.4C497.7,232.1,497.7,232.1,497.8,232.2z
				"/>
			<path class="st148" d="M497.6,232c-0.2,0-0.5,0-0.6-0.2c-0.1-0.1-0.1-0.1-0.1-0.2c0.1-0.1,0.1-0.2,0.3-0.3c0.1,0,0.2,0,0.2,0.1
				c0.1,0.1,0.1,0.1,0.2,0.2C497.6,231.7,497.6,231.9,497.6,232z"/>
			<path class="st149" d="M498.8,231.2c0,0.1,0,0.1,0,0.2c0,0.1,0,0.1,0,0.2c-0.1-0.1-0.1-0.1-0.2-0.2c-0.1,0-0.1-0.1-0.1-0.1
				s0-0.1,0.1-0.1C498.7,231.2,498.7,231.2,498.8,231.2z"/>
			<path class="st150" d="M498.6,231.2c0,0.1,0,0.1,0,0.2c-0.1-0.1-0.1-0.1-0.2-0.2C498.5,231.2,498.5,231.2,498.6,231.2z"/>
			<path class="st151" d="M493,228.8c0.1,0.1,0.1,0.1,0.2,0.2c0.2,0.3,0.1,0.5-0.1,0.6s-0.4,0-0.5-0.1s-0.2-0.3-0.2-0.5
				c0-0.1,0-0.1,0-0.2c0.1,0,0.1,0,0.2,0S492.9,228.8,493,228.8z"/>
			<path class="st152" d="M497.6,233.8c0.1,0,0.1,0,0.2,0c0.3,0,0.5-0.4,0.8,0c0,0.1,0,0.3,0,0.4c-0.3,0-0.5-0.1-0.8-0.2
				c-0.1,0-0.1,0-0.2,0S497.5,233.9,497.6,233.8L497.6,233.8z"/>
			<path class="st153" d="M495.8,228.6c0.1-0.2,0.3-0.4,0.4-0.6c0.1,0,0.3,0,0.4,0c0,0.1,0,0.3,0,0.4c0.1,0.1,0.1,0.1,0.1,0.2
				c-0.1,0.3-0.3,0.4-0.5,0.6c-0.1,0-0.2,0.1-0.3,0.1c-0.2,0-0.3-0.1-0.4-0.3c0-0.1,0-0.3,0.1-0.4
				C495.7,228.6,495.7,228.6,495.8,228.6z"/>
			<path class="st154" d="M496.6,228.6c0-0.1,0-0.2,0-0.2c0.2-0.1,0.4-0.1,0.6-0.2c0.1,0.2,0.2,0.2,0.4,0.2c0,0.2,0,0.4,0,0.6
				c-0.2,0.2-0.2,0.4-0.5,0.6c-0.3,0.1-0.6,0.1-0.8-0.2C496.2,229,496.5,228.8,496.6,228.6z"/>
			<path class="st155" d="M495.6,228.6c0,0.1,0,0.3,0,0.4c0,0.4-0.2,0.6-0.5,0.7c-0.1,0-0.2,0-0.3,0c-0.1-0.1-0.1-0.2,0-0.2
				c0.1-0.2,0.1-0.4,0.2-0.6C495.2,228.7,495.4,228.7,495.6,228.6z"/>
			<path class="st156" d="M496.6,234c0.1,0.2,0.1,0.4,0.2,0.6c-0.1,0.1-0.1,0.3-0.2,0.4c-0.1,0.1-0.1,0.1-0.2,0.2
				c-0.1,0.1-0.1,0.2-0.2,0.3c-0.1,0-0.1,0-0.2,0c-0.3-0.4-0.5,0.3-0.8,0l0,0c-0.1-0.2-0.2-0.4-0.1-0.7c0-0.1,0.1-0.2,0.1-0.2
				c0.4-0.2,0.7-0.4,1-0.6C496.4,233.9,496.5,233.9,496.6,234z"/>
			<path class="st157" d="M496,235.4c0.1,0,0.1,0,0.2,0c0.1-0.1,0.1-0.1,0.2,0c-0.1,0.1-0.1,0.1-0.2,0.2c-0.1,0-0.1,0-0.2,0
				C496,235.5,496,235.5,496,235.4z"/>
			<path class="st158" d="M496.4,235.4c-0.1,0-0.1,0-0.2,0c0.1-0.1,0.1-0.1,0.2-0.2C496.4,235.3,496.4,235.3,496.4,235.4z"/>
			<path class="st159" d="M491.6,230.2c-0.1-0.1-0.1-0.3-0.2-0.4c0,0-0.1-0.1,0-0.1v-0.1c0.2-0.1,0.4-0.1,0.6-0.2
				c0.1,0,0.2,0.1,0.3,0.2c0,0.1,0,0.2,0,0.3c-0.1,0.2-0.2,0.3-0.4,0.4C491.8,230.3,491.7,230.3,491.6,230.2z"/>
			<path class="st160" d="M491.4,229.6c0,0.1,0,0.1,0,0.2c-0.1,0.1-0.3,0.3-0.4,0.4c-0.1-0.2-0.1-0.4-0.2-0.6
				C491,229.8,491.2,229.1,491.4,229.6z"/>
			<path class="st161" d="M492.2,229.6c-0.1-0.1-0.1-0.1-0.2-0.2c0-0.1,0-0.1,0-0.2c0.1-0.1,0.3-0.1,0.4-0.2
				c0.1,0.1,0.1,0.3,0.2,0.4C492.6,229.7,492.4,229.7,492.2,229.6z"/>
			<path class="st162" d="M491.6,230.2c0.1,0,0.3,0,0.4,0c0.1,0.1,0.1,0.1,0.1,0.2c0,0.1,0,0.2,0,0.2c-0.1,0.1-0.2,0.2-0.3,0.4
				c-0.1,0.1-0.3,0.3-0.4,0.4C491.2,231,491.1,230.5,491.6,230.2z"/>
			<path class="st163" d="M491.4,232.8c-0.1-0.1-0.3-0.2-0.4-0.2c0.1-0.1,0.1-0.3,0.2-0.4c0.1-0.1,0.2-0.1,0.3-0.1
				c0.4,0,0.5,0.2,0.6,0.5c0,0.2-0.1,0.3-0.3,0.3C491.7,233,491.5,232.9,491.4,232.8z"/>
			<path class="st164" d="M491.4,232.2c-0.1,0-0.1,0-0.2,0c0-0.1,0-0.1,0-0.2c0.1,0,0.1,0,0.2,0S491.5,232.1,491.4,232.2
				L491.4,232.2z"/>
			<path class="st165" d="M491.8,231c-0.3-0.3-0.1-0.4,0.2-0.4c0.3-0.1,0.5,0,0.7,0.2c0.2,0.3,0.2,0.6,0.3,0.9c0,0.3,0,0.5-0.1,0.8
				c-0.1,0.1-0.2,0.1-0.3,0.1c-0.5-0.2-0.7-0.6-0.4-1.1C492.2,231.2,492.1,231,491.8,231z"/>
			<path class="st166" d="M492.2,231.4c-0.1,0.4,0.2,0.7,0.4,1c0.1,0.1,0.1,0.2,0,0.3c-0.2,0.1-0.4,0.1-0.6-0.1
				c-0.2-0.1-0.3-0.4-0.6-0.4c0-0.1,0-0.1,0-0.2l0,0c0.1,0,0.1-0.1,0.1-0.1s0-0.1-0.1-0.1c0-0.1,0-0.1,0-0.2
				C491.7,231.5,491.9,231.5,492.2,231.4z"/>
			<path class="st167" d="M491.4,231.8c0.1,0.1,0.2,0.1,0,0.2C491.4,231.9,491.4,231.9,491.4,231.8z"/>
			<path class="st92" d="M491,235.8c-0.1-0.1-0.2-0.2-0.2-0.4c0.1-0.1,0.1-0.1,0.2-0.2c0.1-0.1,0.1-0.1,0.2-0.1s0.2,0.1,0.3,0.2
				c0,0.1,0,0.2-0.1,0.2C491.3,235.7,491.1,235.7,491,235.8z"/>
			<path class="st168" d="M491.4,235.6c0-0.1,0-0.1,0-0.2c0.2-0.6,0.5-0.3,0.8-0.1c0.1,0.1,0.1,0.2,0,0.3c-0.1,0-0.3,0-0.4,0
				C491.7,235.6,491.5,235.6,491.4,235.6z"/>
			<path class="st169" d="M492.2,235.6c0-0.1,0-0.1,0-0.2c-0.1-0.1-0.1-0.2-0.1-0.3c0.1-0.2,0.2-0.2,0.4-0.2
				c0.4,0.1,0.8,0.2,0.5,0.7c-0.2,0-0.4,0-0.6,0C492.3,235.6,492.3,235.6,492.2,235.6z"/>
			<path class="st170" d="M493,235.6c0-0.4-0.5-0.4-0.6-0.6c0.1-0.2,0.2-0.3,0.4-0.3c0.2,0,0.4,0.1,0.5,0.2c0.1,0.1,0.2,0.2,0.2,0.3
				c0.1,0.2,0,0.4-0.1,0.5s-0.2,0.1-0.2,0C493.1,235.7,493.1,235.7,493,235.6z"/>
			<path class="st171" d="M493.2,235.8c0.1,0,0.1,0,0.2,0c0.1-0.1,0.1-0.1,0.2,0c-0.1,0.1-0.1,0.3-0.2,0.4c0.1,0,0.1,0.1,0.1,0.1
				v0.1c-0.1,0-0.1,0-0.2,0c-0.1-0.1-0.1-0.3,0-0.4C493.2,235.9,493.2,235.9,493.2,235.8z"/>
			<path class="st172" d="M493.2,236c0,0.1,0,0.3,0,0.4c-0.1,0-0.3,0-0.4,0C492.8,236.1,492.9,236,493.2,236z"/>
			<path class="st173" d="M493.4,236.4c0-0.1,0-0.1,0-0.2c0.1,0.1,0.1,0.1,0.2,0.2C493.5,236.4,493.5,236.4,493.4,236.4z"/>
			<path class="st174" d="M495.2,234.8c0.1,0.2,0.1,0.4,0,0.6c-0.3,0.1-0.5,0.1-0.8,0.2c-0.3-0.3-0.2-0.6-0.1-0.9
				c0.1-0.1,0.1-0.2,0.2-0.2C494.9,234.4,495.1,234.6,495.2,234.8z"/>
			<path class="st175" d="M494.6,234.8c-0.1,0.2-0.2,0.5-0.2,0.8c-0.2,0.1-0.2,0.2-0.2,0.4c-0.1,0-0.1,0-0.2,0
				c-0.1-0.1-0.1-0.2-0.1-0.3c-0.1-0.3-0.1-0.5,0-0.8C494.1,234.6,494.3,234.6,494.6,234.8z"/>
			<path class="st176" d="M494,235.8c0,0.1,0,0.1,0,0.2h-0.1h-0.1c0-0.1,0-0.1,0-0.2C493.9,235.7,493.9,235.7,494,235.8z"/>
			<path class="st177" d="M494,235.8c-0.1,0-0.1,0-0.2,0s-0.1,0-0.2,0s-0.1,0-0.2,0c0-0.2,0-0.4,0-0.6c-0.1-0.2-0.1-0.4,0.1-0.5
				c0.2,0,0.4,0.1,0.5,0.3C494,235.3,494,235.5,494,235.8z"/>
			<path class="st178" d="M491.2,235.2c-0.1,0-0.1,0-0.2,0c-0.4-0.1-0.8-0.3-0.8-0.8c0.4-0.2,0.8,0.3,1.2,0l0.1,0.1
				C491.6,234.8,491.4,235,491.2,235.2z"/>
			<path class="st179" d="M491.4,234.4c0-0.1,0-0.1,0-0.2c0.1-0.1,0.1-0.1,0.2-0.1s0.1,0.1,0.2,0.1c0,0.2-0.1,0.2-0.2,0.3
				C491.5,234.5,491.5,234.5,491.4,234.4L491.4,234.4z"/>
			<path class="st180" d="M491.6,234.2c-0.1,0-0.1,0-0.2,0c0-0.1,0-0.3,0-0.4c0.1,0,0.1,0,0.2,0l0.1,0.1
				C491.7,234,491.7,234.1,491.6,234.2z"/>
			<path class="st181" d="M491.6,233.8c0-0.1,0-0.3,0-0.4c0.1-0.2,0.2-0.3,0.4-0.3c0.1,0,0.2,0,0.3,0.1c0.2,0.2,0.3,0.5,0.3,0.8
				c0,0.1,0,0.2-0.1,0.3s-0.1,0.1-0.2,0.1c-0.2,0-0.3-0.1-0.5-0.2C491.7,234,491.7,233.9,491.6,233.8L491.6,233.8z"/>
			<path class="st182" d="M492.2,233.2c-0.2,0.1-0.4,0.1-0.6,0.2c-0.1-0.1-0.1-0.3-0.2-0.4c0-0.1,0-0.1,0-0.2c0.1,0,0.2,0,0.4,0
				c0.1,0.1,0.3,0,0.4,0.2C492.3,233.1,492.2,233.1,492.2,233.2z"/>
			<path class="st105" d="M493,229.6c0.1-0.2,0.1-0.4,0.2-0.6c0.1,0,0.1,0,0.2,0c0,0.1,0,0.1,0,0.2c0.2,0.3,0.4,0.6,0.3,1
				c-0.1,0.1-0.3,0.2-0.4,0.1c-0.2-0.1-0.3-0.2-0.3-0.3C492.9,229.9,492.9,229.7,493,229.6z"/>
			<path class="st183" d="M494.8,229.4c0,0.1,0,0.1,0,0.2c-0.1,0.2-0.3,0.3-0.6,0.3c-0.3-0.1-0.4-0.2-0.4-0.5c0-0.1,0-0.1,0-0.2
				C494.2,229.2,494.5,229.2,494.8,229.4z"/>
			<path class="st184" d="M493.8,229.4c0.1,0.1,0.3,0.3,0.4,0.4c0.2,0.1,0.6,0.1,0.7,0.4c0,0.1,0,0.2-0.1,0.3s-0.2,0.1-0.4,0.1
				c-0.3-0.1-0.7,0-0.8-0.4c-0.2-0.3-0.2-0.7-0.2-1C493.5,229.3,493.7,229.3,493.8,229.4z"/>
			<path class="st185" d="M496.4,229.2c0.2,0.3,0.5,0.2,0.8,0.2c0.1,0,0.2,0.1,0.2,0.2c0,0.3-0.1,0.4-0.4,0.4
				c-0.4,0.3-0.8,0.2-1.1-0.2c-0.1-0.2-0.1-0.4,0.1-0.6l0,0C496.1,229.1,496.3,229.1,496.4,229.2z"/>
			<path class="st186" d="M496,229.8c0.3,0.1,0.7,0.1,1,0.2c0.1,0.2,0.2,0.5,0.2,0.8c-0.1,0.1-0.2,0.1-0.3,0.1
				c-0.3-0.2-0.7-0.3-1-0.5c-0.1-0.1-0.2-0.1-0.2-0.2c-0.1-0.1,0-0.3,0-0.4C495.8,229.7,495.9,229.7,496,229.8z"/>
			<path class="st187" d="M497,230.8c0.1,0,0.1,0,0.2,0s0.3,0,0.4,0c-0.1,0.2-0.1,0.4-0.2,0.6c-0.1,0-0.1,0-0.2,0
				c-0.2-0.1-0.4-0.2-0.5-0.4C496.8,230.8,496.8,230.7,497,230.8z"/>
			<path class="st188" d="M497.4,229.6c-0.1-0.1-0.1-0.1-0.2-0.2c0-0.3,0.2-0.4,0.4-0.4c0,0.2,0,0.4,0,0.6
				C497.5,229.6,497.5,229.6,497.4,229.6z"/>
			<path class="st189" d="M499,231c-0.1,0.1-0.1,0.1-0.2,0.2C498.9,231.1,498.9,231.1,499,231z"/>
			<path class="st190" d="M496.6,234c-0.1,0-0.3,0-0.4,0c-0.2,0.1-0.4,0.2-0.6,0.1c-0.1-0.1-0.1-0.1-0.1-0.2c0-0.1,0-0.2,0-0.3
				s0.1-0.2,0.1-0.2c0.1-0.1,0.2-0.1,0.3-0.1c0.4,0,0.8-0.2,1.2,0.1c0,0.1,0,0.2,0,0.2C496.9,233.7,496.7,233.9,496.6,234z"/>
			<path class="st191" d="M497,233.6c0-0.1,0-0.1,0-0.2c-0.2-0.3,0-0.4,0.2-0.6c0.1,0,0.1,0,0.2,0c0.3,0.3,0.2,0.7,0.2,1
				c0,0.1,0,0.1,0,0.2C497.4,233.9,497.2,233.7,497,233.6z"/>
			<path class="st192" d="M497.2,232.8c-0.1,0.2-0.1,0.4-0.2,0.6c-0.4-0.1-0.8,0.2-1.2,0c-0.1-0.1,0-0.2,0-0.3
				c0.2-0.2,0.4-0.4,0.8-0.4C496.8,232.7,497,232.7,497.2,232.8z"/>
			<path class="st193" d="M496.6,232.6c-0.1,0.3-0.3,0.5-0.6,0.6c-0.2-0.1-0.4-0.3-0.4-0.6c0-0.2,0-0.3,0.1-0.4
				c0.1-0.1,0.3-0.1,0.4-0.1s0.2,0.1,0.2,0.2C496.5,232.3,496.5,232.5,496.6,232.6z"/>
			<path class="st194" d="M496.4,232.2c-0.1,0-0.1,0-0.2,0c-0.1-0.1-0.1-0.1-0.1-0.2c0-0.1,0-0.2,0.1-0.2s0.1-0.1,0.2-0.1h0.1
				l0.1,0.1C496.6,232,496.5,232.1,496.4,232.2z"/>
			<path class="st195" d="M497,231.6c0,0.1,0,0.1,0,0.2c-0.1,0-0.3,0-0.4,0l0,0l-0.1-0.1c0-0.1,0-0.1,0-0.1c0.1-0.1,0.1-0.1,0.2-0.1
				C496.9,231.5,496.9,231.5,497,231.6z"/>
			<path class="st196" d="M497,231.6L497,231.6h-0.2c-0.1-0.1-0.1-0.1-0.1-0.2c0-0.1,0-0.3,0.1-0.4c0.3,0,0.4,0.2,0.4,0.4
				C497.1,231.5,497.1,231.5,497,231.6z"/>
			<path class="st197" d="M493,229.6c0,0.1,0,0.3,0,0.4c-0.2,0.1-0.4,0.1-0.6,0c-0.1-0.1-0.1-0.1-0.2-0.2c0-0.1,0-0.1,0-0.2
				c0.1-0.1,0.3-0.1,0.4-0.2C492.7,229.5,492.9,229.5,493,229.6z"/>
			<path class="st198" d="M496,229.8c-0.1,0-0.1,0-0.2,0c-0.3,0.1-0.5,0.4-0.8,0.3c-0.3-0.2-0.2-0.4,0-0.5c0.2-0.2,0.4-0.4,0.6-0.6
				c0.1,0.1,0.3,0.1,0.4,0.2C496,229.4,496,229.6,496,229.8z"/>
			<path class="st199" d="M496.4,229.2c-0.1,0-0.3,0-0.4,0c0.1-0.3,0.3-0.5,0.6-0.6C496.5,228.8,496.5,229,496.4,229.2z"/>
			<path class="st200" d="M495,229.6c0,0.1-0.2,0.3,0,0.4c0.1,0.2,0,0.2-0.2,0.2c-0.2-0.1-0.4-0.3-0.6-0.4c0.2-0.1,0.4-0.1,0.6-0.2
				C494.9,229.6,494.9,229.6,495,229.6z"/>
			<path class="st201" d="M495.6,234c0.2,0,0.4-0.2,0.6,0c-0.2,0.5-0.5,0.7-1,0.6c-0.2-0.2-0.2-0.4,0-0.6
				C495.3,233.9,495.4,233.9,495.6,234z"/>
			<path class="st154" d="M495.2,234c0,0.2,0,0.4,0,0.6c0,0.1,0,0.1,0,0.2c-0.2-0.1-0.4-0.1-0.6-0.2c-0.3,0.1-0.3-0.1-0.3-0.3
				c0.1-0.3,0.3-0.4,0.5-0.4c0.1,0,0.2,0,0.3,0.1C495.1,233.9,495.2,234,495.2,234z"/>
			<path class="st202" d="M492.2,229.8c0.1,0,0.1,0,0.2,0c0.2,0.1,0.4,0.3,0.3,0.6c-0.3,0.4-0.5,0.1-0.7,0c0-0.1,0-0.1,0-0.2
				C492.1,230.1,492.1,229.9,492.2,229.8z"/>
			<path class="st203" d="M492,230.4c0.2,0,0.4,0.2,0.6,0c0.1,0,0.2,0,0.3,0.1c0,0.2,0,0.4-0.3,0.4c-0.2-0.1-0.4-0.1-0.6-0.2
				C492,230.5,492,230.5,492,230.4z"/>
			<path class="st204" d="M492.2,233c-0.1-0.1-0.3-0.1-0.4-0.2c0.1-0.1,0.1-0.1,0.2-0.2c0.2,0,0.4,0,0.6,0
				C492.7,232.9,492.5,233,492.2,233z"/>
			<path class="st205" d="M492.2,233c0.1-0.1,0.3-0.3,0.4-0.4c0-0.1,0-0.1,0-0.2c0.1,0,0.1,0,0.2,0c0.1-0.1,0.2-0.3,0.4-0.3
				c0.4,0.1,0.7,0.3,0.8,0.7c0,0.1,0,0.2-0.1,0.3c-0.3,0-0.6,0.2-0.9,0.4c-0.3,0.1-0.6-0.1-0.9-0.2l0,0
				C492.2,233.1,492.2,233.1,492.2,233z"/>
			<path class="st206" d="M493.2,232.2c-0.1,0.1-0.3,0.1-0.4,0.2c0-0.3,0-0.5,0-0.8c-0.1-0.1-0.1-0.3,0-0.4c0.2-0.1,0.4-0.1,0.5,0.1
				C493.4,231.6,493.4,231.9,493.2,232.2z"/>
			<path class="st207" d="M492.8,231.2c0,0.1,0,0.3,0,0.4c-0.3-0.2-0.2-0.5-0.2-0.8c0.1-0.1,0.2-0.2,0.2-0.4c0.1-0.1,0.2-0.1,0.3,0
				c0.1,0.1,0.1,0.3,0.1,0.4C493.1,231,492.9,231.1,492.8,231.2z"/>
			<path class="st208" d="M491.4,234.4c0.1,0,0.1,0,0.2,0c0.1,0.1,0.1,0.1,0.2,0.2c0.2,0.2,0.3,0.4,0.4,0.6c0,0.1,0,0.1,0,0.2
				c-0.3,0-0.5-0.3-0.8,0c-0.1-0.1-0.1-0.1-0.2-0.2C491.3,234.9,491.3,234.7,491.4,234.4z"/>
			<path class="st209" d="M492.2,235.2c-0.3-0.1-0.6-0.2-0.6-0.6c0.1-0.1,0.3-0.1,0.3-0.3c0.1,0,0.1-0.1,0.2,0c0.1,0,0.1,0,0.2,0
				s0.2,0.1,0.3,0.1c0.1,0,0.1,0.1,0.2,0.2v0.1c0,0,0,0.1-0.1,0.1c-0.1,0.1-0.3,0.1-0.4,0.2C492.3,235.1,492.3,235.1,492.2,235.2z"
				/>
			<path class="st210" d="M493.6,234.8c-0.1,0.1-0.1,0.3-0.2,0.4c-0.1-0.1-0.1-0.1-0.2-0.2c-0.1-0.1-0.1-0.3,0-0.4
				c0.1-0.1,0.3-0.1,0.4,0C493.6,234.6,493.6,234.6,493.6,234.8L493.6,234.8z"/>
			<path class="st211" d="M493.2,234.6c0,0.1,0,0.3,0,0.4c-0.2,0-0.3-0.1-0.4-0.2l0,0c0.1-0.1,0.1-0.2,0.2-0.2
				C493.1,234.5,493.1,234.5,493.2,234.6z"/>
			<path class="st212" d="M493.6,234.8c0-0.1,0-0.1,0-0.2c-0.2-0.3-0.5-0.5-0.5-0.9c0-0.1,0.1-0.2,0.2-0.2c0.2-0.1,0.4-0.1,0.5,0
				c0.2,0.1,0.3,0.3,0.5,0.5c0.1,0.1,0.1,0.2,0.1,0.2c0.1,0.1,0.1,0.3,0.2,0.4c0,0.1,0,0.1,0,0.2c-0.2,0-0.5,0-0.6,0.2
				C493.9,234.9,493.7,234.9,493.6,234.8z"/>
			<path class="st213" d="M492,234.4c-0.1,0.2-0.2,0.2-0.4,0.2c0-0.1,0-0.1,0-0.2c0.1-0.1,0.1-0.1,0.2-0.2l0.1-0.1
				c0.1,0,0.1,0,0.2,0.1C492.1,234.3,492.1,234.4,492,234.4z"/>
			<path class="st214" d="M491.6,233.8c0.1,0.1,0.1,0.1,0.2,0.2c0.1,0,0.1,0.1,0.1,0.1l-0.1,0.1l0,0c-0.1,0-0.1,0-0.2,0
				C491.6,234.1,491.6,233.9,491.6,233.8z"/>
			<path class="st215" d="M493.2,233.6c0.2,0.3,0.5,0.6,0.4,1c-0.1,0-0.3,0-0.4,0s-0.1,0-0.2,0c-0.1,0.1-0.1,0.1-0.2,0
				c-0.1,0-0.1,0-0.2,0c0-0.1-0.1-0.1-0.1-0.2c0-0.1-0.1-0.1-0.1-0.2c0-0.1,0-0.1,0-0.2C492.6,233.8,492.8,233.4,493.2,233.6z"/>
			<path class="st216" d="M493.2,233.6c-0.3,0.1-0.4,0.4-0.8,0.4c-0.1-0.3-0.1-0.5-0.2-0.8c0.3,0,0.7,0,1,0
				C493.3,233.3,493.3,233.5,493.2,233.6L493.2,233.6z"/>
			<path class="st217" d="M491.8,234.2c0-0.1,0-0.1,0-0.2c0.1,0.1,0.3,0.1,0.4,0.2l-0.1,0.1l-0.1-0.1
				C491.9,234.2,491.9,234.2,491.8,234.2z"/>
			<path class="st218" d="M492.4,234.2c0.1,0.1,0.1,0.1,0.2,0.2c-0.1,0.1-0.1,0.1-0.2,0h-0.1h-0.1c-0.1,0-0.1-0.1-0.1-0.1v-0.1l0,0
				C492.3,234.2,492.3,234.2,492.4,234.2z"/>
			<path class="st219" d="M493,230.8c0-0.1,0-0.3,0-0.4c0-0.2,0-0.3,0.2-0.2c0.1,0,0.3,0,0.4,0c0.3,0.1,0.5,0.1,0.8,0.2
				c0.1,0.1,0.2,0.2,0.1,0.4c0,0.1-0.1,0.2-0.2,0.3c-0.2,0.1-0.4,0-0.7,0C493.4,231.1,493.1,231.1,493,230.8z"/>
			<path class="st220" d="M493.2,230.2c-0.1,0.1-0.1,0.1-0.2,0.2h-0.1h-0.1c-0.1,0-0.1,0-0.2,0c-0.1-0.2-0.1-0.4-0.2-0.6
				c0.2,0.1,0.4,0.1,0.6,0.2C493.1,230.1,493.1,230.1,493.2,230.2z"/>
			<path class="st221" d="M494.8,230.2c0.1-0.1,0.1-0.1,0.2-0.2c0.3,0,0.5-0.5,0.8-0.2c0,0.1,0,0.3,0,0.4c0.1,0.1,0.2,0.1,0.4,0.2
				c0.3,0.2,0.5,0.5,0.3,0.8c-0.2,0.2-0.4,0.3-0.6,0.4c-0.1,0-0.2,0-0.3,0c-0.2,0-0.3-0.1-0.4-0.2c0-0.1-0.3-0.8-0.4-1
				C494.8,230.3,494.8,230.3,494.8,230.2z"/>
			<path class="st222" d="M494.8,230.4c0.3,0.3,0.8,0.5,0.4,1l-0.1,0.1c-0.2,0.1-0.4,0-0.6-0.2c-0.1-0.1,0-0.3-0.1-0.5
				c0-0.1,0-0.3,0-0.4C494.5,230.4,494.7,230.4,494.8,230.4z"/>
			<path class="st223" d="M496.4,231.2c0-0.4-0.3-0.5-0.4-0.8c0,0-0.1-0.1,0-0.1c0,0,0-0.1,0.1-0.1c0.4,0.1,0.9,0.1,1,0.6
				c-0.1,0.1-0.1,0.1-0.2,0.2c0,0.1,0,0.3,0,0.4c-0.1,0.1-0.1,0.1-0.2,0.1s-0.2,0-0.2-0.1C496.3,231.3,496.3,231.3,496.4,231.2z"/>
			<path class="st224" d="M496,230.2c0,0.1,0,0.1,0,0.2c-0.1-0.1-0.1-0.1-0.2-0.2C495.9,230.2,495.9,230.2,496,230.2z"/>
			<path class="st225" d="M495.8,232.6c0.1,0.2,0.1,0.4,0.2,0.6c-0.1,0.1-0.1,0.1-0.2,0.2c-0.1,0-0.1,0-0.2,0
				c-0.1,0.1-0.3,0.1-0.4,0C495.1,232.9,495.2,232.6,495.8,232.6z"/>
			<path class="st226" d="M495.2,233.4c0.1,0,0.3,0,0.4,0c0,0.1,0,0.1,0,0.2c-0.1,0.1-0.1,0.1-0.2,0.2c-0.1,0-0.2,0-0.3,0
				c-0.1,0-0.1-0.1-0.2-0.2C495,233.4,495,233.3,495.2,233.4z"/>
			<path class="st227" d="M495.6,234c-0.1,0-0.3,0-0.4,0l0,0c-0.1-0.2,0-0.2,0.2-0.3c0.1,0,0.2,0,0.2,0.1
				C495.6,233.9,495.6,233.9,495.6,234z"/>
			<path class="st228" d="M495.6,233.8c-0.1,0-0.1,0-0.2,0s-0.1-0.1-0.1-0.1s0-0.1,0.1-0.1s0.1,0,0.2,0
				C495.6,233.7,495.6,233.7,495.6,233.8z"/>
			<path class="st10" d="M495.2,233.4c-0.1,0.1-0.1,0.1-0.2,0.2c-0.6,0.3-0.7-0.1-0.9-0.5c0-0.2-0.1-0.4-0.2-0.5
				c-0.1-0.2-0.1-0.5,0-0.7c0.2-0.2,0.4-0.2,0.6-0.2s0.4,0,0.6,0s0.3,0.1,0.5,0.1c0.1,0,0.1,0.1,0.2,0.1c0,0,0,0.1,0.1,0.1
				c0,0.1,0,0.2-0.1,0.2c0,0.1,0,0.3,0,0.4C495.4,232.8,495.4,233.1,495.2,233.4z"/>
			<path class="st229" d="M495.8,232.2c0-0.1,0-0.1,0-0.2c0.1-0.1,0.3-0.1,0.4,0c0,0.1,0,0.1,0,0.2
				C496.1,232.2,495.9,232.2,495.8,232.2z"/>
			<path class="st230" d="M496.2,232c-0.1,0-0.3,0-0.4,0l0,0c-0.1-0.1-0.1-0.2-0.1-0.4c0.1-0.1,0.1-0.1,0.2-0.1s0.2,0.1,0.3,0.3
				C496.2,231.9,496.2,231.9,496.2,232z"/>
			<path class="st231" d="M496.4,231.4c0.1,0,0.1,0,0.2,0s0.1,0.1,0.1,0.1s0,0.1-0.1,0.1c0,0.1,0,0.1,0,0.2c-0.1,0-0.1,0-0.2,0
				c-0.1-0.1-0.2-0.1-0.3-0.3C496.2,231.4,496.2,231.3,496.4,231.4z"/>
			<path class="st232" d="M496.2,231.6c0.1,0.1,0.1,0.1,0.2,0.2c-0.1,0-0.1,0-0.2,0c-0.1-0.1-0.1-0.1-0.2-0.2
				C496.1,231.5,496.1,231.5,496.2,231.6z"/>
			<path class="st233" d="M496.6,231.6c0-0.1,0-0.1,0-0.2c0.1,0,0.1,0,0.2,0c0,0.1,0,0.1,0,0.2C496.7,231.6,496.7,231.6,496.6,231.6
				z"/>
			<path class="st18" d="M494.2,233c0.3,0.2,0.4,0.6,0.8,0.6l0,0c0.1,0.1,0.1,0.3,0,0.4c-0.2,0.1-0.4,0.1-0.6,0.2
				c-0.1,0-0.1,0-0.2,0C494,233.8,494,233.5,494.2,233C494.1,233.1,494.2,233,494.2,233z"/>
			<path class="st234" d="M495,234c0-0.1,0-0.3,0-0.4c0.1,0,0.3,0,0.4,0c0,0.1,0,0.1,0,0.2c-0.1,0.1-0.1,0.1-0.2,0.2
				C495.1,234,495.1,234,495,234z"/>
			<path class="st235" d="M494,231.8c0,0.3,0,0.5,0,0.8c0.1,0,0.1,0.1,0.1,0.1s0,0.1-0.1,0.1c-0.3-0.2-0.5-0.4-0.8-0.6
				c0-0.3-0.2-0.5,0-0.8c0.1-0.1,0.1-0.1,0.2-0.1c0.3,0,0.4,0.2,0.5,0.4C494,231.7,494,231.8,494,231.8z"/>
			<path class="st236" d="M493.2,233.6c0-0.1,0-0.3,0-0.4c0.2-0.3,0.5-0.3,0.8-0.2c0,0,0,0.1,0.1,0.1c-0.1,0.2,0.2,0.5-0.3,0.5
				C493.6,233.6,493.4,233.6,493.2,233.6z"/>
			<path class="st237" d="M494,232.8c0-0.1,0-0.1,0-0.2c0.2,0.1,0.2,0.2,0.2,0.4l0,0c-0.1,0.1-0.1,0.1-0.2,0l0,0
				C494,232.9,494,232.9,494,232.8z"/>
			<path class="st110" d="M493.4,231.4c-0.1,0-0.1,0-0.2,0c-0.1-0.2-0.2-0.2-0.4-0.2c0.1-0.1,0.1-0.3,0.2-0.4c0.2,0.1,0.4,0.1,0.6,0
				C493.8,231.1,493.7,231.3,493.4,231.4z"/>
			<path class="st238" d="M492.2,234.2c0,0.1,0,0.1,0,0.2c-0.1,0-0.1,0-0.2,0c0-0.1,0-0.1,0-0.2
				C492.1,234.2,492.1,234.2,492.2,234.2z"/>
			<path class="st239" d="M492.4,234.4c0.1,0,0.1,0,0.2,0c0,0.1,0,0.1,0,0.2C492.5,234.5,492.5,234.5,492.4,234.4z"/>
			<path class="st170" d="M492.8,234.6c0.1,0,0.1,0,0.2,0c-0.1,0.1-0.1,0.1-0.2,0.2C492.8,234.7,492.8,234.7,492.8,234.6z"/>
			<path class="st240" d="M494,233c0.1,0,0.1,0,0.2,0c0,0.4,0.1,0.8,0,1.2c-0.3-0.1-0.4-0.3-0.4-0.6
				C493.9,233.4,493.9,233.2,494,233z"/>
			<path class="st241" d="M494.6,232c-0.2-0.1-0.4-0.1-0.6-0.2l0,0c-0.2-0.3-0.1-0.6,0.2-0.8c0.1-0.1,0.1-0.1,0.2-0.2
				c0.1,0.1,0.1,0.3,0.2,0.4C494.8,231.5,494.8,231.7,494.6,232z"/>
			<path class="st242" d="M494.2,231c-0.1,0.3-0.1,0.5-0.2,0.8c-0.2-0.1-0.4-0.3-0.6-0.4c0.1-0.2,0.1-0.4,0.2-0.6
				C493.8,230.9,494,230.9,494.2,231z"/>
			<path class="st243" d="M496.2,231.6c-0.1,0-0.1,0-0.2,0s-0.1,0-0.2,0s-0.1-0.1,0-0.1c0,0,0-0.1,0.1-0.1c0.2-0.1,0.4-0.1,0.6-0.2
				c0,0.1,0,0.1,0,0.2C496.3,231.5,496.3,231.5,496.2,231.6z"/>
			<path class="st165" d="M495.8,231.4c0,0.1,0,0.1,0,0.2c0,0.1,0,0.3,0,0.4c-0.1,0-0.1,0-0.2,0c-0.1-0.1-0.2-0.2-0.1-0.4
				c0-0.1,0.1-0.2,0.1-0.2C495.7,231.4,495.7,231.4,495.8,231.4z"/>
			<path class="st244" d="M495.6,231.4c0,0.1,0,0.1,0,0.2c-0.1,0.1-0.3,0.1-0.4,0.1c-0.1-0.1-0.1-0.1-0.1-0.2c0-0.1,0-0.1,0-0.1l0,0
				C495.3,231.4,495.5,231.4,495.6,231.4z"/>
			<path class="st144" d="M495.2,231.4c0,0.1,0,0.1,0,0.2c0.1,0,0.1,0.1,0,0.1c0,0,0,0.1-0.1,0.1c-0.2,0.1-0.4,0.1-0.6,0.2
				c0-0.3,0-0.5,0-0.8C494.8,231.3,495,231.3,495.2,231.4z"/>
			<path class="st245" d="M495,232.7c-0.1,0-0.2,0.1-0.3,0.1c-0.1,0-0.2-0.1-0.2-0.2c0-0.1,0.2-0.1,0.2-0.1
				C494.9,232.5,495,232.5,495,232.7z"/>
			<path class="st246" d="M495.2,231.8c0-0.1,0-0.1,0-0.2c0.1,0,0.3,0,0.4,0c0,0.1,0,0.3,0,0.4C495.4,232,495.3,232,495.2,231.8z"/>
		</g>
	</g>
</g>
</svg>
