<?xml version="1.0" encoding="utf-8"?>
<!-- Generator: Adobe Illustrator 22.1.0, SVG Export Plug-In . SVG Version: 6.00 Build 0)  -->
<svg version="1.1" id="Layer_1" xmlns="http://www.w3.org/2000/svg" xmlns:xlink="http://www.w3.org/1999/xlink" x="0px" y="0px"
	 viewBox="0 0 237.9 156" style="enable-background:new 0 0 237.9 156;" xml:space="preserve">
<style type="text/css">
	.st0{fill:#F6B917;}
	.st1{fill:none;}
	.st2{fill:#F0E8DC;}
	.st3{fill:#A07239;}
	.st4{fill:#B78C4C;}
	.st5{fill:#B08344;}
	.st6{fill:#A5773C;}
	.st7{fill:#B18241;}
	.st8{fill:#B08143;}
	.st9{fill:#B58946;}
	.st10{fill:#B98D4C;}
	.st11{fill:#BC9355;}
	.st12{fill:#D0A967;}
	.st13{fill:#BB9354;}
	.st14{fill:#B2894A;}
	.st15{fill:#C19651;}
	.st16{fill:#B48A4B;}
	.st17{fill:#BD904D;}
	.st18{fill:#C09351;}
	.st19{fill:#966B33;}
	.st20{fill:#AE7E40;}
	.st21{fill:#AC7C3C;}
	.st22{fill:#A87B3F;}
	.st23{fill:#B08141;}
	.st24{fill:#CFA35E;}
	.st25{fill:#A0753B;}
	.st26{fill:#966830;}
	.st27{fill:#8E632F;}
	.st28{fill:#B18142;}
	.st29{fill:#99652D;}
	.st30{fill:#D2B16F;}
	.st31{fill:#B78C48;}
	.st32{fill:#865C28;}
	.st33{fill:#A27235;}
	.st34{fill:#A4763C;}
	.st35{fill:#D9B56E;}
	.st36{fill:#CCA057;}
	.st37{fill:#D6B374;}
	.st38{fill:#B78C4A;}
	.st39{fill:#C09551;}
	.st40{fill:#B68D4D;}
	.st41{fill:#B88E4F;}
	.st42{fill:#9E7237;}
	.st43{fill:#AF8142;}
	.st44{fill:#8C6632;}
	.st45{fill:#BC9551;}
	.st46{fill:#9E7038;}
	.st47{fill:#AC8144;}
	.st48{fill:#B08345;}
	.st49{fill:#B48644;}
	.st50{fill:#B58949;}
	.st51{fill:#BB8F50;}
	.st52{fill:#AD8042;}
	.st53{fill:#C69C5B;}
	.st54{fill:#CCA96B;}
	.st55{fill:#BB9155;}
	.st56{fill:#C09A57;}
	.st57{fill:#956A34;}
	.st58{fill:#AA783B;}
	.st59{fill:#A87B3E;}
	.st60{fill:#B48649;}
	.st61{fill:#AC7F41;}
	.st62{fill:#885E2B;}
	.st63{fill:#B48949;}
	.st64{fill:#996B32;}
	.st65{fill:#BE9450;}
	.st66{fill:#B98A46;}
	.st67{fill:#D2AA65;}
	.st68{fill:#8E632C;}
	.st69{fill:#9C692C;}
	.st70{fill:#B88C4B;}
	.st71{fill:#C39853;}
	.st72{fill:#7F5221;}
	.st73{fill:#B28543;}
	.st74{fill:#9C6E34;}
	.st75{fill:#AB7B40;}
	.st76{fill:#90632D;}
	.st77{fill:#C39C58;}
	.st78{fill:#A6783B;}
	.st79{fill:#CBA45E;}
	.st80{fill:#9F7236;}
	.st81{fill:#B08343;}
	.st82{fill:#C1924D;}
	.st83{fill:#AC7939;}
	.st84{fill:#C1964E;}
	.st85{fill:#9C7535;}
	.st86{fill:#A17339;}
	.st87{fill:#AA7D40;}
	.st88{fill:#966730;}
	.st89{fill:#875C29;}
	.st90{fill:#B58746;}
	.st91{fill:#B68747;}
	.st92{fill:#9E7037;}
	.st93{fill:#B28746;}
	.st94{fill:#8A5F2A;}
	.st95{fill:#B78B4C;}
	.st96{fill:#CDA15C;}
	.st97{fill:#BB8E46;}
	.st98{fill:#A77E40;}
	.st99{fill:#AE8244;}
	.st100{fill:#AC7D3B;}
	.st101{fill:#B68947;}
	.st102{fill:#B89758;}
	.st103{fill:#9B6F37;}
	.st104{fill:#A5783B;}
	.st105{fill:#B18648;}
	.st106{fill:#9E7238;}
	.st107{fill:#B48948;}
	.st108{fill:#8F642E;}
	.st109{fill:#775021;}
	.st110{fill:#916631;}
	.st111{fill:#8E632D;}
	.st112{fill:#9D723B;}
	.st113{fill:#BE9352;}
	.st114{fill:#93662E;}
	.st115{fill:#B48847;}
	.st116{fill:#A97C3D;}
	.st117{fill:#B48747;}
	.st118{fill:#A98045;}
	.st119{fill:#9A6B35;}
	.st120{fill:#AB7F40;}
	.st121{fill:#BC914F;}
	.st122{fill:#A77941;}
	.st123{fill:#A2753D;}
	.st124{fill:#B28749;}
	.st125{fill:#C6A05F;}
	.st126{fill:#C99F5E;}
	.st127{fill:#A2743C;}
	.st128{fill:#B78B4A;}
	.st129{fill:#9E7138;}
	.st130{fill:#A0733A;}
	.st131{fill:#AD8445;}
	.st132{fill:#B28747;}
	.st133{fill:#B98E4A;}
	.st134{fill:#AA783C;}
	.st135{fill:#A9783A;}
	.st136{fill:#956832;}
	.st137{fill:#CBA25D;}
	.st138{fill:#B1813F;}
	.st139{fill:#C09455;}
	.st140{fill:#B28240;}
	.st141{fill:#BF934F;}
	.st142{fill:#A97E41;}
	.st143{fill:#C39550;}
	.st144{fill:#B28545;}
	.st145{fill:#B08241;}
	.st146{fill:#B5894A;}
	.st147{fill:#AE8543;}
	.st148{fill:#CBA462;}
	.st149{fill:#B68A4A;}
	.st150{fill:#C59E5D;}
	.st151{fill:#A2753A;}
	.st152{fill:#BD9252;}
	.st153{fill:#B08446;}
	.st154{fill:#A8793D;}
	.st155{fill:#9A6E38;}
	.st156{fill:#B38546;}
	.st157{fill:#CDA765;}
	.st158{fill:#D1A568;}
	.st159{fill:#AC8043;}
	.st160{fill:#916531;}
	.st161{fill:#825B29;}
	.st162{fill:#9B7036;}
	.st163{fill:#91652D;}
	.st164{fill:#D2B171;}
	.st165{fill:#A87C3F;}
	.st166{fill:#AF8345;}
	.st167{fill:#D1A864;}
	.st168{fill:#CBA05F;}
	.st169{fill:#B38949;}
	.st170{fill:#A3773E;}
	.st171{fill:#B48E4D;}
	.st172{fill:#A0753A;}
	.st173{fill:#C9A25E;}
	.st174{fill:#BB9150;}
	.st175{fill:#9F7138;}
	.st176{fill:#815825;}
	.st177{fill:#B38849;}
	.st178{fill:#BC9251;}
	.st179{fill:#BA904E;}
	.st180{fill:#9E753C;}
	.st181{fill:#B78C4D;}
	.st182{fill:#CAA05B;}
	.st183{fill:#B28546;}
	.st184{fill:#9F7137;}
	.st185{fill:#996C35;}
	.st186{fill:#BD924C;}
	.st187{fill:#C09353;}
	.st188{fill:#B4884B;}
	.st189{fill:#925F27;}
	.st190{fill:#C09452;}
	.st191{fill:#A67637;}
	.st192{fill:#9B6E33;}
	.st193{fill:#BD924F;}
	.st194{fill:#A2753C;}
	.st195{fill:#A07434;}
	.st196{fill:#B18443;}
	.st197{fill:#946730;}
	.st198{fill:#B58A4C;}
	.st199{fill:#C89756;}
	.st200{fill:#835B27;}
	.st201{fill:#B78E4A;}
	.st202{fill:#8B602A;}
	.st203{fill:#92662F;}
	.st204{fill:#996E36;}
	.st205{fill:#B28648;}
	.st206{fill:#AD8142;}
	.st207{fill:#9A6E35;}
	.st208{fill:#AF8343;}
	.st209{fill:#CDA061;}
	.st210{fill:#895E29;}
	.st211{fill:#785224;}
	.st212{fill:#AF8546;}
	.st213{fill:#9E7136;}
	.st214{fill:#CCA562;}
	.st215{fill:#AA7A3D;}
	.st216{fill:#A1733A;}
	.st217{fill:#B38748;}
	.st218{fill:#AC8042;}
	.st219{fill:#AF8548;}
	.st220{fill:#AC8044;}
	.st221{fill:#B28646;}
	.st222{fill:#C49856;}
	.st223{fill:#A37538;}
	.st224{fill:#C99E5E;}
	.st225{fill:#BF9453;}
	.st226{fill:#B0864B;}
	.st227{fill:#B98C47;}
	.st228{fill:#986A31;}
	.st229{fill:#805625;}
	.st230{fill:#BC9250;}
	.st231{fill:#B08142;}
	.st232{fill:#CCA05B;}
	.st233{fill:#D5A551;}
	.st234{fill:#C59E5E;}
	.st235{fill:#BF9656;}
	.st236{fill:#B38847;}
	.st237{fill:#C9A168;}
	.st238{fill:#7A5021;}
	.st239{fill:#8D6133;}
	.st240{fill:#AA7D41;}
	.st241{fill:#C09554;}
	.st242{fill:#B48546;}
	.st243{fill:#855B28;}
	.st244{fill:#C59852;}
	.st245{fill:#B88A48;}
	.st246{fill:#966931;}
</style>
<g>
	<g>
		<path class="st0" d="M237.4,155.5h-16.3v-14h16.3V155.5z M222.1,154.5h14.3v-12h-14.3V154.5L222.1,154.5z"/>
	</g>
	<g>
		<rect x="224" y="137" class="st1" width="11" height="11"/>
	</g>
	<g>
		<polygon points="230.5,142 229.5,142 229.5,1.5 0,1.5 0,0.5 230.5,0.5 		"/>
	</g>
	<g>
		<g>
			<path class="st2" d="M235,148.2c0,0.4-0.3,0.2-0.4,0.2c-3.4,0-6.8,0-10.3,0c-0.2,0-0.6,0.2-0.6-0.3c0-3.3,0-6.5,0-9.8
				c0-0.2,0.1-0.1,0.2-0.1c0.2,0.2,0.3,0.5,0.3,0.7c0,0.3,0,0.5,0,0.8c0,0.2,0,0.4,0,0.6c0,0.1,0,0.3,0,0.4c0,0.1,0,0.2,0,0.3
				c0,0.2,0,0.5,0,0.7s0,0.5,0,0.7c0,0.1,0,0.3,0,0.4c0,0.1,0,0.3,0,0.4c0,0.3,0,0.5,0.1,0.8c0,0.1,0,0.2,0,0.3
				c0,0.2-0.1,0.3-0.1,0.5s0,0.4,0,0.7c0,0.2,0,0.5,0,0.7c0,0.1,0,0.2,0,0.3s0,0.3,0,0.4c0,0.3,0.1,0.6,0.3,0.8s0.5,0.1,0.7,0.2
				c0.1,0,0.2,0,0.3,0c0.4,0,0.9-0.1,1.3-0.1c0.6,0.1,1.2,0.1,1.7,0.1c0.3,0,0.5,0,0.8,0s0.7,0,1,0c0.2,0,0.5,0,0.7,0
				c0.8,0,1.7,0,2.5,0C234.1,147.9,234.6,147.8,235,148.2z"/>
			<path class="st3" d="M229.2,138.2c0.5,0,0.9,0,1.4,0c0.1,0.1,0.1,0.1,0.1,0.2c-0.1,0.3-0.4,0.4-0.7,0.6c-0.2,0.1-0.2,0.4-0.4,0.5
				c-0.3,0-0.6-0.1-0.9-0.2c-0.2-0.2-0.3-0.4-0.2-0.7C228.6,138.2,229,138.4,229.2,138.2z"/>
			<path class="st4" d="M235,140.6c0,0.2,0,0.4,0,0.6c-0.2,0.2,0,0.4-0.2,0.6c-0.1,0.1-0.1,0.1-0.2,0.2c-0.1,0-0.2,0-0.3,0
				c-0.1,0-0.2-0.1-0.2-0.1c-0.1-0.1-0.2-0.3-0.2-0.5c-0.1-0.2-0.2-0.4-0.3-0.6c0-0.2,0-0.4,0.1-0.6c0.1-0.1,0.1-0.1,0.2-0.2
				c0.1,0,0.2-0.1,0.3,0c0.1,0,0.2,0.1,0.2,0.1C234.6,140.3,234.8,140.4,235,140.6z"/>
			<path class="st5" d="M235,148.2c-0.5,0-0.9,0-1.4-0.1c-0.1-0.2-0.1-0.4,0-0.6c0-0.1,0.1-0.2,0.1-0.3c0.1-0.2,0.3-0.2,0.5-0.3
				c0.2,0,0.3,0.1,0.5,0.3c0.1,0.2,0,0.5,0.3,0.5C235,147.9,235,148.1,235,148.2z"/>
			<path class="st6" d="M233.2,138.2c0.1,0,0.3,0,0.4,0c0.5,0.3,0.7,0.7,0.3,1.2c-0.3,0.2-0.6,0-0.9,0c-0.1,0-0.3-0.1-0.4-0.2
				c0-0.1-0.1-0.2-0.1-0.3C232.6,138.5,232.9,138.4,233.2,138.2z"/>
			<path class="st7" d="M234.6,147.4c-0.1-0.1-0.3-0.1-0.4-0.2c-0.4-0.2-0.5-0.5-0.4-0.9c0-0.1,0.1-0.2,0.1-0.3
				c0.2-0.2,0.5-0.1,0.7,0s0.3,0.3,0.4,0.4c0,0.1,0,0.1,0,0.2C234.8,146.8,234.9,147.2,234.6,147.4z"/>
			<path class="st8" d="M233.8,139.4c0.2-0.4,0-0.8-0.2-1.2c0.2,0,0.4,0,0.6,0c0.1,0.1,0.2,0.1,0.3,0.2c0.1,0.2,0.2,0.4,0.2,0.6
				c0,0.1,0,0.2-0.1,0.3c-0.1,0.2-0.2,0.3-0.4,0.4c-0.1,0-0.3,0-0.4-0.1C233.7,139.6,233.7,139.5,233.8,139.4z"/>
			<path class="st9" d="M235,143c0,0.2,0,0.4,0,0.6c-0.1,0.1-0.2,0.1-0.3,0.1c-0.4-0.1-0.7-0.2-0.9-0.6c0-0.1,0-0.3,0-0.4
				c0-0.1,0.1-0.2,0.3-0.3c0.1,0,0.2-0.1,0.3,0c0.1,0,0.2,0.1,0.3,0.2c0.1,0.1,0.1,0.2,0.2,0.3C234.9,142.9,234.9,142.9,235,143z"/>
			<path class="st10" d="M229.2,138.2c-0.2,0.1-0.4,0.3-0.6,0.4c-0.4,0.3-0.8,0.4-1.2,0.1c-0.1-0.2-0.2-0.3,0-0.5
				C228,138.2,228.6,138.2,229.2,138.2z"/>
			<path class="st11" d="M224,139c0-0.3,0-0.5,0-0.8c0.3,0,0.7,0,1,0c0.1,0.1,0.1,0.1,0.1,0.2c-0.1,0.4-0.5,0.5-0.8,0.6
				C224.2,139.1,224.1,139.1,224,139z"/>
			<path class="st12" d="M227.4,138.2c0,0.1,0,0.3,0,0.4c0.1,0.1,0.1,0.2,0,0.2s-0.2,0.1-0.3,0.1c-0.3,0-0.6,0-0.8-0.2
				c-0.1-0.1-0.1-0.2-0.1-0.3s0.1-0.2,0.1-0.2C226.7,138.2,227.1,138.2,227.4,138.2z"/>
			<path class="st13" d="M234.6,147.4c0-0.3,0-0.6,0.4-0.8c0,0.4,0,0.8,0,1.2C234.5,148,234.6,147.7,234.6,147.4z"/>
			<path class="st14" d="M234.6,139.2c-0.1-0.3-0.4-0.4-0.2-0.8c0.1-0.1,0.2-0.1,0.4-0.1c0.1,0,0.2,0,0.2,0.1c0,0.3,0,0.5,0,0.8
				C234.9,139.3,234.7,139.3,234.6,139.2z"/>
			<path class="st15" d="M226.4,138.2c0,0.1,0,0.1,0,0.2c-0.3,0.4-0.7,0.5-1.1,0.3c-0.1-0.1-0.2-0.2-0.3-0.4c0-0.1,0-0.1,0-0.2
				C225.5,138.2,225.9,138.2,226.4,138.2z"/>
			<path class="st16" d="M233.2,138.2c-0.1,0.3-0.4,0.5-0.4,0.8c-0.2,0.2-0.4,0.1-0.5-0.1c-0.1-0.3,0.1-0.5,0.3-0.7
				C232.8,138.2,233,138.2,233.2,138.2z"/>
			<path class="st17" d="M235,140.6c-0.3,0-0.7,0-0.8-0.4c0.1-0.1,0.2-0.3,0.4-0.3c0.1,0,0.3,0,0.4,0.1
				C235,140.2,235,140.4,235,140.6z"/>
			<path class="st18" d="M235,144.6c0,0.2,0,0.4,0,0.6c-0.1,0.1-0.2,0.1-0.4,0.1c-0.3-0.2-0.3-0.5-0.3-0.8c0-0.1,0.1-0.2,0.2-0.2
				s0.2,0,0.3,0C234.9,144.4,234.9,144.5,235,144.6z"/>
			<path class="st19" d="M232.6,138.2c-0.1,0.2-0.1,0.4-0.2,0.6c-0.1,0.1-0.1,0.1-0.2,0.1s-0.2,0-0.2-0.1c-0.1-0.1-0.1-0.2-0.1-0.4
				c0-0.1,0.1-0.2,0.2-0.2C232.2,138.2,232.4,138.2,232.6,138.2z"/>
			<path class="st20" d="M230.6,138.4c0-0.1,0-0.1,0-0.2c0.1,0,0.3,0,0.4,0c0.1,0.1,0.1,0.2,0.1,0.3c-0.1,0.3-0.1,0.6-0.5,0.6
				c-0.1,0-0.2,0-0.3-0.1C230.2,138.7,230.4,138.5,230.6,138.4z"/>
			<path class="st21" d="M235,146.4c-0.1-0.1-0.3-0.1-0.4-0.2c-0.1-0.3,0-0.5,0.1-0.6c0.1,0,0.2,0,0.3,0
				C235,145.9,235,146.1,235,146.4z"/>
			<path class="st22" d="M235,140c-0.1,0-0.3,0-0.4,0c-0.2,0.1-0.2,0-0.3-0.1c0-0.1,0-0.2,0-0.3c0.1-0.1,0.1-0.1,0.2-0.1
				c0.2,0,0.3,0.2,0.4,0.3C235,139.9,235,139.9,235,140z"/>
			<path class="st23" d="M234.6,141.8c0.1,0,0.1,0,0.2,0h0.1c0,0.1,0.1,0.1,0.1,0.2c0,0.1,0,0.3,0,0.4l-0.1,0.1h-0.1
				c-0.1,0-0.2-0.1-0.2-0.2c0-0.1-0.1-0.2-0.1-0.3S234.5,141.9,234.6,141.8z"/>
			<path class="st24" d="M234.8,144.4c-0.1,0-0.1,0-0.2,0c-0.2-0.2-0.2-0.4-0.1-0.6c0.2-0.1,0.3-0.1,0.5,0c0,0.1,0,0.1,0,0.2
				c-0.1,0.1-0.1,0.2-0.1,0.3C234.9,144.3,234.9,144.4,234.8,144.4z"/>
			<path class="st15" d="M235,145.6c-0.1,0-0.1,0-0.2,0s-0.2-0.1-0.3-0.2v-0.1c0,0,0-0.1,0.1-0.1s0.3,0,0.4,0
				C235,145.3,235,145.5,235,145.6z"/>
			<path class="st25" d="M232,138.2c0,0.1,0,0.1,0,0.2c-0.2,0.2-0.3,0.2-0.5,0.1c-0.1-0.1-0.1-0.2-0.1-0.3
				C231.6,138.2,231.8,138.2,232,138.2z"/>
			<path class="st14" d="M234.8,141.8c0-0.2,0-0.5,0.2-0.6c0,0.2,0,0.4,0,0.6C234.9,141.9,234.9,141.9,234.8,141.8L234.8,141.8z"/>
			<path class="st26" d="M231.4,138.2c0,0.1,0,0.1,0,0.2v0.1c-0.1,0.1-0.1,0.1-0.2,0.1h-0.1l-0.1-0.1c0-0.1,0-0.1,0-0.1
				c0-0.1,0-0.1,0-0.2C231.1,138.2,231.3,138.2,231.4,138.2z"/>
			<path class="st27" d="M234.8,138.4c-0.1,0-0.3,0-0.4,0c-0.1-0.1-0.1-0.1-0.2-0.2c0.2,0,0.4,0,0.6,0
				C234.9,138.2,234.9,138.3,234.8,138.4L234.8,138.4z"/>
			<path class="st28" d="M235,143c-0.1,0-0.1,0-0.2,0c-0.1-0.1-0.1-0.3,0-0.4c0.1-0.1,0.2-0.1,0.2,0C235,142.7,235,142.9,235,143z"
				/>
			<path class="st29" d="M235,143.8c-0.1,0-0.3,0-0.4,0c-0.1-0.1-0.1-0.1,0-0.2c0.1,0,0.2,0,0.2,0c0.1,0,0.1,0,0.2,0
				C235,143.7,235,143.7,235,143.8z"/>
			<path class="st30" d="M234.6,139.2c0.1,0,0.3,0,0.4,0c0,0.1,0,0.1,0,0.2c-0.1,0.1-0.2,0.1-0.4,0.1
				C234.6,139.4,234.5,139.3,234.6,139.2L234.6,139.2L234.6,139.2z"/>
			<path class="st31" d="M234.8,144.4c0-0.1,0-0.1,0-0.2c0.1-0.1,0.1-0.1,0.2,0c0,0.1,0,0.3,0,0.4
				C234.9,144.5,234.9,144.5,234.8,144.4z"/>
			<path class="st32" d="M235,139.8c-0.2,0-0.3,0-0.4-0.2c0.1-0.1,0.2-0.1,0.4,0C235,139.7,235,139.7,235,139.8z"/>
			<path class="st33" d="M235,139.6c-0.1,0-0.2,0-0.4,0l0,0c0,0-0.1-0.1,0-0.1c0,0,0-0.1,0.1-0.1s0.3,0,0.4,0
				C235,139.5,235,139.5,235,139.6z"/>
			<path class="st34" d="M234.8,138.4c0-0.1,0-0.1,0-0.2c0.2,0,0.2,0,0.2,0.2C234.9,138.4,234.9,138.4,234.8,138.4z"/>
			<path class="st35" d="M234.8,141.8c0.1,0,0.1,0,0.2,0c0,0.1,0,0.1,0,0.2C234.9,141.9,234.9,141.9,234.8,141.8z"/>
			<path class="st36" d="M235,142.6c-0.1,0-0.1,0-0.2,0c0,0-0.1-0.1,0-0.1v-0.1c0.1,0,0.1,0,0.2,0C235,142.5,235,142.5,235,142.6z"
				/>
			<path class="st37" d="M235,144.2c-0.1,0-0.1,0-0.2,0c0.1-0.1,0.1-0.1,0.2-0.2C235,144.1,235,144.1,235,144.2z"/>
			<path class="st38" d="M233.8,147.6c-0.1,0.2-0.1,0.3-0.2,0.5c-0.9,0-1.8,0-2.6,0c-0.2-0.2-0.5-0.1-0.7-0.3
				c-0.4-0.8,0.4-0.8,0.7-1.2c0.1,0,0.2-0.1,0.3-0.1c0.2,0,0.4,0.1,0.5,0.3c0.3,0.6,0.8,0.3,1.2,0.3
				C233.3,147.2,233.6,147.3,233.8,147.6z"/>
			<path class="st39" d="M224.1,140.4c0-0.2,0-0.4,0-0.6c0.1-0.1,0.2-0.2,0.3-0.3c0.5-0.3,1-0.8,1.7-0.7c0.3,0.1,0.5,0.3,0.7,0.6
				c0,0.2-0.1,0.4-0.2,0.5s-0.3,0.1-0.4,0.2c-0.3,0-0.5,0-0.8,0.2C224.9,140.4,224.5,140.6,224.1,140.4z"/>
			<path class="st40" d="M224,143c0-0.1,0-0.3,0-0.4c0.1-0.1,0.1-0.1,0.2-0.2c0.2-0.1,0.4-0.2,0.5-0.3c0.2-0.1,0.3-0.2,0.3-0.4
				s0.2-0.3,0.3-0.4c0.1,0,0.2,0,0.3,0c0.3,0.3,0.6,0.6,0.8,0.9c0,0.1,0,0.2,0,0.3s-0.1,0.2-0.3,0.3c-0.1,0.1-0.3,0.1-0.4,0.1
				c-0.5-0.1-0.8,0.1-1.3,0.2C224.3,143.2,224.2,143.2,224,143z"/>
			<path class="st41" d="M228.6,148.2c-0.6,0-1.2,0.2-1.8-0.2c-0.1-0.1-0.1-0.2-0.1-0.3s0.1-0.2,0.1-0.2c0.1-0.1,0.1-0.1,0.2-0.1
				s0.2,0,0.2,0c0.2,0,0.3,0,0.5,0c0.1,0,0.2,0,0.3,0c0.3,0.1,0.6,0.1,0.7,0.3C228.8,147.8,228.8,148,228.6,148.2z"/>
			<path class="st42" d="M225.4,141.4c-0.1,0.1-0.1,0.3-0.2,0.4c-0.4,0.1-0.8,0.3-1.1,0c0-0.3,0-0.5,0-0.8c0.3-0.3,0.7-0.3,1-0.2
				c0.2,0.1,0.3,0.2,0.3,0.4C225.4,141.3,225.4,141.3,225.4,141.4z"/>
			<path class="st43" d="M226.8,147.6c0,0.1,0,0.3,0,0.4c-0.4,0.3-0.9,0.1-1.4,0.2c-0.2-0.3,0.1-0.5,0.2-0.7
				c0.2-0.1,0.4-0.3,0.6-0.4C226.5,147.1,226.7,147.3,226.8,147.6z"/>
			<path class="st44" d="M224.1,140.4c0.4-0.1,0.8-0.3,1.1-0.4c0.3,0,0.5,0.1,0.5,0.4c0,0.1,0,0.2-0.1,0.3s-0.2,0.1-0.2,0.1
				c-0.2,0-0.5,0-0.7,0.1c-0.2,0-0.5,0.1-0.7-0.1C224,140.7,224.1,140.5,224.1,140.4z"/>
			<path class="st45" d="M230.4,148.2c-0.3,0-0.7,0-1,0c-0.2-0.2-0.5-0.4-0.5-0.8c0-0.2,0.1-0.3,0.3-0.4c0.1,0,0.2,0,0.3,0
				c0.5,0.2,0.5,0.8,0.9,1C230.4,148,230.4,148,230.4,148.2C230.4,148.1,230.4,148.2,230.4,148.2z"/>
			<path class="st46" d="M224,141.8c0.4,0,0.8-0.3,1.1,0c0.2,0.5-0.1,0.4-0.4,0.4c-0.2,0.1-0.4,0.2-0.6,0.4c-0.1,0-0.1,0-0.2,0
				C224,142.3,224,142.1,224,141.8z"/>
			<path class="st47" d="M229,147.4c0.1,0.2,0.6,0.3,0.4,0.7c-0.3,0-0.5,0-0.8,0c0-0.2,0-0.4,0-0.6c-0.1-0.1-0.1-0.1,0-0.2
				c0.1-0.1,0.1-0.1,0.2-0.1C228.9,147.3,229,147.3,229,147.4z"/>
			<path class="st48" d="M224.2,144.4c0-0.1,0-0.1,0-0.2c0,0,0.1,0,0.1-0.1c0.3,0,0.5,0.1,0.8,0.3c0.1,0.1,0.2,0.3,0.2,0.5
				c0,0.1,0,0.2-0.1,0.3c-0.1,0.2-0.3,0.3-0.5,0.2s-0.4-0.2-0.5-0.3C224.3,144.9,224.1,144.7,224.2,144.4z"/>
			<path class="st49" d="M224.2,148c-0.1-0.3-0.1-0.7-0.2-1c0.6-0.6,0.7,0.2,0.9,0.4c0,0.2,0,0.3-0.1,0.4
				C224.7,148,224.5,148.2,224.2,148z"/>
			<path class="st50" d="M224.8,147.4c-0.3,0-0.3-0.7-0.8-0.4c0-0.1,0-0.3,0-0.4c0.3-0.4,0.7-0.1,1,0c0.1,0.1,0.1,0.1,0.2,0.2
				c0,0.1,0,0.2,0,0.3C225.2,147.3,225.1,147.5,224.8,147.4z"/>
			<path class="st51" d="M224.4,145.2c0.2-0.1,0.4-0.1,0.4,0.2c0.1,0.2,0,0.4-0.2,0.5c-0.3,0.1-0.5,0-0.6-0.3c0-0.3,0-0.5,0-0.8
				C224.4,144.7,224.2,145.1,224.4,145.2z"/>
			<path class="st52" d="M224.8,147.4c0.1-0.1,0.3-0.3,0.4-0.4c0.3,0.1,0.5,0.3,0.6,0.6c-0.1,0.2-0.4,0.3-0.4,0.6h-0.1h-0.1
				c-0.1-0.1-0.3-0.2-0.4-0.4C224.8,147.7,224.8,147.5,224.8,147.4z"/>
			<path class="st53" d="M224,145.6c0.2,0.1,0.4,0.1,0.6,0.2c0.2,0,0.4,0.1,0.4,0.3s-0.1,0.3-0.3,0.3c-0.2,0-0.5,0.2-0.7,0
				C224,146.1,224,145.9,224,145.6z"/>
			<path class="st54" d="M224.1,146.4c0.2-0.1,0.4-0.1,0.6-0.2c0.2,0.2,0.5,0.1,0.7,0.3c0.1,0.2,0.2,0.3-0.1,0.3
				c-0.4-0.1-0.8-0.1-1.1-0.2C224,146.5,224,146.5,224.1,146.4z"/>
			<path class="st40" d="M224.2,144.2c-0.3-0.2-0.2-0.5-0.2-0.8c0.1-0.2,0.3-0.3,0.6-0.3c0.1,0.1,0.1,0.2,0.1,0.3s-0.1,0.2-0.1,0.3
				c-0.1,0.1-0.1,0.2-0.2,0.3S224.3,144.2,224.2,144.2L224.2,144.2z"/>
			<path class="st55" d="M224.8,147.8c0.2,0,0.4,0.1,0.4,0.4c-0.3,0-0.7,0.2-1-0.2C224.4,147.9,224.6,147.9,224.8,147.8z"/>
			<path class="st56" d="M224,140.8c0.2,0,0.5,0,0.7,0c0.2-0.1,0.4-0.2,0.4,0.2c-0.4,0-0.8,0-1.2,0C224,140.9,224,140.9,224,140.8z"
				/>
			<path class="st57" d="M224.4,139.8c-0.1,0-0.2,0-0.4,0c0-0.3,0-0.5,0-0.8h0.1C224.6,139.2,224.6,139.2,224.4,139.8z"/>
			<path class="st58" d="M230.4,148.2c0-0.1,0-0.1,0-0.2c-0.1,0-0.1-0.1-0.1-0.1s0-0.1,0.1-0.1c0.3,0,0.5,0,0.6,0.4
				C230.8,148.2,230.6,148.2,230.4,148.2z"/>
			<path class="st59" d="M224.4,145.2c-0.1-0.1-0.2-0.3-0.4-0.4c0-0.2,0-0.3,0.2-0.4C224.5,144.6,224.5,144.9,224.4,145.2z"/>
			<path class="st60" d="M224.6,143.2c-0.2,0.1-0.4,0.1-0.6,0.2c0-0.1,0-0.3,0-0.4c0.2,0,0.4,0,0.6,0
				C224.6,143.1,224.6,143.1,224.6,143.2z"/>
			<path class="st61" d="M227.4,138.8c0-0.1,0-0.1,0-0.2c0.4,0,0.8,0,1.2,0c0.1,0.2,0.1,0.4,0.2,0.6c0,0.1-0.1,0.2-0.2,0.3
				c-0.2,0-0.3-0.1-0.5,0c-0.3,0-0.5-0.2-0.7-0.4C227.3,139,227.3,138.9,227.4,138.8z"/>
			<path class="st62" d="M228.6,139.4c0.1-0.1,0.1-0.1,0.2-0.2c0.3-0.2,0.6,0.1,0.8,0.2c0.2-0.1,0.2,0,0.2,0.2
				c-0.1,0.1-0.1,0.1-0.2,0.2c-0.1,0-0.3,0.1-0.4,0C229,139.8,228.8,139.7,228.6,139.4C228.6,139.5,228.6,139.4,228.6,139.4z"/>
			<path class="st63" d="M230.6,138.4c-0.1,0.2-0.1,0.4-0.2,0.6c0.1,0.1,0,0.2-0.1,0.3c-0.4,0.1-0.6,0-0.6-0.5
				C230.1,138.7,230.3,138.5,230.6,138.4z"/>
			<path class="st64" d="M229.8,138.8c0.1,0.2,0.3,0.4,0.6,0.4c0,0.5-0.2,0.5-0.6,0.4c-0.1-0.1-0.1-0.1-0.2-0.2
				C229.6,139.2,229.6,139,229.8,138.8z"/>
			<path class="st65" d="M234.2,141.2c0,0.2,0,0.4,0,0.6c0,0,0,0.1-0.1,0.1c-0.1,0.1-0.1,0.1-0.2,0.1c-0.2,0.1-0.4,0.1-0.6,0.1
				c-0.3-0.1-0.4-0.3-0.5-0.6c0-0.1,0-0.2,0.1-0.3s0.1-0.1,0.2-0.1c0.2,0,0.3,0,0.5,0C233.8,141.1,234,141,234.2,141.2z"/>
			<path class="st66" d="M234,140.2c-0.1,0.2-0.1,0.4-0.2,0.6c-0.1,0.1-0.1,0.1-0.2,0.1h-0.1c-0.1,0-0.1-0.1-0.2-0.2
				c-0.1-0.2-0.2-0.4-0.1-0.7c0.1-0.2,0.4-0.3,0.6-0.2C233.9,140,233.9,140.1,234,140.2z"/>
			<path class="st67" d="M233.6,140.8c0.1,0,0.1,0,0.2,0c0.1,0.1,0.3,0.3,0.4,0.4c-0.3-0.1-0.3,0.4-0.6,0.2
				c-0.1-0.1-0.1-0.1-0.1-0.2C233.4,141,233.5,140.9,233.6,140.8z"/>
			<path class="st68" d="M234.4,139.8c0.1,0.1,0.1,0.1,0.2,0.2c-0.1,0.2-0.2,0.2-0.4,0.2c0-0.1,0-0.1,0-0.2c0-0.1-0.1-0.1,0-0.2
				C234.3,139.7,234.3,139.7,234.4,139.8z"/>
			<path class="st69" d="M234.6,141.8c0,0.1,0,0.1,0,0.2c-0.1,0-0.1,0-0.2,0c-0.1-0.1,0-0.1,0-0.2
				C234.5,141.8,234.5,141.8,234.6,141.8z"/>
			<path class="st70" d="M234.4,141.8c0,0.1,0,0.1,0,0.2c0,0-0.1,0-0.1,0.1c-0.1,0-0.1,0-0.2-0.1c0-0.1,0-0.1,0.1-0.2l0,0
				C234.3,141.8,234.3,141.8,234.4,141.8z"/>
			<path class="st71" d="M234,140.2c-0.1-0.1-0.1-0.1-0.2-0.2l0.1-0.1h0.1l0.1,0.1C234,140.1,234,140.1,234,140.2z"/>
			<path class="st72" d="M234.2,139.8c0,0.1,0,0.1,0,0.2h-0.1H234l0,0c0-0.1,0-0.2,0.1-0.2H234.2z"/>
			<path class="st73" d="M234,146.2c0,0.3,0,0.7,0.2,1c-0.1,0.1-0.3,0.1-0.4,0.2c-0.3-0.1-0.6-0.1-0.8-0.4c0-0.1-0.1-0.2,0-0.3
				c0.1-0.3,0.2-0.5,0.5-0.7C233.7,146,233.8,146,234,146.2z"/>
			<path class="st74" d="M233,147c0.3,0,0.7-0.1,0.8,0.4c0,0.1,0,0.1,0,0.2c-0.3-0.1-0.7-0.1-1-0.2c-0.2,0.1-0.2,0-0.3-0.2
				C232.6,147,232.8,147,233,147z"/>
			<path class="st74" d="M233.8,140c-0.2,0-0.5,0-0.6,0.2c-0.5,0-0.6,0-0.5-0.8c0.1-0.2,0.3-0.1,0.5-0.2c0.3-0.2,0.4,0.2,0.6,0.2
				c0,0.1,0,0.1,0,0.2C233.9,139.7,233.9,139.9,233.8,140L233.8,140z"/>
			<path class="st75" d="M232.2,138.8c0.1,0,0.1,0,0.2,0c0.1,0.1,0.2,0.2,0.4,0.2c0,0.1,0,0.1,0,0.2c-0.1,0.1-0.1,0.1-0.2,0.1
				c-0.2,0-0.3,0-0.4-0.1C232.1,139.1,232.1,138.9,232.2,138.8z"/>
			<path class="st76" d="M232.6,139.2c0.1,0,0.1,0,0.2,0s0.3,0,0.4,0c-0.1,0.1-0.3,0.1-0.4,0.2c-0.1,0-0.1,0-0.2,0
				C232.5,139.3,232.5,139.3,232.6,139.2z"/>
			<path class="st77" d="M234,146.2c-0.2,0-0.4,0-0.6,0c-0.2,0.1-0.3,0.3-0.6,0.3c-0.2-0.1-0.3-0.2-0.3-0.4c0-0.3,0.2-0.4,0.4-0.6
				c0.2-0.1,0.5-0.2,0.7-0.3c0.2,0,0.3,0.1,0.3,0.2c0.1,0.2,0.1,0.4,0,0.7C234,146.1,234,146.1,234,146.2z"/>
			<path class="st78" d="M234,146c-0.2-0.2-0.2-0.4-0.2-0.6c0.1-0.1,0.2-0.2,0.4-0.2c0.2,0,0.3,0.1,0.4,0.2c0.1,0.1,0.1,0.1,0.2,0.2
				c-0.1,0.2-0.1,0.4-0.2,0.6C234.4,146.1,234.2,146.1,234,146z"/>
			<path class="st79" d="M234.4,139.8c-0.1,0-0.1,0-0.2,0l0,0c-0.1,0-0.1-0.1-0.1-0.1s0-0.1,0.1-0.1c0.1-0.2,0.2-0.3,0.4-0.4
				c0,0.1,0,0.1,0,0.2c0,0.1,0,0.1,0,0.2C234.5,139.7,234.5,139.7,234.4,139.8z"/>
			<path class="st80" d="M234.2,139.6c0,0.1,0,0.1,0,0.2c-0.1,0.1-0.1,0.1-0.2,0.2c-0.1,0-0.2,0-0.2,0c0-0.1,0-0.3,0-0.4
				C233.9,139.6,234.1,139.6,234.2,139.6z"/>
			<path class="st81" d="M234,142.6c0,0.1,0,0.3,0,0.4c-0.2,0.2,0.2,0.4,0.1,0.6c-0.1,0.2-0.3,0.3-0.5,0.3c-0.4-0.1-0.4-0.5-0.8-0.6
				c-0.1-0.1-0.2-0.2-0.3-0.3c0-0.1,0-0.3,0-0.4c0.2-0.2,0.4-0.3,0.6-0.5c0.1,0,0.2,0,0.2,0c0.1,0,0.2,0,0.2,0.1
				c0.1,0.1,0.2,0.1,0.3,0.2C233.9,142.5,234,142.5,234,142.6z"/>
			<path class="st82" d="M234,143.6c-0.1-0.2-0.3-0.4,0-0.6c0.1,0.4,0.6,0.3,0.8,0.6c-0.1,0-0.1,0-0.2,0
				C234.4,143.9,234.2,144.1,234,143.6z"/>
			<path class="st83" d="M234.8,142.4c0,0.1,0,0.1,0,0.2c0,0.1,0,0.3,0,0.4c-0.2-0.1-0.2-0.2-0.2-0.4c-0.1,0-0.1-0.1-0.1-0.1
				c0-0.1,0-0.1,0-0.1C234.7,142.3,234.7,142.3,234.8,142.4L234.8,142.4z"/>
			<path class="st84" d="M234,142.6c-0.1,0-0.1,0-0.2,0c-0.1-0.1-0.1-0.1-0.1-0.2c0-0.1,0-0.1,0.1-0.1s0.2-0.1,0.3,0l0.1,0.1
				C234.1,142.5,234.1,142.5,234,142.6z"/>
			<path class="st85" d="M234.6,142.4c0,0.1,0,0.1,0,0.2c-0.1-0.1-0.1-0.1-0.2-0.2C234.4,142.4,234.5,142.4,234.6,142.4
				C234.5,142.4,234.6,142.4,234.6,142.4z"/>
			<path class="st70" d="M234.4,142.4c-0.1,0-0.1,0-0.2,0l0,0c0-0.1,0-0.2,0.1-0.2h0.1C234.5,142.2,234.5,142.3,234.4,142.4
				L234.4,142.4L234.4,142.4z"/>
			<path class="st86" d="M224.4,139.8c-0.1-0.3-0.1-0.5-0.2-0.8c0.3-0.2,0.5-0.4,0.8-0.6c0.1,0.1,0.1,0.1,0.2,0.2
				c0.2,0.2,0.5,0,0.8,0.1c0.1,0.1,0.1,0.2,0,0.2C225.4,139.1,224.9,139.5,224.4,139.8z"/>
			<path class="st87" d="M226,139c0-0.1,0-0.1,0-0.2c0.1-0.2,0.3-0.2,0.4-0.2c0.2,0.3,0.6-0.1,0.8,0.2c0.1,0.3-0.1,0.5-0.3,0.7
				c-0.1,0-0.2,0-0.3-0.1C226.3,139.4,226.2,139.1,226,139z"/>
			<path class="st88" d="M226.8,139.4c0.1-0.2,0.3-0.4,0.4-0.6c0.1,0,0.1,0,0.2,0c0,0.1,0,0.1,0,0.2c0.3,0.2,0.5,0.4,0.3,0.8
				c-0.1,0.1-0.2,0.1-0.3,0.2C227,140,226.7,139.9,226.8,139.4z"/>
			<path class="st89" d="M226.4,138.6c-0.1,0.2-0.2,0.2-0.4,0.2c-0.3,0-0.6,0.1-0.8-0.2c0.4-0.1,0.8-0.1,1.2-0.2
				C226.4,138.5,226.4,138.5,226.4,138.6z"/>
			<path class="st90" d="M234,143.6c0.2,0.3,0.4,0.1,0.6,0c0,0.1,0,0.1,0,0.2c0,0.2,0,0.4,0,0.6c-0.1,0-0.1,0-0.2,0
				c-0.1,0.4-0.4,0.5-0.8,0.5c-0.3-0.1-0.6,0.1-0.9-0.1c-0.1-0.7,0.4-0.8,0.9-1C233.7,143.7,233.9,143.7,234,143.6z"/>
			<path class="st91" d="M233.6,144.8c0.3-0.1,0.5-0.3,0.8-0.4c0.1,0.3,0.2,0.5,0.2,0.8l0,0c-0.1,0.1-0.3,0.1-0.4,0.2
				c-0.1,0-0.3,0-0.4,0c-0.1-0.1-0.1-0.1-0.2-0.2l-0.1-0.1C233.5,145,233.5,144.9,233.6,144.8z"/>
			<path class="st92" d="M231.4,138.4c0.2,0,0.4,0,0.6,0c0,0.1,0,0.3,0,0.4c-0.1,0.2-0.2,0.3-0.5,0.3c-0.2,0-0.3,0-0.4-0.1
				s-0.1-0.3,0.1-0.4l0,0C231.3,138.5,231.3,138.5,231.4,138.4L231.4,138.4z"/>
			<path class="st93" d="M231.6,139c0.1-0.1,0.3-0.1,0.4-0.2c0.1,0,0.1,0,0.2,0c0,0.1,0,0.3,0,0.4c0,0,0,0.1-0.1,0.1
				c-0.2,0.2-0.4,0.3-0.6,0.1C231.5,139.2,231.5,139.1,231.6,139z"/>
			<path class="st94" d="M229.8,139.6c0.2-0.1,0.4-0.3,0.6-0.4c0-0.1,0-0.1,0-0.2c0.1,0,0.1,0,0.2,0c0.3,0.1,0.4,0.3,0.3,0.6
				c0,0.1-0.1,0.2-0.2,0.2c-0.2,0.1-0.4,0.2-0.7,0.3c-0.3,0-0.7,0-0.4-0.5C229.7,139.6,229.7,139.6,229.8,139.6z"/>
			<path class="st95" d="M230.8,139.6c-0.1-0.2-0.1-0.4-0.2-0.6c0.1-0.2,0.3-0.4,0.4-0.6c0.1,0.1,0.1,0.1,0.2,0.2c0,0.1,0,0.3,0,0.4
				C231.2,139.3,231.3,139.7,230.8,139.6z"/>
			<path class="st96" d="M234.4,142.4c0-0.1,0-0.1,0-0.2c0.1-0.1,0.1-0.1,0.2,0s0.1,0.1,0.2,0.2c-0.1,0-0.1,0-0.2,0
				S234.5,142.4,234.4,142.4z"/>
			<path class="st70" d="M234.6,142.2L234.6,142.2c-0.1,0-0.2,0-0.2,0l0,0c-0.1,0-0.1-0.1-0.1-0.1s0-0.1,0.1-0.1l0,0
				c0.1,0,0.1,0,0.2,0C234.6,142.1,234.6,142.1,234.6,142.2z"/>
			<path class="st97" d="M234.2,145.4c0.1-0.1,0.3-0.1,0.4-0.2c0,0.1,0,0.1,0,0.2C234.5,145.4,234.3,145.4,234.2,145.4z"/>
			<path class="st98" d="M231.4,138.4c-0.1,0.1-0.1,0.1-0.2,0.2C231.3,138.5,231.3,138.5,231.4,138.4z"/>
			<path class="st99" d="M230.4,147.8c0,0.1,0,0.1,0,0.2c-0.5-0.2-0.8-0.6-1-1c0.2-0.3,0.5-0.4,0.8-0.6c0.3-0.1,0.6-0.5,0.9-0.1
				c0,0.1,0,0.2,0,0.3s-0.1,0.2-0.1,0.2c0,0.3-0.2,0.5-0.5,0.6C230.3,147.5,230.2,147.6,230.4,147.8z"/>
			<path class="st100" d="M232.6,147.2c0.1,0.1,0.1,0.1,0.2,0.2c-0.5,0.1-1.2,0.8-1.2-0.4c0.2-0.1,0.4-0.1,0.6-0.1
				C232.4,146.9,232.7,146.8,232.6,147.2z"/>
			<path class="st101" d="M232.2,147c-0.2,0.1-0.4,0.1-0.6,0c-0.1-0.1-0.3-0.1-0.4-0.2c-0.1-0.1-0.1-0.1-0.1-0.2
				c0-0.1,0.1-0.2,0.1-0.4c0-0.1,0.1-0.2,0.1-0.2c0.1-0.1,0.2-0.1,0.4,0C231.9,146.3,232.3,146.5,232.2,147z"/>
			<path class="st102" d="M231.2,146.6c0,0.1,0,0.1,0,0.2h-0.1H231c0-0.1,0-0.1,0-0.2C231.1,146.5,231.1,146.5,231.2,146.6z"/>
			<path class="st103" d="M225.6,140.6c0-0.1,0-0.1,0-0.2c0.1-0.2,0.1-0.5,0.4-0.6c0.1,0,0.3,0,0.4,0c0.4-0.1,0.5,0.1,0.7,0.4
				c0,0.1,0,0.2,0,0.3c-0.1,0.2-0.3,0.3-0.6,0.2c-0.2-0.3-0.4,0.2-0.6,0C225.7,140.7,225.7,140.7,225.6,140.6z"/>
			<path class="st104" d="M227,140.2c-0.2-0.1-0.4-0.3-0.6-0.4c0.1-0.1,0.1-0.3,0.2-0.4c0.1,0,0.1,0,0.2,0c0.1,0.3,0.3,0.4,0.6,0.4
				c0.1,0.1,0.1,0.1,0.1,0.2C227.4,140.2,227.2,140.3,227,140.2z"/>
			<path class="st105" d="M226,139.8c-0.1,0.2-0.3,0.4-0.4,0.6c-0.1-0.1-0.3-0.3-0.4-0.4C225.4,139.7,225.7,139.8,226,139.8z"/>
			<path class="st106" d="M224.6,143.2c0-0.1,0-0.1,0-0.2c0.4-0.2,0.7-0.6,1.2-0.2c-0.1,0.4-0.3,0.7-0.5,1c-0.3,0.1-0.5,0.1-0.7-0.2
				C224.6,143.5,224.6,143.3,224.6,143.2z"/>
			<path class="st107" d="M226.4,142.4c-0.4-0.2-0.7-0.5-0.8-1c0-0.2,0.1-0.3,0.3-0.4c0.2-0.1,0.4-0.2,0.6-0.3
				c0.2,0.1,0.3,0.2,0.3,0.4C226.7,141.5,226.5,141.9,226.4,142.4C226.4,142.3,226.4,142.4,226.4,142.4z"/>
			<path class="st108" d="M225.4,143.6c-0.4-0.5,0.3-0.5,0.4-0.8c0.1,0,0.3,0,0.4,0c0.1,0.1,0.1,0.1,0.2,0.2c0,0.1,0,0.2,0,0.3
				c-0.1,0.2-0.2,0.4-0.4,0.4C225.7,143.8,225.5,143.8,225.4,143.6z"/>
			<path class="st109" d="M226,141.2c-0.1,0.1-0.3,0.2-0.4,0.2s-0.1,0-0.2,0l0,0c-0.2-0.3-0.2-0.5,0-0.8c0.1,0,0.1,0,0.2,0
				s0.1,0,0.2,0C226,140.7,226.2,140.9,226,141.2z"/>
			<path class="st110" d="M226.4,142.6c0-0.1,0-0.1,0-0.2l0,0c0.1-0.2,0.2-0.5,0.5-0.5s0.5,0.2,0.4,0.5c-0.2,0.3-0.4,0.4-0.8,0.3
				C226.5,142.7,226.4,142.6,226.4,142.6z"/>
			<path class="st111" d="M224.2,142.6c0.1-0.3,0.2-0.5,0.6-0.4C224.8,142.6,224.5,142.6,224.2,142.6z"/>
			<path class="st112" d="M226.2,143c0-0.1,0-0.1,0-0.2c0.1-0.1,0.1-0.1,0.2-0.2l0,0c0.1,0.1,0.1,0.1,0.1,0.2v0.1c0,0,0,0.1-0.1,0.1
				C226.3,143.1,226.3,143.1,226.2,143z"/>
			<path class="st113" d="M226.8,147.6c-0.2-0.1-0.4-0.3-0.6-0.4c-0.1,0.1-0.2,0-0.3,0c-0.1-0.1-0.1-0.3,0-0.4
				c0.1-0.2,0.3-0.3,0.5-0.3s0.3,0,0.4,0.1c0.2,0.2,0.6,0.4,0.3,0.9C227,147.5,227,147.5,226.8,147.6
				C226.9,147.5,226.9,147.5,226.8,147.6L226.8,147.6z"/>
			<path class="st114" d="M227.2,147.4c-0.1-0.3-0.2-0.5-0.4-0.8c0.1-0.1,0.2-0.2,0.4-0.2c0.1,0,0.2,0.1,0.3,0.1
				c0.2,0.3,0.4,0.5,0.1,0.8C227.5,147.6,227.3,147.6,227.2,147.4z"/>
			<path class="st115" d="M227.6,147.4c-0.1-0.3-0.2-0.5-0.2-0.8c0.1-0.2,0.3-0.2,0.5-0.2s0.3,0.1,0.4,0.2c0,0.1,0,0.2,0,0.3
				c-0.1,0.2-0.2,0.3-0.4,0.4h-0.1C227.7,147.4,227.7,147.4,227.6,147.4z"/>
			<path class="st116" d="M228.6,147.4c0,0.1,0,0.1,0,0.2c-0.3,0-0.6,0.1-0.8-0.2l0,0c0.1-0.1,0.2-0.2,0.3-0.2c0.1,0,0.2,0,0.3,0
				c0,0,0.1,0,0.1,0.1L228.6,147.4z"/>
			<path class="st117" d="M226.8,147.6c0.1-0.1,0.1-0.1,0.2-0.2C226.9,147.5,226.9,147.5,226.8,147.6z"/>
			<path class="st118" d="M225.4,140.6c0,0.3,0,0.5,0,0.8c-0.2-0.1-0.2-0.2-0.2-0.4c-0.1-0.2-0.2-0.2-0.4-0.2
				C225,140.6,225.2,140.6,225.4,140.6z"/>
			<path class="st119" d="M226,147.2c0.1,0,0.1,0,0.2,0c-0.1,0.1-0.3,0.3-0.4,0.4c-0.4,0-0.6-0.2-0.6-0.6l0,0
				C225.5,146.7,225.8,147,226,147.2z"/>
			<path class="st120" d="M230.2,146.4c0,0.5-0.4,0.6-0.8,0.6c-0.1,0-0.1,0-0.2,0l-0.1-0.1c-0.1-0.2,0-0.3,0.2-0.5
				c0.2-0.1,0.5-0.2,0.8-0.1C230.1,146.3,230.2,146.4,230.2,146.4z"/>
			<path class="st121" d="M229,147.4c-0.1,0-0.1,0-0.2,0c-0.1-0.1-0.1-0.2-0.1-0.4c0.1-0.1,0.1-0.1,0.2-0.1s0.2,0,0.2,0.1l0,0
				C229.1,147.1,229.1,147.3,229,147.4z"/>
			<path class="st122" d="M228.8,147c0,0.1,0,0.3,0,0.4c-0.1,0-0.1,0-0.2,0l0,0c-0.1-0.1-0.2-0.1-0.3-0.2c0-0.2,0.1-0.3,0.3-0.4
				c0.1,0,0.2,0,0.2,0C228.9,146.9,228.9,146.9,228.8,147z"/>
			<path class="st50" d="M225.2,146.6c-0.3,0-0.5-0.1-0.6-0.4c0.6-0.1-0.1-0.3,0-0.4c0.1-0.1,0.1-0.3,0.2-0.4
				c0.1-0.1,0.3-0.1,0.4-0.2c0.1,0,0.2,0.1,0.2,0.2c0.2,0.3,0.5,0.5,0.7,0.8c0,0.2-0.1,0.3-0.2,0.3
				C225.6,146.7,225.4,146.5,225.2,146.6z"/>
			<path class="st123" d="M225.2,145.4c0-0.1,0-0.1,0-0.2c0-0.1,0-0.1,0-0.2c0.3-0.5,0.7-0.5,1.2-0.3c0.1,0.1,0.2,0.3,0.2,0.4
				c0,0.1,0,0.2-0.1,0.3C226.1,146,225.6,145.4,225.2,145.4z"/>
			<path class="st124" d="M226.4,144.8c-0.4,0-0.8,0-1.2,0.2c-0.1-0.1-0.1-0.3-0.2-0.4c0.1-0.2,0.3-0.3,0.5-0.4
				c0.3-0.1,0.6-0.3,0.9-0.2c0.2,0.1,0.3,0.3,0.3,0.4c0,0.1,0,0.3-0.1,0.4C226.6,144.8,226.5,144.8,226.4,144.8z"/>
			<path class="st125" d="M225.6,144.4c-0.2,0.1-0.4,0.1-0.6,0.2c-0.3-0.1-0.5-0.3-0.8-0.4c0-0.1,0-0.1,0-0.2c0.3-0.2,0.7-0.1,1.1,0
				C225.5,144,225.7,144.1,225.6,144.4z"/>
			<path class="st126" d="M225.2,146.6c0.2-0.2,0.4-0.2,0.6-0.2c0.1,0.1,0.2,0.2,0.2,0.4c0,0.1,0,0.2,0,0.4
				c-0.3-0.1-0.5-0.1-0.8-0.2c0-0.1,0-0.1,0-0.2C225.2,146.8,225.2,146.7,225.2,146.6C225.3,146.6,225.2,146.6,225.2,146.6z"/>
			<path class="st60" d="M225.6,144.4c-0.1-0.2-0.2-0.2-0.4-0.2c-0.2-0.3-0.6-0.2-0.8-0.4c0.1-0.1,0.1-0.1,0.2-0.2
				c0.3,0,0.5,0,0.8,0c0.2,0,0.4,0,0.6,0c0.1,0.1,0.3,0,0.4,0.2c0,0.1,0,0.2,0,0.2C226.1,144.1,225.9,144.4,225.6,144.4z"/>
			<path class="st127" d="M224.4,143.8c0.3,0,0.7-0.1,0.8,0.4c-0.3-0.1-0.7-0.1-1-0.2C224.3,143.9,224.3,143.9,224.4,143.8z"/>
			<path class="st128" d="M227.6,139.8c0-0.3-0.1-0.5-0.2-0.8c0.3,0,0.5,0.3,0.8,0.4c0.1,0.2,0,0.4-0.2,0.5
				C227.8,139.9,227.7,139.9,227.6,139.8z"/>
			<path class="st129" d="M228,139.8c0.1-0.1,0.1-0.3,0.2-0.4c0.1-0.2,0.3,0,0.4,0l0,0c0.2,0.3,0.1,0.5-0.1,0.7
				c-0.1,0.1-0.2,0.1-0.3,0.1C228,140.1,227.9,140,228,139.8z"/>
			<path class="st130" d="M229.6,139.6c0,0.3,0.2,0.3,0.4,0.2c0.2,0.3,0.1,0.5-0.1,0.7c-0.4,0.1-0.7,0-1-0.2
				c-0.2-0.4,0.1-0.5,0.4-0.7C229.3,139.6,229.5,139.6,229.6,139.6z"/>
			<path class="st131" d="M229.2,139.6c-0.1,0.2-0.3,0.4-0.4,0.6c0.1,0,0.1,0.1,0.1,0.2c0,0.1,0,0.1,0,0.1c-0.2,0.1-0.3,0-0.5-0.2
				c0-0.1,0-0.2,0-0.2c0.1-0.2,0.1-0.4,0.2-0.6C228.8,139.5,229,139.5,229.2,139.6z"/>
			<path class="st132" d="M233,141.2c0,0.1,0,0.1,0,0.2c-0.1,0.2-0.1,0.5-0.4,0.6c-0.2,0-0.3,0-0.4-0.1c-0.2-0.2-0.3-0.5-0.3-0.8
				c0.1-0.2,0.2-0.4,0.4-0.5c0.1,0,0.2-0.1,0.3,0c0.2,0.1,0.4,0.2,0.5,0.4C233.1,141.1,233.1,141.1,233,141.2z"/>
			<path class="st133" d="M232.6,141.8c0.1-0.1,0.3-0.3,0.4-0.4c0,0.3,0.1,0.5,0.4,0.6c0,0,0.1,0.1,0,0.1v0.1
				c-0.2,0.2-0.4,0.5-0.8,0.4c-0.2,0.1-0.3,0-0.3-0.2C232.2,142.1,232.4,142,232.6,141.8z"/>
			<path class="st134" d="M233.4,142.2c0-0.1,0-0.1,0-0.2c0.2-0.1,0.4-0.1,0.6-0.2l0.1,0.1v0.1c0,0.1-0.1,0.1-0.1,0.2
				c0,0-0.1,0-0.1,0.1c-0.1,0-0.2,0-0.2,0C233.5,142.3,233.5,142.3,233.4,142.2L233.4,142.2z"/>
			<path class="st135" d="M233.6,141.2c0,0.1,0,0.1,0,0.2c-0.2,0-0.3,0-0.4-0.2c-0.1-0.1-0.1-0.2-0.1-0.4c0.1-0.1,0.2-0.1,0.2,0l0,0
				C233.5,140.9,233.5,141.1,233.6,141.2z"/>
			<path class="st136" d="M233.2,140.8c0,0.1,0,0.3,0,0.4c-0.1,0-0.1,0-0.2,0c0-0.1,0-0.1,0-0.2C232.9,140.8,233,140.8,233.2,140.8z
				"/>
			<path class="st137" d="M234,142c0-0.1,0-0.1,0-0.2c0.1,0,0.1,0,0.2,0c0,0.1,0,0.1,0,0.2C234.1,142.1,234.1,142,234,142z"/>
			<path class="st138" d="M233.2,140.8c-0.1,0.1-0.1,0.1-0.2,0.2c-0.1-0.1-0.3-0.3-0.4-0.4c-0.1-0.1-0.2-0.3-0.3-0.5
				c0-0.2,0-0.4,0.1-0.6l0.1-0.1c0.1,0,0.1,0,0.2,0c0.3,0.2-0.1,0.7,0.4,0.8c0.2,0.2,0.2,0.4,0.2,0.6
				C233.3,140.8,233.3,140.8,233.2,140.8z"/>
			<path class="st139" d="M233.6,141.2c-0.1-0.1-0.1-0.3-0.2-0.4c0.1,0,0.1,0,0.2,0C233.6,140.9,233.6,141.1,233.6,141.2z"/>
			<path class="st140" d="M234,142c0.1,0,0.1,0,0.2,0s0.1,0,0.2,0c0,0.1,0,0.1,0,0.2c-0.1,0.1-0.1,0.1-0.2,0.2c-0.1,0-0.3,0-0.4,0
				s-0.1-0.1-0.1-0.1s0-0.1,0.1-0.1l0,0C233.9,142.1,233.9,142.1,234,142L234,142z"/>
			<path class="st141" d="M232.2,147c-0.1-0.4-0.7-0.5-0.6-1c-0.1-0.2,0-0.4,0.2-0.5c0.4,0,0.7,0.1,0.8,0.5c0.1,0.1,0.1,0.3,0.2,0.4
				c0.2,0.1,0.3,0.2,0.2,0.4c0,0.1,0,0.1,0,0.2c-0.1,0.1-0.3,0.1-0.4,0.2C232.5,147.1,232.3,147.1,232.2,147z"/>
			<path class="st142" d="M233,146.8c-0.1-0.1-0.1-0.3-0.2-0.4c0.3,0.1,0.2-0.8,0.6-0.2C233.4,146.5,233.3,146.7,233,146.8z"/>
			<path class="st143" d="M232.6,139.2c0,0.1,0,0.1,0,0.2l0,0c-0.2,0.1-0.4,0.1-0.4-0.2l0,0C232.3,139.2,232.5,139.2,232.6,139.2z"
				/>
			<path class="st144" d="M232.6,146c-0.3-0.1-0.5-0.3-0.8-0.4c-0.2-0.1-0.3-0.3-0.3-0.6s0.2-0.4,0.5-0.5c0.3,0,0.5,0.1,0.7,0.3
				c0.1,0.1,0.1,0.1,0.2,0.2c0.2,0.2,0.3,0.4,0.1,0.6C232.9,145.7,232.7,145.9,232.6,146z"/>
			<path class="st145" d="M233,145.6c-0.1-0.2-0.1-0.4-0.2-0.6c0.3-0.1,0.6,0,0.8,0.2l0,0C233.6,145.6,233.3,145.6,233,145.6z"/>
			<path class="st146" d="M233.6,143.8c-0.2,0.4-0.8,0.4-0.8,1c-0.1,0.1-0.2,0.1-0.3,0c-0.2-0.3-0.2-0.7-0.3-1
				c0.1-0.3,0.1-0.6,0.5-0.6C233.6,142.7,233.3,143.6,233.6,143.8z"/>
			<path class="st147" d="M232.8,143.2c-0.1,0.2-0.3,0.4-0.4,0.6c-0.1,0.1-0.1,0.1-0.2,0.2c-0.3,0-0.5-0.1-0.7-0.2
				c-0.1-0.1-0.2-0.3-0.2-0.5s0.1-0.4,0.3-0.5c0.1-0.1,0.3-0.1,0.4-0.1c0.2,0,0.4,0.2,0.6,0.4C232.7,143.1,232.7,143.1,232.8,143.2z
				"/>
			<path class="st148" d="M232.6,143c-0.2,0-0.5,0-0.6-0.2c-0.1-0.1-0.1-0.1-0.1-0.2c0.1-0.1,0.1-0.2,0.3-0.3c0.1,0,0.2,0,0.2,0.1
				c0.1,0.1,0.1,0.1,0.2,0.2C232.6,142.7,232.6,142.9,232.6,143z"/>
			<path class="st149" d="M233.8,142.2c0,0.1,0,0.1,0,0.2c0,0.1,0,0.1,0,0.2c-0.1-0.1-0.1-0.1-0.2-0.2c-0.1,0-0.1-0.1-0.1-0.1
				s0-0.1,0.1-0.1C233.7,142.2,233.7,142.2,233.8,142.2z"/>
			<path class="st150" d="M233.6,142.2c0,0.1,0,0.1,0,0.2c-0.1-0.1-0.1-0.1-0.2-0.2C233.5,142.2,233.5,142.2,233.6,142.2z"/>
			<path class="st151" d="M228,139.8c0.1,0.1,0.1,0.1,0.2,0.2c0.2,0.3,0.1,0.5-0.1,0.6s-0.4,0-0.5-0.1s-0.2-0.3-0.2-0.5
				c0-0.1,0-0.1,0-0.2c0.1,0,0.1,0,0.2,0S227.9,139.8,228,139.8z"/>
			<path class="st152" d="M232.6,144.8c0.1,0,0.1,0,0.2,0c0.3,0,0.5-0.4,0.8,0c0,0.1,0,0.3,0,0.4c-0.3,0-0.5-0.1-0.8-0.2
				c-0.1,0-0.1,0-0.2,0S232.5,144.9,232.6,144.8L232.6,144.8z"/>
			<path class="st153" d="M230.8,139.6c0.1-0.2,0.3-0.4,0.4-0.6c0.1,0,0.3,0,0.4,0c0,0.1,0,0.3,0,0.4c0.1,0.1,0.1,0.1,0.1,0.2
				c-0.1,0.3-0.3,0.4-0.5,0.6c-0.1,0-0.2,0.1-0.3,0.1c-0.2,0-0.3-0.1-0.4-0.3c0-0.1,0-0.3,0.1-0.4
				C230.7,139.6,230.7,139.6,230.8,139.6z"/>
			<path class="st154" d="M231.6,139.6c0-0.1,0-0.2,0-0.2c0.2-0.1,0.4-0.1,0.6-0.2c0.1,0.2,0.2,0.2,0.4,0.2c0,0.2,0,0.4,0,0.6
				c-0.2,0.2-0.2,0.4-0.5,0.6c-0.3,0.1-0.6,0.1-0.8-0.2C231.2,140,231.5,139.8,231.6,139.6z"/>
			<path class="st155" d="M230.6,139.6c0,0.1,0,0.3,0,0.4c0,0.4-0.2,0.6-0.5,0.7c-0.1,0-0.2,0-0.3,0c-0.1-0.1-0.1-0.2,0-0.2
				c0.1-0.2,0.1-0.4,0.2-0.6C230.2,139.7,230.4,139.7,230.6,139.6z"/>
			<path class="st156" d="M231.6,145c0.1,0.2,0.1,0.4,0.2,0.6c-0.1,0.1-0.1,0.3-0.2,0.4c-0.1,0.1-0.1,0.1-0.2,0.2
				c-0.1,0.1-0.1,0.2-0.2,0.3c-0.1,0-0.1,0-0.2,0c-0.3-0.4-0.5,0.3-0.8,0l0,0c-0.1-0.2-0.2-0.4-0.1-0.7c0-0.1,0.1-0.2,0.1-0.2
				c0.4-0.2,0.7-0.4,1-0.6C231.4,144.9,231.5,144.9,231.6,145z"/>
			<path class="st157" d="M231,146.4c0.1,0,0.1,0,0.2,0c0.1-0.1,0.1-0.1,0.2,0c-0.1,0.1-0.1,0.1-0.2,0.2c-0.1,0-0.1,0-0.2,0
				C231,146.5,231,146.5,231,146.4z"/>
			<path class="st158" d="M231.4,146.4c-0.1,0-0.1,0-0.2,0c0.1-0.1,0.1-0.1,0.2-0.2C231.4,146.3,231.4,146.3,231.4,146.4z"/>
			<path class="st159" d="M226.6,141.2c-0.1-0.1-0.1-0.3-0.2-0.4c0,0-0.1-0.1,0-0.1v-0.1c0.2-0.1,0.4-0.1,0.6-0.2
				c0.1,0,0.2,0.1,0.3,0.2c0,0.1,0,0.2,0,0.3c-0.1,0.2-0.2,0.3-0.4,0.4C226.8,141.3,226.7,141.3,226.6,141.2z"/>
			<path class="st160" d="M226.4,140.6c0,0.1,0,0.1,0,0.2c-0.1,0.1-0.3,0.3-0.4,0.4c-0.1-0.2-0.1-0.4-0.2-0.6
				C226,140.8,226.2,140.1,226.4,140.6z"/>
			<path class="st161" d="M227.2,140.6c-0.1-0.1-0.1-0.1-0.2-0.2c0-0.1,0-0.1,0-0.2c0.1-0.1,0.3-0.1,0.4-0.2
				c0.1,0.1,0.1,0.3,0.2,0.4C227.6,140.7,227.4,140.7,227.2,140.6z"/>
			<path class="st162" d="M226.6,141.2c0.1,0,0.3,0,0.4,0c0.1,0.1,0.1,0.1,0.1,0.2c0,0.1,0,0.2,0,0.2c-0.1,0.1-0.2,0.2-0.3,0.4
				c-0.1,0.1-0.3,0.3-0.4,0.4C226.2,142,226.1,141.5,226.6,141.2z"/>
			<path class="st163" d="M226.4,143.8c-0.1-0.1-0.3-0.2-0.4-0.2c0.1-0.1,0.1-0.3,0.2-0.4c0.1-0.1,0.2-0.1,0.3-0.1
				c0.4,0,0.5,0.2,0.6,0.5c0,0.2-0.1,0.3-0.3,0.3C226.7,144,226.5,143.9,226.4,143.8z"/>
			<path class="st164" d="M226.4,143.2c-0.1,0-0.1,0-0.2,0c0-0.1,0-0.1,0-0.2c0.1,0,0.1,0,0.2,0S226.5,143.1,226.4,143.2
				L226.4,143.2z"/>
			<path class="st165" d="M226.8,142c-0.3-0.3-0.1-0.4,0.2-0.4c0.3-0.1,0.5,0,0.7,0.2c0.2,0.3,0.2,0.6,0.3,0.9c0,0.3,0,0.5-0.1,0.8
				c-0.1,0.1-0.2,0.1-0.3,0.1c-0.5-0.2-0.7-0.6-0.4-1.1C227.2,142.2,227.1,142,226.8,142z"/>
			<path class="st166" d="M227.2,142.4c-0.1,0.4,0.2,0.7,0.4,1c0.1,0.1,0.1,0.2,0,0.3c-0.2,0.1-0.4,0.1-0.6-0.1
				c-0.2-0.1-0.3-0.4-0.6-0.4c0-0.1,0-0.1,0-0.2l0,0c0.1,0,0.1-0.1,0.1-0.1s0-0.1-0.1-0.1c0-0.1,0-0.1,0-0.2
				C226.7,142.5,226.9,142.5,227.2,142.4z"/>
			<path class="st167" d="M226.4,142.8c0.1,0.1,0.2,0.1,0,0.2C226.4,142.9,226.4,142.9,226.4,142.8z"/>
			<path class="st92" d="M226,146.8c-0.1-0.1-0.2-0.2-0.2-0.4c0.1-0.1,0.1-0.1,0.2-0.2c0.1-0.1,0.1-0.1,0.2-0.1s0.2,0.1,0.3,0.2
				c0,0.1,0,0.2-0.1,0.2C226.3,146.7,226.1,146.7,226,146.8z"/>
			<path class="st168" d="M226.4,146.6c0-0.1,0-0.1,0-0.2c0.2-0.6,0.5-0.3,0.8-0.1c0.1,0.1,0.1,0.2,0,0.3c-0.1,0-0.3,0-0.4,0
				C226.7,146.6,226.5,146.6,226.4,146.6z"/>
			<path class="st169" d="M227.2,146.6c0-0.1,0-0.1,0-0.2c-0.1-0.1-0.1-0.2-0.1-0.3c0.1-0.2,0.2-0.2,0.4-0.2
				c0.4,0.1,0.8,0.2,0.5,0.7c-0.2,0-0.4,0-0.6,0C227.3,146.6,227.3,146.6,227.2,146.6z"/>
			<path class="st170" d="M228,146.6c0-0.4-0.5-0.4-0.6-0.6c0.1-0.2,0.2-0.3,0.4-0.3c0.2,0,0.4,0.1,0.5,0.2c0.1,0.1,0.2,0.2,0.2,0.3
				c0.1,0.2,0,0.4-0.1,0.5s-0.2,0.1-0.2,0C228.1,146.7,228.1,146.7,228,146.6z"/>
			<path class="st171" d="M228.2,146.8c0.1,0,0.1,0,0.2,0c0.1-0.1,0.1-0.1,0.2,0c-0.1,0.1-0.1,0.3-0.2,0.4c0.1,0,0.1,0.1,0.1,0.1
				v0.1c-0.1,0-0.1,0-0.2,0c-0.1-0.1-0.1-0.3,0-0.4C228.2,146.9,228.2,146.9,228.2,146.8z"/>
			<path class="st172" d="M228.2,147c0,0.1,0,0.3,0,0.4c-0.1,0-0.3,0-0.4,0C227.8,147.1,227.9,147,228.2,147z"/>
			<path class="st173" d="M228.4,147.4c0-0.1,0-0.1,0-0.2c0.1,0.1,0.1,0.1,0.2,0.2C228.5,147.4,228.5,147.4,228.4,147.4z"/>
			<path class="st174" d="M230.2,145.8c0.1,0.2,0.1,0.4,0,0.6c-0.3,0.1-0.5,0.1-0.8,0.2c-0.3-0.3-0.2-0.6-0.1-0.9
				c0.1-0.1,0.1-0.2,0.2-0.2C229.9,145.4,230.1,145.6,230.2,145.8z"/>
			<path class="st175" d="M229.6,145.8c-0.1,0.2-0.2,0.5-0.2,0.8c-0.2,0.1-0.2,0.2-0.2,0.4c-0.1,0-0.1,0-0.2,0
				c-0.1-0.1-0.1-0.2-0.1-0.3c-0.1-0.3-0.1-0.5,0-0.8C229.1,145.6,229.3,145.6,229.6,145.8z"/>
			<path class="st176" d="M229,146.8c0,0.1,0,0.1,0,0.2h-0.1h-0.1c0-0.1,0-0.1,0-0.2C228.9,146.7,228.9,146.7,229,146.8z"/>
			<path class="st177" d="M229,146.8c-0.1,0-0.1,0-0.2,0s-0.1,0-0.2,0s-0.1,0-0.2,0c0-0.2,0-0.4,0-0.6c-0.1-0.2-0.1-0.4,0.1-0.5
				c0.2,0,0.4,0.1,0.5,0.3C229,146.3,229,146.5,229,146.8z"/>
			<path class="st178" d="M226.2,146.2c-0.1,0-0.1,0-0.2,0c-0.4-0.1-0.8-0.3-0.8-0.8c0.4-0.2,0.8,0.3,1.2,0l0.1,0.1
				C226.6,145.8,226.4,146,226.2,146.2z"/>
			<path class="st179" d="M226.4,145.4c0-0.1,0-0.1,0-0.2c0.1-0.1,0.1-0.1,0.2-0.1s0.1,0.1,0.2,0.1c0,0.2-0.1,0.2-0.2,0.3
				C226.5,145.5,226.5,145.5,226.4,145.4L226.4,145.4z"/>
			<path class="st180" d="M226.6,145.2c-0.1,0-0.1,0-0.2,0c0-0.1,0-0.3,0-0.4c0.1,0,0.1,0,0.2,0l0.1,0.1
				C226.7,145,226.7,145.1,226.6,145.2z"/>
			<path class="st181" d="M226.6,144.8c0-0.1,0-0.3,0-0.4c0.1-0.2,0.2-0.3,0.4-0.3c0.1,0,0.2,0,0.3,0.1c0.2,0.2,0.3,0.5,0.3,0.8
				c0,0.1,0,0.2-0.1,0.3s-0.1,0.1-0.2,0.1c-0.2,0-0.3-0.1-0.5-0.2C226.7,145,226.7,144.9,226.6,144.8L226.6,144.8z"/>
			<path class="st182" d="M227.2,144.2c-0.2,0.1-0.4,0.1-0.6,0.2c-0.1-0.1-0.1-0.3-0.2-0.4c0-0.1,0-0.1,0-0.2c0.1,0,0.2,0,0.4,0
				c0.1,0.1,0.3,0,0.4,0.2C227.3,144.1,227.2,144.1,227.2,144.2z"/>
			<path class="st105" d="M228,140.6c0.1-0.2,0.1-0.4,0.2-0.6c0.1,0,0.1,0,0.2,0c0,0.1,0,0.1,0,0.2c0.2,0.3,0.4,0.6,0.3,1
				c-0.1,0.1-0.3,0.2-0.4,0.1c-0.2-0.1-0.3-0.2-0.3-0.3C227.9,140.9,227.9,140.7,228,140.6z"/>
			<path class="st183" d="M229.8,140.4c0,0.1,0,0.1,0,0.2c-0.1,0.2-0.3,0.3-0.6,0.3c-0.3-0.1-0.4-0.2-0.4-0.5c0-0.1,0-0.1,0-0.2
				C229.2,140.2,229.5,140.2,229.8,140.4z"/>
			<path class="st184" d="M228.8,140.4c0.1,0.1,0.3,0.3,0.4,0.4c0.2,0.1,0.6,0.1,0.7,0.4c0,0.1,0,0.2-0.1,0.3s-0.2,0.1-0.4,0.1
				c-0.3-0.1-0.7,0-0.8-0.4c-0.2-0.3-0.2-0.7-0.2-1C228.5,140.3,228.7,140.3,228.8,140.4z"/>
			<path class="st185" d="M231.4,140.2c0.2,0.3,0.5,0.2,0.8,0.2c0.1,0,0.2,0.1,0.2,0.2c0,0.3-0.1,0.4-0.4,0.4
				c-0.4,0.3-0.8,0.2-1.1-0.2c-0.1-0.2-0.1-0.4,0.1-0.6l0,0C231.1,140.1,231.3,140.1,231.4,140.2z"/>
			<path class="st186" d="M231,140.8c0.3,0.1,0.7,0.1,1,0.2c0.1,0.2,0.2,0.5,0.2,0.8c-0.1,0.1-0.2,0.1-0.3,0.1
				c-0.3-0.2-0.7-0.3-1-0.5c-0.1-0.1-0.2-0.1-0.2-0.2c-0.1-0.1,0-0.3,0-0.4C230.8,140.7,230.9,140.7,231,140.8z"/>
			<path class="st187" d="M232,141.8c0.1,0,0.1,0,0.2,0s0.3,0,0.4,0c-0.1,0.2-0.1,0.4-0.2,0.6c-0.1,0-0.1,0-0.2,0
				c-0.2-0.1-0.4-0.2-0.5-0.4C231.8,141.8,231.8,141.7,232,141.8z"/>
			<path class="st188" d="M232.4,140.6c-0.1-0.1-0.1-0.1-0.2-0.2c0-0.3,0.2-0.4,0.4-0.4c0,0.2,0,0.4,0,0.6
				C232.5,140.6,232.5,140.6,232.4,140.6z"/>
			<path class="st189" d="M234,142c-0.1,0.1-0.1,0.1-0.2,0.2C233.9,142.1,233.9,142.1,234,142z"/>
			<path class="st190" d="M231.6,145c-0.1,0-0.3,0-0.4,0c-0.2,0.1-0.4,0.2-0.6,0.1c-0.1-0.1-0.1-0.1-0.1-0.2c0-0.1,0-0.2,0-0.3
				s0.1-0.2,0.1-0.2c0.1-0.1,0.2-0.1,0.3-0.1c0.4,0,0.8-0.2,1.2,0.1c0,0.1,0,0.2,0,0.2C231.9,144.7,231.7,144.9,231.6,145z"/>
			<path class="st191" d="M232,144.6c0-0.1,0-0.1,0-0.2c-0.2-0.3,0-0.4,0.2-0.6c0.1,0,0.1,0,0.2,0c0.3,0.3,0.2,0.7,0.2,1
				c0,0.1,0,0.1,0,0.2C232.4,144.9,232.2,144.7,232,144.6z"/>
			<path class="st192" d="M232.2,143.8c-0.1,0.2-0.1,0.4-0.2,0.6c-0.4-0.1-0.8,0.2-1.2,0c-0.1-0.1,0-0.2,0-0.3
				c0.2-0.2,0.4-0.4,0.8-0.4C231.8,143.7,232,143.7,232.2,143.8z"/>
			<path class="st193" d="M231.6,143.6c-0.1,0.3-0.3,0.5-0.6,0.6c-0.2-0.1-0.4-0.3-0.4-0.6c0-0.2,0-0.3,0.1-0.4
				c0.1-0.1,0.3-0.1,0.4-0.1s0.2,0.1,0.2,0.2C231.5,143.3,231.5,143.5,231.6,143.6z"/>
			<path class="st194" d="M231.4,143.2c-0.1,0-0.1,0-0.2,0c-0.1-0.1-0.1-0.1-0.1-0.2c0-0.1,0-0.2,0.1-0.2s0.1-0.1,0.2-0.1h0.1
				l0.1,0.1C231.6,143,231.5,143.1,231.4,143.2z"/>
			<path class="st195" d="M232,142.6c0,0.1,0,0.1,0,0.2c-0.1,0-0.3,0-0.4,0l0,0l-0.1-0.1c0-0.1,0-0.1,0-0.1c0.1-0.1,0.1-0.1,0.2-0.1
				C231.9,142.5,231.9,142.5,232,142.6z"/>
			<path class="st196" d="M232,142.6L232,142.6h-0.2c-0.1-0.1-0.1-0.1-0.1-0.2c0-0.1,0-0.3,0.1-0.4c0.3,0,0.4,0.2,0.4,0.4
				C232.1,142.5,232.1,142.5,232,142.6z"/>
			<path class="st197" d="M228,140.6c0,0.1,0,0.3,0,0.4c-0.2,0.1-0.4,0.1-0.6,0c-0.1-0.1-0.1-0.1-0.2-0.2c0-0.1,0-0.1,0-0.2
				c0.1-0.1,0.3-0.1,0.4-0.2C227.7,140.5,227.9,140.5,228,140.6z"/>
			<path class="st198" d="M231,140.8c-0.1,0-0.1,0-0.2,0c-0.3,0.1-0.5,0.4-0.8,0.3c-0.3-0.2-0.2-0.4,0-0.5c0.2-0.2,0.4-0.4,0.6-0.6
				c0.1,0.1,0.3,0.1,0.4,0.2C231,140.4,231,140.6,231,140.8z"/>
			<path class="st199" d="M231.4,140.2c-0.1,0-0.3,0-0.4,0c0.1-0.3,0.3-0.5,0.6-0.6C231.5,139.8,231.5,140,231.4,140.2z"/>
			<path class="st200" d="M230,140.6c0,0.1-0.2,0.3,0,0.4c0.1,0.2,0,0.2-0.2,0.2c-0.2-0.1-0.4-0.3-0.6-0.4c0.2-0.1,0.4-0.1,0.6-0.2
				C229.9,140.6,229.9,140.6,230,140.6z"/>
			<path class="st201" d="M230.6,145c0.2,0,0.4-0.2,0.6,0c-0.2,0.5-0.5,0.7-1,0.6c-0.2-0.2-0.2-0.4,0-0.6
				C230.3,144.9,230.4,144.9,230.6,145z"/>
			<path class="st154" d="M230.2,145c0,0.2,0,0.4,0,0.6c0,0.1,0,0.1,0,0.2c-0.2-0.1-0.4-0.1-0.6-0.2c-0.3,0.1-0.3-0.1-0.3-0.3
				c0.1-0.3,0.3-0.4,0.5-0.4c0.1,0,0.2,0,0.3,0.1C230.1,144.9,230.2,145,230.2,145z"/>
			<path class="st202" d="M227.2,140.8c0.1,0,0.1,0,0.2,0c0.2,0.1,0.4,0.3,0.3,0.6c-0.3,0.4-0.5,0.1-0.7,0c0-0.1,0-0.1,0-0.2
				C227.1,141.1,227.1,140.9,227.2,140.8z"/>
			<path class="st203" d="M227,141.4c0.2,0,0.4,0.2,0.6,0c0.1,0,0.2,0,0.3,0.1c0,0.2,0,0.4-0.3,0.4c-0.2-0.1-0.4-0.1-0.6-0.2
				C227,141.5,227,141.5,227,141.4z"/>
			<path class="st204" d="M227.2,144c-0.1-0.1-0.3-0.1-0.4-0.2c0.1-0.1,0.1-0.1,0.2-0.2c0.2,0,0.4,0,0.6,0
				C227.7,143.9,227.5,144,227.2,144z"/>
			<path class="st205" d="M227.2,144c0.1-0.1,0.3-0.3,0.4-0.4c0-0.1,0-0.1,0-0.2c0.1,0,0.1,0,0.2,0c0.1-0.1,0.2-0.3,0.4-0.3
				c0.4,0.1,0.7,0.3,0.8,0.7c0,0.1,0,0.2-0.1,0.3c-0.3,0-0.6,0.2-0.9,0.4c-0.3,0.1-0.6-0.1-0.9-0.2l0,0
				C227.2,144.1,227.2,144.1,227.2,144z"/>
			<path class="st206" d="M228.2,143.2c-0.1,0.1-0.3,0.1-0.4,0.2c0-0.3,0-0.5,0-0.8c-0.1-0.1-0.1-0.3,0-0.4c0.2-0.1,0.4-0.1,0.5,0.1
				C228.4,142.6,228.4,142.9,228.2,143.2z"/>
			<path class="st207" d="M227.8,142.2c0,0.1,0,0.3,0,0.4c-0.3-0.2-0.2-0.5-0.2-0.8c0.1-0.1,0.2-0.2,0.2-0.4c0.1-0.1,0.2-0.1,0.3,0
				c0.1,0.1,0.1,0.3,0.1,0.4C228.1,142,227.9,142.1,227.8,142.2z"/>
			<path class="st208" d="M226.4,145.4c0.1,0,0.1,0,0.2,0c0.1,0.1,0.1,0.1,0.2,0.2c0.2,0.2,0.3,0.4,0.4,0.6c0,0.1,0,0.1,0,0.2
				c-0.3,0-0.5-0.3-0.8,0c-0.1-0.1-0.1-0.1-0.2-0.2C226.3,145.9,226.3,145.7,226.4,145.4z"/>
			<path class="st209" d="M227.2,146.2c-0.3-0.1-0.6-0.2-0.6-0.6c0.1-0.1,0.3-0.1,0.3-0.3c0.1,0,0.1-0.1,0.2,0c0.1,0,0.1,0,0.2,0
				s0.2,0.1,0.3,0.1c0.1,0,0.1,0.1,0.2,0.2v0.1c0,0,0,0.1-0.1,0.1c-0.1,0.1-0.3,0.1-0.4,0.2C227.3,146.1,227.3,146.1,227.2,146.2z"
				/>
			<path class="st210" d="M228.6,145.8c-0.1,0.1-0.1,0.3-0.2,0.4c-0.1-0.1-0.1-0.1-0.2-0.2c-0.1-0.1-0.1-0.3,0-0.4
				c0.1-0.1,0.3-0.1,0.4,0C228.6,145.6,228.6,145.6,228.6,145.8L228.6,145.8z"/>
			<path class="st211" d="M228.2,145.6c0,0.1,0,0.3,0,0.4c-0.2,0-0.3-0.1-0.4-0.2l0,0c0.1-0.1,0.1-0.2,0.2-0.2
				C228.1,145.5,228.1,145.5,228.2,145.6z"/>
			<path class="st212" d="M228.6,145.8c0-0.1,0-0.1,0-0.2c-0.2-0.3-0.5-0.5-0.5-0.9c0-0.1,0.1-0.2,0.2-0.2c0.2-0.1,0.4-0.1,0.5,0
				c0.2,0.1,0.3,0.3,0.5,0.5c0.1,0.1,0.1,0.2,0.1,0.2c0.1,0.1,0.1,0.3,0.2,0.4c0,0.1,0,0.1,0,0.2c-0.2,0-0.5,0-0.6,0.2
				C228.9,145.9,228.7,145.9,228.6,145.8z"/>
			<path class="st213" d="M227,145.4c-0.1,0.2-0.2,0.2-0.4,0.2c0-0.1,0-0.1,0-0.2c0.1-0.1,0.1-0.1,0.2-0.2l0.1-0.1
				c0.1,0,0.1,0,0.2,0.1C227.1,145.3,227.1,145.4,227,145.4z"/>
			<path class="st214" d="M226.6,144.8c0.1,0.1,0.1,0.1,0.2,0.2c0.1,0,0.1,0.1,0.1,0.1l-0.1,0.1l0,0c-0.1,0-0.1,0-0.2,0
				C226.6,145.1,226.6,144.9,226.6,144.8z"/>
			<path class="st215" d="M228.2,144.6c0.2,0.3,0.5,0.6,0.4,1c-0.1,0-0.3,0-0.4,0s-0.1,0-0.2,0c-0.1,0.1-0.1,0.1-0.2,0
				c-0.1,0-0.1,0-0.2,0c0-0.1-0.1-0.1-0.1-0.2c0-0.1-0.1-0.1-0.1-0.2c0-0.1,0-0.1,0-0.2C227.6,144.8,227.8,144.4,228.2,144.6z"/>
			<path class="st216" d="M228.2,144.6c-0.3,0.1-0.4,0.4-0.8,0.4c-0.1-0.3-0.1-0.5-0.2-0.8c0.3,0,0.7,0,1,0
				C228.3,144.3,228.3,144.5,228.2,144.6L228.2,144.6z"/>
			<path class="st217" d="M226.8,145.2c0-0.1,0-0.1,0-0.2c0.1,0.1,0.3,0.1,0.4,0.2l-0.1,0.1l-0.1-0.1
				C226.9,145.2,226.9,145.2,226.8,145.2z"/>
			<path class="st218" d="M227.4,145.2c0.1,0.1,0.1,0.1,0.2,0.2c-0.1,0.1-0.1,0.1-0.2,0h-0.1h-0.1c-0.1,0-0.1-0.1-0.1-0.1v-0.1l0,0
				C227.3,145.2,227.3,145.2,227.4,145.2z"/>
			<path class="st219" d="M228,141.8c0-0.1,0-0.3,0-0.4c0-0.2,0-0.3,0.2-0.2c0.1,0,0.3,0,0.4,0c0.3,0.1,0.5,0.1,0.8,0.2
				c0.1,0.1,0.2,0.2,0.1,0.4c0,0.1-0.1,0.2-0.2,0.3c-0.2,0.1-0.4,0-0.7,0C228.4,142.1,228.1,142.1,228,141.8z"/>
			<path class="st220" d="M228.2,141.2c-0.1,0.1-0.1,0.1-0.2,0.2h-0.1h-0.1c-0.1,0-0.1,0-0.2,0c-0.1-0.2-0.1-0.4-0.2-0.6
				c0.2,0.1,0.4,0.1,0.6,0.2C228.1,141.1,228.1,141.1,228.2,141.2z"/>
			<path class="st221" d="M229.8,141.2c0.1-0.1,0.1-0.1,0.2-0.2c0.3,0,0.5-0.5,0.8-0.2c0,0.1,0,0.3,0,0.4c0.1,0.1,0.2,0.1,0.4,0.2
				c0.3,0.2,0.5,0.5,0.3,0.8c-0.2,0.2-0.4,0.3-0.6,0.4c-0.1,0-0.2,0-0.3,0c-0.2,0-0.3-0.1-0.4-0.2c0-0.1-0.3-0.8-0.4-1
				C229.8,141.3,229.8,141.3,229.8,141.2z"/>
			<path class="st222" d="M229.8,141.4c0.3,0.3,0.8,0.5,0.4,1l-0.1,0.1c-0.2,0.1-0.4,0-0.6-0.2c-0.1-0.1,0-0.3-0.1-0.5
				c0-0.1,0-0.3,0-0.4C229.5,141.4,229.7,141.4,229.8,141.4z"/>
			<path class="st223" d="M231.4,142.2c0-0.4-0.3-0.5-0.4-0.8c0,0-0.1-0.1,0-0.1c0,0,0-0.1,0.1-0.1c0.4,0.1,0.9,0.1,1,0.6
				c-0.1,0.1-0.1,0.1-0.2,0.2c0,0.1,0,0.3,0,0.4c-0.1,0.1-0.1,0.1-0.2,0.1s-0.2,0-0.2-0.1C231.3,142.3,231.3,142.3,231.4,142.2z"/>
			<path class="st224" d="M231,141.2c0,0.1,0,0.1,0,0.2c-0.1-0.1-0.1-0.1-0.2-0.2C230.9,141.2,230.9,141.2,231,141.2z"/>
			<path class="st225" d="M230.8,143.6c0.1,0.2,0.1,0.4,0.2,0.6c-0.1,0.1-0.1,0.1-0.2,0.2c-0.1,0-0.1,0-0.2,0
				c-0.1,0.1-0.3,0.1-0.4,0C230.1,143.9,230.2,143.6,230.8,143.6z"/>
			<path class="st226" d="M230.2,144.4c0.1,0,0.3,0,0.4,0c0,0.1,0,0.1,0,0.2c-0.1,0.1-0.1,0.1-0.2,0.2c-0.1,0-0.2,0-0.3,0
				c-0.1,0-0.1-0.1-0.2-0.2C230,144.4,230,144.3,230.2,144.4z"/>
			<path class="st227" d="M230.6,145c-0.1,0-0.3,0-0.4,0l0,0c-0.1-0.2,0-0.2,0.2-0.3c0.1,0,0.2,0,0.2,0.1
				C230.6,144.9,230.6,144.9,230.6,145z"/>
			<path class="st228" d="M230.6,144.8c-0.1,0-0.1,0-0.2,0s-0.1-0.1-0.1-0.1s0-0.1,0.1-0.1s0.1,0,0.2,0
				C230.6,144.7,230.6,144.7,230.6,144.8z"/>
			<path class="st10" d="M230.2,144.4c-0.1,0.1-0.1,0.1-0.2,0.2c-0.6,0.3-0.7-0.1-0.9-0.5c0-0.2-0.1-0.4-0.2-0.5
				c-0.1-0.2-0.1-0.5,0-0.7c0.2-0.2,0.4-0.2,0.6-0.2s0.4,0,0.6,0s0.3,0.1,0.5,0.1c0.1,0,0.1,0.1,0.2,0.1c0,0,0,0.1,0.1,0.1
				c0,0.1,0,0.2-0.1,0.2c0,0.1,0,0.3,0,0.4C230.4,143.8,230.4,144.1,230.2,144.4z"/>
			<path class="st229" d="M230.8,143.2c0-0.1,0-0.1,0-0.2c0.1-0.1,0.3-0.1,0.4,0c0,0.1,0,0.1,0,0.2
				C231.1,143.2,230.9,143.2,230.8,143.2z"/>
			<path class="st230" d="M231.2,143c-0.1,0-0.3,0-0.4,0l0,0c-0.1-0.1-0.1-0.2-0.1-0.4c0.1-0.1,0.1-0.1,0.2-0.1s0.2,0.1,0.3,0.3
				C231.2,142.9,231.2,142.9,231.2,143z"/>
			<path class="st231" d="M231.4,142.4c0.1,0,0.1,0,0.2,0s0.1,0.1,0.1,0.1s0,0.1-0.1,0.1c0,0.1,0,0.1,0,0.2c-0.1,0-0.1,0-0.2,0
				c-0.1-0.1-0.2-0.1-0.3-0.3C231.2,142.4,231.2,142.3,231.4,142.4z"/>
			<path class="st232" d="M231.2,142.6c0.1,0.1,0.1,0.1,0.2,0.2c-0.1,0-0.1,0-0.2,0c-0.1-0.1-0.1-0.1-0.2-0.2
				C231.1,142.5,231.1,142.5,231.2,142.6z"/>
			<path class="st233" d="M231.6,142.6c0-0.1,0-0.1,0-0.2c0.1,0,0.1,0,0.2,0c0,0.1,0,0.1,0,0.2C231.7,142.6,231.7,142.6,231.6,142.6
				z"/>
			<path class="st18" d="M229.2,144c0.3,0.2,0.4,0.6,0.8,0.6l0,0c0.1,0.1,0.1,0.3,0,0.4c-0.2,0.1-0.4,0.1-0.6,0.2
				c-0.1,0-0.1,0-0.2,0C229,144.8,229,144.5,229.2,144C229.1,144.1,229.2,144,229.2,144z"/>
			<path class="st234" d="M230,145c0-0.1,0-0.3,0-0.4c0.1,0,0.3,0,0.4,0c0,0.1,0,0.1,0,0.2c-0.1,0.1-0.1,0.1-0.2,0.2
				C230.1,145,230.1,145,230,145z"/>
			<path class="st235" d="M229,142.8c0,0.3,0,0.5,0,0.8c0.1,0,0.1,0.1,0.1,0.1s0,0.1-0.1,0.1c-0.3-0.2-0.5-0.4-0.8-0.6
				c0-0.3-0.2-0.5,0-0.8c0.1-0.1,0.1-0.1,0.2-0.1c0.3,0,0.4,0.2,0.5,0.4C229,142.7,229,142.8,229,142.8z"/>
			<path class="st236" d="M228.2,144.6c0-0.1,0-0.3,0-0.4c0.2-0.3,0.5-0.3,0.8-0.2c0,0,0,0.1,0.1,0.1c-0.1,0.2,0.2,0.5-0.3,0.5
				C228.6,144.6,228.4,144.6,228.2,144.6z"/>
			<path class="st237" d="M229,143.8c0-0.1,0-0.1,0-0.2c0.2,0.1,0.2,0.2,0.2,0.4l0,0c-0.1,0.1-0.1,0.1-0.2,0l0,0
				C229,143.9,229,143.9,229,143.8z"/>
			<path class="st110" d="M228.4,142.4c-0.1,0-0.1,0-0.2,0c-0.1-0.2-0.2-0.2-0.4-0.2c0.1-0.1,0.1-0.3,0.2-0.4c0.2,0.1,0.4,0.1,0.6,0
				C228.8,142.1,228.7,142.3,228.4,142.4z"/>
			<path class="st238" d="M227.2,145.2c0,0.1,0,0.1,0,0.2c-0.1,0-0.1,0-0.2,0c0-0.1,0-0.1,0-0.2
				C227.1,145.2,227.1,145.2,227.2,145.2z"/>
			<path class="st239" d="M227.4,145.4c0.1,0,0.1,0,0.2,0c0,0.1,0,0.1,0,0.2C227.5,145.5,227.5,145.5,227.4,145.4z"/>
			<path class="st170" d="M227.8,145.6c0.1,0,0.1,0,0.2,0c-0.1,0.1-0.1,0.1-0.2,0.2C227.8,145.7,227.8,145.7,227.8,145.6z"/>
			<path class="st240" d="M229,144c0.1,0,0.1,0,0.2,0c0,0.4,0.1,0.8,0,1.2c-0.3-0.1-0.4-0.3-0.4-0.6
				C228.9,144.4,228.9,144.2,229,144z"/>
			<path class="st241" d="M229.6,143c-0.2-0.1-0.4-0.1-0.6-0.2l0,0c-0.2-0.3-0.1-0.6,0.2-0.8c0.1-0.1,0.1-0.1,0.2-0.2
				c0.1,0.1,0.1,0.3,0.2,0.4C229.8,142.5,229.8,142.7,229.6,143z"/>
			<path class="st242" d="M229.2,142c-0.1,0.3-0.1,0.5-0.2,0.8c-0.2-0.1-0.4-0.3-0.6-0.4c0.1-0.2,0.1-0.4,0.2-0.6
				C228.8,141.9,229,141.9,229.2,142z"/>
			<path class="st243" d="M231.2,142.6c-0.1,0-0.1,0-0.2,0s-0.1,0-0.2,0s-0.1-0.1,0-0.1c0,0,0-0.1,0.1-0.1c0.2-0.1,0.4-0.1,0.6-0.2
				c0,0.1,0,0.1,0,0.2C231.3,142.5,231.3,142.5,231.2,142.6z"/>
			<path class="st165" d="M230.8,142.4c0,0.1,0,0.1,0,0.2c0,0.1,0,0.3,0,0.4c-0.1,0-0.1,0-0.2,0c-0.1-0.1-0.2-0.2-0.1-0.4
				c0-0.1,0.1-0.2,0.1-0.2C230.7,142.4,230.7,142.4,230.8,142.4z"/>
			<path class="st244" d="M230.6,142.4c0,0.1,0,0.1,0,0.2c-0.1,0.1-0.3,0.1-0.4,0.1c-0.1-0.1-0.1-0.1-0.1-0.2c0-0.1,0-0.1,0-0.1l0,0
				C230.3,142.4,230.5,142.4,230.6,142.4z"/>
			<path class="st144" d="M230.2,142.4c0,0.1,0,0.1,0,0.2c0.1,0,0.1,0.1,0,0.1c0,0,0,0.1-0.1,0.1c-0.2,0.1-0.4,0.1-0.6,0.2
				c0-0.3,0-0.5,0-0.8C229.8,142.3,230,142.3,230.2,142.4z"/>
			<path class="st245" d="M230,143.7c-0.1,0-0.2,0.1-0.3,0.1c-0.1,0-0.2-0.1-0.2-0.2c0-0.1,0.2-0.1,0.2-0.1
				C229.9,143.5,230,143.5,230,143.7z"/>
			<path class="st246" d="M230.2,142.8c0-0.1,0-0.1,0-0.2c0.1,0,0.3,0,0.4,0c0,0.1,0,0.3,0,0.4C230.4,143,230.3,143,230.2,142.8z"/>
		</g>
	</g>
</g>
</svg>
