<?xml version="1.0" encoding="utf-8"?>
<!-- Generator: Adobe Illustrator 22.1.0, SVG Export Plug-In . SVG Version: 6.00 Build 0)  -->
<svg version="1.1" id="Layer_1" xmlns="http://www.w3.org/2000/svg" xmlns:xlink="http://www.w3.org/1999/xlink" x="0px" y="0px"
	 viewBox="0 0 139.2 135.1" style="enable-background:new 0 0 139.2 135.1;" xml:space="preserve">
<style type="text/css">
	.st0{fill:#2A2753;}
</style>
<g>
	<path class="st0" d="M69.6,132.8c-36,0-65.3-29.3-65.3-65.2c0-36,29.3-65.2,65.3-65.2c36,0,65.3,29.3,65.3,65.2
		C134.9,103.5,105.6,132.8,69.6,132.8 M69.6,4.8C35,4.8,6.8,33,6.8,67.6c0,34.6,28.2,62.8,62.8,62.8s62.8-28.2,62.8-62.8
		C132.4,33,104.3,4.8,69.6,4.8"/>
	<path class="st0" d="M67.5,110.3c-1.6,0-3.1,0.3-3.1,3.6c0,3.3,1.5,3.6,3.1,3.6c1.6,0,3.1-0.3,3.1-3.6
		C70.6,110.6,69.1,110.3,67.5,110.3"/>
	<path class="st0" d="M97,59.3c-2.2,0.7-4.4,2.1-6.6,4.2C93.1,63.6,95.2,62.2,97,59.3"/>
	<path class="st0" d="M38.5,86.2c0.5,1.1,1.2,1.8,2.2,2.2c0.5-0.6,1-1.2,1.6-1.8v-1.8c-1.1,0.5-2.3,0.9-3.6,1.3L38.5,86.2z"/>
	<path class="st0" d="M47.6,70.6V71c-0.5,1.1-1.3,2.1-2.3,2.9c-0.1,0.5-0.2,1-0.2,1.7c0.6-0.4,1.3-0.4,2,0c0.6-1.8,1.1-3.9,1.4-6.1
		c0.4-3.1-0.8-3.9-3.6-2.6c-0.7,0.4-1.4,0.7-2,1.1c1.2-0.1,2.1,0.5,2.7,2C46.3,70,46.9,70.1,47.6,70.6"/>
	<path class="st0" d="M69.6,9.4c-32.2,0-58.2,26-58.2,58.2c0,32.1,26.1,58.2,58.2,58.2c32.2,0,58.2-26,58.2-58.2
		C127.9,35.4,101.8,9.4,69.6,9.4 M95,48.6c1.6,0.5,2.3,1.3,2.3,2.4c0,0.7-0.5,1.2-1.4,1.3c-1.4,0-2.7,0.6-4.1,1.7
		c0.8-0.7,1.5-1.5,2-2.4c-0.8-0.9-1.7-1.5-2.5-1.8l-0.2-0.4C92.6,48.5,93.8,48.3,95,48.6 M82.1,33.7c2.3,0.7,3.9,2.2,4.6,4.7
		c0.3,1.2,0.2,2-0.5,2.5c-0.4,0.4-1.2,0.4-2.3,0c-2.1-0.7-4.2-0.5-6.3,0.6c0.2-0.3,0.7-0.6,1.3-1c0.6-0.3,1.1-0.6,1.7-1
		c0.8-0.5,1.2-1,1.2-1.4c-0.1-0.4-0.5-0.9-1.2-1.6c-0.8-0.5-1.5-1-2.2-1.6c-0.8-0.4-1.4-0.8-1.8-1.4C78.2,33.2,80,33.2,82.1,33.7
		 M57.4,37c1.5-2,2.6-2.8,3.2-2.5c-0.3,2.1-0.4,3.3-0.3,3.7c1.9-1,3.8-2.2,5.8-3.5c-2.7,2.2-5.1,4.9-7.3,8.2
		c-1.4,2.2-2.5,2.6-3.3,1.2C54.4,42.5,55.1,40.1,57.4,37 M47.1,80.9c0.6,0.5,0.5,1.2-0.3,2.2c-0.6,0.9-1.3,1.7-2,2.4v2
		c1.6-1.5,3-3,4.4-4.6c-2.3,4.6-5.5,8.6-9.5,11.7c-0.8,0.5-1.5,0.7-1.9,0.7c-0.9,0-1.8-0.9-2.5-2.6c1.7-0.9,3.2-2,4.7-3.5
		c-1-1-1.7-1.8-2-2.6C37.7,86,38,85.2,39,84.2c0.8-0.7,2-1.6,3.4-2.6v-2.2c-0.8,0.2-1.6,0.2-2.2-0.2c0.3,1,0.2,1.7-0.3,2
		c-0.5,0.4-1.1,0.2-1.9-0.6c-0.9-0.9-1.7-2.4-2.3-4.8c-0.7-3.3-0.5-6.5,0.8-9.5c0.4,3.9,1.5,7.8,3.1,11.6c1-0.5,1.9-1.3,2.7-2.4v-2
		c-1.2,0.5-2.4,0.7-3.6,0.7c0.9-1.5,2-2.4,3.3-2.8c0-1-0.2-1.8-0.5-2.6c-1.5,0.1-2.9-0.1-4.4-0.5c5.8-3.4,10.3-4.3,13.4-2.8
		c1.1,0.6,1.7,1.8,1.6,3.5c0,2.7-0.6,5.6-1.9,8.8c-0.6,1.5-1.5,1.7-2.7,0.7c-0.4-0.4-0.8-0.7-1.1-0.9c-0.5,0-1,0.1-1.6,0.2v2.6
		C45.7,80.3,46.5,80.4,47.1,80.9 M60.9,117.4v1.1h-7.1v-2.5c0-1.7,0.9-2.7,2.6-2.7h2.2c0.4,0,0.7-0.2,1-0.4c0.2-0.3,0.3-0.7,0.3-1.1
		c0-0.7-0.3-1.4-1.3-1.4H54v-1.1h4.6c1.6,0,2.4,1.3,2.4,2.5c0,1.3-0.8,2.6-2.4,2.6h-2.2c-1.1,0-1.5,0.5-1.5,1.6v1.4H60.9z
		 M61.6,98.1c0,2.8-1,4.4-3,4.8c-0.3,0.1-1,0.2-2,0.2c-2.3,0-4.5,0.4-6.6,1.3c3.1-1.7,5.4-3.3,6.7-4.8c1-1,1.6-2.2,1.7-3.7
		c0.1-2.2,0.2-4.4,0.2-6.6c0.1-2.8-0.5-5-1.7-6.6c1.1-0.4,2.6,0.1,4.4,1.3c0.3-0.2,0.6-0.5,0.9-0.7c1.2-0.9,2-1.9,2.2-3.1
		c-0.7-0.2-1.8-0.2-3.1,0.2c-2.5,0.7-4.7,1.8-6.7,3.1c-0.9,0.7-1.6,1.1-2,1.1c-0.8,0.1-1.5-0.2-2-1.1c-0.3-0.5-0.5-1-0.5-1.5
		c2.6-1,5-2.9,7.2-5.7c-0.6-0.1-1.2-0.2-1.7-0.2c-0.3-0.9-0.4-1.6-0.2-2.2c1.8-1,3.2-2.5,4.2-4.6c-2,1.1-3.8,1.2-5.6,0.2
		c1.5-1,3.2-1.9,5.3-2.8c0.8-0.4,1.7-0.5,2.5-0.4c1.7,0.1,2.5,0.4,2.7,0.9c0,0.9-0.5,1.7-1.4,2.4c-2.1,1.6-3.6,2.9-4.5,3.9
		c1.5-0.5,2.8-0.1,4.1,1.3c0,0.5-0.3,0.9-0.8,1.1c-3.3,1.6-5.7,3.1-7.2,4.6c0.3-0.1,0.6-0.2,0.9-0.4c3.6-1.6,7.2-2.2,10.8-1.8
		c0.4,0,0.8,0.1,1.2,0.2c2.3,0.6,2.6,1.7,0.9,3.3c-1.7,1.6-4,2.6-7,3.1C61.7,89.3,61.7,93.7,61.6,98.1 M67.5,118.5
		c-1.9,0-4.2-0.5-4.2-4.7c0-4.1,2.2-4.6,4.2-4.6c1.9,0,4.2,0.5,4.2,4.6C71.6,118,69.4,118.5,67.5,118.5 M72.6,47.2
		c0.1,4.3-0.9,5.7-3.2,4.1c-0.6-0.5-1.1-1-1.7-1.6c-2.2-2.5-4.5-5-7-7.6c0.6,0.1,1.1,0.4,1.5,0.8c3.1,1.8,5.1,2.4,6,1.8
		c0.3-0.4,0.6-1.1,0.7-2.1c0.3-6.2,0.3-12.8,0-19.7c-0.1-2.3-0.8-4.5-2.2-6.4l0.2-0.4c0.4-0.3,1.1-0.3,1.8,0c3,0.8,4.4,3.1,4.3,7
		C72.6,30,72.4,38,72.6,47.2 M75.3,118.4h-1.1v-9.2h1.1V118.4z M76.3,73.6c0.3-2.7,0.6-5.3,0.9-7.9c0.1-1.2,0.5-2.6,1.1-4
		c0.7-1.3,1.4-2.6,2-3.9c0.8-1.8,0.4-3.1-1.4-3.9c1.5-1.1,3.1-1.2,5-0.2c2,1,1.9,2.1-0.2,3.5c-2.3,1.5-3.7,2.9-4.4,4.2
		c-0.4,0.9-0.6,1.8-0.6,2.8c0.1,1,0.3,1.9,0.5,2.8c0,0.6-0.1,2.5-0.2,5.7c-0.2,2.6-0.2,4.5,0.2,5.7l0.3,0.2c2-2.9,3.4-6.2,4.2-9.9
		c-1,5-1.9,9.7-2.7,14.1c-0.7,3.8-1.9,4.4-3.6,1.8C76.2,82.5,75.7,78.8,76.3,73.6 M85.3,117.4v1.1h-7.1v-2.5c0-1.7,0.9-2.7,2.6-2.7
		H83c0.4,0,0.7-0.2,1-0.4c0.2-0.3,0.3-0.7,0.3-1.1c0-0.7-0.3-1.4-1.3-1.4h-4.6v-1.1H83c1.6,0,2.4,1.3,2.4,2.5c0,1.3-0.8,2.6-2.4,2.6
		h-2.2c-1.1,0-1.5,0.5-1.5,1.6v1.4H85.3z M108.2,85.5c-0.1,0.7-0.7,1.2-1.7,1.5c-3.5,0.7-6.5,1.7-8.9,2.9c1.2-0.7,2.4-1.6,3.4-2.6
		c-5.1,0.1-7.6-2.8-7.6-8.6c-0.4-0.1-0.9-0.2-1.4-0.2c-0.1,2.2-0.9,2.5-2.5,0.9c-1.5-2-2.3-4.1-2.7-6.4c-0.1-2,0.1-3.5,0.6-4.8
		c0.1,0.6,0.4,1.2,0.9,1.8c2.7-1.6,4.9-2.6,6.7-3.1c5.1-1.5,8.2-1,9.4,1.3c0.7,1.6,0.4,4.2-1.1,7.7c-0.9,2.3-2.2,3.6-3.9,3.9
		c-1.1,0.1-2.3,0-3.6-0.4c-0.2,2.9,1.5,4.3,5,4C106,83.2,108.5,83.9,108.2,85.5 M109.7,63.7c-0.1,0.7-0.7,1-1.9,0.7
		c-2.3-0.5-4.8-0.7-7.5-0.7c-3.5,0-7.6,1.2-12.3,3.7c-0.9,0.5-1.7,0.7-2.2,0.7c-0.6,0-1.4-0.3-2.2-0.9c-0.5-0.5-0.9-1-1.1-1.5
		c2.3-0.1,4.5-0.7,6.7-1.7c-0.6-0.9-0.9-1.8-0.8-2.8c1.3-1.1,2.5-2.3,3.6-3.5c-1.4,0.1-2.7-0.2-4.1-0.9c2.6-1.2,5.2-2.4,7.8-3.5
		c1.7-1,3.1-1,4.4,0c0.1,0.7-0.2,1.2-0.9,1.5c-1.7,1.2-3.5,2.6-5.5,4c2.7-1.1,4.4-1.7,5.1-1.8c0.8,0,1.4,0.1,1.7,0.2
		c1.7,0.6,1.8,1.5,0.5,2.6c-0.7,0.6-1.5,1.2-2.2,1.8c1.7-0.1,3.2-0.3,4.7-0.5c2.2-0.1,3.7,0.1,4.5,0.5
		C109.2,62.4,109.8,63.1,109.7,63.7"/>
	<path class="st0" d="M88.7,71c0.3,0.9,0.8,1.9,1.4,3.1c1.1-1,2.2-1.7,3.3-2.2c0-0.6-0.1-1.2-0.2-1.8C91.7,70.8,90.2,71.1,88.7,71"
		/>
	<path class="st0" d="M99.7,72.3c-0.3,0.6-0.8,1-1.6,1.3c-0.5,0.1-1,0.2-1.6,0.4c-0.3,0.9-0.5,1.8-0.5,2.9c0.7,0,1.4-0.2,2-0.6
		c0.9-0.5,1.7-1.7,2.3-3.5c0.8-2.6,0.9-4.2,0.3-4.8c-0.3-0.4-1.1-0.4-2.5-0.2c-1,0.2-2,0.7-3,1.3c0.7,1.1,1.5,1.7,2.3,1.8
		C98.5,71.1,99.1,71.5,99.7,72.3"/>
	<path class="st0" d="M90.3,74.5c0.3,0.6,0.8,1.5,1.4,2.6c0.3,0,0.8-0.1,1.6-0.2c0.1-0.7,0.2-1.5,0.2-2.2
		C92.4,74.4,91.3,74.4,90.3,74.5"/>
</g>
</svg>
