<svg xmlns="http://www.w3.org/2000/svg" viewBox="0 0 75.2 69.36"><defs><style>.cls-1{fill:#fff;}</style></defs><title>i_detachedhouse</title><g id="Layer_2" data-name="Layer 2"><g id="レイヤー_1" data-name="レイヤー 1"><path class="cls-1" d="M74.61,66l-9.12-9.12a14.11,14.11,0,0,0-3.09-20v-24a1.18,1.18,0,0,0-.77-1.11L31.63.08a1.19,1.19,0,0,0-.87,0L.76,11.75A1.18,1.18,0,0,0,0,12.86V49.53a1.2,1.2,0,0,0,1.2,1.2H12.87a1.19,1.19,0,0,0,1.19-1.2V30.84H25V49.53a1.2,1.2,0,0,0,1.2,1.2h14a14.13,14.13,0,0,0,22.44,8.93l9.13,9.12a2,2,0,0,0,2.82,0A2,2,0,0,0,74.61,66ZM26.2,28.44H12.87a1.2,1.2,0,0,0-1.2,1.2V48.33H2.4V13.68L31.2,2.49,60,13.68V35.43a14.16,14.16,0,0,0-20,12.9H27.4V29.64A1.2,1.2,0,0,0,26.2,28.44Zm16.2,19.9A11.78,11.78,0,1,1,54.17,60.11,11.79,11.79,0,0,1,42.4,48.34Z"/></g></g></svg>