<svg xmlns="http://www.w3.org/2000/svg" viewBox="0 0 62.4 55.02"><defs><style>.cls-1{fill:#fff;}</style></defs><title>i_favoriteproperty</title><g id="Layer_2" data-name="Layer 2"><g id="レイヤー_1" data-name="レイヤー 1"><path class="cls-1" d="M31.2,55a1.19,1.19,0,0,1-.85-.36L5.82,30.14l-.16-.2A17.19,17.19,0,1,1,31.2,7.21,17.19,17.19,0,1,1,56.73,29.94a1.49,1.49,0,0,1-.15.2L32.05,54.66A1.19,1.19,0,0,1,31.2,55ZM7.79,28.71,31.2,52.12,54.62,28.7a1.11,1.11,0,0,1,.25-.32A14.79,14.79,0,1,0,32.25,10a1.25,1.25,0,0,1-2.1,0A14.79,14.79,0,1,0,7.53,28.38,1.15,1.15,0,0,1,7.79,28.71Z"/></g></g></svg>