<svg xmlns="http://www.w3.org/2000/svg" viewBox="0 0 67.2 73.2"><defs><style>.cls-1{fill:#fff;}</style></defs><title>i_mansion</title><g id="Layer_2" data-name="Layer 2"><g id="レイヤー_1" data-name="レイヤー 1"><path class="cls-1" d="M29.2,6h-8A1.2,1.2,0,0,0,20,7.2v6a1.2,1.2,0,0,0,1.2,1.2h8a1.2,1.2,0,0,0,1.2-1.2v-6A1.2,1.2,0,0,0,29.2,6ZM28,12H22.4V8.4H28Z"/><path class="cls-1" d="M35.2,14.4h8a1.2,1.2,0,0,0,1.2-1.2v-6A1.2,1.2,0,0,0,43.2,6h-8A1.2,1.2,0,0,0,34,7.2v6A1.2,1.2,0,0,0,35.2,14.4Zm1.2-6H42V12H36.4Z"/><path class="cls-1" d="M15.2,6h-8A1.2,1.2,0,0,0,6,7.2v6a1.2,1.2,0,0,0,1.2,1.2h8a1.2,1.2,0,0,0,1.2-1.2v-6A1.2,1.2,0,0,0,15.2,6ZM14,12H8.4V8.4H14Z"/><path class="cls-1" d="M29.2,16h-8A1.2,1.2,0,0,0,20,17.2v6a1.2,1.2,0,0,0,1.2,1.2h8a1.2,1.2,0,0,0,1.2-1.2v-6A1.2,1.2,0,0,0,29.2,16ZM28,22H22.4V18.4H28Z"/><path class="cls-1" d="M35.2,24.4h8a1.2,1.2,0,0,0,1.2-1.2v-6A1.2,1.2,0,0,0,43.2,16h-8A1.2,1.2,0,0,0,34,17.2v6A1.2,1.2,0,0,0,35.2,24.4Zm1.2-6H42V22H36.4Z"/><path class="cls-1" d="M15.2,16h-8A1.2,1.2,0,0,0,6,17.2v6a1.2,1.2,0,0,0,1.2,1.2h8a1.2,1.2,0,0,0,1.2-1.2v-6A1.2,1.2,0,0,0,15.2,16ZM14,22H8.4V18.4H14Z"/><path class="cls-1" d="M29.2,26h-8A1.2,1.2,0,0,0,20,27.2v6a1.2,1.2,0,0,0,1.2,1.2h8a1.2,1.2,0,0,0,1.2-1.2v-6A1.2,1.2,0,0,0,29.2,26ZM28,32H22.4V28.4H28Z"/><path class="cls-1" d="M35.2,34.4h8a1.2,1.2,0,0,0,1.2-1.2v-6A1.2,1.2,0,0,0,43.2,26h-8A1.2,1.2,0,0,0,34,27.2v6A1.2,1.2,0,0,0,35.2,34.4Zm1.2-6H42V32H36.4Z"/><path class="cls-1" d="M15.2,26h-8A1.2,1.2,0,0,0,6,27.2v6a1.2,1.2,0,0,0,1.2,1.2h8a1.2,1.2,0,0,0,1.2-1.2v-6A1.2,1.2,0,0,0,15.2,26ZM14,32H8.4V28.4H14Z"/><path class="cls-1" d="M29.2,36h-8A1.2,1.2,0,0,0,20,37.2v6a1.2,1.2,0,0,0,1.2,1.2h8a1.2,1.2,0,0,0,1.2-1.2v-6A1.2,1.2,0,0,0,29.2,36ZM28,42H22.4V38.4H28Z"/><path class="cls-1" d="M15.2,36h-8A1.2,1.2,0,0,0,6,37.2v6a1.2,1.2,0,0,0,1.2,1.2h8a1.2,1.2,0,0,0,1.2-1.2v-6A1.2,1.2,0,0,0,15.2,36ZM14,42H8.4V38.4H14Z"/><path class="cls-1" d="M66.61,69.79l-9.12-9.13a14.14,14.14,0,0,0-7.09-22V1.2A1.2,1.2,0,0,0,49.2,0H1.2A1.2,1.2,0,0,0,0,1.2v56a1.2,1.2,0,0,0,1.2,1.2h20a1.2,1.2,0,0,0,1.2-1.2V48.4H28v8.8a1.2,1.2,0,0,0,1.2,1.2h4.26a14.12,14.12,0,0,0,21.2,5.09l9.13,9.12a2,2,0,1,0,2.82-2.82ZM30.4,56V47.2A1.2,1.2,0,0,0,29.2,46h-8A1.2,1.2,0,0,0,20,47.2V56H2.4V2.4H48V38.13A13.83,13.83,0,0,0,46.17,38a14.75,14.75,0,0,0-1.77.12V37.2A1.2,1.2,0,0,0,43.2,36h-8A1.2,1.2,0,0,0,34,37.2v6a1.19,1.19,0,0,0,.5.95,14,14,0,0,0-2,11.85Zm6-14.07V38.4H42v.23A14,14,0,0,0,36.4,41.93Zm-2,10.24A11.78,11.78,0,1,1,46.17,64,11.78,11.78,0,0,1,34.4,52.17Z"/></g></g></svg>