<svg xmlns="http://www.w3.org/2000/svg" viewBox="0 0 55.46 56.5"><defs><style>.cls-1{fill:#fff;}</style></defs><title>i_search</title><g id="Layer_2" data-name="Layer 2"><g id="レイヤー_1" data-name="レイヤー 1"><path class="cls-1" d="M23.88,5A18.89,18.89,0,1,1,5,23.88,18.9,18.9,0,0,1,23.88,5m0-5A23.89,23.89,0,1,0,47.77,23.88,23.88,23.88,0,0,0,23.88,0Z"/><path class="cls-1" d="M53,56.5a2.49,2.49,0,0,1-1.77-.73L37.89,42.46a2.5,2.5,0,1,1,3.54-3.53l13.3,13.3a2.52,2.52,0,0,1,0,3.54A2.49,2.49,0,0,1,53,56.5Z"/></g></g></svg>