<svg xmlns="http://www.w3.org/2000/svg" width="55.578" height="44.199" viewBox="0 0 55.578 44.199"><defs><style>.a{fill:#231916;}</style></defs><path class="a" d="M91.121,45.762h6.058a.791.791,0,0,0,0-1.582H91.121a.791.791,0,0,0,0,1.582Z" transform="translate(-51.072 -24.979)"/><path class="a" d="M69.971,67.942h6.041a.791.791,0,1,0,0-1.582H69.971a.791.791,0,1,0,0,1.582Z" transform="translate(-39.114 -37.52)"/><path class="a" d="M53.23,37.207H48.015a.791.791,0,1,0,0,1.578h4.4c-.187,2.477-1.3,3.842-3.881,4.9h0a.791.791,0,0,0,.6,1.46c3.425-1.4,4.889-3.533,4.889-7.158A.791.791,0,0,0,53.23,37.207Z" transform="translate(-26.667 -21.036)"/><path class="a" d="M53.161,59.917H47.985a.791.791,0,1,0,0,1.578h4.381V65.38H47.985a.791.791,0,1,0,0,1.582h5.176a.787.787,0,0,0,.791-.791V60.7a.787.787,0,0,0-.791-.787Z" transform="translate(-26.65 -33.876)"/><path class="a" d="M70.445,41.228V37.247h0a.791.791,0,0,0-1.578,0h0v3.981h0a.791.791,0,1,0,1.578,0Z" transform="translate(-38.936 -20.645)"/><path class="a" d="M72.8,44.8c3.79-.621,4.459-2.395,4.459-5.9V37.247h0a.791.791,0,0,0-1.578,0h0V38.9c0,3.042-.374,3.872-3.142,4.346h0A.789.789,0,0,0,72.8,44.8Z" transform="translate(-40.643 -20.645)"/><path class="a" d="M91.151,59.881c0,2.894-.152,4.576-1.039,6.293h0a.791.791,0,1,0,1.4.721h0c1.13-2.173,1.217-4.29,1.217-7.014h0a.791.791,0,0,0-1.582,0Z" transform="translate(-50.884 -33.409)"/><path class="a" d="M102.18,61.99a.8.8,0,0,0-.96.578h0a4.381,4.381,0,0,1-1.651,2.677v-5.7a.791.791,0,0,0-1.578,0h0v6.832a.787.787,0,0,0,.9.782c1.825-.269,3.268-1.843,3.859-4.216A.791.791,0,0,0,102.18,61.99Z" transform="translate(-55.403 -33.254)"/><path class="a" d="M49.618,8.383C44.368,3.133,36.206,0,27.814,0,12.468,0,0,10.122,0,22.56a13.534,13.534,0,0,0,2.173,7.471,1.205,1.205,0,1,0,2-1.347A11.078,11.078,0,0,1,2.4,22.56C2.4,11.447,13.794,2.4,27.814,2.4c7.792,0,15.32,2.873,20.126,7.684a17.18,17.18,0,0,1,5.267,12.334c0,9.626-9.357,19.375-27.228,19.375-4.537,0-8.492-1.356-10.865-3.72a7.823,7.823,0,0,1-1.643-2.342l.178.109a1.46,1.46,0,0,0,1.082-.282,10.007,10.007,0,0,0,2.751-5.493c.23-2.125-2.794-2.855-2.369-6.771.187-1.712,2.682-7.219,4.668-8.814a5.577,5.577,0,0,1,4.376-.9c2.442.269,4.4-4.537,4.6-6.367.109-1-1.547-2.264-4.263-2.56a7.181,7.181,0,0,0-5.089,1.717C15.888,9.127,9.165,21.83,8.5,27.949a7.653,7.653,0,0,0,1.93,6l.074.039a9.561,9.561,0,0,0,2.886,5.785C16.24,42.626,20.7,44.2,25.945,44.2c8.788,0,16.319-2.286,21.778-6.606,5.063-4.011,7.853-9.4,7.853-15.172A19.483,19.483,0,0,0,49.618,8.383Z" transform="translate(0.001 0)"/></svg>