<?xml version="1.0" standalone="no"?>
<!DOCTYPE svg PUBLIC "-//W3C//DTD SVG 20010904//EN"
 "http://www.w3.org/TR/2001/REC-SVG-20010904/DTD/svg10.dtd">
<svg version="1.0" xmlns="http://www.w3.org/2000/svg"
 width="960.000000pt" height="960.000000pt" viewBox="0 0 960.000000 960.000000"
 preserveAspectRatio="xMidYMid meet">
<metadata>
Created by potrace 1.14, written by Peter Selinger 2001-2017
</metadata>
<g transform="translate(0.000000,960.000000) scale(0.100000,-0.100000)"
fill="#000000" stroke="none">
<path d="M4737 9583 c-2 -1 -23 -5 -48 -8 -105 -13 -214 -62 -379 -172 -41
-27 -104 -68 -140 -91 -36 -22 -70 -45 -76 -50 -5 -5 -21 -15 -34 -22 -14 -7
-31 -19 -38 -27 -7 -7 -19 -13 -27 -13 -7 0 -15 -7 -19 -15 -3 -8 -10 -15 -15
-15 -6 0 -50 -26 -98 -58 -48 -32 -124 -81 -168 -109 -44 -29 -134 -86 -200
-129 -66 -43 -149 -96 -185 -119 -36 -23 -118 -77 -183 -119 -65 -42 -122 -76
-128 -76 -5 0 -9 -4 -9 -10 0 -5 -7 -10 -15 -10 -8 0 -15 -4 -15 -10 0 -5 -7
-10 -15 -10 -8 0 -15 -4 -15 -10 0 -5 -6 -10 -13 -10 -7 0 -23 -9 -35 -20 -12
-11 -25 -21 -29 -21 -5 -1 -66 -39 -136 -85 -70 -46 -132 -84 -136 -84 -4 0
-16 -9 -26 -20 -10 -11 -22 -17 -26 -14 -5 3 -9 2 -9 -3 0 -4 -35 -30 -77 -56
-69 -43 -222 -140 -263 -167 -8 -5 -37 -24 -65 -42 -27 -17 -76 -49 -107 -70
-32 -21 -60 -38 -63 -38 -3 0 -11 -5 -18 -11 -7 -5 -79 -53 -162 -105 -82 -53
-166 -106 -185 -119 -46 -30 -214 -138 -315 -203 -44 -28 -85 -56 -92 -61 -7
-6 -14 -11 -17 -11 -5 0 -295 -187 -316 -204 -8 -6 -32 -21 -52 -31 -21 -11
-38 -22 -38 -25 0 -3 -15 -14 -32 -25 -168 -97 -275 -182 -338 -265 -14 -18
-30 -38 -36 -44 -6 -6 -23 -33 -39 -61 -16 -27 -34 -57 -40 -65 -11 -14 -57
-123 -61 -145 -1 -5 -8 -33 -16 -62 -21 -78 -22 -321 -23 -3293 0 -2833 -1
-2749 42 -2870 50 -137 159 -235 303 -270 49 -12 2467 -10 2507 2 11 3 35 14
52 22 17 9 31 14 31 11 0 -7 52 26 86 55 67 58 114 159 130 285 3 28 8 59 11
70 8 36 16 2989 10 4195 -1 273 9 339 65 423 37 57 157 121 188 102 6 -3 10
-2 10 2 0 10 11 11 130 11 137 1 235 -4 248 -12 7 -4 12 -3 12 2 0 9 28 8 85
-2 14 -3 25 0 25 5 0 6 5 7 12 3 12 -7 546 -9 553 -2 2 1 45 1 95 -2 50 -3 94
-3 96 -1 2 3 21 4 42 3 20 0 118 -3 217 -6 99 -3 191 -8 205 -11 14 -3 36 -8
50 -11 63 -11 128 -28 160 -42 19 -8 35 -14 35 -12 0 12 186 -83 249 -127 68
-49 69 -50 146 -125 124 -121 214 -274 259 -438 30 -108 35 -150 35 -285 -1
-191 -38 -323 -144 -510 -54 -97 -196 -244 -300 -312 -36 -24 -72 -48 -80 -55
-8 -7 -17 -13 -20 -12 -3 0 -34 -13 -70 -29 -36 -16 -74 -33 -85 -37 -33 -14
-158 -49 -195 -54 -19 -3 -46 -8 -60 -10 -14 -3 -56 -8 -95 -12 -85 -8 -96
-10 -115 -16 -8 -3 -37 -11 -65 -17 -88 -20 -170 -67 -224 -128 -28 -31 -48
-60 -45 -65 3 -4 1 -8 -4 -8 -12 0 -51 -132 -55 -185 -5 -57 15 -152 44 -209
30 -61 127 -161 205 -213 33 -21 63 -44 67 -50 4 -7 13 -13 18 -13 13 0 183
-102 187 -112 2 -5 9 -8 15 -8 7 -1 44 -21 82 -45 39 -25 77 -48 85 -52 8 -3
45 -26 83 -49 37 -24 67 -40 67 -36 0 4 4 2 8 -3 6 -10 262 -165 342 -209 19
-10 46 -27 59 -37 13 -11 29 -19 37 -19 7 0 14 -4 16 -8 3 -7 22 -19 148 -89
25 -14 52 -31 60 -38 8 -6 53 -34 100 -61 46 -27 92 -53 102 -59 9 -5 66 -39
125 -75 59 -35 118 -70 130 -76 62 -34 88 -50 93 -55 3 -3 34 -22 70 -43 36
-20 82 -46 102 -59 54 -32 351 -207 412 -242 29 -16 83 -48 122 -69 38 -22 71
-44 72 -48 2 -4 7 -8 12 -8 4 0 79 -41 166 -91 88 -50 179 -103 204 -117 25
-13 50 -28 55 -32 9 -7 25 -16 150 -85 28 -15 75 -43 106 -61 31 -19 62 -34
68 -34 6 0 11 -4 11 -10 0 -5 4 -10 10 -10 5 0 33 -14 61 -31 81 -47 236 -105
334 -124 88 -17 234 -24 275 -13 96 25 164 89 229 218 22 44 38 80 34 80 -3 0
-1 6 5 13 11 14 49 162 57 227 15 112 17 425 20 2240 3 1555 8 2593 16 3398 1
23 0 43 -1 45 0 1 -3 38 -5 82 -2 44 -11 109 -20 145 -20 81 -19 79 -33 113
-7 15 -16 37 -21 50 -35 90 -158 224 -277 305 -73 49 -177 112 -184 112 -4 0
-10 4 -12 8 -1 4 -74 53 -161 107 -193 123 -191 121 -268 169 -35 22 -65 44
-67 48 -2 4 -8 8 -14 8 -5 0 -29 14 -53 30 -24 17 -47 30 -50 30 -4 0 -17 8
-30 18 -32 24 -46 33 -175 114 -63 40 -116 76 -118 80 -2 4 -8 8 -12 8 -9 0
-184 110 -207 130 -7 5 -15 10 -17 10 -3 0 -59 35 -123 77 -65 43 -130 83
-145 90 -16 7 -28 17 -28 23 0 5 -5 10 -10 10 -13 0 -137 77 -166 102 -11 10
-23 15 -27 12 -4 -4 -9 1 -13 10 -3 9 -11 16 -17 16 -6 0 -40 20 -76 43 -36
24 -120 78 -186 120 -66 42 -138 89 -160 104 -22 16 -43 27 -47 25 -5 -1 -8 1
-8 6 0 4 -16 16 -35 26 -19 11 -35 23 -35 28 0 4 -5 8 -12 8 -13 0 -171 101
-176 113 -2 4 -8 7 -14 7 -6 0 -26 11 -45 26 -18 14 -33 23 -33 20 0 -3 -9 2
-20 12 -11 9 -36 26 -54 37 -85 50 -252 159 -257 167 -3 5 -10 10 -15 11 -5 0
-46 25 -91 54 -46 29 -85 53 -88 53 -3 0 -15 9 -27 20 -12 11 -34 26 -50 32
-15 7 -28 16 -28 19 0 4 -13 12 -30 19 -16 7 -30 16 -30 20 0 4 -8 11 -17 14
-21 7 -31 13 -148 90 -222 145 -285 186 -290 186 -3 0 -22 11 -43 23 -31 20
-133 64 -167 71 -49 12 -182 25 -188 19z m136 -1050 c60 -20 108 -44 169 -85
31 -21 62 -38 67 -38 6 0 11 -4 11 -9 0 -5 15 -16 34 -25 18 -8 39 -22 46 -31
7 -8 19 -15 26 -15 8 0 14 -4 14 -8 0 -5 11 -14 25 -20 14 -7 31 -17 38 -22 7
-6 35 -25 62 -42 28 -18 52 -35 55 -38 3 -3 17 -11 33 -19 15 -8 27 -18 27
-23 0 -4 4 -8 10 -8 9 0 332 -207 357 -229 7 -6 25 -17 40 -23 15 -7 34 -18
41 -25 6 -6 47 -33 90 -60 42 -26 79 -51 80 -55 2 -5 10 -8 18 -8 8 0 14 -5
14 -11 0 -5 5 -7 10 -4 6 3 10 2 10 -3 0 -5 15 -17 33 -26 38 -20 67 -37 83
-51 10 -9 304 -199 342 -220 9 -5 19 -12 22 -15 10 -10 120 -80 126 -80 3 0
20 -11 38 -25 18 -14 36 -25 40 -25 4 0 12 -5 19 -11 15 -13 255 -168 349
-225 10 -6 26 -18 36 -27 10 -10 22 -14 25 -11 4 4 9 -1 13 -10 3 -9 12 -16
18 -16 7 0 30 -13 52 -30 21 -16 44 -30 51 -30 6 0 13 -3 15 -7 4 -11 287
-193 299 -193 5 0 9 -4 9 -8 0 -5 10 -14 23 -21 53 -28 151 -93 155 -103 2 -5
8 -8 13 -8 5 0 55 -30 112 -67 160 -107 260 -214 308 -334 18 -47 22 -78 25
-247 2 -106 6 -197 9 -202 3 -5 1 -11 -5 -15 -6 -4 -8 -11 -4 -16 3 -6 8 -162
10 -347 6 -558 4 -3821 -2 -3850 -11 -49 -47 -167 -54 -175 -3 -4 -16 2 -28
13 -12 12 -22 19 -22 16 0 -3 -47 24 -105 59 -58 36 -107 65 -109 65 -4 0
-267 157 -316 188 -14 9 -27 16 -30 16 -3 0 -34 18 -70 41 -36 23 -81 50 -100
60 -19 10 -37 21 -40 24 -3 3 -16 12 -29 19 -13 8 -40 23 -60 34 -20 11 -48
29 -63 39 -14 11 -28 19 -31 19 -4 0 -189 106 -277 160 -35 21 -176 104 -204
120 -141 80 -235 135 -256 148 -14 9 -27 17 -30 17 -3 0 -39 20 -80 45 -41 24
-85 49 -97 55 -22 12 -22 12 20 60 50 58 169 185 253 271 197 202 325 391 436
644 27 60 88 240 82 240 -3 0 0 8 5 18 5 9 12 33 15 52 3 19 10 60 16 90 21
106 24 146 25 305 0 148 -6 244 -20 305 -3 14 -7 39 -10 55 -6 36 -13 70 -15
70 -1 0 -4 11 -6 25 -11 61 -79 238 -131 342 -31 62 -90 165 -131 228 -74 114
-88 134 -160 220 -47 57 -218 225 -268 265 -73 58 -142 105 -152 105 -6 0 -12
4 -14 9 -6 17 -210 124 -303 158 -22 8 -49 19 -60 24 -11 5 -29 11 -40 13 -11
2 -32 9 -48 15 -62 24 -229 62 -284 65 -13 0 -23 3 -23 7 0 3 -10 5 -22 6 -13
0 -48 3 -78 7 -144 17 -321 19 -1361 18 -1120 0 -1265 -3 -1359 -25 -94 -23
-149 -48 -191 -88 -68 -66 -95 -130 -115 -274 -8 -55 -15 -624 -18 -1400 -1
-424 -6 -776 -10 -783 -4 -7 -3 -12 1 -12 7 0 9 -134 3 -150 -1 -3 -1 -9 0
-15 2 -5 4 -325 6 -710 1 -385 4 -848 5 -1030 2 -286 -1 -373 -15 -445 -16
-84 -55 -162 -101 -203 -22 -19 -110 -68 -122 -67 -5 1 -30 -2 -58 -5 -75 -9
-92 -9 -185 1 -85 8 -200 9 -425 2 -153 -4 -201 9 -267 72 -26 25 -48 53 -48
61 0 8 -5 20 -10 25 -6 6 -12 19 -14 30 -2 10 -7 30 -10 44 -15 64 -16 104
-15 395 0 171 2 1073 4 2005 3 2159 6 2486 17 2528 5 19 11 42 13 52 2 10 12
37 23 61 11 24 23 54 26 67 4 12 11 22 16 22 4 0 10 8 14 18 5 17 26 52 36 62
3 3 26 28 53 57 26 29 47 49 47 45 0 -4 4 -2 8 3 10 15 141 105 152 105 4 0
10 4 12 8 2 5 64 48 138 97 74 49 137 93 138 97 2 5 9 8 16 8 6 0 21 7 31 16
18 13 142 95 374 247 40 26 77 47 82 47 5 0 9 5 9 10 0 6 4 10 9 10 10 0 136
80 162 103 9 8 30 20 47 28 18 8 32 17 32 20 0 4 14 12 30 19 17 7 30 16 30
21 0 4 10 11 23 15 12 4 24 10 27 13 3 4 39 28 80 54 41 25 80 51 87 57 7 5
14 10 17 10 5 0 178 110 201 128 6 4 42 26 80 50 39 23 126 78 193 122 68 44
128 80 133 80 5 0 9 5 9 10 0 6 5 10 10 10 6 0 16 5 23 10 11 9 79 53 412 267
50 31 200 130 335 219 238 157 329 210 379 219 13 2 26 7 30 10 10 11 133 2
174 -12z"/>
</g>
</svg>
