<?xml version="1.0" encoding="UTF-8"?><svg id="a" xmlns="http://www.w3.org/2000/svg" viewBox="0 0 411.59 91.79"><defs><style>.b{fill:#fff;}.c{fill:#666;}</style></defs><g><g><path class="c" d="M5.54,20.74c0-.7,.38-1.02,.96-1.02,.64,0,3.32,.77,3.89,.77,1.59,0,2.42-.38,10.27-3.57,3.06-1.21,11.81-4.79,17.87-4.79,9.38,0,16.27,7.27,16.27,15.76,.06,11.61-11.87,18.51-25.59,18.51-.57,0-1.53,0-1.53-.83,0-.51,.25-.51,2.62-.83,15.76-2.23,19.59-13.46,19.59-19.14,0-7.4-6-10.66-10.34-10.66-6.06,0-15.19,4.85-20.74,8.68-3.19,2.23-4.15,2.62-5.87,2.62-3.83,0-7.4-3.64-7.4-5.49Z"/><path class="c" d="M114.22,4.72c.51,2.17,.64,2.74,2.04,2.87,3,.32,4.15,.45,4.15,2.36,0,1.6-1.4,2.62-3.57,3.57-.64,.25-3.64,1.15-4.28,1.53-.96,.57-1.21,4.53-1.21,5.23s.19,.96,.7,1.53c1.47,1.85,2.11,2.62,2.11,5.17,0,4.98-3,7.66-3.38,7.98-.7,.51-.89,.7-.89,1.4,0,.57,.7,3.19,.7,3.83,0,.38-.13,1.53-1.4,2.11-1.15,.57-1.4,.7-1.4,1.4,0,3.19,3.64,4.66,10.72,4.66,11.74,0,13.02-3.13,13.21-14.29,.13-5.62,.38-16.85,7.21-16.85,3.96,0,7.98,7.53,7.98,11.17,0,2.11-1.47,3-2.11,3-.51,0-2.55-1.4-3.06-1.6-.64-.19-4.02-.96-4.02-1.34s2.23-.96,2.62-1.21c.96-.51,1.21-1.21,1.21-2.23,0-2.74-1.66-5.68-3.76-5.68-3.7,0-4.47,5.62-4.47,12.51,0,2.11,.25,5.62,.45,7.47,.13,.96,1.08,5.49,1.08,6.57,0,6.7-12.89,6.96-16.14,6.96-12.57,0-13.4-5.62-13.4-7.27,0-.57,.51-3.13,.51-3.7,0-.83-.13-.96-1.4-2.42-1.6-1.79-3.64-6.25-3.64-10.27,0-.96,0-5.74,5.3-8.04,.32-.13,1.98-.51,2.36-.64,.45-.13,.58-3.45,.58-3.7,0-.83-.32-.89-.7-.89-.64,0-3.89,.83-4.66,.83-2.04,0-4.85-2.81-4.85-5.36,0-.19,.06-.89,.51-.89,.51,0,2.94,.7,3.51,.83,1.02,.25,2.23,.38,3.77,.38,3,0,3.51,0,3.51-2.36,0-1.02-.19-2.74-1.02-4.4-.19-.38-1.47-1.98-1.47-2.42,0-.83,1.6-.7,2.11-.64,1.47,.26,4.15,1.21,4.53,2.87Zm-7.02,19.33c-1.6,0-3.51,1.79-3.51,5.1,0,2.23,1.15,4.66,2.94,4.66,.77,0,1.08-.83,1.28-1.4,.25-.96,.77-5.36,.77-6.32,0-1.4-.51-2.04-1.47-2.04Zm6.13-14.49c0,.45,.13,.64,.45,.64,.06,0,2.17-.57,2.17-1.28,0-.45-.57-1.02-1.34-1.02-.06,0-.38,0-.64,.13-.64,.38-.64,1.4-.64,1.53Z"/><path class="c" d="M205.86,4.79c1.08,3.76,2.87,6.57,3.38,6.57,.26,0,1.47-.45,2.42-1.02,1.34-.83,1.53-.89,2.3-.89,1.34,0,2.11,.96,2.11,1.85,0,.19,0,2.36-3.38,3.45-.45,.13-.89,.26-.89,.45s3.32,5.42,3.89,5.42c.25,0,2.3-.7,2.3-1.79,0-.26-.83-1.15-.83-1.4,0-.45,.57-.57,.89-.64,1.34-.13,3.45-.32,4.02-.32,2.04,0,3.77,1.02,3.77,2.81,0,1.28-.83,2.68-5.62,4.34-1.72,.57-1.91,.64-1.91,.96s.13,.45,2.11,3.57c3.06,4.85,4.08,7.66,4.08,10.02,0,2.62-2.04,4.4-3.77,4.4-1.59,0-2.04-.32-6.13-3.19-2.55-1.72-4.72-1.91-6.25-1.91-5.68,0-8.42,3.7-8.42,6.57,0,4.72,5.62,5.04,7.27,5.04,1.02,0,5.3-.45,6.19-.45,.7,0,3,.19,3,2.3,0,3.64-6.7,3.64-7.4,3.64-1.91,0-12.63,0-12.63-8.93,0-3.89,2.94-10.02,12.38-10.02,2.17,0,3.96,.25,6.13,.77,.57,.13,1.85,.38,3.06,.38,.64,0,1.4-.32,1.4-1.28,0-2.11-2.3-6.96-3.45-9.12-.32-.57-.57-.83-1.02-.83-.19,0-1.79,.45-2.11,.51-3.45,.89-5.81,1.28-8.81,1.28-4.28,0-6.13-.64-7.72-1.85-1.59-1.15-2.23-2.74-2.23-3.32,0-.45,.32-.64,.51-.64,.32,0,1.34,.7,1.53,.83,2.11,1.15,4.59,1.6,7.15,1.6,5.23,0,9.95-1.66,9.95-2.04s-3.57-6-4.28-6c-.19,0-3.51,.57-4.21,.57-4.91,0-8.68-3.45-8.68-4.66,0-.19,.13-.51,.45-.51,.19,0,2.04,.7,2.49,.83,1.4,.51,2.17,.64,3.51,.64s3.83-.26,3.83-.77c0-.13-3.25-5.17-6.51-6.76-1.85-.89-2.04-.96-2.04-1.47s1.08-1.66,2.49-1.66,5.1,.7,5.68,2.68Zm19.4,1.15c2.42,1.02,4.08,3,4.08,4.21,0,1.4-.77,2.55-1.79,2.55-.77,0-1.21-.26-3.45-2.49-1.08-1.15-2.04-1.85-4.79-3.45-.32-.19-1.02-.57-1.02-.89,0-.19,.51-.64,1.02-.64,3.57,0,4.21,0,5.93,.7Zm2.74-5.93c5.62,0,7.66,3.13,7.66,4.72,0,1.02-.64,1.85-1.6,1.85-1.34,0-1.85-.51-3.38-1.98-1.15-1.08-3.89-2.3-6-2.81-.64-.19-.89-.45-.89-.64,0-.38,.96-.83,2.23-1.02,.7-.06,1.53-.13,1.98-.13Z"/><path class="c" d="M290.03,43.9c-3.25,2.55-6.51,4.66-9.57,4.66-2.87,0-3.13-3.25-3.13-4.4,0-6.89,6.13-14.23,13.91-19.59,1.98-1.4,2.62-1.98,2.62-6.51,0-1.02-.19-1.34-1.4-1.34-.13,0-2.42,.13-2.87,.13-5.68,0-8.17-4.08-8.17-4.66,0-.38,.25-.64,.77-.64,.38,0,2.3,.57,2.68,.64,1.6,.19,3.13,.26,4.34,.26,1.15,0,4.85,0,5.23-.96,.38-.89,.57-4.47,.57-4.72,0-.64-.64-3.89-.64-4.02,0-.32,.32-.38,.57-.38,.13,0,5.62,1.15,5.62,2.55,0,.06-.96,2.11-1.02,2.23-.64,1.34-.89,2.55-.89,3.13,0,.51,.06,.64,.83,.64,1.34,0,7.21-2.11,8.42-2.11,1.53,0,2.68,1.02,2.68,2.11,0,2.04-2.3,2.62-7.72,3.96-3.76,.89-4.72,1.15-5.1,1.66-.32,.45-.7,2.23-.7,3.13,0,1.47,.32,1.6,1.08,1.6,.51,0,1.47-.19,1.85-.32,3.06-.77,5.81-1.21,7.98-1.21,9.32,0,14.49,6.45,14.49,14.61,0,13.85-12.7,17.42-18.63,19.02-.38,.13-2.94,.77-4.4,.77-.38,0-.64-.13-.64-.45,0-.26,.51-.45,1.28-.7,12.83-4.34,17.55-11.04,17.55-18.19,0-8.04-5.36-12.32-10.53-12.32-3.06,0-3.19,.38-4.34,4.15-1.08,3.45-2.11,5.04-4.4,8.68-.64,1.02-.7,1.34-.7,2.3,0,.51,.19,2.81,.19,3.25,0,1.72-.64,3.19-2.04,3.19-1.08,0-1.53-.77-1.98-1.47-.45-.77-.51-.89-.7-.89-.13-.06-1.98,1.4-3.06,2.23Zm2.87-7.59c.25-.64,.38-7.34,.38-8.04,0-.38,0-1.47-.45-1.47-2.36,0-11.36,10.72-11.36,15.51,0,.89,.32,1.53,1.34,1.4,2.17-.26,9.19-5.1,10.08-7.4Zm7.21-12.76c-3.32,0-3.32,2.17-3.32,4.4,0,.57,0,3.06,.77,3.06,.96,0,3.51-5.04,3.51-6.7,0-.06-.06-.51-.19-.64-.13-.13-.57-.13-.77-.13Z"/><path class="c" d="M374.78,17.04c0,.51-.13,.7-.77,2.55-.89,2.49-1.53,4.85-1.53,8.23,0,6.44,3.32,11.1,5.3,11.1,1.08,0,1.34-.32,3.25-3.51,.38-.64,1.47-2.17,1.98-2.17,.19,0,.32,.26,.32,.51s-.13,1.08-.19,1.28c-.7,2.94-.83,3.51-.83,4.85,0,1.08,.19,1.91,.38,2.55,.19,.7,.51,1.79,.51,2.11,0,1.28-1.34,1.98-2.42,1.98-4.08,0-12.12-6.7-12.12-18.89,0-1.79,.89-9.64,.89-11.29,0-1.28-.25-3-.45-3.7-.45-1.6-.51-1.79-.51-2.17,0-.19,.26-.26,.38-.26,2.94,0,5.81,5.1,5.81,6.83Zm31.14,1.47c3.25,2.62,5.68,7.15,5.68,12.19,0,1.21-.13,4.21-3.19,4.21s-3.13-3.45-3.13-4.28c0-5.3,0-7.98-3.38-11.36-.51-.51-3.06-2.49-3.06-2.87,0-.19,.26-.32,.57-.32,.06,0,3.77,.19,6.51,2.42Z"/></g><g><path class="b" d="M5.54,20.74c0-.7,.38-1.02,.96-1.02,.64,0,3.32,.77,3.89,.77,1.59,0,2.42-.38,10.27-3.57,3.06-1.21,11.81-4.79,17.87-4.79,9.38,0,16.27,7.27,16.27,15.76,.06,11.61-11.87,18.51-25.59,18.51-.57,0-1.53,0-1.53-.83,0-.51,.25-.51,2.62-.83,15.76-2.23,19.59-13.46,19.59-19.14,0-7.4-6-10.66-10.34-10.66-6.06,0-15.19,4.85-20.74,8.68-3.19,2.23-4.15,2.62-5.87,2.62-3.83,0-7.4-3.64-7.4-5.49Z"/><path class="b" d="M114.22,4.72c.51,2.17,.64,2.74,2.04,2.87,3,.32,4.15,.45,4.15,2.36,0,1.6-1.4,2.62-3.57,3.57-.64,.25-3.64,1.15-4.28,1.53-.96,.57-1.21,4.53-1.21,5.23s.19,.96,.7,1.53c1.47,1.85,2.11,2.62,2.11,5.17,0,4.98-3,7.66-3.38,7.98-.7,.51-.89,.7-.89,1.4,0,.57,.7,3.19,.7,3.83,0,.38-.13,1.53-1.4,2.11-1.15,.57-1.4,.7-1.4,1.4,0,3.19,3.64,4.66,10.72,4.66,11.74,0,13.02-3.13,13.21-14.29,.13-5.62,.38-16.85,7.21-16.85,3.96,0,7.98,7.53,7.98,11.17,0,2.11-1.47,3-2.11,3-.51,0-2.55-1.4-3.06-1.6-.64-.19-4.02-.96-4.02-1.34s2.23-.96,2.62-1.21c.96-.51,1.21-1.21,1.21-2.23,0-2.74-1.66-5.68-3.76-5.68-3.7,0-4.47,5.62-4.47,12.51,0,2.11,.25,5.62,.45,7.47,.13,.96,1.08,5.49,1.08,6.57,0,6.7-12.89,6.96-16.14,6.96-12.57,0-13.4-5.62-13.4-7.27,0-.57,.51-3.13,.51-3.7,0-.83-.13-.96-1.4-2.42-1.6-1.79-3.64-6.25-3.64-10.27,0-.96,0-5.74,5.3-8.04,.32-.13,1.98-.51,2.36-.64,.45-.13,.58-3.45,.58-3.7,0-.83-.32-.89-.7-.89-.64,0-3.89,.83-4.66,.83-2.04,0-4.85-2.81-4.85-5.36,0-.19,.06-.89,.51-.89,.51,0,2.94,.7,3.51,.83,1.02,.25,2.23,.38,3.77,.38,3,0,3.51,0,3.51-2.36,0-1.02-.19-2.74-1.02-4.4-.19-.38-1.47-1.98-1.47-2.42,0-.83,1.6-.7,2.11-.64,1.47,.26,4.15,1.21,4.53,2.87Zm-7.02,19.33c-1.6,0-3.51,1.79-3.51,5.1,0,2.23,1.15,4.66,2.94,4.66,.77,0,1.08-.83,1.28-1.4,.25-.96,.77-5.36,.77-6.32,0-1.4-.51-2.04-1.47-2.04Zm6.13-14.49c0,.45,.13,.64,.45,.64,.06,0,2.17-.57,2.17-1.28,0-.45-.57-1.02-1.34-1.02-.06,0-.38,0-.64,.13-.64,.38-.64,1.4-.64,1.53Z"/><path class="b" d="M205.86,4.79c1.08,3.76,2.87,6.57,3.38,6.57,.26,0,1.47-.45,2.42-1.02,1.34-.83,1.53-.89,2.3-.89,1.34,0,2.11,.96,2.11,1.85,0,.19,0,2.36-3.38,3.45-.45,.13-.89,.26-.89,.45s3.32,5.42,3.89,5.42c.25,0,2.3-.7,2.3-1.79,0-.26-.83-1.15-.83-1.4,0-.45,.57-.57,.89-.64,1.34-.13,3.45-.32,4.02-.32,2.04,0,3.77,1.02,3.77,2.81,0,1.28-.83,2.68-5.62,4.34-1.72,.57-1.91,.64-1.91,.96s.13,.45,2.11,3.57c3.06,4.85,4.08,7.66,4.08,10.02,0,2.62-2.04,4.4-3.77,4.4-1.59,0-2.04-.32-6.13-3.19-2.55-1.72-4.72-1.91-6.25-1.91-5.68,0-8.42,3.7-8.42,6.57,0,4.72,5.62,5.04,7.27,5.04,1.02,0,5.3-.45,6.19-.45,.7,0,3,.19,3,2.3,0,3.64-6.7,3.64-7.4,3.64-1.91,0-12.63,0-12.63-8.93,0-3.89,2.94-10.02,12.38-10.02,2.17,0,3.96,.25,6.13,.77,.57,.13,1.85,.38,3.06,.38,.64,0,1.4-.32,1.4-1.28,0-2.11-2.3-6.96-3.45-9.12-.32-.57-.57-.83-1.02-.83-.19,0-1.79,.45-2.11,.51-3.45,.89-5.81,1.28-8.81,1.28-4.28,0-6.13-.64-7.72-1.85-1.59-1.15-2.23-2.74-2.23-3.32,0-.45,.32-.64,.51-.64,.32,0,1.34,.7,1.53,.83,2.11,1.15,4.59,1.6,7.15,1.6,5.23,0,9.95-1.66,9.95-2.04s-3.57-6-4.28-6c-.19,0-3.51,.57-4.21,.57-4.91,0-8.68-3.45-8.68-4.66,0-.19,.13-.51,.45-.51,.19,0,2.04,.7,2.49,.83,1.4,.51,2.17,.64,3.51,.64s3.83-.26,3.83-.77c0-.13-3.25-5.17-6.51-6.76-1.85-.89-2.04-.96-2.04-1.47s1.08-1.66,2.49-1.66,5.1,.7,5.68,2.68Zm19.4,1.15c2.42,1.02,4.08,3,4.08,4.21,0,1.4-.77,2.55-1.79,2.55-.77,0-1.21-.26-3.45-2.49-1.08-1.15-2.04-1.85-4.79-3.45-.32-.19-1.02-.57-1.02-.89,0-.19,.51-.64,1.02-.64,3.57,0,4.21,0,5.93,.7Zm2.74-5.93c5.62,0,7.66,3.13,7.66,4.72,0,1.02-.64,1.85-1.6,1.85-1.34,0-1.85-.51-3.38-1.98-1.15-1.08-3.89-2.3-6-2.81-.64-.19-.89-.45-.89-.64,0-.38,.96-.83,2.23-1.02,.7-.06,1.53-.13,1.98-.13Z"/><path class="b" d="M290.03,43.9c-3.25,2.55-6.51,4.66-9.57,4.66-2.87,0-3.13-3.25-3.13-4.4,0-6.89,6.13-14.23,13.91-19.59,1.98-1.4,2.62-1.98,2.62-6.51,0-1.02-.19-1.34-1.4-1.34-.13,0-2.42,.13-2.87,.13-5.68,0-8.17-4.08-8.17-4.66,0-.38,.25-.64,.77-.64,.38,0,2.3,.57,2.68,.64,1.6,.19,3.13,.26,4.34,.26,1.15,0,4.85,0,5.23-.96,.38-.89,.57-4.47,.57-4.72,0-.64-.64-3.89-.64-4.02,0-.32,.32-.38,.57-.38,.13,0,5.62,1.15,5.62,2.55,0,.06-.96,2.11-1.02,2.23-.64,1.34-.89,2.55-.89,3.13,0,.51,.06,.64,.83,.64,1.34,0,7.21-2.11,8.42-2.11,1.53,0,2.68,1.02,2.68,2.11,0,2.04-2.3,2.62-7.72,3.96-3.76,.89-4.72,1.15-5.1,1.66-.32,.45-.7,2.23-.7,3.13,0,1.47,.32,1.6,1.08,1.6,.51,0,1.47-.19,1.85-.32,3.06-.77,5.81-1.21,7.98-1.21,9.32,0,14.49,6.45,14.49,14.61,0,13.85-12.7,17.42-18.63,19.02-.38,.13-2.94,.77-4.4,.77-.38,0-.64-.13-.64-.45,0-.26,.51-.45,1.28-.7,12.83-4.34,17.55-11.04,17.55-18.19,0-8.04-5.36-12.32-10.53-12.32-3.06,0-3.19,.38-4.34,4.15-1.08,3.45-2.11,5.04-4.4,8.68-.64,1.02-.7,1.34-.7,2.3,0,.51,.19,2.81,.19,3.25,0,1.72-.64,3.19-2.04,3.19-1.08,0-1.53-.77-1.98-1.47-.45-.77-.51-.89-.7-.89-.13-.06-1.98,1.4-3.06,2.23Zm2.87-7.59c.25-.64,.38-7.34,.38-8.04,0-.38,0-1.47-.45-1.47-2.36,0-11.36,10.72-11.36,15.51,0,.89,.32,1.53,1.34,1.4,2.17-.26,9.19-5.1,10.08-7.4Zm7.21-12.76c-3.32,0-3.32,2.17-3.32,4.4,0,.57,0,3.06,.77,3.06,.96,0,3.51-5.04,3.51-6.7,0-.06-.06-.51-.19-.64-.13-.13-.57-.13-.77-.13Z"/><path class="b" d="M374.78,17.04c0,.51-.13,.7-.77,2.55-.89,2.49-1.53,4.85-1.53,8.23,0,6.44,3.32,11.1,5.3,11.1,1.08,0,1.34-.32,3.25-3.51,.38-.64,1.47-2.17,1.98-2.17,.19,0,.32,.26,.32,.51s-.13,1.08-.19,1.28c-.7,2.94-.83,3.51-.83,4.85,0,1.08,.19,1.91,.38,2.55,.19,.7,.51,1.79,.51,2.11,0,1.28-1.34,1.98-2.42,1.98-4.08,0-12.12-6.7-12.12-18.89,0-1.79,.89-9.64,.89-11.29,0-1.28-.25-3-.45-3.7-.45-1.6-.51-1.79-.51-2.17,0-.19,.26-.26,.38-.26,2.94,0,5.81,5.1,5.81,6.83Zm31.14,1.47c3.25,2.62,5.68,7.15,5.68,12.19,0,1.21-.13,4.21-3.19,4.21s-3.13-3.45-3.13-4.28c0-5.3,0-7.98-3.38-11.36-.51-.51-3.06-2.49-3.06-2.87,0-.19,.26-.32,.57-.32,.06,0,3.77,.19,6.51,2.42Z"/></g></g><g><path class="b" d="M7.03,81.39c.07,0,.27,0,.27,.2,0,.15-.14,.16-.45,.19-.19,.01-.58,.03-.58,.56,0,.12,.02,.24,.05,.34,.09,.48,.98,3.57,1.25,4.49,.15,.52,.16,.58,.26,.58,.07,0,.11-.07,.12-.12,.09-.23,1.18-4.53,1.27-4.92,.02-.1,.05-.26,.05-.37,0-.51-.55-.55-.71-.56-.44-.04-.49-.04-.49-.2s.15-.19,.26-.19h2.38c.12,0,.31,0,.31,.19,0,.16-.05,.16-.48,.2-.72,.06-.84,.54-1.15,1.78-.42,1.68-1.11,4.35-1.53,6.03-.08,.35-.13,.51-.27,.51s-.16-.08-.36-.77c-.21-.73-1.21-4.33-1.44-5.13-.14-.48-.15-.54-.22-.54-.06,0-.09,.14-.14,.29-.42,1.44-1.13,3.73-1.55,5.17-.14,.49-.29,.98-.44,.98-.09,0-.17-.16-.21-.33-.13-.51-.77-3.04-.91-3.61-1.08-4.39-1.14-4.39-1.9-4.39-.16,0-.4,0-.4-.21,0-.13,.12-.17,.24-.17H3.05c.08,0,.33,0,.33,.2,0,.19-.13,.19-.49,.19-.3,0-.62,.09-.62,.54,0,.08,0,.2,.07,.47,.17,.65,1,3.85,1.19,4.58,.01,.04,.1,.41,.22,.41,.07,0,.14-.16,.16-.22,.19-.48,1.36-4.27,1.36-4.81,0-.24-.12-.62-.37-.81-.19-.14-.4-.14-.58-.14-.16,0-.36-.01-.36-.21,0-.17,.2-.17,.25-.17h2.83Z"/><path class="b" d="M17.84,86.83c-.15,0-.37,0-.37,.37,0,1.42,.97,2.4,1.93,2.4,.54,0,1.05-.31,1.41-.65,.07-.06,.34-.45,.44-.45,.06,0,.12,.06,.12,.15,0,.26-.82,1.46-2.35,1.46-1.63,0-2.55-1.29-2.55-2.98,0-1.93,1.2-2.96,2.47-2.96,1.8,0,2.32,1.91,2.32,2.4,0,.21-.12,.27-.35,.27h-3.06Zm2.14-.38c.26,0,.38-.06,.38-.34,0-.44-.42-1.63-1.4-1.63-1.08,0-1.42,1.46-1.42,1.71s.2,.26,.3,.26h2.13Z"/><path class="b" d="M31.19,85.74c.01,.4-.01,2.29-.01,2.72,0,.55,0,1.04,.47,1.04,.12,0,.3-.07,.37-.13,.01-.01,.08-.07,.09-.07,.02,0,.06,.01,.06,.07,0,.21-.48,.72-.98,.72-.37,0-.67-.28-.77-.52-.02-.08-.06-.19-.16-.19-.07,0-.17,.08-.28,.16-.45,.35-1.02,.55-1.54,.55-.7,0-1.48-.37-1.48-1.23,0-1.39,1.96-1.98,2.63-2.18,.7-.21,.77-.23,.77-.84,0-1-.56-1.37-1.09-1.37-.77,0-.9,.55-.93,.71-.08,.35-.16,.77-.62,.77-.3,0-.55-.24-.55-.57,0-.69,1.13-1.22,2.11-1.22,.92,0,1.89,.42,1.91,1.58Zm-.91,3.12c.06-.14,.08-.19,.08-1.56,0-.23,0-.43-.25-.43-.42,0-2.17,.78-2.17,1.87,0,.31,.2,.85,1,.85,.4,0,1.16-.35,1.33-.73Z"/><path class="b" d="M42.98,84.38c.12,0,.29,0,.29,.19,0,.17-.15,.19-.28,.2-.14,.01-.46,.13-.77,.85-.19,.44-1.04,2.65-1.22,3.14-.5,1.27-.55,1.34-.7,1.34-.14,0-.26-.24-.29-.3-.24-.51-.64-1.41-.95-2.11-1.16-2.63-1.26-2.84-1.67-2.92-.21-.04-.3-.06-.3-.2,0-.19,.17-.19,.3-.19h1.87c.12,0,.29,0,.29,.19s-.17,.19-.28,.19c-.36,0-.42,.27-.42,.36s.04,.16,.05,.21c.1,.23,1.16,2.56,1.37,3.04,.1,.23,.15,.35,.23,.35,.06,0,.12-.09,.14-.14,.04-.07,.82-2.05,.9-2.25,.34-.86,.37-.97,.37-1.12,0-.45-.31-.45-.56-.45-.09,0-.27,0-.27-.19s.17-.19,.28-.19h1.61Z"/><path class="b" d="M48.55,89.88c-.1,0-.27,0-.27-.19,0-.17,.14-.19,.36-.2,.15,0,.36-.07,.47-.33,.09-.2,.09-1.9,.09-2.32,0-.33-.01-1.68-.07-1.84-.06-.14-.19-.2-.33-.2-.06,0-.35,.04-.36,.04-.05,0-.11-.02-.11-.1s.06-.1,.58-.27c.15-.05,.87-.31,.97-.31,.12,0,.12,.1,.12,.22,0,.52-.01,3.14-.01,3.74,0,.85,0,1.34,.54,1.37,.23,.01,.37,.02,.37,.2,0,.19-.2,.19-.28,.19h-2.07Zm.37-8.03c0-.37,.3-.68,.68-.66,.37,0,.67,.29,.67,.66s-.3,.68-.67,.68-.68-.3-.68-.68Z"/><path class="b" d="M59.59,89.88c-.21,0-.21-.16-.21-.19,0-.16,.15-.19,.21-.19,.3-.03,.42-.05,.56-.24,.12-.19,.12-.38,.12-2.26,0-1.11,0-1.54-.25-1.91-.26-.4-.63-.43-.77-.43-.37,0-.86,.2-1.19,.52-.35,.36-.35,.54-.35,1.87,0,.3,0,1.72,.04,1.93,.07,.37,.27,.5,.57,.51,.12,.01,.31,.01,.31,.19,0,.02,0,.19-.23,.19h-2.17c-.23,0-.23-.16-.23-.17,0-.2,.14-.2,.31-.2,.29,0,.47-.19,.52-.35,.09-.27,.09-1.82,.09-2.22,0-1.89-.01-2.18-.52-2.18-.05,0-.29,.05-.34,.05s-.12-.01-.12-.1,.05-.1,.47-.2c.19-.05,1.16-.34,1.2-.34,.12,0,.12,.05,.12,.51,0,.16,0,.26,.08,.26s.41-.3,.48-.35c.47-.3,.87-.42,1.3-.42,.84,0,1.19,.45,1.3,.78,.16,.45,.16,.65,.16,2.46,0,.35,0,1.55,.08,1.76,.02,.08,.14,.34,.52,.35,.19,0,.33,.01,.33,.2,0,.17-.14,.17-.23,.17h-2.18Z"/><path class="b" d="M71.07,84.38c.08,.03,.45,.28,.55,.28,.06,0,.22-.13,.37-.24,.22-.19,.49-.26,.7-.26,.41,0,.68,.34,.68,.64,0,.26-.2,.55-.48,.55-.3,0-.43-.22-.55-.41-.06-.1-.12-.12-.16-.12-.09,0-.25,.03-.25,.19,0,.06,.16,.34,.2,.41,.1,.22,.17,.48,.17,.77,0,1.11-1.05,2.03-2.24,2.03-.11,0-.65-.09-.78-.09-.28,0-.55,.33-.55,.47s.1,.21,.19,.24c.15,.06,.22,.08,1.29,.12,.76,.02,2.68,.07,2.68,1.39,0,1.46-2.68,1.46-3.02,1.46-.88,0-2.54-.1-2.54-1.05,0-.61,.64-.87,1.01-.98,.07-.02,.22-.07,.22-.13s-.3-.15-.36-.19c-.19-.12-.3-.26-.3-.49,0-.41,.3-.64,.71-.84,.14-.07,.27-.13,.27-.17s-.17-.19-.25-.23c-.19-.14-.78-.68-.78-1.52,0-1.13,1.07-2.03,2.21-2.03,.5,0,.86,.16,.99,.22Zm-1.01,7.09c.73,0,1.86-.2,1.86-.98,0-.56-.43-.8-2.34-.8-.34,0-.54,0-.84,.19-.06,.04-.41,.26-.41,.72,0,.84,1.42,.87,1.72,.87Zm.02-3.57c1.23,0,1.23-1.54,1.23-1.75,0-.72-.28-1.68-1.23-1.68-.7,0-1.22,.56-1.22,1.71,0,.87,.34,1.71,1.22,1.71Z"/><path class="b" d="M93.39,81.39c.63,0,.77,0,.97,.52,.09,.26,.59,1.57,.59,1.69,0,.13-.12,.17-.19,.17-.09,0-.13-.05-.4-.49-.62-1.01-1.3-1.51-2.1-1.51-.45,0-.73,.19-.8,.58-.04,.21-.04,2.84-.04,3.33,0,.33,0,3.02,.04,3.21,.1,.59,.65,.61,.97,.61,.43,0,.52,0,.52,.19s-.16,.19-.35,.19h-3.26c-.16,0-.34,0-.34-.19s.19-.19,.26-.19c.69,0,1.12,0,1.23-.61,.03-.19,.03-.2,.03-3.29,0-2.88,0-3.19-.08-3.41-.12-.31-.43-.42-.75-.42-.93,0-1.62,.73-2.1,1.5-.28,.45-.3,.5-.41,.5-.08,0-.19-.07-.19-.17,0-.09,.52-1.49,.62-1.72,.19-.49,.37-.49,.95-.49h4.8Z"/><path class="b" d="M102.98,84.16c1.49,0,2.57,1.29,2.57,2.97s-1.08,2.97-2.57,2.97-2.57-1.3-2.57-2.97,1.06-2.97,2.57-2.97Zm0,5.62c.98,0,1.58-1.26,1.58-2.65s-.62-2.65-1.58-2.65c-.88,0-1.58,1.08-1.58,2.65,0,1.37,.59,2.65,1.58,2.65Z"/><path class="b" d="M114.73,84.38c.08,.03,.45,.28,.55,.28,.06,0,.22-.13,.37-.24,.22-.19,.49-.26,.7-.26,.41,0,.68,.34,.68,.64,0,.26-.2,.55-.48,.55-.3,0-.43-.22-.55-.41-.06-.1-.12-.12-.16-.12-.09,0-.25,.03-.25,.19,0,.06,.16,.34,.2,.41,.1,.22,.17,.48,.17,.77,0,1.11-1.05,2.03-2.24,2.03-.11,0-.65-.09-.78-.09-.28,0-.55,.33-.55,.47s.1,.21,.19,.24c.15,.06,.22,.08,1.29,.12,.76,.02,2.68,.07,2.68,1.39,0,1.46-2.68,1.46-3.02,1.46-.88,0-2.54-.1-2.54-1.05,0-.61,.64-.87,1.01-.98,.07-.02,.22-.07,.22-.13s-.3-.15-.36-.19c-.19-.12-.3-.26-.3-.49,0-.41,.3-.64,.71-.84,.14-.07,.27-.13,.27-.17s-.17-.19-.25-.23c-.19-.14-.78-.68-.78-1.52,0-1.13,1.07-2.03,2.21-2.03,.5,0,.86,.16,.99,.22Zm-1.01,7.09c.73,0,1.86-.2,1.86-.98,0-.56-.43-.8-2.34-.8-.34,0-.54,0-.84,.19-.06,.04-.41,.26-.41,.72,0,.84,1.42,.87,1.72,.87Zm.02-3.57c1.23,0,1.23-1.54,1.23-1.75,0-.72-.28-1.68-1.23-1.68-.7,0-1.22,.56-1.22,1.71,0,.87,.34,1.71,1.22,1.71Z"/><path class="b" d="M123.55,86.83c-.15,0-.37,0-.37,.37,0,1.42,.97,2.4,1.93,2.4,.54,0,1.05-.31,1.41-.65,.07-.06,.34-.45,.44-.45,.06,0,.12,.06,.12,.15,0,.26-.82,1.46-2.35,1.46-1.63,0-2.55-1.29-2.55-2.98,0-1.93,1.2-2.96,2.47-2.96,1.8,0,2.32,1.91,2.32,2.4,0,.21-.12,.27-.35,.27h-3.06Zm2.14-.38c.26,0,.38-.06,.38-.34,0-.44-.42-1.63-1.4-1.63-1.08,0-1.42,1.46-1.42,1.71s.2,.26,.3,.26h2.13Z"/><path class="b" d="M132.78,84.75c-.13,0-.31,0-.31-.19,0-.15,.06-.16,.4-.21,.19-.02,1.17-.26,1.17-1.75,0-.1,0-.27,.15-.27,.19,0,.19,.17,.19,.24v1.5c0,.1,.04,.29,.29,.29h1.23c.12,0,.33,.02,.33,.19,0,.07-.07,.19-.31,.19h-1.25s-.21,.01-.27,.15c-.05,.13-.05,1.43-.05,1.66,0,.35,0,2.21,.04,2.38,.15,.65,.69,.65,.8,.65,.24,0,.52-.09,.78-.29,.07-.05,.34-.31,.42-.31,.05,0,.07,.05,.07,.09,0,.21-.72,1.01-1.7,1.01-1.22,0-1.22-.92-1.22-2.1,0-.03,.02-2.56,0-2.96,0-.06-.01-.29-.29-.29h-.45Z"/><path class="b" d="M141.74,89.88c-.09,0-.31,0-.31-.19s.19-.19,.29-.19c.4-.01,.5-.29,.52-.35,.08-.23,.08-.73,.08-5.24,0-.35,0-1.65-.07-1.86-.04-.08-.15-.28-.44-.28-.05,0-.29,.05-.34,.05-.06,0-.12-.05-.12-.12,0-.08,.07-.1,.21-.14,.16-.05,1.4-.4,1.46-.4,.05,0,.11,.03,.11,.13,.01,.08,0,2.67,0,3.17,0,.24,0,.4,.13,.4,.08,0,.41-.27,.48-.31,.17-.12,.65-.38,1.26-.38,.8,0,1.2,.4,1.34,.85s.14,.5,.14,2.55c0,.35,0,1.4,.08,1.61,.02,.07,.15,.34,.52,.34,.22,0,.44,0,.44,.2,0,.16-.21,.17-.35,.17h-2.24c-.11,0-.31,0-.31-.19,0-.07,.05-.14,.13-.16,.07-.02,.48-.04,.56-.07,.36-.14,.36-.3,.36-1.98,0-1.48,0-2.01-.25-2.39-.24-.38-.62-.43-.77-.43-.57,0-1.3,.45-1.46,.93-.07,.22-.08,.24-.08,2.47,0,.99,0,1.44,.61,1.44,.16,0,.35,0,.35,.2,0,.17-.21,.17-.34,.17h-1.99Z"/><path class="b" d="M154.14,86.83c-.15,0-.37,0-.37,.37,0,1.42,.97,2.4,1.93,2.4,.54,0,1.05-.31,1.41-.65,.07-.06,.34-.45,.44-.45,.06,0,.12,.06,.12,.15,0,.26-.82,1.46-2.35,1.46-1.63,0-2.55-1.29-2.55-2.98,0-1.93,1.2-2.96,2.47-2.96,1.8,0,2.32,1.91,2.32,2.4,0,.21-.12,.27-.35,.27h-3.06Zm2.14-.38c.26,0,.38-.06,.38-.34,0-.44-.42-1.63-1.4-1.63-1.08,0-1.42,1.46-1.42,1.71s.2,.26,.3,.26h2.13Z"/><path class="b" d="M163.38,89.88c-.08,0-.3,0-.3-.19s.12-.19,.44-.19c.14,0,.38-.01,.54-.26,.11-.16,.13-.3,.13-1.93,0-.37,0-2.07-.07-2.27-.04-.13-.17-.22-.36-.22-.08,0-.48,.1-.56,.1-.07,0-.12-.06-.12-.12,0-.09,.06-.1,.57-.27,.16-.05,1.22-.38,1.28-.38,.04,0,.05,.01,.06,.03v.51c0,.62,0,.69,.12,.69,.06,0,.08-.02,.25-.23,.09-.13,.79-1,1.64-1,.43,0,.69,.27,.69,.66s-.3,.62-.58,.62c-.24,0-.36-.13-.45-.24-.07-.07-.17-.2-.34-.2-.29,0-.77,.35-.99,.76-.28,.5-.33,.77-.33,2.49,0,1.06,.04,1.26,.85,1.26,.09,0,.25,.03,.25,.19,0,.19-.21,.19-.3,.19h-2.4Z"/></g></svg>