<svg width="79" height="49" viewBox="0 0 79 49" fill="none" xmlns="http://www.w3.org/2000/svg">
<path d="M42.2544 47.4247L42.7397 45.6333L51.3777 44.4596H59.3777L66.6423 45.7569L66.1401 47.61L42.2544 47.4247ZM49.9344 47.4247C51.3678 42.6065 52.7708 37.6646 54.0428 32.9699L61.4406 5.66634L53.0753 6.77825L53.6444 4.67798L70.6958 1.03339L71.4885 1.65111L68.5378 11.5965L62.7468 32.9699C61.4748 37.6646 60.2638 42.6065 59.0864 47.4247H49.9344Z" fill="#1C5DB4"/>
<path d="M16.1278 48.4749C7.67981 48.4749 1.9413 41.3092 6.49376 24.5071C11.0127 7.82841 20.6175 0.724548 29.0655 0.724548C37.5135 0.724548 43.3327 7.82841 38.8138 24.5071C34.2613 41.3092 24.5758 48.4749 16.1278 48.4749ZM16.6969 46.3746C20.7929 46.3746 25.9551 41.4946 30.5578 24.5071C35.127 7.64309 32.5924 2.82482 28.4964 2.82482C24.3364 2.82482 19.3357 7.58132 14.7498 24.5071C10.1304 41.5563 12.5369 46.3746 16.6969 46.3746Z" fill="#1C5DB4"/>
</svg>
