<svg width="87" height="49" viewBox="0 0 87 49" fill="none" xmlns="http://www.w3.org/2000/svg">
<path d="M42.446 47.4248L43.7347 42.6682C48.7769 38.4677 53.7717 34.2054 57.845 30.7461C66.8491 23.0245 70.9785 18.8857 72.6857 12.5849C74.3928 6.2841 72.2108 2.76305 67.0268 2.76305C65.0428 2.76305 62.8777 3.19546 60.4004 4.30737L63.8268 2.76305L60.5974 9.24919C58.9227 12.832 56.9437 13.7586 55.1517 13.7586C53.4877 13.7586 52.3307 12.832 52.1564 11.3495C54.6237 4.36914 62.5872 0.724548 70.4592 0.724548C80.0592 0.724548 83.2642 5.66637 81.2725 13.0173C79.5486 19.3799 73.0926 24.0747 59.4628 33.2788C56.7039 35.1937 52.0074 38.5912 47.2941 42.0505L48.6006 39.8267L48.2826 41.0004H75.0986L73.358 47.4248H42.446Z" fill="#1C5DB4"/>
<path d="M16.1278 48.4749C7.67981 48.4749 1.9413 41.3092 6.49376 24.5071C11.0127 7.82841 20.6175 0.724548 29.0655 0.724548C37.5135 0.724548 43.3327 7.82841 38.8138 24.5071C34.2613 41.3092 24.5758 48.4749 16.1278 48.4749ZM16.6969 46.3746C20.7929 46.3746 25.9551 41.4946 30.5578 24.5071C35.127 7.64309 32.5924 2.82482 28.4964 2.82482C24.3364 2.82482 19.3357 7.58132 14.7498 24.5071C10.1304 41.5563 12.5369 46.3746 16.6969 46.3746Z" fill="#1C5DB4"/>
</svg>
