<svg width="86" height="49" viewBox="0 0 86 49" fill="none" xmlns="http://www.w3.org/2000/svg">
<path d="M55.7936 48.4749C46.8976 48.4749 42.8458 44.7685 43.7879 38.2206C44.8966 36.491 46.5861 35.6879 48.0581 35.6879C50.2981 35.6879 51.3409 36.7998 50.9629 40.3209L50.5829 46.6835L48.0771 44.8303C49.7933 45.8187 51.2426 46.3746 53.6746 46.3746C60.4586 46.3746 65.2556 42.6065 67.1134 35.7497C69.0382 28.6458 66.5086 24.7542 59.5966 24.7542H56.9086L57.5446 22.4068H59.9126C65.7366 22.4068 70.6251 19.0093 72.5499 11.9054C74.1734 5.91346 72.0829 2.76305 66.9629 2.76305C64.9789 2.76305 62.8138 3.19546 60.0973 4.24559L64.1332 2.57773L61.0682 8.69323C59.739 11.473 57.824 12.3996 55.84 12.3996C54.432 12.3996 53.4641 11.7201 53.1253 10.6082C55.5286 3.62787 62.6513 0.724548 69.8833 0.724548C79.3553 0.724548 82.9335 5.23396 81.2096 11.5966C79.5024 17.8974 73.7474 22.8392 62.5189 23.8893L62.7532 23.0245C74.8098 23.6422 78.0149 28.5841 76.0567 35.8115C74.0147 43.3478 66.0976 48.4749 55.7936 48.4749Z" fill="#1C5DB4"/>
<path d="M16.1278 48.4749C7.67981 48.4749 1.9413 41.3092 6.49376 24.5071C11.0127 7.82841 20.6175 0.724548 29.0655 0.724548C37.5135 0.724548 43.3327 7.82841 38.8138 24.5071C34.2613 41.3092 24.5758 48.4749 16.1278 48.4749ZM16.6969 46.3746C20.7929 46.3746 25.9551 41.4946 30.5578 24.5071C35.127 7.64309 32.5924 2.82482 28.4964 2.82482C24.3364 2.82482 19.3357 7.58132 14.7498 24.5071C10.1304 41.5563 12.5369 46.3746 16.6969 46.3746Z" fill="#1C5DB4"/>
</svg>
