<svg width="907" height="124" viewBox="0 0 907 124" fill="none" xmlns="http://www.w3.org/2000/svg">
<path d="M-156 6H906.5L857 124H-156V6Z" fill="url(#paint0_linear_928_655)"/>
<path d="M-129.5 0H900.5L852 114H-129.5V0Z" fill="white"/>
<path d="M512.94 71.36H531.1V72.52H512.94V71.36ZM519.38 50.52L525.86 51.16C525.7 51.88 525.34 52.36 524.02 52.52V86.16C524.02 86.56 522.14 87.52 520.26 87.52H519.38V50.52ZM528.98 58.88H528.58L530.74 56.48L535.3 59.92C535.06 60.24 534.5 60.64 533.7 60.8V74.12C533.66 74.36 531.3 75.24 529.78 75.24H528.98V58.88ZM510.06 58.88V56.96L514.82 58.88H530.54V60H514.58V74.4C514.58 74.84 512.62 75.88 510.74 75.88H510.06V58.88ZM502.34 62.8L504.1 60.48L508.14 61.96C508.02 62.32 507.66 62.6 506.94 62.72V86.24C506.86 86.56 504.98 87.6 503.18 87.6H502.34V62.8ZM505.26 50.04L511.74 51.96C511.54 52.48 511.02 52.84 510.14 52.8C507.14 60.72 502.86 66.88 497.58 71L497.1 70.68C500.38 65.68 503.66 57.76 505.26 50.04ZM558.06 53.2C554.38 60.12 546.38 66.92 537.58 70.16L537.34 69.68C544.7 65.24 551.82 56.44 553.42 50L560.7 51.76C560.54 52.32 559.98 52.56 558.74 52.72C562.22 58.4 569.3 61.56 575.86 63.44L575.78 64.04C573.66 64.68 572.3 66.72 571.94 68.56C565.42 65.32 560.34 60.44 558.06 53.2ZM554.34 65.04C554.26 65.56 553.98 66 553.02 66.12V69.84C552.9 76.4 551.06 84.16 538.54 87.64L538.26 87.2C547.26 82.72 548.3 75.8 548.3 69.8V64.48L554.34 65.04ZM565.9 64.92C565.82 65.48 565.5 65.88 564.42 66.04V86.28C564.42 86.68 562.34 87.6 560.5 87.6H559.62V64.36L565.9 64.92ZM577.5 72H607.74L610.5 68.56C610.5 68.56 613.66 70.88 615.58 72.52C615.46 72.96 615.02 73.16 614.46 73.16H577.82L577.5 72ZM579.7 63.36H606.18L608.9 60C608.9 60 611.98 62.28 613.86 63.88C613.74 64.32 613.3 64.48 612.7 64.48H580.02L579.7 63.36ZM606.42 50.08L611.34 54.84C610.9 55.2 609.94 55.28 608.58 54.76C601.22 56.28 589.86 57.36 579.94 57.2L579.82 56.6C589.22 55.4 600.62 52.64 606.42 50.08ZM594.1 54.88H599.22V81.4C599.22 84.76 598.22 87.16 591.94 87.56C591.82 85.96 591.46 84.72 590.54 83.96C589.58 83.24 588.42 82.68 585.58 82.24V81.72C585.58 81.72 591.82 82.12 593.06 82.12C593.82 82.12 594.1 81.8 594.1 81.24V54.88ZM617.9 58.16H633.46L635.46 55.36C635.46 55.36 637.74 57.32 639.1 58.64C639.02 59.08 638.62 59.28 638.06 59.28H618.22L617.9 58.16ZM617.7 71.44H633.38L635.74 68.48C635.74 68.48 638.38 70.52 639.98 71.92C639.86 72.36 639.46 72.56 638.9 72.56H618.02L617.7 71.44ZM625.82 50.04L631.46 50.56C631.38 51.08 631.06 51.44 630.1 51.6V66.36C630.1 66.72 628.22 67.52 626.62 67.52H625.82V50.04ZM624.58 67.68L630.34 68.64C630.22 69.2 629.74 69.6 628.66 69.6C627.7 71.96 625.06 77.52 623.5 80.28C622.46 80.72 620.62 80.64 618.98 79.88C620.82 76.88 623.74 70.44 624.58 67.68ZM624.62 58.36H629.26V58.96C627.02 63.16 622.9 66.36 617.78 68.56L617.42 68C620.7 65.52 623.22 61.92 624.62 58.36ZM629.74 60C640.3 61.2 637.34 68.6 633.42 66.16C632.74 64.12 630.9 61.72 629.42 60.24L629.74 60ZM619.54 51.04C628.1 53.32 624.26 59.48 621.1 56.72C621.02 54.84 620.06 52.68 619.18 51.28L619.54 51.04ZM631.02 71.8H636.14C634.22 80.12 628.38 85.16 617.94 87.64L617.7 87.16C625.86 83.76 629.94 78.68 631.02 71.8ZM623.78 77.24C639.58 76.96 637.02 86.28 632.46 84.4C631.18 82.72 627.82 79.84 623.66 77.72L623.78 77.24ZM632.82 50.96L637.7 52.8C637.5 53.28 637.02 53.56 636.14 53.52C634.7 54.96 632.98 56.48 631.5 57.44L630.94 57.12C631.5 55.64 632.22 53.2 632.82 50.96ZM640.82 59.68C642.46 70.92 646.98 79 656.02 83.4L655.9 83.8C653.7 84.24 652.38 85.48 651.78 87.6C644.14 82.08 641.46 72.48 640.34 60.6L640.82 59.68ZM647.58 59.16H652.74C651.62 72.4 647.54 82.64 632.38 87.56L632.1 87.12C643.78 80.72 647.1 71 647.58 59.16ZM640.98 50.12L647.46 51.6C647.3 52.12 646.82 52.48 645.94 52.52C644.18 59.72 641.38 65.64 637.34 69.68L636.82 69.36C638.9 64.36 640.5 57.04 640.98 50.12ZM641.02 59.16H648.86L651.34 55.92C651.34 55.92 654.14 58.16 655.82 59.68C655.7 60.12 655.26 60.32 654.7 60.32H641.02V59.16ZM685.7 50.08L691.7 50.68C691.62 51.24 691.34 51.68 690.26 51.84V85.92C690.26 86.44 688.3 87.56 686.58 87.56H685.7V50.08ZM657.54 65.72H670.26L672.5 62.84C672.5 62.84 675.02 64.84 676.58 66.24C676.46 66.68 676.02 66.84 675.46 66.84H657.86L657.54 65.72ZM663.58 65.72H668.5V66.36C666.74 72.6 663.06 77.72 657.94 81.6L657.5 81.16C660.54 77.04 662.54 71.12 663.58 65.72ZM671.54 53.52L676.9 55.12C676.74 55.6 676.22 55.96 675.38 56C673.94 58.4 672.14 61.08 670.54 63L669.9 62.72C670.42 60.4 671.06 56.64 671.54 53.52ZM664.74 50.12L670.46 50.68C670.38 51.28 670.1 51.68 669.02 51.84V86.04C669.02 86.52 667.18 87.6 665.54 87.6H664.74V50.12ZM669.02 69C679.74 71.2 676.18 79.04 672.3 76.12C671.94 73.72 670.26 71 668.66 69.24L669.02 69ZM658.34 53.64C667.06 58.4 662.86 65.32 659.62 61.96C659.7 59.24 658.78 56.08 657.9 53.8L658.34 53.64ZM676.06 63.2C687.14 64.4 684.1 72.56 680.02 69.92C679.5 67.6 677.58 65 675.74 63.48L676.06 63.2ZM676.82 53.6C687.66 55.44 684.18 63.32 680.22 60.48C679.78 58.16 678.06 55.52 676.5 53.88L676.82 53.6ZM674.74 77.36L690.38 74.2L692.14 70.72C692.14 70.72 694.62 72.36 696.18 73.52C696.18 73.96 695.78 74.28 695.3 74.36L675.3 78.4L674.74 77.36Z" fill="#142C4D"/>
<path d="M711.292 51.008H761.724L765.372 45.888C765.372 45.888 769.532 49.344 771.9 51.776C771.708 52.48 771.068 52.8 770.172 52.8H711.804L711.292 51.008ZM711.932 66.048H761.724L765.244 60.672C765.244 60.672 769.34 64.384 771.516 66.88C771.324 67.584 770.748 67.904 769.852 67.904H712.444L711.932 66.048ZM731.772 35.968H738.236V66.688H731.772V35.968ZM742.844 35.968H749.372V66.688H742.844V35.968ZM753.98 35.968H760.7V66.688H753.98V35.968ZM721.02 35.968V33.344L727.74 35.968H727.484V66.688H721.02V35.968ZM723.964 25.728L734.076 29.632C733.756 30.4 732.924 30.848 731.452 30.784C726.204 38.592 719.356 44.352 712.444 47.872L711.74 47.296C716.092 42.368 720.956 34.048 723.964 25.728ZM723.836 35.968H758.588L762.492 30.72C762.492 30.72 766.908 34.304 769.532 36.8C769.34 37.504 768.636 37.824 767.74 37.824H723.836V35.968ZM722.748 69.632H723.644C725.948 78.016 722.556 83.328 718.78 85.12C716.412 86.336 713.34 85.76 712.508 83.392C711.868 81.152 713.276 79.424 715.26 78.528C718.524 77.376 722.3 74.048 722.748 69.632ZM731.132 70.272C744.316 78.528 736.508 89.536 731.452 83.456C732.092 79.232 731.452 74.24 730.364 70.528L731.132 70.272ZM742.268 70.272C759.164 76.288 752.892 89.216 746.684 83.84C746.492 79.36 744.06 74.112 741.628 70.592L742.268 70.272ZM754.428 69.568C776.38 74.048 771.708 89.472 764.22 84.864C762.684 79.68 758.012 73.728 753.852 70.016L754.428 69.568ZM820.22 25.728L829.82 26.688C829.692 27.584 829.244 28.288 827.516 28.544V83.072C827.516 83.904 824.38 85.696 821.628 85.696H820.22V25.728ZM775.164 50.752H795.516L799.1 46.144C799.1 46.144 803.132 49.344 805.628 51.584C805.436 52.288 804.732 52.544 803.836 52.544H775.676L775.164 50.752ZM784.828 50.752H792.7V51.776C789.884 61.76 783.996 69.952 775.804 76.16L775.1 75.456C779.964 68.864 783.164 59.392 784.828 50.752ZM797.564 31.232L806.14 33.792C805.884 34.56 805.052 35.136 803.708 35.2C801.404 39.04 798.524 43.328 795.964 46.4L794.94 45.952C795.772 42.24 796.796 36.224 797.564 31.232ZM786.684 25.792L795.836 26.688C795.708 27.648 795.26 28.288 793.532 28.544V83.264C793.532 84.032 790.588 85.76 787.964 85.76H786.684V25.792ZM793.532 56C810.684 59.52 804.988 72.064 798.78 67.392C798.204 63.552 795.516 59.2 792.956 56.384L793.532 56ZM776.444 31.424C790.396 39.04 783.676 50.112 778.492 44.736C778.62 40.384 777.148 35.328 775.74 31.68L776.444 31.424ZM804.796 46.72C822.524 48.64 817.66 61.696 811.132 57.472C810.3 53.76 807.228 49.6 804.284 47.168L804.796 46.72ZM806.012 31.36C823.356 34.304 817.788 46.912 811.452 42.368C810.748 38.656 807.996 34.432 805.5 31.808L806.012 31.36ZM802.684 69.376L827.708 64.32L830.524 58.752C830.524 58.752 834.492 61.376 836.988 63.232C836.988 63.936 836.348 64.448 835.58 64.576L803.58 71.04L802.684 69.376Z" fill="#142C4D"/>
<path d="M172.86 75.4H202.46L205.3 71.8C205.3 71.8 208.5 74.24 210.42 75.88C210.34 76.32 209.86 76.52 209.3 76.52H173.18L172.86 75.4ZM178.22 53.32V51.28L183.34 53.32H201.82V54.44H183.02V70.72C183.02 71.24 180.98 72.32 178.94 72.32H178.22V53.32ZM200.02 53.32H199.62L201.86 50.8L206.46 54.4C206.22 54.72 205.7 55.04 204.86 55.24V70.24C204.82 70.56 202.42 71.48 200.78 71.48H200.02V53.32ZM180.78 68H201.94V69.16H180.78V68ZM180.78 60.52H201.94V61.64H180.78V60.52ZM188.9 68H193.86V86.52C193.82 86.76 192.34 87.64 189.82 87.64H188.9V68ZM213.1 56.68H229.82L231.5 53.96C231.5 53.96 233.42 55.88 234.46 57.16C234.38 57.6 233.98 57.8 233.46 57.8H213.42L213.1 56.68ZM212.46 74.48H229.7L231.62 71.48C231.62 71.48 233.78 73.6 234.94 75C234.86 75.44 234.46 75.64 233.94 75.64H212.78L212.46 74.48ZM216.18 50.56L221.82 51.12C221.74 51.6 221.42 51.96 220.5 52.12V75.2H216.18V50.56ZM225.5 50.6L231.26 51.12C231.14 51.68 230.86 52.04 229.9 52.2V75.2H225.5V50.6ZM218.18 76.16L223.9 78.52C223.7 78.96 223.14 79.28 222.26 79.2C219.78 83.16 216.42 85.92 212.86 87.64L212.38 87.24C214.66 84.72 216.9 80.56 218.18 76.16ZM224.62 76.52C235.02 78.64 231.18 86.28 227.3 83.32C227.06 81 225.62 78.4 224.26 76.76L224.62 76.52ZM218.38 62.2H227.38V63.36H218.38V62.2ZM218.34 68.12H227.5V69.28H218.34V68.12ZM237.06 53.12H246.66V54.24H237.06V53.12ZM236.94 61.88H246.94V63H236.94V61.88ZM236.94 71H246.54V72.12H236.94V71ZM244.22 53.12H243.82L245.86 50.72L250.3 54.16C250.02 54.48 249.46 54.84 248.66 55V82.16C248.66 85.28 247.98 87.04 242.98 87.52C242.86 86.08 242.66 84.96 242.14 84.32C241.54 83.6 240.7 83.12 238.9 82.84V82.24C238.9 82.24 242.58 82.48 243.38 82.48C244.02 82.48 244.22 82.24 244.22 81.68V53.12ZM234.54 53.12V52.72V51.32L239.5 53.12H238.82V66.24C238.82 73.8 238.1 82.12 229.02 87.44L228.58 87.08C233.94 81.32 234.54 74 234.54 66.28V53.12Z" fill="#142C4D"/>
<path d="M294.988 44.064H316.172V45.92H294.988V44.064ZM294.988 54.176H316.172V56.032H294.988V54.176ZM294.988 64.416H316.172V66.272H294.988V64.416ZM265.676 35.68H280.012L283.788 30.432C283.788 30.432 288.14 34.016 290.7 36.448C290.572 37.152 289.868 37.472 288.908 37.472H266.188L265.676 35.68ZM266.124 53.728H281.292L284.428 48.736C284.428 48.736 287.948 52.256 289.868 54.56C289.676 55.264 289.1 55.52 288.204 55.52H266.636L266.124 53.728ZM264.716 74.528C268.812 73.696 279.372 70.88 289.612 67.872L289.804 68.576C285.516 71.584 278.924 75.936 269.58 81.248C269.388 82.016 268.684 82.784 267.98 82.976L264.716 74.528ZM273.42 35.68H280.716V72.864L273.42 75.424V35.68ZM313.676 34.272H312.972L316.556 30.24L323.98 36C323.532 36.576 322.572 37.152 321.228 37.472V66.592C321.1 67.104 317.452 68.576 314.892 68.576H313.676V34.272ZM290.828 34.272V31.2L298.508 34.272H316.044V36.064H298.188V67.232C298.188 68 295.116 69.728 291.98 69.728H290.828V34.272ZM306.572 64.928H313.996C313.996 65.632 313.996 66.528 313.996 67.104V80.544C313.996 81.312 314.124 81.504 315.212 81.504H317.516C318.412 81.504 319.244 81.504 319.628 81.504C320.204 81.504 320.46 81.376 320.78 80.736C321.356 79.648 322.316 76.448 323.404 72.736H324.108L324.3 81.056C325.964 81.952 326.284 82.784 326.284 84.192C326.284 86.944 323.98 88.544 316.684 88.544H312.78C307.34 88.544 306.572 87.008 306.572 82.4V64.928ZM296.012 65.248H303.884C302.668 79.072 295.564 86.496 277.836 89.696L277.58 88.928C291.084 83.936 295.372 76.832 296.012 65.248ZM343.692 52.384H363.916L367.692 47.648C367.692 47.648 371.98 50.848 374.668 53.152C374.476 53.856 373.772 54.176 372.876 54.176H344.204L343.692 52.384ZM333.708 63.712H374.156L378.252 58.4C378.252 58.4 382.924 62.048 385.74 64.48C385.548 65.184 384.908 65.504 383.948 65.504H334.284L333.708 63.712ZM330.572 85.664H376.076L380.556 79.84C380.556 79.84 385.676 83.744 388.748 86.432C388.556 87.136 387.788 87.456 386.892 87.456H331.084L330.572 85.664ZM354.828 52.832H362.636V86.368H354.828V52.832ZM340.684 68C357.516 74.912 349.26 87.648 343.116 81.312C343.244 76.832 341.708 71.968 339.98 68.256L340.684 68ZM370.7 67.552L380.684 71.2C380.428 72.032 379.532 72.544 378.188 72.416C374.668 76.576 370.444 80.736 366.732 83.488L365.964 82.976C367.372 79.264 369.292 72.992 370.7 67.552ZM361.932 34.656C355.596 44.512 341.836 54.816 329.228 59.936L328.78 59.168C339.66 52.128 351.692 38.624 354.444 29.408L366.22 32.416C365.964 33.312 365.132 33.696 363.02 33.888C368.844 41.76 380.684 46.24 390.476 49.056L390.348 50.016C386.956 50.976 384.652 54.432 384.076 57.504C374.604 52.448 365.9 44.96 361.932 34.656ZM421.26 31.008L430.988 32.032C430.924 32.928 430.348 33.568 428.684 33.824V78.304C428.684 80.032 429.516 80.672 432.14 80.672H438.668C441.228 80.672 443.148 80.608 444.236 80.48C445.132 80.416 445.644 80.16 446.22 79.392C447.052 77.92 448.268 73.44 449.676 68.256H450.38L450.572 79.904C452.812 80.864 453.452 81.696 453.452 83.104C453.452 86.56 450.188 87.904 438.028 87.904H430.86C423.756 87.904 421.26 86.496 421.26 80.48V31.008ZM443.34 40.16L452.044 46.432C451.596 47.008 450.956 47.264 449.484 46.944C443.852 51.36 435.02 56.48 425.804 59.552L425.292 58.848C432.332 53.792 439.756 45.664 443.34 40.16ZM402.06 50.336L404.812 46.624L411.404 49.056C411.148 49.632 410.572 50.016 409.356 50.272V88.16C409.228 88.48 406.028 89.696 403.404 89.696H402.06V50.336ZM407.372 29.664L418.124 33.056C417.868 33.888 417.036 34.464 415.564 34.336C410.252 47.392 402.828 57.056 393.676 63.584L392.972 63.008C398.668 55.072 404.492 42.272 407.372 29.664Z" fill="#142C4D"/>
<line x1="495.879" y1="24.5909" x2="465.879" y2="94.5909" stroke="#142C4D" stroke-width="3"/>
<defs>
<linearGradient id="paint0_linear_928_655" x1="783.928" y1="5.99999" x2="683.392" y2="295.743" gradientUnits="userSpaceOnUse">
<stop stop-color="#8B6D38"/>
<stop offset="1" stop-color="#D5AF66"/>
</linearGradient>
</defs>
</svg>
