<?xml version="1.0" encoding="UTF-8"?>
<svg id="Layer_1" data-name="Layer 1" xmlns="http://www.w3.org/2000/svg" xmlns:xlink="http://www.w3.org/1999/xlink" version="1.1" viewBox="0 0 1035 463">
  <defs>
    <style>
      .cls-1 {
        clip-path: url(#clippath);
      }

      .cls-2 {
        fill: none;
      }

      .cls-2, .cls-3, .cls-4, .cls-5, .cls-6, .cls-7 {
        stroke-width: 0px;
      }

      .cls-3 {
        fill: url(#linear-gradient);
      }

      .cls-4 {
        fill: #1c5db4;
      }

      .cls-5 {
        fill: #fff;
        fill-rule: evenodd;
      }

      .cls-6 {
        fill: #7a9ed5;
      }

      .cls-7 {
        fill: #142c4d;
      }
    </style>
    <linearGradient id="linear-gradient" x1="518" y1="130" x2="518" y2="-18" gradientTransform="translate(0 434) scale(1 -1)" gradientUnits="userSpaceOnUse">
      <stop offset="0" stop-color="#fff"/>
      <stop offset="1" stop-color="#d5eaff"/>
    </linearGradient>
    <clipPath id="clippath">
      <rect class="cls-2" x="110" y="24" width="818" height="378"/>
    </clipPath>
  </defs>
  <path class="cls-3" d="M518,452L1,304h1034l-517,148Z"/>
  <g class="cls-1">
    <g>
      <path class="cls-7" d="M196,103.2c2.2-4.8,2.8-10.8.6-13.2-1.1-1.6-4.5-3.7-5.4-5.1-1.5-3,.2-7.9-5.1-10.6-.1-.2-9.1-5.8-9.3-6-2.1-.9-4.7-1.2-6.8-1.8-4.3-1.2-6.3,3.5-9.9,4.3-1.8.4-3.8.2-5.6.4-5.5.5-12.4,4.2-15.7,8.7-3,4,.2,6.2.2,6.3-1,2.1-8,4.8-8.8,13.7-.2,1.7,4,4.3,3.8,4.9-.8,2.3-3.6,6.5-.9,8.8,1.1,1,4,1.5,4.5,2.9.4,1.3-.8,3.2-.2,4.9,1.1,3,4,4.7,5,7.8l3.6-2.8c1.5,4.1,5.1,7,6.1,2.4.5-2.4-1.8-5.1-1.4-6,.6-1.5,4.7-2.9,4.1-4.9-.2-.7-2.4-2.1-2.2-2.7.9-2.2,4.1-5.1,4.1-7.6s-3.3-1.7-.9-5.6c2.9-4.7,12.3-7.7,17.3-8.7,2.9-.6,3-4,5.4-5.2,2.5-1.2,2.8,2.5,4.5,2.9,2.3.5,4.4-5.3,7.7,2.2l5.1,10Z"/>
      <path class="cls-7" d="M813.9,176.9c1,6.9,3.9,13.7,8.6,18.9.9,1,2.4-.5,1.5-1.5-4.4-4.9-7-11.5-8-18-.2-1.3-2.2-.8-2,.6h0Z"/>
      <path class="cls-7" d="M841.6,156.6c-1.1-.8-2.3-1.5-3.4-2.1-1.3-.7-2.7-1.4-4.1-2,3.7-2.4,6.6-6,8.6-9.9,2-4,3.4-9.1,1.7-13.4-.9-2.4-2.9-4.1-4.6-6-2-2.3-4.1-4.8-5.2-7.7-.5-1.3-.8-2.8-.7-4.2,0-1.2,0-2.2-.5-3.3-1.1-2.6-3.6-4.4-5.8-5.9-2.4-1.6-4.8-3.3-7.3-4.6-2.6-1.4-5.5-2.5-8.3-3.5,0,0-.1,0-.2,0,0,0-.1,0-.2,0-4.9-1.4-10.2-2.6-15.3-1.8-3.2.5-5.9,1.9-8.3,4-1.3,1.1-2.4,2.3-3.7,3.4-1,.9,1.1,3.3,1.1,3.3,0,0,0,2.6-2.3,5.2-2.3,2.6-3.9.6-3.9.6,0,0,.3,4.9-.6,6.6-1.6,2.9-4.3-2.2-4.3-2.2,0,0-2.9,3.1-4.4,4.7-4,4.2-5.4,13.7-5.1,18,.2,3.5.3,7.1,0,10.7,0,.9-.2,1.7-.4,2.5,0,.3-.2.7-.3,1,0,0-.3.5-.2.5,0,0-.1.2-.2.2-3.5.5-7.2,1.3-9.4,4.3-1,1.3-1.5,3.1-.7,4.7.8,1.5,2.5,2.1,4,2.4.9.2,1.8.3,2.6.5.2,0,.5,0,.8.1.5.3.9.5,1.1.8,0,0,0,0,0,.1,0,2-3.1,2.5-4.4,3.2-1.6.8-3,2.5-2.6,4.4.4,2.2,2.8,2.5,4.6,2.7,5.8.8,11.6,1.6,17.4,2.4.6,0,2.3.3,2.5-.3.1-.5-.3-1.8-.3-1.8l-1.6-14.5s-3.2,1-5.2-1.6c-1.6-2.1-1.7-6.4-1.6-7.9,0,0,0,0,.1,0,4-2.6,7.6-5.6,10.5-9.4,1.7-2.2,3.1-4.6,4.2-7.2,1.1-2.6,1.9-5.4,2.7-8.1.8-3.1,1.5-6.3,2.3-9.4,5.7,4.2,12.4,6.4,19.5,7.1,2.1.2,4.2.2,6.3.2,1.7,0,3.4.2,4.9.8,1.2.5,2,1.3,2.3,2.6.3,1,.5,2.1.6,3.2.9,4.8,1.3,9.7,1.3,14.6,0,.7.6,1,1.1,1,0,2.1,0,4.1-.2,6-.6,8.1-6.8,19.7-6.8,19.7,0,0-.2.7-1.1,1.3-1.1.8-2.6,2.7-1.5,2,1.5-1,5.2-.9,6.8-.5,2.2.5,4.3,1.4,6.5,1.9,2.2.4,4.8.3,6.4-1.6,1.1-1.3,1.7-3.3.9-5-.5-1-1.4-1.5-2.4-1.8-.3,0-1.1-.1-1.7-.3,2.1-1.1,4.1-2.3,6.2-3.4,1.8-1,5.1-2.2,3.9-4.9-.4-1-1.4-1.7-2.3-2.3h0ZM757.7,169.1c.2-.2.4-.3.6-.4-.2.1-.4.3-.6.4Z"/>
      <path class="cls-7" d="M775.7,151.6c1.6,9.4,3.1,18.9,3.6,28.4.2,2.7.2,5.5.1,8.2,0,2-.2,3.4-.7,5.2-.2.7-.4,1.4-.6,2.1,0,.1-.1.3-.2.4,0,.1,0-.2,0,0,0,0,0,.1,0,.2-.1.3-.2.5-.4.8-.6,1.2,1.2,2.2,1.8,1.1,1.4-2.7,1.9-5.8,2.2-8.8.5-6.5-.2-13.1-1-19.5-.7-6.2-1.7-12.4-2.8-18.6-.2-1.3-2.2-.8-2,.6h0Z"/>
      <path class="cls-6" d="M868.6,400c-.4-11.6-3.1-29.2-6-37.5,0,0-14.8-13.4-67.2-6.1-29.1,4.1-37.8,8.2-41.3,17.5-.2,5.6-1.2,17.5-1.7,26h116.3Z"/>
      <path class="cls-4" d="M928,264.4c-.2-3.2-1.7-6.2-3.5-8.8-2.4-3.5-5.3-6.5-8.3-9.4-3.7-3.5-7.5-6.8-11.4-10-4.1-3.4-8.3-6.8-12.5-10.2-2.1-1.7-4.1-3.4-6.1-5.1-1.3-1.1-2.8-2-4.1-3-6.7-5-13.3-9.9-20.6-14-8.4-4.7-17.6-8.1-27.2-9-2.5-.2-5-.2-7.4,0,0,0-.2,0-.2,0,0,0,0,0-.1,0-11.7,1.9-23.4,2.8-35.3,2.3-4.2-.2-8.4-.5-12.6-.8,0,0-.2,0-.2,0,0,0-.2,0-.3,0-12.1,0-24.2.3-36.2,1.9-5.3.7-10.7,1.6-15.6,3.6,0,0-.1,0-.2,0,5.3-12.5,11.5-24.6,18.9-36,2.4-3.6,4.9-7.2,7.5-10.7.2-.3.2-.7.1-1,0-.2-.2-.4-.3-.6-2.9-3-5.6-6.2-8.7-8.9-2.9-2.6-6.1-4.6-9.7-6.1-2.4-1-5-1.6-7.6-2.1-.8-.1-1.4.4-1.6,1-.2.1-.3.3-.4.6-1.7,5.1-3.6,10.2-5.8,15.1-2.1,4.7-4.5,9.3-7.1,13.8-3.1,5.5-6.4,11-9.6,16.4-1.8,3.1-3.9,6-5.8,9.1-1.7,2.7-3.3,5.4-4.8,8.2-2.4,4.3-4.7,8.9-5.7,13.7-.7,3.6-.5,7.4,1.8,10.3,1.7,2.2,4.2,3.7,6.5,5.1,3.5,2.1,7.1,4,10.7,5.8,11,5.5,22.4,10.5,33.7,15.3,1.6.7,3.1,1.4,4.7,2-1.2,15.9-1.1,31.9-.5,47.8.4,9.8,1,19.5,1.7,29.2.5,7.2,1,14.4,1.8,21.6.8,7.7,1.6,15.4,3.3,23,.2.7.7,1,1.2.9.2,0,.5,0,.7-.1,12.9-5.5,27-8.7,40.9-10.6,7.5-1.1,15-1.7,22.5-1.9,8.3-.2,16.6.2,24.9.3,9.3.1,18.7,0,27.9-1.8.7-.1,1.1-1,.9-1.6-1.5-4.2-4-7.8-5.6-11.9-.3-.7-.9-1.1-1.6-.9-.2,0-.5.2-.7.4-1.7-.5-5.3-1.2-9.9-.7-6.6.8-11.9,4.2-14.8,3.2-2.9-1.1-4.2-2.6-.8-3.7,3.4-1.1,11.9-3.4,11.9-3.4,0,0,4.7-1.1,1.8-2.1-2.9-1.1-10.3,0-14.5-.5-4.2-.5-12.4,0-11.1-1.8,1.3-1.8,11.9-4.5,11.9-4.5l5.3-1.3s-17.4-.3-20-1.6c-2.6-1.3.8-4,1.1-4.2.3-.3,1.8-1.1,1.8-1.1,0,0-1.8-2.9,4.2-4.5,6.1-1.6,6.6-1.6,11.9-1.1,4.2.4,13.6,3.1,16.6,4,0,.3.1.6.2.9.4,1.6,2.9.9,2.5-.7-1.3-6.2-2.3-12.2-2.7-18.4-.6-9.5,0-19.1,1.3-28.6.8-5.9,1.9-11.8,3.2-17.7,2,.9,4,1.9,6,2.8,6.8,3.2,13.6,6.3,20.4,9.4.9.4,1.8.8,2.7,1.2,0,.2-.1.3-.1.5,0,3.7-.8,7.3-1.9,10.8-1.2,4-2.9,8-4.7,11.8-3.3,6.9-7.1,13.5-11.5,19.7-.4.6-.8,1.2-1.3,1.8,0,0,0,0,0,0,0,0,0,0,0,.1,0,.1-.2.2-.3.3-.2.2-.3.4-.5.6-.3.3-.5.6-.8.9,0,0-.1.1-.2.2,0,0,0,0,0,0,0,0,0,0,0,0,0,0,0,0,0,0-.2,0-.3.2-.4.3-.1.1-.2.3-.2.5,0,.2,0,.4,0,.7,1.2,4.9,3.4,9.4,6.8,13.2,3.6,4.1,8.5,7.2,13.8,8.4,2.3.6,4.8.7,7.1-.3.3,0,.6-.2.8-.4.2-.2.3-.4.3-.6,1.2-2.7,2.5-5.4,3.7-8.1,2.4-5.3,4.8-10.6,7.2-15.9,2.8-6.3,5.7-12.6,8.4-19,2.6-5.8,5.1-11.7,7.5-17.5,1.5-3.7,3.2-7.5,4.3-11.4.5-1.7,1-3.5.8-5.2h0ZM867.9,319.6s0,0,0,0c0,0,0,0,.1,0,0,0,0,0-.1,0h0Z"/>
      <path class="cls-7" d="M559.9,151.2c1.7,3.2,3.4,6.3,4.7,9.7.7,1.8,1.4,3.6,1.8,5.5.3,1.4.6,3,.3,4.5-.3,1.4-1.1,2.5-2.5,3-1.3.4-.7,2.5.6,2,8.3-2.9,2.3-15-.2-20-.9-1.9-1.9-3.8-2.9-5.7-.6-1.2-2.4-.1-1.8,1.1Z"/>
      <path class="cls-7" d="M750.5,150.5c2.4-2.5,5.2-4.4,8.1-6.3,3.1-2,5.6-4.3,7.8-7.2.8-1.1-1-2.1-1.8-1.1-2.1,2.8-4.6,5-7.6,6.8-2.9,1.8-5.6,3.8-8,6.3-.9,1,.5,2.5,1.5,1.5h0Z"/>
      <path class="cls-7" d="M762.9,124.6c2-.4,3.9-1.1,5.6-2,1.2-.7.1-2.5-1.1-1.8-1.6.9-3.3,1.5-5.1,1.8-1.3.3-.8,2.3.6,2Z"/>
      <path class="cls-7" d="M243.3,402c-1.3-12.2-2.2-24.5-2.9-36.8-.2-3.6-.3-7.2-.5-10.8,0-1-.3-7.5-.3-7.5h-112.4c0,0-.3,3.9-.5,5.2-1.3,14.3-1.9,28.8-2,43.2,0,1.7,0,4.3-.1,6.7h118.6,0Z"/>
      <path class="cls-6" d="M243.9,351.4c-.6-8.4-1.6-16.8-3-25.1-.5-2.8-1-5.6-1.5-8.3-.4-2.1-.8-4.6-1.1-6.5-.3-2.2-.4-4.5-.3-6.7,0-1.6-2.4-1.7-2.6-.1-5.8-.6-30-3.3-42.2-5.8-13.9-2.8-33.7-8-33.7-8l-7.3-2.8s-3.1,7.3-8.3,9.8c-5.2,2.4-4.5,3.8-8.3,2.8-1.1-.3-1.9-.6-2.5-1,0-.7-.7-1.1-1.3-1-.2-.3-.3-.5-.3-.5v.5c-.5.2-.9.5-1,1.2-1,13.7-2.3,27.3-3.8,41-.3,2.8-.6,5.7-.9,8.5,0,.4.2.8.5,1,.1.1.3.2.5.2,14.6,4.6,29.7,7.4,45,8.5,15.3,1.1,30.6.6,45.8-1.5,8.6-1.2,17.1-2.8,25.5-5,.1,0,.2,0,.3-.1.4-.2.7-.6.6-1.1h0Z"/>
      <path class="cls-6" d="M264.8,233.9c-.6-6.4-.7-12.8-1.3-19.2-.4-3.6-1-7.2-1.7-10.8-.7-3.3-1.5-6.4-2.9-9.4-2.8-6.2-7.3-11.6-13.1-15.3-5.4-3.4-11.5-5.7-17.6-7.6-6.3-2-12.8-3.5-19-5.8-.4-.2-.8,0-1.1.1-.2.1-.4.4-.5.8-.8,3.8-2.7,7.2-5.6,9.8-3.3,2.9-7.6,4.4-11.9,5-.7,0-1.3.5-1.3,1.3s.2.8.5,1.1c0,2.2,0,7.7-.3,9.9-.3,2.8-4.5,7-7.3,10.8-2.8,3.8-8.3,24.4-10.1,28.6-1.7,4.2-10.1,37.3-10.1,37.3l19.8,3.8s16.3,3.1,28.2,2.1c11.8-1,22.9-6.6,22.9-6.6l-1-12.9,1.7-22.5s0,0,0,0c8.9-1.2,17.8-.7,26.6.4.9.1,1.9.2,2.8.3.8.7,2.3.4,2.1-.9h0Z"/>
      <path class="cls-6" d="M167.3,178.7c-4.7-1.6-8.1-5.7-9.7-10.3-.1-.4-.4-.7-.8-.8,0,0,0,0,.1,0,.7-.3.8-1.2.5-1.8-.4-.7-1.1-.7-1.8-.5-11,4.7-22.4,9.5-31.6,17.4-4.5,3.8-8.4,8.5-10.9,13.9-2.7,6-3.2,12.8-3.1,19.4,0,7.5,1,15,1.1,22.5,0,1.4,1.8,1.6,2.4.7.2,0,.5-.1.7-.3,3.2-2.7,7.2-4.4,11.2-5.5,2.7-.7,5.5-1.3,8.3-1.3,1.9,0,3.6.2,5.1.3,2.2.4,4.3,1.1,6.2,2.4,1.3.9,2.5-1,1.6-2,1.6-1.1,4.6-3.6,6.6-7.3,2.8-5.2,11.1-18.5,11.1-23.3s3.8-21.2,3.8-21.2c0,0,0,0-.1-.1.3-.7.1-1.6-.8-1.9h0Z"/>
      <path class="cls-7" d="M171.8,116.5c.4,1,.5,2,.6,3.1,0,.6.8.9,1.3.7.6-.2.8-.7.7-1.3-.1-1-.3-2.1-.6-3.1-.4-1.3-2.5-.7-2,.6Z"/>
      <path class="cls-7" d="M192,109.7c.4.9.5,1.9.7,2.8,0,.6.8.9,1.3.7.6-.2.8-.7.7-1.3-.2-1.2-.4-2.3-.9-3.3-.6-1.2-2.4-.2-1.8,1.1Z"/>
      <path class="cls-7" d="M163.8,117.2c.9-2,2.5-2.7,4.5-3.2,2-.5,4-.8,5.7-2,1.1-.8,0-2.6-1.1-1.8-1.8,1.2-4,1.4-6,1.9-2.2.6-4,1.8-5,4-.5,1.2,1.3,2.3,1.8,1.1h0Z"/>
      <path class="cls-7" d="M186.3,109.3c.5-2,1.6-2.7,3.5-3.2,1.8-.5,3.5-.9,4.9-2.2,1-.9-.5-2.4-1.5-1.5-1.3,1.3-3.3,1.3-4.9,1.9-2.1.7-3.4,2.2-3.9,4.4-.3,1.3,1.7,1.9,2,.6h0Z"/>
      <path class="cls-7" d="M182.9,116.4c.3,1.3.7,2.6,1.4,3.8.5.9,1.3,1.5,2.1,2.1.8.6,2.5,1.3,2.5,2.4,0,.7-1,1.1-1.5,1.3-.7.4-1.4.7-2,1.3-1,.9.5,2.4,1.5,1.5,1.2-1.1,3.3-1.4,4-3.1.7-1.7-.6-3.2-1.8-4.2-.9-.6-1.9-1.2-2.6-2-.8-1-1.1-2.4-1.4-3.7-.3-1.3-2.3-.8-2,.6h0Z"/>
      <path class="cls-7" d="M189.5,142.8c1.5-.4,2.8-1.6,3.9-2.7,1.1-1.1,2.1-2.4,2.8-3.8.6-1.2-1.2-2.3-1.8-1.1-.6,1.2-1.4,2.3-2.3,3.2-.8.9-1.9,2-3.1,2.3-1.3.3-.7,2.4.6,2h0Z"/>
      <path class="cls-7" d="M145.2,125.2c-3.6.4-4.2,4-3.5,7,.7,3.1,2.7,6.6,5.8,7.9,1.8.8,3.8.6,5.4-.6,1.1-.8,0-2.6-1.1-1.8-4.6,3.2-9-4.8-8.3-8.7.2-1.1.7-1.7,1.6-1.8,1.3-.1,1.3-2.2,0-2.1Z"/>
      <path class="cls-7" d="M150.8,137.1c2.3,3.4,4.4,7,5.9,10.8,1.5,3.7,2.6,8,1.9,12.1-.4,2.2-1.4,4.2-3,5.8-.9,1,.5,2.4,1.5,1.5,6.8-6.9,3.2-17.6-.7-25-1.1-2.1-2.4-4.2-3.7-6.2-.7-1.1-2.6,0-1.8,1.1h0Z"/>
      <path class="cls-7" d="M192,181.3c3.3-.6,4.4-5.1,4.3-7.9,0-1.4-.4-3-1.5-4-1.5-1.2-3.8-1.4-5.6-1.5-2.4-.1-4.8.1-7.2.1-1.3,0-1.3,2.1,0,2.1,2.3,0,4.6-.2,6.9-.2,1.5,0,4.3,0,5,1.5.7,1.3.5,3.2.2,4.6-.3,1.3-1,3-2.5,3.3-1.3.3-.8,2.3.6,2h0Z"/>
      <path class="cls-7" d="M189.2,178c-.4,2.5-.3,5-.4,7.5,0,2.3-.6,4.5-1.4,6.7-.7,2.2-1.7,4.3-3,6.2-.6.8-1.2,1.6-1.8,2.3-.7,1-1.3,2.1-1.7,3.2-2,4.6-4,9.2-5.7,13.9-1.7,4.5-3.2,9.2-4.4,13.8-2.3,8.6-4.1,17.3-6.6,25.9-2.3,7.9-5.5,15.6-9.5,22.8-1.8,3.1-3.6,6.2-5.6,9.2-1.9,2.8-4.1,5.9-7,7.9-1.1.8,0,2.6,1.1,1.8,2.6-1.8,4.6-4.4,6.5-6.9,2-2.8,3.8-5.7,5.6-8.6,3.9-6.8,7.2-13.8,9.7-21.3,2.9-8.6,4.7-17.5,7-26.3,1.2-4.6,2.5-9.1,4-13.6,1.7-4.9,3.7-9.7,5.7-14.4,1-2.5,2-4.9,3.6-7,1.6-2.1,2.8-4.2,3.8-6.6.9-2.3,1.7-4.8,2-7.3.3-2.8,0-5.7.4-8.5.2-1.3-1.8-1.9-2-.6h0Z"/>
      <path class="cls-7" d="M195.2,167.9c-.2-2.2-1.3-4.6-3.6-5.1-1.2-.3-2.5-.1-3.7-.3-1-.1-2.1-.3-3.1-.4-4.2-.4-9.2-.3-12.4,2.9-3.6,3.6-4.7,8.8-5.1,13.7-.5,5.7-1.1,11.4-2.3,17.1-1.1,4.7-2.6,9.2-4.6,13.5-1.6,3.5-3.2,7-5.2,10.2-5,8.2-10.6,16.1-17.2,23.1-4,4.2-8.5,8-12.5,12.2-.5.5-.9,1-1.3,1.4-.9,1,.6,2.5,1.5,1.5,3.6-4.1,7.8-7.6,11.6-11.4,5.9-5.9,11.1-12.6,15.7-19.5,2.5-3.7,4.8-7.4,6.7-11.4,1.7-3.3,3.3-6.7,4.6-10.1,2.1-5.6,3.3-11.5,4.1-17.4.4-2.6.6-5.2.8-7.9.2-2.4.4-4.7,1-7,.6-2.3,1.8-4.6,3.4-6.4,1.4-1.5,3.4-2.2,5.5-2.5,2.1-.3,4.3-.1,6.4.1,1,.1,2,.3,3.1.4,1.1,0,2.6-.2,3.5.6.7.6,1,1.7,1.1,2.6,0,1.3,2.2,1.3,2.1,0h0Z"/>
      <path class="cls-7" d="M173.4,166.1c1.4-3,2.5-6.2,4.2-9.1.4-.7.8-1.3,1.3-1.9.4-.4.6-.6,1.1-.7,1.6-.2,3.1,1.7,3.9,2.8,1.2,1.6,2.2,3.5,2.7,5.5.3,1.3,2.4.7,2-.6-.5-1.9-1.5-3.8-2.6-5.5-1.2-1.7-2.7-3.6-4.8-4.2-1.8-.5-3.2.3-4.2,1.7-1.3,1.6-2.2,3.5-3.1,5.4-.8,1.8-1.5,3.6-2.4,5.4-.6,1.2,1.2,2.3,1.8,1.1h0Z"/>
      <path class="cls-7" d="M181.9,162c-.1,0-.2,0-.4,0-.1,0,0,0,0,0-.1-.1,0,.1.1.1,0,0,.2.2.3.3.4.4.8.8,1.4,1,.5.2,1.1-.2,1.3-.7.2-.6-.2-1.1-.7-1.3.1,0-.1-.1,0,0-.1,0-.2-.2-.3-.3-.3-.3-.5-.5-.8-.8-.8-.5-1.6-.4-2.3.2-.4.4-.4,1.1,0,1.5.4.4,1.1.4,1.5,0h0Z"/>
      <path class="cls-7" d="M166.2,154.4c2.7,2.1,5.8,2.9,9.1,3.5,1.3.3,1.9-1.8.6-2-2.9-.6-5.8-1.1-8.2-3-1-.8-2.5.6-1.5,1.5Z"/>
      <path class="cls-7" d="M195.3,104.4c1.8,4.4,3.3,9,4.5,13.7,1.1,4.3,2.1,8.8,2.5,13.3.3,4,.2,8.1-.4,12.1-.4,2.8-1,6.1-2.7,8.6-.9,1.3-2.4,2-3.8,2.4-2.1.6-4.3.8-6.5,1.4-1.3.3-.8,2.3.6,2,3.6-.9,7.9-.9,10.7-3.7,2-2,2.8-5.2,3.3-7.9.8-4.1,1.1-8.3,1-12.4-.2-4.6-1.1-9.2-2.1-13.7-1.3-5.5-3-10.9-5.1-16.2-.5-1.2-2.5-.7-2,.6h0Z"/>
      <path class="cls-7" d="M190,93.7c2,3.4,3.8,7,5.3,10.7.5,1.2,2.5.7,2-.6-1.6-3.8-3.4-7.6-5.5-11.2-.7-1.2-2.5-.1-1.8,1.1Z"/>
      <path class="cls-7" d="M196,156.9c1.2,2,2.3,4,3.9,5.7,2.4,2.6,5.6,4.2,8.8,5.4,1.3.5,1.8-1.6.6-2-3-1.1-5.9-2.6-8-5-1.4-1.5-2.4-3.4-3.4-5.2-.7-1.2-2.5-.1-1.8,1.1h0Z"/>
      <path class="cls-7" d="M112.2,243.1c1.5,10.3,1.9,20.7,4.3,30.8,1.2,5.1,3,10.1,5.5,14.8,2.2,4,4.9,8,8.4,10.8,1.5,1.2,3.1,2.1,5,2.3,2.8.3,5.4-1,7.6-2.5,1.1-.8,0-2.6-1.1-1.8-1.8,1.3-4,2.5-6.3,2.2-1.4-.2-2.6-.9-3.7-1.7-.5-.4-.9-.8-1.4-1.2-.9-.7-1.6-1.6-2.3-2.5-1.7-2.1-3.1-4.3-4.4-6.6-4.8-8.8-6.6-18.7-7.7-28.5-.7-5.6-1.2-11.1-2-16.7-.2-1.3-2.2-.8-2,.6h0Z"/>
      <path class="cls-7" d="M232.2,223.5c-.3,12.1-1.6,24.1-1.2,36.2.1,3.3.4,6.7.8,10,0,.6.4,1,1,1,.5,0,1.1-.5,1-1-1.6-12-.7-24.1,0-36.1.2-3.4.3-6.7.4-10.1,0-1.3-2.1-1.3-2.1,0Z"/>
      <path class="cls-7" d="M262.4,236.9c0,6.6.2,13.3.5,19.9.2,4.8.1,9.7-.3,14.5-.6,6.8-1.3,13.8-3,20.4-.5,1.9-1,3.8-1.8,5.4-.3.6-.6,1.3-1,1.9,0,.1-.2.2-.2.3-.1.2,0,0-.1.2-.2.2-.4.4-.6.6-.2.2-.4.3-.5.5,0,0,.1,0-.1,0-.1,0-.2.2-.3.2-.6.4-1.3.7-2.1.9-2.9,1-6,1.3-9.1,1.4-8.2.2-16.4-1-24.6-1.8-8.4-.9-16.7-1.7-25.1-3-12.8-2-25.8-4.5-37.9-9.2-1.3-.5-2.7-1.1-4-1.7-1.2-.5-2.3,1.3-1.1,1.8,12,5.4,25.2,8.2,38.2,10.4,8.8,1.5,17.6,2.6,26.5,3.4,7.9.8,15.8,1.9,23.7,2.2,3.5.1,7,0,10.5-.5,2.1-.4,4.3-.9,6.1-2.1,2.4-1.6,3.7-4.3,4.6-7,2-5.6,2.7-11.7,3.4-17.6.7-5.9,1.2-11.7,1.1-17.7,0-5.7-.4-11.4-.5-17.2,0-2.1,0-4.3,0-6.4,0-1.3-2.1-1.3-2.1,0h0Z"/>
      <path class="cls-7" d="M162.6,272.1c4.2.9,8.4,1.8,12.7,2.6,4.7.9,9.5,1.5,14.3,1.9,9.6.8,19.4.3,29-1.1,5.7-.9,11.3-2.4,16.5-4.9,1.2-.6.1-2.4-1.1-1.8-8.6,4.3-18.3,5.4-27.8,5.9-9.8.6-19.6,0-29.2-1.7-4.7-.8-9.3-1.9-13.9-2.9-1.3-.3-1.9,1.7-.6,2h0Z"/>
      <path class="cls-7" d="M144.2,218.8v14.3c0,1.3,2.1,1.3,2.1,0v-14.3c0-1.3-2.1-1.3-2.1,0Z"/>
      <path class="cls-7" d="M195.3,368.1c-1.9,10.3-3.7,20.6-5.6,30.9-.2,1.3,1.8,1.9,2,.6,1.9-10.3,3.7-20.6,5.6-30.9.2-1.3-1.8-1.9-2-.6Z"/>
      <path class="cls-7" d="M192.6,145.5c0-.1,0-.1,0,0,0,0,0,0,.1-.1,0,0,0,0,0,0,0,0,.1,0,.2,0-.2,0,.2,0,.2,0-.3,0,.3,0,0,0,.5,0,1.1-.1,1.3-.7.1-.5-.2-1.2-.7-1.3-1.2-.2-2.3.3-2.9,1.3-.3.5-.1,1.1.4,1.4.5.3,1.1.1,1.4-.4h0Z"/>
      <path class="cls-6" d="M661.2,402l-3.8-54.6-119.9-1.8-8.7,56.5h132.4Z"/>
      <path class="cls-4" d="M665.2,213.2c-1-6.7-2.8-13.8-7.1-19.2-3.6-4.4-8.5-7.6-13.5-10.2-5.3-2.7-11.1-4.9-16.8-7-1.1-.4-6.7-2-6.7-2-.7-.3-.5,1.7-.5,1.7,0,0-.6,12.8-.6,14.2s-2.4,11.9-2.4,11.9c0,0-3.6,7.4-3.6,13s5,16.5,5,16.5l5.6,10.6c-.5,0-1,.3-1.2.9-1.3,3.4-4.9,5.7-7.9,7.5-3.3,1.9-6.9,3.5-10.5,4.9,0,0,0,0,0,0l-3.8-11.5-4.1-15.5-7.9-13.1-1.2-12.4s.3-7.1.3-7.7-.6-1.2-1.3-1.3c-5-.5-10.2-2-14-5.5-2.8-2.5-4.6-5.8-5.7-9.3-.4-1.4-.8-2.8-1.1-4.2.2-.3.2-.7.2-1-.3-1.6-2.3-.8-3.2-.6-2.4.7-4.8,1.6-7.2,2.4-2.1.8-4.3,1.5-6.4,2.3-2.7,1-5.5,1.9-8.1,3.1-3,1.3-5.9,2.5-8.9,3.8-5,2.2-9.7,4.9-13.1,9.3-4.8,6.3-6.6,14.6-8.1,22.2-.4,2.3-.8,4.6-1.3,6.9-.4,1.8-.8,3.5-1.1,5.3-.8,4-1.4,8-1.9,12.1-1.2,9-2,18-2.6,27-.5,8.5-.7,17-.3,25.5.2,3.4.8,7.2.9,10.6.4,10.2,9.6,13.5,11.8,13.8,2.3.3,4.7.3,7,.4,3.6,0,9.2.3,9.2.3-.2,0,0,4.2,0,5.9,0,2.2,0,4.4,0,6.5,0,4.3,0,8.6.1,12.9,0,3.6,0,7.5,2.1,10.7,1.6,2.5,4.2,4.1,7,5,3,1,6.1,1.2,9.2,1.4,4.3.3,8.7.5,13.1.6,8.6.2,17.2,0,25.8,0,7.9-.1,15.7-.6,23.6-.9,7.4-.3,14.7-.5,22.1-.7,3.7-.1,7.4-.4,10.9-1.5,2.7-.9,5.1-2.4,7.6-3.7,2.2-1.2,4.6-2.3,6.6-3.9,2-1.5,2.7-4.2,3.1-6.6,1-6.8-.8-13.8-2.4-20.3-.4-1.6-.8-3.3-1.2-4.9-.2-.7-2.3-5.4-2.5-5.9,1-.8,1.9-1.7,2.8-2.7,1-1.2,1.7-2.7,2.6-5.3,1-2.7.9-4.7,1.2-7.5.6-6.1.9-12.1,1.1-18.2.1-4.5.2-9.1.2-13.6,0-5.9.5-11.8.7-17.7.3-11.7.4-23.7-1.4-35.3h0ZM617.3,306.2h-12.8c-4.8,0-9.3,1.7-15.9,3.1-5,1.1-11.6,2.9-14.4,3.7-.1-.8-.3-1.5-.5-2.2-.2-1-.3-2.4-.3-3.4.2-15,3-20.7,2.7-21v-.2s15.6-3.1,22.4-4.8c6.9-1.7,10.7-8.3,10.7-8.3l11.4,31.1-3.4,2.1h0Z"/>
      <path class="cls-7" d="M605.2,257.2c-3.6-9-4.7-18.7-8-27.7-.7-2-1.5-4-2.5-5.9-.9-1.6-1.8-3.2-2.6-4.8-.9-1.7-1.5-3.3-1.9-5.2-.5-2.4-.8-4.9-1-7.4-.4-4.9-.5-9.9-.6-14.8,0-3.1,0-6.3-.7-9.3-.6-2.6-1.2-5.2-1.7-7.9-.4-2.3-.9-5-.3-7.2.1-.4.2-.6.4-.8-.1.2,0,0,0,0-.1,0,0,0,0,0,.2,0,.4.3.6.4.6.5,1,1.1,1.4,1.7.2.2.3.5.4.7-.2-.5.2.6.1.5.1.4.3.9.4,1.3,1.7,5.2,3.8,10.4,4.2,15.9,0,1.3,2.2,1.3,2.1,0-.3-5.2-2.1-10-3.7-14.9-.6-1.8-1-3.6-2.1-5.1-.8-1.1-2.1-2.6-3.6-2.7-2.6,0-2.8,3.7-2.8,5.5,0,3,.7,6,1.3,8.9.3,1.3.6,2.6.9,3.9.1.5.2.9.3,1.4,0,.2,0,.3.1.5,0,.2,0,.4,0,.2.4,5.2.3,10.4.4,15.5.2,5.2.6,10.4,1.8,15.5.8,3.5,3.1,6.6,4.7,9.8,5.1,10.2,5.8,22,10,32.5.5,1.2,2.5.7,2-.6h0Z"/>
      <path class="cls-7" d="M591.7,170.7c-.5-2.5-1.3-5-1.9-7.5-.4-1.4-.7-2.8-.9-4.2-.1-1-.3-2.1-.1-3,0-.2,0-.3.1-.5,0,0,0-.1,0-.1.2-.2,0,0,0,0,.1,0,.2-.1.4-.2.3,0,.5,0,.7.1,1,.6,1.6,2,2.1,3,1.8,4,3.1,8.1,4.4,12.3,1.5,4.6,2.8,9.3,4.4,13.9.4,1.3,2.5.7,2-.6-3.1-9-5.2-18.4-9.2-27-.6-1.3-1.4-2.7-2.7-3.4-1.3-.7-3-.4-3.9.8-1.3,2-.5,5.1,0,7.2.7,3.3,1.8,6.5,2.5,9.8.3,1.3,2.3.8,2-.6h0Z"/>
      <path class="cls-7" d="M593.5,156.2c0-1-1.6-5.6.8-5,.9.2,1.7,1.2,2.2,1.9.6.7,1.1,1.4,1.6,2.2,3.8,5.2,6.1,11.2,8,17.3,1.1,3.4,2.1,6.9,3.3,10.3.5,1.3,2.5.7,2-.6-2.4-6.8-4.1-13.9-7.1-20.5-1.4-3-3.1-5.7-5-8.4-1.2-1.7-3-4.3-5.4-4.3-1.4,0-2.8,1.1-3.1,2.5-.3,1.6.4,3.1.5,4.7,0,1.3,2.2,1.3,2.1,0h0Z"/>
      <path class="cls-7" d="M600.2,156c.5-.3.5-.3,1-.4.1,0,.5,0,.7,0,0,0,.2,0,.3,0,.2,0,.1,0,.1,0,.2,0,.4.2.6.3.5.3.6.4,1,.8,1.9,1.8,3.3,4.3,4.5,6.7,3,5.9,5.1,12.3,6.8,18.7.4,1.4.7,2.8,1,4.2.1.5.2,1.1.3,1.6,0,.1,0,.2,0,.3,0,0,0,0,0,.1,0,.2,0,.4,0,.6,0,1.3,2.2,1.3,2.1,0-.1-2.2-.7-4.4-1.3-6.5-.8-3.3-1.8-6.5-2.9-9.7-1.2-3.4-2.6-6.9-4.2-10.1-1.3-2.6-2.7-5.2-4.8-7.3-1.7-1.7-4.1-2.7-6.3-1.3-1.1.8,0,2.6,1.1,1.8h0Z"/>
      <path class="cls-7" d="M616.1,175.9c.3-.8,1.6-3.8,2.9-3,.5.3.6,1.3.6,1.8.1.9,0,1.8,0,2.7-.3,5.7-.2,11.4-1.1,17-.4,2.9-1.2,5.7-2.3,8.4-1,2.6-2.2,5.2-3,7.9-.7,2.7-.8,5.3-.3,8.1.5,2.8,1.4,5.5,2.5,8.1,2.4,5.9,5.7,11.5,8.3,17.3.5,1.2,2.3.2,1.8-1.1-2.5-5.6-5.6-10.8-7.9-16.4-1.2-2.8-2.2-5.7-2.7-8.7-.5-2.9,0-5.7.8-8.5,1-2.8,2.2-5.5,3.2-8.3,1.1-3,1.6-6.2,1.9-9.4.3-3.3.4-6.6.5-9.9,0-2.2.4-4.5.2-6.7-.1-2-.7-4.6-3.2-4.6-2.4,0-3.7,2.7-4.5,4.6-.5,1.2,1.5,1.8,2,.6h0Z"/>
      <path class="cls-7" d="M574.6,122.8c.5.8.9,1.5,1.3,2.3.3.7.9,1.7,1,2.3.1,1.3,2.2,1.3,2.1,0-.1-1.1-.6-2-1.1-3-.5-.9-1-1.9-1.5-2.7-.7-1.1-2.5,0-1.8,1.1Z"/>
      <path class="cls-7" d="M596.6,114c1,1,2.3,2.5,2.4,4,.1,1.3,2.2,1.3,2.1,0-.2-2.1-1.6-4-3.1-5.5-.9-1-2.4.5-1.5,1.5Z"/>
      <path class="cls-7" d="M568.9,123c1.3-3.2,3.5-5.8,7.2-6,1.3,0,1.3-2.2,0-2.1-2.1.1-4.1.8-5.7,2.3-1.6,1.4-2.6,3.3-3.4,5.3-.5,1.2,1.5,1.8,2,.6h0Z"/>
      <path class="cls-7" d="M592.1,112.7c.5-2.6,2.7-6.2,5.8-5.3,1.3.4,1.8-1.6.6-2-4.2-1.3-7.6,3-8.3,6.7-.2,1.3,1.8,1.9,2,.6Z"/>
      <path class="cls-7" d="M554.2,137c-2.3-.8-5.1.9-4.6,3.4.3,1.6.9,3.1,1.5,4.5.9,2.1,1.8,4.2,3.1,6.1,1,1.6,2.2,3.3,3.8,4.3,1.7,1.1,3.7.7,4.9-.9.8-1-.6-2.5-1.5-1.5-.2.2-.5.6-.6.6-.3.2-.3.2-.6.3,0,0-.3,0-.4,0-.4,0-.4,0-.7-.3-1.2-.7-2.2-2-3-3.2-1.8-2.8-3.3-6-4.3-9.3,0-.3-.2-.6-.2-.9,0-.1,0-.2,0-.3,0,.2,0,0,0,0,0-.1,0-.3,0,0,0-.3.2-.4.4-.6.5-.3,1.1-.4,1.7-.2,1.3.4,1.8-1.6.6-2h0Z"/>
      <path class="cls-7" d="M585.8,119.8c0,1.2.7,2.4,1.3,3.4.9,1.5,1.9,2.8,3,4.2,1,1.3,2,2.6,2.9,4,.2.3.3.5.5.8,0,.1.1.2.2.3,0,0,.2.4,0,.2,0,0,0,.2,0,.2,0,.1,0,0,0,0,.2-.4-.3.3-.4.4-1.5,1.5-3.8,2.1-5.5,3.4-1,.8.4,2.3,1.5,1.5,2-1.6,7.9-3,6.1-6.6-.6-1.3-1.6-2.5-2.5-3.7-1.1-1.5-2.3-3-3.3-4.5-.5-.7-1-1.5-1.4-2.3-.2-.3-.3-.5-.3-.7,0-.1,0-.3-.1-.4,0,0,0,0,0-.1,0-1.3-2-1.3-2.1,0h0Z"/>
      <path class="cls-7" d="M607.9,119.9c.1-.2.3-.4.5-.6,0,0,.9-.7.8-.8,0,.1-.8-.5-.3,0,.2.2.2.3.3.4.8,1.1,1.4,2.3,1.9,3.5,1.2,2.7,2.4,6.1,1.9,9-.2,1.4-.9,2.2-2.3,2.5-1.3.3-.8,2.3.6,2,4.1-.8,4.2-5.4,3.5-8.7-.4-2-1.1-4-1.9-5.8-.6-1.4-1.4-2.9-2.4-4.1-.5-.6-1.2-1.1-2-.8-1,.3-1.9,1.4-2.4,2.3-.7,1.2,1.1,2.2,1.8,1.1h0Z"/>
      <path class="cls-7" d="M607.8,128.2c1.2,4,2.4,8,3.1,12,.8,4.3,1.2,8.8.2,13.1-.6,2.3-1.5,4.5-3.1,6.3-.9,1,.6,2.5,1.5,1.5,6.3-7.3,4.5-18.1,2.3-26.7-.6-2.3-1.3-4.5-2-6.8-.4-1.3-2.4-.7-2,.6Z"/>
      <path class="cls-7" d="M602.4,108.2c1.4,2.9,2.6,5.8,3.8,8.8.5,1.2,2.5.7,2-.6-1.2-3.2-2.5-6.3-4-9.3-.6-1.2-2.4-.2-1.8,1.1h0Z"/>
      <path class="cls-7" d="M623.8,244.3c5.6,9.4,11.6,18.7,18.4,27.3,1.8,2.2,2.9,4.8,4.9,6.8,1,.9,2.5-.6,1.5-1.5-1.8-1.7-2.8-3.9-4.3-5.9-1.6-2.1-3.3-4.1-4.8-6.3-3.2-4.4-6.3-9-9.2-13.6-1.6-2.6-3.2-5.2-4.8-7.8-.7-1.2-2.5-.1-1.8,1.1h0Z"/>
      <path class="cls-7" d="M603.2,257.8c4,13.2,8.4,26.4,13.8,39.1,1.1,2.6,2.2,5.3,3.7,7.8,3,5.2,7.7,9.8,12.9,12.7,3.3,1.8,7,2.9,10.7,2.4,4.3-.5,8.6-2.7,12-5.3,1.1-.8,0-2.6-1.1-1.8-3.1,2.2-6.6,4.1-10.4,4.9-3.1.6-6.4,0-9.3-1.5-5.3-2.6-10-7.2-13.1-12.3-1.3-2.2-2.3-4.7-3.4-7.1-2.1-4.8-4-9.6-5.8-14.5-3-8.2-5.7-16.5-8.2-24.9-.4-1.3-2.4-.7-2,.6Z"/>
      <path class="cls-7" d="M573.6,314.8c1.7-.7,3.4-1.2,5.1-1.8,1.7-.6,3.3-1.3,5-1.9,3.4-1.2,6.9-2.2,10.4-2.9,3.5-.7,7-1.3,10.6-1.4,2.7-.1,5.4.1,8.1.2,3,0,6.1,0,8.9-1.3,1.2-.5.2-2.4-1.1-1.8-2.4,1.1-5.3,1.1-7.9,1-2.7,0-5.4-.3-8.1-.2-7.1.3-14.2,1.9-20.9,4.2-1.9.6-3.7,1.4-5.5,2-1.9.7-3.9,1.3-5.8,2.1-1.2.5-.2,2.3,1.1,1.8h0Z"/>
      <path class="cls-7" d="M530.8,284.2c11.1,1.8,22.4,2.3,33.6,2.9,3.5.2,7,.3,10.5.5,1.7,0,3.4-.2,5.1-.4,3.5-.5,6.9-1.3,10.3-2.3,7.1-2.2,13.7-5.8,19-11.1,1-1-.5-2.4-1.5-1.5-4.6,4.6-10.2,8-16.3,10-3.3,1.1-6.6,2-10,2.6-2.1.4-4.2.8-6.4.7-8.6-.2-17.1-.8-25.7-1.4-6.1-.5-12.2-.9-18.2-1.9-1.3-.2-1.9,1.8-.6,2h0Z"/>
      <path class="cls-7" d="M540,237.1c.2,11.8-1.5,23.5-1.9,35.3-.1,3.7-.1,7.4,0,11,0,1.3,2.1,1.3,2.1,0-.5-12.1,1-24,1.7-36.1.2-3.4.2-6.8.2-10.3,0-1.3-2.1-1.3-2.1,0Z"/>
      <path class="cls-7" d="M589.6,150.7c1.6-4.1,6.3-5.3,9.8-7.3,1.2-.7.1-2.5-1.1-1.8-2,1.1-4.2,2-6.2,3.2-2.1,1.3-3.7,3-4.6,5.3-.5,1.2,1.5,1.8,2,.6h0Z"/>
      <path class="cls-7" d="M604.5,93.3c-.7-.8-1.7-1.3-2.7-1.7-.9-.4-1.9-.6-2.7-1.2-1.1-.8-.6-2-.2-3.1.5-1.2.8-2.4.3-3.7-.6-1.5-2.1-1.8-3.5-1.5-3.4.7-6.8,1.1-10.3.9,1-1.7,1.5-3.5,1.7-5.5,0-.7-.7-1.2-1.3-1-3.8,1.2-7.6,2.3-11.3,3.5-1.5.5-3.4,1.4-4.5-.2-1-1.5-.5-3.5,0-5.2.2-1-.7-1.5-1.5-1.2-5.8,2.4-11,6.1-15.3,10.6-1.1,1.1-2.1,2.3-3.1,3.6-.5.6-.9,1.2-1.3,1.8-.2.3-.4.6-.6.8-.3.3-.8.5-1.2.8-2.2,1.6-4.1,3.6-5.4,6-1.2,2.1-1.9,4.5-2.8,6.8-.6,1.6-1.2,3.1-1.4,4.8-.2,1.7.2,3.2.9,4.7.7,1.4,1.7,2.7,1.9,4.3.2,1.7-.2,3.5.4,5.1.8,2.3,2.7,4.1,4,6.1,2.2,3.2,4.3,6.6,6.4,9.9.3.4.7.6,1.2.5,1.2-.3,2.5-.4,3.7.1,1.2.5,2.3,1.1,3.4,1.7.5.3,1.1.1,1.4-.4.6-1.1.2-2.3-.2-3.3-.6-1.3-1.4-2.5-2.3-3.7-.8-1.1-1.7-2.1-2.4-3.2-.1-.2-.3-.4-.4-.5,0,0,0-.1-.1-.2,0,0,0-.2,0-.2,0-.4.2-.7.4-1.1.6-1.4,1.4-2.8,1.8-4.3.4-1.3-.5-2.2-1.3-3.2-1-1.4-2-2.8-2.8-4.3-.3-.6-.7-1.2-.9-1.8-.2-.6.2-1.3.5-2,.5-1.2.5-2.1,0-3.3-.2-.5-.1-.9.1-1.4,0,0,0,0,0,0,.1.2.3.4.4.6.2.4.3.8.6,1.1.3.3.9.4,1.3.2,1.8-1.3,2.5-3.5,3.7-5.4.8-1.3,1.9-2.6,2.8-3.8.3-.4.6-.7.9-1.1,0,.2,0,.4-.1.6-.2.7-.5,1.4-.6,2.2-.1.6-.2,1.4.2,1.9.4.5,1.1.4,1.6.2,1.3-.5,2.4-1.4,3.5-2.2,1.5-1,3-2.1,4.5-3.1.2-.1.4-.3.6-.4-.3,1.1-.6,2.3.3,3.1,1.2,1.1,2.6-.4,3.5-1.1,1.3-1,2.6-2.1,4-3-.1.3-.3.5-.4.8-.2.9.6,1.6,1.4,1.4.6-.1,1.1-.5,1.7-.7,1.6-.8,3.2-1.7,4.9-2.1,0,0,.2,0,.4,0,0,.2,0,.4,0,.5-.2.8.1,1.4.9,1.8.7.4,1.6.7,2.4.9.5.2,1.3.6,1.9.4.4-.1.6-.5.9-.8,0,0,.1-.1.2-.2,0,0,.1,0,.2-.1,0,0,0,0,.1,0,0,0,.4,0,.3,0,.1,0,.2,0,.4,0h0s0,0,0,0c.1,0,.2,0,.3,0,.2,0,.1,0,.1,0,.1,0,.2.1.3.2.2.1.5.3.6.4,1.4,1.1,2.4,2.7,3.4,4.2.8,1.3,1.4,2.5,2.1,3.9.2.5,1,.7,1.4.4.1,0,.2-.2.3-.3,0,0,0,0,0,0,.3-.2.5-.4.5-.9,0-3.4,1-6.7.9-10,0-1.5-.2-2.9-1.2-4.1h0ZM580.7,96.7s0,0,0,0c0,0,0,0,0,0ZM581.2,97.4s0,0,0,0c0,0,0,.1,0,0ZM581.2,97.3s0,0,0,0c0,0,0,0,0,0ZM555.3,129.7c0,0,0,0,0,0h0ZM563,98.2s0,0,0,0h0ZM563,102.6s0,0,0,0c0,0,0,0,0,0h0ZM580.9,97.9c0,0,.1-.1,0,0h0ZM588.4,96.8s0,0,0,0c0,0,0,0,0,0ZM555.3,129.7s0,0,0,0c0,0,0,0,0,0,0,0,0,0,0,0h0ZM564,103.3s0,0,0,0c0,0,0,0,0,0,0,0,0,0,0,0ZM580.9,97.9c-.4,0-.2.1,0,0h0Z"/>
      <path class="cls-7" d="M602.4,382.8c-2.4,4.8-4,9.9-6.2,14.8-.5,1.2,1.3,2.3,1.8,1.1,2.2-4.9,3.8-10,6.2-14.8.6-1.2-1.2-2.3-1.8-1.1Z"/>
      <path class="cls-7" d="M631.2,228.4v19.3c0,1.3,2.1,1.3,2.1,0v-19.3c0-1.3-2.1-1.3-2.1,0Z"/>
      <path class="cls-7" d="M575.5,166.6c1.4.6,2.8,1.3,4.3,1.7,1.4.4,2.9.5,4.4.5,1.3,0,1.3-2.1,0-2.1-1.3,0-2.6,0-3.8-.4-1.3-.3-2.6-.9-3.8-1.5-1.2-.6-2.3,1.2-1.1,1.8Z"/>
      <path class="cls-7" d="M660.5,25c-4.1-1.1-9-1.9-12.4,1.3-1.3,1.2-2.2,3-2.1,4.8,0,2,1.1,3.7,2.3,5.1,2.1,2.5,5.3,4.7,5.1,8.3-.2,4.3-6.7,1.8-9,.9-3.6-1.3-7.2-3.2-11.2-3.2-1.7,0-3.7.4-5,1.5-1.2,1-2,2.5-2.3,4-.3,1.7,0,3.4,1.4,4.6,1.6,1.5,3.8,2.4,5.8,3.3,2,.9,4.1,1.7,6.2,2.5,1.7.7,3.4,1.5,4.7,2.8.5.5.9,1.1.9,1.8,0,0,0,.6,0,.6-.2-.1.4-.5.4-.5.2-.2,0,0,0,0,0,0,.1,0-.1,0-.9,0-1.8,0-2.7,0-2.5.2-4.7,1.6-4.5,4.4.1,2.9,3,4.7,5.4,5.8,3,1.4,6.3,2.5,9.4,3.5,9.3,2.9,19,4.1,28.4,6.5,2.5.7,4.9,1.5,7.4,2.2,2.1.6,4.4,1.1,6.5.3,1.7-.6,3.2-1.9,3.6-3.6.5-1.9-.3-4.2-1.5-5.8-1-1.3-2.3-2.1-3.6-3.1-1-.7-2.4-1.6-2.9-2.8-.6-1.5,1.6-2,2.7-2.1,2,0,3.8,1,5.7,1.6,1.9.7,3.9.9,5.7,0,1.5-.8,2.7-2.4,2.5-4.1-.2-1.9-2.1-3.2-3.8-3.9-1.5-.7-3-1-4.5-1.5-1.7-.6-3-1.6-4-3.1v.8c.5-1.4,2-1.7,3.3-1.7,1.6,0,2.9.5,4.4.8,1.6.4,3.2.6,4.8.3,1.2-.3,3.5-1.5,3.1-3-.3-1.4-1.4-2.8-2.4-3.8-1.4-1.6-3.1-2.9-4.7-4.1-4.3-3.3-9.1-6-13.9-8.6-5.2-2.8-10.4-5.3-15.8-7.6-4.4-1.9-8.9-3.9-13.5-5.2-1.3-.4-1.8,1.7-.6,2,3,.8,5.8,2,8.7,3.1,4,1.6,7.9,3.4,11.8,5.3,7.8,3.7,15.8,7.8,22.7,13.1,1.4,1.1,2.8,2.3,4,3.6.8.9,1.5,1.9,1.8,2.9,0-.3,0-.5.1-.8-.9,1.5-2.8,1.4-4.3,1.2-1.7-.3-3.3-.9-5-1.1-1.6-.2-3.4,0-4.8,1-.6.5-1.1,1.1-1.4,1.8-.4,1.1.4,1.9,1.1,2.7,1.2,1.3,2.9,2.1,4.6,2.7,1.6.5,3.2.9,4.6,1.8.7.4,1.7,1,1.6,1.9,0,.8-.8,1.5-1.5,1.9-2,1.1-4.4-.3-6.2-1-1.8-.7-3.6-1.1-5.5-.7-1.5.4-3.6,1.7-3.4,3.5.3,3.3,3.9,4.7,6,6.6,1.3,1.2,2.8,3.4,2.1,5.2-.7,1.9-3.1,2.4-4.9,2.2-2.6-.3-5.2-1.5-7.8-2.2-2.4-.7-4.9-1.3-7.4-1.8-5-1.1-10-2-15-3.1-4.6-1-9.1-2.4-13.6-4-1.3-.5-2.6-.9-3.8-1.5-1.3-.6-2.8-1.4-3.7-2.6-.6-.7-.8-2-.2-2.8.5-.7,1.6-.9,2.4-.9,1,0,2,0,2.9-.1,1.3-.2,1.5-1.6,1.3-2.8-.4-1.8-1.9-3.2-3.4-4.1-1.8-1.1-3.7-1.8-5.6-2.6-2.2-.9-4.3-1.7-6.4-2.8-1.6-.9-3.8-1.9-3.6-4,.2-1.6,1-3.1,2.6-3.7,1.8-.7,3.8-.6,5.6-.1,4.1,1,7.7,3.2,11.8,4,2,.4,4.2.6,5.9-.7,1.2-1,1.7-2.6,1.6-4.1-.1-1.8-.8-3.5-1.8-4.9-1.1-1.6-2.7-2.8-3.9-4.3-1.2-1.5-2.2-3.4-1.4-5.3.7-1.7,2.5-2.8,4.2-3.2,2.5-.5,5,.1,7.4.8,1.3.4,1.8-1.7.6-2h0Z"/>
      <path class="cls-7" d="M649.2,83.9c1.1.1,2.2.3,3.3.7.9.4,2.1,1,2.3,2,.5,1.8-3.6,2-4.6,2-1.9-.1-4.2-1-5.4-2.5-.6-.8-.5-1.7.4-2.2,1.1-.6,2.5-.2,3.7,0,1.3.3,1.9-1.7.6-2-2.4-.6-5.7-.8-6.9,1.9-1.2,2.5,1.4,4.8,3.4,5.8,2.2,1.1,4.7,1.4,7.1.9,2.2-.5,4.7-2.2,3.6-4.7-1.2-2.8-4.8-3.6-7.5-3.9-1.3-.1-1.3,1.9,0,2.1h0Z"/>
      <path class="cls-7" d="M642.6,100.2c.8.2,1.6.3,2.3.8.8.5,1.7,1.5.9,2.4-.7.7-1.8.4-2.6.2-1-.2-1.9-.4-2.9-.7-.8-.3-1.6-.7-1.8-1.5-.2-.7.5-.9,1-1.2.9-.5,2-.3,3,0,1.3.3,1.9-1.7.6-2-1.4-.3-3-.6-4.4,0-.8.4-1.6.9-2.1,1.7-.5.9-.3,2.1.2,2.9,1.2,2,3.7,2.4,5.8,2.8,1.2.2,2.5.5,3.6,0,1-.4,1.8-1.4,2-2.4.3-1.5-.7-2.8-1.7-3.7-1-.8-2.1-1.1-3.3-1.4-1.3-.3-1.9,1.7-.6,2h0Z"/>
      <path class="cls-7" d="M116.6,47.8c0-2.1.2-4.4,1.5-6.1,1.4-1.8,4-2.5,6.1-1.6,1.7.7,2.8,1.9,3.2,3.7.5,2,.3,4.2.3,6.2,0,2.9.3,6.1,1.9,8.6.7,1.1,2.5,0,1.8-1.1-1.6-2.5-1.6-5.6-1.6-8.5,0-2.2.1-4.7-.7-6.8-.8-2.2-2.5-3.5-4.6-4.3-2.6-1-5.6,0-7.5,1.9-2.1,2.1-2.4,5.1-2.5,7.9,0,1.3,2,1.3,2.1,0h0Z"/>
      <path class="cls-7" d="M135,65c-.1,0-.2.2-.3.3-.2.2-.3.5-.3.7s.1.6.3.7c.2.2.5.3.7.3,0,0,.2,0,.3,0,.2,0,.3-.1.5-.3.1,0,.2-.2.3-.3.2-.2.3-.5.3-.7s-.1-.6-.3-.7c-.2-.2-.5-.3-.7-.3,0,0-.2,0-.3,0-.2,0-.3.1-.5.3Z"/>
      <path class="cls-7" d="M770,149.4c.2,1.9.3,3.8.5,5.6.1,1.2.3,2.6.9,3.7,1.2,2.4,4.1,1.9,6.2,1.3,1.3-.4.7-2.4-.6-2-.9.3-2.2.6-3,.5-.4,0-.5-.1-.6-.3,0,0-.3-.5-.4-.7-.4-1-.5-2-.6-3-.2-1.7-.3-3.4-.5-5.1-.1-1.3-2.2-1.3-2.1,0h0Z"/>
      <path class="cls-7" d="M762,127.6c1-1.9,1.5-3.9,1.3-6-.1-1.5-.5-3.2-.2-4.7.6-2.5,2.7-4.3,4.6-5.8,1-.8,2.1-1.7,3.4-1.5,1,.1,1.4,1,1.7,1.9.5,1.7,1.1,3.6,2.3,4.8,1.7,1.7,3.8.5,4.6-1.4.9-2.1.6-4.5,0-6.6-.7-2.3-1.9-4.5-3.6-6.2-1.6-1.5-3.8-2.7-5.9-1.8-3.3,1.3-6.3,3.6-9.2,5.7-1.1.8,0,2.6,1.1,1.8,2.6-1.8,5.2-3.7,8.1-5.2.4-.2.7-.3,1.1-.5.1,0,.3,0,.4,0-.3,0,.3,0,.4,0,.8.1,1.6.6,2.2,1.1,1.7,1.4,2.8,3.5,3.4,5.5.5,1.7,1,3.9,0,5.6-.2.3-.4.5-.6.8-.2.2-.1.1-.4,0-.6-.4-1-1.4-1.3-2-.7-1.5-.8-3.4-2.2-4.6-1-.8-2.2-1-3.3-.8-1.4.2-2.4,1-3.5,1.9-2.1,1.6-4.1,3.5-5.1,6-.7,1.7-.5,3.5-.2,5.3.3,2.1,0,4-.9,5.9-.6,1.2,1.2,2.2,1.8,1.1h0Z"/>
      <path class="cls-7" d="M738,141.1c2.3-2.4,4.9-4.3,6.9-6.9,2-2.6,3.8-5.4,5.2-8.4,2.1-4.4,3-9,4.4-13.6.6-2.1,1.4-4.2,2.5-6.1.3-.5.6-1,.9-1.5.5-.7,1.3-1.3,2-1.9,1.1-1,2.2-2,3.4-3,1.5-1.2,3.2-2.5,5-3.2.6-.2,1.1-.4,1.6-.4,1,0,2.2.4,3.1.8,2.9,1.4,5.1,4,7.3,6.3.6.6,1.3,1.2,1.9,1.9.4.4.9,1,.7,1.7-.3,1.3-2,1.2-2.9.7-1.2-.7-2.2,1.1-1.1,1.8,1.3.7,2.8,1,4.2.3,1.1-.6,2-1.7,1.9-3,0-1.6-1.2-2.7-2.3-3.7-1.2-1.2-2.4-2.4-3.6-3.6-2.2-2.1-4.7-4.2-7.7-4.9-1.8-.4-3.3,0-4.9.8-2.3,1.1-4.3,2.8-6.2,4.4-.6.5-1.2,1.1-1.8,1.7-.8.7-1.7,1.4-2.3,2.3-.8,1-1.4,2.2-1.9,3.4-2.1,4.5-2.8,9.6-4.5,14.3-1.2,3.4-2.8,6.6-4.8,9.6-1.2,1.8-2.5,3.4-4,4.9-1.5,1.4-3,2.8-4.5,4.3-.9,1,.5,2.5,1.5,1.5h0Z"/>
      <path class="cls-7" d="M790.7,179.2c5,1.8,10.6,2.4,15.9,1.5,3.6-.6,6.7-2.2,9.5-4.4,4.9-3.8,7.9-9.4,9.5-15.3,1.5-5.4,2-11.1,2.2-16.6,0-1.3-2.1-1.3-2.1,0-.2,8.1-1.1,16.8-5.3,23.9-2.7,4.6-7.1,8.6-12.2,10-5.5,1.5-11.6.9-16.9-1-1.3-.5-1.8,1.6-.6,2h0Z"/>
      <path class="cls-7" d="M867.8,326.8c-4.6-.8-8.8-2.7-13.2-4.2-3.3-1.1-6.7-2.1-10.1-2.8-6-1.2-12.6-1.5-18.3.9-2,.8-5.1,2.7-3.2,5.2.8,1.1,2.6,0,1.8-1.1,0,0-.3-.4-.2-.4-.1-.3,0,.1,0,0,0,0,0-.2,0,0,0-.2,0,0,0,0,0,0,0-.2.2-.3,0,0,.2-.2.3-.3.7-.6,1.7-1,2.5-1.3,1-.4,2.1-.7,3.1-.9.4,0,.8-.2,1.2-.2.1,0,.3,0,.4,0,.2,0-.3,0,0,0,.2,0,.5,0,.7,0,7.2-.6,14.1,1.1,20.8,3.4,4.5,1.5,8.8,3.5,13.5,4.3,1.3.2,1.9-1.8.6-2Z"/>
      <path class="cls-7" d="M842.9,326c-3.2-.7-6.4-1.3-9.6-1.6-3.3-.3-6.7-.4-10,.3-1.3.3-2.8.7-3.8,1.6-1.1,1-2,2.9-1.2,4.3.8,1.4,2.5,1.6,3.9,1.8,2.2.2,4.5.3,6.7.4,5.3.2,10.6.4,15.7,1.7,1.3.3,1.9-1.7.6-2-4.1-1-8.2-1.4-12.4-1.6-2.1-.1-4.1-.2-6.2-.3-1.7,0-3.5-.1-5.2-.4-.4,0-1.1-.2-1.3-.6-.2-.5.4-1.3.8-1.7.8-.8,2.1-1,3.2-1.2,2.9-.6,5.9-.4,8.8-.2,3.2.3,6.4.8,9.6,1.5,1.3.3,1.9-1.7.6-2h0Z"/>
      <path class="cls-7" d="M844.2,332.5c-2.7-.1-5.4-.3-8.1,0-1.9.3-3.8.7-5.7,1.1-2,.5-4,1.1-5.9,2-1.1.5-2.6,1.4-2.5,2.9.1,2.7,4.6,2.6,6.4,2.6,3.9,0,7.7-.3,11.6-.5,1.7,0,3.5-.2,5.2,0,.3,0,.6,0,1,0,.4,0,.4,0,.7,0,.2,0,.5.1.7.2.2,0,.1,0,0,0,0,0,.2.1.3.1-.1,0,0-.1,0,0,0-.1-.1-.2-.1-.2,0-.2,0-.3,0-.4,0,.1,0,0,0,0,0,0-.1.2-.2.2,0,0,0,0-.2.1-.1,0-.3.2-.4.2-.3.2-.7.4-1.1.5-1.8.8-3.8,1.3-5.7,1.9-1.5.4-3.1.8-4.6,1.3-1.5.5-4,2.1-3.4,4,.8,2.5,4.7,2,6.6,1.6,2.8-.6,5.5-1.6,8.3-2.3,1.6-.4,3.3-.6,5-.6,1.8,0,3.5.6,5.3,1,2.7.6,5.7.6,8.4.6,5.8,0,11.8-1.1,16.8-4.1,1.3-.8,2.5-1.7,3.6-2.7,1-.9-.5-2.4-1.5-1.5-4.3,3.9-10,5.6-15.6,6-2.6.2-5.1.2-7.7,0-1.5,0-2.9-.3-4.4-.6-1.6-.4-3.2-.8-4.9-.8-3.3,0-6.5.9-9.7,1.8-2.2.7-4.7,1.7-7,1.4-.4,0-.8-.3-1.2-.4-.3,0,0,0-.1,0,.2-.1.3-.4.4-.5.3-.3.7-.6,1.1-.8,0,0,.4-.2.3-.2-.1,0,.1,0,.2,0,1.4-.5,2.9-.8,4.4-1.2,1.9-.5,3.8-1.1,5.6-1.8,1.1-.5,3-1.1,3.4-2.4.8-2.7-4-2.7-5.5-2.7-3.6,0-7.3.3-10.9.5-2.9.1-6.2.5-8.9-.3-.2,0-.2,0-.1,0,0,0-.2,0-.2-.1-.2-.1,0,0,0,0-.2-.1,0,0,0,0-.2-.2,0,.1,0,0,0,0,0,.2,0,0,0,0,0,0,0,.1.2-.1,0-.2.1-.2.9-1,2.8-1.5,4.1-1.9,3.3-1,6.9-2,10.3-2,1.9,0,3.7,0,5.6.1,1.3,0,1.3-2,0-2.1Z"/>
      <path class="cls-7" d="M774.3,97.6c2.3,1.2,4.9,1.7,7.2,2.8,1,.5,2.2,1.1,2.6,2.1.4,1.1-.9,1.3-1.2,2.3-.3,1.3,1.7,1.9,2,.6,0,.1,0,0,0,0,0,0,.2-.1.2-.2.2-.2.5-.4.6-.7.4-.6.5-1.4.4-2.1-.3-1.6-1.5-2.6-2.8-3.3-1.5-.8-3.1-1.4-4.6-2-.7-.3-1.4-.5-2.1-.7-.5-.2-1-.4-1.2-.5-1.2-.6-2.2,1.2-1.1,1.8h0Z"/>
      <path class="cls-7" d="M805,139.5c-.2,3.2.4,6.4.9,9.6,0,.5.2,1.1.3,1.6,0,0,0,.2,0,.4,0,.4,0,0,0,0-1.8.4-3.5,0-5.2.8-1.2.6-.2,2.4,1.1,1.8,1.7-.8,4.1.3,5.6-1.2.9-.8.6-1.9.4-3-.5-3.3-1.2-6.7-1-10.1,0-1.3-2-1.3-2.1,0Z"/>
      <path class="cls-7" d="M793.2,137.2c0,1.2-.2,2.3-.7,3.4-.5,1.3,1.6,1.8,2,.6.5-1.3.7-2.6.7-4,0-1.3-2.1-1.3-2.1,0h0Z"/>
      <path class="cls-7" d="M815.2,138c.2,1.2-.2,2.3-.9,3.3-.7,1.1,1.1,2.2,1.8,1.1,1-1.5,1.3-3.1,1.1-4.9,0-.6-.8-.9-1.3-.7-.6.2-.8.7-.7,1.3Z"/>
      <path class="cls-7" d="M791.1,132.3c2.2-1.2,4.7-1.8,7.3-1.6,1.3,0,1.3-2,0-2.1-2.9-.2-5.8.5-8.3,1.9-1.2.6-.1,2.5,1.1,1.8h0Z"/>
      <path class="cls-7" d="M811.9,132.2c2-.6,4-.8,6-.5,1.3.2,1.3-1.9,0-2.1-2.2-.3-4.5,0-6.6.6-1.3.4-.7,2.4.6,2Z"/>
      <path class="cls-7" d="M794.8,163.5c2.7.3,5.4.5,8.1.8,1.3.1,1.3-2,0-2.1-2.7-.3-5.4-.5-8.1-.8-1.3-.1-1.3,2,0,2.1Z"/>
      <path class="cls-7" d="M796.1,168.5h2.8c1.3,0,1.3-2.1,0-2.1h-2.8c-1.3,0-1.3,2.1,0,2.1Z"/>
      <path class="cls-7" d="M838.6,95c2.1-1.4,4.9-1.6,6.9-3.2,2.3-1.8,2.8-4.7,2.1-7.4-1.3-5.1-6.7-11-12.4-8.5-2.6,1.2-4.1,4.5-1.5,6.5,2.4,1.9,5.5,3.1,8.4,3.8,3,.7,6.3,1,9.3.5,3-.5,5.1-2.6,5.4-5.7.4-3.1-1.3-6-3-8.4-1.7-2.4-3.6-4.7-5.7-6.8-2.2-2.1-4.6-3.9-7.1-5.5-1.3-.8-2.6-1.6-4-2.2-1.3-.6-2.9-1-4.3-.1-2.4,1.6-1.6,4.9.2,6.6,1.1,1.1,2.4,1.8,3.7,2.7,1.4.9,2.8,1.8,4.2,2.7,2.8,1.7,5.8,3.2,8.9,4.2,2.7.9,5.8,1.4,7.5-1.4,1.3-2.1,1-4.9.3-7.1-.8-2.5-2.3-4.8-4.1-6.7-1.8-2-4-3.7-6.3-5.2-2.4-1.6-4.8-3.2-7.4-4.3-1.5-.7-3.1-1.3-4.6-1.9-1.3-.5-1.8,1.6-.6,2,2.5.9,5,1.9,7.3,3.3,2,1.2,3.9,2.4,5.8,3.7,3.5,2.5,6.7,5.8,8,10,.5,1.7.8,4-.5,5.5-.8.9-1.9.8-3,.6-1.3-.3-2.7-.8-3.9-1.3-2.5-1-5-2.4-7.3-3.9-1.1-.7-2.3-1.5-3.4-2.2-1-.7-2.1-1.3-3-2.2-.7-.7-1.3-1.6-1.1-2.7.3-1.3,1.6-1,2.5-.6,2.3,1,4.5,2.4,6.5,3.8,4,2.9,7.5,6.6,10.2,10.7,1.3,2,2.6,4.5,2,7-.7,2.7-3.2,3.2-5.7,3.3-2.6,0-5.2-.3-7.8-1-1.2-.4-2.4-.9-3.6-1.4-1-.5-2.5-1.1-3.1-2-.7-1,.5-2.1,1.3-2.5,1-.5,2.1-.6,3.2-.3,2.3.5,4,2.4,5.2,4.4,1.1,1.9,2.1,4.4,1.1,6.6-.9,2-3.3,2.6-5.1,3.2-1,.4-2,.8-2.8,1.4-1.1.7,0,2.6,1.1,1.8h0Z"/>
      <path class="cls-7" d="M419,110.3c-5.6-7.6-14.3-12-23.4-13.5-1.2-.2-9.9-1.5-18.2,2.3-4.8,2.3-11,6.3-14.2,9.3-10.5,9.6-18.1,22.1-24.8,34.6-4.7,8.8-8.8,17.9-12.7,27.1-.4.9-.7,1.4-.7,1.4,0,0,5.3,1,8.5,2.1,6.8,2.3,8.7,6.1,12.7,9,4,2.8,11.3,2.8,11.3,2.8l3.1-13.3s-2.6-3.2-3.8-6.8c-1.2-3.5-2.6-7.6-1.9-19.6.2-4.1,1.5-8.9,3.4-13.7.4.5,1.3.6,1.6-.2,4.1-9.4,10.3-18.6,18.9-24.3,2.1-1.4,4.3-2.5,6.7-3.4,6.2,6,9.4,14,12.2,22,2.7,8,5,16.5,9.8,23.6,1.6,2.4,3.6,4.6,5.8,6.5-.7,2.1-3.8,11.8-5.7,13.1-2.1,1.4-4.5-1.9-6,0-1.4,1.9-8.5,7.6-8.5,7.6,0,0-.7,4-.7,6.8s-.5,5,2.1,8.3c2.6,3.3,7.8,3.8,12.7,6.4,5,2.6,14.9,4,14.9,4,0,0-1.9-13.9-1.9-15.3-.2-10.4,1.1-24.8,2.2-33.3.8-6,1.8-11.9,2.5-17.8,1-8.9-.6-18.3-6-25.6h0Z"/>
      <path class="cls-4" d="M341.9,348.4c-.2,0-.1,0,0,0,0,0,0,0,0,0Z"/>
      <path class="cls-4" d="M463.9,402c.2-2.2.4-2.5.4-2.9,0-2.8-.6-5.7-1-8.4-.7-4.1-1.6-8.3-2.5-12.4-2-8.9-4.2-17.7-6.4-26.6-.8-3.2-1.6-6.4-2.5-9.6-.2-.8-1-.9-1.5-.6,0-.1,0-.2,0-.2,0,0-29,8.9-43.3,10.5-14.3,1.6-33.9,2.7-33.9,2.7,0,0-1.6,1.6-3.4,1.8-1.8.2-7.6-1.1-9.8-2.2-2.2-1.1-12-6.3-12-6.3,0,0-.2.9-2.5,1.1-1.7.1-3-.3-3.4-.5,0,.1,0,.5,0,1-.3,0-.6.3-.7.7-.7,2.2-1.1,4.6-1.5,6.9-.7,3.7-1.3,7.5-1.9,11.3-1.3,8.2-2.4,16.4-3.4,24.7-.3,2.8-.7,5.6-.7,8.4,0,.2,0,.4.2.7h130Z"/>
      <path class="cls-7" d="M436.3,205.2c2.7.6,5.3,1.5,7.5,3.2,1.5,1.2,2.8,2.8,3.8,4.4,2.5,3.8,4.2,8,5.6,12.2,1.5,4.3,2.7,8.7,3.9,13.1,1.4,5,3.1,10,4.7,15,2.5,7.8,5,15.6,7.3,23.5,1.2,3.9,2.2,7.8,3.3,11.7,2.1,7.4,4.3,14.7,5.8,22.2.8,4.1,1.6,8.3,1.4,12.5,0,1.3-.3,2.7-.9,3.9-.4.7-.9,1-1.6,1.5-3.7,2.3-7.8,4.1-11.7,5.9-6.8,3-13.7,5.5-20.8,7.8-9.3,3-18.7,5.4-28.3,7.2-11.3,2.2-22.8,3.6-34.3,4.1-3.1.1-6.1.2-9.2.2-1.3,0-1.3,2.1,0,2.1,12.1,0,24.3-1.1,36.3-3,10.2-1.6,20.4-3.9,30.3-6.8,7.8-2.3,15.5-4.9,23-8.1,4.8-2,9.6-4.1,14.2-6.7,1.6-.9,3.3-1.7,4.1-3.4,1.5-3.1,1.2-7,.8-10.3-1-9.4-3.9-18.6-6.5-27.6-1-3.4-1.9-6.8-2.9-10.2-2-6.9-4.1-13.8-6.3-20.6-1.8-5.5-3.6-11.1-5.4-16.6-1.4-4.1-2.3-8.4-3.6-12.5-1.4-4.6-2.9-9.1-5-13.4-1.8-3.8-4.1-7.7-7.6-10.1-2.3-1.6-4.9-2.5-7.6-3.1-1.3-.3-1.9,1.7-.6,2h0Z"/>
      <path class="cls-7" d="M392.1,190.8c1.1,2.1,3.1,3.6,5.2,4.7,2.7,1.5,5.6,2.5,8.5,3.4,1.3.4,1.8-1.6.6-2-2.6-.8-5.3-1.8-7.7-3.1-1.8-1-3.7-2.2-4.7-4.1-.6-1.2-2.4-.1-1.8,1.1h0Z"/>
      <path class="cls-7" d="M358.5,171.1c1.3,10.8-4.2,21-11.4,28.6-.9,1,.5,2.5,1.5,1.5,7.6-8,13.4-18.8,12-30.1-.2-1.3-2.2-1.3-2.1,0Z"/>
      <path class="cls-7" d="M347.1,199.7c-.9.8-1.9,1.5-2.8,2.2-.5.3-.7.9-.4,1.4.3.4,1,.7,1.4.4,1.1-.8,2.2-1.7,3.3-2.6.4-.4.4-1.1,0-1.5-.4-.4-1-.4-1.5,0h0Z"/>
      <path class="cls-7" d="M318.1,215.2c-3.1,1.5-6.2,3.2-8.7,5.6-1.9,2-3.3,4.5-4.2,7.1-1.8,5.4-1.6,11.2-.9,16.8,1,7.7,2.8,15.4,4.4,23,1.4,6.6,2.9,13.2,4.6,19.8,2.2,9.1,4.7,18.2,7.8,27.1,1.2,3.6,2.5,7.1,3.9,10.6,2.1,5.3,4.1,10.7,6.7,15.8,1.9,3.6,4.9,6.7,8.7,8.3,2.9,1.2,5.7.5,8.3-1,2.5-1.4,4.9-3,7.2-4.8,1.2-.9,2.4-1.9,3.4-3.1.9-1-.5-2.5-1.5-1.5-2.1,2.2-4.6,4-7.2,5.7-1.9,1.3-4.2,3-6.6,3.2-3.1.3-5.7-1.9-7.9-3.9-1-.9-1.5-1.7-2.2-2.8-2.7-4.7-4.6-10-6.6-15.1-1.3-3.4-2.6-6.8-3.8-10.2-2.9-8.2-5.3-16.5-7.4-25-1.5-5.9-2.9-11.9-4.2-17.9-1.7-7.4-3.3-14.9-4.7-22.4-1.1-5.8-2.1-12-1.2-18,.4-2.4,1.1-4.7,2.2-6.8,1.5-2.8,3.6-4.9,6.3-6.5,1.4-.9,2.9-1.6,4.4-2.3,1.2-.6.1-2.4-1.1-1.8h0Z"/>
      <path class="cls-4" d="M392.6,225.2c.2,0,.4,0,.6,0,1.3-.1,1.3-2.2,0-2.1-3.8.3-7.6.7-11.4.8-4.1,0-8.9,0-13.2-.3-2.2-.3-4.3-.7-6.4-1.3-1.6-.5-3.1-1.1-4.5-2.1-1.3-.9-2.1-2-3-3.3-2.9-4.7-9.5-15.6-10.4-15.1-5.4,3.2-8.6,4.9-13.6,7.3-4.2,2-14.2,6.8-13,6.2,0,0,6.6,5.6,12.3,15.7,1.5,2.7,2.3,5.8,3.3,8.8.8,2.2,1.6,4.5,2.3,6.7,2.8,9,5,18.2,7.2,27.4,2.1,8.6,4.6,17.1,6.1,25.8.2,1.2,1.9.9,2-.2,3.2-1.4,17.7-13.1,28.1-23.5,13.3-13.3,16.3-20.6,18.4-25.5,1.8-4.1-3.4-20.4-5-25.2h0Z"/>
      <path class="cls-4" d="M441.3,313.1s0,0,0,0c0-.1,0-.2-.1-.3,0-.3-.2-.6-.2-.9-.2-.9-.4-1.8-.5-2.7-.6-3.7-1-7.2-1.5-11.1-.9-7.4-1.7-14.8-2.6-22.3-1.3-10.8-2.7-21.7-3-32.6-.4-11.1.2-22.2,2.7-33,.3-1.3.9-4.1,1.3-5.4.3-1.1.5-1.3.5-1.3l-31.8-6.5s0,1,0,1.5c0,2.4,0,5.3,0,7.6,0,2.4,0,4.8-.5,7.2-.3,1.3,2.1-.1,2.2-.5,1.2-.4,2.8-.7,4-.4,2.5.6,3.6,3,3.6,3,0,0,1.4.8,2.2,2.2.8,1.4.3,2.5,1.1,2.5s1.9,2.5,1.9,2.5c0,0,1.6,1.4,2.5,3.6.8,2.2-.5,8-.5,8,0,0-5.8,5.2-4.9,5.5.8.3,2.7,9.1,1.9,11.3-.8,2.2-19.2,36.1-19.2,36.1l-20.3,28.9-15.4,19s10.7,3,13.2,3,32.2-11,32.2-11l29.7-12.7c.6,1.2,2.4.1,1.8-1.1h0Z"/>
      <path class="cls-7" d="M412.3,156c-1,3.1-1.8,6.3-3.3,9.1-.6,1.1-1.4,2.3-2.5,3-1.2.7-2.4.6-3.7.1-1.3-.5-1.8,1.6-.6,2,7.9,2.9,10.3-8.5,12-13.7.4-1.3-1.6-1.8-2-.6h0Z"/>
      <path class="cls-7" d="M403.2,164c-1.2,2.8-2.7,5.5-4.8,7.7-1.7,1.9-3.7,3.4-5.8,4.7-1.1.7,0,2.5,1.1,1.8,2.3-1.4,4.4-3,6.2-5,2.2-2.4,3.7-5.2,5.1-8.2.6-1.2-1.2-2.3-1.8-1.1Z"/>
      <path class="cls-7" d="M358.4,131.8c-3.3,7.7-5.1,16.2-4.5,24.6.6,7.4,3.3,14.8,8.9,19.8,3.3,3,7.5,4.9,11.8,5.9,1.3.3,1.9-1.7.6-2-3.6-.8-7.1-2.3-10-4.6-2.7-2.1-4.8-4.9-6.3-8-3.2-6.6-3.6-14.4-2.5-21.5.7-4.5,2-9,3.8-13.2.5-1.2-1.3-2.3-1.8-1.1h0Z"/>
      <path class="cls-7" d="M392.2,177c-1,4.5-2.3,9.5,0,13.8.6,1.2,2.4.1,1.8-1.1-1.9-3.7-.6-8.3.3-12.2.3-1.3-1.7-1.9-2-.6Z"/>
      <path class="cls-7" d="M371,126.2c-1.2,1.4-1.7,3.1-2.1,4.9-.3,1.3,1.7,1.9,2,.6.3-1.4.7-2.8,1.6-3.9.8-1-.6-2.5-1.5-1.5Z"/>
      <path class="cls-7" d="M395.1,134c-1.2,1.4-1.7,3.1-2.1,4.9-.3,1.3,1.7,1.9,2,.6.3-1.4.7-2.8,1.6-3.9.8-1-.6-2.5-1.5-1.5Z"/>
      <path class="cls-7" d="M392,130.8c2-.7,4.1-.9,6,.1,1.2.6,2.2-1.2,1.1-1.8-2.4-1.2-5.1-1.2-7.6-.3-1.3.5-.7,2.5.6,2Z"/>
      <path class="cls-7" d="M405,226.2c2.8-1.3,5.3-3.2,8-4.5,1-.5,2.2-.9,3.4-.9,1.2,0,2.1.9,2.9,1.8.8,1.1,2.3-.4,1.5-1.5-2-2.5-4.8-2.9-7.6-1.8-3.2,1.3-6,3.5-9.2,5-1.2.6-.2,2.4,1.1,1.8h0Z"/>
      <path class="cls-7" d="M408.5,229.8c1.3-.8,2.6-1.7,3.8-2.7.9-.7,1.8-1.5,2.8-2,1.3-.7,3.1-.9,4.3-.6.5.1.7.2,1.1.5,0,0,0,0,.1.1,0,0,.1.1.2.2.3.3.2.1.3.4.4.7.6,1.6.7,2.4,0,1.2,0,2.1-.3,3.2-.1.6-.3,1.1-.4,1.7,0,.3-.2.5-.3.7,0,.1,0,.3-.1.4,0,.2,0,.2-.1.3-.2.4-.4.9-.6,1.3-.2.3-.5.9-.6,1,0,0-.2.2-.3.3-.1.1-.5.4-.2.2,0,0,0,0-.1,0-.2.1,0,0,0,0,0,0-.1,0-.2,0,0,0,.3,0,0,0,0,0,.3,0,.1,0,.2.1,0,0,0,0,0,.1,0,0,0-.1,0-.2,0-.1,0,0,0-.1,0-.2-.1-.3,0-.3-.1-.5-.2-.8,0,.2,0-.3,0-.3,0-.2,0-.4,0-.5,0-.4,0-.9,0-1.3,0-1.1,0-2.2.2-3.3.1-1.3-2-1.3-2.1,0-.2,1.9-.3,3.8,0,5.6.1,1,.4,2.3,1.3,2.8,1.8,1.1,3.5-1.3,4.2-2.7,1.2-2.2,1.9-4.8,2-7.4,0-2.4-.6-5.1-2.9-6.2-1.6-.8-3.6-.7-5.3-.3-1.4.4-2.6,1.2-3.7,2.1-1.5,1.2-2.9,2.3-4.6,3.3-1.2.7-.1,2.5,1.1,1.8h0Z"/>
      <path class="cls-7" d="M417,240.1c.2,2.3.9,4.5,1.3,6.7.2,1,.3,2.1.1,3.2-.1.9-.5,1.7-.8,2.6-1.2,2.9-2.5,5.7-3.9,8.4-3.3,6.5-6.9,12.9-10.7,19.2-7.3,12.2-15.4,23.9-24,35.2-6.3,8.4-13.1,16.5-20.9,23.6-1,.9.5,2.4,1.5,1.5,7-6.4,13.2-13.6,19-21.1,5.1-6.6,10-13.3,14.8-20.2,7.8-11.4,15.1-23.3,21.4-35.5,1.7-3.2,3.2-6.5,4.6-9.9.8-2,1.4-3.9,1.2-6.1-.3-2.6-1.2-5-1.4-7.6-.1-1.3-2.2-1.3-2.1,0h0Z"/>
      <path class="cls-7" d="M402.5,222.2c2.8-1.2,5.3-3.1,8.1-4.3,1.3-.5,2.8-1.1,4.2-1,1.3.1,1.9,1.1,2.1,2.3.3,1.3,2.3.8,2-.6-2-8.8-13.3-.1-17.5,1.7-1.2.5-.2,2.3,1.1,1.8h0Z"/>
      <path class="cls-7" d="M397.5,255.8c1.9-4.2,2.1-8.7,1-13.1-.8-3.3-1.8-6.6-2.6-9.9-.4-1.6-.8-3.3-1.1-4.9-.2-1.1-.4-2.2-.1-3.3.6-2.1,2.4-3.7,4-5,1.9-1.5,4-3,6.2-4,3.1-1.5,9.4-3.4,10.9,1.3.4,1.3,2.4.7,2-.6-1.4-4.3-5.8-5-9.7-4.1-2.6.6-5,1.8-7.2,3.2-2.1,1.3-4.2,2.8-5.9,4.6-1.4,1.5-2.7,3.4-2.7,5.6,0,1.3.3,2.6.6,3.9.8,3.7,1.9,7.4,2.9,11.1.4,1.5.8,3,1.1,4.5.6,3.3.2,6.7-1.2,9.7-.5,1.2,1.3,2.3,1.8,1.1h0Z"/>
      <path class="cls-7" d="M338.9,310.9c3.9-4.1,8.9-7,13.6-10.2,4.7-3.2,9.4-6.4,13.7-10.1,3.5-2.9,6.6-6.2,9.8-9.4,3.5-3.6,7-7.2,10.4-11,4-4.5,7.9-9.2,11.1-14.3.7-1.1-1.1-2.2-1.8-1.1-5.6,8.8-12.9,16.5-20.2,23.9-3,3.1-6.1,6.3-9.3,9.2-4.2,3.8-8.8,7-13.5,10.2-5.2,3.5-10.9,6.8-15.3,11.4-.9,1,.5,2.4,1.5,1.5h0Z"/>
      <path class="cls-7" d="M431.6,243.7c3.4,17.7,7.3,35.4,13,52.5,1.5,4.6,3.2,9.1,5.1,13.5.5,1.2,2.3.2,1.8-1.1-3.4-8.1-6.1-16.4-8.5-24.9-2.5-8.7-4.6-17.6-6.5-26.4-1-4.7-2-9.5-2.9-14.3-.3-1.3-2.3-.8-2,.6h0Z"/>
      <path class="cls-7" d="M348.7,349.3c3.3,1,6.2,3.1,9.3,4.6,3.2,1.6,6.8,3.5,10.5,3.4,1.8,0,3.5-.7,4.8-1.9,1-.9-.5-2.4-1.5-1.5-2.2,2.2-5.6,1.3-8.2.3-3.4-1.3-6.6-3.2-9.8-4.9-1.5-.8-3-1.6-4.6-2.1-1.3-.4-1.8,1.6-.6,2h0Z"/>
      <path class="cls-7" d="M365.7,335.6c4,1.1,7.7,3.5,11.9,3.4,1.1,0,2-.4,3-.8,1.2-.4,2.4-.8,3.6-1.2,1.8-.6,3.6-1.3,5.5-1.9,5.3-1.9,10.6-3.7,15.9-5.6,10.7-4,21.2-8.6,31.6-13.2,3.1-1.4,6.2-2.7,9.3-4,1.9-.8,3.8-1.7,5.8-2.2,1.3-.3.7-2.3-.6-2-1.7.4-3.3,1.2-5,1.8-2.6,1.1-5.2,2.2-7.9,3.4-6,2.6-11.9,5.3-17.9,7.9-9.4,4-19,7.5-28.7,10.8-4.2,1.5-8.4,2.9-12.5,4.4-.6.2-1.2.5-1.9.6-.5,0-1.1,0-1.7,0-1.1-.1-2.2-.5-3.3-.8-2.2-.8-4.4-1.8-6.7-2.4-1.3-.3-1.9,1.7-.6,2h0Z"/>
      <path class="cls-7" d="M329.9,337.4c-.8,2.8-.3,6.2.6,8.9.4,1.2,1,2.5,2.1,3.2,1.2.7,2.4.2,3.4-.6,1-.9-.5-2.4-1.5-1.5-.2.1-.3.3-.5.4,0,0,0,0-.2,0,0,0,0,0-.2,0,0,0-.2,0-.3-.3-.6-.7-1-1.8-1.2-2.7-.6-2.1-1-4.7-.3-6.8.4-1.3-1.6-1.8-2-.6h0Z"/>
      <path class="cls-7" d="M377.5,135.4c0,1.7-.6,3.3-1.6,4.6-.9,1.1-2,2-2.9,3.1-.8.9-1.4,2.1-1,3.3.6,1.8,2.5,2.9,4,3.8,1.2.7,2.2-1.1,1.1-1.8-1.1-.7-3-1.7-3.1-2.9,0,.3,0-.1,0-.2,0,.3,0-.1,0-.2,0,0,.1-.2.2-.4.2-.3.6-.8,1-1.1,1-1,2-2,2.8-3.2,1-1.5,1.5-3.3,1.5-5.1,0-1.3-2.1-1.3-2.1,0Z"/>
      <path class="cls-7" d="M334.6,349c1.3,2.1,3.6,3,6,2.7.6,0,.9-.8.7-1.3-.2-.6-.7-.8-1.3-.7-1.4.2-2.9-.6-3.6-1.8-.7-1.1-2.5,0-1.8,1.1Z"/>
      <path class="cls-7" d="M370.6,118.5c2.7-.8,5.6.6,6.7,3.1.6,1.2,2.4.2,1.8-1.1-1.5-3.3-5.6-5.1-9.1-4.1-1.3.4-.7,2.4.6,2h0Z"/>
      <path class="cls-7" d="M371.2,161.4c.4-.9,1.8-3,3.1-2.5.6.2,1.2,1.2,1.4,1.7.3.8.4,1.7,0,2.4-.5,1.3-2.2,2.2-3.5,1.7-1.2-.5-1.7-2.2-1-3.3.7-1.1-1.1-2.2-1.8-1.1-1,1.6-.7,3.8.5,5.2,1.3,1.5,3.5,1.8,5.3.9,1.9-.9,3-2.9,2.8-5-.2-1.8-1.5-4.2-3.4-4.6-2.2-.5-4.3,1.8-5.2,3.5-.6,1.2,1.2,2.3,1.8,1.1h0Z"/>
      <path class="cls-7" d="M415,86.6c.9-2,1.9-4.1,3-6,1-1.7,2.1-4.1,4-5,1.3-.6,3.1-.5,3.7,1,.2.6.3,1.2.2,1.8,0,.5,0,.6-.2,1-.8,2.2-2.8,3.9-5.2,3.9-1.3,0-1.3,2.1,0,2.1,4.4,0,8.2-4.2,7.4-8.7-.4-2.2-2.1-3.6-4.3-3.6-2.6,0-4.5,1.7-5.8,3.8-1.8,2.7-3.2,5.6-4.5,8.5-.5,1.2,1.2,2.3,1.8,1.1h0Z"/>
      <path class="cls-7" d="M423.7,93.7c1.3-1.6,2.8-3.1,4.4-4.3,1.4-1,3.7-2.7,5.6-2,1.9.7,1.2,3.1.2,4.2-1.3,1.5-3.4,2.3-5.4,1.7-1.3-.4-1.8,1.6-.6,2,2.6.8,5.5-.2,7.3-2.1,1.7-1.8,2.5-4.7.7-6.7-2-2.3-5.2-1.1-7.4.2-2.4,1.4-4.6,3.3-6.3,5.5-.8,1,.6,2.5,1.5,1.5h0Z"/>
    </g>
  </g>
  <g>
    <path class="cls-5" d="M878,101.7c-.1-32,38.7-43.7,75.5-43.7s71.2,11.7,71.5,43.6c.2,28.6-34.6,43.4-71.5,43.4s-46.4-4.9-61-15.9c-6.4,3.2-14.1,6.7-14.5,5.4-.5-1.6,2.5-7.3,6.2-13.7-3.9-5.4-6.2-11.7-6.2-19Z"/>
    <path class="cls-7" d="M878,101.7h-.8s.8,0,.8,0ZM1025,101.6h.8s-.8,0-.8,0ZM892.5,129.1l-.3-.7.4-.2.4.3-.5.6ZM878,134.4l-.7.2h0l.7-.2ZM884.2,120.8l.6-.4.3.4-.2.4-.6-.4ZM953.5,58.8c-18.4,0-37.2,2.9-51.3,9.8-14.1,6.9-23.5,17.6-23.5,33.2h-1.5c0-16.4,9.9-27.5,24.3-34.5,14.4-7,33.5-9.9,52-9.9v1.5ZM1024.2,101.6c-.1-15.6-8.6-26.3-21.6-33.1-13.1-6.8-30.8-9.8-49.1-9.8v-1.5c18.5,0,36.4,2.9,49.8,9.9,13.4,7,22.3,18.1,22.4,34.4h-1.5ZM953.5,144.2c18.3,0,36.1-3.7,49.3-10.9,13.1-7.2,21.5-17.8,21.4-31.8h1.5c.1,14.7-8.8,25.7-22.2,33.1-13.4,7.3-31.5,11.1-50,11.1v-1.5ZM893,128.5c14.4,10.9,37.7,15.8,60.6,15.8v1.5c-23,0-46.7-4.9-61.5-16.1l.9-1.2ZM878.8,134.2c0-.3-.4-.3-.2-.3.1,0,.4,0,.8,0,.8-.2,2-.6,3.3-1.1,2.7-1.1,6.2-2.8,9.5-4.4l.7,1.3c-3.2,1.6-6.8,3.3-9.6,4.4-1.4.6-2.6,1-3.6,1.2-.5.1-.9.2-1.3.1-.3,0-.9-.2-1.1-.8l1.4-.4ZM884.9,121.2c-1.8,3.2-3.5,6.1-4.6,8.5-.6,1.2-1,2.2-1.2,3-.1.4-.2.7-.2,1,0,.3,0,.4,0,.5l-1.4.4c0-.3,0-.7,0-1.1,0-.4.2-.8.3-1.3.3-.9.7-2,1.3-3.2,1.2-2.5,2.8-5.5,4.7-8.7l1.3.8ZM878.8,101.7c0,7.2,2.2,13.4,6.1,18.6l-1.2.9c-4-5.5-6.3-12-6.4-19.5h1.5Z"/>
  </g>
  <path class="cls-7" d="M928.9,84.1v12c0,1.3-.3,2.1-2.6,2.3,0-.6-.2-1.1-.5-1.4-.3-.3-.7-.5-1.6-.7v-.2s2,.1,2.4.1.4,0,.4-.3v-12.5l2.5.2c0,.2-.2.4-.6.4ZM920.7,88.1h4.6v.5h-4.4v-.5ZM924.5,88.1h-.2l1-1,1.7,1.5c-.1.2-.3.2-.6.3-.7,3.1-2.3,6.2-5.9,8v-.2c2.3-2.1,3.6-5.4,4-8.6ZM928.9,85.8c1,5.4,3.8,7.8,6.7,9.2v.2c-.9.1-1.5.8-1.7,1.7-2.7-2.2-4.4-5.1-5.1-11h.1ZM933,86.1l2.2,1.4c0,.2-.2.2-.6.2-1.1.9-2.8,2.2-4.4,3l-.2-.2c1.1-1.3,2.4-3.3,3-4.5ZM949.2,96.2v.5h-10.8v-.5h10.8ZM946.3,92.6v.5h-4.4v-.5h4.4ZM945.2,87.9l.8-.9,1.7,1.3c-.1.1-.3.2-.6.3v5.1c0,.1-.8.5-1.4.5h-.3v-6.3h-.2ZM942.8,93.9c0,.2-.7.6-1.4.6h-.2v-7.3l1.7.7h3.3v.5h-3.4v5.6ZM948.4,84.8l.9-1,1.8,1.4c-.1.1-.3.3-.7.3v11.9c0,.2-.9.6-1.6.6h-.3v-13.3h-.2ZM939.4,97.6c0,.2-.7.7-1.5.7h-.3v-14.2l2,.8h9.8v.5h-9.9v12.3ZM955.9,83.9h.1c.3-.1.8,0,1.2.1.8.4,1.5,1.2,1.5,1.8s-.1.7-.3,1.1c-.2.5-.3,1-.3,1.3,0,.3,0,.3.2,0,.8-1.5,1.8-2.4,2.9-2.4,1.8,0,3,1.7,3,5.2s-1.9,6.4-6.8,7.3v-.3c4.1-1.7,4.8-4.6,4.8-7.2s-.6-4-1.5-4-1.4.6-1.9,1.7c-.5,1-.8,2-.8,2.9s.1,1.3.1,2-.3.8-.8.8-.8-.2-1-.7c-.2-.5-.3-1.1-.3-1.7,0-1.6.7-4.2.7-5.3s-.3-1.7-.9-2.5ZM980.8,87.2c-.3-.4-.7-1-1.5-1.6l.2-.2c.9.2,1.7.5,2.1,1,.3.3.5.6.5.9s-.2.6-.6.6-.5-.2-.7-.6ZM982.3,85.9c-.3-.4-.6-.8-1.5-1.5v-.2c1.1.2,1.8.4,2.2.8.4.3.6.6.6,1s-.2.6-.5.6-.5-.3-.8-.7ZM972.4,95c.8.4,1.4.7,1.8.7s.8-.2,1.1-.5c.8-.9,1.2-3.2,1.2-4.8s-.3-1.3-1-1.3-3,.8-4.1,1.3c-.5.2-.8.4-1.3.4s-1.2-.8-1.3-1.5c0-.4,0-.8.2-1.1h.2c.3.5.5.8.9.8.7,0,2.3-.4,3.8-.7.5,0,1.4-.2,1.9-.2,1.3,0,2.1.8,2.1,2.9s-.5,4.4-1.7,5.6c-.5.6-1.3.9-2.1.9s-.9-.3-1.1-1.1c0-.3-.2-.5-1-1.3v-.2ZM972.3,85.2v-.2c.3-.2.8-.4,1.5-.4s2.2.6,2.2,1.2-.5.7-.7,1.2c-.4,1-1.5,3.7-2.3,5.3-.7,1.6-1.7,3.7-2.3,4.6-.3.6-.6.8-1,.8s-.8-.4-.8-1,0-.7.4-1c.8-1,1.7-2.3,2.4-3.9,1.2-2.4,2.1-5.1,2.1-5.7s0-.4-.2-.5c-.3-.2-.7-.3-1.2-.4ZM978.7,88.3v-.3c1.1,0,2.2.4,3,1.2.9.8,1.3,2,1.3,3.2s-.4,1.6-1.1,1.7c-.6,0-.6-.5-1.1-.7-.3-.1-1.2-.2-1.8-.2v-.3c.6-.2,1.2-.3,1.5-.5.4-.1.5-.3.5-.8,0-.5-.1-1.2-.6-1.9-.4-.7-1-1.2-1.9-1.4ZM910.4,106.7c.4-.2.9-.4,1.4-.4.9,0,2.3.8,2.3,1.4s-.4.5-.6,1.2c-.1.5-.3,1.4-.6,2.4-.6,2.1-2.2,6.4-7.4,8.7l-.2-.3c3.7-2.8,5-5.9,5.8-8.5.3-.9.6-2.5.6-3.1s0-.5-.2-.6c-.3-.2-.6-.3-1-.5v-.2ZM911.1,116.7v-.2c1.1.4,1.9.5,2.3.6.4,0,.6,0,.8-.3.9-1.2,1.5-4.5,1.5-5.5s0-.2-.2-.2c-.9,0-2.6.3-3.7.5-.7.1-2.1.4-2.8.6-.5.1-.8.4-1.2.4s-1.3-.9-1.5-1.5c-.2-.4-.1-.8,0-1.2h.2c.3.4.6.8,1.2.8s5.3-.5,7.4-.8c.5,0,.7-.5,1-.5.5,0,1.9,1.1,1.9,1.6s-.6.4-.6,1c-.2,1.4-.7,3.8-1.5,5.5-.4.9-1.4,1.8-2.4,1.8s-.6-.2-.8-.7c-.2-.6-.5-.9-1.5-1.8ZM932.5,109.2c-.3-.4-.7-1-1.4-1.7l.2-.2c.9.3,1.6.6,2.1,1,.3.3.5.6.5.9s-.3.6-.6.6c-.3,0-.5-.2-.7-.6ZM933.9,107.9c-.3-.4-.6-.8-1.4-1.5l.2-.2c.9.2,1.6.5,2.1.8.4.3.6.6.5,1,0,.4-.2.6-.5.6s-.5-.3-.8-.7ZM922.3,107.7c.4-.2,1-.5,1.5-.5,1,0,2.1.9,2.1,1.5s-.4.6-.4,1.1c-.2,1.3-.4,5-.3,6.4,0,1.3.2,1.5,2,1.5s3.8-.6,4.2-.6c1.2,0,1.8.3,1.8.9s-.3.8-.8,1c-.8.3-2.6.5-4.8.5-3.5,0-3.9-.6-3.9-3.1,0-2.3.2-7.1,0-7.7-.1-.4-.6-.5-1.3-.7v-.2ZM929.9,109.2h.2c.6,0,.9,0,1.4.4.7.5,1.1,1.2,1.1,1.6s-.4.5-1.1.8c-1.5.7-3.8,1.6-6.7,2.4l-.2-.6c2.1-.9,4.3-2.1,5.4-3.1.2-.2.3-.4.2-.7,0-.3-.2-.5-.3-.7ZM948.7,109.2c-.3-.4-.7-1-1.4-1.7l.2-.2c.9.2,1.6.5,2.1,1,.3.3.5.6.4.9,0,.3-.2.6-.6.6s-.5-.2-.7-.6ZM950.1,108c-.3-.4-.6-.8-1.5-1.5v-.2c1.1.2,1.8.4,2.2.8.4.3.5.6.5,1s-.2.6-.5.6-.5-.3-.8-.7ZM940.1,106.7v-.2c.4-.2.9-.3,1.3-.3,1,0,2,.5,2,.9s-.3.7-.7,2c-.2.7-.7,2.5-1.2,4-.6,1.8-1.6,4.7-2.2,5.8-.3.5-.5.9-1.1.9s-.9-.5-.9-1.2.4-.9.8-1.6c.6-.9,1.4-2.4,2.1-4.4.5-1.4,1-3.7,1-4.6,0-.4,0-.5-.3-.8-.2-.2-.6-.3-.9-.4ZM937.1,109.2c.8.6,1.3.8,2,.8,1,0,1.9-.2,2.6-.3,1.2-.3,2-.7,2.7-1,.3-.2.6-.4.7-.4.4,0,1.2.2,1.2.8s-.3.7-1.5,1.1c-.6.2-1.9.6-3.1.9-.6.1-1.6.3-2.2.3-1.2,0-1.9-.3-2.5-2.1h.2ZM944,112.4v-.2c.7-.6,2-1,3.3-1s1.7.3,2.1.4c.5.3.7.7.7,1s-.3.7-1,.7c-.3,0-.6,0-1,.1-.7.1-1.4.3-2,.5v-.2c.3-.3,1.1-.9,1.3-1.1,0,0,0-.2,0-.2-.3-.1-.9-.2-1.4-.2s-1.2,0-1.9.2ZM943.3,115.3h-.3c0,.5-.1,1.1,0,1.6.2,1.8,1.6,2.8,4,2.8s1.8,0,2.3-.2c.6-.1,1-.4,1-.8,0-.7-.7-1-1.4-1s-.9.3-2.3.3-2.2-.3-2.8-1.2c-.3-.5-.5-1-.5-1.4ZM957,106.7v-.3c1.7-.1,2.6.1,3.3.5.9.5,1.4,1.2,1.4,2.1s-.2.7-.7.7-.9-.2-1.6-.2c-.8,0-1.8,0-2.2.1-.3,0-.3.2-.3.3,0,.2.2.6.3,1.1,0,.5,0,.8,0,1.3,0,.6-.3,1.3-.2,1.8,0,.2,0,.2.2.1,1.1-.8,3.1-2.1,5.3-2.1s3.8,1.8,3.8,3.5c0,3.1-4.6,4.4-8.6,4v-.3c1.2-.2,2.4-.4,3.2-.7,2.8-1,3.5-2.3,3.5-3.6s-.8-2.2-2.1-2.2-3.7,2-4.6,3.1c-.4.5-.6,1.2-1.2,1.2s-.6-.2-.9-.5c-.3-.3-.4-.6-.4-1s.1-.7.2-1.3c.1-.7.4-2.3.4-3.1,0-.5,0-.7,0-1.2s.2-.9.7-1c.7-.1,2.2-.5,2.7-.8.2-.1.2-.2,0-.4-.4-.6-1.2-1-2.2-1.3ZM970.1,106.8l.2-.2c.5.1.9.3,1.3.5.5.3,1.4,1.2,1.4,2.1s-.2.8-.6,1.4c-.6,1.1-1.2,2.4-1.2,3.6s.1,1,.2,1.3c.1.2.3.2.4,0,.4-.6,1-2,1.4-3h.3c-.3,1.2-.7,2.4-.8,3.2,0,.4-.1.6-.1,1.1s.3,1.1.3,1.7-.3.8-.9.8-.8-.4-1.2-.9c-.4-.7-.9-1.9-.9-3.7s.9-4.2.9-5.9-.4-1.4-.8-1.9ZM974.3,109.8l.2-.2c.9.6,1.6.8,2.4.8,1.2,0,3-.5,4-.9.5-.2.7-.3.8-.3.6,0,1.2.3,1.2.8s-.2.6-.7.8c-.9.4-3.2,1-5,1s-2.2-.3-2.9-2.1ZM977.1,107.4v-.2c.5-.3,1.1-.6,1.5-.6.8,0,2,.5,2,1.1s-.2.5-.2,1.1c0,.6,0,1.6,0,2.3,0,1.8.3,4.3-.3,5.8-.7,2-2.4,2.8-4.6,3.4v-.3c1.5-.9,2.6-2,3.1-4,.4-1.3.3-3.1.2-4.7,0-1-.1-2.3-.2-3,0-.4-.1-.5-.3-.6-.3-.2-.7-.3-1.1-.4ZM987.1,112.9c0-.5.4-.9.9-.9s.9.4.9.9-.4.9-.9.9-.9-.4-.9-.9ZM995.1,112.9c0-.5.4-.9.9-.9s.9.4.9.9-.4.9-.9.9-.9-.4-.9-.9Z"/>
  <g>
    <path class="cls-5" d="M224,91c-.1-37.3,30.5-51,59.6-51s56.2,13.6,56.4,50.9c0,.9,0,1.8,0,2.8,5.7,6.5,13.7,16,13,17.8-.4,1-8.8-1.9-15.3-4.2-7.3,22.6-30.1,34.3-54,34.3s-59.5-14.9-59.6-50.4Z"/>
    <path class="cls-7" d="M224,91h-.8s.8,0,.8,0ZM340,90.9h-.8s.8,0,.8,0ZM340,93.6l-.6.5-.2-.2v-.3s.8,0,.8,0ZM353,111.4l.7.3h0s-.7-.3-.7-.3ZM337.6,107.2l-.7-.2.2-.7.7.3-.3.7ZM283.6,40.8c-14.5,0-29.2,3.4-40.3,11.4-11.1,7.9-18.6,20.5-18.5,38.9h-1.5c0-18.9,7.7-31.9,19.2-40.1,11.4-8.2,26.5-11.7,41.2-11.7v1.5ZM339.3,90.9c0-18.4-6.8-30.9-17.1-38.8-10.3-7.9-24.1-11.3-38.6-11.3v-1.5c14.7,0,28.9,3.4,39.5,11.6,10.6,8.2,17.6,21.2,17.7,40h-1.5ZM339.2,93.6c0-.9,0-1.8,0-2.7h1.5c0,.9,0,1.9,0,2.8h-1.5ZM352.3,111.1s0,0,0,0c0,0,0-.2-.1-.4-.1-.4-.4-.9-.7-1.5-.7-1.2-1.8-2.7-3.1-4.4-2.6-3.4-6-7.4-8.9-10.6l1.1-1c2.9,3.2,6.3,7.2,8.9,10.7,1.3,1.7,2.4,3.3,3.2,4.6.4.6.7,1.2.9,1.7,0,.3.2.5.2.8,0,.2,0,.5,0,.8l-1.4-.6ZM337.9,106.5c3.3,1.2,7,2.5,9.9,3.3,1.5.4,2.7.8,3.6.9.5,0,.8.1,1,0,.1,0,.1,0,.1,0,0,0-.2,0-.3.3l1.4.6c-.1.3-.4.5-.6.6-.2,0-.4,0-.6.1-.4,0-.8,0-1.3-.1-1-.2-2.3-.5-3.8-1-3-.9-6.7-2.2-10-3.4l.5-1.4ZM283.6,140.7c23.7,0,46.1-11.5,53.3-33.7l1.4.5c-7.4,23.1-30.6,34.8-54.7,34.8v-1.5ZM224.7,91c0,17.5,7.6,29.9,18.6,37.9,11.1,8,25.8,11.7,40.2,11.7v1.5c-14.7,0-29.7-3.7-41.1-12-11.4-8.3-19.2-21.1-19.2-39.2h1.5Z"/>
  </g>
  <path class="cls-7" d="M235.4,79.2h.2c.5.4.8.7,1.3.7,2,0,6.9-.6,8.6-.8.5,0,.8-.5,1.2-.5.8,0,2.4,1.4,2.4,2.2s-.7.4-1.4,1c-1.1.9-2.7,2.1-4.6,3.4l-.6-.5c1.6-1.3,2.9-2.9,3.6-4,.1-.2,0-.4-.2-.4-1.8.2-5.7.8-7.1,1.2-.4.1-.8.6-1.3.6s-1.6-.9-1.8-1.6c-.1-.3-.2-.7-.2-1.2ZM239.2,82.8c2.6.7,5.7,2.3,5.7,4.6s-.5,1.1-1,1.1c-.9,0-.8-1.1-2.3-2.9-1-1.2-1.9-2-2.6-2.5l.2-.3ZM253.3,77.8c2.2.3,4.8,1.2,4.8,2.8s-.4,1.1-1,1.1-.8-.3-1.2-.8c-.8-1.1-1.2-1.6-2.7-2.8l.2-.3ZM265.1,79.3l.3.2c-1.8,3.5-4.7,6.3-8.4,8.6-.5.3-.7.8-1.2.8-.9,0-2-1-2.4-1.6-.2-.4-.3-1-.3-1.5h.2c.4.2.9.8,1.5.8,1.7,0,8-4.4,10.3-7.4ZM270,77.5v-.3c.6,0,1.4,0,2.4.3,1.1.3,2,.8,2,1.8s-.4.9-.8.9c-.8,0-1.1-.6-1.9-1.4-.6-.6-1.2-1-1.7-1.3ZM280.8,79.8l.3.2c-1.6,3.2-5.2,6.5-8.7,8.6-.5.3-.7.8-1.3.8s-1.8-.7-2.2-1.4c-.3-.4-.4-1.2-.4-1.6h.2c.3.3.9.9,1.5.9,1.8,0,7.9-4.2,10.6-7.5ZM268,80.9v-.3c.8,0,1.4.1,2.2.3,1.2.3,2.3.9,2.3,1.9s-.2.9-.9.9-1.1-.7-1.8-1.4c-.7-.7-1.3-1.2-1.8-1.5ZM285.8,80.9c.3.3.6.5.9.5,1,0,3.8-.3,4.4-.4.4,0,.6-.4,1-.4s2,1,2,1.6-.5.5-.6,1c-.2.9-.6,3.4-.9,4.8h-1.4c.2-1.2.5-4.8.6-5.6,0-.1,0-.2-.1-.2-.9,0-2.6.2-3.6.4-.5.1-.9.4-1.2.4-.5,0-1.1-.8-1.2-1.2,0-.3,0-.5,0-.8h.2ZM286.1,83.9c.3.3.7.4,1,.4.6,0,3.6-.4,5-.4v1.2c-1.5,0-3.1.3-3.9.4-.4,0-.7.3-.9.3s-.9-.6-1.1-1c0-.2-.2-.6-.2-.8h.1ZM285.6,86.9c.4.3.6.5,1.1.5,1,0,5.3-.5,5.7-.5s1.3.6,1.3,1-.3.6-.6.6-1.4-.2-2.2-.2-2.1.2-2.8.4c-.4.1-.8.3-1.2.3-.5,0-1.1-.8-1.3-1.2,0-.2-.1-.4-.1-.8h.1ZM300.6,77.8c2.2.3,4.8,1.2,4.8,2.8s-.4,1.1-1,1.1-.8-.3-1.2-.8c-.8-1.1-1.2-1.6-2.7-2.8l.2-.3ZM312.4,79.3l.3.2c-1.8,3.5-4.7,6.3-8.4,8.6-.5.3-.7.8-1.2.8-.9,0-2-1-2.4-1.6-.2-.4-.3-1-.3-1.5h.2c.4.2.9.8,1.5.8,1.7,0,8-4.4,10.3-7.4ZM326.4,79.2c-.3-.4-.7-1-1.5-1.6l.2-.2c.9.2,1.6.5,2.1,1,.4.3.5.6.5.9s-.2.6-.6.6-.5-.2-.7-.6ZM327.9,77.9c-.3-.4-.6-.8-1.5-1.5v-.2c1.1.2,1.8.4,2.2.8.4.3.6.6.6,1s-.2.6-.5.6-.5-.3-.8-.7ZM318.1,87c.8.4,1.4.7,1.8.7s.8-.2,1.1-.5c.8-.9,1.2-3.2,1.2-4.8s-.3-1.3-1-1.3-3,.8-4,1.3c-.5.2-.8.4-1.3.4s-1.2-.8-1.3-1.5c0-.4,0-.8.2-1.1h.2c.3.5.5.8.9.8.7,0,2.3-.4,3.8-.7.5,0,1.4-.2,1.9-.2,1.3,0,2.1.8,2.1,2.9s-.5,4.4-1.7,5.6c-.5.6-1.3.9-2.1.9s-.9-.3-1.1-1.1c0-.3-.2-.5-1-1.3v-.2ZM318,77.2v-.2c.3-.2.8-.4,1.5-.4s2.2.6,2.2,1.2-.5.7-.7,1.2c-.4,1-1.5,3.7-2.3,5.3-.7,1.6-1.7,3.7-2.3,4.6-.4.6-.6.8-1,.8s-.8-.4-.8-1,0-.7.4-1c.8-1,1.7-2.3,2.4-3.9,1.2-2.4,2-5.1,2-5.7s0-.4-.3-.5c-.3-.2-.7-.3-1.2-.4ZM324.3,80.3v-.3c1.1,0,2.2.4,3,1.2.9.8,1.3,2,1.3,3.2s-.4,1.6-1.1,1.7c-.6,0-.6-.5-1.1-.7-.4-.1-1.2-.2-1.7-.2v-.3c.6-.2,1.2-.3,1.5-.5.4-.1.5-.3.5-.8,0-.5-.1-1.2-.6-1.9-.4-.7-1-1.2-1.9-1.4ZM242.7,101.2h11.6l1.1-1.5s1.3,1,2,1.7c0,.2-.2.3-.5.3h-14.2v-.5ZM249,97.4l2.6.2c0,.2-.2.4-.6.5v7.6h-2v-8.3ZM244.7,105.5v-.8l2.1.8h7.9v.4h-8v5.9c0,.2-.9.6-1.7.6h-.3v-6.9ZM253.4,105.5h-.2l.9-1.1,2,1.5c-.1.1-.4.3-.7.4v5.5c0,.1-1,.5-1.7.5h-.3v-6.8ZM245.4,110.5h9.2v.4h-9.2v-.4ZM259.1,100.9h.2c.6.5.8.8,1.4.8.9,0,5.2-.6,6.5-.7,3.4-.4,3.7-.6,4-.6.9,0,1.9.5,1.9,1.2s-.3.6-.8.6c-.7,0-1.8-.5-4.8-.2-2.2.2-4,.6-5,.9-.8.2-1.1.6-1.6.6s-1.6-.8-1.7-1.5c0-.4,0-.8,0-1.2ZM264.6,99v-.2c.4-.3.9-.6,1.4-.6.9,0,2,.4,2,.9s-.3.8-.3,1.2c0,.8-.1,3.6,0,5.3l-1.3-1.2c0-.6-.2-3.5-.3-4.6,0-.3-.1-.4-.4-.5-.3-.1-.7-.2-1.1-.3ZM265.8,103.7c1.9,0,2.6,1.4,2.6,3,0,3.3-2.7,5-6.2,5.5v-.3c1.8-.7,3.5-1.7,4.1-3.2-1.6.5-2.8-.9-2.8-2.5s1-2.5,2.3-2.5ZM265.6,107.4c.8,0,1-.4,1-1.4s-.3-1.4-1-1.4-1.3.6-1.3,1.5.5,1.3,1.2,1.3ZM286.8,100.3c.3.4.5.6.7.6.3,0,.6-.2.6-.6,0-.3,0-.6-.4-.9-.5-.4-1.2-.8-2.1-1l-.2.2c.8.6,1.1,1.2,1.4,1.7ZM288.3,99.2c.3.4.5.7.8.7s.5-.2.5-.6-.2-.7-.6-1c-.4-.3-1.2-.6-2.1-.8v.2c.7.6,1,1.1,1.3,1.5ZM276.3,100.1c.9.6,1.4.8,2.4.8s2.5-.3,3.4-.6c1.4-.4,2-1,2.1-1,.6,0,1.3,0,1.3.7,0,.2-.1.5-.5.7-.9.6-3.8,1.6-6.1,1.6s-2.3-.4-3-1.9h.2ZM278.1,102.6c-.7.9-.4,1.4.9,1.4s3-.3,4.6-.9c1.7-.6,2.1-1,2.2-1,.6,0,1.3,0,1.3.7s0,.5-.5.7c-1.4.9-4.7,1.8-7.7,1.8s-3.2-1.6-1.2-3l.2.2ZM281.3,106.6c1.1,0,2.3.2,2.9.3.2,0,.2,0,.1-.1-.3-.5-1-1.4-1.7-2.8-.6-1.2-1.4-2.9-1.9-4.2-.2-.4-.3-.6-.8-.7-.3,0-.7-.1-1.1-.1v-.2c.4-.4,1-.7,1.6-.7s1.5.2,1.6.8c0,.5.2,1.4.4,2,.4,1.2.7,1.9,1.3,3,1.4,2.5,2.7,3,2.7,3.7s-.5,1.5-1,1.5-.8-.4-1.7-.9c-.6-.3-1.7-.7-3-.7s-2.6.7-2.6,1.6,1.6,1.4,2.9,1.4,1.6-.2,2.5-.2,1.3.2,1.3.8-1.6,1.1-3.4,1.1c-2.5,0-4.5-1-4.5-2.7s1.5-2.7,4.4-2.7ZM291.3,100.5c.3.4.6.8,1.1.8,1,0,3.3-.6,6.1-1.3,1.7-.4,3.4-.8,3.9-.8s1,0,1.4.3c.4.2.7.5.7.9s-.3.7-.8.7-.9,0-1.4,0c-.7,0-1.7,0-2.6.7-.6.4-1.9,1.7-1.9,4.4s.8,2.5,1.4,2.8c.9.5,2.2.4,2.7.4s1.2.5,1.2,1.1-.8.9-1.5.9c-1.2,0-2.4-.1-3.4-.8-1.1-.7-1.8-1.8-1.8-3.8s1.1-4.3,2.9-5.5c.1,0,.1-.2,0-.2-1.9.4-4.1,1.2-5.1,1.8-.3.2-.7.6-1.1.6-.7,0-1.8-1.1-1.9-1.8,0-.4,0-.8.1-1h.2ZM309.1,104.9c0-.5.4-.9.9-.9s.9.4.9.9-.4.9-.9.9-.9-.4-.9-.9ZM317.1,104.9c0-.5.4-.9.9-.9s.9.4.9.9-.4.9-.9.9-.9-.4-.9-.9Z"/>
  <g>
    <path class="cls-5" d="M5,323.8c-.3-40.1,44.5-60.8,91.9-60.8s29.2,1.7,45.6,6.9c5.7-8.2,11.2-15.2,13.3-14.9,1.5.2,1.3,10.2.7,20.3,9.2,4.2,18.1,9.7,25.9,16.9,7.3,8.5,11.6,18.9,11.6,31.5.2,44.9-49.7,61.3-97.1,61.3S5.3,368.6,5,323.8Z"/>
    <path class="cls-7" d="M5,323.8h-.8s.8,0,.8,0ZM142.5,269.9l.6.4-.3.5-.5-.2.2-.7ZM155.7,255v-.7h0v.7ZM156.4,275.3l-.3.7-.5-.2v-.5s.8,0,.8,0ZM182.4,292.2l.5-.6h0s0,0,0,0l-.6.5ZM194,323.7h.8s-.8,0-.8,0ZM96.9,263.8c-23.6,0-46.5,5.2-63.4,15.3-16.9,10.1-27.8,25.1-27.7,44.8h-1.5c-.1-20.4,11.2-35.8,28.4-46.1,17.2-10.3,40.4-15.5,64.2-15.5v1.5ZM142.2,270.7c-16.3-5.2-32.7-6.9-45.4-6.9v-1.5c12.8,0,29.3,1.8,45.8,7l-.5,1.4ZM141.9,269.5c2.9-4.1,5.7-7.9,8-10.7,1.2-1.4,2.3-2.5,3.2-3.3.5-.4.9-.7,1.4-.9.4-.2.9-.4,1.4-.3l-.2,1.5s-.2,0-.5.2c-.3.1-.6.4-1.1.8-.8.7-1.9,1.8-3,3.1-2.3,2.7-5.1,6.5-8,10.6l-1.2-.9ZM155.8,254.3c.3,0,.6.2.7.4.2.2.3.4.4.6.2.4.3.9.4,1.5.2,1.2.3,2.8.3,4.7,0,3.8-.1,8.9-.4,13.9h-1.5c.3-5.1.5-10.1.4-13.9,0-1.9-.1-3.4-.3-4.5,0-.5-.2-.9-.3-1.1,0-.1,0-.1,0-.1,0,0,0,0,.2,0l.2-1.5ZM181.8,292.8c-7.7-7.1-16.5-12.6-25.7-16.8l.6-1.4c9.3,4.2,18.3,9.8,26.1,17l-1,1.1ZM193.2,323.7c0-12.4-4.3-22.6-11.5-31l1.1-1c7.4,8.6,11.8,19.2,11.8,31.9h-1.5ZM96.9,384.2c23.6,0,47.8-4.1,66-13.8,18.2-9.6,30.4-24.7,30.3-46.8h1.5c0,22.8-12.6,38.3-31.1,48.2-18.5,9.8-43,13.9-66.7,13.9v-1.5ZM5.8,323.8c.2,22.1,11.1,37.1,27.9,46.7,16.9,9.6,39.6,13.7,63.2,13.7v1.5c-23.8,0-46.8-4.1-64-13.9-17.2-9.8-28.5-25.3-28.7-48h1.5Z"/>
  </g>
  <path class="cls-7" d="M36.2,303.6c0-1,.8-1.9,1.9-1.9s1.9.8,1.9,1.9-.8,1.9-1.9,1.9-1.9-.8-1.9-1.9ZM36.9,303.6c0,.7.6,1.2,1.2,1.2s1.2-.6,1.2-1.2-.5-1.2-1.2-1.2-1.2.5-1.2,1.2ZM26.7,307.4h.2c.3.1.7.3.9.3s.5-.1.9-.5c.8-.7,2.2-2.3,2.7-2.8.4-.4.8-.7,1.2-.7s1,.2,1.6.8c2.2,2,4.5,4.1,6,5.2.6.4,1,1.1,1,1.7s-.3.9-.8.9-1.4-.6-2.7-1.9c-1-1-3.5-3.8-4.4-4.7-.3-.3-.5-.4-.7-.4s-.3.1-.6.4c-.5.7-1.6,2.3-2.1,3.1-.4.5-.6,1-1.2,1s-1.4-.5-1.8-1.1c-.2-.3-.3-.7-.3-1.2ZM47.9,304.7l.2-.2c.5.2.9.3,1.3.6.8.4,1.3,1.1,1.3,1.9s-.4.8-.8.8c-.8,0-.7-.7-1.1-1.6-.2-.5-.6-1.2-.8-1.5ZM46,313.9v-.2c3.8-1.9,6.8-6.4,6.8-8s-.3-.5-.8-.8v-.2c.3,0,.7-.1.9-.1.8,0,1.9,1,1.9,1.6s-.4.6-.6,1c-1.3,2.8-4.2,5.7-8.3,6.8ZM45.1,305.7l.2-.2c.5.2.9.4,1.2.6.9.5,1.4,1.2,1.4,2s-.3.8-.8.8-.8-.8-1.1-1.7c-.3-.7-.6-1.2-.9-1.5ZM62.6,300.8c.5-.2,1-.4,1.5-.4.8,0,2.2.8,2.2,1.3s-.4.6-.4,1.2c-.1.7-.1,1.8-.2,2.9,0,1.7,0,3.9,0,5.3,0,.8,0,1.4,0,1.6,0,.8-.2,1.2-.8,1.2s-1.3-.9-1.3-2,.1-.8.2-1.5c.1-1.2.2-3.4.2-4.3s0-3.3-.2-4c0-.5-.6-.7-1.2-.8v-.3ZM65.3,305.3c1.7.2,3.4.6,4.4,1.2.7.4,1.2.9,1.2,1.7s-.4,1-.9,1c-1,0-1.1-.9-2.3-2-.6-.5-1.2-.9-2.3-1.4v-.5ZM76,302c.6.5,1.1.9,2.2.9,1.5,0,3.6-.7,4.6-1,.5-.2.7-.4.9-.4.6,0,1.1.2,1.1.7s-.1.5-.6.7c-.8.4-3.6,1.4-6.4,1.4s-1.6-.8-2-2.1h.2ZM83.3,310.4c0,.6-.3,1-.8,1s-.9-.3-.9-.9.1-1.6,0-2.7c0-1.3-.2-1.8-.9-1.8s-1.8,1.2-2.4,1.8c-.6.7-1.1,1.7-1.7,1.7-.6,0-.8-.4-.8-1.1,0-.6.5-.9,1.2-1.5,1.9-1.9,3-4.5,3.2-5.4,0-.3,0-.4-.2-.6-.2-.1-.5-.3-1-.4v-.2c.4-.2.9-.3,1.2-.3.7,0,2,.2,2,.8s-.1.4-.3.7c-.2.4-.5.9-.7,1.4-.3.5-.8,1.6-1.9,3.1,0,0,0,.2.1,0,.6-.4,1.1-.6,1.7-.6,1,0,1.7.7,1.9,1.8.2,1.1.2,2.5.2,3.3ZM85.6,303.9c.8,0,1.2.1,1.6.4.6.3,1.2,1.1,1.2,1.7s-.5.5-1.3.7c-1.5.4-3.9,1.3-5.3,2-1.5.8-2.7,1.7-2.7,2.6s.6,1.1,2.2,1.1c2.4,0,3.3-.5,4-.5s1.5.2,1.5.9-.2.7-.8.9c-.7.2-2.3.4-3.6.4-3.1,0-4.1-1.1-4.1-2.5s2-3,3.7-4c1.2-.7,3.2-1.6,4.1-2.1.3-.2.3-.3.1-.6-.2-.2-.5-.4-.8-.6v-.3ZM100.3,305.2h-.1l.7-.7,1.4,1c0,0-.2.2-.4.2v4.4c0,.1-.7.5-1.3.5h-.3v-5.5ZM98.5,309.2h2.6v.5h-2.6v-.5ZM97.1,300.6h6.5v.4h-6.4v-.4ZM102.9,300.6h-.2l.9-1,1.9,1.5c-.1.2-.4.3-.8.4v10.8c0,1.2-.3,2-2.5,2.2,0-.6-.2-1-.5-1.3-.3-.3-.8-.5-1.7-.6v-.2s2.1.1,2.6.1.4-.1.4-.4v-11.4ZM97.6,303.1h2.5l.9-1.2s1,.8,1.6,1.4c0,.2-.2.3-.4.3h-4.4v-.4ZM97.7,305.2v-.6l1.5.6h1.7v.5h-1.7v5.1c0,.1-.6.5-1.2.5h-.2v-6ZM94.6,300.5c4.5,1.2,2.5,3.7,1.3,2.6-.2-.7-.8-1.7-1.5-2.6h.2ZM93.5,302.4l1.9.2c0,.2-.1.3-.4.3v1.6h-1.5v-2.1ZM92.3,306.4h3.7v.5h-3.7v-.5ZM92.3,308.4h3.7v.5h-3.7v-.5ZM94.5,309.8c4.4,1.4,3,4.5,1.5,3.3-.2-1.1-1-2.4-1.6-3.2h.2ZM90.5,312.3c1-.1,3.3-.6,5.7-1.1v.2c-.9.6-2.2,1.5-4.3,2.6,0,.2-.2.4-.4.4l-1.1-2.1ZM94.9,300.6c-.9,1.5-2.6,3.3-4.5,4.3h-.1c1.3-1.5,2.6-4,3.1-5.5l2.3.9c0,.2-.3.3-.7.3ZM91.7,304.3v-.7l1.6.7h2.8v.5h-2.8v7.4c0,.2-.7.5-1.3.5h-.2v-8.4ZM95.3,304.3h0l.7-.8,1.4,1.2c-.1.1-.3.2-.6.3v4.2c0,0-.6.3-1.2.3h-.3v-5.2ZM108.8,307.1c.1.2.5.4.8.4s.3,0,.6-.2c1.5-.6,3.4-1.8,5.4-1.8s3.7,1.6,3.7,3.2-1,2.6-2.2,3.3c-1.4.8-3.7.9-5.4.8v-.3c3.1-.4,5.9-1.6,5.9-4s-.7-2.2-2-2.2-3.3,1.7-3.9,2.2c-.7.5-1,.8-1.4.8s-1.4-.6-1.6-1.2c-.1-.3,0-.7,0-1h.2ZM123.3,302.5c.3.4.6.8,1.1.8,1,0,3.3-.6,6.1-1.3,1.7-.4,3.4-.8,3.9-.8s1,0,1.4.3c.4.2.7.5.7.9s-.3.7-.8.7-.9,0-1.4,0c-.7,0-1.7,0-2.6.7-.6.4-1.9,1.7-1.9,4.4s.8,2.5,1.4,2.8c.9.5,2.2.4,2.7.4s1.2.5,1.2,1.1-.8.9-1.5.9c-1.2,0-2.4-.1-3.4-.8-1.1-.7-1.8-1.8-1.8-3.8s1.1-4.3,2.9-5.5c.1,0,.1-.2,0-.2-1.9.4-4.1,1.2-5.1,1.8-.3.2-.7.6-1.1.6-.7,0-1.8-1.1-1.9-1.8,0-.4,0-.8.1-1h.2ZM140.3,304.3c0-.9-.4-1.6-1.2-2.3v-.2c.5,0,1.1,0,1.6.2.8.4,1.8,1.2,1.8,2s-.8,1.7-.8,3.7.7,2.2,1.2,2.4c.2.1.5,0,.6-.1.5-.8,1.1-1.8,1.7-2.8h.3c-.4,1.4-.7,2.8-.7,3.3,0,1,.2.9.2,1.4s-.8,1.1-1.8.7c-1.3-.5-2.8-2-2.9-4.6-.1-1.3,0-2.7,0-3.8ZM147.7,303.6v-.3c1.8,0,2.7.7,3.7,1.5,1,.9,1.4,2.3,1.4,3.5s-.3,1.6-1.1,1.6-.7-.2-.8-.6c-.2-.7-.1-1.6-.6-2.9-.4-1.2-1.3-2.2-2.5-2.8ZM155.3,302.5c.3.4.6.8,1.1.8,1,0,3.3-.6,6.1-1.3,1.7-.4,3.4-.8,3.9-.8s1,0,1.4.3c.4.2.7.5.7.9s-.3.7-.8.7-.9,0-1.4,0c-.7,0-1.7,0-2.6.7-.6.4-1.9,1.7-1.9,4.4s.8,2.5,1.4,2.8c.9.5,2.2.4,2.7.4s1.2.5,1.2,1.1-.8.9-1.5.9c-1.2,0-2.4-.1-3.4-.8-1.1-.7-1.8-1.8-1.8-3.8s1.1-4.3,2.9-5.5c.1,0,.1-.2,0-.2-1.9.4-4.1,1.2-5.1,1.8-.3.2-.7.6-1.1.6-.7,0-1.8-1.1-1.9-1.8,0-.4,0-.8.1-1h.2ZM57,330.9l2.5.2c0,.2-.2.4-.6.4v4.2h-1.9v-4.8ZM52.1,332.8h9.2l1-1.3s1.1.9,1.8,1.5c0,.2-.2.3-.4.3h-11.4v-.5ZM57.7,323.2h5.1l.8-1.1s1,.7,1.6,1.2c0,.2-.2.3-.4.3h-7v-.4ZM57.7,328.3h5.2l.8-1.1s1,.8,1.6,1.3c0,.2-.2.3-.4.3h-7.1v-.4ZM57.4,326.2h5.7l.9-1.1s1,.7,1.6,1.3c0,.2-.2.3-.4.3h-7.6v-.5ZM50.5,335.5h12.1l1-1.3s1.2.9,1.9,1.5c0,.2-.2.3-.4.3h-14.4v-.4ZM53,327.4h3.5v.4h-3.5v-.4ZM52.3,322.5h4v.5h-4v-.5ZM52.3,325h4v.5h-4v-.5ZM53,330h3.6v.4h-3.6v-.4ZM55.6,327.4h-.1l.8-.8,1.6,1.2c0,.1-.3.2-.6.3v2.7c0,.1-.8.5-1.4.5h-.3v-3.8ZM55.5,322.5h-.1l.8-.8,1.7,1.2c0,.1-.3.3-.6.3v2.6c0,0-.9.4-1.4.4h-.3v-3.7ZM52.1,327.4v-.7l1.8.7h-.2v3.8c0,.1-.5.5-1.3.5h-.3v-4.3ZM60.3,321.4l2.3.2c0,.2-.2.4-.5.4v1.3h-1.8v-1.9ZM60.3,326.2h1.8v5c0,0-.5.4-1.4.4h-.3v-5.4ZM51.4,322.5v-.7l1.9.7h-.3v2.2c0,1.8-.2,4.6-2.6,6.3h-.2c1-2,1.1-4.3,1.1-6.2v-2.2ZM59,323.6c3,1.2,1.2,3.4.2,2.2,0-.7-.1-1.6-.3-2.1h.2ZM62.1,323.6l2.2.5c0,.2-.2.3-.6.3-.5.6-1.2,1.4-1.9,2h-.3c.2-.8.4-2,.5-2.8ZM73.1,322.7l2.3.7c0,.2-.2.3-.6.3v10.7c0,0-.4.4-1.5.4h-.2v-12.2ZM79.3,321.6l1.9,1.6c-.2.2-.5.2-1,0-1.6.4-4.1.7-6.3.8v-.2c1.8-.5,4.2-1.5,5.4-2.2ZM74.4,328h4.8l.8-1.3s.9.9,1.5,1.5c0,.2-.2.3-.4.3h-6.7v-.4ZM71.5,334.4c1.2-.2,3.8-.8,6.2-1.4v.2c-1.1.8-2.6,1.7-4.8,2.8,0,.2-.2.4-.4.4l-1-2ZM69,321.4l2.4.9c0,.2-.3.3-.6.3-.8.9-1.7,1.8-2.6,2.4h-.2c.3-1,.7-2.3,1.1-3.5ZM70.7,323.4l2.2.9c0,.2-.3.3-.6.3-.9,1.3-2.5,3.1-4.1,4.4h-.3c1.1-1.6,2.2-3.9,2.8-5.5ZM66.5,328.3c1,0,3.3-.1,5.6-.3v.2c-1,.4-2.5.9-4.6,1.5,0,.2-.3.3-.4.4l-.6-1.8ZM66.8,323.9c4,.8,2.6,3.7,1.1,2.6-.1-.9-.7-1.9-1.3-2.5h.1ZM70.8,326.6c3.4,1.6,2,4.2.7,3,0-1-.5-2.1-.9-2.9h.2ZM71,330.1c3.1,1.6,1.6,4,.4,2.8,0-.9-.3-2-.6-2.8h.2ZM69,328.8h1.7c0-.1,0,7.1,0,7.1,0,.1-.5.5-1.4.5h-.3v-7.6ZM67.4,330.4l2.1.5c0,.2-.2.4-.6.4-.5,1.6-1.3,3-2.2,3.9h-.2c.5-1.3.8-3.1.9-4.8ZM76.6,323.2h1.8c-.3,4,0,8.6,1.8,10.5.2.2.3.2.4,0,.2-.4.5-1.1.8-1.7h.2s-.3,2.6-.3,2.6c.4.9.5,1.4.1,1.7-.8.6-1.9,0-2.4-.7-2.2-2.9-2.5-7.6-2.4-12.3ZM87.8,322.5v-.2c1.7-.1,2.8.4,3.3.9.4.4.5.8.5,1.2s-.3.7-.7.7-.8-.2-1.1-.2c-.5,0-1.7-.2-2.6-.1-.4,0-.7,0-.7.4s1,1.4,1.6,2.3c1.1,1.7,2.1,3.9,2.6,5.1.3.8.6,1.8.6,2.4s-.4,1.1-1,1.1-.7-.3-.9-.9c-.2-.5-.3-1.4-.5-2.4-.3-1.1-.8-2.8-1.9-4.5-.4-.7-.8-1.2-1.2-1.6-.4-.5-.8-.8-.7-1.4,0-1.2,1.1-1.1,1.7-1.2.9,0,1.9-.1,2.3-.2.2,0,.3-.2.2-.4-.2-.3-.7-.8-1.6-1.1ZM82.9,328.1c.3.3.6.7.9.7s1-.3,1.5-.6c2.9-1.5,6-3,8.2-3s3.5,1.3,3.5,3-1.4,2.9-3.5,2.9-2.7-.9-3.6-2.4l.2-.2c.9.8,1.9,1.2,3.1,1.2s2.2-.7,2.2-2-.9-1.8-2-1.8c-2.1,0-5.5,2.3-7.6,3.9-.6.4-.8.8-1.4.8s-1.4-.5-1.7-.9c-.2-.4-.3-.7-.2-1.4h.3ZM105.9,326.9c5.7,1.8,4.4,5.8,2.5,4.4-.4-1.5-1.6-3.2-2.7-4.3h.2ZM110.7,324.5h-.2l.9-1,1.8,1.4c-.1.1-.3.3-.7.3v8.9c0,1.3-.3,2.1-2.7,2.3,0-.6-.2-1.1-.5-1.4-.3-.3-.8-.5-1.8-.7v-.2s2.2.1,2.7.1.4-.1.4-.4v-9.5ZM99.6,324.5v-.8l2,.8h9.9v.4h-10v10.8c0,.2-.8.7-1.6.7h-.3v-11.9ZM105,321.4l2.5.2c0,.2-.2.4-.6.4-.2,4.5-.3,7.8-5.2,9.9l-.2-.2c3.3-2.5,3.3-5.8,3.4-10.3ZM123.4,321.5l2.4.2c0,.2-.1.4-.5.4v5.7h-1.9v-6.3ZM120.3,324.1h6.4l1-1.3s1.1.9,1.8,1.5c0,.2-.2.3-.4.3h-8.5v-.4ZM120.4,327.5h6.1l1-1.3s1.1.9,1.7,1.5c0,.2-.2.3-.4.3h-8.3v-.4ZM114.5,326.7c.7-.1,2.4-.6,4-1v.2c-.5.5-1.4,1.3-2.6,2.3,0,.2-.2.4-.4.4l-1-1.9ZM118.2,321.5l2.4.2c0,.2-.2.4-.6.4v6.5c0,.1-.8.4-1.4.4h-.3v-7.6ZM115.4,322.2c3.8,1.1,2,3.8.6,2.5,0-.8-.3-1.8-.7-2.4h.2ZM121,328.5l2.4.2c0,.2-.1.4-.5.4v1.1h-1.9v-1.7ZM114.5,330.1h12.2l1-1.3s1.1.9,1.7,1.5c0,.2-.2.3-.5.3h-14.3v-.4ZM118.7,332.4l1.8-1v3.2s-.6.3-1.5.3h-.3v-2.5ZM120.3,330.1h2.6v.3c-1.8,1.7-4.9,2.8-8.3,3.3v-.2c2.3-.8,4.5-2.1,5.7-3.4ZM116.3,334.5c1.4,0,4.5-.4,7.7-.8v.2c-1.3.5-3.3,1.2-6.2,2.1,0,.2-.2.3-.4.4l-1.1-2ZM122.5,330.1c1.1,2.7,4,3.9,7.1,4.4v.2c-.8.2-1.3.8-1.5,1.7-2.9-1.1-4.9-2.7-5.8-6.1h.2ZM126.6,330.5l1.9,1.3c0,.2-.3.2-.6.1-.9.4-2.3.7-3.5.8l-.2-.2c.9-.6,1.9-1.5,2.4-2.1ZM142.8,325.2c-.3-.4-.7-1-1.5-1.6l.2-.2c.9.2,1.6.5,2.1,1,.4.3.5.6.5.9s-.2.6-.6.6-.5-.2-.7-.6ZM144.3,323.9c-.3-.4-.6-.8-1.5-1.5v-.2c1.1.2,1.8.4,2.2.8.4.3.6.6.6,1s-.2.6-.5.6-.5-.3-.8-.7ZM134.4,333c.8.4,1.4.7,1.8.7s.8-.2,1.1-.5c.8-.9,1.2-3.2,1.2-4.8s-.3-1.3-1-1.3-3,.8-4,1.3c-.5.2-.8.4-1.3.4s-1.2-.8-1.3-1.5c0-.4,0-.8.2-1.1h.2c.3.5.5.8.9.8.7,0,2.3-.4,3.8-.7.5,0,1.4-.2,1.9-.2,1.3,0,2.1.8,2.1,2.9s-.5,4.4-1.7,5.6c-.5.6-1.3.9-2.1.9s-.9-.3-1.1-1.1c0-.3-.2-.5-1-1.3v-.2ZM134.4,323.2v-.2c.3-.2.8-.4,1.5-.4s2.2.6,2.2,1.2-.5.7-.7,1.2c-.4,1-1.5,3.7-2.3,5.3-.7,1.6-1.7,3.7-2.3,4.6-.4.6-.6.8-1,.8s-.8-.4-.8-1,0-.7.4-1c.8-1,1.7-2.3,2.4-3.9,1.2-2.4,2-5.1,2-5.7s0-.4-.3-.5c-.3-.2-.7-.3-1.2-.4ZM140.7,326.3v-.3c1.1,0,2.2.4,3,1.2.9.8,1.3,2,1.3,3.2s-.4,1.6-1.1,1.7c-.6,0-.6-.5-1.1-.7-.4-.1-1.2-.2-1.7-.2v-.3c.6-.2,1.2-.3,1.5-.5.4-.1.5-.3.5-.8,0-.5-.1-1.2-.6-1.9-.4-.7-1-1.2-1.9-1.4ZM63.3,346.1c-.3-.5-.5-1-1.3-1.7v-.2c1,.2,1.7.6,2.1,1.1.3.3.4.6.4.9,0,.4-.3.6-.6.6s-.5-.3-.7-.7ZM64.7,345.1c-.3-.4-.6-.9-1.4-1.5v-.2c1,.2,1.7.4,2.1.8.4.3.5.7.5.9,0,.3-.2.6-.5.6-.3,0-.4-.3-.7-.6ZM56.8,345.5c.5.3,1.2.5,1.8.5s1.6-.1,2.4-.3c.7-.2.9-.4,1.1-.4.5,0,1.1.3,1.1.8s-.1.5-.4.6c-.9.3-2.5.5-3.4.5s-2.2-.4-2.7-1.6l.2-.2ZM56.3,349c.6.5,1.2.8,2.2.8s1.6-.1,2.2-.3c.6-.2,1.3-.4,1.8-.6.4-.2.6-.3.7-.3.2,0,1.3,0,1.3.8s-.1.6-.7.8c-.8.4-2,.6-3,.7-.7.1-1.3.2-1.9.2-1.2,0-2.2-.4-2.8-1.9l.2-.2ZM59,347.1l.6-.3c.6,0,1.4.2,1.8.4.3.1.3.3.2.6-.2.7-.2,1.6-.2,2.5,0,2.2.4,3.9.4,5.1s-.9,2.2-3,2.2-2.8-.6-2.8-2.1,1.5-2.1,3.4-2.1,3.7.8,4.6,1.5c.6.4.8.8.8,1.4s-.2.8-.7.8-.6-.3-.9-.5c-1.7-1.6-3-2.2-4.5-2.2s-2,.4-2,1,.6.8,1.7.8,1.7-.5,1.7-1.4c0-2,0-3.9,0-4.8s0-1.9-.1-2.4c0-.5-.6-.6-.9-.7ZM51.3,344.8l.2-.2c.4,0,.9.3,1.4.6.6.4,1.3,1.4,1.3,2.1s-.4.8-.8,1.8c-.4.8-1.1,2.6-1.1,4s0,1,.2,1.2c.1.3.3.3.4,0,.3-.5,1.2-2.2,1.7-3h.3c-.3,1.1-.8,2.5-1,3.3-.1.5-.2,1.1-.2,1.3,0,.6.2.9.2,1.4s-.2.8-.8.8-.7,0-1.1-.7c-.5-.8-.9-2.3-.9-4.1s.5-3.4.7-4.4c.2-.7.4-1.3.4-2.1s-.5-1.5-.8-2ZM70.3,344.8c.2.5.6,1,1,1,.6,0,3.1-.6,3.6-.8.4-.2.5-.4.7-.4.8,0,2,1.1,2,1.8s-.6.5-1,.8c-.8.5-3.6,3-4.1,3.6,0,.1,0,.2,0,.1.9-.4,2.1-.7,3.1-.7,2.4,0,4.2,1.3,4.2,3.6s-2.3,4.5-8.6,4.1v-.3c4.5-.5,6.7-2.3,6.7-4.6s-1.1-2.2-2.6-2.2-4.1,1.8-5.6,3.6c-.3.4-.5.7-.9.7s-.8-.4-.8-1.1.8-1.1,2-2.2c1.1-1,4.3-4.3,4.8-5.1s.2-.5-.2-.4c-.6.1-1.8.7-2.4,1.1-.3.1-.5.4-.9.4-.7,0-1.6-1-1.6-1.6,0-.4,0-.8.2-1.1h.2ZM95.3,346.1c-.3-.5-.5-1-1.3-1.7v-.2c1,.2,1.7.6,2.1,1.1.3.3.4.6.4.9,0,.4-.3.6-.6.6s-.5-.3-.7-.7ZM96.7,345.1c-.3-.4-.6-.9-1.4-1.5v-.2c1,.2,1.7.4,2.1.8.4.3.5.7.5.9,0,.3-.2.6-.5.6-.3,0-.4-.3-.7-.6ZM88.8,345.5c.5.3,1.2.5,1.8.5s1.6-.1,2.4-.3c.7-.2.9-.4,1.1-.4.5,0,1.1.3,1.1.8s-.1.5-.4.6c-.9.3-2.5.5-3.4.5s-2.2-.4-2.7-1.6l.2-.2ZM88.3,349c.6.5,1.2.8,2.2.8s1.6-.1,2.2-.3c.6-.2,1.3-.4,1.8-.6.4-.2.6-.3.7-.3.2,0,1.3,0,1.3.8s-.1.6-.7.8c-.8.4-2,.6-3,.7-.7.1-1.3.2-1.9.2-1.2,0-2.2-.4-2.8-1.9l.2-.2ZM91,347.1l.6-.3c.6,0,1.4.2,1.8.4.3.1.3.3.2.6-.2.7-.2,1.6-.2,2.5,0,2.2.4,3.9.4,5.1s-.9,2.2-3,2.2-2.8-.6-2.8-2.1,1.5-2.1,3.4-2.1,3.7.8,4.6,1.5c.6.4.8.8.8,1.4s-.2.8-.7.8-.6-.3-.9-.5c-1.7-1.6-3-2.2-4.5-2.2s-2,.4-2,1,.6.8,1.7.8,1.7-.5,1.7-1.4c0-2,0-3.9,0-4.8s0-1.9-.1-2.4c0-.5-.6-.6-.9-.7ZM83.3,344.8l.2-.2c.4,0,.9.3,1.4.6.6.4,1.3,1.4,1.3,2.1s-.4.8-.8,1.8c-.4.8-1.1,2.6-1.1,4s0,1,.2,1.2c.1.3.3.3.4,0,.3-.5,1.2-2.2,1.7-3h.3c-.3,1.1-.8,2.5-1,3.3-.1.5-.2,1.1-.2,1.3,0,.6.2.9.2,1.4s-.2.8-.8.8-.7,0-1.1-.7c-.5-.8-.9-2.3-.9-4.1s.5-3.4.7-4.4c.2-.7.4-1.3.4-2.1s-.5-1.5-.8-2ZM102.3,344.8c.2.5.6,1,1,1,.6,0,3.1-.6,3.6-.8.4-.2.5-.4.7-.4.8,0,2,1.1,2,1.8s-.6.5-1,.8c-.8.5-3.6,3-4.1,3.6,0,.1,0,.2,0,.1.9-.4,2.1-.7,3.1-.7,2.4,0,4.2,1.3,4.2,3.6s-2.3,4.5-8.6,4.1v-.3c4.5-.5,6.7-2.3,6.7-4.6s-1.1-2.2-2.6-2.2-4.1,1.8-5.6,3.6c-.3.4-.5.7-.9.7s-.8-.4-.8-1.1.8-1.1,2-2.2c1.1-1,4.3-4.3,4.8-5.1s.2-.5-.2-.4c-.6.1-1.8.7-2.4,1.1-.3.1-.5.4-.9.4-.7,0-1.6-1-1.6-1.6,0-.4,0-.8.2-1.1h.2ZM126.3,350.8c.3.4.5.6.7.6s.6-.2.6-.6c0-.3,0-.6-.4-.9-.5-.5-1.2-.8-2.1-1l-.2.2c.7.6,1.1,1.2,1.4,1.6ZM127.8,349.6c.3.4.5.7.8.7s.5-.2.5-.6-.1-.7-.6-1c-.4-.3-1.2-.6-2.1-.8v.2c.7.6,1,1.1,1.3,1.5ZM115,346.6c.3.4.6.8,1,.8,1,0,3.3-.6,6.1-1.3,1.7-.4,3.4-.8,3.9-.8s1,0,1.4.3c.4.2.7.5.7.9s-.3.7-.8.7-.9,0-1.4,0c-.7,0-1.7,0-2.6.7-.6.4-1.9,1.7-1.9,4.4s.8,2.5,1.4,2.8c.9.5,2.2.4,2.7.4s1.2.5,1.2,1.1-.8.9-1.5.9c-1.2,0-2.4-.2-3.4-.8-1.1-.7-1.8-1.8-1.8-3.8s1.1-4.3,2.9-5.5c.1,0,.1-.2,0-.1-1.9.4-4.1,1.2-5.1,1.8-.3.2-.7.6-1.1.6-.7,0-1.8-1-1.9-1.8,0-.4,0-.8.1-1h.2ZM133,350.9c0-.5.4-.9.9-.9s.9.4.9.9-.4.9-.9.9-.9-.4-.9-.9ZM141,350.9c0-.5.4-.9.9-.9s.9.4.9.9-.4.9-.9.9-.9-.4-.9-.9Z"/>
  <g>
    <path class="cls-5" d="M796.2,317.8c.2,48.4-46.3,66.2-90.6,66.2s-85.4-17.7-85.7-66c-.2-26.7,15.6-45.4,38.2-55.9-1.8-9.2-3-17.9-1.5-19.1,1.1-.9,8.5,6.9,14.9,14,10.7-3.2,22.3-4.7,34.1-4.7,44.2,0,90.4,19.3,90.6,65.5Z"/>
    <path class="cls-7" d="M796.2,317.8h-.8s.8,0,.8,0ZM620,318h.8s-.8,0-.8,0ZM658.2,262.1h.7c0-.1.1.4.1.4l-.5.2-.3-.7ZM656.7,243.1l-.5-.6h0l.5.6ZM671.6,257.1l.2.7h-.5c0,.1-.3-.2-.3-.2l.6-.5ZM705.7,383.3c22,0,44.5-4.4,61.5-14.8,16.9-10.4,28.4-26.7,28.3-50.6h1.5c0,24.5-11.7,41.3-29,51.9-17.3,10.6-40.1,15-62.3,15v-1.5ZM620.8,318c.1,23.9,10.4,40.2,26,50.5,15.7,10.4,36.9,14.8,58.9,14.8v1.5c-22.2,0-43.7-4.4-59.7-15-16.1-10.6-26.6-27.3-26.7-51.7h1.5ZM658.5,262.8c-22.3,10.3-37.9,28.8-37.7,55.2h-1.5c-.2-27,15.9-46,38.6-56.5l.6,1.4ZM657.4,262.3c-.9-4.6-1.6-9.1-2-12.6-.2-1.7-.2-3.3-.2-4.5,0-.6.1-1.1.2-1.6.1-.4.3-.9.7-1.2l.9,1.2s-.1.1-.2.4c0,.3-.2.7-.2,1.2,0,1.1,0,2.5.2,4.2.3,3.4,1.1,7.9,2,12.5l-1.5.3ZM656.2,242.5c.3-.2.6-.2.8-.2.2,0,.5,0,.7.2.4.2.9.5,1.3.9,1,.8,2.2,1.9,3.7,3.3,2.8,2.8,6.3,6.5,9.5,10l-1.1,1c-3.2-3.5-6.6-7.3-9.4-10-1.4-1.4-2.6-2.5-3.5-3.1-.5-.4-.8-.6-1.1-.7,0,0-.1,0-.1,0,0,0,0,0,0,0,0,0,.1,0,.3,0l-.9-1.2ZM705.7,253.1c-11.7,0-23.3,1.6-33.9,4.7l-.4-1.4c10.8-3.2,22.5-4.8,34.3-4.8v1.5ZM795.5,317.8c0-22.8-11.5-38.9-28.4-49.4-16.9-10.5-39.4-15.3-61.4-15.3v-1.5c22.2,0,44.9,4.8,62.2,15.5,17.3,10.7,29,27.3,29.1,50.7h-1.5Z"/>
  </g>
  <path class="cls-7" d="M642.5,300.3h12l1.1-1.3s1.2.8,2,1.5c0,.2-.2.3-.5.3h-14.4v-.4ZM646.5,293.7h6.4l1-1.2s1.2.8,1.9,1.4c0,.2-.2.3-.4.3h-8.9v-.4ZM646.7,295.9h5.8l1-1.2s1.1.8,1.8,1.4c0,.2-.2.3-.4.3h-8.1v-.4ZM646.7,298.1h5.8l1-1.2s1.1.8,1.8,1.4c0,.2-.2.3-.4.3h-8.1v-.4ZM643.2,305.5c1.3-.2,4.4-.7,7.6-1.3v.2c-1.3.7-3.2,1.6-6.1,2.8,0,.2-.2.3-.4.4l-1.2-2ZM649.9,300.3c1.1,3.3,4.1,4.5,7.6,5v.2c-.8.2-1.3.8-1.5,1.6-3.4-1.1-5.5-2.7-6.4-6.7h.2ZM654.5,300.7l2,1.5c-.1.2-.3.2-.6.1-1.1.5-2.7,1.2-4.2,1.6v-.2c.9-.8,2.2-2.2,2.9-3ZM645.7,300.3h1.9v5.1l-1.9.2v-5.3ZM645.7,293.7v-.8l2.2.8h-.3v6.8h-1.9v-6.8ZM660.3,297.3c0-.9-.4-1.6-1.2-2.3v-.2c.5,0,1.1,0,1.6.2.8.4,1.8,1.2,1.8,2s-.8,1.7-.8,3.7.7,2.2,1.2,2.4c.2.1.5,0,.6-.1.5-.8,1.1-1.8,1.7-2.8h.3c-.4,1.4-.7,2.8-.7,3.3,0,1,.2.9.2,1.4s-.8,1.1-1.8.7c-1.3-.5-2.8-2-2.9-4.6-.1-1.3,0-2.7,0-3.8ZM667.7,296.6v-.3c1.8,0,2.7.7,3.7,1.5,1,.9,1.4,2.3,1.4,3.5s-.3,1.6-1.1,1.6-.7-.2-.8-.6c-.2-.7-.1-1.6-.6-2.9-.4-1.2-1.3-2.2-2.5-2.8ZM678.8,300v-.7l1.8.7h3.5v.5h-3.5v5c0,.2-.7.5-1.5.5h-.2v-6ZM679.7,304.4h4.4v.4h-4.4v-.4ZM679.7,302.1h4.4v.4h-4.4v-.4ZM683.3,300h-.2l.8-.9,1.7,1.3c0,.1-.3.3-.6.3v4.6c0,.1-.9.5-1.5.5h-.3v-5.8ZM675.3,293.6v-.8l1.9.8h3v.4h-3v12.6c0,.2-.7.7-1.5.7h-.3v-13.8ZM682.5,293.6v-.7l1.8.7h3.1v.4h-3.2v4.3c0,.2-.8.6-1.5.6h-.2v-5.3ZM686.8,293.6h-.2l.8-1,1.8,1.4c-.1.1-.3.3-.7.3v10.8c0,1.3-.2,2-2.3,2.2,0-.6-.1-1.1-.3-1.3-.2-.3-.5-.5-1.2-.6v-.2s1.3,0,1.6,0,.3-.1.3-.3v-11.4ZM679.6,293.6h-.2l.8-.8,1.7,1.2c0,.1-.3.3-.6.3v4.2c0,.1-.9.4-1.4.4h-.3v-5.3ZM676.2,295.6h3.9v.5h-3.9v-.5ZM676.2,297.6h3.9v.4h-3.9v-.4ZM683.6,295.6h3.9v.5h-3.9v-.5ZM683.6,297.6h3.9v.4h-3.9v-.4ZM690.7,303.2c2.2.4,3.3,1.1,3.9,2,.3.4.3.7.3,1.1,0,.6-.4,1.1-1,1.1s-.8-.2-1-.7c-.4-.9-.9-2.1-2.3-3.2v-.2ZM706.6,306.3h12l1-1.4s1.1.9,1.8,1.6c0,.2-.2.3-.4.3h-14.2v-.4ZM708,301.7h9.5l1-1.4s1.1.9,1.8,1.6c0,.2-.2.3-.4.3h-11.8v-.4ZM713,292.4l2.5.2c0,.2-.1.4-.5.4v2h-1.9v-2.6ZM708.5,293.5h.2c.9,2.1.4,3.6-.4,4.1-.6.4-1.3.2-1.6-.4-.2-.6.1-1,.6-1.3.6-.4,1.2-1.4,1.1-2.5ZM718.9,294.7h-.2l1-1,1.8,1.7c-.1.1-.3.2-.6.2-.7.6-2,1.4-2.9,1.8h-.1c.4-.8.8-2,1-2.7ZM713,301.7h1.9v4.9h-1.9v-4.9ZM708.5,294.7h11.8v.4h-11.8v-.4ZM714.8,294.8h1.9v3.3c0,.2,0,.3.5.3h1.2c.4,0,.8,0,1,0,.2,0,.3,0,.4-.2.2-.2.4-.8.7-1.6h.2v1.6c.6.2.7.4.7.8,0,.7-.6,1.1-3.1,1.1h-1.5c-1.6,0-1.9-.3-1.9-1.6v-3.7ZM711.2,294.9h2.2c-.4,3.4-2.2,5.4-6.6,6.2v-.2c3.2-1.3,4.2-3.2,4.4-6ZM724.7,295.1c.9.6,1.4.8,2.5.8s2.5-.3,3.4-.6c1.5-.4,2-1,2.2-1,.6,0,1.3,0,1.3.7s-.1.5-.4.7c-.9.6-3.8,1.6-6.1,1.6s-2.3-.4-3-1.9h.2ZM726.5,297.6c-.7.9-.4,1.4.9,1.4s3-.3,4.6-.9c1.7-.6,2.1-1,2.3-1,.6,0,1.3,0,1.3.7s0,.5-.5.7c-1.4.9-4.7,1.8-7.7,1.8s-3.1-1.6-1.2-3l.2.2ZM729.7,301.6c1.1,0,2.3.2,2.9.3.2,0,.2,0,.1-.1-.3-.5-1-1.4-1.7-2.8-.6-1.2-1.4-3-1.9-4.2-.2-.4-.3-.6-.8-.7-.3,0-.7-.1-1.1-.1v-.2c.4-.4,1-.7,1.6-.7s1.5.2,1.6.8c0,.4.2,1.4.4,2,.4,1.2.7,1.9,1.3,3,1.4,2.6,2.6,3,2.6,3.7s-.4,1.5-1,1.5-.8-.4-1.7-.9c-.6-.3-1.7-.7-3-.7s-2.6.7-2.6,1.6,1.6,1.4,2.9,1.4,1.6-.2,2.5-.2,1.3.2,1.3.8-1.6,1.1-3.4,1.1c-2.5,0-4.5-1-4.5-2.7s1.5-2.7,4.4-2.7ZM740.9,296.9h7.6l1-1.2s1.1.8,1.8,1.4c0,.2-.2.3-.4.3h-9.8v-.4ZM744.6,296.9h2.4v.3c-1.7,1.6-4.7,2.9-7.8,3.6v-.2c2.1-.9,4.2-2.4,5.4-3.6ZM744.2,298.5h.1c3.6,2.2,3.8,6.8,2.6,8.3-.4.5-1.2.7-2.4.7,0-.5-.1-.9-.4-1.2-.2-.2-.7-.4-1.4-.6v-.2c.7,0,1.7.1,2.1.1s.4,0,.5-.2c.6-1,.6-4.7-1.3-7ZM744.9,298.9l1.2,1.6c-1.7,1.2-4.5,2.3-7,2.9v-.2c2.1-.9,4.6-2.8,5.9-4.3ZM745.9,300.9l1.2,1.7c-2,1.6-5.3,3-8.6,3.5v-.2c2.9-1,5.9-3,7.4-5ZM747,296.9c.9,4,3.5,6.3,6.5,7.6v.2c-.8,0-1.5.6-1.8,1.5-2.7-1.9-4.3-4.6-4.9-9.2h.2ZM750.9,297.8l2.1,1.4c0,.1-.2.2-.6.1-1,.7-2.6,1.5-4.1,2v-.2c.9-1,2.1-2.5,2.6-3.4ZM740.6,294.6h11.3v.4h-11.3v-.4ZM745,292.4l2.5.2c0,.2-.2.4-.6.5v1.8h-1.9v-2.4ZM740.5,293.4h.2c.8,2,.3,3.4-.5,3.9-.5.4-1.3.2-1.6-.4-.2-.6.1-1,.7-1.3.6-.3,1.2-1.2,1.2-2.2ZM751,294.6h-.2l1-1,1.7,1.6c-.1.1-.3.2-.6.2-.6.5-1.7,1.1-2.5,1.5h-.1c.3-.7.7-1.7.8-2.3ZM766.4,299.8c.3.4.5.6.7.6s.6-.2.6-.6c0-.3,0-.6-.4-.9-.5-.5-1.2-.8-2.1-1l-.2.2c.7.6,1.1,1.2,1.4,1.6ZM767.9,298.6c.3.4.5.7.8.7s.5-.2.5-.6-.1-.7-.6-1c-.4-.3-1.2-.6-2.1-.8v.2c.7.6,1,1.1,1.3,1.5ZM755.1,295.6c.3.4.6.8,1,.8,1,0,3.3-.6,6.1-1.3,1.7-.4,3.4-.8,3.9-.8s1,0,1.4.3c.4.2.7.5.7.9s-.3.7-.8.7-.9,0-1.4,0c-.7,0-1.7,0-2.6.7-.6.4-1.9,1.7-1.9,4.4s.8,2.5,1.4,2.8c.9.5,2.2.4,2.7.4s1.2.5,1.2,1.1-.8.9-1.5.9c-1.2,0-2.4-.2-3.4-.8-1.1-.7-1.8-1.8-1.8-3.8s1.1-4.3,2.9-5.5c.1,0,.1-.2,0-.1-1.9.4-4.1,1.2-5.1,1.8-.3.2-.7.6-1.1.6-.7,0-1.8-1-1.9-1.8,0-.4,0-.8.1-1h.2ZM668.9,318.9h7.6l1-1.2s1.1.8,1.8,1.4c0,.2-.2.3-.4.3h-9.8v-.4ZM672.6,318.9h2.4v.3c-1.7,1.6-4.7,2.9-7.8,3.6v-.2c2.1-.9,4.2-2.4,5.4-3.6ZM672.2,320.5h.1c3.6,2.2,3.8,6.8,2.6,8.3-.4.5-1.2.7-2.4.7,0-.5-.1-.9-.4-1.2-.2-.2-.7-.4-1.4-.6v-.2c.7,0,1.7.1,2.1.1s.4,0,.5-.2c.6-1,.6-4.7-1.3-7ZM672.9,320.9l1.2,1.6c-1.7,1.2-4.5,2.3-7,2.9v-.2c2.1-.9,4.6-2.8,5.9-4.3ZM673.9,322.9l1.2,1.7c-2,1.6-5.3,3-8.6,3.5v-.2c2.9-1,5.9-3,7.4-5ZM675,318.9c.9,4,3.5,6.3,6.5,7.6v.2c-.8,0-1.5.6-1.8,1.5-2.7-1.9-4.3-4.6-4.9-9.2h.2ZM678.9,319.8l2.1,1.4c0,.1-.2.2-.6.1-1,.7-2.6,1.5-4.1,2v-.2c.9-1,2.1-2.5,2.6-3.4ZM668.6,316.6h11.3v.4h-11.3v-.4ZM673,314.4l2.5.2c0,.2-.2.4-.6.5v1.8h-1.9v-2.4ZM668.5,315.4h.2c.8,2,.3,3.4-.5,3.9-.5.4-1.3.2-1.6-.4-.2-.6.1-1,.7-1.3.6-.3,1.2-1.2,1.2-2.2ZM679,316.6h-.2l1-1,1.7,1.6c-.1.1-.3.2-.6.2-.6.5-1.7,1.1-2.5,1.5h-.1c.3-.7.7-1.7.8-2.3ZM689.1,318.5h6.5l.8-1.3s.9.9,1.4,1.6c0,.2-.2.3-.4.3h-8.2v-.5ZM693.6,314.6l2.4.2c0,.2-.2.4-.6.4v11.9c0,1.3-.3,2-2.4,2.2,0-.6-.1-1-.4-1.3-.3-.3-.6-.5-1.5-.6v-.2s1.7.1,2.1.1.4,0,.4-.3v-12.5ZM693.2,318.5h2.1v.3c-1,3.2-3.2,5.8-6.4,7.5l-.2-.2c2.2-1.9,3.8-4.8,4.5-7.6ZM684.4,325.3l2.2,1.1c0,.2-.2.3-.6.2-.8,1-2,2.1-3.5,2.8v-.2c.8-1.1,1.6-2.8,1.9-4ZM686.5,325.5c4.4,1.1,2.7,4.5,1.1,3.1,0-1.1-.6-2.2-1.2-3h.1ZM683.3,315.6v-.8l1.9.8h1.8l.9-1,1.7,1.3c-.1.1-.3.3-.7.3v8.8c0,0-.6.5-1.5.5h-.3v-9.4h-2.1v9.3c0,.1-.5.5-1.4.5h-.3v-10.3ZM684.3,318.4h3.8v.5h-3.8v-.5ZM684.3,321.3h3.8v.5h-3.8v-.5ZM684.3,324.3h3.8v.4h-3.8v-.4ZM702.8,317.2h8l1-1.3s1.1.9,1.8,1.5c0,.2-.2.3-.4.3h-10.2v-.5ZM704.7,314.4c4,.7,2.2,3.6.7,2.4,0-.8-.4-1.7-.8-2.3h.1ZM709.9,319.1h-.2l.9-.9,1.7,1.3c0,.1-.3.3-.6.3v6.4c0,.1-.9.5-1.6.5h-.3v-7.6ZM705.2,321.1h5.6v.5h-5.6v-.5ZM705.2,323.1h5.6v.4h-5.6v-.4ZM705.2,325.2h5.6v.5h-5.6v-.5ZM709.1,314.4l2.6.5c0,.2-.2.3-.6.4-.6.6-1.6,1.5-2.4,2.2h-.2c.2-.8.5-2.1.6-3ZM704.1,319.1v-.8l1.9.8h4.6v.4h-4.7v6.6c0,.2-.8.6-1.5.6h-.3v-7.7ZM702.3,326.1c1.1,1.1,2.2,1.3,5.1,1.3s4.2,0,6.1,0v.2c-.7.2-1.1.7-1.2,1.6h-4.9c-3,0-4.2-.5-5.3-2.7-.7.9-1.7,2.1-2.4,2.7,0,.2,0,.3-.3.4l-1-2.1c1-.3,2.6-1,3.9-1.5v.3ZM702.3,322.1v3.9l-1.8,1v-5.1h-2v-.5c0,0,1.7,0,1.7,0l.9-1.2,1.9,1.6c-.1.1-.4.3-.8.4ZM699.2,314.9c4.8.8,3.2,4.4,1.4,3.1-.2-1.1-.9-2.2-1.6-3h.1ZM706.8,317.2h2.3c-.4.7-1.2,1.7-1.8,2.3h-.6c0-.7.1-1.7.1-2.3ZM717.6,315.6v-.8l2,.8h6.3v.4h-6.4v7.7c0,.2-.8.6-1.6.6h-.3v-8.8ZM724.7,315.6h-.2l.9-1,1.8,1.4c-.1.1-.3.3-.7.3v7.2c0,.1-.9.5-1.6.5h-.3v-8.5ZM718.3,318h7.3v.5h-7.3v-.5ZM718.3,320.3h7.3v.5h-7.3v-.5ZM718.3,322.8h7.3v.4h-7.3v-.4ZM714.5,325h11.9l1.1-1.4s1.2.9,2,1.6c0,.2-.2.3-.5.3h-14.4v-.4ZM723.3,326.1c8.5,1,5.2,4.4,3.6,2.9-.6-.8-1.9-1.9-3.7-2.7v-.2ZM719.3,325.7l2.3,1.3c-.1.2-.4.3-.9.2-1.4.9-3.7,1.8-6,2.3v-.2c1.8-.9,3.7-2.4,4.6-3.6ZM735.6,315.5v-.2c.3-.1.7-.2,1.2-.2,1,0,2.2,1,2.2,1.6s-.3.6-.5.9c-.3.5-.6,1.1-1,2.1-.5,1.4-1.4,4.1-1.4,5.8s.9,2.1,2.4,2.1,3.1-1.2,3.1-2.7-1-2.9-2.4-3.9l.2-.2c2.7,1,4,2.7,4,4.6s-1.3,3.7-4.5,3.7-3.7-1.4-3.7-3.4.6-4.7,1-6.1c.4-1.5.7-2.5.7-2.9,0-.4-.2-.5-.4-.7-.2-.1-.5-.2-.7-.3ZM733,317.1c.4.5.8,1,1.5,1.2,1.2.4,2.3.3,3.3.4.8,0,1.1.6,1.1,1s-.3.6-.8.6c-.6,0-1.4,0-2.1,0-1.1,0-2.5.8-2.5,1.5s.8.9,2.1,1.1c1,0,1.9,0,2.4,0,.6,0,.9.3.9.8s-.4.8-1,.9c-.6,0-1.6,0-2.5-.1-1.6-.4-2.6-1.3-2.6-2.3s.8-1.8,1.9-2.4c-.4-.1-.7-.3-1.1-.5-.5-.4-.8-.8-.9-1.9h.2ZM663.3,338.6c.5,0,2-.3,3.2-.7.6-.2.7-.5,1.1-.5.7,0,2,1.1,2,1.7s-.4.5-.7.7c-1.2.8-3.8,2.7-5.4,4.1,0,0,0,.1,0,.1,1-.3,3-.9,4.1-1.2,1.2-.3,1.9-.6,2.6-.6s1.9.4,1.9,1.1-.3.7-1,.7-1,0-1.6,0c-.9,0-2.6.2-3.5.9-.6.5-1.2,1.1-1.2,2.3s.8,1.6,2,1.8c.9.2,1.7,0,2.2.1.4,0,.9.6.9,1.1s-.5.9-1.4.9-1.7-.1-2.2-.3c-1.5-.4-2.5-1.5-2.5-3s.8-2.4,1.5-3c.2-.2.2-.3,0-.2-.9.3-2.1.8-2.7,1.2-1,.6-1.3,1.1-1.9,1.1s-1.1-.7-1.1-1.2.1-.6.5-.8c.4-.1,1.1-.3,1.5-.5.7-.4,1.6-1.2,2.5-2,.8-.7,2.3-2.3,3-3.3.2-.3.1-.4-.2-.3-.6.2-1.5.8-2,1.1-.5.3-.8.6-1.2.6s-1.7-1-1.6-1.8c0-.3.2-.8.3-1.1h.2c.2.4.6,1.1.9,1.1ZM681.5,339.1c.5.5,1.2,1.3,1.2,2.1s-.1,1.9-.5,2.9c-.7,2-2.5,4.9-4.4,4.9s-2.5-2-2.5-4,.7-3.4,2.4-4.8c1.3-1.1,2.9-1.7,4.9-1.7,3.7,0,6.3,2.5,6.3,5.9s-2.1,5.6-7.5,5.8v-.3c4-.9,5.5-3.2,5.5-6s-1.9-4.8-4.5-4.8-3.1.7-4.2,1.9c-.9,1-1.4,2.1-1.4,3.4s.5,2.4,1.2,2.4,2.3-2.2,2.8-3.3c.4-.9.7-2,.7-2.9s-.3-1.1-.6-1.5h.7ZM696.1,338v-.2c.4-.2.8-.4,1.4-.4,1,0,2.1.5,2.1,1.1s-.2.5-.4.9c-.2.8-.4,2.5-.4,4.4s.4,3.5.4,5-1.1,2.1-3,2.1-3.1-.7-3.1-2.1,1.6-2.2,3.8-2.2c3.1,0,5,1.2,5.7,1.7.5.4.9.8.9,1.4s-.3.8-.7.8-.6-.2-1-.5c-1.5-1.4-3.2-2.3-5.7-2.3s-2.2.5-2.2,1.1.6.9,1.4.9c1.6,0,2.4-.4,2.4-1.8s-.1-3.3-.1-5,0-3.2,0-3.7-.1-.5-.4-.6c-.3-.1-.7-.2-1.2-.4ZM692.4,339.4c.8.6,1.5.9,2.8.9,2.3,0,4.7-.5,5.6-.8.7-.2.9-.4,1-.4.4,0,1.4.2,1.4.8s-.3.6-.8.8c-.9.3-3.6,1-6.8,1s-2.7-.4-3.4-2.1h.2ZM694.6,342c-.7,1.1-.2,1.4,1.1,1.4s3.4-.3,4.9-.7c.7-.2.9-.4,1-.4.6,0,1.3.2,1.3.7s-.3.6-.7.8c-.8.3-3.7.9-6.4.9s-3.4-1.4-1.4-2.9h.2ZM712.1,338v-.2c.4-.2.8-.4,1.4-.4,1,0,2.1.5,2.1,1.1s-.2.5-.4.9c-.2.8-.4,2.5-.4,4.4s.4,3.5.4,5-1.1,2.1-3,2.1-3.1-.7-3.1-2.1,1.6-2.2,3.8-2.2c3.1,0,5,1.2,5.7,1.7.5.4.9.8.9,1.4s-.3.8-.7.8-.6-.2-1-.5c-1.5-1.4-3.2-2.3-5.7-2.3s-2.2.5-2.2,1.1.6.9,1.4.9c1.6,0,2.4-.4,2.4-1.8s-.1-3.3-.1-5,0-3.2,0-3.7-.1-.5-.4-.6c-.3-.1-.7-.2-1.2-.4ZM708.4,339.4c.8.6,1.5.9,2.8.9,2.3,0,4.7-.5,5.6-.8.7-.2.9-.4,1-.4.4,0,1.4.2,1.4.8s-.3.6-.8.8c-.9.3-3.6,1-6.8,1s-2.7-.4-3.4-2.1h.2ZM710.6,342c-.7,1.1-.2,1.4,1.1,1.4s3.4-.3,4.9-.7c.7-.2.9-.4,1-.4.6,0,1.3.2,1.3.7s-.3.6-.7.8c-.8.3-3.7.9-6.4.9s-3.4-1.4-1.4-2.9h.2ZM734.4,343.8c.3.4.5.6.7.6s.6-.2.6-.6c0-.3,0-.6-.4-.9-.5-.5-1.2-.8-2.1-1l-.2.2c.7.6,1.1,1.2,1.4,1.6ZM735.9,342.6c.3.4.5.7.8.7s.5-.2.5-.6-.1-.7-.6-1c-.4-.3-1.2-.6-2.1-.8v.2c.7.6,1,1.1,1.3,1.5ZM723.1,339.6c.3.4.6.8,1,.8,1,0,3.3-.6,6.1-1.3,1.7-.4,3.4-.8,3.9-.8s1,0,1.4.3c.4.2.7.5.7.9s-.3.7-.8.7-.9,0-1.4,0c-.7,0-1.7,0-2.6.7-.6.4-1.9,1.7-1.9,4.4s.8,2.5,1.4,2.8c.9.5,2.2.4,2.7.4s1.2.5,1.2,1.1-.8.9-1.5.9c-1.2,0-2.4-.2-3.4-.8-1.1-.7-1.8-1.8-1.8-3.8s1.1-4.3,2.9-5.5c.1,0,.1-.2,0-.1-1.9.4-4.1,1.2-5.1,1.8-.3.2-.7.6-1.1.6-.7,0-1.8-1-1.9-1.8,0-.4,0-.8.1-1h.2ZM741.1,343.9c0-.5.4-.9.9-.9s.9.4.9.9-.4.9-.9.9-.9-.4-.9-.9ZM749.1,343.9c0-.5.4-.9.9-.9s.9.4.9.9-.4.9-.9.9-.9-.4-.9-.9Z"/>
</svg>