<?xml version="1.0" encoding="UTF-8"?>
<svg id="Layer_1" data-name="Layer 1" xmlns="http://www.w3.org/2000/svg" xmlns:xlink="http://www.w3.org/1999/xlink" version="1.1" viewBox="0 0 375 326">
  <defs>
    <style>
      .cls-1 {
        clip-path: url(#clippath);
      }

      .cls-2 {
        fill: none;
      }

      .cls-2, .cls-3, .cls-4, .cls-5, .cls-6, .cls-7 {
        stroke-width: 0px;
      }

      .cls-3 {
        fill: url(#linear-gradient);
      }

      .cls-4 {
        fill: #1c5db4;
      }

      .cls-5 {
        fill: #fff;
        fill-rule: evenodd;
      }

      .cls-6 {
        fill: #7a9ed5;
      }

      .cls-7 {
        fill: #142c4d;
      }
    </style>
    <linearGradient id="linear-gradient" x1="187.5" y1="27" x2="187.5" y2="-26.7" gradientTransform="translate(0 284) scale(1 -1)" gradientUnits="userSpaceOnUse">
      <stop offset="0" stop-color="#fff"/>
      <stop offset="1" stop-color="#d5eaff"/>
    </linearGradient>
    <clipPath id="clippath">
      <rect class="cls-2" x="18" y="68" width="340" height="157.1"/>
    </clipPath>
  </defs>
  <path class="cls-3" d="M187.5,310.7L0,257h375l-187.5,53.7Z"/>
  <g class="cls-1">
    <g>
      <path class="cls-7" d="M53.8,100.9c.9-2,1.1-4.5.2-5.5-.4-.7-1.9-1.6-2.2-2.1-.6-1.2,0-3.3-2.1-4.4,0,0-3.8-2.4-3.9-2.5-.9-.4-1.9-.5-2.8-.8-1.8-.5-2.6,1.5-4.1,1.8-.7.2-1.6,0-2.3.2-2.3.2-5.1,1.8-6.5,3.6-1.3,1.7,0,2.6,0,2.6-.4.9-3.3,2-3.7,5.7,0,.7,1.7,1.8,1.6,2-.3,1-1.5,2.7-.4,3.7.5.4,1.7.6,1.9,1.2.2.5-.3,1.3,0,2,.5,1.2,1.7,1.9,2.1,3.2l1.5-1.2c.6,1.7,2.1,2.9,2.6,1,.2-1-.7-2.1-.6-2.5.2-.6,2-1.2,1.7-2,0-.3-1-.9-.9-1.1.4-.9,1.7-2.1,1.7-3.1s-1.4-.7-.4-2.3c1.2-1.9,5.1-3.2,7.2-3.6,1.2-.2,1.3-1.7,2.2-2.2,1-.5,1.2,1.1,1.9,1.2.9.2,1.8-2.2,3.2.9l2.1,4.2Z"/>
      <path class="cls-7" d="M310.6,131.5c.4,2.9,1.6,5.7,3.6,7.9.4.4,1-.2.6-.6-1.9-2.1-2.9-4.8-3.3-7.5,0-.6-.9-.3-.8.2h0Z"/>
      <path class="cls-7" d="M322.1,123.1c-.5-.3-.9-.6-1.4-.9-.6-.3-1.1-.6-1.7-.8,1.5-1,2.8-2.5,3.6-4.1.8-1.7,1.4-3.8.7-5.6-.4-1-1.2-1.7-1.9-2.5-.8-1-1.7-2-2.2-3.2-.2-.6-.3-1.1-.3-1.7,0-.5,0-.9-.2-1.4-.5-1.1-1.5-1.8-2.4-2.5-1-.7-2-1.4-3-1.9-1.1-.6-2.3-1-3.4-1.5,0,0,0,0,0,0,0,0,0,0,0,0-2-.6-4.2-1.1-6.4-.8-1.3.2-2.4.8-3.4,1.7-.5.5-1,.9-1.5,1.4-.4.4.5,1.4.5,1.4,0,0,0,1.1-.9,2.1-.9,1.1-1.6.3-1.6.3,0,0,.1,2-.2,2.8-.6,1.2-1.8-.9-1.8-.9,0,0-1.2,1.3-1.8,1.9-1.6,1.7-2.2,5.7-2.1,7.5,0,1.5.1,3,0,4.4,0,.4,0,.7-.2,1.1,0,.1,0,.3-.1.4,0,0-.1.2-.1.2,0,0,0,0,0,.1-1.5.2-3,.6-3.9,1.8-.4.6-.6,1.3-.3,1.9.3.6,1,.9,1.7,1,.4,0,.7.1,1.1.2,0,0,.2,0,.3,0,.2.1.4.2.5.3,0,0,0,0,0,0,0,.8-1.3,1-1.8,1.3-.6.3-1.2,1-1.1,1.8.2.9,1.1,1,1.9,1.1,2.4.3,4.8.7,7.2,1,.2,0,1,.1,1-.1,0-.2-.1-.7-.1-.7l-.7-6s-1.3.4-2.1-.7c-.7-.9-.7-2.7-.7-3.3,0,0,0,0,0,0,1.7-1.1,3.2-2.3,4.4-3.9.7-.9,1.3-1.9,1.8-3,.5-1.1.8-2.2,1.1-3.4.3-1.3.6-2.6,1-3.9,2.4,1.8,5.2,2.7,8.1,2.9.9,0,1.7,0,2.6,0,.7,0,1.4,0,2.1.3.5.2.8.5.9,1.1.1.4.2.9.3,1.3.4,2,.5,4,.5,6.1,0,.3.2.4.5.4,0,.9,0,1.7,0,2.5-.3,3.4-2.8,8.2-2.8,8.2,0,0,0,.3-.5.6-.5.3-1.1,1.1-.6.8.6-.4,2.1-.4,2.8-.2.9.2,1.8.6,2.7.8.9.2,2,.1,2.7-.7.5-.6.7-1.4.4-2.1-.2-.4-.6-.6-1-.7-.1,0-.5,0-.7-.1.9-.5,1.7-.9,2.6-1.4.7-.4,2.1-.9,1.6-2-.2-.4-.6-.7-.9-.9h0ZM287.2,128.3c0,0,.2-.1.2-.2,0,0-.2.1-.2.2Z"/>
      <path class="cls-7" d="M294.7,121c.7,3.9,1.3,7.8,1.5,11.8,0,1.1,0,2.3,0,3.4,0,.8,0,1.4-.3,2.2,0,.3-.2.6-.3.9,0,0,0,.1,0,.2,0,0,0,0,0,0,0,0,0,0,0,0,0,.1-.1.2-.2.3-.3.5.5.9.7.4.6-1.1.8-2.4.9-3.6.2-2.7,0-5.4-.4-8.1-.3-2.6-.7-5.2-1.1-7.7,0-.6-.9-.3-.8.2h0Z"/>
      <path class="cls-6" d="M333.3,224.3c-.2-4.8-1.3-12.1-2.5-15.6,0,0-6.1-5.6-27.9-2.5-12.1,1.7-15.7,3.4-17.2,7.3,0,2.3-.5,7.3-.7,10.8h48.3Z"/>
      <path class="cls-4" d="M358,167.9c0-1.3-.7-2.6-1.5-3.7-1-1.4-2.2-2.7-3.5-3.9-1.5-1.5-3.1-2.8-4.7-4.2-1.7-1.4-3.5-2.8-5.2-4.3-.9-.7-1.7-1.4-2.5-2.1-.5-.5-1.1-.8-1.7-1.3-2.8-2.1-5.5-4.1-8.6-5.8-3.5-1.9-7.3-3.4-11.3-3.7-1,0-2.1-.1-3.1,0,0,0,0,0-.1,0,0,0,0,0,0,0-4.9.8-9.7,1.1-14.7,1-1.7,0-3.5-.2-5.2-.3,0,0,0,0,0,0,0,0,0,0-.1,0-5,0-10.1.1-15.1.8-2.2.3-4.4.7-6.5,1.5,0,0,0,0,0,0,2.2-5.2,4.8-10.2,7.8-15,1-1.5,2-3,3.1-4.4,0-.1,0-.3,0-.4,0,0,0-.2-.1-.2-1.2-1.3-2.3-2.6-3.6-3.7-1.2-1.1-2.5-1.9-4-2.5-1-.4-2.1-.7-3.1-.9-.3,0-.6.2-.7.4,0,0-.1.1-.2.2-.7,2.1-1.5,4.2-2.4,6.3-.9,2-1.9,3.9-2.9,5.7-1.3,2.3-2.6,4.6-4,6.8-.8,1.3-1.6,2.5-2.4,3.8-.7,1.1-1.4,2.2-2,3.4-1,1.8-2,3.7-2.4,5.7-.3,1.5-.2,3.1.7,4.3.7.9,1.8,1.5,2.7,2.1,1.4.9,2.9,1.7,4.4,2.4,4.6,2.3,9.3,4.3,14,6.4.7.3,1.3.6,2,.8-.5,6.6-.5,13.2-.2,19.9.2,4.1.4,8.1.7,12.1.2,3,.4,6,.7,9,.3,3.2.7,6.4,1.4,9.5,0,.3.3.4.5.4,0,0,.2,0,.3,0,5.4-2.3,11.2-3.6,17-4.4,3.1-.4,6.2-.7,9.4-.8,3.4,0,6.9,0,10.3.1,3.9,0,7.8,0,11.6-.8.3,0,.5-.4.4-.7-.6-1.7-1.7-3.3-2.3-5-.1-.3-.4-.5-.7-.4-.1,0-.2,0-.3.2-.7-.2-2.2-.5-4.1-.3-2.7.3-4.9,1.8-6.1,1.3-1.2-.4-1.8-1.1-.3-1.5,1.4-.4,4.9-1.4,4.9-1.4,0,0,2-.4.8-.9-1.2-.4-4.3,0-6-.2-1.8-.2-5.1,0-4.6-.8.5-.8,4.9-1.9,4.9-1.9l2.2-.5s-7.2-.1-8.3-.7c-1.1-.5.3-1.6.4-1.8.1-.1.8-.4.8-.4,0,0-.8-1.2,1.8-1.9,2.5-.7,2.7-.7,4.9-.4,1.8.2,5.7,1.3,6.9,1.6,0,.1,0,.2,0,.4.1.7,1.2.4,1-.3-.6-2.6-1-5.1-1.1-7.7-.3-4,0-8,.5-11.9.3-2.5.8-4.9,1.3-7.4.8.4,1.7.8,2.5,1.2,2.8,1.3,5.6,2.6,8.5,3.9.4.2.7.3,1.1.5,0,0,0,.1,0,.2,0,1.5-.3,3-.8,4.5-.5,1.7-1.2,3.3-2,4.9-1.4,2.9-3,5.6-4.8,8.2-.2.2-.4.5-.5.7,0,0,0,0,0,0,0,0,0,0,0,0,0,0,0,0-.1.1,0,0-.1.2-.2.3-.1.1-.2.3-.3.4,0,0,0,0,0,0,0,0,0,0,0,0,0,0,0,0,0,0,0,0,0,0,0,0,0,0-.1,0-.2.1,0,0,0,.1-.1.2,0,0,0,.2,0,.3.5,2,1.4,3.9,2.8,5.5,1.5,1.7,3.5,3,5.8,3.5,1,.2,2,.3,2.9-.1.1,0,.2,0,.3-.2,0,0,.1-.2.1-.3.5-1.1,1-2.2,1.5-3.3,1-2.2,2-4.4,3-6.6,1.2-2.6,2.4-5.3,3.5-7.9,1.1-2.4,2.1-4.8,3.1-7.3.6-1.6,1.3-3.1,1.8-4.7.2-.7.4-1.4.4-2.2h0ZM333,190.9s0,0,0,0c0,0,0,0,0,0,0,0,0,0,0,0h0Z"/>
      <path class="cls-7" d="M205,120.9c.7,1.3,1.4,2.6,2,4,.3.7.6,1.5.8,2.3.1.6.2,1.2.1,1.9-.1.6-.5,1-1.1,1.2-.5.2-.3,1,.2.8,3.4-1.2,1-6.2,0-8.3-.4-.8-.8-1.6-1.2-2.4-.3-.5-1,0-.7.4Z"/>
      <path class="cls-7" d="M284.2,120.6c1-1.1,2.2-1.8,3.4-2.6,1.3-.8,2.3-1.8,3.2-3,.3-.4-.4-.9-.7-.4-.9,1.2-1.9,2.1-3.1,2.8-1.2.8-2.3,1.6-3.3,2.6-.4.4.2,1,.6.6h0Z"/>
      <path class="cls-7" d="M289.4,109.8c.8-.2,1.6-.4,2.3-.9.5-.3,0-1-.4-.8-.7.4-1.4.6-2.1.8-.5.1-.3.9.2.8Z"/>
      <path class="cls-7" d="M73.4,225.1c-.5-5.1-.9-10.2-1.2-15.3,0-1.5-.1-3-.2-4.5,0-.4-.1-3.1-.1-3.1H25.2s-.1,1.6-.2,2.2c-.5,6-.8,12-.8,17.9,0,.7,0,1.8,0,2.8h49.3,0Z"/>
      <path class="cls-6" d="M73.6,204.1c-.3-3.5-.7-7-1.2-10.4-.2-1.2-.4-2.3-.6-3.5-.2-.9-.3-1.9-.4-2.7-.1-.9-.2-1.9-.1-2.8,0-.7-1-.7-1.1,0-2.4-.3-12.5-1.4-17.5-2.4-5.8-1.2-14-3.3-14-3.3l-3-1.2s-1.3,3-3.5,4.1c-2.2,1-1.9,1.6-3.5,1.2-.5-.1-.8-.3-1.1-.4,0-.3-.3-.4-.6-.4,0-.1-.1-.2-.1-.2v.2c-.2,0-.4.2-.4.5-.4,5.7-1,11.4-1.6,17-.1,1.2-.3,2.4-.4,3.5,0,.2,0,.3.2.4,0,0,.1,0,.2,0,6.1,1.9,12.4,3.1,18.7,3.6,6.3.5,12.7.2,19-.6,3.6-.5,7.1-1.2,10.6-2.1,0,0,0,0,.1,0,.2,0,.3-.2.3-.5h0Z"/>
      <path class="cls-6" d="M82.4,155.3c-.2-2.7-.3-5.3-.6-8-.2-1.5-.4-3-.7-4.5-.3-1.4-.6-2.7-1.2-3.9-1.1-2.6-3-4.8-5.4-6.4-2.2-1.4-4.8-2.4-7.3-3.2-2.6-.8-5.3-1.5-7.9-2.4-.2,0-.3,0-.5,0-.1,0-.2.2-.2.3-.3,1.6-1.1,3-2.3,4.1-1.4,1.2-3.1,1.8-4.9,2.1-.3,0-.5.2-.5.5s0,.3.2.4c0,.9,0,3.2-.1,4.1-.1,1.2-1.9,2.9-3,4.5-1.2,1.6-3.5,10.1-4.2,11.9-.7,1.7-4.2,15.5-4.2,15.5l8.2,1.6s6.8,1.3,11.7.9c4.9-.4,9.5-2.8,9.5-2.8l-.4-5.4.7-9.4s0,0,0,0c3.7-.5,7.4-.3,11.1.2.4,0,.8.1,1.2.1.3.3.9.1.9-.4h0Z"/>
      <path class="cls-6" d="M41.8,132.3c-1.9-.7-3.4-2.4-4-4.3,0-.2-.2-.3-.3-.3,0,0,0,0,0,0,.3-.1.3-.5.2-.7-.2-.3-.5-.3-.7-.2-4.6,2-9.3,4-13.1,7.2-1.9,1.6-3.5,3.5-4.5,5.8-1.1,2.5-1.3,5.3-1.3,8.1,0,3.1.4,6.2.4,9.3,0,.6.8.7,1,.3,0,0,.2,0,.3-.1,1.3-1.1,3-1.8,4.7-2.3,1.1-.3,2.3-.5,3.5-.6.8,0,1.5,0,2.1.1.9.2,1.8.5,2.6,1,.5.4,1.1-.4.7-.8.7-.5,1.9-1.5,2.8-3.1,1.2-2.2,4.6-7.7,4.6-9.7s1.6-8.8,1.6-8.8c0,0,0,0,0,0,.1-.3,0-.7-.3-.8h0Z"/>
      <path class="cls-7" d="M43.7,106.5c.1.4.2.8.3,1.3,0,.2.3.4.5.3.2,0,.3-.3.3-.5,0-.4-.1-.9-.3-1.3-.2-.5-1-.3-.8.2Z"/>
      <path class="cls-7" d="M52.1,103.6c.2.4.2.8.3,1.2,0,.2.3.4.5.3.2,0,.3-.3.3-.5,0-.5-.1-.9-.4-1.4-.2-.5-1,0-.7.4Z"/>
      <path class="cls-7" d="M40.4,106.8c.4-.8,1-1.1,1.9-1.3.8-.2,1.7-.3,2.4-.8.5-.3,0-1.1-.4-.8-.7.5-1.6.6-2.5.8-.9.3-1.7.8-2.1,1.6-.2.5.5.9.7.4h0Z"/>
      <path class="cls-7" d="M49.7,103.5c.2-.8.7-1.1,1.4-1.3.7-.2,1.5-.4,2-.9.4-.4-.2-1-.6-.6-.6.5-1.4.6-2,.8-.9.3-1.4.9-1.6,1.8-.1.5.7.8.8.2h0Z"/>
      <path class="cls-7" d="M48.3,106.4c.1.5.3,1.1.6,1.6.2.4.5.6.9.9.3.2,1,.6,1,1,0,.3-.4.4-.6.6-.3.2-.6.3-.8.5-.4.4.2,1,.6.6.5-.5,1.4-.6,1.7-1.3.3-.7-.2-1.4-.8-1.7-.4-.3-.8-.5-1.1-.8-.3-.4-.5-1-.6-1.5-.1-.5-1-.3-.8.2h0Z"/>
      <path class="cls-7" d="M51.1,117.4c.6-.2,1.2-.7,1.6-1.1.4-.5.9-1,1.2-1.6.3-.5-.5-.9-.7-.4-.3.5-.6.9-1,1.3-.3.4-.8.8-1.3,1-.5.1-.3,1,.2.8h0Z"/>
      <path class="cls-7" d="M32.7,110.1c-1.5.2-1.7,1.7-1.4,2.9.3,1.3,1.1,2.7,2.4,3.3.8.3,1.6.2,2.3-.2.5-.3,0-1.1-.4-.8-1.9,1.3-3.7-2-3.5-3.6,0-.4.3-.7.7-.8.5,0,.6-.9,0-.9Z"/>
      <path class="cls-7" d="M35,115c1,1.4,1.8,2.9,2.4,4.5.6,1.6,1.1,3.3.8,5-.2.9-.6,1.7-1.2,2.4-.4.4.2,1,.6.6,2.8-2.9,1.3-7.3-.3-10.4-.5-.9-1-1.8-1.6-2.6-.3-.5-1.1,0-.7.4h0Z"/>
      <path class="cls-7" d="M52.1,133.4c1.4-.3,1.8-2.1,1.8-3.3,0-.6-.2-1.3-.6-1.7-.6-.5-1.6-.6-2.3-.6-1,0-2,0-3,0-.6,0-.6.9,0,.9,1,0,1.9,0,2.9,0,.6,0,1.8,0,2.1.6.3.6.2,1.3,0,1.9-.1.5-.4,1.2-1,1.4-.5.1-.3.9.2.8h0Z"/>
      <path class="cls-7" d="M50.9,132c-.2,1-.1,2.1-.2,3.1,0,1-.3,1.9-.6,2.8-.3.9-.7,1.8-1.2,2.6-.2.3-.5.6-.7,1-.3.4-.5.9-.7,1.3-.8,1.9-1.6,3.8-2.4,5.8-.7,1.9-1.3,3.8-1.8,5.8-1,3.6-1.7,7.2-2.8,10.8-1,3.3-2.3,6.5-3.9,9.5-.7,1.3-1.5,2.6-2.3,3.8-.8,1.2-1.7,2.5-2.9,3.3-.5.3,0,1.1.4.7,1.1-.8,1.9-1.8,2.7-2.9.8-1.1,1.6-2.4,2.3-3.6,1.6-2.8,3-5.8,4-8.8,1.2-3.6,2-7.3,2.9-11,.5-1.9,1-3.8,1.7-5.6.7-2,1.5-4,2.4-6,.4-1,.8-2,1.5-2.9.7-.9,1.2-1.7,1.6-2.7.4-1,.7-2,.8-3,.1-1.2,0-2.4.2-3.5,0-.5-.7-.8-.8-.2h0Z"/>
      <path class="cls-7" d="M53.4,127.8c0-.9-.5-1.9-1.5-2.1-.5-.1-1,0-1.6-.1-.4,0-.9-.1-1.3-.2-1.8-.2-3.8-.1-5.2,1.2-1.5,1.5-2,3.7-2.1,5.7-.2,2.4-.4,4.7-1,7.1-.4,2-1.1,3.8-1.9,5.6-.7,1.4-1.3,2.9-2.2,4.2-2.1,3.4-4.4,6.7-7.1,9.6-1.7,1.8-3.5,3.3-5.2,5.1-.2.2-.4.4-.6.6-.4.4.2,1,.6.6,1.5-1.7,3.2-3.2,4.8-4.8,2.5-2.5,4.6-5.2,6.5-8.1,1-1.5,2-3.1,2.8-4.7.7-1.4,1.4-2.8,1.9-4.2.9-2.3,1.4-4.8,1.7-7.2.2-1.1.3-2.2.3-3.3,0-1,.1-2,.4-2.9.3-1,.7-1.9,1.4-2.7.6-.6,1.4-.9,2.3-1,.9-.1,1.8,0,2.7,0,.4,0,.9.1,1.3.1.5,0,1.1,0,1.4.2.3.3.4.7.4,1.1,0,.6.9.6.9,0h0Z"/>
      <path class="cls-7" d="M44.4,127.1c.6-1.3,1-2.6,1.8-3.8.2-.3.3-.5.6-.8.2-.2.3-.3.4-.3.7,0,1.3.7,1.6,1.2.5.7.9,1.5,1.1,2.3.1.5,1,.3.8-.2-.2-.8-.6-1.6-1.1-2.3-.5-.7-1.1-1.5-2-1.7-.7-.2-1.3.1-1.8.7-.5.7-.9,1.5-1.3,2.2-.3.7-.6,1.5-1,2.3-.2.5.5.9.7.4h0Z"/>
      <path class="cls-7" d="M47.9,125.3s0,0-.1,0c0,0,0,0,0,0,0,0,0,0,0,0,0,0,0,0,.1.1.2.2.4.3.6.4.2,0,.5,0,.5-.3,0-.2,0-.4-.3-.5,0,0,0,0,0,0,0,0,0,0-.1-.1-.1-.1-.2-.2-.3-.3-.3-.2-.7-.2-.9,0-.2.2-.2.5,0,.6.2.2.4.2.6,0h0Z"/>
      <path class="cls-7" d="M41.4,122.2c1.1.9,2.4,1.2,3.8,1.5.5.1.8-.7.2-.8-1.2-.2-2.4-.5-3.4-1.2-.4-.3-1.1.3-.6.6Z"/>
      <path class="cls-7" d="M53.5,101.4c.8,1.8,1.4,3.7,1.9,5.7.5,1.8.9,3.7,1,5.5.1,1.7.1,3.4-.1,5-.2,1.2-.4,2.6-1.1,3.6-.4.5-1,.8-1.6,1-.9.3-1.8.4-2.7.6-.5.1-.3,1,.2.8,1.5-.4,3.3-.4,4.5-1.5.8-.8,1.1-2.2,1.4-3.3.3-1.7.5-3.4.4-5.2,0-1.9-.4-3.8-.9-5.7-.5-2.3-1.2-4.5-2.1-6.7-.2-.5-1-.3-.8.2h0Z"/>
      <path class="cls-7" d="M51.3,97c.8,1.4,1.6,2.9,2.2,4.4.2.5,1,.3.8-.2-.7-1.6-1.4-3.1-2.3-4.6-.3-.5-1,0-.7.4Z"/>
      <path class="cls-7" d="M53.7,123.2c.5.8.9,1.7,1.6,2.4,1,1.1,2.3,1.7,3.7,2.2.5.2.8-.6.2-.8-1.2-.5-2.4-1.1-3.3-2.1-.6-.6-1-1.4-1.4-2.1-.3-.5-1,0-.7.4h0Z"/>
      <path class="cls-7" d="M18.9,159.1c.6,4.3.8,8.6,1.8,12.8.5,2.1,1.2,4.2,2.3,6.1.9,1.7,2,3.3,3.5,4.5.6.5,1.3.9,2.1,1,1.1.1,2.2-.4,3.1-1,.5-.3,0-1.1-.4-.8-.8.5-1.7,1-2.6.9-.6,0-1.1-.4-1.5-.7-.2-.2-.4-.3-.6-.5-.4-.3-.7-.7-.9-1-.7-.9-1.3-1.8-1.8-2.7-2-3.6-2.7-7.8-3.2-11.9-.3-2.3-.5-4.6-.8-6.9,0-.6-.9-.3-.8.2h0Z"/>
      <path class="cls-7" d="M68.8,150.9c-.1,5-.6,10-.5,15.1,0,1.4.1,2.8.3,4.1,0,.2.2.4.4.4.2,0,.5-.2.4-.4-.7-5-.3-10,0-15,0-1.4.1-2.8.2-4.2,0-.6-.9-.6-.9,0Z"/>
      <path class="cls-7" d="M81.4,156.5c0,2.8,0,5.5.2,8.3,0,2,0,4-.1,6-.2,2.8-.5,5.7-1.2,8.5-.2.8-.4,1.6-.8,2.3-.1.3-.3.5-.4.8,0,0,0,0,0,.1,0,0,0,0,0,0,0,0-.2.2-.2.3,0,0-.1.1-.2.2,0,0,0,0,0,0,0,0,0,0-.1,0-.3.2-.6.3-.9.4-1.2.4-2.5.5-3.8.6-3.4,0-6.8-.4-10.2-.8-3.5-.4-7-.7-10.4-1.3-5.3-.8-10.7-1.9-15.8-3.8-.6-.2-1.1-.4-1.7-.7-.5-.2-.9.5-.4.8,5,2.2,10.5,3.4,15.9,4.3,3.6.6,7.3,1.1,11,1.4,3.3.3,6.6.8,9.9.9,1.4,0,2.9,0,4.3-.2.9-.2,1.8-.4,2.5-.9,1-.7,1.5-1.8,1.9-2.9.8-2.3,1.1-4.9,1.4-7.3.3-2.4.5-4.9.4-7.3,0-2.4-.2-4.8-.2-7.1,0-.9,0-1.8,0-2.7,0-.6-.9-.6-.9,0h0Z"/>
      <path class="cls-7" d="M39.9,171.1c1.8.4,3.5.8,5.3,1.1,2,.4,4,.6,5.9.8,4,.3,8.1.1,12-.5,2.4-.4,4.7-1,6.9-2.1.5-.2,0-1-.4-.8-3.6,1.8-7.6,2.2-11.5,2.5-4.1.2-8.1,0-12.1-.7-1.9-.3-3.8-.8-5.8-1.2-.5-.1-.8.7-.2.8h0Z"/>
      <path class="cls-7" d="M32.2,149v5.9c0,.6.9.6.9,0v-5.9c0-.6-.9-.6-.9,0Z"/>
      <path class="cls-7" d="M53.5,211c-.8,4.3-1.5,8.6-2.3,12.9-.1.5.7.8.8.2.8-4.3,1.5-8.6,2.3-12.9.1-.5-.7-.8-.8-.2Z"/>
      <path class="cls-7" d="M52.3,118.5s0,0,0,0c0,0,0,0,0,0,0,0,0,0,0,0,0,0,0,0,0,0,0,0,0,0,0,0-.1,0,.1,0,0,0,.2,0,.5,0,.5-.3,0-.2,0-.5-.3-.5-.5,0-1,.1-1.2.5-.1.2,0,.5.2.6.2.1.5,0,.6-.2h0Z"/>
      <path class="cls-6" d="M247.1,225.1l-1.6-22.7-49.8-.8-3.6,23.5h55Z"/>
      <path class="cls-4" d="M248.8,146.7c-.4-2.8-1.2-5.7-3-8-1.5-1.8-3.5-3.1-5.6-4.2-2.2-1.1-4.6-2.1-7-2.9-.4-.2-2.8-.8-2.8-.8-.3-.1-.2.7-.2.7,0,0-.2,5.3-.2,5.9s-1,4.9-1,4.9c0,0-1.5,3.1-1.5,5.4s2.1,6.9,2.1,6.9l2.3,4.4c-.2,0-.4.1-.5.4-.5,1.4-2,2.4-3.3,3.1-1.4.8-2.9,1.4-4.4,2.1,0,0,0,0,0,0l-1.6-4.8-1.7-6.5-3.3-5.5-.5-5.1s.1-2.9.1-3.2-.2-.5-.5-.5c-2.1-.2-4.2-.8-5.8-2.3-1.2-1-1.9-2.4-2.4-3.9-.2-.6-.3-1.2-.5-1.8,0-.1,0-.3,0-.4-.1-.7-1-.3-1.3-.2-1,.3-2,.7-3,1-.9.3-1.8.6-2.7,1-1.1.4-2.3.8-3.4,1.3-1.2.6-2.4,1-3.7,1.6-2.1.9-4,2-5.4,3.9-2,2.6-2.8,6.1-3.3,9.2-.2,1-.3,1.9-.5,2.8-.2.7-.3,1.5-.5,2.2-.3,1.7-.6,3.3-.8,5-.5,3.7-.9,7.5-1.1,11.2-.2,3.5-.3,7.1-.1,10.6,0,1.4.3,3,.4,4.4.2,4.2,4,5.6,4.9,5.7,1,.1,1.9.1,2.9.1,1.5,0,3.8.1,3.8.1,0,0,0,1.7,0,2.4,0,.9,0,1.8,0,2.7,0,1.8,0,3.6,0,5.4,0,1.5,0,3.1.9,4.4.7,1,1.7,1.7,2.9,2.1,1.2.4,2.5.5,3.8.6,1.8.1,3.6.2,5.4.2,3.6,0,7.1,0,10.7,0,3.3,0,6.5-.2,9.8-.4,3.1-.1,6.1-.2,9.2-.3,1.5,0,3.1-.1,4.5-.6,1.1-.4,2.1-1,3.1-1.5.9-.5,1.9-1,2.7-1.6.8-.6,1.1-1.8,1.3-2.7.4-2.8-.3-5.7-1-8.5-.2-.7-.3-1.4-.5-2,0-.3-1-2.2-1.1-2.4.4-.3.8-.7,1.2-1.1.4-.5.7-1.1,1.1-2.2.4-1.1.4-2,.5-3.1.3-2.5.4-5,.5-7.6,0-1.9,0-3.8,0-5.6,0-2.5.2-4.9.3-7.4.1-4.9.2-9.8-.6-14.7h0ZM228.9,185.3h-5.3c-2,0-3.9.7-6.6,1.3-2.1.4-4.8,1.2-6,1.5,0-.3-.1-.6-.2-.9,0-.4-.1-1-.1-1.4,0-6.2,1.2-8.6,1.1-8.7h0c0,0,6.4-1.4,9.3-2.1,2.9-.7,4.4-3.4,4.4-3.4l4.7,12.9-1.4.9h0Z"/>
      <path class="cls-7" d="M223.8,164.9c-1.5-3.7-1.9-7.8-3.3-11.5-.3-.8-.6-1.7-1.1-2.4-.4-.7-.7-1.3-1.1-2-.4-.7-.6-1.4-.8-2.2-.2-1-.3-2-.4-3.1-.2-2-.2-4.1-.2-6.1,0-1.3,0-2.6-.3-3.9-.3-1.1-.5-2.2-.7-3.3-.2-1-.4-2.1-.1-3,0-.2,0-.2.2-.3,0,0,0,0,0,0,0,0,0,0,0,0,0,0,.2.1.3.2.2.2.4.4.6.7,0,0,.1.2.2.3,0-.2,0,.2,0,.2,0,.2.1.4.2.5.7,2.2,1.6,4.3,1.7,6.6,0,.6.9.6.9,0-.1-2.1-.9-4.2-1.5-6.2-.2-.7-.4-1.5-.9-2.1-.3-.5-.9-1.1-1.5-1.1-1.1,0-1.2,1.5-1.2,2.3,0,1.2.3,2.5.5,3.7.1.5.2,1.1.4,1.6,0,.2,0,.4.1.6,0,0,0,.1,0,.2,0,0,0,.2,0,0,.2,2.1.1,4.3.2,6.5,0,2.2.3,4.3.7,6.4.3,1.5,1.3,2.7,2,4.1,2.1,4.2,2.4,9.1,4.1,13.5.2.5,1,.3.8-.2h0Z"/>
      <path class="cls-7" d="M218.2,129c-.2-1.1-.5-2.1-.8-3.1-.1-.6-.3-1.2-.4-1.8,0-.4-.1-.9,0-1.2,0,0,0-.1,0-.2,0,0,0,0,0,0,0,0,0,0,0,0,0,0,0,0,.2,0,.1,0,.2,0,.3,0,.4.2.7.8.9,1.3.7,1.6,1.3,3.4,1.8,5.1.6,1.9,1.2,3.9,1.8,5.8.2.5,1,.3.8-.2-1.3-3.7-2.2-7.6-3.8-11.2-.3-.5-.6-1.1-1.1-1.4-.5-.3-1.3-.2-1.6.3-.5.8-.2,2.1,0,3,.3,1.4.8,2.7,1,4.1.1.5.9.3.8-.2h0Z"/>
      <path class="cls-7" d="M219,123c0-.4-.7-2.3.3-2.1.4.1.7.5.9.8.2.3.5.6.7.9,1.6,2.2,2.5,4.6,3.3,7.2.5,1.4.9,2.9,1.4,4.3.2.5,1,.3.8-.2-1-2.8-1.7-5.8-3-8.5-.6-1.3-1.3-2.4-2.1-3.5-.5-.7-1.2-1.8-2.2-1.8-.6,0-1.2.4-1.3,1-.1.7.2,1.3.2,1.9,0,.6.9.6.9,0h0Z"/>
      <path class="cls-7" d="M221.7,122.9c.2-.1.2-.1.4-.2,0,0,.2,0,.3,0,0,0,0,0,.1,0,0,0,0,0,0,0,0,0,.2,0,.3.1.2.1.2.2.4.3.8.8,1.4,1.8,1.9,2.8,1.2,2.5,2.1,5.1,2.8,7.8.2.6.3,1.2.4,1.7,0,.2,0,.4.1.7,0,0,0,0,0,.1,0,0,0,0,0,0,0,0,0,.2,0,.2,0,.6.9.6.9,0,0-.9-.3-1.8-.5-2.7-.3-1.4-.8-2.7-1.2-4-.5-1.4-1.1-2.9-1.7-4.2-.5-1.1-1.1-2.2-2-3-.7-.7-1.7-1.1-2.6-.5-.5.3,0,1.1.4.7h0Z"/>
      <path class="cls-7" d="M228.4,131.1c.1-.3.7-1.6,1.2-1.2.2.1.2.5.3.8,0,.4,0,.7,0,1.1-.1,2.4,0,4.8-.4,7.1-.2,1.2-.5,2.4-1,3.5-.4,1.1-.9,2.2-1.2,3.3-.3,1.1-.3,2.2-.1,3.3.2,1.2.6,2.3,1,3.4,1,2.5,2.4,4.8,3.5,7.2.2.5,1,0,.7-.4-1-2.3-2.3-4.5-3.3-6.8-.5-1.2-.9-2.4-1.1-3.6-.2-1.2,0-2.4.4-3.5.4-1.2.9-2.3,1.3-3.4.4-1.3.7-2.6.8-3.9.1-1.4.2-2.7.2-4.1,0-.9.1-1.9,0-2.8,0-.8-.3-1.9-1.3-1.9-1,0-1.5,1.1-1.9,1.9-.2.5.6.7.8.2h0Z"/>
      <path class="cls-7" d="M211.1,109.1c.2.3.4.6.6,1,.1.3.4.7.4,1,0,.6.9.6.9,0,0-.4-.3-.9-.5-1.2-.2-.4-.4-.8-.6-1.1-.3-.5-1,0-.7.4Z"/>
      <path class="cls-7" d="M220.3,105.4c.4.4,1,1,1,1.7,0,.6.9.6.9,0,0-.9-.7-1.7-1.3-2.3-.4-.4-1,.2-.6.6Z"/>
      <path class="cls-7" d="M208.8,109.1c.5-1.3,1.5-2.4,3-2.5.6,0,.6-.9,0-.9-.9,0-1.7.4-2.4.9-.7.6-1.1,1.4-1.4,2.2-.2.5.6.7.8.2h0Z"/>
      <path class="cls-7" d="M218.4,104.9c.2-1.1,1.1-2.6,2.4-2.2.5.2.8-.7.2-.8-1.8-.5-3.2,1.2-3.5,2.8,0,.5.7.8.8.2Z"/>
      <path class="cls-7" d="M202.6,115c-1-.3-2.1.4-1.9,1.4.1.6.4,1.3.6,1.9.4.9.8,1.7,1.3,2.5.4.7.9,1.4,1.6,1.8.7.4,1.5.3,2-.4.3-.4-.3-1.1-.6-.6,0,0-.2.2-.2.3-.1,0-.1,0-.2.1,0,0-.1,0-.2,0-.2,0-.2,0-.3-.1-.5-.3-.9-.8-1.2-1.3-.8-1.2-1.4-2.5-1.8-3.9,0-.1,0-.3,0-.4,0,0,0,0,0-.1,0,0,0,0,0,0,0,0,0-.1,0,0,0-.1,0-.2.2-.3.2-.1.5-.2.7,0,.5.2.8-.7.2-.8h0Z"/>
      <path class="cls-7" d="M215.8,107.8c0,.5.3,1,.5,1.4.4.6.8,1.2,1.2,1.7.4.6.8,1.1,1.2,1.7,0,.1.1.2.2.3,0,0,0,0,0,.1,0,0,0,.2,0,0,0,0,0,0,0,.1,0,0,0,0,0,0,0-.2-.1.1-.2.1-.6.6-1.6.9-2.3,1.4-.4.4.2,1,.6.6.8-.7,3.3-1.3,2.5-2.8-.3-.5-.7-1-1-1.5-.5-.6-.9-1.2-1.4-1.9-.2-.3-.4-.6-.6-.9,0-.1-.1-.2-.1-.3,0,0,0-.1,0-.2,0,0,0,0,0,0,0-.6-.8-.6-.9,0h0Z"/>
      <path class="cls-7" d="M224.9,107.8c0,0,.1-.2.2-.2,0,0,.4-.3.4-.3,0,0-.3-.2-.1,0,0,0,0,.1.1.2.3.4.6.9.8,1.4.5,1.1,1,2.5.8,3.8,0,.6-.4.9-.9,1-.5.1-.3.9.2.8,1.7-.3,1.7-2.3,1.5-3.6-.2-.8-.5-1.6-.8-2.4-.3-.6-.6-1.2-1-1.7-.2-.3-.5-.4-.9-.3-.4.1-.8.6-1,.9-.3.5.5.9.7.4h0Z"/>
      <path class="cls-7" d="M224.9,111.3c.5,1.7,1,3.3,1.3,5,.3,1.8.5,3.7,0,5.4-.2,1-.6,1.9-1.3,2.6-.4.4.2,1,.6.6,2.6-3,1.9-7.5,1-11.1-.2-.9-.5-1.9-.8-2.8-.2-.5-1-.3-.8.2Z"/>
      <path class="cls-7" d="M222.7,103c.6,1.2,1.1,2.4,1.6,3.7.2.5,1,.3.8-.2-.5-1.3-1-2.6-1.7-3.9-.2-.5-1,0-.7.4h0Z"/>
      <path class="cls-7" d="M231.6,159.6c2.3,3.9,4.8,7.8,7.7,11.3.7.9,1.2,2,2.1,2.8.4.4,1-.2.6-.6-.8-.7-1.2-1.6-1.8-2.5-.6-.9-1.4-1.7-2-2.6-1.3-1.8-2.6-3.7-3.8-5.7-.7-1.1-1.3-2.2-2-3.2-.3-.5-1,0-.7.4h0Z"/>
      <path class="cls-7" d="M223,165.2c1.6,5.5,3.5,11,5.7,16.2.5,1.1.9,2.2,1.5,3.2,1.2,2.1,3.2,4.1,5.4,5.3,1.4.7,2.9,1.2,4.5,1,1.8-.2,3.6-1.1,5-2.2.4-.3,0-1.1-.4-.8-1.3.9-2.8,1.7-4.3,2-1.3.3-2.7,0-3.9-.6-2.2-1.1-4.2-3-5.4-5.1-.6-.9-1-1.9-1.4-2.9-.9-2-1.6-4-2.4-6-1.3-3.4-2.4-6.9-3.4-10.4-.2-.5-1-.3-.8.2Z"/>
      <path class="cls-7" d="M210.7,188.9c.7-.3,1.4-.5,2.1-.8.7-.3,1.4-.5,2.1-.8,1.4-.5,2.8-.9,4.3-1.2,1.4-.3,2.9-.5,4.4-.6,1.1,0,2.3,0,3.4,0,1.2,0,2.6,0,3.7-.5.5-.2,0-1-.4-.7-1,.5-2.2.4-3.3.4-1.1,0-2.3-.1-3.4,0-3,.1-5.9.8-8.7,1.7-.8.3-1.5.6-2.3.8-.8.3-1.6.5-2.4.9-.5.2,0,1,.4.8h0Z"/>
      <path class="cls-7" d="M192.9,176.2c4.6.7,9.3,1,14,1.2,1.4,0,2.9.1,4.4.2.7,0,1.4,0,2.1-.2,1.4-.2,2.9-.5,4.3-1,3-.9,5.7-2.4,7.9-4.6.4-.4-.2-1-.6-.6-1.9,1.9-4.2,3.3-6.8,4.2-1.4.5-2.7.8-4.2,1.1-.9.2-1.8.3-2.6.3-3.6,0-7.1-.3-10.7-.6-2.5-.2-5.1-.4-7.6-.8-.5,0-.8.7-.2.8h0Z"/>
      <path class="cls-7" d="M196.7,156.6c0,4.9-.6,9.8-.8,14.7,0,1.5,0,3.1,0,4.6,0,.6.9.6.9,0-.2-5,.4-10,.7-15,0-1.4.1-2.8,0-4.3,0-.6-.9-.6-.9,0Z"/>
      <path class="cls-7" d="M217.4,120.7c.7-1.7,2.6-2.2,4.1-3,.5-.3,0-1-.4-.8-.8.5-1.8.8-2.6,1.3-.9.5-1.5,1.3-1.9,2.2-.2.5.6.7.8.2h0Z"/>
      <path class="cls-7" d="M223.5,96.8c-.3-.3-.7-.5-1.1-.7-.4-.2-.8-.3-1.1-.5-.5-.3-.3-.8,0-1.3.2-.5.3-1,.1-1.5-.2-.6-.9-.8-1.5-.6-1.4.3-2.8.5-4.3.4.4-.7.6-1.4.7-2.3,0-.3-.3-.5-.5-.4-1.6.5-3.1,1-4.7,1.5-.6.2-1.4.6-1.9-.1-.4-.6-.2-1.5,0-2.2.1-.4-.3-.6-.6-.5-2.4,1-4.6,2.5-6.4,4.4-.5.5-.9,1-1.3,1.5-.2.2-.4.5-.5.7,0,.1-.1.3-.2.3-.1.1-.3.2-.5.3-.9.7-1.7,1.5-2.2,2.5-.5.9-.8,1.9-1.1,2.8-.3.6-.5,1.3-.6,2,0,.7,0,1.3.4,2,.3.6.7,1.1.8,1.8.1.7,0,1.4.2,2.1.3,1,1.1,1.7,1.7,2.5.9,1.3,1.8,2.7,2.6,4.1.1.2.3.2.5.2.5-.1,1.1-.2,1.5,0,.5.2,1,.5,1.4.7.2.1.5,0,.6-.2.3-.4,0-1-.1-1.4-.2-.5-.6-1-1-1.5-.3-.5-.7-.9-1-1.3,0,0-.1-.1-.2-.2,0,0,0,0,0,0,0,0,0,0,0,0,0-.2,0-.3.1-.4.2-.6.6-1.2.7-1.8.2-.6-.2-.9-.5-1.3-.4-.6-.8-1.2-1.2-1.8-.1-.2-.3-.5-.4-.8,0-.3,0-.5.2-.9.2-.5.2-.9,0-1.4,0-.2,0-.4,0-.6,0,0,0,0,0,0,0,0,.1.2.2.3,0,.1.1.3.3.4.1.1.4.2.5,0,.7-.6,1.1-1.5,1.5-2.2.3-.6.8-1.1,1.2-1.6.1-.1.2-.3.4-.4,0,0,0,.2,0,.2,0,.3-.2.6-.3.9,0,.3-.1.6.1.8.2.2.4.2.7,0,.5-.2,1-.6,1.5-.9.6-.4,1.2-.9,1.9-1.3,0,0,.2-.1.3-.2-.1.4-.2,1,.1,1.3.5.4,1.1-.1,1.4-.4.5-.4,1.1-.9,1.7-1.2,0,.1-.1.2-.2.3,0,.4.2.7.6.6.2,0,.5-.2.7-.3.7-.3,1.3-.7,2-.9,0,0,.1,0,.2,0,0,0,0,.1,0,.2,0,.4,0,.6.4.7.3.2.7.3,1,.4.2,0,.5.2.8.2.2,0,.3-.2.4-.3,0,0,0,0,0,0,0,0,0,0,0,0,0,0,0,0,0,0,0,0,.1,0,.1,0,0,0,.1,0,.2,0h0s0,0,0,0c0,0,0,0,.1,0,0,0,0,0,0,0,0,0,0,0,.1,0,0,0,.2.1.2.2.6.5,1,1.1,1.4,1.8.3.5.6,1.1.9,1.6,0,.2.4.3.6.2,0,0,0,0,.1-.1,0,0,0,0,0,0,.1,0,.2-.2.2-.4,0-1.4.4-2.8.4-4.2,0-.6,0-1.2-.5-1.7h0ZM213.7,98.2s0,0,0,0c0,0,0,0,0,0ZM213.8,98.5s0,0,0,0c0,0,0,0,0,0ZM213.8,98.5s0,0,0,0c0,0,0,0,0,0ZM203.1,111.9s0,0,0,0h0ZM206.3,98.8s0,0,0,0h0ZM206.3,100.7s0,0,0,0c0,0,0,0,0,0h0ZM213.7,98.7s0,0,0,0h0ZM216.8,98.2s0,0,0,0c0,0,0,0,0,0ZM203.1,111.9s0,0,0,0c0,0,0,0,0,0,0,0,0,0,0,0h0ZM206.7,101s0,0,0,0c0,0,0,0,0,0,0,0,0,0,0,0ZM213.7,98.7c-.2,0,0,0,0,0h0Z"/>
      <path class="cls-7" d="M222.7,217.1c-1,2-1.7,4.1-2.6,6.2-.2.5.5.9.7.4.9-2,1.6-4.2,2.6-6.2.2-.5-.5-.9-.7-.4Z"/>
      <path class="cls-7" d="M234.6,152.9v8c0,.6.9.6.9,0v-8c0-.6-.9-.6-.9,0Z"/>
      <path class="cls-7" d="M211.5,127.3c.6.3,1.2.5,1.8.7.6.2,1.2.2,1.8.2.6,0,.6-.9,0-.9-.5,0-1.1,0-1.6-.2-.5-.1-1.1-.4-1.6-.6-.5-.2-.9.5-.4.8Z"/>
      <path class="cls-7" d="M246.8,68.4c-1.7-.5-3.7-.8-5.2.5-.5.5-.9,1.2-.9,2,0,.8.5,1.5,1,2.1.9,1,2.2,1.9,2.1,3.5,0,1.8-2.8.7-3.7.4-1.5-.5-3-1.3-4.6-1.3-.7,0-1.5.2-2.1.6-.5.4-.8,1-.9,1.7-.1.7,0,1.4.6,1.9.7.6,1.6,1,2.4,1.4.8.4,1.7.7,2.6,1.1.7.3,1.4.6,2,1.2.2.2.4.4.4.7,0,0,0,.2,0,.2,0,0,.2-.2.2-.2,0,0,0,0,0,0,0,0,0,0,0,0-.4,0-.7,0-1.1,0-1,.1-1.9.7-1.9,1.8,0,1.2,1.3,1.9,2.2,2.4,1.3.6,2.6,1,3.9,1.4,3.9,1.2,7.9,1.7,11.8,2.7,1,.3,2.1.6,3.1.9.9.3,1.8.4,2.7.1.7-.3,1.3-.8,1.5-1.5.2-.8-.1-1.8-.6-2.4-.4-.5-1-.9-1.5-1.3-.4-.3-1-.7-1.2-1.2-.3-.6.7-.8,1.1-.9.8,0,1.6.4,2.4.7.8.3,1.6.4,2.4,0,.6-.3,1.1-1,1-1.7,0-.8-.9-1.3-1.6-1.6-.6-.3-1.2-.4-1.9-.6-.7-.3-1.2-.7-1.6-1.3v.3c.2-.6.8-.7,1.4-.7.6,0,1.2.2,1.8.3.6.2,1.3.3,2,.1.5-.1,1.4-.6,1.3-1.3-.1-.6-.6-1.1-1-1.6-.6-.6-1.3-1.2-2-1.7-1.8-1.4-3.8-2.5-5.8-3.6-2.1-1.1-4.3-2.2-6.6-3.2-1.8-.8-3.7-1.6-5.6-2.1-.5-.2-.8.7-.2.8,1.2.3,2.4.8,3.6,1.3,1.7.7,3.3,1.4,4.9,2.2,3.2,1.6,6.6,3.2,9.4,5.4.6.5,1.1.9,1.6,1.5.3.4.6.8.7,1.2,0-.1,0-.2,0-.3-.4.6-1.2.6-1.8.5-.7-.1-1.4-.4-2.1-.5-.7,0-1.4,0-2,.4-.3.2-.4.4-.6.7-.2.4.2.8.5,1.1.5.6,1.2.9,1.9,1.1.7.2,1.3.4,1.9.7.3.2.7.4.7.8,0,.4-.3.6-.6.8-.8.4-1.8-.1-2.6-.4-.7-.3-1.5-.5-2.3-.3-.6.2-1.5.7-1.4,1.5.1,1.4,1.6,1.9,2.5,2.7.6.5,1.2,1.4.9,2.2-.3.8-1.3,1-2,.9-1.1-.1-2.2-.6-3.2-.9-1-.3-2-.5-3.1-.8-2.1-.5-4.2-.8-6.2-1.3-1.9-.4-3.8-1-5.7-1.7-.5-.2-1.1-.4-1.6-.6-.5-.3-1.2-.6-1.5-1.1-.2-.3-.3-.8,0-1.1.2-.3.7-.4,1-.4.4,0,.8,0,1.2,0,.6-.1.6-.7.5-1.2-.1-.8-.8-1.3-1.4-1.7-.7-.5-1.6-.8-2.3-1.1-.9-.4-1.8-.7-2.7-1.2-.7-.4-1.6-.8-1.5-1.7,0-.7.4-1.3,1.1-1.5.8-.3,1.6-.2,2.3,0,1.7.4,3.2,1.3,4.9,1.7.8.2,1.7.3,2.4-.3.5-.4.7-1.1.7-1.7,0-.7-.3-1.5-.8-2-.5-.7-1.1-1.2-1.6-1.8-.5-.6-.9-1.4-.6-2.2.3-.7,1-1.2,1.8-1.3,1-.2,2.1,0,3.1.3.5.1.8-.7.2-.8h0Z"/>
      <path class="cls-7" d="M242.1,92.9c.5,0,.9.1,1.4.3.4.1.9.4,1,.8.2.8-1.5.8-1.9.8-.8,0-1.7-.4-2.2-1.1-.3-.3-.2-.7.2-.9.5-.3,1.1-.1,1.5,0,.5.1.8-.7.2-.8-1-.2-2.3-.3-2.9.8-.5,1.1.6,2,1.4,2.4.9.5,2,.6,2.9.4.9-.2,2-.9,1.5-2-.5-1.2-2-1.5-3.1-1.6-.6,0-.5.8,0,.9h0Z"/>
      <path class="cls-7" d="M239.4,99.7c.3,0,.7.1,1,.3.3.2.7.6.4,1-.3.3-.7.2-1.1.1-.4,0-.8-.2-1.2-.3-.3-.1-.7-.3-.8-.6,0-.3.2-.4.4-.5.4-.2.8-.1,1.3,0,.5.1.8-.7.2-.8-.6-.1-1.3-.2-1.8,0-.3.2-.7.4-.9.7-.2.4-.1.9,0,1.2.5.8,1.5,1,2.4,1.2.5.1,1,.2,1.5,0,.4-.2.7-.6.8-1,.1-.6-.3-1.2-.7-1.5-.4-.3-.9-.5-1.4-.6-.5-.1-.8.7-.2.8h0Z"/>
      <path class="cls-7" d="M20.7,77.9c0-.9,0-1.8.6-2.5.6-.8,1.7-1.1,2.5-.7.7.3,1.2.8,1.3,1.6.2.8.1,1.7.1,2.6,0,1.2.1,2.5.8,3.6.3.5,1,0,.7-.4-.6-1.1-.7-2.3-.7-3.5,0-.9,0-1.9-.3-2.8-.3-.9-1.1-1.5-1.9-1.8-1.1-.4-2.3,0-3.1.8-.9.9-1,2.1-1,3.3,0,.6.8.6.9,0h0Z"/>
      <path class="cls-7" d="M28.4,85s0,0-.1.1c0,0-.1.2-.1.3s0,.2.1.3c0,0,.2.1.3.1,0,0,0,0,.1,0,0,0,.1,0,.2-.1,0,0,0,0,.1-.1,0,0,.1-.2.1-.3s0-.2-.1-.3c0,0-.2-.1-.3-.1,0,0,0,0-.1,0,0,0-.1,0-.2.1Z"/>
      <path class="cls-7" d="M292.3,120.1c0,.8.1,1.6.2,2.3,0,.5.1,1.1.4,1.5.5,1,1.7.8,2.6.5.5-.2.3-1-.2-.8-.4.1-.9.3-1.2.2-.2,0-.2,0-.3-.1,0,0-.1-.2-.2-.3-.1-.4-.2-.8-.2-1.3,0-.7-.1-1.4-.2-2.1,0-.5-.9-.6-.9,0h0Z"/>
      <path class="cls-7" d="M289,111.1c.4-.8.6-1.6.5-2.5,0-.6-.2-1.3,0-2,.2-1,1.1-1.8,1.9-2.4.4-.3.9-.7,1.4-.6.4,0,.6.4.7.8.2.7.5,1.5,1,2,.7.7,1.6.2,1.9-.6.4-.9.3-1.9,0-2.8-.3-1-.8-1.9-1.5-2.6-.6-.6-1.6-1.1-2.5-.8-1.4.5-2.6,1.5-3.8,2.3-.5.3,0,1.1.4.8,1.1-.8,2.2-1.6,3.3-2.1.1,0,.3-.1.5-.2,0,0,.1,0,.2,0-.1,0,.1,0,.2,0,.3,0,.7.2.9.5.7.6,1.2,1.4,1.4,2.3.2.7.4,1.6,0,2.3,0,.1-.2.2-.3.3,0,0,0,0-.1,0-.2-.2-.4-.6-.5-.8-.3-.6-.3-1.4-.9-1.9-.4-.3-.9-.4-1.4-.3-.6,0-1,.4-1.4.8-.9.7-1.7,1.4-2.1,2.5-.3.7-.2,1.5-.1,2.2.1.9,0,1.7-.4,2.4-.3.5.5.9.7.4h0Z"/>
      <path class="cls-7" d="M279,116.7c.9-1,2-1.8,2.8-2.9.8-1.1,1.6-2.3,2.2-3.5.9-1.8,1.3-3.8,1.8-5.7.3-.9.6-1.7,1-2.6.1-.2.2-.4.4-.6.2-.3.5-.5.8-.8.5-.4.9-.9,1.4-1.2.6-.5,1.3-1,2.1-1.3.2,0,.5-.2.7-.2.4,0,.9.2,1.3.3,1.2.6,2.1,1.7,3,2.6.3.3.5.5.8.8.2.2.4.4.3.7-.1.6-.8.5-1.2.3-.5-.3-.9.5-.4.8.5.3,1.2.4,1.7.1.5-.2.8-.7.8-1.3,0-.7-.5-1.1-.9-1.6-.5-.5-1-1-1.5-1.5-.9-.9-1.9-1.8-3.2-2-.7-.2-1.4,0-2,.3-.9.5-1.8,1.2-2.6,1.8-.3.2-.5.5-.8.7-.3.3-.7.6-1,.9-.3.4-.6.9-.8,1.4-.9,1.9-1.2,4-1.9,5.9-.5,1.4-1.2,2.7-2,4-.5.7-1,1.4-1.7,2-.6.6-1.3,1.2-1.9,1.8-.4.4.2,1,.6.6h0Z"/>
      <path class="cls-7" d="M300.9,132.5c2.1.8,4.4,1,6.6.6,1.5-.3,2.8-.9,3.9-1.8,2-1.6,3.3-3.9,4-6.4.6-2.2.8-4.6.9-6.9,0-.6-.9-.6-.9,0,0,3.4-.5,7-2.2,9.9-1.1,1.9-2.9,3.6-5.1,4.2-2.3.6-4.8.4-7-.4-.5-.2-.8.6-.2.8h0Z"/>
      <path class="cls-7" d="M333,193.8c-1.9-.3-3.7-1.1-5.5-1.7-1.4-.5-2.8-.9-4.2-1.2-2.5-.5-5.2-.6-7.6.4-.8.3-2.1,1.1-1.3,2.2.3.4,1.1,0,.7-.4,0,0-.1-.2-.1-.2,0-.1,0,0,0,0,0,0,0,0,0,0,0,0,0,0,0,0,0,0,0,0,0-.1,0,0,0,0,.1-.1.3-.2.7-.4,1.1-.5.4-.2.9-.3,1.3-.4.2,0,.3,0,.5-.1,0,0,.1,0,.2,0,0,0-.1,0,0,0,.1,0,.2,0,.3,0,3-.2,5.8.5,8.7,1.4,1.9.6,3.7,1.5,5.6,1.8.5,0,.8-.7.2-.8Z"/>
      <path class="cls-7" d="M322.6,193.5c-1.3-.3-2.7-.5-4-.7-1.4-.1-2.8-.2-4.2.1-.5.1-1.1.3-1.6.7-.5.4-.9,1.2-.5,1.8.3.6,1,.7,1.6.7.9,0,1.9.1,2.8.2,2.2,0,4.4.2,6.5.7.5.1.8-.7.2-.8-1.7-.4-3.4-.6-5.2-.7-.9,0-1.7,0-2.6-.1-.7,0-1.5,0-2.2-.2-.2,0-.5,0-.5-.3,0-.2.2-.6.3-.7.3-.3.9-.4,1.3-.5,1.2-.2,2.4-.2,3.6,0,1.3.1,2.7.3,4,.6.5.1.8-.7.2-.8h0Z"/>
      <path class="cls-7" d="M323.2,196.2c-1.1,0-2.3-.1-3.4,0-.8.1-1.6.3-2.4.5-.8.2-1.7.4-2.4.8-.5.2-1.1.6-1.1,1.2,0,1.1,1.9,1.1,2.7,1.1,1.6,0,3.2-.1,4.8-.2.7,0,1.4,0,2.2,0,.1,0,.3,0,.4,0,.2,0,.2,0,.3,0,0,0,.2,0,.3,0,0,0,0,0,0,0,0,0,0,0,.1,0,0,0,0,0,0,0,0,0,0,0,0,0,0,0,0-.1,0-.2,0,0,0,0,0,0,0,0,0,0,0,0,0,0,0,0,0,0,0,0-.1,0-.2,0-.1,0-.3.2-.5.2-.8.3-1.6.5-2.4.8-.6.2-1.3.3-1.9.5-.6.2-1.7.9-1.4,1.7.3,1,2,.8,2.7.7,1.2-.2,2.3-.7,3.5-.9.7-.2,1.4-.3,2.1-.3.8,0,1.5.2,2.2.4,1.1.3,2.4.3,3.5.2,2.4,0,4.9-.4,7-1.7.5-.3,1-.7,1.5-1.1.4-.4-.2-1-.6-.6-1.8,1.6-4.1,2.3-6.5,2.5-1.1,0-2.1,0-3.2,0-.6,0-1.2-.1-1.8-.3-.7-.2-1.3-.3-2-.3-1.4,0-2.7.4-4,.8-.9.3-1.9.7-2.9.6-.2,0-.3-.1-.5-.2-.1,0,0,0,0,0,0,0,.1-.2.2-.2.1-.1.3-.2.5-.3,0,0,.2,0,.1,0,0,0,0,0,0,0,.6-.2,1.2-.3,1.8-.5.8-.2,1.6-.5,2.3-.8.5-.2,1.3-.5,1.4-1,.3-1.1-1.7-1.1-2.3-1.1-1.5,0-3,.1-4.5.2-1.2,0-2.6.2-3.7-.1,0,0,0,0,0,0,0,0,0,0-.1,0,0,0,0,0,0,0,0,0,0,0,0,0,0,0,0,0,0,0,0,0,0,0,0,0,0,0,0,0,0,0,0,0,0,0,0,0,.4-.4,1.1-.6,1.7-.8,1.4-.4,2.9-.8,4.3-.8.8,0,1.6,0,2.3,0,.6,0,.6-.8,0-.9Z"/>
      <path class="cls-7" d="M294.1,98.6c.9.5,2,.7,3,1.2.4.2.9.4,1.1.9.2.4-.4.6-.5,1-.1.5.7.8.8.2,0,0,0,0,0,0,0,0,0,0,.1,0,0,0,.2-.2.3-.3.2-.3.2-.6.2-.9-.1-.7-.6-1.1-1.2-1.4-.6-.3-1.3-.6-1.9-.8-.3-.1-.6-.2-.9-.3-.2,0-.4-.1-.5-.2-.5-.3-.9.5-.4.8h0Z"/>
      <path class="cls-7" d="M306.9,116c0,1.3.2,2.7.4,4,0,.2,0,.4.1.7,0,0,0,0,0,.2,0,.2,0,0,0,0-.7.2-1.5,0-2.2.3-.5.2,0,1,.4.8.7-.3,1.7.1,2.3-.5.4-.4.2-.8.2-1.2-.2-1.4-.5-2.8-.4-4.2,0-.6-.8-.6-.9,0Z"/>
      <path class="cls-7" d="M302,115.1c0,.5-.1,1-.3,1.4-.2.5.6.8.8.2.2-.5.3-1.1.3-1.6,0-.6-.9-.6-.9,0h0Z"/>
      <path class="cls-7" d="M311.1,115.4c0,.5,0,1-.4,1.4-.3.5.4.9.7.4.4-.6.5-1.3.4-2,0-.2-.3-.4-.5-.3-.3,0-.3.3-.3.5Z"/>
      <path class="cls-7" d="M301.1,113c.9-.5,2-.7,3-.7.6,0,.6-.8,0-.9-1.2,0-2.4.2-3.5.8-.5.3,0,1,.4.8h0Z"/>
      <path class="cls-7" d="M309.7,113c.8-.3,1.7-.3,2.5-.2.6,0,.5-.8,0-.9-.9-.1-1.9,0-2.7.2-.5.2-.3,1,.2.8Z"/>
      <path class="cls-7" d="M302.6,126c1.1.1,2.2.2,3.4.3.6,0,.6-.8,0-.9-1.1-.1-2.2-.2-3.4-.3-.6,0-.6.8,0,.9Z"/>
      <path class="cls-7" d="M303.2,128.1h1.2c.6,0,.6-.9,0-.9h-1.2c-.6,0-.6.9,0,.9Z"/>
      <path class="cls-7" d="M320.8,97.5c.9-.6,2-.7,2.9-1.3,1-.7,1.2-1.9.9-3.1-.5-2.1-2.8-4.6-5.1-3.5-1.1.5-1.7,1.9-.6,2.7,1,.8,2.3,1.3,3.5,1.6,1.2.3,2.6.4,3.9.2,1.2-.2,2.1-1.1,2.3-2.4.1-1.3-.5-2.5-1.2-3.5-.7-1-1.5-2-2.4-2.8-.9-.9-1.9-1.6-3-2.3-.5-.3-1.1-.6-1.7-.9-.6-.3-1.2-.4-1.8,0-1,.7-.6,2,0,2.7.4.4,1,.8,1.5,1.1.6.4,1.2.8,1.7,1.1,1.2.7,2.4,1.3,3.7,1.8,1.1.4,2.4.6,3.1-.6.5-.9.4-2,.1-3-.3-1-.9-2-1.7-2.8-.8-.8-1.7-1.5-2.6-2.2-1-.7-2-1.3-3.1-1.8-.6-.3-1.3-.5-1.9-.8-.5-.2-.8.6-.2.8,1.1.4,2.1.8,3,1.4.8.5,1.6,1,2.4,1.5,1.4,1.1,2.8,2.4,3.3,4.2.2.7.3,1.7-.2,2.3-.3.4-.8.3-1.2.2-.6-.1-1.1-.3-1.6-.5-1.1-.4-2.1-1-3-1.6-.5-.3-.9-.6-1.4-.9-.4-.3-.9-.5-1.3-.9-.3-.3-.6-.7-.5-1.1.1-.5.7-.4,1.1-.2.9.4,1.9,1,2.7,1.6,1.7,1.2,3.1,2.7,4.2,4.5.6.8,1.1,1.9.8,2.9-.3,1.1-1.3,1.3-2.4,1.4-1.1,0-2.2-.1-3.2-.4-.5-.2-1-.4-1.5-.6-.4-.2-1-.5-1.3-.8-.3-.4.2-.9.6-1,.4-.2.9-.2,1.3-.1,1,.2,1.7,1,2.2,1.8.5.8.9,1.8.5,2.7-.4.8-1.4,1.1-2.1,1.3-.4.1-.8.3-1.2.6-.5.3,0,1.1.4.8h0Z"/>
      <path class="cls-7" d="M146.4,103.9c-2.3-3.2-5.9-5-9.7-5.6-.5,0-4.1-.6-7.6,1-2,1-4.6,2.6-5.9,3.9-4.3,4-7.5,9.2-10.3,14.4-1.9,3.7-3.7,7.4-5.3,11.2-.2.4-.3.6-.3.6,0,0,2.2.4,3.5.9,2.8.9,3.6,2.6,5.3,3.7,1.7,1.2,4.7,1.2,4.7,1.2l1.3-5.5s-1.1-1.3-1.6-2.8-1.1-3.2-.8-8.2c0-1.7.6-3.7,1.4-5.7.2.2.5.2.7,0,1.7-3.9,4.3-7.7,7.9-10.1.9-.6,1.8-1.1,2.8-1.4,2.6,2.5,3.9,5.8,5.1,9.1,1.1,3.3,2.1,6.8,4.1,9.8.7,1,1.5,1.9,2.4,2.7-.3.9-1.6,4.9-2.4,5.4-.9.6-1.9-.8-2.5,0-.6.8-3.6,3.1-3.6,3.1,0,0-.3,1.7-.3,2.8s-.2,2.1.9,3.4c1.1,1.4,3.2,1.6,5.3,2.6s6.2,1.7,6.2,1.7c0,0-.8-5.8-.8-6.4-.1-4.3.4-10.3.9-13.9.3-2.5.7-4.9,1-7.4.4-3.7-.3-7.6-2.5-10.7h0Z"/>
      <path class="cls-4" d="M114.4,202.8c0,0,0,0,0,0,0,0,0,0,0,0Z"/>
      <path class="cls-4" d="M165.1,225.1c0-.9.2-1,.2-1.2,0-1.2-.2-2.4-.4-3.5-.3-1.7-.7-3.4-1.1-5.1-.8-3.7-1.7-7.4-2.7-11-.3-1.3-.7-2.6-1-4,0-.3-.4-.4-.6-.2,0,0,0,0,0,0,0,0-12,3.7-18,4.4-5.9.7-14.1,1.1-14.1,1.1,0,0-.7.7-1.4.8-.8,0-3.2-.5-4.1-.9-.9-.5-5-2.6-5-2.6,0,0,0,.4-1.1.5-.7,0-1.2-.1-1.4-.2,0,0,0,.2,0,.4-.1,0-.2.1-.3.3-.3.9-.4,1.9-.6,2.8-.3,1.6-.5,3.1-.8,4.7-.5,3.4-1,6.8-1.4,10.3-.1,1.1-.3,2.3-.3,3.5,0,0,0,.2,0,.3h54Z"/>
      <path class="cls-7" d="M153.6,143.3c1.1.3,2.2.6,3.1,1.3.6.5,1.2,1.1,1.6,1.8,1,1.6,1.7,3.3,2.3,5.1.6,1.8,1.1,3.6,1.6,5.4.6,2.1,1.3,4.2,1.9,6.2,1,3.2,2.1,6.5,3,9.8.5,1.6.9,3.2,1.4,4.9.9,3.1,1.8,6.1,2.4,9.2.3,1.7.7,3.5.6,5.2,0,.5-.1,1.1-.4,1.6-.2.3-.4.4-.7.6-1.6.9-3.2,1.7-4.9,2.5-2.8,1.2-5.7,2.3-8.6,3.2-3.9,1.2-7.8,2.2-11.7,3-4.7.9-9.5,1.5-14.3,1.7-1.3,0-2.5,0-3.8.1-.6,0-.6.9,0,.9,5,0,10.1-.5,15.1-1.3,4.3-.7,8.5-1.6,12.6-2.8,3.2-.9,6.4-2.1,9.6-3.3,2-.8,4-1.7,5.9-2.8.7-.4,1.4-.7,1.7-1.4.6-1.3.5-2.9.3-4.3-.4-3.9-1.6-7.7-2.7-11.5-.4-1.4-.8-2.8-1.2-4.2-.8-2.9-1.7-5.7-2.6-8.6-.7-2.3-1.5-4.6-2.2-6.9-.6-1.7-1-3.5-1.5-5.2-.6-1.9-1.2-3.8-2.1-5.6-.8-1.6-1.7-3.2-3.2-4.2-.9-.7-2-1-3.1-1.3-.5-.1-.8.7-.2.8h0Z"/>
      <path class="cls-7" d="M135.3,137.3c.5.9,1.3,1.5,2.2,1.9,1.1.6,2.3,1,3.5,1.4.5.2.8-.7.2-.8-1.1-.3-2.2-.7-3.2-1.3-.8-.4-1.5-.9-1.9-1.7-.3-.5-1,0-.7.4h0Z"/>
      <path class="cls-7" d="M121.3,129.1c.5,4.5-1.7,8.7-4.8,11.9-.4.4.2,1,.6.6,3.2-3.3,5.6-7.8,5-12.5,0-.5-.9-.6-.9,0Z"/>
      <path class="cls-7" d="M116.5,141c-.4.3-.8.6-1.2.9-.2.1-.3.4-.2.6.1.2.4.3.6.2.5-.3.9-.7,1.4-1.1.2-.2.2-.5,0-.6-.2-.2-.4-.2-.6,0h0Z"/>
      <path class="cls-7" d="M104.5,147.5c-1.3.6-2.6,1.3-3.6,2.3-.8.8-1.4,1.9-1.7,3-.8,2.2-.7,4.7-.4,7,.4,3.2,1.2,6.4,1.8,9.6.6,2.8,1.2,5.5,1.9,8.2.9,3.8,2,7.6,3.2,11.3.5,1.5,1.1,2.9,1.6,4.4.9,2.2,1.7,4.5,2.8,6.5.8,1.5,2,2.8,3.6,3.4,1.2.5,2.4.2,3.5-.4,1-.6,2.1-1.3,3-2,.5-.4,1-.8,1.4-1.3.4-.4-.2-1-.6-.6-.9.9-1.9,1.7-3,2.4-.8.5-1.8,1.2-2.7,1.3-1.3.1-2.4-.8-3.3-1.6-.4-.4-.6-.7-.9-1.2-1.1-2-1.9-4.2-2.7-6.3-.6-1.4-1.1-2.8-1.6-4.2-1.2-3.4-2.2-6.9-3.1-10.4-.6-2.5-1.2-4.9-1.8-7.4-.7-3.1-1.4-6.2-2-9.3-.4-2.4-.9-5-.5-7.5.2-1,.4-2,.9-2.8.6-1.2,1.5-2,2.6-2.7.6-.4,1.2-.7,1.8-1,.5-.2,0-1-.4-.7h0Z"/>
      <path class="cls-4" d="M135.5,151.6c0,0,.2,0,.3,0,.6,0,.6-.9,0-.9-1.6.1-3.2.3-4.7.4-1.7,0-3.7,0-5.5-.1-.9-.1-1.8-.3-2.6-.5-.7-.2-1.3-.5-1.9-.9-.5-.4-.9-.8-1.2-1.4-1.2-1.9-4-6.5-4.3-6.3-2.3,1.3-3.6,2-5.7,3-1.8.8-5.9,2.8-5.4,2.6,0,0,2.7,2.3,5.1,6.5.6,1.1.9,2.4,1.4,3.6.3.9.7,1.9,1,2.8,1.2,3.7,2.1,7.6,3,11.4.9,3.6,1.9,7.1,2.5,10.7,0,.5.8.4.8,0,1.3-.6,7.4-5.4,11.7-9.8,5.5-5.5,6.8-8.6,7.7-10.6.8-1.7-1.4-8.5-2.1-10.5h0Z"/>
      <path class="cls-4" d="M155.7,188.2s0,0,0,0c0,0,0,0,0-.1,0-.1,0-.2,0-.4,0-.4-.2-.8-.2-1.1-.2-1.5-.4-3-.6-4.6-.4-3.1-.7-6.2-1.1-9.3-.5-4.5-1.1-9-1.3-13.5-.2-4.6,0-9.2,1.1-13.7.1-.6.4-1.7.5-2.3.1-.5.2-.6.2-.6l-13.2-2.7s0,.4,0,.6c0,1,0,2.2,0,3.2,0,1,0,2-.2,3-.1.5.9,0,.9-.2.5-.1,1.2-.3,1.7-.2,1,.2,1.5,1.3,1.5,1.3,0,0,.6.3.9.9.3.6.1,1,.5,1s.8,1,.8,1c0,0,.7.6,1,1.5.3.9-.2,3.3-.2,3.3,0,0-2.4,2.2-2.1,2.3.3.1,1.1,3.8.8,4.7-.3.9-8,15-8,15l-8.5,12-6.4,7.9s4.5,1.3,5.5,1.3,13.4-4.6,13.4-4.6l12.3-5.3c.3.5,1,0,.7-.5h0Z"/>
      <path class="cls-7" d="M143.7,122.9c-.4,1.3-.7,2.6-1.4,3.8-.3.5-.6,1-1,1.2-.5.3-1,.2-1.5,0-.5-.2-.8.6-.2.8,3.3,1.2,4.3-3.5,5-5.7.2-.5-.7-.8-.8-.2h0Z"/>
      <path class="cls-7" d="M139.9,126.2c-.5,1.1-1.1,2.3-2,3.2-.7.8-1.5,1.4-2.4,2-.5.3,0,1.1.4.8.9-.6,1.8-1.3,2.6-2.1.9-1,1.6-2.2,2.1-3.4.2-.5-.5-.9-.7-.4Z"/>
      <path class="cls-7" d="M121.2,112.8c-1.4,3.2-2.1,6.7-1.9,10.2.2,3.1,1.4,6.2,3.7,8.2,1.4,1.2,3.1,2,4.9,2.4.5.1.8-.7.2-.8-1.5-.3-2.9-.9-4.1-1.9-1.1-.9-2-2-2.6-3.3-1.3-2.7-1.5-6-1-8.9.3-1.9.8-3.7,1.6-5.5.2-.5-.5-1-.7-.4h0Z"/>
      <path class="cls-7" d="M135.3,131.6c-.4,1.9-.9,3.9,0,5.7.3.5,1,0,.7-.4-.8-1.6-.2-3.5.1-5.1.1-.5-.7-.8-.8-.2Z"/>
      <path class="cls-7" d="M126.5,110.5c-.5.6-.7,1.3-.9,2-.1.5.7.8.8.2.1-.6.3-1.2.7-1.6.3-.4-.3-1-.6-.6Z"/>
      <path class="cls-7" d="M136.5,113.7c-.5.6-.7,1.3-.9,2-.1.5.7.8.8.2.1-.6.3-1.2.7-1.6.4-.4-.3-1-.6-.6Z"/>
      <path class="cls-7" d="M135.2,112.4c.8-.3,1.7-.4,2.5,0,.5.3.9-.5.4-.8-1-.5-2.1-.5-3.2-.1-.5.2-.3,1,.2.8Z"/>
      <path class="cls-7" d="M140.6,152c1.1-.6,2.2-1.3,3.3-1.9.4-.2.9-.4,1.4-.4.5,0,.9.4,1.2.7.3.4,1-.2.6-.6-.8-1-2-1.2-3.2-.7-1.3.5-2.5,1.4-3.8,2.1-.5.2,0,1,.4.8h0Z"/>
      <path class="cls-7" d="M142.1,153.5c.6-.3,1.1-.7,1.6-1.1.4-.3.8-.6,1.2-.8.5-.3,1.3-.4,1.8-.3.2,0,.3,0,.5.2,0,0,0,0,0,0,0,0,0,0,0,0,.1.1,0,0,.1.2.2.3.3.7.3,1,0,.5,0,.9-.1,1.3,0,.2-.1.5-.2.7,0,.1,0,.2-.1.3,0,0,0,.1,0,.2,0,0,0,0,0,.1,0,.2-.2.4-.3.5,0,.1-.2.4-.3.4,0,0,0,0-.1.1,0,0-.2.2,0,0,0,0,0,0,0,0,0,0,0,0,0,0,0,0,0,0,0,0,0,0,.1,0,0,0,0,0,.1,0,0,0,0,0,0,0,0,0,0,0,0,0,0,0,0,0,0,0,0,0,0,0,0,0,0-.1,0-.1,0-.2,0-.3,0,0,0-.1,0-.1,0,0,0-.2,0-.2,0-.2,0-.4,0-.5,0-.5,0-.9,0-1.4,0-.6-.8-.6-.9,0,0,.8-.1,1.6,0,2.3,0,.4.2.9.5,1.2.8.5,1.4-.6,1.7-1.1.5-.9.8-2,.8-3.1,0-1-.3-2.1-1.2-2.6-.7-.3-1.5-.3-2.2-.1-.6.2-1.1.5-1.6.9-.6.5-1.2,1-1.9,1.4-.5.3,0,1,.4.7h0Z"/>
      <path class="cls-7" d="M145.6,157.8c0,.9.4,1.9.5,2.8,0,.4.1.9,0,1.3,0,.4-.2.7-.3,1.1-.5,1.2-1,2.4-1.6,3.5-1.4,2.7-2.9,5.4-4.4,8-3.1,5.1-6.4,9.9-10,14.6-2.6,3.5-5.4,6.9-8.7,9.8-.4.4.2,1,.6.6,2.9-2.6,5.5-5.6,7.9-8.8,2.1-2.7,4.2-5.5,6.1-8.4,3.3-4.7,6.3-9.7,8.9-14.8.7-1.3,1.3-2.7,1.9-4.1.3-.8.6-1.6.5-2.5-.1-1.1-.5-2.1-.6-3.1,0-.6-.9-.6-.9,0h0Z"/>
      <path class="cls-7" d="M139.6,150.4c1.2-.5,2.2-1.3,3.4-1.8.5-.2,1.2-.5,1.8-.4.5,0,.8.4.9,1,.1.5,1,.3.8-.2-.8-3.7-5.5,0-7.3.7-.5.2,0,1,.4.8h0Z"/>
      <path class="cls-7" d="M137.5,164.4c.8-1.7.9-3.6.4-5.4-.3-1.4-.7-2.8-1.1-4.1-.2-.7-.3-1.4-.5-2,0-.5-.2-.9,0-1.4.2-.9,1-1.5,1.7-2.1.8-.6,1.7-1.2,2.6-1.7,1.3-.6,3.9-1.4,4.5.5.2.5,1,.3.8-.2-.6-1.8-2.4-2.1-4-1.7-1.1.3-2.1.7-3,1.3-.9.6-1.7,1.2-2.4,1.9-.6.6-1.1,1.4-1.1,2.3,0,.5.1,1.1.2,1.6.3,1.6.8,3.1,1.2,4.6.2.6.3,1.2.5,1.9.2,1.4,0,2.8-.5,4-.2.5.5.9.7.4h0Z"/>
      <path class="cls-7" d="M113.1,187.2c1.6-1.7,3.7-2.9,5.7-4.2,2-1.3,3.9-2.7,5.7-4.2,1.4-1.2,2.8-2.6,4.1-3.9,1.5-1.5,2.9-3,4.3-4.6,1.7-1.9,3.3-3.8,4.6-6,.3-.5-.4-.9-.7-.4-2.3,3.7-5.4,6.9-8.4,9.9-1.3,1.3-2.5,2.6-3.9,3.8-1.8,1.6-3.7,2.9-5.6,4.2-2.2,1.5-4.5,2.8-6.3,4.7-.4.4.2,1,.6.6h0Z"/>
      <path class="cls-7" d="M151.7,159.3c1.4,7.4,3,14.7,5.4,21.8.6,1.9,1.3,3.8,2.1,5.6.2.5,1,0,.7-.4-1.4-3.3-2.5-6.8-3.5-10.3-1-3.6-1.9-7.3-2.7-11-.4-2-.8-3.9-1.2-5.9-.1-.5-.9-.3-.8.2h0Z"/>
      <path class="cls-7" d="M117.2,203.2c1.4.4,2.6,1.3,3.8,1.9,1.3.7,2.8,1.4,4.4,1.4.8,0,1.5-.3,2-.8.4-.4-.2-1-.6-.6-.9.9-2.3.5-3.4.1-1.4-.5-2.7-1.3-4.1-2-.6-.3-1.3-.7-1.9-.9-.5-.2-.8.7-.2.8h0Z"/>
      <path class="cls-7" d="M124.3,197.5c1.6.4,3.2,1.5,5,1.4.4,0,.8-.2,1.3-.3.5-.2,1-.3,1.5-.5.8-.3,1.5-.5,2.3-.8,2.2-.8,4.4-1.5,6.6-2.3,4.5-1.6,8.8-3.6,13.1-5.5,1.3-.6,2.6-1.1,3.9-1.7.8-.3,1.6-.7,2.4-.9.5-.1.3-1-.2-.8-.7.2-1.4.5-2.1.8-1.1.4-2.2.9-3.3,1.4-2.5,1.1-5,2.2-7.5,3.3-3.9,1.7-7.9,3.1-11.9,4.5-1.7.6-3.5,1.2-5.2,1.8-.3,0-.5.2-.8.2-.2,0-.5,0-.7,0-.5,0-.9-.2-1.4-.3-.9-.3-1.8-.8-2.8-1-.5-.1-.8.7-.2.8h0Z"/>
      <path class="cls-7" d="M109.4,198.3c-.3,1.1-.1,2.6.3,3.7.2.5.4,1.1.9,1.3.5.3,1,0,1.4-.3.4-.4-.2-1-.6-.6,0,0-.1.1-.2.2,0,0,0,0,0,0,0,0,0,0,0,0,0,0,0,0-.1-.1-.2-.3-.4-.7-.5-1.1-.2-.9-.4-1.9-.1-2.8.2-.5-.7-.8-.8-.2h0Z"/>
      <path class="cls-7" d="M129.2,114.3c0,.7-.2,1.4-.7,1.9-.4.5-.8.8-1.2,1.3-.3.4-.6.9-.4,1.4.2.7,1.1,1.2,1.7,1.6.5.3.9-.5.4-.8-.4-.3-1.2-.7-1.3-1.2,0,.1,0,0,0,0,0,.1,0,0,0,0,0,0,0,0,.1-.2,0-.1.3-.3.4-.5.4-.4.8-.8,1.2-1.3.4-.6.6-1.4.6-2.1,0-.6-.9-.6-.9,0Z"/>
      <path class="cls-7" d="M111.4,203.1c.5.9,1.5,1.3,2.5,1.1.2,0,.4-.3.3-.5,0-.3-.3-.3-.5-.3-.6,0-1.2-.2-1.5-.7-.3-.5-1,0-.7.4Z"/>
      <path class="cls-7" d="M126.3,107.3c1.1-.3,2.3.3,2.8,1.3.2.5,1,0,.7-.4-.6-1.4-2.3-2.1-3.8-1.7-.5.2-.3,1,.2.8h0Z"/>
      <path class="cls-7" d="M126.6,125.1c.2-.4.7-1.2,1.3-1,.3,0,.5.5.6.7.1.3.2.7,0,1-.2.5-.9.9-1.5.7-.5-.2-.7-.9-.4-1.4.3-.5-.5-.9-.7-.4-.4.7-.3,1.6.2,2.2.6.6,1.5.7,2.2.4.8-.4,1.3-1.2,1.2-2.1,0-.8-.6-1.7-1.4-1.9-.9-.2-1.8.7-2.2,1.5-.3.5.5.9.7.4h0Z"/>
      <path class="cls-7" d="M144.8,94c.4-.9.8-1.7,1.2-2.5.4-.7.9-1.7,1.6-2.1.5-.2,1.3-.2,1.5.4,0,.2.1.5,0,.8,0,.2,0,.2,0,.4-.3.9-1.2,1.6-2.2,1.6-.6,0-.6.9,0,.9,1.8,0,3.4-1.8,3.1-3.6-.2-.9-.9-1.5-1.8-1.5-1.1,0-1.9.7-2.4,1.6-.7,1.1-1.3,2.3-1.9,3.5-.2.5.5.9.7.4h0Z"/>
      <path class="cls-7" d="M148.4,97c.5-.7,1.1-1.3,1.8-1.8.6-.4,1.5-1.1,2.3-.8.8.3.5,1.3,0,1.7-.6.6-1.4,1-2.2.7-.5-.2-.8.7-.2.8,1.1.3,2.3,0,3-.9.7-.7,1-1.9.3-2.8-.8-.9-2.2-.5-3.1,0-1,.6-1.9,1.4-2.6,2.3-.3.4.3,1.1.6.6h0Z"/>
    </g>
  </g>
  <g>
    <path class="cls-5" d="M58.3,51.2c0-29.4,24.1-40.2,47-40.2s44.3,10.7,44.5,40.1c0,.7,0,1.5,0,2.2,4.5,5.1,10.8,12.6,10.2,14-.3.8-7-1.5-12.1-3.3-5.7,17.9-23.7,27-42.6,27s-46.9-11.7-47-39.8Z"/>
    <path class="cls-7" d="M58.3,51.2h-.8s.8,0,.8,0ZM149.8,51.1h-.8s.8,0,.8,0ZM149.7,53.3l-.6.5-.2-.2v-.3s.8,0,.8,0ZM160,67.3l.7.3h0s-.7-.3-.7-.3ZM147.9,64l-.7-.2.2-.7.7.3-.3.7ZM105.3,11.8c-11.4,0-23,2.7-31.7,8.9-8.7,6.2-14.6,16.1-14.6,30.5h-1.5c0-14.9,6.1-25.2,15.2-31.8,9.1-6.5,21-9.2,32.6-9.2v1.5ZM149,51.1c0-14.5-5.4-24.3-13.4-30.5-8.1-6.2-19-8.9-30.3-8.9v-1.5c11.6,0,22.8,2.7,31.3,9.2,8.4,6.5,13.9,16.8,14,31.7h-1.5ZM149,53.3c0-.7,0-1.4,0-2.1h1.5c0,.7,0,1.5,0,2.2h-1.5ZM159.3,67c0,0,0,0,0,0,0,0,0-.2,0-.3-.1-.3-.3-.7-.6-1.1-.6-.9-1.4-2.1-2.4-3.5-2.1-2.7-4.7-5.8-7-8.3l1.1-1c2.3,2.6,5,5.7,7.1,8.4,1,1.4,1.9,2.6,2.5,3.6.3.5.5,1,.7,1.4,0,.2.1.4.2.6,0,.2,0,.5,0,.7l-1.4-.6ZM148.1,63.3c2.6.9,5.5,1.9,7.8,2.6,1.2.3,2.2.6,2.9.7.4,0,.6,0,.7,0,0,0,0,0,0,0,0,0-.2,0-.3.3l1.4.6c-.1.3-.4.5-.6.5-.2,0-.4,0-.5,0-.3,0-.7,0-1.1,0-.8-.1-1.8-.4-3-.8-2.4-.7-5.3-1.7-7.9-2.7l.5-1.4ZM105.3,90.2c18.7,0,36.3-9.1,41.9-26.5l1.4.5c-5.9,18.3-24.3,27.5-43.3,27.5v-1.5ZM59,51.2c0,13.8,5.9,23.5,14.6,29.8,8.7,6.3,20.3,9.2,31.6,9.2v1.5c-11.6,0-23.5-3-32.5-9.5-9.1-6.6-15.2-16.7-15.2-31h1.5Z"/>
  </g>
  <path class="cls-7" d="M69.1,40.7h.2c.4.3.6.5,1,.5,1.5,0,5.2-.4,6.4-.6.4,0,.6-.4.9-.4.6,0,1.8,1.1,1.8,1.6s-.6.3-1.1.7c-.8.6-2,1.6-3.5,2.5l-.4-.4c1.2-1,2.2-2.2,2.7-3,0-.2,0-.3-.2-.3-1.4.1-4.3.6-5.3.9-.3,0-.6.5-.9.5s-1.2-.7-1.4-1.2c0-.2-.1-.5-.1-.9ZM71.9,43.3c2,.5,4.3,1.7,4.3,3.5s-.3.8-.8.8c-.6,0-.6-.9-1.7-2.2-.7-.9-1.4-1.5-1.9-1.9v-.2ZM82.5,39.6c1.7.2,3.6.9,3.6,2.1s-.3.8-.8.8-.6-.2-.9-.6c-.6-.8-.9-1.2-2-2.1v-.2ZM91.4,40.8h.2c-1.4,2.8-3.6,4.9-6.3,6.6-.4.2-.5.6-.9.6-.7,0-1.5-.7-1.8-1.2-.1-.3-.3-.8-.3-1.1h.2c.3.2.7.6,1.1.6,1.3,0,6-3.3,7.7-5.6ZM95,39.4v-.2c.5,0,1,0,1.8.2.8.2,1.5.6,1.5,1.4s-.3.6-.6.6c-.6,0-.8-.5-1.4-1-.5-.4-.9-.8-1.3-1ZM103.1,41.1h.2c-1.2,2.6-3.9,5-6.5,6.6-.4.2-.6.6-1,.6s-1.3-.5-1.7-1.1c-.2-.3-.3-.9-.3-1.2h.2c.3.2.7.7,1.1.7,1.4,0,5.9-3.1,8-5.6ZM93.5,41.9v-.2c.6,0,1,0,1.7.2.9.2,1.7.7,1.7,1.4s-.1.7-.6.7-.8-.5-1.4-1c-.5-.5-1-.9-1.4-1.1ZM106.9,41.9c.2.2.5.4.7.4.7,0,2.8-.2,3.3-.3.3,0,.5-.3.8-.3s1.5.7,1.5,1.2-.4.4-.5.7c-.1.7-.5,2.5-.7,3.6h-1.1c.1-.9.4-3.6.5-4.2,0,0,0-.1-.1-.1-.7,0-2,.2-2.7.3-.4.1-.7.3-.9.3-.4,0-.8-.6-.9-.9,0-.2,0-.4,0-.6h.1ZM107.1,44.2c.2.2.5.3.7.3.5,0,2.7-.3,3.7-.3v.9c-1.1,0-2.3.2-2.9.3-.3,0-.5.2-.7.2s-.7-.4-.8-.7c0-.2-.1-.4-.1-.6h0ZM106.7,46.5c.3.3.5.4.8.4.7,0,4-.4,4.3-.4s1,.5,1,.7-.2.5-.5.5-1-.2-1.7-.2-1.6.2-2.1.3c-.3,0-.6.2-.9.2-.4,0-.8-.6-1-.9,0-.2,0-.3,0-.6h0ZM117.9,39.6c1.7.2,3.6.9,3.6,2.1s-.3.8-.8.8-.6-.2-.9-.6c-.6-.8-.9-1.2-2-2.1v-.2ZM126.8,40.8h.2c-1.4,2.8-3.6,4.9-6.3,6.6-.4.2-.5.6-.9.6-.7,0-1.5-.7-1.8-1.2-.1-.3-.3-.8-.3-1.1h.2c.3.2.7.6,1.1.6,1.3,0,6-3.3,7.7-5.6ZM137.3,40.7c-.2-.3-.5-.8-1.1-1.2v-.2c.8.2,1.4.4,1.7.7.3.2.3.4.3.7s-.2.4-.4.4-.4-.2-.6-.5ZM138.4,39.7c-.2-.3-.5-.6-1.1-1.1v-.2c.8.1,1.3.3,1.7.6.3.2.4.5.4.7s-.1.4-.4.4-.4-.2-.6-.5ZM131.1,46.5c.6.3,1.1.5,1.4.5s.6-.1.8-.4c.6-.7.9-2.4.9-3.6s-.2-1-.8-1-2.3.6-3,1c-.4.2-.6.3-1,.3s-.9-.6-1-1.1c0-.3,0-.6.1-.8h.2c.2.4.4.6.7.6.5,0,1.7-.3,2.9-.5.4,0,1-.2,1.4-.2,1,0,1.6.6,1.6,2.2s-.4,3.3-1.2,4.2c-.4.4-.9.7-1.6.7s-.6-.2-.8-.8c0-.2-.1-.3-.7-1v-.2ZM131,39.1v-.2c.3-.1.6-.3,1.1-.3s1.7.5,1.7.9-.3.5-.5.9c-.3.7-1.1,2.8-1.7,4-.6,1.2-1.3,2.7-1.7,3.5-.3.5-.5.6-.8.6s-.6-.3-.6-.7,0-.5.3-.8c.6-.7,1.2-1.7,1.8-2.9.9-1.8,1.5-3.8,1.5-4.3s0-.3-.2-.4c-.2-.1-.6-.2-.9-.3ZM135.8,41.4v-.2c.9,0,1.7.3,2.3.9.7.6,1,1.5,1,2.4s-.3,1.2-.8,1.2c-.4,0-.4-.4-.8-.5-.3,0-.9-.2-1.3-.2v-.2c.5-.1.9-.2,1.1-.3.3-.1.4-.3.4-.6,0-.3,0-.9-.4-1.4-.3-.5-.7-.9-1.4-1ZM74.5,57.6h8.7l.8-1.1s1,.8,1.5,1.3c0,.1-.2.2-.3.2h-10.6v-.3ZM79.2,54.8l1.9.2c0,.2-.1.3-.4.3v5.7h-1.5v-6.2ZM76,60.9v-.6l1.6.6h5.9v.3h-6v4.4c0,.1-.6.5-1.3.5h-.2v-5.2ZM82.5,60.9h-.1l.7-.8,1.5,1.1c0,.1-.3.2-.6.3v4.1c0,0-.8.4-1.2.4h-.2v-5.1ZM76.5,64.6h6.9v.3h-6.9v-.3ZM86.9,57.4h.2c.4.4.6.6,1,.6.6,0,3.9-.4,4.9-.5,2.5-.3,2.8-.5,3-.5.6,0,1.4.3,1.4.9s-.2.5-.6.5c-.6,0-1.3-.3-3.6-.1-1.6.1-3,.5-3.7.7-.6.2-.8.4-1.2.4s-1.2-.6-1.3-1.1c0-.3,0-.6,0-.9ZM91,56v-.2c.3-.2.7-.4,1.1-.4.7,0,1.5.3,1.5.7s-.2.6-.2.9c0,.6,0,2.7,0,4l-1-.9c0-.5-.1-2.6-.3-3.4,0-.2,0-.3-.3-.4-.2,0-.5-.2-.8-.2ZM91.8,59.5c1.5,0,2,1,2,2.2,0,2.5-2,3.8-4.7,4.1v-.2c1.4-.5,2.6-1.3,3.1-2.4-1.2.3-2.1-.7-2.1-1.9s.7-1.9,1.7-1.9ZM91.7,62.3c.6,0,.8-.3.8-1s-.2-1.1-.7-1.1-1,.5-1,1.1.4,1,.9,1ZM107.6,57c.2.3.3.5.6.5.3,0,.4-.2.4-.4,0-.2,0-.4-.3-.7-.4-.3-.9-.6-1.6-.8v.2c.4.5.7.9.9,1.2ZM108.7,56.1c.2.3.4.5.6.5s.4-.2.4-.4-.1-.5-.4-.7c-.3-.3-.9-.4-1.6-.6v.2c.5.5.8.8,1,1.1ZM99.7,56.9c.7.4,1,.6,1.8.6s1.9-.3,2.6-.5c1.1-.3,1.5-.8,1.6-.8.5,0,1,0,1,.5,0,.2,0,.3-.3.5-.7.5-2.9,1.2-4.6,1.2s-1.7-.3-2.2-1.4h.1ZM101.1,58.7c-.5.7-.3,1.1.7,1.1s2.2-.2,3.4-.7c1.3-.4,1.6-.7,1.7-.7.5,0,1,0,1,.5s0,.4-.3.6c-1.1.7-3.5,1.4-5.8,1.4s-2.4-1.2-.9-2.2h.2ZM103.5,61.7c.9,0,1.7.1,2.2.2.1,0,.2,0,0-.1-.3-.4-.8-1.1-1.3-2.1-.5-.9-1-2.2-1.4-3.2-.1-.3-.2-.4-.6-.5-.2,0-.5,0-.8-.1v-.2c.3-.3.7-.5,1.2-.5s1.1.1,1.2.6c0,.3.1,1,.3,1.5.3.9.5,1.4,1,2.2,1.1,1.9,2,2.2,2,2.8s-.3,1.1-.7,1.1-.6-.3-1.3-.7c-.4-.2-1.3-.6-2.2-.6s-1.9.5-1.9,1.2,1.2,1.1,2.2,1.1,1.2-.1,1.9-.1,1,.2,1,.6-1.2.8-2.5.8c-1.9,0-3.4-.7-3.4-2s1.1-2,3.3-2ZM111,57.2c.2.3.5.6.8.6.7,0,2.5-.5,4.6-1,1.3-.3,2.5-.6,2.9-.6s.7,0,1,.2c.3.1.6.4.6.7s-.2.5-.6.5-.7,0-1.1,0c-.5,0-1.3,0-1.9.5-.4.3-1.4,1.3-1.4,3.3s.6,1.8,1,2.1c.7.4,1.7.3,2,.3s.9.4.9.8-.6.7-1.1.7c-.9,0-1.8-.1-2.6-.6-.8-.5-1.4-1.3-1.4-2.9s.8-3.2,2.1-4.1c.1,0,0-.1,0-.1-1.4.3-3.1.9-3.8,1.3-.3.1-.5.4-.8.4-.6,0-1.4-.8-1.4-1.4,0-.3,0-.6,0-.8h.1ZM124.3,60.4c0-.4.3-.7.7-.7s.7.3.7.7-.3.7-.7.7-.7-.3-.7-.7ZM130.3,60.4c0-.4.3-.7.7-.7s.7.3.7.7-.3.7-.7.7-.7-.3-.7-.7Z"/>
  <g>
    <path class="cls-5" d="M219.6,41.2c0-22.1,26.7-30.2,52.1-30.2s49.1,8.1,49.3,30.1c.2,19.7-23.9,29.9-49.3,29.9s-32-3.4-42.1-11c-4.4,2.2-9.7,4.6-10,3.7-.3-1.1,1.7-5.1,4.3-9.4-2.7-3.7-4.3-8.1-4.3-13.1Z"/>
    <path class="cls-7" d="M219.6,41.2h-.8s.8,0,.8,0ZM321,41.1h.8s-.8,0-.8,0ZM229.6,60l-.3-.7.4-.2.4.3-.5.6ZM219.7,63.7l-.7.2h0l.7-.2ZM223.9,54.3l.6-.4.3.4-.2.4-.6-.4ZM271.7,11.8c-12.7,0-25.6,2-35.3,6.7-9.7,4.7-16.1,12-16.1,22.7h-1.5c0-11.4,6.9-19.2,16.9-24,10-4.9,23.2-6.9,35.9-6.9v1.5ZM320.2,41.1c0-10.7-5.8-18-14.8-22.6-9-4.7-21.1-6.7-33.8-6.7v-1.5c12.8,0,25.2,2,34.5,6.9,9.3,4.9,15.5,12.6,15.6,24h-1.5ZM271.7,70.2c12.6,0,24.9-2.5,33.9-7.5,9-4.9,14.7-12.2,14.7-21.7h1.5c0,10.2-6.1,17.9-15.4,23-9.3,5.1-21.8,7.6-34.6,7.6v-1.5ZM230.1,59.4c9.9,7.5,25.9,10.8,41.6,10.8v1.5c-15.9,0-32.3-3.4-42.5-11.1l.9-1.2ZM220.4,63.5c-.1-.3-.4-.4-.3-.3,0,0,.2,0,.5,0,.5-.1,1.3-.4,2.3-.8,1.9-.8,4.3-1.9,6.5-3l.7,1.3c-2.2,1.1-4.7,2.3-6.6,3-1,.4-1.8.7-2.5.8-.3,0-.7.1-1,0-.3,0-.8-.2-1-.7l1.4-.4ZM224.6,54.7c-1.3,2.2-2.4,4.2-3.2,5.9-.4.8-.7,1.5-.8,2.1,0,.3-.1.5-.2.7,0,.2,0,.2,0,.2l-1.4.4c0-.3,0-.6,0-.8,0-.3.1-.6.2-.9.2-.6.5-1.4.9-2.3.8-1.7,2-3.8,3.2-6l1.3.8ZM220.4,41.2c0,4.9,1.5,9.1,4.2,12.7l-1.2.9c-2.8-3.8-4.4-8.3-4.4-13.6h1.5Z"/>
  </g>
  <path class="cls-7" d="M253.7,28.3v9c0,1-.2,1.6-1.9,1.7,0-.5-.1-.8-.3-1-.2-.2-.5-.4-1.2-.5v-.2s1.5,0,1.8,0,.3,0,.3-.2v-9.4l1.9.2c0,.2-.1.3-.4.3ZM247.5,31.3h3.4v.3h-3.3v-.3ZM250.4,31.3h-.1l.7-.7,1.3,1.1c0,.1-.2.2-.5.2-.6,2.4-1.8,4.7-4.4,6h-.1c1.8-1.7,2.8-4.2,3.1-6.6ZM253.7,29.6c.7,4,2.9,5.9,5,6.9h0c-.6.2-1,.7-1.2,1.4-2-1.7-3.3-3.8-3.8-8.3h0ZM256.8,29.9l1.7,1.1c0,.1-.2.2-.5.1-.8.7-2.1,1.6-3.3,2.3h-.1c.8-1.1,1.8-2.6,2.3-3.5ZM268.9,37.4v.3h-8.1v-.3h8.1ZM266.7,34.7v.3h-3.3v-.3h3.3ZM265.9,31.2l.6-.6,1.2.9c0,0-.2.2-.5.2v3.8c0,0-.6.4-1.1.4h-.2v-4.7h-.1ZM264.1,35.7c0,.1-.5.4-1.1.4h-.2v-5.5l1.3.5h2.5v.3h-2.5v4.2ZM268.3,28.9l.7-.8,1.3,1.1c0,0-.3.2-.5.3v8.9c0,.1-.7.4-1.2.4h-.2v-10h-.1ZM261.5,38.4c0,.2-.6.5-1.2.5h-.2v-10.7l1.5.6h7.3v.3h-7.5v9.2ZM273.9,28.2h0c.3,0,.6,0,.9,0,.6.3,1.1.9,1.1,1.3s-.1.6-.2.8c-.1.4-.2.7-.2,1,0,.2,0,.2.2,0,.6-1.1,1.4-1.8,2.2-1.8,1.4,0,2.3,1.3,2.3,3.9s-1.4,4.8-5.1,5.4v-.2c3.1-1.2,3.6-3.5,3.6-5.4s-.4-3-1.2-3-1,.4-1.4,1.2c-.4.7-.6,1.5-.6,2.2s0,1,0,1.5-.3.6-.6.6-.6-.2-.7-.5c-.2-.3-.2-.8-.2-1.3,0-1.2.5-3.2.5-4s-.2-1.3-.7-1.9ZM292.6,30.7c-.2-.3-.5-.8-1.1-1.2v-.2c.8.2,1.4.4,1.7.7.3.2.3.4.3.7s-.2.4-.4.4-.4-.2-.6-.5ZM293.7,29.7c-.2-.3-.5-.6-1.1-1.1v-.2c.8.1,1.3.3,1.7.6.3.2.4.5.4.7s-.1.4-.4.4-.4-.2-.6-.5ZM286.3,36.5c.6.3,1.1.5,1.4.5s.6-.1.8-.4c.6-.7.9-2.4.9-3.6s-.2-1-.8-1-2.3.6-3,1c-.4.2-.6.3-1,.3s-.9-.6-1-1.1c0-.3,0-.6.1-.8h.2c.2.4.4.6.7.6.5,0,1.7-.3,2.9-.5.4,0,1-.2,1.4-.2,1,0,1.6.6,1.6,2.2s-.4,3.3-1.2,4.2c-.4.4-.9.7-1.6.7s-.6-.2-.8-.8c0-.2-.1-.3-.7-1v-.2ZM286.3,29.1v-.2c.3-.1.6-.3,1.1-.3s1.7.5,1.7.9-.3.5-.5.9c-.3.7-1.1,2.8-1.7,4-.6,1.2-1.3,2.7-1.7,3.5-.3.5-.5.6-.8.6s-.6-.3-.6-.7,0-.5.3-.8c.6-.7,1.2-1.7,1.8-2.9.9-1.8,1.5-3.8,1.5-4.3s0-.3-.2-.4c-.2-.1-.6-.2-.9-.3ZM291,31.4v-.2c.9,0,1.7.3,2.3.9.7.6,1,1.5,1,2.4s-.3,1.2-.8,1.2c-.4,0-.4-.4-.8-.5-.3,0-.9-.2-1.3-.2v-.2c.5-.1.9-.2,1.1-.3.3-.1.4-.3.4-.6,0-.3,0-.9-.4-1.4-.3-.5-.7-.9-1.4-1ZM239.8,45.8c.3-.1.7-.3,1-.3.7,0,1.7.6,1.7,1s-.3.4-.5.9c0,.4-.2,1-.5,1.8-.5,1.5-1.6,4.8-5.5,6.5l-.2-.2c2.7-2.1,3.8-4.4,4.3-6.3.2-.7.5-1.9.5-2.3s0-.4-.2-.5c-.2-.2-.5-.3-.7-.3v-.2ZM240.3,53.3v-.2c.8.3,1.4.4,1.7.4.3,0,.4,0,.6-.2.7-.9,1.1-3.4,1.1-4.2s0-.1-.1-.1c-.7,0-1.9.2-2.8.3-.5,0-1.6.3-2.1.4-.4.1-.6.3-.9.3s-1-.7-1.1-1.1c-.1-.3,0-.6,0-.9h.2c.3.3.5.6.9.6s4-.4,5.5-.6c.3,0,.5-.4.8-.4s1.4.8,1.4,1.2-.4.3-.5.8c-.2,1.1-.5,2.8-1.2,4.1-.3.7-1.1,1.3-1.8,1.3s-.5-.2-.6-.6c-.1-.4-.4-.7-1.2-1.4ZM256.4,47.6c-.2-.3-.5-.8-1.1-1.2v-.2c.8.2,1.3.4,1.7.8.3.2.3.4.3.7s-.2.5-.5.4c-.2,0-.3-.2-.5-.5ZM257.5,46.6c-.2-.3-.5-.6-1.1-1.1v-.2c.8.1,1.3.3,1.7.6.3.2.4.5.4.7,0,.3-.1.4-.4.4s-.4-.2-.6-.5ZM248.8,46.5c.3-.1.8-.4,1.1-.4.7,0,1.6.7,1.6,1.1s-.3.4-.3.8c-.1,1-.3,3.8-.3,4.8,0,1,.2,1.1,1.5,1.1s2.9-.4,3.1-.4c.9,0,1.4.2,1.4.7s-.2.6-.6.7c-.6.2-2,.3-3.6.3-2.6,0-2.9-.5-3-2.3,0-1.7.1-5.4,0-5.7,0-.3-.4-.4-.9-.6h0ZM254.4,47.6h.1c.4,0,.7,0,1,.3.5.4.8.9.8,1.2s-.3.3-.8.6c-1.1.5-2.9,1.2-5,1.8l-.2-.5c1.6-.6,3.3-1.5,4.1-2.3.2-.2.2-.3.2-.5,0-.2-.2-.4-.2-.5ZM268.5,47.7c-.2-.3-.5-.8-1.1-1.2v-.2c.8.2,1.3.4,1.7.8.3.2.3.4.3.7,0,.2-.2.4-.4.4s-.4-.2-.5-.5ZM269.6,46.8c-.2-.3-.5-.6-1.1-1.1v-.2c.8.1,1.3.3,1.7.6.3.2.4.5.4.7s-.1.4-.4.4-.4-.2-.6-.5ZM262.1,45.8v-.2c.3-.1.6-.2,1-.2.7,0,1.5.4,1.5.7s-.2.6-.5,1.5c-.2.5-.5,1.8-.9,3-.5,1.4-1.2,3.5-1.7,4.4-.2.4-.4.7-.8.7s-.6-.4-.6-.9.3-.7.6-1.2c.4-.7,1-1.8,1.6-3.3.4-1,.7-2.8.8-3.5,0-.3,0-.4-.2-.6-.2-.1-.4-.2-.7-.3ZM259.8,47.6c.6.4,1,.6,1.5.6.7,0,1.5-.1,2-.3.9-.2,1.5-.5,2-.7.2-.1.4-.3.5-.3.3,0,.9.2.9.6s-.3.5-1.1.8c-.4.2-1.5.5-2.4.6-.5,0-1.2.2-1.6.2-.9,0-1.5-.2-1.9-1.5h.2ZM265,50.1v-.2c.6-.4,1.5-.8,2.5-.8s1.3.2,1.5.3c.4.2.5.5.5.7s-.2.5-.8.5c-.2,0-.5,0-.8,0-.5,0-1,.2-1.5.4h0c.3-.4.9-.8,1-1,0,0,0-.1,0-.2-.3,0-.7-.1-1-.1s-.9,0-1.4.2ZM264.5,52.2h-.2c0,.3,0,.8,0,1.2.1,1.3,1.2,2.1,3,2.1s1.3,0,1.7-.2c.5-.1.8-.3.8-.6,0-.5-.6-.7-1-.7s-.7.2-1.7.2-1.7-.2-2.1-.9c-.2-.3-.3-.8-.4-1.1ZM274.7,45.8v-.2c1.2,0,2,.1,2.5.4.7.4,1.1.9,1.1,1.6s-.2.5-.6.5-.7-.1-1.2-.2c-.6,0-1.4,0-1.7,0-.2,0-.3.1-.3.2,0,.2.2.5.2.8,0,.3,0,.6,0,1,0,.5-.2,1-.2,1.3,0,.1,0,.2.2,0,.8-.6,2.3-1.5,4-1.5s2.9,1.3,2.9,2.6c0,2.3-3.5,3.3-6.5,3v-.3c.9-.1,1.8-.3,2.4-.5,2.1-.8,2.7-1.7,2.7-2.7s-.6-1.6-1.6-1.6-2.8,1.5-3.5,2.3c-.3.4-.5.9-.9.9s-.5-.1-.7-.4c-.2-.2-.3-.5-.3-.8s0-.5.2-1c0-.6.3-1.7.3-2.3,0-.3,0-.6,0-.9s.1-.7.6-.8c.5,0,1.6-.4,2.1-.6.1,0,.1-.2,0-.3-.3-.5-.9-.7-1.6-1ZM284.6,45.8h.1c.4,0,.7,0,.9.3.4.2,1,.9,1,1.6s-.2.6-.4,1.1c-.5.8-.9,1.8-.9,2.7s0,.7.2.9c0,.2.2.2.3,0,.3-.4.8-1.5,1.1-2.3h.3c-.2.9-.5,1.8-.6,2.4,0,.3,0,.5,0,.8s.2.8.2,1.3-.2.6-.6.6-.6-.3-.9-.7c-.3-.6-.7-1.5-.7-2.8s.7-3.2.7-4.5-.3-1.1-.6-1.4ZM287.8,48.1h.1c.7.3,1.2.5,1.8.5.9,0,2.3-.4,3-.7.4-.2.5-.3.6-.3.5,0,.9.3.9.6s-.1.4-.5.6c-.7.3-2.4.8-3.8.8s-1.6-.2-2.2-1.6ZM289.8,46.3v-.2c.3-.2.8-.4,1.1-.4.6,0,1.5.4,1.5.8s-.1.4-.2.8c0,.5,0,1.2,0,1.7,0,1.3.2,3.2-.2,4.3-.6,1.5-1.8,2.1-3.5,2.5v-.2c1.1-.7,1.9-1.5,2.3-3,.3-1,.2-2.3.2-3.5,0-.7,0-1.7-.1-2.2,0-.3-.1-.4-.3-.5-.2-.2-.5-.2-.9-.3ZM297.3,50.4c0-.4.3-.7.7-.7s.7.3.7.7-.3.7-.7.7-.7-.3-.7-.7ZM303.3,50.4c0-.4.3-.7.7-.7s.7.3.7.7-.3.7-.7.7-.7-.3-.7-.7Z"/>
  <g>
    <path class="cls-5" d="M13,240.7c-.2-27.8,30.8-42.1,63.6-42.1s20.2,1.2,31.6,4.8c4-5.7,7.7-10.5,9.2-10.3,1,.1.9,7.1.5,14.1,6.4,2.9,12.5,6.7,17.9,11.7,5,5.9,8,13.1,8.1,21.8.1,31.1-34.4,42.5-67.2,42.5s-63.4-11.3-63.6-42.3Z"/>
    <path class="cls-7" d="M13,240.7h-.8s.8,0,.8,0ZM108.2,203.3l.6.4-.3.5-.5-.2.2-.7ZM117.4,193v-.7c0,0,0,0,0,0v.7ZM117.8,207.1l-.3.7-.5-.2v-.5s.8,0,.8,0ZM135.8,218.8l.5-.6h0s0,0,0,0l-.6.5ZM143.8,240.5h.8s-.8,0-.8,0ZM76.6,199.3c-16.3,0-32.1,3.6-43.8,10.5-11.7,7-19.2,17.3-19.1,30.8h-1.5c-.1-14.2,7.8-25,19.8-32.1,12-7.1,28.1-10.7,44.6-10.7v1.5ZM107.9,204.1c-11.3-3.6-22.6-4.8-31.3-4.8v-1.5c8.9,0,20.4,1.2,31.8,4.8l-.5,1.4ZM107.6,202.9c2-2.9,3.9-5.5,5.6-7.4.8-1,1.6-1.8,2.2-2.3.3-.3.7-.5,1-.7.3-.2.7-.3,1.1-.2l-.2,1.5s0,0-.2,0c-.2,0-.4.3-.7.5-.6.5-1.3,1.2-2.1,2.1-1.6,1.9-3.5,4.5-5.5,7.3l-1.2-.9ZM117.4,192.3c.3,0,.5.2.6.3.1.1.2.3.3.5.1.3.2.7.3,1.1.1.8.2,2,.2,3.3,0,2.7,0,6.2-.3,9.7h-1.5c.2-3.6.3-7,.3-9.6,0-1.3,0-2.4-.2-3.1,0-.4-.1-.6-.2-.7,0,0,0,0,0,0,0,0,.1.1.3.1l.2-1.5ZM135.3,219.3c-5.3-4.9-11.4-8.7-17.7-11.6l.6-1.4c6.5,2.9,12.7,6.8,18.1,11.8l-1,1.1ZM143.1,240.5c0-8.5-3-15.6-7.9-21.3l1.1-1c5.1,6,8.2,13.4,8.2,22.3h-1.5ZM76.6,282.2c16.3,0,33-2.8,45.6-9.5,12.5-6.6,20.9-17,20.9-32.2h1.5c0,15.9-8.8,26.7-21.7,33.5-12.9,6.8-29.8,9.7-46.3,9.7v-1.5ZM13.8,240.6c.1,15.2,7.6,25.6,19.2,32.2,11.6,6.6,27.3,9.5,43.7,9.5v1.5c-16.5,0-32.5-2.8-44.4-9.6-12-6.8-19.9-17.6-20-33.4h1.5Z"/>
  </g>
  <path class="cls-7" d="M30.7,223.9c0-.8.6-1.4,1.4-1.4s1.4.6,1.4,1.4-.6,1.4-1.4,1.4-1.4-.6-1.4-1.4ZM31.2,223.9c0,.5.4.9.9.9s.9-.4.9-.9-.4-.9-.9-.9-.9.4-.9.9ZM23.5,226.8h.1c.3.1.5.2.7.2s.4-.1.7-.4c.6-.5,1.7-1.7,2-2.1.3-.3.6-.5.9-.5s.8.2,1.2.6c1.6,1.5,3.3,3.1,4.5,3.9.5.3.7.8.7,1.3s-.2.7-.6.7-1.1-.5-2-1.5c-.7-.8-2.6-2.9-3.3-3.5-.2-.2-.4-.3-.5-.3s-.2,0-.4.3c-.4.5-1.2,1.8-1.6,2.3-.3.4-.5.7-.9.7s-1.1-.4-1.4-.8c-.2-.2-.2-.5-.2-.9ZM39.4,224.8h.1c.4,0,.7,0,1,.3.6.3.9.8.9,1.4s-.3.6-.6.6c-.6,0-.5-.5-.8-1.2-.1-.3-.4-.9-.6-1.1ZM38,231.6v-.2c2.8-1.4,5.1-4.8,5.1-6s-.2-.4-.6-.6h0c.2-.2.5-.2.7-.2.6,0,1.4.7,1.4,1.2s-.3.5-.5.7c-1,2.1-3.1,4.3-6.2,5.1ZM37.4,225.5h.1c.4,0,.7.2.9.3.7.4,1.1.9,1.1,1.5s-.2.6-.6.6-.6-.6-.9-1.2c-.2-.5-.4-.9-.6-1.2ZM50.4,221.9c.3-.2.7-.3,1.1-.3.6,0,1.7.6,1.7,1s-.3.5-.3.9c0,.5,0,1.3-.1,2.2,0,1.3,0,2.9,0,4,0,.6,0,1,0,1.2,0,.6-.1.9-.6.9s-1-.6-1-1.5.1-.6.2-1.1c0-.9.1-2.5.1-3.2s0-2.5-.1-3c0-.4-.4-.5-.9-.6v-.2ZM52.5,225.2c1.3.1,2.6.4,3.3.9.5.3.9.7.9,1.3s-.3.7-.7.7c-.8,0-.8-.7-1.7-1.5-.4-.3-.9-.7-1.7-1v-.4ZM60.5,222.8c.4.3.8.7,1.7.6,1.1,0,2.7-.5,3.4-.8.4-.2.5-.3.7-.3.4,0,.8.1.8.6s0,.4-.4.5c-.6.3-2.7,1-4.8,1s-1.2-.6-1.5-1.6h.2ZM66,229.1c0,.4-.2.7-.6.7s-.7-.2-.7-.7,0-1.2,0-2c0-1-.1-1.3-.7-1.3s-1.4.9-1.8,1.4c-.4.5-.8,1.3-1.3,1.3-.4,0-.6-.3-.6-.8,0-.4.4-.6.9-1.1,1.4-1.4,2.3-3.4,2.4-4,0-.2,0-.3-.2-.5-.2-.1-.4-.2-.7-.3v-.2c.3-.1.6-.3.9-.2.5,0,1.5.2,1.5.6s0,.3-.2.5c-.2.3-.4.7-.5,1-.2.4-.6,1.2-1.4,2.3,0,0,0,.1,0,0,.4-.3.8-.5,1.3-.5.8,0,1.3.5,1.4,1.3.2.8.2,1.9.2,2.5ZM67.7,224.2c.6,0,.9,0,1.2.3.4.2.9.8.9,1.3s-.3.3-.9.5c-1.1.3-3,1-4,1.5-1.1.6-2,1.3-2,2s.5.8,1.6.8c1.8,0,2.5-.4,3-.4s1.1.1,1.1.6-.1.5-.6.7c-.6.2-1.7.3-2.7.3-2.3,0-3.1-.8-3.1-1.9s1.5-2.3,2.8-3c.9-.5,2.4-1.2,3.1-1.6.2-.1.2-.3,0-.4-.1-.2-.4-.3-.6-.4v-.2ZM78.8,225.2h0l.5-.5,1,.8c0,0-.2.1-.3.2v3.3c0,.1-.6.4-.9.4h-.2v-4.1ZM77.4,228.1h1.9v.3h-1.9v-.3ZM76.4,221.7h4.9v.3h-4.8v-.3ZM80.7,221.7h-.1l.7-.8,1.4,1.1c0,.1-.3.2-.6.3v8.1c0,.9-.2,1.5-1.9,1.6,0-.4-.1-.8-.4-1-.3-.2-.6-.4-1.3-.5v-.2s1.6.1,1.9.1.3,0,.3-.3v-8.6ZM76.7,223.6h1.9l.6-.9s.7.6,1.2,1c0,.1-.1.2-.3.2h-3.3v-.3ZM76.8,225.2v-.5l1.2.5h1.2v.3h-1.3v3.8c0,.1-.5.3-.9.3h-.2v-4.5ZM74.5,221.6c3.4.9,1.9,2.8,1,2-.2-.5-.6-1.3-1.1-1.9h.1ZM73.6,223.1h1.5c0,.3,0,.3-.3.4v1.2h-1.2v-1.6ZM72.7,226h2.8v.3h-2.8v-.3ZM72.7,227.6h2.8v.3h-2.8v-.3ZM74.4,228.6c3.3,1,2.3,3.4,1.1,2.5-.2-.8-.8-1.8-1.2-2.4h.1ZM71.3,230.4c.7-.1,2.5-.4,4.3-.8h0c-.7.6-1.7,1.2-3.2,2.1,0,.2-.2.3-.3.3l-.8-1.6ZM74.7,221.7c-.7,1.1-2,2.5-3.4,3.3h-.1c1-1.1,2-3,2.3-4.2l1.7.6c0,.1-.2.3-.5.3ZM72.3,224.5v-.5l1.2.5h2.1v.3h-2.1v5.6c0,.1-.5.4-1,.4h-.2v-6.3ZM75,224.5h0l.6-.6,1,.9c0,0-.2.2-.4.2v3.1s-.5.3-.9.3h-.2v-3.9ZM85.1,226.6c.1.1.3.3.6.3s.3,0,.5-.1c1.2-.5,2.5-1.4,4.1-1.4s2.8,1.2,2.8,2.4-.7,2-1.6,2.4c-1,.6-2.8.7-4.1.6v-.2c2.3-.3,4.4-1.2,4.4-3s-.5-1.6-1.5-1.6-2.5,1.3-3,1.7c-.5.4-.7.6-1.1.6s-1-.5-1.2-.9c0-.3,0-.5,0-.8h.1ZM96,223.2c.2.3.5.6.8.6.7,0,2.5-.5,4.6-1,1.3-.3,2.5-.6,2.9-.6s.7,0,1,.2c.3.1.6.4.6.7s-.2.5-.6.5-.7,0-1.1,0c-.5,0-1.3,0-1.9.5-.4.3-1.4,1.3-1.4,3.3s.6,1.8,1,2.1c.7.4,1.7.3,2,.3s.9.4.9.8-.6.7-1.1.7c-.9,0-1.8-.1-2.6-.6-.8-.5-1.4-1.3-1.4-2.9s.8-3.2,2.1-4.1c.1,0,0-.1,0-.1-1.4.3-3.1.9-3.8,1.3-.3.1-.5.4-.8.4-.6,0-1.4-.8-1.4-1.4,0-.3,0-.6,0-.8h.1ZM108.7,224.5c0-.7-.3-1.2-.9-1.7h0c.3-.2.8-.1,1.1,0,.6.3,1.3.9,1.3,1.5s-.6,1.3-.6,2.8.5,1.7.9,1.8c.2,0,.3,0,.5-.1.4-.6.8-1.3,1.2-2.1h.3c-.3,1-.5,2.1-.6,2.5,0,.7.2.7.2,1.1s-.6.8-1.3.5c-1-.4-2.1-1.5-2.2-3.4,0-.9,0-2,0-2.8ZM114.3,224v-.2c1.3,0,2,.5,2.7,1.2.7.7,1.1,1.7,1.1,2.6s-.3,1.2-.8,1.2-.5-.1-.6-.5c-.1-.5-.1-1.2-.5-2.2-.3-.9-.9-1.7-1.9-2.1ZM120,223.2c.2.3.5.6.8.6.7,0,2.5-.5,4.6-1,1.3-.3,2.5-.6,2.9-.6s.7,0,1,.2c.3.1.6.4.6.7s-.2.5-.6.5-.7,0-1.1,0c-.5,0-1.3,0-1.9.5-.4.3-1.4,1.3-1.4,3.3s.6,1.8,1,2.1c.7.4,1.7.3,2,.3s.9.4.9.8-.6.7-1.1.7c-.9,0-1.8-.1-2.6-.6-.8-.5-1.4-1.3-1.4-2.9s.8-3.2,2.1-4.1c.1,0,0-.1,0-.1-1.4.3-3.1.9-3.8,1.3-.3.1-.5.4-.8.4-.6,0-1.4-.8-1.4-1.4,0-.3,0-.6,0-.8h.1ZM46.2,245l1.9.2c0,.2-.1.3-.4.3v3.1h-1.4v-3.6ZM42.6,246.4h6.9l.7-1s.9.7,1.4,1.1c0,.1-.2.2-.3.2h-8.5v-.3ZM46.8,239.1h3.8l.6-.8s.7.6,1.2.9c0,.1-.2.2-.3.2h-5.2v-.3ZM46.8,243h3.9l.6-.8s.7.6,1.2,1c0,.1-.2.2-.3.2h-5.3v-.3ZM46.6,241.4h4.3l.6-.8s.7.6,1.2.9c0,.1-.2.2-.3.2h-5.7v-.3ZM41.4,248.4h9.1l.8-1s.9.7,1.4,1.1c0,.1-.2.2-.3.2h-10.8v-.3ZM43.2,242.3h2.6v.3h-2.6v-.3ZM42.7,238.6h3v.3h-3v-.3ZM42.7,240.5h3v.3h-3v-.3ZM43.2,244.2h2.7v.3h-2.7v-.3ZM45.2,242.3h-.1l.6-.6,1.2.9c0,0-.2.2-.4.2v2c0,0-.6.3-1,.3h-.2v-2.9ZM45.1,238.6h-.1l.6-.6,1.2.9c0,0-.2.2-.5.2v1.9c0,0-.6.3-1,.3h-.2v-2.8ZM42.6,242.3v-.5l1.4.5h-.2v2.9c0,0-.4.4-1,.4h-.2v-3.2ZM48.8,237.8h1.7c0,.3-.1.4-.4.5v1h-1.3v-1.5ZM48.8,241.4h1.3v3.8c0,0-.4.3-1.1.3h-.2v-4.1ZM42.1,238.6h0v-.5l1.4.5h-.2v1.7c0,1.4-.1,3.4-1.9,4.7h-.1c.8-1.5.8-3.3.8-4.7v-1.7ZM47.8,239.5c2.3.9.9,2.5.1,1.6,0-.5,0-1.2-.3-1.6h.1ZM50.1,239.5l1.7.4c0,.1-.2.3-.4.3-.3.4-.9,1-1.4,1.5h-.2c.1-.6.3-1.5.4-2.1ZM58.3,238.8l1.7.6c0,.1-.2.2-.4.2v8.1c0,0-.3.3-1.1.3h-.2v-9.1ZM63,237.9l1.4,1.2c-.1.1-.4.1-.8,0-1.2.3-3.1.5-4.7.6v-.2c1.4-.4,3.1-1.1,4-1.7ZM59.3,242.7h3.6l.6-1s.7.7,1.1,1.1c0,.1-.2.2-.3.2h-5v-.3ZM57.1,247.5c.9-.1,2.8-.6,4.7-1h0c-.8.7-2,1.4-3.7,2.3,0,.2-.2.3-.3.3l-.7-1.5ZM55.2,237.8l1.8.7c0,.1-.2.2-.5.2-.6.7-1.3,1.3-1.9,1.8h-.1c.3-.7.6-1.7.8-2.7ZM56.5,239.3l1.7.7c0,.1-.2.2-.5.2-.7,1-1.9,2.3-3.1,3.3h-.3c.8-1.2,1.7-2.9,2.1-4.2ZM53.4,243c.7,0,2.4,0,4.2-.2v.2c-.7.3-1.9.7-3.4,1.1,0,.2-.2.2-.3.3l-.4-1.4ZM53.6,239.7c3,.6,2,2.8.9,2-.1-.7-.6-1.4-1-1.9h.1ZM56.6,241.7c2.6,1.2,1.5,3.1.5,2.2,0-.7-.4-1.6-.7-2.2h.1ZM56.7,244.4c2.4,1.2,1.2,3,.3,2.1,0-.7-.2-1.5-.5-2.1h.1ZM55.2,243.4h1.3c0,0,0,5.4,0,5.4,0,0-.4.4-1,.4h-.2v-5.7ZM54,244.6l1.6.4c0,.2-.2.3-.4.3-.4,1.2-1,2.2-1.7,2.9h-.2c.3-1,.6-2.3.7-3.6ZM61,239.1h1.4c-.2,3,0,6.4,1.4,7.9.1.2.2.2.3,0,.2-.3.4-.8.6-1.3h.1s-.2,1.9-.2,1.9c.3.6.4,1,.1,1.3-.6.4-1.4,0-1.8-.6-1.7-2.2-1.9-5.7-1.8-9.2ZM69.4,238.6v-.2c1.3-.1,2.1.3,2.4.7.3.3.4.6.4.9s-.2.5-.5.5-.6-.1-.8-.2c-.4,0-1.3-.1-2-.1-.3,0-.5,0-.5.3s.7,1,1.2,1.7c.8,1.3,1.6,2.9,2,3.8.2.6.5,1.3.5,1.8s-.3.9-.7.9-.6-.2-.7-.7c-.1-.4-.2-1-.4-1.8-.2-.8-.6-2.1-1.4-3.4-.3-.5-.6-.9-.9-1.2-.3-.3-.6-.6-.5-1,0-.9.9-.8,1.3-.9.7,0,1.5-.1,1.7-.2.2,0,.2-.1.2-.3-.1-.3-.5-.6-1.2-.8ZM65.7,242.8c.2.3.4.5.7.5s.7-.2,1.1-.4c2.2-1.1,4.5-2.2,6.2-2.2s2.6,1,2.6,2.2-1.1,2.1-2.6,2.1-2-.7-2.7-1.8h.2c.7.5,1.4.8,2.3.8s1.7-.5,1.7-1.5-.7-1.3-1.5-1.3c-1.6,0-4.1,1.7-5.7,2.9-.4.3-.6.6-1,.6s-1-.4-1.3-.7c-.2-.3-.2-.5-.2-1.1h.2ZM82.9,241.9c4.2,1.4,3.3,4.3,1.9,3.3-.3-1.1-1.2-2.4-2-3.3h.1ZM86.5,240.1h-.1l.7-.8,1.4,1.1c0,0-.3.2-.5.2v6.7c0,1-.2,1.5-2,1.7,0-.5-.2-.8-.4-1-.3-.2-.6-.4-1.3-.5v-.2s1.6.1,2,.1.3,0,.3-.3v-7.1ZM78.2,240.1v-.6l1.5.6h7.4v.3h-7.5v8.1c0,.2-.6.5-1.2.5h-.2v-9ZM82.2,237.8h1.9c0,.3-.1.4-.4.5-.1,3.4-.2,5.8-3.9,7.4v-.2c2.3-1.9,2.4-4.3,2.4-7.7ZM96.1,237.9h1.8c0,.3-.1.4-.4.5v4.3h-1.4v-4.7ZM93.7,239.8h4.8l.7-1s.8.6,1.3,1.1c0,.1-.2.2-.3.2h-6.4v-.3ZM93.8,242.4h4.6l.7-1s.8.7,1.3,1.1c0,.1-.2.2-.3.2h-6.2v-.3ZM89.4,241.8c.5-.1,1.8-.4,3-.7h0c-.4.5-1.1,1.1-2,1.9,0,.2-.2.3-.3.3l-.7-1.5ZM92.1,237.9l1.8.2c0,.2-.1.3-.4.3v4.9c0,0-.6.3-1.1.3h-.2v-5.7ZM90.1,238.4c2.9.8,1.5,2.9.4,1.9,0-.6-.3-1.3-.5-1.8h.1ZM94.3,243.2h1.8c0,.3-.1.4-.4.5v.8h-1.4v-1.3ZM89.4,244.4h9.1l.7-1s.8.6,1.3,1.1c0,.1-.2.2-.3.2h-10.7v-.3ZM92.5,246l1.4-.7v2.4s-.4.2-1.1.2h-.3v-1.9ZM93.7,244.4h1.9v.2c-1.3,1.3-3.6,2.1-6.2,2.5v-.2c1.8-.6,3.4-1.5,4.3-2.5ZM90.8,247.6c1,0,3.3-.3,5.8-.6v.2c-1,.4-2.4.9-4.7,1.6,0,.2-.2.2-.3.3l-.8-1.5ZM95.4,244.3c.9,2,3,2.9,5.3,3.3h0c-.6.3-.9.7-1.1,1.4-2.2-.8-3.7-2.1-4.4-4.6h.2ZM98.4,244.7l1.4,1c0,.1-.2.2-.5,0-.7.3-1.7.5-2.6.6h-.1c.7-.6,1.4-1.3,1.8-1.7ZM110.6,240.7c-.2-.3-.5-.8-1.1-1.2v-.2c.8.2,1.4.4,1.7.7.3.2.3.4.3.7s-.2.4-.4.4-.4-.2-.6-.5ZM111.7,239.7c-.2-.3-.5-.6-1.1-1.1v-.2c.8.1,1.3.3,1.7.6.3.2.4.5.4.7s-.1.4-.4.4-.4-.2-.6-.5ZM104.3,246.5c.6.3,1.1.5,1.4.5s.6-.1.8-.4c.6-.7.9-2.4.9-3.6s-.2-1-.8-1-2.3.6-3,1c-.4.2-.6.3-1,.3s-.9-.6-1-1.1c0-.3,0-.6.1-.8h.2c.2.4.4.6.7.6.5,0,1.7-.3,2.9-.5.4,0,1-.2,1.4-.2,1,0,1.6.6,1.6,2.2s-.4,3.3-1.2,4.2c-.4.4-.9.7-1.6.7s-.6-.2-.8-.8c0-.2-.1-.3-.7-1v-.2ZM104.3,239.1v-.2c.3-.1.6-.3,1.1-.3s1.7.5,1.7.9-.3.5-.5.9c-.3.7-1.1,2.8-1.7,4-.6,1.2-1.3,2.7-1.7,3.5-.3.5-.5.6-.8.6s-.6-.3-.6-.7,0-.5.3-.8c.6-.7,1.2-1.7,1.8-2.9.9-1.8,1.5-3.8,1.5-4.3s0-.3-.2-.4c-.2-.1-.6-.2-.9-.3ZM109,241.4v-.2c.9,0,1.7.3,2.3.9.7.6,1,1.5,1,2.4s-.3,1.2-.8,1.2c-.4,0-.4-.4-.8-.5-.3,0-.9-.2-1.3-.2v-.2c.5-.1.9-.2,1.1-.3.3-.1.4-.3.4-.6,0-.3,0-.9-.4-1.4-.3-.5-.7-.9-1.4-1ZM51,256.8c-.2-.4-.4-.8-1-1.3h0c.6,0,1.2.3,1.5.7.2.2.3.4.3.7,0,.3-.2.4-.4.4s-.3-.2-.5-.5ZM52,256c-.2-.3-.5-.7-1.1-1.1h0c.7,0,1.2.2,1.5.5.3.2.4.5.4.7,0,.3-.1.4-.4.4-.2,0-.3-.2-.5-.5ZM46.1,256.4c.4.3.9.4,1.3.4s1.2,0,1.8-.2c.5-.1.7-.3.8-.3.4,0,.8.2.8.6s-.1.4-.3.4c-.7.2-1.9.4-2.5.4s-1.6-.3-2.1-1.2h.1ZM45.7,259c.5.4.9.6,1.6.6s1.2-.1,1.7-.2c.5-.1,1-.3,1.4-.4.3-.1.4-.2.5-.2.2,0,1,0,1,.6s0,.4-.5.6c-.6.3-1.5.4-2.2.5-.5,0-.9.1-1.4.1-.9,0-1.7-.3-2.1-1.4h.1ZM47.7,257.6l.5-.2c.4,0,1,.2,1.3.3.2.1.2.2.2.5-.1.5-.2,1.2-.2,1.9,0,1.7.3,2.9.3,3.9s-.7,1.7-2.2,1.7-2.1-.5-2.1-1.6,1.1-1.6,2.6-1.6,2.8.6,3.5,1.1c.4.3.6.6.6,1s-.2.6-.5.6-.5-.2-.7-.4c-1.3-1.2-2.2-1.6-3.4-1.6s-1.5.3-1.5.8.4.6,1.3.6,1.3-.4,1.3-1c0-1.5,0-2.9,0-3.6s0-1.4,0-1.8c0-.3-.5-.4-.7-.5ZM42,255.9h.1c.3,0,.7,0,1,.3.4.3,1,1,1,1.6s-.3.6-.6,1.4c-.3.6-.8,2-.8,3s0,.7.2.9c0,.2.2.2.3,0,.2-.3.9-1.7,1.2-2.3h.2c-.3.8-.6,1.9-.7,2.5,0,.4-.2.8-.2,1,0,.5.1.7.1,1s-.2.6-.6.6-.5,0-.8-.5c-.4-.6-.7-1.7-.7-3.1s.3-2.5.5-3.3c.1-.5.3-1,.3-1.5s-.3-1.2-.6-1.5ZM56.2,255.8c.2.4.5.8.8.8.4,0,2.4-.5,2.7-.6.3-.1.4-.3.5-.3.6,0,1.5.8,1.5,1.3s-.5.4-.7.6c-.6.3-2.7,2.3-3.1,2.7,0,0,0,.1,0,0,.7-.3,1.6-.6,2.3-.6,1.8,0,3.2,1,3.2,2.7s-1.7,3.3-6.4,3.1v-.2c3.3-.4,5-1.7,5-3.4s-.8-1.6-2-1.6-3.1,1.3-4.2,2.7c-.2.3-.4.5-.7.5s-.6-.3-.6-.9.6-.9,1.5-1.7c.8-.8,3.2-3.2,3.6-3.8.2-.3.2-.4-.1-.3-.4.1-1.3.5-1.8.8-.2,0-.4.3-.7.3-.5,0-1.2-.8-1.2-1.2,0-.3,0-.6.2-.9h.2ZM75,256.8c-.2-.4-.4-.8-1-1.3h0c.6,0,1.2.3,1.5.7.2.2.3.4.3.7,0,.3-.2.4-.4.4s-.3-.2-.5-.5ZM76,256c-.2-.3-.5-.7-1.1-1.1h0c.7,0,1.2.2,1.5.5.3.2.4.5.4.7,0,.3-.1.4-.4.4-.2,0-.3-.2-.5-.5ZM70.1,256.4c.4.3.9.4,1.3.4s1.2,0,1.8-.2c.5-.1.7-.3.8-.3.4,0,.8.2.8.6s-.1.4-.3.4c-.7.2-1.9.4-2.5.4s-1.6-.3-2.1-1.2h.1ZM69.7,259c.5.4.9.6,1.6.6s1.2-.1,1.7-.2c.5-.1,1-.3,1.4-.4.3-.1.4-.2.5-.2.2,0,1,0,1,.6s0,.4-.5.6c-.6.3-1.5.4-2.2.5-.5,0-.9.1-1.4.1-.9,0-1.7-.3-2.1-1.4h.1ZM71.7,257.6l.5-.2c.4,0,1,.2,1.3.3.2.1.2.2.2.5-.1.5-.2,1.2-.2,1.9,0,1.7.3,2.9.3,3.9s-.7,1.7-2.2,1.7-2.1-.5-2.1-1.6,1.1-1.6,2.6-1.6,2.8.6,3.5,1.1c.4.3.6.6.6,1s-.2.6-.5.6-.5-.2-.7-.4c-1.3-1.2-2.2-1.6-3.4-1.6s-1.5.3-1.5.8.4.6,1.3.6,1.3-.4,1.3-1c0-1.5,0-2.9,0-3.6s0-1.4,0-1.8c0-.3-.5-.4-.7-.5ZM66,255.9h.1c.3,0,.7,0,1,.3.4.3,1,1,1,1.6s-.3.6-.6,1.4c-.3.6-.8,2-.8,3s0,.7.2.9c0,.2.2.2.3,0,.2-.3.9-1.7,1.2-2.3h.2c-.3.8-.6,1.9-.7,2.5,0,.4-.2.8-.2,1,0,.5.1.7.1,1s-.2.6-.6.6-.5,0-.8-.5c-.4-.6-.7-1.7-.7-3.1s.3-2.5.5-3.3c.1-.5.3-1,.3-1.5s-.3-1.2-.6-1.5ZM80.2,255.8c.2.4.5.8.8.8.4,0,2.4-.5,2.7-.6.3-.1.4-.3.5-.3.6,0,1.5.8,1.5,1.3s-.5.4-.7.6c-.6.3-2.7,2.3-3.1,2.7,0,0,0,.1,0,0,.7-.3,1.6-.6,2.3-.6,1.8,0,3.2,1,3.2,2.7s-1.7,3.3-6.4,3.1v-.2c3.3-.4,5-1.7,5-3.4s-.8-1.6-2-1.6-3.1,1.3-4.2,2.7c-.2.3-.4.5-.7.5s-.6-.3-.6-.9.6-.9,1.5-1.7c.8-.8,3.2-3.2,3.6-3.8.2-.3.2-.4-.1-.3-.4.1-1.3.5-1.8.8-.2,0-.4.3-.7.3-.5,0-1.2-.8-1.2-1.2,0-.3,0-.6.2-.9h.2ZM98.2,260.4c.2.3.4.5.6.5s.4-.2.4-.4c0-.2,0-.4-.3-.7-.4-.3-.9-.6-1.6-.8v.2c.4.5.7.9.9,1.2ZM99.4,259.4c.2.3.4.5.6.5s.4-.2.4-.4-.1-.5-.4-.7c-.3-.3-.9-.4-1.6-.6v.2c.5.5.8.8,1,1.1ZM89.8,257.2c.2.3.5.6.8.6.7,0,2.5-.5,4.6-1,1.3-.3,2.5-.6,2.9-.6s.7,0,1,.2c.3.1.6.4.6.7s-.2.6-.6.6-.7,0-1.1,0c-.5,0-1.3,0-1.9.5-.4.3-1.4,1.3-1.4,3.3s.6,1.8,1,2.1c.7.4,1.7.3,2,.3s.9.4.9.8-.6.7-1.2.7c-.9,0-1.8-.1-2.6-.6-.8-.5-1.4-1.3-1.4-2.9s.8-3.2,2.1-4.1c0,0,0-.1,0-.1-1.4.3-3.1.9-3.8,1.3-.3.2-.5.4-.8.4-.6,0-1.4-.8-1.4-1.4,0-.3,0-.6.1-.7h.1ZM103.2,260.4c0-.4.3-.7.7-.7s.7.3.7.7-.3.7-.7.7-.7-.3-.7-.7ZM109.2,260.4c0-.4.3-.7.7-.7s.7.3.7.7-.3.7-.7.7-.7-.3-.7-.7Z"/>
  <g>
    <path class="cls-5" d="M357,236.1c.1,34.3-32.9,46.9-64.2,46.9s-60.6-12.5-60.8-46.8c-.1-18.9,11.1-32.2,27.1-39.6-1.3-6.5-2.1-12.7-1-13.5.8-.6,6.1,4.9,10.6,10,7.6-2.2,15.8-3.4,24.2-3.4,31.3,0,64.1,13.7,64.2,46.4Z"/>
    <path class="cls-7" d="M357,236.1h-.8s.8,0,.8,0ZM232,236.2h.8s0,0,0,0h-.8ZM259.1,196.6h.7c0-.1.1.4.1.4l-.5.2-.3-.7ZM258,183l-.5-.6h0l.5.6ZM268.6,193l.2.7h-.5c0,.1-.3-.2-.3-.2l.6-.5ZM292.8,282.2c15.6,0,31.5-3.1,43.5-10.5,12-7.3,20-18.8,19.9-35.7h1.5c0,17.5-8.3,29.4-20.7,37-12.3,7.5-28.5,10.7-44.3,10.7v-1.5ZM232.8,236.2c.1,16.9,7.3,28.4,18.4,35.6,11.1,7.3,26.1,10.4,41.6,10.4v1.5c-15.8,0-31.1-3.1-42.5-10.7-11.5-7.6-18.9-19.5-19-36.9h1.5ZM259.4,197.3c-15.8,7.3-26.7,20.4-26.6,38.9h-1.5c-.1-19.3,11.3-32.8,27.5-40.3l.6,1.4ZM258.3,196.7c-.6-3.3-1.2-6.5-1.4-9-.1-1.2-.2-2.3-.1-3.2,0-.4,0-.8.2-1.2,0-.3.3-.7.6-.9l.9,1.2s0,0,0,.2c0,.2-.1.5-.1.8,0,.7,0,1.7.1,3,.2,2.4.8,5.6,1.4,8.8l-1.5.3ZM257.6,182.5c.2-.2.5-.2.7-.2.2,0,.4,0,.5.2.3.1.6.4,1,.6.7.5,1.6,1.4,2.6,2.3,2,2,4.5,4.6,6.7,7.1l-1.1,1c-2.3-2.5-4.7-5.1-6.7-7.1-1-1-1.8-1.7-2.5-2.2-.3-.2-.6-.4-.7-.5,0,0,0,0,0,0,0,0,.2,0,.3-.1l-.9-1.2ZM292.8,190.4c-8.3,0-16.5,1.1-24,3.3l-.4-1.4c7.7-2.3,16-3.4,24.4-3.4v1.5ZM356.2,236.1c0-16.1-8.1-27.5-20-34.9-12-7.4-27.8-10.8-43.4-10.8v-1.5c15.8,0,31.9,3.4,44.2,11,12.3,7.6,20.7,19.5,20.8,36.1h-1.5Z"/>
  </g>
  <path class="cls-7" d="M247.4,223.7h9l.8-.9s.9.6,1.5,1.1c0,.1-.2.2-.3.2h-10.8v-.3ZM250.4,218.8h4.8l.8-.9s.9.6,1.4,1.1c0,.1-.2.2-.3.2h-6.7v-.3ZM250.5,220.4h4.4l.7-.9s.8.6,1.4,1c0,.1-.2.2-.3.2h-6.1v-.3ZM250.5,222.1h4.4l.7-.9s.8.6,1.4,1c0,.1-.2.2-.3.2h-6.1v-.3ZM247.9,227.6c1-.1,3.3-.5,5.7-1h0c-1,.7-2.4,1.3-4.6,2.2,0,.1-.2.3-.3.3l-.9-1.5ZM253,223.7c.8,2.5,3,3.4,5.7,3.8h0c-.6.3-.9.7-1.1,1.4-2.5-.8-4.1-2.1-4.8-5.1h.2ZM256.4,224l1.5,1.1c0,.1-.2.2-.5,0-.8.4-2,.9-3.1,1.2h-.1c.8-.8,1.8-1.8,2.3-2.4ZM249.8,223.7h1.4v3.8l-1.4.2v-4ZM249.8,218.8v-.6l1.6.6h-.2v5.1h-1.4v-5.1ZM260.7,221.5c0-.7-.3-1.2-.9-1.7h0c.3-.2.8-.1,1.1,0,.6.3,1.3.9,1.3,1.5s-.6,1.3-.6,2.8.5,1.7.9,1.8c.2,0,.3,0,.5-.1.4-.6.8-1.3,1.2-2.1h.3c-.3,1-.5,2.1-.6,2.5,0,.7.2.7.2,1.1s-.6.8-1.3.5c-1-.4-2.1-1.5-2.2-3.4,0-.9,0-2,0-2.8ZM266.3,221v-.2c1.3,0,2,.5,2.7,1.2.7.7,1.1,1.7,1.1,2.6s-.3,1.2-.8,1.2-.5-.1-.6-.5c-.1-.5-.1-1.2-.5-2.2-.3-.9-.9-1.7-1.9-2.1ZM274.6,223.5v-.5l1.3.5h2.6v.3h-2.6v3.7c0,.1-.6.4-1.1.4h-.2v-4.5ZM275.3,226.8h3.3v.3h-3.3v-.3ZM275.3,225.1h3.3v.3h-3.3v-.3ZM278,223.5h-.1l.6-.6,1.2.9c0,0-.2.2-.4.2v3.4c0,0-.6.4-1.1.4h-.2v-4.3ZM272,218.7v-.6l1.4.6h2.2v.3h-2.3v9.5c0,.2-.5.5-1.1.5h-.2v-10.3ZM277.4,218.7v-.5l1.4.5h2.4v.3h-2.4v3.2c0,.1-.6.4-1.1.4h-.2v-4ZM280.6,218.7h-.1l.6-.7,1.4,1.1c0,0-.3.2-.5.2v8.1c0,1-.2,1.5-1.7,1.6,0-.4,0-.8-.2-1-.2-.2-.4-.4-.9-.5v-.2s1,0,1.2,0,.2,0,.2-.2v-8.5ZM275.2,218.7h-.1l.6-.6,1.2.9c0,0-.2.2-.4.2v3.1c0,0-.6.3-1.1.3h-.2v-4ZM272.7,220.2h2.9v.3h-2.9v-.3ZM272.7,221.7h2.9v.3h-2.9v-.3ZM278.2,220.2h3v.3h-3v-.3ZM278.2,221.7h3v.3h-3v-.3ZM283.5,225.9c1.6.3,2.5.8,2.9,1.5.2.3.3.6.3.8,0,.5-.3.8-.8.8s-.6-.2-.8-.5c-.3-.7-.7-1.6-1.7-2.4v-.2ZM295.5,228.2h9l.8-1s.9.7,1.4,1.2c0,.1-.2.2-.3.2h-10.7v-.3ZM296.5,224.8h7.2l.7-1s.9.7,1.4,1.2c0,.1-.2.2-.3.2h-8.8v-.3ZM300.3,217.8l1.9.2c0,.1-.1.3-.4.3v1.5h-1.5v-1.9ZM296.8,218.6h.2c.7,1.6.3,2.7-.3,3.1-.4.3-1,.2-1.2-.3-.2-.4,0-.8.5-1,.5-.3.9-1,.9-1.9ZM304.7,219.5h-.1l.8-.8,1.3,1.3c0,.1-.2.1-.5.2-.5.4-1.5,1-2.2,1.3h-.1c.3-.6.6-1.5.8-2ZM300.3,224.8h1.5v3.7h-1.5v-3.7ZM296.9,219.5h8.8v.3h-8.8v-.3ZM301.6,219.6h1.4v2.5c0,.2,0,.2.4.2h.9c.3,0,.6,0,.8,0,.2,0,.2,0,.3-.1.1-.2.3-.6.5-1.2h.1v1.2c.4.2.5.3.5.6,0,.6-.5.8-2.4.8h-1.1c-1.2,0-1.4-.3-1.4-1.2v-2.8ZM298.9,219.7h1.7c-.3,2.5-1.7,4-5,4.7h0c2.4-1.1,3.2-2.6,3.4-4.7ZM309,219.8c.7.4,1,.6,1.8.6s1.9-.3,2.6-.5c1.1-.3,1.5-.7,1.6-.7.5,0,1,0,1,.5s0,.4-.3.5c-.7.5-2.9,1.2-4.6,1.2s-1.7-.3-2.2-1.4h.1ZM310.3,221.7c-.5.6-.3,1,.7,1s2.2-.2,3.4-.6c1.3-.4,1.6-.7,1.7-.7.5,0,1,0,1,.5s0,.4-.3.6c-1.1.7-3.5,1.4-5.8,1.4s-2.4-1.2-.9-2.2h.2ZM312.8,224.7c.9,0,1.7.1,2.2.3.2,0,.2,0,.1-.1-.3-.4-.8-1.1-1.3-2.1-.5-.9-1-2.2-1.4-3.2-.1-.3-.2-.4-.6-.5-.2,0-.5,0-.8-.1v-.2c.3-.3.7-.5,1.2-.5s1.1.1,1.2.6c0,.3.1,1,.3,1.5.3.9.5,1.4,1,2.2,1.1,1.9,2,2.2,2,2.8s-.3,1.1-.7,1.1-.6-.3-1.3-.7c-.4-.3-1.3-.6-2.3-.6s-1.9.5-1.9,1.2,1.2,1.1,2.2,1.1,1.2-.2,1.9-.2,1,.2,1,.6-1.2.8-2.5.8c-1.9,0-3.4-.7-3.4-2s1.1-2,3.3-2ZM321.2,221.2h5.7l.7-.9s.8.6,1.3,1.1c0,.1-.2.2-.3.2h-7.4v-.3ZM323.9,221.2h1.8v.2c-1.3,1.2-3.5,2.1-5.8,2.7v-.2c1.6-.7,3.1-1.8,4.1-2.7ZM323.7,222.3h.1c2.7,1.6,2.9,5.1,2,6.2-.3.4-.9.5-1.8.5,0-.4,0-.7-.3-.9-.2-.2-.5-.3-1-.4h0c.5,0,1.3,0,1.6,0s.3,0,.4-.1c.5-.7.4-3.5-1-5.2ZM324.2,222.7l.9,1.2c-1.3.9-3.4,1.8-5.3,2.2v-.2c1.6-.7,3.5-2.1,4.4-3.2ZM324.9,224.2l.9,1.3c-1.5,1.2-4,2.2-6.4,2.7v-.2c2.1-.7,4.4-2.2,5.6-3.8ZM325.8,221.2c.7,3,2.6,4.7,4.9,5.7h0c-.6.2-1.1.6-1.3,1.3-2-1.4-3.2-3.4-3.7-6.9h.2ZM328.6,221.8l1.6,1.1c0,.1-.2.2-.5.1-.8.5-2,1.1-3.1,1.5h-.1c.8-.9,1.7-2,2.1-2.7ZM320.9,219.4h8.5v.3h-8.5v-.3ZM324.2,217.8h1.9c0,.3-.1.4-.4.5v1.3h-1.5v-1.8ZM320.9,218.6h.2c.6,1.5.2,2.5-.4,2.9-.4.3-1,.2-1.2-.3-.1-.4.1-.8.5-1,.4-.3.9-.9.9-1.6ZM328.7,219.4h-.1l.7-.7,1.2,1.2c0,.1-.2.1-.5.1-.5.4-1.3.9-1.9,1.1h-.1c.2-.5.5-1.3.6-1.7ZM340.3,223.4c.2.3.4.5.6.5s.4-.2.4-.4c0-.2,0-.4-.3-.7-.4-.3-.9-.6-1.6-.8v.2c.4.5.7.9.9,1.2ZM341.4,222.4c.2.3.4.5.6.5s.4-.2.4-.4-.1-.5-.4-.7c-.3-.3-.9-.4-1.6-.6v.2c.5.5.8.8,1,1.1ZM331.8,220.2c.2.3.5.6.8.6.7,0,2.5-.5,4.6-1,1.3-.3,2.5-.6,2.9-.6s.7,0,1,.2c.3.1.6.4.6.7s-.2.6-.6.6-.7,0-1.1,0c-.5,0-1.3,0-1.9.5-.4.3-1.4,1.3-1.4,3.3s.6,1.8,1,2.1c.7.4,1.7.3,2,.3s.9.4.9.8-.6.7-1.2.7c-.9,0-1.8-.1-2.6-.6-.8-.5-1.4-1.3-1.4-2.9s.8-3.2,2.1-4.1c0,0,0-.1,0-.1-1.4.3-3.1.9-3.8,1.3-.3.2-.5.4-.8.4-.6,0-1.4-.8-1.4-1.4,0-.3,0-.6.1-.7h.1ZM267.2,238.2h5.7l.7-.9s.8.6,1.3,1.1c0,.1-.2.2-.3.2h-7.4v-.3ZM269.9,238.2h1.8v.2c-1.3,1.2-3.5,2.1-5.8,2.7v-.2c1.6-.7,3.1-1.8,4.1-2.7ZM269.7,239.3h.1c2.7,1.6,2.9,5.1,2,6.2-.3.4-.9.5-1.8.5,0-.4,0-.7-.3-.9-.2-.2-.5-.3-1-.4h0c.5,0,1.3,0,1.6,0s.3,0,.4-.1c.5-.7.4-3.5-1-5.2ZM270.2,239.7l.9,1.2c-1.3.9-3.4,1.8-5.3,2.2v-.2c1.6-.7,3.5-2.1,4.4-3.2ZM270.9,241.2l.9,1.3c-1.5,1.2-4,2.2-6.4,2.7v-.2c2.1-.7,4.4-2.2,5.6-3.8ZM271.8,238.2c.7,3,2.6,4.7,4.9,5.7h0c-.6.2-1.1.6-1.3,1.3-2-1.4-3.2-3.4-3.7-6.9h.2ZM274.6,238.8l1.6,1.1c0,.1-.2.2-.5.1-.8.5-2,1.1-3.1,1.5h-.1c.8-.9,1.7-2,2.1-2.7ZM266.9,236.4h8.5v.3h-8.5v-.3ZM270.2,234.8h1.9c0,.3-.1.4-.4.5v1.3h-1.5v-1.8ZM266.9,235.6h.2c.6,1.5.2,2.5-.4,2.9-.4.3-1,.2-1.2-.3-.1-.4.1-.8.5-1,.4-.3.9-.9.9-1.6ZM274.7,236.4h-.1l.7-.7,1.2,1.2c0,.1-.2.1-.5.1-.5.4-1.3.9-1.9,1.1h-.1c.2-.5.5-1.3.6-1.7ZM282.3,237.9h4.8l.6-1s.7.7,1.1,1.2c0,.1-.1.2-.3.2h-6.1v-.3ZM285.7,234.9l1.8.2c0,.2-.1.3-.4.3v9c0,1-.2,1.5-1.8,1.7,0-.5-.1-.8-.3-1-.2-.2-.5-.4-1.1-.5v-.2s1.3,0,1.6,0,.3,0,.3-.2v-9.4ZM285.4,237.9h1.6v.2c-.8,2.4-2.4,4.3-4.8,5.6h-.1c1.7-1.6,2.8-3.7,3.4-5.8ZM278.8,243l1.6.8c0,.1-.2.2-.4.2-.6.8-1.5,1.6-2.7,2.1h-.1c.7-.9,1.3-2.2,1.6-3.1ZM280.4,243.1c3.3.9,2,3.4.8,2.3,0-.8-.5-1.7-.9-2.3h.1ZM278,235.7v-.6l1.5.6h1.4l.7-.8,1.3,1c0,.1-.2.2-.5.2v6.6c0,0-.5.4-1.1.4h-.2v-7.1h-1.6v7c0,0-.4.4-1.1.4h-.2v-7.7ZM278.7,237.8h2.9v.3h-2.9v-.3ZM278.7,240h2.9v.3h-2.9v-.3ZM278.7,242.2h2.9v.3h-2.9v-.3ZM292.6,236.9h6l.7-1s.8.7,1.3,1.1c0,.1-.2.2-.3.2h-7.6v-.3ZM294.1,234.8c3,.5,1.7,2.7.5,1.8,0-.6-.3-1.3-.6-1.7h.1ZM297.9,238.3h-.1l.6-.7,1.3,1c0,0-.2.2-.4.2v4.8c0,0-.7.4-1.2.4h-.2v-5.7ZM294.4,239.8h4.2v.3h-4.2v-.3ZM294.4,241.3h4.2v.3h-4.2v-.3ZM294.4,242.9h4.2v.3h-4.2v-.3ZM297.3,234.8l2,.4c0,.1-.2.3-.4.3-.4.5-1.2,1.2-1.8,1.6h-.1c.2-.6.4-1.6.5-2.3ZM293.6,238.3v-.6l1.4.6h3.5v.3h-3.5v5c0,.1-.6.5-1.2.5h-.2v-5.8ZM292.2,243.6c.8.8,1.6.9,3.8.9s3.1,0,4.6,0h0c-.5.3-.9.7-.9,1.3h-3.7c-2.3,0-3.2-.3-4-2-.5.7-1.3,1.5-1.8,2,0,.2,0,.2-.2.3l-.8-1.6c.7-.2,2-.7,2.9-1.2v.2ZM292.2,240.6v3l-1.3.7v-3.9h-1.5v-.4c0,0,1.3,0,1.3,0l.7-.9,1.5,1.2c0,.1-.3.2-.6.3ZM289.9,235.2c3.6.6,2.4,3.3,1.1,2.3-.1-.8-.7-1.7-1.2-2.2h0ZM295.6,236.9h1.7c-.3.5-.9,1.2-1.3,1.7h-.5c0-.5,0-1.3,0-1.7ZM303.7,235.7v-.6l1.5.6h4.7v.3h-4.8v5.8c0,.1-.6.5-1.2.5h-.2v-6.6ZM309,235.7h-.1l.7-.7,1.4,1.1c0,0-.2.2-.5.3v5.4c0,0-.7.4-1.2.4h-.2v-6.4ZM304.2,237.5h5.5v.3h-5.5v-.3ZM304.2,239.3h5.5v.3h-5.5v-.3ZM304.2,241.1h5.5v.3h-5.5v-.3ZM301.4,242.7h9l.8-1s.9.7,1.5,1.2c0,.1-.2.2-.3.2h-10.8v-.3ZM308,243.6c6.4.7,3.9,3.3,2.7,2.2-.5-.6-1.4-1.4-2.8-2.1h0ZM305,243.3l1.7.9c-.1.1-.3.2-.7.1-1,.7-2.8,1.4-4.5,1.7h0c1.4-.8,2.9-2,3.6-2.8ZM317.2,235.7v-.2c.3,0,.5-.1.9-.1.8,0,1.6.7,1.6,1.2s-.2.4-.4.7c-.2.4-.4.8-.7,1.6-.4,1.1-1.1,3-1.1,4.3s.7,1.6,1.8,1.6,2.3-.9,2.3-2.1-.8-2.2-1.8-3v-.2c2.1.8,3.1,2,3.1,3.5s-1,2.8-3.4,2.8-2.7-1.1-2.7-2.6.5-3.5.7-4.6c.3-1.1.5-1.8.5-2.2,0-.3-.1-.4-.3-.5-.2,0-.4-.2-.5-.2ZM315.3,236.8c.3.4.6.7,1.2.9.9.3,1.8.3,2.4.3.6,0,.8.4.8.7s-.2.4-.6.5c-.4,0-1.1,0-1.5,0-.8,0-1.8.6-1.8,1.1s.6.7,1.6.8c.7,0,1.4,0,1.8,0,.4,0,.7.2.7.6s-.3.6-.8.6c-.5,0-1.2,0-1.9-.1-1.2-.3-1.9-1-1.9-1.8s.6-1.4,1.4-1.8c-.3,0-.5-.2-.8-.4-.4-.3-.6-.6-.7-1.4h.1ZM263,253.4c.4,0,1.5-.2,2.4-.5.5-.1.5-.4.8-.4.5,0,1.5.8,1.5,1.3s-.3.4-.5.5c-.9.6-2.9,2-4,3.1,0,0,0,0,0,0,.8-.2,2.2-.7,3.1-.9.9-.3,1.4-.5,2-.5s1.4.3,1.4.8-.2.5-.8.5-.7,0-1.2,0c-.7,0-1.9.2-2.6.7-.5.3-.9.9-.9,1.7s.6,1.2,1.5,1.3c.7.1,1.3,0,1.6,0,.3,0,.7.4.7.8s-.4.7-1.1.7-1.3,0-1.7-.2c-1.1-.3-1.9-1.1-1.9-2.3s.6-1.8,1.1-2.3c.1-.1.1-.2,0-.1-.7.2-1.6.6-2.1.9-.7.5-1,.8-1.4.8s-.8-.5-.8-.9.1-.5.4-.6c.3-.1.8-.2,1.1-.4.5-.3,1.2-.9,1.9-1.5.6-.5,1.7-1.7,2.2-2.5.2-.2,0-.3-.2-.2-.4.1-1.1.6-1.5.8-.3.2-.6.4-.9.4s-1.3-.7-1.2-1.4c0-.2.1-.6.2-.8h.1c.2.3.4.8.7.8ZM276.6,253.9c.4.4.9,1,.9,1.6s-.1,1.4-.4,2.1c-.5,1.5-1.9,3.7-3.3,3.7s-1.8-1.5-1.8-3,.5-2.5,1.8-3.6c1-.8,2.2-1.3,3.6-1.3,2.7,0,4.7,1.9,4.7,4.4s-1.6,4.2-5.6,4.4v-.2c3-.7,4.1-2.4,4.1-4.5s-1.4-3.6-3.4-3.6-2.3.5-3.1,1.4c-.7.8-1.1,1.6-1.1,2.6s.4,1.8.9,1.8,1.7-1.7,2.1-2.5c.3-.7.5-1.5.5-2.1s-.2-.9-.4-1.1h.5ZM287.5,253v-.2c.3-.2.6-.3,1.1-.3.8,0,1.6.3,1.6.8s-.2.4-.3.7c-.2.6-.3,1.9-.3,3.3s.3,2.6.3,3.8-.9,1.6-2.3,1.6-2.3-.6-2.3-1.6,1.2-1.6,2.8-1.6c2.3,0,3.8.9,4.3,1.2.4.3.7.6.7,1s-.2.6-.5.6-.4-.1-.7-.4c-1.1-1-2.4-1.8-4.3-1.8s-1.7.4-1.7.8.4.7,1.1.7c1.2,0,1.8-.3,1.8-1.4s0-2.5,0-3.8,0-2.4,0-2.8,0-.3-.3-.4c-.3-.1-.5-.2-.9-.3ZM284.8,254.1c.6.4,1.1.7,2.1.7,1.7,0,3.5-.4,4.2-.6.5-.2.7-.3.8-.3.3,0,1,.1,1,.6s-.2.5-.6.6c-.7.3-2.7.7-5.1.7s-2-.3-2.6-1.6h.1ZM286.5,256c-.5.8-.2,1.1.8,1.1s2.6-.2,3.6-.5c.5-.2.7-.3.8-.3.5,0,.9.1.9.5s-.2.5-.5.6c-.6.2-2.8.7-4.8.7s-2.6-1-1.1-2.2h.2ZM299.5,253v-.2c.3-.2.6-.3,1.1-.3.8,0,1.6.3,1.6.8s-.2.4-.3.7c-.2.6-.3,1.9-.3,3.3s.3,2.6.3,3.8-.9,1.6-2.3,1.6-2.3-.6-2.3-1.6,1.2-1.6,2.8-1.6c2.3,0,3.8.9,4.3,1.2.4.3.7.6.7,1s-.2.6-.5.6-.4-.1-.7-.4c-1.1-1-2.4-1.8-4.3-1.8s-1.7.4-1.7.8.4.7,1.1.7c1.2,0,1.8-.3,1.8-1.4s0-2.5,0-3.8,0-2.4,0-2.8,0-.3-.3-.4c-.3-.1-.5-.2-.9-.3ZM296.8,254.1c.6.4,1.1.7,2.1.7,1.7,0,3.5-.4,4.2-.6.5-.2.7-.3.8-.3.3,0,1,.1,1,.6s-.2.5-.6.6c-.7.3-2.7.7-5.1.7s-2-.3-2.6-1.6h.1ZM298.5,256c-.5.8-.2,1.1.8,1.1s2.6-.2,3.6-.5c.5-.2.7-.3.8-.3.5,0,.9.1.9.5s-.2.5-.5.6c-.6.2-2.8.7-4.8.7s-2.6-1-1.1-2.2h.2ZM316.3,257.4c.2.3.4.5.6.5s.4-.2.4-.4c0-.2,0-.4-.3-.7-.4-.3-.9-.6-1.6-.8v.2c.4.5.7.9.9,1.2ZM317.4,256.4c.2.3.4.5.6.5s.4-.2.4-.4-.1-.5-.4-.7c-.3-.3-.9-.4-1.6-.6v.2c.5.5.8.8,1,1.1ZM307.8,254.2c.2.3.5.6.8.6.7,0,2.5-.5,4.6-1,1.3-.3,2.5-.6,2.9-.6s.7,0,1,.2c.3.1.6.4.6.7s-.2.6-.6.6-.7,0-1.1,0c-.5,0-1.3,0-1.9.5-.4.3-1.4,1.3-1.4,3.3s.6,1.8,1,2.1c.7.4,1.7.3,2,.3s.9.4.9.8-.6.7-1.2.7c-.9,0-1.8-.1-2.6-.6-.8-.5-1.4-1.3-1.4-2.9s.8-3.2,2.1-4.1c0,0,0-.1,0-.1-1.4.3-3.1.9-3.8,1.3-.3.2-.5.4-.8.4-.6,0-1.4-.8-1.4-1.4,0-.3,0-.6.1-.7h.1ZM321.3,257.4c0-.4.3-.7.7-.7s.7.3.7.7-.3.7-.7.7-.7-.3-.7-.7ZM327.3,257.4c0-.4.3-.7.7-.7s.7.3.7.7-.3.7-.7.7-.7-.3-.7-.7Z"/>
</svg>