<?xml version="1.0" encoding="UTF-8"?>
<svg xmlns="http://www.w3.org/2000/svg" xmlns:xlink="http://www.w3.org/1999/xlink" version="1.1" viewBox="0 0 375 374">
  <defs>
    <style>
      .cls-1 {
        fill: #333;
      }

      .cls-1, .cls-2, .cls-3, .cls-4, .cls-5, .cls-6 {
        stroke-width: 0px;
      }

      .cls-7 {
        clip-path: url(#clippath);
      }

      .cls-2 {
        fill: none;
      }

      .cls-8 {
        mix-blend-mode: multiply;
        opacity: 0;
      }

      .cls-3 {
        fill: #1c5db4;
      }

      .cls-9 {
        clip-path: url(#clippath-1);
      }

      .cls-10 {
        clip-path: url(#clippath-3);
      }

      .cls-11 {
        clip-path: url(#clippath-2);
      }

      .cls-12 {
        isolation: isolate;
      }

      .cls-4 {
        fill: #7a9ed5;
      }

      .cls-5 {
        fill: #fff;
      }

      .cls-6 {
        fill: #142c4d;
      }
    </style>
    <clipPath id="clippath">
      <rect class="cls-2" x="11" y="38" width="93.8" height="100"/>
    </clipPath>
    <clipPath id="clippath-1">
      <rect class="cls-2" x="14.1" y="38" width="87.5" height="189.1"/>
    </clipPath>
    <clipPath id="clippath-2">
      <rect class="cls-2" x="271" y="244" width="93.8" height="100"/>
    </clipPath>
    <clipPath id="clippath-3">
      <rect class="cls-2" x="271" y="244" width="87.5" height="180.2"/>
    </clipPath>
  </defs>
  <g class="cls-12">
    <g id="Layer_1" data-name="Layer 1">
      <g class="cls-7">
        <g class="cls-9">
          <g>
            <path class="cls-5" d="M101.6,147.4c0-3.2-.2-6.4-.3-9.7v-3.6c0-.1,0-.2,0-.3l-.2-.7c.3,0,.4-.3.4-.7-.3-3.6-.4-7.2-.8-10.8-.2-2-.5-4.1-1-6.1-.4-1.8-.9-3.6-1.6-5.3-1.6-3.5-4.1-6.5-7.4-8.6-3-1.9-6.5-3.2-9.9-4.3-3.5-1.1-7.2-2-10.7-3.3-.2,0-.3,0-.5,0-1.5-.6-3-1.4-4.1-2.6-.8-.9-1.3-1.9-1.9-2.9,0,0,0,0,0,0,.5-.2,1-.6,1.5-1,1.1-1.1,1.6-3,1.9-4.4.5-2.3.6-4.7.5-7,0-2.6-.6-5.2-1.2-7.7-.7-3.1-1.7-6.2-2.9-9.1-.1-.3-.3-.7-.4-1,1-2.6,1.2-5.5,0-6.7-.6-.9-2.6-2.1-3-2.9-.9-1.7.1-4.4-2.9-6,0-.1-5.1-3.3-5.3-3.4-1.2-.5-2.6-.7-3.9-1-2.4-.7-3.6,2-5.6,2.4-1,.2-2.1.1-3.1.2-3.1.3-7,2.4-8.8,4.9-1.7,2.3.1,3.5.1,3.6-.6,1.2-4.5,2.7-5,7.7,0,1,2.2,2.4,2.1,2.7-.4,1.3-2,3.6-.5,5,.6.5,2.3.8,2.5,1.6.2.7-.5,1.8-.1,2.7.5,1.4,1.8,2.3,2.5,3.6-.3.7-.3,1.7,0,2.5.4,1.8,1.5,3.7,3.3,4.5.9.4,2,.3,2.8-.2.9,1.4,1.7,3,2.3,4.5.8,2.1,1.5,4.5,1.1,6.8-.2,1.1-.7,2.1-1.4,3,0,0-.1,0-.2,0-6.2,2.7-12.6,5.4-17.8,9.8-2.5,2.2-4.7,4.8-6.1,7.8-1.5,3.4-1.8,7.2-1.8,10.9,0,2.5.2,5.1.4,7.6.1,1.7.2,3.4.2,5.1,0,.4.3.7.6.7v1.5c0,.1,0,.2,0,.4.1,1,.3,1.9.4,2.9.6,4.8.9,9.7,2.1,14.5.7,2.9,1.7,5.7,3.1,8.3,1.2,2.3,2.8,4.5,4.7,6.1,0,0,0,.1,0,.2-.6,7.7-1.3,15.4-2.1,23.1-.2,1.6-.3,3.2-.5,4.8,0,.2.1.4.3.6,0,0,.2.1.3.1,0,0,.1,0,.2,0,0,.3,0,.6,0,.8-.7,8.1-1.1,16.2-1.1,24.3,0,1,0,2.4,0,3.8h66.9c-.7-6.9-1.3-13.8-1.6-20.7-.1-2-.2-4.1-.3-6.1,0-.1,0-.3,0-.6.6-.1,1.1-.3,1.7-.4,0,0,.1,0,.2,0,.2,0,.4-.3.4-.6-.3-4.7-.9-9.4-1.7-14.1-.3-1.6-.6-3.1-.8-4.7-.2-1.2-.5-2.6-.6-3.7-.1-1.2-.2-2.3-.2-3.5.3,0,.6,0,.8,0,2,0,4,0,5.9-.3,1.2-.2,2.4-.5,3.5-1.2,1.4-.9,2.1-2.4,2.6-3.9,1.1-3.2,1.5-6.6,1.9-9.9.4-3.3.7-6.6.6-9.9h0Z"/>
            <path class="cls-6" d="M62.7,58.8c1.2-2.7,1.6-6.1.3-7.4-.6-.9-2.6-2.1-3-2.9-.9-1.7.1-4.4-2.9-6,0-.1-5.1-3.3-5.3-3.4-1.2-.5-2.6-.7-3.9-1-2.4-.7-3.6,2-5.6,2.4-1,.2-2.1.1-3.2.2-3.1.3-7,2.4-8.8,4.9-1.7,2.3.1,3.5.1,3.6-.6,1.2-4.5,2.7-5,7.7,0,1,2.2,2.4,2.1,2.7-.4,1.3-2,3.6-.5,5,.6.5,2.3.8,2.5,1.6.2.7-.5,1.8-.1,2.7.6,1.7,2.3,2.6,2.8,4.4l2-1.6c.8,2.3,2.9,3.9,3.5,1.4.3-1.3-1-2.9-.8-3.4.3-.8,2.7-1.6,2.3-2.7-.1-.4-1.3-1.2-1.2-1.5.5-1.3,2.3-2.8,2.3-4.3s-1.9-1-.5-3.2c1.6-2.6,7-4.3,9.8-4.9,1.6-.3,1.7-2.3,3-2.9,1.4-.7,1.6,1.4,2.5,1.6,1.3.3,2.5-3,4.4,1.2l2.9,5.7Z"/>
            <path class="cls-4" d="M101.5,132.4c-.3-3.6-.4-7.2-.8-10.8-.2-2-.5-4.1-1-6.1-.4-1.8-.9-3.6-1.6-5.3-1.6-3.5-4.1-6.5-7.4-8.6-3-1.9-6.5-3.2-9.9-4.3-3.5-1.1-7.2-2-10.7-3.3-.3,0-.5,0-.6,0-.1,0-.2.2-.3.4-.4,2.1-1.5,4.1-3.2,5.5-1.9,1.6-4.3,2.5-6.7,2.8-.4,0-.7.3-.7.7s.1.4.3.6c0,1.2,0,4.3-.2,5.6-.2,1.6-2.5,3.9-4.1,6.1-1.6,2.2-4.7,13.7-5.7,16.1-1,2.4-5.7,21-5.7,21l11.2,2.2s9.2,1.8,15.9,1.2c6.7-.6,12.9-3.7,12.9-3.7l-.6-7.3.9-12.7s0,0,0,0c5-.7,10-.4,15,.2.5,0,1.1.1,1.6.2.4.4,1.3.2,1.2-.5h0Z"/>
            <path class="cls-4" d="M46.5,101.3c-2.6-.9-4.6-3.2-5.5-5.8,0-.2-.2-.4-.4-.5,0,0,0,0,0,0,.4-.2.4-.7.3-1-.2-.4-.6-.4-1-.3-6.2,2.7-12.6,5.4-17.8,9.8-2.5,2.2-4.7,4.8-6.1,7.8-1.5,3.4-1.8,7.2-1.8,10.9,0,4.2.6,8.4.6,12.6,0,.8,1,.9,1.4.4.1,0,.3,0,.4-.2,1.8-1.5,4.1-2.5,6.3-3.1,1.5-.4,3.1-.7,4.7-.8,1.1,0,2,.1,2.9.2,1.3.2,2.5.6,3.5,1.3.7.5,1.4-.6.9-1.2.9-.6,2.6-2,3.7-4.1,1.6-2.9,6.3-10.4,6.3-13.1s2.2-12,2.2-12c0,0,0,0,0,0,.2-.4,0-.9-.4-1.1h0Z"/>
            <path class="cls-6" d="M34,71.2c-2,.2-2.4,2.3-2,4,.4,1.8,1.5,3.7,3.3,4.5,1,.5,2.1.3,3.1-.3.6-.4,0-1.4-.6-1-2.6,1.8-5.1-2.7-4.7-4.9.1-.6.4-1,.9-1,.7,0,.8-1.3,0-1.2Z"/>
            <path class="cls-6" d="M37.1,77.8c1.3,1.9,2.5,4,3.3,6.1.8,2.1,1.5,4.5,1.1,6.8-.2,1.2-.8,2.4-1.7,3.3-.5.5.3,1.4.8.8,3.8-3.9,1.8-9.9-.4-14.1-.6-1.2-1.3-2.4-2.1-3.5-.4-.6-1.4,0-1,.6h0Z"/>
            <path class="cls-6" d="M60.4,102.8c1.9-.4,2.5-2.9,2.4-4.5,0-.8-.2-1.7-.9-2.2-.8-.7-2.2-.8-3.2-.8-1.4,0-2.7,0-4.1,0-.8,0-.8,1.2,0,1.2,1.3,0,2.6-.1,3.9,0,.8,0,2.4,0,2.8.8.4.8.3,1.8,0,2.6-.2.7-.6,1.7-1.4,1.8-.7.1-.4,1.3.3,1.1h0Z"/>
            <path class="cls-6" d="M58.8,100.9c-.2,1.4-.2,2.8-.2,4.2,0,1.3-.4,2.5-.8,3.8-.4,1.2-.9,2.4-1.7,3.5-.3.5-.7.9-1,1.3-.4.6-.7,1.2-1,1.8-1.1,2.6-2.2,5.2-3.2,7.8-1,2.6-1.8,5.2-2.5,7.8-1.3,4.8-2.3,9.8-3.7,14.6-1.3,4.5-3.1,8.8-5.4,12.8-1,1.8-2,3.5-3.2,5.2-1.1,1.6-2.3,3.3-3.9,4.5-.6.4,0,1.4.6,1,1.5-1,2.6-2.5,3.7-3.9,1.1-1.6,2.2-3.2,3.1-4.9,2.2-3.8,4.1-7.8,5.5-12,1.6-4.9,2.7-9.9,3.9-14.8.7-2.6,1.4-5.1,2.2-7.7.9-2.8,2.1-5.5,3.2-8.1.6-1.4,1.1-2.7,2-3.9.9-1.2,1.6-2.4,2.1-3.7.5-1.3,1-2.7,1.1-4.1.2-1.6,0-3.2.2-4.8.1-.7-1-1.1-1.1-.3h0Z"/>
            <path class="cls-6" d="M62.2,95.2c0-1.3-.7-2.6-2-2.9-.7-.2-1.4,0-2.1-.1-.6,0-1.2-.2-1.8-.2-2.4-.2-5.2-.2-7,1.6-2,2-2.6,5-2.9,7.7-.3,3.2-.6,6.4-1.3,9.6-.6,2.6-1.5,5.2-2.6,7.6-.9,1.9-1.8,3.9-2.9,5.7-2.8,4.6-6,9.1-9.7,13-2.3,2.4-4.8,4.5-7,6.9-.3.3-.5.5-.8.8-.5.6.3,1.4.8.8,2-2.3,4.4-4.3,6.6-6.4,3.3-3.3,6.2-7.1,8.9-11,1.4-2.1,2.7-4.2,3.8-6.4.9-1.9,1.9-3.7,2.6-5.7,1.2-3.2,1.9-6.5,2.3-9.8.2-1.5.3-3,.4-4.4,0-1.3.2-2.7.6-3.9.4-1.3,1-2.6,1.9-3.6.8-.9,1.9-1.3,3.1-1.4,1.2-.2,2.4,0,3.6,0,.6,0,1.2.2,1.7.2.6,0,1.5-.1,1.9.3.4.3.6,1,.6,1.5,0,.8,1.2.8,1.2,0h0Z"/>
            <path class="cls-6" d="M49.9,94.2c.8-1.7,1.4-3.5,2.4-5.1.2-.4.5-.7.8-1,.2-.2.4-.4.6-.4.9,0,1.7,1,2.2,1.6.7.9,1.2,2,1.5,3.1.2.7,1.3.4,1.1-.3-.3-1.1-.8-2.2-1.5-3.1-.7-1-1.5-2-2.7-2.3-1-.3-1.8.2-2.4.9-.7.9-1.3,2-1.7,3-.5,1-.9,2.1-1.3,3.1-.3.7.7,1.3,1,.6h0Z"/>
            <path class="cls-6" d="M54.7,91.9c0,0-.1,0-.2,0,0,0,0,0,0,0,0,0,0,0,0,0,0,0,.1.1.2.2.2.2.5.4.8.6.3.1.6-.1.7-.4,0-.3-.1-.6-.4-.7,0,0,0,0,0,0,0,0-.1-.1-.2-.2-.2-.2-.3-.3-.5-.4-.4-.3-.9-.2-1.3,0-.2.2-.2.6,0,.8.2.2.6.2.8,0h0Z"/>
            <path class="cls-6" d="M45.8,87.6c1.5,1.2,3.3,1.6,5.1,2,.7.1,1.1-1,.3-1.1-1.6-.3-3.3-.6-4.6-1.7-.6-.5-1.4.4-.8.8Z"/>
            <path class="cls-6" d="M62.3,59.4c1,2.5,1.9,5.1,2.5,7.7.6,2.4,1.2,5,1.4,7.5.2,2.3.1,4.6-.2,6.8-.2,1.6-.6,3.5-1.5,4.8-.5.7-1.3,1.1-2.2,1.4-1.2.4-2.4.5-3.7.8-.7.2-.4,1.3.3,1.1,2-.5,4.5-.5,6-2.1,1.1-1.1,1.6-3,1.9-4.4.5-2.3.6-4.7.5-7,0-2.6-.6-5.2-1.2-7.7-.7-3.1-1.7-6.2-2.9-9.1-.3-.7-1.4-.4-1.1.3h0Z"/>
            <path class="cls-6" d="M59.3,53.5c1.1,1.9,2.1,3.9,3,6,.3.7,1.4.4,1.1-.3-.9-2.2-1.9-4.3-3.1-6.3-.4-.7-1.4,0-1,.6Z"/>
            <path class="cls-6" d="M62.6,89c.7,1.1,1.3,2.3,2.2,3.2,1.4,1.4,3.1,2.4,5,3,.7.3,1-.9.3-1.1-1.7-.6-3.3-1.5-4.5-2.8-.8-.9-1.3-1.9-1.9-2.9-.4-.6-1.4,0-1,.6h0Z"/>
            <path class="cls-6" d="M15.4,137.6c.8,5.8,1.1,11.7,2.4,17.4.7,2.9,1.7,5.7,3.1,8.3,1.2,2.3,2.8,4.5,4.7,6.1.8.7,1.7,1.2,2.8,1.3,1.6.2,3-.5,4.3-1.4.6-.4,0-1.5-.6-1-1,.7-2.3,1.4-3.6,1.3-.8,0-1.5-.5-2.1-1-.3-.2-.5-.4-.8-.6-.5-.4-.9-.9-1.3-1.4-.9-1.2-1.8-2.4-2.5-3.7-2.7-4.9-3.7-10.6-4.4-16.1-.4-3.1-.7-6.3-1.1-9.4-.1-.7-1.2-.4-1.1.3h0Z"/>
            <path class="cls-6" d="M83.1,126.5c-.2,6.8-.9,13.6-.7,20.4,0,1.9.2,3.8.4,5.6,0,.3.2.6.6.6.3,0,.6-.3.6-.6-.9-6.7-.4-13.6,0-20.3,0-1.9.2-3.8.2-5.7,0-.8-1.2-.8-1.2,0Z"/>
            <path class="cls-6" d="M100.1,134.1c0,3.7.1,7.5.3,11.2,0,2.7,0,5.4-.2,8.2-.3,3.8-.7,7.7-1.7,11.5-.3,1-.6,2.1-1,3.1-.2.4-.4.7-.6,1.1,0,0,0,.1-.1.2,0,0,0,0,0,.1-.1.1-.2.2-.3.3,0,0-.2.2-.3.3,0,0,0,0,0,0,0,0-.1,0-.2.1-.4.2-.8.4-1.2.5-1.6.6-3.4.7-5.1.8-4.6.1-9.3-.6-13.9-1-4.7-.5-9.4-1-14.1-1.7-7.2-1.1-14.5-2.5-21.4-5.2-.8-.3-1.5-.6-2.3-.9-.7-.3-1.3.7-.6,1,6.8,3,14.2,4.6,21.5,5.8,4.9.8,9.9,1.5,14.9,1.9,4.5.4,8.9,1.1,13.4,1.2,2,0,4,0,5.9-.3,1.2-.2,2.4-.5,3.5-1.2,1.4-.9,2.1-2.4,2.6-3.9,1.1-3.2,1.5-6.6,1.9-9.9.4-3.3.7-6.6.6-9.9,0-3.2-.2-6.4-.3-9.7,0-1.2,0-2.4,0-3.6,0-.8-1.2-.8-1.2,0h0Z"/>
            <path class="cls-6" d="M33.4,123.9v8c0,.8,1.2.8,1.2,0v-8c0-.8-1.2-.8-1.2,0Z"/>
            <path class="cls-6" d="M62.4,59.6c-1.1,0-2,.3-2.6,1.2-.4.6-1.3,0-.9-.6.9-1.2,2.1-1.7,3.6-1.6.7,0,.6,1.1-.1,1.1h0Z"/>
            <path class="cls-6" d="M52.4,62.7c-.5-.2-1-.2-1.5-.1-.6,0-1.2.1-1.7.3-1.2.4-2.3,1.1-3.1,2.1-.4.6-1.3,0-.9-.6.9-1.2,2.2-2.1,3.6-2.5.7-.2,1.3-.3,2-.3.7,0,1.3,0,2,.2.7.2.3,1.2-.4,1h0Z"/>
            <path class="cls-6" d="M62.1,63.2c.4.7,1,1.6.5,2.4-.4.6-1.2,0-.9-.6,0-.1-.2-.5-.2-.6-.1-.2-.3-.5-.4-.7-.3-.6.7-1.1,1-.5h0Z"/>
            <path class="cls-6" d="M58.2,65.4c.7,1.1,1.6,2.2,2.4,3.2.3.4.7.8,1,1.1.3.3.6.7.6,1.2,0,.7-.9,1.1-1.4,1.4-.6.3-1.3.6-2,.9-.6.3-1.1-.6-.5-1,.5-.3,1.1-.5,1.7-.8.3-.1.6-.3.9-.5,0,0,.2-.2.2-.2.2,0-.2,0,0,0,0,0,0-.1,0-.2-1.3-1.6-2.7-3.1-3.8-4.9-.4-.6.6-1,1-.5h0Z"/>
            <path class="cls-6" d="M50.8,66.1c.3.2.5.5.6.8.1.3.2.6.3.9.3.6-.7,1.1-1,.5-.2-.4-.2-1-.6-1.3-.5-.4,0-1.3.6-.9Z"/>
            <path class="cls-6" d="M63,77.5c-1.6.8-3.3,1.1-5.1,1.2-1.7,0-3.5-.1-5.1-1-.6-.4,0-1.2.6-.9,1.3.8,3,.9,4.5.8,1.6,0,3.1-.4,4.5-1.1.6-.3,1.1.7.5,1h0Z"/>
            <path class="cls-6" d="M60,80.9c-1.4,0-2.9.2-4.3,0-.7,0-.6-1.2.1-1.1,1.3.2,2.7.1,4,0,.7,0,.9,1,.2,1.1h0Z"/>
          </g>
        </g>
      </g>
      <g>
        <image class="cls-8" width="309" height="154" transform="translate(85 12)" xlink:href="customervoice_sp-1.png"/>
        <g>
          <image class="cls-8" width="281" height="128" transform="translate(89 25)" xlink:href="customervoice_sp-2.png"/>
          <g>
            <path class="cls-5" d="M114.8,70c0-16.6,13.4-30,30-30h190c16.6,0,30,13.4,30,30v38c0,16.6-13.4,30-30,30H114.8v-68Z" shape-rendering="crispEdges"/>
            <path class="cls-1" d="M135.8,59.8h5.6v.9h-5.6v-.9ZM138.1,60.1h1.1v3.2h-1.1v-3.2ZM135.5,63.3c1.5-.2,3.8-.6,6-.9v.9c-2,.4-4.2.7-5.8,1l-.2-1ZM142.4,59.7h1.1v1.6c0,1.3-.5,2.8-2.8,3.7-.1-.2-.6-.7-.8-.8,2.1-.8,2.5-1.9,2.5-2.9v-1.6ZM146.9,59.7h1.2v3.2c0,.3,0,.5,0,.5,0,0,.1,0,.3,0h.4c.1,0,.3,0,.3,0,0,0,.1-.1.2-.3,0-.2,0-.7,0-1.3.2.2.6.4.8.4,0,.6,0,1.3-.2,1.5,0,.3-.2.4-.4.5-.2,0-.5.1-.7.1h-.7c-.3,0-.7,0-.9-.3-.2-.2-.3-.5-.3-1.3v-3.2ZM135.6,65.4h14.3v1h-14.3v-1ZM142.1,64.2h1.2v6.1h-1.2v-6.1ZM141.7,65.9l.9.4c-1.5,1.6-4.2,2.9-6.6,3.5-.2-.3-.5-.7-.8-1,2.4-.5,5.1-1.6,6.4-3ZM143.7,66c1.4,1.3,4.1,2.4,6.5,2.8-.3.2-.6.7-.8,1-2.4-.6-5.1-1.9-6.6-3.4l.9-.4ZM137.4,56.8h5.2v1h-5.2v-1ZM143.6,56.8h6.5v1h-6.5v-1ZM137.7,55.5l1.1.3c-.6,1.4-1.5,2.8-2.5,3.7-.2-.2-.7-.5-1-.7.9-.8,1.8-2,2.3-3.3ZM144,55.5l1.1.3c-.6,1.4-1.6,2.8-2.6,3.6-.2-.2-.8-.5-1-.6,1.1-.8,2-2,2.5-3.3ZM138.3,57.6l.9-.3c.4.5.8,1.3.9,1.8l-1,.3c-.1-.5-.5-1.2-.9-1.8ZM145,57.6l1-.3c.5.5,1,1.3,1.3,1.8l-1,.4c-.2-.5-.7-1.3-1.2-1.9ZM143.7,61.9l.7-.6c.8.5,1.8,1.2,2.2,1.6l-.7.7c-.5-.5-1.4-1.2-2.2-1.7ZM142.8,59.7h4.7v.9h-4.7v-.9ZM156.6,55.5l1.2.3c-.9,2.4-2.3,4.6-3.8,6-.2-.2-.7-.6-1-.8,1.5-1.3,2.8-3.4,3.6-5.6ZM156.3,57.5h10.3v1.2h-10.9l.6-1.2ZM155.5,61.1h10.8v1.1h-9.6v3.8h-1.2v-4.9ZM152.9,65.4h14.5v1.2h-14.5v-1.2ZM160.3,58.1h1.2v12.2h-1.2v-12.2ZM170.1,64.1h7.9v1h-7.9v-1ZM170.2,58.5h7.7v1h-7.7v-1ZM173.1,62.7l1.1.2c-.7,1.6-1.7,3.5-2.5,4.8l-1.1-.4c.7-1.2,1.7-3.2,2.4-4.7ZM175.5,64.7h1.1c-.5,3.3-2.2,4.8-5.9,5.6,0-.3-.3-.8-.5-1,3.3-.6,4.8-1.9,5.3-4.6ZM176.5,55.9l1,.4c-.5.7-1,1.5-1.4,2.1l-.8-.4c.4-.6.9-1.5,1.2-2.1ZM173.5,55.6h1.1v7.4h-1.1v-7.4ZM170.8,56.3l.9-.4c.4.6.9,1.5,1,2.1l-.9.4c-.1-.6-.6-1.5-1-2.1ZM173.5,59l.8.5c-.8,1.3-2.3,2.8-3.7,3.5-.1-.3-.4-.7-.7-.9,1.3-.6,2.8-1.9,3.5-3.1ZM174.5,59.5c.6.3,2.5,1.5,3,1.9l-.7.9c-.6-.5-2.2-1.8-2.9-2.2l.6-.5ZM179.1,58.5h5.7v1.1h-5.7v-1.1ZM179.5,55.6l1.2.2c-.5,3.1-1.5,6-2.9,7.9-.2-.2-.7-.6-1-.8,1.4-1.7,2.2-4.4,2.6-7.2ZM182.7,59.2h1.2c-.8,5.6-2.5,9.1-6.5,11.2-.1-.3-.5-.8-.7-1.1,3.8-1.8,5.3-5,6-10.1ZM179.8,59.5c.7,4.4,2.2,8.2,5.2,9.7-.3.2-.7.7-.8,1-3.1-1.8-4.7-5.7-5.5-10.6l1.1-.2ZM171.7,67.2l.6-.8c1.9.7,3.9,1.8,5.1,2.7l-.8.9c-1.1-.9-3-2-4.9-2.7ZM193.7,56.6c0,.3-.1.6-.2.9-.1.6-.3,1.9-.5,2.9-.5,2.3-1.7,6.2-3.5,9.2l-1.3-.5c1.8-2.4,3.1-6.7,3.5-8.7.3-1.3.5-2.7.5-4l1.5.2ZM199.2,58.4c1,1.3,2.4,4.2,2.9,5.7l-1.2.6c-.5-1.6-1.7-4.4-2.8-5.7l1.2-.5ZM187.9,60.1c.5,0,.9,0,1.4,0,1.2,0,4.4-.4,5.5-.4s2.6.5,2.6,2.7-.3,4.4-.9,5.8c-.5,1.1-1.3,1.3-2.3,1.3s-1.4-.1-1.9-.2l-.2-1.3c.7.2,1.5.3,2,.3s1.1-.1,1.4-.8c.5-1.1.8-3.2.8-4.9s-.7-1.7-1.7-1.7-4.1.4-5.1.5c-.4,0-1,.1-1.4.2v-1.4ZM199.3,56.1c.4.6,1,1.6,1.3,2.2l-.9.4c-.3-.7-.9-1.6-1.3-2.2l.9-.4ZM201.1,55.5c.4.6,1,1.6,1.4,2.2l-.9.4c-.3-.7-.9-1.6-1.3-2.2l.8-.4ZM205.2,66.6v-1.2l5.1-8.1h.8v1.8h-.6l-3.9,6.1h0c0,0,6.9,0,6.9,0v1.2h-8.4ZM210.7,69v-11.6h1.3v11.6h-1.3ZM219.5,69.2c-.9,0-1.6-.2-2.2-.7-.6-.5-1.1-1.1-1.4-2-.3-.9-.5-2-.5-3.2s.2-2.3.5-3.2c.3-.9.8-1.6,1.4-2,.6-.5,1.3-.7,2.2-.7s1.6.2,2.2.7c.6.5,1.1,1.2,1.4,2,.3.9.5,2,.5,3.2s-.2,2.3-.5,3.2c-.3.9-.8,1.6-1.4,2-.6.5-1.3.7-2.2.7ZM219.5,67.9c.8,0,1.5-.4,2-1.2.5-.8.7-2,.7-3.5s-.1-1.9-.3-2.6c-.2-.7-.5-1.2-.9-1.6-.4-.4-.9-.6-1.4-.6-.8,0-1.5.4-2,1.2-.5.8-.7,2-.7,3.5s.1,1.9.3,2.6c.2.7.5,1.2.9,1.6.4.4.9.6,1.4.6ZM228.9,55.5l1.2.3c-.9,2.4-2.3,4.6-3.8,6-.2-.2-.7-.6-1-.8,1.5-1.3,2.8-3.4,3.6-5.6ZM228.7,57.5h10.3v1.2h-10.9l.6-1.2ZM227.9,61.1h10.8v1.1h-9.6v3.8h-1.2v-4.9ZM225.3,65.4h14.5v1.2h-14.5v-1.2ZM232.7,58.1h1.2v12.2h-1.2v-12.2ZM247.7,58.1l1.1-.5c1.1,1.2,2.1,2.8,2.6,3.8l-1.2.6c-.4-1.1-1.5-2.8-2.5-3.9ZM242.4,67.3c1.6-.6,4.2-1.7,6.6-2.8l.3,1.2c-2.2,1-4.7,2.1-6.4,2.9l-.4-1.2ZM252,65.2l.9-.8c1.5,1.5,3.5,3.6,4.4,4.9l-1,.9c-.9-1.3-2.8-3.5-4.4-5.1ZM254.3,56.4h1.3c-.8,7.5-2.7,11.6-8.3,13.9-.2-.3-.7-.8-1-1,5.5-2,7.2-5.9,8-12.9ZM244.4,56.4h1.2s.3,10.5.3,10.5h-1.2s-.3-10.5-.3-10.5ZM266.8,60.7h6.6v1.2h-6.6v-1.2ZM260.1,68.3h14.4v1.2h-14.4v-1.2ZM266.1,55.8h1.3v13.2h-1.3v-13.2ZM285.6,58.1c-.2,1.7-.5,3.5-1,5.2-1,3.3-2.3,5-3.7,5s-2.9-1.6-2.9-4.3,3.1-6.5,7-6.5,6.1,2.6,6.1,5.9-2.2,5.6-6,6.1l-.7-1.2c.5,0,1-.1,1.4-.2,2-.5,4.1-2,4.1-4.8s-1.8-4.7-4.8-4.7-5.7,2.9-5.7,5.2.9,2.9,1.6,2.9,1.6-1.1,2.4-3.8c.5-1.5.8-3.3,1-5h1.3ZM294.9,58.5h14.3v1.2h-14.3v-1.2ZM297.3,68.3h9.5v1.2h-9.5v-1.2ZM301.3,55.6h1.3v8.2h-1.3v-8.2ZM296.6,63.1h10.9v7.2h-1.3v-6h-8.4v6h-1.2v-7.2ZM314.9,57.8c0,.4-.1,1.1-.1,1.6,0,1,0,2.5.1,3.8.3,2.7,1,4.4,2.2,4.4s1.6-1.6,2-3.2l1,1.1c-1,2.7-1.9,3.6-3,3.6s-3-1.5-3.4-5.6c-.1-1.4-.2-3.3-.2-4.3s0-1.1,0-1.4h1.6ZM323.3,58.3c1.4,1.9,2.6,5.3,2.8,8l-1.3.5c-.3-2.9-1.2-6.2-2.8-8l1.2-.4ZM337.3,55.6l1.1.2c-.6,2.6-1.6,5.1-3,6.6-.2-.2-.7-.5-.9-.7,1.3-1.4,2.3-3.7,2.8-6.2ZM342.8,58.2h1.1s0,.4,0,.6c-.4,7.3-.7,9.8-1.4,10.6-.3.4-.6.6-1.1.6-.4,0-1.1,0-1.8,0,0-.4-.1-.9-.3-1.2.7,0,1.4,0,1.7,0s.4,0,.6-.3c.5-.6.9-3.2,1.2-10.2v-.3ZM337.2,58.2h6.1v1.1h-6.6l.5-1.1ZM338.8,58.6l.9.5c-.7,2.8-2.2,6-4,7.6-.2-.2-.6-.5-.9-.7,1.9-1.5,3.4-4.6,4.1-7.4ZM341.1,58.7l1,.4c-.8,4.3-2.6,8.7-5.3,10.9-.2-.3-.7-.6-1-.7,2.8-2,4.6-6.3,5.3-10.6ZM329.3,64.4c1.5-.4,3.8-1.1,6-1.7l.2,1.1c-2,.6-4.2,1.3-5.8,1.8l-.3-1.2ZM332.3,55.6h1.1v14.7h-1.1v-14.7ZM330.3,56.5l1,.2c-.2,2.1-.6,4.3-1.2,5.7-.2-.1-.7-.4-.9-.5.6-1.4.9-3.4,1.1-5.4ZM330.4,58.8h4.7v1.2h-4.8l.2-1.2ZM144.4,81.8h1.2v14.5h-1.2v-14.5ZM141.6,82.4l1.2.2c-.4,2.2-1.2,4.4-2.1,5.9-.2-.2-.7-.5-1-.6.9-1.3,1.6-3.4,2-5.5ZM141.8,84.8h7.5v1.2h-7.8l.3-1.2ZM139.8,89.5h10.2v1.2h-10.2v-1.2ZM139,81.6l1.1.4c-1,2.7-2.6,5.4-4.2,7.2-.1-.3-.5-.9-.7-1.2,1.5-1.6,2.9-4,3.8-6.4ZM137.4,85.8l1.1-1.1h0v11.6h-1.2v-10.5ZM153.4,84.9c.6,0,1.3,0,2,0,1.7,0,3.7-.2,5.6-.8v1.2c-1.5.4-3.6.8-5.6.8-.6,0-1.3,0-1.9,0v-1.2ZM159.1,82.3c-.2.8-.5,2.3-.9,3.4-.8,2.3-2.2,5.2-3.6,7l-1.2-.6c1.4-1.7,2.9-4.5,3.6-6.4.4-1,.7-2.4.8-3.5h1.4ZM162.9,87.3c0,.7,0,1.1,0,1.7,0,1,.2,3.5.2,4.5s-.8,2.3-2.8,2.3-3.2-.7-3.2-2.3,1.4-2.4,3.2-2.4c2.7,0,4.8,1.3,6.1,2.5l-.7,1.1c-1.2-1.1-3.1-2.5-5.4-2.5s-2,.5-2,1.3.6,1.2,1.9,1.2,1.8-.7,1.8-1.6-.2-4.1-.2-5.8h1.3ZM166.1,87.7c-.9-.7-2.6-1.7-3.7-2.2l.6-1c1.2.5,3,1.5,3.7,2.1l-.7,1.1ZM178.1,84.1c-.2,1.7-.5,3.5-1,5.2-1,3.3-2.3,5-3.7,5s-2.9-1.6-2.9-4.3,3.1-6.5,7-6.5,6.1,2.6,6.1,5.9-2.2,5.6-6,6.1l-.7-1.2c.5,0,1-.1,1.4-.2,2-.5,4.1-2,4.1-4.8s-1.8-4.7-4.8-4.7-5.7,2.9-5.7,5.2.9,2.9,1.6,2.9,1.6-1.1,2.4-3.8c.5-1.5.8-3.3,1-5h1.3ZM187.5,84.5c.6,0,1.1,0,1.4,0,1-.1,4-.4,7-.7,1.8-.1,3.2-.2,4.3-.3v1.3c-.9,0-2.3,0-3.1.2-2.3.7-3.7,3.2-3.7,5.1,0,3.1,2.9,4.1,5.5,4.2l-.5,1.3c-3-.1-6.3-1.7-6.3-5.3s1.5-4.5,3-5.4c-1.7.2-5.8.6-7.5.9v-1.4ZM197.9,86.7c.4.5,1,1.5,1.3,2.2l-.8.4c-.4-.8-.8-1.6-1.3-2.3l.8-.4ZM199.6,86c.4.5,1,1.5,1.4,2.2l-.8.4c-.4-.8-.9-1.6-1.4-2.2l.8-.4ZM213.9,86h1.2v8c0,.8.2.9,1.1.9h3c.9,0,1.1-.6,1.2-3.4.3.2.8.5,1.1.5-.2,3-.5,3.9-2.3,3.9h-3.1c-1.7,0-2.2-.4-2.2-2v-8ZM214,82.6l.8-.9c1.9.7,4.3,1.8,5.5,2.7l-.8,1.1c-1.2-.9-3.6-2.1-5.5-2.8ZM211.2,87.3l1.2.2c-.2,2.1-.7,4.7-1.9,6.2l-1.1-.7c1.1-1.4,1.6-3.7,1.8-5.8ZM220.5,87.3l1.1-.5c1.4,1.8,2.6,4.2,3,5.9l-1.2.6c-.4-1.7-1.6-4.2-2.9-6ZM235.6,87.3h4.8v1.2h-4.8v-1.2ZM235.1,87.3h1.2v6.9c0,.6.1.7.9.7h2.5c.7,0,.8-.4.9-2.7.3.2.8.4,1.1.5-.2,2.6-.5,3.3-2,3.3h-2.7c-1.5,0-1.9-.4-1.9-1.9v-6.9ZM235,82.3h6v7.3h-1.2v-6.1h-4.9v-1.2ZM227.5,85.1h6.4v10.9h-1v-9.9h-4.4v10.1h-1v-11.1ZM227.9,91.6h5.4v.9h-5.4v-.9ZM227.9,94.2h5.4v1h-5.4v-1ZM227.1,82.2h7.2v1.1h-7.2v-1.1ZM229.4,82.5h.9v3.4h-.9v-3.4ZM231.2,82.5h.9v3.4h-.9v-3.4ZM229.5,85.8h.7v1.6c0,1-.2,2.3-1.2,3.2-.1-.1-.4-.4-.5-.5.9-.8,1.1-1.9,1.1-2.7v-1.6ZM231.1,85.8h.7v3.3c0,.2,0,.2.2.2h.6c.2,0,.2,0,.2,0,.2.1.4.2.6.3,0,.3-.3.5-.8.5h-.8c-.6,0-.8-.1-.8-.9v-3.3ZM244.6,84.5c.6,0,1.1,0,1.4,0,1-.1,4-.4,7-.7,1.8-.1,3.2-.2,4.3-.3v1.3c-.9,0-2.3,0-3.1.2-2.3.7-3.7,3.2-3.7,5.1,0,3.1,2.9,4.1,5.5,4.2l-.5,1.3c-3-.1-6.3-1.7-6.3-5.3s1.5-4.5,3-5.4c-1.7.2-5.8.6-7.5.9v-1.4ZM255,86.7c.4.5,1,1.5,1.3,2.2l-.8.4c-.4-.8-.8-1.6-1.3-2.3l.8-.4ZM256.7,86c.4.5,1,1.5,1.4,2.2l-.8.4c-.4-.8-.9-1.6-1.4-2.2l.8-.4ZM265.9,82.5c0,.5-.1,1.1-.2,1.6,0,1.8-.2,5.6-.2,8s1.1,2.4,2.6,2.4c2.9,0,4.6-1.6,5.7-3.3l.9,1.1c-1.1,1.5-3.2,3.5-6.7,3.5s-3.9-.9-3.9-3.6.2-6.4.2-8.1,0-1.2-.1-1.6h1.6ZM284.7,82.4c0,.4-.2,1-.3,1.3-.2,1.2-.6,3-1,4.6-.6,2.3-1.6,5.6-2.5,7.3l-1.4-.5c1-1.7,2.1-4.9,2.7-7.2.4-1.5.8-3.5.9-4.3,0-.4,0-1,0-1.3h1.5ZM281.1,85.1c1.8,0,4.1-.3,6.1-.8v1.2c-2,.4-4.4.7-6.1.7s-1.3,0-1.9,0v-1.2c.7,0,1.3.1,1.9.1ZM286.2,87.3c.8,0,1.9-.1,2.9-.1s1.9,0,2.8.1v1.2c-.9,0-1.8-.2-2.7-.2s-2,0-3,.2v-1.2ZM286.5,91.2c-.1.5-.2,1-.2,1.4,0,.8.4,1.5,2.7,1.5s2.1-.1,3.1-.3v1.3c-.9.1-2,.2-3.2.2-2.5,0-3.9-.8-3.9-2.4s0-1.2.2-1.9h1.2ZM301.5,82.6c0,.3-.1.6-.2.9-.1.6-.3,1.9-.5,2.9-.5,2.3-1.7,6.2-3.5,9.2l-1.3-.5c1.8-2.4,3.1-6.7,3.5-8.7.3-1.3.5-2.7.5-4l1.5.2ZM307,84.4c1,1.3,2.4,4.2,2.9,5.7l-1.2.6c-.5-1.6-1.7-4.4-2.8-5.7l1.2-.5ZM295.8,86.1c.5,0,.9,0,1.4,0,1.2,0,4.4-.4,5.5-.4s2.6.5,2.6,2.7-.3,4.4-.9,5.8c-.5,1.1-1.3,1.3-2.3,1.3s-1.4-.1-1.9-.2l-.2-1.3c.7.2,1.5.3,2,.3s1.1-.1,1.4-.8c.5-1.1.8-3.2.8-4.9s-.7-1.7-1.7-1.7-4.1.4-5.1.5c-.4,0-1,.1-1.4.2v-1.4ZM307.2,82.1c.4.6,1,1.6,1.3,2.2l-.9.4c-.3-.7-.9-1.6-1.3-2.2l.9-.4ZM309,81.5c.4.6,1,1.6,1.4,2.2l-.9.4c-.3-.7-.9-1.6-1.3-2.2l.8-.4ZM316,95.9c-1-1.3-2.4-2.6-3.6-3.6l1-.9c1.2.9,2.6,2.4,3.6,3.5l-1.1.9ZM331.5,81.6h1.2v14.7h-1.2v-14.7ZM330,84.6h.9c0,1.4-.4,3.3-.8,4.4l-.9-.3c.4-1.1.7-2.8.8-4.1ZM332.7,84.5l.9-.4c.5.9,1,2.2,1.2,2.9l-.9.5c-.2-.8-.7-2-1.2-3ZM334.9,84.1h7.9v5.4h-1.2v-4.3h-6.7v-1.1ZM334,88.9h10.1v1.2h-10.1v-1.2ZM339.4,89.2c.8,2.8,2.4,5.1,4.9,6.1-.3.3-.7.8-.9,1.1-2.7-1.2-4.3-3.7-5.1-6.9l1.1-.2ZM338,81.6h1.2v5.3c0,3.1-.4,7-4.9,9.4-.2-.3-.6-.7-.8-.9,4.4-2.2,4.5-5.7,4.5-8.5v-5.3ZM146,109.2c-.4.3-.8.7-1.1.9-1.1,1-3.4,2.8-4.6,3.8-1,.8-1,1.1,0,1.9,1.5,1.2,4.3,3.5,6,5.2l-1.1,1c-.3-.4-.7-.8-1.1-1.2-1.1-1.2-3.6-3.2-5.1-4.5-1.5-1.3-1.3-2,.1-3.2,1.2-1,3.6-2.9,4.7-4,.3-.3.7-.8.9-1.1l1.2,1.1ZM161.1,109.3v1.7h2.8v-1.7h-2.8ZM157.4,109.3v1.7h2.7v-1.7h-2.7ZM153.7,109.3v1.7h2.6v-1.7h-2.6ZM152.6,108.3h12.4v3.6h-12.4v-3.6ZM154.8,115.6v1.2h8.1v-1.2h-8.1ZM154.8,117.6v1.2h8.1v-1.2h-8.1ZM154.8,113.6v1.2h8.1v-1.2h-8.1ZM153.6,112.8h10.5v6.9h-10.5v-6.9ZM160.1,120.5l.9-.6c1.8.5,3.8,1.2,5,1.8l-1.3.6c-1.1-.5-2.9-1.2-4.7-1.8ZM156.3,119.8l1.1.5c-1.3.8-3.4,1.6-5,2-.2-.2-.6-.7-.9-.9,1.7-.4,3.6-.9,4.8-1.6ZM170.3,109.8c0,.4-.1,1.1-.1,1.6,0,1,0,2.5.1,3.8.3,2.7,1,4.4,2.2,4.4s1.6-1.6,2-3.2l1,1.1c-1,2.7-1.9,3.6-3,3.6s-3-1.5-3.4-5.6c-.1-1.4-.2-3.3-.2-4.3s0-1.1,0-1.4h1.6ZM178.6,110.3c1.4,1.9,2.6,5.3,2.8,8l-1.3.5c-.3-2.9-1.2-6.2-2.8-8l1.2-.4ZM190.9,109.8h5.9v1.2h-5.9v-1.2ZM183.5,108.6h7.8v1.1h-7.8v-1.1ZM185.4,111.8h4.2v1.1h-4.2v-1.1ZM185.4,115.1h4.2v1.1h-4.2v-1.1ZM196.5,109.8h.4s.8.2.8.2c-.8,6.4-3.2,10.1-6.6,12.1-.2-.3-.5-.8-.8-1,3.2-1.6,5.6-5.4,6.2-11v-.3ZM192.4,111c.8,4.6,2.7,8.4,6,10.1-.3.2-.7.7-.8,1-3.5-2-5.3-5.9-6.3-10.9l1.2-.2ZM184.8,109h1.2v10.4h-1.2v-10.4ZM189,109h1.2v13.2h-1.2v-13.2ZM183.2,119c1.6-.2,4-.5,6.3-.9v1.1c-2.1.4-4.4.7-6.1,1l-.2-1.2ZM201.3,114.6c.5,0,1-.2,1.5-.4,1.1-.4,3.8-1.3,5.6-1.3s3.9,1.4,3.9,3.5c0,3.1-3,4.7-7.3,4.9l-.5-1.2c3.5,0,6.5-1.1,6.5-3.7s-1.1-2.4-2.7-2.4-5.5,1.5-6.5,1.9l-.5-1.3ZM215.3,110.4c.6,0,1.1,0,1.4,0,1-.1,4-.4,7-.7,1.7-.1,3.2-.2,4.3-.3v1.3c-.9,0-2.3,0-3.1.2-2.3.7-3.7,3.2-3.7,5.1,0,3.1,2.9,4.1,5.5,4.2l-.4,1.3c-3-.1-6.3-1.7-6.3-5.3s1.5-4.5,3-5.4c-1.7.2-5.8.6-7.5.9v-1.4ZM236.2,108.4c0,.4-.1.8-.2,1.1-.2,1.8-.9,6.7-.9,8.4s.9,2.5,2.7,2.5,4-1.1,4-2.7-.6-2.3-1.8-3.2l1.4-.3c1.1,1.2,1.6,2.3,1.6,3.7,0,2.4-2.1,3.8-5.3,3.8s-3.9-1-3.9-3.6.8-6.5.9-8.7c0-.6,0-.8,0-1.1h1.4ZM231.1,110.6c1.3.4,3.3.6,4.7.6s2.3,0,3.3-.2v1.2c-1.1,0-2,.1-3.3.1s-3.3-.2-4.7-.6v-1.2ZM230.7,114.5c1.6.5,3.4.7,4.9.7s2.2,0,3.3-.2v1.2c-1.1.1-2.1.1-3.2.1-1.7,0-3.7-.2-5.1-.6v-1.2ZM250.5,108.5c1.4.4,4.8,1.1,6.2,1.2l-.3,1.2c-1.5-.2-5-.9-6.2-1.2l.3-1.2ZM250.1,111.4c-.2,1.1-.5,3.5-.7,4.5,1.5-1.3,3.3-2,5.2-2s4.1,1.5,4.1,3.4c0,2.8-2.5,4.8-8.5,4.3l-.4-1.3c5.1.6,7.5-.8,7.5-3s-1.2-2.2-2.8-2.2-3.8.8-4.9,2.1c-.2.3-.4.5-.5.8l-1.2-.3c.3-1.5.7-4.8.8-6.5l1.3.2ZM266.1,108.4c1.7.4,4.8.8,6.3.8l-.2,1.2c-1.6-.1-4.4-.5-6.4-.8l.2-1.2ZM272.8,113c-.3.2-.7.5-.9.7-.6.6-2.4,2.2-3,2.9.2,0,.5,0,.6,0,.6,0,1,.5,1.2,1.1.2.5.4,1.3.5,1.8.2.6.6.9,1.4.9s2.3-.1,3-.3v1.3c-.8.1-2.2.2-3.1.2-1.3,0-2.1-.3-2.4-1.4-.2-.5-.4-1.4-.5-1.9-.2-.6-.5-.9-1-.9s-.8.2-1.2.6c-.6.6-2.3,2.4-3.2,3.6l-1.2-.8c.2-.2.5-.4.8-.7.7-.6,5-5,6.6-6.6-1.3,0-4,.3-4.9.4-.5,0-.9,0-1.3.1v-1.4c.3,0,.7,0,1.2,0,.9,0,4.6-.3,5.9-.4.3,0,.6-.1.8-.2l.8.9ZM286.3,108.3c0,.3,0,.6,0,1.1,0,.6,0,2.8,0,4.1,0,2.1.2,4.9.2,6s-.7,2.3-2.8,2.3-3.6-.8-3.6-2.4,1.4-2.4,3.7-2.4c3.4,0,6,1.8,7.2,2.8l-.7,1.1c-1.4-1.3-3.8-2.9-6.7-2.9s-2.4.6-2.4,1.3.6,1.3,2.2,1.3,1.7-.3,1.7-1.4-.2-4.3-.2-5.7v-4.2c0-.3,0-.8,0-1h1.4ZM280.2,110c1,.2,3,.4,4.1.4,2,0,4.2-.1,6.3-.5v1.2c-1.8.2-4.1.4-6.2.4s-3.1-.1-4.1-.3v-1.2ZM280.1,113.4c1.1.2,3,.3,4,.3,2.3,0,4.4-.2,6.5-.5v1.2c-2.2.3-4.1.4-6.5.4s-2.9,0-4-.2v-1.2ZM298.6,108.5c0,.5-.1,1.1-.2,1.6,0,1.8-.2,5.6-.2,8s1.1,2.4,2.6,2.4c2.9,0,4.6-1.6,5.7-3.3l.9,1.1c-1.1,1.5-3.2,3.5-6.7,3.5s-3.9-.9-3.9-3.6.2-6.4.2-8.1,0-1.2-.1-1.6h1.6ZM316.2,108.4c0,.4-.2,1-.3,1.3-.2,1.2-.6,3-1,4.6-.6,2.3-1.6,5.6-2.5,7.3l-1.4-.5c1-1.7,2.1-4.9,2.7-7.2.4-1.5.8-3.5.9-4.3,0-.4,0-1,0-1.3h1.5ZM312.7,111.1c1.8,0,4.1-.3,6.1-.8v1.2c-2,.4-4.4.7-6.1.7s-1.3,0-1.9,0v-1.2c.7,0,1.3.1,1.9.1ZM317.7,113.3c.8,0,1.9-.1,2.9-.1s1.9,0,2.8.1v1.2c-.9,0-1.8-.2-2.7-.2s-2,0-3,.2v-1.2ZM318.1,117.2c-.1.5-.2,1-.2,1.4,0,.8.4,1.5,2.7,1.5s2.1-.1,3.1-.3v1.3c-.9.1-2,.2-3.2.2-2.5,0-3.9-.8-3.9-2.4s0-1.2.2-1.9h1.2ZM328.3,117.1c1.3,0,2.4,1.1,2.4,2.4s-1.1,2.4-2.4,2.4-2.4-1.1-2.4-2.4,1.1-2.4,2.4-2.4ZM328.3,121.2c.9,0,1.6-.7,1.6-1.6s-.7-1.6-1.6-1.6-1.6.7-1.6,1.6.7,1.6,1.6,1.6Z"/>
          </g>
        </g>
      </g>
      <g shape-rendering="crispEdges">
        <image class="cls-8" width="308" height="232" transform="translate(-21 147)" xlink:href="customervoice_sp-3.png"/>
        <g>
          <image class="cls-8" width="280" height="206" transform="translate(3 160)" xlink:href="customervoice_sp-4.png"/>
          <path class="cls-5" d="M11,198c0-16.6,13.4-30,30-30h190c16.6,0,30,13.4,30,30v146H41c-16.6,0-30-13.4-30-30v-116Z"/>
        </g>
      </g>
      <path class="cls-1" d="M39.4,188.5h5.2v1.1h-5.2v-1.1ZM39.4,192.6h5.2v1.1h-5.2v-1.1ZM36.8,196.7h9.7v1.1h-9.7v-1.1ZM38.7,184.5h6.4v12.9h-1.2v-11.8h-4.1v11.8h-1.2v-12.9ZM31.9,186.6h5v1.1h-5v-1.1ZM34.2,191.4l1.2-1.4v8.3h-1.2v-6.9ZM34.2,183.6h1.2v3.5h-1.2v-3.5ZM35.4,190.1c.5.4,2.3,2,2.7,2.5l-.7,1c-.5-.7-2-2.3-2.6-2.8l.7-.6ZM36.5,186.6h.4s.7.4.7.4c-1.1,2.9-3.5,5.6-5.7,7.1-.1-.3-.4-.9-.6-1.1,2.1-1.3,4.2-3.7,5.2-6.1v-.3ZM51.5,184.3h8.5v1.1h-8.5v-1.1ZM50.1,194.5h12.2v1.1h-12.2v-1.1ZM47.8,189.4h14.8v1.1h-14.8v-1.1ZM59.6,184.3h1.2s0,.5,0,.7c-.3,8.7-.7,11.6-1.4,12.5-.4.5-.8.7-1.3.7-.5,0-1.4,0-2.3,0,0-.3-.2-.8-.3-1.1.9,0,1.8.1,2.2.1s.5,0,.7-.3c.6-.7,1-3.8,1.3-12.3v-.3ZM50.8,184.3h1.2c-.5,4-1.3,9.4-1.9,12.4h-1.2c.6-3.2,1.5-8.6,1.9-12.4ZM53.5,186.8l.7-.7c1.1.5,2.5,1.4,3.2,2l-.7.8c-.7-.7-2-1.5-3.1-2.1ZM52.9,191.8l.8-.7c1.2.6,2.7,1.6,3.4,2.3l-.8.8c-.7-.8-2.1-1.8-3.4-2.4ZM70.3,184.6c0,.3-.1.6-.2.9-.1.6-.3,1.9-.5,2.9-.5,2.3-1.7,6.2-3.5,9.2l-1.3-.5c1.8-2.4,3.1-6.7,3.5-8.7.3-1.3.5-2.7.5-4l1.5.2ZM75.8,186.4c1,1.3,2.4,4.2,2.9,5.7l-1.2.6c-.5-1.6-1.7-4.4-2.8-5.7l1.2-.5ZM64.5,188.1c.5,0,.9,0,1.4,0,1.2,0,4.4-.4,5.5-.4s2.6.5,2.6,2.7-.3,4.4-.9,5.8c-.5,1.1-1.3,1.3-2.3,1.3s-1.4-.1-1.9-.2l-.2-1.3c.7.2,1.5.3,2,.3s1.1-.1,1.4-.8c.5-1.1.8-3.2.8-4.9s-.7-1.7-1.7-1.7-4.1.4-5.1.5c-.4,0-1,.1-1.4.2v-1.4ZM75.9,184.1c.4.6,1,1.6,1.3,2.2l-.9.4c-.3-.7-.9-1.6-1.3-2.2l.9-.4ZM77.7,183.5c.4.6,1,1.6,1.4,2.2l-.9.4c-.3-.7-.9-1.6-1.3-2.2l.8-.4ZM85.1,186.8h9.7v1.1h-9.7v-1.1ZM85.7,191.4h8.7v1.2h-8.7v-1.2ZM84.7,196.6h10.4v1.2h-10.4v-1.2ZM89.4,187.1h1.2v10.2h-1.2v-10.2ZM87.3,184.4l.8-.8c1.2.7,2.8,1.7,3.6,2.4l-.8,1c-.7-.7-2.3-1.8-3.5-2.5ZM84.1,183.6l1.1.4c-1.1,2.7-2.8,5.4-4.6,7.2-.1-.3-.4-.9-.7-1.2,1.6-1.5,3.2-3.9,4.1-6.3ZM82.5,187.7l1.1-1.1h0v11.6h-1.2v-10.5ZM104.7,185.1c-.1.2-.3.5-.5.8-.7,1.1-2.2,3.8-3,5.3.8-.7,1.6-1,2.4-1s1.8.7,1.9,2c0,.9,0,2.2,0,2.9,0,.8.6,1.2,1.3,1.2,1.8,0,2.8-2.2,3.2-3.9l1.1.9c-.8,2.6-2.2,4.4-4.5,4.4s-2.3-1.1-2.3-2c0-.9,0-2.2,0-3.1,0-.7-.4-1.1-1.2-1.1-1.3,0-2.5,1.3-3.1,2.6-.5.9-1.2,2.8-1.4,3.6l-1.4-.5c1.2-3.2,4.7-9.8,5.6-11.3.2-.4.4-.8.6-1.2l1.4.6ZM112.6,186.5c.6,0,1.1,0,1.4,0,1-.1,4-.4,7-.7,1.8-.1,3.2-.2,4.3-.3v1.3c-.9,0-2.3,0-3.1.2-2.3.7-3.7,3.2-3.7,5.1,0,3.1,2.9,4.1,5.5,4.2l-.5,1.3c-3-.1-6.3-1.7-6.3-5.3s1.5-4.5,3-5.4c-1.7.2-5.8.6-7.5.9v-1.4ZM123.1,188.7c.4.5,1,1.5,1.3,2.2l-.8.4c-.4-.8-.8-1.6-1.3-2.3l.8-.4ZM124.8,188c.4.5,1,1.5,1.4,2.2l-.8.4c-.4-.8-.9-1.6-1.4-2.2l.8-.4ZM131.2,185.8c0,.4-.1,1.1-.1,1.6,0,1,0,2.5.1,3.8.3,2.7,1,4.4,2.2,4.4s1.6-1.6,2-3.2l1,1.1c-1,2.7-1.9,3.6-3,3.6s-3-1.5-3.4-5.6c-.1-1.4-.2-3.3-.2-4.3s0-1.1,0-1.4h1.6ZM139.5,186.3c1.4,1.9,2.6,5.3,2.8,8l-1.3.5c-.3-2.9-1.2-6.2-2.8-8l1.2-.4ZM150.9,184.4c0,.4-.2,1-.3,1.3-.2,1.2-.6,3-1,4.6-.6,2.3-1.6,5.6-2.5,7.3l-1.4-.5c1-1.7,2.1-4.9,2.7-7.2.4-1.5.8-3.5.9-4.3,0-.4,0-1,0-1.3h1.5ZM147.4,187.1c1.8,0,4.1-.3,6.1-.8v1.2c-2,.4-4.4.7-6.1.7s-1.3,0-1.9,0v-1.2c.7,0,1.3.1,1.9.1ZM152.4,189.3c.8,0,1.9-.1,2.9-.1s1.9,0,2.8.1v1.2c-.9,0-1.8-.2-2.7-.2s-2,0-3,.2v-1.2ZM152.7,193.2c-.1.5-.2,1-.2,1.4,0,.8.4,1.5,2.7,1.5s2.1-.1,3.1-.3v1.3c-.9.1-2,.2-3.2.2-2.5,0-3.9-.8-3.9-2.4s0-1.2.2-1.9h1.2ZM174.9,186.9c-.2.2-.3.4-.4.5-1.2,2-3.4,4.8-6.2,6.8l-1-.9c2.6-1.8,4.6-4.4,5.5-5.9h-9.4c-.6,0-1.3,0-1.6,0v-1.4c.4,0,1.1.1,1.6.1h9.5c.4,0,.8,0,1-.1l1,.8ZM167.4,194.5c-1-1-2.8-2.5-3.6-3.2l1-.8c.7.5,2.6,2,3.7,3.2,1,1,2.3,2.3,2.9,3.2l-1.2.9c-.6-.8-1.9-2.2-2.9-3.3ZM179.9,185.3c1.1.8,3.2,2.4,4.1,3.3l-1,1c-.8-.8-2.8-2.6-4-3.3l.9-1ZM178.6,196c2.8-.4,4.9-1.4,6.4-2.3,2.5-1.6,4.4-3.9,5.3-5.9l.8,1.4c-1.1,2-2.9,4.2-5.4,5.7-1.6,1-3.6,2-6.3,2.5l-.8-1.3ZM197.3,184.7c.9.5,2.8,1.8,3.5,2.3l-.8,1.1c-.8-.6-2.5-1.7-3.4-2.3l.7-1.1ZM194.9,196.2c1.8-.3,3.7-.9,5.4-1.9,2.7-1.5,4.8-3.6,6-5.9l.8,1.3c-1.4,2.1-3.6,4.2-6.2,5.7-1.6.9-3.8,1.7-5.3,2l-.8-1.3ZM194.9,188.3c.9.5,2.8,1.7,3.5,2.2l-.7,1.1c-.8-.6-2.5-1.7-3.5-2.2l.7-1.1ZM212.3,188.2c.3,0,1.2,0,1.6,0h6.2c.4,0,.8,0,1,0,0,.2,0,.5,0,.8v8c0,.3,0,.6,0,.9h-1.3c0-.2,0-.6,0-.9v-7.6h-5.9c-.4,0-1.3,0-1.6,0v-1.2ZM212.7,192c.3,0,.9,0,1.4,0h6.4v1.2h-6.4c-.5,0-1.1,0-1.4,0v-1.2ZM212.1,196c.3,0,.8,0,1.3,0h7.1v1.2h-7.1c-.5,0-1.1,0-1.3,0v-1.3ZM228.6,185.3c1.1.8,3.2,2.4,4.1,3.3l-1,1c-.8-.8-2.8-2.6-4-3.3l.9-1ZM227.3,196c2.8-.4,4.9-1.4,6.4-2.3,2.5-1.6,4.4-3.9,5.3-5.9l.8,1.4c-1.1,2-2.9,4.2-5.4,5.7-1.6,1-3.6,2-6.3,2.5l-.8-1.3ZM37.8,210.6c0,.3-.1.6-.2.9-.1.6-.3,1.9-.5,2.9-.5,2.3-1.7,6.2-3.5,9.2l-1.3-.5c1.8-2.4,3.1-6.7,3.5-8.7.3-1.3.5-2.7.5-4l1.5.2ZM43.3,212.4c1,1.3,2.4,4.2,2.9,5.7l-1.2.6c-.5-1.6-1.7-4.4-2.8-5.7l1.2-.5ZM32,214.1c.5,0,.9,0,1.4,0,1.2,0,4.4-.4,5.5-.4s2.6.5,2.6,2.7-.3,4.4-.9,5.8c-.5,1.1-1.3,1.3-2.3,1.3s-1.4-.1-1.9-.2l-.2-1.3c.7.2,1.5.3,2,.3s1.1-.1,1.4-.8c.5-1.1.8-3.2.8-4.9s-.7-1.7-1.7-1.7-4.1.4-5.1.5c-.4,0-1,.1-1.4.2v-1.4ZM43.5,210.1c.4.6,1,1.6,1.3,2.2l-.9.4c-.3-.7-.9-1.6-1.3-2.2l.9-.4ZM45.2,209.5c.4.6,1,1.6,1.4,2.2l-.9.4c-.3-.7-.9-1.6-1.3-2.2l.8-.4ZM49.3,210.7h13.8v1.2h-13.8v-1.2ZM57.1,215.4l.9-.8c1.9,1.2,4.3,3,5.5,4.3l-1,.9c-1.1-1.2-3.5-3.1-5.4-4.4ZM56.8,211.1l1.3.5c-1.8,3.3-4.8,6.5-8.4,8.4-.2-.3-.6-.8-.8-1,3.5-1.7,6.4-4.8,7.9-7.8ZM55.5,214.3l1.3-1.3v11.2h-1.3v-10ZM66.1,218.3h14.6v1h-14.6v-1ZM66.5,210.3h13.8v1.1h-13.8v-1.1ZM71.6,216.6l1.2.3c-1,1.7-2.5,3.8-3.5,5.1l-1.1-.4c1-1.3,2.5-3.4,3.5-5ZM76.4,218.7l1.2.3c-1.4,3.5-4.8,4.8-10.8,5.3,0-.4-.3-.8-.5-1.1,5.7-.3,8.8-1.4,10.1-4.6ZM69,221.5l.6-.9c4,.7,8.1,1.8,10.5,2.8l-.7,1c-2.4-1-6.4-2.1-10.4-2.8ZM70.8,210.7h1.1v5.6h-1.1v-5.6ZM74.6,210.7h1.1v5.6h-1.1v-5.6ZM68.4,213.7v2.2h10v-2.2h-10ZM67.3,212.7h12.3v4.1h-12.3v-4.1ZM89.8,212.2c1.7.3,5,.2,6.6,0v1.3c-1.7.2-4.8.2-6.6,0v-1.3ZM90.4,218.7c-.1.6-.2,1-.2,1.5,0,.7.5,1.5,2.7,1.5s2.7-.1,4-.4v1.3c-1,.2-2.3.3-4,.3-2.7,0-3.9-.9-3.9-2.4s0-1.1.3-1.9h1.2ZM86.8,211c0,.3-.2.8-.3,1.1-.3,1.5-.8,4.3-.8,6.1s0,1.4.1,2.2c.3-.7.6-1.7.9-2.3l.7.5c-.4,1.1-1,2.8-1.1,3.6,0,.2,0,.5,0,.7,0,.2,0,.4,0,.6h-1.1c-.3-1.1-.6-2.9-.6-5.1s.5-5.1.7-6.4c0-.4,0-.8.1-1.1h1.4ZM101.2,212.9c.6,0,1.3,0,2,0,1.7,0,3.7-.2,5.6-.8v1.2c-1.5.4-3.6.8-5.6.8-.6,0-1.3,0-1.9,0v-1.2ZM106.9,210.3c-.2.8-.5,2.3-.9,3.4-.8,2.3-2.2,5.2-3.6,7l-1.2-.6c1.4-1.7,2.9-4.5,3.6-6.4.4-1,.7-2.4.8-3.5h1.4ZM110.7,215.3c0,.7,0,1.1,0,1.7,0,1,.2,3.5.2,4.5s-.8,2.3-2.8,2.3-3.2-.7-3.2-2.3,1.4-2.4,3.2-2.4c2.7,0,4.8,1.3,6.1,2.5l-.7,1.1c-1.2-1.1-3.1-2.5-5.4-2.5s-2,.5-2,1.3.6,1.2,1.9,1.2,1.8-.7,1.8-1.6-.2-4.1-.2-5.8h1.3ZM113.9,215.7c-.9-.7-2.6-1.7-3.7-2.2l.6-1c1.2.5,3,1.5,3.7,2.1l-.7,1.1ZM122.3,210.4c-.3,1.2-.6,3.3-.7,4.5.7-1.6,2.3-3.6,4.4-3.6s3.6,2.1,3.6,5.5-2.8,6.4-6.8,7.1l-.8-1.2c3.5-.5,6.2-1.9,6.2-6s-.8-4.4-2.5-4.4-3.9,2.9-4,5c0,.6,0,1.2,0,2h-1.2c0-.5-.2-1.4-.2-2.4,0-1.5.3-3.9.5-5.2,0-.5,0-.9.1-1.4h1.4ZM137.8,223.9c-1-1.3-2.4-2.6-3.6-3.6l1-.9c1.2.9,2.6,2.4,3.6,3.5l-1.1.9ZM152.4,218.4h12.4v1h-12.4v-1ZM151.5,210.6h7.4v.9h-7.4v-.9ZM158.6,220.7h5.2v.9h-5.2v-.9ZM151.4,222.9h14.5v1h-14.5v-1ZM158,218.8h1.2v4.6h-1.2v-4.6ZM154.7,209.6h1.1v8.4h-1.1v-8.4ZM154,220.2h1.2v3.3h-1.2v-3.3ZM153,213.1v1.3h4.5v-1.3h-4.5ZM152,212.3h6.5v2.9h-6.5v-2.9ZM155.7,215.2c.6.2,2.4,1.2,2.9,1.4l-.6.8c-.6-.4-2.2-1.3-2.9-1.7l.6-.5ZM160.9,209.6l1.1.2c-.6,1.8-1.5,3.6-2.7,4.7-.2-.2-.6-.6-.8-.8,1.1-1,2-2.5,2.4-4.1ZM160.6,211.4h5.2v1h-5.7l.5-1ZM163.8,211.8h1.1c-.8,3.4-2.8,5.2-5.8,6.3-.1-.2-.5-.7-.7-.9,2.9-.9,4.8-2.5,5.4-5.4ZM160.7,211.9c.7,2,2.4,4.3,5.4,5.2-.2.2-.5.7-.7.9-3-1.1-4.8-3.6-5.5-5.6l.8-.5ZM154.6,214.8l.8.3c-.8,1.1-2.3,2.3-3.4,2.9-.2-.3-.5-.6-.7-.8,1.2-.5,2.6-1.5,3.3-2.4ZM175.4,214.4v2.1h6v-2.1h-6ZM175.4,211.4v2h6v-2h-6ZM174.3,210.3h8.2v7.2h-8.2v-7.2ZM174.1,219.4h8.6v1.1h-8.6v-1.1ZM172.9,222.7h10.4v1.1h-10.4v-1.1ZM168.5,210.6h5v1.1h-5v-1.1ZM168.7,215.3h4.6v1.1h-4.6v-1.1ZM168.3,221.4c1.3-.4,3.2-1,5.1-1.6l.2,1.2c-1.7.6-3.6,1.2-5,1.7l-.3-1.2ZM170.5,211.1h1.2v9.9l-1.2.2v-10.1ZM177.8,210.8h1.1v6.2h0v6.2h-1.2v-6.2h0v-6.2ZM192,210.4c0,.4-.1.8-.2,1.1-.2,1.8-.9,6.7-.9,8.4s.9,2.5,2.7,2.5,4-1.1,4-2.7-.6-2.3-1.8-3.2l1.4-.3c1.1,1.2,1.6,2.3,1.6,3.7,0,2.4-2.1,3.8-5.3,3.8s-3.9-1-3.9-3.6.8-6.5.9-8.7c0-.6,0-.8,0-1.1h1.4ZM186.9,212.6c1.3.4,3.3.6,4.7.6s2.3,0,3.3-.2v1.2c-1.1,0-2,.1-3.3.1s-3.3-.2-4.7-.6v-1.2ZM186.5,216.5c1.6.5,3.4.7,4.9.7s2.2,0,3.3-.2v1.2c-1.1.1-2.1.1-3.2.1-1.7,0-3.7-.2-5.1-.6v-1.2ZM212,215.9v5.7h-1.2v-4.5h-2.2v-1.1h3.4ZM212,221c.8,1.2,2.2,1.7,4,1.8,1.7,0,5.3,0,7.2-.1-.1.3-.3.9-.4,1.2-1.8,0-5.1,0-6.8,0-2.1,0-3.5-.6-4.5-1.9-.8.7-1.6,1.4-2.4,2.1l-.6-1.2c.8-.5,1.7-1.2,2.5-1.9h1.1ZM208.8,210.7l.9-.7c1.1.7,2.3,1.7,2.8,2.5l-.9.8c-.5-.8-1.7-1.9-2.8-2.6ZM214.4,211.2h7.1v4.2h-7.1v-1h5.9v-2.2h-5.9v-1ZM217,209.5l1.4.2c-.3.8-.7,1.6-.9,2.1l-1.1-.2c.2-.6.5-1.5.7-2.1ZM213.8,211.2h1.2v10.3h-1.2v-10.3ZM214.4,217h7.7v4.6h-7.7v-1h6.5v-2.5h-6.5v-1ZM228.6,211.8c0,.4-.1,1.1-.1,1.6,0,1,0,2.5.1,3.8.3,2.7,1,4.4,2.2,4.4s1.6-1.6,2-3.2l1,1.1c-1,2.7-1.9,3.6-3,3.6s-3-1.5-3.4-5.6c-.1-1.4-.2-3.3-.2-4.3s0-1.1,0-1.4h1.6ZM236.9,212.3c1.4,1.9,2.6,5.3,2.8,8l-1.3.5c-.3-2.9-1.2-6.2-2.8-8l1.2-.4ZM32.2,240.6c.6,0,1.2-.3,1.8-.4,1.3-.4,4.5-1.6,6.8-1.6s4.8,1.5,4.8,4.2c0,3.8-3.8,5.7-8.7,6l-.6-1.3c4.2-.1,7.9-1.4,7.9-4.7s-1.2-3-3.4-3-6.7,1.8-8,2.3l-.6-1.4ZM54,236.5c0,.3-.1.6-.2,1,0,.6-.3,1.9-.5,2.9-.5,2.2-1.7,6.2-3.5,9.2l-1.3-.5c1.8-2.4,3.1-6.7,3.5-8.7.3-1.3.5-2.7.5-3.9h1.5ZM59.5,238.2c1,1.3,2.4,4.2,2.9,5.7l-1.2.6c-.5-1.6-1.7-4.5-2.8-5.8l1.2-.5ZM48.2,240c.5,0,.9,0,1.4,0,1.2,0,4.4-.4,5.5-.4s2.6.5,2.6,2.7-.3,4.4-.9,5.8c-.5,1.1-1.3,1.3-2.3,1.3s-1.4-.1-1.9-.2l-.2-1.3c.7.2,1.5.3,2,.3s1.1-.1,1.4-.8c.5-1.1.8-3.2.8-4.9s-.7-1.7-1.7-1.7-4.1.4-5,.4c-.4,0-1,.1-1.4.2v-1.4ZM72.6,236.5c0,.2,0,.8,0,1,0,1,0,4.1,0,5.4l-1.2-.6c0-.7,0-3.9,0-4.8,0-.4,0-.9-.1-1h1.5ZM64.1,238.7c2.2,0,6.2-.2,8.6-.2s3.9,0,4.7,0v1.2c-.9,0-2.4,0-4.7,0s-6.2.1-8.6.3v-1.2ZM72.5,243.4c0,2.1-1,3.2-2.5,3.2s-2.6-.9-2.6-2.7,1.3-2.8,2.8-2.8,2.8,1.4,2.8,3.2-1.1,4.6-4.8,5.7l-1.1-1c2.9-.7,4.6-2.1,4.6-4.8s-.7-2-1.6-2-1.6.7-1.6,1.7.8,1.6,1.6,1.6,1.6-.8,1.4-2.5l.9.4ZM74.8,236.2c.4.5.9,1.3,1.2,1.9l-.9.4c-.3-.6-.8-1.4-1.2-2l.9-.4ZM76.7,235.8c.4.5.9,1.3,1.2,1.9l-.9.4c-.4-.7-.8-1.4-1.2-2l.9-.4ZM82.5,240.3h9.1v1h-9.1v-1ZM87.8,240.7c.8,2,2.4,4.1,4,5-.3.2-.6.6-.8.9-1.7-1.1-3.2-3.4-4-5.6l.8-.3ZM86.4,238h1.1v9.5h-1.1v-9.5ZM86.1,240.6l.8.3c-.8,2.3-2.4,4.6-4,5.8-.2-.3-.5-.6-.8-.8,1.6-1,3.2-3.1,4-5.2ZM80.3,236.3h13.3v14h-1.2v-12.9h-10.9v12.9h-1.2v-14ZM81,248.4h11.9v1.1h-11.9v-1.1ZM97.6,242.6c.5,0,1-.2,1.5-.4,1.1-.4,3.8-1.3,5.6-1.3s3.9,1.4,3.9,3.5c0,3.1-3,4.7-7.3,4.9l-.5-1.2c3.5,0,6.5-1.1,6.5-3.7s-1.1-2.4-2.7-2.4-5.5,1.5-6.5,1.9l-.5-1.3ZM111.5,238.4c.6,0,1.1,0,1.4,0,1-.1,4-.4,7-.7,1.7-.1,3.2-.2,4.3-.3v1.3c-.9,0-2.3,0-3.1.2-2.3.7-3.7,3.2-3.7,5.1,0,3.1,2.9,4.1,5.5,4.2l-.4,1.3c-3-.1-6.3-1.7-6.3-5.3s1.5-4.5,3-5.4c-1.7.2-5.8.6-7.5.9v-1.4ZM129.8,237.8c0,.4-.1,1.1-.1,1.6,0,1,0,2.5.1,3.8.3,2.7,1,4.4,2.2,4.4s1.6-1.6,2-3.2l1,1.1c-1,2.7-1.9,3.6-3,3.6s-3-1.5-3.4-5.6c-.1-1.4-.2-3.3-.2-4.3s0-1.1,0-1.4h1.6ZM138.1,238.3c1.4,1.9,2.6,5.3,2.8,8l-1.3.5c-.3-2.9-1.2-6.2-2.8-8l1.2-.4ZM151.4,236.3c0,.3,0,.6,0,1.1,0,.6,0,2.8,0,4.1,0,2.1.2,4.9.2,6s-.7,2.3-2.8,2.3-3.6-.8-3.6-2.4,1.4-2.4,3.7-2.4c3.4,0,6,1.8,7.2,2.8l-.7,1.1c-1.4-1.3-3.8-2.9-6.7-2.9s-2.4.6-2.4,1.3.6,1.3,2.2,1.3,1.7-.3,1.7-1.4-.2-4.3-.2-5.7v-4.2c0-.3,0-.8,0-1h1.4ZM145.2,238c1,.2,3,.4,4.1.4,2,0,4.2-.1,6.3-.5v1.2c-1.8.2-4.1.4-6.2.4s-3.1-.1-4.1-.3v-1.2ZM145.2,241.4c1.1.2,3,.3,4,.3,2.3,0,4.4-.2,6.5-.5v1.2c-2.2.3-4.1.4-6.5.4s-2.9,0-4-.2v-1.2ZM163.6,236.5c0,.5-.1,1.1-.2,1.6,0,1.8-.2,5.6-.2,8s1.1,2.4,2.6,2.4c2.9,0,4.6-1.6,5.7-3.3l.9,1.1c-1.1,1.5-3.2,3.5-6.7,3.5s-3.9-.9-3.9-3.6.2-6.4.2-8.1,0-1.2-.1-1.6h1.6ZM181.3,236.4c0,.4-.2,1-.3,1.3-.2,1.2-.6,3-1,4.6-.6,2.3-1.6,5.6-2.5,7.3l-1.4-.5c1-1.7,2.1-4.9,2.7-7.2.4-1.5.8-3.5.9-4.3,0-.4,0-1,0-1.3h1.5ZM177.7,239.1c1.8,0,4.1-.3,6.1-.8v1.2c-2,.4-4.4.7-6.1.7s-1.3,0-1.9,0v-1.2c.7,0,1.3.1,1.9.1ZM182.8,241.3c.8,0,1.9-.1,2.9-.1s1.9,0,2.8.1v1.2c-.9,0-1.8-.2-2.7-.2s-2,0-3,.2v-1.2ZM183.1,245.2c-.1.5-.2,1-.2,1.4,0,.8.4,1.5,2.7,1.5s2.1-.1,3.1-.3v1.3c-.9.1-2,.2-3.2.2-2.5,0-3.9-.8-3.9-2.4s0-1.2.2-1.9h1.2ZM197,236.6c0,.3-.1.6-.2.9-.1.6-.3,1.9-.5,2.9-.5,2.3-1.7,6.2-3.5,9.2l-1.3-.5c1.8-2.4,3.1-6.7,3.5-8.7.3-1.3.5-2.7.5-4l1.5.2ZM202.5,238.4c1,1.3,2.4,4.2,2.9,5.7l-1.2.6c-.5-1.6-1.7-4.4-2.8-5.7l1.2-.5ZM191.2,240.1c.5,0,.9,0,1.4,0,1.2,0,4.4-.4,5.5-.4s2.6.5,2.6,2.7-.3,4.4-.9,5.8c-.5,1.1-1.3,1.3-2.3,1.3s-1.4-.1-1.9-.2l-.2-1.3c.7.2,1.5.3,2,.3s1.1-.1,1.4-.8c.5-1.1.8-3.2.8-4.9s-.7-1.7-1.7-1.7-4.1.4-5.1.5c-.4,0-1,.1-1.4.2v-1.4ZM202.7,236.1c.4.6,1,1.6,1.3,2.2l-.9.4c-.3-.7-.9-1.6-1.3-2.2l.9-.4ZM204.4,235.5c.4.6,1,1.6,1.4,2.2l-.9.4c-.3-.7-.9-1.6-1.3-2.2l.8-.4ZM210.3,249.9c-1-1.3-2.4-2.6-3.6-3.6l1-.9c1.2.9,2.6,2.4,3.6,3.5l-1.1.9ZM38.4,261.6h1.2v2.1h-1.2v-2.1ZM32.4,263h13.3v3.2h-1.2v-2.1h-10.9v2.1h-1.2v-3.2ZM34.4,265.7h9v1.1h-9v-1.1ZM36.5,268.1l.9-.6c3.6,2.6,3.6,7.1,2,8.2-.5.4-1,.5-1.7.5s-.9,0-1.4,0c0-.3-.1-.8-.4-1.2.6,0,1.1,0,1.5,0s.8,0,1.1-.3c1.1-.8,1.1-4.4-2-6.8ZM38.9,265.9l1,.4c-1.6,1.6-4.5,2.8-7,3.6-.1-.2-.4-.7-.7-.9,2.4-.6,5.2-1.7,6.7-3ZM37.8,269l.8.5c-1.3,1.1-3.7,2.3-5.6,3-.1-.3-.4-.7-.6-.9,1.8-.5,4.2-1.6,5.4-2.6ZM39,270.6l.8.6c-1.7,1.7-4.8,3.4-7.3,4.3-.1-.3-.4-.7-.6-1,2.5-.7,5.6-2.3,7.2-3.9ZM40.5,266.1c.9,3.6,2.8,6.7,5.8,7.9-.3.2-.6.7-.8,1-3.2-1.4-5-4.7-6-8.7l1-.2ZM44.6,267.3l.9.8c-1.1.9-2.6,1.9-3.7,2.5l-.8-.7c1.1-.6,2.6-1.7,3.6-2.5ZM51.6,265.6v1.5h7.3v-1.5h-7.3ZM51.6,268.1v1.5h7.3v-1.5h-7.3ZM51.6,263.2v1.5h7.3v-1.5h-7.3ZM50.4,262.2h9.7v8.3h-9.7v-8.3ZM48.1,271.7h14.2v1.1h-14.2v-1.1ZM56.6,274.1l.9-.8c1.8.7,3.9,1.5,5.1,2.2l-1.2.8c-1.1-.7-3-1.5-4.8-2.2ZM52.8,273.2l1.1.8c-1.4.9-3.4,1.8-5.1,2.3-.2-.3-.6-.7-.8-.9,1.6-.5,3.7-1.4,4.8-2.1ZM72.5,264.1c-.2,1.7-.5,3.5-1,5.2-1,3.3-2.3,5-3.7,5s-2.9-1.6-2.9-4.3,3.1-6.5,7-6.5,6.1,2.6,6.1,5.9-2.2,5.6-6,6.1l-.7-1.2c.5,0,1-.1,1.4-.2,2-.5,4.1-2,4.1-4.8s-1.8-4.7-4.8-4.7-5.7,2.9-5.7,5.2.9,2.9,1.6,2.9,1.6-1.1,2.4-3.8c.5-1.5.8-3.3,1-5h1.3ZM82.7,261.6l1.2.2c-.5,3.6-1.4,6.9-2.9,9.1-.2-.2-.7-.7-.9-.9,1.4-1.9,2.2-5,2.6-8.3ZM82.9,264.3h3.1v1h-3.5l.4-1ZM85.7,264.3h.4s.7,0,.7,0c-.6,6.4-2.5,10-5.6,11.9-.2-.3-.5-.7-.8-1,2.8-1.6,4.8-5.2,5.3-10.8v-.3ZM82.8,266.3c1.4,7.4,5.1,8.5,9.2,8.5h3.2c-.2.3-.4.8-.5,1.2h-2.8c-4.6,0-8.5-1.4-10-9.4l.9-.3ZM88.2,262.7h1.1v3.2c0,2.2-.3,5.3-1.8,7.5-.2-.2-.7-.5-1-.6,1.5-2,1.6-4.8,1.6-6.9v-3.2ZM88.7,262.7h3.5v1h-3.5v-1ZM91.5,262.7h1.1v9.1c0,.5,0,.5.3.5h.7c.2,0,.3-.3.3-1.5.2.2.6.3.9.4,0,1.5-.4,1.9-1.1,1.9h-1c-.9,0-1.2-.3-1.2-1.4v-9ZM98.9,267.6h9.2v1.2h-9.2v-1.2ZM107.7,267.6h1.2s0,.4,0,.6c-.2,5-.4,6.8-1,7.4-.3.4-.7.5-1.2.6-.5,0-1.5,0-2.5,0,0-.4-.2-.9-.4-1.2,1.1,0,2,.1,2.4.1s.5,0,.7-.2c.4-.4.7-2.3.9-7v-.2ZM101.1,261.9l1.3.4c-1.2,2.7-3,5.1-5.1,6.6-.2-.3-.7-.7-1-.9,2-1.4,3.8-3.6,4.8-6ZM106.7,261.9c1,2.1,3.1,4.6,4.8,5.8-.3.3-.8.7-1,1.1-1.8-1.4-3.8-4-5-6.4l1.2-.5ZM102.3,267.9h1.3c-.4,3.5-1.2,6.8-5.7,8.4-.1-.3-.5-.8-.8-1,4.2-1.4,4.8-4.4,5.2-7.4ZM119.2,262.4c0,.4-.1.8-.2,1.1-.2,1.8-.9,6.7-.9,8.4s.9,2.5,2.7,2.5,4-1.1,4-2.7-.6-2.3-1.8-3.2l1.4-.3c1.1,1.2,1.6,2.3,1.6,3.7,0,2.4-2.1,3.8-5.3,3.8s-3.9-1-3.9-3.6.8-6.5.9-8.7c0-.6,0-.8,0-1.1h1.4ZM114.1,264.6c1.3.4,3.3.6,4.7.6s2.3,0,3.3-.2v1.2c-1.1,0-2,.1-3.3.1s-3.3-.2-4.7-.6v-1.2ZM113.7,268.5c1.6.5,3.4.7,4.9.7s2.2,0,3.3-.2v1.2c-1.1.1-2.1.1-3.2.1-1.7,0-3.7-.2-5.1-.6v-1.2ZM133.3,264.9h6.2v1h-6.2v-1ZM131.1,267.2h9.1v1.1h-9.1v-1.1ZM132.1,274.6h8.5v1.1h-8.5v-1.1ZM131.4,270.7h10v5.6h-1.2v-4.6h-7.6v4.6h-1.2v-5.6ZM136.3,262.6c-1.4,1.6-4,3.3-6.7,4.4-.1-.3-.4-.7-.7-.9,2.7-1,5.4-2.8,6.7-4.4h1.2c1.8,1.9,4.6,3.5,7,4.3-.3.3-.5.7-.7,1-2.4-.9-5.2-2.6-6.8-4.3ZM139.9,267.2h.4c0,0,.9.3.9.3-.6,1.1-1.4,2.5-2,3.6l-1.2-.4c.7-1.1,1.5-2.5,1.9-3.3h0ZM155.3,262.6c-.1.4-.2,1-.3,1.3-.6,2.6-1.7,6-3,7.7-1.2,1.7-2.4,2.9-3.8,2.9s-2.2-1-2.2-2.9,1.2-4.1,2.9-5.3c1.6-1.1,3.2-1.5,4.8-1.5,3.1,0,5.4,2.1,5.4,5.2s-2.3,5.1-5.7,5.6l-.7-1.1c3.3-.3,5.2-2,5.2-4.5s-1.7-4.1-4.3-4.1-2.9.5-4.2,1.5c-1.4,1-2.2,2.7-2.2,4.1s.5,1.7,1.2,1.7c1,0,2.2-1.4,3-2.7,1.1-1.6,2.1-4.6,2.5-6.9,0-.3.1-.8,0-1.2h1.4ZM148.8,263.4c0,.4.2,1,.3,1.4.4,1.6,1.3,4,2,5.2.5.9,1.3,2,2.1,2.7l-1,.8c-.6-.7-1.2-1.5-1.8-2.5-.8-1.2-1.7-3.7-2.3-5.7-.2-.5-.3-1-.5-1.5l1.3-.4ZM162.2,264.4c.6,0,1.1,0,1.4,0,1-.1,4-.4,7-.7,1.7-.1,3.2-.2,4.3-.3v1.3c-.9,0-2.3,0-3.1.2-2.3.7-3.7,3.2-3.7,5.1,0,3.1,2.9,4.1,5.5,4.2l-.4,1.3c-3-.1-6.3-1.7-6.3-5.3s1.5-4.5,3-5.4c-1.7.2-5.8.6-7.5.9v-1.4ZM187.4,263.3v1.7h2.8v-1.7h-2.8ZM183.7,263.3v1.7h2.7v-1.7h-2.7ZM180.1,263.3v1.7h2.6v-1.7h-2.6ZM179,262.3h12.4v3.6h-12.4v-3.6ZM181.1,269.6v1.2h8.1v-1.2h-8.1ZM181.1,271.6v1.2h8.1v-1.2h-8.1ZM181.1,267.6v1.2h8.1v-1.2h-8.1ZM179.9,266.8h10.5v6.9h-10.5v-6.9ZM186.4,274.5l.9-.6c1.8.5,3.8,1.2,5,1.8l-1.3.6c-1.1-.5-2.9-1.2-4.7-1.8ZM182.7,273.8l1.1.5c-1.3.8-3.4,1.6-5,2-.2-.2-.6-.7-.9-.9,1.7-.4,3.6-.9,4.8-1.6ZM196.9,263.8c0,.4-.1,1.1-.1,1.6,0,1,0,2.5.1,3.8.3,2.7,1,4.4,2.2,4.4s1.6-1.6,2-3.2l1,1.1c-1,2.7-1.9,3.6-3,3.6s-3-1.5-3.4-5.6c-.1-1.4-.2-3.3-.2-4.3s0-1.1,0-1.4h1.6ZM205.2,264.3c1.4,1.9,2.6,5.3,2.8,8l-1.3.5c-.3-2.9-1.2-6.2-2.8-8l1.2-.4ZM217.7,263.8h5.9v1.2h-5.9v-1.2ZM210.3,262.6h7.8v1.1h-7.8v-1.1ZM212.2,265.8h4.2v1.1h-4.2v-1.1ZM212.2,269.1h4.2v1.1h-4.2v-1.1ZM223.3,263.8h.4s.8.2.8.2c-.8,6.4-3.2,10.1-6.6,12.1-.2-.3-.5-.8-.8-1,3.2-1.6,5.6-5.4,6.2-11v-.3ZM219.2,265c.8,4.6,2.7,8.4,6,10.1-.3.2-.7.7-.8,1-3.5-2-5.3-5.9-6.3-10.9l1.2-.2ZM211.6,263h1.2v10.4h-1.2v-10.4ZM215.9,263h1.2v13.2h-1.2v-13.2ZM210,273c1.6-.2,4-.5,6.3-.9v1.1c-2.1.4-4.4.7-6.1,1l-.2-1.2ZM228.4,268.6c.5,0,1-.2,1.5-.4,1.1-.4,3.8-1.3,5.6-1.3s3.9,1.4,3.9,3.5c0,3.1-3,4.7-7.3,4.9l-.5-1.2c3.5,0,6.5-1.1,6.5-3.7s-1.1-2.4-2.7-2.4-5.5,1.5-6.5,1.9l-.5-1.3ZM32.3,290.4c.6,0,1.1,0,1.4,0,1-.1,4-.4,7-.7,1.7-.1,3.2-.2,4.3-.3v1.3c-.9,0-2.3,0-3.1.2-2.3.7-3.7,3.2-3.7,5.1,0,3.1,2.9,4.1,5.5,4.2l-.4,1.3c-3-.1-6.3-1.7-6.3-5.3s1.5-4.5,3-5.4c-1.7.2-5.8.6-7.5.9v-1.4ZM54.5,288.4c0,.4-.1.8-.2,1.1-.2,1.8-.9,6.7-.9,8.4s.9,2.5,2.7,2.5,4-1.1,4-2.7-.6-2.3-1.8-3.2l1.4-.3c1.1,1.2,1.6,2.3,1.6,3.7,0,2.4-2.1,3.8-5.3,3.8s-3.9-1-3.9-3.6.8-6.5.9-8.7c0-.6,0-.8,0-1.1h1.4ZM49.3,290.6c1.3.4,3.3.6,4.7.6s2.3,0,3.3-.2v1.2c-1.1,0-2,.1-3.3.1s-3.3-.2-4.7-.6v-1.2ZM48.9,294.5c1.6.5,3.4.7,4.9.7s2.2,0,3.3-.2v1.2c-1.1.1-2.1.1-3.2.1-1.7,0-3.7-.2-5.1-.6v-1.2ZM69.9,288.5c1.4.4,4.8,1.1,6.2,1.2l-.3,1.2c-1.5-.2-5-.9-6.2-1.2l.3-1.2ZM69.6,291.4c-.2,1.1-.5,3.5-.7,4.5,1.5-1.3,3.3-2,5.2-2s4.1,1.5,4.1,3.4c0,2.8-2.5,4.8-8.5,4.3l-.4-1.3c5.1.6,7.5-.8,7.5-3s-1.2-2.2-2.8-2.2-3.8.8-4.9,2.1c-.2.3-.4.5-.5.8l-1.2-.3c.3-1.5.7-4.8.8-6.5l1.3.2ZM86.8,288.4c1.7.4,4.8.8,6.3.8l-.2,1.2c-1.6-.1-4.4-.5-6.4-.8l.2-1.2ZM93.4,293c-.3.2-.7.5-.9.7-.6.6-2.4,2.2-3,2.9.2,0,.5,0,.6,0,.6,0,1,.5,1.2,1.1.2.5.4,1.3.5,1.8.2.6.6.9,1.4.9s2.3-.1,3-.3v1.3c-.8.1-2.2.2-3.1.2-1.3,0-2.1-.3-2.4-1.4-.2-.5-.4-1.4-.5-1.9-.2-.6-.5-.9-1-.9s-.8.2-1.2.6c-.6.6-2.3,2.4-3.2,3.6l-1.2-.8c.2-.2.5-.4.8-.7.7-.6,5-5,6.6-6.6-1.3,0-4,.3-4.9.4-.5,0-.9,0-1.3.1v-1.4c.3,0,.7,0,1.2,0,.9,0,4.6-.3,5.9-.4.3,0,.6-.1.8-.2l.8.9ZM103.3,301.9c-1-1.3-2.4-2.6-3.6-3.6l1-.9c1.2.9,2.6,2.4,3.6,3.5l-1.1.9ZM122.9,290.9h14v1.2h-14v-1.2ZM126.1,298.1h7.5v1.2h-7.5v-1.2ZM129.2,287.6h1.3v14.7h-1.3v-14.7ZM128.8,291.3l1.1.4c-1.4,3.4-3.9,6.4-6.7,8.1-.2-.3-.6-.8-.9-1,2.7-1.4,5.2-4.4,6.5-7.4ZM130.9,291.4c1.3,3,3.8,6,6.5,7.3-.3.3-.7.7-.9,1.1-2.8-1.6-5.3-4.6-6.7-8l1.1-.4ZM146.4,287.6h1.3v6.3h-1.3v-6.3ZM141,288.7l1.1-.4c.9,1.1,1.8,2.6,2.1,3.6l-1.1.5c-.4-1-1.2-2.6-2.1-3.7ZM151.9,288.1l1.3.4c-.7,1.4-1.6,2.9-2.3,4l-1-.4c.7-1.1,1.6-2.8,2.1-4ZM141.2,293.2h11.7v9.1h-1.3v-7.9h-10.5v-1.2ZM141.7,296.7h10.4v1.2h-10.4v-1.2ZM140.9,300.4h11.4v1.2h-11.4v-1.2ZM163.5,290.2c1.7.3,5,.2,6.6,0v1.3c-1.7.2-4.8.2-6.6,0v-1.3ZM164.1,296.7c-.1.6-.2,1-.2,1.5,0,.7.5,1.5,2.7,1.5s2.7-.1,4-.4v1.3c-1,.2-2.3.3-4,.3-2.7,0-3.9-.9-3.9-2.4s0-1.1.3-1.9h1.2ZM160.5,289c0,.3-.2.8-.3,1.1-.3,1.5-.8,4.3-.8,6.1s0,1.4.1,2.2c.3-.7.6-1.7.9-2.3l.7.5c-.4,1.1-1,2.8-1.1,3.6,0,.2,0,.5,0,.7,0,.2,0,.4,0,.6h-1.1c-.3-1.1-.6-2.9-.6-5.1s.5-5.1.7-6.4c0-.4,0-.8.1-1.1h1.4ZM180.9,291.2h6.8v1.1h-6.8v-1.1ZM187.1,291.2h1.2s0,.4,0,.6c-.2,6.8-.3,9.1-.8,9.7-.3.4-.7.6-1.2.6-.5,0-1.4,0-2.2,0,0-.4-.2-.8-.4-1.2.9,0,1.8,0,2.1,0,.3,0,.4,0,.6-.2.4-.5.6-2.8.8-9.4v-.3ZM183.5,287.6h1.2c0,6.1,0,11.8-4.5,14.7-.2-.3-.6-.7-.9-.9,4.3-2.7,4.2-8,4.2-13.9ZM175.1,288.3h5.2v10.4h-1.1v-9.3h-3v10.3h-1.1v-11.4ZM174,299.5c1.8-.4,4.6-.9,7.2-1.5v1.1c-2.4.6-5.1,1.2-7,1.7l-.2-1.2ZM175.7,291.8h4.1v1.1h-4.1v-1.1ZM175.7,295.2h4.1v1.1h-4.1v-1.1ZM197.6,288.5c0,.3-.1.6-.2,1,0,.6-.3,1.9-.5,2.9-.5,2.2-1.7,6.2-3.5,9.2l-1.3-.5c1.8-2.4,3.1-6.7,3.5-8.7.3-1.3.5-2.7.5-3.9h1.5ZM203.1,290.2c1,1.3,2.4,4.2,2.9,5.7l-1.2.6c-.5-1.6-1.7-4.5-2.8-5.8l1.2-.5ZM191.8,292c.5,0,.9,0,1.4,0,1.2,0,4.4-.4,5.5-.4s2.6.5,2.6,2.7-.3,4.4-.9,5.8c-.5,1.1-1.3,1.3-2.3,1.3s-1.4-.1-1.9-.2l-.2-1.3c.7.2,1.5.3,2,.3s1.1-.1,1.4-.8c.5-1.1.8-3.2.8-4.9s-.7-1.7-1.7-1.7-4.1.4-5,.4c-.4,0-1,.1-1.4.2v-1.4ZM213.2,288.4c-.3,1.2-.6,3.3-.7,4.5.7-1.6,2.3-3.6,4.4-3.6s3.6,2.1,3.6,5.5-2.8,6.4-6.8,7.1l-.8-1.2c3.5-.5,6.2-1.9,6.2-6s-.8-4.4-2.5-4.4-3.9,2.9-4,5c0,.6,0,1.2,0,2h-1.2c0-.5-.2-1.4-.2-2.4,0-1.5.3-3.9.5-5.2,0-.5,0-.9.1-1.4h1.4ZM234.2,288.3c0,.3,0,.6,0,1.1,0,.6,0,2.8,0,4.1,0,2.1.2,4.9.2,6s-.7,2.3-2.8,2.3-3.6-.8-3.6-2.4,1.4-2.4,3.7-2.4c3.4,0,6,1.8,7.2,2.8l-.7,1.1c-1.4-1.3-3.8-2.9-6.7-2.9s-2.4.6-2.4,1.3.6,1.3,2.2,1.3,1.7-.3,1.7-1.4-.2-4.3-.2-5.7v-4.2c0-.3,0-.8,0-1h1.4ZM228,290c1,.2,3,.4,4.1.4,2,0,4.2-.1,6.3-.5v1.2c-1.8.2-4.1.4-6.2.4s-3.1-.1-4.1-.3v-1.2ZM228,293.4c1.1.2,3,.3,4,.3,2.3,0,4.4-.2,6.5-.5v1.2c-2.2.3-4.1.4-6.5.4s-2.9,0-4-.2v-1.2ZM36.4,314.5c0,.5-.1,1.1-.2,1.6,0,1.8-.2,5.6-.2,8s1.1,2.4,2.6,2.4c2.9,0,4.6-1.6,5.7-3.3l.9,1.1c-1.1,1.5-3.2,3.5-6.7,3.5s-3.9-.9-3.9-3.6.2-6.4.2-8.1,0-1.2-.1-1.6h1.6ZM54.1,314.4c0,.4-.2,1-.3,1.3-.2,1.2-.6,3-1,4.6-.6,2.3-1.6,5.6-2.5,7.3l-1.4-.5c1-1.7,2.1-4.9,2.7-7.2.4-1.5.8-3.5.9-4.3,0-.4,0-1,0-1.3h1.5ZM50.5,317.1c1.8,0,4.1-.3,6.1-.8v1.2c-2,.4-4.4.7-6.1.7s-1.3,0-1.9,0v-1.2c.7,0,1.3.1,1.9.1ZM55.6,319.3c.8,0,1.9-.1,2.9-.1s1.9,0,2.8.1v1.2c-.9,0-1.8-.2-2.7-.2s-2,0-3,.2v-1.2ZM55.9,323.2c-.1.5-.2,1-.2,1.4,0,.8.4,1.5,2.7,1.5s2.1-.1,3.1-.3v1.3c-.9.1-2,.2-3.2.2-2.5,0-3.9-.8-3.9-2.4s0-1.2.2-1.9h1.2ZM66.1,323.1c1.3,0,2.4,1.1,2.4,2.4s-1.1,2.4-2.4,2.4-2.4-1.1-2.4-2.4,1.1-2.4,2.4-2.4ZM66.1,327.2c.9,0,1.6-.7,1.6-1.6s-.7-1.6-1.6-1.6-1.6.7-1.6,1.6.7,1.6,1.6,1.6Z"/>
      <g class="cls-11">
        <g class="cls-10">
          <g>
            <path class="cls-5" d="M357.4,315.1c-1.4-3.1-2.4-3.7-3.6-4.7-1.1-.9-2.2-1.5-2.8-1.7,0,0,0,0,0-.1,1.2-2.5,1.9-5.1,1.4-7.9-.4-2.1-1.6-3.9-2.7-5.7-1.2-1.9-2.3-4-2.5-6.2-.1-1.3.1-2.6.4-3.8.3-1.4.7-2.9,1.1-4.3.8-2.9,1.6-5.9,1.8-8.9.4-5.9-2.3-11.3-5.8-15.8-.8-1.1-1.6-2.1-2.2-3.3-.6-1.2-1.1-2.4-1.8-3.5-1.2-2.1-3.1-3.4-5.3-4.3-4.5-1.6-9.7-.9-14.2.5-2.3.7-4.6,1.6-6.7,2.7-2.1,1.1-4.1,2.3-5.7,3.9-1.6,1.5-2.5,3.4-3.5,5.4-.5,1-1.2,2.1-1.9,2.9-.6.7-1.4,1.2-2.1,1.7-1.9,1.3-3.9,2.6-5.4,4.4-1.3,1.5-2,3.2-2.7,5-.4,1.2-.8,2.5-1.1,3.8-.3,1.4-.3,2.7-.3,4.1,0,1-.6,1.7-1.3,2.4-.7.8-1.5,1.4-2.2,2.2-.7.8-1.2,1.7-1.3,2.8-.2,1.3,0,2.6.5,3.9.8,2.4,2.2,4.7,2,7.3-.3,2.5-2.2,4.4-3.5,6.3-.5.7-1,1.4-1.3,2.2-1.1.3-4.6,1.4-7.2,4.3-4.2,4.6-3,21.3-3,21.3,0,0,1.6,0,3.7-.6,0,3.3.3,6.5.4,9.8.2,5.2,0,10.5.4,15.7,0,.8.1,1.7.2,2.5l-2.9.4c.7-.2,1.4-.3,2-.4.8,0,.8-1.3,0-1.2-1.4,0-2.9.4-4.1,1.2-.6.4-1.1.9-1.2,1.6,0,.4,0,.7.2,1.1,0,.2.2.3.3.5,0,0,0,0,0,0-.1,0-.3.2-.4.2-.4.2-.8.4-1.2.7-.8.6-1,1.7-.3,2.4.1.1.3.2.4.3,0,0,.2.1.3.2,0,0-.1.2-.2.2-.4.3-.7.4-1,.8-.3.5-.3,1-.2,1.5.3,1.5,1.8,2.4,3.2,2.4.2,0,.3,0,.4-.1,1.6,1.4,2.6,3.4,3.9,5.1.7.9,1.4,1.8,2.3,2.5.7.5,1.6.9,2.4,1.3,1.7.7,3.6,1.1,5.4,1.4.7.1,1.4.2,2.1.4-4.8,13.4-9.7,28.3-14.2,41.7l-.2.5h71.5c0-.5.1-1,.2-1.6,1.2-8.8,4.6-17.9,1.8-26.3-1.2-3.6-2.8-5.9-4.4-9.6.8,0,1.5-.2,2.3-.3,1.2-.3,2.5-.7,3.5-1.5.5-.4.8-1,1.1-1.5.7-1.3,1.2-2.7,1.6-4.1.7-2.6.9-5.3,1.2-8,.3-3.9.6-7.7.8-11.6.2-4.6.3-9.3.3-13.9,0-4.1,0-8.2,0-12.4v-.7c1.2.1,2,.3,2,.3,0,0,.4-14.7-1.1-17.8h0Z"/>
            <path class="cls-3" d="M301.2,321.6l13.9,14s.2.7,1.5-.7,9.2-9.1,9.2-9.1c0,0,3.1.7,3.3,2.4s-.5,4.8.9,6.2c1.4,1.4,4.3,4.4,6.5,4.4s3.1.2,3.1.2l-1.4,27.9s-10.8,2.2-15.4,2.9c-4.6.7-12.5,1.9-15.2,1.7-2.7-.2-5.8,0-5.8,0,0,0,1.7-7.5,1.5-11.3-.2-3.8.5-18.5.3-19.9-.2-1.4-1.7-15.1-1.7-15.1l-.7-3.8h0Z"/>
            <path class="cls-6" d="M338.8,338.6c-.4,5.4-.7,10.9-.8,16.3,0,3.1-.1,6.1,0,9.2,0,1,0,2,0,2.9,0,.8,1.2.8,1.2,0,0-2.1,0-4.1,0-6.2,0-4,.1-8,.3-12,.2-3.4.4-6.8.6-10.2,0-.8-1.2-.8-1.2,0Z"/>
            <path class="cls-3" d="M341.4,331.9s5.3,0,9,.2c3.7.2,8.1.8,8.1.8,0,0,.4-14.7-1.1-17.8-1.4-3.1-2.4-3.7-3.6-4.7-1.6-1.3-3.2-1.9-3.2-1.9,0,0-3.1,4.7-3.4,6.9-.2,2.2.8,5.1.1,6.9-.7,1.8-4.2,4.9-4.8,6.5-.6,1.6-1.1,3.1-1.1,3.1h0Z"/>
            <path class="cls-6" d="M352.5,300.7c-.4-2.1-1.6-3.9-2.7-5.7-1.2-1.9-2.3-4-2.5-6.2-.1-1.3.1-2.6.4-3.8.3-1.4.7-2.9,1.1-4.3.8-2.9,1.6-5.9,1.8-8.9.4-5.9-2.3-11.3-5.8-15.8-.8-1.1-1.6-2.1-2.2-3.3-.6-1.2-1.1-2.4-1.8-3.5-1.2-2.1-3.1-3.4-5.3-4.3-4.5-1.6-9.7-.9-14.1.5-2.3.7-4.6,1.6-6.7,2.7-2.1,1.1-4.1,2.3-5.7,3.9-1.6,1.5-2.5,3.4-3.5,5.4-.5,1-1.2,2.1-1.9,2.9-.6.7-1.4,1.2-2.1,1.7-1.9,1.3-3.9,2.6-5.4,4.4-1.3,1.5-2,3.2-2.7,5-.4,1.2-.8,2.5-1,3.8-.3,1.4-.3,2.7-.3,4.1,0,1-.6,1.7-1.3,2.4-.7.8-1.5,1.4-2.2,2.2-.7.8-1.2,1.7-1.3,2.8-.2,1.3,0,2.6.5,3.9.8,2.4,2.2,4.7,2,7.3-.3,2.5-2.2,4.4-3.5,6.3-.7,1-1.4,2.1-1.7,3.3-.3,1.3-.2,2.7.2,4,.8,2.7,2.5,4.9,3.4,7.5.3.9.3,1.9.2,2.8-.1,1.1-.3,2.3-.4,3.4-.2,2.7.5,5.1,2.3,7.1.3.3.8.2.9-.2.3.1.4.2.4.2l2.3-13.8s3.1-15.6,3.7-19.6c.7-3.9.5-3.6,1.8-5.8,1.3-2.2,2.6-2.4,3.1-2.6.4-.2,1.7-1.1,2.2-1.5.5-.1.7-.8.2-1.1-1.7-.8-2.6-2.7-3-4.5-.7-2.7-.5-5.6,0-8.3.4-1.9,1-3.8,1.8-5.6.6-.4,1.2-.8,1.8-1.3,1.7-1.6,2.8-3.5,4.1-5.4,1.3-1.9,2.7-3.4,4.5-5.1,2.3-2.1,4.8-4,7.6-5.3,1.5-.7,3.1-1.2,4.7-1.1.8,0,1.5.2,2.3.3,1.5,1.2,2.8,2.7,4,4.1.6.7,1.2,1.5,1.7,2.3.7,1.3.8,2.8.8,4.2,0,2.9-.8,5.8-1,8.7-.2,2.6-.2,5.3.3,7.9.2,1.4.6,2.7,1.2,4,.2.4.4.8.6,1.1-.7.6-2.3,2.1-3.4,2.5-.8.3-1.3,0-1.6-.2,0-.1,0-.3.1-.4.2-.7-.9-1.1-1.2-.3-.9,2.8-2.1,5.4-3.4,8-.5,1.1-1.1,2.2-1.6,3.4-.5,1.1-1.1,2.4-1.3,3.6-.2,2.1,1.2,3.9,1.8,5.8.4,1.2.4,2.5,0,3.7-.3,1-1.2,1.6-1.8,2.4-.7.9-1.2,1.9-1.4,3.1-.2,1.3-.1,2.6,0,3.8,0,1.1.2,2.3.4,3.3.2,1,.8,1.8,1.5,2.5,1.3,1.2,3.3,1.9,4.2,3.6.6,1.1.3,2.3.3,3.4,0,1.1.3,1.9,1,2.7,1.4,1.5,3.1,2.6,4.9,3.6.9.5,1.9.9,2.8,1.1.8.2,1.7.3,2.5,0,1.5-.8,1.6-3.1,1.8-4.5.1-1,.2-2.1.3-3.1,0-.8.2-1.6.5-2.3,1-2,3.1-3.3,4.2-5.3.6-1.2.9-2.5.9-3.8,0-1.4-.3-2.7-.2-4,0-1.5.7-2.8,1.5-4.2.7-1.2,1.4-2.4,2-3.7,1.2-2.5,1.9-5.1,1.4-7.9h0ZM289.4,320.6c0-.3,0-.6,0-.9,0,.3,0,.6,0,.9Z"/>
            <path class="cls-6" d="M274.3,371c1.9,1.5,2.9,3.6,4.3,5.4.7.9,1.4,1.8,2.3,2.5.7.5,1.6.9,2.4,1.3,1.7.7,3.6,1.1,5.4,1.4,2.3.4,4.6.7,6.9,1,5,.6,9.9.9,14.9,1.3,5.7.5,11.3,1.2,16.9,1.9,5,.6,10,1.1,15,1.1,1.8,0,3.6,0,5.3-.4,1.2-.3,2.5-.7,3.5-1.5.5-.4.8-1,1.1-1.5.7-1.3,1.2-2.7,1.6-4.1.7-2.6.9-5.3,1.2-8,.3-3.9.6-7.7.8-11.6.2-4.6.3-9.3.3-13.9,0-4.1,0-8.2,0-12.4v-2.2c0-.8-1.2-.8-1.2,0,0,8.3,0,16.6-.3,24.8-.1,3.9-.2,7.9-.6,11.8-.2,2.2-.4,4.5-.6,6.7-.3,2.8-.9,5.5-2.2,8-.3.7-.6,1.1-1.1,1.6-.3.2-.9.6-1.3.7-1.4.5-2.9.7-4.4.8-4.5.3-9.1-.2-13.6-.6-5.8-.6-11.6-1.4-17.5-2-4.7-.5-9.5-.8-14.3-1.2-4.5-.4-9-.8-13.3-2-1.6-.4-3.3-.9-4.6-1.9-1.8-1.4-2.9-3.5-4.2-5.3-.7-.9-1.4-1.7-2.3-2.4-.6-.5-1.5.4-.9.9h0Z"/>
            <path class="cls-6" d="M308.4,303.3c0,.2,0,.1,0,.2,0,.1,0,.2,0,.4,0,.3-.2.7-.3,1-.3.8-.5,1.7-.8,2.5-.3.7-.5,1.4-.8,2-.4.7-.9,1.4-1.3,2.1-2.2,3.3-3.6,7-3.8,11-.2,4,.6,8,1,12,.6,5.9.7,11.8.7,17.6,0,3-.1,6-.3,9-.2,2.7-.5,5.4-1.2,8.1-.5,2.1-1.3,4.2-2.4,6-1,1.6-2.3,2.7-4.1,3.2-1.1.3-2.4.3-3.5,0-1.3-.4-2.3-1.4-3.3-2.3-1.6-1.4-3.1-2.9-4.3-4.6-.9-1.3-1.5-2.8-1.9-4.3-.7-2.4-1.1-4.8-1.4-7.3-.5-5-.5-10-.5-15,0-2.6-.2-5.2-.3-7.7,0-1.7-.2-3.5-.2-5.2,0-.6,0-1.1,0-1.7s-1.2-.8-1.2,0c0,3.7.3,7.4.4,11,.2,5.2,0,10.5.4,15.7.2,2.6.5,5.1,1,7.7.4,2.1,1,4.2,1.9,6.1.7,1.4,1.8,2.7,2.9,3.9.9.9,1.8,1.8,2.7,2.6,1,.9,2.1,1.8,3.4,2.2,2.2.7,4.8.2,6.7-1.1,1.5-1.1,2.5-2.7,3.2-4.3,2.3-4.9,2.7-10.3,3-15.6.3-6.2.2-12.4,0-18.6-.1-2.6-.4-5.3-.6-7.9-.2-2.1-.5-4.1-.6-6.2-.1-1.8-.1-3.6.2-5.4.3-1.9.9-3.7,1.8-5.5.5-1.1,1.2-2.1,1.8-3.1.4-.6.9-1.2,1.2-1.9.7-1.6,1.3-3.2,1.8-4.8.2-.5.3-1.1.3-1.6,0-.8-1.2-.8-1.2,0h0Z"/>
            <path class="cls-6" d="M330.4,286.3c1,.4,2.1,1.1,3.2.8.6-.2,1-.6,1.5-1,.5-.5,1.1-1,1.5-1.5.5-.6-.6-1.2-1-.6-.3.5-.8.8-1.2,1.2-.3.3-.6.6-1,.8-.7.3-1.7-.4-2.3-.7-.7-.3-1.3.7-.6,1h0Z"/>
            <path class="cls-6" d="M307.1,299.5c-1.4.7-2.4,3-.9,4.1,1.3.9,2.8.1,3.7-.9,1-1.2,1.6-2.7,1.7-4.2,0-.6,0-1.3-.3-1.8-.4-.7-1.2-1.3-1.8-1.7-2.2-1.3-4.9-1.5-7.4-1.1-.8.1-.4,1.3.3,1.2,1.8-.3,3.7-.2,5.4.5.7.3,1.4.7,2,1.2.4.3.5.5.5,1,.1,1.1-.3,2.2-.8,3.2-.4.8-1.1,1.8-2.1,1.9-.5,0-1-.2-1-.7,0-.6.5-1.2,1.1-1.5.7-.3,0-1.4-.6-1h0Z"/>
            <path class="cls-6" d="M307.7,299.5c-1-.5-2.2-.8-3.2-.2-.9.5-1.4,1.5-1.7,2.4-.3.9-.5,1.8-.4,2.7,0,.7.3,1.3.4,1.9.2,1.3-.1,2.6-.5,3.8-.2.7,1,1.1,1.2.3.4-1.3.6-2.7.5-4,0-.7-.3-1.5-.4-2.2,0-1,.2-2.2.7-3.1.6-1.1,1.6-1.1,2.7-.6.7.3,1.3-.7.6-1h0Z"/>
            <path class="cls-6" d="M312.2,296.5c.5-1.2,1.7-2.6,1-4-.4-.7-1.2-1.1-1.9-1.3-2-.8-4.3-1-6.4-1.1-.8,0-1.7-.1-2.5-.1-.8,0-.8,1.2,0,1.2,1.6,0,3.2.1,4.7.3,1,.1,1.9.3,2.9.5.6.2,1.5.4,2,.8.1.1.2.1.2.3,0-.1,0,0,0,0,0,.2,0,.3,0,.5-.1.8-.7,1.5-1,2.2-.3.7.7,1.3,1,.6Z"/>
            <path class="cls-6" d="M302.5,290c-3.1,0-4.6,3.8-5.3,6.3-1,3.2-1.4,6.5-1.9,9.7-.6,4.3-1.4,8.6-2.2,12.9-.7,4-1.3,7.9-2.2,11.8-1.7,6.8-4.2,13.3-6.4,19.9-.2.7.9,1.1,1.2.3,1.9-5.8,4.1-11.5,5.7-17.4,1.2-4.2,1.9-8.5,2.7-12.8.7-4.3,1.4-8.5,2.2-12.8.5-3.1.9-6.2,1.6-9.3.4-1.8.9-3.6,1.9-5.3.6-1.1,1.6-2.3,2.9-2.3.8,0,.8-1.2,0-1.2h0Z"/>
            <path class="cls-6" d="M302.8,291.1c.8-.4,1.5-1.1,2.2-1.7.8-.7,1.7-1.5,2.7-1.8.3,0,.6-.1.8,0,.4.3.6.9.7,1.3.4,1.1.6,2.4,1.4,3.2.5.6,1.4-.3.9-.9-.6-.7-.8-1.7-1.1-2.6-.3-.8-.7-1.9-1.5-2.3-1.6-.8-3.6,1-4.7,1.9-.7.5-1.3,1.2-2.1,1.6-.7.3,0,1.4.6,1h0Z"/>
            <path class="cls-6" d="M315.3,292.4c3.2,0,6.5-.5,9.4-1.9,1.5-.7,2.9-1.6,4.2-2.6.7-.6,1.3-1.2,1.8-2,.5-.7,1-1.5,1.7-2.2.5-.6-.3-1.4-.9-.9-1.2,1.2-2,2.7-3.2,3.9-1.2,1.1-2.6,1.9-4,2.6-2.8,1.3-5.9,1.7-8.9,1.7-.8,0-.8,1.2,0,1.2Z"/>
            <path class="cls-3" d="M288.4,329.9s-8,.9-10.1,1.4c-2.1.5-3.7.6-3.7.6,0,0-1.2-16.7,3-21.3,3.2-3.5,7.6-4.4,7.6-4.4,0,0-1.4,2.3,0,5.6,1.4,3.3,3.8,5.1,3.7,8-.2,3-.5,5.4-.5,6.8s.2,3.3.2,3.3h0Z"/>
            <path class="cls-6" d="M315.6,276.2c-.7-.4-1.3-.7-1.9-1.1-.4-.2-.8-.5-1.1-.8,0,0-.2-.3-.2-.3,0,0,0,.2,0,.3,0,.1,0,0,0,0,.2-.1.3-.3.5-.5.3-.3.6-.6.9-.9.7-.7,1.5-1.3,2.2-2,.5-.5,1.2-1,1.7-1.6.4-.5-.4-1.2-.8-.6-.4.6-1,1-1.5,1.5-.8.7-1.6,1.4-2.4,2.1-.5.4-1.1.9-1.5,1.4-.5.7.6,1.5,1.1,1.8.8.6,1.7,1.1,2.6,1.5.6.3,1-.6.4-.9h0Z"/>
            <path class="cls-6" d="M314.2,262.1c1.5-.4,3,.3,3.5,1.9.2.6,1.1.2.9-.4-.5-1.9-2.6-3-4.5-2.5-.6.2-.5,1.2.1,1h0Z"/>
            <path class="cls-6" d="M325.2,268.7c.7-.3,1.7,0,2.3.4.7.4,1.4,1.1,1.6,1.9.1.6,1.1.5,1-.1-.2-1.2-1.1-2.1-2.1-2.7-.9-.5-2.1-.9-3.2-.5-.6.3-.2,1.2.4.9Z"/>
            <path class="cls-6" d="M324.9,273.5c.3-.6.8-1.2,1.2-1.9.3-.5-.5-1.2-.8-.6-.4.7-.9,1.4-1.3,2.1-.3.6.6,1,.9.4Z"/>
            <path class="cls-6" d="M314,266.5c.5-.6.9-1.3,1.4-1.8.5-.5-.3-1.1-.8-.6-.5.6-.9,1.2-1.4,1.8-.4.5.4,1.1.8.6Z"/>
            <path class="cls-6" d="M308.7,277.6c0,1.7-.4,3.7.6,5.2,1.1,1.6,3,1.1,4.5.4.8-.3,1.5-.8,2.2-1.2.6-.3.2-1.2-.4-.9-.7.4-1.5.8-2.2,1.2-.8.3-1.7.7-2.6.5-.9-.3-1.1-1.4-1.2-2.2,0-1,0-2.1,0-3.1,0-.6-1-.5-1,.1h0Z"/>
          </g>
        </g>
      </g>
    </g>
  </g>
</svg>