<svg width="10" height="20" viewBox="0 0 10 20" fill="none" xmlns="http://www.w3.org/2000/svg">
<path d="M0.444114 0.526183C0.303332 0.691892 0.191641 0.888724 0.115433 1.10541C0.0392265 1.3221 0 1.55438 0 1.78897C0 2.02356 0.0392265 2.25584 0.115433 2.47253C0.191641 2.68922 0.303332 2.88605 0.444114 3.05176L6.33639 10.0016L0.444114 16.9514C0.160165 17.2863 0.000643035 17.7405 0.000643035 18.2142C0.000643035 18.6878 0.160165 19.142 0.444114 19.4769C0.728064 19.8119 1.11318 20 1.51475 20C1.91631 20 2.30143 19.8119 2.58538 19.4769L9.55589 11.2554C9.69667 11.0897 9.80836 10.8929 9.88457 10.6762C9.96078 10.4595 10 10.2272 10 9.99261C10 9.75802 9.96078 9.52573 9.88457 9.30904C9.80836 9.09236 9.69667 8.89553 9.55589 8.72982L2.58538 0.508271C2.0083 -0.17238 1.03638 -0.17238 0.444114 0.526183Z" fill="white"/>
</svg>
