<svg width="60" height="60" viewBox="0 0 60 60" fill="none" xmlns="http://www.w3.org/2000/svg">
<circle cx="20" cy="40" r="20" fill="#F4FAFF"/>
<path d="M47.1666 26.5755L29.6695 15.4661L12.168 26.5712" stroke="#1C5DB4" stroke-width="2.6" stroke-linecap="round" stroke-linejoin="round"/>
<path d="M42.3752 23.5068L42.3709 45.2855H16.9668V23.5068" stroke="#1C5DB4" stroke-width="2.6" stroke-linecap="round" stroke-linejoin="round"/>
<path d="M18.5039 22.1904V12.4016H24.5852V18.211" stroke="#1C5DB4" stroke-width="2.6" stroke-linecap="round" stroke-linejoin="round"/>
<path d="M32.8972 31.3231H26.4404V37.7799H32.8972V31.3231Z" stroke="#1C5DB4" stroke-width="2.6" stroke-linecap="round" stroke-linejoin="round"/>
<path d="M8.11877 19.959L5.25293 23.0795L8.11877 26.2L5.25293 29.3248L8.11877 32.4496L5.25293 35.57L8.11877 38.6948" stroke="#1C5DB4" stroke-width="2.6" stroke-linecap="round" stroke-linejoin="round"/>
<path d="M51.5381 19.959L54.4039 23.0795L51.5381 26.2L54.4039 29.3248L51.5381 32.4496L54.4039 35.57L51.5381 38.6948" stroke="#1C5DB4" stroke-width="2.6" stroke-linecap="round" stroke-linejoin="round"/>
<path d="M3 45.2855H57.4553" stroke="#1C5DB4" stroke-width="2.6" stroke-linecap="round" stroke-linejoin="round"/>
<path d="M24.4558 45.6394L19.7686 49.8734L26.3289 52.1652L22.7682 54.9879L25.9534 57.1028" stroke="#1C5DB4" stroke-width="2.6" stroke-linecap="round" stroke-linejoin="round"/>
<path d="M33.3848 45.8163L37.321 50.9308L33.5704 53.1363L35.068 55.8683" stroke="#1C5DB4" stroke-width="2.6" stroke-linecap="round" stroke-linejoin="round"/>
<path d="M17.1143 4.25305L19.1514 8.47844" stroke="#1C5DB4" stroke-width="2.6" stroke-linecap="round" stroke-linejoin="round"/>
<path d="M29.6348 2V7.36914" stroke="#1C5DB4" stroke-width="2.6" stroke-linecap="round" stroke-linejoin="round"/>
<path d="M42.1553 4.25305L40.1182 8.47844" stroke="#1C5DB4" stroke-width="2.6" stroke-linecap="round" stroke-linejoin="round"/>
</svg>
