<svg width="60" height="60" viewBox="0 0 60 60" fill="none" xmlns="http://www.w3.org/2000/svg">
<circle cx="20" cy="40" r="20" fill="#F4FAFF"/>
<path d="M11.496 20.581C11.4953 20.581 11.4947 20.582 11.494 20.582C10.7179 20.582 10.0891 21.2114 10.0891 21.9876C10.089 22.7646 10.7189 23.3945 11.4959 23.3945L48.2954 23.3956C49.0724 23.3956 49.7022 22.7659 49.7022 21.989C49.7022 21.212 49.0724 20.582 48.2955 20.582L11.496 20.581ZM13.3939 27.8586L13.3934 27.8598C13.392 27.8598 13.3906 27.8598 13.3891 27.8598C13.0175 27.8598 12.6614 28.0078 12.3986 28.2705C12.1345 28.5345 11.9862 28.8925 11.9862 29.2658V32.0304C11.9862 32.4037 12.1345 32.7618 12.3986 33.0257C12.6624 33.2894 13.0202 33.4376 13.3934 33.4376L13.3939 33.4387L16.1574 33.4365C16.9344 33.4362 17.564 32.8063 17.564 32.0294V29.267C17.564 28.49 16.9344 27.8601 16.1574 27.8598L13.3939 27.8586ZM24.0585 27.8586L24.058 27.8598C24.0565 27.8598 24.0551 27.8598 24.0536 27.8598C23.6821 27.8598 23.3259 28.0078 23.0631 28.2705C22.7991 28.5345 22.6508 28.8925 22.6508 29.2658V32.0304C22.6508 32.4037 22.7991 32.7618 23.0631 33.0257C23.3269 33.2894 23.6848 33.4376 24.058 33.4376L24.0585 33.4387L26.822 33.4365C27.5989 33.4362 28.2285 32.8063 28.2285 32.0294V29.267C28.2285 28.49 27.5989 27.8601 26.822 27.8598L24.0585 27.8586ZM13.3939 37.9382L13.3934 37.9394C13.3919 37.9394 13.3904 37.9394 13.3889 37.9394C13.0174 37.9394 12.6614 38.0875 12.3986 38.3502C12.1345 38.6141 11.9862 38.9722 11.9862 39.3454V42.1101C11.9862 42.4834 12.1345 42.8414 12.3986 43.1053C12.6624 43.369 13.0202 43.5172 13.3934 43.5172L13.3939 43.5184L16.1574 43.5161C16.9344 43.5158 17.564 42.8858 17.564 42.1088V39.3466C17.564 38.5697 16.9344 37.9397 16.1574 37.9394L13.3939 37.9382ZM24.0585 37.9382L24.058 37.9394C24.0564 37.9394 24.0549 37.9394 24.0534 37.9394C23.6819 37.9394 23.3259 38.0875 23.0631 38.3502C22.7991 38.6141 22.6508 38.9722 22.6508 39.3454V42.1101C22.6508 42.4834 22.7991 42.8414 23.0631 43.1053C23.3269 43.369 23.6848 43.5172 24.058 43.5172L24.0585 43.5184L26.822 43.5161C27.5989 43.5158 28.2285 42.8858 28.2285 42.1088V39.3466C28.2285 38.5697 27.5989 37.9397 26.822 37.9394L24.0585 37.9382ZM44.0608 34.2957C43.2856 34.2957 42.6573 34.9241 42.6573 35.6992V39.8497L42.6529 39.8509C42.0452 40.2875 41.6495 41.0014 41.6495 41.8076V41.8096C41.6495 43.1413 42.7291 44.2209 44.0609 44.2209C44.87 44.2209 45.586 43.8224 46.0234 43.2111L46.0278 43.2122L49.5264 43.2111C50.3015 43.2111 50.9298 42.5829 50.9298 41.8079C50.9299 41.0328 50.3016 40.4044 49.5265 40.4044L46.0266 40.4044L46.0222 40.4055C45.8691 40.1907 45.6819 40.0031 45.4686 39.8496L45.4643 39.8507V35.6992C45.4643 34.9241 44.8359 34.2957 44.0608 34.2957ZM17.4979 5V5.00122L17.4956 5.00237C17.4949 5.00237 17.4943 5.00237 17.4935 5.00237C16.7185 5.00237 16.091 5.63139 16.091 6.40701V9.04654L8.20111 9.04741V9.04863C5.33681 9.0569 3.01621 11.374 3 14.2369L3.00018 46.0015C3.04309 48.8478 5.36378 51.142 8.2203 51.1432L29.3502 51.1455C30.1253 51.1444 30.7536 50.516 30.7537 49.7408C30.7537 48.9656 30.1253 48.3374 29.3502 48.3374L8.2203 48.3277C6.90451 48.3277 5.83534 47.2717 5.81417 45.962L5.81453 14.2263C5.8356 12.9223 6.89562 11.8696 8.20355 11.8606L16.091 11.863V13.5762L16.0869 13.5773C15.1656 14.0771 14.5403 15.0536 14.5403 16.1762C14.5403 17.8096 15.8644 19.1349 17.4979 19.1349C19.1313 19.1349 20.4554 17.8107 20.4554 16.1773C20.4554 15.0547 19.8301 14.0772 18.9089 13.5762L18.9048 13.5774V11.8629L40.8866 11.8621V11.8634V13.5763L40.8823 13.5775C39.9611 14.0774 39.336 15.0537 39.336 16.1762C39.336 17.8096 40.6601 19.1349 42.2935 19.1349C43.9269 19.1349 45.2511 17.8107 45.2511 16.1773C45.2511 15.0548 44.6259 14.0774 43.7048 13.5763L43.7005 13.5775V11.8634L51.5736 11.8627L51.5749 11.8638L51.5771 11.8649H51.5792C52.891 11.8649 53.9556 12.9193 53.9768 14.2262L53.9843 29.7254C53.9843 30.5005 54.6126 31.1289 55.3878 31.1289C56.1629 31.1289 56.7913 30.5005 56.7913 29.7254V14.2367C56.7752 11.3754 54.4572 9.05942 51.5952 9.04626L43.7005 9.04647V6.40701C43.7005 5.62998 43.0706 5 42.2936 5C41.5165 5 40.8866 5.62998 40.8866 6.40701V9.04654L18.9048 9.04676V6.40701C18.9048 5.62998 18.2749 5 17.4979 5ZM44.0609 31.8857C49.5413 31.8857 53.9839 36.3281 53.9839 41.8086C53.9839 47.2889 49.5413 51.7315 44.0609 51.7315C38.5806 51.7315 34.138 47.2889 34.138 41.8086C34.138 36.328 38.5806 31.8857 44.0609 31.8857ZM44.0609 29.0782C37.0301 29.0782 31.3306 34.7776 31.3306 41.8086C31.3306 48.8392 37.0301 54.5389 44.0609 54.5389C51.0918 54.5389 56.7913 48.8392 56.7913 41.8086C56.7913 34.7777 51.0918 29.0782 44.0609 29.0782Z" fill="#1C5DB4"/>
</svg>
