<svg width="13" height="11" viewBox="0 0 13 11" fill="none" xmlns="http://www.w3.org/2000/svg">
<g clip-path="url(#clip0_456_256)">
<path fill-rule="evenodd" clip-rule="evenodd" d="M0.666992 1.95825C0.666992 1.62673 0.798688 1.30879 1.03311 1.07437C1.26753 0.839948 1.58547 0.708252 1.91699 0.708252H11.0837C11.4152 0.708252 11.7331 0.839948 11.9675 1.07437C12.202 1.30879 12.3337 1.62673 12.3337 1.95825V2.24325L6.81949 5.91992C6.72324 5.97785 6.61265 6.00758 6.50033 6.00575C6.388 6.00758 6.27741 5.97785 6.18116 5.91992L0.666992 2.24325V1.95825ZM0.666992 3.49492V9.04158C0.666992 9.37311 0.798688 9.69105 1.03311 9.92547C1.26753 10.1599 1.58547 10.2916 1.91699 10.2916H11.0837C11.4152 10.2916 11.7331 10.1599 11.9675 9.92547C12.202 9.69105 12.3337 9.37311 12.3337 9.04158V3.49492L7.39449 6.78825L7.39033 6.79159C7.12443 6.96068 6.81542 7.0495 6.50033 7.04742C6.18783 7.04742 5.87283 6.96242 5.61033 6.79159L5.60616 6.78825L0.666992 3.49492Z" fill="white"/>
</g>
<defs>
<clipPath id="clip0_456_256">
<rect width="11.6667" height="10" fill="white" transform="translate(0.666992 0.5)"/>
</clipPath>
</defs>
</svg>
