<?xml version="1.0" encoding="utf-8"?>
<!-- Generator: Adobe Illustrator 28.2.0, SVG Export Plug-In . SVG Version: 6.00 Build 0)  -->
<svg version="1.1" id="Layer_1" xmlns="http://www.w3.org/2000/svg" xmlns:xlink="http://www.w3.org/1999/xlink" x="0px" y="0px"
	 viewBox="0 0 60 62" style="enable-background:new 0 0 60 62;" xml:space="preserve">
<style type="text/css">
	.st0{clip-path:url(#SVGID_00000183226744804482185200000007011129495168038320_);}
	.st1{fill-rule:evenodd;clip-rule:evenodd;fill:#1C5DB4;stroke:#1C5DB4;stroke-width:0.6;}
</style>
<g>
	<defs>
		<rect id="SVGID_1_" width="60" height="62"/>
	</defs>
	<clipPath id="SVGID_00000104708393337972146580000016663233450559753891_">
		<use xlink:href="#SVGID_1_"  style="overflow:visible;"/>
	</clipPath>
	<g style="clip-path:url(#SVGID_00000104708393337972146580000016663233450559753891_);">
		<path class="st1" d="M52.2,16.5L51,15.6L40.2,29.5l1.2,0.9L52.2,16.5z M54.8,18.5L44,32.4l-1.2-0.9l10.8-13.9L54.8,18.5L54.8,18.5
			z M52.1,14.2l1.4-1.8c0,0,0.1-0.1,0.1-0.1c0.2-0.3,0.6-0.5,1-0.5c0.4,0,0.8,0,1.1,0.3c0,0,0.1,0.1,0.1,0.1l1.3,1
			c0.3,0.2,0.5,0.6,0.6,1c0,0.4-0.1,0.8-0.3,1.1l-1.4,1.8L52.1,14.2L52.1,14.2z M39.6,31.3l-0.2,2v0l-0.1,1.1l3-1.1l-1.3-1
			L39.6,31.3L39.6,31.3z M6.3,27.4L13,54.3c0.1,0.2,0.2,0.5,0.3,0.7c0.2,0.2,0.3,0.4,0.6,0.5c0.4,0.2,0.9,0.3,1.3,0.3h0L44,48.7
			l0.7,5.5c0,0.1,0,0.1,0,0.2c0,0-0.1,0.1-0.1,0.1l-34,4.7h0c0,0-0.1,0-0.1,0c0,0-0.1-0.1-0.1-0.1v0L6.3,27.4L6.3,27.4z M37.5,7.2
			L32,3.8l1.1,4.5L37.5,7.2L37.5,7.2z M31.1,1.2l9.3,5.6c0.1,0.1,0.2,0.1,0.3,0.2c0.1,0.1,0.1,0.2,0.1,0.3l3.5,14l5.9-7.6l2-2.6
			c0.5-0.7,1.3-1.1,2.2-1.3c0.9-0.1,1.8,0.1,2.5,0.7l1.4,1.1c0.7,0.5,1.1,1.3,1.3,2.2c0.1,0.9-0.1,1.8-0.7,2.5l-12,15.4l3.3,13.4
			c0.1,0.3,0.1,0.5,0,0.8c0,0.3-0.1,0.5-0.3,0.7c-0.1,0.2-0.3,0.4-0.5,0.6c-0.2,0.2-0.4,0.3-0.7,0.3l-2.9,0.7l0.7,5.7
			c0.1,0.5-0.1,1-0.4,1.5c-0.2,0.2-0.3,0.4-0.6,0.5c-0.2,0.1-0.5,0.2-0.7,0.3l-34,4.7h0h0h0c-0.3,0-0.5,0-0.8-0.1
			c-0.2-0.1-0.5-0.2-0.7-0.4c-0.4-0.3-0.7-0.8-0.7-1.3v0v0v0l-6.1-47c0-0.1,0-0.1,0-0.2v0l-0.5-2C1.9,9.5,2,9,2.3,8.6
			C2.5,8.1,3,7.8,3.5,7.7L30.3,1h0c0.1,0,0.3,0,0.4,0C30.8,1,31,1.1,31.1,1.2L31.1,1.2z M14.1,26.9l22.2-5.5c0.1,0,0.2-0.1,0.3-0.2
			c0.1-0.1,0.2-0.2,0.2-0.3c0.1-0.1,0.1-0.2,0.1-0.3c0-0.1,0-0.2,0-0.4c0-0.1-0.1-0.2-0.2-0.3c-0.1-0.1-0.2-0.2-0.3-0.2
			c-0.1-0.1-0.2-0.1-0.3-0.1c-0.1,0-0.2,0-0.4,0l-22.2,5.5c-0.2,0.1-0.4,0.2-0.6,0.4c-0.1,0.2-0.2,0.5-0.1,0.7
			c0.1,0.2,0.2,0.4,0.4,0.6C13.7,27,13.9,27,14.1,26.9z M15.7,33.2l22.2-5.5c0.1,0,0.2-0.1,0.3-0.1c0.1-0.1,0.2-0.2,0.2-0.3
			c0.1-0.1,0.1-0.2,0.1-0.3c0-0.1,0-0.2,0-0.4c0-0.1-0.1-0.2-0.2-0.3c-0.1-0.1-0.2-0.2-0.3-0.2s-0.2-0.1-0.3-0.1c-0.1,0-0.2,0-0.4,0
			l-22.2,5.5c-0.1,0-0.2,0.1-0.3,0.1c-0.1,0.1-0.2,0.2-0.2,0.3c-0.1,0.1-0.1,0.2-0.1,0.3c0,0.1,0,0.2,0,0.4c0,0.1,0.1,0.2,0.2,0.3
			c0.1,0.1,0.2,0.2,0.3,0.2c0.1,0.1,0.2,0.1,0.3,0.1C15.5,33.2,15.6,33.2,15.7,33.2L15.7,33.2z M17.2,39.5l20.2-5l-0.1,1.2
			c0,0.2,0,0.3,0,0.4c0.1,0.2,0.3,0.4,0.5,0.5c0.2,0.1,0.5,0.1,0.7,0l5.9-2.2c0.2-0.1,0.3-0.2,0.4-0.3l0.5-0.6l3,12c0,0,0,0,0,0.1
			c0,0,0,0,0,0.1c0,0,0,0.1-0.1,0.1L14.9,54c0,0-0.1,0-0.1,0c0,0-0.1-0.1-0.1-0.1L3.8,9.6c0,0,0-0.1,0-0.1c0,0,0-0.1,0.1-0.1l26-6.4
			l1.4,5.8c0.1,0.2,0.2,0.4,0.3,0.6c0.1,0.2,0.3,0.3,0.5,0.5c0.2,0.1,0.4,0.2,0.6,0.2s0.5,0,0.7,0l5.8-1.4l3.6,14.5L38.2,29
			c-0.1,0.1-0.2,0.3-0.2,0.5l-0.3,3l-20.9,5.2c-0.1,0-0.2,0.1-0.3,0.1c-0.1,0.1-0.2,0.2-0.2,0.3c-0.1,0.1-0.1,0.2-0.1,0.3
			c0,0.1,0,0.2,0,0.4c0,0.1,0.1,0.2,0.1,0.3c0.1,0.1,0.2,0.2,0.3,0.2c0.1,0.1,0.2,0.1,0.3,0.1C17,39.5,17.1,39.5,17.2,39.5z
			 M18.8,45.7L41,40.2c0.2-0.1,0.4-0.2,0.6-0.4c0.1-0.2,0.2-0.5,0.1-0.7c-0.1-0.2-0.2-0.4-0.4-0.6c-0.2-0.1-0.5-0.2-0.7-0.1
			l-22.2,5.5c-0.2,0.1-0.4,0.2-0.6,0.4c-0.1,0.2-0.2,0.5-0.1,0.7c0.1,0.2,0.2,0.4,0.4,0.6C18.3,45.7,18.6,45.8,18.8,45.7z
			 M12.2,20.7l22.2-5.5c0.1,0,0.2-0.1,0.3-0.1c0.1-0.1,0.2-0.2,0.2-0.3c0.1-0.1,0.1-0.2,0.1-0.3c0-0.1,0-0.2,0-0.4
			c0-0.1-0.1-0.2-0.1-0.3c-0.1-0.1-0.2-0.2-0.3-0.2c-0.1-0.1-0.2-0.1-0.3-0.1c-0.1,0-0.2,0-0.4,0l-22.2,5.5
			c-0.2,0.1-0.4,0.2-0.6,0.4C11,19.6,11,19.8,11.1,20c0.1,0.2,0.2,0.4,0.4,0.6C11.7,20.7,11.9,20.8,12.2,20.7z"/>
	</g>
</g>
</svg>
