<?xml version="1.0" encoding="utf-8"?>
<!-- Generator: Adobe Illustrator 28.2.0, SVG Export Plug-In . SVG Version: 6.00 Build 0)  -->
<svg version="1.1" id="Layer_1" xmlns="http://www.w3.org/2000/svg" xmlns:xlink="http://www.w3.org/1999/xlink" x="0px" y="0px"
	 viewBox="0 0 60 60" style="enable-background:new 0 0 60 60;" xml:space="preserve">
<style type="text/css">
	.st0{fill:#1C5DB4;stroke:#1C5DB4;}
</style>
<path class="st0" d="M58.7,13.4c0,0,0-0.1,0-0.1c0,0,0,0,0,0c0,0,0,0,0,0c0,0,0-0.1-0.1-0.1c0,0,0,0,0,0c0,0-0.1-0.1-0.1-0.1
	c0,0,0,0,0,0c-0.1,0-0.1,0-0.2,0H12.6c-0.1,0-0.2,0-0.3,0.1L2.2,20.4c0,0,0,0,0,0c0,0,0,0,0,0c0,0-0.1,0.1-0.1,0.1c0,0,0,0,0,0
	c0,0.1,0,0.1,0,0.2v26c0,0.2,0.2,0.4,0.4,0.4h45.6c0.1,0,0.1,0,0.2,0c0,0,0,0,0,0c0,0,0,0,0.1,0l10.1-7.4c0.1-0.1,0.2-0.2,0.2-0.4
	L58.7,13.4L58.7,13.4z M48.5,26.4V21l9.3-6.7v5.4L48.5,26.4z M57.8,20.8v5.4l-9.3,6.7v-5.4L57.8,20.8L57.8,20.8z M2.9,21.2h17.8v5.6
	H2.9V21.2z M2.9,27.7h17.8v5.6H2.9V27.7z M20.7,46.4H2.9v-5.6h17.8V46.4z M20.7,39.9H2.9v-5.6h17.8V39.9z M21,20.4H3.8l8.9-6.5h17
	l-1.4,1H16.3c-0.1,0-0.2,0-0.2,0.1c-0.7,0.4-2.3,0.8-3.6,0.8c-0.1,0-0.2,0-0.3,0.1l-3.7,2.7c-0.2,0.1-0.2,0.3-0.2,0.5
	c0.1,0.2,0.2,0.3,0.4,0.3h13.6L21,20.4z M27.1,15.8l-3.3,2.4l-0.3,0.2H10.1l2.5-1.8c1.4,0,3-0.4,3.8-0.9H27.1L27.1,15.8z M21.6,26.9
	v-5.6h8.7v5.6H21.6z M30.2,27.7v5.6h-8.7v-5.6H30.2z M30.2,46.4h-8.7v-5.6h8.7V46.4z M30.2,39.9h-8.7v-5.6h8.7V39.9z M30.5,20.4
	h-8.1l8.7-6.5h8.1L30.5,20.4L30.5,20.4z M49.3,15.8c0,0.1,0,0.1,0,0.1c0.1,0.3,0.3,0.5,0.7,0.6l-2.7,1.9H34.6l3.6-2.7L49.3,15.8
	L49.3,15.8z M31.1,26.9v-5.6h16.5v5.6H31.1z M47.6,27.7v5.6H31.1v-5.6H47.6z M47.6,46.4H31.1v-5.6h16.5V46.4z M47.6,39.9H31.1v-5.6
	h16.5V39.9z M47.9,20.4H32l1.4-1h14.1c0.1,0,0.2,0,0.3-0.1l3.7-2.7c0.2-0.1,0.2-0.3,0.2-0.5s-0.2-0.3-0.4-0.3c-0.4,0-0.7,0-0.9-0.1
	c0.1-0.1,0.2-0.3,0.1-0.5c-0.1-0.2-0.2-0.3-0.4-0.3H39.4l1.4-1h16.1L47.9,20.4L47.9,20.4z M57.8,39.3L48.5,46v-5.4l2-1.5l7.2-5.2
	L57.8,39.3L57.8,39.3z M57.8,32.8L50.5,38l-2,1.4v-5.4l9.3-6.7V32.8z"/>
</svg>
