<svg width="60" height="60" viewBox="0 0 60 60" fill="none" xmlns="http://www.w3.org/2000/svg">
<circle cx="20" cy="40" r="20" fill="#F4FAFF"/>
<path d="M31.1561 25.6897H31.185C31.6409 25.6854 32.0906 25.5843 32.5044 25.3929C32.9182 25.2015 33.2865 24.9243 33.585 24.5797L44.3978 12.0986C45.315 11.0391 45.9085 9.73835 46.1075 8.3512C46.3066 6.96406 46.1029 5.54892 45.5206 4.27425C44.9384 2.99958 44.0021 1.91906 42.8233 1.1613C41.6445 0.403536 40.2728 0.000450056 38.8714 2.0837e-05H38.4643C37.3674 -0.00260432 36.2842 0.242852 35.2956 0.718024C34.3071 1.1932 33.4388 1.88578 32.7557 2.74395L31.185 4.71431L29.6089 2.74395C28.9258 1.88584 28.0575 1.1933 27.0689 0.718131C26.0804 0.242965 24.9972 -0.00252617 23.9003 2.0837e-05H23.2939C22.2542 0.000219679 21.2265 0.222022 20.2793 0.650644C19.3321 1.07927 18.4871 1.70486 17.8007 2.48574L17.6764 2.62824C16.4954 3.97331 15.8486 5.70473 15.8585 7.49466C15.8684 9.28459 16.5342 11.0088 17.73 12.3407L28.7657 24.6236C29.0671 24.959 29.4356 25.2273 29.8475 25.4109C30.2593 25.5946 30.7051 25.6896 31.1561 25.6897ZM19.3243 10.9093C18.4798 9.96803 18.0095 8.74993 18.0024 7.48538C17.9953 6.22083 18.4519 4.99751 19.2857 4.04681L19.4089 3.90431C19.8943 3.35266 20.4916 2.91074 21.1611 2.60795C21.8307 2.30515 22.557 2.14844 23.2918 2.14824H23.8982C24.6737 2.14642 25.4396 2.32002 26.1385 2.65604C26.8375 2.99205 27.4514 3.48179 27.9343 4.08859L30.3461 7.10359C30.4501 7.22345 30.5786 7.31957 30.7229 7.38544C30.8673 7.45132 31.0242 7.48541 31.1828 7.48541C31.3415 7.48541 31.4984 7.45132 31.6427 7.38544C31.7871 7.31957 31.9156 7.22345 32.0196 7.10359L34.4314 4.08859C34.9135 3.48123 35.5266 2.99073 36.225 2.65379C36.9233 2.31685 37.6889 2.14219 38.4643 2.14288H38.8661C39.8569 2.14283 40.8269 2.4276 41.6605 2.96327C42.494 3.49893 43.1561 4.26291 43.5677 5.16421C43.9794 6.06551 44.1233 7.06613 43.9823 8.0469C43.8413 9.02767 43.4213 9.94725 42.7725 10.6961L31.9661 23.1761C31.8671 23.2917 31.7443 23.3846 31.6062 23.4486C31.4681 23.5126 31.3179 23.5461 31.1657 23.5468C31.0138 23.5483 30.8633 23.5174 30.7242 23.4563C30.5851 23.3951 30.4606 23.3051 30.3589 23.1922L19.3243 10.9093Z" fill="#1C5DB4"/>
<path d="M50.143 16.0468C49.0063 16.0468 47.9163 16.4983 47.1125 17.302C46.3088 18.1057 45.8573 19.1958 45.8573 20.3325V20.9282C45.2087 20.5425 44.469 20.3369 43.7144 20.3325C42.5778 20.3325 41.4877 20.784 40.684 21.5877C39.8802 22.3915 39.4287 23.4815 39.4287 24.6182V32.7289C39.3891 32.7493 39.3508 32.7722 39.3141 32.7975C39.2495 32.8268 39.1881 32.8627 39.1308 32.9046C39.1255 32.9046 39.1191 32.91 39.1137 32.9143L32.9894 38.4085C32.114 39.1986 31.3913 40.1429 30.8573 41.1943C30.3233 40.1429 29.6005 39.1986 28.7251 38.4085L22.6008 32.9153C22.6008 32.9153 22.5891 32.91 22.5837 32.9057C22.5249 32.8638 22.4621 32.8279 22.3962 32.7985C22.3618 32.775 22.326 32.7535 22.2891 32.7343V24.6182C22.2891 23.4815 21.8375 22.3915 21.0338 21.5877C20.2301 20.784 19.14 20.3325 18.0033 20.3325C17.2488 20.3369 16.5091 20.5425 15.8605 20.9282V20.3325C15.8605 19.1958 15.409 18.1057 14.6052 17.302C13.8015 16.4983 12.7114 16.0468 11.5748 16.0468C10.4381 16.0468 9.34805 16.4983 8.54432 17.302C7.74059 18.1057 7.28906 19.1958 7.28906 20.3325V36.2271C7.28903 37.2462 7.57969 38.2442 8.12692 39.1039L14.7858 49.5728V58.9039C14.7858 59.1881 14.8987 59.4606 15.0997 59.6615C15.3006 59.8624 15.5731 59.9753 15.8573 59.9753H45.8573C46.1414 59.9753 46.414 59.8624 46.6149 59.6615C46.8158 59.4606 46.9287 59.1881 46.9287 58.9039V49.5728L53.5908 39.1039C54.1381 38.2442 54.4287 37.2462 54.4287 36.2271V20.3325C54.4287 19.1958 53.9772 18.1057 53.1734 17.302C52.3697 16.4983 51.2796 16.0468 50.143 16.0468ZM15.8573 24.6182C15.8573 24.0499 16.083 23.5048 16.4849 23.103C16.8868 22.7011 17.4318 22.4753 18.0001 22.4753C18.5685 22.4753 19.1135 22.7011 19.5154 23.103C19.9172 23.5048 20.143 24.0499 20.143 24.6182V32.61C19.5303 32.7378 18.9557 33.0062 18.4643 33.3938C17.9729 33.7814 17.5782 34.2778 17.3112 34.8439L15.8573 32.8414V24.6182ZM29.7858 46.0468V57.8325H16.9287V49.261C16.9288 49.0573 16.8709 48.8577 16.7616 48.6857L9.9312 37.9521C9.60243 37.4369 9.42805 36.8383 9.4287 36.2271V20.3325C9.4287 19.7641 9.65447 19.2191 10.0563 18.8172C10.4582 18.4154 11.0032 18.1896 11.5716 18.1896C12.1399 18.1896 12.6849 18.4154 13.0868 18.8172C13.4887 19.2191 13.7144 19.7641 13.7144 20.3325V33.1896C13.7165 33.3193 13.7423 33.4474 13.7905 33.5678C13.8076 33.6047 13.8269 33.6404 13.8483 33.675C13.8683 33.7232 13.8919 33.7697 13.9191 33.8143L17.4548 38.6764L17.4633 38.6839C17.5626 38.8633 17.6755 39.0349 17.8008 39.1971L20.383 42.4253C20.4809 42.545 20.6038 42.6419 20.743 42.7092C20.7857 42.7256 20.8293 42.7392 20.8737 42.75C20.9682 42.786 21.0675 42.808 21.1683 42.8153C21.1855 42.8153 21.2026 42.8271 21.2198 42.8271C21.2837 42.8221 21.3472 42.8117 21.4094 42.796C21.4516 42.7915 21.4935 42.7843 21.5348 42.7746C21.6635 42.737 21.7839 42.6752 21.8894 42.5925C21.9993 42.5046 22.0909 42.3958 22.1588 42.2725C22.2267 42.1492 22.2696 42.0138 22.2851 41.8739C22.3006 41.734 22.2884 41.5924 22.2492 41.4572C22.21 41.322 22.1445 41.1959 22.0566 41.086L19.4744 37.8589C19.2957 37.6374 19.1673 37.3798 19.0979 37.1038C19.0285 36.8279 19.0198 36.5401 19.0725 36.2605C19.1252 35.9809 19.2379 35.716 19.4029 35.4842C19.568 35.2523 19.7813 35.0591 20.0283 34.9178C20.0691 34.8943 20.113 34.8814 20.1548 34.861C20.2624 34.8056 20.3751 34.7604 20.4912 34.726C20.5491 34.71 20.608 34.7046 20.6669 34.6939C20.7712 34.6736 20.8769 34.6618 20.983 34.6585C21.0505 34.6585 21.118 34.665 21.1855 34.6703C21.2575 34.6781 21.329 34.6895 21.3998 34.7046L27.3001 39.9975C28.0832 40.7026 28.7091 41.5646 29.1374 42.5274C29.5656 43.4902 29.7865 44.5323 29.7858 45.586V46.0468ZM41.5716 32.1182V24.6182C41.5716 24.0499 41.7973 23.5048 42.1992 23.103C42.6011 22.7011 43.1461 22.4753 43.7144 22.4753C44.2827 22.4753 44.8278 22.7011 45.2297 23.103C45.6315 23.5048 45.8573 24.0499 45.8573 24.6182V32.8414L44.4034 34.8428C44.1366 34.2768 43.742 33.7805 43.2505 33.3931C42.7591 33.0058 42.1843 32.7381 41.5716 32.611V32.1182ZM52.2858 36.2271C52.2865 36.8383 52.1121 37.4369 51.7833 37.9521L44.953 48.6857C44.8437 48.8577 44.7857 49.0573 44.7859 49.261V57.8325H31.9287V45.586C31.9296 44.5328 32.1518 43.4915 32.5809 42.5297C33.01 41.5679 33.6365 40.707 34.4198 40.0028L40.3212 34.71C40.3887 34.6951 40.457 34.6843 40.5258 34.6778C40.5991 34.6694 40.6728 34.6648 40.7466 34.6639C40.84 34.6681 40.9331 34.6789 41.0251 34.696C41.0972 34.7049 41.1688 34.7178 41.2394 34.7346C41.3421 34.7665 41.4421 34.8066 41.5383 34.8546C41.5919 34.8793 41.6455 34.8964 41.698 34.9253C41.8454 35.0108 41.9814 35.1145 42.103 35.2339C42.4469 35.5772 42.652 36.0354 42.6788 36.5207C42.7057 37.0059 42.5526 37.4839 42.2487 37.8632L39.6655 41.0914C39.5775 41.2013 39.512 41.3274 39.4728 41.4626C39.4336 41.5978 39.4214 41.7393 39.4369 41.8792C39.4525 42.0191 39.4954 42.1546 39.5633 42.2779C39.6312 42.4012 39.7227 42.5099 39.8326 42.5978C39.9378 42.6805 40.0578 42.7424 40.1862 42.78C40.2282 42.7898 40.2708 42.797 40.3137 42.8014C40.3749 42.8169 40.4372 42.8273 40.5001 42.8325C40.5173 42.8325 40.5333 42.8218 40.5516 42.8207C40.6518 42.8135 40.7503 42.7915 40.8441 42.7553C40.8896 42.745 40.9344 42.7314 40.978 42.7146C41.1167 42.6469 41.2391 42.5501 41.3369 42.4307L43.9201 39.2014C44.0448 39.0396 44.1572 38.8688 44.2566 38.6903L44.2651 38.6818L47.7955 33.8196C47.8227 33.7751 47.8463 33.7285 47.8662 33.6803C47.8876 33.6458 47.9069 33.61 47.9241 33.5732C47.9729 33.4511 47.9987 33.3211 48.0001 33.1896V20.3325C48.0001 19.7641 48.2259 19.2191 48.6278 18.8172C49.0296 18.4154 49.5747 18.1896 50.143 18.1896C50.7113 18.1896 51.2564 18.4154 51.6582 18.8172C52.0601 19.2191 52.2858 19.7641 52.2858 20.3325V36.2271Z" fill="#1C5DB4"/>
<path d="M52.2854 5.33252H50.1426V7.47538H52.2854V5.33252Z" fill="#1C5DB4"/>
<path d="M56.5716 5.33252H54.4287V7.47538H56.5716V5.33252Z" fill="#1C5DB4"/>
<path d="M54.429 3.1897H52.2861V5.33255H54.429V3.1897Z" fill="#1C5DB4"/>
<path d="M54.429 7.47534H52.2861V9.6182H54.429V7.47534Z" fill="#1C5DB4"/>
<path d="M5.14286 8.54675H3V10.6896H5.14286V8.54675Z" fill="#1C5DB4"/>
<path d="M11.5716 8.54675H9.42871V10.6896H11.5716V8.54675Z" fill="#1C5DB4"/>
<path d="M8.35672 5.33252H6.21387V7.47538H8.35672V5.33252Z" fill="#1C5DB4"/>
<path d="M8.35672 11.7611H6.21387V13.904H8.35672V11.7611Z" fill="#1C5DB4"/>
</svg>
