<svg width="60" height="60" viewBox="0 0 60 60" fill="none" xmlns="http://www.w3.org/2000/svg">
<circle cx="20" cy="40" r="20" fill="#F4FAFF"/>
<path d="M52.7227 32.6629L48.1439 32.6595V10.6508C48.1432 10.3756 48.0338 10.1118 47.8395 9.91696L39.2271 1.30465C39.0322 1.11033 38.7684 1.00084 38.4932 1H12.6515C12.5153 0.999963 12.3805 1.02676 12.2547 1.07885C12.1288 1.13095 12.0145 1.20732 11.9182 1.30361C11.8219 1.3999 11.7456 1.51422 11.6935 1.64003C11.6414 1.76585 11.6146 1.90069 11.6146 2.03687V26.8417H7.03687C6.76119 26.8434 6.49742 26.9542 6.30315 27.1498C6.10888 27.3454 5.9999 27.61 6 27.8856L6.20148 58.0347C6.20341 58.3085 6.31349 58.5704 6.50773 58.7633C6.70196 58.9562 6.9646 59.0645 7.23835 59.0645H52.7217C52.8579 59.0646 52.9927 59.0378 53.1185 58.9857C53.2444 58.9336 53.3587 58.8572 53.455 58.7609C53.5513 58.6646 53.6276 58.5503 53.6797 58.4245C53.7318 58.2987 53.7586 58.1638 53.7586 58.0277V33.6998C53.7585 33.425 53.6494 33.1614 53.4552 32.967C53.261 32.7726 52.9975 32.6632 52.7227 32.6629ZM39.53 4.53992L44.604 9.61389H39.53V4.53992ZM13.6884 3.07373H37.4563V10.6508C37.4563 10.7869 37.4831 10.9218 37.5351 11.0476C37.5872 11.1734 37.6636 11.2877 37.7599 11.384C37.8562 11.4803 37.9705 11.5567 38.0963 11.6088C38.2221 11.6609 38.357 11.6877 38.4932 11.6876H46.0702V32.658L23.9446 32.6416L19.0368 27.1854C18.9396 27.0773 18.8208 26.9908 18.688 26.9316C18.5553 26.8724 18.4116 26.8417 18.2662 26.8417H13.6884L13.6884 3.07373ZM51.6848 56.9908H8.26815L8.08081 28.9154H17.8045L22.7114 34.3711C22.8083 34.4792 22.9269 34.5657 23.0595 34.6249C23.1921 34.6842 23.3357 34.7148 23.4809 34.7149C23.6059 34.7296 47.048 34.7217 47.1487 34.7323L51.6849 34.7356L51.6848 56.9908Z" fill="#1C5DB4" stroke="#1C5DB4" stroke-width="0.4"/>
<path d="M20.3611 15.9946H37.4066C37.6781 15.9893 37.9367 15.8778 38.1268 15.6839C38.3169 15.49 38.4234 15.2293 38.4234 14.9577C38.4234 14.6862 38.3169 14.4255 38.1267 14.2316C37.9366 14.0377 37.678 13.9262 37.4065 13.9209H20.3611C20.0897 13.9263 19.8312 14.038 19.6412 14.2318C19.4512 14.4257 19.3447 14.6863 19.3447 14.9578C19.3447 15.2292 19.4512 15.4899 19.6412 15.6837C19.8312 15.8776 20.0897 15.9892 20.3611 15.9946Z" fill="#1C5DB4" stroke="#1C5DB4" stroke-width="0.4"/>
<path d="M20.3611 20.3015H37.4066C37.6781 20.2962 37.9367 20.1846 38.1268 19.9908C38.3169 19.7969 38.4234 19.5362 38.4234 19.2646C38.4234 18.9931 38.3169 18.7324 38.1267 18.5385C37.9366 18.3446 37.678 18.2331 37.4065 18.2278H20.3611C20.0897 18.2332 19.8312 18.3448 19.6412 18.5387C19.4512 18.7326 19.3447 18.9932 19.3447 19.2646C19.3447 19.5361 19.4512 19.7967 19.6412 19.9906C19.8312 20.1845 20.0897 20.2961 20.3611 20.3015Z" fill="#1C5DB4" stroke="#1C5DB4" stroke-width="0.4"/>
<path d="M20.3611 24.6084H37.4066C37.6781 24.6031 37.9367 24.4915 38.1268 24.2976C38.3169 24.1038 38.4234 23.843 38.4234 23.5715C38.4234 23.3 38.3169 23.0392 38.1267 22.8454C37.9366 22.6515 37.678 22.54 37.4065 22.5347H20.3611C20.0897 22.5401 19.8312 22.6517 19.6412 22.8456C19.4512 23.0394 19.3447 23.3001 19.3447 23.5715C19.3447 23.843 19.4512 24.1036 19.6412 24.2975C19.8312 24.4913 20.0897 24.603 20.3611 24.6084Z" fill="#1C5DB4" stroke="#1C5DB4" stroke-width="0.4"/>
<path d="M34.9429 42.8782H33.5688V40.8824C33.4647 36.1199 26.2939 36.117 26.1892 40.8825V42.8782H24.8152C24.679 42.8781 24.5442 42.9049 24.4184 42.957C24.2925 43.0091 24.1782 43.0855 24.0819 43.1818C23.9856 43.2781 23.9093 43.3924 23.8572 43.5182C23.8051 43.644 23.7783 43.7789 23.7783 43.915V53.1309C23.7783 53.2671 23.8051 53.4019 23.8572 53.5277C23.9093 53.6535 23.9856 53.7679 24.0819 53.8642C24.1782 53.9604 24.2925 54.0368 24.4184 54.0889C24.5442 54.141 24.679 54.1678 24.8152 54.1678H34.9429C35.079 54.1678 35.2139 54.141 35.3397 54.0889C35.4655 54.0368 35.5798 53.9604 35.6761 53.8642C35.7724 53.7679 35.8488 53.6535 35.9009 53.5277C35.953 53.4019 35.9798 53.2671 35.9797 53.1309V43.915C35.9798 43.7789 35.953 43.644 35.9009 43.5182C35.8488 43.3924 35.7724 43.2781 35.6761 43.1818C35.5798 43.0855 35.4655 43.0091 35.3397 42.957C35.2139 42.9049 35.079 42.8781 34.9429 42.8782ZM28.263 40.8824C28.263 38.8658 31.4953 38.8659 31.4951 40.8825V42.8782H28.263V40.8824ZM33.906 52.0941H25.8521V44.9519H27.2261C28.24 44.9516 32.9959 44.9522 33.906 44.9519V52.0941Z" fill="#1C5DB4" stroke="#1C5DB4" stroke-width="0.4"/>
<path d="M29.8786 47.8806C29.5957 47.8847 29.3258 48 29.1273 48.2015C28.9287 48.4029 28.8174 48.6745 28.8174 48.9573C28.8174 49.2402 28.9287 49.5118 29.1273 49.7132C29.3258 49.9147 29.5957 50.03 29.8786 50.0341C30.1614 50.03 30.4313 49.9147 30.6299 49.7132C30.8284 49.5118 30.9397 49.2402 30.9397 48.9573C30.9397 48.6745 30.8284 48.4029 30.6299 48.2015C30.4313 48 30.1614 47.8847 29.8786 47.8806Z" fill="#1C5DB4" stroke="#1C5DB4" stroke-width="0.4"/>
</svg>
