<?xml version="1.0" encoding="utf-8"?>
<!-- Generator: Adobe Illustrator 28.2.0, SVG Export Plug-In . SVG Version: 6.00 Build 0)  -->
<svg version="1.1" id="Layer_1" xmlns="http://www.w3.org/2000/svg" xmlns:xlink="http://www.w3.org/1999/xlink" x="0px" y="0px"
	 viewBox="0 0 73 60" style="enable-background:new 0 0 73 60;" xml:space="preserve">
<style type="text/css">
	.st0{clip-path:url(#SVGID_00000039829692864561343500000008830219386983975825_);}
	.st1{fill:#1C5DB4;}
</style>
<g>
	<defs>
		<rect id="SVGID_1_" width="73" height="60"/>
	</defs>
	<clipPath id="SVGID_00000050661839019607861150000015256556142019472523_">
		<use xlink:href="#SVGID_1_"  style="overflow:visible;"/>
	</clipPath>
	<g style="clip-path:url(#SVGID_00000050661839019607861150000015256556142019472523_);">
		<path class="st1" d="M71.9,16.9c-0.3-1.1-1-2.1-1.9-2.7L55.6,5.5c-0.7-0.4-1.4-0.6-2.2-0.6c-1.5,0-2.9,0.8-3.7,2.1l-1.5,2.5
			c-1,1.6-0.8,3.6,0.4,5c-2.8,4.1-6.5,3.9-6.7,3.9c-1,0-9.7-0.2-14.9,4.8L19.6,19c0.1-0.5,0-1.1-0.1-1.7c-0.3-1.1-1-2-2-2.6L15,13.2
			c-0.7-0.4-1.4-0.6-2.2-0.6c-1.5,0-3,0.8-3.7,2.1L0.6,29.3c-1.2,2-0.5,4.7,1.5,5.9l2.5,1.5C5.3,37,6,37.2,6.8,37.2
			c1.2,0,2.4-0.5,3.2-1.4l4.4,2.6c0,0,1.2,0.8,1.7,3.2c0.4,1.7,1.7,3.1,2.6,3.9c-0.2,0.5-0.3,0.9-0.3,1.4c0,1.5,0.8,3,2.2,3.7
			c0.7,0.4,1.4,0.6,2.1,0.6c0,0,0.1,0,0.1,0c0,1.5,0.9,2.9,2.2,3.6c0.7,0.4,1.4,0.6,2.1,0.6c0.7,0,1.3-0.2,1.9-0.5
			c0.4,0.7,0.9,1.3,1.6,1.7c0.7,0.4,1.4,0.6,2.1,0.6c0.4,0,0.8,0,1.1-0.2c0.3-0.1,0.6-0.2,0.9-0.4c0.4,0.7,0.9,1.3,1.6,1.7
			c0.7,0.4,1.4,0.6,2.1,0.6c1.5,0,2.9-0.8,3.7-2.2l0.7-1.2l0.8,0.5c0.7,0.4,1.4,0.6,2.1,0.6c1.5,0,3-0.8,3.7-2.2
			c0.4-0.7,0.6-1.4,0.6-2.1c1.5,0,2.9-0.8,3.7-2.2c0.4-0.7,0.6-1.4,0.6-2.1c1.5,0,2.9-0.8,3.7-2.2c0.4-0.6,0.5-1.3,0.6-2
			c0.1,0,0.2,0,0.3,0c1.5,0,3-0.8,3.7-2.2c1-1.7,0.7-3.8-0.6-5.1c0.4-1.3,0.7-3.5-0.2-6.2c-0.4-1.3,1.1-4.2,2.6-6.2
			c0.5,0.2,1,0.3,1.5,0.3c1.5,0,2.9-0.8,3.7-2.1l1.5-2.5C72,19.2,72.2,18,71.9,16.9z M6,34.3l-2.5-1.5c-0.7-0.4-1-1.4-0.5-2.1
			l8.5-14.5c0.3-0.5,0.8-0.8,1.3-0.8c0.3,0,0.5,0.1,0.8,0.2l2.5,1.5c0.4,0.2,0.6,0.5,0.7,0.9c0.1,0.4,0,0.8-0.2,1.2L8.1,33.7
			C7.7,34.4,6.7,34.7,6,34.3z M21.9,48.3c-0.5-0.3-0.8-0.8-0.8-1.3c0-0.3,0.1-0.5,0.2-0.7l5.3-9c0.4-0.7,1.4-1,2.1-0.6
			c0.4,0.2,0.6,0.5,0.7,0.9c0.1,0.4,0.1,0.8-0.1,1.2c0,0,0,0.1,0,0.1l-5.1,8.7c-0.1,0.1-0.1,0.2-0.2,0.3
			C23.6,48.5,22.7,48.8,21.9,48.3z M26.3,52.5c-0.5-0.3-0.8-0.8-0.8-1.3c0-0.3,0.1-0.5,0.2-0.8L32.4,39c0.3-0.5,0.8-0.8,1.3-0.8
			c0.3,0,0.5,0.1,0.8,0.2c0.4,0.2,0.6,0.5,0.7,0.9c0.1,0.4,0.1,0.8-0.1,1.2l-0.7,1.1c0,0,0,0,0,0.1c0,0,0,0,0,0l-5.2,8.9
			c0,0-0.1,0.1-0.1,0.1c0,0.1-0.1,0.1-0.1,0.2l-0.5,0.9C28,52.6,27,52.9,26.3,52.5z M33.2,54.4c-0.4,0.1-0.8,0.1-1.2-0.2
			c-0.5-0.3-0.8-0.8-0.8-1.3c0-0.2,0.1-0.4,0.2-0.7l5.4-9.2c0.4-0.7,1.3-0.9,2.1-0.5c0.7,0.4,1,1.4,0.6,2.1l-5.3,9
			C33.9,54.1,33.6,54.3,33.2,54.4z M37.8,56c-0.5-0.3-0.8-0.8-0.8-1.3c0-0.3,0.1-0.5,0.2-0.8c0.1-0.1,0.1-0.2,0.1-0.4l3.5-6
			c0.1-0.1,0.1-0.2,0.2-0.3c0.4-0.7,1.4-1,2.1-0.6c0.4,0.2,0.6,0.5,0.7,0.9c0.1,0.4,0.1,0.8-0.1,1.2l-3.9,6.7
			C39.5,56.2,38.6,56.5,37.8,56z M47.3,53.2c-0.4,0.7-1.4,1-2.1,0.6l-0.8-0.5l1.5-2.6l1.1,0.7C47.6,51.8,47.7,52.5,47.3,53.2z
			 M60.5,40.6c-0.4,0.7-1.4,1-2.1,0.6l-7-4c-0.7-0.4-1.5-0.1-1.9,0.5c-0.4,0.7-0.1,1.5,0.5,1.9l5.2,3c0,0,0,0,0.1,0.1
			c0.7,0.4,1,1.4,0.6,2.1c-0.4,0.7-1.4,1-2.1,0.6l-6.1-3.5c-0.7-0.4-1.5-0.2-1.9,0.5c-0.4,0.7-0.2,1.5,0.5,1.9l5.1,2.9
			c0.5,0.5,0.6,1.2,0.3,1.9c-0.4,0.7-1.4,1-2.1,0.6l-2.7-1.6c0-0.3,0-0.7-0.1-1c-0.3-1.1-1-2-2-2.6c-0.7-0.4-1.5-0.6-2.2-0.6
			c-0.1-1.4-0.8-2.8-2.2-3.6c-0.7-0.4-1.5-0.6-2.2-0.6c0-0.3-0.1-0.6-0.1-0.9c-0.3-1.1-1-2-2-2.6c-0.7-0.4-1.4-0.6-2.1-0.6
			c-0.7,0-1.3,0.2-1.9,0.5c-0.4-0.7-0.9-1.3-1.7-1.7c-2.1-1.2-4.7-0.5-5.9,1.6L20,43.1c-0.6-0.5-1.1-1.2-1.3-2c-0.8-3.7-2.8-4.9-3-5
			l-4.3-2.6l7-12l7.1,4c0,0.3-0.1,0.5-0.1,0.8c0,1.2,0.5,2.3,1.3,3.1s2,1.3,3.1,1.3c1.2,0,2.3-0.5,3.1-1.3c1.5-1.5,4.5-2.1,6.7-2.3
			c1.9,0.7,20.1,11.2,20.1,11.2C60.6,38.9,60.9,39.9,60.5,40.6z M59.4,31.5c0.5,1.5,0.5,2.8,0.3,3.7c0,0-16-9.2-16.9-9.7
			c-0.1-0.6-0.7-1.1-1.3-1.1c-0.1,0-7-0.2-10.4,3.2c-0.6,0.6-1.7,0.6-2.4,0c-0.3-0.3-0.5-0.7-0.5-1.2c0-0.4,0.2-0.9,0.5-1.2
			c4.3-4.3,12-4.2,12.9-4.1c0.2,0,5.4,0.4,9.1-5l11.5,7C60.8,25.1,58.5,28.8,59.4,31.5z M69,18.7l-1.5,2.5c-0.4,0.7-1.4,0.9-2.1,0.5
			L51,13c-0.7-0.4-1-1.4-0.5-2.1L52,8.4c0.3-0.5,0.8-0.7,1.3-0.7c0.3,0,0.6,0.1,0.8,0.2l14.4,8.8C69.2,17.1,69.5,18,69,18.7z"/>
		<path class="st1" d="M31.9,10.7c0.8,0,1.4-0.6,1.4-1.4v-8c0-0.8-0.6-1.4-1.4-1.4s-1.4,0.6-1.4,1.4v8
			C30.6,10.1,31.2,10.7,31.9,10.7z"/>
		<path class="st1" d="M24.7,10.3c0.3,0.3,0.6,0.4,1,0.4c0.4,0,0.7-0.1,1-0.4c0.5-0.5,0.5-1.4,0-2l-5.3-5.3c-0.5-0.5-1.4-0.5-2,0
			c-0.5,0.5-0.5,1.4,0,2L24.7,10.3z"/>
		<path class="st1" d="M38.2,10.7c0.4,0,0.7-0.1,1-0.4L44.5,5c0.5-0.5,0.5-1.4,0-2c-0.5-0.5-1.4-0.5-2,0l-5.3,5.3
			c-0.5,0.5-0.5,1.4,0,2C37.5,10.6,37.8,10.7,38.2,10.7z"/>
	</g>
</g>
</svg>
