<svg width="62" height="60" viewBox="0 0 62 60" fill="none" xmlns="http://www.w3.org/2000/svg">
<circle cx="20" cy="40" r="20" fill="#F4FAFF"/>
<path d="M12.8626 46.5165C12.8626 47.0756 12.892 47.5493 12.856 48.019C12.7852 48.9784 12.3062 49.4934 11.3388 49.5121C9.3092 49.5508 7.27829 49.5495 5.25005 49.5095C4.38004 49.4921 3.88365 49.0144 3.82761 48.1978C3.57674 44.5122 3.31521 40.8254 3.14174 37.1358C3.08436 35.9135 3.2645 34.6766 3.36992 33.449C3.41262 32.9499 3.37659 32.5429 2.98028 32.156C-0.490419 28.7787 0.685162 22.5592 5.84651 20.9152C5.95459 20.8805 6.05467 20.8231 6.26951 20.7257C6.26951 19.2112 6.32822 17.6633 6.2575 16.1208C6.12539 13.2412 8.09626 11.4372 10.6769 11.1529C17.3274 10.423 23.998 10.0054 30.6885 10.0001C37.5779 9.99472 44.4485 10.395 51.2965 11.1503C53.7238 11.4185 55.9215 13.1091 55.7133 16.0928C55.6052 17.6327 55.6946 19.1859 55.6946 20.6884C56.4152 21.0113 57.0543 21.2341 57.6308 21.5677C61.351 23.7121 62.145 28.7586 59.2334 31.9478C58.7223 32.5069 58.5809 32.9673 58.6809 33.7225C59.1173 37.0197 58.8117 40.3103 58.4394 43.5982C58.2926 44.8965 58.2913 46.2136 58.2499 47.5226C58.2019 49.0638 57.7682 49.5201 56.251 49.5268C54.5391 49.5361 52.8284 49.5321 51.1164 49.5295C49.6392 49.5268 49.2122 49.1038 49.1735 47.6307C49.1642 47.2824 49.1348 46.9328 49.1108 46.5178H12.8626V46.5165ZM56.3765 47.6533C56.4445 46.3683 56.4339 45.1741 56.5846 44.0025C57.0383 40.4824 57.4333 36.957 56.8368 33.4263C56.658 32.3695 56.8195 31.6929 57.6802 30.9724C59.2507 29.6553 59.639 27.4109 58.8437 25.5148C58.0284 23.5693 56.0883 22.3136 54.0387 22.4084C51.8703 22.5084 50.149 23.8081 49.5552 25.8951C49.363 26.5729 49.3097 27.3068 49.299 28.0154C49.2656 30.2838 49.3097 32.5523 49.271 34.8207C49.2483 36.1471 48.5024 36.8609 47.1867 36.941C46.8691 36.9597 46.5502 36.949 46.2313 36.949C43.3263 36.949 40.4201 36.9103 37.5165 36.9597C34.5969 37.0091 31.6813 36.8609 28.759 36.9223C24.3035 37.0157 19.8441 36.901 15.3886 36.973C13.6219 37.0011 12.5797 36.0176 12.6611 34.1989C12.7626 31.9344 12.6972 29.6633 12.6812 27.3949C12.6638 25.0558 11.1853 23.0769 9.1304 22.5938C6.72719 22.0281 4.4641 23.0128 3.35791 25.1038C2.27707 27.1494 2.70273 29.6567 4.53349 31.1578C5.28474 31.7743 5.31676 32.3868 5.21402 33.2355C5.02721 34.7713 4.83506 36.3285 4.90044 37.8657C5.03521 41.0389 5.33678 44.2053 5.57563 47.3731C5.58097 47.4438 5.64369 47.5106 5.70907 47.636H11.0479C11.0479 47.1223 11.0426 46.6913 11.0479 46.2603C11.0679 44.8939 11.2894 44.6724 12.6478 44.6457C12.8066 44.643 12.9667 44.6457 13.1255 44.6457C25.0241 44.6457 36.924 44.6457 48.8226 44.6457C49.1802 44.6457 49.5392 44.6457 49.8968 44.667C50.556 44.7057 50.9216 45.0246 50.9042 45.7252C50.8895 46.3497 50.9016 46.9741 50.9016 47.656H56.3751L56.3765 47.6533ZM47.4776 28.4277C47.4909 24.0643 49.3577 21.2395 53.8051 20.5843C53.8572 20.4829 53.9212 20.4135 53.9226 20.3428C53.9412 18.951 53.9626 17.5606 53.9639 16.1689C53.9653 14.174 53.1967 13.1665 51.2138 12.9797C46.6636 12.5527 42.1094 12.1177 37.5458 11.9082C30.5884 11.5893 23.627 11.7788 16.6829 12.3499C14.624 12.5193 12.5664 12.7315 10.5208 13.0131C8.90622 13.2346 8.08692 14.2594 8.0669 15.8606C8.06023 16.377 8.0669 16.8947 8.0669 17.4125C8.0669 18.4706 8.0669 19.5301 8.0669 20.5469C12.5384 21.4543 14.3705 23.6387 14.4665 27.9874C14.4719 28.2076 14.5466 28.4264 14.5933 28.6746C14.8175 28.6586 14.9723 28.6532 15.1271 28.6345C19.6039 28.1195 24.0954 27.9954 28.5829 28.3717C30.1467 28.5024 31.6653 28.5358 33.2438 28.4184C36.6478 28.1648 40.0745 28.2062 43.4931 28.1875C44.7928 28.1809 46.0938 28.3383 47.4762 28.4264L47.4776 28.4277ZM47.5056 30.4133C47.3575 30.3172 47.3268 30.2812 47.2934 30.2772C42.4163 29.6954 37.5365 29.8061 32.654 30.2104C32.1003 30.2558 31.8934 30.5347 31.9001 31.0618C31.9135 32.0559 31.9028 33.05 31.9094 34.0441C31.9175 35.201 31.9201 35.2103 33.1224 35.2117C37.4965 35.2157 41.8705 35.217 46.2446 35.2077C46.6583 35.2077 47.0706 35.1289 47.5083 35.0836V30.4146L47.5056 30.4133ZM30.1254 35.1129C30.1254 33.8319 30.1334 32.6497 30.1227 31.4674C30.1134 30.3132 30.084 30.2291 28.9231 30.1971C25.7473 30.109 22.5689 30.0156 19.3917 30.045C17.7811 30.0597 16.1732 30.3359 14.56 30.4947V35.1143H30.1241L30.1254 35.1129Z" fill="#1C5DB4" stroke="#1C5DB4"/>
<path d="M40.3255 21.437C39.5542 21.421 39.1739 21.1274 39.1899 20.559C39.206 20.0092 39.6236 19.709 40.3749 19.709C41.1395 19.709 41.5531 19.9972 41.5705 20.5443C41.5891 21.1421 41.1555 21.4543 40.3255 21.437Z" fill="#1C5DB4" stroke="#1C5DB4"/>
<path d="M21.8185 19.7063C22.5764 19.717 22.966 20.0132 22.97 20.5856C22.974 21.1661 22.6071 21.441 21.8211 21.4436C21.0178 21.4463 20.5214 21.0914 20.5975 20.5203C20.6922 19.813 21.2247 19.6956 21.8198 19.705L21.8185 19.7063Z" fill="#1C5DB4" stroke="#1C5DB4"/>
</svg>
