<svg width="64" height="60" viewBox="0 0 64 60" fill="none" xmlns="http://www.w3.org/2000/svg">
<g clip-path="url(#clip0_400_486)">
<circle cx="22" cy="40" r="20" fill="#F4FAFF"/>
<path d="M17.4492 3.75574V23.4844L27.216 17.2476L27.2221 3.75574H17.4492Z" fill="white"/>
<path d="M40.1472 35.2875H27.0029V58.5461H40.1472V35.2875Z" fill="white"/>
<path d="M40.1465 58.5462V35.2875L49.1329 32.7635V56.0222L40.1465 58.5462Z" fill="white"/>
<path d="M15.4003 37.6469V41.4085H4.54827C3.92032 41.4085 3.4082 41.8901 3.4082 42.4876V47.4868C3.4082 48.0843 3.92032 48.5659 4.54827 48.5659H15.4003V52.3275C15.4003 52.8153 16.0343 53.053 16.3818 52.6933L19.6557 49.3402L23.5575 45.3469C23.7587 45.1396 23.7587 44.8226 23.5575 44.6153L19.6557 40.622L16.3818 37.2689C16.0282 36.9092 15.4003 37.1469 15.4003 37.6347V37.6469Z" fill="white"/>
<path d="M61.7469 28.0325L33.6293 10.1877L5.51172 28.0265" stroke="#1C5DB4" stroke-width="2.6" stroke-linecap="round" stroke-linejoin="round"/>
<path d="M15.6934 21.4482V2H25.4601V15.0529" stroke="#1C5DB4" stroke-width="2.6" stroke-linecap="round" stroke-linejoin="round"/>
<path d="M38.7078 57.1074V33.8488H25.5635V57.1074" stroke="#1C5DB4" stroke-width="2.6" stroke-linecap="round" stroke-linejoin="round"/>
<path d="M38.708 57.1073V33.8487L47.6944 31.3247L47.7005 54.5833L38.708 57.1073Z" stroke="#1C5DB4" stroke-width="2.6" stroke-linecap="round" stroke-linejoin="round"/>
<path d="M44.207 42.7437V44.6946" stroke="#1C5DB4" stroke-width="2.6" stroke-linecap="round" stroke-linejoin="round"/>
<path d="M13.2178 55.8148V57.1073H54.0407L54.0346 23.5271" stroke="#1C5DB4" stroke-width="2.6" stroke-linecap="round" stroke-linejoin="round"/>
<path d="M13.2178 23.5271V31.3369" stroke="#1C5DB4" stroke-width="2.6" stroke-linecap="round" stroke-linejoin="round"/>
<path d="M13.986 36.2324V39.994H3.14007C2.51212 39.994 2 40.4757 2 41.0732V46.0724C2 46.6698 2.51212 47.1515 3.14007 47.1515H13.9921V50.9131C13.9921 51.4008 14.6261 51.6386 14.9736 51.2789L18.2475 47.9258L22.1493 43.9325C22.3505 43.7252 22.3505 43.4082 22.1493 43.2009L18.2475 39.2076L14.9736 35.8544C14.62 35.4947 13.9921 35.7325 13.9921 36.2202L13.986 36.2324Z" stroke="#1C5DB4" stroke-width="2.6" stroke-linecap="round" stroke-linejoin="round"/>
</g>
<defs>
<clipPath id="clip0_400_486">
<rect width="64" height="60" fill="white"/>
</clipPath>
</defs>
</svg>
