<svg width="42" height="40" viewBox="0 0 42 40" fill="none" xmlns="http://www.w3.org/2000/svg">
<path d="M31.3867 0H16.7119V40H31.3867V0Z" fill="#A68024"/>
<path d="M5.70082 28.74H4.05273V39.9944H5.70082V28.74Z" fill="#A68024"/>
<path d="M8.87846 28.74H7.20215V39.9944H8.87846V28.74Z" fill="#A68024"/>
<path d="M10.3848 11.655V28.7398V39.9999H12.0667V11.655H10.3848Z" fill="#A68024"/>
<path d="M15.2505 11.655H13.5742V39.9942H15.2505V11.655Z" fill="#A68024"/>
<path d="M18.4341 11.655H16.7578V39.9942H18.4341V11.655Z" fill="#A68024"/>
<path d="M21.6167 11.655H19.9404V39.9942H21.6167V11.655Z" fill="#A68024"/>
<path d="M24.7552 28.7398V11.655H23.124V39.9999H24.7552H24.806V28.7398H24.7552Z" fill="#A68024"/>
<path d="M27.9839 28.74H26.3076V39.9944H27.9839V28.74Z" fill="#A68024"/>
<path d="M31.1724 28.74H29.4961V39.9944H31.1724V28.74Z" fill="#A68024"/>
<path d="M34.356 28.74H32.6797V39.9944H34.356V28.74Z" fill="#A68024"/>
<path d="M37.5396 28.74H35.8633V39.9944H37.5396V28.74Z" fill="#A68024"/>
<path d="M41.5582 38.3181H35.8633V39.9944H41.5582V38.3181Z" fill="#A68024"/>
<path d="M5.69493 38.3181H0V39.9944H5.69493V38.3181Z" fill="#A68024"/>
</svg>
