<svg width="333" height="40" viewBox="0 0 333 40" fill="none" xmlns="http://www.w3.org/2000/svg">
<g clip-path="url(#clip0_456_264)">
<path d="M31.3867 0H16.7119V40H31.3867V0Z" fill="#A68024"/>
<path d="M5.70082 28.74H4.05273V39.9944H5.70082V28.74Z" fill="#A68024"/>
<path d="M8.87846 28.74H7.20215V39.9944H8.87846V28.74Z" fill="#A68024"/>
<path d="M10.3848 11.655V28.7398V39.9999H12.0667V11.655H10.3848Z" fill="#A68024"/>
<path d="M15.2505 11.655H13.5742V39.9942H15.2505V11.655Z" fill="#A68024"/>
<path d="M18.4341 11.655H16.7578V39.9942H18.4341V11.655Z" fill="#A68024"/>
<path d="M21.6167 11.655H19.9404V39.9942H21.6167V11.655Z" fill="#A68024"/>
<path d="M24.7552 28.7398V11.655H23.124V39.9999H24.7552H24.806V28.7398H24.7552Z" fill="#A68024"/>
<path d="M27.9839 28.74H26.3076V39.9944H27.9839V28.74Z" fill="#A68024"/>
<path d="M31.1724 28.74H29.4961V39.9944H31.1724V28.74Z" fill="#A68024"/>
<path d="M34.356 28.74H32.6797V39.9944H34.356V28.74Z" fill="#A68024"/>
<path d="M37.5396 28.74H35.8633V39.9944H37.5396V28.74Z" fill="#A68024"/>
<path d="M41.5582 38.3181H35.8633V39.9944H41.5582V38.3181Z" fill="#A68024"/>
<path d="M5.69493 38.3181H0V39.9944H5.69493V38.3181Z" fill="#A68024"/>
<path d="M47.0381 15.0383V12.4575H68.0089V15.0383C67.3058 17.3641 66.0618 19.5276 64.2614 21.5289C62.461 23.5225 60.2125 25.2378 57.5003 26.6519C57.8558 27.1541 58.9144 28.7381 60.6838 31.3885L58.2344 32.9184C55.3754 28.6222 52.7096 24.8129 50.2293 21.4826L52.5937 19.8754C54.17 22.0003 55.2518 23.4761 55.8545 24.3183C58.0103 23.252 59.9266 21.8689 61.5956 20.1767C63.2646 18.4845 64.4159 16.7769 65.0264 15.0383H47.0458H47.0381Z" fill="#231815"/>
<path d="M73.75 14.4119L75.0327 11.9702C77.9921 13.4074 80.6888 14.8524 83.1305 16.2973L81.7319 18.7467C78.8111 17.0236 76.1531 15.5787 73.75 14.4119ZM91.8078 14.4119L94.4272 14.9914C92.6423 25.191 86.0667 30.793 74.7159 31.7898L74.3295 29.1085C79.4293 28.6217 83.3932 27.1845 86.229 24.7969C89.0647 22.4093 90.9192 18.9476 91.8155 14.4119H91.8078Z" fill="#231815"/>
<path d="M99.558 17.8507C101.922 18.2679 104.789 18.8243 108.174 19.5042L107.671 22.0618C104.48 21.4128 101.606 20.8564 99.0635 20.4083L99.5657 17.8507H99.558ZM117.616 14.9376L120.235 15.3858C119.254 20.926 117.237 24.9981 114.193 27.602C111.148 30.2137 106.589 31.7823 100.524 32.3155L100.138 29.6806C105.693 29.2092 109.773 27.8725 112.385 25.678C114.996 23.4836 116.743 19.8983 117.616 14.9376ZM100.74 11.4219C103.228 11.8237 106.211 12.3723 109.673 13.0754L109.17 15.6176C105.693 14.9144 102.718 14.3658 100.238 13.964L100.74 11.4219Z" fill="#231815"/>
<path d="M126.286 16.4673H141.933V31.5966H126.286V29.2631H139.121V24.7428H127.391V22.4325H139.121V18.7776H126.286V16.4673Z" fill="#231815"/>
<path d="M148.709 14.4119L149.992 11.9702C152.951 13.4074 155.655 14.8524 158.089 16.2973L156.691 18.7467C153.77 17.0236 151.112 15.5787 148.709 14.4119ZM166.767 14.4119L169.386 14.9914C167.601 25.191 161.026 30.793 149.675 31.7898L149.289 29.1085C154.388 28.6217 158.352 27.1845 161.188 24.7969C164.016 22.4093 165.878 18.9476 166.767 14.4119Z" fill="#231815"/>
<path d="M178.064 29.2867H175.174V17.4027H194.885V29.2867H190.149C192.706 30.0903 194.963 30.948 196.91 31.8675L195.666 34.0001C193.441 32.8797 190.651 31.7902 187.282 30.7394L187.885 29.2867H182.136L182.793 30.5153C180.722 31.8134 177.84 32.9107 174.146 33.7992L173.173 31.5893C175.962 30.9017 178.304 30.1367 180.189 29.279H178.056L178.064 29.2867ZM176.882 16.3596H174.123V10.6262H195.944V16.3596H176.882ZM176.882 14.4356H180.436V12.782H176.882V14.4356ZM178.064 20.8258H192.003V19.5585H178.064V20.8258ZM178.064 22.7111V24.0324H192.003V22.7111H178.064ZM178.064 25.9178V27.2236H192.003V25.9178H178.064ZM187.012 14.4279V12.7743H183.056V14.4279H187.012ZM189.631 14.4279H193.186V12.7743H189.631V14.4279Z" fill="#231815"/>
<path d="M210.834 29.4179C207.643 29.982 204.598 30.4224 201.708 30.7392L201.477 28.367C201.863 28.3361 202.458 28.2666 203.261 28.1584V13.2609H201.809V10.8965H215.076V12.156H225.461V14.5668C224.742 19.2493 223.375 23.2364 221.366 26.528C222.664 28.2666 224.325 29.7656 226.334 31.0174L224.99 33.3432C223.027 32.0605 221.312 30.5229 219.843 28.7379C218.422 30.5615 216.776 32.0991 214.906 33.3432L213.569 31.2878V33.8068H210.834V29.4179ZM210.834 13.2609H205.889V16.4676H210.834V13.2609ZM205.889 21.9846H210.834V18.5693H205.889V21.9846ZM210.834 27.0303V24.0941H205.889V27.8184C207.712 27.5634 209.358 27.3007 210.834 27.038V27.0303ZM214.427 15.919L216.984 15.3395C217.618 18.7702 218.538 21.6446 219.743 23.955C221.18 21.2583 222.177 18.1289 222.733 14.5745H214.558V13.2686H213.569V30.9015C215.339 29.7424 216.884 28.2589 218.213 26.4353C216.49 23.615 215.23 20.107 214.427 15.9267V15.919Z" fill="#231815"/>
<path d="M244.058 29.6883C246.075 29.4411 247.636 28.6452 248.733 27.3085C249.83 25.9717 250.371 24.179 250.371 21.9382C250.371 19.9215 249.722 18.2293 248.424 16.8771C247.126 15.5249 245.465 14.7599 243.425 14.5977C243.023 17.9589 242.544 20.7869 241.995 23.0896C241.447 25.3844 240.821 27.1307 240.141 28.3284C239.453 29.5183 238.766 30.3529 238.078 30.8242C237.39 31.2955 236.625 31.5273 235.775 31.5273C234.423 31.5273 233.187 30.7392 232.066 29.1629C230.946 27.5866 230.382 25.6626 230.382 23.3755C230.382 20.0297 231.518 17.3098 233.805 15.2236C236.092 13.1373 239.067 12.0864 242.745 12.0864C245.704 12.0864 248.154 13.0137 250.093 14.8681C252.033 16.7226 252.999 19.0793 252.999 21.9382C252.999 24.7972 252.241 27.3084 250.719 29.1243C249.205 30.9401 247.157 31.9601 244.576 32.1764L244.051 29.6883H244.058ZM240.697 14.7368C238.356 15.1077 236.486 16.0658 235.103 17.6112C233.72 19.1566 233.024 21.0806 233.024 23.3755C233.024 24.8667 233.334 26.1571 233.959 27.2544C234.585 28.3516 235.188 28.9002 235.783 28.9002C236.069 28.9002 236.355 28.7843 236.656 28.5448C236.957 28.313 237.29 27.8648 237.668 27.208C238.047 26.5512 238.402 25.7167 238.75 24.6968C239.09 23.6768 239.438 22.3091 239.786 20.5938C240.133 18.8784 240.435 16.9235 240.705 14.7368H240.697Z" fill="#231815"/>
<path d="M262.728 12.8358L265.625 13.0135C265.023 19.8827 263.068 26.242 259.761 32.099L257.103 30.8704C260.216 25.2993 262.094 19.2878 262.72 12.8358H262.728ZM270.826 12.0785L272.958 10.9736C274.009 12.8281 274.789 14.2575 275.292 15.262L273.175 16.2743C272.363 14.7598 271.575 13.3612 270.826 12.0785ZM273.113 18.4842L275.871 17.6728C277.409 21.7681 278.815 26.4197 280.082 31.6199L277.146 32.1994C275.948 27.1692 274.604 22.5949 273.12 18.4764L273.113 18.4842ZM274.72 11.1281L276.899 10C277.787 11.5763 278.591 13.0289 279.302 14.3657L277.123 15.4166C276.381 14.0103 275.578 12.5885 274.72 11.1281Z" fill="#231815"/>
<path d="M285.011 21.212C288.743 20.6943 292.382 19.5662 295.929 17.8431C299.483 16.12 302.404 14.0569 304.691 11.6538L306.399 13.601C304.359 15.7027 301.786 17.6113 298.672 19.3266V32.6478H295.736V20.7793C292.32 22.286 288.89 23.2828 285.428 23.7696L285.003 21.212H285.011Z" fill="#231815"/>
<path d="M313.958 14.8834V12.3335H330.517V14.8834C329.296 17.7423 327.496 20.4699 325.124 23.0585C327.766 25.477 330.301 27.9187 332.719 30.3836L330.811 32.2535C328.284 29.6804 325.773 27.231 323.261 24.9129C320.202 27.7873 316.748 30.1518 312.907 32.014L311.679 29.7577C315.388 27.8646 318.594 25.647 321.299 23.0971C323.995 20.5472 326.059 17.8119 327.48 14.8834H313.966H313.958Z" fill="#231815"/>
</g>
<defs>
<clipPath id="clip0_456_264">
<rect width="333" height="40" fill="white"/>
</clipPath>
</defs>
</svg>
