<svg width="460" height="40" viewBox="0 0 460 40" fill="none" xmlns="http://www.w3.org/2000/svg">
<g clip-path="url(#clip0_560_2114)">
<path d="M16.7158 40H29.4941H31.1734H31.3921V0H16.7158V40Z" fill="#A68024"/>
<path d="M8.88341 28.7458H7.2041V40H8.88341V28.7458Z" fill="#A68024"/>
<path d="M10.3867 28.7459V40.0001H12.066V11.6565H10.3867V28.7459Z" fill="#A68024"/>
<path d="M15.2545 11.6565H13.5752V40.0001H15.2545V11.6565Z" fill="#A68024"/>
<path d="M34.3619 28.7458H32.6826V40H34.3619V28.7458Z" fill="#A68024"/>
<path d="M37.5445 38.3207V28.7458H35.8652V38.3207V40H37.5445H41.5664V38.3207H37.5445Z" fill="#A68024"/>
<path d="M4.0501 38.3207H0V40H4.0501H5.70118V38.3207V28.7458H4.0501V38.3207Z" fill="#A68024"/>
<path d="M61.1042 13.131H70.2557V15.5089H51.8962V21.1254C51.8962 26.4879 50.9719 30.7144 49.1162 33.8119L47.0488 31.6457C48.46 28.908 49.1656 24.8015 49.1656 19.3261V13.131H58.2677V10.2522H61.1113V13.131H61.1042ZM63.0023 24.1171L65.3166 22.8611C67.2358 25.9587 69.0915 29.2467 70.8696 32.7253L68.5129 33.9601C68.4424 33.826 68.012 32.9934 67.2076 31.4693C61.45 32.4148 56.0663 32.9934 51.0495 33.191L50.9225 30.7849C51.4164 30.7708 52.2631 30.7285 53.4627 30.6579C55.3325 26.3961 57.0894 21.6546 58.7264 16.4332L61.4852 17.047C59.9612 21.8521 58.303 26.3115 56.5108 30.4251C59.4108 30.1781 62.593 29.8112 66.0504 29.3173C65.0344 27.511 64.0183 25.7752 63.0023 24.11V24.1171Z" fill="#231815"/>
<path d="M78.5256 14.0624C77.7565 16.7789 77.3684 19.6507 77.3684 22.6706C77.3684 24.738 77.7212 26.4737 78.4268 27.892C79.1324 29.3102 79.838 30.0158 80.5436 30.0158C81.0234 30.0158 81.6514 29.4937 82.4275 28.4423C83.2037 27.391 83.9728 25.9022 84.7207 23.9618L87.1762 24.9073C86.3224 27.3487 85.2499 29.2608 83.9657 30.6438C82.6815 32.0267 81.475 32.7182 80.339 32.7182C78.9278 32.7182 77.6295 31.7374 76.4441 29.783C75.2587 27.8214 74.666 25.4506 74.666 22.6635C74.666 19.4531 75.0823 16.4825 75.9149 13.7519L78.5327 14.0553L78.5256 14.0624ZM89.3847 14.3799L91.8542 13.5967C93.0043 15.8263 93.8863 18.3665 94.5002 21.21C95.1141 24.0536 95.4175 26.9888 95.4175 30.0229H92.708C92.708 27.2217 92.4187 24.4557 91.8331 21.7251C91.2474 18.9945 90.436 16.5461 89.3847 14.3799Z" fill="#231815"/>
<path d="M101.005 14.3025H107.186V10.9438H109.768V14.3025H115.822V16.4898H109.768V20.3C110.389 20.2506 111.039 20.2224 111.709 20.2224C114.27 20.2224 116.323 20.808 117.883 21.9722C119.442 23.1365 120.218 24.5335 120.218 26.1494C120.218 28.1462 119.597 29.7196 118.363 30.8698C117.128 32.0199 115.293 32.7184 112.866 32.9724L112.351 30.6581C114.136 30.4464 115.456 29.9878 116.295 29.2822C117.142 28.5695 117.558 27.5746 117.558 26.2834C117.558 25.3168 117.022 24.4771 115.956 23.7503C114.891 23.0236 113.473 22.6708 111.702 22.6708C110.996 22.6708 110.354 22.699 109.761 22.7484V28.7248C109.761 30.1712 109.472 31.1732 108.901 31.7447C108.329 32.3162 107.327 32.5985 105.902 32.5985C104.307 32.5985 102.924 32.0763 101.739 31.0391C100.553 30.0019 99.9678 28.76 99.9678 27.3136C99.9678 25.8671 100.603 24.4912 101.859 23.2776C103.122 22.064 104.893 21.2032 107.179 20.6881V16.4827H100.998V14.2954L101.005 14.3025ZM107.186 23.1647C105.676 23.5387 104.526 24.1031 103.736 24.8511C102.945 25.599 102.55 26.4175 102.55 27.3206C102.55 28.0897 102.868 28.7953 103.51 29.4233C104.152 30.0513 104.858 30.3688 105.634 30.3688C106.219 30.3688 106.629 30.2418 106.847 29.9948C107.073 29.7408 107.179 29.2963 107.179 28.6613V23.1718L107.186 23.1647ZM116.824 14.7329L118.659 13.3005C120.169 15.1068 121.531 16.9837 122.751 18.9382L120.804 20.2083C119.562 18.2467 118.236 16.4192 116.824 14.7329Z" fill="#231815"/>
<path d="M126.068 21.9579V19.6436H129.039C128.679 18.1336 128.256 16.5672 127.769 14.9514H126.322V12.6864H131.381V10.3086H134.14V12.6864H139.425V14.9514H138.028C137.682 16.6025 137.259 18.1689 136.744 19.6436H139.679V21.9579H126.075H126.068ZM130.097 32.8593V33.8895H127.353V23.8348H138.515V33.8895H135.862V32.8593H130.097ZM135.862 30.672V26.0927H130.097V30.672H135.862ZM134.211 19.6436C134.761 18.1195 135.206 16.5531 135.53 14.9514H130.344C130.803 16.5319 131.205 18.0913 131.551 19.6436H134.204H134.211ZM146.869 20.4621C147.871 21.3017 148.64 22.2825 149.176 23.4114C149.72 24.5404 149.988 25.7117 149.988 26.9323C149.988 28.4282 149.656 29.5077 148.993 30.1781C148.33 30.8484 147.3 31.1871 145.91 31.1871H144.308L143.842 28.8233H144.562C145.663 28.8233 146.389 28.6893 146.749 28.4211C147.102 28.153 147.286 27.6309 147.286 26.8618C147.286 24.7944 146.15 22.7058 143.878 20.5961C145.155 18.4017 146.213 16.0874 147.053 13.6602H143.165V33.8965H140.512V11.4658H149.79V13.6531C149.049 15.9745 148.083 18.2465 146.883 20.4621H146.869Z" fill="#231815"/>
<path d="M154.842 11.4587H175.079V17.3081H157.545V18.8039H175.671V20.9207H171.932C173.272 22.3319 174.5 23.736 175.622 25.1472L173.505 26.5584C172.99 25.9233 172.567 25.4012 172.221 24.999C170.746 25.1684 169.18 25.3165 167.529 25.4506V27.264H174.563V29.3314H167.529V31.307H176.038V33.4943H156.14V31.307H164.777V29.3314H157.89V27.264H164.777V25.6905C162.103 25.881 159.859 25.9939 158.046 26.0151L157.947 23.9124C158.173 23.9124 158.49 23.9054 158.906 23.8842C159.316 23.863 159.633 23.8419 159.866 23.8277C160.395 22.9528 160.938 21.9861 161.489 20.9207H157.566V21.0689C157.566 26.135 156.62 30.3545 154.736 33.7272L152.669 31.5893C154.13 28.4564 154.856 24.3852 154.856 19.3684V11.4517L154.842 11.4587ZM157.552 15.3324H172.327V13.5967H157.552V15.3324ZM170.556 23.0869C169.73 22.1555 169.081 21.4358 168.594 20.9207H164.438C163.853 22.0708 163.359 22.9881 162.964 23.6796C165.906 23.4961 168.439 23.2985 170.556 23.0869Z" fill="#231815"/>
<path d="M193.459 30.0229C195.442 29.783 196.966 28.9998 198.039 27.6874C199.111 26.375 199.647 24.6181 199.647 22.4166C199.647 20.4339 199.012 18.7828 197.742 17.4492C196.472 16.1157 194.835 15.3748 192.838 15.2125C192.443 18.5076 191.977 21.2877 191.434 23.5385C190.891 25.7893 190.284 27.5039 189.614 28.6752C188.943 29.8465 188.266 30.665 187.596 31.1236C186.918 31.5822 186.17 31.8151 185.338 31.8151C184.011 31.8151 182.798 31.046 181.697 29.5008C180.596 27.9555 180.046 26.0645 180.046 23.8278C180.046 20.5468 181.161 17.8797 183.397 15.8264C185.634 13.7731 188.555 12.75 192.161 12.75C195.061 12.75 197.467 13.6602 199.365 15.4806C201.263 17.3011 202.216 19.6154 202.216 22.4166C202.216 25.2178 201.468 27.6874 199.979 29.4655C198.49 31.2436 196.479 32.2455 193.953 32.4642L193.438 30.0229H193.459ZM190.164 15.3607C187.864 15.7205 186.036 16.659 184.675 18.1831C183.313 19.7071 182.635 21.584 182.635 23.8348C182.635 25.2954 182.939 26.5655 183.553 27.638C184.167 28.7105 184.759 29.2467 185.338 29.2467C185.613 29.2467 185.902 29.1338 186.192 28.901C186.481 28.6682 186.82 28.2307 187.186 27.5886C187.553 26.9465 187.906 26.128 188.245 25.1261C188.584 24.1241 188.915 22.7906 189.261 21.1042C189.6 19.4249 189.903 17.5057 190.164 15.3607Z" fill="#231815"/>
<path d="M205.623 15.6642V13.1311H226.191V15.6642C225.507 17.9432 224.279 20.0671 222.515 22.0286C220.751 23.9902 218.543 25.6624 215.883 27.0595C216.228 27.5534 217.266 29.1057 219.001 31.7023L216.595 33.1981C213.794 28.9858 211.176 25.2461 208.742 21.9863L211.056 20.4128C212.602 22.4943 213.667 23.9478 214.253 24.7663C216.369 23.715 218.246 22.3673 219.883 20.7092C221.527 19.051 222.649 17.3717 223.249 15.6712H205.616L205.623 15.6642Z" fill="#231815"/>
<path d="M231.681 15.0433L232.937 12.6514C235.837 14.0626 238.49 15.4737 240.882 16.892L239.513 19.298C236.648 17.6117 234.044 16.1934 231.688 15.0433H231.681ZM249.391 15.0433L251.959 15.6078C250.202 25.606 243.76 31.1026 232.626 32.0834L232.252 29.4515C237.255 28.9717 241.143 27.5605 243.923 25.225C246.703 22.8895 248.523 19.4886 249.398 15.0433H249.391Z" fill="#231815"/>
<path d="M256.849 18.423C259.164 18.8322 261.979 19.3755 265.295 20.0458L264.801 22.5507C261.669 21.9157 258.853 21.3724 256.355 20.9278L256.849 18.423ZM274.56 15.5653L277.128 16.0028C276.161 21.4288 274.186 25.4225 271.201 27.9838C268.216 30.545 263.743 32.0832 257.795 32.6054L257.421 30.0229C262.868 29.5643 266.869 28.2519 269.437 26.0998C271.998 23.9407 273.713 20.4339 274.567 15.5653H274.56ZM258.007 12.115C260.448 12.5101 263.369 13.0534 266.763 13.7379L266.269 16.2286C262.861 15.5442 259.94 15.0009 257.513 14.6057L258.007 12.115Z" fill="#231815"/>
<path d="M282.921 17.0613H298.26V31.8999H282.921V29.6067H295.509V25.1756H284.008V22.9106H295.509V19.3262H282.921V17.0613Z" fill="#231815"/>
<path d="M304.745 15.0433L306.001 12.6514C308.901 14.0626 311.554 15.4737 313.946 16.892L312.577 19.298C309.712 17.6117 307.109 16.1934 304.752 15.0433H304.745ZM322.455 15.0433L325.024 15.6078C323.267 25.606 316.825 31.1026 305.691 32.0834L305.317 29.4515C310.319 28.9717 314.207 27.5605 316.987 25.225C319.767 22.8895 321.588 19.4886 322.463 15.0433H322.455Z" fill="#231815"/>
<path d="M333.413 29.6349H330.584V17.9785H349.917V29.6349H345.274C347.786 30.4251 349.994 31.2648 351.907 32.1679L350.686 34.2565C348.506 33.1558 345.768 32.0903 342.466 31.0602L343.058 29.6349H337.421L338.063 30.8414C336.031 32.1185 333.201 33.191 329.582 34.066L328.622 31.8998C331.36 31.2295 333.653 30.4745 335.509 29.6349H333.42H333.413ZM332.256 16.9624H329.553V11.3389H350.947V16.9624H332.256ZM332.256 15.0714H335.741V13.4486H332.256V15.0714ZM333.413 21.3371H347.08V20.0882H333.413V21.3371ZM333.413 23.1858V24.484H347.08V23.1858H333.413ZM333.413 26.3327V27.6169H347.08V26.3327H333.413ZM342.184 15.0714V13.4486H338.31V15.0714H342.184ZM344.752 15.0714H348.238V13.4486H344.752V15.0714Z" fill="#231815"/>
<path d="M364.156 29.7618C361.023 30.3122 358.046 30.7496 355.209 31.0601L354.983 28.7316C355.357 28.6964 355.943 28.6329 356.733 28.5341V13.9213H355.308V11.6069H368.319V12.8417H378.501V15.2055C377.795 19.7918 376.455 23.7078 374.486 26.9324C375.763 28.6329 377.386 30.1005 379.355 31.3353L378.035 33.6143C376.116 32.3584 374.43 30.8484 372.99 29.0986C371.6 30.8837 369.984 32.3937 368.143 33.6143L366.837 31.6034V34.073H364.156V29.7689V29.7618ZM364.156 13.9142H359.309V17.0612H364.156V13.9142ZM359.309 22.473H364.156V19.1285H359.309V22.473ZM364.156 27.4192V24.5404H359.309V28.1883C361.094 27.9343 362.71 27.6803 364.156 27.4192ZM367.677 16.5179L370.182 15.9534C370.803 19.3191 371.706 22.1344 372.884 24.3993C374.295 21.7533 375.269 18.6911 375.82 15.1984H367.804V13.9142H366.837V31.2083C368.573 30.0723 370.09 28.6188 371.395 26.8265C369.709 24.0606 368.474 20.6244 367.684 16.5179H367.677Z" fill="#231815"/>
<path d="M393.287 13.498L396.131 13.6744C395.545 20.4128 393.626 26.6503 390.38 32.3867L387.776 31.1802C390.832 25.7189 392.666 19.8272 393.287 13.498ZM401.232 12.7572L403.321 11.6776C404.351 13.498 405.113 14.9022 405.614 15.883L403.539 16.8778C402.742 15.3961 401.973 14.0202 401.239 12.7642L401.232 12.7572ZM403.469 19.0369L406.178 18.2467C407.688 22.2686 409.064 26.8267 410.306 31.9281L407.427 32.4926C406.249 27.5605 404.936 23.0729 403.476 19.0369H403.469ZM405.042 11.8258L407.18 10.718C408.055 12.2633 408.838 13.6886 409.537 15.001L407.399 16.0311C406.672 14.6552 405.882 13.2511 405.042 11.8258Z" fill="#231815"/>
<path d="M413.707 21.7181C417.369 21.2031 420.932 20.1023 424.418 18.416C427.896 16.7225 430.768 14.6975 433.012 12.3408L434.684 14.253C432.687 16.3204 430.161 18.1902 427.106 19.8695V32.93H424.227V21.2877C420.883 22.7624 417.51 23.7432 414.123 24.223L413.707 21.7181Z" fill="#231815"/>
<path d="M440.661 15.509V13.0042H456.896V15.509C455.697 18.3102 453.933 20.9844 451.611 23.5245C454.201 25.8953 456.685 28.2943 459.062 30.7074L457.185 32.542C454.709 30.016 452.246 27.617 449.784 25.3449C446.778 28.1673 443.391 30.4817 439.63 32.3021L438.424 30.0865C442.065 28.2308 445.212 26.0576 447.858 23.5527C450.504 21.055 452.522 18.3666 453.919 15.4949H440.668L440.661 15.509Z" fill="#231815"/>
</g>
<defs>
<clipPath id="clip0_560_2114">
<rect width="460" height="40" fill="white"/>
</clipPath>
</defs>
</svg>
