<svg width="359" height="40" viewBox="0 0 359 40" fill="none" xmlns="http://www.w3.org/2000/svg">
    <g clip-path="url(#clip0)">
        <path d="M75.6079 10.8235C72.4706 10.8235 69.804 13.3334 69.804 16.6275V18.1961C69.804 21.3334 72.3138 24 75.6079 24C78.7451 24 81.4118 21.4902 81.4118 18.1961V16.6275C81.2549 13.4902 78.7451 10.8235 75.6079 10.8235ZM79.6863 18.1961C79.6863 20.3922 77.804 22.2745 75.6079 22.2745C73.4118 22.2745 71.5294 20.3922 71.5294 18.1961V16.6275C71.5294 14.4314 73.4118 12.549 75.6079 12.549C77.804 12.549 79.6863 14.4314 79.6863 16.6275V18.1961Z" fill="#595757"/>
        <path d="M192.471 10.8235C189.333 10.8235 186.667 13.3334 186.667 16.6275V18.1961C186.667 21.3334 189.177 24 192.471 24C195.608 24 198.275 21.4902 198.275 18.1961V16.6275C198.275 13.4902 195.608 10.8235 192.471 10.8235ZM196.549 18.1961C196.549 20.3922 194.667 22.2745 192.471 22.2745C190.275 22.2745 188.392 20.3922 188.392 18.1961V16.6275C188.392 14.4314 190.275 12.549 192.471 12.549C194.667 12.549 196.549 14.4314 196.549 16.6275V18.1961Z" fill="#595757"/>
        <path d="M183.529 16L179.608 13.1765V12.549L182.118 14.2745C182.431 14.4314 182.745 14.4314 182.902 14.1177C183.059 13.8039 183.059 13.4902 182.745 13.3333L179.608 10.9804V10.1961L181.333 11.451C181.647 11.6078 181.961 11.6078 182.118 11.2941C182.274 10.9804 182.274 10.6667 181.961 10.5098L179.451 8.62745V7.84314L180.706 8.78432C181.02 8.94118 181.333 8.94118 181.49 8.62745C181.647 8.31373 181.647 8 181.333 7.84314L178.823 5.96079C178.667 5.80392 178.353 5.80392 178.039 5.96079L175.843 7.84314C175.529 8 175.529 8.47059 175.686 8.62745C175.843 8.94118 176.314 8.94118 176.471 8.78432L177.725 7.84314V8.62745L175.216 10.5098C174.902 10.6667 174.902 11.1373 175.059 11.2941C175.216 11.6078 175.686 11.6078 175.843 11.451L177.569 10.1961V10.9804L174.431 13.3333C174.118 13.4902 174.118 13.9608 174.274 14.1177C174.431 14.4314 174.902 14.4314 175.059 14.2745L177.569 12.549V13.3333L173.647 16.1569C173.333 16.3137 173.333 16.7843 173.49 16.9412C173.647 17.2549 174.118 17.2549 174.274 17.098L177.412 14.7451V24H179.137V14.7451L182.274 17.098C182.588 17.2549 182.902 17.2549 183.059 16.9412C183.843 16.6275 183.686 16.3137 183.529 16Z" fill="#595757"/>
        <path d="M86.5883 16.6275V18.1961C86.5883 21.3334 89.0981 24 92.3922 24H96.4706V24.6275C96.4706 25.7255 95.5294 26.5098 94.5882 26.5098H87.8432V28.2353H94.5882C96.6275 28.2353 98.1961 26.6667 98.1961 24.6275V10.8235H92.3922C89.2549 10.8235 86.5883 13.4902 86.5883 16.6275ZM96.4706 22.2745H92.3922C90.1961 22.2745 88.3137 20.3922 88.3137 18.1961V16.6275C88.3137 14.4314 90.1961 12.549 92.3922 12.549H96.4706V22.2745Z" fill="#595757"/>
        <path d="M115.765 10.8235H112.627H104.314V23.8432H106.039V12.549H111.059V24H112.784V12.549H115.922C116.863 12.549 117.647 13.4902 117.647 14.4314V23.8432H119.373V14.4314C119.373 12.549 117.804 10.8235 115.765 10.8235Z" fill="#595757"/>
        <path d="M211.451 10.8235H203.608V23.8432H205.333V12.549H211.451C212.549 12.549 213.333 13.4902 213.333 14.4314V23.8432H215.059V14.4314C215.059 12.549 213.333 10.8235 211.451 10.8235Z" fill="#595757"/>
        <path d="M150.275 10.8235H142.431V23.8432H144.157V12.549H150.275C151.373 12.549 152.157 13.4902 152.157 14.4314V23.8432H153.882V14.4314C153.882 12.549 152.314 10.8235 150.275 10.8235Z" fill="#595757"/>
        <path d="M132.549 10.8235H125.647V12.549H132.549C133.647 12.549 134.431 13.4902 134.431 14.4314V16.1569H128.627C126.431 16.1569 124.706 17.8824 124.706 20.0784C124.706 22.2745 126.431 24 128.627 24H136.157V14.5883C136.157 12.549 134.588 10.8235 132.549 10.8235ZM134.431 22.2745H128.627C127.372 22.2745 126.431 21.3334 126.431 20.0784C126.431 18.8235 127.372 17.8824 128.627 17.8824H134.588V22.2745H134.431Z" fill="#595757"/>
        <path d="M166.902 16.1569H162.824C161.882 16.1569 160.941 15.3726 160.941 14.2745C160.941 13.3334 161.726 12.3922 162.824 12.3922H170.039V10.8235H162.824C160.941 10.8235 159.373 12.3922 159.373 14.2745C159.373 16.1569 160.941 17.7255 162.824 17.7255H166.902C168.157 17.7255 169.098 18.6667 169.098 19.9216C169.098 21.1765 168.157 22.1177 166.902 22.1177H160.157V23.8432H166.902C169.098 23.8432 170.824 22.1177 170.824 19.9216C170.667 17.8824 168.941 16.1569 166.902 16.1569Z" fill="#595757"/>
        <path d="M52.8627 5.96082H51.2941V24H65.5686V22.2745H52.8627V5.96082Z" fill="#595757"/>
        <path d="M243.608 24H238.274C233.255 24 229.333 19.9216 229.333 15.0589C229.333 10.1961 233.412 6.11768 238.274 6.11768H243.608V7.6863H238.274C234.196 7.6863 230.902 10.9804 230.902 15.0589C230.902 19.1373 234.196 22.4314 238.274 22.4314H243.608V24Z" fill="#595757"/>
        <path d="M254.118 24C250.98 24 248.314 21.4902 248.314 18.1961V10.9804H250.039V18.353C250.039 20.549 251.921 22.4314 254.118 22.4314C256.314 22.4314 258.196 20.549 258.196 18.353V10.9804H259.921V18.353C259.921 21.4902 257.412 24 254.118 24Z" fill="#595757"/>
        <path d="M296 24C292.863 24 290.196 21.4902 290.196 18.1961V16.6275C290.196 13.4902 292.706 10.8235 296 10.8235C299.137 10.8235 301.804 13.3334 301.804 16.6275V18.1961C301.804 21.4902 299.137 24 296 24ZM296 12.549C293.804 12.549 291.922 14.4314 291.922 16.6275V18.1961C291.922 20.3922 293.804 22.2745 296 22.2745C298.196 22.2745 300.078 20.3922 300.078 18.1961V16.6275C300.078 14.4314 298.196 12.549 296 12.549Z" fill="#595757"/>
        <path d="M328 10.9804H326.274V24H328V10.9804Z" fill="#595757"/>
        <path d="M328 5.96082H326.274V8.31376H328V5.96082Z" fill="#595757"/>
        <path d="M271.843 24H265.098V22.2745H271.843C273.098 22.2745 274.039 21.3334 274.039 20.0784C274.039 18.8235 273.098 17.8824 271.843 17.8824H267.765C265.882 17.8824 264.314 16.3137 264.314 14.4314C264.314 12.549 265.882 10.9804 267.765 10.9804H274.98V12.549H267.765C266.823 12.549 265.882 13.3333 265.882 14.4314C265.882 15.3726 266.667 16.3137 267.765 16.3137H271.843C274.039 16.3137 275.765 18.0392 275.765 20.2353C275.765 22.2745 273.882 24 271.843 24Z" fill="#595757"/>
        <path d="M357.961 24H351.059C349.02 24 347.451 22.4314 347.451 20.3922V14.7451C347.451 12.549 349.176 10.8235 351.372 10.8235H354.98C357.176 10.8235 358.902 12.549 358.902 14.7451C358.902 16.9412 357.176 18.6667 354.98 18.6667H349.02V20.3922C349.02 21.4902 349.961 22.2745 350.902 22.2745H357.804V24H357.961ZM349.176 16.9412H355.137C356.392 16.9412 357.333 16 357.333 14.7451C357.333 13.4902 356.392 12.549 355.137 12.549H351.372C350.118 12.549 349.176 13.4902 349.176 14.7451V16.9412Z" fill="#595757"/>
        <path d="M343.529 10.9804H333.02V12.549H341.02L332.863 22.5883V24H343.529V22.2745H335.216L343.529 12.2353V10.9804Z" fill="#595757"/>
        <path d="M147.765 35.1373C147.765 34.0392 147.608 32.6275 147.608 32.6275C147.608 32.4706 147.294 31.8432 147.294 31.6863C147.294 31.5294 147.451 31.3726 147.608 31.3726C147.765 31.3726 148.079 31.5294 148.235 31.6863C149.02 31.5294 149.333 31.5294 151.216 31.2157C151.529 31.2157 151.686 31.2157 152.157 30.902C152.471 30.7451 152.628 30.7451 152.784 30.7451C153.098 30.7451 153.412 31.0588 153.412 31.3726C153.412 31.5294 153.412 31.6863 153.255 31.8432C153.255 31.8432 152.784 32.9412 152.471 34.5098C152.784 34.6667 153.098 34.6667 153.098 34.9804C153.098 34.9804 153.098 35.2941 152.784 35.2941C152.784 35.2941 152.157 35.2941 152 35.2941C151.686 35.2941 149.333 35.2941 148.549 35.6079C148.549 35.7647 148.549 35.9216 148.549 36.0785C148.549 36.2353 148.392 36.549 148.235 36.549C147.922 36.549 147.765 36.2353 147.765 36.0785V35.1373ZM152.157 32.3137V32.1569C152.157 31.8432 152 31.8432 151.843 31.8432C151.059 31.8432 149.02 32.3137 148.392 32.3137C148.549 32.7843 148.549 34.1961 148.706 35.1373C150.118 34.9804 151.059 34.8235 151.843 34.6667C151.686 34.353 152.157 32.6275 152.157 32.3137Z" fill="#595757"/>
        <path d="M160.157 31.3725C160.314 31.3725 160.784 31.3725 161.726 31.0588C162.196 30.902 162.353 30.902 162.51 30.902C162.824 30.902 163.137 31.0588 163.137 31.3725C163.137 31.5294 163.137 31.6863 162.824 31.8431C162.667 32 161.726 33.5686 161.569 33.7255C160.941 34.6667 159.529 36.549 156.549 37.3333C156.549 37.3333 155.765 37.6471 155.451 37.6471C155.294 37.6471 154.98 37.6471 154.98 37.4902C154.98 37.4902 154.98 37.3333 155.608 37.3333C156.392 37.1765 157.49 36.549 158.275 35.9216C160.471 34.1961 161.726 32 161.726 31.6863C161.726 31.5294 161.569 31.5294 161.569 31.5294C161.412 31.5294 160.314 31.8431 160.157 31.8431C160 31.8431 159.843 31.8431 159.686 31.6863C158.588 33.098 157.177 34.0392 156.549 34.0392C156.549 34.0392 156.235 34.0392 156.235 33.8823L156.706 33.5686C158.431 32.4706 159.373 30.7451 159.529 30.4314C159.686 30.1176 159.686 29.9608 160 29.9608C160.314 29.9608 160.628 30.1176 160.628 30.4314C160.628 30.5882 160.471 30.7451 160.157 31.3725C160 31.3725 160 31.2157 160.157 31.3725ZM163.608 30.4314C163.451 30.4314 163.294 30.4314 162.98 29.9608C162.98 29.9608 162.51 29.3333 162.196 29.1765C162.196 29.1765 162.039 29.1765 162.039 29.0196H162.196C162.824 29.0196 163.765 29.4902 163.765 30.1176C163.922 30.2745 163.765 30.4314 163.608 30.4314ZM164.706 29.8039C164.549 29.8039 164.549 29.8039 164.078 29.3333C163.765 28.8627 163.608 28.7059 163.294 28.549L163.137 28.3922H163.294C163.922 28.3922 164.863 28.8627 164.863 29.4902C165.02 29.6471 165.02 29.8039 164.706 29.8039Z" fill="#595757"/>
        <path d="M170.98 34.9804C171.451 35.2941 171.922 35.9216 171.922 36.3922C171.922 36.549 171.922 37.0196 171.451 37.0196C171.137 37.0196 170.98 36.7059 170.824 36.3922C170.51 35.9216 170.196 35.451 169.569 34.8235C169.412 34.6667 168.784 34.1961 168.784 34.1961C168.784 34.1961 168.784 34.0392 168.941 34.0392C169.255 34.0392 169.882 34.1961 170.667 34.6667C171.451 34.0392 172.706 32.4706 172.706 32C172.706 31.8432 172.549 31.8432 172.392 31.8432C171.765 31.8432 168 32.1569 167.216 32.4706C167.059 32.4706 166.431 32.7843 166.431 32.7843C166.275 32.7843 166.118 32.6275 166.118 32.3137C166.118 31.6863 166.745 31.6863 166.902 31.6863C167.686 31.6863 168.471 31.6863 170.039 31.5294C170.98 31.5294 172.549 31.3726 172.706 31.2157C173.02 31.2157 173.333 31.0588 173.49 31.0588C173.961 31.0588 174.275 31.3726 174.275 31.6863C174.275 32 174.118 32.1569 173.961 32.3137C173.804 32.4706 173.02 33.2549 172.863 33.4118C172.235 34.0392 171.765 34.353 170.98 34.9804Z" fill="#595757"/>
        <path d="M178.039 32.4706C177.882 32.4706 177.725 32.4706 177.412 32C177.098 31.6863 176.471 31.2157 176 31.0588C176 31.0588 175.843 31.0588 175.843 30.902C175.843 30.7451 176.157 30.7451 176.314 30.7451C176.941 30.7451 178.353 30.902 178.353 31.8432C178.51 32.4706 178.196 32.4706 178.039 32.4706ZM176.157 36.2353C176.157 35.9216 176.314 35.9216 176.314 35.9216C176.784 35.9216 177.412 35.9216 179.608 34.353C180.392 33.7255 182.118 32.3137 182.902 31.2157C183.059 31.0588 183.059 30.902 183.216 30.902C183.373 30.902 183.373 30.902 183.373 31.0588C183.373 31.3726 182.275 33.2549 180.549 34.5098C179.922 35.1373 178.039 36.7059 176.784 36.7059C176.471 36.8628 176.157 36.549 176.157 36.2353Z" fill="#595757"/>
        <path d="M186.824 33.5686C186.667 33.5686 186.51 33.4117 186.353 33.2549C186.039 32.9411 185.412 32.6274 184.941 32.4706C184.784 32.4706 184.784 32.4706 184.784 32.3137C184.784 32.1568 184.941 32.1568 184.941 32.1568C186.667 32.1568 187.294 32.6274 187.294 33.098C187.294 33.4117 186.98 33.5686 186.824 33.5686ZM189.647 34.6666C189.02 35.2941 186.981 37.0196 185.726 37.0196C185.412 37.0196 185.098 36.7058 185.098 36.3921C185.098 36.2353 185.098 36.0784 185.412 36.0784C186.039 36.0784 186.51 36.0784 188.392 34.6666C189.49 33.8823 191.373 32.3137 192 31.3725C192.157 31.0588 192.314 31.0588 192.314 31.0588C192.471 31.0588 192.471 31.2157 192.471 31.2157C192.314 31.6862 191.216 33.4117 189.647 34.6666ZM187.294 31.5294C187.137 31.5294 187.137 31.5294 186.667 31.2157C186.51 31.0588 185.882 30.5882 185.255 30.4313C185.098 30.4313 185.098 30.2745 185.098 30.2745C185.098 30.1176 185.255 30.1176 185.412 30.1176C185.726 30.1176 187.765 30.2745 187.765 31.0588C187.922 31.5294 187.608 31.5294 187.294 31.5294Z" fill="#595757"/>
        <path d="M198.118 33.5686C198.118 33.2549 198.118 33.2549 197.647 33.2549C196.706 33.2549 195.294 33.4118 194.823 33.5686C194.667 33.5686 194.196 33.7255 194.196 33.7255C194.039 33.7255 193.882 33.5686 193.882 33.4118C193.882 32.9412 194.196 32.9412 194.51 32.9412C195.294 32.9412 197.02 32.9412 197.804 32.7843C197.961 32.7843 198.431 32.6274 198.588 32.6274C198.902 32.6274 199.059 32.7843 199.059 33.098L198.902 33.8823C198.745 34.3529 198.588 36.0784 198.431 36.3921C198.745 36.3921 199.059 36.549 199.059 36.8627C199.059 37.0196 198.745 37.1765 198.745 37.1765H198.431C198.274 37.1765 198.118 37.1765 197.961 37.1765C197.333 37.1765 195.294 37.3333 194.823 37.4902C194.667 37.4902 194.353 37.647 194.196 37.647C194.039 37.647 194.039 37.4902 194.039 37.3333C194.039 36.8627 194.196 36.8627 194.667 36.8627C194.824 36.8627 196.235 36.7059 197.804 36.549L197.961 35.1372C196.863 35.1372 195.137 35.2941 194.51 35.451C194.196 35.6078 194.196 35.6078 194.039 35.6078C193.882 35.6078 193.882 35.451 193.882 35.2941C193.882 34.8235 194.039 34.8235 194.823 34.8235C195.451 34.8235 197.333 34.8235 197.961 34.6667C198.118 34.3529 198.118 33.7255 198.118 33.5686Z" fill="#595757"/>
        <path d="M202.98 32.4706C202.824 32.4706 202.667 32.4706 202.353 32C202.039 31.6863 201.412 31.2157 200.941 31.0588C200.941 31.0588 200.784 31.0588 200.784 30.902C200.784 30.7451 201.098 30.7451 201.255 30.7451C201.882 30.7451 203.294 30.902 203.294 31.8432C203.451 32.4706 203.137 32.4706 202.98 32.4706ZM201.098 36.2353C201.098 35.9216 201.255 35.9216 201.255 35.9216C201.725 35.9216 202.353 35.9216 204.549 34.353C205.333 33.7255 207.059 32.3137 207.843 31.2157C208 31.0588 208 30.902 208.157 30.902C208.314 30.902 208.314 30.902 208.314 31.0588C208.314 31.3726 207.216 33.2549 205.49 34.5098C204.863 35.1373 202.98 36.7059 201.725 36.7059C201.412 36.8628 201.098 36.549 201.098 36.2353Z" fill="#595757"/>
        <path d="M216.314 31.2157C216.627 31.2157 216.784 31.5294 216.784 31.6863C216.784 31.6863 216.784 31.8431 216.784 32C216.784 32 216.784 32.3137 216.784 32.4706C216.471 35.2941 216.314 37.0196 215.059 37.0196C214.431 37.0196 213.647 35.9216 213.647 35.7647L213.804 35.9216C213.961 36.0784 214.275 36.0784 214.588 36.0784C214.902 36.0784 215.059 36.0784 215.373 35.6078C215.529 35.1372 215.843 33.4117 215.843 32.3137C215.843 32 215.686 32 215.529 32C215.373 32 214.902 32 214.118 32.1568C213.804 33.4117 213.49 35.451 211.137 37.0196C210.353 37.647 209.412 37.8039 209.412 37.8039C209.255 37.8039 209.098 37.647 209.098 37.647C209.098 37.647 209.726 37.3333 209.882 37.1765C211.922 35.9216 213.02 34.3529 213.333 32.3137C212.706 32.4706 211.608 32.4706 211.451 32.6274C210.824 32.9412 210.824 32.9412 210.667 32.9412C210.51 32.9412 210.353 32.7843 210.353 32.6274C210.353 32 210.667 32 211.608 32C212.079 32 212.706 32 213.49 31.8431C213.647 31.0588 213.647 30.9019 213.647 29.647C213.647 29.3333 213.647 29.1765 213.961 29.1765C214.275 29.1765 214.745 29.4902 214.745 29.8039C214.745 29.9608 214.588 30.1176 214.588 30.1176C214.431 31.0588 214.431 31.3725 214.431 31.6863C214.431 31.6863 215.686 31.5294 216 31.5294C215.843 31.3725 216.157 31.2157 216.314 31.2157Z" fill="#595757"/>
        <path d="M226.353 36.0784C226.353 36.2353 226.353 36.8627 225.882 36.8627C225.569 36.8627 225.412 36.7058 225.098 36.0784C224.628 35.2941 224 34.5098 223.216 34.0392C222.588 34.8235 221.804 35.6078 220.235 36.3921C219.137 37.0196 218.353 37.1764 218.196 37.1764C218.196 37.1764 218.039 37.1764 218.039 37.0196C218.039 36.8627 218.039 36.8627 218.353 36.8627C219.451 36.3921 220.079 36.0784 221.177 35.1372C222.902 33.7255 223.373 32.1568 223.686 31.6862C223.686 31.5294 223.843 31.3725 223.843 31.2157C223.843 31.0588 223.529 31.0588 223.529 31.0588C223.059 31.0588 221.333 31.3725 221.02 31.3725C220.392 31.5294 220.392 31.6862 220.235 31.6862C220.079 31.6862 219.922 31.5294 219.922 31.3725C219.922 30.9019 220.235 30.7451 220.706 30.7451H221.647C221.804 30.7451 223.529 30.7451 223.686 30.5882C223.686 30.5882 224 30.4313 224 30.2745C224.157 30.2745 224.314 30.1176 224.471 30.1176C224.784 30.1176 225.098 30.4313 225.098 30.5882C225.098 30.7451 225.098 30.7451 224.784 31.3725L224.628 31.8431C224.157 32.9411 223.843 33.4117 223.686 33.5686C224.941 34.0392 226.353 35.1372 226.353 36.0784Z" fill="#595757"/>
        <path d="M232.784 34.9804C230.902 36.8627 228.079 37.4902 227.922 37.4902C227.765 37.4902 227.451 37.4902 227.451 37.3333C227.451 37.3333 227.765 37.1765 227.922 37.1765C230.118 36.549 231.529 35.1372 232.157 34.3529C231.529 33.8823 231.373 33.7255 231.059 33.5686C231.059 33.5686 230.902 33.5686 230.902 33.4117C230.902 33.4117 230.902 33.2549 231.059 33.2549C231.216 33.2549 232 33.4117 232.628 33.7255C233.882 32.1568 234.039 31.3725 234.039 31.3725C234.039 31.2157 233.882 31.2157 233.882 31.2157C233.569 31.2157 232.627 31.5294 232.471 31.5294C232.314 31.5294 232.157 31.5294 232 31.3725C231.059 32.6274 229.49 33.7255 228.706 33.7255C228.706 33.7255 228.392 33.7255 228.392 33.5686C228.392 33.5686 228.863 33.2549 229.02 33.098C230.588 32 231.529 30.4314 231.686 29.9608C231.843 29.647 231.843 29.4902 232.157 29.4902C232.471 29.4902 232.784 29.647 232.784 29.9608C232.784 30.1176 232.628 30.4314 232.628 30.4314L232.314 30.7451C232.314 30.7451 232.471 30.9019 232.628 30.9019C232.941 30.9019 233.412 30.7451 234.196 30.5882C234.667 30.4314 234.824 30.4314 234.98 30.4314C235.294 30.4314 235.608 30.5882 235.608 30.9019C235.608 31.0588 235.608 31.2157 235.294 31.5294C235.137 31.6863 234.824 32.3137 234.667 32.4706C234.196 33.2549 233.726 33.7255 233.569 34.0392C233.882 34.3529 234.667 34.8235 234.667 35.2941C234.667 35.451 234.667 35.6078 234.353 35.6078C234.039 35.6078 234.039 35.6078 233.726 35.1372C233.255 35.1372 233.098 34.9804 232.784 34.9804Z" fill="#595757"/>
        <path d="M241.882 34.9804C242.353 35.2941 242.824 35.9216 242.824 36.3922C242.824 36.549 242.824 37.0196 242.353 37.0196C242.039 37.0196 241.882 36.7059 241.726 36.3922C241.412 35.9216 241.098 35.451 240.314 34.8235C240.157 34.6667 239.529 34.1961 239.529 34.1961C239.529 34.1961 239.529 34.0392 239.686 34.0392C240 34.0392 240.627 34.1961 241.412 34.6667C242.196 34.0392 243.451 32.4706 243.451 32C243.451 31.8432 243.294 31.8432 243.137 31.8432C242.51 31.8432 238.745 32.1569 237.961 32.4706C237.804 32.4706 237.177 32.7843 237.177 32.7843C237.02 32.7843 236.863 32.6275 236.863 32.3137C236.863 31.6863 237.49 31.6863 237.647 31.6863C238.431 31.6863 239.216 31.6863 240.784 31.5294C241.726 31.5294 243.294 31.3726 243.451 31.2157C243.765 31.2157 244.078 31.0588 244.235 31.0588C244.706 31.0588 245.02 31.3726 245.02 31.6863C245.02 32 244.863 32.1569 244.706 32.3137C244.549 32.4706 243.765 33.2549 243.608 33.4118C243.294 34.0392 242.667 34.353 241.882 34.9804Z" fill="#595757"/>
        <path d="M251.608 34.0392C251.608 34.5098 251.608 36.549 251.608 37.0196C251.608 37.1764 251.608 37.8039 251.137 37.8039C250.824 37.8039 250.51 37.1764 250.51 36.8627C250.51 36.7059 250.667 36.2353 250.667 36.0784C250.824 35.451 250.824 33.098 250.824 32.6274C250.824 32.1568 250.824 32.1568 250.667 32C250.196 32.4706 249.098 33.4117 247.059 33.8823C246.745 34.0392 246.431 34.0392 246.431 34.0392C246.275 34.0392 246.275 34.0392 246.275 34.0392C246.275 34.0392 247.373 33.5686 247.529 33.4117C249.726 32.3137 251.137 30.4314 251.137 29.9608C251.294 29.647 251.294 29.3333 251.765 29.3333C252.078 29.3333 252.392 29.4902 252.392 29.8039C252.392 30.2745 251.765 30.9019 250.824 31.8431C251.137 31.8431 251.451 32 251.451 32.3137C251.451 32.3137 251.294 32.6274 251.294 32.7843V34.0392H251.608Z" fill="#595757"/>
        <path d="M262.588 36.2353C262.588 36.2353 262.588 37.0196 262.118 37.0196C261.804 37.0196 261.647 36.8627 261.333 36.2353C260.863 35.451 260.235 34.6667 259.451 34.1961C258.824 34.9804 257.882 36.0784 255.686 37.0196C255.373 37.1765 254.588 37.4902 254.431 37.4902C254.275 37.4902 254.275 37.4902 254.275 37.3333C254.275 37.1765 254.431 37.1765 254.431 37.1765C256.627 36.2353 258.51 34.8235 259.608 32.6274C259.765 32.3137 260.078 31.6863 260.078 31.5294C260.078 31.3725 259.765 31.3725 259.765 31.3725C259.137 31.3725 257.412 31.6863 257.255 31.6863C256.627 32 256.627 32 256.471 32C256.157 32 256.157 31.8431 256.157 31.6863C256.157 31.2157 256.627 31.0588 256.941 31.0588C257.098 31.0588 257.569 31.0588 257.726 31.0588C258.51 31.0588 259.765 31.0588 259.922 30.902C260.235 30.7451 260.392 30.5882 260.549 30.5882C260.863 30.5882 261.176 30.902 261.176 31.0588C261.176 31.2157 261.176 31.2157 260.863 31.6863C260.863 31.8431 260.549 32.3137 260.549 32.4706C260.235 33.2549 259.922 33.7255 259.608 34.0392C261.02 34.3529 262.588 35.451 262.588 36.2353ZM262.431 30.7451C262.275 30.7451 262.275 30.7451 261.804 30.2745C261.49 29.9608 261.333 29.8039 261.02 29.4902C261.02 29.4902 261.02 29.4902 261.02 29.3333C261.02 29.3333 261.02 29.3333 261.176 29.3333C261.804 29.3333 262.745 29.8039 262.745 30.4314C262.745 30.5882 262.745 30.7451 262.431 30.7451ZM263.686 29.9608C263.529 29.9608 263.373 29.9608 263.059 29.3333C263.059 29.1765 262.745 28.8627 262.431 28.7059C262.431 28.7059 262.275 28.7059 262.275 28.549C262.275 28.549 262.275 28.549 262.431 28.549C263.059 28.549 264 29.0196 264 29.647C263.843 29.8039 263.843 29.9608 263.686 29.9608Z" fill="#595757"/>
        <path d="M10.196 32.1569L10.8235 23.0589L10.9804 14.4314L11.4509 14.902L18.6666 10.353L25.7255 5.96081L33.2549 10.0392L35.7647 11.6079C32.7843 5.96081 26.8235 2.19611 20.0784 2.19611C10.196 2.19611 2.19604 10.1961 2.19604 20.0785C2.19604 29.9608 10.196 37.9608 20.0784 37.9608C20.8627 37.9608 21.4902 37.9608 22.2745 37.804L18.6666 35.6079L10.196 32.1569Z" fill="black"/>
        <path d="M25.8823 7.21564L18.8235 10.8235L12.549 15.3725L12.3921 23.2156L10.9803 31.6862L18.0392 34.9803L23.6862 37.4901C24.1568 37.3333 24.7843 37.1764 25.2549 37.0196L25.4117 35.1372V32.9411V30.745L25.098 28.549V26.3529L25.2549 24.1568L26.0392 24.4705L25.8823 26.6666L25.7254 28.8627L26.0392 31.0588L25.8823 33.2549V35.4509L26.0392 37.0196C32.7843 34.5098 37.647 27.9215 37.647 20.2352C37.647 19.1372 37.4902 18.0392 37.3333 17.098L35.4509 18.0392L33.7254 19.1372L31.8431 20.2352L29.9607 21.1764L28.2352 22.2745L26.6666 23.2156L26.5098 22.5882L28.549 21.3333L30.5882 19.9215L32.6274 18.8235L34.8235 17.7254L36.8627 16.4705L37.4902 16.1568C37.1764 14.9019 36.7058 13.647 36.2353 12.549L33.098 10.9803L25.8823 7.21564ZM24.9411 23.0588L22.9019 21.9607L20.8627 20.8627L19.1372 19.2941L16.9411 18.5098L15.0588 17.2549L13.1764 16.1568L13.4902 15.6862L15.5294 16.6274L17.5686 17.7254L19.6078 18.8235L21.4902 20.0784L23.3725 21.1764L25.2549 22.4313L24.9411 23.0588Z" fill="black"/>
        <path d="M20.0784 40C8.94118 40 0 31.0588 0 20.0784C0 8.94118 8.94118 0 20.0784 0C31.0588 0 40.1569 8.94118 40.1569 20.0784C40 31.0588 31.0588 40 20.0784 40ZM20.0784 0.784314C9.41177 0.784314 0.784314 9.41177 0.784314 20.0784C0.784314 30.7451 9.41177 39.3726 20.0784 39.3726C30.7451 39.3726 39.3726 30.7451 39.3726 20.0784C39.3726 9.41177 30.5882 0.784314 20.0784 0.784314Z" fill="black"/>
        <path d="M75.6079 10.8235C72.4706 10.8235 69.804 13.3334 69.804 16.6275V18.1961C69.804 21.3334 72.3138 24 75.6079 24C78.7451 24 81.4118 21.4902 81.4118 18.1961V16.6275C81.2549 13.4902 78.7451 10.8235 75.6079 10.8235ZM79.6863 18.1961C79.6863 20.3922 77.804 22.2745 75.6079 22.2745C73.4118 22.2745 71.5294 20.3922 71.5294 18.1961V16.6275C71.5294 14.4314 73.4118 12.549 75.6079 12.549C77.804 12.549 79.6863 14.4314 79.6863 16.6275V18.1961Z" fill="#595757"/>
        <path d="M192.471 10.8235C189.333 10.8235 186.667 13.3334 186.667 16.6275V18.1961C186.667 21.3334 189.177 24 192.471 24C195.608 24 198.275 21.4902 198.275 18.1961V16.6275C198.275 13.4902 195.608 10.8235 192.471 10.8235ZM196.549 18.1961C196.549 20.3922 194.667 22.2745 192.471 22.2745C190.275 22.2745 188.392 20.3922 188.392 18.1961V16.6275C188.392 14.4314 190.275 12.549 192.471 12.549C194.667 12.549 196.549 14.4314 196.549 16.6275V18.1961Z" fill="#595757"/>
        <path d="M183.529 16L179.608 13.1765V12.549L182.118 14.2745C182.431 14.4314 182.745 14.4314 182.902 14.1177C183.059 13.8039 183.059 13.4902 182.745 13.3333L179.608 10.9804V10.1961L181.333 11.451C181.647 11.6078 181.961 11.6078 182.118 11.2941C182.274 10.9804 182.274 10.6667 181.961 10.5098L179.451 8.62745V7.84314L180.706 8.78432C181.02 8.94118 181.333 8.94118 181.49 8.62745C181.647 8.31373 181.647 8 181.333 7.84314L178.823 5.96079C178.667 5.80392 178.353 5.80392 178.039 5.96079L175.843 7.84314C175.529 8 175.529 8.47059 175.686 8.62745C175.843 8.94118 176.314 8.94118 176.471 8.78432L177.725 7.84314V8.62745L175.216 10.5098C174.902 10.6667 174.902 11.1373 175.059 11.2941C175.216 11.6078 175.686 11.6078 175.843 11.451L177.569 10.1961V10.9804L174.431 13.3333C174.118 13.4902 174.118 13.9608 174.274 14.1177C174.431 14.4314 174.902 14.4314 175.059 14.2745L177.569 12.549V13.3333L173.647 16.1569C173.333 16.3137 173.333 16.7843 173.49 16.9412C173.647 17.2549 174.118 17.2549 174.274 17.098L177.412 14.7451V24H179.137V14.7451L182.274 17.098C182.588 17.2549 182.902 17.2549 183.059 16.9412C183.843 16.6275 183.686 16.3137 183.529 16Z" fill="#595757"/>
        <path d="M86.5883 16.6275V18.1961C86.5883 21.3334 89.0981 24 92.3922 24H96.4706V24.6275C96.4706 25.7255 95.5294 26.5098 94.5882 26.5098H87.8432V28.2353H94.5882C96.6275 28.2353 98.1961 26.6667 98.1961 24.6275V10.8235H92.3922C89.2549 10.8235 86.5883 13.4902 86.5883 16.6275ZM96.4706 22.2745H92.3922C90.1961 22.2745 88.3137 20.3922 88.3137 18.1961V16.6275C88.3137 14.4314 90.1961 12.549 92.3922 12.549H96.4706V22.2745Z" fill="#595757"/>
        <path d="M115.765 10.8235H112.627H104.314V23.8432H106.039V12.549H111.059V24H112.784V12.549H115.922C116.863 12.549 117.647 13.4902 117.647 14.4314V23.8432H119.373V14.4314C119.373 12.549 117.804 10.8235 115.765 10.8235Z" fill="#595757"/>
        <path d="M211.451 10.8235H203.608V23.8432H205.333V12.549H211.451C212.549 12.549 213.333 13.4902 213.333 14.4314V23.8432H215.059V14.4314C215.059 12.549 213.333 10.8235 211.451 10.8235Z" fill="#595757"/>
        <path d="M150.275 10.8235H142.431V23.8432H144.157V12.549H150.275C151.373 12.549 152.157 13.4902 152.157 14.4314V23.8432H153.882V14.4314C153.882 12.549 152.314 10.8235 150.275 10.8235Z" fill="#595757"/>
        <path d="M132.549 10.8235H125.647V12.549H132.549C133.647 12.549 134.431 13.4902 134.431 14.4314V16.1569H128.627C126.431 16.1569 124.706 17.8824 124.706 20.0784C124.706 22.2745 126.431 24 128.627 24H136.157V14.5883C136.157 12.549 134.588 10.8235 132.549 10.8235ZM134.431 22.2745H128.627C127.372 22.2745 126.431 21.3334 126.431 20.0784C126.431 18.8235 127.372 17.8824 128.627 17.8824H134.588V22.2745H134.431Z" fill="#595757"/>
        <path d="M166.902 16.1569H162.824C161.882 16.1569 160.941 15.3726 160.941 14.2745C160.941 13.3334 161.726 12.3922 162.824 12.3922H170.039V10.8235H162.824C160.941 10.8235 159.373 12.3922 159.373 14.2745C159.373 16.1569 160.941 17.7255 162.824 17.7255H166.902C168.157 17.7255 169.098 18.6667 169.098 19.9216C169.098 21.1765 168.157 22.1177 166.902 22.1177H160.157V23.8432H166.902C169.098 23.8432 170.824 22.1177 170.824 19.9216C170.667 17.8824 168.941 16.1569 166.902 16.1569Z" fill="#595757"/>
        <path d="M52.8627 5.96082H51.2941V24H65.5686V22.2745H52.8627V5.96082Z" fill="#595757"/>
        <path d="M243.608 24H238.274C233.255 24 229.333 19.9216 229.333 15.0589C229.333 10.1961 233.412 6.11768 238.274 6.11768H243.608V7.6863H238.274C234.196 7.6863 230.902 10.9804 230.902 15.0589C230.902 19.1373 234.196 22.4314 238.274 22.4314H243.608V24Z" fill="#595757"/>
        <path d="M317.333 10.9804H314.196H305.882V24H307.608V12.549H312.627V24H314.353V12.549H317.49C318.588 12.549 319.373 13.4902 319.373 14.4314V23.8432H321.098V14.4314C320.941 12.549 319.216 10.9804 317.333 10.9804Z" fill="#595757"/>
        <path d="M254.118 24C250.98 24 248.314 21.4902 248.314 18.1961V10.9804H250.039V18.353C250.039 20.549 251.921 22.4314 254.118 22.4314C256.314 22.4314 258.196 20.549 258.196 18.353V10.9804H259.921V18.353C259.921 21.4902 257.412 24 254.118 24Z" fill="#595757"/>
        <path d="M296 24C292.863 24 290.196 21.4902 290.196 18.1961V16.6275C290.196 13.4902 292.706 10.8235 296 10.8235C299.137 10.8235 301.804 13.3334 301.804 16.6275V18.1961C301.804 21.4902 299.137 24 296 24ZM296 12.549C293.804 12.549 291.922 14.4314 291.922 16.6275V18.1961C291.922 20.3922 293.804 22.2745 296 22.2745C298.196 22.2745 300.078 20.3922 300.078 18.1961V16.6275C300.078 14.4314 298.196 12.549 296 12.549Z" fill="#595757"/>
        <path d="M328 10.9804H326.274V24H328V10.9804Z" fill="#595757"/>
        <path d="M328 5.96082H326.274V8.31376H328V5.96082Z" fill="#595757"/>
        <path d="M271.843 24H265.098V22.2745H271.843C273.098 22.2745 274.039 21.3334 274.039 20.0784C274.039 18.8235 273.098 17.8824 271.843 17.8824H267.765C265.882 17.8824 264.314 16.3137 264.314 14.4314C264.314 12.549 265.882 10.9804 267.765 10.9804H274.98V12.549H267.765C266.823 12.549 265.882 13.3333 265.882 14.4314C265.882 15.3726 266.667 16.3137 267.765 16.3137H271.843C274.039 16.3137 275.765 18.0392 275.765 20.2353C275.765 22.2745 273.882 24 271.843 24Z" fill="#595757"/>
        <path d="M357.961 24H351.059C349.02 24 347.451 22.4314 347.451 20.3922V14.7451C347.451 12.549 349.176 10.8235 351.372 10.8235H354.98C357.176 10.8235 358.902 12.549 358.902 14.7451C358.902 16.9412 357.176 18.6667 354.98 18.6667H349.02V20.3922C349.02 21.4902 349.961 22.2745 350.902 22.2745H357.804V24H357.961ZM349.176 16.9412H355.137C356.392 16.9412 357.333 16 357.333 14.7451C357.333 13.4902 356.392 12.549 355.137 12.549H351.372C350.118 12.549 349.176 13.4902 349.176 14.7451V16.9412Z" fill="#595757"/>
        <path d="M286.431 12.549V10.9804H283.137V6.74512H281.412V10.9804H279.059V12.549H281.412V20.3922C281.412 22.4314 282.98 24 285.019 24H286.431V22.2745H285.019C283.921 22.2745 283.137 21.3333 283.137 20.3922V12.549H286.431Z" fill="#595757"/>
        <path d="M343.529 10.9804H333.02V12.549H341.02L332.863 22.5883V24H343.529V22.2745H335.216L343.529 12.2353V10.9804Z" fill="#595757"/>
        <path d="M147.765 35.1373C147.765 34.0392 147.608 32.6275 147.608 32.6275C147.608 32.4706 147.294 31.8432 147.294 31.6863C147.294 31.5294 147.451 31.3726 147.608 31.3726C147.765 31.3726 148.079 31.5294 148.235 31.6863C149.02 31.5294 149.333 31.5294 151.216 31.2157C151.529 31.2157 151.686 31.2157 152.157 30.902C152.471 30.7451 152.628 30.7451 152.784 30.7451C153.098 30.7451 153.412 31.0588 153.412 31.3726C153.412 31.5294 153.412 31.6863 153.255 31.8432C153.255 31.8432 152.784 32.9412 152.471 34.5098C152.784 34.6667 153.098 34.6667 153.098 34.9804C153.098 34.9804 153.098 35.2941 152.784 35.2941C152.784 35.2941 152.157 35.2941 152 35.2941C151.686 35.2941 149.333 35.2941 148.549 35.6079C148.549 35.7647 148.549 35.9216 148.549 36.0785C148.549 36.2353 148.392 36.549 148.235 36.549C147.922 36.549 147.765 36.2353 147.765 36.0785V35.1373ZM152.157 32.3137V32.1569C152.157 31.8432 152 31.8432 151.843 31.8432C151.059 31.8432 149.02 32.3137 148.392 32.3137C148.549 32.7843 148.549 34.1961 148.706 35.1373C150.118 34.9804 151.059 34.8235 151.843 34.6667C151.686 34.353 152.157 32.6275 152.157 32.3137Z" fill="#595757"/>
        <path d="M160.157 31.3725C160.314 31.3725 160.784 31.3725 161.726 31.0588C162.196 30.902 162.353 30.902 162.51 30.902C162.824 30.902 163.137 31.0588 163.137 31.3725C163.137 31.5294 163.137 31.6863 162.824 31.8431C162.667 32 161.726 33.5686 161.569 33.7255C160.941 34.6667 159.529 36.549 156.549 37.3333C156.549 37.3333 155.765 37.6471 155.451 37.6471C155.294 37.6471 154.98 37.6471 154.98 37.4902C154.98 37.4902 154.98 37.3333 155.608 37.3333C156.392 37.1765 157.49 36.549 158.275 35.9216C160.471 34.1961 161.726 32 161.726 31.6863C161.726 31.5294 161.569 31.5294 161.569 31.5294C161.412 31.5294 160.314 31.8431 160.157 31.8431C160 31.8431 159.843 31.8431 159.686 31.6863C158.588 33.098 157.177 34.0392 156.549 34.0392C156.549 34.0392 156.235 34.0392 156.235 33.8823L156.706 33.5686C158.431 32.4706 159.373 30.7451 159.529 30.4314C159.686 30.1176 159.686 29.9608 160 29.9608C160.314 29.9608 160.628 30.1176 160.628 30.4314C160.628 30.5882 160.471 30.7451 160.157 31.3725C160 31.3725 160 31.2157 160.157 31.3725ZM163.608 30.4314C163.451 30.4314 163.294 30.4314 162.98 29.9608C162.98 29.9608 162.51 29.3333 162.196 29.1765C162.196 29.1765 162.039 29.1765 162.039 29.0196H162.196C162.824 29.0196 163.765 29.4902 163.765 30.1176C163.922 30.2745 163.765 30.4314 163.608 30.4314ZM164.706 29.8039C164.549 29.8039 164.549 29.8039 164.078 29.3333C163.765 28.8627 163.608 28.7059 163.294 28.549L163.137 28.3922H163.294C163.922 28.3922 164.863 28.8627 164.863 29.4902C165.02 29.6471 165.02 29.8039 164.706 29.8039Z" fill="#595757"/>
        <path d="M170.98 34.9804C171.451 35.2941 171.922 35.9216 171.922 36.3922C171.922 36.549 171.922 37.0196 171.451 37.0196C171.137 37.0196 170.98 36.7059 170.824 36.3922C170.51 35.9216 170.196 35.451 169.569 34.8235C169.412 34.6667 168.784 34.1961 168.784 34.1961C168.784 34.1961 168.784 34.0392 168.941 34.0392C169.255 34.0392 169.882 34.1961 170.667 34.6667C171.451 34.0392 172.706 32.4706 172.706 32C172.706 31.8432 172.549 31.8432 172.392 31.8432C171.765 31.8432 168 32.1569 167.216 32.4706C167.059 32.4706 166.431 32.7843 166.431 32.7843C166.275 32.7843 166.118 32.6275 166.118 32.3137C166.118 31.6863 166.745 31.6863 166.902 31.6863C167.686 31.6863 168.471 31.6863 170.039 31.5294C170.98 31.5294 172.549 31.3726 172.706 31.2157C173.02 31.2157 173.333 31.0588 173.49 31.0588C173.961 31.0588 174.275 31.3726 174.275 31.6863C174.275 32 174.118 32.1569 173.961 32.3137C173.804 32.4706 173.02 33.2549 172.863 33.4118C172.235 34.0392 171.765 34.353 170.98 34.9804Z" fill="#595757"/>
        <path d="M178.039 32.4706C177.882 32.4706 177.725 32.4706 177.412 32C177.098 31.6863 176.471 31.2157 176 31.0588C176 31.0588 175.843 31.0588 175.843 30.902C175.843 30.7451 176.157 30.7451 176.314 30.7451C176.941 30.7451 178.353 30.902 178.353 31.8432C178.51 32.4706 178.196 32.4706 178.039 32.4706ZM176.157 36.2353C176.157 35.9216 176.314 35.9216 176.314 35.9216C176.784 35.9216 177.412 35.9216 179.608 34.353C180.392 33.7255 182.118 32.3137 182.902 31.2157C183.059 31.0588 183.059 30.902 183.216 30.902C183.373 30.902 183.373 30.902 183.373 31.0588C183.373 31.3726 182.275 33.2549 180.549 34.5098C179.922 35.1373 178.039 36.7059 176.784 36.7059C176.471 36.8628 176.157 36.549 176.157 36.2353Z" fill="#595757"/>
        <path d="M186.824 33.5686C186.667 33.5686 186.51 33.4117 186.353 33.2549C186.039 32.9411 185.412 32.6274 184.941 32.4706C184.784 32.4706 184.784 32.4706 184.784 32.3137C184.784 32.1568 184.941 32.1568 184.941 32.1568C186.667 32.1568 187.294 32.6274 187.294 33.098C187.294 33.4117 186.98 33.5686 186.824 33.5686ZM189.647 34.6666C189.02 35.2941 186.981 37.0196 185.726 37.0196C185.412 37.0196 185.098 36.7058 185.098 36.3921C185.098 36.2353 185.098 36.0784 185.412 36.0784C186.039 36.0784 186.51 36.0784 188.392 34.6666C189.49 33.8823 191.373 32.3137 192 31.3725C192.157 31.0588 192.314 31.0588 192.314 31.0588C192.471 31.0588 192.471 31.2157 192.471 31.2157C192.314 31.6862 191.216 33.4117 189.647 34.6666ZM187.294 31.5294C187.137 31.5294 187.137 31.5294 186.667 31.2157C186.51 31.0588 185.882 30.5882 185.255 30.4313C185.098 30.4313 185.098 30.2745 185.098 30.2745C185.098 30.1176 185.255 30.1176 185.412 30.1176C185.726 30.1176 187.765 30.2745 187.765 31.0588C187.922 31.5294 187.608 31.5294 187.294 31.5294Z" fill="#595757"/>
        <path d="M198.118 33.5686C198.118 33.2549 198.118 33.2549 197.647 33.2549C196.706 33.2549 195.294 33.4118 194.823 33.5686C194.667 33.5686 194.196 33.7255 194.196 33.7255C194.039 33.7255 193.882 33.5686 193.882 33.4118C193.882 32.9412 194.196 32.9412 194.51 32.9412C195.294 32.9412 197.02 32.9412 197.804 32.7843C197.961 32.7843 198.431 32.6274 198.588 32.6274C198.902 32.6274 199.059 32.7843 199.059 33.098L198.902 33.8823C198.745 34.3529 198.588 36.0784 198.431 36.3921C198.745 36.3921 199.059 36.549 199.059 36.8627C199.059 37.0196 198.745 37.1765 198.745 37.1765H198.431C198.274 37.1765 198.118 37.1765 197.961 37.1765C197.333 37.1765 195.294 37.3333 194.823 37.4902C194.667 37.4902 194.353 37.647 194.196 37.647C194.039 37.647 194.039 37.4902 194.039 37.3333C194.039 36.8627 194.196 36.8627 194.667 36.8627C194.824 36.8627 196.235 36.7059 197.804 36.549L197.961 35.1372C196.863 35.1372 195.137 35.2941 194.51 35.451C194.196 35.6078 194.196 35.6078 194.039 35.6078C193.882 35.6078 193.882 35.451 193.882 35.2941C193.882 34.8235 194.039 34.8235 194.823 34.8235C195.451 34.8235 197.333 34.8235 197.961 34.6667C198.118 34.3529 198.118 33.7255 198.118 33.5686Z" fill="#595757"/>
        <path d="M202.98 32.4706C202.824 32.4706 202.667 32.4706 202.353 32C202.039 31.6863 201.412 31.2157 200.941 31.0588C200.941 31.0588 200.784 31.0588 200.784 30.902C200.784 30.7451 201.098 30.7451 201.255 30.7451C201.882 30.7451 203.294 30.902 203.294 31.8432C203.451 32.4706 203.137 32.4706 202.98 32.4706ZM201.098 36.2353C201.098 35.9216 201.255 35.9216 201.255 35.9216C201.725 35.9216 202.353 35.9216 204.549 34.353C205.333 33.7255 207.059 32.3137 207.843 31.2157C208 31.0588 208 30.902 208.157 30.902C208.314 30.902 208.314 30.902 208.314 31.0588C208.314 31.3726 207.216 33.2549 205.49 34.5098C204.863 35.1373 202.98 36.7059 201.725 36.7059C201.412 36.8628 201.098 36.549 201.098 36.2353Z" fill="#595757"/>
        <path d="M216.314 31.2157C216.627 31.2157 216.784 31.5294 216.784 31.6863C216.784 31.6863 216.784 31.8431 216.784 32C216.784 32 216.784 32.3137 216.784 32.4706C216.471 35.2941 216.314 37.0196 215.059 37.0196C214.431 37.0196 213.647 35.9216 213.647 35.7647L213.804 35.9216C213.961 36.0784 214.275 36.0784 214.588 36.0784C214.902 36.0784 215.059 36.0784 215.373 35.6078C215.529 35.1372 215.843 33.4117 215.843 32.3137C215.843 32 215.686 32 215.529 32C215.373 32 214.902 32 214.118 32.1568C213.804 33.4117 213.49 35.451 211.137 37.0196C210.353 37.647 209.412 37.8039 209.412 37.8039C209.255 37.8039 209.098 37.647 209.098 37.647C209.098 37.647 209.726 37.3333 209.882 37.1765C211.922 35.9216 213.02 34.3529 213.333 32.3137C212.706 32.4706 211.608 32.4706 211.451 32.6274C210.824 32.9412 210.824 32.9412 210.667 32.9412C210.51 32.9412 210.353 32.7843 210.353 32.6274C210.353 32 210.667 32 211.608 32C212.079 32 212.706 32 213.49 31.8431C213.647 31.0588 213.647 30.9019 213.647 29.647C213.647 29.3333 213.647 29.1765 213.961 29.1765C214.275 29.1765 214.745 29.4902 214.745 29.8039C214.745 29.9608 214.588 30.1176 214.588 30.1176C214.431 31.0588 214.431 31.3725 214.431 31.6863C214.431 31.6863 215.686 31.5294 216 31.5294C215.843 31.3725 216.157 31.2157 216.314 31.2157Z" fill="#595757"/>
        <path d="M226.353 36.0784C226.353 36.2353 226.353 36.8627 225.882 36.8627C225.569 36.8627 225.412 36.7058 225.098 36.0784C224.628 35.2941 224 34.5098 223.216 34.0392C222.588 34.8235 221.804 35.6078 220.235 36.3921C219.137 37.0196 218.353 37.1764 218.196 37.1764C218.196 37.1764 218.039 37.1764 218.039 37.0196C218.039 36.8627 218.039 36.8627 218.353 36.8627C219.451 36.3921 220.079 36.0784 221.177 35.1372C222.902 33.7255 223.373 32.1568 223.686 31.6862C223.686 31.5294 223.843 31.3725 223.843 31.2157C223.843 31.0588 223.529 31.0588 223.529 31.0588C223.059 31.0588 221.333 31.3725 221.02 31.3725C220.392 31.5294 220.392 31.6862 220.235 31.6862C220.079 31.6862 219.922 31.5294 219.922 31.3725C219.922 30.9019 220.235 30.7451 220.706 30.7451H221.647C221.804 30.7451 223.529 30.7451 223.686 30.5882C223.686 30.5882 224 30.4313 224 30.2745C224.157 30.2745 224.314 30.1176 224.471 30.1176C224.784 30.1176 225.098 30.4313 225.098 30.5882C225.098 30.7451 225.098 30.7451 224.784 31.3725L224.628 31.8431C224.157 32.9411 223.843 33.4117 223.686 33.5686C224.941 34.0392 226.353 35.1372 226.353 36.0784Z" fill="#595757"/>
        <path d="M232.784 34.9804C230.902 36.8627 228.079 37.4902 227.922 37.4902C227.765 37.4902 227.451 37.4902 227.451 37.3333C227.451 37.3333 227.765 37.1765 227.922 37.1765C230.118 36.549 231.529 35.1372 232.157 34.3529C231.529 33.8823 231.373 33.7255 231.059 33.5686C231.059 33.5686 230.902 33.5686 230.902 33.4117C230.902 33.4117 230.902 33.2549 231.059 33.2549C231.216 33.2549 232 33.4117 232.628 33.7255C233.882 32.1568 234.039 31.3725 234.039 31.3725C234.039 31.2157 233.882 31.2157 233.882 31.2157C233.569 31.2157 232.627 31.5294 232.471 31.5294C232.314 31.5294 232.157 31.5294 232 31.3725C231.059 32.6274 229.49 33.7255 228.706 33.7255C228.706 33.7255 228.392 33.7255 228.392 33.5686C228.392 33.5686 228.863 33.2549 229.02 33.098C230.588 32 231.529 30.4314 231.686 29.9608C231.843 29.647 231.843 29.4902 232.157 29.4902C232.471 29.4902 232.784 29.647 232.784 29.9608C232.784 30.1176 232.628 30.4314 232.628 30.4314L232.314 30.7451C232.314 30.7451 232.471 30.9019 232.628 30.9019C232.941 30.9019 233.412 30.7451 234.196 30.5882C234.667 30.4314 234.824 30.4314 234.98 30.4314C235.294 30.4314 235.608 30.5882 235.608 30.9019C235.608 31.0588 235.608 31.2157 235.294 31.5294C235.137 31.6863 234.824 32.3137 234.667 32.4706C234.196 33.2549 233.726 33.7255 233.569 34.0392C233.882 34.3529 234.667 34.8235 234.667 35.2941C234.667 35.451 234.667 35.6078 234.353 35.6078C234.039 35.6078 234.039 35.6078 233.726 35.1372C233.255 35.1372 233.098 34.9804 232.784 34.9804Z" fill="#595757"/>
        <path d="M241.882 34.9804C242.353 35.2941 242.824 35.9216 242.824 36.3922C242.824 36.549 242.824 37.0196 242.353 37.0196C242.039 37.0196 241.882 36.7059 241.726 36.3922C241.412 35.9216 241.098 35.451 240.314 34.8235C240.157 34.6667 239.529 34.1961 239.529 34.1961C239.529 34.1961 239.529 34.0392 239.686 34.0392C240 34.0392 240.627 34.1961 241.412 34.6667C242.196 34.0392 243.451 32.4706 243.451 32C243.451 31.8432 243.294 31.8432 243.137 31.8432C242.51 31.8432 238.745 32.1569 237.961 32.4706C237.804 32.4706 237.177 32.7843 237.177 32.7843C237.02 32.7843 236.863 32.6275 236.863 32.3137C236.863 31.6863 237.49 31.6863 237.647 31.6863C238.431 31.6863 239.216 31.6863 240.784 31.5294C241.726 31.5294 243.294 31.3726 243.451 31.2157C243.765 31.2157 244.078 31.0588 244.235 31.0588C244.706 31.0588 245.02 31.3726 245.02 31.6863C245.02 32 244.863 32.1569 244.706 32.3137C244.549 32.4706 243.765 33.2549 243.608 33.4118C243.294 34.0392 242.667 34.353 241.882 34.9804Z" fill="#595757"/>
        <path d="M251.608 34.0392C251.608 34.5098 251.608 36.549 251.608 37.0196C251.608 37.1764 251.608 37.8039 251.137 37.8039C250.824 37.8039 250.51 37.1764 250.51 36.8627C250.51 36.7059 250.667 36.2353 250.667 36.0784C250.824 35.451 250.824 33.098 250.824 32.6274C250.824 32.1568 250.824 32.1568 250.667 32C250.196 32.4706 249.098 33.4117 247.059 33.8823C246.745 34.0392 246.431 34.0392 246.431 34.0392C246.275 34.0392 246.275 34.0392 246.275 34.0392C246.275 34.0392 247.373 33.5686 247.529 33.4117C249.726 32.3137 251.137 30.4314 251.137 29.9608C251.294 29.647 251.294 29.3333 251.765 29.3333C252.078 29.3333 252.392 29.4902 252.392 29.8039C252.392 30.2745 251.765 30.9019 250.824 31.8431C251.137 31.8431 251.451 32 251.451 32.3137C251.451 32.3137 251.294 32.6274 251.294 32.7843V34.0392H251.608Z" fill="#595757"/>
        <path d="M262.588 36.2353C262.588 36.2353 262.588 37.0196 262.118 37.0196C261.804 37.0196 261.647 36.8627 261.333 36.2353C260.863 35.451 260.235 34.6667 259.451 34.1961C258.824 34.9804 257.882 36.0784 255.686 37.0196C255.373 37.1765 254.588 37.4902 254.431 37.4902C254.275 37.4902 254.275 37.4902 254.275 37.3333C254.275 37.1765 254.431 37.1765 254.431 37.1765C256.627 36.2353 258.51 34.8235 259.608 32.6274C259.765 32.3137 260.078 31.6863 260.078 31.5294C260.078 31.3725 259.765 31.3725 259.765 31.3725C259.137 31.3725 257.412 31.6863 257.255 31.6863C256.627 32 256.627 32 256.471 32C256.157 32 256.157 31.8431 256.157 31.6863C256.157 31.2157 256.627 31.0588 256.941 31.0588C257.098 31.0588 257.569 31.0588 257.726 31.0588C258.51 31.0588 259.765 31.0588 259.922 30.902C260.235 30.7451 260.392 30.5882 260.549 30.5882C260.863 30.5882 261.176 30.902 261.176 31.0588C261.176 31.2157 261.176 31.2157 260.863 31.6863C260.863 31.8431 260.549 32.3137 260.549 32.4706C260.235 33.2549 259.922 33.7255 259.608 34.0392C261.02 34.3529 262.588 35.451 262.588 36.2353ZM262.431 30.7451C262.275 30.7451 262.275 30.7451 261.804 30.2745C261.49 29.9608 261.333 29.8039 261.02 29.4902C261.02 29.4902 261.02 29.4902 261.02 29.3333C261.02 29.3333 261.02 29.3333 261.176 29.3333C261.804 29.3333 262.745 29.8039 262.745 30.4314C262.745 30.5882 262.745 30.7451 262.431 30.7451ZM263.686 29.9608C263.529 29.9608 263.373 29.9608 263.059 29.3333C263.059 29.1765 262.745 28.8627 262.431 28.7059C262.431 28.7059 262.275 28.7059 262.275 28.549C262.275 28.549 262.275 28.549 262.431 28.549C263.059 28.549 264 29.0196 264 29.647C263.843 29.8039 263.843 29.9608 263.686 29.9608Z" fill="#595757"/>
        <path d="M10.196 32.1569L10.8235 23.0589L10.9804 14.4314L11.4509 14.902L18.6666 10.353L25.7255 5.96081L33.2549 10.0392L35.7647 11.6079C32.7843 5.96081 26.8235 2.19611 20.0784 2.19611C10.196 2.19611 2.19604 10.1961 2.19604 20.0785C2.19604 29.9608 10.196 37.9608 20.0784 37.9608C20.8627 37.9608 21.4902 37.9608 22.2745 37.804L18.6666 35.6079L10.196 32.1569Z" fill="black"/>
        <path d="M25.8823 7.21564L18.8235 10.8235L12.549 15.3725L12.3921 23.2156L10.9803 31.6862L18.0392 34.9803L23.6862 37.4901C24.1568 37.3333 24.7843 37.1764 25.2549 37.0196L25.4117 35.1372V32.9411V30.745L25.098 28.549V26.3529L25.2549 24.1568L26.0392 24.4705L25.8823 26.6666L25.7254 28.8627L26.0392 31.0588L25.8823 33.2549V35.4509L26.0392 37.0196C32.7843 34.5098 37.647 27.9215 37.647 20.2352C37.647 19.1372 37.4902 18.0392 37.3333 17.098L35.4509 18.0392L33.7254 19.1372L31.8431 20.2352L29.9607 21.1764L28.2352 22.2745L26.6666 23.2156L26.5098 22.5882L28.549 21.3333L30.5882 19.9215L32.6274 18.8235L34.8235 17.7254L36.8627 16.4705L37.4902 16.1568C37.1764 14.9019 36.7058 13.647 36.2353 12.549L33.098 10.9803L25.8823 7.21564ZM24.9411 23.0588L22.9019 21.9607L20.8627 20.8627L19.1372 19.2941L16.9411 18.5098L15.0588 17.2549L13.1764 16.1568L13.4902 15.6862L15.5294 16.6274L17.5686 17.7254L19.6078 18.8235L21.4902 20.0784L23.3725 21.1764L25.2549 22.4313L24.9411 23.0588Z" fill="black"/>
        <path d="M20.0784 40C8.94118 40 0 31.0588 0 20.0784C0 8.94118 8.94118 0 20.0784 0C31.0588 0 40.1569 8.94118 40.1569 20.0784C40 31.0588 31.0588 40 20.0784 40ZM20.0784 0.784314C9.41177 0.784314 0.784314 9.41177 0.784314 20.0784C0.784314 30.7451 9.41177 39.3726 20.0784 39.3726C30.7451 39.3726 39.3726 30.7451 39.3726 20.0784C39.3726 9.41177 30.5882 0.784314 20.0784 0.784314Z" fill="black"/>
    </g>
    <defs>
        <clipPath id="clip0">
            <rect width="358.902" height="40" fill="white"/>
        </clipPath>
    </defs>
</svg>
