<?xml version="1.0" encoding="UTF-8"?><svg id="Layer_2" xmlns="http://www.w3.org/2000/svg" xmlns:xlink="http://www.w3.org/1999/xlink" viewBox="0 0 835 149.8"><defs><style>.cls-1{fill:none;stroke:#fff;stroke-linecap:square;}.cls-2{fill:url(#linear-gradient);}.cls-2,.cls-3,.cls-4,.cls-5,.cls-6,.cls-7,.cls-8,.cls-9,.cls-10,.cls-11,.cls-12,.cls-13,.cls-14,.cls-15,.cls-16,.cls-17,.cls-18,.cls-19,.cls-20,.cls-21,.cls-22,.cls-23,.cls-24,.cls-25,.cls-26{stroke-width:0px;}.cls-3{fill:url(#linear-gradient-25);}.cls-4{fill:url(#linear-gradient-11);}.cls-5{fill:url(#linear-gradient-12);}.cls-6{fill:url(#linear-gradient-13);}.cls-7{fill:url(#linear-gradient-10);}.cls-8{fill:url(#linear-gradient-17);}.cls-9{fill:url(#linear-gradient-16);}.cls-10{fill:url(#linear-gradient-19);}.cls-11{fill:url(#linear-gradient-15);}.cls-12{fill:url(#linear-gradient-23);}.cls-13{fill:url(#linear-gradient-21);}.cls-14{fill:url(#linear-gradient-18);}.cls-15{fill:url(#linear-gradient-14);}.cls-16{fill:url(#linear-gradient-22);}.cls-17{fill:url(#linear-gradient-20);}.cls-18{fill:url(#linear-gradient-24);}.cls-19{fill:url(#linear-gradient-4);}.cls-20{fill:url(#linear-gradient-2);}.cls-21{fill:url(#linear-gradient-3);}.cls-22{fill:url(#linear-gradient-8);}.cls-23{fill:url(#linear-gradient-9);}.cls-24{fill:url(#linear-gradient-7);}.cls-25{fill:url(#linear-gradient-5);}.cls-26{fill:url(#linear-gradient-6);}</style><linearGradient id="linear-gradient" x1="155.68" y1="-22.68" x2="154.23" y2="-19.62" gradientTransform="translate(-3623.9 1077.4) scale(26.04 44)" gradientUnits="userSpaceOnUse"><stop offset="0" stop-color="#bb6d00"/><stop offset=".12" stop-color="#ff0"/><stop offset=".22" stop-color="#d4a300"/><stop offset=".49" stop-color="#fffb8b"/><stop offset=".65" stop-color="#ff9c16"/><stop offset=".76" stop-color="#b76414"/><stop offset=".86" stop-color="#ffb600"/><stop offset="1" stop-color="#a13100"/></linearGradient><linearGradient id="linear-gradient-2" x1="156.05" y1="-22.76" x2="154.89" y2="-20.32" gradientTransform="translate(-3583.9 1077.4) scale(26.04 44)" xlink:href="#linear-gradient"/><linearGradient id="linear-gradient-3" x1="80.16" y1="-22.82" x2="76.88" y2="-20.41" gradientTransform="translate(-3242 925.6) scale(43)" gradientUnits="userSpaceOnUse"><stop offset="0" stop-color="#f4f0c9"/><stop offset=".15" stop-color="#f4f0c9"/><stop offset=".54" stop-color="#faf2b1"/><stop offset="1" stop-color="#867923"/></linearGradient><linearGradient id="linear-gradient-4" x1="80.08" y1="-22.16" x2="76.81" y2="-19.75" gradientTransform="translate(-3117.67 879.06) scale(42.07)" xlink:href="#linear-gradient-3"/><linearGradient id="linear-gradient-5" x1="79.97" y1="-22.79" x2="76.83" y2="-20.37" gradientTransform="translate(-3068.13 925.6) scale(42.07 43)" xlink:href="#linear-gradient-3"/><linearGradient id="linear-gradient-6" x1="80.2" y1="-22.08" x2="76.92" y2="-19.77" gradientTransform="translate(-3096.17 879.06) scale(43 42.07)" xlink:href="#linear-gradient-3"/><linearGradient id="linear-gradient-7" x1="80.22" y1="-22.73" x2="76.95" y2="-20.32" gradientTransform="translate(-3047.57 925.6) scale(43)" xlink:href="#linear-gradient-3"/><linearGradient id="linear-gradient-8" x1="79.42" y1="-22.13" x2="76.57" y2="-19.72" gradientTransform="translate(-2693.28 879.06) scale(39.26 42.07)" xlink:href="#linear-gradient-3"/><linearGradient id="linear-gradient-9" x1="80.19" y1="-22.78" x2="76.91" y2="-20.37" gradientTransform="translate(-2949.41 925.6) scale(43)" xlink:href="#linear-gradient-3"/><linearGradient id="linear-gradient-10" x1="60.06" y1="-16.15" x2="59.91" y2="-13.74" gradientTransform="translate(-17 549.47) scale(7.48 35.52)" xlink:href="#linear-gradient-3"/><linearGradient id="linear-gradient-11" x1="80.36" y1="84.28" x2="77.08" y2="84.4" gradientTransform="translate(-2699.83 -767.09) scale(41.13 9.35)" xlink:href="#linear-gradient-3"/><linearGradient id="linear-gradient-12" x1="79.86" y1="-22.16" x2="76.73" y2="-19.75" gradientTransform="translate(-2650.28 879.06) scale(41.13 42.07)" xlink:href="#linear-gradient-3"/><linearGradient id="linear-gradient-13" x1="80.23" y1="-22.04" x2="76.95" y2="-19.73" gradientTransform="translate(-2754.98 879.06) scale(43 42.07)" xlink:href="#linear-gradient-3"/><linearGradient id="linear-gradient-14" x1="74.4" y1="-15.31" x2="73.25" y2="-12.9" gradientTransform="translate(-877 502.85) scale(20.57 34.59)" xlink:href="#linear-gradient-3"/><linearGradient id="linear-gradient-15" x1="79.93" y1="-22.83" x2="76.8" y2="-20.41" gradientTransform="translate(-2580.17 925.6) scale(42.07 43)" xlink:href="#linear-gradient-3"/><linearGradient id="linear-gradient-16" x1="80.36" y1="84.28" x2="77.08" y2="84.4" gradientTransform="translate(-2455.85 -767.09) scale(41.13 9.35)" xlink:href="#linear-gradient-3"/><linearGradient id="linear-gradient-17" x1="158.07" y1="-16.94" x2="155.62" y2="-14.53" gradientTransform="translate(-4679.24 677.29) scale(31.17 35.97)" xlink:href="#linear-gradient-3"/><linearGradient id="linear-gradient-18" x1="158.24" y1="-10.97" x2="155.23" y2="-8.56" gradientTransform="translate(-4356.13 411.61) scale(29.44 30.67)" xlink:href="#linear-gradient-3"/><linearGradient id="linear-gradient-19" x1="159.62" y1="-17.84" x2="156.34" y2="-15.47" gradientTransform="translate(-5558.19 720.3) scale(37.15 36.84)" xlink:href="#linear-gradient-3"/><linearGradient id="linear-gradient-20" x1="159.58" y1="-17.94" x2="156.31" y2="-15.54" gradientTransform="translate(-5484.65 724.3) scale(36.96 36.92)" xlink:href="#linear-gradient-3"/><linearGradient id="linear-gradient-21" x1="159.29" y1="-4.86" x2="156.02" y2="-3.34" gradientTransform="translate(-4952.71 222.76) scale(33.92 26.92)" xlink:href="#linear-gradient-3"/><linearGradient id="linear-gradient-22" x1="159.51" y1="-16.87" x2="156.24" y2="-14.58" gradientTransform="translate(-5249.65 667.47) scale(36.68 35.77)" xlink:href="#linear-gradient-3"/><linearGradient id="linear-gradient-23" x1="158.57" y1="-16.82" x2="155.79" y2="-14.41" gradientTransform="translate(-4602.66 665.34) scale(32.94 35.73)" xlink:href="#linear-gradient-3"/><linearGradient id="linear-gradient-24" x1="158.6" y1="-17.88" x2="155.94" y2="-15.47" gradientTransform="translate(-4620.18 726.15) scale(33.31 36.95)" xlink:href="#linear-gradient-3"/><linearGradient id="linear-gradient-25" x1="159.74" y1="97.68" x2="156.46" y2="97.82" gradientTransform="translate(-4932.06 -704.99) scale(35.5 8.5)" xlink:href="#linear-gradient-3"/></defs><g id="Layer_1-2"><line id="Line" class="cls-1" x1=".5" y1="74.7" x2="834.5" y2="74.7"/><path id="Path" class="cls-2" d="m420.9,146.2c-.1-4.6-.2-9.1-.2-13.7v-23.3l.3-11.8-1-.8-18.5,4.4v2.7l9.6-1v29.8c0,4.6-.1,9.1-.2,13.7l-10.9,1.3v2.3h31.5v-2.3l-10.6-1.3Z"/><path id="Path-2" class="cls-20" d="m469.4,146.2c-.1-4.6-.2-9.1-.2-13.7v-23.3l.3-11.8-1-.8-18.5,4.4v2.7l9.6-1v29.8c0,4.6-.1,9.1-.2,13.7l-10.9,1.3v2.3h31.5v-2.3l-10.6-1.3Z"/><g id="_特別商談会開催_限定_邸_"><path id="Shape" class="cls-21" d="m97.9,8.5h7.6v7.1h-10.4l.4,1.3h26.2c.6,0,1.1-.2,1.3-.7-1.8-1.9-4.9-4.6-4.9-4.6l-2.7,4h-4.6v-7.1h9.2c.6,0,1.1-.2,1.3-.7-1.7-1.8-4.6-4.4-4.6-4.4l-2.6,3.8h-3.2V2.2c1.2-.2,1.6-.6,1.7-1.3l-6.8-.6v6.9h-8l.1,1.3Zm-12.6,3.1c.6-1.8,1.1-3.7,1.5-5.6.3,0,.6,0,.8-.1v5.8h-2.3v-.1Zm13.9,7.7c-2.2.6-4.5,1.1-6.7,1.7v-8.1h5.9c.6,0,1.1-.2,1.2-.7-1.6-1.8-4.4-4.5-4.4-4.5l-2.5,3.9h-.2V2.2c1.2-.2,1.5-.6,1.6-1.3l-6.5-.7v4.5l-5.2-1.1c-.1,5.6-.9,11.8-2.1,16.3l.7.3c1.6-2,2.9-4.4,3.9-7.2h2.7v9.2c-3.3.8-6.1,1.4-7.6,1.6l2.5,6.2c.5-.2.9-.6,1.2-1.2,1.4-.7,2.7-1.4,4-2.1v16.5h.9c1.8,0,3.9-1.2,3.9-1.8v-17.5c2.8-1.6,5.1-3,6.8-4.1l-.1-.5Zm-1.5,6.4c1.6,2.1,3.4,5.2,3.9,7.9,4.7,3.5,9.1-5.7-3.5-8.2l-.4.3Zm18.8-2.6h-.5v-4c1.1-.1,1.5-.5,1.6-1.2l-6.7-.6v5.8h-15.5l.4,1.3h15.1v12.3c0,.6-.3.9-1,.9-1.1,0-7.1-.4-7.1-.4v.6c2.7.4,3.9,1,4.8,1.8.9.8,1.1,2,1.3,3.6,6.3-.5,7.1-2.6,7.1-6.2v-12.6h5.8c.6,0,1.1-.2,1.2-.7-1.5-1.7-4.2-4.2-4.2-4.2l-2.3,3.6Z"/><path id="Shape-2" class="cls-19" d="m146.1,5v10h-9.4V5s9.4,0,9.4,0Zm.2,18.2h-6.5c.1-1.2.3-2.3.4-3.4,1-.1,1.4-.6,1.5-1.2l-5.9-.5c.5-.3.8-.6.8-.8v-1h9.4v1.9h.8c1.6,0,4.2-.9,4.2-1.2V5.8c.9-.1,1.5-.6,1.8-.9l-4.9-3.8-2.4,2.6h-8.4l-5.4-2.1v17.2h.9c1,0,1.8-.2,2.4-.5-.2,8.5-.9,18.2-6.6,24.3l.5.6c7.4-4.4,9.6-11.7,10.6-18.7h7.1c-.4,7.7-1,11.8-2,12.6-.4.3-.7.4-1.4.4-.9,0-3.1-.1-4.4-.3v.6c1.6.4,2.7.9,3.3,1.6s.7,1.9.7,3.4c2.2,0,3.9-.5,5.3-1.6,2.2-1.7,3.1-6,3.5-16,.9-.1,1.5-.4,1.8-.8l-4.6-3.8-2.5,2.6Zm13.4-16.9c1.2-.2,1.5-.7,1.7-1.3l-6.6-.6v28.2h.9c1.9,0,4-1,4-1.4V6.3h0Zm4-5v34.9c0,.6-.2.8-1,.8-1,0-6.1-.3-6.1-.3v.6c2.4.4,3.5,1,4.3,1.8.7.8.9,2,1.1,3.8,6.2-.6,7-2.7,7-6.4V3.3c1.1-.2,1.6-.6,1.7-1.3l-7-.7Z"/><path id="Shape-3" class="cls-25" d="m195.7,33.7v-7h6.1v7h-6.1Zm10.8-6.4c.7-.1,1.2-.5,1.4-.7l-2.3-1.7c4.5,2.5,7.4-6.2-5-7.9l-.4.3c2,1.9,4.5,4.9,5.4,7.5l-2.1-1.6-2.2,2.3h-5.5l-3.6-1.5c1.7-1.2,3.3-2.7,4.8-4.2.9.2,1.6-.1,1.8-.6l-5.7-3c-1.8,3.9-4.1,7.8-5.9,10.2l.5.5c1-.5,2.1-1.2,3.1-2v13.2h.7c1.9,0,4-1,4-1.5v-1.6h6.1v2.2h.8c1.5,0,3.9-.9,3.9-1.1v-8.8h.2Zm3.8-12.9h-6.3c1.9-1.4,3.7-3.1,5.1-4.4,1,0,1.5-.4,1.7-1l-7-1.6c-.4,2-1,4.9-1.7,7h-7.8c2.3-1.1,2.6-5.6-5.4-6.8l-.4.3c1.1,1.5,2.3,3.8,2.6,6,.3.2.6.4.9.5h-4.7l-5.6-2.3v30.9h.9c2.2,0,4.3-1.2,4.3-1.8V15.7h24v21c0,.6-.2.9-.9.9-1,0-5-.3-5-.3v.6c2.1.3,3,1,3.7,1.7.6.8.8,2,.9,3.6,5.8-.5,6.6-2.5,6.6-6v-20.6c.9-.2,1.6-.6,1.8-1l-5.1-4-2.6,2.8Zm1.1-8.3h-10.4c2.2-1.3,2.3-5.4-5.5-5.9l-.4.3c1,1.2,2.2,3.3,2.4,5.2.2.2.4.3.6.4h-20l.4,1.3h40.5c.7,0,1.1-.2,1.3-.7-2.1-1.8-5.7-4.5-5.7-4.5l-3.2,3.9Z"/><path id="Shape-4" class="cls-26" d="m243.4,23.2c7.5-2.4,10.9-5.6,12.4-9.7,2.8,2.3,6.1,5.5,7.6,8.2,4.6,2.1,6.7-5.5-4.5-8.6,2.8-1.4,5.6-3.2,7.1-4.4.9.3,1.6,0,1.8-.4l-5.6-3.7c-.9,1.9-2.9,5.5-4.6,8.2-.5-.1-.9-.2-1.4-.3.8-2.8.9-6,1.1-9.5.9-.1,1.4-.6,1.5-1.2l-6.6-.6c0,9.5.4,16.3-9.2,21.4l.4.6Zm4,0c.2,2.5-1.3,5.1-2.6,6.1-1.3.8-2.1,2.1-1.5,3.5.7,1.6,2.9,1.7,4.2.6,1.7-1.4,2.7-5.2.6-10.2h-.7Zm-10.2-7.8h-9.4l.4,1.3h14c.6,0,1.1-.2,1.2-.7-1.5-1.4-3.9-3.4-3.9-3.4l-2.3,2.8Zm10.9-10.6c.3,2-1,4.4-2.2,5.3-1.3.8-2.1,2-1.6,3.5.7,1.5,2.9,1.7,4,.7,1.6-1.4,2.3-4.9.5-9.5,0,0-.7,0-.7,0Zm-17.8-3c1.4,1.5,2.8,3.9,3.2,6.2,4.8,3.2,9.1-5.9-2.8-6.4l-.4.2Zm7.9,7.8h-12.4l.4,1.3h17.7c.6,0,1.1-.2,1.2-.7-1.6-1.6-4.4-3.7-4.4-3.7l-2.5,3.1Zm-1.5,11.6h-9l.3,1.3h13.7c.6,0,1-.2,1.2-.7-1.5-1.4-4-3.4-4-3.4l-2.2,2.8Zm-3.8,16v-8.8h4.4v8.8h-4.4Zm9.1-8.1c.9-.2,1.4-.5,1.7-.9l-4.6-3.5-2.2,2.3h-3.8l-4.8-1.9v17.5h.7c1.9,0,3.9-1,3.9-1.5v-2.7h4.4v2.4h.8c1.6,0,3.8-1,3.9-1.4v-10.3Zm20.3-6.2c-.7,1.6-2.3,4.5-3.8,6.8-.8-1.6-1.3-3.2-1.7-5.1.1-1.2.1-2.6.2-3.9,1-.1,1.4-.6,1.5-1.2l-6.7-.5c-.1,10.2.2,17.8-12.2,23.6l.4.6c11.8-3.5,15.2-8.6,16.4-14.9,1,6.4,3.3,11.8,8.5,14.6.3-2.7,1.6-4,3.9-4.5v-.5c-4.8-1.6-7.8-4-9.7-7.1,2.8-1.3,5.7-3.1,7.3-4.2.9.3,1.5-.1,1.8-.5l-5.9-3.2Z"/><path id="Shape-5" class="cls-24" d="m306.9,24.6h-30.2l.4,1.3h14.9c-2,3.4-7.2,8.8-10.9,10.6-.6.3-1.7.5-1.7.5l2.2,6.2c.5-.2.9-.5,1.3-1.1,9.8-1.5,18-2.9,23.6-4.1,1,1.6,1.9,3.1,2.5,4.6,5.6,3.4,8.8-7.9-8.4-12.7l-.4.3c1.7,1.8,3.7,4.2,5.4,6.6-8.3.2-16.2.4-21.3.4,4.7-2,9.9-5.1,12.8-7.5.9.1,1.5-.2,1.7-.6l-5.7-3.2h21c.7,0,1.1-.2,1.3-.7-2.1-1.8-5.5-4.4-5.5-4.4l-3,3.8Zm-7.4-7.8h-14.9l.4,1.3h20.9c.7,0,1.2-.2,1.3-.7-1.9-1.7-4.9-4-4.9-4l-2.8,3.4ZM292.7.2c-2.1,6.4-10.6,15.8-18.2,20.6l.3.6c8.8-3.6,18.2-10.8,22.7-17.7,2.9,7.1,9.1,12.4,15.9,15.9.4-2,1.9-4.1,4-4.7l.1-.7c-7-2.1-15.2-5.5-19.3-11.1,1.4-.1,2-.4,2.2-1l-7.7-1.9Z"/><path id="Shape-6" class="cls-22" d="m337.4,5.2v4.2h-6.6v-4.2h6.6Zm-6.6,9.8v-4.3h6.6v4.3h-6.6Zm6.6,1.3v2.1h.9c1.6,0,3.9-1,3.9-1.4V5.9c.9-.2,1.4-.5,1.7-.9l-4.7-3.6-2.2,2.5h-5.9l-5.2-2.3v41.6h.9c2.2,0,4.1-1.3,4.1-2v-24.9h6.5Zm4.9,12.5v-6.6h4v6.6h-4Zm13.5,1.3c.6,0,1.1-.2,1.2-.7-1.5-1.5-4-3.7-4-3.7l-2.2,3.1h-.1v-6.6h4.4c.6,0,1.1-.2,1.2-.7-1.6-1.5-4.3-3.7-4.3-3.7l-2.3,3.1h-16.3l.4,1.3h4.3v6.5h-5.7l.4,1.3h5.3c-.3,3.7-1.3,7.6-5,10.8l.4.5c6.6-2.9,8.4-7.2,8.9-11.3h4.1v10.8h.8c2.2,0,3.6-.8,3.6-1v-9.8h4.9v.1Zm-4.5-15.1v-4.3h6.8v4.3h-6.8Zm6.9-9.8v4.2h-6.8v-4.2h6.8Zm1.9-4.1l-2.3,2.8h-6.2l-5-2.1v16.3h.7c2,0,4.1-1,4.1-1.5v-.3h6.8v20.2c0,.6-.2.9-.9.9-.8,0-4.2-.2-4.2-.2v.6c1.8.4,2.6.9,3.1,1.7.5.7.7,2,.8,3.7,5.4-.5,6.2-2.5,6.2-6.1V6.1c.9-.1,1.5-.5,1.8-.9l-4.9-4.1Z"/><path id="Shape-7" class="cls-23" d="m393.4,32.4h6v6.2h-6v-6.2Zm5.9-7.8h-6v-5.3h6v5.3Zm0,6.5h-6v-5.2h6v5.2Zm8.8,7.4h-3.7v-6.2h7.9c.6,0,1.1-.2,1.2-.7-1.6-1.5-4.3-3.6-4.3-3.6l-2.3,3.1h-2.4v-5.2h7.9c.6,0,1.1-.2,1.2-.7-1.6-1.5-4.3-3.7-4.3-3.7l-2.4,3.1h-2.4v-5.3h9c.7,0,1.1-.2,1.3-.7-1.8-1.6-4.6-3.8-4.6-3.8l-2.6,3.2h-4.3c2.8-.7,3.8-5.3-4.4-6.2l-.4.2c.9,1.2,1.7,3.3,1.8,5.1.5.5,1,.7,1.6.8h-7.6c.5-.9,1-1.7,1.4-2.5,1,0,1.4-.3,1.6-.8l-4.9-1.7.9-1.4h14.7v1.9h.9c1.9,0,4.2-.7,4.2-1V4.1c1.2-.2,1.6-.6,1.7-1.3l-6.7-.6v7.9h-5.1V1.8c1.2-.2,1.5-.7,1.6-1.3l-6.6-.5v10.1h-5.1v-6.1c1.2-.2,1.6-.5,1.7-1l-6.4-.8-6.9-2.1c-1.8,8.7-5.2,18-8.5,24l.5.3c1.7-1.5,3.2-3.1,4.7-5v23.8h1c2,0,4.1-1.1,4.2-1.5V14.1c.9-.2,1.3-.5,1.4-.9l-1.8-.7c1.5-2.8,2.9-5.8,4-9,.5,0,.9-.1,1.3-.3v6.8c-.4.3-.8.7-1,1.1l3.5,2c-1.1,4.4-3.5,10.9-6.4,15.2l.5.4c1.4-1,2.8-2.3,4.1-3.6v18.1h.9c2.5,0,4-1.2,4-1.6v-1.8h21c.6,0,1.1-.2,1.2-.7-1.8-1.7-4.9-4.1-4.9-4.1l-2.9,3.5Z"/><path id="Shape-8" class="cls-7" d="m431.4,39.5c2.2,0,3.8-1.6,3.8-3.6s-1.6-3.6-3.8-3.6-3.7,1.6-3.7,3.6c0,1.9,1.6,3.6,3.7,3.6Zm.1-35.6c-2.1,0-3.6,1.3-3.6,4.1,0,2.3.4,6,1.9,14.1l1,6.1h1.5l1-6.1c1.5-8.1,1.8-11.9,1.8-14.1-.1-2.7-1.5-4.1-3.6-4.1Z"/><path id="Path-3" class="cls-4" d="m490.3,23.5c3.5,1.9,6.7,2.9,9.5,2.9,4.2,0,8.6-1.8,12-6.7l-.7-.6c-2.8,2.7-6,3.9-9.3,3.9-3.1,0-6-1.3-9.5-3.1-3.5-1.9-6.7-2.9-9.5-2.9-4.2,0-8.4,1.7-12,6.6l.8.6c2.8-2.7,5.9-3.9,9.3-3.9,3,.1,5.9,1.4,9.4,3.2Z"/><path id="Shape-9" class="cls-5" d="m551.6,21.1v1.8h.9c.3,0,.7,0,1.1-.1-1.1,1.6-2.8,3.8-4.4,5.5-1.5-2.1-2.7-4.5-3.5-7.2,0,0,5.9,0,5.9,0Zm-10.2-8.2h10.2v6.9h-10.2v-6.9Zm0-1.3v-6.4h10.2v6.4h-10.2Zm13.4,10.9c1.1-.4,2-.9,2-1.1V6c1-.2,1.5-.6,1.8-1l-5-3.9-2.4,2.7h-9.2l-5.7-2.3v3.9l-4.7-4.4-2.7,2.7h-3.1l-5.5-2.1v41.4h.9c2.5,0,4-1.2,4-1.6V5.1h4c-.6,3.6-1.7,9-2.5,11.9,2.6,3,3.6,6.5,3.6,9.7,0,1.4-.4,2.1-1,2.5-.3.2-.5.2-1,.2h-2.9v.6c1.1.2,1.9.6,2.2,1.1.4.7.6,2.7.6,4.2,5.3-.1,7.1-2.8,7.1-7.3,0-3.7-2.2-8.2-7.4-11.2,2.4-2.8,5.3-7.6,6.8-10.4.7,0,1.3-.1,1.6-.3v29.1c0,1.1-.3,1.6-1.9,2.4l2.6,5.6c.5-.3,1.2-.8,1.6-1.7,4.4-2.6,8.1-5.3,10-6.6l-.1-.5c-2.4.6-4.9,1.2-7.1,1.7v-15h3.5c1.9,10.6,5.4,17.4,12.5,21.5.6-2.4,2.1-4,3.9-4.5l.1-.5c-4.4-1.5-8.4-4.3-11.4-8.2,3.1-.9,6.3-2.2,8-3,.9.3,1.4.2,1.7-.2l-4.9-3.7Z"/><path id="Shape-10" class="cls-6" d="m584.2,1.4c1.7,1.5,3,4,3,6.3,5.4,3.9,10.6-6.4-2.7-6.6l-.3.3Zm7,25.8h12.4c.6,0,1.1-.2,1.2-.7-1.9-1.7-5-4.1-5-4.1l-2.8,3.6h-5.8v-8.4h12.5c.6,0,1.1-.2,1.2-.7-.7-.6-1.6-1.3-2.4-1.9,2-1,4.3-2.6,5.6-3.9.9,0,1.4-.1,1.8-.5l-5-4.6-2.8,2.8h-27.8c-.1-.9-.5-1.8-.8-2.7h-.5c.1,2.2-1.9,4.1-3.5,4.9-1.5.7-2.7,2.1-2.2,4,.6,2,3.2,2.6,4.7,1.6,1.7-1,2.9-3.3,2.5-6.6h27.9c-.2,1.3-.5,3-.9,4.3-1-.8-1.8-1.3-1.8-1.3l-2.7,3.2h-23.8l.4,1.3h12.3v18.3c-3-.9-5.2-2.6-6.9-5.2.9-2.1,1.5-4.3,1.9-6.4,1.1,0,1.6-.4,1.7-1.1l-7.1-1.2c-.5,6.8-2.5,15.3-8.5,20.9l.4.4c5.4-2.8,8.8-6.8,10.9-11.1,3.4,8.2,9.2,10.2,19.7,10.2h9.2c0-2.2,1-4.2,2.8-4.6v-.5h-11.7c-2.6,0-5-.1-7.1-.3v-9.7h0Z"/><path id="Path-4" class="cls-15" d="m641.5,37.6c-.1-3.1-.1-6.2-.1-9.2v-15l.2-8-.7-.5-11.9,3v1.8l6-.8v19.4c0,3,0,6.2-.1,9.2l-7.1.5v1.4h20.6v-1.4l-6.9-.4Z"/><path id="Shape-11" class="cls-11" d="m673.1,16.8V6.3c1.8,0,3.5-.1,5.2-.2,0,3.6,0,7.2.1,10.7h-5.3Zm10.9,0h-1.1c-.1-3.7-.1-7.5.2-11.1,1.3-.1,2.5-.3,3.5-.5,1.3.6,2.2.6,2.8.2l-4.9-5.2c-2.6,1.4-7,3.2-11.2,4.5l-5.1-1.8v30.3c0,1.1-.3,1.5-2.1,2.6l3.1,5.9c.6-.3,1.2-1,1.6-1.9,1.7-1.7,3.3-3.5,4.6-5,1,1.6,1.9,3.8,1.9,5.8,3.5,3.4,8.1-3.6-1.3-6.4,1.3-1.6,2.4-2.9,3.1-3.8l-.2-.5c-2,1.1-4,2.2-5.7,3.2v-15h5.4c.4,7.7,1.6,15,4.6,20.3,1.1,1.9,3.9,3.9,6.1,2.4,1.1-.7.7-2.2-.2-4.7l.8-7.1-.5-.1c-.6,1.7-1.3,3.7-1.8,4.7-.4.7-.7.8-1,.1-2.1-3.4-3.1-9.2-3.5-15.6h6.2c.6,0,1.1-.2,1.2-.7-1.5-1.6-4.1-3.9-4.1-3.9l-2.4,3.3Zm19.1-15.2l-2.6,2.7h-4.3l-5.3-2.6v41.5h.8c2.5,0,3.9-1.1,3.9-1.6V5.6h5.2c-.6,3.9-1.9,9.6-2.7,12.8,2.8,3.3,3.9,7,3.9,10.4,0,1.6-.4,2.4-1.1,2.8-.3.2-.6.3-1,.3h-3.2v.5c1.1.2,1.9.6,2.2,1.2.4.6.6,2.6.6,4.1,5.4-.1,7.1-2.8,7.1-7.5,0-4-2.2-8.6-7.5-11.9,2.4-3.1,5.3-8.3,7-11.3,1.1,0,1.7-.2,2-.6l-5-4.8Z"/><path id="Path-5" class="cls-9" d="m734.3,23.5c3.5,1.9,6.7,2.9,9.5,2.9,4.2,0,8.6-1.8,12-6.7l-.7-.6c-2.8,2.7-6,3.9-9.3,3.9-3.1,0-6-1.3-9.5-3.1-3.5-1.9-6.7-2.9-9.5-2.9-4.2,0-8.4,1.7-12,6.6l.8.6c2.8-2.7,5.9-3.9,9.3-3.9,2.9.1,5.9,1.4,9.4,3.2Z"/></g><path id="Shape-12" class="cls-8" d="m189.8,129.3c.2-1.8.3-3.7.3-5.5v-2.4h12.7v7.9h-13Zm13-16.6v7.6h-12.7v-7.6h12.7Zm1.8-3.7l-2.2,2.5h-11.5l-5.4-1.9v14.2c0,7.8-.9,15.1-7.4,20.8l.4.3c7.7-3.6,10.4-9,11.3-14.5h13.1v8.3c0,.6-.2.9-.9.9-1,0-5.9-.3-5.9-.3v.5c2.3.4,3.3.9,4.1,1.7.7.7.9,1.8,1.1,3.4,5.7-.6,6.5-2.4,6.5-5.7v-25.9c.8-.2,1.3-.5,1.6-.8l-4.8-3.5Z"/><path id="Path-6" class="cls-14" d="m232.6,113.4c.9.5,1.8.9,2.4,1.5s.6.9.4,1.5c-.9,2.3-3,6.3-5.1,9.4-2.2,3.1-4.9,6.5-8,9.8l.6.7c4.2-2.4,7.5-5.9,10.2-8.8.9-.9,1.7-2,2.5-3,.6.6,1.1,1,1.5,1,.6,0,1-.3,1.8-.4,1.2-.2,4.2-.6,5.5-.7.5,0,.7.2.5.7-1.2,2.3-3,5.2-5.4,8.2-1.8-1-4.2-2-7-2.7l-.5.6c4.1,3.2,6.5,5.5,8.7,9.6.8,1.5,1.3,2.4,3,2.4,1.8,0,2.4-1.3,2.4-2.7,0-1.1-.9-2.6-1.8-3.5-.7-.7-1.6-1.6-2.9-2.4,2.8-2.4,5.2-4.8,7.5-7,.8-.7,2.8-1.1,2.8-2.3,0-1.4-3.5-4.8-5.1-4.8-.8,0-1.4,1.1-2.6,1.3s-5.4.6-6.9.7c1-1.3,1.8-2.6,2.5-3.5.6-.9,1.8-1.3,1.8-2.2s-2-2.7-3.4-3.4c-1.5-.7-3.1-.8-5.2-.7l-.2.7Z"/><path id="Shape-13" class="cls-10" d="m287,124c-1.5,3.4-3.7,6.5-6.4,9.2-3.3-2.4-6.1-5.4-7.8-9.2h14.2Zm2.8-3.7l-2.9,2.6h-4.1v-6.8h14.5c.6,0,1-.2,1.1-.6-1.9-1.7-5-4-5-4l-2.8,3.5h-7.9v-5.3c1.1-.2,1.4-.6,1.4-1.1l-6.2-.5v6.9h-15.1l.3,1.1h14.9v6.8h-12.3l.3,1.1h5.9c1.5,4.6,3.6,8.3,6.4,11.3-4.4,3.8-9.9,6.8-16.3,9l.2.5c7.5-1.4,13.6-3.8,18.5-7.1,3.9,3.3,8.7,5.5,14.1,7.1.6-2.2,2.1-3.7,4.2-4.1l.1-.5c-5.4-.9-10.7-2.5-15.3-5,3.5-2.9,6.2-6.4,8.3-10.3,1.1-.1,1.5-.2,1.8-.6l-4.1-4Z"/><path id="Shape-14" class="cls-17" d="m322.7,122.7c-2.3.7-4.7,1.3-6.9,1.9v-6.2h6.1c.6,0,.9-.2,1-.6-1.3-1.5-3.7-3.6-3.7-3.6l-2,3.1h-1.4v-7.6c1-.2,1.4-.6,1.4-1.1l-5.9-.6v9.3h-6.6l.3,1.1h6.3v7.4c-3.1.8-5.7,1.5-7.1,1.7l1.8,5.4c.4-.2.8-.6,1-1.1,1.5-.7,3-1.5,4.3-2.2v9c0,.5-.2.7-.9.7-.9,0-5-.3-5-.3v.6c1.9.4,2.9.9,3.5,1.7s.8,1.9.9,3.5c5.3-.5,5.9-2.4,5.9-5.8v-11.8c3-1.7,5.3-3,7.1-4.1l-.1-.4Zm8.5,3.8c1.3,2.8,2.6,6,3.6,9.2-5.6,1.1-10.9,2.1-14.3,2.7,4.6-7,9.6-18.5,11.9-26.2.9,0,1.5-.4,1.7-.9l-6.8-2.8c-1,8.6-5.4,23.5-8,28.8-.3.6-1.6,1.1-1.6,1.1l1.6,5.6c.5-.2.9-.5,1.3-.9,6-2.3,11.1-4.6,14.6-6.2.6,2.2,1.1,4.4,1.3,6.4,5.2,4.7,8.8-7.1-4.7-17l-.6.2Z"/><path id="Shape-15" class="cls-13" d="m351,129.3c.4,6.3,4.1,9.9,7.2,11.2,2.5,1,4.3.1,4.3-1.7,0-1.2-.6-1.1-.6-3.5,0-1.4.9-4.7,1.8-7.8l-.7-.3c-1.4,2.6-2.8,5.2-4.1,7-.4.6-1,.6-1.6.4-1.3-.6-3.1-2.6-3.1-6.1,0-5,2.1-7.1,2.1-9.1,0-1.8-2.4-4.1-4.4-4.9-1.1-.5-2.7-.6-3.7-.5l-.2.4c2.1,1.7,3,3.3,3,5.6.1,2.7-.3,6.2,0,9.3Zm24.7-4.1c1.2,3.3,1.1,5.5,1.5,7.2.3,1.1,1.2,1.5,2,1.5,1.9,0,2.8-1.3,2.8-3.8,0-3-1.1-6.3-3.5-8.5-2.3-2.2-4.7-3.5-8.8-3.8l-.2.7c3.1,1.2,5.2,3.8,6.2,6.7Z"/><path id="Path-7" class="cls-16" d="m523.7,112.6h-28.9l.3,1.1h11.5c-.1,10.4-.3,21.3-12,30.6l.4.6c11.2-5.8,14.8-13.4,16.1-21.6h9.4c-.6,8.3-1.6,14.3-3,15.5-.5.3-.9.4-1.6.4-1.1,0-4.4-.2-6.6-.4v.6c2,.4,3.9,1,4.7,1.8.7.7.9,1.8.9,3.2,2.8,0,4.4-.6,5.9-1.8,2.4-2,3.7-8.3,4.3-18.4.9-.1,1.4-.4,1.7-.7l-4.2-3.7-2.5,2.4h-8.9c.4-2.8.5-5.6.6-8.4h18.3c.6,0,1-.2,1.1-.6-1.9-1.6-4.9-3.9-4.9-3.9l-2.6,3.3Z"/><path id="Shape-16" class="cls-12" d="m557.5,125.8v-13.1h8.9v13.1h-8.9Zm-13.2-13.1h8.5v13.1h-8.5v-13.1Zm23.8-3.6l-2.2,2.5h-21.3l-5-2v35.3h.8c2,0,3.8-1.1,3.8-1.7v-16.1h22v11.9c0,.6-.2.9-1,.9-1.1,0-6.6-.4-6.6-.4v.6c2.5.4,3.6.9,4.4,1.5.8.7,1.1,1.7,1.3,3.1,5.8-.5,6.7-2.2,6.7-5.4v-25.8c.8-.1,1.3-.5,1.6-.8l-4.5-3.6Z"/><path id="Shape-17" class="cls-18" d="m590.2,140.2v-10.3h15v10.3h-15Zm14.6-11.5h-14.3l-5.2-2v18.1h.7c2,0,4.2-1.1,4.2-1.6v-2h15v3.3h.8c1.6,0,4.1-.9,4.1-1.1v-12.7c.9-.2,1.5-.6,1.8-.9l-4.8-3.7-2.3,2.6Zm-2.8-14.5c1.9,1.7,4,3.9,5.7,6.2-8.6.3-16.8.6-22.1.6,5-2.6,10.7-6.7,13.8-9.8.9.1,1.4-.2,1.6-.7l-6.4-2.6c-1.8,3.8-7.7,10.4-11.8,12.6-.5.3-1.6.5-1.6.5l1.6,5.3c.4-.1.8-.4,1.2-.8,10.2-1.5,18.7-2.9,24.4-4.1.9,1.4,1.7,2.9,2.2,4.2,5,3.1,7.8-7.6-8.2-11.7l-.4.3Z"/><path id="Path-8" class="cls-3" d="m639,128c3,1.7,5.7,2.6,8.2,2.6,3.7,0,7.4-1.7,10.4-6.1l-.6-.6c-2.4,2.4-5.2,3.6-8.1,3.6-2.6,0-5.2-1.1-8.2-2.8s-5.7-2.6-8.2-2.6c-3.7,0-7.3,1.6-10.4,6l.7.6c2.4-2.4,5.1-3.5,8-3.5,2.7.1,5.2,1.2,8.2,2.8Z"/></g></svg>