<?xml version="1.0" encoding="UTF-8"?>
<svg width="835px" height="145px" viewBox="0 0 835 145" version="1.1" xmlns="http://www.w3.org/2000/svg" xmlns:xlink="http://www.w3.org/1999/xlink">
    <title>Group 6</title>
    <defs>
        <linearGradient x1="327.326719%" y1="-79.5043318%" x2="0%" y2="161.620851%" id="linearGradient-1">
            <stop stop-color="#F4F0C9" offset="0%"></stop>
            <stop stop-color="#F4F0C9" offset="15.0754153%"></stop>
            <stop stop-color="#FAF2B1" offset="53.8591984%"></stop>
            <stop stop-color="#867923" offset="100%"></stop>
        </linearGradient>
        <linearGradient x1="315.400097%" y1="-79.5043318%" x2="2.15028355%" y2="161.620851%" id="linearGradient-2">
            <stop stop-color="#F4F0C9" offset="0%"></stop>
            <stop stop-color="#F4F0C9" offset="15.0754153%"></stop>
            <stop stop-color="#FAF2B1" offset="53.8591984%"></stop>
            <stop stop-color="#867923" offset="100%"></stop>
        </linearGradient>
        <linearGradient x1="327.326719%" y1="-73.9349111%" x2="0%" y2="156.820521%" id="linearGradient-3">
            <stop stop-color="#F4F0C9" offset="0%"></stop>
            <stop stop-color="#F4F0C9" offset="15.0754153%"></stop>
            <stop stop-color="#FAF2B1" offset="53.8591984%"></stop>
            <stop stop-color="#867923" offset="100%"></stop>
        </linearGradient>
        <linearGradient x1="291.582386%" y1="-79.5043318%" x2="6.44444444%" y2="161.620851%" id="linearGradient-4">
            <stop stop-color="#F4F0C9" offset="0%"></stop>
            <stop stop-color="#F4F0C9" offset="15.0754153%"></stop>
            <stop stop-color="#FAF2B1" offset="53.8591984%"></stop>
            <stop stop-color="#867923" offset="100%"></stop>
        </linearGradient>
        <linearGradient x1="62.2914889%" y1="-79.5043318%" x2="47.7839335%" y2="161.620851%" id="linearGradient-5">
            <stop stop-color="#F4F0C9" offset="0%"></stop>
            <stop stop-color="#F4F0C9" offset="15.0754153%"></stop>
            <stop stop-color="#FAF2B1" offset="53.8591984%"></stop>
            <stop stop-color="#867923" offset="100%"></stop>
        </linearGradient>
        <linearGradient x1="327.326719%" y1="43.3107267%" x2="0%" y2="55.7655398%" id="linearGradient-6">
            <stop stop-color="#F4F0C9" offset="0%"></stop>
            <stop stop-color="#F4F0C9" offset="15.0754153%"></stop>
            <stop stop-color="#FAF2B1" offset="53.8591984%"></stop>
            <stop stop-color="#867923" offset="100%"></stop>
        </linearGradient>
        <linearGradient x1="315.138038%" y1="-79.5043318%" x2="2.19753086%" y2="161.620851%" id="linearGradient-7">
            <stop stop-color="#F4F0C9" offset="0%"></stop>
            <stop stop-color="#F4F0C9" offset="15.0754153%"></stop>
            <stop stop-color="#FAF2B1" offset="53.8591984%"></stop>
            <stop stop-color="#867923" offset="100%"></stop>
        </linearGradient>
        <linearGradient x1="148.046846%" y1="-79.5043318%" x2="32.3228634%" y2="161.620851%" id="linearGradient-8">
            <stop stop-color="#F4F0C9" offset="0%"></stop>
            <stop stop-color="#F4F0C9" offset="15.0754153%"></stop>
            <stop stop-color="#FAF2B1" offset="53.8591984%"></stop>
            <stop stop-color="#867923" offset="100%"></stop>
        </linearGradient>
        <linearGradient x1="258.233062%" y1="-79.5043318%" x2="12.4570862%" y2="161.620851%" id="linearGradient-9">
            <stop stop-color="#F4F0C9" offset="0%"></stop>
            <stop stop-color="#F4F0C9" offset="15.0754153%"></stop>
            <stop stop-color="#FAF2B1" offset="53.8591984%"></stop>
            <stop stop-color="#867923" offset="100%"></stop>
        </linearGradient>
        <linearGradient x1="305.508129%" y1="-79.5043318%" x2="3.93373374%" y2="161.620851%" id="linearGradient-10">
            <stop stop-color="#F4F0C9" offset="0%"></stop>
            <stop stop-color="#F4F0C9" offset="15.0754153%"></stop>
            <stop stop-color="#FAF2B1" offset="53.8591984%"></stop>
            <stop stop-color="#867923" offset="100%"></stop>
        </linearGradient>
        <linearGradient x1="327.326719%" y1="-77.3186439%" x2="0%" y2="159.736988%" id="linearGradient-11">
            <stop stop-color="#F4F0C9" offset="0%"></stop>
            <stop stop-color="#F4F0C9" offset="15.0754153%"></stop>
            <stop stop-color="#FAF2B1" offset="53.8591984%"></stop>
            <stop stop-color="#867923" offset="100%"></stop>
        </linearGradient>
        <linearGradient x1="327.326719%" y1="-79.222958%" x2="0%" y2="161.378332%" id="linearGradient-12">
            <stop stop-color="#F4F0C9" offset="0%"></stop>
            <stop stop-color="#F4F0C9" offset="15.0754153%"></stop>
            <stop stop-color="#FAF2B1" offset="53.8591984%"></stop>
            <stop stop-color="#867923" offset="100%"></stop>
        </linearGradient>
        <linearGradient x1="327.326719%" y1="-31.569986%" x2="0%" y2="120.305843%" id="linearGradient-13">
            <stop stop-color="#F4F0C9" offset="0%"></stop>
            <stop stop-color="#F4F0C9" offset="15.0754153%"></stop>
            <stop stop-color="#FAF2B1" offset="53.8591984%"></stop>
            <stop stop-color="#867923" offset="100%"></stop>
        </linearGradient>
        <linearGradient x1="147.102472%" y1="-79.5043318%" x2="32.4931272%" y2="161.620851%" id="linearGradient-14">
            <stop stop-color="#F4F0C9" offset="0%"></stop>
            <stop stop-color="#F4F0C9" offset="15.0754153%"></stop>
            <stop stop-color="#FAF2B1" offset="53.8591984%"></stop>
            <stop stop-color="#867923" offset="100%"></stop>
        </linearGradient>
        <linearGradient x1="327.326719%" y1="-73.1913564%" x2="0%" y2="156.179645%" id="linearGradient-15">
            <stop stop-color="#F4F0C9" offset="0%"></stop>
            <stop stop-color="#F4F0C9" offset="15.0754153%"></stop>
            <stop stop-color="#FAF2B1" offset="53.8591984%"></stop>
            <stop stop-color="#867923" offset="100%"></stop>
        </linearGradient>
        <linearGradient x1="285.651893%" y1="-79.5043318%" x2="7.51366949%" y2="161.620851%" id="linearGradient-16">
            <stop stop-color="#F4F0C9" offset="0%"></stop>
            <stop stop-color="#F4F0C9" offset="15.0754153%"></stop>
            <stop stop-color="#FAF2B1" offset="53.8591984%"></stop>
            <stop stop-color="#867923" offset="100%"></stop>
        </linearGradient>
        <linearGradient x1="275.282701%" y1="-79.5043318%" x2="9.38315971%" y2="161.620851%" id="linearGradient-17">
            <stop stop-color="#F4F0C9" offset="0%"></stop>
            <stop stop-color="#F4F0C9" offset="15.0754153%"></stop>
            <stop stop-color="#FAF2B1" offset="53.8591984%"></stop>
            <stop stop-color="#867923" offset="100%"></stop>
        </linearGradient>
        <linearGradient x1="327.326719%" y1="42.5735934%" x2="0%" y2="56.400881%" id="linearGradient-18">
            <stop stop-color="#F4F0C9" offset="0%"></stop>
            <stop stop-color="#F4F0C9" offset="15.0754153%"></stop>
            <stop stop-color="#FAF2B1" offset="53.8591984%"></stop>
            <stop stop-color="#867923" offset="100%"></stop>
        </linearGradient>
    </defs>
    <g id="Page-1" stroke="none" stroke-width="1" fill="none" fill-rule="evenodd">
        <g id="Presis-KASAI" transform="translate(-512, -884)">
            <g id="Group-6" transform="translate(512, 884)">
                <line x1="0.5" y1="74.5" x2="834.5" y2="74.5" id="Line" stroke="#FFFFFF" stroke-linecap="square"></line>
                <g id="特別商談会開催！～限定１邸～" transform="translate(80, 0)" fill-rule="nonzero">
                    <path d="M17.9278997,8.2886049 L25.5214211,8.2886049 L25.5214211,15.3865815 L15.0971787,15.3865815 L15.4566353,16.71459 L41.6071055,16.71459 C42.2361546,16.71459 42.7304075,16.485623 42.8652038,15.9818956 C41.1128527,14.1043663 38.0125392,11.3567625 38.0125392,11.3567625 L35.2716823,15.3865815 L30.6436782,15.3865815 L30.6436782,8.2886049 L39.8098224,8.2886049 C40.4388715,8.2886049 40.9331243,8.05963791 41.0679206,7.55591054 C39.3605016,5.76996805 36.4399164,3.15974441 36.4399164,3.15974441 L33.8338558,6.96059638 L30.6436782,6.96059638 L30.6436782,1.92332268 C31.8568443,1.74014909 32.2163009,1.28221512 32.3061651,0.641107561 L25.5214211,0.0457933972 L25.5214211,6.96059638 L17.5684431,6.96059638 L17.9278997,8.2886049 Z M5.34691745,11.4025559 C5.93103448,9.61661342 6.42528736,7.69329073 6.82967607,5.76996805 C7.14420063,5.76996805 7.4137931,5.72417465 7.6384535,5.63258786 L7.6384535,11.4025559 L5.34691745,11.4025559 Z M19.1859979,19.0958466 C16.9393939,19.6911608 14.6478579,20.2406816 12.4911181,20.7902023 L12.4911181,12.7305644 L18.3772205,12.7305644 C19.0062696,12.7305644 19.4555904,12.5015974 19.5903866,11.9978701 C18.0177638,10.2119276 15.1870428,7.46432375 15.1870428,7.46432375 L12.6708464,11.4025559 L12.4911181,11.4025559 L12.4911181,1.96911608 C13.7042842,1.78594249 14.0188088,1.32800852 14.1086729,0.686900958 L7.6384535,0 L7.6384535,4.53354633 L2.47126437,3.3887114 C2.38140021,9.02129925 1.61755486,15.2034079 0.359456635,19.6453674 L1.03343783,19.9659212 C2.60606061,17.9968051 3.90909091,15.5239617 4.89759666,12.7305644 L7.6384535,12.7305644 L7.6384535,21.9350373 C4.31347962,22.713525 1.57262278,23.3088392 0,23.5835996 L2.47126437,29.7657082 C2.96551724,29.5825346 3.41483804,29.1246006 3.63949843,28.5292865 C5.07732497,27.7965921 6.38035528,27.1096912 7.6384535,26.4227902 L7.6384535,43 L8.58202717,43 C10.4242424,43 12.4911181,41.7635783 12.4911181,41.2140575 L12.4911181,23.7209798 C15.3218391,22.1182109 17.5684431,20.6986155 19.3207941,19.599574 L19.1859979,19.0958466 Z M17.7032393,25.4611289 C19.2758621,27.5218317 21.0731452,30.6357827 21.5673981,33.3375932 C26.2852665,36.8636848 30.6436782,27.6134185 18.0626959,25.1863685 L17.7032393,25.4611289 Z M36.5297806,22.8966986 L35.9905956,22.8966986 L35.9905956,18.8668797 C37.0689655,18.7294995 37.4733542,18.3631523 37.6081505,17.6762513 L30.8683386,17.0809372 L30.8683386,22.8966986 L15.3667712,22.8966986 L15.7262278,24.2247071 L30.8683386,24.2247071 L30.8683386,36.4973376 C30.8683386,37.0926518 30.5987461,37.3674121 29.8349007,37.3674121 C28.7565308,37.3674121 22.7356322,36.9552716 22.7356322,36.9552716 L22.7356322,37.5963791 C25.4315569,38.0085197 26.599791,38.6038339 27.4984326,39.3823216 C28.3521421,40.1608094 28.6217346,41.3972311 28.846395,43 C35.1368861,42.4504792 35.9905956,40.3897764 35.9905956,36.772098 L35.9905956,24.2247071 L41.7868339,24.2247071 C42.415883,24.2247071 42.8652038,23.9957401 43,23.4920128 C41.5172414,21.7976571 38.8213166,19.2790202 38.8213166,19.2790202 L36.5297806,22.8966986 Z" id="Shape" fill="url(#linearGradient-1)"></path>
                    <path d="M66.0680224,4.78773894 L66.0680224,14.7600965 L56.6598878,14.7600965 L56.6598878,4.78773894 L66.0680224,4.78773894 Z M66.3394109,23.009956 L59.8713184,23.009956 C60.0070126,21.8314046 60.1427069,20.6981822 60.2331697,19.5649597 C61.2734923,19.428973 61.680575,18.975684 61.7710379,18.3410795 L55.8457223,17.7971327 C56.3884993,17.4798304 56.6598878,17.1625281 56.6598878,16.9812125 L56.6598878,16.0293057 L66.0680224,16.0293057 L66.0680224,17.8877905 L66.8821879,17.8877905 C68.5105189,17.8877905 71.0434783,17.0265414 71.0887097,16.6639102 L71.0887097,5.60365911 C71.993338,5.46767241 72.6265778,5.01438343 72.8979663,4.69708115 L67.9677419,0.934782609 L65.6157083,3.5185298 L57.2478962,3.5185298 L51.8653576,1.43340049 L51.8653576,18.6130528 L52.7247546,18.6130528 C53.7198457,18.6130528 54.5340112,18.4317373 55.1672511,18.1597639 C54.9863254,26.6362678 54.2173913,36.3819809 48.6086957,42.4107243 L49.1062412,43 C56.4789621,38.557768 58.740533,31.3051443 59.7356241,24.2791651 L66.7917251,24.2791651 C66.4298738,31.9397489 65.7966339,36.0646786 64.7563114,36.9259277 C64.39446,37.2432299 64.0326087,37.3338877 63.3541374,37.3338877 C62.4947405,37.3338877 60.2784011,37.197901 58.9214586,37.0619144 L58.8762272,37.6965189 C60.4593268,38.0591501 61.5901122,38.6030969 62.1781206,39.2830304 C62.766129,39.9629638 62.9018233,41.1868441 62.9018233,42.6373688 C65.1181627,42.6373688 66.8369565,42.1387509 68.193899,41.0508574 C70.4102384,39.3736882 71.3148668,35.0221139 71.7219495,25.0950853 C72.6718093,24.9590986 73.2145863,24.6871252 73.5312062,24.2791651 L68.9628331,20.5168666 L66.3394109,23.009956 Z M79.6826788,6.14760588 C80.8586957,5.96629029 81.220547,5.46767241 81.3562412,4.83306784 L74.7524544,4.24379217 L74.7524544,32.4836957 L75.6570827,32.4836957 C77.5568022,32.4836957 79.6826788,31.5317888 79.6826788,31.1238287 L79.6826788,6.14760588 Z M83.7082749,1.1160982 L83.7082749,36.0646786 C83.7082749,36.6539543 83.4821178,36.8805988 82.7131837,36.8805988 C81.6728612,36.8805988 76.6521739,36.5632965 76.6521739,36.5632965 L76.6521739,37.197901 C79.049439,37.6058611 80.134993,38.1951368 80.9039271,39.011057 C81.6276297,39.8269771 81.8537868,41.0508574 82.0347125,42.8186844 C88.1861851,42.2294087 89.0003506,40.1442794 89.0003506,36.4273098 L89.0003506,3.06524082 C90.131136,2.88392522 90.5834502,2.47596514 90.673913,1.79603167 L83.7082749,1.1160982 Z" id="Shape" fill="url(#linearGradient-1)"></path>
                    <path d="M115.743083,33.5354497 L115.743083,26.5280423 L121.816671,26.5280423 L121.816671,33.5354497 L115.743083,33.5354497 Z M126.540572,27.0740741 C127.215415,26.9830688 127.755289,26.6190476 127.980237,26.3460317 L125.685771,24.6169312 C130.184724,27.1195767 133.064055,18.4285714 120.691932,16.7449735 L120.287026,17.0634921 C122.311555,18.9291005 124.78598,21.9777778 125.640781,24.5714286 L123.571262,22.978836 L121.411765,25.2539683 L115.923041,25.2539683 L112.323878,23.7978836 C113.988491,22.5693122 115.653104,21.1132275 117.137759,19.6116402 C118.082539,19.8391534 118.757382,19.4751323 118.98233,19.0201058 L113.313648,15.9714286 C111.559056,19.8391534 109.174611,23.7978836 107.375029,26.2095238 L107.914904,26.6645503 C108.904673,26.1185185 109.984422,25.4359788 111.064171,24.7079365 L111.064171,37.9492063 L111.739014,37.9492063 C113.673564,37.9492063 115.743083,36.9026455 115.743083,36.4931217 L115.743083,34.8550265 L121.816671,34.8550265 L121.816671,37.0846561 L122.626482,37.0846561 C124.111137,37.0846561 126.495582,36.2201058 126.540572,35.9470899 L126.540572,27.0740741 Z M130.274704,14.242328 L123.931179,14.242328 C125.820739,12.831746 127.66531,11.1481481 129.014997,9.82857143 C130.049756,9.82857143 130.544641,9.41904762 130.724599,8.87301587 L123.706231,7.23492063 C123.346315,9.28253968 122.671472,12.1492063 121.996629,14.242328 L114.213439,14.242328 C116.552895,13.1047619 116.777842,8.6 108.769705,7.41693122 L108.364799,7.68994709 C109.444548,9.19153439 110.659265,11.5121693 110.929203,13.6962963 C111.244129,13.9238095 111.514066,14.1058201 111.828993,14.242328 L107.150081,14.242328 L101.571379,11.9671958 L101.571379,42.8634921 L102.42618,42.8634921 C104.585678,42.8634921 106.745176,41.6804233 106.745176,41.0888889 L106.745176,15.5164021 L130.724599,15.5164021 L130.724599,36.4931217 C130.724599,37.0846561 130.544641,37.4031746 129.779819,37.4031746 C128.790049,37.4031746 124.74099,37.0846561 124.74099,37.0846561 L124.74099,37.7216931 C126.855499,38.0402116 127.755289,38.6772487 128.430133,39.405291 C129.014997,40.178836 129.194955,41.3619048 129.329923,43 C135.178563,42.4539683 135.943385,40.4518519 135.943385,36.9936508 L135.943385,16.426455 C136.843176,16.2444444 137.518019,15.789418 137.787956,15.4253968 L132.659149,11.4666667 L130.274704,14.242328 Z M131.444432,5.86984127 L120.961869,5.86984127 C123.211346,4.5957672 123.256336,0.500529101 115.473146,0 L115.113229,0.273015873 C116.147989,1.5015873 117.272727,3.59470899 117.497675,5.46031746 C117.722623,5.64232804 117.94757,5.77883598 118.127528,5.86984127 L98.1521739,5.86984127 L98.5120902,7.14391534 L138.957684,7.14391534 C139.632527,7.14391534 140.082423,6.91640212 140.217391,6.41587302 C138.102883,4.5957672 134.54871,1.95661376 134.54871,1.95661376 L131.444432,5.86984127 Z" id="Shape" fill="url(#linearGradient-2)"></path>
                    <path d="M163.396465,22.9582208 C170.939532,20.5261847 174.281969,17.3285076 175.817684,13.2300763 C178.618104,15.5269993 181.960541,18.7697142 183.451087,21.4719765 C188.05823,23.5887487 190.181129,15.9323387 178.93428,12.824737 C181.7347,11.3835304 184.535121,9.58202216 186.025667,8.45607951 C186.974196,8.72630574 187.606549,8.4110418 187.832389,8.05074015 L182.186381,4.35764826 C181.328188,6.29426962 179.295625,9.85224839 177.579238,12.509473 C177.127558,12.3743599 176.630709,12.2842845 176.179028,12.2392468 C176.992053,9.40187133 177.127558,6.24923192 177.263062,2.69125314 C178.211591,2.55614002 178.618104,2.10576296 178.753608,1.52027279 L172.113902,0.934782609 C172.068734,10.4377386 172.475247,17.2384322 162.899616,22.327693 L163.396465,22.9582208 Z M167.371255,23.0482962 C167.597095,25.5704078 166.106549,28.137557 164.751507,29.1734243 C163.486801,29.984103 162.673776,31.2451587 163.260961,32.6413276 C163.98365,34.2176473 166.196885,34.3527605 167.416423,33.2718555 C169.13281,31.8306489 170.081339,28.0925193 168.048776,23.0482962 L167.371255,23.0482962 Z M157.163272,15.2117354 L147.723146,15.2117354 L148.08449,16.5178289 L162.131759,16.5178289 C162.764112,16.5178289 163.215793,16.2926404 163.306129,15.7972256 C161.815583,14.356019 159.376507,12.3743599 159.376507,12.3743599 L157.163272,15.2117354 Z M168.139112,4.58283679 C168.410121,6.60953356 167.100247,8.95149427 165.925877,9.8972861 C164.661171,10.6629271 163.802978,11.9239829 164.344995,13.3651895 C165.022516,14.8964715 167.235751,15.0766223 168.364953,14.0857928 C169.991003,12.7346616 170.713692,9.22172051 168.816633,4.58283679 L168.139112,4.58283679 Z M150.342894,1.6103482 C151.697936,3.0965925 153.188482,5.52862862 153.504658,7.78051392 C158.292474,10.9331533 162.58344,1.92561214 150.65907,1.34012196 L150.342894,1.6103482 Z M158.247305,9.44690904 L145.826087,9.44690904 L146.187431,10.7530025 L163.893314,10.7530025 C164.480499,10.7530025 164.977347,10.527814 165.112852,10.0323992 C163.486801,8.45607951 160.686381,6.29426962 160.686381,6.29426962 L158.247305,9.44690904 Z M156.711591,21.0215995 L147.723146,21.0215995 L148.039322,22.327693 L161.725247,22.327693 C162.3576,22.327693 162.764112,22.1025044 162.899616,21.6070897 C161.363902,20.1658831 158.924826,18.2292617 158.924826,18.2292617 L156.711591,21.0215995 Z M152.872305,37.0099851 L152.872305,28.1825947 L157.298776,28.1825947 L157.298776,37.0099851 L152.872305,37.0099851 Z M161.951087,28.903198 C162.80928,28.7230472 163.396465,28.3627456 163.667474,28.0474816 L159.060331,24.5795783 L156.847095,26.921539 L153.052978,26.921539 L148.265163,24.9849176 L148.265163,42.4595475 L148.942684,42.4595475 C150.88491,42.4595475 152.872305,41.4236803 152.872305,40.9733032 L152.872305,38.2710409 L157.298776,38.2710409 L157.298776,40.703077 L158.066633,40.703077 C159.647516,40.703077 161.905919,39.7122475 161.951087,39.3519458 L161.951087,28.903198 Z M182.321885,22.6879946 C181.599196,24.309352 179.973146,27.1917652 178.4826,29.5337259 C177.714742,27.9574062 177.172726,26.2910111 176.811381,24.3994274 C176.901717,23.1834094 176.946885,21.8322782 176.992053,20.481147 C177.985751,20.3460339 178.437431,19.8956568 178.527768,19.2651289 L171.842894,18.7246765 C171.752558,28.903198 172.068734,36.5145703 159.602347,42.3694721 L160.00886,43 C171.797726,39.4870589 175.230499,34.3977982 176.3597,28.137557 C177.398566,34.5329113 179.656969,39.937436 184.896465,42.7748115 C185.212642,40.0275114 186.522516,38.7664556 188.780919,38.2710409 L188.826087,37.7305884 C184.038272,36.109231 181.012011,33.7222326 179.114953,30.6146309 C181.915373,29.3085374 184.851297,27.5520668 186.432179,26.4261242 C187.335541,26.6963504 187.967894,26.3360488 188.193734,25.9307094 L182.321885,22.6879946 Z" id="Shape" fill="url(#linearGradient-3)"></path>
                    <path d="M226.944772,24.4030951 L196.785992,24.4030951 L197.147716,25.6826581 L212.023636,25.6826581 C209.988936,29.0643604 204.834362,34.5025033 201.126686,36.2847519 C200.538884,36.5589439 199.45371,36.7417387 199.45371,36.7417387 L201.669273,42.9567591 C202.121428,42.7739644 202.573584,42.408375 202.935308,41.9056895 C212.70187,40.397633 220.885887,38.980974 226.492616,37.7928083 C227.532574,39.3465634 228.436886,40.9003185 229.024688,42.3626763 C234.631418,45.7900773 237.796507,34.5025033 220.659809,29.7041419 L220.252869,30.0240327 C221.925845,31.8519799 223.960545,34.1826126 225.678736,36.6046426 C217.359073,36.833136 209.491565,36.9702321 204.336991,36.9702321 C208.994194,34.9594901 214.284415,31.8519799 217.132995,29.4756485 C218.082522,29.6127446 218.625109,29.2928538 218.851186,28.8815657 L213.199241,25.6826581 L234.224478,25.6826581 C234.902711,25.6826581 235.354867,25.4541647 235.490513,24.9514792 C233.410598,23.123532 229.974215,20.5187073 229.974215,20.5187073 L226.944772,24.4030951 Z M219.484204,16.5886208 L204.563069,16.5886208 L204.924793,17.9138825 L225.859599,17.9138825 C226.537832,17.9138825 227.035203,17.6853891 227.125634,17.1827036 C225.226581,15.4918525 222.197138,13.2069185 222.197138,13.2069185 L219.484204,16.5886208 Z M212.656654,0 C210.576738,6.44351387 202.076213,15.8117433 194.434783,20.564406 L194.751292,21.1584888 C203.523111,17.5482931 212.973163,10.3736003 217.404288,3.47309967 C220.298084,10.5563951 226.492616,15.8574419 233.320166,19.421939 C233.681891,17.4568957 235.174004,15.3090578 237.344351,14.7149749 L237.434783,13.9837961 C230.42637,11.8816568 222.242354,8.45425578 218.172953,2.92471551 C219.574635,2.83331815 220.162438,2.5134274 220.3433,1.91934456 L212.656654,0 Z" id="Shape" fill="url(#linearGradient-1)"></path>
                    <path d="M257.405722,5.03648311 L257.405722,9.22933252 L250.839758,9.22933252 L250.839758,5.03648311 L257.405722,5.03648311 Z M250.839758,14.8349899 L250.839758,10.5054171 L257.405722,10.5054171 L257.405722,14.8349899 L250.839758,14.8349899 Z M257.405722,16.1110745 L257.405722,18.2530736 L258.260197,18.2530736 C259.83423,18.2530736 262.12782,17.2048613 262.172792,16.8402657 L262.172792,5.72009986 C263.027267,5.53780206 263.566936,5.17320646 263.83677,4.85418531 L259.159644,1.25380376 L256.955999,3.71482406 L251.06462,3.71482406 L245.847826,1.43610156 L245.847826,43 L246.702301,43 C248.950919,43 250.839758,41.7239154 250.839758,41.0402986 L250.839758,16.1110745 L257.405722,16.1110745 Z M262.262737,28.5984738 C262.30771,28.0971548 262.30771,27.6414103 262.30771,27.1856658 L262.30771,22.035753 L266.265277,22.035753 L266.265277,28.5984738 L262.262737,28.5984738 Z M275.84439,29.9201328 C276.474003,29.9201328 276.923726,29.6922606 277.058643,29.1909416 C275.574556,27.6414103 273.056103,25.4994112 273.056103,25.4994112 L270.807485,28.5984738 L270.672568,28.5984738 L270.672568,22.035753 L275.034887,22.035753 C275.6645,22.035753 276.114224,21.8078807 276.204169,21.3521362 C274.630136,19.8026049 271.931794,17.6606058 271.931794,17.6606058 L269.593232,20.7596684 L253.313238,20.7596684 L253.673017,22.035753 L257.990363,22.035753 L257.990363,27.1856658 C257.990363,27.6414103 257.990363,28.1427293 257.990363,28.5984738 L252.278873,28.5984738 L252.638652,29.9201328 L257.900418,29.9201328 C257.630584,33.6572377 256.59622,37.531066 252.863514,40.675703 L253.313238,41.177022 C259.924175,38.3058316 261.678097,33.9306844 262.172792,29.9201328 L266.265277,29.9201328 L266.265277,40.7212775 L267.07478,40.7212775 C269.323398,40.7212775 270.627596,39.9009374 270.672568,39.6730651 L270.672568,29.9201328 L275.84439,29.9201328 Z M271.347154,14.8349899 L271.347154,10.5054171 L278.182952,10.5054171 L278.182952,14.8349899 L271.347154,14.8349899 Z M278.182952,5.03648311 L278.182952,9.22933252 L271.347154,9.22933252 L271.347154,5.03648311 L278.182952,5.03648311 Z M280.071791,0.934782609 L277.733229,3.71482406 L271.527043,3.71482406 L266.490139,1.66397381 L266.490139,17.9340525 L267.209697,17.9340525 C269.233453,17.9340525 271.347154,16.8858401 271.347154,16.4300956 L271.347154,16.1110745 L278.182952,16.1110745 L278.182952,36.3005558 C278.182952,36.8930237 278.003063,37.1664704 277.328478,37.1664704 C276.518975,37.1664704 273.146048,36.9841726 273.146048,36.9841726 L273.146048,37.5766404 C274.944942,37.941236 275.709473,38.4881294 276.294113,39.3084695 C276.788809,40.0376607 276.968699,41.3137453 277.103616,43 C282.545271,42.498681 283.264829,40.4934052 283.264829,36.8930237 L283.264829,5.85682321 C284.164276,5.72009986 284.793889,5.30992981 285.108696,4.94533421 L280.071791,0.934782609 Z" id="Shape" fill="url(#linearGradient-4)"></path>
                    <path d="M313.387586,32.1815287 L319.343515,32.1815287 L319.343515,38.343949 L313.387586,38.343949 L313.387586,32.1815287 Z M319.343515,24.4214437 L313.387586,24.4214437 L313.387586,19.126327 L319.343515,19.126327 L319.343515,24.4214437 Z M319.343515,30.903397 L313.387586,30.903397 L313.387586,25.6995754 L319.343515,25.6995754 L319.343515,30.903397 Z M328.051804,38.343949 L324.306789,38.343949 L324.306789,32.1815287 L332.202906,32.1815287 C332.834596,32.1815287 333.285802,31.9532909 333.421164,31.4511677 C331.79682,29.9447983 329.08958,27.8450106 329.08958,27.8450106 L326.743305,30.903397 L324.306789,30.903397 L324.306789,25.6995754 L332.157785,25.6995754 C332.789475,25.6995754 333.285802,25.4713376 333.376044,24.9692144 C331.751699,23.462845 329.08958,21.3174098 329.08958,21.3174098 L326.698184,24.4214437 L324.306789,24.4214437 L324.306789,19.126327 L333.285802,19.126327 C333.962612,19.126327 334.413819,18.8980892 334.549181,18.395966 C332.789475,16.7983015 329.991993,14.6072187 329.991993,14.6072187 L327.420115,17.8481953 L323.08853,17.8481953 C325.886012,17.163482 326.923788,12.5530786 318.711825,11.6857749 L318.35086,11.9140127 C319.208153,13.1464968 320.065446,15.2006369 320.110566,17.0265393 C320.606894,17.4830149 321.148342,17.7112527 321.68979,17.8481953 L314.064396,17.8481953 C314.605844,16.9808917 315.102172,16.1592357 315.508258,15.3832272 C316.546033,15.3375796 316.906998,15.0636943 317.087481,14.6072187 L312.214449,12.8726115 L313.071741,11.4575372 L327.961563,11.4575372 L327.961563,13.3747346 L328.818856,13.3747346 C330.759045,13.3747346 332.969958,12.6900212 332.969958,12.3248408 L332.969958,4.0626327 C334.188216,3.88004246 334.549181,3.42356688 334.639422,2.78450106 L327.961563,2.1910828 L327.961563,10.133758 L322.862927,10.133758 L322.862927,1.82590234 C324.081185,1.59766454 324.39703,1.14118896 324.487271,0.547770701 L317.854533,0 L317.854533,10.133758 L312.755897,10.133758 L312.755897,4.0626327 C313.929034,3.88004246 314.33512,3.514862 314.425362,3.01273885 L308.018226,2.1910828 L301.069643,0.136942675 C299.264816,8.85562633 295.880766,18.1677282 292.586957,24.1019108 L293.128405,24.4214437 C294.797869,22.9607219 296.377093,21.2717622 297.866075,19.4002123 L297.866075,42.9543524 L298.85873,42.9543524 C300.844039,42.9543524 302.964711,41.8131635 303.054952,41.447983 L303.054952,13.8768577 C303.912245,13.6942675 304.318331,13.4203822 304.453693,12.9639066 L302.603746,12.2791932 C304.092728,9.49469214 305.491469,6.52760085 306.619485,3.2866242 C307.160933,3.2866242 307.567019,3.19532909 307.882864,3.01273885 L307.882864,9.76857749 C307.476778,10.0881104 307.115813,10.4989384 306.845089,10.8641189 L310.31938,12.8726115 C309.236484,17.3004246 306.799968,23.7823779 303.957366,28.118896 L304.453693,28.529724 C305.852434,27.5254777 307.251175,26.2473461 308.514554,24.9235669 L308.514554,43 L309.371846,43 C311.853483,43 313.387586,41.8131635 313.387586,41.447983 L313.387586,39.6677282 L334.368698,39.6677282 C335.000388,39.6677282 335.451595,39.4394904 335.586957,38.9373673 C333.737009,37.2027601 330.713924,34.829087 330.713924,34.829087 L328.051804,38.343949 Z" id="Shape" fill="url(#linearGradient-1)"></path>
                    <path d="M351.432099,39.2608696 C353.601718,39.2608696 355.217391,37.6255977 355.217391,35.6269321 C355.217391,33.6736906 353.601718,32.0384188 351.432099,32.0384188 C349.308642,32.0384188 347.73913,33.6736906 347.73913,35.6269321 C347.73913,37.6255977 349.308642,39.2608696 351.432099,39.2608696 Z M351.478261,3.73913043 C349.400966,3.73913043 347.877617,5.05643278 347.877617,7.82731013 C347.877617,10.0985211 348.293076,13.823307 349.770263,21.9542422 L350.739667,28.0865117 L352.216855,28.0865117 L353.186259,21.9542422 C354.663446,13.823307 355.032743,10.0985211 355.032743,7.82731013 C355.032743,5.05643278 353.555556,3.73913043 351.478261,3.73913043 Z" id="Shape" fill="url(#linearGradient-5)"></path>
                    <path d="M410.301166,23.2743559 C413.766702,25.1352657 416.958643,26.173913 419.831389,26.173913 C424.07211,26.173913 428.40403,24.3562802 431.869565,19.5092593 L431.139979,18.8601047 C428.358431,21.543277 425.16649,22.7983092 421.792153,22.7983092 C418.73701,22.7983092 415.818664,21.543277 412.307529,19.7256441 C408.841994,17.8647343 405.650053,16.826087 402.777306,16.826087 C398.536585,16.826087 394.341463,18.5571659 390.73913,23.4041868 L391.514316,24.0533414 C394.295864,21.3701691 397.442206,20.2016908 400.816543,20.2016908 C403.871686,20.2016908 406.790032,21.456723 410.301166,23.2743559 Z" id="Path" fill="url(#linearGradient-6)"></path>
                    <path d="M471.617923,20.9248266 L471.617923,22.7379826 L472.479531,22.7379826 C472.796966,22.7379826 473.159748,22.6926537 473.567878,22.6019959 C472.479531,24.1885073 470.756316,26.4096233 469.214491,28.0867925 C467.763362,26.0016632 466.538972,23.5539027 465.722712,20.9248266 L471.617923,20.9248266 Z M461.369326,12.7202961 L471.617923,12.7202961 L471.617923,19.6102886 L461.369326,19.6102886 L461.369326,12.7202961 Z M461.369326,11.4057581 L461.369326,4.96905454 L471.617923,4.96905454 L471.617923,11.4057581 L461.369326,11.4057581 Z M474.792268,22.2846936 C475.880615,21.9220624 476.78757,21.4234445 476.78757,21.1968 L476.78757,5.8303036 C477.739873,5.60365911 478.329395,5.24102792 478.601481,4.87839674 L473.613226,1.0254404 L471.164446,3.69984539 L461.958847,3.69984539 L456.290374,1.38807159 L456.290374,5.33168572 L451.619553,0.934782609 L448.898687,3.60918759 L445.76969,3.60918759 L440.282609,1.47872939 L440.282609,42.8640133 L441.144216,42.8640133 C443.683692,42.8640133 445.180169,41.6401331 445.180169,41.2775019 L445.180169,4.87839674 L449.216121,4.87839674 C448.6266,8.45937969 447.538253,13.8988475 446.721993,16.7998969 C449.306817,19.8369331 450.304468,23.3272582 450.304468,26.5002811 C450.304468,27.8601481 449.896338,28.6307393 449.261469,29.0386994 C448.989382,29.220015 448.717295,29.2653439 448.263818,29.2653439 L445.316212,29.2653439 L445.316212,29.8546196 C446.404559,30.0812641 447.175471,30.4892241 447.492905,30.987842 C447.901035,31.6677755 448.082427,33.7075759 448.082427,35.1581006 C453.388117,35.0674428 455.202028,32.3930379 455.202028,27.9054769 C455.202028,24.2338362 453.025334,19.7462753 447.81034,16.7092391 C450.213772,13.8988475 453.070682,9.13931316 454.657854,6.32892148 C455.383419,6.28359258 455.927592,6.23826368 456.290374,6.05694809 L456.290374,34.976785 C456.290374,36.1100075 456.018288,36.5632965 454.34042,37.4245455 L456.925243,43 C457.469417,42.7280266 458.149633,42.1840798 458.557763,41.2775019 C462.956498,38.6484258 466.675016,36.0193497 468.579622,34.6594828 L468.443579,34.115536 C466.040147,34.7501406 463.546019,35.3394162 461.369326,35.7927052 L461.369326,20.9248266 L464.906452,20.9248266 C466.765711,31.5317888 470.348186,38.3311235 477.422439,42.4107243 C478.01196,39.9629638 479.553785,38.3764524 481.322348,37.8778345 L481.413043,37.3792166 C476.968961,35.883363 473.023705,33.0729713 470.030751,29.1746861 C473.159748,28.313437 476.37944,26.998899 478.01196,26.1376499 C478.873568,26.4096233 479.417741,26.3642944 479.735176,25.9110054 L474.792268,22.2846936 Z" id="Shape" fill="url(#linearGradient-7)"></path>
                    <path d="M504.221739,1.20443144 C505.95084,2.6875 507.224914,5.24916388 507.270416,7.54117893 C512.639729,11.451087 517.872533,1.11454849 504.540258,0.934782609 L504.221739,1.20443144 Z M511.229147,27.0008361 L523.605866,27.0008361 C524.242903,27.0008361 524.743432,26.7761288 524.834438,26.2817726 C522.968829,24.6189381 519.829147,22.1920987 519.829147,22.1920987 L517.053485,25.7424749 L511.229147,25.7424749 L511.229147,17.2934783 L523.742374,17.2934783 C524.379411,17.2934783 524.834438,17.0687709 524.970945,16.5744147 C524.242903,15.9901756 523.378353,15.3160535 522.559305,14.6868729 C524.515919,13.6532191 526.836554,12.125209 528.201633,10.8219064 C529.111686,10.7769649 529.566713,10.6870819 529.976236,10.2826087 L525.016448,5.65363712 L522.195284,8.48494983 L494.347665,8.48494983 C494.211157,7.63106187 493.892639,6.73223244 493.528617,5.78846154 L492.982586,5.78846154 C493.073591,7.94565217 491.116977,9.92307692 489.524385,10.7320234 C487.977295,11.451087 486.839729,12.7993311 487.340258,14.6868729 C487.977295,16.6642977 490.525443,17.2485368 492.072533,16.3047659 C493.756131,15.3160535 494.939199,12.979097 494.575178,9.74331104 L522.513803,9.74331104 C522.331792,11.0915552 521.967771,12.7543896 521.649252,14.0127508 C520.602692,13.2487458 519.829147,12.7094482 519.829147,12.7094482 L517.007983,16.0351171 L493.210099,16.0351171 L493.57412,17.2934783 L505.859834,17.2934783 L505.859834,35.6295987 C502.902162,34.6858278 500.62703,33.0679348 498.943432,30.4613294 C499.853485,28.3490803 500.399517,26.1469482 500.854543,24.034699 C501.946607,23.9897575 502.447136,23.5852843 502.583644,22.9111622 L495.530734,21.6977425 C495.075707,28.5288462 492.982586,36.9778428 487.021739,42.5955268 L487.431263,43 C492.800575,40.1686873 496.213274,36.1688963 498.306395,31.8545151 C501.673591,40.0788043 507.49793,42.0112876 518.054543,42.0112876 L527.246078,42.0112876 C527.29158,39.8091555 528.201633,37.8317308 530.021739,37.4272575 L530.021739,36.8879599 C527.10957,36.9329013 520.92121,36.9329013 518.327559,36.9329013 C515.688406,36.9329013 513.322268,36.8430184 511.229147,36.6632525 L511.229147,27.0008361 Z" id="Shape" fill="url(#linearGradient-3)"></path>
                    <path d="M561.477884,37.3669293 C561.388664,34.3005499 561.344054,31.1439828 561.344054,28.1226971 L561.344054,13.1966442 L561.567104,5.21503883 L560.897953,4.67391304 L548.987079,7.7402925 L548.987079,9.49895131 L554.964821,8.73235644 L554.964821,28.1226971 C554.964821,31.1439828 554.920211,34.3005499 554.875601,37.3669293 L547.782609,37.8178675 L547.782609,39.2608696 L568.347826,39.2608696 L568.347826,37.8178675 L561.477884,37.3669293 Z" id="Path" fill="url(#linearGradient-8)"></path>
                    <path d="M593.067189,16.5772098 L593.067189,6.09052183 C594.818036,6.04472843 596.52399,5.95314164 598.274836,5.86155485 C598.229943,9.43343983 598.274836,13.0511182 598.409517,16.5772098 L593.067189,16.5772098 Z M603.976312,16.5772098 L602.898868,16.5772098 C602.764187,12.8679446 602.809081,9.06709265 603.078442,5.44941427 C604.33546,5.31203408 605.547585,5.12886049 606.625029,4.9914803 C607.882047,5.58679446 608.869704,5.58679446 609.45332,5.17465389 L604.559928,0 C602.000998,1.37380192 597.55654,3.15974441 593.336551,4.48775293 L588.218691,2.70181044 L588.218691,33.0170394 C588.218691,34.1160809 587.949329,34.5282215 586.108696,35.5814696 L589.206348,41.4430245 C589.789963,41.1224707 590.418472,40.4813632 590.822514,39.5197018 C592.528467,37.7795527 594.09974,36.0394036 595.401652,34.5282215 C596.389309,36.1309904 597.287179,38.3748669 597.287179,40.343983 C600.788873,43.7326944 605.368011,36.7263046 595.940374,33.9329073 C597.242286,32.3759318 598.31973,31.0479233 599.038026,30.1320554 L598.813559,29.628328 C596.838244,30.7273695 594.86293,31.8264111 593.067189,32.7880724 L593.067189,17.9052183 L598.499304,17.9052183 C598.903346,25.6443024 600.070577,32.8796592 603.078442,38.1916933 C604.20078,40.115016 606.984177,42.1299255 609.139065,40.6187433 C610.21651,39.886049 609.857362,38.3748669 608.959491,35.9020234 L609.722681,28.7582535 L609.228852,28.6666667 C608.645237,30.4068158 607.926941,32.3301384 607.433112,33.3833866 C607.073964,34.1160809 606.75971,34.1618743 606.400561,33.5207668 C604.290567,30.1320554 603.258016,24.3162939 602.943761,17.9052183 L609.183959,17.9052183 C609.812468,17.9052183 610.306297,17.6762513 610.396084,17.172524 C608.869704,15.5697551 606.310774,13.2800852 606.310774,13.2800852 L603.976312,16.5772098 Z M623.14584,1.37380192 L620.497123,4.02981896 L616.187346,4.02981896 L610.889912,1.46538871 L610.889912,43 L611.697995,43 C614.167138,43 615.603731,41.8551651 615.603731,41.4430245 L615.603731,5.35782748 L620.811378,5.35782748 C620.182869,9.25026624 618.92585,14.9744409 618.072874,18.1341853 C620.856271,21.4313099 621.933715,25.0947817 621.933715,28.5292865 C621.933715,30.086262 621.529674,30.9105431 620.856271,31.3684771 C620.542017,31.5516507 620.272656,31.6432375 619.82372,31.6432375 L616.636281,31.6432375 L616.636281,32.1927583 C617.758619,32.4217252 618.566702,32.8338658 618.880957,33.3833866 C619.329892,34.0244941 619.509466,35.9478168 619.509466,37.4589989 C624.896687,37.3674121 626.647534,34.6198083 626.647534,29.9488818 C626.647534,25.9648562 624.402858,21.3397231 619.150318,18.0425985 C621.529674,14.9286475 624.492645,9.75399361 626.153705,6.77742279 C627.231149,6.73162939 627.814765,6.5484558 628.173913,6.13631523 L623.14584,1.37380192 Z" id="Shape" fill="url(#linearGradient-2)"></path>
                    <path d="M654.279427,23.2743559 C657.744963,25.1352657 660.936903,26.173913 663.80965,26.173913 C668.050371,26.173913 672.382291,24.3562802 675.847826,19.5092593 L675.11824,18.8601047 C672.336691,21.543277 669.144751,22.7983092 665.770414,22.7983092 C662.71527,22.7983092 659.796925,21.543277 656.28579,19.7256441 C652.820255,17.8647343 649.628314,16.826087 646.755567,16.826087 C642.514846,16.826087 638.319724,18.5571659 634.717391,23.4041868 L635.492577,24.0533414 C638.274125,21.3701691 641.420467,20.2016908 644.794804,20.2016908 C647.849947,20.2016908 650.768293,21.456723 654.279427,23.2743559 Z" id="Path" fill="url(#linearGradient-6)"></path>
                </g>
                <g id="月々支払い-11-万円台～" transform="translate(178, 101)" fill-rule="nonzero">
                    <path d="M11.8458595,28.1470347 C12.0819896,26.297349 12.1213446,24.4476633 12.1213446,22.6373326 L12.1213446,20.1973217 L24.7936595,20.1973217 L24.7936595,28.1470347 L11.8458595,28.1470347 Z M24.7936595,11.4605083 L24.7936595,19.0953813 L12.1213446,19.0953813 L12.1213446,11.4605083 L24.7936595,11.4605083 Z M26.5646351,7.80049194 L24.4001093,10.3192129 L12.8690899,10.3192129 L7.43809784,8.43017218 L7.43809784,22.6766876 C7.43809784,30.5083356 6.49357748,37.7496584 -5.68434189e-14,43.4561356 L0.354195135,43.7709757 C8.06777808,40.1503143 10.7832741,34.7980322 11.6884395,29.2489751 L24.7936595,29.2489751 L24.7936595,37.5528833 C24.7936595,38.1432085 24.5968844,38.4580486 23.8491391,38.4580486 C22.8652637,38.4580486 17.9458869,38.1432085 17.9458869,38.1432085 L17.9458869,38.6548237 C20.2284777,39.0877289 21.2517081,39.5993441 21.9994534,40.3470894 C22.7078437,41.0554796 22.9439738,42.1967751 23.1013938,43.7709757 C28.807871,43.2200055 29.5949713,41.3703198 29.5949713,38.1038535 L29.5949713,12.2082536 C30.3820716,12.0508336 30.9330418,11.6966384 31.1691719,11.3817983 L26.5646351,7.80049194 Z" id="Shape" fill="url(#linearGradient-9)"></path>
                    <path d="M54.6247609,12.1688986 C55.5692812,12.6411588 56.4350916,13.074064 57.0254168,13.7037442 C57.576387,14.2547144 57.576387,14.6482646 57.3796119,15.2385898 C56.5138016,17.5211807 54.4279858,21.5747472 52.302815,24.6837934 C50.0989341,27.8321946 47.3834381,31.2167259 44.3137469,34.5225471 L44.9434272,35.1915824 C49.1150588,32.7515715 52.42088,29.2883301 55.097021,26.376059 C55.9628314,25.4315387 56.8286417,24.4083083 57.615742,23.3850779 C58.1667122,23.9360481 58.6783274,24.3689533 59.0718776,24.3689533 C59.6228478,24.3689533 60.095108,24.0934682 60.9215633,23.9360481 C62.1022137,23.739273 65.0931949,23.3457229 66.4706204,23.2670128 C66.9822356,23.2670128 67.1790107,23.5031429 66.9428806,24.0147581 C65.7228751,26.336704 63.9125444,29.2096201 61.5118885,32.2399563 C59.6622028,31.2167259 57.3402569,30.2328505 54.5460508,29.5244602 L54.0737907,30.1541405 C58.1273572,33.3418967 60.5280131,35.7031976 62.731894,39.7174091 C63.5189943,41.2128997 64.0699645,42.118065 65.6835201,42.118065 C67.4544958,42.118065 68.123531,40.7799945 68.123531,39.402569 C68.123531,38.2612736 67.1790107,36.844493 66.3132003,35.8999727 C65.6441651,35.1915824 64.6996447,34.3257721 63.4402842,33.4599617 C66.2738453,31.0199508 68.6351462,28.6192949 70.9177371,26.4941241 C71.7441924,25.7857338 73.7512982,25.3528286 73.7512982,24.2115332 C73.7512982,22.7947527 70.2093468,19.3708664 68.6351462,19.3708664 C67.8480459,19.3708664 67.2183657,20.4728068 66.0770702,20.7089369 C64.8570648,20.945067 60.6460782,21.3386171 59.1899426,21.3779721 C60.173818,20.0399016 61.0396283,18.8198961 61.7086636,17.8360208 C62.3383438,16.9308554 63.4796392,16.5766603 63.4796392,15.5927849 C63.4796392,14.6089095 61.4331785,12.8772889 60.0557529,12.1688986 C58.5996174,11.4211533 56.9073517,11.3817983 54.860891,11.4998634 L54.6247609,12.1688986 Z" id="Path" fill="url(#linearGradient-10)"></path>
                    <path d="M108.974037,22.8341077 C107.478546,26.218639 105.31402,29.3276852 102.598524,32.0825362 C99.2533479,29.6818803 96.4984969,26.6515441 94.7668762,22.8341077 L108.974037,22.8341077 Z M111.768243,19.1347363 L108.895327,21.7321673 L104.802405,21.7321673 L104.802405,14.8843946 L119.285051,14.8843946 C119.875376,14.8843946 120.308281,14.6876196 120.426346,14.2547144 C118.537305,12.6018038 115.467614,10.2405029 115.467614,10.2405029 L112.712763,13.7430992 L104.802405,13.7430992 L104.802405,8.43017218 C105.86499,8.27275212 106.179831,7.87920197 106.219186,7.32823176 L100.040448,6.81661656 L100.040448,13.7430992 L84.9281224,13.7430992 L85.2429626,14.8843946 L100.040448,14.8843946 L100.040448,21.7321673 L87.7223285,21.7321673 L88.0371686,22.8341077 L93.9797759,22.8341077 C95.4359115,27.4386444 97.6004373,31.1773709 100.394643,34.168352 C96.0262367,37.9857885 90.5165346,41.0161246 84.1410221,43.1412954 L84.3771522,43.6529106 C91.8546051,42.2754851 97.9546324,39.8354742 102.874009,36.5296529 C106.770156,39.8354742 111.571468,42.07871 117.00246,43.6529106 C117.63214,41.4490298 119.088275,39.9928942 121.213446,39.5993441 L121.292156,39.1270839 C115.861164,38.1825635 110.548237,36.6083629 105.983055,34.168352 C109.446297,31.2560809 112.161793,27.7928396 114.247609,23.8966931 C115.349549,23.8179831 115.782454,23.699918 116.097294,23.2670128 L111.768243,19.1347363 Z" id="Shape" fill="url(#linearGradient-11)"></path>
                    <path d="M144.669035,21.5353922 C142.347089,22.2044274 139.985788,22.8341077 137.742553,23.4637879 L137.742553,17.2456955 L143.881935,17.2456955 C144.432905,17.2456955 144.7871,17.0489205 144.905165,16.6160153 C143.567095,15.1205247 141.205794,12.9953539 141.205794,12.9953539 L139.159333,16.1044001 L137.742553,16.1044001 L137.742553,8.50888221 C138.726428,8.35146215 139.119978,7.957912 139.159333,7.36758677 L133.256081,6.81661656 L133.256081,16.1044001 L126.683793,16.1044001 L126.998634,17.2456955 L133.256081,17.2456955 L133.256081,24.6444384 C130.10768,25.4708937 127.549604,26.1005739 126.132823,26.376059 L127.943154,31.7676961 C128.376059,31.570921 128.769609,31.1380159 128.927029,30.6657557 C130.461875,29.9180104 131.91801,29.1702651 133.256081,28.4618748 L133.256081,37.4741733 C133.256081,37.9857885 133.019951,38.2219186 132.390271,38.2219186 C131.485105,38.2219186 127.352829,37.9464335 127.352829,37.9464335 L127.352829,38.4974037 C129.281224,38.8515988 130.225745,39.363214 130.855425,40.1896693 C131.44575,40.9767696 131.68188,42.118065 131.799945,43.7316207 C137.073517,43.2200055 137.742553,41.2916097 137.742553,37.9464335 L137.742553,26.1005739 C140.694179,24.4476633 143.016125,23.0702378 144.826455,21.9682973 L144.669035,21.5353922 Z M153.248429,25.2741186 C154.507789,28.0683247 155.84586,31.2954359 156.86909,34.5225471 C151.280678,35.6638426 145.967751,36.647718 142.583219,37.1986882 C147.187756,30.1541405 152.225198,18.7411861 154.468434,10.9882482 C155.412954,11.0276032 156.00328,10.594698 156.200055,10.0830828 L149.352282,7.32823176 C148.329052,15.94698 144,30.8231757 141.323859,36.1361028 C141.009019,36.765783 139.710303,37.1986882 139.710303,37.1986882 L141.284504,42.8264553 C141.756764,42.6690353 142.229024,42.3541951 142.622574,41.881935 C148.604537,39.5599891 153.681334,37.3167532 157.18393,35.6638426 C157.81361,37.8677234 158.28587,40.0322492 158.443291,42.07871 C163.598797,46.8013118 167.219459,34.9554523 153.760044,25.0773435 L153.248429,25.2741186 Z" id="Shape" fill="url(#linearGradient-12)"></path>
                    <path d="M172.965291,28.1076797 C173.398196,34.4438371 177.018858,37.9857885 180.206614,39.323859 C182.68598,40.3470894 184.535665,39.441924 184.535665,37.6315933 C184.535665,36.4115879 183.905985,36.4902979 183.984695,34.089642 C184.02405,32.7122165 184.889861,29.3670402 185.795026,26.336704 L184.968571,25.9825089 C183.591145,28.5799399 182.174365,31.1380159 180.875649,32.9877016 C180.442744,33.5386718 179.891774,33.5780268 179.301448,33.3418967 C178.042088,32.7909265 176.231757,30.7051107 176.231757,27.2812244 C176.231757,22.3224925 178.317573,20.1579667 178.317573,18.2295709 C178.317573,16.4192402 175.956272,14.1760044 173.949166,13.3495491 C172.807871,12.8772889 171.273025,12.7985788 170.249795,12.8379339 L170.05302,13.270839 C172.138836,14.9631047 173.083356,16.5766603 173.083356,18.8592512 C173.083356,21.5353922 172.689806,24.9986335 172.965291,28.1076797 Z M197.719596,23.9754031 C198.900246,27.2812244 198.782181,29.4457502 199.215086,31.1380159 C199.529926,32.2006013 200.395737,32.6335064 201.222192,32.6335064 C203.150588,32.6335064 203.977043,31.2954359 203.977043,28.81607 C203.977043,25.7857338 202.875102,22.4799125 200.513802,20.2760317 C198.191856,18.1115059 195.830555,16.7340803 191.698278,16.4979503 L191.501503,17.1669855 C194.610549,18.544411 196.73572,21.102487 197.719596,23.9754031 Z" id="Shape" fill="url(#linearGradient-13)"></path>
                    <path d="M246.234578,41.0262069 C246.113199,37.2634483 246.052509,33.5006897 246.052509,29.737931 L246.052509,10.4386207 L246.295268,0.667586207 L245.445613,0 L230.151819,3.64137931 L230.151819,5.88689655 L238.041475,5.09793103 L238.041475,29.737931 C238.041475,33.5006897 237.980785,37.2634483 237.859406,41.0262069 L228.877337,42.1186207 L228.877337,44 L254.913199,44 L254.913199,42.1186207 L246.234578,41.0262069 Z" id="Path" fill="url(#linearGradient-14)"></path>
                    <path d="M286.229061,41.0262069 C286.107681,37.2634483 286.046992,33.5006897 286.046992,29.737931 L286.046992,10.4386207 L286.28975,0.667586207 L285.440095,0 L270.146302,3.64137931 L270.146302,5.88689655 L278.035957,5.09793103 L278.035957,29.737931 C278.035957,33.5006897 277.975268,37.2634483 277.853888,41.0262069 L268.871819,42.1186207 L268.871819,44 L294.907681,44 L294.907681,42.1186207 L286.229061,41.0262069 Z" id="Path" fill="url(#linearGradient-14)"></path>
                    <path d="M345.726721,11.3817983 L316.84014,11.3817983 L317.15498,12.5230937 L328.685999,12.5230937 C328.607289,22.9521727 328.371159,33.8141569 316.643365,43.1412954 L317.07627,43.7316207 C328.292449,37.9464335 331.913111,30.3509156 333.172471,22.0863624 L342.57832,22.0863624 C342.02735,30.4296256 341.004119,36.3722329 339.626694,37.5528833 C339.154433,37.8677234 338.760883,37.9857885 338.013138,37.9857885 C336.950553,37.9857885 333.566021,37.7890134 331.401495,37.5528833 L331.36214,38.1038535 C333.369246,38.4974037 335.258287,39.1270839 336.045387,39.8748292 C336.793133,40.5438644 336.989908,41.6851599 336.989908,43.0625854 C339.744759,43.0625854 341.437024,42.5116152 342.89316,41.2916097 C345.254461,39.323859 346.553176,33.0270566 347.222212,22.8734627 C348.088022,22.7553976 348.599637,22.4799125 348.914477,22.1650724 L344.703491,18.505056 L342.18477,20.945067 L333.329891,20.945067 C333.684086,18.1902159 333.802151,15.3566548 333.880861,12.5230937 L352.180943,12.5230937 C352.771269,12.5230937 353.204174,12.3263187 353.322239,11.8934135 C351.433198,10.2798579 348.402862,7.957912 348.402862,7.957912 L345.726721,11.3817983 Z" id="Path" fill="url(#linearGradient-15)"></path>
                    <path d="M379.493324,24.6444384 L379.493324,11.4998634 L388.348202,11.4998634 L388.348202,24.6444384 L379.493324,24.6444384 Z M366.309394,11.4998634 L374.849432,11.4998634 L374.849432,24.6444384 L366.309394,24.6444384 L366.309394,11.4998634 Z M390.119178,7.87920197 L387.954652,10.3585679 L366.702944,10.3585679 L361.704857,8.31210713 L361.704857,43.6135556 L362.491957,43.6135556 C364.459708,43.6135556 366.309394,42.4722602 366.309394,41.881935 L366.309394,25.7463788 L388.348202,25.7463788 L388.348202,37.6315933 C388.348202,38.2612736 388.151427,38.5761137 387.364327,38.5761137 C386.262386,38.5761137 380.752684,38.2219186 380.752684,38.2219186 L380.752684,38.7728888 C383.23205,39.1270839 384.333991,39.6386991 385.160446,40.3077344 C385.986901,40.9767696 386.262386,42.039355 386.419806,43.4167805 C392.244349,42.9445204 393.070804,41.1735447 393.070804,38.0644985 L393.070804,12.2476086 C393.857904,12.1295436 394.408875,11.7753485 394.645005,11.4605083 L390.119178,7.87920197 Z" id="Shape" fill="url(#linearGradient-16)"></path>
                    <path d="M412.197341,38.9696638 L412.197341,28.6586499 L427.230957,28.6586499 L427.230957,38.9696638 L412.197341,38.9696638 Z M426.758697,27.5173545 L412.472826,27.5173545 L407.317319,25.5102487 L407.317319,43.6529106 L408.02571,43.6529106 C410.032816,43.6529106 412.197341,42.5509702 412.197341,42.07871 L412.197341,40.0716043 L427.230957,40.0716043 L427.230957,43.3774255 L428.018057,43.3774255 C429.631613,43.3774255 432.071624,42.5116152 432.110979,42.2754851 L432.110979,29.6031703 C433.055499,29.4063952 433.645825,29.012845 433.92131,28.6586499 L429.080643,24.9199235 L426.758697,27.5173545 Z M424.043201,12.9559989 C425.971597,14.6089095 428.018057,16.8127904 429.710323,19.1347363 C421.13093,19.4495764 412.905732,19.6857065 407.63216,19.7644165 C412.669602,17.1276305 418.376079,13.113419 421.406415,9.92566275 C422.31158,10.0043728 422.823195,9.68953266 422.980615,9.25662749 L416.565748,6.69855152 C414.716062,10.476633 408.852165,17.0882755 404.798599,19.2528013 C404.326338,19.5282864 403.224398,19.7250615 403.224398,19.7250615 L404.798599,25.0379885 C405.231504,24.9199235 405.625054,24.6444384 405.979249,24.2115332 C416.211553,22.7553976 424.633526,21.3386171 430.418713,20.1579667 C431.363234,21.5747472 432.150334,23.0308828 432.622594,24.3689533 C437.660036,27.4386444 440.375532,16.7734354 424.397396,12.6805138 L424.043201,12.9559989 Z" id="Shape" fill="url(#linearGradient-17)"></path>
                    <path d="M461.036915,26.8483192 C464.027896,28.5405849 466.782747,29.4851052 469.262113,29.4851052 C472.92213,29.4851052 476.660856,27.8321946 479.651837,23.4244329 L479.022157,22.8341077 C476.621501,25.2741186 473.86665,26.415414 470.954379,26.415414 C468.317593,26.415414 465.798872,25.2741186 462.768536,23.621208 C459.777555,21.9289423 457.022703,20.984422 454.543338,20.984422 C450.883321,20.984422 447.26266,22.5586226 444.153614,26.9663843 L444.822649,27.5567095 C447.223305,25.1166986 449.938801,24.0541131 452.851072,24.0541131 C455.487858,24.0541131 458.006579,25.1954086 461.036915,26.8483192 Z" id="Path" fill="url(#linearGradient-18)"></path>
                </g>
            </g>
        </g>
    </g>
</svg>