<?xml version="1.0" encoding="UTF-8"?>
<svg width="573px" height="131px" viewBox="0 0 573 131" version="1.1" xmlns="http://www.w3.org/2000/svg" xmlns:xlink="http://www.w3.org/1999/xlink">
    <title>Group 6</title>
    <defs>
        <linearGradient x1="327.326719%" y1="-74.6785102%" x2="0%" y2="157.461435%" id="linearGradient-1">
            <stop stop-color="#F4F0C9" offset="0%"></stop>
            <stop stop-color="#F4F0C9" offset="15.0754153%"></stop>
            <stop stop-color="#FAF2B1" offset="53.8591984%"></stop>
            <stop stop-color="#867923" offset="100%"></stop>
        </linearGradient>
        <linearGradient x1="327.326719%" y1="-78.9479228%" x2="0%" y2="161.141277%" id="linearGradient-2">
            <stop stop-color="#F4F0C9" offset="0%"></stop>
            <stop stop-color="#F4F0C9" offset="15.0754153%"></stop>
            <stop stop-color="#FAF2B1" offset="53.8591984%"></stop>
            <stop stop-color="#867923" offset="100%"></stop>
        </linearGradient>
        <linearGradient x1="321.488425%" y1="-79.5043318%" x2="1.05260211%" y2="161.620851%" id="linearGradient-3">
            <stop stop-color="#F4F0C9" offset="0%"></stop>
            <stop stop-color="#F4F0C9" offset="15.0754153%"></stop>
            <stop stop-color="#FAF2B1" offset="53.8591984%"></stop>
            <stop stop-color="#867923" offset="100%"></stop>
        </linearGradient>
        <linearGradient x1="327.326719%" y1="-74.6534064%" x2="0%" y2="157.439798%" id="linearGradient-4">
            <stop stop-color="#F4F0C9" offset="0%"></stop>
            <stop stop-color="#F4F0C9" offset="15.0754153%"></stop>
            <stop stop-color="#FAF2B1" offset="53.8591984%"></stop>
            <stop stop-color="#867923" offset="100%"></stop>
        </linearGradient>
        <linearGradient x1="327.326719%" y1="-76.7806175%" x2="0%" y2="159.273259%" id="linearGradient-5">
            <stop stop-color="#F4F0C9" offset="0%"></stop>
            <stop stop-color="#F4F0C9" offset="15.0754153%"></stop>
            <stop stop-color="#FAF2B1" offset="53.8591984%"></stop>
            <stop stop-color="#867923" offset="100%"></stop>
        </linearGradient>
        <linearGradient x1="298.094307%" y1="-79.5043318%" x2="5.27039225%" y2="161.620851%" id="linearGradient-6">
            <stop stop-color="#F4F0C9" offset="0%"></stop>
            <stop stop-color="#F4F0C9" offset="15.0754153%"></stop>
            <stop stop-color="#FAF2B1" offset="53.8591984%"></stop>
            <stop stop-color="#867923" offset="100%"></stop>
        </linearGradient>
        <linearGradient x1="327.326719%" y1="-76.5319787%" x2="0%" y2="159.058955%" id="linearGradient-7">
            <stop stop-color="#F4F0C9" offset="0%"></stop>
            <stop stop-color="#F4F0C9" offset="15.0754153%"></stop>
            <stop stop-color="#FAF2B1" offset="53.8591984%"></stop>
            <stop stop-color="#867923" offset="100%"></stop>
        </linearGradient>
        <linearGradient x1="61.9016791%" y1="-79.5043318%" x2="47.8542134%" y2="161.620851%" id="linearGradient-8">
            <stop stop-color="#F4F0C9" offset="0%"></stop>
            <stop stop-color="#F4F0C9" offset="15.0754153%"></stop>
            <stop stop-color="#FAF2B1" offset="53.8591984%"></stop>
            <stop stop-color="#867923" offset="100%"></stop>
        </linearGradient>
        <linearGradient x1="327.326719%" y1="42.5735934%" x2="0%" y2="56.400881%" id="linearGradient-9">
            <stop stop-color="#F4F0C9" offset="0%"></stop>
            <stop stop-color="#F4F0C9" offset="15.0754153%"></stop>
            <stop stop-color="#FAF2B1" offset="53.8591984%"></stop>
            <stop stop-color="#867923" offset="100%"></stop>
        </linearGradient>
        <linearGradient x1="314.917309%" y1="-79.5043318%" x2="2.23732675%" y2="161.620851%" id="linearGradient-10">
            <stop stop-color="#F4F0C9" offset="0%"></stop>
            <stop stop-color="#F4F0C9" offset="15.0754153%"></stop>
            <stop stop-color="#FAF2B1" offset="53.8591984%"></stop>
            <stop stop-color="#867923" offset="100%"></stop>
        </linearGradient>
        <linearGradient x1="327.326719%" y1="-77.049329%" x2="0%" y2="159.504864%" id="linearGradient-11">
            <stop stop-color="#F4F0C9" offset="0%"></stop>
            <stop stop-color="#F4F0C9" offset="15.0754153%"></stop>
            <stop stop-color="#FAF2B1" offset="53.8591984%"></stop>
            <stop stop-color="#867923" offset="100%"></stop>
        </linearGradient>
        <linearGradient x1="150.185031%" y1="-79.5043318%" x2="31.9373641%" y2="161.620851%" id="linearGradient-12">
            <stop stop-color="#F4F0C9" offset="0%"></stop>
            <stop stop-color="#F4F0C9" offset="15.0754153%"></stop>
            <stop stop-color="#FAF2B1" offset="53.8591984%"></stop>
            <stop stop-color="#867923" offset="100%"></stop>
        </linearGradient>
        <linearGradient x1="326.146606%" y1="-79.5043318%" x2="0.212765716%" y2="161.620851%" id="linearGradient-13">
            <stop stop-color="#F4F0C9" offset="0%"></stop>
            <stop stop-color="#F4F0C9" offset="15.0754153%"></stop>
            <stop stop-color="#FAF2B1" offset="53.8591984%"></stop>
            <stop stop-color="#867923" offset="100%"></stop>
        </linearGradient>
    </defs>
    <g id="Page-1" stroke="none" stroke-width="1" fill="none" fill-rule="evenodd">
        <g id="Presis-KASAI" transform="translate(-643, -886)">
            <g id="Group-6" transform="translate(643, 886)">
                <g id="特別商談会開催！">
                    <line x1="0.5" y1="72.5" x2="572.5" y2="72.5" id="Line" stroke="#FFFFFF" stroke-linecap="square"></line>
                    <path d="M112.354,8.602 L120.128,8.602 L120.128,15.732 L109.456,15.732 L109.824,17.066 L136.596,17.066 C137.24,17.066 137.746,16.836 137.884,16.33 C136.09,14.444 132.916,11.684 132.916,11.684 L130.11,15.732 L125.372,15.732 L125.372,8.602 L134.756,8.602 C135.4,8.602 135.906,8.372 136.044,7.866 C134.296,6.072 131.306,3.45 131.306,3.45 L128.638,7.268 L125.372,7.268 L125.372,2.208 C126.614,2.024 126.982,1.564 127.074,0.92 L120.128,0.322 L120.128,7.268 L111.986,7.268 L112.354,8.602 Z M99.474,11.73 C100.072,9.936 100.578,8.004 100.992,6.072 C101.314,6.072 101.59,6.026 101.82,5.934 L101.82,11.73 L99.474,11.73 Z M113.642,19.458 C111.342,20.056 108.996,20.608 106.788,21.16 L106.788,13.064 L112.814,13.064 C113.458,13.064 113.918,12.834 114.056,12.328 C112.446,10.534 109.548,7.774 109.548,7.774 L106.972,11.73 L106.788,11.73 L106.788,2.254 C108.03,2.07 108.352,1.61 108.444,0.966 L101.82,0.276 L101.82,4.83 L96.53,3.68 C96.438,9.338 95.656,15.548 94.368,20.01 L95.058,20.332 C96.668,18.354 98.002,15.87 99.014,13.064 L101.82,13.064 L101.82,22.31 C98.416,23.092 95.61,23.69 94,23.966 L96.53,30.176 C97.036,29.992 97.496,29.532 97.726,28.934 C99.198,28.198 100.532,27.508 101.82,26.818 L101.82,43.47 L102.786,43.47 C104.672,43.47 106.788,42.228 106.788,41.676 L106.788,24.104 C109.686,22.494 111.986,21.068 113.78,19.964 L113.642,19.458 Z M112.124,25.852 C113.734,27.922 115.574,31.05 116.08,33.764 C120.91,37.306 125.372,28.014 112.492,25.576 L112.124,25.852 Z M131.398,23.276 L130.846,23.276 L130.846,19.228 C131.95,19.09 132.364,18.722 132.502,18.032 L125.602,17.434 L125.602,23.276 L109.732,23.276 L110.1,24.61 L125.602,24.61 L125.602,36.938 C125.602,37.536 125.326,37.812 124.544,37.812 C123.44,37.812 117.276,37.398 117.276,37.398 L117.276,38.042 C120.036,38.456 121.232,39.054 122.152,39.836 C123.026,40.618 123.302,41.86 123.532,43.47 C129.972,42.918 130.846,40.848 130.846,37.214 L130.846,24.61 L136.78,24.61 C137.424,24.61 137.884,24.38 138.022,23.874 C136.504,22.172 133.744,19.642 133.744,19.642 L131.398,23.276 Z" id="Shape" fill="url(#linearGradient-1)" fill-rule="nonzero"></path>
                    <path d="M164.894,4.738 L164.894,14.858 L155.326,14.858 L155.326,4.738 L164.894,4.738 Z M165.17,23.23 L158.592,23.23 C158.73,22.034 158.868,20.884 158.96,19.734 C160.018,19.596 160.432,19.136 160.524,18.492 L154.498,17.94 C155.05,17.618 155.326,17.296 155.326,17.112 L155.326,16.146 L164.894,16.146 L164.894,18.032 L165.722,18.032 C167.378,18.032 169.954,17.158 170,16.79 L170,5.566 C170.92,5.428 171.564,4.968 171.84,4.646 L166.826,0.828 L164.434,3.45 L155.924,3.45 L150.45,1.334 L150.45,18.768 L151.324,18.768 C152.336,18.768 153.164,18.584 153.808,18.308 C153.624,26.91 152.842,36.8 147.138,42.918 L147.644,43.516 C155.142,39.008 157.442,31.648 158.454,24.518 L165.63,24.518 C165.262,32.292 164.618,36.478 163.56,37.352 C163.192,37.674 162.824,37.766 162.134,37.766 C161.26,37.766 159.006,37.628 157.626,37.49 L157.58,38.134 C159.19,38.502 160.34,39.054 160.938,39.744 C161.536,40.434 161.674,41.676 161.674,43.148 C163.928,43.148 165.676,42.642 167.056,41.538 C169.31,39.836 170.23,35.42 170.644,25.346 C171.61,25.208 172.162,24.932 172.484,24.518 L167.838,20.7 L165.17,23.23 Z M178.74,6.118 C179.936,5.934 180.304,5.428 180.442,4.784 L173.726,4.186 L173.726,32.844 L174.646,32.844 C176.578,32.844 178.74,31.878 178.74,31.464 L178.74,6.118 Z M182.834,1.012 L182.834,36.478 C182.834,37.076 182.604,37.306 181.822,37.306 C180.764,37.306 175.658,36.984 175.658,36.984 L175.658,37.628 C178.096,38.042 179.2,38.64 179.982,39.468 C180.718,40.296 180.948,41.538 181.132,43.332 C187.388,42.734 188.216,40.618 188.216,36.846 L188.216,2.99 C189.366,2.806 189.826,2.392 189.918,1.702 L182.834,1.012 Z" id="Shape" fill="url(#linearGradient-2)" fill-rule="nonzero"></path>
                    <path d="M218.538,33.994 L218.538,26.91 L224.748,26.91 L224.748,33.994 L218.538,33.994 Z M229.578,27.462 C230.268,27.37 230.82,27.002 231.05,26.726 L228.704,24.978 C233.304,27.508 236.248,18.722 223.598,17.02 L223.184,17.342 C225.254,19.228 227.784,22.31 228.658,24.932 L226.542,23.322 L224.334,25.622 L218.722,25.622 L215.042,24.15 C216.744,22.908 218.446,21.436 219.964,19.918 C220.93,20.148 221.62,19.78 221.85,19.32 L216.054,16.238 C214.26,20.148 211.822,24.15 209.982,26.588 L210.534,27.048 C211.546,26.496 212.65,25.806 213.754,25.07 L213.754,38.456 L214.444,38.456 C216.422,38.456 218.538,37.398 218.538,36.984 L218.538,35.328 L224.748,35.328 L224.748,37.582 L225.576,37.582 C227.094,37.582 229.532,36.708 229.578,36.432 L229.578,27.462 Z M233.396,14.49 L226.91,14.49 C228.842,13.064 230.728,11.362 232.108,10.028 C233.166,10.028 233.672,9.614 233.856,9.062 L226.68,7.406 C226.312,9.476 225.622,12.374 224.932,14.49 L216.974,14.49 C219.366,13.34 219.596,8.786 211.408,7.59 L210.994,7.866 C212.098,9.384 213.34,11.73 213.616,13.938 C213.938,14.168 214.214,14.352 214.536,14.49 L209.752,14.49 L204.048,12.19 L204.048,43.424 L204.922,43.424 C207.13,43.424 209.338,42.228 209.338,41.63 L209.338,15.778 L233.856,15.778 L233.856,36.984 C233.856,37.582 233.672,37.904 232.89,37.904 C231.878,37.904 227.738,37.582 227.738,37.582 L227.738,38.226 C229.9,38.548 230.82,39.192 231.51,39.928 C232.108,40.71 232.292,41.906 232.43,43.562 C238.41,43.01 239.192,40.986 239.192,37.49 L239.192,16.698 C240.112,16.514 240.802,16.054 241.078,15.686 L235.834,11.684 L233.396,14.49 Z M234.592,6.026 L223.874,6.026 C226.174,4.738 226.22,0.598 218.262,0.092 L217.894,0.368 C218.952,1.61 220.102,3.726 220.332,5.612 C220.562,5.796 220.792,5.934 220.976,6.026 L200.552,6.026 L200.92,7.314 L242.274,7.314 C242.964,7.314 243.424,7.084 243.562,6.578 C241.4,4.738 237.766,2.07 237.766,2.07 L234.592,6.026 Z" id="Shape" fill="url(#linearGradient-3)" fill-rule="nonzero"></path>
                    <path d="M271.216,23.046 C278.898,20.562 282.302,17.296 283.866,13.11 C286.718,15.456 290.122,18.768 291.64,21.528 C296.332,23.69 298.494,15.87 287.04,12.696 C289.892,11.224 292.744,9.384 294.262,8.234 C295.228,8.51 295.872,8.188 296.102,7.82 L290.352,4.048 C289.478,6.026 287.408,9.66 285.66,12.374 C285.2,12.236 284.694,12.144 284.234,12.098 C285.062,9.2 285.2,5.98 285.338,2.346 C286.304,2.208 286.718,1.748 286.856,1.15 L280.094,0.552 C280.048,10.258 280.462,17.204 270.71,22.402 L271.216,23.046 Z M275.264,23.138 C275.494,25.714 273.976,28.336 272.596,29.394 C271.308,30.222 270.48,31.51 271.078,32.936 C271.814,34.546 274.068,34.684 275.31,33.58 C277.058,32.108 278.024,28.29 275.954,23.138 L275.264,23.138 Z M264.868,15.134 L255.254,15.134 L255.622,16.468 L269.928,16.468 C270.572,16.468 271.032,16.238 271.124,15.732 C269.606,14.26 267.122,12.236 267.122,12.236 L264.868,15.134 Z M276.046,4.278 C276.322,6.348 274.988,8.74 273.792,9.706 C272.504,10.488 271.63,11.776 272.182,13.248 C272.872,14.812 275.126,14.996 276.276,13.984 C277.932,12.604 278.668,9.016 276.736,4.278 L276.046,4.278 Z M257.922,1.242 C259.302,2.76 260.82,5.244 261.142,7.544 C266.018,10.764 270.388,1.564 258.244,0.966 L257.922,1.242 Z M265.972,9.246 L253.322,9.246 L253.69,10.58 L271.722,10.58 C272.32,10.58 272.826,10.35 272.964,9.844 C271.308,8.234 268.456,6.026 268.456,6.026 L265.972,9.246 Z M264.408,21.068 L255.254,21.068 L255.576,22.402 L269.514,22.402 C270.158,22.402 270.572,22.172 270.71,21.666 C269.146,20.194 266.662,18.216 266.662,18.216 L264.408,21.068 Z M260.498,37.398 L260.498,28.382 L265.006,28.382 L265.006,37.398 L260.498,37.398 Z M269.744,29.118 C270.618,28.934 271.216,28.566 271.492,28.244 L266.8,24.702 L264.546,27.094 L260.682,27.094 L255.806,25.116 L255.806,42.964 L256.496,42.964 C258.474,42.964 260.498,41.906 260.498,41.446 L260.498,38.686 L265.006,38.686 L265.006,41.17 L265.788,41.17 C267.398,41.17 269.698,40.158 269.744,39.79 L269.744,29.118 Z M290.49,22.77 C289.754,24.426 288.098,27.37 286.58,29.762 C285.798,28.152 285.246,26.45 284.878,24.518 C284.97,23.276 285.016,21.896 285.062,20.516 C286.074,20.378 286.534,19.918 286.626,19.274 L279.818,18.722 C279.726,29.118 280.048,36.892 267.352,42.872 L267.766,43.516 C279.772,39.928 283.268,34.73 284.418,28.336 C285.476,34.868 287.776,40.388 293.112,43.286 C293.434,40.48 294.768,39.192 297.068,38.686 L297.114,38.134 C292.238,36.478 289.156,34.04 287.224,30.866 C290.076,29.532 293.066,27.738 294.676,26.588 C295.596,26.864 296.24,26.496 296.47,26.082 L290.49,22.77 Z" id="Shape" fill="url(#linearGradient-4)" fill-rule="nonzero"></path>
                    <path d="M339.166,24.564 L308.484,24.564 L308.852,25.852 L323.986,25.852 C321.916,29.256 316.672,34.73 312.9,36.524 C312.302,36.8 311.198,36.984 311.198,36.984 L313.452,43.24 C313.912,43.056 314.372,42.688 314.74,42.182 C324.676,40.664 333.002,39.238 338.706,38.042 C339.764,39.606 340.684,41.17 341.282,42.642 C346.986,46.092 350.206,34.73 332.772,29.9 L332.358,30.222 C334.06,32.062 336.13,34.408 337.878,36.846 C329.414,37.076 321.41,37.214 316.166,37.214 C320.904,35.19 326.286,32.062 329.184,29.67 C330.15,29.808 330.702,29.486 330.932,29.072 L325.182,25.852 L346.572,25.852 C347.262,25.852 347.722,25.622 347.86,25.116 C345.744,23.276 342.248,20.654 342.248,20.654 L339.166,24.564 Z M331.576,16.698 L316.396,16.698 L316.764,18.032 L338.062,18.032 C338.752,18.032 339.258,17.802 339.35,17.296 C337.418,15.594 334.336,13.294 334.336,13.294 L331.576,16.698 Z M324.63,0 C322.514,6.486 313.866,15.916 306.092,20.7 L306.414,21.298 C315.338,17.664 324.952,10.442 329.46,3.496 C332.404,10.626 338.706,15.962 345.652,19.55 C346.02,17.572 347.538,15.41 349.746,14.812 L349.838,14.076 C342.708,11.96 334.382,8.51 330.242,2.944 C331.668,2.852 332.266,2.53 332.45,1.932 L324.63,0 Z" id="Shape" fill="url(#linearGradient-5)" fill-rule="nonzero"></path>
                    <path d="M373.536,5.152 L373.536,9.384 L366.82,9.384 L366.82,5.152 L373.536,5.152 Z M366.82,15.042 L366.82,10.672 L373.536,10.672 L373.536,15.042 L366.82,15.042 Z M373.536,16.33 L373.536,18.492 L374.41,18.492 C376.02,18.492 378.366,17.434 378.412,17.066 L378.412,5.842 C379.286,5.658 379.838,5.29 380.114,4.968 L375.33,1.334 L373.076,3.818 L367.05,3.818 L361.714,1.518 L361.714,43.47 L362.588,43.47 C364.888,43.47 366.82,42.182 366.82,41.492 L366.82,16.33 L373.536,16.33 Z M378.504,28.934 C378.55,28.428 378.55,27.968 378.55,27.508 L378.55,22.31 L382.598,22.31 L382.598,28.934 L378.504,28.934 Z M392.396,30.268 C393.04,30.268 393.5,30.038 393.638,29.532 C392.12,27.968 389.544,25.806 389.544,25.806 L387.244,28.934 L387.106,28.934 L387.106,22.31 L391.568,22.31 C392.212,22.31 392.672,22.08 392.764,21.62 C391.154,20.056 388.394,17.894 388.394,17.894 L386.002,21.022 L369.35,21.022 L369.718,22.31 L374.134,22.31 L374.134,27.508 C374.134,27.968 374.134,28.474 374.134,28.934 L368.292,28.934 L368.66,30.268 L374.042,30.268 C373.766,34.04 372.708,37.95 368.89,41.124 L369.35,41.63 C376.112,38.732 377.906,34.316 378.412,30.268 L382.598,30.268 L382.598,41.17 L383.426,41.17 C385.726,41.17 387.06,40.342 387.106,40.112 L387.106,30.268 L392.396,30.268 Z M387.796,15.042 L387.796,10.672 L394.788,10.672 L394.788,15.042 L387.796,15.042 Z M394.788,5.152 L394.788,9.384 L387.796,9.384 L387.796,5.152 L394.788,5.152 Z M396.72,1.012 L394.328,3.818 L387.98,3.818 L382.828,1.748 L382.828,18.17 L383.564,18.17 C385.634,18.17 387.796,17.112 387.796,16.652 L387.796,16.33 L394.788,16.33 L394.788,36.708 C394.788,37.306 394.604,37.582 393.914,37.582 C393.086,37.582 389.636,37.398 389.636,37.398 L389.636,37.996 C391.476,38.364 392.258,38.916 392.856,39.744 C393.362,40.48 393.546,41.768 393.684,43.47 C399.25,42.964 399.986,40.94 399.986,37.306 L399.986,5.98 C400.906,5.842 401.55,5.428 401.872,5.06 L396.72,1.012 Z" id="Shape" fill="url(#linearGradient-6)" fill-rule="nonzero"></path>
                    <path d="M433.114,32.66 L439.186,32.66 L439.186,38.87 L433.114,38.87 L433.114,32.66 Z M439.186,24.84 L433.114,24.84 L433.114,19.504 L439.186,19.504 L439.186,24.84 Z M439.186,31.372 L433.114,31.372 L433.114,26.128 L439.186,26.128 L439.186,31.372 Z M448.064,38.87 L444.246,38.87 L444.246,32.66 L452.296,32.66 C452.94,32.66 453.4,32.43 453.538,31.924 C451.882,30.406 449.122,28.29 449.122,28.29 L446.73,31.372 L444.246,31.372 L444.246,26.128 L452.25,26.128 C452.894,26.128 453.4,25.898 453.492,25.392 C451.836,23.874 449.122,21.712 449.122,21.712 L446.684,24.84 L444.246,24.84 L444.246,19.504 L453.4,19.504 C454.09,19.504 454.55,19.274 454.688,18.768 C452.894,17.158 450.042,14.95 450.042,14.95 L447.42,18.216 L443.004,18.216 C445.856,17.526 446.914,12.88 438.542,12.006 L438.174,12.236 C439.048,13.478 439.922,15.548 439.968,17.388 C440.474,17.848 441.026,18.078 441.578,18.216 L433.804,18.216 C434.356,17.342 434.862,16.514 435.276,15.732 C436.334,15.686 436.702,15.41 436.886,14.95 L431.918,13.202 L432.792,11.776 L447.972,11.776 L447.972,13.708 L448.846,13.708 C450.824,13.708 453.078,13.018 453.078,12.65 L453.078,4.324 C454.32,4.14 454.688,3.68 454.78,3.036 L447.972,2.438 L447.972,10.442 L442.774,10.442 L442.774,2.07 C444.016,1.84 444.338,1.38 444.43,0.782 L437.668,0.23 L437.668,10.442 L432.47,10.442 L432.47,4.324 C433.666,4.14 434.08,3.772 434.172,3.266 L427.64,2.438 L420.556,0.368 C418.716,9.154 415.266,18.538 411.908,24.518 L412.46,24.84 C414.162,23.368 415.772,21.666 417.29,19.78 L417.29,43.516 L418.302,43.516 C420.326,43.516 422.488,42.366 422.58,41.998 L422.58,14.214 C423.454,14.03 423.868,13.754 424.006,13.294 L422.12,12.604 C423.638,9.798 425.064,6.808 426.214,3.542 C426.766,3.542 427.18,3.45 427.502,3.266 L427.502,10.074 C427.088,10.396 426.72,10.81 426.444,11.178 L429.986,13.202 C428.882,17.664 426.398,24.196 423.5,28.566 L424.006,28.98 C425.432,27.968 426.858,26.68 428.146,25.346 L428.146,43.562 L429.02,43.562 C431.55,43.562 433.114,42.366 433.114,41.998 L433.114,40.204 L454.504,40.204 C455.148,40.204 455.608,39.974 455.746,39.468 C453.86,37.72 450.778,35.328 450.778,35.328 L448.064,38.87 Z" id="Shape" fill="url(#linearGradient-7)" fill-rule="nonzero"></path>
                    <path d="M475.35,39.652 C477.512,39.652 479.122,37.996 479.122,35.972 C479.122,33.994 477.512,32.338 475.35,32.338 C473.234,32.338 471.67,33.994 471.67,35.972 C471.67,37.996 473.234,39.652 475.35,39.652 Z M475.396,3.68 C473.326,3.68 471.808,5.014 471.808,7.82 C471.808,10.12 472.222,13.892 473.694,22.126 L474.66,28.336 L476.132,28.336 L477.098,22.126 C478.57,13.892 478.938,10.12 478.938,7.82 C478.938,5.014 477.466,3.68 475.396,3.68 Z" id="Shape" fill="url(#linearGradient-8)" fill-rule="nonzero"></path>
                </g>
                <g id="～限定１邸～" transform="translate(174, 97)" fill-rule="nonzero">
                    <path d="M15.444,18.36 C18.18,19.908 20.7,20.772 22.968,20.772 C26.316,20.772 29.736,19.26 32.472,15.228 L31.896,14.688 C29.7,16.92 27.18,17.964 24.516,17.964 C22.104,17.964 19.8,16.92 17.028,15.408 C14.292,13.86 11.772,12.996 9.504,12.996 C6.156,12.996 2.844,14.436 0,18.468 L0.612,19.008 C2.808,16.776 5.292,15.804 7.956,15.804 C10.368,15.804 12.672,16.848 15.444,18.36 Z" id="Path" fill="url(#linearGradient-9)"></path>
                    <path d="M64.476,16.38 L64.476,17.82 L65.16,17.82 C65.412,17.82 65.7,17.784 66.024,17.712 C65.16,18.972 63.792,20.736 62.568,22.068 C61.416,20.412 60.444,18.468 59.796,16.38 L64.476,16.38 Z M56.34,9.864 L64.476,9.864 L64.476,15.336 L56.34,15.336 L56.34,9.864 Z M56.34,8.82 L56.34,3.708 L64.476,3.708 L64.476,8.82 L56.34,8.82 Z M66.996,17.46 C67.86,17.172 68.58,16.776 68.58,16.596 L68.58,4.392 C69.336,4.212 69.804,3.924 70.02,3.636 L66.06,0.576 L64.116,2.7 L56.808,2.7 L52.308,0.864 L52.308,3.996 L48.6,0.504 L46.44,2.628 L43.956,2.628 L39.6,0.936 L39.6,33.804 L40.284,33.804 C42.3,33.804 43.488,32.832 43.488,32.544 L43.488,3.636 L46.692,3.636 C46.224,6.48 45.36,10.8 44.712,13.104 C46.764,15.516 47.556,18.288 47.556,20.808 C47.556,21.888 47.232,22.5 46.728,22.824 C46.512,22.968 46.296,23.004 45.936,23.004 L43.596,23.004 L43.596,23.472 C44.46,23.652 45.072,23.976 45.324,24.372 C45.648,24.912 45.792,26.532 45.792,27.684 C50.004,27.612 51.444,25.488 51.444,21.924 C51.444,19.008 49.716,15.444 45.576,13.032 C47.484,10.8 49.752,7.02 51.012,4.788 C51.588,4.752 52.02,4.716 52.308,4.572 L52.308,27.54 C52.308,28.44 52.092,28.8 50.76,29.484 L52.812,33.912 C53.244,33.696 53.784,33.264 54.108,32.544 C57.6,30.456 60.552,28.368 62.064,27.288 L61.956,26.856 C60.048,27.36 58.068,27.828 56.34,28.188 L56.34,16.38 L59.148,16.38 C60.624,24.804 63.468,30.204 69.084,33.444 C69.552,31.5 70.776,30.24 72.18,29.844 L72.252,29.448 C68.724,28.26 65.592,26.028 63.216,22.932 C65.7,22.248 68.256,21.204 69.552,20.52 C70.236,20.736 70.668,20.7 70.92,20.34 L66.996,17.46 Z" id="Shape" fill="url(#linearGradient-10)"></path>
                    <path d="M90.18,0.288 C91.548,1.476 92.556,3.528 92.592,5.364 C96.84,8.496 100.98,0.216 90.432,0.072 L90.18,0.288 Z M95.724,20.952 L105.516,20.952 C106.02,20.952 106.416,20.772 106.488,20.376 C105.012,19.044 102.528,17.1 102.528,17.1 L100.332,19.944 L95.724,19.944 L95.724,13.176 L105.624,13.176 C106.128,13.176 106.488,12.996 106.596,12.6 C106.02,12.132 105.336,11.592 104.688,11.088 C106.236,10.26 108.072,9.036 109.152,7.992 C109.872,7.956 110.232,7.884 110.556,7.56 L106.632,3.852 L104.4,6.12 L82.368,6.12 C82.26,5.436 82.008,4.716 81.72,3.96 L81.288,3.96 C81.36,5.688 79.812,7.272 78.552,7.92 C77.328,8.496 76.428,9.576 76.824,11.088 C77.328,12.672 79.344,13.14 80.568,12.384 C81.9,11.592 82.836,9.72 82.548,7.128 L104.652,7.128 C104.508,8.208 104.22,9.54 103.968,10.548 C103.14,9.936 102.528,9.504 102.528,9.504 L100.296,12.168 L81.468,12.168 L81.756,13.176 L91.476,13.176 L91.476,27.864 C89.136,27.108 87.336,25.812 86.004,23.724 C86.724,22.032 87.156,20.268 87.516,18.576 C88.38,18.54 88.776,18.216 88.884,17.676 L83.304,16.704 C82.944,22.176 81.288,28.944 76.572,33.444 L76.896,33.768 C81.144,31.5 83.844,28.296 85.5,24.84 C88.164,31.428 92.772,32.976 101.124,32.976 L108.396,32.976 C108.432,31.212 109.152,29.628 110.592,29.304 L110.592,28.872 C108.288,28.908 103.392,28.908 101.34,28.908 C99.252,28.908 97.38,28.836 95.724,28.692 L95.724,20.952 Z" id="Shape" fill="url(#linearGradient-11)"></path>
                    <path d="M135.36,29.088 C135.288,26.64 135.252,24.12 135.252,21.708 L135.252,9.792 L135.432,3.42 L134.892,2.988 L125.28,5.436 L125.28,6.84 L130.104,6.228 L130.104,21.708 C130.104,24.12 130.068,26.64 130.032,29.088 L124.308,29.448 L124.308,30.6 L140.904,30.6 L140.904,29.448 L135.36,29.088 Z" id="Path" fill="url(#linearGradient-12)"></path>
                    <path d="M160.56,13.032 L160.56,4.788 C161.964,4.752 163.332,4.68 164.736,4.608 C164.7,7.416 164.736,10.26 164.844,13.032 L160.56,13.032 Z M169.308,13.032 L168.444,13.032 C168.336,10.116 168.372,7.128 168.588,4.284 C169.596,4.176 170.568,4.032 171.432,3.924 C172.44,4.392 173.232,4.392 173.7,4.068 L169.776,0 C167.724,1.08 164.16,2.484 160.776,3.528 L156.672,2.124 L156.672,25.956 C156.672,26.82 156.456,27.144 154.98,27.972 L157.464,32.58 C157.932,32.328 158.436,31.824 158.76,31.068 C160.128,29.7 161.388,28.332 162.432,27.144 C163.224,28.404 163.944,30.168 163.944,31.716 C166.752,34.38 170.424,28.872 162.864,26.676 C163.908,25.452 164.772,24.408 165.348,23.688 L165.168,23.292 C163.584,24.156 162,25.02 160.56,25.776 L160.56,14.076 L164.916,14.076 C165.24,20.16 166.176,25.848 168.588,30.024 C169.488,31.536 171.72,33.12 173.448,31.932 C174.312,31.356 174.024,30.168 173.304,28.224 L173.916,22.608 L173.52,22.536 C173.052,23.904 172.476,25.416 172.08,26.244 C171.792,26.82 171.54,26.856 171.252,26.352 C169.56,23.688 168.732,19.116 168.48,14.076 L173.484,14.076 C173.988,14.076 174.384,13.896 174.456,13.5 C173.232,12.24 171.18,10.44 171.18,10.44 L169.308,13.032 Z M184.68,1.08 L182.556,3.168 L179.1,3.168 L174.852,1.152 L174.852,33.804 L175.5,33.804 C177.48,33.804 178.632,32.904 178.632,32.58 L178.632,4.212 L182.808,4.212 C182.304,7.272 181.296,11.772 180.612,14.256 C182.844,16.848 183.708,19.728 183.708,22.428 C183.708,23.652 183.384,24.3 182.844,24.66 C182.592,24.804 182.376,24.876 182.016,24.876 L179.46,24.876 L179.46,25.308 C180.36,25.488 181.008,25.812 181.26,26.244 C181.62,26.748 181.764,28.26 181.764,29.448 C186.084,29.376 187.488,27.216 187.488,23.544 C187.488,20.412 185.688,16.776 181.476,14.184 C183.384,11.736 185.76,7.668 187.092,5.328 C187.956,5.292 188.424,5.148 188.712,4.824 L184.68,1.08 Z" id="Shape" fill="url(#linearGradient-13)"></path>
                    <path d="M208.944,18.36 C211.68,19.908 214.2,20.772 216.468,20.772 C219.816,20.772 223.236,19.26 225.972,15.228 L225.396,14.688 C223.2,16.92 220.68,17.964 218.016,17.964 C215.604,17.964 213.3,16.92 210.528,15.408 C207.792,13.86 205.272,12.996 203.004,12.996 C199.656,12.996 196.344,14.436 193.5,18.468 L194.112,19.008 C196.308,16.776 198.792,15.804 201.456,15.804 C203.868,15.804 206.172,16.848 208.944,18.36 Z" id="Path" fill="url(#linearGradient-9)"></path>
                </g>
            </g>
        </g>
    </g>
</svg>