<?xml version="1.0" encoding="utf-8"?>
<!-- Generator: Adobe Illustrator 24.1.2, SVG Export Plug-In . SVG Version: 6.00 Build 0)  -->
<svg version="1.1" id="Layer_1" xmlns="http://www.w3.org/2000/svg" xmlns:xlink="http://www.w3.org/1999/xlink" x="0px" y="0px"
	 viewBox="0 0 454.2 91.2" style="enable-background:new 0 0 454.2 91.2;" xml:space="preserve">
<style type="text/css">
	.st0{fill:#414042;}
	.st1{fill:none;}
	.st2{fill:#1A1A1A;}
	.st3{fill:#B68C55;}
	.st4{fill-rule:evenodd;clip-rule:evenodd;fill:#B68C55;}
	.st5{fill:#A7A9AC;}
</style>
<path class="st0" d="M49.5,61.9h-1.4l0.7-1.8L49.5,61.9z M48.4,61.8h0.9l-0.5-1.2L48.4,61.8z"/>
<path class="st0" d="M80.7,61.5h-1.1v-1.3h1.1c0.6,0,0.8,0.3,0.8,0.6c0,0.2-0.1,0.4-0.2,0.5C81.1,61.4,80.9,61.5,80.7,61.5z
	 M79.8,61.3h0.9c0.2,0,0.4,0,0.5-0.1c0.1-0.1,0.2-0.2,0.1-0.4c0-0.2-0.1-0.5-0.6-0.5h-0.9L79.8,61.3z"/>
<path class="st0" d="M90.7,62.9H90v-2.7h0.7c0.2,0,0.4,0,0.6,0.1c0.2,0.1,0.3,0.1,0.4,0.3c0.1,0.1,0.2,0.3,0.2,0.4
	c0,0.2,0.1,0.4,0.1,0.5c0,0.2,0,0.4-0.1,0.5c0,0.2-0.1,0.3-0.2,0.4c-0.1,0.1-0.3,0.2-0.4,0.3C91.1,62.9,90.9,62.9,90.7,62.9z
	 M90.2,62.7h0.5c0.2,0,0.4,0,0.6-0.1l0,0c0.1,0,0.2-0.1,0.3-0.2c0.1-0.1,0.1-0.2,0.2-0.4c0-0.2,0-0.3,0-0.5c0-0.2,0-0.3,0-0.5
	c0-0.1-0.1-0.2-0.2-0.3c-0.1-0.1-0.2-0.2-0.3-0.2c-0.2-0.1-0.4-0.1-0.6-0.1h-0.5L90.2,62.7z"/>
<path class="st0" d="M71,61.9h-1.4l0.7-1.8L71,61.9z M69.9,61.8h0.9l-0.4-1.2L69.9,61.8z"/>
<path class="st0" d="M50.5,63.3h-0.7l-0.4-1h-1.2l-0.4,1h-0.7v-0.1l1.3-3.3H49v0.1L50.5,63.3z M49.9,63.1h0.3L49,60h-0.3l-1.2,3.1
	h0.3l0.4-1h1.5L49.9,63.1z M49.5,61.9h-1.4l0.7-1.8L49.5,61.9z M48.4,61.8h0.9l-0.5-1.2L48.4,61.8z"/>
<path class="st0" d="M60.8,63.3h-0.5l-0.7-2.6l-0.7,2.6h-0.5l-1-3.4H58v0.1l0.6,2.3l0.7-2.4h0.7l0.7,2.4l0.6-2.4h0.6L60.8,63.3z
	 M60.4,63.1h0.3l0.9-3.1h-0.3l-0.7,2.9L59.8,60h-0.4l-0.8,2.9L57.9,60h-0.3l0.9,3.1h0.3l0.9-3.1L60.4,63.1z"/>
<path class="st0" d="M72,63.3h-0.7l-0.4-1h-1.2l-0.4,1h-0.6l1.3-3.4h0.6v0.1L72,63.3z M71.4,63.1h0.3L70.5,60h-0.3l-1.2,3.1h0.3
	l0.4-1H71L71.4,63.1z M71,61.9h-1.4l0.7-1.8L71,61.9z M69.9,61.8h0.9l-0.4-1.2L69.9,61.8z"/>
<path class="st0" d="M82.1,63.3h-0.7v-0.1l-0.3-0.9c0-0.1-0.1-0.1-0.1-0.2c0-0.1-0.1-0.1-0.1-0.1l-0.2-0.1h-0.2h-0.7v1.4h-0.6v-3.5
	H81c0.1,0,0.2,0,0.2,0c0.1,0,0.2,0,0.2,0.1c0.1,0,0.1,0.1,0.2,0.1c0.1,0.1,0.2,0.2,0.2,0.4c0.1,0.1,0.1,0.3,0.1,0.4
	c0,0.1,0,0.2-0.1,0.3c0,0.1-0.1,0.2-0.2,0.3l0,0c-0.1,0.1-0.2,0.1-0.3,0.2l-0.1,0.1c0.2,0.1,0.3,0.3,0.4,0.5L82.1,63.3z M81.6,63.1
	h0.3l-0.3-0.8c-0.1-0.2-0.2-0.4-0.5-0.5l-0.3-0.1l0.3-0.1c0.1,0,0.2-0.1,0.3-0.1c0.1,0,0.1-0.1,0.2-0.2c0.1-0.1,0.1-0.1,0.1-0.2
	c0-0.1,0-0.2,0-0.3c0-0.1,0-0.2-0.1-0.3c0-0.1-0.1-0.2-0.2-0.3c0,0-0.1-0.1-0.2-0.1c-0.1,0-0.1,0-0.2-0.1L81,60h-1.6v3.1h0.3v-1.4
	h0.9c0.1,0,0.2,0,0.3,0c0.1,0,0.2,0.1,0.2,0.1c0.1,0.1,0.1,0.1,0.2,0.2c0,0.1,0.1,0.2,0.1,0.2L81.6,63.1z M80.7,61.5h-1.1v-1.3h1.1
	c0.6,0,0.8,0.3,0.8,0.6c0,0.2-0.1,0.4-0.2,0.5C81.1,61.4,80.9,61.5,80.7,61.5z M79.8,61.3h0.9c0.2,0,0.4,0,0.5-0.1l0,0
	c0.1-0.1,0.2-0.2,0.1-0.4c0-0.2-0.1-0.5-0.6-0.5h-0.9L79.8,61.3z"/>
<path class="st0" d="M90.7,63.3h-1.1v-3.4h1.1c0.9-0.1,1.8,0.6,1.8,1.6c0.1,0.9-0.6,1.8-1.6,1.8C90.9,63.3,90.8,63.3,90.7,63.3z
	 M89.8,63.1h0.9c0.7,0.1,1.4-0.4,1.6-1.1c0-0.1,0-0.3,0-0.4c0-1-0.5-1.5-1.6-1.5h-0.9V63.1z M90.7,62.9H90v-2.7h0.7
	c0.2,0,0.4,0,0.6,0.1c0.2,0.1,0.3,0.1,0.4,0.3c0.1,0.1,0.2,0.3,0.2,0.4c0,0.2,0.1,0.4,0.1,0.5c0,0.2,0,0.4-0.1,0.5
	c0,0.2-0.1,0.3-0.2,0.4c-0.1,0.1-0.3,0.2-0.4,0.3C91.1,62.9,90.9,62.9,90.7,62.9z M90.2,62.7h0.5c0.2,0,0.4,0,0.6-0.1
	c0.1,0,0.2-0.1,0.3-0.2c0.1-0.1,0.1-0.2,0.2-0.4c0-0.2,0-0.3,0-0.5c0-0.2,0-0.3,0-0.5c0-0.1-0.1-0.2-0.2-0.3
	c-0.1-0.1-0.2-0.2-0.3-0.2c-0.2-0.1-0.4-0.1-0.6-0.1h-0.5L90.2,62.7z"/>
<path class="st0" d="M101.2,63.3c-0.2,0-0.4,0-0.6-0.1c-0.2-0.1-0.3-0.1-0.5-0.2c-0.1-0.1-0.2-0.2-0.3-0.4c-0.1-0.2-0.1-0.3-0.1-0.5
	V62h0.6v0.1c0,0.1,0,0.2,0.1,0.3c0,0.1,0.1,0.1,0.2,0.2c0.1,0.1,0.2,0.1,0.3,0.1l0,0c0.2,0,0.4,0,0.6,0c0.1,0,0.2-0.1,0.2-0.1
	c0.1,0,0.1-0.1,0.1-0.1c0-0.1,0-0.1,0-0.2c0-0.1,0-0.1,0-0.2c0-0.1-0.1-0.1-0.2-0.1c-0.1-0.1-0.2-0.1-0.3-0.1
	c-0.1,0-0.3-0.1-0.5-0.1l-0.5-0.2c-0.1,0-0.2-0.1-0.3-0.2c-0.1-0.1-0.2-0.2-0.2-0.3c0-0.1-0.1-0.2-0.1-0.4c0-0.1,0-0.3,0.1-0.4
	c0.1-0.1,0.1-0.2,0.3-0.3c0.1-0.1,0.2-0.2,0.4-0.2c0.3-0.1,0.7-0.1,1,0c0.2,0,0.3,0.1,0.4,0.2c0.1,0.1,0.2,0.2,0.3,0.3
	c0.1,0.1,0.1,0.3,0.1,0.5v0.1h-0.6v-0.1c0-0.3-0.3-0.5-0.7-0.5c-0.2,0-0.4,0-0.5,0.1c-0.1,0.1-0.2,0.2-0.2,0.3c0,0,0,0.1,0,0.1
	c0,0,0.1,0.1,0.1,0.1c0.1,0,0.1,0.1,0.2,0.1l0.3,0.1l0.4,0.1h0.1l0.2,0.1c0.1,0,0.2,0.1,0.2,0.1c0.1,0.1,0.2,0.1,0.2,0.2
	c0.1,0.1,0.1,0.2,0.2,0.3c0,0.1,0,0.2,0.1,0.3c0,0.3-0.1,0.6-0.4,0.8c-0.1,0.1-0.3,0.2-0.4,0.2C101.5,63.2,101.4,63.3,101.2,63.3z
	 M99.9,62.2c0,0.1,0,0.2,0.1,0.3c0.1,0.1,0.1,0.2,0.2,0.3c0.1,0.1,0.2,0.2,0.4,0.2c0.3,0.1,0.7,0.1,1,0c0.1,0,0.2-0.1,0.3-0.2
	c0.1-0.1,0.2-0.2,0.2-0.3c0.1-0.1,0.1-0.2,0.1-0.4c0-0.1,0-0.2-0.1-0.3c0-0.1-0.1-0.1-0.1-0.2l-0.2-0.2c-0.1,0-0.1-0.1-0.2-0.1
	l-0.2-0.1h-0.1l-0.3-0.1l-0.4-0.1l-0.2-0.1l0,0c-0.1,0-0.1-0.1-0.2-0.2c0-0.1,0-0.1,0-0.2c0-0.2,0.1-0.3,0.2-0.4
	c0.2-0.1,0.4-0.2,0.6-0.2c0.6,0,0.8,0.3,0.9,0.6h0.2c0-0.1,0-0.2-0.1-0.3c-0.1-0.1-0.1-0.2-0.2-0.3c-0.1-0.1-0.2-0.1-0.4-0.2
	c-0.3-0.1-0.6-0.1-0.9,0c-0.1,0-0.2,0.1-0.3,0.2c-0.2,0.1-0.3,0.3-0.3,0.6c0,0.1,0,0.2,0,0.3c0,0.1,0.1,0.2,0.2,0.2
	c0.1,0.1,0.2,0.1,0.3,0.2c0.1,0.1,0.3,0.1,0.5,0.1l0.5,0.1c0.1,0,0.2,0.1,0.3,0.1c0.1,0,0.2,0.1,0.2,0.2c0,0.1,0.1,0.2,0.1,0.3
	c0,0.1,0,0.2-0.1,0.3c0,0.1-0.1,0.2-0.2,0.2l0,0c-0.1,0.1-0.2,0.1-0.3,0.1c-0.2,0-0.4,0-0.7,0h-0.1c-0.1,0-0.2-0.1-0.3-0.2
	c-0.1-0.1-0.2-0.1-0.2-0.2c0-0.1-0.1-0.2-0.1-0.3L99.9,62.2z"/>
<path class="st1" d="M73.3,23.7c-0.3,0-0.6,0.3-0.6,0.6c0,0.3,0.3,0.6,0.6,0.6c0.3,0,0.6-0.3,0.6-0.6S73.6,23.7,73.3,23.7
	C73.3,23.7,73.3,23.7,73.3,23.7z"/>
<path class="st1" d="M75.4,15.1c0.4,0,0.8-0.4,0.8-0.8c0-0.4-0.3-0.8-0.8-0.8c-0.4,0-0.8,0.3-0.8,0.8l0,0
	C74.6,14.8,75,15.1,75.4,15.1z M75.4,13.8c0.3,0,0.5,0.2,0.5,0.5c0,0.3-0.2,0.5-0.5,0.5c-0.3,0-0.5-0.2-0.5-0.5
	C74.9,14.1,75.1,13.8,75.4,13.8z"/>
<path class="st1" d="M69.1,23.7c-0.3,0-0.6,0.3-0.6,0.6c0,0.3,0.2,0.6,0.5,0.6c0,0,0,0,0,0c0.3,0,0.6-0.2,0.6-0.5c0,0,0,0,0,0
	C69.6,23.9,69.4,23.7,69.1,23.7z"/>
<path class="st1" d="M71.2,23.7c-0.3,0-0.6,0.3-0.6,0.6c0,0.3,0.3,0.6,0.6,0.6c0.3,0,0.6-0.3,0.6-0.6S71.5,23.7,71.2,23.7
	C71.2,23.7,71.2,23.7,71.2,23.7z"/>
<path class="st1" d="M77.6,24.8c0.3,0,0.6-0.2,0.6-0.5c0,0,0,0,0,0c0-0.3-0.3-0.6-0.6-0.6c-0.3,0-0.6,0.3-0.6,0.6
	C77,24.5,77.3,24.8,77.6,24.8z"/>
<path class="st1" d="M76,24.2c0-0.3-0.3-0.6-0.6-0.6c-0.3,0-0.6,0.3-0.6,0.6l0,0c0,0.3,0.3,0.6,0.6,0.6C75.7,24.8,76,24.5,76,24.2z"
	/>
<path class="st1" d="M78.1,21.9c0.2,0,0.3-0.1,0.3-0.3v0c0-0.2-0.1-0.3-0.3-0.3l0,0c-0.2,0-0.3,0.1-0.3,0.3v0
	C77.8,21.7,77.9,21.9,78.1,21.9C78.1,21.9,78.1,21.9,78.1,21.9z"/>
<path class="st1" d="M81.8,21.9c0.2,0,0.3-0.1,0.3-0.3v0c0-0.2-0.1-0.3-0.3-0.3s-0.3,0.1-0.3,0.3S81.7,21.9,81.8,21.9L81.8,21.9z"/>
<path class="st1" d="M69,21.9c0.2,0,0.3-0.1,0.3-0.3v0c0-0.2-0.2-0.3-0.4-0.3c-0.1,0-0.3,0.1-0.3,0.3C68.7,21.7,68.8,21.9,69,21.9
	C69,21.9,69,21.9,69,21.9z"/>
<path class="st1" d="M79.7,24.8c0.3,0,0.6-0.2,0.6-0.5c0,0,0,0,0,0c0-0.3-0.3-0.6-0.6-0.6c-0.3,0-0.6,0.3-0.6,0.6
	C79.1,24.5,79.3,24.8,79.7,24.8C79.6,24.8,79.6,24.8,79.7,24.8z"/>
<path class="st1" d="M81.8,24.8c0.3,0,0.6-0.2,0.6-0.5c0,0,0,0,0,0c0-0.3-0.3-0.6-0.6-0.6c-0.3,0-0.6,0.3-0.6,0.6
	C81.2,24.5,81.4,24.8,81.8,24.8C81.7,24.8,81.7,24.8,81.8,24.8z"/>
<path class="st1" d="M72.7,21.9c0.2,0,0.3-0.1,0.3-0.3v0c0-0.2-0.1-0.3-0.3-0.3l0,0c-0.2,0-0.3,0.1-0.3,0.3
	C72.4,21.7,72.5,21.9,72.7,21.9z"/>
<g>
	<path class="st2" d="M47.3,63.2h0.5l0.4-1h1.4l0.4,1h0.5L49,59.9h-0.5L47.3,63.2z M49.3,61.8h-1.1l0.5-1.5L49.3,61.8z"/>
	<polygon class="st2" points="58.4,63.2 58.8,63.2 59.6,60.4 60.4,63.2 60.8,63.2 61.7,59.9 61.2,59.9 60.6,62.6 59.8,59.9 
		59.3,59.9 58.6,62.6 58,59.9 57.5,59.9 	"/>
	<path class="st2" d="M70.1,59.9l-1.2,3.2h0.4l0.4-1H71l0.4,1h0.5l-1.3-3.2H70.1z M69.7,61.8l0.5-1.5l0.6,1.5H69.7z"/>
	<path class="st2" d="M81.7,61.4c0.1-0.1,0.1-0.2,0.1-0.2c0-0.1,0.1-0.2,0.1-0.3c0-0.1,0-0.3-0.1-0.4c0-0.1-0.1-0.2-0.2-0.3L81.4,60
		c-0.1,0-0.1,0-0.2,0c-0.1,0-0.2,0-0.2,0h-1.7v3.2h0.4v-1.5h0.8c0.1,0,0.2,0,0.2,0c0.1,0,0.1,0.1,0.2,0.1c0.1,0,0.1,0.1,0.2,0.2
		c0,0.1,0.1,0.1,0.1,0.2l0.3,0.9H82l-0.3-0.9c-0.1-0.3-0.3-0.5-0.5-0.6c0.1,0,0.2-0.1,0.3-0.1C81.5,61.5,81.6,61.5,81.7,61.4z
		 M81.3,61.3c-0.2,0.1-0.4,0.1-0.6,0.1h-1v-1.1h1c0.5,0,0.7,0.2,0.7,0.5C81.4,61,81.4,61.2,81.3,61.3z"/>
	<path class="st2" d="M89.7,63.2h1c0.9,0.1,1.7-0.6,1.8-1.5c0.1-0.9-0.6-1.7-1.5-1.8c-0.1,0-0.2,0-0.3,0h-1V63.2z M90.1,60.3h0.6
		c0.2,0,0.4,0,0.6,0.1c0.1,0.1,0.3,0.1,0.4,0.2c0.1,0.1,0.2,0.2,0.2,0.4c0,0.2,0.1,0.3,0.1,0.5c0,0.2,0,0.4-0.1,0.5
		c0,0.1-0.1,0.3-0.2,0.4c-0.1,0.1-0.2,0.2-0.4,0.2c-0.2,0.1-0.4,0.1-0.6,0.1h-0.6V60.3z"/>
	<path class="st2" d="M101.8,62.7c-0.1,0-0.2,0.1-0.3,0.1c-0.1,0-0.2,0-0.3,0c-0.1,0-0.2,0-0.4,0c-0.1,0-0.2-0.1-0.3-0.1
		c-0.1-0.1-0.2-0.1-0.2-0.2c-0.1-0.1-0.1-0.2-0.1-0.3h-0.4c0,0.2,0,0.3,0.1,0.5c0.1,0.1,0.1,0.3,0.3,0.3c0.1,0.1,0.3,0.2,0.4,0.2
		c0.2,0.1,0.4,0.1,0.6,0.1c0.2,0,0.3,0,0.5-0.1c0.1,0,0.3-0.1,0.4-0.2c0.1-0.1,0.2-0.2,0.3-0.3c0.1-0.1,0.1-0.3,0.1-0.4
		c0-0.1,0-0.2,0-0.3c0-0.1-0.1-0.2-0.1-0.2c-0.1-0.1-0.1-0.1-0.2-0.2c-0.2-0.1-0.4-0.2-0.5-0.2c-0.1,0-0.3-0.1-0.4-0.1l-0.4-0.1
		l-0.2-0.1c-0.1,0-0.1-0.1-0.1-0.1c0-0.1,0-0.1,0-0.2c0-0.1,0.1-0.3,0.2-0.4c0.2-0.1,0.4-0.2,0.6-0.1c0.5,0,0.8,0.2,0.8,0.6h0.4
		c0-0.3-0.1-0.5-0.3-0.7c-0.1-0.1-0.2-0.2-0.4-0.2c-0.2,0-0.3-0.1-0.5-0.1c-0.2,0-0.3,0-0.5,0.1c-0.1,0-0.3,0.1-0.4,0.2
		c-0.1,0.1-0.2,0.2-0.2,0.3c-0.1,0.1-0.1,0.2-0.1,0.3c0,0.1,0,0.2,0.1,0.3c0,0.1,0.1,0.2,0.2,0.2c0.1,0.1,0.2,0.1,0.3,0.2
		c0.2,0.1,0.3,0.1,0.5,0.1l0.5,0.1c0.1,0,0.2,0.1,0.3,0.1c0.1,0,0.1,0.1,0.2,0.2c0,0.1,0,0.1,0,0.2c0,0.1,0,0.2-0.1,0.2
		C102,62.6,101.9,62.7,101.8,62.7z"/>
	<path class="st2" d="M47.9,56.8c0,0-0.1,0.1-0.1,0.1c-0.1,0-0.3,0.1-0.4,0.1c-0.2,0-0.4,0-0.7,0v0.1h6.2v-2.8h-0.1
		c0.1,0.7-0.2,1.4-0.6,2c-0.4,0.5-1.1,0.8-1.7,0.8c-0.4,0-0.7,0-1.1-0.1c0,0-0.1,0-0.1-0.1c0-0.1,0-0.2,0-0.3v-4.7
		c0-0.1,0-0.2,0-0.3c0,0,0.1,0,0.1-0.1c0.1,0,0.3-0.1,0.4-0.1c0.2,0,0.5,0,0.8,0v-0.1h-3.9v0.1c0.3,0,0.5,0,0.7,0l0.4,0.1
		c0.1,0,0.1,0,0.1,0.1c0,0.1,0,0.2,0,0.3v4.7C48,56.6,48,56.7,47.9,56.8z"/>
	<path class="st2" d="M54.8,56.8c0,0-0.1,0.1-0.2,0.1c-0.1,0-0.3,0.1-0.4,0.1c-0.2,0-0.4,0-0.7,0v0.1h3.7v0c-0.4,0-0.8,0-1.1-0.1
		c0,0-0.1-0.1-0.1-0.1c0-0.1,0-0.2,0-0.3v-4.7c0-0.2,0-0.3,0-0.4h0.1c0.1,0,0.3-0.1,0.4-0.1c0.2,0,0.4,0,0.7,0v-0.1h-3.7v0.1
		c0.4,0,0.8,0,1.1,0.1c0.1,0,0.1,0,0.1,0.1c0,0.1,0,0.2,0,0.3v4.7C54.8,56.6,54.8,56.7,54.8,56.8z"/>
	<path class="st2" d="M59.1,56.8c0,0-0.1,0.1-0.2,0.1c-0.1,0-0.3,0.1-0.4,0.1c-0.2,0-0.4,0-0.7,0v0.1h3.9v0c-0.4,0-0.7,0-0.9,0
		c-0.1,0-0.3,0-0.4-0.1c-0.1,0-0.1,0-0.1-0.1c0-0.1,0-0.2,0-0.3V54c0.4-0.1,0.9,0,1.3,0.2c0.3,0.2,0.4,0.7,0.4,1.5h0.1v-3.5H62
		c0,0.6-0.2,1.1-0.5,1.6c-0.4,0.2-0.8,0.2-1.2,0.2v-2.1c0-0.1,0-0.2,0.1-0.4h0.1c0.2,0,0.3-0.1,0.5-0.1c0.2,0,0.5,0,0.9,0
		c0.6,0,1.1,0.3,1.4,0.8c0.2,0.4,0.4,0.9,0.4,1.3h0.1v-2.3h-5.8v0.1c0.2,0,0.5,0,0.7,0l0.4,0.1c0.1,0,0.1,0,0.1,0.1
		c0,0.1,0,0.2,0,0.3v4.7C59.1,56.6,59.1,56.7,59.1,56.8z"/>
	<path class="st2" d="M65.3,56.8c0,0-0.1,0.1-0.1,0.1C64.9,57,64.5,57,64.1,57v0.1h6.1v-2.7h-0.1c0,0.7-0.3,1.4-0.7,2
		c-0.4,0.4-1,0.7-1.6,0.6h-0.7c-0.1,0-0.2,0-0.3-0.1c-0.1,0-0.1-0.1-0.2-0.1c0-0.1,0-0.2,0-0.3V54c0.4-0.1,0.8,0,1.2,0.2
		c0.3,0.4,0.5,1,0.5,1.5h0.1v-3.5h-0.1c0,0.6-0.2,1.1-0.5,1.6c-0.4,0.2-0.8,0.2-1.2,0.2v-2.1c0-0.1,0-0.2,0-0.3c0,0,0.1-0.1,0.1-0.1
		c0.2-0.1,0.4-0.1,0.6-0.1h0.7c0.6,0,1.1,0.3,1.4,0.8c0.2,0.4,0.4,0.9,0.4,1.3h0.1v-2.3h-5.8v0.1c0.3,0,0.5,0,0.7,0
		c0.1,0,0.3,0,0.4,0.1c0.1,0,0.1,0,0.1,0.1c0,0.1,0,0.2,0,0.3v4.7C65.4,56.6,65.4,56.7,65.3,56.8z"/>
	<path class="st2" d="M72.1,51.5c0.3-0.2,0.6-0.2,0.8-0.2c0.5,0,0.9,0.2,1.3,0.5c0.4,0.4,0.6,0.8,0.7,1.3H75v-2l-0.6,0.5
		c-0.2-0.1-0.4-0.2-0.6-0.3c-0.3-0.1-0.7-0.2-1-0.2c-0.5,0-0.9,0.2-1.2,0.5c-0.3,0.3-0.5,0.7-0.5,1.2c0,0.5,0.2,1,0.6,1.2
		c0.4,0.2,0.9,0.4,1.4,0.5c0.5,0.1,0.9,0.3,1.4,0.5c0.4,0.2,0.6,0.6,0.6,1c0,0.3-0.2,0.6-0.4,0.8c-0.2,0.2-0.5,0.3-0.8,0.3
		c-0.5,0-1.1-0.2-1.4-0.5c-0.2-0.2-0.3-0.4-0.4-0.7c-0.2-0.4-0.3-0.8-0.4-1.3h-0.1v2.5l0.6-0.7c0.2,0.2,0.5,0.4,0.8,0.6
		c0.3,0.1,0.7,0.2,1,0.2c0.4,0,0.9-0.1,1.2-0.4c0.4-0.3,0.6-0.9,0.6-1.4c0.1-0.5-0.2-1-0.6-1.4c-0.5-0.2-1-0.4-1.5-0.5
		c-0.5-0.1-0.9-0.2-1.3-0.5c-0.3-0.2-0.5-0.5-0.5-0.8C71.7,51.9,71.8,51.6,72.1,51.5z"/>
	<path class="st2" d="M82,51.2h-5.6v2.6h0.1c0.1-0.7,0.3-1.4,0.7-2c0.3-0.3,0.7-0.5,1.1-0.5h0.2c0,0,0.1,0.1,0.1,0.2v4.9
		c0,0.1,0,0.2,0,0.3c0,0-0.1,0.1-0.1,0.1c-0.1,0-0.3,0.1-0.4,0.1c-0.2,0-0.5,0-0.9,0v0.1h4.1V57c-0.4,0-0.7,0-0.9,0
		c-0.1,0-0.3,0-0.4-0.1c0,0-0.1,0-0.1-0.1c0-0.1,0-0.2,0-0.3v-4.9c0-0.1,0-0.2,0-0.2s0.1,0,0.2,0c0.4,0,0.9,0.1,1.1,0.5
		c0.4,0.6,0.6,1.3,0.7,2H82V51.2z"/>
	<path class="st2" d="M85.4,51.4c0.3-0.1,0.6-0.1,0.9-0.1v-0.1h-3.7v0.1c0.3,0,0.6,0,0.9,0.1c0.2,0.1,0.3,0.2,0.4,0.4l1.7,2.8v1.9
		c0,0.1,0,0.2,0,0.3c0,0-0.1,0.1-0.1,0.1C85.3,56.9,85.2,57,85,57c-0.2,0-0.5,0-0.8,0v0.1h4V57c-0.4,0-0.6,0-0.9,0
		c-0.1,0-0.3,0-0.4-0.1c-0.1,0-0.1,0-0.1-0.1c0-0.1,0-0.2,0-0.3v-2l1.1-1.7l0.6-1c0.2-0.3,0.6-0.5,1-0.5v-0.1h-2.5v0.1
		c0.7,0,1,0.2,1,0.7c0,0.2-0.1,0.4-0.2,0.6l-1,1.7l-1.5-2.5c0-0.1-0.1-0.2-0.1-0.2C85.1,51.5,85.2,51.4,85.4,51.4z"/>
	<path class="st2" d="M91.1,56.8c0,0-0.1,0.1-0.2,0.1c-0.1,0-0.3,0.1-0.4,0.1c-0.2,0-0.4,0-0.7,0v0.1H96v-2.8h-0.1
		c0,0.7-0.2,1.4-0.6,2c-0.5,0.5-1.1,0.7-1.8,0.7c-0.4,0-0.7,0-1.1-0.1c0,0-0.1,0-0.1-0.1c0-0.1,0-0.2,0-0.3v-4.6c0-0.1,0-0.2,0-0.3
		c0,0,0.1,0,0.1-0.1c0.1,0,0.3-0.1,0.4-0.1c0.2,0,0.5,0,0.8,0v-0.1h-3.8v0.1c0.2,0,0.5,0,0.7,0l0.4,0.1c0.1,0,0.1,0,0.1,0.1
		c0,0.1,0,0.2,0,0.3v4.7C91.1,56.6,91.1,56.7,91.1,56.8z"/>
	<path class="st2" d="M97.9,56.8c0,0-0.1,0.1-0.1,0.1C97.4,57,97,57,96.7,57v0.1h6.1v-2.7h-0.1c0,0.7-0.3,1.4-0.7,2
		c-0.4,0.4-1,0.7-1.6,0.6h-0.7c-0.1,0-0.2,0-0.3-0.1c-0.1,0-0.2-0.1-0.2-0.1c0-0.1,0-0.2,0-0.3V54c0.4-0.1,0.8,0,1.2,0.2
		c0.3,0.4,0.5,1,0.5,1.5h0.1v-3.5h-0.1c0,0.6-0.2,1.1-0.5,1.6c-0.4,0.2-0.8,0.2-1.2,0.2v-2.1c0-0.1,0-0.2,0-0.3c0,0,0.1-0.1,0.1-0.1
		c0.2-0.1,0.4-0.1,0.7-0.1h0.7c0.6,0,1.1,0.3,1.4,0.8c0.2,0.4,0.4,0.9,0.4,1.3h0.1v-2.3h-5.8v0.1c0.3,0,0.5,0,0.7,0
		c0.1,0,0.3,0,0.4,0.1c0.1,0,0.1,0,0.1,0.1c0,0.1,0,0.2,0,0.3v4.7C97.9,56.6,97.9,56.7,97.9,56.8z"/>
	<path class="st2" d="M82.9,25v-1.6h-15V25H82.9z M81.8,23.6c0.3,0,0.6,0.3,0.6,0.6c0,0.3-0.3,0.6-0.6,0.6c-0.3,0-0.6-0.3-0.6-0.6
		C81.2,23.9,81.5,23.7,81.8,23.6L81.8,23.6z M79.7,23.6c0.3,0,0.6,0.3,0.6,0.6c0,0.3-0.3,0.6-0.6,0.6c-0.3,0-0.6-0.3-0.6-0.6
		C79.1,23.9,79.4,23.7,79.7,23.6L79.7,23.6z M77.6,23.6c0.3,0,0.6,0.3,0.6,0.6c0,0.3-0.2,0.6-0.5,0.6c0,0,0,0,0,0
		c-0.3,0-0.6-0.2-0.6-0.5C77,23.9,77.3,23.7,77.6,23.6L77.6,23.6z M69.1,24.7c-0.3,0-0.6-0.2-0.6-0.5c0,0,0,0,0,0
		c0-0.3,0.3-0.6,0.6-0.6c0.3,0,0.6,0.2,0.6,0.6C69.7,24.5,69.4,24.8,69.1,24.7C69.1,24.8,69.1,24.8,69.1,24.7L69.1,24.7z M71.2,24.7
		c-0.3,0-0.6-0.2-0.6-0.5c0,0,0,0,0,0c0-0.3,0.3-0.6,0.6-0.6c0.3,0,0.6,0.3,0.6,0.6l0,0C71.8,24.5,71.5,24.7,71.2,24.7
		C71.2,24.8,71.2,24.8,71.2,24.7L71.2,24.7z M73.3,24.7c-0.3,0-0.6-0.2-0.6-0.5c0,0,0,0,0,0c0-0.3,0.3-0.6,0.6-0.6
		c0.3,0,0.6,0.3,0.6,0.6l0,0C73.8,24.5,73.6,24.7,73.3,24.7C73.3,24.8,73.3,24.8,73.3,24.7L73.3,24.7z M74.8,24.2
		c0-0.3,0.3-0.6,0.6-0.6c0.3,0,0.6,0.3,0.6,0.6l0,0c0,0.3-0.3,0.6-0.6,0.6C75.1,24.7,74.8,24.5,74.8,24.2z"/>
	<path class="st2" d="M67.6,25.6c0,0.2,0.1,0.3,0.3,0.3h15c0.2,0,0.3-0.1,0.3-0.3c0-0.2-0.1-0.3-0.3-0.3h-15
		C67.8,25.3,67.6,25.4,67.6,25.6z"/>
	<path class="st2" d="M82.9,22.5h-15c-0.2,0-0.3,0.2-0.3,0.4c0,0.1,0.1,0.2,0.3,0.3h15c0.2,0,0.3-0.2,0.3-0.4
		C83.1,22.6,83,22.5,82.9,22.5z"/>
	<path class="st2" d="M67.6,21.4c0.3,0,0.6-0.3,0.6-0.6c0-0.3-0.3-0.6-0.6-0.6c-0.3,0-0.6,0.3-0.6,0.6c0,0,0,0,0,0
		C67,21.2,67.3,21.4,67.6,21.4z"/>
	<path class="st2" d="M69.6,20.9c0,0.3,0.3,0.6,0.6,0.6c0.3,0,0.6-0.3,0.6-0.6c0-0.3-0.3-0.6-0.6-0.6c0,0,0,0,0,0
		C69.9,20.3,69.6,20.6,69.6,20.9z"/>
	<path class="st2" d="M74.9,20.9c0,0.3,0.2,0.6,0.5,0.6c0,0,0,0,0,0c0.3,0,0.6-0.3,0.6-0.6c0-0.3-0.3-0.6-0.6-0.6
		C75.1,20.3,74.9,20.6,74.9,20.9C74.9,20.9,74.9,20.9,74.9,20.9z"/>
	<path class="st2" d="M73.1,19c0-0.3-0.3-0.6-0.6-0.5c-0.3,0-0.6,0.3-0.5,0.6c0,0.3,0.3,0.5,0.6,0.6C72.9,19.6,73.1,19.3,73.1,19
		C73.1,19,73.1,19,73.1,19z"/>
	<path class="st2" d="M65.3,15.1c0.3,0,0.5-0.2,0.5-0.5s-0.2-0.5-0.5-0.5c-0.3,0-0.5,0.2-0.5,0.5C64.9,14.9,65.1,15.1,65.3,15.1
		L65.3,15.1z"/>
	<path class="st2" d="M67.3,13.3c0.3,0,0.5-0.2,0.5-0.5s-0.2-0.5-0.5-0.5c-0.3,0-0.5,0.2-0.5,0.5C66.8,13,67,13.3,67.3,13.3
		L67.3,13.3z"/>
	<path class="st2" d="M69.8,14.6c0-0.3-0.2-0.5-0.5-0.5s-0.5,0.2-0.5,0.5s0.2,0.5,0.5,0.5c0,0,0,0,0,0
		C69.6,15.1,69.8,14.9,69.8,14.6C69.8,14.6,69.8,14.6,69.8,14.6z"/>
	<path class="st2" d="M70.5,12.9c0.3,0,0.5-0.2,0.5-0.5c0-0.3-0.2-0.5-0.5-0.5S70,12.2,70,12.5l0,0C70,12.7,70.2,12.9,70.5,12.9z"/>
	<path class="st2" d="M72.4,11.7c0.3,0,0.5-0.2,0.5-0.5s-0.2-0.5-0.5-0.5c-0.3,0-0.5,0.2-0.5,0.5C72,11.5,72.2,11.7,72.4,11.7
		L72.4,11.7z"/>
	<path class="st2" d="M74.7,11.6c0,0.4,0.3,0.8,0.7,0.8c0,0,0,0,0,0c0.4,0,0.7-0.4,0.7-0.9c0-0.4-0.3-0.6-0.7-0.7
		C75,10.8,74.7,11.1,74.7,11.6z"/>
	<path class="st2" d="M75.4,14.9c0.3,0,0.5-0.2,0.5-0.5c0-0.3-0.2-0.5-0.5-0.5c-0.3,0-0.5,0.2-0.5,0.5
		C74.9,14.7,75.1,14.9,75.4,14.9z"/>
	<path class="st2" d="M75.4,10.6c0.1-0.6,0.5-1.1,1-1.4c-0.5-0.3-0.9-0.8-1-1.4c-0.1,0.6-0.5,1.1-1,1.4C74.9,9.5,75.3,10,75.4,10.6z
		"/>
	<path class="st2" d="M66.5,18.3l0.4-0.6c-1.7-2.6,0.1-4.1,2.6-4.6l0.1-0.1c-0.6-0.1-1.1,0-1.7,0.1c-0.1,0.3-0.4,0.5-0.7,0.5
		c-0.1,0-0.3,0-0.4-0.1c-0.4,0.2-0.7,0.4-1,0.6c0.2,0.2,0.2,0.4,0.2,0.6c0,0.5-0.4,0.8-0.8,0.8c-0.1,0-0.2,0-0.3-0.1
		c-0.2,0.5-0.2,1.1-0.1,1.7C65.5,17.3,66.1,17.7,66.5,18.3z"/>
	<path class="st2" d="M67.8,22.1H83c0-0.1,0-0.2-0.1-0.3c-0.2-0.1-0.3-0.1-0.4-0.2c-0.1-0.1-0.2-0.3-0.3-0.5
		c-0.2-0.1-0.5-0.2-0.7-0.2l0,0c0,0.5-0.4,0.9-0.9,0.9c-0.5,0-0.9-0.4-0.9-0.9l0,0c-0.8,0-1.4-0.1-1.5-1c-0.3,0.8-1.2,1.2-2,1
		c0,0.5-0.4,0.8-0.9,0.8c-0.5,0-0.8-0.4-0.8-0.8c-0.8,0.2-1.7-0.2-2-1c-0.2,0.8-0.8,1-1.5,1l0,0c-0.1,0.5-0.5,0.8-1,0.8
		c-0.4,0-0.7-0.4-0.8-0.8l0,0c-0.3,0-0.5,0.1-0.7,0.2c0,0.2-0.1,0.4-0.3,0.5c-0.1,0.1-0.3,0.2-0.4,0.2C67.8,21.9,67.8,22,67.8,22.1z
		 M81.8,21.2c0.2,0,0.3,0.1,0.3,0.3v0c0,0.2-0.1,0.3-0.3,0.3s-0.3-0.1-0.3-0.3l0,0C81.5,21.4,81.7,21.2,81.8,21.2L81.8,21.2z
		 M78.1,21.2c0.2,0,0.3,0.1,0.3,0.3v0c0,0.2-0.1,0.3-0.3,0.3l0,0c-0.2,0-0.3-0.1-0.3-0.3c0,0,0,0,0,0C77.8,21.4,77.9,21.2,78.1,21.2
		C78.1,21.2,78.1,21.2,78.1,21.2z M72.7,21.2c0.2,0,0.3,0.1,0.3,0.3v0c0,0.2-0.1,0.3-0.3,0.3l0,0c-0.2,0-0.3-0.1-0.3-0.3
		C72.4,21.4,72.5,21.2,72.7,21.2z M69,21.2c0.2,0,0.3,0.1,0.3,0.3v0c0,0.2-0.2,0.3-0.4,0.3c-0.1,0-0.3-0.1-0.3-0.3
		C68.6,21.4,68.8,21.2,69,21.2C69,21.2,69,21.2,69,21.2L69,21.2z"/>
	<path class="st2" d="M83.8,20.9c0-0.3-0.2-0.6-0.5-0.6c0,0,0,0,0,0c-0.3,0-0.6,0.3-0.6,0.6c0,0.3,0.3,0.6,0.6,0.6
		C83.6,21.4,83.8,21.2,83.8,20.9C83.8,20.9,83.8,20.9,83.8,20.9z"/>
	<path class="st2" d="M80.1,20.9c0,0.3,0.3,0.6,0.6,0.6c0.3,0,0.6-0.3,0.6-0.6c0-0.3-0.3-0.6-0.6-0.6l0,0
		C80.3,20.3,80.1,20.6,80.1,20.9z"/>
	<path class="st2" d="M78.3,19.6c0.3,0,0.5-0.3,0.5-0.6c0-0.3-0.2-0.5-0.5-0.5c-0.3,0-0.6,0.2-0.6,0.5c0,0.3,0.2,0.6,0.5,0.6
		C78.2,19.6,78.2,19.6,78.3,19.6z"/>
	<path class="st2" d="M85.5,15.1c0.3,0,0.5-0.2,0.5-0.5c0-0.3-0.2-0.5-0.5-0.5c-0.3,0-0.5,0.2-0.5,0.5C85,14.9,85.2,15.1,85.5,15.1z
		"/>
	<path class="st2" d="M83.5,13.3c0.3,0,0.5-0.2,0.5-0.5c0-0.3-0.2-0.5-0.5-0.5c-0.3,0-0.5,0.2-0.5,0.5c0,0,0,0,0,0
		C83.1,13,83.3,13.2,83.5,13.3z"/>
	<path class="st2" d="M81,14.6c0,0.3,0.2,0.5,0.5,0.5c0.3,0,0.5-0.2,0.5-0.5c0-0.3-0.2-0.5-0.5-0.5S81,14.3,81,14.6
		C81,14.6,81,14.6,81,14.6z"/>
	<path class="st2" d="M80.3,12.9c0.3,0,0.5-0.2,0.5-0.5c0,0,0,0,0,0c0-0.3-0.2-0.5-0.4-0.5c0,0,0,0,0,0c-0.3,0-0.5,0.2-0.5,0.5
		c0,0,0,0,0,0C79.9,12.7,80.1,12.9,80.3,12.9z"/>
	<path class="st2" d="M78.4,11.7c0.3,0,0.5-0.2,0.5-0.5c0-0.3-0.2-0.5-0.5-0.5c-0.3,0-0.5,0.2-0.5,0.5
		C77.9,11.5,78.1,11.7,78.4,11.7z"/>
	<path class="st2" d="M86,17.5c-0.8,0.3-1.5,1-1.7,1.9c0-0.5-0.2-0.7-0.5-0.8c0.1,0.5,0,1.1-0.2,1.6c0.2,0.1,0.3,0.1,0.4,0.3
		L86,17.5z"/>
	<path class="st2" d="M83.9,17.7l0.4,0.6c0.4-0.6,1-1.1,1.7-1.3c0.1-0.6,0-1.1-0.2-1.7c-0.1,0-0.2,0.1-0.3,0.1
		c-0.4,0-0.8-0.4-0.8-0.8c0-0.2,0.1-0.4,0.2-0.6c-0.3-0.3-0.6-0.5-1-0.6c-0.4,0.2-0.8,0.1-1-0.3c0,0,0-0.1-0.1-0.1
		c-0.5-0.1-1.1-0.1-1.7-0.1l0.1,0.1C83.8,13.6,85.6,15.1,83.9,17.7z"/>
	<path class="st2" d="M73.4,18.4c0.7,1,0.6,1.6,1.4,2c0.2-0.2,0.4-0.4,0.7-0.4c0.3,0,0.5,0.1,0.7,0.4c0.8-0.4,0.6-1,1.4-2
		c-0.5-0.1-0.8-0.1-1.5,0.6c0.6-1.9-0.4-1.7-0.6-2.5c-0.2,0.8-1.2,0.6-0.6,2.5C74.1,18.2,73.9,18.3,73.4,18.4z"/>
	<path class="st2" d="M66.6,19.3c-0.3-0.8-0.9-1.5-1.7-1.9l2.1,2.9c0.1-0.1,0.2-0.2,0.4-0.3c-0.2-0.5-0.3-1-0.2-1.6
		C66.8,18.6,66.6,18.9,66.6,19.3z"/>
	<path class="st2" d="M68.1,18.4c0.7,0.9,0.7,1.6,1.4,2c0.3-0.3,0.8-0.4,1.1-0.2c0.1,0,0.1,0.1,0.2,0.2c0.6-0.4,0.4-1,0.8-1.9
		c-0.4-0.1-0.7-0.1-1.2,0.6c0.3-1.9-0.5-1.7-0.8-2.5l0,0c0,0.8-1,0.6-0.2,2.5C68.8,18.3,68.6,18.3,68.1,18.4z"/>
	<path class="st2" d="M79.2,18.4c0.5,0.9,0.3,1.5,0.8,1.9c0.3-0.4,0.8-0.4,1.1-0.1c0.1,0,0.1,0.1,0.1,0.1c0.7-0.4,0.6-1,1.4-2
		c-0.4-0.1-0.6-0.1-1.3,0.6c0.8-1.9-0.1-1.7-0.2-2.5c-0.3,0.8-1.1,0.6-0.8,2.5C79.8,18.3,79.6,18.3,79.2,18.4z"/>
	<path class="st2" d="M70.1,14.6c0,0.4-0.4,0.8-0.8,0.8c-0.2,0-0.4-0.1-0.5-0.2c-0.2,0.7-0.3,1.4-0.2,2.1c0,0.3,0,0.6,0.1,0.8
		c0.1,0,0.2,0.1,0.3,0.1c-0.2-0.5-0.1-1.1,0.2-1.5c0.3-0.3,0.4-0.7,0.3-1.1c0.1,0.4,0.3,0.8,0.6,1.1c0.4,0.4,0.6,1,0.6,1.5
		c0.1-0.1,0.2-0.1,0.3-0.2c0-0.2-0.1-0.4-0.1-0.7c-0.7-2.9,0.3-5.6,3.2-5.3c0.2,0,0.7,0.1,0.6,0.4c-0.2,1.7-0.4,3.3-0.6,5
		c0,0.2,0,0.3-0.1,0.5c0.1,0,0.2,0.1,0.3,0.2c-0.2-0.6,0-1.2,0.4-1.5c0.2-0.2,0.4-0.5,0.5-0.8c0.1,0.3,0.3,0.6,0.5,0.8
		c0.4,0.4,0.6,1,0.4,1.5c0.1-0.1,0.2-0.1,0.3-0.2c0-0.2,0-0.3,0-0.5c-0.2-1.7-0.4-3.3-0.6-5c0-0.1,0-0.2,0.1-0.3
		c0.1-0.1,0.3-0.2,0.5-0.2c2.8-0.3,3.8,2.3,3.1,5.3c0,0.2-0.1,0.5-0.1,0.7c0.1,0,0.2,0.1,0.3,0.2c0-0.6,0.2-1.1,0.6-1.5
		c0.3-0.3,0.5-0.7,0.6-1.1c0,0.4,0.1,0.8,0.4,1.1c0.3,0.4,0.4,1,0.2,1.5c0.1,0,0.2-0.1,0.3-0.1c0.1-0.3,0.1-0.6,0.1-0.8
		c0-0.7-0.1-1.4-0.3-2.1c-0.3,0.3-0.8,0.3-1.1,0c-0.1-0.1-0.2-0.3-0.2-0.5c0-0.4,0.4-0.8,0.8-0.8c-0.2-0.3-0.4-0.6-0.6-0.8
		c-0.1,0.2-0.3,0.2-0.6,0.2c-0.4,0-0.8-0.3-0.8-0.8c0-0.2,0.1-0.3,0.2-0.5c-0.3-0.1-0.5-0.2-0.8-0.3c-0.1,0.1-0.3,0.2-0.5,0.2
		c-0.2,0-0.4-0.1-0.5-0.2c-0.5,0.1-1,0.2-1.4,0.4l-0.2,0.1l0,0L76,12.3l0,0H76l0,0l0,0h-0.1h-0.1h-0.1c-0.1,0-0.2,0-0.4,0H75
		l-0.3-0.1l-0.2-0.1c-0.5-0.2-1-0.3-1.6-0.4c-0.1,0.2-0.3,0.3-0.5,0.2c-0.2,0-0.4-0.1-0.5-0.2c-0.3,0.1-0.6,0.1-0.8,0.3
		c0.1,0.1,0.1,0.3,0.1,0.4c0,0.4-0.3,0.8-0.8,0.8c-0.2,0-0.4-0.1-0.6-0.2c-0.2,0.3-0.4,0.5-0.6,0.8C69.8,13.8,70.1,14.2,70.1,14.6z
		 M75.4,13.6c0.4,0,0.8,0.4,0.8,0.8c0,0.4-0.3,0.8-0.8,0.8c-0.4,0-0.8-0.3-0.8-0.8C74.6,14,75,13.6,75.4,13.6L75.4,13.6z"/>
</g>
<g>
	<path class="st3" d="M131.4,29c-0.9-0.1-1.9,0.1-2.7,0.5c-2.2,1.1-3.8,4.1-5.1,6c-2.5,3.9-5,8.3-8.3,10.7c-0.6,0.4-1.2,0.7-1.9,0.8
		c-0.6,0-0.7-0.4-0.7-1c-0.1-3.5,2.8-8,4.8-10.9c1.3-1.9,2.7-3.7,4.2-5.5c0.2-0.2,0.2-0.4-0.1-0.4c-1.9,0-3.8,1-5.7,2.9
		c-1.4,1.4-2.5,2.9-3.5,4.6c-0.5,0.8-1,1.7-1.4,2.6c-0.1,0.3-0.2,0.5-0.3,0.8l-0.1,0.1l0,0l-0.3,0.4c-2.9,3.7-5,5.4-6.4,6
		c-0.8,0.3-1.8,0.5-1.9-0.6c0-0.7,0.1-1.4,0.4-2c0.8-1.5,1.7-3,2.8-4.3c1.9-2.7,3.7-6,2.5-8.2c-0.6-1.2-2.9-1.9-4-2.6
		c-1.4-0.9,1.9-2.8,4.1-4.8c0.4-0.3,0.3-0.5-0.3-0.7c-4.7-0.2-6.1,3.5-5.5,5.1c-1.1,2-2.3,4.1-3.7,6.3c-2.4,3.8-5.5,9.5-9.3,11.8
		c-0.8,0.5-1.6,0.7-2-0.1c-0.6-1.2,0.4-3.8,1.8-6.5c1.8-3.6,3.9-7.1,6.2-10.4c0.2-0.4,0.4-0.6-0.4-0.6c-2.6,0-4.8,2.7-7.6,7.1
		c-1,1.7-2,3.5-3.4,5.6c-1,1.8-2.4,3.3-4,4.6c-0.6,0.4-1.2,0.7-1.9,0.8c-1.4,0.1-0.8-2.3-0.1-4.2c2-4.8,4.8-9.2,8.3-13
		c0.5-0.5,0.1-0.5-0.3-0.5c-2,0.3-3.9,1.3-5.3,2.9c-1.4,1.4-2.5,2.9-3.5,4.6c-0.7,1.1-1.3,2.3-1.7,3.5c-2.5,3.5-4.7,5.6-6.2,6.2
		c-2.5,0.9-2.9-1-2.6-3.3c0.4-2.8,1.5-5.4,3.3-7.7c2.4-3.2,4.8-5.2,7.8-4.6c0.3,0,0.6,0.2,0.3-0.4c-1-2.1-4.2-3.5-9.6,5.5
		c3.3-5.5-1.3-10.2-5.9-4.9c-1.8,2.3-3.5,4.8-5,7.4c-1.7,2.7-3.7,5.2-6,7.4c-1,0.9-2.4,1.7-3,0.6s0.4-3.8,1.7-6.5
		c1.8-3.5,3.8-7,6.1-10.2c0.5-0.8,0.4-0.8-0.4-0.8c-2.5,0.2-4.7,2.8-7.4,7.1c-1,1.7-2,3.5-3.4,5.6c-1,1.8-2.4,3.3-4,4.6
		c-0.6,0.4-1.2,0.7-1.9,0.8c-0.5,0-0.8-0.3-0.8-0.9c-0.1-2,1.1-4.1,1.9-5.8c1.8-3.7,4.2-7.1,7-10.2c0.5-0.6,0.4-0.7-0.2-0.7
		c-2,0.3-3.9,1.3-5.3,2.9c-2.2,2.2-3.9,4.8-5.1,7.7c-0.4,1-0.6,1.9-0.8,2.9C35.4,46.1,37,48.2,39,48s3.8-1.9,6.7-5.4
		c-0.3,4.7,2,7.2,5.9,4.1c2.7-2.4,5.1-5.1,7-8.2c1.2-1.8,2.2-3.5,3.5-5.2s3.2-3.9,4.4-2.7c0.4,0.6,0.6,1.2,0.5,1.9
		c0,3.5-3.7,9.4-7,12.3c-1,0.9-2.3,1.4-3.7,1.2c-0.8-0.1-1.5-0.4-2.2-0.8C54,45.1,54,45.3,54,45.5c0.1,0.7,0.5,1.4,1.1,1.9
		c0.4,0.4,0.9,0.6,1.5,0.7c2.6,0.3,5.6-3.6,7.7-6.8c-1.5,5.4,0.6,7,2.8,7c1.8,0,4.4-2.1,7.5-5.4c-0.4,3.4,1.2,5.5,3.2,5.3
		s3.8-1.9,6.7-5.4c-0.3,4.2,1.5,6.6,4.7,4.9c4-2.2,7.3-7.5,9.8-11.3c1.5-2.2,2.7-4.5,3.8-6.9c0.9,0.5,1.7,0.9,2.4,1.3
		s0.9,0.8,0.5,1.8c-0.2,0.5-0.5,1-0.9,1.4c-0.9,1.2-1.9,2.3-2.7,3.6c-0.9,1.2-1.6,2.6-2,4.1c-0.5,2-0.6,4.4,0.8,5.8
		c0.9,0.9,2.2,1.1,3.4,0.7c2.1-0.8,4.1-3.6,5.7-5h0.1c-0.3,3.3,1.2,5.4,3.2,5.1s3.9-1.9,6.9-5.5c0,0.1-0.2,0.3-0.2,0.4
		c-3.6,6.6-7.8,12.9-12.5,18.8c-8.4,10.4-16.7,15-29.2,19.5c-1,0.4-2,0.7-3,1c-8.2,2.1-17.5,3-23.9,0.3c-7.1-3-12.3-13.5,0.5-13
		c7.9,0.3,17.7,2.6,25.7,3.8c4.2,0.7,17.3,1.8,15.4-4.9c-0.2-0.5-0.5-0.9-0.8-1.3c-1.1-1.1-0.9-0.3-0.6,0.3c1.1,3.3-2,6.6-15.2,4.9
		c-7-0.9-24.8-6.8-31-4.2c-8.8,3.6,0.4,13.2,6.4,15.5c6.6,2.6,16.5,2.1,25.3-0.2l0,0l1.2-0.4c12.9-4.2,22.7-10.2,31.4-20.4
		c5.5-6.5,10.3-13.6,14.3-21.1c0.7-1.2,1.3-2.5,2-3.7c1.5-2.9,3.3-5.6,5.2-8.2C131.6,29.2,131.8,29.1,131.4,29z"/>
	<path class="st3" d="M42.3,53.2c0.3-0.5,1.2-2.7,0.1-1.7c-7.3,5.9-12.1-0.1-26.2-2.4c9-4.2,13-11.5,18.2-21.9
		c3.1-6.3,6.5-15,12.3-18.8c1.8-1.1,3.9-1.5,5.9-1.3c3.7,0,5.4,1.6,7.9,4.1c0.9,0.9,1.1,0.1,0.4-0.6c-0.4-0.4-0.7-0.9-1-1.2
		C58,7.5,57,6.3,53.7,6c-12.5-1.4-19,12-23.4,20.7c-2,4-3.6,7.4-5.3,10.5c-2.6,4.8-5.5,8.6-10.5,11.3c-0.6-0.2-1.8-0.4-2.5-0.6
		C7.3,47-0.6,46,0,48.3c0.9,3.4,11.3,1.7,14.8,1.3c3.9,0.9,14.8,7.4,22.1,6.7C39.1,56.1,41.1,55,42.3,53.2z"/>
	<path class="st4" d="M24.4,58.4h82.7v0.2H24.4V58.4z M114.8,58.4h6.3v0.2h-6.3V58.4z"/>
	<rect x="143.3" y="0" class="st3" width="0.5" height="91.2"/>
	<path class="st3" d="M163.9,33.2c-0.1,1,0.1,2,0.5,2.8c0.4,0.5,0.9,0.7,3.1,0.7c2.7,0,3.5-0.1,5.3-3.5c0.2-0.3,0.9-0.2,1.1,0.2
		c-0.2,1.6-0.6,3.3-1.3,4.8c-1.6-0.1-4.4-0.1-6.9-0.1h-4c-1.4,0-2.9,0-4.7,0.1c-0.2-0.3-0.3-0.7-0.1-1l1.1-0.2
		c1.3-0.2,1.5-0.4,1.5-3.2v-11c0-2.8-0.2-3-1.5-3.2l-0.9-0.1c-0.3-0.3-0.3-0.7,0-0.9c0,0,0,0,0.1-0.1c1.5,0.1,3,0.1,4.4,0.1
		s2.9,0,4.4-0.1c0.2,0.3,0.2,0.7,0,1l-0.8,0.1c-1.3,0.2-1.5,0.5-1.5,3.2L163.9,33.2z"/>
	<path class="st3" d="M176.2,22.9c0-2.8-0.2-2.9-1.5-3.2l-0.7-0.1c-0.3-0.3-0.2-0.7,0-1c0,0,0,0,0,0c1.4,0.1,2.9,0.1,4.3,0.1
		s2.9,0,4.3-0.1c0.2,0.3,0.2,0.7,0,1l-0.7,0.1c-1.3,0.2-1.5,0.5-1.5,3.2v6.9c0,3.5,0.4,7.3,4.9,7.3c3.8,0,5-3.3,5-7.4V26
		c0.1-1.8-0.1-3.6-0.4-5.4c-0.3-0.6-0.9-0.8-1.7-1l-0.8-0.1c-0.2-0.3-0.2-0.7,0-1c1.6,0.1,2.8,0.1,4,0.1s2.2,0,3.3-0.1
		c0.2,0.3,0.2,0.7,0,1l-0.5,0.1c-0.8,0.2-1.3,0.4-1.6,1c-0.4,1.8-0.5,3.6-0.4,5.4v3.3c0,2.8-0.3,5.3-1.9,7.1
		c-1.6,1.5-3.7,2.3-5.9,2.1c-2.1,0.2-4.2-0.4-6-1.6c-1.5-1.3-2.2-3.5-2.2-6.7V22.9z"/>
	<path class="st3" d="M196.4,37.2c1.8-0.2,2.5-1,3.4-2.3c0.9-1.1,2.5-3.4,3.7-5.3c0.2-0.3,0.3-0.6,0.4-0.9c-0.1-0.4-0.3-0.7-0.5-1
		c-1-1.5-2.9-4.4-4.2-6.4c-0.6-0.9-1.6-1.5-2.6-1.6l-0.5-0.1c-0.3-0.3-0.3-0.7,0-1c0.9,0.1,2.8,0.1,4.6,0.1c2.4,0,3.6,0,4.5-0.1
		c0.3,0.1,0.3,0.8,0.1,1l-0.7,0.1c-0.5,0.1-1,0.2-1,0.5c0.1,0.4,0.2,0.8,0.5,1.1c0.8,1.4,1.9,3,2.8,4.4c1.1-1.7,2.1-3.1,3-4.7
		c0.2-0.3,0.3-0.6,0.3-0.9c0-0.1-0.2-0.2-0.6-0.3l-1.2-0.2c-0.2-0.2-0.2-0.9,0.1-1c0.9,0.1,1.9,0.1,3.3,0.1s2.6,0,3.6-0.1
		c0.3,0.1,0.3,0.8,0.1,1l-1.2,0.2c-0.6,0-1.2,0.3-1.7,0.7c-1.5,1.7-2.9,3.5-4.1,5.3c-0.3,0.3-0.5,0.6-0.6,1c0.1,0.3,0.2,0.7,0.4,0.9
		c2.2,3.4,3.7,5.6,4.7,7.3s1.8,2,2.9,2.1l0.9,0.1c0.2,0.3,0.2,0.7-0.1,1c-1.3-0.1-2.2-0.1-4.6-0.1c-2,0-3.4,0-5,0.1
		c-0.3-0.1-0.4-0.9-0.1-1l0.8-0.1c0.7-0.1,1.1-0.2,1.1-0.4s-0.1-0.5-0.9-1.8c-0.4-0.8-2.7-4.3-3.1-4.8c-1.3,1.9-2.5,3.8-3.5,5.8
		c-0.1,0.2-0.2,0.5-0.3,0.8c0,0.2,0.3,0.3,0.9,0.4l0.8,0.1c0.3,0.2,0.2,0.9-0.1,1c-1.3-0.1-2.6-0.1-3.9-0.1c-1,0-2.2,0-3.1,0.1
		c-0.3-0.2-0.4-0.8-0.1-1L196.4,37.2z"/>
	<path class="st3" d="M219.6,22.9c0-2.8-0.2-2.9-1.5-3.2l-0.7-0.1c-0.3-0.3-0.2-0.7,0-1c0,0,0,0,0,0c1.4,0.1,2.9,0.1,4.3,0.1
		s2.9,0,4.3-0.1c0.2,0.3,0.2,0.7,0,1l-0.7,0.1c-1.3,0.2-1.5,0.5-1.5,3.2v6.9c0,3.5,0.4,7.3,4.9,7.3c3.8,0,4.9-3.3,4.9-7.4V26
		c0.1-1.8-0.1-3.6-0.4-5.4c-0.3-0.6-0.9-0.8-1.7-1l-0.8-0.1c-0.2-0.3-0.2-0.7,0-1c1.6,0.1,2.8,0.1,4,0.1s2.2,0,3.3-0.1
		c0.2,0.3,0.2,0.7,0,1l-0.5,0.1c-0.8,0.2-1.3,0.4-1.6,1c-0.4,1.8-0.5,3.6-0.4,5.4v3.3c0,2.8-0.3,5.3-1.9,7.1
		c-1.6,1.5-3.7,2.3-5.9,2.1c-2.1,0.2-4.2-0.4-5.9-1.6c-1.6-1.3-2.2-3.5-2.2-6.7V22.9z"/>
	<path class="st3" d="M242.1,23.4c0-3-0.1-3.3-1.3-3.5l-0.8-0.1c-0.3-0.3-0.3-0.7,0-0.9c0,0,0,0,0.1-0.1c2.2-0.1,4.5-0.3,7.4-0.3
		c2-0.1,4,0.2,5.8,1.1c1.6,0.9,2.6,2.6,2.6,4.4c0,2.6-1.8,3.8-3.1,4.5c-0.3,0.1-0.3,0.3-0.1,0.6c1.9,4,3.2,6.2,4.6,7.4
		c0.6,0.5,1.3,0.8,2,0.8c0.2,0.2,0.3,0.5,0.1,0.8c-0.8,0.2-1.6,0.3-2.3,0.3c-2.4,0.2-4.6-1-5.8-3.1c-0.9-1.5-1.7-3-2.3-4.6
		c-0.2-0.7-0.9-1.1-1.6-1c-1,0-1.1,0.1-1.1,0.7V34c0,2.7,0.2,2.9,1.5,3.2l0.8,0.2c0.2,0.3,0.2,0.7,0,1c-1.6-0.1-2.9-0.1-4.4-0.1
		s-2.8,0-4.3,0.1c-0.2-0.3-0.2-0.7,0-1l0.8-0.2c1.3-0.2,1.5-0.4,1.5-3.2L242.1,23.4z M246.2,27.2c0,1,0.1,1.1,1.8,1.1
		c0.8,0.1,1.7-0.2,2.3-0.8c0.8-0.9,1.2-2,1.1-3.2c0-2.7-1.6-4.4-3.9-4.4c-1.2,0-1.3,0.1-1.3,1.5L246.2,27.2z"/>
	<path class="st3" d="M268.8,33.9c0,2.8,0.2,3,1.5,3.2l1.2,0.2c0.2,0.3,0.2,0.7,0,1c-1.9-0.1-3.4-0.1-4.8-0.1s-2.9,0-4.6,0.1
		c-0.2-0.3-0.2-0.7,0-1l1-0.2c1.3-0.2,1.5-0.4,1.5-3.2v-1.5c0.1-1.2-0.2-2.5-0.8-3.5l-3.5-7.3c-0.6-1.2-0.9-1.7-1.9-1.9l-1-0.2
		c-0.3-0.2-0.2-0.9,0.1-1c1.3,0.1,2.4,0.1,4.2,0.1s3.3,0,4.3-0.1c0.3,0.1,0.3,0.8,0.1,1l-1,0.2c-0.5,0.1-0.7,0.2-0.7,0.3
		c0.2,0.7,0.4,1.4,0.8,2.1l1.4,3.2c0.5,1,1.1,2.3,1.5,3.1c0.9-1.5,1.8-3.4,2.5-4.9c0.6-1,1.1-2.2,1.4-3.4c0-0.2-0.5-0.4-1.2-0.5
		l-0.6-0.1c-0.2-0.1-0.3-0.9,0-1c1.2,0.1,2.2,0.1,3.3,0.1s2,0,2.9-0.1c0.4,0.1,0.4,0.8,0.1,1l-0.8,0.1c-0.6,0.1-1.1,0.3-1.5,0.7
		c-1,1.3-1.8,2.7-2.6,4.2l-1.9,3.4c-0.7,1.1-1.1,2.5-1,3.8L268.8,33.9z"/>
	<path class="st3" d="M289.7,33.2c-0.1,1,0.1,1.9,0.5,2.8c0.4,0.5,0.9,0.7,3.1,0.7c2.7,0,3.5-0.1,5.3-3.5c0.3-0.3,0.8-0.2,1.1,0.1
		c0,0,0,0,0,0c-0.2,1.6-0.6,3.3-1.3,4.8c-1.6-0.1-4.4-0.1-6.9-0.1h-4c-1.4,0-2.9,0-4.7,0.1c-0.3-0.3-0.3-0.7-0.1-1l1.1-0.2
		c1.3-0.2,1.5-0.4,1.5-3.2v-11c0-2.8-0.2-3-1.5-3.2l-0.9-0.1c-0.3-0.3-0.3-0.7,0-0.9c0,0,0,0,0.1-0.1c1.5,0.1,3,0.1,4.5,0.1
		s2.9,0,4.4-0.1c0.2,0.3,0.2,0.7,0,1l-0.8,0.1c-1.3,0.2-1.5,0.5-1.5,3.2L289.7,33.2z"/>
	<path class="st3" d="M307.4,33.8c0,2.8,0.2,3,1.5,3.2l0.8,0.2c0.2,0.3,0.2,0.7,0,1c-1.6-0.1-3-0.1-4.4-0.1s-2.9,0-4.5,0.1
		c-0.2-0.3-0.2-0.7,0-1l0.8-0.2c1.4-0.2,1.5-0.4,1.5-3.2V22.9c0-2.8-0.2-3-1.5-3.2l-0.8-0.1c-0.2-0.3-0.2-0.7,0-1
		c1.6,0.1,3.1,0.1,4.5,0.1s2.9,0,4.5-0.1c0.2,0.3,0.2,0.7,0,1l-0.8,0.1c-1.4,0.2-1.5,0.5-1.5,3.2L307.4,33.8z"/>
	<path class="st3" d="M318.6,26.5c0,0.8,0,0.9,0.8,0.9h2.3c1.6,0,1.9-0.2,2.2-1.7l0.1-0.7c0.3-0.3,0.8-0.3,1.1,0
		c-0.1,1-0.1,2-0.1,3.2s0,2.2,0.1,3.1c-0.3,0.3-0.8,0.3-1.1,0l-0.1-0.7c-0.3-1.4-0.6-1.7-2.2-1.7h-2.3c-0.8,0-0.8,0.1-0.8,0.9v4
		c0,2.8,0.2,3,1.5,3.2l1.1,0.2c0.2,0.3,0.2,0.7,0,1c-1.8-0.1-3.3-0.1-4.7-0.1s-2.9,0-4.6,0.1c-0.2-0.3-0.2-0.7,0-1l1-0.2
		c1.3-0.2,1.5-0.4,1.5-3.2v-11c0-2.8-0.2-3-1.5-3.2l-0.6-0.1c-0.3-0.2-0.3-0.9,0.1-1c1.3,0.1,2.8,0.1,4.2,0.1h6.2c1.9,0,3.6,0,4-0.1
		c0,0.5,0,2.6,0.1,4.6c-0.1,0.3-0.8,0.4-1.1,0.1c-0.2-0.8-0.4-1.6-0.9-2.3c-0.8-0.8-1.8-1.1-2.9-1h-2.3c-1,0-1,0.1-1,1.2L318.6,26.5
		z"/>
	<path class="st3" d="M335.1,26.3c0,0.8,0,0.9,0.8,0.9h2c1.5,0,1.9-0.2,2.2-1.6l0.1-0.7c0.2-0.2,1-0.2,1.1,0c-0.1,1-0.1,2-0.1,3.1
		s0,2.2,0.1,3.1c-0.3,0.3-0.8,0.3-1.1,0l-0.1-0.7c-0.3-1.4-0.6-1.7-2.2-1.7h-2c-0.8,0-0.8,0-0.8,0.9v3.6c-0.1,1,0.1,1.9,0.5,2.8
		c0.4,0.5,0.9,0.8,3.1,0.8c2.6,0,3.6-0.1,5.2-3.4c0.3-0.3,0.7-0.3,1,0c0,0,0.1,0.1,0.1,0.1c-0.2,1.6-0.6,3.2-1.2,4.7
		c-1.6-0.1-4.4-0.1-6.9-0.1h-3.9c-1.4,0-2.9,0-5.1,0.1c-0.2-0.3-0.2-0.7,0-1l1.4-0.2c1.3-0.2,1.5-0.4,1.5-3.1V22.8
		c0-2.7-0.2-2.9-1.5-3.1l-0.7-0.1c-0.2-0.3-0.2-0.7,0.1-1c1.4,0.1,2.8,0.1,4.3,0.1h6.3c1.9,0,3.6,0,4-0.1c0,0.5,0.2,2.6,0.4,4.6
		c-0.1,0.3-0.8,0.4-1.1,0.1c-0.2-0.8-0.6-1.6-1.1-2.3c-0.8-0.7-1.9-1-2.9-0.9h-2.4c-1,0-1,0.1-1,1.2L335.1,26.3z"/>
	<path class="st3" d="M352.4,38.6c-1.7,0-3.5-0.3-5-1.1c-0.6-0.7-1-2.8-1-4.8c0.2-0.3,0.7-0.4,1-0.2c0,0,0.1,0.1,0.1,0.1
		c0.6,1.9,2.6,4.7,5.1,4.7c1.7,0.1,3.1-1.1,3.2-2.8c0-0.1,0-0.1,0-0.2c0-2.4-2.2-3.8-4-4.7c-2.1-1.1-4.5-2.8-4.5-5.8
		c0-3.4,2.6-5.7,6.9-5.7c1.1,0,2.3,0.2,3.4,0.5c0.3,0.1,0.7,0.2,1,0.2c0.4,1.4,0.6,2.8,0.5,4.2c-0.1,0.4-0.9,0.4-1.2,0.1
		c-0.5-1.5-1.8-3.7-3.9-3.7c-1.5-0.1-2.9,1-3,2.5c0,0.1,0,0.2,0,0.3c0,1.4,1.2,2.6,2.7,3.4l2,1c1.8,1,4.2,2.7,4.2,6
		C359.9,36.3,356.9,38.6,352.4,38.6z"/>
	<path class="st3" d="M368.4,20.8c0-0.7,0-0.9-0.7-0.9h-1.8c-2.2,0-2.8,1.2-3.7,3.4c-0.4,0.2-0.9,0.1-1.1-0.3c0.5-1.6,0.8-3.3,1-5
		c0.1-0.1,0.3-0.1,0.4-0.1c0.1,0,0.3,0,0.4,0.1c0.1,0.5,0.2,0.6,2.5,0.6h11c2,0,2.4,0,2.7-0.7c0.1-0.1,0.3-0.1,0.4-0.1
		c0.2,0,0.3,0.1,0.4,0.2c-0.4,1.7-0.5,3.4-0.4,5.1c-0.1,0.3-1,0.3-1.1,0.1c-0.5-1.9-0.9-3.3-3.1-3.3h-1.8c-0.7,0-0.8,0.1-0.8,0.9
		v13.1c0,2.8,0.2,3,1.5,3.2l1.2,0.2c0.2,0.3,0.2,0.7,0,1c-1.9-0.1-3.4-0.1-4.7-0.1s-3,0-5,0.1c-0.2-0.3-0.2-0.7,0-1l1.3-0.2
		c1.3-0.1,1.5-0.4,1.5-3.2L368.4,20.8z"/>
	<path class="st3" d="M392.2,33.9c0,2.8,0.2,3,1.5,3.2l1.2,0.2c0.2,0.3,0.2,0.7,0,1c-1.9-0.1-3.4-0.1-4.8-0.1s-2.9,0-4.7,0.1
		c-0.2-0.3-0.2-0.7,0-1l1-0.2c1.3-0.2,1.5-0.4,1.5-3.2v-1.5c0.1-1.2-0.2-2.5-0.8-3.5l-3.5-7.3c-0.6-1.2-0.9-1.7-1.9-1.9l-1-0.2
		c-0.3-0.2-0.2-0.9,0.1-1c1.3,0.1,2.4,0.1,4.2,0.1s3.3,0,4.3-0.1c0.3,0.1,0.3,0.8,0,1l-1,0.2c-0.5,0.1-0.7,0.2-0.7,0.3
		c0.1,0.7,0.4,1.4,0.8,2.1l1.4,3.2c0.4,1,1.1,2.3,1.5,3.1c0.9-1.5,1.8-3.4,2.5-4.9c0.6-1,1.1-2.2,1.4-3.4c0-0.2-0.5-0.4-1.2-0.5
		l-0.6-0.1c-0.2-0.1-0.3-0.9,0-1c1.2,0.1,2.3,0.1,3.3,0.1s2,0,2.9-0.1c0.4,0.1,0.4,0.8,0.1,1l-0.8,0.1c-0.6,0.1-1.1,0.3-1.5,0.7
		c-1,1.3-1.8,2.7-2.6,4.2l-1.8,3.4c-0.7,1.1-1.1,2.5-1,3.8L392.2,33.9z"/>
	<path class="st3" d="M407.6,33.2c-0.1,1,0.1,1.9,0.5,2.8c0.4,0.5,0.9,0.7,3.1,0.7c2.7,0,3.5-0.1,5.3-3.5c0.3-0.3,0.8-0.2,1.1,0.1
		c0,0,0,0,0,0c-0.2,1.7-0.6,3.3-1.3,4.8c-1.6-0.1-4.4-0.1-6.8-0.1h-4c-1.4,0-2.8,0-4.7,0.1c-0.3-0.3-0.3-0.7-0.1-1l1.1-0.2
		c1.3-0.2,1.5-0.4,1.5-3.2v-11c0-2.8-0.2-3-1.5-3.2l-0.9-0.1c-0.3-0.3-0.3-0.7,0-0.9c0,0,0,0,0.1-0.1c1.5,0.1,3,0.1,4.4,0.1
		c1.4,0,2.9,0,4.4-0.1c0.2,0.3,0.2,0.7,0,1l-0.8,0.1c-1.3,0.2-1.5,0.5-1.5,3.2L407.6,33.2z"/>
	<path class="st3" d="M425.5,26.3c0,0.8,0,0.9,0.8,0.9h2c1.5,0,1.9-0.2,2.2-1.6l0.1-0.7c0.2-0.2,1-0.2,1.1,0c-0.1,1-0.1,2-0.1,3.1
		s0,2.2,0.1,3.1c-0.3,0.3-0.8,0.3-1.1,0l-0.1-0.7c-0.3-1.4-0.6-1.7-2.2-1.7h-2c-0.8,0-0.8,0-0.8,0.9v3.6c-0.1,1,0.1,1.9,0.5,2.8
		c0.4,0.5,1,0.8,3.1,0.8c2.6,0,3.6-0.1,5.2-3.4c0.3-0.3,0.7-0.3,1,0c0,0,0.1,0.1,0.1,0.1c-0.2,1.6-0.6,3.2-1.2,4.7
		c-1.6-0.1-4.4-0.1-6.9-0.1h-3.8c-1.4,0-2.9,0-5.1,0.1c-0.2-0.3-0.2-0.7,0-1l1.4-0.2c1.3-0.2,1.5-0.4,1.5-3.1V22.8
		c0-2.7-0.2-2.9-1.5-3.1l-0.7-0.1c-0.2-0.3-0.2-0.7,0.1-1c1.4,0.1,2.9,0.1,4.3,0.1h6.3c1.9,0,3.6,0,4-0.1c0,0.5,0.2,2.6,0.4,4.6
		c-0.1,0.3-0.8,0.4-1.1,0.1c-0.2-0.8-0.6-1.6-1.1-2.3c-0.8-0.7-1.9-1-2.9-0.9h-2.4c-1,0-1,0.1-1,1.2V26.3z"/>
	<path class="st3" d="M162.3,67c-0.7,0-0.8,0-1,0.6l-1.1,3.4c-0.1,0.3-0.2,0.7-0.2,1.1c0,0.2,0.4,0.3,1.2,0.5l0.9,0.2
		c0.2,0.2,0.2,0.9-0.1,1c-1-0.1-2.1-0.1-3.4-0.1c-1,0-1.7,0.1-3,0.1c-0.3-0.2-0.3-0.8-0.1-1l0.8-0.1c0.9-0.1,1.6-0.6,1.8-1.5
		c0.5-1.2,1.1-2.6,1.9-4.8l2.7-7.2c0.7-1.9,1.2-2.9,1.1-3.8c1-0.4,1.9-1,2.6-1.8c0.4,0,0.6,0.1,0.7,0.6c0.2,0.9,0.6,2,1.3,4.1
		l4,11.6c0.6,1.8,0.9,2.5,2,2.6l1.1,0.2c0.2,0.2,0.2,0.9,0,1c-1.4-0.1-3-0.1-4.6-0.1s-2.6,0-4,0.1c-0.3-0.2-0.3-0.6-0.1-0.9
		c0,0,0,0,0.1-0.1l0.9-0.2c0.7-0.1,0.8-0.3,0.8-0.5c-0.1-0.7-0.3-1.4-0.6-2l-0.8-2.6c-0.1-0.5-0.4-0.5-1.4-0.5L162.3,67z
		 M165.7,65.4c0.7,0,0.8-0.1,0.6-0.9l-0.8-2.4c-0.4-1.3-1-2.9-1.2-3.5c-0.2,0.7-0.8,2.3-1.3,3.6l-0.7,2.2c-0.3,0.8-0.1,0.9,0.6,0.9
		H165.7z"/>
	<path class="st3" d="M201.6,55.3c-0.5,0.1-1,0.3-1.3,0.7c-0.6,1-1.2,2.1-1.6,3.3c-1.5,3.5-4.6,10.8-6.1,14.7
		c-0.3,0.2-0.7,0.3-1,0.2c-0.3,0-0.6-0.1-0.8-0.2c-0.3-0.7-0.8-1.8-1.1-2.6l-1.2-2.8c-0.4-1-0.8-1.8-1.1-2.3c-0.3,0.5-0.6,1.2-1,2
		l-1.4,2.9c-0.4,1-0.8,1.8-1.2,2.8c-0.3,0.2-0.6,0.3-1,0.2c-0.3,0-0.6-0.1-0.8-0.2c-0.5-1.2-1.7-3.9-2.7-6.1l-4.8-10.5
		c-0.8-1.8-1-1.9-1.9-2.1l-0.7-0.2c-0.2-0.3-0.2-0.9,0.1-1c1.1,0.1,2.4,0.1,3.9,0.1c1.3,0,2.5,0,3.6-0.1c0.2,0.1,0.4,0.9,0.1,1
		l-0.5,0.1c-0.5,0.1-0.7,0.2-0.7,0.4c0.4,1.3,1,2.5,1.5,3.7l2.9,6.5c0.8,1.8,1.3,2.7,1.6,3.4c0.4-0.6,1-2,1.5-3l0.4-0.9
		c0.2-0.3,0.3-0.7,0.3-1c-0.1-0.4-0.2-0.7-0.3-1.1l-2.8-6.2c-0.7-1.5-0.9-1.7-2-1.8h-0.3c-0.3-0.2-0.2-0.9,0.1-1
		c1.3,0.1,2.4,0.1,3.7,0.1c1.5,0,2.6,0,3.4-0.1c0.4,0.1,0.3,0.9,0.1,1l-0.5,0.1c-0.4,0.1-0.8,0.2-0.8,0.4c0,0.3,0.1,0.6,0.3,0.9
		l0.9,2c0.3,0.6,0.6,1.4,0.9,2l0.9-2l0.3-0.6c0.4-0.7,0.6-1.4,0.9-2.2c0-0.2-0.1-0.3-0.6-0.4l-1.1-0.2c-0.2-0.2-0.2-0.9,0.1-1
		c0.9,0.1,1.9,0.1,2.9,0.1c1.1,0,2.2,0,3-0.1c0.3,0.3,0.3,0.8,0,1.1l-0.8,0.2c-1,0.2-1.2,0.2-2.2,2c-0.7,1.2-1.4,2.7-1.8,3.5
		c-0.3,0.5-0.5,1-0.6,1.5c0.1,0.2,0.1,0.3,0.2,0.5l1.4,3c0.8,1.6,1.2,2.6,1.4,3c1.4-3.4,3.1-7.2,4.5-10.8c0.3-0.8,0.6-1.6,0.8-2.4
		c0-0.3-0.5-0.4-0.9-0.5l-0.6-0.2c-0.2-0.3-0.2-0.7,0.1-1c0.9,0.1,2.2,0.1,3,0.1c1,0,1.9,0,2.7-0.1c0.3,0.2,0.3,0.8,0.1,1
		L201.6,55.3z"/>
	<path class="st3" d="M205.1,67c-0.7,0-0.8,0-1,0.6l-1.2,3.4c-0.1,0.3-0.2,0.7-0.2,1.1c0,0.2,0.4,0.3,1.2,0.5l0.9,0.2
		c0.2,0.2,0.2,0.9-0.1,1c-1-0.1-2.1-0.1-3.4-0.1c-1,0-1.7,0.1-3,0.1c-0.3-0.2-0.3-0.8-0.1-1l0.8-0.1c0.9-0.1,1.6-0.7,1.8-1.5
		c0.5-1.2,1.1-2.6,1.9-4.8l2.7-7.2c0.7-1.9,1.2-2.9,1.1-3.8c1-0.4,1.9-1,2.6-1.8c0.4,0,0.6,0.1,0.7,0.6c0.2,0.9,0.6,2,1.3,4.1
		l4,11.6c0.6,1.8,0.9,2.5,2,2.6l1.1,0.2c0.2,0.2,0.2,0.9,0,1c-1.4-0.1-3-0.1-4.6-0.1s-2.6,0-4,0.1c-0.3-0.2-0.3-0.7-0.1-1
		c0,0,0,0,0,0l1-0.2c0.7-0.1,0.8-0.3,0.8-0.5c-0.1-0.7-0.3-1.3-0.6-2l-0.8-2.6c-0.1-0.5-0.4-0.5-1.4-0.5L205.1,67z M208.5,65.4
		c0.7,0,0.8-0.1,0.6-0.9l-0.8-2.4c-0.4-1.3-1-2.9-1.2-3.5c-0.2,0.7-0.8,2.3-1.3,3.6l-0.8,2.2c-0.3,0.8-0.1,0.9,0.6,0.9L208.5,65.4z"
		/>
	<path class="st3" d="M221.9,59c0-3-0.1-3.3-1.3-3.5l-0.8-0.1c-0.3-0.3-0.3-0.7,0-0.9c0,0,0,0,0.1-0.1c2.2-0.2,4.5-0.3,7.4-0.3
		c2-0.1,4,0.3,5.8,1.1c1.6,0.9,2.6,2.6,2.6,4.4c0,2.6-1.8,3.8-3.1,4.4c-0.3,0.2-0.3,0.3-0.1,0.7c2,4,3.2,6.2,4.6,7.4
		c0.6,0.5,1.3,0.8,2,0.8c0.2,0.2,0.3,0.5,0.1,0.8c-0.8,0.2-1.6,0.3-2.3,0.3c-2.4,0.2-4.6-1.1-5.8-3.2c-0.9-1.5-1.7-3-2.3-4.6
		c-0.2-0.7-0.9-1.1-1.6-1c-1,0-1.1,0.1-1.1,0.7v3.7c0,2.7,0.2,2.9,1.5,3.2l0.8,0.2c0.2,0.3,0.2,0.7,0,1c-1.6-0.1-2.9-0.1-4.4-0.1
		s-2.8,0-4.3,0.1c-0.2-0.3-0.2-0.7,0-1l0.8-0.2c1.3-0.2,1.5-0.4,1.5-3.2L221.9,59z M226,62.7c0,1,0.1,1.1,1.8,1.1
		c0.8,0.1,1.7-0.2,2.3-0.8c0.8-0.9,1.2-2,1.1-3.2c0-2.7-1.6-4.4-3.9-4.4c-1.2,0-1.3,0.1-1.3,1.5L226,62.7z"/>
	<path class="st3" d="M242.8,59c0-2.8-0.1-3.4-1.4-3.5l-0.6-0.1c-0.3-0.2-0.3-1,0.1-1c2.5-0.2,4.8-0.3,7.9-0.3
		c2.3-0.1,4.7,0.3,6.9,1c3.6,1.3,6,4.7,6,8.6c0.1,3.7-1.9,7.2-5.3,8.9c-2.4,1-4.9,1.5-7.5,1.4c-1.4,0-2.9-0.2-3.9-0.2
		c-1.4,0-2.9,0-4.6,0.1c-0.2-0.3-0.2-0.7,0-1l0.9-0.2c1.3-0.2,1.5-0.4,1.5-3.2L242.8,59z M247,68.4c0,1.6,0.1,2.7,0.6,3.3
		c0.7,0.6,1.6,0.9,2.5,0.9c5.1,0,6.9-4.6,6.9-8.6c0-5.3-2.8-8.5-8.2-8.5c-0.8,0-1.4,0.1-1.5,0.4c-0.2,0.5-0.3,1.1-0.2,1.7V68.4z"/>
	<path class="st3" d="M269.3,74.2c-1.7,0.1-3.5-0.3-5-1.1c-0.6-0.7-1-2.8-1-4.8c0.2-0.3,0.7-0.4,1-0.2c0,0,0.1,0.1,0.1,0.1
		c0.6,1.9,2.6,4.7,5.1,4.7c1.7,0.1,3.1-1.1,3.2-2.8c0-0.1,0-0.1,0-0.2c0-2.4-2.3-3.8-4-4.7c-2.1-1.1-4.5-2.8-4.5-5.8
		c0-3.3,2.6-5.7,6.9-5.7c1.1,0,2.3,0.2,3.4,0.5c0.3,0.1,0.7,0.2,1,0.2c0.4,1.4,0.6,2.8,0.5,4.2c-0.1,0.3-0.9,0.4-1.2,0.1
		c-0.6-1.5-1.9-3.7-4-3.7c-1.5-0.1-2.9,1-3,2.5c0,0.1,0,0.2,0,0.3c0,1.4,1.2,2.6,2.7,3.4l2,1c1.8,1,4.2,2.7,4.2,6
		C276.8,71.8,273.8,74.2,269.3,74.2z"/>
	<path class="st3" d="M294.9,70.7c2.2,0,2.5-0.1,3.4-1.6c0.2-0.2,0.9-0.2,1,0.2c-0.2,1.6-0.7,3.2-1.5,4.6c-1.2-0.1-2.2-0.1-4.1-0.1
		H289c-1.5,0-2.8,0-3.3,0.1c-0.3-0.1-0.4-0.4-0.3-0.7c1.1-1,2.8-2.6,4.6-4.6c2-2.3,3.9-4.7,3.9-7.9c0-2-1.2-3.6-3.2-3.6
		c-1.7,0-2.9,1.1-3.8,2.7c-0.3,0.2-0.7,0.2-0.9-0.1c-0.1-0.1-0.1-0.2-0.1-0.3c1.1-2.8,3.8-4.6,6.8-4.6c3.5,0,5.6,2.3,5.6,5
		c0,2.3-0.9,4-4.5,7.3l-1.4,1.3c-1.3,1.2-1.6,1.6-1.6,1.9s0.1,0.3,0.6,0.3L294.9,70.7z"/>
	<path class="st3" d="M314.7,64.4c0,4.8-2,9.7-6.8,9.7s-6.9-4.9-6.9-9.7c0-4.6,2-9.7,6.9-9.7S314.7,59.8,314.7,64.4z M307.9,72.8
		c2.2,0,2.5-5.7,2.5-8.3c0-2.6-0.3-8.3-2.5-8.3s-2.5,5.7-2.5,8.3S305.6,72.8,307.9,72.8z"/>
	<path class="st3" d="M325.4,70.7c2.2,0,2.5-0.1,3.4-1.6c0.2-0.2,0.9-0.2,1,0.2c-0.2,1.6-0.7,3.2-1.5,4.6c-1.2-0.1-2.2-0.1-4.1-0.1
		h-4.7c-1.5,0-2.8,0-3.3,0.1c-0.3-0.1-0.4-0.4-0.3-0.7c1.1-1,2.8-2.6,4.6-4.6c2-2.3,3.9-4.7,3.9-7.9c0-2-1.2-3.6-3.2-3.6
		c-1.7,0-2.9,1.1-3.8,2.7c-0.3,0.2-0.7,0.2-0.9-0.1c-0.1-0.1-0.1-0.2-0.1-0.3c1.1-2.8,3.8-4.7,6.8-4.6c3.5,0,5.6,2.3,5.6,5
		c0,2.3-0.9,4-4.5,7.3l-1.4,1.3c-1.3,1.2-1.6,1.6-1.6,1.9s0.1,0.3,0.6,0.3L325.4,70.7z"/>
	<path class="st3" d="M345.2,64.4c0,4.8-2,9.7-6.9,9.7s-6.9-4.9-6.9-9.7c0-4.6,2-9.7,6.9-9.7S345.2,59.8,345.2,64.4z M338.4,72.8
		c2.2,0,2.5-5.7,2.5-8.3c0-2.6-0.3-8.3-2.5-8.3s-2.5,5.7-2.5,8.3S336.1,72.8,338.4,72.8z"/>
</g>
<g>
	<path class="st5" d="M360.3,67.1L360.3,67.1c-0.6,0.3-1.1,0.6-1.6,0.9c-0.6,0.3-1.2,0.6-1.8,0.9s-1.2,0.5-1.9,0.7
		c-0.6,0.2-1.2,0.4-1.8,0.6l-0.1-0.4c2-0.5,4-1.3,5.8-2.3c1.8-1,3.5-2.2,5.2-3.4l0.1,0.1l-2.6,4c-1,1.5-2,3.1-3.1,4.7
		c-1,1.6-2,3.2-3,4.7s-1.7,2.9-2.3,4.1l-2.8,0.5L360.3,67.1z"/>
	<path class="st5" d="M376.6,76.3c-0.3,0.7-0.7,1.3-1.2,2c-0.4,0.7-0.9,1.3-1.5,1.9c-0.6,0.6-1.2,1-1.9,1.4
		c-0.7,0.4-1.5,0.5-2.3,0.5c-0.5,0-0.9-0.1-1.4-0.3l-1.4-0.7c-0.5-0.2-1-0.5-1.5-0.7c-0.5-0.2-1.1-0.3-1.7-0.3
		c-0.6,0-1.1,0.1-1.6,0.3c-0.4,0.2-0.8,0.4-1.1,0.7c-0.2,0.2-0.4,0.5-0.6,0.7c-0.2,0.2-0.3,0.3-0.4,0.3s-0.2,0-0.2-0.1
		c0-0.1,0-0.2,0-0.2c0-0.4,0.8-1,2.4-2c2.3-1.4,4.7-2.6,7.2-3.7c1.3-0.6,2.6-1.2,3.8-2c0.8-0.6,1.6-1.2,2.3-2c0.5-0.6,0.9-1.3,1.1-2
		c0.2-0.6,0.3-1.3,0.3-2c0-1-0.3-2-0.9-2.8c-0.7-0.7-1.6-1.1-2.6-1.1c-0.5,0-1,0.1-1.5,0.3c-1,0.3-1.9,1.1-2.5,2
		c-0.3,0.5-0.4,1.1-0.4,1.7c0,0.6,0.2,1.1,0.6,1.6c0.3,0.4,0.9,0.7,1.4,0.7c0.2,0,0.4,0,0.7-0.1l0.6-0.3l0.1,0.1
		c-0.2,0.4-0.6,0.8-1,1.1c-0.4,0.3-0.9,0.4-1.5,0.4c-0.6,0-1.2-0.2-1.7-0.7c-0.4-0.5-0.7-1.2-0.6-1.9c0-0.6,0.2-1.3,0.4-1.8
		c0.3-0.7,0.7-1.3,1.2-1.8c1.3-1.2,2.9-1.9,4.7-1.8c0.8,0,1.5,0.1,2.3,0.4c0.6,0.2,1.1,0.6,1.6,1c0.4,0.4,0.7,0.8,1,1.3
		c0.2,0.5,0.3,1,0.3,1.5c0,1-0.2,2-0.8,2.9c-0.5,0.9-1.2,1.6-2,2.3c-0.9,0.7-1.9,1.3-2.9,1.8c-1.1,0.5-2.2,1-3.4,1.5l-3.4,1.5
		c-1,0.5-2,1-3,1.7l0.1,0.1c0.3-0.2,0.7-0.3,1-0.5c0.4-0.2,0.8-0.2,1.2-0.2c0.5,0,0.9,0.1,1.4,0.3c0.5,0.2,1.1,0.4,1.6,0.6l1.6,0.6
		c0.4,0.2,0.9,0.3,1.3,0.3c0.5,0,1.1-0.2,1.5-0.5c0.5-0.3,0.9-0.7,1.3-1.2c0.4-0.5,0.8-0.9,1.1-1.5c0.3-0.5,0.6-1,0.8-1.4
		L376.6,76.3z"/>
	<path class="st5" d="M384.6,65.3l-1.3,1.9h2.1l-0.1,0.2h-2.2c-0.4,0.7-0.8,1.3-1.1,1.8s-0.6,1-0.9,1.3c-0.2,0.3-0.4,0.6-0.5,0.9
		c-0.1,0.2-0.2,0.4-0.2,0.7c0,0.2,0.1,0.3,0.2,0.4c0.1,0.1,0.3,0.1,0.5,0.1c0.5,0,0.9-0.2,1.3-0.4c0.5-0.3,1-0.7,1.4-1.1
		c0.5-0.4,0.9-0.9,1.3-1.4c0.4-0.5,0.8-0.9,1.1-1.3l0.1,0.1c-0.4,0.5-0.8,1-1.2,1.5c-0.4,0.5-0.9,1-1.3,1.4c-0.4,0.4-0.9,0.7-1.4,1
		c-0.4,0.3-0.9,0.4-1.3,0.4c-0.3,0-0.6-0.1-0.9-0.3c-0.3-0.2-0.4-0.5-0.4-0.8c0-0.3,0.1-0.6,0.2-0.8c0.2-0.3,0.3-0.7,0.5-1
		c0.2-0.3,0.5-0.7,0.8-1.2s0.6-0.9,0.9-1.3h-0.9l0.1-0.2h0.9l1.3-1.9L384.6,65.3z"/>
	<path class="st5" d="M391.7,61.5L386,70l0,0l0.8-0.9c0.3-0.4,0.6-0.7,0.9-1c0.3-0.3,0.7-0.6,1.1-0.8c0.4-0.2,0.8-0.3,1.2-0.3
		c0.5-0.1,0.9,0.2,1,0.7c0,0.1,0,0.2,0,0.3c0,0.2-0.1,0.4-0.2,0.6c-0.1,0.3-0.3,0.5-0.5,0.8c-0.2,0.3-0.4,0.5-0.6,0.8
		s-0.4,0.5-0.6,0.8c-0.2,0.2-0.3,0.5-0.5,0.7c-0.1,0.2-0.2,0.4-0.2,0.6c0,0.1,0,0.2,0.1,0.3c0.1,0.1,0.2,0.1,0.3,0.1
		c0.3,0,0.6-0.1,0.8-0.2c0.3-0.2,0.6-0.4,0.9-0.6c0.3-0.3,0.6-0.5,1-0.8c0.3-0.3,0.6-0.6,0.9-0.9s0.5-0.6,0.7-0.9
		c0.2-0.2,0.3-0.4,0.5-0.7h0.1c-0.2,0.3-0.3,0.5-0.5,0.7c-0.2,0.3-0.5,0.6-0.7,0.9s-0.6,0.6-0.9,0.9c-0.3,0.3-0.6,0.6-1,0.9
		c-0.3,0.2-0.6,0.4-0.9,0.6c-0.3,0.1-0.6,0.2-0.9,0.2c-0.3,0-0.5-0.1-0.7-0.3c-0.2-0.2-0.3-0.4-0.3-0.7c0-0.2,0.1-0.5,0.2-0.7
		c0.1-0.3,0.3-0.5,0.5-0.8c0.2-0.3,0.4-0.5,0.6-0.8s0.4-0.5,0.6-0.8c0.2-0.2,0.3-0.4,0.5-0.7c0.1-0.2,0.2-0.3,0.2-0.5
		c0-0.1,0-0.3-0.1-0.3c-0.1-0.1-0.2-0.1-0.4-0.1c-0.3,0-0.6,0.1-0.9,0.3c-0.4,0.2-0.7,0.5-1,0.8c-0.4,0.3-0.7,0.7-1,1.1
		c-0.3,0.4-0.7,0.8-1,1.2s-0.6,0.8-0.8,1.2c-0.2,0.3-0.4,0.6-0.5,0.9h-1.1l1.8-2.8c0.6-1,1.2-1.9,1.9-2.8l1.8-2.8l1.7-2.6
		L391.7,61.5z"/>
	<path class="st5" d="M389.7,78.8c-0.8,1-1.6,2-2.5,2.9c-0.8,0.9-1.7,1.7-2.6,2.5c-0.8,0.7-1.6,1.3-2.6,1.7
		c-0.8,0.4-1.6,0.6-2.5,0.7c-0.4,0-0.9,0-1.3-0.2c-0.3-0.1-0.5-0.2-0.7-0.4c-0.2-0.2-0.3-0.3-0.3-0.5c-0.1-0.2-0.1-0.3-0.1-0.5
		c0-0.3,0.1-0.5,0.2-0.7c0.2-0.2,0.4-0.3,0.7-0.3c0.2,0,0.5,0.1,0.6,0.3c0.1,0.2,0.2,0.4,0.2,0.6c0,0.2,0,0.3-0.1,0.4
		c-0.1,0.1-0.2,0.2-0.4,0.3c0.1,0.2,0.4,0.4,0.6,0.4c0.3,0.1,0.5,0.1,0.8,0.1c0.8,0,1.5-0.2,2.2-0.6c0.8-0.5,1.6-1,2.4-1.6
		c0.8-0.7,1.6-1.5,2.4-2.3c0.8-0.8,1.5-1.7,2.2-2.6c0.3-0.4,0.7-0.9,1.2-1.4s1-1.2,1.6-1.9s1.2-1.4,1.9-2c0.7-0.7,1.4-1.4,2.2-2
		c0.8-0.6,1.6-1.2,2.5-1.7c0.8-0.5,1.7-0.9,2.6-1.1l0.1,0.1c-0.6,0.6-1.2,1.2-1.7,1.9c-0.6,0.8-1.2,1.6-1.8,2.4s-1.1,1.8-1.6,2.8
		c-0.5,0.9-1,1.9-1.4,2.9c-0.4,0.9-0.7,1.8-1,2.8c-0.2,0.8-0.3,1.6-0.4,2.4c0,0.4,0.1,0.9,0.3,1.3c0.2,0.4,0.6,0.6,1,0.5
		c0.4,0,0.7-0.1,1.1-0.3c0.4-0.3,0.9-0.6,1.3-0.9c0.5-0.4,0.9-0.8,1.3-1.2c0.4-0.5,0.9-0.9,1.2-1.4s0.7-0.9,1.1-1.3l0.7-1l0.2,0.1
		l-1.8,2.2c-0.6,0.8-1.2,1.5-1.9,2.2c-0.6,0.6-1.2,1.1-1.9,1.6c-0.5,0.4-1.2,0.6-1.9,0.6c-0.3,0-0.7-0.1-1-0.2
		c-0.3-0.1-0.5-0.3-0.7-0.6c-0.2-0.3-0.3-0.5-0.4-0.8c-0.1-0.3-0.1-0.7-0.1-1c0-0.9,0.1-1.8,0.4-2.7c0.3-0.9,0.6-1.7,0.9-2.5
		L389.7,78.8z M393.2,78.5c0.7-1.6,1.6-3.1,2.6-4.5c1-1.5,2.2-2.9,3.6-4.2h0c-0.9,0.4-1.7,1-2.5,1.6c-0.8,0.6-1.7,1.3-2.4,2.1
		c-0.8,0.8-1.5,1.6-2.3,2.4s-1.5,1.7-2.2,2.6L393.2,78.5z"/>
	<path class="st5" d="M403.9,78l-3.2,4.5h0l1.2-1.4c0.5-0.5,0.9-1.1,1.5-1.6c0.5-0.5,1.1-0.9,1.7-1.2c0.5-0.3,1.1-0.5,1.7-0.5
		c0.4,0,0.8,0.1,1.1,0.4c0.3,0.3,0.4,0.6,0.4,1c0,0.3-0.1,0.6-0.3,0.9c-0.2,0.4-0.4,0.8-0.7,1.2c-0.3,0.4-0.6,0.8-0.9,1.3
		s-0.6,0.8-0.9,1.2s-0.5,0.7-0.7,1c-0.2,0.2-0.3,0.5-0.3,0.8c0,0.3,0.2,0.6,0.5,0.7c0.1,0,0.1,0,0.2,0c0.6,0,1.2-0.2,1.7-0.5
		c0.8-0.5,1.5-1,2.1-1.7c0.3-0.3,0.7-0.7,1-1.1l1-1.2c0.3-0.4,0.6-0.8,0.8-1.1s0.5-0.6,0.6-0.9l0.2,0.1c-0.3,0.5-0.7,1.1-1.3,1.8
		c-0.5,0.7-1.1,1.4-1.7,2c-0.4,0.4-0.7,0.8-1.1,1.1c-0.4,0.3-0.7,0.7-1.1,0.9c-0.3,0.3-0.7,0.5-1.1,0.6c-0.3,0.1-0.7,0.2-1.1,0.2
		c-0.4,0-0.8-0.1-1.2-0.4c-0.3-0.3-0.5-0.7-0.5-1.1c0-0.6,0.2-1.1,0.6-1.6c0.4-0.6,0.8-1.2,1.3-1.8s0.9-1.2,1.3-1.7
		c0.3-0.4,0.5-0.9,0.6-1.4c0-0.2-0.1-0.3-0.2-0.4c-0.2-0.1-0.3-0.2-0.5-0.1c-0.5,0-1,0.2-1.4,0.4c-0.6,0.3-1.1,0.7-1.6,1.2
		c-0.5,0.5-1.1,1.1-1.6,1.7s-1,1.2-1.5,1.8s-0.9,1.2-1.2,1.8c-0.3,0.5-0.6,0.9-0.8,1.4H397c0.4-0.7,0.9-1.5,1.4-2.2l1.4-2.2
		c0.5-0.7,0.9-1.4,1.4-2.1s0.8-1.3,1.2-1.8L403.9,78z"/>
	<path class="st5" d="M415,78l-3.2,4.5h0c0.3-0.4,0.7-0.9,1.2-1.4c0.5-0.6,1-1.1,1.5-1.6c0.5-0.5,1-0.9,1.6-1.2
		c0.5-0.3,1.1-0.5,1.7-0.5c0.4,0,0.8,0.1,1.1,0.4c0.3,0.3,0.4,0.6,0.4,1c0,0.3-0.1,0.6-0.3,0.9c-0.2,0.4-0.4,0.8-0.7,1.2
		c-0.3,0.4-0.6,0.8-0.9,1.3s-0.6,0.8-0.9,1.2c-0.3,0.3-0.5,0.7-0.7,1c-0.2,0.2-0.3,0.5-0.3,0.8c0,0.3,0.2,0.6,0.5,0.7
		c0.1,0,0.1,0,0.2,0c0.6,0,1.2-0.2,1.7-0.5c0.8-0.5,1.5-1,2.1-1.7c0.3-0.3,0.7-0.7,1-1.1c0.3-0.4,0.7-0.8,1-1.2l0.9-1.1
		c0.2-0.3,0.5-0.6,0.6-0.9l0.2,0.1c-0.3,0.5-0.8,1.1-1.3,1.8s-1.1,1.3-1.7,2c-0.4,0.4-0.7,0.8-1.1,1.1c-0.4,0.3-0.7,0.7-1.1,0.9
		c-0.3,0.3-0.7,0.5-1.1,0.6c-0.3,0.1-0.7,0.2-1.1,0.2c-0.4,0-0.9-0.1-1.2-0.4c-0.3-0.3-0.5-0.7-0.5-1.1c0-0.6,0.2-1.1,0.6-1.6
		c0.4-0.6,0.8-1.2,1.3-1.8s0.9-1.2,1.3-1.7c0.3-0.4,0.5-0.9,0.6-1.4c0-0.2-0.1-0.3-0.2-0.4c-0.1-0.1-0.3-0.2-0.5-0.1
		c-0.5,0-1,0.2-1.4,0.4c-0.6,0.3-1.1,0.7-1.6,1.2c-0.5,0.5-1.1,1.1-1.6,1.7s-1,1.2-1.5,1.8s-0.9,1.2-1.2,1.8
		c-0.3,0.5-0.6,0.9-0.8,1.4H408c0.4-0.7,0.9-1.5,1.4-2.2s1-1.5,1.4-2.2s0.9-1.4,1.4-2.1l1.2-1.9H415z"/>
	<path class="st5" d="M426.4,78l-1.8,2.5c-0.6,0.8-1.1,1.5-1.6,2.2s-0.8,1.2-1.1,1.7c-0.2,0.3-0.4,0.7-0.4,1.1
		c0,0.2,0.1,0.4,0.2,0.6c0.1,0.1,0.3,0.2,0.5,0.2c0.4,0,0.7-0.1,1-0.3c0.4-0.2,0.8-0.5,1.1-0.8c0.4-0.3,0.8-0.6,1.1-1
		c0.4-0.4,0.7-0.7,1-1.1s0.6-0.7,0.8-1c0.2-0.2,0.4-0.5,0.5-0.7L430,78h1.7c-0.9,1.2-1.6,2.2-2.2,3.1s-1.1,1.6-1.5,2.1
		c-0.3,0.5-0.6,0.9-0.8,1.4c-0.2,0.3-0.2,0.7-0.2,1c0,0.2,0.1,0.4,0.2,0.5c0.1,0.1,0.3,0.2,0.5,0.2c0.4,0,0.8-0.1,1.1-0.4
		c0.5-0.3,0.9-0.6,1.3-0.9c0.5-0.4,0.9-0.8,1.4-1.3c0.5-0.5,0.9-1,1.3-1.4s0.8-0.9,1.1-1.3s0.6-0.8,0.8-1l0.2,0.1
		c-0.2,0.3-0.5,0.6-0.8,1.1s-0.7,0.9-1.1,1.4s-0.8,1-1.3,1.5c-0.4,0.5-0.9,0.9-1.4,1.3c-0.4,0.4-0.9,0.7-1.4,1
		c-0.4,0.2-0.8,0.4-1.3,0.4c-0.4,0-0.8-0.1-1.1-0.4c-0.3-0.3-0.4-0.6-0.4-1c0-0.3,0.1-0.6,0.2-0.9c0.1-0.2,0.1-0.4,0.2-0.6h0
		c-0.4,0.4-0.7,0.8-1.1,1.1c-0.4,0.4-0.7,0.7-1.1,1c-0.4,0.3-0.7,0.5-1.1,0.7c-0.4,0.2-0.7,0.2-1.1,0.2c-0.4,0-0.8-0.1-1.1-0.3
		c-0.2-0.2-0.3-0.5-0.3-0.8c0-0.5,0.1-0.9,0.3-1.3c0.3-0.6,0.6-1.1,0.9-1.6c0.4-0.6,0.9-1.2,1.4-2s1.1-1.6,1.8-2.5L426.4,78z"/>
	<path class="st5" d="M441.4,78h1.6c-0.6,0.8-1.2,1.7-1.7,2.5s-1,1.5-1.5,2.2c-0.4,0.6-0.7,1.2-1,1.8c-0.2,0.4-0.3,0.8-0.4,1.2
		c0,0.4,0.2,0.6,0.7,0.6c0.5,0,0.9-0.2,1.3-0.5c0.6-0.4,1.2-0.9,1.7-1.4c0.7-0.7,1.3-1.3,1.9-2.1c0.6-0.8,1.3-1.6,1.9-2.5l0.1,0.1
		c-0.4,0.7-1,1.4-1.6,2.2c-0.6,0.8-1.2,1.5-1.9,2.2c-0.6,0.6-1.3,1.2-2,1.7c-0.5,0.4-1.2,0.6-1.8,0.7c-0.4,0-0.7-0.1-1-0.3
		c-0.2-0.2-0.3-0.5-0.3-0.8c0-0.2,0-0.5,0.1-0.7c0.1-0.2,0.1-0.4,0.2-0.7l0,0c-0.2,0.2-0.5,0.5-0.8,0.8c-0.3,0.3-0.6,0.6-1,0.8
		c-0.4,0.3-0.7,0.5-1.1,0.7c-0.4,0.2-0.7,0.3-1.1,0.3c-0.5,0-1-0.2-1.3-0.6c-0.2-0.4-0.4-0.8-0.4-1.3c0-0.8,0.3-1.5,0.6-2.2
		c0.4-0.8,1-1.6,1.6-2.3c0.6-0.7,1.3-1.3,2.1-1.8c0.7-0.4,1.4-0.7,2.2-0.7c0.3,0,0.6,0,0.9,0.1c0.2,0.1,0.4,0.2,0.6,0.4
		c0.2,0.2,0.3,0.3,0.4,0.5c0.1,0.2,0.2,0.4,0.2,0.6h0L441.4,78z M433.4,84.9c0,0.3,0.1,0.6,0.2,0.9c0.2,0.2,0.4,0.3,0.6,0.3
		c0.4,0,0.7-0.1,1-0.3c0.4-0.2,0.8-0.5,1.2-0.8c0.4-0.4,0.8-0.8,1.2-1.2c0.4-0.4,0.8-0.9,1.1-1.4c0.3-0.5,0.6-1,0.8-1.6
		c0.2-0.5,0.3-1,0.3-1.5c0.1-0.6-0.4-1.1-0.9-1.1c-0.1,0-0.1,0-0.2,0c-0.6,0-1.2,0.3-1.6,0.6c-0.6,0.5-1.2,1-1.7,1.6
		c-0.5,0.7-1,1.4-1.4,2.2C433.6,83.3,433.4,84,433.4,84.9L433.4,84.9z"/>
	<path class="st5" d="M454.2,69.3c-1.5,2.2-2.7,4.1-3.8,5.7l-2.8,4.1c-0.8,1.2-1.4,2.1-1.9,2.8s-0.9,1.3-1.2,1.8
		c-0.2,0.4-0.4,0.8-0.5,1.2c-0.1,0.2-0.2,0.5-0.2,0.7c0,0.4,0.2,0.6,0.5,0.6c0.5,0,1-0.2,1.4-0.5c0.6-0.4,1.2-0.9,1.8-1.4
		c0.7-0.6,1.3-1.3,1.9-2c0.7-0.8,1.3-1.6,1.9-2.5l0.3,0.1c-0.6,0.8-1.2,1.6-1.9,2.4c-0.6,0.7-1.2,1.4-1.9,2
		c-0.6,0.6-1.3,1.2-2.1,1.7c-0.5,0.3-1,0.5-1.6,0.5c-0.4,0-0.8-0.1-1.1-0.3c-0.2-0.2-0.3-0.6-0.3-0.9c0-0.4,0.1-0.7,0.2-1.1
		c0.2-0.5,0.4-0.9,0.6-1.3c0.3-0.5,0.7-1.1,1.2-1.9l1.8-2.7l2.5-3.8c1-1.5,2.1-3.2,3.3-5.2L454.2,69.3z"/>
</g>
</svg>
