<svg width="19" height="20" viewBox="0 0 19 20" fill="none" xmlns="http://www.w3.org/2000/svg">
<path d="M14.6293 15.3977H4.37073V16.2501H14.6293V15.3977Z" fill="#FFFEFE"/>
<path d="M14.6293 11.9409H4.37073V12.7933H14.6293V11.9409Z" fill="#FFFEFE"/>
<path d="M14.6293 8.48438H4.37073V9.33699H14.6293V8.48438Z" fill="#FFFEFE"/>
<path d="M14.6293 5.02832H9.79407V5.88066H14.6293V5.02832Z" fill="#FFFEFE"/>
<path d="M16.491 0H8.0067C7.39761 0 6.8134 0.210547 6.38269 0.584727L1.09035 5.18703C0.659552 5.56152 0.417603 6.06969 0.417603 6.59937V18.1814C0.417603 19.1841 1.35598 20 2.50916 20H16.491C17.644 20 18.5823 19.1841 18.5823 18.1814V1.81805C18.5824 0.815547 17.644 0 16.491 0ZM7.26522 1.26363V5.3516C7.26522 5.79352 7.06734 5.96574 6.55914 5.96574H1.85775L7.26522 1.26363ZM17.4063 18.1814C17.4063 18.6204 16.9955 18.9772 16.491 18.9772H2.50916C2.00438 18.9772 1.59366 18.6204 1.59366 18.1814V6.87492H7.18886C7.80743 6.87492 8.31091 6.43715 8.31091 5.89895V1.02281H16.491C16.9955 1.02281 17.4063 1.37934 17.4063 1.81805V18.1814Z" fill="#FFFEFE"/>
</svg>
