<svg width="588" height="250" viewBox="0 0 588 250" fill="none" xmlns="http://www.w3.org/2000/svg">
<rect width="588" height="250" fill="white"/>
<circle cx="196.5" cy="125.5" r="58.5" fill="#C7AF9A"/>
<path d="M196.711 158H173.32V153.359L184.359 141.594C185.875 139.938 186.992 138.492 187.711 137.258C188.445 136.023 188.812 134.852 188.812 133.742C188.812 132.227 188.43 131.039 187.664 130.18C186.898 129.305 185.805 128.867 184.383 128.867C182.852 128.867 181.641 129.398 180.75 130.461C179.875 131.508 179.438 132.891 179.438 134.609H172.641C172.641 132.531 173.133 130.633 174.117 128.914C175.117 127.195 176.523 125.852 178.336 124.883C180.148 123.898 182.203 123.406 184.5 123.406C188.016 123.406 190.742 124.25 192.68 125.938C194.633 127.625 195.609 130.008 195.609 133.086C195.609 134.773 195.172 136.492 194.297 138.242C193.422 139.992 191.922 142.031 189.797 144.359L182.039 152.539H196.711V158ZM206.243 152.24V148.592H210.395V152.24H206.243ZM221.555 152.24H213.347V148.592H219.683V145.928H213.347V143.072H220.235V140.312H206.675C206.987 139.664 207.251 139.016 207.467 138.344L204.562 137.6C203.531 140.696 201.683 143.768 199.523 145.592C200.219 146 201.443 146.96 201.995 147.44C203.123 146.312 204.275 144.776 205.259 143.072H210.395V145.928H203.387V152.24H199.595V154.976H210.395V160.112H213.347V154.976H221.555V152.24Z" fill="white"/>
<path d="M165.608 94.79C164.672 97.346 163.034 99.902 161.36 101.522C161.72 102.044 162.314 103.196 162.512 103.718C162.98 103.232 163.43 102.692 163.88 102.116V111.53H165.914V98.984C166.562 97.832 167.12 96.608 167.588 95.438L165.608 94.79ZM169.982 97.418H175.256V99.83H169.982V97.418ZM178.28 105.284V103.34H173.636V101.72H177.398V95.528H167.948V101.72H171.476V103.34H166.76V105.284H170.45C169.334 106.868 167.732 108.326 166.112 109.172C166.598 109.586 167.264 110.36 167.588 110.882C169.01 109.964 170.378 108.596 171.476 107.012V111.566H173.636V106.922C174.662 108.524 175.976 109.982 177.29 110.918C177.632 110.378 178.316 109.622 178.802 109.208C177.29 108.326 175.742 106.85 174.68 105.284H178.28ZM185.624 95.312H180.548V96.932H185.624V95.312ZM183.914 107.102V109.154H182.186V107.102H183.914ZM185.75 105.41H180.386V111.548H182.186V110.846H185.75V105.41ZM180.44 104.492H185.624V102.872H180.44V104.492ZM185.624 100.37H180.44V101.972H185.624V100.37ZM179.594 99.488H186.272V97.796H179.594V99.488ZM192.896 108.938V103.97H196.01V101.954H192.896V97.706H196.1V95.672H186.83V97.706H190.79V108.938H189.422V100.406H187.424V108.938H186.326V110.936H196.442V108.938H192.896ZM201.14 104.204H203.372V105.428H201.14V104.204ZM203.372 98.75V99.794H201.14V98.75H203.372ZM201.14 101.432H203.372V102.566H201.14V101.432ZM206.432 105.428H205.334V98.75H206.558V96.878H205.334V94.97H203.372V96.878H201.14V94.97H199.214V96.878H197.81V98.75H199.214V105.428H197.594V107.3H206.432V105.428ZM199.826 107.426C199.322 108.506 198.386 109.64 197.45 110.342C197.936 110.63 198.764 111.242 199.16 111.62C200.132 110.738 201.194 109.334 201.824 108.02L199.826 107.426ZM209.15 103.7C209.168 103.142 209.168 102.62 209.168 102.152V101.486H211.76V103.7H209.15ZM211.76 97.49V99.596H209.168V97.49H211.76ZM213.83 95.546H207.17V102.152C207.17 104.492 207.08 107.534 206.036 109.784C205.586 109.046 204.74 108.056 204.092 107.336L202.472 108.218C203.174 109.046 204.038 110.234 204.398 110.936L205.892 110.09C205.838 110.198 205.766 110.288 205.712 110.396C206.18 110.576 207.062 111.224 207.404 111.602C208.376 109.982 208.826 107.732 209.024 105.608H211.76V109.154C211.76 109.442 211.67 109.532 211.4 109.532C211.148 109.532 210.284 109.55 209.51 109.496C209.78 110.036 210.05 110.972 210.122 111.53C211.454 111.548 212.372 111.494 213.002 111.152C213.632 110.81 213.83 110.252 213.83 109.19V95.546ZM221.354 96.986V97.94H218.582V96.986H221.354ZM218.582 100.406V99.38H221.354V100.406H218.582ZM223.352 101.936V95.438H216.458V111.566H218.582V101.936H223.352ZM226.628 100.442V99.38H229.49V100.442H226.628ZM229.49 96.986V97.94H226.628V96.986H229.49ZM222.47 108.326V107.21H225.44V108.326H222.47ZM225.44 105.68H222.47V104.6H225.44V105.68ZM231.65 95.438H224.594V101.972H229.49V109.01C229.49 109.298 229.382 109.406 229.058 109.406C228.824 109.424 228.158 109.424 227.456 109.406V103.034L221.408 103.016V103.034H220.526V110.81H222.47V109.892H226.934C227.15 110.45 227.348 111.116 227.402 111.566C228.95 111.566 229.994 111.512 230.696 111.152C231.416 110.81 231.65 110.18 231.65 109.028V95.438Z" fill="white"/>
<path d="M294.488 127.488H309.08V122.592H294.488V108H289.592V122.592H275V127.488H289.592V142.08H294.488V127.488Z" fill="#C7AF9A"/>
<path d="M332.408 139.219L334.377 121.875H353.502V127.523H339.932L339.088 134.859C340.697 134 342.408 133.57 344.221 133.57C347.471 133.57 350.018 134.578 351.861 136.594C353.705 138.609 354.627 141.43 354.627 145.055C354.627 147.258 354.158 149.234 353.221 150.984C352.299 152.719 350.971 154.07 349.236 155.039C347.502 155.992 345.455 156.469 343.096 156.469C341.033 156.469 339.119 156.055 337.354 155.227C335.588 154.383 334.189 153.203 333.158 151.688C332.143 150.172 331.604 148.445 331.541 146.508H338.244C338.385 147.93 338.877 149.039 339.721 149.836C340.58 150.617 341.697 151.008 343.072 151.008C344.604 151.008 345.783 150.461 346.611 149.367C347.439 148.258 347.854 146.695 347.854 144.68C347.854 142.742 347.377 141.258 346.424 140.227C345.471 139.195 344.119 138.68 342.369 138.68C340.76 138.68 339.455 139.102 338.455 139.945L337.799 140.555L332.408 139.219ZM381.932 141.891C381.932 146.609 380.955 150.219 379.002 152.719C377.049 155.219 374.189 156.469 370.424 156.469C366.705 156.469 363.861 155.242 361.893 152.789C359.924 150.336 358.916 146.82 358.869 142.242V135.961C358.869 131.195 359.854 127.578 361.822 125.109C363.807 122.641 366.658 121.406 370.377 121.406C374.096 121.406 376.939 122.633 378.908 125.086C380.877 127.523 381.885 131.031 381.932 135.609V141.891ZM375.158 135C375.158 132.172 374.768 130.117 373.986 128.836C373.221 127.539 372.018 126.891 370.377 126.891C368.783 126.891 367.604 127.508 366.838 128.742C366.088 129.961 365.689 131.875 365.643 134.484V142.781C365.643 145.562 366.018 147.633 366.768 148.992C367.533 150.336 368.752 151.008 370.424 151.008C372.08 151.008 373.275 150.359 374.01 149.062C374.744 147.766 375.127 145.781 375.158 143.109V135ZM409.494 141.891C409.494 146.609 408.518 150.219 406.564 152.719C404.611 155.219 401.752 156.469 397.986 156.469C394.268 156.469 391.424 155.242 389.455 152.789C387.486 150.336 386.479 146.82 386.432 142.242V135.961C386.432 131.195 387.416 127.578 389.385 125.109C391.369 122.641 394.221 121.406 397.939 121.406C401.658 121.406 404.502 122.633 406.471 125.086C408.439 127.523 409.447 131.031 409.494 135.609V141.891ZM402.721 135C402.721 132.172 402.33 130.117 401.549 128.836C400.783 127.539 399.58 126.891 397.939 126.891C396.346 126.891 395.166 127.508 394.4 128.742C393.65 129.961 393.252 131.875 393.205 134.484V142.781C393.205 145.562 393.58 147.633 394.33 148.992C395.096 150.336 396.314 151.008 397.986 151.008C399.643 151.008 400.838 150.359 401.572 149.062C402.307 147.766 402.689 145.781 402.721 143.109V135ZM434.328 140.112V137.304H413.232V140.112H418.824C418.656 145.896 418.464 152.28 412.296 155.736C413.04 156.288 413.928 157.272 414.36 158.04C418.824 155.352 420.552 151.2 421.296 146.76H429.288C429.024 151.896 428.64 154.248 428.016 154.848C427.704 155.112 427.392 155.16 426.888 155.16C426.168 155.16 424.536 155.16 422.88 155.016C423.408 155.808 423.816 157.008 423.888 157.824C425.472 157.896 427.128 157.92 428.064 157.8C429.144 157.68 429.912 157.44 430.632 156.6C431.568 155.544 431.976 152.64 432.336 145.272C432.384 144.912 432.408 144 432.408 144H421.632C421.752 142.704 421.8 141.384 421.848 140.112H434.328ZM449.112 146.064V140.016H455.112V146.064H449.112ZM440.616 140.016H446.28V146.064H440.616V140.016ZM457.992 137.184H437.736V158.064H440.616V148.896H455.112V154.704C455.112 155.112 454.944 155.256 454.488 155.28C454.008 155.28 452.448 155.304 451.08 155.208C451.488 155.952 451.968 157.272 452.112 158.064C454.248 158.064 455.688 158.016 456.648 157.536C457.656 157.08 457.992 156.288 457.992 154.728V137.184Z" fill="#C7AF9A"/>
<path d="M341.86 95.436H334.228V94.698H341.86V95.436ZM341.86 97.488H334.228V96.732H341.86V97.488ZM344.002 93.33H332.176V98.856H344.002V93.33ZM342.976 103.518C342.652 104.166 342.238 104.76 341.752 105.282C341.266 104.76 340.852 104.166 340.546 103.518H342.976ZM333.436 105.66H335.776V106.362C334.984 106.434 334.192 106.488 333.436 106.542V105.66ZM333.436 103.428H335.776V104.184H333.436V103.428ZM335.776 101.214V101.934H333.436V101.214H335.776ZM344.236 101.808L343.876 101.88H338.278V103.518H339.934L338.746 103.842C339.178 104.832 339.736 105.732 340.384 106.506C339.628 107.064 338.746 107.496 337.828 107.802V101.214H346.072V99.522H330.07V101.214H331.474V106.686C330.916 106.74 330.376 106.758 329.908 106.794L330.07 108.63C331.654 108.486 333.706 108.306 335.776 108.108V109.566H337.828V108.108C338.188 108.54 338.584 109.134 338.782 109.548C339.898 109.134 340.924 108.576 341.842 107.874C342.796 108.612 343.912 109.17 345.19 109.548C345.478 109.044 346.036 108.27 346.45 107.874C345.262 107.586 344.182 107.136 343.282 106.542C344.29 105.408 345.064 104.004 345.55 102.312L344.236 101.808ZM364.072 99.792V97.578H356.998C357.178 95.904 357.196 94.248 357.214 92.772H354.874C354.856 94.248 354.874 95.886 354.694 97.578H348.142V99.792H354.334C353.632 102.888 351.922 105.876 347.8 107.712C348.43 108.162 349.06 108.936 349.402 109.53C353.218 107.694 355.162 104.886 356.134 101.88C357.538 105.354 359.626 107.982 362.884 109.512C363.226 108.9 363.928 107.946 364.468 107.496C361.102 106.128 358.924 103.302 357.736 99.792H364.072Z" fill="#C7AF9A"/>
</svg>
