<svg width="52" height="19" viewBox="0 0 52 19" fill="none" xmlns="http://www.w3.org/2000/svg">
<g clip-path="url(#clip0)">
<path d="M3.42843 1.5V4.35712H1.71415V16.3572H0.571289V17.5H15.4284V16.3572H14.2856V4.35712H12.5713V1.5H3.42843ZM5.99986 3.21431L6.26437 3.77903L6.857 3.86952L6.42843 4.30815L6.52999 4.92869L5.99986 4.63625L5.46973 4.92869L5.57129 4.30815L5.14272 3.86952L5.73535 3.77903L5.99986 3.21431ZM7.99986 3.21431L8.26437 3.77903L8.857 3.86952L8.42843 4.30815L8.52999 4.92869L7.99986 4.63625L7.46973 4.92869L7.57129 4.30815L7.14272 3.86952L7.73535 3.77903L7.99986 3.21431ZM9.99986 3.21431L10.2644 3.77903L10.857 3.86952L10.4284 4.30815L10.53 4.92869L9.99986 4.63625L9.46973 4.92869L9.57129 4.30815L9.14272 3.86952L9.73535 3.77903L9.99986 3.21431ZM3.99986 6.64287H5.14272V8.35712H3.99986V6.64287ZM6.28557 6.64287H7.42843V8.35712H6.28557V6.64287ZM8.57129 6.64287H9.71415V8.35712H8.57129V6.64287ZM10.857 6.64287H11.9999V8.35712H10.857V6.64287ZM3.99986 9.49999H5.14272V11.2143H3.99986V9.49999ZM6.28557 9.49999H7.42843V11.2143H6.28557V9.49999ZM8.57129 9.49999H9.71415V11.2143H8.57129V9.49999ZM10.857 9.49999H11.9999V11.2143H10.857V9.49999ZM5.71415 12.3571H7.42843V16.3572H5.71415V12.3571ZM8.57129 12.3571H10.2856V16.3572H8.57129V12.3571Z" fill="white"/>
</g>
<path d="M26.544 9.544H31.808V8.44H26.544V3.176H25.456V8.44H20.192V9.544H25.456V14.808H26.544V9.544Z" fill="white"/>
<path d="M43.0578 2.38336C43.0594 1.2 44.8399 1.2 44.842 2.41648V7.36944L51.7788 11.5467V13.3726L44.8753 11.1051V14.807L46.4677 16.0573V17.5L44.0081 16.7414L41.5404 17.5V16.0573L43.1244 14.807V11.1051L36.2207 13.3728V11.5467L43.0578 7.36944V2.38336Z" fill="white"/>
<defs>
<clipPath id="clip0">
<rect width="16" height="16" fill="white" transform="translate(0 1.5)"/>
</clipPath>
</defs>
</svg>
