<svg width="20" height="20" viewBox="0 0 20 20" fill="none" xmlns="http://www.w3.org/2000/svg">
<path d="M5.93758 4.66669C6.43758 4.66669 6.83341 4.27085 6.83341 3.77085V3.29169H12.2501V1.50002H6.83341V1.02085C6.83341 0.520852 6.43758 0.125019 5.93758 0.125019C5.43758 0.125019 5.04175 0.520852 5.04175 1.02085V3.77085C5.04175 4.27085 5.43758 4.66669 5.93758 4.66669Z" fill="white"/>
<path d="M16.4376 1.50002H14.9584V1.02085C14.9584 0.520852 14.5626 0.125019 14.0626 0.125019C13.5626 0.125019 13.1667 0.520852 13.1667 1.02085V3.77085C13.1667 4.27085 13.5626 4.66669 14.0626 4.66669C14.5626 4.66669 14.9584 4.27085 14.9584 3.77085V3.29169H16.4376C17.3542 3.29169 18.0834 4.02085 18.0834 4.93752V6.25002H1.89591V4.93752C1.89591 4.02085 2.62508 3.29169 3.54175 3.29169H4.12508V1.50002H3.54175C1.64591 1.50002 0.104248 3.04169 0.104248 4.93752V16.4375C0.104248 18.3334 1.64591 19.875 3.54175 19.875H16.4376C18.3542 19.875 19.8959 18.3334 19.8959 16.4375V4.93752C19.8959 3.04169 18.3542 1.50002 16.4376 1.50002ZM18.1042 16.4375C18.1042 17.3542 17.3751 18.0834 16.4584 18.0834H3.54175C2.62508 18.0834 1.89591 17.3542 1.89591 16.4375V8.04169H18.0834V16.4375H18.1042Z" fill="white"/>
<path d="M4.29167 12.1458H6.39583C6.70833 12.1458 6.9375 11.8958 6.9375 11.6042V10.3958C6.9375 10.0833 6.6875 9.85418 6.39583 9.85418H4.29167C3.97917 9.85418 3.75 10.1042 3.75 10.3958V11.6042C3.75 11.8958 3.97917 12.1458 4.29167 12.1458Z" fill="white"/>
<path d="M8.93766 12.1458H11.0418C11.3543 12.1458 11.5835 11.8958 11.5835 11.6042V10.3958C11.5835 10.0833 11.3335 9.85418 11.0418 9.85418H8.93766C8.62516 9.85418 8.396 10.1042 8.396 10.3958V11.6042C8.396 11.8958 8.646 12.1458 8.93766 12.1458Z" fill="white"/>
<path d="M13.6044 12.1458H15.7086C16.0211 12.1458 16.2502 11.8958 16.2502 11.6042V10.3958C16.2502 10.0833 16.0002 9.85418 15.7086 9.85418H13.6044C13.2919 9.85418 13.0627 10.1042 13.0627 10.3958V11.6042C13.0419 11.8958 13.2919 12.1458 13.6044 12.1458Z" fill="white"/>
<path d="M4.29167 16.25H6.39583C6.70833 16.25 6.9375 16 6.9375 15.7083V14.5C6.9375 14.1875 6.6875 13.9583 6.39583 13.9583H4.29167C3.97917 13.9583 3.75 14.2083 3.75 14.5V15.7083C3.75 16.0208 3.97917 16.25 4.29167 16.25Z" fill="white"/>
<path d="M8.93766 16.25H11.0418C11.3543 16.25 11.5835 16 11.5835 15.7083V14.5C11.5835 14.1875 11.3335 13.9583 11.0418 13.9583H8.93766C8.62516 13.9583 8.396 14.2083 8.396 14.5V15.7083C8.396 16.0208 8.646 16.25 8.93766 16.25Z" fill="white"/>
<path d="M13.6044 16.25H15.7086C16.0211 16.25 16.2502 16 16.2502 15.7083V14.5C16.2502 14.1875 16.0002 13.9583 15.7086 13.9583H13.6044C13.2919 13.9583 13.0627 14.2083 13.0627 14.5V15.7083C13.0419 16.0208 13.2919 16.25 13.6044 16.25Z" fill="white"/>
</svg>
