<svg width="16" height="17" viewBox="0 0 16 17" fill="none" xmlns="http://www.w3.org/2000/svg">
<g clip-path="url(#clip0)">
<path d="M3.42843 0.5V3.35712H1.71415V15.3572H0.571289V16.5H15.4284V15.3572H14.2856V3.35712H12.5713V0.5H3.42843ZM5.99986 2.21431L6.26437 2.77903L6.857 2.86952L6.42843 3.30815L6.52999 3.92869L5.99986 3.63625L5.46973 3.92869L5.57129 3.30815L5.14272 2.86952L5.73535 2.77903L5.99986 2.21431ZM7.99986 2.21431L8.26437 2.77903L8.857 2.86952L8.42843 3.30815L8.52999 3.92869L7.99986 3.63625L7.46973 3.92869L7.57129 3.30815L7.14272 2.86952L7.73535 2.77903L7.99986 2.21431ZM9.99986 2.21431L10.2644 2.77903L10.857 2.86952L10.4284 3.30815L10.53 3.92869L9.99986 3.63625L9.46973 3.92869L9.57129 3.30815L9.14272 2.86952L9.73535 2.77903L9.99986 2.21431ZM3.99986 5.64287H5.14272V7.35712H3.99986V5.64287ZM6.28557 5.64287H7.42843V7.35712H6.28557V5.64287ZM8.57129 5.64287H9.71415V7.35712H8.57129V5.64287ZM10.857 5.64287H11.9999V7.35712H10.857V5.64287ZM3.99986 8.49999H5.14272V10.2143H3.99986V8.49999ZM6.28557 8.49999H7.42843V10.2143H6.28557V8.49999ZM8.57129 8.49999H9.71415V10.2143H8.57129V8.49999ZM10.857 8.49999H11.9999V10.2143H10.857V8.49999ZM5.71415 11.3571H7.42843V15.3572H5.71415V11.3571ZM8.57129 11.3571H10.2856V15.3572H8.57129V11.3571Z" fill="white"/>
</g>
<defs>
<clipPath id="clip0">
<rect width="16" height="16" fill="white" transform="translate(0 0.5)"/>
</clipPath>
</defs>
</svg>
