<svg width="26" height="17" viewBox="0 0 26 17" fill="none" xmlns="http://www.w3.org/2000/svg">
<path d="M16.127 9.71826C16.127 11.8299 17.7919 12.8655 19.132 12.8655C20.4721 12.8655 22.1371 11.8299 22.1371 9.71826C22.1371 8.07359 20.5127 6.75379 19.132 5.96191C17.7716 6.7741 16.127 8.07359 16.127 9.71826Z" fill="white"/>
<path d="M3.8833 9.75879C3.8833 11.8705 5.54828 12.906 6.88838 12.906C8.22848 12.906 9.89345 11.8705 9.89345 9.75879C9.89345 8.11412 8.26909 6.79432 6.88838 6.00244C5.50767 6.79432 3.8833 8.11412 3.8833 9.75879Z" fill="white"/>
<path d="M0.735922 0.5V16.5H25.2638V0.5H0.735922ZM25.2435 4.39848C23.7613 4.39848 21.9745 4.68274 20.5735 5.29188C22.0963 6.30711 23.5583 7.82995 23.5583 9.77919C23.5583 12.3376 21.406 14.2868 19.0506 14.2868C16.6953 14.2868 14.6039 12.3376 14.6039 9.77919C14.6039 7.85025 16.005 6.30711 17.5075 5.29188C16.1065 4.68274 14.4618 4.39848 12.9796 4.39848C11.4973 4.39848 9.85267 4.68274 8.45166 5.29188C9.9745 6.30711 11.3552 7.82995 11.3552 9.77919C11.3552 12.3376 9.28415 14.2868 6.90851 14.2868C4.55318 14.2868 2.36029 12.3376 2.36029 9.77919C2.36029 7.85025 3.86283 6.30711 5.36536 5.29188C3.96435 4.68274 2.17755 4.39848 0.695312 4.39848V2.99746C3.19277 2.99746 5.38567 3.6269 6.88821 4.39848C8.39074 3.6269 10.4618 2.99746 12.9593 2.99746C15.4567 2.99746 17.5278 3.6269 19.01 4.39848C20.5126 3.6269 22.7258 2.99746 25.2029 2.99746V4.39848H25.2435Z" fill="white"/>
</svg>
