<svg width="31" height="21" viewBox="0 0 31 21" fill="none" xmlns="http://www.w3.org/2000/svg">
<g id="icon/free call" clip-path="url(#clip0_219_768)">
<g id="Group">
<path id="Vector" d="M19.2388 12.0226C19.2388 14.6622 21.32 15.9566 22.9951 15.9566C24.6702 15.9566 26.7515 14.6622 26.7515 12.0226C26.7515 9.96674 24.721 8.317 22.9951 7.32715C21.2946 8.34238 19.2388 9.96674 19.2388 12.0226Z" fill="#644F21"/>
<path id="Vector_2" d="M3.93408 12.0734C3.93408 14.713 6.0153 16.0074 7.69043 16.0074C9.36555 16.0074 11.4468 14.713 11.4468 12.0734C11.4468 10.0175 9.41632 8.36778 7.69043 7.37793C5.96454 8.36778 3.93408 10.0175 3.93408 12.0734Z" fill="#644F21"/>
<path id="Vector_3" d="M-1.98237e-05 0.5V20.5H30.6599V0.5H-1.98237e-05ZM30.6345 5.3731C28.7817 5.3731 26.5482 5.72843 24.7969 6.48985C26.7005 7.75888 28.5279 9.66244 28.5279 12.099C28.5279 15.297 25.8375 17.7335 22.8934 17.7335C19.9492 17.7335 17.335 15.297 17.335 12.099C17.335 9.68782 19.0863 7.75888 20.9644 6.48985C19.2132 5.72843 17.1573 5.3731 15.3045 5.3731C13.4518 5.3731 11.3959 5.72843 9.64465 6.48985C11.5482 7.75888 13.2741 9.66244 13.2741 12.099C13.2741 15.297 10.6853 17.7335 7.71572 17.7335C4.77155 17.7335 2.03044 15.297 2.03044 12.099C2.03044 9.68782 3.90861 7.75888 5.78678 6.48985C4.03551 5.72843 1.80201 5.3731 -0.0507812 5.3731V3.62183C3.07105 3.62183 5.81216 4.40863 7.69034 5.3731C9.56851 4.40863 12.1573 3.62183 15.2792 3.62183C18.401 3.62183 20.9898 4.40863 22.8426 5.3731C24.7208 4.40863 27.4873 3.62183 30.5837 3.62183V5.3731H30.6345Z" fill="#644F21"/>
</g>
</g>
<defs>
<clipPath id="clip0_219_768">
<rect width="30.6599" height="20" fill="white" transform="translate(0 0.5)"/>
</clipPath>
</defs>
</svg>
