<svg width="36" height="41" viewBox="0 0 36 41" fill="none" xmlns="http://www.w3.org/2000/svg">
<g id="voice-quot-left" clip-path="url(#clip0_142_1293)">
<path id="&#227;&#131;&#145;&#227;&#130;&#185; 19375" d="M13.4075 40.0029V27.0959H6.547C6.54877 25.7535 6.64591 24.413 6.8377 23.0843C7.00593 21.8118 7.37897 20.5749 7.94235 19.4215C8.43224 18.4018 9.14803 17.507 10.0354 16.8052C10.978 16.1178 12.1255 15.7695 13.2912 15.8169V10.0029C11.3022 9.95767 9.33654 10.439 7.59351 11.3983C5.98542 12.3101 4.6119 13.5841 3.58188 15.1192C2.49206 16.7693 1.70459 18.6002 1.2563 20.5262C0.741076 22.6777 0.487306 24.8836 0.500488 27.0959V40.0029H13.4075ZM34.6865 40.0029V27.0959H27.8261C27.8278 25.7535 27.925 24.413 28.1168 23.0843C28.285 21.8118 28.658 20.5749 29.2214 19.4215C29.7113 18.4018 30.4271 17.507 31.3144 16.8052C32.2571 16.1178 33.4045 15.7695 34.5703 15.8169V10.0029C32.5812 9.95767 30.6156 10.439 28.8726 11.3983C27.2645 12.3101 25.891 13.5841 24.861 15.1192C23.7711 16.7693 22.9837 18.6002 22.5354 20.5262C22.0201 22.6777 21.7664 24.8836 21.7796 27.0959V40.0029H34.6865Z" fill="#D4C29B"/>
</g>
<defs>
<clipPath id="clip0_142_1293">
<rect width="35" height="41" fill="white" transform="translate(0.5)"/>
</clipPath>
</defs>
</svg>
