<svg width="36" height="40" viewBox="0 0 36 40" fill="none" xmlns="http://www.w3.org/2000/svg">
<g id="voice-quot-right" clip-path="url(#clip0_142_1297)">
<path id="&#227;&#131;&#145;&#227;&#130;&#185; 19376" d="M1 0V12.907H7.86046C7.85869 14.2494 7.76155 15.59 7.56977 16.9186C7.40153 18.1911 7.02849 19.428 6.46512 20.5814C5.97522 21.6011 5.25943 22.4959 4.37209 23.1977C3.42946 23.8851 2.28199 24.2335 1.11628 24.186V30C3.1253 30.0595 5.11334 29.5775 6.87209 28.6047C8.45507 27.6802 9.80701 26.4078 10.8256 24.8837C11.9154 23.2336 12.7029 21.4028 13.1512 19.4767C13.6664 17.3252 13.9202 15.1193 13.907 12.907V0H1ZM22.2791 0V12.907H29.1395C29.1378 14.2494 29.0406 15.59 28.8488 16.9186C28.6806 18.1911 28.3076 19.428 27.7442 20.5814C27.2543 21.6011 26.5385 22.4959 25.6512 23.1977C24.7085 23.8851 23.5611 24.2335 22.3953 24.186V30C24.4044 30.0595 26.3924 29.5775 28.1512 28.6047C29.7341 27.6802 31.0861 26.4078 32.1046 24.8837C33.1945 23.2336 33.9819 21.4028 34.4302 19.4767C34.9455 17.3252 35.1992 15.1193 35.186 12.907V0H22.2791Z" fill="#D4C29B"/>
</g>
<defs>
<clipPath id="clip0_142_1297">
<rect width="35" height="40" fill="white" transform="translate(0.5)"/>
</clipPath>
</defs>
</svg>
