<svg width="67" height="75" viewBox="0 0 67 75" fill="none" xmlns="http://www.w3.org/2000/svg">
<g id="&#228;&#186;&#186;&#231;&#137;&#169;">
<g id="Group 1134">
<path id="Vector" d="M16.0572 28.8629C16.0864 28.84 16.0864 28.84 16.0572 28.8629Z" fill="#D4C29B"/>
<path id="Vector_2" d="M49.9709 41.8343C49.9709 41.8343 49.9709 41.8343 49.9709 41.8311C49.99 41.8825 49.9804 41.8665 49.9709 41.8343Z" fill="#D4C29B"/>
<path id="Vector_3" d="M16.4998 27.8459C16.4998 27.8459 16.4998 27.8362 16.4998 27.833C16.519 27.9363 16.4998 27.8814 16.4998 27.8459Z" fill="#D4C29B"/>
<path id="Vector_4" d="M49.9676 41.8292C49.9676 41.8292 49.9676 41.822 49.9676 41.8184C49.9676 41.822 49.9676 41.8256 49.9712 41.8292C49.9712 41.8292 49.9712 41.8292 49.9712 41.8328C49.9712 41.8328 49.9712 41.8328 49.9712 41.8256L49.9676 41.8292Z" fill="#D4C29B"/>
<path id="Vector_5" d="M27.9141 27.3613C27.9493 27.3678 27.9653 27.3678 27.9141 27.3613Z" fill="#D4C29B"/>
<path id="Vector_6" d="M49.9613 41.8037C49.9613 41.8037 49.9613 41.7777 49.9678 41.7744C49.9678 41.7744 49.9678 41.7972 49.9678 41.82C49.9678 41.82 49.9678 41.82 49.9678 41.8167C49.9678 41.8135 49.9678 41.807 49.9645 41.8037H49.9613Z" fill="#D4C29B"/>
<path id="Vector_7" d="M50.2095 44.7373C50.1999 44.8449 50.184 44.8513 50.1999 44.7975C50.2063 44.7785 50.2063 44.7563 50.2095 44.7373Z" fill="#D4C29B"/>
<path id="Vector_8" d="M49.9775 41.8213C49.9775 41.8213 49.9775 41.8282 49.9741 41.8317C49.9741 41.8317 49.9741 41.8248 49.9775 41.8248V41.8213Z" fill="#D4C29B"/>
<path id="Vector_9" d="M15.8062 26.9629C15.9048 27.0104 15.9907 27.0642 16.0766 27.1275C16.1529 27.1908 16.2229 27.2668 16.2897 27.3428C16.3374 27.4187 16.3819 27.501 16.4296 27.577C16.4582 27.6593 16.4869 27.7448 16.5028 27.8302C16.5028 27.8334 16.5028 27.8397 16.5028 27.8461C16.5028 27.9031 16.5091 28.0645 16.5059 28.0835C16.5059 28.0898 16.5059 28.0962 16.5059 28.0993C16.4869 28.188 16.4646 28.2766 16.436 28.3621C16.3851 28.4665 16.331 28.5678 16.261 28.6628C16.2006 28.7324 16.1243 28.8021 16.0543 28.8654C16.048 28.8685 16.0448 28.8717 16.0384 28.878C16.0384 28.878 16.0321 28.8812 16.0289 28.8844C15.9716 28.2418 15.8985 27.5992 15.8094 26.9629H15.8062Z" fill="#D4C29B"/>
<path id="Vector_10" d="M13.3862 79.1081C14.2672 74.0464 15.1482 68.9816 16.026 63.9199C21.8558 65.05 27.6824 66.1801 33.5122 67.307C31.8043 71.7483 30.0996 76.1895 28.3917 80.6307H13.1191C13.2081 80.1242 13.294 79.6177 13.3831 79.1081H13.3862Z" fill="white"/>
<path id="Vector_11" d="M1.46591 77.5322C2.01295 69.0739 2.55998 60.6188 3.10702 52.1606C3.13565 51.7174 2.7699 51.5211 2.42323 51.5654L2.63314 50.1061C2.98299 50.7741 3.46324 51.3787 4.05481 51.9042C4.65591 52.4391 5.54962 51.5559 4.94533 51.0178C4.81493 50.9039 4.69725 50.7836 4.58276 50.6633C4.79585 48.6278 5.5528 46.6051 7.18438 45.3515C7.28297 45.456 7.41973 45.532 7.59466 45.5478C11.513 45.8738 14.6648 42.3506 15.5331 38.8242C15.7494 38.9698 15.9593 39.1249 16.1628 39.2864C16.1628 39.4732 16.2519 39.6599 16.4586 39.7897C16.8021 40.0018 17.1329 40.2234 17.4605 40.4545C17.6004 40.5906 17.7372 40.7299 17.8771 40.866C17.7372 40.7267 17.6004 40.5906 17.4605 40.4545C24.7437 45.801 29.0532 55.2596 30.4876 63.9774C30.5353 64.2877 30.7452 64.4238 30.9806 64.4301C31.0824 64.8163 31.2128 65.1962 31.27 65.595C26.2608 64.6232 21.2547 63.6546 16.2455 62.6827C16.5031 61.2076 16.7576 59.7356 17.0152 58.2605C17.1519 57.4723 15.9402 57.1336 15.8003 57.9281C14.4835 65.4937 13.17 73.0593 11.8533 80.6249H1.26872C1.33551 79.593 1.4023 78.561 1.46909 77.5259L1.46591 77.5322ZM11.4208 47.1812C12.6357 47.6465 13.698 48.3113 14.5185 49.3116C15.425 50.4164 15.9338 51.8725 16.2996 53.259C16.5063 54.0409 17.7181 53.7053 17.5145 52.9266C17.0915 51.3122 16.4809 49.7294 15.4091 48.4252C14.4517 47.2635 13.1477 46.5069 11.7579 45.9751C11.4398 45.8517 11.0677 46.1112 10.985 46.412C10.8896 46.7602 11.1091 47.0609 11.4239 47.1812H11.4208Z" fill="#BDBDBD"/>
<path id="Vector_12" d="M44.2527 69.7984C44.2623 69.1495 44.275 68.5005 44.2941 67.8516L47.0547 59.8682C47.0611 59.9568 47.077 60.0454 47.1311 60.1404C47.8212 61.3939 48.505 62.6728 49.3733 63.8156C51.1607 66.3385 53.3584 66.3417 55.7978 64.4962C56.0841 64.2872 56.364 64.0656 56.6279 63.8441C56.4085 68.4847 56.2844 73.1317 56.0491 77.7692C55.8455 80.004 54.2012 81.954 51.9813 82.3908C49.1379 82.9448 46.7367 80.8746 45.4645 78.5511C45.1973 78.0604 44.5962 78.2124 44.3768 78.5859L44.2559 78.4529C44.2178 75.5691 44.2146 72.6822 44.2559 69.7984H44.2527Z" fill="#BDBDBD"/>
<path id="Vector_13" d="M17.8676 18.3241C21.2643 15.8867 24.2031 12.4806 24.4798 8.17546C24.6229 7.24797 24.2476 6.31097 23.2776 5.72852C23.99 5.96593 24.7056 6.20334 25.418 6.30464C25.3067 6.67501 25.4975 7.13084 25.9905 7.10235C30.2046 6.85544 32.9875 10.5876 33.7095 14.3609C33.789 14.7756 34.1547 14.8769 34.4696 14.7724C34.5841 15.2662 34.6827 15.7506 34.7622 16.2317C34.67 16.3298 34.6095 16.4628 34.6064 16.6337C34.5587 18.8844 34.6127 21.1383 34.4473 23.3858C34.1961 26.8045 33.4073 30.8469 30.0011 32.5025C27.1068 33.9491 22.8546 32.7747 20.7332 30.4576C20.202 29.8466 19.3147 30.7361 19.8427 31.3439C21.91 33.5914 25.348 34.6962 28.344 34.3005C28.3122 34.4208 28.2931 34.5379 28.2836 34.6582C27.9878 34.6772 27.7048 34.8766 27.7048 35.2596C27.7111 36.643 27.9115 38.0738 28.7543 39.2134C29.5303 40.258 30.6181 41.0177 31.5945 41.8629C31.8521 42.0845 32.2306 42.1162 32.485 41.8629C32.8062 42.0972 33.1561 42.2871 33.4996 42.4802C33.2738 42.4644 33.0448 42.4517 32.8158 42.4517C33.0448 42.4517 33.2738 42.4612 33.4996 42.4802C33.56 42.5119 33.6172 42.5467 33.6745 42.5783C30.265 42.6163 26.8556 42.6575 23.4461 42.6955C23.0581 42.6986 22.8577 42.9867 22.8418 43.2874H22.4188C20.8636 41.5242 19.0953 39.9509 17.0852 38.7101C16.6018 38.4125 16.1501 38.8525 16.1565 39.2894C15.953 39.1279 15.7462 38.9728 15.5268 38.8272C16.236 36.0352 16.2646 33.0754 16.1247 30.217C17.1106 29.8751 17.8485 28.8875 17.7626 27.8238C17.6736 26.7412 16.7576 25.6934 15.6254 25.665C15.3455 23.7783 15.0211 21.8853 14.7698 19.9892C14.7921 19.9828 14.8143 19.9797 14.8334 19.9765C14.9129 19.9702 14.9893 19.9702 15.0688 19.9765C15.1578 19.9923 15.2437 20.0177 15.3296 20.0493C15.4123 20.0905 15.4918 20.1348 15.5681 20.1886C15.6317 20.2424 15.689 20.2994 15.743 20.3627C15.7908 20.4292 15.8321 20.502 15.8671 20.5748C16.1438 21.3472 17.2728 21.0243 17.0757 20.2298C16.9198 19.7834 16.624 19.4004 16.236 19.1313C16.6972 18.9984 17.1202 18.78 17.4446 18.4254C17.575 18.4507 17.7181 18.4254 17.8644 18.321L17.8676 18.3241ZM31.0633 16.8648C30.2523 16.8648 30.2523 18.1184 31.0633 18.1184C31.8743 18.1184 31.8743 16.8648 31.0633 16.8648ZM31.0442 21.7999C30.4527 21.3124 29.9947 20.6856 29.6894 19.986C29.6894 19.986 29.6894 19.986 29.6894 19.9797C29.5685 19.679 29.4763 19.3719 29.4095 19.0554C29.3395 18.7135 28.9515 18.5457 28.6366 18.6185C28.29 18.6976 28.1309 19.068 28.1977 19.3877C28.4617 20.6571 29.1678 21.8473 30.1569 22.6862C30.4241 22.9141 30.7803 22.9299 31.0474 22.6862C31.2828 22.4709 31.2987 22.0151 31.0474 21.7999H31.0442ZM25.6184 27.6497C27.0909 28.9856 29.5399 28.9413 31.0315 27.6719C31.5945 27.0736 30.7707 26.2348 30.141 26.7856C30.141 26.7856 30.0392 26.8647 30.0488 26.8615C29.8929 26.9755 29.7212 27.0673 29.5494 27.1528C29.3077 27.2509 29.0501 27.3174 28.7925 27.3617C28.4999 27.3902 28.2073 27.3933 27.9147 27.3617C27.6443 27.3174 27.3899 27.254 27.1323 27.1528C27.1037 27.1401 27.0464 27.1148 27.0496 27.1148C26.8969 27.042 26.7538 26.9533 26.6139 26.8584C26 26.1588 25.0204 26.9533 25.6184 27.6497ZM23.8564 19.2326C24.6674 19.2326 24.6674 17.9791 23.8564 17.9791C23.0454 17.9791 23.0454 19.2326 23.8564 19.2326Z" fill="white"/>
<path id="Vector_14" d="M3.3743 46.1042C4.21712 42.2296 6.72968 38.9564 7.61067 35.085C8.94011 29.7289 9.13094 24.1798 9.36629 18.6939C9.53167 12.3692 9.92605 6.09199 16.4046 3.01827C16.7927 2.82834 16.7895 2.43265 16.5955 2.15725C17.1075 2.01164 17.645 1.91984 18.1857 1.8407C18.2302 2.22689 18.666 2.60675 19.1398 2.38833C20.9082 1.57796 22.9119 1.41968 24.8138 1.78055C31.1016 2.98345 37.701 9.60572 35.9486 16.3736C35.8373 16.7978 36.1458 17.089 36.4829 17.1397C36.3016 17.7189 36.0408 18.2666 35.8468 18.8047C35.8468 18.0735 35.8468 17.3486 35.8659 16.6332C35.8786 15.9969 35.1026 15.8671 34.7623 16.2312C34.6828 15.75 34.5842 15.2657 34.4697 14.7718C34.7559 14.6769 34.9976 14.4046 34.9245 14.0279C34.1039 9.72601 30.7422 5.56968 25.9937 5.84825C25.6821 5.86724 25.4912 6.06667 25.4213 6.30092C24.7088 6.19645 23.9932 5.95904 23.2808 5.72479C24.254 6.30408 24.6293 7.24107 24.483 8.17174C24.1872 7.52914 23.3126 7.69374 23.2554 8.39016C22.7878 12.1413 20.2307 15.1137 17.2348 17.2378C16.7259 17.5987 16.9962 18.3362 17.451 18.4217C17.1234 18.7762 16.7004 18.9947 16.2424 19.1276C15.7845 18.7889 15.1834 18.6559 14.6204 18.7382C14.3215 16.0634 14.2197 13.3822 14.6713 10.6978C14.8049 9.90961 13.5899 9.5709 13.4564 10.3654C12.9507 13.379 13.062 16.4179 13.4373 19.441C14.1306 24.6546 15.3074 29.8524 14.8399 35.142C14.6745 37.4401 14.2515 39.7858 12.8171 41.6629C11.5767 43.2837 9.69706 44.4993 7.59159 44.2935C6.96186 44.2333 6.83146 44.9804 7.18131 45.3508C5.55291 46.6043 4.79596 48.6271 4.57969 50.6625C3.39656 49.4058 3.02445 47.8452 3.3743 46.101V46.1042Z" fill="#D4C29B"/>
<path id="Vector_15" d="M36.3016 68.3264C36.4542 67.4938 35.1598 67.2089 35.0771 68.0573C34.953 67.9497 34.8226 67.8389 34.6986 67.7218C34.7908 67.4812 34.8831 67.2438 34.9753 67.0032C35.0898 66.7056 34.8481 66.2941 34.5364 66.234C33.4487 66.0219 32.3578 65.8129 31.2701 65.6009C31.2128 65.202 31.0824 64.8221 30.9806 64.4359C31.3496 64.4454 31.7726 64.1321 31.6994 63.6509C31.3877 61.5901 30.8948 59.5579 30.2555 57.5731C28.5826 52.3848 26.0318 47.4118 22.4252 43.2871H22.8482C22.8291 43.6132 23.0295 43.955 23.4525 43.9487C23.9391 43.9424 24.4225 43.936 24.9091 43.9329C28.2582 43.8949 31.6072 43.8569 34.9594 43.8158L35.4078 44.7939C35.3697 44.9015 35.3697 45.0313 35.4269 45.1769C36.5019 47.9024 37.6278 50.6153 38.8873 53.2617C39.5202 54.5912 40.1722 55.946 40.433 57.4053C40.697 58.8963 40.5411 60.4601 40.4393 61.9573C40.0704 68.1744 39.8509 74.4073 39.6665 80.6307H33.9416C34.7304 76.5282 35.5223 72.4289 36.3111 68.3264H36.3016Z" fill="white"/>
<path id="Vector_16" d="M41.0721 75.7654C41.2597 70.6309 41.5523 65.5059 41.7845 60.3746C41.8481 58.9786 41.8227 57.5763 41.441 56.2214C41.0085 54.683 40.2483 53.2522 39.5773 51.8119C38.515 49.5264 37.5577 47.1902 36.6322 44.8477C36.3968 44.2494 35.5603 44.3444 35.4013 44.7971L34.9529 43.8189C35.0387 43.8189 35.1214 43.8189 35.2073 43.8126C35.2614 43.8854 35.3123 43.9582 35.36 44.0373C35.3123 43.9582 35.2582 43.8822 35.2073 43.8126C35.7035 43.7841 35.8752 43.2776 35.7289 42.9199C37.3668 43.4581 38.8044 44.4425 39.8635 45.7562C39.679 45.886 39.5741 46.1108 39.6695 46.3925C40.6459 49.2605 42.3347 51.834 43.327 54.6862C44.4306 57.8548 43.5179 61.166 43.2125 64.3853C43.0122 66.5125 43.0026 68.6619 42.9804 70.7955C43.009 74.0655 42.8341 77.3893 43.0885 80.6339H40.8876C40.9798 79.0163 40.9989 77.3893 41.0721 75.7685V75.7654Z" fill="#BDBDBD"/>
<path id="Vector_17" d="M33.7188 42.5776C33.7188 42.5776 33.6902 42.5776 33.6774 42.5776C33.6202 42.546 33.5598 42.5111 33.5025 42.4795C33.7665 42.4985 34.0241 42.5301 34.2817 42.5713C34.0941 42.5713 33.9064 42.5745 33.7188 42.5776Z" fill="#D4C29B"/>
<path id="Vector_18" d="M28.3407 34.3039C29.7337 34.1013 31.1649 33.4777 32.2304 32.5186C32.3035 33.1548 32.4626 33.7215 32.7106 34.2438C32.4466 34.4052 32.2717 34.7407 32.4403 35.0953C33.3785 37.0737 35.1182 38.4507 36.7721 39.8182C38.3687 41.1414 40.0321 42.6292 40.5314 44.7185C40.6395 45.168 41.0784 45.2503 41.4028 45.092V47.4187C41.2184 46.9692 41.0403 46.5133 40.8812 46.0512C40.719 45.5732 40.1752 45.5257 39.8603 45.7473C38.8012 44.4336 37.3636 43.4491 35.7257 42.911C35.5222 42.3697 34.7429 42.6071 34.2786 42.5659C34.021 42.5248 33.7602 42.4931 33.4994 42.4741C33.1527 42.281 32.806 42.0911 32.4848 41.8568C32.7106 41.6289 32.7393 41.1952 32.4848 40.9737C31.9823 40.5368 31.4607 40.119 30.9518 39.6821C29.4252 38.5046 28.9163 37.1339 28.9609 35.2536C28.9609 34.8294 28.611 34.63 28.2802 34.6521C28.2866 34.5318 28.3089 34.4147 28.3407 34.2944V34.3039Z" fill="#D4C29B"/>
<path id="Vector_19" d="M45.7857 43.0684C45.633 42.6853 45.5217 42.3466 45.7157 41.9668C46.1864 42.3815 46.9529 42.5429 47.5731 42.3118C47.7671 43.1222 48.1679 43.8661 48.2983 44.6955C48.3301 44.9803 48.3269 45.2652 48.2983 45.5501C48.2569 45.8983 48.6195 46.1611 48.928 46.1769C49.421 46.1927 49.5959 45.6768 49.5736 45.2716C50.1238 45.3159 50.3083 44.686 50.461 44.2839C50.655 43.8313 50.8426 43.3723 50.9985 42.9038C51.1193 42.5397 51.2593 42.1282 51.2338 41.742C51.1321 40.9158 50.4769 40.2764 49.9903 39.6433C50.5532 38.9279 49.44 38.0858 48.9821 38.8709C48.7403 39.3299 48.4477 39.7667 48.152 40.1941C47.818 40.7449 47.1724 41.5236 46.4981 41.0045C46.5681 41.0583 46.3995 40.881 46.3995 40.8968C46.3741 40.8588 46.3518 40.8209 46.3296 40.7797C46.32 40.7544 46.3168 40.6721 46.3105 40.6404C46.8702 39.6496 47.6049 38.6556 48.2028 37.6648C48.6386 36.8545 49.1983 36.0916 50.0507 36.9937C50.8267 37.7851 51.571 38.6082 52.3629 39.3805C52.6332 39.618 53.0912 39.6559 53.3298 39.2603C54.109 37.9624 54.885 36.6614 55.6547 35.3572C56.6502 33.6699 57.6584 31.9859 58.5902 30.2607C58.7238 30.0138 58.8415 29.6434 59.0641 29.463C59.3249 29.2509 59.7193 29.3047 59.9865 29.482C60.5144 29.8365 60.2059 30.3398 59.9674 30.7672C58.533 33.3407 57.0891 35.9111 55.6483 38.4847C55.343 39.026 55.9186 39.523 56.3766 39.4027C56.3766 39.4027 56.3766 39.4059 56.3798 39.409C55.8296 39.9092 56.4212 40.7797 56.9905 40.536C56.9905 40.5423 56.9968 40.5455 57 40.5518C57 40.5455 56.9936 40.5423 56.9905 40.536C57.0668 40.5043 57.1399 40.4505 57.2067 40.3713C58.7302 38.605 60.2123 36.8006 61.7484 35.0438C61.9806 34.7874 62.216 34.531 62.4481 34.2714C62.7884 33.8915 63.1288 33.3439 63.6058 33.1286C63.8507 33.0179 64.0924 33.04 64.2228 33.2553C64.4455 33.6256 64.1878 33.9992 64.0352 34.3315C62.5054 36.2308 60.9501 38.1143 59.4013 40.001C59.0164 40.422 59.3027 41.1058 59.9006 41.0646C59.891 41.0994 59.8815 41.1342 59.872 41.1691C59.3854 41.454 58.8924 41.7294 58.3962 41.9984C57.6838 42.3815 58.3199 43.4609 59.0323 43.081C60.0914 42.5112 61.1314 41.9003 62.1492 41.264C62.8934 40.8905 64.9671 38.9215 65.6731 39.6401C66.0262 40.1941 65.4123 40.7196 64.9321 40.9538C64.5536 41.1912 64.1783 41.435 63.8126 41.6914C59.8497 44.2206 58.816 47.5159 57.0827 51.5773C56.7933 52.2389 56.4021 52.9258 56.2272 53.6286C56.0459 54.3535 56.0109 55.1353 55.9218 55.8729C55.7405 57.4303 55.5752 58.9941 55.4161 60.5547C55.3589 61.1213 55.9727 61.2828 56.3639 61.0485L56.1063 62.6439C54.9868 63.5145 53.3775 64.9674 51.8763 64.4293C51.2211 64.1571 50.6772 63.4923 50.2638 62.913C49.4941 61.8399 48.8612 60.6687 48.2283 59.5164C48.117 59.3107 47.9452 59.222 47.7703 59.2094L47.9198 58.0824C48.3364 58.3863 48.8866 58.0571 48.9057 57.5728C49.0298 56.2686 49.2174 54.9707 49.3637 53.6697C49.9171 53.657 50.2733 52.8372 49.6786 52.508C48.0343 51.5963 45.8302 49.7603 46.0847 47.6552C46.2119 46.5916 46.5744 45.6103 46.3327 44.5277C46.2182 44.018 45.9892 43.5527 45.7984 43.0715L45.7857 43.0684ZM52.6046 50.0515C52.9481 50.1465 53.2661 49.9344 53.3775 49.6147C54.1885 47.3102 55.8487 45.3475 57.9732 44.132C58.6761 43.73 58.04 42.6474 57.3371 43.0494C54.9232 44.4327 53.0817 46.6676 52.1625 49.2791C52.048 49.5988 52.2897 49.9629 52.6014 50.0483L52.6046 50.0515Z" fill="white"/>
<path id="Vector_20" d="M56.3794 39.3994C56.3794 39.3994 56.3725 39.4063 56.3691 39.4098C56.3691 39.4098 56.3691 39.4063 56.3657 39.4029C56.3691 39.4029 56.376 39.4029 56.3794 39.4029V39.3994Z" fill="#D4C29B"/>
<path id="Vector_21" d="M34.6953 67.7217C34.8193 67.842 34.9497 67.9528 35.0737 68.0572C34.2659 72.2484 33.4612 76.4395 32.6534 80.6307H29.7337C31.3876 76.3287 33.0414 72.0236 34.6953 67.7217Z" fill="white"/>
<path id="Vector_22" d="M49.9678 41.8561C49.9646 41.9012 49.9614 41.9109 49.9582 41.9077C49.9582 41.8916 49.9614 41.869 49.9678 41.8496V41.8561Z" fill="#D4C29B"/>
<path id="Vector_23" d="M55.9121 55.8734C55.998 55.1359 56.0362 54.3508 56.2175 53.6291C56.3924 52.9264 56.7836 52.2394 57.073 51.5778C59.188 46.5826 59.9863 43.9141 64.9224 40.9544C65.3994 40.7233 66.0165 40.1883 65.6634 39.6407C64.9637 38.9189 62.871 40.8974 62.1395 41.2646C61.1217 41.904 60.0817 42.515 59.0226 43.0816C58.3102 43.4646 57.6741 42.382 58.3865 41.999C58.8827 41.7331 59.3757 41.4545 59.8623 41.1696C59.735 41.6223 59.5824 42.0876 59.2166 42.4485C59.5824 42.0844 59.735 41.6191 59.8623 41.1696C61.0613 40.4764 62.2317 39.7325 63.3671 38.9379C63.946 38.5359 64.633 38.194 65.3581 38.2257C67.2664 38.3555 67.524 40.7518 66.0642 41.7141C65.3136 42.2585 64.4962 42.7049 63.7551 43.2683C62.3557 44.2781 61.1917 45.5887 60.4188 47.1303C59.8527 48.1527 59.452 49.2543 58.9845 50.3243C58.4088 51.8184 57.4801 53.2429 57.2988 54.851C57.0539 56.7471 56.8599 58.6528 56.6691 60.5552C56.6468 60.7863 56.5196 60.9509 56.3574 61.0491C55.9662 61.2833 55.3524 61.125 55.4096 60.5552C55.5686 58.9946 55.734 57.434 55.9153 55.8734H55.9121Z" fill="#4F4F4F"/>
<path id="Vector_24" d="M56.3067 39.4852C56.329 39.4598 56.348 39.4345 56.3703 39.4092C56.5739 39.7289 56.7774 40.1309 56.981 40.5361C56.4689 40.7609 55.8519 40.017 56.3067 39.4852Z" fill="#4F4F4F"/>
<path id="Vector_25" d="M44.965 44.3695C44.5961 43.2964 44.0363 42.4259 44.6374 41.3116C44.7519 41.0995 44.9268 41.0109 45.1081 41.0014C45.0159 40.5994 45.0731 40.1594 45.353 39.7478C45.9732 38.8235 46.568 37.877 47.1691 36.94C47.7956 35.6833 48.9342 34.9109 50.3145 35.5978C51.2114 36.2278 51.8698 37.1584 52.6681 37.9118C54.3347 35.1483 56.0203 32.3848 57.5437 29.5422C57.7536 29.1497 57.9318 28.7603 58.2943 28.4754C59.7319 27.3295 62.0695 28.811 61.4398 30.6058C61.249 31.1724 60.8737 31.7074 60.5843 32.2266C59.3661 34.4044 58.148 36.5823 56.9267 38.757C58.2434 37.2313 59.522 35.6675 60.8514 34.1544C61.5702 33.4516 62.1077 32.5115 63.0078 32.0208C63.9842 31.5491 65.1705 31.948 65.4758 33.0369C65.7016 33.8378 65.3836 34.6229 64.8874 35.2496C64.1019 36.2373 63.2972 37.2059 62.4989 38.1809C61.761 39.0831 61.02 39.9853 60.2789 40.8843C60.1835 41.0014 60.0372 41.0552 59.8909 41.0615C59.9736 40.7608 60.0468 40.4727 60.1708 40.2322C60.0499 40.4759 59.9736 40.764 59.8909 41.0615C59.293 41.1027 59.0036 40.4221 59.3916 39.9979C60.9405 38.1113 62.4957 36.2309 64.0255 34.3285C64.1782 33.9929 64.4358 33.6226 64.2132 33.2522C64.0828 33.0338 63.8411 33.0148 63.5962 33.1256C63.1191 33.3408 62.7788 33.8885 62.4385 34.2683C62.2063 34.5279 61.9741 34.7811 61.7388 35.0407C60.2026 36.7976 58.7205 38.6019 57.1971 40.3683C57.1303 40.4474 57.0571 40.5012 56.9808 40.5329C56.7772 40.1277 56.5737 39.7257 56.3701 39.406C56.3701 39.4028 56.3765 39.3996 56.3797 39.3965C56.3765 39.3965 56.3701 39.3965 56.367 39.3965C56.2557 39.2224 56.1443 39.0736 56.0362 38.9628C56.1475 39.0736 56.2588 39.2224 56.367 39.3965C55.9058 39.5168 55.3333 39.0229 55.6386 38.4785C57.0794 35.9081 58.5233 33.3377 59.9577 30.7609C60.1962 30.3336 60.5016 29.8334 59.9768 29.4757C59.7128 29.2953 59.3153 29.2446 59.0545 29.4567C58.8318 29.6372 58.7141 30.0044 58.5806 30.2544C57.6519 31.9797 56.6437 33.6637 55.645 35.3509C54.8753 36.6551 54.0993 37.9562 53.3201 39.254C53.0815 39.6497 52.6204 39.6117 52.3532 39.3743C51.5613 38.6019 50.8171 37.7757 50.041 36.9875C49.1918 36.0853 48.6289 36.8451 48.1932 37.6586C47.5953 38.6494 46.8606 39.6434 46.3008 40.6342C46.3072 40.6658 46.3072 40.745 46.3199 40.7735C46.339 40.8146 46.3644 40.8526 46.3899 40.8906C46.3899 40.8748 46.5584 41.052 46.4884 40.9982C47.1627 41.5174 47.8115 40.7386 48.1423 40.1878C48.4381 39.7637 48.7307 39.3237 48.9724 38.8647C49.4304 38.0796 50.5467 38.9216 49.9806 39.637C50.4672 40.2702 51.1224 40.9128 51.2242 41.7358C51.2528 42.122 51.1097 42.5335 50.9888 42.8975C50.833 43.366 50.6453 43.8219 50.4513 44.2777C50.2986 44.6766 50.1142 45.3097 49.564 45.2653C49.5862 45.6705 49.4113 46.1865 48.9183 46.1707C48.6098 46.158 48.2504 45.8921 48.2886 45.5439C48.3204 45.259 48.3236 44.9741 48.2886 44.6892C48.1582 43.863 47.7543 43.116 47.5634 42.3056C46.9433 42.5367 46.1768 42.3752 45.7061 41.9605C45.512 42.3404 45.6265 42.6791 45.776 43.0621C45.9669 43.5433 46.1958 44.0086 46.3103 44.5183C46.5521 45.6009 46.1895 46.5822 46.0623 47.6458C45.8078 49.7477 48.0119 51.5837 49.6562 52.4986C50.2541 52.8309 49.8947 53.6476 49.3413 53.6603C49.1918 54.9613 49.0074 56.2592 48.8833 57.5634C48.8643 58.0477 48.3109 58.3769 47.8974 58.073C47.7288 57.9591 47.6048 57.7723 47.6271 57.5634C47.7702 56.0534 47.9992 54.5498 48.1518 53.0399C46.4948 51.8623 44.806 50.0928 44.7805 47.9497C44.8219 46.7057 45.3816 45.6009 44.9555 44.3632L44.965 44.3695ZM50.2096 44.7367C50.2064 44.7557 50.2032 44.7779 50.2001 44.7968C50.1841 44.8475 50.2001 44.8443 50.2096 44.7367ZM48.7879 42.0144C48.9406 42.5841 49.1696 43.1286 49.3477 43.6921C49.583 43.1128 49.8216 42.5303 49.9583 41.9194C49.9583 41.9194 49.9583 41.9131 49.9583 41.9067C49.9583 41.9131 49.9647 41.8846 49.9679 41.8497C49.9679 41.8434 49.9679 41.8402 49.9679 41.8339C49.9774 41.8624 49.987 41.8782 49.9679 41.8307C49.9679 41.8276 49.9679 41.8213 49.9711 41.8213C49.9711 41.8213 49.9679 41.8244 49.9679 41.8276C49.9679 41.8244 49.9679 41.8213 49.9647 41.8181C49.9647 41.7959 49.9647 41.7738 49.9647 41.7738C49.9583 41.7769 49.9552 41.7896 49.9583 41.8023C49.9456 41.7706 49.9361 41.739 49.9265 41.7105C49.9424 41.7643 49.9488 41.7769 49.9456 41.7706C49.777 41.4002 49.5194 41.0742 49.2745 40.7545C49.0519 41.0774 48.8134 41.4066 48.543 41.6788C48.6575 41.7579 48.7466 41.8687 48.7847 42.0144H48.7879Z" fill="#4F4F4F"/>
<path id="Vector_26" d="M49.9616 41.8027C49.9616 41.8027 49.9616 41.8124 49.9648 41.8156C49.9648 41.8156 49.9648 41.8156 49.9648 41.8188C49.9648 41.8221 49.9648 41.8253 49.9648 41.8285C49.9648 41.8188 49.9616 41.8124 49.9584 41.8027H49.9616Z" fill="#4F4F4F"/>
<path id="Vector_27" d="M49.9678 41.8372C49.9678 41.8372 49.9678 41.8468 49.9678 41.8501C49.9646 41.8693 49.9614 41.8951 49.9582 41.9079C49.9582 41.9015 49.9582 41.8597 49.9678 41.834V41.8372Z" fill="#4F4F4F"/>
<path id="Vector_28" d="M57.3371 43.0529C58.04 42.6508 58.6761 43.7335 57.9732 44.1355C55.8487 45.351 54.1885 47.3105 53.3775 49.6182C53.2662 49.9379 52.9481 50.15 52.6046 50.055C52.2929 49.9695 52.0512 49.6055 52.1657 49.2858C53.0849 46.6711 54.9264 44.4394 57.3403 43.056L57.3371 43.0529Z" fill="#4F4F4F"/>
<path id="Vector_29" d="M47.2007 59.4502L47.0544 59.8712C47.0448 59.7098 47.1021 59.5642 47.2007 59.4502Z" fill="#4F4F4F"/>
<path id="Vector_30" d="M44.3735 78.5862C44.5898 78.2127 45.1941 78.0607 45.4613 78.5514C46.7334 80.8781 49.1347 82.9483 51.978 82.3912C54.2012 81.9575 55.8455 80.0044 56.0458 77.7695C56.2844 73.132 56.4052 68.485 56.6247 63.8444C56.3607 64.066 56.084 64.2876 55.7946 64.4965L56.0935 62.6415C56.3543 62.4199 56.612 62.1952 56.8664 61.9736C57.2512 61.6349 57.9636 61.8438 57.9414 62.4167C57.7855 66.1679 57.6297 69.919 57.4739 73.6702C57.4166 75.0408 57.4102 76.4242 57.3021 77.7917C56.4975 84.3221 49.1633 85.6928 45.334 80.6311C44.9715 80.1753 44.6502 79.6878 44.3735 79.1845C44.2527 78.9661 44.2749 78.754 44.3735 78.5894V78.5862Z" fill="#4F4F4F"/>
<path id="Vector_31" d="M51.6027 65.6609C50.6549 65.3412 49.9584 64.5909 49.37 63.8185C48.5017 62.6758 47.8179 61.3969 47.1278 60.1434C47.0769 60.0516 47.0578 59.9598 47.0515 59.8711L47.1978 59.4501C47.3377 59.2918 47.5476 59.1906 47.7543 59.2032C47.9293 59.2159 48.101 59.3045 48.2123 59.5103C48.8484 60.6657 49.4781 61.8369 50.2478 62.9069C50.6645 63.4862 51.2051 64.1541 51.8603 64.4232C53.3615 64.9613 54.9676 63.5083 56.0903 62.6378L55.7914 64.4928C54.516 65.4266 53.0434 66.1452 51.5995 65.6545L51.6027 65.6609Z" fill="#4F4F4F"/>
<path id="Vector_32" d="M28.2805 34.6608C28.2265 35.4649 28.6813 36.2689 28.6813 37.0698C28.6813 36.2658 28.2265 35.4617 28.2805 34.6608C28.6113 34.6387 28.958 34.8381 28.9611 35.2623C28.9134 37.1458 29.4255 38.5101 30.9521 39.6909C31.4578 40.1277 31.9794 40.5424 32.4851 40.9824C32.7395 41.204 32.7141 41.6376 32.4851 41.8656C32.1289 41.606 31.8013 41.2989 31.5437 40.8716C31.8013 41.2958 32.1257 41.606 32.4851 41.8656C32.2307 42.1188 31.8522 42.0872 31.5946 41.8656C30.6213 41.0204 29.5304 40.2606 28.7544 39.216C27.9084 38.0764 27.708 36.6456 27.7049 35.2623C27.7049 34.8793 27.9847 34.6798 28.2837 34.6608H28.2805Z" fill="#4F4F4F"/>
<path id="Vector_33" d="M34.7746 69.6116C34.8732 69.0956 34.975 68.5764 35.0735 68.0605C35.1594 67.2121 36.4539 67.497 36.298 68.3295C35.5093 72.432 34.7173 76.5314 33.9286 80.6339H32.65C33.3561 76.9619 34.0653 73.2867 34.7714 69.6147L34.7746 69.6116Z" fill="#4F4F4F"/>
<path id="Vector_34" d="M17.085 38.7094C19.095 39.9471 20.8634 41.5235 22.4186 43.2867C26.0253 47.4114 28.576 52.3844 30.2489 57.5727C30.885 59.5575 31.3812 61.5897 31.6928 63.6505C31.766 64.1316 31.343 64.445 30.9741 64.4355C30.7387 64.4292 30.5256 64.2931 30.4811 63.9829C29.0435 55.265 24.7372 45.8064 17.4539 40.4599C17.0405 40.0547 16.6143 39.6558 16.1563 39.2918C16.1499 38.855 16.6016 38.415 17.085 38.7125V38.7094Z" fill="#4F4F4F"/>
<path id="Vector_35" d="M17.4541 40.4571C17.1265 40.2261 16.7957 40.0013 16.4523 39.7924C16.2455 39.6658 16.1597 39.479 16.1565 39.2891C16.6145 39.6531 17.0375 40.0488 17.4541 40.4571Z" fill="#4F4F4F"/>
<path id="Vector_36" d="M40.8844 46.0538C41.0402 46.516 41.2184 46.9687 41.406 47.4213C42.2425 49.4536 43.3175 51.3941 44.173 53.4168C45.5629 56.4462 45.124 59.7795 44.6374 62.9609C44.4243 64.5848 44.3384 66.2214 44.2939 67.8579C44.2048 71.3906 44.2112 74.9234 44.2525 78.4561C44.2589 79.0829 44.2621 79.7128 44.2716 80.3396C44.2716 80.4535 44.2493 80.5485 44.208 80.6308H43.0885C42.834 77.3861 43.009 74.0592 42.9803 70.7924C43.0026 68.6588 43.0153 66.5094 43.2157 64.3822C43.5178 61.1628 44.4338 57.8517 43.3302 54.683C42.3347 51.8309 40.6459 49.2573 39.6726 46.3894C39.5772 46.1076 39.6822 45.8829 39.8667 45.7531C40.1815 45.5315 40.7222 45.5758 40.8876 46.057L40.8844 46.0538Z" fill="#4F4F4F"/>
<path id="Vector_37" d="M23.627 43.2872H22.8446C22.8605 42.9896 23.0608 42.7016 23.4489 42.6953C26.8583 42.6573 30.2678 42.6161 33.6772 42.5781C34.2433 42.8947 34.7904 43.2429 35.207 43.8095C35.1243 43.819 35.0385 43.8127 34.9526 43.8158C31.6036 43.8538 28.2545 43.8918 24.9023 43.933C24.4157 43.9393 23.9323 43.9456 23.4457 43.9488C23.0227 43.9551 22.8223 43.6133 22.8414 43.2872H23.6238H23.627Z" fill="#4F4F4F"/>
<path id="Vector_38" d="M35.1756 42.5586C35.4618 42.5555 35.6463 42.7106 35.729 42.9132C35.2615 42.7612 34.778 42.6473 34.2819 42.5681C34.5809 42.565 34.8766 42.5618 35.1756 42.5586Z" fill="#4F4F4F"/>
<path id="Vector_39" d="M35.2073 43.809C34.7938 43.2424 34.2436 42.8942 33.6775 42.5776C33.8779 42.5776 34.0814 42.5745 34.2818 42.5713C34.7779 42.6504 35.2614 42.7644 35.7289 42.9163C35.8752 43.274 35.7035 43.7805 35.2073 43.809Z" fill="#4F4F4F"/>
<path id="Vector_40" d="M36.5337 47.2724L35.4015 44.7938C35.5605 44.3411 36.397 44.2461 36.6323 44.8444C37.5546 47.1869 38.5151 49.5262 39.5774 51.8086C40.2485 53.252 41.0086 54.6828 41.4412 56.2181C41.8228 57.573 41.8483 58.9753 41.7847 60.3713C41.4507 67.1202 41.1295 73.8754 40.8878 80.6274H39.6569C39.8414 74.404 40.0608 68.1743 40.4298 61.954C40.5347 60.4568 40.6906 58.893 40.4234 57.402C40.1626 55.9427 39.5106 54.5879 38.8777 53.2584C37.6214 50.6088 36.4924 47.8991 35.4174 45.1736C35.3601 45.028 35.3601 44.8982 35.3983 44.7906L36.5305 47.2692L36.5337 47.2724Z" fill="#4F4F4F"/>
<path id="Vector_41" d="M13.0618 73.6572C13.9746 68.4183 14.8843 63.1762 15.797 57.9372C15.9338 57.1459 17.1487 57.4814 17.012 58.2696C16.7544 59.7447 16.4999 61.2167 16.2423 62.6918C21.2515 63.6637 26.2576 64.6323 31.2668 65.6041C31.3082 65.8954 31.3082 66.1929 31.2287 66.5158C31.3082 66.1961 31.3082 65.8954 31.2668 65.6041C32.3545 65.8162 33.4454 66.0251 34.5332 66.2372C34.8448 66.2974 35.0866 66.7089 34.9721 67.0065C34.8798 67.247 34.7876 67.4845 34.6954 67.725C34.4473 67.4876 34.2151 67.209 34.0879 66.8292C34.2151 67.209 34.4441 67.4845 34.6954 67.725C33.0415 72.027 31.3877 76.3321 29.7338 80.634H28.3917C30.0996 76.1928 31.8043 71.7516 33.5122 67.3103C27.6824 66.1803 21.8558 65.0502 16.026 63.9232C15.056 69.4946 14.0891 75.0627 13.1191 80.634H11.8469C12.2508 78.3105 12.6547 75.9839 13.0587 73.6604L13.0618 73.6572Z" fill="#4F4F4F"/>
<path id="Vector_42" d="M0.61016 71.2922C1.02362 64.9137 1.4339 58.5384 1.84736 52.1598C1.86962 51.799 2.13996 51.6027 2.42302 51.5647C2.76969 51.5204 3.13544 51.7167 3.10682 52.1598C2.49299 61.6501 1.87916 71.1403 1.26533 80.6305H0.00586914C0.206238 77.5188 0.409791 74.4039 0.61016 71.2922Z" fill="#4F4F4F"/>
<path id="Vector_43" d="M11.7544 45.9746C15.078 47.1522 16.6905 49.6276 17.5111 52.9261C17.7178 53.7079 16.5029 54.0403 16.2961 53.2584C15.6092 50.4253 14.2797 48.2031 11.4173 47.1838C11.0993 47.0635 10.883 46.7628 10.9784 46.4146C11.0611 46.1139 11.4332 45.8543 11.7513 45.9777L11.7544 45.9746Z" fill="#4F4F4F"/>
<path id="Vector_44" d="M7.59163 44.3002C9.70028 44.5028 11.5767 43.2904 12.8171 41.6697C14.2515 39.7925 14.6745 37.4501 14.8399 35.1487C15.3074 29.8591 14.1307 24.6614 13.4373 19.4477C13.062 16.4247 12.9475 13.3858 13.4564 10.3722C13.59 9.57766 14.8017 9.91637 14.6713 10.7046C14.2197 13.3889 14.3183 16.0701 14.6205 18.745C15.1802 18.6627 15.7813 18.7957 16.2425 19.1344C16.6305 19.4034 16.9263 19.7833 17.0821 20.2328C17.2793 21.0273 16.1503 21.3502 15.8736 20.5778C15.8386 20.505 15.7972 20.4322 15.7495 20.3657C15.6954 20.3024 15.635 20.2455 15.5746 20.1916C15.4983 20.1378 15.4187 20.0935 15.3361 20.0524C15.2502 20.0207 15.1643 19.9985 15.0753 19.9796C14.9957 19.9732 14.9194 19.9732 14.8399 19.9796C14.8176 19.9827 14.7954 19.9891 14.7763 19.9922C15.0275 21.8884 15.352 23.7813 15.6318 25.668C16.7641 25.6965 17.6801 26.7443 17.7691 27.8269C17.8582 28.8905 17.1171 29.8781 16.1312 30.22C16.2711 33.0785 16.2457 36.0382 15.5332 38.8302C15.2661 38.653 14.9894 38.4852 14.6936 38.3396C14.9894 38.4883 15.2661 38.653 15.5332 38.8302C14.665 42.3534 11.5131 45.8798 7.59481 45.5538C7.41988 45.538 7.28313 45.462 7.18453 45.3575C6.83468 44.9872 6.96508 44.2401 7.59481 44.3002H7.59163ZM16.0803 28.8462C16.0803 28.8462 16.0739 28.8525 16.058 28.862C16.0707 28.8525 16.0803 28.8462 16.0803 28.8462ZM15.8926 27.6275C15.9435 28.0453 15.9881 28.4663 16.0262 28.8842C16.0262 28.8842 16.0326 28.881 16.0358 28.8778C16.0421 28.8715 16.0453 28.8683 16.0517 28.8652C16.1216 28.8019 16.198 28.7322 16.2584 28.6626C16.3284 28.5708 16.3824 28.4663 16.4333 28.3619C16.4619 28.2764 16.4874 28.1877 16.5033 28.0991C16.5033 28.0928 16.5033 28.0865 16.5033 28.0833C16.5033 28.0643 16.5001 27.8997 16.5001 27.8459C16.5033 27.8807 16.5224 27.9345 16.5001 27.8332V27.8269C16.5001 27.8269 16.5001 27.8269 16.5001 27.83C16.4842 27.7446 16.4556 27.6591 16.427 27.5768C16.3824 27.4977 16.3347 27.4185 16.287 27.3426C16.2202 27.2666 16.1503 27.1906 16.0739 27.1273C15.988 27.0672 15.899 27.0102 15.8036 26.9627C15.8322 27.1843 15.864 27.4059 15.8895 27.6275H15.8926Z" fill="#4F4F4F"/>
<path id="Vector_45" d="M4.50956 51.948C4.50956 51.8562 4.51275 51.7676 4.51593 51.6758C4.65905 51.8499 4.70993 52.1474 4.50956 51.948Z" fill="#4F4F4F"/>
<path id="Vector_46" d="M3.41884 42.1066C4.22032 40.2674 5.21262 38.5042 5.85507 36.5985C7.61387 31.1444 7.80788 25.3451 8.06868 19.6662C8.28495 14.8039 8.16727 9.3814 11.3477 5.36436C12.5245 3.88606 14.0829 2.76863 15.7686 1.93293C16.1057 1.76516 16.4238 1.91394 16.5955 2.15452C16.7895 2.42992 16.7927 2.82244 16.4047 3.01554C9.9356 6.07976 9.52851 12.3792 9.36631 18.6912C9.22 22.3062 9.07052 25.9307 8.6189 29.5236C8.18953 33.2083 7.36579 36.8581 5.68651 40.1882C4.2394 43.3348 1.69185 47.6367 4.57971 50.6629C4.54472 51.0017 4.52246 51.3404 4.5161 51.6728C4.43023 51.5683 4.31255 51.5113 4.19169 51.6284C4.30937 51.5113 4.43023 51.5683 4.5161 51.6728C4.5161 51.7646 4.50974 51.8564 4.50974 51.945C4.71011 52.1444 4.65922 51.8469 4.5161 51.6728C4.52246 51.3372 4.54472 51.0017 4.57971 50.6629C4.6942 50.7832 4.81188 50.9035 4.94228 51.0175C5.54657 51.5556 4.65604 52.4388 4.05175 51.9038C3.46018 51.3784 2.97993 50.7706 2.63008 50.1058C1.25294 47.5797 2.32794 44.5503 3.41566 42.1066H3.41884Z" fill="#4F4F4F"/>
<path id="Vector_47" d="M25.4181 6.31066C25.6599 6.34548 25.8984 6.36763 26.1401 6.36763C25.8984 6.36763 25.6599 6.34864 25.4181 6.31066C25.4881 6.07641 25.6789 5.87381 25.9906 5.85799C30.7422 5.57942 34.1008 9.73575 34.9214 14.0377C34.9945 14.4144 34.7528 14.6866 34.4666 14.7816C34.1549 14.886 33.7859 14.7816 33.7064 14.3701C32.9876 10.5968 30.2016 6.86146 25.9874 7.11153C25.4913 7.14002 25.3036 6.68418 25.415 6.31382L25.4181 6.31066Z" fill="#4F4F4F"/>
<path id="Vector_48" d="M17.2312 17.2449C20.2272 15.1208 22.7843 12.1484 23.2518 8.39726C23.3059 7.70084 24.1869 7.53307 24.4795 8.17883C24.3873 8.76762 24.0883 9.35641 23.5953 9.84707C24.0883 9.35641 24.3904 8.76762 24.4795 8.17883C24.2028 12.4839 21.264 15.8869 17.8673 18.3275C17.721 18.432 17.5779 18.4541 17.4475 18.432C17.6161 18.2484 17.7624 18.0299 17.8673 17.764C17.7592 18.0299 17.6161 18.2484 17.4475 18.432C16.9927 18.3433 16.7223 17.6089 17.2312 17.2481V17.2449Z" fill="#4F4F4F"/>
<path id="Vector_49" d="M20.73 30.4638C22.8514 32.7841 27.1036 33.9553 29.9979 32.5119C33.4041 30.8595 34.1961 26.8139 34.4442 23.3952C34.6095 21.1477 34.5555 18.8938 34.6032 16.6431C34.6064 16.4722 34.6668 16.3392 34.759 16.2411C35.0961 15.8739 35.8754 16.0069 35.8626 16.6431C35.8467 17.3585 35.8467 18.0834 35.8436 18.8147C35.7927 23.5345 35.9517 29.0836 32.2306 32.5214C32.2019 32.2555 32.1797 31.9832 32.1797 31.692C32.1797 31.9832 32.1987 32.2555 32.2306 32.5214C31.1651 33.4805 29.7339 34.1041 28.3408 34.3067C25.3449 34.7056 21.9068 33.6008 19.8395 31.3501C19.3115 30.7455 20.1957 29.856 20.73 30.4638Z" fill="#4F4F4F"/>
<path id="Vector_50" d="M23.8561 17.9785C24.6671 17.9785 24.6671 19.2321 23.8561 19.2321C23.0451 19.2321 23.0451 17.9785 23.8561 17.9785Z" fill="#4F4F4F"/>
<path id="Vector_51" d="M31.0631 16.8682C31.8741 16.8682 31.8741 18.1217 31.0631 18.1217C30.2521 18.1217 30.2521 16.8682 31.0631 16.8682Z" fill="#4F4F4F"/>
<path id="Vector_52" d="M25.6184 27.6496C25.0205 26.9532 26.0001 26.1586 26.6139 26.8582C26.7539 26.9532 26.897 27.0418 27.0496 27.1146C27.0496 27.1146 27.1037 27.1399 27.1323 27.1526C27.39 27.2539 27.6444 27.3172 27.9147 27.3615C28.2073 27.3963 28.4999 27.3932 28.7925 27.3615C29.0502 27.3172 29.3078 27.2507 29.5495 27.1526C29.7212 27.0671 29.893 26.9753 30.0488 26.8614C30.0393 26.8677 30.1411 26.7854 30.1411 26.7854C30.7708 26.2346 31.5945 27.0735 31.0316 27.6717C29.5399 28.9411 27.091 28.9854 25.6184 27.6496ZM27.9147 27.3615C27.9497 27.3679 27.9656 27.3679 27.9147 27.3615Z" fill="#4F4F4F"/>
<path id="Vector_53" d="M19.7757 1.61624C19.2604 1.70171 18.7198 1.76502 18.1823 1.84099C18.16 1.63523 18.2459 1.42631 18.5003 1.30918C25.6532 -1.97346 34.3104 3.68015 36.823 10.4829C37.5608 12.4803 37.6944 14.6455 37.1601 16.7094C37.0678 17.0671 36.7625 17.1874 36.4795 17.1431C36.6671 16.548 36.7689 15.9149 36.6321 15.2248C36.7721 15.9149 36.6671 16.5448 36.4795 17.1431C36.1423 17.0893 35.837 16.8012 35.9451 16.3771C37.6976 9.60918 31.0981 2.98374 24.8103 1.78401C22.9084 1.41997 20.9047 1.57825 19.1364 2.39179C18.6593 2.61021 18.2268 2.22718 18.1823 1.84415C18.7198 1.76818 19.2573 1.70487 19.7757 1.6194V1.61624Z" fill="#4F4F4F"/>
<path id="Vector_54" d="M30.1536 22.686C29.1613 21.8472 28.4553 20.6569 28.1945 19.3875C28.1277 19.0678 28.2867 18.6943 28.6334 18.6183C28.9482 18.5455 29.3362 18.7133 29.4062 19.0552C29.473 19.3717 29.5621 19.6819 29.6861 19.9795C29.6861 19.9795 29.6861 19.9795 29.6861 19.9858C29.9914 20.6854 30.4494 21.3122 31.041 21.7997C31.6135 22.3916 30.7675 23.2368 30.1504 22.686H30.1536Z" fill="#4F4F4F"/>
<path id="Vector_55" d="M32.7107 34.243C33.0288 34.9141 33.4836 35.5187 34.0879 36.1202C33.4836 35.5187 33.0256 34.9141 32.7107 34.243C32.9843 34.0752 33.35 34.0911 33.5281 34.4614C35.4237 38.45 40.6619 39.8491 41.7464 44.3853C41.8259 44.7209 41.6478 44.9741 41.4061 45.0912C41.0817 45.2495 40.6396 45.1672 40.5347 44.7177C40.0353 42.6253 38.372 41.1375 36.7754 39.8175C35.1215 38.45 33.385 37.073 32.4436 35.0945C32.275 34.74 32.4499 34.4076 32.7139 34.243H32.7107Z" fill="#4F4F4F"/>
</g>
</g>
</svg>
