<?xml version="1.0" standalone="no"?>
<!DOCTYPE svg PUBLIC "-//W3C//DTD SVG 1.1//EN" "https://www.w3.org/Graphics/SVG/1.1/DTD/svg11.dtd" >
<svg xmlns="https://www.w3.org/2000/svg" xmlns:xlink="https://www.w3.org/1999/xlink" version="1.1">
<metadata>
Created by FontForge 20160407 at Mon Oct 24 06:16:09 2016
 By Jimmy Wärting
</metadata>
<defs>
<font id="HiraKakuStdN-W0-AlphaNum" horiz-adv-x="1000" vert-adv-y="1000" >
  <font-face
    font-family="HiraKakuStdN-W0-AlphaNum"
    font-weight="100"
    font-stretch="normal"
    units-per-em="1000"
    panose-1="2 0 2 3 0 0 0 0 0 0"
    ascent="800"
    descent="-200"
    bbox="20 -100 980 860"
    underline-thickness="50"
    underline-position="-150"
    unicode-range="U+2160-1F100"
  />
<missing-glyph horiz-adv-x="364"
d="M33 0v666h265v-666h-265zM66 33h199v600h-199v-600z" />
    <glyph glyph-name=".notdef" horiz-adv-x="364"
d="M33 0v666h265v-666h-265zM66 33h199v600h-199v-600z" />
    <glyph glyph-name=".null" horiz-adv-x="0" vert-adv-y="0"
 />
    <glyph glyph-name="nonmarkingreturn" horiz-adv-x="333"
 />
    <glyph glyph-name="Japan1.7555" unicode="&#x2460;"
d="M523 626v-488q0 -41 3 -62h-28q3 32 3 62v521l-143 -96q-21 -14 -26 -20v29q8 3 18 10l133 90q15 10 20 16h23q-3 -22 -3 -62zM500 855q131 0 240 -63t172 -172t63 -240t-63 -240t-172 -172t-240 -63t-240 63t-172 172t-63 240t63 240t172 172t240 63zM500 837
q-190 0 -323.5 -133.5t-133.5 -323.5t133.5 -323.5t323.5 -133.5t323.5 133.5t133.5 323.5t-133.5 323.5t-323.5 133.5z" />
    <glyph glyph-name="Japan1.7556" unicode="&#x2461;"
d="M332 107h307q37 0 62 3v-26q-26 3 -62 3h-273q-37 0 -64 -3v27q95 83 169 152q111 104 146 158.5t35 117.5q0 68 -41 106.5t-113 38.5q-66 0 -111 -39q-30 -32 -43 -59l-15 16q18 33 46 58q49 44 123 44q80 0 127.5 -44.5t47.5 -120.5q0 -68 -37 -126t-151 -163
q-113 -104 -153 -138v-5zM500 855q131 0 240 -63t172 -172t63 -240t-63 -240t-172 -172t-240 -63t-240 63t-172 172t-63 240t63 240t172 172t240 63zM500 837q-190 0 -323.5 -133.5t-133.5 -323.5t133.5 -323.5t323.5 -133.5t323.5 133.5t133.5 323.5t-133.5 323.5
t-323.5 133.5z" />
    <glyph glyph-name="Japan1.7557" unicode="&#x2462;"
d="M348 589l-16 15q19 34 53 55q51 34 114 34q80 0 126 -40t46 -111q0 -60 -38.5 -100t-103.5 -49v-3q77 -4 121.5 -43t44.5 -104q0 -80 -53.5 -127.5t-143.5 -47.5q-88 0 -148 49q-23 19 -46 49l17 14q18 -29 44 -50q53 -42 133 -42q82 0 128 41.5t46 113.5q0 63 -47 99.5
t-131 36.5h-61l4 22h37q82 0 128 37.5t46 103.5q0 62 -39.5 97t-109.5 35q-62 0 -107 -31q-29 -23 -44 -54zM500 855q131 0 240 -63t172 -172t63 -240t-63 -240t-172 -172t-240 -63t-240 63t-172 172t-63 240t63 240t172 172t240 63zM500 837q-190 0 -323.5 -133.5
t-133.5 -323.5t133.5 -323.5t323.5 -133.5t323.5 133.5t133.5 323.5t-133.5 323.5t-323.5 133.5z" />
    <glyph glyph-name="Japan1.7558" unicode="&#x2463;"
d="M576 276h58q42 0 63 3v-26q-21 3 -63 3h-58v-113q0 -30 3 -63h-29q3 22 3 63v113h-236q-41 0 -62 -2v30l247 344q23 31 41 63h36q-3 -33 -3 -63v-352zM274 276h279v389zM500 855q131 0 240 -63t172 -172t63 -240t-63 -240t-172 -172t-240 -63t-240 63t-172 172t-63 240
t63 240t172 172t240 63zM500 837q-190 0 -323.5 -133.5t-133.5 -323.5t133.5 -323.5t323.5 -133.5t323.5 133.5t133.5 323.5t-133.5 323.5t-323.5 133.5z" />
    <glyph glyph-name="Japan1.7559" unicode="&#x2464;"
d="M379 656l-25 -278q66 50 148 50q95 0 147 -45.5t52 -134.5q0 -84 -58 -137.5t-149 -53.5q-72 0 -122 27q-36 19 -57 37l12 21q19 -22 52 -39q49 -25 115 -25q83 0 134 46.5t51 123.5q0 158 -179 158q-89 0 -153 -58l-17 12q3 10 6 50l19 217q2 42 2 52q42 -2 62 -2h173
q40 0 73 3v-28q-22 4 -73 4h-213zM500 855q131 0 240 -63t172 -172t63 -240t-63 -240t-172 -172t-240 -63t-240 63t-172 172t-63 240t63 240t172 172t240 63zM500 837q-190 0 -323.5 -133.5t-133.5 -323.5t133.5 -323.5t323.5 -133.5t323.5 133.5t133.5 323.5t-133.5 323.5
t-323.5 133.5z" />
    <glyph glyph-name="Japan1.7560" unicode="&#x2465;"
d="M317 356v-19q24 54 75.5 87t111.5 33q82 0 132.5 -51.5t50.5 -134.5q0 -89 -51.5 -145.5t-132.5 -56.5q-103 0 -156 73t-53 214q0 161 59.5 248.5t168.5 87.5q35 0 71 -9q35 -10 64 -26l-11 -22q-24 17 -58 28q-29 8 -66 8q-101 0 -153 -80.5t-52 -234.5zM503 90
q72 0 116.5 49.5t44.5 131.5q0 74 -44.5 120t-116.5 46q-61 0 -109.5 -35t-75.5 -94q15 -218 185 -218zM500 855q131 0 240 -63t172 -172t63 -240t-63 -240t-172 -172t-240 -63t-240 63t-172 172t-63 240t63 240t172 172t240 63zM500 837q-190 0 -323.5 -133.5
t-133.5 -323.5t133.5 -323.5t323.5 -133.5t323.5 133.5t133.5 323.5t-133.5 323.5t-323.5 133.5z" />
    <glyph glyph-name="Japan1.7561" unicode="&#x2466;"
d="M377 647h259q42 0 64 2v-22q-158 -218 -231 -464q-16 -57 -27 -129h-25q9 59 30 134q27 100 90 226.5t139 231.5h-299q-40 0 -73 -3v27q30 -3 73 -3zM500 855q131 0 240 -63t172 -172t63 -240t-63 -240t-172 -172t-240 -63t-240 63t-172 172t-63 240t63 240t172 172
t240 63zM500 837q-190 0 -323.5 -133.5t-133.5 -323.5t133.5 -323.5t323.5 -133.5t323.5 133.5t133.5 323.5t-133.5 323.5t-323.5 133.5z" />
    <glyph glyph-name="Japan1.7562" unicode="&#x2467;"
d="M549 390q72 -11 114.5 -53t42.5 -103q0 -77 -56.5 -122t-146.5 -45q-89 0 -146 45.5t-57 121.5q0 61 43 103t115 53q-60 11 -95.5 51t-35.5 97q0 68 49 112t127 44t127.5 -44t49.5 -112q0 -58 -35 -97.5t-96 -50.5zM348 538q0 -61 43 -99t112 -38t112.5 38t43.5 99
t-43 98.5t-113 37.5t-112.5 -37.5t-42.5 -98.5zM503 87q83 0 132 38t49 109q0 65 -49.5 105.5t-131.5 40.5q-81 0 -131 -40.5t-50 -105.5q0 -70 49.5 -108.5t131.5 -38.5zM500 855q131 0 240 -63t172 -172t63 -240t-63 -240t-172 -172t-240 -63t-240 63t-172 172t-63 240
t63 240t172 172t240 63zM500 837q-190 0 -323.5 -133.5t-133.5 -323.5t133.5 -323.5t323.5 -133.5t323.5 133.5t133.5 323.5t-133.5 323.5t-323.5 133.5z" />
    <glyph glyph-name="Japan1.7563" unicode="&#x2468;"
d="M683 405v17q-24 -52 -75.5 -85t-111.5 -33q-82 0 -132.5 51.5t-50.5 134.5q0 89 51.5 145.5t133.5 56.5q102 0 155 -73t53 -214q0 -161 -59.5 -248.5t-168.5 -87.5q-40 0 -71 9q-37 12 -64 26l12 23q24 -17 58 -28q32 -9 65 -9q101 0 153 81t52 234zM497 324
q60 0 109.5 35t75.5 94q-15 218 -184 218q-74 0 -118 -49t-44 -132q0 -75 44 -120.5t117 -45.5zM500 855q131 0 240 -63t172 -172t63 -240t-63 -240t-172 -172t-240 -63t-240 63t-172 172t-63 240t63 240t172 172t240 63zM500 837q-190 0 -323.5 -133.5t-133.5 -323.5
t133.5 -323.5t323.5 -133.5t323.5 133.5t133.5 323.5t-133.5 323.5t-323.5 133.5z" />
    <glyph glyph-name="Japan1.7564" unicode="&#x2469;"
d="M640 676q30 0 56 -13t51 -43.5t39 -92t14 -147.5q0 -70 -10 -123.5t-25.5 -85t-37 -52t-42.5 -27.5t-45 -7t-44.5 7t-42.5 27.5t-37 52t-25 85t-10 123.5q0 86 14 147.5t39 92t50.5 43.5t55.5 13zM778 380q0 276 -138 276q-137 0 -137 -276q0 -275 137 -275
q138 0 138 275zM309 594v-427q0 -50 3 -76h-28q3 26 3 76v475l-85 -68q-25 -21 -35 -30v29q14 9 25 17l74 60q10 8 21 20h25q-3 -26 -3 -76zM500 855q131 0 240 -63t172 -172t63 -240t-63 -240t-172 -172t-240 -63t-240 63t-172 172t-63 240t63 240t172 172t240 63zM500 837
q-190 0 -323.5 -133.5t-133.5 -323.5t133.5 -323.5t323.5 -133.5t323.5 133.5t133.5 323.5t-133.5 323.5t-323.5 133.5z" />
    <glyph glyph-name="Japan1.7565" unicode="&#x246a;"
d="M350 594v-427q0 -50 3 -76h-28q3 26 3 76v475l-85 -68q-25 -21 -35 -30v29q14 9 25 17l74 60q10 8 21 20h25q-3 -26 -3 -76zM691 594v-427q0 -50 3 -76h-28q3 26 3 76v475l-85 -68q-25 -21 -35 -30v29q14 9 25 17l74 60q10 8 21 20h25q-3 -26 -3 -76zM500 855
q131 0 240 -63t172 -172t63 -240t-63 -240t-172 -172t-240 -63t-240 63t-172 172t-63 240t63 240t172 172t240 63zM500 837q-190 0 -323.5 -133.5t-133.5 -323.5t133.5 -323.5t323.5 -133.5t323.5 133.5t133.5 323.5t-133.5 323.5t-323.5 133.5z" />
    <glyph glyph-name="Japan1.7566" unicode="&#x246b;"
d="M309 594v-427q0 -50 3 -76h-28q3 26 3 76v475l-85 -68q-25 -21 -35 -30v29q14 9 25 17l74 60q10 8 21 20h25q-3 -26 -3 -76zM487 111h216q40 0 60 2v-25q-20 3 -60 3h-184q-26 0 -53 -3v32q68 78 114 135q90 112 119 168t29 105q0 129 -117 129q-71 0 -101 -52
q-15 -26 -19 -64l-23 3q6 42 22 69q37 64 121 64q67 0 103 -39.5t36 -109.5q0 -52 -31 -111.5t-123 -173.5q-34 -43 -109 -128v-4zM500 855q131 0 240 -63t172 -172t63 -240t-63 -240t-172 -172t-240 -63t-240 63t-172 172t-63 240t63 240t172 172t240 63zM500 837
q-190 0 -323.5 -133.5t-133.5 -323.5t133.5 -323.5t323.5 -133.5t323.5 133.5t133.5 323.5t-133.5 323.5t-323.5 133.5z" />
    <glyph glyph-name="Japan1.7567" unicode="&#x246c;"
d="M309 594v-427q0 -50 3 -76h-28q3 26 3 76v475l-85 -68q-25 -21 -35 -30v29q14 9 25 17l74 60q10 8 21 20h25q-3 -26 -3 -76zM500 575l-18 13q17 35 45 58q38 32 92 32q59 0 95 -39t36 -109q0 -117 -107 -140v-3q63 -7 96 -46t33 -103q0 -72 -41 -113.5t-113 -41.5
q-84 0 -129 59q-13 17 -24 38l18 13q9 -24 21 -38q38 -53 114 -53q61 0 96.5 36t35.5 100q0 66 -38 102.5t-109 36.5h-55l4 21h39q137 0 137 132q0 61 -29.5 95.5t-79.5 34.5q-47 0 -79 -29q-27 -24 -40 -56zM500 855q131 0 240 -63t172 -172t63 -240t-63 -240t-172 -172
t-240 -63t-240 63t-172 172t-63 240t63 240t172 172t240 63zM500 837q-190 0 -323.5 -133.5t-133.5 -323.5t133.5 -323.5t323.5 -133.5t323.5 133.5t133.5 323.5t-133.5 323.5t-323.5 133.5z" />
    <glyph glyph-name="Japan1.7568" unicode="&#x246d;"
d="M309 594v-427q0 -50 3 -76h-28q3 26 3 76v475l-85 -68q-25 -21 -35 -30v29q14 9 25 17l74 60q10 8 21 20h25q-3 -26 -3 -76zM685 274h47q32 0 60 3v-25q-29 3 -60 3h-47v-106q0 -39 3 -58h-27q2 19 2 58v106h-169q-18 0 -52 -2v28l189 347q11 18 20 42h36q-2 -16 -2 -48
v-348zM460 274h203v369zM500 855q131 0 240 -63t172 -172t63 -240t-63 -240t-172 -172t-240 -63t-240 63t-172 172t-63 240t63 240t172 172t240 63zM500 837q-190 0 -323.5 -133.5t-133.5 -323.5t133.5 -323.5t323.5 -133.5t323.5 133.5t133.5 323.5t-133.5 323.5
t-323.5 133.5z" />
    <glyph glyph-name="Japan1.7569" unicode="&#x246e;"
d="M309 594v-427q0 -50 3 -76h-28q3 26 3 76v475l-85 -68q-25 -21 -35 -30v29q14 9 25 17l74 60q10 8 21 20h25q-3 -26 -3 -76zM529 644l-19 -246q46 29 99 29q72 0 112.5 -44t40.5 -126q0 -83 -42 -131t-111 -48q-50 0 -83 16q-30 15 -57 42l11 20q24 -28 55 -44
q28 -14 74 -14q61 0 96 41.5t35 117.5q0 150 -134 150q-60 0 -106 -40l-17 6q6 21 7 47l16 196q3 27 3 50q16 -2 47 -2h126q40 0 60 2v-25q-20 3 -60 3h-153zM500 855q131 0 240 -63t172 -172t63 -240t-63 -240t-172 -172t-240 -63t-240 63t-172 172t-63 240t63 240t172 172
t240 63zM500 837q-190 0 -323.5 -133.5t-133.5 -323.5t133.5 -323.5t323.5 -133.5t323.5 133.5t133.5 323.5t-133.5 323.5t-323.5 133.5z" />
    <glyph glyph-name="Japan1.7570" unicode="&#x246f;"
d="M309 594v-427q0 -50 3 -76h-28q3 26 3 76v475l-85 -68q-25 -21 -35 -30v29q14 9 25 17l74 60q10 8 21 20h25q-3 -26 -3 -76zM486 359v-12q21 45 59 73t81 28q64 0 104.5 -50t40.5 -128q0 -82 -41 -134.5t-105 -52.5q-83 0 -122 66.5t-39 209.5q0 151 46 233t130 82
q42 0 71 -14q30 -14 54 -44l-13 -19q-24 31 -50 44q-25 13 -62 13q-73 0 -113.5 -76t-40.5 -219zM487 317q5 -108 38 -161t100 -53q56 0 90 45.5t34 121.5q0 71 -34 114.5t-89 43.5q-45 0 -82 -31t-57 -80zM500 855q131 0 240 -63t172 -172t63 -240t-63 -240t-172 -172
t-240 -63t-240 63t-172 172t-63 240t63 240t172 172t240 63zM500 837q-190 0 -323.5 -133.5t-133.5 -323.5t133.5 -323.5t323.5 -133.5t323.5 133.5t133.5 323.5t-133.5 323.5t-323.5 133.5z" />
    <glyph glyph-name="Japan1.7571" unicode="&#x2470;"
d="M309 594v-427q0 -50 3 -76h-28q3 26 3 76v475l-85 -68q-25 -21 -35 -30v29q14 9 25 17l74 60q10 8 21 20h25q-3 -26 -3 -76zM452 644v27q29 -3 70 -3h180q40 0 64 3v-22q-135 -223 -178 -481q-4 -26 -8 -74h-27q3 11 15 79q49 265 176 475h-222q-32 0 -70 -4zM500 855
q131 0 240 -63t172 -172t63 -240t-63 -240t-172 -172t-240 -63t-240 63t-172 172t-63 240t63 240t172 172t240 63zM500 837q-190 0 -323.5 -133.5t-133.5 -323.5t133.5 -323.5t323.5 -133.5t323.5 133.5t133.5 323.5t-133.5 323.5t-323.5 133.5z" />
    <glyph glyph-name="Japan1.7572" unicode="&#x2471;"
d="M309 594v-427q0 -50 3 -76h-28q3 26 3 76v475l-85 -68q-25 -21 -35 -30v29q14 9 25 17l74 60q10 8 21 20h25q-3 -26 -3 -76zM663 390q58 -10 92.5 -49.5t34.5 -98.5q0 -69 -45.5 -112t-118.5 -43t-118.5 43t-45.5 112q0 59 34.5 98.5t92.5 49.5q-49 11 -78 48t-29 91
q0 65 40.5 106t103.5 41t103.5 -41t40.5 -106q0 -54 -29 -91t-78 -48zM626 657q-55 0 -89 -35t-34 -93q0 -57 34 -93t89 -36t89 36t34 93q0 58 -34 93t-89 35zM626 380q-65 0 -103.5 -38t-38.5 -100t38.5 -99t103.5 -37t103.5 37t38.5 99t-38.5 100t-103.5 38zM500 855
q131 0 240 -63t172 -172t63 -240t-63 -240t-172 -172t-240 -63t-240 63t-172 172t-63 240t63 240t172 172t240 63zM500 837q-190 0 -323.5 -133.5t-133.5 -323.5t133.5 -323.5t323.5 -133.5t323.5 133.5t133.5 323.5t-133.5 323.5t-323.5 133.5z" />
    <glyph glyph-name="Japan1.7573" unicode="&#x2472;"
d="M309 594v-427q0 -50 3 -76h-28q3 26 3 76v475l-85 -68q-25 -21 -35 -30v29q14 9 25 17l74 60q10 8 21 20h25q-3 -26 -3 -76zM760 401v11q-21 -46 -59 -73t-82 -27q-63 0 -103 50t-40 128q0 83 40.5 135t104.5 52q161 0 161 -276q0 -151 -46 -233t-131 -82q-45 0 -78 17
q-24 14 -47 41l13 19q21 -29 46 -42q29 -15 66 -15q75 0 115 75t40 220zM760 444q-11 213 -139 213q-57 0 -90 -45t-33 -122q0 -71 33.5 -114.5t87.5 -43.5q43 0 82.5 32t58.5 80zM500 855q131 0 240 -63t172 -172t63 -240t-63 -240t-172 -172t-240 -63t-240 63t-172 172
t-63 240t63 240t172 172t240 63zM500 837q-190 0 -323.5 -133.5t-133.5 -323.5t133.5 -323.5t323.5 -133.5t323.5 133.5t133.5 323.5t-133.5 323.5t-323.5 133.5z" />
    <glyph glyph-name="Japan1.7574" unicode="&#x2473;"
d="M202 111h209q39 0 59 2v-25q-20 3 -59 3h-178q-25 0 -52 -3v32q66 78 111 135q87 112 115 168t28 105q0 129 -113 129q-69 0 -97 -52q-15 -27 -18 -64l-24 3q6 42 22 69q36 64 117 64q65 0 100 -39.5t35 -109.5q0 -53 -29.5 -112t-119.5 -173q-27 -34 -106 -128v-4z
M685 676q30 0 55.5 -13t49 -43.5t37 -91.5t13.5 -148q0 -295 -155 -295q-23 0 -43.5 7t-41.5 27t-35.5 52t-24 85.5t-9.5 123.5q0 87 13.5 148t37 91.5t48.5 43.5t55 13zM818 380q0 276 -133 276q-132 0 -132 -276q0 -275 132 -275q133 0 133 275zM500 855q131 0 240 -63
t172 -172t63 -240t-63 -240t-172 -172t-240 -63t-240 63t-172 172t-63 240t63 240t172 172t240 63zM500 837q-190 0 -323.5 -133.5t-133.5 -323.5t133.5 -323.5t323.5 -133.5t323.5 133.5t133.5 323.5t-133.5 323.5t-323.5 133.5z" />
    <glyph glyph-name="Japan1.7575" unicode="&#x2160;"
d="M485 745h29q-3 -25 -3 -75v-595q0 -50 3 -75h-29q3 25 3 75v595q0 50 -3 75z" />
    <glyph glyph-name="Japan1.7576" unicode="&#x2161;"
d="M357 745h29q-3 -25 -3 -75v-595q0 -50 3 -75h-29q3 25 3 75v595q0 50 -3 75zM614 745h29q-3 -25 -3 -75v-595q0 -50 3 -75h-29q3 25 3 75v595q0 50 -3 75z" />
    <glyph glyph-name="Japan1.7577" unicode="&#x2162;"
d="M248 745h29q-3 -25 -3 -75v-595q0 -50 3 -75h-29q3 25 3 75v595q0 50 -3 75zM723 745h29q-3 -25 -3 -75v-595q0 -50 3 -75h-29q3 25 3 75v595q0 50 -3 75zM485 745h29q-3 -25 -3 -75v-595q0 -50 3 -75h-29q3 25 3 75v595q0 50 -3 75z" />
    <glyph glyph-name="Japan1.7578" unicode="&#x2163;"
d="M177 745h29q-3 -25 -3 -75v-595q0 -50 3 -75h-29q3 25 3 75v595q0 50 -3 75zM848 745h29q-10 -25 -28 -75l-209 -595q-16 -44 -23 -75h-32q-12 44 -23 75l-208 595q-18 50 -30 75h30q6 -25 24 -75l201 -579q16 -44 22 -63q3 11 7 22t8 23l6 18l203 579q15 42 23 75z" />
    <glyph glyph-name="Japan1.7579" unicode="&#x2164;"
d="M777 745h30q-12 -25 -32 -75l-234 -595q-18 -45 -25 -75h-32q-10 38 -25 75l-234 595q-20 50 -33 75h30q7 -25 27 -75l227 -579q12 -29 24 -63q9 27 23 63l228 579q17 42 26 75z" />
    <glyph glyph-name="Japan1.7580" unicode="&#x2165;"
d="M794 745h29q-3 -25 -3 -75v-595q0 -50 3 -75h-29q3 25 3 75v595q0 50 -3 75zM647 745h29q-10 -25 -28 -75l-209 -595q-16 -44 -23 -75h-32q-12 44 -23 75l-208 595q-18 50 -30 75h30q6 -25 24 -75l201 -579q16 -44 22 -63l21 63l203 579q15 42 23 75z" />
    <glyph glyph-name="Japan1.7581" unicode="&#x2166;"
d="M864 745h29q-3 -25 -3 -75v-595q0 -50 3 -75h-29q3 25 3 75v595q0 50 -3 75zM684 745h29q-3 -25 -3 -75v-595q0 -50 3 -75h-29q3 25 3 75v595q0 50 -3 75zM550 745h29q-9 -25 -25 -75l-186 -595q-13 -41 -21 -75h-32q-16 59 -21 75l-185 595q-12 38 -27 75h30
q5 -25 21 -75l178 -579l8 -25q8 -24 12 -38q6 24 19 63l180 579q13 42 20 75z" />
    <glyph glyph-name="Japan1.7582" unicode="&#x2167;"
d="M884 745h29q-3 -25 -3 -75v-595q0 -50 3 -75h-29q3 25 3 75v595q0 50 -3 75zM734 745h29q-3 -25 -3 -75v-595q0 -50 3 -75h-29q3 25 3 75v595q0 50 -3 75zM576 745h29q-3 -25 -3 -75v-595q0 -50 3 -75h-29q3 25 3 75v595q0 50 -3 75zM469 745h27l-21 -75l-157 -595
q-8 -29 -17 -75h-32q-1 5 -7 32.5t-10 42.5l-156 595q-14 50 -23 75h28q2 -11 5 -23.5t7 -28t6 -23.5l149 -579q1 -3 7.5 -26t9.5 -37q4 22 16 63l151 579q12 42 17 75z" />
    <glyph glyph-name="Japan1.7583" unicode="&#x2168;"
d="M177 745h29q-3 -25 -3 -75v-595q0 -50 3 -75h-29q3 25 3 75v595q0 50 -3 75zM622 373l191 -298q32 -49 54 -75h-37q-11 25 -43 75l-178 279l-176 -279q-30 -47 -43 -75h-38q22 26 54 75l191 297l-191 298q-29 45 -54 75h38q13 -28 43 -75l177 -280l176 280q34 54 43 75
h37q-25 -30 -54 -75z" />
    <glyph glyph-name="Japan1.7584" unicode="&#x2169;"
d="M513 373l213 -298q36 -50 60 -75h-39q-14 29 -47 75l-200 279l-199 -279q-34 -48 -48 -75h-39q24 25 60 75l214 297l-214 298q-32 45 -60 75h39q14 -27 48 -75l200 -280l198 280q31 43 47 75h39q-28 -30 -60 -75z" />
    <glyph glyph-name="Japan1.8061" unicode="&#x1f100;"
d="M888 53q14 0 23 -9.5t9 -22.5t-9.5 -22t-22.5 -9t-22 9t-9 22t9 22.5t22 9.5zM459 755q123 0 188 -99t65 -283t-65 -283.5t-188 -99.5q-122 0 -187 99.5t-65 283.5t64.5 283t187.5 99zM459 11q114 0 172 92.5t58 269.5t-58 269t-172 92q-113 0 -171 -92t-58 -269
q0 -178 58 -270t171 -92z" />
    <glyph glyph-name="Japan1.8062" unicode="&#x2488;"
d="M888 53q14 0 23 -9.5t9 -22.5t-9.5 -22t-22.5 -9t-22 9t-9 22t9 22.5t22 9.5zM529 669v-593q0 -50 3 -76h-29q3 26 3 76v640l-175 -117q-25 -17 -32 -25v30q14 7 22 13l162 108q16 10 24 20h25q-3 -26 -3 -76z" />
    <glyph glyph-name="Japan1.8063" unicode="&#x2489;"
d="M888 53q14 0 23 -9.5t9 -22.5t-9.5 -22t-22.5 -9t-22 9t-9 22t9 22.5t22 9.5zM249 21h381q38 0 76 3v-27q-38 3 -76 3h-333q-39 0 -77 -3v32q97 84 205 186q135 125 179 191.5t44 144.5q0 84 -50.5 133.5t-139.5 49.5q-80 0 -137 -51q-31 -30 -51 -72l-21 16q29 44 58 71
q67 57 151 57q98 0 155.5 -55.5t57.5 -148.5q0 -82 -47 -154t-187 -200l-188 -172v-4z" />
    <glyph glyph-name="Japan1.8064" unicode="&#x248a;"
d="M888 53q14 0 23 -9.5t9 -22.5t-9.5 -22t-22.5 -9t-22 9t-9 22t9 22.5t22 9.5zM265 629l-18 16q24 38 61 66q60 44 141 44q97 0 153 -49.5t56 -135.5q0 -74 -45.5 -122.5t-124.5 -58.5v-3q92 -4 146 -54.5t54 -129.5q0 -97 -65 -154.5t-175 -57.5t-180 60q-35 30 -55 60
l18 16q27 -42 52 -61q66 -54 165 -54q102 0 159.5 50.5t57.5 140.5q0 79 -59 126t-162 47h-75l5 21h45q103 0 159.5 45.5t56.5 128.5q0 77 -50 120.5t-137 43.5q-75 0 -127 -40q-32 -25 -56 -65z" />
    <glyph glyph-name="Japan1.8065" unicode="&#x248b;"
d="M888 53q14 0 23 -9.5t9 -22.5t-9.5 -22t-22.5 -9t-22 9t-9 22t9 22.5t22 9.5zM587 236h73q50 0 76 3v-27q-26 3 -76 3h-73v-139q0 -50 3 -76h-29q3 26 3 76v139h-291q-50 0 -75 -3v34l303 423q37 51 51 76h38q-3 -26 -3 -76v-433zM219 236h345v484z" />
    <glyph glyph-name="Japan1.8066" unicode="&#x248c;"
d="M888 53q14 0 23 -9.5t9 -22.5t-9.5 -22t-22.5 -9t-22 9t-9 22t9 22.5t22 9.5zM303 724l-31 -350q77 63 184 63q116 0 179 -54t63 -161q0 -103 -70.5 -167.5t-181.5 -64.5q-81 0 -150 33q-38 20 -68 44l12 23q29 -29 63 -46q66 -33 143 -33q102 0 165.5 57t63.5 154
q0 194 -221 194q-107 0 -189 -71l-19 13q4 20 8 61l23 265q3 41 3 64q36 -3 74 -3h212q62 0 88 3v-29q-33 5 -88 5h-263z" />
    <glyph glyph-name="Japan1.8067" unicode="&#x248d;"
d="M888 53q14 0 23 -9.5t9 -22.5t-9.5 -22t-22.5 -9t-22 9t-9 22t9 22.5t22 9.5zM242 343v-28q30 66 94.5 107.5t138.5 41.5q99 0 160.5 -64t61.5 -165q0 -108 -62.5 -176.5t-162.5 -68.5q-124 0 -188.5 90.5t-64.5 262.5q0 202 71.5 307t205.5 105q46 0 86 -10
q41 -10 78 -31l-12 -24q-32 22 -72 34q-35 10 -80 10q-124 0 -189 -99.5t-65 -291.5zM472 11q91 0 146.5 61.5t55.5 162.5q0 93 -55 150.5t-145 57.5q-73 0 -135.5 -43t-94.5 -114q20 -275 228 -275z" />
    <glyph glyph-name="Japan1.8068" unicode="&#x248e;"
d="M888 53q14 0 23 -9.5t9 -22.5t-9.5 -22t-22.5 -9t-22 9t-9 22t9 22.5t22 9.5zM313 745h316q39 0 77 3v-23q-198 -275 -284 -569q-17 -60 -32 -156h-26q9 55 37 162q33 122 111 278t170 284h-369q-43 0 -88 -5v29q35 -3 88 -3z" />
    <glyph glyph-name="Japan1.8069" unicode="&#x248f;"
d="M888 53q14 0 23 -9.5t9 -22.5t-9.5 -22t-22.5 -9t-22 9t-9 22t9 22.5t22 9.5zM514 384q88 -14 140.5 -65.5t52.5 -126.5q0 -94 -69 -148t-179 -54q-109 0 -178 54.5t-69 147.5q0 74 53 126t140 66q-73 14 -117 63t-44 119q0 83 60 136t155 53t156 -53t61 -136
q0 -70 -44 -119t-118 -63zM266 566q0 -76 54 -123.5t139 -47.5q86 0 140.5 47.5t54.5 123.5q0 75 -54.5 122t-140.5 47q-85 0 -139 -47.5t-54 -121.5zM459 10q102 0 163.5 48t61.5 134q0 80 -63 131t-162 51q-100 0 -162 -51t-62 -131q0 -85 62 -133.5t162 -48.5z" />
    <glyph glyph-name="Japan1.8070" unicode="&#x2490;"
d="M888 53q14 0 23 -9.5t9 -22.5t-9.5 -22t-22.5 -9t-22 9t-9 22t9 22.5t22 9.5zM674 402v28q-30 -66 -94.5 -107.5t-138.5 -41.5q-99 0 -160.5 64t-61.5 165q0 108 62.5 176.5t162.5 68.5q124 0 188.5 -90.5t64.5 -262.5q0 -202 -71.5 -307t-205.5 -105q-46 0 -86 10
q-41 10 -78 31l12 24q32 -22 72 -34q35 -10 80 -10q124 0 189 99.5t65 291.5zM442 302q73 0 135.5 43t94.5 114q-20 275 -228 275q-91 0 -146.5 -61.5t-55.5 -162.5q0 -93 55 -150.5t145 -57.5z" />
    <glyph glyph-name="Japan1.8071" unicode="&#x2474;"
d="M148 860h20q-67 -96 -98.5 -223.5t-31.5 -256.5t31.5 -256.5t98.5 -223.5h-20q-64 98 -96 225t-32 255t32 255t96 225zM852 -100h-20q67 96 98.5 223.5t31.5 256.5t-31.5 256.5t-98.5 223.5h20q64 -98 96 -225t32 -255t-32 -255t-96 -225zM538 665v-569q0 -48 3 -73h-28
q2 25 2 73v613l-168 -112q-27 -19 -30 -24v30l8 4q8 4 13 8l155 104q18 11 23 19h25q-3 -25 -3 -73z" />
    <glyph glyph-name="Japan1.8072" unicode="&#x2475;"
d="M148 860h20q-67 -96 -98.5 -223.5t-31.5 -256.5t31.5 -256.5t98.5 -223.5h-20q-64 98 -96 225t-32 255t32 255t96 225zM852 -100h-20q67 96 98.5 223.5t31.5 256.5t-31.5 256.5t-98.5 223.5h20q64 -98 96 -225t32 -255t-32 -255t-96 -225zM289 51h364q43 0 73 3v-27
q-30 3 -73 3h-319q-44 0 -74 -3v31q94 82 197 178q131 124 172.5 186.5t41.5 136.5q0 81 -48.5 127t-134.5 46q-78 0 -131 -47q-34 -34 -50 -69l-17 16q22 41 53 68q61 52 145 52q94 0 149.5 -52t55.5 -141q0 -79 -45 -147t-179 -191q-99 -93 -180 -164v-6z" />
    <glyph glyph-name="Japan1.8073" unicode="&#x2476;"
d="M148 860h20q-67 -96 -98.5 -223.5t-31.5 -256.5t31.5 -256.5t98.5 -223.5h-20q-64 98 -96 225t-32 255t32 255t96 225zM852 -100h-20q67 96 98.5 223.5t31.5 256.5t-31.5 256.5t-98.5 223.5h20q64 -98 96 -225t32 -255t-32 -255t-96 -225zM313 626l-17 16q22 37 58 63
q58 42 135 42q93 0 146.5 -47t53.5 -130q0 -70 -43.5 -116.5t-119.5 -56.5v-3q88 -4 140 -52.5t52 -124.5q0 -92 -62 -147t-168 -55q-104 0 -172 57q-35 30 -53 57l17 17q28 -41 50 -59q63 -51 158 -51q98 0 152.5 48t54.5 133q0 76 -56 121t-155 45h-71l4 21h43
q98 0 152 43.5t54 122.5q0 74 -47 115t-131 41q-73 0 -121 -38q-32 -25 -54 -62z" />
    <glyph glyph-name="Japan1.8074" unicode="&#x2477;"
d="M148 860h20q-67 -96 -98.5 -223.5t-31.5 -256.5t31.5 -256.5t98.5 -223.5h-20q-64 98 -96 225t-32 255t32 255t96 225zM852 -100h-20q67 96 98.5 223.5t31.5 256.5t-31.5 256.5t-98.5 223.5h20q64 -98 96 -225t32 -255t-32 -255t-96 -225zM606 249h69q48 0 73 3v-26
q-25 3 -73 3h-69v-133q0 -48 3 -73h-29q3 25 3 73v133h-279q-48 0 -72 -3v33l291 404q33 46 48 73h38q-3 -25 -3 -73v-414zM252 249h331v462z" />
    <glyph glyph-name="Japan1.8075" unicode="&#x2478;"
d="M148 860h20q-67 -96 -98.5 -223.5t-31.5 -256.5t31.5 -256.5t98.5 -223.5h-20q-64 98 -96 225t-32 255t32 255t96 225zM852 -100h-20q67 96 98.5 223.5t31.5 256.5t-31.5 256.5t-98.5 223.5h20q64 -98 96 -225t32 -255t-32 -255t-96 -225zM347 712l-28 -330q77 58 174 58
q111 0 172 -52t61 -155q0 -99 -67.5 -161t-174.5 -62q-77 0 -144 32q-32 16 -66 42l13 22q29 -29 60 -44q64 -31 137 -31q98 0 158.5 54.5t60.5 147.5q0 186 -212 186q-102 0 -181 -68l-18 12q2 4 7 59l22 252q3 39 3 62q34 -3 71 -3h204q59 0 84 3v-29q-31 5 -84 5h-252z
" />
    <glyph glyph-name="Japan1.8076" unicode="&#x2479;"
d="M148 860h20q-67 -96 -98.5 -223.5t-31.5 -256.5t31.5 -256.5t98.5 -223.5h-20q-64 98 -96 225t-32 255t32 255t96 225zM852 -100h-20q67 96 98.5 223.5t31.5 256.5t-31.5 256.5t-98.5 223.5h20q64 -98 96 -225t32 -255t-32 -255t-96 -225zM288 353v-27q30 64 91.5 104.5
t132.5 40.5q96 0 155.5 -60.5t59.5 -158.5q0 -104 -60.5 -170.5t-157.5 -66.5q-120 0 -182 86t-62 252q0 189 69.5 291.5t197.5 102.5q46 0 84 -10q35 -8 76 -29l-13 -26q-28 21 -69 34q-33 10 -78 10q-118 0 -181 -96.5t-63 -276.5zM509 36q88 0 141.5 59t53.5 157
q0 89 -52.5 143.5t-140.5 54.5q-71 0 -130.5 -41.5t-90.5 -111.5q18 -261 219 -261z" />
    <glyph glyph-name="Japan1.8077" unicode="&#x247a;"
d="M148 860h20q-67 -96 -98.5 -223.5t-31.5 -256.5t31.5 -256.5t98.5 -223.5h-20q-64 98 -96 225t-32 255t32 255t96 225zM852 -100h-20q67 96 98.5 223.5t31.5 256.5t-31.5 256.5t-98.5 223.5h20q64 -98 96 -225t32 -255t-32 -255t-96 -225zM359 710h303q38 0 74 3v-22
q-187 -262 -271 -546q-14 -49 -31 -150h-26q11 65 36 155q31 118 105.5 267t162.5 272h-353q-41 0 -84 -5v29q33 -3 84 -3z" />
    <glyph glyph-name="Japan1.8078" unicode="&#x247b;"
d="M148 860h20q-67 -96 -98.5 -223.5t-31.5 -256.5t31.5 -256.5t98.5 -223.5h-20q-64 98 -96 225t-32 255t32 255t96 225zM852 -100h-20q67 96 98.5 223.5t31.5 256.5t-31.5 256.5t-98.5 223.5h20q64 -98 96 -225t32 -255t-32 -255t-96 -225zM550 392q84 -13 134.5 -62.5
t50.5 -120.5q0 -90 -66 -142t-172 -52q-104 0 -170.5 52.5t-66.5 141.5q0 71 50.5 120.5t134.5 62.5q-70 14 -112 60.5t-42 112.5q0 80 57.5 131t148.5 51t149.5 -51t58.5 -131q0 -67 -42 -113.5t-113 -59.5zM313 565q0 -73 51 -118t133 -45q83 0 134.5 45t51.5 118
q0 72 -51.5 117t-134.5 45q-82 0 -133 -45.5t-51 -116.5zM497 35q98 0 156.5 45.5t58.5 128.5q0 77 -59.5 124.5t-155.5 47.5t-155 -47.5t-59 -124.5q0 -82 59 -128t155 -46z" />
    <glyph glyph-name="Japan1.8079" unicode="&#x247c;"
d="M148 860h20q-67 -96 -98.5 -223.5t-31.5 -256.5t31.5 -256.5t98.5 -223.5h-20q-64 98 -96 225t-32 255t32 255t96 225zM852 -100h-20q67 96 98.5 223.5t31.5 256.5t-31.5 256.5t-98.5 223.5h20q64 -98 96 -225t32 -255t-32 -255t-96 -225zM712 410v27
q-29 -64 -90.5 -103.5t-131.5 -39.5q-95 0 -154 61.5t-59 157.5q0 104 60 169t156 65q118 0 180 -86.5t62 -250.5q0 -194 -68.5 -294.5t-196.5 -100.5q-48 0 -83 9q-42 11 -74 30l11 24q29 -21 69 -33q30 -9 77 -9q118 0 180 95t62 279zM491 315q70 0 129.5 40.5t89.5 108.5
q-20 262 -217 262q-87 0 -140 -58t-53 -155q0 -89 52.5 -143.5t138.5 -54.5z" />
    <glyph glyph-name="Japan1.8080" unicode="&#x247d;"
d="M852 -100h-20q67 96 98.5 223.5t31.5 256.5t-31.5 256.5t-98.5 223.5h20q64 -98 96 -225t32 -255t-32 -255t-96 -225zM148 860h20q-67 -96 -98.5 -223.5t-31.5 -256.5t31.5 -256.5t98.5 -223.5h-20q-64 98 -96 225t-32 255t32 255t96 225zM639 738q33 0 61.5 -15.5
t55 -53t42 -111.5t15.5 -178t-15.5 -178t-42 -111t-55 -52.5t-61.5 -15.5t-61 15.5t-55 52.5t-42.5 111t-15.5 178q0 84 10.5 149t27.5 103.5t40.5 63t46.5 33.5t49 9zM791 380q0 98 -13.5 167.5t-36.5 105t-48 50.5t-54 15t-54 -15t-48 -50.5t-36.5 -105t-13.5 -167.5
t13.5 -167t36.5 -104.5t48 -50.5t54 -15t54 15t48 50.5t36.5 104.5t13.5 167zM296 655v-549q0 -50 3 -76h-28q3 26 3 76v595l-97 -78q-2 -1 -15 -11.5t-20 -17.5v29q14 9 25 17l87 71q10 8 21 20h24q-3 -26 -3 -76z" />
    <glyph glyph-name="Japan1.8081" unicode="&#x247e;"
d="M148 860h20q-67 -96 -98.5 -223.5t-31.5 -256.5t31.5 -256.5t98.5 -223.5h-20q-64 98 -96 225t-32 255t32 255t96 225zM852 -100h-20q67 96 98.5 223.5t31.5 256.5t-31.5 256.5t-98.5 223.5h20q64 -98 96 -225t32 -255t-32 -255t-96 -225zM347 659v-557q0 -47 3 -72h-28
q3 25 3 72v602l-129 -90q-11 -7 -35 -27v29q15 8 25 15l115 81q10 6 25 19h24q-3 -25 -3 -72zM726 659v-557q0 -47 3 -72h-28q3 25 3 72v602l-129 -90q-11 -7 -35 -27v29q15 8 25 15l115 81q10 6 25 19h24q-3 -25 -3 -72z" />
    <glyph glyph-name="Japan1.8082" unicode="&#x247f;"
d="M148 860h20q-67 -96 -98.5 -223.5t-31.5 -256.5t31.5 -256.5t98.5 -223.5h-20q-64 98 -96 225t-32 255t32 255t96 225zM852 -100h-20q67 96 98.5 223.5t31.5 256.5t-31.5 256.5t-98.5 223.5h20q64 -98 96 -225t32 -255t-32 -255t-96 -225zM468 58h258q48 0 72 3v-26
q-24 3 -72 3h-281v32q136 156 207 251.5t92.5 146t21.5 99.5q0 76 -36 118t-107 42q-86 0 -122 -65q-19 -37 -22 -78l-26 3q10 54 27 82q45 78 143 78q80 0 122.5 -47.5t42.5 -132.5q0 -52 -21.5 -103.5t-91.5 -147.5t-207 -253v-5zM296 655v-549q0 -50 3 -76h-28q3 26 3 76
v595l-97 -78q-2 -1 -15 -11.5t-20 -17.5v29q14 9 25 17l87 71q10 8 21 20h24q-3 -26 -3 -76z" />
    <glyph glyph-name="Japan1.8083" unicode="&#x2480;"
d="M148 860h20q-67 -96 -98.5 -223.5t-31.5 -256.5t31.5 -256.5t98.5 -223.5h-20q-64 98 -96 225t-32 255t32 255t96 225zM852 -100h-20q67 96 98.5 223.5t31.5 256.5t-31.5 256.5t-98.5 223.5h20q64 -98 96 -225t32 -255t-32 -255t-96 -225zM647 398v-2q78 -9 118.5 -56.5
t40.5 -125.5q0 -91 -48.5 -139t-140.5 -48q-102 0 -159 71q-9 11 -29 46l22 12q8 -21 23 -43q51 -66 143 -66q167 0 167 167q0 80 -49 125t-138 45h-62l5 21h52q78 0 121.5 43t43.5 119q0 80 -36 120t-103 40q-55 0 -98 -36q-31 -27 -48 -68l-24 11q24 43 57 72
q50 40 113 40q161 0 161 -179q0 -141 -132 -169zM296 655v-549q0 -50 3 -76h-28q3 26 3 76v595l-97 -78q-2 -1 -15 -11.5t-20 -17.5v29q14 9 25 17l87 71q10 8 21 20h24q-3 -26 -3 -76z" />
    <glyph glyph-name="Japan1.8084" unicode="&#x2481;"
d="M148 860h20q-67 -96 -98.5 -223.5t-31.5 -256.5t31.5 -256.5t98.5 -223.5h-20q-64 98 -96 225t-32 255t32 255t96 225zM852 -100h-20q67 96 98.5 223.5t31.5 256.5t-31.5 256.5t-98.5 223.5h20q64 -98 96 -225t32 -255t-32 -255t-96 -225zM716 251h50q49 0 73 3v-24
q-24 2 -73 2h-50v-131q0 -47 3 -71h-28q3 24 3 71v131h-199q-43 0 -63 -2v33q6 9 15.5 26.5t15.5 27.5l191 363q13 23 25 51h39q-2 -20 -2 -59v-421zM452 251h242v460zM296 655v-549q0 -50 3 -76h-28q3 26 3 76v595l-97 -78q-2 -1 -15 -11.5t-20 -17.5v29q14 9 25 17l87 71
q10 8 21 20h24q-3 -26 -3 -76z" />
    <glyph glyph-name="Japan1.8085" unicode="&#x2482;"
d="M148 860h20q-67 -96 -98.5 -223.5t-31.5 -256.5t31.5 -256.5t98.5 -223.5h-20q-64 98 -96 225t-32 255t32 255t96 225zM852 -100h-20q67 96 98.5 223.5t31.5 256.5t-31.5 256.5t-98.5 223.5h20q64 -98 96 -225t32 -255t-32 -255t-96 -225zM532 707l-26 -314q55 46 124 46
q87 0 133.5 -53.5t46.5 -154.5q0 -104 -47.5 -158.5t-132.5 -54.5q-56 0 -98 21q-36 18 -69 51l19 20q23 -31 62 -53q39 -19 86 -19q75 0 116.5 48.5t41.5 144.5q0 188 -162 188q-67 0 -126 -53l-20 9q3 23 7 62l19 229q3 32 3 64q30 -3 61 -3h147q47 0 71 3v-26
q-24 3 -71 3h-185zM296 655v-549q0 -50 3 -76h-28q3 26 3 76v595l-97 -78q-2 -1 -15 -11.5t-20 -17.5v29q14 9 25 17l87 71q10 8 21 20h24q-3 -26 -3 -76z" />
    <glyph glyph-name="Japan1.8086" unicode="&#x2483;"
d="M148 860h20q-67 -96 -98.5 -223.5t-31.5 -256.5t31.5 -256.5t98.5 -223.5h-20q-64 98 -96 225t-32 255t32 255t96 225zM852 -100h-20q67 96 98.5 223.5t31.5 256.5t-31.5 256.5t-98.5 223.5h20q64 -98 96 -225t32 -255t-32 -255t-96 -225zM469 359v-16q27 54 73.5 88
t97.5 34q76 0 123 -59.5t47 -154.5q0 -100 -48 -163t-124 -63q-99 0 -145 80.5t-46 253.5q0 181 55 281t155 100q90 0 149 -70l-17 -17q-50 67 -132 67q-91 0 -139.5 -93t-48.5 -268zM638 46q68 0 109 56.5t41 148.5q0 86 -41 140t-107 54q-50 0 -99 -39t-71 -94
q6 -135 47 -200.5t121 -65.5zM296 655v-549q0 -50 3 -76h-28q3 26 3 76v595l-97 -78q-2 -1 -15 -11.5t-20 -17.5v29q14 9 25 17l87 71q10 8 21 20h24q-3 -26 -3 -76z" />
    <glyph glyph-name="Japan1.8087" unicode="&#x2484;"
d="M148 860h20q-67 -96 -98.5 -223.5t-31.5 -256.5t31.5 -256.5t98.5 -223.5h-20q-64 98 -96 225t-32 255t32 255t96 225zM852 -100h-20q67 96 98.5 223.5t31.5 256.5t-31.5 256.5t-98.5 223.5h20q64 -98 96 -225t32 -255t-32 -255t-96 -225zM519 721h289v-18
q-146 -261 -208 -594q-6 -29 -12 -89h-28q11 43 19 94q61 330 204 587h-264q-46 0 -83 -5v28q33 -3 83 -3zM296 655v-549q0 -50 3 -76h-28q3 26 3 76v595l-97 -78q-2 -1 -15 -11.5t-20 -17.5v29q14 9 25 17l87 71q10 8 21 20h24q-3 -26 -3 -76z" />
    <glyph glyph-name="Japan1.8088" unicode="&#x2485;"
d="M148 860h20q-67 -96 -98.5 -223.5t-31.5 -256.5t31.5 -256.5t98.5 -223.5h-20q-64 98 -96 225t-32 255t32 255t96 225zM852 -100h-20q67 96 98.5 223.5t31.5 256.5t-31.5 256.5t-98.5 223.5h20q64 -98 96 -225t32 -255t-32 -255t-96 -225zM678 390q69 -12 110 -60
t41 -119q0 -83 -54.5 -135.5t-140.5 -52.5t-140.5 52.5t-54.5 135.5q0 71 41 119t110 60q-58 13 -92.5 57.5t-34.5 110.5q0 79 47.5 128.5t123.5 49.5t123.5 -49.5t47.5 -128.5q0 -66 -34.5 -110.5t-92.5 -57.5zM485 558q0 -69 41.5 -113.5t107.5 -44.5t107.5 44.5
t41.5 113.5q0 70 -41.5 114.5t-107.5 44.5t-107.5 -44.5t-41.5 -114.5zM634 42q77 0 125 47t48 122t-48 122t-125 47t-125 -47t-48 -122t48 -122t125 -47zM296 655v-549q0 -50 3 -76h-28q3 26 3 76v595l-97 -78q-2 -1 -15 -11.5t-20 -17.5v29q14 9 25 17l87 71q10 8 21 20
h24q-3 -26 -3 -76z" />
    <glyph glyph-name="Japan1.8089" unicode="&#x2486;"
d="M148 860h20q-67 -96 -98.5 -223.5t-31.5 -256.5t31.5 -256.5t98.5 -223.5h-20q-64 98 -96 225t-32 255t32 255t96 225zM852 -100h-20q67 96 98.5 223.5t31.5 256.5t-31.5 256.5t-98.5 223.5h20q64 -98 96 -225t32 -255t-32 -255t-96 -225zM780 404v16
q-27 -54 -73.5 -87.5t-97.5 -33.5q-76 0 -123 59t-47 154q0 100 48 163t124 63q99 0 145 -80.5t46 -253.5q0 -181 -55 -281t-155 -100q-90 0 -149 70l17 18q51 -68 132 -68q91 0 139.5 92.5t48.5 268.5zM609 319q50 0 99 38.5t71 93.5q-6 136 -47 201.5t-121 65.5
q-68 0 -109 -56.5t-41 -149.5q0 -86 41 -139.5t107 -53.5zM296 655v-549q0 -50 3 -76h-28q3 26 3 76v595l-97 -78q-2 -1 -15 -11.5t-20 -17.5v29q14 9 25 17l87 71q10 8 21 20h24q-3 -26 -3 -76z" />
    <glyph glyph-name="Japan1.8090" unicode="&#x2487;"
d="M148 860h20q-67 -96 -98.5 -223.5t-31.5 -256.5t31.5 -256.5t98.5 -223.5h-20q-64 98 -96 225t-32 255t32 255t96 225zM852 -100h-20q67 96 98.5 223.5t31.5 256.5t-31.5 256.5t-98.5 223.5h20q64 -98 96 -225t32 -255t-32 -255t-96 -225zM189 46h220q40 0 62 3v-24
q-22 3 -62 3h-241v31q168 225 220 325t52 173q0 76 -30 118.5t-89 42.5q-72 0 -103 -65q-17 -43 -18 -79l-24 2q9 57 23 83q37 78 122 78q68 0 104.5 -47.5t36.5 -132.5q0 -77 -52 -178t-221 -328v-5zM692 738q31 0 57 -15.5t50.5 -52.5t38.5 -111t14 -179t-14 -179
t-38.5 -110.5t-50.5 -52t-57 -15.5q-24 0 -45 8.5t-42.5 33t-37 62.5t-25.5 103t-10 150t10 150t25.5 103.5t37 63t42.5 33t45 8.5zM830 380q0 98 -12 167.5t-33 105t-43.5 51t-49.5 15.5t-49.5 -15.5t-43.5 -51t-33 -105t-12 -167.5t12 -167.5t33 -105t43.5 -50.5t49.5 -15
t49.5 15t43.5 50.5t33 105t12 167.5z" />
    <glyph glyph-name="Japan1.8091" unicode="&#x3251;"
d="M737 594v-427q0 -50 3 -76h-28q3 26 3 76v475l-113 -90q-13 -9 -35 -30v29q14 9 25 17l102 82q10 8 21 20h25q-3 -26 -3 -76zM202 111h216q40 0 60 2v-25q-20 3 -60 3h-184q-26 0 -53 -3v32q67 78 114 135q90 112 119 168t29 105q0 129 -117 129q-71 0 -101 -52
q-15 -26 -19 -64l-23 3q6 42 22 69q37 64 121 64q67 0 103 -39.5t36 -109.5q0 -52 -31 -111.5t-123 -173.5q-34 -43 -109 -128v-4zM500 855q131 0 240 -63t172 -172t63 -240t-63 -240t-172 -172t-240 -63t-240 63t-172 172t-63 240t63 240t172 172t240 63zM500 837
q-190 0 -323.5 -133.5t-133.5 -323.5t133.5 -323.5t323.5 -133.5t323.5 133.5t133.5 323.5t-133.5 323.5t-323.5 133.5z" />
    <glyph glyph-name="Japan1.8092" unicode="&#x2170;"
d="M500 721q10 0 17 -6.5t7 -17.5t-6.5 -18t-17.5 -7t-18 7t-7 18q0 10 7 17t18 7zM485 520h29q-3 -32 -3 -75v-370q0 -43 3 -75h-29q3 32 3 75v370q0 43 -3 75z" />
    <glyph glyph-name="Japan1.8093" unicode="&#x2171;"
d="M612 721q10 0 17 -6.5t7 -17.5t-6.5 -18t-17.5 -7t-18 7t-7 18q0 10 7 17t18 7zM597 520h29q-3 -32 -3 -75v-370q0 -43 3 -75h-29q3 32 3 75v370q0 43 -3 75zM389 721q11 0 17.5 -6.5t6.5 -17.5t-6.5 -18t-17.5 -7t-18 7t-7 18q0 10 7 17t18 7zM374 520h29q-3 -32 -3 -75
v-370q0 -43 3 -75h-29q3 32 3 75v370q0 43 -3 75z" />
    <glyph glyph-name="Japan1.8094" unicode="&#x2172;"
d="M287 721q11 0 17.5 -6.5t6.5 -17.5t-6.5 -18t-17.5 -7t-18 7t-7 18q0 10 7 17t18 7zM272 520h29q-3 -32 -3 -75v-370q0 -43 3 -75h-29q3 32 3 75v370q0 43 -3 75zM713 721q11 0 17.5 -6.5t6.5 -17.5t-6.5 -18t-17.5 -7t-18 7t-7 18q0 10 7 17t18 7zM698 520h29
q-3 -32 -3 -75v-370q0 -43 3 -75h-29q3 32 3 75v370q0 43 -3 75zM500 721q10 0 17 -6.5t7 -17.5t-6.5 -18t-17.5 -7t-18 7t-7 18q0 10 7 17t18 7zM485 520h29q-3 -32 -3 -75v-370q0 -43 3 -75h-29q3 32 3 75v370q0 43 -3 75z" />
    <glyph glyph-name="Japan1.8095" unicode="&#x2173;"
d="M259 721q11 0 17.5 -6.5t6.5 -17.5t-6.5 -18t-17.5 -7t-18 7t-7 18q0 10 7 17t18 7zM244 520h29q-3 -32 -3 -75v-370q0 -43 3 -75h-29q3 32 3 75v370q0 43 -3 75zM792 520h30q-12 -23 -32 -75l-138 -370q-18 -49 -24 -75h-32q-5 25 -23 75l-140 370q-18 47 -31 75h29
q7 -27 26 -75l133 -354q9 -23 22 -62q2 8 22 62l132 354q19 48 26 75z" />
    <glyph glyph-name="Japan1.8096" unicode="&#x2174;"
d="M691 520h30q-11 -21 -33 -75l-147 -370q-18 -46 -25 -75h-32q-7 29 -25 75l-147 370q-22 54 -33 75h30q8 -28 27 -75l141 -354q16 -40 23 -62q9 27 23 62l141 354q19 47 27 75z" />
    <glyph glyph-name="Japan1.8097" unicode="&#x2175;"
d="M742 721q10 0 17 -6.5t7 -17.5t-6.5 -18t-17.5 -7t-18 7t-7 18q0 10 7 17t18 7zM727 520h29q-3 -32 -3 -75v-370q0 -43 3 -75h-29q3 32 3 75v370q0 43 -3 75zM568 520h30q-12 -23 -32 -75l-138 -370q-18 -49 -24 -75h-32q-5 25 -23 75l-140 370q-18 47 -31 75h29
q7 -27 26 -75l133 -354q9 -23 22 -62q2 8 22 62l132 354q19 48 26 75z" />
    <glyph glyph-name="Japan1.8098" unicode="&#x2176;"
d="M651 721q11 0 17.5 -6.5t6.5 -17.5t-6.5 -18t-17.5 -7t-18 7t-7 18q0 10 7 17t18 7zM636 520h29q-3 -32 -3 -75v-370q0 -43 3 -75h-29q3 32 3 75v370q0 43 -3 75zM832 721q10 0 17 -6.5t7 -17.5t-6.5 -18t-17.5 -7t-18 7t-7 18q0 10 7 17t18 7zM817 520h29q-3 -32 -3 -75
v-370q0 -43 3 -75h-29q3 32 3 75v370q0 43 -3 75zM497 520h29q-10 -19 -30 -75l-130 -370q-18 -50 -23 -75h-32q-3 24 -22 75l-133 370q-19 53 -29 75h29q5 -21 24 -75l126 -354q8 -23 21 -62q4 19 20 62l125 354q18 51 25 75z" />
    <glyph glyph-name="Japan1.8099" unicode="&#x2177;"
d="M706 721q10 0 17 -6.5t7 -17.5t-6.5 -18t-17.5 -7t-18 7t-7 18q0 10 7 17t18 7zM691 520h29q-3 -32 -3 -75v-370q0 -43 3 -75h-29q3 32 3 75v370q0 43 -3 75zM862 721q10 0 17 -6.5t7 -17.5t-6.5 -18t-17.5 -7t-18 7t-7 18q0 10 7 17t18 7zM847 520h29q-3 -32 -3 -75
v-370q0 -43 3 -75h-29q3 32 3 75v370q0 43 -3 75zM417 520h29q-11 -24 -27 -75l-115 -370q-18 -60 -21 -75h-32q-4 26 -20 75l-118 370q-19 58 -26 75h29q4 -22 20 -75l112 -354q2 -5 9 -28t10 -34q2 8 18 62l111 354q16 51 21 75zM550 721q10 0 17 -6.5t7 -17.5t-6.5 -18
t-17.5 -7t-18 7t-7 18q0 10 7 17t18 7zM535 520h29q-3 -32 -3 -75v-370q0 -43 3 -75h-29q3 32 3 75v370q0 43 -3 75z" />
    <glyph glyph-name="Japan1.8100" unicode="&#x2178;"
d="M259 721q11 0 17.5 -6.5t6.5 -17.5t-6.5 -18t-17.5 -7t-18 7t-7 18q0 10 7 17t18 7zM244 520h29q-3 -32 -3 -75v-370q0 -43 3 -75h-29q3 32 3 75v370q0 43 -3 75zM618 260l124 -185q36 -52 57 -75h-38q-14 29 -45 75l-113 169l-113 -169q-33 -49 -45 -75h-37q24 26 57 75
l126 185l-126 185q-33 49 -57 75h39q15 -30 45 -75l113 -169l113 169q35 52 45 75h36q-21 -23 -57 -75z" />
    <glyph glyph-name="Japan1.8101" unicode="&#x2179;"
d="M514 260l132 -185q41 -56 60 -75h-39q-14 29 -47 75l-121 169l-120 -169q-31 -44 -48 -75h-37q19 19 60 75l133 185l-133 185q-41 56 -60 75h39q21 -38 48 -75l121 -169l120 169q36 49 47 75h37q-19 -19 -60 -75z" />
    <glyph glyph-name="Japan1.8102" unicode="&#x3252;"
d="M202 111h209q39 0 59 2v-25q-20 3 -59 3h-178q-25 0 -52 -3v32q66 78 111 135q87 112 115 168t28 105q0 129 -113 129q-69 0 -97 -52q-15 -27 -18 -64l-24 3q6 42 22 69q36 64 117 64q65 0 100 -39.5t35 -109.5q0 -53 -29.5 -112t-119.5 -173q-27 -34 -106 -128v-4z
M545 111h209q39 0 59 2v-25q-20 3 -59 3h-178q-25 0 -52 -3v32q66 78 111 135q87 112 115 168t28 105q0 129 -113 129q-69 0 -97 -52q-15 -27 -18 -64l-24 3q6 42 22 69q36 64 117 64q65 0 100 -39.5t35 -109.5q0 -53 -29.5 -112t-119.5 -173q-27 -34 -106 -128v-4zM500 855
q131 0 240 -63t172 -172t63 -240t-63 -240t-172 -172t-240 -63t-240 63t-172 172t-63 240t63 240t172 172t240 63zM500 837q-190 0 -323.5 -133.5t-133.5 -323.5t133.5 -323.5t323.5 -133.5t323.5 133.5t133.5 323.5t-133.5 323.5t-323.5 133.5z" />
    <glyph glyph-name="Japan1.8103" unicode="&#x3253;"
d="M557 575l-17 13q18 36 44 58q37 32 89 32q58 0 92.5 -39t34.5 -109q0 -117 -104 -140v-3q62 -7 94 -46t32 -103q0 -72 -40 -113.5t-110 -41.5q-81 0 -125 59q-13 17 -24 38l18 13q9 -22 20 -38q38 -53 111 -53q60 0 94 36t34 100q0 66 -36.5 102.5t-106.5 36.5h-53l4 21
h38q132 0 132 132q0 61 -28.5 95.5t-76.5 34.5q-45 0 -77 -29q-26 -24 -39 -56zM202 111h209q39 0 59 2v-25q-20 3 -59 3h-178q-25 0 -52 -3v32q66 78 111 135q87 112 115 168t28 105q0 129 -113 129q-69 0 -97 -52q-15 -27 -18 -64l-24 3q6 42 22 69q36 64 117 64
q65 0 100 -39.5t35 -109.5q0 -53 -29.5 -112t-119.5 -173q-27 -34 -106 -128v-4zM500 855q131 0 240 -63t172 -172t63 -240t-63 -240t-172 -172t-240 -63t-240 63t-172 172t-63 240t63 240t172 172t240 63zM500 837q-190 0 -323.5 -133.5t-133.5 -323.5t133.5 -323.5
t323.5 -133.5t323.5 133.5t133.5 323.5t-133.5 323.5t-323.5 133.5z" />
    <glyph glyph-name="Japan1.8104" unicode="&#x3254;"
d="M734 274h46q30 0 58 3v-25q-29 3 -58 3h-46v-106q0 -39 3 -58h-27q2 19 2 58v106h-163q-17 0 -51 -2v28l184 347q11 19 19 42h35q-2 -16 -2 -48v-348zM516 274h196v369zM202 111h209q39 0 59 2v-25q-20 3 -59 3h-178q-25 0 -52 -3v32q66 78 111 135q87 112 115 168
t28 105q0 129 -113 129q-69 0 -97 -52q-15 -27 -18 -64l-24 3q6 42 22 69q36 64 117 64q65 0 100 -39.5t35 -109.5q0 -53 -29.5 -112t-119.5 -173q-27 -34 -106 -128v-4zM500 855q131 0 240 -63t172 -172t63 -240t-63 -240t-172 -172t-240 -63t-240 63t-172 172t-63 240
t63 240t172 172t240 63zM500 837q-190 0 -323.5 -133.5t-133.5 -323.5t133.5 -323.5t323.5 -133.5t323.5 133.5t133.5 323.5t-133.5 323.5t-323.5 133.5z" />
    <glyph glyph-name="Japan1.8105" unicode="&#x3255;"
d="M586 644l-19 -246q43 29 96 29q70 0 109.5 -44t39.5 -126q0 -83 -40.5 -131t-108.5 -48q-48 0 -80 16q-28 14 -56 42l11 20q22 -28 53 -44q28 -14 72 -14q59 0 93 41.5t34 117.5q0 150 -130 150q-59 0 -103 -40l-16 6q6 21 7 47l15 196q3 27 3 50q16 -2 46 -2h122
q39 0 58 2v-25q-19 3 -58 3h-148zM202 111h209q39 0 59 2v-25q-20 3 -59 3h-178q-25 0 -52 -3v32q66 78 111 135q87 112 115 168t28 105q0 129 -113 129q-69 0 -97 -52q-15 -27 -18 -64l-24 3q6 42 22 69q36 64 117 64q65 0 100 -39.5t35 -109.5q0 -53 -29.5 -112
t-119.5 -173q-27 -34 -106 -128v-4zM500 855q131 0 240 -63t172 -172t63 -240t-63 -240t-172 -172t-240 -63t-240 63t-172 172t-63 240t63 240t172 172t240 63zM500 837q-190 0 -323.5 -133.5t-133.5 -323.5t133.5 -323.5t323.5 -133.5t323.5 133.5t133.5 323.5
t-133.5 323.5t-323.5 133.5z" />
    <glyph glyph-name="Japan1.8106" unicode="&#x3256;"
d="M544 359v-12q20 45 57 73t79 28q62 0 101.5 -50t39.5 -128q0 -82 -40 -134.5t-102 -52.5q-81 0 -119 66.5t-38 209.5q0 150 45 232.5t126 82.5q41 0 69 -14q28 -13 53 -44l-13 -19q-22 30 -48 44q-25 13 -61 13q-71 0 -110 -76t-39 -219zM545 317q5 -108 37 -161t97 -53
q55 0 87.5 45.5t32.5 121.5q0 71 -32.5 114.5t-86.5 43.5q-43 0 -79 -31t-56 -80zM202 111h209q39 0 59 2v-25q-20 3 -59 3h-178q-25 0 -52 -3v32q66 78 111 135q87 112 115 168t28 105q0 129 -113 129q-69 0 -97 -52q-15 -27 -18 -64l-24 3q6 42 22 69q36 64 117 64
q65 0 100 -39.5t35 -109.5q0 -53 -29.5 -112t-119.5 -173q-27 -34 -106 -128v-4zM500 855q131 0 240 -63t172 -172t63 -240t-63 -240t-172 -172t-240 -63t-240 63t-172 172t-63 240t63 240t172 172t240 63zM500 837q-190 0 -323.5 -133.5t-133.5 -323.5t133.5 -323.5
t323.5 -133.5t323.5 133.5t133.5 323.5t-133.5 323.5t-323.5 133.5z" />
    <glyph glyph-name="Japan1.8107" unicode="&#x3257;"
d="M512 644v27q27 -3 68 -3h174q40 0 62 3v-22q-131 -223 -172 -481q-4 -26 -8 -74h-26q3 12 5 25t4.5 28.5t4.5 25.5q47 263 171 475h-215q-32 0 -68 -4zM202 111h209q39 0 59 2v-25q-20 3 -59 3h-178q-25 0 -52 -3v32q66 78 111 135q87 112 115 168t28 105q0 129 -113 129
q-69 0 -97 -52q-15 -27 -18 -64l-24 3q6 42 22 69q36 64 117 64q65 0 100 -39.5t35 -109.5q0 -53 -29.5 -112t-119.5 -173q-27 -34 -106 -128v-4zM500 855q131 0 240 -63t172 -172t63 -240t-63 -240t-172 -172t-240 -63t-240 63t-172 172t-63 240t63 240t172 172t240 63z
M500 837q-190 0 -323.5 -133.5t-133.5 -323.5t133.5 -323.5t323.5 -133.5t323.5 133.5t133.5 323.5t-133.5 323.5t-323.5 133.5z" />
    <glyph glyph-name="Japan1.8108" unicode="&#x3258;"
d="M716 390q56 -10 89.5 -49.5t33.5 -98.5q0 -69 -44 -112t-115 -43t-115 43t-44 112q0 59 33.5 98.5t89.5 49.5q-48 11 -76 48t-28 91q0 65 39 106t101 41t101 -41t39 -106q0 -54 -28 -91t-76 -48zM680 657q-54 0 -86.5 -35t-32.5 -93q0 -57 32.5 -93t86.5 -36t86.5 36
t32.5 93q0 58 -32.5 93t-86.5 35zM680 380q-63 0 -100.5 -38t-37.5 -100t37.5 -99t100.5 -37t100.5 37t37.5 99t-37.5 100t-100.5 38zM202 111h209q39 0 59 2v-25q-20 3 -59 3h-178q-25 0 -52 -3v32q66 78 111 135q87 112 115 168t28 105q0 129 -113 129q-69 0 -97 -52
q-15 -27 -18 -64l-24 3q6 42 22 69q36 64 117 64q65 0 100 -39.5t35 -109.5q0 -53 -29.5 -112t-119.5 -173q-27 -34 -106 -128v-4zM500 855q131 0 240 -63t172 -172t63 -240t-63 -240t-172 -172t-240 -63t-240 63t-172 172t-63 240t63 240t172 172t240 63zM500 837
q-190 0 -323.5 -133.5t-133.5 -323.5t133.5 -323.5t323.5 -133.5t323.5 133.5t133.5 323.5t-133.5 323.5t-323.5 133.5z" />
    <glyph glyph-name="Japan1.8109" unicode="&#x3259;"
d="M810 401v11q-20 -46 -57 -73t-80 -27q-61 0 -100 50t-39 128q0 83 39.5 135t101.5 52q157 0 157 -276q0 -150 -45 -232.5t-127 -82.5q-45 0 -76 17q-22 13 -46 41l13 19q22 -30 45 -42q27 -15 64 -15q73 0 111.5 75t38.5 220zM810 444q-11 213 -135 213q-55 0 -87 -45
t-32 -122q0 -71 32.5 -114.5t84.5 -43.5q42 0 80.5 31.5t56.5 80.5zM202 111h209q39 0 59 2v-25q-20 3 -59 3h-178q-25 0 -52 -3v32q66 78 111 135q87 112 115 168t28 105q0 129 -113 129q-69 0 -97 -52q-15 -27 -18 -64l-24 3q6 42 22 69q36 64 117 64q65 0 100 -39.5
t35 -109.5q0 -53 -29.5 -112t-119.5 -173q-27 -34 -106 -128v-4zM500 855q131 0 240 -63t172 -172t63 -240t-63 -240t-172 -172t-240 -63t-240 63t-172 172t-63 240t63 240t172 172t240 63zM500 837q-190 0 -323.5 -133.5t-133.5 -323.5t133.5 -323.5t323.5 -133.5
t323.5 133.5t133.5 323.5t-133.5 323.5t-323.5 133.5z" />
    <glyph glyph-name="Japan1.8110" unicode="&#x325a;"
d="M685 676q30 0 55.5 -13t49 -43.5t37 -91.5t13.5 -148q0 -295 -155 -295q-23 0 -43.5 7t-41.5 27t-35.5 52t-24 85.5t-9.5 123.5q0 87 13.5 148t37 91.5t48.5 43.5t55 13zM818 380q0 276 -133 276q-132 0 -132 -276q0 -275 132 -275q133 0 133 275zM203 575l-17 13
q18 36 44 58q37 32 89 32q58 0 92.5 -39t34.5 -109q0 -117 -104 -140v-3q62 -7 94 -46t32 -103q0 -72 -40 -113.5t-110 -41.5q-81 0 -125 59q-13 17 -24 38l18 13q9 -22 20 -38q38 -53 111 -53q60 0 94 36t34 100q0 66 -36.5 102.5t-106.5 36.5h-53l4 21h38q132 0 132 132
q0 61 -28.5 95.5t-76.5 34.5q-45 0 -77 -29q-26 -24 -39 -56zM500 855q131 0 240 -63t172 -172t63 -240t-63 -240t-172 -172t-240 -63t-240 63t-172 172t-63 240t63 240t172 172t240 63zM500 837q-190 0 -323.5 -133.5t-133.5 -323.5t133.5 -323.5t323.5 -133.5t323.5 133.5
t133.5 323.5t-133.5 323.5t-323.5 133.5z" />
    <glyph glyph-name="Japan1.8111" unicode="&#x325b;"
d="M737 594v-427q0 -50 3 -76h-28q3 26 3 76v475l-113 -90q-13 -9 -35 -30v29q14 9 25 17l102 82q10 8 21 20h25q-3 -26 -3 -76zM216 575l-18 13q17 35 45 58q38 32 92 32q59 0 95 -39t36 -109q0 -117 -107 -140v-3q63 -7 96 -46t33 -103q0 -72 -41 -113.5t-113 -41.5
q-84 0 -129 59q-13 17 -24 38l18 13q9 -24 21 -38q38 -53 114 -53q61 0 96.5 36t35.5 100q0 66 -38 102.5t-109 36.5h-55l4 21h39q137 0 137 132q0 61 -29.5 95.5t-79.5 34.5q-47 0 -79 -29q-27 -24 -40 -56zM500 855q131 0 240 -63t172 -172t63 -240t-63 -240t-172 -172
t-240 -63t-240 63t-172 172t-63 240t63 240t172 172t240 63zM500 837q-190 0 -323.5 -133.5t-133.5 -323.5t133.5 -323.5t323.5 -133.5t323.5 133.5t133.5 323.5t-133.5 323.5t-323.5 133.5z" />
    <glyph glyph-name="Japan1.8112" unicode="&#x249c;"
d="M148 860h20q-67 -96 -98.5 -223.5t-31.5 -256.5t31.5 -256.5t98.5 -223.5h-20q-64 98 -96 225t-32 255t32 255t96 225zM852 -100h-20q67 96 98.5 223.5t31.5 256.5t-31.5 256.5t-98.5 223.5h20q64 -98 96 -225t32 -255t-32 -255t-96 -225zM655 121v46q0 34 5 74h-2
q-28 -63 -79.5 -96.5t-119.5 -33.5q-82 0 -128 37t-46 103q0 166 285 166q52 0 84 -3v49q0 87 -38 126t-122 39q-49 0 -95 -23q-34 -18 -61 -48l-14 18q33 33 67 50q47 24 105 24q93 0 137 -44.5t44 -138.5v-269q0 -39 3 -76h-25zM654 262v132q-33 3 -84 3
q-135 0 -199 -35.5t-64 -110.5q0 -57 39.5 -88t112.5 -31q136 0 195 130z" />
    <glyph glyph-name="Japan1.8113" unicode="&#x249d;"
d="M148 860h20q-67 -96 -98.5 -223.5t-31.5 -256.5t31.5 -256.5t98.5 -223.5h-20q-64 98 -96 225t-32 255t32 255t96 225zM852 -100h-20q67 96 98.5 223.5t31.5 256.5t-31.5 256.5t-98.5 223.5h20q64 -98 96 -225t32 -255t-32 -255t-96 -225zM336 374h2q22 79 77 123t135 44
q105 0 168 -73.5t63 -197.5q0 -122 -63.5 -196t-167.5 -74q-78 0 -133.5 44t-77.5 122h-3q5 -32 5 -72v-84h-26q3 32 3 75v610q0 43 -3 75h29q-3 -31 -3 -75v-246q0 -38 -5 -75zM550 21q96 0 152 67t56 182t-56 182.5t-152 67.5t-152.5 -67.5t-56.5 -182.5q0 -114 57 -181.5
t152 -67.5z" />
    <glyph glyph-name="Japan1.8114" unicode="&#x249e;"
d="M148 860h20q-67 -96 -98.5 -223.5t-31.5 -256.5t31.5 -256.5t98.5 -223.5h-20q-64 98 -96 225t-32 255t32 255t96 225zM852 -100h-20q67 96 98.5 223.5t31.5 256.5t-31.5 256.5t-98.5 223.5h20q64 -98 96 -225t32 -255t-32 -255t-96 -225zM695 214l16 -16
q-16 -17 -38 -35q-66 -52 -159 -52q-107 0 -174.5 75t-67.5 195q0 122 66 194.5t177 72.5q77 0 130 -33q37 -24 58 -51l-18 -17q-22 31 -58 53q-43 27 -113 27q-101 0 -160 -66.5t-59 -179.5t60 -181t159 -68q84 0 139 41q30 24 42 41z" />
    <glyph glyph-name="Japan1.8115" unicode="&#x249f;"
d="M148 860h20q-67 -96 -98.5 -223.5t-31.5 -256.5t31.5 -256.5t98.5 -223.5h-20q-64 98 -96 225t-32 255t32 255t96 225zM852 -100h-20q67 96 98.5 223.5t31.5 256.5t-31.5 256.5t-98.5 223.5h20q64 -98 96 -225t32 -255t-32 -255t-96 -225zM707 695v-610q0 -43 3 -75
l-26 -1v82q0 38 5 75h-2q-22 -79 -77 -122.5t-135 -43.5q-105 0 -168 74t-63 198q0 121 63.5 195t167.5 74q79 0 134 -44t77 -123h3q-5 23 -5 95v226q0 43 -3 75h29q-3 -32 -3 -75zM475 21q97 0 153 67.5t56 183.5q0 113 -57 180.5t-152 67.5q-96 0 -152 -67t-56 -181
q0 -115 56 -183t152 -68z" />
    <glyph glyph-name="Japan1.8116" unicode="&#x24a0;"
d="M148 860h20q-67 -96 -98.5 -223.5t-31.5 -256.5t31.5 -256.5t98.5 -223.5h-20q-64 98 -96 225t-32 255t32 255t96 225zM852 -100h-20q67 96 98.5 223.5t31.5 256.5t-31.5 256.5t-98.5 223.5h20q64 -98 96 -225t32 -255t-32 -255t-96 -225zM721 389h-433v-5
q0 -114 61 -183t161 -69q84 0 142 43q24 18 40 40l16 -15q-15 -18 -38 -36q-65 -53 -160 -53q-109 0 -177 76t-68 197q0 126 63.5 198t173.5 72q105 0 162 -64.5t57 -182.5v-18zM289 409h409q0 108 -51 166t-146 58q-94 0 -150 -59.5t-62 -164.5z" />
    <glyph glyph-name="Japan1.8117" unicode="&#x24a1;"
d="M148 860h20q-67 -96 -98.5 -223.5t-31.5 -256.5t31.5 -256.5t98.5 -223.5h-20q-64 98 -96 225t-32 255t32 255t96 225zM852 -100h-20q67 96 98.5 223.5t31.5 256.5t-31.5 256.5t-98.5 223.5h20q64 -98 96 -225t32 -255t-32 -255t-96 -225zM456 520v47q0 94 40 143.5
t114 49.5q45 0 81 -15l-8 -22q-33 16 -75 16q-129 0 -129 -170v-49h52q43 0 75 3v-27q-31 3 -75 3h-52v-423q0 -43 3 -76h-29q3 33 3 76v423h-35q-43 0 -75 -3v27q32 -3 75 -3h35z" />
    <glyph glyph-name="Japan1.8118" unicode="&#x24a2;"
d="M148 860h20q-67 -96 -98.5 -223.5t-31.5 -256.5t31.5 -256.5t98.5 -223.5h-20q-64 98 -96 225t-32 255t32 255t96 225zM852 -100h-20q67 96 98.5 223.5t31.5 256.5t-31.5 256.5t-98.5 223.5h20q64 -98 96 -225t32 -255t-32 -255t-96 -225zM699 740h26q-3 -31 -3 -75v-471
q0 -99 -61.5 -156.5t-165.5 -57.5q-93 0 -148 42q-35 28 -62 77l19 13q24 -47 54 -72q50 -39 137 -39q96 0 150 51t54 142v108q0 40 4 80q-21 -82 -76.5 -127t-136.5 -45q-105 0 -168 74t-63 198q0 121 63.5 195t167.5 74q79 0 134 -44t78 -123q-3 34 -3 74v82zM490 231
q97 0 153 67.5t56 183.5q0 113 -57 180.5t-152 67.5q-96 0 -152 -67t-56 -181q0 -115 56 -183t152 -68z" />
    <glyph glyph-name="Japan1.8119" unicode="&#x24a3;"
d="M148 860h20q-67 -96 -98.5 -223.5t-31.5 -256.5t31.5 -256.5t98.5 -223.5h-20q-64 98 -96 225t-32 255t32 255t96 225zM852 -100h-20q67 96 98.5 223.5t31.5 256.5t-31.5 256.5t-98.5 223.5h20q64 -98 96 -225t32 -255t-32 -255t-96 -225zM728 5h-29q3 33 3 75v257
q0 86 -42 131.5t-122 45.5q-86 -1 -139.5 -50.5t-53.5 -128.5v-255q0 -44 3 -75h-29q3 32 3 75v610q0 44 -3 75h29q-3 -31 -3 -75v-280q21 58 73 91.5t122 33.5q88 0 136.5 -50.5t48.5 -141.5v-263q0 -42 3 -75z" />
    <glyph glyph-name="Japan1.8120" unicode="&#x24a4;"
d="M148 860h20q-67 -96 -98.5 -223.5t-31.5 -256.5t31.5 -256.5t98.5 -223.5h-20q-64 98 -96 225t-32 255t32 255t96 225zM852 -100h-20q67 96 98.5 223.5t31.5 256.5t-31.5 256.5t-98.5 223.5h20q64 -98 96 -225t32 -255t-32 -255t-96 -225zM501 721q11 0 17.5 -6.5
t6.5 -17.5t-6.5 -18t-17.5 -7t-18 7t-7 18q0 10 7 17t18 7zM486 520h29q-3 -32 -3 -75v-370q0 -43 3 -75h-29q3 32 3 75v370q0 43 -3 75z" />
    <glyph glyph-name="Japan1.8121" unicode="&#x24a5;"
d="M148 860h20q-67 -96 -98.5 -223.5t-31.5 -256.5t31.5 -256.5t98.5 -223.5h-20q-64 98 -96 225t-32 255t32 255t96 225zM852 -100h-20q67 96 98.5 223.5t31.5 256.5t-31.5 256.5t-98.5 223.5h20q64 -98 96 -225t32 -255t-32 -255t-96 -225zM553 816q11 0 17.5 -7t6.5 -17
q0 -11 -6.5 -18t-17.5 -7t-18 7t-7 18q0 10 7 17t18 7zM538 625h29q-3 -32 -3 -75v-424q0 -81 -40 -126t-112 -45q-46 0 -77 15l5 21q42 -17 76 -17q58 0 91.5 40.5t33.5 110.5v425q0 44 -3 75z" />
    <glyph glyph-name="Japan1.8122" unicode="&#x24a6;"
d="M148 860h20q-67 -96 -98.5 -223.5t-31.5 -256.5t31.5 -256.5t98.5 -223.5h-20q-64 98 -96 225t-32 255t32 255t96 225zM852 -100h-20q67 96 98.5 223.5t31.5 256.5t-31.5 256.5t-98.5 223.5h20q64 -98 96 -225t32 -255t-32 -255t-96 -225zM357 770h29q-3 -31 -3 -75v-610
q0 -43 3 -75h-29q3 32 3 75v610q0 43 -3 75zM428 275l201 -190q50 -46 88 -75h-48q-23 29 -71 75l-201 189l192 182q56 55 73 75h46q-38 -29 -88 -75z" />
    <glyph glyph-name="Japan1.8123" unicode="&#x24a7;"
d="M148 860h20q-67 -96 -98.5 -223.5t-31.5 -256.5t31.5 -256.5t98.5 -223.5h-20q-64 98 -96 225t-32 255t32 255t96 225zM852 -100h-20q67 96 98.5 223.5t31.5 256.5t-31.5 256.5t-98.5 223.5h20q64 -98 96 -225t32 -255t-32 -255t-96 -225zM485 760h29q-3 -32 -3 -75v-610
q0 -43 3 -75h-29q3 32 3 75v610q0 43 -3 75z" />
    <glyph glyph-name="Japan1.8124" unicode="&#x24a8;"
d="M148 860h20q-67 -96 -98.5 -223.5t-31.5 -256.5t31.5 -256.5t98.5 -223.5h-20q-64 98 -96 225t-32 255t32 255t96 225zM852 -100h-20q67 96 98.5 223.5t31.5 256.5t-31.5 256.5t-98.5 223.5h20q64 -98 96 -225t32 -255t-32 -255t-96 -225zM809 120h-29q3 39 3 76v248
q0 96 -27.5 140.5t-90.5 44.5q-64 0 -103.5 -49.5t-39.5 -128.5v-255q0 -37 3 -76h-29q3 39 3 76v248q0 95 -29 140t-91 45q-64 0 -102 -49t-38 -129v-256q0 -37 3 -75h-29q3 38 3 75v370q0 37 -3 75h26v-38q0 -38 -3 -68h1q15 52 53.5 84t92.5 32t88 -34.5t44 -98.5
q13 62 54.5 97.5t98.5 35.5q138 0 138 -196v-258q0 -37 3 -76z" />
    <glyph glyph-name="Japan1.8125" unicode="&#x24a9;"
d="M148 860h20q-67 -96 -98.5 -223.5t-31.5 -256.5t31.5 -256.5t98.5 -223.5h-20q-64 98 -96 225t-32 255t32 255t96 225zM852 -100h-20q67 96 98.5 223.5t31.5 256.5t-31.5 256.5t-98.5 223.5h20q64 -98 96 -225t32 -255t-32 -255t-96 -225zM713 116h-29q3 33 3 75v257
q0 86 -42 131.5t-122 45.5q-86 -1 -139.5 -50.5t-53.5 -128.5v-255q0 -43 3 -75h-29q3 31 3 75v370q0 43 -3 75h26v-42q0 -44 -4 -75h3q21 58 73 92.5t123 34.5q88 0 136.5 -50.5t48.5 -141.5v-263q0 -42 3 -75z" />
    <glyph glyph-name="Japan1.8126" unicode="&#x24aa;"
d="M148 860h20q-67 -96 -98.5 -223.5t-31.5 -256.5t31.5 -256.5t98.5 -223.5h-20q-64 98 -96 225t-32 255t32 255t96 225zM852 -100h-20q67 96 98.5 223.5t31.5 256.5t-31.5 256.5t-98.5 223.5h20q64 -98 96 -225t32 -255t-32 -255t-96 -225zM498 651q104 0 168.5 -75
t64.5 -196q0 -122 -63.5 -195.5t-169.5 -73.5q-104 0 -168.5 75t-64.5 196q0 122 63.5 195.5t169.5 73.5zM498 132q97 0 153.5 67t56.5 181q0 113 -57 181.5t-153 68.5q-97 0 -153.5 -67t-56.5 -181q0 -113 57 -181.5t153 -68.5z" />
    <glyph glyph-name="Japan1.8127" unicode="&#x24ab;"
d="M148 860h20q-67 -96 -98.5 -223.5t-31.5 -256.5t31.5 -256.5t98.5 -223.5h-20q-64 98 -96 225t-32 255t32 255t96 225zM852 -100h-20q67 96 98.5 223.5t31.5 256.5t-31.5 256.5t-98.5 223.5h20q64 -98 96 -225t32 -255t-32 -255t-96 -225zM322 575h3q23 79 77.5 122
t134.5 43q106 0 168.5 -73.5t62.5 -196.5q0 -122 -63.5 -196t-167.5 -74q-78 0 -133.5 44t-77.5 122h-4q5 -23 5 -95v-226q0 -44 3 -75h-29q3 31 3 75v610q0 43 -3 75h26v-80q0 -38 -5 -75zM536 221q96 0 152.5 67t56.5 182t-56.5 182t-152.5 67q-97 0 -153 -67t-56 -182
q0 -114 57 -181.5t152 -67.5z" />
    <glyph glyph-name="Japan1.8128" unicode="&#x24ac;"
d="M148 860h20q-67 -96 -98.5 -223.5t-31.5 -256.5t31.5 -256.5t98.5 -223.5h-20q-64 98 -96 225t-32 255t32 255t96 225zM852 -100h-20q67 96 98.5 223.5t31.5 256.5t-31.5 256.5t-98.5 223.5h20q64 -98 96 -225t32 -255t-32 -255t-96 -225zM705 655v-609q0 -45 3 -76h-30
q4 25 4 76v246q0 39 5 76h-2q-23 -80 -78 -124t-135 -44q-105 0 -168 74.5t-63 198.5q0 121 63.5 194.5t167.5 73.5q79 0 134.5 -44t78.5 -122h2q-5 32 -5 74v81h26q-3 -32 -3 -75zM472 221q97 0 153.5 68t56.5 184q0 113 -57 180t-153 67t-152 -67t-56 -180q0 -116 56 -184
t152 -68z" />
    <glyph glyph-name="Japan1.8129" unicode="&#x24ad;"
d="M148 860h20q-67 -96 -98.5 -223.5t-31.5 -256.5t31.5 -256.5t98.5 -223.5h-20q-64 98 -96 225t-32 255t32 255t96 225zM852 -100h-20q67 96 98.5 223.5t31.5 256.5t-31.5 256.5t-98.5 223.5h20q64 -98 96 -225t32 -255t-32 -255t-96 -225zM426 503h2q20 62 67 99.5
t106 37.5q51 0 79 -15l-8 -22q-38 16 -78 16q-58 0 -103.5 -44.5t-59.5 -115.5v-273q0 -44 3 -75h-29q3 32 3 75v370q0 44 -3 75h26v-39q0 -59 -5 -89z" />
    <glyph glyph-name="Japan1.8130" unicode="&#x24ae;"
d="M148 860h20q-67 -96 -98.5 -223.5t-31.5 -256.5t31.5 -256.5t98.5 -223.5h-20q-64 98 -96 225t-32 255t32 255t96 225zM852 -100h-20q67 96 98.5 223.5t31.5 256.5t-31.5 256.5t-98.5 223.5h20q64 -98 96 -225t32 -255t-32 -255t-96 -225zM295 212l17 16q21 -33 52 -58
q47 -38 131 -38q79 0 121 31t42 90q0 52 -35.5 78.5t-132.5 45.5q-89 18 -127.5 49t-38.5 84q0 64 46.5 102.5t123.5 38.5q54 0 100 -20q40 -18 66 -47l-16 -17q-19 24 -54 42q-44 21 -96 21q-69 0 -108 -32t-39 -88q0 -44 33.5 -69t113.5 -41q104 -21 145.5 -53.5
t41.5 -91.5q0 -68 -49.5 -106t-137.5 -38t-142 41q-34 25 -57 60z" />
    <glyph glyph-name="Japan1.8131" unicode="&#x24af;"
d="M148 860h20q-67 -96 -98.5 -223.5t-31.5 -256.5t31.5 -256.5t98.5 -223.5h-20q-64 98 -96 225t-32 255t32 255t96 225zM852 -100h-20q67 96 98.5 223.5t31.5 256.5t-31.5 256.5t-98.5 223.5h20q64 -98 96 -225t32 -255t-32 -255t-96 -225zM665 68l7 -20q-33 -18 -79 -18
q-66 0 -101.5 32.5t-35.5 91.5v385h-50q-43 0 -76 -3v27q33 -3 76 -3h50v91q0 45 -3 76h29q-3 -31 -3 -76v-91h87q44 0 75 3v-27q-32 3 -75 3h-87v-379q0 -53 29.5 -81t84.5 -28q40 0 72 17z" />
    <glyph glyph-name="Japan1.8132" unicode="&#x24b0;"
d="M148 860h20q-67 -96 -98.5 -223.5t-31.5 -256.5t31.5 -256.5t98.5 -223.5h-20q-64 98 -96 225t-32 255t32 255t96 225zM852 -100h-20q67 96 98.5 223.5t31.5 256.5t-31.5 256.5t-98.5 223.5h20q64 -98 96 -225t32 -255t-32 -255t-96 -225zM705 556v-370q0 -44 3 -75h-26
v42q0 41 3 75h-2q-21 -58 -73 -92.5t-123 -34.5q-88 0 -136.5 50t-48.5 141v264q0 44 -3 75h29q-3 -31 -3 -75v-258q0 -86 42 -131t122 -45q86 1 139.5 50t53.5 128v256q0 44 -3 75h29q-3 -32 -3 -75z" />
    <glyph glyph-name="Japan1.8133" unicode="&#x24b1;"
d="M148 860h20q-67 -96 -98.5 -223.5t-31.5 -256.5t31.5 -256.5t98.5 -223.5h-20q-64 98 -96 225t-32 255t32 255t96 225zM852 -100h-20q67 96 98.5 223.5t31.5 256.5t-31.5 256.5t-98.5 223.5h20q64 -98 96 -225t32 -255t-32 -255t-96 -225zM691 616h30q-11 -21 -33 -75
l-147 -370q-18 -46 -25 -75h-32q-7 29 -25 75l-147 370q-22 54 -33 75h30q8 -28 27 -75l141 -354q16 -40 23 -62q9 27 23 62l141 354q19 47 27 75z" />
    <glyph glyph-name="Japan1.8134" unicode="&#x24b2;"
d="M148 860h20q-67 -96 -98.5 -223.5t-31.5 -256.5t31.5 -256.5t98.5 -223.5h-20q-64 98 -96 225t-32 255t32 255t96 225zM852 -100h-20q67 96 98.5 223.5t31.5 256.5t-31.5 256.5t-98.5 223.5h20q64 -98 96 -225t32 -255t-32 -255t-96 -225zM802 614h30q-18 -47 -26 -75
l-114 -370q-12 -39 -18 -75h-33q-9 45 -18 75l-123 403l-123 -403q-12 -39 -18 -75h-33q-9 45 -18 75l-114 370q-13 43 -26 75h31q5 -32 18 -75l126 -408l125 408q15 46 19 75h27q5 -31 18 -75l126 -407l125 407q8 27 19 75z" />
    <glyph glyph-name="Japan1.8135" unicode="&#x24b3;"
d="M148 860h20q-67 -96 -98.5 -223.5t-31.5 -256.5t31.5 -256.5t98.5 -223.5h-20q-64 98 -96 225t-32 255t32 255t96 225zM852 -100h-20q67 96 98.5 223.5t31.5 256.5t-31.5 256.5t-98.5 223.5h20q64 -98 96 -225t32 -255t-32 -255t-96 -225zM514 381l132 -185
q41 -56 60 -75h-39q-14 29 -47 75l-121 169l-120 -169q-31 -44 -48 -75h-37q19 19 60 75l133 185l-133 185q-41 56 -60 75h39q21 -38 48 -75l121 -169l120 169q36 49 47 75h37q-19 -19 -60 -75z" />
    <glyph glyph-name="Japan1.8136" unicode="&#x24b4;"
d="M148 860h20q-67 -96 -98.5 -223.5t-31.5 -256.5t31.5 -256.5t98.5 -223.5h-20q-64 98 -96 225t-32 255t32 255t96 225zM852 -100h-20q67 96 98.5 223.5t31.5 256.5t-31.5 256.5t-98.5 223.5h20q64 -98 96 -225t32 -255t-32 -255t-96 -225zM709 738h30q-11 -21 -33 -75
l-190 -481q-48 -119 -88.5 -161.5t-105.5 -42.5q-38 0 -67 15l6 24q30 -18 65 -18q56 0 89 37t78 149l13 33l-177 445q-19 50 -34 75h32q8 -28 27 -75l165 -413l164 413q18 46 26 75z" />
    <glyph glyph-name="Japan1.8137" unicode="&#x24b5;"
d="M148 860h20q-67 -96 -98.5 -223.5t-31.5 -256.5t31.5 -256.5t98.5 -223.5h-20q-64 98 -96 225t-32 255t32 255t96 225zM852 -100h-20q67 96 98.5 223.5t31.5 256.5t-31.5 256.5t-98.5 223.5h20q64 -98 96 -225t32 -255t-32 -255t-96 -225zM323 142h315q50 0 75 3v-27
q-25 3 -75 3h-265q-50 0 -75 -3v34q33 34 60 70l270 351q22 29 37 47h-279q-50 0 -75 -3v27q25 -3 75 -3h239q46 0 71 3v-26q-34 -35 -61 -70z" />
    <glyph glyph-name="Japan1.8184"
d="M806 840h25l-637 -920h-25zM948 -42v-26q-24 3 -52 3h-215q-29 0 -53 -3v27l133 121q82 77 112 122.5t30 93.5q0 52 -30.5 81t-85.5 29q-50 0 -83 -27q-25 -22 -39 -53l-19 16q17 30 43 51q45 33 99 33q62 0 99.5 -35.5t37.5 -94.5q0 -52 -32.5 -102t-119.5 -130
l-117 -106l-1 -3h241q26 0 52 3zM227 825h23q-3 -24 -3 -53v-379q0 -29 3 -53h-28q3 16 3 53v404l-107 -71q-15 -10 -26 -21v28q9 3 20 11l100 67q10 7 15 14z" />
    <glyph glyph-name="Japan1.8185"
d="M840 94h44q29 0 53 3v-26q-24 3 -53 3h-44v-86q0 -29 3 -53h-27q3 24 3 53v86h-183q-32 0 -53 -4v29l196 271q17 23 33 50h31q-3 -23 -3 -52v-274zM606 94h213v299zM806 840h25l-637 -920h-25zM227 825h23q-3 -24 -3 -53v-379q0 -29 3 -53h-28q3 16 3 53v404l-107 -71
q-15 -10 -26 -21v28q9 3 20 11l100 67q10 7 15 14z" />
    <glyph glyph-name="Japan1.8224" unicode="&#x24ea;"
d="M499 694q100 0 153.5 -81t53.5 -232t-53.5 -232.5t-153.5 -81.5t-153.5 81.5t-53.5 232.5t53 232t154 81zM499 87q185 0 185 294q0 293 -185 293t-185 -293q0 -294 185 -294zM500 855q131 0 240 -63t172 -172t63 -240t-63 -240t-172 -172t-240 -63t-240 63t-172 172
t-63 240t63 240t172 172t240 63zM500 837q-190 0 -323.5 -133.5t-133.5 -323.5t133.5 -323.5t323.5 -133.5t323.5 133.5t133.5 323.5t-133.5 323.5t-323.5 133.5z" />
    <glyph glyph-name="Japan1.8225" unicode="&#x216a;"
d="M794 745h29q-3 -25 -3 -75v-595q0 -50 3 -75h-29q3 25 3 75v595q0 50 -3 75zM403 373l191 -298q32 -49 54 -75h-37q-11 25 -43 75l-178 279l-176 -279q-30 -47 -43 -75h-38q22 26 54 75l191 297l-191 298q-29 45 -54 75h38q13 -28 43 -75l177 -280l176 280q34 54 43 75
h37q-25 -30 -54 -75z" />
    <glyph glyph-name="Japan1.8226" unicode="&#x216b;"
d="M357 373l170 -298q25 -45 49 -75h-36q-7 19 -39 75l-157 279l-156 -279q-30 -53 -38 -75h-38q24 30 49 75l171 297l-171 298q-22 40 -49 75h38q8 -22 38 -75l157 -280l155 280q34 63 39 75h36q-27 -35 -49 -75zM864 745h29q-3 -25 -3 -75v-595q0 -50 3 -75h-29q3 25 3 75
v595q0 50 -3 75zM684 745h29q-3 -25 -3 -75v-595q0 -50 3 -75h-29q3 25 3 75v595q0 50 -3 75z" />
    <glyph glyph-name="Japan1.8227"
d="M148 860h20q-67 -96 -98.5 -223.5t-31.5 -256.5t31.5 -256.5t98.5 -223.5h-20q-64 98 -96 225t-32 255t32 255t96 225zM852 -100h-20q67 96 98.5 223.5t31.5 256.5t-31.5 256.5t-98.5 223.5h20q64 -98 96 -225t32 -255t-32 -255t-96 -225zM499 747q117 0 179.5 -94.5
t62.5 -271.5q0 -176 -62.5 -271t-179.5 -95t-179 95.5t-62 270.5q0 177 62 271.5t179 94.5zM499 36q109 0 164 88t55 257q0 345 -219 345q-108 0 -163 -87.5t-55 -257.5t55 -257.5t163 -87.5z" />
    <glyph glyph-name="Japan1.8228"
d="M758 755l-68 -105q61 -99 61 -277q0 -184 -65 -283.5t-188 -99.5q-112 0 -177 86l-56 -86h-24l67 104q-62 98 -62 279q0 184 64.5 283t187.5 99q114 0 180 -87l56 87h24zM321 113l344 536q-58 85 -167 85q-113 0 -171 -92t-58 -269q0 -169 52 -260zM677 630l-345 -535
q57 -84 166 -84q114 0 172 92.5t58 269.5q0 165 -51 257z" />
    <glyph glyph-name="Japan1.8286" unicode="&#x2776;"
d="M500 855q131 0 240 -63t172 -172t63 -240t-63 -240t-172 -172t-240 -63t-240 63t-172 172t-63 240t63 240t172 172t240 63zM524 138v488q0 40 3 62h-24q-5 -6 -20 -16l-133 -90q-10 -7 -18 -10v-31q5 6 26 20l142 96v-519q0 -30 -3 -62h30q-3 21 -3 62z" />
    <glyph glyph-name="Japan1.8287" unicode="&#x2777;"
d="M500 855q131 0 240 -63t172 -172t63 -240t-63 -240t-172 -172t-240 -63t-240 63t-172 172t-63 240t63 240t172 172t240 63zM334 109v5q53 45 152 136q114 105 151 163t37 126q0 76 -48 120.5t-128 44.5q-74 0 -123 -44q-28 -25 -46 -58l15 -18q13 27 43 59q45 39 111 39
q72 0 112.5 -38t40.5 -105q0 -63 -35 -117t-145 -158q-58 -54 -169 -151v-29q27 3 64 3h273q37 0 62 -3v28q-25 -3 -62 -3h-305z" />
    <glyph glyph-name="Japan1.8288" unicode="&#x2778;"
d="M500 855q131 0 240 -63t172 -172t63 -240t-63 -240t-172 -172t-240 -63t-240 63t-172 172t-63 240t63 240t172 172t240 63zM529 390v3q66 9 104.5 49t38.5 100q0 71 -46 111t-127 40q-63 0 -114 -34q-34 -21 -53 -55l16 -17q15 31 44 54q45 31 107 31q71 0 109.5 -34
t38.5 -96q0 -66 -45.5 -103t-127.5 -37h-37l-4 -24h61q84 0 130.5 -36t46.5 -99q0 -72 -45.5 -112.5t-127.5 -40.5q-80 0 -133 42q-26 21 -44 50l-17 -16q23 -30 46 -49q60 -49 148 -49q91 0 144.5 47.5t53.5 127.5q0 64 -45 103.5t-122 43.5z" />
    <glyph glyph-name="Japan1.8289" unicode="&#x2779;"
d="M276 277l277 386v-386h-277zM500 855q131 0 240 -63t172 -172t63 -240t-63 -240t-172 -172t-240 -63t-240 63t-172 172t-63 240t63 240t172 172t240 63zM578 277v351q0 30 3 63h-38q-18 -32 -41 -63l-247 -343v-32q21 2 62 2h236v-112q0 -41 -3 -63h31q-3 33 -3 63v112
h56q42 0 63 -3v28q-21 -3 -63 -3h-56z" />
    <glyph glyph-name="Japan1.8290" unicode="&#x277a;"
d="M500 855q131 0 240 -63t172 -172t63 -240t-63 -240t-172 -172t-240 -63t-240 63t-172 172t-63 240t63 240t172 172t240 63zM327 144l-12 -23q21 -18 57 -37q50 -27 122 -27q91 0 149.5 53.5t58.5 137.5q0 89 -52.5 135t-147.5 46q-80 0 -145 -49l23 274h212q51 0 73 -4
v30q-33 -3 -73 -3h-173q-20 0 -62 2q0 -10 -2 -52l-19 -217q-3 -40 -6 -50l17 -13q64 58 153 58q90 0 134 -38.5t44 -118.5q0 -77 -50.5 -122.5t-133.5 -45.5q-66 0 -115 25q-33 17 -52 39z" />
    <glyph glyph-name="Japan1.8291" unicode="&#x277b;"
d="M503 92q-168 0 -183 216q27 60 74.5 94t108.5 34q72 0 116 -45.5t44 -119.5q0 -82 -44 -130.5t-116 -48.5zM500 855q131 0 240 -63t172 -172t63 -240t-63 -240t-172 -172t-240 -63t-240 63t-172 172t-63 240t63 240t172 172t240 63zM646 633l11 24q-29 16 -64 26
q-36 9 -71 9q-109 0 -168.5 -87.5t-59.5 -248.5q0 -141 53 -214t156 -73q82 0 133.5 56.5t51.5 145.5q0 83 -51 135t-133 52q-60 0 -110.5 -33.5t-74.5 -87.5v19q0 153 51 233t152 80q37 0 66 -8q34 -11 58 -28z" />
    <glyph glyph-name="Japan1.8292" unicode="&#x277c;"
d="M500 855q131 0 240 -63t172 -172t63 -240t-63 -240t-172 -172t-240 -63t-240 63t-172 172t-63 240t63 240t172 172t240 63zM636 647h-259q-43 0 -73 3v-29q33 3 73 3h297q-76 -105 -138.5 -230.5t-89.5 -225.5q-21 -75 -30 -134h27q11 72 27 129q65 235 230 462v24
q-22 -2 -64 -2z" />
    <glyph glyph-name="Japan1.8293" unicode="&#x277d;"
d="M350 538q0 61 41.5 97.5t111.5 36.5t112 -36.5t42 -97.5t-42.5 -98.5t-111.5 -37.5t-111 37.5t-42 98.5zM503 89q-82 0 -130.5 37.5t-48.5 107.5q0 65 49 105t130 40q82 0 130.5 -40t48.5 -105q0 -70 -48 -107.5t-131 -37.5zM500 855q131 0 240 -63t172 -172t63 -240
t-63 -240t-172 -172t-240 -63t-240 63t-172 172t-63 240t63 240t172 172t240 63zM549 390q61 11 96 50.5t35 97.5q0 68 -49.5 112t-127.5 44t-127 -44t-49 -112q0 -57 35.5 -97t95.5 -51q-72 -11 -115 -53t-43 -103q0 -76 57 -121.5t146 -45.5q90 0 146.5 45t56.5 122
q0 61 -42.5 103t-114.5 53z" />
    <glyph glyph-name="Japan1.8294" unicode="&#x277e;"
d="M497 325q-73 0 -116 45t-43 120q0 83 43 131t117 48q85 0 129.5 -53t52.5 -163q-26 -59 -74.5 -93.5t-108.5 -34.5zM500 855q131 0 240 -63t172 -172t63 -240t-63 -240t-172 -172t-240 -63t-240 63t-172 172t-63 240t63 240t172 172t240 63zM355 129l-12 -25
q27 -14 64 -26q31 -9 71 -9q109 0 168.5 87.5t59.5 248.5q0 141 -53 214t-155 73q-82 0 -133.5 -56.5t-51.5 -145.5q0 -83 50.5 -135t132.5 -52q60 0 110.5 33t74.5 86v-17q0 -313 -203 -313q-33 0 -65 9q-34 11 -58 28z" />
    <glyph glyph-name="Japan1.8295"
d="M884 745h29q-3 -25 -3 -75v-595q0 -50 3 -75h-29q3 25 3 75v595q0 50 -3 75zM734 745h29q-3 -25 -3 -75v-595q0 -50 3 -75h-29q3 25 3 75v595q0 50 -3 75zM576 745h29q-3 -25 -3 -75v-595q0 -50 3 -75h-29q3 25 3 75v595q0 50 -3 75zM302 373l143 -298q23 -48 41 -75h-34
q-8 25 -32 75l-131 279l-131 -279q-23 -48 -32 -75h-34q18 27 41 75l144 297l-144 298q-21 44 -41 75h34q9 -27 32 -75l132 -280l129 280q25 54 33 75h33q-20 -31 -41 -75z" />
    <glyph glyph-name="Japan1.8296"
d="M487 745h29q-3 -25 -3 -75v-595q0 -50 3 -75h-29q3 25 3 75v595q0 50 -3 75zM263 373l134 -298q19 -43 39 -75h-34q-8 25 -30 75l-123 279l-123 -279q-25 -56 -31 -75h-33q20 32 39 75l137 297l-137 298q-17 38 -39 75h33q6 -19 31 -75l124 -280l122 280q22 53 30 75h33
q-19 -31 -38 -75zM937 745h27q-8 -25 -20 -75l-148 -595q-13 -54 -17 -75h-32q-3 12 -8 37t-8 38l-147 595q-6 25 -22 75h28q2 -13 17 -75l140 -579q13 -50 16 -63q3 14 8 35t7 28l143 579q12 50 16 75z" />
    <glyph glyph-name="Japan1.8297"
d="M292 373l143 -298q23 -48 41 -75h-34q-8 25 -32 75l-131 279l-131 -279q-23 -48 -32 -75h-34q18 27 41 75l144 297l-144 298q-21 44 -41 75h34q9 -27 32 -75l132 -280l129 280q25 54 33 75h33q-20 -31 -41 -75zM918 745h27q-4 -11 -7.5 -23.5t-7.5 -28t-6 -23.5
l-157 -595q-8 -29 -17 -75h-32q-1 5 -7 32.5t-10 42.5l-156 595q-14 50 -23 75h28l18 -75l149 -579q1 -3 7.5 -26t9.5 -37q4 22 16 63l151 579q12 42 17 75z" />
    <glyph glyph-name="Japan1.8298" unicode="&#x217a;"
d="M742 721q10 0 17 -6.5t7 -17.5t-6.5 -18t-17.5 -7t-18 7t-7 18q0 10 7 17t18 7zM727 520h29q-3 -32 -3 -75v-370q0 -43 3 -75h-29q3 32 3 75v370q0 43 -3 75zM411 260l124 -185q36 -52 57 -75h-38q-14 29 -45 75l-113 169l-113 -169q-33 -49 -45 -75h-37q24 26 57 75
l126 185l-126 185q-33 49 -57 75h39q15 -30 45 -75l113 -169l113 169q35 52 45 75h36q-21 -23 -57 -75z" />
    <glyph glyph-name="Japan1.8299" unicode="&#x217b;"
d="M651 721q11 0 17.5 -6.5t6.5 -17.5t-6.5 -18t-17.5 -7t-18 7t-7 18q0 10 7 17t18 7zM636 520h29q-3 -32 -3 -75v-370q0 -43 3 -75h-29q3 32 3 75v370q0 43 -3 75zM832 721q10 0 17 -6.5t7 -17.5t-6.5 -18t-17.5 -7t-18 7t-7 18q0 10 7 17t18 7zM817 520h29q-3 -32 -3 -75
v-370q0 -43 3 -75h-29q3 32 3 75v370q0 43 -3 75zM367 260l117 -185q31 -48 54 -75h-37q-10 22 -43 75l-105 169l-107 -169q-29 -45 -43 -75h-36q22 25 54 75l119 185l-119 185q-32 50 -54 75h38q11 -25 43 -75l106 -169l106 169q35 54 43 75h35q-23 -27 -54 -75z" />
    <glyph glyph-name="Japan1.8300"
d="M706 721q10 0 17 -6.5t7 -17.5t-6.5 -18t-17.5 -7t-18 7t-7 18q0 10 7 17t18 7zM691 520h29q-3 -32 -3 -75v-370q0 -43 3 -75h-29q3 32 3 75v370q0 43 -3 75zM862 721q10 0 17 -6.5t7 -17.5t-6.5 -18t-17.5 -7t-18 7t-7 18q0 10 7 17t18 7zM847 520h29q-3 -32 -3 -75
v-370q0 -43 3 -75h-29q3 32 3 75v370q0 43 -3 75zM550 721q10 0 17 -6.5t7 -17.5t-6.5 -18t-17.5 -7t-18 7t-7 18q0 10 7 17t18 7zM535 520h29q-3 -32 -3 -75v-370q0 -43 3 -75h-29q3 32 3 75v370q0 43 -3 75zM297 260l104 -185q27 -47 49 -75h-36q-10 24 -38 75l-92 169
l-95 -169q-27 -48 -38 -75h-35q21 25 49 75l106 185l-106 185q-28 50 -49 75h37q11 -26 38 -75l93 -169l94 169q26 46 36 75h36q-22 -28 -49 -75z" />
    <glyph glyph-name="Japan1.8301"
d="M495 721q11 0 17.5 -6.5t6.5 -17.5t-6.5 -18t-17.5 -7t-18 7t-7 18q0 10 7 17t18 7zM480 520h29q-3 -32 -3 -75v-370q0 -43 3 -75h-29q3 32 3 75v370q0 43 -3 75zM273 260l98 -185q26 -48 46 -75h-37q-10 29 -34 75l-86 169l-89 -169q-22 -41 -36 -75h-35q22 29 47 75
l100 185l-100 185q-25 46 -47 75h37q12 -28 36 -75l87 -169l88 169q24 48 34 75h35q-20 -27 -46 -75zM885 520h29q-12 -25 -26 -75l-108 -370q-15 -51 -20 -75h-32q-3 23 -19 75l-111 370q-16 53 -25 75h29q2 -21 19 -75l105 -354q9 -29 18 -62q5 21 17 62l104 354
q16 53 20 75z" />
    <glyph glyph-name="Japan1.8302"
d="M322 260l110 -185q31 -51 52 -75h-37q-8 20 -40 75l-99 169l-101 -169q-30 -52 -40 -75h-36q19 22 52 75l112 185l-112 185q-33 53 -52 75h38q11 -25 40 -75l100 -169l100 169q31 53 39 75h36q-21 -24 -52 -75zM869 520h29q-11 -20 -29 -75l-122 -370q-18 -54 -22 -75
h-32q-3 21 -21 75l-126 370q-15 47 -27 75h29q3 -18 22 -75l119 -354q7 -23 20 -62q3 15 19 62l118 354q13 39 23 75z" />
  </font>
</defs>
</svg>
