<svg width="163" height="30" viewBox="0 0 163 30" fill="none" xmlns="http://www.w3.org/2000/svg">
<path d="M50.085 14.7357C50.085 14.7357 50.3775 14.7357 50.4234 14.8446C50.4831 15.0299 50.5122 15.2236 50.5095 15.4182C50.5095 15.4182 50.4349 15.9918 50.4349 16.1065C50.417 16.3967 50.3728 16.6846 50.303 16.9668C50.2641 17.2371 50.1509 17.4913 49.9761 17.701C49.8089 17.9185 49.5815 18.082 49.3222 18.1713C49.0583 18.2229 48.7486 18.3893 48.4102 18.4524C48.0718 18.5155 47.7793 18.5097 47.3606 18.5556C46.9303 18.604 46.4973 18.6251 46.0643 18.6187C45.3761 18.6187 44.3436 18.6187 44.2576 18.6187C44.1716 18.6187 41.516 18.5212 41.2406 18.5097C40.7438 18.4237 40.2612 18.2693 39.8067 18.0509C39.5955 17.9342 39.4132 17.7716 39.2732 17.575C39.1332 17.3785 39.0392 17.153 38.998 16.9152C38.9406 16.4736 38.998 15.12 38.9521 14.7242C38.9062 14.3284 39.0209 10.7609 39.0209 10.7609V7.80699L39.0898 4.33118L39.1643 0.407993C39.1444 0.342564 39.1444 0.272674 39.1643 0.207245C39.2045 0.109739 39.2274 -0.0107099 39.4913 0.000761371C39.7551 0.0122327 40.8678 0.00076137 41.0456 0.0351753C41.41 0.0626161 41.766 0.157936 42.0953 0.316223C42.3988 0.485931 42.669 0.709435 42.8925 0.975823C43.1637 1.28247 43.311 1.67919 43.3055 2.08854C43.3055 2.66211 43.3399 5.77083 43.3055 5.89128C43.3015 6.06784 43.3131 6.24441 43.3399 6.41896C43.3399 6.59103 43.3743 11.4262 43.3743 11.4262C43.3743 11.4262 43.3743 12.8257 43.3743 12.9863C43.3743 13.1469 43.3399 13.904 43.317 14.0703C43.3192 14.2583 43.3602 14.4438 43.4374 14.6152C43.4833 14.7127 43.6152 14.7471 43.8733 14.7586C44.1314 14.7701 46.2938 14.7586 46.2938 14.7586L49.5803 14.793L50.085 14.7357Z" fill="#514736"/>
<path d="M64.0339 11.6557C64.0192 10.9113 63.923 10.1708 63.7471 9.44745C63.5957 8.88755 63.404 8.33932 63.1735 7.80705C62.9775 7.31593 62.6959 6.86346 62.3419 6.47064C61.7993 5.83964 61.0985 5.3645 60.3115 5.09408C58.7143 4.46124 56.9323 4.48185 55.3501 5.15144C54.8961 5.3985 54.4758 5.70309 54.0997 6.05767C53.5669 6.60036 53.0886 7.19397 52.6715 7.82999C51.5244 9.37288 51.2721 11.9195 51.8514 13.7435C52.2018 15.1378 52.9187 16.4131 53.9277 17.4372C55.5107 18.8941 58.5162 19.0145 60.5237 18.527C61.7511 18.2287 62.4853 16.9784 63.0302 15.9402C63.7073 14.6146 64.0518 13.1441 64.0339 11.6557ZM59.9788 11.7417C60.0021 12.4677 59.9249 13.1935 59.7494 13.8983C59.5945 14.4719 59.1758 15.6534 57.7935 15.6534C56.4112 15.6534 56.0212 14.1048 55.9982 13.9327C55.9753 13.7607 55.8778 11.4779 55.8663 11.1681C55.8204 9.86041 56.2506 7.8472 57.9197 7.8472C58.3205 7.80231 58.724 7.90511 59.0544 8.13634C59.3849 8.36757 59.6198 8.71136 59.7149 9.10331C59.8765 9.97385 59.9647 10.8564 59.9788 11.7417Z" fill="#514736"/>
<path d="M77.7535 11.1623C77.7535 10.801 77.679 9.91771 77.6101 9.499C77.0366 5.90848 72.1842 3.76334 69.064 5.23741C67.8194 5.81097 66.8328 7.33666 66.1962 8.52394C65.9222 9.2442 65.7784 10.0075 65.7717 10.7781C65.6001 12.5514 65.8274 14.3406 66.4371 16.0147C66.8686 16.7647 67.4552 17.4139 68.1578 17.9189C69.5056 18.9112 71.559 18.808 72.97 18.0623C73.1924 17.8912 73.3979 17.6992 73.5837 17.4888V17.6666C73.5626 17.8603 73.5261 18.0521 73.4747 18.2401C73.4288 18.4696 73.2854 19.2554 73.2109 19.4963C73.0587 19.8369 72.847 20.1477 72.5857 20.414C72.2072 20.6537 71.8007 20.8463 71.3755 20.9875C70.8581 21.1026 70.3264 21.1393 69.7982 21.0965C69.4673 21.0895 69.1383 21.0452 68.8174 20.9646C68.445 20.8625 68.0823 20.7282 67.7333 20.5631C67.6574 20.5394 67.5775 20.5318 67.4985 20.5407C67.4195 20.5496 67.3432 20.5748 67.2745 20.6147C67.1693 20.7774 67.0809 20.9504 67.0106 21.1309C66.8427 21.5402 66.701 21.9598 66.5862 22.387C66.5291 22.7222 66.5061 23.0624 66.5174 23.4022C66.5518 23.494 66.5518 23.5456 66.8271 23.6546C67.8469 23.8831 68.8791 24.0516 69.9186 24.1593C72.3563 24.1593 74.8169 24.3773 76.3024 22.0601C76.3999 21.9052 76.876 20.8671 77.0251 20.5631C77.1742 20.2591 77.4839 18.8424 77.5413 18.5499C77.5987 18.2574 77.7248 16.0835 77.7248 15.9688C77.7248 15.8541 77.765 11.5237 77.7535 11.1623ZM73.664 10.411C73.664 11.0304 73.6296 13.0207 73.6296 13.0953C73.6559 13.4326 73.6385 13.7719 73.578 14.1047C73.4902 14.4562 73.2847 14.7669 72.9955 14.985C72.7064 15.2032 72.3512 15.3156 71.9892 15.3035C71.6133 15.3075 71.2455 15.1942 70.9371 14.9793C70.6287 14.7644 70.395 14.4587 70.2685 14.1047C70.1489 13.5114 70.0608 12.9121 70.0046 12.3095C70.0046 12.0055 70.0849 10.3192 70.0735 10.0152C70.1089 9.50307 70.2372 9.00164 70.452 8.53541C70.615 8.29564 70.8292 8.0951 71.0792 7.94828C71.3292 7.80147 71.6086 7.71207 71.8974 7.68653C72.2391 7.70075 72.5679 7.82104 72.8381 8.03067C73.1269 8.23619 73.3757 8.49277 73.5722 8.78778C73.6789 9.32185 73.7098 9.86828 73.664 10.411Z" fill="#514736"/>
<path d="M108.187 9.25817C108.152 8.83543 108.049 8.42104 107.883 8.03074C107.581 7.39391 107.173 6.81228 106.679 6.31005C106.227 5.9285 105.748 5.58147 105.245 5.27189C104.998 5.15144 104.396 4.92202 104 4.7901C103.466 4.66135 102.92 4.58452 102.371 4.56067C102.371 4.56067 101.924 4.56067 101.683 4.56067C101.123 4.66354 100.574 4.81712 100.042 5.01952C99.5571 5.25643 99.1119 5.56804 98.7232 5.94296C96.9566 7.47438 96.5207 9.95792 96.6526 12.1375C96.687 12.711 96.8935 13.8582 97.0254 14.535C97.4269 16.5711 99.3197 18.4754 101.419 18.6647C102.987 18.7785 104.563 18.6194 106.076 18.1943C106.375 18.1198 107.327 17.6208 107.453 17.5806C107.579 17.5405 107.717 17.2422 107.728 17.0816C107.729 16.8177 107.693 16.555 107.619 16.3016C107.526 15.9756 107.413 15.6557 107.281 15.3437C107.184 15.1667 107.03 15.0273 106.845 14.9479C106.749 14.9352 106.652 14.9555 106.57 15.0053C106.57 15.0053 106.22 15.1659 105.996 15.2749C105.497 15.3999 104.989 15.4805 104.476 15.5158C104.161 15.5502 103.524 15.5502 103.329 15.5617C102.899 15.534 102.474 15.457 102.061 15.3322C101.591 15.2003 100.914 14.1048 100.834 13.8983C100.736 13.6245 100.714 13.329 100.771 13.0437C100.828 12.8258 101.132 12.7741 101.167 12.7627C101.201 12.7512 103.621 12.8258 103.667 12.8143C103.713 12.8028 105.199 12.8143 105.704 12.8143C106.208 12.8143 106.753 12.8143 107.155 12.8143C107.386 12.8359 107.619 12.8145 107.843 12.7512C107.998 12.672 108.127 12.5507 108.216 12.4013C108.254 12.1296 108.275 11.8556 108.279 11.5811C108.295 10.8057 108.265 10.0299 108.187 9.25817ZM104.384 10.0038C104.35 10.2103 104.092 10.2677 103.782 10.2447C102.916 10.1816 102.061 10.1874 101.184 10.1357C101.048 10.1451 100.912 10.1451 100.777 10.1357C100.713 10.1357 100.702 9.77438 100.777 9.34994C100.962 8.79312 101.276 8.28802 101.694 7.87588C101.88 7.69645 102.106 7.5646 102.354 7.49159L102.79 7.40556C102.935 7.3888 103.082 7.40314 103.222 7.44764C103.361 7.49214 103.49 7.56577 103.599 7.66366C103.922 7.99036 104.174 8.38108 104.338 8.81079C104.399 9.20541 104.415 9.60569 104.384 10.0038Z" fill="#514736"/>
<path d="M110.693 18.4868C110.693 18.4868 110.515 15.7623 110.515 15.4239C110.515 15.0855 110.659 11.7531 110.682 11.4778C110.705 11.2025 110.842 8.55261 110.842 8.25436C110.842 7.9561 110.791 6.94089 110.756 6.53366C110.695 6.17366 110.56 5.8301 110.361 5.52418C110.344 5.50466 110.333 5.48129 110.328 5.45628C110.324 5.43127 110.325 5.40546 110.333 5.38131C110.342 5.35717 110.356 5.33548 110.374 5.31832C110.393 5.30116 110.416 5.2891 110.441 5.28329C110.939 5.11474 111.455 5.00501 111.978 4.95635C112.367 4.98866 112.751 5.05975 113.125 5.16857C113.493 5.29546 113.835 5.48784 114.135 5.7364C114.295 5.87392 114.441 6.02769 114.571 6.19526C114.628 6.26982 114.811 6.14937 114.886 6.10922C115.296 5.81095 115.728 5.5426 116.177 5.30623C116.634 5.10406 117.11 4.94841 117.599 4.84164C118.157 4.79771 118.719 4.81502 119.274 4.89326C119.807 5.06875 120.305 5.33455 120.748 5.67905C121.171 6.02053 121.506 6.45935 121.723 6.9581C121.937 7.43546 122.069 7.94542 122.113 8.46658C122.113 8.91396 122.147 9.97506 122.182 10.1414C122.216 10.3077 122.314 14.6668 122.314 14.6668C122.314 14.6668 122.256 16.8406 122.268 16.898C122.216 17.2021 122.128 17.4987 122.004 17.7813C121.942 17.9503 121.833 18.0978 121.689 18.2057C121.42 18.3121 121.134 18.3723 120.845 18.3835C120.467 18.3835 119.698 18.4466 119.457 18.4294C119.139 18.4328 118.83 18.323 118.586 18.1197C117.473 17.0471 117.869 14.8676 117.828 13.4738C117.828 13.0838 117.828 9.60797 117.754 9.33266C117.587 8.98063 117.306 8.69552 116.957 8.52393C116.627 8.40332 116.265 8.40332 115.936 8.52393C115.563 8.76347 115.215 9.04019 114.898 9.34987C114.71 9.66248 114.605 10.0179 114.594 10.3823C114.594 10.7494 114.639 11.2656 114.651 11.8449C114.662 12.4242 114.76 17.1045 114.76 17.1045C114.76 17.1045 114.76 17.7469 114.76 17.8042C114.723 17.929 114.654 18.0417 114.559 18.1312C114.4 18.2727 114.198 18.3574 113.986 18.3721C113.67 18.3721 112.838 18.4237 112.489 18.4352C112.139 18.4466 111.531 18.4352 111.399 18.4352L110.693 18.4868Z" fill="#514736"/>
<path d="M136.504 11.3171C136.509 10.5439 136.416 9.77315 136.229 9.02288C135.959 8.13148 135.502 7.30782 134.889 6.60665C134.276 5.90549 133.52 5.3429 132.673 4.9563C131.193 4.29097 129.231 4.58922 127.757 5.08822C127.044 5.3947 126.397 5.8369 125.853 6.39022C125.392 6.96397 124.995 7.58725 124.672 8.24857C124.489 8.78955 124.383 9.3532 124.356 9.92338C124.356 10.2388 124.356 12.0972 124.356 12.4585C124.356 12.8199 124.551 13.7147 124.608 14.1792C124.819 14.8692 125.108 15.5331 125.469 16.158C125.859 16.7516 126.352 17.2703 126.926 17.6895C127.549 18.103 128.229 18.4237 128.945 18.6416C129.411 18.7209 129.883 18.7573 130.356 18.7506C130.885 18.7615 131.413 18.6918 131.921 18.5441C133.095 18.1802 134.14 17.4875 134.933 16.5481C135.407 15.9441 135.793 15.2759 136.08 14.5635C136.282 14.1156 136.393 13.6322 136.407 13.1411C136.458 12.7568 136.533 12.4069 136.504 11.3171ZM132.197 13.5024C132.169 14.0807 131.958 14.6352 131.594 15.0855C131.268 15.3608 131.021 15.7451 130.476 15.7336C130.222 15.7133 129.974 15.6407 129.749 15.5203C129.524 15.3999 129.326 15.2343 129.168 15.0339C128.84 14.4045 128.606 13.7299 128.474 13.0321C128.423 12.5388 128.474 10.2446 128.474 10.0266C128.568 9.51517 128.747 9.02287 129.002 8.56977C129.242 8.24165 129.542 7.9615 129.885 7.74383C130.071 7.68128 130.263 7.64273 130.459 7.62912C130.597 7.60911 130.737 7.61655 130.872 7.651C131.007 7.68545 131.133 7.74624 131.245 7.82987C131.554 7.99129 131.8 8.25181 131.944 8.56977C132.205 9.21369 132.345 9.89997 132.357 10.5945C132.346 11.3688 132.225 12.9862 132.197 13.5024Z" fill="#514736"/>
<path d="M137.003 5.07101C137.128 4.99925 137.267 4.95614 137.41 4.94482C137.727 4.91533 138.045 4.90384 138.362 4.91041C139.16 4.97924 140.611 4.53759 141.138 5.38073C141.41 5.86316 141.643 6.36552 141.838 6.88348C141.878 7.04981 142.326 8.77624 142.326 8.77624L143.53 13.7491L143.737 14.8962L143.88 14.9306L144.362 12.275L145.354 8.32886L146.255 5.20293C146.409 5.08901 146.582 5.00177 146.765 4.94482C147.063 4.94482 150.207 4.80717 150.08 5.36926C150.08 5.4553 149.794 6.51639 149.622 7.04407C149.449 7.57175 148.383 10.8984 148.383 10.8984L146.92 16.0605C146.92 16.0605 146.404 17.7525 146.381 17.8673C146.312 18.0547 146.191 18.2181 146.031 18.3376C145.432 18.4477 144.827 18.5205 144.219 18.5555C143.903 18.5555 143.203 18.4752 142.71 18.4638C142.176 18.4704 141.655 18.3033 141.225 17.9877C140.766 17.6264 140.393 16.5079 140.295 16.3473C140.198 16.1867 138.534 9.95205 138.534 9.95205L137.078 5.44383C137.078 5.44383 136.906 5.16278 137.003 5.07101Z" fill="#514736"/>
<path d="M155.128 12.9232C155.346 12.9232 155.816 12.9232 156.005 12.9232C156.195 12.9232 159.183 13.0665 159.447 13.0551C159.711 13.0436 160.703 13.0551 161.036 12.9977C161.344 12.9585 161.641 12.8549 161.907 12.6937C162.171 12.5389 162.211 12.1202 162.257 11.7875C162.303 11.4548 162.223 9.69972 162.183 9.26381C162.082 8.67118 161.909 8.09324 161.667 7.54311C161.308 6.85534 160.821 6.24219 160.233 5.73638C159.26 5.05731 158.122 4.65308 156.939 4.56627C155.756 4.47946 154.572 4.71329 153.51 5.24311C150.643 6.72865 150.471 10.4396 150.677 13.2329C150.752 14.1166 151.014 14.9743 151.445 15.7494C151.876 16.5245 152.467 17.1994 153.178 17.7296C154.732 18.8768 156.619 18.7965 158.443 18.5556C159.065 18.4258 159.672 18.2337 160.256 17.982C160.752 17.7931 161.232 17.5629 161.689 17.2937C162.521 16.875 161.621 15.183 161.041 14.8905C160.823 14.7815 160.542 14.8905 160.089 15.0453C159.475 15.2304 158.848 15.3685 158.214 15.4583C156.803 15.5788 154.979 14.9364 154.772 13.2616C154.767 13.0551 154.91 12.9461 155.128 12.9232ZM154.858 9.79722C154.898 9.59074 155.139 8.65009 155.225 8.40919C155.372 8.09373 155.595 7.81972 155.874 7.61194C156.078 7.49277 156.298 7.40389 156.527 7.3481C156.799 7.34683 157.067 7.40559 157.313 7.52017C157.635 7.70514 157.911 7.95993 158.122 8.2658C158.265 8.54111 158.363 8.55832 158.409 8.9082C158.439 9.23633 158.439 9.5666 158.409 9.89473C158.408 9.92561 158.401 9.95605 158.389 9.9843C158.376 10.0125 158.358 10.038 158.336 10.0594C158.313 10.0807 158.287 10.0973 158.258 10.1085C158.229 10.1196 158.199 10.1249 158.168 10.1242C158.024 10.1242 156.728 10.1815 156.418 10.17C156.109 10.1586 155.03 10.2102 154.979 10.2102C154.927 10.2102 154.801 10.0037 154.858 9.79722Z" fill="#514736"/>
<path d="M95.2073 5.89691C95.1791 6.42854 95.0568 6.95095 94.8459 7.4398C94.6785 7.94104 94.441 8.41607 94.1404 8.85078C93.9108 9.24374 93.616 9.5948 93.2686 9.88893C92.8499 10.1872 92.3452 10.3707 91.915 10.646C92.8719 11.1737 93.5872 12.0515 93.911 13.0952L94.4846 14.9937C94.7488 15.7479 95.1779 16.4337 95.7407 17.0011C95.9873 17.2822 96.1537 17.3568 95.8038 17.6091C95.4539 17.8615 94.9377 18.1827 94.8689 18.2171C94.6491 18.3149 94.4206 18.3917 94.1863 18.4465C93.8333 18.5324 93.4714 18.5767 93.108 18.5785C92.4944 18.5622 91.9091 18.3166 91.4676 17.8902C91.056 17.3744 90.7659 16.7726 90.6188 16.1293L89.6609 13.3361C89.5131 12.8697 89.2508 12.4477 88.8981 12.1086C88.473 11.796 87.9502 11.6455 87.424 11.6842C87.0512 11.6842 86.2769 11.4777 86.3285 12.0054V13.3934L86.208 15.0223L86.3285 17.9819V18.3548C85.9186 18.3928 85.5068 18.4062 85.0953 18.3949C84.8085 18.3949 84.5218 18.5154 84.2006 18.5154C83.4923 18.5792 82.7784 18.521 82.0898 18.3433C82.0898 18.3433 82.0898 17.9361 82.0898 17.9074V13.944L82.1988 4.92185L82.0726 0.293173L82.2619 0.109632C83.8048 0.0694828 84.3898 0.166989 85.4452 0.149782C86.5006 0.132575 88.313 0.0293332 88.921 0.0293332C89.7292 0.00891891 90.5352 0.121302 91.307 0.362001C92.0122 0.511134 92.6747 0.816933 93.2457 1.25676C93.843 1.81533 94.316 2.49349 94.6337 3.24704C94.9951 4.08471 95.1899 4.98476 95.2073 5.89691ZM86.3973 3.2413C86.1736 3.52235 86.3055 4.27372 86.3055 4.58345V8.39192C86.3969 8.40375 86.4895 8.40375 86.5809 8.39192C87.5961 8.39192 88.8751 8.5009 89.724 8.02484C90.0613 7.85102 90.336 7.57634 90.5098 7.23906C90.7134 6.77545 90.8057 6.27065 90.7794 5.76499C90.8049 5.40621 90.7588 5.04592 90.6436 4.70518C90.5283 4.36444 90.3464 4.05008 90.1083 3.78045C89.202 2.89716 87.7681 3.16674 86.6669 3.11512C86.6147 3.10947 86.562 3.11825 86.5144 3.1405C86.4669 3.16275 86.4264 3.19762 86.3973 3.2413Z" fill="#514736"/>
<path d="M16.4624 25.3237C16.6149 25.1724 16.8211 25.0875 17.036 25.0875C17.2508 25.0875 17.457 25.1724 17.6095 25.3237L21.5786 29.2526C21.7311 29.4039 21.9373 29.4889 22.1522 29.4889C22.367 29.4889 22.5732 29.4039 22.7257 29.2526L23.609 28.3693C23.7603 28.2168 23.8452 28.0106 23.8452 27.7958C23.8452 27.5809 23.7603 27.3748 23.609 27.2222L19.6572 23.2646C19.5058 23.1121 19.4209 22.9059 19.4209 22.691C19.4209 22.4762 19.5058 22.27 19.6572 22.1175L21.5671 20.2075C21.7211 20.0589 21.9267 19.9759 22.1407 19.9759C22.3547 19.9759 22.5603 20.0589 22.7143 20.2075L26.6661 24.1651C26.8201 24.3137 27.0257 24.3967 27.2397 24.3967C27.4537 24.3967 27.6593 24.3137 27.8133 24.1651L28.7023 23.2761C28.8509 23.1221 28.9339 22.9165 28.9339 22.7025C28.9339 22.4885 28.8509 22.2829 28.7023 22.129L19.6686 13.0494C19.5173 12.8969 19.4324 12.6907 19.4324 12.4758C19.4324 12.261 19.5173 12.0548 19.6686 11.9023L21.5786 9.9923C21.7326 9.8437 21.9382 9.76066 22.1522 9.76066C22.3661 9.76066 22.5718 9.8437 22.7257 9.9923L31.8053 19.0489C31.9578 19.2002 32.164 19.2851 32.3788 19.2851C32.5937 19.2851 32.7999 19.2002 32.9524 19.0489L33.8357 18.1656C33.987 18.0131 34.0719 17.8069 34.0719 17.592C34.0719 17.3772 33.987 17.171 33.8357 17.0185L17.621 0.775093C17.467 0.626499 17.2614 0.543457 17.0474 0.543457C16.8335 0.543457 16.6278 0.626499 16.4739 0.775093L0.236214 17.007C0.0849025 17.1596 0 17.3657 0 17.5806C0 17.7954 0.0849025 18.0016 0.236214 18.1541L1.14245 19.0489C1.29499 19.2002 1.50115 19.2851 1.71601 19.2851C1.93087 19.2851 2.13703 19.2002 2.28958 19.0489L16.4624 4.87035C16.6149 4.71904 16.8211 4.63414 17.036 4.63414C17.2508 4.63414 17.457 4.71904 17.6095 4.87035L19.5195 6.77459C19.6681 6.92856 19.7511 7.13418 19.7511 7.34816C19.7511 7.56213 19.6681 7.76776 19.5195 7.92172L5.34668 22.1175C5.19809 22.2714 5.11505 22.4771 5.11505 22.691C5.11505 22.905 5.19809 23.1106 5.34668 23.2646L6.23571 24.1536C6.38968 24.3022 6.5953 24.3853 6.80928 24.3853C7.02325 24.3853 7.22888 24.3022 7.38284 24.1536L16.4624 15.097C16.6149 14.9457 16.8211 14.8608 17.036 14.8608C17.2508 14.8608 17.457 14.9457 17.6095 15.097L19.5195 17.007C19.6708 17.1596 19.7557 17.3657 19.7557 17.5806C19.7557 17.7954 19.6708 18.0016 19.5195 18.1541L10.4629 27.2337C10.3116 27.3862 10.2267 27.5924 10.2267 27.8073C10.2267 28.0221 10.3116 28.2283 10.4629 28.3808L11.3462 29.2526C11.5001 29.4012 11.7058 29.4843 11.9197 29.4843C12.1337 29.4843 12.3393 29.4012 12.4933 29.2526L16.4624 25.3237Z" fill="#8C7D5E"/>
<path d="M95.104 23.1499C95.1605 23.1507 95.2156 23.1672 95.2632 23.1976C95.3109 23.228 95.3491 23.2711 95.3736 23.322C95.4892 23.5197 95.5591 23.7409 95.5779 23.9692C95.5968 24.1975 95.5642 24.4271 95.4825 24.6412C95.3219 25.0427 95.1728 25.3065 95.0122 25.6564C94.3992 27.0988 93.4085 28.3491 92.1444 29.2756C91.7703 29.5454 91.373 29.7815 90.9571 29.9811C90.9117 30.0002 90.8615 30.005 90.8133 29.9948C90.7651 29.9845 90.7212 29.9597 90.6875 29.9237C90.4855 29.6983 90.2606 29.4946 90.0164 29.3157C89.9986 29.305 89.9839 29.2899 89.9737 29.2718C89.9634 29.2537 89.958 29.2333 89.958 29.2125C89.958 29.1917 89.9634 29.1713 89.9737 29.1532C89.9839 29.1351 89.9986 29.12 90.0164 29.1093C90.5997 28.8569 91.1505 28.5353 91.6568 28.1514C92.1659 27.723 92.6206 27.2337 93.0105 26.6945C93.5125 26.0439 93.9004 25.3127 94.1576 24.5322C94.1641 24.5139 94.166 24.4944 94.1633 24.4752C94.1606 24.456 94.1533 24.4378 94.1421 24.422C94.1308 24.4063 94.1159 24.3935 94.0986 24.3847C94.0814 24.3759 94.0623 24.3714 94.0429 24.3716C93.8593 24.3716 93.3948 24.297 93.0621 24.297C92.6319 24.297 92.3107 24.3716 92.0297 24.3716C91.9482 24.3718 91.8678 24.3911 91.7951 24.428C91.7224 24.4648 91.6593 24.5182 91.611 24.5838C91.2336 25.123 90.8095 25.6277 90.3434 26.0923C90.1825 26.2543 89.967 26.3506 89.739 26.3623C89.511 26.3739 89.2868 26.3002 89.1102 26.1554C89.0586 26.1095 89.0012 26.0694 88.9381 26.0235C88.9191 26.0084 88.9036 25.9893 88.893 25.9674C88.8824 25.9456 88.8769 25.9216 88.8769 25.8973C88.8769 25.873 88.8824 25.849 88.893 25.8272C88.9036 25.8053 88.9191 25.7861 88.9381 25.7711C89.3453 25.4597 89.7288 25.1185 90.0853 24.7502C90.4367 24.338 90.7497 23.8945 91.0202 23.4252C91.0768 23.3351 91.1556 23.2609 91.2489 23.2097C91.3423 23.1585 91.4471 23.132 91.5536 23.1327H92.8441L95.104 23.1499Z" fill="#514736"/>
<path d="M99.744 23.7234C99.744 24.297 99.6465 24.9107 99.6809 25.5072C99.6809 25.8628 99.7268 26.2242 99.744 26.5855C99.744 26.6327 99.7252 26.6779 99.6919 26.7113C99.6585 26.7446 99.6133 26.7633 99.5662 26.7633H99.0557C98.9084 26.7635 98.7667 26.707 98.6599 26.6056C98.5531 26.5042 98.4895 26.3655 98.4821 26.2184C98.4821 25.9374 98.5337 25.6449 98.5223 25.3581V24.6469V23.689V22.6795C98.5219 22.6528 98.5274 22.6264 98.5384 22.602C98.5494 22.5776 98.5655 22.5559 98.5857 22.5385C98.6059 22.521 98.6297 22.5081 98.6554 22.5008C98.6811 22.4935 98.7081 22.4918 98.7345 22.496C99.0184 22.5529 99.2741 22.7061 99.458 22.9298C99.642 23.1535 99.743 23.4338 99.744 23.7234ZM102.612 22.4673C102.611 22.4421 102.617 22.4171 102.627 22.3941C102.637 22.3711 102.653 22.3507 102.672 22.3343C102.691 22.3179 102.714 22.3058 102.738 22.2991C102.762 22.2924 102.788 22.291 102.813 22.2953C103.109 22.3572 103.375 22.5192 103.566 22.7542C103.758 22.9892 103.862 23.2829 103.862 23.5858C103.905 24.2217 103.905 24.8598 103.862 25.4958C103.816 26.4753 103.494 27.4218 102.933 28.2259C102.512 28.7384 101.996 29.1649 101.413 29.482C101.153 29.6666 100.858 29.7973 100.547 29.8663C100.329 29.8663 100.209 29.5509 100.134 29.3845C100.102 29.323 100.082 29.2557 100.077 29.1865C100.071 29.1173 100.08 29.0476 100.102 28.9818C100.124 28.9159 100.159 28.8552 100.204 28.8031C100.25 28.7511 100.306 28.7089 100.369 28.679C100.866 28.4792 101.324 28.1938 101.723 27.8359C102.095 27.4264 102.352 26.9258 102.468 26.3848C102.584 25.8799 102.651 25.3652 102.669 24.8476C102.669 24.3601 102.589 23.8496 102.589 23.3506L102.612 22.4673Z" fill="#514736"/>
<path d="M111.044 23.0811C110.614 24.694 109.83 26.1909 108.749 27.4631C108.092 28.1798 107.316 28.7774 106.455 29.2297C106.329 29.3042 106.208 29.3731 106.082 29.4362C106.047 29.4622 106.005 29.4763 105.962 29.4763C105.859 29.4763 105.692 29.2125 105.618 29.1436C105.559 29.0814 105.515 29.0069 105.489 28.9255C105.463 28.8441 105.456 28.7579 105.467 28.6733C105.479 28.5886 105.509 28.5076 105.556 28.4362C105.603 28.3647 105.665 28.3047 105.738 28.2604C106.856 27.7159 107.814 26.892 108.52 25.8686C108.9 25.2547 109.212 24.6007 109.449 23.9185C109.605 23.4175 109.712 22.9028 109.77 22.3813C109.773 22.3639 109.78 22.3474 109.79 22.3331C109.8 22.3187 109.814 22.3069 109.829 22.2986C109.845 22.2903 109.862 22.2857 109.88 22.2851C109.897 22.2845 109.915 22.288 109.931 22.2953C110.274 22.4497 110.605 22.628 110.923 22.8287C110.968 22.8523 111.003 22.8896 111.025 22.935C111.047 22.9805 111.053 23.0316 111.044 23.0811Z" fill="#514736"/>
<path d="M113.017 26.7806C112.954 26.7177 112.904 26.643 112.87 26.5609C112.836 26.4787 112.818 26.3906 112.818 26.3016C112.818 26.2127 112.836 26.1246 112.87 26.0424C112.904 25.9602 112.954 25.8856 113.017 25.8227C113.739 25.1402 114.353 24.3658 115.018 23.6317C115.133 23.4727 115.282 23.3421 115.454 23.2498C115.627 23.1576 115.818 23.1061 116.014 23.0995C116.209 23.0928 116.404 23.1312 116.582 23.2115C116.761 23.2918 116.918 23.412 117.043 23.5629C117.697 24.2397 118.19 25.0312 118.804 25.7481C119.372 26.4241 119.993 27.0532 120.662 27.6294C120.697 27.6575 120.722 27.6968 120.731 27.7407C120.74 27.7846 120.734 27.8304 120.714 27.8703C120.563 28.1268 120.395 28.3722 120.209 28.6045C120.192 28.6239 120.172 28.6395 120.149 28.6501C120.125 28.6608 120.1 28.6663 120.074 28.6663C120.049 28.6663 120.024 28.6608 120 28.6501C119.977 28.6395 119.956 28.6239 119.94 28.6045C119.509 28.1801 119.114 27.7155 118.724 27.2509C118.496 26.9766 118.287 26.6872 118.098 26.3848C117.809 26.0102 117.499 25.6522 117.169 25.3122C116.498 24.4748 116.372 24.3658 116.131 24.3658C115.793 24.3658 115.517 24.6756 115.311 24.9394C115.104 25.2033 114.823 25.513 114.588 25.7998C114.204 26.2758 113.831 26.792 113.544 27.0731C113.509 27.1074 113.462 27.1266 113.412 27.1266C113.363 27.1266 113.316 27.1074 113.281 27.0731L113.017 26.7806Z" fill="#514736"/>
<path d="M86.839 24.5493C86.839 23.8381 86.6211 23.2244 85.9098 23.2244L80.7936 23.2645C80.6522 23.2645 80.5165 23.3207 80.4165 23.4207C80.3164 23.5208 80.2602 23.6565 80.2602 23.7979C80.2602 23.8782 80.2602 23.9585 80.2602 24.0388C80.3004 25.7595 80.3061 27.4802 80.2602 29.1665C80.2602 29.1951 80.2659 29.2235 80.2768 29.2499C80.2878 29.2764 80.3038 29.3004 80.3241 29.3206C80.3443 29.3409 80.3683 29.3569 80.3948 29.3679C80.4212 29.3788 80.4496 29.3845 80.4782 29.3845H86.558C86.6325 29.3845 86.704 29.3549 86.7567 29.3021C86.8094 29.2494 86.839 29.178 86.839 29.1034L86.7645 27.6064L86.839 24.5493ZM85.5542 28.2545C85.5223 28.2631 85.4887 28.2631 85.4567 28.2545C84.8086 28.3062 84.1547 28.3463 83.5009 28.3406C82.7898 28.3611 82.0786 28.3073 81.3787 28.18C81.3787 27.6064 81.4532 27.0328 81.4475 26.4593C81.4475 25.7882 81.3959 25.1229 81.3787 24.4518C81.3787 24.3986 81.3998 24.3475 81.4375 24.3098C81.4751 24.2722 81.5262 24.251 81.5794 24.251H81.8318C82.4054 24.251 82.5373 24.1822 83.0994 24.1822H84.2064C84.4071 24.1822 84.8832 24.2453 85.0782 24.2683C85.1407 24.2667 85.2029 24.2775 85.2612 24.3001C85.3196 24.3226 85.3729 24.3564 85.4182 24.3995C85.4635 24.4427 85.4998 24.4943 85.5251 24.5515C85.5504 24.6087 85.5642 24.6703 85.5657 24.7328C85.5829 25.0308 85.5829 25.3296 85.5657 25.6276C85.5657 25.9431 85.5657 26.2528 85.5657 26.5625C85.5657 26.8722 85.5657 27.1361 85.5657 27.4286V27.8588C85.56 27.9505 85.6345 28.1972 85.5542 28.2545Z" fill="#514736"/>
<path d="M119.653 23.018C119.791 23.1636 119.921 23.3168 120.043 23.4768L119.899 23.6317C119.851 23.6847 119.792 23.7271 119.726 23.7561C119.661 23.7851 119.59 23.8001 119.518 23.8001C119.446 23.8001 119.375 23.7851 119.309 23.7561C119.244 23.7271 119.185 23.6847 119.136 23.6317C118.96 23.4383 118.768 23.2599 118.563 23.0983L118.626 23.0295C118.691 22.958 118.769 22.9007 118.857 22.8611C118.945 22.8215 119.04 22.8006 119.137 22.7995C119.233 22.7984 119.329 22.8173 119.417 22.8549C119.506 22.8925 119.586 22.948 119.653 23.018Z" fill="#514736"/>
<path d="M120.519 22.192C120.662 22.3411 120.805 22.4902 120.909 22.6107C120.856 22.6555 120.806 22.7033 120.76 22.7541C120.71 22.8056 120.651 22.8466 120.585 22.8747C120.52 22.9027 120.449 22.9171 120.378 22.9171C120.307 22.9171 120.236 22.9027 120.171 22.8747C120.105 22.8466 120.046 22.8056 119.997 22.7541C119.831 22.5757 119.655 22.4072 119.469 22.2494L119.509 22.2092C119.641 22.0738 119.821 21.996 120.01 21.9928C120.199 21.9896 120.382 22.0612 120.519 22.192Z" fill="#514736"/>
<path d="M95.2876 21.8823C95.4365 22.0242 95.5782 22.1735 95.712 22.3297C95.6432 22.3756 95.4941 22.4559 95.3278 22.5706C95.2524 22.6221 95.161 22.6446 95.0704 22.6341C94.9798 22.6236 94.896 22.5806 94.8345 22.5132C94.6593 22.3067 94.4675 22.1149 94.2609 21.9397L94.433 21.8078C94.5617 21.7185 94.7177 21.677 94.8738 21.6907C95.0299 21.7043 95.1763 21.7721 95.2876 21.8823Z" fill="#514736"/>
<path d="M96.7558 21.6298C96.9049 21.7904 97.0368 21.9453 97.1171 22.0485L96.7214 22.3124C96.6548 22.3575 96.5733 22.3749 96.494 22.361C96.4148 22.3471 96.3441 22.3029 96.2969 22.2378C96.1155 21.9957 95.912 21.7711 95.6889 21.5668L95.7463 21.5266C95.897 21.4145 96.0842 21.363 96.2711 21.3821C96.4579 21.4012 96.6309 21.4896 96.7558 21.6298Z" fill="#514736"/>
</svg>
