<svg xmlns="http://www.w3.org/2000/svg" viewBox="0 0 300 51.73"><defs><style>.cls-1{fill:#0b0a4a;}.cls-2{fill:#595857;}</style></defs><title>logo_larg</title><g id="Layer_2" data-name="Layer 2"><g id="Layer_1-2" data-name="Layer 1"><path class="cls-1" d="M25.86,51.73A25.87,25.87,0,1,1,51.73,25.87,25.89,25.89,0,0,1,25.86,51.73ZM25.86,1A24.89,24.89,0,1,0,50.75,25.87,24.91,24.91,0,0,0,25.86,1Z"/><polygon class="cls-1" points="30.94 44.78 30.94 42.82 29.61 44.78 30.94 44.78"/><path class="cls-1" d="M25.86,2.8A23.07,23.07,0,1,0,48.93,25.87,23.07,23.07,0,0,0,25.86,2.8ZM22.42,45.61V46H19.6v-1a1,1,0,0,1,1-1.07h.88a.46.46,0,0,0,.39-.18.62.62,0,0,0,.14-.41.52.52,0,0,0-.53-.57H19.67v-.43h1.84a1,1,0,0,1,0,2h-.88c-.43,0-.61.19-.61.65v.56Zm2.6.47c-.77,0-1.65-.21-1.65-1.84s.88-1.85,1.65-1.85,1.65.21,1.65,1.85S25.78,46.08,25,46.08Zm3.08,0h-.42V42.39h.42ZM32,45.2h-.66V46h-.42V45.2H29.13v-.47l1.59-2.34h.64v2.39H32Zm-6.16-8.36a19.55,19.55,0,0,0-9.8,2.6s2.72-3.38,9.76-3.4h.07c7,0,9.76,3.4,9.76,3.4A19.54,19.54,0,0,0,25.86,36.84Zm0-2.94a30.55,30.55,0,0,0-14.79,3.84,23.52,23.52,0,0,1,14.77-4.93h0a23.52,23.52,0,0,1,14.77,4.93A30.51,30.51,0,0,0,25.88,33.9Zm0-2.77c-5.57,0-13,1.44-18.38,4.88a15,15,0,0,1,4.23-3.19h-.33V18.91L25.82,8.31,40.29,19v1.54H25.93v-2H36.2l-10.39-7.7-12.4,9.11V32a30.81,30.81,0,0,1,12.38-2.38h.14A30.9,30.9,0,0,1,38.26,32V24h2v8.84H40A14.79,14.79,0,0,1,44.23,36C38.82,32.57,31.42,31.14,25.86,31.13Z"/><path class="cls-1" d="M25,42.82c-.65,0-1.23.11-1.23,1.42s.58,1.42,1.23,1.42,1.22-.11,1.22-1.42S25.66,42.82,25,42.82Z"/><polygon class="cls-2" points="191.51 9.93 199.72 9.93 199.72 31.07 201.88 31.07 201.88 9.93 210.03 9.93 210.03 7.77 191.51 7.77 191.51 9.93"/><polygon class="cls-2" points="254.57 7.77 252.37 7.77 252.37 31.07 270.88 31.07 270.88 28.92 254.57 28.92 254.57 7.77"/><path class="cls-2" d="M293.13,9.84H300V7.77h-6.87a11.61,11.61,0,0,0-11.56,10.61h-2.65v2.08h2.65a11.61,11.61,0,0,0,11.56,10.61H300V29h-6.87a9.56,9.56,0,0,1-9.48-8.54h14.52V18.38H283.65A9.57,9.57,0,0,1,293.13,9.84Z"/><path class="cls-2" d="M237.35,7.77c-.19.19-1,1.23-6.91,9.52l-.29.4-.3-.4C223.93,9,223.13,8,223,7.77h-2.54L229,19.82V31.07h2.23V19.82l8.62-12Z"/><path class="cls-2" d="M87.18,11.51A6.46,6.46,0,0,0,83.11,8c-.19,0-.38-.1-.57-.13l-.16,0a6.64,6.64,0,0,0-1-.09H69.19V18.43H66.54v2.15h2.65v10.5h2.15V20.58H81.5a6.39,6.39,0,0,0,5.68-9.07ZM85.6,14.24a4.15,4.15,0,0,1-.08.79h0a4.23,4.23,0,0,1-4.14,3.38h-10V9.93h10a4.25,4.25,0,0,1,4.23,4.24S85.6,14.21,85.6,14.24Z"/><path class="cls-2" d="M112.74,20.58h0l0-.07a6.42,6.42,0,0,0,5.44-6.33A6.41,6.41,0,0,0,113.49,8c-.19,0-.38-.1-.58-.13l-.16,0a6.41,6.41,0,0,0-1-.09H99.57V18.43H96.92v2.15h2.65v10.5h2.15V20.58h8.54c.4.65,1.82,3.07,5.91,10.25l.23.4,1.9-.95Zm-11-10.65h10A4.24,4.24,0,0,1,116,14.17v.07a4.15,4.15,0,0,1-.08.79h0a4.25,4.25,0,0,1-4.15,3.38h-10Z"/><path class="cls-2" d="M138.84,31.31c-5.1,0-9.26-3.88-9.26-8.64V16.14c0-4.76,4.16-8.63,9.26-8.63s9.26,3.87,9.26,8.63v6.53C148.1,27.43,144,31.31,138.84,31.31Zm0-21.58c-3.88,0-7.05,2.87-7.05,6.41v6.53c0,3.54,3.17,6.42,7.05,6.42s7-2.88,7-6.42V16.14C145.88,12.6,142.73,9.73,138.84,9.73Z"/><path class="cls-2" d="M167.75,9.9h12V7.76h-12a6.43,6.43,0,0,0-6.44,6.36,6.35,6.35,0,0,0,1.62,4.22,6.42,6.42,0,0,0,4.71,2.14h5.76a4.24,4.24,0,0,1,4.24,4.18,4.31,4.31,0,0,1-4.29,4.26h-12v2.14h12a6.44,6.44,0,0,0,6.43-6.4,6.24,6.24,0,0,0-1.61-4.18,6.46,6.46,0,0,0-4.72-2.14H167.7a4.22,4.22,0,1,1,.05-8.44Z"/><rect class="cls-2" x="168.98" y="40.25" width="1.06" height="11.42"/><path class="cls-2" d="M210.89,51.67H212l-4.09-11.42h-1.11l-2.53,7.06h-1.6v1h1.22l-1.18,3.31h1.12L205,48.36h4.69Zm-5.49-4.36,2-5.49,2,5.49Z"/><path class="cls-2" d="M155.65,40.25h-1.12l4.09,11.42h1.12l4.08-11.42H162.7l-3.52,9.85Z"/><polygon class="cls-2" points="176.93 40.26 175.85 40.26 175.85 51.66 184.92 51.66 184.92 50.61 176.93 50.61 176.93 40.26"/><polygon class="cls-2" points="190.08 40.26 189 40.26 189 51.66 198.07 51.66 198.07 50.61 190.08 50.61 190.08 40.26"/></g></g></svg>