<svg xmlns="http://www.w3.org/2000/svg" viewBox="0 0 193 33.28"><defs><style>.cls-1{fill:#0b0a4a;}.cls-2{fill:#595857;}</style></defs><title>logo</title><g id="Layer_2" data-name="Layer 2"><g id="Layer_1-2" data-name="Layer 1"><path class="cls-1" d="M16.64,33.28A16.64,16.64,0,1,1,33.28,16.64,16.66,16.66,0,0,1,16.64,33.28Zm0-32.65a16,16,0,1,0,16,16A16,16,0,0,0,16.64.63Z"/><polygon class="cls-1" points="19.9 28.81 19.9 27.55 19.05 28.81 19.9 28.81"/><path class="cls-1" d="M16.64,1.8A14.84,14.84,0,1,0,31.48,16.64,14.83,14.83,0,0,0,16.64,1.8ZM14.43,29.34v.28H12.61V29a.61.61,0,0,1,.66-.69h.57a.3.3,0,0,0,.25-.11.48.48,0,0,0,.09-.27.33.33,0,0,0-.34-.36H12.66v-.28h1.18a.65.65,0,0,1,0,1.29h-.57c-.27,0-.39.13-.39.42v.36Zm1.66.31c-.49,0-1.06-.14-1.06-1.19s.57-1.19,1.06-1.19,1.06.14,1.06,1.19S16.59,29.65,16.09,29.65Zm2,0H17.8V27.27h.28Zm2.52-.54h-.43v.54H19.9v-.54H18.74v-.3l1-1.51h.41v1.54h.43Zm-4-5.38a12.58,12.58,0,0,0-6.3,1.67s1.75-2.17,6.28-2.19h.05c4.53,0,6.28,2.19,6.28,2.19A12.62,12.62,0,0,0,16.63,23.7Zm0-1.89a19.56,19.56,0,0,0-9.51,2.47,15.08,15.08,0,0,1,9.5-3.17h0a15.12,15.12,0,0,1,9.5,3.17A19.58,19.58,0,0,0,16.65,21.81Zm0-1.78A23.38,23.38,0,0,0,4.81,23.17a9.45,9.45,0,0,1,2.72-2.05H7.32v-9l9.29-6.83,9.31,6.9v1H16.68V11.92h6.61L16.61,7l-8,5.86v7.76a19.67,19.67,0,0,1,8-1.53h.09a19.61,19.61,0,0,1,7.93,1.52V15.43h1.31v5.69h-.18a9.29,9.29,0,0,1,2.71,2.05A23.35,23.35,0,0,0,16.63,20Z"/><path class="cls-1" d="M16.09,27.55c-.41,0-.78.07-.78.91s.37.92.78.92.79-.07.79-.92S16.51,27.55,16.09,27.55Z"/><polygon class="cls-2" points="123.2 6.38 128.49 6.38 128.49 19.99 129.87 19.99 129.87 6.38 135.12 6.38 135.12 5 123.2 5 123.2 6.38"/><polygon class="cls-2" points="163.78 5 162.36 5 162.36 19.99 174.27 19.99 174.27 18.6 163.78 18.6 163.78 5"/><path class="cls-2" d="M188.58,6.33H193V5h-4.42a7.47,7.47,0,0,0-7.44,6.83h-1.7v1.33h1.7A7.47,7.47,0,0,0,188.58,20H193V18.65h-4.42a6.15,6.15,0,0,1-6.1-5.49h9.34V11.83h-9.34A6.16,6.16,0,0,1,188.58,6.33Z"/><path class="cls-2" d="M152.7,5c-.13.12-.64.79-4.45,6.12l-.19.26-.19-.26c-3.81-5.33-4.32-6-4.44-6.12H141.8l5.54,7.75V20h1.44V12.75L154.32,5Z"/><path class="cls-2" d="M56.09,7.41a4.14,4.14,0,0,0-2.62-2.25c-.12,0-.24-.07-.37-.09H53A3.49,3.49,0,0,0,52.35,5H44.51v6.86h-1.7v1.38h1.7V20H45.9V13.24h6.53a4.12,4.12,0,0,0,3.66-5.83Zm-1,1.75a2.94,2.94,0,0,1,0,.51h0a2.73,2.73,0,0,1-2.67,2.17H45.9V6.39h6.45a2.72,2.72,0,0,1,2.72,2.72Z"/><path class="cls-2" d="M72.53,13.24h0l0-.05a4.12,4.12,0,0,0,.51-8c-.12,0-.24-.07-.37-.09h-.1A3.39,3.39,0,0,0,71.9,5H64.06v6.86H62.35v1.38h1.71V20h1.38V13.24h5.5c.25.42,1.16,2,3.8,6.59l.15.26,1.22-.61ZM65.44,6.39H71.9a2.72,2.72,0,0,1,2.71,2.72v.05a2.94,2.94,0,0,1,0,.51h0a2.73,2.73,0,0,1-2.66,2.17H65.44Z"/><path class="cls-2" d="M89.32,20.14a5.78,5.78,0,0,1-6-5.55v-4.2a6,6,0,0,1,11.92,0v4.2A5.77,5.77,0,0,1,89.32,20.14Zm0-13.88a4.35,4.35,0,0,0-4.53,4.13v4.2a4.55,4.55,0,0,0,9.06,0v-4.2A4.35,4.35,0,0,0,89.32,6.26Z"/><path class="cls-2" d="M107.92,6.37h7.74V5h-7.74a4.13,4.13,0,0,0-4.14,4.1,4,4,0,0,0,1,2.71,4.14,4.14,0,0,0,3,1.38h3.7a2.73,2.73,0,0,1,2.73,2.69,2.77,2.77,0,0,1-2.76,2.74h-7.74V20h7.74a4.16,4.16,0,0,0,4.14-4.12,4,4,0,0,0-1-2.69,4.19,4.19,0,0,0-3-1.38h-3.71a2.72,2.72,0,1,1,0-5.43Z"/><rect class="cls-2" x="108.71" y="25.89" width="0.68" height="7.34"/><path class="cls-2" d="M135.67,33.24h.72l-2.63-7.35H133l-1.62,4.54h-1v.68h.79l-.76,2.13h.72l.76-2.13h3Zm-3.53-2.81,1.26-3.53,1.27,3.53Z"/><path class="cls-2" d="M100.14,25.89h-.72L102,33.24h.72l2.63-7.35h-.72l-2.27,6.34Z"/><polygon class="cls-2" points="113.83 25.9 113.13 25.9 113.13 33.24 118.97 33.24 118.97 32.56 113.83 32.56 113.83 25.9"/><polygon class="cls-2" points="122.28 25.9 121.59 25.9 121.59 33.24 127.42 33.24 127.42 32.56 122.28 32.56 122.28 25.9"/></g></g></svg>