<svg xmlns="http://www.w3.org/2000/svg" viewBox="0 0 246.59 42.52"><defs><style>.cls-1{fill:#0b0a4a;}.cls-2{fill:#595857;}</style></defs><title>logo_1</title><g id="Layer_2" data-name="Layer 2"><g id="Layer_1-2" data-name="Layer 1"><path class="cls-1" d="M21.26,42.52A21.26,21.26,0,1,1,42.52,21.26,21.29,21.29,0,0,1,21.26,42.52ZM21.26.8A20.46,20.46,0,1,0,41.72,21.26,20.49,20.49,0,0,0,21.26.8Z"/><polygon class="cls-1" points="25.43 36.8 25.43 35.2 24.34 36.8 25.43 36.8"/><path class="cls-1" d="M21.26,2.3a19,19,0,1,0,19,19A19,19,0,0,0,21.26,2.3ZM18.43,37.49v.35H16.11V37a.78.78,0,0,1,.85-.88h.72A.38.38,0,0,0,18,36a.53.53,0,0,0,.11-.34.43.43,0,0,0-.43-.47H16.17v-.34h1.51a.82.82,0,0,1,0,1.64H17c-.35,0-.5.16-.5.54v.46Zm2.13.39c-.63,0-1.35-.18-1.35-1.52s.72-1.51,1.35-1.51,1.36.17,1.36,1.51S21.19,37.88,20.56,37.88Zm2.53,0h-.34v-3h.34Zm3.23-.69h-.54v.69h-.35v-.69H23.94v-.38l1.31-1.92h.53V36.8h.54Zm-5.07-6.87a16,16,0,0,0-8,2.14s2.24-2.78,8-2.8h.06c5.79,0,8,2.8,8,2.8A16.06,16.06,0,0,0,21.25,30.28Zm0-2.42A25.12,25.12,0,0,0,9.12,31,19.24,19.24,0,0,1,21.25,27h0A19.29,19.29,0,0,1,33.42,31,25.12,25.12,0,0,0,21.27,27.86Zm0-2.27c-4.57,0-10.65,1.18-15.1,4A12.22,12.22,0,0,1,9.62,27H9.35V15.54L21.22,6.83l11.9,8.81V16.9H21.31V15.23h8.44L21.22,8.9,11,16.39V26.3A25.34,25.34,0,0,1,21.2,24.35h.11a25.22,25.22,0,0,1,10.14,1.94V19.71h1.67V27h-.24a12.19,12.19,0,0,1,3.48,2.62C31.91,26.77,25.83,25.6,21.25,25.59Z"/><path class="cls-1" d="M20.56,35.19c-.53,0-1,.09-1,1.17s.48,1.17,1,1.17,1-.09,1-1.17S21.09,35.19,20.56,35.19Z"/><polygon class="cls-2" points="157.41 8.16 164.16 8.16 164.16 25.54 165.93 25.54 165.93 8.16 172.64 8.16 172.64 6.39 157.41 6.39 157.41 8.16"/><polygon class="cls-2" points="209.25 6.39 207.44 6.39 207.44 25.54 222.66 25.54 222.66 23.77 209.25 23.77 209.25 6.39"/><path class="cls-2" d="M240.94,8.09h5.65V6.39h-5.65a9.54,9.54,0,0,0-9.5,8.72h-2.18v1.71h2.18a9.54,9.54,0,0,0,9.5,8.72h5.65V23.83h-5.65a7.85,7.85,0,0,1-7.79-7h11.94V15.11H233.15A7.86,7.86,0,0,1,240.94,8.09Z"/><path class="cls-2" d="M195.09,6.39c-.15.15-.8,1-5.68,7.82l-.24.33-.24-.33c-4.87-6.82-5.53-7.67-5.68-7.82h-2.08l7.08,9.9v9.25h1.84V16.29l7.08-9.9Z"/><path class="cls-2" d="M71.66,9.46a5.31,5.31,0,0,0-3.34-2.87,4.15,4.15,0,0,0-.48-.11l-.13,0a5.55,5.55,0,0,0-.82-.07h-10v8.76H54.7v1.77h2.17v8.62h1.77V16.92H67a5.26,5.26,0,0,0,4.67-7.46Zm-1.3,2.25a2.73,2.73,0,0,1-.07.64v0a3.48,3.48,0,0,1-3.4,2.77H58.64v-7h8.25a3.49,3.49,0,0,1,3.48,3.47S70.36,11.68,70.36,11.71Z"/><path class="cls-2" d="M92.67,16.91h0l0-.05a5.27,5.27,0,0,0,.66-10.27,4.15,4.15,0,0,0-.48-.11l-.13,0a5.55,5.55,0,0,0-.82-.07h-10v8.76H79.67v1.77h2.17v8.62h1.77V16.92h7c.33.53,1.49,2.52,4.86,8.42l.19.33,1.56-.78ZM83.61,8.17h8.25a3.47,3.47,0,0,1,3.47,3.47v.07a3.39,3.39,0,0,1-.06.64v0a3.48,3.48,0,0,1-3.4,2.77H83.61Z"/><path class="cls-2" d="M114.12,25.73a7.37,7.37,0,0,1-7.61-7.09V13.27a7.63,7.63,0,0,1,15.22,0v5.37A7.37,7.37,0,0,1,114.12,25.73Zm0-17.74a5.56,5.56,0,0,0-5.79,5.28v5.37a5.82,5.82,0,0,0,11.58,0V13.27A5.56,5.56,0,0,0,114.12,8Z"/><path class="cls-2" d="M137.88,8.14h9.9V6.38h-9.9a5.22,5.22,0,0,0-4,8.7,5.32,5.32,0,0,0,3.88,1.76h4.73A3.49,3.49,0,0,1,146,20.28a3.54,3.54,0,0,1-3.53,3.5h-9.89v1.76h9.89a5.31,5.31,0,0,0,5.3-5.26,5.16,5.16,0,0,0-1.33-3.44,5.36,5.36,0,0,0-3.88-1.76h-4.73a3.47,3.47,0,1,1,0-6.94Z"/><rect class="cls-2" x="138.89" y="33.08" width="0.87" height="9.38"/><path class="cls-2" d="M173.34,42.47h.92l-3.35-9.39H170l-2.08,5.8H166.6v.87h1l-1,2.72h.92l1-2.72h3.85Zm-4.51-3.59,1.62-4.51,1.61,4.51Z"/><path class="cls-2" d="M127.94,33.08H127l3.36,9.39h.92l3.35-9.39h-.92l-2.89,8.1Z"/><polygon class="cls-2" points="145.43 33.09 144.54 33.09 144.54 42.47 152 42.47 152 41.6 145.43 41.6 145.43 33.09"/><polygon class="cls-2" points="156.24 33.09 155.35 33.09 155.35 42.47 162.8 42.47 162.8 41.6 156.24 41.6 156.24 33.09"/></g></g></svg>