<svg width="34" height="34" viewBox="0 0 34 34" fill="none" xmlns="http://www.w3.org/2000/svg">
<mask id="path-1-inside-1" fill="white">
<path fill-rule="evenodd" clip-rule="evenodd" d="M11 25L11 34L23 34L23 25L34 25L34 0L23 -9.6165e-07L11 -2.01072e-06L2.97237e-06 -2.97237e-06L7.86805e-07 25L11 25Z"/>
</mask>
<path fill-rule="evenodd" clip-rule="evenodd" d="M11 25L11 34L23 34L23 25L34 25L34 0L23 -9.6165e-07L11 -2.01072e-06L2.97237e-06 -2.97237e-06L7.86805e-07 25L11 25Z" fill="#BDC0BA"/>
<path d="M11 34L9 34L9 36L11 36L11 34ZM11 25L13 25L13 23L11 23L11 25ZM23 34L23 36L25 36L25 34L23 34ZM23 25L23 23L21 23L21 25L23 25ZM34 25L34 27L36 27L36 25L34 25ZM34 0L36 1.74846e-07L36 -2L34 -2L34 0ZM2.97237e-06 -2.97237e-06L3.14722e-06 -2L-2 -2L-2 -3.14722e-06L2.97237e-06 -2.97237e-06ZM7.86805e-07 25L-2 25L-2 27L6.11959e-07 27L7.86805e-07 25ZM13 34L13 25L9 25L9 34L13 34ZM23 32L11 32L11 36L23 36L23 32ZM21 25L21 34L25 34L25 25L21 25ZM34 23L23 23L23 27L34 27L34 23ZM32 -1.74846e-07L32 25L36 25L36 1.74846e-07L32 -1.74846e-07ZM23 2L34 2L34 -2L23 -2L23 2ZM11 2L23 2L23 -2L11 -2L11 2ZM2.79753e-06 2L11 2L11 -2L3.14722e-06 -2L2.79753e-06 2ZM2 25L2 -2.79753e-06L-2 -3.14722e-06L-2 25L2 25ZM11 23L9.61651e-07 23L6.11959e-07 27L11 27L11 23Z" fill="#5B5B5B" mask="url(#path-1-inside-1)"/>
</svg>
