<svg width="34" height="34" viewBox="0 0 34 34" fill="none" xmlns="http://www.w3.org/2000/svg">
<mask id="path-1-inside-1" fill="white">
<path fill-rule="evenodd" clip-rule="evenodd" d="M9 11L-1.00536e-06 11L-4.80825e-07 23L9 23L9 34L34 34L34 23L34 11L34 -1.48619e-06L9 -3.93402e-07L9 11Z"/>
</mask>
<path fill-rule="evenodd" clip-rule="evenodd" d="M9 11L-1.00536e-06 11L-4.80825e-07 23L9 23L9 34L34 34L34 23L34 11L34 -1.48619e-06L9 -3.93402e-07L9 11Z" fill="#BDC0BA"/>
<path d="M-1.00536e-06 11L-1.09278e-06 9L-2 9L-2 11L-1.00536e-06 11ZM9 11L9 13L11 13L11 11L9 11ZM-4.80825e-07 23L-2 23L-2 25L-6.0533e-07 25L-4.80825e-07 23ZM9 23L11 23L11 21L9 21L9 23ZM9 34L7 34L7 36L9 36L9 34ZM34 34L34 36L36 36L36 34L34 34ZM34 -1.48619e-06L36 -1.57361e-06L36 -2L34 -2L34 -1.48619e-06ZM9 -3.93402e-07L9 -2L7 -2L7 -3.0598e-07L9 -3.93402e-07ZM-9.17939e-07 13L9 13L9 9L-1.09278e-06 9L-9.17939e-07 13ZM2 23L2 11L-2 11L-2 23L2 23ZM9 21L-3.5632e-07 21L-6.0533e-07 25L9 25L9 21ZM11 34L11 23L7 23L7 34L11 34ZM34 32L9 32L9 36L34 36L34 32ZM32 23L32 34L36 34L36 23L32 23ZM32 11L32 23L36 23L36 11L32 11ZM32 -1.39876e-06L32 11L36 11L36 -1.57361e-06L32 -1.39876e-06ZM9 2L34 2L34 -2L9 -2L9 2ZM11 11L11 -4.80825e-07L7 -3.0598e-07L7 11L11 11Z" fill="#5B5B5B" mask="url(#path-1-inside-1)"/>
</svg>
