<svg width="34" height="25" viewBox="0 0 34 25" fill="none" xmlns="http://www.w3.org/2000/svg">
<mask id="path-1-inside-1" fill="white">
<path fill-rule="evenodd" clip-rule="evenodd" d="M0 25L34 25L34 0L21 -1.1365e-06L21 10L12 10L12 -1.9233e-06L2.18557e-06 -2.97237e-06L0 25Z"/>
</mask>
<path fill-rule="evenodd" clip-rule="evenodd" d="M0 25L34 25L34 0L21 -1.1365e-06L21 10L12 10L12 -1.9233e-06L2.18557e-06 -2.97237e-06L0 25Z" fill="#BDC0BA"/>
<path d="M34 25L34 27L36 27L36 25L34 25ZM0 25L-2 25L-2 27L-1.74846e-07 27L0 25ZM34 0L36 1.74846e-07L36 -2L34 -2L34 0ZM21 -1.1365e-06L21 -2L19 -2L19 -1.31134e-06L21 -1.1365e-06ZM21 10L21 12L23 12L23 10L21 10ZM12 10L10 10L10 12L12 12L12 10ZM12 -1.9233e-06L14 -1.74846e-06L14 -2L12 -2L12 -1.9233e-06ZM2.18557e-06 -2.97237e-06L2.36041e-06 -2L-2 -2L-2 -3.14722e-06L2.18557e-06 -2.97237e-06ZM34 23L1.74846e-07 23L-1.74846e-07 27L34 27L34 23ZM32 -1.74846e-07L32 25L36 25L36 1.74846e-07L32 -1.74846e-07ZM21 2L34 2L34 -2L21 -2L21 2ZM19 -1.31134e-06L19 10L23 10L23 -9.61651e-07L19 -1.31134e-06ZM21 8L12 8L12 12L21 12L21 8ZM14 10L14 -1.74846e-06L10 -2.09815e-06L10 10L14 10ZM2.01072e-06 2L12 2L12 -2L2.36041e-06 -2L2.01072e-06 2ZM2 25L2 -2.79753e-06L-2 -3.14722e-06L-2 25L2 25Z" fill="#5B5B5B" mask="url(#path-1-inside-1)"/>
</svg>
