<svg width="25" height="34" viewBox="0 0 25 34" fill="none" xmlns="http://www.w3.org/2000/svg">
<mask id="path-1-inside-1" fill="white">
<path fill-rule="evenodd" clip-rule="evenodd" d="M-1.48619e-06 0L0 34L25 34L25 21L15 21L15 12L25 12L25 -1.09278e-06L-1.48619e-06 0Z"/>
</mask>
<path fill-rule="evenodd" clip-rule="evenodd" d="M-1.48619e-06 0L0 34L25 34L25 21L15 21L15 12L25 12L25 -1.09278e-06L-1.48619e-06 0Z" fill="#BDC0BA"/>
<path d="M0 34L-2 34L-2 36L8.74228e-08 36L0 34ZM-1.48619e-06 0L-1.57361e-06 -2L-2 -2L-2 8.74228e-08L-1.48619e-06 0ZM25 34L25 36L27 36L27 34L25 34ZM25 21L27 21L27 19L25 19L25 21ZM15 21L13 21L13 23L15 23L15 21ZM15 12L15 10L13 10L13 12L15 12ZM25 12L25 14L27 14L27 12L25 12ZM25 -1.09278e-06L27 -1.18021e-06L27 -2L25 -2L25 -1.09278e-06ZM2 34L2 -8.74228e-08L-2 8.74228e-08L-2 34L2 34ZM25 32L-8.74228e-08 32L8.74228e-08 36L25 36L25 32ZM23 21L23 34L27 34L27 21L23 21ZM25 19L15 19L15 23L25 23L25 19ZM17 21L17 12L13 12L13 21L17 21ZM15 14L25 14L25 10L15 10L15 14ZM23 -1.00536e-06L23 12L27 12L27 -1.18021e-06L23 -1.00536e-06ZM-1.39876e-06 2L25 2L25 -2L-1.57361e-06 -2L-1.39876e-06 2Z" fill="#5B5B5B" mask="url(#path-1-inside-1)"/>
</svg>
