<svg width="34" height="25" viewBox="0 0 34 25" fill="none" xmlns="http://www.w3.org/2000/svg">
<mask id="path-1-inside-1" fill="white">
<path fill-rule="evenodd" clip-rule="evenodd" d="M34 0H0V25H13V15H22V25H34V0Z"/>
</mask>
<path fill-rule="evenodd" clip-rule="evenodd" d="M34 0H0V25H13V15H22V25H34V0Z" fill="#BDC0BA"/>
<path d="M0 0V-2H-2V0H0ZM34 0H36V-2H34V0ZM0 25H-2V27H0V25ZM13 25V27H15V25H13ZM13 15V13H11V15H13ZM22 15H24V13H22V15ZM22 25H20V27H22V25ZM34 25V27H36V25H34ZM0 2H34V-2H0V2ZM2 25V0H-2V25H2ZM13 23H0V27H13V23ZM15 25V15H11V25H15ZM13 17H22V13H13V17ZM20 15V25H24V15H20ZM34 23H22V27H34V23ZM32 0V25H36V0H32Z" fill="#5B5B5B" mask="url(#path-1-inside-1)"/>
</svg>
