<svg width="25" height="35" viewBox="0 0 25 35" fill="none" xmlns="http://www.w3.org/2000/svg">
<mask id="path-1-inside-1" fill="white">
<path fill-rule="evenodd" clip-rule="evenodd" d="M25 34.5L25 0.5L0 0.499999L-5.68248e-07 13.5L10 13.5L10 22.5L-9.61651e-07 22.5L-1.48619e-06 34.5L25 34.5Z"/>
</mask>
<path fill-rule="evenodd" clip-rule="evenodd" d="M25 34.5L25 0.5L0 0.499999L-5.68248e-07 13.5L10 13.5L10 22.5L-9.61651e-07 22.5L-1.48619e-06 34.5L25 34.5Z" fill="#BDC0BA"/>
<path d="M25 0.5L27 0.5L27 -1.5L25 -1.5L25 0.5ZM25 34.5L25 36.5L27 36.5L27 34.5L25 34.5ZM0 0.499999L8.74228e-08 -1.5L-2 -1.5L-2 0.499999L0 0.499999ZM-5.68248e-07 13.5L-2 13.5L-2 15.5L-6.55671e-07 15.5L-5.68248e-07 13.5ZM10 13.5L12 13.5L12 11.5L10 11.5L10 13.5ZM10 22.5L10 24.5L12 24.5L12 22.5L10 22.5ZM-9.61651e-07 22.5L-8.74228e-07 20.5L-2 20.5L-2 22.5L-9.61651e-07 22.5ZM-1.48619e-06 34.5L-2 34.5L-2 36.5L-1.57361e-06 36.5L-1.48619e-06 34.5ZM23 0.5L23 34.5L27 34.5L27 0.5L23 0.5ZM-8.74228e-08 2.5L25 2.5L25 -1.5L8.74228e-08 -1.5L-8.74228e-08 2.5ZM2 13.5L2 0.499999L-2 0.499999L-2 13.5L2 13.5ZM-6.55671e-07 15.5L10 15.5L10 11.5L-4.80825e-07 11.5L-6.55671e-07 15.5ZM8 13.5L8 22.5L12 22.5L12 13.5L8 13.5ZM10 20.5L-8.74228e-07 20.5L-1.04907e-06 24.5L10 24.5L10 20.5ZM2 34.5L2 22.5L-2 22.5L-2 34.5L2 34.5ZM25 32.5L-1.39876e-06 32.5L-1.57361e-06 36.5L25 36.5L25 32.5Z" fill="#5B5B5B" mask="url(#path-1-inside-1)"/>
</svg>
