<svg width="42" height="43" viewBox="0 0 42 43" fill="none" xmlns="http://www.w3.org/2000/svg">
<path d="M31.251 33.3166L31.251 21.1456L31.2468 21.1432L31.2482 9.83491L20.7077 3.74933L10.1672 9.83481L10.1673 22.0059L10.1714 22.0082L10.17 33.3165L20.7105 39.4021L31.251 33.3166ZM12.3108 10.2489L20.7086 5.4023L29.104 10.2494L20.7434 15.079L20.7103 15.0983L12.3108 10.2489ZM21.4242 16.334L22.1721 15.9039L29.8155 11.4892L29.8223 32.4918L21.4309 37.3366L21.4236 17.1242L21.4242 16.334ZM11.602 32.4908L11.5976 11.4841L19.9971 16.3336L19.9965 17.1238L19.9973 37.3379L11.602 32.4908Z" fill="#5B5B5B"/>
<path d="M15.5056 22.0342C14.9958 22.0342 14.6619 21.7705 14.6619 21.3662C14.6619 20.9707 14.9827 20.7202 15.5496 20.6807L16.6877 20.6104V20.9751C16.6877 21.5771 16.1692 22.0342 15.5056 22.0342ZM15.2419 22.7856C15.8484 22.7856 16.4329 22.4604 16.7009 21.9463H16.7229V22.7065H17.6326V19.5205C17.6326 18.5933 16.9163 18 15.7957 18C14.6531 18 13.9412 18.6152 13.8884 19.4502H14.7849C14.8684 19.0371 15.2112 18.7734 15.7605 18.7734C16.3406 18.7734 16.6877 19.0811 16.6877 19.5952V19.9512L15.4221 20.0259C14.3235 20.0874 13.7039 20.584 13.7039 21.3926C13.7039 22.2231 14.3367 22.7856 15.2419 22.7856Z" fill="#5B5B5B"/>
<path d="M35.3494 25.7856C36.5227 25.7856 37.2786 24.8628 37.2786 23.395C37.2786 21.9316 36.5183 21.0088 35.3538 21.0088C34.699 21.0088 34.1716 21.334 33.8948 21.8701H33.8728V19.3652H32.9236V25.7065H33.8464V24.9199H33.864C34.1497 25.4561 34.6726 25.7856 35.3494 25.7856ZM35.0945 21.8086C35.8416 21.8086 36.303 22.4238 36.303 23.395C36.303 24.375 35.8416 24.9814 35.0945 24.9814C34.3738 24.9814 33.8684 24.3574 33.8684 23.395C33.8684 22.4414 34.3738 21.8086 35.0945 21.8086Z" fill="#5B5B5B"/>
<path d="M14.8567 1.67432C14.7732 0.764648 14.0481 0 12.8572 0C11.5432 0 10.6819 0.927246 10.6819 2.39502C10.6819 3.88916 11.5432 4.79443 12.866 4.79443C13.9778 4.79443 14.7644 4.12646 14.8655 3.14209H13.9514C13.8416 3.67822 13.4592 3.99902 12.8748 3.99902C12.1365 3.99902 11.6487 3.41016 11.6487 2.39502C11.6487 1.40186 12.1321 0.791016 12.866 0.791016C13.4856 0.791016 13.8547 1.18213 13.9514 1.67432H14.8567Z" fill="#5B5B5B"/>
</svg>
