<svg width="38" height="35" viewBox="0 0 38 35" fill="none" xmlns="http://www.w3.org/2000/svg">
<path d="M26.829 0L16.2886 6.08558V6.09033L6.49463 11.7433V23.9144L17.035 30L27.5755 23.9144V23.9097L37.3694 18.2567V6.08558L26.829 0ZM16.3219 27.9366L7.92569 23.0872V13.393L16.2886 18.2187L16.3219 18.2377V27.9366ZM17.035 17.0016L16.2886 16.5689L8.6436 12.1569L26.829 1.64976L35.2205 6.49445L17.7197 16.607L17.035 17.0016ZM35.9384 17.4295L17.7482 27.9366V18.2377L18.4328 17.8431L35.9384 7.73534V17.4295Z" fill="#5B5B5B"/>
<path d="M9.58203 33.3276C9.07227 33.3276 8.73828 33.064 8.73828 32.6597C8.73828 32.2642 9.05908 32.0137 9.62598 31.9741L10.7642 31.9038V32.2686C10.7642 32.8706 10.2456 33.3276 9.58203 33.3276ZM9.31836 34.0791C9.9248 34.0791 10.5093 33.7539 10.7773 33.2397H10.7993V34H11.709V30.814C11.709 29.8867 10.9927 29.2935 9.87207 29.2935C8.72949 29.2935 8.01758 29.9087 7.96484 30.7437H8.86133C8.94482 30.3306 9.2876 30.0669 9.83691 30.0669C10.417 30.0669 10.7642 30.3745 10.7642 30.8887V31.2446L9.49854 31.3193C8.3999 31.3809 7.78027 31.8774 7.78027 32.686C7.78027 33.5166 8.41309 34.0791 9.31836 34.0791Z" fill="#5B5B5B"/>
<path d="M2.42578 21.0791C3.59912 21.0791 4.35498 20.1562 4.35498 18.6885C4.35498 17.2251 3.59473 16.3022 2.43018 16.3022C1.77539 16.3022 1.24805 16.6274 0.971191 17.1636H0.949219V14.6587H0V21H0.922852V20.2134H0.94043C1.22607 20.7495 1.74902 21.0791 2.42578 21.0791ZM2.1709 17.1021C2.91797 17.1021 3.37939 17.7173 3.37939 18.6885C3.37939 19.6685 2.91797 20.2749 2.1709 20.2749C1.4502 20.2749 0.944824 19.6509 0.944824 18.6885C0.944824 17.7349 1.4502 17.1021 2.1709 17.1021Z" fill="#5B5B5B"/>
<path d="M32.9331 26.9678C32.8496 26.0581 32.1245 25.2935 30.9336 25.2935C29.6196 25.2935 28.7583 26.2207 28.7583 27.6885C28.7583 29.1826 29.6196 30.0879 30.9424 30.0879C32.0542 30.0879 32.8408 29.4199 32.9419 28.4355H32.0278C31.918 28.9717 31.5356 29.2925 30.9512 29.2925C30.2129 29.2925 29.7251 28.7036 29.7251 27.6885C29.7251 26.6953 30.2085 26.0845 30.9424 26.0845C31.562 26.0845 31.9312 26.4756 32.0278 26.9678H32.9331Z" fill="#5B5B5B"/>
</svg>
