<svg width="34" height="34" viewBox="0 0 34 34" fill="none" xmlns="http://www.w3.org/2000/svg">
<mask id="path-1-inside-1" fill="white">
<path fill-rule="evenodd" clip-rule="evenodd" d="M19 34V19L34 19V1.90735e-06L19 0H1.90735e-06L0 19V34H19Z"/>
</mask>
<path fill-rule="evenodd" clip-rule="evenodd" d="M19 34V19L34 19V1.90735e-06L19 0H1.90735e-06L0 19V34H19Z" fill="#BDC0BA"/>
<path d="M19 19V17H17V19H19ZM19 34V36H21V34H19ZM34 19V21H36V19H34ZM34 1.90735e-06H36V-2L34 -2V1.90735e-06ZM19 0V-2V0ZM1.90735e-06 0V-2H-2L-2 -2.00774e-07L1.90735e-06 0ZM0 19H-2H0ZM0 34H-2V36H0V34ZM17 19V34H21V19H17ZM34 17L19 17V21L34 21V17ZM32 1.90735e-06V19H36V1.90735e-06H32ZM19 2L34 2V-2L19 -2V2ZM1.90735e-06 2H19V-2H1.90735e-06V2ZM2 19L2 2.00774e-07L-2 -2.00774e-07L-2 19H2ZM2 34V19H-2V34H2ZM19 32H0V36H19V32Z" fill="#5B5B5B" mask="url(#path-1-inside-1)"/>
</svg>
