<svg width="34" height="34" viewBox="0 0 34 34" fill="none" xmlns="http://www.w3.org/2000/svg">
<mask id="path-1-inside-1" fill="white">
<path fill-rule="evenodd" clip-rule="evenodd" d="M34 15L19 15L19 -8.30516e-07L4.21161e-07 0L-8.30516e-07 15L0 34L19 34L34 34L34 15Z"/>
</mask>
<path fill-rule="evenodd" clip-rule="evenodd" d="M34 15L19 15L19 -8.30516e-07L4.21161e-07 0L-8.30516e-07 15L0 34L19 34L34 34L34 15Z" fill="#BDC0BA"/>
<path d="M19 15L17 15L17 17L19 17L19 15ZM34 15L36 15L36 13L34 13L34 15ZM19 -8.30516e-07L21 -9.17939e-07L21 -2L19 -2L19 -8.30516e-07ZM4.21161e-07 0L3.33739e-07 -2L-2 -2L-2 8.74227e-08L4.21161e-07 0ZM-8.30516e-07 15L-2 15L-8.30516e-07 15ZM0 34L-2 34L-2 36L-1.13351e-07 36L0 34ZM19 34L19 36L19 34ZM34 34L34 36L36 36L36 34L34 34ZM19 17L34 17L34 13L19 13L19 17ZM17 -7.43094e-07L17 15L21 15L21 -9.17939e-07L17 -7.43094e-07ZM5.08584e-07 2L19 2L19 -2L3.33739e-07 -2L5.08584e-07 2ZM2 15L2 -8.74229e-08L-2 8.74227e-08L-2 15L2 15ZM2 34L2 15L-2 15L-2 34L2 34ZM19 32L1.13351e-07 32L-1.13351e-07 36L19 36L19 32ZM34 32L19 32L19 36L34 36L34 32ZM32 15L32 34L36 34L36 15L32 15Z" fill="#5B5B5B" mask="url(#path-1-inside-1)"/>
</svg>
