<svg width="34" height="34" viewBox="0 0 34 34" fill="none" xmlns="http://www.w3.org/2000/svg">
<mask id="path-1-inside-1" fill="white">
<path fill-rule="evenodd" clip-rule="evenodd" d="M-8.30516e-07 19L15 19L15 34L34 34L34 19L34 1.90735e-06L15 -8.30516e-07L0 -1.48619e-06L-8.30516e-07 19Z"/>
</mask>
<path fill-rule="evenodd" clip-rule="evenodd" d="M-8.30516e-07 19L15 19L15 34L34 34L34 19L34 1.90735e-06L15 -8.30516e-07L0 -1.48619e-06L-8.30516e-07 19Z" fill="#BDC0BA"/>
<path d="M15 19L17 19L17 17L15 17L15 19ZM-8.30516e-07 19L-2 19L-2 21L-9.17939e-07 21L-8.30516e-07 19ZM15 34L13 34L13 36L15 36L15 34ZM34 34L34 36L36 36L36 34L34 34ZM34 19L36 19L34 19ZM34 1.90735e-06L36 1.99477e-06L36 -2L34 -2L34 1.90735e-06ZM15 -8.30516e-07L15 -2L15 -8.30516e-07ZM0 -1.48619e-06L8.74228e-08 -2L-2 -2L-2 -1.57361e-06L0 -1.48619e-06ZM15 17L-7.43094e-07 17L-9.17939e-07 21L15 21L15 17ZM17 34L17 19L13 19L13 34L17 34ZM34 32L15 32L15 36L34 36L34 32ZM32 19L32 34L36 34L36 19L32 19ZM32 1.81993e-06L32 19L36 19L36 1.99477e-06L32 1.81993e-06ZM15 2L34 2L34 -2L15 -2L15 2ZM-8.74228e-08 2L15 2L15 -2L8.74228e-08 -2L-8.74228e-08 2ZM2 19L2 -1.39876e-06L-2 -1.57361e-06L-2 19L2 19Z" fill="#5B5B5B" mask="url(#path-1-inside-1)"/>
</svg>
