<svg width="34" height="34" viewBox="0 0 34 34" fill="none" xmlns="http://www.w3.org/2000/svg">
<mask id="path-1-inside-1" fill="white">
<path fill-rule="evenodd" clip-rule="evenodd" d="M15 -1.66103e-06L15 15L1.66103e-06 15L0 34L15 34L34 34L34 15L34 0L15 -1.66103e-06Z"/>
</mask>
<path fill-rule="evenodd" clip-rule="evenodd" d="M15 -1.66103e-06L15 15L1.66103e-06 15L0 34L15 34L34 34L34 15L34 0L15 -1.66103e-06Z" fill="#BDC0BA"/>
<path d="M15 15L15 17L17 17L17 15L15 15ZM15 -1.66103e-06L15 -2L13 -2L13 -1.83588e-06L15 -1.66103e-06ZM1.66103e-06 15L1.83588e-06 13L-2 13L-2 15L1.66103e-06 15ZM0 34L-2 34L-2 36L-1.74845e-07 36L0 34ZM15 34L15 36L15 34ZM34 34L34 36L36 36L36 34L34 34ZM34 15L36 15L34 15ZM34 0L36 1.74846e-07L36 -2L34 -2L34 0ZM17 15L17 -1.48619e-06L13 -1.83588e-06L13 15L17 15ZM1.48619e-06 17L15 17L15 13L1.83588e-06 13L1.48619e-06 17ZM2 34L2 15L-2 15L-2 34L2 34ZM15 32L1.74846e-07 32L-1.74845e-07 36L15 36L15 32ZM34 32L15 32L15 36L34 36L34 32ZM32 15L32 34L36 34L36 15L32 15ZM32 -1.74846e-07L32 15L36 15L36 1.74846e-07L32 -1.74846e-07ZM15 2L34 2L34 -2L15 -2L15 2Z" fill="#5B5B5B" mask="url(#path-1-inside-1)"/>
</svg>
