<svg width="34" height="34" viewBox="0 0 34 34" fill="none" xmlns="http://www.w3.org/2000/svg">
<mask id="path-1-inside-1" fill="white">
<path fill-rule="evenodd" clip-rule="evenodd" d="M23 9V0H11L11 9H0V34H11H23H34V9H23Z"/>
</mask>
<path fill-rule="evenodd" clip-rule="evenodd" d="M23 9V0H11L11 9H0V34H11H23H34V9H23Z" fill="#BDC0BA"/>
<path d="M23 0H25V-2H23V0ZM23 9H21V11H23V9ZM11 0V-2H9V-2.11928e-07L11 0ZM11 9V11H13V9H11ZM0 9V7H-2V9H0ZM0 34H-2V36H0V34ZM34 34V36H36V34H34ZM34 9H36V7H34V9ZM21 0V9H25V0H21ZM11 2H23V-2H11V2ZM13 9L13 2.11928e-07L9 -2.11928e-07L9 9H13ZM0 11H11V7H0V11ZM2 34V9H-2V34H2ZM11 32H0V36H11V32ZM23 32H11V36H23V32ZM34 32H23V36H34V32ZM32 9V34H36V9H32ZM23 11H34V7H23V11Z" fill="#5B5B5B" mask="url(#path-1-inside-1)"/>
</svg>
