<svg width="34" height="34" viewBox="0 0 34 34" fill="none" xmlns="http://www.w3.org/2000/svg">
<mask id="path-1-inside-1" fill="white">
<path fill-rule="evenodd" clip-rule="evenodd" d="M25 23L34 23L34 11L25 11L25 -3.93402e-07L0 -1.48619e-06L-4.80825e-07 11L-1.00536e-06 23L-1.48619e-06 34L25 34L25 23Z"/>
</mask>
<path fill-rule="evenodd" clip-rule="evenodd" d="M25 23L34 23L34 11L25 11L25 -3.93402e-07L0 -1.48619e-06L-4.80825e-07 11L-1.00536e-06 23L-1.48619e-06 34L25 34L25 23Z" fill="#BDC0BA"/>
<path d="M34 23L34 25L36 25L36 23L34 23ZM25 23L25 21L23 21L23 23L25 23ZM34 11L36 11L36 9L34 9L34 11ZM25 11L23 11L23 13L25 13L25 11ZM25 -3.93402e-07L27 -3.0598e-07L27 -2L25 -2L25 -3.93402e-07ZM0 -1.48619e-06L8.74228e-08 -2L-2 -2L-2 -1.57361e-06L0 -1.48619e-06ZM-1.00536e-06 23L-2 23L-1.00536e-06 23ZM-1.48619e-06 34L-2 34L-2 36L-1.57361e-06 36L-1.48619e-06 34ZM25 34L25 36L27 36L27 34L25 34ZM34 21L25 21L25 25L34 25L34 21ZM32 11L32 23L36 23L36 11L32 11ZM25 13L34 13L34 9L25 9L25 13ZM23 -4.80825e-07L23 11L27 11L27 -3.0598e-07L23 -4.80825e-07ZM-8.74228e-08 2L25 2L25 -2L8.74228e-08 -2L-8.74228e-08 2ZM2 11L2 -1.39876e-06L-2 -1.57361e-06L-2 11L2 11ZM2 23L2 11L-2 11L-2 23L2 23ZM2 34L2 23L-2 23L-2 34L2 34ZM25 32L-1.39876e-06 32L-1.57361e-06 36L25 36L25 32ZM23 23L23 34L27 34L27 23L23 23Z" fill="#5B5B5B" mask="url(#path-1-inside-1)"/>
</svg>
