<svg width="25" height="17" viewBox="0 0 25 17" fill="none" xmlns="http://www.w3.org/2000/svg">
<g clip-path="url(#clip0)">
<path d="M15.627 9.71838C15.627 11.8301 17.2919 12.8656 18.632 12.8656C19.9721 12.8656 21.6371 11.8301 21.6371 9.71838C21.6371 8.07371 20.0127 6.75391 18.632 5.96204C17.2716 6.77422 15.627 8.07371 15.627 9.71838Z" fill="white"/>
<path d="M3.3833 9.75879C3.3833 11.8705 5.04828 12.906 6.38838 12.906C7.72848 12.906 9.39345 11.8705 9.39345 9.75879C9.39345 8.11412 7.76909 6.79432 6.38838 6.00244C5.00767 6.79432 3.3833 8.11412 3.3833 9.75879Z" fill="white"/>
<path d="M0.236044 0.5V16.5H24.764V0.5H0.236044ZM24.7437 4.39848C23.2614 4.39848 21.4746 4.68274 20.0736 5.29188C21.5964 6.30711 23.0584 7.82995 23.0584 9.77919C23.0584 12.3376 20.9061 14.2868 18.5508 14.2868C16.1954 14.2868 14.1041 12.3376 14.1041 9.77919C14.1041 7.85025 15.5051 6.30711 17.0076 5.29188C15.6066 4.68274 13.9619 4.39848 12.4797 4.39848C10.9975 4.39848 9.3528 4.68274 7.95178 5.29188C9.47462 6.30711 10.8553 7.82995 10.8553 9.77919C10.8553 12.3376 8.78427 14.2868 6.40863 14.2868C4.0533 14.2868 1.86041 12.3376 1.86041 9.77919C1.86041 7.85025 3.36295 6.30711 4.86549 5.29188C3.46447 4.68274 1.67767 4.39848 0.195435 4.39848V2.99746C2.6929 2.99746 4.88579 3.6269 6.38833 4.39848C7.89087 3.6269 9.96193 2.99746 12.4594 2.99746C14.9569 2.99746 17.0279 3.6269 18.5102 4.39848C20.0127 3.6269 22.2259 2.99746 24.703 2.99746V4.39848H24.7437Z" fill="white"/>
</g>
<defs>
<clipPath id="clip0">
<rect width="24.5279" height="16" fill="white" transform="translate(0.236084 0.5)"/>
</clipPath>
</defs>
</svg>
