<svg width="20" height="20" viewBox="0 0 20 20" fill="none" xmlns="http://www.w3.org/2000/svg">
<path d="M10.8091 4.28185C11.7363 4.28185 12.4909 3.5273 12.4909 2.60003C12.4909 1.67276 11.7363 0.918213 10.8091 0.918213C9.8818 0.918213 9.12725 1.67276 9.12725 2.60003C9.12725 3.5273 9.8818 4.28185 10.8091 4.28185ZM15.3909 9.31821L13.4636 8.30003L12.6454 6.6273C12.2363 5.78185 11.4454 5.18185 10.5272 5.01821L9.69089 4.86367C9.2727 4.78185 8.83634 4.8364 8.44543 5.01821L6.00907 6.17276C5.73634 6.30003 5.52725 6.5273 5.40907 6.80003L4.32725 9.3364C4.25452 9.50003 4.25452 9.68185 4.32725 9.83639C4.39089 10 4.51816 10.1273 4.6818 10.1909L4.70907 10.2C5.03634 10.3364 5.39998 10.1818 5.54543 9.87276L6.53634 7.71821L8.10907 7.20912L6.54543 14.1455L5.02725 17.9364C4.94543 18.1455 4.95452 18.3818 5.05452 18.5819C5.15452 18.7819 5.33634 18.9364 5.55452 19L5.61816 19.0182C5.96361 19.1182 6.33634 18.9637 6.51816 18.6546L8.31816 15.5455L9.39089 13.4182L11.3545 15.5818L12.8 18.6455C12.9636 18.9909 13.3454 19.1728 13.7182 19.0728L13.7363 19.0637C13.9545 19.0091 14.1363 18.8637 14.2363 18.6728C14.3363 18.4818 14.3636 18.2455 14.2909 18.0364L13.2273 14.9455C13.0818 14.5091 12.8545 14.1091 12.5727 13.7455L10.8454 11.4546L11.4818 8.15458L12.3 9.19094C12.4 9.31821 12.5363 9.41821 12.6818 9.49094L14.8363 10.4637C14.9909 10.5364 15.1727 10.5364 15.3273 10.4728C15.4818 10.4091 15.6091 10.2818 15.6818 10.1273L15.6909 10.1091C15.8091 9.81821 15.6818 9.47276 15.3909 9.31821Z" fill="black"/>
</svg>
