<svg width="20" height="20" viewBox="0 0 20 20" fill="none" xmlns="http://www.w3.org/2000/svg">
<path d="M15.1818 0.909058H4.81818C4.36364 0.909058 4 1.27269 4 1.72724V18.2727C4 18.7272 4.36364 19.0909 4.81818 19.0909H15.1818C15.6364 19.0909 16 18.7272 16 18.2727V1.72724C16.0091 1.27269 15.6364 0.909058 15.1818 0.909058ZM10 17.9545C9.27273 17.9545 8.69091 17.3636 8.69091 16.6454C8.69091 15.9181 9.28182 15.3363 10 15.3363C10.7273 15.3363 11.3091 15.9272 11.3091 16.6454C11.3091 17.3727 10.7273 17.9545 10 17.9545ZM14.8545 14.4727H5.14545V3.09997H14.8455V14.4727H14.8545Z" fill="black"/>
</svg>
