<?xml version="1.0" encoding="utf-8"?>
<!-- Generator: Adobe Illustrator 20.1.0, SVG Export Plug-In . SVG Version: 6.00 Build 0)  -->
<svg version="1.1" id="Layer_1" xmlns="https://www.w3.org/2000/svg" xmlns:xlink="https://www.w3.org/1999/xlink" x="0px" y="0px"
	 viewBox="0 0 110 78" style="enable-background:new 0 0 110 78;" xml:space="preserve">
<style type="text/css">
	.st0{fill:#595857;}
	.st1{fill:#009D95;}
</style>
<g>
	<g>
		<g>
			<polygon class="st0" points="90.1,58 89.1,58 89.1,68.6 97.6,68.6 97.6,67.7 90.1,67.7 			"/>
			<path class="st0" d="M45.8,68.8c-2.3,0-4.2-1.8-4.2-4v-3c0-2.2,1.9-4,4.2-4c2.3,0,4.2,1.8,4.2,4v3C50.1,67,48.2,68.8,45.8,68.8z
				 M45.8,58.9c-1.8,0-3.2,1.3-3.2,2.9v3c0,1.6,1.4,2.9,3.2,2.9c1.8,0,3.2-1.3,3.2-2.9v-3C49.1,60.2,47.6,58.9,45.8,58.9z"/>
			<path class="st0" d="M106.9,58.9h3.1V58h-3.1c-2.8,0-5.1,2.1-5.3,4.9h-1.2v0.9h1.2c0.2,2.7,2.5,4.9,5.3,4.9h3.1v-0.9h-3.1
				c-2.2,0-4.1-1.7-4.3-3.9h6.6v-0.9h-6.6C102.8,60.6,104.6,58.9,106.9,58.9z"/>
			<path class="st0" d="M34.2,63.8L34.2,63.8L34.2,63.8c1-0.2,1.8-0.8,2.2-1.7c0.2-0.4,0.3-0.8,0.3-1.2c0-0.4-0.1-0.8-0.3-1.2
				c-0.4-0.8-1-1.4-1.9-1.6c-0.1,0-0.2,0-0.3-0.1c0,0,0,0-0.1,0c-0.1,0-0.3,0-0.5,0h0v0h-5.5v4.9H27v1h1.2v4.8h1v-4.8h3.9
				c0.2,0.3,0.8,1.4,2.7,4.7l0.1,0.2l0.9-0.4L34.2,63.8z M29.2,58.9h4.5h0c1.1,0,1.9,0.9,1.9,1.9c0,0,0,0,0,0c0,0.1,0,0.2,0,0.4l0,0
				c-0.2,0.9-1,1.5-1.9,1.5h0v0h-4.5V58.9z"/>
			<rect x="69.3" y="58" class="st0" width="1" height="10.7"/>
			<polygon class="st0" points="21.5,58 21.5,62.8 15.1,62.8 15.1,58 14.1,58 14.1,62.8 12.7,62.8 12.7,63.8 14.1,63.8 14.1,68.6
				15.1,68.6 15.1,63.8 21.5,63.8 21.5,68.6 22.5,68.6 22.5,58 			"/>
			<path class="st0" d="M8.5,68.6H5.3c-2.9,0-5.3-2.4-5.3-5.3C0,60.4,2.4,58,5.3,58h3.1v1H5.3c-2.4,0-4.4,2-4.4,4.4
				c0,2.4,2,4.4,4.4,4.4h3.1V68.6z"/>
			<path class="st0" d="M83.9,68.6h-3.1c-2.9,0-5.3-2.4-5.3-5.3c0-2.9,2.4-5.3,5.3-5.3h3.1v1h-3.1c-2.4,0-4.4,2-4.4,4.4
				c0,2.4,2,4.4,4.4,4.4h3.1V68.6z"/>
			<polygon class="st0" points="63.8,68.6 63.8,58 62.8,58 62.8,67.1 56.3,58 55.2,58 55.2,68.6 56.2,68.6 56.2,59.5 62.7,68.6
				"/>
		</g>
		<g>
			<polygon class="st0" points="50.9,72.7 50.4,72.7 50.4,77.9 54.5,77.9 54.5,77.4 50.9,77.4 			"/>
			<path class="st0" d="M48,73.5c-0.2-0.4-0.5-0.7-0.9-0.8c0,0-0.1,0-0.1,0c0,0,0,0,0,0c-0.1,0-0.1,0-0.2,0h0v0h-2.7v2.4h-0.6v0.5
				h0.6v2.4h0.5v-2.4h2.2v0h0c0,0,0,0,0,0c0.6,0,1.1-0.4,1.3-0.8c0.1-0.2,0.1-0.4,0.1-0.6C48.1,73.9,48.1,73.7,48,73.5z M47.6,74.1
				c0,0.1,0,0.1,0,0.2l0,0c-0.1,0.4-0.5,0.8-0.9,0.8h0v0h-2.2v-1.9h2.2h0C47.2,73.2,47.6,73.6,47.6,74.1
				C47.6,74.1,47.6,74.1,47.6,74.1z"/>
			<path class="st0" d="M60.3,72.7V76c0,1.1-0.9,1.9-2.1,1.9c-1.1,0-2.1-0.9-2.1-1.9v-3.3h0.5V76c0,0.8,0.7,1.4,1.6,1.4
				c0.9,0,1.6-0.6,1.6-1.4v-3.3H60.3z"/>
			<path class="st0" d="M63.9,73.2h2.7v-0.5h-2.7c-0.8,0-1.4,0.6-1.4,1.4c0,0.4,0.1,0.7,0.4,0.9c0.3,0.3,0.6,0.5,1.1,0.5h1.3
				c0,0,0,0,0,0c0.5,0,0.9,0.4,0.9,0.9c0,0.5-0.4,1-1,1h-2.7v0.5h2.7c0.8,0,1.4-0.7,1.4-1.4c0-0.4-0.1-0.7-0.4-0.9
				c-0.3-0.3-0.6-0.5-1.1-0.5h-1.3c0,0,0,0,0,0c-0.5,0-1-0.4-1-0.9C63,73.6,63.4,73.2,63.9,73.2z"/>
		</g>
	</g>
	<g>
		<path class="st1" d="M55,50.6c-13.9,0-25.3-11.3-25.3-25.3C29.7,11.4,41.1,0,55,0c13.9,0,25.3,11.3,25.3,25.3
			C80.3,39.2,68.9,50.6,55,50.6z M55,1C41.6,1,30.7,11.9,30.7,25.3c0,13.4,10.9,24.3,24.3,24.3c13.4,0,24.3-10.9,24.3-24.3
			C79.3,11.9,68.4,1,55,1z"/>
		<g>
			<polygon class="st1" points="60,43.8 60,41.9 58.7,43.8 			"/>
			<path class="st1" d="M55,2.8c-12.4,0-22.5,10.1-22.5,22.5c0,12.4,10.1,22.5,22.5,22.5c12.4,0,22.5-10.1,22.5-22.5
				C77.5,12.9,67.4,2.8,55,2.8z M64.3,5.8c4.4,2.1,8,5.7,10.2,10.2H64.3V5.8z M61.7,16.2l0.6-0.2l-1,2.6l-2.8,1.7l-4.5-0.7l-0.3-1.5
				L61.7,16.2z M45.7,5.8V16H35.5C37.7,11.5,41.3,7.9,45.7,5.8z M45.7,44.8c-4.4-2.1-8-5.7-10.2-10.2h10.2V44.8z M46.4,30.8
				c-0.6-1-1-2.1-1-3.4c0-1,0.2-2,0.6-3c1-2.3,3.1-4.4,5.8-5.6l0.4-0.2l0.2,1.5l-0.2,0.1c-1.6,0.9-2.8,2.3-3.3,3.8
				c-0.2,0.6-0.3,1.1-0.3,1.7c0,0.9,0.3,1.8,0.8,2.5c0.8,1.1,2.2,1.9,3.8,2l0.3,0l0.3,3.2l0,0.4l-0.9,0C50,33.9,47.7,32.8,46.4,30.8
				z M51.6,44.6V45h-2.8v-1c0-0.7,0.4-1,1-1h0.9c0.2,0,0.3-0.1,0.4-0.2c0.1-0.1,0.1-0.3,0.1-0.4c0-0.3-0.1-0.6-0.5-0.6H49v-0.4h1.8
				c0.6,0,0.9,0.5,0.9,1c0,0.5-0.3,1-0.9,1h-0.9c-0.4,0-0.6,0.2-0.6,0.6v0.5H51.6z M54.2,45c-0.7,0-1.6-0.2-1.6-1.8
				c0-1.6,0.9-1.8,1.6-1.8c0.7,0,1.6,0.2,1.6,1.8C55.8,44.8,54.9,45,54.2,45z M57.2,45h-0.4v-3.6h0.4V45z M61,44.2h-0.6V45H60v-0.8
				h-1.8v-0.5l1.6-2.3h0.6v2.3H61V44.2z M63.3,24.5c0,3.3-2.3,6.5-5.8,8.3L57.1,33l-0.7-3.1l0.2-0.1c1.7-0.9,3-2.3,3.6-3.8l0-0.1
				l2.5-1.6l0.5-0.3V24.5z M64.3,44.8V34.6h10.2C72.4,39.1,68.8,42.6,64.3,44.8z"/>
			<path class="st1" d="M54.2,41.9c-0.6,0-1.2,0.1-1.2,1.4c0,1.3,0.6,1.4,1.2,1.4c0.6,0,1.2-0.1,1.2-1.4
				C55.4,42,54.8,41.9,54.2,41.9z"/>
		</g>
	</g>
</g>
</svg>
