<svg width="638" height="81" viewBox="0 0 638 81" fill="none" xmlns="http://www.w3.org/2000/svg">
<mask id="path-1-outside-1_810_1723" maskUnits="userSpaceOnUse" x="-1" y="-1" width="640" height="83" fill="black">
<rect fill="white" x="-1" y="-1" width="640" height="83"/>
<path d="M52.832 59.512H58.496L58.4 75.352C51.968 79 45.056 80.728 37.184 80.728C16.064 80.728 0.896 66.424 0.896 43.672C0.896 21.016 16.832 6.51999 37.376 6.51999C44.192 6.51999 50.816 8.056 57.536 11.704V27.736H51.968L48.704 13.048C45.44 11.416 42.176 10.744 38.72 10.744C24.32 10.744 13.184 22.072 13.184 43.672C13.184 65.464 23.648 76.312 38.528 76.312C42.272 76.312 45.92 75.736 49.568 74.008L52.832 59.512ZM101.914 68.536V50.872C98.4575 51.832 95.1935 52.888 93.1775 53.656C84.7295 57.016 82.5215 61.24 82.5215 66.04C82.5215 71.704 85.8815 74.2 90.6815 74.2C94.1375 74.2 96.5375 72.856 101.914 68.536ZM120.058 72.664L121.69 74.392C119.386 78.712 116.314 80.248 111.994 80.248C106.618 80.248 103.162 77.08 102.202 71.896C96.6335 77.56 92.8895 80.44 86.1695 80.44C78.2975 80.44 72.3455 75.832 72.3455 67.576C72.3455 60.472 76.3775 55.768 90.3935 50.968C93.6575 50.008 97.8815 48.76 101.914 47.8V43.864C101.914 33.592 99.1295 30.808 91.9295 30.808C90.2015 30.808 88.3775 31 86.2655 31.576L84.6335 38.68C83.8655 42.712 81.8495 44.632 78.8735 44.632C75.9935 44.632 74.1695 43.192 73.7855 40.408C75.4175 32.152 83.1935 27.064 95.0015 27.064C106.714 27.064 111.994 32.248 111.994 45.4V69.016C111.994 73.816 113.434 75.352 115.642 75.352C117.37 75.352 118.426 74.584 120.058 72.664ZM151.386 47.896L155.514 49.432C165.786 52.888 169.818 57.784 169.818 64.792C169.818 73.624 162.522 80.44 148.794 80.44C142.362 80.44 137.466 79 132.186 76.216V64.408H137.466L139.866 74.776C142.458 75.832 145.146 76.408 148.41 76.408C156.474 76.408 160.506 73.24 160.506 68.056C160.506 63.736 157.818 61.048 150.618 58.648L145.53 56.92C137.562 54.04 132.474 49.816 132.474 42.424C132.474 33.88 139.386 27.064 151.674 27.064C157.626 27.064 162.138 28.504 166.938 31.384L166.554 42.328H161.754L159.354 32.824C156.858 31.576 154.458 30.904 151.77 30.904C145.242 30.904 141.594 33.976 141.594 38.68C141.594 43.192 144.09 45.496 151.386 47.896ZM193.947 49.624H212.763C217.179 49.624 218.235 47.416 218.235 43.384C218.235 36.28 213.723 30.808 207.195 30.808C200.955 30.808 194.715 36.472 193.947 49.624ZM227.451 53.368H193.851C194.139 67.672 201.339 74.296 211.227 74.296C218.043 74.296 222.267 71.512 225.915 66.904L227.835 68.248C223.995 75.832 216.987 80.44 207.675 80.44C193.179 80.44 182.907 70.744 182.907 53.848C182.907 37.24 194.811 27.064 207.867 27.064C220.059 27.064 228.123 35.32 228.123 47.512C228.123 49.912 227.931 51.832 227.451 53.368ZM294.11 36.664L298.43 38.584C312.638 44.344 317.918 50.296 317.918 60.376C317.918 72.76 307.838 80.728 292.286 80.728C284.318 80.728 276.542 78.232 271.454 75.064L272.03 59.8H277.31L280.574 73.816C283.934 75.544 287.006 76.216 291.422 76.216C301.406 76.216 307.838 71.608 307.838 63.256C307.838 56.536 304.286 53.08 295.166 49.528L291.038 47.704C279.614 42.904 272.606 36.76 272.606 26.104C272.606 13.624 282.878 6.51999 296.702 6.51999C303.902 6.51999 309.566 8.632 314.366 12.088L313.79 26.296H308.414L305.15 12.856C302.654 11.512 300.158 11.032 297.086 11.032C288.542 11.032 282.59 15.16 282.59 23.128C282.59 29.848 286.718 33.688 294.11 36.664ZM359.143 72.28L361.063 74.392C358.375 78.232 354.055 80.44 348.199 80.44C340.135 80.44 335.623 76.312 335.623 67.48C335.623 64.6 335.719 62.104 335.719 58.168V32.824H326.983V29.368L336.295 28.312L339.559 13.624H346.471L345.991 28.504H359.527V32.824H345.895V67.48C345.895 72.952 348.295 75.256 352.135 75.256C354.535 75.256 356.455 74.296 359.143 72.28ZM418.864 75.064L425.776 75.928V79L409.552 79.96L408.784 70.264C403.792 76.504 397.168 80.44 390.352 80.44C381.424 80.44 375.952 75.352 376.144 61.144L376.432 33.976L369.04 32.536V29.56L385.84 27.64L386.8 28.696L386.416 43.768V61.144C386.416 70.264 389.392 73.336 394.96 73.336C399.856 73.336 404.464 70.936 408.592 66.808L408.784 33.976L401.488 32.536V29.656L418.096 27.64L419.152 28.696L418.864 43.768V75.064ZM474.198 69.688V37.336C470.166 33.88 466.806 32.632 463.542 32.632C455.574 32.632 448.758 38.392 448.758 53.752C448.758 68.728 454.998 74.776 463.35 74.776C467.478 74.776 470.55 73.432 474.198 69.688ZM484.374 75.16L492.438 75.928V79L475.158 80.056L474.486 73.24C470.742 77.752 465.942 80.44 459.606 80.44C446.934 80.44 437.814 69.976 437.814 54.136C437.814 37.432 447.606 27.064 460.662 27.064C465.846 27.064 470.358 28.792 474.582 33.784V8.72799L465.942 7.96V4.984L483.414 0.855999L484.854 1.62399L484.374 16.6V75.16ZM515.741 15.448C511.805 15.448 508.637 12.664 508.637 8.72799C508.637 4.79199 511.805 2.10399 515.741 2.10399C519.581 2.10399 522.749 4.79199 522.749 8.72799C522.749 12.664 519.581 15.448 515.741 15.448ZM521.309 74.872L528.221 75.928V79H503.165V75.928L510.653 74.872C510.749 69.4 510.845 61.72 510.845 56.728V50.584C510.845 44.632 510.749 40.984 510.557 36.376L502.397 35.608V32.632L519.965 27.16L521.309 28.12L521.117 42.424V56.728C521.117 61.816 521.213 69.496 521.309 74.872ZM551.735 49.624H570.551C574.967 49.624 576.023 47.416 576.023 43.384C576.023 36.28 571.511 30.808 564.983 30.808C558.743 30.808 552.503 36.472 551.735 49.624ZM585.239 53.368H551.639C551.927 67.672 559.127 74.296 569.015 74.296C575.831 74.296 580.055 71.512 583.703 66.904L585.623 68.248C581.783 75.832 574.775 80.44 565.463 80.44C550.967 80.44 540.695 70.744 540.695 53.848C540.695 37.24 552.599 27.064 565.655 27.064C577.847 27.064 585.911 35.32 585.911 47.512C585.911 49.912 585.719 51.832 585.239 53.368ZM619.554 47.896L623.682 49.432C633.954 52.888 637.986 57.784 637.986 64.792C637.986 73.624 630.69 80.44 616.962 80.44C610.53 80.44 605.634 79 600.354 76.216V64.408H605.634L608.034 74.776C610.626 75.832 613.314 76.408 616.578 76.408C624.642 76.408 628.674 73.24 628.674 68.056C628.674 63.736 625.986 61.048 618.786 58.648L613.698 56.92C605.73 54.04 600.642 49.816 600.642 42.424C600.642 33.88 607.554 27.064 619.842 27.064C625.794 27.064 630.306 28.504 635.106 31.384L634.722 42.328H629.922L627.522 32.824C625.026 31.576 622.626 30.904 619.938 30.904C613.41 30.904 609.762 33.976 609.762 38.68C609.762 43.192 612.258 45.496 619.554 47.896Z"/>
</mask>
<path d="M52.832 59.512H58.496L58.4 75.352C51.968 79 45.056 80.728 37.184 80.728C16.064 80.728 0.896 66.424 0.896 43.672C0.896 21.016 16.832 6.51999 37.376 6.51999C44.192 6.51999 50.816 8.056 57.536 11.704V27.736H51.968L48.704 13.048C45.44 11.416 42.176 10.744 38.72 10.744C24.32 10.744 13.184 22.072 13.184 43.672C13.184 65.464 23.648 76.312 38.528 76.312C42.272 76.312 45.92 75.736 49.568 74.008L52.832 59.512ZM101.914 68.536V50.872C98.4575 51.832 95.1935 52.888 93.1775 53.656C84.7295 57.016 82.5215 61.24 82.5215 66.04C82.5215 71.704 85.8815 74.2 90.6815 74.2C94.1375 74.2 96.5375 72.856 101.914 68.536ZM120.058 72.664L121.69 74.392C119.386 78.712 116.314 80.248 111.994 80.248C106.618 80.248 103.162 77.08 102.202 71.896C96.6335 77.56 92.8895 80.44 86.1695 80.44C78.2975 80.44 72.3455 75.832 72.3455 67.576C72.3455 60.472 76.3775 55.768 90.3935 50.968C93.6575 50.008 97.8815 48.76 101.914 47.8V43.864C101.914 33.592 99.1295 30.808 91.9295 30.808C90.2015 30.808 88.3775 31 86.2655 31.576L84.6335 38.68C83.8655 42.712 81.8495 44.632 78.8735 44.632C75.9935 44.632 74.1695 43.192 73.7855 40.408C75.4175 32.152 83.1935 27.064 95.0015 27.064C106.714 27.064 111.994 32.248 111.994 45.4V69.016C111.994 73.816 113.434 75.352 115.642 75.352C117.37 75.352 118.426 74.584 120.058 72.664ZM151.386 47.896L155.514 49.432C165.786 52.888 169.818 57.784 169.818 64.792C169.818 73.624 162.522 80.44 148.794 80.44C142.362 80.44 137.466 79 132.186 76.216V64.408H137.466L139.866 74.776C142.458 75.832 145.146 76.408 148.41 76.408C156.474 76.408 160.506 73.24 160.506 68.056C160.506 63.736 157.818 61.048 150.618 58.648L145.53 56.92C137.562 54.04 132.474 49.816 132.474 42.424C132.474 33.88 139.386 27.064 151.674 27.064C157.626 27.064 162.138 28.504 166.938 31.384L166.554 42.328H161.754L159.354 32.824C156.858 31.576 154.458 30.904 151.77 30.904C145.242 30.904 141.594 33.976 141.594 38.68C141.594 43.192 144.09 45.496 151.386 47.896ZM193.947 49.624H212.763C217.179 49.624 218.235 47.416 218.235 43.384C218.235 36.28 213.723 30.808 207.195 30.808C200.955 30.808 194.715 36.472 193.947 49.624ZM227.451 53.368H193.851C194.139 67.672 201.339 74.296 211.227 74.296C218.043 74.296 222.267 71.512 225.915 66.904L227.835 68.248C223.995 75.832 216.987 80.44 207.675 80.44C193.179 80.44 182.907 70.744 182.907 53.848C182.907 37.24 194.811 27.064 207.867 27.064C220.059 27.064 228.123 35.32 228.123 47.512C228.123 49.912 227.931 51.832 227.451 53.368ZM294.11 36.664L298.43 38.584C312.638 44.344 317.918 50.296 317.918 60.376C317.918 72.76 307.838 80.728 292.286 80.728C284.318 80.728 276.542 78.232 271.454 75.064L272.03 59.8H277.31L280.574 73.816C283.934 75.544 287.006 76.216 291.422 76.216C301.406 76.216 307.838 71.608 307.838 63.256C307.838 56.536 304.286 53.08 295.166 49.528L291.038 47.704C279.614 42.904 272.606 36.76 272.606 26.104C272.606 13.624 282.878 6.51999 296.702 6.51999C303.902 6.51999 309.566 8.632 314.366 12.088L313.79 26.296H308.414L305.15 12.856C302.654 11.512 300.158 11.032 297.086 11.032C288.542 11.032 282.59 15.16 282.59 23.128C282.59 29.848 286.718 33.688 294.11 36.664ZM359.143 72.28L361.063 74.392C358.375 78.232 354.055 80.44 348.199 80.44C340.135 80.44 335.623 76.312 335.623 67.48C335.623 64.6 335.719 62.104 335.719 58.168V32.824H326.983V29.368L336.295 28.312L339.559 13.624H346.471L345.991 28.504H359.527V32.824H345.895V67.48C345.895 72.952 348.295 75.256 352.135 75.256C354.535 75.256 356.455 74.296 359.143 72.28ZM418.864 75.064L425.776 75.928V79L409.552 79.96L408.784 70.264C403.792 76.504 397.168 80.44 390.352 80.44C381.424 80.44 375.952 75.352 376.144 61.144L376.432 33.976L369.04 32.536V29.56L385.84 27.64L386.8 28.696L386.416 43.768V61.144C386.416 70.264 389.392 73.336 394.96 73.336C399.856 73.336 404.464 70.936 408.592 66.808L408.784 33.976L401.488 32.536V29.656L418.096 27.64L419.152 28.696L418.864 43.768V75.064ZM474.198 69.688V37.336C470.166 33.88 466.806 32.632 463.542 32.632C455.574 32.632 448.758 38.392 448.758 53.752C448.758 68.728 454.998 74.776 463.35 74.776C467.478 74.776 470.55 73.432 474.198 69.688ZM484.374 75.16L492.438 75.928V79L475.158 80.056L474.486 73.24C470.742 77.752 465.942 80.44 459.606 80.44C446.934 80.44 437.814 69.976 437.814 54.136C437.814 37.432 447.606 27.064 460.662 27.064C465.846 27.064 470.358 28.792 474.582 33.784V8.72799L465.942 7.96V4.984L483.414 0.855999L484.854 1.62399L484.374 16.6V75.16ZM515.741 15.448C511.805 15.448 508.637 12.664 508.637 8.72799C508.637 4.79199 511.805 2.10399 515.741 2.10399C519.581 2.10399 522.749 4.79199 522.749 8.72799C522.749 12.664 519.581 15.448 515.741 15.448ZM521.309 74.872L528.221 75.928V79H503.165V75.928L510.653 74.872C510.749 69.4 510.845 61.72 510.845 56.728V50.584C510.845 44.632 510.749 40.984 510.557 36.376L502.397 35.608V32.632L519.965 27.16L521.309 28.12L521.117 42.424V56.728C521.117 61.816 521.213 69.496 521.309 74.872ZM551.735 49.624H570.551C574.967 49.624 576.023 47.416 576.023 43.384C576.023 36.28 571.511 30.808 564.983 30.808C558.743 30.808 552.503 36.472 551.735 49.624ZM585.239 53.368H551.639C551.927 67.672 559.127 74.296 569.015 74.296C575.831 74.296 580.055 71.512 583.703 66.904L585.623 68.248C581.783 75.832 574.775 80.44 565.463 80.44C550.967 80.44 540.695 70.744 540.695 53.848C540.695 37.24 552.599 27.064 565.655 27.064C577.847 27.064 585.911 35.32 585.911 47.512C585.911 49.912 585.719 51.832 585.239 53.368ZM619.554 47.896L623.682 49.432C633.954 52.888 637.986 57.784 637.986 64.792C637.986 73.624 630.69 80.44 616.962 80.44C610.53 80.44 605.634 79 600.354 76.216V64.408H605.634L608.034 74.776C610.626 75.832 613.314 76.408 616.578 76.408C624.642 76.408 628.674 73.24 628.674 68.056C628.674 63.736 625.986 61.048 618.786 58.648L613.698 56.92C605.73 54.04 600.642 49.816 600.642 42.424C600.642 33.88 607.554 27.064 619.842 27.064C625.794 27.064 630.306 28.504 635.106 31.384L634.722 42.328H629.922L627.522 32.824C625.026 31.576 622.626 30.904 619.938 30.904C613.41 30.904 609.762 33.976 609.762 38.68C609.762 43.192 612.258 45.496 619.554 47.896Z" fill="white"/>
<path d="M52.832 59.512V58.512H52.0321L51.8564 59.2923L52.832 59.512ZM58.496 59.512L59.496 59.5181L59.5021 58.512H58.496V59.512ZM58.4 75.352L58.8933 76.2218L59.3965 75.9365L59.4 75.3581L58.4 75.352ZM57.536 11.704H58.536V11.109L58.0131 10.8251L57.536 11.704ZM57.536 27.736V28.736H58.536V27.736H57.536ZM51.968 27.736L50.9918 27.9529L51.1658 28.736H51.968V27.736ZM48.704 13.048L49.6802 12.8311L49.5769 12.3664L49.1512 12.1536L48.704 13.048ZM49.568 74.008L49.9961 74.9117L50.4365 74.7031L50.5436 74.2277L49.568 74.008ZM52.832 60.512H58.496V58.512H52.832V60.512ZM57.496 59.5059L57.4 75.3459L59.4 75.3581L59.496 59.5181L57.496 59.5059ZM57.9067 74.4822C51.6375 78.0378 44.8979 79.728 37.184 79.728V81.728C45.2141 81.728 52.2985 79.9622 58.8933 76.2218L57.9067 74.4822ZM37.184 79.728C26.8538 79.728 18.0475 76.2337 11.8264 70.0242C5.60707 63.8165 1.896 54.8195 1.896 43.672H-0.104C-0.104 55.2765 3.76893 64.8075 10.4136 71.4398C17.0565 78.0703 26.3942 81.728 37.184 81.728V79.728ZM1.896 43.672C1.896 32.5875 5.78921 23.564 12.1339 17.3123C18.4822 11.0569 27.3425 7.51999 37.376 7.51999V5.51999C26.8655 5.51999 17.4858 9.23105 10.7301 15.8877C3.97079 22.548 -0.104 32.1005 -0.104 43.672H1.896ZM37.376 7.51999C44.0293 7.51999 50.4888 9.01621 57.0589 12.5829L58.0131 10.8251C51.1432 7.09578 44.3547 5.51999 37.376 5.51999V7.51999ZM56.536 11.704V27.736H58.536V11.704H56.536ZM57.536 26.736H51.968V28.736H57.536V26.736ZM52.9442 27.5191L49.6802 12.8311L47.7278 13.2649L50.9918 27.9529L52.9442 27.5191ZM49.1512 12.1536C45.7354 10.4456 42.316 9.744 38.72 9.744V11.744C42.036 11.744 45.1446 12.3863 48.2568 13.9424L49.1512 12.1536ZM38.72 9.744C31.2395 9.744 24.5667 12.6957 19.782 18.47C15.0106 24.2281 12.184 32.708 12.184 43.672H14.184C14.184 33.036 16.9254 25.0519 21.322 19.746C25.7053 14.4563 31.8005 11.744 38.72 11.744V9.744ZM12.184 43.672C12.184 54.7154 14.8346 63.1287 19.504 68.7996C24.1928 74.4941 30.8271 77.312 38.528 77.312V75.312C31.3489 75.312 25.3112 72.7059 21.048 67.5284C16.7654 62.3273 14.184 54.4206 14.184 43.672H12.184ZM38.528 77.312C42.3801 77.312 46.1823 76.7183 49.9961 74.9117L49.1399 73.1043C45.6577 74.7537 42.1639 75.312 38.528 75.312V77.312ZM50.5436 74.2277L53.8076 59.7317L51.8564 59.2923L48.5924 73.7883L50.5436 74.2277ZM101.914 68.536L102.54 69.3155L102.914 69.0153V68.536H101.914ZM101.914 50.872H102.914V49.5564L101.646 49.9085L101.914 50.872ZM93.1775 53.656L92.8215 52.7215L92.8147 52.7241L92.8079 52.7268L93.1775 53.656ZM120.058 72.664L120.785 71.9774L120.018 71.1661L119.296 72.0164L120.058 72.664ZM121.69 74.392L122.572 74.8626L122.91 74.2281L122.417 73.7054L121.69 74.392ZM102.202 71.896L103.185 71.7139L102.835 69.8251L101.488 71.195L102.202 71.896ZM90.3935 50.968L90.1113 50.0086L90.0903 50.0148L90.0695 50.0219L90.3935 50.968ZM101.914 47.8L102.145 48.7728L102.914 48.5899V47.8H101.914ZM86.2655 31.576L86.0024 30.6112L85.4249 30.7687L85.2909 31.3521L86.2655 31.576ZM84.6335 38.68L83.6589 38.4561L83.6547 38.4744L83.6512 38.4929L84.6335 38.68ZM73.7855 40.408L72.8045 40.2141L72.772 40.3786L72.7949 40.5446L73.7855 40.408ZM102.914 68.536V50.872H100.914V68.536H102.914ZM101.646 49.9085C98.1708 50.8738 94.8754 51.9391 92.8215 52.7215L93.5335 54.5905C95.5116 53.8369 98.7442 52.7902 102.181 51.8355L101.646 49.9085ZM92.8079 52.7268C88.4886 54.4447 85.6472 56.4282 83.8909 58.6956C82.1174 60.9854 81.5215 63.4724 81.5215 66.04H83.5215C83.5215 63.8076 84.0296 61.7826 85.4721 59.9204C86.9318 58.0357 89.4184 56.2273 93.5471 54.5852L92.8079 52.7268ZM81.5215 66.04C81.5215 69.0732 82.4272 71.4099 84.1225 72.9781C85.804 74.5335 88.1194 75.2 90.6815 75.2V73.2C88.4436 73.2 86.679 72.6185 85.4805 71.5099C84.2959 70.4141 83.5215 68.6708 83.5215 66.04H81.5215ZM90.6815 75.2C94.5202 75.2 97.1652 73.6345 102.54 69.3155L101.287 67.7565C95.9098 72.0775 93.7548 73.2 90.6815 73.2V75.2ZM119.33 73.3506L120.962 75.0786L122.417 73.7054L120.785 71.9774L119.33 73.3506ZM120.807 73.9214C119.72 75.9593 118.494 77.2655 117.096 78.0746C115.696 78.8853 114.036 79.248 111.994 79.248V81.248C114.272 81.248 116.307 80.8427 118.099 79.8054C119.893 78.7665 121.355 77.1447 122.572 74.8626L120.807 73.9214ZM111.994 79.248C109.509 79.248 107.545 78.5202 106.098 77.2614C104.645 75.9983 103.632 74.1305 103.185 71.7139L101.218 72.0781C101.731 74.8455 102.926 77.1537 104.785 78.7706C106.65 80.3918 109.102 81.248 111.994 81.248V79.248ZM101.488 71.195C98.7094 74.0218 96.4624 76.0714 94.1173 77.4261C91.8071 78.7606 89.3655 79.44 86.1695 79.44V81.44C89.6935 81.44 92.4839 80.6794 95.1177 79.1579C97.7166 77.6566 100.126 75.4342 102.915 72.597L101.488 71.195ZM86.1695 79.44C82.4223 79.44 79.2194 78.3441 76.9676 76.3546C74.7315 74.379 73.3455 71.4466 73.3455 67.576H71.3455C71.3455 71.9614 72.9355 75.461 75.6434 77.8534C78.3356 80.2319 82.0447 81.44 86.1695 81.44V79.44ZM73.3455 67.576C73.3455 64.2563 74.2697 61.5775 76.808 59.1275C79.4064 56.6195 83.7478 54.3009 90.7175 51.9141L90.0695 50.0219C83.0232 52.435 78.3406 54.8685 75.419 57.6885C72.4373 60.5665 71.3455 63.7917 71.3455 67.576H73.3455ZM90.6757 51.9274C93.9448 50.9659 98.1431 49.7257 102.145 48.7728L101.682 46.8272C97.6199 47.7943 93.3702 49.0501 90.1113 50.0086L90.6757 51.9274ZM102.914 47.8V43.864H100.914V47.8H102.914ZM102.914 43.864C102.914 38.7046 102.23 35.1261 100.4 32.8564C98.5127 30.5149 95.6207 29.808 91.9295 29.808V31.808C95.4383 31.808 97.5383 32.4931 98.8429 34.1116C100.205 35.8019 100.914 38.7514 100.914 43.864H102.914ZM91.9295 29.808C90.1203 29.808 88.2073 30.0099 86.0024 30.6112L86.5286 32.5408C88.5477 31.9901 90.2827 31.808 91.9295 31.808V29.808ZM85.2909 31.3521L83.6589 38.4561L85.6081 38.9039L87.2401 31.7999L85.2909 31.3521ZM83.6512 38.4929C83.2894 40.3924 82.6554 41.6702 81.8701 42.4652C81.1077 43.2371 80.1267 43.632 78.8735 43.632V45.632C80.5963 45.632 82.1113 45.0669 83.2929 43.8708C84.4516 42.6978 85.2096 40.9996 85.6158 38.8671L83.6512 38.4929ZM78.8735 43.632C77.5959 43.632 76.6658 43.3137 76.0273 42.7905C75.3971 42.2741 74.9412 41.4684 74.7761 40.2714L72.7949 40.5446C73.0138 42.1316 73.6619 43.4379 74.7597 44.3375C75.8492 45.2303 77.2711 45.632 78.8735 45.632V43.632ZM74.7665 40.6019C76.2684 33.0044 83.4464 28.064 95.0015 28.064V26.064C82.9407 26.064 74.5667 31.2996 72.8045 40.2141L74.7665 40.6019ZM95.0015 28.064C100.734 28.064 104.652 29.3352 107.163 31.9876C109.688 34.6536 110.994 38.9247 110.994 45.4H112.994C112.994 38.7233 111.659 33.8264 108.616 30.6124C105.559 27.3848 100.981 26.064 95.0015 26.064V28.064ZM110.994 45.4V69.016H112.994V45.4H110.994ZM110.994 69.016C110.994 71.4774 111.355 73.2981 112.15 74.5268C113.003 75.8469 114.264 76.352 115.642 76.352V74.352C114.811 74.352 114.248 74.0891 113.829 73.4412C113.352 72.7019 112.994 71.3546 112.994 69.016H110.994ZM115.642 76.352C116.679 76.352 117.563 76.1144 118.419 75.5735C119.238 75.0568 119.99 74.2873 120.819 73.3116L119.296 72.0164C118.493 72.9607 117.901 73.5352 117.352 73.8825C116.84 74.2056 116.332 74.352 115.642 74.352V76.352ZM151.386 47.896L151.734 46.9588L151.716 46.9521L151.698 46.9461L151.386 47.896ZM155.514 49.432L155.165 50.3692L155.18 50.3747L155.195 50.3798L155.514 49.432ZM132.186 76.216H131.186V76.8192L131.719 77.1006L132.186 76.216ZM132.186 64.408V63.408H131.186V64.408H132.186ZM137.466 64.408L138.44 64.1825L138.261 63.408H137.466V64.408ZM139.866 74.776L138.892 75.0015L139.008 75.5065L139.488 75.7021L139.866 74.776ZM150.618 58.648L150.296 59.5949L150.302 59.5967L150.618 58.648ZM145.53 56.92L145.19 57.8605L145.199 57.8638L145.208 57.8669L145.53 56.92ZM166.938 31.384L167.937 31.4191L167.958 30.8298L167.452 30.5265L166.938 31.384ZM166.554 42.328V43.328H167.519L167.553 42.3631L166.554 42.328ZM161.754 42.328L160.784 42.5728L160.975 43.328H161.754V42.328ZM159.354 32.824L160.323 32.5792L160.211 32.1346L159.801 31.9296L159.354 32.824ZM151.037 48.8332L155.165 50.3692L155.862 48.4948L151.734 46.9588L151.037 48.8332ZM155.195 50.3798C160.249 52.0801 163.645 54.0964 165.776 56.4511C167.881 58.7757 168.818 61.5024 168.818 64.792H170.818C170.818 61.0736 169.739 57.8483 167.259 55.1089C164.807 52.3996 161.051 50.2399 155.833 48.4842L155.195 50.3798ZM168.818 64.792C168.818 68.9094 167.128 72.5303 163.832 75.1445C160.517 77.7743 155.502 79.44 148.794 79.44V81.44C155.814 81.44 161.311 79.6977 165.075 76.7115C168.86 73.7097 170.818 69.5066 170.818 64.792H168.818ZM148.794 79.44C142.544 79.44 137.807 78.0495 132.652 75.3314L131.719 77.1006C137.124 79.9505 142.179 81.44 148.794 81.44V79.44ZM133.186 76.216V64.408H131.186V76.216H133.186ZM132.186 65.408H137.466V63.408H132.186V65.408ZM136.492 64.6335L138.892 75.0015L140.84 74.5505L138.44 64.1825L136.492 64.6335ZM139.488 75.7021C142.199 76.8066 145.015 77.408 148.41 77.408V75.408C145.276 75.408 142.716 74.8574 140.243 73.8499L139.488 75.7021ZM148.41 77.408C152.55 77.408 155.811 76.5985 158.063 74.9897C160.364 73.346 161.506 70.9425 161.506 68.056H159.506C159.506 70.3535 158.631 72.126 156.901 73.3623C155.121 74.6335 152.334 75.408 148.41 75.408V77.408ZM161.506 68.056C161.506 65.6483 160.74 63.628 158.955 61.9113C157.221 60.2437 154.579 58.9144 150.934 57.6993L150.302 59.5967C153.856 60.7816 156.158 61.9963 157.569 63.3527C158.928 64.66 159.506 66.1437 159.506 68.056H161.506ZM150.939 57.7011L145.851 55.9731L145.208 57.8669L150.296 59.5949L150.939 57.7011ZM145.87 55.9795C141.953 54.5637 138.849 52.8527 136.732 50.668C134.644 48.5135 133.474 45.8587 133.474 42.424H131.474C131.474 46.3813 132.848 49.5345 135.296 52.06C137.714 54.5553 141.139 56.3963 145.19 57.8605L145.87 55.9795ZM133.474 42.424C133.474 38.4378 135.079 34.8793 138.113 32.3022C141.158 29.7166 145.711 28.064 151.674 28.064V26.064C145.349 26.064 140.302 27.8194 136.818 30.7778C133.325 33.7447 131.474 37.8662 131.474 42.424H133.474ZM151.674 28.064C157.427 28.064 161.763 29.4451 166.423 32.2415L167.452 30.5265C162.513 27.5629 157.825 26.064 151.674 26.064V28.064ZM165.938 31.3489L165.554 42.2929L167.553 42.3631L167.937 31.4191L165.938 31.3489ZM166.554 41.328H161.754V43.328H166.554V41.328ZM162.723 42.0832L160.323 32.5792L158.384 33.0688L160.784 42.5728L162.723 42.0832ZM159.801 31.9296C157.195 30.6264 154.642 29.904 151.77 29.904V31.904C154.274 31.904 156.521 32.5256 158.907 33.7184L159.801 31.9296ZM151.77 29.904C148.363 29.904 145.575 30.7043 143.616 32.2413C141.629 33.8007 140.594 36.044 140.594 38.68H142.594C142.594 36.612 143.382 34.9673 144.851 33.8147C146.348 32.6397 148.649 31.904 151.77 31.904V29.904ZM140.594 38.68C140.594 41.159 141.296 43.1468 143.07 44.8095C144.775 46.4077 147.402 47.6382 151.073 48.8459L151.698 46.9461C148.074 45.7538 145.805 44.6323 144.438 43.3505C143.139 42.1332 142.594 40.713 142.594 38.68H140.594ZM193.947 49.624L192.949 49.5657L192.887 50.624H193.947V49.624ZM227.451 53.368V54.368H228.187L228.406 53.6663L227.451 53.368ZM193.851 53.368V52.368H192.831L192.852 53.3881L193.851 53.368ZM225.915 66.904L226.489 66.0848L225.717 65.5441L225.131 66.2833L225.915 66.904ZM227.835 68.248L228.728 68.6997L229.119 67.9261L228.409 67.4288L227.835 68.248ZM193.947 50.624H212.763V48.624H193.947V50.624ZM212.763 50.624C215.122 50.624 216.862 50.0317 217.947 48.6274C218.98 47.2898 219.235 45.432 219.235 43.384H217.235C217.235 45.368 216.963 46.6302 216.364 47.4046C215.817 48.1123 214.821 48.624 212.763 48.624V50.624ZM219.235 43.384C219.235 35.8726 214.41 29.808 207.195 29.808V31.808C213.037 31.808 217.235 36.6874 217.235 43.384H219.235ZM207.195 29.808C203.75 29.808 200.35 31.3793 197.737 34.6612C195.136 37.928 193.341 42.8506 192.949 49.5657L194.946 49.6823C195.322 43.2454 197.031 38.76 199.302 35.9068C201.561 33.0687 204.401 31.808 207.195 31.808V29.808ZM227.451 52.368H193.851V54.368H227.451V52.368ZM192.852 53.3881C192.999 60.6946 194.914 66.1856 198.193 69.8617C201.487 73.5539 206.05 75.296 211.227 75.296V73.296C206.517 73.296 202.536 71.7261 199.686 68.5303C196.821 65.3184 194.992 60.3454 194.851 53.3479L192.852 53.3881ZM211.227 75.296C214.779 75.296 217.706 74.5685 220.233 73.2086C222.753 71.8526 224.821 69.8979 226.7 67.5247L225.131 66.2833C223.362 68.5181 221.494 70.2594 219.286 71.4474C217.085 72.6315 214.492 73.296 211.227 73.296V75.296ZM225.342 67.7232L227.262 69.0672L228.409 67.4288L226.489 66.0848L225.342 67.7232ZM226.943 67.7963C223.272 75.0479 216.606 79.44 207.675 79.44V81.44C217.369 81.44 224.719 76.6161 228.728 68.6997L226.943 67.7963ZM207.675 79.44C200.656 79.44 194.738 77.0971 190.575 72.7854C186.41 68.4719 183.907 62.0917 183.907 53.848H181.907C181.907 62.5003 184.541 69.4161 189.136 74.1746C193.733 78.9349 200.199 81.44 207.675 81.44V79.44ZM183.907 53.848C183.907 37.7898 195.366 28.064 207.867 28.064V26.064C194.257 26.064 181.907 36.6902 181.907 53.848H183.907ZM207.867 28.064C213.731 28.064 218.527 30.0446 221.856 33.4183C225.186 36.7935 227.123 41.6404 227.123 47.512H229.123C229.123 41.1916 227.029 35.8145 223.279 32.0137C219.528 28.2114 214.196 26.064 207.867 26.064V28.064ZM227.123 47.512C227.123 49.8732 226.933 51.6757 226.497 53.0697L228.406 53.6663C228.93 51.9882 229.123 49.9508 229.123 47.512H227.123ZM294.11 36.664L294.516 35.7502L294.5 35.743L294.483 35.7364L294.11 36.664ZM298.43 38.584L298.024 39.4978L298.039 39.5045L298.054 39.5107L298.43 38.584ZM271.454 75.064L270.455 75.0263L270.433 75.6062L270.925 75.9129L271.454 75.064ZM272.03 59.8V58.8H271.067L271.031 59.7623L272.03 59.8ZM277.31 59.8L278.284 59.5732L278.104 58.8H277.31V59.8ZM280.574 73.816L279.6 74.0428L279.705 74.4936L280.117 74.7053L280.574 73.816ZM295.166 49.528L294.762 50.4427L294.782 50.4517L294.803 50.4598L295.166 49.528ZM291.038 47.704L291.442 46.7893L291.434 46.7856L291.425 46.7821L291.038 47.704ZM314.366 12.088L315.365 12.1285L315.387 11.5909L314.95 11.2765L314.366 12.088ZM313.79 26.296V27.296H314.75L314.789 26.3365L313.79 26.296ZM308.414 26.296L307.442 26.532L307.628 27.296H308.414V26.296ZM305.15 12.856L306.122 12.62L306.017 12.1869L305.624 11.9755L305.15 12.856ZM293.704 37.5778L298.024 39.4978L298.836 37.6702L294.516 35.7502L293.704 37.5778ZM298.054 39.5107C305.11 42.371 309.812 45.2287 312.756 48.526C315.661 51.7798 316.918 55.5367 316.918 60.376H318.918C318.918 55.1353 317.535 50.8762 314.248 47.194C311 43.5553 305.958 40.557 298.806 37.6573L298.054 39.5107ZM316.918 60.376C316.918 66.2698 314.532 71.0665 310.313 74.4125C306.071 77.7765 299.902 79.728 292.286 79.728V81.728C300.222 81.728 306.869 79.6955 311.555 75.9795C316.264 72.2455 318.918 66.8662 318.918 60.376H316.918ZM292.286 79.728C284.504 79.728 276.911 77.2839 271.983 74.2151L270.925 75.9129C276.173 79.1801 284.132 81.728 292.286 81.728V79.728ZM272.453 75.1017L273.029 59.8377L271.031 59.7623L270.455 75.0263L272.453 75.1017ZM272.03 60.8H277.31V58.8H272.03V60.8ZM276.336 60.0268L279.6 74.0428L281.548 73.5892L278.284 59.5732L276.336 60.0268ZM280.117 74.7053C283.642 76.5182 286.876 77.216 291.422 77.216V75.216C287.136 75.216 284.226 74.5698 281.031 72.9267L280.117 74.7053ZM291.422 77.216C296.552 77.216 300.897 76.0341 303.984 73.6607C307.105 71.261 308.838 67.7179 308.838 63.256H306.838C306.838 67.1461 305.355 70.083 302.764 72.0753C300.139 74.0939 296.276 75.216 291.422 75.216V77.216ZM308.838 63.256C308.838 59.6911 307.884 56.8847 305.649 54.5175C303.463 52.2023 300.122 50.3851 295.529 48.5962L294.803 50.4598C299.33 52.2229 302.325 53.9097 304.195 55.8905C306.016 57.8193 306.838 60.1009 306.838 63.256H308.838ZM295.57 48.6133L291.442 46.7893L290.634 48.6187L294.762 50.4427L295.57 48.6133ZM291.425 46.7821C285.77 44.406 281.314 41.7385 278.275 38.4242C275.264 35.1409 273.606 31.1822 273.606 26.104H271.606C271.606 31.6818 273.452 36.123 276.801 39.7758C280.122 43.3975 284.882 46.202 290.651 48.6259L291.425 46.7821ZM273.606 26.104C273.606 20.1698 276.034 15.5665 280.083 12.4218C284.16 9.25626 289.949 7.51999 296.702 7.51999V5.51999C289.631 5.51999 283.372 7.33573 278.857 10.8422C274.314 14.3695 271.606 19.5582 271.606 26.104H273.606ZM296.702 7.51999C303.684 7.51999 309.145 9.56108 313.782 12.8995L314.95 11.2765C309.987 7.70291 304.12 5.51999 296.702 5.51999V7.51999ZM313.367 12.0475L312.791 26.2555L314.789 26.3365L315.365 12.1285L313.367 12.0475ZM313.79 25.296H308.414V27.296H313.79V25.296ZM309.386 26.06L306.122 12.62L304.178 13.092L307.442 26.532L309.386 26.06ZM305.624 11.9755C302.946 10.5334 300.276 10.032 297.086 10.032V12.032C300.04 12.032 302.362 12.4906 304.676 13.7365L305.624 11.9755ZM297.086 10.032C292.668 10.032 288.799 11.0978 286.012 13.3086C283.195 15.5443 281.59 18.869 281.59 23.128H283.59C283.59 19.419 284.961 16.6957 287.256 14.8754C289.581 13.0302 292.96 12.032 297.086 12.032V10.032ZM281.59 23.128C281.59 26.7198 282.704 29.6025 284.835 31.9692C286.938 34.3042 289.978 36.0786 293.737 37.5916L294.483 35.7364C290.85 34.2734 288.13 32.6398 286.321 30.6308C284.54 28.6535 283.59 26.2562 283.59 23.128H281.59ZM359.143 72.28L359.883 71.6073L359.271 70.9341L358.543 71.48L359.143 72.28ZM361.063 74.392L361.882 74.9655L362.341 74.3107L361.803 73.7193L361.063 74.392ZM335.719 32.824H336.719V31.824H335.719V32.824ZM326.983 32.824H325.983V33.824H326.983V32.824ZM326.983 29.368L326.871 28.3744L325.983 28.475V29.368H326.983ZM336.295 28.312L336.408 29.3056L337.117 29.2253L337.271 28.5289L336.295 28.312ZM339.559 13.624V12.624H338.757L338.583 13.4071L339.559 13.624ZM346.471 13.624L347.471 13.6562L347.504 12.624H346.471V13.624ZM345.991 28.504L344.992 28.4718L344.958 29.504H345.991V28.504ZM359.527 28.504H360.527V27.504H359.527V28.504ZM359.527 32.824V33.824H360.527V32.824H359.527ZM345.895 32.824V31.824H344.895V32.824H345.895ZM358.403 72.9527L360.323 75.0647L361.803 73.7193L359.883 71.6073L358.403 72.9527ZM360.244 73.8185C357.77 77.3528 353.779 79.44 348.199 79.44V81.44C354.332 81.44 358.98 79.1112 361.882 74.9655L360.244 73.8185ZM348.199 79.44C344.327 79.44 341.48 78.4501 339.594 76.5649C337.709 74.6798 336.623 71.7363 336.623 67.48H334.623C334.623 72.0557 335.793 75.5922 338.18 77.9791C340.567 80.3659 344.007 81.44 348.199 81.44V79.44ZM336.623 67.48C336.623 66.0499 336.647 64.715 336.671 63.2363C336.695 61.759 336.719 60.1444 336.719 58.168H334.719C334.719 60.1276 334.695 61.729 334.671 63.2037C334.647 64.677 334.623 66.0301 334.623 67.48H336.623ZM336.719 58.168V32.824H334.719V58.168H336.719ZM335.719 31.824H326.983V33.824H335.719V31.824ZM327.983 32.824V29.368H325.983V32.824H327.983ZM327.096 30.3616L336.408 29.3056L336.183 27.3184L326.871 28.3744L327.096 30.3616ZM337.271 28.5289L340.535 13.8409L338.583 13.4071L335.319 28.0951L337.271 28.5289ZM339.559 14.624H346.471V12.624H339.559V14.624ZM345.472 13.5918L344.992 28.4718L346.991 28.5362L347.471 13.6562L345.472 13.5918ZM345.991 29.504H359.527V27.504H345.991V29.504ZM358.527 28.504V32.824H360.527V28.504H358.527ZM359.527 31.824H345.895V33.824H359.527V31.824ZM344.895 32.824V67.48H346.895V32.824H344.895ZM344.895 67.48C344.895 70.3411 345.52 72.5588 346.816 74.0708C348.136 75.6107 350.01 76.256 352.135 76.256V74.256C350.421 74.256 349.175 73.7493 348.334 72.7692C347.471 71.7612 346.895 70.0909 346.895 67.48H344.895ZM352.135 76.256C354.864 76.256 357.002 75.1361 359.743 73.08L358.543 71.48C355.909 73.4559 354.206 74.256 352.135 74.256V76.256ZM418.864 75.064H417.864V75.9468L418.74 76.0563L418.864 75.064ZM425.776 75.928H426.776V75.0452L425.9 74.9357L425.776 75.928ZM425.776 79L425.835 79.9983L426.776 79.9426V79H425.776ZM409.552 79.96L408.555 80.039L408.633 81.0162L409.611 80.9583L409.552 79.96ZM408.784 70.264L409.781 70.185L409.582 67.6665L408.003 69.6393L408.784 70.264ZM376.144 61.144L377.144 61.1575L377.144 61.1546L376.144 61.144ZM376.432 33.976L377.432 33.9866L377.441 33.1537L376.623 32.9944L376.432 33.976ZM369.04 32.536H368.04V33.36L368.849 33.5175L369.04 32.536ZM369.04 29.56L368.927 28.5665L368.04 28.6678V29.56H369.04ZM385.84 27.64L386.58 26.9673L386.236 26.5883L385.727 26.6465L385.84 27.64ZM386.8 28.696L387.8 28.7215L387.81 28.3203L387.54 28.0233L386.8 28.696ZM386.416 43.768L385.417 43.7425L385.416 43.7553V43.768H386.416ZM408.592 66.808L409.299 67.5151L409.59 67.2246L409.592 66.8138L408.592 66.808ZM408.784 33.976L409.784 33.9818L409.789 33.155L408.978 32.9949L408.784 33.976ZM401.488 32.536H400.488V33.3579L401.295 33.5171L401.488 32.536ZM401.488 29.656L401.368 28.6633L400.488 28.77V29.656H401.488ZM418.096 27.64L418.803 26.9329L418.459 26.5886L417.976 26.6473L418.096 27.64ZM419.152 28.696L420.152 28.7151L420.16 28.2897L419.859 27.9889L419.152 28.696ZM418.864 43.768L417.864 43.7489L417.864 43.7584V43.768H418.864ZM418.74 76.0563L425.652 76.9203L425.9 74.9357L418.988 74.0717L418.74 76.0563ZM424.776 75.928V79H426.776V75.928H424.776ZM425.717 78.0017L409.493 78.9617L409.611 80.9583L425.835 79.9983L425.717 78.0017ZM410.549 79.881L409.781 70.185L407.787 70.343L408.555 80.039L410.549 79.881ZM408.003 69.6393C403.137 75.7221 396.775 79.44 390.352 79.44V81.44C397.562 81.44 404.447 77.2859 409.565 70.8887L408.003 69.6393ZM390.352 79.44C386.081 79.44 382.817 78.2313 380.606 75.4919C378.36 72.7082 377.049 68.1632 377.144 61.1575L375.144 61.1305C375.047 68.3328 376.377 73.4358 379.05 76.7481C381.759 80.1047 385.695 81.44 390.352 81.44V79.44ZM377.144 61.1546L377.432 33.9866L375.432 33.9654L375.144 61.1334L377.144 61.1546ZM376.623 32.9944L369.231 31.5544L368.849 33.5175L376.241 34.9575L376.623 32.9944ZM370.04 32.536V29.56H368.04V32.536H370.04ZM369.154 30.5535L385.954 28.6335L385.727 26.6465L368.927 28.5665L369.154 30.5535ZM385.1 28.3127L386.06 29.3687L387.54 28.0233L386.58 26.9673L385.1 28.3127ZM385.801 28.6705L385.417 43.7425L387.416 43.7935L387.8 28.7215L385.801 28.6705ZM385.416 43.768V61.144H387.416V43.768H385.416ZM385.416 61.144C385.416 65.7704 386.163 69.0901 387.802 71.2624C389.495 73.5052 391.986 74.336 394.96 74.336V72.336C392.366 72.336 390.586 71.6308 389.398 70.0576C388.158 68.4139 387.416 65.6376 387.416 61.144H385.416ZM394.96 74.336C400.205 74.336 405.052 71.7621 409.299 67.5151L407.885 66.1009C403.876 70.1099 399.508 72.336 394.96 72.336V74.336ZM409.592 66.8138L409.784 33.9818L407.784 33.9702L407.592 66.8022L409.592 66.8138ZM408.978 32.9949L401.682 31.5549L401.295 33.5171L408.591 34.9571L408.978 32.9949ZM402.488 32.536V29.656H400.488V32.536H402.488ZM401.609 30.6487L418.217 28.6327L417.976 26.6473L401.368 28.6633L401.609 30.6487ZM417.389 28.3471L418.445 29.4031L419.859 27.9889L418.803 26.9329L417.389 28.3471ZM418.152 28.6769L417.864 43.7489L419.864 43.7871L420.152 28.7151L418.152 28.6769ZM417.864 43.768V75.064H419.864V43.768H417.864ZM474.198 69.688L474.914 70.3859L475.198 70.0946V69.688H474.198ZM474.198 37.336H475.198V36.8761L474.849 36.5767L474.198 37.336ZM484.374 75.16H483.374V76.0693L484.279 76.1555L484.374 75.16ZM492.438 75.928H493.438V75.0187L492.533 74.9325L492.438 75.928ZM492.438 79L492.499 79.9981L493.438 79.9408V79H492.438ZM475.158 80.056L474.163 80.1541L474.257 81.1129L475.219 81.0541L475.158 80.056ZM474.486 73.24L475.481 73.1419L475.246 70.7579L473.716 72.6014L474.486 73.24ZM474.582 33.784L473.818 34.4299L475.582 36.5139V33.784H474.582ZM474.582 8.72799H475.582V7.81294L474.67 7.73192L474.582 8.72799ZM465.942 7.96H464.942V8.87505L465.853 8.95607L465.942 7.96ZM465.942 4.984L465.712 4.01079L464.942 4.19273V4.984H465.942ZM483.414 0.855999L483.884 -0.0263548L483.551 -0.204013L483.184 -0.117207L483.414 0.855999ZM484.854 1.62399L485.853 1.65603L485.873 1.03435L485.324 0.741641L484.854 1.62399ZM484.374 16.6L483.374 16.568L483.374 16.584V16.6H484.374ZM475.198 69.688V37.336H473.198V69.688H475.198ZM474.849 36.5767C470.69 33.0119 467.107 31.632 463.542 31.632V33.632C466.504 33.632 469.642 34.7481 473.547 38.0953L474.849 36.5767ZM463.542 31.632C459.3 31.632 455.299 33.1763 452.382 36.8056C449.489 40.4062 447.758 45.9409 447.758 53.752H449.758C449.758 46.2031 451.435 41.1778 453.941 38.0584C456.425 34.9677 459.816 33.632 463.542 33.632V31.632ZM447.758 53.752C447.758 61.3581 449.339 66.8642 452.129 70.4898C454.949 74.1544 458.91 75.776 463.35 75.776V73.776C459.438 73.776 456.102 72.3736 453.714 69.2702C451.296 66.1278 449.758 61.1219 449.758 53.752H447.758ZM463.35 75.776C465.531 75.776 467.478 75.4193 469.373 74.5438C471.258 73.6727 473.036 72.3135 474.914 70.3859L473.482 68.9901C471.712 70.8065 470.129 71.9913 468.534 72.7282C466.949 73.4607 465.297 73.776 463.35 73.776V75.776ZM484.279 76.1555L492.343 76.9235L492.533 74.9325L484.469 74.1645L484.279 76.1555ZM491.438 75.928V79H493.438V75.928H491.438ZM492.377 78.0019L475.097 79.0579L475.219 81.0541L492.499 79.9981L492.377 78.0019ZM476.153 79.9579L475.481 73.1419L473.491 73.3381L474.163 80.1541L476.153 79.9579ZM473.716 72.6014C470.137 76.9154 465.606 79.44 459.606 79.44V81.44C466.277 81.44 471.347 78.5886 475.255 73.8786L473.716 72.6014ZM459.606 79.44C453.565 79.44 448.397 76.9546 444.723 72.5845C441.039 68.2023 438.814 61.8686 438.814 54.136H436.814C436.814 62.2434 439.149 69.0617 443.192 73.8715C447.246 78.6934 452.974 81.44 459.606 81.44V79.44ZM438.814 54.136C438.814 45.977 441.204 39.4575 445.096 34.9931C448.98 30.5375 454.414 28.064 460.662 28.064V26.064C453.854 26.064 447.864 28.7745 443.588 33.6789C439.32 38.5745 436.814 45.591 436.814 54.136H438.814ZM460.662 28.064C465.558 28.064 469.789 29.6675 473.818 34.4299L475.345 33.1381C470.927 27.9165 466.133 26.064 460.662 26.064V28.064ZM475.582 33.784V8.72799H473.582V33.784H475.582ZM474.67 7.73192L466.03 6.96393L465.853 8.95607L474.493 9.72407L474.67 7.73192ZM466.942 7.96V4.984H464.942V7.96H466.942ZM466.172 5.9572L483.644 1.82921L483.184 -0.117207L465.712 4.01079L466.172 5.9572ZM482.943 1.73835L484.383 2.50635L485.324 0.741641L483.884 -0.0263548L482.943 1.73835ZM483.854 1.59196L483.374 16.568L485.373 16.632L485.853 1.65603L483.854 1.59196ZM483.374 16.6V75.16H485.374V16.6H483.374ZM521.309 74.872L520.309 74.8899L520.324 75.7332L521.158 75.8605L521.309 74.872ZM528.221 75.928H529.221V75.0692L528.372 74.9395L528.221 75.928ZM528.221 79V80H529.221V79H528.221ZM503.165 79H502.165V80H503.165V79ZM503.165 75.928L503.025 74.9378L502.165 75.0591V75.928H503.165ZM510.653 74.872L510.793 75.8622L511.638 75.743L511.653 74.8895L510.653 74.872ZM510.557 36.376L511.556 36.3344L511.52 35.4622L510.651 35.3804L510.557 36.376ZM502.397 35.608H501.397V36.5183L502.303 36.6036L502.397 35.608ZM502.397 32.632L502.1 31.6772L501.397 31.8961V32.632H502.397ZM519.965 27.16L520.546 26.3463L520.142 26.0575L519.668 26.2052L519.965 27.16ZM521.309 28.12L522.309 28.1334L522.316 27.6103L521.89 27.3063L521.309 28.12ZM521.117 42.424L520.117 42.4106V42.424H521.117ZM515.741 14.448C512.283 14.448 509.637 12.04 509.637 8.72799H507.637C507.637 13.288 511.327 16.448 515.741 16.448V14.448ZM509.637 8.72799C509.637 5.43434 512.263 3.10399 515.741 3.10399V1.10399C511.347 1.10399 507.637 4.14965 507.637 8.72799H509.637ZM515.741 3.10399C519.114 3.10399 521.749 5.42595 521.749 8.72799H523.749C523.749 4.15804 520.048 1.10399 515.741 1.10399V3.10399ZM521.749 8.72799C521.749 12.0485 519.094 14.448 515.741 14.448V16.448C520.068 16.448 523.749 13.2795 523.749 8.72799H521.749ZM521.158 75.8605L528.07 76.9165L528.372 74.9395L521.46 73.8835L521.158 75.8605ZM527.221 75.928V79H529.221V75.928H527.221ZM528.221 78H503.165V80H528.221V78ZM504.165 79V75.928H502.165V79H504.165ZM503.305 76.9182L510.793 75.8622L510.513 73.8818L503.025 74.9378L503.305 76.9182ZM511.653 74.8895C511.749 69.4153 511.845 61.7286 511.845 56.728H509.845C509.845 61.7114 509.749 69.3847 509.653 74.8545L511.653 74.8895ZM511.845 56.728V50.584H509.845V56.728H511.845ZM511.845 50.584C511.845 44.6172 511.749 40.9553 511.556 36.3344L509.558 36.4176C509.749 41.0127 509.845 44.6468 509.845 50.584H511.845ZM510.651 35.3804L502.491 34.6124L502.303 36.6036L510.463 37.3716L510.651 35.3804ZM503.397 35.608V32.632H501.397V35.608H503.397ZM502.694 33.5868L520.262 28.1148L519.668 26.2052L502.1 31.6772L502.694 33.5868ZM519.384 27.9737L520.728 28.9337L521.89 27.3063L520.546 26.3463L519.384 27.9737ZM520.309 28.1066L520.117 42.4106L522.117 42.4374L522.309 28.1334L520.309 28.1066ZM520.117 42.424V56.728H522.117V42.424H520.117ZM520.117 56.728C520.117 61.8245 520.213 69.5112 520.309 74.8899L522.309 74.8541C522.213 69.4808 522.117 61.8075 522.117 56.728H520.117ZM551.735 49.624L550.737 49.5657L550.675 50.624H551.735V49.624ZM585.239 53.368V54.368H585.974L586.193 53.6663L585.239 53.368ZM551.639 53.368V52.368H550.619L550.639 53.3881L551.639 53.368ZM583.703 66.904L584.276 66.0848L583.504 65.5441L582.919 66.2833L583.703 66.904ZM585.623 68.248L586.515 68.6997L586.907 67.9261L586.196 67.4288L585.623 68.248ZM551.735 50.624H570.551V48.624H551.735V50.624ZM570.551 50.624C572.909 50.624 574.649 50.0317 575.734 48.6274C576.768 47.2898 577.023 45.432 577.023 43.384H575.023C575.023 45.368 574.75 46.6302 574.152 47.4046C573.605 48.1123 572.609 48.624 570.551 48.624V50.624ZM577.023 43.384C577.023 35.8726 572.198 29.808 564.983 29.808V31.808C570.824 31.808 575.023 36.6874 575.023 43.384H577.023ZM564.983 29.808C561.538 29.808 558.137 31.3793 555.525 34.6612C552.924 37.928 551.129 42.8506 550.737 49.5657L552.733 49.6823C553.109 43.2454 554.818 38.76 557.089 35.9068C559.349 33.0687 562.188 31.808 564.983 31.808V29.808ZM585.239 52.368H551.639V54.368H585.239V52.368ZM550.639 53.3881C550.786 60.6946 552.702 66.1856 555.981 69.8617C559.274 73.5539 563.837 75.296 569.015 75.296V73.296C564.305 73.296 560.324 71.7261 557.473 68.5303C554.608 65.3184 552.78 60.3454 552.639 53.3479L550.639 53.3881ZM569.015 75.296C572.567 75.296 575.493 74.5685 578.021 73.2086C580.541 71.8526 582.608 69.8979 584.487 67.5247L582.919 66.2833C581.15 68.5181 579.281 70.2594 577.073 71.4474C574.873 72.6315 572.279 73.296 569.015 73.296V75.296ZM583.13 67.7232L585.05 69.0672L586.196 67.4288L584.276 66.0848L583.13 67.7232ZM584.731 67.7963C581.059 75.0479 574.394 79.44 565.463 79.44V81.44C575.156 81.44 582.507 76.6161 586.515 68.6997L584.731 67.7963ZM565.463 79.44C558.443 79.44 552.526 77.0971 548.362 72.7854C544.197 68.4719 541.695 62.0917 541.695 53.848H539.695C539.695 62.5003 542.329 69.4161 546.924 74.1746C551.52 78.9349 557.987 81.44 565.463 81.44V79.44ZM541.695 53.848C541.695 37.7898 553.154 28.064 565.655 28.064V26.064C552.044 26.064 539.695 36.6902 539.695 53.848H541.695ZM565.655 28.064C571.519 28.064 576.315 30.0446 579.643 33.4183C582.973 36.7935 584.911 41.6404 584.911 47.512H586.911C586.911 41.1916 584.817 35.8145 581.067 32.0137C577.315 28.2114 571.983 26.064 565.655 26.064V28.064ZM584.911 47.512C584.911 49.8732 584.72 51.6757 584.285 53.0697L586.193 53.6663C586.718 51.9882 586.911 49.9508 586.911 47.512H584.911ZM619.554 47.896L619.903 46.9588L619.885 46.9521L619.867 46.9461L619.554 47.896ZM623.682 49.432L623.334 50.3692L623.349 50.3747L623.364 50.3798L623.682 49.432ZM600.354 76.216H599.354V76.8192L599.888 77.1006L600.354 76.216ZM600.354 64.408V63.408H599.354V64.408H600.354ZM605.634 64.408L606.609 64.1825L606.429 63.408H605.634V64.408ZM608.034 74.776L607.06 75.0015L607.177 75.5065L607.657 75.7021L608.034 74.776ZM618.786 58.648L618.465 59.5949L618.47 59.5967L618.786 58.648ZM613.698 56.92L613.359 57.8605L613.368 57.8638L613.377 57.8669L613.698 56.92ZM635.106 31.384L636.106 31.4191L636.127 30.8298L635.621 30.5265L635.106 31.384ZM634.722 42.328V43.328H635.688L635.722 42.3631L634.722 42.328ZM629.922 42.328L628.953 42.5728L629.144 43.328H629.922V42.328ZM627.522 32.824L628.492 32.5792L628.38 32.1346L627.97 31.9296L627.522 32.824ZM619.206 48.8332L623.334 50.3692L624.031 48.4948L619.903 46.9588L619.206 48.8332ZM623.364 50.3798C628.417 52.0801 631.814 54.0964 633.945 56.4511C636.049 58.7757 636.986 61.5024 636.986 64.792H638.986C638.986 61.0736 637.908 57.8483 635.428 55.1089C632.975 52.3996 629.22 50.2399 624.001 48.4842L623.364 50.3798ZM636.986 64.792C636.986 68.9094 635.297 72.5303 632.001 75.1445C628.686 77.7743 623.671 79.44 616.962 79.44V81.44C623.982 81.44 629.479 79.6977 633.244 76.7115C637.028 73.7097 638.986 69.5066 638.986 64.792H636.986ZM616.962 79.44C610.713 79.44 605.976 78.0495 600.821 75.3314L599.888 77.1006C605.293 79.9505 610.348 81.44 616.962 81.44V79.44ZM601.354 76.216V64.408H599.354V76.216H601.354ZM600.354 65.408H605.634V63.408H600.354V65.408ZM604.66 64.6335L607.06 75.0015L609.009 74.5505L606.609 64.1825L604.66 64.6335ZM607.657 75.7021C610.368 76.8066 613.184 77.408 616.578 77.408V75.408C613.445 75.408 610.885 74.8574 608.412 73.8499L607.657 75.7021ZM616.578 77.408C620.718 77.408 623.979 76.5985 626.232 74.9897C628.533 73.346 629.674 70.9425 629.674 68.056H627.674C627.674 70.3535 626.8 72.126 625.069 73.3623C623.289 74.6335 620.502 75.408 616.578 75.408V77.408ZM629.674 68.056C629.674 65.6483 628.909 63.628 627.124 61.9113C625.39 60.2437 622.748 58.9144 619.103 57.6993L618.47 59.5967C622.025 60.7816 624.327 61.9963 625.737 63.3527C627.096 64.66 627.674 66.1437 627.674 68.056H629.674ZM619.108 57.7011L614.02 55.9731L613.377 57.8669L618.465 59.5949L619.108 57.7011ZM614.038 55.9795C610.121 54.5637 607.018 52.8527 604.901 50.668C602.812 48.5135 601.642 45.8587 601.642 42.424H599.642C599.642 46.3813 601.017 49.5345 603.464 52.06C605.883 54.5553 609.308 56.3963 613.359 57.8605L614.038 55.9795ZM601.642 42.424C601.642 38.4378 603.247 34.8793 606.282 32.3022C609.326 29.7166 613.879 28.064 619.842 28.064V26.064C613.518 26.064 608.471 27.8194 604.987 30.7778C601.494 33.7447 599.642 37.8662 599.642 42.424H601.642ZM619.842 28.064C625.595 28.064 629.931 29.4451 634.592 32.2415L635.621 30.5265C630.682 27.5629 625.994 26.064 619.842 26.064V28.064ZM634.107 31.3489L633.723 42.2929L635.722 42.3631L636.106 31.4191L634.107 31.3489ZM634.722 41.328H629.922V43.328H634.722V41.328ZM630.892 42.0832L628.492 32.5792L626.553 33.0688L628.953 42.5728L630.892 42.0832ZM627.97 31.9296C625.363 30.6264 622.811 29.904 619.938 29.904V31.904C622.442 31.904 624.69 32.5256 627.075 33.7184L627.97 31.9296ZM619.938 29.904C616.532 29.904 613.744 30.7043 611.785 32.2413C609.798 33.8007 608.762 36.044 608.762 38.68H610.762C610.762 36.612 611.551 34.9673 613.02 33.8147C614.517 32.6397 616.817 31.904 619.938 31.904V29.904ZM608.762 38.68C608.762 41.159 609.465 43.1468 611.239 44.8095C612.943 46.4077 615.57 47.6382 619.242 48.8459L619.867 46.9461C616.243 45.7538 613.974 44.6323 612.606 43.3505C611.308 42.1332 610.762 40.713 610.762 38.68H608.762Z" fill="#BDBDBD" mask="url(#path-1-outside-1_810_1723)"/>
</svg>
