<svg width="248" height="111" viewBox="0 0 248 111" fill="none" xmlns="http://www.w3.org/2000/svg">
<mask id="path-1-outside-1_846_1822" maskUnits="userSpaceOnUse" x="-1" y="-1" width="250" height="113" fill="black">
<rect fill="white" x="-1" y="-1" width="250" height="113"/>
<path d="M24.456 50.152C10.504 50.152 0.264 41.512 0.264 25.768C0.264 9.896 10.824 0.807999 24.456 0.807999C29.96 0.807999 33.864 2.024 38.024 4.392V15.208H34.824L31.944 3.176L35.976 4.52V6.696C32.52 4.2 29.576 3.176 25.672 3.176C15.688 3.176 8.328 10.792 8.328 25.512C8.328 40.424 15.688 47.848 25.608 47.848C29.448 47.848 32.776 46.824 36.36 44.264V46.44L32.456 47.656L35.272 35.816H38.472L38.536 46.504C34.376 48.936 29.96 50.152 24.456 50.152ZM56.793 50.024C51.609 50.024 47.769 46.888 47.769 41.576C47.769 36.264 50.905 33 60.121 30.376C63.513 29.352 67.993 28.264 71.385 27.432V29.032C67.993 29.928 64.281 30.952 61.785 31.848C56.857 33.768 54.617 36.584 54.617 40.552C54.617 44.456 56.793 46.44 60.121 46.44C62.489 46.44 64.857 45.16 69.465 40.36L70.297 43.624H68.313C64.473 47.848 61.849 50.024 56.793 50.024ZM74.393 49.96C70.233 49.96 68.185 47.272 67.737 42.856V25.256C67.737 18.28 65.753 16.36 60.825 16.36C58.521 16.36 56.217 16.936 53.273 18.28L56.729 16.68L55.897 21.608C55.641 24.744 54.105 25.896 52.185 25.896C50.393 25.896 49.177 24.936 48.729 23.208C49.753 17.704 54.809 14.312 63.065 14.312C71.129 14.312 74.777 17.832 74.777 26.28V42.6C74.777 45.992 75.609 47.016 77.145 47.016C78.169 47.016 78.937 46.568 80.025 45.16L81.113 46.056C79.641 48.744 77.529 49.96 74.393 49.96ZM99.2405 50.024C94.8245 50.024 91.3685 49.064 87.7845 47.208L87.9765 39.208H91.3045L93.0325 47.784L90.2805 47.528V45.224C92.9045 46.952 95.2725 47.784 98.8565 47.784C104.169 47.784 106.985 45.608 106.985 42.024C106.985 39.08 105.513 37.224 100.329 35.624L96.8725 34.408C91.4965 32.616 88.1685 29.608 88.1685 24.552C88.1685 18.664 92.8405 14.312 101.161 14.312C105.193 14.312 108.137 15.272 111.593 17.128L111.273 24.424H108.265L106.217 16.36L108.649 17V19.048C106.025 17.256 104.041 16.488 101.289 16.488C96.7445 16.488 94.2485 18.728 94.2485 22.056C94.2485 24.808 95.8485 26.6 100.649 28.136L104.105 29.288C110.697 31.464 113.321 34.6 113.321 39.4C113.321 45.736 108.329 50.024 99.2405 50.024ZM139.002 50.024C129.018 50.024 121.914 43.88 121.914 32.168C121.914 20.968 129.722 14.312 138.554 14.312C147.451 14.312 152.507 20.328 152.507 28.072C152.507 29.608 152.379 30.824 152.058 31.912H125.114V29.8H142.394C144.89 29.8 145.659 28.584 145.659 25.448C145.659 19.88 142.842 16.424 138.299 16.424C133.434 16.424 129.466 21.416 129.466 31.336C129.466 41.832 134.458 46.312 141.306 46.312C145.786 46.312 148.923 44.584 151.354 41.576L152.443 42.408C149.691 47.208 145.083 50.024 139.002 50.024ZM14.344 110.152C9.096 110.152 3.72 108.616 0.328 106.44L0.712 96.264H3.784L6.472 107.72L2.952 106.184L2.44 103.944C6.6 106.888 9.288 107.656 13.704 107.656C20.424 107.656 24.584 104.584 24.584 98.888C24.584 94.344 22.536 91.976 16.264 89.288L13.384 88.072C5.384 84.616 1.224 80.52 1.224 73.544C1.224 65.288 8.008 60.808 17.096 60.808C22.024 60.808 25.928 62.152 29.192 64.392L28.808 73.992H25.672L23.112 63.048L26.76 64.712L27.144 67.016C23.688 64.264 21.448 63.304 17.8 63.304C11.976 63.304 7.88 66.12 7.88 71.432C7.88 76.104 10.696 78.664 15.56 80.712L18.632 82.056C28.296 86.216 31.496 89.864 31.496 96.648C31.496 104.84 24.968 110.152 14.344 110.152ZM47.3195 77.768V75.272H59.6075V77.768H47.3195ZM52.3115 110.024C46.4875 110.024 43.6075 107.208 43.6075 101C43.6075 98.76 43.6715 97.224 43.6715 94.728V77.768H37.7835V75.784L45.0795 75.144L43.8635 75.976L46.3595 65.16H51.0955L50.9035 76.296V101.256C50.9035 105.032 52.4395 106.632 55.1915 106.632C56.9835 106.632 58.1355 106.056 59.8635 104.904L60.8235 105.992C59.0315 108.616 56.2155 110.024 52.3115 110.024ZM80.723 110.024C74.515 110.024 70.867 106.632 70.995 97.032L71.123 77.576L72.851 78.856L66.195 77.768V76.104L77.779 74.76L78.547 75.464L78.227 84.36V97.48C78.227 103.624 80.403 105.736 84.115 105.736C87.891 105.736 91.411 103.304 94.163 99.528L96.019 102.408H93.587C90.323 106.888 86.099 110.024 80.723 110.024ZM93.139 109.768L92.819 101.896V101.768L93.011 78.472L88.147 77.832V76.232L99.603 74.76L100.307 75.464L100.051 84.36V106.76L104.595 107.208V109.064L93.139 109.768ZM127.252 110.024C118.932 110.024 112.852 103.24 112.852 92.488C112.852 81.224 119.7 74.312 128.148 74.312C132.18 74.312 135.636 76.168 138.644 80.456H139.22L138.26 81.8C135.636 78.92 133.204 77.768 130.516 77.768C125.076 77.768 120.532 81.672 120.532 92.296C120.532 102.28 124.628 106.44 130.132 106.44C133.14 106.44 135.572 105.288 138.132 102.344L139.156 103.816H138.516C135.636 107.848 131.796 110.024 127.252 110.024ZM137.748 109.704L137.236 103.624V80.456L137.492 79.816V61.32L131.924 60.936V59.208L143.7 56.968L144.596 57.544L144.404 67.464V106.824L149.716 107.144V109L137.748 109.704ZM157.235 109V107.144L164.147 106.504H167.283L174.131 107.144V109H157.235ZM162.099 109C162.227 105.864 162.355 98.568 162.355 94.152V89.864C162.355 85.576 162.227 82.504 162.099 79.368L156.787 79.048V77.448L168.883 74.44L169.715 74.952L169.523 84.424V94.152C169.523 98.568 169.587 105.864 169.715 109H162.099ZM165.491 67.08C163.123 67.08 161.139 65.352 161.139 62.856C161.139 60.424 163.123 58.632 165.491 58.632C167.923 58.632 169.907 60.424 169.907 62.856C169.907 65.352 167.923 67.08 165.491 67.08ZM199.59 110.024C189.606 110.024 182.502 103.88 182.502 92.168C182.502 80.968 190.31 74.312 199.142 74.312C208.038 74.312 213.094 80.328 213.094 88.072C213.094 89.608 212.966 90.824 212.646 91.912H185.702V89.8H202.982C205.478 89.8 206.246 88.584 206.246 85.448C206.246 79.88 203.43 76.424 198.886 76.424C194.022 76.424 190.054 81.416 190.054 91.336C190.054 101.832 195.046 106.312 201.894 106.312C206.374 106.312 209.51 104.584 211.942 101.576L213.03 102.408C210.278 107.208 205.67 110.024 199.59 110.024ZM233.415 110.024C228.999 110.024 225.543 109.064 221.959 107.208L222.151 99.208H225.479L227.207 107.784L224.455 107.528V105.224C227.079 106.952 229.447 107.784 233.031 107.784C238.343 107.784 241.159 105.608 241.159 102.024C241.159 99.08 239.687 97.224 234.503 95.624L231.047 94.408C225.671 92.616 222.343 89.608 222.343 84.552C222.343 78.664 227.015 74.312 235.335 74.312C239.367 74.312 242.311 75.272 245.767 77.128L245.447 84.424H242.439L240.391 76.36L242.823 77V79.048C240.199 77.256 238.215 76.488 235.463 76.488C230.919 76.488 228.423 78.728 228.423 82.056C228.423 84.808 230.023 86.6 234.823 88.136L238.279 89.288C244.871 91.464 247.495 94.6 247.495 99.4C247.495 105.736 242.503 110.024 233.415 110.024Z"/>
</mask>
<path d="M24.456 50.152C10.504 50.152 0.264 41.512 0.264 25.768C0.264 9.896 10.824 0.807999 24.456 0.807999C29.96 0.807999 33.864 2.024 38.024 4.392V15.208H34.824L31.944 3.176L35.976 4.52V6.696C32.52 4.2 29.576 3.176 25.672 3.176C15.688 3.176 8.328 10.792 8.328 25.512C8.328 40.424 15.688 47.848 25.608 47.848C29.448 47.848 32.776 46.824 36.36 44.264V46.44L32.456 47.656L35.272 35.816H38.472L38.536 46.504C34.376 48.936 29.96 50.152 24.456 50.152ZM56.793 50.024C51.609 50.024 47.769 46.888 47.769 41.576C47.769 36.264 50.905 33 60.121 30.376C63.513 29.352 67.993 28.264 71.385 27.432V29.032C67.993 29.928 64.281 30.952 61.785 31.848C56.857 33.768 54.617 36.584 54.617 40.552C54.617 44.456 56.793 46.44 60.121 46.44C62.489 46.44 64.857 45.16 69.465 40.36L70.297 43.624H68.313C64.473 47.848 61.849 50.024 56.793 50.024ZM74.393 49.96C70.233 49.96 68.185 47.272 67.737 42.856V25.256C67.737 18.28 65.753 16.36 60.825 16.36C58.521 16.36 56.217 16.936 53.273 18.28L56.729 16.68L55.897 21.608C55.641 24.744 54.105 25.896 52.185 25.896C50.393 25.896 49.177 24.936 48.729 23.208C49.753 17.704 54.809 14.312 63.065 14.312C71.129 14.312 74.777 17.832 74.777 26.28V42.6C74.777 45.992 75.609 47.016 77.145 47.016C78.169 47.016 78.937 46.568 80.025 45.16L81.113 46.056C79.641 48.744 77.529 49.96 74.393 49.96ZM99.2405 50.024C94.8245 50.024 91.3685 49.064 87.7845 47.208L87.9765 39.208H91.3045L93.0325 47.784L90.2805 47.528V45.224C92.9045 46.952 95.2725 47.784 98.8565 47.784C104.169 47.784 106.985 45.608 106.985 42.024C106.985 39.08 105.513 37.224 100.329 35.624L96.8725 34.408C91.4965 32.616 88.1685 29.608 88.1685 24.552C88.1685 18.664 92.8405 14.312 101.161 14.312C105.193 14.312 108.137 15.272 111.593 17.128L111.273 24.424H108.265L106.217 16.36L108.649 17V19.048C106.025 17.256 104.041 16.488 101.289 16.488C96.7445 16.488 94.2485 18.728 94.2485 22.056C94.2485 24.808 95.8485 26.6 100.649 28.136L104.105 29.288C110.697 31.464 113.321 34.6 113.321 39.4C113.321 45.736 108.329 50.024 99.2405 50.024ZM139.002 50.024C129.018 50.024 121.914 43.88 121.914 32.168C121.914 20.968 129.722 14.312 138.554 14.312C147.451 14.312 152.507 20.328 152.507 28.072C152.507 29.608 152.379 30.824 152.058 31.912H125.114V29.8H142.394C144.89 29.8 145.659 28.584 145.659 25.448C145.659 19.88 142.842 16.424 138.299 16.424C133.434 16.424 129.466 21.416 129.466 31.336C129.466 41.832 134.458 46.312 141.306 46.312C145.786 46.312 148.923 44.584 151.354 41.576L152.443 42.408C149.691 47.208 145.083 50.024 139.002 50.024ZM14.344 110.152C9.096 110.152 3.72 108.616 0.328 106.44L0.712 96.264H3.784L6.472 107.72L2.952 106.184L2.44 103.944C6.6 106.888 9.288 107.656 13.704 107.656C20.424 107.656 24.584 104.584 24.584 98.888C24.584 94.344 22.536 91.976 16.264 89.288L13.384 88.072C5.384 84.616 1.224 80.52 1.224 73.544C1.224 65.288 8.008 60.808 17.096 60.808C22.024 60.808 25.928 62.152 29.192 64.392L28.808 73.992H25.672L23.112 63.048L26.76 64.712L27.144 67.016C23.688 64.264 21.448 63.304 17.8 63.304C11.976 63.304 7.88 66.12 7.88 71.432C7.88 76.104 10.696 78.664 15.56 80.712L18.632 82.056C28.296 86.216 31.496 89.864 31.496 96.648C31.496 104.84 24.968 110.152 14.344 110.152ZM47.3195 77.768V75.272H59.6075V77.768H47.3195ZM52.3115 110.024C46.4875 110.024 43.6075 107.208 43.6075 101C43.6075 98.76 43.6715 97.224 43.6715 94.728V77.768H37.7835V75.784L45.0795 75.144L43.8635 75.976L46.3595 65.16H51.0955L50.9035 76.296V101.256C50.9035 105.032 52.4395 106.632 55.1915 106.632C56.9835 106.632 58.1355 106.056 59.8635 104.904L60.8235 105.992C59.0315 108.616 56.2155 110.024 52.3115 110.024ZM80.723 110.024C74.515 110.024 70.867 106.632 70.995 97.032L71.123 77.576L72.851 78.856L66.195 77.768V76.104L77.779 74.76L78.547 75.464L78.227 84.36V97.48C78.227 103.624 80.403 105.736 84.115 105.736C87.891 105.736 91.411 103.304 94.163 99.528L96.019 102.408H93.587C90.323 106.888 86.099 110.024 80.723 110.024ZM93.139 109.768L92.819 101.896V101.768L93.011 78.472L88.147 77.832V76.232L99.603 74.76L100.307 75.464L100.051 84.36V106.76L104.595 107.208V109.064L93.139 109.768ZM127.252 110.024C118.932 110.024 112.852 103.24 112.852 92.488C112.852 81.224 119.7 74.312 128.148 74.312C132.18 74.312 135.636 76.168 138.644 80.456H139.22L138.26 81.8C135.636 78.92 133.204 77.768 130.516 77.768C125.076 77.768 120.532 81.672 120.532 92.296C120.532 102.28 124.628 106.44 130.132 106.44C133.14 106.44 135.572 105.288 138.132 102.344L139.156 103.816H138.516C135.636 107.848 131.796 110.024 127.252 110.024ZM137.748 109.704L137.236 103.624V80.456L137.492 79.816V61.32L131.924 60.936V59.208L143.7 56.968L144.596 57.544L144.404 67.464V106.824L149.716 107.144V109L137.748 109.704ZM157.235 109V107.144L164.147 106.504H167.283L174.131 107.144V109H157.235ZM162.099 109C162.227 105.864 162.355 98.568 162.355 94.152V89.864C162.355 85.576 162.227 82.504 162.099 79.368L156.787 79.048V77.448L168.883 74.44L169.715 74.952L169.523 84.424V94.152C169.523 98.568 169.587 105.864 169.715 109H162.099ZM165.491 67.08C163.123 67.08 161.139 65.352 161.139 62.856C161.139 60.424 163.123 58.632 165.491 58.632C167.923 58.632 169.907 60.424 169.907 62.856C169.907 65.352 167.923 67.08 165.491 67.08ZM199.59 110.024C189.606 110.024 182.502 103.88 182.502 92.168C182.502 80.968 190.31 74.312 199.142 74.312C208.038 74.312 213.094 80.328 213.094 88.072C213.094 89.608 212.966 90.824 212.646 91.912H185.702V89.8H202.982C205.478 89.8 206.246 88.584 206.246 85.448C206.246 79.88 203.43 76.424 198.886 76.424C194.022 76.424 190.054 81.416 190.054 91.336C190.054 101.832 195.046 106.312 201.894 106.312C206.374 106.312 209.51 104.584 211.942 101.576L213.03 102.408C210.278 107.208 205.67 110.024 199.59 110.024ZM233.415 110.024C228.999 110.024 225.543 109.064 221.959 107.208L222.151 99.208H225.479L227.207 107.784L224.455 107.528V105.224C227.079 106.952 229.447 107.784 233.031 107.784C238.343 107.784 241.159 105.608 241.159 102.024C241.159 99.08 239.687 97.224 234.503 95.624L231.047 94.408C225.671 92.616 222.343 89.608 222.343 84.552C222.343 78.664 227.015 74.312 235.335 74.312C239.367 74.312 242.311 75.272 245.767 77.128L245.447 84.424H242.439L240.391 76.36L242.823 77V79.048C240.199 77.256 238.215 76.488 235.463 76.488C230.919 76.488 228.423 78.728 228.423 82.056C228.423 84.808 230.023 86.6 234.823 88.136L238.279 89.288C244.871 91.464 247.495 94.6 247.495 99.4C247.495 105.736 242.503 110.024 233.415 110.024Z" fill="white"/>
<path d="M38.024 4.392H39.024V3.81057L38.5187 3.52293L38.024 4.392ZM38.024 15.208V16.208H39.024V15.208H38.024ZM34.824 15.208L33.8515 15.4408L34.0351 16.208H34.824V15.208ZM31.944 3.176L32.2602 2.22731L30.5524 1.65804L30.9715 3.40878L31.944 3.176ZM35.976 4.52H36.976V3.79924L36.2922 3.57131L35.976 4.52ZM35.976 6.696L35.3905 7.50668L36.976 8.65176V6.696H35.976ZM36.36 44.264H37.36V42.3208L35.7788 43.4503L36.36 44.264ZM36.36 46.44L36.6574 47.3948L37.36 47.1759V46.44H36.36ZM32.456 47.656L31.4831 47.4246L31.0768 49.133L32.7534 48.6108L32.456 47.656ZM35.272 35.816V34.816H34.4819L34.2991 35.5846L35.272 35.816ZM38.472 35.816L39.472 35.81L39.466 34.816H38.472V35.816ZM38.536 46.504L39.0407 47.3673L39.5394 47.0757L39.536 46.498L38.536 46.504ZM24.456 49.152C17.6848 49.152 11.9028 47.058 7.8202 43.1423C3.74472 39.2335 1.264 33.4151 1.264 25.768H-0.736C-0.736 33.8649 1.90328 40.2385 6.4358 44.5857C10.9612 48.926 17.2752 51.152 24.456 51.152V49.152ZM1.264 25.768C1.264 18.0622 3.82174 12.0928 7.94783 8.0503C12.0792 4.00265 17.8633 1.808 24.456 1.808V-0.192001C17.4167 -0.192001 11.1048 2.15735 6.54817 6.62169C1.98627 11.0912 -0.736 17.6018 -0.736 25.768H1.264ZM24.456 1.808C29.7738 1.808 33.5086 2.97237 37.5293 5.26106L38.5187 3.52293C34.2194 1.07562 30.1462 -0.192001 24.456 -0.192001V1.808ZM37.024 4.392V15.208H39.024V4.392H37.024ZM38.024 14.208H34.824V16.208H38.024V14.208ZM35.7965 14.9752L32.9165 2.94321L30.9715 3.40878L33.8515 15.4408L35.7965 14.9752ZM31.6278 4.12468L35.6598 5.46868L36.2922 3.57131L32.2602 2.22731L31.6278 4.12468ZM34.976 4.52V6.696H36.976V4.52H34.976ZM36.5615 5.88532C32.9557 3.28114 29.8103 2.176 25.672 2.176V4.176C29.3417 4.176 32.0843 5.11885 35.3905 7.50668L36.5615 5.88532ZM25.672 2.176C20.407 2.176 15.7782 4.19438 12.4845 8.18771C9.20702 12.1615 7.328 17.9953 7.328 25.512H9.328C9.328 18.3087 11.129 12.9745 14.0275 9.46028C16.9098 5.96562 20.953 4.176 25.672 4.176V2.176ZM7.328 25.512C7.328 33.1219 9.20567 38.9578 12.4777 42.9097C15.7665 46.8819 20.3809 48.848 25.608 48.848V46.848C20.9151 46.848 16.8895 45.1021 14.0183 41.6343C11.1303 38.1462 9.328 32.8141 9.328 25.512H7.328ZM25.608 48.848C29.665 48.848 33.1947 47.7538 36.9412 45.0777L35.7788 43.4503C32.3573 45.8942 29.231 46.848 25.608 46.848V48.848ZM35.36 44.264V46.44H37.36V44.264H35.36ZM36.0626 45.4852L32.1586 46.7012L32.7534 48.6108L36.6574 47.3948L36.0626 45.4852ZM33.4289 47.8874L36.2449 36.0474L34.2991 35.5846L31.4831 47.4246L33.4289 47.8874ZM35.272 36.816H38.472V34.816H35.272V36.816ZM37.472 35.822L37.536 46.51L39.536 46.498L39.472 35.81L37.472 35.822ZM38.0313 45.6407C34.0331 47.9781 29.7929 49.152 24.456 49.152V51.152C30.1271 51.152 34.7189 49.8939 39.0407 47.3673L38.0313 45.6407ZM60.121 30.376L60.3948 31.3378L60.4024 31.3356L60.41 31.3333L60.121 30.376ZM71.385 27.432H72.385V26.1571L71.1468 26.4608L71.385 27.432ZM71.385 29.032L71.6404 29.9988L72.385 29.8021V29.032H71.385ZM61.785 31.848L61.4471 30.9068L61.4345 30.9113L61.422 30.9162L61.785 31.848ZM69.465 40.36L70.434 40.113L69.9896 38.3696L68.7436 39.6675L69.465 40.36ZM70.297 43.624V44.624H71.5839L71.266 43.377L70.297 43.624ZM68.313 43.624V42.624H67.8706L67.5731 42.9513L68.313 43.624ZM67.737 42.856H66.737V42.9066L66.7421 42.9569L67.737 42.856ZM53.273 18.28L52.8529 17.3725L53.6883 19.1897L53.273 18.28ZM56.729 16.68L57.715 16.8465L58.031 14.9753L56.3089 15.7725L56.729 16.68ZM55.897 21.608L54.911 21.4415L54.9038 21.4839L54.9003 21.5266L55.897 21.608ZM48.729 23.208L47.7459 23.0251L47.7052 23.2437L47.761 23.459L48.729 23.208ZM80.025 45.16L80.6607 44.3881L79.8644 43.7323L79.2337 44.5486L80.025 45.16ZM81.113 46.056L81.9901 46.5363L82.3877 45.8103L81.7487 45.2841L81.113 46.056ZM56.793 49.024C54.3986 49.024 52.3967 48.3011 51.0062 47.0489C49.628 45.8079 48.769 43.9756 48.769 41.576H46.769C46.769 44.4884 47.83 46.8801 49.6678 48.5351C51.4933 50.1789 54.0034 51.024 56.793 51.024V49.024ZM48.769 41.576C48.769 39.1536 49.4678 37.29 51.1715 35.6989C52.932 34.0548 55.8348 32.6361 60.3948 31.3378L59.8472 29.4142C55.1912 30.7399 51.918 32.2652 49.8065 34.2371C47.6382 36.262 46.769 38.6864 46.769 41.576H48.769ZM60.41 31.3333C63.7709 30.3187 68.2209 29.2377 71.6232 28.4032L71.1468 26.4608C67.7651 27.2903 63.2551 28.3853 59.832 29.4187L60.41 31.3333ZM70.385 27.432V29.032H72.385V27.432H70.385ZM71.1296 28.0652C67.7427 28.9598 63.99 29.994 61.4471 30.9068L62.1229 32.7892C64.572 31.91 68.2433 30.8962 71.6404 29.9988L71.1296 28.0652ZM61.422 30.9162C58.8606 31.9142 56.8997 33.1817 55.5785 34.7995C54.2414 36.4367 53.617 38.3628 53.617 40.552H55.617C55.617 38.7732 56.1126 37.3073 57.1275 36.0645C58.1583 34.8023 59.7814 33.7018 62.148 32.7798L61.422 30.9162ZM53.617 40.552C53.617 42.6864 54.2146 44.438 55.4052 45.6583C56.5979 46.8808 58.2587 47.44 60.121 47.44V45.44C58.6553 45.44 57.5641 45.0072 56.8368 44.2617C56.1074 43.514 55.617 42.3216 55.617 40.552H53.617ZM60.121 47.44C62.9471 47.44 65.5773 45.8537 70.1864 41.0525L68.7436 39.6675C64.1367 44.4663 62.0309 45.44 60.121 45.44V47.44ZM68.496 40.607L69.328 43.871L71.266 43.377L70.434 40.113L68.496 40.607ZM70.297 42.624H68.313V44.624H70.297V42.624ZM67.5731 42.9513C65.6571 45.0589 64.1242 46.5623 62.4905 47.5529C60.8939 48.521 59.1566 49.024 56.793 49.024V51.024C59.4854 51.024 61.5881 50.439 63.5275 49.2631C65.4298 48.1097 67.1289 46.4131 69.0529 44.2967L67.5731 42.9513ZM74.393 48.96C72.5479 48.96 71.2874 48.375 70.4204 47.3996C69.5246 46.3919 68.9444 44.8495 68.7319 42.7551L66.7421 42.9569C66.9776 45.2785 67.6454 47.2881 68.9256 48.7284C70.2346 50.201 72.0781 50.96 74.393 50.96V48.96ZM68.737 42.856V25.256H66.737V42.856H68.737ZM68.737 25.256C68.737 21.7369 68.251 19.1977 66.9013 17.5568C65.499 15.8518 63.3824 15.36 60.825 15.36V17.36C63.1956 17.36 64.535 17.8282 65.3567 18.8272C66.231 19.8903 66.737 21.7991 66.737 25.256H68.737ZM60.825 15.36C58.3351 15.36 55.8867 15.9875 52.8577 17.3703L53.6883 19.1897C56.5473 17.8845 58.7069 17.36 60.825 17.36V15.36ZM53.6931 19.1875L57.1491 17.5875L56.3089 15.7725L52.8529 17.3725L53.6931 19.1875ZM55.743 16.5135L54.911 21.4415L56.883 21.7745L57.715 16.8465L55.743 16.5135ZM54.9003 21.5266C54.7837 22.9547 54.3877 23.7751 53.9453 24.2337C53.5183 24.6764 52.938 24.896 52.185 24.896V26.896C53.352 26.896 54.4997 26.5396 55.3847 25.6223C56.2543 24.7209 56.7543 23.3973 56.8937 21.6894L54.9003 21.5266ZM52.185 24.896C51.4717 24.896 50.9473 24.7076 50.5684 24.4118C50.1886 24.1152 49.8764 23.6492 49.697 22.957L47.761 23.459C48.0296 24.4948 48.5494 25.3728 49.3376 25.9882C50.1267 26.6044 51.1063 26.896 52.185 26.896V24.896ZM49.7121 23.3909C50.172 20.9192 51.5249 18.9318 53.7203 17.5407C55.9381 16.1353 59.0634 15.312 63.065 15.312V13.312C58.8106 13.312 55.2799 14.1847 52.6497 15.8513C49.9971 17.5322 48.31 19.9928 47.7459 23.0251L49.7121 23.3909ZM63.065 15.312C66.9767 15.312 69.5854 16.1689 71.235 17.8322C72.8867 19.4977 73.777 22.1733 73.777 26.28H75.777C75.777 21.9387 74.8433 18.6303 72.655 16.4238C70.4646 14.2151 67.2173 13.312 63.065 13.312V15.312ZM73.777 26.28V42.6H75.777V26.28H73.777ZM73.777 42.6C73.777 44.3301 73.9803 45.6642 74.5231 46.587C74.8097 47.0743 75.1929 47.4507 75.6749 47.695C76.1469 47.9342 76.6528 48.016 77.145 48.016V46.016C76.8692 46.016 76.6951 45.9698 76.5791 45.911C76.4731 45.8573 76.3603 45.7657 76.2469 45.573C75.9898 45.1358 75.777 44.2619 75.777 42.6H73.777ZM77.145 48.016C77.8267 48.016 78.4636 47.8603 79.095 47.4615C79.6949 47.0826 80.2431 46.5133 80.8163 45.7714L79.2337 44.5486C78.7189 45.2147 78.3391 45.5734 78.027 45.7705C77.7464 45.9477 77.4873 46.016 77.145 46.016V48.016ZM79.3893 45.9319L80.4773 46.8279L81.7487 45.2841L80.6607 44.3881L79.3893 45.9319ZM80.2359 45.5757C79.5681 46.7952 78.7897 47.6209 77.8755 48.1509C76.959 48.6821 75.8305 48.96 74.393 48.96V50.96C76.0915 50.96 77.587 50.6299 78.8785 49.8811C80.1723 49.1311 81.1859 48.0048 81.9901 46.5363L80.2359 45.5757ZM87.7845 47.208L86.7848 47.184L86.7698 47.8087L87.3246 48.096L87.7845 47.208ZM87.9765 39.208V38.208H87.0002L86.9768 39.184L87.9765 39.208ZM91.3045 39.208L92.2848 39.0105L92.1231 38.208H91.3045V39.208ZM93.0325 47.784L92.9399 48.7797L94.2783 48.9042L94.0128 47.5865L93.0325 47.784ZM90.2805 47.528H89.2805V48.4393L90.1879 48.5237L90.2805 47.528ZM90.2805 45.224L90.8305 44.3888L89.2805 43.3681V45.224H90.2805ZM100.329 35.624L99.9966 36.5673L100.015 36.5738L100.034 36.5795L100.329 35.624ZM96.8725 34.408L97.2044 33.4647L97.1966 33.4619L97.1887 33.4593L96.8725 34.408ZM111.592 17.128L112.592 17.1718L112.619 16.5442L112.066 16.247L111.592 17.128ZM111.273 24.424V25.424H112.23L112.272 24.4678L111.273 24.424ZM108.265 24.424L107.295 24.6702L107.487 25.424H108.265V24.424ZM106.217 16.36L106.471 15.3929L104.829 14.9609L105.247 16.6061L106.217 16.36ZM108.648 17H109.648V16.2291L108.903 16.0329L108.648 17ZM108.648 19.048L108.085 19.8738L109.648 20.9419V19.048H108.648ZM100.648 28.136L100.965 27.1872L100.953 27.1836L100.648 28.136ZM104.104 29.288L103.788 30.2367L103.791 30.2376L104.104 29.288ZM99.2405 49.024C94.9968 49.024 91.6975 48.1083 88.2444 46.32L87.3246 48.096C91.0395 50.0197 94.6522 51.024 99.2405 51.024V49.024ZM88.7842 47.232L88.9762 39.232L86.9768 39.184L86.7848 47.184L88.7842 47.232ZM87.9765 40.208H91.3045V38.208H87.9765V40.208ZM90.3242 39.4055L92.0522 47.9815L94.0128 47.5865L92.2848 39.0105L90.3242 39.4055ZM93.1251 46.7883L90.3731 46.5323L90.1879 48.5237L92.9399 48.7797L93.1251 46.7883ZM91.2805 47.528V45.224H89.2805V47.528H91.2805ZM89.7305 46.0592C92.5067 47.8874 95.0642 48.784 98.8565 48.784V46.784C95.4809 46.784 93.3023 46.0166 90.8305 44.3888L89.7305 46.0592ZM98.8565 48.784C101.628 48.784 103.897 48.2194 105.5 47.0576C107.146 45.8636 107.985 44.1121 107.985 42.024H105.985C105.985 43.5199 105.415 44.6484 104.325 45.4384C103.192 46.2606 101.397 46.784 98.8565 46.784V48.784ZM107.985 42.024C107.985 40.3589 107.557 38.8818 106.313 37.6184C105.121 36.4081 103.265 35.4839 100.623 34.6685L100.034 36.5795C102.576 37.3641 104.048 38.1679 104.888 39.0216C105.676 39.8222 105.985 40.7451 105.985 42.024H107.985ZM100.66 34.6807L97.2044 33.4647L96.5406 35.3513L99.9966 36.5673L100.66 34.6807ZM97.1887 33.4593C94.5883 32.5925 92.5833 31.4626 91.2348 30.0209C89.9099 28.6044 89.1685 26.835 89.1685 24.552H87.1685C87.1685 27.325 88.0911 29.5876 89.7742 31.3871C91.4337 33.1614 93.7807 34.4315 96.5563 35.3567L97.1887 33.4593ZM89.1685 24.552C89.1685 21.8923 90.2139 19.6202 92.1814 17.995C94.1653 16.3561 97.1672 15.312 101.16 15.312V13.312C96.8338 13.312 93.3397 14.4439 90.9076 16.453C88.4591 18.4757 87.1685 21.3237 87.1685 24.552H89.1685ZM101.16 15.312C104.99 15.312 107.772 16.2114 111.119 18.009L112.066 16.247C108.501 14.3326 105.395 13.312 101.16 13.312V15.312ZM110.593 17.0842L110.273 24.3802L112.272 24.4678L112.592 17.1718L110.593 17.0842ZM111.273 23.424H108.265V25.424H111.273V23.424ZM109.234 24.1778L107.186 16.1138L105.247 16.6061L107.295 24.6702L109.234 24.1778ZM105.962 17.3271L108.394 17.9671L108.903 16.0329L106.471 15.3929L105.962 17.3271ZM107.648 17V19.048H109.648V17H107.648ZM109.212 18.2222C106.475 16.3525 104.297 15.488 101.288 15.488V17.488C103.784 17.488 105.574 18.1595 108.085 19.8738L109.212 18.2222ZM101.288 15.488C98.8636 15.488 96.854 16.0851 95.431 17.2503C93.9851 18.4342 93.2485 20.1217 93.2485 22.056H95.2485C95.2485 20.6623 95.7599 19.5658 96.698 18.7977C97.659 18.0109 99.1694 17.488 101.288 17.488V15.488ZM93.2485 22.056C93.2485 23.6611 93.73 25.0672 94.9471 26.2648C96.1142 27.4132 97.8925 28.304 100.344 29.0884L100.953 27.1836C98.6045 26.432 97.1828 25.6588 96.3499 24.8392C95.567 24.0688 95.2485 23.2029 95.2485 22.056H93.2485ZM100.332 29.0847L103.788 30.2367L104.421 28.3393L100.965 27.1873L100.332 29.0847ZM103.791 30.2376C107.005 31.2985 109.123 32.5542 110.439 34.0264C111.728 35.4686 112.321 37.2016 112.321 39.4H114.321C114.321 36.7984 113.601 34.5634 111.93 32.6936C110.286 30.8538 107.796 29.4535 104.418 28.3384L103.791 30.2376ZM112.321 39.4C112.321 42.2795 111.199 44.6373 109.073 46.3002C106.918 47.9847 103.641 49.024 99.2405 49.024V51.024C103.928 51.024 107.691 49.9193 110.304 47.8758C112.946 45.8107 114.321 42.8565 114.321 39.4H112.321ZM152.059 31.912V32.912H152.807L153.018 32.1942L152.059 31.912ZM125.115 31.912H124.115V32.912H125.115V31.912ZM125.115 29.8V28.8H124.115V29.8H125.115ZM151.354 41.576L151.962 40.7816L151.189 40.1904L150.577 40.9473L151.354 41.576ZM152.443 42.408L153.31 42.9054L153.746 42.1456L153.05 41.6136L152.443 42.408ZM139.003 49.024C134.215 49.024 130.217 47.5543 127.419 44.7781C124.624 42.005 122.914 37.8187 122.914 32.168H120.914C120.914 38.2293 122.757 42.971 126.01 46.1979C129.26 49.4217 133.806 51.024 139.003 51.024V49.024ZM122.914 32.168C122.914 21.5178 130.277 15.312 138.555 15.312V13.312C129.168 13.312 120.914 20.4182 120.914 32.168H122.914ZM138.555 15.312C142.767 15.312 145.982 16.7301 148.146 18.981C150.316 21.239 151.507 24.4172 151.507 28.072H153.507C153.507 23.9828 152.169 20.281 149.587 17.595C146.999 14.9019 143.238 13.312 138.555 13.312V15.312ZM151.507 28.072C151.507 29.5564 151.382 30.6678 151.099 31.6298L153.018 32.1942C153.375 30.9802 153.507 29.6596 153.507 28.072H151.507ZM152.059 30.912H125.115V32.912H152.059V30.912ZM126.115 31.912V29.8H124.115V31.912H126.115ZM125.115 30.8H142.395V28.8H125.115V30.8ZM142.395 30.8C143.792 30.8 144.998 30.4555 145.772 29.3865C146.478 28.4121 146.659 27.0354 146.659 25.448H144.659C144.659 26.9966 144.455 27.7959 144.153 28.2135C143.919 28.5365 143.493 28.8 142.395 28.8V30.8ZM146.659 25.448C146.659 22.5065 145.915 20.0038 144.458 18.2161C142.981 16.4049 140.847 15.424 138.298 15.424V17.424C140.294 17.424 141.84 18.1711 142.907 19.4799C143.994 20.8122 144.659 22.8215 144.659 25.448H146.659ZM138.298 15.424C135.477 15.424 132.973 16.8889 131.217 19.6191C129.479 22.3216 128.466 26.2592 128.466 31.336H130.466C130.466 26.4928 131.438 22.9744 132.9 20.7009C134.344 18.4551 136.256 17.424 138.298 17.424V15.424ZM128.466 31.336C128.466 36.7285 129.748 40.7393 132.062 43.4143C134.394 46.1096 137.655 47.312 141.307 47.312V45.312C138.11 45.312 135.451 44.2744 133.575 42.1057C131.681 39.9167 130.466 36.4395 130.466 31.336H128.466ZM141.307 47.312C146.104 47.312 149.52 45.4355 152.132 42.2047L150.577 40.9473C148.325 43.7325 145.469 45.312 141.307 45.312V47.312ZM150.747 42.3704L151.835 43.2024L153.05 41.6136L151.962 40.7816L150.747 42.3704ZM151.575 41.9106C149.002 46.3984 144.726 49.024 139.003 49.024V51.024C145.439 51.024 150.379 48.0176 153.31 42.9054L151.575 41.9106ZM0.328 106.44L-0.671289 106.402L-0.692833 106.973L-0.211955 107.282L0.328 106.44ZM0.712 96.264V95.264H-0.250976L-0.287289 96.2263L0.712 96.264ZM3.784 96.264L4.75756 96.0356L4.57652 95.264H3.784V96.264ZM6.472 107.72L6.07206 108.637L7.90153 109.435L7.44556 107.492L6.472 107.72ZM2.952 106.184L1.97714 106.407L2.08958 106.899L2.55206 107.101L2.952 106.184ZM2.44 103.944L3.01767 103.128L0.882205 101.616L1.46514 104.167L2.44 103.944ZM16.264 89.288L16.6579 88.3688L16.653 88.3667L16.264 89.288ZM13.384 88.072L12.9874 88.99L12.995 88.9932L13.384 88.072ZM29.192 64.392L30.1912 64.432L30.2133 63.88L29.7578 63.5675L29.192 64.392ZM28.808 73.992V74.992H29.7688L29.8072 74.032L28.808 73.992ZM25.672 73.992L24.6983 74.2198L24.8789 74.992H25.672V73.992ZM23.112 63.048L23.527 62.1382L21.6745 61.2932L22.1383 63.2758L23.112 63.048ZM26.76 64.712L27.7464 64.5476L27.659 64.0229L27.175 63.8022L26.76 64.712ZM27.144 67.016L26.5211 67.7983L28.5586 69.4207L28.1304 66.8516L27.144 67.016ZM15.56 80.712L15.9609 79.7958L15.9481 79.7904L15.56 80.712ZM18.632 82.056L18.2312 82.9722L18.2366 82.9745L18.632 82.056ZM14.344 109.152C9.25736 109.152 4.07527 107.656 0.867955 105.598L-0.211955 107.282C3.36473 109.576 8.93464 111.152 14.344 111.152V109.152ZM1.32729 106.478L1.71129 96.3017L-0.287289 96.2263L-0.671289 106.402L1.32729 106.478ZM0.712 97.264H3.784V95.264H0.712V97.264ZM2.81044 96.4924L5.49844 107.948L7.44556 107.492L4.75756 96.0356L2.81044 96.4924ZM6.87194 106.803L3.35194 105.267L2.55206 107.101L6.07206 108.637L6.87194 106.803ZM3.92686 105.961L3.41486 103.721L1.46514 104.167L1.97714 106.407L3.92686 105.961ZM1.86233 104.76C3.99049 106.266 5.79542 107.254 7.67027 107.856C9.54815 108.459 11.4369 108.656 13.704 108.656V106.656C11.5551 106.656 9.89185 106.469 8.28173 105.952C6.66858 105.434 5.04951 104.566 3.01767 103.128L1.86233 104.76ZM13.704 108.656C17.1994 108.656 20.1672 107.859 22.2826 106.194C24.4321 104.502 25.584 102.004 25.584 98.888H23.584C23.584 101.468 22.6559 103.354 21.0454 104.622C19.4008 105.917 16.9286 106.656 13.704 106.656V108.656ZM25.584 98.888C25.584 96.4453 25.0257 94.4616 23.5318 92.7372C22.0821 91.0638 19.8276 89.7273 16.6579 88.3689L15.8701 90.2071C18.9724 91.5367 20.8779 92.7282 22.0202 94.0468C23.1183 95.3144 23.584 96.7867 23.584 98.888H25.584ZM16.653 88.3667L13.773 87.1507L12.995 88.9932L15.875 90.2093L16.653 88.3667ZM13.7806 87.154C9.83818 85.4509 6.95425 83.6351 5.0561 81.4689C3.18665 79.3356 2.224 76.8064 2.224 73.544H0.224C0.224 77.2576 1.34135 80.2644 3.5519 82.7871C5.73375 85.2769 8.92982 87.2371 12.9874 88.99L13.7806 87.154ZM2.224 73.544C2.224 69.7238 3.77765 66.8362 6.35703 64.8762C8.96746 62.8926 12.7021 61.808 17.096 61.808V59.808C12.4019 59.808 8.20054 60.9634 5.14697 63.2838C2.06235 65.6278 0.224 69.1082 0.224 73.544H2.224ZM17.096 61.808C21.8247 61.808 25.531 63.0923 28.6262 65.2165L29.7578 63.5675C26.3251 61.2116 22.2233 59.808 17.096 59.808V61.808ZM28.1928 64.352L27.8088 73.952L29.8072 74.032L30.1912 64.432L28.1928 64.352ZM28.808 72.992H25.672V74.992H28.808V72.992ZM26.6457 73.7642L24.0857 62.8202L22.1383 63.2758L24.6983 74.2198L26.6457 73.7642ZM22.697 63.9578L26.345 65.6218L27.175 63.8022L23.527 62.1382L22.697 63.9578ZM25.7736 64.8764L26.1576 67.1804L28.1304 66.8516L27.7464 64.5476L25.7736 64.8764ZM27.7669 66.2337C26.007 64.8323 24.4957 63.8369 22.918 63.2006C21.3249 62.558 19.7204 62.304 17.8 62.304V64.304C19.5276 64.304 20.8671 64.53 22.17 65.0554C23.4883 65.5871 24.825 66.4477 26.5211 67.7983L27.7669 66.2337ZM17.8 62.304C14.7416 62.304 12.0205 63.0419 10.0406 64.5878C8.02893 66.1585 6.88 68.4902 6.88 71.432H8.88C8.88 69.0618 9.77907 67.3295 11.2714 66.1642C12.7955 64.9741 15.0344 64.304 17.8 64.304V62.304ZM6.88 71.432C6.88 73.9954 7.66255 76.044 9.1477 77.7194C10.6041 79.3623 12.6828 80.5856 15.1719 81.6336L15.9481 79.7904C13.5732 78.7904 11.8119 77.7097 10.6443 76.3926C9.50546 75.108 8.88 73.5406 8.88 71.432H6.88ZM15.1592 81.6282L18.2312 82.9722L19.0328 81.1398L15.9608 79.7958L15.1592 81.6282ZM18.2366 82.9745C23.0353 85.0402 26.0811 86.9211 27.9375 89.0289C29.7482 91.0848 30.496 93.4377 30.496 96.648H32.496C32.496 93.0743 31.6438 90.2112 29.4385 87.7071C27.2789 85.2549 23.8927 83.2318 19.0274 81.1375L18.2366 82.9745ZM30.496 96.648C30.496 100.453 28.9927 103.535 26.2819 105.689C23.547 107.862 19.5005 109.152 14.344 109.152V111.152C19.8115 111.152 24.341 109.786 27.5261 107.255C30.7353 104.705 32.496 101.035 32.496 96.648H30.496ZM47.3195 77.768H46.3195V78.768H47.3195V77.768ZM47.3195 75.272V74.272H46.3195V75.272H47.3195ZM59.6075 75.272H60.6075V74.272H59.6075V75.272ZM59.6075 77.768V78.768H60.6075V77.768H59.6075ZM43.6715 77.768H44.6715V76.768H43.6715V77.768ZM37.7835 77.768H36.7835V78.768H37.7835V77.768ZM37.7835 75.784L37.6961 74.7878L36.7835 74.8679V75.784H37.7835ZM45.0795 75.144L45.6442 75.9693L48.7937 73.8143L44.9921 74.1478L45.0795 75.144ZM43.8635 75.976L42.8891 75.7511L42.3127 78.2487L44.4282 76.8013L43.8635 75.976ZM46.3595 65.16V64.16H45.564L45.3851 64.9351L46.3595 65.16ZM51.0955 65.16L52.0954 65.1772L52.1129 64.16H51.0955V65.16ZM50.9035 76.296L49.9036 76.2788L49.9035 76.2874V76.296H50.9035ZM59.8635 104.904L60.6133 104.242L60.0355 103.587L59.3088 104.072L59.8635 104.904ZM60.8235 105.992L61.6493 106.556L62.088 105.914L61.5733 105.33L60.8235 105.992ZM48.3195 77.768V75.272H46.3195V77.768H48.3195ZM47.3195 76.272H59.6075V74.272H47.3195V76.272ZM58.6075 75.272V77.768H60.6075V75.272H58.6075ZM59.6075 76.768H47.3195V78.768H59.6075V76.768ZM52.3115 109.024C49.5452 109.024 47.6786 108.355 46.4903 107.141C45.2975 105.922 44.6075 103.969 44.6075 101H42.6075C42.6075 104.239 43.3575 106.798 45.0607 108.539C46.7684 110.285 49.2538 111.024 52.3115 111.024V109.024ZM44.6075 101C44.6075 99.8894 44.6234 98.9533 44.6394 97.9764C44.6554 96.9999 44.6715 95.9848 44.6715 94.728H42.6715C42.6715 95.9672 42.6556 96.9681 42.6396 97.9436C42.6236 98.9187 42.6075 99.8706 42.6075 101H44.6075ZM44.6715 94.728V77.768H42.6715V94.728H44.6715ZM43.6715 76.768H37.7835V78.768H43.6715V76.768ZM38.7835 77.768V75.784H36.7835V77.768H38.7835ZM37.8709 76.7802L45.1669 76.1402L44.9921 74.1478L37.6961 74.7878L37.8709 76.7802ZM44.5148 74.3187L43.2988 75.1507L44.4282 76.8013L45.6442 75.9693L44.5148 74.3187ZM44.8379 76.2009L47.3339 65.3849L45.3851 64.9351L42.8891 75.7511L44.8379 76.2009ZM46.3595 66.16H51.0955V64.16H46.3595V66.16ZM50.0956 65.1428L49.9036 76.2788L51.9034 76.3132L52.0954 65.1772L50.0956 65.1428ZM49.9035 76.296V101.256H51.9035V76.296H49.9035ZM49.9035 101.256C49.9035 103.253 50.3052 104.872 51.2479 106.001C52.2209 107.166 53.6173 107.632 55.1915 107.632V105.632C54.0137 105.632 53.2661 105.298 52.7831 104.719C52.2698 104.104 51.9035 103.035 51.9035 101.256H49.9035ZM55.1915 107.632C57.2803 107.632 58.6348 106.925 60.4182 105.736L59.3088 104.072C57.6362 105.187 56.6867 105.632 55.1915 105.632V107.632ZM59.1137 105.566L60.0737 106.654L61.5733 105.33L60.6133 104.242L59.1137 105.566ZM59.9977 105.428C58.4233 107.733 55.9446 109.024 52.3115 109.024V111.024C56.4864 111.024 59.6397 109.499 61.6493 106.556L59.9977 105.428ZM70.995 97.032L71.9949 97.0453L71.995 97.0386L70.995 97.032ZM71.123 77.576L71.7182 76.7724L70.136 75.6004L70.123 77.5694L71.123 77.576ZM72.851 78.856L72.6897 79.8429L73.4462 78.0524L72.851 78.856ZM66.195 77.768H65.195V78.6178L66.0337 78.7549L66.195 77.768ZM66.195 76.104L66.0798 75.1107L65.195 75.2133V76.104H66.195ZM77.779 74.76L78.4547 74.0228L78.1178 73.714L77.6637 73.7667L77.779 74.76ZM78.547 75.464L79.5464 75.4999L79.563 75.0387L79.2227 74.7268L78.547 75.464ZM78.227 84.36L77.2276 84.3241L77.227 84.342V84.36H78.227ZM94.163 99.528L95.0036 98.9863L94.2137 97.7606L93.3549 98.939L94.163 99.528ZM96.019 102.408V103.408H97.8531L96.8596 101.866L96.019 102.408ZM93.587 102.408V101.408H93.0783L92.7788 101.819L93.587 102.408ZM93.139 109.768L92.1398 109.809L92.1813 110.829L93.2003 110.766L93.139 109.768ZM92.819 101.896H91.819V101.916L91.8198 101.937L92.819 101.896ZM92.819 101.768L91.819 101.76V101.768H92.819ZM93.011 78.472L94.011 78.4802L94.0183 77.5959L93.1415 77.4805L93.011 78.472ZM88.147 77.832H87.147V78.709L88.0165 78.8235L88.147 77.832ZM88.147 76.232L88.0196 75.2402L87.147 75.3523V76.232H88.147ZM99.603 74.76L100.31 74.0529L99.9628 73.7056L99.4756 73.7682L99.603 74.76ZM100.307 75.464L101.307 75.4928L101.319 75.0618L101.014 74.7569L100.307 75.464ZM100.051 84.36L99.0514 84.3312L99.051 84.3456V84.36H100.051ZM100.051 106.76H99.051V107.666L99.9529 107.755L100.051 106.76ZM104.595 107.208H105.595V106.302L104.693 106.213L104.595 107.208ZM104.595 109.064L104.656 110.062L105.595 110.004V109.064H104.595ZM80.723 109.024C77.8002 109.024 75.6754 108.232 74.2576 106.496C72.8039 104.715 71.9322 101.751 71.9949 97.0453L69.9951 97.0187C69.9298 101.913 70.8181 105.445 72.7084 107.76C74.6346 110.12 77.4378 111.024 80.723 111.024V109.024ZM71.995 97.0386L72.123 77.5826L70.123 77.5694L69.995 97.0254L71.995 97.0386ZM70.5278 78.3796L72.2558 79.6596L73.4462 78.0524L71.7182 76.7724L70.5278 78.3796ZM73.0123 77.8691L66.3563 76.7811L66.0337 78.7549L72.6897 79.8429L73.0123 77.8691ZM67.195 77.768V76.104H65.195V77.768H67.195ZM66.3102 77.0973L77.8942 75.7533L77.6637 73.7667L66.0798 75.1107L66.3102 77.0973ZM77.1033 75.4972L77.8713 76.2011L79.2227 74.7268L78.4547 74.0228L77.1033 75.4972ZM77.5476 75.428L77.2276 84.3241L79.2264 84.396L79.5464 75.4999L77.5476 75.428ZM77.227 84.36V97.48H79.227V84.36H77.227ZM77.227 97.48C77.227 100.633 77.7784 102.969 78.9896 104.526C80.2464 106.142 82.0618 106.736 84.115 106.736V104.736C82.4562 104.736 81.3276 104.274 80.5684 103.298C79.7636 102.263 79.227 100.471 79.227 97.48H77.227ZM84.115 106.736C88.3411 106.736 92.1239 104.024 94.9711 100.117L93.3549 98.939C90.6981 102.584 87.4409 104.736 84.115 104.736V106.736ZM93.3224 100.07L95.1784 102.95L96.8596 101.866L95.0036 98.9863L93.3224 100.07ZM96.019 101.408H93.587V103.408H96.019V101.408ZM92.7788 101.819C89.6157 106.161 85.6555 109.024 80.723 109.024V111.024C86.5425 111.024 91.0303 107.615 94.3952 102.997L92.7788 101.819ZM94.1382 109.727L93.8182 101.855L91.8198 101.937L92.1398 109.809L94.1382 109.727ZM93.819 101.896V101.768H91.819V101.896H93.819ZM93.819 101.776L94.011 78.4802L92.011 78.4638L91.819 101.76L93.819 101.776ZM93.1415 77.4805L88.2775 76.8405L88.0165 78.8235L92.8805 79.4635L93.1415 77.4805ZM89.147 77.832V76.232H87.147V77.832H89.147ZM88.2744 77.2238L99.7304 75.7518L99.4756 73.7682L88.0196 75.2402L88.2744 77.2238ZM98.8959 75.4671L99.5999 76.1711L101.014 74.7569L100.31 74.0529L98.8959 75.4671ZM99.3074 75.4352L99.0514 84.3312L101.051 84.3888L101.307 75.4928L99.3074 75.4352ZM99.051 84.36V106.76H101.051V84.36H99.051ZM99.9529 107.755L104.497 108.203L104.693 106.213L100.149 105.765L99.9529 107.755ZM103.595 107.208V109.064H105.595V107.208H103.595ZM104.534 108.066L93.0777 108.77L93.2003 110.766L104.656 110.062L104.534 108.066ZM138.644 80.456L137.825 81.0303L138.124 81.456H138.644V80.456ZM139.22 80.456L140.034 81.0372L141.163 79.456H139.22V80.456ZM138.26 81.8L137.521 82.4735L138.354 83.3884L139.074 82.3812L138.26 81.8ZM138.132 102.344L138.953 101.773L138.22 100.719L137.377 101.688L138.132 102.344ZM139.156 103.816V104.816H141.07L139.977 103.245L139.156 103.816ZM138.516 103.816V102.816H138.001L137.702 103.235L138.516 103.816ZM137.748 109.704L136.752 109.788L136.833 110.76L137.807 110.702L137.748 109.704ZM137.236 103.624H136.236V103.666L136.24 103.708L137.236 103.624ZM137.236 80.456L136.308 80.0846L136.236 80.2634V80.456H137.236ZM137.492 79.816L138.42 80.1874L138.492 80.0086V79.816H137.492ZM137.492 61.32H138.492V60.3866L137.561 60.3224L137.492 61.32ZM131.924 60.936H130.924V61.8694L131.855 61.9336L131.924 60.936ZM131.924 59.208L131.737 58.2256L130.924 58.3803V59.208H131.924ZM143.7 56.968L144.241 56.1268L143.905 55.911L143.513 55.9856L143.7 56.968ZM144.596 57.544L145.596 57.5633L145.607 57.0049L145.137 56.7028L144.596 57.544ZM144.404 67.464L143.404 67.4446L143.404 67.4543V67.464H144.404ZM144.404 106.824H143.404V107.766L144.344 107.822L144.404 106.824ZM149.716 107.144H150.716V106.202L149.776 106.146L149.716 107.144ZM149.716 109L149.775 109.998L150.716 109.943V109H149.716ZM127.252 109.024C123.383 109.024 120.064 107.455 117.697 104.644C115.319 101.82 113.852 97.6802 113.852 92.488H111.852C111.852 98.0478 113.425 102.676 116.167 105.932C118.92 109.201 122.801 111.024 127.252 111.024V109.024ZM113.852 92.488C113.852 81.6553 120.366 75.312 128.148 75.312V73.312C119.034 73.312 111.852 80.7927 111.852 92.488H113.852ZM128.148 75.312C131.795 75.312 134.968 76.9566 137.825 81.0303L139.463 79.8817C136.304 75.3794 132.565 73.312 128.148 73.312V75.312ZM138.644 81.456H139.22V79.456H138.644V81.456ZM138.406 79.8748L137.446 81.2188L139.074 82.3812L140.034 81.0372L138.406 79.8748ZM138.999 81.1265C136.243 78.1017 133.561 76.768 130.516 76.768V78.768C132.847 78.768 135.029 79.7383 137.521 82.4735L138.999 81.1265ZM130.516 76.768C127.538 76.768 124.732 77.8489 122.699 80.429C120.692 82.9752 119.532 86.8607 119.532 92.296H121.532C121.532 87.1073 122.644 83.7288 124.269 81.667C125.868 79.6391 128.054 78.768 130.516 78.768V76.768ZM119.532 92.296C119.532 97.4039 120.577 101.184 122.467 103.711C124.389 106.279 127.101 107.44 130.132 107.44V105.44C127.659 105.44 125.571 104.521 124.069 102.513C122.535 100.464 121.532 97.1721 121.532 92.296H119.532ZM130.132 107.44C133.484 107.44 136.175 106.118 138.887 103L137.377 101.688C134.969 104.458 132.796 105.44 130.132 105.44V107.44ZM137.311 102.915L138.335 104.387L139.977 103.245L138.953 101.773L137.311 102.915ZM139.156 102.816H138.516V104.816H139.156V102.816ZM137.702 103.235C134.982 107.044 131.427 109.024 127.252 109.024V111.024C132.165 111.024 136.29 108.652 139.33 104.397L137.702 103.235ZM138.744 109.62L138.232 103.54L136.24 103.708L136.752 109.788L138.744 109.62ZM138.236 103.624V80.456H136.236V103.624H138.236ZM138.164 80.8274L138.42 80.1874L136.564 79.4446L136.308 80.0846L138.164 80.8274ZM138.492 79.816V61.32H136.492V79.816H138.492ZM137.561 60.3224L131.993 59.9384L131.855 61.9336L137.423 62.3176L137.561 60.3224ZM132.924 60.936V59.208H130.924V60.936H132.924ZM132.111 60.1904L143.887 57.9504L143.513 55.9856L131.737 58.2256L132.111 60.1904ZM143.159 57.8092L144.055 58.3852L145.137 56.7028L144.241 56.1268L143.159 57.8092ZM143.596 57.5247L143.404 67.4446L145.404 67.4833L145.596 57.5633L143.596 57.5247ZM143.404 67.464V106.824H145.404V67.464H143.404ZM144.344 107.822L149.656 108.142L149.776 106.146L144.464 105.826L144.344 107.822ZM148.716 107.144V109H150.716V107.144H148.716ZM149.657 108.002L137.689 108.706L137.807 110.702L149.775 109.998L149.657 108.002ZM157.235 109H156.235V110H157.235V109ZM157.235 107.144L157.143 106.148L156.235 106.232V107.144H157.235ZM164.147 106.504V105.504H164.101L164.055 105.508L164.147 106.504ZM167.283 106.504L167.376 105.508L167.33 105.504H167.283V106.504ZM174.131 107.144H175.131V106.233L174.224 106.148L174.131 107.144ZM174.131 109V110H175.131V109H174.131ZM162.099 109L161.1 108.959L161.057 110H162.099V109ZM162.099 79.368L163.098 79.3272L163.061 78.4242L162.159 78.3698L162.099 79.368ZM156.787 79.048H155.787V79.9896L156.727 80.0462L156.787 79.048ZM156.787 77.448L156.546 76.4776L155.787 76.6662V77.448H156.787ZM168.883 74.44L169.407 73.5883L169.049 73.3682L168.642 73.4696L168.883 74.44ZM169.715 74.952L170.715 74.9723L170.726 74.4002L170.239 74.1003L169.715 74.952ZM169.523 84.424L168.523 84.4037L168.523 84.4139V84.424H169.523ZM169.715 109V110H170.757L170.714 108.959L169.715 109ZM158.235 109V107.144H156.235V109H158.235ZM157.327 108.14L164.239 107.5L164.055 105.508L157.143 106.148L157.327 108.14ZM164.147 107.504H167.283V105.504H164.147V107.504ZM167.19 107.5L174.038 108.14L174.224 106.148L167.376 105.508L167.19 107.5ZM173.131 107.144V109H175.131V107.144H173.131ZM174.131 108H157.235V110H174.131V108ZM163.098 109.041C163.227 105.887 163.355 98.5772 163.355 94.152H161.355C161.355 98.5588 161.227 105.841 161.1 108.959L163.098 109.041ZM163.355 94.152V89.864H161.355V94.152H163.355ZM163.355 89.864C163.355 85.5539 163.226 82.4642 163.098 79.3272L161.1 79.4088C161.228 82.5438 161.355 85.5981 161.355 89.864H163.355ZM162.159 78.3698L156.847 78.0498L156.727 80.0462L162.039 80.3662L162.159 78.3698ZM157.787 79.048V77.448H155.787V79.048H157.787ZM157.028 78.4184L169.124 75.4104L168.642 73.4696L156.546 76.4776L157.028 78.4184ZM168.359 75.2917L169.191 75.8037L170.239 74.1003L169.407 73.5883L168.359 75.2917ZM168.715 74.9317L168.523 84.4037L170.523 84.4443L170.715 74.9723L168.715 74.9317ZM168.523 84.424V94.152H170.523V84.424H168.523ZM168.523 94.152C168.523 98.5673 168.587 105.882 168.716 109.041L170.714 108.959C170.587 105.846 170.523 98.5687 170.523 94.152H168.523ZM169.715 108H162.099V110H169.715V108ZM165.491 66.08C163.615 66.08 162.139 64.7417 162.139 62.856H160.139C160.139 65.9623 162.631 68.08 165.491 68.08V66.08ZM162.139 62.856C162.139 61.0245 163.626 59.632 165.491 59.632V57.632C162.62 57.632 160.139 59.8235 160.139 62.856H162.139ZM165.491 59.632C167.43 59.632 168.907 61.0337 168.907 62.856H170.907C170.907 59.8143 168.416 57.632 165.491 57.632V59.632ZM168.907 62.856C168.907 64.7326 167.44 66.08 165.491 66.08V68.08C168.406 68.08 170.907 65.9714 170.907 62.856H168.907ZM212.646 91.912V92.912H213.394L213.605 92.1942L212.646 91.912ZM185.702 91.912H184.702V92.912H185.702V91.912ZM185.702 89.8V88.8H184.702V89.8H185.702ZM211.942 101.576L212.549 100.782L211.776 100.19L211.164 100.947L211.942 101.576ZM213.03 102.408L213.898 102.905L214.333 102.146L213.637 101.614L213.03 102.408ZM199.59 109.024C194.803 109.024 190.805 107.554 188.006 104.778C185.211 102.005 183.502 97.8187 183.502 92.168H181.502C181.502 98.2292 183.345 102.971 186.598 106.198C189.847 109.422 194.393 111.024 199.59 111.024V109.024ZM183.502 92.168C183.502 81.5178 190.865 75.312 199.142 75.312V73.312C189.755 73.312 181.502 80.4182 181.502 92.168H183.502ZM199.142 75.312C203.355 75.312 206.57 76.7301 208.733 78.981C210.903 81.239 212.094 84.4172 212.094 88.072H214.094C214.094 83.9828 212.757 80.281 210.175 77.595C207.586 74.9019 203.825 73.312 199.142 73.312V75.312ZM212.094 88.072C212.094 89.5564 211.97 90.6678 211.687 91.6298L213.605 92.1942C213.962 90.9802 214.094 89.6596 214.094 88.072H212.094ZM212.646 90.912H185.702V92.912H212.646V90.912ZM186.702 91.912V89.8H184.702V91.912H186.702ZM185.702 90.8H202.982V88.8H185.702V90.8ZM202.982 90.8C204.379 90.8 205.586 90.4555 206.36 89.3865C207.066 88.4121 207.246 87.0354 207.246 85.448H205.246C205.246 86.9966 205.042 87.7959 204.74 88.2135C204.506 88.5365 204.081 88.8 202.982 88.8V90.8ZM207.246 85.448C207.246 82.5065 206.503 80.0038 205.045 78.2161C203.568 76.4049 201.434 75.424 198.886 75.424V77.424C200.882 77.424 202.428 78.1711 203.495 79.4799C204.581 80.8122 205.246 82.8215 205.246 85.448H207.246ZM198.886 75.424C196.065 75.424 193.561 76.8889 191.805 79.6191C190.067 82.3216 189.054 86.2592 189.054 91.336H191.054C191.054 86.4928 192.025 82.9744 193.487 80.7009C194.931 78.4551 196.843 77.424 198.886 77.424V75.424ZM189.054 91.336C189.054 96.7285 190.336 100.739 192.65 103.414C194.982 106.11 198.243 107.312 201.894 107.312V105.312C198.697 105.312 196.038 104.274 194.162 102.106C192.268 99.9167 191.054 96.4395 191.054 91.336H189.054ZM201.894 107.312C206.691 107.312 210.108 105.435 212.72 102.205L211.164 100.947C208.912 103.733 206.057 105.312 201.894 105.312V107.312ZM211.335 102.37L212.423 103.202L213.637 101.614L212.549 100.782L211.335 102.37ZM212.162 101.911C209.589 106.398 205.313 109.024 199.59 109.024V111.024C206.027 111.024 210.967 108.018 213.898 102.905L212.162 101.911ZM221.96 107.208L220.96 107.184L220.945 107.809L221.5 108.096L221.96 107.208ZM222.152 99.208V98.208H221.175L221.152 99.184L222.152 99.208ZM225.479 99.208L226.46 99.0105L226.298 98.208H225.479V99.208ZM227.208 107.784L227.115 108.78L228.453 108.904L228.188 107.586L227.208 107.784ZM224.455 107.528H223.455V108.439L224.363 108.524L224.455 107.528ZM224.455 105.224L225.005 104.389L223.455 103.368V105.224H224.455ZM234.503 95.624L234.172 96.5673L234.19 96.5738L234.209 96.5795L234.503 95.624ZM231.048 94.408L231.379 93.4647L231.372 93.4619L231.364 93.4593L231.048 94.408ZM245.768 77.128L246.767 77.1718L246.794 76.5442L246.241 76.247L245.768 77.128ZM245.447 84.424V85.424H246.405L246.447 84.4678L245.447 84.424ZM242.439 84.424L241.47 84.6702L241.662 85.424H242.439V84.424ZM240.391 76.36L240.646 75.3929L239.004 74.9609L239.422 76.6061L240.391 76.36ZM242.824 77H243.824V76.2291L243.078 76.0329L242.824 77ZM242.824 79.048L242.26 79.8738L243.824 80.9419V79.048H242.824ZM234.824 88.136L235.14 87.1872L235.128 87.1836L234.824 88.136ZM238.279 89.288L237.963 90.2367L237.966 90.2376L238.279 89.288ZM233.415 109.024C229.172 109.024 225.873 108.108 222.419 106.32L221.5 108.096C225.214 110.02 228.827 111.024 233.415 111.024V109.024ZM222.959 107.232L223.151 99.232L221.152 99.184L220.96 107.184L222.959 107.232ZM222.152 100.208H225.479V98.208H222.152V100.208ZM224.499 99.4055L226.227 107.982L228.188 107.586L226.46 99.0105L224.499 99.4055ZM227.3 106.788L224.548 106.532L224.363 108.524L227.115 108.78L227.3 106.788ZM225.455 107.528V105.224H223.455V107.528H225.455ZM223.906 106.059C226.682 107.887 229.239 108.784 233.031 108.784V106.784C229.656 106.784 227.477 106.017 225.005 104.389L223.906 106.059ZM233.031 108.784C235.803 108.784 238.072 108.219 239.675 107.058C241.321 105.864 242.16 104.112 242.16 102.024H240.16C240.16 103.52 239.59 104.648 238.5 105.438C237.367 106.261 235.572 106.784 233.031 106.784V108.784ZM242.16 102.024C242.16 100.359 241.732 98.8818 240.488 97.6184C239.296 96.4081 237.44 95.4839 234.798 94.6685L234.209 96.5795C236.751 97.3641 238.223 98.1679 239.063 99.0216C239.851 99.8222 240.16 100.745 240.16 102.024H242.16ZM234.835 94.6807L231.379 93.4647L230.716 95.3513L234.172 96.5673L234.835 94.6807ZM231.364 93.4593C228.763 92.5925 226.758 91.4626 225.41 90.0209C224.085 88.6044 223.343 86.835 223.343 84.552H221.343C221.343 87.325 222.266 89.5876 223.949 91.3871C225.609 93.1614 227.956 94.4315 230.731 95.3567L231.364 93.4593ZM223.343 84.552C223.343 81.8923 224.389 79.6202 226.356 77.995C228.34 76.3561 231.342 75.312 235.335 75.312V73.312C231.009 73.312 227.515 74.4439 225.083 76.453C222.634 78.4758 221.343 81.3237 221.343 84.552H223.343ZM235.335 75.312C239.165 75.312 241.947 76.2114 245.294 78.009L246.241 76.247C242.676 74.3326 239.57 73.312 235.335 73.312V75.312ZM244.768 77.0842L244.448 84.3802L246.447 84.4678L246.767 77.1718L244.768 77.0842ZM245.447 83.424H242.439V85.424H245.447V83.424ZM243.409 84.1778L241.361 76.1138L239.422 76.6061L241.47 84.6702L243.409 84.1778ZM240.137 77.3271L242.569 77.9671L243.078 76.0329L240.646 75.3929L240.137 77.3271ZM241.824 77V79.048H243.824V77H241.824ZM243.387 78.2222C240.65 76.3525 238.472 75.488 235.464 75.488V77.488C237.959 77.488 239.749 78.1595 242.26 79.8738L243.387 78.2222ZM235.464 75.488C233.039 75.488 231.029 76.0851 229.606 77.2503C228.16 78.4342 227.423 80.1217 227.423 82.056H229.423C229.423 80.6623 229.935 79.5658 230.873 78.7977C231.834 78.0109 233.344 77.488 235.464 77.488V75.488ZM227.423 82.056C227.423 83.6611 227.905 85.0672 229.122 86.2648C230.289 87.4132 232.067 88.304 234.519 89.0884L235.128 87.1836C232.78 86.432 231.358 85.6588 230.525 84.8392C229.742 84.0688 229.423 83.2029 229.423 82.056H227.423ZM234.507 89.0847L237.963 90.2367L238.596 88.3393L235.14 87.1873L234.507 89.0847ZM237.966 90.2376C241.18 91.2985 243.298 92.5542 244.614 94.0264C245.903 95.4686 246.495 97.2016 246.495 99.4H248.495C248.495 96.7984 247.776 94.5634 246.105 92.6936C244.461 90.8538 241.971 89.4535 238.593 88.3384L237.966 90.2376ZM246.495 99.4C246.495 102.28 245.374 104.637 243.248 106.3C241.093 107.985 237.816 109.024 233.415 109.024V111.024C238.103 111.024 241.866 109.919 244.479 107.876C247.121 105.811 248.495 102.856 248.495 99.4H246.495Z" fill="#BDBDBD" mask="url(#path-1-outside-1_846_1822)"/>
</svg>
