<svg width="109" height="109" viewBox="0 0 109 109" fill="none" xmlns="http://www.w3.org/2000/svg">
<g id="Frame" clip-path="url(#clip0_2008_22162)">
<path id="Vector" d="M0.105179 102.017L0.210282 102.369C0.270341 102.548 0.292863 102.571 0.337906 102.683C0.435502 102.9 0.585648 103.146 0.713273 103.318C1.26882 104.066 2.0571 104.499 2.81535 104.701C3.58862 104.896 4.35437 104.851 5.00001 104.582C5.61562 104.335 6.1036 103.894 6.4114 103.468C7.04202 102.586 7.13211 101.726 7.08707 101.188C7.03452 100.642 6.90688 100.38 6.90688 100.38L6.74172 100.425C6.74172 100.425 6.8093 100.694 6.76425 101.188C6.71921 101.666 6.50899 102.406 5.88587 103.027C5.27778 103.655 4.23425 104.073 3.1607 103.632C2.09464 103.221 1.22379 102.1 1.55411 100.791C1.69676 100.148 2.07211 99.498 2.61265 98.9896C2.75529 98.855 2.87541 98.7578 3.02556 98.6457C3.10063 98.5934 3.24327 98.4812 3.2733 98.4737C3.35588 98.4214 3.43847 98.3691 3.52105 98.3168C3.86639 98.1224 4.24176 97.9579 4.64716 97.8233C6.25375 97.3075 8.27324 97.1954 10.2927 97.0832C12.3197 96.9935 14.4293 97.0832 16.5539 97.3374C18.6785 97.5841 20.8331 97.9878 22.9577 98.541C25.0673 99.1242 27.1544 99.8942 29.0612 100.926C29.4516 101.135 29.842 101.359 30.2249 101.591C30.1273 101.644 30.0297 101.711 29.9321 101.763C29.0762 102.204 28.2504 102.66 27.3946 103.012L27.0793 103.154L26.7715 103.273L26.1108 103.528C25.6829 103.685 25.2925 103.812 24.8796 103.946C23.2055 104.44 21.5688 104.724 20.0448 104.798C18.5208 104.896 17.1095 104.776 15.8857 104.567C14.647 104.365 13.611 103.999 12.7777 103.647C12.3573 103.483 11.9894 103.303 11.6816 103.131C11.3663 102.974 11.1035 102.817 10.9008 102.683C10.4804 102.421 10.2552 102.279 10.2552 102.279L10.1426 102.414C10.1426 102.414 10.3378 102.6 10.6981 102.944C10.8783 103.124 11.1185 103.318 11.4188 103.542C11.7041 103.774 12.057 104.021 12.4624 104.268C14.069 105.284 16.7416 106.294 20.0824 106.353C21.7415 106.376 23.5508 106.189 25.3901 105.688C25.8481 105.561 26.3436 105.411 26.794 105.262L27.4547 105.008L27.815 104.866L28.1528 104.716C29.0687 104.327 29.9621 103.849 30.848 103.326C31.1933 103.109 31.5462 102.885 31.884 102.653C32.7324 103.243 33.5432 103.886 34.3765 104.477C36.0732 105.688 37.9725 106.795 40.0521 107.056C41.0806 107.198 42.1316 107.138 43.1151 106.854C43.3854 106.772 43.6181 106.682 43.8058 106.6C44.061 106.488 44.2787 106.383 44.4965 106.249C44.9319 105.995 45.3073 105.681 45.6376 105.344C46.9514 103.999 47.4919 102.055 46.9514 100.545C46.7036 99.7447 46.1706 99.169 45.6226 98.8027C45.0745 98.4289 44.4965 98.227 43.9634 98.1523C42.8974 97.9878 42.049 98.3242 41.6136 98.6607C41.1557 99.0419 41.0731 99.2812 41.0506 99.2737L41.1782 99.3933C41.1782 99.3933 41.3884 99.1541 41.8013 98.9522C42.2292 98.7429 42.965 98.5859 43.8058 98.8625C44.6166 99.1167 45.6076 99.797 45.8328 100.851C46.1106 101.95 45.6451 103.318 44.5941 104.298C43.5881 105.314 41.959 105.711 40.2323 105.539C38.4905 105.389 36.6662 104.701 34.8795 103.677C34.0762 103.236 33.2729 102.743 32.4546 102.257C33.6332 101.442 34.7894 100.545 35.878 99.5727C37.4695 98.1598 38.941 96.6048 40.3449 94.9974C41.7037 93.4947 42.9574 91.9098 44.3989 90.5791C44.4064 90.8856 44.4064 91.1996 44.4364 91.5061C44.5265 92.4631 44.7292 93.405 44.9995 94.3321C45.2922 95.2217 45.6826 96.216 46.1331 96.9786C47.109 98.6756 48.3853 100.133 49.8718 101.33C51.3432 102.548 53.0174 103.483 54.7516 104.193C56.4783 104.918 58.3101 105.404 60.1419 105.636C61.9887 105.882 63.8656 105.905 65.6899 105.666C65.9001 105.748 66.1028 105.838 66.313 105.912C67.7094 106.368 69.1508 106.608 70.5997 106.667C73.5051 106.787 76.3279 106.174 79.023 105.397C81.7182 104.589 84.2857 103.58 86.8682 102.743C88.1595 102.324 89.4508 101.95 90.7646 101.681C91.4177 101.546 92.0709 101.434 92.7315 101.359C93.3847 101.277 94.0153 101.24 94.7285 101.225C96.0123 101.21 97.3711 101.345 98.6774 101.561C99.0978 101.636 99.5182 101.726 99.9386 101.823C100.044 102.047 100.141 102.264 100.216 102.496C100.427 103.184 100.502 103.886 100.389 104.537C100.269 105.187 99.9987 105.808 99.6158 106.279C98.9176 107.213 97.5288 107.565 96.5603 107.213C95.5618 106.922 95.0288 105.89 95.0363 104.993C95.0513 104.537 95.1789 104.163 95.4492 103.827C95.6594 103.572 96.0123 103.333 96.3351 103.221C97.0032 102.974 97.6264 103.079 97.9792 103.243C98.3471 103.4 98.5047 103.572 98.5047 103.572L98.6399 103.46C98.6399 103.46 98.6023 103.415 98.5272 103.318C98.4522 103.228 98.3321 103.094 98.1444 102.959C97.7765 102.683 97.0708 102.414 96.1624 102.556C95.7045 102.63 95.2315 102.81 94.7585 103.243C94.3606 103.61 94.0153 104.223 93.9102 104.881C93.8126 105.546 93.8727 106.286 94.218 106.981C94.5483 107.677 95.1865 108.327 95.9822 108.664C97.5288 109.344 99.6308 109.022 100.967 107.467C101.831 106.525 102.266 105.217 102.258 103.901C102.664 104.754 103.137 105.583 103.737 106.339C104.616 107.452 105.885 108.424 107.431 108.656L107.949 108.731L107.972 108.178C108.024 106.697 107.514 105.157 106.545 104.006C105.794 103.086 104.856 102.384 103.85 101.823C105.186 101.838 106.508 101.404 107.461 100.537C109.023 99.2139 109.345 97.1206 108.662 95.5432C108.324 94.7582 107.671 94.1153 106.973 93.7863C106.275 93.4424 105.532 93.3826 104.863 93.4798C104.203 93.5845 103.587 93.9284 103.219 94.3246C102.784 94.7956 102.604 95.2666 102.529 95.7226C102.394 96.6272 102.656 97.3225 102.934 97.6963C103.069 97.8832 103.204 98.0102 103.294 98.0775C103.385 98.1523 103.437 98.1897 103.437 98.1897L103.55 98.0551C103.55 98.0551 103.377 97.8981 103.219 97.5318C103.054 97.1804 102.957 96.5599 103.197 95.8945C103.309 95.5731 103.55 95.2217 103.805 95.0124C104.143 94.7432 104.526 94.6161 104.976 94.6012C105.877 94.5937 106.913 95.117 107.206 96.1188C107.566 97.0832 107.206 98.4663 106.267 99.1615C105.787 99.5428 105.171 99.812 104.518 99.9316C103.865 100.044 103.159 99.9764 102.469 99.7596C102.056 99.6325 101.65 99.4307 101.26 99.184C101.207 98.9522 101.132 98.7205 101.087 98.4887C100.809 97.143 100.667 95.8048 100.652 94.4292C100.652 91.7155 101.358 89.0391 102.266 86.4748C103.159 83.8881 104.263 81.3687 105.149 78.7072C106.02 76.0607 106.65 73.2498 106.59 70.364C106.56 69.6388 106.515 68.9361 106.388 68.196C106.335 67.8222 106.26 67.4708 106.185 67.1419L106.125 66.8877L106.05 66.6036L105.892 66.0803C105.817 65.856 105.727 65.6392 105.637 65.4149C105.877 63.5833 105.854 61.7068 105.607 59.8602C105.374 58.0361 104.886 56.212 104.158 54.4925C103.445 52.7655 102.506 51.0984 101.282 49.6331C100.081 48.1528 98.6173 46.8819 96.9132 45.91C96.1399 45.4615 95.1414 45.0727 94.2555 44.7812C93.3246 44.512 92.3787 44.3102 91.4177 44.2205C91.1099 44.1906 90.8021 44.1906 90.4868 44.1831C91.8306 42.7477 93.4147 41.4992 94.9237 40.1461C96.5378 38.748 98.0993 37.2827 99.5182 35.6978C100.494 34.6138 101.395 33.4625 102.213 32.2888C102.709 33.1037 103.197 33.9036 103.64 34.7035C104.661 36.4828 105.359 38.2995 105.509 40.0339C105.682 41.7534 105.276 43.3682 104.263 44.3775C103.279 45.4241 101.906 45.8876 100.802 45.611C99.7435 45.3867 99.0603 44.3999 98.805 43.5925C98.5273 42.7477 98.6849 42.0225 98.8951 41.5964C99.0978 41.1852 99.3606 40.9834 99.3381 40.9759L99.2179 40.8488C99.2179 40.8488 98.9777 40.9535 98.5948 41.4095C98.2645 41.8506 97.9267 42.6879 98.0843 43.7495C98.1594 44.2803 98.3621 44.8559 98.7375 45.4017C99.1053 45.9474 99.6909 46.4782 100.487 46.7249C101.996 47.2707 103.948 46.7249 105.306 45.4166C105.644 45.0877 105.96 44.7064 106.215 44.2803C106.35 44.0635 106.455 43.8467 106.568 43.5925C106.65 43.4056 106.74 43.1664 106.823 42.9047C107.116 41.9253 107.168 40.8787 107.026 39.8545C106.763 37.7836 105.652 35.8922 104.436 34.2026C103.842 33.3653 103.189 32.5654 102.604 31.7206C102.837 31.3767 103.062 31.0328 103.279 30.6889C103.805 29.8068 104.285 28.9171 104.676 28.005L104.826 27.6686L104.969 27.3098L105.224 26.6519C105.374 26.1958 105.524 25.7099 105.652 25.2539C106.147 23.4223 106.342 21.6205 106.32 19.9683C106.26 16.649 105.246 13.9801 104.225 12.3802C103.978 11.969 103.737 11.6251 103.497 11.341C103.279 11.0495 103.084 10.8028 102.897 10.6234C102.544 10.2645 102.364 10.0701 102.364 10.0701L102.228 10.1823C102.228 10.1823 102.371 10.4065 102.634 10.8252C102.776 11.027 102.927 11.2887 103.084 11.6027C103.264 11.9092 103.437 12.2755 103.602 12.6942C103.955 13.524 104.323 14.5557 104.526 15.7893C104.736 17.0153 104.848 18.4133 104.758 19.931C104.676 21.4486 104.391 23.0784 103.903 24.7455C103.767 25.1567 103.64 25.5454 103.482 25.9716L103.227 26.6295L103.107 26.936L102.964 27.25C102.611 28.0947 102.153 28.9246 101.71 29.7768C101.658 29.874 101.59 29.9712 101.538 30.0684C101.305 29.6871 101.08 29.2984 100.87 28.9096C99.8335 27.0107 99.0678 24.9399 98.4747 22.8316C97.9192 20.7159 97.5138 18.5703 97.266 16.4546C97.0108 14.3389 96.9207 12.2382 97.0108 10.2196C97.1234 8.2086 97.2285 6.19757 97.7465 4.5977C97.8816 4.194 98.0468 3.8202 98.242 3.4763C98.287 3.3866 98.3471 3.31182 98.3996 3.22211C98.4146 3.19221 98.5197 3.05764 98.5723 2.9754C98.6849 2.82588 98.7825 2.71374 98.9176 2.5717C99.4356 2.04091 100.081 1.65963 100.727 1.51759C102.041 1.18864 103.159 2.05585 103.58 3.11745C104.015 4.18652 103.602 5.23316 102.972 5.83124C102.349 6.45174 101.605 6.66107 101.125 6.70592C100.629 6.75826 100.359 6.6835 100.359 6.6835L100.314 6.84798C100.314 6.84798 100.577 6.97507 101.125 7.0274C101.665 7.07226 102.536 6.98254 103.415 6.35455C103.842 6.04804 104.285 5.56959 104.533 4.94907C104.803 4.30614 104.848 3.53611 104.653 2.77356C104.451 2.01849 104.015 1.2335 103.264 0.680282C103.092 0.545707 102.844 0.403663 102.626 0.30648C102.514 0.261627 102.491 0.239196 102.311 0.179389L101.958 0.0747217C101.478 -0.0374152 100.967 -0.0598457 100.472 0.0149147C99.4732 0.156959 98.5273 0.627944 97.7465 1.33069C96.9132 2.07828 96.4252 2.98289 96.0348 3.98466C95.6594 4.97897 95.4792 6.01066 95.3741 7.04234C95.2841 8.05908 95.194 9.10573 95.209 10.1673C95.209 12.2905 95.3666 14.481 95.7495 16.6714C96.1324 18.8619 96.748 21.0374 97.5738 23.1232C98.3771 25.2165 99.3756 27.2201 100.404 29.1563C100.667 29.6498 100.937 30.1357 101.215 30.6067C100.382 31.9972 99.4131 33.3653 98.3396 34.6961C97.0708 36.3034 95.6744 37.8808 94.2555 39.4508C92.8291 41.0058 91.2976 42.486 89.8712 44.0336C89.8337 44.0709 89.8036 44.1158 89.7661 44.1532C86.4629 44.2354 83.1746 45.4989 80.9524 47.9061C79.6611 49.2742 78.7527 50.8816 78.1221 52.5412C77.4915 54.186 77.1537 55.9428 77.2062 57.6623C77.2588 59.3743 77.7092 61.0938 78.6101 62.4918C79.4885 63.8898 80.7272 65.0037 82.1461 65.6392C83.5575 66.2971 85.1791 66.3793 86.5229 66.013C87.8893 65.6691 89.0604 64.8692 89.8187 63.8599C90.5844 62.8432 90.8847 61.6395 90.8322 60.5779C90.7871 59.5089 90.4117 58.5594 89.8712 57.8642C88.7526 56.4587 87.2887 56.1447 86.4178 56.1222C85.9674 56.1222 85.622 56.1821 85.3968 56.2344C85.1716 56.3017 85.059 56.3316 85.059 56.3316L85.104 56.496C85.104 56.496 85.2166 56.4811 85.4343 56.4437C85.6521 56.4213 85.9749 56.3989 86.3953 56.4437C87.1986 56.5409 88.4898 56.982 89.3082 58.2529C90.0964 59.464 90.2916 61.6171 88.9478 63.1497C87.6715 64.6449 84.9914 65.4074 82.8067 64.2636C80.5846 63.1572 79.023 60.5107 79.0305 57.6174C79.0305 54.7242 80.1792 51.517 82.2887 49.1172C83.7902 47.3978 85.9974 46.3063 88.3772 45.8951C87.619 46.9567 86.9658 48.093 86.5905 49.3415C85.9899 51.3077 86.0349 53.6477 87.3637 55.3672C88.625 57.0194 90.6745 57.924 92.6264 57.5427C92.9117 57.4978 93.0468 57.4231 93.2495 57.3707C93.5348 57.2661 93.7 57.1838 93.9102 57.0642C94.3006 56.8399 94.6459 56.5559 94.9312 56.2493C95.5243 55.6438 95.8696 54.9037 96.0498 54.1934C96.4252 52.6833 95.8846 51.4273 95.254 50.6423C94.6084 49.8574 93.8952 49.4836 93.4072 49.3116C92.8967 49.1472 92.6414 49.1322 92.6414 49.1322L92.5964 49.2967C92.5964 49.2967 92.8667 49.3789 93.2646 49.6181C93.67 49.8574 94.2405 50.2985 94.6534 51.0461C94.8486 51.4199 95.0363 51.8535 95.0964 52.3394C95.1339 52.6011 95.1264 52.7954 95.1114 53.1094C95.0814 53.3337 95.0288 53.6103 94.9387 53.8645C94.5633 54.8887 93.6399 55.9279 92.3111 56.0998C91.1024 56.3091 89.5409 55.6363 88.5649 54.4327C87.5664 53.2739 87.1535 51.4124 87.5064 49.5658C87.7091 48.2426 88.3172 46.9642 89.1355 45.7904C89.8487 45.7157 90.5694 45.6783 91.2976 45.7306C93.0393 45.8353 94.721 46.2465 96.3276 47.0539C97.8816 47.8164 99.3531 48.9154 100.562 50.2386C101.793 51.5544 102.784 53.0945 103.557 54.7317C104.3 56.3914 104.803 58.1333 105.066 59.9126C105.276 61.3853 105.299 62.8805 105.134 64.3309C104.728 63.5758 104.24 62.8656 103.602 62.2526C102.521 61.1835 101.012 60.5107 99.4657 60.4808C98.6999 60.4658 97.8891 60.6378 97.1984 60.9966C96.4927 61.3704 95.9297 61.9311 95.5243 62.589C95.1339 63.2469 94.8937 64.0169 94.9462 64.7944C94.9612 64.9888 94.9838 65.1832 95.0363 65.385C95.0964 65.5943 95.1189 65.6915 95.224 65.9158C95.3816 66.2821 95.6369 66.5886 95.9147 66.8428C96.4777 67.3512 97.2135 67.6428 97.9492 67.6876C98.6774 67.7474 99.4657 67.4633 99.9386 66.955L99.826 66.8204C98.76 67.7026 97.1534 67.3138 96.3276 66.4242C95.4492 65.5196 95.5919 64.0618 96.29 63.0749C96.9807 62.0358 98.1894 61.5199 99.4056 61.6246C100.629 61.7218 101.785 62.3198 102.641 63.2095C103.497 64.0917 104.083 65.2729 104.451 66.4989L104.578 66.9624L104.578 66.9998C104.278 68.0764 103.865 69.1081 103.317 70.0575C101.68 72.9956 99.0227 75.1487 96.1924 76.0607C94.7886 76.5242 93.3171 76.6588 92.0108 76.442C90.667 76.2252 89.4808 75.5897 88.625 74.7076C86.8457 72.9956 86.9133 70.1696 88.2196 68.7417C88.8577 68.0166 89.7961 67.6353 90.652 67.5605C91.5153 67.4858 92.3261 67.7474 92.8817 68.181C94.0303 69.1155 94.203 70.5061 94.0603 71.2761C94.0003 71.6873 93.8576 71.9714 93.7676 72.1657C93.6474 72.3526 93.5874 72.4573 93.5874 72.4573L93.73 72.562C93.73 72.562 94.1204 72.2554 94.4057 71.3658C94.5333 70.9247 94.5934 70.3491 94.4657 69.6837C94.3381 69.0333 94.0303 68.2707 93.3697 67.6428C92.0709 66.3419 89.3082 66.1625 87.4013 67.9717C86.4779 68.8688 85.9073 70.2369 85.9223 71.6574C85.8998 73.0778 86.4779 74.6104 87.5514 75.7393C88.61 76.8756 90.1039 77.683 91.718 77.9746C93.3697 78.2811 95.0813 78.0792 96.6879 77.5185C99.9311 76.3897 102.611 73.7207 104.15 70.5061C104.436 69.9005 104.668 69.265 104.879 68.6296C104.954 69.1978 104.991 69.7958 105.006 70.3864C105.021 73.0255 104.473 75.672 103.722 78.2811C102.994 80.8977 102.048 83.4993 101.305 86.1832C100.562 88.8596 100.006 91.6257 100.051 94.4442C100.074 95.8273 100.276 97.2327 100.517 98.5934C100.517 98.6233 100.532 98.6532 100.539 98.6906C99.9236 98.1672 99.3831 97.5168 98.9852 96.7767C98.2044 95.3338 97.8065 93.5994 97.7164 91.8126C97.6189 90.0259 97.8891 88.2017 97.9792 86.3701C98.0693 84.5535 97.799 82.6172 96.7555 81.0622C95.742 79.5371 94.0829 78.3559 92.236 78.2138C90.3817 78.0718 88.7151 78.8941 87.634 80.0305C86.5379 81.1893 86.1175 82.7891 86.3728 84.0301C86.5905 85.2861 87.2436 86.2131 87.8968 86.7888C88.5649 87.3644 89.2031 87.6186 89.6535 87.7158C90.1039 87.813 90.3217 87.7831 90.3292 87.798L90.3667 87.6261C90.3667 87.6261 90.1265 87.5738 89.7586 87.3794C89.3982 87.2074 88.8802 86.871 88.4223 86.2804C87.9793 85.6973 87.5739 84.86 87.5214 83.8881C87.4613 82.9237 87.8292 81.8621 88.6925 81.0547C89.5259 80.2323 90.8171 79.6866 92.1384 79.7314C93.4597 79.7613 94.9537 80.4043 96.0048 81.6229C96.5303 82.2284 96.9732 82.9386 97.1909 83.7685C97.4312 84.5684 97.4837 85.4655 97.4462 86.3402C97.3786 88.1195 96.8831 89.9063 96.763 91.7902C96.6204 93.6592 96.7555 95.6553 97.6038 97.457C97.6339 97.5168 97.6639 97.5766 97.6939 97.6364C95.9222 96.844 93.9703 96.7094 92.1384 96.8515C90.2466 96.9711 88.4448 97.472 86.6655 97.5318C85.7797 97.5692 84.8863 97.5168 84.083 97.2776C83.2497 97.0533 82.5365 96.6197 81.9284 96.0964C80.7047 95.0423 80.059 93.562 80.029 92.2463C79.984 90.923 80.5395 89.6446 81.3578 88.8148C82.1686 87.955 83.2347 87.5962 84.2031 87.6485C85.1791 87.7008 86.0199 88.1046 86.6055 88.5456C87.1986 88.9942 87.5364 89.5175 87.7091 89.8689C87.8968 90.2277 87.9418 90.4819 87.9568 90.4744L88.1295 90.4371C88.1295 90.4371 88.1445 90.2128 88.0469 89.7642C87.9493 89.3157 87.6941 88.6802 87.116 88.0148C86.5379 87.3719 85.6145 86.714 84.3458 86.4972C83.0995 86.243 81.4929 86.6542 80.3293 87.7532C79.1807 88.8297 78.3624 90.4894 78.505 92.336C78.6476 94.1825 79.8338 95.8347 81.3653 96.8365C82.9194 97.8832 84.8638 98.1523 86.6956 98.0551C88.5349 97.9654 90.3667 97.6963 92.161 97.7934C93.9552 97.8832 95.697 98.2794 97.1459 99.0569C97.6188 99.3111 98.0543 99.6251 98.4447 99.969C97.1909 99.7372 95.9372 99.5952 94.6159 99.5727C93.9477 99.5727 93.197 99.5952 92.4838 99.6699C91.7706 99.7297 91.0649 99.8419 90.3667 99.969C88.9628 100.223 87.5965 100.589 86.2601 100.993C83.58 101.801 81.0125 102.825 78.4224 103.602C75.8474 104.41 73.2048 104.97 70.5772 104.97C70.0517 104.97 69.5261 104.933 69.0081 104.873C69.6087 104.671 70.2018 104.455 70.7799 104.185C74.0081 102.653 76.6882 99.9839 77.8218 96.7543C78.3849 95.1469 78.5876 93.4499 78.2798 91.8052C77.987 90.1978 77.1762 88.7101 76.0351 87.656C74.9014 86.5869 73.3624 86.0187 71.936 86.0337C70.5096 86.0187 69.1433 86.5869 68.2349 87.5065C66.4181 89.4054 66.6058 92.1565 67.9045 93.4499C68.5352 94.1078 69.3009 94.4143 69.9541 94.5414C70.6147 94.6685 71.2003 94.6161 71.6432 94.4816C72.5366 94.205 72.8444 93.7788 72.8444 93.8087L72.7393 93.6667C72.7393 93.6667 72.6417 93.7265 72.4465 93.8461C72.2513 93.9358 71.9736 94.0779 71.5531 94.1377C70.7799 94.2797 69.376 94.1078 68.4451 92.9639C68.0172 92.4107 67.7469 91.6033 67.822 90.7436C67.897 89.8913 68.2799 88.9568 69.0081 88.3214C70.442 87.0131 73.2798 86.9532 74.999 88.7251C75.8849 89.5773 76.5155 90.7585 76.7408 92.0967C76.966 93.3976 76.8308 94.8628 76.3579 96.2609C75.4495 99.0718 73.2874 101.718 70.3294 103.356C69.3985 103.886 68.385 104.29 67.334 104.597C67.1238 104.544 66.9061 104.499 66.6959 104.44C65.4646 104.073 64.301 103.49 63.4076 102.63C62.5217 101.771 61.9362 100.634 61.8461 99.4157C61.8085 98.8102 61.8911 98.2196 62.1539 97.6439C62.3866 97.1505 62.8145 96.6496 63.3175 96.3132C64.316 95.6254 65.7724 95.4908 66.6883 96.3805C67.5817 97.2103 67.9571 98.8251 67.0712 99.8643L67.1988 99.9839C67.7244 99.4905 67.9871 98.7354 67.9346 98.0028C67.8895 97.2776 67.6042 96.5524 67.0937 95.9917C66.5983 95.4086 65.825 95.0722 65.0592 95.0198C64.2785 94.96 63.5127 95.1918 62.8521 95.5731C62.1914 95.9693 61.6359 96.5001 61.238 97.2253C60.8851 97.8831 60.6974 98.6831 60.7049 99.4456C60.7049 100.978 61.3806 102.496 62.4392 103.58C63.0548 104.223 63.783 104.731 64.5487 105.142C63.0923 105.299 61.6058 105.284 60.1344 105.075C58.3476 104.813 56.5909 104.313 54.9318 103.572C53.2876 102.802 51.7411 101.808 50.4198 100.589C49.091 99.3858 47.9874 97.9205 47.2216 96.373C46.4108 94.7731 45.9979 93.0985 45.8928 91.3641C45.8478 90.6464 45.8778 89.9212 45.9529 89.211C47.1316 88.3886 48.4078 87.7906 49.7441 87.5887C51.5985 87.2373 53.4678 87.656 54.6315 88.6428C55.8477 89.6147 56.5233 91.1772 56.3056 92.3733C56.1329 93.6966 55.0894 94.6161 54.0609 94.9899C53.8056 95.0797 53.5279 95.132 53.3026 95.1619C52.9873 95.1843 52.7921 95.1918 52.5294 95.1469C52.0414 95.0871 51.606 94.9002 51.2381 94.7059C50.4874 94.2947 50.0444 93.719 49.8042 93.3228C49.5565 92.9266 49.4814 92.6574 49.4814 92.6574L49.3162 92.7023C49.3162 92.7023 49.3237 92.9639 49.4964 93.4648C49.6691 93.9508 50.0444 94.661 50.8327 95.3039C51.621 95.9319 52.8747 96.4702 54.3987 96.0964C55.1119 95.9095 55.8552 95.5656 56.4633 94.9825C56.7711 94.6909 57.0488 94.3545 57.2816 93.9657C57.4017 93.7564 57.4843 93.5994 57.5894 93.3078C57.6494 93.1135 57.717 92.9714 57.762 92.6873C58.1449 90.7361 57.2365 88.7026 55.5774 87.4392C53.8507 86.1234 51.5009 86.0786 49.5264 86.6692C48.2727 87.0504 47.1316 87.6934 46.0655 88.4484C46.4784 86.0711 47.5745 83.8806 49.3012 82.3854C51.7111 80.2847 54.9318 79.1408 57.8371 79.1408C60.75 79.1334 63.4001 80.6809 64.5112 82.9013C65.6673 85.0768 64.9016 87.7382 63.3926 89.0166C61.8536 90.3548 59.6914 90.1679 58.4752 89.3755C57.199 88.5681 56.7561 87.2747 56.6585 86.4748C56.6059 86.0636 56.6284 85.7347 56.6585 85.5179C56.696 85.3011 56.711 85.1889 56.711 85.1889L56.5458 85.1441C56.5458 85.1441 56.5158 85.2562 56.4482 85.4805C56.3957 85.7048 56.3281 86.0412 56.3356 86.4972C56.3582 87.3644 56.6735 88.8222 58.0849 89.9362C58.7831 90.4744 59.7365 90.8482 60.81 90.8931C61.8761 90.9454 63.0923 90.6539 64.1058 89.8838C65.1193 89.1288 65.9226 87.97 66.2679 86.6019C66.6358 85.2562 66.5532 83.6489 65.8926 82.2434C65.2544 80.8229 64.1283 79.5894 62.7319 78.7222C61.3356 77.8251 59.6089 77.3765 57.8822 77.3242C56.148 77.2644 54.3912 77.6008 52.7396 78.2362C51.0729 78.8642 49.4589 79.7688 48.085 81.0547C45.6751 83.2676 44.3989 86.5421 44.3163 89.8315C44.2787 89.8689 44.2337 89.8988 44.1962 89.9362C42.6346 91.3566 41.1557 92.8817 39.5941 94.3021C38.0176 95.7151 36.441 97.0982 34.8194 98.3691C33.4831 99.4382 32.1092 100.395 30.7129 101.232C30.2324 100.956 29.7444 100.687 29.2564 100.425C27.312 99.3933 25.3 98.4065 23.198 97.6065C21.1034 96.7842 18.9187 96.1711 16.7191 95.7899C14.5194 95.4086 12.3197 95.2516 10.1876 95.2516C9.12158 95.2441 8.07053 95.3264 7.04952 95.4161C6.006 95.5207 4.96998 95.7002 3.979 96.074C2.97301 96.4552 2.06461 96.9486 1.31387 97.7785C0.615678 98.556 0.142716 99.498 -0.00743029 100.492C-0.0825036 100.986 -0.0599816 101.502 0.0526282 101.973L0.105179 102.017ZM106.936 107.572C105.937 107.31 105.029 106.675 104.308 105.853C103.482 104.926 102.859 103.797 102.364 102.623C102.394 102.638 102.424 102.645 102.454 102.66C103.655 103.176 104.773 103.864 105.629 104.783C106.35 105.554 106.793 106.525 106.943 107.572L106.936 107.572Z" fill="white"/>
</g>
<defs>
<clipPath id="clip0_2008_22162">
<rect width="109" height="109" fill="white" transform="translate(109 109) rotate(-180)"/>
</clipPath>
</defs>
</svg>
