<svg width="109" height="109" viewBox="0 0 109 109" fill="none" xmlns="http://www.w3.org/2000/svg">
<g id="Frame" clip-path="url(#clip0_2008_22156)">
<path id="Vector" d="M108.895 6.98262L108.79 6.63125C108.73 6.45183 108.707 6.4294 108.662 6.31726C108.565 6.10045 108.414 5.85375 108.287 5.6818C107.731 4.9342 106.943 4.50059 106.185 4.29874C105.411 4.10436 104.646 4.14922 104 4.41835C103.384 4.66506 102.896 5.10615 102.589 5.53228C101.958 6.41445 101.868 7.27418 101.913 7.81246C101.966 8.3582 102.093 8.61986 102.093 8.61986L102.258 8.57501C102.258 8.57501 102.191 8.30587 102.236 7.81246C102.281 7.33399 102.491 6.59387 103.114 5.97336C103.722 5.34538 104.766 4.92672 105.839 5.36781C106.905 5.77899 107.776 6.90038 107.446 8.20868C107.303 8.85162 106.928 9.50203 106.387 10.0104C106.245 10.145 106.125 10.2422 105.975 10.3543C105.899 10.4066 105.757 10.5188 105.727 10.5262C105.644 10.5786 105.562 10.6309 105.479 10.6832C105.134 10.8776 104.758 11.0421 104.353 11.1767C102.746 11.6925 100.727 11.8046 98.7073 11.9168C96.6803 12.0065 94.5708 11.9168 92.4462 11.6626C90.3216 11.4159 88.1669 11.0122 86.0423 10.459C83.9328 9.87583 81.8457 9.1058 79.9388 8.07412C79.5484 7.86479 79.1581 7.64051 78.7752 7.40875C78.8728 7.35642 78.9704 7.28914 79.068 7.2368C79.9238 6.79572 80.7496 6.33969 81.6055 5.98831L81.9208 5.84627L82.2286 5.72665L82.8892 5.47247C83.3172 5.31547 83.7075 5.18838 84.1205 5.05381C85.7946 4.5604 87.4312 4.27631 88.9552 4.20155C90.4792 4.10436 91.8906 4.22398 93.1143 4.43331C94.353 4.63516 95.3891 5.00148 96.2224 5.35285C96.6428 5.51733 97.0107 5.69675 97.3185 5.8687C97.6338 6.02569 97.8965 6.18269 98.0992 6.31726C98.5196 6.57892 98.7449 6.72096 98.7449 6.72096L98.8575 6.58639C98.8575 6.58639 98.6623 6.39949 98.3019 6.0556C98.1218 5.87617 97.8815 5.6818 97.5812 5.45752C97.2959 5.22576 96.9431 4.97905 96.5377 4.73235C94.9311 3.71561 92.2585 2.70635 88.9177 2.64654C87.2585 2.62412 85.4493 2.81102 83.6099 3.31191C83.152 3.439 82.6565 3.58852 82.2061 3.73804L81.5454 3.99222L81.1851 4.13427L80.8472 4.28379C79.9313 4.67254 79.0379 5.151 78.1521 5.67432C77.8067 5.89113 77.4539 6.11541 77.116 6.34716C76.2677 5.75656 75.4569 5.11362 74.6236 4.52302C72.9269 3.31191 71.0275 2.20546 68.948 1.9438C67.9195 1.80176 66.8684 1.86156 65.885 2.14565C65.6147 2.22789 65.382 2.3176 65.1943 2.39984C64.939 2.51198 64.7213 2.61664 64.5036 2.75121C64.0682 3.00539 63.6928 3.31938 63.3625 3.6558C62.0487 5.00148 61.5081 6.94524 62.0487 8.45539C62.2964 9.25532 62.8294 9.83097 63.3775 10.1973C63.9255 10.5711 64.5036 10.773 65.0366 10.8477C66.1027 11.0122 66.951 10.6758 67.3864 10.3393C67.8444 9.95807 67.927 9.71883 67.9495 9.72631L67.8219 9.6067C67.8219 9.6067 67.6117 9.84593 67.1988 10.0478C66.7708 10.2571 66.0351 10.4141 65.1943 10.1375C64.3835 9.88331 63.3925 9.20299 63.1673 8.14888C62.8895 7.0499 63.355 5.6818 64.406 4.70244C65.412 3.68571 67.0411 3.28948 68.7678 3.46143C70.5095 3.61095 72.3338 4.29874 74.1206 5.32295C74.9239 5.76403 75.7272 6.25745 76.5455 6.74339C75.3668 7.55827 74.2107 8.45539 73.1221 9.42727C71.5305 10.8402 70.0591 12.3952 68.6552 14.0026C67.2964 15.5053 66.0426 17.0902 64.6012 18.4209C64.5937 18.1144 64.5937 17.8004 64.5637 17.4939C64.4736 16.5369 64.2709 15.595 64.0006 14.6679C63.7078 13.7783 63.3174 12.784 62.867 12.0214C61.891 10.3244 60.6148 8.86657 59.1283 7.67041C57.6569 6.45183 55.9827 5.51733 54.2485 4.80711C52.5218 4.08193 50.69 3.596 48.8582 3.36424C47.0114 3.11753 45.1345 3.0951 43.3102 3.33434C43.1 3.2521 42.8973 3.16239 42.6871 3.08763C41.2907 2.63159 39.8493 2.39236 38.4004 2.33255C35.495 2.21294 32.6722 2.82597 29.9771 3.60347C27.2819 4.41088 24.7144 5.42014 22.1318 6.25745C20.8405 6.67611 19.5493 7.0499 18.2355 7.31904C17.5823 7.45361 16.9292 7.56575 16.2685 7.64051C15.6154 7.72274 14.9848 7.76012 14.2716 7.77508C12.9878 7.79003 11.629 7.65546 10.3227 7.43866C9.90225 7.3639 9.48184 7.27419 9.06142 7.177C8.95632 6.95272 8.85872 6.73591 8.78365 6.50416C8.57344 5.81637 8.49837 5.11362 8.61098 4.46321C8.7311 3.8128 9.00136 3.19229 9.38424 2.7213C10.0824 1.78681 11.4713 1.43543 12.4398 1.78681C13.4382 2.07837 13.9713 3.11006 13.9638 4.00718C13.9487 4.46321 13.8211 4.83701 13.5509 5.17343C13.3406 5.42761 12.9878 5.66685 12.665 5.77899C11.9968 6.02569 11.3737 5.92103 11.0209 5.75656C10.653 5.59956 10.4953 5.42761 10.4953 5.42761L10.3602 5.53975C10.3602 5.53975 10.3977 5.58461 10.4728 5.6818C10.5479 5.77151 10.668 5.90608 10.8557 6.04065C11.2236 6.31726 11.9293 6.58639 12.8376 6.44435C13.2956 6.36959 13.7686 6.19017 14.2415 5.75656C14.6394 5.39023 14.9848 4.7772 15.0899 4.11932C15.1875 3.45395 15.1274 2.71383 14.7821 2.01856C14.4517 1.32329 13.8136 0.672882 13.0178 0.336462C11.4713 -0.343853 9.36923 -0.0223856 8.03291 1.53262C7.16956 2.4746 6.73413 3.7829 6.74164 5.09867C6.33624 4.24641 5.86327 3.41657 5.26268 2.6615C4.38431 1.54757 3.11556 0.575694 1.56904 0.343938L1.05102 0.269178L1.0285 0.822402C0.97595 2.30265 1.48645 3.8427 2.45491 4.99401C3.20565 5.91355 4.14407 6.6163 5.15007 7.177C3.81375 7.16205 2.49245 7.59565 1.53901 8.46287C-0.0225345 9.78612 -0.345353 11.8794 0.337821 13.4568C0.675654 14.2418 1.3288 14.8847 2.02699 15.2137C2.72518 15.5576 3.46841 15.6174 4.13657 15.5202C4.79722 15.4155 5.41283 15.0716 5.78069 14.6754C6.21612 14.2044 6.3963 13.7334 6.47137 13.2774C6.6065 12.3728 6.34374 11.6775 6.06597 11.3037C5.93084 11.1168 5.7957 10.9898 5.70561 10.9225C5.61553 10.8477 5.56297 10.8103 5.56297 10.8103L5.45036 10.9449C5.45036 10.9449 5.62303 11.1019 5.78069 11.4682C5.94585 11.8196 6.04345 12.4401 5.80321 13.1055C5.6906 13.4269 5.45036 13.7783 5.19511 13.9876C4.85728 14.2568 4.4744 14.3839 4.02396 14.3988C3.12307 14.4063 2.08705 13.883 1.79426 12.8812C1.4339 11.9168 1.79426 10.5337 2.73268 9.83845C3.21316 9.45718 3.82876 9.18804 4.48191 9.06842C5.13505 8.95628 5.84075 9.02357 6.53143 9.24037C6.94434 9.36746 7.34974 9.56931 7.74012 9.81602C7.79267 10.0478 7.86775 10.2795 7.91279 10.5113C8.19057 11.857 8.33321 13.1952 8.34822 14.5708C8.34822 17.2845 7.64253 19.9609 6.73413 22.5252C5.84075 25.1119 4.73716 27.6313 3.85129 30.2928C2.98043 32.9393 2.34981 35.7502 2.40986 38.636C2.43989 39.3612 2.48494 40.0639 2.61256 40.804C2.66512 41.1778 2.74019 41.5292 2.81526 41.8581L2.87532 42.1123L2.9504 42.3964L3.10805 42.9197C3.18313 43.144 3.27322 43.3608 3.3633 43.5851C3.12307 45.4167 3.14559 47.2932 3.39333 49.1398C3.62606 50.9639 4.11405 52.788 4.84226 54.5075C5.55547 56.2345 6.49389 57.9016 7.7176 59.3669C8.91878 60.8472 10.3827 62.1181 12.0869 63.09C12.8602 63.5385 13.8587 63.9273 14.7445 64.2188C15.6754 64.488 16.6214 64.6898 17.5823 64.7795C17.8901 64.8094 18.1979 64.8094 18.5132 64.8169C17.1694 66.2523 15.5854 67.5008 14.0764 68.8539C12.4623 70.252 10.9007 71.7173 9.48184 73.3022C8.50588 74.3862 7.60499 75.5375 6.78668 76.7112C6.29119 75.8963 5.80321 75.0964 5.36027 74.2965C4.33927 72.5172 3.64108 70.7005 3.49093 68.9661C3.31826 67.2466 3.72366 65.6318 4.73716 64.6225C5.72063 63.5759 7.09448 63.1124 8.19807 63.389C9.25662 63.6133 9.93979 64.6001 10.195 65.4075C10.4728 66.2523 10.3152 66.9775 10.105 67.4036C9.90225 67.8148 9.63949 68.0166 9.66202 68.0241L9.78214 68.1512C9.78214 68.1512 10.0224 68.0465 10.4052 67.5905C10.7356 67.1494 11.0734 66.3121 10.9158 65.2505C10.8407 64.7197 10.638 64.1441 10.2626 63.5983C9.89475 63.0526 9.30917 62.5218 8.51338 62.2751C7.0044 61.7293 5.05247 62.2751 3.69363 63.5834C3.3558 63.9123 3.04049 64.2936 2.78523 64.7197C2.6501 64.9365 2.545 65.1533 2.43239 65.4075C2.34981 65.5944 2.25972 65.8336 2.17713 66.0953C1.88435 67.0747 1.83179 68.1213 1.97443 69.1455C2.23719 71.2164 3.34829 73.1078 4.56449 74.7974C5.15757 75.6347 5.81072 76.4346 6.3963 77.2794C6.16357 77.6233 5.93834 77.9672 5.72063 78.3111C5.19511 79.1932 4.71464 80.0829 4.32425 80.995L4.1741 81.3314L4.03146 81.6902L3.77621 82.3481C3.62606 82.8042 3.47592 83.2901 3.34829 83.7461C2.8528 85.5777 2.65761 87.3795 2.68013 89.0317C2.74019 92.351 3.75369 95.0199 4.7747 96.6198C5.02244 97.031 5.26268 97.3749 5.50291 97.659C5.72063 97.9505 5.91582 98.1972 6.10351 98.3766C6.45636 98.7355 6.63653 98.9299 6.63653 98.9299L6.77167 98.8177C6.77167 98.8177 6.62902 98.5935 6.36627 98.1748C6.22363 97.973 6.07348 97.7113 5.91582 97.3973C5.73564 97.0908 5.56297 96.7245 5.39781 96.3058C5.04496 95.476 4.6771 94.4443 4.4744 93.2107C4.26419 91.9847 4.15158 90.5867 4.24167 89.069C4.32425 87.5514 4.60953 85.9216 5.09752 84.2545C5.23265 83.8433 5.36027 83.4546 5.51793 83.0284L5.77318 82.3705L5.8933 82.064L6.03594 81.75C6.38879 80.9053 6.84674 80.0754 7.28968 79.2232C7.34223 79.126 7.4098 79.0288 7.46235 78.9316C7.69508 79.3129 7.9203 79.7016 8.13051 80.0904C9.16653 81.9893 9.93228 84.0601 10.5254 86.1684C11.0809 88.2841 11.4863 90.4297 11.7341 92.5454C11.9893 94.6611 12.0794 96.7618 11.9893 98.7804C11.8767 100.791 11.7716 102.802 11.2536 104.402C11.1185 104.806 10.9533 105.18 10.7581 105.524C10.7131 105.613 10.653 105.688 10.6004 105.778C10.5854 105.808 10.4803 105.942 10.4278 106.025C10.3152 106.174 10.2176 106.286 10.0824 106.428C9.56442 106.959 8.91878 107.34 8.27315 107.482C6.95935 107.811 5.84075 106.944 5.42033 105.883C4.9849 104.813 5.39781 103.767 6.02843 103.169C6.65155 102.548 7.39478 102.339 7.87525 102.294C8.37074 102.242 8.64101 102.316 8.64101 102.316L8.68605 102.152C8.68605 102.152 8.4233 102.025 7.87525 101.973C7.33472 101.928 6.46386 102.017 5.5855 102.645C5.15757 102.952 4.71464 103.43 4.46689 104.051C4.19663 104.694 4.15158 105.464 4.34677 106.226C4.54947 106.982 4.9849 107.766 5.73564 108.32C5.90831 108.454 6.15606 108.596 6.37377 108.694C6.48638 108.738 6.50891 108.761 6.68908 108.821L7.04193 108.925C7.52241 109.037 8.03291 109.06 8.5284 108.985C9.52688 108.843 10.4728 108.372 11.2536 107.669C12.0869 106.922 12.5749 106.017 12.9653 105.015C13.3406 104.021 13.5208 102.989 13.6259 101.958C13.716 100.941 13.8061 99.8943 13.7911 98.8327C13.7911 96.7095 13.6334 94.519 13.2506 92.3286C12.8677 90.1381 12.2521 87.9626 11.4263 85.8768C10.623 83.7835 9.62448 81.7799 8.59597 79.8437C8.33321 79.3502 8.06294 78.8643 7.78517 78.3933C8.61849 77.0028 9.58694 75.6347 10.6605 74.3039C11.9293 72.6966 13.3256 71.1192 14.7445 69.5492C16.1709 67.9942 17.7024 66.514 19.1289 64.9664C19.1664 64.9291 19.1964 64.8842 19.234 64.8468C22.5372 64.7646 25.8255 63.5011 28.0477 61.0939C29.3389 59.7258 30.2473 58.1184 30.8779 56.4587C31.5086 54.814 31.8464 53.0572 31.7938 51.3377C31.7413 49.6257 31.2908 47.9062 30.39 46.5082C29.5116 45.1102 28.2729 43.9963 26.854 43.3608C25.4426 42.7029 23.821 42.6207 22.4772 42.987C21.1108 43.3309 19.9397 44.1308 19.1814 45.1401C18.4156 46.1568 18.1154 47.3605 18.1679 48.4221C18.2129 49.4911 18.5883 50.4406 19.1289 51.1358C20.2475 52.5413 21.7114 52.8553 22.5823 52.8778C23.0327 52.8778 23.378 52.8179 23.6033 52.7656C23.8285 52.6983 23.9411 52.6684 23.9411 52.6684L23.8961 52.504C23.8961 52.504 23.7834 52.5189 23.5657 52.5563C23.348 52.5787 23.0252 52.6011 22.6048 52.5563C21.8015 52.4591 20.5102 52.018 19.6919 50.7471C18.9036 49.536 18.7084 47.3829 20.0523 45.8503C21.3285 44.3551 24.0087 43.5926 26.1933 44.7364C28.4155 45.8428 29.9771 48.4893 29.9695 51.3826C29.9695 54.2758 28.8209 57.483 26.7113 59.8828C25.2099 61.6022 23.0027 62.6937 20.6228 63.1049C21.3811 62.0433 22.0342 60.907 22.4096 59.6585C23.0102 57.6923 22.9651 55.3523 21.6363 53.6328C20.3751 51.9806 18.3256 51.076 16.3736 51.4573C16.0884 51.5022 15.9532 51.5769 15.7505 51.6293C15.4652 51.7339 15.3001 51.8162 15.0899 51.9358C14.6995 52.1601 14.3541 52.4441 14.0689 52.7507C13.4758 53.3562 13.1304 54.0963 12.9503 54.8066C12.5749 56.3167 13.1154 57.5727 13.746 58.3577C14.3917 59.1426 15.1049 59.5164 15.5929 59.6884C16.1034 59.8528 16.3586 59.8678 16.3586 59.8678L16.4037 59.7033C16.4037 59.7033 16.1334 59.6211 15.7355 59.3819C15.3301 59.1426 14.7595 58.7015 14.3466 57.9539C14.1514 57.5801 13.9638 57.1465 13.9037 56.6606C13.8662 56.3989 13.8737 56.2046 13.8887 55.8906C13.9187 55.6663 13.9713 55.3897 14.0614 55.1355C14.4367 54.1113 15.3601 53.0721 16.6889 52.9002C17.8976 52.6908 19.4592 53.3637 20.4351 54.5673C21.4336 55.7261 21.8465 57.5876 21.4937 59.4342C21.291 60.7574 20.6829 62.0358 19.8646 63.2096C19.1514 63.2843 18.4307 63.3217 17.7024 63.2694C15.9607 63.1647 14.2791 62.7535 12.6725 61.9461C11.1185 61.1836 9.647 60.0846 8.43831 58.7614C7.2071 57.4456 6.21612 55.9055 5.44286 54.2683C4.69962 52.6086 4.19663 50.8667 3.93387 49.0874C3.72366 47.6147 3.70114 46.1195 3.8663 44.6691C4.2717 45.4242 4.75968 46.1344 5.39781 46.7474C6.47888 47.8165 7.98787 48.4893 9.53439 48.5192C10.3001 48.5342 11.1109 48.3622 11.8016 48.0034C12.5073 47.6296 13.0704 47.0689 13.4758 46.411C13.8662 45.7531 14.1064 44.9831 14.0538 44.2056C14.0388 44.0112 14.0163 43.8168 13.9638 43.615C13.9037 43.4057 13.8812 43.3085 13.7761 43.0842C13.6184 42.7179 13.3632 42.4114 13.0854 42.1572C12.5223 41.6488 11.7866 41.3572 11.0509 41.3124C10.3227 41.2526 9.53439 41.5367 9.06142 42.045L9.17404 42.1796C10.2401 41.2974 11.8467 41.6862 12.6725 42.5758C13.5509 43.4804 13.4082 44.9382 12.71 45.9251C12.0193 46.9642 10.8106 47.4801 9.59445 47.3754C8.37074 47.2782 7.2146 46.6802 6.35876 45.7905C5.50291 44.9083 4.91734 43.7271 4.54947 42.5011L4.42185 42.0376V42.0002C4.72214 40.9236 5.13505 39.8919 5.68309 38.9425C7.31971 36.0044 9.97733 33.8513 12.8076 32.9393C14.2115 32.4758 15.683 32.3412 16.9892 32.558C18.3331 32.7748 19.5192 33.4103 20.3751 34.2924C22.1543 36.0044 22.0868 38.8304 20.7805 40.2583C20.1424 40.9834 19.2039 41.3647 18.3481 41.4395C17.4847 41.5142 16.6739 41.2526 16.1184 40.819C14.9698 39.8845 14.7971 38.4939 14.9397 37.7239C14.9998 37.3127 15.1424 37.0286 15.2325 36.8343C15.3526 36.6474 15.4127 36.5427 15.4127 36.5427L15.27 36.438C15.27 36.438 14.8797 36.7446 14.5944 37.6342C14.4668 38.0753 14.4067 38.6509 14.5343 39.3163C14.6619 39.9667 14.9698 40.7293 15.6304 41.3572C16.9292 42.6581 19.6919 42.8375 21.5988 41.0283C22.5222 40.1312 23.0928 38.7631 23.0777 37.3426C23.1003 35.9222 22.5222 34.3896 21.4486 33.2607C20.3901 32.1244 18.8961 31.317 17.282 31.0254C15.6304 30.7189 13.9187 30.9208 12.3121 31.4815C9.06893 32.6103 6.38879 35.2793 4.84977 38.4939C4.56449 39.0995 4.33176 39.735 4.12155 40.3704C4.04648 39.8022 4.00894 39.2042 3.99393 38.6136C3.97891 35.9745 4.52695 33.328 5.27769 30.7189C6.00591 28.1023 6.95184 25.5007 7.69508 22.8168C8.43831 20.1404 8.99386 17.3743 8.94881 14.5558C8.92629 13.1727 8.72359 11.7673 8.48335 10.4066C8.48335 10.3767 8.46834 10.3468 8.46083 10.3094C9.07644 10.8328 9.61697 11.4832 10.0149 12.2233C10.7956 13.6662 11.1935 15.4006 11.2836 17.1874C11.3812 18.9741 11.1109 20.7983 11.0209 22.6299C10.9308 24.4465 11.201 26.3828 12.2446 27.9378C13.2581 29.4629 14.9172 30.6441 16.764 30.7862C18.6183 30.9282 20.285 30.1059 21.3661 28.9695C22.4621 27.8107 22.8826 26.2109 22.6273 24.9699C22.4096 23.7139 21.7564 22.7869 21.1033 22.2112C20.4351 21.6356 19.797 21.3814 19.3466 21.2842C18.8961 21.187 18.6784 21.2169 18.6709 21.202L18.6334 21.3739C18.6334 21.3739 18.8736 21.4262 19.2415 21.6206C19.6018 21.7926 20.1198 22.129 20.5778 22.7196C21.0207 23.3027 21.4261 24.14 21.4787 25.1119C21.5387 26.0763 21.1709 27.1379 20.3075 27.9453C19.4742 28.7677 18.1829 29.3134 16.8616 29.2686C15.5403 29.2387 14.0463 28.5957 12.9953 27.3771C12.4698 26.7716 12.0268 26.0614 11.8091 25.2315C11.5689 24.4316 11.5163 23.5345 11.5539 22.6598C11.6214 20.8805 12.1169 19.0937 12.2371 17.2098C12.3797 15.3408 12.2446 13.3447 11.3962 11.543C11.3662 11.4832 11.3362 11.4234 11.3061 11.3636C13.0779 12.156 15.0298 12.2906 16.8616 12.1485C18.7535 12.0289 20.5553 11.528 22.3345 11.4682C23.2204 11.4308 24.1138 11.4832 24.9171 11.7224C25.7504 11.9467 26.4636 12.3803 27.0717 12.9036C28.2954 13.9577 28.941 15.438 28.9711 16.7537C29.0161 18.077 28.4606 19.3554 27.6423 20.1852C26.8315 21.045 25.7654 21.4038 24.7969 21.3515C23.821 21.2992 22.9802 20.8954 22.3946 20.4544C21.8015 20.0058 21.4637 19.4825 21.291 19.1311C21.1033 18.7723 21.0583 18.5181 21.0432 18.5256L20.8706 18.5629C20.8706 18.5629 20.8556 18.7872 20.9532 19.2358C21.0507 19.6843 21.306 20.3198 21.8841 20.9852C22.4621 21.6281 23.3856 22.286 24.6543 22.5028C25.9005 22.757 27.5071 22.3458 28.6708 21.2468C29.8194 20.1703 30.6377 18.5106 30.4951 16.664C30.3524 14.8175 29.1663 13.1653 27.6347 12.1635C26.0807 11.1168 24.1363 10.8477 22.3045 10.9449C20.4652 11.0346 18.6334 11.3037 16.8391 11.2066C15.0448 11.1168 13.3031 10.7206 11.8542 9.94312C11.3812 9.68893 10.9458 9.37494 10.5554 9.03104C11.8091 9.2628 13.0629 9.40484 14.3842 9.42727C15.0523 9.42727 15.8031 9.40484 16.5163 9.33008C17.2295 9.27028 17.9352 9.15814 18.6334 9.03104C20.0372 8.77686 21.4036 8.41054 22.7399 8.00683C25.4201 7.19942 27.9876 6.17521 30.5776 5.39771C33.1527 4.5903 35.7953 4.0296 38.4229 4.0296C38.9484 4.0296 39.4739 4.06698 39.9919 4.12679C39.3913 4.32864 38.7983 4.54545 38.2202 4.81458C34.992 6.34716 32.3119 9.01609 31.1782 12.2457C30.6152 13.8531 30.4125 15.5501 30.7203 17.1948C31.0131 18.8022 31.8239 20.2899 32.965 21.344C34.0986 22.4131 35.6376 22.9812 37.064 22.9663C38.4904 22.9812 39.8568 22.4131 40.7652 21.4935C42.582 19.5946 42.3943 16.8435 41.0955 15.5501C40.4649 14.8922 39.6991 14.5857 39.046 14.4586C38.3853 14.3315 37.7998 14.3839 37.3568 14.5184C36.4634 14.795 36.1556 15.2212 36.1556 15.1913L36.2607 15.3333C36.2607 15.3333 36.3583 15.2735 36.5535 15.1539C36.7487 15.0642 37.0265 14.9221 37.4469 14.8623C38.2202 14.7203 39.6241 14.8922 40.555 16.0361C40.9829 16.5893 41.2532 17.3967 41.1781 18.2564C41.103 19.1087 40.7201 20.0432 39.9919 20.6786C38.558 21.9869 35.7202 22.0467 34.001 20.2749C33.1152 19.4227 32.4845 18.2415 32.2593 16.9033C32.0341 15.6024 32.1692 14.1371 32.6422 12.7391C33.5506 9.92816 35.7127 7.28166 38.6706 5.64442C39.6015 5.11362 40.615 4.70992 41.6661 4.4034C41.8763 4.45573 42.094 4.50059 42.3042 4.5604C43.5354 4.92672 44.6991 5.50985 45.5925 6.36959C46.4783 7.22933 47.0639 8.36568 47.154 9.58427C47.1915 10.1898 47.109 10.7804 46.8462 11.3561C46.6135 11.8495 46.1855 12.3504 45.6825 12.6868C44.6841 13.3746 43.2276 13.5092 42.3117 12.6195C41.4183 11.7897 41.043 10.1749 41.9288 9.13571L41.8012 9.01609C41.2757 9.50951 41.0129 10.2646 41.0655 10.9972C41.1105 11.7224 41.3958 12.4476 41.9063 13.0083C42.4018 13.5914 43.1751 13.9278 43.9408 13.9802C44.7216 14.04 45.4874 13.8082 46.148 13.4269C46.8087 13.0307 47.3642 12.4999 47.7621 11.7747C48.1149 11.1168 48.3026 10.3169 48.2951 9.55436C48.2951 8.02178 47.6195 6.50416 46.5609 5.42014C45.9453 4.7772 45.2171 4.26884 44.4513 3.85766C45.9078 3.70066 47.3942 3.71561 48.8657 3.92494C50.6524 4.1866 52.4092 4.68749 54.0683 5.42761C55.7124 6.19764 57.259 7.19195 58.5803 8.41054C59.9091 9.61417 61.0127 11.0795 61.7784 12.627C62.5892 14.2269 63.0021 15.9015 63.1072 17.6359C63.1523 18.3536 63.1222 19.0788 63.0472 19.789C61.8685 20.6114 60.5922 21.2094 59.2559 21.4113C57.4016 21.7627 55.5323 21.344 54.3686 20.3572C53.1524 19.3853 52.4767 17.8228 52.6945 16.6267C52.8671 15.3034 53.9107 14.3839 54.9392 14.0101C55.1944 13.9203 55.4722 13.868 55.6974 13.8381C56.0127 13.8157 56.2079 13.8082 56.4707 13.8531C56.9587 13.9129 57.3941 14.0998 57.762 14.2941C58.5127 14.7053 58.9556 15.281 59.1959 15.6772C59.4436 16.0734 59.5187 16.3426 59.5187 16.3426L59.6838 16.2977C59.6838 16.2977 59.6763 16.0361 59.5037 15.5352C59.331 15.0492 58.9556 14.339 58.1674 13.6961C57.3791 13.0681 56.1253 12.5298 54.6013 12.9036C53.8881 13.0905 53.1449 13.4344 52.5368 14.0175C52.229 14.3091 51.9512 14.6455 51.7185 15.0343C51.5984 15.2436 51.5158 15.4006 51.4107 15.6922C51.3506 15.8865 51.2831 16.0286 51.238 16.3127C50.8551 18.2639 51.7635 20.2974 53.4227 21.5608C55.1494 22.8766 57.4992 22.9214 59.4736 22.3308C60.7274 21.9496 61.8685 21.3066 62.9346 20.5515C62.5216 22.9289 61.4256 25.1194 59.6989 26.6146C57.289 28.7153 54.0683 29.8592 51.1629 29.8592C48.2501 29.8666 45.6 28.3191 44.4889 26.0987C43.3327 23.9232 44.0985 21.2618 45.6075 19.9834C47.1465 18.6452 49.3086 18.8321 50.5248 19.6245C51.8011 20.4319 52.244 21.7253 52.3416 22.5252C52.3942 22.9364 52.3716 23.2653 52.3416 23.4821C52.3041 23.6989 52.2891 23.8111 52.2891 23.8111L52.4542 23.8559C52.4542 23.8559 52.4842 23.7438 52.5518 23.5195C52.6044 23.2952 52.6719 22.9588 52.6644 22.5028C52.6419 21.6356 52.3266 20.1778 50.9152 19.0638C50.217 18.5256 49.2636 18.1518 48.19 18.1069C47.124 18.0546 45.9078 18.3461 44.8943 19.1162C43.8808 19.8712 43.0775 21.03 42.7321 22.3981C42.3643 23.7438 42.4468 25.3511 43.1075 26.7566C43.7456 28.1771 44.8717 29.4106 46.2681 30.2778C47.6645 31.1749 49.3912 31.6235 51.1179 31.6758C52.8521 31.7356 54.6088 31.3992 56.2605 30.7638C57.9271 30.1358 59.5412 29.2312 60.9151 27.9453C63.3249 25.7324 64.6012 22.4579 64.6838 19.1685C64.7213 19.1311 64.7664 19.1012 64.8039 19.0638C66.3654 17.6434 67.8444 16.1183 69.4059 14.6978C70.9825 13.2849 72.559 11.9018 74.1806 10.6309C75.517 9.56184 76.8908 8.60491 78.2872 7.7676C78.7677 8.04421 79.2557 8.31335 79.7436 8.57501C81.688 9.6067 83.7 10.5935 85.8021 11.3935C87.8967 12.2158 90.0813 12.8288 92.281 13.2101C94.4807 13.5914 96.6803 13.7484 98.8124 13.7484C99.8785 13.7559 100.93 13.6736 101.951 13.5839C102.994 13.4793 104.03 13.2998 105.021 12.926C106.027 12.5448 106.935 12.0513 107.686 11.2215C108.384 10.444 108.857 9.50203 109.007 8.50772C109.083 8.01431 109.06 7.49846 108.947 7.02748L108.895 6.98262ZM2.06452 1.42796C3.06301 1.68962 3.9714 2.32508 4.69212 3.14744C5.51793 4.07446 6.14104 5.20333 6.63653 6.37707C6.6065 6.36211 6.57647 6.35464 6.54644 6.33968C5.34526 5.82384 4.22666 5.13605 3.37081 4.2165C2.6501 3.44648 2.20716 2.4746 2.05702 1.42796H2.06452Z" fill="white"/>
</g>
<defs>
<clipPath id="clip0_2008_22156">
<rect width="109" height="109" fill="white"/>
</clipPath>
</defs>
</svg>
