<svg width="110" height="109" viewBox="0 0 110 109" fill="none" xmlns="http://www.w3.org/2000/svg">
<path d="M109.413 100.494C109.27 99.4956 108.797 98.5497 108.092 97.7689C107.341 96.9356 106.432 96.4476 105.426 96.0572C104.428 95.6819 103.392 95.5017 102.356 95.3966C101.335 95.3065 100.284 95.2164 99.2178 95.2314C97.0857 95.2314 94.8861 95.3891 92.6864 95.772C90.4867 96.1548 88.3021 96.7704 86.2075 97.5963C84.1054 98.3996 82.0935 99.398 80.149 100.427C79.6535 100.689 79.1656 100.96 78.6926 101.237C77.2962 100.404 75.9224 99.4356 74.586 98.362C72.972 97.0933 71.3879 95.6969 69.8113 94.278C68.2498 92.8516 66.7633 91.3201 65.2093 89.8937C65.1718 89.8561 65.1267 89.8261 65.0892 89.7886C65.0066 86.4853 63.7379 83.1971 61.3205 80.9749C59.9466 79.6836 58.3325 78.7752 56.6659 78.1446C55.0142 77.514 53.25 77.1761 51.5233 77.2287C49.8041 77.2812 48.0774 77.7317 46.6735 78.6326C45.2696 79.5109 44.151 80.7496 43.5129 82.1685C42.8522 83.5799 42.7697 85.2015 43.1375 86.5454C43.4829 87.9117 44.2862 89.0829 45.2997 89.8411C46.3207 90.6069 47.5294 90.9072 48.5954 90.8471C49.669 90.8021 50.6224 90.4267 51.3206 89.8862C52.732 88.7676 53.0473 87.3036 53.0698 86.4328C53.0698 85.9823 53.0098 85.637 52.9572 85.4117C52.8897 85.1865 52.8596 85.0739 52.8596 85.0739L52.6945 85.119C52.6945 85.119 52.7095 85.2316 52.747 85.4493C52.7695 85.667 52.7921 85.9898 52.747 86.4102C52.6494 87.2135 52.2065 88.5048 50.9302 89.3231C49.714 90.1114 47.5519 90.3066 46.0129 88.9627C44.5114 87.6865 43.7456 85.0063 44.8943 82.8217C46.0054 80.5995 48.663 79.038 51.5683 79.0455C54.4737 79.0455 57.6944 80.1941 60.1043 82.3037C61.831 83.8052 62.9271 86.0123 63.34 88.3922C62.2739 87.6339 61.1328 86.9808 59.879 86.6054C57.9046 86.0048 55.5548 86.0499 53.8281 87.3787C52.1689 88.6399 51.2605 90.6895 51.6434 92.6489C51.6885 92.9342 51.7635 93.0693 51.8161 93.272C51.9212 93.5573 52.0038 93.7224 52.1239 93.9327C52.3491 94.323 52.6344 94.6684 52.9422 94.9537C53.5503 95.5467 54.2935 95.8921 55.0067 96.0723C56.5232 96.4476 57.7845 95.9071 58.5728 95.2765C59.361 94.6308 59.7364 93.9176 59.9091 93.4296C60.0742 92.9192 60.0893 92.6639 60.0893 92.6639L59.9241 92.6189C59.9241 92.6189 59.8415 92.8891 59.6013 93.287C59.361 93.6924 58.9181 94.263 58.1674 94.6759C57.792 94.8711 57.3566 95.0588 56.8686 95.1188C56.6058 95.1564 56.4106 95.1488 56.0953 95.1338C55.8701 95.1038 55.5923 95.0513 55.3371 94.9612C54.3085 94.5858 53.265 93.6624 53.0924 92.3336C52.8821 91.1249 53.5578 89.5633 54.7665 88.5874C55.9301 87.5889 57.7995 87.176 59.6538 87.5288C60.9826 87.7315 62.2664 88.3396 63.4451 89.1579C63.5201 89.8711 63.5577 90.5919 63.5051 91.3201C63.4 93.0618 62.9871 94.7434 62.1763 96.35C61.4106 97.9041 60.307 99.3755 58.9782 100.584C57.6568 101.808 56.1103 102.806 54.4662 103.58C52.7996 104.323 51.0503 104.826 49.2636 105.089C47.7846 105.299 46.2906 105.321 44.8267 105.156C45.5849 104.751 46.2981 104.263 46.9138 103.625C47.9873 102.544 48.663 101.035 48.693 99.4881C48.708 98.7224 48.5354 97.9116 48.175 97.2209C47.7996 96.5152 47.2366 95.9521 46.5759 95.5467C45.9153 95.1564 45.142 94.9161 44.3612 94.9687C44.166 94.9837 43.9709 95.0062 43.7682 95.0588C43.5579 95.1188 43.4604 95.1413 43.2351 95.2464C42.8673 95.4041 42.5595 95.6594 42.3042 95.9371C41.7937 96.5002 41.5009 97.2359 41.4559 97.9716C41.3958 98.6999 41.6811 99.4881 42.1916 99.9611L42.3267 99.8485C41.4409 98.7824 41.8312 97.1758 42.7246 96.35C43.633 95.4717 45.097 95.6143 46.0879 96.3125C47.1315 97.0032 47.6495 98.2119 47.5444 99.4281C47.4468 100.652 46.8462 101.808 45.9528 102.664C45.0669 103.52 43.8808 104.105 42.6496 104.473L42.1841 104.601H42.1466C41.0655 104.3 40.0295 103.887 39.076 103.339C36.1256 101.703 33.9635 99.0452 33.0476 96.2149C32.5821 94.811 32.447 93.3396 32.6647 92.0333C32.8824 90.6894 33.5205 89.5033 34.4064 88.6474C36.1256 86.8682 38.9634 86.9358 40.3973 88.242C41.1255 88.8802 41.5084 89.8186 41.5835 90.6744C41.6586 91.5378 41.3958 92.3486 40.9604 92.9041C40.022 94.0528 38.6256 94.2254 37.8523 94.0828C37.4394 94.0227 37.1541 93.8801 36.9589 93.79C36.7713 93.6699 36.6661 93.6098 36.6661 93.6098L36.561 93.7525C36.561 93.7525 36.8688 94.1429 37.7622 94.4281C38.2052 94.5558 38.7832 94.6158 39.4514 94.4882C40.1045 94.3606 40.8703 94.0528 41.5009 93.3921C42.8072 92.0933 42.9874 89.3306 41.1706 87.4237C40.2697 86.5003 38.8958 85.9298 37.4694 85.9448C36.043 85.9223 34.504 86.5003 33.3704 87.5739C32.2293 88.6324 31.4185 90.1264 31.1257 91.7405C30.8179 93.3921 31.0206 95.1038 31.5836 96.7104C32.7173 99.9536 35.3974 102.634 38.6256 104.173C39.2337 104.458 39.8718 104.691 40.5099 104.901C39.9394 104.976 39.3388 105.014 38.7457 105.029C36.0956 105.044 33.438 104.496 30.8179 103.745C28.1903 103.017 25.5777 102.071 22.8826 101.327C20.1949 100.584 17.4172 100.029 14.5869 100.074C13.198 100.096 11.7866 100.299 10.4203 100.539C10.3902 100.539 10.3602 100.554 10.3227 100.562C10.8482 99.9461 11.5013 99.4055 12.2446 99.0077C13.6935 98.2269 15.4427 97.829 17.2295 97.7389C19.0238 97.6413 20.8556 97.9116 22.6949 98.0017C24.5192 98.0917 26.4636 97.8215 28.0251 96.778C29.5566 95.7645 30.7428 94.1053 30.8854 92.2585C31.0281 90.4042 30.2023 88.7375 29.0611 87.6565C27.8975 86.5604 26.2909 86.14 25.0447 86.3952C23.7834 86.6129 22.8525 87.2661 22.2745 87.9192C21.6964 88.5874 21.4411 89.2255 21.3435 89.6759C21.2459 90.1264 21.276 90.3441 21.261 90.3516L21.4336 90.3892C21.4336 90.3892 21.4862 90.1489 21.6814 89.7811C21.854 89.4207 22.1919 88.9027 22.785 88.4447C23.3705 88.0018 24.2114 87.5964 25.1873 87.5439C26.1558 87.4838 27.2218 87.8517 28.0326 88.715C28.8584 89.5483 29.4065 90.8396 29.3614 92.1609C29.3314 93.4822 28.6858 94.9762 27.4621 96.0272C26.854 96.5527 26.1408 96.9957 25.3074 97.2134C24.5042 97.4536 23.6033 97.5062 22.7249 97.4686C20.9381 97.4086 19.1439 96.9056 17.252 96.7855C15.3752 96.6428 13.3707 96.778 11.5614 97.6263C11.5013 97.6563 11.4413 97.6864 11.3887 97.7164C12.1845 95.9446 12.3196 93.9927 12.177 92.1609C12.0569 90.269 11.5539 88.4673 11.4938 86.688C11.4563 85.8021 11.5088 84.9088 11.7491 84.1055C11.9743 83.2721 12.4097 82.5589 12.9352 81.9508C13.9938 80.7271 15.4803 80.0815 16.8016 80.0515C18.1304 80.0064 19.4141 80.562 20.2475 81.3803C21.1108 82.1911 21.4712 83.2571 21.4186 84.2256C21.3661 85.2015 20.9607 86.0424 20.5177 86.6279C20.0673 87.221 19.5418 87.5589 19.1814 87.7315C18.821 87.9192 18.5658 87.9643 18.5733 87.9793L18.6108 88.1519C18.6108 88.1519 18.8361 88.167 19.2865 88.0694C19.737 87.9718 20.3751 87.7165 21.0432 87.1385C21.6889 86.5604 22.3495 85.637 22.5672 84.3682C22.8225 83.122 22.4096 81.5154 21.306 80.3518C20.2249 79.2031 18.5583 78.3848 16.704 78.5275C14.8496 78.6701 13.1905 79.8563 12.1845 81.3878C11.1335 82.9418 10.8632 84.8937 10.9608 86.718C11.0509 88.5574 11.3212 90.3892 11.2236 92.1834C11.1335 93.9777 10.7356 95.7194 9.95481 97.1683C9.69955 97.6413 9.38424 98.0767 9.0389 98.4671C9.27163 97.2134 9.41427 95.9596 9.43679 94.6383C9.43679 93.9702 9.41427 93.2194 9.3392 92.5062C9.27914 91.793 9.16653 91.0873 9.0389 90.3892C8.78365 88.9853 8.41579 87.6189 8.01039 86.2826C7.19959 83.6025 6.17107 81.0349 5.3903 78.4449C4.5795 75.8698 4.01645 73.2272 4.01645 70.5996C4.01645 70.0741 4.05399 69.5486 4.11405 69.0306C4.31675 69.6312 4.53446 70.2243 4.80473 70.8023C6.34374 74.0305 9.02389 76.7107 12.2671 77.8443C13.8812 78.4073 15.5854 78.61 17.237 78.3022C18.8511 78.0095 20.3451 77.1986 21.4036 76.0575C22.4772 74.9239 23.0477 73.3849 23.0327 71.9585C23.0477 70.5321 22.4772 69.1657 21.5537 68.2573C19.6469 66.4405 16.8841 66.6282 15.5854 67.927C14.9247 68.5576 14.6169 69.3234 14.4893 69.9765C14.3617 70.6372 14.4142 71.2228 14.5493 71.6657C14.8271 72.5591 15.255 72.8669 15.225 72.8669L15.3676 72.7618C15.3676 72.7618 15.3076 72.6642 15.1875 72.469C15.0974 72.2738 14.9547 71.996 14.8947 71.5756C14.752 70.8023 14.9247 69.3985 16.0733 68.4675C16.6289 68.0321 17.4397 67.7693 18.303 67.8444C19.1589 67.9195 20.0973 68.3024 20.7354 69.0306C22.0492 70.4645 22.1093 73.3023 20.33 75.0215C19.4742 75.9074 18.288 76.538 16.9442 76.7632C15.6379 76.9884 14.1665 76.8533 12.7626 76.3803C9.93979 75.4719 7.28217 73.3098 5.63805 70.3519C5.10502 69.421 4.69962 68.4075 4.39182 67.3564C4.44437 67.1462 4.48942 66.9285 4.54947 66.7183C4.91734 65.4871 5.50291 64.3234 6.36627 63.4301C7.22962 62.5442 8.37074 61.9586 9.59445 61.8685C10.2025 61.831 10.7956 61.9136 11.3737 62.1763C11.8692 62.4091 12.3722 62.837 12.71 63.34C13.4007 64.3385 13.5358 65.7949 12.6425 66.7108C11.8091 67.6042 10.1875 67.9796 9.14401 67.0937L9.02389 67.2213C9.51938 67.7468 10.2851 68.0096 11.0133 67.957C11.7416 67.912 12.4698 67.6267 13.0328 67.1162C13.6184 66.6207 13.9563 65.8475 14.0088 65.0817C14.0689 64.3009 13.8361 63.5352 13.4533 62.8745C13.0554 62.2139 12.5223 61.6583 11.7941 61.2604C11.1335 60.9076 10.3302 60.7199 9.56442 60.7274C8.0254 60.7274 6.5014 61.4031 5.41283 62.4616C4.76719 63.0772 4.25669 63.8054 3.84378 64.5712C3.68612 63.1148 3.70114 61.6283 3.91135 60.1568C4.1741 58.3701 4.6771 56.6133 5.42033 54.9542C6.1936 53.3101 7.19208 51.7636 8.41579 50.4423C9.62448 49.1135 11.0959 48.0099 12.65 47.2441C14.2565 46.4333 15.9382 46.0204 17.6799 45.9153C18.4006 45.8703 19.1289 45.9003 19.8421 45.9754C20.6679 47.154 21.2685 48.4303 21.4712 49.7666C21.824 51.6209 21.4036 53.4903 20.4126 54.6539C19.4367 55.8701 17.8676 56.5458 16.6664 56.3281C15.3376 56.1554 14.4142 55.1119 14.0388 54.0834C13.9487 53.8281 13.8962 53.5503 13.8662 53.3251C13.8436 53.0098 13.8361 52.8146 13.8812 52.5518C13.9412 52.0639 14.1289 51.6284 14.3241 51.2606C14.737 50.5098 15.3076 50.0669 15.713 49.8267C16.1109 49.5789 16.3811 49.5038 16.3811 49.5038L16.3361 49.3387C16.3361 49.3387 16.0733 49.3462 15.5703 49.5189C15.0824 49.6915 14.3692 50.0669 13.7235 50.8552C13.0929 51.6434 12.5524 52.8972 12.9277 54.4212C13.1154 55.1344 13.4608 55.8776 14.0463 56.4857C14.3391 56.7935 14.677 57.0713 15.0673 57.304C15.2776 57.4241 15.4352 57.5067 15.728 57.6118C15.9232 57.6719 16.0658 57.7395 16.3511 57.7845C18.3105 58.1674 20.3526 57.259 21.6138 55.5998C22.9351 53.8731 22.9802 51.5233 22.3871 49.5489C22.0042 48.2951 21.3586 47.154 20.6003 46.088C22.9877 46.5009 25.1873 47.597 26.6888 49.3237C28.7984 51.7335 29.947 54.9542 29.947 57.8596C29.9545 60.7724 28.4005 63.4226 26.1708 64.5337C23.9861 65.6898 21.3135 64.924 20.0297 63.4151C18.6859 61.876 18.8736 59.7139 19.6694 58.4977C20.4802 57.2214 21.779 56.7785 22.5823 56.6809C22.9952 56.6284 23.3255 56.6509 23.5432 56.6809C23.7609 56.7185 23.8735 56.7335 23.8735 56.7335L23.9186 56.5683C23.9186 56.5683 23.806 56.5383 23.5807 56.4707C23.3555 56.4182 23.0177 56.3506 22.5597 56.3581C21.6889 56.3806 20.2249 56.6959 19.1063 58.1073C18.5658 58.8055 18.1904 59.7589 18.1454 60.8325C18.0928 61.8986 18.3856 63.1148 19.1589 64.1283C19.9171 65.1418 21.0808 65.9451 22.4546 66.2904C23.806 66.6583 25.4201 66.5757 26.8315 65.915C28.2579 65.2769 29.4966 64.1508 30.3674 62.7544C31.2683 61.358 31.7188 59.6313 31.7713 57.9046C31.8314 56.1704 31.4935 54.4137 30.8554 52.762C30.2248 51.0954 29.3164 49.4813 28.0251 48.1075C25.8029 45.6976 22.5147 44.4213 19.2114 44.3387C19.1739 44.3012 19.1439 44.2562 19.1063 44.2186C17.6799 42.6571 16.1484 41.1781 14.722 39.6166C13.3031 38.04 11.9142 36.4635 10.638 34.8419C9.56442 33.5056 8.60347 32.1317 7.76264 30.7353C8.04042 30.2549 8.31068 29.7669 8.57344 29.2789C9.60947 27.3345 10.6004 25.3225 11.4037 23.2204C12.2295 21.1259 12.8452 18.9412 13.228 16.7415C13.6109 14.5419 13.7686 12.3422 13.7686 10.2101C13.7761 9.14403 13.6935 8.093 13.6034 7.07199C13.4983 6.02846 13.3181 4.99244 12.9428 4.00146C12.5599 2.99547 12.0644 2.08707 11.2311 1.33633C10.4503 0.660668 9.50436 0.187702 8.50588 0.0450611C8.01039 -0.0300129 7.49238 -0.00749072 7.01941 0.10512L6.66656 0.210224C6.48639 0.270283 6.46386 0.292805 6.35125 0.33785C6.13354 0.435446 5.88579 0.585594 5.71312 0.71322C4.96238 1.26877 4.52695 2.05705 4.32425 2.81529C4.12906 3.58856 4.1741 4.35431 4.44437 4.99995C4.69212 5.61555 5.13505 6.10354 5.56297 6.41134C6.44885 7.04196 7.3122 7.13205 7.85273 7.08701C8.40077 7.03445 8.66353 6.90683 8.66353 6.90683L8.61849 6.74166C8.61849 6.74166 8.34822 6.80923 7.85273 6.76419C7.37226 6.71914 6.62903 6.50894 6.00591 5.88582C5.37529 5.27772 4.95487 4.23419 5.39781 3.16063C5.81072 2.09458 6.93683 1.22372 8.25062 1.55405C8.89626 1.69669 9.54941 2.07206 10.0599 2.61259C10.195 2.75523 10.2926 2.87535 10.4052 3.0255C10.4578 3.10057 10.5704 3.24322 10.5779 3.27324C10.6305 3.35583 10.683 3.43841 10.7356 3.5285C10.9308 3.87384 11.0959 4.24921 11.2311 4.65461C11.7491 6.26119 11.8617 8.28068 11.9668 10.3002C12.0569 12.3272 11.9668 14.4368 11.7115 16.5613C11.4638 18.6859 11.0584 20.8406 10.5028 22.9652C9.91727 25.0823 9.14401 27.1618 8.10798 29.0687C7.89778 29.4591 7.67255 29.8495 7.43983 30.2323C7.38727 30.1347 7.31971 30.0371 7.26716 29.9395C6.82422 29.0837 6.36627 28.2579 6.01342 27.402L5.87078 27.0867L5.75066 26.7789L5.49541 26.1183C5.33775 25.6904 5.21013 25.3 5.07499 24.8871C4.5795 23.2129 4.29422 21.5763 4.21915 20.0523C4.12155 18.5283 4.24167 17.1169 4.45188 15.8932C4.65458 14.6545 5.02244 13.6184 5.37529 12.7851C5.54045 12.3647 5.72063 11.9968 5.8933 11.689C6.05846 11.3737 6.20861 11.111 6.34374 10.9083C6.6065 10.4879 6.74914 10.2626 6.74914 10.2626L6.61401 10.15C6.61401 10.15 6.42633 10.3452 6.08099 10.7056C5.90081 10.8858 5.70562 11.126 5.48039 11.4263C5.24766 11.7116 4.99992 12.0644 4.75217 12.4698C3.73117 14.0764 2.71767 16.7565 2.65761 20.0898C2.63509 21.749 2.82277 23.5583 3.32577 25.3976C3.45339 25.8555 3.60354 26.351 3.75369 26.8014L4.00894 27.4621L4.15158 27.8225L4.30173 28.1603C4.69212 29.0762 5.17259 29.9696 5.69811 30.8554C5.91582 31.2083 6.14104 31.5536 6.37377 31.8915C5.78069 32.7398 5.13505 33.5506 4.54197 34.3839C3.32577 36.0806 2.21467 37.98 1.95191 40.0595C1.80927 41.088 1.86933 42.1391 2.15461 43.1225C2.23719 43.3928 2.32728 43.6255 2.40986 43.8132C2.52248 44.0685 2.62758 44.2862 2.76271 44.5039C3.01796 44.9393 3.33328 45.3147 3.67111 45.645C5.02244 46.9588 6.97437 47.4994 8.49086 46.9588C9.29415 46.7111 9.87222 46.1781 10.2401 45.63C10.6155 45.082 10.8182 44.5039 10.8932 43.9709C11.0584 42.9048 10.7206 42.0565 10.3827 41.6211C9.99985 41.1631 9.75961 41.0805 9.75961 41.058L9.63949 41.1856C9.63949 41.1856 9.87973 41.3883 10.0824 41.8087C10.2926 42.2367 10.4503 42.9724 10.1725 43.8132C9.91727 44.624 9.2341 45.615 8.17555 45.8402C7.07196 46.118 5.69811 45.6525 4.71464 44.6015C3.69363 43.5955 3.29574 41.9664 3.46841 40.2397C3.61856 38.498 4.30924 36.6737 5.33775 34.8869C5.78069 34.0836 6.27618 33.2803 6.76416 32.462C7.58247 33.6407 8.47585 34.7968 9.45932 35.8854C10.8782 37.477 12.4398 38.9484 14.0538 40.3523C15.5628 41.7112 17.1544 42.9649 18.4907 44.4063C18.1829 44.4138 17.8676 44.4138 17.5598 44.4438C16.5989 44.5339 15.6529 44.7366 14.722 45.0069C13.8286 45.2997 12.8301 45.6901 12.0644 46.1405C10.3602 47.1165 8.89626 48.3927 7.69508 49.8792C6.47137 51.3507 5.53294 53.0248 4.81974 54.759C4.09152 56.4857 3.60354 58.3175 3.37081 60.1493C3.12307 61.9962 3.10055 63.873 3.34078 65.6973C3.2582 65.9075 3.16811 66.1102 3.09304 66.3204C2.63509 67.7168 2.39485 69.1582 2.33479 70.6071C2.21467 73.5125 2.83028 76.3353 3.61105 79.0304C4.42185 81.7256 5.43535 84.2931 6.27618 86.8757C6.69659 88.167 7.07196 89.4582 7.34223 90.772C7.47736 91.4252 7.58997 92.0783 7.66505 92.739C7.74763 93.3921 7.78517 94.0227 7.80018 94.7359C7.8152 96.0197 7.68006 97.3785 7.46235 98.6848C7.38727 99.1052 7.29718 99.5257 7.19959 99.9461C6.97437 100.051 6.75665 100.149 6.52392 100.224C5.83324 100.434 5.12754 100.509 4.4744 100.397C3.82126 100.276 3.19814 100.006 2.72518 99.6233C1.78675 98.9251 1.4339 97.5362 1.78675 96.5677C2.07954 95.5693 3.11556 95.0362 4.01645 95.0437C4.4744 95.0588 4.84977 95.1864 5.1876 95.4567C5.44286 95.6669 5.68309 96.0197 5.7957 96.3425C6.04345 97.0107 5.93834 97.6338 5.77318 97.9866C5.61553 98.3545 5.44286 98.5122 5.44286 98.5122L5.55547 98.6473C5.55547 98.6473 5.60051 98.6098 5.69811 98.5347C5.7882 98.4596 5.92333 98.3395 6.05846 98.1518C6.33624 97.784 6.6065 97.0783 6.46386 96.1699C6.38879 95.7119 6.20861 95.2389 5.77318 94.766C5.40532 94.3681 4.78971 94.0227 4.12906 93.9176C3.4609 93.82 2.71767 93.8801 2.01948 94.2254C1.32129 94.5558 0.668147 95.1939 0.330314 95.9897C-0.35286 97.5737 -0.0300419 99.6758 1.5315 101.005C2.47743 101.868 3.79123 102.303 5.11253 102.296C4.25669 102.701 3.42336 103.174 2.66512 103.775C1.54651 104.653 0.563043 105.929 0.337821 107.476L0.262747 107.994L0.818295 108.017C2.30476 108.069 3.85129 107.559 5.00743 106.59C5.93084 105.839 6.63653 104.901 7.19959 103.895C7.18457 105.231 7.62 106.553 8.49086 107.506C9.81967 109.068 11.9217 109.39 13.5058 108.707C14.2941 108.369 14.9397 107.716 15.27 107.018C15.6154 106.32 15.6754 105.577 15.5779 104.908C15.4727 104.248 15.1274 103.632 14.7295 103.264C14.2565 102.829 13.7836 102.649 13.3256 102.574C12.4172 102.439 11.719 102.701 11.3437 102.979C11.156 103.114 11.0284 103.249 10.9608 103.339C10.8857 103.43 10.8482 103.482 10.8482 103.482L10.9833 103.595C10.9833 103.595 11.141 103.422 11.5088 103.264C11.8617 103.099 12.4848 103.002 13.153 103.242C13.4758 103.354 13.8286 103.595 14.0388 103.85C14.3091 104.188 14.4367 104.571 14.4517 105.021C14.4592 105.922 13.9262 106.958 12.9277 107.251C11.9593 107.611 10.5704 107.251 9.87222 106.32C9.48935 105.839 9.21908 105.224 9.09896 104.571C8.98635 103.917 9.05392 103.212 9.27163 102.521C9.39926 102.108 9.60196 101.703 9.8497 101.312C10.0824 101.26 10.3152 101.185 10.5479 101.14C11.8992 100.862 13.243 100.719 14.6244 100.704C17.3496 100.704 20.0373 101.41 22.6123 102.318C25.2099 103.212 27.7398 104.315 30.4125 105.201C33.0701 106.065 35.8929 106.703 38.7907 106.643C39.519 106.613 40.2247 106.568 40.9679 106.44C41.3433 106.387 41.6961 106.312 42.0264 106.237L42.2817 106.177L42.567 106.102L43.0925 105.944C43.3177 105.869 43.5354 105.779 43.7606 105.689C45.6 105.929 47.4843 105.907 49.3386 105.659C51.1705 105.426 53.0023 104.938 54.729 104.21C56.4632 103.497 58.1373 102.559 59.6088 101.335C61.0952 100.134 62.3715 98.6698 63.3475 96.9656C63.7979 96.1924 64.1883 95.1939 64.4811 94.308C64.7514 93.3771 64.954 92.4312 65.0441 91.4702C65.0742 91.1624 65.0742 90.8546 65.0817 90.5393C66.5231 91.8831 67.7768 93.4672 69.1357 94.9762C70.5396 96.5903 72.011 98.1518 73.6026 99.5707C74.6912 100.547 75.8473 101.448 77.026 102.266C76.2076 102.761 75.4044 103.249 74.6011 103.692C72.8143 104.713 70.99 105.411 69.2483 105.562C67.5216 105.734 65.9 105.329 64.8865 104.315C63.8354 103.332 63.37 101.958 63.6478 100.854C63.873 99.7959 64.864 99.1128 65.6748 98.8575C66.5231 98.5797 67.2513 98.7374 67.6792 98.9476C68.0921 99.1503 68.2948 99.4131 68.3024 99.3905L68.43 99.2704C68.43 99.2704 68.3249 99.0302 67.8669 98.6473C67.424 98.317 66.5832 97.9791 65.5171 98.1368C64.9841 98.2119 64.406 98.4146 63.858 98.7899C63.3099 99.1578 62.7769 99.7434 62.5292 100.539C61.9811 102.048 62.5292 104 63.843 105.359C64.1733 105.697 64.5562 106.012 64.9841 106.267C65.2018 106.402 65.4195 106.508 65.6748 106.62C65.8624 106.703 66.1027 106.793 66.3654 106.875C67.3489 107.168 68.3999 107.221 69.4285 107.078C71.508 106.815 73.4074 105.704 75.1041 104.488C75.9449 103.895 76.7482 103.242 77.5965 102.656C77.9419 102.889 78.2872 103.114 78.6325 103.332C79.5184 103.857 80.4118 104.338 81.3277 104.728L81.6655 104.878L82.0259 105.021L82.6865 105.276C83.1445 105.426 83.6325 105.577 84.0904 105.704C85.9297 106.2 87.739 106.395 89.3982 106.372C92.7314 106.312 95.4116 105.299 97.0182 104.278C97.4311 104.03 97.7764 103.79 98.0617 103.55C98.3545 103.332 98.6022 103.137 98.7824 102.949C99.1428 102.596 99.338 102.416 99.338 102.416L99.2253 102.281C99.2253 102.281 99.0001 102.424 98.5797 102.686C98.377 102.829 98.1143 102.979 97.7989 103.137C97.4911 103.317 97.1233 103.49 96.7029 103.655C95.8695 104.008 94.8335 104.375 93.5948 104.578C92.3636 104.788 90.9597 104.901 89.4357 104.811C87.9117 104.728 86.2751 104.443 84.6009 103.955C84.188 103.82 83.7976 103.692 83.3697 103.535L82.7091 103.279L82.4013 103.159L82.0859 103.017C81.2376 102.664 80.4043 102.206 79.5484 101.763C79.4508 101.71 79.3532 101.643 79.2557 101.59C79.6385 101.357 80.0289 101.132 80.4193 100.922C82.3262 99.886 84.4057 99.1203 86.5228 98.5272C88.6474 97.9716 90.802 97.5662 92.9266 97.3185C95.0512 97.0632 97.1608 96.9731 99.1878 97.0632C101.207 97.1758 103.227 97.281 104.833 97.799C105.239 97.9341 105.614 98.0993 105.959 98.2944C106.05 98.3395 106.125 98.3996 106.215 98.4521C106.245 98.4671 106.38 98.5722 106.462 98.6248C106.613 98.7374 106.725 98.835 106.868 98.9701C107.401 99.4881 107.784 100.134 107.926 100.779C108.257 102.093 107.386 103.212 106.32 103.632C105.246 104.068 104.195 103.655 103.595 103.024C102.972 102.401 102.761 101.658 102.716 101.177C102.664 100.682 102.739 100.412 102.739 100.412L102.574 100.366C102.574 100.366 102.446 100.629 102.393 101.177C102.348 101.718 102.439 102.589 103.069 103.467C103.377 103.895 103.857 104.338 104.481 104.586C105.126 104.856 105.899 104.901 106.665 104.706C107.423 104.503 108.212 104.068 108.767 103.317C108.902 103.144 109.045 102.896 109.143 102.679C109.188 102.566 109.21 102.544 109.27 102.363L109.375 102.011C109.488 101.53 109.51 101.02 109.435 100.524L109.413 100.494ZM4.24167 105.622C3.46841 106.342 2.49245 106.785 1.44141 106.935C1.70417 105.937 2.3423 105.029 3.16811 104.308C4.09903 103.482 5.23265 102.859 6.41131 102.363C6.3963 102.394 6.38879 102.424 6.37377 102.454C5.85576 103.655 5.16508 104.773 4.24167 105.629V105.622Z" fill="url(#paint0_linear_1405_17551)"/>
<defs>
<linearGradient id="paint0_linear_1405_17551" x1="-1.21907e-05" y1="54.4963" x2="109.458" y2="54.4963" gradientUnits="userSpaceOnUse">
<stop stop-color="#A47A3F"/>
<stop offset="0.41" stop-color="#E6B672"/>
<stop offset="0.53" stop-color="#FAC982"/>
<stop offset="0.65" stop-color="#E9B772"/>
<stop offset="0.89" stop-color="#BE8A4B"/>
<stop offset="1" stop-color="#A87338"/>
</linearGradient>
</defs>
</svg>
