<svg width="62" height="50" viewBox="0 0 62 50" fill="none" xmlns="http://www.w3.org/2000/svg">
<g id="handshake" clip-path="url(#clip0_119_1469)">
<path id="Vector" d="M60.8969 14.5013C60.67 13.5686 60.0963 12.7814 59.2809 12.2846L47.3104 4.99103C46.7501 4.65001 46.1078 4.46924 45.4514 4.46924C44.2039 4.46924 43.0283 5.12757 42.3821 6.18719L41.1168 8.26411C40.3001 9.60449 40.4725 11.2724 41.4225 12.4186C39.0873 15.8244 36.0091 15.6763 35.8334 15.6654C35.0174 15.6372 27.7655 15.4872 23.4456 19.7051L17.3328 16.2455C17.3937 15.791 17.3674 15.3237 17.2482 14.8654C17.0065 13.9365 16.42 13.1583 15.5963 12.675L13.4995 11.443C12.9514 11.1212 12.3257 10.9506 11.6898 10.9506C10.4187 10.9506 9.23151 11.6282 8.59112 12.7186L1.49048 24.8045C0.489199 26.5096 1.06163 28.7115 2.76676 29.7128L4.86356 30.9449C5.41163 31.2667 6.03728 31.4365 6.67317 31.4365C7.68279 31.4365 8.63471 31.0045 9.30651 30.2821L12.9456 32.4833C12.9866 32.509 13.9546 33.1372 14.3745 35.1372C14.6751 36.5724 15.7578 37.7122 16.5443 38.3776C16.4078 38.7615 16.3302 39.1654 16.3302 39.5744C16.3302 40.8564 17.0206 42.0487 18.1321 42.6865C18.693 43.0083 19.3059 43.1615 19.911 43.1615C19.9341 43.1615 19.9571 43.1577 19.9809 43.1571C20.0206 44.3955 20.6969 45.5378 21.7751 46.1564C22.318 46.468 22.9347 46.6327 23.5578 46.6327C24.1232 46.6327 24.668 46.4917 25.1584 46.2468C25.4706 46.8231 25.9347 47.316 26.5206 47.6526C27.0713 47.9686 27.6821 48.1295 28.3001 48.1295C28.6148 48.1295 28.9309 48.0878 29.243 48.0032C29.5104 47.9308 29.7604 47.8218 29.9988 47.6949C30.311 48.2756 30.777 48.7724 31.3661 49.1103C31.9277 49.4327 32.5411 49.5859 33.1463 49.5859C34.3886 49.5859 35.5975 48.941 36.2571 47.7923L36.8501 46.7763L37.5501 47.1795C38.093 47.491 38.7097 47.6558 39.3334 47.6558C40.6155 47.6558 41.8078 46.9654 42.4456 45.8545C42.7597 45.3077 42.911 44.7122 42.9187 44.1224C44.1789 44.1026 45.3462 43.4199 45.9751 42.325C46.2892 41.7782 46.4405 41.1827 46.4482 40.593C47.7084 40.5731 48.8757 39.8904 49.5046 38.7955C49.8001 38.2808 49.9501 37.7231 49.9738 37.1673C50.07 37.175 50.1655 37.1865 50.2623 37.1865C51.5443 37.1865 52.7366 36.4962 53.3745 35.3853C54.186 33.9712 53.9219 32.2321 52.8437 31.1122C53.1572 30.0596 53.4674 28.1846 52.718 25.9609C52.3514 24.8724 53.636 22.4641 54.8591 20.7622C55.2674 20.9192 55.7007 21.0077 56.1424 21.0077C57.3898 21.0077 58.5661 20.3494 59.2116 19.2897L60.4777 17.2128C60.9745 16.3968 61.1232 15.434 60.8969 14.5013ZM6.03279 28.9551L3.93599 27.7231C3.3283 27.366 3.12381 26.5814 3.48151 25.9737L10.5815 13.8878C10.8091 13.5 11.2341 13.259 11.6905 13.259C11.9155 13.259 12.1373 13.3192 12.3315 13.4327L14.4283 14.6648C14.7206 14.8365 14.9289 15.1141 15.0155 15.4462C15.102 15.7782 15.0552 16.1224 14.8828 16.4147L7.78279 28.5006C7.4424 29.0795 6.62061 29.2994 6.03279 28.9551ZM19.2802 40.6853C18.8834 40.4577 18.6373 40.0314 18.6373 39.5744C18.6373 39.3506 18.6943 39.1372 18.802 38.95L23.2289 31.4135C23.5796 30.8019 24.3636 30.5904 24.9738 30.941C25.27 31.1109 25.4821 31.3859 25.5719 31.7154C25.661 32.0455 25.6168 32.3897 25.4469 32.6859C25.4302 32.7154 25.4225 32.7474 25.4187 32.7801L21.1918 39.9942C21.1296 40.0596 21.0725 40.1308 21.0257 40.2122C20.6745 40.8237 19.8924 41.0378 19.2802 40.6853ZM22.9225 44.1551C22.5264 43.9282 22.2802 43.5019 22.2802 43.0442C22.2802 42.8205 22.3373 42.6071 22.4456 42.4192L27.9924 32.9513C28.22 32.5551 28.6456 32.309 29.1033 32.309C29.3277 32.309 29.5411 32.366 29.7379 32.4789C30.0341 32.6487 30.2463 32.9237 30.3354 33.2532C30.4245 33.5827 30.3802 33.9276 30.2148 34.2147L29.6559 35.1686C29.643 35.1897 29.6283 35.209 29.6161 35.2301C29.6116 35.2385 29.6091 35.2474 29.6046 35.2558L25.277 42.641C25.2488 42.6788 25.2187 42.7141 25.1943 42.7564C25.1648 42.8077 25.143 42.8628 25.1161 42.9154L24.6668 43.6821C24.3289 44.2731 23.5219 44.4987 22.9225 44.1551ZM28.6392 45.7769C28.3097 45.8667 27.9648 45.8218 27.6687 45.6519C27.2725 45.4244 27.0264 44.9987 27.0264 44.541C27.0264 44.35 27.077 44.1686 27.1597 43.9968L31.6392 36.3513C31.9988 35.7647 32.7629 35.5628 33.3629 35.9077C33.9745 36.259 34.1866 37.0417 33.8418 37.643L29.4142 45.1795C29.2443 45.475 28.9687 45.6872 28.6392 45.7769ZM32.5136 47.1096C32.1174 46.8821 31.8713 46.4564 31.8713 45.9987C31.8713 45.7744 31.9283 45.5609 32.0411 45.3647C32.0956 45.2699 32.1296 45.1705 32.1552 45.0692L35.1046 40.0481C35.1668 39.9827 35.2245 39.9115 35.2713 39.8301C35.6219 39.2186 36.4046 39.0071 37.0168 39.3577C37.3129 39.5276 37.5251 39.8026 37.6142 40.1321C37.7033 40.4615 37.6591 40.8064 37.493 41.0949L34.2591 46.6372C33.9078 47.2487 33.1264 47.4615 32.5136 47.1096ZM40.4443 44.7058C40.1072 45.2936 39.295 45.5205 38.6988 45.1782L38.0116 44.784L39.277 42.6154L40.2283 43.1615C40.6322 43.559 40.7392 44.1917 40.4443 44.7058ZM51.3738 34.2359C51.0347 34.8263 50.2328 35.0551 49.6251 34.7064L43.7892 31.3814C43.2354 31.0654 42.5309 31.259 42.2155 31.8128C41.9001 32.3667 42.093 33.0712 42.6469 33.3865L46.9847 35.8583C46.9995 35.8731 47.0116 35.8904 47.0309 35.9013C47.6424 36.2526 47.8546 37.0353 47.5039 37.6468C47.1661 38.234 46.3533 38.4609 45.7584 38.1192L40.6982 35.2147C40.1463 34.8974 39.4405 35.0885 39.1232 35.641C38.8059 36.1936 38.9969 36.8987 39.5495 37.216L43.7584 39.6321C44.1623 40.0301 44.2687 40.6622 43.9738 41.1756C43.6366 41.7635 42.8251 41.9904 42.2283 41.6481L39.9552 40.3436C39.9456 40.0712 39.9142 39.7981 39.8411 39.5282C39.5905 38.6039 38.9956 37.8321 38.1648 37.3545C37.5783 37.0186 36.936 36.8712 36.3052 36.8853C36.2597 35.6904 35.6225 34.543 34.5116 33.9051C33.9334 33.5737 33.3007 33.425 32.6777 33.4346C32.6661 33.1724 32.6328 32.9103 32.5623 32.6506C32.3116 31.7263 31.7168 30.9545 30.886 30.4776C30.343 30.166 29.7264 30.0013 29.1027 30.0013C28.5392 30.0013 27.9963 30.141 27.5072 30.3846C27.1943 29.7859 26.7225 29.2833 26.1219 28.9391C24.4071 27.9545 22.211 28.5494 21.2328 30.2545L17.686 36.2923C17.2225 35.8397 16.7578 35.2564 16.6334 34.6635C15.9943 31.6173 14.286 30.5891 14.1296 30.5026L10.5533 28.3391L16.4071 18.3737L22.3354 21.7289C22.2937 21.9526 22.2687 22.1808 22.2687 22.4135C22.2687 23.4039 22.6546 24.3353 23.3546 25.0353C24.0546 25.7353 24.986 26.1205 25.9764 26.1205C26.9668 26.1205 27.8982 25.7353 28.5982 25.0353C29.8366 23.7968 32.3661 23.2724 34.1854 23.1218C35.7668 23.6859 50.9007 32.4904 50.9007 32.4904C51.5123 32.8417 51.7245 33.625 51.3738 34.2359ZM50.5315 26.6968C50.9488 27.9359 50.9232 29.0077 50.7956 29.7692C50.7956 29.7692 37.4597 22.0673 36.7296 21.7013C36.6289 21.1853 36.186 20.7878 35.6379 20.7692C35.5809 20.7667 29.7642 20.6045 26.9661 23.4026C26.4379 23.9314 25.5148 23.9314 24.9866 23.4026C24.7219 23.1378 24.5764 22.7865 24.5764 22.4128C24.5764 22.0391 24.7219 21.6878 24.9866 21.4231C28.602 17.8071 35.0238 17.9436 35.6975 17.9686C35.8924 17.9821 40.1809 18.2647 43.2847 13.784L52.843 19.6077C51.6424 21.2987 49.77 24.4353 50.5315 26.6968ZM58.5065 16.0115L57.2405 18.0885C56.8918 18.6615 56.0642 18.868 55.4834 18.5154L43.5142 11.2218C42.9123 10.8551 42.7206 10.0667 43.0873 9.46475L44.3527 7.38783C44.5821 7.0109 45.0033 6.77629 45.4507 6.77629C45.6834 6.77629 45.911 6.84039 46.1091 6.9609L58.0789 14.2539C58.6821 14.6218 58.8732 15.4096 58.5065 16.0115Z" fill="url(#paint0_linear_119_1469)"/>
<path id="Vector_2" d="M27.6175 9.36861C28.2546 9.36861 28.7713 8.85194 28.7713 8.21476V1.56669C28.7713 0.929509 28.2546 0.412842 27.6175 0.412842C26.9803 0.412842 26.4636 0.929509 26.4636 1.56669V8.21476C26.4636 8.85194 26.9796 9.36861 27.6175 9.36861Z" fill="url(#paint1_linear_119_1469)"/>
<path id="Vector_3" d="M21.6052 9.03072C21.8308 9.25572 22.1264 9.36854 22.4212 9.36854C22.7161 9.36854 23.0116 9.25572 23.2373 9.03072C23.6879 8.58008 23.6879 7.84931 23.2373 7.39867L18.8187 2.98008C18.368 2.53008 17.6373 2.53008 17.1866 2.98008C16.736 3.43072 16.736 4.16149 17.1866 4.61213L21.6052 9.03072Z" fill="url(#paint2_linear_119_1469)"/>
<path id="Vector_4" d="M32.8136 9.36854C33.1084 9.36854 33.4039 9.25572 33.6296 9.03072L38.0482 4.61213C38.4988 4.16149 38.4988 3.43072 38.0482 2.98008C37.5975 2.53008 36.8668 2.53008 36.4161 2.98008L31.9975 7.39867C31.5469 7.84931 31.5469 8.58008 31.9975 9.03072C32.2225 9.25572 32.518 9.36854 32.8136 9.36854Z" fill="url(#paint3_linear_119_1469)"/>
</g>
<defs>
<linearGradient id="paint0_linear_119_1469" x1="8.01073" y1="12.9652" x2="46.4315" y2="49.2279" gradientUnits="userSpaceOnUse">
<stop stop-color="#222953"/>
<stop offset="1" stop-color="#58517B"/>
</linearGradient>
<linearGradient id="paint1_linear_119_1469" x1="26.7334" y1="2.09932" x2="29.4369" y2="2.59371" gradientUnits="userSpaceOnUse">
<stop stop-color="#222953"/>
<stop offset="1" stop-color="#58517B"/>
</linearGradient>
<linearGradient id="paint2_linear_119_1469" x1="17.6349" y1="3.90916" x2="23.0507" y2="7.75305" gradientUnits="userSpaceOnUse">
<stop stop-color="#222953"/>
<stop offset="1" stop-color="#58517B"/>
</linearGradient>
<linearGradient id="paint3_linear_119_1469" x1="32.4458" y1="3.90916" x2="37.8617" y2="7.75305" gradientUnits="userSpaceOnUse">
<stop stop-color="#222953"/>
<stop offset="1" stop-color="#58517B"/>
</linearGradient>
<clipPath id="clip0_119_1469">
<rect width="60.8333" height="50" fill="white" transform="translate(0.583374)"/>
</clipPath>
</defs>
</svg>
