<svg width="60" height="50" viewBox="0 0 60 50" fill="none" xmlns="http://www.w3.org/2000/svg">
<g id="mony" clip-path="url(#clip0_119_1480)">
<path id="Vector" d="M57.6612 8.449C57.6612 8.40271 57.6566 8.35642 57.6381 8.3055C57.6381 8.29624 57.6288 8.29162 57.6288 8.28236C57.6242 8.26847 57.6149 8.25921 57.6103 8.24533C57.5918 8.2083 57.5686 8.1759 57.5409 8.14349C57.5316 8.13424 57.5223 8.12498 57.5131 8.11572C57.4807 8.08795 57.4483 8.0648 57.4113 8.04629C57.402 8.04166 57.3927 8.03703 57.3835 8.0324C57.3326 8.01389 57.2816 8 57.2215 8H11.5813C11.4887 8 11.3961 8.02777 11.322 8.08332L1.17565 15.4385C1.17565 15.4385 1.15251 15.4617 1.14325 15.4709C1.13399 15.4802 1.12473 15.4894 1.11548 15.4987C1.0877 15.5311 1.06456 15.5635 1.04604 15.6052C1.04604 15.6144 1.03679 15.6237 1.03216 15.6329C1.00901 15.6885 0.999756 15.744 0.999756 15.7996V41.846C0.999756 42.0867 1.1988 42.2857 1.43949 42.2857H47.0797C47.1353 42.2857 47.1862 42.2718 47.2371 42.2533C47.2556 42.2487 47.2695 42.2394 47.2834 42.2302C47.3019 42.2209 47.325 42.2117 47.3389 42.2024L57.4853 34.8518C57.601 34.7685 57.6658 34.6389 57.6658 34.4954V8.449H57.6612ZM47.5148 21.4375V16.0171L56.7817 9.30533V14.7257L47.5148 21.4375ZM56.7817 15.8088V21.2292L47.5148 27.9456V22.5253L56.7817 15.8135V15.8088ZM1.8746 16.2347H19.6863V21.8633H1.8746V16.2347ZM1.8746 22.7428H19.6863V28.3715H1.8746V22.7428ZM19.6863 41.4109H1.8746V35.7822H19.6863V41.4109ZM19.6863 34.9027H1.8746V29.2741H19.6863V34.9027ZM19.9779 15.3598H2.79111L11.7247 8.88411H28.7079L27.3285 9.90708H15.2658C15.1778 9.90708 15.0945 9.93022 15.0251 9.98114C14.3678 10.4116 12.7431 10.7727 11.4702 10.7727C11.3776 10.7727 11.2896 10.8004 11.2109 10.856L7.48937 13.5407C7.33662 13.6518 7.27181 13.8508 7.32736 14.0314C7.38754 14.2119 7.55417 14.3369 7.74395 14.3369H21.3573L19.9779 15.3598ZM26.1389 10.7912L22.8756 13.2121L22.5423 13.4574H9.10483L11.609 11.6521C12.9745 11.629 14.5622 11.2633 15.3815 10.7912H26.1343H26.1389ZM20.5612 21.868V16.2393H29.2495V21.868H20.5612ZM29.2495 22.7474V28.3761H20.5612V22.7474H29.2495ZM29.2495 41.4109H20.5612V35.7822H29.2495V41.4109ZM29.2495 34.9027H20.5612V29.2741H29.2495V34.9027ZM29.5411 15.3598H21.4499L30.1845 8.88411H38.2711L29.5457 15.3552L29.5411 15.3598ZM48.2739 10.7912C48.2739 10.8467 48.2878 10.8976 48.3017 10.9393C48.385 11.2124 48.6211 11.4068 49.0238 11.5225L46.3391 13.4574H33.5821L37.1787 10.7866H48.2739V10.7912ZM30.1243 21.868V16.2393H46.6307V21.868H30.1243ZM46.6307 22.7474V28.3761H30.1243V22.7474H46.6307ZM46.6307 41.4155H30.1243V35.7868H46.6307V41.4155ZM46.6307 34.9074H30.1243V29.2787H46.6307V34.9074ZM46.9223 15.3645H31.0131L32.3925 14.3415H46.478C46.5705 14.3415 46.6585 14.3137 46.7372 14.2582L50.4588 11.5735C50.6115 11.4624 50.6809 11.2633 50.6208 11.0828C50.5606 10.9023 50.394 10.7773 50.2042 10.7773C49.7783 10.7773 49.496 10.7356 49.3201 10.694C49.4589 10.5829 49.5145 10.3977 49.4636 10.2265C49.408 10.0413 49.2367 9.91171 49.0423 9.91171H38.3636L39.743 8.88873H55.8606L46.927 15.3598L46.9223 15.3645ZM56.7725 34.2825L47.5056 40.9989V35.5785L49.5376 34.1066L56.7678 28.8667V34.2871L56.7725 34.2825ZM56.7725 27.7743L49.5052 33.0373L47.5056 34.4861V29.0658L56.7725 22.354V27.7743Z" fill="url(#paint0_linear_119_1480)" stroke="url(#paint1_linear_119_1480)"/>
</g>
<defs>
<linearGradient id="paint0_linear_119_1480" x1="7.62306" y1="14.4564" x2="36.501" y2="48.3281" gradientUnits="userSpaceOnUse">
<stop stop-color="#222953"/>
<stop offset="1" stop-color="#58517B"/>
</linearGradient>
<linearGradient id="paint1_linear_119_1480" x1="7.62306" y1="14.4564" x2="36.501" y2="48.3281" gradientUnits="userSpaceOnUse">
<stop stop-color="#222953"/>
<stop offset="1" stop-color="#58517B"/>
</linearGradient>
<clipPath id="clip0_119_1480">
<rect width="58.2857" height="50" fill="white" transform="translate(0.857178)"/>
</clipPath>
</defs>
</svg>
