<svg width="50" height="50" viewBox="0 0 50 50" fill="none" xmlns="http://www.w3.org/2000/svg">
<g id="noun-memo" clip-path="url(#clip0_119_1461)">
<path id="Vector" fill-rule="evenodd" clip-rule="evenodd" d="M42.8761 12.9218L41.9006 12.1607L32.8828 23.7223L33.8589 24.484L42.8761 12.9218ZM45.0428 14.6112L36.0245 26.1707L35.0489 25.4095L44.0661 13.8501L45.0422 14.6112H45.0428ZM42.8295 10.9707L43.9828 9.49177C44.0089 9.4636 44.0329 9.43351 44.0545 9.40177C44.2617 9.1609 44.5512 9.00588 44.8666 8.96695C45.1819 8.92802 45.5004 9.00797 45.76 9.19122C45.789 9.21699 45.8198 9.24057 45.8522 9.26177L46.9445 10.1112C47.2072 10.3192 47.3778 10.6221 47.4193 10.9546C47.4609 11.2872 47.3702 11.6227 47.1667 11.889L45.9734 13.4184L42.8317 10.9679L42.8295 10.9707ZM32.43 25.2807L32.2495 26.9623V26.9768L32.1506 27.899L34.6217 26.989L33.5278 26.1357L32.4339 25.2823L32.43 25.2807ZM4.68447 22.0062L10.2289 44.4351C10.2805 44.6433 10.3726 44.8392 10.5 45.0117C10.6273 45.1843 10.7874 45.33 10.9711 45.4407C11.3073 45.6447 11.706 45.7199 12.0934 45.6523H12.11L36.0545 39.7334L36.65 44.3445C36.6566 44.3918 36.6447 44.4398 36.6167 44.4784C36.5998 44.5041 36.5734 44.5221 36.5434 44.5284L8.22502 48.484H8.21947C8.19441 48.4842 8.17013 48.4753 8.15113 48.459C8.11848 48.4324 8.09738 48.3941 8.09225 48.3523V48.3484L4.68614 22.004L4.68447 22.0062ZM30.6628 5.16233L26.02 2.35122L26.9422 6.08233L30.6645 5.16233H30.6628ZM25.2778 0.14066L33 4.81455C33.0849 4.86564 33.1588 4.93303 33.2174 5.01285C33.2761 5.09266 33.3183 5.18331 33.3417 5.27955L36.2306 16.9707L41.17 10.6373L42.8334 8.51177C43.2867 7.93175 43.9517 7.5554 44.6824 7.4654C45.413 7.3754 46.1495 7.57911 46.73 8.03177L47.8728 8.92399C48.453 9.37716 48.8296 10.0421 48.9198 10.7728C49.01 11.5034 48.8065 12.24 48.3539 12.8207L38.3711 25.6162L41.135 36.7968C41.1869 37.0053 41.1972 37.2219 41.1653 37.4344C41.1334 37.6469 41.0599 37.8509 40.949 38.035C40.8381 38.219 40.692 38.3793 40.519 38.5068C40.3461 38.6343 40.1497 38.7264 39.9411 38.7779L37.5267 39.3745L38.145 44.159C38.2014 44.5897 38.0898 45.0256 37.8334 45.3762C37.7057 45.5525 37.5437 45.7013 37.3572 45.8135C37.1706 45.9258 36.9634 45.9993 36.7478 46.0295L8.43225 49.9812H8.42891H8.42058H8.41447C8.20127 50.0088 7.9847 49.993 7.77774 49.9349C7.57078 49.8767 7.37768 49.7774 7.21002 49.6429C6.87341 49.3745 6.65315 48.9867 6.59502 48.5601V48.5557V48.5457V48.5429L1.53169 9.38899C1.52447 9.33344 1.52002 9.27788 1.51836 9.22233V9.19622L1.1078 7.5351C1.00356 7.11445 1.07066 6.66961 1.29434 6.29841C1.51801 5.92721 1.87996 5.66005 2.30058 5.55566L24.6634 0.0278829H24.6678C24.7719 0.00229244 24.8803 -0.000785582 24.9857 0.0188545C25.091 0.0384945 25.191 0.0804003 25.2789 0.141772L25.2778 0.14066ZM11.1834 21.6301L29.6634 17.0618C29.7597 17.0381 29.8505 16.9956 29.9305 16.9368C30.0104 16.878 30.078 16.8041 30.1294 16.7191C30.1808 16.6342 30.2149 16.54 30.2299 16.4419C30.2449 16.3438 30.2404 16.2437 30.2167 16.1473C30.193 16.0509 30.1505 15.9602 30.0917 15.8802C30.0329 15.8003 29.959 15.7327 29.8741 15.6813C29.7892 15.6299 29.695 15.5957 29.5968 15.5808C29.4987 15.5658 29.3986 15.5703 29.3022 15.594L10.8222 20.1623C10.6276 20.2102 10.46 20.3335 10.3562 20.5049C10.2524 20.6764 10.221 20.8821 10.2689 21.0768C10.3168 21.2714 10.44 21.4391 10.6115 21.5428C10.783 21.6466 10.9887 21.678 11.1834 21.6301ZM12.4711 26.8407L30.9517 22.2723C31.049 22.2496 31.1409 22.2077 31.222 22.1492C31.303 22.0907 31.3717 22.0167 31.4239 21.9315C31.4761 21.8463 31.511 21.7515 31.5263 21.6527C31.5417 21.5539 31.5373 21.4531 31.5134 21.356C31.4895 21.259 31.4466 21.1676 31.3871 21.0872C31.3277 21.0069 31.2529 20.9391 31.167 20.8879C31.0812 20.8366 30.9861 20.8029 30.8871 20.7887C30.7882 20.7745 30.6874 20.7801 30.5906 20.8051L12.1111 25.3734C12.0138 25.3962 11.9219 25.438 11.8409 25.4965C11.7598 25.555 11.6912 25.6291 11.6389 25.7143C11.5867 25.7995 11.5519 25.8943 11.5365 25.993C11.5211 26.0918 11.5255 26.1927 11.5494 26.2897C11.5733 26.3868 11.6162 26.4782 11.6757 26.5585C11.7351 26.6389 11.8099 26.7067 11.8958 26.7579C11.9816 26.8092 12.0768 26.8429 12.1757 26.8571C12.2747 26.8713 12.3755 26.8657 12.4722 26.8407H12.4711ZM13.7595 32.0518L30.6306 27.8812L30.5195 28.9179C30.5005 29.0432 30.5137 29.1713 30.5578 29.2901C30.6269 29.4784 30.7679 29.6317 30.9499 29.716C31.1319 29.8004 31.34 29.8091 31.5284 29.7401L36.4172 27.9401C36.5663 27.8858 36.6944 27.7859 36.7834 27.6545L37.1906 27.1318L39.6667 37.1579C39.6705 37.1737 39.6712 37.19 39.6686 37.2061C39.666 37.2221 39.6603 37.2374 39.6517 37.2512C39.636 37.2784 39.6103 37.2984 39.58 37.3068L11.845 44.1668C11.8131 44.1735 11.7798 44.1676 11.7522 44.1501C11.7248 44.1334 11.7049 44.1067 11.6967 44.0757L2.57447 7.17344C2.56719 7.14131 2.57278 7.10761 2.59002 7.07955C2.60568 7.05233 2.63143 7.03237 2.66169 7.02399L24.2956 1.67566L25.4917 6.51399C25.5365 6.69766 25.6172 6.87068 25.7289 7.02316C25.8407 7.17564 25.9815 7.30459 26.1431 7.40263C26.3048 7.50067 26.4842 7.56587 26.6711 7.59451C26.858 7.62316 27.0486 7.61467 27.2322 7.56955L32.0556 6.37455L35.0495 18.4857L31.2522 23.3529C31.1498 23.4699 31.0861 23.6159 31.07 23.7707L30.8 26.2818L13.3984 30.584C13.302 30.6077 13.2112 30.6502 13.1313 30.709C13.0513 30.7677 12.9837 30.8417 12.9323 30.9266C12.8809 31.0115 12.8468 31.1057 12.8318 31.2038C12.8168 31.302 12.8213 31.4021 12.845 31.4984C12.8687 31.5948 12.9112 31.6856 12.97 31.7655C13.0288 31.8455 13.1027 31.9131 13.1876 31.9645C13.2726 32.0159 13.3668 32.05 13.4649 32.065C13.563 32.08 13.6631 32.0755 13.7595 32.0518ZM15.0472 37.2623L33.5278 32.694C33.7224 32.6461 33.8901 32.5229 33.9939 32.3514C34.0976 32.1799 34.129 31.9742 34.0811 31.7795C34.0332 31.5849 33.91 31.4173 33.7385 31.3135C33.567 31.2097 33.3613 31.1783 33.1667 31.2262L14.6861 35.7945C14.4915 35.8424 14.3239 35.9657 14.2201 36.1372C14.1163 36.3087 14.0849 36.5144 14.1328 36.709C14.1807 36.9036 14.3039 37.0713 14.4754 37.175C14.6469 37.2788 14.8526 37.3102 15.0472 37.2623ZM9.52114 16.4195L28 11.8512C28.0964 11.8275 28.1872 11.785 28.2671 11.7263C28.3471 11.6675 28.4147 11.5935 28.4661 11.5086C28.5175 11.4237 28.5516 11.3295 28.5666 11.2314C28.5816 11.1332 28.5771 11.0331 28.5534 10.9368C28.5296 10.8404 28.4872 10.7496 28.4284 10.6697C28.3696 10.5897 28.2956 10.5221 28.2107 10.4707C28.1258 10.4193 28.0316 10.3852 27.9335 10.3702C27.8354 10.3552 27.7353 10.3597 27.6389 10.3834L9.16058 14.9518C8.96594 14.9996 8.79827 15.1228 8.69444 15.2942C8.59062 15.4656 8.55916 15.6713 8.60697 15.8659C8.65478 16.0606 8.77796 16.2283 8.94939 16.3321C9.12083 16.4359 9.3265 16.4674 9.52114 16.4195Z" fill="url(#paint0_linear_119_1461)" stroke="url(#paint1_linear_119_1461)" stroke-width="0.6"/>
</g>
<defs>
<linearGradient id="paint0_linear_119_1461" x1="6.65628" y1="9.41948" x2="46.3059" y2="36.3717" gradientUnits="userSpaceOnUse">
<stop stop-color="#222953"/>
<stop offset="1" stop-color="#58517B"/>
</linearGradient>
<linearGradient id="paint1_linear_119_1461" x1="6.65628" y1="9.41948" x2="46.3059" y2="36.3717" gradientUnits="userSpaceOnUse">
<stop stop-color="#222953"/>
<stop offset="1" stop-color="#58517B"/>
</linearGradient>
<clipPath id="clip0_119_1461">
<rect width="48.8889" height="50" fill="white" transform="translate(0.555542)"/>
</clipPath>
</defs>
</svg>
