<svg width="260" height="75" viewBox="0 0 260 75" fill="none" xmlns="http://www.w3.org/2000/svg">
<g filter="url(#filter0_d_236_4024)">
<path d="M13.4838 25.5843C13.9071 27.3007 12.9947 28.5509 12.9947 28.5509C12.9947 28.5509 11.6529 28.0555 11.2307 26.3395C10.8077 24.6231 11.4645 22.3369 11.4645 22.3369C11.4645 22.3369 13.0619 23.8683 13.4838 25.5843Z" fill="url(#paint0_linear_236_4024)"/>
<path d="M10.7809 24.0147C11.0946 25.7622 10.1075 26.931 10.1075 26.931C10.1075 26.931 8.80098 26.323 8.48683 24.5758C8.17268 22.8282 8.97063 20.6033 8.97063 20.6033C8.97063 20.6033 10.4667 22.2671 10.7809 24.0147Z" fill="url(#paint1_linear_236_4024)"/>
<path d="M8.43245 21.2763C8.10329 22.9278 6.85043 23.4746 6.85043 23.4746C6.85043 23.4746 5.93386 22.3404 6.26303 20.6874C6.59257 19.036 8.04361 17.4915 8.04361 17.4915C8.04361 17.4915 8.762 19.6233 8.43245 21.2763Z" fill="url(#paint2_linear_236_4024)"/>
<path d="M7.34511 17.6507C6.59708 19.1048 5.26089 19.1765 5.26089 19.1765C5.26089 19.1765 4.68663 17.769 5.43467 16.3145C6.18308 14.8605 7.97117 13.9102 7.97117 13.9102C7.97117 13.9102 8.09465 16.1963 7.34511 17.6507Z" fill="url(#paint3_linear_236_4024)"/>
<path d="M7.57772 13.7388C6.44497 14.6622 5.26305 14.1213 5.26305 14.1213C5.26305 14.1213 5.23302 12.6414 6.36577 11.718C7.49853 10.7947 9.36468 10.7778 9.36468 10.7778C9.36468 10.7778 8.71048 12.8166 7.57772 13.7388Z" fill="url(#paint4_linear_236_4024)"/>
<path d="M9.00288 10.3405C7.7624 11.051 6.66455 10.3048 6.66455 10.3048C6.66455 10.3048 6.83007 8.83617 8.07055 8.12717C9.3114 7.41779 11.1577 7.73457 11.1577 7.73457C11.1577 7.73457 10.2434 9.6315 9.00288 10.3405Z" fill="url(#paint5_linear_236_4024)"/>
<path d="M9.24221 5.65379C8.83535 7.01549 7.73488 7.34429 7.73488 7.34429C7.73488 7.34429 7.04839 6.2896 7.45488 4.92789C7.86024 3.56731 9.20693 2.41504 9.20693 2.41504C9.20693 2.41504 9.6487 4.2932 9.24221 5.65379Z" fill="url(#paint6_linear_236_4024)"/>
<path d="M11.146 7.28073C9.95624 7.67107 9.09372 6.80781 9.09372 6.80781C9.09372 6.80781 9.44278 5.54669 10.6326 5.15634C11.8224 4.766 13.4037 5.3928 13.4037 5.3928C13.4037 5.3928 12.337 6.89038 11.146 7.28073Z" fill="url(#paint7_linear_236_4024)"/>
<path d="M11.6796 4.30192C10.8399 5.03682 9.93089 4.66074 9.93089 4.66074C9.93089 4.66074 9.87572 3.53774 10.7142 2.80284C11.5542 2.06906 12.97 2 12.97 2C12.97 2 12.5188 3.56702 11.6796 4.30192Z" fill="url(#paint8_linear_236_4024)"/>
<path d="M7.02957 7.69764C6.94137 9.30594 5.84164 10.0453 5.84164 10.0453C5.84164 10.0453 4.83012 9.1483 4.91832 7.54037C5.00653 5.93245 6.15992 4.22168 6.15992 4.22168C6.15992 4.22168 7.11665 6.08971 7.02957 7.69764Z" fill="url(#paint9_linear_236_4024)"/>
<path d="M5.26143 11.2349C5.50465 12.8207 4.58696 13.8446 4.58696 13.8446C4.58696 13.8446 3.4223 13.2545 3.17908 11.6688C2.93512 10.083 3.70568 8.1001 3.70568 8.1001C3.70568 8.1001 5.01784 9.64797 5.26143 11.2349Z" fill="url(#paint10_linear_236_4024)"/>
<path d="M4.29959 15.4213C4.97406 16.9249 4.32961 18.2907 4.32961 18.2907C4.32961 18.2907 2.99981 18.1282 2.32646 16.6246C1.65236 15.1214 1.88995 12.8477 1.88995 12.8477C1.88995 12.8477 3.62661 13.9181 4.29959 15.4213Z" fill="url(#paint11_linear_236_4024)"/>
<path d="M4.21923 19.6183C5.48072 20.4635 5.5678 22.0178 5.5678 22.0178C5.5678 22.0178 4.37124 22.714 3.10975 21.8684C1.84938 21.0243 1 18.9588 1 18.9588C1 18.9588 2.95774 18.773 4.21923 19.6183Z" fill="url(#paint12_linear_236_4024)"/>
<path d="M5.5625 23.7205C7.06233 24.0808 7.58892 25.6031 7.58892 25.6031C7.58892 25.6031 6.58941 26.7584 5.08996 26.3981C3.5905 26.0378 2.15823 24.2981 2.15823 24.2981C2.15823 24.2981 4.06192 23.3605 5.5625 23.7205Z" fill="url(#paint13_linear_236_4024)"/>
<path d="M7.56427 27.3553C8.9744 26.6609 10.1477 27.5662 10.1477 27.5662C10.1477 27.5662 9.88683 29.1787 8.4752 29.8723C7.06508 30.567 5.03903 30.081 5.03903 30.081C5.03903 30.081 6.15302 28.0504 7.56427 27.3553Z" fill="url(#paint14_linear_236_4024)"/>
<path d="M11.4747 29.0862C12.8739 28.3618 14.0618 29.2401 14.0618 29.2401C14.0618 29.2401 13.8261 30.8585 12.4269 31.5833C11.0276 32.308 8.99484 31.8678 8.99484 31.8678C8.99484 31.8678 10.0758 29.8121 11.4747 29.0862Z" fill="url(#paint15_linear_236_4024)"/>
</g>
<g filter="url(#filter1_d_236_4024)">
<path d="M245.721 25.5843C245.298 27.3007 246.21 28.5509 246.21 28.5509C246.21 28.5509 247.551 28.0555 247.974 26.3395C248.397 24.6231 247.74 22.3369 247.74 22.3369C247.74 22.3369 246.144 23.8683 245.721 25.5843Z" fill="url(#paint16_linear_236_4024)"/>
<path d="M248.425 24.0147C248.111 25.7622 249.098 26.931 249.098 26.931C249.098 26.931 250.405 26.323 250.719 24.5758C251.033 22.8282 250.235 20.6033 250.235 20.6033C250.235 20.6033 248.739 22.2671 248.425 24.0147Z" fill="url(#paint17_linear_236_4024)"/>
<path d="M250.774 21.2763C251.103 22.9278 252.356 23.4746 252.356 23.4746C252.356 23.4746 253.272 22.3404 252.943 20.6874C252.613 19.036 251.162 17.4915 251.162 17.4915C251.162 17.4915 250.444 19.6233 250.774 21.2763Z" fill="url(#paint18_linear_236_4024)"/>
<path d="M251.86 17.6507C252.608 19.1048 253.944 19.1765 253.944 19.1765C253.944 19.1765 254.519 17.769 253.77 16.3145C253.022 14.8605 251.234 13.9102 251.234 13.9102C251.234 13.9102 251.112 16.1963 251.86 17.6507Z" fill="url(#paint19_linear_236_4024)"/>
<path d="M251.628 13.7388C252.761 14.6622 253.943 14.1213 253.943 14.1213C253.943 14.1213 253.973 12.6414 252.84 11.718C251.707 10.7947 249.841 10.7778 249.841 10.7778C249.841 10.7778 250.495 12.8166 251.628 13.7388Z" fill="url(#paint20_linear_236_4024)"/>
<path d="M250.201 10.3405C251.442 11.051 252.539 10.3048 252.539 10.3048C252.539 10.3048 252.374 8.83617 251.133 8.12717C249.892 7.41779 248.046 7.73457 248.046 7.73457C248.046 7.73457 248.96 9.6315 250.201 10.3405Z" fill="url(#paint21_linear_236_4024)"/>
<path d="M249.963 5.65307C250.37 7.01478 251.471 7.34395 251.471 7.34395C251.471 7.34395 252.157 6.28889 251.75 4.92718C251.344 3.56547 249.997 2.41357 249.997 2.41357C249.997 2.41357 249.557 4.29287 249.963 5.65307Z" fill="url(#paint22_linear_236_4024)"/>
<path d="M248.059 7.28073C249.248 7.67107 250.111 6.80781 250.111 6.80781C250.111 6.80781 249.762 5.54669 248.572 5.15634C247.382 4.766 245.801 5.3928 245.801 5.3928C245.801 5.3928 246.869 6.89038 248.059 7.28073Z" fill="url(#paint23_linear_236_4024)"/>
<path d="M247.527 4.30192C248.366 5.03682 249.275 4.66074 249.275 4.66074C249.275 4.66074 249.33 3.53774 248.492 2.80284C247.652 2.06794 246.236 2 246.236 2C246.236 2 246.687 3.56702 247.527 4.30192Z" fill="url(#paint24_linear_236_4024)"/>
<path d="M252.176 7.69764C252.264 9.30594 253.364 10.0453 253.364 10.0453C253.364 10.0453 254.375 9.1483 254.287 7.54037C254.199 5.93245 253.045 4.22168 253.045 4.22168C253.045 4.22168 252.087 6.08971 252.176 7.69764Z" fill="url(#paint25_linear_236_4024)"/>
<path d="M253.943 11.2349C253.699 12.8207 254.617 13.8446 254.617 13.8446C254.617 13.8446 255.782 13.2545 256.025 11.6688C256.269 10.083 255.498 8.1001 255.498 8.1001C255.498 8.1001 254.186 9.64797 253.943 11.2349Z" fill="url(#paint26_linear_236_4024)"/>
<path d="M254.905 15.4213C254.231 16.9249 254.875 18.2907 254.875 18.2907C254.875 18.2907 256.205 18.1282 256.878 16.6246C257.552 15.1214 257.314 12.8477 257.314 12.8477C257.314 12.8477 255.579 13.9181 254.905 15.4213Z" fill="url(#paint27_linear_236_4024)"/>
<path d="M254.985 19.6182C253.724 20.4634 253.637 22.018 253.637 22.018C253.637 22.018 254.833 22.7139 256.095 21.8683C257.356 21.023 258.205 18.9576 258.205 18.9576C258.205 18.9576 256.247 18.7725 254.985 19.6182Z" fill="url(#paint28_linear_236_4024)"/>
<path d="M253.644 23.7205C252.145 24.0808 251.618 25.6031 251.618 25.6031C251.618 25.6031 252.617 26.7584 254.117 26.3981C255.616 26.0378 257.048 24.2981 257.048 24.2981C257.048 24.2981 255.144 23.3605 253.644 23.7205Z" fill="url(#paint29_linear_236_4024)"/>
<path d="M251.641 27.3553C250.231 26.6609 249.057 27.5662 249.057 27.5662C249.057 27.5662 249.319 29.1787 250.73 29.8723C252.14 30.567 254.166 30.081 254.166 30.081C254.166 30.081 253.051 28.0504 251.641 27.3553Z" fill="url(#paint30_linear_236_4024)"/>
<path d="M247.73 29.0862C246.331 28.3618 245.143 29.2401 245.143 29.2401C245.143 29.2401 245.379 30.8585 246.778 31.5833C248.177 32.308 250.21 31.8678 250.21 31.8678C250.21 31.8678 249.129 29.8121 247.73 29.0862Z" fill="url(#paint31_linear_236_4024)"/>
</g>
<g filter="url(#filter2_d_236_4024)">
<path d="M31.4618 27V26.304L34.5818 25.848H37.5818L40.4378 26.352V27.072L31.4618 27ZM34.3418 27C34.3898 25.128 34.4138 23.208 34.4138 21.384V10.776L31.3898 11.208V10.392L37.4138 8.976L37.7738 9.216L37.6778 13.08V21.384C37.6778 23.208 37.7258 25.128 37.7738 27H34.3418ZM43.8174 27.456L43.6494 26.784C48.9534 24.96 51.1854 21.576 51.1854 15.936C51.1854 11.352 49.9614 9.648 48.3054 9.648C46.7934 9.648 45.4974 11.112 45.4974 14.328C45.4974 17.232 46.8174 18.96 48.8094 18.96C49.9374 18.96 50.7774 18.552 51.5694 17.664L52.0734 17.808H51.8574C51.1374 19.104 49.6494 20.04 47.5854 20.04C44.5374 20.04 42.3054 18.072 42.3054 14.736C42.3054 10.92 45.0174 8.856 48.2574 8.856C52.1694 8.856 54.4494 11.64 54.4494 16.296C54.4494 21.864 50.3454 26.112 43.8174 27.456ZM59.1223 27L58.9063 26.808L67.1623 10.824L66.8263 12.216V11.784H56.9623V9.24H68.0743V10.824L61.8343 27H59.1223ZM76.7837 27.408C73.6157 27.408 70.7357 24.624 70.7357 18.096C70.7357 11.616 73.6157 8.856 76.7837 8.856C79.9517 8.856 82.8557 11.616 82.8557 18.096C82.8557 24.624 79.9517 27.408 76.7837 27.408ZM76.7837 26.592C78.3197 26.592 79.7597 24.696 79.7597 18.096C79.7597 11.544 78.3197 9.672 76.7837 9.672C75.2237 9.672 73.8317 11.52 73.8317 18.096C73.8317 24.72 75.2237 26.592 76.7837 26.592ZM90.3863 17.16C88.6103 17.16 86.9303 17.784 85.4902 19.272L85.0823 18.936C86.9543 16.248 89.1863 15.264 91.3943 15.264C92.9063 15.264 94.6103 15.864 96.4103 16.872C98.2823 17.904 99.7943 18.576 101.402 18.576C103.178 18.576 104.858 17.88 106.322 16.416L106.706 16.776C104.906 19.464 102.602 20.472 100.394 20.472C98.8823 20.472 97.1783 19.872 95.3783 18.864C93.5063 17.832 91.9943 17.16 90.3863 17.16ZM109.274 27V26.304L112.394 25.848H115.394L118.25 26.352V27.072L109.274 27ZM112.154 27C112.202 25.128 112.226 23.208 112.226 21.384V10.776L109.202 11.208V10.392L115.226 8.976L115.586 9.216L115.49 13.08V21.384C115.49 23.208 115.538 25.128 115.586 27H112.154ZM121.63 27.456L121.462 26.784C126.766 24.96 128.998 21.576 128.998 15.936C128.998 11.352 127.774 9.648 126.118 9.648C124.606 9.648 123.31 11.112 123.31 14.328C123.31 17.232 124.63 18.96 126.622 18.96C127.75 18.96 128.59 18.552 129.382 17.664L129.886 17.808H129.67C128.95 19.104 127.462 20.04 125.398 20.04C122.35 20.04 120.118 18.072 120.118 14.736C120.118 10.92 122.83 8.856 126.07 8.856C129.982 8.856 132.262 11.64 132.262 16.296C132.262 21.864 128.158 26.112 121.63 27.456ZM135.927 27.456L135.759 26.784C141.063 24.96 143.295 21.576 143.295 15.936C143.295 11.352 142.071 9.648 140.415 9.648C138.903 9.648 137.607 11.112 137.607 14.328C137.607 17.232 138.927 18.96 140.919 18.96C142.047 18.96 142.887 18.552 143.679 17.664L144.183 17.808H143.967C143.247 19.104 141.759 20.04 139.695 20.04C136.647 20.04 134.415 18.072 134.415 14.736C134.415 10.92 137.127 8.856 140.367 8.856C144.279 8.856 146.559 11.64 146.559 16.296C146.559 21.864 142.455 26.112 135.927 27.456ZM154.784 27.408C151.616 27.408 148.736 24.624 148.736 18.096C148.736 11.616 151.616 8.856 154.784 8.856C157.952 8.856 160.856 11.616 160.856 18.096C160.856 24.624 157.952 27.408 154.784 27.408ZM154.784 26.592C156.32 26.592 157.76 24.696 157.76 18.096C157.76 11.544 156.32 9.672 154.784 9.672C153.224 9.672 151.832 11.52 151.832 18.096C151.832 24.72 153.224 26.592 154.784 26.592ZM162.65 22.344H180.458L182.138 20.256C182.138 20.256 184.01 21.672 185.186 22.656C185.114 22.92 184.826 23.04 184.49 23.04H162.842L162.65 22.344ZM173.954 10.416H177.05V28.32C177.026 28.512 176.114 29.136 174.53 29.136H173.954V10.416ZM168.386 15.816H179.402L180.962 13.896C180.962 13.896 182.714 15.216 183.818 16.128C183.746 16.392 183.482 16.512 183.122 16.512H168.386V15.816ZM166.754 15.816V14.592L170.066 15.816H169.73V22.776H166.754V15.816ZM168.434 6.312L172.418 7.8C172.298 8.088 171.962 8.28 171.41 8.232C169.13 12.288 166.154 15.144 162.842 16.992L162.602 16.752C164.738 14.376 167.114 10.368 168.434 6.312ZM168.458 10.416H179.93L181.586 8.352C181.586 8.352 183.434 9.696 184.61 10.728C184.562 10.992 184.298 11.112 183.938 11.112H168.122L168.458 10.416ZM202.874 7.44C209.306 7.728 207.506 12.48 204.962 11.016C204.626 9.816 203.57 8.424 202.682 7.608L202.874 7.44ZM193.562 15.288L204.434 14.016L205.85 11.808C205.85 11.808 207.818 12.936 209.09 13.752C209.042 14.016 208.778 14.184 208.466 14.232L193.826 15.936L193.562 15.288ZM198.218 6.984L201.986 7.44C201.938 7.752 201.722 8.04 201.122 8.136C201.002 15 201.794 21.768 206.402 25.104C206.786 25.44 206.978 25.44 207.218 25.032C207.626 24.408 208.298 23.088 208.754 22.056L208.994 22.104L208.442 26.136C209.354 27.504 209.45 28.224 209.066 28.632C208.01 29.76 205.994 28.8 204.794 27.84C199.226 23.304 198.242 15.648 198.218 6.984ZM190.01 14.28L191.09 12.864L193.562 13.776C193.466 13.992 193.274 14.16 192.818 14.232V28.344C192.794 28.536 191.642 29.16 190.562 29.16H190.01V14.28ZM191.546 6.624L195.578 7.896C195.482 8.184 195.194 8.4 194.618 8.376C192.674 13.248 189.962 16.872 186.578 19.344L186.29 19.128C188.378 16.128 190.49 11.328 191.546 6.624ZM211.034 22.152H228.866L230.282 20.424C230.282 20.424 231.89 21.576 232.874 22.44C232.826 22.704 232.562 22.824 232.226 22.824H211.226L211.034 22.152ZM218.642 22.152H222.194V22.536C219.938 25.608 215.81 27.672 210.698 28.848L210.53 28.536C214.13 27.072 217.058 24.648 218.642 22.152ZM223.226 22.152C225.218 24.168 229.538 25.488 233.282 25.896L233.234 26.16C232.178 26.448 231.362 27.408 231.074 28.8C227.354 27.6 224.594 25.464 222.962 22.32L223.226 22.152ZM220.49 19.848L224.138 20.16C224.09 20.496 223.898 20.736 223.274 20.832V28.512C223.274 28.728 222.05 29.16 220.97 29.16H220.49V19.848ZM223.85 15.096C229.034 15.912 226.922 19.608 225.05 18.072C224.954 17.064 224.306 15.912 223.634 15.24L223.85 15.096ZM222.746 13.296H228.602V13.992H222.746V13.296ZM214.61 13.752H217.178V18.336L214.61 18.984V13.752ZM211.634 13.752H217.274L218.522 12.216C218.522 12.216 219.962 13.296 220.874 14.064C220.802 14.328 220.586 14.448 220.226 14.448H211.826L211.634 13.752ZM221.33 13.296V13.056V12.24L224.306 13.296H223.898V15.384C223.898 17.232 223.202 19.752 217.322 21L217.178 20.736C220.754 19.224 221.33 17.256 221.33 15.384V13.296ZM211.01 18.408C212.69 18.264 216.554 17.76 220.49 17.16L220.562 17.472C218.906 18.24 216.506 19.248 213.026 20.592C212.882 20.88 212.666 21.096 212.402 21.144L211.01 18.408ZM227.21 13.296H226.97L228.17 12.024L230.354 13.848C230.21 14.016 229.994 14.136 229.586 14.208V17.616C229.586 17.88 229.634 17.928 229.946 17.928H230.618C230.858 17.928 231.098 17.928 231.218 17.928C231.362 17.928 231.458 17.88 231.578 17.712C231.746 17.424 232.058 16.512 232.394 15.456H232.634L232.706 17.76C233.282 18.048 233.378 18.288 233.378 18.744C233.378 19.656 232.514 20.184 230.33 20.184H229.154C227.426 20.184 227.21 19.656 227.21 18.216V13.296ZM214.178 6.6L217.538 7.968C217.418 8.232 217.106 8.424 216.554 8.352C215.042 10.752 212.978 12.408 210.818 13.416L210.554 13.176C211.97 11.688 213.362 9.216 214.178 6.6ZM214.658 9.288H218.81L220.058 7.608C220.058 7.608 221.498 8.76 222.314 9.576C222.266 9.84 222.026 9.96 221.69 9.96H214.658V9.288ZM223.346 9.288H229.13L230.522 7.512C230.522 7.512 232.106 8.712 233.066 9.576C232.994 9.84 232.754 9.96 232.418 9.96H223.346V9.288ZM216.05 9.456C220.946 10.464 218.474 13.968 216.65 12.312C216.674 11.352 216.242 10.272 215.81 9.6L216.05 9.456ZM223.538 6.576L226.922 7.656C226.826 7.944 226.514 8.16 225.962 8.136C224.546 10.32 222.626 11.808 220.706 12.72L220.442 12.456C221.642 11.112 222.818 8.904 223.538 6.576ZM225.578 9.456C230.906 10.176 228.554 14.016 226.49 12.408C226.418 11.4 225.866 10.272 225.362 9.6L225.578 9.456Z" fill="url(#paint32_linear_236_4024)"/>
</g>
<g filter="url(#filter3_d_236_4024)">
<path d="M65.4838 64.5843C65.9071 66.3007 64.9947 67.5509 64.9947 67.5509C64.9947 67.5509 63.6529 67.0555 63.2307 65.3395C62.8077 63.6231 63.4645 61.3369 63.4645 61.3369C63.4645 61.3369 65.0619 62.8683 65.4838 64.5843Z" fill="url(#paint33_linear_236_4024)"/>
<path d="M62.7809 63.0147C63.0946 64.7622 62.1075 65.931 62.1075 65.931C62.1075 65.931 60.801 65.323 60.4868 63.5758C60.1727 61.8282 60.9706 59.6033 60.9706 59.6033C60.9706 59.6033 62.4667 61.2671 62.7809 63.0147Z" fill="url(#paint34_linear_236_4024)"/>
<path d="M60.4325 60.2763C60.1033 61.9278 58.8504 62.4746 58.8504 62.4746C58.8504 62.4746 57.9339 61.3404 58.263 59.6874C58.5926 58.036 60.0436 56.4915 60.0436 56.4915C60.0436 56.4915 60.762 58.6233 60.4325 60.2763Z" fill="url(#paint35_linear_236_4024)"/>
<path d="M59.3451 56.6507C58.5971 58.1048 57.2609 58.1765 57.2609 58.1765C57.2609 58.1765 56.6866 56.769 57.4347 55.3145C58.1831 53.8605 59.9712 52.9102 59.9712 52.9102C59.9712 52.9102 60.0947 55.1963 59.3451 56.6507Z" fill="url(#paint36_linear_236_4024)"/>
<path d="M59.5777 52.7388C58.445 53.6622 57.263 53.1213 57.263 53.1213C57.263 53.1213 57.233 51.6414 58.3658 50.718C59.4985 49.7947 61.3647 49.7778 61.3647 49.7778C61.3647 49.7778 60.7105 51.8166 59.5777 52.7388Z" fill="url(#paint37_linear_236_4024)"/>
<path d="M61.0029 49.3405C59.7624 50.051 58.6646 49.3048 58.6646 49.3048C58.6646 49.3048 58.8301 47.8362 60.0705 47.1272C61.3114 46.4178 63.1577 46.7346 63.1577 46.7346C63.1577 46.7346 62.2434 48.6315 61.0029 49.3405Z" fill="url(#paint38_linear_236_4024)"/>
<path d="M61.2422 44.6538C60.8354 46.0155 59.7349 46.3443 59.7349 46.3443C59.7349 46.3443 59.0484 45.2896 59.4549 43.9279C59.8602 42.5673 61.2069 41.415 61.2069 41.415C61.2069 41.415 61.6487 43.2932 61.2422 44.6538Z" fill="url(#paint39_linear_236_4024)"/>
<path d="M63.146 46.2807C61.9562 46.6711 61.0937 45.8078 61.0937 45.8078C61.0937 45.8078 61.4428 44.5467 62.6326 44.1563C63.8224 43.766 65.4037 44.3928 65.4037 44.3928C65.4037 44.3928 64.337 45.8904 63.146 46.2807Z" fill="url(#paint40_linear_236_4024)"/>
<path d="M63.6796 43.3019C62.8399 44.0368 61.9309 43.6607 61.9309 43.6607C61.9309 43.6607 61.8757 42.5377 62.7142 41.8028C63.5542 41.0691 64.97 41 64.97 41C64.97 41 64.5188 42.567 63.6796 43.3019Z" fill="url(#paint41_linear_236_4024)"/>
<path d="M59.0296 46.6976C58.9414 48.3059 57.8416 49.0453 57.8416 49.0453C57.8416 49.0453 56.8301 48.1483 56.9183 46.5404C57.0065 44.9324 58.1599 43.2217 58.1599 43.2217C58.1599 43.2217 59.1166 45.0897 59.0296 46.6976Z" fill="url(#paint42_linear_236_4024)"/>
<path d="M57.2614 50.2349C57.5046 51.8207 56.587 52.8446 56.587 52.8446C56.587 52.8446 55.4223 52.2545 55.1791 50.6688C54.9351 49.083 55.7057 47.1001 55.7057 47.1001C55.7057 47.1001 57.0178 48.648 57.2614 50.2349Z" fill="url(#paint43_linear_236_4024)"/>
<path d="M56.2996 54.4213C56.9741 55.9249 56.3296 57.2907 56.3296 57.2907C56.3296 57.2907 54.9998 57.1282 54.3265 55.6246C53.6524 54.1214 53.8899 51.8477 53.8899 51.8477C53.8899 51.8477 55.6266 52.9181 56.2996 54.4213Z" fill="url(#paint44_linear_236_4024)"/>
<path d="M56.2192 58.6183C57.4807 59.4635 57.5678 61.0178 57.5678 61.0178C57.5678 61.0178 56.3712 61.714 55.1097 60.8684C53.8494 60.0243 53 57.9588 53 57.9588C53 57.9588 54.9577 57.773 56.2192 58.6183Z" fill="url(#paint45_linear_236_4024)"/>
<path d="M57.5625 62.7205C59.0623 63.0808 59.5889 64.6031 59.5889 64.6031C59.5889 64.6031 58.5894 65.7584 57.09 65.3981C55.5905 65.0378 54.1582 63.2981 54.1582 63.2981C54.1582 63.2981 56.0619 62.3605 57.5625 62.7205Z" fill="url(#paint46_linear_236_4024)"/>
<path d="M59.5643 66.3553C60.9744 65.6609 62.1477 66.5662 62.1477 66.5662C62.1477 66.5662 61.8868 68.1787 60.4752 68.8723C59.0651 69.567 57.039 69.081 57.039 69.081C57.039 69.081 58.153 67.0504 59.5643 66.3553Z" fill="url(#paint47_linear_236_4024)"/>
<path d="M63.4747 68.0862C64.8739 67.3618 66.0618 68.2401 66.0618 68.2401C66.0618 68.2401 65.8261 69.8585 64.4269 70.5833C63.0276 71.308 60.9948 70.8678 60.9948 70.8678C60.9948 70.8678 62.0758 68.8121 63.4747 68.0862Z" fill="url(#paint48_linear_236_4024)"/>
</g>
<g filter="url(#filter4_d_236_4024)">
<path d="M193.721 64.5843C193.298 66.3007 194.21 67.5509 194.21 67.5509C194.21 67.5509 195.551 67.0555 195.974 65.3395C196.397 63.6231 195.74 61.3369 195.74 61.3369C195.74 61.3369 194.144 62.8683 193.721 64.5843Z" fill="url(#paint49_linear_236_4024)"/>
<path d="M196.425 63.0147C196.111 64.7622 197.098 65.931 197.098 65.931C197.098 65.931 198.405 65.323 198.719 63.5758C199.033 61.8282 198.235 59.6033 198.235 59.6033C198.235 59.6033 196.739 61.2671 196.425 63.0147Z" fill="url(#paint50_linear_236_4024)"/>
<path d="M198.774 60.2763C199.103 61.9278 200.356 62.4746 200.356 62.4746C200.356 62.4746 201.272 61.3404 200.943 59.6874C200.613 58.036 199.162 56.4915 199.162 56.4915C199.162 56.4915 198.444 58.6233 198.774 60.2763Z" fill="url(#paint51_linear_236_4024)"/>
<path d="M199.86 56.6507C200.608 58.1048 201.944 58.1765 201.944 58.1765C201.944 58.1765 202.519 56.769 201.77 55.3145C201.022 53.8605 199.234 52.9102 199.234 52.9102C199.234 52.9102 199.112 55.1963 199.86 56.6507Z" fill="url(#paint52_linear_236_4024)"/>
<path d="M199.628 52.7388C200.761 53.6622 201.943 53.1213 201.943 53.1213C201.943 53.1213 201.973 51.6414 200.84 50.718C199.707 49.7947 197.841 49.7778 197.841 49.7778C197.841 49.7778 198.495 51.8166 199.628 52.7388Z" fill="url(#paint53_linear_236_4024)"/>
<path d="M198.201 49.3405C199.442 50.051 200.539 49.3048 200.539 49.3048C200.539 49.3048 200.374 47.8362 199.133 47.1272C197.892 46.4178 196.046 46.7346 196.046 46.7346C196.046 46.7346 196.96 48.6315 198.201 49.3405Z" fill="url(#paint54_linear_236_4024)"/>
<path d="M197.963 44.6531C198.37 46.0148 199.471 46.3439 199.471 46.3439C199.471 46.3439 200.157 45.2889 199.75 43.9272C199.344 42.5655 197.997 41.4136 197.997 41.4136C197.997 41.4136 197.557 43.2929 197.963 44.6531Z" fill="url(#paint55_linear_236_4024)"/>
<path d="M196.059 46.2807C197.248 46.6711 198.111 45.8078 198.111 45.8078C198.111 45.8078 197.762 44.5467 196.572 44.1563C195.382 43.766 193.801 44.3928 193.801 44.3928C193.801 44.3928 194.869 45.8904 196.059 46.2807Z" fill="url(#paint56_linear_236_4024)"/>
<path d="M195.527 43.3019C196.366 44.0368 197.275 43.6607 197.275 43.6607C197.275 43.6607 197.33 42.5377 196.492 41.8028C195.652 41.0679 194.236 41 194.236 41C194.236 41 194.687 42.567 195.527 43.3019Z" fill="url(#paint57_linear_236_4024)"/>
<path d="M200.176 46.6976C200.264 48.3059 201.364 49.0453 201.364 49.0453C201.364 49.0453 202.375 48.1483 202.287 46.5404C202.199 44.9324 201.045 43.2217 201.045 43.2217C201.045 43.2217 200.087 45.0897 200.176 46.6976Z" fill="url(#paint58_linear_236_4024)"/>
<path d="M201.943 50.2349C201.699 51.8207 202.617 52.8446 202.617 52.8446C202.617 52.8446 203.782 52.2545 204.025 50.6688C204.269 49.083 203.498 47.1001 203.498 47.1001C203.498 47.1001 202.186 48.648 201.943 50.2349Z" fill="url(#paint59_linear_236_4024)"/>
<path d="M202.905 54.4213C202.231 55.9249 202.875 57.2907 202.875 57.2907C202.875 57.2907 204.205 57.1282 204.878 55.6246C205.552 54.1214 205.314 51.8477 205.314 51.8477C205.314 51.8477 203.579 52.9181 202.905 54.4213Z" fill="url(#paint60_linear_236_4024)"/>
<path d="M202.985 58.6182C201.724 59.4634 201.637 61.018 201.637 61.018C201.637 61.018 202.833 61.7139 204.095 60.8683C205.356 60.023 206.205 57.9576 206.205 57.9576C206.205 57.9576 204.247 57.7725 202.985 58.6182Z" fill="url(#paint61_linear_236_4024)"/>
<path d="M201.644 62.7205C200.145 63.0808 199.618 64.6031 199.618 64.6031C199.618 64.6031 200.617 65.7584 202.117 65.3981C203.616 65.0378 205.048 63.2981 205.048 63.2981C205.048 63.2981 203.144 62.3605 201.644 62.7205Z" fill="url(#paint62_linear_236_4024)"/>
<path d="M199.641 66.3553C198.231 65.6609 197.057 66.5662 197.057 66.5662C197.057 66.5662 197.319 68.1787 198.73 68.8723C200.14 69.567 202.166 69.081 202.166 69.081C202.166 69.081 201.051 67.0504 199.641 66.3553Z" fill="url(#paint63_linear_236_4024)"/>
<path d="M195.73 68.0862C194.331 67.3618 193.143 68.2401 193.143 68.2401C193.143 68.2401 193.379 69.8585 194.778 70.5833C196.177 71.308 198.21 70.8678 198.21 70.8678C198.21 70.8678 197.129 68.8121 195.73 68.0862Z" fill="url(#paint64_linear_236_4024)"/>
</g>
<g filter="url(#filter5_d_236_4024)">
<path d="M89.1017 66.408C85.3817 66.408 83.5577 64.656 83.5577 62.208C83.5577 60 85.1177 58.488 88.0457 57.504V57.36L88.4297 57.672C86.8457 58.92 86.2457 60.072 86.2457 61.848C86.2457 64.344 87.3737 65.592 89.3417 65.592C91.2377 65.592 92.3177 64.464 92.3177 62.592C92.3177 60.816 91.3337 59.352 88.0697 57.936C85.2857 56.736 83.9657 54.864 83.9657 52.536C83.9657 49.68 86.3417 47.856 89.4857 47.856C92.9177 47.856 94.5977 49.704 94.5977 51.96C94.5977 53.664 93.4697 55.248 90.4457 56.4V56.496L90.1577 56.256C91.4777 54.984 92.0297 53.688 92.0297 51.864C92.0297 50.04 91.0697 48.672 89.4137 48.672C87.9737 48.672 86.7017 49.752 86.7017 51.504C86.7017 53.064 87.3977 54.576 90.5897 55.968C93.8297 57.384 95.2457 59.088 95.2457 61.464C95.2457 64.44 93.0137 66.408 89.1017 66.408ZM103.616 66.408C100.448 66.408 97.5677 63.624 97.5677 57.096C97.5677 50.616 100.448 47.856 103.616 47.856C106.784 47.856 109.688 50.616 109.688 57.096C109.688 63.624 106.784 66.408 103.616 66.408ZM103.616 65.592C105.152 65.592 106.592 63.696 106.592 57.096C106.592 50.544 105.152 48.672 103.616 48.672C102.056 48.672 100.664 50.52 100.664 57.096C100.664 63.72 102.056 65.592 103.616 65.592ZM111.266 66V65.256L113.474 65.04H115.106L117.554 65.256V66H111.266ZM112.682 66C112.73 64.752 112.754 61.992 112.754 60.288V58.248C112.754 56.736 112.73 55.704 112.682 54.552L111.074 54.408V53.88L115.538 52.608L115.826 52.776L116.018 55.32V60.288C116.018 61.992 116.042 64.752 116.09 66H112.682ZM118.538 66V65.256L120.674 65.04H122.69L124.778 65.256V66H118.538ZM119.978 66C120.026 64.752 120.05 62.04 120.05 60.288V56.784C120.05 54.984 119.474 54.36 118.394 54.36C117.434 54.36 116.354 55.104 115.466 56.232L115.346 55.968C116.786 53.496 118.178 52.536 119.906 52.536C121.874 52.536 123.266 53.832 123.266 56.688V60.288C123.266 62.04 123.29 64.752 123.338 66H119.978ZM125.762 66V65.256L127.946 65.04H129.794L132.146 65.256V66H125.762ZM127.226 66C127.274 64.752 127.298 62.04 127.298 60.288V56.832C127.298 54.984 126.722 54.36 125.666 54.36C124.706 54.36 123.65 55.032 122.69 56.232L122.45 55.848C124.034 53.328 125.378 52.536 127.13 52.536C129.17 52.536 130.538 53.832 130.538 56.76V60.288C130.538 62.04 130.562 64.752 130.61 66H127.226ZM130.01 52.008V51.096C132.314 49.08 132.674 48.288 132.674 47.448C132.674 46.536 132.314 46.08 131.762 46.08C131.522 46.08 131.33 46.104 131.114 46.152L131.642 45.864C131.378 47.472 131.186 47.712 130.634 47.712C130.37 47.712 130.13 47.568 129.986 47.304C130.082 46.224 131.018 45.696 132.242 45.696C133.61 45.696 134.33 46.44 134.33 47.352C134.33 48.336 133.73 49.08 130.658 50.952L130.778 50.688H134.426V52.008H130.01ZM138.314 46.992L142.058 47.28C142.034 47.616 141.866 47.856 141.194 47.952L141.434 62.496L138.578 63.432L138.314 46.992ZM143.714 49.752C151.634 52.008 149.378 57.6 146.546 55.56C146.09 53.64 144.674 51.456 143.498 49.896L143.714 49.752ZM151.202 60.6C160.418 63.168 158.522 69.384 155.402 67.416C154.586 65.184 152.594 62.568 150.962 60.768L151.202 60.6ZM135.266 63.096C137.498 62.688 142.634 61.368 147.41 59.88L147.482 60.168C145.25 61.608 142.106 63.48 137.426 65.688C137.306 65.976 137.066 66.24 136.802 66.336L135.266 63.096ZM152.522 47.064L156.53 47.424C156.482 47.808 156.194 48.072 155.618 48.144C155.186 57.816 154.562 64.392 140.81 68.16L140.618 67.776C151.898 62.64 152.354 56.544 152.522 47.064ZM168.41 45.96L172.37 46.344C172.322 46.704 172.13 46.944 171.482 47.04V66.576H168.41V45.96ZM170.138 55.032H175.418L177.146 52.848C177.146 52.848 179.066 54.312 180.242 55.344C180.17 55.608 179.906 55.728 179.57 55.728H170.138V55.032ZM159.458 66.192H177.122L178.85 63.96C178.85 63.96 180.842 65.448 182.042 66.48C181.97 66.744 181.682 66.864 181.322 66.864H159.65L159.458 66.192Z" fill="url(#paint65_linear_236_4024)"/>
</g>
<defs>
<filter id="filter0_d_236_4024" x="0" y="2" width="15.0618" height="32.0002" filterUnits="userSpaceOnUse" color-interpolation-filters="sRGB">
<feFlood flood-opacity="0" result="BackgroundImageFix"/>
<feColorMatrix in="SourceAlpha" type="matrix" values="0 0 0 0 0 0 0 0 0 0 0 0 0 0 0 0 0 0 127 0" result="hardAlpha"/>
<feOffset dy="1"/>
<feGaussianBlur stdDeviation="0.5"/>
<feComposite in2="hardAlpha" operator="out"/>
<feColorMatrix type="matrix" values="0 0 0 0 0 0 0 0 0 0 0 0 0 0 0 0 0 0 0.5 0"/>
<feBlend mode="normal" in2="BackgroundImageFix" result="effect1_dropShadow_236_4024"/>
<feBlend mode="normal" in="SourceGraphic" in2="effect1_dropShadow_236_4024" result="shape"/>
</filter>
<filter id="filter1_d_236_4024" x="244.143" y="2" width="15.0618" height="32.0002" filterUnits="userSpaceOnUse" color-interpolation-filters="sRGB">
<feFlood flood-opacity="0" result="BackgroundImageFix"/>
<feColorMatrix in="SourceAlpha" type="matrix" values="0 0 0 0 0 0 0 0 0 0 0 0 0 0 0 0 0 0 127 0" result="hardAlpha"/>
<feOffset dy="1"/>
<feGaussianBlur stdDeviation="0.5"/>
<feComposite in2="hardAlpha" operator="out"/>
<feColorMatrix type="matrix" values="0 0 0 0 0 0 0 0 0 0 0 0 0 0 0 0 0 0 0.5 0"/>
<feBlend mode="normal" in2="BackgroundImageFix" result="effect1_dropShadow_236_4024"/>
<feBlend mode="normal" in="SourceGraphic" in2="effect1_dropShadow_236_4024" result="shape"/>
</filter>
<filter id="filter2_d_236_4024" x="29.3898" y="6.31201" width="205.988" height="27.448" filterUnits="userSpaceOnUse" color-interpolation-filters="sRGB">
<feFlood flood-opacity="0" result="BackgroundImageFix"/>
<feColorMatrix in="SourceAlpha" type="matrix" values="0 0 0 0 0 0 0 0 0 0 0 0 0 0 0 0 0 0 127 0" result="hardAlpha"/>
<feOffset dy="2"/>
<feGaussianBlur stdDeviation="1"/>
<feComposite in2="hardAlpha" operator="out"/>
<feColorMatrix type="matrix" values="0 0 0 0 0 0 0 0 0 0 0 0 0 0 0 0 0 0 0.5 0"/>
<feBlend mode="normal" in2="BackgroundImageFix" result="effect1_dropShadow_236_4024"/>
<feBlend mode="normal" in="SourceGraphic" in2="effect1_dropShadow_236_4024" result="shape"/>
</filter>
<filter id="filter3_d_236_4024" x="51" y="41" width="17.0618" height="34.0002" filterUnits="userSpaceOnUse" color-interpolation-filters="sRGB">
<feFlood flood-opacity="0" result="BackgroundImageFix"/>
<feColorMatrix in="SourceAlpha" type="matrix" values="0 0 0 0 0 0 0 0 0 0 0 0 0 0 0 0 0 0 127 0" result="hardAlpha"/>
<feOffset dy="2"/>
<feGaussianBlur stdDeviation="1"/>
<feComposite in2="hardAlpha" operator="out"/>
<feColorMatrix type="matrix" values="0 0 0 0 0 0 0 0 0 0 0 0 0 0 0 0 0 0 0.5 0"/>
<feBlend mode="normal" in2="BackgroundImageFix" result="effect1_dropShadow_236_4024"/>
<feBlend mode="normal" in="SourceGraphic" in2="effect1_dropShadow_236_4024" result="shape"/>
</filter>
<filter id="filter4_d_236_4024" x="191.143" y="41" width="17.0618" height="34.0002" filterUnits="userSpaceOnUse" color-interpolation-filters="sRGB">
<feFlood flood-opacity="0" result="BackgroundImageFix"/>
<feColorMatrix in="SourceAlpha" type="matrix" values="0 0 0 0 0 0 0 0 0 0 0 0 0 0 0 0 0 0 127 0" result="hardAlpha"/>
<feOffset dy="2"/>
<feGaussianBlur stdDeviation="1"/>
<feComposite in2="hardAlpha" operator="out"/>
<feColorMatrix type="matrix" values="0 0 0 0 0 0 0 0 0 0 0 0 0 0 0 0 0 0 0.5 0"/>
<feBlend mode="normal" in2="BackgroundImageFix" result="effect1_dropShadow_236_4024"/>
<feBlend mode="normal" in="SourceGraphic" in2="effect1_dropShadow_236_4024" result="shape"/>
</filter>
<filter id="filter5_d_236_4024" x="81.5577" y="45.696" width="102.485" height="27.688" filterUnits="userSpaceOnUse" color-interpolation-filters="sRGB">
<feFlood flood-opacity="0" result="BackgroundImageFix"/>
<feColorMatrix in="SourceAlpha" type="matrix" values="0 0 0 0 0 0 0 0 0 0 0 0 0 0 0 0 0 0 127 0" result="hardAlpha"/>
<feOffset dy="2"/>
<feGaussianBlur stdDeviation="1"/>
<feComposite in2="hardAlpha" operator="out"/>
<feColorMatrix type="matrix" values="0 0 0 0 0 0 0 0 0 0 0 0 0 0 0 0 0 0 0.5 0"/>
<feBlend mode="normal" in2="BackgroundImageFix" result="effect1_dropShadow_236_4024"/>
<feBlend mode="normal" in="SourceGraphic" in2="effect1_dropShadow_236_4024" result="shape"/>
</filter>
<linearGradient id="paint0_linear_236_4024" x1="26.509" y1="5.93149" x2="0.952905" y2="40.0166" gradientUnits="userSpaceOnUse">
<stop stop-color="#A3772D"/>
<stop offset="0.5" stop-color="#DBB35B"/>
<stop offset="1" stop-color="#A3772D"/>
</linearGradient>
<linearGradient id="paint1_linear_236_4024" x1="23.9809" y1="4.03494" x2="-1.57512" y2="38.1204" gradientUnits="userSpaceOnUse">
<stop stop-color="#A3772D"/>
<stop offset="0.5" stop-color="#DBB35B"/>
<stop offset="1" stop-color="#A3772D"/>
</linearGradient>
<linearGradient id="paint2_linear_236_4024" x1="21.178" y1="1.93466" x2="-4.37803" y2="36.0198" gradientUnits="userSpaceOnUse">
<stop stop-color="#A3772D"/>
<stop offset="0.5" stop-color="#DBB35B"/>
<stop offset="1" stop-color="#A3772D"/>
</linearGradient>
<linearGradient id="paint3_linear_236_4024" x1="18.7387" y1="0.105034" x2="-6.81733" y2="34.1901" gradientUnits="userSpaceOnUse">
<stop stop-color="#A3772D"/>
<stop offset="0.5" stop-color="#DBB35B"/>
<stop offset="1" stop-color="#A3772D"/>
</linearGradient>
<linearGradient id="paint4_linear_236_4024" x1="17.1138" y1="-1.11271" x2="-8.44186" y2="32.9724" gradientUnits="userSpaceOnUse">
<stop stop-color="#A3772D"/>
<stop offset="0.5" stop-color="#DBB35B"/>
<stop offset="1" stop-color="#A3772D"/>
</linearGradient>
<linearGradient id="paint5_linear_236_4024" x1="16.5043" y1="-1.56956" x2="-9.05177" y2="32.5155" gradientUnits="userSpaceOnUse">
<stop stop-color="#A3772D"/>
<stop offset="0.5" stop-color="#DBB35B"/>
<stop offset="1" stop-color="#A3772D"/>
</linearGradient>
<linearGradient id="paint6_linear_236_4024" x1="14.4537" y1="-3.10686" x2="-11.1023" y2="30.9782" gradientUnits="userSpaceOnUse">
<stop stop-color="#A3772D"/>
<stop offset="0.5" stop-color="#DBB35B"/>
<stop offset="1" stop-color="#A3772D"/>
</linearGradient>
<linearGradient id="paint7_linear_236_4024" x1="16.6781" y1="-1.43938" x2="-8.87797" y2="32.6457" gradientUnits="userSpaceOnUse">
<stop stop-color="#A3772D"/>
<stop offset="0.5" stop-color="#DBB35B"/>
<stop offset="1" stop-color="#A3772D"/>
</linearGradient>
<linearGradient id="paint8_linear_236_4024" x1="15.502" y1="-2.32158" x2="-10.0541" y2="31.7635" gradientUnits="userSpaceOnUse">
<stop stop-color="#A3772D"/>
<stop offset="0.5" stop-color="#DBB35B"/>
<stop offset="1" stop-color="#A3772D"/>
</linearGradient>
<linearGradient id="paint9_linear_236_4024" x1="13.8805" y1="-3.53683" x2="-11.6755" y2="30.5483" gradientUnits="userSpaceOnUse">
<stop stop-color="#A3772D"/>
<stop offset="0.5" stop-color="#DBB35B"/>
<stop offset="1" stop-color="#A3772D"/>
</linearGradient>
<linearGradient id="paint10_linear_236_4024" x1="14.4537" y1="-3.10734" x2="-11.1023" y2="30.9781" gradientUnits="userSpaceOnUse">
<stop stop-color="#A3772D"/>
<stop offset="0.5" stop-color="#DBB35B"/>
<stop offset="1" stop-color="#A3772D"/>
</linearGradient>
<linearGradient id="paint11_linear_236_4024" x1="15.954" y1="-1.9825" x2="-9.602" y2="32.1026" gradientUnits="userSpaceOnUse">
<stop stop-color="#A3772D"/>
<stop offset="0.5" stop-color="#DBB35B"/>
<stop offset="1" stop-color="#A3772D"/>
</linearGradient>
<linearGradient id="paint12_linear_236_4024" x1="18.391" y1="-0.15502" x2="-7.16501" y2="33.9301" gradientUnits="userSpaceOnUse">
<stop stop-color="#A3772D"/>
<stop offset="0.5" stop-color="#DBB35B"/>
<stop offset="1" stop-color="#A3772D"/>
</linearGradient>
<linearGradient id="paint13_linear_236_4024" x1="21.5254" y1="2.19476" x2="-4.03024" y2="36.2799" gradientUnits="userSpaceOnUse">
<stop stop-color="#A3772D"/>
<stop offset="0.5" stop-color="#DBB35B"/>
<stop offset="1" stop-color="#A3772D"/>
</linearGradient>
<linearGradient id="paint14_linear_236_4024" x1="25.2214" y1="4.96631" x2="-0.33462" y2="39.0514" gradientUnits="userSpaceOnUse">
<stop stop-color="#A3772D"/>
<stop offset="0.5" stop-color="#DBB35B"/>
<stop offset="1" stop-color="#A3772D"/>
</linearGradient>
<linearGradient id="paint15_linear_236_4024" x1="28.5823" y1="7.48616" x2="3.0263" y2="41.5713" gradientUnits="userSpaceOnUse">
<stop stop-color="#A3772D"/>
<stop offset="0.5" stop-color="#DBB35B"/>
<stop offset="1" stop-color="#A3772D"/>
</linearGradient>
<linearGradient id="paint16_linear_236_4024" x1="232.696" y1="5.93149" x2="258.252" y2="40.0166" gradientUnits="userSpaceOnUse">
<stop stop-color="#A3772D"/>
<stop offset="0.5" stop-color="#DBB35B"/>
<stop offset="1" stop-color="#A3772D"/>
</linearGradient>
<linearGradient id="paint17_linear_236_4024" x1="235.225" y1="4.03494" x2="260.781" y2="38.1204" gradientUnits="userSpaceOnUse">
<stop stop-color="#A3772D"/>
<stop offset="0.5" stop-color="#DBB35B"/>
<stop offset="1" stop-color="#A3772D"/>
</linearGradient>
<linearGradient id="paint18_linear_236_4024" x1="238.028" y1="1.93466" x2="263.584" y2="36.0198" gradientUnits="userSpaceOnUse">
<stop stop-color="#A3772D"/>
<stop offset="0.5" stop-color="#DBB35B"/>
<stop offset="1" stop-color="#A3772D"/>
</linearGradient>
<linearGradient id="paint19_linear_236_4024" x1="240.467" y1="0.105035" x2="266.023" y2="34.1901" gradientUnits="userSpaceOnUse">
<stop stop-color="#A3772D"/>
<stop offset="0.5" stop-color="#DBB35B"/>
<stop offset="1" stop-color="#A3772D"/>
</linearGradient>
<linearGradient id="paint20_linear_236_4024" x1="242.091" y1="-1.11271" x2="267.647" y2="32.9723" gradientUnits="userSpaceOnUse">
<stop stop-color="#A3772D"/>
<stop offset="0.5" stop-color="#DBB35B"/>
<stop offset="1" stop-color="#A3772D"/>
</linearGradient>
<linearGradient id="paint21_linear_236_4024" x1="242.7" y1="-1.56956" x2="268.256" y2="32.5155" gradientUnits="userSpaceOnUse">
<stop stop-color="#A3772D"/>
<stop offset="0.5" stop-color="#DBB35B"/>
<stop offset="1" stop-color="#A3772D"/>
</linearGradient>
<linearGradient id="paint22_linear_236_4024" x1="244.751" y1="-3.10757" x2="270.307" y2="30.9778" gradientUnits="userSpaceOnUse">
<stop stop-color="#A3772D"/>
<stop offset="0.5" stop-color="#DBB35B"/>
<stop offset="1" stop-color="#A3772D"/>
</linearGradient>
<linearGradient id="paint23_linear_236_4024" x1="242.527" y1="-1.43938" x2="268.083" y2="32.6457" gradientUnits="userSpaceOnUse">
<stop stop-color="#A3772D"/>
<stop offset="0.5" stop-color="#DBB35B"/>
<stop offset="1" stop-color="#A3772D"/>
</linearGradient>
<linearGradient id="paint24_linear_236_4024" x1="243.704" y1="-2.32158" x2="269.26" y2="31.7635" gradientUnits="userSpaceOnUse">
<stop stop-color="#A3772D"/>
<stop offset="0.5" stop-color="#DBB35B"/>
<stop offset="1" stop-color="#A3772D"/>
</linearGradient>
<linearGradient id="paint25_linear_236_4024" x1="245.324" y1="-3.53683" x2="270.88" y2="30.5482" gradientUnits="userSpaceOnUse">
<stop stop-color="#A3772D"/>
<stop offset="0.5" stop-color="#DBB35B"/>
<stop offset="1" stop-color="#A3772D"/>
</linearGradient>
<linearGradient id="paint26_linear_236_4024" x1="244.751" y1="-3.10734" x2="270.307" y2="30.9778" gradientUnits="userSpaceOnUse">
<stop stop-color="#A3772D"/>
<stop offset="0.5" stop-color="#DBB35B"/>
<stop offset="1" stop-color="#A3772D"/>
</linearGradient>
<linearGradient id="paint27_linear_236_4024" x1="243.251" y1="-1.9825" x2="268.807" y2="32.1026" gradientUnits="userSpaceOnUse">
<stop stop-color="#A3772D"/>
<stop offset="0.5" stop-color="#DBB35B"/>
<stop offset="1" stop-color="#A3772D"/>
</linearGradient>
<linearGradient id="paint28_linear_236_4024" x1="240.814" y1="-0.155128" x2="266.37" y2="33.93" gradientUnits="userSpaceOnUse">
<stop stop-color="#A3772D"/>
<stop offset="0.5" stop-color="#DBB35B"/>
<stop offset="1" stop-color="#A3772D"/>
</linearGradient>
<linearGradient id="paint29_linear_236_4024" x1="237.681" y1="2.19476" x2="263.237" y2="36.2798" gradientUnits="userSpaceOnUse">
<stop stop-color="#A3772D"/>
<stop offset="0.5" stop-color="#DBB35B"/>
<stop offset="1" stop-color="#A3772D"/>
</linearGradient>
<linearGradient id="paint30_linear_236_4024" x1="233.983" y1="4.96631" x2="259.539" y2="39.0514" gradientUnits="userSpaceOnUse">
<stop stop-color="#A3772D"/>
<stop offset="0.5" stop-color="#DBB35B"/>
<stop offset="1" stop-color="#A3772D"/>
</linearGradient>
<linearGradient id="paint31_linear_236_4024" x1="230.623" y1="7.48616" x2="256.179" y2="41.5713" gradientUnits="userSpaceOnUse">
<stop stop-color="#A3772D"/>
<stop offset="0.5" stop-color="#DBB35B"/>
<stop offset="1" stop-color="#A3772D"/>
</linearGradient>
<linearGradient id="paint32_linear_236_4024" x1="31.2155" y1="15.9993" x2="229.718" y2="15.4077" gradientUnits="userSpaceOnUse">
<stop stop-color="#D7AD54"/>
<stop offset="0.504" stop-color="#F7DF8D"/>
<stop offset="1" stop-color="#D7AD54"/>
</linearGradient>
<linearGradient id="paint33_linear_236_4024" x1="78.509" y1="44.9315" x2="52.9529" y2="79.0166" gradientUnits="userSpaceOnUse">
<stop stop-color="#A3772D"/>
<stop offset="0.5" stop-color="#DBB35B"/>
<stop offset="1" stop-color="#A3772D"/>
</linearGradient>
<linearGradient id="paint34_linear_236_4024" x1="75.9809" y1="43.0349" x2="50.4249" y2="77.1204" gradientUnits="userSpaceOnUse">
<stop stop-color="#A3772D"/>
<stop offset="0.5" stop-color="#DBB35B"/>
<stop offset="1" stop-color="#A3772D"/>
</linearGradient>
<linearGradient id="paint35_linear_236_4024" x1="73.178" y1="40.9347" x2="47.622" y2="75.0198" gradientUnits="userSpaceOnUse">
<stop stop-color="#A3772D"/>
<stop offset="0.5" stop-color="#DBB35B"/>
<stop offset="1" stop-color="#A3772D"/>
</linearGradient>
<linearGradient id="paint36_linear_236_4024" x1="70.7387" y1="39.105" x2="45.1827" y2="73.1901" gradientUnits="userSpaceOnUse">
<stop stop-color="#A3772D"/>
<stop offset="0.5" stop-color="#DBB35B"/>
<stop offset="1" stop-color="#A3772D"/>
</linearGradient>
<linearGradient id="paint37_linear_236_4024" x1="69.1138" y1="37.8873" x2="43.5581" y2="71.9724" gradientUnits="userSpaceOnUse">
<stop stop-color="#A3772D"/>
<stop offset="0.5" stop-color="#DBB35B"/>
<stop offset="1" stop-color="#A3772D"/>
</linearGradient>
<linearGradient id="paint38_linear_236_4024" x1="68.5043" y1="37.4304" x2="42.9482" y2="71.5155" gradientUnits="userSpaceOnUse">
<stop stop-color="#A3772D"/>
<stop offset="0.5" stop-color="#DBB35B"/>
<stop offset="1" stop-color="#A3772D"/>
</linearGradient>
<linearGradient id="paint39_linear_236_4024" x1="66.4537" y1="35.8931" x2="40.8977" y2="69.9782" gradientUnits="userSpaceOnUse">
<stop stop-color="#A3772D"/>
<stop offset="0.5" stop-color="#DBB35B"/>
<stop offset="1" stop-color="#A3772D"/>
</linearGradient>
<linearGradient id="paint40_linear_236_4024" x1="68.6781" y1="37.5606" x2="43.122" y2="71.6457" gradientUnits="userSpaceOnUse">
<stop stop-color="#A3772D"/>
<stop offset="0.5" stop-color="#DBB35B"/>
<stop offset="1" stop-color="#A3772D"/>
</linearGradient>
<linearGradient id="paint41_linear_236_4024" x1="67.502" y1="36.6784" x2="41.9459" y2="70.7635" gradientUnits="userSpaceOnUse">
<stop stop-color="#A3772D"/>
<stop offset="0.5" stop-color="#DBB35B"/>
<stop offset="1" stop-color="#A3772D"/>
</linearGradient>
<linearGradient id="paint42_linear_236_4024" x1="65.8805" y1="35.4632" x2="40.3245" y2="69.5483" gradientUnits="userSpaceOnUse">
<stop stop-color="#A3772D"/>
<stop offset="0.5" stop-color="#DBB35B"/>
<stop offset="1" stop-color="#A3772D"/>
</linearGradient>
<linearGradient id="paint43_linear_236_4024" x1="66.4537" y1="35.8927" x2="40.8977" y2="69.9781" gradientUnits="userSpaceOnUse">
<stop stop-color="#A3772D"/>
<stop offset="0.5" stop-color="#DBB35B"/>
<stop offset="1" stop-color="#A3772D"/>
</linearGradient>
<linearGradient id="paint44_linear_236_4024" x1="67.954" y1="37.0175" x2="42.398" y2="71.1026" gradientUnits="userSpaceOnUse">
<stop stop-color="#A3772D"/>
<stop offset="0.5" stop-color="#DBB35B"/>
<stop offset="1" stop-color="#A3772D"/>
</linearGradient>
<linearGradient id="paint45_linear_236_4024" x1="70.391" y1="38.845" x2="44.835" y2="72.9301" gradientUnits="userSpaceOnUse">
<stop stop-color="#A3772D"/>
<stop offset="0.5" stop-color="#DBB35B"/>
<stop offset="1" stop-color="#A3772D"/>
</linearGradient>
<linearGradient id="paint46_linear_236_4024" x1="73.5254" y1="41.1948" x2="47.9698" y2="75.2799" gradientUnits="userSpaceOnUse">
<stop stop-color="#A3772D"/>
<stop offset="0.5" stop-color="#DBB35B"/>
<stop offset="1" stop-color="#A3772D"/>
</linearGradient>
<linearGradient id="paint47_linear_236_4024" x1="77.2214" y1="43.9663" x2="51.6654" y2="78.0514" gradientUnits="userSpaceOnUse">
<stop stop-color="#A3772D"/>
<stop offset="0.5" stop-color="#DBB35B"/>
<stop offset="1" stop-color="#A3772D"/>
</linearGradient>
<linearGradient id="paint48_linear_236_4024" x1="80.5823" y1="46.4862" x2="55.0263" y2="80.5713" gradientUnits="userSpaceOnUse">
<stop stop-color="#A3772D"/>
<stop offset="0.5" stop-color="#DBB35B"/>
<stop offset="1" stop-color="#A3772D"/>
</linearGradient>
<linearGradient id="paint49_linear_236_4024" x1="180.696" y1="44.9315" x2="206.252" y2="79.0166" gradientUnits="userSpaceOnUse">
<stop stop-color="#A3772D"/>
<stop offset="0.5" stop-color="#DBB35B"/>
<stop offset="1" stop-color="#A3772D"/>
</linearGradient>
<linearGradient id="paint50_linear_236_4024" x1="183.225" y1="43.0349" x2="208.781" y2="77.1204" gradientUnits="userSpaceOnUse">
<stop stop-color="#A3772D"/>
<stop offset="0.5" stop-color="#DBB35B"/>
<stop offset="1" stop-color="#A3772D"/>
</linearGradient>
<linearGradient id="paint51_linear_236_4024" x1="186.028" y1="40.9347" x2="211.584" y2="75.0198" gradientUnits="userSpaceOnUse">
<stop stop-color="#A3772D"/>
<stop offset="0.5" stop-color="#DBB35B"/>
<stop offset="1" stop-color="#A3772D"/>
</linearGradient>
<linearGradient id="paint52_linear_236_4024" x1="188.467" y1="39.105" x2="214.023" y2="73.1901" gradientUnits="userSpaceOnUse">
<stop stop-color="#A3772D"/>
<stop offset="0.5" stop-color="#DBB35B"/>
<stop offset="1" stop-color="#A3772D"/>
</linearGradient>
<linearGradient id="paint53_linear_236_4024" x1="190.091" y1="37.8873" x2="215.647" y2="71.9723" gradientUnits="userSpaceOnUse">
<stop stop-color="#A3772D"/>
<stop offset="0.5" stop-color="#DBB35B"/>
<stop offset="1" stop-color="#A3772D"/>
</linearGradient>
<linearGradient id="paint54_linear_236_4024" x1="190.7" y1="37.4304" x2="216.256" y2="71.5155" gradientUnits="userSpaceOnUse">
<stop stop-color="#A3772D"/>
<stop offset="0.5" stop-color="#DBB35B"/>
<stop offset="1" stop-color="#A3772D"/>
</linearGradient>
<linearGradient id="paint55_linear_236_4024" x1="192.751" y1="35.8924" x2="218.307" y2="69.9778" gradientUnits="userSpaceOnUse">
<stop stop-color="#A3772D"/>
<stop offset="0.5" stop-color="#DBB35B"/>
<stop offset="1" stop-color="#A3772D"/>
</linearGradient>
<linearGradient id="paint56_linear_236_4024" x1="190.527" y1="37.5606" x2="216.083" y2="71.6457" gradientUnits="userSpaceOnUse">
<stop stop-color="#A3772D"/>
<stop offset="0.5" stop-color="#DBB35B"/>
<stop offset="1" stop-color="#A3772D"/>
</linearGradient>
<linearGradient id="paint57_linear_236_4024" x1="191.704" y1="36.6784" x2="217.26" y2="70.7635" gradientUnits="userSpaceOnUse">
<stop stop-color="#A3772D"/>
<stop offset="0.5" stop-color="#DBB35B"/>
<stop offset="1" stop-color="#A3772D"/>
</linearGradient>
<linearGradient id="paint58_linear_236_4024" x1="193.324" y1="35.4632" x2="218.88" y2="69.5482" gradientUnits="userSpaceOnUse">
<stop stop-color="#A3772D"/>
<stop offset="0.5" stop-color="#DBB35B"/>
<stop offset="1" stop-color="#A3772D"/>
</linearGradient>
<linearGradient id="paint59_linear_236_4024" x1="192.751" y1="35.8927" x2="218.307" y2="69.9778" gradientUnits="userSpaceOnUse">
<stop stop-color="#A3772D"/>
<stop offset="0.5" stop-color="#DBB35B"/>
<stop offset="1" stop-color="#A3772D"/>
</linearGradient>
<linearGradient id="paint60_linear_236_4024" x1="191.251" y1="37.0175" x2="216.807" y2="71.1026" gradientUnits="userSpaceOnUse">
<stop stop-color="#A3772D"/>
<stop offset="0.5" stop-color="#DBB35B"/>
<stop offset="1" stop-color="#A3772D"/>
</linearGradient>
<linearGradient id="paint61_linear_236_4024" x1="188.814" y1="38.8449" x2="214.37" y2="72.93" gradientUnits="userSpaceOnUse">
<stop stop-color="#A3772D"/>
<stop offset="0.5" stop-color="#DBB35B"/>
<stop offset="1" stop-color="#A3772D"/>
</linearGradient>
<linearGradient id="paint62_linear_236_4024" x1="185.681" y1="41.1948" x2="211.237" y2="75.2798" gradientUnits="userSpaceOnUse">
<stop stop-color="#A3772D"/>
<stop offset="0.5" stop-color="#DBB35B"/>
<stop offset="1" stop-color="#A3772D"/>
</linearGradient>
<linearGradient id="paint63_linear_236_4024" x1="181.983" y1="43.9663" x2="207.539" y2="78.0514" gradientUnits="userSpaceOnUse">
<stop stop-color="#A3772D"/>
<stop offset="0.5" stop-color="#DBB35B"/>
<stop offset="1" stop-color="#A3772D"/>
</linearGradient>
<linearGradient id="paint64_linear_236_4024" x1="178.623" y1="46.4862" x2="204.179" y2="80.5713" gradientUnits="userSpaceOnUse">
<stop stop-color="#A3772D"/>
<stop offset="0.5" stop-color="#DBB35B"/>
<stop offset="1" stop-color="#A3772D"/>
</linearGradient>
<linearGradient id="paint65_linear_236_4024" x1="82.6018" y1="54.9993" x2="180.881" y2="54.8543" gradientUnits="userSpaceOnUse">
<stop stop-color="#D7AD54"/>
<stop offset="0.504" stop-color="#F7DF8D"/>
<stop offset="1" stop-color="#D7AD54"/>
</linearGradient>
</defs>
</svg>
