<svg width="26" height="54" viewBox="0 0 26 54" fill="none" xmlns="http://www.w3.org/2000/svg">
<g id="Group 33" filter="url(#filter0_d_119_1763)">
<path id="Vector" d="M3.10564 39.3068C2.40064 42.1675 3.92073 44.2512 3.92073 44.2512C3.92073 44.2512 6.15709 43.4255 6.86084 40.5654C7.56584 37.7048 6.47111 33.8945 6.47111 33.8945C6.47111 33.8945 3.81064 36.4468 3.10564 39.3068Z" fill="url(#paint0_linear_119_1763)"/>
<path id="Vector_2" d="M7.61338 36.6913C7.08979 39.6039 8.735 41.5518 8.735 41.5518C8.735 41.5518 10.9132 40.5384 11.4361 37.6265C11.9597 34.7139 10.6304 31.0056 10.6304 31.0056C10.6304 31.0056 8.13635 33.7787 7.61338 36.6913Z" fill="url(#paint1_linear_119_1763)"/>
<path id="Vector_3" d="M11.5271 32.1272C12.0763 34.8796 14.1638 35.7911 14.1638 35.7911C14.1638 35.7911 15.692 33.9006 15.1428 31.1457C14.5936 28.3933 12.1752 25.8191 12.1752 25.8191C12.1752 25.8191 10.9778 29.3722 11.5271 32.1272Z" fill="url(#paint2_linear_119_1763)"/>
<path id="Vector_4" d="M13.338 26.0844C14.5848 28.5078 16.8117 28.6273 16.8117 28.6273C16.8117 28.6273 17.7688 26.2814 16.5221 23.8574C15.2747 21.434 12.2946 19.8501 12.2946 19.8501C12.2946 19.8501 12.0907 23.6604 13.338 26.0844Z" fill="url(#paint3_linear_119_1763)"/>
<path id="Vector_5" d="M12.9513 19.5649C14.8392 21.1038 16.8091 20.2023 16.8091 20.2023C16.8091 20.2023 16.8591 17.7358 14.9712 16.1969C13.0833 14.658 9.97302 14.6299 9.97302 14.6299C9.97302 14.6299 11.0634 18.0279 12.9513 19.5649Z" fill="url(#paint4_linear_119_1763)"/>
<path id="Vector_6" d="M10.5729 13.9012C12.641 15.0853 14.4695 13.8417 14.4695 13.8417C14.4695 13.8417 14.1942 11.3939 12.1268 10.2123C10.0587 9.02997 6.98157 9.55794 6.98157 9.55794C6.98157 9.55794 8.50542 12.7195 10.5729 13.9012Z" fill="url(#paint5_linear_119_1763)"/>
<path id="Vector_7" d="M10.1767 6.08862C10.8541 8.35813 12.6889 8.90674 12.6889 8.90674C12.6889 8.90674 13.8324 7.14831 13.1549 4.87879C12.4774 2.60928 10.2336 0.689453 10.2336 0.689453C10.2336 0.689453 9.49919 3.82161 10.1767 6.08862Z" fill="url(#paint6_linear_119_1763)"/>
<path id="Vector_8" d="M7.00233 8.80089C8.98534 9.45147 10.4235 8.01269 10.4235 8.01269C10.4235 8.01269 9.8411 5.91082 7.85809 5.26025C5.87446 4.60967 3.23962 5.65435 3.23962 5.65435C3.23962 5.65435 5.01932 8.15031 7.00233 8.80089Z" fill="url(#paint7_linear_119_1763)"/>
<path id="Vector_9" d="M6.11586 3.83653C7.51523 5.06136 9.02971 4.43456 9.02971 4.43456C9.02971 4.43456 9.12166 2.5629 7.72417 1.33806C6.3248 0.113225 3.96521 0 3.96521 0C3.96521 0 4.71649 2.61169 6.11586 3.83653Z" fill="url(#paint8_linear_119_1763)"/>
<path id="Vector_10" d="M13.8641 9.4959C14.0111 12.1764 15.8439 13.4087 15.8439 13.4087C15.8439 13.4087 17.5292 11.9137 17.3822 9.23379C17.2358 6.55392 15.3128 3.70264 15.3128 3.70264C15.3128 3.70264 13.7171 6.81602 13.8641 9.4959Z" fill="url(#paint9_linear_119_1763)"/>
<path id="Vector_11" d="M16.8097 15.3916C16.4037 18.0346 17.9331 19.7411 17.9331 19.7411C17.9331 19.7411 19.8743 18.7577 20.2802 16.1148C20.6856 13.4718 19.402 10.167 19.402 10.167C19.402 10.167 17.215 12.7468 16.8097 15.3916Z" fill="url(#paint10_linear_119_1763)"/>
<path id="Vector_12" d="M18.4124 22.3685C17.2889 24.8745 18.363 27.1509 18.363 27.1509C18.363 27.1509 20.5793 26.88 21.7015 24.3741C22.825 21.8687 22.4284 18.0791 22.4284 18.0791C22.4284 18.0791 19.5365 19.8632 18.4124 22.3685Z" fill="url(#paint11_linear_119_1763)"/>
<path id="Vector_13" d="M18.5468 29.3637C16.4443 30.7724 16.2992 33.3635 16.2992 33.3635C16.2992 33.3635 18.2935 34.5233 20.396 33.1139C22.4984 31.7051 23.9128 28.2627 23.9128 28.2627C23.9128 28.2627 20.6493 27.9543 18.5468 29.3637Z" fill="url(#paint12_linear_119_1763)"/>
<path id="Vector_14" d="M16.3114 36.2011C13.8124 36.8016 12.9341 39.3389 12.9341 39.3389C12.9341 39.3389 14.5999 41.2643 17.099 40.6638C19.5981 40.0633 21.9852 37.1638 21.9852 37.1638C21.9852 37.1638 18.8105 35.6012 16.3114 36.2011Z" fill="url(#paint13_linear_119_1763)"/>
<path id="Vector_15" d="M12.9732 42.2587C10.6224 41.1015 8.66687 42.6103 8.66687 42.6103C8.66687 42.6103 9.10225 45.2977 11.4543 46.4537C13.8045 47.6116 17.1819 46.8015 17.1819 46.8015C17.1819 46.8015 15.3234 43.4173 12.9732 42.2587Z" fill="url(#paint14_linear_119_1763)"/>
<path id="Vector_16" d="M6.455 45.1433C4.12293 43.936 2.14307 45.3998 2.14307 45.3998C2.14307 45.3998 2.53591 48.0972 4.86798 49.3051C7.20004 50.5131 10.5881 49.7793 10.5881 49.7793C10.5881 49.7793 8.78707 46.3531 6.455 45.1433Z" fill="url(#paint15_linear_119_1763)"/>
</g>
<defs>
<filter id="filter0_d_119_1763" x="0.143066" y="0" width="25.7698" height="54" filterUnits="userSpaceOnUse" color-interpolation-filters="sRGB">
<feFlood flood-opacity="0" result="BackgroundImageFix"/>
<feColorMatrix in="SourceAlpha" type="matrix" values="0 0 0 0 0 0 0 0 0 0 0 0 0 0 0 0 0 0 127 0" result="hardAlpha"/>
<feOffset dy="2"/>
<feGaussianBlur stdDeviation="1"/>
<feComposite in2="hardAlpha" operator="out"/>
<feColorMatrix type="matrix" values="0 0 0 0 0 0 0 0 0 0 0 0 0 0 0 0 0 0 0.5 0"/>
<feBlend mode="normal" in2="BackgroundImageFix" result="effect1_dropShadow_119_1763"/>
<feBlend mode="normal" in="SourceGraphic" in2="effect1_dropShadow_119_1763" result="shape"/>
</filter>
<linearGradient id="paint0_linear_119_1763" x1="-18.6017" y1="6.55215" x2="23.9917" y2="63.3606" gradientUnits="userSpaceOnUse">
<stop stop-color="#A3772D"/>
<stop offset="0.5" stop-color="#DBB35B"/>
<stop offset="1" stop-color="#A3772D"/>
</linearGradient>
<linearGradient id="paint1_linear_119_1763" x1="-14.3874" y1="3.39174" x2="28.2055" y2="60.2008" gradientUnits="userSpaceOnUse">
<stop stop-color="#A3772D"/>
<stop offset="0.5" stop-color="#DBB35B"/>
<stop offset="1" stop-color="#A3772D"/>
</linearGradient>
<linearGradient id="paint2_linear_119_1763" x1="-9.71612" y1="-0.108905" x2="32.8773" y2="56.6996" gradientUnits="userSpaceOnUse">
<stop stop-color="#A3772D"/>
<stop offset="0.5" stop-color="#DBB35B"/>
<stop offset="1" stop-color="#A3772D"/>
</linearGradient>
<linearGradient id="paint3_linear_119_1763" x1="-5.65003" y1="-3.15844" x2="36.9434" y2="53.65" gradientUnits="userSpaceOnUse">
<stop stop-color="#A3772D"/>
<stop offset="0.5" stop-color="#DBB35B"/>
<stop offset="1" stop-color="#A3772D"/>
</linearGradient>
<linearGradient id="paint4_linear_119_1763" x1="-2.94341" y1="-5.18769" x2="39.65" y2="51.6207" gradientUnits="userSpaceOnUse">
<stop stop-color="#A3772D"/>
<stop offset="0.5" stop-color="#DBB35B"/>
<stop offset="1" stop-color="#A3772D"/>
</linearGradient>
<linearGradient id="paint5_linear_119_1763" x1="-1.92821" y1="-5.94894" x2="40.6652" y2="50.8596" gradientUnits="userSpaceOnUse">
<stop stop-color="#A3772D"/>
<stop offset="0.5" stop-color="#DBB35B"/>
<stop offset="1" stop-color="#A3772D"/>
</linearGradient>
<linearGradient id="paint6_linear_119_1763" x1="1.48961" y1="-8.51246" x2="44.083" y2="48.2966" gradientUnits="userSpaceOnUse">
<stop stop-color="#A3772D"/>
<stop offset="0.5" stop-color="#DBB35B"/>
<stop offset="1" stop-color="#A3772D"/>
</linearGradient>
<linearGradient id="paint7_linear_119_1763" x1="-2.21647" y1="-5.73263" x2="40.3769" y2="51.0759" gradientUnits="userSpaceOnUse">
<stop stop-color="#A3772D"/>
<stop offset="0.5" stop-color="#DBB35B"/>
<stop offset="1" stop-color="#A3772D"/>
</linearGradient>
<linearGradient id="paint8_linear_119_1763" x1="-0.25604" y1="-7.20264" x2="42.3374" y2="49.6059" gradientUnits="userSpaceOnUse">
<stop stop-color="#A3772D"/>
<stop offset="0.5" stop-color="#DBB35B"/>
<stop offset="1" stop-color="#A3772D"/>
</linearGradient>
<linearGradient id="paint9_linear_119_1763" x1="2.44519" y1="-9.22821" x2="45.0386" y2="47.5803" gradientUnits="userSpaceOnUse">
<stop stop-color="#A3772D"/>
<stop offset="0.5" stop-color="#DBB35B"/>
<stop offset="1" stop-color="#A3772D"/>
</linearGradient>
<linearGradient id="paint10_linear_119_1763" x1="1.48981" y1="-8.51207" x2="44.0832" y2="48.2965" gradientUnits="userSpaceOnUse">
<stop stop-color="#A3772D"/>
<stop offset="0.5" stop-color="#DBB35B"/>
<stop offset="1" stop-color="#A3772D"/>
</linearGradient>
<linearGradient id="paint11_linear_119_1763" x1="-1.00983" y1="-6.63782" x2="41.5836" y2="50.1706" gradientUnits="userSpaceOnUse">
<stop stop-color="#A3772D"/>
<stop offset="0.5" stop-color="#DBB35B"/>
<stop offset="1" stop-color="#A3772D"/>
</linearGradient>
<linearGradient id="paint12_linear_119_1763" x1="-5.07167" y1="-3.5918" x2="37.5217" y2="53.2168" gradientUnits="userSpaceOnUse">
<stop stop-color="#A3772D"/>
<stop offset="0.5" stop-color="#DBB35B"/>
<stop offset="1" stop-color="#A3772D"/>
</linearGradient>
<linearGradient id="paint13_linear_119_1763" x1="-10.294" y1="0.324922" x2="32.2994" y2="57.1334" gradientUnits="userSpaceOnUse">
<stop stop-color="#A3772D"/>
<stop offset="0.5" stop-color="#DBB35B"/>
<stop offset="1" stop-color="#A3772D"/>
</linearGradient>
<linearGradient id="paint14_linear_119_1763" x1="-16.4567" y1="4.94376" x2="26.1368" y2="61.7523" gradientUnits="userSpaceOnUse">
<stop stop-color="#A3772D"/>
<stop offset="0.5" stop-color="#DBB35B"/>
<stop offset="1" stop-color="#A3772D"/>
</linearGradient>
<linearGradient id="paint15_linear_119_1763" x1="-22.0565" y1="9.14327" x2="20.5369" y2="65.9518" gradientUnits="userSpaceOnUse">
<stop stop-color="#A3772D"/>
<stop offset="0.5" stop-color="#DBB35B"/>
<stop offset="1" stop-color="#A3772D"/>
</linearGradient>
</defs>
</svg>
