<svg width="26" height="54" viewBox="0 0 26 54" fill="none" xmlns="http://www.w3.org/2000/svg">
<g id="Group 32" filter="url(#filter0_d_119_1746)">
<path id="Vector" d="M22.8062 39.3068C23.5118 42.1675 21.9911 44.2512 21.9911 44.2512C21.9911 44.2512 19.7547 43.4255 19.051 40.5654C18.346 37.7048 19.4407 33.8945 19.4407 33.8945C19.4407 33.8945 22.1031 36.4468 22.8062 39.3068Z" fill="url(#paint0_linear_119_1746)"/>
<path id="Vector_2" d="M18.3014 36.6913C18.8244 39.6039 17.1792 41.5518 17.1792 41.5518C17.1792 41.5518 15.0016 40.5384 14.478 37.6265C13.9545 34.7139 15.2844 31.0056 15.2844 31.0056C15.2844 31.0056 17.7778 33.7787 18.3014 36.6913Z" fill="url(#paint1_linear_119_1746)"/>
<path id="Vector_3" d="M14.3873 32.1272C13.8387 34.8796 11.7506 35.7911 11.7506 35.7911C11.7506 35.7911 10.223 33.9006 10.7716 31.1457C11.3209 28.3933 13.7393 25.8191 13.7393 25.8191C13.7393 25.8191 14.9366 29.3722 14.3873 32.1272Z" fill="url(#paint2_linear_119_1746)"/>
<path id="Vector_4" d="M12.5752 26.0844C11.3285 28.5078 9.10148 28.6273 9.10148 28.6273C9.10148 28.6273 8.14438 26.2814 9.39112 23.8574C10.6385 21.434 13.6186 19.8501 13.6186 19.8501C13.6186 19.8501 13.8244 23.6604 12.5752 26.0844Z" fill="url(#paint3_linear_119_1746)"/>
<path id="Vector_5" d="M12.9628 19.5649C11.0749 21.1038 9.10499 20.2023 9.10499 20.2023C9.10499 20.2023 9.05494 17.7358 10.9429 16.1969C12.8308 14.658 15.941 14.6299 15.941 14.6299C15.941 14.6299 14.8507 18.0279 12.9628 19.5649Z" fill="url(#paint4_linear_119_1746)"/>
<path id="Vector_6" d="M15.3381 13.9012C13.2707 15.0853 11.4409 13.8417 11.4409 13.8417C11.4409 13.8417 11.7168 11.3939 13.7842 10.2123C15.8523 9.02997 18.9294 9.55794 18.9294 9.55794C18.9294 9.55794 17.4056 12.7195 15.3381 13.9012Z" fill="url(#paint5_linear_119_1746)"/>
<path id="Vector_7" d="M15.7369 6.08932C15.0588 8.35883 13.2247 8.90682 13.2247 8.90682C13.2247 8.90682 12.0806 7.14901 12.758 4.8795C13.4336 2.61186 15.6781 0.691406 15.6781 0.691406C15.6781 0.691406 16.4144 3.82168 15.7369 6.08932Z" fill="url(#paint6_linear_119_1746)"/>
<path id="Vector_8" d="M18.9102 8.80089C16.9272 9.45147 15.4896 8.01269 15.4896 8.01269C15.4896 8.01269 16.0714 5.91082 18.0544 5.26025C20.0374 4.60967 22.6729 5.65435 22.6729 5.65435C22.6729 5.65435 20.895 8.15031 18.9102 8.80089Z" fill="url(#paint7_linear_119_1746)"/>
<path id="Vector_9" d="M19.7994 3.83653C18.4 5.06136 16.8849 4.43456 16.8849 4.43456C16.8849 4.43456 16.793 2.5629 18.1904 1.33806C19.5904 0.115102 21.95 0 21.95 0C21.95 0 21.1981 2.61169 19.7994 3.83653Z" fill="url(#paint8_linear_119_1746)"/>
<path id="Vector_10" d="M12.0492 9.4959C11.9022 12.1764 10.0693 13.4087 10.0693 13.4087C10.0693 13.4087 8.38344 11.9137 8.53045 9.23379C8.67745 6.55392 10.5998 3.70264 10.5998 3.70264C10.5998 3.70264 12.1943 6.81602 12.0492 9.4959Z" fill="url(#paint9_linear_119_1746)"/>
<path id="Vector_11" d="M9.10238 15.3916C9.50774 18.0346 7.97826 19.7411 7.97826 19.7411C7.97826 19.7411 6.03717 18.7577 5.63181 16.1148C5.22519 13.4718 6.50946 10.167 6.50946 10.167C6.50946 10.167 8.6964 12.7468 9.10238 15.3916Z" fill="url(#paint10_linear_119_1746)"/>
<path id="Vector_12" d="M7.4994 22.3685C8.62352 24.8745 7.54945 27.1509 7.54945 27.1509C7.54945 27.1509 5.33311 26.88 4.21086 24.3741C3.08736 21.8687 3.48334 18.0791 3.48334 18.0791C3.48334 18.0791 6.37778 19.8632 7.4994 22.3685Z" fill="url(#paint11_linear_119_1746)"/>
<path id="Vector_13" d="M7.36538 29.3635C9.46787 30.7722 9.613 33.3626 9.613 33.3626C9.613 33.3626 7.61873 34.523 5.51624 33.1137C3.41563 31.7068 2 28.2644 2 28.2644C2 28.2644 5.26289 27.9547 7.36538 29.3635Z" fill="url(#paint12_linear_119_1746)"/>
<path id="Vector_14" d="M9.60408 36.2011C12.1038 36.8016 12.9815 39.3389 12.9815 39.3389C12.9815 39.3389 11.3156 41.2643 8.81651 40.6638C6.31741 40.0633 3.9303 37.1638 3.9303 37.1638C3.9303 37.1638 7.10311 35.6012 9.60408 36.2011Z" fill="url(#paint13_linear_119_1746)"/>
<path id="Vector_15" d="M12.9405 42.2587C15.2908 41.1015 17.2462 42.6103 17.2462 42.6103C17.2462 42.6103 16.8115 45.2977 14.4588 46.4537C12.1086 47.6116 8.73181 46.8015 8.73181 46.8015C8.73181 46.8015 10.5885 43.4173 12.9405 42.2587Z" fill="url(#paint14_linear_119_1746)"/>
<path id="Vector_16" d="M19.4579 45.1433C21.7899 43.936 23.7698 45.3998 23.7698 45.3998C23.7698 45.3998 23.377 48.0972 21.0449 49.3051C18.7128 50.5131 15.3248 49.7793 15.3248 49.7793C15.3248 49.7793 17.1264 46.3531 19.4579 45.1433Z" fill="url(#paint15_linear_119_1746)"/>
</g>
<defs>
<filter id="filter0_d_119_1746" x="0" y="0" width="25.7698" height="54" filterUnits="userSpaceOnUse" color-interpolation-filters="sRGB">
<feFlood flood-opacity="0" result="BackgroundImageFix"/>
<feColorMatrix in="SourceAlpha" type="matrix" values="0 0 0 0 0 0 0 0 0 0 0 0 0 0 0 0 0 0 127 0" result="hardAlpha"/>
<feOffset dy="2"/>
<feGaussianBlur stdDeviation="1"/>
<feComposite in2="hardAlpha" operator="out"/>
<feColorMatrix type="matrix" values="0 0 0 0 0 0 0 0 0 0 0 0 0 0 0 0 0 0 0.5 0"/>
<feBlend mode="normal" in2="BackgroundImageFix" result="effect1_dropShadow_119_1746"/>
<feBlend mode="normal" in="SourceGraphic" in2="effect1_dropShadow_119_1746" result="shape"/>
</filter>
<linearGradient id="paint0_linear_119_1746" x1="44.5148" y1="6.55215" x2="1.92142" y2="63.3607" gradientUnits="userSpaceOnUse">
<stop stop-color="#A3772D"/>
<stop offset="0.5" stop-color="#DBB35B"/>
<stop offset="1" stop-color="#A3772D"/>
</linearGradient>
<linearGradient id="paint1_linear_119_1746" x1="40.3016" y1="3.39174" x2="-2.29186" y2="60.2009" gradientUnits="userSpaceOnUse">
<stop stop-color="#A3772D"/>
<stop offset="0.5" stop-color="#DBB35B"/>
<stop offset="1" stop-color="#A3772D"/>
</linearGradient>
<linearGradient id="paint2_linear_119_1746" x1="35.6299" y1="-0.108905" x2="-6.96347" y2="56.6996" gradientUnits="userSpaceOnUse">
<stop stop-color="#A3772D"/>
<stop offset="0.5" stop-color="#DBB35B"/>
<stop offset="1" stop-color="#A3772D"/>
</linearGradient>
<linearGradient id="paint3_linear_119_1746" x1="31.5645" y1="-3.15844" x2="-11.0289" y2="53.6501" gradientUnits="userSpaceOnUse">
<stop stop-color="#A3772D"/>
<stop offset="0.5" stop-color="#DBB35B"/>
<stop offset="1" stop-color="#A3772D"/>
</linearGradient>
<linearGradient id="paint4_linear_119_1746" x1="28.8563" y1="-5.18769" x2="-13.7365" y2="51.6208" gradientUnits="userSpaceOnUse">
<stop stop-color="#A3772D"/>
<stop offset="0.5" stop-color="#DBB35B"/>
<stop offset="1" stop-color="#A3772D"/>
</linearGradient>
<linearGradient id="paint5_linear_119_1746" x1="27.8405" y1="-5.94894" x2="-14.7529" y2="50.8596" gradientUnits="userSpaceOnUse">
<stop stop-color="#A3772D"/>
<stop offset="0.5" stop-color="#DBB35B"/>
<stop offset="1" stop-color="#A3772D"/>
</linearGradient>
<linearGradient id="paint6_linear_119_1746" x1="24.4228" y1="-8.51176" x2="-18.1707" y2="48.2967" gradientUnits="userSpaceOnUse">
<stop stop-color="#A3772D"/>
<stop offset="0.5" stop-color="#DBB35B"/>
<stop offset="1" stop-color="#A3772D"/>
</linearGradient>
<linearGradient id="paint7_linear_119_1746" x1="28.1302" y1="-5.73263" x2="-14.4632" y2="51.0759" gradientUnits="userSpaceOnUse">
<stop stop-color="#A3772D"/>
<stop offset="0.5" stop-color="#DBB35B"/>
<stop offset="1" stop-color="#A3772D"/>
</linearGradient>
<linearGradient id="paint8_linear_119_1746" x1="26.17" y1="-7.20264" x2="-16.4234" y2="49.6059" gradientUnits="userSpaceOnUse">
<stop stop-color="#A3772D"/>
<stop offset="0.5" stop-color="#DBB35B"/>
<stop offset="1" stop-color="#A3772D"/>
</linearGradient>
<linearGradient id="paint9_linear_119_1746" x1="23.4674" y1="-9.22821" x2="-19.126" y2="47.5803" gradientUnits="userSpaceOnUse">
<stop stop-color="#A3772D"/>
<stop offset="0.5" stop-color="#DBB35B"/>
<stop offset="1" stop-color="#A3772D"/>
</linearGradient>
<linearGradient id="paint10_linear_119_1746" x1="24.4228" y1="-8.51207" x2="-18.1705" y2="48.2971" gradientUnits="userSpaceOnUse">
<stop stop-color="#A3772D"/>
<stop offset="0.5" stop-color="#DBB35B"/>
<stop offset="1" stop-color="#A3772D"/>
</linearGradient>
<linearGradient id="paint11_linear_119_1746" x1="26.9235" y1="-6.63782" x2="-15.6699" y2="50.1707" gradientUnits="userSpaceOnUse">
<stop stop-color="#A3772D"/>
<stop offset="0.5" stop-color="#DBB35B"/>
<stop offset="1" stop-color="#A3772D"/>
</linearGradient>
<linearGradient id="paint12_linear_119_1746" x1="30.9851" y1="-3.59202" x2="-11.6083" y2="53.2165" gradientUnits="userSpaceOnUse">
<stop stop-color="#A3772D"/>
<stop offset="0.5" stop-color="#DBB35B"/>
<stop offset="1" stop-color="#A3772D"/>
</linearGradient>
<linearGradient id="paint13_linear_119_1746" x1="36.2089" y1="0.324923" x2="-6.38383" y2="57.1334" gradientUnits="userSpaceOnUse">
<stop stop-color="#A3772D"/>
<stop offset="0.5" stop-color="#DBB35B"/>
<stop offset="1" stop-color="#A3772D"/>
</linearGradient>
<linearGradient id="paint14_linear_119_1746" x1="42.3692" y1="4.94376" x2="-0.224269" y2="61.7523" gradientUnits="userSpaceOnUse">
<stop stop-color="#A3772D"/>
<stop offset="0.5" stop-color="#DBB35B"/>
<stop offset="1" stop-color="#A3772D"/>
</linearGradient>
<linearGradient id="paint15_linear_119_1746" x1="47.9707" y1="9.14328" x2="5.37726" y2="65.9518" gradientUnits="userSpaceOnUse">
<stop stop-color="#A3772D"/>
<stop offset="0.5" stop-color="#DBB35B"/>
<stop offset="1" stop-color="#A3772D"/>
</linearGradient>
</defs>
</svg>
