<svg width="612" height="54" viewBox="0 0 612 54" fill="none" xmlns="http://www.w3.org/2000/svg">
<g filter="url(#filter0_d_119_1744)">
<path d="M22.8062 39.3068C23.5118 42.1675 21.9911 44.2512 21.9911 44.2512C21.9911 44.2512 19.7547 43.4255 19.051 40.5654C18.346 37.7048 19.4407 33.8945 19.4407 33.8945C19.4407 33.8945 22.1031 36.4468 22.8062 39.3068Z" fill="url(#paint0_linear_119_1744)"/>
<path d="M18.3014 36.6913C18.8244 39.6039 17.1792 41.5518 17.1792 41.5518C17.1792 41.5518 15.0016 40.5384 14.478 37.6265C13.9545 34.7139 15.2844 31.0056 15.2844 31.0056C15.2844 31.0056 17.7778 33.7787 18.3014 36.6913Z" fill="url(#paint1_linear_119_1744)"/>
<path d="M14.3873 32.1272C13.8387 34.8796 11.7506 35.7911 11.7506 35.7911C11.7506 35.7911 10.223 33.9006 10.7716 31.1457C11.3209 28.3933 13.7393 25.8191 13.7393 25.8191C13.7393 25.8191 14.9366 29.3722 14.3873 32.1272Z" fill="url(#paint2_linear_119_1744)"/>
<path d="M12.5752 26.0844C11.3285 28.5078 9.10148 28.6273 9.10148 28.6273C9.10148 28.6273 8.14438 26.2814 9.39112 23.8574C10.6385 21.434 13.6186 19.8501 13.6186 19.8501C13.6186 19.8501 13.8244 23.6604 12.5752 26.0844Z" fill="url(#paint3_linear_119_1744)"/>
<path d="M12.9628 19.5649C11.0749 21.1038 9.10499 20.2023 9.10499 20.2023C9.10499 20.2023 9.05494 17.7358 10.9429 16.1969C12.8308 14.658 15.941 14.6299 15.941 14.6299C15.941 14.6299 14.8507 18.0279 12.9628 19.5649Z" fill="url(#paint4_linear_119_1744)"/>
<path d="M15.3381 13.9012C13.2707 15.0853 11.4409 13.8417 11.4409 13.8417C11.4409 13.8417 11.7168 11.3939 13.7842 10.2123C15.8523 9.02997 18.9294 9.55794 18.9294 9.55794C18.9294 9.55794 17.4056 12.7195 15.3381 13.9012Z" fill="url(#paint5_linear_119_1744)"/>
<path d="M15.7369 6.08932C15.0588 8.35883 13.2247 8.90682 13.2247 8.90682C13.2247 8.90682 12.0806 7.14901 12.758 4.8795C13.4336 2.61186 15.6781 0.691406 15.6781 0.691406C15.6781 0.691406 16.4144 3.82168 15.7369 6.08932Z" fill="url(#paint6_linear_119_1744)"/>
<path d="M18.9102 8.80089C16.9272 9.45147 15.4896 8.01269 15.4896 8.01269C15.4896 8.01269 16.0714 5.91082 18.0544 5.26025C20.0374 4.60967 22.6729 5.65435 22.6729 5.65435C22.6729 5.65435 20.895 8.15031 18.9102 8.80089Z" fill="url(#paint7_linear_119_1744)"/>
<path d="M19.7994 3.83653C18.4 5.06136 16.8849 4.43456 16.8849 4.43456C16.8849 4.43456 16.793 2.5629 18.1904 1.33806C19.5904 0.115102 21.95 0 21.95 0C21.95 0 21.1981 2.61169 19.7994 3.83653Z" fill="url(#paint8_linear_119_1744)"/>
<path d="M12.0492 9.4959C11.9022 12.1764 10.0693 13.4087 10.0693 13.4087C10.0693 13.4087 8.38344 11.9137 8.53045 9.23379C8.67745 6.55392 10.5998 3.70264 10.5998 3.70264C10.5998 3.70264 12.1943 6.81602 12.0492 9.4959Z" fill="url(#paint9_linear_119_1744)"/>
<path d="M9.10238 15.3916C9.50774 18.0346 7.97826 19.7411 7.97826 19.7411C7.97826 19.7411 6.03717 18.7577 5.63181 16.1148C5.22519 13.4718 6.50946 10.167 6.50946 10.167C6.50946 10.167 8.6964 12.7468 9.10238 15.3916Z" fill="url(#paint10_linear_119_1744)"/>
<path d="M7.4994 22.3685C8.62352 24.8745 7.54945 27.1509 7.54945 27.1509C7.54945 27.1509 5.33311 26.88 4.21086 24.3741C3.08736 21.8687 3.48334 18.0791 3.48334 18.0791C3.48334 18.0791 6.37778 19.8632 7.4994 22.3685Z" fill="url(#paint11_linear_119_1744)"/>
<path d="M7.36538 29.3635C9.46787 30.7722 9.613 33.3626 9.613 33.3626C9.613 33.3626 7.61873 34.523 5.51624 33.1137C3.41563 31.7068 2 28.2644 2 28.2644C2 28.2644 5.26289 27.9547 7.36538 29.3635Z" fill="url(#paint12_linear_119_1744)"/>
<path d="M9.60408 36.2011C12.1038 36.8016 12.9815 39.3389 12.9815 39.3389C12.9815 39.3389 11.3156 41.2643 8.81651 40.6638C6.31741 40.0633 3.9303 37.1638 3.9303 37.1638C3.9303 37.1638 7.10311 35.6012 9.60408 36.2011Z" fill="url(#paint13_linear_119_1744)"/>
<path d="M12.9405 42.2587C15.2908 41.1015 17.2462 42.6103 17.2462 42.6103C17.2462 42.6103 16.8115 45.2977 14.4588 46.4537C12.1086 47.6116 8.73181 46.8015 8.73181 46.8015C8.73181 46.8015 10.5885 43.4173 12.9405 42.2587Z" fill="url(#paint14_linear_119_1744)"/>
<path d="M19.4579 45.1433C21.7899 43.936 23.7698 45.3998 23.7698 45.3998C23.7698 45.3998 23.377 48.0972 21.0449 49.3051C18.7128 50.5131 15.3248 49.7793 15.3248 49.7793C15.3248 49.7793 17.1264 46.3531 19.4579 45.1433Z" fill="url(#paint15_linear_119_1744)"/>
</g>
<g filter="url(#filter1_d_119_1744)">
<path d="M347.106 39.3068C346.401 42.1675 347.921 44.2512 347.921 44.2512C347.921 44.2512 350.157 43.4255 350.861 40.5654C351.566 37.7048 350.471 33.8945 350.471 33.8945C350.471 33.8945 347.811 36.4468 347.106 39.3068Z" fill="url(#paint16_linear_119_1744)"/>
<path d="M351.613 36.6913C351.09 39.6039 352.735 41.5518 352.735 41.5518C352.735 41.5518 354.913 40.5384 355.436 37.6265C355.96 34.7139 354.63 31.0056 354.63 31.0056C354.63 31.0056 352.136 33.7787 351.613 36.6913Z" fill="url(#paint17_linear_119_1744)"/>
<path d="M355.527 32.1272C356.076 34.8796 358.164 35.7911 358.164 35.7911C358.164 35.7911 359.692 33.9006 359.143 31.1457C358.594 28.3933 356.175 25.8191 356.175 25.8191C356.175 25.8191 354.978 29.3722 355.527 32.1272Z" fill="url(#paint18_linear_119_1744)"/>
<path d="M357.338 26.0844C358.585 28.5078 360.812 28.6273 360.812 28.6273C360.812 28.6273 361.769 26.2814 360.522 23.8574C359.275 21.434 356.295 19.8501 356.295 19.8501C356.295 19.8501 356.091 23.6604 357.338 26.0844Z" fill="url(#paint19_linear_119_1744)"/>
<path d="M356.951 19.5649C358.839 21.1038 360.809 20.2023 360.809 20.2023C360.809 20.2023 360.859 17.7358 358.971 16.1969C357.083 14.658 353.973 14.6299 353.973 14.6299C353.973 14.6299 355.063 18.0279 356.951 19.5649Z" fill="url(#paint20_linear_119_1744)"/>
<path d="M354.573 13.9012C356.641 15.0853 358.469 13.8417 358.469 13.8417C358.469 13.8417 358.194 11.3939 356.127 10.2123C354.059 9.02997 350.982 9.55794 350.982 9.55794C350.982 9.55794 352.505 12.7195 354.573 13.9012Z" fill="url(#paint21_linear_119_1744)"/>
<path d="M354.177 6.08862C354.854 8.35813 356.689 8.90674 356.689 8.90674C356.689 8.90674 357.832 7.14831 357.155 4.87879C356.477 2.60928 354.234 0.689453 354.234 0.689453C354.234 0.689453 353.499 3.82161 354.177 6.08862Z" fill="url(#paint22_linear_119_1744)"/>
<path d="M351.002 8.80089C352.985 9.45147 354.424 8.01269 354.424 8.01269C354.424 8.01269 353.841 5.91082 351.858 5.26025C349.874 4.60967 347.24 5.65435 347.24 5.65435C347.24 5.65435 349.019 8.15031 351.002 8.80089Z" fill="url(#paint23_linear_119_1744)"/>
<path d="M350.116 3.83653C351.515 5.06136 353.03 4.43456 353.03 4.43456C353.03 4.43456 353.122 2.5629 351.724 1.33806C350.325 0.113225 347.965 0 347.965 0C347.965 0 348.716 2.61169 350.116 3.83653Z" fill="url(#paint24_linear_119_1744)"/>
<path d="M357.864 9.4959C358.011 12.1764 359.844 13.4087 359.844 13.4087C359.844 13.4087 361.529 11.9137 361.382 9.23379C361.236 6.55392 359.313 3.70264 359.313 3.70264C359.313 3.70264 357.717 6.81602 357.864 9.4959Z" fill="url(#paint25_linear_119_1744)"/>
<path d="M360.81 15.3916C360.404 18.0346 361.933 19.7411 361.933 19.7411C361.933 19.7411 363.874 18.7577 364.28 16.1148C364.686 13.4718 363.402 10.167 363.402 10.167C363.402 10.167 361.215 12.7468 360.81 15.3916Z" fill="url(#paint26_linear_119_1744)"/>
<path d="M362.412 22.3685C361.289 24.8745 362.363 27.1509 362.363 27.1509C362.363 27.1509 364.579 26.88 365.702 24.3741C366.825 21.8687 366.428 18.0791 366.428 18.0791C366.428 18.0791 363.537 19.8632 362.412 22.3685Z" fill="url(#paint27_linear_119_1744)"/>
<path d="M362.547 29.3637C360.444 30.7724 360.299 33.3635 360.299 33.3635C360.299 33.3635 362.293 34.5233 364.396 33.1139C366.498 31.7051 367.913 28.2627 367.913 28.2627C367.913 28.2627 364.649 27.9543 362.547 29.3637Z" fill="url(#paint28_linear_119_1744)"/>
<path d="M360.311 36.2011C357.812 36.8016 356.934 39.3389 356.934 39.3389C356.934 39.3389 358.6 41.2643 361.099 40.6638C363.598 40.0633 365.985 37.1638 365.985 37.1638C365.985 37.1638 362.811 35.6012 360.311 36.2011Z" fill="url(#paint29_linear_119_1744)"/>
<path d="M356.973 42.2587C354.622 41.1015 352.667 42.6103 352.667 42.6103C352.667 42.6103 353.102 45.2977 355.454 46.4537C357.805 47.6116 361.182 46.8015 361.182 46.8015C361.182 46.8015 359.323 43.4173 356.973 42.2587Z" fill="url(#paint30_linear_119_1744)"/>
<path d="M350.455 45.1433C348.123 43.936 346.143 45.3998 346.143 45.3998C346.143 45.3998 346.536 48.0972 348.868 49.3051C351.2 50.5131 354.588 49.7793 354.588 49.7793C354.588 49.7793 352.787 46.3531 350.455 45.1433Z" fill="url(#paint31_linear_119_1744)"/>
</g>
<g filter="url(#filter2_d_119_1744)">
<path d="M59.09 36.432L63.666 37.008V38H49.938V37.008L54.674 36.432C54.738 34.448 54.77 32.464 54.77 30.48V16.592L50.61 17.008V15.824L58.674 13.904L59.122 14.256L58.994 19.408V30.48C58.994 32.464 59.026 34.448 59.09 36.432ZM75.7295 27.088C76.9135 27.088 77.8735 26.768 78.7695 26.032C78.8655 25.168 78.8975 24.272 78.8975 23.312C78.8975 17.232 77.2975 14.96 75.0575 14.96C73.0095 14.96 71.3455 16.88 71.3455 21.104C71.3455 24.944 73.0735 27.088 75.7295 27.088ZM69.3295 38.64L69.0735 37.68C74.7695 35.728 77.6815 32.368 78.5775 27.184C77.4895 28.112 75.9535 28.656 74.1295 28.656C70.1295 28.656 67.0895 26.064 67.1215 21.584C67.1215 16.592 70.6415 13.776 75.0575 13.776C80.2095 13.776 83.2175 17.52 83.2175 23.632C83.2175 31.024 78.1295 36.816 69.3295 38.64ZM86.449 14.256H101.329V16.4L92.977 38H89.425L89.105 37.68L99.281 17.712H86.449V14.256ZM108.849 26.064C108.849 34.96 110.641 37.328 112.689 37.328C114.673 37.328 116.497 34.928 116.497 26.064C116.497 17.328 114.673 14.992 112.689 14.992C110.641 14.992 108.849 17.296 108.849 26.064ZM112.689 13.808C116.785 13.808 120.593 17.36 120.593 26.064C120.593 34.896 116.785 38.512 112.689 38.512C108.529 38.512 104.753 34.896 104.753 26.064C104.753 17.36 108.529 13.808 112.689 13.808ZM137.296 27.12C134.832 25.776 132.784 24.848 130.64 24.848C128.272 24.848 126.064 25.712 124.112 27.696L123.568 27.216C126.096 23.632 129.04 22.352 132.016 22.352C134.032 22.352 136.272 23.12 138.704 24.496C141.168 25.84 143.216 26.768 145.36 26.768C147.728 26.768 149.968 25.84 151.92 23.856L152.432 24.336C150 27.92 146.96 29.264 143.984 29.264C141.968 29.264 139.728 28.496 137.296 27.12ZM165.84 36.432L170.416 37.008V38H156.688V37.008L161.424 36.432C161.488 34.448 161.52 32.464 161.52 30.48V16.592L157.36 17.008V15.824L165.424 13.904L165.872 14.256L165.744 19.408V30.48C165.744 32.464 165.776 34.448 165.84 36.432ZM182.48 27.088C183.664 27.088 184.624 26.768 185.52 26.032C185.616 25.168 185.648 24.272 185.648 23.312C185.648 17.232 184.048 14.96 181.808 14.96C179.76 14.96 178.096 16.88 178.096 21.104C178.096 24.944 179.824 27.088 182.48 27.088ZM176.08 38.64L175.824 37.68C181.52 35.728 184.432 32.368 185.328 27.184C184.24 28.112 182.704 28.656 180.88 28.656C176.88 28.656 173.84 26.064 173.872 21.584C173.872 16.592 177.391 13.776 181.808 13.776C186.96 13.776 189.968 17.52 189.968 23.632C189.968 31.024 184.88 36.816 176.08 38.64ZM201.167 27.088C202.351 27.088 203.311 26.768 204.207 26.032C204.303 25.168 204.335 24.272 204.335 23.312C204.335 17.232 202.735 14.96 200.495 14.96C198.447 14.96 196.783 16.88 196.783 21.104C196.783 24.944 198.511 27.088 201.167 27.088ZM194.767 38.64L194.511 37.68C200.207 35.728 203.119 32.368 204.015 27.184C202.927 28.112 201.391 28.656 199.567 28.656C195.567 28.656 192.527 26.064 192.559 21.584C192.559 16.592 196.079 13.776 200.495 13.776C205.647 13.776 208.655 17.52 208.655 23.632C208.655 31.024 203.567 36.816 194.767 38.64ZM215.599 26.064C215.599 34.96 217.391 37.328 219.439 37.328C221.423 37.328 223.247 34.928 223.247 26.064C223.247 17.328 221.423 14.992 219.439 14.992C217.391 14.992 215.599 17.296 215.599 26.064ZM219.439 13.808C223.535 13.808 227.343 17.36 227.343 26.064C227.343 34.896 223.535 38.512 219.439 38.512C215.279 38.512 211.503 34.896 211.503 26.064C211.503 17.36 215.279 13.808 219.439 13.808ZM239.214 31.76H244.846V23.984H239.214V31.76ZM253.518 31.76L255.758 28.976C255.758 28.976 258.222 30.864 259.79 32.176C259.694 32.528 259.342 32.688 258.862 32.688H248.91V39.728C248.91 39.984 247.726 40.816 245.614 40.816H244.846V32.688H230.03L229.774 31.76H235.214V21.424L239.63 23.088H244.846V16.784H238.926C236.334 20.208 233.326 22.8 230.03 24.624L229.71 24.336C232.558 21.136 235.694 15.792 237.486 10.352L242.766 12.368C242.606 12.752 242.158 13.008 241.422 12.944C240.846 13.968 240.238 14.96 239.566 15.888H252.814L255.022 13.136C255.022 13.136 257.454 14.928 259.054 16.272C258.958 16.624 258.606 16.784 258.126 16.784H248.91V23.088H252.11L254.19 20.496C254.19 20.496 256.558 22.256 257.966 23.472C257.87 23.824 257.518 23.984 257.038 23.984H248.91V31.76H253.518ZM283.118 12.112L283.374 11.888C291.95 12.272 289.55 18.608 286.19 16.656C285.71 15.056 284.334 13.2 283.118 12.112ZM269.102 19.632L270.99 20.336C270.862 20.624 270.574 20.848 269.966 20.944V39.76C269.934 40.048 268.398 40.848 266.958 40.848H266.254V23.504C264.846 25.136 263.31 26.544 261.678 27.728L261.294 27.472C264.078 23.504 266.894 17.104 268.302 10.768L273.646 12.464C273.518 12.88 273.134 13.168 272.398 13.136C271.438 15.536 270.318 17.68 269.102 19.632ZM291.566 31.44L290.83 36.816C292.014 38.672 292.174 39.6 291.662 40.144C290.254 41.648 287.566 40.368 285.966 39.12C281.07 35.12 278.83 29.296 277.87 22.448L271.342 23.216L270.99 22.352L277.742 21.552C277.326 18.32 277.198 14.864 277.198 11.28L282.19 11.888C282.126 12.304 281.838 12.688 281.038 12.816C280.974 15.632 281.07 18.448 281.358 21.136L285.486 20.656L287.374 17.744C287.374 17.744 289.998 19.184 291.662 20.304C291.598 20.656 291.278 20.88 290.83 20.944L281.454 22.032C282.222 27.632 284.046 32.528 288.11 35.44C288.622 35.888 288.846 35.888 289.166 35.344C289.71 34.512 290.606 32.784 291.214 31.376L291.566 31.44ZM313.71 15.28H312.238C311.022 16.56 309.646 17.584 308.27 18.352L311.95 19.696H315.534L316.174 19.024C315.758 18.992 315.31 18.832 314.862 18.48C314.798 17.392 314.254 16.176 313.71 15.28ZM322.51 32.432H311.63C314.542 34.608 319.566 36.016 323.95 36.496L323.886 36.848C322.446 37.232 321.358 38.512 320.974 40.368C316.302 38.864 312.814 36.272 310.606 32.496V40.016C310.606 40.272 308.974 40.88 307.534 40.88H306.894V34.448C303.726 37.232 299.182 39.216 293.838 40.464L293.614 40.048C297.966 38.256 301.582 35.44 303.822 32.432H294.542L294.286 31.504H306.894V28.656C305.774 29.168 304.398 29.616 302.67 29.968L302.478 29.616C307.214 27.6 308.014 24.976 308.014 22.48V18.48C307.726 18.64 307.47 18.768 307.182 18.896L306.798 18.576C307.598 17.648 308.43 16.464 309.166 15.056C309.006 15.216 308.75 15.28 308.462 15.28H303.086C304.974 16.24 305.07 17.584 304.43 18.352C304.91 18.704 306.382 19.824 307.406 20.72C307.31 21.072 306.99 21.232 306.51 21.232H302.446V25.488C303.886 25.296 305.39 25.072 306.894 24.848L306.958 25.296C304.782 26.288 301.582 27.632 296.91 29.424C296.782 29.808 296.43 30.096 296.11 30.16L294.254 26.512C295.31 26.416 296.974 26.224 299.022 25.968V21.232H295.342L295.086 20.304H302.606L303.822 18.832C303.246 19.088 302.446 19.024 301.742 18.384C301.806 17.36 301.422 16.176 300.942 15.28H300.046C298.254 17.328 296.142 18.832 293.998 19.856L293.646 19.504C295.534 17.552 297.39 14.256 298.446 10.736L302.926 12.56C302.766 12.944 302.35 13.2 301.646 13.104C301.358 13.552 301.07 13.968 300.782 14.352H304.654L306.318 12.08C306.318 12.08 308.206 13.68 309.326 14.768C309.966 13.52 310.51 12.144 310.958 10.736L315.438 12.176C315.31 12.528 314.894 12.848 314.19 12.816C313.838 13.36 313.454 13.872 313.07 14.352H318.414L320.27 11.984C320.27 11.984 322.35 13.616 323.662 14.768C323.566 15.12 323.214 15.28 322.766 15.28H316.238C318.158 16.176 318.286 17.584 317.614 18.384L320.046 20.432C319.854 20.656 319.566 20.816 319.022 20.912V25.488C319.022 25.84 319.086 25.904 319.502 25.904H320.398H321.166C321.39 25.904 321.518 25.84 321.646 25.616C321.902 25.2 322.286 23.984 322.734 22.608H323.086L323.182 25.68C323.95 26 324.078 26.352 324.078 26.96C324.078 28.176 322.926 28.88 320.014 28.88H318.446C316.142 28.88 315.854 28.176 315.854 26.224V20.624H311.438V22.096C318.254 23.216 315.47 28.112 312.942 26.064C312.846 24.912 312.174 23.632 311.438 22.704C311.406 24.528 310.766 26.768 307.31 28.464L311.726 28.848C311.662 29.296 311.438 29.616 310.606 29.744V31.504H318.062L319.95 29.2C319.95 29.2 322.062 30.768 323.406 31.92C323.342 32.272 322.99 32.432 322.51 32.432Z" fill="url(#paint32_linear_119_1744)"/>
</g>
<g filter="url(#filter3_d_119_1744)">
<path d="M408.719 39.3068C409.425 42.1675 407.904 44.2512 407.904 44.2512C407.904 44.2512 405.668 43.4255 404.964 40.5654C404.259 37.7048 405.354 33.8945 405.354 33.8945C405.354 33.8945 408.016 36.4468 408.719 39.3068Z" fill="url(#paint33_linear_119_1744)"/>
<path d="M404.214 36.6913C404.737 39.6039 403.092 41.5518 403.092 41.5518C403.092 41.5518 400.915 40.5384 400.391 37.6265C399.867 34.7139 401.197 31.0056 401.197 31.0056C401.197 31.0056 403.691 33.7787 404.214 36.6913Z" fill="url(#paint34_linear_119_1744)"/>
<path d="M400.3 32.1272C399.752 34.8796 397.664 35.7911 397.664 35.7911C397.664 35.7911 396.136 33.9006 396.685 31.1457C397.234 28.3933 399.652 25.8191 399.652 25.8191C399.652 25.8191 400.85 29.3722 400.3 32.1272Z" fill="url(#paint35_linear_119_1744)"/>
<path d="M398.488 26.0844C397.241 28.5078 395.014 28.6273 395.014 28.6273C395.014 28.6273 394.057 26.2814 395.304 23.8574C396.551 21.434 399.532 19.8501 399.532 19.8501C399.532 19.8501 399.737 23.6604 398.488 26.0844Z" fill="url(#paint36_linear_119_1744)"/>
<path d="M398.876 19.5649C396.988 21.1038 395.018 20.2023 395.018 20.2023C395.018 20.2023 394.968 17.7358 396.856 16.1969C398.744 14.658 401.854 14.6299 401.854 14.6299C401.854 14.6299 400.764 18.0279 398.876 19.5649Z" fill="url(#paint37_linear_119_1744)"/>
<path d="M401.251 13.9012C399.184 15.0853 397.354 13.8417 397.354 13.8417C397.354 13.8417 397.63 11.3939 399.697 10.2123C401.765 9.02997 404.842 9.55794 404.842 9.55794C404.842 9.55794 403.319 12.7195 401.251 13.9012Z" fill="url(#paint38_linear_119_1744)"/>
<path d="M401.65 6.08932C400.972 8.35883 399.138 8.90682 399.138 8.90682C399.138 8.90682 397.994 7.14901 398.671 4.8795C399.347 2.61186 401.591 0.691406 401.591 0.691406C401.591 0.691406 402.327 3.82168 401.65 6.08932Z" fill="url(#paint39_linear_119_1744)"/>
<path d="M404.823 8.80089C402.84 9.45147 401.403 8.01269 401.403 8.01269C401.403 8.01269 401.984 5.91082 403.967 5.26025C405.95 4.60967 408.586 5.65435 408.586 5.65435C408.586 5.65435 406.808 8.15031 404.823 8.80089Z" fill="url(#paint40_linear_119_1744)"/>
<path d="M405.712 3.83653C404.313 5.06136 402.798 4.43456 402.798 4.43456C402.798 4.43456 402.706 2.5629 404.103 1.33806C405.503 0.115102 407.863 0 407.863 0C407.863 0 407.111 2.61169 405.712 3.83653Z" fill="url(#paint41_linear_119_1744)"/>
<path d="M397.962 9.4959C397.815 12.1764 395.982 13.4087 395.982 13.4087C395.982 13.4087 394.296 11.9137 394.443 9.23379C394.59 6.55392 396.513 3.70264 396.513 3.70264C396.513 3.70264 398.107 6.81602 397.962 9.4959Z" fill="url(#paint42_linear_119_1744)"/>
<path d="M395.015 15.3916C395.421 18.0346 393.891 19.7411 393.891 19.7411C393.891 19.7411 391.95 18.7577 391.545 16.1148C391.138 13.4718 392.422 10.167 392.422 10.167C392.422 10.167 394.609 12.7468 395.015 15.3916Z" fill="url(#paint43_linear_119_1744)"/>
<path d="M393.412 22.3685C394.536 24.8745 393.462 27.1509 393.462 27.1509C393.462 27.1509 391.246 26.88 390.124 24.3741C389 21.8687 389.396 18.0791 389.396 18.0791C389.396 18.0791 392.291 19.8632 393.412 22.3685Z" fill="url(#paint44_linear_119_1744)"/>
<path d="M393.278 29.3635C395.381 30.7722 395.526 33.3626 395.526 33.3626C395.526 33.3626 393.532 34.523 391.429 33.1137C389.329 31.7068 387.913 28.2644 387.913 28.2644C387.913 28.2644 391.176 27.9547 393.278 29.3635Z" fill="url(#paint45_linear_119_1744)"/>
<path d="M395.517 36.2011C398.017 36.8016 398.894 39.3389 398.894 39.3389C398.894 39.3389 397.229 41.2643 394.729 40.6638C392.23 40.0633 389.843 37.1638 389.843 37.1638C389.843 37.1638 393.016 35.6012 395.517 36.2011Z" fill="url(#paint46_linear_119_1744)"/>
<path d="M398.854 42.2587C401.204 41.1015 403.159 42.6103 403.159 42.6103C403.159 42.6103 402.724 45.2977 400.372 46.4537C398.022 47.6116 394.645 46.8015 394.645 46.8015C394.645 46.8015 396.501 43.4173 398.854 42.2587Z" fill="url(#paint47_linear_119_1744)"/>
<path d="M405.371 45.1433C407.703 43.936 409.683 45.3998 409.683 45.3998C409.683 45.3998 409.29 48.0972 406.958 49.3051C404.626 50.5131 401.238 49.7793 401.238 49.7793C401.238 49.7793 403.039 46.3531 405.371 45.1433Z" fill="url(#paint48_linear_119_1744)"/>
</g>
<g filter="url(#filter4_d_119_1744)">
<path d="M589.019 39.3068C588.314 42.1675 589.834 44.2512 589.834 44.2512C589.834 44.2512 592.07 43.4255 592.774 40.5654C593.479 37.7048 592.384 33.8945 592.384 33.8945C592.384 33.8945 589.724 36.4468 589.019 39.3068Z" fill="url(#paint49_linear_119_1744)"/>
<path d="M593.526 36.6913C593.003 39.6039 594.648 41.5518 594.648 41.5518C594.648 41.5518 596.826 40.5384 597.349 37.6265C597.873 34.7139 596.543 31.0056 596.543 31.0056C596.543 31.0056 594.049 33.7787 593.526 36.6913Z" fill="url(#paint50_linear_119_1744)"/>
<path d="M597.44 32.1272C597.989 34.8796 600.077 35.7911 600.077 35.7911C600.077 35.7911 601.605 33.9006 601.056 31.1457C600.507 28.3933 598.088 25.8191 598.088 25.8191C598.088 25.8191 596.891 29.3722 597.44 32.1272Z" fill="url(#paint51_linear_119_1744)"/>
<path d="M599.251 26.0844C600.498 28.5078 602.725 28.6273 602.725 28.6273C602.725 28.6273 603.682 26.2814 602.435 23.8574C601.188 21.434 598.208 19.8501 598.208 19.8501C598.208 19.8501 598.004 23.6604 599.251 26.0844Z" fill="url(#paint52_linear_119_1744)"/>
<path d="M598.864 19.5649C600.752 21.1038 602.722 20.2023 602.722 20.2023C602.722 20.2023 602.772 17.7358 600.884 16.1969C598.996 14.658 595.886 14.6299 595.886 14.6299C595.886 14.6299 596.976 18.0279 598.864 19.5649Z" fill="url(#paint53_linear_119_1744)"/>
<path d="M596.486 13.9012C598.554 15.0853 600.382 13.8417 600.382 13.8417C600.382 13.8417 600.107 11.3939 598.04 10.2123C595.972 9.02997 592.895 9.55794 592.895 9.55794C592.895 9.55794 594.418 12.7195 596.486 13.9012Z" fill="url(#paint54_linear_119_1744)"/>
<path d="M596.09 6.08862C596.767 8.35813 598.602 8.90674 598.602 8.90674C598.602 8.90674 599.745 7.14831 599.068 4.87879C598.39 2.60928 596.147 0.689453 596.147 0.689453C596.147 0.689453 595.412 3.82161 596.09 6.08862Z" fill="url(#paint55_linear_119_1744)"/>
<path d="M592.915 8.80089C594.898 9.45147 596.336 8.01269 596.336 8.01269C596.336 8.01269 595.754 5.91082 593.771 5.26025C591.787 4.60967 589.153 5.65435 589.153 5.65435C589.153 5.65435 590.932 8.15031 592.915 8.80089Z" fill="url(#paint56_linear_119_1744)"/>
<path d="M592.029 3.83653C593.428 5.06136 594.943 4.43456 594.943 4.43456C594.943 4.43456 595.035 2.5629 593.637 1.33806C592.238 0.113225 589.878 0 589.878 0C589.878 0 590.629 2.61169 592.029 3.83653Z" fill="url(#paint57_linear_119_1744)"/>
<path d="M599.777 9.4959C599.924 12.1764 601.757 13.4087 601.757 13.4087C601.757 13.4087 603.442 11.9137 603.295 9.23379C603.149 6.55392 601.226 3.70264 601.226 3.70264C601.226 3.70264 599.63 6.81602 599.777 9.4959Z" fill="url(#paint58_linear_119_1744)"/>
<path d="M602.723 15.3916C602.317 18.0346 603.846 19.7411 603.846 19.7411C603.846 19.7411 605.787 18.7577 606.193 16.1148C606.599 13.4718 605.315 10.167 605.315 10.167C605.315 10.167 603.128 12.7468 602.723 15.3916Z" fill="url(#paint59_linear_119_1744)"/>
<path d="M604.325 22.3685C603.202 24.8745 604.276 27.1509 604.276 27.1509C604.276 27.1509 606.492 26.88 607.615 24.3741C608.738 21.8687 608.341 18.0791 608.341 18.0791C608.341 18.0791 605.449 19.8632 604.325 22.3685Z" fill="url(#paint60_linear_119_1744)"/>
<path d="M604.46 29.3637C602.357 30.7724 602.212 33.3635 602.212 33.3635C602.212 33.3635 604.206 34.5233 606.309 33.1139C608.411 31.7051 609.826 28.2627 609.826 28.2627C609.826 28.2627 606.562 27.9543 604.46 29.3637Z" fill="url(#paint61_linear_119_1744)"/>
<path d="M602.224 36.2011C599.725 36.8016 598.847 39.3389 598.847 39.3389C598.847 39.3389 600.513 41.2643 603.012 40.6638C605.511 40.0633 607.898 37.1638 607.898 37.1638C607.898 37.1638 604.723 35.6012 602.224 36.2011Z" fill="url(#paint62_linear_119_1744)"/>
<path d="M598.886 42.2587C596.535 41.1015 594.58 42.6103 594.58 42.6103C594.58 42.6103 595.015 45.2977 597.367 46.4537C599.718 47.6116 603.095 46.8015 603.095 46.8015C603.095 46.8015 601.236 43.4173 598.886 42.2587Z" fill="url(#paint63_linear_119_1744)"/>
<path d="M592.368 45.1433C590.036 43.936 588.056 45.3998 588.056 45.3998C588.056 45.3998 588.449 48.0972 590.781 49.3051C593.113 50.5131 596.501 49.7793 596.501 49.7793C596.501 49.7793 594.7 46.3531 592.368 45.1433Z" fill="url(#paint64_linear_119_1744)"/>
</g>
<g filter="url(#filter5_d_119_1744)">
<path d="M444.569 37.328C447.033 37.328 448.441 35.76 448.441 33.296C448.441 30.96 447.193 29.136 442.873 27.216C441.145 28.72 440.409 30.16 440.409 32.4C440.409 35.6 441.977 37.328 444.569 37.328ZM444.601 14.96C442.681 14.96 441.017 16.368 441.017 18.704C441.017 20.688 441.913 22.672 445.977 24.528C447.481 22.928 448.025 21.328 448.025 19.152C448.025 16.752 446.809 14.96 444.601 14.96ZM446.809 24.912C450.617 26.704 452.313 28.88 452.313 31.92C452.313 35.888 449.305 38.512 444.281 38.512C439.449 38.512 436.825 36.24 436.825 32.88C436.825 30.128 438.681 28.176 442.105 26.832C438.905 25.232 437.401 22.864 437.401 19.984C437.401 16.208 440.601 13.776 444.697 13.776C449.145 13.776 451.417 16.24 451.417 19.28C451.417 21.296 450.201 23.312 446.809 24.912ZM459.449 26.064C459.449 34.96 461.241 37.328 463.289 37.328C465.273 37.328 467.097 34.928 467.097 26.064C467.097 17.328 465.273 14.992 463.289 14.992C461.241 14.992 459.449 17.296 459.449 26.064ZM463.289 13.808C467.385 13.808 471.193 17.36 471.193 26.064C471.193 34.896 467.385 38.512 463.289 38.512C459.129 38.512 455.353 34.896 455.353 26.064C455.353 17.36 459.129 13.808 463.289 13.808ZM499.032 26.192V30.384C499.032 32.208 499.064 34.864 499.096 36.72L501.144 36.944V38H492.632V36.944L494.616 36.72C494.648 34.864 494.68 32.208 494.68 30.384V26.288C494.68 23.44 493.816 22.512 492.344 22.512C491.32 22.512 490.264 23.12 489.176 24.304C489.272 24.848 489.304 25.424 489.304 26.032V30.384C489.304 32.368 489.336 34.8 489.368 36.72L491.32 36.944V38H483.032V36.944L484.984 36.72C485.016 34.8 485.048 32.368 485.048 30.384V26.192C485.048 23.472 484.216 22.512 482.68 22.512C481.688 22.512 480.632 23.088 479.64 24.176V30.384C479.64 32.176 479.672 34.864 479.704 36.752L481.72 36.944V38H473.336V36.944L475.224 36.752C475.256 34.864 475.288 32.176 475.288 30.384V27.696C475.288 25.68 475.256 24.304 475.192 22.768L473.08 22.576V21.808L479 20.112L479.384 20.368L479.608 23.216C481.208 20.88 482.776 20.016 484.632 20.016C486.744 20.016 488.312 21.072 488.952 23.312C490.68 20.848 492.28 20.016 494.264 20.016C497.24 20.016 499.032 21.968 499.032 26.192ZM499.704 17.616H504.184V19.344H498.296V18.128L500.088 16.368C501.304 15.12 501.848 14.256 501.848 13.264C501.848 12.08 501.368 11.472 500.632 11.472H500.44L500.216 12.528C500.056 13.424 499.576 13.616 499.128 13.616C498.776 13.616 498.488 13.424 498.328 13.072C498.392 11.6 499.672 10.896 501.304 10.896C503.096 10.896 504.024 11.888 504.024 13.104C504.024 14.416 503.128 15.344 501.144 16.656L499.704 17.616ZM516.312 16.528L516.6 16.336C527.128 19.312 524.152 26.768 520.376 24.048C519.768 21.488 517.88 18.544 516.312 16.528ZM521.528 29.808L521.624 30.192C518.648 32.144 514.456 34.608 508.216 37.552C508.056 37.936 507.736 38.288 507.384 38.416L505.336 34.096C506.392 33.904 507.896 33.584 509.688 33.136L509.368 12.624L514.392 12.976C514.36 13.424 514.136 13.776 513.24 13.904L513.528 32.112C516.056 31.44 518.84 30.64 521.528 29.808ZM528.312 12.72L533.688 13.2C533.592 13.712 533.208 14.096 532.472 14.16C532.152 21.072 531.768 26.832 528.632 31.44C538.552 35.152 536.088 42.32 532.184 39.856C531.32 37.52 529.496 34.864 527.704 32.656C524.888 36.048 520.28 38.768 512.728 40.848L512.44 40.336C527.512 33.52 528.12 25.36 528.312 12.72ZM561.144 38.224L563.48 35.248C563.48 35.248 566.072 37.264 567.672 38.608C567.576 38.96 567.224 39.12 566.744 39.12H537.848L537.592 38.224H549.496V11.248L554.808 11.76C554.712 12.208 554.488 12.528 553.624 12.656V23.376H558.872L561.176 20.432C561.176 20.432 563.736 22.384 565.272 23.76C565.176 24.112 564.856 24.272 564.408 24.272H553.624V38.224H561.144Z" fill="url(#paint65_linear_119_1744)"/>
</g>
<defs>
<filter id="filter0_d_119_1744" x="0" y="0" width="25.7698" height="54" filterUnits="userSpaceOnUse" color-interpolation-filters="sRGB">
<feFlood flood-opacity="0" result="BackgroundImageFix"/>
<feColorMatrix in="SourceAlpha" type="matrix" values="0 0 0 0 0 0 0 0 0 0 0 0 0 0 0 0 0 0 127 0" result="hardAlpha"/>
<feOffset dy="2"/>
<feGaussianBlur stdDeviation="1"/>
<feComposite in2="hardAlpha" operator="out"/>
<feColorMatrix type="matrix" values="0 0 0 0 0 0 0 0 0 0 0 0 0 0 0 0 0 0 0.5 0"/>
<feBlend mode="normal" in2="BackgroundImageFix" result="effect1_dropShadow_119_1744"/>
<feBlend mode="normal" in="SourceGraphic" in2="effect1_dropShadow_119_1744" result="shape"/>
</filter>
<filter id="filter1_d_119_1744" x="344.143" y="0" width="25.7698" height="54" filterUnits="userSpaceOnUse" color-interpolation-filters="sRGB">
<feFlood flood-opacity="0" result="BackgroundImageFix"/>
<feColorMatrix in="SourceAlpha" type="matrix" values="0 0 0 0 0 0 0 0 0 0 0 0 0 0 0 0 0 0 127 0" result="hardAlpha"/>
<feOffset dy="2"/>
<feGaussianBlur stdDeviation="1"/>
<feComposite in2="hardAlpha" operator="out"/>
<feColorMatrix type="matrix" values="0 0 0 0 0 0 0 0 0 0 0 0 0 0 0 0 0 0 0.5 0"/>
<feBlend mode="normal" in2="BackgroundImageFix" result="effect1_dropShadow_119_1744"/>
<feBlend mode="normal" in="SourceGraphic" in2="effect1_dropShadow_119_1744" result="shape"/>
</filter>
<filter id="filter2_d_119_1744" x="47.938" y="10.3521" width="278.14" height="35.2959" filterUnits="userSpaceOnUse" color-interpolation-filters="sRGB">
<feFlood flood-opacity="0" result="BackgroundImageFix"/>
<feColorMatrix in="SourceAlpha" type="matrix" values="0 0 0 0 0 0 0 0 0 0 0 0 0 0 0 0 0 0 127 0" result="hardAlpha"/>
<feOffset dy="2"/>
<feGaussianBlur stdDeviation="1"/>
<feComposite in2="hardAlpha" operator="out"/>
<feColorMatrix type="matrix" values="0 0 0 0 0 0 0 0 0 0 0 0 0 0 0 0 0 0 0.5 0"/>
<feBlend mode="normal" in2="BackgroundImageFix" result="effect1_dropShadow_119_1744"/>
<feBlend mode="normal" in="SourceGraphic" in2="effect1_dropShadow_119_1744" result="shape"/>
</filter>
<filter id="filter3_d_119_1744" x="385.913" y="0" width="25.7698" height="54" filterUnits="userSpaceOnUse" color-interpolation-filters="sRGB">
<feFlood flood-opacity="0" result="BackgroundImageFix"/>
<feColorMatrix in="SourceAlpha" type="matrix" values="0 0 0 0 0 0 0 0 0 0 0 0 0 0 0 0 0 0 127 0" result="hardAlpha"/>
<feOffset dy="2"/>
<feGaussianBlur stdDeviation="1"/>
<feComposite in2="hardAlpha" operator="out"/>
<feColorMatrix type="matrix" values="0 0 0 0 0 0 0 0 0 0 0 0 0 0 0 0 0 0 0.5 0"/>
<feBlend mode="normal" in2="BackgroundImageFix" result="effect1_dropShadow_119_1744"/>
<feBlend mode="normal" in="SourceGraphic" in2="effect1_dropShadow_119_1744" result="shape"/>
</filter>
<filter id="filter4_d_119_1744" x="586.056" y="0" width="25.7698" height="54" filterUnits="userSpaceOnUse" color-interpolation-filters="sRGB">
<feFlood flood-opacity="0" result="BackgroundImageFix"/>
<feColorMatrix in="SourceAlpha" type="matrix" values="0 0 0 0 0 0 0 0 0 0 0 0 0 0 0 0 0 0 127 0" result="hardAlpha"/>
<feOffset dy="2"/>
<feGaussianBlur stdDeviation="1"/>
<feComposite in2="hardAlpha" operator="out"/>
<feColorMatrix type="matrix" values="0 0 0 0 0 0 0 0 0 0 0 0 0 0 0 0 0 0 0.5 0"/>
<feBlend mode="normal" in2="BackgroundImageFix" result="effect1_dropShadow_119_1744"/>
<feBlend mode="normal" in="SourceGraphic" in2="effect1_dropShadow_119_1744" result="shape"/>
</filter>
<filter id="filter5_d_119_1744" x="434.825" y="10.896" width="134.847" height="35.4241" filterUnits="userSpaceOnUse" color-interpolation-filters="sRGB">
<feFlood flood-opacity="0" result="BackgroundImageFix"/>
<feColorMatrix in="SourceAlpha" type="matrix" values="0 0 0 0 0 0 0 0 0 0 0 0 0 0 0 0 0 0 127 0" result="hardAlpha"/>
<feOffset dy="2"/>
<feGaussianBlur stdDeviation="1"/>
<feComposite in2="hardAlpha" operator="out"/>
<feColorMatrix type="matrix" values="0 0 0 0 0 0 0 0 0 0 0 0 0 0 0 0 0 0 0.5 0"/>
<feBlend mode="normal" in2="BackgroundImageFix" result="effect1_dropShadow_119_1744"/>
<feBlend mode="normal" in="SourceGraphic" in2="effect1_dropShadow_119_1744" result="shape"/>
</filter>
<linearGradient id="paint0_linear_119_1744" x1="44.5148" y1="6.55215" x2="1.92142" y2="63.3607" gradientUnits="userSpaceOnUse">
<stop stop-color="#A3772D"/>
<stop offset="0.5" stop-color="#DBB35B"/>
<stop offset="1" stop-color="#A3772D"/>
</linearGradient>
<linearGradient id="paint1_linear_119_1744" x1="40.3016" y1="3.39174" x2="-2.29186" y2="60.2009" gradientUnits="userSpaceOnUse">
<stop stop-color="#A3772D"/>
<stop offset="0.5" stop-color="#DBB35B"/>
<stop offset="1" stop-color="#A3772D"/>
</linearGradient>
<linearGradient id="paint2_linear_119_1744" x1="35.6299" y1="-0.108905" x2="-6.96347" y2="56.6996" gradientUnits="userSpaceOnUse">
<stop stop-color="#A3772D"/>
<stop offset="0.5" stop-color="#DBB35B"/>
<stop offset="1" stop-color="#A3772D"/>
</linearGradient>
<linearGradient id="paint3_linear_119_1744" x1="31.5645" y1="-3.15844" x2="-11.0289" y2="53.6501" gradientUnits="userSpaceOnUse">
<stop stop-color="#A3772D"/>
<stop offset="0.5" stop-color="#DBB35B"/>
<stop offset="1" stop-color="#A3772D"/>
</linearGradient>
<linearGradient id="paint4_linear_119_1744" x1="28.8563" y1="-5.18769" x2="-13.7365" y2="51.6208" gradientUnits="userSpaceOnUse">
<stop stop-color="#A3772D"/>
<stop offset="0.5" stop-color="#DBB35B"/>
<stop offset="1" stop-color="#A3772D"/>
</linearGradient>
<linearGradient id="paint5_linear_119_1744" x1="27.8405" y1="-5.94894" x2="-14.7529" y2="50.8596" gradientUnits="userSpaceOnUse">
<stop stop-color="#A3772D"/>
<stop offset="0.5" stop-color="#DBB35B"/>
<stop offset="1" stop-color="#A3772D"/>
</linearGradient>
<linearGradient id="paint6_linear_119_1744" x1="24.4228" y1="-8.51176" x2="-18.1707" y2="48.2967" gradientUnits="userSpaceOnUse">
<stop stop-color="#A3772D"/>
<stop offset="0.5" stop-color="#DBB35B"/>
<stop offset="1" stop-color="#A3772D"/>
</linearGradient>
<linearGradient id="paint7_linear_119_1744" x1="28.1302" y1="-5.73263" x2="-14.4632" y2="51.0759" gradientUnits="userSpaceOnUse">
<stop stop-color="#A3772D"/>
<stop offset="0.5" stop-color="#DBB35B"/>
<stop offset="1" stop-color="#A3772D"/>
</linearGradient>
<linearGradient id="paint8_linear_119_1744" x1="26.17" y1="-7.20264" x2="-16.4234" y2="49.6059" gradientUnits="userSpaceOnUse">
<stop stop-color="#A3772D"/>
<stop offset="0.5" stop-color="#DBB35B"/>
<stop offset="1" stop-color="#A3772D"/>
</linearGradient>
<linearGradient id="paint9_linear_119_1744" x1="23.4674" y1="-9.22821" x2="-19.126" y2="47.5803" gradientUnits="userSpaceOnUse">
<stop stop-color="#A3772D"/>
<stop offset="0.5" stop-color="#DBB35B"/>
<stop offset="1" stop-color="#A3772D"/>
</linearGradient>
<linearGradient id="paint10_linear_119_1744" x1="24.4228" y1="-8.51207" x2="-18.1705" y2="48.2971" gradientUnits="userSpaceOnUse">
<stop stop-color="#A3772D"/>
<stop offset="0.5" stop-color="#DBB35B"/>
<stop offset="1" stop-color="#A3772D"/>
</linearGradient>
<linearGradient id="paint11_linear_119_1744" x1="26.9235" y1="-6.63782" x2="-15.6699" y2="50.1707" gradientUnits="userSpaceOnUse">
<stop stop-color="#A3772D"/>
<stop offset="0.5" stop-color="#DBB35B"/>
<stop offset="1" stop-color="#A3772D"/>
</linearGradient>
<linearGradient id="paint12_linear_119_1744" x1="30.9851" y1="-3.59202" x2="-11.6083" y2="53.2165" gradientUnits="userSpaceOnUse">
<stop stop-color="#A3772D"/>
<stop offset="0.5" stop-color="#DBB35B"/>
<stop offset="1" stop-color="#A3772D"/>
</linearGradient>
<linearGradient id="paint13_linear_119_1744" x1="36.2089" y1="0.324923" x2="-6.38383" y2="57.1334" gradientUnits="userSpaceOnUse">
<stop stop-color="#A3772D"/>
<stop offset="0.5" stop-color="#DBB35B"/>
<stop offset="1" stop-color="#A3772D"/>
</linearGradient>
<linearGradient id="paint14_linear_119_1744" x1="42.3692" y1="4.94376" x2="-0.224269" y2="61.7523" gradientUnits="userSpaceOnUse">
<stop stop-color="#A3772D"/>
<stop offset="0.5" stop-color="#DBB35B"/>
<stop offset="1" stop-color="#A3772D"/>
</linearGradient>
<linearGradient id="paint15_linear_119_1744" x1="47.9707" y1="9.14328" x2="5.37726" y2="65.9518" gradientUnits="userSpaceOnUse">
<stop stop-color="#A3772D"/>
<stop offset="0.5" stop-color="#DBB35B"/>
<stop offset="1" stop-color="#A3772D"/>
</linearGradient>
<linearGradient id="paint16_linear_119_1744" x1="325.398" y1="6.55215" x2="367.992" y2="63.3606" gradientUnits="userSpaceOnUse">
<stop stop-color="#A3772D"/>
<stop offset="0.5" stop-color="#DBB35B"/>
<stop offset="1" stop-color="#A3772D"/>
</linearGradient>
<linearGradient id="paint17_linear_119_1744" x1="329.613" y1="3.39174" x2="372.205" y2="60.2008" gradientUnits="userSpaceOnUse">
<stop stop-color="#A3772D"/>
<stop offset="0.5" stop-color="#DBB35B"/>
<stop offset="1" stop-color="#A3772D"/>
</linearGradient>
<linearGradient id="paint18_linear_119_1744" x1="334.284" y1="-0.108905" x2="376.877" y2="56.6996" gradientUnits="userSpaceOnUse">
<stop stop-color="#A3772D"/>
<stop offset="0.5" stop-color="#DBB35B"/>
<stop offset="1" stop-color="#A3772D"/>
</linearGradient>
<linearGradient id="paint19_linear_119_1744" x1="338.35" y1="-3.15844" x2="380.943" y2="53.65" gradientUnits="userSpaceOnUse">
<stop stop-color="#A3772D"/>
<stop offset="0.5" stop-color="#DBB35B"/>
<stop offset="1" stop-color="#A3772D"/>
</linearGradient>
<linearGradient id="paint20_linear_119_1744" x1="341.057" y1="-5.18769" x2="383.65" y2="51.6207" gradientUnits="userSpaceOnUse">
<stop stop-color="#A3772D"/>
<stop offset="0.5" stop-color="#DBB35B"/>
<stop offset="1" stop-color="#A3772D"/>
</linearGradient>
<linearGradient id="paint21_linear_119_1744" x1="342.072" y1="-5.94894" x2="384.665" y2="50.8596" gradientUnits="userSpaceOnUse">
<stop stop-color="#A3772D"/>
<stop offset="0.5" stop-color="#DBB35B"/>
<stop offset="1" stop-color="#A3772D"/>
</linearGradient>
<linearGradient id="paint22_linear_119_1744" x1="345.49" y1="-8.51246" x2="388.083" y2="48.2966" gradientUnits="userSpaceOnUse">
<stop stop-color="#A3772D"/>
<stop offset="0.5" stop-color="#DBB35B"/>
<stop offset="1" stop-color="#A3772D"/>
</linearGradient>
<linearGradient id="paint23_linear_119_1744" x1="341.784" y1="-5.73263" x2="384.377" y2="51.0759" gradientUnits="userSpaceOnUse">
<stop stop-color="#A3772D"/>
<stop offset="0.5" stop-color="#DBB35B"/>
<stop offset="1" stop-color="#A3772D"/>
</linearGradient>
<linearGradient id="paint24_linear_119_1744" x1="343.744" y1="-7.20264" x2="386.337" y2="49.6059" gradientUnits="userSpaceOnUse">
<stop stop-color="#A3772D"/>
<stop offset="0.5" stop-color="#DBB35B"/>
<stop offset="1" stop-color="#A3772D"/>
</linearGradient>
<linearGradient id="paint25_linear_119_1744" x1="346.445" y1="-9.22821" x2="389.039" y2="47.5803" gradientUnits="userSpaceOnUse">
<stop stop-color="#A3772D"/>
<stop offset="0.5" stop-color="#DBB35B"/>
<stop offset="1" stop-color="#A3772D"/>
</linearGradient>
<linearGradient id="paint26_linear_119_1744" x1="345.49" y1="-8.51207" x2="388.083" y2="48.2965" gradientUnits="userSpaceOnUse">
<stop stop-color="#A3772D"/>
<stop offset="0.5" stop-color="#DBB35B"/>
<stop offset="1" stop-color="#A3772D"/>
</linearGradient>
<linearGradient id="paint27_linear_119_1744" x1="342.99" y1="-6.63782" x2="385.584" y2="50.1706" gradientUnits="userSpaceOnUse">
<stop stop-color="#A3772D"/>
<stop offset="0.5" stop-color="#DBB35B"/>
<stop offset="1" stop-color="#A3772D"/>
</linearGradient>
<linearGradient id="paint28_linear_119_1744" x1="338.928" y1="-3.5918" x2="381.522" y2="53.2168" gradientUnits="userSpaceOnUse">
<stop stop-color="#A3772D"/>
<stop offset="0.5" stop-color="#DBB35B"/>
<stop offset="1" stop-color="#A3772D"/>
</linearGradient>
<linearGradient id="paint29_linear_119_1744" x1="333.706" y1="0.324922" x2="376.299" y2="57.1334" gradientUnits="userSpaceOnUse">
<stop stop-color="#A3772D"/>
<stop offset="0.5" stop-color="#DBB35B"/>
<stop offset="1" stop-color="#A3772D"/>
</linearGradient>
<linearGradient id="paint30_linear_119_1744" x1="327.543" y1="4.94376" x2="370.137" y2="61.7523" gradientUnits="userSpaceOnUse">
<stop stop-color="#A3772D"/>
<stop offset="0.5" stop-color="#DBB35B"/>
<stop offset="1" stop-color="#A3772D"/>
</linearGradient>
<linearGradient id="paint31_linear_119_1744" x1="321.943" y1="9.14327" x2="364.537" y2="65.9518" gradientUnits="userSpaceOnUse">
<stop stop-color="#A3772D"/>
<stop offset="0.5" stop-color="#DBB35B"/>
<stop offset="1" stop-color="#A3772D"/>
</linearGradient>
<linearGradient id="paint32_linear_119_1744" x1="48.6564" y1="22.6461" x2="319.164" y2="21.8341" gradientUnits="userSpaceOnUse">
<stop stop-color="#D7AD54"/>
<stop offset="0.504" stop-color="#F7DF8D"/>
<stop offset="1" stop-color="#D7AD54"/>
</linearGradient>
<linearGradient id="paint33_linear_119_1744" x1="430.428" y1="6.55215" x2="387.834" y2="63.3607" gradientUnits="userSpaceOnUse">
<stop stop-color="#A3772D"/>
<stop offset="0.5" stop-color="#DBB35B"/>
<stop offset="1" stop-color="#A3772D"/>
</linearGradient>
<linearGradient id="paint34_linear_119_1744" x1="426.215" y1="3.39174" x2="383.621" y2="60.2009" gradientUnits="userSpaceOnUse">
<stop stop-color="#A3772D"/>
<stop offset="0.5" stop-color="#DBB35B"/>
<stop offset="1" stop-color="#A3772D"/>
</linearGradient>
<linearGradient id="paint35_linear_119_1744" x1="421.543" y1="-0.108905" x2="378.949" y2="56.6996" gradientUnits="userSpaceOnUse">
<stop stop-color="#A3772D"/>
<stop offset="0.5" stop-color="#DBB35B"/>
<stop offset="1" stop-color="#A3772D"/>
</linearGradient>
<linearGradient id="paint36_linear_119_1744" x1="417.477" y1="-3.15844" x2="374.884" y2="53.6501" gradientUnits="userSpaceOnUse">
<stop stop-color="#A3772D"/>
<stop offset="0.5" stop-color="#DBB35B"/>
<stop offset="1" stop-color="#A3772D"/>
</linearGradient>
<linearGradient id="paint37_linear_119_1744" x1="414.769" y1="-5.18769" x2="372.176" y2="51.6208" gradientUnits="userSpaceOnUse">
<stop stop-color="#A3772D"/>
<stop offset="0.5" stop-color="#DBB35B"/>
<stop offset="1" stop-color="#A3772D"/>
</linearGradient>
<linearGradient id="paint38_linear_119_1744" x1="413.753" y1="-5.94894" x2="371.16" y2="50.8596" gradientUnits="userSpaceOnUse">
<stop stop-color="#A3772D"/>
<stop offset="0.5" stop-color="#DBB35B"/>
<stop offset="1" stop-color="#A3772D"/>
</linearGradient>
<linearGradient id="paint39_linear_119_1744" x1="410.336" y1="-8.51176" x2="367.742" y2="48.2967" gradientUnits="userSpaceOnUse">
<stop stop-color="#A3772D"/>
<stop offset="0.5" stop-color="#DBB35B"/>
<stop offset="1" stop-color="#A3772D"/>
</linearGradient>
<linearGradient id="paint40_linear_119_1744" x1="414.043" y1="-5.73263" x2="371.45" y2="51.0759" gradientUnits="userSpaceOnUse">
<stop stop-color="#A3772D"/>
<stop offset="0.5" stop-color="#DBB35B"/>
<stop offset="1" stop-color="#A3772D"/>
</linearGradient>
<linearGradient id="paint41_linear_119_1744" x1="412.083" y1="-7.20264" x2="369.49" y2="49.6059" gradientUnits="userSpaceOnUse">
<stop stop-color="#A3772D"/>
<stop offset="0.5" stop-color="#DBB35B"/>
<stop offset="1" stop-color="#A3772D"/>
</linearGradient>
<linearGradient id="paint42_linear_119_1744" x1="409.38" y1="-9.22821" x2="366.787" y2="47.5803" gradientUnits="userSpaceOnUse">
<stop stop-color="#A3772D"/>
<stop offset="0.5" stop-color="#DBB35B"/>
<stop offset="1" stop-color="#A3772D"/>
</linearGradient>
<linearGradient id="paint43_linear_119_1744" x1="410.336" y1="-8.51207" x2="367.742" y2="48.2971" gradientUnits="userSpaceOnUse">
<stop stop-color="#A3772D"/>
<stop offset="0.5" stop-color="#DBB35B"/>
<stop offset="1" stop-color="#A3772D"/>
</linearGradient>
<linearGradient id="paint44_linear_119_1744" x1="412.836" y1="-6.63782" x2="370.243" y2="50.1707" gradientUnits="userSpaceOnUse">
<stop stop-color="#A3772D"/>
<stop offset="0.5" stop-color="#DBB35B"/>
<stop offset="1" stop-color="#A3772D"/>
</linearGradient>
<linearGradient id="paint45_linear_119_1744" x1="416.898" y1="-3.59202" x2="374.305" y2="53.2165" gradientUnits="userSpaceOnUse">
<stop stop-color="#A3772D"/>
<stop offset="0.5" stop-color="#DBB35B"/>
<stop offset="1" stop-color="#A3772D"/>
</linearGradient>
<linearGradient id="paint46_linear_119_1744" x1="422.122" y1="0.324923" x2="379.529" y2="57.1334" gradientUnits="userSpaceOnUse">
<stop stop-color="#A3772D"/>
<stop offset="0.5" stop-color="#DBB35B"/>
<stop offset="1" stop-color="#A3772D"/>
</linearGradient>
<linearGradient id="paint47_linear_119_1744" x1="428.282" y1="4.94376" x2="385.689" y2="61.7523" gradientUnits="userSpaceOnUse">
<stop stop-color="#A3772D"/>
<stop offset="0.5" stop-color="#DBB35B"/>
<stop offset="1" stop-color="#A3772D"/>
</linearGradient>
<linearGradient id="paint48_linear_119_1744" x1="433.884" y1="9.14328" x2="391.29" y2="65.9518" gradientUnits="userSpaceOnUse">
<stop stop-color="#A3772D"/>
<stop offset="0.5" stop-color="#DBB35B"/>
<stop offset="1" stop-color="#A3772D"/>
</linearGradient>
<linearGradient id="paint49_linear_119_1744" x1="567.311" y1="6.55215" x2="609.905" y2="63.3606" gradientUnits="userSpaceOnUse">
<stop stop-color="#A3772D"/>
<stop offset="0.5" stop-color="#DBB35B"/>
<stop offset="1" stop-color="#A3772D"/>
</linearGradient>
<linearGradient id="paint50_linear_119_1744" x1="571.526" y1="3.39174" x2="614.118" y2="60.2008" gradientUnits="userSpaceOnUse">
<stop stop-color="#A3772D"/>
<stop offset="0.5" stop-color="#DBB35B"/>
<stop offset="1" stop-color="#A3772D"/>
</linearGradient>
<linearGradient id="paint51_linear_119_1744" x1="576.197" y1="-0.108905" x2="618.79" y2="56.6996" gradientUnits="userSpaceOnUse">
<stop stop-color="#A3772D"/>
<stop offset="0.5" stop-color="#DBB35B"/>
<stop offset="1" stop-color="#A3772D"/>
</linearGradient>
<linearGradient id="paint52_linear_119_1744" x1="580.263" y1="-3.15844" x2="622.856" y2="53.65" gradientUnits="userSpaceOnUse">
<stop stop-color="#A3772D"/>
<stop offset="0.5" stop-color="#DBB35B"/>
<stop offset="1" stop-color="#A3772D"/>
</linearGradient>
<linearGradient id="paint53_linear_119_1744" x1="582.97" y1="-5.18769" x2="625.563" y2="51.6207" gradientUnits="userSpaceOnUse">
<stop stop-color="#A3772D"/>
<stop offset="0.5" stop-color="#DBB35B"/>
<stop offset="1" stop-color="#A3772D"/>
</linearGradient>
<linearGradient id="paint54_linear_119_1744" x1="583.985" y1="-5.94894" x2="626.578" y2="50.8596" gradientUnits="userSpaceOnUse">
<stop stop-color="#A3772D"/>
<stop offset="0.5" stop-color="#DBB35B"/>
<stop offset="1" stop-color="#A3772D"/>
</linearGradient>
<linearGradient id="paint55_linear_119_1744" x1="587.403" y1="-8.51246" x2="629.996" y2="48.2966" gradientUnits="userSpaceOnUse">
<stop stop-color="#A3772D"/>
<stop offset="0.5" stop-color="#DBB35B"/>
<stop offset="1" stop-color="#A3772D"/>
</linearGradient>
<linearGradient id="paint56_linear_119_1744" x1="583.696" y1="-5.73263" x2="626.29" y2="51.0759" gradientUnits="userSpaceOnUse">
<stop stop-color="#A3772D"/>
<stop offset="0.5" stop-color="#DBB35B"/>
<stop offset="1" stop-color="#A3772D"/>
</linearGradient>
<linearGradient id="paint57_linear_119_1744" x1="585.657" y1="-7.20264" x2="628.25" y2="49.6059" gradientUnits="userSpaceOnUse">
<stop stop-color="#A3772D"/>
<stop offset="0.5" stop-color="#DBB35B"/>
<stop offset="1" stop-color="#A3772D"/>
</linearGradient>
<linearGradient id="paint58_linear_119_1744" x1="588.358" y1="-9.22821" x2="630.952" y2="47.5803" gradientUnits="userSpaceOnUse">
<stop stop-color="#A3772D"/>
<stop offset="0.5" stop-color="#DBB35B"/>
<stop offset="1" stop-color="#A3772D"/>
</linearGradient>
<linearGradient id="paint59_linear_119_1744" x1="587.403" y1="-8.51207" x2="629.996" y2="48.2965" gradientUnits="userSpaceOnUse">
<stop stop-color="#A3772D"/>
<stop offset="0.5" stop-color="#DBB35B"/>
<stop offset="1" stop-color="#A3772D"/>
</linearGradient>
<linearGradient id="paint60_linear_119_1744" x1="584.903" y1="-6.63782" x2="627.497" y2="50.1706" gradientUnits="userSpaceOnUse">
<stop stop-color="#A3772D"/>
<stop offset="0.5" stop-color="#DBB35B"/>
<stop offset="1" stop-color="#A3772D"/>
</linearGradient>
<linearGradient id="paint61_linear_119_1744" x1="580.841" y1="-3.5918" x2="623.435" y2="53.2168" gradientUnits="userSpaceOnUse">
<stop stop-color="#A3772D"/>
<stop offset="0.5" stop-color="#DBB35B"/>
<stop offset="1" stop-color="#A3772D"/>
</linearGradient>
<linearGradient id="paint62_linear_119_1744" x1="575.619" y1="0.324922" x2="618.212" y2="57.1334" gradientUnits="userSpaceOnUse">
<stop stop-color="#A3772D"/>
<stop offset="0.5" stop-color="#DBB35B"/>
<stop offset="1" stop-color="#A3772D"/>
</linearGradient>
<linearGradient id="paint63_linear_119_1744" x1="569.456" y1="4.94376" x2="612.05" y2="61.7523" gradientUnits="userSpaceOnUse">
<stop stop-color="#A3772D"/>
<stop offset="0.5" stop-color="#DBB35B"/>
<stop offset="1" stop-color="#A3772D"/>
</linearGradient>
<linearGradient id="paint64_linear_119_1744" x1="563.856" y1="9.14327" x2="606.45" y2="65.9518" gradientUnits="userSpaceOnUse">
<stop stop-color="#A3772D"/>
<stop offset="0.5" stop-color="#DBB35B"/>
<stop offset="1" stop-color="#A3772D"/>
</linearGradient>
<linearGradient id="paint65_linear_119_1744" x1="435.711" y1="22.6461" x2="566.101" y2="22.4574" gradientUnits="userSpaceOnUse">
<stop stop-color="#D7AD54"/>
<stop offset="0.504" stop-color="#F7DF8D"/>
<stop offset="1" stop-color="#D7AD54"/>
</linearGradient>
</defs>
</svg>
