<svg width="322" height="50" viewBox="0 0 322 50" fill="none" xmlns="http://www.w3.org/2000/svg">
<g clip-path="url(#clip0_468_18380)">
<path d="M19.3362 15.9486L8.51099 12.363V38.6648L19.3971 42.258L19.3362 15.9486Z" fill="#DDAF18"/>
<path d="M0.045676 15.1645L8.51096 12.363V30.1919L0 32.9934L0.045676 15.1645Z" fill="#B28D1B"/>
<path d="M42.1057 41.2683L42.0219 4.95585L27.0782 0V8.73173V36.3124V45.0442L42.1057 50L42.0904 41.2607L42.1057 41.2683Z" fill="#DDAF18"/>
<path d="M26.4084 10.201L27.0783 9.98021V0L25.9135 0.388246L14.2281 4.25548L14.1976 14.2509L26.4084 10.201Z" fill="#B28D1B"/>
<path d="M58.7775 9.48543V8.8688H63.0329V8.13037H63.68V8.8688H67.9355V9.48543H58.7775ZM65.6822 17.1362H65.9181C67.0144 17.1362 67.1362 16.9839 67.1362 16.5195V13.6419H59.5996V17.8061H58.9526V13.0253H67.7756V16.5271C67.7756 17.494 67.3341 17.7985 65.9714 17.7985L65.6822 17.1438V17.1362ZM60.1858 12.2031V10.2771H66.4967V12.2031H60.1858ZM65.8496 10.8557H60.8253V11.617H65.8496V10.8557ZM61.1222 16.5424V14.4641H65.5527V16.5424H61.1222ZM64.9057 15.0503H61.7692V15.9638H64.9057V15.0503Z" fill="white"/>
<path d="M71.7113 17.0067V17.5548H71.0642V14.2357C70.8891 14.3194 70.6684 14.4412 70.4704 14.5174L70.1812 13.9388C71.2241 13.6191 71.9777 13.2004 72.5106 12.7436C72.1376 12.5 71.7341 12.2716 71.3383 12.0585C70.95 12.4543 70.6075 12.7284 70.6075 12.7284L70.2497 12.2259C70.2497 12.2259 71.7646 11.1906 72.1833 9.6757L72.7847 9.83556C72.6629 10.1401 72.5791 10.3304 72.4269 10.5892H74.3301V9.53867H71.0718V10.848H70.4248V8.91443H72.4573V8.13794H73.1044V8.91443H74.9771V10.8252H74.3681V11.0917C74.0788 11.7159 73.7363 12.2336 73.348 12.6599C74.4366 13.3374 75.2588 13.9464 75.2588 13.9464L74.9162 14.4717C74.9162 14.4717 74.764 14.3423 74.4975 14.1367V17.0067H71.7037H71.7113ZM74.429 14.0834C74.0864 13.817 73.5688 13.4364 72.975 13.0405C72.4726 13.482 71.9245 13.8246 71.3535 14.0834H74.429ZM72.1072 11.1373C71.9854 11.32 71.8483 11.5027 71.6961 11.6626C72.1072 11.891 72.5106 12.127 72.8989 12.363C73.2719 11.9671 73.5231 11.5332 73.7058 11.1373H72.1072ZM73.8581 14.7077H71.7113V16.3825H73.8581V14.7077ZM74.9543 17.2427C75.8145 16.8012 76.4388 16.0247 76.4388 16.0247L76.9107 16.3977C76.9107 16.3977 76.4159 17.1818 75.3502 17.806L74.9543 17.2351V17.2427ZM75.5785 15.9714V10.0944H76.5758C76.7509 9.88885 77.0402 9.48538 77.2076 9.08191H75.2588V8.45767H79.5371V9.08191H77.8928C77.7558 9.43971 77.5274 9.81273 77.3371 10.0944H79.2631V15.9714H75.5785ZM78.6236 10.711H76.2256V11.8377H78.6236V10.711ZM78.6236 12.4315H76.2256V13.581H78.6236V12.4315ZM78.6236 14.1748H76.2256V15.3471H78.6236V14.1748ZM79.461 17.806C78.4181 17.159 77.8623 16.3977 77.8623 16.3977L78.3115 16.0094C78.3115 16.0094 78.9662 16.7403 79.8569 17.2351L79.461 17.806Z" fill="white"/>
<path d="M86.3201 17.8061V11.6703C85.338 12.8883 84.1809 13.8932 82.2473 15.0275L81.8514 14.3043C84.4093 12.9949 86.2059 11.0384 87.089 9.39408H82.1255V8.71655H91.2607V9.39408H87.8426C87.6066 9.86607 87.3935 10.2848 87.0128 10.7796V17.8137H86.3277L86.3201 17.8061ZM91.1161 15.2178C89.8067 14.4413 88.7105 13.3603 87.4391 11.9595L87.8654 11.4723C88.9388 12.6523 90.0351 13.7638 91.5195 14.5555L91.1084 15.2102L91.1161 15.2178Z" fill="white"/>
<path d="M98.7667 16.8164C97.4878 17.0448 96.0262 17.2884 93.7043 17.3721L93.5521 16.7403C94.3818 16.7403 95.204 16.7098 95.95 16.6185V15.6288H93.8109V15.1036H95.95V14.2357H93.9479V11.1526H95.95V10.4218H93.5216V9.86606H95.95V9.10479C95.3943 9.13524 94.7549 9.16569 94.0469 9.16569L93.8642 8.58713H94.26C97.1605 8.58713 98.3785 8.1456 98.3785 8.1456L98.7667 8.6861C98.7667 8.6861 98.0435 8.91448 96.5971 9.0515V9.86606H98.9494V10.4218H96.5971V11.1526H98.5993V14.2357H96.5971V15.1036H98.7287V15.6288H96.5971V16.5652C97.8304 16.4358 98.7667 16.2226 98.7667 16.2226V16.8164ZM95.95 11.6703H94.595V12.4544H95.95V11.6703ZM95.95 12.9187H94.595V13.7257H95.95V12.9187ZM97.9522 11.6703H96.5971V12.4544H97.9522V11.6703ZM97.9522 12.9187H96.5971V13.7257H97.9522V12.9187ZM100.358 17.022H100.67C102.086 17.022 102.132 16.9002 102.132 13.1623V10.9394H100.914C100.868 13.8627 100.495 15.9181 99.0865 17.8061L98.6449 17.2275C99.863 15.6136 100.228 13.7866 100.266 10.9394H99.2159V10.3457H100.282V8.13037H100.929V10.3457H102.779V12.4848C102.779 17.4407 102.68 17.6843 100.617 17.6843L100.358 17.0144V17.022Z" fill="white"/>
<path d="M106.928 11.5713V11.8606C106.928 14.0226 106.882 16.1617 105.702 17.7528L105.184 17.3036C106.227 15.8496 106.28 14.0987 106.28 11.8606V10.9471H108.732C108.526 10.5512 108.244 9.98786 107.849 9.47781H106.341V8.85357H110.094V8.13037H110.741V8.85357H114.213V9.47781H113.018C112.782 10.0564 112.439 10.5816 112.226 10.9471H114.708V11.5713H106.928ZM107.392 17.3265V16.7022H110.856V15.5451H108.45V14.9209H110.856V13.7714H108.618C108.199 14.4032 107.78 14.8067 107.78 14.8067L107.316 14.3423C107.316 14.3423 108.351 13.5125 108.785 12.1042L109.325 12.3402C109.242 12.6295 109.112 12.8883 108.991 13.1471H110.848V12.0509H111.495V13.1471H114.236V13.7714H111.495V14.9209H113.901V15.5451H111.495V16.7022H114.799V17.3265H107.392ZM108.64 9.47781C109.006 10.0335 109.272 10.6045 109.424 10.9471H111.533C111.739 10.6349 112.074 10.0944 112.317 9.47781H108.64Z" fill="white"/>
<path d="M120.326 16.8774C120.326 16.8774 119.23 17.4179 117.266 17.7985L116.999 17.1971C118.781 16.9916 119.999 16.4206 119.999 16.4206L120.333 16.8698L120.326 16.8774ZM117.448 10.9319V8.5415H125.944V10.9319H117.448ZM118.027 16.3217V11.7008H125.404V16.3217H118.027ZM120.067 9.12768H118.088V10.4294H120.067V9.12768ZM124.756 12.2489H118.674V13.0634H124.756V12.2489ZM124.756 13.5583H118.674V14.3728H124.756V13.5583ZM124.756 14.8676H118.674V15.7735H124.756V14.8676ZM122.678 9.12768H120.699V10.4294H122.678V9.12768ZM126.142 17.8061C124.597 17.5701 123.082 16.885 123.082 16.885L123.417 16.4358C123.417 16.4358 124.749 17.0372 126.416 17.2123L126.15 17.8137L126.142 17.8061ZM125.289 9.12768H123.31V10.4294H125.289V9.12768Z" fill="white"/>
<path d="M132.339 17.8061V15.6212C131.456 15.8344 129.705 16.177 128.685 16.2759L128.525 15.606C128.806 15.5832 129.141 15.5451 129.484 15.4994V9.08957H128.692V8.46533H133.747V9.08957H132.993V17.7985H132.346L132.339 17.8061ZM132.339 9.09718H130.123V10.7111H132.339V9.09718ZM132.339 11.3201H130.123V12.934H132.339V11.3201ZM132.339 13.543H130.123V15.4157H130.169C130.945 15.2863 131.882 15.1112 132.339 15.0198V13.5506V13.543ZM137.797 17.5092C137.058 16.9306 136.449 16.1313 135.977 15.4461C135.376 16.2835 134.759 16.9839 133.732 17.768L133.359 17.1362C134.432 16.4053 135.163 15.6745 135.62 14.898C134.622 13.1547 134.348 11.5028 134.219 10.6654L134.866 10.4599C134.965 11.2135 135.201 13.0329 136.031 14.4184C137.051 12.835 137.203 11.0613 137.234 9.93458H133.732V9.31034H137.911C137.805 11.4495 137.645 13.1014 136.343 14.9437C136.914 15.7735 137.439 16.3977 138.2 16.923L137.805 17.5168L137.797 17.5092Z" fill="white"/>
<path d="M147.724 15.3929V16.649C147.724 17.6386 147.435 17.7681 145.608 17.7681L145.303 17.0829H145.531C147.016 17.0829 147.077 17.0753 147.077 16.6566V15.4005H142.677C142.981 15.6441 143.484 16.0095 144.024 16.6033L143.537 17.0525C142.996 16.4054 142.106 15.6974 142.106 15.6974L142.502 15.3929H140.203V14.7687H147.069V13.878H141.116V10.2087H144.694V9.41696H140.576V8.79272H144.694V8.1228H145.341V8.79272H149.642V9.41696H145.341V10.2087H148.919V13.878H147.716V14.7687H149.81V15.3929H147.716H147.724ZM144.702 10.8025H141.771V11.7693H144.702V10.8025ZM144.702 12.3174H141.771V13.2842H144.702V12.3174ZM148.28 10.8025H145.349V11.7693H148.28V10.8025ZM148.28 12.3174H145.349V13.2842H148.28V12.3174Z" fill="white"/>
<path d="M152.383 17.8061V8.46538H156.296V12.6828H153.03V17.8137H152.383V17.8061ZM155.649 9.08962H153.022V10.2696H155.649V9.08962ZM155.649 10.871H153.022V12.0509H155.649V10.871ZM158.914 17.7833L158.678 17.1134C158.838 17.1134 158.991 17.121 159.12 17.121C160.224 17.121 160.353 16.9078 160.353 15.705V12.6752H157.087V8.45776H161V15.9258C161 17.5625 160.46 17.7757 159.249 17.7757H158.914V17.7833ZM160.353 9.08962H157.727V10.2696H160.353V9.08962ZM160.353 10.871H157.727V12.0509H160.353V10.871Z" fill="white"/>
<path d="M177.413 17.2123C175.434 16.3749 174.315 15.3396 173.493 14.388H173.302V17.8061H172.655V14.388H172.442C171.734 15.3243 170.973 16.2226 168.56 17.2656L168.171 16.6337C170.082 15.9638 171.201 15.096 171.78 14.388H169.23V10.4675H172.648V9.61484H168.4V8.9906H172.648V8.13037H173.295V8.9906H177.565V9.61484H173.295V10.4675H176.713V14.388H174.124C174.749 15.0427 175.815 15.9181 177.801 16.5804L177.413 17.2123ZM172.648 11.0841H169.877V12.1194H172.648V11.0841ZM172.648 12.6827H169.877V13.7561H172.648V12.6827ZM176.066 11.0841H173.295V12.1194H176.066V11.0841ZM176.066 12.6827H173.295V13.7561H176.066V12.6827Z" fill="white"/>
<path d="M179.834 16.3064C181.136 15.6746 181.981 15.0351 182.575 14.3956L183.024 14.7915C182.27 15.6441 181.357 16.2303 180.253 16.885L179.834 16.3064ZM180.078 9.66056V9.01348H184.325V8.1228H185.003V9.01348H189.22V9.66056H180.085H180.078ZM185.239 13.8399V16.6338C185.239 17.6539 184.714 17.7909 183.13 17.7909L182.841 17.1134C184.462 17.1134 184.561 17.0525 184.561 16.6109V13.8399H181.296V10.871H188.056V13.8399H185.239ZM187.409 11.5257H181.935V13.1776H187.409V11.5257ZM189 16.8241C188.292 16.4054 187.401 15.7735 186.29 14.8143L186.716 14.35C187.553 15.1645 188.642 15.8573 189.434 16.2303L188.992 16.8241H189Z" fill="white"/>
<path d="M196.78 17.3493C195.889 15.7887 194.686 14.2662 193.499 13.1167L194.1 12.7969C194.656 13.345 195.196 13.9464 195.722 14.6011C197.122 13.6039 198.896 11.6322 199.703 10.2467H197.884C195.828 10.2467 192.806 10.2543 191.527 10.3304L191.504 9.63006C192.281 9.6529 193.72 9.66051 195.227 9.66051C197.214 9.66051 199.33 9.63767 200.228 9.59961L200.723 10.064C199.528 11.8453 197.907 13.7637 196.14 15.1492C196.567 15.705 197.001 16.314 197.419 16.9458L196.772 17.3569L196.78 17.3493Z" fill="white"/>
<path d="M211.96 11.1144C210.163 14.3727 207.727 16.3748 203.662 17.0828L203.304 16.3215C207.171 16.0322 210.087 13.4515 211.381 10.612L211.96 11.1144ZM206.014 11.1068C205.306 10.4597 204.294 9.7746 203.502 9.35591L204.027 8.86108C204.834 9.31023 205.748 9.91163 206.509 10.5511L206.014 11.1068Z" fill="white"/>
<path d="M216.801 12.8578C216.116 12.4467 215.218 12.0052 214.563 11.754L214.898 11.2135C215.629 11.5027 216.481 11.891 217.212 12.2792L216.801 12.8578ZM223.325 11.9671C221.559 14.8828 219.329 16.4967 215.18 17.2808L214.86 16.5423C218.955 16.116 221.483 14.0378 222.868 11.3505L223.333 11.9747L223.325 11.9671ZM218.004 10.3685C217.425 10.003 216.42 9.50061 215.728 9.24939L216.139 8.72412C216.862 9.00579 217.783 9.42449 218.461 9.79751L218.012 10.3685H218.004Z" fill="white"/>
<path d="M231.562 17.1818C231.562 17.06 231.57 16.9458 231.57 16.687C230.869 16.6794 230.169 16.6794 229.491 16.6794C228.144 16.6794 226.903 16.687 225.921 16.725V16.1008C226.964 16.1465 228.312 16.1541 229.758 16.1541H231.585C231.585 15.4461 231.593 14.5859 231.593 13.7333C230.854 13.7256 230.131 13.7104 229.431 13.7104C228.266 13.7104 227.208 13.7333 226.332 13.7637V13.1623C227.055 13.1928 227.954 13.208 228.936 13.208C229.773 13.208 230.679 13.2004 231.593 13.2004C231.593 12.3706 231.585 11.6017 231.585 11.0003H230.298C228.768 11.0003 227.17 11.0079 226.096 11.0536V10.4598C226.72 10.4826 227.68 10.4903 228.723 10.4903C229.895 10.4903 231.166 10.4826 232.186 10.4446C232.186 11.4647 232.179 12.736 232.179 13.9464C232.179 15.1568 232.186 16.3368 232.209 17.1742H231.562V17.1818Z" fill="white"/>
<path d="M244.595 11.1144C242.798 14.3727 240.362 16.3748 236.297 17.0828L235.939 16.3215C239.807 16.0322 242.722 13.4515 244.017 10.612L244.595 11.1144ZM238.65 11.1068C237.942 10.4597 236.929 9.7746 236.137 9.35591L236.663 8.86108C237.47 9.31023 238.383 9.91163 239.144 10.5511L238.65 11.1068Z" fill="white"/>
<path d="M253.57 16.0551C253.57 16.9154 253.357 17.4178 251.69 17.4635L251.37 16.6489C251.652 16.6946 251.888 16.7098 252.078 16.7098C252.71 16.7098 252.885 16.451 252.885 15.9714V15.9257C252.862 14.7534 252.855 12.8426 252.824 11.0993H252.436C251.477 13.1166 249.932 14.9665 247.686 16.3368L247.016 15.8496C249.201 14.7305 250.921 12.7665 251.667 11.0993C250.015 11.1069 248.31 11.1297 247.206 11.1602V10.4903C248.333 10.5131 250.03 10.536 251.72 10.536H252.809C252.801 9.75185 252.763 9.02103 252.733 8.42725H253.441C253.441 9.00581 253.441 9.73663 253.449 10.536C254.408 10.5283 255.298 10.5131 255.984 10.4903V11.1374C255.329 11.1145 254.446 11.0917 253.456 11.0917C253.479 12.8198 253.532 14.7381 253.563 15.8115V16.0475L253.57 16.0551Z" fill="white"/>
<path d="M267.57 13.2232C266.626 13.1928 264.883 13.1775 263.132 13.1775C261.381 13.1775 259.615 13.1851 258.625 13.2232V12.5C259.387 12.5228 261.069 12.5304 262.797 12.5304C264.784 12.5304 266.816 12.5228 267.57 12.5V13.2232Z" fill="white"/>
<path d="M269.115 16.8925C270.866 15.4614 271.201 13.2841 271.201 11.1297C271.201 10.5055 271.178 9.88127 271.148 9.29509L271.879 9.32554C271.886 9.75185 271.886 10.1782 271.886 10.5588C271.886 13.4364 271.628 15.233 269.907 17.3341L269.115 16.8925ZM273.782 16.8925C273.828 15.5679 273.835 13.954 273.835 12.4239C273.835 10.9927 273.828 9.61482 273.79 8.59473L274.574 8.62518C274.513 9.80514 274.49 11.9062 274.49 13.6648C274.49 14.8295 274.498 15.8268 274.513 16.3444C276.134 15.5375 277.855 13.6495 278.601 12.1955L279.088 12.698C278.076 14.4641 276.378 16.1465 274.399 17.2656L273.79 16.8925H273.782Z" fill="white"/>
<path d="M290.142 12.4849C289.205 12.4544 287.789 12.4392 286.305 12.4392C286.251 14.7839 285.688 16.5653 283.458 17.6843L282.75 17.1286C284.988 16.4054 285.597 14.6164 285.597 12.8199C285.597 12.6904 285.597 12.5762 285.589 12.4468C283.808 12.4468 282.019 12.4697 280.968 12.4925V11.815C281.981 11.8454 283.602 11.8683 285.277 11.8683C287.096 11.8683 288.954 11.8454 290.149 11.815V12.4925L290.142 12.4849ZM288.375 9.66821C287.637 9.63776 286.526 9.62253 285.399 9.62253C284.272 9.62253 283.161 9.63014 282.392 9.65298V8.99829C283.176 9.02874 284.341 9.05158 285.498 9.05158C286.571 9.05158 287.637 9.02874 288.375 8.99829V9.66821ZM289.418 11.343C289.19 10.9167 288.916 10.4295 288.627 10.0184L289.038 9.7824C289.35 10.1935 289.647 10.635 289.89 11.0689L289.426 11.3354L289.418 11.343ZM290.119 10.5665C289.89 10.1478 289.616 9.71388 289.266 9.28757L289.715 9.05919C290.027 9.44744 290.324 9.87375 290.575 10.3077L290.111 10.5665H290.119Z" fill="white"/>
<path d="M295.577 17.6004C295.6 16.6336 295.607 15.5373 295.607 14.4411C295.607 13.8625 295.607 13.2764 295.6 12.7206C294.504 13.5048 293.331 14.1899 292.106 14.8141L291.634 14.3193C293.75 13.4362 296.902 11.3275 298.051 9.75171L298.622 10.1171C297.899 10.8784 297.092 11.5864 296.224 12.2487C296.201 13.0784 296.194 13.992 296.194 14.9131C296.194 15.8342 296.201 16.7478 296.224 17.5928H295.577V17.6004Z" fill="white"/>
<path d="M310.475 13.2232C309.531 13.1928 307.788 13.1775 306.037 13.1775C304.286 13.1775 302.52 13.1851 301.53 13.2232V12.5C302.291 12.5228 303.974 12.5304 305.702 12.5304C307.689 12.5304 309.721 12.5228 310.475 12.5V13.2232Z" fill="white"/>
<path d="M320.12 17.06C319.306 16.078 317.859 14.9665 316.71 14.1672C315.697 15.3167 314.411 16.3368 312.675 17.2503L312.051 16.7022C315.225 15.3929 317.715 12.4544 318.545 9.90412H317.113C315.781 9.90412 314.167 9.91173 313.117 9.95741V9.25704C313.946 9.27988 315.096 9.30272 316.238 9.30272C317.205 9.30272 318.171 9.29511 318.918 9.24943L319.435 9.63768C318.811 11.1298 318.088 12.4848 317.113 13.7028C318.263 14.4413 319.641 15.4766 320.745 16.5119L320.12 17.06ZM320.181 9.57677C319.861 9.21137 319.45 8.82312 319.077 8.50339L319.443 8.18366C319.839 8.49578 320.242 8.86118 320.585 9.22659L320.189 9.58439L320.181 9.57677ZM321.14 9.15808C320.805 8.79267 320.432 8.4501 319.999 8.11514L320.387 7.79541C320.798 8.10753 321.194 8.4501 321.529 8.80789L321.14 9.16569V9.15808Z" fill="white"/>
<path d="M65.2254 41.8469H63.2689V29.5676H58.7775V27.8472H69.7169V29.5676H65.2254V41.8469Z" fill="white"/>
<path d="M86.0916 34.8279C86.0916 35.9089 85.9013 36.8985 85.5283 37.8044C85.1552 38.7103 84.6376 39.4868 83.9753 40.1415C83.313 40.7962 82.5289 41.2986 81.623 41.664C80.7171 42.0295 79.7274 42.2045 78.654 42.2045C77.5806 42.2045 76.5986 42.0218 75.7003 41.664C74.7944 41.2986 74.0179 40.7962 73.3556 40.1415C72.6933 39.4868 72.1833 38.7103 71.8102 37.8044C71.4372 36.8985 71.2545 35.9089 71.2545 34.8279C71.2545 33.7469 71.4372 32.7344 71.8102 31.8285C72.1757 30.9226 72.6933 30.1537 73.3556 29.5142C74.0179 28.8748 74.7944 28.3799 75.7003 28.0221C76.6062 27.6643 77.5883 27.4893 78.654 27.4893C79.7198 27.4893 80.7095 27.6643 81.623 28.0221C82.5365 28.3799 83.3206 28.8748 83.9753 29.5142C84.6376 30.1537 85.1552 30.9226 85.5283 31.8285C85.9013 32.7344 86.0916 33.7316 86.0916 34.8279ZM83.9753 34.8279C83.9753 34.0666 83.8459 33.3434 83.6023 32.6659C83.351 31.9883 82.9932 31.3869 82.5365 30.8769C82.0721 30.3592 81.5164 29.9558 80.8617 29.6589C80.207 29.362 79.4762 29.2173 78.654 29.2173C77.8319 29.2173 77.1239 29.362 76.4692 29.6589C75.8145 29.9558 75.2588 30.3592 74.8096 30.8769C74.3529 31.3946 74.0027 31.9883 73.7515 32.6659C73.5003 33.3434 73.3785 34.0666 73.3785 34.8279C73.3785 35.5891 73.5003 36.3352 73.7515 37.0203C74.0027 37.7055 74.3605 38.2992 74.8172 38.8093C75.274 39.3193 75.8297 39.7152 76.4768 40.0045C77.1239 40.2938 77.8471 40.4384 78.654 40.4384C79.461 40.4384 80.1918 40.2938 80.8465 40.0045C81.5088 39.7152 82.0645 39.3117 82.5289 38.8093C82.9933 38.2992 83.3434 37.7055 83.5947 37.0203C83.8459 36.3352 83.9677 35.6044 83.9677 34.8279H83.9753Z" fill="white"/>
<path d="M91.7098 34.0135H91.7479L97.9979 27.8396H100.708L93.9022 34.2495L101.119 41.8469H98.31L91.7402 34.6073H91.7022V41.8469H89.7457V27.8472H91.7022V34.0211L91.7098 34.0135Z" fill="white"/>
<path d="M109.112 41.8469H107.133V35.7948L101.896 27.8472H104.309L108.184 34.1733L112.081 27.8472H114.357L109.12 35.7948V41.8469H109.112Z" fill="white"/>
<path d="M130.588 34.8279C130.588 35.9089 130.397 36.8985 130.024 37.8044C129.651 38.7103 129.134 39.4868 128.471 40.1415C127.809 40.7962 127.025 41.2986 126.119 41.664C125.213 42.0295 124.224 42.2045 123.15 42.2045C122.077 42.2045 121.095 42.0218 120.196 41.664C119.29 41.2986 118.514 40.7962 117.852 40.1415C117.189 39.4868 116.679 38.7103 116.306 37.8044C115.933 36.8985 115.751 35.9089 115.751 34.8279C115.751 33.7469 115.933 32.7344 116.306 31.8285C116.672 30.9226 117.189 30.1537 117.852 29.5142C118.514 28.8748 119.29 28.3799 120.196 28.0221C121.102 27.6643 122.084 27.4893 123.15 27.4893C124.216 27.4893 125.206 27.6643 126.119 28.0221C127.025 28.3799 127.817 28.8748 128.471 29.5142C129.134 30.1537 129.651 30.9226 130.024 31.8285C130.397 32.7344 130.588 33.7316 130.588 34.8279ZM128.471 34.8279C128.471 34.0666 128.35 33.3434 128.098 32.6659C127.847 31.9883 127.489 31.3869 127.033 30.8769C126.568 30.3592 126.012 29.9558 125.365 29.6589C124.711 29.362 123.98 29.2173 123.158 29.2173C122.336 29.2173 121.628 29.362 120.973 29.6589C120.318 29.9558 119.77 30.3592 119.313 30.8769C118.857 31.3946 118.506 31.9883 118.255 32.6659C118.004 33.3434 117.882 34.0666 117.882 34.8279C117.882 35.5891 118.004 36.3352 118.255 37.0203C118.506 37.7055 118.864 38.2992 119.321 38.8093C119.785 39.3193 120.333 39.7152 120.981 40.0045C121.628 40.2938 122.351 40.4384 123.158 40.4384C123.965 40.4384 124.695 40.2938 125.35 40.0045C126.012 39.7152 126.568 39.3117 127.033 38.8093C127.497 38.2992 127.847 37.7055 128.098 37.0203C128.35 36.3352 128.471 35.6044 128.471 34.8279Z" fill="white"/>
<path d="M147.419 38.6039H147.457L151.591 27.8472H154.636V41.8469H152.68V30.1386H152.642L147.99 41.8469H146.742L142.113 30.1386H142.075V41.8469H140.18V27.8472H143.225L147.419 38.6039Z" fill="white"/>
<path d="M159.607 41.8469H157.43L163.505 27.8472H165.286L171.3 41.8469H169.085L167.661 38.4059H161.015L159.615 41.8469H159.607ZM161.701 36.6855H166.938L164.327 30.1157L161.701 36.6855Z" fill="white"/>
<path d="M183.952 39.0378H183.991V27.8396H185.947V41.8393H183.473L176.073 30.4051H176.035V41.8393H174.079V27.8396H176.629L183.945 39.0378H183.952Z" fill="white"/>
<path d="M197.305 30.4355C197.031 30.0549 196.65 29.7428 196.178 29.4992C195.707 29.2556 195.166 29.1337 194.58 29.1337C194.26 29.1337 193.94 29.1794 193.621 29.2632C193.301 29.3469 193.004 29.4839 192.738 29.6819C192.471 29.8722 192.258 30.1082 192.098 30.3975C191.931 30.6791 191.854 31.0217 191.854 31.4175C191.854 31.8134 191.931 32.1179 192.083 32.3767C192.235 32.6356 192.441 32.8487 192.699 33.0314C192.958 33.2141 193.263 33.3588 193.605 33.4882C193.948 33.6176 194.329 33.7394 194.724 33.8764C195.196 34.0211 195.684 34.1886 196.171 34.3713C196.658 34.554 197.1 34.7976 197.495 35.1021C197.891 35.4066 198.211 35.7872 198.462 36.2364C198.714 36.6931 198.835 37.2717 198.835 37.9644C198.835 38.6572 198.698 39.3195 198.432 39.8524C198.158 40.3853 197.8 40.8268 197.351 41.177C196.902 41.5272 196.384 41.786 195.798 41.9611C195.212 42.1362 194.61 42.2199 193.986 42.2199C193.103 42.2199 192.25 42.0448 191.428 41.7023C190.606 41.3597 189.921 40.8496 189.38 40.1797L190.903 38.8932C191.23 39.3804 191.672 39.7763 192.228 40.0808C192.783 40.3853 193.385 40.5375 194.024 40.5375C194.351 40.5375 194.686 40.4918 195.014 40.4005C195.341 40.3091 195.646 40.1645 195.912 39.9666C196.186 39.7686 196.399 39.525 196.574 39.2281C196.742 38.9313 196.833 38.5735 196.833 38.1471C196.833 37.7208 196.742 37.3707 196.567 37.089C196.392 36.8073 196.148 36.5637 195.844 36.3658C195.539 36.1679 195.189 36.0004 194.785 35.8633C194.382 35.7263 193.956 35.5817 193.506 35.437C193.057 35.3076 192.616 35.1478 192.182 34.9498C191.748 34.7595 191.36 34.5159 191.017 34.219C190.675 33.9221 190.4 33.5567 190.187 33.1228C189.974 32.6889 189.868 32.1484 189.868 31.5013C189.868 30.8009 190.012 30.1995 190.294 29.7047C190.576 29.2023 190.949 28.7912 191.398 28.4562C191.854 28.1289 192.365 27.8853 192.943 27.733C193.514 27.5808 194.093 27.5046 194.671 27.5046C195.486 27.5046 196.255 27.6493 196.963 27.9386C197.678 28.2278 198.249 28.6161 198.683 29.1033L197.298 30.4507L197.305 30.4355Z" fill="white"/>
<path d="M204.545 41.8469H202.588V27.8472H204.545V41.8469Z" fill="white"/>
<path d="M223.051 34.8279C223.051 35.9089 222.861 36.8985 222.488 37.8044C222.115 38.7103 221.597 39.4868 220.935 40.1415C220.273 40.7962 219.488 41.2986 218.583 41.664C217.677 42.0295 216.687 42.2045 215.614 42.2045C214.54 42.2045 213.558 42.0218 212.66 41.664C211.754 41.2986 210.977 40.7962 210.315 40.1415C209.653 39.4868 209.143 38.7103 208.77 37.8044C208.404 36.8985 208.214 35.9089 208.214 34.8279C208.214 33.7469 208.397 32.7344 208.77 31.8285C209.135 30.9226 209.653 30.1537 210.315 29.5142C210.977 28.8748 211.754 28.3799 212.66 28.0221C213.566 27.6643 214.548 27.4893 215.614 27.4893C216.679 27.4893 217.669 27.6643 218.583 28.0221C219.496 28.3799 220.28 28.8748 220.935 29.5142C221.597 30.1537 222.115 30.9226 222.488 31.8285C222.861 32.7344 223.051 33.7316 223.051 34.8279ZM220.935 34.8279C220.935 34.0666 220.813 33.3434 220.562 32.6659C220.311 31.9883 219.953 31.3869 219.496 30.8769C219.032 30.3592 218.476 29.9558 217.821 29.6589C217.167 29.362 216.436 29.2173 215.614 29.2173C214.791 29.2173 214.083 29.362 213.429 29.6589C212.774 29.9558 212.226 30.3592 211.769 30.8769C211.312 31.3946 210.962 31.9883 210.711 32.6659C210.46 33.3434 210.338 34.0666 210.338 34.8279C210.338 35.5891 210.46 36.3352 210.711 37.0203C210.962 37.7055 211.32 38.2992 211.777 38.8093C212.241 39.3193 212.789 39.7152 213.436 40.0045C214.083 40.2938 214.807 40.4384 215.614 40.4384C216.421 40.4384 217.151 40.2938 217.806 40.0045C218.468 39.7152 219.024 39.3117 219.488 38.8093C219.953 38.2992 220.303 37.7055 220.554 37.0203C220.805 36.3352 220.927 35.6044 220.927 34.8279H220.935Z" fill="white"/>
<path d="M236.587 39.0378H236.625V27.8396H238.581V41.8393H236.107L228.707 30.4051H228.669V41.8393H226.713V27.8396H229.263L236.579 39.0378H236.587Z" fill="white"/>
<path d="M263.025 34.8279C263.025 35.9089 262.835 36.8985 262.462 37.8044C262.089 38.7103 261.571 39.4868 260.909 40.1415C260.247 40.7962 259.463 41.2986 258.557 41.664C257.651 42.0295 256.661 42.2045 255.588 42.2045C254.514 42.2045 253.532 42.0218 252.634 41.664C251.728 41.2986 250.952 40.7962 250.289 40.1415C249.627 39.4868 249.117 38.7103 248.744 37.8044C248.379 36.8985 248.188 35.9089 248.188 34.8279C248.188 33.7469 248.371 32.7344 248.744 31.8285C249.109 30.9226 249.627 30.1537 250.289 29.5142C250.952 28.8748 251.728 28.3799 252.634 28.0221C253.54 27.6643 254.522 27.4893 255.588 27.4893C256.654 27.4893 257.643 27.6643 258.557 28.0221C259.47 28.3799 260.254 28.8748 260.909 29.5142C261.571 30.1537 262.089 30.9226 262.462 31.8285C262.835 32.7344 263.025 33.7316 263.025 34.8279ZM260.909 34.8279C260.909 34.0666 260.787 33.3434 260.536 32.6659C260.285 31.9883 259.927 31.3869 259.47 30.8769C259.006 30.3592 258.45 29.9558 257.795 29.6589C257.141 29.362 256.41 29.2173 255.588 29.2173C254.766 29.2173 254.058 29.362 253.403 29.6589C252.748 29.9558 252.2 30.3592 251.743 30.8769C251.287 31.3946 250.936 31.9883 250.685 32.6659C250.434 33.3434 250.312 34.0666 250.312 34.8279C250.312 35.5891 250.434 36.3352 250.685 37.0203C250.936 37.7055 251.294 38.2992 251.751 38.8093C252.215 39.3193 252.763 39.7152 253.411 40.0045C254.058 40.2938 254.781 40.4384 255.588 40.4384C256.395 40.4384 257.126 40.2938 257.78 40.0045C258.443 39.7152 258.998 39.3117 259.463 38.8093C259.927 38.2992 260.277 37.7055 260.528 37.0203C260.78 36.3352 260.901 35.6044 260.901 34.8279H260.909Z" fill="white"/>
<path d="M268.643 40.1111H274.893V41.8544H266.687V27.8547H268.643V40.1187V40.1111Z" fill="white"/>
<path d="M277.779 27.8472H282.582C283.481 27.8472 284.379 27.9766 285.27 28.243C286.168 28.5095 286.975 28.9206 287.706 29.4915C288.429 30.0548 289.015 30.7857 289.464 31.6687C289.913 32.5518 290.134 33.61 290.134 34.8508C290.134 36.0917 289.913 37.0889 289.464 37.9644C289.015 38.8399 288.429 39.5631 287.706 40.1416C286.982 40.7126 286.168 41.1465 285.27 41.4282C284.371 41.7098 283.473 41.8545 282.582 41.8545H277.779V27.8548V27.8472ZM279.735 40.1264H282.186C283.031 40.1264 283.808 40.0046 284.531 39.7686C285.247 39.5326 285.871 39.19 286.389 38.7409C286.906 38.2917 287.317 37.736 287.607 37.0813C287.896 36.419 288.041 35.6806 288.041 34.8432C288.041 34.0058 287.896 33.2065 287.607 32.5518C287.317 31.8895 286.914 31.3414 286.389 30.8998C285.863 30.4583 285.247 30.1234 284.531 29.8874C283.816 29.659 283.031 29.5448 282.186 29.5448H279.735V40.1264Z" fill="white"/>
<path d="M295.783 41.8469H293.826V27.8472H295.783V41.8469Z" fill="white"/>
<path d="M302.132 40.1111H309.447V41.8544H300.167V27.8547H309.15V29.5752H302.132V33.7698H308.739V35.4522H302.132V40.1187V40.1111Z" fill="white"/>
<path d="M320.006 30.4355C319.732 30.0549 319.351 29.7428 318.879 29.4992C318.407 29.2556 317.867 29.1337 317.281 29.1337C316.961 29.1337 316.641 29.1794 316.322 29.2632C316.002 29.3469 315.705 29.4839 315.438 29.6819C315.172 29.8722 314.959 30.1082 314.799 30.3975C314.632 30.6791 314.555 31.0217 314.555 31.4175C314.555 31.8134 314.632 32.1179 314.784 32.3767C314.936 32.6356 315.142 32.8487 315.4 33.0314C315.659 33.2141 315.964 33.3588 316.306 33.4882C316.649 33.6176 317.03 33.7394 317.425 33.8764C317.897 34.0211 318.385 34.1886 318.872 34.3713C319.359 34.554 319.801 34.7976 320.196 35.1021C320.592 35.4066 320.912 35.7872 321.163 36.2364C321.414 36.6931 321.536 37.2717 321.536 37.9644C321.536 38.6572 321.399 39.3195 321.133 39.8524C320.859 40.3853 320.501 40.8268 320.052 41.177C319.603 41.5272 319.085 41.786 318.499 41.9611C317.913 42.1362 317.311 42.2199 316.687 42.2199C315.804 42.2199 314.951 42.0448 314.129 41.7023C313.307 41.3597 312.622 40.8496 312.081 40.1797L313.604 38.8932C313.931 39.3804 314.373 39.7763 314.928 40.0808C315.484 40.3853 316.086 40.5375 316.725 40.5375C317.052 40.5375 317.387 40.4918 317.715 40.4005C318.042 40.3091 318.347 40.1645 318.613 39.9666C318.887 39.7686 319.1 39.525 319.275 39.2281C319.443 38.9313 319.534 38.5735 319.534 38.1471C319.534 37.7208 319.443 37.3707 319.268 37.089C319.093 36.8073 318.849 36.5637 318.544 36.3658C318.24 36.1679 317.89 36.0004 317.486 35.8633C317.083 35.7263 316.656 35.5817 316.207 35.437C315.758 35.3076 315.317 35.1478 314.883 34.9498C314.449 34.7595 314.061 34.5159 313.718 34.219C313.375 33.9221 313.101 33.5567 312.888 33.1228C312.675 32.6889 312.568 32.1484 312.568 31.5013C312.568 30.8009 312.713 30.1995 312.995 29.7047C313.276 29.2023 313.65 28.7912 314.099 28.4562C314.555 28.1289 315.065 27.8853 315.644 27.733C316.215 27.5808 316.794 27.5046 317.372 27.5046C318.187 27.5046 318.956 27.6493 319.664 27.9386C320.379 28.2278 320.95 28.6161 321.384 29.1033L319.998 30.4507L320.006 30.4355Z" fill="white"/>
</g>
<defs>
<clipPath id="clip0_468_18380">
<rect width="321.529" height="50" fill="white"/>
</clipPath>
</defs>
</svg>
