<svg width="692" height="157" viewBox="0 0 692 157" fill="none" xmlns="http://www.w3.org/2000/svg">
<g clip-path="url(#clip0_173_990)">
<g filter="url(#filter0_d_173_990)">
<path d="M31.9445 103.783C31.9445 106.005 26.8505 108.003 25.2274 108.677C24.2785 109.002 24.2286 109.276 24.0787 111.624C23.9539 113.097 23.9539 118.54 23.9539 118.865C23.9539 119.265 23.9539 120.064 24.5532 120.064C24.7529 120.064 30.2465 117.791 31.3202 117.392C37.9624 114.92 40.9838 114.72 42.7318 114.72C47.626 114.72 53.0696 118.54 53.0696 124.858C53.0696 133.698 43.7556 137.743 38.2371 137.743C34.4166 137.743 31.3202 135.795 31.3202 132.324C31.3202 129.178 34.067 127.03 34.6663 127.03C34.866 127.03 34.9909 127.23 34.9909 127.355C34.9909 127.555 34.866 127.68 34.7162 127.879C34.5165 128.154 34.1169 128.678 34.1169 129.702C34.1169 132.923 37.8126 132.923 38.4868 132.923C42.9066 132.923 48.5499 129.977 48.5499 124.608C48.5499 119.839 45.0041 117.242 42.1075 117.242C40.2347 117.242 36.0646 118.116 28.2239 122.261C24.4783 124.284 24.0538 124.483 24.0538 125.607C24.0538 126.331 24.2535 129.353 24.2535 130.027C24.2535 133.123 23.2547 137.543 20.8326 137.543C19.0347 137.543 18.2855 136.145 17.7362 135.071C15.5887 130.901 15.2641 130.901 14.3901 130.901C13.7908 130.901 13.1166 131.176 12.7171 131.3C12.3176 131.5 10.6445 132.649 10.1701 132.649C9.42098 132.649 6 130.626 6 128.429C6 127.23 6.74912 125.807 7.94771 125.807C8.34724 125.807 10.2949 126.131 10.6945 126.131C12.4924 126.131 13.7159 125.807 17.6613 123.859C21.0823 122.186 21.4818 121.986 21.4818 120.114C21.4818 118.565 21.4069 112.872 21.3569 111.723C21.3569 111.249 21.1572 110.25 20.4081 110.25C19.609 110.25 17.7362 110.725 17.3117 110.849C13.8907 111.998 13.5661 112.123 12.5423 112.123C10.27 112.123 7.72297 107.503 7.72297 107.029C7.72297 106.704 7.99765 106.554 8.24736 106.554C8.44712 106.554 9.24618 106.829 9.44595 106.829C10.6445 107.029 11.6683 107.154 12.5423 107.154C14.9645 107.154 20.6578 105.556 21.0573 105.131C21.3819 104.657 21.7315 98.5639 21.7315 97.8148C21.7315 95.7422 21.4069 94.3938 19.5091 92.4461C19.3843 92.3212 18.5602 91.4972 18.5602 91.3723C18.5602 90.773 19.634 90.6482 20.0335 90.6482C24.5282 90.6482 26.9504 93.9443 26.9504 95.2178C26.9504 95.8171 25.6769 98.2393 25.552 98.7137C25.4771 99.1881 24.8778 101.86 24.8778 103.084C24.8778 103.358 25.0026 103.808 25.4022 103.808C25.8766 103.808 27.7494 103.084 27.7494 102.135C27.7494 102.01 27.4248 101.336 27.4248 101.186C27.4248 101.111 27.5496 100.986 27.6995 100.911C28.6484 100.786 31.8696 101.71 31.8696 103.783H31.9445ZM16.6625 129.478C16.6625 130.476 18.4603 132.624 19.4841 132.624C20.433 132.624 21.3569 130.751 21.3569 127.455C21.3569 127.18 21.3569 126.506 21.1572 126.381C20.9574 126.381 16.6625 128.529 16.6625 129.453V129.478ZM60.7106 108.627C60.7106 110.025 59.9116 111.848 58.4883 111.848C58.0887 111.848 56.5405 111.723 56.2159 111.723C55.8913 111.798 54.468 112.198 54.2183 112.198C54.0934 112.198 53.8937 112.123 53.8937 111.873C53.8937 111.748 54.0934 111.399 54.0934 111.349C54.2183 110.949 54.3681 110.625 54.3681 110.15C54.3681 107.478 51.022 106.53 48.7247 106.53C47.651 106.53 47.0517 106.804 46.1028 107.204C45.8281 107.329 45.6284 107.403 45.4286 107.403C45.2288 107.403 45.1539 107.329 45.1539 107.129C45.1539 106.654 47.9756 102.909 52.3954 102.909C57.5643 102.909 60.7106 105.581 60.7106 108.677V108.627Z" fill="white" stroke="white" stroke-width="1.4" stroke-miterlimit="10"/>
<path d="M64.4563 89.2248C64.3314 89.025 64.1816 88.9002 64.1816 88.7504C64.1816 88.6755 64.3065 88.6255 64.4563 88.6255C64.9307 88.6255 66.9284 88.8253 67.4028 88.8253C70.6989 89.025 73.4457 89.1 76.592 89.1H92.0738C93.0726 89.1 93.2724 89.1 94.3461 87.7016C95.4198 86.1534 95.5447 86.0286 96.144 86.0286C97.018 86.0286 101.163 89.2498 101.163 89.9739C101.163 90.8479 99.7647 90.8479 97.6173 90.8479H94.1963C92.3734 90.8479 92.1737 91.7968 92.1737 93.0703C92.1737 96.8908 91.9739 113.796 91.9739 117.217C91.9739 130.351 91.9739 131.775 92.0488 134.397C92.0488 135.271 92.2486 139.216 92.2486 140.04C92.2486 140.914 92.2486 145.009 88.8276 145.009C87.0047 145.009 87.0048 143.736 87.0048 142.937C87.0048 142.412 87.2045 140.065 87.2045 139.591C87.3294 137.168 87.4792 134.696 87.4792 131.475C87.4792 126.581 87.4792 126.032 85.931 126.032C84.5327 126.032 72.9213 130.601 70.6989 131.925C70.0996 132.324 67.8273 134.671 67.203 134.671C66.404 134.671 63.7072 128.978 63.7072 127.904C63.7072 127.38 63.9818 127.38 66.379 127.305C71.3981 127.23 72.0723 125.907 72.347 124.758C72.6217 123.41 72.6716 102.359 72.6716 99.8124C72.6716 98.2642 72.5967 93.5198 72.5967 93.0453C72.5218 92.3711 72.5967 90.9727 70.7738 90.9727C70.1745 90.9727 66.7536 91.2474 66.2791 91.2474C66.0045 91.2474 65.8796 91.1226 65.6798 90.8479L64.3314 89.2997L64.4563 89.2248ZM78.9392 114.72C77.0664 114.72 77.0664 115.794 77.0664 118.216C77.0664 124.458 77.0664 125.457 79.2888 125.457C80.1628 125.457 84.5826 124.783 86.0559 124.059C87.3294 123.46 87.654 122.785 87.654 117.417C87.654 115.819 87.5791 114.745 85.6314 114.745H78.9143L78.9392 114.72ZM79.139 90.8479C77.1164 90.8479 77.1164 91.1725 77.1164 97.2903C77.1164 100.112 77.1164 100.986 78.9892 100.986H85.956C87.7788 100.986 87.7788 100.711 87.7788 94.7433C87.7788 91.647 87.5791 90.8479 85.7063 90.8479H79.139ZM85.6314 112.972C87.7788 112.972 87.7788 112.647 87.7788 106.804C87.7788 103.658 87.7788 102.784 85.956 102.784H79.0391C77.0914 102.784 77.0914 102.909 77.0914 110.575C77.0914 112.647 77.8405 112.997 78.9143 112.997H85.6314V112.972ZM96.2938 92.7207C96.0191 92.3961 95.9692 92.3961 95.9692 92.2463C95.9692 92.0964 96.0941 92.1214 96.2439 92.1214C96.7183 92.1214 98.7909 92.3212 99.1904 92.3212C104.684 92.5958 106.507 92.5958 108.38 92.5958H113.948C114.822 92.5958 116.021 92.5958 117.444 90.8479C117.918 90.3235 118.118 90.1737 118.518 90.1737C119.242 90.1737 124.161 92.7207 124.161 93.9193C124.161 94.3937 124.036 94.4437 123.212 95.0679C122.064 96.0168 121.339 98.6138 120.865 100.287C117.843 111.349 116.77 113.621 114.148 119.14C113.424 120.688 113.149 121.412 113.149 122.086C113.149 124.084 117.843 130.601 123.737 134.971C124.336 135.445 127.682 137.593 127.682 137.793C127.682 138.192 124.186 138.467 123.512 138.742C122.838 139.016 122.113 139.466 121.239 140.29C120.965 140.564 120.715 140.814 120.44 140.814C118.892 140.814 113.399 131.975 111.726 129.153C111.002 128.004 110.527 127.205 109.978 127.205C109.503 127.205 109.378 127.405 107.83 129.353C99.6399 139.74 94.1463 141.813 93.9466 141.813C93.622 141.813 93.3473 141.613 93.3473 141.214C93.3473 140.939 97.1678 137.318 97.9169 136.594C98.716 135.645 107.031 125.857 107.031 122.186C107.031 121.037 103.61 111.798 103.211 109.776C102.536 106.48 101.937 101.186 101.338 97.9146C100.863 95.043 100.264 94.6934 99.2653 94.6934C99.1405 94.6934 98.3164 94.8182 98.1916 94.8182C97.9169 94.8182 97.7921 94.6185 97.5923 94.3438L96.3188 92.7457L96.2938 92.7207ZM108.305 94.4686C103.286 94.4686 102.661 94.4686 102.661 96.691C102.661 101.111 107.955 116.817 109.778 116.817C111.326 116.817 116.071 100.711 116.071 96.4913C116.071 94.4936 114.123 94.4936 112.924 94.4936H108.305V94.4686Z" fill="white" stroke="white" stroke-width="1.4" stroke-miterlimit="10"/>
<path d="M154.95 98.8136C149.256 98.8136 143.888 108.203 143.888 115.319C143.888 117.467 144.212 118.665 144.762 120.288C145.236 121.562 145.361 122.111 145.361 122.835C145.361 125.058 143.563 125.257 142.939 125.257C139.867 125.257 138.369 119.689 138.369 114.395C138.369 110.974 138.894 107.428 139.568 103.733C140.517 98.2393 140.567 96.766 140.567 95.1429C140.567 92.7957 140.167 91.7968 139.693 90.9978C139.568 90.7231 138.544 89.3997 138.544 89.2498C138.544 89.1 139.343 88.7754 140.367 88.7754C143.438 88.7754 145.536 91.4472 145.536 93.2701C145.536 94.0692 144.337 97.4901 144.137 98.2393C144.013 98.7636 142.664 104.881 142.664 106.554C142.664 106.754 142.664 107.503 143.189 107.503C143.513 107.503 143.938 106.704 144.387 105.83C145.111 104.357 149.681 95.917 156.723 95.917C160.868 95.917 165.363 98.1394 165.363 112.223C165.363 121.687 163.49 132.399 150.755 139.99C148.083 141.588 146.185 142.213 145.935 142.213C145.811 142.213 145.661 142.138 145.661 142.013C145.661 141.813 145.786 141.688 147.334 140.539C158.321 132.224 160.343 124.433 160.343 110.775C160.343 103.408 158.995 98.9135 154.925 98.9135L154.95 98.8136Z" fill="white" stroke="white" stroke-width="1.4" stroke-miterlimit="10"/>
<path d="M197.125 100.561C196.326 100.561 194.903 100.561 194.903 102.359V113.696C194.903 114.17 194.903 115.169 195.852 115.169C196.526 115.169 204.042 111.224 204.492 111.224C204.566 111.224 204.766 111.299 204.766 111.424C204.766 112.023 199.547 115.844 198.324 116.643C195.103 118.865 194.978 118.99 194.978 120.388C194.978 123.06 195.377 136.07 195.377 137.218C195.377 144.809 190.758 145.009 190.358 145.009C190.083 145.009 189.484 145.009 188.96 144.41C186.887 141.938 186.613 141.663 185.414 140.914C184.615 140.44 184.14 139.965 184.14 139.715C184.14 139.391 184.74 139.391 184.89 139.391C185.289 139.391 187.512 139.466 188.036 139.466C190.982 139.466 190.982 138.791 190.982 134.896C190.982 133.298 190.858 125.307 190.858 123.485C190.858 122.611 190.133 122.536 189.984 122.536C189.709 122.536 185.564 125.207 184.964 125.682C184.69 125.957 183.416 127.63 182.967 127.63C181.494 127.63 179.746 121.337 179.746 121.062C179.746 120.738 180.42 120.738 180.944 120.738C183.616 120.738 189.534 118.066 189.934 117.841C190.733 117.317 190.733 116.767 190.733 114.295C190.733 112.697 190.658 104.507 190.658 102.684C190.658 101.086 190.183 100.537 188.435 100.537C187.087 100.537 184.016 100.661 182.742 100.736C182.542 100.736 181.593 100.861 181.344 100.861C181.144 100.861 181.019 100.736 180.744 100.462L179.471 98.9134C179.271 98.7136 179.196 98.5888 179.196 98.439C179.196 98.2891 179.321 98.3141 179.396 98.3141C179.721 98.3141 181.469 98.5139 181.818 98.5139C183.167 98.5888 187.586 98.7886 188.935 98.7886C190.683 98.7886 190.683 97.9146 190.683 94.8432C190.683 91.2225 190.483 88.3508 190.283 87.2022C190.283 86.9275 189.609 85.4542 189.609 85.1296C189.609 84.4554 190.009 84.3306 190.483 84.3306C190.883 84.3306 197.125 86.0036 197.125 87.6267C197.125 88.0262 195.527 89.3746 195.327 89.7742C195.252 90.0988 195.003 95.4675 195.003 97.2903C195.003 98.7636 195.877 98.8385 196.601 98.8385C197.275 98.8385 197.799 98.5139 198.349 97.6399C199.697 95.5674 199.822 95.2927 200.371 95.2927C200.696 95.2927 205.665 98.7886 205.665 99.7125C205.665 100.586 205.191 100.586 201.046 100.586H197.225L197.125 100.561ZM231.26 107.403C232.259 107.403 232.933 106.929 233.408 106.255C234.082 105.256 234.406 104.707 235.006 104.707C235.755 104.707 239.026 108.327 239.026 109.076C239.026 109.551 238.826 109.601 237.353 110.35C236.878 110.625 236.679 111.549 236.479 112.173C235.53 115.519 233.932 121.087 231.11 125.307C228.963 128.454 228.763 128.928 228.763 129.602C228.763 131.75 236.404 137.793 239.425 139.391C241.773 140.589 241.972 140.739 241.972 141.139C241.972 141.413 241.373 141.413 241.024 141.463C239.226 141.588 237.927 141.663 237.203 141.938C236.729 142.063 234.731 143.486 234.182 143.486C233.308 143.486 228.963 138.392 227.814 137.044C225.667 134.422 225.467 134.172 224.868 134.172C224.069 134.172 221.172 137.243 220.498 137.793C212.982 144.035 207.014 145.434 206.489 145.584C206.289 145.584 206.165 145.584 206.165 145.384C206.165 145.184 210.11 142.562 210.934 142.038C218.775 136.344 222.071 131.051 222.071 130.177C222.071 129.652 221.946 129.378 220.872 127.28C216.777 119.364 216.103 114.545 214.705 103.009C214.63 102.409 214.63 102.284 214.38 102.284C214.055 102.284 213.98 102.559 213.98 102.809C211.633 119.115 207.538 128.354 206.389 131.051C203.168 138.292 197.475 145.059 196.526 145.059C196.401 145.059 196.326 144.984 196.326 144.859C196.326 144.585 197.724 142.188 198.074 141.563C207.138 126.681 210.36 102.259 210.36 92.4211C210.36 90.5982 208.961 90.5982 208.412 90.5982C207.813 90.5982 204.791 90.9228 204.392 90.9228C204.117 90.9228 203.992 90.723 203.792 90.4484L202.444 88.9002C202.319 88.7004 202.169 88.5756 202.169 88.4257C202.169 88.2759 202.294 88.3009 202.444 88.3009C202.843 88.3009 204.866 88.5007 205.316 88.5007C207.263 88.6255 210.759 88.7753 214.58 88.7753H222.895C223.369 88.7753 223.894 88.7753 224.493 88.4507C224.768 88.3259 225.642 87.2521 225.966 87.2521C226.965 87.7266 231.135 90.1987 231.135 91.1975C231.135 91.597 230.811 91.8717 230.661 91.9965C229.587 92.7207 229.512 92.7956 229.312 92.9954C228.438 93.9443 227.365 105.481 227.365 106.08C227.365 106.879 227.839 107.428 228.713 107.428H231.26V107.403ZM228.588 109.226C227.789 109.226 227.39 109.226 226.84 110.3C226.441 111.249 225.966 112.248 223.619 112.248C223.02 112.248 221.746 112.048 221.746 110.7C221.746 109.826 222.545 106.28 222.695 105.531C223.444 100.836 224.243 92.3961 224.243 92.1963C224.243 90.6481 223.045 90.5233 222.021 90.5233H217.401C215.129 90.5233 215.129 91.7219 215.129 92.9954C215.129 110.774 223.444 125.183 225.442 125.183C227.589 125.183 232.009 112.922 232.009 110.824C232.009 109.676 231.06 109.226 229.987 109.226H228.588Z" fill="white" stroke="white" stroke-width="1.4" stroke-miterlimit="10"/>
<path d="M256.98 103.383C256.98 103.908 256.855 104.132 256.181 106.055C255.232 108.677 254.583 111.149 254.583 114.695C254.583 121.462 258.078 126.356 260.151 126.356C261.3 126.356 261.549 126.032 263.572 122.661C263.972 121.986 265.12 120.388 265.645 120.388C265.844 120.388 265.969 120.663 265.969 120.913C265.969 121.162 265.844 122.061 265.769 122.261C265.045 125.357 264.895 125.957 264.895 127.355C264.895 128.504 265.095 129.378 265.295 130.027C265.495 130.751 265.819 131.9 265.819 132.249C265.819 133.598 264.421 134.322 263.272 134.322C258.977 134.322 250.537 127.28 250.537 114.47C250.537 112.597 251.486 104.357 251.486 102.609C251.486 101.261 251.212 99.4629 251.012 98.7138C250.537 97.0407 250.487 96.841 250.487 96.4414C250.487 96.2417 250.762 96.1667 250.887 96.1667C253.958 96.1667 256.98 101.535 256.98 103.333V103.383ZM289.716 104.931C293.137 107.678 295.684 112.448 295.684 117.741C295.684 119.015 295.559 122.161 292.338 122.161C289.117 122.161 289.042 118.54 289.042 117.666C289.042 112.098 289.042 109.276 285.496 105.73C284.972 105.206 282.275 103.109 282.275 102.709C282.275 102.509 282.55 102.384 282.874 102.384C282.949 102.384 286.82 102.584 289.716 104.931Z" fill="white" stroke="white" stroke-width="1.4" stroke-miterlimit="10"/>
<path d="M316.684 107.603C309.768 107.603 306.821 102.434 306.821 101.161C306.821 100.836 306.896 100.562 307.345 100.562C307.62 100.562 308.744 101.161 310.092 101.835C312.315 102.909 314.862 103.658 317.009 103.658C319.556 103.658 324.126 102.459 324.126 101.386C324.126 100.786 321.903 99.2381 321.054 98.6388C319.231 97.3653 316.759 95.093 316.759 93.1453C316.759 90.9978 318.557 89.9241 320.105 89.9241C321.504 89.9241 322.178 90.3236 325.274 92.1465C326.148 92.6708 327.946 93.6946 331.567 93.6946C332.366 93.6946 335.787 93.6197 336.536 93.6946C338.808 93.8944 338.808 95.917 338.808 96.1168C338.808 97.8647 335.662 100.262 334.713 100.811C332.89 101.96 332.691 102.085 332.691 102.559C332.691 103.034 333.09 103.508 333.49 103.833C336.986 106.929 345.775 114.695 345.775 121.537C345.775 126.032 341.755 126.032 341.355 126.032C340.157 126.032 339.682 125.757 335.662 123.559C333.115 122.161 328.82 120.064 324.276 120.064C317.758 120.064 314.887 125.357 314.887 127.854C314.887 132.149 319.107 133.822 324.8 133.822C325.949 133.822 331.642 133.223 331.767 133.223C333.989 133.023 335.063 134.696 335.063 135.845C335.063 139.391 328.62 139.391 327.422 139.391C321.853 139.391 318.907 138.442 316.635 137.318C313.214 135.645 310.866 132.299 310.866 129.003C310.866 122.361 317.708 118.341 325.149 118.341C326.748 118.341 328.695 118.465 332.391 119.539C336.561 120.738 336.961 120.888 337.884 120.888C338.609 120.888 340.232 120.563 340.232 118.74C340.232 114.37 331.317 104.382 329.37 104.382C328.97 104.382 322.253 106.854 320.855 107.204C318.832 107.678 316.959 107.678 316.684 107.678V107.603ZM328.496 99.6876C328.895 99.6876 330.968 99.0134 330.968 97.5401C330.968 96.6661 330.768 96.4664 328.62 95.1929C324.201 92.521 323.651 92.2463 322.927 92.2463C322.453 92.2463 321.654 92.571 321.654 93.4449C321.654 95.043 324.076 96.9908 324.6 97.3903C325.549 98.1144 327.622 99.6626 328.496 99.6626V99.6876Z" fill="white" stroke="white" stroke-width="1.4" stroke-miterlimit="10"/>
<path d="M397.514 99.0882C397.04 103.583 396.99 104.057 396.99 104.457C396.99 104.782 397.514 104.782 397.714 104.782C397.989 104.782 400.336 104.507 400.86 104.507C402.334 104.382 402.933 104.307 402.933 103.558C402.933 103.158 402.808 103.034 401.585 101.885C401.46 101.81 401.31 101.61 401.31 101.485C401.31 101.211 401.709 101.211 401.834 101.211C402.508 101.211 405.58 102.085 406.654 102.409C410.874 103.608 411.872 104.682 411.872 106.03C411.872 107.778 409.925 108.252 408.576 108.252C407.228 108.252 401.41 107.528 400.186 107.528C396.291 107.528 396.241 107.653 395.816 111.149C394.543 121.062 390.922 124.483 388.5 124.483C386.228 124.483 385.953 123.734 385.354 121.811C385.029 120.813 384.48 119.664 384.08 118.865C383.955 118.665 383.206 117.666 383.206 117.467C383.206 117.342 383.406 117.342 383.531 117.342C384.28 117.342 387.276 118.54 387.901 118.54C389.049 118.54 389.723 117.866 390.173 116.792C391.322 114.37 392.121 109.826 392.121 109.151C392.121 108.627 392.121 108.277 391.122 108.277C389.724 108.277 377.588 110.949 376.714 112.448C376.239 113.247 376.189 113.921 376.115 115.194C376.04 117.417 375.915 123.509 375.915 123.709C375.915 130.002 377.113 133.173 386.502 133.173C387.851 133.173 390.123 133.098 392.395 132.649C392.67 132.574 394.668 132.174 395.617 132.174C397.489 132.174 399.237 133.573 399.237 135.071C399.237 138.217 393.144 138.217 391.596 138.217C372.419 138.217 372.419 132.849 372.419 120.113C372.419 114.47 372.419 113.821 371.22 113.821C370.072 113.821 365.452 115.893 364.453 115.893C362.98 115.893 357.536 114.62 357.536 110.924C357.536 110.05 357.811 109.975 358.41 109.975C359.085 109.975 361.906 110.25 362.506 110.25C366.676 110.25 369.872 109.726 371.02 109.301C372.094 108.977 372.169 108.352 372.169 105.88C372.169 102.259 371.845 100.586 371.095 98.8385C370.896 98.3141 369.547 95.9419 369.547 95.6922C369.547 95.0929 370.696 94.7433 371.495 94.7433C373.093 94.7433 377.263 96.6161 377.263 98.9634C377.263 99.3629 377.138 100.037 376.939 101.036C376.939 101.111 376.614 103.109 376.614 106.205C376.614 107.603 376.614 108.153 377.488 108.153C377.962 108.153 386.402 106.28 388.15 106.005C392.32 105.331 392.77 105.256 393.045 103.858C393.244 102.509 393.369 99.288 393.369 98.414C393.369 96.3914 393.169 94.9181 392.57 93.7945C392.495 93.7195 391.297 91.4472 391.297 91.3224C391.297 90.6482 392.445 90.5732 392.77 90.5732C396.865 90.5732 398.463 93.8694 398.463 95.2677C398.463 95.3926 397.514 98.4889 397.464 99.0882H397.514Z" fill="white" stroke="white" stroke-width="1.4" stroke-miterlimit="10"/>
<path d="M424.907 100.836C427.804 100.836 428.803 100.561 437.992 97.9645C443.96 96.2915 459.242 91.9216 463.736 91.9216C466.084 91.9216 469.105 92.8705 469.105 95.1428C469.105 96.8908 467.357 97.6149 466.433 97.6149C465.559 97.6149 461.739 96.8908 460.94 96.8908C452.425 96.8908 442.911 104.732 442.911 122.036C442.911 133.298 447.131 134.047 451.101 134.047C452.1 134.047 456.944 133.648 457.469 133.648C459.541 133.648 460.815 134.522 460.815 136.12C460.815 139.665 453.449 139.665 453.024 139.665C439.29 139.665 439.29 128.479 439.29 125.307C439.29 122.361 439.365 108.128 449.079 99.4877C449.353 99.288 450.677 98.2142 450.677 98.0894C450.677 97.9645 450.402 97.9645 450.277 97.9645C446.457 97.9645 432.498 103.933 430.351 105.131C429.402 105.655 428.753 106.005 428.004 106.005C424.657 106.005 421.486 101.51 422.31 100.561C422.585 100.237 424.583 100.836 424.932 100.836H424.907Z" fill="white" stroke="white" stroke-width="1.4" stroke-miterlimit="10"/>
<path d="M494.9 86.7527C496.498 86.7527 503.14 90.1737 503.14 92.6458C503.14 94.4686 485.161 111.823 485.161 114.695C485.161 115.843 485.686 116.842 487.159 118.39C493.127 124.883 502.241 134.746 502.241 139.391C502.241 141.613 500.768 142.537 499.37 142.537C497.297 142.537 496.897 141.264 495.474 137.318C493.402 131.425 486.085 122.486 484.337 120.363C482.265 117.816 481.715 116.817 481.715 115.394C481.715 113.571 482.589 111.573 487.134 105.88C493.776 97.565 496.248 94.0691 496.248 91.597C496.248 90.1986 495.649 89.1748 494.575 87.7016C494.375 87.377 494.251 87.1023 494.375 86.9025C494.45 86.7777 494.65 86.7777 494.85 86.7777L494.9 86.7527Z" fill="white" stroke="white" stroke-width="1.4" stroke-miterlimit="10"/>
<path d="M524.939 130.801C531.856 117.716 533.779 106.18 533.779 106.13C533.779 105.456 533.504 105.456 531.357 105.456C529.959 105.456 527.611 105.381 525.389 104.257C523.242 103.183 521.893 101.311 521.893 100.636C521.893 100.437 522.093 100.362 522.168 100.362C522.442 100.362 523.441 100.886 523.716 100.961C524.715 101.286 527.462 101.71 529.684 101.71C530.683 101.71 533.904 101.585 534.453 101.111C535.003 100.636 535.177 96.0916 535.177 95.6172C535.177 95.0928 535.177 92.7955 534.378 91.4471C534.104 91.1225 532.506 89.4245 532.506 88.975C532.506 88.3008 533.779 87.4268 535.527 87.4268C538.548 87.4268 540.896 90.1736 540.896 90.9727C540.896 91.2973 540.147 92.6457 540.147 92.9703C540.147 94.2438 545.515 95.3925 546.189 95.3925C546.464 95.3925 547.937 95.2676 548.262 95.2676C548.786 95.2676 550.484 95.2676 550.484 97.3402C550.484 101.086 544.791 103.033 540.371 104.257C538.099 104.856 537.824 104.931 537.55 106.13C534.129 120.763 534.054 120.813 532.655 125.182C528.036 139.141 525.614 139.141 524.34 139.141C522.742 139.141 522.517 136.919 522.517 136.194C522.517 135.395 522.842 134.721 524.939 130.826V130.801ZM539.098 100.162C539.422 100.162 544.516 98.339 544.516 97.49C544.516 96.8158 540.896 95.3425 540.147 95.3425C539.747 95.3425 539.547 95.4674 539.397 96.1416C539.123 97.49 539.123 97.6898 538.798 99.2879C538.723 99.7623 538.673 100.162 539.073 100.162H539.098ZM544.192 128.603C545.59 134.447 552.832 135.72 557.926 135.72C559.074 135.72 564.168 135.246 565.242 135.246C567.514 135.246 570.611 136.394 570.611 138.592C570.611 140.464 568.139 140.864 562.42 140.864C551.558 140.864 542.494 138.117 542.494 129.652C542.494 128.104 542.893 126.706 543.443 126.706C543.717 126.706 544.117 128.379 544.192 128.578V128.603ZM558.999 105.256C565.367 105.256 570.211 107.129 570.211 110.075C570.211 111.673 568.813 111.673 568.264 111.673C567.664 111.673 565.042 111.474 564.518 111.474C563.319 111.474 562.296 111.474 559.549 112.547C557.876 113.147 557.202 113.421 556.727 113.421C556.602 113.421 556.402 113.421 556.402 113.221C556.402 112.747 559.898 110.2 559.898 109.476C559.898 108.477 555.129 108.402 554.13 108.402C552.657 108.402 550.834 108.477 549.311 108.677C548.911 108.752 547.363 108.952 547.088 108.952C546.889 108.952 546.564 108.952 546.489 108.827C546.015 107.953 551.858 105.281 559.024 105.281L558.999 105.256ZM569.937 97.8146C569.937 98.8884 568.988 100.362 567.864 100.362C566.915 100.362 566.391 99.8872 564.443 97.2653C563.294 95.7171 562.695 95.2676 559.873 93.1201C559.599 92.9204 558.925 92.3211 558.925 92.0464C558.925 91.7717 559.524 91.522 560.123 91.522C566.091 91.522 569.912 95.4174 569.912 97.8146H569.937ZM576.853 93.3948C576.853 94.2688 576.254 95.3925 575.105 95.3925C573.632 95.3925 572.833 94.119 571.759 92.5708C570.885 91.2973 568.338 89.3496 566.191 88.3508C565.517 88.0261 565.392 87.7515 565.392 87.5517C565.392 86.9524 566.94 86.9524 567.939 86.9524C570.211 86.9524 576.853 88.9001 576.853 93.3948Z" fill="white" stroke="white" stroke-width="1.4" stroke-miterlimit="10"/>
<path d="M595.631 107.603C588.714 107.603 585.768 102.434 585.768 101.161C585.768 100.836 585.843 100.562 586.292 100.562C586.567 100.562 587.691 101.161 589.039 101.835C591.261 102.909 593.808 103.658 595.956 103.658C598.503 103.658 603.072 102.459 603.072 101.386C603.072 100.786 600.85 99.2381 599.976 98.6388C598.178 97.3653 595.681 95.093 595.681 93.1453C595.681 90.9978 597.504 89.9241 599.027 89.9241C600.426 89.9241 601.1 90.3236 604.196 92.1465C605.07 92.6708 606.868 93.6946 610.489 93.6946C611.288 93.6946 614.709 93.6197 615.458 93.6946C617.73 93.8944 617.73 95.917 617.73 96.1168C617.73 97.8647 614.584 100.262 613.635 100.811C611.837 101.96 611.637 102.085 611.637 102.559C611.637 103.034 612.037 103.508 612.436 103.833C615.932 106.929 624.697 114.695 624.697 121.537C624.697 126.032 620.677 126.032 620.277 126.032C619.079 126.032 618.604 125.757 614.584 123.559C612.037 122.161 607.742 120.064 603.172 120.064C596.68 120.064 593.783 125.357 593.783 127.854C593.783 132.149 598.003 133.822 603.697 133.822C604.845 133.822 610.539 133.223 610.664 133.223C612.886 133.023 613.96 134.696 613.96 135.845C613.96 139.391 607.517 139.391 606.319 139.391C600.75 139.391 597.804 138.442 595.531 137.318C592.11 135.645 589.763 132.299 589.763 129.003C589.763 122.361 596.605 118.341 604.046 118.341C605.644 118.341 607.592 118.465 611.288 119.539C615.458 120.738 615.857 120.888 616.781 120.888C617.53 120.888 619.129 120.563 619.129 118.74C619.129 114.37 610.214 104.382 608.266 104.382C607.867 104.382 601.15 106.854 599.751 107.204C597.729 107.678 595.856 107.678 595.581 107.678L595.631 107.603ZM607.442 99.6876C607.842 99.6876 609.914 99.0134 609.914 97.5401C609.914 96.6661 609.715 96.4664 607.567 95.1929C603.147 92.521 602.598 92.2463 601.874 92.2463C601.399 92.2463 600.6 92.571 600.6 93.4449C600.6 95.043 603.023 96.9908 603.547 97.3903C604.496 98.1144 606.568 99.6626 607.442 99.6626V99.6876Z" fill="white" stroke="white" stroke-width="1.4" stroke-miterlimit="10"/>
<path d="M647.296 103.383C647.296 103.908 647.171 104.132 646.497 106.055C645.548 108.677 644.898 111.149 644.898 114.695C644.898 121.462 648.394 126.356 650.467 126.356C651.615 126.356 651.865 126.032 653.888 122.661C654.287 121.986 655.436 120.388 655.96 120.388C656.16 120.388 656.285 120.663 656.285 120.913C656.285 121.162 656.16 122.061 656.085 122.261C655.361 125.357 655.211 125.957 655.211 127.355C655.211 128.504 655.411 129.378 655.611 130.027C655.811 130.751 656.135 131.9 656.135 132.249C656.135 133.598 654.737 134.322 653.588 134.322C649.293 134.322 640.853 127.28 640.853 114.47C640.853 112.597 641.802 104.357 641.802 102.609C641.802 101.261 641.527 99.4629 641.328 98.7138C640.853 97.0407 640.803 96.841 640.803 96.4414C640.803 96.2417 641.078 96.1667 641.203 96.1667C644.274 96.1667 647.296 101.535 647.296 103.333V103.383ZM680.032 104.931C683.453 107.678 686 112.448 686 117.741C686 119.015 685.875 122.161 682.654 122.161C679.433 122.161 679.358 118.54 679.358 117.666C679.358 112.098 679.358 109.276 675.812 105.73C675.288 105.206 672.591 103.109 672.591 102.709C672.591 102.509 672.866 102.384 673.19 102.384C673.265 102.384 677.135 102.584 680.032 104.931Z" fill="white" stroke="white" stroke-width="1.4" stroke-miterlimit="10"/>
</g>
<g filter="url(#filter1_d_173_990)">
<path d="M18.6294 45.9452C15.381 48.4934 12.1607 50.5937 9.10835 50.5937C6.25203 50.5937 6 47.3453 6 46.2252C6 39.3644 12.1047 32.0556 19.8335 26.735C21.7938 25.3349 22.4378 24.7748 22.4378 20.2663C22.4378 19.2582 22.2418 18.9221 21.0377 18.9221C20.8977 18.9221 18.6294 19.0622 18.1814 19.0622C12.5247 19.0622 10.0605 15.0017 10.0605 14.4136C10.0605 14.0216 10.3125 13.7696 10.8165 13.7696C11.2086 13.7696 13.1128 14.3296 13.4768 14.4136C15.073 14.6097 16.5852 14.6657 17.7893 14.6657C18.9374 14.6657 22.6059 14.6657 22.9979 13.7136C23.3899 12.8175 23.558 9.26107 23.558 9.00904C23.558 8.36497 22.9139 5.14461 22.9139 5.00459C22.9139 4.69656 23.2219 4.61255 23.474 4.61255C23.614 4.61255 29.0746 5.76068 29.0746 7.16083C29.0746 7.21684 28.1225 9.26107 28.0665 9.37308C27.4224 10.7172 27.1704 11.9214 27.1704 12.4814C27.1704 12.9855 27.2264 13.1255 27.9825 13.1255C29.3266 13.1255 35.1513 11.0253 36.3554 11.0253C37.8676 11.0253 39.0157 12.0334 39.0157 13.1255C39.0157 15.1697 36.7194 15.7298 31.3428 17.0739C27.5904 17.97 26.6383 18.2221 26.2743 18.7261C25.9662 19.1742 25.5742 20.9384 25.5742 21.8345C25.5742 23.2906 25.8822 23.4307 26.6663 23.4307C27.1704 23.4307 28.1225 23.2346 28.5145 23.1226C31.5669 22.3665 34.2832 21.9185 36.4394 21.9185C45.7084 21.9185 50.861 28.3312 50.861 36.4521C50.861 50.2296 38.2316 53.786 32.3229 55.3822C31.9309 55.5222 29.4106 56.1383 27.9545 56.1383C27.5624 56.1383 27.3104 55.9983 27.3104 55.6903C27.3104 55.4382 27.8144 55.2422 28.5705 54.9902C41.34 50.6777 46.0445 44.0129 46.0445 36.9002C46.0445 28.8913 40.7239 24.6348 35.5713 24.6348C32.519 24.6348 32.407 25.0268 31.2588 28.7512C30.1667 32.1676 29.1586 33.7638 26.8903 37.3762C26.2463 38.3843 26.1903 38.7204 26.1903 39.6725C26.1903 40.1765 26.3863 42.4728 26.3863 42.9208C26.3863 44.629 25.7422 46.0852 24.3421 46.0852C23.2499 46.0852 22.8299 45.3291 22.3818 44.629C21.9338 43.8729 21.8778 43.7329 21.6818 43.7329C21.5417 43.6769 19.7215 45.1331 18.6294 45.9452ZM21.4857 38.3843C21.7378 37.7402 21.8778 31.0755 21.8778 30.3754C21.8778 29.9834 21.8778 28.9193 21.4297 28.9193C19.0775 28.9193 10.1165 39.5885 10.1165 44.349C10.1165 45.2451 10.4245 45.8612 11.4606 45.7491C13.6169 45.4971 20.6176 40.6806 21.4857 38.3843ZM28.6545 25.6709C25.3502 25.6709 25.3502 27.8271 25.3502 30.0394C25.3502 30.5995 25.3502 33.0917 26.1062 33.0917C27.0584 33.0917 29.6066 28.0792 29.6066 26.427C29.6066 26.371 29.5506 25.9229 29.4106 25.7829C29.2706 25.6429 28.8506 25.6429 28.6545 25.6429V25.6709Z" fill="white" stroke="white" stroke-width="1.4"/>
<path d="M75.9799 9.45693C75.9799 8.50482 75.6718 7.55271 75.0838 6.65661C74.8877 6.34858 73.8796 5.14445 73.8796 4.86441C73.8796 4.10833 75.2238 3.52026 76.4839 3.52026C79.0322 3.52026 80.0403 4.92042 81.0484 6.32058C81.3564 6.76863 82.0005 7.02065 83.9047 7.52471C85.1089 7.83275 87.5171 8.53282 87.5171 10.325C87.5171 12.7333 83.9607 13.8814 78.8082 15.3936C78.2481 15.5896 78.1641 15.7856 77.604 17.9979C76.8479 21.1622 71.3873 42.6406 65.5347 42.6406C63.8265 42.6406 63.5745 41.4925 63.5745 40.8764C63.5745 39.9803 63.7705 39.6723 65.6747 36.928C72.5915 26.7629 74.4397 16.5417 74.4397 16.2337C74.4397 15.6736 73.9916 15.5896 73.0395 15.5336C65.5347 14.8895 65.5347 10.465 65.5347 10.381C65.5347 10.129 65.5907 9.62495 65.9827 9.62495C66.2348 9.62495 66.4308 9.68095 67.6909 10.437C68.391 10.8851 70.1552 11.7812 72.5915 11.7812C72.7315 11.7812 74.9437 11.7812 75.3918 11.3891C75.8398 10.9971 75.9518 9.98899 75.9518 9.42892L75.9799 9.45693ZM94.2659 49.1934C93.4538 54.71 88.6093 56.1101 85.3049 56.1101C79.2842 56.1101 75.7278 51.9097 75.7278 48.7453C75.7278 44.6289 80.2363 42.4726 85.949 42.4726C86.453 42.4726 88.8053 42.5846 89.2533 42.5846C89.8134 42.5846 90.1494 42.5286 90.1494 41.8846C90.1494 40.9324 89.8974 36.676 89.8974 35.7799C89.8974 28.8071 90.2894 25.4187 95.61 22.3944C99.5585 20.0981 99.9785 19.9301 99.9785 18.2779C99.9785 16.8778 98.5784 15.4216 98.2143 15.0296C97.6543 14.5255 97.4022 14.2735 97.4022 14.0214C97.4022 13.8254 97.5983 13.7134 97.8503 13.7134C98.2983 13.7134 100.259 14.2735 101.603 14.8055C105.971 16.4577 106.251 20.3221 106.251 21.2742C106.251 23.6825 104.543 24.5786 103.255 24.5786C103.199 24.5786 102.443 24.5786 101.799 24.3266C99.3905 23.4305 99.1384 23.3185 98.3824 23.3185C96.8702 23.3185 94.77 24.2146 93.7338 25.2227C92.2777 26.6228 92.2217 28.9191 92.2217 30.4873C92.2217 32.0555 92.8657 41.9126 94.77 43.2567C95.33 43.7048 98.3263 44.7129 98.8864 45.0209C100.231 45.721 103.899 47.7652 103.899 50.0895C103.899 51.1816 103.451 52.3017 102.191 52.3017C101.547 52.3017 101.183 52.1057 100.231 51.2936C98.5224 49.7814 95.582 47.7932 94.7139 48.1853C94.4619 48.3253 94.4619 48.5773 94.3219 49.1934H94.2659ZM85.1089 45.581C83.6527 45.581 77.9401 45.581 77.9401 48.9413C77.9401 50.4535 79.8443 52.3577 83.6527 52.3577C89.8134 52.3577 90.7095 47.5412 90.3175 46.5051C90.0094 45.553 86.565 45.553 85.1089 45.553V45.581ZM83.4007 9.26091C83.4007 8.81286 81.1884 7.66473 80.7964 7.66473C79.7043 7.66473 79.2842 10.269 79.2842 10.465C79.2842 10.6051 79.3402 10.7731 79.4242 10.8571C79.6203 11.0531 83.4287 10.213 83.4287 9.26091H83.4007Z" fill="white" stroke="white" stroke-width="1.4"/>
<path d="M121.037 44.6848C127.59 32.3075 129.41 21.3862 129.41 21.3302C129.41 20.6862 129.158 20.6862 127.113 20.6862C125.769 20.6862 123.557 20.6302 121.457 19.538C119.413 18.5299 118.152 16.7377 118.152 16.1216C118.152 15.9256 118.348 15.8696 118.404 15.8696C118.657 15.8696 119.609 16.3737 119.861 16.4297C120.813 16.7377 123.417 17.1298 125.517 17.1298C126.469 17.1298 129.522 16.9897 130.026 16.5697C130.53 16.1216 130.726 11.8092 130.726 11.3611C130.726 10.8571 130.726 8.70082 129.97 7.41267C129.718 7.10464 128.206 5.50846 128.206 5.06041C128.206 4.41634 129.41 3.60425 131.062 3.60425C133.918 3.60425 136.13 6.20854 136.13 6.96462C136.13 7.27266 135.43 8.5608 135.43 8.86884C135.43 10.073 140.499 11.1651 141.143 11.1651C141.395 11.1651 142.795 11.0251 143.103 11.0251C143.607 11.0251 145.203 11.0251 145.203 12.9853C145.203 16.5417 139.799 18.3899 135.626 19.538C133.47 20.0981 133.218 20.1821 132.966 21.3022C129.718 35.1358 129.662 35.2198 128.346 39.3362C123.977 52.5537 121.681 52.5537 120.477 52.5537C118.965 52.5537 118.769 50.4535 118.769 49.7534C118.769 48.9973 119.077 48.3532 121.065 44.6848H121.037ZM134.422 15.6736C134.73 15.6736 139.575 13.9654 139.575 13.1253C139.575 12.4812 136.158 11.0811 135.458 11.0811C135.066 11.0811 134.898 11.2211 134.758 11.8372C134.506 13.0973 134.506 13.2933 134.198 14.8335C134.142 15.2816 134.058 15.6456 134.45 15.6456L134.422 15.6736ZM139.239 42.5846C140.583 48.1012 147.416 49.3054 152.26 49.3054C153.352 49.3054 158.169 48.8573 159.177 48.8573C161.333 48.8573 164.246 49.9494 164.246 52.0217C164.246 53.8699 161.893 54.1779 156.489 54.1779C146.212 54.1779 137.643 51.5736 137.643 43.5647C137.643 42.1086 138.035 40.7644 138.539 40.7644C138.791 40.7644 139.183 42.3606 139.239 42.5286V42.5846ZM153.268 20.4901C159.289 20.4901 163.882 22.2543 163.882 25.0546C163.882 26.5668 162.537 26.5668 162.033 26.5668C161.473 26.5668 158.981 26.3708 158.477 26.3708C157.329 26.3708 156.377 26.3708 153.772 27.3789C152.176 27.939 151.56 28.191 151.112 28.191C150.972 28.191 150.804 28.191 150.804 27.995C150.804 27.5469 154.108 25.1387 154.108 24.4386C154.108 23.4865 149.6 23.4305 148.648 23.4305C147.248 23.4305 145.54 23.4865 144.083 23.6825C143.691 23.7385 142.235 23.9345 141.983 23.9345C141.927 23.9345 141.479 23.9345 141.423 23.7945C140.975 22.9824 146.492 20.4341 153.296 20.4341L153.268 20.4901Z" fill="white" stroke="white" stroke-width="1.4"/>
<path d="M199.278 11.8652C199.278 12.0612 199.39 12.3132 199.39 12.5652C199.642 14.6095 200.034 16.6257 200.034 19.426C200.034 23.6825 199.082 29.5911 193.509 38.0201C188.44 45.7769 185.192 47.2891 182.644 47.2891C178.443 47.2891 174.719 40.7364 174.719 33.0075C174.719 29.6471 175.419 23.2344 181.776 16.8217C189.841 8.56079 198.354 8.56079 202.022 8.56079C207.791 8.56079 210.479 9.70892 212.243 10.605C219.104 13.9654 223.304 20.7702 223.304 29.0871C223.304 37.404 218.544 47.5131 207.315 51.4336C201.91 53.3378 197.737 53.7858 196.785 53.7858C196.533 53.7858 196.141 53.7298 196.141 53.3378C196.141 53.1418 196.253 53.0858 197.849 52.4417C204.458 49.8374 218.236 44.3768 218.236 28.555C218.236 26.0907 217.984 10.9691 200.65 10.9691C199.39 10.9691 199.306 11.4731 199.306 11.8652H199.278ZM178.639 31.3553C178.639 35.4718 180.291 41.1284 184.156 41.1284C186.004 41.1284 187.516 40.3723 191.913 33.7636C195.273 28.611 198.129 21.5822 198.129 15.2815C198.129 11.4731 197.877 11.1651 197.037 11.1651C191.017 11.1651 178.611 19.342 178.611 31.3553H178.639Z" fill="white" stroke="white" stroke-width="1.4"/>
<path d="M242.71 23.0385C237.11 23.0385 235.346 23.1505 234.702 23.2345C234.45 23.2345 233.553 23.3745 233.357 23.3745C233.105 23.3745 232.965 23.2345 232.797 22.9825L231.593 21.5263C231.341 21.2183 231.285 21.2183 231.285 21.0782C231.285 20.9382 231.397 20.9382 231.537 20.9382C231.985 20.9382 233.945 21.1342 234.338 21.1342C237.446 21.2743 240.05 21.3863 243.046 21.3863H254.024C255.984 21.3863 256.18 21.3863 256.18 12.4253C256.18 10.9131 256.18 7.52473 255.788 3.6603C255.732 3.26825 255.536 1.81209 255.536 1.50406C255.536 1.19602 255.536 1 255.928 1C256.936 1 261.697 2.20413 262.537 2.45616C263.349 2.65218 263.937 2.96022 263.937 3.60429C263.937 4.10835 263.629 4.50039 262.929 5.06045C261.725 6.06857 261.725 6.4046 261.585 9.37294C261.529 11.0251 261.08 18.3899 261.08 19.9021C261.08 21.4143 262.229 21.3583 263.237 21.3583H274.214C277.126 21.3583 277.462 21.3583 278.274 20.2662C280.319 17.6619 280.571 17.4098 281.327 17.4098C282.727 17.4098 287.795 21.4703 287.795 22.1144C287.795 23.0105 286.535 23.0105 284.435 23.0105H264.189C262.789 23.0105 262.341 23.0105 262.341 24.0186C262.341 27.883 270.602 46.7571 288.552 53.7859C289.69 54.2526 290.26 54.57 290.26 54.738C290.26 55.1861 289.952 55.2421 289 55.2981C287.039 55.4381 285.387 55.6061 283.287 56.5022C282.979 56.6982 281.579 57.6503 281.187 57.6503C280.039 57.6503 274.382 52.5818 271.022 47.7372C266.373 41.1285 263.013 33.9597 261.109 26.2028C261.052 25.8108 260.8 24.9427 260.66 24.9427C260.464 24.9427 260.464 25.1387 260.212 26.4548C258.952 33.5676 256.6 46.7851 240.218 55.9141C235.514 58.5744 231.257 59.3305 230.753 59.3305C230.641 59.3305 230.361 59.2745 230.361 59.0785C230.361 58.7705 231.761 58.1264 232.405 57.8183C236.858 55.7181 250.131 47.9893 254.5 30.7673C255.2 27.911 255.508 24.5506 255.508 24.3546C255.508 22.9545 254.808 22.9545 253.8 22.9545H242.682L242.71 23.0385Z" fill="white" stroke="white" stroke-width="1.4"/>
<path d="M310.814 18.474C313.11 17.7179 313.726 17.5219 314.118 16.0097C314.819 13.4054 314.875 13.1534 315.771 13.1534C316.023 13.1534 322.295 14.5535 322.295 15.5616C322.295 16.3177 321.987 16.4577 319.299 17.3258L309.134 20.8262C307.538 21.3863 307.538 22.4784 307.538 27.883C307.538 29.7312 307.538 38.6642 308.098 39.7564C308.49 40.5124 309.498 40.7645 311.654 40.7645C315.323 40.7645 315.967 40.2604 316.555 38.9163C317.003 37.9641 317.759 32.3635 318.263 32.3635C318.515 32.3635 318.515 32.5595 318.711 34.0717C318.907 35.9199 319.159 37.1801 319.915 38.1322C321.063 39.4763 321.119 39.5883 321.119 40.0924C321.119 40.9885 320.671 45.1049 310.59 45.1049C303.421 45.1049 303.421 43.5928 303.421 32.9236V24.4106C303.365 23.9066 303.169 23.2625 302.413 23.2625C301.461 23.2625 296.56 25.3627 296.056 25.6148C295.86 25.6148 295.608 25.5588 295.496 25.4187L293.9 24.4106C293.508 24.1586 293.452 24.1586 293.452 24.0186C293.452 23.8786 294.6 23.6265 295.356 23.4585C295.748 23.3185 300.817 21.8624 301.713 21.4983C303.309 20.7982 303.365 20.2942 303.365 18.334C303.365 14.5815 303.253 10.4651 303.113 8.25283C303.057 7.24472 302.609 3.04425 302.609 2.14815C302.609 1.89612 302.609 1.7561 302.861 1.7561C303.113 1.7561 306.726 2.40018 308.266 2.90423C308.714 3.10025 309.274 3.46429 309.274 4.10837C309.274 4.55642 309.162 4.61242 308.322 5.50852C308.014 5.81656 307.874 6.01258 307.874 6.32061C307.734 7.02069 307.678 10.6891 307.678 11.7812C307.678 13.2374 307.734 16.2897 307.734 17.8859C307.734 18.278 307.622 19.146 308.49 19.146C308.686 19.146 308.938 19.09 309.05 19.006L310.758 18.446L310.814 18.474ZM334.309 7.86079C332.657 7.86079 332.404 8.42085 332.404 10.6611C332.404 30.8514 329.408 44.1808 320.223 51.9937C314.763 56.6422 308.854 57.4543 308.658 57.4543C308.266 57.4543 308.154 57.2023 308.154 57.0063C308.154 56.7542 310.506 55.7461 310.954 55.4941C318.011 51.3776 327.896 43.7608 327.896 14.6655C327.896 8.25283 327.896 7.86079 325.992 7.86079H324.648C321.399 7.86079 319.579 7.91679 318.235 8.0008C317.983 8.05681 317.087 8.19682 316.891 8.19682C316.639 8.19682 316.499 8.0008 316.331 7.74877L315.127 6.29261C315.127 6.29261 314.819 5.98458 314.819 5.90057C314.819 5.76055 314.959 5.70454 315.071 5.70454C315.519 5.70454 317.423 5.90057 317.871 5.95657C320.979 6.09659 323.584 6.1526 326.58 6.1526H340.917C342.374 6.1526 342.626 6.01258 343.326 4.80844C344.138 3.35228 344.222 3.21227 344.726 3.21227C344.782 3.21227 347.134 4.66843 347.526 4.92046C349.99 6.43263 350.242 6.62865 350.242 7.27272C350.242 7.72077 350.13 7.83278 348.842 8.9249C348.142 9.56898 348.142 10.3251 348.142 12.3413C348.142 34.8278 348.03 44.9089 344.838 50.9576C344.026 52.5538 341.534 57.2303 334.309 57.2303C333.161 57.2303 333.105 56.9223 333.105 56.0822C333.049 54.178 332.545 53.8699 329.548 51.6297C328.036 50.5376 327.896 50.4255 327.896 50.1175C327.896 50.0055 328.036 49.8655 328.204 49.8655C328.456 49.8655 330.556 50.6216 331.004 50.7616C333.665 51.4617 334.869 51.5177 335.569 51.5177C337.529 51.5177 341.029 51.4617 342.43 44.7969C343.634 38.8322 343.83 30.3753 343.83 21.8063C343.83 19.2021 343.83 10.7451 343.522 9.03692C343.27 7.83278 342.122 7.83278 341.421 7.83278H334.309V7.86079Z" fill="white" stroke="white" stroke-width="1.4"/>
<path d="M372.113 9.45693C372.113 8.50482 371.805 7.55271 371.217 6.65661C371.021 6.34858 370.013 5.14445 370.013 4.86441C370.013 4.10833 371.357 3.52026 372.617 3.52026C375.165 3.52026 376.173 4.92042 377.181 6.32058C377.49 6.76863 378.134 7.02065 380.038 7.52471C381.242 7.83275 383.65 8.53282 383.65 10.325C383.65 12.7333 380.094 13.8814 374.941 15.3936C374.381 15.5896 374.297 15.7856 373.737 17.9979C372.981 21.1622 367.52 42.6406 361.668 42.6406C359.96 42.6406 359.708 41.4925 359.708 40.8764C359.708 39.9803 359.904 39.6723 361.808 36.928C368.725 26.7629 370.573 16.5417 370.573 16.2337C370.573 15.6736 370.125 15.5896 369.173 15.5336C361.668 14.8895 361.668 10.465 361.668 10.381C361.668 10.129 361.724 9.62495 362.116 9.62495C362.368 9.62495 362.564 9.68095 363.824 10.437C364.524 10.8851 366.288 11.7812 368.725 11.7812C368.865 11.7812 371.077 11.7812 371.525 11.3891C371.973 10.9971 372.085 9.98899 372.085 9.42892L372.113 9.45693ZM390.399 49.1934C389.587 54.71 384.742 56.1101 381.438 56.1101C375.417 56.1101 371.861 51.9097 371.861 48.7453C371.861 44.6289 376.369 42.4726 382.082 42.4726C382.586 42.4726 384.938 42.5846 385.386 42.5846C385.946 42.5846 386.283 42.5286 386.283 41.8846C386.283 40.9324 386.03 36.676 386.03 35.7799C386.03 28.8071 386.423 25.4187 391.743 22.3944C395.692 20.0981 396.112 19.9301 396.112 18.2779C396.112 16.8778 394.711 15.4216 394.347 15.0296C393.787 14.5255 393.535 14.2735 393.535 14.0214C393.535 13.8254 393.731 13.7134 393.983 13.7134C394.431 13.7134 396.392 14.2735 397.736 14.8055C402.104 16.4577 402.384 20.3221 402.384 21.2742C402.384 23.6825 400.676 24.5786 399.388 24.5786C399.332 24.5786 398.576 24.5786 397.932 24.3266C395.524 23.4305 395.272 23.3185 394.515 23.3185C393.003 23.3185 390.903 24.2146 389.867 25.2227C388.411 26.6228 388.355 28.9191 388.355 30.4873C388.355 32.0555 388.999 41.9126 390.903 43.2567C391.463 43.7048 394.459 44.7129 395.019 45.0209C396.364 45.721 400.032 47.7652 400.032 50.0895C400.032 51.1816 399.584 52.3017 398.324 52.3017C397.68 52.3017 397.316 52.1057 396.364 51.2936C394.655 49.7814 391.715 47.7932 390.847 48.1853C390.595 48.3253 390.595 48.5773 390.455 49.1934H390.399ZM381.242 45.581C379.786 45.581 374.073 45.581 374.073 48.9413C374.073 50.4535 375.977 52.3577 379.786 52.3577C385.946 52.3577 386.843 47.5412 386.451 46.5051C386.142 45.553 382.698 45.553 381.242 45.553V45.581ZM379.534 9.26091C379.534 8.81286 377.322 7.66473 376.929 7.66473C375.837 7.66473 375.417 10.269 375.417 10.465C375.417 10.6051 375.473 10.7731 375.557 10.8571C375.753 11.0531 379.562 10.213 379.562 9.26091H379.534Z" fill="white" stroke="white" stroke-width="1.4"/>
<path d="M437.584 19.5942C437.584 21.6944 432.768 23.5987 431.228 24.2427C430.331 24.5508 430.275 24.8028 430.135 27.043C429.995 28.4432 429.995 33.5958 429.995 33.9038C429.995 34.2958 429.995 35.0519 430.555 35.0519C430.751 35.0519 435.96 32.8957 436.968 32.5036C443.269 30.1514 446.125 29.9554 447.777 29.9554C452.426 29.9554 457.55 33.5678 457.55 39.5324C457.55 47.9054 448.729 51.7138 443.521 51.7138C439.908 51.7138 436.968 49.8656 436.968 46.5612C436.968 43.5649 439.572 41.5487 440.132 41.5487C440.328 41.5487 440.441 41.7447 440.441 41.8567C440.441 42.0527 440.329 42.1647 440.188 42.3607C439.992 42.6128 439.628 43.1168 439.628 44.0689C439.628 47.1213 443.129 47.1213 443.745 47.1213C447.945 47.1213 453.266 44.321 453.266 39.2524C453.266 34.7439 449.906 32.2796 447.161 32.2796C445.397 32.2796 441.449 33.0917 434.028 37.0402C430.471 38.9444 430.079 39.1404 430.079 40.2045C430.079 40.9046 430.275 43.7609 430.275 44.405C430.275 47.3173 429.323 51.5178 427.027 51.5178C425.319 51.5178 424.619 50.1736 424.115 49.1655C422.07 45.2171 421.762 45.2171 420.95 45.2171C420.39 45.2171 419.746 45.4691 419.354 45.6091C418.962 45.8051 417.394 46.8693 416.946 46.8693C416.246 46.8693 412.997 44.965 412.997 42.8648C412.997 41.7167 413.698 40.4005 414.846 40.4005C415.238 40.4005 417.058 40.7086 417.45 40.7086C419.158 40.7086 420.306 40.4005 424.059 38.5523C427.307 36.9561 427.671 36.7881 427.671 34.9959C427.671 33.5398 427.615 28.1352 427.531 27.071C427.531 26.623 427.335 25.6709 426.635 25.6709C425.879 25.6709 424.087 26.1189 423.723 26.2309C420.474 27.3231 420.166 27.4351 419.214 27.4351C417.058 27.4351 414.65 23.0666 414.65 22.6185C414.65 22.3105 414.902 22.1705 415.154 22.1705C415.35 22.1705 416.106 22.4225 416.302 22.4225C417.45 22.6185 418.402 22.7306 419.214 22.7306C421.51 22.7306 426.887 21.2184 427.279 20.8263C427.587 20.3783 427.923 14.6096 427.923 13.9096C427.923 11.9494 427.615 10.6612 425.823 8.841C425.711 8.70099 424.927 7.9449 424.927 7.83289C424.927 7.27283 425.935 7.13281 426.327 7.13281C430.583 7.13281 432.852 10.2412 432.852 11.4453C432.852 12.0054 431.648 14.3016 431.508 14.7497C431.451 15.1977 430.863 17.746 430.863 18.8661C430.863 19.1182 430.975 19.5662 431.367 19.5662C431.816 19.5662 433.58 18.8661 433.58 17.97C433.58 17.83 433.272 17.2139 433.272 17.0739C433.272 17.0179 433.384 16.8779 433.524 16.8219C434.42 16.6819 437.472 17.578 437.472 19.5662L437.584 19.5942ZM423.107 43.9009C423.107 44.853 424.815 46.8973 425.767 46.8973C426.663 46.8973 427.531 45.1331 427.531 41.9967C427.531 41.7447 427.531 41.1006 427.335 40.9886C427.139 40.9886 423.079 43.0328 423.079 43.9009H423.107ZM464.831 24.1587C464.831 25.5029 464.075 27.2111 462.731 27.2111C462.339 27.2111 460.883 27.099 460.575 27.099C460.267 27.1551 458.923 27.5471 458.671 27.5471C458.559 27.5471 458.362 27.4911 458.362 27.2391C458.362 27.127 458.559 26.791 458.559 26.735C458.671 26.343 458.811 26.0349 458.811 25.5869C458.811 23.0386 455.646 22.1705 453.49 22.1705C452.482 22.1705 451.894 22.4225 451.026 22.8146C450.774 22.9546 450.578 23.0106 450.382 23.0106C450.186 23.0106 450.13 22.9546 450.13 22.7586C450.13 22.3105 452.79 18.7541 456.99 18.7541C461.891 18.7541 464.859 21.3024 464.859 24.2147L464.831 24.1587Z" fill="white" stroke="white" stroke-width="1.4"/>
<path d="M484.966 19.9861C484.573 20.8822 484.573 31.7194 484.573 33.9597C484.573 42.1366 484.574 45.1329 484.77 50.7336C484.77 51.2936 484.882 55.046 484.882 55.2421C484.882 56.0542 484.882 58.6024 481.633 58.6024C479.981 58.6024 479.673 57.7903 479.673 56.8942C479.673 56.1382 480.065 50.8736 480.121 50.0335C480.177 48.4373 480.513 29.0031 480.513 26.7349C480.513 26.5388 480.457 21.2743 480.457 21.1342C480.401 20.0421 480.401 19.9861 480.205 19.9861C480.009 19.9861 472.14 29.4512 470.74 29.4512C470.6 29.4512 470.544 29.3952 470.544 29.3112C470.544 28.6671 485.414 7.46872 485.414 2.70819C485.414 1.25203 485.414 1.11201 485.862 1.11201C486.17 1.11201 492.134 4.52839 492.134 5.42449C492.134 5.81654 492.022 5.81654 491.07 6.12457C490.174 6.4326 489.726 7.07668 488.074 9.48495C487.318 10.5771 483.509 15.3376 483.509 16.0937C483.509 16.5977 483.621 16.7378 485.162 17.4938C485.666 17.7459 486.366 18.1379 486.114 18.586C485.918 19.034 485.218 19.4821 484.966 19.9861ZM518.177 52.7498C521.09 52.7498 521.482 52.8058 522.238 51.7417C524.142 49.1934 524.338 48.8854 524.954 48.8854C525.906 48.8854 529.519 53.0018 529.519 53.5899C529.519 54.486 528.174 54.486 526.102 54.486H498.155C492.554 54.486 490.79 54.626 490.146 54.626C489.894 54.682 488.998 54.822 488.802 54.822C488.55 54.822 488.41 54.626 488.242 54.374L487.038 52.9178C486.786 52.6658 486.73 52.6098 486.73 52.5258C486.73 52.3857 486.842 52.3297 486.982 52.3297C487.43 52.3297 489.39 52.5258 489.782 52.5818C492.89 52.7218 495.495 52.7778 498.491 52.7778H503.56C505.408 52.7778 505.408 51.8257 505.408 50.2295C505.408 48.8293 505.408 35.0518 505.296 34.5477C505.044 33.4556 504.036 33.4556 503.448 33.4556H501.543C495.943 33.4556 494.123 33.5956 493.479 33.6516C493.282 33.6516 492.33 33.7917 492.134 33.7917C491.938 33.7917 491.826 33.6516 491.574 33.3996L490.37 31.9435C490.202 31.7381 490.118 31.5887 490.118 31.4954C490.118 31.4954 490.174 31.3554 490.314 31.3554C490.762 31.3554 492.722 31.5514 493.114 31.5514C496.223 31.6914 498.883 31.8034 501.879 31.8034H503.476C505.38 31.8034 505.436 30.9073 505.436 29.7032C505.436 27.995 505.436 17.9699 505.38 17.3818C505.324 15.7296 504.736 15.4776 503.336 15.4776H500.087C494.487 15.4776 492.666 15.5896 492.022 15.6736C491.826 15.6736 490.874 15.8137 490.678 15.8137C490.426 15.8137 490.37 15.6736 490.118 15.3656L488.914 13.9094C488.662 13.6574 488.662 13.6014 488.662 13.5174C488.662 13.3774 488.718 13.3774 488.858 13.3774C489.306 13.3774 491.266 13.5734 491.658 13.5734C494.767 13.7134 497.371 13.7694 500.367 13.7694H516.441C518.989 13.7694 519.941 13.7694 520.502 12.7613C521.65 10.6611 521.762 10.409 522.546 10.409C523.33 10.409 528.062 13.7694 528.062 14.6095C528.062 15.5056 526.802 15.5056 524.702 15.5056H511.933C509.776 15.5056 509.776 15.5616 509.776 21.3583C509.776 22.5064 509.776 30.5153 509.972 31.0194C510.224 31.8314 511.177 31.8314 511.821 31.8314H514.173C517.029 31.8314 517.337 31.8314 518.233 30.7393C519.997 28.6391 520.194 28.3871 520.838 28.3871C521.734 28.3871 525.598 32.1955 525.598 32.5875C525.598 33.4836 524.338 33.4836 522.238 33.4836H511.821C509.916 33.4836 509.776 34.2957 509.776 35.8359C509.776 37.236 509.776 51.0696 509.888 51.7137C510.084 52.8058 510.98 52.8058 511.933 52.8058H518.233L518.177 52.7498ZM511.26 9.62496C511.26 11.3332 510.056 12.4253 508.964 12.4253C507.368 12.4253 506.808 10.8291 506.416 9.62496C505.52 7.16069 503.504 3.52028 502.299 2.20413C501.795 1.64407 501.543 1.19602 501.599 1.11201C501.795 0.859981 511.26 3.7163 511.26 9.62496Z" fill="white" stroke="white" stroke-width="1.4"/>
<path d="M556.962 4.05226C556.906 3.85623 556.514 3.24017 556.514 3.10015C556.514 2.6521 557.718 2.6521 558.11 2.6521C559.818 2.6521 563.262 4.24828 563.262 5.56442C563.262 6.2085 561.862 8.47675 561.666 8.9248C561.218 9.93291 560.714 12.1732 560.714 13.0413C560.714 13.1813 560.714 13.4333 560.966 13.4333C561.162 13.4333 561.358 13.3773 562.73 12.8732C563.29 12.6772 564.187 12.3692 565.027 12.3692C565.671 12.3692 566.875 12.5652 566.875 13.5733C566.875 15.9256 562.562 17.1857 560.77 17.7738C560.266 17.9138 560.126 17.9698 560.07 18.9219C560.014 19.1179 559.762 22.4783 559.762 25.0826C559.762 26.5388 559.762 26.9308 560.574 26.9308C561.274 26.9308 565.839 25.6707 565.839 23.6264C565.839 23.4304 565.587 22.6743 565.587 22.4783C565.587 22.2823 565.783 22.2823 565.895 22.2823C566.203 22.2823 567.547 22.5903 567.855 22.5903C570.459 22.7863 572.111 22.8984 572.111 24.2985C572.111 26.5108 565.055 29.4511 562.142 30.4032C560.182 31.1033 559.986 31.1593 559.986 31.8034C559.986 33.0075 560.686 40.3163 560.742 40.9604C560.994 43.0606 560.994 43.3126 562.338 43.8167C567.295 45.8609 571.355 49.2213 571.355 52.1896C571.355 53.8418 570.207 54.8499 569.199 54.8499C568.303 54.8499 568.051 54.5419 565.783 51.7976C564.523 50.2014 562.03 48.3812 561.33 48.3812C560.938 48.3812 560.826 48.6892 560.518 49.3893C559.174 52.3857 554.917 55.802 549.737 55.802C543.772 55.802 541.616 51.5456 541.616 48.9413C541.616 45.1328 545.48 42.2205 553.041 42.2205C553.601 42.2205 555.954 42.4165 556.402 42.4165C557.102 42.4165 557.102 42.2205 557.102 40.0643C557.102 38.8041 557.046 34.5477 556.99 32.8395C556.99 32.2794 556.99 31.8874 556.346 31.8874C555.45 31.8874 551.641 32.1954 550.829 32.1954C549.373 32.1954 544.92 32.2514 542.064 29.5911C541.168 28.695 540.216 27.1828 540.216 26.6788C540.216 26.5388 540.216 26.4268 540.412 26.4268C540.804 26.4268 542.512 27.1828 542.82 27.3229C545.676 28.275 548.533 28.471 550.493 28.471C552.005 28.471 556.262 28.471 556.71 27.2668C556.766 27.0708 557.27 18.7539 557.27 18.6979C557.27 18.3899 556.962 18.3899 555.926 18.3058C551.417 17.9978 547.413 14.7495 547.413 12.2852C547.413 12.1452 547.469 11.8371 547.665 11.8371C547.721 11.8371 549.261 12.7332 549.429 12.8452C552.229 14.5534 554.637 14.5534 555.59 14.5534C556.934 14.5534 557.55 14.2454 557.69 13.6013C557.886 12.9573 558.082 9.34485 558.082 8.0007C558.082 6.65655 557.27 4.75233 556.934 4.05226H556.962ZM550.549 44.9928C550.549 44.9928 543.744 44.9928 543.744 48.6052C543.744 51.0135 547.049 51.7696 548.813 51.7696C550.913 51.7696 553.629 50.7615 555.113 49.4173C556.262 48.4092 556.822 46.869 556.57 46.309C556.122 45.2169 551.669 44.9648 550.549 44.9648V44.9928Z" fill="white" stroke="white" stroke-width="1.4"/>
<path d="M595.13 19.2301C595.13 19.7341 594.99 19.9301 594.374 21.7783C593.478 24.2426 592.862 26.5949 592.862 29.9553C592.862 36.368 596.166 41.0165 598.126 41.0165C599.218 41.0165 599.47 40.7085 601.374 37.5161C601.766 36.872 602.831 35.3599 603.335 35.3599C603.531 35.3599 603.643 35.6119 603.643 35.8639C603.643 36.1159 603.531 36.956 603.447 37.1241C602.747 40.0364 602.635 40.6244 602.635 41.9406C602.635 43.0327 602.831 43.8448 603.027 44.4889C603.223 45.189 603.531 46.2531 603.531 46.5891C603.531 47.8493 602.187 48.5493 601.122 48.5493C597.062 48.5493 589.053 41.8846 589.053 29.7592C589.053 27.995 589.949 20.1822 589.949 18.53C589.949 17.2698 589.697 15.5336 589.501 14.8336C589.053 13.2374 588.997 13.0694 588.997 12.6773C588.997 12.4813 589.249 12.4253 589.389 12.4253C592.301 12.4253 595.158 17.4939 595.158 19.2301H595.13ZM626.129 20.6862C629.378 23.2905 631.786 27.799 631.786 32.8116C631.786 34.0157 631.674 37.012 628.621 37.012C625.569 37.012 625.513 33.5957 625.513 32.7556C625.513 27.491 625.513 24.8307 622.153 21.4423C621.649 20.9382 619.1 18.978 619.1 18.586C619.1 18.39 619.352 18.2779 619.66 18.2779C619.716 18.2779 623.413 18.474 626.129 20.6862Z" fill="white" stroke="white" stroke-width="1.4"/>
<path d="M645.507 34.8557C645.507 32.9515 647.272 30.9073 651.612 25.8947C654.468 22.5904 657.017 17.3258 657.017 16.4297C657.017 16.0376 656.569 15.9816 656.317 15.9816C655.672 15.9816 653.068 16.4857 652.508 16.4857C650.1 16.4857 646.852 13.3773 646.852 10.8851C646.852 10.689 646.852 10.437 647.244 10.437C647.636 10.437 649.288 11.4451 649.652 11.6411C650.408 12.0332 652.116 12.7893 653.852 12.7893C659.061 12.7893 659.061 11.0811 659.061 9.79293C659.061 9.40089 659.005 8.39277 658.557 7.58068C658.361 7.27265 657.045 6.12452 657.045 5.73248C657.045 5.22842 658.697 4.72437 659.845 4.72437C661.357 4.72437 662.953 5.28443 663.093 6.68458C663.149 7.49667 663.401 7.63669 665.95 7.83271C666.398 7.83271 668.806 8.14075 668.806 9.4849C668.806 11.5851 664.157 13.3493 661.245 14.4975C660.293 14.8895 660.237 15.0015 658.837 18.2499C657.325 21.7503 657.073 22.2543 655.42 25.1106C655.112 25.6707 654.972 25.8667 654.972 26.1188C654.972 26.2588 655.028 26.3708 655.224 26.3708C655.42 26.3708 656.625 25.9227 657.185 25.6707C657.885 25.3627 658.697 25.1666 659.649 25.1666C660.461 25.1666 663.401 25.3067 665.054 29.0311C665.502 30.1232 665.558 30.2352 665.698 30.2352C665.894 30.2352 667.994 27.3229 668.302 26.8188C670.402 23.9065 674.519 18.1099 680.035 18.1099C683.536 18.1099 686 21.1062 686 23.7665C686 26.7628 680.987 28.8351 677.039 30.5713C675.443 31.2713 668.274 34.1276 667.126 34.8277C666.118 35.4718 666.034 36.1719 666.034 37.488C666.034 38.0481 666.146 40.7364 666.146 41.2965C666.146 42.3046 666.146 45.945 663.793 45.945C662.085 45.945 661.833 43.8447 661.833 42.6966C661.833 42.0525 662.029 39.0282 662.029 38.9442C662.029 38.6922 662.029 38.1881 661.581 38.1881C661.077 38.1881 655.42 42.1365 655.42 45.7489C655.42 50.1174 661.777 50.1174 663.625 50.1174C665.222 50.1174 666.426 50.0054 667.686 49.7254C668.582 49.5854 672.642 48.5773 673.454 48.5773C674.799 48.5773 676.563 49.2213 676.563 50.7335C676.563 54.6819 666.734 54.934 665.194 54.934C657.129 54.934 652.872 51.6296 652.872 46.617C652.872 42.5566 655.28 40.5124 661.245 35.6958C661.889 35.1918 662.197 34.4357 662.197 33.4836C662.197 30.6273 661.693 27.0709 659.145 27.0709C656.597 27.0709 652.984 29.9832 651.332 33.7916C650.632 35.3878 649.932 36.9 647.916 36.9C646.711 36.9 645.507 36.5079 645.507 34.7997V34.8557ZM661.693 10.8571C661.693 10.8571 664.857 10.045 664.857 9.34488C664.857 8.53279 663.261 8.39278 662.701 8.39278C661.805 8.39278 661.553 10.157 661.553 10.437C661.553 10.717 661.553 10.8851 661.665 10.8851L661.693 10.8571ZM667.462 31.4393C667.462 31.4393 667.518 31.7474 667.714 31.7474C667.91 31.7474 680.427 26.6788 680.427 22.4783C680.427 20.8822 679.027 20.5741 678.215 20.5741C672.95 20.5741 667.49 30.4032 667.49 31.4393H667.462Z" fill="white" stroke="white" stroke-width="1.4"/>
</g>
</g>
<defs>
<filter id="filter0_d_173_990" x="0.300049" y="83.6306" width="691.4" height="72.6528" filterUnits="userSpaceOnUse" color-interpolation-filters="sRGB">
<feFlood flood-opacity="0" result="BackgroundImageFix"/>
<feColorMatrix in="SourceAlpha" type="matrix" values="0 0 0 0 0 0 0 0 0 0 0 0 0 0 0 0 0 0 127 0" result="hardAlpha"/>
<feOffset dy="5"/>
<feGaussianBlur stdDeviation="2.5"/>
<feComposite in2="hardAlpha" operator="out"/>
<feColorMatrix type="matrix" values="0 0 0 0 0 0 0 0 0 0 0 0 0 0 0 0 0 0 0.1 0"/>
<feBlend mode="normal" in2="BackgroundImageFix" result="effect1_dropShadow_173_990"/>
<feBlend mode="normal" in="SourceGraphic" in2="effect1_dropShadow_173_990" result="shape"/>
</filter>
<filter id="filter1_d_173_990" x="0.300049" y="0.300049" width="691.4" height="69.7305" filterUnits="userSpaceOnUse" color-interpolation-filters="sRGB">
<feFlood flood-opacity="0" result="BackgroundImageFix"/>
<feColorMatrix in="SourceAlpha" type="matrix" values="0 0 0 0 0 0 0 0 0 0 0 0 0 0 0 0 0 0 127 0" result="hardAlpha"/>
<feOffset dy="5"/>
<feGaussianBlur stdDeviation="2.5"/>
<feComposite in2="hardAlpha" operator="out"/>
<feColorMatrix type="matrix" values="0 0 0 0 0 0 0 0 0 0 0 0 0 0 0 0 0 0 0.1 0"/>
<feBlend mode="normal" in2="BackgroundImageFix" result="effect1_dropShadow_173_990"/>
<feBlend mode="normal" in="SourceGraphic" in2="effect1_dropShadow_173_990" result="shape"/>
</filter>
<clipPath id="clip0_173_990">
<rect width="692" height="157" fill="white"/>
</clipPath>
</defs>
</svg>
