<svg width="25" height="16" viewBox="0 0 25 16" fill="none" xmlns="http://www.w3.org/2000/svg">
<g clip-path="url(#clip0)">
<path d="M15.3909 9.21838C15.3909 11.3301 17.0558 12.3656 18.3959 12.3656C19.736 12.3656 21.401 11.3301 21.401 9.21838C21.401 7.57371 19.7767 6.25391 18.3959 5.46204C17.0355 6.27422 15.3909 7.57371 15.3909 9.21838Z" fill="white"/>
<path d="M3.14719 9.25879C3.14719 11.3705 4.81216 12.406 6.15226 12.406C7.49236 12.406 9.15734 11.3705 9.15734 9.25879C9.15734 7.61412 7.53297 6.29432 6.15226 5.50244C4.77155 6.29432 3.14719 7.61412 3.14719 9.25879Z" fill="white"/>
<path d="M5.50225e-06 0V16H24.5279V0H5.50225e-06ZM24.5076 3.89848C23.0254 3.89848 21.2386 4.18274 19.8376 4.79188C21.3604 5.80711 22.8223 7.32995 22.8223 9.27919C22.8223 11.8376 20.6701 13.7868 18.3147 13.7868C15.9594 13.7868 13.868 11.8376 13.868 9.27919C13.868 7.35025 15.269 5.80711 16.7716 4.79188C15.3706 4.18274 13.7259 3.89848 12.2437 3.89848C10.7614 3.89848 9.11676 4.18274 7.71574 4.79188C9.23858 5.80711 10.6193 7.32995 10.6193 9.27919C10.6193 11.8376 8.54823 13.7868 6.17259 13.7868C3.81726 13.7868 1.62437 11.8376 1.62437 9.27919C1.62437 7.35025 3.12691 5.80711 4.62945 4.79188C3.22843 4.18274 1.44163 3.89848 -0.0406036 3.89848V2.49746C2.45686 2.49746 4.64975 3.1269 6.15229 3.89848C7.65483 3.1269 9.72589 2.49746 12.2234 2.49746C14.7208 2.49746 16.7919 3.1269 18.2741 3.89848C19.7767 3.1269 21.9899 2.49746 24.467 2.49746V3.89848H24.5076Z" fill="white"/>
</g>
<defs>
<clipPath id="clip0">
<rect width="24.5279" height="16" fill="white"/>
</clipPath>
</defs>
</svg>
