<svg width="180" height="34" viewBox="0 0 180 34" fill="none" xmlns="http://www.w3.org/2000/svg">
<path d="M55.557 16.3456C55.557 16.3456 55.8815 16.3456 55.9324 16.4665C55.9986 16.672 56.0308 16.8869 56.0279 17.1028C56.0279 17.1028 55.9451 17.739 55.9451 17.8662C55.9253 18.1881 55.8763 18.5075 55.7988 18.8206C55.7557 19.1204 55.6301 19.4023 55.4362 19.635C55.2507 19.8762 54.9985 20.0576 54.7109 20.1567C54.4182 20.2139 54.0746 20.3984 53.6992 20.4684C53.3239 20.5384 52.9994 20.532 52.5349 20.5829C52.0576 20.6366 51.5774 20.66 51.0971 20.6529C50.3336 20.6529 49.1884 20.6529 49.0929 20.6529C48.9975 20.6529 46.0517 20.5448 45.7464 20.532C45.1952 20.4366 44.6599 20.2653 44.1558 20.0231C43.9215 19.8936 43.7192 19.7132 43.564 19.4952C43.4087 19.2772 43.3044 19.0271 43.2587 18.7633C43.1951 18.2734 43.2587 16.7719 43.2078 16.3329C43.1569 15.8939 43.2841 11.9366 43.2841 11.9366V8.65996L43.3605 4.80439L43.4432 0.452569C43.4211 0.379992 43.4211 0.302465 43.4432 0.229888C43.4877 0.121729 43.5132 -0.0118801 43.8058 0.000844556C44.0985 0.0135692 45.3328 0.000844555 45.53 0.0390185C45.9342 0.0694573 46.3291 0.175192 46.6943 0.350772C47.0311 0.539022 47.3307 0.786946 47.5787 1.08244C47.8796 1.42259 48.0429 1.86265 48.0368 2.31673C48.0368 2.95296 48.075 6.40134 48.0368 6.53494C48.0324 6.73079 48.0452 6.92665 48.075 7.12028C48.075 7.31115 48.1131 12.6746 48.1131 12.6746C48.1131 12.6746 48.1131 14.227 48.1131 14.4051C48.1131 14.5833 48.075 15.4231 48.0495 15.6076C48.052 15.8161 48.0974 16.0219 48.1831 16.212C48.234 16.3202 48.3804 16.3584 48.6667 16.3711C48.953 16.3838 51.3516 16.3711 51.3516 16.3711L54.9972 16.4093L55.557 16.3456Z" fill="white"/>
<path d="M71.03 12.9291C71.0137 12.1034 70.9071 11.282 70.7119 10.4796C70.5439 9.85851 70.3313 9.25039 70.0757 8.65996C69.8582 8.11518 69.5459 7.61327 69.1532 7.17754C68.5513 6.47759 67.7739 5.95055 66.9009 5.65058C65.1292 4.9486 63.1525 4.97146 61.3975 5.71421C60.8939 5.98826 60.4277 6.32613 60.0105 6.71945C59.4195 7.32143 58.8889 7.9799 58.4263 8.68541C57.1538 10.3969 56.8739 13.2217 57.5165 15.245C57.9052 16.7916 58.7004 18.2062 59.8196 19.3423C61.5756 20.9583 64.9095 21.0919 67.1363 20.5511C68.4978 20.2203 69.3122 18.8333 69.9166 17.6817C70.6677 16.2113 71.0498 14.5801 71.03 12.9291ZM66.5319 13.0245C66.5577 13.8298 66.4721 14.6349 66.2774 15.4167C66.1056 16.053 65.6412 17.3636 64.1078 17.3636C62.5745 17.3636 62.1419 15.6458 62.1164 15.4549C62.091 15.264 61.9828 12.7318 61.9701 12.3883C61.9192 10.9377 62.3964 8.7045 64.2478 8.7045C64.6924 8.6547 65.14 8.76873 65.5066 9.02523C65.8731 9.28172 66.1336 9.66307 66.2392 10.0978C66.4184 11.0635 66.5163 12.0425 66.5319 13.0245Z" fill="white"/>
<path d="M86.2487 12.3818C86.2487 11.981 86.166 11.0012 86.0896 10.5368C85.4534 6.55396 80.0709 4.17446 76.6098 5.80957C75.2291 6.4458 74.1348 8.13818 73.4286 9.45518C73.1247 10.2541 72.9652 11.1008 72.9578 11.9556C72.7674 13.9226 73.0196 15.9074 73.6958 17.7644C74.1745 18.5963 74.8252 19.3164 75.6045 19.8767C77.0997 20.9773 79.3774 20.8628 80.9425 20.0357C81.1892 19.8459 81.4172 19.6328 81.6233 19.3995V19.5967C81.5999 19.8117 81.5594 20.0244 81.5024 20.2329C81.4515 20.4874 81.2924 21.3591 81.2097 21.6263C81.0409 22.0042 80.8061 22.3489 80.5162 22.6443C80.0963 22.9102 79.6455 23.1239 79.1738 23.2805C78.5999 23.4081 78.0101 23.4489 77.4241 23.4014C77.0571 23.3936 76.6922 23.3445 76.3362 23.255C75.9232 23.1418 75.5208 22.9928 75.1337 22.8097C75.0495 22.7834 74.9608 22.775 74.8732 22.7848C74.7856 22.7947 74.701 22.8226 74.6247 22.8669C74.5081 23.0474 74.41 23.2393 74.3321 23.4396C74.1458 23.8936 73.9886 24.359 73.8612 24.8329C73.7979 25.2047 73.7723 25.582 73.7849 25.959C73.8231 26.0608 73.8231 26.1181 74.1285 26.239C75.2596 26.4924 76.4047 26.6794 77.5577 26.7989C80.2617 26.7989 82.9912 27.0406 84.639 24.4702C84.7472 24.2985 85.2752 23.1469 85.4407 22.8097C85.6061 22.4725 85.9496 20.901 86.0133 20.5765C86.0769 20.252 86.2169 17.8407 86.2169 17.7135C86.2169 17.5862 86.2614 12.7827 86.2487 12.3818ZM81.7123 11.5484C81.7123 12.2355 81.6742 14.4432 81.6742 14.5259C81.7033 14.9001 81.6841 15.2765 81.6169 15.6457C81.5196 16.0355 81.2916 16.3802 80.9708 16.6222C80.6501 16.8642 80.2561 16.9889 79.8545 16.9754C79.4376 16.9799 79.0297 16.8542 78.6875 16.6158C78.3454 16.3775 78.0861 16.0384 77.9458 15.6457C77.8132 14.9875 77.7155 14.3228 77.6532 13.6543C77.6532 13.3171 77.7423 11.4466 77.7295 11.1094C77.7688 10.5413 77.9111 9.98507 78.1494 9.4679C78.3302 9.20194 78.5678 8.97948 78.8451 8.81663C79.1224 8.65378 79.4324 8.5546 79.7527 8.52628C80.1318 8.54205 80.4965 8.67548 80.7962 8.90802C81.1165 9.13599 81.3925 9.42061 81.6105 9.74785C81.7289 10.3403 81.7631 10.9464 81.7123 11.5484Z" fill="white"/>
<path d="M120.007 10.2697C119.968 9.80077 119.854 9.34111 119.67 8.90816C119.334 8.20175 118.883 7.55658 118.334 6.99947C117.833 6.57624 117.302 6.19129 116.743 5.84789C116.47 5.71428 115.802 5.45979 115.363 5.31345C114.77 5.17064 114.165 5.08541 113.556 5.05896C113.556 5.05896 113.06 5.05896 112.792 5.05896C112.172 5.17307 111.563 5.34344 110.973 5.56795C110.434 5.83074 109.941 6.17639 109.509 6.59228C107.55 8.29102 107.066 11.0459 107.213 13.4636C107.251 14.0998 107.48 15.3723 107.626 16.123C108.071 18.3817 110.171 20.4939 112.5 20.7039C114.239 20.8302 115.987 20.6536 117.666 20.1822C117.997 20.0995 119.053 19.546 119.193 19.5014C119.333 19.4569 119.485 19.126 119.498 18.9479C119.5 18.6552 119.459 18.3638 119.377 18.0826C119.274 17.721 119.149 17.3662 119.002 17.0201C118.895 16.8237 118.724 16.6691 118.518 16.5811C118.412 16.567 118.305 16.5894 118.213 16.6447C118.213 16.6447 117.825 16.8229 117.577 16.9438C117.024 17.0825 116.46 17.1719 115.891 17.211C115.541 17.2492 114.835 17.2492 114.618 17.2619C114.141 17.2312 113.67 17.1458 113.212 17.0074C112.691 16.8611 111.94 15.6459 111.851 15.4168C111.742 15.1131 111.717 14.7853 111.781 14.4688C111.844 14.2271 112.182 14.1698 112.22 14.1571C112.258 14.1444 114.943 14.2271 114.994 14.2143C115.045 14.2016 116.692 14.2143 117.252 14.2143C117.812 14.2143 118.417 14.2143 118.862 14.2143C119.119 14.2384 119.377 14.2146 119.625 14.1444C119.797 14.0565 119.94 13.922 120.039 13.7562C120.082 13.4548 120.105 13.1509 120.109 12.8464C120.127 11.9863 120.093 11.1257 120.007 10.2697ZM115.789 11.0968C115.751 11.3258 115.464 11.3895 115.121 11.364C114.16 11.294 113.212 11.3004 112.239 11.2431C112.088 11.2535 111.937 11.2535 111.787 11.2431C111.717 11.2431 111.704 10.8423 111.787 10.3715C111.993 9.75383 112.342 9.19355 112.805 8.73638C113.011 8.53734 113.262 8.39109 113.537 8.3101L114.02 8.21467C114.182 8.19608 114.345 8.21199 114.5 8.26135C114.654 8.31071 114.797 8.39239 114.917 8.50097C115.277 8.86337 115.556 9.29677 115.738 9.77344C115.806 10.2112 115.823 10.6552 115.789 11.0968Z" fill="white"/>
<path d="M122.787 20.5067C122.787 20.5067 122.59 17.4846 122.59 17.1092C122.59 16.7338 122.749 13.0373 122.775 12.7319C122.8 12.4265 122.953 9.48713 122.953 9.15629C122.953 8.82545 122.896 7.69932 122.857 7.2476C122.789 6.84827 122.64 6.46717 122.418 6.12783C122.4 6.10618 122.388 6.08024 122.383 6.0525C122.377 6.02476 122.379 5.99614 122.388 5.96935C122.397 5.94256 122.413 5.91851 122.434 5.89947C122.455 5.88044 122.48 5.86706 122.507 5.86061C123.06 5.67365 123.632 5.55194 124.213 5.49796C124.643 5.5338 125.07 5.61266 125.485 5.73337C125.893 5.87412 126.273 6.08751 126.605 6.36324C126.783 6.51578 126.945 6.68635 127.088 6.87222C127.152 6.95493 127.356 6.82132 127.438 6.77679C127.893 6.44593 128.372 6.14825 128.87 5.88606C129.377 5.6618 129.906 5.48915 130.448 5.37071C131.067 5.32199 131.69 5.34119 132.305 5.42797C132.896 5.62264 133.449 5.91748 133.941 6.29961C134.41 6.6784 134.781 7.16517 135.022 7.71841C135.259 8.24792 135.406 8.8136 135.455 9.3917C135.455 9.88796 135.493 11.065 135.531 11.2495C135.569 11.434 135.677 16.2694 135.677 16.2694C135.677 16.2694 135.614 18.6807 135.627 18.7443C135.569 19.0816 135.471 19.4106 135.334 19.7241C135.265 19.9116 135.144 20.0752 134.984 20.1949C134.686 20.3129 134.369 20.3796 134.049 20.3921C133.629 20.3921 132.776 20.4621 132.509 20.443C132.156 20.4468 131.813 20.325 131.542 20.0995C130.308 18.9097 130.747 16.492 130.702 14.946C130.702 14.5134 130.702 10.6578 130.619 10.3524C130.435 9.96192 130.123 9.64565 129.735 9.45532C129.369 9.32153 128.968 9.32153 128.603 9.45532C128.189 9.72102 127.803 10.028 127.451 10.3715C127.243 10.7183 127.127 11.1125 127.114 11.5167C127.114 11.9239 127.165 12.4965 127.177 13.1391C127.19 13.7817 127.298 18.9733 127.298 18.9733C127.298 18.9733 127.298 19.6859 127.298 19.7496C127.257 19.8879 127.18 20.013 127.076 20.1122C126.899 20.2692 126.675 20.3631 126.439 20.3794C126.089 20.3794 125.167 20.4367 124.779 20.4494C124.391 20.4621 123.716 20.4494 123.57 20.4494L122.787 20.5067Z" fill="white"/>
<path d="M151.418 12.5537C151.423 11.696 151.32 10.841 151.113 10.0088C150.813 9.01997 150.306 8.10631 149.626 7.32854C148.946 6.55077 148.108 5.92672 147.168 5.49788C145.527 4.75985 143.351 5.09069 141.716 5.64421C140.924 5.98418 140.207 6.47469 139.603 7.08846C139.091 7.72489 138.652 8.41627 138.293 9.14985C138.091 9.74993 137.973 10.3752 137.943 11.0076C137.943 11.3576 137.943 13.419 137.943 13.8198C137.943 14.2206 138.159 15.2131 138.223 15.7285C138.457 16.4939 138.777 17.2302 139.177 17.9235C139.61 18.5819 140.157 19.1573 140.793 19.6222C141.484 20.0809 142.239 20.4367 143.033 20.6784C143.549 20.7663 144.073 20.8068 144.598 20.7993C145.185 20.8114 145.771 20.7341 146.335 20.5702C147.637 20.1666 148.796 19.3982 149.675 18.3561C150.201 17.6862 150.629 16.945 150.947 16.1548C151.171 15.6579 151.294 15.1216 151.31 14.5769C151.367 14.1506 151.45 13.7625 151.418 12.5537ZM146.64 14.9777C146.61 15.6192 146.376 16.2342 145.972 16.7337C145.609 17.0391 145.336 17.4654 144.731 17.4527C144.449 17.4302 144.175 17.3496 143.925 17.2161C143.675 17.0825 143.456 16.8988 143.281 16.6765C142.916 15.9783 142.657 15.2301 142.511 14.456C142.454 13.9089 142.511 11.3639 142.511 11.1222C142.615 10.5548 142.813 10.0088 143.096 9.50614C143.363 9.14218 143.695 8.83142 144.076 8.58997C144.282 8.52058 144.496 8.47782 144.712 8.46272C144.865 8.44052 145.021 8.44877 145.17 8.48699C145.32 8.52521 145.46 8.59264 145.584 8.6854C145.927 8.86445 146.2 9.15344 146.36 9.50614C146.649 10.2204 146.804 10.9817 146.818 11.752C146.805 12.611 146.672 14.4051 146.64 14.9777Z" fill="white"/>
<path d="M151.972 5.62511C152.11 5.54551 152.264 5.4977 152.423 5.48514C152.774 5.45243 153.127 5.43968 153.479 5.44697C154.364 5.52332 155.973 5.03342 156.559 5.96868C156.859 6.50381 157.119 7.06106 157.335 7.63561C157.38 7.82011 157.876 9.73517 157.876 9.73517L159.212 15.2513L159.441 16.5238L159.6 16.5619L160.134 13.6162L161.235 9.23891L162.234 5.77145C162.405 5.64509 162.597 5.54832 162.8 5.48514C163.131 5.48514 166.618 5.33245 166.478 5.95595C166.478 6.05139 166.16 7.22842 165.969 7.81375C165.778 8.39908 164.594 12.0892 164.594 12.0892L162.972 17.8153C162.972 17.8153 162.399 19.6922 162.374 19.8194C162.298 20.0274 162.163 20.2087 161.986 20.3412C161.321 20.4633 160.65 20.5441 159.975 20.5829C159.625 20.5829 158.849 20.4938 158.302 20.4811C157.71 20.4885 157.132 20.3031 156.654 19.9531C156.145 19.5522 155.732 18.3116 155.624 18.1334C155.515 17.9553 153.67 11.0394 153.67 11.0394L152.054 6.03866C152.054 6.03866 151.863 5.72691 151.972 5.62511Z" fill="white"/>
<path d="M172.077 14.3351C172.318 14.3351 172.84 14.3351 173.05 14.3351C173.26 14.3351 176.575 14.4941 176.867 14.4814C177.16 14.4687 178.261 14.4814 178.63 14.4178C178.972 14.3742 179.302 14.2594 179.597 14.0806C179.889 13.9088 179.934 13.4444 179.985 13.0753C180.036 12.7063 179.947 10.7595 179.902 10.2759C179.791 9.61855 179.598 8.97746 179.33 8.36723C178.931 7.60432 178.392 6.92418 177.739 6.3631C176.66 5.60984 175.398 5.16145 174.086 5.06515C172.774 4.96886 171.46 5.22823 170.282 5.81594C167.101 7.46378 166.91 11.5802 167.139 14.6786C167.223 15.6589 167.513 16.6103 167.992 17.4701C168.47 18.3299 169.125 19.0785 169.913 19.6667C171.638 20.9392 173.731 20.8501 175.754 20.5829C176.444 20.4389 177.117 20.2258 177.764 19.9466C178.315 19.7372 178.847 19.4818 179.355 19.1832C180.278 18.7187 179.279 16.8418 178.636 16.5174C178.394 16.3965 178.083 16.5174 177.58 16.6891C176.899 16.8945 176.204 17.0476 175.499 17.1472C173.934 17.2808 171.911 16.5683 171.682 14.7105C171.676 14.4814 171.835 14.3605 172.077 14.3351ZM171.778 10.8676C171.822 10.6386 172.089 9.59516 172.185 9.32794C172.347 8.97801 172.594 8.67407 172.904 8.44358C173.13 8.31139 173.374 8.2128 173.629 8.15091C173.93 8.14951 174.228 8.21469 174.501 8.34178C174.858 8.54696 175.164 8.82959 175.398 9.16888C175.557 9.47427 175.665 9.49336 175.716 9.88146C175.75 10.2454 175.75 10.6118 175.716 10.9758C175.715 11.01 175.707 11.0438 175.694 11.0751C175.68 11.1065 175.66 11.1348 175.635 11.1584C175.61 11.182 175.581 11.2005 175.549 11.2129C175.517 11.2252 175.483 11.2311 175.449 11.2303C175.29 11.2303 173.852 11.2939 173.508 11.2812C173.164 11.2684 171.968 11.3257 171.911 11.3257C171.854 11.3257 171.714 11.0967 171.778 10.8676Z" fill="white"/>
<path d="M105.609 6.54129C105.578 7.13101 105.442 7.71049 105.208 8.25276C105.023 8.80876 104.759 9.33569 104.426 9.81789C104.171 10.2538 103.844 10.6432 103.459 10.9695C102.994 11.3003 102.435 11.5039 101.957 11.8093C103.019 12.3946 103.812 13.3683 104.171 14.526L104.808 16.6319C105.101 17.4686 105.577 18.2293 106.201 18.8587C106.475 19.1705 106.659 19.2532 106.271 19.5331C105.883 19.8131 105.31 20.1694 105.234 20.2076C104.99 20.316 104.737 20.4012 104.477 20.462C104.085 20.5573 103.684 20.6064 103.281 20.6084C102.6 20.5903 101.951 20.3179 101.461 19.8449C101.005 19.2728 100.683 18.6052 100.519 17.8917L99.4569 14.7932C99.293 14.2759 99.002 13.8078 98.6108 13.4317C98.1392 13.0849 97.5594 12.9179 96.9756 12.9609C96.5621 12.9609 95.7032 12.7318 95.7604 13.3172V14.8568L95.6268 16.6637L95.7604 19.9467V20.3602C95.3058 20.4025 94.849 20.4173 94.3925 20.4048C94.0744 20.4048 93.7563 20.5384 93.4 20.5384C92.6144 20.6093 91.8225 20.5447 91.0587 20.3475C91.0587 20.3475 91.0587 19.8958 91.0587 19.864V15.4676L91.1796 5.4597L91.0396 0.325309L91.2496 0.121715C92.961 0.0771786 93.61 0.185338 94.7806 0.166251C95.9513 0.147164 97.9618 0.0326423 98.6362 0.0326423C99.5327 0.00999765 100.427 0.13466 101.283 0.401657C102.065 0.567083 102.8 0.906292 103.433 1.39418C104.096 2.01377 104.621 2.76602 104.973 3.6019C105.374 4.5311 105.59 5.52948 105.609 6.54129ZM95.8368 3.59554C95.5887 3.90729 95.735 4.74076 95.735 5.08432V9.3089C95.8364 9.32202 95.939 9.32202 96.0404 9.3089C97.1665 9.3089 98.5853 9.42978 99.5269 8.90171C99.9011 8.7089 100.206 8.40421 100.399 8.03008C100.624 7.51581 100.727 6.95586 100.698 6.39496C100.726 5.99698 100.675 5.59733 100.547 5.21936C100.419 4.84139 100.217 4.49268 99.9532 4.1936C98.948 3.2138 97.3574 3.51283 96.1358 3.45557C96.0779 3.4493 96.0195 3.45904 95.9667 3.48372C95.914 3.5084 95.8691 3.54708 95.8368 3.59554Z" fill="white"/>
<path d="M18.261 28.0904C18.4302 27.9226 18.6589 27.8284 18.8972 27.8284C19.1356 27.8284 19.3643 27.9226 19.5335 28.0904L23.9362 32.4486C24.1054 32.6165 24.3341 32.7107 24.5724 32.7107C24.8108 32.7107 25.0395 32.6165 25.2087 32.4486L26.1885 31.4688C26.3563 31.2996 26.4505 31.0709 26.4505 30.8326C26.4505 30.5943 26.3563 30.3656 26.1885 30.1964L21.8048 25.8064C21.637 25.6372 21.5428 25.4085 21.5428 25.1701C21.5428 24.9318 21.637 24.7031 21.8048 24.5339L23.9235 22.4153C24.0943 22.2504 24.3224 22.1583 24.5597 22.1583C24.7971 22.1583 25.0252 22.2504 25.1959 22.4153L29.5796 26.8053C29.7504 26.9701 29.9785 27.0622 30.2158 27.0622C30.4532 27.0622 30.6813 26.9701 30.852 26.8053L31.8382 25.8191C32.003 25.6483 32.0951 25.4202 32.0951 25.1829C32.0951 24.9455 32.003 24.7174 31.8382 24.5466L21.8175 14.4751C21.6497 14.3059 21.5555 14.0772 21.5555 13.8389C21.5555 13.6005 21.6497 13.3718 21.8175 13.2026L23.9362 11.084C24.107 10.9191 24.3351 10.827 24.5724 10.827C24.8098 10.827 25.0379 10.9191 25.2087 11.084L35.2802 21.1301C35.4494 21.2979 35.6781 21.3921 35.9164 21.3921C36.1548 21.3921 36.3835 21.2979 36.5527 21.1301L37.5325 20.1503C37.7003 19.9811 37.7945 19.7524 37.7945 19.514C37.7945 19.2757 37.7003 19.047 37.5325 18.8778L19.5462 0.859727C19.3754 0.694898 19.1473 0.602783 18.91 0.602783C18.6726 0.602783 18.4445 0.694898 18.2737 0.859727L0.262021 18.8651C0.0941787 19.0343 0 19.263 0 19.5013C0 19.7397 0.0941787 19.9683 0.262021 20.1375L1.26727 21.1301C1.43648 21.2979 1.66516 21.3921 1.9035 21.3921C2.14184 21.3921 2.37052 21.2979 2.53973 21.1301L18.261 5.40242C18.4302 5.23458 18.6589 5.1404 18.8972 5.1404C19.1356 5.1404 19.3643 5.23458 19.5335 5.40242L21.6521 7.51471C21.817 7.6855 21.9091 7.91359 21.9091 8.15094C21.9091 8.3883 21.817 8.61639 21.6521 8.78717L5.93085 24.5339C5.76602 24.7047 5.6739 24.9328 5.6739 25.1701C5.6739 25.4075 5.76602 25.6356 5.93085 25.8064L6.91701 26.7925C7.08779 26.9574 7.31588 27.0495 7.55324 27.0495C7.79059 27.0495 8.01868 26.9574 8.18947 26.7925L18.261 16.7464C18.4302 16.5786 18.6589 16.4844 18.8972 16.4844C19.1356 16.4844 19.3643 16.5786 19.5335 16.7464L21.6521 18.8651C21.82 19.0343 21.9142 19.263 21.9142 19.5013C21.9142 19.7397 21.82 19.9683 21.6521 20.1375L11.606 30.2091C11.4382 30.3783 11.344 30.607 11.344 30.8453C11.344 31.0837 11.4382 31.3123 11.606 31.4816L12.5858 32.4486C12.7566 32.6135 12.9847 32.7056 13.2221 32.7056C13.4594 32.7056 13.6875 32.6135 13.8583 32.4486L18.261 28.0904Z" fill="white"/>
<path d="M105.495 25.6791C105.557 25.68 105.619 25.6984 105.671 25.7321C105.724 25.7658 105.767 25.8135 105.794 25.87C105.922 26.0893 106 26.3347 106.02 26.5879C106.041 26.8412 106.005 27.0959 105.915 27.3333C105.736 27.7787 105.571 28.0714 105.393 28.4595C104.713 30.0594 103.614 31.4464 102.212 32.4741C101.797 32.7734 101.356 33.0353 100.895 33.2567C100.844 33.2779 100.789 33.2832 100.735 33.2718C100.682 33.2605 100.633 33.233 100.596 33.193C100.372 32.943 100.122 32.717 99.8513 32.5186C99.8316 32.5068 99.8152 32.49 99.8039 32.4699C99.7925 32.4498 99.7865 32.4272 99.7865 32.4041C99.7865 32.381 99.7925 32.3584 99.8039 32.3383C99.8152 32.3182 99.8316 32.3015 99.8513 32.2896C100.498 32.0097 101.109 31.653 101.671 31.2271C102.236 30.7518 102.74 30.2091 103.172 29.611C103.729 28.8894 104.16 28.0783 104.445 27.2125C104.452 27.1922 104.454 27.1705 104.451 27.1492C104.448 27.128 104.44 27.1077 104.428 27.0903C104.415 27.0728 104.399 27.0586 104.38 27.0488C104.36 27.0391 104.339 27.0341 104.318 27.0343C104.114 27.0343 103.599 26.9516 103.23 26.9516C102.753 26.9516 102.396 27.0343 102.085 27.0343C101.994 27.0346 101.905 27.056 101.824 27.0969C101.744 27.1377 101.674 27.1969 101.62 27.2697C101.202 27.8678 100.731 28.4277 100.214 28.943C100.036 29.1227 99.7965 29.2295 99.5436 29.2425C99.2906 29.2554 99.0419 29.1736 98.8461 29.013C98.7888 28.9621 98.7252 28.9176 98.6552 28.8667C98.6341 28.85 98.6169 28.8287 98.6052 28.8045C98.5934 28.7802 98.5873 28.7536 98.5873 28.7267C98.5873 28.6997 98.5934 28.6731 98.6052 28.6489C98.6169 28.6246 98.6341 28.6034 98.6552 28.5867C99.1069 28.2413 99.5322 27.8628 99.9277 27.4542C100.318 26.997 100.665 26.5051 100.965 25.9845C101.028 25.8845 101.115 25.8022 101.218 25.7455C101.322 25.6887 101.438 25.6593 101.556 25.66H102.988L105.495 25.6791Z" fill="white"/>
<path d="M110.642 26.3154C110.642 26.9516 110.534 27.6324 110.572 28.2941C110.572 28.6886 110.623 29.0894 110.642 29.4902C110.642 29.5425 110.621 29.5927 110.584 29.6297C110.547 29.6667 110.497 29.6874 110.445 29.6874H109.878C109.715 29.6876 109.558 29.625 109.439 29.5125C109.321 29.3999 109.25 29.2462 109.242 29.083C109.242 28.7713 109.299 28.4468 109.287 28.1287V27.3397V26.2772V25.1575C109.286 25.1278 109.292 25.0985 109.304 25.0714C109.317 25.0444 109.335 25.0204 109.357 25.001C109.379 24.9816 109.406 24.9673 109.434 24.9592C109.463 24.9511 109.493 24.9492 109.522 24.9539C109.837 25.0169 110.12 25.1869 110.325 25.435C110.529 25.6832 110.641 25.9942 110.642 26.3154ZM113.823 24.9221C113.823 24.8941 113.828 24.8664 113.84 24.8408C113.851 24.8153 113.868 24.7927 113.89 24.7745C113.911 24.7563 113.936 24.7429 113.963 24.7355C113.99 24.728 114.018 24.7265 114.046 24.7312C114.375 24.7999 114.67 24.9796 114.882 25.2403C115.094 25.501 115.21 25.8267 115.21 26.1627C115.258 26.8681 115.258 27.576 115.21 28.2814C115.159 29.3679 114.802 30.4178 114.179 31.3098C113.712 31.8783 113.139 32.3514 112.493 32.7032C112.205 32.9079 111.878 33.0528 111.532 33.1294C111.291 33.1294 111.157 32.7795 111.074 32.595C111.039 32.5268 111.017 32.4521 111.011 32.3753C111.005 32.2985 111.014 32.2213 111.038 32.1483C111.063 32.0752 111.102 32.0078 111.153 31.9501C111.204 31.8924 111.266 31.8456 111.335 31.8124C111.886 31.5907 112.395 31.2742 112.837 30.8772C113.25 30.423 113.535 29.8676 113.664 29.2675C113.792 28.7075 113.866 28.1365 113.887 27.5624C113.887 27.0216 113.797 26.4554 113.797 25.9019L113.823 24.9221Z" fill="white"/>
<path d="M123.176 25.6028C122.699 27.392 121.829 29.0524 120.631 30.4637C119.902 31.2586 119.041 31.9216 118.086 32.4232C117.946 32.506 117.812 32.5823 117.672 32.6523C117.634 32.6812 117.587 32.6968 117.539 32.6968C117.424 32.6968 117.24 32.4042 117.157 32.3278C117.092 32.2588 117.043 32.1761 117.015 32.0858C116.986 31.9955 116.977 31.9 116.99 31.806C117.003 31.7121 117.037 31.6223 117.089 31.543C117.141 31.4638 117.21 31.3972 117.291 31.348C118.53 30.744 119.593 29.8302 120.376 28.6949C120.798 28.014 121.144 27.2886 121.407 26.5317C121.58 25.976 121.699 25.4051 121.763 24.8266C121.766 24.8074 121.774 24.789 121.785 24.7731C121.797 24.7572 121.812 24.7442 121.829 24.7349C121.846 24.7257 121.865 24.7206 121.885 24.7199C121.904 24.7193 121.924 24.7231 121.941 24.7312C122.322 24.9025 122.689 25.1003 123.042 25.3229C123.091 25.3491 123.131 25.3905 123.155 25.4409C123.179 25.4912 123.186 25.548 123.176 25.6028Z" fill="white"/>
<path d="M125.364 29.7065C125.295 29.6368 125.239 29.554 125.201 29.4628C125.164 29.3716 125.144 29.2739 125.144 29.1752C125.144 29.0766 125.164 28.9788 125.201 28.8877C125.239 28.7965 125.295 28.7137 125.364 28.644C126.166 27.8869 126.847 27.028 127.585 26.2136C127.711 26.0373 127.877 25.8924 128.068 25.79C128.26 25.6877 128.472 25.6306 128.689 25.6233C128.906 25.6159 129.122 25.6584 129.32 25.7475C129.518 25.8366 129.692 25.9699 129.831 26.1372C130.556 26.888 131.103 27.766 131.784 28.5613C132.414 29.3111 133.103 30.009 133.845 30.6481C133.884 30.6793 133.911 30.7229 133.922 30.7715C133.932 30.8202 133.925 30.871 133.903 30.9153C133.736 31.1999 133.549 31.472 133.343 31.7297C133.324 31.7512 133.301 31.7685 133.275 31.7803C133.25 31.7922 133.222 31.7983 133.193 31.7983C133.165 31.7983 133.137 31.7922 133.111 31.7803C133.085 31.7685 133.062 31.7512 133.044 31.7297C132.567 31.2589 132.128 30.7436 131.695 30.2282C131.442 29.924 131.211 29.603 131.001 29.2675C130.68 28.852 130.336 28.4548 129.971 28.0777C129.226 27.1488 129.086 27.028 128.819 27.028C128.444 27.028 128.138 27.3715 127.909 27.6642C127.68 27.9569 127.369 28.3004 127.108 28.6185C126.681 29.1466 126.268 29.7192 125.95 30.031C125.911 30.0691 125.858 30.0904 125.803 30.0904C125.749 30.0904 125.696 30.0691 125.657 30.031L125.364 29.7065Z" fill="white"/>
<path d="M96.3267 27.2315C96.3267 26.4426 96.0849 25.7618 95.296 25.7618L89.6208 25.8064C89.4639 25.8064 89.3134 25.8687 89.2024 25.9797C89.0914 26.0906 89.0291 26.2411 89.0291 26.3981C89.0291 26.4871 89.0291 26.5762 89.0291 26.6653C89.0736 28.574 89.08 30.4827 89.0291 32.3532C89.0291 32.3849 89.0354 32.4164 89.0475 32.4457C89.0597 32.4751 89.0775 32.5017 89.0999 32.5242C89.1224 32.5466 89.149 32.5644 89.1784 32.5766C89.2077 32.5887 89.2391 32.595 89.2709 32.595H96.0149C96.0976 32.595 96.1769 32.5621 96.2354 32.5037C96.2938 32.4452 96.3267 32.3659 96.3267 32.2832L96.244 30.6226L96.3267 27.2315ZM94.9015 31.3416C94.8661 31.351 94.8288 31.351 94.7934 31.3416C94.0744 31.3989 93.3491 31.4434 92.6238 31.437C91.8351 31.4598 91.0461 31.4001 90.2698 31.2589C90.2698 30.6226 90.3525 29.9864 90.3461 29.3502C90.3461 28.6058 90.2889 27.8678 90.2698 27.1234C90.2698 27.0643 90.2932 27.0077 90.335 26.9659C90.3767 26.9242 90.4334 26.9007 90.4924 26.9007H90.7724C91.4086 26.9007 91.555 26.8243 92.1785 26.8243H93.4064C93.6291 26.8243 94.1571 26.8943 94.3735 26.9198C94.4428 26.9181 94.5118 26.9301 94.5765 26.9551C94.6412 26.9801 94.7004 27.0175 94.7506 27.0654C94.8009 27.1133 94.8412 27.1705 94.8692 27.234C94.8973 27.2974 94.9126 27.3658 94.9143 27.4351C94.9333 27.7657 94.9333 28.0971 94.9143 28.4277C94.9143 28.7776 94.9143 29.1211 94.9143 29.4647C94.9143 29.8083 94.9143 30.1009 94.9143 30.4254V30.9026C94.9079 31.0044 94.9906 31.278 94.9015 31.3416Z" fill="white"/>
<path d="M132.725 25.5328C132.879 25.6943 133.023 25.8643 133.158 26.0418L132.999 26.2136C132.945 26.2724 132.88 26.3194 132.807 26.3516C132.734 26.3838 132.656 26.4004 132.576 26.4004C132.496 26.4004 132.418 26.3838 132.345 26.3516C132.272 26.3194 132.206 26.2724 132.153 26.2136C131.957 25.9991 131.745 25.8012 131.517 25.6219L131.587 25.5456C131.658 25.4663 131.746 25.4027 131.843 25.3588C131.941 25.3149 132.046 25.2916 132.153 25.2905C132.26 25.2893 132.366 25.3102 132.465 25.3519C132.563 25.3936 132.652 25.4552 132.725 25.5328Z" fill="white"/>
<path d="M133.686 24.6166C133.845 24.782 134.004 24.9474 134.119 25.0811C134.06 25.1307 134.005 25.1838 133.953 25.2401C133.899 25.2973 133.833 25.3428 133.76 25.3739C133.688 25.4049 133.609 25.421 133.53 25.421C133.451 25.421 133.373 25.4049 133.3 25.3739C133.227 25.3428 133.162 25.2973 133.107 25.2401C132.923 25.0422 132.728 24.8553 132.522 24.6802L132.566 24.6357C132.713 24.4855 132.913 24.3992 133.122 24.3956C133.332 24.392 133.535 24.4715 133.686 24.6166Z" fill="white"/>
<path d="M105.698 24.273C105.864 24.4304 106.021 24.596 106.169 24.7693C106.093 24.8202 105.927 24.9093 105.743 25.0365C105.659 25.0936 105.558 25.1187 105.457 25.107C105.357 25.0953 105.264 25.0477 105.196 24.9729C105.001 24.7438 104.789 24.531 104.56 24.3367L104.75 24.1903C104.893 24.0913 105.066 24.0453 105.239 24.0604C105.412 24.0755 105.575 24.1508 105.698 24.273Z" fill="white"/>
<path d="M107.327 23.993C107.492 24.1712 107.639 24.343 107.728 24.4575L107.289 24.7502C107.215 24.8002 107.125 24.8195 107.037 24.8041C106.949 24.7887 106.87 24.7397 106.818 24.6674C106.617 24.3989 106.391 24.1497 106.144 23.9231L106.207 23.8785C106.374 23.7542 106.582 23.697 106.789 23.7182C106.997 23.7394 107.188 23.8374 107.327 23.993Z" fill="white"/>
</svg>
