<?xml version="1.0" encoding="utf-8"?>
<!-- Generator: Adobe Illustrator 27.3.1, SVG Export Plug-In . SVG Version: 6.00 Build 0)  -->
<svg version="1.1" id="Layer_2_00000180333816354069679120000007870569297013466001_"
	 xmlns="http://www.w3.org/2000/svg" xmlns:xlink="http://www.w3.org/1999/xlink" x="0px" y="0px" viewBox="0 0 182.8 31.2"
	 style="enable-background:new 0 0 182.8 31.2;" xml:space="preserve">
<style type="text/css">
	.st0{fill:#AA805B;}
	.st1{fill:#FFFFFF;}
</style>
<g id="_ÉåÉCÉÑÅ__1">
	<path class="st0" d="M19.2,14.1c0.8-0.1,1.6-0.3,2.3-0.5V10c-0.5,0.2-1.3,0.4-2.3,0.6V14.1L19.2,14.1z"/>
	<path class="st0" d="M18.1,6.4c-0.6,0.2-1.5,0.4-2.5,0.4s-1.9-0.2-2.5-0.4v3.3c0.8,0.1,1.6,0.2,2.5,0.2c0.9,0,1.8-0.1,2.5-0.2
		C18.1,9.8,18.1,6.4,18.1,6.4z"/>
	<path class="st0" d="M5.4,12.2l0.8,0.4c0,0,0.9,0.4,2.4,0.9v-5l0.8,0.4c0,0,1,0.5,2.6,0.8V4.9l0.8,0.3c0,0,1.3,0.6,2.9,0.6
		s2.8-0.6,2.9-0.6l0.8-0.3v4.7c1.5-0.4,2.6-0.8,2.6-0.8l0.8-0.3v5c1.5-0.4,2.4-0.9,2.4-0.9l0.8-0.4v12.9c2.3-2.5,3.7-5.8,3.7-9.5
		c0-7.7-6.2-13.9-13.9-13.9S1.7,7.9,1.7,15.6c0,3.7,1.4,7,3.7,9.5L5.4,12.2L5.4,12.2z"/>
	<path class="st0" d="M13.1,10.9v3.4c0.8,0.1,1.7,0.1,2.5,0.1c0.9,0,1.7-0.1,2.5-0.1v-3.4c-0.8,0.1-1.6,0.2-2.5,0.2
		S13.8,11,13.1,10.9z"/>
	<path class="st0" d="M12,14.1v-3.5c-1-0.2-1.8-0.5-2.3-0.6v3.6C10.4,13.8,11.1,14,12,14.1L12,14.1z"/>
	<path class="st0" d="M15.6,31.2C7,31.2,0,24.2,0,15.6S7,0,15.6,0s15.6,7,15.6,15.6S24.2,31.2,15.6,31.2z M15.6,0.6
		c-8.3,0-15,6.7-15,15s6.7,15,15,15s15-6.7,15-15S23.9,0.6,15.6,0.6z"/>
	<path class="st0" d="M22.6,14.5v11h-1.1V14.8c-0.7,0.2-1.5,0.3-2.3,0.4v9.2h-1.1v-9.1c-0.8,0.1-1.7,0.1-2.5,0.1s-1.7-0.1-2.5-0.1
		v9.1H12v-9.2c-0.8-0.1-1.6-0.3-2.3-0.4v10.7H8.6v-11C7.7,14.3,7,14,6.5,13.8v12.3l0,0c2.4,2.1,5.6,3.4,9.1,3.4s6.7-1.3,9.1-3.4
		V13.8C24.2,14,23.5,14.3,22.6,14.5L22.6,14.5z"/>
	<path class="st1" d="M72.4,25.9c-0.2,0-0.2,0-0.2-0.3c-0.2-0.6-0.8-1-1.4-1c-0.8,0-1.2,0.4-1.2,1c0,0.5,0.3,0.8,1.2,1.1
		c1.3,0.5,2.2,0.8,2.2,1.9c0,0.8-0.6,1.6-2.2,1.6c-1.7,0-2.1-1.2-2.1-1.3c0-0.3,0.3-0.4,0.4-0.4c0.3,0,0.3,0.1,0.3,0.5
		c0.1,0.8,1,0.9,1.3,0.9c0.5,0,1.5-0.1,1.5-1.1c0-0.8-0.8-1.1-1.6-1.4c-0.9-0.4-1.7-0.6-1.7-1.6c0-1.1,0.9-1.5,1.8-1.5
		c0.4,0,0.6,0.1,1,0.2c0.1,0,0.1,0,0.2,0c0,0,0.3-0.1,0.3-0.1c0.1,0,0.1,0,0.1,0.1c0.1,0.1,0.1,0.9,0.2,1.1
		C72.6,25.7,72.6,25.9,72.4,25.9L72.4,25.9z"/>
	<path class="st1" d="M79.1,27.7c0,0.3,0,1.7,0,2c0,0,0.1,0.1,0.1,0.1c0.1,0.1,0.2,0.1,0.2,0.2c0,0.2-0.1,0.2-0.2,0.2h-0.6
		c-0.2,0-0.2,0-0.2-0.2c0,0,0-0.3,0-0.3c0-0.4,0-2,0-2.4H75c0,0.6,0,1.8,0,2.4c0,0.1,0,0.1,0.1,0.2c0.2,0.1,0.2,0.1,0.2,0.2
		c0,0.2-0.2,0.2-0.3,0.2h-0.6c-0.2,0-0.3,0-0.3-0.2c0,0,0-0.1,0-0.1c0-0.2,0-0.2,0-0.8c0-0.3,0-1.6,0-1.9v-1.8c0-0.6,0-0.7-0.4-0.7
		c-0.1,0-0.3,0-0.3-0.2c0-0.1,0.1-0.2,0.2-0.2h0.9c0.1,0,0.3,0,0.3,0.2c0,0-0.1,0.2-0.1,0.3c0,0.3,0,1.7,0,2h3.4v-1.5
		c0-0.5,0-0.6-0.3-0.6h-0.2c-0.2,0-0.2-0.1-0.2-0.2c0-0.1,0.1-0.2,0.2-0.2h0.9c0.2,0,0.3,0,0.3,0.2c0,0-0.1,0.3-0.1,0.4
		c0,0.2,0,0.6,0,0.7c0,0.2,0,1,0,1.2L79.1,27.7L79.1,27.7z"/>
	<path class="st1" d="M81.2,24.3c0.2,0,0.4,0,0.4,0.2c0,0-0.1,0.3-0.1,0.4c0,0.5,0,3.7,0,4.5c0,0.3,0.1,0.3,0.2,0.4
		c0.2,0.1,0.2,0.1,0.2,0.2c0,0.1-0.1,0.2-0.2,0.2h-0.4c-0.5,0-0.6,0-0.6-0.2c0-0.1,0-0.4,0-0.5c0-0.3,0.1-2,0.1-2.4v-1.8
		c0-0.5,0-0.6-0.1-0.7c-0.1,0-0.1,0-0.3,0c-0.1,0-0.2,0-0.2-0.2c0-0.1,0.1-0.2,0.2-0.2H81.2L81.2,24.3z"/>
	<path class="st1" d="M82.7,24.7c-0.1,0-0.2-0.1-0.2-0.2c0-0.2,0.2-0.2,0.3-0.2c0.1,0,1,0,1.1,0c0.1,0,0.2,0,0.3,0.1
		c0.1,0.1,2.6,3.7,3,4.4c0-3.3,0-4-0.1-4.1c0-0.1-0.1-0.2-0.1-0.3c0-0.1,0-0.2,0.2-0.2c0.8,0,0.8,0,0.8,0.2c0,0.1-0.1,0.1-0.2,0.2
		c-0.2,0-0.2,0.1-0.2,0.5c0,0.3,0,1.6,0,1.9c0,0.4,0.1,2.4,0.1,2.9c0,0.2-0.2,0.3-0.4,0.3c-0.2,0-0.2-0.1-0.3-0.2
		c-0.3-0.7-3.3-5-3.4-5.1c0,0.6,0,3.6,0,4.3c0,0.1,0,0.6,0,0.7c0,0.2-0.1,0.3-0.5,0.3c-0.2,0-0.2-0.1-0.2-0.2c0-0.1,0.1-0.6,0.1-0.7
		c0.1-0.6,0.1-2.8,0.1-4.1c0-0.1,0-0.5-0.3-0.5L82.7,24.7L82.7,24.7z"/>
	<path class="st1" d="M92.3,28.4h-3.4v-0.5h3.4V28.4z"/>
	<path class="st1" d="M96,30.2c-2.2,0-2.9-1.8-2.9-3c0-1.6,1.2-2.9,2.9-2.9c1.6,0,2.8,1,2.8,3C98.8,28.8,97.7,30.2,96,30.2L96,30.2z
		 M95.9,24.6c-1.4,0-2.1,1.4-2.1,2.6s0.7,2.6,2.1,2.6s2-1.4,2-2.6C98,25.9,97.2,24.6,95.9,24.6L95.9,24.6z"/>
	<path class="st1" d="M104,29.1c0.1,0.1,0.2,0.2,0.4,0.4c0.2,0.2,0.4,0.3,0.6,0.3c0.1,0,0.1,0.1,0.1,0.1s0,0.1-0.1,0.1
		c-0.1,0-0.6,0.1-0.8,0.1c-0.4,0-0.4-0.1-0.9-0.7c-0.6-0.7-0.8-0.9-1.8-2.3l-0.4,0.3c0,0.7,0,1.2,0,1.6c0,0.5,0,0.6,0.2,0.6
		c0.2,0.1,0.2,0.1,0.2,0.2c0,0.2-0.2,0.2-0.3,0.2c-0.7,0-0.8,0-0.8-0.2c0,0,0.1-0.3,0.1-0.4c0-0.2,0.1-1.5,0.1-2.6c0-0.1,0-1.7,0-2
		c0-0.1,0-0.3-0.3-0.3c-0.2,0-0.3,0-0.3-0.2c0-0.1,0.1-0.2,0.2-0.2h0.8c0.2,0,0.3,0.1,0.3,0.3c0,0.1,0,0.4,0,0.5c0,0.2,0,1.6,0,2
		c0.4-0.3,1.7-1.5,2.7-2.6c0.1-0.1,0.1-0.1,0.4-0.1h0.3c0.2,0,0.3,0,0.3,0.2c0,0.1-0.1,0.1-0.1,0.2c-0.2,0.1-0.2,0.1-0.4,0.3
		l-2.2,1.9L104,29.1L104,29.1z"/>
	<path class="st1" d="M107,28c-0.1,0.4-0.8,2.1-0.8,2.1c0,0-0.1,0.1-0.4,0.1c-0.2,0-0.3,0-0.3-0.1c0-0.1,0-0.1,0.1-0.3
		c0.2-0.4,1.5-3.3,2.1-5.1c0.1-0.4,0.2-0.6,0.6-0.6c0.2,0,0.2,0.1,0.4,0.4c0.4,1,1,2.7,1.4,3.7c0.1,0.2,0.6,1.4,0.6,1.4
		c0.1,0.1,0.1,0.1,0.3,0.2c0,0,0.1,0.1,0.1,0.2c0,0.1-0.2,0.1-0.2,0.1c-0.1,0-0.7,0-0.7,0c-0.2,0-0.2-0.1-0.3-0.2
		c-0.2-0.6-0.2-0.7-0.7-1.9L107,28L107,28z M108.2,25l-1.1,2.7h2.1L108.2,25L108.2,25z"/>
	<path class="st1" d="M114.8,24.7c-0.9,0-2,0.9-2,2.6c0,1.4,0.8,2.5,2.2,2.5c0.5,0,1.3-0.1,1.9-0.8c0.1-0.1,0.2-0.2,0.2-0.2
		c0.1,0,0.2,0.1,0.2,0.2c0,0.1-0.3,0.4-0.5,0.6c-0.5,0.5-1.2,0.6-1.9,0.6c-1.9,0-2.9-1.2-2.9-2.9c0-2,1.3-3,2.8-3
		c0.4,0,0.8,0.1,0.9,0.2c0.2,0.1,0.3,0.1,0.5,0.1c0.1,0,0.3,0,0.4,0c0.3,0,0.3,0.1,0.3,0.6c0,0.1,0.1,0.7,0.1,0.9s-0.2,0.2-0.3,0.2
		c-0.1,0-0.1,0-0.2-0.2c-0.1-0.3-0.1-0.4-0.2-0.5C116.2,25.4,115.8,24.7,114.8,24.7L114.8,24.7z"/>
	<path class="st1" d="M123.5,27.7c0,0.3,0,1.7,0,2c0,0,0.1,0.1,0.1,0.1c0.1,0.1,0.2,0.1,0.2,0.2c0,0.2-0.1,0.2-0.2,0.2H123
		c-0.2,0-0.2,0-0.2-0.2c0,0,0-0.3,0-0.3c0-0.4,0-2,0-2.4h-3.4c0,0.6,0,1.8,0,2.4c0,0.1,0,0.1,0.1,0.2c0.2,0.1,0.2,0.1,0.2,0.2
		c0,0.2-0.2,0.2-0.3,0.2h-0.6c-0.2,0-0.3,0-0.3-0.2c0,0,0-0.1,0-0.1c0-0.2,0-0.2,0-0.8c0-0.3,0-1.6,0-1.9v-1.8c0-0.6,0-0.7-0.4-0.7
		c-0.1,0-0.3,0-0.3-0.2c0-0.1,0.1-0.2,0.2-0.2h0.9c0.1,0,0.3,0,0.3,0.2c0,0-0.1,0.2-0.1,0.3c0,0.3,0,1.7,0,2h3.4v-1.5
		c0-0.5,0-0.6-0.3-0.6h-0.2c-0.2,0-0.2-0.1-0.2-0.2c0-0.1,0.1-0.2,0.2-0.2h0.9c0.2,0,0.3,0,0.3,0.2c0,0-0.1,0.3-0.1,0.4
		c0,0.2,0,0.6,0,0.7c0,0.2,0,1,0,1.2L123.5,27.7L123.5,27.7z"/>
	<path class="st1" d="M125.6,24.3c0.2,0,0.4,0,0.4,0.2c0,0-0.1,0.3-0.1,0.4c0,0.5,0,3.7,0,4.5c0,0.3,0.1,0.3,0.2,0.4
		c0.2,0.1,0.2,0.1,0.2,0.2c0,0.1-0.1,0.2-0.2,0.2h-0.4c-0.5,0-0.6,0-0.6-0.2c0-0.1,0-0.4,0-0.5c0-0.3,0.1-2,0.1-2.4v-1.8
		c0-0.5,0-0.6-0.1-0.7c-0.1,0-0.1,0-0.3,0c-0.1,0-0.2,0-0.2-0.2c0-0.1,0.1-0.2,0.2-0.2H125.6L125.6,24.3z"/>
	<path class="st1" d="M128.1,24.3c0.3,0,0.4,0,0.5,0.2c0,0,1.7,3.8,1.9,4.2c0.6-1.4,1.2-2.8,1.8-4.2c0.1-0.2,0.1-0.2,0.4-0.2h0.9
		c0.1,0,0.2,0.1,0.2,0.2c0,0.2-0.1,0.2-0.4,0.2c-0.2,0-0.2,0.1-0.2,0.3c0,0.6,0,3.8,0,4.5c0,0.2,0,0.3,0.2,0.4
		c0.2,0.1,0.2,0.1,0.2,0.2c0,0.2-0.2,0.2-0.4,0.2h-0.5c-0.2,0-0.3,0-0.3-0.2c0,0,0-0.3,0-0.4c0-0.3,0-3,0-3.5v-1
		c-0.2,0.4-1.1,2.5-1.3,3l-0.4,1c-0.1,0.1-0.2,0.5-0.2,0.5c-0.1,0.1-0.3,0.1-0.4,0.1c-0.1,0-0.2-0.1-0.2-0.2
		c-0.1-0.2-1.3-2.9-1.5-3.4l-0.3-0.7c-0.2-0.5-0.2-0.5-0.2-0.5V30c0,0.2-0.1,0.3-0.4,0.3c-0.1,0-0.2,0-0.2-0.2
		c0-0.2,0.1-1.3,0.1-1.6c0-0.7,0.1-2,0.1-3.3c0-0.4,0-0.5-0.3-0.5c-0.2,0-0.3,0-0.3-0.2c0-0.1,0.1-0.2,0.2-0.2L128.1,24.3
		L128.1,24.3z"/>
	<path class="st1" d="M136.1,28c-0.1,0.4-0.8,2.1-0.8,2.1c0,0-0.1,0.1-0.4,0.1c-0.2,0-0.3,0-0.3-0.1c0-0.1,0-0.1,0.1-0.3
		c0.2-0.4,1.5-3.3,2.1-5.1c0.1-0.4,0.2-0.6,0.6-0.6c0.2,0,0.2,0.1,0.4,0.4c0.4,1,1,2.7,1.4,3.7c0.1,0.2,0.6,1.4,0.6,1.4
		c0.1,0.1,0.1,0.1,0.3,0.2c0,0,0.1,0.1,0.1,0.2c0,0.1-0.2,0.1-0.2,0.1c-0.1,0-0.6,0-0.7,0c-0.2,0-0.2-0.1-0.3-0.2
		c-0.2-0.6-0.2-0.7-0.7-1.9L136.1,28L136.1,28z M137.3,25l-1.1,2.7h2.1L137.3,25L137.3,25z"/>
	<path class="st1" d="M143.9,24.7c-0.9,0-2,0.9-2,2.6c0,1.4,0.8,2.5,2.2,2.5c0.5,0,1.3-0.1,1.9-0.8c0.1-0.1,0.2-0.2,0.2-0.2
		c0.1,0,0.2,0.1,0.2,0.2c0,0.1-0.3,0.4-0.5,0.6c-0.5,0.5-1.2,0.6-1.9,0.6c-1.9,0-2.9-1.2-2.9-2.9c0-2,1.3-3,2.8-3
		c0.4,0,0.8,0.1,0.9,0.2c0.2,0.1,0.3,0.1,0.5,0.1c0.1,0,0.3,0,0.4,0c0.3,0,0.3,0.1,0.3,0.6c0,0.1,0.1,0.7,0.1,0.9s-0.2,0.2-0.3,0.2
		c-0.1,0-0.1,0-0.2-0.2c-0.1-0.3-0.1-0.4-0.2-0.5C145.2,25.4,144.8,24.7,143.9,24.7L143.9,24.7z"/>
	<path class="st1" d="M152.5,27.7c0,0.3,0,1.7,0,2c0,0,0.1,0.1,0.1,0.1c0.1,0.1,0.2,0.1,0.2,0.2c0,0.2-0.1,0.2-0.2,0.2H152
		c-0.2,0-0.2,0-0.2-0.2c0,0,0-0.3,0-0.3c0-0.4,0-2,0-2.4h-3.4c0,0.6,0,1.8,0,2.4c0,0.1,0,0.1,0.1,0.2c0.2,0.1,0.2,0.1,0.2,0.2
		c0,0.2-0.1,0.2-0.3,0.2h-0.6c-0.1,0-0.3,0-0.3-0.2c0,0,0-0.1,0-0.1c0-0.2,0-0.2,0-0.8c0-0.3,0-1.6,0-1.9v-1.8c0-0.6,0-0.7-0.4-0.7
		c-0.1,0-0.3,0-0.3-0.2c0-0.1,0.1-0.2,0.2-0.2h0.9c0.1,0,0.4,0,0.4,0.2c0,0-0.1,0.2-0.1,0.3c0,0.3,0,1.7,0,2h3.4v-1.5
		c0-0.5,0-0.6-0.3-0.6h-0.2c-0.2,0-0.2-0.1-0.2-0.2c0-0.1,0.1-0.2,0.2-0.2h0.9c0.2,0,0.3,0,0.3,0.2c0,0-0.1,0.3-0.1,0.4
		c0,0.2,0,0.6,0,0.7c0,0.2,0,1,0,1.2L152.5,27.7L152.5,27.7z"/>
	<path class="st1" d="M154.6,24.3c0.1,0,0.4,0,0.4,0.2c0,0-0.1,0.3-0.1,0.4c0,0.5,0,3.7,0,4.5c0,0.3,0.1,0.3,0.1,0.4
		c0.2,0.1,0.2,0.1,0.2,0.2c0,0.1-0.1,0.2-0.2,0.2h-0.4c-0.5,0-0.6,0-0.6-0.2c0-0.1,0-0.4,0-0.5c0-0.3,0.1-2,0.1-2.4v-1.8
		c0-0.5,0-0.6-0.1-0.7c-0.1,0-0.1,0-0.3,0c-0.1,0-0.2,0-0.2-0.2c0-0.1,0.1-0.2,0.2-0.2H154.6L154.6,24.3z"/>
	<polygon class="st1" points="117,7.1 121.9,7.1 121.9,20 123.3,20 123.3,7.1 128.2,7.1 128.2,5.8 117,5.8 	"/>
	<polygon class="st1" points="155.2,5.8 153.9,5.8 153.9,20 165.2,20 165.2,18.6 155.2,18.6 	"/>
	<path class="st1" d="M178.7,7.1h4.2V5.8h-4.2c-3.7,0-6.7,2.8-7,6.4H170v1.3h1.6c0.3,3.6,3.4,6.4,7,6.4h4.2v-1.3h-4.2
		c-3,0-5.4-2.2-5.8-5.2h8.8v-1.3h-8.8C173.2,9.3,175.7,7.1,178.7,7.1L178.7,7.1z"/>
	<path class="st1" d="M144.8,5.8c-0.1,0.1-0.6,0.7-4.2,5.8l-0.2,0.2l-0.2-0.2c-3.6-5-4.1-5.7-4.2-5.8h-1.5l5.2,7.3V20h1.4v-6.8
		l5.2-7.3L144.8,5.8L144.8,5.8z"/>
	<path class="st1" d="M85,20.1c-3.1,0-5.6-2.4-5.6-5.2v-4c0-2.9,2.5-5.2,5.6-5.2s5.6,2.3,5.6,5.2v4C90.6,17.8,88.1,20.1,85,20.1z
		 M85,7c-2.4,0-4.3,1.8-4.3,3.9v4c0,2.2,1.9,3.9,4.3,3.9s4.3-1.8,4.3-3.9v-4C89.3,8.8,87.3,7,85,7z"/>
	<path class="st1" d="M102.5,13.5C102.5,13.5,102.5,13.5,102.5,13.5h3.5c0,0,0,0,0,0H102.5z"/>
	<path class="st1" d="M106,12.2C106,12.2,106,12.2,106,12.2h-3.5c0,0,0,0,0,0H106z"/>
	<path class="st1" d="M102.5,7.1h7.3V5.8h-7.3c-2.2,0-3.9,1.8-3.9,3.9c0,1,0.4,1.9,1,2.6c0.7,0.8,1.7,1.3,2.9,1.3h3.5c0,0,0,0,0,0
		c1.4,0,2.6,1.1,2.6,2.5s-1.2,2.6-2.6,2.6h-7.3v1.3h7.3c2.2,0,3.9-1.8,3.9-3.9c0-1-0.4-1.9-1-2.5c-0.7-0.8-1.7-1.3-2.9-1.3h-3.5
		c0,0,0,0,0,0c-1.4,0-2.6-1.2-2.6-2.6S101.1,7.1,102.5,7.1z"/>
	<path class="st1" d="M44,20h-1.3v-6.4h-1.6v-1.3h1.6V5.8h7.4c2.2,0,3.9,1.8,3.9,3.9s-1.8,3.9-3.9,3.9H44L44,20L44,20z M44,12.3h6.1
		c1.4,0,2.6-1.2,2.6-2.6s-1.2-2.6-2.6-2.6H44L44,12.3L44,12.3z"/>
	<path class="st1" d="M72.5,19.5l-3.4-5.9c1.9-0.3,3.3-1.9,3.3-3.9c0-2.2-1.8-3.9-3.9-3.9h-7.4v6.5h-1.6v1.3h1.6V20h1.3v-6.4h5.2
		l3.7,6.4L72.5,19.5L72.5,19.5z M62.4,7.1h6.1c1.4,0,2.6,1.2,2.6,2.6s-1.2,2.6-2.6,2.6h-6.1V7.1L62.4,7.1z"/>
</g>
</svg>
