<svg width="60" height="49" viewBox="0 0 60 49" fill="none" xmlns="http://www.w3.org/2000/svg">
<path fill-rule="evenodd" clip-rule="evenodd" d="M38.4642 44.0733C38.4642 43.4493 37.9598 42.9448 37.3365 42.9448H25.9518C25.3286 42.9448 24.8237 43.4493 24.8237 44.0733C24.8237 44.6957 25.3286 45.2006 25.9518 45.2006H37.3365C37.9598 45.2006 38.4642 44.6957 38.4642 44.0733" fill="#0092B7"/>
<path fill-rule="evenodd" clip-rule="evenodd" d="M22.8684 45.2006C23.4916 45.2006 23.9977 44.6954 23.9977 44.0733C23.9977 43.4493 23.4916 42.9448 22.8684 42.9448H21.1847C20.5619 42.9448 20.0566 43.4493 20.0566 44.0733C20.0566 44.6954 20.5619 45.2006 21.1847 45.2006H22.8684Z" fill="#0092B7"/>
<mask id="mask0_0_3330" style="mask-type:luminance" maskUnits="userSpaceOnUse" x="0" y="0" width="39" height="46">
<path fill-rule="evenodd" clip-rule="evenodd" d="M0 0H38.4646V45.2006H0V0Z" fill="white"/>
</mask>
<g mask="url(#mask0_0_3330)">
<path fill-rule="evenodd" clip-rule="evenodd" d="M12.8503 4.85956H15.6031V9.03142L12.8503 11.4409V4.85956ZM18.2588 42.9449H10.9276V24.3281H27.0677C27.6909 24.3281 28.1954 23.824 28.1954 23.2016C28.1954 22.5776 27.6909 22.0731 27.0677 22.0731H4.12874L26.3453 2.62618L36.5945 11.597C37.0624 12.0075 37.7745 11.96 38.185 11.4909C38.5959 11.0222 38.5483 10.3093 38.0792 9.8996L27.0881 0.279565C26.663 -0.0931884 26.0276 -0.0931884 25.6026 0.279565L17.8581 7.05794V3.73186C17.8581 3.10903 17.3536 2.60299 16.7308 2.60299H11.7218C11.0998 2.60299 10.5945 3.10903 10.5945 3.73186V13.4156L0.385083 22.3519C0.0315964 22.6617 -0.0934413 23.1579 0.0724892 23.5975C0.238027 24.0371 0.658358 24.3281 1.12784 24.3281H8.67178V44.0734C8.67178 44.6955 9.17783 45.2007 9.79908 45.2007H18.2588C18.882 45.2007 19.3873 44.6955 19.3873 44.0734C19.3873 43.4494 18.882 42.9449 18.2588 42.9449V42.9449Z" fill="#0092B7"/>
</g>
<path fill-rule="evenodd" clip-rule="evenodd" d="M22.8684 30.9917H15.9151C15.2931 30.9917 14.7886 31.497 14.7886 32.1198C14.7886 32.743 15.2931 33.2475 15.9151 33.2475H22.8684C23.4917 33.2475 23.9977 32.743 23.9977 32.1198C23.9977 31.497 23.4917 30.9917 22.8684 30.9917" fill="#0092B7"/>
<path fill-rule="evenodd" clip-rule="evenodd" d="M22.8684 35.9712H15.9151C15.2931 35.9712 14.7886 36.4765 14.7886 37.0993C14.7886 37.7217 15.2931 38.227 15.9151 38.227H22.8684C23.4917 38.227 23.9977 37.7217 23.9977 37.0993C23.9977 36.4765 23.4917 35.9712 22.8684 35.9712" fill="#0092B7"/>
<mask id="mask1_0_3330" style="mask-type:luminance" maskUnits="userSpaceOnUse" x="0" y="0" width="60" height="49">
<path fill-rule="evenodd" clip-rule="evenodd" d="M0 48.583H60V0H0V48.583Z" fill="white"/>
</mask>
<g mask="url(#mask1_0_3330)">
<path fill-rule="evenodd" clip-rule="evenodd" d="M32.1767 38.0451H57.7449V17.007H32.1767V38.0451ZM29.9209 15.8797V39.1732C29.9209 39.7957 30.4262 40.3017 31.0486 40.3017H43.8319V46.3279H38.8131C38.1907 46.3279 37.6858 46.8332 37.6858 47.456C37.6858 48.0792 38.1907 48.5829 38.8131 48.5829H51.1077C51.7301 48.5829 52.2354 48.0792 52.2354 47.456C52.2354 46.8332 51.7301 46.3279 51.1077 46.3279H46.0889V40.3017H58.8722C59.4955 40.3017 59.9999 39.7957 59.9999 39.1732V15.8797C59.9999 15.2572 59.4955 14.752 58.8722 14.752H31.0486C30.4262 14.752 29.9209 15.2572 29.9209 15.8797V15.8797Z" fill="#0092B7"/>
<path fill-rule="evenodd" clip-rule="evenodd" d="M47.003 30.6967C47.003 31.4064 46.6392 32.032 46.0892 32.3973V28.9953C46.6392 29.3614 47.003 29.987 47.003 30.6967V30.6967ZM43.8322 26.0577C43.2829 25.6912 42.918 25.0649 42.918 24.3567C42.918 23.6474 43.2829 23.0218 43.8322 22.655V26.0577ZM47.003 24.3567C47.003 24.9796 47.5074 25.4836 48.1303 25.4836C48.7543 25.4836 49.258 24.9796 49.258 24.3567C49.258 22.377 47.9112 20.711 46.0892 20.2132V19.0308C46.0892 18.4076 45.5839 17.9023 44.9599 17.9023C44.3374 17.9023 43.8322 18.4076 43.8322 19.0308V20.2132C42.0097 20.711 40.6626 22.377 40.6626 24.3567C40.6626 26.3357 42.0097 28.0021 43.8322 28.4983V32.3973C43.2829 32.032 42.918 31.4064 42.918 30.6967C42.918 30.0743 42.4139 29.5682 41.7907 29.5682C41.1675 29.5682 40.6626 30.0743 40.6626 30.6967C40.6626 32.6753 42.0097 34.3417 43.8322 34.8383V36.0222C43.8322 36.645 44.3374 37.1495 44.9599 37.1495C45.5839 37.1495 46.0892 36.645 46.0892 36.0222V34.8383C47.9112 34.3417 49.258 32.6753 49.258 30.6967C49.258 28.7173 47.9112 27.0505 46.0892 26.5535V22.655C46.6392 23.0218 47.003 23.6474 47.003 24.3567V24.3567Z" fill="#0092B7"/>
</g>
</svg>
