<svg width="60" height="61" viewBox="0 0 60 61" fill="none" xmlns="http://www.w3.org/2000/svg">
<path fill-rule="evenodd" clip-rule="evenodd" d="M52.959 58.0044C54.3048 58.0044 55.6508 58.0001 56.9966 58.0068C57.4489 58.009 57.7105 57.7452 57.8552 57.3746C57.9946 57.0174 58.0314 56.5771 57.6746 56.362C57.3661 56.1757 56.9043 56.0143 56.5903 56.1088C55.5586 56.4191 55.2153 56.2554 54.7212 55.2686C54.5001 54.8271 54.082 54.3909 53.6435 54.1715C52.7616 53.7299 51.575 54.178 51.1103 55.2354C50.6049 56.3857 50.3834 56.4971 49.4111 56.1245C48.9351 55.9422 48.5094 56.003 48.2116 56.3306C47.9586 56.6087 47.8347 57.0381 48.0566 57.4311C48.2793 57.8255 48.6153 58.02 49.097 58.0119C50.384 57.9908 51.6716 58.0047 52.959 58.0044M57.9622 14.0677C57.7549 14.0451 57.5477 14.0031 57.3403 14.0028C54.0067 13.9987 50.6731 14.0027 47.3395 13.997C46.8215 13.9961 46.2808 14.0143 46.0555 13.3769C45.8446 12.78 46.1455 12.1976 46.7754 12.0487C46.9803 12.0002 47.1994 11.9979 47.4119 11.9978C51.1159 11.9948 54.8199 12.007 58.5238 11.984C59.1159 11.9803 59.5419 12.2677 59.9998 12.542V12.6591C59.9728 12.6632 59.9458 12.6671 59.9188 12.6713C59.9458 12.7062 59.9728 12.7413 59.9998 12.7762V56.7196C59.8839 56.8077 59.7681 56.8959 59.6521 56.984C59.7681 57.0911 59.8839 57.1984 59.9998 57.3055V57.657C59.9369 57.7009 59.8316 57.7338 59.8172 57.7901C59.5079 58.9939 58.6453 59.6217 57.5389 60.0007H57.3045C57.2164 59.8847 57.1282 59.7689 57.0402 59.653C56.933 59.7689 56.8258 59.8847 56.7186 60.0007H48.1642C47.1214 59.4983 46.344 58.7974 46.0311 57.6056C45.6923 56.3144 46.6045 54.5707 47.898 54.263C48.3551 54.1542 48.8292 54.1175 49.2887 54.0162C49.4268 53.9857 49.5828 53.8755 49.6606 53.756C51.0456 51.6296 53.8153 51.5833 55.6194 52.9926C55.7352 53.0831 55.8311 53.2171 55.8972 53.3502C56.223 54.0073 56.8498 54.0739 57.4596 54.1152C57.5963 54.1246 57.7903 53.8912 57.886 53.7276C57.9751 53.5754 57.9993 53.367 57.9993 53.1834C58.0041 40.2997 58.0038 27.4162 58.003 14.5327C58.003 14.416 57.9917 14.2992 57.9855 14.1825C57.989 14.1685 57.9983 14.1528 57.9949 14.1409C57.9874 14.1156 57.9735 14.0921 57.9622 14.0677" fill="#0092B7"/>
<path fill-rule="evenodd" clip-rule="evenodd" d="M2.01279 48.1661C2.01279 48.6534 1.92634 49.1597 2.02893 49.6242C2.34609 51.0609 3.83369 52.2098 5.1528 52.021C6.78613 51.7875 7.99987 50.7104 7.94733 48.8643C7.89934 47.1809 7.70223 45.4974 7.48884 43.8244C7.28557 42.2313 7.01523 40.6386 6.19673 39.2135C5.99963 38.8703 5.76084 38.5402 5.48962 38.2528C5.18905 37.9345 4.56134 37.9724 4.34707 38.3444C3.91866 39.0879 3.45944 39.8354 3.18059 40.6394C2.33728 43.0705 2.07076 45.6066 2.01279 48.1661M1.51584 39.1385C2.00178 38.2308 2.48316 37.3213 3.27481 36.6258C3.45577 36.4669 3.61016 36.1205 3.7719 36.1236C4.52509 36.1375 5.2978 36.1579 6.02311 36.3381C7.00364 36.5819 7.47725 37.4403 7.95393 38.2506C8.10833 38.5133 8.28092 38.7655 8.44515 39.0225C8.44882 39.1316 8.45249 39.241 8.45616 39.3503C9.09253 41.0204 9.41541 42.7617 9.60664 44.5293C9.70982 45.482 9.63218 46.4763 9.87918 47.3858C10.1965 48.5543 9.87228 49.6367 9.68663 50.7273C9.59666 51.2565 9.14301 51.7516 8.77772 52.1998C8.23161 52.8702 7.56442 53.4068 6.71598 53.6781C6.54089 53.7341 6.38385 53.8466 6.21845 53.9331C6.148 54.0437 6.07741 54.1544 6.00696 54.2651C6.00696 55.7841 6.00696 57.3031 6.00696 58.8222C6.00564 58.9434 6.00447 59.0647 6.00315 59.1859C5.7604 59.4574 5.5178 59.7289 5.27505 60.0004H4.57191C4.49368 59.9301 4.4156 59.8597 4.33738 59.7894C4.03108 59.5094 3.9803 59.1601 3.98588 58.7576C4.00643 57.275 3.98148 55.7918 4.00393 54.3092C4.00877 53.9878 3.86612 53.867 3.61178 53.79C1.76446 53.2304 0.521079 52.0153 0.165617 50.1382C-0.0483652 49.008 0.0875381 47.8048 0.123789 46.6363C0.148592 45.8345 0.332193 45.0364 0.339238 44.2358C0.35186 42.7762 0.867001 41.4309 1.18108 40.0394C1.23068 39.8198 1.2709 39.5979 1.31551 39.3772C1.38229 39.2976 1.44907 39.2181 1.51584 39.1385" fill="#0092B7"/>
<mask id="mask0_0_3139" style="mask-type:luminance" maskUnits="userSpaceOnUse" x="13" y="56" width="31" height="5">
<path fill-rule="evenodd" clip-rule="evenodd" d="M13.9351 56.0015H43.9294V60.0004H13.9351V56.0015Z" fill="white"/>
</mask>
<g mask="url(#mask0_0_3139)">
<path fill-rule="evenodd" clip-rule="evenodd" d="M14.2066 59.6481C14.1199 59.3439 13.9823 59.0437 13.958 58.7347C13.9166 58.2107 13.943 57.681 13.9474 57.1537C13.9534 56.4557 14.3905 56.0225 15.0961 56.0081C15.1937 56.0062 15.2915 56.0078 15.3891 56.0078C24.4507 56.0106 33.5125 56.0181 42.5741 56.0015C43.0097 56.0007 43.4374 56.0222 43.6741 56.3468C43.8624 56.6053 44.0104 57.1113 43.8799 57.3319C43.696 57.6424 43.2518 57.8189 42.8909 57.9951C42.7335 58.0719 42.5066 58.0048 42.3113 58.0048C33.6792 58.0047 25.0472 58.0047 16.4151 58.0047C16.2804 58.0047 16.1456 58.0047 15.9924 58.0047C15.7817 58.6579 16.3112 59.594 15.2593 59.8926C15.1343 59.9286 15.0091 59.9645 14.8841 60.0005H14.4153C14.3457 59.8829 14.2762 59.7655 14.2066 59.6481" fill="#0092B7"/>
</g>
<mask id="mask1_0_3139" style="mask-type:luminance" maskUnits="userSpaceOnUse" x="57" y="57" width="3" height="4">
<path fill-rule="evenodd" clip-rule="evenodd" d="M57.5391 57.6567H60V60.0004H57.5391V57.6567Z" fill="white"/>
</mask>
<g mask="url(#mask1_0_3139)">
<path fill-rule="evenodd" clip-rule="evenodd" d="M57.5391 60.0004C58.6455 59.6215 59.508 58.9936 59.8173 57.7899C59.8318 57.7335 59.937 57.7006 60 57.6567V60.0004H57.5391Z" fill="#0092B7"/>
</g>
<path fill-rule="evenodd" clip-rule="evenodd" d="M56.7188 60.0005L57.0403 59.6528C57.1284 59.7688 57.2166 59.8846 57.3046 60.0005H56.7188Z" fill="#0092B7"/>
<path fill-rule="evenodd" clip-rule="evenodd" d="M60 57.3056C59.8841 57.1985 59.7683 57.0913 59.6523 56.984C59.7683 56.896 59.8841 56.8078 60 56.7197V57.3056Z" fill="#0092B7"/>
<mask id="mask2_0_3139" style="mask-type:luminance" maskUnits="userSpaceOnUse" x="14" y="59" width="1" height="2">
<path fill-rule="evenodd" clip-rule="evenodd" d="M14.1807 59.6484H14.6807V60.1484H14.1807V59.6484Z" fill="white"/>
</mask>
<g mask="url(#mask2_0_3139)">
<path fill-rule="evenodd" clip-rule="evenodd" d="M14.2355 59.6484C14.3839 59.8151 14.5323 59.9817 14.6807 60.1485H14.1807C14.1991 59.9817 14.2173 59.8151 14.2355 59.6484" fill="#0092B7"/>
</g>
<mask id="mask3_0_3139" style="mask-type:luminance" maskUnits="userSpaceOnUse" x="14" y="59" width="2" height="2">
<path fill-rule="evenodd" clip-rule="evenodd" d="M14.8838 59.8969H15.3838V60.3306H14.8838V59.8969Z" fill="white"/>
</mask>
<g mask="url(#mask3_0_3139)">
<path fill-rule="evenodd" clip-rule="evenodd" d="M14.8838 60.3307C15.0504 60.2082 15.217 60.0857 15.3838 59.9632C15.3719 60.0847 15.3613 60.2072 15.3521 60.3307H14.8838Z" fill="#0092B7"/>
</g>
<mask id="mask4_0_3139" style="mask-type:luminance" maskUnits="userSpaceOnUse" x="15" y="0" width="30" height="54">
<path fill-rule="evenodd" clip-rule="evenodd" d="M15.9873 0H44.0069V53.9465H15.9873V0Z" fill="white"/>
</mask>
<g mask="url(#mask4_0_3139)">
<path fill-rule="evenodd" clip-rule="evenodd" d="M43.3596 0.093489C43.4758 0.183455 43.5919 0.273568 43.7082 0.363535C43.8046 0.861651 43.9657 1.35742 43.9842 1.85847C44.0261 2.98929 43.9973 4.12274 43.9973 5.25503C43.9973 20.9714 43.9998 36.6877 43.9838 52.4041C43.9833 52.82 43.8802 53.3096 43.6417 53.6271C43.4686 53.8572 42.9626 53.9959 42.6581 53.9301C42.2307 53.838 41.9134 53.4847 41.9874 52.9459C42.0136 52.7543 41.9929 52.5561 41.9929 52.3608C41.9929 36.1369 41.9935 19.9129 41.9904 3.68906C41.9904 3.16364 41.9535 2.63823 41.9338 2.11296C41.9012 2.08111 41.8685 2.04926 41.8359 2.01756C40.7258 2.01155 39.6155 2.00039 38.5054 2.0001C31.9001 1.99848 25.2949 1.99922 18.6896 2.0001C18.4756 2.0001 18.2618 2.01155 18.048 2.01756C18.0152 2.04941 17.9827 2.08111 17.9501 2.11296C17.9693 2.92178 18.0054 3.73059 18.0056 4.53941C18.0089 20.5345 18.0083 36.5295 18.0069 52.5246C18.0069 53.0215 18.1981 53.6172 17.491 53.8129C17.1917 53.8957 16.7972 54.0063 16.5705 53.8802C16.3138 53.7377 16.1516 53.361 16.0342 53.0532C15.9506 52.8343 16.0043 52.5611 16.0043 52.3121C16.0035 35.5553 16.0024 18.7985 16.009 2.04178C16.0093 1.49097 16.1201 0.940316 16.1207 0.389512C16.121 0.0365446 16.2773 -0.000146327 16.5605 4.36353e-07C25.2711 0.00410982 33.9815 0.00264219 42.6921 0.0070451C42.9146 0.00719187 43.1371 0.0634024 43.3596 0.093489" fill="#0092B7"/>
</g>
<path fill-rule="evenodd" clip-rule="evenodd" d="M36.0002 53.2095C35.8923 53.2923 35.7845 53.375 35.6766 53.4578C35.5766 53.6057 35.4767 53.7537 35.3768 53.9016C34.4686 54.1931 33.9939 53.8438 33.9935 52.879C33.9923 50.1295 33.9929 47.3799 33.9929 44.6304C33.9929 44.4386 33.9929 44.2468 33.9929 44.0272H26.0082C26.0082 44.2277 26.0082 44.4361 26.0082 44.6445C26.0082 47.277 26.0115 49.9096 26.0032 52.5421C26.0025 52.8056 25.9748 53.0838 25.8863 53.3288C25.7253 53.7747 25.4141 54.1 24.8956 54.0152C24.4497 53.9423 24.0655 53.7372 24.0034 53.209C24.0008 53.0489 23.998 52.8889 23.9954 52.729C23.9954 49.8423 23.9954 46.9554 23.9954 43.9984C23.0639 43.9984 22.1513 43.9977 21.2388 43.9987C20.6671 43.9993 20.199 43.8872 20.0267 43.2182C19.8918 42.6944 20.1421 42.1612 20.6747 42.0774C20.9984 42.0264 21.3294 41.9979 21.6571 41.9976C27.2801 41.9929 32.9032 41.9939 38.5262 41.9953C38.7011 41.9953 38.88 41.99 39.0503 42.0227C39.6677 42.1414 40.007 42.5481 39.9628 43.0932C39.9201 43.6202 39.5585 43.9641 38.9377 43.9887C38.2163 44.0175 37.4932 43.9976 36.7709 43.9986C36.5385 43.9989 36.3064 43.9986 36.0058 43.9986V52.8461C36.0039 52.9672 36.0021 53.0884 36.0002 53.2095" fill="#0092B7"/>
<mask id="mask5_0_3139" style="mask-type:luminance" maskUnits="userSpaceOnUse" x="0" y="11" width="14" height="23">
<path fill-rule="evenodd" clip-rule="evenodd" d="M0 11.9951H13.9561V33.9967H0V11.9951Z" fill="white"/>
</mask>
<g mask="url(#mask5_0_3139)">
<path fill-rule="evenodd" clip-rule="evenodd" d="M2.0158 14.1822C2.00978 17.6752 2.00201 21.1682 1.99819 24.6611C1.99525 27.1983 2.00201 29.7354 1.99217 32.2723C1.99085 32.6118 1.9386 32.9554 1.87139 33.2893C1.771 33.7875 1.31471 34.0784 0.730591 33.9764C0.272834 33.8966 -0.000293291 33.6017 2.36348e-07 33.0973C0.00366933 26.3837 0.00572403 19.6703 0.00234846 12.9567C0.00205493 12.4467 0.2812 12.1897 0.726481 12.0757C0.948535 12.0189 1.18527 11.9988 1.41539 11.9985C5.12353 11.994 8.83166 11.994 12.5398 11.9987C12.7704 11.999 13.0119 12.0108 13.229 12.0791C13.7217 12.2339 14.0035 12.58 13.9496 13.1133C13.8982 13.6208 13.5607 13.8852 13.0812 13.9707C12.8911 14.0046 12.6927 13.9985 12.4981 13.9986C9.21927 14.0001 5.94056 13.9985 2.66171 14.0026C2.45419 14.0029 2.24666 14.0448 2.03914 14.0674C2.03136 14.1057 2.02358 14.1439 2.0158 14.1822" fill="#0092B7"/>
</g>
<mask id="mask6_0_3139" style="mask-type:luminance" maskUnits="userSpaceOnUse" x="0" y="0" width="60" height="61">
<path fill-rule="evenodd" clip-rule="evenodd" d="M0 60.0006H60V0H0V60.0006Z" fill="white"/>
</mask>
<g mask="url(#mask6_0_3139)">
<path fill-rule="evenodd" clip-rule="evenodd" d="M50.0399 47.8995H51.9732V44.0794H50.0399V47.8995ZM48.0172 45.9527C48.0172 44.958 48.0326 43.963 48.0116 42.9689C47.9985 42.3558 48.3443 42.051 48.8728 42.0354C50.255 41.9946 51.6405 41.9863 53.0223 42.0343C53.6369 42.0556 54.0009 42.5544 54.0057 43.2374C54.0191 45.0708 54.0201 46.9045 54.0059 48.7379C53.9994 49.5712 53.5123 50.0119 52.6637 50.0094C51.4155 50.0057 50.1673 50.0035 48.9192 49.994C48.3794 49.9898 48.0509 49.7319 48.0461 49.1682C48.0368 48.0965 48.0434 47.0245 48.0434 45.9527C48.0346 45.9527 48.026 45.9527 48.0172 45.9527V45.9527Z" fill="#0092B7"/>
<path fill-rule="evenodd" clip-rule="evenodd" d="M34.01 11.8369L34.1034 11.9365H35.9699V8.10832H34.104C34.0725 8.14134 34.0413 8.17436 34.01 8.20753V11.8369ZM31.9966 9.9276C31.9966 8.99184 31.9952 8.05607 31.997 7.1203C31.9985 6.38017 32.1458 6.07784 32.8694 6.04364C34.2617 5.97775 35.6608 6.0454 37.057 6.07079C37.7569 6.08342 37.9704 6.59988 37.9797 7.15509C38.0114 9.06492 38.0337 10.9771 37.9722 12.8856C37.9453 13.7162 37.5472 13.9822 36.8605 13.9943C35.5179 14.0178 34.1747 14.022 32.8317 14.0197C32.4148 14.0189 32.0095 13.5287 32.0045 13.0271C31.9942 11.994 32.0014 10.9608 32.0014 9.9276H31.9966Z" fill="#0092B7"/>
<path fill-rule="evenodd" clip-rule="evenodd" d="M34.1035 35.9587H35.9509V32.1067H34.1112C34.0817 32.0803 34.0522 32.0539 34.0225 32.0275C34.0193 32.0567 34.0161 32.086 34.0128 32.1154C34.012 33.3632 34.0111 34.6111 34.0102 35.859C34.0413 35.8922 34.0724 35.9255 34.1035 35.9587M31.9976 33.9856C31.9976 33.0105 31.9962 32.0354 31.9982 31.0603C31.9995 30.4473 32.3864 30.0162 32.9977 30.0078C34.2456 29.9907 35.4956 29.9618 36.7415 30.0147C37.7268 30.0567 38.0083 30.5415 37.9988 31.3594C37.9781 33.1142 37.9948 34.8697 37.9915 36.6248C37.9896 37.6359 37.5697 38.0438 36.6088 38.0044C35.4406 37.9567 34.2684 37.9708 33.0991 38.0006C32.4426 38.0173 31.9389 37.5497 31.9821 36.8514C32.0409 35.8995 31.9967 34.9412 31.9976 33.9856" fill="#0092B7"/>
<path fill-rule="evenodd" clip-rule="evenodd" d="M50.044 35.9401H51.9886V32.0871H50.044V35.9401ZM48.035 33.9639C48.035 32.9305 48.0256 31.897 48.0386 30.8638C48.0458 30.2991 48.4105 30.0246 48.9248 30.0141C50.2119 29.9875 51.5002 29.9844 52.7873 30.0088C53.5716 30.0234 53.9973 30.4693 54.0049 31.2726C54.0219 33.0867 54.0618 34.9032 53.9907 36.7149C53.9481 37.8022 53.6249 38.0191 52.6739 37.999C51.5234 37.9745 50.3707 37.9612 49.2211 38.0033C48.3198 38.0363 47.9836 37.5163 48.0017 36.7733C48.0243 35.8374 48.0071 34.9004 48.0071 33.9641C48.0163 33.9641 48.0257 33.9639 48.035 33.9639V33.9639Z" fill="#0092B7"/>
<path fill-rule="evenodd" clip-rule="evenodd" d="M25.8977 11.9366C25.9289 11.9036 25.9602 11.8706 25.9914 11.8374V8.20809C25.9605 8.17493 25.9294 8.14161 25.8982 8.10844H24.0528V11.9366H25.8977ZM22.0094 9.92288C22.0094 9.0059 22.0047 8.08892 22.0109 7.17209C22.0165 6.37252 22.1508 6.0878 22.9078 6.0398C24.2664 5.9538 25.6369 5.96422 26.9971 6.03437C27.6891 6.07004 27.9939 6.51635 28.0001 7.24914C28.0155 9.10233 28.0203 10.956 27.9974 12.809C27.9885 13.5339 27.527 14.0081 26.8079 14.0023C25.5789 13.9924 24.3496 13.9935 23.1206 14.0006C22.4525 14.0044 21.9704 13.6014 22.0003 12.8488C22.0389 11.8748 22.0097 10.8983 22.0094 9.92288V9.92288Z" fill="#0092B7"/>
<path fill-rule="evenodd" clip-rule="evenodd" d="M34.104 20.0608C34.0727 20.0938 34.0414 20.1268 34.01 20.16V23.9064C34.0411 23.9398 34.0723 23.9729 34.1034 24.0062C34.5881 24.0127 35.0757 24.0512 35.5559 24.0071C35.7109 23.9929 35.9673 23.7653 35.9711 23.6295C36.0041 22.4514 35.9902 21.2719 35.9902 20.0608H34.104ZM31.9966 22.0019C31.9966 21.066 31.9966 20.1301 31.9964 19.194C31.9964 18.5625 32.4335 18.034 33.0558 18.0214C34.3615 17.9949 35.6692 17.9864 36.9744 18.0268C37.7104 18.0494 37.9558 18.5135 37.9748 19.2267C38.0253 21.1168 38.0021 23.0093 37.9851 24.9005C37.9788 25.5953 37.5018 26.0115 36.8087 26.0102C35.5801 26.0077 34.3517 26.0075 33.1231 26.01C32.2957 26.0116 31.9985 25.715 31.997 24.8683C31.9952 23.9129 31.9966 22.9575 31.9966 22.0019V22.0019Z" fill="#0092B7"/>
<path fill-rule="evenodd" clip-rule="evenodd" d="M25.9914 20.1607C25.9603 20.1276 25.9292 20.0943 25.8981 20.0611H24.033V24.0258C24.5535 24.0258 25.0544 24.008 25.5534 24.0316C25.928 24.0492 26.0176 23.8775 26.0126 23.5422C25.9954 22.4152 25.997 21.2879 25.9914 20.1607M22.01 22.0014C22.01 21.0067 22.0009 20.0118 22.0134 19.0172C22.0212 18.3956 22.336 18.0457 22.9609 18.031C24.2279 18.0014 25.4966 17.9913 26.7634 18.0177C27.564 18.0344 27.9927 18.501 28.0002 19.3277C28.0161 21.1222 28.0326 22.9174 27.9918 24.711C27.9751 25.4511 27.7054 26.0787 26.6561 26.0253C25.4111 25.9619 24.1603 26.0179 22.9119 26.0141C22.39 26.0125 22.0618 25.7309 22.0475 25.2182C22.0175 24.1468 22.0384 23.0739 22.0384 22.0016C22.029 22.0014 22.0194 22.0014 22.01 22.0014" fill="#0092B7"/>
<path fill-rule="evenodd" clip-rule="evenodd" d="M25.9888 32.1133C25.9584 32.0838 25.9282 32.0543 25.8978 32.0248H24.0317V35.9589H25.8975C25.9288 35.9259 25.9602 35.8927 25.9914 35.8597C25.9905 34.6109 25.9897 33.3621 25.9888 32.1133M22.0104 34.0168C22.0104 33.0418 22.0005 32.0667 22.0137 31.0919C22.0238 30.3333 22.3515 30.0109 23.1135 30.0046C24.3029 29.9947 25.4926 29.993 26.6819 30.005C27.5614 30.0138 27.9972 30.4537 28.0022 31.3416C28.0119 33.0964 28.0147 34.8516 28.0016 36.6064C27.993 37.7634 27.3974 38.022 26.6086 38.0014C25.4199 37.9706 24.2297 38.0032 23.0404 37.9891C22.2623 37.9799 22.0422 37.7726 22.0242 36.9996C22.0011 36.0059 22.0185 35.0111 22.0185 34.0168C22.0159 34.0168 22.0131 34.0168 22.0104 34.0168" fill="#0092B7"/>
<path fill-rule="evenodd" clip-rule="evenodd" d="M9.99249 20.0687H8.02498V24.0255C8.53704 24.0255 9.0193 24.0109 9.50025 24.03C9.88814 24.0454 10.0035 23.8745 9.99822 23.5056C9.98237 22.3778 9.99249 21.2496 9.99249 20.0687M11.8348 18.5245C11.8881 18.9003 11.9835 19.2759 11.9875 19.6524C12.0042 21.3086 11.997 22.9651 11.9938 24.6215C11.9919 25.6355 11.6129 26.0086 10.5954 26.0093C9.38709 26.0102 8.17893 26.0102 6.97077 26.0093C6.33749 26.0087 5.99509 25.6631 5.9945 25.023C5.99274 23.0743 5.99098 21.1256 5.992 19.1768C5.9923 18.5871 6.39942 18.0497 6.95903 18.0346C8.30236 17.9983 9.6473 18.0151 10.9915 18.0234C11.1129 18.0243 11.2337 18.1201 11.3546 18.1719C11.5147 18.2894 11.6747 18.4069 11.8348 18.5245" fill="#0092B7"/>
<path fill-rule="evenodd" clip-rule="evenodd" d="M50.0207 23.9792H51.9708V20.0738H50.0207V23.9792ZM53.7897 18.6132C53.8633 18.8972 53.9973 19.1806 54.0006 19.4655C54.0206 21.1625 54.0125 22.8599 54.0099 24.557C54.0081 25.649 53.6512 26.0093 52.5835 26.0094C51.4324 26.0096 50.2814 26.0137 49.1304 26.0075C48.3838 26.0035 48.0326 25.7171 48.0231 24.9931C47.9967 23.0037 48.0043 21.0137 48.0131 19.024C48.015 18.6005 48.504 18.0466 48.9142 18.0385C50.2789 18.0121 51.6442 18.0199 53.0091 18.0262C53.1104 18.0268 53.2112 18.1198 53.3122 18.1699C53.3933 18.1994 53.4743 18.2287 53.5555 18.2582C53.632 18.3409 53.7084 18.4235 53.7849 18.5061C53.7561 18.5362 53.7275 18.5663 53.6987 18.5964C53.7291 18.6019 53.7594 18.6077 53.7897 18.6132V18.6132Z" fill="#0092B7"/>
<path fill-rule="evenodd" clip-rule="evenodd" d="M9.99157 32.133H7.97019C7.97019 32.4016 7.97577 32.6495 7.96916 32.8971C7.94876 33.6607 7.18941 34.2416 6.48978 33.9527C6.25657 33.8564 6.02351 33.474 6.00165 33.2053C5.93722 32.4111 5.94896 31.607 5.98829 30.8095C6.01573 30.2518 6.47716 30.0319 6.93888 30.0175C8.2439 29.9766 9.55142 29.9831 10.857 30.0098C11.5515 30.024 11.9867 30.4941 11.9906 31.1883C12.0018 33.0793 11.9918 34.9705 11.995 36.8617C11.9964 37.7 11.6951 37.9004 10.8215 38.0724C10.4537 38.1447 9.98922 37.5232 9.99025 37.0283C9.99377 35.4117 9.99157 33.795 9.99157 32.133" fill="#0092B7"/>
<path fill-rule="evenodd" clip-rule="evenodd" d="M30.9382 49.0748C30.9317 49.5595 30.3765 50.0581 29.8637 50.0398C29.4431 50.0246 28.9214 49.4631 28.9498 49.0239C28.9865 48.4569 29.4061 48.0307 30.0327 48.0489C30.6009 48.0655 30.9463 48.4616 30.9382 49.0748" fill="#0092B7"/>
<path fill-rule="evenodd" clip-rule="evenodd" d="M11.8347 18.5244C11.6746 18.4068 11.5146 18.2894 11.3545 18.1719C11.5146 18.2894 11.6746 18.4068 11.8347 18.5244" fill="#0092B7"/>
<path fill-rule="evenodd" clip-rule="evenodd" d="M23.9954 52.729C23.998 52.889 24.0008 53.0491 24.0034 53.2091C23.6923 53.0542 23.6897 52.8943 23.9954 52.729" fill="#0092B7"/>
<path fill-rule="evenodd" clip-rule="evenodd" d="M35.377 53.9013C35.4769 53.7534 35.5768 53.6055 35.6768 53.4575C35.5768 53.6055 35.4769 53.7534 35.377 53.9013" fill="#0092B7"/>
<path fill-rule="evenodd" clip-rule="evenodd" d="M36.0005 53.2096C36.0024 53.0885 36.0042 52.9673 36.0061 52.8462C36.0687 52.8976 36.1314 52.9489 36.1941 53.0001C36.1295 53.07 36.0651 53.1397 36.0005 53.2096" fill="#0092B7"/>
<path fill-rule="evenodd" clip-rule="evenodd" d="M6.00684 54.2649C6.07728 54.1543 6.14788 54.0438 6.21832 53.9331C6.14788 54.0438 6.07728 54.1543 6.00684 54.2649" fill="#0092B7"/>
<path fill-rule="evenodd" clip-rule="evenodd" d="M6.00293 59.1861C6.0041 59.0649 6.00542 58.9436 6.0066 58.8223C6.06985 58.8739 6.13326 58.9254 6.19651 58.9771C6.13194 59.0468 6.06751 59.1164 6.00293 59.1861" fill="#0092B7"/>
<path fill-rule="evenodd" clip-rule="evenodd" d="M1.51576 39.1387C1.44898 39.2182 1.38221 39.2978 1.31543 39.3773C1.38221 39.2978 1.44898 39.2182 1.51576 39.1387" fill="#0092B7"/>
<path fill-rule="evenodd" clip-rule="evenodd" d="M8.45584 39.3505C8.45217 39.2411 8.4485 39.1318 8.44483 39.0225C8.4485 39.1318 8.45217 39.2411 8.45584 39.3505" fill="#0092B7"/>
<path fill-rule="evenodd" clip-rule="evenodd" d="M53.5553 18.2587C53.4742 18.2292 53.3932 18.1998 53.312 18.1703C53.3932 18.1998 53.4742 18.2292 53.5553 18.2587" fill="#0092B7"/>
<path fill-rule="evenodd" clip-rule="evenodd" d="M53.7898 18.6132C53.7594 18.6076 53.7292 18.6021 53.6988 18.5965C53.7275 18.5664 53.7562 18.5363 53.7848 18.5062C53.7883 18.5417 53.7899 18.5774 53.7898 18.6132" fill="#0092B7"/>
<path fill-rule="evenodd" clip-rule="evenodd" d="M57.9625 14.0678C57.9738 14.092 57.9877 14.1155 57.9951 14.141C57.9986 14.1529 57.9893 14.1686 57.9858 14.1825C57.9676 14.1571 57.9469 14.1331 57.9334 14.1055C57.9303 14.0992 57.9521 14.0807 57.9625 14.0678" fill="#0092B7"/>
<path fill-rule="evenodd" clip-rule="evenodd" d="M2.01582 14.1825C2.0236 14.1442 2.03138 14.1061 2.03916 14.0678C2.04547 14.0962 2.05574 14.1248 2.05574 14.1535C2.05574 14.1632 2.02991 14.1728 2.01582 14.1825" fill="#0092B7"/>
<path fill-rule="evenodd" clip-rule="evenodd" d="M41.836 2.01738C41.8685 2.04923 41.9013 2.08093 41.9339 2.11278C41.9013 2.08093 41.8685 2.04923 41.836 2.01738" fill="#0092B7"/>
<path fill-rule="evenodd" clip-rule="evenodd" d="M17.9502 2.11278C17.9828 2.08093 18.0155 2.04923 18.0481 2.01738C18.0155 2.04923 17.9828 2.08093 17.9502 2.11278" fill="#0092B7"/>
<path fill-rule="evenodd" clip-rule="evenodd" d="M52.9591 58.0046C51.6717 58.0046 50.3841 57.9906 49.0971 58.0118C48.6155 58.0197 48.2794 57.8254 48.0567 57.431C47.8348 57.038 47.9587 56.6086 48.2117 56.3304C48.5095 56.0029 48.9353 55.942 49.4112 56.1244C50.3835 56.4969 50.605 56.3855 51.1105 55.2353C51.5751 54.1779 52.7617 53.7298 53.6436 54.1714C54.0821 54.3908 54.5003 54.827 54.7213 55.2685C55.2154 56.2552 55.5587 56.4189 56.5905 56.1085C56.9044 56.0142 57.3663 56.1756 57.6748 56.3617C58.0315 56.577 57.9947 57.0172 57.8553 57.3744C57.7106 57.745 57.449 58.0088 56.9967 58.0066C55.6509 58 54.3049 58.0043 52.9591 58.0046" fill="#0092B7"/>
<path fill-rule="evenodd" clip-rule="evenodd" d="M34.0101 11.8365L34.1035 11.9362L34.0101 11.8365Z" fill="#0092B7"/>
<path fill-rule="evenodd" clip-rule="evenodd" d="M34.1042 8.10825C34.073 8.14127 34.0417 8.17429 34.0103 8.20746C34.0417 8.17429 34.073 8.14127 34.1042 8.10825" fill="#0092B7"/>
<path fill-rule="evenodd" clip-rule="evenodd" d="M34.0101 35.859C34.0412 35.8922 34.0723 35.9255 34.1035 35.9587C34.0723 35.9255 34.0412 35.8922 34.0101 35.859" fill="#0092B7"/>
<path fill-rule="evenodd" clip-rule="evenodd" d="M34.1109 32.1071L34.0622 32.1171L34.0124 32.1156C34.0157 32.0863 34.019 32.0571 34.0223 32.0277C34.0518 32.0541 34.0814 32.0807 34.1109 32.1071" fill="#0092B7"/>
<path fill-rule="evenodd" clip-rule="evenodd" d="M25.8976 11.9365C25.9288 11.9034 25.9601 11.8704 25.9914 11.8373C25.9601 11.8704 25.9288 11.9034 25.8976 11.9365" fill="#0092B7"/>
<path fill-rule="evenodd" clip-rule="evenodd" d="M25.9911 8.20817C25.96 8.175 25.9289 8.14169 25.8978 8.10852C25.9289 8.14169 25.96 8.175 25.9911 8.20817" fill="#0092B7"/>
<path fill-rule="evenodd" clip-rule="evenodd" d="M34.1042 20.0609C34.073 20.0939 34.0417 20.1269 34.0103 20.1601C34.0417 20.1269 34.073 20.0939 34.1042 20.0609" fill="#0092B7"/>
<path fill-rule="evenodd" clip-rule="evenodd" d="M34.0101 23.9064C34.0412 23.9395 34.0723 23.9729 34.1035 24.006C34.0723 23.9729 34.0412 23.9395 34.0101 23.9064" fill="#0092B7"/>
<path fill-rule="evenodd" clip-rule="evenodd" d="M25.9911 20.1603C25.96 20.1271 25.9289 20.0938 25.8978 20.0607C25.9289 20.0938 25.96 20.1271 25.9911 20.1603" fill="#0092B7"/>
<path fill-rule="evenodd" clip-rule="evenodd" d="M25.8976 35.9589C25.9288 35.9259 25.9601 35.8929 25.9914 35.8597C25.9601 35.8929 25.9288 35.9259 25.8976 35.9589" fill="#0092B7"/>
<path fill-rule="evenodd" clip-rule="evenodd" d="M25.9885 32.1132C25.9581 32.0837 25.9279 32.0542 25.8975 32.0247C25.9279 32.0542 25.9581 32.0837 25.9885 32.1132" fill="#0092B7"/>
</g>
</svg>
