<svg width="38" height="60" viewBox="0 0 38 60" fill="none" xmlns="http://www.w3.org/2000/svg">
<mask id="mask0_0_3320" style="mask-type:luminance" maskUnits="userSpaceOnUse" x="0" y="0" width="38" height="60">
<path fill-rule="evenodd" clip-rule="evenodd" d="M0 0H37.5938V60H0V0Z" fill="white"/>
</mask>
<g mask="url(#mask0_0_3320)">
<path fill-rule="evenodd" clip-rule="evenodd" d="M35.3392 17.8825L28.9587 14.0739C28.4255 13.7558 27.7326 13.93 27.413 14.4656C27.0933 15.0003 27.2691 15.6924 27.8038 16.0113L35.3392 20.5087V27.5746L33.0028 26.1815C32.4692 25.863 31.7764 26.0375 31.4571 26.5727C31.1374 27.1078 31.3136 27.7999 31.8467 28.1188L35.3392 30.2024V37.2686L29.843 33.9909C29.3082 33.6708 28.6162 33.845 28.2969 34.3805C27.9768 34.9157 28.1534 35.6069 28.6873 35.927L35.3392 39.8968V46.9631L31.0588 44.4084C30.5236 44.0907 29.8308 44.2649 29.5127 44.7989C29.1934 45.3332 29.3672 46.0268 29.9031 46.3461L35.3392 49.5901V56.6579L32.5777 55.0096C32.0422 54.6911 31.3497 54.8661 31.0297 55.4C30.7108 55.9352 30.8857 56.628 31.4209 56.9457L32.757 57.7431H20.0813V50.1799L28.2827 55.0729C28.4636 55.1818 28.663 55.2333 28.8604 55.2333C29.2441 55.2333 29.6177 55.0375 29.8292 54.6832C30.1489 54.1481 29.9735 53.456 29.4392 53.1367L20.0813 47.5529V40.4858L23.1333 42.3067C23.3142 42.4141 23.5132 42.4664 23.7114 42.4664C24.0939 42.4664 24.4691 42.2706 24.6802 41.9175C24.9995 41.3811 24.8241 40.6891 24.2886 40.369L20.0813 37.8576V30.7918L25.3207 33.9181C25.502 34.0271 25.701 34.0778 25.898 34.0778C26.2821 34.0778 26.6572 33.882 26.8672 33.5289C27.1873 32.9933 27.0119 32.3009 26.4768 31.9812L20.0813 28.1648V21.0977L28.2316 25.9609C28.4125 26.069 28.6122 26.1209 28.8088 26.1209C29.1934 26.1209 29.5666 25.9243 29.7785 25.5704C30.0978 25.0353 29.9224 24.3436 29.3873 24.0243L20.0813 18.4711V11.4029L23.7157 13.5722C23.8969 13.6803 24.0967 13.7311 24.2937 13.7311C24.6771 13.7311 25.0522 13.5356 25.2629 13.1822C25.5822 12.6478 25.4069 11.955 24.8717 11.6357L20.0813 8.7763V3.11378L35.3392 12.2184V17.8825ZM37.0437 10.6102L19.5308 0.158068C19.4876 0.131723 19.4412 0.108917 19.3944 0.0884708C19.3904 0.0865048 19.3865 0.0857184 19.383 0.084932C19.3248 0.0613398 19.265 0.0432524 19.2052 0.0294903C19.1891 0.025165 19.1738 0.0220194 19.1561 0.0188738C19.0896 0.00668446 19.0216 0 18.9548 0H18.9536H18.952C18.884 0 18.8187 0.00747087 18.7523 0.0188738C18.7354 0.0220194 18.7192 0.025165 18.7039 0.0287039C18.6402 0.0432524 18.5781 0.0613398 18.5175 0.0865048C18.5124 0.0900436 18.5065 0.0927961 18.5006 0.0951553C18.4605 0.112849 18.4212 0.13133 18.3831 0.154136L0.557563 10.6051C0.21233 10.8076 0 11.1776 0 11.5787V58.8712C0 59.4941 0.504087 60.0001 1.12731 60.0001H7.93917C8.56122 60.0001 9.06688 59.4941 9.06688 58.8712C9.06688 58.2492 8.56122 57.7431 7.93917 57.7431H2.25542V12.2247L17.8263 3.0953V57.7431H15.8335C15.2111 57.7431 14.7054 58.2492 14.7054 58.8712C14.7054 59.4941 15.2111 60.0001 15.8335 60.0001H36.4665C37.0889 60.0001 37.5938 59.4941 37.5938 58.8712V11.5787C37.5938 11.1807 37.3854 10.8135 37.0437 10.6102V10.6102Z" fill="#0092B7"/>
</g>
<path fill-rule="evenodd" clip-rule="evenodd" d="M12.3746 57.7432H11.3219C10.6991 57.7432 10.1938 58.2492 10.1938 58.8713C10.1938 59.4941 10.6991 60.0002 11.3219 60.0002H12.3746C12.9978 60.0002 13.5019 59.4941 13.5019 58.8713C13.5019 58.2492 12.9978 57.7432 12.3746 57.7432" fill="#0092B7"/>
<path fill-rule="evenodd" clip-rule="evenodd" d="M27.9346 42.5448L27.1494 42.0765C26.6135 41.756 25.9214 41.9326 25.6021 42.4666C25.2833 43.0017 25.4582 43.6945 25.993 44.013L26.7794 44.4825C26.9599 44.5899 27.1588 44.6414 27.355 44.6414C27.7392 44.6414 28.1143 44.4463 28.3251 44.0925C28.6447 43.5569 28.4698 42.8641 27.9346 42.5448" fill="#0092B7"/>
<path fill-rule="evenodd" clip-rule="evenodd" d="M13.158 11.4766C12.5348 11.4766 12.0303 11.981 12.0303 12.6039V50.7922C12.0303 51.415 12.5348 51.9195 13.158 51.9195C13.7808 51.9195 14.2853 51.415 14.2853 50.7922V12.6039C14.2853 11.981 13.7808 11.4766 13.158 11.4766" fill="#0092B7"/>
<path fill-rule="evenodd" clip-rule="evenodd" d="M6.23389 23.2105V40.1847C6.23389 40.8091 6.73915 41.3136 7.36238 41.3136C7.98482 41.3136 8.4897 40.8091 8.4897 40.1847V23.2105C8.4897 22.5885 7.98482 22.084 7.36238 22.084C6.73915 22.084 6.23389 22.5885 6.23389 23.2105" fill="#0092B7"/>
</svg>
