<svg width="86" height="86" viewBox="0 0 86 86" fill="none" xmlns="http://www.w3.org/2000/svg">
<mask id="mask0_0_4911" style="mask-type:luminance" maskUnits="userSpaceOnUse" x="0" y="0" width="86" height="86">
<path fill-rule="evenodd" clip-rule="evenodd" d="M0 0H85.7976V85.7978H0V0Z" fill="white"/>
</mask>
<g mask="url(#mask0_0_4911)">
<path fill-rule="evenodd" clip-rule="evenodd" d="M85.798 42.899C85.798 66.591 66.591 85.798 42.899 85.798C19.206 85.798 0 66.591 0 42.899C0 19.206 19.206 0 42.899 0C66.591 0 85.798 19.206 85.798 42.899" fill="#366796"/>
</g>
<mask id="mask1_0_4911" style="mask-type:luminance" maskUnits="userSpaceOnUse" x="20" y="17" width="66" height="69">
<path fill-rule="evenodd" clip-rule="evenodd" d="M20.1167 17.355H85.6097V85.7979H20.1167V17.355Z" fill="white"/>
</mask>
<g mask="url(#mask1_0_4911)">
<path fill-rule="evenodd" clip-rule="evenodd" d="M56.0567 17.355L20.1167 69.37L35.9867 85.24C38.2367 85.605 40.5447 85.798 42.8987 85.798C65.2387 85.798 83.5867 68.72 85.6097 46.909L56.0567 17.355Z" fill="#273B7A"/>
</g>
<path fill-rule="evenodd" clip-rule="evenodd" d="M27.1789 69.8176H21.2559C20.3119 69.8176 19.5469 69.0526 19.5469 68.1086V62.1856C19.5469 61.2416 20.3119 60.4766 21.2559 60.4766H27.1789C28.1219 60.4766 28.8869 61.2426 28.8869 62.1856V68.1086C28.8879 69.0526 28.1219 69.8176 27.1789 69.8176" fill="#D48B07"/>
<path fill-rule="evenodd" clip-rule="evenodd" d="M64.5409 69.8176H58.6189C57.6739 69.8176 56.9089 69.0526 56.9089 68.1086V62.1856C56.9089 61.2416 57.6739 60.4766 58.6189 60.4766H64.5409C65.4849 60.4766 66.2499 61.2426 66.2499 62.1856V68.1086C66.2489 69.0526 65.4839 69.8176 64.5409 69.8176" fill="#D48B07"/>
<path fill-rule="evenodd" clip-rule="evenodd" d="M61.5798 30.6161C61.5798 40.9331 53.2158 58.6371 42.8988 58.6371C32.5808 58.6371 24.2178 40.9331 24.2178 30.6161C24.2178 20.2981 32.5808 11.9341 42.8988 11.9341C53.2158 11.9341 61.5798 20.2981 61.5798 30.6161" fill="#FFEDB5"/>
<path fill-rule="evenodd" clip-rule="evenodd" d="M61.5798 30.6165C61.5798 20.3145 53.2418 11.9625 42.9468 11.9365V58.6365C53.2418 58.5815 61.5798 40.9175 61.5798 30.6165" fill="#FEE187"/>
<path fill-rule="evenodd" clip-rule="evenodd" d="M21.8825 63.9447C18.0135 63.9447 14.8765 60.8087 14.8765 56.9397V40.6647C14.8765 36.7957 18.0125 33.6597 21.8825 33.6597C25.7515 33.6597 28.8885 36.7957 28.8885 40.6647V56.9397C28.8885 60.8087 25.7515 63.9447 21.8825 63.9447" fill="#D48B07"/>
<path fill-rule="evenodd" clip-rule="evenodd" d="M63.9152 63.9447C60.0462 63.9447 56.9092 60.8087 56.9092 56.9397V40.6647C56.9092 36.7957 60.0462 33.6597 63.9152 33.6597C67.7842 33.6597 70.9202 36.7957 70.9202 40.6647V56.9397C70.9202 60.8087 67.7842 63.9447 63.9152 63.9447" fill="#D48B07"/>
<path fill-rule="evenodd" clip-rule="evenodd" d="M61.8449 65.1483H23.9529C21.5199 65.1483 19.5469 63.1753 19.5469 60.7423V50.8713C19.5469 48.4393 21.5199 46.4663 23.9529 46.4663H61.8449C64.2779 46.4663 66.2499 48.4393 66.2499 50.8713V60.7423C66.2489 63.1753 64.2779 65.1483 61.8449 65.1483" fill="#FEE187"/>
<path fill-rule="evenodd" clip-rule="evenodd" d="M61.844 46.4663H42.946V65.1483H61.844C64.277 65.1483 66.249 63.1753 66.249 60.7423V50.8713C66.249 48.4393 64.277 46.4663 61.844 46.4663" fill="#FFC61B"/>
</svg>
