<svg width="81" height="81" viewBox="0 0 81 81" fill="none" xmlns="http://www.w3.org/2000/svg">
<mask id="mask0_0_4862" style="mask-type:luminance" maskUnits="userSpaceOnUse" x="0" y="0" width="81" height="81">
<path fill-rule="evenodd" clip-rule="evenodd" d="M0 0H80.1616V80.162H0V0Z" fill="white"/>
</mask>
<g mask="url(#mask0_0_4862)">
<path fill-rule="evenodd" clip-rule="evenodd" d="M80.1615 40.081C80.1615 62.217 62.2165 80.162 40.0805 80.162C17.9445 80.162 -0.000488281 62.217 -0.000488281 40.081C-0.000488281 17.945 17.9445 0 40.0805 0C62.2165 0 80.1615 17.945 80.1615 40.081" fill="url(#paint0_radial_0_4862)"/>
</g>
<path fill-rule="evenodd" clip-rule="evenodd" d="M79.6276 33.5758L62.8246 16.7718V15.9878H16.3866V35.1738H16.1526H11.4106C10.4516 35.1738 9.67456 35.9508 9.67456 36.9088V57.4958C9.67456 58.1768 10.0726 58.7618 10.6446 59.0448C10.7826 59.3228 25.0806 73.6468 30.5296 79.0078C33.5916 79.7558 36.7876 80.1618 40.0806 80.1618C62.2166 80.1618 80.1616 62.2168 80.1616 40.0808C80.1616 37.8648 79.9746 35.6938 79.6276 33.5758Z" fill="#BDBDBD"/>
<path fill-rule="evenodd" clip-rule="evenodd" d="M66.079 33.1543H62.8251V15.9883H16.386V35.1743H16.153H11.41C10.452 35.1743 9.67505 35.9503 9.67505 36.9093V57.4953C9.67505 58.4533 10.452 59.2303 11.41 59.2303H16.153H20.894C21.852 59.2303 22.628 58.4533 22.628 57.4953V46.9393H35.414V49.7363H33.605V52.6893H45.606V49.7363H43.796V46.9393H48.5541V56.8733C48.5541 57.9643 49.439 58.8493 50.531 58.8493H58.3041H66.079C67.17 58.8493 68.055 57.9643 68.055 56.8733V35.1303C68.055 34.0393 67.17 33.1543 66.079 33.1543" fill="#FDAF3A"/>
<mask id="mask1_0_4862" style="mask-type:luminance" maskUnits="userSpaceOnUse" x="0" y="0" width="81" height="81">
<path fill-rule="evenodd" clip-rule="evenodd" d="M0 80.162H80.162V0H0V80.162Z" fill="white"/>
</mask>
<g mask="url(#mask1_0_4862)">
<path fill-rule="evenodd" clip-rule="evenodd" d="M16.387 46.9388H62.825V15.9878H16.387V46.9388Z" fill="#0F303F"/>
<path fill-rule="evenodd" clip-rule="evenodd" d="M18.386 43.5398H60.825V17.9878H18.386V43.5398Z" fill="white"/>
<path fill-rule="evenodd" clip-rule="evenodd" d="M49.7642 17.9883H18.3862V43.5403H24.6442L49.7642 17.9883Z" fill="#E8E8E8"/>
<path fill-rule="evenodd" clip-rule="evenodd" d="M35.4141 49.737H43.7961V46.939H35.4141V49.737Z" fill="black"/>
<path fill-rule="evenodd" clip-rule="evenodd" d="M33.605 52.6888H45.606V49.7368H33.605V52.6888Z" fill="#0F303F"/>
<path fill-rule="evenodd" clip-rule="evenodd" d="M50.5307 33.1543C49.4397 33.1543 48.5537 34.0393 48.5537 35.1303V56.8733C48.5537 57.9643 49.4397 58.8493 50.5307 58.8493H58.3037V33.1543H50.5307Z" fill="#0F303F"/>
<path fill-rule="evenodd" clip-rule="evenodd" d="M66.0792 33.1543H58.3042V58.8493H66.0792C67.1702 58.8493 68.0552 57.9643 68.0552 56.8733V35.1303C68.0552 34.0393 67.1702 33.1543 66.0792 33.1543" fill="#0F303F"/>
<path fill-rule="evenodd" clip-rule="evenodd" d="M59.3931 57.3458C59.3931 57.9468 58.9051 58.4338 58.3041 58.4338C57.7031 58.4338 57.2161 57.9468 57.2161 57.3458C57.2161 56.7438 57.7031 56.2578 58.3041 56.2578C58.9051 56.2578 59.3931 56.7438 59.3931 57.3458" fill="white"/>
<path fill-rule="evenodd" clip-rule="evenodd" d="M63.7163 34.1963C63.7163 34.4033 63.5483 34.5703 63.3413 34.5703C63.1343 34.5703 62.9663 34.4033 62.9663 34.1963C62.9663 33.9883 63.1343 33.8203 63.3413 33.8203C63.5483 33.8203 63.7163 33.9883 63.7163 34.1963" fill="white"/>
<path fill-rule="evenodd" clip-rule="evenodd" d="M58.2628 35.2832H49.4148V55.5652H58.2628H67.1948V35.2832H58.2628Z" fill="#FFD028"/>
<path fill-rule="evenodd" clip-rule="evenodd" d="M63.8408 35.2832H58.2628H49.4148V52.7372L63.8408 35.2832Z" fill="#FDAF3A"/>
<path fill-rule="evenodd" clip-rule="evenodd" d="M20.8941 35.1743H16.1531V59.2303H20.8941C21.8521 59.2303 22.6281 58.4533 22.6281 57.4953V36.9093C22.6281 35.9503 21.8521 35.1743 20.8941 35.1743" fill="#0F303F"/>
<path fill-rule="evenodd" clip-rule="evenodd" d="M11.4103 35.1743C10.4523 35.1743 9.67529 35.9503 9.67529 36.9093V57.4953C9.67529 58.4533 10.4523 59.2303 11.4103 59.2303H16.1533V35.1743H11.4103Z" fill="#0F303F"/>
<path fill-rule="evenodd" clip-rule="evenodd" d="M13.5181 36.57H18.7861V36.137H13.5181V36.57Z" fill="white"/>
<path fill-rule="evenodd" clip-rule="evenodd" d="M16.1527 56.0088C15.5347 56.0088 15.0327 56.5108 15.0327 57.1278C15.0327 57.7448 15.5347 58.2468 16.1527 58.2468C16.7697 58.2468 17.2717 57.7448 17.2717 57.1278C17.2717 56.5108 16.7697 56.0088 16.1527 56.0088M16.1527 58.5578C15.3637 58.5578 14.7217 57.9168 14.7217 57.1278C14.7217 56.3398 15.3637 55.6978 16.1527 55.6978C16.9407 55.6978 17.5827 56.3398 17.5827 57.1278C17.5827 57.9168 16.9407 58.5578 16.1527 58.5578" fill="white"/>
<path fill-rule="evenodd" clip-rule="evenodd" d="M16.2157 37.7827H10.3037V54.8297H16.2157H21.9997V37.7827H16.2157Z" fill="#FFD028"/>
<path fill-rule="evenodd" clip-rule="evenodd" d="M17.7144 37.7827H16.2154H10.3044V45.9727L17.7144 37.7827Z" fill="#FDAF3A"/>
</g>
<defs>
<radialGradient id="paint0_radial_0_4862" cx="0" cy="0" r="1" gradientUnits="userSpaceOnUse" gradientTransform="translate(40.0805 44.3133) rotate(90) scale(35.8487)">
<stop stop-color="#FEF6F0"/>
<stop offset="0.105593" stop-color="white"/>
<stop offset="1" stop-color="#F3701E"/>
</radialGradient>
</defs>
</svg>
