<svg width="81" height="81" viewBox="0 0 81 81" fill="none" xmlns="http://www.w3.org/2000/svg">
<mask id="mask0_0_4888" style="mask-type:luminance" maskUnits="userSpaceOnUse" x="0" y="0" width="81" height="81">
<path fill-rule="evenodd" clip-rule="evenodd" d="M0 0H80.1619V80.1609H0V0Z" fill="white"/>
</mask>
<g mask="url(#mask0_0_4888)">
<path fill-rule="evenodd" clip-rule="evenodd" d="M40.081 80.161C17.945 80.161 0 62.217 0 40.081C0 17.945 17.945 0 40.081 0C62.217 0 80.162 17.945 80.162 40.081C80.162 62.217 62.217 80.161 40.081 80.161Z" fill="url(#paint0_radial_0_4888)"/>
</g>
<path fill-rule="evenodd" clip-rule="evenodd" d="M40.0811 80.1609C62.2171 80.1609 80.1621 62.2169 80.1621 40.0809C80.1621 35.4489 79.3671 31.0059 77.9221 26.8669L70.5811 19.5249H9.58008V60.6369L27.7191 78.2089C31.6141 79.4709 35.7661 80.1609 40.0811 80.1609" fill="#BFBFBF"/>
<mask id="mask1_0_4888" style="mask-type:luminance" maskUnits="userSpaceOnUse" x="0" y="0" width="81" height="81">
<path fill-rule="evenodd" clip-rule="evenodd" d="M0 80.161H80.162V0H0V80.161Z" fill="white"/>
</mask>
<g mask="url(#mask1_0_4888)">
<path fill-rule="evenodd" clip-rule="evenodd" d="M12.3321 57.8059H67.8301V22.3599H12.3321V57.8059ZM9.58008 60.6369H70.5811V19.5259H9.58008V60.6369Z" fill="#0F303F"/>
<path fill-rule="evenodd" clip-rule="evenodd" d="M12.332 28.1369H67.83V22.3599H12.332V28.1369Z" fill="#4B4B55"/>
<path fill-rule="evenodd" clip-rule="evenodd" d="M55.437 26.5202H57.984V23.9722H55.437V26.5202Z" fill="#FFD028"/>
<path fill-rule="evenodd" clip-rule="evenodd" d="M59.2129 26.5202H61.7599V23.9722H59.2129V26.5202Z" fill="#C1D64B"/>
<path fill-rule="evenodd" clip-rule="evenodd" d="M62.9861 26.5202H65.5361V23.9722H62.9861V26.5202Z" fill="#FD692B"/>
<path fill-rule="evenodd" clip-rule="evenodd" d="M40.081 28.1367H12.332V57.8057H40.081H67.83V28.1367H40.081Z" fill="white"/>
<path fill-rule="evenodd" clip-rule="evenodd" d="M34.1464 50.2373C30.0524 51.2023 25.9354 48.6543 24.9724 44.5573C24.0084 40.4623 26.5554 36.3473 30.6504 35.3823C34.7464 34.4203 38.8614 36.9663 39.8264 41.0623C40.7894 45.1563 38.2434 49.2743 34.1464 50.2373M42.1074 37.9543L40.6354 38.3003L40.3984 37.9133C40.1564 37.5173 39.8804 37.1373 39.5824 36.7833L39.2894 36.4323L40.0854 35.1443C40.2054 34.9533 40.2434 34.7273 40.1904 34.5053C40.1384 34.2873 40.0034 34.1013 39.8124 33.9833L36.9944 32.2373C36.8004 32.1193 36.5764 32.0823 36.3544 32.1323C36.1344 32.1853 35.9494 32.3183 35.8304 32.5113L35.0334 33.8003L34.5894 33.6913C34.1344 33.5823 33.6734 33.5053 33.2154 33.4663L32.7614 33.4283L32.4154 31.9533C32.3084 31.5003 31.8534 31.2183 31.4004 31.3263L29.7864 31.7053L28.1704 32.0853C27.7184 32.1933 27.4374 32.6473 27.5424 33.1013L27.8904 34.5733L27.5014 34.8103C27.1094 35.0503 26.7284 35.3243 26.3734 35.6273L26.0234 35.9203L24.7354 35.1233C24.5424 35.0043 24.3164 34.9663 24.0974 35.0183C23.8764 35.0703 23.6914 35.2043 23.5724 35.3963L21.8264 38.2163C21.5824 38.6113 21.7054 39.1343 22.1004 39.3793L23.3884 40.1763L23.2814 40.6193C23.1714 41.0733 23.0954 41.5353 23.0564 41.9933L23.0154 42.4473L21.5434 42.7933C21.0894 42.9003 20.8084 43.3573 20.9144 43.8103L21.6734 47.0373C21.7814 47.4913 22.2364 47.7733 22.6904 47.6663L24.1634 47.3203L24.4014 47.7083C24.6404 48.0993 24.9144 48.4803 25.2144 48.8373L25.5074 49.1873L24.7114 50.4743C24.4664 50.8703 24.5894 51.3903 24.9864 51.6383L27.8044 53.3823C27.9974 53.5013 28.2224 53.5383 28.4434 53.4863C28.6624 53.4333 28.8494 53.3003 28.9684 53.1073L29.7654 51.8203L30.2084 51.9273C30.6584 52.0373 31.1234 52.1113 31.5824 52.1543L32.0374 52.1933L32.3824 53.6663C32.4894 54.1193 32.9454 54.4003 33.3974 54.2933L35.0124 53.9143L36.6274 53.5343C37.0804 53.4263 37.3614 52.9723 37.2544 52.5193L36.9084 51.0463L37.2964 50.8083C37.6914 50.5653 38.0714 50.2913 38.4244 49.9943L38.7754 49.6993L40.0644 50.4973C40.2554 50.6153 40.4824 50.6523 40.7014 50.6013C40.9214 50.5483 41.1074 50.4163 41.2254 50.2223L42.9714 47.4063C43.2164 47.0083 43.0934 46.4853 42.6984 46.2403L41.4104 45.4443L41.5154 44.9993C41.6254 44.5503 41.7014 44.0863 41.7424 43.6263L41.7824 43.1713L43.2534 42.8263C43.7094 42.7183 43.9904 42.2633 43.8834 41.8113L43.1244 38.5813C43.0154 38.1303 42.5614 37.8473 42.1074 37.9543" fill="#6B3B55"/>
<path fill-rule="evenodd" clip-rule="evenodd" d="M32.4032 37.7783C32.0212 37.7783 31.6342 37.8223 31.2472 37.9133C28.5432 38.5493 26.8652 41.2583 27.5022 43.9623C28.0482 46.2803 30.1132 47.8423 32.3942 47.8423C32.7762 47.8423 33.1642 47.7983 33.5512 47.7083C36.2562 47.0723 37.9332 44.3633 37.2972 41.6583C36.7512 39.3393 34.6842 37.7783 32.4032 37.7783M32.4032 39.5563C33.9182 39.5563 35.2172 40.5893 35.5652 42.0653C35.7642 42.9113 35.6222 43.7843 35.1652 44.5223C34.7082 45.2613 33.9902 45.7783 33.1442 45.9763C32.8972 46.0353 32.6452 46.0643 32.3942 46.0643C30.8812 46.0643 29.5812 45.0323 29.2332 43.5533C29.0342 42.7093 29.1762 41.8373 29.6332 41.0983C30.0912 40.3603 30.8082 39.8433 31.6542 39.6443C31.9012 39.5863 32.1532 39.5563 32.4032 39.5563" fill="#6B3B55"/>
<path fill-rule="evenodd" clip-rule="evenodd" d="M56.0917 53.234C55.3847 53.474 54.6147 53.097 54.3727 52.392C54.1327 51.686 54.5097 50.918 55.2157 50.675C55.9207 50.433 56.6907 50.81 56.9317 51.517C57.1737 52.222 56.7967 52.99 56.0917 53.234V53.234ZM53.0347 37.853L53.0407 37.851L54.3637 33.916L50.3227 30.916L51.6367 34.754L50.7377 35.061L48.2867 35.9L46.9727 32.062L45.7007 36.882L49.1187 39.195L49.1317 39.191L53.1197 50.838C52.8427 51.451 52.7867 52.167 53.0237 52.855C53.5117 54.284 55.0677 55.046 56.4957 54.556C57.9247 54.066 58.6857 52.513 58.1957 51.084C57.9877 50.472 57.5837 49.984 57.0787 49.664L53.0347 37.853Z" fill="#6B3B55"/>
</g>
<defs>
<radialGradient id="paint0_radial_0_4888" cx="0" cy="0" r="1" gradientUnits="userSpaceOnUse" gradientTransform="translate(40.081 45.6897) rotate(90) scale(34.4713 34.4717)">
<stop stop-color="white"/>
<stop offset="1" stop-color="#FFB200"/>
</radialGradient>
</defs>
</svg>
