<svg width="81" height="81" viewBox="0 0 81 81" fill="none" xmlns="http://www.w3.org/2000/svg">
<mask id="mask0_0_4926" style="mask-type:luminance" maskUnits="userSpaceOnUse" x="0" y="0" width="81" height="81">
<path fill-rule="evenodd" clip-rule="evenodd" d="M40.0808 0C17.9449 0 0 17.9449 0 40.08V40.08C0 62.2151 17.9449 80.16 40.0808 80.16V80.16C62.2151 80.16 80.16 62.2151 80.16 40.08V40.08C80.16 17.9449 62.2151 0 40.0808 0Z" fill="white"/>
</mask>
<g mask="url(#mask0_0_4926)">
<path fill-rule="evenodd" clip-rule="evenodd" d="M40.0808 0C17.9449 0 0 17.9449 0 40.08V40.08C0 62.2151 17.9449 80.16 40.0808 80.16V80.16C62.2151 80.16 80.16 62.2151 80.16 40.08V40.08C80.16 17.9449 62.2151 0 40.0808 0Z" fill="url(#paint0_radial_0_4926)"/>
</g>
<path fill-rule="evenodd" clip-rule="evenodd" d="M63.6637 32.5617H38.009V24.9482H55.5894L63.6637 32.5617Z" fill="#587399"/>
<mask id="mask1_0_4926" style="mask-type:luminance" maskUnits="userSpaceOnUse" x="0" y="0" width="81" height="81">
<path fill-rule="evenodd" clip-rule="evenodd" d="M0 80.1625H80.16V0H0V80.1625Z" fill="white"/>
</mask>
<g mask="url(#mask1_0_4926)">
<path fill-rule="evenodd" clip-rule="evenodd" d="M45.2371 56.751H62.6125V33.333H45.2371V56.751Z" fill="#B3B3B3"/>
<path fill-rule="evenodd" clip-rule="evenodd" d="M43.3057 33.3321H63.6633V32.5611H43.3057V33.3321Z" fill="#E5E5E5"/>
<path fill-rule="evenodd" clip-rule="evenodd" d="M46.889 32.3139V33.3327H45.2349V31.6285L33.298 19.638L21.3619 31.6285V33.3327H19.7136V32.3139L33.298 18.6646L46.889 32.3139Z" fill="#E5E5E5"/>
<path fill-rule="evenodd" clip-rule="evenodd" d="M45.2351 31.6289V56.7536H21.3621V31.6289L33.2982 19.6377L45.2351 31.6289Z" fill="#CCCCCC"/>
<path fill-rule="evenodd" clip-rule="evenodd" d="M25.6975 54.9638H31.6355V48.2432H25.6975V54.9638Z" fill="#E5E5E5"/>
<mask id="mask2_0_4926" style="mask-type:luminance" maskUnits="userSpaceOnUse" x="26" y="48" width="3" height="7">
<path fill-rule="evenodd" clip-rule="evenodd" d="M26.1155 48.667H28.4072V54.5408H26.1155V48.667Z" fill="white"/>
</mask>
<g mask="url(#mask2_0_4926)">
<path fill-rule="evenodd" clip-rule="evenodd" d="M26.1155 54.5408H28.4072V48.667H26.1155V54.5408Z" fill="url(#paint1_linear_0_4926)"/>
</g>
<path fill-rule="evenodd" clip-rule="evenodd" d="M28.8828 54.5408H31.1762V48.667H28.8828V54.5408Z" fill="url(#paint2_linear_0_4926)"/>
<path fill-rule="evenodd" clip-rule="evenodd" d="M35.0405 54.9638H40.9785V48.2432H35.0405V54.9638Z" fill="#E5E5E5"/>
<path fill-rule="evenodd" clip-rule="evenodd" d="M35.4578 54.5408H37.7504V48.667H35.4578V54.5408Z" fill="url(#paint3_linear_0_4926)"/>
<mask id="mask3_0_4926" style="mask-type:luminance" maskUnits="userSpaceOnUse" x="38" y="48" width="3" height="7">
<path fill-rule="evenodd" clip-rule="evenodd" d="M38.2244 48.667H40.5178V54.5408H38.2244V48.667Z" fill="white"/>
</mask>
<g mask="url(#mask3_0_4926)">
<path fill-rule="evenodd" clip-rule="evenodd" d="M38.2244 54.5408H40.5178V48.667H38.2244V54.5408Z" fill="url(#paint4_linear_0_4926)"/>
</g>
<path fill-rule="evenodd" clip-rule="evenodd" d="M21.3623 51.6662H45.237V47.6611H21.3623V51.6662Z" fill="#B5B0BC"/>
<path fill-rule="evenodd" clip-rule="evenodd" d="M15.9419 57.979H64.2171V56.7529H15.9419V57.979Z" fill="#E5E5E5"/>
<path fill-rule="evenodd" clip-rule="evenodd" d="M51.1382 56.7511H56.7117V47.1265H51.1382V56.7511Z" fill="#8E655A"/>
<path fill-rule="evenodd" clip-rule="evenodd" d="M62.6141 44.6729V47.6608H15.9419V47.0806L19.4828 44.6729H62.6141Z" fill="#587399"/>
<path fill-rule="evenodd" clip-rule="evenodd" d="M45.2371 53.7497H62.6142V47.6611H45.2371V53.7497Z" fill="#B5B0BC"/>
<path fill-rule="evenodd" clip-rule="evenodd" d="M50.9563 42.0855H56.8935V35.3633H50.9563V42.0855Z" fill="#F2F2F2"/>
</g>
<mask id="mask4_0_4926" style="mask-type:luminance" maskUnits="userSpaceOnUse" x="51" y="35" width="3" height="7">
<path fill-rule="evenodd" clip-rule="evenodd" d="M51.3718 35.7886H53.6644V41.6624H51.3718V35.7886Z" fill="white"/>
</mask>
<g mask="url(#mask4_0_4926)">
<path fill-rule="evenodd" clip-rule="evenodd" d="M51.3718 41.6624H53.6644V35.7886H51.3718V41.6624Z" fill="url(#paint5_linear_0_4926)"/>
</g>
<mask id="mask5_0_4926" style="mask-type:luminance" maskUnits="userSpaceOnUse" x="54" y="35" width="3" height="7">
<path fill-rule="evenodd" clip-rule="evenodd" d="M54.1392 35.7886H56.4326V41.6624H54.1392V35.7886Z" fill="white"/>
</mask>
<g mask="url(#mask5_0_4926)">
<path fill-rule="evenodd" clip-rule="evenodd" d="M54.1392 41.6624H56.4326V35.7886H54.1392V41.6624Z" fill="url(#paint6_linear_0_4926)"/>
</g>
<path fill-rule="evenodd" clip-rule="evenodd" d="M25.6975 42.0853H31.6355V35.3647H25.6975V42.0853Z" fill="#F2F2F2"/>
<mask id="mask6_0_4926" style="mask-type:luminance" maskUnits="userSpaceOnUse" x="26" y="35" width="3" height="7">
<path fill-rule="evenodd" clip-rule="evenodd" d="M26.1162 35.7876H28.408V41.6631H26.1162V35.7876Z" fill="white"/>
</mask>
<g mask="url(#mask6_0_4926)">
<path fill-rule="evenodd" clip-rule="evenodd" d="M26.1162 41.6631H28.408V35.7876H26.1162V41.6631Z" fill="url(#paint7_linear_0_4926)"/>
</g>
<path fill-rule="evenodd" clip-rule="evenodd" d="M28.8821 41.6631H31.1755V35.7876H28.8821V41.6631Z" fill="url(#paint8_linear_0_4926)"/>
<path fill-rule="evenodd" clip-rule="evenodd" d="M35.0405 42.0853H40.9785V35.3647H35.0405V42.0853Z" fill="#F2F2F2"/>
<path fill-rule="evenodd" clip-rule="evenodd" d="M35.457 41.6631H37.7496V35.7876H35.457V41.6631Z" fill="url(#paint9_linear_0_4926)"/>
<mask id="mask7_0_4926" style="mask-type:luminance" maskUnits="userSpaceOnUse" x="38" y="35" width="3" height="7">
<path fill-rule="evenodd" clip-rule="evenodd" d="M38.2244 35.7876H40.5178V41.6631H38.2244V35.7876Z" fill="white"/>
</mask>
<g mask="url(#mask7_0_4926)">
<path fill-rule="evenodd" clip-rule="evenodd" d="M38.2244 41.6631H40.5178V35.7876H38.2244V41.6631Z" fill="url(#paint10_linear_0_4926)"/>
</g>
<mask id="mask8_0_4926" style="mask-type:luminance" maskUnits="userSpaceOnUse" x="32" y="25" width="3" height="3">
<path fill-rule="evenodd" clip-rule="evenodd" d="M32.041 26.4724C32.041 27.1661 32.6047 27.7306 33.2984 27.7306V27.7306C33.9913 27.7306 34.5558 27.1661 34.5558 26.4724V26.4724C34.5558 25.7787 33.9913 25.2134 33.2984 25.2134V25.2134C32.6047 25.2134 32.041 25.7787 32.041 26.4724" fill="white"/>
</mask>
<g mask="url(#mask8_0_4926)">
<path fill-rule="evenodd" clip-rule="evenodd" d="M32.041 26.4724C32.041 27.1661 32.6047 27.7306 33.2984 27.7306V27.7306C33.9913 27.7306 34.5558 27.1661 34.5558 26.4724V26.4724C34.5558 25.7787 33.9913 25.2134 33.2984 25.2134V25.2134C32.6047 25.2134 32.041 25.7787 32.041 26.4724" fill="url(#paint11_linear_0_4926)"/>
</g>
<path fill-rule="evenodd" clip-rule="evenodd" d="M33.5282 27.7089V25.2361C34.1116 25.3464 34.556 25.8599 34.556 26.4729C34.556 27.0852 34.1116 27.5995 33.5282 27.7089M32.0404 26.4729C32.0404 25.8459 32.5004 25.3209 33.1052 25.2328V27.7163C32.5004 27.625 32.0404 27.1 32.0404 26.4729M33.2986 24.7407C32.3399 24.7407 31.5664 25.5167 31.5664 26.4729C31.5664 27.4283 32.3399 28.2043 33.2986 28.2043C34.254 28.2043 35.0308 27.4283 35.0308 26.4729C35.0308 25.5167 34.254 24.7407 33.2986 24.7407" fill="#F2F2F2"/>
<mask id="mask9_0_4926" style="mask-type:luminance" maskUnits="userSpaceOnUse" x="0" y="0" width="81" height="81">
<path fill-rule="evenodd" clip-rule="evenodd" d="M0 80.1625H80.16V0H0V80.1625Z" fill="white"/>
</mask>
<g mask="url(#mask9_0_4926)">
<path fill-rule="evenodd" clip-rule="evenodd" d="M49.4019 26.8551H53.3435V22.915H49.4019V26.8551Z" fill="#F2F2F2"/>
<path fill-rule="evenodd" clip-rule="evenodd" d="M51.7554 55.6631H56.0945V47.6694H51.7554V55.6631Z" fill="#666666"/>
<path fill-rule="evenodd" clip-rule="evenodd" d="M39.3533 56.7512H40.4543V47.6606H39.3533V56.7512Z" fill="#F5F5F5"/>
<path fill-rule="evenodd" clip-rule="evenodd" d="M31.5515 56.7512H32.6534V47.6606H31.5515V56.7512Z" fill="#F5F5F5"/>
<path fill-rule="evenodd" clip-rule="evenodd" d="M17.0464 56.7512H18.1515V47.6606H17.0464V56.7512Z" fill="#F5F5F5"/>
<path fill-rule="evenodd" clip-rule="evenodd" d="M61.509 56.7512H62.6142V47.6606H61.509V56.7512Z" fill="#F5F5F5"/>
<path fill-rule="evenodd" clip-rule="evenodd" d="M23.7446 56.7512H24.8506V47.6606H23.7446V56.7512Z" fill="#F5F5F5"/>
<path fill-rule="evenodd" clip-rule="evenodd" d="M47.157 56.7512H48.2621V47.6606H47.157V56.7512Z" fill="#F5F5F5"/>
<path fill-rule="evenodd" clip-rule="evenodd" d="M15.9419 47.6605H62.6141V47.0804H15.9419V47.6605Z" fill="white"/>
<path fill-rule="evenodd" clip-rule="evenodd" d="M17.0454 49.3818H18.1489V47.6636H17.0454V49.3818Z" fill="#B5B0BC"/>
<path fill-rule="evenodd" clip-rule="evenodd" d="M23.7422 49.3818H24.8465V47.6636H23.7422V49.3818Z" fill="#B5B0BC"/>
<path fill-rule="evenodd" clip-rule="evenodd" d="M31.5508 49.3818H32.6543V47.6636H31.5508V49.3818Z" fill="#B5B0BC"/>
<path fill-rule="evenodd" clip-rule="evenodd" d="M39.3508 49.3818H40.4552V47.6636H39.3508V49.3818Z" fill="#B5B0BC"/>
<path fill-rule="evenodd" clip-rule="evenodd" d="M47.1594 49.3818H48.2629V47.6636H47.1594V49.3818Z" fill="#B5B0BC"/>
<path fill-rule="evenodd" clip-rule="evenodd" d="M61.509 49.3818H62.6125V47.6636H61.509V49.3818Z" fill="#B5B0BC"/>
<path fill-rule="evenodd" clip-rule="evenodd" d="M33.3006 19.6377L33.2998 20.2812L33.2982 19.6377L21.3621 31.6289V33.8499H22.4401V31.7853L33.2998 20.9247L44.1596 31.7853V33.8499H45.2368V31.6289L33.3006 19.6377Z" fill="#B5B0BC"/>
<path fill-rule="evenodd" clip-rule="evenodd" d="M45.2368 33.3325V34.8689V44.6729H47.3739V34.8689H62.6123V33.3325H45.2368Z" fill="#B5B0BC"/>
<path fill-rule="evenodd" clip-rule="evenodd" d="M39.5544 24.9482L46.8889 32.314V33.3327H48.8022V32.5617L40.2185 24.9482H39.5544Z" fill="#B5B0BC"/>
<path fill-rule="evenodd" clip-rule="evenodd" d="M19.0518 56.7512H20.1553V47.6606H19.0518V56.7512Z" fill="#DEDEDE"/>
<path fill-rule="evenodd" clip-rule="evenodd" d="M79.3356 48.2339C75.5668 66.461 59.4306 80.1623 40.0843 80.1623C39.4087 80.1623 38.7421 80.1458 38.0748 80.1129L15.9487 57.977H64.2198V56.7508H62.6144V33.3312H63.6685V32.5659L79.3356 48.2339Z" fill="#D9D7DC"/>
</g>
<defs>
<radialGradient id="paint0_radial_0_4926" cx="0" cy="0" r="1" gradientUnits="userSpaceOnUse" gradientTransform="translate(40.08 40.0803) scale(40.0801)">
<stop stop-color="#93D6D4"/>
<stop offset="1" stop-color="#48B8C3"/>
</radialGradient>
<linearGradient id="paint1_linear_0_4926" x1="28.4076" y1="54.5407" x2="28.4076" y2="48.6667" gradientUnits="userSpaceOnUse">
<stop stop-color="#4D9EC1"/>
<stop offset="1" stop-color="#64BDD4"/>
</linearGradient>
<linearGradient id="paint2_linear_0_4926" x1="31.176" y1="54.5407" x2="31.176" y2="48.6667" gradientUnits="userSpaceOnUse">
<stop stop-color="#4D9EC1"/>
<stop offset="1" stop-color="#64BDD4"/>
</linearGradient>
<linearGradient id="paint3_linear_0_4926" x1="37.7503" y1="54.5407" x2="37.7503" y2="48.6667" gradientUnits="userSpaceOnUse">
<stop stop-color="#4D9EC1"/>
<stop offset="1" stop-color="#64BDD4"/>
</linearGradient>
<linearGradient id="paint4_linear_0_4926" x1="40.518" y1="54.5407" x2="40.518" y2="48.6667" gradientUnits="userSpaceOnUse">
<stop stop-color="#4D9EC1"/>
<stop offset="1" stop-color="#64BDD4"/>
</linearGradient>
<linearGradient id="paint5_linear_0_4926" x1="53.6651" y1="41.6619" x2="53.6651" y2="35.7879" gradientUnits="userSpaceOnUse">
<stop stop-color="#4D9EC1"/>
<stop offset="1" stop-color="#64BDD4"/>
</linearGradient>
<linearGradient id="paint6_linear_0_4926" x1="56.4326" y1="41.6619" x2="56.4326" y2="35.7879" gradientUnits="userSpaceOnUse">
<stop stop-color="#4D9EC1"/>
<stop offset="1" stop-color="#64BDD4"/>
</linearGradient>
<linearGradient id="paint7_linear_0_4926" x1="28.4074" y1="41.663" x2="28.4074" y2="35.7882" gradientUnits="userSpaceOnUse">
<stop stop-color="#4D9EC1"/>
<stop offset="1" stop-color="#64BDD4"/>
</linearGradient>
<linearGradient id="paint8_linear_0_4926" x1="31.1759" y1="41.663" x2="31.1759" y2="35.7882" gradientUnits="userSpaceOnUse">
<stop stop-color="#4D9EC1"/>
<stop offset="1" stop-color="#64BDD4"/>
</linearGradient>
<linearGradient id="paint9_linear_0_4926" x1="37.7502" y1="41.663" x2="37.7502" y2="35.7882" gradientUnits="userSpaceOnUse">
<stop stop-color="#4D9EC1"/>
<stop offset="1" stop-color="#64BDD4"/>
</linearGradient>
<linearGradient id="paint10_linear_0_4926" x1="40.5178" y1="41.663" x2="40.5178" y2="35.7882" gradientUnits="userSpaceOnUse">
<stop stop-color="#4D9EC1"/>
<stop offset="1" stop-color="#64BDD4"/>
</linearGradient>
<linearGradient id="paint11_linear_0_4926" x1="34.5553" y1="27.7304" x2="34.5553" y2="25.2139" gradientUnits="userSpaceOnUse">
<stop stop-color="#4D9EC1"/>
<stop offset="1" stop-color="#64BDD4"/>
</linearGradient>
</defs>
</svg>
