<svg width="60" height="61" viewBox="0 0 60 61" fill="none" xmlns="http://www.w3.org/2000/svg">
<mask id="mask0_0_3291" style="mask-type:luminance" maskUnits="userSpaceOnUse" x="0" y="0" width="60" height="61">
<path fill-rule="evenodd" clip-rule="evenodd" d="M0 0H60V60.6667H0V0Z" fill="white"/>
</mask>
<g mask="url(#mask0_0_3291)">
<path fill-rule="evenodd" clip-rule="evenodd" d="M29.9765 58.8813V58.879C33.0907 58.879 36.205 58.8801 39.3192 58.8762C39.4712 58.8761 39.6769 58.9578 39.7665 58.8194C39.8783 58.6467 39.7025 58.4877 39.6126 58.3447C39.1118 57.5487 38.3642 57.1189 37.4403 57.1153C32.4814 57.096 27.5224 57.0991 22.5635 57.1113C21.6242 57.1137 20.9052 57.5781 20.3875 58.348C20.2927 58.4891 20.1242 58.6628 20.2493 58.8209C20.316 58.9049 20.5402 58.879 20.6933 58.8792C23.7877 58.882 26.8822 58.8813 29.9765 58.8813V58.8813ZM29.94 50.4923V50.4944C28.2551 50.4944 26.5702 50.5048 24.8855 50.4865C24.4953 50.4824 24.3833 50.5945 24.3917 50.9882C24.4185 52.2503 24.416 53.5133 24.3914 54.7754C24.3833 55.1803 24.4891 55.3134 24.9146 55.3115C28.324 55.2965 31.7334 55.2995 35.1426 55.3154C35.5196 55.3171 35.6131 55.1937 35.6086 54.842C35.5923 53.5797 35.582 52.3164 35.6144 51.0548C35.6259 50.6097 35.5002 50.4773 35.0539 50.4832C33.3495 50.5058 31.6447 50.4923 29.94 50.4923V50.4923ZM8.2122 24.2954C8.2122 19.9548 8.20459 15.6143 8.22279 11.2739C8.22487 10.7807 8.08233 10.639 7.59089 10.6514C6.30308 10.6842 5.01393 10.662 3.72538 10.6624C2.44116 10.663 1.80225 11.2495 1.80076 12.5256C1.79092 20.812 1.79852 29.0985 1.78973 37.3849C1.78928 37.7885 1.89574 37.9234 2.32411 37.917C4.06832 37.8912 5.81343 37.8864 7.55734 37.918C8.08069 37.9275 8.22592 37.7841 8.22323 37.2576C8.20161 32.937 8.21101 28.6162 8.2122 24.2954V24.2954ZM29.8833 37.905V37.9091C36.2707 37.9091 42.6582 37.8983 49.0453 37.9259C49.6821 37.9287 49.7767 37.7272 49.7752 37.1613C49.7565 29.9754 49.7553 22.7894 49.7768 15.6036C49.7785 15.0483 49.5936 14.9633 49.1005 14.9638C39.202 14.9735 29.3035 14.9676 19.4049 14.964C19.2069 14.9639 19.0085 14.9618 18.8111 14.9482C18.3128 14.9136 18.05 14.582 18.0056 14.1476C17.9627 13.7281 18.1877 13.403 18.6283 13.2546C18.9007 13.1628 19.1735 13.1683 19.4498 13.1683C29.3285 13.1675 39.2073 13.1632 49.0859 13.1775C49.6147 13.1782 49.7828 13.0596 49.7774 12.5023C49.7474 9.42294 49.7628 6.34315 49.7631 3.2635C49.7633 2.06379 49.4971 1.79372 48.3099 1.79372C38.6097 1.79342 28.9097 1.79328 19.2095 1.79298C16.5514 1.79298 13.8932 1.79031 11.2351 1.79372C10.3955 1.79476 10.0053 2.12893 10.0034 2.88645C9.99488 6.1636 10.0058 9.4406 9.99204 12.7178C9.99055 13.0948 10.1242 13.1812 10.4732 13.1758C11.6235 13.1585 12.7743 13.1595 13.9246 13.1724C14.642 13.1806 15.076 13.5557 15.0626 14.112C15.0496 14.6432 14.6439 14.9606 13.9302 14.9681C12.8195 14.9798 11.7084 14.993 10.598 14.9725C10.1207 14.9636 9.98429 15.1077 9.98578 15.6054C10.0058 22.7716 9.99965 29.9377 9.99965 37.104C9.99965 37.9048 9.99905 37.905 10.7807 37.905C17.1483 37.9051 23.5159 37.905 29.8833 37.905V37.905ZM18.8102 60.6668C17.9986 60.2531 18.1177 59.5195 18.2618 58.8547C18.6791 56.93 20.2085 55.5819 22.1821 55.3471C22.4799 55.3116 22.5962 55.2171 22.5944 54.9143C22.5865 53.5915 22.5807 52.2684 22.6053 50.9458C22.6147 50.4414 22.3016 50.4886 21.9786 50.4887C19.2208 50.4904 16.4631 50.4907 13.7053 50.4911C13.5467 50.4911 13.3874 50.4966 13.2295 50.4844C12.7373 50.4467 12.4689 50.1371 12.4078 49.6904C12.3473 49.2487 12.6025 48.9543 13.0086 48.7781C13.2587 48.6695 13.5164 48.7078 13.7712 48.7078C27.9369 48.7053 42.1028 48.7054 56.2685 48.705C57.5652 48.705 58.1992 48.0837 58.2032 46.7869C58.21 44.6151 58.1941 42.443 58.217 40.2713C58.2219 39.806 58.0868 39.6812 57.6167 39.6815C39.2051 39.6925 20.7935 39.6913 2.38211 39.6784C1.90826 39.6781 1.78197 39.8075 1.78734 40.2762C1.81269 42.4479 1.79375 44.6198 1.80061 46.7918C1.80464 48.0897 2.43519 48.7032 3.74119 48.7042C5.36805 48.7053 6.99492 48.7035 8.62179 48.7076C8.81845 48.7082 9.02347 48.7079 9.2097 48.7603C9.6913 48.8958 9.94716 49.2193 9.87917 49.7299C9.81625 50.2029 9.52371 50.4804 9.0439 50.4818C7.02057 50.4873 4.9953 50.526 2.9742 50.4543C1.39773 50.3985 0.100683 48.8747 0.00540646 47.1352C-0.00115408 47.0169 0.000635161 46.8982 0.000635161 46.7798C0.000486057 35.3475 -0.000855872 23.9153 0.00197709 12.483C0.0024244 10.7288 0.963544 9.4541 2.61367 8.9668C3.00253 8.85195 3.3984 8.87391 3.79129 8.87064C5.08073 8.85951 6.37107 8.84393 7.65962 8.8788C8.12766 8.89142 8.22249 8.73131 8.21816 8.30573C8.19923 6.46958 8.20489 4.63313 8.21473 2.79697C8.22353 1.15862 9.37371 0.0173679 11.03 0.0152905C17.5971 0.00757432 24.164 0.0053485 30.7311 0.00638722C36.683 0.00727754 42.6352 0.0428907 48.587 0.000154919C50.0592 -0.0103806 51.6281 1.04629 51.5674 2.94848C51.5106 4.72364 51.572 6.50252 51.5386 8.27887C51.5295 8.76974 51.6985 8.90344 52.1489 8.86812C52.4637 8.84334 52.7841 8.85803 53.0997 8.8843C53.6596 8.93074 53.9456 9.23093 53.9523 9.74509C53.9586 10.2277 53.6422 10.5936 53.1164 10.6468C52.7431 10.6845 52.3623 10.6793 51.9868 10.6584C51.6448 10.6393 51.5209 10.7712 51.5494 11.1031C51.5695 11.3383 51.5525 11.5766 51.5523 11.8136C51.5513 20.2842 51.5546 28.7546 51.5391 37.2252C51.5382 37.7504 51.6528 37.9341 52.2227 37.9213C54.0272 37.8807 55.8334 37.894 57.6386 37.9152C58.0798 37.9204 58.2134 37.7918 58.2128 37.3453C58.2007 29.0722 58.2067 20.7991 58.2028 12.526C58.2022 11.3915 57.6914 10.8242 56.5703 10.656C55.9716 10.5663 55.6527 10.2036 55.6983 9.66452C55.7398 9.17306 56.1185 8.87509 56.6951 8.88014C58.4023 8.89528 59.8853 10.3308 59.9868 12.0737C60.004 12.3689 59.9956 12.6658 59.9956 12.962C59.9977 24.256 59.9999 35.5501 60.0002 46.844C60.0004 48.6444 59.0203 49.9627 57.3705 50.405C56.9615 50.5147 56.5443 50.491 56.1298 50.4911C50.1778 50.4932 44.2259 50.4907 38.2738 50.4911C37.4014 50.4911 37.4044 50.4953 37.4093 51.3596C37.4157 52.485 37.4308 53.6107 37.4129 54.7358C37.4065 55.1336 37.4703 55.3173 37.9428 55.3649C40.0903 55.5814 41.7989 57.524 41.822 59.6794C41.8272 60.1702 41.5402 60.4258 41.1916 60.6668H18.8102Z" fill="#0092B7"/>
</g>
<path fill-rule="evenodd" clip-rule="evenodd" d="M29.9852 43.0957C29.521 43.1098 29.1212 43.5397 29.1316 44.0133C29.1427 44.5168 29.587 44.9427 30.0654 44.9087C30.5038 44.8774 30.9273 44.4031 30.9116 43.9606C30.8958 43.5107 30.4364 43.082 29.9852 43.0957M32.6668 44.0451C32.6608 45.4805 31.4402 46.6725 29.9821 46.6668C28.5526 46.6611 27.3199 45.4161 27.3336 43.9916C27.3473 42.5571 28.5816 41.329 30.0051 41.3335C31.4717 41.3382 32.6729 42.5619 32.6668 44.0451" fill="#0092B7"/>
<path fill-rule="evenodd" clip-rule="evenodd" d="M21.3518 34.1622C21.3518 34.158 21.3518 34.1538 21.3518 34.1497C23.6677 34.1497 25.9836 34.1422 28.2993 34.1571C28.6808 34.1595 28.8306 34.0637 28.8182 33.6571C28.7912 32.7793 28.7927 31.8997 28.8198 31.0219C28.8323 30.6218 28.6709 30.5352 28.3043 30.4873C27.3283 30.3596 26.6464 30.9297 25.9043 31.3913C24.1568 32.4781 22.3997 32.5356 20.6127 31.4511C19.6523 30.8682 18.8596 30.0706 17.9232 29.4583C16.7174 28.6697 15.4962 28.698 14.23 29.2746C13.9188 29.4164 13.7906 29.6045 13.7981 29.9613C13.8221 31.099 13.8047 32.2373 13.8083 33.3754C13.8107 34.1645 13.8145 34.1628 14.5839 34.1625C16.8399 34.1616 19.0957 34.1622 21.3518 34.1622M21.2876 19.1442C21.2876 19.1423 21.2876 19.1405 21.2876 19.1385C18.9907 19.1385 16.6935 19.148 14.3967 19.1303C13.964 19.127 13.7951 19.2415 13.799 19.6989C13.8194 22.1159 13.8203 24.533 13.811 26.9501C13.8094 27.3776 13.9137 27.4525 14.3311 27.3158C15.8717 26.8106 17.3431 26.9751 18.739 27.835C19.5083 28.309 20.1789 28.9063 20.8916 29.4509C21.6517 30.0318 22.4519 30.4749 23.4582 30.4063C24.2605 30.3515 24.871 29.8982 25.5015 29.4826C26.3541 28.9207 27.2717 28.5177 28.3037 28.6474C28.7996 28.7099 28.8131 28.5429 28.8123 28.1616C28.8066 25.365 28.8069 22.5681 28.8311 19.7716C28.8354 19.2715 28.6679 19.1297 28.1786 19.1343C25.8818 19.1565 23.5846 19.1442 21.2876 19.1442M21.3415 17.334C24.0173 17.334 26.6931 17.3323 29.3689 17.335C30.3258 17.3359 30.6649 17.6681 30.6654 18.6327C30.6679 24.0049 30.6669 29.3772 30.6604 34.7494C30.6594 35.6637 30.3097 35.999 29.3755 35.9993C24.0239 36.0011 18.6724 36.0004 13.3208 35.9942C12.3114 35.993 12.001 35.6715 12.0007 34.663C11.9994 29.3306 11.9998 23.9983 12.0018 18.666C12.0021 17.6528 12.3187 17.3343 13.3142 17.334C15.99 17.3331 18.6658 17.3337 21.3415 17.334" fill="#0092B7"/>
<path fill-rule="evenodd" clip-rule="evenodd" d="M16.0181 6.62355C15.7286 7.06822 15.4875 7.41307 15.2747 7.77217C15.055 8.14254 14.7642 8.48211 14.6158 8.95089C15.4801 8.95089 16.2914 8.95017 17.1028 8.95132C17.3166 8.9516 17.4182 8.89883 17.2867 8.68691C16.8747 8.02375 16.4687 7.35745 16.0181 6.62355M15.9966 10.662C15.0355 10.662 14.0744 10.669 13.1133 10.6601C12.1382 10.6511 11.7237 10.0406 12.1942 9.26835C13.1569 7.68803 14.1355 6.11584 15.1302 4.55278C15.6001 3.81446 16.4061 3.81646 16.8753 4.55449C17.8695 6.11883 18.8495 7.69117 19.8136 9.27163C20.2675 10.0157 19.8604 10.6487 18.941 10.6604C17.9598 10.6728 16.978 10.6631 15.9966 10.662" fill="#0092B7"/>
<path fill-rule="evenodd" clip-rule="evenodd" d="M32.0044 4.67248C34.5458 4.67248 37.0871 4.67781 39.6285 4.66748C40.0724 4.66564 40.4204 4.82997 40.5901 5.28295C40.7255 5.6441 40.6865 6.02075 40.4344 6.33724C40.2333 6.58989 39.9769 6.66389 39.6857 6.66389C34.5633 6.66389 29.4409 6.66889 24.3185 6.66506C23.7095 6.66456 23.3422 6.28124 23.3337 5.69643C23.3244 5.04946 23.6743 4.67131 24.3209 4.66981C26.882 4.66414 29.4433 4.66748 32.0044 4.66748V4.67248Z" fill="#0092B7"/>
<path fill-rule="evenodd" clip-rule="evenodd" d="M40.6391 27.9984C38.6454 27.9984 36.6516 27.9973 34.6579 27.9999C34.4027 28.0002 34.1502 27.9958 33.9078 27.8959C33.5139 27.7334 33.318 27.4204 33.3345 26.9538C33.3508 26.488 33.5608 26.1755 33.9731 26.073C34.199 26.0167 34.4376 26.0037 34.6704 26.0036C38.6775 25.9992 42.6844 25.9992 46.6915 26.0018C46.8855 26.0019 47.0819 26.0213 47.2734 26.057C47.7174 26.1396 47.9648 26.4565 47.9972 26.9357C48.0304 27.4275 47.7859 27.7371 47.3717 27.9061C47.1247 28.0069 46.8739 27.9999 46.6204 27.9999C44.6267 27.9999 42.6328 27.9999 40.6391 27.9984" fill="#0092B7"/>
<path fill-rule="evenodd" clip-rule="evenodd" d="M40.6113 19.9943C38.6175 19.9943 36.6238 19.9925 34.6301 19.9966C34.3738 19.9971 34.1208 19.9883 33.8817 19.8818C33.491 19.7075 33.3162 19.3767 33.3348 18.9173C33.3531 18.4702 33.5842 18.1855 33.9552 18.0898C34.2549 18.0124 34.5747 18.0081 34.8857 18.0076C38.834 18.0003 42.7824 17.9982 46.7306 18.0016C46.9625 18.0017 47.2055 18.0228 47.4239 18.1004C47.7935 18.2319 47.9866 18.5475 47.9995 18.9784C48.0117 19.3846 47.8417 19.6871 47.512 19.8576C47.2615 19.9872 46.9869 20.0006 46.7098 20C44.6769 19.9948 42.6441 19.9971 40.6113 19.9971V19.9943Z" fill="#0092B7"/>
<path fill-rule="evenodd" clip-rule="evenodd" d="M40.6775 23.9988C38.6064 23.9988 36.5353 24.0025 34.4644 23.9968C33.7137 23.9948 33.3342 23.6505 33.3335 23.0026C33.3326 22.3528 33.7217 22.0018 34.4645 22.0015C38.587 21.9995 42.7097 22.0006 46.8323 22.001C46.9105 22.001 46.9888 21.9976 47.0667 22.0033C47.6335 22.0447 48.0135 22.4692 47.9998 23.0431C47.9867 23.5938 47.6262 23.9877 47.0665 23.9907C44.937 24.002 42.8072 23.9952 40.6775 23.9952V23.9988Z" fill="#0092B7"/>
<path fill-rule="evenodd" clip-rule="evenodd" d="M40.6526 30.0049C42.6664 30.0049 44.6802 30.0045 46.694 30.0054C46.8698 30.0054 47.0499 29.9859 47.2208 30.0212C47.7018 30.1204 48.0034 30.45 48.0001 31.0144C47.997 31.5781 47.6956 31.8976 47.2087 31.9841C47.0937 32.0045 46.9746 31.9977 46.8575 31.9977C42.732 31.9989 38.6067 31.9994 34.4812 31.9999C34.4032 31.9999 34.3248 32.001 34.2467 31.9964C33.6641 31.9617 33.3206 31.5716 33.3339 30.9604C33.3459 30.3985 33.6954 30.0147 34.2592 30.0105C35.9602 29.9979 37.6612 30.005 39.3622 30.0045C39.7924 30.0044 40.2224 30.0044 40.6526 30.0049" fill="#0092B7"/>
<path fill-rule="evenodd" clip-rule="evenodd" d="M27.6182 10.6585C26.5524 10.6585 25.4864 10.6695 24.4207 10.6547C23.6819 10.6443 23.2998 10.2594 23.3358 9.61352C23.3601 9.17663 23.5558 8.87708 23.9446 8.76558C24.1513 8.70626 24.3709 8.67489 24.5848 8.67391C26.598 8.66611 28.6114 8.66579 30.6247 8.66709C31.536 8.66757 32.0252 9.03701 31.9992 9.69349C31.9729 10.3563 31.5416 10.6653 30.6381 10.6661C29.6316 10.6669 28.6249 10.6663 27.6182 10.6663V10.6585Z" fill="#0092B7"/>
<path fill-rule="evenodd" clip-rule="evenodd" d="M36.6745 35.9923C35.73 35.9923 34.7853 35.9994 33.8407 35.989C33.4313 35.9845 33.0372 35.9096 32.7978 35.4845C32.5081 34.97 32.7154 34.3023 33.2468 34.1101C33.4514 34.036 33.679 34.0046 33.8961 34.0039C35.7451 33.9979 37.5942 33.9984 39.4432 34.008C40.2024 34.012 40.6041 34.3089 40.6591 34.8666C40.7276 35.5641 40.3206 35.9779 39.5083 35.9918C38.5639 36.0078 37.6191 35.9955 36.6745 35.9955V35.9923Z" fill="#0092B7"/>
<path fill-rule="evenodd" clip-rule="evenodd" d="M24.9331 24.0221C24.9415 23.5322 24.5281 23.1199 24.0186 23.1104C23.4999 23.1007 23.0937 23.481 23.0813 23.9879C23.0693 24.4827 23.4813 24.9083 23.9793 24.9156C24.4612 24.9226 24.925 24.4881 24.9331 24.0221M26.6668 24.022C26.6693 25.471 25.4616 26.6611 23.9824 26.6668C22.5578 26.6725 21.3443 25.4701 21.3336 24.0427C21.3227 22.5729 22.492 21.3672 23.9604 21.3342C25.4273 21.3009 26.6642 22.5294 26.6668 24.022" fill="#0092B7"/>
</svg>
