<?xml version="1.0" encoding="utf-8"?>
<!-- Generator: Adobe Illustrator 25.4.1, SVG Export Plug-In . SVG Version: 6.00 Build 0)  -->
<svg version="1.1" id="Layer_1" xmlns="http://www.w3.org/2000/svg" xmlns:xlink="http://www.w3.org/1999/xlink" x="0px" y="0px"
	 viewBox="0 0 51 28" style="enable-background:new 0 0 51 28;" xml:space="preserve">
<g>
	<path d="M37,28c-0.8,0-1.5-0.3-2.1-0.9c-1.2-1.2-1.2-3.1,0-4.2l8.9-8.9l-8.9-8.9c-1.2-1.2-1.2-3.1,0-4.2c1.2-1.2,3.1-1.2,4.2,0
		l11,11c1.2,1.2,1.2,3.1,0,4.2l-11,11C38.5,27.7,37.8,28,37,28z"/>
</g>
<g>
	<path d="M20,28c-0.8,0-1.5-0.3-2.1-0.9c-1.2-1.2-1.2-3.1,0-4.2l8.9-8.9l-8.9-8.9c-1.2-1.2-1.2-3.1,0-4.2c1.2-1.2,3.1-1.2,4.2,0
		l11,11c1.2,1.2,1.2,3.1,0,4.2l-11,11C21.5,27.7,20.8,28,20,28z"/>
</g>
<g>
	<path d="M3,28c-0.8,0-1.5-0.3-2.1-0.9c-1.2-1.2-1.2-3.1,0-4.2L9.8,14L0.9,5.1c-1.2-1.2-1.2-3.1,0-4.2C2-0.3,4-0.3,5.1,0.9l11,11
		c1.2,1.2,1.2,3.1,0,4.2l-11,11C4.5,27.7,3.8,28,3,28z"/>
</g>
</svg>
