<svg xmlns:xlink="http://www.w3.org/1999/xlink" width="30" height="30" viewBox="0 0 30 30" xmlns="http://www.w3.org/2000/svg">
<path d="M12.9255 25.9074V18.2346C12.9255 17.9701 12.7113 17.7559 12.4468 17.7559H9.25533C8.99089 17.7559 8.77661 17.9701 8.77661 18.2346C8.77661 18.499 8.99089 18.7133 9.25533 18.7133H11.9681V25.9074C11.0544 26.1242 10.3724 26.9465 10.3724 27.9255C10.3724 29.0694 11.3029 30 12.4468 30C13.5907 30 14.5213 29.0694 14.5213 27.9255C14.5213 26.9465 13.8393 26.1242 12.9255 25.9074ZM12.4468 29.0426C11.8309 29.0426 11.3298 28.5414 11.3298 27.9255C11.3298 27.3096 11.8309 26.8085 12.4468 26.8085C13.0627 26.8085 13.5638 27.3096 13.5638 27.9255C13.5638 28.5414 13.0627 29.0426 12.4468 29.0426Z" fill="#222222"></path>
<path d="M18.0319 25.9074V18.2346C18.0319 17.9701 17.8177 17.7559 17.5532 17.7559H14.3618C14.0973 17.7559 13.8831 17.9701 13.8831 18.2346C13.8831 18.499 14.0973 18.7133 14.3618 18.7133H17.0745V25.9074C16.1608 26.1242 15.4787 26.9465 15.4787 27.9255C15.4787 29.0694 16.4093 30 17.5532 30C18.6971 30 19.6277 29.0694 19.6277 27.9255C19.6277 26.9465 18.9457 26.1242 18.0319 25.9074ZM17.5532 29.0426C16.9373 29.0426 16.4362 28.5414 16.4362 27.9255C16.4362 27.3096 16.9373 26.8085 17.5532 26.8085C18.1691 26.8085 18.6702 27.3096 18.6702 27.9255C18.6702 28.5414 18.1691 29.0426 17.5532 29.0426Z" fill="#222222"></path>
<path d="M26.1702 22.6596C25.1911 22.6596 24.3689 23.3416 24.1521 24.2553H23.1383V18.2346C23.1383 17.9701 22.924 17.7559 22.6596 17.7559H19.4681C19.2036 17.7559 18.9893 17.9701 18.9893 18.2346C18.9893 18.499 19.2036 18.7133 19.4681 18.7133H22.1808V24.7341C22.1808 24.9985 22.3951 25.2128 22.6596 25.2128H24.1521C24.3689 26.1265 25.1911 26.8085 26.1702 26.8085C27.3141 26.8085 28.2447 25.8779 28.2447 24.7341C28.2447 23.5902 27.3141 22.6596 26.1702 22.6596ZM26.1702 25.8511C25.5543 25.8511 25.0532 25.3499 25.0532 24.7341C25.0532 24.1182 25.5543 23.617 26.1702 23.617C26.7861 23.617 27.2872 24.1182 27.2872 24.7341C27.2872 25.3499 26.7861 25.8511 26.1702 25.8511Z" fill="#222222"></path>
<path d="M28.8601 10.3121C28.2149 9.51109 27.3386 8.9176 26.3635 8.61479C26.2537 6.34864 25.3135 4.23428 23.6929 2.62717C21.9844 0.933 19.7184 0 17.3123 0C14.1527 0 11.2289 1.64757 9.58468 4.32683C9.18485 4.20077 8.76925 4.13713 8.34421 4.13713C6.38866 4.13713 4.707 5.51751 4.30149 7.39915C1.79004 8.05066 0 10.3397 0 12.9639C0 16.1341 2.57911 18.7133 5.74934 18.7133H6.8617V24.2553H5.84789C5.63113 23.3416 4.80887 22.6596 3.82979 22.6596C2.68589 22.6596 1.75532 23.5901 1.75532 24.734C1.75532 25.8779 2.68589 26.8085 3.82979 26.8085C4.80887 26.8085 5.63113 26.1265 5.84789 25.2128H7.34043C7.60487 25.2128 7.81915 24.9985 7.81915 24.734V18.2346C7.81915 17.9701 7.60487 17.7558 7.34043 17.7558H5.74934C3.10711 17.7558 0.957447 15.6062 0.957447 12.9639C0.957447 10.6837 2.5784 8.70721 4.81168 8.2643C5.01306 8.2244 5.16664 8.06049 5.19326 7.85687C5.39936 6.28213 6.75396 5.09464 8.34421 5.09464C8.7817 5.09464 9.20598 5.18228 9.60523 5.35506C9.83157 5.45304 10.0951 5.36304 10.2144 5.14736C11.6431 2.56289 14.3629 0.957447 17.3123 0.957447C21.7411 0.957447 25.3766 4.55987 25.4165 8.988C25.4185 9.20923 25.5718 9.40021 25.7873 9.45006C27.704 9.89362 29.0426 11.5789 29.0426 13.5481C29.0426 15.8683 27.1551 17.7558 24.835 17.7558H24.5745C24.31 17.7558 24.0957 17.9701 24.0957 18.2346C24.0957 18.499 24.31 18.7133 24.5745 18.7133H24.8349C27.6829 18.7133 30 16.3962 30 13.5481C30 12.374 29.5951 11.2247 28.8601 10.3121ZM3.82979 25.8511C3.21389 25.8511 2.71277 25.3499 2.71277 24.734C2.71277 24.1181 3.21389 23.617 3.82979 23.617C4.44568 23.617 4.94681 24.1181 4.94681 24.734C4.94681 25.3499 4.44568 25.8511 3.82979 25.8511Z" fill="#222222"></path>
<path d="M23.342 9.48554H23.3464C23.6108 9.48312 23.8232 9.26686 23.8208 9.00248C23.8136 8.21393 23.6648 7.44229 23.3784 6.70901C23.2821 6.46276 23.0046 6.34103 22.7583 6.43723C22.512 6.53342 22.3903 6.81101 22.4865 7.05733C22.7305 7.68184 22.8572 8.33923 22.8633 9.01116C22.8658 9.27414 23.0796 9.48554 23.342 9.48554Z" fill="#222222"></path>
<path d="M21.5922 5.53765C21.6869 5.65229 21.8237 5.71152 21.9616 5.71152C22.069 5.71152 22.177 5.67558 22.2662 5.60186C22.47 5.43348 22.4988 5.13175 22.3304 4.92788C21.0838 3.41875 19.2547 2.55322 17.3124 2.55322C17.0479 2.55322 16.8336 2.7675 16.8336 3.03195C16.8336 3.29639 17.0479 3.51067 17.3124 3.51067C18.9681 3.51067 20.5281 4.24944 21.5922 5.53765Z" fill="#222222"></path>
</svg>