<?xml version="1.0" encoding="UTF-8"?>
<svg width="22px" height="22px" viewBox="0 0 22 22" version="1.1" xmlns="http://www.w3.org/2000/svg" xmlns:xlink="http://www.w3.org/1999/xlink">
    <title>instagram</title>
    <g id="Page-1" stroke="none" stroke-width="1" fill="none" fill-rule="evenodd">
        <g id="Home_Logknot" transform="translate(-239.000000, -4733.000000)" fill="#FFFFFF" fill-rule="nonzero">
            <g id="Group-2" transform="translate(0.000000, 4495.000000)">
                <g id="instagram" transform="translate(239.000000, 238.000000)">
                    <path d="M15.6093867,0 L6.39065625,0 C2.86683203,0 0,2.86683203 0,6.39065625 L0,15.6093438 C0,19.133168 2.86683203,22 6.39065625,22 L15.6093438,22 C19.133168,22 22,19.133168 22,15.6093867 L22,6.39065625 C22,2.86683203 19.133168,0 15.6093867,0 Z M20.28125,15.6093437 C20.28125,18.1854492 18.1854492,20.28125 15.6093867,20.28125 L6.39065625,20.28125 C3.81455078,20.28125 1.71875,18.1854492 1.71875,15.6093867 L1.71875,6.39065625 C1.71875,3.81455078 3.81455078,1.71875 6.39065625,1.71875 L15.6093438,1.71875 C18.1854492,1.71875 20.28125,3.81455078 20.28125,6.39065625 L20.28125,15.6093437 Z" id="Shape"></path>
                    <path d="M11,5 C7.69156522,5 5,7.69156522 5,11 C5,14.3084348 7.69156522,17 11,17 C14.3084348,17 17,14.3084348 17,11 C17,7.69156522 14.3084348,5 11,5 Z M11,15.2608696 C8.65056522,15.2608696 6.73913043,13.3494348 6.73913043,11 C6.73913043,8.65056522 8.65056522,6.73913043 11,6.73913043 C13.3494348,6.73913043 15.2608696,8.65056522 15.2608696,11 C15.2608696,13.3494348 13.3494348,15.2608696 11,15.2608696 Z" id="Shape"></path>
                    <circle id="Oval" cx="17" cy="5" r="1"></circle>
                </g>
            </g>
        </g>
    </g>
</svg>