<svg xmlns:xlink="http://www.w3.org/1999/xlink" width="32" height="32" viewBox="0 0 32 32" xmlns="http://www.w3.org/2000/svg">
<path d="M25.375 25.5156C25.1161 25.5156 24.9062 25.7254 24.9062 25.9844V27.4062H9.97919C9.72025 27.4062 9.51044 27.6161 9.51044 27.875C9.51044 28.1339 9.72025 28.3438 9.97919 28.3438H24.9062V29.6562C24.9062 30.4316 24.2754 31.0625 23.5 31.0625H8.5C7.72462 31.0625 7.09375 30.4316 7.09375 29.6562V28.3438H7.97919C8.23813 28.3438 8.44794 28.1339 8.44794 27.875C8.44794 27.6161 8.23813 27.4062 7.97919 27.4062H7.09375V8C7.09375 7.74106 6.88394 7.53125 6.625 7.53125C6.36606 7.53125 6.15625 7.74106 6.15625 8V29.6562C6.15625 30.9486 7.20763 32 8.5 32H23.5C24.7924 32 25.8438 30.9486 25.8438 29.6562V25.9844C25.8438 25.7254 25.6339 25.5156 25.375 25.5156Z" fill="#222222"></path>
<path d="M23.5 0H8.5C7.20763 0 6.15625 1.05138 6.15625 2.34375V5.97656C6.15625 6.2355 6.36606 6.44531 6.625 6.44531C6.88394 6.44531 7.09375 6.2355 7.09375 5.97656V4.59375H24.9062V23.9844C24.9062 24.2433 25.1161 24.4531 25.375 24.4531C25.6339 24.4531 25.8438 24.2433 25.8438 23.9844V2.34375C25.8438 1.05138 24.7924 0 23.5 0ZM24.9062 3.65625H7.09375V2.34375C7.09375 1.56837 7.72462 0.9375 8.5 0.9375H23.5C24.2754 0.9375 24.9062 1.56837 24.9062 2.34375V3.65625Z" fill="#222222"></path>
<path d="M22.2853 11.0656C21.5579 10.1567 20.5464 9.65625 19.4375 9.65625C17.7042 9.65625 16.5582 10.6126 16 11.229C15.4418 10.6126 14.2958 9.65625 12.5625 9.65625C11.4536 9.65625 10.4421 10.1567 9.71469 11.0656C9.03219 11.9182 8.65625 13.053 8.65625 14.2608C8.65625 16.0681 9.56656 19.5917 15.6631 22.8837C15.7686 22.9407 15.8843 22.9692 16.0001 22.9692C16.1157 22.9692 16.2313 22.9407 16.3367 22.8838C22.4334 19.5917 23.3438 16.0681 23.3438 14.2608C23.3438 13.053 22.9678 11.9182 22.2853 11.0656ZM16 21.9998C11.8676 19.7423 9.59375 16.9969 9.59375 14.2608C9.59375 12.1703 10.8701 10.5938 12.5625 10.5938C14.2839 10.5938 15.2833 11.7898 15.5486 12.1564H15.5486C15.6532 12.3009 15.8219 12.3871 16 12.3871C16.1781 12.3871 16.3468 12.3009 16.4514 12.1564C16.7167 11.7898 17.7161 10.5938 19.4375 10.5938C21.1299 10.5938 22.4062 12.1703 22.4062 14.2608C22.4062 16.9969 20.1326 19.7422 16 21.9998Z" fill="#222222"></path>
<path d="M17.625 1.78125H14.375C14.1161 1.78125 13.9062 1.99106 13.9062 2.25C13.9062 2.50894 14.1161 2.71875 14.375 2.71875H17.625C17.8839 2.71875 18.0938 2.50894 18.0938 2.25C18.0938 1.99106 17.8839 1.78125 17.625 1.78125Z" fill="#222222"></path>
<path d="M17.625 29.2812H14.375C14.1161 29.2812 13.9062 29.4911 13.9062 29.75C13.9062 30.0089 14.1161 30.2188 14.375 30.2188H17.625C17.8839 30.2188 18.0938 30.0089 18.0938 29.75C18.0938 29.4911 17.8839 29.2812 17.625 29.2812Z" fill="#222222"></path>
</svg>