<svg width="2002" height="2002" viewBox="0 0 2002 2002" fill="none" xmlns="http://www.w3.org/2000/svg">
<path d="M702.069 1184.75C655.448 1234.11 589.628 1261.53 518.324 1261.53C447.02 1261.53 383.943 1234.11 334.579 1184.75C285.215 1135.38 257.79 1069.56 257.79 1001C257.79 932.439 285.215 866.62 334.579 817.255C383.943 767.891 449.763 740.466 518.324 740.466C586.886 740.466 652.705 767.891 702.069 817.255L795.313 910.499L1426.08 279.732C1299.93 205.686 1154.58 161.806 998.256 161.806C537.522 161.806 161.804 537.524 161.804 1001C161.804 1464.48 537.522 1840.19 1001 1840.19C1157.32 1840.19 1302.67 1796.32 1428.82 1722.27L798.056 1091.5L702.069 1184.75Z" fill="#1F91B3"/>
<path d="M1258.79 1184.75C1236.85 1206.68 1209.43 1225.88 1179.26 1239.59L1140.87 1256.05L1533.04 1648.22C1601.6 1590.63 1661.94 1522.07 1708.56 1448.02L1352.04 1091.5L1258.79 1184.75Z" fill="#1F91B3"/>
<path d="M1771.64 1330.1C1815.51 1228.62 1837.45 1118.93 1837.45 1001C1837.45 883.074 1812.77 773.375 1771.64 671.904L1442.54 1001L1771.64 1330.1Z" fill="#1F91B3"/>
<path d="M1182 762.406C1212.17 776.118 1236.85 792.573 1261.54 817.255L1354.78 910.499L1711.3 553.979C1664.68 477.19 1604.34 408.628 1535.78 353.779L1140.87 745.951L1182 762.406Z" fill="#1F91B3"/>
<path d="M1075.05 866.619C1039.39 866.619 1006.48 880.331 981.803 905.013C929.696 957.12 929.696 1042.14 981.803 1094.24C1006.48 1118.93 1039.39 1132.64 1075.05 1132.64C1110.7 1132.64 1143.61 1118.93 1168.29 1094.24L1261.53 1001L1168.29 907.756C1146.35 880.331 1110.7 866.619 1075.05 866.619Z" fill="#1F91B3"/>
<path d="M518.331 866.619C482.679 866.619 449.769 880.331 425.087 905.013C372.98 957.12 372.98 1042.14 425.087 1094.24C449.769 1118.93 482.679 1132.64 518.331 1132.64C553.983 1132.64 586.892 1118.93 611.575 1094.24L704.818 1001L611.575 907.756C589.635 880.331 553.983 866.619 518.331 866.619Z" fill="#1F91B3"/>
</svg>
