<svg width="265" height="65" viewBox="0 0 265 65" fill="none" xmlns="http://www.w3.org/2000/svg">
<path fill-rule="evenodd" clip-rule="evenodd" d="M192.266 18L173.768 32.4547V18.4504H171V47.547H173.768V33.5453L192.266 48L194 45.8996L177.484 33.0013L194 20.0953L192.266 18Z" fill="white"/>
<path fill-rule="evenodd" clip-rule="evenodd" d="M89.7371 19H87V48H110V45.3203H89.7371V19Z" fill="white"/>
<path fill-rule="evenodd" clip-rule="evenodd" d="M130.24 37.8031C130.24 41.4003 127.218 44.3285 123.5 44.3285C119.787 44.3285 116.762 41.4003 116.762 37.8031V35.1994C116.762 31.5997 119.787 28.6715 123.5 28.6715C127.218 28.6715 130.24 31.5997 130.24 35.1994V37.8031ZM123.5 26C118.261 26 114 30.1255 114 35.1994V37.8031C114 42.8745 118.261 47 123.5 47C128.741 47 133 42.8745 133 37.8031V35.1994C133 30.1255 128.741 26 123.5 26V26Z" fill="white"/>
<path fill-rule="evenodd" clip-rule="evenodd" d="M244.24 37.8031C244.24 41.4003 241.218 44.3285 237.503 44.3285C233.787 44.3285 230.762 41.4003 230.762 37.8031V35.1994C230.762 31.5997 233.787 28.6715 237.503 28.6715C241.218 28.6715 244.24 31.5997 244.24 35.1994V37.8031ZM237.503 26C232.261 26 228 30.1255 228 35.1994V37.8031C228 42.8745 232.261 47 237.503 47C242.741 47 247 42.8745 247 37.8031V35.1994C247 30.1255 242.741 26 237.503 26V26Z" fill="white"/>
<path fill-rule="evenodd" clip-rule="evenodd" d="M156.241 44.5352H149.501C145.783 44.5352 142.762 41.5736 142.762 37.9353V35.302C142.762 31.6611 145.783 28.6995 149.501 28.6995H156.241V44.5352ZM140 35.302V37.9353C140 43.0646 144.264 47.2373 149.501 47.2373H156.241V48.1405C156.241 49.8808 154.794 51.2954 153.019 51.2954H141.803V54H153.019C156.316 54 159 51.3743 159 48.1405V26H149.501C144.264 26 140 30.1726 140 35.302V35.302Z" fill="white"/>
<path fill-rule="evenodd" clip-rule="evenodd" d="M215.014 26H202V46.995H204.762V28.6715H215.014C216.791 28.6715 218.236 30.0727 218.236 31.7934V47H221V31.7934C221 28.5986 218.314 26 215.014 26" fill="white"/>
<path fill-rule="evenodd" clip-rule="evenodd" d="M265 28.5043V25.8077H259.509V19H256.757V25.8077H253V28.5043H256.757V41.1547C256.757 44.3795 259.434 47 262.717 47H265V44.3033H262.717C260.948 44.3033 259.509 42.8915 259.509 41.1547V28.5043H265Z" fill="white"/>
<path fill-rule="evenodd" clip-rule="evenodd" d="M23.5058 38.9218C21.9156 40.5063 19.8028 41.3768 17.553 41.3768C15.3033 41.3768 13.188 40.5063 11.5977 38.9218C10.01 37.3423 9.13492 35.2405 9.13492 32.9975C9.13492 30.7595 10.01 28.6552 11.5977 27.0757C13.188 25.4937 15.3033 24.6232 17.553 24.6232C19.8002 24.6232 21.9156 25.4937 23.5058 27.0782L26.5621 30.1161L47 9.78469C42.9444 7.38267 38.204 6 33.1389 6C18.1491 6 6 18.0883 6 33C6 47.9092 18.1491 60 33.1389 60C38.204 60 42.9444 58.6148 47 56.2128L26.5621 35.8839L23.5058 38.9218Z" fill="#0097B3"/>
<path fill-rule="evenodd" clip-rule="evenodd" d="M41.726 38.0464C41.0091 38.7802 40.1706 39.3646 39.2329 39.7872L38 40.3438L50.4085 53C52.5965 51.158 54.4843 48.9643 56 46.51L44.7153 35L41.726 38.0464Z" fill="#0097B3"/>
<path fill-rule="evenodd" clip-rule="evenodd" d="M57.8003 43C59.2144 39.7746 60 36.2262 60 32.5C60 28.7738 59.2144 25.2229 57.8003 22L47 32.5L57.8003 43Z" fill="#0097B3"/>
<path fill-rule="evenodd" clip-rule="evenodd" d="M39.2306 25.2135C40.1684 25.636 41.0095 26.2204 41.7265 26.9515L44.7162 30L56 18.4916C54.4841 16.0377 52.596 13.8417 50.4102 12L38 24.6569L39.2306 25.2135Z" fill="#0097B3"/>
<path fill-rule="evenodd" clip-rule="evenodd" d="M35.1422 28C34.0359 28 32.9951 28.4674 32.2097 29.3178C30.5951 31.0739 30.5976 33.9261 32.2122 35.6796C32.9951 36.5299 34.0334 37 35.1422 37C36.2486 37 37.2894 36.5299 38.0699 35.6822L41 32.5L38.0723 29.3178C37.2894 28.4674 36.2486 28 35.1422 28" fill="#0097B3"/>
<path fill-rule="evenodd" clip-rule="evenodd" d="M17.1428 28C16.0341 28 14.9959 28.4674 14.2105 29.3178C12.5961 31.0739 12.5961 33.9261 14.213 35.6796C14.9959 36.5299 16.0341 37 17.1428 37C18.2491 37 19.2873 36.5299 20.0702 35.6822L23 32.5L20.0726 29.3178C19.2897 28.4674 18.2491 28 17.1428 28" fill="#0097B3"/>
<path fill-rule="evenodd" clip-rule="evenodd" d="M32.4987 2.03268C15.6986 2.03268 2.03006 15.6992 2.03006 32.5025C2.03006 49.3033 15.6986 62.9724 32.4987 62.9724C49.2989 62.9724 62.9674 49.3033 62.9674 32.5025C62.9674 15.6992 49.2989 2.03268 32.4987 2.03268M32.4987 65C14.5767 65 0 50.4227 0 32.5025C0 14.5824 14.5767 0 32.4987 0C50.4182 0 65 14.5824 65 32.5025C65 50.4227 50.4182 65 32.4987 65" fill="#0097B3"/>
</svg>
