<svg width="202" height="94" viewBox="0 0 202 94" fill="none" xmlns="http://www.w3.org/2000/svg">
<path fill-rule="evenodd" clip-rule="evenodd" d="M49.55 75.9883L41.024 82.8443V76.2023H39.749V90.0023H41.024V83.3623L49.55 90.2173L50.349 89.2233L42.738 83.1043L50.349 76.9833L49.55 75.9883Z" fill="#58585B"/>
<path fill-rule="evenodd" clip-rule="evenodd" d="M0 76.208V90.004H10.964V88.729H1.305V76.208H0Z" fill="#58585B"/>
<path fill-rule="evenodd" clip-rule="evenodd" d="M20.5435 85.6139C20.5435 87.3309 19.1475 88.7269 17.4305 88.7269C15.7135 88.7269 14.3165 87.3309 14.3165 85.6139V84.3719C14.3165 82.6549 15.7135 81.2589 17.4305 81.2589C19.1475 81.2589 20.5435 82.6549 20.5435 84.3719V85.6139ZM17.4305 79.9819C15.0095 79.9819 13.0415 81.9519 13.0415 84.3719V85.6139C13.0415 88.0339 15.0095 90.0029 17.4305 90.0029C19.8505 90.0029 21.8185 88.0339 21.8185 85.6139V84.3719C21.8185 81.9519 19.8505 79.9819 17.4305 79.9819V79.9819Z" fill="#58585B"/>
<path fill-rule="evenodd" clip-rule="evenodd" d="M74.0772 85.6139C74.0772 87.3309 72.6812 88.7269 70.9652 88.7269C69.2482 88.7269 67.8522 87.3309 67.8522 85.6139V84.3719C67.8522 82.6549 69.2482 81.2589 70.9652 81.2589C72.6812 81.2589 74.0772 82.6549 74.0772 84.3719V85.6139ZM70.9652 79.9819C68.5442 79.9819 66.5762 81.9519 66.5762 84.3719V85.6139C66.5762 88.0339 68.5442 90.0029 70.9652 90.0029C73.3852 90.0029 75.3532 88.0339 75.3532 85.6139V84.3719C75.3532 81.9519 73.3852 79.9819 70.9652 79.9819V79.9819Z" fill="#58585B"/>
<mask id="mask0_0_500" style="mask-type:luminance" maskUnits="userSpaceOnUse" x="25" y="79" width="9" height="15">
<path fill-rule="evenodd" clip-rule="evenodd" d="M25.0801 79.9824H33.8571V93.1932H25.0801V79.9824Z" fill="white"/>
</mask>
<g mask="url(#mask0_0_500)">
<path fill-rule="evenodd" clip-rule="evenodd" d="M32.5831 88.7274H29.4691C27.7521 88.7274 26.3551 87.3314 26.3551 85.6144V84.3724C26.3551 82.6554 27.7521 81.2584 29.4691 81.2584H32.5831V88.7274ZM25.0801 84.3724V85.6144C25.0801 88.0344 27.0491 90.0024 29.4691 90.0024H32.5831V90.4294C32.5831 91.2504 31.9141 91.9164 31.0931 91.9164H25.9131V93.1934H31.0931C32.6171 93.1934 33.8571 91.9544 33.8571 90.4294V79.9824H29.4691C27.0491 79.9824 25.0801 81.9524 25.0801 84.3724V84.3724Z" fill="#58585B"/>
</g>
<path fill-rule="evenodd" clip-rule="evenodd" d="M60.2957 79.9839H54.2837V89.9989H55.5587V81.2579H60.2957C61.1167 81.2579 61.7837 81.9259 61.7837 82.7469V90.0029H63.0607V82.7469C63.0607 81.2239 61.8197 79.9839 60.2957 79.9839" fill="#58585B"/>
<path fill-rule="evenodd" clip-rule="evenodd" d="M83.8101 81.2586V79.9846H81.2641V76.7656H79.9881V79.9846H78.2451V81.2586H79.9881V87.2376C79.9881 88.7626 81.2281 90.0026 82.7511 90.0026H83.8101V88.7276H82.7511C81.9301 88.7276 81.2641 88.0596 81.2641 87.2376V81.2586H83.8101Z" fill="#58585B"/>
<path fill-rule="evenodd" clip-rule="evenodd" d="M137.472 77.4869H142.333V90.0029H143.608V77.4869H148.438V76.2109H137.472V77.4869Z" fill="#58585B"/>
<mask id="mask1_0_500" style="mask-type:luminance" maskUnits="userSpaceOnUse" x="0" y="0" width="202" height="94">
<path fill-rule="evenodd" clip-rule="evenodd" d="M0 93.193H201.053V0H0V93.193Z" fill="white"/>
</mask>
<g mask="url(#mask1_0_500)">
<path fill-rule="evenodd" clip-rule="evenodd" d="M112.8 90.0031H114.075V76.2061H112.8V90.0031Z" fill="#58585B"/>
<path fill-rule="evenodd" clip-rule="evenodd" d="M165.039 90.0026V76.2056H163.763V88.0106L155.351 76.2056H153.932V90.0026H155.208V78.1986L163.621 90.0026H165.039Z" fill="#58585B"/>
<path fill-rule="evenodd" clip-rule="evenodd" d="M174.308 84.7351L176.683 78.0981L179.057 84.7351H174.308ZM177.361 76.2051H176.004L172.955 84.7351H171.021V86.0101H172.497L171.071 90.0031H172.423L173.851 86.0101H179.515L180.942 90.0031H182.298L177.361 76.2051Z" fill="#58585B"/>
<path fill-rule="evenodd" clip-rule="evenodd" d="M96.4575 76.2051H95.1025L100.038 90.0021H101.394L106.329 76.2051H104.975L100.716 88.1101L96.4575 76.2051Z" fill="#58585B"/>
<path fill-rule="evenodd" clip-rule="evenodd" d="M199.685 76.2051L194.415 85.7241L189.141 76.2051H187.777V90.0021H189.052V78.6721L193.829 87.2961H194.999L199.775 78.6721V90.0021H201.053V76.2051H199.685Z" fill="#58585B"/>
<path fill-rule="evenodd" clip-rule="evenodd" d="M128.093 77.459H132.163V76.208H128.093C124.499 76.208 121.54 78.972 121.228 82.485H119.69V83.736H121.228C121.548 87.245 124.503 90.003 128.093 90.003H132.163V88.751H128.093C125.195 88.751 122.798 86.552 122.486 83.736H131.082V82.485H122.483C122.794 79.663 125.189 77.459 128.093 77.459" fill="#58585B"/>
<path fill-rule="evenodd" clip-rule="evenodd" d="M90.8196 38.6433C89.2176 40.2453 87.0886 41.1273 84.8216 41.1273C82.5556 41.1273 80.4256 40.2453 78.8236 38.6433C77.2236 37.0433 76.3416 34.9133 76.3416 32.6453C76.3416 30.3753 77.2236 28.2453 78.8236 26.6463C80.4246 25.0433 82.5556 24.1623 84.8216 24.1623C87.0886 24.1623 89.2176 25.0433 90.8206 26.6473L93.8996 29.7253L114.49 9.13529C110.402 6.70229 105.629 5.30029 100.527 5.30029C85.4246 5.30029 73.1826 17.5423 73.1826 32.6453C73.1826 47.7473 85.4246 59.9893 100.527 59.9893C105.629 59.9893 110.402 58.5863 114.49 56.1543L93.8986 35.5653L90.8196 38.6433Z" fill="#0097B3"/>
<path fill-rule="evenodd" clip-rule="evenodd" d="M108.975 38.6434C108.237 39.3814 107.372 39.9734 106.406 40.3994L105.136 40.9614L117.919 53.7454C120.173 51.8854 122.117 49.6684 123.679 47.1874L112.054 35.5654L108.975 38.6434Z" fill="#0097B3"/>
<path fill-rule="evenodd" clip-rule="evenodd" d="M125.69 43.3602C127.091 40.0682 127.871 36.4482 127.871 32.6442C127.871 28.8422 127.091 25.2192 125.69 21.9292L114.974 32.6442L125.69 43.3602Z" fill="#0097B3"/>
<path fill-rule="evenodd" clip-rule="evenodd" d="M106.406 24.8884C107.373 25.3174 108.238 25.9084 108.976 26.6464L112.054 29.7234L123.679 18.1004C122.117 15.6204 120.174 13.4034 117.92 11.5444L105.137 24.3264L106.406 24.8884Z" fill="#0097B3"/>
<path fill-rule="evenodd" clip-rule="evenodd" d="M102.977 28.2896C101.815 28.2896 100.721 28.7426 99.8969 29.5666C98.2009 31.2646 98.2009 34.0256 99.8979 35.7236C100.72 36.5456 101.814 36.9986 102.977 36.9986C104.14 36.9986 105.233 36.5456 106.055 35.7236L109.134 32.6446L106.056 29.5646C105.234 28.7426 104.14 28.2896 102.977 28.2896" fill="#0097B3"/>
<path fill-rule="evenodd" clip-rule="evenodd" d="M84.8214 28.2896C83.6584 28.2896 82.5654 28.7426 81.7424 29.5646C80.0454 31.2626 80.0454 34.0246 81.7434 35.7236C82.5654 36.5456 83.6584 36.9986 84.8214 36.9986C85.9844 36.9986 87.0774 36.5456 87.8994 35.7236L90.9784 32.6446L87.9004 29.5646C87.0774 28.7426 85.9844 28.2896 84.8214 28.2896" fill="#0097B3"/>
<path fill-rule="evenodd" clip-rule="evenodd" d="M100.526 2.04051C83.6503 2.04051 69.9223 15.7695 69.9223 32.6445C69.9223 49.5175 83.6503 63.2485 100.526 63.2485C117.401 63.2485 131.13 49.5175 131.13 32.6445C131.13 15.7695 117.401 2.04051 100.526 2.04051M100.526 65.2895C82.5253 65.2895 67.8813 50.6445 67.8813 32.6445C67.8813 14.6445 82.5253 -0.000488281 100.526 -0.000488281C118.526 -0.000488281 133.171 14.6445 133.171 32.6445C133.171 50.6445 118.526 65.2895 100.526 65.2895" fill="#0097B3"/>
</g>
</svg>
