<svg width="951" height="205" viewBox="0 0 951 205" fill="none" xmlns="http://www.w3.org/2000/svg">
<g opacity="0.05">
<path d="M161.673 120.688C156.587 125.775 150.113 128.549 142.715 128.549C135.779 128.549 128.842 125.775 123.756 120.688C118.67 115.602 115.895 109.128 115.895 101.729C115.895 94.7934 118.67 87.8572 123.756 82.7708C128.842 77.6843 135.316 74.91 142.715 74.91C149.651 74.91 156.587 77.6843 161.673 82.7708L171.384 92.4813L235.658 28.2069C222.711 20.8084 207.914 16.1843 191.73 16.1843C144.564 16.1843 106.185 54.564 106.185 101.729C106.185 148.895 144.564 187.275 191.73 187.275C207.914 187.275 222.711 183.113 235.658 175.252L171.384 110.978L161.673 120.688Z" fill="black"/>
<path d="M218.55 120.688C216.238 123 213.463 124.85 210.689 126.237L206.527 128.087L246.757 168.316C253.693 162.305 259.704 155.368 264.791 147.97L228.26 111.44L218.55 120.688Z" fill="black"/>
<path d="M270.8 135.485C274.961 125.312 277.736 113.752 277.736 101.729C277.736 89.7067 275.424 78.609 270.8 67.9736L237.044 101.729L270.8 135.485Z" fill="black"/>
<path d="M210.689 77.6842C213.926 79.0714 216.238 80.9211 218.55 83.2331L228.26 92.9437L264.791 56.4136C259.704 48.5527 253.693 41.6165 246.757 36.0676L206.527 76.297L210.689 77.6842Z" fill="black"/>
<path d="M199.59 88.3196C195.891 88.3196 192.654 89.7068 189.879 92.4812C184.793 97.5677 184.793 106.353 189.879 111.902C192.654 114.677 195.891 116.064 199.59 116.064C203.289 116.064 206.526 114.677 209.3 111.902L219.011 102.192L209.3 92.4812C206.988 89.7068 203.289 88.3196 199.59 88.3196Z" fill="black"/>
<path d="M142.715 88.3196C139.016 88.3196 135.779 89.7068 133.004 92.4812C127.918 97.5677 127.918 106.353 133.004 111.902C135.779 114.677 139.016 116.064 142.715 116.064C146.414 116.064 149.651 114.677 152.425 111.902L162.136 102.192L152.425 92.4812C150.113 89.7068 146.414 88.3196 142.715 88.3196Z" fill="black"/>
<path d="M192.192 204.384C135.778 204.384 90 158.605 90 102.192C90 45.7782 135.778 0 192.192 0C248.605 0 294.384 45.7782 294.384 102.192C294.384 158.143 248.605 204.384 192.192 204.384ZM192.192 6.01122C139.477 6.01122 96.4737 49.015 96.4737 101.729C96.4737 154.444 139.477 197.447 192.192 197.447C244.906 197.447 287.91 154.444 287.91 101.729C287.91 49.015 244.906 6.01122 192.192 6.01122Z" fill="black"/>
<path d="M350.335 43.4653H370.681V137.796H416.922V156.292H349.873V43.4653H350.335Z" fill="black"/>
<path d="M446.054 151.669C440.043 147.97 434.956 142.883 431.719 136.41C428.482 129.936 426.633 123 426.633 115.601C426.633 108.203 428.482 100.804 431.719 94.3307C434.956 87.857 439.58 82.7706 446.054 79.0714C452.065 75.3721 459.464 73.5225 468.249 73.5225C476.573 73.5225 483.971 75.3721 490.445 79.0714C496.456 82.7706 501.543 87.857 504.779 94.3307C508.016 100.804 509.866 107.741 509.866 115.601C509.866 123 508.016 130.398 504.779 136.41C501.543 142.883 496.918 147.97 490.445 151.669C484.434 155.368 477.035 157.218 468.249 157.218C459.464 157.218 452.065 155.368 446.054 151.669ZM483.509 134.098C487.208 129.474 489.058 123.462 489.058 115.601C489.058 107.741 487.208 101.729 483.509 97.1052C479.809 92.4811 474.723 90.1691 468.249 90.1691C461.776 90.1691 456.689 92.4811 452.99 97.1052C449.291 101.729 447.441 107.741 447.441 115.601C447.441 123 449.291 129.474 452.99 134.098C456.689 138.722 461.776 141.034 468.249 141.034C474.723 141.034 479.809 138.722 483.509 134.098Z" fill="black"/>
<path d="M531.136 190.049C524.2 185.887 520.963 180.338 520.963 173.402C520.963 165.541 525.124 159.53 533.91 154.443C529.286 151.669 526.974 147.97 526.974 142.883C526.974 140.571 527.899 138.259 529.286 136.41C530.673 134.56 532.523 132.71 535.298 131.786C531.136 129.011 528.361 125.312 526.049 120.688C523.737 116.064 522.812 111.44 522.812 105.891C522.812 99.8796 524.2 94.7931 526.512 89.7066C529.286 84.6202 532.985 80.9209 537.61 78.1465C542.696 75.3721 548.245 73.9849 555.181 73.9849C562.117 73.9849 568.128 75.8345 573.677 79.0714C575.527 78.1465 577.839 77.2217 581.076 76.7593C584.313 75.8345 587.549 75.8345 590.786 75.8345H595.873L594.485 88.3195H587.087C585.237 88.3195 583.85 88.3195 582.463 88.3195C585.7 93.4059 587.087 98.9548 587.087 105.891C587.087 111.902 585.7 116.989 583.388 122.075C581.076 127.162 576.914 130.861 572.29 133.635C567.204 136.41 561.655 137.797 554.718 137.797C552.406 137.797 549.632 137.335 546.395 136.872C545.008 137.335 544.546 138.259 544.546 139.647C544.546 141.034 545.47 141.959 546.858 142.883C548.707 143.808 551.482 144.271 555.181 144.733L569.053 146.583C587.549 148.895 596.797 156.756 596.797 169.703C596.797 178.026 593.561 184.5 586.624 189.124C579.688 193.748 569.978 196.522 557.955 196.522C547.32 196.522 538.072 194.21 531.136 190.049ZM579.688 171.09C579.688 168.316 578.301 166.004 575.989 164.616C573.677 163.229 569.516 161.842 564.429 161.38L546.858 158.605C540.846 160.917 537.61 164.617 537.61 169.703C537.61 173.402 539.459 176.639 543.158 178.489C546.858 180.338 552.406 181.263 558.88 181.263C572.752 181.263 579.688 178.026 579.688 171.09ZM566.279 118.376C568.591 115.139 569.978 110.977 569.978 105.891C569.978 100.342 568.591 96.1804 566.279 93.406C563.967 90.1691 560.267 88.7819 555.643 88.7819C551.019 88.7819 547.32 90.1691 545.008 93.406C542.696 96.6428 541.309 100.804 541.309 105.891C541.309 111.44 542.696 115.601 545.008 118.376C547.32 121.613 551.019 123 555.643 123C559.805 123 563.504 121.613 566.279 118.376Z" fill="black"/>
<path d="M615.756 43.4661H636.102V155.831H615.756V43.4661ZM637.951 96.1804L679.568 43.0037H703.613L661.534 96.1804L703.613 155.831H679.568L637.951 96.1804Z" fill="black"/>
<path d="M720.724 75.372H739.22L739.682 80.921C746.618 76.2969 753.555 73.9849 761.415 73.9849C771.588 73.9849 778.987 77.2218 784.073 84.1579C789.16 90.6315 791.934 99.8796 791.934 110.977V155.831H772.051V112.827C772.051 105.428 770.664 99.8795 768.352 96.1803C766.04 92.481 761.878 90.6315 756.329 90.6315C750.318 90.6315 745.231 92.9435 741.07 97.5676V155.831H721.186V75.372H720.724Z" fill="black"/>
<path d="M828.462 151.669C822.451 147.97 817.364 142.883 814.128 136.41C810.891 129.936 809.041 123 809.041 115.601C809.041 108.203 810.891 100.804 814.128 94.3307C817.364 87.857 821.988 82.7706 828.462 79.0714C834.473 75.3721 841.872 73.5225 850.658 73.5225C858.981 73.5225 866.379 75.3721 872.853 79.0714C878.864 82.7706 883.951 87.857 887.188 94.3307C890.424 100.804 892.274 107.741 892.274 115.601C892.274 123 890.424 130.398 887.188 136.41C883.951 142.883 879.327 147.97 872.853 151.669C866.842 155.368 859.443 157.218 850.658 157.218C841.872 157.218 834.473 155.368 828.462 151.669ZM865.917 134.098C869.616 129.474 871.466 123.462 871.466 115.601C871.466 107.741 869.616 101.729 865.917 97.1052C862.218 92.4811 857.131 90.1691 850.658 90.1691C844.184 90.1691 839.097 92.4811 835.398 97.1052C831.699 101.729 829.849 107.741 829.849 115.601C829.849 123 831.699 129.474 835.398 134.098C839.097 138.722 844.184 141.034 850.658 141.034C857.131 141.034 862.218 138.722 865.917 134.098Z" fill="black"/>
<path d="M918.632 151.207C914.932 147.045 913.083 141.959 913.083 136.41V92.0188H901.522L903.372 75.8346H913.083V58.2632L932.966 55.9512V75.8346H950.538V92.0188H932.966V128.549C932.966 132.711 933.428 135.947 933.891 137.335C934.353 139.184 935.278 140.109 937.128 140.571C938.977 141.034 941.289 141.496 945.451 141.496H951L949.15 157.681H934.816C927.88 157.218 922.331 155.369 918.632 151.207Z" fill="black"/>
</g>
<g opacity="0.1">
<path d="M111.673 120.688C106.587 125.775 100.113 128.549 92.7147 128.549C85.7786 128.549 78.8425 125.775 73.756 120.688C68.6695 115.602 65.8951 109.128 65.8951 101.729C65.8951 94.7934 68.6695 87.8572 73.756 82.7708C78.8425 77.6843 85.3162 74.91 92.7147 74.91C99.6508 74.91 106.587 77.6843 111.673 82.7708L121.384 92.4813L185.658 28.2069C172.711 20.8084 157.914 16.1843 141.73 16.1843C94.5643 16.1843 56.1846 54.564 56.1846 101.729C56.1846 148.895 94.5643 187.275 141.73 187.275C157.914 187.275 172.711 183.113 185.658 175.252L121.384 110.978L111.673 120.688Z" fill="black"/>
<path d="M168.55 120.688C166.238 123 163.463 124.85 160.689 126.237L156.527 128.087L196.757 168.316C203.693 162.305 209.704 155.368 214.791 147.97L178.26 111.44L168.55 120.688Z" fill="black"/>
<path d="M220.8 135.485C224.961 125.312 227.736 113.752 227.736 101.729C227.736 89.7067 225.424 78.609 220.8 67.9736L187.044 101.729L220.8 135.485Z" fill="black"/>
<path d="M160.689 77.6842C163.926 79.0714 166.238 80.9211 168.55 83.2331L178.26 92.9437L214.791 56.4136C209.704 48.5527 203.693 41.6165 196.757 36.0676L156.527 76.297L160.689 77.6842Z" fill="black"/>
<path d="M149.59 88.3196C145.891 88.3196 142.654 89.7068 139.879 92.4812C134.793 97.5677 134.793 106.353 139.879 111.902C142.654 114.677 145.891 116.064 149.59 116.064C153.289 116.064 156.526 114.677 159.3 111.902L169.011 102.192L159.3 92.4812C156.988 89.7068 153.289 88.3196 149.59 88.3196Z" fill="black"/>
<path d="M92.7149 88.3196C89.0156 88.3196 85.7787 89.7068 83.0043 92.4812C77.9178 97.5677 77.9178 106.353 83.0043 111.902C85.7787 114.677 89.0156 116.064 92.7149 116.064C96.4141 116.064 99.6509 114.677 102.425 111.902L112.136 102.192L102.425 92.4812C100.113 89.7068 96.4141 88.3196 92.7149 88.3196Z" fill="black"/>
<path d="M142.192 204.384C85.7782 204.384 40 158.605 40 102.192C40 45.7782 85.7782 0 142.192 0C198.605 0 244.384 45.7782 244.384 102.192C244.384 158.143 198.605 204.384 142.192 204.384ZM142.192 6.01122C89.4775 6.01122 46.4737 49.015 46.4737 101.729C46.4737 154.444 89.4775 197.447 142.192 197.447C194.906 197.447 237.91 154.444 237.91 101.729C237.91 49.015 194.906 6.01122 142.192 6.01122Z" fill="black"/>
<path d="M300.335 43.4653H320.681V137.796H366.922V156.292H299.873V43.4653H300.335Z" fill="black"/>
<path d="M396.054 151.669C390.043 147.97 384.956 142.883 381.719 136.41C378.482 129.936 376.633 123 376.633 115.601C376.633 108.203 378.482 100.804 381.719 94.3307C384.956 87.857 389.58 82.7706 396.054 79.0714C402.065 75.3721 409.464 73.5225 418.249 73.5225C426.573 73.5225 433.971 75.3721 440.445 79.0714C446.456 82.7706 451.543 87.857 454.779 94.3307C458.016 100.804 459.866 107.741 459.866 115.601C459.866 123 458.016 130.398 454.779 136.41C451.543 142.883 446.918 147.97 440.445 151.669C434.434 155.368 427.035 157.218 418.249 157.218C409.464 157.218 402.065 155.368 396.054 151.669ZM433.509 134.098C437.208 129.474 439.058 123.462 439.058 115.601C439.058 107.741 437.208 101.729 433.509 97.1052C429.809 92.4811 424.723 90.1691 418.249 90.1691C411.776 90.1691 406.689 92.4811 402.99 97.1052C399.291 101.729 397.441 107.741 397.441 115.601C397.441 123 399.291 129.474 402.99 134.098C406.689 138.722 411.776 141.034 418.249 141.034C424.723 141.034 429.809 138.722 433.509 134.098Z" fill="black"/>
<path d="M481.136 190.049C474.2 185.887 470.963 180.338 470.963 173.402C470.963 165.541 475.124 159.53 483.91 154.443C479.286 151.669 476.974 147.97 476.974 142.883C476.974 140.571 477.899 138.259 479.286 136.41C480.673 134.56 482.523 132.71 485.298 131.786C481.136 129.011 478.361 125.312 476.049 120.688C473.737 116.064 472.812 111.44 472.812 105.891C472.812 99.8796 474.2 94.7931 476.512 89.7066C479.286 84.6202 482.985 80.9209 487.61 78.1465C492.696 75.3721 498.245 73.9849 505.181 73.9849C512.117 73.9849 518.128 75.8345 523.677 79.0714C525.527 78.1465 527.839 77.2217 531.076 76.7593C534.313 75.8345 537.549 75.8345 540.786 75.8345H545.873L544.485 88.3195H537.087C535.237 88.3195 533.85 88.3195 532.463 88.3195C535.7 93.4059 537.087 98.9548 537.087 105.891C537.087 111.902 535.7 116.989 533.388 122.075C531.076 127.162 526.914 130.861 522.29 133.635C517.204 136.41 511.655 137.797 504.718 137.797C502.406 137.797 499.632 137.335 496.395 136.872C495.008 137.335 494.546 138.259 494.546 139.647C494.546 141.034 495.47 141.959 496.858 142.883C498.707 143.808 501.482 144.271 505.181 144.733L519.053 146.583C537.549 148.895 546.797 156.756 546.797 169.703C546.797 178.026 543.561 184.5 536.624 189.124C529.688 193.748 519.978 196.522 507.955 196.522C497.32 196.522 488.072 194.21 481.136 190.049ZM529.688 171.09C529.688 168.316 528.301 166.004 525.989 164.616C523.677 163.229 519.516 161.842 514.429 161.38L496.858 158.605C490.846 160.917 487.61 164.617 487.61 169.703C487.61 173.402 489.459 176.639 493.158 178.489C496.858 180.338 502.406 181.263 508.88 181.263C522.752 181.263 529.688 178.026 529.688 171.09ZM516.279 118.376C518.591 115.139 519.978 110.977 519.978 105.891C519.978 100.342 518.591 96.1804 516.279 93.406C513.967 90.1691 510.267 88.7819 505.643 88.7819C501.019 88.7819 497.32 90.1691 495.008 93.406C492.696 96.6428 491.309 100.804 491.309 105.891C491.309 111.44 492.696 115.601 495.008 118.376C497.32 121.613 501.019 123 505.643 123C509.805 123 513.504 121.613 516.279 118.376Z" fill="black"/>
<path d="M565.756 43.4661H586.102V155.831H565.756V43.4661ZM587.951 96.1804L629.568 43.0037H653.613L611.534 96.1804L653.613 155.831H629.568L587.951 96.1804Z" fill="black"/>
<path d="M670.724 75.372H689.22L689.682 80.921C696.618 76.2969 703.555 73.9849 711.415 73.9849C721.588 73.9849 728.987 77.2218 734.073 84.1579C739.16 90.6315 741.934 99.8796 741.934 110.977V155.831H722.051V112.827C722.051 105.428 720.664 99.8795 718.352 96.1803C716.04 92.481 711.878 90.6315 706.329 90.6315C700.318 90.6315 695.231 92.9435 691.07 97.5676V155.831H671.186V75.372H670.724Z" fill="black"/>
<path d="M778.462 151.669C772.451 147.97 767.364 142.883 764.128 136.41C760.891 129.936 759.041 123 759.041 115.601C759.041 108.203 760.891 100.804 764.128 94.3307C767.364 87.857 771.988 82.7706 778.462 79.0714C784.473 75.3721 791.872 73.5225 800.658 73.5225C808.981 73.5225 816.379 75.3721 822.853 79.0714C828.864 82.7706 833.951 87.857 837.188 94.3307C840.424 100.804 842.274 107.741 842.274 115.601C842.274 123 840.424 130.398 837.188 136.41C833.951 142.883 829.327 147.97 822.853 151.669C816.842 155.368 809.443 157.218 800.658 157.218C791.872 157.218 784.473 155.368 778.462 151.669ZM815.917 134.098C819.616 129.474 821.466 123.462 821.466 115.601C821.466 107.741 819.616 101.729 815.917 97.1052C812.218 92.4811 807.131 90.1691 800.658 90.1691C794.184 90.1691 789.097 92.4811 785.398 97.1052C781.699 101.729 779.849 107.741 779.849 115.601C779.849 123 781.699 129.474 785.398 134.098C789.097 138.722 794.184 141.034 800.658 141.034C807.131 141.034 812.218 138.722 815.917 134.098Z" fill="black"/>
<path d="M868.632 151.207C864.932 147.045 863.083 141.959 863.083 136.41V92.0188H851.522L853.372 75.8346H863.083V58.2632L882.966 55.9512V75.8346H900.538V92.0188H882.966V128.549C882.966 132.711 883.428 135.947 883.891 137.335C884.353 139.184 885.278 140.109 887.128 140.571C888.977 141.034 891.289 141.496 895.451 141.496H901L899.15 157.681H884.816C877.88 157.218 872.331 155.369 868.632 151.207Z" fill="black"/>
</g>
<path d="M71.6723 121.151C66.5859 126.237 60.1122 129.011 52.7137 129.011C45.7776 129.011 38.8415 126.237 33.755 121.151C28.6686 116.064 25.8942 109.59 25.8942 102.192C25.8942 95.2558 28.6686 88.3197 33.755 83.2332C38.8415 78.1468 45.3152 75.3723 52.7137 75.3723C59.6498 75.3723 66.5859 78.1468 71.6723 83.2332L81.3829 92.9437L145.657 28.6693C132.71 21.2708 117.913 16.6467 101.729 16.6467C54.5633 16.6467 16.1836 55.0264 16.1836 102.192C16.1836 149.357 54.5633 187.737 101.729 187.737C117.913 187.737 132.71 183.575 145.657 175.714L81.3829 111.44L71.6723 121.151Z" fill="#1F91B3"/>
<path d="M128.55 121.15C126.238 123.462 123.463 125.312 120.689 126.699L116.527 128.549L156.757 168.778C163.693 162.767 169.704 155.831 174.791 148.432L138.26 111.902L128.55 121.15Z" fill="#1F91B3"/>
<path d="M180.8 135.947C184.961 125.774 187.736 114.214 187.736 102.192C187.736 90.1691 185.424 79.0714 180.8 68.436L147.044 102.192L180.8 135.947Z" fill="#1F91B3"/>
<path d="M120.689 78.1466C123.926 79.5338 126.238 81.3834 128.55 83.6955L138.26 93.406L174.791 56.8759C169.704 49.015 163.693 42.0789 156.757 36.53L116.527 76.7594L120.689 78.1466Z" fill="#1F91B3"/>
<path d="M109.59 88.782C105.891 88.782 102.654 90.1692 99.8793 92.9436C94.7928 98.0301 94.7928 106.816 99.8793 112.365C102.654 115.139 105.891 116.526 109.59 116.526C113.289 116.526 116.526 115.139 119.3 112.365L129.011 102.654L119.3 92.9436C116.988 90.1692 113.289 88.782 109.59 88.782Z" fill="#1F91B3"/>
<path d="M52.7149 88.782C49.0156 88.782 45.7787 90.1692 43.0043 92.9436C37.9178 98.0301 37.9178 106.816 43.0043 112.365C45.7787 115.139 49.0156 116.526 52.7149 116.526C56.4141 116.526 59.6509 115.139 62.4253 112.365L72.1359 102.654L62.4253 92.9436C60.1133 90.1692 56.4141 88.782 52.7149 88.782Z" fill="#1F91B3"/>
<path d="M102.192 204.384C45.7782 204.384 0 158.605 0 102.192C0 45.7782 45.7782 0 102.192 0C158.605 0 204.384 45.7782 204.384 102.192C204.384 158.605 158.605 204.384 102.192 204.384ZM102.192 6.47368C49.4775 6.47368 6.47373 49.4775 6.47373 102.192C6.47373 154.906 49.4775 197.91 102.192 197.91C154.906 197.91 197.91 154.906 197.91 102.192C197.91 49.4775 154.906 6.47368 102.192 6.47368Z" fill="#1F91B3"/>
<path d="M260.335 43.9285H280.681V138.259H326.922V156.756H259.873V43.9285H260.335Z" fill="#595757"/>
<path d="M356.054 152.132C350.043 148.432 344.956 143.346 341.719 136.872C338.482 130.398 336.633 123.462 336.633 116.064C336.633 108.665 338.482 101.267 341.719 94.7931C344.956 88.3195 349.58 83.233 356.054 79.5337C362.065 75.8345 369.464 73.9849 378.249 73.9849C386.573 73.9849 393.971 75.8345 400.445 79.5337C406.456 83.233 411.543 88.3195 414.779 94.7931C418.016 101.267 419.866 108.203 419.866 116.064C419.866 123.462 418.016 130.861 414.779 136.872C411.543 143.346 406.919 148.432 400.445 152.132C394.434 155.831 387.035 157.68 378.249 157.68C369.464 157.68 362.065 155.831 356.054 152.132ZM393.509 134.56C397.208 129.936 399.058 123.925 399.058 116.064C399.058 108.203 397.208 102.192 393.509 97.5676C389.809 92.9435 384.723 90.6315 378.249 90.6315C371.776 90.6315 366.689 92.9435 362.99 97.5676C359.291 102.192 357.441 108.203 357.441 116.064C357.441 123.462 359.291 129.936 362.99 134.56C366.689 139.184 371.776 141.496 378.249 141.496C384.723 141.496 389.809 139.184 393.509 134.56Z" fill="#595757"/>
<path d="M441.136 190.511C434.2 186.35 430.963 180.801 430.963 173.865C430.963 166.004 435.124 159.992 443.91 154.906C439.286 152.132 436.974 148.432 436.974 143.346C436.974 141.034 437.899 138.722 439.286 136.872C440.673 135.022 442.523 133.173 445.298 132.248C441.136 129.474 438.361 125.774 436.049 121.15C433.737 116.526 432.812 111.902 432.812 106.353C432.812 100.342 434.2 95.2556 436.512 90.1691C439.286 85.0826 442.985 81.3834 447.61 78.6089C452.696 75.8345 458.245 74.4473 465.181 74.4473C472.117 74.4473 478.128 76.2969 483.677 79.5337C485.527 78.6089 487.839 77.6841 491.076 77.2217C494.313 76.2969 497.549 76.2969 500.786 76.2969H505.873L504.485 88.7818H497.087C495.237 88.7818 493.85 88.7818 492.463 88.7818C495.7 93.8683 497.087 99.4172 497.087 106.353C497.087 112.365 495.7 117.451 493.388 122.538C491.076 127.624 486.914 131.323 482.29 134.098C477.204 136.872 471.655 138.259 464.718 138.259C462.406 138.259 459.632 137.797 456.395 137.334C455.008 137.797 454.546 138.722 454.546 140.109C454.546 141.496 455.47 142.421 456.858 143.346C458.707 144.271 461.482 144.733 465.181 145.195L479.053 147.045C497.549 149.357 506.797 157.218 506.797 170.165C506.797 178.489 503.561 184.962 496.624 189.586C489.688 194.21 479.978 196.985 467.955 196.985C457.32 196.522 448.072 194.673 441.136 190.511ZM489.688 171.553C489.688 168.778 488.301 166.466 485.989 165.079C483.677 163.692 479.516 162.304 474.429 161.842L456.858 159.068C450.846 161.38 447.61 165.079 447.61 170.165C447.61 173.865 449.459 177.101 453.158 178.951C456.858 180.801 462.406 181.725 468.88 181.725C482.752 181.725 489.688 178.026 489.688 171.553ZM476.279 118.838C478.591 115.601 479.978 111.44 479.978 106.353C479.978 100.804 478.591 96.6428 476.279 93.8683C473.967 90.6315 470.267 89.2443 465.643 89.2443C461.019 89.2443 457.32 90.6315 455.008 93.8683C452.696 97.1052 451.309 101.267 451.309 106.353C451.309 111.902 452.696 116.064 455.008 118.838C457.32 122.075 461.019 123.462 465.643 123.462C469.805 123.462 473.504 122.075 476.279 118.838Z" fill="#595757"/>
<path d="M525.757 43.9285H546.103V156.293H525.757V43.9285ZM547.952 96.6428L589.569 43.4661H613.614L571.535 96.6428L613.614 156.293H589.569L547.952 96.6428Z" fill="#595757"/>
<path d="M630.724 75.8345H649.22L649.682 81.3834C656.618 76.7593 663.555 74.4473 671.415 74.4473C681.588 74.4473 688.987 77.6841 694.073 84.6202C699.16 91.0939 701.934 100.342 701.934 111.44V156.293H682.051V113.289C682.051 105.891 680.664 100.342 678.352 96.6428C676.04 92.9435 671.878 91.0939 666.329 91.0939C660.318 91.0939 655.231 93.4059 651.07 98.03V156.293H631.186V75.8345H630.724Z" fill="#595757"/>
<path d="M738.463 152.132C732.452 148.432 727.365 143.346 724.128 136.872C720.892 130.398 719.042 123.462 719.042 116.064C719.042 108.665 720.892 101.267 724.128 94.7931C727.365 88.3195 731.989 83.233 738.463 79.5337C744.474 75.8345 751.873 73.9849 760.659 73.9849C768.982 73.9849 776.38 75.8345 782.854 79.5337C788.865 83.233 793.952 88.3195 797.189 94.7931C800.425 101.267 802.275 108.203 802.275 116.064C802.275 123.462 800.425 130.861 797.189 136.872C793.952 143.346 789.328 148.432 782.854 152.132C776.843 155.831 769.444 157.68 760.659 157.68C751.873 157.68 744.474 155.831 738.463 152.132ZM775.918 134.56C779.617 129.936 781.467 123.925 781.467 116.064C781.467 108.203 779.617 102.192 775.918 97.5676C772.219 92.9435 767.132 90.6315 760.659 90.6315C754.185 90.6315 749.098 92.9435 745.399 97.5676C741.7 102.192 739.85 108.203 739.85 116.064C739.85 123.462 741.7 129.936 745.399 134.56C749.098 139.184 754.185 141.496 760.659 141.496C767.132 141.496 772.219 139.184 775.918 134.56Z" fill="#595757"/>
<path d="M828.632 151.669C824.932 147.507 823.083 142.421 823.083 136.872V92.481H811.522L813.372 76.2968H823.083V58.263L842.966 55.9509V75.8344H860.538V92.0186H842.966V128.549C842.966 132.71 843.428 135.947 843.891 137.334C844.353 139.184 845.278 140.109 847.128 140.571C848.515 141.034 851.289 141.496 855.451 141.496H861L859.15 157.68H844.816C837.88 157.68 832.331 155.831 828.632 151.669Z" fill="#595757"/>
</svg>
