<?xml version="1.0" encoding="UTF-8"?>
<svg width="200px" height="51px" viewBox="0 0 200 51" version="1.1" xmlns="http://www.w3.org/2000/svg" xmlns:xlink="http://www.w3.org/1999/xlink">
    <title>Group 31</title>
    <defs>
        <polygon id="path-1" points="0 50.6703481 200 50.6703481 200 0 0 0"></polygon>
    </defs>
    <g id="Page-1" stroke="none" stroke-width="1" fill="none" fill-rule="evenodd">
        <g id="Home_Logknot" transform="translate(-150.000000, -35.000000)">
            <g id="Group-31" transform="translate(150.000000, 35.000000)">
                <path d="M17.8018652,29.9906322 C16.5586398,31.2346161 14.9058099,31.9188073 13.1467863,31.9188073 C11.3885212,31.9188073 9.73493281,31.2346161 8.49094888,29.9906322 C7.24999905,28.7489238 6.56580789,27.096094 6.56580789,25.3347948 C6.56580789,23.5742541 7.24999905,21.9206657 8.49094888,20.6797159 C9.73493281,19.4364904 11.3885212,18.7515408 13.1467863,18.7515408 C14.9050514,18.7515408 16.5586398,19.4364904 17.8026237,20.6804744 L20.1919831,23.0690752 L36.171867,7.0899499 C32.9989494,5.20197672 29.2950631,4.1142493 25.3347948,4.1142493 C13.6147973,4.1142493 4.11349078,13.6147973 4.11349078,25.3355533 C4.11349078,37.0555507 13.6147973,46.5568573 25.3347948,46.5568573 C29.2950631,46.5568573 32.9989494,45.4691299 36.171867,43.5803982 L20.1912246,27.6012728 L17.8018652,29.9906322 Z" id="Fill-1" fill="#1C90B2"></path>
                <path d="M31.8917279,29.9906322 C31.3190402,30.5633199 30.647744,31.0222286 29.8983195,31.3544634 L28.9129932,31.7898577 L38.8337651,41.7106296 C40.5814108,40.2679117 42.0901206,38.5475729 43.3022464,36.6224319 L34.2810873,27.6012728 L31.8917279,29.9906322 Z" id="Fill-3" fill="#1C90B2"></path>
                <path d="M44.8635221,33.6510549 C45.9527665,31.0970952 46.5565539,28.2867535 46.5565539,25.3353257 C46.5565539,22.383898 45.9527665,19.5735562 44.8635221,17.0195965 L36.5477929,25.3353257 L44.8635221,33.6510549 Z" id="Fill-5" fill="#1C90B2"></path>
                <path d="M29.8980161,19.3159605 C30.6481991,19.6481953 31.3194953,20.107104 31.8929415,20.6805502 L34.2815424,23.0691511 L43.3027015,14.0487505 C42.0905757,12.122851 40.5818659,10.4025122 38.8334617,8.95979429 L28.9134483,18.8798076 L29.8980161,19.3159605 Z" id="Fill-7" fill="#1C90B2"></path>
                <path d="M24.8461518,22.9467249 C23.5301078,24.2642859 23.5301078,26.4071241 24.8469103,27.7246851 C25.4855899,28.3626061 26.3343814,28.713804 27.2370282,28.713804 C28.1396751,28.713804 28.9877081,28.3626061 29.6256291,27.7246851 L32.0149885,25.3353257 L29.6263876,22.9459663 C28.9877081,22.3080453 28.1396751,21.9560889 27.2370282,21.9560889 C26.3351399,21.9560889 25.4863484,22.3072868 24.8461518,22.9467249 Z" id="Fill-9" fill="#1C90B2"></path>
                <path d="M13.1471656,21.9560889 C12.2445187,21.9560889 11.3957272,22.3080453 10.7570477,22.9459663 C9.44024516,24.2635274 9.44024516,26.4071241 10.7570477,27.7246851 C11.3957272,28.3626061 12.2445187,28.713804 13.1471656,28.713804 C14.0498125,28.713804 14.8978454,28.3626061 15.5357664,27.7246851 L17.9251258,25.3353257 L15.536525,22.9459663 C14.8978454,22.3080453 14.0498125,21.9560889 13.1471656,21.9560889" id="Fill-11" fill="#1C90B2"></path>
                <path d="M25.3348706,1.58380394 C12.2381471,1.58380394 1.58387979,12.2388297 1.58387979,25.3347948 C1.58387979,38.4322768 12.2381471,49.0865441 25.3348706,49.0865441 C38.4315942,49.0865441 49.08662,38.4322768 49.08662,25.3347948 C49.08662,12.2388297 38.4315942,1.58380394 25.3348706,1.58380394 M25.3348706,50.6703481 C11.3650827,50.6703481 7.58526789e-05,39.3045826 7.58526789e-05,25.3347948 C7.58526789e-05,11.3657654 11.3650827,0 25.3348706,0 C39.3046585,0 50.6696654,11.3657654 50.6696654,25.3347948 C50.6696654,39.3045826 39.3046585,50.6703481 25.3348706,50.6703481" id="Fill-13" fill="#1C90B2"></path>
                <polygon id="Fill-15" fill="#FFFFFF" points="146.201487 16.662558 144.916543 15.0635835 131.209205 26.0857363 131.209205 15.4079547 129.157391 15.4079547 129.157391 37.5963803 131.209205 37.5963803 131.209205 26.9185987 144.916543 37.9407515 146.201487 36.341777 133.961899 26.5021675"></polygon>
                <polygon id="Fill-17" fill="#FFFFFF" points="67.345801 15.4171328 65.2477159 15.4171328 65.2477159 37.5979732 82.8758785 37.5979732 82.8758785 35.5484338 67.345801 35.5484338"></polygon>
                <path d="M93.2726259,23.5353417 C90.5123469,23.5353417 88.2671076,25.7813395 88.2671076,28.5416185 L88.2671076,30.5403366 C88.2671076,33.3006155 90.5123469,35.5450963 93.2726259,35.5450963 C96.0329049,35.5450963 98.2781442,33.3006155 98.2781442,30.5403366 L98.2781442,28.5416185 C98.2781442,25.7813395 96.0329049,23.5353417 93.2726259,23.5353417 M93.2726259,37.5969113 C89.3813835,37.5969113 86.2160512,34.4300619 86.2160512,30.5403366 L86.2160512,28.5416185 C86.2160512,24.650376 89.3813835,21.4858023 93.2726259,21.4858023 C97.1638683,21.4858023 100.329201,24.650376 100.329201,28.5416185 L100.329201,30.5403366 C100.329201,34.4300619 97.1638683,37.5969113 93.2726259,37.5969113" id="Fill-19" fill="#FFFFFF"></path>
                <path d="M179.348956,23.5353417 C176.588677,23.5353417 174.343438,25.7813395 174.343438,28.5416185 L174.343438,30.5403366 C174.343438,33.3006155 176.588677,35.5450963 179.348956,35.5450963 C182.108477,35.5450963 184.353716,33.3006155 184.353716,30.5403366 L184.353716,28.5416185 C184.353716,25.7813395 182.108477,23.5353417 179.348956,23.5353417 M179.348956,37.5969113 C175.457714,37.5969113 172.292382,34.4300619 172.292382,30.5403366 L172.292382,28.5416185 C172.292382,24.650376 175.457714,21.4858023 179.348956,21.4858023 C183.23944,21.4858023 186.404773,24.650376 186.404773,28.5416185 L186.404773,30.5403366 C186.404773,34.4300619 183.23944,37.5969113 179.348956,37.5969113" id="Fill-21" fill="#FFFFFF"></path>
                <path d="M112.629092,35.5454756 C109.868813,35.5454756 107.623573,33.3002363 107.623573,30.5399573 L107.623573,28.5412392 C107.623573,25.7809602 109.868813,23.5357209 112.629092,23.5357209 L117.63461,23.5357209 L117.63461,35.5454756 L112.629092,35.5454756 Z M112.629092,21.485423 C108.737849,21.485423 105.572517,24.6507553 105.572517,28.5412392 L105.572517,30.5399573 C105.572517,34.4304412 108.737849,37.596532 112.629092,37.596532 L117.63461,37.596532 L117.63461,38.2807232 C117.63461,39.6005598 116.561295,40.6746337 115.2407,40.6746337 L106.912075,40.6746337 L106.912075,42.7241731 L115.2407,42.7241731 C117.6915,42.7241731 119.685666,40.7315232 119.685666,38.2807232 L119.685666,21.485423 L112.629092,21.485423 Z" id="Fill-23" fill="#FFFFFF"></path>
                <path d="M166.639233,37.5966079 L164.588177,37.5966079 L164.588177,25.9304658 C164.588177,24.6106292 163.514861,23.5373138 162.194266,23.5373138 L154.57714,23.5373138 L154.57714,37.5912982 L152.526084,37.5912982 L152.526084,21.4854989 L162.194266,21.4854989 C164.645066,21.4854989 166.639233,23.4804243 166.639233,25.9304658 L166.639233,37.5966079 Z" id="Fill-25" fill="#FFFFFF"></path>
                <path d="M199.999924,37.595015 L198.300824,37.595015 C195.850024,37.595015 193.855857,35.600848 193.855857,33.150048 L193.855857,16.3137874 L195.906914,16.3137874 L195.906914,33.150048 C195.906914,34.4714016 196.980229,35.5447171 198.300824,35.5447171 L199.999924,35.5447171 L199.999924,37.595015 Z" id="Fill-27" fill="#FFFFFF"></path>
                <mask id="mask-2" fill="white">
                    <use xlink:href="#path-1"></use>
                </mask>
                <g id="Clip-30"></g>
                <polygon id="Fill-29" fill="#FFFFFF" mask="url(#mask-2)" points="191.056211 23.5370863 200 23.5370863 200 21.4867884 191.056211 21.4867884"></polygon>
            </g>
        </g>
    </g>
</svg>