<svg width="183" height="45" viewBox="0 0 183 45" fill="none" xmlns="http://www.w3.org/2000/svg">
<path fill-rule="evenodd" clip-rule="evenodd" d="M132.793 12.001L119.926 22.1192V12.3163H118V32.6839H119.926V22.8827L132.793 33.001L134 31.5307L122.511 22.5019L134 13.4677L132.793 12.001Z" fill="#222222"/>
<path fill-rule="evenodd" clip-rule="evenodd" d="M61.9041 13.001H60V33.001H76V31.1529H61.9041V13.001Z" fill="#222222"/>
<path fill-rule="evenodd" clip-rule="evenodd" d="M89.9537 26.1876C89.9537 28.7062 87.904 30.7563 85.382 30.7563C82.8635 30.7563 80.8121 28.7062 80.8121 26.1876V24.3647C80.8121 21.8444 82.8635 19.7943 85.382 19.7943C87.904 19.7943 89.9537 21.8444 89.9537 24.3647V26.1876ZM85.382 17.9238C81.829 17.9238 78.9386 20.8123 78.9386 24.3647V26.1876C78.9386 29.7383 81.829 32.6268 85.382 32.6268C88.9368 32.6268 91.8254 29.7383 91.8254 26.1876V24.3647C91.8254 20.8123 88.9368 17.9238 85.382 17.9238V17.9238Z" fill="#222222"/>
<path fill-rule="evenodd" clip-rule="evenodd" d="M168.559 26.1876C168.559 28.7062 166.51 30.7563 163.989 30.7563C161.469 30.7563 159.418 28.7062 159.418 26.1876V24.3647C159.418 21.8444 161.469 19.7943 163.989 19.7943C166.51 19.7943 168.559 21.8444 168.559 24.3647V26.1876ZM163.989 17.9238C160.435 17.9238 157.544 20.8123 157.544 24.3647V26.1876C157.544 29.7383 160.435 32.6268 163.989 32.6268C167.542 32.6268 170.431 29.7383 170.431 26.1876V24.3647C170.431 20.8123 167.542 17.9238 163.989 17.9238V17.9238Z" fill="#222222"/>
<path fill-rule="evenodd" clip-rule="evenodd" d="M107.631 30.7565H103.06C100.538 30.7565 98.4879 28.7064 98.4879 26.1878V24.3649C98.4879 21.8446 100.538 19.7945 103.06 19.7945H107.631V30.7565ZM96.6144 24.3649V26.1878C96.6144 29.7385 99.5066 32.627 103.06 32.627H107.631V33.2522C107.631 34.4569 106.65 35.4362 105.446 35.4362H97.8376V37.3084H105.446C107.682 37.3084 109.503 35.4908 109.503 33.2522V17.9258H103.06C99.5066 17.9258 96.6144 20.8142 96.6144 24.3649V24.3649Z" fill="#222222"/>
<path fill-rule="evenodd" clip-rule="evenodd" d="M148.323 17.9248H139.495V32.6242H141.368V19.7953H148.323C149.528 19.7953 150.508 20.7763 150.508 21.981V32.6277H152.383V21.981C152.383 19.7442 150.561 17.9248 148.323 17.9248" fill="#222222"/>
<path fill-rule="evenodd" clip-rule="evenodd" d="M182.848 19.7965V17.926H179.11V13.2041H177.237V17.926H174.679V19.7965H177.237V28.571C177.237 30.8078 179.059 32.6254 181.294 32.6254H182.848V30.755H181.294C180.09 30.755 179.11 29.7757 179.11 28.571V19.7965H182.848Z" fill="#222222"/>
<path fill-rule="evenodd" clip-rule="evenodd" d="M15.8212 26.6361C14.7162 27.7422 13.2481 28.3498 11.6848 28.3498C10.1216 28.3498 8.6517 27.7422 7.54667 26.6361C6.44339 25.5336 5.83536 24.0664 5.83536 22.5007C5.83536 20.9384 6.44339 19.4696 7.54667 18.367C8.6517 17.2627 10.1216 16.6551 11.6848 16.6551C13.2463 16.6551 14.7162 17.2627 15.8212 18.3688L17.9449 20.4893L32.1465 6.29715C29.3284 4.62044 26.0344 3.65527 22.5149 3.65527C12.099 3.65527 3.65701 12.0934 3.65701 22.5024C3.65701 32.9097 12.099 41.3496 22.5149 41.3496C26.0344 41.3496 29.3284 40.3827 32.1465 38.706L17.9449 24.5155L15.8212 26.6361Z" fill="#0097B3"/>
<path fill-rule="evenodd" clip-rule="evenodd" d="M28.3432 26.6362C27.8338 27.1469 27.2381 27.5538 26.5719 27.8479L25.696 28.2354L34.5116 37.0452C36.0661 35.763 37.4073 34.236 38.4841 32.5276L30.4669 24.5156L28.3432 26.6362Z" fill="#0097B3"/>
<path fill-rule="evenodd" clip-rule="evenodd" d="M39.8711 29.8871C40.8387 27.6186 41.3762 25.1229 41.3762 22.5021C41.3762 19.8814 40.8387 17.3839 39.8711 15.1172L32.4813 22.5021L39.8711 29.8871Z" fill="#0097B3"/>
<path fill-rule="evenodd" clip-rule="evenodd" d="M26.5712 17.1561C27.2374 17.4502 27.8349 17.857 28.3442 18.366L30.4679 20.4883L38.4834 12.4764C37.4066 10.768 36.0654 9.23922 34.5127 7.95703L25.6971 16.7686L26.5712 17.1561Z" fill="#0097B3"/>
<path fill-rule="evenodd" clip-rule="evenodd" d="M24.2066 19.501C23.4047 19.501 22.6504 19.8127 22.0811 20.3798C20.9109 21.5511 20.9127 23.4532 22.0829 24.6227C22.6504 25.1898 23.403 25.5033 24.2066 25.5033C25.0085 25.5033 25.7628 25.1898 26.3286 24.6245L28.4523 22.5022L26.3303 20.3798C25.7628 19.8127 25.0085 19.501 24.2066 19.501" fill="#0097B3"/>
<path fill-rule="evenodd" clip-rule="evenodd" d="M11.6846 19.501C10.881 19.501 10.1284 19.8127 9.55916 20.3798C8.38892 21.5511 8.38892 23.4532 9.56093 24.6227C10.1284 25.1898 10.881 25.5033 11.6846 25.5033C12.4865 25.5033 13.2391 25.1898 13.8066 24.6245L15.9303 22.5022L13.8084 20.3798C13.2409 19.8127 12.4865 19.501 11.6846 19.501" fill="#0097B3"/>
<path fill-rule="evenodd" clip-rule="evenodd" d="M22.5156 1.40724C10.8766 1.40724 1.40711 10.8687 1.40711 22.5018C1.40711 34.1331 10.8766 43.5963 22.5156 43.5963C34.1546 43.5963 43.624 34.1331 43.624 22.5018C43.624 10.8687 34.1546 1.40724 22.5156 1.40724M22.5156 45C10.0993 45 0.000701904 34.908 0.000701904 22.5018C0.000701904 10.0955 10.0993 0 22.5156 0C34.93 0 45.0322 10.0955 45.0322 22.5018C45.0322 34.908 34.93 45 22.5156 45" fill="#0097B3"/>
</svg>
