<?xml version="1.0" encoding="utf-8"?>
<!-- Generator: Adobe Illustrator 25.4.1, SVG Export Plug-In . SVG Version: 6.00 Build 0)  -->
<svg version="1.1" id="Layer_1" xmlns="http://www.w3.org/2000/svg" xmlns:xlink="http://www.w3.org/1999/xlink" x="0px" y="0px"
	 viewBox="0 0 200 51" style="enable-background:new 0 0 200 51;" xml:space="preserve">
<style type="text/css">
	.st0{fill-rule:evenodd;clip-rule:evenodd;fill:#1C90B2;}
	.st1{fill-rule:evenodd;clip-rule:evenodd;}
	.st2{filter:url(#Adobe_OpacityMaskFilter);}
	.st3{fill-rule:evenodd;clip-rule:evenodd;fill:#FFFFFF;}
	.st4{mask:url(#mask-2_00000050640783374909451360000009586546523324667053_);fill-rule:evenodd;clip-rule:evenodd;}
</style>
<path id="Fill-1" class="st0" d="M17.8,30c-1.2,1.2-2.9,1.9-4.7,1.9c-1.8,0-3.4-0.7-4.7-1.9c-1.2-1.2-1.9-2.9-1.9-4.7
	c0-1.8,0.7-3.4,1.9-4.7c1.2-1.2,2.9-1.9,4.7-1.9s3.4,0.7,4.7,1.9l2.4,2.4l16-16c-3.2-1.9-6.9-3-10.8-3c-11.7,0-21.2,9.5-21.2,21.2
	c0,11.7,9.5,21.2,21.2,21.2c4,0,7.7-1.1,10.8-3l-16-16L17.8,30z"/>
<path id="Fill-3" class="st0" d="M31.9,30c-0.6,0.6-1.2,1-2,1.4l-1,0.4l9.9,9.9c1.7-1.4,3.3-3.2,4.5-5.1l-9-9L31.9,30z"/>
<path id="Fill-5" class="st0" d="M44.9,33.7c1.1-2.6,1.7-5.4,1.7-8.3S46,19.6,44.9,17l-8.3,8.3L44.9,33.7z"/>
<path id="Fill-7" class="st0" d="M29.9,19.3c0.8,0.3,1.4,0.8,2,1.4l2.4,2.4l9-9c-1.2-1.9-2.7-3.6-4.5-5.1l-9.9,9.9L29.9,19.3z"/>
<path id="Fill-9" class="st0" d="M24.8,22.9c-1.3,1.3-1.3,3.5,0,4.8c0.6,0.6,1.5,1,2.4,1s1.8-0.4,2.4-1l2.4-2.4l-2.4-2.4
	c-0.6-0.6-1.5-1-2.4-1C26.3,22,25.5,22.3,24.8,22.9z"/>
<path id="Fill-11" class="st0" d="M13.1,22c-0.9,0-1.8,0.4-2.4,1c-1.3,1.3-1.3,3.5,0,4.8c0.6,0.6,1.5,1,2.4,1s1.8-0.4,2.4-1l2.4-2.4
	l-2.4-2.4C14.9,22.3,14,22,13.1,22"/>
<path id="Fill-13" class="st0" d="M25.3,1.6C12.2,1.6,1.6,12.2,1.6,25.3c0,13.1,10.7,23.8,23.8,23.8s23.8-10.7,23.8-23.8
	C49.1,12.2,38.4,1.6,25.3,1.6 M25.3,50.7C11.4,50.7,0,39.3,0,25.3C0,11.4,11.4,0,25.3,0s25.3,11.4,25.3,25.3
	C50.7,39.3,39.3,50.7,25.3,50.7"/>
<polygon id="Fill-15" class="st1" points="146.2,16.7 144.9,15.1 131.2,26.1 131.2,15.4 129.2,15.4 129.2,37.6 131.2,37.6 
	131.2,26.9 144.9,37.9 146.2,36.3 134,26.5 "/>
<polygon id="Fill-17" class="st1" points="67.3,15.4 65.2,15.4 65.2,37.6 82.9,37.6 82.9,35.5 67.3,35.5 "/>
<path id="Fill-19" class="st1" d="M93.3,23.5c-2.8,0-5,2.2-5,5v2c0,2.8,2.2,5,5,5c2.8,0,5-2.2,5-5v-2C98.3,25.8,96,23.5,93.3,23.5
	 M93.3,37.6c-3.9,0-7.1-3.2-7.1-7.1v-2c0-3.9,3.2-7.1,7.1-7.1s7.1,3.2,7.1,7.1v2C100.3,34.4,97.2,37.6,93.3,37.6"/>
<path id="Fill-21" class="st1" d="M179.3,23.5c-2.8,0-5,2.2-5,5v2c0,2.8,2.2,5,5,5c2.8,0,5-2.2,5-5v-2
	C184.4,25.8,182.1,23.5,179.3,23.5 M179.3,37.6c-3.9,0-7.1-3.2-7.1-7.1v-2c0-3.9,3.2-7.1,7.1-7.1c3.9,0,7.1,3.2,7.1,7.1v2
	C186.4,34.4,183.2,37.6,179.3,37.6"/>
<path id="Fill-23" class="st1" d="M112.6,35.5c-2.8,0-5-2.2-5-5v-2c0-2.8,2.2-5,5-5h5v12H112.6z M112.6,21.5c-3.9,0-7.1,3.2-7.1,7.1
	v2c0,3.9,3.2,7.1,7.1,7.1h5v0.7c0,1.3-1.1,2.4-2.4,2.4h-8.3v2h8.3c2.5,0,4.4-2,4.4-4.4V21.5H112.6z"/>
<path id="Fill-25" class="st1" d="M166.6,37.6h-2.1V25.9c0-1.3-1.1-2.4-2.4-2.4h-7.6v14.1h-2.1V21.5h9.7c2.5,0,4.4,2,4.4,4.4V37.6z"
	/>
<path id="Fill-27" class="st1" d="M200,37.6h-1.7c-2.5,0-4.4-2-4.4-4.4V16.3h2.1v16.8c0,1.3,1.1,2.4,2.4,2.4h1.7V37.6z"/>
<g id="Clip-30">
</g>
<defs>
	<filter id="Adobe_OpacityMaskFilter" filterUnits="userSpaceOnUse" x="191.1" y="21.5" width="8.9" height="2.1">
		<feColorMatrix  type="matrix" values="1 0 0 0 0  0 1 0 0 0  0 0 1 0 0  0 0 0 1 0"/>
	</filter>
</defs>
<mask maskUnits="userSpaceOnUse" x="191.1" y="21.5" width="8.9" height="2.1" id="mask-2_00000050640783374909451360000009586546523324667053_">
	<g class="st2">
		<polygon id="path-1_00000097497123068854751800000002746674845193834670_" class="st3" points="0,50.7 200,50.7 200,0 0,0 		"/>
	</g>
</mask>
<polygon id="Fill-29" class="st4" points="191.1,23.5 200,23.5 200,21.5 191.1,21.5 "/>
</svg>
