<svg width="70" height="70" viewBox="0 0 70 70" fill="none" xmlns="http://www.w3.org/2000/svg">
<circle cx="35" cy="35" r="34.5" fill="white" stroke="#0092B7"/>
<path d="M38.1641 31.1328C37.8406 31.1328 37.5781 31.3953 37.5781 31.7188C37.5781 32.0422 37.8406 32.3047 38.1641 32.3047C38.4875 32.3047 38.75 32.0422 38.75 31.7188C38.75 31.3953 38.4875 31.1328 38.1641 31.1328Z" fill="#222222"/>
<path fill-rule="evenodd" clip-rule="evenodd" d="M41.4922 38.1781L49.3133 45.9992C49.7561 46.4415 50 47.0301 50 47.6562C50 48.2824 49.7561 48.871 49.3132 49.3135C48.8705 49.7561 48.2821 50 47.6562 50C47.0304 50 46.442 49.7561 45.9991 49.3133L40.3408 43.6551L40.3399 43.6541L38.1781 41.4923C36.2589 42.7663 34.0365 43.4375 31.7188 43.4375C25.257 43.4375 20 38.1805 20 31.7188C20 25.257 25.257 20 31.7188 20C38.1805 20 43.4375 25.257 43.4375 31.7188C43.4375 34.0364 42.7664 36.2589 41.4922 38.1781ZM37.9024 40.2576L37.9025 40.2574C38.8079 39.6003 39.6003 38.8079 40.2575 37.9024C41.5712 36.0938 42.2656 33.9556 42.2656 31.7188C42.2656 25.9032 37.5343 21.1719 31.7188 21.1719C25.9032 21.1719 21.1719 25.9032 21.1719 31.7188C21.1719 37.5343 25.9032 42.2656 31.7188 42.2656C33.9556 42.2656 36.0938 41.5712 37.9024 40.2576ZM39.1318 40.7887C39.7382 40.2925 40.2926 39.7382 40.7887 39.1318L42.451 40.7942C41.9455 41.3908 41.3908 41.9455 40.7942 42.451L39.1318 40.7887ZM47.6562 48.8281C47.969 48.8281 48.2632 48.7062 48.4847 48.4847C48.7062 48.2633 48.8281 47.9693 48.8281 47.6562C48.8281 47.3432 48.7062 47.0492 48.4848 46.828L43.2818 41.625C42.7726 42.2184 42.2183 42.7726 41.625 43.2819L46.8278 48.4847C47.0493 48.7062 47.3435 48.8281 47.6562 48.8281Z" fill="#222222"/>
<path fill-rule="evenodd" clip-rule="evenodd" d="M22.3438 31.7188C22.3438 26.5493 26.5493 22.3438 31.7188 22.3438C36.8882 22.3438 41.0938 26.5493 41.0938 31.7188C41.0938 36.8882 36.8882 41.0938 31.7188 41.0938C26.5493 41.0938 22.3438 36.8882 22.3438 31.7188ZM23.5156 31.7188C23.5156 36.242 27.1955 39.9219 31.7188 39.9219C36.242 39.9219 39.9219 36.242 39.9219 31.7188C39.9219 27.1955 36.242 23.5156 31.7188 23.5156C27.1955 23.5156 23.5156 27.1955 23.5156 31.7188Z" fill="#222222"/>
<path d="M38.2851 29.2035C37.7805 27.8903 36.902 26.7675 35.7444 25.9566C34.5593 25.1264 33.1673 24.6875 31.7188 24.6875C31.3952 24.6875 31.1328 24.9499 31.1328 25.2734C31.1328 25.597 31.3952 25.8594 31.7188 25.8594C34.1269 25.8594 36.326 27.3721 37.1912 29.6238C37.2807 29.8568 37.5027 29.9998 37.7383 29.9998C37.8081 29.9998 37.8792 29.9872 37.9483 29.9606C38.2503 29.8446 38.4011 29.5056 38.2851 29.2035Z" fill="#222222"/>
</svg>
