<svg width="70" height="70" viewBox="0 0 70 70" fill="none" xmlns="http://www.w3.org/2000/svg">
<circle cx="35" cy="35" r="34.5" fill="white" stroke="#0092B7"/>
<path fill-rule="evenodd" clip-rule="evenodd" d="M20.6105 20H49.3894C49.7266 20 49.9999 20.2734 49.9999 20.6105V49.3895C49.9999 49.7266 49.7265 50 49.3894 50H20.6105C20.2734 50 20 49.7266 20 49.3895V20.6105C20 20.2734 20.2734 20 20.6105 20ZM21.221 21.221V48.779H48.7789V26.5111H23.2988C22.9617 26.5111 22.6883 26.2378 22.6883 25.9006C22.6883 25.5634 22.9617 25.2901 23.2988 25.2901H48.7789V21.221H21.221Z" fill="#222222"/>
<path d="M23.2479 23.8655C23.4087 23.8655 23.5664 23.8004 23.6803 23.6874C23.7932 23.5735 23.8584 23.4168 23.8584 23.256C23.8584 23.0952 23.7932 22.9375 23.6803 22.8236C23.5664 22.7106 23.4087 22.6455 23.2479 22.6455C23.0882 22.6455 22.9304 22.7106 22.8165 22.8236C22.7035 22.9375 22.6384 23.0952 22.6384 23.256C22.6384 23.4168 22.7035 23.5735 22.8165 23.6874C22.9304 23.8004 23.0871 23.8655 23.2479 23.8655Z" fill="#222222"/>
<path d="M25.2829 23.8665C25.4437 23.8665 25.6014 23.8014 25.7143 23.6875C25.8282 23.5735 25.8934 23.4158 25.8934 23.255C25.8934 23.0953 25.8282 22.9376 25.7143 22.8236C25.6014 22.7097 25.4437 22.6445 25.2829 22.6445C25.1222 22.6445 24.9644 22.7097 24.8515 22.8236C24.7375 22.9376 24.6724 23.0953 24.6724 23.255C24.6724 23.4158 24.7375 23.5735 24.8515 23.6875C24.9646 23.8014 25.1222 23.8665 25.2829 23.8665Z" fill="#222222"/>
<path d="M27.317 23.8655C27.4777 23.8655 27.6355 23.8004 27.7494 23.6874C27.8633 23.5735 27.9285 23.4157 27.9285 23.255C27.9285 23.0952 27.8633 22.9375 27.7494 22.8236C27.6355 22.7106 27.4777 22.6455 27.317 22.6455C27.1562 22.6455 26.9995 22.7106 26.8856 22.8236C26.7726 22.9375 26.7075 23.0952 26.7075 23.255C26.7075 23.4157 26.7726 23.5735 26.8856 23.6874C26.9995 23.8004 27.1562 23.8655 27.317 23.8655Z" fill="#222222"/>
<path d="M45.08 36.6336C44.7718 36.4976 44.4112 36.6372 44.275 36.9456C42.6521 40.6225 39.0115 42.9982 35.0001 42.9982C31.0791 42.9982 27.5123 40.7283 25.8379 37.1921C27.5123 33.6558 31.0791 31.3859 35.0001 31.3859C37.8431 31.3859 40.5731 32.5935 42.4901 34.6989C42.7169 34.9481 43.1031 34.9663 43.3525 34.7393C43.6019 34.5123 43.6199 34.1261 43.3929 33.8768C41.2452 31.5179 38.186 30.165 35.0001 30.165C30.5054 30.165 26.4262 32.8266 24.6082 36.9457C24.5389 37.1027 24.5389 37.2817 24.6082 37.4388C26.4262 41.5578 30.5054 44.2194 35.0001 44.2194C39.4949 44.2194 43.574 41.5579 45.3921 37.4388C45.5281 37.1302 45.3884 36.7698 45.08 36.6336Z" fill="#222222"/>
<path fill-rule="evenodd" clip-rule="evenodd" d="M35 41.4523C32.651 41.4523 30.7399 39.5412 30.7399 37.1923C30.7399 34.8432 32.651 32.9321 35 32.9321C37.3489 32.9321 39.26 34.8433 39.26 37.1923C39.26 39.5412 37.3489 41.4523 35 41.4523ZM35.0001 40.2313C36.6759 40.2313 38.0391 38.868 38.0391 37.1923C38.0391 35.5165 36.6759 34.1531 35.0001 34.1531C33.3243 34.1531 31.961 35.5165 31.961 37.1923C31.961 38.868 33.3243 40.2313 35.0001 40.2313Z" fill="#222222"/>
</svg>
