<svg width="70" height="70" viewBox="0 0 70 70" fill="none" xmlns="http://www.w3.org/2000/svg">
<circle cx="35" cy="35" r="34.5" fill="white" stroke="#0092B7"/>
<path d="M39.6864 34.4141C40.01 34.4141 40.2723 34.1517 40.2723 33.8281C40.2723 33.5045 40.01 33.2422 39.6864 33.2422C39.3628 33.2422 39.1004 33.5045 39.1004 33.8281C39.1004 34.1517 39.3628 34.4141 39.6864 34.4141Z" fill="#222222"/>
<path d="M39.7869 36.3389C39.467 36.2914 39.1688 36.5126 39.1214 36.8327C38.9613 37.914 38.0472 38.8109 36.6764 39.2318C35.2111 39.6817 33.1773 39.5309 31.9365 38.1798C31.7176 37.9414 31.347 37.9257 31.1087 38.1445C30.8703 38.3634 30.8545 38.7341 31.0734 38.9724C31.7916 39.7546 32.7672 40.2877 33.8945 40.514C34.2926 40.5939 34.7056 40.6336 35.1212 40.6336C35.7633 40.6336 36.4117 40.539 37.0204 40.3521C38.8338 39.7952 40.0526 38.5438 40.2806 37.0044C40.328 36.6843 40.107 36.3863 39.7869 36.3389Z" fill="#222222"/>
<path fill-rule="evenodd" clip-rule="evenodd" d="M47.9308 31.1569C46.8658 29.9223 45.3959 29.1218 43.6266 28.8003C45.3206 27.6571 46.7817 26.5194 47.8235 25.5267C49.4119 24.0132 49.9445 22.9496 49.4998 22.1797C49.0049 21.3223 47.5763 21.3282 45.0037 22.1985C42.83 22.9339 40.1222 24.2111 37.3791 25.7949C36.9052 26.0684 36.4358 26.3485 35.9766 26.6307C35.636 25.6688 35.8606 24.57 36.6121 23.6172C37.175 22.9035 37.3007 21.997 36.9402 21.2514C36.5623 20.47 35.7328 20.0021 34.72 20H34.6925C31.1179 20 27.6216 21.4104 24.8476 23.9714C22.0701 26.5356 20.3697 29.9301 20.0597 33.5294C19.6866 37.8642 21.0722 41.9853 23.9612 45.1336C26.7991 48.2263 30.8224 50 34.9995 50C37.2483 50 39.3595 49.5886 41.2741 48.777C43.0249 48.0349 44.5797 46.9753 45.8952 45.6274C47.1149 44.3777 48.0766 42.939 48.7536 41.3513C49.3978 39.8405 49.7497 38.2395 49.7715 36.7214C49.8032 34.5137 49.1667 32.5896 47.9308 31.1569ZM36.0451 27.9681C36.6652 27.5769 37.3111 27.1872 37.9649 26.8098C40.5012 25.3454 43.0269 24.1392 45.0766 23.4134C47.3331 22.6145 48.2569 22.6667 48.4723 22.7698C48.4537 22.9061 48.2844 23.5128 46.8036 24.8764C45.5672 26.015 43.7616 27.354 41.7196 28.6468C41.074 29.0556 40.4022 29.4619 39.7228 29.8542C38.7862 30.3948 37.8503 30.9003 36.9317 31.3631C36.7484 30.8282 36.5135 30.3092 36.2276 29.8139C35.9505 29.334 35.6292 28.8834 35.2699 28.4665C35.5242 28.2999 35.7829 28.1332 36.0451 27.9681ZM31.4851 33.6127C32.6974 33.2657 34.2156 32.6676 35.8701 31.8829C35.7055 31.3699 35.4858 30.8726 35.2128 30.3997C34.9488 29.9425 34.6392 29.5156 34.29 29.1253C32.7858 30.1636 31.5083 31.1784 30.6007 32.0543C30.8171 32.2538 31.0043 32.485 31.1535 32.7437C31.311 33.0167 31.422 33.3096 31.4851 33.6127ZM48.5997 36.7046C48.5162 42.5352 43.2927 48.8281 34.9995 48.8281C31.1498 48.8281 27.4412 47.1928 24.8247 44.3414C22.1603 41.4378 20.8827 37.6337 21.2273 33.63C21.819 26.7606 27.8595 21.1719 34.6925 21.1719H34.7188C35.2794 21.1731 35.7045 21.388 35.8852 21.7616C36.0513 22.1051 35.9791 22.5274 35.692 22.8914C34.6359 24.2303 34.3711 25.877 34.9678 27.2653C34.6536 27.4677 34.3449 27.671 34.0466 27.8726L34.0424 27.8754C32.1792 29.1327 30.6059 30.3832 29.5591 31.4356C28.7651 31.1643 27.8928 31.2434 27.1513 31.6713C25.934 32.3745 24.3355 35.6514 24.0275 36.3011C23.945 36.475 23.9533 36.6784 24.0495 36.8451C24.1458 37.0118 24.3177 37.1206 24.5096 37.1362C24.8334 37.1625 25.753 37.2288 26.7766 37.2288C28.0187 37.2288 29.4137 37.1311 30.081 36.7456C30.804 36.3283 31.3051 35.631 31.4786 34.8294C32.9155 34.4523 34.7929 33.7144 36.8262 32.7237C37.9655 32.1693 39.1371 31.5453 40.3088 30.8691C40.9031 30.5259 41.4906 30.1721 42.0617 29.8152C42.0652 29.8153 42.0685 29.8159 42.072 29.816C46.9557 29.956 48.6462 33.4663 48.5997 36.7046ZM29.4951 35.7307C30.0063 35.4356 30.3337 34.9078 30.3712 34.3186C30.393 33.9731 30.3125 33.6311 30.1385 33.3293C29.9711 33.0392 29.7267 32.8047 29.4314 32.6509C28.8942 32.3707 28.2611 32.3839 27.7374 32.6862C27.1827 33.0066 26.1937 34.6336 25.4744 36.0225C27.0374 36.0939 28.941 36.0508 29.4951 35.7307Z" fill="#222222"/>
<path fill-rule="evenodd" clip-rule="evenodd" d="M27.9678 25.9668C27.9678 24.6745 29.0192 23.623 30.3115 23.623C31.6038 23.623 32.6552 24.6745 32.6552 25.9668C32.6552 27.2591 31.6038 28.3105 30.3115 28.3105C29.0192 28.3105 27.9678 27.2591 27.9678 25.9668ZM29.1397 25.9668C29.1397 26.613 29.6654 27.1387 30.3115 27.1387C30.9577 27.1387 31.4834 26.613 31.4834 25.9668C31.4834 25.3206 30.9577 24.7949 30.3115 24.7949C29.6654 24.7949 29.1397 25.3206 29.1397 25.9668Z" fill="#222222"/>
<path fill-rule="evenodd" clip-rule="evenodd" d="M25.0381 41.7119C25.0381 40.4196 26.0895 39.3682 27.3818 39.3682C28.6742 39.3682 29.7256 40.4196 29.7256 41.7119C29.7256 43.0043 28.6742 44.0557 27.3818 44.0557C26.0895 44.0557 25.0381 43.0043 25.0381 41.7119ZM26.21 41.7119C26.21 42.3581 26.7357 42.8838 27.3818 42.8838C28.028 42.8838 28.5537 42.3581 28.5537 41.7119C28.5537 41.0657 28.028 40.54 27.3818 40.54C26.7357 40.54 26.21 41.0657 26.21 41.7119Z" fill="#222222"/>
<path fill-rule="evenodd" clip-rule="evenodd" d="M30.8975 45.2275C30.8975 43.9352 31.9489 42.8838 33.2413 42.8838C34.5336 42.8838 35.585 43.9352 35.585 45.2275C35.585 46.5199 34.5336 47.5713 33.2413 47.5713C31.9489 47.5713 30.8975 46.5199 30.8975 45.2275ZM32.0694 45.2275C32.0694 45.8737 32.5951 46.3994 33.2413 46.3994C33.8875 46.3994 34.4132 45.8737 34.4132 45.2275C34.4132 44.5814 33.8875 44.0557 33.2413 44.0557C32.5951 44.0557 32.0694 44.5814 32.0694 45.2275Z" fill="#222222"/>
<path fill-rule="evenodd" clip-rule="evenodd" d="M37.9287 44.0557C37.9287 42.7633 38.9801 41.7119 40.2724 41.7119C41.5648 41.7119 42.6162 42.7633 42.6162 44.0557C42.6162 45.348 41.5648 46.3994 40.2724 46.3994C38.9801 46.3994 37.9287 45.348 37.9287 44.0557ZM39.1006 44.0557C39.1006 44.7018 39.6263 45.2275 40.2724 45.2275C40.9186 45.2275 41.4443 44.7018 41.4443 44.0557C41.4443 43.4095 40.9186 42.8838 40.2724 42.8838C39.6263 42.8838 39.1006 43.4095 39.1006 44.0557Z" fill="#222222"/>
<path fill-rule="evenodd" clip-rule="evenodd" d="M42.6162 38.1963C42.6162 36.9039 43.6676 35.8525 44.9599 35.8525C46.2523 35.8525 47.3037 36.9039 47.3037 38.1963C47.3037 39.4886 46.2523 40.54 44.9599 40.54C43.6676 40.54 42.6162 39.4886 42.6162 38.1963ZM43.7881 38.1963C43.7881 38.8425 44.3138 39.3682 44.9599 39.3682C45.6061 39.3682 46.1318 38.8425 46.1318 38.1963C46.1318 37.5501 45.6061 37.0244 44.9599 37.0244C44.3138 37.0244 43.7881 37.5501 43.7881 38.1963Z" fill="#222222"/>
</svg>
