<svg width="70" height="70" viewBox="0 0 70 70" fill="none" xmlns="http://www.w3.org/2000/svg">
<circle cx="35" cy="35" r="34.5" fill="white" stroke="#0092B7"/>
<path fill-rule="evenodd" clip-rule="evenodd" d="M32.9255 38.2346V45.9074C33.8393 46.1242 34.5213 46.9465 34.5213 47.9255C34.5213 49.0694 33.5907 50 32.4468 50C31.3029 50 30.3724 49.0694 30.3724 47.9255C30.3724 46.9465 31.0544 46.1242 31.9681 45.9074V38.7133H29.2553C28.9909 38.7133 28.7766 38.499 28.7766 38.2346C28.7766 37.9701 28.9909 37.7559 29.2553 37.7559H32.4468C32.7113 37.7559 32.9255 37.9701 32.9255 38.2346ZM31.3298 47.9255C31.3298 48.5414 31.8309 49.0426 32.4468 49.0426C33.0627 49.0426 33.5638 48.5414 33.5638 47.9255C33.5638 47.3096 33.0627 46.8085 32.4468 46.8085C31.8309 46.8085 31.3298 47.3096 31.3298 47.9255Z" fill="#222222"/>
<path fill-rule="evenodd" clip-rule="evenodd" d="M38.0319 38.2346V45.9074C38.9457 46.1242 39.6277 46.9465 39.6277 47.9255C39.6277 49.0694 38.6971 50 37.5532 50C36.4093 50 35.4787 49.0694 35.4787 47.9255C35.4787 46.9465 36.1608 46.1242 37.0745 45.9074V38.7133H34.3618C34.0973 38.7133 33.8831 38.499 33.8831 38.2346C33.8831 37.9701 34.0973 37.7559 34.3618 37.7559H37.5532C37.8177 37.7559 38.0319 37.9701 38.0319 38.2346ZM36.4362 47.9255C36.4362 48.5414 36.9373 49.0426 37.5532 49.0426C38.1691 49.0426 38.6702 48.5414 38.6702 47.9255C38.6702 47.3096 38.1691 46.8085 37.5532 46.8085C36.9373 46.8085 36.4362 47.3096 36.4362 47.9255Z" fill="#222222"/>
<path fill-rule="evenodd" clip-rule="evenodd" d="M44.1521 44.2553C44.3689 43.3416 45.1911 42.6596 46.1702 42.6596C47.3141 42.6596 48.2447 43.5902 48.2447 44.7341C48.2447 45.8779 47.3141 46.8085 46.1702 46.8085C45.1911 46.8085 44.3689 46.1265 44.1521 45.2128H42.6596C42.3951 45.2128 42.1808 44.9985 42.1808 44.7341V38.7133H39.4681C39.2036 38.7133 38.9893 38.499 38.9893 38.2346C38.9893 37.9701 39.2036 37.7559 39.4681 37.7559H42.6596C42.924 37.7559 43.1383 37.9701 43.1383 38.2346V44.2553H44.1521ZM45.0532 44.7341C45.0532 45.3499 45.5543 45.8511 46.1702 45.8511C46.7861 45.8511 47.2872 45.3499 47.2872 44.7341C47.2872 44.1182 46.7861 43.617 46.1702 43.617C45.5543 43.617 45.0532 44.1182 45.0532 44.7341Z" fill="#222222"/>
<path fill-rule="evenodd" clip-rule="evenodd" d="M46.3635 28.6148C47.3386 28.9176 48.2149 29.5111 48.8601 30.3121C49.5951 31.2247 50 32.374 50 33.5481C50 36.3962 47.6829 38.7133 44.8349 38.7133H44.5745C44.31 38.7133 44.0957 38.499 44.0957 38.2346C44.0957 37.9701 44.31 37.7558 44.5745 37.7558H44.835C47.1551 37.7558 49.0426 35.8683 49.0426 33.5481C49.0426 31.5789 47.704 29.8936 45.7873 29.4501C45.5718 29.4002 45.4185 29.2092 45.4165 28.988C45.3766 24.5599 41.7411 20.9574 37.3123 20.9574C34.3629 20.9574 31.6431 22.5629 30.2144 25.1474C30.0951 25.363 29.8316 25.453 29.6052 25.3551C29.206 25.1823 28.7817 25.0946 28.3442 25.0946C26.754 25.0946 25.3994 26.2821 25.1933 27.8569C25.1666 28.0605 25.0131 28.2244 24.8117 28.2643C22.5784 28.7072 20.9574 30.6837 20.9574 32.9639C20.9574 35.6062 23.1071 37.7558 25.7493 37.7558H27.3404C27.6049 37.7558 27.8191 37.9701 27.8191 38.2346V44.734C27.8191 44.9985 27.6049 45.2128 27.3404 45.2128H25.8479C25.6311 46.1265 24.8089 46.8085 23.8298 46.8085C22.6859 46.8085 21.7553 45.8779 21.7553 44.734C21.7553 43.5901 22.6859 42.6596 23.8298 42.6596C24.8089 42.6596 25.6311 43.3416 25.8479 44.2553H26.8617V38.7133H25.7493C22.5791 38.7133 20 36.1341 20 32.9639C20 30.3397 21.79 28.0507 24.3015 27.3991C24.707 25.5175 26.3887 24.1371 28.3442 24.1371C28.7692 24.1371 29.1848 24.2008 29.5847 24.3268C31.2289 21.6476 34.1527 20 37.3123 20C39.7184 20 41.9844 20.933 43.6929 22.6272C45.3135 24.2343 46.2537 26.3486 46.3635 28.6148ZM22.7128 44.734C22.7128 45.3499 23.2139 45.8511 23.8298 45.8511C24.4457 45.8511 24.9468 45.3499 24.9468 44.734C24.9468 44.1181 24.4457 43.617 23.8298 43.617C23.2139 43.617 22.7128 44.1181 22.7128 44.734Z" fill="#222222"/>
<path d="M43.342 29.4855H43.3464C43.6108 29.4831 43.8232 29.2669 43.8208 29.0025C43.8136 28.2139 43.6648 27.4423 43.3784 26.709C43.2821 26.4628 43.0046 26.341 42.7583 26.4372C42.512 26.5334 42.3903 26.811 42.4865 27.0573C42.7305 27.6818 42.8572 28.3392 42.8633 29.0112C42.8658 29.2741 43.0796 29.4855 43.342 29.4855Z" fill="#222222"/>
<path d="M41.5922 25.5377C41.6869 25.6523 41.8237 25.7115 41.9616 25.7115C42.069 25.7115 42.177 25.6756 42.2662 25.6019C42.47 25.4335 42.4988 25.1318 42.3304 24.9279C41.0838 23.4188 39.2547 22.5532 37.3124 22.5532C37.0479 22.5532 36.8336 22.7675 36.8336 23.032C36.8336 23.2964 37.0479 23.5107 37.3124 23.5107C38.9681 23.5107 40.5281 24.2494 41.5922 25.5377Z" fill="#222222"/>
</svg>
