<svg width="78" height="78" viewBox="0 0 78 78" fill="none" xmlns="http://www.w3.org/2000/svg">
<mask id="mask0_0_6458" style="mask-type:luminance" maskUnits="userSpaceOnUse" x="0" y="0" width="78" height="78">
<path fill-rule="evenodd" clip-rule="evenodd" d="M0 0H77.9996V78H0V0Z" fill="white"/>
</mask>
<g mask="url(#mask0_0_6458)">
<path fill-rule="evenodd" clip-rule="evenodd" d="M77.9996 39C77.9996 60.539 60.5386 78 38.9996 78C17.4606 78 -0.000396729 60.539 -0.000396729 39C-0.000396729 17.461 17.4606 0 38.9996 0C60.5386 0 77.9996 17.461 77.9996 39" fill="#0092B7"/>
</g>
<path fill-rule="evenodd" clip-rule="evenodd" d="M40.5902 58.9985L51.4843 41.5842L45.7852 37.332L31.6306 38.3381L26.2565 43.395L38.3873 60.2634C39.1132 59.811 39.8498 59.3935 40.5902 58.9985" fill="#DBD5D5"/>
<path fill-rule="evenodd" clip-rule="evenodd" d="M59.1989 43.1562C58.0284 41.4145 51.6531 40.4093 51.6531 40.4093L47.5489 39.3711L38.9998 59.8719L30.4469 39.3711L26.3495 40.4093C26.3495 40.4093 19.9713 41.4145 18.7958 43.1562C16.6883 44.5038 16.5345 61.2487 16.9568 61.3119C17.3295 61.3742 33.1325 61.3246 36.2481 61.3139C40.2696 61.3246 60.6672 61.3742 61.0448 61.3119C61.4642 61.2487 61.3114 44.5038 59.1989 43.1562" fill="#161313"/>
<mask id="mask1_0_6458" style="mask-type:luminance" maskUnits="userSpaceOnUse" x="0" y="0" width="78" height="78">
<path fill-rule="evenodd" clip-rule="evenodd" d="M0 78H78V0H0V78Z" fill="white"/>
</mask>
<g mask="url(#mask1_0_6458)">
<path fill-rule="evenodd" clip-rule="evenodd" d="M32.6646 40.4098H45.3412V30.5063H32.6646V40.4098Z" fill="#D1AB86"/>
<path fill-rule="evenodd" clip-rule="evenodd" d="M49.2601 24.1635C48.4788 31.8252 42.697 37.5135 39.0229 37.5135C35.0918 37.5135 29.7022 31.6685 28.7837 24.1635C27.8856 16.8483 33.3676 13.1274 39.0229 13.1274C44.6781 13.1274 50.0094 16.8318 49.2601 24.1635" fill="#FFE2C2"/>
<path fill-rule="evenodd" clip-rule="evenodd" d="M28.3865 16.6303C29.2214 13.6928 32.0208 10.328 35.5869 9.45326C38.5741 8.72252 43.9326 7.87306 48.4737 12.4697C49.0702 13.072 49.7367 14.5237 49.7747 16.0416C50.1785 16.7792 50.4013 17.7678 50.2544 19.1125C49.7367 23.9475 49.293 25.3185 49.293 25.3185L48.0748 25.8838C48.0748 25.8838 48.6703 24.22 47.8792 21.9236C47.6651 21.3018 47.3723 20.7161 47.0531 20.1838C41.8523 23.0572 33.8296 23.6167 30.2586 23.7159C30.1457 25.0305 30.4367 25.8838 30.4367 25.8838L29.2214 25.3185C29.2214 25.3185 29.089 24.9021 28.8857 23.7354C28.5947 23.7373 28.4293 23.7325 28.4293 23.7325C28.4293 23.7325 27.394 20.1342 28.3865 16.6303" fill="#0C0A0A"/>
<path fill-rule="evenodd" clip-rule="evenodd" d="M29.6759 25.3674C30.2082 26.9009 30.6217 28.376 29.9883 28.5959C29.3587 28.8158 27.9254 27.6958 27.3922 26.1662C26.858 24.6356 26.9378 23.217 27.5664 22.9971C28.2008 22.7752 29.1437 23.8378 29.6759 25.3674" fill="#FFE2C2"/>
<path fill-rule="evenodd" clip-rule="evenodd" d="M48.326 25.3674C47.7938 26.9009 47.3822 28.376 48.0176 28.5959C48.6471 28.8158 50.0804 27.6958 50.6136 26.1662C51.1468 24.6356 51.068 23.217 50.4394 22.9971C49.805 22.7752 48.8612 23.8378 48.326 25.3674" fill="#FFE2C2"/>
<path fill-rule="evenodd" clip-rule="evenodd" d="M42.1909 42.0484L38.9975 44.7252L35.8079 42.0484L38.9975 39.3706L42.1909 42.0484Z" fill="#E74C3C"/>
<path fill-rule="evenodd" clip-rule="evenodd" d="M38.4261 44.1089L36.5491 53.2797L38.8708 60.8255L41.75 53.2797L39.6113 44.1089H38.4261Z" fill="#E74C3C"/>
<path fill-rule="evenodd" clip-rule="evenodd" d="M32.2164 35.4385L38.9994 39.3812L36.7673 44.1306L31.472 39.2187C31.472 39.2187 30.0777 38.8616 30.5428 38.235C31.006 37.6113 32.1298 37.0479 32.2164 35.4385" fill="#FFF8F8"/>
<path fill-rule="evenodd" clip-rule="evenodd" d="M45.7894 35.4517L39.019 39.3808L41.2453 44.1136L46.5367 39.2241C46.5367 39.2241 47.9271 38.8612 47.4659 38.2394C47.0018 37.6205 45.8799 37.0572 45.7894 35.4517" fill="#FFF8F8"/>
<path fill-rule="evenodd" clip-rule="evenodd" d="M38.9996 59.8715L31.2407 37.5132L28.6378 39.7006L25.9221 41.162L29.2509 46.718L30.7814 46.6918L29.8084 49.9047L38.9996 59.8715Z" fill="#333030"/>
<path fill-rule="evenodd" clip-rule="evenodd" d="M39.0015 59.8715L46.7604 37.5132L49.3603 39.54L52.3213 41.162L48.7493 46.718L47.2177 46.6918L48.1937 49.9047L39.0015 59.8715Z" fill="#333030"/>
</g>
</svg>
