<svg width="78" height="78" viewBox="0 0 78 78" fill="none" xmlns="http://www.w3.org/2000/svg">
<mask id="mask0_0_6384" style="mask-type:luminance" maskUnits="userSpaceOnUse" x="0" y="0" width="78" height="78">
<path fill-rule="evenodd" clip-rule="evenodd" d="M0 0H78V78.0001H0V0Z" fill="white"/>
</mask>
<g mask="url(#mask0_0_6384)">
<path fill-rule="evenodd" clip-rule="evenodd" d="M78 38.9993C78 60.5389 60.5387 78.0002 39.0002 78.0002C17.4616 78.0002 -0.000183105 60.5389 -0.000183105 38.9993C-0.000183105 17.4607 17.4616 0 39.0002 0C60.5387 0 78 17.4607 78 38.9993" fill="#0092B7"/>
</g>
<mask id="mask1_0_6384" style="mask-type:luminance" maskUnits="userSpaceOnUse" x="3" y="3" width="72" height="73">
<path fill-rule="evenodd" clip-rule="evenodd" d="M3.01794 39.067C3.01794 58.9394 19.1274 75.0494 39.0004 75.0494V75.0494C58.8728 75.0494 74.9828 58.9394 74.9828 39.067V39.067C74.9828 19.194 58.8728 3.08398 39.0004 3.08398V3.08398C19.1274 3.08398 3.01794 19.194 3.01794 39.067V39.067Z" fill="white"/>
</mask>
<g mask="url(#mask1_0_6384)">
<path fill-rule="evenodd" clip-rule="evenodd" d="M32.9211 59.957C32.3099 58.3085 30.5472 56.7718 30.5472 56.7718C30.5472 56.7718 26.7196 55.6795 25.5307 54.7589C24.9228 54.2882 24.9349 52.6726 25.0896 51.2034C28.7522 49.8615 31.4239 45.698 31.4239 40.7655C31.4239 34.751 27.4525 29.8755 22.5572 29.8755C17.6636 29.8755 13.6949 34.751 13.6949 40.7655C13.6949 45.7589 16.432 49.9662 20.1653 51.2489C20.3134 52.7071 20.3194 54.2932 19.7187 54.7589C18.5315 55.6795 14.7016 56.7718 14.7016 56.7718C14.7016 56.7718 12.9433 58.3085 12.3278 59.957L11.8264 61.2402L13.7103 64.0925C13.7103 64.0925 14.4389 76.4412 16.2877 76.4412H22.521H23.0241H29.252C31.0991 76.4412 31.8343 64.0925 31.8343 64.0925L33.5783 62.112L32.9211 59.957Z" fill="#D8A535"/>
</g>
<mask id="mask2_0_6384" style="mask-type:luminance" maskUnits="userSpaceOnUse" x="3" y="3" width="72" height="73">
<path fill-rule="evenodd" clip-rule="evenodd" d="M3.01794 39.067C3.01794 58.9394 19.1274 75.0494 39.0004 75.0494V75.0494C58.8728 75.0494 74.9828 58.9394 74.9828 39.067V39.067C74.9828 19.194 58.8728 3.08398 39.0004 3.08398V3.08398C19.1274 3.08398 3.01794 19.194 3.01794 39.067" fill="white"/>
</mask>
<g mask="url(#mask2_0_6384)">
<path fill-rule="evenodd" clip-rule="evenodd" d="M55.5203 26.5922C52.5205 34.5937 42.4084 36.6274 36.5992 30.3897C36.3287 30.1022 36.0895 30.038 35.7241 30.1115C34.5057 30.354 33.2845 30.5921 32.0567 30.7715C31.7066 30.8236 30.8662 31.0414 30.7301 30.8648C30.4805 30.5872 30.7976 30.2322 31.1866 29.485C31.2206 29.423 31.2628 29.3599 31.3023 29.2963C32.0709 28.0279 32.8527 26.7655 33.5955 25.4829C33.7316 25.2536 33.7985 24.9238 33.7634 24.6611C33.5094 22.906 33.5906 21.1927 34.1063 19.4854C35.773 13.9719 41.3743 10.5743 47.0398 11.6282C54.3731 12.9986 57.6264 20.9826 55.5203 26.5922" fill="#D8A535"/>
</g>
<mask id="mask3_0_6384" style="mask-type:luminance" maskUnits="userSpaceOnUse" x="3" y="3" width="72" height="73">
<path fill-rule="evenodd" clip-rule="evenodd" d="M3.01794 39.067C3.01794 58.9394 19.1274 75.0494 39.0004 75.0494V75.0494C58.8728 75.0494 74.9828 58.9394 74.9828 39.067V39.067C74.9828 19.194 58.8728 3.08398 39.0004 3.08398V3.08398C19.1274 3.08398 3.01794 19.194 3.01794 39.067" fill="white"/>
</mask>
<g mask="url(#mask3_0_6384)">
<path fill-rule="evenodd" clip-rule="evenodd" d="M56.3925 24.2997C53.5063 32.8016 42.9537 35.2698 36.6474 28.9119C36.3539 28.6184 36.101 28.5586 35.718 28.648C34.4475 28.9437 33.173 29.2323 31.8898 29.4622C31.5244 29.5285 30.6483 29.7853 30.5018 29.6031C30.2281 29.3206 30.549 28.9371 30.9319 28.1395C30.9665 28.0725 31.0093 28.005 31.0488 27.9381C31.813 26.5797 32.5926 25.2291 33.3321 23.857C33.4671 23.6112 33.5263 23.2634 33.4808 22.9885C33.156 21.1556 33.184 19.3523 33.669 17.5419C35.2386 11.6981 41.0078 7.94445 46.9926 8.86448C54.7401 10.0621 58.418 18.339 56.3925 24.2997" fill="white"/>
</g>
<mask id="mask4_0_6384" style="mask-type:luminance" maskUnits="userSpaceOnUse" x="3" y="3" width="72" height="73">
<path fill-rule="evenodd" clip-rule="evenodd" d="M3.01794 39.067C3.01794 58.9394 19.1274 75.0494 39.0004 75.0494V75.0494C58.8728 75.0494 74.9828 58.9394 74.9828 39.067V39.067C74.9828 19.194 58.8728 3.08398 39.0004 3.08398V3.08398C19.1274 3.08398 3.01794 19.194 3.01794 39.067" fill="white"/>
</mask>
<g mask="url(#mask4_0_6384)">
<path fill-rule="evenodd" clip-rule="evenodd" d="M41.109 21.0673C41.109 22.0345 40.3256 22.8195 39.3584 22.8195C38.389 22.8195 37.6061 22.0345 37.6061 21.0673C37.6061 20.099 38.389 19.3145 39.3584 19.3145C40.3256 19.3145 41.109 20.099 41.109 21.0673" fill="#343433"/>
</g>
<mask id="mask5_0_6384" style="mask-type:luminance" maskUnits="userSpaceOnUse" x="3" y="3" width="72" height="73">
<path fill-rule="evenodd" clip-rule="evenodd" d="M3.01794 39.067C3.01794 58.9394 19.1274 75.0494 39.0004 75.0494V75.0494C58.8728 75.0494 74.9828 58.9394 74.9828 39.067V39.067C74.9828 19.194 58.8728 3.08398 39.0004 3.08398V3.08398C19.1274 3.08398 3.01794 19.194 3.01794 39.067" fill="white"/>
</mask>
<g mask="url(#mask5_0_6384)">
<path fill-rule="evenodd" clip-rule="evenodd" d="M52.9599 21.0673C52.9599 22.0345 52.1743 22.8195 51.206 22.8195C50.2393 22.8195 49.4515 22.0345 49.4515 21.0673C49.4515 20.099 50.2393 19.3145 51.206 19.3145C52.1743 19.3145 52.9599 20.099 52.9599 21.0673" fill="#343433"/>
</g>
<mask id="mask6_0_6384" style="mask-type:luminance" maskUnits="userSpaceOnUse" x="3" y="3" width="72" height="73">
<path fill-rule="evenodd" clip-rule="evenodd" d="M3.01794 39.067C3.01794 58.9394 19.1274 75.0494 39.0004 75.0494V75.0494C58.8728 75.0494 74.9828 58.9394 74.9828 39.067V39.067C74.9828 19.194 58.8728 3.08398 39.0004 3.08398V3.08398C19.1274 3.08398 3.01794 19.194 3.01794 39.067" fill="white"/>
</mask>
<g mask="url(#mask6_0_6384)">
<path fill-rule="evenodd" clip-rule="evenodd" d="M47.1165 21.0673C47.1165 22.0345 46.3325 22.8195 45.3642 22.8195C44.3976 22.8195 43.6136 22.0345 43.6136 21.0673C43.6136 20.099 44.3976 19.3145 45.3642 19.3145C46.3325 19.3145 47.1165 20.099 47.1165 21.0673" fill="#343433"/>
</g>
<mask id="mask7_0_6384" style="mask-type:luminance" maskUnits="userSpaceOnUse" x="3" y="3" width="72" height="73">
<path fill-rule="evenodd" clip-rule="evenodd" d="M3.01794 39.067C3.01794 58.9394 19.1274 75.0494 39.0004 75.0494V75.0494C58.8728 75.0494 74.9828 58.9394 74.9828 39.067V39.067C74.9828 19.194 58.8728 3.08398 39.0004 3.08398V3.08398C19.1274 3.08398 3.01794 19.194 3.01794 39.067V39.067Z" fill="white"/>
</mask>
<g mask="url(#mask7_0_6384)">
<path fill-rule="evenodd" clip-rule="evenodd" d="M30.9977 59.0271C30.364 57.3198 28.5388 55.7278 28.5388 55.7278C28.5388 55.7278 24.5729 54.5971 23.3423 53.643C22.7114 53.1553 22.7246 51.4804 22.8853 49.9591C26.679 48.5689 29.4484 44.2557 29.4484 39.1459C29.4484 32.9148 25.3327 27.8643 20.2619 27.8643C15.1916 27.8643 11.0792 32.9148 11.0792 39.1459C11.0792 44.3183 13.9155 48.6775 17.7827 50.0063C17.9363 51.5177 17.9434 53.1603 17.3197 53.643C16.0902 54.5971 12.1237 55.7278 12.1237 55.7278C12.1237 55.7278 10.3018 57.3198 9.66376 59.0271L9.14423 60.357L11.0962 63.0419C11.0962 63.0419 11.8511 74.7954 13.7657 74.7954H20.224H20.7452H27.1958C29.111 74.7954 29.8714 63.0419 29.8714 63.0419L31.6785 61.1245L30.9977 59.0271Z" fill="white"/>
</g>
<mask id="mask8_0_6384" style="mask-type:luminance" maskUnits="userSpaceOnUse" x="3" y="3" width="72" height="73">
<path fill-rule="evenodd" clip-rule="evenodd" d="M3.01794 39.067C3.01794 58.9394 19.1274 75.0494 39.0004 75.0494V75.0494C58.8728 75.0494 74.9828 58.9394 74.9828 39.067V39.067C74.9828 19.194 58.8728 3.08398 39.0004 3.08398V3.08398C19.1274 3.08398 3.01794 19.194 3.01794 39.067V39.067Z" fill="white"/>
</mask>
<g mask="url(#mask8_0_6384)">
<path fill-rule="evenodd" clip-rule="evenodd" d="M43.3796 51.3204C43.1168 50.6094 42.357 49.9472 42.357 49.9472C42.357 49.9472 40.7073 49.477 40.1949 49.0798C39.9337 48.8779 39.9392 48.1801 40.0045 47.547C41.584 46.9693 42.7344 45.1753 42.7344 43.0495C42.7344 40.4556 41.0233 38.355 38.9139 38.355C36.8039 38.355 35.0933 40.4556 35.0933 43.0495C35.0933 45.2006 36.2723 47.0143 37.8819 47.5678C37.9472 48.196 37.9494 48.8785 37.6894 49.0798C37.1786 49.477 35.5278 49.9472 35.5278 49.9472C35.5278 49.9472 34.7696 50.6094 34.5047 51.3204L34.288 51.8739L35.1005 52.8148C35.1005 52.8148 35.4143 56.6913 36.2114 56.6913H38.8974H39.1152H41.7979C42.5951 56.6913 42.9111 52.8148 42.9111 52.8148L43.6638 52.1054L43.3796 51.3204Z" fill="#C93831"/>
</g>
<mask id="mask9_0_6384" style="mask-type:luminance" maskUnits="userSpaceOnUse" x="3" y="3" width="72" height="73">
<path fill-rule="evenodd" clip-rule="evenodd" d="M3.01794 39.067C3.01794 58.9394 19.1274 75.0494 39.0004 75.0494V75.0494C58.8728 75.0494 74.9828 58.9394 74.9828 39.067V39.067C74.9828 19.194 58.8728 3.08398 39.0004 3.08398V3.08398C19.1274 3.08398 3.01794 19.194 3.01794 39.067V39.067Z" fill="white"/>
</mask>
<g mask="url(#mask9_0_6384)">
<path fill-rule="evenodd" clip-rule="evenodd" d="M56.4921 51.3204C56.2293 50.6094 55.469 49.9472 55.469 49.9472C55.469 49.9472 53.8198 49.477 53.3063 49.0798C53.0452 48.8779 53.0518 48.1801 53.1176 47.547C54.696 46.9693 55.8481 45.1753 55.8481 43.0495C55.8481 40.4556 54.1353 38.355 52.0259 38.355C49.917 38.355 48.2053 40.4556 48.2053 43.0495C48.2053 45.2006 49.3854 47.0143 50.9945 47.5678C51.0603 48.196 51.062 48.8785 50.8025 49.0798C50.2917 49.477 48.6398 49.9472 48.6398 49.9472C48.6398 49.9472 47.8822 50.6094 47.6167 51.3204L47.4016 51.8739L48.2125 52.8148C48.2125 52.8148 48.5279 56.6913 49.3245 56.6913H52.0105H52.2272H54.9121C55.7071 56.6913 56.0242 52.8148 56.0242 52.8148L56.7769 52.1054L56.4921 51.3204Z" fill="#C93831"/>
</g>
<mask id="mask10_0_6384" style="mask-type:luminance" maskUnits="userSpaceOnUse" x="3" y="3" width="72" height="73">
<path fill-rule="evenodd" clip-rule="evenodd" d="M3.01794 39.067C3.01794 58.9394 19.1274 75.0494 39.0004 75.0494V75.0494C58.8728 75.0494 74.9828 58.9394 74.9828 39.067V39.067C74.9828 19.194 58.8728 3.08398 39.0004 3.08398V3.08398C19.1274 3.08398 3.01794 19.194 3.01794 39.067V39.067Z" fill="white"/>
</mask>
<g mask="url(#mask10_0_6384)">
<path fill-rule="evenodd" clip-rule="evenodd" d="M69.8223 51.3204C69.5584 50.6094 68.7997 49.9472 68.7997 49.9472C68.7997 49.9472 67.1494 49.477 66.637 49.0798C66.3753 48.8779 66.3808 48.1801 66.4467 47.547C68.0267 46.9693 69.1782 45.1753 69.1782 43.0495C69.1782 40.4556 67.466 38.355 65.356 38.355C63.2466 38.355 61.536 40.4556 61.536 43.0495C61.536 45.2006 62.7155 47.0143 64.3246 47.5678C64.3899 48.196 64.3921 48.8785 64.1326 49.0798C63.6207 49.477 61.97 49.9472 61.97 49.9472C61.97 49.9472 61.2118 50.6094 60.9468 51.3204L60.7301 51.8739L61.5426 52.8148C61.5426 52.8148 61.8564 56.6913 62.6541 56.6913H65.3406H65.5568H68.2412C69.0367 56.6913 69.3538 52.8148 69.3538 52.8148L70.1054 52.1054L69.8223 51.3204Z" fill="#C93831"/>
</g>
<mask id="mask11_0_6384" style="mask-type:luminance" maskUnits="userSpaceOnUse" x="3" y="3" width="72" height="73">
<path fill-rule="evenodd" clip-rule="evenodd" d="M3.01794 39.067C3.01794 58.9394 19.1274 75.0494 39.0004 75.0494V75.0494C58.8728 75.0494 74.9828 58.9394 74.9828 39.067V39.067C74.9828 19.194 58.8728 3.08398 39.0004 3.08398V3.08398C19.1274 3.08398 3.01794 19.194 3.01794 39.067V39.067Z" fill="white"/>
</mask>
<g mask="url(#mask11_0_6384)">
<path fill-rule="evenodd" clip-rule="evenodd" d="M50.6085 57.257C50.3194 56.4763 49.486 55.7494 49.486 55.7494C49.486 55.7494 47.6734 55.232 47.1111 54.7964C46.8236 54.5742 46.8296 53.8089 46.9021 53.1138C48.6368 52.4785 49.9008 50.509 49.9008 48.1747C49.9008 45.3279 48.0207 43.021 45.705 43.021C43.3887 43.021 41.5092 45.3279 41.5092 48.1747C41.5092 50.5375 42.805 52.5279 44.5726 53.1363C44.6429 53.8254 44.6456 54.5753 44.3609 54.7964C43.7996 55.232 41.987 55.7494 41.987 55.7494C41.987 55.7494 41.1548 56.4763 40.8629 57.257L40.6265 57.8637L41.5174 58.9577C41.5174 58.9577 41.863 63.2747 42.7375 63.2747H45.6874H45.9244H48.8732C49.7455 63.2747 50.095 58.9577 50.095 58.9577L50.9201 58.1485L50.6085 57.257Z" fill="#E74C3C"/>
</g>
<mask id="mask12_0_6384" style="mask-type:luminance" maskUnits="userSpaceOnUse" x="3" y="3" width="72" height="73">
<path fill-rule="evenodd" clip-rule="evenodd" d="M3.01794 39.067C3.01794 58.9394 19.1274 75.0494 39.0004 75.0494V75.0494C58.8728 75.0494 74.9828 58.9394 74.9828 39.067V39.067C74.9828 19.194 58.8728 3.08398 39.0004 3.08398V3.08398C19.1274 3.08398 3.01794 19.194 3.01794 39.067V39.067Z" fill="white"/>
</mask>
<g mask="url(#mask12_0_6384)">
<path fill-rule="evenodd" clip-rule="evenodd" d="M63.9043 57.257C63.6141 56.4763 62.7808 55.7494 62.7808 55.7494C62.7808 55.7494 60.9687 55.232 60.4064 54.7964C60.1194 54.5742 60.1244 53.8089 60.1979 53.1138C61.9315 52.4785 63.1972 50.509 63.1972 48.1747C63.1972 45.3279 61.316 43.021 58.9997 43.021C56.6829 43.021 54.805 45.3279 54.805 48.1747C54.805 50.5375 56.0997 52.5279 57.8674 53.1363C57.9387 53.8254 57.9409 54.5753 57.6562 54.7964C57.0938 55.232 55.2818 55.7494 55.2818 55.7494C55.2818 55.7494 54.4495 56.4763 54.1582 57.257L53.9207 57.8637L54.8132 58.9577C54.8132 58.9577 55.1578 63.2747 56.0328 63.2747H58.9827H59.2203H62.1674C63.0419 63.2747 63.3903 58.9577 63.3903 58.9577L64.2148 58.1485L63.9043 57.257Z" fill="#E74C3C"/>
</g>
</svg>
