<svg width="78" height="71" viewBox="0 0 78 71" fill="none" xmlns="http://www.w3.org/2000/svg">
<mask id="mask0_0_6349" style="mask-type:luminance" maskUnits="userSpaceOnUse" x="0" y="0" width="71" height="71">
<path fill-rule="evenodd" clip-rule="evenodd" d="M0.00012207 0H70.4907V70.4907H0.00012207V0Z" fill="white"/>
</mask>
<g mask="url(#mask0_0_6349)">
<path fill-rule="evenodd" clip-rule="evenodd" d="M70.4904 35.3911C70.4102 54.8564 54.565 70.5709 35.0996 70.4906C15.6346 70.4101 -0.0801412 54.5652 0.000430516 35.0998C0.080672 15.6345 15.9256 -0.0799355 35.3909 0.000305935C54.8562 0.0808776 70.5707 15.9258 70.4904 35.3911" fill="#0092B7"/>
</g>
<path fill-rule="evenodd" clip-rule="evenodd" d="M53.6199 38.5226C53.6199 49.6385 44.6087 58.6497 33.4928 58.6497C22.3766 58.6497 13.3654 49.6385 13.3654 38.5226C13.3654 27.4067 22.3766 18.3955 33.4928 18.3955C44.6087 18.3955 53.6199 27.4067 53.6199 38.5226" fill="white"/>
<path fill-rule="evenodd" clip-rule="evenodd" d="M33.4927 19.3703C28.3771 19.3703 23.5675 21.3625 19.9504 24.9796C16.3329 28.5971 14.3408 33.4066 14.3408 38.5223C14.3408 43.6379 16.3329 48.4471 19.9504 52.0646C23.5675 55.6817 28.3771 57.6739 33.4927 57.6739C38.6084 57.6739 43.4179 55.6817 47.035 52.0646C50.6525 48.4471 52.6447 43.6379 52.6447 38.5223C52.6447 33.4066 50.6525 28.5971 47.035 24.9796C43.4179 21.3625 38.6084 19.3703 33.4927 19.3703M33.4927 59.6248C27.856 59.6248 22.5568 57.4299 18.5708 53.4439C14.5851 49.4582 12.3902 44.159 12.3902 38.5223C12.3902 32.8856 14.5851 27.5863 18.5708 23.6003C22.5568 19.6147 27.856 17.4194 33.4927 17.4194C39.1294 17.4194 44.4287 19.6147 48.4143 23.6003C52.4003 27.5863 54.5952 32.8856 54.5952 38.5223C54.5952 44.159 52.4003 49.4582 48.4143 53.4439C44.4287 57.4299 39.1294 59.6248 33.4927 59.6248" fill="#433930"/>
<path fill-rule="evenodd" clip-rule="evenodd" d="M24.3596 25.251L31.7834 39.2579L35.2454 36.9986L24.3596 25.251Z" fill="#C45F43"/>
<path fill-rule="evenodd" clip-rule="evenodd" d="M43.2534 49.7028L34.8808 36.562L31.7834 39.0472L43.2534 49.7028Z" fill="#C45F43"/>
<path fill-rule="evenodd" clip-rule="evenodd" d="M36.1112 37.891C36.1112 39.3374 34.939 40.5096 33.4927 40.5096C32.0463 40.5096 30.8741 39.3374 30.8741 37.891C30.8741 36.4447 32.0463 35.2725 33.4927 35.2725C34.939 35.2725 36.1112 36.4447 36.1112 37.891" fill="#037C75"/>
<path fill-rule="evenodd" clip-rule="evenodd" d="M35.0589 37.8909C35.0589 38.7561 34.3575 39.4571 33.4927 39.4571C32.6276 39.4571 31.9265 38.7561 31.9265 37.8909C31.9265 37.0261 32.6276 36.3247 33.4927 36.3247C34.3575 36.3247 35.0589 37.0261 35.0589 37.8909" fill="#433930"/>
<path fill-rule="evenodd" clip-rule="evenodd" d="M33.8836 18.13H33.1017C32.5866 18.13 32.1652 17.7087 32.1652 17.1935V15.8608C32.1652 15.3457 32.5866 14.9243 33.1017 14.9243H33.8836C34.3988 14.9243 34.8201 15.3457 34.8201 15.8608V17.1935C34.8201 17.7087 34.3988 18.13 33.8836 18.13" fill="#1D1711"/>
<mask id="mask1_0_6349" style="mask-type:luminance" maskUnits="userSpaceOnUse" x="0" y="0" width="78" height="71">
<path fill-rule="evenodd" clip-rule="evenodd" d="M0 70.4907H78V0H0V70.4907Z" fill="white"/>
</mask>
<g mask="url(#mask1_0_6349)">
<path fill-rule="evenodd" clip-rule="evenodd" d="M33.1407 17.1551H33.8448V15.9003H33.1407V17.1551ZM33.8837 19.106H33.1018C32.0477 19.106 31.1902 18.2484 31.1902 17.194V15.8613C31.1902 14.8073 32.0477 13.9497 33.1018 13.9497H33.8837C34.9378 13.9497 35.7953 14.8073 35.7953 15.8613V17.194C35.7953 18.2484 34.9378 19.106 33.8837 19.106V19.106Z" fill="#C45F43"/>
<path fill-rule="evenodd" clip-rule="evenodd" d="M37.9028 11.9432C37.9028 14.3788 35.9285 16.3532 33.4928 16.3532C31.0572 16.3532 29.0825 14.3788 29.0825 11.9432C29.0825 9.50754 31.0572 7.5332 33.4928 7.5332C35.9285 7.5332 37.9028 9.50754 37.9028 11.9432" fill="white"/>
<path fill-rule="evenodd" clip-rule="evenodd" d="M33.4927 8.50851C31.5986 8.50851 30.0579 10.0493 30.0579 11.9434C30.0579 13.8371 31.5986 15.3779 33.4927 15.3779C35.3865 15.3779 36.9276 13.8371 36.9276 11.9434C36.9276 10.0493 35.3865 8.50851 33.4927 8.50851M33.4927 17.3288C30.5231 17.3288 28.1073 14.913 28.1073 11.9434C28.1073 8.97378 30.5231 6.55762 33.4927 6.55762C36.4623 6.55762 38.8781 8.97378 38.8781 11.9434C38.8781 14.913 36.4623 17.3288 33.4927 17.3288" fill="#433930"/>
<path fill-rule="evenodd" clip-rule="evenodd" d="M77.0246 28.4052C77.0246 37.7311 69.4647 45.291 60.1389 45.291C50.8133 45.291 43.2535 37.7311 43.2535 28.4052C43.2535 19.0797 50.8133 11.5195 60.1389 11.5195C69.4647 11.5195 77.0246 19.0797 77.0246 28.4052" fill="white"/>
<path fill-rule="evenodd" clip-rule="evenodd" d="M60.139 12.4948C51.3659 12.4948 44.2287 19.632 44.2287 28.4051C44.2287 37.1778 51.3659 44.3154 60.139 44.3154C68.912 44.3154 76.0492 37.1778 76.0492 28.4051C76.0492 19.632 68.912 12.4948 60.139 12.4948M60.139 46.2659C55.3681 46.2659 50.8828 44.4082 47.5094 41.0347C44.1359 37.6613 42.2781 33.176 42.2781 28.4051C42.2781 23.6342 44.1359 19.1489 47.5094 15.7755C50.8828 12.402 55.3681 10.5439 60.139 10.5439C64.9099 10.5439 69.3951 12.402 72.7686 15.7755C76.142 19.1489 77.9998 23.6342 77.9998 28.4051C77.9998 33.176 76.142 37.6613 72.7686 41.0347C69.3951 44.4082 64.9099 46.2659 60.139 46.2659" fill="#C45F43"/>
<path fill-rule="evenodd" clip-rule="evenodd" d="M59.7452 28.676H60.4932V20.5742H59.7452V28.676Z" fill="#433930"/>
<path fill-rule="evenodd" clip-rule="evenodd" d="M60.1194 18.873L58.4944 21.5762H61.7833L60.1194 18.873Z" fill="#433930"/>
<path fill-rule="evenodd" clip-rule="evenodd" d="M60.3541 30.2269L60.8696 29.7993L67.2077 37.4401L66.6922 37.8677L60.3541 30.2269Z" fill="#433930"/>
<path fill-rule="evenodd" clip-rule="evenodd" d="M61.9084 29.1353C61.9084 30.1128 61.1163 30.9049 60.1388 30.9049C59.1617 30.9049 58.3696 30.1128 58.3696 29.1353C58.3696 28.1582 59.1617 27.3657 60.1388 27.3657C61.1163 27.3657 61.9084 28.1582 61.9084 29.1353" fill="#433930"/>
<path fill-rule="evenodd" clip-rule="evenodd" d="M61.1974 29.1355C61.1974 29.72 60.7236 30.1938 60.1391 30.1938C59.5543 30.1938 59.0804 29.72 59.0804 29.1355C59.0804 28.551 59.5543 28.0771 60.1391 28.0771C60.7236 28.0771 61.1974 28.551 61.1974 29.1355" fill="#EBCB42"/>
<path fill-rule="evenodd" clip-rule="evenodd" d="M67.8941 38.6731L67.1158 35.6167L64.8023 37.9543L67.8941 38.6731Z" fill="#433930"/>
<path fill-rule="evenodd" clip-rule="evenodd" d="M59.7532 15.9619H60.441V12.7905H59.7532V15.9619Z" fill="#C45F43"/>
<path fill-rule="evenodd" clip-rule="evenodd" d="M59.7951 43.6518H60.4829V40.4805H59.7951V43.6518Z" fill="#C45F43"/>
<path fill-rule="evenodd" clip-rule="evenodd" d="M72.4677 28.7489H75.639V28.061H72.4677V28.7489Z" fill="#C45F43"/>
<path fill-rule="evenodd" clip-rule="evenodd" d="M44.9735 28.305H48.1449V27.6172H44.9735V28.305Z" fill="#C45F43"/>
</g>
</svg>
