<svg width="78" height="78" viewBox="0 0 78 78" fill="none" xmlns="http://www.w3.org/2000/svg">
<g id="Group 14">
<circle id="Oval" cx="39" cy="39" r="39" fill="#0092B7"/>
<g id="Group 42">
<g id="Group 3">
<mask id="mask0_0_6277" style="mask-type:luminance" maskUnits="userSpaceOnUse" x="18" y="42" width="24" height="25">
<path id="Clip 2" fill-rule="evenodd" clip-rule="evenodd" d="M18 42.5386H41.8892V66.4273H18V42.5386Z" fill="white"/>
</mask>
<g mask="url(#mask0_0_6277)">
<path id="Fill 1" fill-rule="evenodd" clip-rule="evenodd" d="M41.5537 49.0263C40.6267 48.1003 37.9727 49.1503 34.8617 51.4613C35.0717 50.6733 35.0597 50.0463 34.7747 49.6533C34.3817 49.3683 33.7547 49.3563 32.9667 49.5663C35.2767 46.4553 36.3267 43.8003 35.4017 42.8743C34.0747 41.5473 29.1987 44.2723 24.5107 48.9603C19.8227 53.6483 18.4247 59.8503 18.4247 59.8503C18.4247 59.8503 19.7167 59.5553 21.5597 58.7973C19.2617 62.1343 18.2607 65.4473 17.9997 66.4273C18.9797 66.1663 22.2937 65.1663 25.6297 62.8683C24.8717 64.7113 24.5767 66.0033 24.5767 66.0033C24.5767 66.0033 30.7797 64.6053 35.4677 59.9173C40.1567 55.2293 42.8797 50.3533 41.5537 49.0263Z" fill="#FD6D60"/>
</g>
</g>
<path id="Fill 4" fill-rule="evenodd" clip-rule="evenodd" d="M46.0078 44.5721C45.0818 43.6461 42.4268 44.6961 39.3158 47.0071C39.5258 46.2191 39.5138 45.5921 39.2288 45.1991C38.8358 44.9141 38.2088 44.9021 37.4208 45.1121C39.7308 42.0001 40.7808 39.3451 39.8558 38.4201C38.5288 37.0921 33.6528 39.8181 28.9648 44.5051C24.2768 49.1941 22.8788 55.3961 22.8788 55.3961C22.8788 55.3961 24.1708 55.1011 26.0138 54.3431C23.7158 57.6791 22.7148 60.9931 22.4548 61.9731C23.4338 61.7121 26.7478 60.7121 30.0838 58.4141C29.3258 60.2571 29.0308 61.5481 29.0308 61.5481C29.0308 61.5481 35.2348 60.1511 39.9218 55.4631C44.6108 50.7751 47.3348 45.8991 46.0078 44.5721Z" fill="#FD8C7F"/>
<path id="Fill 6" fill-rule="evenodd" clip-rule="evenodd" d="M55.831 46.6486L41.691 60.7886L23.634 42.7306L37.773 28.5916C45.354 21.0126 54.956 17.0676 61.947 15.0586C63.017 14.7476 64.022 14.4836 64.956 14.2616C68.809 13.3456 71.323 13.0996 71.323 13.0996C71.323 13.0996 70.947 16.9836 69.364 22.4756C67.355 29.4666 63.41 39.0696 55.831 46.6486Z" fill="#EF893A"/>
<path id="Fill 8" fill-rule="evenodd" clip-rule="evenodd" d="M55.831 46.6486L41.691 60.7886L37.677 56.7736C32.778 50.1156 37.357 36.4536 48.474 25.3366C52.877 20.9336 57.678 17.5586 62.285 15.3956C63.184 14.9696 64.077 14.5946 64.956 14.2616C68.809 13.3456 71.323 13.0996 71.323 13.0996C71.323 13.0996 70.947 16.9836 69.364 22.4756C67.355 29.4666 63.41 39.0696 55.831 46.6486Z" fill="#F3AA43"/>
<path id="Fill 10" fill-rule="evenodd" clip-rule="evenodd" d="M49.0381 44.3171C46.5721 46.7821 42.5751 46.7831 40.1091 44.3181C37.6441 41.8521 37.6441 37.8551 40.1091 35.3891C42.5751 32.9231 46.5731 32.9231 49.0381 35.3891C51.5041 37.8541 51.5031 41.8511 49.0381 44.3171Z" fill="#D5E5E6"/>
<path id="Fill 12" fill-rule="evenodd" clip-rule="evenodd" d="M48.2265 36.1997C46.2125 34.1847 42.9355 34.1857 40.9205 36.1997C38.9065 38.2147 38.9065 41.4917 40.9205 43.5057C42.9355 45.5197 46.2125 45.5207 48.2265 43.5067C50.2415 41.4917 50.2415 38.2137 48.2265 36.1997ZM39.2985 45.1277C36.3895 42.2187 36.3905 37.4867 39.2985 34.5777C42.2085 31.6687 46.9405 31.6687 49.8495 34.5777C52.7575 37.4867 52.7575 42.2197 49.8495 45.1287C46.9405 48.0367 42.2085 48.0367 39.2985 45.1277Z" fill="#C52E25"/>
<path id="Fill 14" fill-rule="evenodd" clip-rule="evenodd" d="M48.2871 41.7714C47.3021 42.7574 45.7021 42.7574 44.7161 41.7714C43.7291 40.7854 43.7301 39.1864 44.7171 38.2004C45.7021 37.2144 47.3011 37.2144 48.2871 38.2004C49.2731 39.1864 49.2731 40.7854 48.2871 41.7714Z" fill="white"/>
<path id="Fill 16" fill-rule="evenodd" clip-rule="evenodd" d="M60.7773 30.7412C58.8183 32.7002 55.6433 32.7002 53.6853 30.7422C51.7273 28.7832 51.7263 25.6082 53.6853 23.6492C55.6443 21.6912 58.8193 21.6912 60.7773 23.6492C62.7363 25.6082 62.7363 28.7832 60.7773 30.7412Z" fill="#D5E5E6"/>
<path id="Fill 18" fill-rule="evenodd" clip-rule="evenodd" d="M60.1328 24.294C58.5328 22.694 55.9298 22.694 54.3298 24.294C52.7298 25.894 52.7298 28.498 54.3298 30.098C55.9298 31.698 58.5328 31.698 60.1338 30.098C61.7338 28.498 61.7338 25.894 60.1328 24.294ZM53.0408 31.386C50.7308 29.076 50.7308 25.316 53.0408 23.005C55.3518 20.695 59.1118 20.695 61.4218 23.005C63.7328 25.317 63.7328 29.076 61.4218 31.386C59.1118 33.696 55.3518 33.697 53.0408 31.386Z" fill="#C52E25"/>
<path id="Fill 20" fill-rule="evenodd" clip-rule="evenodd" d="M60.1816 28.7197C59.3986 29.5027 58.1276 29.5027 57.3436 28.7197C56.5606 27.9357 56.5616 26.6657 57.3446 25.8827C58.1276 25.0997 59.3976 25.0997 60.1806 25.8827C60.9636 26.6657 60.9646 27.9367 60.1816 28.7197Z" fill="white"/>
<path id="Fill 22" fill-rule="evenodd" clip-rule="evenodd" d="M66.2597 19.2626L65.1607 18.1646L74.5567 8.76855L75.6557 9.86655L66.2597 19.2626Z" fill="#B5C5C6"/>
<path id="Fill 24" fill-rule="evenodd" clip-rule="evenodd" d="M76.9355 9.83675C76.2875 10.4857 75.2345 10.4857 74.5855 9.83775C73.9365 9.18775 73.9375 8.13475 74.5855 7.48675C75.2345 6.83775 76.2875 6.83775 76.9365 7.48675C77.5845 8.13575 77.5845 9.18775 76.9355 9.83675Z" fill="#C52E25"/>
<path id="Fill 26" fill-rule="evenodd" clip-rule="evenodd" d="M69.3642 22.4756L61.9472 15.0586C63.0162 14.7486 64.0212 14.4846 64.9562 14.2626C68.8082 13.3456 71.3232 13.1006 71.3232 13.1006C71.3232 13.1006 70.9472 16.9846 69.3642 22.4756Z" fill="#C52E25"/>
<path id="Fill 28" fill-rule="evenodd" clip-rule="evenodd" d="M39.4316 58.5901C38.5686 59.4531 37.1696 59.4531 36.3066 58.5901L25.2026 47.4861C24.3396 46.6231 24.3396 45.2241 25.2026 44.3611C26.0656 43.4981 27.4646 43.4981 28.3276 44.3611L39.4316 55.4661C40.2946 56.3281 40.2936 57.7271 39.4316 58.5901Z" fill="#B5C5C6"/>
<path id="Fill 30" fill-rule="evenodd" clip-rule="evenodd" d="M22.4531 50.0795C22.1481 50.0985 21.8601 50.0515 21.6051 49.9265C21.4541 49.8475 21.3191 49.7505 21.1941 49.6255C19.8101 48.2415 20.2721 44.0835 21.1201 42.3655L25.5421 33.3705C26.4631 31.5035 28.7271 30.7305 30.5981 31.6575C30.9821 31.8465 31.3151 32.0875 31.6021 32.3755C31.8241 32.5965 32.0191 32.8465 32.1721 33.1205C32.8061 34.1805 32.9031 35.5185 32.3151 36.7085L27.8931 45.7045C27.0981 47.3155 24.3801 49.9775 22.4531 50.0795Z" fill="#C52E25"/>
<path id="Fill 32" fill-rule="evenodd" clip-rule="evenodd" d="M22.4531 50.0791C22.2221 50.0241 22.0181 49.9211 21.8431 49.7831C21.8011 49.7501 21.7681 49.7181 21.7311 49.6811C20.3011 48.2501 21.7641 43.8801 23.0461 42.3001L29.3521 34.5131C30.0741 33.6241 31.1111 33.1511 32.1721 33.1201C32.8061 34.1801 32.9031 35.5181 32.3151 36.7081L27.8931 45.7041C27.0981 47.3151 24.3801 49.9771 22.4531 50.0791Z" fill="#D53D33"/>
<path id="Fill 34" fill-rule="evenodd" clip-rule="evenodd" d="M33.416 61.0419C33.397 61.3479 33.443 61.6339 33.568 61.8889C33.647 62.0419 33.745 62.1759 33.87 62.3009C35.254 63.6859 39.412 63.2229 41.129 62.3749L50.126 57.9539C51.991 57.0319 52.765 54.7679 51.839 52.8979C51.648 52.5129 51.407 52.1809 51.121 51.8939C50.898 51.6709 50.648 51.4759 50.375 51.3229C49.315 50.6899 47.977 50.5919 46.787 51.1799L37.791 55.6019C36.18 56.3989 33.518 59.1159 33.416 61.0419Z" fill="#C52E25"/>
<path id="Fill 36" fill-rule="evenodd" clip-rule="evenodd" d="M33.416 61.0419C33.472 61.2739 33.573 61.4769 33.712 61.6529C33.744 61.6939 33.777 61.7269 33.814 61.7639C35.245 63.1949 39.615 61.7319 41.194 60.4489L48.981 54.1429C49.871 53.4209 50.343 52.3839 50.375 51.3229C49.315 50.6899 47.977 50.5919 46.787 51.1799L37.791 55.6019C36.18 56.3989 33.518 59.1159 33.416 61.0419Z" fill="#D53D33"/>
<path id="Fill 38" fill-rule="evenodd" clip-rule="evenodd" d="M32.0469 56.8213L32.0009 56.8673C30.7919 58.0753 27.3659 59.6963 26.1619 58.5383C26.1159 58.4923 26.0689 58.4463 26.0319 58.3903C25.0689 57.0943 26.5139 53.7603 27.6389 52.5893L33.2499 46.7373L33.2919 46.6953C34.4629 45.5233 36.3619 45.4953 37.5699 46.6493C37.6029 46.6813 37.6399 46.7183 37.6669 46.7553C38.7829 47.9263 38.7979 49.7833 37.6579 50.9693L32.0469 56.8213Z" fill="#C52E25"/>
<path id="Fill 40" fill-rule="evenodd" clip-rule="evenodd" d="M32.0469 56.8209L32.0009 56.8669C30.7919 58.0749 27.3659 59.6959 26.1619 58.5379C26.1159 58.4919 26.0689 58.4459 26.0319 58.3899L37.6669 46.7549C38.7829 47.9259 38.7979 49.7829 37.6579 50.9689L32.0469 56.8209Z" fill="#D53D33"/>
</g>
</g>
</svg>
