<svg width="76" height="76" viewBox="0 0 76 76" fill="none" xmlns="http://www.w3.org/2000/svg">
<mask id="mask0_0_6306" style="mask-type:luminance" maskUnits="userSpaceOnUse" x="0" y="0" width="76" height="76">
<path fill-rule="evenodd" clip-rule="evenodd" d="M0 0H76V75.9994H0V0Z" fill="white"/>
</mask>
<g mask="url(#mask0_0_6306)">
<path fill-rule="evenodd" clip-rule="evenodd" d="M76 38.0003C76 58.9861 58.9872 75.9994 37.9997 75.9994C17.0133 75.9994 0 58.9861 0 38.0003C0 17.0139 17.0133 0 37.9997 0C58.9872 0 76 17.0139 76 38.0003" fill="#0092B7"/>
</g>
<path fill-rule="evenodd" clip-rule="evenodd" d="M47.5019 25.403C47.5019 30.6504 43.2454 34.9041 38.0008 34.9041C32.7516 34.9041 28.4991 30.6504 28.4991 25.403C28.4991 20.1572 32.7516 15.9048 38.0008 15.9048C43.2454 15.9048 47.5019 20.1572 47.5019 25.403" fill="#F18322"/>
<path fill-rule="evenodd" clip-rule="evenodd" d="M46.6592 25.4029C46.6592 30.1862 42.7798 34.061 38.0006 34.061C33.2173 34.061 29.3413 30.1862 29.3413 25.4029C29.3413 20.622 33.2173 16.7466 38.0006 16.7466C42.7798 16.7466 46.6592 20.622 46.6592 25.4029" fill="#FDC518"/>
<path fill-rule="evenodd" clip-rule="evenodd" d="M40.6053 27.9042C40.6053 28.7437 39.7886 29.4505 38.6808 29.6604V26.1486C39.7851 26.3579 40.6012 27.063 40.6053 27.9007V27.9042ZM35.4093 22.7158C35.518 21.9599 36.2961 21.3396 37.3227 21.1455V24.659C36.212 24.4486 35.3958 23.7418 35.3958 22.9011C35.3958 22.8403 35.3982 22.7772 35.4093 22.7158V22.7158ZM38.6808 24.7713V21.1455C39.7886 21.356 40.6053 22.0628 40.6053 22.9011C40.6053 23.2764 40.9099 23.5804 41.2858 23.5804C41.6576 23.5804 41.9657 23.2764 41.9657 22.9011C41.9657 21.3338 40.5445 20.0289 38.6808 19.7693V19.5934C38.6808 19.2198 38.375 18.9141 38.0009 18.9141C37.6267 18.9141 37.3227 19.2198 37.3227 19.5934V19.7693C35.7156 19.9915 34.4412 20.9906 34.115 22.2615C34.0635 22.4703 34.0337 22.683 34.0337 22.9011C34.0337 24.4708 35.4549 25.7774 37.3227 26.0364V29.6615C36.212 29.4505 35.3958 28.7443 35.3958 27.9042C35.3958 27.5306 35.0901 27.2237 34.7159 27.2237C34.3389 27.2237 34.0337 27.5306 34.0337 27.9042C34.0337 29.4733 35.4549 30.7787 37.3227 31.0383V31.2137C37.3227 31.5878 37.6267 31.8936 38.0009 31.8936C38.375 31.8936 38.6808 31.5878 38.6808 31.2137V31.0383C40.5445 30.7805 41.9657 29.4739 41.9657 27.906C41.9657 26.3369 40.5445 25.0291 38.6808 24.7713V24.7713Z" fill="#F18322"/>
<path fill-rule="evenodd" clip-rule="evenodd" d="M21.8242 25.4033C21.8242 28.4959 19.3168 31.0021 16.2265 31.0021C13.1322 31.0021 10.6265 28.4959 10.6265 25.4033C10.6265 22.3113 13.1322 19.8057 16.2265 19.8057C19.3168 19.8057 21.8242 22.3113 21.8242 25.4033" fill="#F18322"/>
<path fill-rule="evenodd" clip-rule="evenodd" d="M21.3275 25.4036C21.3275 28.222 19.0422 30.506 16.2262 30.506C13.4066 30.506 11.1213 28.222 11.1213 25.4036C11.1213 22.5857 13.4066 20.3022 16.2262 20.3022C19.0422 20.3022 21.3275 22.5857 21.3275 25.4036" fill="#FDC518"/>
<path fill-rule="evenodd" clip-rule="evenodd" d="M17.7616 26.8778C17.7616 27.373 17.2793 27.7898 16.6263 27.9132V25.8431C17.2775 25.9664 17.7586 26.3815 17.7616 26.8761V26.8778ZM14.6982 23.8203C14.7625 23.3742 15.2203 23.0089 15.8248 22.8949V24.965C15.1712 24.841 14.69 24.4242 14.69 23.929C14.69 23.8934 14.6918 23.856 14.6982 23.8203V23.8203ZM16.6263 25.0322V22.8949C17.2793 23.0182 17.7616 23.435 17.7616 23.929C17.7616 24.1512 17.9393 24.3307 18.1614 24.3307C18.3807 24.3307 18.5625 24.1512 18.5625 23.929C18.5625 23.0054 17.7236 22.2366 16.6263 22.0834V21.9805C16.6263 21.7596 16.4456 21.5801 16.2264 21.5801C16.0042 21.5801 15.8248 21.7596 15.8248 21.9805V22.0834C14.8783 22.2144 14.1276 22.8031 13.9359 23.5526C13.9043 23.6747 13.8879 23.801 13.8879 23.929C13.8879 24.8539 14.7251 25.6238 15.8248 25.777V27.9132C15.1712 27.7898 14.69 27.373 14.69 26.8778C14.69 26.658 14.5094 26.4762 14.289 26.4762C14.0674 26.4762 13.8879 26.658 13.8879 26.8778C13.8879 27.8027 14.7251 28.5714 15.8248 28.7246V28.8275C15.8248 29.0485 16.0042 29.2291 16.2264 29.2291C16.4456 29.2291 16.6263 29.0485 16.6263 28.8275V28.7246C17.7236 28.5726 18.5625 27.8027 18.5625 26.879C18.5625 25.9541 17.7236 25.1836 16.6263 25.0322V25.0322Z" fill="#F18322"/>
<path fill-rule="evenodd" clip-rule="evenodd" d="M65.3748 25.4033C65.3748 28.4959 62.8656 31.0021 59.7754 31.0021C56.681 31.0021 54.1766 28.4959 54.1766 25.4033C54.1766 22.3113 56.681 19.8057 59.7754 19.8057C62.8656 19.8057 65.3748 22.3113 65.3748 25.4033" fill="#F18322"/>
<path fill-rule="evenodd" clip-rule="evenodd" d="M64.8781 25.4036C64.8781 28.222 62.5911 30.506 59.7751 30.506C56.9561 30.506 54.672 28.222 54.672 25.4036C54.672 22.5857 56.9561 20.3022 59.7751 20.3022C62.5911 20.3022 64.8781 22.5857 64.8781 25.4036" fill="#FDC518"/>
<path fill-rule="evenodd" clip-rule="evenodd" d="M61.3105 26.8778C61.3105 27.373 60.8294 27.7898 60.1764 27.9132V25.8431C60.827 25.9664 61.3076 26.3815 61.3105 26.8761V26.8778ZM58.2483 23.8203C58.3115 23.3742 58.7704 23.0089 59.3755 22.8949V24.965C58.7219 24.841 58.2396 24.4242 58.2396 23.929C58.2396 23.8934 58.2419 23.856 58.2483 23.8203V23.8203ZM60.1764 25.0322V22.8949C60.8294 23.0182 61.3105 23.435 61.3105 23.929C61.3105 24.1512 61.49 24.3307 61.711 24.3307C61.9314 24.3307 62.1126 24.1512 62.1126 23.929C62.1126 23.0054 61.2743 22.2366 60.1764 22.0834V21.9805C60.1764 21.7596 59.9963 21.5801 59.7753 21.5801C59.5549 21.5801 59.3755 21.7596 59.3755 21.9805V22.0834C58.429 22.2144 57.6772 22.8031 57.4848 23.5526C57.4538 23.6747 57.4369 23.801 57.4369 23.929C57.4369 24.8539 58.2758 25.6238 59.3755 25.777V27.9132C58.7219 27.7898 58.2396 27.373 58.2396 26.8778C58.2396 26.658 58.0601 26.4762 57.8391 26.4762C57.6181 26.4762 57.4369 26.658 57.4369 26.8778C57.4369 27.8027 58.2758 28.5714 59.3755 28.7246V28.8275C59.3755 29.0485 59.5549 29.2291 59.7753 29.2291C59.9963 29.2291 60.1764 29.0485 60.1764 28.8275V28.7246C61.2743 28.5726 62.1126 27.8027 62.1126 26.879C62.1126 25.9541 61.2743 25.1836 60.1764 25.0322V25.0322Z" fill="#F18322"/>
<path fill-rule="evenodd" clip-rule="evenodd" d="M31.9258 49.2086L34.1555 69.6898C34.1555 69.6898 41.8192 70.275 49.9593 74.0686C51.3063 73.6219 52.6205 73.1022 53.8961 72.5135L60.5729 66.1079C59.6002 62.5143 48.5972 48.5977 48.5972 48.5977L31.9258 49.2086Z" fill="#FB9C1C"/>
<path fill-rule="evenodd" clip-rule="evenodd" d="M36.6981 51.1471L39.9655 51.0904L39.7381 38.4307L36.4713 38.4868L36.6981 51.1471Z" fill="#FC611F"/>
<path fill-rule="evenodd" clip-rule="evenodd" d="M37.6903 13.427C31.1473 13.5275 25.908 18.9293 26.0057 25.4717C26.1068 32.0147 31.5098 37.2551 38.0498 37.1546C44.5934 37.0528 49.8326 31.651 49.7333 25.1081C49.6327 18.5686 44.2297 13.3282 37.6903 13.427M38.0913 39.7906C30.0973 39.9139 23.4918 33.5083 23.3708 25.5132C23.248 17.5186 29.656 10.9125 37.6488 10.7898C45.6433 10.6688 52.2453 17.0749 52.3704 25.0683C52.492 33.0623 46.0853 39.6684 38.0913 39.7906" fill="#FF5F29"/>
<path fill-rule="evenodd" clip-rule="evenodd" d="M36.2391 68.7387L40.9522 68.6598L40.6786 48.0967L35.9614 48.1832L36.2391 68.7387Z" fill="#414042"/>
<path fill-rule="evenodd" clip-rule="evenodd" d="M42.5539 30.3049C40.8515 32.0593 38.7089 33.121 36.4716 33.5109C39.0188 34.1873 41.8378 33.5384 43.8015 31.5133C45.7628 29.4888 46.3293 26.647 45.5711 24.1279C45.2548 26.3746 44.2563 28.5482 42.5539 30.3049" fill="white"/>
<path fill-rule="evenodd" clip-rule="evenodd" d="M36.8602 53.1751C38.3124 53.3013 39.5921 52.2297 39.7201 50.7758C39.8499 49.3207 38.7725 48.0393 37.3203 47.9147L31.7332 47.129C30.281 47.001 29.0013 48.0737 28.8738 49.5283C28.747 50.981 29.8203 52.2613 31.2737 52.3893L36.8602 53.1751Z" fill="#FDC00F"/>
<path fill-rule="evenodd" clip-rule="evenodd" d="M37.2125 58.5472C38.66 58.3549 39.6749 57.0301 39.4837 55.5844C39.2943 54.1369 37.9643 53.1191 36.5197 53.3114L30.8958 53.7581C29.4506 53.9469 28.4334 55.2751 28.624 56.722C28.8169 58.1672 30.144 59.1844 31.5903 58.9956L37.2125 58.5472Z" fill="#FDC00F"/>
<path fill-rule="evenodd" clip-rule="evenodd" d="M38.8504 63.7856C40.2505 63.3764 41.0555 61.9137 40.6481 60.5118C40.2424 59.1117 38.7756 58.3061 37.3748 58.7147L31.8842 60.0055C30.4823 60.4112 29.6784 61.8769 30.0859 63.2805C30.4951 64.6789 31.9602 65.4845 33.3591 65.0776L38.8504 63.7856Z" fill="#FDC00F"/>
<path fill-rule="evenodd" clip-rule="evenodd" d="M39.3802 68.1721C40.5372 67.9067 41.2609 66.755 40.9967 65.5981C40.7312 64.4394 39.5755 63.7162 38.422 63.9816L34.366 65.4993C33.2085 65.7641 32.4836 66.9152 32.7507 68.0745C33.0161 69.2314 34.1684 69.954 35.3248 69.6898L39.3802 68.1721Z" fill="#FDC00F"/>
<path fill-rule="evenodd" clip-rule="evenodd" d="M43.0831 47.636L39.907 46.6416L37.541 49.1081C36.5501 50.1475 35.2587 50.5158 34.2245 49.5237C33.1863 48.5334 33.15 46.8877 34.1433 45.853L37.3177 42.5324C37.3177 42.5324 37.6679 42.1079 39.1049 41.9185C40.9271 41.6777 48.7241 44.7977 48.7241 44.7977C49.4308 45.1853 49.8763 45.8553 50.0166 46.5872C50.0453 46.6615 50.0839 46.727 50.1049 46.8053L54.282 55.8574C54.4977 56.5829 54.4667 57.3219 54.2463 57.9901C54.0639 61.1207 51.0625 64.1378 48.5253 64.8838C45.0241 65.9145 43.4631 64.6494 42.1092 60.0368C40.8125 55.6318 43.0738 47.7775 43.0831 47.636" fill="#FDC00F"/>
<path fill-rule="evenodd" clip-rule="evenodd" d="M43.0831 47.636L39.907 46.6416L37.541 49.1081C36.5501 50.1475 35.2587 50.5158 34.2245 49.5237C33.1863 48.5334 33.15 46.8877 34.1433 45.853L37.3177 42.5324C37.3177 42.5324 37.6679 42.1079 39.1049 41.9185C40.9271 41.6777 48.7241 44.7977 48.7241 44.7977C49.4308 45.1853 49.8763 45.8553 50.0166 46.5872C50.0453 46.6615 50.0839 46.727 50.1049 46.8053L54.282 55.8574C54.4977 56.5829 54.4667 57.3219 54.2463 57.9901C54.0639 61.1207 51.0625 64.1378 48.5253 64.8838C45.0241 65.9145 43.4631 64.6494 42.1092 60.0368C40.8125 55.6318 43.0738 47.7775 43.0831 47.636" fill="#FDC00F"/>
<path fill-rule="evenodd" clip-rule="evenodd" d="M47.7526 74.1617L46.2607 72.6704L57.9055 61.0249L59.3975 62.5168L47.7526 74.1617Z" fill="white"/>
<path fill-rule="evenodd" clip-rule="evenodd" d="M59.1856 61.8535L47.0672 73.9719L47.8091 74.7144C53.7335 73.1353 59.0897 70.1667 63.5018 66.1703L59.1856 61.8535Z" fill="#14B0BF"/>
</svg>
