<svg width="78" height="78" viewBox="0 0 78 78" fill="none" xmlns="http://www.w3.org/2000/svg">
<mask id="mask0_0_6425" style="mask-type:luminance" maskUnits="userSpaceOnUse" x="0" y="0" width="78" height="78">
<path fill-rule="evenodd" clip-rule="evenodd" d="M0 0H78V77.9995H0V0Z" fill="white"/>
</mask>
<g mask="url(#mask0_0_6425)">
<path fill-rule="evenodd" clip-rule="evenodd" d="M78 38.9998C78 60.5389 60.5382 77.9996 38.9996 77.9996C17.4611 77.9996 -0.000183105 60.5389 -0.000183105 38.9998C-0.000183105 17.4607 17.4611 0 38.9996 0C60.5382 0 78 17.4607 78 38.9998" fill="#0092B7"/>
</g>
<mask id="mask1_0_6425" style="mask-type:luminance" maskUnits="userSpaceOnUse" x="3" y="3" width="72" height="73">
<path fill-rule="evenodd" clip-rule="evenodd" d="M3.0174 39.0675C3.0174 58.9394 19.1269 75.05 38.9998 75.05V75.05C58.8728 75.05 74.9823 58.9394 74.9823 39.0675V39.0675C74.9823 19.1946 58.8728 3.08398 38.9998 3.08398V3.08398C19.1269 3.08398 3.0174 19.1946 3.0174 39.0675" fill="white"/>
</mask>
<g mask="url(#mask1_0_6425)">
<path fill-rule="evenodd" clip-rule="evenodd" d="M76.1511 52.2396L75.8916 51.9801C75.8763 51.9647 75.8576 51.9543 75.8412 51.9384L76.1972 51.5823L64.8546 40.2403C64.6648 39.6171 64.3433 39.0251 63.849 38.5314L63.7881 38.4705C66.484 33.607 66.2536 27.563 63.0886 22.9063V19.4616H59.831C54.5001 15.3585 47.0417 15.3585 41.7108 19.4616H38.9793V22.1904C34.8658 27.5256 34.8658 34.9956 38.9793 40.3303V43.5715H42.4076C46.9978 46.6958 52.9398 46.9762 57.7687 44.4026L57.8735 44.5074C58.3662 45.0006 58.9587 45.3238 59.5825 45.513L70.9245 56.8556L71.2811 56.4996C71.2959 56.5155 71.3052 56.5341 71.3211 56.55L71.5823 56.8095C72.7722 57.9995 74.7011 57.9995 75.8916 56.8095L76.1511 56.55C77.3411 55.3595 77.3411 53.4301 76.1511 52.2396" fill="#D8A535"/>
</g>
<mask id="mask2_0_6425" style="mask-type:luminance" maskUnits="userSpaceOnUse" x="3" y="3" width="72" height="73">
<path fill-rule="evenodd" clip-rule="evenodd" d="M3.0174 39.0675C3.0174 58.9394 19.1269 75.05 38.9998 75.05V75.05C58.8728 75.05 74.9823 58.9394 74.9823 39.0675V39.0675C74.9823 19.1946 58.8728 3.08398 38.9998 3.08398V3.08398C19.1269 3.08398 3.0174 19.1946 3.0174 39.0675V39.0675Z" fill="white"/>
</mask>
<g mask="url(#mask2_0_6425)">
<path fill-rule="evenodd" clip-rule="evenodd" d="M62.1331 84.8737L17.7251 84.9407L17.6417 27.4356L62.0498 27.3687L62.1331 84.8737Z" fill="#D8A535"/>
</g>
<mask id="mask3_0_6425" style="mask-type:luminance" maskUnits="userSpaceOnUse" x="3" y="3" width="72" height="73">
<path fill-rule="evenodd" clip-rule="evenodd" d="M3.0174 39.0675C3.0174 58.9394 19.1269 75.05 38.9998 75.05V75.05C58.8728 75.05 74.9823 58.9394 74.9823 39.0675V39.0675C74.9823 19.1946 58.8728 3.08398 38.9998 3.08398V3.08398C19.1269 3.08398 3.0174 19.1946 3.0174 39.0675V39.0675Z" fill="white"/>
</mask>
<g mask="url(#mask3_0_6425)">
<path fill-rule="evenodd" clip-rule="evenodd" d="M58.8977 78.5397L14.4885 78.6061L14.4062 21.1016L58.8132 21.0347L58.8977 78.5397Z" fill="#D3D3D3"/>
</g>
<mask id="mask4_0_6425" style="mask-type:luminance" maskUnits="userSpaceOnUse" x="3" y="3" width="72" height="73">
<path fill-rule="evenodd" clip-rule="evenodd" d="M3.0174 39.0675C3.0174 58.9394 19.1269 75.05 38.9998 75.05V75.05C58.8728 75.05 74.9823 58.9394 74.9823 39.0675V39.0675C74.9823 19.1946 58.8728 3.08398 38.9998 3.08398V3.08398C19.1269 3.08398 3.0174 19.1946 3.0174 39.0675V39.0675Z" fill="white"/>
</mask>
<g mask="url(#mask4_0_6425)">
<path fill-rule="evenodd" clip-rule="evenodd" d="M55.1554 82.2825L10.7474 82.3484L10.664 24.8433L55.0715 24.7764L55.1554 82.2825Z" fill="white"/>
</g>
<mask id="mask5_0_6425" style="mask-type:luminance" maskUnits="userSpaceOnUse" x="3" y="3" width="72" height="73">
<path fill-rule="evenodd" clip-rule="evenodd" d="M3.0174 39.0675C3.0174 58.9394 19.1269 75.05 38.9998 75.05V75.05C58.8728 75.05 74.9823 58.9394 74.9823 39.0675V39.0675C74.9823 19.1946 58.8728 3.08398 38.9998 3.08398V3.08398C19.1269 3.08398 3.0174 19.1946 3.0174 39.0675" fill="white"/>
</mask>
<g mask="url(#mask5_0_6425)">
<path fill-rule="evenodd" clip-rule="evenodd" d="M50.1638 40.2607C50.1638 44.6014 46.6456 48.1191 42.3055 48.1191H24.5935C20.2534 48.1191 16.7346 44.6014 16.7346 40.2607C16.7346 35.9207 20.2534 32.4019 24.5935 32.4019H42.3055C46.6456 32.4019 50.1638 35.9207 50.1638 40.2607" fill="#D3D3D3"/>
</g>
<mask id="mask6_0_6425" style="mask-type:luminance" maskUnits="userSpaceOnUse" x="3" y="3" width="72" height="73">
<path fill-rule="evenodd" clip-rule="evenodd" d="M3.0174 39.0675C3.0174 58.9394 19.1269 75.05 38.9998 75.05V75.05C58.8728 75.05 74.9823 58.9394 74.9823 39.0675V39.0675C74.9823 19.1946 58.8728 3.08398 38.9998 3.08398V3.08398C19.1269 3.08398 3.0174 19.1946 3.0174 39.0675V39.0675Z" fill="white"/>
</mask>
<g mask="url(#mask6_0_6425)">
<path fill-rule="evenodd" clip-rule="evenodd" d="M18.2321 59.9863H47.9192V54.605H18.2321V59.9863Z" fill="#D3D3D3"/>
<path fill-rule="evenodd" clip-rule="evenodd" d="M18.2321 70.0034H47.9192V64.6221H18.2321V70.0034Z" fill="#D3D3D3"/>
<path fill-rule="evenodd" clip-rule="evenodd" d="M24.9389 45.1931C26.3362 42.7709 27.0768 39.6236 27.7955 36.9419H25.6307C27.0318 41.1855 28.3041 45.4778 29.8731 49.6648C30.222 50.5964 31.8251 50.8657 32.0374 49.6648C33.1341 43.4809 34.4469 37.3402 35.7789 31.204H33.6141C35.0147 37.8159 35.5529 44.5814 37.1071 51.1614C37.314 52.0376 38.7705 52.3448 39.1573 51.4303C40.8986 47.314 42.5 43.1413 44.012 38.9378C44.5041 37.5717 42.3343 36.9891 41.8471 38.3403C40.4005 42.3606 38.8841 46.3605 37.2196 50.2963C37.9043 50.3862 38.5873 50.4757 39.2714 50.5645C37.7177 43.9839 37.1801 37.2195 35.7789 30.6066C35.5518 29.5285 33.8467 29.5346 33.6141 30.6066C32.2826 36.7433 30.9687 42.8845 29.8731 49.0674H32.0374C30.4684 44.8809 29.1983 40.5891 27.7955 36.3445C27.457 35.318 25.9297 35.2297 25.6307 36.3445C24.963 38.8319 24.2943 41.818 23.0012 44.0602C22.2754 45.316 24.2158 46.4467 24.9389 45.1931" fill="white"/>
<mask id="mask7_0_6425" style="mask-type:luminance" maskUnits="userSpaceOnUse" x="40" y="17" width="24" height="24">
<path fill-rule="evenodd" clip-rule="evenodd" d="M40.0231 17.1528H63.7587V40.8894H40.0231V17.1528Z" fill="white"/>
</mask>
<g mask="url(#mask7_0_6425)">
<path fill-rule="evenodd" clip-rule="evenodd" d="M60.6014 20.684C65.3091 25.3911 65.3091 33.0239 60.6014 37.7327C55.8943 42.4392 48.2609 42.4392 43.5538 37.7327C38.8462 33.0239 38.8462 25.3911 43.5538 20.684C48.2609 15.9758 55.8943 15.9758 60.6014 20.684" fill="#EAEAE9"/>
</g>
<path fill-rule="evenodd" clip-rule="evenodd" d="M76.8209 49.5581C78.0113 50.7481 78.0113 52.6775 76.8209 53.868L76.5625 54.1275C75.372 55.318 73.4425 55.318 72.252 54.1275L71.9914 53.868C70.802 52.6775 70.802 50.7481 71.9914 49.5581L72.252 49.2986C73.4425 48.1081 75.372 48.1081 76.5625 49.2986L76.8209 49.5581Z" fill="#C93831"/>
<path fill-rule="evenodd" clip-rule="evenodd" d="M59.3 36.4375C54.9594 40.7781 47.9229 40.7781 43.5834 36.4375C39.2416 32.0969 39.2422 25.0598 43.5834 20.7203C47.9229 16.3791 54.9594 16.3785 59.3 20.7203C63.6407 25.0598 63.6407 32.0969 59.3 36.4375M40.9127 18.0496C35.0985 23.8644 35.0985 33.2923 40.9127 39.107C46.7275 44.9218 56.1559 44.9218 61.9696 39.107C67.7849 33.2923 67.7849 23.8644 61.9696 18.0496C56.1559 12.2354 46.7275 12.2354 40.9127 18.0496" fill="#E74C3C"/>
<path fill-rule="evenodd" clip-rule="evenodd" d="M76.868 48.9002L71.5953 54.1735L59.2921 41.8703L64.5648 36.5981L76.868 48.9002Z" fill="#E74C3C"/>
<path fill-rule="evenodd" clip-rule="evenodd" d="M64.5188 35.8498C66.1219 37.4517 66.1219 40.0483 64.5188 41.6502L64.3444 41.8258C62.743 43.4277 60.1453 43.4277 58.5439 41.8258L58.3672 41.6502C56.7669 40.0483 56.7669 37.4517 58.3672 35.8498L58.5439 35.6742C60.1453 34.0728 62.743 34.0728 64.3444 35.6742L64.5188 35.8498Z" fill="#C93831"/>
</g>
</svg>
