<svg width="20" height="21" viewBox="0 0 20 21" fill="none" xmlns="http://www.w3.org/2000/svg">
<path d="M10 1.40906C6.06365 1.40906 2.86365 4.59997 2.86365 8.54542C2.86365 10.9727 4.09092 13.1 5.93638 14.4091C7.61819 15.6 7.99092 15.8909 8.58183 17.0181C9.04547 17.9091 9.8091 19.4818 9.8091 19.4818C9.84547 19.5454 9.91819 19.5909 10 19.5909C10.0818 19.5909 10.1546 19.5454 10.1909 19.4727C10.1909 19.4727 10.9455 17.9091 11.4182 17.0091C12.0091 15.8818 12.3818 15.6 14.0637 14.4C15.9091 13.0909 17.1364 10.9636 17.1364 8.53633C17.1364 4.59997 13.9364 1.40906 10 1.40906ZM10 13.3181C7.36365 13.3181 5.21819 11.1818 5.21819 8.53633C5.21819 5.89997 7.35456 3.75451 10 3.75451C12.6364 3.75451 14.7818 5.89088 14.7818 8.53633C14.7818 11.1818 12.6364 13.3181 10 13.3181Z" fill="black"/>
</svg>
