<?xml version="1.0" encoding="UTF-8"?><svg id="Layer_2" xmlns="http://www.w3.org/2000/svg" xmlns:xlink="http://www.w3.org/1999/xlink" viewBox="0 0 987.1 74"><defs><style>.cls-1{fill:url(#linear-gradient);}.cls-1,.cls-2,.cls-3,.cls-4{stroke-width:0px;}.cls-5{fill:none;stroke:#221714;stroke-miterlimit:10;stroke-width:.43px;}.cls-2{fill:url(#linear-gradient-2);}.cls-3{fill:url(#linear-gradient-3);}</style><linearGradient id="linear-gradient" x1="252.12" y1="38.2" x2="301.23" y2="38.2" gradientTransform="translate(0 74) scale(1 -1)" gradientUnits="userSpaceOnUse"><stop offset="0" stop-color="#b07908"/><stop offset=".08" stop-color="#c19325"/><stop offset=".22" stop-color="#ddbd53"/><stop offset=".33" stop-color="#eed66f"/><stop offset=".4" stop-color="#f4e07a"/><stop offset=".44" stop-color="#efd873"/><stop offset=".68" stop-color="#d5b354"/><stop offset=".88" stop-color="#c69c41"/><stop offset="1" stop-color="#c0943a"/></linearGradient><linearGradient id="linear-gradient-2" x1="748.8" y1="32.25" x2="767.3" y2="32.25" gradientTransform="matrix(1,0,0,1,0,0)" xlink:href="#linear-gradient"/><linearGradient id="linear-gradient-3" x1="795.8" y1="32.25" x2="814.3" y2="32.25" gradientTransform="matrix(1,0,0,1,0,0)" xlink:href="#linear-gradient"/></defs><g id="Layer_2-2"><path class="cls-4" d="m417.5,44.2c-.1.3-.4.5-1.2.6,2.7,3.8,7.6,7.1,12.8,9.4l-.1.4c-.9.2-1.6.9-1.8,1.6-4.8-2.6-9.3-6.6-11.4-11-2.8,4.4-8.7,9.5-14.2,12.1l-.3-.4c5-3,11-9.2,12.6-13.5l3.6.8h0Zm8,22.5s1.7,1.3,2.7,2.2c-.1.3-.4.4-.8.4h-24.9l-.3-.8h11.8v-6.3h-7.7l-.2-.8h8v-5.6h-7.3l-.2-.9h13.8l1.4-1.6s1.5,1.1,2.5,2c-.1.3-.4.5-.8.5h-7.4v5.6h5.2l1.5-1.7s1.6,1.2,2.6,2.1c-.1.3-.4.4-.8.4h-8.4v6.3h8l1.3-1.8h0Z"/><path class="cls-4" d="m454.1,49.7l2.4,1.8c-.2.2-.6.5-1.2.6v8.5c0,.2-1.1.7-1.7.7h-.3v-2h-15.5c-.3,3.9-1.6,8.2-5.9,11.2l-.4-.3c3.8-4,4.4-9,4.4-13.7v-6.7l2.4,1h14.7l1.1-1.1h0Zm1.7-5.6s1.7,1.3,2.7,2.2c-.1.3-.4.5-.8.5h-24.9l-.3-.9h21.7l1.6-1.8h0Zm-2.5,14.4v-6.7h-15.4v4.7c0,.6,0,1.3-.1,2h15.5Z"/><path class="cls-4" d="m484.4,55.5v6.1h1.3l1.3-1.8s1.5,1.2,2.4,2.2c-.1.3-.3.4-.7.4h-25.9l-.2-.8h4.6v-6.1h-4.5l-.2-.8h4.8v-5.5c-1.4,1.4-2.9,2.6-4.3,3.4l-.4-.3c2.2-2,4.6-5.3,6.1-8.9l2.9,1.4c-.2.3-.6.5-1.2.4-.5.8-1,1.6-1.6,2.3l.5.2h15.7l1.4-1.8s1.6,1.3,2.5,2.2c-.1.3-.4.5-.8.5h-3.6v6.1h1.4l1.3-1.8s1.6,1.2,2.5,2.1c-.1.3-.3.5-.7.5h-4.6Zm-17,8.1c.6,3.6-1.1,5.7-2.5,6.5-.8.5-1.9.6-2.2-.1-.2-.6.1-1.2.8-1.5,1.5-.7,3.3-2.4,3.5-4.9-.1,0,.4,0,.4,0Zm1.4-8.9h3.2v-6.1h-3.2v6.1Zm0,6.9h3.2v-6.1h-3.2v6.1Zm2.5,2.3c4.4,3.8,2.2,7.8.6,5.9.2-1.9-.4-4.2-1-5.8l.4-.1Zm2.5-15.3v6.1h3.5v-6.1h-3.5Zm0,6.9v6.1h3.5v-6.1h-3.5Zm3,8.3c6,3.2,4.3,7.5,2.5,5.9-.2-1.8-1.6-4.2-2.8-5.7l.3-.2h0Zm2.3-15.2v6.1h3.4v-6.1h-3.4Zm3.4,6.9h-3.4v6.1h3.4v-6.1Zm0,8c8.4,2.9,7.1,8.3,4.7,6.7-.6-2.2-3-4.9-5.1-6.5.1.1.4-.2.4-.2Z"/><path class="cls-4" d="m502.7,59.7c-2,1.3-4.8,3.2-8.5,5.5-.1.3-.3.7-.6.8l-1.2-2.4c.9-.3,2.4-.9,4.2-1.7v-9.3h-3.6l-.2-.9h3.7v-7.7l3,.3c-.1.4-.4.7-1.1.8v6.6h1.2l1.2-1.7s1.4,1.2,2.3,2.2c-.1.3-.4.4-.8.4h-4v8.5c1.3-.6,2.7-1.2,4.1-1.8.1,0,.3.4.3.4Zm14.6-9.1s1.6,1.3,2.6,2.2c-.1.3-.3.5-.8.5h-13.8v1.1c0,5.2-.6,11.5-6.5,15.8l-.4-.4c4.4-4.4,5.1-9.9,5.1-15.4v-8.4l2.5.9c3.8-.8,7.8-2,10.1-3l2.5,2.3c-.3.2-.9.2-1.6,0-3,.7-7.5,1.3-11.6,1.5v4.8h10.5l1.4-1.9h0Zm-.5,6.5l2.4,1.9c-.2.3-.7.5-1.3.6v10c0,.2-.9.7-1.6.7h-.3v-2.6h-8v2.2c0,.2-.7.7-1.5.7h-.3v-13l2,.9h7.5l1.1-1.4h0Zm-.8,9.7v-7.5h-8v7.5h8Z"/><path class="cls-4" d="m530.5,54.2c6.5,2.5,4.9,6.6,2.9,5.2-.4-1.5-1.7-3.4-2.9-4.6v15.1c0,.2-.8.7-1.5.7h-.4v-14.3c-1.3,3-3.2,5.8-5.5,8.1l-.4-.4c2.7-3.5,4.5-8.2,5.5-12.8h-4.6l-.2-.9h5.3v-6.8l3,.3c-.1.4-.3.7-1.1.8v5.6h1.8l1.3-1.7s1.5,1.2,2.4,2.1c-.1.3-.3.5-.7.5h-4.8l-.1,3.1h0Zm17.4-5.7s1.5,1.3,2.4,2.1c-.1.3-.3.5-.7.5h-4.1v16.5c0,1.6-.3,2.5-3.3,2.8-.1-.6-.3-1-.7-1.2-.5-.3-1.3-.5-2.9-.7v-.5s3.5.3,4.2.3c.6,0,.8-.2.8-.7v-13c-2.4,4.4-5.9,8.3-10.3,11.2l-.3-.4c4.5-3.6,8-9,9.9-14.2h-6.2l-.2-.9h7.3v-6.8l3,.3c-.1.4-.3.7-1.1.8v5.6h1.2l1-1.7h0Z"/><path class="cls-4" d="m557.9,50c1.7,0,11.1-1,12.5-1.3.8-.2,1.2-.7,1.7-.7.9,0,2.9,1.5,2.9,2.4,0,.7-.9,1.2-1.4,2.1-3.1,7.3-8.4,12.9-17.1,16.2l-.4-.7c8.4-4.2,13.9-10.6,15.7-17.5.1-.4-.1-.5-.3-.5-1.3,0-9.7,1.2-11.4,1.6-.8.2-1.5.8-2,.8-.9,0-2.3-1.4-2.6-2.2-.2-.4-.2-.9-.3-1.7l.6-.2c.4.8,1.1,1.7,2.1,1.7h0Z"/><path class="cls-4" d="m595.5,50.5c1-.1,1.2-.7,1.7-.7.7,0,2.8,1.7,2.8,2.4s-.9.9-1.1,1.7c-.3,1.3-.9,5.3-1.5,8.5,1.1.1,1.8.5,1.8,1.1,0,.5-.2.9-.9.9s-2.2-.2-3.6-.2c-2.3,0-6.3.2-9.8.4v1.2c0,.7-.3,1.1-.9,1.1s-1.2-.8-1.2-2c0-.6.1-2.4.1-3.7,0-2.2-.4-6.4-.8-8.2-.3-1.1-.8-1.7-1.6-2.5l.4-.5c1.2.3,2.2.7,3.2,1.5,3-.3,10.3-.9,11.4-1h0Zm.1,11.7c.6-3.4,1.2-8.3,1.2-10,0-.2-.1-.3-.3-.3-1.9,0-6.8.4-8.5.6-1,.1-1.8.4-2.3.4-.3,0-.8-.2-1.2-.4.1,1.8.3,7.2.5,10.4,3.1-.2,7.8-.5,10.6-.7Z"/><path class="cls-4" d="m607.5,55.8c.7,1,1.1,1.9,2.4,1.9,2.6,0,13-.7,14.3-.7,2-.2,2.8-.3,3.6-.3,1.1,0,2.5.5,2.5,1.3,0,.5-.3.9-1.3.9s-2.1-.1-3.9-.1-10.2.4-12.4.7c-1.7.2-2,.6-2.9.6s-2.2-1.5-2.6-2.5c-.2-.6-.2-1.1-.3-1.7l.6-.1h0Z"/><path class="cls-4" d="m637,48.6v-.6c.6-.2,1.2-.3,1.7-.3,1.1,0,2.9,1.1,2.9,1.8,0,.6-.3.9-.4,2-.1,1.3,0,7.8,0,9,0,1.1-.4,1.5-.9,1.5-.7,0-1.2-.9-1.2-2,0-.8.2-2,.3-4.4,0-1.4-.1-4.2-.2-5.3-.1-.7-.1-.9-.6-1.2s-1-.4-1.6-.5h0Zm3.4,21.3l-.4-.7c5.8-3,8.5-7,8.9-13,.2-2.7.2-5.2.1-7.2-.1-.5-.1-.9-.7-1.2-.3-.2-1-.3-1.8-.4v-.6c.7-.3,1.5-.6,2-.6,1.1,0,3.1,1.2,3.1,1.8s-.5.8-.6,1.7c-.1,1.7-.2,4.7-.3,6.5-.2,6.9-3.6,11.2-10.3,13.7h0Z"/><path class="cls-4" d="m681,50.9l.7.4c-3.5,6.3-9,11-15.5,15.1-.6.3-.9,1.1-1.6,1.1-1.2,0-2.9-1.4-3.5-2.3-.3-.5-.6-1.4-.6-1.9l.5-.3c.9,1,1.8,1.9,2.8,1.9,2.2,0,13-7.8,17.2-14h0Zm-19.8-2.8c3.4.9,7.4,3,7.4,5.2,0,.7-.4,1.1-1,1.1-.5,0-.9-.3-1.6-1.2-1.4-1.7-2.5-2.7-5.1-4.5l.3-.6h0Z"/><path class="cls-4" d="m692.2,45.9c.5,0,1.1,0,1.8.1,1.2.3,2.7,1.2,2.7,1.7s-.4.8-.9,1.5c-.3.5-.7,1.1-1,1.6h.6c1.4,0,5-.4,5.9-.6.8-.2,1-.7,1.5-.7.7,0,2.6,1.2,2.6,2,0,.6-1,.8-1.4,1.5-4,7.3-10,13.4-18.3,16.9l-.4-.7c7.6-3.9,14.5-11.6,16.8-17.4.2-.3,0-.4-.2-.4-.7,0-3.7.5-4.7.7-.6.2-1.2.4-1.7.4-.3,0-.8-.3-1.3-.7-2.3,3.1-5.3,5.8-8.7,7.7l-.4-.6c4.6-3.3,8.9-9.3,8.9-11,0-.5-.8-1-1.8-1.4v-.6h0Zm11.1.4c1.5.6,2.7,1.2,3.4,1.9s1,1.2,1,1.8c0,.5-.3.8-.7.8s-.8-.7-1.4-1.4c-.6-.7-1.4-1.7-2.7-2.6l.4-.5h0Zm2.5-1.9c1.5.5,2.6,1.2,3.4,1.7.8.6,1.1,1.2,1.1,1.8,0,.5-.3.8-.7.8-.5,0-.8-.7-1.5-1.4s-1.4-1.4-2.7-2.4l.4-.5h0Z"/><path class="cls-5" d="m378,21.8v52.2"/><path class="cls-5" d="m736.3,21.8v52.2"/><path class="cls-4" d="m109.1,57.2c2.8,13.2-5.1,11.8-2.8,8.3,1.3-1.5,2.1-4.5,2.1-8.3-.1,0,.7,0,.7,0Zm18.6-4.5c-.3.4-.9.6-1.8.7-.5,9.2-1.7,13.9-3.6,15.5-1.1,1-2.6,1.3-4.2,1.3,0-.8-.1-1.5-.6-1.9s-1.7-.8-2.9-1v-.8c1.4.1,3.6.3,4.4.3s1.1-.1,1.5-.4c1.2-1,2.1-5.4,2.6-13.4h-11.7v1.5c0,.2-.9,1-2.3,1h-.4v-24.4l3.3,1.4h9.9l2.1-2.5s2.3,1.7,3.7,3.1c-.1.5-.6.8-1.2.8h-7.9v4.9h3.2l1.7-2.3s2.2,1.7,3.4,2.9c-.1.5-.6.8-1.2.8h-7.1v5h3l1.8-2.2s2.1,1.6,3.4,2.9c-.1.5-.6.8-1.2.8h-7v5.1h4.1l1.6-1.7,3.4,2.6h0Zm-15.9,4c4.5,6,1.6,11-.3,8.6.5-2.7.1-6.2-.4-8.4l.7-.2Zm-.3-22.9v4.9h4.5v-4.9h-4.5Zm4.5,6.3h-4.5v5h4.5v-5Zm-4.5,11.6h4.5v-5.1h-4.5v5.1Zm3.1,4.2c6,4.6,3.6,9.2,1.5,7.2,0-2.2-1.2-5.1-2.2-6.9l.7-.3h0Zm2.9-1c6.5,2.3,4.5,7,2.3,5.3-.3-1.6-1.6-3.7-2.9-4.9l.6-.4Zm19.2-6.2c2,8.7,6.2,16.7,13,19.9l-.1.5c-1.2.2-2.2,1.2-2.6,2.7-6.5-4.6-9.6-12.5-11.2-23.1h-2.9c-.2,7.9-1.4,16.9-8.3,23.2l-.7-.5c5.4-7,6.1-15.9,6.1-24.8v-15.6l3.5,1.5h10.2l1.6-1.8,3.7,2.8c-.2.4-1,.8-1.9.9v15.9c-.1.3-1.6,1-2.5,1h-.4v-2.6h-7.5Zm-3.8-1.4h11.2v-13.4h-11.2v13.4Z"/><path class="cls-4" d="m169.3,40.7c-.3.5-.8.7-1.9.5-1,1.6-2.4,3.5-4,5.4l1.3.5c-.2.4-.6.7-1.4.8v22.9c-.1.3-1.3,1.1-2.4,1.1h-.6v-21.8c-1.9,2-4,4-6.1,5.6l-.6-.6c4.4-4.8,8.9-11.9,11.1-16.7l4.6,2.3h0Zm-.9-9.2c-.3.5-.8.7-1.8.4-2.6,3-7.3,7.1-12,9.7l-.5-.6c3.9-3.3,8.1-8.3,10-11.9l4.3,2.4h0Zm15.5,35.3c2.1.6,4.6.8,7.5.8,1.5,0,4.8,0,6.6-.1v.7c-1.1.2-1.6,1.2-1.6,2.5h-5.4c-9,0-14.2-2.6-17.2-12.6-1.4,5.1-3.8,10.3-8.2,13.7l-.5-.5c4.7-5.4,6.4-14.1,6.8-21.5l4.9.9c-.1.7-.6,1-1.7,1.1-.2,1.5-.5,3.2-.9,4.8,1.6,4.6,3.7,7.4,6.7,9v-19l4.5.5c-.1.6-.5,1.1-1.5,1.2v6.6h5.8l2.1-2.7s2.4,2,4,3.3c-.1.5-.6.8-1.3.8h-10.7l.1,10.5h0Zm-13.8-30.5h9.9v-6.9l4.6.5c-.1.6-.5,1-1.5,1.2v5.2h6.2l2.1-2.7s2.4,1.9,4,3.3c-.1.5-.6.8-1.2.8h-11.1v7.2h8.2l2.1-2.7s2.5,1.9,4,3.4c-.1.5-.6.8-1.2.8h-28l-.4-1.4h12.2v-7.2h-9.5l-.4-1.5h0Z"/><path class="cls-4" d="m240.9,41s2.7,2,4.3,3.5c-.1.5-.6.8-1.3.8h-41.1l-.4-1.4h9v-11.2l4.5.5c-.1.6-.5,1-1.5,1.2v9.6h7.9v-14.9l4.8.5c-.1.6-.6,1.1-1.7,1.3v5.3h8l2.3-2.8s2.6,2,4.2,3.5c-.1.5-.6.8-1.3.8h-13.2v6.4h13.1l2.4-3.1h0Zm-22.7,8.5c-.2.4-.6.7-1.7.5-2.8,3.7-7.8,8.2-13.4,10.9l-.4-.6c4.7-3.4,9.2-8.9,11.3-13.1l4.2,2.3h0Zm-13.9,21.4c12-2.4,21.5-5.8,29-16.5l4.1,2.4c-.3.5-.8.6-2,.3-8.4,10.1-18.1,13.1-31,14.6l-.1-.8h0Zm11.5-12.8s4.6.3,5.6.3c.8,0,1-.2,1-.9v-12l4.6.5c-.1.7-.6.9-1.5,1.1v10.5c0,2.4-.6,3.9-4.8,4.3-.1-.9-.4-1.7-1-2.2s-1.7-.9-3.8-1.1l-.1-.5h0Zm15.4-10.2c14.5,3.8,13.6,11.7,9.8,9.9-1.7-3.3-6.6-7.2-10.3-9.4l.5-.5h0Z"/><path class="cls-4" d="m330.9,31c-.2.5-.6.8-1.8.7-3,6.4-8.9,14-17.1,18.4l-.4-.6c7-5.1,12.2-13.4,14.6-20.3l4.7,1.8h0Zm13.6,14.6l3.6,3c-.3.3-.9.6-1.9.7-.6,10.3-2,18.3-4.2,20.5-1.4,1.3-3.2,1.9-5.5,1.8,0-.9-.2-1.7-1-2.2s-3.2-1.1-5.3-1.4v-.8c2.4.2,6.5.6,7.7.6,1,0,1.4-.1,1.9-.6,1.6-1.3,2.8-8.9,3.3-18.2h-11.4c-.8,7.7-3.3,16.5-17.6,23l-.6-.8c12.6-6.9,14.5-15.3,14.9-22.2h-9.8l-.4-1.4h24.6l1.7-2h0Zm-6.3-16.6c2.9,7.2,10.3,13.8,17,17l-.1.5c-1.3.1-2.3.9-2.9,2.4-6.3-4.2-12.2-11.3-14.8-19.5l.8-.4h0Z"/><path class="cls-4" d="m5.2,23.6s.4.3.8.7c.3-.5.5-1,.8-1.5l1.2.6c-.1.2-.2.2-.5.1-.5,1-1.2,2-2,3h.8l.6-.7s.7.5,1.1.9c0,.1-.2.2-.3.2h-2.8l-1.5,1.5h2l.6-.5,1,.8c-.1.1-.3.2-.5.3v4.7c0,.1-.4.3-.7.3h-.2v-1h-2.8v.8c0,.1-.3.3-.7.3h-.1v-4.6c-.5.3-1,.6-1.5.9l-.1-.2c.5-.4,1.1-.8,1.6-1.2v-1l.7.3c.5-.5.9-.9,1.4-1.4H.6l-.1-.4h2.5v-1.8H1l-.1-.4h2.1v-1.9l1.3.1c0,.2-.2.3-.5.4v1.4h.7l.7-.7h0Zm-2.2,5.2l-.2.1v1.6h2.8v-1.7h-2.6Zm2.6,3.8v-1.8h-2.8v1.8h2.8Zm-1.2-6.1c.5-.6.9-1.2,1.3-1.8h-1.8v1.8h.5Zm8.2-2.7c-.1.1-.2.2-.6.2-.4.9-1.3,2.5-1.9,3.3,1.5,1.1,2.1,2.2,2.1,3.3,0,1.3-.5,1.9-1.9,2,0-.3-.1-.6-.2-.7-.1-.1-.4-.2-.8-.2v-.2h1.2q.2,0,.4-.1c.3-.1.4-.4.4-1,0-1-.4-2-1.6-3.1.4-.8.9-2.5,1.3-3.5h-2.1v10.2c0,.1-.3.3-.7.3h-.1v-11.4l1,.5h2.1l.5-.5.9.9h0Z"/><path class="cls-4" d="m25.4,25.2c-.1.1-.3.1-.5.1-.4.4-1,.9-1.5,1.3l-.2-.1c.2-.4.4-.9.6-1.3h-8.4c0,.8-.3,1.4-.7,1.6-.3.2-.8.3-.9,0-.1-.3.1-.5.3-.7.5-.3,1-1.1.9-2h.2c.1.2.1.4.2.7h5.7c.5-.7,1-1.6,1.3-2.4l1.3.5c-.1.1-.2.2-.5.2-.4.5-1.1,1.2-1.8,1.7h2.4l.6-.6,1,1h0Zm-2.3,4.5l1,.8c-.1.1-.3.2-.5.3v3.1c0,.1-.4.3-.7.3h-.1v-.7h-6.6v.5c0,.1-.4.3-.7.3h-.1v-4.4l.9.4h6.4l.4-.6h0Zm-7.6-7.1c2.5.9,1.8,2.6,1,2-.1-.6-.7-1.4-1.1-1.9l.1-.1Zm7.3,10.4v-2.4h-6.6v2.4h6.6Zm-.9-3.6v-.4h-4.9v.3c0,.1-.4.3-.7.3h-.1v-3.6l.9.4h4.7l.5-.5,1,.8c-.1.1-.3.2-.5.2v2.4c0,.1-.4.3-.7.3-.1-.2-.2-.2-.2-.2Zm0-.8v-1.9h-4.9v1.9h4.9Zm-3.5-6.2c2.3,1.1,1.4,2.8.7,2.1,0-.7-.5-1.5-.7-2.1h0Z"/><path class="cls-4" d="m32.8,26.6c.5,2.4,1.8,5.1,5.7,6.8v.1c-.5,0-.8.2-.9.7-3.6-2-4.6-5.1-5-7.6-.4,3-1.5,5.7-6,7.6l-.1-.2c3.8-2,4.9-4.5,5.2-7.4h-5l-.1-.4h5.1c.1-1.2.1-2.5.1-3.8l1.4.1c0,.2-.1.3-.4.4,0,1.1,0,2.2-.1,3.3h3.7l.7-.9s.8.6,1.3,1.1c0,.1-.1.2-.3.2h-5.3Z"/><path class="cls-4" d="m39.4,25.4c2.8.3,2.3,2.2,1.3,1.7-.2-.6-.9-1.2-1.5-1.6l.2-.1Zm4.2-.6c-.7,1.6-1.9,4.5-2.1,5.1-.1.4-.2.8-.2,1.1,0,.6.4,1.2.3,2.2,0,.6-.3.9-.8.9-.2,0-.4-.2-.4-.7.2-1.3.1-2.3-.2-2.5-.2-.1-.4-.2-.7-.2v-.3h.6q.2,0,.3-.2c.2-.3,1.1-2.2,2.8-5.5l.4.1h0Zm-3.2-2.2c3,.4,2.4,2.4,1.5,1.9-.2-.6-1-1.3-1.6-1.7,0-.1.1-.2.1-.2Zm10,9.4s.7.6,1.2,1c0,.1-.2.2-.3.2h-8.7l-.1-.4h4v-8.7h-3.2l-.1-.4h6.2l.6-.8s.7.5,1.1,1c0,.1-.2.2-.3.2h-3.4v8.7h2.5l.5-.8h0Z"/><path class="cls-4" d="m62.1,25.1l1.1.8c-.1.1-.3.2-.5.3v3.8c0,.1-.5.3-.7.3h-.1v-.9h-6.8c-.1,1.7-.7,3.6-2.6,4.9l-.2-.1c1.7-1.8,1.9-3.9,1.9-6v-2.9l1,.5h6.5l.4-.7h0Zm.7-2.5s.7.6,1.2,1c0,.1-.2.2-.3.2h-10.9l-.1-.4h9.5l.6-.8h0Zm-1.1,6.3v-2.9h-6.7v3l6.7-.1h0Z"/><path class="cls-4" d="m66.4,30.7c.3,1.3.1,2.2-.2,2.7-.2.3-.7.4-.8.2-.2-.2,0-.5.2-.7.3-.4.7-1.3.6-2.1l.2-.1h0Zm-1-1.6s.2-.1.3-.1c.6-.6,1.3-1.5,1.9-2.4-.4.1-.9.3-1.5.4-.1.2-.2.3-.3.3l-.4-1.1s.2,0,.3-.1c.7-.8,1.6-2.6,2-3.6l1.2.6c-.1.1-.2.2-.5.2-.5.9-1.4,2.1-2.2,2.9h1.7c.3-.5.6-1,.7-1.4l1.1.8c-.1.1-.2.2-.5.1-.7,1-1.9,2.5-3.1,3.5.7,0,1.6-.1,2.6-.2-.1-.5-.4-1-.6-1.4l.2-.1c2,1.5,1.2,3,.6,2.3,0-.2,0-.4-.1-.6-.7.2-1.7.5-2.7.7-.1.1-.2.2-.3.2l-.4-1h0Zm2.1,1.3c1.4,1.7.5,3.2-.1,2.4.1-.8.1-1.8-.1-2.4h.2Zm1.2-.2c1.8,1.2,1.1,2.7.4,2.1,0-.7-.3-1.5-.6-2,0,0,.1-.1.2-.1Zm8-.8c-.1.1-.3.2-.5.1-.3.3-1,.7-1.6,1.1.7.9,1.6,1.5,2.5,2v.1c-.3,0-.6.3-.7.7-1.2-.9-2.2-2.1-2.8-4.2v3.8c0,.7-.2,1.1-1.3,1.2,0-.2-.1-.5-.2-.6-.2-.1-.5-.2-1-.3v-.2s1.2.1,1.5.1c.2,0,.3-.1.3-.2v-3.3c-.1.1-.2.1-.5.2-.4,1.5-1.4,3-3.1,3.9l-.1-.2c1.3-.9,2.1-2.3,2.4-3.8h-1.6l-.1-.4h1.7l.5-.5.8.8v-1.7h-1.6v.5c0,.1-.2.2-.7.2h-.1v-5l.9.4h.9c.1-.4.3-1.1.3-1.6l1.3.3c0,.2-.2.3-.5.3-.2.3-.6.7-.8,1.1h2.4l.4-.5.9.7c-.1.1-.2.2-.5.2v3.9s-.3.2-.7.2h-.1v-.6h-1.5v.6c.2.7.5,1.4.9,1.9.4-.5,1-1.3,1.2-1.7l1.1.5h0Zm-5.5-5.1v1.4h3.9v-1.4h-3.9Zm3.9,3.2v-1.4h-3.9v1.4h3.9Z"/><path class="cls-4" d="m0,49.6h6.3v.7H.8v12.6h-.8v-13.3h0Z"/><path class="cls-4" d="m11.9,62.2c-.1.2-.3.3-.8.3-.5,1.4-1.6,3.3-3.1,4.5l-.2-.3c1.1-1.5,1.9-3.8,2.2-5.4l1.9.9h0Zm1.5-1.4v5.8c0,1-.2,1.7-1.9,1.9,0-.4-.1-.7-.3-.9-.2-.2-.7-.3-1.4-.4v-.3s1.5.1,1.9.1c.3,0,.4-.1.4-.4v-5.7h-3.6l-.2-.6h3.8v-2.5h-4.2l-.1-.6h5.9c.4-1.1.8-2.6,1-3.7l2,.6c-.1.2-.3.4-.7.4-.4.8-1.1,1.8-1.7,2.7h1.3l.9-1.2s1,.8,1.7,1.5c-.1.2-.2.3-.5.3h-4.1v2.5h1.8l.9-1.1s1,.8,1.6,1.4c-.1.2-.2.3-.5.3l-4-.1h0Zm-5-7.6l-.2-.6h7.1l.9-1.1s1,.8,1.6,1.4c-.1.2-.2.3-.5.3,0,0-8.9,0-8.9,0Zm1.5,0c3.2,2.1,1.8,4.5.8,3.4,0-1.1-.5-2.5-1-3.3l.2-.1h0Zm1.5-3.6c3.7,1.1,2.5,3.5,1.2,2.6-.2-.8-.9-1.8-1.4-2.4l.2-.2h0Zm2.8,12.1c3.7,1.8,2.4,4.7,1.1,3.6,0-1.1-.7-2.5-1.4-3.4l.3-.2h0Zm10.9-6.2s1.1.9,1.8,1.5c0,.2-.2.3-.5.3h-2.3v10.7c0,.1-.4.4-1.1.4h-.2v-11h-3v.6c0,3.6-.4,7.7-4.3,10.4l-.3-.2c2.8-2.8,3.2-6.4,3.2-10.2v-6.7l1.6.5c1.8-.6,3.7-1.5,4.8-2.2l1.6,1.3c-.2.2-.5.2-1,0-1.4.5-3.6,1-5.6,1.3v4.4h4.4l.9-1.1h0Z"/><path class="cls-4" d="m39.7,55.3s1,.8,1.6,1.4c0,.2-.2.3-.5.3h-3v3.3h.9l.9-1.1s1,.8,1.6,1.4c-.1.2-.2.3-.5.3h-2.8v3.7l3.2-.7.1.3c-1.7.7-4.2,1.6-7.4,2.7-.1.3-.2.4-.5.5l-.8-1.7c.3,0,.8-.1,1.3-.2v-6.7l1.8.2c0,.3-.2.4-.7.5v5.8l1.7-.3v-7.8h-3.3l-.2-.6h3.5v-3.3h-1.6c-.4.5-.9,1.1-1.3,1.5l.2.1c-.1.2-.3.3-.8.2-.4.8-1,1.7-1.6,2.6l.8.3c-.1.2-.3.3-.6.4v9.6c0,.1-.5.4-1,.4h-.2v-9.4c-.6.7-1.3,1.5-2,2.1l-.2-.2c1.6-2,3.2-5.1,3.9-7.1l1.3.7c.8-1.2,1.5-3,2-4.8l2,.7c-.1.2-.3.4-.7.4-.3.7-.7,1.3-1,1.8h3.2l.9-1.1s1,.8,1.6,1.3c0,.2-.2.3-.5.3h-2.7v3.3h1l.4-1.1h0Zm-6.1-4.7c-.1.2-.3.3-.8.2-.9,1.3-2.6,3.1-4.4,4.3l-.2-.3c1.4-1.5,2.9-3.7,3.5-5.2l1.9,1h0Zm13.5,1.4c-.1.2-.5.3-.9.4v11.3c0,1-.2,1.7-1.7,1.8,0-.4-.1-.7-.3-.9-.2-.2-.5-.3-1.2-.4v-.3s1.3.1,1.6.1.4-.1.4-.4v-11.5h-2.4v15.8c0,.2-.4.5-1,.5h-.2v-17.5l1.3.7h2.1l.7-.8,1.6,1.2h0Z"/><path class="cls-4" d="m53.6,57.8c-.1.2-.3.3-.6.3v9.9c0,.1-.5.5-1.1.5h-.2v-9.6c-.8.8-1.7,1.7-2.6,2.3l-.3-.2c1.9-2,3.8-5,4.7-7l2,1c-.1.2-.3.3-.8.2-.5.7-1.1,1.5-1.8,2.4l.7.2h0Zm1.5-7c-.1.2-.3.3-.8.2-1.1,1.3-3.2,3.2-5.2,4.4l-.2-.3c1.7-1.5,3.5-3.8,4.4-5.4l1.8,1.1h0Zm12.7,15.9v.3c-.5.1-.7.6-.8,1.1h-2.6c-3.8,0-6-1-7.3-4.9-.6,2.1-1.7,4-3.5,5.3l-.2-.2c2.3-2.3,3-6.2,3-9.5l2.2.3c-.1.3-.3.5-.7.5-.1,1-.3,2-.5,3,.7,1.8,1.6,2.8,2.9,3.4v-8.4l2,.2c0,.3-.2.5-.7.5v3h2.6l.9-1.2s1.1.8,1.7,1.5c0,.2-.2.3-.5.3h-4.8v4.5c.9.2,1.9.3,3.1.3h3.2Zm-12.1-13.6h4.5v-3.4l2,.2c0,.3-.2.5-.7.5v2.7h2.5l.9-1.2s1.1.8,1.7,1.5c0,.2-.2.3-.5.3h-4.6v3.1h3.5l.9-1.2s1.1.8,1.8,1.5c-.1.2-.2.3-.5.3h-12.8l-.2-.6h6v-3.1h-4.4l-.1-.6h0Z"/><path class="cls-4" d="m77.1,51.1l1.6,1.3c-.1.2-.4.3-.9.4v12.5c0,.1-.6.5-1.1.5h-.2v-1.4h-5v1.4c0,.2-.5.5-1,.5h-.2v-15l1.3.7h4.7c0-.1.8-.9.8-.9Zm-5.6,1.4v5.3h1.9v-5.3h-1.9Zm0,11.3h1.9v-5.4h-1.9v5.4Zm3.1-11.3v5.3h1.9v-5.3h-1.9Zm1.9,11.3v-5.4h-1.9v5.4h1.9Zm10-13.5s1.1.9,1.8,1.6c-.1.2-.3.3-.6.3h-3.3v14.1c0,1.1-.2,1.9-2.2,2.1,0-.4-.2-.8-.5-1-.4-.2-.9-.4-1.9-.6v-.3s2.3.2,2.8.2c.4,0,.5-.1.5-.5v-14h-4.5l-.2-.6h7l1.1-1.3h0Z"/><path class="cls-4" d="m96,68.6h-6.3v-.7h5.5v-12.7h.8v13.4h0Z"/><path class="cls-1" d="m263.3,28.8c3.9-1.2,7.9-1.8,12.4-1.8,15.6,0,25.5,7.7,25.5,21.5,0,14.6-11.2,23.1-27.4,23.1-12.7,0-20.5-6.1-21.8-16.4,1-2.7,3.2-3.9,5.8-3.9,3.5,0,5.5,2,6.4,7.4l1.7,8.5c1.8.6,3.5.9,5.8.9,9.7,0,15.7-6.8,15.7-18s-5.8-17.5-15.3-17.5c-3.8,0-7.4.4-11,1.7l-2.9-1.5,2.4-32.8h38.1v10.4h-34.3l-1.1,18.4Z"/><path class="cls-2" d="m750.8,46.2c8.1-2.7,11.9-7.2,12.9-13.6-1.6,1.6-3.7,2.5-6.2,2.5-4.9,0-8.7-3.4-8.7-8.9s3.8-9.2,9.3-9.2,9.2,4.5,9.2,11.7c0,8.5-4.8,15.9-16.1,18.8l-.4-1.3Zm13-15.4v-1.4c0-7.2-2.5-10.6-5.9-10.6-3.1,0-5.8,2.4-5.8,7.1s2.8,7.1,6.4,7.1c2.1,0,3.8-.8,5.3-2.2Z"/><path class="cls-4" d="m772,40.9c1.5,7-2.7,6.3-1.5,4.4.7-.8,1.1-2.4,1.1-4.4h.4Zm9.9-2.4c-.2.2-.5.3-1,.4-.2,4.9-.9,7.4-1.9,8.2-.6.5-1.4.7-2.2.7,0-.4-.1-.8-.3-1s-.9-.4-1.6-.5v-.4c.7,0,1.9.1,2.3.1s.6,0,.8-.2c.6-.5,1.1-2.8,1.4-7.1h-6.2v.8c0,.1-.5.5-1.2.5h-.2v-13l1.8.7h5.2l1.1-1.3s1.2.9,2,1.6c-.1.3-.3.4-.6.4h-4.2v2.6h1.7l.9-1.2s1.1.9,1.8,1.5c-.1.3-.3.4-.6.4h-3.8v2.7h1.6l.9-1.2s1.1.9,1.8,1.5c-.1.3-.3.4-.6.4h-3.7v2.9h2.2l.9-.9,1.7,1.4Zm-8.4,2.1c2.4,3.2.9,5.8-.1,4.6.3-1.4.1-3.3-.2-4.5l.3-.1Zm-.2-12.1v2.6h2.4v-2.6s-2.4,0-2.4,0Zm2.4,3.3h-2.4v2.7h2.4v-2.7Zm-2.4,6.2h2.4v-2.7h-2.4v2.7Zm1.7,2.2c3.2,2.4,1.9,4.9.8,3.8,0-1.1-.6-2.7-1.1-3.7l.3-.1Zm1.5-.5c3.5,1.2,2.4,3.7,1.2,2.8-.1-.9-.9-2-1.5-2.6l.3-.2Zm10.2-3.3c1,4.6,3.3,8.8,6.9,10.6l-.1.3c-.6.1-1.2.6-1.4,1.4-3.4-2.4-5.1-6.7-5.9-12.3h-1.6c-.1,4.2-.7,9-4.4,12.3l-.4-.2c2.9-3.7,3.2-8.4,3.2-13.2v-8.3l1.9.8h5.4l.9-1,2,1.5c-.1.2-.5.4-1,.5v8.4c0,.1-.8.5-1.3.5h-.2v-1.4h-4v.1h0Zm-2-.8h6v-7.1h-6v7.1Z"/><path class="cls-3" d="m797.8,46.2c8.1-2.7,11.9-7.2,12.9-13.6-1.6,1.6-3.7,2.5-6.2,2.5-4.9,0-8.7-3.4-8.7-8.9s3.8-9.2,9.3-9.2,9.2,4.5,9.2,11.7c0,8.5-4.8,15.9-16.1,18.8l-.4-1.3Zm13-15.4v-1.4c0-7.2-2.5-10.6-5.9-10.6-3.1,0-5.8,2.4-5.8,7.1s2.8,7.1,6.4,7.1c2.1,0,3.8-.8,5.3-2.2Z"/><path class="cls-4" d="m823.3,44.6c1.2-.3,2.6-.6,3.9-1l.1.4c-2.1.9-4.9,2.1-8.7,3.5-.1.3-.3.5-.5.6l-.8-2.1c.4-.1.9-.2,1.6-.3v-8.7l2.2.2c-.1.3-.3.5-.8.6v7.6l1.6-.4v-10.6h-1.5v.7c0,.1-.5.5-1.3.5h-.2v-8.7l1.8.8h3.7l.9-.9,1.9,1.5c-.2.2-.6.4-1,.5v6.1c0,.1-.8.4-1.3.4h-.2v-.9h-1.2v3.9h1l1-1.4s1.2,1,1.9,1.7c-.1.3-.3.4-.6.4h-3.3v5.6s-.2,0-.2,0Zm-3.1-11h4.3v-5.2h-4.3v5.2Zm18.1-4.1c-.2.2-.4.3-1,.3-.8,1.9-1.9,3.6-3.4,5.2,1.7,1.5,3.9,2.6,6.7,3.3l-.1.3c-.6.2-1.1.6-1.3,1.3-2.7-1-4.7-2.4-6.2-4.1-1.2,1.2-2.7,2.3-4.4,3.3l1.5.6h5.7l.8-.9,1.8,1.4c-.2.2-.4.3-.9.4v7.5c0,.1-.6.5-1.4.5h-.2v-1.7h-6.1v1.2c0,.1-.5.5-1.3.5h-.2v-9.3c-.9.5-1.9.9-3,1.3l-.2-.4c2.9-1.3,5.3-3.2,7.2-5.4-.8-1.1-1.5-2.3-2.1-3.5-1,1.4-2.2,2.6-3.5,3.5l-.3-.3c1.9-1.9,3.6-5.1,4.6-8.7l2.4.8c-.1.3-.4.5-1,.4-.2.6-.5,1.1-.7,1.6h3.8l1.1-1,1.7,1.9Zm-8.5,11v5.7h6.1v-5.7h-6.1Zm1.5-10.9c-.2.4-.5.9-.8,1.3.6,1.2,1.4,2.3,2.4,3.3,1.1-1.4,2-2.9,2.6-4.5h-4.2v-.1Z"/><path class="cls-4" d="m844.4,41.9c.7,2.4.3,4.3-.3,5.1-.4.5-1.2.8-1.6.3-.3-.4-.1-1,.4-1.4.6-.7,1.2-2.5,1.1-4.1h.4v.1h0Zm-1.9-3s.5-.1.6-.2c1.2-1.1,2.5-2.9,3.7-4.6-.8.2-1.8.5-2.8.7-.2.3-.4.5-.6.6l-.8-2.2s.4-.1.6-.2c1.4-1.5,3.1-5,3.8-6.9l2.3,1.1c-.1.2-.4.4-.9.4-1,1.7-2.6,4-4.2,5.6h3.2c.6-1,1.1-1.9,1.4-2.6l2.1,1.4c-.1.2-.5.3-.9.2-1.2,1.9-3.6,4.7-5.8,6.6,1.3-.1,3-.2,4.9-.3-.3-1-.7-2-1.1-2.6l.3-.1c3.8,2.8,2.4,5.7,1.1,4.5,0-.3-.1-.7-.1-1.1-1.4.4-3.3.9-5.2,1.3-.2.2-.4.4-.6.5l-1-2.1Zm4,2.5c2.7,3.2,1,6.1-.1,4.7.3-1.5.1-3.4-.2-4.6l.3-.1Zm2.3-.4c3.5,2.4,2.1,5.2.9,4,0-1.2-.6-2.9-1.2-3.9l.3-.1Zm15.4-1.5c-.1.2-.5.3-.9.1-.7.5-1.9,1.4-3,2.1,1.3,1.8,3.1,3,4.7,3.8l-.1.2c-.6.1-1.1.5-1.3,1.3-2.4-1.8-4.3-4-5.3-8v7.3c0,1.3-.3,2.2-2.4,2.4,0-.5-.1-.9-.4-1.2-.4-.3-.9-.5-2-.6v-.4s2.3.2,2.8.2c.4,0,.5-.1.5-.4v-6.4c-.2.2-.4.3-.9.3-.9,2.9-2.6,5.8-5.9,7.5l-.3-.4c2.5-1.8,4-4.5,4.6-7.3h-3.1l-.2-.7h3.2l1-.9,1.6,1.4v-3.2h-3.1v.9c0,.1-.5.4-1.2.4h-.2v-9.6l1.7.7h1.8c.2-.8.5-2.2.7-3.1l2.6.5c-.1.3-.4.5-.9.5-.4.6-1.1,1.4-1.6,2.1h4.7l.8-.9,1.7,1.3c-.2.2-.4.3-.9.4v7.4c0,.1-.6.4-1.3.4h-.2v-1.2h-2.9v1.1c.4,1.4,1,2.6,1.7,3.6.9-1,1.9-2.4,2.3-3.3l1.7,1.7Zm-10.5-9.7v2.6h7.5v-2.6s-7.5,0-7.5,0Zm7.5,6v-2.7h-7.5v2.7h7.5Z"/><path class="cls-4" d="m878.7,32.2s1.3,1.1,2.1,1.8c-.1.3-.3.4-.6.4h-5.1v1.8c6.2,2.6,5,6.4,3.3,5.1-.4-1.5-2-3.4-3.3-4.7v11.4c0,.1-.6.5-1.3.5h-.3v-11.3c-1.6,2.9-3.8,5.4-6.4,7.4l-.3-.3c2.7-2.6,4.9-6.3,6.2-9.9h-5.2l-.2-.7h6v-4.5c-1.9.4-4,.7-5.9.8l-.1-.4c3.8-.7,8.3-2.3,10.6-3.5l2.1,1.8c-.2.2-.7.2-1.3,0-1,.3-2.4.7-3.8,1v4.8h2.5l1-1.5Zm4.5,10.9c0,.2-.7.6-1.3.6h-.3v-15.6l2.4.3c-.1.3-.3.6-.9.7l.1,14h0Zm6.3-16.4c-.1.3-.3.6-.9.6v18.8c0,1.4-.3,2.2-2.6,2.4-.1-.5-.2-.9-.5-1.2-.4-.3-1.1-.5-2.3-.7v-.4s2.7.2,3.2.2.6-.2.6-.6v-19.4l2.5.3Z"/><path class="cls-4" d="m913.2,28.3c-.2.2-.6.4-1.2.6v17.3c0,1.3-.2,2.2-2.6,2.4-.1-.5-.2-1-.6-1.2-.4-.3-1-.5-2.2-.6v-.4s2.6.2,3.2.2c.5,0,.6-.2.6-.6v-5.8h-6.4v7.7c0,.1-.5.5-1.4.5h-.2v-8.2h-6.2c-.4,3.1-1.5,6.1-4.2,8.4l-.3-.2c2.8-3.7,3.2-8.3,3.2-13v-8.4l1.9.8h13.3l.9-1.1,2.2,1.6Zm-10.7,11.2v-5.2h-5.9v1c0,1.3,0,2.7-.2,4.2h6.1Zm-5.9-11v5h5.9v-5h-5.9Zm7.5,0v5h6.4v-5h-6.4Zm6.3,11v-5.2h-6.4v5.2h6.4Z"/><path class="cls-4" d="m936.9,26.3s1.4,1.1,2.3,1.9c-.1.3-.3.4-.6.4h-3.3v17.4c0,1.3-.3,2.3-3,2.5,0-.5-.3-1-.7-1.2-.5-.3-1.3-.5-2.8-.7v-.4s3.4.2,4.1.2c.5,0,.7-.2.7-.6v-17.2h-17l-.2-.7h19.1l1.4-1.6Zm-7.2,7.1c-.2.2-.6.4-1,.5v8.4c0,.1-.8.5-1.4.5h-.2v-1.9h-6.1v2.3c0,.1-.6.5-1.3.5h-.3v-11.5l1.7.8h5.7l.9-1,2,1.4Zm-2.6,6.8v-6.6h-6.1v6.6h6.1Z"/><path class="cls-4" d="m948.9,28.7c5.4,2.3,4.1,6.1,2.5,4.8-.1-.5-.2-1-.5-1.5-2,.4-4.9,1-8.2,1.4-.2.2-.3.3-.5.4l-.8-2.1s.4-.1.6-.2c1.6-1.2,3.6-4.3,4.4-5.9l2.3,1c-.1.2-.4.4-.9.3-1.1,1.4-3,3.4-4.7,4.7,1.9,0,4.8-.1,7.7-.3-.5-1-1.4-2-2.1-2.7l.2.1Zm1.3,5.6l2,1.6c-.1.2-.5.4-1,.5v10c0,1.3-.2,2.1-2.2,2.3,0-.5-.1-.9-.4-1.2-.3-.2-.8-.5-1.6-.6v-.4s1.8.1,2.2.1.4-.1.4-.4v-3.5h-5.1v5.5c0,.2-.6.5-1.3.5h-.2v-14.2l1.7.8h4.7l.8-1Zm-5.7,1.7v2.5h5.1v-2.5h-5.1Zm5.1,5.9v-2.6h-5.1v2.6h5.1Zm6.8-5.3c-1.9,0-2.3-.4-2.3-1.6v-8.7l2.4.3c0,.3-.3.5-.8.6v4c2.1-.9,4.4-2.4,5.6-3.5l2,1.4c-.2.2-.6.2-1.2.1-1.5.8-4,1.9-6.4,2.5v3c0,.4.1.5,1,.5h4.5c.2,0,.3-.1.4-.3.2-.3.4-1.4.7-2.5h.3l.1,2.6c.5.2.7.3.7.7,0,.7-.8,1-4.5,1l-2.5-.1h0Zm6.6,9.9c.5.2.7.4.7.7,0,.7-.8,1-4.6,1h-2.6c-1.9,0-2.4-.4-2.4-1.7v-9.2l2.4.3c-.1.3-.3.5-.8.6v4.2c2.2-1,4.5-2.6,5.6-3.8l2.1,1.4c-.2.2-.6.3-1.2.1-1.5,1-4,2.2-6.5,2.8v3.2c0,.4.1.5,1,.5h4.6c.3,0,.4-.1.5-.3.2-.3.5-1.5.7-2.8h.3l.2,3Z"/><path class="cls-4" d="m972.1,27.5c.4-.1,1-.3,1.5-.3.6,0,1.4.1,1.8.4.4.2.3.7-.6,3.8.7-.2,1.3-.5,1.8-.7.8-.3,1.2-.6,1.6-.6s.9.3.9.7-.6.8-.8.9c-.8.4-2.3.9-3.9,1.3-.9,2.7-2.6,7.2-4.7,10.2-.3.5-.6.9-1.1.9s-.7-.5-.7-1c0-.4.1-.8.4-1.2,1.5-2,3.6-5,4.7-8.7-.7.1-1.3.1-2,.1-1.9,0-2.7-.7-3.5-2.5l.4-.3c1.1.9,1.6,1.4,3.3,1.4.6,0,1.4-.1,2.1-.2.2-1,.4-2.1.5-2.7,0-.5-.1-.7-.5-.9-.3-.2-.8-.3-1.2-.4v-.2Zm8.9,4.3c1.2-.2,2.5-.1,3.4.3,1.5.6,2.3,1.5,2.3,2.5,0,.6-.2.9-.7.9-.6,0-1-.4-2.1-.3-.9.1-1.8.4-2.3,1-.5.5-.6,1.3-.6,2.2,0,.7.3,2.3.5,3.8,1.6.4,2.9,1.1,3.9,1.7,1.2.8,1.7,1.5,1.7,2.1,0,.5-.2.8-.6.8-.5,0-.8-.4-1.3-.9-.9-.9-2.1-1.7-3.5-2.3,0,.4.1.7.1,1,0,2.1-1.5,3.2-4,3.2s-4-1.3-4-2.7c0-1.9,2-3.3,5.3-3.3h1.1c-.1-1.1-.2-2.2-.2-3.2,0-1.4.4-2.3,1.2-3.1s1.9-1.2,2.7-1.6c.5-.3.4-.6,0-.9-.7-.5-1.7-.7-2.8-.7l-.1-.5Zm-.8,11.4c-.7-.1-1.4-.2-2.1-.2-2.3,0-3.4.9-3.4,1.8s.8,1.6,2.6,1.6c2.4,0,2.9-1.2,2.9-2.6v-.6Z"/><path class="cls-4" d="m921.7,60.8l8.7-8.7.8.8-8.7,8.7,8.7,8.7-.8.8-8.7-8.7-8.8,8.8-.8-.8,8.8-8.8-8.7-8.7.8-.8,8.7,8.7Zm-7.6,2.8c-1.1,0-2-.9-2-2s.9-2,2-2,2,.9,2,2-.9,2-2,2Zm5.6-9.5c0-1.1.9-2,2-2s2,.9,2,2-.9,2-2,2-2-.9-2-2Zm4,15.1c0,1.1-.9,2-2,2s-2-.9-2-2,.9-2,2-2,2,.9,2,2Zm5.5-9.6c1.1,0,2,.9,2,2s-.9,2-2,2-2-.9-2-2,.9-2,2-2Z"/><path class="cls-4" d="m751.3,53.4c.5.7.8,1.4,1.5,1.4,1.6,0,11.1-1,12.5-1.3.5-.1.7-.4,1.2-.4.7,0,2.4,1.5,2.4,2.2,0,.6-1,.7-1.5,1.1-1.1.8-3.2,2.4-5.5,3.6,0,.1,0,.2-.1.4-1.8,5-4.4,8.4-9.6,11.1l-.4-.5c4.9-3,7.9-8.8,7.9-10.5,0-.7-.9-1.1-2-1.5l.1-.5c.7,0,1.1,0,1.6.1.8.1,1.5.4,1.9.7,1.9-1.3,3.9-3,4.6-4,.3-.5.2-.6-.3-.6-1.2,0-8.2,1-10.9,1.5-1,.2-1,.6-1.6.6s-1.7-1-2.1-1.7c-.2-.4-.2-.9-.3-1.5l.6-.2Z"/><path class="cls-4" d="m776.7,51.5c.4,0,.9,0,1.5.1,1,.2,2.3,1,2.3,1.4s-.3.7-.7,1.3c-.3.4-.5.9-.8,1.3h.5c1.2,0,4.2-.3,4.9-.5.7-.1.8-.6,1.3-.6.6,0,2.1,1,2.1,1.6,0,.5-.8.6-1.2,1.3-3.4,6.1-8.4,11.2-15.3,14.1l-.4-.5c6.3-3.3,12.1-9.6,14-14.5.1-.3,0-.4-.2-.4-.9,0-3,.4-3.9.6-.5.1-1,.3-1.4.3-.3,0-.7-.2-1.1-.6-1.9,2.6-4.4,4.8-7.3,6.4l-.4-.5c3.8-2.8,7.4-7.8,7.4-9.2,0-.4-.6-.8-1.5-1.2l.2-.4Z"/><path class="cls-4" d="m803,63c1.5-1.6,2.9-3.3,3.7-4.7.2-.3.1-.5-.3-.4-1.4.2-5.1,1.4-7.3,2.2-.1,2.2-.2,4.5-.1,5.9,0,2,.3,2.2,3.3,2.2,3.4,0,4.5-.5,5.1-.5.7,0,1.6.3,1.6.9,0,.4-.5.7-1.1.8-1.1.2-3.3.4-4.9.4-3.9,0-5.3-.2-5.4-3.5,0-1.7,0-4.1.1-5.7-1.2.4-2.8,1-3.8,1.4-.9.4-.9.7-1.6.7-.6,0-1.9-1-2.2-1.7-.2-.3-.2-.8-.1-1.3l.4-.1c.5.7.9,1.2,1.5,1.2.9,0,4.2-1,5.9-1.5,0-2,.1-4.5,0-5.5,0-.6-.8-.8-2-.9v-.5c.7-.2,1.3-.3,1.8-.3.9,0,2.5.9,2.5,1.5s-.5.9-.6,1.6c-.1.7-.2,2.1-.3,3.7,2.1-.6,5.2-1.5,6.7-1.9.7-.2.9-.6,1.3-.6.7,0,2.4,1.3,2.4,1.9,0,.5-.7.6-1.3,1.2-1,1-2.8,2.7-4.8,4.1l-.5-.6Z"/><path class="cls-4" d="m813.6,58.2l.2-.5c1.3.3,2.3.6,3.3,1,1.5.7,2.4,1.5,2.4,2.4,0,.4-.2.8-.7.8-.8,0-1.2-.9-2.4-1.8-.9-.8-1.7-1.3-2.8-1.9Zm18.2-1.3l.6.4c-2.8,4.9-8,9.2-13.4,12.2-.5.3-.8.9-1.4.9-.8,0-2.3-1-2.8-1.8-.3-.4-.5-1.3-.5-1.6l.4-.2c.7.8,1.4,1.6,2.3,1.6,1.4-.1,10.3-5.4,14.8-11.5Zm-14.9-3.4l.3-.6c1.3.4,2.5.8,3.6,1.4,1.2.6,1.9,1.3,1.9,2.1,0,.4-.3.8-.7.8-.7,0-1.2-1-2.5-2-.8-.6-1.9-1.3-2.6-1.7Z"/><path class="cls-4" d="m847.3,55.9c.5.1.8.2,1.2.4.7.5,1.4,1.4,1.4,1.9s-.6.6-1.6,1.1c-1.7.9-5.2,2.5-9.3,3.6,0,1.5-.1,2.8-.1,3.4,0,2.4.5,2.6,3.5,2.6,3.9,0,5.6-.8,6.4-.8,1.2,0,1.9.3,1.9.8s-.3.7-.8.9c-1,.3-3.5.6-7.3.6-4.4,0-5-.7-5.1-4.2,0-2.2.3-10.3.1-11.4-.1-.7-.6-.8-1.9-1v-.4c.6-.1,1.2-.3,1.7-.3,1,0,2.4,1,2.4,1.6,0,.5-.5.6-.5,1.3-.1,1.1-.2,3.6-.3,6,3.3-1.2,6.6-2.8,8.2-4,.4-.3.5-.5.3-.9-.1-.3-.4-.6-.6-.8l.4-.4Zm1.5-2.8c1.2.5,2.1,1.1,2.8,1.7.6.6.8,1,.8,1.5,0,.4-.3.7-.7.7s-.6-.6-1.1-1.2c-.5-.7-1.2-1.4-2.2-2.2l.4-.5Zm2.1-1.8c1.2.5,2.2,1,2.8,1.5s.9,1,.8,1.5c0,.4-.2.6-.6.6s-.6-.6-1.2-1.2c-.5-.6-1.1-1.2-2.2-2l.4-.4Z"/><path class="cls-4" d="m857.9,54.1v-.5c.5-.1,1-.3,1.4-.3.9,0,2.4.9,2.4,1.5,0,.5-.3.7-.4,1.6-.1,1.1,0,6.5,0,7.5,0,.9-.3,1.2-.8,1.2s-1-.8-1-1.7c0-.7.2-1.6.2-3.6,0-1.1,0-3.5-.1-4.4,0-.6-.1-.8-.5-1-.3-.1-.7-.2-1.2-.3Zm2.8,17.8l-.3-.5c4.8-2.5,7.1-5.8,7.4-10.9.1-2.2.2-4.3.1-6,0-.4-.1-.8-.5-1-.3-.1-.8-.2-1.5-.3v-.5c.5-.2,1.2-.5,1.7-.5.9,0,2.6,1,2.6,1.5s-.4.7-.5,1.4c0,1.4-.1,3.9-.2,5.5-.4,5.6-3.2,9.2-8.8,11.3Z"/><path class="cls-4" d="m875.9,57.8c.5.7,1,1.3,1.6,1.3,1.7,0,7.9-.9,12.4-1.3,1.7-.2,2.1-.4,2.5-.4,1,0,2.4.5,2.4,1.3,0,.4-.1.6-.7.6-.4,0-1.3-.1-2.5-.1-1.1,0-3.2,0-5.4.3.7.4,1.2.8,1.2,1.2,0,.5-.6.6-.8,1.3-.9,2.6-2.4,6.7-8.3,9.9l-.5-.5c5.9-3.9,7.3-9.5,7.3-10.8,0-.3-.1-.6-.4-1-2,.2-4.3.6-5.1.8s-1.4.5-2,.5-1.7-1-1.9-1.6c-.1-.3-.1-.7-.2-1.2l.4-.3Zm3.8-5.2c.9.7,1.6,1,2.4,1,1.5,0,3.2-.3,4.4-.6,1.4-.3,1.8-.7,2.3-.7,1.1,0,1.9.4,1.9,1,0,.4-.3.6-1.1.7-1.9.3-5.3.9-7.5.9-1.3,0-1.9-.7-2.8-2l.4-.3Z"/><path class="cls-4" d="m902.9,56.7c.4,0,.8,0,1.3.2.8.3,1.7,1.1,1.7,1.7,0,.4-.3.4-.9.9-.7.8-1.6,1.8-2.8,2.9.5.4,1,.7,1,1s-.2.5-.2,1c-.1,2.7,0,5.5,0,6.5,0,.7-.2,1-.7,1-.7,0-1.1-.9-1.1-1.6,0-.3.2-.7.2-1.3.2-1.4.2-4.2.2-5.1,0-.3-.1-.5-.2-.8-1.2,1-3.9,3.1-7.1,4.3l-.2-.4c5.2-2.9,9.7-8,9.7-9,0-.4-.5-.8-1.1-1l.2-.3Z"/></g></svg>