<?xml version="1.0" encoding="UTF-8"?><svg id="Layer_2" xmlns="http://www.w3.org/2000/svg" xmlns:xlink="http://www.w3.org/1999/xlink" viewBox="0 0 355.2 72.17"><defs><style>.cls-1{fill:url(#linear-gradient);}.cls-1,.cls-2{stroke-width:0px;}</style><linearGradient id="linear-gradient" x1="252.12" y1="35.88" x2="301.23" y2="35.88" gradientUnits="userSpaceOnUse"><stop offset="0" stop-color="#b07908"/><stop offset=".08" stop-color="#c19325"/><stop offset=".22" stop-color="#ddbd53"/><stop offset=".33" stop-color="#eed66f"/><stop offset=".4" stop-color="#f4e07a"/><stop offset=".44" stop-color="#efd873"/><stop offset=".68" stop-color="#d5b354"/><stop offset=".88" stop-color="#c69c41"/><stop offset="1" stop-color="#c0943a"/></linearGradient></defs><g id="Layer_2-2"><path class="cls-2" d="m109.1,57.37c2.8,13.2-5.1,11.8-2.8,8.3,1.3-1.5,2.1-4.5,2.1-8.3-.1,0,.7,0,.7,0Zm18.6-4.5c-.3.4-.9.6-1.8.7-.5,9.2-1.7,13.9-3.6,15.5-1.1,1-2.6,1.3-4.2,1.3,0-.8-.1-1.5-.6-1.9s-1.7-.8-2.9-1v-.8c1.4.1,3.6.3,4.4.3s1.1-.1,1.5-.4c1.2-1,2.1-5.4,2.6-13.4h-11.7v1.5c0,.2-.9,1-2.3,1h-.4v-24.4l3.3,1.4h9.9l2.1-2.5s2.3,1.7,3.7,3.1c-.1.5-.6.8-1.2.8h-7.9v4.9h3.2l1.7-2.3s2.2,1.7,3.4,2.9c-.1.5-.6.8-1.2.8h-7.1v5h3l1.8-2.2s2.1,1.6,3.4,2.9c-.1.5-.6.8-1.2.8h-7v5.1h4.1l1.6-1.7,3.4,2.6h0Zm-15.9,4c4.5,6,1.6,11-.3,8.6.5-2.7.1-6.2-.4-8.4l.7-.2Zm-.3-22.9v4.9h4.5v-4.9h-4.5Zm4.5,6.3h-4.5v5h4.5v-5Zm-4.5,11.6h4.5v-5.1h-4.5v5.1Zm3.1,4.2c6,4.6,3.6,9.2,1.5,7.2,0-2.2-1.2-5.1-2.2-6.9l.7-.3h0Zm2.9-1c6.5,2.3,4.5,7,2.3,5.3-.3-1.6-1.6-3.7-2.9-4.9l.6-.4Zm19.2-6.2c2,8.7,6.2,16.7,13,19.9l-.1.5c-1.2.2-2.2,1.2-2.6,2.7-6.5-4.6-9.6-12.5-11.2-23.1h-2.9c-.2,7.9-1.4,16.9-8.3,23.2l-.7-.5c5.4-7,6.1-15.9,6.1-24.8v-15.6l3.5,1.5h10.2l1.6-1.8,3.7,2.8c-.2.4-1,.8-1.9.9v15.9c-.1.3-1.6,1-2.5,1h-.4v-2.6h-7.5Zm-3.8-1.4h11.2v-13.4h-11.2v13.4Z"/><path class="cls-2" d="m169.3,40.87c-.3.5-.8.7-1.9.5-1,1.6-2.4,3.5-4,5.4l1.3.5c-.2.4-.6.7-1.4.8v22.9c-.1.3-1.3,1.1-2.4,1.1h-.6v-21.8c-1.9,2-4,4-6.1,5.6l-.6-.6c4.4-4.8,8.9-11.9,11.1-16.7l4.6,2.3h0Zm-.9-9.2c-.3.5-.8.7-1.8.4-2.6,3-7.3,7.1-12,9.7l-.5-.6c3.9-3.3,8.1-8.3,10-11.9l4.3,2.4h0Zm15.5,35.3c2.1.6,4.6.8,7.5.8,1.5,0,4.8,0,6.6-.1v.7c-1.1.2-1.6,1.2-1.6,2.5h-5.4c-9,0-14.2-2.6-17.2-12.6-1.4,5.1-3.8,10.3-8.2,13.7l-.5-.5c4.7-5.4,6.4-14.1,6.8-21.5l4.9.9c-.1.7-.6,1-1.7,1.1-.2,1.5-.5,3.2-.9,4.8,1.6,4.6,3.7,7.4,6.7,9v-19l4.5.5c-.1.6-.5,1.1-1.5,1.2v6.6h5.8l2.1-2.7s2.4,2,4,3.3c-.1.5-.6.8-1.3.8h-10.7l.1,10.5h0Zm-13.8-30.5h9.9v-6.9l4.6.5c-.1.6-.5,1-1.5,1.2v5.2h6.2l2.1-2.7s2.4,1.9,4,3.3c-.1.5-.6.8-1.2.8h-11.1v7.2h8.2l2.1-2.7s2.5,1.9,4,3.4c-.1.5-.6.8-1.2.8h-28l-.4-1.4h12.2v-7.2h-9.5l-.4-1.5h0Z"/><path class="cls-2" d="m240.9,41.17s2.7,2,4.3,3.5c-.1.5-.6.8-1.3.8h-41.1l-.4-1.4h9v-11.2l4.5.5c-.1.6-.5,1-1.5,1.2v9.6h7.9v-14.9l4.8.5c-.1.6-.6,1.1-1.7,1.3v5.3h8l2.3-2.8s2.6,2,4.2,3.5c-.1.5-.6.8-1.3.8h-13.2v6.4h13.1l2.4-3.1h0Zm-22.7,8.5c-.2.4-.6.7-1.7.5-2.8,3.7-7.8,8.2-13.4,10.9l-.4-.6c4.7-3.4,9.2-8.9,11.3-13.1l4.2,2.3h0Zm-13.9,21.4c12-2.4,21.5-5.8,29-16.5l4.1,2.4c-.3.5-.8.6-2,.3-8.4,10.1-18.1,13.1-31,14.6l-.1-.8h0Zm11.5-12.8s4.6.3,5.6.3c.8,0,1-.2,1-.9v-12l4.6.5c-.1.7-.6.9-1.5,1.1v10.5c0,2.4-.6,3.9-4.8,4.3-.1-.9-.4-1.7-1-2.2s-1.7-.9-3.8-1.1l-.1-.5h0Zm15.4-10.2c14.5,3.8,13.6,11.7,9.8,9.9-1.7-3.3-6.6-7.2-10.3-9.4l.5-.5h0Z"/><path class="cls-2" d="m330.9,31.17c-.2.5-.6.8-1.8.7-3,6.4-8.9,14-17.1,18.4l-.4-.6c7-5.1,12.2-13.4,14.6-20.3l4.7,1.8h0Zm13.6,14.6l3.6,3c-.3.3-.9.6-1.9.7-.6,10.3-2,18.3-4.2,20.5-1.4,1.3-3.2,1.9-5.5,1.8,0-.9-.2-1.7-1-2.2s-3.2-1.1-5.3-1.4v-.8c2.4.2,6.5.6,7.7.6,1,0,1.4-.1,1.9-.6,1.6-1.3,2.8-8.9,3.3-18.2h-11.4c-.8,7.7-3.3,16.5-17.6,23l-.6-.8c12.6-6.9,14.5-15.3,14.9-22.2h-9.8l-.4-1.4h24.6l1.7-2h0Zm-6.3-16.6c2.9,7.2,10.3,13.8,17,17l-.1.5c-1.3.1-2.3.9-2.9,2.4-6.3-4.2-12.2-11.3-14.8-19.5l.8-.4h0Z"/><path class="cls-2" d="m5.2,23.77s.4.3.8.7c.3-.5.5-1,.8-1.5l1.2.6c-.1.2-.2.2-.5.1-.5,1-1.2,2-2,3h.8l.6-.7s.7.5,1.1.9c0,.1-.2.2-.3.2h-2.8l-1.5,1.5h2l.6-.5,1,.8c-.1.1-.3.2-.5.3v4.7c0,.1-.4.3-.7.3h-.2v-1h-2.8v.8c0,.1-.3.3-.7.3h-.1v-4.6c-.5.3-1,.6-1.5.9l-.1-.2c.5-.4,1.1-.8,1.6-1.2v-1l.7.3c.5-.5.9-.9,1.4-1.4H.6l-.1-.4h2.5v-1.8H1l-.1-.4h2.1v-1.9l1.3.1c0,.2-.2.3-.5.4v1.4h.7l.7-.7h0Zm-2.2,5.2l-.2.1v1.6h2.8v-1.7h-2.6Zm2.6,3.8v-1.8h-2.8v1.8h2.8Zm-1.2-6.1c.5-.6.9-1.2,1.3-1.8h-1.8v1.8h.5Zm8.2-2.7c-.1.1-.2.2-.6.2-.4.9-1.3,2.5-1.9,3.3,1.5,1.1,2.1,2.2,2.1,3.3,0,1.3-.5,1.9-1.9,2,0-.3-.1-.6-.2-.7-.1-.1-.4-.2-.8-.2v-.2h1.2q.2,0,.4-.1c.3-.1.4-.4.4-1,0-1-.4-2-1.6-3.1.4-.8.9-2.5,1.3-3.5h-2.1v10.2c0,.1-.3.3-.7.3h-.1v-11.4l1,.5h2.1l.5-.5.9.9h0Z"/><path class="cls-2" d="m25.4,25.37c-.1.1-.3.1-.5.1-.4.4-1,.9-1.5,1.3l-.2-.1c.2-.4.4-.9.6-1.3h-8.4c0,.8-.3,1.4-.7,1.6-.3.2-.8.3-.9,0-.1-.3.1-.5.3-.7.5-.3,1-1.1.9-2h.2c.1.2.1.4.2.7h5.7c.5-.7,1-1.6,1.3-2.4l1.3.5c-.1.1-.2.2-.5.2-.4.5-1.1,1.2-1.8,1.7h2.4l.6-.6,1,1h0Zm-2.3,4.5l1,.8c-.1.1-.3.2-.5.3v3.1c0,.1-.4.3-.7.3h-.1v-.7h-6.6v.5c0,.1-.4.3-.7.3h-.1v-4.4l.9.4h6.4l.4-.6h0Zm-7.6-7.1c2.5.9,1.8,2.6,1,2-.1-.6-.7-1.4-1.1-1.9l.1-.1Zm7.3,10.4v-2.4h-6.6v2.4h6.6Zm-.9-3.6v-.4h-4.9v.3c0,.1-.4.3-.7.3h-.1v-3.6l.9.4h4.7l.5-.5,1,.8c-.1.1-.3.2-.5.2v2.4c0,.1-.4.3-.7.3-.1-.2-.2-.2-.2-.2Zm0-.8v-1.9h-4.9v1.9h4.9Zm-3.5-6.2c2.3,1.1,1.4,2.8.7,2.1,0-.7-.5-1.5-.7-2.1h0Z"/><path class="cls-2" d="m32.8,26.77c.5,2.4,1.8,5.1,5.7,6.8v.1c-.5,0-.8.2-.9.7-3.6-2-4.6-5.1-5-7.6-.4,3-1.5,5.7-6,7.6l-.1-.2c3.8-2,4.9-4.5,5.2-7.4h-5l-.1-.4h5.1c.1-1.2.1-2.5.1-3.8l1.4.1c0,.2-.1.3-.4.4,0,1.1,0,2.2-.1,3.3h3.7l.7-.9s.8.6,1.3,1.1c0,.1-.1.2-.3.2h-5.3Z"/><path class="cls-2" d="m39.4,25.57c2.8.3,2.3,2.2,1.3,1.7-.2-.6-.9-1.2-1.5-1.6l.2-.1Zm4.2-.6c-.7,1.6-1.9,4.5-2.1,5.1-.1.4-.2.8-.2,1.1,0,.6.4,1.2.3,2.2,0,.6-.3.9-.8.9-.2,0-.4-.2-.4-.7.2-1.3.1-2.3-.2-2.5-.2-.1-.4-.2-.7-.2v-.3h.6q.2,0,.3-.2c.2-.3,1.1-2.2,2.8-5.5l.4.1h0Zm-3.2-2.2c3,.4,2.4,2.4,1.5,1.9-.2-.6-1-1.3-1.6-1.7,0-.1.1-.2.1-.2Zm10,9.4s.7.6,1.2,1c0,.1-.2.2-.3.2h-8.7l-.1-.4h4v-8.7h-3.2l-.1-.4h6.2l.6-.8s.7.5,1.1,1c0,.1-.2.2-.3.2h-3.4v8.7h2.5l.5-.8h0Z"/><path class="cls-2" d="m62.1,25.27l1.1.8c-.1.1-.3.2-.5.3v3.8c0,.1-.5.3-.7.3h-.1v-.9h-6.8c-.1,1.7-.7,3.6-2.6,4.9l-.2-.1c1.7-1.8,1.9-3.9,1.9-6v-2.9l1,.5h6.5l.4-.7h0Zm.7-2.5s.7.6,1.2,1c0,.1-.2.2-.3.2h-10.9l-.1-.4h9.5l.6-.8h0Zm-1.1,6.3v-2.9h-6.7v3l6.7-.1h0Z"/><path class="cls-2" d="m66.4,30.87c.3,1.3.1,2.2-.2,2.7-.2.3-.7.4-.8.2-.2-.2,0-.5.2-.7.3-.4.7-1.3.6-2.1l.2-.1h0Zm-1-1.6s.2-.1.3-.1c.6-.6,1.3-1.5,1.9-2.4-.4.1-.9.3-1.5.4-.1.2-.2.3-.3.3l-.4-1.1s.2,0,.3-.1c.7-.8,1.6-2.6,2-3.6l1.2.6c-.1.1-.2.2-.5.2-.5.9-1.4,2.1-2.2,2.9h1.7c.3-.5.6-1,.7-1.4l1.1.8c-.1.1-.2.2-.5.1-.7,1-1.9,2.5-3.1,3.5.7,0,1.6-.1,2.6-.2-.1-.5-.4-1-.6-1.4l.2-.1c2,1.5,1.2,3,.6,2.3,0-.2,0-.4-.1-.6-.7.2-1.7.5-2.7.7-.1.1-.2.2-.3.2l-.4-1h0Zm2.1,1.3c1.4,1.7.5,3.2-.1,2.4.1-.8.1-1.8-.1-2.4h.2Zm1.2-.2c1.8,1.2,1.1,2.7.4,2.1,0-.7-.3-1.5-.6-2,0,0,.1-.1.2-.1Zm8-.8c-.1.1-.3.2-.5.1-.3.3-1,.7-1.6,1.1.7.9,1.6,1.5,2.5,2v.1c-.3,0-.6.3-.7.7-1.2-.9-2.2-2.1-2.8-4.2v3.8c0,.7-.2,1.1-1.3,1.2,0-.2-.1-.5-.2-.6-.2-.1-.5-.2-1-.3v-.2s1.2.1,1.5.1c.2,0,.3-.1.3-.2v-3.3c-.1.1-.2.1-.5.2-.4,1.5-1.4,3-3.1,3.9l-.1-.2c1.3-.9,2.1-2.3,2.4-3.8h-1.6l-.1-.4h1.7l.5-.5.8.8v-1.7h-1.6v.5c0,.1-.2.2-.7.2h-.1v-5l.9.4h.9c.1-.4.3-1.1.3-1.6l1.3.3c0,.2-.2.3-.5.3-.2.3-.6.7-.8,1.1h2.4l.4-.5.9.7c-.1.1-.2.2-.5.2v3.9s-.3.2-.7.2h-.1v-.6h-1.5v.6c.2.7.5,1.4.9,1.9.4-.5,1-1.3,1.2-1.7l1.1.5h0Zm-5.5-5.1v1.4h3.9v-1.4h-3.9Zm3.9,3.2v-1.4h-3.9v1.4h3.9Z"/><path class="cls-2" d="m0,49.77h6.3v.7H.8v12.6h-.8v-13.3h0Z"/><path class="cls-2" d="m11.9,62.37c-.1.2-.3.3-.8.3-.5,1.4-1.6,3.3-3.1,4.5l-.2-.3c1.1-1.5,1.9-3.8,2.2-5.4l1.9.9h0Zm1.5-1.4v5.8c0,1-.2,1.7-1.9,1.9,0-.4-.1-.7-.3-.9-.2-.2-.7-.3-1.4-.4v-.3s1.5.1,1.9.1c.3,0,.4-.1.4-.4v-5.7h-3.6l-.2-.6h3.8v-2.5h-4.2l-.1-.6h5.9c.4-1.1.8-2.6,1-3.7l2,.6c-.1.2-.3.4-.7.4-.4.8-1.1,1.8-1.7,2.7h1.3l.9-1.2s1,.8,1.7,1.5c-.1.2-.2.3-.5.3h-4.1v2.5h1.8l.9-1.1s1,.8,1.6,1.4c-.1.2-.2.3-.5.3l-4-.1h0Zm-5-7.6l-.2-.6h7.1l.9-1.1s1,.8,1.6,1.4c-.1.2-.2.3-.5.3,0,0-8.9,0-8.9,0Zm1.5,0c3.2,2.1,1.8,4.5.8,3.4,0-1.1-.5-2.5-1-3.3l.2-.1h0Zm1.5-3.6c3.7,1.1,2.5,3.5,1.2,2.6-.2-.8-.9-1.8-1.4-2.4l.2-.2h0Zm2.8,12.1c3.7,1.8,2.4,4.7,1.1,3.6,0-1.1-.7-2.5-1.4-3.4l.3-.2h0Zm10.9-6.2s1.1.9,1.8,1.5c0,.2-.2.3-.5.3h-2.3v10.7c0,.1-.4.4-1.1.4h-.2v-11h-3v.6c0,3.6-.4,7.7-4.3,10.4l-.3-.2c2.8-2.8,3.2-6.4,3.2-10.2v-6.7l1.6.5c1.8-.6,3.7-1.5,4.8-2.2l1.6,1.3c-.2.2-.5.2-1,0-1.4.5-3.6,1-5.6,1.3v4.4h4.4l.9-1.1h0Z"/><path class="cls-2" d="m39.7,55.47s1,.8,1.6,1.4c0,.2-.2.3-.5.3h-3v3.3h.9l.9-1.1s1,.8,1.6,1.4c-.1.2-.2.3-.5.3h-2.8v3.7l3.2-.7.1.3c-1.7.7-4.2,1.6-7.4,2.7-.1.3-.2.4-.5.5l-.8-1.7c.3,0,.8-.1,1.3-.2v-6.7l1.8.2c0,.3-.2.4-.7.5v5.8l1.7-.3v-7.8h-3.3l-.2-.6h3.5v-3.3h-1.6c-.4.5-.9,1.1-1.3,1.5l.2.1c-.1.2-.3.3-.8.2-.4.8-1,1.7-1.6,2.6l.8.3c-.1.2-.3.3-.6.4v9.6c0,.1-.5.4-1,.4h-.2v-9.4c-.6.7-1.3,1.5-2,2.1l-.2-.2c1.6-2,3.2-5.1,3.9-7.1l1.3.7c.8-1.2,1.5-3,2-4.8l2,.7c-.1.2-.3.4-.7.4-.3.7-.7,1.3-1,1.8h3.2l.9-1.1s1,.8,1.6,1.3c0,.2-.2.3-.5.3h-2.7v3.3h1l.4-1.1h0Zm-6.1-4.7c-.1.2-.3.3-.8.2-.9,1.3-2.6,3.1-4.4,4.3l-.2-.3c1.4-1.5,2.9-3.7,3.5-5.2l1.9,1h0Zm13.5,1.4c-.1.2-.5.3-.9.4v11.3c0,1-.2,1.7-1.7,1.8,0-.4-.1-.7-.3-.9-.2-.2-.5-.3-1.2-.4v-.3s1.3.1,1.6.1.4-.1.4-.4v-11.5h-2.4v15.8c0,.2-.4.5-1,.5h-.2v-17.5l1.3.7h2.1l.7-.8,1.6,1.2h0Z"/><path class="cls-2" d="m53.6,57.97c-.1.2-.3.3-.6.3v9.9c0,.1-.5.5-1.1.5h-.2v-9.6c-.8.8-1.7,1.7-2.6,2.3l-.3-.2c1.9-2,3.8-5,4.7-7l2,1c-.1.2-.3.3-.8.2-.5.7-1.1,1.5-1.8,2.4l.7.2h0Zm1.5-7c-.1.2-.3.3-.8.2-1.1,1.3-3.2,3.2-5.2,4.4l-.2-.3c1.7-1.5,3.5-3.8,4.4-5.4l1.8,1.1h0Zm12.7,15.9v.3c-.5.1-.7.6-.8,1.1h-2.6c-3.8,0-6-1-7.3-4.9-.6,2.1-1.7,4-3.5,5.3l-.2-.2c2.3-2.3,3-6.2,3-9.5l2.2.3c-.1.3-.3.5-.7.5-.1,1-.3,2-.5,3,.7,1.8,1.6,2.8,2.9,3.4v-8.4l2,.2c0,.3-.2.5-.7.5v3h2.6l.9-1.2s1.1.8,1.7,1.5c0,.2-.2.3-.5.3h-4.8v4.5c.9.2,1.9.3,3.1.3h3.2Zm-12.1-13.6h4.5v-3.4l2,.2c0,.3-.2.5-.7.5v2.7h2.5l.9-1.2s1.1.8,1.7,1.5c0,.2-.2.3-.5.3h-4.6v3.1h3.5l.9-1.2s1.1.8,1.8,1.5c-.1.2-.2.3-.5.3h-12.8l-.2-.6h6v-3.1h-4.4l-.1-.6h0Z"/><path class="cls-2" d="m77.1,51.27l1.6,1.3c-.1.2-.4.3-.9.4v12.5c0,.1-.6.5-1.1.5h-.2v-1.4h-5v1.4c0,.2-.5.5-1,.5h-.2v-15l1.3.7h4.7c0-.1.8-.9.8-.9Zm-5.6,1.4v5.3h1.9v-5.3h-1.9Zm0,11.3h1.9v-5.4h-1.9v5.4Zm3.1-11.3v5.3h1.9v-5.3h-1.9Zm1.9,11.3v-5.4h-1.9v5.4h1.9Zm10-13.5s1.1.9,1.8,1.6c-.1.2-.3.3-.6.3h-3.3v14.1c0,1.1-.2,1.9-2.2,2.1,0-.4-.2-.8-.5-1-.4-.2-.9-.4-1.9-.6v-.3s2.3.2,2.8.2c.4,0,.5-.1.5-.5v-14h-4.5l-.2-.6h7l1.1-1.3h0Z"/><path class="cls-2" d="m96,68.77h-6.3v-.7h5.5v-12.7h.8v13.4h0Z"/><path class="cls-1" d="m263.34,28.94c3.94-1.18,7.87-1.77,12.4-1.77,15.55,0,25.49,7.68,25.49,21.46,0,14.57-11.22,23.13-27.36,23.13-12.7,0-20.47-6.1-21.75-16.44.98-2.66,3.25-3.94,5.81-3.94,3.54,0,5.51,1.97,6.4,7.38l1.67,8.46c1.77.59,3.54.89,5.81.89,9.74,0,15.75-6.79,15.75-18.01s-5.81-17.52-15.26-17.52c-3.84,0-7.38.39-11.02,1.67l-2.85-1.48,2.36-32.78h38.09v10.43h-34.25l-1.28,18.5Z"/></g></svg>