<?xml version="1.0" encoding="UTF-8"?><svg id="Layer_2" xmlns="http://www.w3.org/2000/svg" xmlns:xlink="http://www.w3.org/1999/xlink" viewBox="0 0 238.3 54.9"><defs><style>.cls-1{fill:url(#linear-gradient);}.cls-1,.cls-2,.cls-3{stroke-width:0px;}.cls-2{fill:url(#linear-gradient-2);}</style><linearGradient id="linear-gradient" x1="0" y1="15.25" x2="18.5" y2="15.25" gradientUnits="userSpaceOnUse"><stop offset="0" stop-color="#b07908"/><stop offset=".08" stop-color="#c19325"/><stop offset=".22" stop-color="#ddbd53"/><stop offset=".33" stop-color="#eed66f"/><stop offset=".4" stop-color="#f4e07a"/><stop offset=".44" stop-color="#efd873"/><stop offset=".68" stop-color="#d5b354"/><stop offset=".88" stop-color="#c69c41"/><stop offset="1" stop-color="#c0943a"/></linearGradient><linearGradient id="linear-gradient-2" x1="47" x2="65.5" xlink:href="#linear-gradient"/></defs><g id="Layer_2-2"><path class="cls-1" d="m2,29.2c8.1-2.7,11.9-7.2,12.9-13.6-1.6,1.6-3.7,2.5-6.2,2.5C3.8,18.1,0,14.7,0,9.2S3.8,0,9.3,0s9.2,4.5,9.2,11.7c0,8.5-4.8,15.9-16.1,18.8l-.4-1.3Zm13-15.4v-1.4c0-7.2-2.5-10.6-5.9-10.6-3.1,0-5.8,2.4-5.8,7.1s2.8,7.1,6.4,7.1c2.1,0,3.8-.8,5.3-2.2Z"/><path class="cls-3" d="m23.2,23.9c1.5,7-2.7,6.3-1.5,4.4.7-.8,1.1-2.4,1.1-4.4h.4Zm9.9-2.4c-.2.2-.5.3-1,.4-.2,4.9-.9,7.4-1.9,8.2-.6.5-1.4.7-2.2.7,0-.4-.1-.8-.3-1s-.9-.4-1.6-.5v-.4c.7,0,1.9.1,2.3.1s.6,0,.8-.2c.6-.5,1.1-2.8,1.4-7.1h-6.2v.8c0,.1-.5.5-1.2.5h-.2v-13l1.8.7h5.2l1.1-1.3s1.2.9,2,1.6c-.1.3-.3.4-.6.4h-4.2v2.6h1.7l.9-1.2s1.1.9,1.8,1.5c-.1.3-.3.4-.6.4h-3.8v2.7h1.6l.9-1.2s1.1.9,1.8,1.5c-.1.3-.3.4-.6.4h-3.7v2.9h2.2l.9-.9,1.7,1.4Zm-8.4,2.1c2.4,3.2.9,5.8-.1,4.6.3-1.4.1-3.3-.2-4.5l.3-.1Zm-.2-12.1v2.6h2.4v-2.6s-2.4,0-2.4,0Zm2.4,3.3h-2.4v2.7h2.4v-2.7Zm-2.4,6.2h2.4v-2.7h-2.4v2.7Zm1.7,2.2c3.2,2.4,1.9,4.9.8,3.8,0-1.1-.6-2.7-1.1-3.7l.3-.1Zm1.5-.5c3.5,1.2,2.4,3.7,1.2,2.8-.1-.9-.9-2-1.5-2.6l.3-.2Zm10.2-3.3c1,4.6,3.3,8.8,6.9,10.6l-.1.3c-.6.1-1.2.6-1.4,1.4-3.4-2.4-5.1-6.7-5.9-12.3h-1.6c-.1,4.2-.7,9-4.4,12.3l-.4-.2c2.9-3.7,3.2-8.4,3.2-13.2v-8.3l1.9.8h5.4l.9-1,2,1.5c-.1.2-.5.4-1,.5v8.4c0,.1-.8.5-1.3.5h-.2v-1.4h-4v.1h0Zm-2-.8h6v-7.1h-6v7.1Z"/><path class="cls-2" d="m49,29.2c8.1-2.7,11.9-7.2,12.9-13.6-1.6,1.6-3.7,2.5-6.2,2.5-4.9,0-8.7-3.4-8.7-8.9S50.8,0,56.3,0s9.2,4.5,9.2,11.7c0,8.5-4.8,15.9-16.1,18.8l-.4-1.3Zm13-15.4v-1.4c0-7.2-2.5-10.6-5.9-10.6-3.1,0-5.8,2.4-5.8,7.1s2.8,7.1,6.4,7.1c2.1,0,3.8-.8,5.3-2.2Z"/><path class="cls-3" d="m74.5,27.6c1.2-.3,2.6-.6,3.9-1l.1.4c-2.1.9-4.9,2.1-8.7,3.5-.1.3-.3.5-.5.6l-.8-2.1c.4-.1.9-.2,1.6-.3v-8.7l2.2.2c-.1.3-.3.5-.8.6v7.6l1.6-.4v-10.6h-1.5v.7c0,.1-.5.5-1.3.5h-.2v-8.7l1.8.8h3.7l.9-.9,1.9,1.5c-.2.2-.6.4-1,.5v6.1c0,.1-.8.4-1.3.4h-.2v-.9h-1.2v3.9h1l1-1.4s1.2,1,1.9,1.7c-.1.3-.3.4-.6.4h-3.3v5.6s-.2,0-.2,0Zm-3.1-11h4.3v-5.2h-4.3v5.2Zm18.1-4.1c-.2.2-.4.3-1,.3-.8,1.9-1.9,3.6-3.4,5.2,1.7,1.5,3.9,2.6,6.7,3.3l-.1.3c-.6.2-1.1.6-1.3,1.3-2.7-1-4.7-2.4-6.2-4.1-1.2,1.2-2.7,2.3-4.4,3.3l1.5.6h5.7l.8-.9,1.8,1.4c-.2.2-.4.3-.9.4v7.5c0,.1-.6.5-1.4.5h-.2v-1.7h-6.1v1.2c0,.1-.5.5-1.3.5h-.2v-9.3c-.9.5-1.9.9-3,1.3l-.2-.4c2.9-1.3,5.3-3.2,7.2-5.4-.8-1.1-1.5-2.3-2.1-3.5-1,1.4-2.2,2.6-3.5,3.5l-.3-.3c1.9-1.9,3.6-5.1,4.6-8.7l2.4.8c-.1.3-.4.5-1,.4-.2.6-.5,1.1-.7,1.6h3.8l1.1-1,1.7,1.9Zm-8.5,11v5.7h6.1v-5.7h-6.1Zm1.5-10.9c-.2.4-.5.9-.8,1.3.6,1.2,1.4,2.3,2.4,3.3,1.1-1.4,2-2.9,2.6-4.5h-4.2v-.1Z"/><path class="cls-3" d="m95.6,24.9c.7,2.4.3,4.3-.3,5.1-.4.5-1.2.8-1.6.3-.3-.4-.1-1,.4-1.4.6-.7,1.2-2.5,1.1-4.1h.4v.1h0Zm-1.9-3s.5-.1.6-.2c1.2-1.1,2.5-2.9,3.7-4.6-.8.2-1.8.5-2.8.7-.2.3-.4.5-.6.6l-.8-2.2s.4-.1.6-.2c1.4-1.5,3.1-5,3.8-6.9l2.3,1.1c-.1.2-.4.4-.9.4-1,1.7-2.6,4-4.2,5.6h3.2c.6-1,1.1-1.9,1.4-2.6l2.1,1.4c-.1.2-.5.3-.9.2-1.2,1.9-3.6,4.7-5.8,6.6,1.3-.1,3-.2,4.9-.3-.3-1-.7-2-1.1-2.6l.3-.1c3.8,2.8,2.4,5.7,1.1,4.5,0-.3-.1-.7-.1-1.1-1.4.4-3.3.9-5.2,1.3-.2.2-.4.4-.6.5l-1-2.1Zm4,2.5c2.7,3.2,1,6.1-.1,4.7.3-1.5.1-3.4-.2-4.6l.3-.1Zm2.3-.4c3.5,2.4,2.1,5.2.9,4,0-1.2-.6-2.9-1.2-3.9l.3-.1Zm15.4-1.5c-.1.2-.5.3-.9.1-.7.5-1.9,1.4-3,2.1,1.3,1.8,3.1,3,4.7,3.8l-.1.2c-.6.1-1.1.5-1.3,1.3-2.4-1.8-4.3-4-5.3-8v7.3c0,1.3-.3,2.2-2.4,2.4,0-.5-.1-.9-.4-1.2-.4-.3-.9-.5-2-.6v-.4s2.3.2,2.8.2c.4,0,.5-.1.5-.4v-6.4c-.2.2-.4.3-.9.3-.9,2.9-2.6,5.8-5.9,7.5l-.3-.4c2.5-1.8,4-4.5,4.6-7.3h-3.1l-.2-.7h3.2l1-.9,1.6,1.4v-3.2h-3.1v.9c0,.1-.5.4-1.2.4h-.2v-9.6l1.7.7h1.8c.2-.8.5-2.2.7-3.1l2.6.5c-.1.3-.4.5-.9.5-.4.6-1.1,1.4-1.6,2.1h4.7l.8-.9,1.7,1.3c-.2.2-.4.3-.9.4v7.4c0,.1-.6.4-1.3.4h-.2v-1.2h-2.9v1.1c.4,1.4,1,2.6,1.7,3.6.9-1,1.9-2.4,2.3-3.3l1.7,1.7Zm-10.5-9.7v2.6h7.5v-2.6s-7.5,0-7.5,0Zm7.5,6v-2.7h-7.5v2.7h7.5Z"/><path class="cls-3" d="m129.9,15.2s1.3,1.1,2.1,1.8c-.1.3-.3.4-.6.4h-5.1v1.8c6.2,2.6,5,6.4,3.3,5.1-.4-1.5-2-3.4-3.3-4.7v11.4c0,.1-.6.5-1.3.5h-.3v-11.3c-1.6,2.9-3.8,5.4-6.4,7.4l-.3-.3c2.7-2.6,4.9-6.3,6.2-9.9h-5.2l-.2-.7h6v-4.5c-1.9.4-4,.7-5.9.8l-.1-.4c3.8-.7,8.3-2.3,10.6-3.5l2.1,1.8c-.2.2-.7.2-1.3,0-1,.3-2.4.7-3.8,1v4.8h2.5l1-1.5Zm4.5,10.9c0,.2-.7.6-1.3.6h-.3v-15.6l2.4.3c-.1.3-.3.6-.9.7l.1,14h0Zm6.3-16.4c-.1.3-.3.6-.9.6v18.8c0,1.4-.3,2.2-2.6,2.4-.1-.5-.2-.9-.5-1.2-.4-.3-1.1-.5-2.3-.7v-.4s2.7.2,3.2.2.6-.2.6-.6V9.4l2.5.3Z"/><path class="cls-3" d="m164.4,11.3c-.2.2-.6.4-1.2.6v17.3c0,1.3-.2,2.2-2.6,2.4-.1-.5-.2-1-.6-1.2-.4-.3-1-.5-2.2-.6v-.4s2.6.2,3.2.2c.5,0,.6-.2.6-.6v-5.8h-6.4v7.7c0,.1-.5.5-1.4.5h-.2v-8.2h-6.2c-.4,3.1-1.5,6.1-4.2,8.4l-.3-.2c2.8-3.7,3.2-8.3,3.2-13v-8.4l1.9.8h13.3l.9-1.1,2.2,1.6Zm-10.7,11.2v-5.2h-5.9v1c0,1.3,0,2.7-.2,4.2h6.1Zm-5.9-11v5h5.9v-5h-5.9Zm7.5,0v5h6.4v-5h-6.4Zm6.3,11v-5.2h-6.4v5.2h6.4Z"/><path class="cls-3" d="m188.1,9.3s1.4,1.1,2.3,1.9c-.1.3-.3.4-.6.4h-3.3v17.4c0,1.3-.3,2.3-3,2.5,0-.5-.3-1-.7-1.2-.5-.3-1.3-.5-2.8-.7v-.4s3.4.2,4.1.2c.5,0,.7-.2.7-.6V11.6h-17l-.2-.7h19.1l1.4-1.6Zm-7.2,7.1c-.2.2-.6.4-1,.5v8.4c0,.1-.8.5-1.4.5h-.2v-1.9h-6.1v2.3c0,.1-.6.5-1.3.5h-.3v-11.5l1.7.8h5.7l.9-1,2,1.4Zm-2.6,6.8v-6.6h-6.1v6.6h6.1Z"/><path class="cls-3" d="m200.1,11.7c5.4,2.3,4.1,6.1,2.5,4.8-.1-.5-.2-1-.5-1.5-2,.4-4.9,1-8.2,1.4-.2.2-.3.3-.5.4l-.8-2.1s.4-.1.6-.2c1.6-1.2,3.6-4.3,4.4-5.9l2.3,1c-.1.2-.4.4-.9.3-1.1,1.4-3,3.4-4.7,4.7,1.9,0,4.8-.1,7.7-.3-.5-1-1.4-2-2.1-2.7l.2.1Zm1.3,5.6l2,1.6c-.1.2-.5.4-1,.5v10c0,1.3-.2,2.1-2.2,2.3,0-.5-.1-.9-.4-1.2-.3-.2-.8-.5-1.6-.6v-.4s1.8.1,2.2.1.4-.1.4-.4v-3.5h-5.1v5.5c0,.2-.6.5-1.3.5h-.2v-14.2l1.7.8h4.7l.8-1Zm-5.7,1.7v2.5h5.1v-2.5h-5.1Zm5.1,5.9v-2.6h-5.1v2.6h5.1Zm6.8-5.3c-1.9,0-2.3-.4-2.3-1.6v-8.7l2.4.3c0,.3-.3.5-.8.6v4c2.1-.9,4.4-2.4,5.6-3.5l2,1.4c-.2.2-.6.2-1.2.1-1.5.8-4,1.9-6.4,2.5v3c0,.4.1.5,1,.5h4.5c.2,0,.3-.1.4-.3.2-.3.4-1.4.7-2.5h.3l.1,2.6c.5.2.7.3.7.7,0,.7-.8,1-4.5,1l-2.5-.1h0Zm6.6,9.9c.5.2.7.4.7.7,0,.7-.8,1-4.6,1h-2.6c-1.9,0-2.4-.4-2.4-1.7v-9.2l2.4.3c-.1.3-.3.5-.8.6v4.2c2.2-1,4.5-2.6,5.6-3.8l2.1,1.4c-.2.2-.6.3-1.2.1-1.5,1-4,2.2-6.5,2.8v3.2c0,.4.1.5,1,.5h4.6c.3,0,.4-.1.5-.3.2-.3.5-1.5.7-2.8h.3l.2,3Z"/><path class="cls-3" d="m223.3,10.5c.4-.1,1-.3,1.5-.3.6,0,1.4.1,1.8.4.4.2.3.7-.6,3.8.7-.2,1.3-.5,1.8-.7.8-.3,1.2-.6,1.6-.6s.9.3.9.7-.6.8-.8.9c-.8.4-2.3.9-3.9,1.3-.9,2.7-2.6,7.2-4.7,10.2-.3.5-.6.9-1.1.9s-.7-.5-.7-1c0-.4.1-.8.4-1.2,1.5-2,3.6-5,4.7-8.7-.7.1-1.3.1-2,.1-1.9,0-2.7-.7-3.5-2.5l.4-.3c1.1.9,1.6,1.4,3.3,1.4.6,0,1.4-.1,2.1-.2.2-1,.4-2.1.5-2.7,0-.5-.1-.7-.5-.9-.3-.2-.8-.3-1.2-.4v-.2Zm8.9,4.3c1.2-.2,2.5-.1,3.4.3,1.5.6,2.3,1.5,2.3,2.5,0,.6-.2.9-.7.9-.6,0-1-.4-2.1-.3-.9.1-1.8.4-2.3,1-.5.5-.6,1.3-.6,2.2,0,.7.3,2.3.5,3.8,1.6.4,2.9,1.1,3.9,1.7,1.2.8,1.7,1.5,1.7,2.1,0,.5-.2.8-.6.8-.5,0-.8-.4-1.3-.9-.9-.9-2.1-1.7-3.5-2.3,0,.4.1.7.1,1,0,2.1-1.5,3.2-4,3.2s-4-1.3-4-2.7c0-1.9,2-3.3,5.3-3.3h1.1c-.1-1.1-.2-2.2-.2-3.2,0-1.4.4-2.3,1.2-3.1s1.9-1.2,2.7-1.6c.5-.3.4-.6,0-.9-.7-.5-1.7-.7-2.8-.7l-.1-.5Zm-.8,11.4c-.7-.1-1.4-.2-2.1-.2-2.3,0-3.4.9-3.4,1.8s.8,1.6,2.6,1.6c2.4,0,2.9-1.2,2.9-2.6v-.6Z"/><path class="cls-3" d="m172.9,43.8l8.7-8.7.8.8-8.7,8.7,8.7,8.7-.8.8-8.7-8.7-8.8,8.8-.8-.8,8.8-8.8-8.7-8.7.8-.8,8.7,8.7Zm-7.6,2.8c-1.1,0-2-.9-2-2s.9-2,2-2,2,.9,2,2-.9,2-2,2Zm5.6-9.5c0-1.1.9-2,2-2s2,.9,2,2-.9,2-2,2-2-.9-2-2Zm4,15.1c0,1.1-.9,2-2,2s-2-.9-2-2,.9-2,2-2,2,.9,2,2Zm5.5-9.6c1.1,0,2,.9,2,2s-.9,2-2,2-2-.9-2-2,.9-2,2-2Z"/><path class="cls-3" d="m2.5,36.4c.5.7.8,1.4,1.5,1.4,1.6,0,11.1-1,12.5-1.3.5-.1.7-.4,1.2-.4.7,0,2.4,1.5,2.4,2.2,0,.6-1,.7-1.5,1.1-1.1.8-3.2,2.4-5.5,3.6,0,.1,0,.2-.1.4-1.8,5-4.4,8.4-9.6,11.1l-.4-.5c4.9-3,7.9-8.8,7.9-10.5,0-.7-.9-1.1-2-1.5l.1-.5c.7,0,1.1,0,1.6.1.8.1,1.5.4,1.9.7,1.9-1.3,3.9-3,4.6-4,.3-.5.2-.6-.3-.6-1.2,0-8.2,1-10.9,1.5-1,.2-1,.6-1.6.6s-1.7-1-2.1-1.7c-.2-.4-.2-.9-.3-1.5l.6-.2Z"/><path class="cls-3" d="m27.9,34.5c.4,0,.9,0,1.5.1,1,.2,2.3,1,2.3,1.4s-.3.7-.7,1.3c-.3.4-.5.9-.8,1.3h.5c1.2,0,4.2-.3,4.9-.5.7-.1.8-.6,1.3-.6.6,0,2.1,1,2.1,1.6,0,.5-.8.6-1.2,1.3-3.4,6.1-8.4,11.2-15.3,14.1l-.4-.5c6.3-3.3,12.1-9.6,14-14.5.1-.3,0-.4-.2-.4-.9,0-3,.4-3.9.6-.5.1-1,.3-1.4.3-.3,0-.7-.2-1.1-.6-1.9,2.6-4.4,4.8-7.3,6.4l-.4-.5c3.8-2.8,7.4-7.8,7.4-9.2,0-.4-.6-.8-1.5-1.2l.2-.4Z"/><path class="cls-3" d="m54.2,46c1.5-1.6,2.9-3.3,3.7-4.7.2-.3.1-.5-.3-.4-1.4.2-5.1,1.4-7.3,2.2-.1,2.2-.2,4.5-.1,5.9,0,2,.3,2.2,3.3,2.2,3.4,0,4.5-.5,5.1-.5.7,0,1.6.3,1.6.9,0,.4-.5.7-1.1.8-1.1.2-3.3.4-4.9.4-3.9,0-5.3-.2-5.4-3.5,0-1.7,0-4.1.1-5.7-1.2.4-2.8,1-3.8,1.4-.9.4-.9.7-1.6.7-.6,0-1.9-1-2.2-1.7-.2-.3-.2-.8-.1-1.3l.4-.1c.5.7.9,1.2,1.5,1.2.9,0,4.2-1,5.9-1.5,0-2,.1-4.5,0-5.5,0-.6-.8-.8-2-.9v-.5c.7-.2,1.3-.3,1.8-.3.9,0,2.5.9,2.5,1.5s-.5.9-.6,1.6c-.1.7-.2,2.1-.3,3.7,2.1-.6,5.2-1.5,6.7-1.9.7-.2.9-.6,1.3-.6.7,0,2.4,1.3,2.4,1.9,0,.5-.7.6-1.3,1.2-1,1-2.8,2.7-4.8,4.1l-.5-.6Z"/><path class="cls-3" d="m64.8,41.2l.2-.5c1.3.3,2.3.6,3.3,1,1.5.7,2.4,1.5,2.4,2.4,0,.4-.2.8-.7.8-.8,0-1.2-.9-2.4-1.8-.9-.8-1.7-1.3-2.8-1.9Zm18.2-1.3l.6.4c-2.8,4.9-8,9.2-13.4,12.2-.5.3-.8.9-1.4.9-.8,0-2.3-1-2.8-1.8-.3-.4-.5-1.3-.5-1.6l.4-.2c.7.8,1.4,1.6,2.3,1.6,1.4-.1,10.3-5.4,14.8-11.5Zm-14.9-3.4l.3-.6c1.3.4,2.5.8,3.6,1.4,1.2.6,1.9,1.3,1.9,2.1,0,.4-.3.8-.7.8-.7,0-1.2-1-2.5-2-.8-.6-1.9-1.3-2.6-1.7Z"/><path class="cls-3" d="m98.5,38.9c.5.1.8.2,1.2.4.7.5,1.4,1.4,1.4,1.9s-.6.6-1.6,1.1c-1.7.9-5.2,2.5-9.3,3.6,0,1.5-.1,2.8-.1,3.4,0,2.4.5,2.6,3.5,2.6,3.9,0,5.6-.8,6.4-.8,1.2,0,1.9.3,1.9.8s-.3.7-.8.9c-1,.3-3.5.6-7.3.6-4.4,0-5-.7-5.1-4.2,0-2.2.3-10.3.1-11.4-.1-.7-.6-.8-1.9-1v-.4c.6-.1,1.2-.3,1.7-.3,1,0,2.4,1,2.4,1.6,0,.5-.5.6-.5,1.3-.1,1.1-.2,3.6-.3,6,3.3-1.2,6.6-2.8,8.2-4,.4-.3.5-.5.3-.9-.1-.3-.4-.6-.6-.8l.4-.4Zm1.5-2.8c1.2.5,2.1,1.1,2.8,1.7.6.6.8,1,.8,1.5,0,.4-.3.7-.7.7s-.6-.6-1.1-1.2c-.5-.7-1.2-1.4-2.2-2.2l.4-.5Zm2.1-1.8c1.2.5,2.2,1,2.8,1.5s.9,1,.8,1.5c0,.4-.2.6-.6.6s-.6-.6-1.2-1.2c-.5-.6-1.1-1.2-2.2-2l.4-.4Z"/><path class="cls-3" d="m109.1,37.1v-.5c.5-.1,1-.3,1.4-.3.9,0,2.4.9,2.4,1.5,0,.5-.3.7-.4,1.6-.1,1.1,0,6.5,0,7.5,0,.9-.3,1.2-.8,1.2s-1-.8-1-1.7c0-.7.2-1.6.2-3.6,0-1.1,0-3.5-.1-4.4,0-.6-.1-.8-.5-1-.3-.1-.7-.2-1.2-.3Zm2.8,17.8l-.3-.5c4.8-2.5,7.1-5.8,7.4-10.9.1-2.2.2-4.3.1-6,0-.4-.1-.8-.5-1-.3-.1-.8-.2-1.5-.3v-.5c.5-.2,1.2-.5,1.7-.5.9,0,2.6,1,2.6,1.5s-.4.7-.5,1.4c0,1.4-.1,3.9-.2,5.5-.4,5.6-3.2,9.2-8.8,11.3Z"/><path class="cls-3" d="m127.1,40.8c.5.7,1,1.3,1.6,1.3,1.7,0,7.9-.9,12.4-1.3,1.7-.2,2.1-.4,2.5-.4,1,0,2.4.5,2.4,1.3,0,.4-.1.6-.7.6-.4,0-1.3-.1-2.5-.1-1.1,0-3.2,0-5.4.3.7.4,1.2.8,1.2,1.2,0,.5-.6.6-.8,1.3-.9,2.6-2.4,6.7-8.3,9.9l-.5-.5c5.9-3.9,7.3-9.5,7.3-10.8,0-.3-.1-.6-.4-1-2,.2-4.3.6-5.1.8s-1.4.5-2,.5-1.7-1-1.9-1.6c-.1-.3-.1-.7-.2-1.2l.4-.3Zm3.8-5.2c.9.7,1.6,1,2.4,1,1.5,0,3.2-.3,4.4-.6,1.4-.3,1.8-.7,2.3-.7,1.1,0,1.9.4,1.9,1,0,.4-.3.6-1.1.7-1.9.3-5.3.9-7.5.9-1.3,0-1.9-.7-2.8-2l.4-.3Z"/><path class="cls-3" d="m154.1,39.7c.4,0,.8,0,1.3.2.8.3,1.7,1.1,1.7,1.7,0,.4-.3.4-.9.9-.7.8-1.6,1.8-2.8,2.9.5.4,1,.7,1,1s-.2.5-.2,1c-.1,2.7,0,5.5,0,6.5,0,.7-.2,1-.7,1-.7,0-1.1-.9-1.1-1.6,0-.3.2-.7.2-1.3.2-1.4.2-4.2.2-5.1,0-.3-.1-.5-.2-.8-1.2,1-3.9,3.1-7.1,4.3l-.2-.4c5.2-2.9,9.7-8,9.7-9,0-.4-.5-.8-1.1-1l.2-.3Z"/></g></svg>