<?xml version="1.0" encoding="UTF-8"?><svg id="Layer_2" xmlns="http://www.w3.org/2000/svg" viewBox="0 0 331.08 29.25"><defs><style>.cls-1{fill:#3d3d3d;}</style></defs><g id="Layer_2-2"><g><path class="cls-1" d="M17.29,.98c-.06,.38-.47,.51-1.26,.6,2.85,4.11,8.13,7.65,13.69,10.05l-.06,.44c-.95,.19-1.74,.92-1.96,1.71-5.12-2.75-9.96-7.11-12.24-11.82C12.42,6.67,6.16,12.11,.28,14.95l-.28-.44C5.31,11.35,11.79,4.68,13.53,0l3.76,.98h0Zm8.54,24.15s1.8,1.36,2.94,2.4c-.1,.35-.44,.47-.89,.47H1.23l-.28-.88H13.53v-6.8H5.25l-.25-.89H13.54v-6.01H5.73l-.22-.92h14.76l1.45-1.71s1.64,1.2,2.66,2.12c-.06,.35-.41,.51-.82,.51h-7.9v6.01h5.56l1.55-1.8s1.68,1.26,2.78,2.21c-.09,.32-.41,.47-.85,.47H15.66v6.8h8.57l1.61-1.99h0Z"/><path class="cls-1" d="M56.5,6.89l2.59,1.96c-.19,.25-.7,.51-1.33,.66v9.17c-.03,.22-1.14,.7-1.8,.7h-.32v-2.15h-16.6c-.35,4.14-1.68,8.76-6.29,12.01l-.41-.35c4.08-4.3,4.68-9.64,4.68-14.7V7.05l2.53,1.11h15.78l1.17-1.26h0Zm1.83-5.99s1.8,1.36,2.94,2.4c-.06,.35-.38,.51-.82,.51h-26.68l-.28-.95h23.24l1.61-1.96h0Zm-2.69,15.37v-7.18h-16.47v5.06c0,.66,0,1.39-.06,2.12h16.53Z"/><path class="cls-1" d="M88.95,13.12v6.54h1.36l1.36-1.9s1.61,1.33,2.56,2.31c-.09,.32-.35,.47-.79,.47h-27.73l-.25-.89h4.9v-6.54h-4.87l-.25-.88h5.12V6.38c-1.45,1.52-3.07,2.75-4.65,3.67l-.38-.38c2.34-2.09,4.93-5.66,6.58-9.52l3.13,1.45c-.19,.28-.6,.51-1.3,.41-.54,.88-1.11,1.71-1.74,2.5l.57,.25h16.85l1.52-1.9s1.68,1.36,2.69,2.31c-.06,.35-.38,.51-.82,.51h-3.86v6.54h1.45l1.42-1.9s1.68,1.33,2.66,2.28c-.06,.35-.35,.51-.79,.51h-4.74Zm-18.18,8.67c.7,3.89-1.14,6.13-2.66,6.96-.89,.57-2.06,.6-2.4-.13-.25-.63,.16-1.23,.82-1.64,1.64-.7,3.54-2.62,3.7-5.22l.54,.03h0Zm1.49-9.55h3.48V5.69h-3.48v6.54Zm0,7.43h3.48v-6.54h-3.48v6.54Zm2.72,2.43c4.71,4.08,2.37,8.31,.66,6.35,.19-1.99-.41-4.52-1.11-6.2l.44-.16h0Zm2.66-16.4v6.54h3.73V5.68h-3.73Zm0,7.43v6.54h3.73v-6.54h-3.73Zm3.16,8.92c6.42,3.45,4.65,8.06,2.66,6.32-.22-1.96-1.77-4.52-3.04-6.07l.38-.25Zm2.53-16.35v6.54h3.67V5.68h-3.67Zm3.67,7.43h-3.67v6.54h3.67v-6.54Zm0,8.54c8.95,3.16,7.59,8.85,5.06,7.21-.63-2.34-3.26-5.28-5.44-6.92l.38-.28h0Z"/><path class="cls-1" d="M108.59,17.61c-2.12,1.42-5.19,3.48-9.14,5.91-.09,.35-.32,.7-.63,.82l-1.33-2.62c.92-.32,2.53-.95,4.52-1.77V9.99h-3.76l-.22-.92h3.98V.79l3.19,.35c-.06,.44-.38,.73-1.17,.85v7.08h1.3l1.33-1.87s1.52,1.33,2.43,2.31c-.09,.32-.41,.47-.82,.47h-4.24v9.11c1.39-.6,2.91-1.23,4.39-1.9l.16,.41h.01Zm15.62-9.73s1.74,1.39,2.78,2.37c-.09,.35-.38,.51-.82,.51h-14.73v1.14c0,5.53-.66,12.33-7.02,16.91l-.44-.41c4.68-4.74,5.44-10.62,5.44-16.5V2.85l2.72,1.01c4.02-.82,8.38-2.15,10.78-3.26l2.66,2.47c-.32,.25-.92,.25-1.68-.03-3.19,.76-8,1.42-12.46,1.64v5.12h11.29l1.49-1.93h-.01Zm-.47,6.99l2.56,1.99c-.22,.28-.73,.54-1.39,.63v10.69c-.03,.22-1.01,.73-1.71,.73h-.32v-2.81h-8.54v2.34c0,.22-.79,.7-1.64,.7h-.35V15.19l2.15,.98h8.06l1.17-1.3h.01Zm-.85,10.3v-8.06h-8.54v8.06h8.54Z"/><path class="cls-1" d="M138.44,11.67c6.92,2.72,5.22,7.11,3.1,5.56-.41-1.58-1.87-3.64-3.1-4.96V28.49c0,.25-.82,.76-1.58,.76h-.44V13.95c-1.42,3.26-3.42,6.2-5.91,8.66l-.44-.41c2.88-3.73,4.84-8.79,5.91-13.75h-4.96l-.25-.95h5.66V.23l3.16,.38c-.06,.47-.32,.76-1.14,.89V7.51h1.93l1.39-1.8s1.64,1.3,2.59,2.25c-.09,.35-.38,.51-.79,.51h-5.12v3.2Zm18.61-6.04s1.58,1.36,2.53,2.28c-.09,.35-.38,.51-.79,.51h-4.39V26.16c0,1.68-.38,2.69-3.51,2.97-.13-.6-.32-1.08-.79-1.33-.57-.35-1.42-.57-3.1-.79v-.51s3.76,.28,4.49,.28c.66,0,.85-.22,.85-.76V12.17c-2.53,4.74-6.29,8.88-11.03,11.95l-.38-.44c4.81-3.89,8.57-9.67,10.59-15.27h-6.7l-.25-.92h7.78V.25l3.22,.35c-.09,.47-.38,.76-1.17,.89V7.5h1.33l1.33-1.87h0Z"/><path class="cls-1" d="M167.78,7.24c1.8,0,11.86-1.08,13.37-1.39,.82-.19,1.23-.7,1.77-.7,.92,0,3.13,1.64,3.13,2.53,0,.7-1.01,1.23-1.45,2.28-3.32,7.87-8.98,13.78-18.31,17.36l-.47-.76c9.04-4.55,14.86-11.32,16.82-18.72,.13-.47-.06-.54-.38-.54-1.39,0-10.37,1.26-12.17,1.68-.85,.19-1.55,.82-2.15,.82-.95,0-2.43-1.52-2.75-2.31-.16-.44-.25-.92-.32-1.8l.6-.22c.51,.76,1.2,1.77,2.31,1.77h0Z"/><path class="cls-1" d="M208.1,7.68c1.11-.09,1.23-.79,1.83-.79,.79,0,2.97,1.77,2.97,2.53s-.98,.95-1.17,1.8c-.28,1.39-.98,5.66-1.61,9.11,1.14,.09,1.93,.54,1.93,1.14,0,.54-.25,.92-.92,.92s-2.37-.19-3.83-.19c-2.47,0-6.73,.22-10.53,.44,.03,.41,.03,.79,.03,1.26,0,.79-.28,1.17-.95,1.17-.6,0-1.3-.85-1.3-2.15,0-.63,.09-2.59,.09-3.95-.03-2.37-.41-6.89-.89-8.76-.28-1.14-.82-1.87-1.71-2.66l.44-.54c1.33,.38,2.37,.7,3.41,1.64,3.13-.13,10.94-.82,12.17-.98h.04Zm.03,12.66c.6-3.6,1.33-8.95,1.33-10.72,0-.25-.09-.35-.38-.35-2.02,0-7.33,.41-9.07,.6-1.04,.09-1.93,.41-2.5,.41-.35,0-.82-.19-1.26-.41,.1,1.93,.38,7.68,.51,11.19,3.38-.22,8.44-.6,11.38-.73h-.01Z"/><path class="cls-1" d="M220.97,13.37c.7,1.08,1.2,2.06,2.53,2.06,2.81,0,13.88-.73,15.33-.79,2.12-.16,3-.35,3.83-.35,1.2,0,2.62,.54,2.62,1.39,0,.57-.32,.92-1.39,.92s-2.21-.06-4.14-.06-10.88,.47-13.25,.76c-1.8,.19-2.15,.66-3.07,.66s-2.37-1.55-2.81-2.62c-.22-.6-.25-1.14-.28-1.77l.63-.19h0Z"/><path class="cls-1" d="M252.56,5.66v-.63c.63-.19,1.3-.35,1.8-.35,1.17,0,3.1,1.14,3.1,1.93,0,.6-.38,.92-.47,2.09-.09,1.36-.03,8.32-.03,9.61,0,1.2-.44,1.58-1.01,1.58-.7,0-1.23-.98-1.23-2.15,0-.85,.25-2.09,.32-4.68,0-1.46-.06-4.55-.19-5.72-.06-.76-.09-1.01-.63-1.23-.47-.22-.98-.32-1.64-.44h-.02Zm3.64,22.85l-.41-.7c6.17-3.26,9.14-7.49,9.52-13.97,.16-2.88,.22-5.56,.1-7.75-.06-.54-.13-.98-.7-1.3-.35-.19-1.07-.32-1.9-.41l-.03-.63c.7-.32,1.58-.6,2.15-.6,1.2,0,3.29,1.23,3.29,1.9s-.54,.85-.6,1.87c-.06,1.87-.19,5.06-.28,7.02-.35,7.33-3.98,11.89-11.13,14.58h0Z"/><path class="cls-1" d="M299.68,8.12l.73,.47c-3.79,6.73-9.67,11.79-16.6,16.22-.63,.38-.98,1.17-1.68,1.17-1.23,0-3.13-1.49-3.76-2.43-.32-.54-.6-1.55-.66-2.05l.51-.32c.95,1.04,1.96,2.05,2.97,2.05,2.43,0,14.01-8.38,18.5-15.11h-.01Zm-21.25-2.97c3.6,1.01,7.97,3.16,7.97,5.6,0,.7-.44,1.17-1.11,1.17-.51,0-.92-.35-1.74-1.33-1.52-1.83-2.72-2.94-5.5-4.77l.38-.66h0Z"/><path class="cls-1" d="M311.7,2.81c.57,0,1.2,0,1.9,.13,1.23,.28,2.91,1.23,2.91,1.8,0,.54-.44,.85-.92,1.64-.35,.57-.7,1.17-1.08,1.71,.22,.03,.41,.03,.6,.03,1.52,0,5.41-.44,6.29-.6,.85-.19,1.07-.73,1.61-.73,.76,0,2.75,1.3,2.75,2.12,0,.63-1.04,.82-1.49,1.64-4.33,7.87-10.75,14.39-19.67,18.08l-.47-.7c8.12-4.24,15.55-12.39,18.02-18.65,.16-.38,.03-.47-.25-.47-.7,0-3.92,.51-5.06,.73-.66,.16-1.33,.41-1.77,.41-.35,0-.85-.32-1.36-.76-2.5,3.35-5.66,6.2-9.36,8.22l-.47-.66c4.93-3.54,9.58-9.99,9.58-11.82,0-.54-.82-1.04-1.93-1.52l.16-.6h0Zm11.86,.38c1.64,.63,2.85,1.33,3.64,2.05,.79,.76,1.08,1.3,1.08,1.93,0,.51-.28,.82-.76,.82-.44,0-.82-.7-1.45-1.52-.66-.79-1.52-1.77-2.91-2.78l.41-.51h-.01Zm2.72-1.98c1.64,.57,2.81,1.26,3.6,1.83,.85,.66,1.2,1.3,1.2,1.96,0,.54-.28,.82-.73,.82-.54,0-.85-.73-1.55-1.52s-1.45-1.52-2.91-2.56l.38-.54h0Z"/></g></g></svg>