<svg width="40" height="40" viewBox="0 0 40 40" fill="none" xmlns="http://www.w3.org/2000/svg">
<circle cx="20" cy="20" r="20" fill="white"/>
<path d="M21.7192 29.9841C21.62 29.9881 21.5565 29.996 21.493 29.996C20.1355 29.996 18.7821 29.9921 17.4247 30C17.2342 30 17.1826 29.9484 17.1826 29.7579C17.1865 26.5985 17.1865 23.4352 17.1865 20.2759C17.1865 20.1925 17.1865 20.1092 17.1865 20.002C16.4483 20.002 15.7299 20.002 14.9996 20.002C14.9996 18.8748 14.9996 17.7674 14.9996 16.6283C15.075 16.6283 15.1465 16.6283 15.2139 16.6283C15.8093 16.6283 16.4046 16.6243 17 16.6323C17.1508 16.6323 17.1905 16.5886 17.1905 16.4418C17.1826 15.5567 17.1826 14.6676 17.1905 13.7825C17.1945 13.1633 17.2937 12.56 17.5795 12.0004C17.9883 11.2106 18.6352 10.6986 19.4529 10.381C20.1197 10.1191 20.8222 10.0238 21.5287 10.0119C22.6797 9.99604 23.8307 10.004 24.9817 10C25.0889 10 25.1762 9.99604 25.1762 10.1469C25.1722 11.2384 25.1722 12.3298 25.1722 13.4213C25.1722 13.4332 25.1683 13.4451 25.1524 13.4967C25.0849 13.4967 25.0095 13.4967 24.9341 13.4967C24.2197 13.4967 23.5053 13.4928 22.7908 13.4967C22.378 13.4967 22.0446 13.6634 21.8343 14.0246C21.7708 14.1318 21.7311 14.2707 21.7311 14.3977C21.7192 15.0724 21.7311 15.7472 21.7232 16.4219C21.7232 16.5807 21.7708 16.6243 21.9256 16.6243C22.9178 16.6164 23.9101 16.6204 24.9024 16.6204C24.9817 16.6204 25.0571 16.6204 25.1921 16.6204C25.0532 17.7555 24.9182 18.8668 24.7793 19.9901C23.7474 19.9901 22.7432 19.9901 21.7192 19.9901C21.7192 23.328 21.7192 26.6462 21.7192 29.9841Z" fill="#1238A6"/>
</svg>
