<svg width="40" height="40" viewBox="0 0 40 40" fill="none" xmlns="http://www.w3.org/2000/svg">
<circle cx="20" cy="20" r="20" fill="white"/>
<g clip-path="url(#clip0_2_53)">
<path d="M19.9933 14.8579C18.9776 14.8579 17.9847 15.1591 17.1402 15.7234C16.2957 16.2876 15.6375 17.0897 15.2488 18.028C14.8602 18.9664 14.7585 19.9989 14.9566 20.9951C15.1548 21.9912 15.6439 22.9063 16.362 23.6244C17.0802 24.3426 17.9953 24.8317 18.9914 25.0299C19.9876 25.228 21.0201 25.1263 21.9585 24.7376C22.8968 24.349 23.6988 23.6908 24.2631 22.8463C24.8274 22.0018 25.1286 21.0089 25.1286 19.9932C25.1286 19.3188 24.9957 18.6511 24.7377 18.028C24.4796 17.405 24.1013 16.8389 23.6245 16.362C23.1476 15.8852 22.5815 15.5069 21.9585 15.2488C21.3354 14.9907 20.6676 14.8579 19.9933 14.8579ZM19.9933 23.3288C19.3335 23.3288 18.6886 23.1332 18.1401 22.7667C17.5916 22.4001 17.164 21.8792 16.9116 21.2697C16.6591 20.6602 16.5931 19.9895 16.7218 19.3425C16.8505 18.6954 17.1682 18.1011 17.6346 17.6346C18.1011 17.1681 18.6955 16.8504 19.3425 16.7217C19.9896 16.593 20.6602 16.6591 21.2697 16.9115C21.8792 17.164 22.4002 17.5915 22.7667 18.1401C23.1332 18.6886 23.3288 19.3335 23.3288 19.9932C23.3288 20.8779 22.9774 21.7263 22.3519 22.3518C21.7263 22.9774 20.8779 23.3288 19.9933 23.3288Z" fill="#1238A6"/>
<path d="M25.3316 15.8658C25.993 15.8658 26.5291 15.3297 26.5291 14.6683C26.5291 14.0069 25.993 13.4707 25.3316 13.4707C24.6702 13.4707 24.134 14.0069 24.134 14.6683C24.134 15.3297 24.6702 15.8658 25.3316 15.8658Z" fill="#1238A6"/>
<path d="M29.4723 13.4506C29.2152 12.7869 28.8225 12.1841 28.3192 11.6808C27.8159 11.1775 27.2131 10.7848 26.5494 10.5277C25.772 10.2359 24.9507 10.078 24.1204 10.0609C23.0514 10.0135 22.7131 10 20 10C17.2869 10 16.9418 10 15.8796 10.0609C15.0493 10.078 14.228 10.2359 13.4506 10.5277C12.7869 10.7848 12.1841 11.1775 11.6808 11.6808C11.1775 12.1841 10.7848 12.7869 10.5277 13.4506C10.2359 14.228 10.078 15.0493 10.0609 15.8796C10.0135 16.9486 10 17.2869 10 20C10 22.7131 10 23.0582 10.0609 24.1204C10.078 24.9507 10.2359 25.772 10.5277 26.5494C10.7848 27.2131 11.1775 27.8159 11.6808 28.3192C12.1841 28.8225 12.7869 29.2152 13.4506 29.4723C14.226 29.7757 15.0474 29.945 15.8796 29.9729C16.9486 30.0203 17.2869 30.0338 20 30.0338C22.7131 30.0338 23.0582 30.0338 24.1204 29.9729C24.9507 29.9558 25.772 29.798 26.5494 29.5061C27.2131 29.2491 27.8159 28.8564 28.3192 28.3531C28.8225 27.8498 29.2152 27.247 29.4723 26.5832C29.7641 25.8058 29.922 24.9845 29.9391 24.1543C29.9865 23.0852 30 22.747 30 20.0338C30 17.3207 30 16.9756 29.9391 15.9134C29.9258 15.0718 29.7679 14.2387 29.4723 13.4506ZM28.1191 24.0392C28.1133 24.6792 27.9965 25.3133 27.774 25.9134C27.6075 26.3455 27.3523 26.7379 27.0248 27.0654C26.6973 27.3929 26.3049 27.6481 25.8728 27.8146C25.2791 28.0348 24.6521 28.1516 24.0189 28.1597C22.9635 28.207 22.6658 28.2206 19.9594 28.2206C17.253 28.2206 16.9756 28.2206 15.8999 28.1597C15.2667 28.1516 14.6397 28.0348 14.046 27.8146C13.6124 27.6492 13.2185 27.3945 12.8898 27.067C12.5611 26.7394 12.3049 26.3464 12.138 25.9134C11.9178 25.3197 11.8011 24.6927 11.793 24.0595C11.7456 23.0041 11.7321 22.7064 11.7321 20C11.7321 17.2936 11.7321 17.0162 11.793 15.9405C11.7988 15.3005 11.9155 14.6664 12.138 14.0663C12.3049 13.6333 12.5611 13.2403 12.8898 12.9127C13.2185 12.5852 13.6124 12.3305 14.046 12.1651C14.6397 11.9449 15.2667 11.8282 15.8999 11.82C16.9553 11.7727 17.253 11.7591 19.9594 11.7591C22.6658 11.7591 22.9432 11.7591 24.0189 11.82C24.6521 11.8282 25.2791 11.9449 25.8728 12.1651C26.3049 12.3316 26.6973 12.5869 27.0248 12.9143C27.3523 13.2418 27.6075 13.6342 27.774 14.0663C27.9942 14.66 28.111 15.287 28.1191 15.9202C28.1664 16.9756 28.18 17.2733 28.18 19.9797C28.18 22.6861 28.18 22.977 28.1326 24.0392H28.1191Z" fill="#1238A6"/>
</g>
<defs>
<clipPath id="clip0_2_53">
<rect width="20" height="20" fill="white" transform="translate(10 10)"/>
</clipPath>
</defs>
</svg>
