<svg xmlns="http://www.w3.org/2000/svg" viewBox="0 0 40 40"><defs><style>.cls-1{fill:#fff;}.cls-2{fill:#1238a6;}</style></defs><g id="Layer_2" data-name="Layer 2"><g id="Layer_1-2" data-name="Layer 1"><circle class="cls-1" cx="20" cy="20" r="20"/><path class="cls-2" d="M29.71,15c0,.22,0,.43,0,.65a14.26,14.26,0,0,1-21.95,12A9.61,9.61,0,0,0,9,27.74a10.05,10.05,0,0,0,6.22-2.14,5,5,0,0,1-4.69-3.47,7.32,7.32,0,0,0,1,.07A5.25,5.25,0,0,0,12.79,22a5,5,0,0,1-4-4.92v-.06a5.07,5.07,0,0,0,2.26.64A5,5,0,0,1,9.48,11a14.27,14.27,0,0,0,10.33,5.24,6.23,6.23,0,0,1-.12-1.15,5,5,0,0,1,8.67-3.43,9.57,9.57,0,0,0,3.18-1.21,5,5,0,0,1-2.2,2.77,10,10,0,0,0,2.88-.78A10.65,10.65,0,0,1,29.71,15Z"/></g></g></svg>