<svg width="40" height="40" viewBox="0 0 40 40" fill="none" xmlns="http://www.w3.org/2000/svg">
<circle cx="20" cy="20" r="20" fill="white"/>
<g clip-path="url(#clip0_2_59)">
<path d="M28.8556 13.4771C27.8308 12.6494 24.2169 12 20 12C15.7831 12 12.1692 12.6494 11.1444 13.4771C10.2027 14.2363 10 17.6689 10 19.6172C10 21.5654 10.2027 24.998 11.1444 25.7573C12.1692 26.585 15.7831 27.2344 20 27.2344C24.2169 27.2344 27.8308 26.585 28.8556 25.7573C29.7974 24.998 30 21.5654 30 19.6172C30 17.6689 29.7974 14.2363 28.8556 13.4771ZM23.0005 19.7112L18.3582 22.4822C18.324 22.5017 18.2825 22.5029 18.2483 22.4834C18.2141 22.4639 18.1927 22.4272 18.1927 22.3882V19.6172V16.8462C18.1927 16.8065 18.2141 16.7705 18.2483 16.7509C18.2825 16.7314 18.324 16.7326 18.3582 16.7521L23.0005 19.5232C23.0335 19.5427 23.0536 19.5781 23.0536 19.6171C23.0536 19.655 23.0334 19.6916 23.0005 19.7112Z" fill="#1238A6"/>
</g>
<defs>
<clipPath id="clip0_2_59">
<rect width="20" height="15.2344" fill="white" transform="translate(10 12)"/>
</clipPath>
</defs>
</svg>
