<svg width="222" height="50" viewBox="0 0 222 50" fill="none" xmlns="http://www.w3.org/2000/svg">
<g clip-path="url(#clip0_196_1261)">
<path d="M143.844 35.4062H146.016L138.094 13.25H135.922L131.016 26.9375H127.906V28.9844H130.281L127.984 35.3906H130.156L132.453 28.9844H141.547L143.844 35.3906V35.4062ZM133.187 26.9531L137 16.2969L140.813 26.9531H133.187Z" fill="white"/>
<path d="M66.3125 13.25H64.2188V35.4062H81.8125V33.3438H66.3125V13.25Z" fill="white"/>
<path d="M92.2031 35.4062C88.3125 35.4062 85.1562 32.25 85.1562 28.3594V26.3594C85.1562 22.4688 88.3125 19.3125 92.2031 19.3125C96.0937 19.3125 99.25 22.4688 99.25 26.3594V28.3594C99.25 32.25 96.0937 35.4062 92.2031 35.4062ZM92.2031 21.375C89.4531 21.375 87.2031 23.6094 87.2031 26.375V28.375C87.2031 31.125 89.4375 33.375 92.2031 33.375C94.9687 33.375 97.2031 31.125 97.2031 28.375V26.375C97.2031 23.625 94.9687 21.375 92.2031 21.375Z" fill="white"/>
<path d="M111.531 19.3125C107.641 19.3125 104.484 22.4688 104.484 26.3594V28.3594C104.484 32.25 107.641 35.4062 111.531 35.4062H116.531V36.0938C116.531 37.4063 115.453 38.4844 114.141 38.4844H105.828V40.5313H114.141C116.594 40.5313 118.578 38.5313 118.578 36.0938V19.3125H111.531ZM111.531 33.3438C108.781 33.3438 106.531 31.0938 106.531 28.3438V26.3438C106.531 23.5938 108.766 21.3438 111.531 21.3438H116.531V33.3281H111.531V33.3438Z" fill="white"/>
<path d="M161.078 35.3906H152.797V33.3438H161.078C162.578 33.3438 163.812 32.125 163.812 30.6094C163.812 29.0938 162.594 27.875 161.078 27.875H156C153.641 27.875 151.719 25.9531 151.719 23.5938C151.719 21.2344 153.641 19.3125 156 19.3125H164.844V21.3594H156C154.766 21.3594 153.766 22.3594 153.766 23.5938C153.766 24.8281 154.766 25.8281 156 25.8281H161.078C163.719 25.8281 165.859 27.9688 165.859 30.6094C165.859 33.25 163.719 35.3906 161.078 35.3906Z" fill="white"/>
<path d="M181.547 35.3906H173.266V33.3438H181.547C183.047 33.3438 184.281 32.125 184.281 30.6094C184.281 29.0938 183.063 27.875 181.547 27.875H176.469C174.109 27.875 172.188 25.9531 172.188 23.5938C172.188 21.2344 174.109 19.3125 176.469 19.3125H185.313V21.3594H176.469C175.234 21.3594 174.234 22.3594 174.234 23.5938C174.234 24.8281 175.234 25.8281 176.469 25.8281H181.547C184.188 25.8281 186.328 27.9688 186.328 30.6094C186.328 33.25 184.188 35.3906 181.547 35.3906Z" fill="white"/>
<path d="M205.547 35.3906H197.047C194.594 35.3906 192.609 33.4062 192.609 30.9531V24.0938C192.609 21.4531 194.75 19.3125 197.391 19.3125H201.922C204.562 19.3125 206.703 21.4531 206.703 24.0938C206.703 26.7344 204.562 28.875 201.922 28.875H194.656V30.9688C194.656 32.2812 195.734 33.3594 197.047 33.3594H205.547V35.4062V35.3906ZM194.672 26.8125H201.938C203.438 26.8125 204.672 25.5938 204.672 24.0781C204.672 22.5625 203.453 21.3438 201.938 21.3438H197.406C195.906 21.3438 194.672 22.5781 194.672 24.0781V26.8125Z" fill="white"/>
<path d="M221.844 35.3906H220.141C217.687 35.3906 215.703 33.4062 215.703 30.9531V14.1562H217.75V30.9688C217.75 32.2812 218.828 33.3594 220.141 33.3594H221.844V35.4062V35.3906Z" fill="white"/>
<path d="M221.828 19.3125H212.906V21.3594H221.828V19.3125Z" fill="white"/>
<path d="M31.9531 44.7188C34.1875 43.8906 36.25 42.6875 38.0625 41.2031V11.875L31.9531 17.9844V44.7188Z" fill="white"/>
<path d="M30.2344 28.8281V19.6875L21.1094 28.8281H30.2344Z" fill="white"/>
<path d="M19.3906 30.5469L9.625 40.3125C11.125 41.7031 12.8281 42.875 14.6719 43.7969L27.9375 30.5312H19.4062L19.3906 30.5469Z" fill="white"/>
<path d="M24.3594 46.0937C26.3906 46.0937 28.375 45.7969 30.2344 45.2812V30.6562L16.3281 44.5625C18.8125 45.5469 21.5156 46.1094 24.3438 46.1094L24.3594 46.0937Z" fill="white"/>
<path d="M10.3594 30.5469V7.76562C5.64063 11.75 2.625 17.7031 2.625 24.3594C2.625 30.0469 4.82813 35.2188 8.40625 39.0938L16.9687 30.5313H10.3594V30.5469Z" fill="white"/>
<path d="M18.1719 3.53125C15.9688 4.1875 13.9062 5.17188 12.0625 6.45313V28.8281H18.1719V3.53125Z" fill="white"/>
<path d="M24.3594 0C10.9219 0 0 10.9219 0 24.3594C0 37.7969 10.9219 48.7188 24.3594 48.7188C37.7969 48.7188 48.7188 37.7969 48.7188 24.3594C48.7188 10.9219 37.7969 0 24.3594 0ZM24.3594 47.7969C11.4375 47.7969 0.921875 37.2812 0.921875 24.3594C0.921875 11.4375 11.4375 0.921875 24.3594 0.921875C37.2812 0.921875 47.7969 11.4375 47.7969 24.3594C47.7969 37.2812 37.2812 47.7969 24.3594 47.7969Z" fill="white"/>
<path d="M19.8906 3.09375V27.6094L39.0938 8.40625C35.2188 4.82813 30.0313 2.625 24.3594 2.625C22.8281 2.625 21.3281 2.78125 19.8906 3.09375ZM31.6406 10.25C31.5625 10.2031 31.4219 10.1719 31.25 10.1719V9.78125C31.4375 9.78125 31.5625 9.76562 31.6406 9.71875C31.7656 9.64062 31.8125 9.53125 31.8125 9.35938C31.8125 9.23438 31.7656 9.125 31.6875 9.04688C31.6094 8.96875 31.5 8.92188 31.3594 8.92188C31.2344 8.92188 31.1406 8.95313 31.0625 9.01562C31 9.07812 30.9531 9.1875 30.9219 9.32812H30.4688C30.5156 9.04688 30.6094 8.84375 30.75 8.70313C30.8906 8.57813 31.0938 8.5 31.3594 8.5C31.625 8.5 31.8438 8.57813 32 8.73438C32.1719 8.89063 32.25 9.09375 32.25 9.32812C32.25 9.59375 32.1406 9.8125 31.9219 9.96875C32.1719 10.1094 32.2969 10.3594 32.2969 10.6875C32.2969 10.9531 32.2031 11.1719 32.0313 11.3438C31.8438 11.5156 31.625 11.6094 31.3281 11.6094C30.9687 11.6094 30.7031 11.4688 30.5156 11.2031C30.4375 11.0938 30.3906 10.9375 30.375 10.7344H30.8125C30.8281 10.875 30.8906 11 30.9844 11.0625C31.0781 11.1406 31.1875 11.1719 31.3438 11.1719C31.5 11.1719 31.6094 11.125 31.7031 11.0312C31.7969 10.9375 31.8437 10.7969 31.8437 10.6563C31.8437 10.4531 31.7656 10.3125 31.625 10.2188L31.6406 10.25ZM29.3281 9.07812C29.2344 8.98438 29.1094 8.9375 28.9688 8.9375C28.6719 8.9375 28.4844 9.10938 28.4531 9.46875H28C28.0781 8.82812 28.3906 8.51562 28.9531 8.51562C29.2344 8.51562 29.4531 8.60938 29.6406 8.78125C29.8281 8.95312 29.9219 9.17188 29.9219 9.42188C29.9219 9.57813 29.875 9.75 29.7969 9.90625C29.75 9.98438 29.6875 10.0781 29.6094 10.2031C29.5313 10.3125 29.4219 10.4531 29.2812 10.5938L28.8125 11.1406H29.9375V11.5625H27.9219L28.9688 10.2969C29.0781 10.1719 29.1563 10.0625 29.2188 9.96875C29.2813 9.875 29.3438 9.79688 29.375 9.73438C29.4531 9.60938 29.4844 9.5 29.4844 9.40625C29.4844 9.26562 29.4375 9.15625 29.3438 9.0625L29.3281 9.07812ZM25.8125 8.90625C26.0156 8.65625 26.25 8.51562 26.5312 8.51562C26.8125 8.51562 27.0625 8.64062 27.25 8.90625C27.4688 9.1875 27.5781 9.57812 27.5781 10.0781C27.5781 10.5781 27.4688 10.9531 27.25 11.2344C27.0469 11.5 26.8125 11.625 26.5312 11.625C26.25 11.625 26 11.5 25.7969 11.2344C25.5781 10.9531 25.4687 10.5625 25.4687 10.0469C25.4687 9.53125 25.5781 9.1875 25.7969 8.90625H25.8125ZM24.9688 9.42188C24.9688 9.57813 24.9219 9.75 24.8438 9.90625C24.7969 9.98438 24.7344 10.0781 24.6563 10.2031C24.5781 10.3125 24.4688 10.4531 24.3281 10.5938L23.8594 11.1406H24.9844V11.5625H22.9688L24.0156 10.2969C24.125 10.1719 24.2031 10.0625 24.2813 9.96875C24.3438 9.875 24.4063 9.79688 24.4375 9.73438C24.5156 9.60938 24.5469 9.5 24.5469 9.40625C24.5469 9.26562 24.5 9.15625 24.4063 9.0625C24.3125 8.96875 24.1875 8.92188 24.0469 8.92188C23.75 8.92188 23.5625 9.09375 23.5313 9.45313H23.0781C23.1563 8.8125 23.4688 8.5 24.0313 8.5C24.3125 8.5 24.5313 8.59375 24.7188 8.76563C24.9062 8.9375 25 9.15625 25 9.40625L24.9688 9.42188Z" fill="white"/>
<path d="M39.7812 9.0625V39.6562C43.6875 35.7187 46.0938 30.3125 46.0938 24.3594C46.0938 18.4062 43.6719 12.9844 39.7812 9.0625Z" fill="white"/>
<path d="M26.5312 11.2188C26.7031 11.2188 26.8594 11.1094 26.9688 10.8906C27.0938 10.6719 27.1406 10.4062 27.1406 10.0781C27.1406 9.75 27.0781 9.48438 26.9688 9.26563C26.8594 9.04688 26.7031 8.9375 26.5312 8.9375C26.3594 8.9375 26.2031 9.04688 26.0938 9.26563C25.9844 9.48438 25.9219 9.75 25.9219 10.0625C25.9219 10.375 25.9844 10.6719 26.0938 10.8906C26.2031 11.1094 26.3594 11.2188 26.5312 11.2188Z" fill="white"/>
</g>
<defs>
<clipPath id="clip0_196_1261">
<rect width="221.875" height="50" fill="white"/>
</clipPath>
</defs>
</svg>
