<?xml version="1.0" encoding="UTF-8"?><svg id="a" xmlns="http://www.w3.org/2000/svg" viewBox="0 0 236.26 58.87"><defs><style>.b{fill:#0080c8;}.c{fill:#59595b;}</style></defs><g><path class="b" d="M29.43,58.87C13.2,58.87,0,45.66,0,29.43S13.2,0,29.43,0s29.43,13.21,29.43,29.43-13.2,29.43-29.43,29.43ZM29.43,1.11C13.82,1.11,1.11,13.82,1.11,29.43s12.71,28.32,28.32,28.32,28.32-12.71,28.32-28.32S45.05,1.11,29.43,1.11Z"/><g><path class="b" d="M25.55,48.72c-1.25,0-1.25,.56-1.25,.74,0,.37,.1,.71,.8,.71h1.73c-.02-.88-.27-1.45-1.28-1.45Z"/><path class="b" d="M34.94,48.72c-.74,0-1.4,.12-1.4,1.62s.66,1.62,1.4,1.62,1.4-.12,1.4-1.62-.66-1.62-1.4-1.62Z"/><path class="b" d="M29.43,3.18C14.94,3.18,3.18,14.93,3.18,29.43s11.75,26.25,26.25,26.25,26.25-11.75,26.25-26.25S43.93,3.18,29.43,3.18Zm-6.9,49.2h-.48v-4.14h.48v4.14Zm3.02,0h-1.63v-.48h1.63c.93,0,1.22-.49,1.27-1.25h-1.72c-1.06,0-1.28-.64-1.28-1.19,0-.45,.23-1.22,1.73-1.22,1.19,0,1.76,.68,1.76,2.07s-.58,2.07-1.76,2.07Zm5.22,.03h-2.22v-.47h2.22c.4,0,.73-.33,.73-.73s-.33-.73-.73-.73h-2.22v-2.22h3.21v.48h-2.73v1.26h1.74c.66,0,1.2,.54,1.2,1.2s-.54,1.2-1.2,1.2Zm4.17,.03c-.87,0-1.88-.24-1.88-2.1s1-2.1,1.88-2.1,1.88,.24,1.88,2.1-1,2.1-1.88,2.1Zm8.15-9.14H15.77V13.26h27.33v2.82H18.59v24.41h24.51v2.82Zm0-21.59h-13.24v6.31l13.24-3.66v2.92l-9.77,2.7,9.77,4.73v3.13l-13.24-6.42v6.23h-2.82v-15.96h-5.66v-2.82h21.72v2.82Z"/></g></g><g><path class="c" d="M95.36,27.48c.22-.3,.79-1.18,1.51-1.18,.63,0,1.7,.74,1.7,1.53s-.63,.82-2.14,.82h-9.12c0,.9,.06,7.12,.06,7.53,.05,1.45,.08,2.9,.08,3.39,0,1.04-.99,1.73-1.59,1.73-.77,0-.77-1.01-.77-1.26,0-.47,.3-9.59,.33-11.39-2.38,0-4.76,.03-7.15,.03-.05,0-1.48,0-1.86,.06-.16,.03-.96,.22-1.15,.22-.35,0-.6-.33-.6-.6,0-.44,.38-1.1,.99-1.1,.25,0,1.45,.22,1.73,.22,1.15,.03,6.79,0,8.08,0,0-2.52,0-2.88-.06-6.11-.96,.05-1.37,.05-3.39,.05-.69,0-2.33-.03-3.89-.27-.27-.06-.88-.14-.88-.6,0-.25,.19-.25,.6-.25,8.52,0,11.56-1.07,13.91-1.89,.14-.14,.52-.58,1.15-.58,.58,0,1.51,.38,1.51,1.15s-.55,.93-2.46,1.4c-1.51,.36-2.99,.66-4.52,.82-.11,3.89-.11,5.09-.11,6.27h8.05Z"/><path class="c" d="M109.05,33.7c.03,1.26,.03,1.75,.03,3.18,2.38-.3,3.15-.46,4.79-.82,.3-.05,.41-.08,.55-.08,.11,0,.28,.03,.28,.19,0,1.37-10.35,3.2-11.97,3.2-.63,0-1.4-.36-1.4-1.07,0-.52,.41-.99,1.12-1.04,.68-.03,4.11-.19,4.88-.25,.03-1.94,.03-2.49,.05-3.31h-.68c-.63,0-2.27,0-2.71,.16-.11,.03-.33,.14-.55,.14-.19,0-.52-.06-.52-.44,0-.44,.16-.99,.74-.99,.11,0,.6,.11,.71,.11l3.01,.05v-3.39h-2.6c-.03,.52-.05,1.23-1.15,1.23-.66,0-.66-.46-.66-.82,0-1.21,.08-7.23,.08-8.6,0-.38,0-.66-.16-.93-.14-.25-.16-.3-.16-.46,0-.49,.9-1.34,1.45-1.34,.47,0,.66,.44,.77,.68h6.35c.14-.19,.44-.63,1.01-.63,.68,0,1.12,.74,1.12,1.2,0,.08-.22,.47-.25,.55-.08,.25-.08,.3-.08,1.81,0,1.01,.19,6.05,.19,7.18,0,1.04-1.15,1.04-1.23,1.04-.71,0-.68-.38-.63-.9h-2.41v3.39h2.3c.19-.36,.44-.79,.85-.79,.49,0,1.29,.49,1.29,1.15,0,.6-.82,.6-.96,.6h-3.45Zm-1.73-9.83c0-1.12-.03-2.58-.05-3.7h-2.35c-.19,0-.19,.27-.19,.52v3.18h2.6Zm.05,4.49c0-1.45-.03-2.03-.03-3.51h-2.63c.03,1.18,.03,2.19,.03,3.51h2.63Zm1.62-3.51c0,1.48,.03,2.05,.03,3.51h2.41c0-.91,0-2.25,.03-3.51h-2.46Zm2.46-.99c0-.47-.03-2.71-.03-3.23,0-.3,0-.46-.33-.46h-2.03c-.03,2-.05,2.55-.05,3.7h2.44Zm12.32,2.85c.3-.46,.74-.71,1.1-.71,.69,0,1.21,.44,1.21,1.18,0,.79-1.53,3.78-2.05,4.63-.19,.3-.3,.47-.58,.47s-.33-.3-.33-.38c0-.03,.58-3.7,.63-4.13l-3.15,.03c-.08,.41-.08,.63-.08,1.09,0,.74,.14,7.83,.14,8.82,0,1.34,0,3.56-2.74,3.56-1.48,0-3.01-1.56-3.01-1.81,0-.14,.14-.16,.19-.16,.03,0,.3,.05,.38,.08,.52,.11,1.26,.11,1.59,.11,.57,0,1.7,0,1.7-2.06l-.06-8.27c0-.66,0-.91-.19-1.34l-2.66,.05c-.22,0-1.2,.41-1.45,.41-.16,0-.46-.08-.46-.46,0-.25,.11-1.2,.74-1.2,.13,0,.74,.11,.88,.11h4.71c-.93-.79-1.7-1.42-3.29-2.35-.99-.58-1.07-.63-1.07-.99,0-.44,.44-.79,.9-.79,.74,0,1.94,1.15,2.49,1.7,.71-1.1,1.04-1.67,2.16-3.83l-4.85,.08c-.19,0-1.09,.3-1.31,.3-.33,0-.52-.25-.52-.52,0-.38,.25-1.12,.85-1.12,.11,0,.66,.13,.79,.13l5.26,.03c.25-.22,.6-.58,1.15-.58,.71,0,1.29,.6,1.29,1.26,0,.38-.08,.46-.88,1.37-1.64,1.83-2.22,2.49-3.31,3.4,.79,.77,1.12,1.07,1.12,1.4,0,.11-.08,.44-.38,.52h3.09Z"/><path class="c" d="M134.98,19.43c.41-.74,.85-.96,1.15-.96,.47,0,1.51,.63,1.51,1.23,0,.22-.16,.66-.79,1.01-3.45,4.82-3.86,5.4-3.86,5.59s.22,.19,.33,.19c.71,0,1.56,0,2.25-.05,.49-.74,1.15-.74,1.23-.74,.6,0,1.15,.77,1.15,1.18,0,.19-.08,.36-.47,.79-.49,2.49-1.12,4.96-2.36,7.18,2.08,1.97,4.19,3.45,9.2,3.45,.82,0,4.33-.06,7.78-.49,.22-.03,1.31-.19,1.34-.19,.22,0,.33,0,.33,.17,0,.46-1.64,2.14-1.86,2.27-.27,.19-.6,.41-3.64,.41-7.48,0-10.66-.74-13.86-4.6-1.53,2.06-3.64,3.78-5.59,3.78-.11,0-.36,0-.36-.14,0-.17,.11-.22,.99-.77,2.14-1.34,3.31-3.12,3.94-4.08-.19-.3-.46-.74-.99-1.75-.19-.36-1.01-2.19-1.23-2.63-.08-.16-.77-.82-.77-1.02,0-.41,.55-.68,.91-.68,.44,0,.49,.36,.55,.68,.25,.74,.44,1.1,2.22,4.11,.71-1.31,1.34-4.22,1.45-5.92-.63,.03-2.14,.08-2.74,.14-.08,.03-1.1,.11-1.12,.11-.3,0-.79-.22-.79-.66s.03-.46,.38-1.01c2.44-3.53,2.99-4.6,3.51-5.64-.41,0-3.34,.08-3.72,.13-.16,.03-.88,.33-1.04,.33-.38,0-.58-.19-.58-.55,0-.13,0-.88,.74-.88,.14,0,.79,.03,.96,.03l3.86-.03Zm15.75,3.61c.3-.49,.66-.82,1.07-.82,.49,0,1.21,.44,1.21,1.1s-.16,.68-2.88,.68h-.74c0,.41,.03,1.75,.05,2.14,0,.11,.08,.66,.08,.79,0,.77-1.04,1.1-1.45,1.1-.52,0-.55-.41-.55-.71h-2.74v2.41h3.72c.55-.69,.58-.74,.93-.74,.58,0,1.23,.52,1.23,1.15,0,.46-.44,.55-.99,.55h-4.87v2.19h4.44c.19-.28,.63-.88,1.12-.88,.52,0,1.37,.38,1.37,1.15,0,.6-.41,.69-.96,.69h-5.97c0,.33,.05,1.86,.05,2.05,0,.91-.71,1.65-1.32,1.65s-.66-.77-.66-1.15,.14-2.14,.14-2.55h-3.56c-.22,0-1.21,.3-1.42,.3-.44,0-.44-.27-.44-.41,0-.88,.63-.93,.99-.93,.08,0,.58,.08,.68,.08h3.75l.08-2.19h-2.66c-.19,0-1.04,.25-1.23,.25-.44,0-.49-.19-.49-.36s.08-.93,.74-.93c.11,0,.63,.08,.74,.08h2.93v-2.41h-2.22c-.19,0-1.12,.28-1.34,.28-.25,0-.57-.08-.57-.36,0-.33,.27-.99,.77-.99,.11,0,.66,.11,.79,.11h2.55l.05-2.33h-4.79c-.19,0-1.18,.28-1.42,.28-.38,0-.44-.22-.44-.38,0-.36,.19-.96,.82-.96,.14,0,.77,.11,.91,.11h4.93c0-.33-.03-1.94-.03-2.3l-2.76,.03c-.16,0-1.01,.25-1.21,.25-.08,0-.58,0-.58-.36s.25-.99,.85-.99c.11,0,.71,.08,.85,.08l2.82,.03v-.41c0-.22-.03-1.01-.11-1.18-.05-.08-.44-.44-.44-.55,0-.47,1.18-1.53,1.78-1.53,.68,0,.68,.63,.68,.88,0,.41-.19,2.36-.22,2.79h2.44c.49-.52,.71-.66,.99-.66,.47,0,1.26,.33,1.26,1.12,0,.03,0,.14-.03,.19-.14,.36-.14,1.01-.14,1.37v1.21h1.4Zm-3.2,0c.03-1.62,.03-1.81-.06-2.27h-2.68v1.45l-.03,.82h2.77Zm.05,3.34l-.03-.66v-1.73h-2.77v2.36l2.79,.03Z"/><path class="c" d="M163.18,24.75c0,.74,.03,4.3,.03,5.09,.55-.16,3.18-1.2,3.34-1.2,.11,0,.22,.05,.22,.19,0,.71-3.23,2.28-3.54,2.41,.03,3.59,.03,4.82,.03,5.12v.17c0,.38,.08,2.24,.08,2.65,0,1.07-1.01,1.78-1.53,1.78-.25,0-.68-.25-.68-.99,0-.46,.16-2.68,.19-3.18,.03-.25,.11-2,.16-4.85-1.51,.58-3.23,1.1-3.86,1.1-.38,0-1.18-.16-1.18-.96,0-1.04,.77-1.15,1.86-1.29,1.67-.22,2.33-.33,3.23-.52,.05-2.27,.08-3.48,.08-4.33v-1.18c-.77,0-1.97,0-2.77,.03-.44,1.04-1.48,3.59-2.52,3.59-.05,0-.14-.03-.14-.11,0-.08,.38-.93,.46-1.12,.19-.41,1.04-2.88,1.21-6.25-.19-.11-.3-.19-.3-.38,0-.63,.79-1.26,1.45-1.26,.79,0,.82,.91,.82,1.21,0,.77-.14,1.78-.66,3.26h2.44c-.06-2.33-.06-2.6-.14-4.85-.22-.05-.44-.22-.44-.44,0-.55,1.15-1.54,1.78-1.54,.16,0,.69,0,.69,.85,0,.19-.11,1.15-.14,1.34-.11,1.73-.11,2.08-.16,4.63h.82c.44-.6,.74-.99,1.18-.99,.58,0,1.29,.66,1.29,1.34,0,.41-.58,.66-.82,.66h-2.49Zm3.89,6.85c1.67-1.97,2.85-4.27,3.26-5.64,.3-1.04,.44-1.45,1.15-1.45,.58,0,.9,.41,.9,.79,0,1.23-2.05,5.04-4.57,7.09-.49,.41-1.81,1.4-2.27,1.4-.14,0-.3-.06-.3-.25,0-.11,1.56-1.64,1.84-1.95Zm6.76-.22c-3.12,5.34-7.64,6.65-7.97,6.65-.22,0-.35-.11-.35-.22s.14-.22,1.42-1.18c1.04-.74,2.93-2.33,4.49-4.63,1.07-1.56,2.44-4.43,2.79-5.78,.33-1.18,.38-1.32,1.04-1.32,.6,0,.99,.36,.99,.88,0,.55-1.67,4.36-2.41,5.59Zm3.29-8.19c.49-.44,1.04-.77,1.5-.77,.63,0,1.18,.49,1.18,1.12,0,.25-.08,.46-.36,.88-.11,4.25-.6,11.15-1.56,13.29-.08,.19-1.07,2.3-2.9,2.3-1.45,0-3.18-2.14-3.18-2.41,0-.08,.05-.14,.19-.14,.11,0,.71,.25,.85,.28,.57,.19,.88,.25,1.2,.25,.91,0,1.48-.6,1.75-1.04,1.29-2.16,1.67-9.12,1.67-11.89,0-.85,0-.93-.6-.93l-7.67,.03c-1.07,.96-2.71,2.19-3.1,2.19-.16,0-.3-.05-.3-.22,0-.11,.08-.19,.74-.9,2.49-2.71,4.03-6.08,4.25-6.71,.08-.63,.52-.93,1.01-.93,.71,0,1.09,.55,1.09,1.07,0,.99-1.81,3.23-2.9,4.55h7.12Z"/><path class="c" d="M193.54,19.16c.19-.49,.77-.99,1.18-.99,.58,0,1.42,.63,1.42,1.32s-.88,.74-1.23,.74h-6.22c-3.48,3.92-4.57,3.92-4.77,3.92-.16,0-.44-.05-.44-.25,0-.11,.99-1.04,1.2-1.26,1.59-1.54,2.82-3.37,3.37-4.88v-.16c0-.63,.41-1.4,1.29-1.4,.6,0,1.15,.36,1.15,1.07s-.69,1.59-.93,1.89h3.97Zm11.89,0c.22-.49,.66-1.07,1.1-1.07,.68,0,1.59,.66,1.59,1.42,0,.58-.63,.71-1.34,.71h-7.72c-.82,.93-1.4,1.37-1.92,1.75,0,.38-.16,2.25-.19,2.68h7.31c.71-.82,1.1-.85,1.34-.85,.85,0,1.45,.52,1.45,1.45,0,.71-.9,2.98-1.2,3.56-.19,.38-.38,.49-.63,.49-.38,0-.44-.3-.47-.41-.05-.28-.08-.63-.16-3.07h-16.73c-.63,3.64-.82,3.64-1.23,3.64-.27,0-.47-.22-.52-.41-.19-.71-.6-3.37-.6-3.75,0-.77,.38-1.45,1.31-1.45,.49,0,1.01,.27,1.29,.79h7.12c0-.71-.03-.9-.05-1.12-.3-.19-.47-.55-.47-.9,0-.49,.6-1.51,1.84-1.4,1.45-2.08,1.81-3.04,2.08-3.8v-.14c0-.71,.47-1.4,1.29-1.4,.46,0,1.15,.25,1.15,1.07,0,.71-.46,1.32-1.15,2.19h5.53Zm-4.93,16.08c.38-.41,.71-.74,1.23-.74s1.32,.38,1.32,.96c0,.08-.25,.66-.3,.77,.03,.6,.19,4,.19,4.16,0,.85-.68,1.29-1.45,1.29-.63,0-.63-.14-.63-1.4h-9.28v.66c0,.82-.99,1.04-1.34,1.04-.63,0-.63-.38-.63-.61,0-.66,.19-3.92,.22-4.65,.06-1.7,.11-4.16,.11-5.81,0-.3,0-1.62-.11-1.84-.03-.08-.27-.52-.27-.63,0-.46,.66-1.4,1.42-1.4s.79,.55,.79,.77h7.59c.36-.52,.77-.82,1.07-.82,.49,0,1.45,.58,1.45,1.12,0,.11-.22,.49-.27,.66,0,.55,.14,3.29,.14,3.89,0,1.23-1.23,1.23-1.45,1.23-.6,0-.6-.25-.6-1.12h-8.08v2.47h8.9Zm-8.74-11.48c-.49,0-.9-1.83-.9-2.63,0-.47,.3-.82,.85-.82,.58,0,.93,.33,.93,.99,0,.47-.3,2.47-.88,2.47Zm9.09,15.45v-2.98h-9.26c0,.44-.03,2.52-.03,2.98h9.28Zm-1.18-7.5v-2.82h-8c-.05,.33-.05,.71-.05,1.32v1.51h8.05Zm1.31-7.78c-.41,0-.74-1.45-.74-2.41,0-.66,.27-1.02,.88-1.02,.46,0,.96,.22,.96,.79,0,.49-.55,2.63-1.1,2.63Z"/><path class="c" d="M216.63,33.68c.41-.11,1.32-.36,2.55-.74,.14-.05,1.29-.41,1.32-.41,.16,0,.22,.16,.22,.25,0,.06,0,.14-.05,.22-.08,.11-1.78,1.12-2.05,1.29-1.7,1.01-5.72,2.33-6.93,2.33-.77,0-1.18-.49-1.18-1.04,0-.93,1.18-1.01,1.45-1.04,.9-.05,1.1-.11,2.79-.46,.03-.6,.11-3.81,.14-6.27h-1.45c-.22,0-1.23,.33-1.45,.33-.19,0-.63-.13-.63-.49s.22-1.04,.82-1.04c.14,0,.79,.11,.93,.11h1.81v-1.42c0-.05,0-3.04-.03-3.37-.03-.19-.11-.44-.19-.63h-1.5c-.22,0-1.18,.3-1.42,.3-.08,0-.58-.05-.58-.47,0-.3,.16-1.09,.79-1.09,.14,0,.8,.14,.93,.14h5.12c.3-.41,.55-.71,.93-.71,.57,0,1.2,.58,1.2,1.18,0,.66-.93,.66-1.09,.66h-2.25c.06,.11,0,.3-.03,.47-.14,.58-.14,4.16-.14,4.96h1.31c.22-.3,.49-.68,.93-.68,.52,0,1.01,.58,1.01,1.07,0,.63-.58,.69-.82,.69h-2.46v5.92Zm11.45,4.88c2.22,0,5.2-.03,5.59-.03,.22-.28,.71-.93,1.2-.93,.58,0,1.4,.77,1.4,1.42,0,.77-.85,.77-1.59,.77s-4.63-.05-5.5-.05h-2.19c-.85,0-7.15,0-7.7,.08-.19,.03-1.04,.3-1.26,.3-.08,0-.63-.08-.63-.46,0-.33,.19-1.29,.9-1.29,.16,0,.88,.14,1.04,.14l6.93,.03v-3.7h-.96c-.44,0-2.08,0-2.46,.05-.19,.05-1.09,.33-1.31,.33s-.44-.17-.44-.44c0-.38,.33-1.07,.82-1.07,.11,0,.55,.08,.66,.08h3.7v-3.78h-3.09v.49c0,.55-.77,.79-1.29,.79-.63,0-.63-.69-.63-1.01,0-1.18,.22-6.9,.22-8.22,0-.74-.11-.96-.16-1.07-.05-.08-.33-.38-.33-.5,0-.49,.96-1.61,1.67-1.61,.46,0,.58,.27,.68,.55h7.86c.41-.47,.79-.71,1.15-.71,.66,0,1.09,.71,1.09,1.34,0,.05-.05,.41-.08,.46-.08,.5-.08,1.1-.08,1.56,0,2.08,.03,4.46,.11,6.27,.03,.36,.05,1.37,.05,1.61,0,.66-.77,1.21-1.42,1.21-.71,0-.71-.22-.71-1.18h-3.23v3.81l3.31-.06c.38-.55,.77-.79,1.04-.79,.52,0,1.23,.66,1.23,1.23,0,.63-.85,.63-1.09,.63h-4.49v3.72Zm-1.86-14.3c0-2.11-.03-2.68-.06-3.62h-2.82c-.11,.08-.22,.16-.22,.49v3.12h3.1Zm0,4.63v-3.53h-3.07v3.53h3.07Zm5.18-4.63v-2.6c0-.3-.06-1.01-.38-1.01h-2.99v3.62h3.37Zm-.03,4.63v-3.53h-3.34l.03,3.53h3.31Z"/></g></svg>