<?xml version="1.0" standalone="no"?>
<!DOCTYPE svg PUBLIC "-//W3C//DTD SVG 20010904//EN"
 "http://www.w3.org/TR/2001/REC-SVG-20010904/DTD/svg10.dtd">
<svg version="1.0" xmlns="http://www.w3.org/2000/svg"
 width="194.000000pt" height="194.000000pt" viewBox="0 0 194.000000 194.000000"
 preserveAspectRatio="xMidYMid meet">
<metadata>
Created by potrace 1.11, written by Peter Selinger 2001-2013
</metadata>
<g transform="translate(0.000000,194.000000) scale(0.100000,-0.100000)"
fill="#000000" stroke="none">
<path d="M785 1920 c-196 -42 -352 -126 -490 -265 -194 -195 -288 -431 -280
-710 4 -140 7 -160 46 -280 103 -322 371 -564 719 -646 61 -15 288 -18 362 -6
126 20 293 94 403 177 92 70 112 89 176 167 103 129 172 278 202 438 14 71 16
295 4 340 -3 11 -10 40 -16 65 -36 157 -121 314 -241 444 -101 110 -299 225
-460 267 -120 31 -303 34 -425 9z m305 -24 c88 -14 110 -19 180 -42 86 -29
183 -80 256 -135 149 -111 289 -307 336 -472 111 -392 -21 -793 -339 -1028
-104 -77 -263 -148 -372 -165 -18 -3 -43 -8 -55 -10 -31 -6 -194 -6 -246 1
-291 39 -556 228 -697 495 -82 156 -114 313 -101 498 16 228 109 431 270 591
207 205 503 308 768 267z"/>
<path d="M855 1829 c-181 -26 -386 -131 -503 -258 -88 -96 -164 -226 -200
-342 -28 -90 -34 -129 -37 -241 -10 -412 266 -767 671 -864 70 -17 270 -24
329 -11 64 13 80 17 129 33 219 72 409 241 511 455 54 115 77 215 78 349 1
131 -5 181 -34 277 -124 402 -529 660 -944 602z m-225 -375 c41 -11 126 -14
351 -14 267 0 304 2 360 20 71 22 62 26 120 -63 34 -52 33 -58 -19 -75 -27 -9
-38 -9 -57 4 -27 18 -192 27 -211 12 -8 -5 -10 -52 -8 -145 2 -75 6 -138 8
-140 3 -4 143 -7 194 -4 14 1 22 7 22 19 0 15 76 82 93 82 2 0 4 -68 5 -150
l0 -151 -27 17 c-14 10 -36 24 -48 32 -13 8 -23 21 -23 28 0 8 -7 17 -15 21
-14 5 -105 7 -175 4 l-25 -1 0 -137 c0 -76 -2 -151 -5 -168 l-5 -30 100 -1
c122 -1 152 10 222 78 l51 50 46 -17 c26 -10 45 -21 44 -25 -2 -4 -34 -59 -73
-123 -60 -102 -71 -115 -85 -103 -50 44 -58 45 -481 45 -235 1 -418 -3 -440
-9 -20 -6 -47 -19 -61 -29 l-24 -20 -70 116 c-38 64 -70 119 -72 123 -1 4 18
15 43 25 l46 17 58 -55 c68 -65 100 -76 226 -74 l90 2 -5 25 c-3 14 -5 89 -5
168 0 119 -2 142 -15 143 -25 1 -133 1 -163 0 -19 -1 -30 -8 -36 -25 -8 -20
-70 -66 -90 -66 -4 0 -8 65 -8 145 0 80 2 145 4 145 17 0 93 -67 93 -82 0 -20
-1 -19 133 -20 43 -1 80 1 82 4 3 2 7 66 9 141 3 96 1 139 -7 145 -19 15 -185
5 -212 -12 -19 -13 -30 -13 -57 -4 -18 6 -37 14 -42 19 -14 13 76 140 94 133
8 -3 40 -12 70 -20z m167 -1059 c28 -19 19 -47 -22 -76 l-30 -20 38 3 c30 3
37 1 37 -14 0 -15 -9 -18 -65 -18 -86 0 -85 9 5 79 23 18 23 20 7 26 -11 5
-25 1 -37 -10 -17 -16 -19 -16 -29 3 -9 18 -7 22 17 30 39 15 55 14 79 -3z
m157 -6 c47 -37 30 -103 -29 -115 -67 -13 -108 75 -56 118 30 23 52 23 85 -3z
m126 -50 c0 -62 -2 -69 -19 -69 -17 0 -19 6 -18 45 1 33 -1 44 -10 40 -16 -6
-17 22 -1 38 6 7 20 14 30 14 16 2 18 -7 18 -68z m167 44 c16 -20 6 -41 -28
-59 -35 -18 -36 -21 -6 -21 41 -1 47 -3 47 -18 0 -12 -14 -15 -65 -15 -39 0
-65 4 -65 10 0 15 48 58 72 66 10 3 17 11 15 17 -5 14 -50 11 -55 -3 -5 -14
-22 -2 -22 16 0 34 82 40 107 7z"/>
<path d="M953 1342 c-31 -5 -39 -39 -42 -174 -3 -130 -8 -120 64 -120 70 0 64
-10 63 120 -2 163 -13 185 -85 174z"/>
<path d="M914 951 c-9 -9 -3 -260 6 -288 11 -31 43 -52 71 -46 36 8 47 53 47
196 0 120 -2 137 -17 138 -55 4 -103 3 -107 0z"/>
<path d="M891 366 c-16 -19 -11 -46 12 -60 14 -9 21 -7 32 7 27 37 -16 88 -44
53z"/>
</g>
</svg>
