<svg id="Layer_1" data-name="Layer 1" xmlns="http://www.w3.org/2000/svg" viewBox="0 0 1000 1000"><defs><style>.cls-1{fill:#fff;}.cls-2{fill:#6f483e;}</style></defs><title>logo-2</title><path class="cls-1" d="M984.31,499.31C984.31,767.05,767.23,984,499.5,984S14.74,767.05,14.74,499.31,231.81,14.5,499.5,14.5,984.31,231.58,984.31,499.31"/><path class="cls-2" d="M498.42,598.92l-99.3-99.34,99.3-99.35,99.4,99.35ZM302.64,596a59.73,59.73,0,0,0,0,84l57.43,57.38L459.42,638,360,538.63Zm0-192.87L360,460.48l326-326A410.23,410.23,0,0,0,531.09,90.67L302.64,319.16a59.51,59.51,0,0,0,0,84m391.62,0a59.63,59.63,0,0,0,0-84l-57.39-57.38-99.35,99.39,99.35,99.35ZM263.59,719.05a114.72,114.72,0,0,1,0-162.09L321,499.58l-57.38-57.34a114.83,114.83,0,0,1,0-162.18l188-188A408.66,408.66,0,0,0,208.18,209.28c-160,160.12-160,420.52,0,580.54a412.48,412.48,0,0,0,54.09,45.35L321,776.43Zm582.6,128.29c-95.87,95.87-221.77,143.81-347.77,143.81S246.58,943.21,150.7,847.34C-41,655.6-41,343.55,150.7,151.81s503.75-191.75,695.49,0,191.75,503.79,0,695.53M823.45,174.6c-179.15-179.19-470.81-179.19-650,0s-179.19,470.76,0,649.95C263.07,914.17,380.75,959,498.42,959s235.45-44.79,325-134.41c179.19-179.19,179.19-470.76,0-649.95m-34.73,34.68A407.46,407.46,0,0,0,734.67,164l-58.74,58.69,57.38,57.34a114.85,114.85,0,0,1,0,162.18l-57.38,57.34L733.31,557a114.74,114.74,0,0,1,0,162.09l-188,188A408.57,408.57,0,0,0,788.72,789.82c160-160,160-420.42,0-580.54M694.26,596l-57.39-57.38-326,326a409,409,0,0,0,154.9,43.8L694.26,680a59.44,59.44,0,0,0,0-84"/><path class="cls-1" d="M745.06,515.61h17.06v6.48H731.39l15.88-19.22c1.55-1.93,2.87-3.62,4-5a41.72,41.72,0,0,0,2.4-3.52,9.84,9.84,0,0,0,1.69-5,7.08,7.08,0,0,0-2.26-5.36,7.51,7.51,0,0,0-5.54-2.16c-4.66,0-7.33,2.72-8,8.22h-6.91c1.17-9.68,6-14.52,14.66-14.52a14.86,14.86,0,0,1,10.53,4,13,13,0,0,1,4.23,9.82,14.56,14.56,0,0,1-2,7.38,33.23,33.23,0,0,1-3,4.41q-1.9,2.61-4.93,6.07Z"/><path class="cls-1" d="M770.28,498.9c0-7.29,1.74-13.11,5.12-17.48,3.06-3.95,6.72-5.93,11.09-5.93s8,2,11.09,5.93q5.08,6.56,5.08,17.76T797.58,517c-3.1,3.94-6.76,5.87-11.09,5.87s-8-1.93-11.09-5.87c-3.38-4.38-5.12-10.39-5.12-18.05m6.82,0a27.38,27.38,0,0,0,2.67,12.73c1.74,3.29,4,4.89,6.72,4.89s4.94-1.6,6.72-4.89,2.64-7.47,2.64-12.5-.85-9.11-2.64-12.45-4-4.89-6.72-4.89-4.93,1.6-6.72,4.89a25.33,25.33,0,0,0-2.67,12.22"/><path class="cls-1" d="M810.11,498.9c0-7.29,1.79-13.11,5.17-17.48,3-3.95,6.68-5.93,11.05-5.93s8,2,11.09,5.93q5.07,6.56,5.07,17.76T837.42,517c-3.1,3.94-6.72,5.87-11,5.87s-8-1.93-11.09-5.87c-3.38-4.38-5.17-10.39-5.17-18.05m6.82,0a27.89,27.89,0,0,0,2.68,12.73c1.74,3.29,4,4.89,6.72,4.89s5-1.6,6.77-4.89a30.9,30.9,0,0,0,0-24.95c-1.79-3.29-4.05-4.89-6.77-4.89s-4.89,1.6-6.72,4.89a25.8,25.8,0,0,0-2.68,12.22"/><path class="cls-1" d="M859.61,523.68l-5-3.8,10.9-14.9c-.56,0-1.08.09-1.46.14a9,9,0,0,1-1,.05,13,13,0,0,1-9.64-4.18,14.29,14.29,0,0,1-4-10.16,15.43,15.43,0,0,1,15.32-15.32,15.25,15.25,0,0,1,10.86,4.42,14,14,0,0,1,4.65,10.48c0,3.57-1.55,7.38-4.51,11.52Zm-3.53-33.36a8.67,8.67,0,0,0,8.7,8.79,8.27,8.27,0,0,0,6.06-2.54,8.68,8.68,0,0,0,0-12.27,8.65,8.65,0,0,0-14.76,6"/></svg>