<svg id="Layer_1" data-name="Layer 1" xmlns="http://www.w3.org/2000/svg" viewBox="0 0 1000 1000"><defs><style>.cls-1{fill:#fff;}.cls-2{fill:#aa805b;}</style></defs><title>logo-3</title><path class="cls-1" d="M988.82,499c0,269.89-218.81,488.69-488.75,488.69S11.43,768.88,11.43,499,230.23,10.25,500.07,10.25,988.82,229.1,988.82,499"/><path class="cls-2" d="M612.59,455.12c26-4.18,50.28-9.21,72.1-14.67V325.17a597.76,597.76,0,0,1-72.1,20.6Z"/><path class="cls-2" d="M578.41,211.63c-19.1,5.88-47.88,12.56-80.2,12.56s-61-6.68-80-12.56V317.42a482.14,482.14,0,0,0,80,7,484,484,0,0,0,80.2-7Z"/><path class="cls-2" d="M176.31,393l24.18,10.91c.61.38,29.82,13.4,77.14,27.19V273.56l24.17,10.95c.57.19,33,14.63,82.12,26.11V160.77l24.18,11c.38.19,41.06,18.3,90.12,18.3S588,172,588.39,171.72l24.08-10.91.09,26.44V310.62c49.11-11.48,81.52-25.92,82.08-26.11l24.13-10.91V431.22c47.41-13.93,76.62-27,77.23-27.24l24.08-11.1V800.54A438.13,438.13,0,0,0,938.14,500.87c0-243-196.94-440-439.92-440s-440,196.94-440,440A438,438,0,0,0,176.31,800.54Z"/><path class="cls-2" d="M418.15,352.23V459.81a739.46,739.46,0,0,0,80.05,4.65,745.92,745.92,0,0,0,80.2-4.65V352.23a531.19,531.19,0,0,1-80.2,6.35,530.75,530.75,0,0,1-80.05-6.35"/><path class="cls-2" d="M786,444.83c-15.85,6-38.8,14.07-67.21,22.16V814.81H684.71v-339c-22.06,5.27-46.23,10.11-72.15,14V780.8H578.41V494.22a770.06,770.06,0,0,1-80.19,4.33,765.41,765.41,0,0,1-80.06-4.33V780.8H383.92V489.85c-26-3.91-50.14-8.75-72.1-14v339h-34.2V467c-28.36-8.09-51.31-16.14-67.16-22.16V833.25h-.28a439.7,439.7,0,0,0,575.8.14Z"/><path class="cls-2" d="M383.93,455V345.77a590.77,590.77,0,0,1-72.11-20.6V440.4c21.78,5.37,46,10.54,72.11,14.63"/><path class="cls-2" d="M498.21,994C226.21,994,5,772.79,5,500.89,5,228.84,226.21,7.58,498.21,7.58S991.42,228.84,991.42,500.89,770.12,994,498.21,994m0-967.89c-261.66,0-474.58,213.07-474.58,474.78S236.55,975.37,498.21,975.37,972.79,762.45,972.79,500.89,759.91,26.11,498.21,26.11"/><path class="cls-1" d="M433.27,885.37H379.41V866.65c0-13.21,7-20.41,19.66-20.41h16.79a9.26,9.26,0,0,0,7.39-3.34,12.85,12.85,0,0,0,2.63-7.95c0-5.13-2.63-11-10-11H380.77v-8h35.09c11.85,0,18.06,9.59,18.06,19,0,9.65-6.21,19.19-18.06,19.19H399.07c-8.18,0-11.67,3.76-11.67,12.51v10.73h45.87Z"/><path class="cls-1" d="M482.68,886.33c-14.63,0-31.37-4-31.37-35.09S468.05,816,482.68,816s31.42,4,31.42,35.27-16.79,35.09-31.42,35.09m0-62.37c-12.42,0-23.37,2.22-23.37,27.28s10.95,27,23.37,27,23.43-2,23.43-27S495,824,482.68,824"/><rect class="cls-1" x="533.35" y="815.94" width="8.04" height="69.42"/><path class="cls-1" d="M603.58,861.4V816H591.49L561.11,860.6v8.84h34.48v15.95h8V869.44h12.7v-8Zm-8,0H570.23l25.36-37.2Z"/></svg>