<svg id="Layer_1" data-name="Layer 1" xmlns="http://www.w3.org/2000/svg" viewBox="0 0 1000 1000"><defs><style>.cls-1{fill:#0089cf;}</style></defs><title>logo-renove</title><path class="cls-1" d="M499.92,13C231.3,13,12.82,231.53,12.82,500.13s218.48,487.1,487.1,487.1S987,768.7,987,500.13,768.5,13,499.92,13m0,955.83c-258.46,0-468.73-210.27-468.73-468.7S241.46,31.38,499.92,31.38,968.6,241.69,968.6,500.13s-210.24,468.7-468.68,468.7"/><path class="cls-1" d="M591,819.32c-12.18,0-23.14,2.06-23.14,26.77s11,26.8,23.14,26.8,23.11-2,23.11-26.8S603.21,819.32,591,819.32"/><path class="cls-1" d="M435.6,819.34c-20.73,0-20.73,10.28-20.73,13.66,0,6.82,1.6,13.09,13.29,13.09h28.66c-.37-16.18-4.49-26.75-21.22-26.75"/><path class="cls-1" d="M499.92,65.65C260,65.65,65.47,260.15,65.47,500.12S260,934.56,499.92,934.56,934.39,740,934.39,500.12,739.86,65.65,499.92,65.65M385.68,879.91h-7.94V811.4h7.94Zm49.93,0H408.7v-8h26.91c15.45,0,20.12-8.08,21.06-20.69H428.15c-17.53,0-21.19-10.69-21.19-19.66,0-7.53,3.71-20.19,28.65-20.19,19.61,0,29.16,11.24,29.16,34.24s-9.55,34.26-29.16,34.26m86.35.55H485.25v-7.76H522a12.11,12.11,0,0,0,0-24.21H485.25V811.79h53.14v8H493.17v20.89H522a19.87,19.87,0,1,1,0,39.73m69.08-.07h0c-14.46,0-31-4-31-34.74s16.57-34.72,31-34.72h0c14.42,0,31,4,31,34.72s-16.62,34.74-31,34.74M726,729.52H273.75V232.39H726V279H320.39V682.88H726Zm.07-357.33H506.92V476.62l219.15-60.53v48.35L564.43,509.11l161.64,78.34v51.83L506.92,533.07V636.24H460.3v-264H366.64V325.58H726.07Z"/></svg>