<?xml version="1.0" standalone="no"?>
<!DOCTYPE svg PUBLIC "-//W3C//DTD SVG 1.1//EN" "http://www.w3.org/Graphics/SVG/1.1/DTD/svg11.dtd" >
<svg>
<metadata>
Created by FontForge 20090622 at Fri Mar 27 04:20:55 2020
 By deploy user
</metadata>
<defs>
<font id="ShinGoPro-DeBold-AlphaNum" horiz-adv-x="1000" vert-adv-y="1000" >
  <font-face 
    font-family="ShinGoPro-DeBold-AlphaNum"
    font-weight="700"
    font-stretch="normal"
    units-per-em="1000"
    panose-1="2 0 8 3 0 0 0 0 0 0"
    ascent="800"
    descent="-200"
    bbox="16 -97 985 857"
    underline-thickness="50"
    underline-position="-100"
  />
<missing-glyph horiz-adv-x="364" 
d="M33 0v666h265v-666h-265zM66 33h199v600h-199v-600z" />
    <glyph glyph-name=".notdef" horiz-adv-x="364" 
d="M33 0v666h265v-666h-265zM66 33h199v600h-199v-600z" />
    <glyph glyph-name=".null" horiz-adv-x="0" vert-adv-y="0" 
 />
    <glyph glyph-name="nonmarkingreturn" horiz-adv-x="333" 
 />
    <glyph glyph-name="Japan1.7555" 
d="M500 854q128 0 237 -62.5t173 -172t64 -239.5q0 -196 -139 -335t-335 -139t-335 139t-139 335q0 130 64 239.5t173 172t237 62.5zM500 819q-181 0 -310 -128t-129 -311q0 -119 59 -220t160 -160t220 -59q182 0 310.5 128.5t128.5 310.5q0 183 -129 311t-310 128zM357 672
h201v-584h-94v491h-107v93z" />
    <glyph glyph-name="Japan1.7556" 
d="M500 854q128 0 237 -62.5t173 -172t64 -239.5q0 -196 -139 -335t-335 -139t-335 139t-139 335q0 130 64 239.5t173 172t237 62.5zM500 819q-181 0 -310 -128t-129 -311q0 -119 59 -220t160 -160t220 -59q182 0 310.5 128.5t128.5 310.5q0 183 -129 311t-310 128zM570 335
l-83 -37q-34 -15 -45 -36t-11 -81h223v-93h-310q-5 185 25 235q16 26 61 47q3 1 8 3l74 32q21 9 30.5 16t17 26t7.5 53q0 46 -13 65.5t-53 19.5q-20 0 -33.5 -5t-20.5 -12t-10.5 -24t-3.5 -30v-42h-87q0 25 0.5 38t1.5 33.5t3 31t6 26.5t10 23.5t14 18.5t19.5 16t26 10
t33.5 7t42 2q87 0 120.5 -36t33.5 -131q0 -79 -15.5 -115.5t-70.5 -60.5z" />
    <glyph glyph-name="Japan1.7557" 
d="M500 854q128 0 237 -62.5t173 -172t64 -239.5q0 -196 -139 -335t-335 -139t-335 139t-139 335q0 130 64 239.5t173 172t237 62.5zM500 819q-181 0 -310 -128t-129 -311q0 -119 59 -220t160 -160t220 -59q182 0 310.5 128.5t128.5 310.5q0 183 -129 311t-310 128zM343 261
v21h90q-2 -63 8.5 -85t58.5 -22q34 0 51 16.5t17 63.5q0 32 -5 51t-18.5 27t-24 9.5t-33.5 1.5h-45v86h47q44 0 60 14.5t16 65.5q0 37 -12.5 56t-50.5 19q-45 0 -56.5 -21t-10.5 -72h-90q0 38 1.5 60t10 49.5t24 42t45 24.5t72.5 10q75 0 114.5 -30.5t39.5 -122.5
q0 -35 -4 -57t-22 -44.5t-51 -33.5q11 -2 18.5 -4t21 -11t21.5 -22.5t14.5 -40.5t6.5 -64q0 -93 -36 -129.5t-118 -36.5q-54 0 -87 11t-48.5 37t-20 54t-4.5 77z" />
    <glyph glyph-name="Japan1.7558" 
d="M500 854q128 0 237 -62.5t173 -172t64 -239.5q0 -196 -139 -335t-335 -139t-335 139t-139 335q0 130 64 239.5t173 172t237 62.5zM500 819q-181 0 -310 -128t-129 -311q0 -119 59 -220t160 -160t220 -59q182 0 310.5 128.5t128.5 310.5q0 183 -129 311t-310 128zM477 672
h122v-370h42v-92h-42v-122h-89v122h-199v113zM510 559l-117 -257h117v257z" />
    <glyph glyph-name="Japan1.7559" 
d="M500 854q128 0 237 -62.5t173 -172t64 -239.5q0 -196 -139 -335t-335 -139t-335 139t-139 335q0 130 64 239.5t173 172t237 62.5zM500 819q-181 0 -310 -128t-129 -311q0 -119 59 -220t160 -160t220 -59q182 0 310.5 128.5t128.5 310.5q0 183 -129 311t-310 128zM354 672
h293v-93h-205l-3 -125q31 26 85 26q37 0 62.5 -12t39.5 -28.5t21.5 -45t9 -51t1.5 -56.5q0 -55 -5 -88t-20.5 -62.5t-48 -42t-84.5 -12.5q-87 0 -123 39.5t-35 143.5h90q0 -52 12 -71t56 -19q42 0 55 19.5t13 80.5q0 29 -0.5 42t-3.5 31t-10 25.5t-19.5 13t-31.5 5.5
q-22 0 -36.5 -5t-21 -15.5t-8.5 -17t-4 -17.5h-86z" />
    <glyph glyph-name="Japan1.7560" 
d="M500 854q128 0 237 -62.5t173 -172t64 -239.5q0 -196 -139 -335t-335 -139t-335 139t-139 335q0 130 64 239.5t173 172t237 62.5zM500 819q-181 0 -310 -128t-129 -311q0 -119 59 -220t160 -160t220 -59q182 0 310.5 128.5t128.5 310.5q0 183 -129 311t-310 128zM652 509
h-88q1 45 -12 61t-51 16q-44 0 -57 -28.5t-13 -131.5q36 33 96 33q41 0 68 -13.5t40 -39.5t18 -54.5t5 -68.5q0 -36 -1.5 -58.5t-10 -53t-23.5 -47.5t-45 -29.5t-72 -12.5q-30 0 -53 3t-40.5 12.5t-29 19t-19.5 30t-12.5 37t-6.5 50t-2.5 58.5t-0.5 71q0 69 1.5 108t6.5 80
t15 61t28 37t43.5 23t63.5 6q87 0 119.5 -38t32.5 -131zM503 369q-43 0 -56.5 -22t-13.5 -80t15.5 -76t53.5 -18q42 0 55 22.5t13 79.5q0 48 -12.5 71t-54.5 23z" />
    <glyph glyph-name="Japan1.7561" 
d="M500 854q128 0 237 -62.5t173 -172t64 -239.5q0 -196 -139 -335t-335 -139t-335 139t-139 335q0 130 64 239.5t173 172t237 62.5zM500 819q-181 0 -310 -128t-129 -311q0 -119 59 -220t160 -160t220 -59q182 0 310.5 128.5t128.5 310.5q0 183 -129 311t-310 128zM334 648
h332v-97l-180 -487h-101l189 491h-240v93z" />
    <glyph glyph-name="Japan1.7562" 
d="M418 391q-14 5 -22.5 10.5t-21 19t-19 38.5t-6.5 61q0 50 10.5 82.5t32 48.5t45 21.5t59.5 5.5q38 0 62 -4.5t47.5 -19.5t34.5 -48t11 -85q0 -63 -18.5 -90.5t-50.5 -39.5q16 -6 25 -11t23 -19.5t21 -43.5t7 -72q0 -86 -34.5 -124.5t-120.5 -38.5q-79 0 -120.5 32.5
t-41.5 127.5q0 44 7 73.5t21 44.5t23.5 20.5t25.5 10.5zM500 585q-41 0 -52.5 -18.5t-11.5 -54.5q0 -19 2 -31t8 -24t19.5 -17.5t34.5 -5.5q41 0 52.5 20t11.5 60q0 16 -2 27t-8 22t-19.5 16.5t-34.5 5.5zM500 343q-45 0 -57.5 -22t-12.5 -70q0 -39 14.5 -58t55.5 -19
q44 0 57 20.5t13 63.5q0 44 -14 64.5t-56 20.5zM500 854q128 0 237 -62.5t173 -172t64 -239.5q0 -196 -139 -335t-335 -139t-335 139t-139 335q0 130 64 239.5t173 172t237 62.5zM500 819q-181 0 -310 -128t-129 -311q0 -119 59 -220t160 -160t220 -59q182 0 310.5 128.5
t128.5 310.5q0 183 -129 311t-310 128z" />
    <glyph glyph-name="Japan1.7563" 
d="M500 854q128 0 237 -62.5t173 -172t64 -239.5q0 -196 -139 -335t-335 -139t-335 139t-139 335q0 130 64 239.5t173 172t237 62.5zM500 819q-181 0 -310 -128t-129 -311q0 -119 59 -220t160 -160t220 -59q182 0 310.5 128.5t128.5 310.5q0 183 -129 311t-310 128zM342 251
h89q-1 -45 12 -61t51 -16q34 0 48.5 10.5t20.5 43t6 106.5q-34 -33 -96 -33q-42 0 -69.5 14.5t-40 42t-17 54.5t-4.5 64q0 36 1.5 58t9.5 53t23.5 48t45 30t72.5 13q30 0 53 -3t40.5 -12.5t29 -18.5t19.5 -29.5t12.5 -36.5t6.5 -49t2.5 -57t0.5 -70q0 -71 -1.5 -111.5
t-6.5 -82t-15 -61.5t-28.5 -37t-44 -22.5t-64.5 -5.5q-83 0 -120 35t-36 134zM497 391q42 0 56 22.5t14 78.5q0 59 -16 77t-53 18q-43 0 -55.5 -22.5t-12.5 -78.5q0 -50 12.5 -72.5t54.5 -22.5z" />
    <glyph glyph-name="Japan1.7564" 
d="M500 854q128 0 237 -62.5t173 -172t64 -239.5q0 -196 -139 -335t-335 -139t-335 139t-139 335q0 130 64 239.5t173 172t237 62.5zM500 819q-181 0 -310 -128t-129 -311q0 -119 59 -220t160 -160t220 -59q182 0 310.5 128.5t128.5 310.5q0 183 -129 311t-310 128zM629 670
q28 0 49.5 -3t37.5 -12.5t27 -19t18.5 -30.5t12 -38.5t6.5 -51t2.5 -61t0.5 -74.5t-0.5 -74.5t-2.5 -61t-6.5 -51t-12 -38t-18.5 -30.5t-27 -19.5t-37.5 -12.5t-49.5 -3q-32 0 -55.5 5.5t-40.5 13.5t-28 28t-17.5 37.5t-9 54t-3.5 66.5t-1 85t1 85t3.5 66.5t9 54t17.5 37.5
t28 28t40.5 13.5t55.5 5.5zM629 579q-49 0 -58.5 -32.5t-9.5 -166.5q0 -135 9.5 -167t59.5 -32q47 0 56.5 33.5t9.5 165.5q0 133 -9.5 166t-57.5 33zM182 664h195v-568h-91v477h-104v91z" />
    <glyph glyph-name="Japan1.7565" 
d="M500 854q128 0 237 -62.5t173 -172t64 -239.5q0 -196 -139 -335t-335 -139t-335 139t-139 335q0 130 64 239.5t173 172t237 62.5zM500 819q-181 0 -310 -128t-129 -311q0 -119 59 -220t160 -160t220 -59q182 0 310.5 128.5t128.5 310.5q0 183 -129 311t-310 128zM194 664
h195v-568h-91v477h-104v91zM542 664h194v-568h-90v477h-104v91z" />
    <glyph glyph-name="Japan1.7566" 
d="M500 854q128 0 237 -62.5t173 -172t64 -239.5q0 -196 -139 -335t-335 -139t-335 139t-139 335q0 130 64 239.5t173 172t237 62.5zM500 819q-181 0 -310 -128t-129 -311q0 -119 59 -220t160 -160t220 -59q182 0 310.5 128.5t128.5 310.5q0 183 -129 311t-310 128zM182 664
h195v-568h-91v477h-104v91zM696 336l-80 -35q-33 -14 -44 -35t-10 -79h216v-91h-301q-2 111 6 164t25.5 73t60.5 40l71 32q21 9 30 15.5t16.5 25t7.5 50.5q0 46 -13 64.5t-52 18.5q-20 0 -32.5 -5t-19.5 -11.5t-10 -23t-3.5 -29t-0.5 -40.5h-84q0 31 0.5 45.5t2.5 38.5
t6 35.5t11 27.5t18 23.5t26.5 15.5t37 11t49.5 3q84 0 117 -35t33 -128q0 -77 -15.5 -112.5t-68.5 -58.5z" />
    <glyph glyph-name="Japan1.7567" 
d="M500 854q128 0 237 -62.5t173 -172t64 -239.5q0 -196 -139 -335t-335 -139t-335 139t-139 335q0 130 64 239.5t173 172t237 62.5zM500 819q-181 0 -310 -128t-129 -311q0 -119 59 -220t160 -160t220 -59q182 0 310.5 128.5t128.5 310.5q0 183 -129 311t-310 128zM181 664
h195v-568h-91v477h-104v91zM474 285h88q-1 -27 0 -46.5t6.5 -32.5t19.5 -19t39 -6q33 0 49.5 15.5t16.5 61.5q0 32 -5 50.5t-18 26t-23 9t-33 1.5h-43v84h46q42 0 57.5 13.5t15.5 62.5q0 37 -12 55.5t-49 18.5q-45 0 -55.5 -20t-10.5 -71h-87q0 46 3.5 72.5t17.5 55
t45.5 41.5t82.5 13q73 0 111.5 -30t38.5 -119q0 -53 -14.5 -84t-60.5 -47q14 -2 23.5 -6t24.5 -16.5t23 -42t8 -73.5q0 -90 -34.5 -126t-115.5 -36q-52 0 -84 11t-47 36.5t-19.5 52.5t-4.5 74v21z" />
    <glyph glyph-name="Japan1.7568" 
d="M500 854q128 0 237 -62.5t173 -172t64 -239.5q0 -196 -139 -335t-335 -139t-335 139t-139 335q0 130 64 239.5t173 172t237 62.5zM500 819q-181 0 -310 -128t-129 -311q0 -119 59 -220t160 -160t220 -59q182 0 310.5 128.5t128.5 310.5q0 183 -129 311t-310 128zM630 664
h118v-359h41v-90h-41v-119h-87v119h-193v110zM662 554l-114 -249h114v249zM181 664h195v-568h-91v477h-104v91z" />
    <glyph glyph-name="Japan1.7569" 
d="M500 854q128 0 237 -62.5t173 -172t64 -239.5q0 -196 -139 -335t-335 -139t-335 139t-139 335q0 130 64 239.5t173 172t237 62.5zM500 819q-181 0 -310 -128t-129 -311q0 -119 59 -220t160 -160t220 -59q182 0 310.5 128.5t128.5 310.5q0 183 -129 311t-310 128zM181 664
h195v-568h-91v477h-104v91zM485 664h285v-91h-199l-4 -121q32 25 83 25q36 0 61.5 -12t38.5 -28t20 -45t8.5 -50.5t1.5 -56.5q0 -105 -29 -150t-124 -45q-84 0 -119 38t-34 140h87q-1 -50 11 -68.5t55 -18.5q40 0 53 19t13 78q0 28 -0.5 40.5t-3.5 30t-9.5 25t-18.5 13
t-31 5.5q-28 0 -44 -10.5t-19.5 -20t-4.5 -23.5h-83z" />
    <glyph glyph-name="Japan1.7570" 
d="M777 506h-86q1 43 -12 58.5t-50 15.5q-43 0 -55.5 -28t-12.5 -127q35 32 94 32q39 0 65 -13t39 -38.5t17.5 -53t4.5 -66.5q0 -35 -1.5 -56.5t-9.5 -51.5t-22.5 -46.5t-43.5 -29t-70 -12.5q-24 0 -42.5 2t-34 8t-27 11.5t-20 18t-14.5 22.5t-10 30t-6 34.5t-3.5 42.5
t-1.5 48v56q0 67 1.5 105t6.5 78t14.5 59.5t27 36.5t42.5 22.5t62 5.5q83 0 115.5 -37.5t32.5 -126.5zM631 370q-41 0 -54 -22t-13 -78q0 -55 15 -73t51 -18q42 0 54 22t12 77q0 52 -13 72t-52 20zM500 854q128 0 237 -62.5t173 -172t64 -239.5q0 -196 -139 -335t-335 -139
t-335 139t-139 335q0 130 64 239.5t173 172t237 62.5zM500 819q-181 0 -310 -128t-129 -311q0 -119 59 -220t160 -160t220 -59q182 0 310.5 128.5t128.5 310.5q0 183 -129 311t-310 128zM182 664h195v-568h-91v477h-104v91z" />
    <glyph glyph-name="Japan1.7571" 
d="M500 854q128 0 237 -62.5t173 -172t64 -239.5q0 -196 -139 -335t-335 -139t-335 139t-139 335q0 130 64 239.5t173 172t237 62.5zM500 819q-181 0 -310 -128t-129 -311q0 -119 59 -220t160 -160t220 -59q182 0 310.5 128.5t128.5 310.5q0 183 -129 311t-310 128zM187 664
h195v-568h-91v477h-104v91zM485 664h313v-95l-174 -473h-98l183 477h-224v91z" />
    <glyph glyph-name="Japan1.7572" 
d="M549 390q-14 6 -22 11t-20.5 18.5t-18.5 37.5t-6 59q0 93 35.5 123.5t106.5 30.5q37 0 60.5 -4.5t46.5 -19t33.5 -46.5t10.5 -83q0 -61 -17.5 -87t-49.5 -40q14 -4 23 -9.5t23 -19t21 -42.5t7 -70q0 -85 -33.5 -122t-117.5 -37q-77 0 -117 31.5t-40 124.5q0 43 7 71.5
t20.5 43t22.5 19.5t25 10zM628 579q-39 0 -50.5 -18t-11.5 -53q0 -38 11.5 -56.5t50.5 -18.5q22 0 35 5.5t18.5 18t7 23.5t1.5 30q0 16 -1.5 26t-7.5 21t-19 16.5t-34 5.5zM628 344q-43 0 -55 -21t-12 -68q0 -38 14 -56.5t53 -18.5q43 0 55.5 20.5t12.5 61.5
q0 43 -13.5 62.5t-54.5 19.5zM500 854q128 0 237 -62.5t173 -172t64 -239.5q0 -196 -139 -335t-335 -139t-335 139t-139 335q0 130 64 239.5t173 172t237 62.5zM500 819q-181 0 -310 -128t-129 -311q0 -119 59 -220t160 -160t220 -59q182 0 310.5 128.5t128.5 310.5
q0 183 -129 311t-310 128zM182 664h195v-568h-91v477h-104v91z" />
    <glyph glyph-name="Japan1.7573" 
d="M474 254h86q-1 -44 12 -59t50 -15q32 0 46 10.5t20 42t6 102.5q-33 -32 -93 -32q-35 0 -59.5 11.5t-37.5 27t-20 41.5t-8.5 46.5t-1.5 50.5q0 34 1.5 56t10 50t23.5 44.5t44 28t70 11.5q29 0 51 -3t38.5 -12.5t28 -18.5t19 -29.5t11.5 -36t6 -48t2.5 -55.5t0.5 -68
q0 -51 -0.5 -82.5t-3 -66.5t-7 -54.5t-12 -40.5t-18.5 -31t-27.5 -19t-37.5 -12t-49 -3q-79 0 -115.5 33.5t-35.5 130.5zM627 390q40 0 52.5 23.5t12.5 76.5q0 56 -15.5 73.5t-51.5 17.5q-43 0 -54.5 -23t-11.5 -80q0 -50 14.5 -69t53.5 -19zM500 854q128 0 237 -62.5
t173 -172t64 -239.5q0 -196 -139 -335t-335 -139t-335 139t-139 335q0 130 64 239.5t173 172t237 62.5zM500 819q-181 0 -310 -128t-129 -311q0 -119 59 -220t160 -160t220 -59q182 0 310.5 128.5t128.5 310.5q0 183 -129 311t-310 128zM181 664h195v-568h-91v477h-104v91z
" />
    <glyph glyph-name="Japan1.7574" 
d="M500 854q128 0 237 -62.5t173 -172t64 -239.5q0 -196 -139 -335t-335 -139t-335 139t-139 335q0 130 64 239.5t173 172t237 62.5zM500 819q-181 0 -310 -128t-129 -311q0 -119 59 -220t160 -160t220 -59q182 0 310.5 128.5t128.5 310.5q0 183 -129 311t-310 128zM674 670
q28 0 49.5 -3t37.5 -12.5t27 -19t18.5 -30.5t12 -38.5t6.5 -51t2.5 -61t0.5 -74.5q0 -42 -0.5 -66.5t-2 -56t-4.5 -48.5t-8 -38t-13 -31t-19.5 -22t-27 -16.5t-35 -8t-44.5 -3.5q-32 0 -55.5 5.5t-40.5 13.5t-28 28t-17.5 37.5t-9 54t-3.5 66.5t-1 85t1 85t3.5 66.5t9 54
t17.5 37.5t28 28t40.5 13.5t55.5 5.5zM674 579q-49 0 -58.5 -32.5t-9.5 -166.5q0 -135 9.5 -167t59.5 -32q47 0 56.5 33.5t9.5 165.5q0 133 -9.5 166t-57.5 33zM394 336l-80 -35q-33 -14 -44 -35t-11 -79h217v-91h-301q-3 111 5.5 164t26 73.5t59.5 39.5l72 32q21 9 30 15.5
t16.5 25t7.5 50.5q0 46 -13 64.5t-52 18.5q-20 0 -32.5 -5t-19.5 -11.5t-10 -23t-3.5 -29t-0.5 -40.5h-84q0 36 0.5 52t3.5 42.5t8.5 38t16.5 28t27 23t39.5 11.5t55.5 5q84 0 117 -35t33 -128q0 -77 -15.5 -112.5t-68.5 -58.5z" />
    <glyph glyph-name="Japan1.7575" 
d="M347 788h306v-112h-84v-564h84v-112h-306v112h84v564h-84v112z" />
    <glyph glyph-name="Japan1.7576" 
d="M199 788h602v-112h-77v-564h77v-112h-602v112h77v564h-77v112zM587 676h-174v-564h174v564z" />
    <glyph glyph-name="Japan1.7577" 
d="M130 788h740v-112h-76v-564h76v-112h-740v112h76v564h-76v112zM436 676h-102v-564h102v564zM666 676h-102v-564h102v564z" />
    <glyph glyph-name="Japan1.7578" 
d="M56 788h480v-112h-69l136 -526l133 526h-71v112h296v-112h-78l-188 -676h-183l-192 676h-52v-564h76v-112h-288v112h74v564h-74v112z" />
    <glyph glyph-name="Japan1.7579" 
d="M94 788h310v-112h-79l174 -542l177 542h-79v112h309v-112h-77l-238 -676h-185l-234 676h-78v112z" />
    <glyph glyph-name="Japan1.7580" 
d="M464 788h481v-112h-75v-564h75v-112h-288v112h76v564h-52l-193 -676h-183l-188 676h-77v112h295v-112h-71l133 -526l136 526h-69v112z" />
    <glyph glyph-name="Japan1.7581" 
d="M17 788h249v-112h-56l104 -561l107 561h-55v112h617v-112h-58v-564h58v-112h-443v112h56v564h-42l-149 -676h-182l-146 676h-60v112zM795 676h-69v-564h69v564z" />
    <glyph glyph-name="Japan1.7582" 
d="M16 788h202v-112h-40l90 -579l89 579h-40v112h668v-112h-49v-564h49v-112h-528v112h50v564h-35l-120 -676h-172l-117 676h-47v112zM668 676h-53v-564h53v564zM828 676h-53v-564h53v564z" />
    <glyph glyph-name="Japan1.7583" 
d="M80 788h485v-112h-53l95 -185l98 185h-54v112h279v-112h-76l-157 -276l166 -288h75v-112h-279v112h55l-109 203l-112 -203h57v-112h-472v112h72v564h-70v112zM363 676h-76v-564h56l174 290z" />
    <glyph glyph-name="Japan1.7584" 
d="M152 788h289v-112h-59l119 -191l117 191h-60v112h290v-112h-74l-179 -272l191 -292h79v-112h-293v112h58l-129 210l-131 -210h57v-112h-292v112h79l192 292l-180 272h-74v112z" />
    <glyph glyph-name="Japan1.8061" 
d="M859 151h117v-151h-117v151zM171 394q0 120 13 192.5t50.5 122t100 68.5t165.5 19q102 0 164.5 -18.5t100 -67.5t51 -122t13.5 -194q0 -120 -13.5 -193t-50.5 -122t-99.5 -68t-165.5 -19q-68 0 -117.5 8t-87 28t-61 49.5t-38 76t-20 103.5t-5.5 137zM500 670
q-128 -3 -159 -48q-30 -42 -30 -228t30 -228q33 -48 167 -48q118 0 151 48q30 42 30 228t-30 228q-33 48 -159 48z" />
    <glyph glyph-name="Japan1.8062" 
d="M302 788h297v-788h-140v661h-157v127zM859 151h117v-151h-117v151z" />
    <glyph glyph-name="Japan1.8063" 
d="M612 305l-187 -29q-28 -4 -44 -9t-33.5 -17.5t-25.5 -37t-8 -62.5v-23h506v-127h-645v111q0 131 43 200t157 86l196 29q64 10 89.5 32.5t25.5 85.5t-34.5 94.5t-141.5 31.5q-61 0 -97.5 -8t-55 -28.5t-24.5 -45t-6 -68.5h-138q0 52 5 87.5t23 74t51 61.5t92 38t143 15
q58 0 101 -4.5t87 -20t71.5 -42t45 -72.5t17.5 -109q0 -109 -46 -159q-62 -68 -167 -84zM859 151h117v-151h-117v151z" />
    <glyph glyph-name="Japan1.8064" 
d="M173 273h140q-1 -32 0.5 -49.5t7.5 -38t19 -31t36 -20t58 -13t86 -3.5q101 0 134.5 30.5t33.5 85.5q0 63 -31 89t-105 26h-124v113h122q22 0 34.5 0.5t33 6t31.5 15t19.5 29.5t8.5 48q0 56 -32.5 82.5t-123.5 26.5q-39 0 -68.5 -3t-50 -7t-34 -14.5t-21 -18t-11.5 -25
t-5.5 -29t-2.5 -35.5h-138q2 82 21.5 133.5t63 78.5t99.5 36.5t146 9.5q48 0 86.5 -4.5t79 -18.5t68 -37t45 -63t17.5 -94q0 -46 -11 -79.5t-31 -51t-32.5 -24.5t-31.5 -13q117 -43 117 -186q0 -60 -18.5 -103.5t-47 -68t-72 -38.5t-83.5 -18.5t-92 -4.5q-89 0 -150.5 12
t-99 32.5t-58 57.5t-27 77.5t-6.5 101.5zM859 151h117v-151h-117v151z" />
    <glyph glyph-name="Japan1.8065" 
d="M542 788h187v-497h123v-127h-123v-164h-138v164h-443v145zM591 291v375l-302 -375h302zM859 151h117v-151h-117v151z" />
    <glyph glyph-name="Japan1.8066" 
d="M859 151h117v-151h-117v151zM209 788h584v-127h-455l-6 -189q70 58 215 58q155 0 216 -67.5t61 -199.5q0 -145 -70 -208t-250 -63q-126 0 -196.5 26.5t-100 80.5t-31.5 151h139q0 -20 0.5 -30t4.5 -27t10.5 -25.5t20 -19.5t32.5 -16.5t48.5 -9.5t68.5 -4q105 0 145 29.5
t40 108.5q0 39 -5.5 63t-22.5 46t-53 31.5t-94 9.5q-92 0 -130.5 -16t-52.5 -52h-128z" />
    <glyph glyph-name="Japan1.8067" 
d="M809 566h-138q0 17 -1 28t-9 27.5t-23.5 26t-47.5 17t-77 7.5q-76 0 -115 -18t-58 -71.5t-17 -155.5q11 14 21.5 22.5t35.5 22.5t67.5 21t100.5 7q69 0 119.5 -15t78.5 -37.5t44.5 -57t21.5 -66t5 -71.5q0 -92 -25.5 -147t-92.5 -84.5t-183 -29.5q-59 0 -104.5 5.5
t-80 19.5t-59 30.5t-41 46.5t-26 58t-14.5 75t-6.5 88t-1.5 105q0 103 14.5 170.5t52 115.5t102 69t163.5 21q164 0 229.5 -58t64.5 -172zM506 380q-51 0 -86.5 -9.5t-53.5 -22t-27.5 -34.5t-11 -36.5t-1.5 -38.5q0 -72 44 -99t139 -27q56 0 91 7.5t53 26t24 41.5t6 61
q0 70 -36.5 100.5t-140.5 30.5zM859 151h117v-151h-117v151z" />
    <glyph glyph-name="Japan1.8068" 
d="M175 788h650v-129l-365 -659h-168l385 661h-502v127zM859 151h117v-151h-117v151z" />
    <glyph glyph-name="Japan1.8069" 
d="M289 409q-35 14 -58.5 39t-31.5 55t-10 45t-2 30q0 54 17 94t45 63.5t70.5 37.5t84.5 18.5t97 4.5q53 0 94 -4.5t84 -18t70.5 -36.5t45.5 -63t18 -95q0 -19 -3.5 -38.5t-12.5 -46t-31.5 -49.5t-55.5 -36q34 -9 58 -31.5t35.5 -44.5t18 -51t7 -41.5t0.5 -26.5
q0 -55 -18.5 -96t-48 -65t-74 -38t-88.5 -18.5t-100 -4.5q-48 0 -85 3t-85.5 16t-80.5 35t-55 65t-23 102q0 72 28.5 126.5t89.5 69.5zM501 463q103 0 140 24t37 86q0 54 -37 77.5t-140 23.5q-57 0 -93.5 -7t-54 -22t-23.5 -32t-6 -45q0 -62 41 -83.5t136 -21.5zM501 116
q79 0 122 13t57 36.5t14 65.5q0 72 -45 96.5t-148 24.5q-106 0 -149.5 -25.5t-43.5 -97.5q0 -62 40 -87.5t153 -25.5zM859 151h117v-151h-117v151z" />
    <glyph glyph-name="Japan1.8070" 
d="M859 151h117v-151h-117v151zM185 222h138q0 -22 3 -36.5t16.5 -32.5t48.5 -27.5t91 -9.5q79 0 119.5 18.5t59 71t16.5 155.5q-16 -19 -31 -31t-67 -27t-127 -15q-69 0 -119.5 15t-78.5 38t-44.5 57t-21.5 65t-5 70q0 139 65.5 201t235.5 62q59 0 104.5 -5.5t80 -19.5
t59 -30.5t41 -46.5t26 -58t14.5 -75t6.5 -88t1.5 -105q0 -103 -14.5 -170t-51.5 -115.5t-102 -69.5t-164 -21q-91 0 -152 17t-92.5 50t-43.5 71.5t-12 91.5zM492 408q50 0 85 8.5t53.5 20.5t29 32t12.5 36t2 40q0 72 -41 100.5t-142 28.5q-74 0 -112.5 -15.5t-50 -42
t-11.5 -77.5q0 -67 35 -99t140 -32z" />
    <glyph glyph-name="Japan1.8071" 
d="M192 857h42q-81 -100 -124.5 -223.5t-43.5 -253.5q0 -131 43.5 -254.5t124.5 -222.5h-42q-59 69 -97.5 150t-52 154.5t-17 108t-3.5 64.5t3.5 64.5t17 108t52 154.5t97.5 150zM766 857h42q59 -69 97.5 -150t52 -154.5t17 -108t3.5 -64.5t-3.5 -64.5t-17 -108t-52 -154.5
t-97.5 -150h-42q81 99 124.5 222.5t43.5 254.5q0 130 -43.5 253.5t-124.5 223.5zM360 684h209v-608h-98v511h-111v97z" />
    <glyph glyph-name="Japan1.8072" 
d="M192 857h42q-81 -100 -124.5 -223.5t-43.5 -253.5q0 -131 43.5 -254.5t124.5 -222.5h-42q-59 69 -97.5 150t-52 154.5t-17 108t-3.5 64.5t3.5 64.5t17 108t52 154.5t97.5 150zM766 857h42q59 -69 97.5 -150t52 -154.5t17 -108t3.5 -64.5t-3.5 -64.5t-17 -108t-52 -154.5
t-97.5 -150h-42q81 99 124.5 222.5t43.5 254.5q0 130 -43.5 253.5t-124.5 223.5zM575 333l-89 -38q-36 -15 -48 -37.5t-12 -84.5h240v-97h-334q-2 119 7.5 177t29 79t65.5 41l78 33q23 10 33.5 17t18.5 27t8 55q0 49 -14 69t-57 20q-47 0 -60 -22t-13 -79v-17h-94
q0 36 0.5 53.5t3.5 45.5t9 41t18 30.5t30 25.5t45 13.5t62 5.5q92 0 129 -37t37 -137q0 -85 -17.5 -122.5t-75.5 -61.5z" />
    <glyph glyph-name="Japan1.8073" 
d="M192 857h42q-81 -100 -124.5 -223.5t-43.5 -253.5q0 -131 43.5 -254.5t124.5 -222.5h-42q-59 69 -97.5 150t-52 154.5t-17 108t-3.5 64.5t3.5 64.5t17 108t52 154.5t97.5 150zM766 857h42q59 -69 97.5 -150t52 -154.5t17 -108t3.5 -64.5t-3.5 -64.5t-17 -108t-52 -154.5
t-97.5 -150h-42q81 99 124.5 222.5t43.5 254.5q0 130 -43.5 253.5t-124.5 223.5zM331 278h97q-1 -36 0 -51.5t7.5 -32.5t22 -22.5t42.5 -5.5q37 0 55 17t18 66q0 34 -5.5 53.5t-19.5 28t-25.5 10t-36.5 1.5h-48v90h50q48 0 65 15t17 68q0 39 -13.5 59t-54.5 20
q-49 0 -61 -22t-11 -76h-97q0 39 2 62t10.5 52t25.5 44t49 26t78 11q81 0 123 -32.5t42 -128.5q0 -56 -16 -89.5t-67 -50.5q16 -2 26.5 -6.5t27.5 -17.5t26 -44.5t9 -78.5q0 -96 -37.5 -135t-129.5 -39q-28 0 -50.5 3t-39.5 7.5t-29.5 14.5t-21 17.5t-14.5 24.5t-9 28
t-4.5 34t-2 37t-0.5 43z" />
    <glyph glyph-name="Japan1.8074" 
d="M485 684h131v-385h46v-96h-46v-127h-96v127h-214v118zM521 567l-126 -268h126v268zM192 857h42q-81 -100 -124.5 -223.5t-43.5 -253.5q0 -131 43.5 -254.5t124.5 -222.5h-42q-59 69 -97.5 150t-52 154.5t-17 108t-3.5 64.5t3.5 64.5t17 108t52 154.5t97.5 150zM766 857
h42q59 -69 97.5 -150t52 -154.5t17 -108t3.5 -64.5t-3.5 -64.5t-17 -108t-52 -154.5t-97.5 -150h-42q81 99 124.5 222.5t43.5 254.5q0 130 -43.5 253.5t-124.5 223.5z" />
    <glyph glyph-name="Japan1.8075" 
d="M192 857h42q-81 -100 -124.5 -223.5t-43.5 -253.5q0 -131 43.5 -254.5t124.5 -222.5h-42q-59 69 -97.5 150t-52 154.5t-17 108t-3.5 64.5t3.5 64.5t17 108t52 154.5t97.5 150zM766 857h42q59 -69 97.5 -150t52 -154.5t17 -108t3.5 -64.5t-3.5 -64.5t-17 -108t-52 -154.5
t-97.5 -150h-42q81 99 124.5 222.5t43.5 254.5q0 130 -43.5 253.5t-124.5 223.5zM344 684h314v-97h-220l-4 -130q33 27 91 27q39 0 66.5 -12t42.5 -29t23 -46t10 -53.5t2 -60.5q0 -58 -5 -92.5t-22 -65t-51.5 -43.5t-90.5 -13q-96 0 -133 42.5t-36 148.5h96
q-1 -53 12.5 -73.5t60.5 -20.5q44 0 58.5 21t14.5 82q0 31 -0.5 44.5t-4 32.5t-10.5 26.5t-20.5 13.5t-33.5 6q-24 0 -40.5 -6t-23 -17t-9 -17.5t-3.5 -16.5h-92z" />
    <glyph glyph-name="Japan1.8076" 
d="M664 515h-95q1 47 -13.5 63.5t-54.5 16.5q-48 0 -61.5 -30t-13.5 -137q37 35 104 35q43 0 72 -14t43 -41.5t19 -57t5 -70.5q0 -38 -1.5 -61t-10 -55.5t-25 -50t-48.5 -31t-78 -13.5q-29 0 -51.5 3.5t-40 8.5t-30.5 17t-22 22t-14.5 32t-9 38t-5 48t-2 55t-0.5 65
q0 55 0.5 89t3.5 71.5t7.5 58.5t13 43.5t21 33.5t30.5 20.5t40.5 13t53.5 3.5q92 0 127.5 -40t35.5 -136zM503 369q-46 0 -60.5 -23.5t-14.5 -83.5t17 -79t57 -19q46 0 59.5 23.5t13.5 82.5q0 52 -13.5 75.5t-58.5 23.5zM192 857h42q-81 -100 -124.5 -223.5t-43.5 -253.5
q0 -131 43.5 -254.5t124.5 -222.5h-42q-59 69 -97.5 150t-52 154.5t-17 108t-3.5 64.5t3.5 64.5t17 108t52 154.5t97.5 150zM766 857h42q59 -69 97.5 -150t52 -154.5t17 -108t3.5 -64.5t-3.5 -64.5t-17 -108t-52 -154.5t-97.5 -150h-42q81 99 124.5 222.5t43.5 254.5
q0 130 -43.5 253.5t-124.5 223.5z" />
    <glyph glyph-name="Japan1.8077" 
d="M192 857h42q-81 -100 -124.5 -223.5t-43.5 -253.5q0 -131 43.5 -254.5t124.5 -222.5h-42q-59 69 -97.5 150t-52 154.5t-17 108t-3.5 64.5t3.5 64.5t17 108t52 154.5t97.5 150zM766 857h42q59 -69 97.5 -150t52 -154.5t17 -108t3.5 -64.5t-3.5 -64.5t-17 -108t-52 -154.5
t-97.5 -150h-42q81 99 124.5 222.5t43.5 254.5q0 130 -43.5 253.5t-124.5 223.5zM322 660h356v-101l-193 -507h-108l202 511h-257v97z" />
    <glyph glyph-name="Japan1.8078" 
d="M412 391q-16 6 -25 12t-22.5 20t-20 40.5t-6.5 63.5q0 99 39.5 131.5t117.5 32.5q41 0 66.5 -4.5t51 -20.5t37.5 -50t12 -89q0 -66 -19.5 -94t-54.5 -42q16 -5 25.5 -10.5t25 -20.5t23.5 -45.5t8 -75.5q0 -93 -39 -131.5t-131 -38.5q-86 0 -128 36t-42 131q0 46 7.5 77
t22 46.5t25 21t27.5 10.5zM500 594q-24 0 -38.5 -6t-21 -18.5t-8 -23.5t-1.5 -29q0 -40 12.5 -60t56.5 -20q31 0 46.5 12.5t18.5 27.5t3 43q0 17 -1.5 27.5t-8 22.5t-21 18t-37.5 6zM500 342q-47 0 -61 -22.5t-14 -73.5q0 -41 15.5 -60.5t59.5 -19.5q47 0 61 21.5t14 65.5
q0 47 -15.5 68t-59.5 21zM192 857h42q-81 -100 -124.5 -223.5t-43.5 -253.5q0 -131 43.5 -254.5t124.5 -222.5h-42q-59 69 -97.5 150t-52 154.5t-17 108t-3.5 64.5t3.5 64.5t17 108t52 154.5t97.5 150zM766 857h42q59 -69 97.5 -150t52 -154.5t17 -108t3.5 -64.5t-3.5 -64.5
t-17 -108t-52 -154.5t-97.5 -150h-42q81 99 124.5 222.5t43.5 254.5q0 130 -43.5 253.5t-124.5 223.5z" />
    <glyph glyph-name="Japan1.8079" 
d="M331 245h94q0 -46 14 -63t55 -17q52 0 66 28.5t14 138.5q-37 -35 -103 -35q-36 0 -62.5 11t-41 27.5t-23 42t-11 48.5t-2.5 54q0 38 1.5 60.5t10 55t25 50.5t48.5 31.5t78 13.5q29 0 51.5 -3.5t40 -8.5t30.5 -17t22 -22.5t14.5 -32t9 -38t5 -48t2 -55t0.5 -65.5
q0 -73 -1.5 -114.5t-7 -85t-16 -64t-30 -38.5t-47.5 -24t-69 -6q-87 0 -127.5 36t-39.5 140zM497 391q46 0 60.5 23.5t14.5 82.5q0 61 -17 80t-57 19q-46 0 -59.5 -23.5t-13.5 -81.5q0 -54 13 -77t59 -23zM192 857h42q-81 -100 -124.5 -223.5t-43.5 -253.5
q0 -131 43.5 -254.5t124.5 -222.5h-42q-59 69 -97.5 150t-52 154.5t-17 108t-3.5 64.5t3.5 64.5t17 108t52 154.5t97.5 150zM766 857h42q59 -69 97.5 -150t52 -154.5t17 -108t3.5 -64.5t-3.5 -64.5t-17 -108t-52 -154.5t-97.5 -150h-42q81 99 124.5 222.5t43.5 254.5
q0 130 -43.5 253.5t-124.5 223.5z" />
    <glyph glyph-name="Japan1.8080" 
d="M638 682q24 0 44 -2t35.5 -8.5t27.5 -12.5t21.5 -19.5t15.5 -25t10 -33t6.5 -38t3.5 -47t1.5 -53.5t0.5 -63t-0.5 -63t-1.5 -53.5t-3.5 -47t-6.5 -38t-10 -33t-15.5 -25t-21.5 -19.5t-27.5 -12.5t-35.5 -8.5t-44 -2q-30 0 -53 3t-40.5 13t-29.5 20t-20 32t-12.5 40
t-6.5 53.5t-2.5 63t-0.5 77.5q0 51 0.5 78t3 63t6.5 53.5t12.5 40t20 32t29 19.5t40.5 13t53 3zM638 588q-52 0 -62 -34t-10 -174t10.5 -174t63.5 -34q50 0 60.5 35t10.5 173q0 139 -10.5 173.5t-62.5 34.5zM192 857h42q-81 -100 -124.5 -223.5t-43.5 -253.5
q0 -131 43.5 -254.5t124.5 -222.5h-42q-59 69 -97.5 150t-52 154.5t-17 108t-3.5 64.5t3.5 64.5t17 108t52 154.5t97.5 150zM766 857h42q59 -69 97.5 -150t52 -154.5t17 -108t3.5 -64.5t-3.5 -64.5t-17 -108t-52 -154.5t-97.5 -150h-42q81 99 124.5 222.5t43.5 254.5
q0 130 -43.5 253.5t-124.5 223.5zM168 676h203v-592h-95v497h-108v95z" />
    <glyph glyph-name="Japan1.8081" 
d="M192 857h42q-81 -100 -124.5 -223.5t-43.5 -253.5q0 -131 43.5 -254.5t124.5 -222.5h-42q-59 69 -97.5 150t-52 154.5t-17 108t-3.5 64.5t3.5 64.5t17 108t52 154.5t97.5 150zM766 857h42q59 -69 97.5 -150t52 -154.5t17 -108t3.5 -64.5t-3.5 -64.5t-17 -108t-52 -154.5
t-97.5 -150h-42q81 99 124.5 222.5t43.5 254.5q0 130 -43.5 253.5t-124.5 223.5zM176 676h203v-592h-94v497h-109v95zM547 676h203v-592h-95v497h-108v95z" />
    <glyph glyph-name="Japan1.8082" 
d="M192 857h42q-81 -100 -124.5 -223.5t-43.5 -253.5q0 -131 43.5 -254.5t124.5 -222.5h-42q-59 69 -97.5 150t-52 154.5t-17 108t-3.5 64.5t3.5 64.5t17 108t52 154.5t97.5 150zM766 857h42q59 -69 97.5 -150t52 -154.5t17 -108t3.5 -64.5t-3.5 -64.5t-17 -108t-52 -154.5
t-97.5 -150h-42q81 99 124.5 222.5t43.5 254.5q0 130 -43.5 253.5t-124.5 223.5zM168 676h203v-592h-95v497h-108v95zM711 334l-86 -36q-35 -15 -47 -36.5t-11 -82.5h232v-95h-323q-2 116 6 170t27 76.5t65 42.5l77 33q17 7 25 11.5t17 14.5t12.5 26.5t3.5 42.5
q0 47 -14 66.5t-55 19.5q-46 0 -59 -21t-13 -76v-16h-90q0 35 0.5 52t3.5 44t9 39.5t17.5 29.5t29 24.5t43.5 13t60 5.5q89 0 124.5 -36t35.5 -133q0 -82 -16.5 -118.5t-73.5 -60.5z" />
    <glyph glyph-name="Japan1.8083" 
d="M192 857h42q-81 -100 -124.5 -223.5t-43.5 -253.5q0 -131 43.5 -254.5t124.5 -222.5h-42q-59 69 -97.5 150t-52 154.5t-17 108t-3.5 64.5t3.5 64.5t17 108t52 154.5t97.5 150zM766 857h42q59 -69 97.5 -150t52 -154.5t17 -108t3.5 -64.5t-3.5 -64.5t-17 -108t-52 -154.5
t-97.5 -150h-42q81 99 124.5 222.5t43.5 254.5q0 130 -43.5 253.5t-124.5 223.5zM168 676h203v-592h-95v497h-108v95zM475 281h93v-40t3.5 -30.5t11 -21t21 -13t35.5 -4.5q35 0 52.5 16.5t17.5 64.5q0 26 -4.5 44t-10.5 27t-18.5 13.5t-22 5.5t-28.5 1h-47v87h49
q46 0 62.5 14t16.5 66q0 38 -13 57t-53 19q-47 0 -58.5 -21t-11.5 -73h-93q0 38 1.5 60.5t10.5 50t25 42.5t47 25.5t75 10.5q79 0 120 -31t41 -125q0 -54 -15.5 -87t-65.5 -49q12 -2 19.5 -4t22 -10.5t22.5 -22.5t15 -41.5t7 -64.5q0 -93 -36 -131t-125 -38q-27 0 -49 3
t-38.5 7t-28.5 14l-20.5 17.5t-14 24t-8.5 26.5t-4.5 33t-2 36t-0.5 42z" />
    <glyph glyph-name="Japan1.8084" 
d="M642 676h127v-374h44v-94h-44v-124h-94v124h-207v114zM676 561l-123 -259h123v259zM192 857h42q-81 -100 -124.5 -223.5t-43.5 -253.5q0 -131 43.5 -254.5t124.5 -222.5h-42q-59 69 -97.5 150t-52 154.5t-17 108t-3.5 64.5t3.5 64.5t17 108t52 154.5t97.5 150zM766 857
h42q59 -69 97.5 -150t52 -154.5t17 -108t3.5 -64.5t-3.5 -64.5t-17 -108t-52 -154.5t-97.5 -150h-42q81 99 124.5 222.5t43.5 254.5q0 130 -43.5 253.5t-124.5 223.5zM169 676h203v-592h-94v497h-109v95z" />
    <glyph glyph-name="Japan1.8085" 
d="M192 857h42q-81 -100 -124.5 -223.5t-43.5 -253.5q0 -131 43.5 -254.5t124.5 -222.5h-42q-59 69 -97.5 150t-52 154.5t-17 108t-3.5 64.5t3.5 64.5t17 108t52 154.5t97.5 150zM766 857h42q59 -69 97.5 -150t52 -154.5t17 -108t3.5 -64.5t-3.5 -64.5t-17 -108t-52 -154.5
t-97.5 -150h-42q81 99 124.5 222.5t43.5 254.5q0 130 -43.5 253.5t-124.5 223.5zM166 676h203v-592h-95v497h-108v95zM485 676h305v-95h-213l-4 -126q37 26 88 26q38 0 65 -11.5t41 -28t22 -44.5t10 -52t2 -59q0 -56 -5 -89.5t-21.5 -63t-50 -42.5t-87.5 -13q-93 0 -129 41
t-35 144h93q-1 -52 12.5 -71.5t58.5 -19.5q43 0 56.5 20.5t13.5 80.5q0 29 -0.5 42.5t-3.5 32t-10 25.5t-20 13t-32 6q-68 0 -74 -55h-89z" />
    <glyph glyph-name="Japan1.8086" 
d="M798 511h-92q0 45 -14 61.5t-53 16.5q-46 0 -59.5 -29.5t-13.5 -132.5q36 33 101 33q80 0 108 -46.5t28 -132.5q0 -37 -2 -61t-11 -54t-25.5 -47t-47.5 -29t-75 -12q-25 0 -45 2t-36 8t-28 12t-21.5 19.5t-15.5 23.5t-10.5 31t-6.5 36t-3.5 44t-1.5 49.5v57.5q0 61 1 96
t4 74.5t10.5 60t19 41t29.5 29.5t42.5 14.5t58.5 5.5q88 0 123.5 -38t35.5 -133zM639 369q-43 0 -56.5 -24t-13.5 -80q0 -58 16.5 -76.5t55.5 -18.5q45 0 57.5 23.5t12.5 84.5q0 52 -15.5 71.5t-56.5 19.5zM192 857h42q-81 -100 -124.5 -223.5t-43.5 -253.5
q0 -131 43.5 -254.5t124.5 -222.5h-42q-59 69 -97.5 150t-52 154.5t-17 108t-3.5 64.5t3.5 64.5t17 108t52 154.5t97.5 150zM766 857h42q59 -69 97.5 -150t52 -154.5t17 -108t3.5 -64.5t-3.5 -64.5t-17 -108t-52 -154.5t-97.5 -150h-42q81 99 124.5 222.5t43.5 254.5
q0 130 -43.5 253.5t-124.5 223.5zM168 676h203v-592h-95v497h-108v95z" />
    <glyph glyph-name="Japan1.8087" 
d="M192 857h42q-81 -100 -124.5 -223.5t-43.5 -253.5q0 -131 43.5 -254.5t124.5 -222.5h-42q-59 69 -97.5 150t-52 154.5t-17 108t-3.5 64.5t3.5 64.5t17 108t52 154.5t97.5 150zM766 857h42q59 -69 97.5 -150t52 -154.5t17 -108t3.5 -64.5t-3.5 -64.5t-17 -108t-52 -154.5
t-97.5 -150h-42q81 99 124.5 222.5t43.5 254.5q0 130 -43.5 253.5t-124.5 223.5zM176 676h203v-592h-95v497h-108v95zM474 676h346v-99l-188 -493h-105l197 497h-250v95z" />
    <glyph glyph-name="Japan1.8088" 
d="M553 391q-15 6 -24 11.5t-22 19t-19.5 39t-6.5 61.5q0 95 38 127.5t115 32.5q40 0 65 -4.5t49.5 -20t36 -48.5t11.5 -86q0 -64 -19 -91.5t-53 -40.5q16 -5 25 -10t24.5 -20t23 -44.5t7.5 -72.5q0 -91 -38 -128.5t-128 -37.5q-83 0 -124 34.5t-41 127.5q0 45 7 75t22 45
t24.5 20t26.5 11zM638 588q-23 0 -37 -6t-20 -18t-7.5 -22.5t-1.5 -28.5q0 -39 12 -58.5t54 -19.5q23 0 37.5 6t20.5 19t7.5 24.5t1.5 31.5q0 16 -2 26.5t-8 22t-20.5 17.5t-36.5 6zM638 343q-46 0 -59 -22t-13 -72q0 -39 15 -58t57 -19q46 0 59.5 21t13.5 64
q0 45 -14.5 65.5t-58.5 20.5zM192 857h42q-81 -100 -124.5 -223.5t-43.5 -253.5q0 -131 43.5 -254.5t124.5 -222.5h-42q-59 69 -97.5 150t-52 154.5t-17 108t-3.5 64.5t3.5 64.5t17 108t52 154.5t97.5 150zM766 857h42q59 -69 97.5 -150t52 -154.5t17 -108t3.5 -64.5
t-3.5 -64.5t-17 -108t-52 -154.5t-97.5 -150h-42q81 99 124.5 222.5t43.5 254.5q0 130 -43.5 253.5t-124.5 223.5zM168 676h203v-592h-95v497h-108v95z" />
    <glyph glyph-name="Japan1.8089" 
d="M472 249h92q-1 -45 13 -61.5t54 -16.5q50 0 64 28t14 134q-35 -33 -100 -33q-43 0 -71.5 14t-42 41.5t-18.5 55.5t-5 68q0 37 2 60.5t10.5 53.5t25 47.5t47.5 29.5t76 12q31 0 55 -3t41.5 -13t29.5 -19.5t20 -31t12.5 -37.5t6.5 -50t2.5 -57.5t0.5 -70.5
q0 -71 -1.5 -110.5t-6.5 -82t-15.5 -62.5t-29.5 -38t-46 -23.5t-67 -5.5q-85 0 -124.5 35t-38.5 136zM637 391q43 0 56 24t13 79q0 58 -16.5 77t-54.5 19q-45 0 -58 -24t-13 -84q0 -52 15.5 -71.5t57.5 -19.5zM192 857h42q-81 -100 -124.5 -223.5t-43.5 -253.5
q0 -131 43.5 -254.5t124.5 -222.5h-42q-59 69 -97.5 150t-52 154.5t-17 108t-3.5 64.5t3.5 64.5t17 108t52 154.5t97.5 150zM766 857h42q59 -69 97.5 -150t52 -154.5t17 -108t3.5 -64.5t-3.5 -64.5t-17 -108t-52 -154.5t-97.5 -150h-42q81 99 124.5 222.5t43.5 254.5
q0 130 -43.5 253.5t-124.5 223.5zM166 676h203v-592h-95v497h-108v95z" />
    <glyph glyph-name="Japan1.8090" 
d="M685 682q24 0 44 -2t35.5 -8.5t27.5 -12.5t21.5 -19.5t15.5 -25t10 -33t6.5 -38t3.5 -47t1.5 -53.5t0.5 -63t-0.5 -63t-1.5 -53.5t-3.5 -47t-6.5 -38t-10 -33t-15.5 -25t-21.5 -19.5t-27.5 -12.5t-35.5 -8.5t-44 -2q-30 0 -53 3.5t-40.5 13t-29.5 19.5t-20 32t-12.5 40
t-7 53t-3 63.5t-0.5 77.5q0 50 0.5 78t3 63t7 53.5t12.5 40t20 31.5t29.5 20t40.5 13t53 3zM685 588q-52 0 -62 -34t-10 -174q0 -141 10.5 -174.5t63.5 -33.5q50 0 60.5 35t10.5 173t-11 173t-62 35zM192 857h42q-81 -100 -124.5 -223.5t-43.5 -253.5q0 -131 43.5 -254.5
t124.5 -222.5h-42q-59 69 -97.5 150t-52 154.5t-17 108t-3.5 64.5t3.5 64.5t17 108t52 154.5t97.5 150zM766 857h42q59 -69 97.5 -150t52 -154.5t17 -108t3.5 -64.5t-3.5 -64.5t-17 -108t-52 -154.5t-97.5 -150h-42q81 99 124.5 222.5t43.5 254.5q0 130 -43.5 253.5
t-124.5 223.5zM387 334l-86 -36q-34 -14 -46 -36t-12 -83h233v-95h-324q-2 116 6.5 170.5t27.5 76.5t65 42l76 33q18 8 25 12t16.5 14.5t13 26.5t3.5 42q0 47 -14 66.5t-55 19.5q-46 0 -58.5 -21t-12.5 -76v-16h-91q0 35 0.5 52t3.5 44t9 39.5t17.5 29.5t29 24.5t43.5 13
t60 5.5q89 0 125 -36t36 -133q0 -82 -17 -118.5t-74 -60.5z" />
    <glyph glyph-name="Japan1.8091" 
d="M500 854q128 0 237 -62.5t173 -172t64 -239.5q0 -196 -139 -335t-335 -139t-335 139t-139 335q0 130 64 239.5t173 172t237 62.5zM500 819q-181 0 -310 -128t-129 -311q0 -119 59 -220t160 -160t220 -59q182 0 310.5 128.5t128.5 310.5q0 183 -129 311t-310 128zM421 336
l-80 -35q-33 -14 -44 -35t-10 -79h216v-91h-301q-2 111 6 164t25.5 73t60.5 40l71 32q21 9 30 15.5t16.5 25t7.5 50.5q0 46 -13 64.5t-52 18.5q-20 0 -32.5 -5t-19.5 -11.5t-10 -23t-3.5 -29t-0.5 -40.5h-84q0 31 0.5 45.5t2.5 38.5t6 35.5t11 27.5t18 23.5t26.5 15.5t37 11
t49.5 3q84 0 117 -35t33 -128q0 -77 -15.5 -112.5t-68.5 -58.5zM562 664h195v-568h-91v477h-104v91z" />
    <glyph glyph-name="Japan1.8092" 
d="M431 788h138v-127h-138v127zM435 589h130v-589h-130v589z" />
    <glyph glyph-name="Japan1.8093" 
d="M292 788h137v-126h-137v126zM296 589h128v-589h-128v589zM571 788h138v-126h-138v126zM576 589h128v-589h-128v589z" />
    <glyph glyph-name="Japan1.8094" 
d="M214 788h134v-126h-134v126zM219 589h124v-589h-124v589zM433 788h134v-126h-134v126zM438 589h124v-589h-124v589zM652 788h134v-126h-134v126zM657 589h124v-589h-124v589z" />
    <glyph glyph-name="Japan1.8095" 
d="M179 788h138v-126h-138v126zM183 589h130v-589h-130v589zM367 589h138l83 -293l42 -169l45 169l86 293h138l-188 -589h-163z" />
    <glyph glyph-name="Japan1.8096" 
d="M203 589h142l155 -466l155 466h142l-216 -589h-162z" />
    <glyph glyph-name="Japan1.8097" 
d="M683 788h138v-126h-138v126zM687 589h130v-589h-130v589zM495 589h138l-181 -589h-163l-188 589h138l86 -293l45 -169l42 169z" />
    <glyph glyph-name="Japan1.8098" 
d="M59 589h133l67 -278l34 -182l34 182l70 278h134l-158 -589h-161zM564 788h134v-126h-134v126zM569 589h124v-589h-124v589zM746 788h134v-126h-134v126zM750 589h125v-589h-125v589z" />
    <glyph glyph-name="Japan1.8099" 
d="M50 589h128l53 -259l27 -198l31 198l52 259h126l-129 -589h-160zM490 788h114v-126h-114v126zM495 589h105v-589h-105v589zM636 788h115v-126h-115v126zM641 589h105v-589h-105v589zM783 788h114v-126h-114v126zM787 589h105v-589h-105v589z" />
    <glyph glyph-name="Japan1.8100" 
d="M177 788h138v-126h-138v126zM181 589h130v-589h-130v589zM370 589h145l110 -211l110 211h145l-152 -280l169 -309h-148l-124 245l-125 -245h-148l170 309z" />
    <glyph glyph-name="Japan1.8101" 
d="M221 589h153l126 -217l126 217h153l-175 -280l188 -309h-153l-139 246l-138 -246h-154l187 311z" />
    <glyph glyph-name="Japan1.8102" 
d="M500 854q128 0 237 -62.5t173 -172t64 -239.5q0 -196 -139 -335t-335 -139t-335 139t-139 335q0 130 64 239.5t173 172t237 62.5zM500 819q-181 0 -310 -128t-129 -311q0 -119 59 -220t160 -160t220 -59q182 0 310.5 128.5t128.5 310.5q0 183 -129 311t-310 128zM394 336
l-80 -35q-33 -14 -44 -35t-11 -79h217v-91h-301q-3 111 5.5 164t26 73.5t59.5 39.5l72 32q21 9 30 15.5t16.5 25t7.5 50.5q0 46 -13 64.5t-52 18.5q-20 0 -32.5 -5t-19.5 -11.5t-10 -23t-3.5 -29t-0.5 -40.5h-84q0 36 0.5 52t3.5 42.5t8.5 38t16.5 28t27 23t39.5 11.5
t55.5 5q84 0 117 -35t33 -128q0 -77 -15.5 -112.5t-68.5 -58.5zM741 336l-80 -35q-33 -14 -44 -35t-10 -79h216v-91h-301q-2 111 6 164t25.5 73t60.5 40l71 32q21 9 30 15.5t16.5 25t7.5 50.5q0 46 -13 64.5t-52 18.5q-20 0 -32.5 -5t-19.5 -11.5t-10 -23t-3.5 -29
t-0.5 -40.5h-84q0 31 0.5 45.5t2.5 38.5t6 35.5t11 27.5t18 23.5t27 15.5t37.5 11t49.5 3q83 0 116 -35t33 -128q0 -77 -15.5 -112.5t-68.5 -58.5z" />
    <glyph glyph-name="Japan1.8103" 
d="M500 854q128 0 237 -62.5t173 -172t64 -239.5q0 -196 -139 -335t-335 -139t-335 139t-139 335q0 130 64 239.5t173 172t237 62.5zM500 819q-181 0 -310 -128t-129 -311q0 -119 59 -220t160 -160t220 -59q182 0 310.5 128.5t128.5 310.5q0 183 -129 311t-310 128zM394 336
l-80 -35q-33 -14 -44 -35t-11 -79h217v-91h-301q-3 111 5.5 164t26 73.5t59.5 39.5l72 32q21 9 30 15.5t16.5 25t7.5 50.5q0 46 -13 64.5t-52 18.5q-20 0 -32.5 -5t-19.5 -11.5t-10 -23t-3.5 -29t-0.5 -40.5h-84q0 36 0.5 52t3.5 42.5t8.5 38t16.5 28t27 23t39.5 11.5
t55.5 5q84 0 117 -35t33 -128q0 -77 -15.5 -112.5t-68.5 -58.5zM521 285h87q0 -34 0.5 -48t6.5 -30t20 -21t39 -5q33 0 49.5 15.5t16.5 61.5q0 32 -5 50.5t-18 26t-23 9t-33 1.5h-44v84h46q43 0 58 13.5t15 62.5q0 37 -12 55.5t-48 18.5q-45 0 -55.5 -20t-10.5 -71h-87
q0 46 3.5 72.5t17.5 55t45.5 41.5t82.5 13q73 0 111 -30t38 -119q0 -53 -14.5 -84t-60.5 -47q15 -2 24 -6t24.5 -16.5t23.5 -42t8 -73.5q0 -90 -34.5 -126t-115.5 -36q-52 0 -84 11t-47 36.5t-19.5 52.5t-4.5 74v21z" />
    <glyph glyph-name="Japan1.8104" 
d="M500 854q128 0 237 -62.5t173 -172t64 -239.5q0 -196 -139 -335t-335 -139t-335 139t-139 335q0 130 64 239.5t173 172t237 62.5zM500 819q-181 0 -310 -128t-129 -311q0 -119 59 -220t160 -160t220 -59q182 0 310.5 128.5t128.5 310.5q0 183 -129 311t-310 128zM677 664
h118v-359h41v-90h-41v-119h-87v119h-193v110zM709 554l-115 -249h115v249zM394 336l-80 -35q-33 -14 -44 -35t-11 -79h217v-91h-301q-3 111 5.5 164t26 73.5t59.5 39.5l72 32q21 9 30 15.5t16.5 25t7.5 50.5q0 46 -13 64.5t-52 18.5q-20 0 -32.5 -5t-19.5 -11.5t-10 -23
t-3.5 -29t-0.5 -40.5h-84q0 36 0.5 52t3.5 42.5t8.5 38t16.5 28t27 23t39.5 11.5t55.5 5q84 0 117 -35t33 -128q0 -77 -15.5 -112.5t-68.5 -58.5z" />
    <glyph glyph-name="Japan1.8105" 
d="M500 854q128 0 237 -62.5t173 -172t64 -239.5q0 -196 -139 -335t-335 -139t-335 139t-139 335q0 130 64 239.5t173 172t237 62.5zM500 819q-181 0 -310 -128t-129 -311q0 -119 59 -220t160 -160t220 -59q182 0 310.5 128.5t128.5 310.5q0 183 -129 311t-310 128zM394 336
l-80 -35q-33 -14 -44 -35t-11 -79h217v-91h-301q-3 111 5.5 164t26 73.5t59.5 39.5l72 32q21 9 30 15.5t16.5 25t7.5 50.5q0 46 -13 64.5t-52 18.5q-20 0 -32.5 -5t-19.5 -11.5t-10 -23t-3.5 -29t-0.5 -40.5h-84q0 36 0.5 52t3.5 42.5t8.5 38t16.5 28t27 23t39.5 11.5
t55.5 5q84 0 117 -35t33 -128q0 -77 -15.5 -112.5t-68.5 -58.5zM532 664h285v-91h-199l-4 -121q31 25 82 25q36 0 61.5 -12t38.5 -28t20 -45t8.5 -50.5t1.5 -56.5q0 -52 -5 -84.5t-20.5 -59.5t-46 -39t-80.5 -12q-84 0 -119 38t-34 140h87q-1 -50 11 -68.5t54 -18.5
q40 0 53 19t13 78q0 28 -0.5 40.5t-3.5 30t-9.5 25t-18.5 13t-30 5.5q-28 0 -44.5 -10.5t-19 -20t-4.5 -23.5h-84z" />
    <glyph glyph-name="Japan1.8106" 
d="M822 506h-86q1 43 -12 58.5t-50 15.5q-43 0 -55.5 -28t-12.5 -127q35 32 94 32q39 0 65 -13t39 -38.5t17.5 -53t4.5 -66.5q0 -35 -1.5 -56.5t-9.5 -51.5t-22.5 -46.5t-43.5 -29t-70 -12.5q-24 0 -42.5 2t-34 8t-27 11.5t-20 18t-14.5 22.5t-10 30t-6 34.5t-3.5 42.5
t-1.5 48v56q0 67 1.5 105t6.5 78t14.5 59.5t27 36.5t42.5 22.5t62 5.5q83 0 115.5 -37.5t32.5 -126.5zM676 370q-41 0 -54 -22t-13 -78t15 -73.5t52 -17.5q41 0 53 22t12 77q0 49 -12 70.5t-53 21.5zM500 854q128 0 237 -62.5t173 -172t64 -239.5q0 -196 -139 -335
t-335 -139t-335 139t-139 335q0 130 64 239.5t173 172t237 62.5zM500 819q-181 0 -310 -128t-129 -311q0 -119 59 -220t160 -160t220 -59q182 0 310.5 128.5t128.5 310.5q0 183 -129 311t-310 128zM394 336l-80 -35q-33 -14 -44 -35t-11 -79h217v-91h-301q-3 111 5.5 164
t26 73.5t59.5 39.5l72 32q21 9 30 15.5t16.5 25t7.5 50.5q0 46 -13 64.5t-52 18.5q-20 0 -32.5 -5t-19.5 -11.5t-10 -23t-3.5 -29t-0.5 -40.5h-84q0 36 0.5 52t3.5 42.5t8.5 38t16.5 28t27 23t39.5 11.5t55.5 5q84 0 117 -35t33 -128q0 -77 -15.5 -112.5t-68.5 -58.5z" />
    <glyph glyph-name="Japan1.8107" 
d="M500 854q128 0 237 -62.5t173 -172t64 -239.5q0 -196 -139 -335t-335 -139t-335 139t-139 335q0 130 64 239.5t173 172t237 62.5zM500 819q-181 0 -310 -128t-129 -311q0 -119 59 -220t160 -160t220 -59q182 0 310.5 128.5t128.5 310.5q0 183 -129 311t-310 128zM394 336
l-80 -35q-33 -14 -44 -35t-11 -79h217v-91h-301q-3 111 5.5 164t26 73.5t59.5 39.5l72 32q21 9 30 15.5t16.5 25t7.5 50.5q0 46 -13 64.5t-52 18.5q-20 0 -32.5 -5t-19.5 -11.5t-10 -23t-3.5 -29t-0.5 -40.5h-84q0 36 0.5 52t3.5 42.5t8.5 38t16.5 28t27 23t39.5 11.5
t55.5 5q84 0 117 -35t33 -128q0 -77 -15.5 -112.5t-68.5 -58.5zM516 664h313v-95l-175 -473h-97l183 477h-224v91z" />
    <glyph glyph-name="Japan1.8108" 
d="M594 390q-14 6 -22 11t-20.5 18.5t-18.5 37.5t-6 59q0 93 35.5 123.5t106.5 30.5q37 0 60.5 -4.5t46.5 -19t33.5 -46.5t10.5 -83q0 -61 -17.5 -87t-49.5 -40q14 -4 23.5 -9.5t23 -19t20.5 -42t7 -70.5q0 -85 -33.5 -122t-117.5 -37q-77 0 -117 31.5t-40 124.5
q0 43 7 71.5t20.5 43t22.5 19.5t25 10zM673 579q-39 0 -50.5 -18t-11.5 -52q-1 -38 11 -57t51 -19q22 0 35 5.5t18.5 18t7 23.5t1.5 30q0 22 -2.5 34.5t-17 23.5t-42.5 11zM673 344q-43 0 -55 -21t-12 -68q0 -38 14 -56.5t53 -18.5q43 0 55.5 20.5t12.5 61.5
q0 43 -13.5 62.5t-54.5 19.5zM500 854q128 0 237 -62.5t173 -172t64 -239.5q0 -196 -139 -335t-335 -139t-335 139t-139 335q0 130 64 239.5t173 172t237 62.5zM500 819q-181 0 -310 -128t-129 -311q0 -119 59 -220t160 -160t220 -59q182 0 310.5 128.5t128.5 310.5
q0 183 -129 311t-310 128zM394 336l-80 -35q-33 -14 -44 -35t-11 -79h217v-91h-301q-3 111 5.5 164t26 73.5t59.5 39.5l72 32q21 9 30 15.5t16.5 25t7.5 50.5q0 46 -13 64.5t-52 18.5q-20 0 -32.5 -5t-19.5 -11.5t-10 -23t-3.5 -29t-0.5 -40.5h-84q0 36 0.5 52t3.5 42.5
t8.5 38t16.5 28t27 23t39.5 11.5t55.5 5q84 0 117 -35t33 -128q0 -77 -15.5 -112.5t-68.5 -58.5z" />
    <glyph glyph-name="Japan1.8109" 
d="M521 254h85q-1 -43 12 -58.5t50 -15.5q47 0 60 26.5t13 128.5q-33 -32 -94 -32q-34 0 -58.5 11.5t-37.5 27t-20 41.5t-8.5 46.5t-1.5 50.5q0 34 1.5 56t10 50t23.5 44.5t43.5 28t69.5 11.5q29 0 51.5 -3t39 -12.5t28 -18.5t19 -29.5t11.5 -36t6 -48t2.5 -55.5t0.5 -68
q0 -51 -0.5 -82.5t-3 -66.5t-7 -54.5t-12 -40.5t-18.5 -31t-27.5 -19t-37.5 -12t-49 -3q-79 0 -115.5 33.5t-35.5 130.5zM394 336l-80 -35q-33 -14 -44 -35t-11 -79h217v-91h-301q-3 111 5.5 164t26 73.5t59.5 39.5l72 32q21 9 30 15.5t16.5 25t7.5 50.5q0 46 -13 64.5
t-52 18.5q-20 0 -32.5 -5t-19.5 -11.5t-10 -23t-3.5 -29t-0.5 -40.5h-84q0 36 0.5 52t3.5 42.5t8.5 38t16.5 28t27 23t39.5 11.5t55.5 5q84 0 117 -35t33 -128q0 -77 -15.5 -112.5t-68.5 -58.5zM674 390q39 0 51.5 23.5t12.5 76.5q0 56 -15 73.5t-52 17.5q-42 0 -53.5 -23
t-11.5 -80q0 -50 14.5 -69t53.5 -19zM500 854q128 0 237 -62.5t173 -172t64 -239.5q0 -196 -139 -335t-335 -139t-335 139t-139 335q0 130 64 239.5t173 172t237 62.5zM500 819q-181 0 -310 -128t-129 -311q0 -119 59 -220t160 -160t220 -59q182 0 310.5 128.5t128.5 310.5
q0 183 -129 311t-310 128z" />
    <glyph glyph-name="Japan1.8110" 
d="M500 854q128 0 237 -62.5t173 -172t64 -239.5q0 -196 -139 -335t-335 -139t-335 139t-139 335q0 130 64 239.5t173 172t237 62.5zM500 819q-181 0 -310 -128t-129 -311q0 -119 59 -220t160 -160t220 -59q182 0 310.5 128.5t128.5 310.5q0 183 -129 311t-310 128zM674 670
q28 0 49.5 -3t37.5 -12.5t27 -19t18.5 -30.5t12 -38.5t6.5 -51t2.5 -61t0.5 -74.5q0 -42 -0.5 -66.5t-2 -56t-4.5 -48.5t-8 -38t-13 -31t-19.5 -22t-27 -16.5t-35 -8t-44.5 -3.5q-32 0 -55.5 5.5t-40.5 13.5t-28 28t-17.5 37.5t-9 54t-3.5 66.5t-1 85t1 85t3.5 66.5t9 54
t17.5 37.5t28 28t40.5 13.5t55.5 5.5zM674 579q-49 0 -58.5 -32.5t-9.5 -166.5q0 -135 9.5 -167t59.5 -32q47 0 56.5 33.5t9.5 165.5q0 133 -9.5 166t-57.5 33zM174 285h87q0 -34 0.5 -48t6.5 -30t20 -21t39 -5q33 0 49 15.5t16 61.5q0 32 -5 50.5t-17.5 26t-23 9t-32.5 1.5
h-44v84h46q43 0 58 13.5t15 62.5q0 37 -12 55.5t-49 18.5q-44 0 -55 -20t-10 -71h-87q0 46 3.5 72.5t17 55t45 41.5t82.5 13q73 0 111.5 -30t38.5 -119q0 -53 -14.5 -84t-60.5 -47q15 -2 24 -6t24.5 -16.5t23.5 -42t8 -73.5q0 -90 -34.5 -126t-115.5 -36q-52 0 -84 11
t-47 36.5t-19.5 52.5t-4.5 74v21z" />
    <glyph glyph-name="Japan1.8111" 
d="M500 854q128 0 237 -62.5t173 -172t64 -239.5q0 -196 -139 -335t-335 -139t-335 139t-139 335q0 130 64 239.5t173 172t237 62.5zM500 819q-181 0 -310 -128t-129 -311q0 -119 59 -220t160 -160t220 -59q182 0 310.5 128.5t128.5 310.5q0 183 -129 311t-310 128zM198 285
h87q0 -34 0.5 -48t6.5 -30t20 -21t39 -5q33 0 49.5 15.5t16.5 61.5q0 32 -5 50.5t-18 26t-23 9t-33 1.5h-44v84h46q43 0 58 13.5t15 62.5q0 37 -12 55.5t-49 18.5q-44 0 -55 -20t-10 -71h-87q0 46 3.5 72.5t17.5 55t45.5 41.5t82.5 13q73 0 111 -30t38 -119q0 -53 -14.5 -84
t-60.5 -47q15 -2 24 -6t24.5 -16.5t23.5 -42t8 -73.5q0 -90 -34.5 -126t-115.5 -36q-52 0 -84 11t-47 36.5t-19.5 52.5t-4.5 74v21zM563 664h195v-568h-91v477h-104v91z" />
    <glyph glyph-name="Japan1.8112" 
d="M751 478v-242q0 -69 14 -117h-116q-6 27 -7 56q-24 -38 -63.5 -50t-121.5 -12q-34 0 -52.5 1t-49.5 5t-48.5 14t-36.5 27t-27.5 45.5t-8.5 66.5q0 21 1.5 36.5t10 40.5t23 41.5t44.5 30t72 15.5l207 10q14 1 21.5 2.5t15.5 10.5t8 27q0 13 -3.5 22.5t-13 15.5t-18 9.5
t-27 4.5t-31 1.5t-39.5 0.5q-77 0 -103.5 -11.5t-27.5 -50.5h-120q1 99 60 134t181 35q68 0 111 -6t78.5 -23.5t51 -51.5t15.5 -88zM638 314v51q-13 -18 -53 -20l-158 -8q-76 -3 -76 -62q0 -30 28.5 -43t92.5 -13q166 0 166 95zM766 857h42q59 -69 97.5 -150t52 -154.5
t17 -108t3.5 -64.5t-3.5 -64.5t-17 -108t-52 -154.5t-97.5 -150h-42q81 99 124.5 222.5t43.5 254.5q0 130 -43.5 253.5t-124.5 223.5zM192 857h42q-81 -100 -124.5 -223.5t-43.5 -253.5q0 -131 43.5 -254.5t124.5 -222.5h-42q-59 69 -97.5 150t-52 154.5t-17 108t-3.5 64.5
t3.5 64.5t17 108t52 154.5t97.5 150z" />
    <glyph glyph-name="Japan1.8113" 
d="M261 733h121v-223q31 34 68.5 45t93.5 11q62 0 106 -15t68 -37.5t37.5 -59.5t17 -70t3.5 -80q0 -49 -3 -81t-16 -71.5t-36.5 -62.5t-69 -39t-109.5 -16q-116 0 -164 62l-5 -54h-112v691zM517 458q-82 0 -109 -35t-27 -131q0 -90 30 -120t108 -30q39 0 64.5 8t40 19
t21 35.5t8 44.5t1.5 60q0 82 -26 115.5t-111 33.5zM192 857h42q-81 -100 -124.5 -223.5t-43.5 -253.5q0 -131 43.5 -254.5t124.5 -222.5h-42q-59 69 -97.5 150t-52 154.5t-17 108t-3.5 64.5t3.5 64.5t17 108t52 154.5t97.5 150zM766 857h42q59 -69 97.5 -150t52 -154.5
t17 -108t3.5 -64.5t-3.5 -64.5t-17 -108t-52 -154.5t-97.5 -150h-42q81 99 124.5 222.5t43.5 254.5q0 130 -43.5 253.5t-124.5 223.5z" />
    <glyph glyph-name="Japan1.8114" 
d="M754 447h-120q-1 29 -10.5 47t-30 26t-39.5 10t-52 2q-48 0 -72 -3.5t-43.5 -19t-26 -45t-6.5 -82.5q0 -48 4 -74t18.5 -46.5t42 -27.5t75.5 -7q32 0 47.5 0.5t37.5 5.5t31.5 14.5t17.5 28.5t9 47h121q-2 -115 -54.5 -162.5t-195.5 -47.5q-163 0 -219.5 54.5t-56.5 213.5
q0 153 53 209.5t213 56.5q44 0 75 -2.5t68 -14t60 -32t38.5 -59t14.5 -92.5zM766 857h42q59 -69 97.5 -150t52 -154.5t17 -108t3.5 -64.5t-3.5 -64.5t-17 -108t-52 -154.5t-97.5 -150h-42q81 99 124.5 222.5t43.5 254.5q0 130 -43.5 253.5t-124.5 223.5zM192 857h42
q-81 -100 -124.5 -223.5t-43.5 -253.5q0 -131 43.5 -254.5t124.5 -222.5h-42q-59 69 -97.5 150t-52 154.5t-17 108t-3.5 64.5t3.5 64.5t17 108t52 154.5t97.5 150z" />
    <glyph glyph-name="Japan1.8115" 
d="M614 734h120v-692h-114l-5 54q-15 -18 -28.5 -29t-50 -22t-88.5 -11q-61 0 -104.5 16.5t-67.5 40.5t-37 63.5t-16.5 73t-3.5 80.5q0 45 4.5 79.5t19 69.5t39 57.5t67 37t101.5 14.5q51 0 86.5 -10t49 -20.5t28.5 -26.5v225zM476 457q-86 0 -110.5 -35.5t-24.5 -133.5
q0 -41 4 -64t17 -44t41 -29.5t74 -8.5q39 0 65.5 9t40.5 21t21 37.5t8.5 45.5t1.5 58q0 81 -29 112.5t-109 31.5zM766 857h42q59 -69 97.5 -150t52 -154.5t17 -108t3.5 -64.5t-3.5 -64.5t-17 -108t-52 -154.5t-97.5 -150h-42q81 99 124.5 222.5t43.5 254.5
q0 130 -43.5 253.5t-124.5 223.5zM192 857h42q-81 -100 -124.5 -223.5t-43.5 -253.5q0 -131 43.5 -254.5t124.5 -222.5h-42q-59 69 -97.5 150t-52 154.5t-17 108t-3.5 64.5t3.5 64.5t17 108t52 154.5t97.5 150z" />
    <glyph glyph-name="Japan1.8116" 
d="M763 344h-409q1 -41 4.5 -59.5t19.5 -35t47 -21t89 -4.5q42 0 66.5 4t36.5 15t15 20.5t6 31.5h124q-5 -97 -60.5 -139.5t-189.5 -42.5q-114 0 -174.5 26.5t-82 79t-21.5 149.5q0 41 1.5 67t7 58.5t16 53t29 41.5t45.5 32.5t67 19t91 7.5q173 0 227 -64q39 -44 43 -156
q1 -25 2 -83zM354 435h285q-3 32 -6.5 45.5t-17 29t-41.5 21t-76 5.5q-61 0 -89.5 -9.5t-38.5 -28.5t-16 -63zM766 857h42q59 -69 97.5 -150t52 -154.5t17 -108t3.5 -64.5t-3.5 -64.5t-17 -108t-52 -154.5t-97.5 -150h-42q81 99 124.5 222.5t43.5 254.5q0 130 -43.5 253.5
t-124.5 223.5zM192 857h42q-81 -100 -124.5 -223.5t-43.5 -253.5q0 -131 43.5 -254.5t124.5 -222.5h-42q-59 69 -97.5 150t-52 154.5t-17 108t-3.5 64.5t3.5 64.5t17 108t52 154.5t97.5 150z" />
    <glyph glyph-name="Japan1.8117" 
d="M417 548v20q0 101 55 133.5t202 25.5v-107q-44 2 -74 0.5t-45.5 -13.5t-15.5 -39v-20h136v-114h-136v-406h-122v406h-93v114h93zM192 857h42q-81 -100 -124.5 -223.5t-43.5 -253.5q0 -131 43.5 -254.5t124.5 -222.5h-42q-59 69 -97.5 150t-52 154.5t-17 108t-3.5 64.5
t3.5 64.5t17 108t52 154.5t97.5 150zM766 857h42q59 -69 97.5 -150t52 -154.5t17 -108t3.5 -64.5t-3.5 -64.5t-17 -108t-52 -154.5t-97.5 -150h-42q81 99 124.5 222.5t43.5 254.5q0 130 -43.5 253.5t-124.5 223.5z" />
    <glyph glyph-name="Japan1.8118" 
d="M810 720v-93q-38 -2 -51.5 -6t-23.5 -19q14 -25 14 -62q0 -89 -51.5 -121.5t-185.5 -32.5q-113 0 -170 22q-26 -16 -26 -32q0 -27 41 -30l288 -21q85 -6 112.5 -39.5t27.5 -94.5q0 -58 -23.5 -88t-86 -44.5t-182.5 -14.5q-160 0 -225.5 27t-65.5 102q0 32 10 53.5
t20 28.5t26 15q-52 17 -52 78q0 44 20 69.5t45 30.5q-30 33 -30 102q0 86 58 117.5t199 31.5q138 0 178 -28q16 25 44 38t90 11zM497 594q-30 0 -43.5 -0.5t-34 -2t-29.5 -5t-19 -9.5t-13.5 -16.5t-3.5 -24.5q0 -34 30.5 -43.5t120.5 -9.5q32 0 46.5 0.5t34.5 3t27.5 8.5
t13.5 16.5t6 27.5q0 36 -28 45.5t-108 9.5zM587 237l-220 15q-53 -10 -53 -53q0 -29 24 -39q33 -14 176 -14q92 0 124.5 9.5t32.5 37.5q0 20 -17 30t-67 14zM192 857h42q-81 -100 -124.5 -223.5t-43.5 -253.5q0 -131 43.5 -254.5t124.5 -222.5h-42q-59 69 -97.5 150
t-52 154.5t-17 108t-3.5 64.5t3.5 64.5t17 108t52 154.5t97.5 150zM766 857h42q59 -69 97.5 -150t52 -154.5t17 -108t3.5 -64.5t-3.5 -64.5t-17 -108t-52 -154.5t-97.5 -150h-42q81 99 124.5 222.5t43.5 254.5q0 130 -43.5 253.5t-124.5 223.5z" />
    <glyph glyph-name="Japan1.8119" 
d="M243 732h123v-230q27 37 71.5 50t107.5 13q106 0 155.5 -42.5t49.5 -136.5v-347h-123v321q0 50 -28 71.5t-98 21.5q-73 0 -104 -25.5t-31 -91.5v-297h-123v693zM192 857h42q-81 -100 -124.5 -223.5t-43.5 -253.5q0 -131 43.5 -254.5t124.5 -222.5h-42q-59 69 -97.5 150
t-52 154.5t-17 108t-3.5 64.5t3.5 64.5t17 108t52 154.5t97.5 150zM766 857h42q59 -69 97.5 -150t52 -154.5t17 -108t3.5 -64.5t-3.5 -64.5t-17 -108t-52 -154.5t-97.5 -150h-42q81 99 124.5 222.5t43.5 254.5q0 130 -43.5 253.5t-124.5 223.5z" />
    <glyph glyph-name="Japan1.8120" 
d="M435 726h130v-121h-130v121zM438 552h122v-519h-122v519zM192 857h42q-81 -100 -124.5 -223.5t-43.5 -253.5q0 -131 43.5 -254.5t124.5 -222.5h-42q-59 69 -97.5 150t-52 154.5t-17 108t-3.5 64.5t3.5 64.5t17 108t52 154.5t97.5 150zM766 857h42q59 -69 97.5 -150
t52 -154.5t17 -108t3.5 -64.5t-3.5 -64.5t-17 -108t-52 -154.5t-97.5 -150h-42q81 99 124.5 222.5t43.5 254.5q0 130 -43.5 253.5t-124.5 223.5z" />
    <glyph glyph-name="Japan1.8121" 
d="M470 773h131v-120h-131v120zM474 597h122v-493q0 -91 -68 -123q-35 -16 -174 -14v113q75 -1 97.5 8t22.5 52v457zM192 857h42q-81 -100 -124.5 -223.5t-43.5 -253.5q0 -131 43.5 -254.5t124.5 -222.5h-42q-59 69 -97.5 150t-52 154.5t-17 108t-3.5 64.5t3.5 64.5t17 108
t52 154.5t97.5 150zM766 857h42q59 -69 97.5 -150t52 -154.5t17 -108t3.5 -64.5t-3.5 -64.5t-17 -108t-52 -154.5t-97.5 -150h-42q81 99 124.5 222.5t43.5 254.5q0 130 -43.5 253.5t-124.5 223.5z" />
    <glyph glyph-name="Japan1.8122" 
d="M247 727h122v-410l239 236h163l-255 -242l282 -278h-163l-266 271v-271h-122v694zM192 857h42q-81 -100 -124.5 -223.5t-43.5 -253.5q0 -131 43.5 -254.5t124.5 -222.5h-42q-59 69 -97.5 150t-52 154.5t-17 108t-3.5 64.5t3.5 64.5t17 108t52 154.5t97.5 150zM766 857h42
q59 -69 97.5 -150t52 -154.5t17 -108t3.5 -64.5t-3.5 -64.5t-17 -108t-52 -154.5t-97.5 -150h-42q81 99 124.5 222.5t43.5 254.5q0 130 -43.5 253.5t-124.5 223.5z" />
    <glyph glyph-name="Japan1.8123" 
d="M192 857h42q-81 -100 -124.5 -223.5t-43.5 -253.5q0 -131 43.5 -254.5t124.5 -222.5h-42q-59 69 -97.5 150t-52 154.5t-17 108t-3.5 64.5t3.5 64.5t17 108t52 154.5t97.5 150zM766 857h42q59 -69 97.5 -150t52 -154.5t17 -108t3.5 -64.5t-3.5 -64.5t-17 -108t-52 -154.5
t-97.5 -150h-42q81 99 124.5 222.5t43.5 254.5q0 130 -43.5 253.5t-124.5 223.5zM438 727h124v-694h-124v694z" />
    <glyph glyph-name="Japan1.8124" 
d="M192 857h42q-81 -100 -124.5 -223.5t-43.5 -253.5q0 -131 43.5 -254.5t124.5 -222.5h-42q-59 69 -97.5 150t-52 154.5t-17 108t-3.5 64.5t3.5 64.5t17 108t52 154.5t97.5 150zM766 857h42q59 -69 97.5 -150t52 -154.5t17 -108t3.5 -64.5t-3.5 -64.5t-17 -108t-52 -154.5
t-97.5 -150h-42q81 99 124.5 222.5t43.5 254.5q0 130 -43.5 253.5t-124.5 223.5zM146 640h117l3 -57q58 65 151 65q82 0 129 -72q71 71 152 71q10 0 21 -1t38 -9.5t46 -23t35 -46t16 -75.5v-372h-122v343q0 27 -10.5 45t-27.5 24.5t-26 8t-17 1.5q-38 0 -63.5 -23.5
t-25.5 -69.5v-329h-122v336q0 87 -82 87q-13 0 -26.5 -3.5t-29 -12.5t-25 -29.5t-9.5 -48.5v-329h-122v520z" />
    <glyph glyph-name="Japan1.8125" 
d="M192 857h42q-81 -100 -124.5 -223.5t-43.5 -253.5q0 -131 43.5 -254.5t124.5 -222.5h-42q-59 69 -97.5 150t-52 154.5t-17 108t-3.5 64.5t3.5 64.5t17 108t52 154.5t97.5 150zM766 857h42q59 -69 97.5 -150t52 -154.5t17 -108t3.5 -64.5t-3.5 -64.5t-17 -108t-52 -154.5
t-97.5 -150h-42q81 99 124.5 222.5t43.5 254.5q0 130 -43.5 253.5t-124.5 223.5zM247 640h116l3 -58q52 65 179 65q208 0 208 -171v-356h-122v331q0 43 -26 65.5t-98 22.5q-84 0 -111 -31t-27 -84v-304h-122v520z" />
    <glyph glyph-name="Japan1.8126" 
d="M500 647q154 0 210.5 -52.5t56.5 -203.5q0 -81 -8 -126.5t-35 -83.5t-81 -53t-143 -15q-154 0 -210.5 53t-56.5 201q0 54 3 88.5t12.5 69.5t27 55t47 36.5t73 23.5t104.5 7zM500 539q-36 0 -59 -2.5t-40 -11.5t-25.5 -19t-13.5 -33.5t-6 -46t-1 -64.5q0 -87 26.5 -114
t118.5 -27q35 0 58 2.5t40 11t25.5 18.5t14 32t6.5 44t1 61q0 94 -27 121.5t-118 27.5zM192 857h42q-81 -100 -124.5 -223.5t-43.5 -253.5q0 -131 43.5 -254.5t124.5 -222.5h-42q-59 69 -97.5 150t-52 154.5t-17 108t-3.5 64.5t3.5 64.5t17 108t52 154.5t97.5 150zM766 857
h42q59 -69 97.5 -150t52 -154.5t17 -108t3.5 -64.5t-3.5 -64.5t-17 -108t-52 -154.5t-97.5 -150h-42q81 99 124.5 222.5t43.5 254.5q0 130 -43.5 253.5t-124.5 223.5z" />
    <glyph glyph-name="Japan1.8127" 
d="M269 61v638h112l5 -55q23 28 59 45t105 17q53 0 93.5 -9.5t65.5 -30t40.5 -43t23 -56.5t9.5 -62t2 -69q0 -46 -3 -76.5t-16 -69t-36.5 -61.5t-67.5 -39t-107 -16q-57 0 -94.5 11t-69.5 45v-169h-121zM525 282q85 0 111 33.5t26 115.5q0 40 -1.5 60t-8 44.5t-21 35.5
t-40 19t-64.5 8q-78 0 -108 -30t-30 -120q0 -96 27 -131t109 -35zM192 857h42q-81 -100 -124.5 -223.5t-43.5 -253.5q0 -131 43.5 -254.5t124.5 -222.5h-42q-59 69 -97.5 150t-52 154.5t-17 108t-3.5 64.5t3.5 64.5t17 108t52 154.5t97.5 150zM766 857h42q59 -69 97.5 -150
t52 -154.5t17 -108t3.5 -64.5t-3.5 -64.5t-17 -108t-52 -154.5t-97.5 -150h-42q81 99 124.5 222.5t43.5 254.5q0 130 -43.5 253.5t-124.5 223.5z" />
    <glyph glyph-name="Japan1.8128" 
d="M611 61v170q-14 -16 -26.5 -26t-49 -20.5t-87.5 -10.5q-70 0 -117.5 19t-71.5 56t-33 80t-9 104q0 32 1.5 55t6.5 53.5t14 52t26 44.5t40.5 37t58.5 23t80 9q52 0 88 -10.5t50.5 -21.5t29.5 -30l6 54h113v-638h-120zM473 283q48 0 77 10t42 34t16.5 48.5t3.5 68.5
q0 42 -4 67t-18 47t-42.5 31.5t-75.5 9.5q-39 0 -65 -8.5t-40 -19.5t-20.5 -36t-7.5 -43t-1 -56q0 -85 25.5 -119t109.5 -34zM192 857h42q-81 -100 -124.5 -223.5t-43.5 -253.5q0 -131 43.5 -254.5t124.5 -222.5h-42q-59 69 -97.5 150t-52 154.5t-17 108t-3.5 64.5t3.5 64.5
t17 108t52 154.5t97.5 150zM766 857h42q59 -69 97.5 -150t52 -154.5t17 -108t3.5 -64.5t-3.5 -64.5t-17 -108t-52 -154.5t-97.5 -150h-42q81 99 124.5 222.5t43.5 254.5q0 130 -43.5 253.5t-124.5 223.5z" />
    <glyph glyph-name="Japan1.8129" 
d="M192 857h42q-81 -100 -124.5 -223.5t-43.5 -253.5q0 -131 43.5 -254.5t124.5 -222.5h-42q-59 69 -97.5 150t-52 154.5t-17 108t-3.5 64.5t3.5 64.5t17 108t52 154.5t97.5 150zM766 857h42q59 -69 97.5 -150t52 -154.5t17 -108t3.5 -64.5t-3.5 -64.5t-17 -108t-52 -154.5
t-97.5 -150h-42q81 99 124.5 222.5t43.5 254.5q0 130 -43.5 253.5t-124.5 223.5zM352 640h117l5 -53q29 40 76.5 50.5t165.5 9.5v-111q-42 2 -59 2q-24 0 -38.5 -0.5t-39.5 -3.5t-40.5 -10.5t-32 -19t-24.5 -31.5t-8 -46v-307h-122v520z" />
    <glyph glyph-name="Japan1.8130" 
d="M192 857h42q-81 -100 -124.5 -223.5t-43.5 -253.5q0 -131 43.5 -254.5t124.5 -222.5h-42q-59 69 -97.5 150t-52 154.5t-17 108t-3.5 64.5t3.5 64.5t17 108t52 154.5t97.5 150zM766 857h42q59 -69 97.5 -150t52 -154.5t17 -108t3.5 -64.5t-3.5 -64.5t-17 -108t-52 -154.5
t-97.5 -150h-42q81 99 124.5 222.5t43.5 254.5q0 130 -43.5 253.5t-124.5 223.5zM743 481h-123q0 18 -2 26.5t-13 20t-38.5 16t-73.5 4.5q-71 0 -100 -11.5t-29 -50.5q0 -23 12 -32t49 -13l195 -18q74 -7 109 -39.5t35 -104.5q0 -43 -13.5 -74t-35 -48.5t-56.5 -27.5
t-70 -13t-84 -3q-111 0 -170 20t-78.5 57.5t-20.5 106.5h122q1 -30 3 -41t12.5 -21t35.5 -15q33 -8 105 -8q44 0 71 5.5t38 16.5t13.5 19.5t2.5 23.5q0 27 -13.5 38t-53.5 15l-199 19q-16 1 -27.5 3t-33 10.5t-35 21.5t-24.5 39.5t-11 61.5q0 50 19 83.5t56 50t78 22.5t99 6
q41 0 74 -3.5t57.5 -8t43.5 -13.5t31.5 -17t21 -21.5t12.5 -22.5t6 -26t2.5 -26.5t0.5 -27.5z" />
    <glyph glyph-name="Japan1.8131" 
d="M192 857h42q-81 -100 -124.5 -223.5t-43.5 -253.5q0 -131 43.5 -254.5t124.5 -222.5h-42q-59 69 -97.5 150t-52 154.5t-17 108t-3.5 64.5t3.5 64.5t17 108t52 154.5t97.5 150zM766 857h42q59 -69 97.5 -150t52 -154.5t17 -108t3.5 -64.5t-3.5 -64.5t-17 -108t-52 -154.5
t-97.5 -150h-42q81 99 124.5 222.5t43.5 254.5q0 130 -43.5 253.5t-124.5 223.5zM412 577v125h122v-125h151v-113h-151v-239q0 -42 20.5 -55t92.5 -13q29 0 45 2v-105q-20 -3 -51 -3q-135 0 -182 30t-47 109v274h-120v113h120z" />
    <glyph glyph-name="Japan1.8132" 
d="M192 857h42q-81 -100 -124.5 -223.5t-43.5 -253.5q0 -131 43.5 -254.5t124.5 -222.5h-42q-59 69 -97.5 150t-52 154.5t-17 108t-3.5 64.5t3.5 64.5t17 108t52 154.5t97.5 150zM766 857h42q59 -69 97.5 -150t52 -154.5t17 -108t3.5 -64.5t-3.5 -64.5t-17 -108t-52 -154.5
t-97.5 -150h-42q81 99 124.5 222.5t43.5 254.5q0 130 -43.5 253.5t-124.5 223.5zM753 120h-116l-3 58q-52 -65 -179 -65q-208 0 -208 171v356h122v-331q0 -43 26 -65.5t98 -22.5q84 0 111 31t27 84v304h122v-520z" />
    <glyph glyph-name="Japan1.8133" 
d="M192 857h42q-81 -100 -124.5 -223.5t-43.5 -253.5q0 -131 43.5 -254.5t124.5 -222.5h-42q-59 69 -97.5 150t-52 154.5t-17 108t-3.5 64.5t3.5 64.5t17 108t52 154.5t97.5 150zM766 857h42q59 -69 97.5 -150t52 -154.5t17 -108t3.5 -64.5t-3.5 -64.5t-17 -108t-52 -154.5
t-97.5 -150h-42q81 99 124.5 222.5t43.5 254.5q0 130 -43.5 253.5t-124.5 223.5zM209 640h139l152 -411l152 411h139l-212 -520h-158z" />
    <glyph glyph-name="Japan1.8134" 
d="M192 857h42q-81 -100 -124.5 -223.5t-43.5 -253.5q0 -131 43.5 -254.5t124.5 -222.5h-42q-59 69 -97.5 150t-52 154.5t-17 108t-3.5 64.5t3.5 64.5t17 108t52 154.5t97.5 150zM766 857h42q59 -69 97.5 -150t52 -154.5t17 -108t3.5 -64.5t-3.5 -64.5t-17 -108t-52 -154.5
t-97.5 -150h-42q81 99 124.5 222.5t43.5 254.5q0 130 -43.5 253.5t-124.5 223.5zM123 632h132l94 -428l61 428h180l59 -428l96 428h132l-133 -520h-183l-62 444l-62 -444h-182z" />
    <glyph glyph-name="Japan1.8135" 
d="M192 857h42q-81 -100 -124.5 -223.5t-43.5 -253.5q0 -131 43.5 -254.5t124.5 -222.5h-42q-59 69 -97.5 150t-52 154.5t-17 108t-3.5 64.5t3.5 64.5t17 108t52 154.5t97.5 150zM766 857h42q59 -69 97.5 -150t52 -154.5t17 -108t3.5 -64.5t-3.5 -64.5t-17 -108t-52 -154.5
t-97.5 -150h-42q81 99 124.5 222.5t43.5 254.5q0 130 -43.5 253.5t-124.5 223.5zM227 640h149l124 -192l123 192h150l-171 -247l184 -273h-149l-137 218l-136 -218h-150l183 275z" />
    <glyph glyph-name="Japan1.8136" 
d="M192 857h42q-81 -100 -124.5 -223.5t-43.5 -253.5q0 -131 43.5 -254.5t124.5 -222.5h-42q-59 69 -97.5 150t-52 154.5t-17 108t-3.5 64.5t3.5 64.5t17 108t52 154.5t97.5 150zM766 857h42q59 -69 97.5 -150t52 -154.5t17 -108t3.5 -64.5t-3.5 -64.5t-17 -108t-52 -154.5
t-97.5 -150h-42q81 99 124.5 222.5t43.5 254.5q0 130 -43.5 253.5t-124.5 223.5zM210 689h142l156 -343l142 343h140l-239 -521q-32 -70 -72.5 -93.5t-136.5 -23.5q-44 0 -82 6v100q54 -5 91 -5q42 0 59 12.5t30 39.5l8 17z" />
    <glyph glyph-name="Japan1.8137" 
d="M192 857h42q-81 -100 -124.5 -223.5t-43.5 -253.5q0 -131 43.5 -254.5t124.5 -222.5h-42q-59 69 -97.5 150t-52 154.5t-17 108t-3.5 64.5t3.5 64.5t17 108t52 154.5t97.5 150zM766 857h42q59 -69 97.5 -150t52 -154.5t17 -108t3.5 -64.5t-3.5 -64.5t-17 -108t-52 -154.5
t-97.5 -150h-42q81 99 124.5 222.5t43.5 254.5q0 130 -43.5 253.5t-124.5 223.5zM272 640h462v-105l-306 -310h309v-105h-475v105l305 310h-295v105z" />
    <glyph glyph-name="Japan1.8184" 
d="M810 821l26 -21l-645 -861l-27 20zM800 115l-114 -19q-18 -3 -26 -13t-9 -19t-1 -31h245v-80h-338v105q0 96 100 114l107 20q41 8 41 51q0 30 -16 41.5t-55 11.5q-42 0 -60.5 -9.5t-18.5 -38.5v-25h-93q0 24 0.5 36t4 32t9.5 30.5t18.5 23.5t30 19.5t44 11t61.5 4.5
q95 0 131 -31.5t36 -100.5q0 -70 -23 -97.5t-74 -35.5zM167 804h168v-418h-91v333h-77v85z" />
    <glyph glyph-name="Japan1.8185" 
d="M736 380h119v-259h57v-84h-57v-78h-88v78h-224v100zM767 121v170l-131 -170h131zM810 821l26 -21l-645 -861l-27 20zM167 804h168v-418h-91v333h-77v85z" />
    <glyph glyph-name="Japan1.8224" 
d="M500 854q128 0 237 -62.5t173 -172t64 -239.5q0 -196 -139 -335t-335 -139t-335 139t-139 335q0 130 64 239.5t173 172t237 62.5zM500 819q-181 0 -310 -128t-129 -311q0 -119 59 -220t160 -160t220 -59q182 0 310.5 128.5t128.5 310.5q0 183 -129 311t-310 128zM500 678
q30 0 53 -3t40 -13t29 -19.5t20 -31.5t12.5 -39.5t6.5 -52.5t2.5 -62.5t0.5 -76.5t-0.5 -76.5t-2.5 -62.5t-6.5 -52.5t-12.5 -39.5t-20 -31.5t-29 -19.5t-40 -13t-53 -3q-27 0 -47.5 3.5t-37 8.5t-28.5 16.5t-20.5 22.5t-14 32.5t-9 39t-5 49.5t-2 57.5t-0.5 68.5t0.5 68.5
t2 57.5t5 49.5t9 39t14 32.5t20.5 22.5t28.5 16.5t37 8.5t47.5 3.5zM500 585q-51 0 -61.5 -34t-10.5 -171q0 -138 10.5 -171.5t62.5 -33.5q50 0 60.5 34.5t10.5 170.5q0 137 -10.5 171t-61.5 34z" />
    <glyph glyph-name="Japan1.8225" 
d="M928 788v-112h-70v-564h72v-112h-472v112h57l-112 203l-109 -203h55v-112h-279v112h75l166 288l-157 276h-76v112h279v-112h-54l98 -185l95 185h-53v112h485zM721 112v564h-76l-153 -274l173 -290h56z" />
    <glyph glyph-name="Japan1.8226" 
d="M317 525l92 151h-56v112h631v-112h-53v-564h53v-112h-621v112h61l-106 173l-105 -173h60v-112h-257v112h52l177 293l-166 271h-58v112h260v-112h-56zM554 676l-164 -271l179 -293h32v564h-47zM800 676h-68v-564h68v564z" />
    <glyph glyph-name="Japan1.8227" 
d="M500 691q36 0 62 -6t44.5 -15t30.5 -30t19 -40.5t10 -58.5t4 -71t1 -90t-1 -90t-4 -71t-10 -58.5t-19 -40.5t-30.5 -30t-44.5 -15t-62 -6q-31 0 -55 3.5t-42 13.5t-30 20t-20.5 32.5t-13 41.5t-7 55t-3 65t-0.5 80t0.5 80t3 65t7 55t13 41.5t20.5 32.5t30 20t42 13.5
t55 3.5zM500 594q-53 0 -63.5 -35.5t-10.5 -178.5q0 -144 10.5 -179t65.5 -35q52 0 62.5 36t10.5 178q1 142 -10.5 178t-64.5 36zM192 857h42q-81 -100 -124.5 -223.5t-43.5 -253.5q0 -131 43.5 -254.5t124.5 -222.5h-42q-59 69 -97.5 150t-52 154.5t-17 108t-3.5 64.5
t3.5 64.5t17 108t52 154.5t97.5 150zM766 857h42q59 -69 97.5 -150t52 -154.5t17 -108t3.5 -64.5t-3.5 -64.5t-17 -108t-52 -154.5t-97.5 -150h-42q81 99 124.5 222.5t43.5 254.5q0 130 -43.5 253.5t-124.5 223.5z" />
    <glyph glyph-name="Japan1.8228" 
d="M276 39l-87 -104l-78 60l100 121q-40 85 -40 278q0 120 13.5 193t50.5 122t99.5 68t165.5 19q159 0 230 -51l81 97l78 -61l-96 -116q36 -83 36 -271q0 -120 -13.5 -193t-50.5 -122t-99.5 -68t-165.5 -19q-158 0 -224 47zM683 532l-320 -387q41 -27 144 -27q119 0 152 48
q30 42 30 231q0 72 -6 135zM318 246l325 393q-15 10 -27.5 15.5t-44 10.5t-79.5 5q-118 0 -151 -48q-30 -42 -30 -228q0 -96 7 -148z" />
    <glyph glyph-name="Japan1.8286" 
d="M500 854q128 0 237 -62.5t173 -172t64 -239.5q0 -196 -139 -335t-335 -139t-335 139t-139 335q0 130 64 239.5t173 172t237 62.5zM560 681h-207v-96h110v-506h97v602z" />
    <glyph glyph-name="Japan1.8287" 
d="M500 854q128 0 237 -62.5t173 -172t64 -239.5q0 -196 -139 -335t-335 -139t-335 139t-139 335q0 130 64 239.5t173 172t237 62.5zM487 296l85 37q57 25 73 62.5t16 119.5q0 98 -35 135t-124 37q-34 0 -59 -5.5t-42 -12.5t-28.5 -23.5t-17.5 -29.5t-9.5 -40.5t-4 -45.5
t-0.5 -55h90q0 29 0.5 42.5t3.5 31t10.5 24.5t21 12.5t34.5 5.5q41 0 54.5 -20t13.5 -68q0 -34 -8 -54t-17.5 -26.5t-31.5 -16.5l-76 -33q-34 -15 -48.5 -25.5t-29 -40t-18 -83t-1.5 -145.5h320v96h-230q0 62 11.5 84t46.5 37z" />
    <glyph glyph-name="Japan1.8288" 
d="M500 854q128 0 237 -62.5t173 -172t64 -239.5q0 -196 -139 -335t-335 -139t-335 139t-139 335q0 130 64 239.5t173 172t237 62.5zM431 279h-93v-22q0 -50 4.5 -79t20.5 -55.5t50 -38t90 -11.5q85 0 122 37.5t37 133.5q0 47 -8.5 78t-24.5 44t-26.5 17.5t-25.5 6.5
q26 9 43 23t24.5 34t10 38t2.5 44q0 94 -40 126t-119 32q-44 0 -74.5 -10.5t-47 -25.5t-25 -43.5t-10 -51t-1.5 -61.5h93q0 27 1 40.5t7 28.5t21 21t40 6q39 0 52 -19.5t13 -58.5q0 -52 -16.5 -66.5t-61.5 -14.5h-49v-89h47q24 0 34.5 -1.5t24.5 -9.5t19 -28t5 -53
q0 -49 -17 -65.5t-53 -16.5q-49 0 -60 22.5t-9 87.5z" />
    <glyph glyph-name="Japan1.8289" 
d="M500 854q128 0 237 -62.5t173 -172t64 -239.5q0 -196 -139 -335t-335 -139t-335 139t-139 335q0 130 64 239.5t173 172t237 62.5zM603 681h-126l-171 -360v-116h205v-126h92v126h43v95h-43v381zM390 300l122 265v-265h-122z" />
    <glyph glyph-name="Japan1.8290" 
d="M500 854q128 0 237 -62.5t173 -172t64 -239.5q0 -196 -139 -335t-335 -139t-335 139t-139 335q0 130 64 239.5t173 172t237 62.5zM652 681h-302l-7 -345h88q1 10 3 17t9 17.5t22 16t38 5.5q43 0 55 -24.5t12 -90.5q0 -65 -13 -86.5t-57 -21.5q-45 0 -58 19.5t-12 72.5
h-92q-1 -107 35.5 -147.5t126.5 -40.5q53 0 86 12.5t49.5 41.5t21.5 63t5 90q0 36 -1 58t-8.5 53t-21 48.5t-40.5 30.5t-66 13q-54 0 -88 -27l4 129h211v96z" />
    <glyph glyph-name="Japan1.8291" 
d="M500 854q128 0 237 -62.5t173 -172t64 -239.5q0 -196 -139 -335t-335 -139t-335 139t-139 335q0 130 64 239.5t173 172t237 62.5zM566 513h91q0 95 -34 134.5t-123 39.5q-39 0 -65.5 -6t-45 -24t-28.5 -38.5t-15.5 -63t-6.5 -82.5t-1 -112q0 -43 0.5 -65.5t1.5 -54.5
t4.5 -48t9 -37.5t14 -31.5t21 -22.5t29.5 -17t38.5 -8t49.5 -3.5q44 0 74.5 13t46 30.5t24 49t10 54.5t1.5 61q0 86 -27.5 133.5t-106.5 47.5q-64 0 -99 -35q0 107 13.5 136t59.5 29q38 0 51.5 -16.5t12.5 -62.5zM503 369q43 0 56 -23.5t13 -74.5q0 -58 -13 -81t-57 -23
q-39 0 -55 18.5t-16 78.5q0 59 14 82t58 23z" />
    <glyph glyph-name="Japan1.8292" 
d="M500 854q128 0 237 -62.5t173 -172t64 -239.5q0 -196 -139 -335t-335 -139t-335 139t-139 335q0 130 64 239.5t173 172t237 62.5zM671 657h-342v-96h247l-194 -506h104l185 502v100z" />
    <glyph glyph-name="Japan1.8293" 
d="M500 854q128 0 237 -62.5t173 -172t64 -239.5q0 -196 -139 -335t-335 -139t-335 139t-139 335q0 130 64 239.5t173 172t237 62.5zM415 391q-16 -5 -26 -11t-24 -21t-21 -45.5t-7 -75.5q0 -98 42 -131.5t124 -33.5q88 0 124 39t36 129q0 35 -6 62t-13 41.5t-19.5 25
t-20 14t-20.5 7.5q34 14 52.5 41.5t18.5 92.5q0 53 -11 87t-35 49.5t-48.5 20.5t-64.5 5q-37 0 -61.5 -6t-46.5 -22t-32.5 -49.5t-10.5 -85.5q0 -37 6.5 -62.5t19.5 -39.5t21.5 -19.5t22.5 -11.5zM500 592q22 0 36 -6t20 -18t8 -22.5t2 -27.5q0 -27 -2.5 -41.5t-18 -27.5
t-45.5 -13q-41 0 -53.5 20t-12.5 60q0 18 2 29t8 23.5t20 18t36 5.5zM500 342q43 0 57.5 -21t14.5 -67q0 -44 -13.5 -65t-58.5 -21q-42 0 -57 19.5t-15 59.5q0 50 13.5 72.5t58.5 22.5z" />
    <glyph glyph-name="Japan1.8294" 
d="M500 854q128 0 237 -62.5t173 -172t64 -239.5q0 -196 -139 -335t-335 -139t-335 139t-139 335q0 130 64 239.5t173 172t237 62.5zM429 247h-91q-1 -102 37 -138t123 -36q34 0 58 5.5t42.5 14.5t29.5 29.5t18.5 41.5t11 61t4.5 77.5t1 99.5q0 53 -0.5 81.5t-4 64.5
t-10 53.5t-18.5 37.5t-30.5 28.5t-44 14t-61.5 5.5q-32 0 -57 -7t-41 -17t-27.5 -27.5t-17.5 -32.5t-9 -39.5t-3.5 -41t-0.5 -42.5q0 -31 2.5 -54.5t10.5 -49t22 -41.5t39.5 -26.5t59.5 -10.5q64 0 99 35q0 -110 -13.5 -138t-63.5 -28q-39 0 -52.5 16.5t-12.5 63.5zM497 391
q-44 0 -56.5 23.5t-12.5 75.5q0 57 13 80t57 23q38 0 54.5 -18.5t16.5 -78.5q0 -59 -14 -82t-58 -23z" />
    <glyph glyph-name="Japan1.8295" 
d="M31 788h202v-112h-45l69 -146l71 146h-45v112h698v-112h-47v-564h47v-112h-690v112h44l-79 165l-79 -165h44v-112h-202v112h37l140 291l-129 273h-36v112zM659 676h-59v-564h59v564zM449 676l-131 -273l138 -291h36v564h-43zM826 676h-59v-564h59v564z" />
    <glyph glyph-name="Japan1.8296" 
d="M31 788h183v-112h-34l56 -126l55 126h-32v112h482v-112h-37l67 -529l64 529h-41v112h187v-112h-32l-91 -676h-177l-92 676h-42v-564h76v-112h-356v112h41l-72 163l-73 -163h43v-112h-187v112h23l133 301l-116 263h-28v112zM412 676l-116 -263l133 -301h10v564h-27z" />
    <glyph glyph-name="Japan1.8297" 
d="M31 788h199v-112h-35l63 -142l62 142h-37v112h408v-112h-43l83 -529l80 529h-41v112h211v-112h-53l-108 -676h-182l-107 676h-87l-124 -284l122 -280h52v-112h-207v112h31l-60 138l-61 -138h29v-112h-207v112h54l122 280l-124 284h-40v112z" />
    <glyph glyph-name="Japan1.8298" 
d="M685 788h138v-126h-138v126zM689 589h130v-589h-130v589zM121 589h145l110 -211l110 211h145l-152 -280l169 -309h-148l-124 245l-125 -245h-148l170 309z" />
    <glyph glyph-name="Japan1.8299" 
d="M588 788h134v-126h-134v126zM592 589h125v-589h-125v589zM769 788h135v-126h-135v126zM774 589h125v-589h-125v589zM85 589h140l84 -206l85 206h140l-123 -280l140 -309h-143l-99 240l-99 -240h-143l141 309z" />
    <glyph glyph-name="Japan1.8300" 
d="M519 788h114v-126h-114v126zM523 589h105v-589h-105v589zM665 788h114v-126h-114v126zM670 589h104v-589h-104v589zM811 788h114v-126h-114v126zM816 589h105v-589h-105v589zM62 589h129l79 -211l80 211h129l-107 -280l124 -309h-132l-94 245l-94 -245h-132l125 309z" />
    <glyph glyph-name="Japan1.8301" 
d="M610 589h128l37 -259l16 -198l18 200l38 257h126l-89 -589h-187zM451 788h126v-126h-126v126zM456 589h116v-589h-116v589zM45 589h127l51 -211l51 211h128l-76 -280l92 -309h-130l-65 245l-66 -245h-130l93 309z" />
    <glyph glyph-name="Japan1.8302" 
d="M534 589h134l50 -259l30 -198l34 198l50 259h132l-129 -589h-173zM54 589h135l80 -211l81 211h134l-114 -280l131 -309h-138l-94 245l-96 -245h-137l132 309z" />
    <glyph glyph-name="Japan1.9780" 
d="M274 811q106 0 136.5 -40t30.5 -165q0 -41 -1 -66t-4.5 -52t-10.5 -42t-18.5 -29.5t-29.5 -21.5t-42 -11t-58 -4q-40 0 -64 3.5t-47.5 15t-35.5 34t-19 60t-7 94.5q0 97 15 143.5t49.5 63.5t105.5 17zM273 728q-23 0 -38 -5.5t-23 -12.5t-12 -27t-4.5 -35.5t-0.5 -50.5
q0 -36 0.5 -51.5t4.5 -35.5t12.5 -27t23.5 -12.5t39 -5.5q50 0 62 23.5t12 119.5q0 80 -13.5 100t-62.5 20zM810 821l26 -21l-645 -861l-27 20zM554 98h92q0 -21 1 -30t7.5 -19.5t22 -14t41.5 -3.5q53 0 72 10.5t19 42.5q0 50 -44 50h-68v75h65q38 0 38 42q0 29 -14.5 38.5
t-59.5 9.5q-44 0 -58.5 -12t-14.5 -49h-91q0 31 3 50.5t16.5 44t48 37t89.5 12.5q32 0 52.5 -1.5t45.5 -7.5t39.5 -18t24.5 -33.5t10 -52.5q0 -34 -10.5 -55.5t-19.5 -27.5t-24 -12q64 -18 64 -101q0 -68 -41 -97t-125 -29q-61 0 -98.5 8.5t-55 30t-22.5 45.5t-5 67z" />
    <glyph glyph-name="Japan1.9781" 
d="M810 821l26 -21l-645 -861l-27 20zM554 98h92q0 -21 1 -30t7.5 -19.5t22 -14t41.5 -3.5q53 0 72 10.5t19 42.5q0 50 -44 50h-68v75h65q38 0 38 42q0 29 -14.5 38.5t-59.5 9.5q-44 0 -58.5 -12t-14.5 -49h-91q0 31 3 50.5t16.5 44t48 37t89.5 12.5q32 0 52.5 -1.5
t45.5 -7.5t39.5 -18t24.5 -33.5t10 -52.5q0 -34 -10.5 -55.5t-19.5 -27.5t-24 -12q64 -18 64 -101q0 -68 -41 -97t-125 -29q-61 0 -98.5 8.5t-55 30t-22.5 45.5t-5 67zM167 804h168v-418h-91v333h-77v85z" />
    <glyph glyph-name="Japan1.9782" 
d="M810 821l26 -21l-645 -861l-27 20zM554 98h92q0 -21 1 -30t7.5 -19.5t22 -14t41.5 -3.5q53 0 72 10.5t19 42.5q0 50 -44 50h-68v75h65q38 0 38 42q0 29 -14.5 38.5t-59.5 9.5q-44 0 -58.5 -12t-14.5 -49h-91q0 31 3 50.5t16.5 44t48 37t89.5 12.5q32 0 52.5 -1.5
t45.5 -7.5t39.5 -18t24.5 -33.5t10 -52.5q0 -34 -10.5 -55.5t-19.5 -27.5t-24 -12q64 -18 64 -101q0 -68 -41 -97t-125 -29q-61 0 -98.5 8.5t-55 30t-22.5 45.5t-5 67zM345 546l-113 -20q-18 -3 -26 -12.5t-9.5 -19t-1.5 -30.5h245v-80h-337v105q0 96 99 114l107 20
q41 8 41 51q0 30 -15.5 41.5t-54.5 11.5q-42 0 -61 -9.5t-19 -39.5v-24h-93q0 28 1.5 42.5t6 36t15 33t28.5 23.5t47.5 17t69.5 5q95 0 131 -31.5t36 -100.5q0 -70 -23 -97t-74 -36z" />
    <glyph glyph-name="Japan1.9783" 
d="M736 380h119v-259h57v-84h-57v-78h-88v78h-224v100zM767 121v170l-131 -170h131zM810 821l26 -21l-645 -861l-27 20zM99 529h93q0 -21 1 -30.5t7.5 -19.5t21.5 -13.5t42 -3.5q53 0 71.5 10.5t18.5 42.5q0 50 -43 50h-69v75h66q6 0 12 1t15.5 11.5t9.5 29.5q0 28 -14.5 38
t-58.5 10q-45 0 -59 -11.5t-14 -49.5h-92q0 25 1.5 40t9.5 37.5t24 35t47 22t75 9.5q32 0 52.5 -1.5t45.5 -7.5t39.5 -18t24.5 -33.5t10 -52.5q0 -26 -5 -44.5t-14.5 -28.5t-16 -14t-17.5 -8q12 -4 19 -8t19.5 -14.5t18.5 -30.5t6 -48q0 -68 -41 -97t-125 -29q-61 0 -98 8.5
t-55 30t-23 45.5t-5 67z" />
    <glyph glyph-name="Japan1.9784" 
d="M810 821l26 -21l-645 -861l-27 20zM570 377h311v-83h-224l-1 -74q30 21 94 21q80 0 114.5 -32t34.5 -107q0 -36 -4.5 -58.5t-20.5 -47t-53 -36t-96 -11.5q-36 0 -63.5 4.5t-45.5 11t-30 19t-18 22t-9 27t-3 26.5v28h92q0 -14 1.5 -22t8.5 -16.5t22.5 -12t41.5 -3.5
q53 0 68.5 13.5t15.5 50.5q0 36 -13.5 49.5t-58.5 13.5q-44 0 -60 -5.5t-22 -21.5h-85zM167 804h168v-418h-91v333h-77v85z" />
    <glyph glyph-name="Japan1.9785" 
d="M810 821l26 -21l-645 -861l-27 20zM570 377h311v-83h-224l-1 -74q30 21 94 21q80 0 114.5 -32t34.5 -107q0 -36 -4.5 -58.5t-20.5 -47t-53 -36t-96 -11.5q-36 0 -63.5 4.5t-45.5 11t-30 19t-18 22t-9 27t-3 26.5v28h92q0 -14 1.5 -22t8.5 -16.5t22.5 -12t41.5 -3.5
q53 0 68.5 13.5t15.5 50.5q0 36 -13.5 49.5t-58.5 13.5q-44 0 -60 -5.5t-22 -21.5h-85zM345 546l-113 -20q-18 -3 -26 -12.5t-9.5 -19t-1.5 -30.5h245v-80h-337v105q0 96 99 114l107 20q41 8 41 51q0 30 -15.5 41.5t-54.5 11.5q-42 0 -61 -9.5t-19 -39.5v-24h-93
q0 28 1.5 42.5t6 36t15 33t28.5 23.5t47.5 17t69.5 5q95 0 131 -31.5t36 -100.5q0 -70 -23 -97t-74 -36z" />
    <glyph glyph-name="Japan1.9786" 
d="M810 821l26 -21l-645 -861l-27 20zM570 377h311v-83h-224l-1 -74q30 21 94 21q80 0 114.5 -32t34.5 -107q0 -36 -4.5 -58.5t-20.5 -47t-53 -36t-96 -11.5q-36 0 -63.5 4.5t-45.5 11t-30 19t-18 22t-9 27t-3 26.5v28h92q0 -14 1.5 -22t8.5 -16.5t22.5 -12t41.5 -3.5
q53 0 68.5 13.5t15.5 50.5q0 36 -13.5 49.5t-58.5 13.5q-44 0 -60 -5.5t-22 -21.5h-85zM99 529h93q0 -21 1 -30.5t7.5 -19.5t21.5 -13.5t42 -3.5q53 0 71.5 10.5t18.5 42.5q0 50 -43 50h-69v75h66q6 0 12 1t15.5 11.5t9.5 29.5q0 28 -14.5 38t-58.5 10q-45 0 -59 -11.5
t-14 -49.5h-92q0 25 1.5 40t9.5 37.5t24 35t47 22t75 9.5q32 0 52.5 -1.5t45.5 -7.5t39.5 -18t24.5 -33.5t10 -52.5q0 -26 -5 -44.5t-14.5 -28.5t-16 -14t-17.5 -8q12 -4 19 -8t19.5 -14.5t18.5 -30.5t6 -48q0 -68 -41 -97t-125 -29q-61 0 -98 8.5t-55 30t-23 45.5t-5 67z
" />
    <glyph glyph-name="Japan1.9787" 
d="M281 811h120v-260h56v-83h-56v-78h-89v78h-224v100zM312 551v171l-131 -171h131zM810 821l26 -21l-645 -861l-27 20zM570 377h311v-83h-224l-1 -74q30 21 94 21q80 0 114.5 -32t34.5 -107q0 -36 -4.5 -58.5t-20.5 -47t-53 -36t-96 -11.5q-36 0 -63.5 4.5t-45.5 11t-30 19
t-18 22t-9 27t-3 26.5v28h92q0 -14 1.5 -22t8.5 -16.5t22.5 -12t41.5 -3.5q53 0 68.5 13.5t15.5 50.5q0 36 -13.5 49.5t-58.5 13.5q-44 0 -60 -5.5t-22 -21.5h-85z" />
    <glyph glyph-name="Japan1.9788" 
d="M888 255h-90q-1 25 -15.5 34t-51.5 9q-51 0 -65.5 -18t-15.5 -88q12 9 20 13.5t29 9t53 4.5q25 0 42.5 -2t38.5 -9.5t33.5 -21t21 -39.5t8.5 -62q0 -81 -40.5 -109t-119.5 -28q-52 0 -82 6.5t-54 27t-33 59.5t-9 104q0 102 16.5 152t51.5 67t108 17q50 0 82 -9t47 -27.5
t20 -38.5t5 -51zM727 140q-46 0 -60 -13t-14 -42q0 -33 16.5 -44t55.5 -11q51 0 65 13t14 46q0 18 -5 29t-18 15.5t-23 5.5t-31 1zM810 821l26 -21l-645 -861l-27 20zM167 804h168v-418h-91v333h-77v85z" />
    <glyph glyph-name="Japan1.9789" 
d="M888 255h-90q-1 25 -15.5 34t-51.5 9q-51 0 -65.5 -18t-15.5 -88q12 9 20 13.5t29 9t53 4.5q25 0 42.5 -2t38.5 -9.5t33.5 -21t21 -39.5t8.5 -62q0 -81 -40.5 -109t-119.5 -28q-52 0 -82 6.5t-54 27t-33 59.5t-9 104q0 102 16.5 152t51.5 67t108 17q50 0 82 -9t47 -27.5
t20 -38.5t5 -51zM727 140q-46 0 -60 -13t-14 -42q0 -33 16.5 -44t55.5 -11q51 0 65 13t14 46q0 18 -5 29t-18 15.5t-23 5.5t-31 1zM810 821l26 -21l-645 -861l-27 20zM116 808h310v-83h-223l-2 -74q30 21 94 21q80 0 114.5 -32t34.5 -107q0 -36 -4.5 -58.5t-20.5 -47
t-53 -36t-95 -11.5q-50 0 -84 9t-50.5 20.5t-25 33t-9.5 35.5t-1 40h93q-1 -29 11.5 -41.5t61.5 -12.5q53 0 68.5 13t15.5 51q0 37 -13.5 50t-58.5 13q-44 0 -60 -5.5t-22 -21.5h-84z" />
    <glyph glyph-name="Japan1.9790" 
d="M810 821l26 -21l-645 -861l-27 20zM560 368h334v-83l-175 -336h-105l179 336h-233v83zM167 804h168v-418h-91v333h-77v85z" />
    <glyph glyph-name="Japan1.9791" 
d="M810 821l26 -21l-645 -861l-27 20zM560 368h334v-83l-175 -336h-105l179 336h-233v83zM345 546l-113 -20q-18 -3 -26 -12.5t-9.5 -19t-1.5 -30.5h245v-80h-337v105q0 96 99 114l107 20q41 8 41 51q0 30 -15.5 41.5t-54.5 11.5q-42 0 -61 -9.5t-19 -39.5v-24h-93
q0 28 1.5 42.5t6 36t15 33t28.5 23.5t47.5 17t69.5 5q95 0 131 -31.5t36 -100.5q0 -70 -23 -97t-74 -36z" />
    <glyph glyph-name="Japan1.9792" 
d="M810 821l26 -21l-645 -861l-27 20zM560 368h334v-83l-175 -336h-105l179 336h-233v83zM99 529h93q0 -21 1 -30.5t7.5 -19.5t21.5 -13.5t42 -3.5q53 0 71.5 10.5t18.5 42.5q0 50 -43 50h-69v75h66q6 0 12 1t15.5 11.5t9.5 29.5q0 28 -14.5 38t-58.5 10q-45 0 -59 -11.5
t-14 -49.5h-92q0 25 1.5 40t9.5 37.5t24 35t47 22t75 9.5q32 0 52.5 -1.5t45.5 -7.5t39.5 -18t24.5 -33.5t10 -52.5q0 -26 -5 -44.5t-14.5 -28.5t-16 -14t-17.5 -8q12 -4 19 -8t19.5 -14.5t18.5 -30.5t6 -48q0 -68 -41 -97t-125 -29q-61 0 -98 8.5t-55 30t-23 45.5t-5 67z
" />
    <glyph glyph-name="Japan1.9793" 
d="M281 811h120v-260h56v-83h-56v-78h-89v78h-224v100zM312 551v171l-131 -171h131zM810 821l26 -21l-645 -861l-27 20zM560 368h334v-83l-175 -336h-105l179 336h-233v83z" />
    <glyph glyph-name="Japan1.9794" 
d="M810 821l26 -21l-645 -861l-27 20zM560 368h334v-83l-175 -336h-105l179 336h-233v83zM116 808h310v-83h-223l-2 -74q30 21 94 21q80 0 114.5 -32t34.5 -107q0 -36 -4.5 -58.5t-20.5 -47t-53 -36t-95 -11.5q-50 0 -84 9t-50.5 20.5t-25 33t-9.5 35.5t-1 40h93
q-1 -29 11.5 -41.5t61.5 -12.5q53 0 68.5 13t15.5 51q0 37 -13.5 50t-58.5 13q-44 0 -60 -5.5t-22 -21.5h-84z" />
    <glyph glyph-name="Japan1.9795" 
d="M434 686h-91q-1 25 -15.5 34t-51.5 9q-51 0 -65.5 -18t-14.5 -88q11 9 19 13.5t29 8.5t53 4q26 0 43 -1.5t38 -9t33.5 -21.5t21 -39.5t8.5 -61.5q0 -81 -40 -109t-119 -28q-52 0 -82 6.5t-54 27t-33 59.5t-9 104q0 102 16.5 152t51.5 67t108 17q50 0 81.5 -8.5
t46.5 -27.5t20 -38.5t6 -51.5zM273 571q-46 0 -60 -13t-14 -42q0 -33 16.5 -44t54.5 -11q50 0 64.5 13t14.5 45q0 15 -4.5 25.5t-10 15.5t-17 7.5t-20 3t-24.5 0.5zM810 821l26 -21l-645 -861l-27 20zM560 368h334v-83l-175 -336h-105l179 336h-233v83z" />
    <glyph glyph-name="Japan1.9796" 
d="M842 173q16 -7 25.5 -13t22 -28.5t12.5 -55.5q0 -29 -5.5 -49t-22.5 -39.5t-55 -29.5t-96 -10q-91 0 -130.5 27.5t-39.5 92.5q0 28 5.5 48t17 31t19 15.5t21.5 10.5q-11 5 -18 9.5t-17 14.5t-15.5 27.5t-5.5 41.5q0 67 42.5 91t118.5 24q31 0 52.5 -1.5t46.5 -8t40 -18.5
t25 -33t10 -51q0 -26 -5 -45t-15 -29t-16.5 -14t-16.5 -8zM728 298q-41 0 -58 -9t-17 -40q0 -12 4.5 -19.5t10 -11.5t18.5 -6t22 -2.5t29 -0.5q34 0 49.5 8t15.5 35q0 20 -12 31t-26 13t-36 2zM728 133q-17 0 -27.5 -1t-25.5 -5t-23 -15t-8 -29q0 -28 18.5 -40.5t69.5 -12.5
q45 0 62 11.5t17 41.5q0 28 -17 39t-66 11zM810 821l26 -21l-645 -861l-27 20zM167 804h168v-418h-91v333h-77v85z" />
    <glyph glyph-name="Japan1.9797" 
d="M842 173q16 -7 25.5 -13t22 -28.5t12.5 -55.5q0 -29 -5.5 -49t-22.5 -39.5t-55 -29.5t-96 -10q-91 0 -130.5 27.5t-39.5 92.5q0 28 5.5 48t17 31t19 15.5t21.5 10.5q-11 5 -18 9.5t-17 14.5t-15.5 27.5t-5.5 41.5q0 67 42.5 91t118.5 24q31 0 52.5 -1.5t46.5 -8t40 -18.5
t25 -33t10 -51q0 -26 -5 -45t-15 -29t-16.5 -14t-16.5 -8zM728 298q-41 0 -58 -9t-17 -40q0 -12 4.5 -19.5t10 -11.5t18.5 -6t22 -2.5t29 -0.5q34 0 49.5 8t15.5 35q0 20 -12 31t-26 13t-36 2zM728 133q-17 0 -27.5 -1t-25.5 -5t-23 -15t-8 -29q0 -28 18.5 -40.5t69.5 -12.5
q45 0 62 11.5t17 41.5q0 28 -17 39t-66 11zM810 821l26 -21l-645 -861l-27 20zM99 529h93q0 -21 1 -30.5t7.5 -19.5t21.5 -13.5t42 -3.5q53 0 71.5 10.5t18.5 42.5q0 50 -43 50h-69v75h66q6 0 12 1t15.5 11.5t9.5 29.5q0 28 -14.5 38t-58.5 10q-45 0 -59 -11.5t-14 -49.5
h-92q0 25 1.5 40t9.5 37.5t24 35t47 22t75 9.5q32 0 52.5 -1.5t45.5 -7.5t39.5 -18t24.5 -33.5t10 -52.5q0 -26 -5 -44.5t-14.5 -28.5t-16 -14t-17.5 -8q12 -4 19 -8t19.5 -14.5t18.5 -30.5t6 -48q0 -68 -41 -97t-125 -29q-61 0 -98 8.5t-55 30t-23 45.5t-5 67z" />
    <glyph glyph-name="Japan1.9798" 
d="M842 173q16 -7 25.5 -13t22 -28.5t12.5 -55.5q0 -29 -5.5 -49t-22.5 -39.5t-55 -29.5t-96 -10q-91 0 -130.5 27.5t-39.5 92.5q0 28 5.5 48t17 31t19 15.5t21.5 10.5q-11 5 -18 9.5t-17 14.5t-15.5 27.5t-5.5 41.5q0 67 42.5 91t118.5 24q31 0 52.5 -1.5t46.5 -8t40 -18.5
t25 -33t10 -51q0 -26 -5 -45t-15 -29t-16.5 -14t-16.5 -8zM728 298q-41 0 -58 -9t-17 -40q0 -12 4.5 -19.5t10 -11.5t18.5 -6t22 -2.5t29 -0.5q34 0 49.5 8t15.5 35q0 20 -12 31t-26 13t-36 2zM728 133q-17 0 -27.5 -1t-25.5 -5t-23 -15t-8 -29q0 -28 18.5 -40.5t69.5 -12.5
q45 0 62 11.5t17 41.5q0 28 -17 39t-66 11zM810 821l26 -21l-645 -861l-27 20zM116 808h310v-83h-223l-2 -74q30 21 94 21q80 0 114.5 -32t34.5 -107q0 -36 -4.5 -58.5t-20.5 -47t-53 -36t-95 -11.5q-50 0 -84 9t-50.5 20.5t-25 33t-9.5 35.5t-1 40h93q-1 -29 11.5 -41.5
t61.5 -12.5q53 0 68.5 13t15.5 51q0 37 -13.5 50t-58.5 13q-44 0 -60 -5.5t-22 -21.5h-84z" />
    <glyph glyph-name="Japan1.9799" 
d="M842 173q16 -7 25.5 -13t22 -28.5t12.5 -55.5q0 -29 -5.5 -49t-22.5 -39.5t-55 -29.5t-96 -10q-91 0 -130.5 27.5t-39.5 92.5q0 28 5.5 48t17 31t19 15.5t21.5 10.5q-11 5 -18 9.5t-17 14.5t-15.5 27.5t-5.5 41.5q0 67 42.5 91t118.5 24q31 0 52.5 -1.5t46.5 -8t40 -18.5
t25 -33t10 -51q0 -26 -5 -45t-15 -29t-16.5 -14t-16.5 -8zM728 298q-41 0 -58 -9t-17 -40q0 -12 4.5 -19.5t10 -11.5t18.5 -6t22 -2.5t29 -0.5q34 0 49.5 8t15.5 35q0 20 -12 31t-26 13t-36 2zM728 133q-17 0 -27.5 -1t-25.5 -5t-23 -15t-8 -29q0 -28 18.5 -40.5t69.5 -12.5
q45 0 62 11.5t17 41.5q0 28 -17 39t-66 11zM810 821l26 -21l-645 -861l-27 20zM106 799h334v-83l-176 -336h-105l179 336h-232v83z" />
    <glyph glyph-name="Japan1.9800" 
d="M566 74h91q1 -25 15.5 -34t51.5 -9q51 0 65.5 18t14.5 88q-11 -9 -19 -13.5t-29 -9t-53 -4.5q-25 0 -42.5 2t-38.5 9.5t-33.5 21t-21 39.5t-8.5 62q0 81 40 109t119 28q52 0 82 -6.5t54 -27t33 -59.5t9 -104q0 -102 -16.5 -152t-51.5 -67t-108 -17q-50 0 -81.5 8.5
t-46.5 27.5t-20 38.5t-6 51.5zM727 189q46 0 60 13t14 42q0 33 -16.5 44t-54.5 11q-51 0 -65 -13t-14 -46q0 -18 5 -29t18 -15.5t22.5 -5.5t30.5 -1zM810 821l26 -21l-645 -861l-27 20zM167 804h168v-418h-91v333h-77v85z" />
    <glyph glyph-name="Japan1.9801" 
d="M566 74h91q1 -25 15.5 -34t51.5 -9q51 0 65.5 18t14.5 88q-11 -9 -19 -13.5t-29 -9t-53 -4.5q-25 0 -42.5 2t-38.5 9.5t-33.5 21t-21 39.5t-8.5 62q0 81 40 109t119 28q52 0 82 -6.5t54 -27t33 -59.5t9 -104q0 -102 -16.5 -152t-51.5 -67t-108 -17q-50 0 -81.5 8.5
t-46.5 27.5t-20 38.5t-6 51.5zM727 189q46 0 60 13t14 42q0 33 -16.5 44t-54.5 11q-51 0 -65 -13t-14 -46q0 -18 5 -29t18 -15.5t22.5 -5.5t30.5 -1zM810 821l26 -21l-645 -861l-27 20zM345 546l-113 -20q-18 -3 -26 -12.5t-9.5 -19t-1.5 -30.5h245v-80h-337v105
q0 96 99 114l107 20q41 8 41 51q0 30 -15.5 41.5t-54.5 11.5q-42 0 -61 -9.5t-19 -39.5v-24h-93q0 28 1.5 42.5t6 36t15 33t28.5 23.5t47.5 17t69.5 5q95 0 131 -31.5t36 -100.5q0 -70 -23 -97t-74 -36z" />
    <glyph glyph-name="Japan1.9802" 
d="M566 74h91q1 -25 15.5 -34t51.5 -9q51 0 65.5 18t14.5 88q-11 -9 -19 -13.5t-29 -9t-53 -4.5q-25 0 -42.5 2t-38.5 9.5t-33.5 21t-21 39.5t-8.5 62q0 81 40 109t119 28q52 0 82 -6.5t54 -27t33 -59.5t9 -104q0 -102 -16.5 -152t-51.5 -67t-108 -17q-50 0 -81.5 8.5
t-46.5 27.5t-20 38.5t-6 51.5zM727 189q46 0 60 13t14 42q0 33 -16.5 44t-54.5 11q-51 0 -65 -13t-14 -46q0 -18 5 -29t18 -15.5t22.5 -5.5t30.5 -1zM281 811h120v-260h56v-83h-56v-78h-89v78h-224v100zM312 551v171l-131 -171h131zM810 821l26 -21l-645 -861l-27 20z" />
    <glyph glyph-name="Japan1.9803" 
d="M566 74h91q1 -25 15.5 -34t51.5 -9q51 0 65.5 18t14.5 88q-11 -9 -19 -13.5t-29 -9t-53 -4.5q-25 0 -42.5 2t-38.5 9.5t-33.5 21t-21 39.5t-8.5 62q0 81 40 109t119 28q52 0 82 -6.5t54 -27t33 -59.5t9 -104q0 -102 -16.5 -152t-51.5 -67t-108 -17q-50 0 -81.5 8.5
t-46.5 27.5t-20 38.5t-6 51.5zM727 189q46 0 60 13t14 42q0 33 -16.5 44t-54.5 11q-51 0 -65 -13t-14 -46q0 -18 5 -29t18 -15.5t22.5 -5.5t30.5 -1zM810 821l26 -21l-645 -861l-27 20zM116 808h310v-83h-223l-2 -74q30 21 94 21q80 0 114.5 -32t34.5 -107q0 -36 -4.5 -58.5
t-20.5 -47t-53 -36t-95 -11.5q-50 0 -84 9t-50.5 20.5t-25 33t-9.5 35.5t-1 40h93q-1 -29 11.5 -41.5t61.5 -12.5q53 0 68.5 13t15.5 51q0 37 -13.5 50t-58.5 13q-44 0 -60 -5.5t-22 -21.5h-84z" />
    <glyph glyph-name="Japan1.9804" 
d="M566 74h91q1 -25 15.5 -34t51.5 -9q51 0 65.5 18t14.5 88q-11 -9 -19 -13.5t-29 -9t-53 -4.5q-25 0 -42.5 2t-38.5 9.5t-33.5 21t-21 39.5t-8.5 62q0 81 40 109t119 28q52 0 82 -6.5t54 -27t33 -59.5t9 -104q0 -102 -16.5 -152t-51.5 -67t-108 -17q-50 0 -81.5 8.5
t-46.5 27.5t-20 38.5t-6 51.5zM727 189q46 0 60 13t14 42q0 33 -16.5 44t-54.5 11q-51 0 -65 -13t-14 -46q0 -18 5 -29t18 -15.5t22.5 -5.5t30.5 -1zM810 821l26 -21l-645 -861l-27 20zM106 799h334v-83l-176 -336h-105l179 336h-232v83z" />
    <glyph glyph-name="Japan1.9805" 
d="M387 603q16 -6 26 -12.5t22 -29t12 -55.5q0 -29 -5.5 -48.5t-22.5 -39t-54.5 -29.5t-96.5 -10q-91 0 -130.5 27.5t-39.5 92.5q0 37 12 60.5t22.5 30t29.5 13.5q-16 8 -25 14t-20 27.5t-11 52.5q0 67 42.5 91t118.5 24q40 0 66 -3.5t53 -14t40.5 -34.5t13.5 -61
q0 -34 -11 -56t-19.5 -28t-22.5 -12zM274 729q-42 0 -59 -9t-17 -40q0 -12 4.5 -19.5t10 -11.5t18.5 -6t22 -2.5t29 -0.5q34 0 49.5 8t15.5 35q0 20 -12 31t-25.5 13t-35.5 2zM273 564q-17 0 -27 -1t-25.5 -5t-23.5 -15t-8 -29q0 -29 18.5 -41.5t69.5 -12.5q45 0 62 12
t17 42q0 28 -17 39t-66 11zM566 74h91q1 -25 15.5 -34t51.5 -9q51 0 65.5 18t14.5 88q-11 -9 -19 -13.5t-29 -9t-53 -4.5q-25 0 -42.5 2t-38.5 9.5t-33.5 21t-21 39.5t-8.5 62q0 81 40 109t119 28q52 0 82 -6.5t54 -27t33 -59.5t9 -104q0 -102 -16.5 -152t-51.5 -67
t-108 -17q-50 0 -81.5 8.5t-46.5 27.5t-20 38.5t-6 51.5zM727 189q46 0 60 13t14 42q0 33 -16.5 44t-54.5 11q-51 0 -65 -13t-14 -46q0 -18 5 -29t18 -15.5t22.5 -5.5t30.5 -1zM810 821l26 -21l-645 -861l-27 20z" />
    <glyph glyph-name="Japan1.9806" 
d="M823 380q72 0 91.5 -42.5t19.5 -172.5q0 -129 -19 -172.5t-90 -43.5q-47 0 -69.5 13.5t-34.5 60t-12 142.5q0 93 11.5 139t34 61t68.5 15zM822 298q-17 0 -23 -23q-5 -23 -5 -109t5 -109q6 -23 24 -23q9 0 13.5 3.5t8 20.5t4 44t0.5 82q0 80 -7 100q-5 14 -20 14z
M810 821l26 -21l-645 -861l-27 20zM521 374h142v-419h-84v336h-58v83zM167 804h168v-418h-91v333h-77v85z" />
    <glyph glyph-name="Japan1.9807" 
d="M823 380q72 0 91.5 -42.5t19.5 -172.5q0 -129 -19 -172.5t-90 -43.5q-47 0 -69.5 13.5t-34.5 60t-12 142.5q0 93 11.5 139t34 61t68.5 15zM822 298q-17 0 -23 -23q-5 -23 -5 -109t5 -109q6 -23 24 -23q9 0 13.5 3.5t8 20.5t4 44t0.5 82q0 80 -7 100q-5 14 -20 14z
M810 821l26 -21l-645 -861l-27 20zM521 374h142v-419h-84v336h-58v83zM99 529h93q0 -21 1 -30.5t7.5 -19.5t21.5 -13.5t42 -3.5q53 0 71.5 10.5t18.5 42.5q0 50 -43 50h-69v75h66q6 0 12 1t15.5 11.5t9.5 29.5q0 28 -14.5 38t-58.5 10q-45 0 -59 -11.5t-14 -49.5h-92
q0 25 1.5 40t9.5 37.5t24 35t47 22t75 9.5q32 0 52.5 -1.5t45.5 -7.5t39.5 -18t24.5 -33.5t10 -52.5q0 -26 -5 -44.5t-14.5 -28.5t-16 -14t-17.5 -8q12 -4 19 -8t19.5 -14.5t18.5 -30.5t6 -48q0 -68 -41 -97t-125 -29q-61 0 -98 8.5t-55 30t-23 45.5t-5 67z" />
    <glyph glyph-name="Japan1.9808" 
d="M823 380q72 0 91.5 -42.5t19.5 -172.5q0 -129 -19 -172.5t-90 -43.5q-47 0 -69.5 13.5t-34.5 60t-12 142.5q0 93 11.5 139t34 61t68.5 15zM822 298q-17 0 -23 -23q-5 -23 -5 -109t5 -109q6 -23 24 -23q9 0 13.5 3.5t8 20.5t4 44t0.5 82q0 80 -7 100q-5 14 -20 14z
M810 821l26 -21l-645 -861l-27 20zM521 374h142v-419h-84v336h-58v83zM106 799h334v-83l-176 -336h-105l179 336h-232v83z" />
    <glyph glyph-name="Japan1.9809" 
d="M823 380q72 0 91.5 -42.5t19.5 -172.5q0 -129 -19 -172.5t-90 -43.5q-47 0 -69.5 13.5t-34.5 60t-12 142.5q0 93 11.5 139t34 61t68.5 15zM822 298q-17 0 -23 -23q-5 -23 -5 -109t5 -109q6 -23 24 -23q9 0 13.5 3.5t8 20.5t4 44t0.5 82q0 80 -7 100q-5 14 -20 14z
M112 505h90q1 -25 15.5 -34t51.5 -9q51 0 65.5 18t15.5 88q-12 -9 -20 -13.5t-29 -9t-53 -4.5q-25 0 -42.5 2t-38.5 9.5t-33.5 21t-21 39.5t-8.5 62q0 81 40.5 109t119.5 28q52 0 81.5 -6.5t53.5 -27t33 -59.5t9 -104q0 -102 -16 -152t-51 -67t-108 -17q-50 0 -82 8.5
t-47 27.5t-20 38.5t-5 51.5zM273 620q46 0 60 13t14 42q0 33 -16.5 44t-55.5 11q-51 0 -65 -13t-14 -46q0 -18 5 -29t18 -15.5t23 -5.5t31 -1zM810 821l26 -21l-645 -861l-27 20zM521 374h142v-419h-84v336h-58v83z" />
    <glyph glyph-name="Japan1.9810" 
d="M810 821l26 -21l-645 -861l-27 20zM548 374h142v-419h-84v336h-58v83zM766 374h142v-419h-84v336h-58v83zM167 804h168v-418h-91v333h-77v85z" />
    <glyph glyph-name="Japan1.9811" 
d="M810 821l26 -21l-645 -861l-27 20zM548 374h142v-419h-84v336h-58v83zM766 374h142v-419h-84v336h-58v83zM345 546l-113 -20q-18 -3 -26 -12.5t-9.5 -19t-1.5 -30.5h245v-80h-337v105q0 96 99 114l107 20q41 8 41 51q0 30 -15.5 41.5t-54.5 11.5q-42 0 -61 -9.5
t-19 -39.5v-24h-93q0 28 1.5 42.5t6 36t15 33t28.5 23.5t47.5 17t69.5 5q95 0 131 -31.5t36 -100.5q0 -70 -23 -97t-74 -36z" />
    <glyph glyph-name="Japan1.9812" 
d="M810 821l26 -21l-645 -861l-27 20zM548 374h142v-419h-84v336h-58v83zM766 374h142v-419h-84v336h-58v83zM99 529h93q0 -21 1 -30.5t7.5 -19.5t21.5 -13.5t42 -3.5q53 0 71.5 10.5t18.5 42.5q0 50 -43 50h-69v75h66q6 0 12 1t15.5 11.5t9.5 29.5q0 28 -14.5 38t-58.5 10
q-45 0 -59 -11.5t-14 -49.5h-92q0 25 1.5 40t9.5 37.5t24 35t47 22t75 9.5q32 0 52.5 -1.5t45.5 -7.5t39.5 -18t24.5 -33.5t10 -52.5q0 -26 -5 -44.5t-14.5 -28.5t-16 -14t-17.5 -8q12 -4 19 -8t19.5 -14.5t18.5 -30.5t6 -48q0 -68 -41 -97t-125 -29q-61 0 -98 8.5t-55 30
t-23 45.5t-5 67z" />
    <glyph glyph-name="Japan1.9813" 
d="M281 811h120v-260h56v-83h-56v-78h-89v78h-224v100zM312 551v171l-131 -171h131zM810 821l26 -21l-645 -861l-27 20zM548 374h142v-419h-84v336h-58v83zM766 374h142v-419h-84v336h-58v83z" />
    <glyph glyph-name="Japan1.9814" 
d="M810 821l26 -21l-645 -861l-27 20zM548 374h142v-419h-84v336h-58v83zM766 374h142v-419h-84v336h-58v83zM116 808h310v-83h-223l-2 -74q30 21 94 21q80 0 114.5 -32t34.5 -107q0 -36 -4.5 -58.5t-20.5 -47t-53 -36t-95 -11.5q-50 0 -84 9t-50.5 20.5t-25 33t-9.5 35.5
t-1 40h93q-1 -29 11.5 -41.5t61.5 -12.5q53 0 68.5 13t15.5 51q0 37 -13.5 50t-58.5 13q-44 0 -60 -5.5t-22 -21.5h-84z" />
    <glyph glyph-name="Japan1.9815" 
d="M434 686h-91q-1 25 -15.5 34t-51.5 9q-51 0 -65.5 -18t-14.5 -88q11 9 19 13.5t29 8.5t53 4q26 0 43 -1.5t38 -9t33.5 -21.5t21 -39.5t8.5 -61.5q0 -81 -40 -109t-119 -28q-52 0 -82 6.5t-54 27t-33 59.5t-9 104q0 102 16.5 152t51.5 67t108 17q50 0 81.5 -8.5
t46.5 -27.5t20 -38.5t6 -51.5zM273 571q-46 0 -60 -13t-14 -42q0 -33 16.5 -44t54.5 -11q50 0 64.5 13t14.5 45q0 15 -4.5 25.5t-10 15.5t-17 7.5t-20 3t-24.5 0.5zM810 821l26 -21l-645 -861l-27 20zM548 374h142v-419h-84v336h-58v83zM766 374h142v-419h-84v336h-58v83z
" />
    <glyph glyph-name="Japan1.9816" 
d="M810 821l26 -21l-645 -861l-27 20zM548 374h142v-419h-84v336h-58v83zM766 374h142v-419h-84v336h-58v83zM106 799h334v-83l-176 -336h-105l179 336h-232v83z" />
    <glyph glyph-name="Japan1.9817" 
d="M387 603q16 -6 26 -12.5t22 -29t12 -55.5q0 -29 -5.5 -48.5t-22.5 -39t-54.5 -29.5t-96.5 -10q-91 0 -130.5 27.5t-39.5 92.5q0 37 12 60.5t22.5 30t29.5 13.5q-16 8 -25 14t-20 27.5t-11 52.5q0 67 42.5 91t118.5 24q40 0 66 -3.5t53 -14t40.5 -34.5t13.5 -61
q0 -34 -11 -56t-19.5 -28t-22.5 -12zM274 729q-42 0 -59 -9t-17 -40q0 -12 4.5 -19.5t10 -11.5t18.5 -6t22 -2.5t29 -0.5q34 0 49.5 8t15.5 35q0 20 -12 31t-25.5 13t-35.5 2zM273 564q-17 0 -27 -1t-25.5 -5t-23.5 -15t-8 -29q0 -29 18.5 -41.5t69.5 -12.5q45 0 62 12
t17 42q0 28 -17 39t-66 11zM810 821l26 -21l-645 -861l-27 20zM548 374h142v-419h-84v336h-58v83zM766 374h142v-419h-84v336h-58v83z" />
    <glyph glyph-name="Japan1.9818" 
d="M112 505h90q1 -25 15.5 -34t51.5 -9q51 0 65.5 18t15.5 88q-12 -9 -20 -13.5t-29 -9t-53 -4.5q-25 0 -42.5 2t-38.5 9.5t-33.5 21t-21 39.5t-8.5 62q0 81 40.5 109t119.5 28q52 0 81.5 -6.5t53.5 -27t33 -59.5t9 -104q0 -102 -16 -152t-51 -67t-108 -17q-50 0 -82 8.5
t-47 27.5t-20 38.5t-5 51.5zM273 620q46 0 60 13t14 42q0 33 -16.5 44t-55.5 11q-51 0 -65 -13t-14 -46q0 -18 5 -29t18 -15.5t23 -5.5t31 -1zM810 821l26 -21l-645 -861l-27 20zM548 374h142v-419h-84v336h-58v83zM766 374h142v-419h-84v336h-58v83z" />
    <glyph glyph-name="Japan1.9819" 
d="M367 811q73 0 92.5 -42.5t19.5 -172.5q0 -129 -19 -172.5t-91 -43.5q-47 0 -69 13.5t-34 59.5t-12 142q0 94 11 140t33.5 61t68.5 15zM367 728q-17 0 -23 -22q-5 -29 -5 -109q0 -87 5 -109q4 -23 24 -23q9 0 13.5 3.5t7.5 20.5t3.5 44t0.5 82q0 80 -6 99q-5 14 -20 14z
M810 821l26 -21l-645 -861l-27 20zM548 374h142v-419h-84v336h-58v83zM766 374h142v-419h-84v336h-58v83zM66 805h142v-419h-84v336h-58v83z" />
    <glyph glyph-name="Japan1.9820" 
d="M521 374h142v-419h-84v336h-58v83zM708 227v60q0 94 109 94q64 0 90 -23.5t26 -94.5q0 -33 -1 -48.5t-5.5 -35.5t-16 -31.5t-30.5 -19.5l-67 -28q-17 -7 -20.5 -19t-3.5 -46h144v-80h-225v110q0 74 58 100l59 27q16 8 21 16.5t5 28.5v30q0 34 -28 34q-35 0 -35 -36v-38
h-80zM810 821l26 -21l-645 -861l-27 20zM167 804h168v-418h-91v333h-77v85z" />
    <glyph glyph-name="Japan1.9821" 
d="M521 374h142v-419h-84v336h-58v83zM708 227v60q0 94 109 94q64 0 90 -23.5t26 -94.5q0 -33 -1 -48.5t-5.5 -35.5t-16 -31.5t-30.5 -19.5l-67 -28q-17 -7 -20.5 -19t-3.5 -46h144v-80h-225v110q0 74 58 100l59 27q16 8 21 16.5t5 28.5v30q0 34 -28 34q-35 0 -35 -36v-38
h-80zM810 821l26 -21l-645 -861l-27 20zM116 808h310v-83h-223l-2 -74q30 21 94 21q80 0 114.5 -32t34.5 -107q0 -36 -4.5 -58.5t-20.5 -47t-53 -36t-95 -11.5q-50 0 -84 9t-50.5 20.5t-25 33t-9.5 35.5t-1 40h93q-1 -29 11.5 -41.5t61.5 -12.5q53 0 68.5 13t15.5 51
q0 37 -13.5 50t-58.5 13q-44 0 -60 -5.5t-22 -21.5h-84z" />
    <glyph glyph-name="Japan1.9822" 
d="M521 374h142v-419h-84v336h-58v83zM708 227v60q0 94 109 94q64 0 90 -23.5t26 -94.5q0 -33 -1 -48.5t-5.5 -35.5t-16 -31.5t-30.5 -19.5l-67 -28q-17 -7 -20.5 -19t-3.5 -46h144v-80h-225v110q0 74 58 100l59 27q16 8 21 16.5t5 28.5v30q0 34 -28 34q-35 0 -35 -36v-38
h-80zM810 821l26 -21l-645 -861l-27 20zM106 799h334v-83l-176 -336h-105l179 336h-232v83z" />
    <glyph glyph-name="Japan1.9823" 
d="M521 374h142v-419h-84v336h-58v83zM708 227v60q0 94 109 94q64 0 90 -23.5t26 -94.5q0 -33 -1 -48.5t-5.5 -35.5t-16 -31.5t-30.5 -19.5l-67 -28q-17 -7 -20.5 -19t-3.5 -46h144v-80h-225v110q0 74 58 100l59 27q16 8 21 16.5t5 28.5v30q0 34 -28 34q-35 0 -35 -36v-38
h-80zM810 821l26 -21l-645 -861l-27 20zM92 805h142v-419h-84v336h-58v83zM310 805h142v-419h-84v336h-58v83z" />
    <glyph glyph-name="Japan1.9824" 
d="M726 380q51 0 64.5 -42.5t13.5 -172.5q0 -128 -13 -172t-62 -44q-20 0 -29 1.5t-21.5 12t-18 33t-9.5 64.5t-4 105q0 94 8 140t23.5 60.5t47.5 14.5zM726 298q-14 0 -16 -23q-3 -20 -3 -109q0 -91 3 -109q3 -23 17 -23q6 0 9 4t5 20.5t2.5 44.5t0.5 81q0 79 -5 100
q-3 14 -13 14zM905 380q51 0 64.5 -42.5t13.5 -172.5q0 -128 -13 -172t-62 -44q-20 0 -29 1.5t-21.5 12t-18 33t-9.5 64.5t-4 105q0 94 8 140t23.5 60.5t47.5 14.5zM905 298q-14 0 -16 -23q-3 -20 -3 -109q0 -85 4 -109q4 -23 16 -23q11 0 14 23t3 109q0 50 -0.5 76.5
t-3.5 39t-5.5 14.5t-8.5 2zM810 821l26 -21l-645 -861l-27 20zM527 374h97v-419h-59v336h-38v83zM167 804h168v-418h-91v333h-77v85z" />
    <glyph glyph-name="Japan1.9825" 
d="M65 396h870v-32h-870v32zM500 736q-45 0 -60.5 -21.5t-15.5 -85.5q0 -66 16 -86t63 -20q43 0 58 22.5t15 81.5q0 67 -16 88t-60 21zM333 80h90q1 -35 13 -45.5t64 -10.5q20 0 29.5 0.5t22 4t18 12t5.5 22.5q0 38 -43 38h-61v66h61q39 0 39 33q0 35 -72 35q-44 0 -57 -9
t-13 -37h-91q0 19 0.5 28.5t4 25t9.5 23.5t18 18.5t29.5 15.5t44 8.5t60.5 3.5q33 0 57 -3t49 -12.5t38.5 -29.5t13.5 -51q0 -63 -57 -81q62 -15 62 -83q0 -61 -42.5 -81.5t-125.5 -20.5q-57 0 -90 6.5t-49.5 25t-21 39t-5.5 59.5zM332 630q0 104 37 142t134 38
q94 0 129.5 -39t35.5 -144q0 -106 -39 -142.5t-129 -36.5q-92 0 -130 36t-38 146z" />
    <glyph glyph-name="Japan1.9826" 
d="M65 396h870v-32h-870v32zM574 92l-110 -16q-33 -5 -36 -45h232v-75h-323v87q0 90 91 103l106 15q37 5 37 37q0 22 -15.5 30t-58.5 8q-24 0 -38.5 -4t-20.5 -12.5t-7.5 -15t-1.5 -19.5h-89q0 26 1.5 38.5t9.5 33t23 30t45 17.5t74 8q103 0 136.5 -26.5t33.5 -87.5
q0 -93 -89 -106zM380 803h180v-347h-91v271h-89v76z" />
    <glyph glyph-name="Japan1.9827" 
d="M65 396h870v-32h-870v32zM333 80h90q1 -35 13 -45.5t64 -10.5q20 0 29.5 0.5t22 4t18 12t5.5 22.5q0 38 -43 38h-61v66h61q39 0 39 33q0 35 -72 35q-44 0 -57 -9t-13 -37h-91q0 19 0.5 28.5t4 25t9.5 23.5t18 18.5t29.5 15.5t44 8.5t60.5 3.5q33 0 57 -3t49 -12.5
t38.5 -29.5t13.5 -51q0 -63 -57 -81q62 -15 62 -83q0 -61 -42.5 -81.5t-125.5 -20.5q-57 0 -90 6.5t-49.5 25t-21 39t-5.5 59.5zM380 803h180v-347h-91v271h-89v76z" />
    <glyph glyph-name="Japan1.9828" 
d="M65 396h870v-32h-870v32zM333 80h90q1 -35 13 -45.5t64 -10.5q20 0 29.5 0.5t22 4t18 12t5.5 22.5q0 38 -43 38h-61v66h61q39 0 39 33q0 35 -72 35q-44 0 -57 -9t-13 -37h-91q0 19 0.5 28.5t4 25t9.5 23.5t18 18.5t29.5 15.5t44 8.5t60.5 3.5q33 0 57 -3t49 -12.5
t38.5 -29.5t13.5 -51q0 -63 -57 -81q62 -15 62 -83q0 -61 -42.5 -81.5t-125.5 -20.5q-57 0 -90 6.5t-49.5 25t-21 39t-5.5 59.5zM574 591l-110 -16q-33 -5 -36 -45h232v-76h-323v88q0 90 91 103l106 15q37 5 37 36q0 22 -15.5 30t-58.5 8q-24 0 -38.5 -3.5t-20.5 -12.5
t-7.5 -15.5t-1.5 -19.5h-89q1 33 3.5 49t16 37.5t46.5 31t87 9.5q71 0 109 -13.5t49.5 -36.5t11.5 -64q0 -92 -89 -105z" />
    <glyph glyph-name="Japan1.9829" 
d="M505 312h117v-209h52v-76h-52v-63h-89v63h-207v93zM533 103v129l-116 -129h116zM65 396h870v-32h-870v32zM380 803h180v-347h-91v271h-89v76z" />
    <glyph glyph-name="Japan1.9830" 
d="M65 396h870v-32h-870v32zM333 578h90q1 -34 13 -44.5t64 -10.5q20 0 29.5 0.5t22 4t18 12t5.5 22.5q0 38 -43 38h-61v65h61q39 0 39 34q0 35 -72 35q-44 0 -57 -9t-13 -37h-91q0 19 0.5 28.5t4 25t9.5 23.5t18 18t29.5 15t44 8.5t60.5 3.5q33 0 57 -3t49 -12t38.5 -29.5
t13.5 -50.5q0 -28 -11.5 -47t-21 -24t-24.5 -11q62 -14 62 -82q0 -62 -42.5 -82.5t-125.5 -20.5q-57 0 -90 6.5t-49.5 25t-21 39t-5.5 59.5zM505 312h117v-209h52v-76h-52v-63h-89v63h-207v93zM533 103v129l-116 -129h116z" />
    <glyph glyph-name="Japan1.9831" 
d="M65 396h870v-32h-870v32zM353 307h296v-77h-208l-5 -57q30 17 91 17q46 0 76.5 -12t43 -32.5t16 -36.5t3.5 -36q0 -70 -39.5 -96.5t-128.5 -26.5q-88 0 -126.5 24.5t-37.5 91.5h91q0 -22 17 -32t61 -10q39 0 55 9.5t16 38.5q0 28 -13.5 39.5t-55.5 11.5q-30 0 -46 -4
t-19.5 -8t-5.5 -11h-87zM380 803h180v-347h-91v271h-89v76z" />
    <glyph glyph-name="Japan1.9832" 
d="M65 396h870v-32h-870v32zM353 307h296v-77h-208l-5 -57q30 17 91 17q46 0 76.5 -12t43 -32.5t16 -36.5t3.5 -36q0 -70 -39.5 -96.5t-128.5 -26.5q-88 0 -126.5 24.5t-37.5 91.5h91q0 -22 17 -32t61 -10q39 0 55 9.5t16 38.5q0 28 -13.5 39.5t-55.5 11.5q-30 0 -46 -4
t-19.5 -8t-5.5 -11h-87zM574 591l-110 -16q-33 -5 -36 -45h232v-76h-323v88q0 90 91 103l106 15q37 5 37 36q0 22 -15.5 30t-58.5 8q-24 0 -38.5 -3.5t-20.5 -12.5t-7.5 -15.5t-1.5 -19.5h-89q1 33 3.5 49t16 37.5t46.5 31t87 9.5q71 0 109 -13.5t49.5 -36.5t11.5 -64
q0 -92 -89 -105z" />
    <glyph glyph-name="Japan1.9833" 
d="M65 396h870v-32h-870v32zM353 307h296v-77h-208l-5 -57q30 17 91 17q46 0 76.5 -12t43 -32.5t16 -36.5t3.5 -36q0 -70 -39.5 -96.5t-128.5 -26.5q-88 0 -126.5 24.5t-37.5 91.5h91q0 -22 17 -32t61 -10q39 0 55 9.5t16 38.5q0 28 -13.5 39.5t-55.5 11.5q-30 0 -46 -4
t-19.5 -8t-5.5 -11h-87zM333 578h90q1 -34 13 -44.5t64 -10.5q20 0 29.5 0.5t22 4t18 12t5.5 22.5q0 38 -43 38h-61v65h61q39 0 39 34q0 35 -72 35q-44 0 -57 -9t-13 -37h-91q0 19 0.5 28.5t4 25t9.5 23.5t18 18t29.5 15t44 8.5t60.5 3.5q33 0 57 -3t49 -12t38.5 -29.5
t13.5 -50.5q0 -28 -11.5 -47t-21 -24t-24.5 -11q62 -14 62 -82q0 -62 -42.5 -82.5t-125.5 -20.5q-57 0 -90 6.5t-49.5 25t-21 39t-5.5 59.5z" />
    <glyph glyph-name="Japan1.9834" 
d="M505 810h117v-208h52v-77h-52v-62h-89v62h-207v94zM533 602v129l-116 -129h116zM65 396h870v-32h-870v32zM353 307h296v-77h-208l-5 -57q30 17 91 17q46 0 76.5 -12t43 -32.5t16 -36.5t3.5 -36q0 -70 -39.5 -96.5t-128.5 -26.5q-88 0 -126.5 24.5t-37.5 91.5h91
q0 -22 17 -32t61 -10q39 0 55 9.5t16 38.5q0 28 -13.5 39.5t-55.5 11.5q-30 0 -46 -4t-19.5 -8t-5.5 -11h-87z" />
    <glyph glyph-name="Japan1.9835" 
d="M658 199h-89q0 22 -16 30t-51 8q-55 0 -66.5 -16.5t-12.5 -74.5q33 28 105 28q67 0 103 -23t36 -86q0 -71 -39.5 -94t-130.5 -23q-99 0 -131.5 34t-32.5 134q0 87 15.5 128.5t48.5 55t101 13.5q67 0 103 -15t45.5 -37t11.5 -62zM65 396h870v-32h-870v32zM502 103
q-41 0 -59 -8t-18 -32q0 -12 4 -19.5t9 -11.5t16 -6t18.5 -2.5t22.5 -0.5q49 0 65.5 8t16.5 34q0 11 -4 18.5t-9 11.5t-17 5.5t-20 2t-25 0.5zM380 803h180v-347h-91v271h-89v76z" />
    <glyph glyph-name="Japan1.9836" 
d="M65 396h870v-32h-870v32zM658 199h-89q0 22 -16 30t-51 8q-55 0 -66.5 -16.5t-12.5 -74.5q33 28 105 28q67 0 103 -23t36 -86q0 -71 -39.5 -94t-130.5 -23q-99 0 -131.5 34t-32.5 134q0 87 15.5 128.5t48.5 55t101 13.5q67 0 103 -15t45.5 -37t11.5 -62zM502 103
q-41 0 -59 -8t-18 -32q0 -12 4 -19.5t9 -11.5t16 -6t18.5 -2.5t22.5 -0.5q49 0 65.5 8t16.5 34q0 11 -4 18.5t-9 11.5t-17 5.5t-20 2t-25 0.5zM353 806h296v-77h-208l-5 -58q30 18 91 18q46 0 76.5 -12t43 -33t16 -36.5t3.5 -35.5q0 -71 -39.5 -97.5t-128.5 -26.5
q-88 0 -126.5 24.5t-37.5 91.5h91q0 -21 17 -31t61 -10q39 0 55 9t16 38t-13.5 40.5t-55.5 11.5q-30 0 -46 -4t-19.5 -8t-5.5 -11h-87z" />
    <glyph glyph-name="Japan1.9837" 
d="M65 396h870v-32h-870v32zM334 305h332v-70l-178 -285h-108l181 277h-227v78zM380 803h180v-347h-91v271h-89v76z" />
    <glyph glyph-name="Japan1.9838" 
d="M65 396h870v-32h-870v32zM334 305h332v-70l-178 -285h-108l181 277h-227v78zM574 591l-110 -16q-33 -5 -36 -45h232v-76h-323v88q0 90 91 103l106 15q37 5 37 36q0 22 -15.5 30t-58.5 8q-24 0 -38.5 -3.5t-20.5 -12.5t-7.5 -15.5t-1.5 -19.5h-89q1 33 3.5 49t16 37.5
t46.5 31t87 9.5q71 0 109 -13.5t49.5 -36.5t11.5 -64q0 -92 -89 -105z" />
    </font>
</defs>
</svg>
