<svg xmlns="http://www.w3.org/2000/svg" viewBox="0 0 31.5 25.03"><defs><style>.cls-1{fill:#fff;}</style></defs><g id="Layer_2" data-name="Layer 2"><g id="Layer_1-2" data-name="Layer 1"><path class="cls-1" d="M31.08,2.53H.42A.37.37,0,0,1,0,2.11V.42A.37.37,0,0,1,.42,0H31.08a.37.37,0,0,1,.42.42V2.11A.37.37,0,0,1,31.08,2.53Zm0,11.25H.42A.37.37,0,0,1,0,13.36V11.67a.37.37,0,0,1,.42-.42H31.08a.37.37,0,0,1,.42.42v1.69A.37.37,0,0,1,31.08,13.78Zm0,11.25H.42A.37.37,0,0,1,0,24.61V22.92a.37.37,0,0,1,.42-.42H31.08a.37.37,0,0,1,.42.42v1.69A.37.37,0,0,1,31.08,25Z"/></g></g></svg>