<?xml version="1.0" encoding="utf-8"?>
<!-- Generator: Adobe Illustrator 26.0.1, SVG Export Plug-In . SVG Version: 6.00 Build 0)  -->
<svg version="1.1" id="Layer_1" xmlns="http://www.w3.org/2000/svg" xmlns:xlink="http://www.w3.org/1999/xlink" x="0px" y="0px"
	 viewBox="0 0 31.5 25" style="enable-background:new 0 0 31.5 25;" xml:space="preserve">
<style type="text/css">
	.st0{fill:#2C4057;}
</style>
<g id="Layer_2_00000039834168466838665150000014089771826384758165_">
	<g id="Layer_1-2">
		<path class="st0" d="M31.1,2.5H0.4C0.2,2.6,0,2.4,0,2.2c0,0,0-0.1,0-0.1V0.4C0,0.2,0.1,0,0.3,0c0,0,0.1,0,0.1,0h30.7
			c0.2,0,0.4,0.1,0.4,0.3c0,0,0,0.1,0,0.1v1.7c0,0.2-0.1,0.4-0.3,0.4C31.2,2.5,31.1,2.5,31.1,2.5z M31.1,13.8H0.4
			c-0.2,0-0.4-0.1-0.4-0.3c0,0,0-0.1,0-0.1v-1.7c0-0.2,0.1-0.4,0.3-0.4c0,0,0.1,0,0.1,0h30.7c0.2,0,0.4,0.1,0.4,0.3c0,0,0,0.1,0,0.1
			v1.7c0,0.2-0.1,0.4-0.3,0.4C31.2,13.8,31.1,13.8,31.1,13.8z M31.1,25H0.4c-0.2,0-0.4-0.1-0.4-0.3c0,0,0-0.1,0-0.1v-1.7
			c0-0.2,0.1-0.4,0.3-0.4c0,0,0.1,0,0.1,0h30.7c0.2,0,0.4,0.1,0.4,0.3c0,0,0,0.1,0,0.1v1.7C31.5,24.8,31.4,25,31.1,25
			C31.1,25,31.1,25,31.1,25L31.1,25z"/>
	</g>
</g>
</svg>
