<?xml version="1.0" standalone="no"?>
<!DOCTYPE svg PUBLIC "-//W3C//DTD SVG 20010904//EN"
 "http://www.w3.org/TR/2001/REC-SVG-20010904/DTD/svg10.dtd">
<svg version="1.0" xmlns="http://www.w3.org/2000/svg"
 width="520.000000pt" height="520.000000pt" viewBox="0 0 520.000000 520.000000"
 preserveAspectRatio="xMidYMid meet">
<metadata>
Created by potrace 1.14, written by Peter Selinger 2001-2017
</metadata>
<g transform="translate(0.000000,520.000000) scale(0.100000,-0.100000)"
fill="#000000" stroke="none">
<path d="M2419 5156 c-2 -2 -38 -6 -79 -10 -72 -6 -95 -9 -170 -22 -19 -4 -44
-8 -55 -10 -38 -6 -80 -15 -120 -26 -22 -5 -48 -12 -59 -14 -10 -2 -33 -8 -51
-14 -18 -6 -41 -12 -51 -14 -28 -6 -259 -94 -312 -120 -26 -13 -65 -32 -87
-42 -68 -33 -180 -98 -183 -106 -2 -4 -8 -8 -14 -8 -11 0 -198 -127 -240 -162
-15 -13 -44 -36 -65 -53 -50 -40 -253 -236 -263 -255 -7 -13 191 -15 1758 -14
2008 2 2102 3 2102 14 0 4 -54 60 -120 123 -147 142 -280 246 -450 353 -188
118 -518 259 -700 300 -45 10 -57 12 -95 22 -22 6 -60 14 -85 17 -24 4 -47 8
-51 11 -3 2 -30 6 -60 9 -30 3 -67 7 -84 11 -33 6 -461 15 -466 10z"/>
<path d="M3897 3163 c-3 -2 -149 -5 -325 -5 l-320 1 1 -1557 2 -1557 25 4 c14
1 45 10 70 18 25 9 50 16 57 17 7 1 16 5 19 9 4 4 14 7 22 7 8 0 28 6 45 14
18 7 59 24 92 37 33 12 80 33 104 46 24 13 50 23 57 23 8 0 14 5 14 10 0 6 9
10 20 10 11 0 20 5 20 10 0 6 5 10 11 10 13 0 242 135 262 154 7 6 24 19 39
29 35 22 180 139 232 186 232 214 417 453 560 724 58 110 139 300 161 377 2 8
16 53 30 100 31 102 66 263 80 370 27 195 27 594 0 725 -3 11 -7 36 -10 55 -2
19 -7 46 -10 60 -3 14 -8 40 -11 58 -3 17 -9 32 -13 33 -51 8 -425 20 -756 25
-307 5 -356 5 -400 0 -11 -1 -32 1 -47 5 -14 4 -29 5 -31 2z"/>
<path d="M378 3155 c-2 -2 -61 -6 -133 -9 -72 -4 -139 -8 -150 -11 -11 -2 -23
-4 -26 -4 -4 -1 -10 -18 -15 -38 -4 -21 -8 -40 -9 -43 0 -3 -5 -30 -9 -60 -4
-30 -10 -64 -12 -75 -26 -145 -26 -551 1 -715 15 -89 25 -148 29 -170 3 -14 8
-38 12 -55 12 -59 66 -241 96 -320 112 -302 294 -602 508 -839 74 -81 244
-246 255 -246 2 0 17 -12 32 -26 25 -23 197 -149 249 -181 121 -77 271 -153
459 -233 37 -16 203 -69 243 -78 l40 -9 -2 1556 -1 1556 -782 1 c-431 1 -784
0 -785 -1z"/>
</g>
</svg>
