<?xml version="1.0" encoding="utf-8"?>
<!-- Generator: Adobe Illustrator 25.1.0, SVG Export Plug-In . SVG Version: 6.00 Build 0)  -->
<svg version="1.1" id="Layer_1" xmlns="http://www.w3.org/2000/svg" xmlns:xlink="http://www.w3.org/1999/xlink" x="0px" y="0px"
	 viewBox="0 0 55 61" style="enable-background:new 0 0 55 61;" xml:space="preserve">
<style type="text/css">
	.st0{fill:#0095B6;}
</style>
<path class="st0" d="M54.1,38.7c0,5.7,0.1,11.5-0.1,17.2c0,1.3-0.6,3.2-1.5,3.8c-0.9,0.5-2.9,0-4-0.7c-6.6-3.9-13-8-19.5-12.1
	c-1.4-0.9-2.6-1.8-2.2-3.7c0.4-1.8,1.9-2,3.5-2.2c3.5-0.6,5.8-3.4,5.6-6.8s-2.8-6-6.4-6.1C26.8,28,24,28.2,21.3,28
	c-2-0.1-2.6,0.6-2.6,2.6c0.1,8.4,0,16.8,0,25.2c0,3.9-0.7,4.6-4.7,4.6c-3.3,0-6.6,0-10,0c-3,0-4-1-4-4.1c0-11.8-0.1-23.6,0.1-35.4
	c0-1.3,1-3.1,2.1-3.9C9.7,11.8,17.3,6.8,24.9,1.6c1.6-1.1,3-1.1,4.6,0C37,6.7,44.5,11.8,52,16.8c1.6,1.1,2.2,2.5,2.2,4.4
	C54.1,27,54.1,32.9,54.1,38.7z M48,52.1c0.2-0.7,0.3-1,0.3-1.3c0-9.4,0.1-18.8-0.1-28.1c0-0.9-0.8-2-1.6-2.5
	c-5.9-4.1-12-8.1-17.9-12.2c-1.2-0.8-2.1-0.9-3.3,0c-5.9,4.1-12,8-17.9,12.2c-0.9,0.6-1.7,2.1-1.7,3.2c-0.1,9.6,0,19.3-0.1,28.9
	c0,1.9,0.6,2.8,2.5,2.6c0.7-0.1,1.3-0.1,2,0c2.3,0.3,3-0.7,3-3c-0.1-8.5-0.1-17.1,0-25.6c0-3,0.7-3.7,3.7-3.7c4.2,0,8.5-0.1,12.7,0
	c5.1,0.1,8.8,2.6,10.9,7.3c2,4.4,0.9,9.7-2.5,13.2c-0.5,0.6-1.1,1.2-1.7,1.9C40.3,47.3,44,49.6,48,52.1z"/>
</svg>
