<svg width="20" height="13" viewBox="0 0 20 13" fill="none" xmlns="http://www.w3.org/2000/svg">
<path d="M8.76232 7.06523C9.11342 7.34686 9.55006 7.50035 10.0002 7.50035C10.4502 7.50035 10.8869 7.34686 11.238 7.06523L18.3767 1.41305C18.4394 1.36229 18.4905 1.2987 18.5265 1.22656C18.5626 1.15441 18.5828 1.07539 18.5858 0.994785C18.5888 0.913499 18.5741 0.832535 18.5429 0.757424C18.5117 0.682313 18.4646 0.614824 18.405 0.559566C18.0471 0.207587 17.5673 0.00716122 17.0654 0H2.93492C2.4428 0.00158011 1.96904 0.18705 1.60665 0.520001C1.54594 0.574741 1.49782 0.641999 1.46562 0.717137C1.43342 0.792274 1.4179 0.873503 1.42013 0.95522C1.42301 1.03724 1.44372 1.11764 1.48081 1.19085C1.5179 1.26405 1.57049 1.3283 1.63492 1.37913L8.76232 7.06523Z" fill="white"/>
<path d="M18.8626 11.8356C18.9802 11.5803 19.0419 11.3028 19.0435 11.0217V2.66211L13.4365 7.13299L18.8626 11.8356Z" fill="white"/>
<path d="M6.56351 7.13286L0.956543 2.64502V11.0216C0.958153 11.3027 1.01982 11.5802 1.13741 11.8355L6.56351 7.13286Z" fill="white"/>
<path d="M17.8566 12.8302L12.3175 8.03153L12.1197 8.18979C11.5182 8.67137 10.7706 8.93376 10.0001 8.93376C9.22957 8.93376 8.48201 8.67137 7.88052 8.18979L7.6827 8.02588L2.14355 12.8302C2.39256 12.9415 2.66214 12.9992 2.93486 12.9998H17.0653C17.3381 12.9992 17.6076 12.9415 17.8566 12.8302Z" fill="white"/>
</svg>
