<svg width="19" height="12" viewBox="0 0 19 12" fill="none" xmlns="http://www.w3.org/2000/svg">    <g clip-path="url(#clip0)">        <path d="M12.0459 6.91373C12.0459 8.49748 13.2946 9.27413 14.2997 9.27413C15.3048 9.27413 16.5535 8.49748 16.5535 6.91373C16.5535 5.68022 15.3352 4.69037 14.2997 4.09647C13.2794 4.7056 12.0459 5.68022 12.0459 6.91373Z" fill="#EB5757"/>        <path d="M2.86279 6.94415C2.86279 8.52791 4.11152 9.30456 5.1166 9.30456C6.12168 9.30456 7.37041 8.52791 7.37041 6.94415C7.37041 5.71065 6.15213 4.7208 5.1166 4.12689C4.08107 4.7208 2.86279 5.71065 2.86279 6.94415Z" fill="#EB5757"/>        <path d="M0.502625 0V12H18.8986V0H0.502625ZM18.8833 2.92386C17.7717 2.92386 16.4316 3.13706 15.3808 3.59391C16.5229 4.35533 17.6194 5.49746 17.6194 6.95939C17.6194 8.87817 16.0052 10.3401 14.2387 10.3401C12.4722 10.3401 10.9036 8.87817 10.9036 6.95939C10.9036 5.51269 11.9544 4.35533 13.0813 3.59391C12.0305 3.13706 10.797 2.92386 9.68537 2.92386C8.57369 2.92386 7.34019 3.13706 6.28943 3.59391C7.43156 4.35533 8.46709 5.49746 8.46709 6.95939C8.46709 8.87817 6.91379 10.3401 5.13207 10.3401C3.36557 10.3401 1.7209 8.87817 1.7209 6.95939C1.7209 5.51269 2.8478 4.35533 3.97471 3.59391C2.92394 3.13706 1.58384 2.92386 0.472168 2.92386V1.8731C2.34526 1.8731 3.98993 2.34518 5.11684 2.92386C6.24374 2.34518 7.79704 1.8731 9.67014 1.8731C11.5432 1.8731 13.0965 2.34518 14.2082 2.92386C15.3351 2.34518 16.995 1.8731 18.8529 1.8731V2.92386H18.8833Z" fill="#EB5757"/>    </g>    <defs>        <clipPath id="clip0">            <rect width="18.3959" height="12" fill="white" transform="translate(0.502441)"/>        </clipPath>    </defs></svg>