<svg width="99" height="100" viewBox="0 0 99 100" fill="none" xmlns="http://www.w3.org/2000/svg">
<path d="M40.5506 59.1684C40.184 58.802 39.6869 58.5962 39.1686 58.5962C38.6502 58.5962 38.1531 58.802 37.7865 59.1684C37.4219 59.5363 37.2162 60.0325 37.2135 60.5504C37.2197 61.0677 37.4249 61.5626 37.7865 61.9324C38.156 62.2934 38.652 62.4955 39.1686 62.4955C39.6851 62.4955 40.1811 62.2934 40.5506 61.9324C40.9122 61.5626 41.1174 61.0677 41.1236 60.5504C41.121 60.0325 40.9152 59.5363 40.5506 59.1684Z" fill="white"/>
<path d="M92.3371 7.60681C92.0657 7.32168 91.7145 7.12513 91.3295 7.04289C90.9445 6.96065 90.5437 6.99656 90.1794 7.1459C89.8152 7.29524 89.5045 7.55105 89.288 7.87988C89.0716 8.20871 88.9595 8.59522 88.9663 8.98883C88.9459 9.25728 88.9812 9.52704 89.0699 9.78123C89.1586 10.0354 89.2989 10.2685 89.4819 10.466C89.6649 10.6634 89.8867 10.8209 90.1335 10.9287C90.3802 11.0364 90.6465 11.092 90.9158 11.092C91.185 11.092 91.4513 11.0364 91.698 10.9287C91.9448 10.8209 92.1666 10.6634 92.3496 10.466C92.5326 10.2685 92.6729 10.0354 92.7616 9.78123C92.8503 9.52704 92.8856 9.25728 92.8652 8.98883C92.8663 8.73195 92.8162 8.47742 92.7178 8.24012C92.6194 8.00283 92.4747 7.78753 92.2922 7.60681H92.3371Z" fill="white"/>
<path d="M11.9663 28.5616C11.6949 28.2765 11.3437 28.08 10.9587 27.9977C10.5737 27.9155 10.1729 27.9514 9.80861 28.1007C9.44437 28.2501 9.13369 28.5059 8.91724 28.8347C8.70079 29.1635 8.58866 29.55 8.59551 29.9437C8.57511 30.2121 8.61038 30.4819 8.6991 30.7361C8.78782 30.9902 8.92809 31.2234 9.11111 31.4208C9.29412 31.6183 9.51594 31.7758 9.76267 31.8835C10.0094 31.9912 10.2757 32.0468 10.5449 32.0468C10.8142 32.0468 11.0805 31.9912 11.3272 31.8835C11.5739 31.7758 11.7958 31.6183 11.9788 31.4208C12.1618 31.2234 12.3021 30.9902 12.3908 30.7361C12.4795 30.4819 12.5148 30.2121 12.4944 29.9437C12.4929 29.4255 12.287 28.9288 11.9213 28.5616H11.9663Z" fill="white"/>
<path d="M94.2472 59.4719H87.5056V7.24719C87.5056 6.3532 87.8608 5.49582 88.4929 4.86368C89.125 4.23153 89.9824 3.8764 90.8764 3.8764C91.7704 3.8764 92.6278 4.23153 93.2599 4.86368C93.8921 5.49582 94.2472 6.3532 94.2472 7.24719V59.4719ZM94.2472 65.4382C94.1249 70.5348 92.0144 75.3815 88.3666 78.9429C84.7187 82.5042 79.8228 84.4979 74.7247 84.4979C69.6267 84.4979 64.7307 82.5042 61.0829 78.9429C57.435 75.3815 55.3245 70.5348 55.2022 65.4382V63.382H94.2472V65.4382ZM76.4382 96.0899H50.1011V89.4494H55.4944C55.7628 89.4698 56.0326 89.4346 56.2868 89.3458C56.541 89.2571 56.7741 89.1169 56.9715 88.9338C57.169 88.7508 57.3265 88.529 57.4342 88.2823C57.5419 88.0355 57.5976 87.7692 57.5976 87.5C57.5976 87.2308 57.5419 86.9644 57.4342 86.7177C57.3265 86.471 57.169 86.2492 56.9715 86.0662C56.7741 85.8831 56.541 85.7429 56.2868 85.6541C56.0326 85.5654 55.7628 85.5302 55.4944 85.5506H50.1011V46.0674H69.2023L67.0449 58.9888C67.0228 59.1415 67.0228 59.2967 67.0449 59.4494H53.2584C52.7399 59.4494 52.2426 59.6554 51.876 60.0221C51.5093 60.3887 51.3034 60.886 51.3034 61.4045V65.4157C51.3093 71.6271 53.7794 77.5824 58.1715 81.9745C62.5637 86.3666 68.5189 88.8368 74.7303 88.8427C75.9036 88.8421 77.0753 88.7557 78.236 88.5843L76.4382 96.0674V96.0899ZM46.2023 96.0899H35.3596L34.236 89.4494H46.2023V96.0899ZM33.618 85.5506L29.7978 62.4944H31.6629C32.1544 62.457 32.6136 62.2355 32.9487 61.874C33.2837 61.5125 33.4699 61.0378 33.4699 60.5449C33.4699 60.0521 33.2837 59.5774 32.9487 59.2159C32.6136 58.8544 32.1544 58.6328 31.6629 58.5955H29.1461L27.0787 46.0674H46.1798V85.5281L33.618 85.5506ZM19.1461 96.0899L17.6405 89.4494H30.3034L31.427 96.0899H19.1461ZM16.7528 85.5506L11.5393 62.4944H25.8427L29.6517 85.5506H16.7528ZM7.82023 46.0674H23.1236L25.191 58.573H10.6517L7.82023 46.0674ZM4.04495 29.3596C3.86559 28.6579 3.82877 27.9275 3.93666 27.2114C4.04455 26.4953 4.29496 25.8081 4.67308 25.1905C5.05119 24.5729 5.54933 24.0374 6.13803 23.6157C6.72673 23.1939 7.39403 22.8945 8.10046 22.7352C8.80688 22.5759 9.53809 22.5599 10.2508 22.6881C10.9636 22.8163 11.6433 23.0862 12.2499 23.4817C12.8566 23.8772 13.3777 24.3904 13.7825 24.9908C14.1873 25.5913 14.4676 26.2668 14.6067 26.9775L18.0449 42.1573H6.94382L4.04495 29.3596ZM73.236 46.0674H83.7079V59.4494H70.9888L73.236 46.0674ZM90.9551 0C89.0339 0.00297164 87.1923 0.767467 85.8338 2.12594C84.4753 3.4844 83.7108 5.32603 83.7079 7.24719V42.1798H22.0449L18.4157 26.1348C18.1457 24.9389 17.6428 23.8079 16.9357 22.8064C16.2285 21.8048 15.3311 20.9523 14.2945 20.2976C13.2579 19.6429 12.1025 19.1988 10.8943 18.9906C9.68612 18.7824 8.44873 18.8142 7.25281 19.0843C6.0569 19.3543 4.92588 19.8572 3.92433 20.5643C2.92278 21.2715 2.07032 22.1689 1.41562 23.2055C0.760911 24.2421 0.316783 25.3975 0.108594 26.6057C-0.0995954 27.8139 -0.0677702 29.0513 0.202251 30.2472L15.6405 98.4719C15.7357 98.9069 15.9773 99.2959 16.325 99.5741C16.6727 99.8522 17.1053 100.003 17.5506 100H77.9438C78.3825 100.002 78.8089 99.855 79.1537 99.5837C79.4984 99.3124 79.7413 98.9324 79.8427 98.5056L82.4831 87.5393C87.0525 85.9203 91.0089 82.9269 93.8092 78.9698C96.6096 75.0127 98.1166 70.2859 98.1236 65.4382V7.24719C98.1206 5.32408 97.3546 3.48076 95.9937 2.12197C94.6328 0.763176 92.7883 -2.30414e-06 90.8652 0H90.9551Z" fill="white"/>
<path d="M88.5281 65.4382C88.2712 65.3985 88.0089 65.41 87.7565 65.4722C87.5041 65.5345 87.2665 65.6461 87.0575 65.8008C86.8485 65.9554 86.6723 66.15 86.539 66.3732C86.4057 66.5964 86.3179 66.8438 86.2809 67.1012C86.0165 68.9376 85.3206 70.6853 84.2503 72.2008C83.18 73.7164 81.7658 74.9568 80.1236 75.8203C79.8957 75.9375 79.6934 76.099 79.5285 76.2952C79.3636 76.4914 79.2393 76.7184 79.163 76.9631C79.0866 77.2078 79.0597 77.4652 79.0839 77.7204C79.108 77.9756 79.1826 78.2234 79.3034 78.4495C79.4702 78.764 79.7192 79.0273 80.024 79.2113C80.3287 79.3954 80.6777 79.4932 81.0337 79.4944C81.351 79.4963 81.6638 79.419 81.9438 79.2697C84.1328 78.1191 86.0183 76.4665 87.4459 74.4472C88.8735 72.4278 89.8026 70.0992 90.1573 67.6517C90.1971 67.3948 90.1855 67.1325 90.1233 66.8801C90.0611 66.6277 89.9494 66.3901 89.7948 66.1811C89.6401 65.9721 89.4456 65.7959 89.2223 65.6626C88.9991 65.5293 88.7517 65.4416 88.4944 65.4045L88.5281 65.4382Z" fill="white"/>
<path d="M74.7865 77.146C74.268 77.146 73.7707 77.352 73.4041 77.7186C73.0374 78.0853 72.8315 78.5825 72.8315 79.101C72.8315 79.6196 73.0374 80.1168 73.4041 80.4835C73.7707 80.8501 74.268 81.0561 74.7865 81.0561H74.8652C75.3837 81.0561 75.881 80.8501 76.2476 80.4835C76.6143 80.1168 76.8202 79.6196 76.8202 79.101C76.8202 78.5825 76.6143 78.0853 76.2476 77.7186C75.881 77.352 75.3837 77.146 74.8652 77.146H74.7865Z" fill="white"/>
<path d="M36.0449 19.9776L34.5056 18.045C33.9193 17.3134 33.5999 16.4039 33.5999 15.4663C33.5999 14.5288 33.9193 13.6193 34.5056 12.8877L36.0787 10.9214C36.238 10.72 36.3561 10.4892 36.4263 10.2421C36.4964 9.99505 36.5172 9.73658 36.4875 9.48148C36.4578 9.22638 36.3781 8.97964 36.253 8.75534C36.1279 8.53103 35.9598 8.33355 35.7584 8.1742C35.557 8.01484 35.3262 7.89672 35.0791 7.82657C34.8321 7.75642 34.5736 7.73561 34.3185 7.76535C34.0634 7.79508 33.8167 7.87478 33.5924 7.99987C33.3681 8.12497 33.1706 8.29302 33.0112 8.49443L31.4494 10.4607C30.3125 11.8814 29.6931 13.6468 29.6931 15.4663C29.6931 17.2859 30.3125 19.0513 31.4494 20.472L32.9888 22.472C33.5741 23.2018 33.8932 24.1094 33.8932 25.045C33.8932 25.9806 33.5741 26.8882 32.9888 27.618C32.8285 27.8183 32.7094 28.0483 32.6384 28.2948C32.5674 28.5413 32.5459 28.7995 32.5752 29.0543C32.6044 29.3092 32.6838 29.5557 32.8088 29.7798C32.9338 30.0038 33.1019 30.2008 33.3034 30.3596C33.6463 30.6379 34.0752 30.7888 34.5169 30.7866C34.8109 30.7858 35.1011 30.7188 35.3656 30.5904C35.6302 30.462 35.8624 30.2756 36.0449 30.045C37.1819 28.6243 37.8013 26.859 37.8013 25.0394C37.8013 23.2198 37.1819 21.4544 36.0449 20.0338V19.9776Z" fill="white"/>
<path d="M64.8652 19.9774L63.3146 18.0449C62.7303 17.3124 62.412 16.4032 62.412 15.4662C62.412 14.5292 62.7303 13.62 63.3146 12.8876L64.8764 10.9213C65.055 10.7229 65.1911 10.4901 65.2763 10.2371C65.3616 9.98412 65.3941 9.71638 65.3718 9.45037C65.3496 9.18436 65.2732 8.92572 65.1472 8.69038C65.0213 8.45504 64.8484 8.24799 64.6394 8.08199C64.4303 7.91598 64.1895 7.79456 63.9318 7.72517C63.674 7.65578 63.4048 7.63991 63.1406 7.67854C62.8765 7.71717 62.6231 7.80949 62.396 7.94978C62.1689 8.09008 61.973 8.27539 61.8202 8.4943L60.2472 10.4606C59.1103 11.8813 58.4908 13.6466 58.4908 15.4662C58.4908 17.2858 59.1103 19.0512 60.2472 20.4718L61.809 22.4718C62.3924 23.2025 62.7102 24.1098 62.7102 25.0449C62.7102 25.9799 62.3924 26.8872 61.809 27.6179C61.6487 27.8182 61.5296 28.0482 61.4586 28.2947C61.3876 28.5412 61.3661 28.7993 61.3954 29.0542C61.4246 29.3091 61.504 29.5556 61.629 29.7796C61.754 30.0036 61.9221 30.2007 62.1236 30.3595C62.4666 30.6378 62.8954 30.7887 63.3371 30.7864C63.6312 30.7857 63.9213 30.7187 64.1859 30.5903C64.4504 30.4619 64.6826 30.2754 64.8652 30.0449C66.0021 28.6242 66.6215 26.8588 66.6215 25.0392C66.6215 23.2197 66.0021 21.4543 64.8652 20.0336V19.9774Z" fill="white"/>
<path d="M50.4494 12.2247L48.9101 10.2921C48.3238 9.5605 48.0044 8.65097 48.0044 7.71345C48.0044 6.77593 48.3238 5.86639 48.9101 5.1348L50.4831 3.1685C50.6425 2.96561 50.7603 2.73333 50.8299 2.4849C50.8995 2.23648 50.9195 1.97678 50.8887 1.72063C50.8579 1.46449 50.777 1.21692 50.6505 0.992054C50.5241 0.767186 50.3546 0.569425 50.1517 0.410068C49.9488 0.250711 49.7165 0.132876 49.4681 0.0632905C49.2197 -0.00629532 48.96 -0.0262691 48.7038 0.00450991C48.4477 0.0352889 48.2001 0.116218 47.9752 0.242676C47.7504 0.369134 47.5526 0.53865 47.3933 0.741535L45.8202 2.70783C44.6833 4.12849 44.0639 5.89387 44.0639 7.71345C44.0639 9.53303 44.6833 11.2984 45.8202 12.7191L47.3933 14.6629C47.9786 15.3927 48.2977 16.3003 48.2977 17.2359C48.2977 18.1715 47.9786 19.0791 47.3933 19.809C47.233 20.0092 47.1139 20.2392 47.0429 20.4858C46.9719 20.7323 46.9504 20.9904 46.9797 21.2452C47.0089 21.5001 47.0883 21.7467 47.2133 21.9707C47.3383 22.1947 47.5064 22.3918 47.7079 22.5505C47.9081 22.7108 48.1382 22.8299 48.3847 22.9009C48.6312 22.9719 48.8893 22.9934 49.1442 22.9641C49.399 22.9349 49.6456 22.8555 49.8696 22.7305C50.0936 22.6055 50.2907 22.4374 50.4494 22.2359C51.5864 20.8152 52.2058 19.0499 52.2058 17.2303C52.2058 15.4107 51.5864 13.6453 50.4494 12.2247Z" fill="white"/>
</svg>
