<svg width="150" height="90" viewBox="0 0 150 90" fill="none" xmlns="http://www.w3.org/2000/svg">
<g clip-path="url(#clip0_70_25)">
<path d="M116.901 57.625C116.726 57.6191 116.552 57.6476 116.389 57.7089C116.225 57.7702 116.075 57.8631 115.948 57.9823C115.82 58.1016 115.718 58.2448 115.645 58.4038C115.573 58.5627 115.533 58.7344 115.527 58.9089C115.465 60.894 114.961 62.8403 114.054 64.607C113.147 66.3737 111.858 67.9165 110.281 69.1237C110.142 69.2289 110.026 69.3604 109.939 69.5106C109.852 69.6609 109.795 69.8269 109.772 69.9992C109.749 70.1714 109.761 70.3465 109.806 70.5143C109.851 70.6821 109.929 70.8393 110.035 70.9769C110.165 71.1481 110.334 71.2853 110.528 71.3766C110.723 71.468 110.937 71.5109 111.151 71.5016C111.443 71.5009 111.726 71.4026 111.955 71.2225C113.854 69.7753 115.404 67.9209 116.492 65.7958C117.579 63.6707 118.177 61.3288 118.24 58.9424C118.24 58.7675 118.205 58.5943 118.138 58.433C118.07 58.2717 117.971 58.1255 117.847 58.0029C117.722 57.8803 117.574 57.7837 117.412 57.7188C117.249 57.654 117.075 57.6221 116.901 57.625V57.625Z" fill="white" stroke="white" stroke-width="0.5" stroke-miterlimit="10"/>
<path d="M108.092 72.0039C107.987 71.6677 107.753 71.3866 107.442 71.2215C107.13 71.0564 106.766 71.0207 106.429 71.122V71.122C106.264 71.1752 106.111 71.2604 105.979 71.3729C105.847 71.4854 105.738 71.6229 105.659 71.7774C105.58 71.932 105.533 72.1006 105.519 72.2736C105.506 72.4466 105.527 72.6205 105.581 72.7854C105.664 73.0544 105.832 73.2896 106.059 73.4564C106.286 73.6231 106.56 73.7127 106.842 73.712C106.974 73.7107 107.106 73.692 107.233 73.6562V73.6562C107.562 73.5462 107.835 73.3118 107.994 73.003C108.152 72.6942 108.184 72.3356 108.081 72.0039H108.092Z" fill="white" stroke="white" stroke-width="0.5" stroke-miterlimit="10"/>
<path d="M145.234 19.0209H128.388C128.214 19.0209 128.042 19.0553 127.881 19.1222C127.721 19.1891 127.575 19.2871 127.453 19.4106C127.33 19.5342 127.233 19.6807 127.168 19.8418C127.102 20.0029 127.069 20.1754 127.071 20.3494C127.069 20.5233 127.102 20.6958 127.168 20.8569C127.233 21.018 127.33 21.1646 127.453 21.2881C127.575 21.4116 127.721 21.5096 127.881 21.5765C128.042 21.6434 128.214 21.6779 128.388 21.6778H144.933L140.132 69.4921H123.387L123.018 65.8527H134.003C134.356 65.8527 134.694 65.7128 134.943 65.4636C135.192 65.2145 135.332 64.8766 135.332 64.5243C135.329 64.1758 135.189 63.8424 134.943 63.596C134.696 63.3496 134.363 63.2098 134.015 63.2069H122.996C123.347 61.6499 123.523 60.0585 123.521 58.4623V58.1944C123.514 54.9091 122.75 51.6694 121.288 48.7276L117.838 14.5219H145.681L145.223 18.9874L145.234 19.0209ZM140.01 75.8443C140.01 76.1966 139.87 76.5345 139.62 76.7837C139.371 77.0328 139.033 77.1728 138.681 77.1728H124.838C124.486 77.1728 124.148 77.0328 123.899 76.7837C123.649 76.5345 123.509 76.1966 123.509 75.8443V72.1379H139.998V75.8331L140.01 75.8443ZM120.875 58.4512C120.869 63.4146 118.895 68.1731 115.385 71.6828C111.875 75.1925 107.117 77.1669 102.153 77.1728H101.885C96.9219 77.1669 92.1634 75.1925 88.6537 71.6828C85.144 68.1731 83.1697 63.4146 83.1637 58.4512V58.1833C83.1733 54.378 84.3374 50.6653 86.5022 47.5358C88.6669 44.4063 91.7304 42.0074 95.2876 40.6562H108.74C112.3 42.0043 115.367 44.4021 117.534 47.5321C119.701 50.662 120.866 54.3764 120.875 58.1833V58.4512V58.4512ZM96.4374 32.0378H98.1678V35.3869C98.1678 35.7392 98.3078 36.0771 98.5569 36.3263C98.8061 36.5754 99.144 36.7154 99.4963 36.7154C99.8486 36.7154 100.187 36.5754 100.436 36.3263C100.685 36.0771 100.825 35.7392 100.825 35.3869V32.0378H103.214V35.3869C103.214 35.7392 103.354 36.0771 103.603 36.3263C103.852 36.5754 104.19 36.7154 104.542 36.7154C104.893 36.7124 105.228 36.5712 105.475 36.3224C105.721 36.0735 105.86 35.7373 105.86 35.3869V32.0378H107.579V38.0104H96.4151V32.0378H96.4374ZM148.137 12.2891C148.014 12.1525 147.865 12.043 147.697 11.968C147.53 11.893 147.349 11.8541 147.165 11.8538H116.376C116.191 11.8546 116.008 11.8937 115.839 11.9686C115.67 12.0436 115.518 12.1527 115.393 12.2891C115.269 12.4273 115.175 12.5902 115.117 12.7671C115.059 12.944 115.039 13.1311 115.059 13.3162L118.14 44.0388C115.967 41.5927 113.258 39.6822 110.225 38.4569V30.7651C110.225 30.4128 110.085 30.0749 109.836 29.8257C109.586 29.5766 109.248 29.4366 108.896 29.4366H95.109C94.935 29.4366 94.7628 29.4711 94.6023 29.538C94.4417 29.6049 94.296 29.7029 94.1735 29.8264C94.051 29.9499 93.9542 30.0965 93.8887 30.2576C93.8231 30.4187 93.7902 30.5912 93.7916 30.7651V38.4569C89.8692 40.071 86.5135 42.8119 84.1488 46.333C81.7841 49.8542 80.5167 53.9976 80.5068 58.2391V58.507C80.5127 64.1751 82.767 69.6094 86.7749 73.6174C90.7829 77.6254 96.2172 79.8796 101.885 79.8855H102.153C105.915 79.8824 109.609 78.8868 112.863 76.9992C116.117 75.1115 118.815 72.3988 120.685 69.1349L120.875 70.9434V75.9001C120.889 76.9435 121.313 77.9396 122.054 78.6744C122.795 79.4092 123.794 79.824 124.838 79.8297H138.681C139.207 79.8342 139.729 79.7343 140.216 79.536C140.704 79.3377 141.147 79.0449 141.521 78.6743C141.894 78.3038 142.191 77.863 142.393 77.3772C142.596 76.8915 142.7 76.3705 142.7 75.8443V70.8876L148.505 13.3162C148.527 13.131 148.509 12.9431 148.451 12.7657C148.393 12.5884 148.297 12.4257 148.17 12.2891H148.137Z" fill="white" stroke="white" stroke-miterlimit="10"/>
<path d="M124.838 19.4117C124.588 19.1644 124.252 19.0243 123.9 19.021C123.549 19.0243 123.212 19.1644 122.962 19.4117C122.715 19.6616 122.575 19.998 122.572 20.3495C122.575 20.701 122.715 21.0374 122.962 21.2872C123.212 21.5345 123.549 21.6747 123.9 21.678C124.252 21.6747 124.588 21.5345 124.838 21.2872C125.085 21.0374 125.225 20.701 125.229 20.3495C125.225 19.998 125.085 19.6616 124.838 19.4117V19.4117Z" fill="white" stroke="white" stroke-width="0.5" stroke-miterlimit="10"/>
<path d="M107.869 59.59C106.353 59.4269 104.945 58.7305 103.895 57.6252C104.006 57.5135 104.118 57.3907 104.23 57.2568C105.223 56.3561 106.488 55.8104 107.824 55.705V55.705C109.348 55.8534 110.771 56.5332 111.843 57.6252C110.799 58.742 109.389 59.4471 107.869 59.6123V59.59ZM101.964 67.4716C100.885 66.4019 100.218 64.9872 100.077 63.475C100.197 62.1287 100.753 60.8584 101.662 59.8579L102.008 59.5342C103.112 60.5782 103.802 61.9854 103.951 63.4973C103.786 65.0206 103.081 66.4346 101.964 67.4828V67.4716ZM99.7308 58.0159C98.7704 58.9167 97.5366 59.4707 96.2253 59.59V59.59C94.6892 59.4417 93.2582 58.7441 92.1952 57.6252C93.2591 56.5597 94.6599 55.8968 96.1584 55.7497V55.7497C97.3928 55.8465 98.565 56.331 99.5075 57.134L99.9875 57.681L99.6526 58.0494L99.7308 58.0159ZM101.964 47.8234C103.082 48.879 103.783 50.3015 103.94 51.8312C103.826 53.145 103.276 54.383 102.377 55.3478L102.008 55.6715L101.394 55.1692C100.598 54.2256 100.125 53.052 100.043 51.82C100.199 50.3128 100.869 48.9052 101.941 47.8346L101.964 47.8234ZM114.668 56.7544C114.288 56.2967 111.52 53.1374 107.869 53.1039C107.404 53.1062 106.94 53.1548 106.485 53.249C106.592 52.8066 106.648 52.3534 106.652 51.8982C106.652 48.3035 103.426 45.4902 102.868 45.0325C102.626 44.8233 102.317 44.7083 101.997 44.7087C101.677 44.7083 101.368 44.8233 101.126 45.0325C100.669 45.4121 97.5092 48.1807 97.4757 51.8312C97.4669 52.3116 97.5156 52.7913 97.6208 53.2602C97.1778 53.1574 96.7247 53.1049 96.27 53.1039H96.203C92.7534 53.1039 90.0853 55.9618 89.5047 56.6874C89.403 56.7916 89.32 56.9124 89.2592 57.0447C89.1494 57.2673 89.1049 57.5164 89.1305 57.7633C89.1562 58.0102 89.2511 58.2448 89.4043 58.4401C89.5271 58.5964 92.4297 62.247 96.2477 62.2805H96.3035C96.7656 62.2794 97.2261 62.2269 97.6766 62.1242C97.5732 62.5708 97.5208 63.0277 97.5204 63.4861C97.5204 66.8353 100.311 69.6039 101.082 70.2737C101.191 70.3852 101.319 70.4759 101.461 70.5416C101.642 70.6304 101.84 70.6762 102.042 70.6756C102.337 70.6792 102.625 70.5806 102.857 70.3965C103.013 70.2737 106.663 67.3711 106.697 63.5531C106.696 63.0726 106.644 62.5935 106.541 62.1242C106.987 62.2276 107.444 62.28 107.903 62.2805V62.2805C111.464 62.2805 114.255 59.0541 114.712 58.4959C114.922 58.2541 115.037 57.9449 115.036 57.6252C115.037 57.3054 114.922 56.9962 114.712 56.7544H114.668Z" fill="white" stroke="white" stroke-width="0.5" stroke-miterlimit="10"/>
<path d="M132.943 51.9427V47.9015L137.408 43.436C137.408 43.6369 137.408 43.849 137.408 44.05C137.408 47.8122 134.83 50.458 132.943 51.8646V51.9427ZM132.943 33.3775C134.541 35.5082 135.816 37.863 136.727 40.366L132.943 44.1505V33.3775ZM130.297 43.9942L126.769 40.4776C127.603 38.0045 128.792 35.6656 130.297 33.5337V43.9942ZM130.297 51.8758C129.062 50.9702 128.047 49.7968 127.33 48.4434C126.613 47.09 126.211 45.5918 126.155 44.0611C126.155 43.916 126.155 43.7821 126.155 43.6481L130.275 47.7675V51.8869L130.297 51.8758ZM132.708 28.845C132.582 28.6683 132.414 28.5252 132.219 28.4279C132.025 28.3307 131.809 28.2822 131.592 28.2868C131.376 28.2778 131.162 28.3219 130.967 28.4154C130.772 28.5088 130.604 28.6487 130.476 28.8226C129.219 30.3169 128.08 31.907 127.071 33.5784C124.715 37.4299 123.498 40.9465 123.476 44.0165C123.409 51.0608 129.806 54.9123 130.866 55.504C130.975 55.5613 131.092 55.6026 131.212 55.6268V55.6268C131.301 55.6383 131.391 55.6383 131.48 55.6268C131.681 55.6251 131.879 55.5794 132.061 55.4928C132.373 55.3365 139.808 51.6078 139.875 44.0388C139.875 37.3406 133.847 30.1735 132.552 28.7557L132.708 28.845Z" fill="white" stroke="white" stroke-width="0.5" stroke-miterlimit="10"/>
<path d="M98.3171 79.1041H96.5643V71.2895C96.564 70.2765 96.2991 69.2812 95.7959 68.402C95.2927 67.5228 94.5686 66.7903 93.6953 66.277C92.8713 62.7887 90.9924 59.639 88.3143 57.2567C88.9921 56.0501 89.3459 54.6886 89.3414 53.3047V53.0926C89.1493 49.8704 87.9284 46.7947 85.8583 44.3179C85.1797 43.421 84.4333 42.5775 83.6255 41.7949C83.2788 41.4397 82.9056 41.1113 82.5092 40.8125C81.0802 33.5673 76.3245 28.3315 70.7426 27.8738L70.5528 27.5612C72.7177 26.7071 74.6258 25.3089 76.0925 23.502C77.5592 21.695 78.535 19.5402 78.9256 17.2459C78.9686 16.939 78.9384 16.6264 78.8376 16.3334C78.7367 16.0404 78.5679 15.7755 78.3451 15.5602C76.6857 13.9447 74.6358 12.7869 72.3955 12.1999C70.1552 11.613 67.801 11.6168 65.5626 12.2111C65.4357 9.89202 64.7111 7.64524 63.4591 5.68907C62.2072 3.73289 60.4705 2.13385 58.4178 1.04732C58.1473 0.912628 57.8493 0.842529 57.5471 0.842529C57.2449 0.842529 56.9468 0.912628 56.6763 1.04732C54.5985 2.1141 52.8358 3.70557 51.5629 5.66384C50.29 7.62211 49.5512 9.87915 49.4198 12.2111C47.181 11.6234 44.8285 11.6229 42.5895 12.2096C40.3504 12.7962 38.3005 13.9502 36.6374 15.5602C36.3924 15.7686 36.2037 16.0353 36.0886 16.3357C35.9735 16.6361 35.9357 16.9606 35.9787 17.2794C36.3506 19.5877 37.3202 21.7584 38.791 23.5759C40.2618 25.3934 42.1827 26.7943 44.3627 27.6393V27.7063H24.9936C21.3877 27.7063 18.0386 29.6153 15.5826 33.0984C13.1769 36.667 11.9188 40.8854 11.9767 45.1887C11.955 48.4512 12.6485 51.6788 14.0085 54.6444H13.908C10.3021 54.6444 6.96418 56.5534 4.49699 60.0253C2.08128 63.6184 0.822996 67.8647 0.89113 72.1938C0.819537 76.5199 2.07822 80.7636 4.49699 84.3511C6.96418 87.823 10.3021 89.7432 13.908 89.7432H94.432C95.9756 89.7402 97.455 89.125 98.5455 88.0324C99.6359 86.9399 100.248 85.4593 100.248 83.9157V81.002C100.242 80.4947 100.036 80.0103 99.6742 79.6547C99.3123 79.2991 98.8244 79.1012 98.3171 79.1041V79.1041Z" fill="#303030"/>
<path d="M36.0345 78.0885C34.4381 78.0885 32.6854 75.6771 32.6854 72.2275C32.6854 68.7779 34.4604 66.3554 36.0345 66.3554C37.6086 66.3554 39.3836 68.7667 39.3836 72.2275C39.3836 75.6883 37.6086 78.0885 36.0345 78.0885ZM36.0345 62.4592C31.9709 62.4592 28.7893 66.7349 28.7893 72.2052C28.7893 77.6754 31.9709 82.0292 36.0345 82.0292C40.0981 82.0292 43.2798 77.7424 43.2798 72.2833C43.2798 66.8242 40.0981 62.5374 36.0345 62.5374V62.4592Z" fill="white"/>
<path d="M61.2422 54.678C60.9876 54.678 60.7356 54.7283 60.5005 54.8261C60.2655 54.9238 60.052 55.0671 59.8726 55.2476C59.6931 55.4281 59.5511 55.6423 59.4547 55.8779C59.3583 56.1136 59.3094 56.3659 59.3109 56.6205C59.3049 56.8773 59.3505 57.1327 59.4451 57.3716C59.5396 57.6105 59.681 57.828 59.8611 58.0112C60.0412 58.1944 60.2563 58.3396 60.4935 58.4382C60.7307 58.5368 60.9853 58.5868 61.2422 58.5853C61.4968 58.5868 61.7491 58.5379 61.9847 58.4415C62.2203 58.3451 62.4345 58.2031 62.615 58.0236C62.7956 57.8441 62.9389 57.6307 63.0366 57.3956C63.1344 57.1606 63.1847 56.9085 63.1847 56.654V56.654C63.1847 56.3994 63.1344 56.1473 63.0366 55.9123C62.9389 55.6772 62.7956 55.4638 62.615 55.2843C62.4345 55.1049 62.2203 54.9628 61.9847 54.8664C61.7491 54.77 61.4968 54.7212 61.2422 54.7226V54.678Z" fill="white"/>
<path d="M24.9601 51.2843C23.3637 51.2843 21.611 48.8841 21.611 45.4233C21.611 41.9625 23.3749 39.5623 24.9601 39.5623C26.5454 39.5623 28.3092 41.9737 28.3092 45.4233C28.3092 48.8729 26.5342 51.2843 24.9601 51.2843ZM24.9601 35.655C20.8965 35.655 17.7149 39.9419 17.7149 45.401C17.7149 50.86 20.8965 55.1469 24.9601 55.1469C29.0237 55.1469 32.2054 50.8712 32.2054 45.401C32.2054 39.9307 29.0237 35.655 24.9601 35.655Z" fill="white"/>
<path d="M13.908 78.0885C12.3227 78.0885 10.5589 75.6771 10.5589 72.2275C10.5589 68.7779 12.3339 66.3554 13.908 66.3554C15.4821 66.3554 17.2571 68.7667 17.2571 72.2275C17.2571 75.6883 15.4932 78.0885 13.908 78.0885ZM13.908 62.4592C9.84438 62.4592 6.66273 66.7349 6.66273 72.2052C6.66273 77.6754 9.84438 82.0292 13.908 82.0292C17.9716 82.0292 21.1532 77.7424 21.1532 72.2833C21.1532 66.8242 17.9716 62.5374 13.908 62.5374V62.4592Z" fill="white"/>
<path d="M96.3745 83.9494C96.3745 84.4646 96.1699 84.9586 95.8056 85.3229C95.4413 85.6872 94.9472 85.8919 94.432 85.8919H68.0745C67.8196 85.8946 67.567 85.8444 67.3326 85.7445C67.0981 85.6446 66.887 85.4971 66.7125 85.3114C66.5588 85.1508 66.4413 84.959 66.3681 84.749C66.2949 84.5391 66.2677 84.3159 66.2883 84.0945V82.9781H96.4304V83.9494H96.3745ZM66.1208 79.1043H64.3681C63.8548 79.1043 63.3625 79.3074 62.9985 79.6693C62.6346 80.0312 62.4286 80.5224 62.4256 81.0356V83.8824C62.3916 84.5621 62.4785 85.2425 62.6824 85.8919H44.2287C44.6639 85.4141 45.0702 84.9108 45.4456 84.3848C47.8643 80.7973 49.1231 76.5536 49.0515 72.2275C49.1196 67.8983 47.8613 63.6521 45.4456 60.059C45.0691 59.5444 44.6629 59.0523 44.2287 58.5854H53.7402C54.2554 58.5854 54.7495 58.3807 55.1138 58.0164C55.4781 57.6521 55.6827 57.1581 55.6827 56.6429C55.6828 56.3883 55.6324 56.1363 55.5346 55.9012C55.4369 55.6662 55.2936 55.4528 55.1131 55.2733C54.9326 55.0938 54.7184 54.9518 54.4828 54.8554C54.2472 54.759 53.9948 54.7101 53.7402 54.7116H35.9787C37.3483 51.7255 38.0421 48.4739 38.0105 45.1889C38.0821 40.8628 36.8235 36.6191 34.4047 33.0316C34.0349 32.5013 33.6283 31.9977 33.1878 31.5245H42.677C41.9179 34.6261 42.2654 37.8953 43.6594 40.7681C43.7804 41.0517 43.9686 41.3016 44.2078 41.4961C44.4471 41.6906 44.7302 41.8239 45.0325 41.8844C47.3439 42.2441 49.7092 41.9922 51.893 41.154C54.0768 40.3157 56.003 38.9202 57.4801 37.1064C58.7356 38.6679 60.3298 39.9235 62.142 40.7784C63.9541 41.6332 65.937 42.0649 67.9405 42.0407C68.6026 42.05 69.2641 41.9977 69.9165 41.8844C70.2198 41.8229 70.5039 41.6893 70.7448 41.4951C70.9857 41.3008 71.1764 41.0514 71.3008 40.7681C72.5646 38.1183 72.9554 35.1361 72.4172 32.2501C75.4649 33.5786 77.9209 37.2515 78.747 41.9961C78.0092 42.7207 77.3193 43.4927 76.6817 44.307C74.6098 46.7793 73.3851 49.8508 73.1875 53.0705C73.1819 53.1485 73.1819 53.2269 73.1875 53.3049C73.1904 53.75 73.2277 54.1941 73.2991 54.6334H68.0745C67.8146 54.6319 67.5571 54.6824 67.3172 54.7822C67.0772 54.8819 66.8598 55.0288 66.6776 55.214C66.4955 55.3993 66.3523 55.6193 66.2567 55.8609C66.161 56.1025 66.1148 56.3608 66.1208 56.6206C66.1164 56.8761 66.1627 57.1299 66.2571 57.3674C66.3515 57.6048 66.492 57.8212 66.6706 58.0039C66.8492 58.1867 67.0623 58.3322 67.2975 58.432C67.5327 58.5318 67.7854 58.5839 68.0409 58.5854H75.0518C75.8105 59.4908 76.7585 60.219 77.829 60.7185C78.8994 61.2181 80.0664 61.4769 81.2477 61.4768C82.8079 61.4775 84.3352 61.0278 85.6462 60.1818C87.3356 61.614 88.6179 63.4661 89.3637 65.5516H71.9148C70.3828 65.5603 68.9158 66.172 67.8314 67.2543C66.747 68.3366 66.1325 69.8024 66.1208 71.3344V79.149V79.1043ZM36.0569 85.8919C33.746 85.8919 31.5914 84.5522 29.8163 82.1409C27.9903 79.4125 26.9937 76.2135 26.9472 72.9308C26.9472 72.6963 26.9472 72.4619 26.9472 72.2275C26.9472 71.993 26.9472 71.7586 26.9472 71.5241C26.9899 68.2408 27.9868 65.0408 29.8163 62.3141C30.2168 61.7452 30.669 61.2145 31.1672 60.7288C31.5802 60.4274 31.971 60.1036 32.3617 59.7576C33.4268 59.0216 34.6844 58.614 35.9787 58.5854H36.0457C37.3055 58.6654 38.5272 59.0494 39.6063 59.7046C40.6853 60.3598 41.5895 61.2667 42.2416 62.3476C44.1978 65.278 45.2071 68.7384 45.133 72.261C45.2057 75.7833 44.1965 79.2433 42.2416 82.1744C41.584 83.2591 40.6721 84.1675 39.5849 84.8211C38.4976 85.4746 37.2676 85.8536 36.0011 85.9254L36.0569 85.8919ZM22.1357 85.8919C22.5672 85.4139 22.9698 84.9107 23.3414 84.3848C23.9828 83.4796 24.536 82.5151 24.9936 81.5045C25.4512 82.5151 26.0045 83.4796 26.6459 84.3848C27.0175 84.9107 27.42 85.4139 27.8515 85.8919H22.1357ZM13.9415 85.8919C11.6306 85.8919 9.40902 84.5522 7.68981 82.1409C5.74342 79.2064 4.73866 75.748 4.80961 72.2275C4.73508 68.7064 5.74015 65.247 7.68981 62.3141C9.40902 59.8915 11.6306 58.5519 13.9415 58.5519C15.3487 58.578 16.712 59.0467 17.8377 59.8915C18.1168 60.1371 18.3959 60.3716 18.6861 60.5837C19.2476 61.1062 19.7527 61.6861 20.1932 62.3141C22.0175 65.0433 23.0139 68.2417 23.0623 71.5241C23.0623 71.7586 23.0623 71.9819 23.0623 72.2275C23.0623 72.4731 23.0623 72.6963 23.0623 72.9308C23.0107 76.2127 22.0146 79.4103 20.1932 82.1409C18.474 84.5522 16.2524 85.8919 13.9527 85.8919H13.9415ZM25.1053 62.7718C25.0746 62.8253 25.0485 62.8814 25.0271 62.9392L24.949 62.7718H25.1053V62.7718ZM18.7977 35.309C20.5169 32.8865 22.7386 31.558 25.0495 31.558C26.316 31.6297 27.546 32.0088 28.6333 32.6623C29.7205 33.3158 30.6323 34.2242 31.29 35.309C33.2199 38.2364 34.2093 41.6836 34.1256 45.1889C34.1997 48.7115 33.1904 52.1719 31.2341 55.1023C30.8375 55.6741 30.385 56.2052 29.8833 56.6875C29.4683 56.9855 29.0731 57.3099 28.7 57.6588C27.6125 58.4202 26.321 58.8364 24.9936 58.8533C23.5867 58.8358 22.222 58.3704 21.0975 57.5248C20.8184 57.2792 20.5393 57.0448 20.249 56.8215C19.6876 56.303 19.1824 55.7268 18.7419 55.1023C16.7969 52.1683 15.7993 48.708 15.884 45.1889C15.8059 41.6674 16.8113 38.2069 18.7643 35.2755L18.7977 35.309ZM40.0982 17.715C41.3392 16.7318 42.8071 16.0756 44.3673 15.8065C45.9276 15.5373 47.5304 15.6638 49.0291 16.1744L49.7883 16.4535C50.4668 19.1918 52.0043 21.6408 54.1756 23.4419C52.3306 24.4983 50.1799 24.8922 48.0802 24.5583C47.5203 24.4705 46.9679 24.3399 46.428 24.1676C44.9191 23.6959 43.5515 22.856 42.4484 21.7236C41.3453 20.5913 40.5414 19.2021 40.1093 17.6815L40.0982 17.715ZM55.7274 32.6967C55.474 33.204 55.179 33.6894 54.8455 34.148C53.9342 35.4399 52.7143 36.4833 51.2968 37.1833C49.8792 37.8833 48.3091 38.2176 46.7294 38.1557C46.1828 36.6773 46.015 35.0855 46.2412 33.5256C46.4674 31.9656 47.0804 30.4871 48.0244 29.2248C48.1807 29.0015 48.3481 28.7894 48.5268 28.5773C48.8503 28.5934 49.1745 28.5934 49.498 28.5773C51.9887 28.566 54.4259 27.8541 56.5311 26.5231C56.9769 28.6087 56.6932 30.7841 55.7274 32.6855V32.6967ZM57.4577 5.08877C58.7769 5.96187 59.8557 7.15235 60.595 8.55092C61.3342 9.9495 61.7104 11.5114 61.6888 13.0932C61.6888 13.376 61.6888 13.6439 61.6888 13.897C59.2963 15.3901 57.4425 17.6075 56.3972 20.2268C54.8102 18.8095 53.758 16.8902 53.4165 14.7901C53.3262 14.229 53.2814 13.6615 53.2825 13.0932C53.2626 11.5141 53.6371 9.95508 54.372 8.55735C55.107 7.15962 56.1791 5.96741 57.4913 5.08877H57.4577ZM60.204 25.1835C62.3059 25.384 64.2757 26.298 65.7859 27.7735V27.8405C66.1928 28.2409 66.5661 28.6741 66.9023 29.1355C67.8435 30.3991 68.4548 31.8775 68.6809 33.4369C68.907 34.9963 68.7408 36.5875 68.1973 38.0664C66.6178 38.1263 65.0484 37.7911 63.6313 37.0912C62.2141 36.3914 60.9939 35.3491 60.0813 34.0587C59.9138 33.8354 59.7686 33.6121 59.6235 33.3777C60.686 30.766 60.8855 27.8831 60.1929 25.15L60.204 25.1835ZM64.3569 16.766C64.8613 16.512 65.3837 16.2956 65.9199 16.1185C67.4189 15.6101 69.0213 15.4846 70.5812 15.7537C72.1411 16.0228 73.6088 16.6778 74.8509 17.6591C74.4188 19.1798 73.6149 20.569 72.5118 21.7013C71.4087 22.8337 70.041 23.6736 68.5321 24.1453C68.2754 24.2234 68.0075 24.3016 67.7507 24.3574C65.5918 22.5473 62.9143 21.4686 60.1035 21.2762C60.9766 19.3502 62.4757 17.7764 64.3569 16.8107V16.766ZM85.568 53.171V53.2938C85.5651 54.4121 85.1195 55.4837 84.3288 56.2744C83.538 57.0652 82.4664 57.5107 81.3482 57.5137C80.2309 57.5107 79.1604 57.0648 78.3714 56.2737C77.5824 55.4827 77.1394 54.411 77.1394 53.2938V53.1598C77.2064 49.8107 79.7406 46.562 81.3593 44.9321C82.9334 46.5174 85.4899 49.7325 85.568 53.171V53.171ZM92.7798 71.2785V79.0932H69.9835V71.2785C69.9864 70.7672 70.1908 70.2777 70.5524 69.9161C70.9139 69.5546 71.4035 69.3501 71.9148 69.3472H90.748C91.2593 69.3501 91.7489 69.5546 92.1104 69.9161C92.472 70.2777 92.6764 70.7672 92.6793 71.2785H92.7798ZM98.3617 79.0932H96.6201V71.2785C96.6198 70.2655 96.355 69.2702 95.8518 68.391C95.3485 67.5118 94.6244 66.7793 93.7511 66.266C92.9271 62.7777 91.0482 59.628 88.3701 57.2457C89.0479 56.0392 89.4017 54.6777 89.3972 53.2938V53.0817C89.2051 49.8594 87.9842 46.7838 85.9141 44.307C85.2356 43.41 84.4891 42.5665 83.6813 41.784C83.3346 41.4288 82.9614 41.1003 82.565 40.8016C81.136 33.5563 76.3803 28.3205 70.7984 27.8628L70.6087 27.5502C72.7736 26.6961 74.6816 25.298 76.1483 23.491C77.615 21.684 78.5908 19.5292 78.9815 17.2349C79.0245 16.9281 78.9942 16.6154 78.8934 16.3224C78.7925 16.0294 78.6238 15.7645 78.4009 15.5492C76.7415 13.9337 74.6916 12.7759 72.4513 12.189C70.211 11.602 67.8568 11.6058 65.6184 12.2001C65.4915 9.88103 64.767 7.63427 63.515 5.67809C62.2631 3.72191 60.5264 2.12286 58.4737 1.03633C58.2032 0.901642 57.9051 0.831543 57.6029 0.831543C57.3007 0.831543 57.0027 0.901642 56.7321 1.03633C54.6544 2.10312 52.8916 3.69458 51.6187 5.65285C50.3458 7.61113 49.6071 9.86816 49.4757 12.2001C47.2369 11.6124 44.8844 11.6119 42.6453 12.1986C40.4062 12.7852 38.3563 13.9392 36.6932 15.5492C36.4364 15.7527 36.2358 16.0185 36.1108 16.3214C35.9857 16.6243 35.9403 16.9541 35.9787 17.2796C36.3506 19.5879 37.3202 21.7586 38.791 23.5761C40.2618 25.3936 42.1827 26.7945 44.3627 27.6395V27.7065H24.9936C21.3877 27.7065 18.0386 29.6155 15.5826 33.0986C13.1769 36.6672 11.9188 40.8855 11.9767 45.1889C11.955 48.4514 12.6485 51.679 14.0085 54.6446H13.908C10.3021 54.6446 6.96418 56.5536 4.49699 60.0255C2.08128 63.6186 0.822996 67.8649 0.89113 72.194C0.819537 76.5201 2.07822 80.7638 4.49699 84.3513C6.96418 87.8232 10.3021 89.7434 13.908 89.7434H94.432C95.9756 89.7404 97.455 89.1251 98.5455 88.0326C99.6359 86.94 100.248 85.4595 100.248 83.9159V81.0022C100.248 80.7476 100.198 80.4955 100.1 80.2605C100.003 80.0254 99.8592 79.812 99.6787 79.6325C99.4982 79.4531 99.284 79.311 99.0484 79.2146C98.8128 79.1182 98.5604 79.0694 98.3059 79.0708L98.3617 79.0932Z" fill="white"/>
</g>
<defs>
<clipPath id="clip0_70_25">
<rect width="150" height="90" fill="white"/>
</clipPath>
</defs>
</svg>
