<svg width="250" height="186" viewBox="0 0 250 186" fill="none" xmlns="http://www.w3.org/2000/svg">
<g clip-path="url(#clip0_70_86)">
<path d="M133.822 140.574H142.617V163.287H144.915V140.574H153.655V138.271H133.822V140.574Z" fill="#303030"/>
<path d="M201.357 138.271H199.005V163.287H218.82V160.965H201.357V138.271Z" fill="#303030"/>
<path d="M242.653 140.502H250V138.271H242.653C239.542 138.273 236.545 139.444 234.253 141.553C231.962 143.662 230.542 146.556 230.275 149.663H227.434V151.894H230.275C230.547 154.998 231.968 157.888 234.259 159.993C236.55 162.098 239.545 163.267 242.653 163.269H250V161.056H242.653C240.146 161.054 237.726 160.13 235.855 158.458C233.983 156.785 232.789 154.482 232.501 151.985H248.046V149.663H232.501C232.769 147.15 233.953 144.825 235.827 143.134C237.701 141.443 240.132 140.505 242.653 140.502Z" fill="#303030"/>
<path d="M182.917 138.271C182.718 138.47 181.868 139.577 175.516 148.484L175.208 148.901L174.882 148.484C168.531 139.577 167.644 138.47 167.481 138.271H164.785L174.014 151.205V163.269H176.402V151.205L185.632 138.271H182.917Z" fill="#303030"/>
<path d="M22.0955 142.279C21.682 141.375 21.078 140.571 20.3252 139.923C19.5724 139.275 18.6885 138.798 17.7343 138.524L17.1191 138.379H16.9562C16.6008 138.351 16.2439 138.351 15.8885 138.379H2.82302V149.826H0V152.021H2.82302V163.269H5.13934V152.021H15.9971C17.1353 152 18.2504 151.695 19.2412 151.133C20.232 150.571 21.0671 149.77 21.671 148.802C22.2748 147.835 22.6283 146.732 22.6993 145.593C22.7702 144.453 22.5565 143.315 22.0775 142.279H22.0955ZM20.4126 145.218C20.4392 145.496 20.4392 145.775 20.4126 146.053V146.053C20.1978 147.074 19.6408 147.991 18.8343 148.651C18.0277 149.311 17.0202 149.674 15.979 149.681H5.13934V140.61H15.8885C17.0853 140.61 18.2332 141.086 19.0811 141.932C19.9291 142.779 20.4078 143.928 20.4126 145.128V145.218Z" fill="#303030"/>
<path d="M49.4752 152.021C50.6105 151.848 51.6843 151.392 52.5981 150.695C53.5118 149.997 54.2363 149.081 54.705 148.03C55.1073 147.117 55.299 146.125 55.266 145.128C55.2582 143.631 54.7675 142.178 53.8672 140.984C52.9669 139.791 51.7055 138.921 50.2714 138.506L49.6562 138.361H49.4933C49.1319 138.333 48.7689 138.333 48.4075 138.361H35.3601V149.808H32.5733V152.021H35.3963V163.269H37.7126V152.021H46.8512C47.2856 152.711 48.8056 155.323 53.1849 163.015L53.4383 163.45L55.4651 162.434L49.4752 152.021ZM48.299 149.699H37.6764V140.629H48.4075C49.6014 140.633 50.7459 141.107 51.5952 141.948C52.4444 142.789 52.9307 143.931 52.9497 145.128C52.9497 145.128 52.9497 145.128 52.9497 145.128C52.9766 145.405 52.9766 145.685 52.9497 145.962V145.962C52.7342 146.986 52.1746 147.906 51.3643 148.566C50.5541 149.226 49.5423 149.588 48.498 149.59L48.299 149.699Z" fill="#303030"/>
<path d="M77.4159 163.541C76.1523 163.582 74.8931 163.372 73.7104 162.925C72.5277 162.477 71.4447 161.8 70.5234 160.932C69.6022 160.064 68.8609 159.023 68.3419 157.867C67.8229 156.712 67.5365 155.465 67.4991 154.198V147.25C67.4991 144.604 68.5477 142.066 70.4143 140.195C72.2808 138.324 74.8124 137.272 77.452 137.272C80.0917 137.272 82.6233 138.324 84.4898 140.195C86.3564 142.066 87.405 144.604 87.405 147.25V154.198C87.3677 155.471 87.079 156.724 86.5555 157.885C86.032 159.045 85.2841 160.09 84.3551 160.959C83.4262 161.828 82.3345 162.503 81.1434 162.946C79.9523 163.389 78.6853 163.591 77.4159 163.541V163.541ZM77.4159 140.375C75.5076 140.291 73.6436 140.966 72.2301 142.254C70.8166 143.542 69.9682 145.338 69.8697 147.25V154.198C69.8697 156.216 70.6695 158.152 72.0932 159.579C73.5168 161.006 75.4477 161.808 77.4611 161.808C79.4745 161.808 81.4054 161.006 82.829 159.579C84.2527 158.152 85.0525 156.216 85.0525 154.198V147.25C85.0039 146.295 84.7676 145.359 84.357 144.496C83.9464 143.633 83.3697 142.86 82.66 142.221C81.9504 141.582 81.1217 141.09 80.2217 140.773C79.3218 140.456 78.3682 140.321 77.4159 140.375V140.375Z" fill="#303030"/>
<path d="M108.379 140.556H121.245V138.252H108.379C106.556 138.252 104.808 138.975 103.516 140.263C102.224 141.552 101.493 143.301 101.484 145.127C101.502 146.807 102.148 148.419 103.294 149.644C103.926 150.362 104.703 150.939 105.573 151.336C106.443 151.733 107.387 151.941 108.342 151.948H114.495C115.689 151.943 116.836 152.412 117.687 153.251C118.538 154.09 119.023 155.233 119.037 156.429C119.023 157.643 118.533 158.803 117.673 159.659C116.813 160.514 115.652 160.996 114.441 161.001H101.484V163.268H114.368C116.183 163.259 117.921 162.535 119.208 161.252C120.494 159.969 121.226 158.23 121.245 156.411C121.23 154.741 120.583 153.14 119.435 151.93C118.802 151.217 118.028 150.644 117.162 150.247C116.296 149.851 115.357 149.639 114.405 149.626H108.324C107.124 149.626 105.974 149.149 105.125 148.298C104.277 147.447 103.8 146.294 103.8 145.091C103.8 143.888 104.277 142.735 105.125 141.884C105.974 141.034 107.124 140.556 108.324 140.556H108.379Z" fill="#303030"/>
<path d="M129.678 172.774H128.556V185.02H129.678V172.774Z" fill="#303030"/>
<path d="M137.242 185.219L129.406 178.888L137.242 172.575L137.948 173.464L131.198 178.888L137.948 184.33L137.242 185.219Z" fill="#303030"/>
<path d="M169.598 185.02V172.774H168.476V183.26L161.021 172.774H159.772V185.02H160.894V174.534L168.35 185.02H169.598Z" fill="#303030"/>
<path d="M105.773 172.774C105.682 172.883 105.266 173.427 102.153 177.781L102.009 177.999L101.846 177.781C98.7333 173.427 98.2266 172.883 98.2266 172.774H96.9055L101.339 179.124V185.038H102.515V179.124L107.039 172.774H105.773Z" fill="#303030"/>
<path d="M88.6717 179.596C89.2255 179.513 89.7497 179.292 90.1956 178.953C90.6416 178.614 90.9951 178.167 91.2233 177.654C91.421 177.222 91.52 176.751 91.5129 176.276C91.514 175.793 91.4089 175.316 91.2052 174.879C91.0019 174.443 90.7077 174.055 90.3425 173.742C89.9773 173.429 89.5496 173.198 89.088 173.065H88.7803H88.6717C88.4973 173.046 88.3214 173.046 88.1469 173.065H81.7771V178.652H80.4017V179.596H81.7771V185.038H82.9171V179.596H87.3869C87.6041 179.922 88.346 181.21 90.4814 185.038L90.608 185.256L91.6033 184.748L88.6717 179.596ZM82.899 174.008H88.1469C88.4408 173.994 88.7346 174.037 89.0114 174.137C89.2882 174.237 89.5425 174.391 89.7596 174.59C89.9767 174.789 90.1522 175.03 90.2761 175.297C90.4 175.565 90.4698 175.854 90.4814 176.149V176.149C90.499 176.287 90.499 176.428 90.4814 176.566V176.566C90.3882 177.075 90.1199 177.536 89.7232 177.867C89.3264 178.199 88.8263 178.38 88.3098 178.38H83.0619L82.899 174.008Z" fill="#303030"/>
<path d="M116.612 185.147C115.37 185.186 114.163 184.731 113.255 183.881C112.346 183.032 111.81 181.856 111.763 180.611V177.183C111.868 175.966 112.424 174.833 113.322 174.007C114.22 173.181 115.394 172.723 116.612 172.723C117.831 172.723 119.005 173.181 119.903 174.007C120.801 174.833 121.357 175.966 121.462 177.183V180.611C121.415 181.856 120.879 183.032 119.97 183.881C119.061 184.731 117.854 185.186 116.612 185.147V185.147ZM116.612 173.808C115.695 173.806 114.811 174.153 114.139 174.78C113.467 175.406 113.057 176.265 112.993 177.183V180.611C112.993 181.593 113.382 182.534 114.074 183.228C114.767 183.922 115.706 184.312 116.685 184.312C117.664 184.312 118.603 183.922 119.295 183.228C119.987 182.534 120.376 181.593 120.376 180.611V177.183C120.311 176.239 119.881 175.359 119.178 174.729C118.475 174.099 117.555 173.768 116.612 173.808V173.808Z" fill="#303030"/>
<path d="M152.244 185.038H153.438L149.077 172.774H147.865L145.168 180.357H143.467V181.41H144.77L143.503 185.038H144.77L146.037 181.41H151.05L152.244 185.038ZM146.363 180.357L148.48 174.462L150.579 180.357H146.363Z" fill="#303030"/>
<path d="M124.991 118.442C113.304 118.446 101.879 114.975 92.1605 108.469C82.4418 101.963 74.866 92.7137 70.3913 81.8911C65.9165 71.0685 64.7439 59.1587 67.0216 47.668C69.2994 36.1773 74.9252 25.6218 83.1875 17.3365C91.4499 9.05119 101.978 3.40826 113.439 1.12138C124.901 -1.1655 136.782 0.0063944 147.579 4.48885C158.377 8.97131 167.605 16.563 174.098 26.3037C180.592 36.0445 184.057 47.4967 184.057 59.2121C184.043 74.9134 177.816 89.9677 166.742 101.072C155.669 112.176 140.654 118.423 124.991 118.442V118.442ZM124.991 2.23143C113.743 2.22426 102.746 5.56154 93.3903 11.8211C84.0349 18.0806 76.7415 26.9812 72.433 37.3968C68.1245 47.8124 66.9944 59.275 69.1857 70.3346C71.377 81.3942 76.7912 91.5538 84.7433 99.5281C92.6955 107.502 102.828 112.933 113.86 115.133C124.892 117.334 136.326 116.204 146.718 111.889C157.109 107.573 165.99 100.264 172.237 90.8877C178.484 81.5111 181.817 70.4877 181.813 59.2121C181.794 44.1089 175.802 29.6296 165.15 18.9483C154.499 8.26702 140.057 2.25543 124.991 2.23143V2.23143Z" fill="#303030"/>
<path d="M124.991 6.40381C114.567 6.40022 104.376 9.49585 95.7076 15.2991C87.039 21.1024 80.282 29.3525 76.2912 39.0061C72.3005 48.6596 71.2555 59.2827 73.2882 69.5317C75.3209 79.7807 80.3401 89.1951 87.7109 96.5841C95.0817 103.973 104.473 109.005 114.697 111.042C124.921 113.08 135.518 112.033 145.147 108.032C154.777 104.031 163.007 97.2577 168.796 88.5677C174.585 79.8777 177.673 69.6617 177.669 59.2121C177.669 52.2772 176.307 45.4102 173.659 39.0032C171.012 32.5962 167.132 26.7747 162.24 21.871C157.348 16.9673 151.541 13.0775 145.15 10.4236C138.759 7.76974 131.909 6.40381 124.991 6.40381ZM154.47 88.8907H95.494V29.6605H154.47V88.8907Z" fill="#303030"/>
<path d="M114.242 33.452V84.9904C117.644 86.4149 121.295 87.1484 124.982 87.1484C128.669 87.1484 132.32 86.4149 135.722 84.9904V33.452C132.32 32.0275 128.669 31.2939 124.982 31.2939C121.295 31.2939 117.644 32.0275 114.242 33.452V33.452Z" fill="#303030"/>
<path d="M136.536 33.8149V35.1574H139.124C138.286 34.6633 137.423 34.2152 136.536 33.8149V33.8149Z" fill="#303030"/>
<path d="M113.427 41.8877H108.342V52.8992H113.427V41.8877Z" fill="#303030"/>
<path d="M113.427 53.7153H108.342V64.7269H113.427V53.7153Z" fill="#303030"/>
<path d="M108.342 41.0713H113.446V33.8149C111.64 34.6292 109.929 35.639 108.342 36.8263V41.0713Z" fill="#303030"/>
<path d="M141.621 71.457H136.536V76.5546H141.621V71.457Z" fill="#303030"/>
<path d="M141.621 65.5435H136.536V70.6411H141.621V65.5435Z" fill="#303030"/>
<path d="M136.536 82.4687H140.409C140.825 82.1966 141.223 81.9063 141.621 81.6161V77.3711H136.536V82.4687Z" fill="#303030"/>
<path d="M136.536 84.6276C137.423 84.2273 138.286 83.7792 139.124 83.2852H136.536V84.6276Z" fill="#303030"/>
<path d="M113.427 65.5435H108.342V76.555H113.427V65.5435Z" fill="#303030"/>
<path d="M107.546 80.9812V77.353H103.818C104.942 78.6798 106.19 79.8949 107.546 80.9812V80.9812Z" fill="#303030"/>
<path d="M101.647 52.8989V43.9917C99.8666 46.7132 98.5801 49.7286 97.8465 52.8989H101.647Z" fill="#303030"/>
<path d="M97.1227 59.212C97.1314 61.0393 97.3132 62.8615 97.6656 64.6543H101.647V53.7153H97.7199C97.3468 55.5243 97.1468 57.3649 97.1227 59.212V59.212Z" fill="#303030"/>
<path d="M102.443 75.6298L103.149 76.555H107.546V65.5435H102.443V75.6298Z" fill="#303030"/>
<path d="M101.647 74.3781V65.5435H97.8465C98.5881 68.6885 99.8744 71.6787 101.647 74.3781V74.3781Z" fill="#303030"/>
<path d="M141.621 59.6294H136.536V64.727H141.621V59.6294Z" fill="#303030"/>
<path d="M107.528 53.7153H102.443V64.7269H107.528V53.7153Z" fill="#303030"/>
<path d="M108.342 81.6341C109.929 82.8215 111.64 83.8313 113.446 84.6455V77.3892H108.342V81.6341Z" fill="#303030"/>
<path d="M103.818 41.0711H107.546V37.4429C106.194 38.5342 104.946 39.7488 103.818 41.0711V41.0711Z" fill="#303030"/>
<path d="M102.443 42.8129V52.8992H107.546V41.8877H103.149L102.443 42.8129Z" fill="#303030"/>
<path d="M142.436 76.5546H146.815L147.521 75.6294V71.457H142.436V76.5546Z" fill="#303030"/>
<path d="M148.389 74.378C149.013 73.4134 149.58 72.414 150.09 71.3848H148.389V74.378Z" fill="#303030"/>
<path d="M148.389 70.6411H150.452C151.226 69.0075 151.832 67.2996 152.262 65.5435H148.389V70.6411Z" fill="#303030"/>
<path d="M142.436 41.8877V46.9853H147.521V42.8129L146.815 41.8877H142.436Z" fill="#303030"/>
<path d="M147.521 47.8013H142.436V52.8989H147.521V47.8013Z" fill="#303030"/>
<path d="M148.389 64.727H152.353C152.681 63.0469 152.863 61.3412 152.895 59.6294H148.389V64.727Z" fill="#303030"/>
<path d="M148.389 58.8129H152.895C152.863 57.1011 152.681 55.3955 152.353 53.7153H148.389V58.8129Z" fill="#303030"/>
<path d="M141.621 53.7153H136.536V58.8129H141.621V53.7153Z" fill="#303030"/>
<path d="M148.389 46.985H150.09C149.58 45.9557 149.013 44.9563 148.389 43.9917V46.985Z" fill="#303030"/>
<path d="M148.389 52.8989H152.172C151.739 51.1436 151.133 49.436 150.362 47.8013H148.389V52.8989Z" fill="#303030"/>
<path d="M141.621 41.8877H136.536V46.9853H141.621V41.8877Z" fill="#303030"/>
<path d="M147.521 53.7153H142.436V58.8129H147.521V53.7153Z" fill="#303030"/>
<path d="M141.621 47.8013H136.536V52.8989H141.621V47.8013Z" fill="#303030"/>
<path d="M142.436 37.4609V41.0891H146.146C145.019 39.7715 143.778 38.5572 142.436 37.4609V37.4609Z" fill="#303030"/>
<path d="M136.536 35.9736V41.0712H141.621V36.8263C141.223 36.536 140.825 36.2457 140.409 35.9736H136.536Z" fill="#303030"/>
<path d="M142.436 80.9812C143.782 79.8898 145.024 78.6752 146.146 77.353H142.436V80.9812Z" fill="#303030"/>
<path d="M147.521 59.6294H142.436V64.727H147.521V59.6294Z" fill="#303030"/>
<path d="M147.521 65.5435H142.436V70.6411H147.521V65.5435Z" fill="#303030"/>
</g>
<defs>
<clipPath id="clip0_70_86">
<rect width="250" height="185.219" fill="white"/>
</clipPath>
</defs>
</svg>
