<svg width="250" height="248" viewBox="0 0 250 248" fill="none" xmlns="http://www.w3.org/2000/svg">
<g clip-path="url(#clip0_18_257)">
<path d="M133.822 140.574H142.617V163.287H144.915V140.574H153.655V138.27H133.822V140.574Z" fill="white"/>
<path d="M201.357 138.27H199.005V163.287H218.82V160.965H201.357V138.27Z" fill="white"/>
<path d="M242.653 140.502H250V138.27H242.653C239.542 138.272 236.545 139.444 234.253 141.553C231.962 143.662 230.542 146.556 230.275 149.663H227.434V151.894H230.275C230.547 154.998 231.968 157.887 234.259 159.993C236.55 162.098 239.545 163.267 242.653 163.268H250V161.055H242.653C240.146 161.054 237.726 160.13 235.855 158.457C233.983 156.785 232.789 154.481 232.501 151.985H248.046V149.663H232.501C232.769 147.15 233.953 144.824 235.827 143.133C237.701 141.442 240.132 140.505 242.653 140.502Z" fill="white"/>
<path d="M182.917 138.27C182.718 138.47 181.868 139.576 175.516 148.484L175.208 148.901L174.882 148.484C168.531 139.576 167.644 138.47 167.481 138.27H164.785L174.014 151.205V163.268H176.402V151.205L185.632 138.27H182.917Z" fill="white"/>
<path d="M22.0955 142.279C21.682 141.375 21.078 140.571 20.3252 139.923C19.5724 139.275 18.6885 138.798 17.7343 138.524L17.1191 138.379H16.9562C16.6008 138.351 16.2439 138.351 15.8885 138.379H2.82302V149.826H0V152.021H2.82302V163.268H5.13934V152.021H15.9971C17.1353 152 18.2504 151.695 19.2412 151.133C20.232 150.571 21.0671 149.77 21.671 148.802C22.2748 147.835 22.6283 146.731 22.6993 145.592C22.7702 144.453 22.5565 143.315 22.0775 142.279H22.0955ZM20.4126 145.218C20.4392 145.496 20.4392 145.775 20.4126 146.053C20.1978 147.074 19.6408 147.991 18.8343 148.651C18.0277 149.311 17.0202 149.674 15.979 149.681H5.13934V140.61H15.8885C17.0853 140.61 18.2332 141.086 19.0811 141.932C19.9291 142.779 20.4078 143.928 20.4126 145.127V145.218Z" fill="white"/>
<path d="M49.4752 152.021C50.6105 151.848 51.6843 151.392 52.5981 150.694C53.5118 149.997 54.2363 149.081 54.705 148.03C55.1073 147.117 55.299 146.125 55.266 145.127C55.2582 143.631 54.7675 142.178 53.8672 140.984C52.9669 139.791 51.7055 138.921 50.2714 138.506L49.6562 138.361H49.4933C49.1319 138.333 48.7689 138.333 48.4075 138.361H35.3601V149.808H32.5733V152.021H35.3963V163.268H37.7126V152.021H46.8512C47.2856 152.71 48.8056 155.323 53.1849 163.014L53.4383 163.45L55.4651 162.434L49.4752 152.021ZM48.299 149.699H37.6764V140.629H48.4075C49.6014 140.633 50.7459 141.107 51.5952 141.948C52.4444 142.789 52.9307 143.931 52.9497 145.127C52.9766 145.405 52.9766 145.684 52.9497 145.962C52.7342 146.986 52.1746 147.905 51.3643 148.566C50.5541 149.226 49.5423 149.588 48.498 149.59L48.299 149.699Z" fill="white"/>
<path d="M77.4159 163.541C76.1523 163.582 74.8931 163.372 73.7104 162.925C72.5277 162.477 71.4447 161.8 70.5234 160.932C69.6022 160.064 68.8609 159.023 68.3419 157.867C67.8229 156.712 67.5365 155.465 67.4991 154.198V147.25C67.4991 144.604 68.5477 142.066 70.4143 140.195C72.2808 138.324 74.8124 137.272 77.452 137.272C80.0917 137.272 82.6233 138.324 84.4898 140.195C86.3564 142.066 87.405 144.604 87.405 147.25V154.198C87.3677 155.471 87.079 156.724 86.5555 157.885C86.032 159.045 85.2841 160.09 84.3551 160.959C83.4262 161.828 82.3345 162.503 81.1434 162.946C79.9523 163.389 78.6853 163.591 77.4159 163.541ZM77.4159 140.375C75.5076 140.291 73.6436 140.966 72.2301 142.254C70.8166 143.542 69.9682 145.338 69.8697 147.25V154.198C69.8697 156.216 70.6695 158.152 72.0932 159.579C73.5168 161.006 75.4477 161.808 77.4611 161.808C79.4745 161.808 81.4054 161.006 82.829 159.579C84.2527 158.152 85.0525 156.216 85.0525 154.198V147.25C85.0039 146.295 84.7676 145.359 84.357 144.496C83.9464 143.633 83.3697 142.86 82.66 142.221C81.9504 141.582 81.1217 141.09 80.2218 140.773C79.3218 140.456 78.3682 140.321 77.4159 140.375Z" fill="white"/>
<path d="M108.379 140.556H121.245V138.252H108.379C106.556 138.252 104.808 138.975 103.516 140.264C102.224 141.552 101.493 143.301 101.484 145.127C101.502 146.807 102.148 148.419 103.294 149.645C103.926 150.363 104.703 150.939 105.573 151.336C106.443 151.733 107.387 151.941 108.342 151.948H114.495C115.689 151.944 116.836 152.412 117.687 153.251C118.538 154.09 119.023 155.233 119.037 156.429C119.023 157.644 118.533 158.804 117.673 159.659C116.813 160.514 115.652 160.996 114.441 161.001H101.484V163.268H114.368C116.183 163.259 117.921 162.535 119.208 161.252C120.494 159.969 121.226 158.23 121.245 156.411C121.23 154.742 120.583 153.14 119.435 151.93C118.802 151.217 118.028 150.644 117.162 150.247C116.296 149.851 115.357 149.639 114.405 149.626H108.324C107.124 149.626 105.974 149.149 105.125 148.298C104.277 147.448 103.8 146.294 103.8 145.091C103.8 143.888 104.277 142.735 105.125 141.884C105.974 141.034 107.124 140.556 108.324 140.556H108.379Z" fill="white"/>
<path d="M129.678 172.774H128.556V185.019H129.678V172.774Z" fill="white"/>
<path d="M137.242 185.219L129.406 178.888L137.242 172.575L137.948 173.464L131.198 178.888L137.948 184.33L137.242 185.219Z" fill="white"/>
<path d="M169.598 185.019V172.774H168.476V183.26L161.021 172.774H159.772V185.019H160.894V174.534L168.35 185.019H169.598Z" fill="white"/>
<path d="M105.773 172.774C105.682 172.883 105.266 173.427 102.153 177.781L102.009 177.999L101.846 177.781C98.7333 173.427 98.2266 172.883 98.2266 172.774H96.9055L101.339 179.124V185.038H102.515V179.124L107.039 172.774H105.773Z" fill="white"/>
<path d="M88.6717 179.595C89.2255 179.513 89.7497 179.292 90.1956 178.953C90.6416 178.613 90.9951 178.167 91.2233 177.654C91.421 177.222 91.52 176.751 91.5129 176.275C91.514 175.793 91.4089 175.316 91.2052 174.879C91.0019 174.442 90.7077 174.055 90.3425 173.742C89.9773 173.429 89.5496 173.198 89.088 173.065H88.7803H88.6717C88.4973 173.046 88.3214 173.046 88.1469 173.065H81.7771V178.652H80.4017V179.595H81.7771V185.038H82.9171V179.595H87.3869C87.6041 179.922 88.346 181.21 90.4814 185.038L90.608 185.255L91.6033 184.747L88.6717 179.595ZM82.899 174.008H88.1469C88.4408 173.993 88.7346 174.037 89.0114 174.137C89.2882 174.237 89.5425 174.391 89.7596 174.59C89.9767 174.789 90.1522 175.029 90.2761 175.297C90.4 175.564 90.4698 175.854 90.4814 176.148C90.499 176.287 90.499 176.427 90.4814 176.566C90.3882 177.075 90.1199 177.535 89.7232 177.867C89.3264 178.198 88.8263 178.38 88.3098 178.38H83.0619L82.899 174.008Z" fill="white"/>
<path d="M116.612 185.146C115.37 185.186 114.163 184.731 113.255 183.881C112.346 183.031 111.81 181.856 111.763 180.611V177.183C111.868 175.966 112.424 174.832 113.322 174.007C114.22 173.181 115.394 172.723 116.612 172.723C117.831 172.723 119.005 173.181 119.903 174.007C120.801 174.832 121.357 175.966 121.462 177.183V180.611C121.415 181.856 120.879 183.031 119.97 183.881C119.061 184.731 117.854 185.186 116.612 185.146ZM116.612 173.808C115.695 173.806 114.811 174.153 114.139 174.78C113.467 175.406 113.057 176.265 112.993 177.183V180.611C112.993 181.593 113.382 182.534 114.074 183.228C114.767 183.922 115.706 184.312 116.685 184.312C117.664 184.312 118.603 183.922 119.295 183.228C119.987 182.534 120.376 181.593 120.376 180.611V177.183C120.311 176.239 119.881 175.359 119.178 174.729C118.475 174.098 117.555 173.768 116.612 173.808Z" fill="white"/>
<path d="M152.244 185.038H153.438L149.077 172.774H147.865L145.168 180.357H143.467V181.409H144.77L143.503 185.038H144.77L146.037 181.409H151.05L152.244 185.038ZM146.363 180.357L148.48 174.461L150.579 180.357H146.363Z" fill="white"/>
<path d="M124.991 118.442C113.304 118.446 101.879 114.975 92.1605 108.469C82.4418 101.963 74.866 92.7136 70.3913 81.891C65.9165 71.0684 64.7439 59.1586 67.0216 47.6679C69.2994 36.1772 74.9252 25.6217 83.1875 17.3364C91.4499 9.05107 101.978 3.40814 113.439 1.12126C124.901 -1.16562 136.782 0.00627233 147.579 4.48873C158.377 8.97119 167.605 16.5629 174.098 26.3036C180.592 36.0443 184.057 47.4966 184.057 59.212C184.043 74.9133 177.816 89.9676 166.742 101.072C155.669 112.176 140.654 118.423 124.991 118.442ZM124.991 2.23131C113.743 2.22414 102.746 5.56141 93.3903 11.821C84.0349 18.0805 76.7415 26.9811 72.433 37.3967C68.1245 47.8123 66.9944 59.2749 69.1857 70.3345C71.377 81.3941 76.7912 91.5536 84.7433 99.528C92.6955 107.502 102.828 112.933 113.86 115.133C124.892 117.334 136.326 116.204 146.718 111.888C157.109 107.573 165.99 100.264 172.237 90.8876C178.484 81.511 181.817 70.4876 181.813 59.212C181.794 44.1088 175.802 29.6294 165.15 18.9482C154.499 8.2669 140.057 2.25531 124.991 2.23131Z" fill="white"/>
<path d="M124.991 6.40375C114.567 6.40016 104.376 9.49579 95.7076 15.299C87.039 21.1023 80.282 29.3525 76.2912 39.006C72.3005 48.6595 71.2555 59.2826 73.2882 69.5316C75.3209 79.7806 80.3401 89.1951 87.7109 96.5841C95.0817 103.973 104.473 109.005 114.697 111.042C124.921 113.08 135.518 112.032 145.147 108.032C154.777 104.031 163.007 97.2577 168.796 88.5676C174.585 79.8776 177.673 69.6616 177.669 59.212C177.669 52.2771 176.307 45.4102 173.659 39.0032C171.012 32.5962 167.132 26.7746 162.24 21.8709C157.348 16.9672 151.541 13.0774 145.15 10.4235C138.759 7.76968 131.909 6.40375 124.991 6.40375ZM154.47 88.8906H95.494V29.6604H154.47V88.8906Z" fill="white"/>
<path d="M114.242 33.4519V84.9903C117.644 86.4148 121.295 87.1483 124.982 87.1483C128.669 87.1483 132.32 86.4148 135.722 84.9903V33.4519C132.32 32.0273 128.669 31.2938 124.982 31.2938C121.295 31.2938 117.644 32.0273 114.242 33.4519Z" fill="white"/>
<path d="M136.536 33.8147V35.1571H139.124C138.286 34.6631 137.423 34.215 136.536 33.8147Z" fill="white"/>
<path d="M113.427 41.8874H108.342V52.8989H113.427V41.8874Z" fill="white"/>
<path d="M113.427 53.7153H108.342V64.7268H113.427V53.7153Z" fill="white"/>
<path d="M108.342 41.0711H113.446V33.8147C111.64 34.6289 109.929 35.6387 108.342 36.8261V41.0711Z" fill="white"/>
<path d="M141.621 71.4572H136.536V76.5548H141.621V71.4572Z" fill="white"/>
<path d="M141.621 65.5432H136.536V70.6408H141.621V65.5432Z" fill="white"/>
<path d="M136.536 82.4687H140.409C140.825 82.1966 141.223 81.9063 141.621 81.6161V77.3711H136.536V82.4687Z" fill="white"/>
<path d="M136.536 84.6275C137.423 84.2272 138.286 83.7791 139.124 83.285H136.536V84.6275Z" fill="white"/>
<path d="M113.427 65.5432H108.342V76.5548H113.427V65.5432Z" fill="white"/>
<path d="M107.546 80.9811V77.3529H103.818C104.942 78.6797 106.19 79.8947 107.546 80.9811Z" fill="white"/>
<path d="M101.647 52.899V43.9918C99.8666 46.7133 98.5801 49.7287 97.8465 52.899H101.647Z" fill="white"/>
<path d="M97.1227 59.212C97.1314 61.0392 97.3132 62.8615 97.6656 64.6543H101.647V53.7153H97.7199C97.3468 55.5243 97.1468 57.3649 97.1227 59.212Z" fill="white"/>
<path d="M102.443 75.6296L103.149 76.5548H107.546V65.5432H102.443V75.6296Z" fill="white"/>
<path d="M101.647 74.3778V65.5432H97.8465C98.5881 68.6882 99.8744 71.6784 101.647 74.3778Z" fill="white"/>
<path d="M141.621 59.6292H136.536V64.7268H141.621V59.6292Z" fill="white"/>
<path d="M107.528 53.7153H102.443V64.7268H107.528V53.7153Z" fill="white"/>
<path d="M108.342 81.6342C109.929 82.8216 111.64 83.8314 113.446 84.6456V77.3892H108.342V81.6342Z" fill="white"/>
<path d="M103.818 41.0711H107.546V37.4429C106.194 38.5342 104.946 39.7488 103.818 41.0711Z" fill="white"/>
<path d="M102.443 42.8126V52.8989H107.546V41.8874H103.149L102.443 42.8126Z" fill="white"/>
<path d="M142.436 76.5548H146.815L147.521 75.6296V71.4572H142.436V76.5548Z" fill="white"/>
<path d="M148.389 74.3778C149.013 73.4132 149.58 72.4138 150.09 71.3846H148.389V74.3778Z" fill="white"/>
<path d="M148.389 70.6408H150.452C151.226 69.0073 151.832 67.2993 152.262 65.5432H148.389V70.6408Z" fill="white"/>
<path d="M142.436 41.8874V46.985H147.521V42.8126L146.815 41.8874H142.436Z" fill="white"/>
<path d="M147.521 47.8013H142.436V52.8989H147.521V47.8013Z" fill="white"/>
<path d="M148.389 64.7268H152.353C152.681 63.0467 152.863 61.341 152.895 59.6292H148.389V64.7268Z" fill="white"/>
<path d="M148.389 58.8129H152.895C152.863 57.1011 152.681 55.3954 152.353 53.7153H148.389V58.8129Z" fill="white"/>
<path d="M141.621 53.7153H136.536V58.8129H141.621V53.7153Z" fill="white"/>
<path d="M148.389 46.985H150.09C149.58 45.9558 149.013 44.9564 148.389 43.9918V46.985Z" fill="white"/>
<path d="M148.389 52.8989H152.172C151.739 51.1437 151.133 49.436 150.362 47.8013H148.389V52.8989Z" fill="white"/>
<path d="M141.621 41.8874H136.536V46.985H141.621V41.8874Z" fill="white"/>
<path d="M147.521 53.7153H142.436V58.8129H147.521V53.7153Z" fill="white"/>
<path d="M141.621 47.8013H136.536V52.8989H141.621V47.8013Z" fill="white"/>
<path d="M142.436 37.461V41.0892H146.146C145.019 39.7715 143.778 38.5573 142.436 37.461Z" fill="white"/>
<path d="M136.536 35.9734V41.0711H141.621V36.8261C141.223 36.5358 140.825 36.2456 140.409 35.9734H136.536Z" fill="white"/>
<path d="M142.436 80.9811C143.782 79.8897 145.024 78.6751 146.146 77.3529H142.436V80.9811Z" fill="white"/>
<path d="M147.521 59.6292H142.436V64.7268H147.521V59.6292Z" fill="white"/>
<path d="M147.521 65.5432H142.436V70.6408H147.521V65.5432Z" fill="white"/>
</g>
<g clip-path="url(#clip1_18_257)">
<path d="M28.1528 241.448C29.3335 243.064 30.9783 244.282 32.8684 244.94C33.9901 245.334 35.1723 245.527 36.361 245.511C37.5875 245.529 38.8044 245.293 39.9351 244.818C40.9501 244.394 41.8663 243.765 42.6264 242.969C43.3865 242.174 43.9739 241.23 44.3518 240.197C44.7521 239.11 44.9546 237.959 44.9497 236.8C45.0505 235.22 44.5668 233.657 43.5907 232.411C42.6041 231.286 41.4089 230.363 40.071 229.693C38.6005 228.938 37.0846 228.275 35.532 227.708C33.9467 227.122 32.4293 226.366 31.0066 225.453C29.6041 224.562 28.4049 223.386 27.4869 222.001C26.4857 220.292 26.0128 218.325 26.128 216.347C26.1061 214.771 26.4115 213.207 27.0249 211.754C27.6171 210.379 28.5139 209.157 29.6477 208.18C30.8416 207.14 32.2262 206.341 33.7246 205.829C35.4758 205.242 37.3139 204.957 39.1605 204.986C40.849 204.954 42.5322 205.188 44.148 205.68C45.5666 206.148 46.8882 206.871 48.0482 207.813C47.6833 208.504 47.383 209.228 47.1512 209.974C46.8567 210.924 46.6162 211.891 46.431 212.868H45.7107C45.481 212.239 45.2086 211.626 44.8954 211.034C44.5491 210.35 44.0896 209.73 43.5364 209.199C42.9243 208.639 42.227 208.181 41.4707 207.84C40.5603 207.437 39.5714 207.242 38.5761 207.27C37.5229 207.256 36.4764 207.44 35.4912 207.813C34.5746 208.153 33.7341 208.67 33.018 209.335C32.3179 210.006 31.7669 210.816 31.4008 211.713C31.015 212.667 30.821 213.688 30.83 214.717C30.7187 216.319 31.2026 217.906 32.1889 219.174C33.1822 220.286 34.3705 221.207 35.6951 221.892C37.1399 222.659 38.6334 223.331 40.1661 223.903C41.7482 224.457 43.2692 225.172 44.7051 226.037C46.0936 226.86 47.293 227.967 48.2249 229.285C49.2169 230.863 49.692 232.711 49.5839 234.571C49.5965 236.359 49.2594 238.132 48.5917 239.79C47.9461 241.413 46.9642 242.881 45.7107 244.098C44.3856 245.357 42.8052 246.316 41.0767 246.911C39.0761 247.603 36.9693 247.939 34.8526 247.903C32.7952 247.979 30.7434 247.641 28.8187 246.911C27.4278 246.351 26.1237 245.596 24.9457 244.668C25.2702 243.859 25.5203 243.022 25.6931 242.168C25.829 241.434 25.9649 240.483 26.0872 239.314H26.8075C27.1743 240.074 27.6256 240.789 28.1528 241.448Z" fill="white"/>
<path d="M91.3994 247.074C90.873 246.995 90.3417 246.954 89.8094 246.951H86.6294C86.0971 246.954 85.5657 246.995 85.0394 247.074C84.7495 246.168 84.369 245.053 83.8979 243.731C83.4087 242.44 82.8786 241.013 82.2943 239.654C81.7099 238.295 81.1256 236.786 80.5276 235.319C79.9297 233.851 79.3589 232.465 78.8425 231.147L74.9422 231.052H70.9741H67.3048L63.6356 231.147C62.3582 234.272 61.1894 237.248 60.1566 240.075C59.1238 242.902 58.3356 245.226 57.8056 247.074C57.0703 246.989 56.3306 246.948 55.5905 246.951C54.8458 246.948 54.1016 246.989 53.3618 247.074C56.6142 240.061 59.7852 233.09 62.8746 226.159C65.964 219.228 69.0669 212.175 72.1835 205H73.3251C74.2945 207.328 75.3363 209.842 76.4507 212.542L79.8753 220.696C81.044 223.414 82.1992 226.2 83.3679 228.932C84.5366 231.663 85.6238 234.191 86.643 236.528C87.6622 238.866 88.5863 240.972 89.3609 242.807C90.1355 244.641 90.883 246.109 91.3994 247.074ZM64.7772 228.388C65.8236 228.388 66.9107 228.388 68.025 228.388C69.1394 228.388 70.2266 228.388 71.273 228.388C72.3194 228.388 73.5153 228.388 74.6432 228.388C75.7712 228.388 76.8856 228.388 77.9999 228.306L71.2866 213.113L64.7772 228.388Z" fill="white"/>
<path d="M129.627 225.262C129.627 219.568 129.627 215.192 129.627 212.107C129.64 209.979 129.54 207.852 129.328 205.734L130.592 205.938C130.992 206.003 131.397 206.035 131.802 206.033C132.411 206.02 133.015 205.919 133.595 205.734C133.473 207.093 133.365 208.805 133.242 210.748C133.12 212.692 133.025 214.825 132.943 217C132.862 219.174 132.78 221.512 132.699 223.795C132.617 226.078 132.563 228.415 132.522 230.589C132.523 233.048 132.105 235.488 131.285 237.806C130.576 239.834 129.44 241.688 127.956 243.241C126.458 244.751 124.636 245.899 122.629 246.598C120.299 247.396 117.848 247.783 115.385 247.74C109.379 247.74 105.012 246.381 102.285 243.663C99.5578 240.945 98.1988 236.637 98.2079 230.739C98.2079 228.85 98.2078 227.178 98.3573 225.724C98.5068 224.27 98.5069 222.762 98.5069 221.24C98.5069 217.879 98.4661 214.893 98.3845 212.284C98.303 209.675 98.2215 207.473 98.1399 205.679C98.6292 205.761 99.1455 205.829 99.7027 205.883C100.221 205.946 100.743 205.978 101.266 205.978C101.72 205.985 102.175 205.953 102.625 205.883L103.916 205.679C103.834 206.563 103.753 207.718 103.685 209.131C103.617 210.545 103.521 212.162 103.44 213.969C103.358 215.777 103.304 217.72 103.263 219.799C103.223 221.878 103.263 224.053 103.263 226.295C103.263 227.654 103.263 229.013 103.263 230.521C103.298 231.952 103.439 233.379 103.685 234.789C103.912 236.154 104.305 237.486 104.853 238.757C105.386 240.01 106.173 241.139 107.164 242.073C108.262 243.063 109.553 243.817 110.955 244.288C112.775 244.877 114.682 245.153 116.595 245.103C118.494 245.158 120.384 244.83 122.153 244.138C123.554 243.575 124.816 242.712 125.849 241.611C126.819 240.561 127.584 239.34 128.105 238.009C128.653 236.634 129.05 235.203 129.288 233.742C129.518 232.271 129.654 230.787 129.695 229.298C129.6 227.98 129.627 226.621 129.627 225.262Z" fill="white"/>
<path d="M164.186 231.473C158.968 225.883 153.758 220.325 148.558 214.798C148.558 215.926 148.476 217.421 148.436 219.31C148.395 221.199 148.436 223.754 148.436 227.002C148.436 227.844 148.436 228.891 148.436 230.127C148.436 231.364 148.436 232.669 148.436 234.028C148.436 235.387 148.436 236.746 148.531 238.173C148.626 239.599 148.612 240.89 148.653 242.086C148.694 243.282 148.734 244.342 148.775 245.239C148.816 246.136 148.843 246.748 148.884 247.074C148.19 246.989 147.491 246.948 146.791 246.951C146.046 246.948 145.302 246.989 144.562 247.074C144.644 246.666 144.739 245.932 144.834 244.845C144.929 243.758 145.024 242.48 145.106 240.972C145.188 239.464 145.269 237.833 145.378 236.08C145.487 234.327 145.554 232.546 145.609 230.78C145.663 229.013 145.718 227.301 145.758 225.616C145.799 223.931 145.758 222.436 145.758 221.117C145.758 217.258 145.758 213.951 145.758 211.197C145.758 208.479 145.677 206.373 145.609 205H146.56C149.006 207.655 151.62 210.49 154.401 213.507C157.183 216.524 159.951 219.509 162.705 222.463C165.423 225.412 168.045 228.198 170.519 230.82C172.992 233.443 175.126 235.672 176.974 237.52V229.366C176.974 225.167 176.974 221.063 176.879 217.136C176.784 213.208 176.689 209.39 176.498 205.87C177.163 206.052 177.848 206.152 178.537 206.169C179.19 206.146 179.837 206.045 180.467 205.87C180.385 206.753 180.29 208.071 180.195 209.838C180.1 211.605 179.991 213.48 179.896 215.478C179.801 217.475 179.705 219.446 179.624 221.376C179.542 223.305 179.502 224.841 179.502 225.996V229.611C179.502 230.97 179.502 232.397 179.502 233.878C179.502 235.359 179.502 236.841 179.502 238.349C179.502 239.858 179.502 241.257 179.502 242.562C179.502 243.867 179.502 244.995 179.502 245.959V247.93H178.659C174.211 242.548 169.386 237.063 164.186 231.473Z" fill="white"/>
<path d="M225 247.074C224.474 246.995 223.942 246.954 223.41 246.951H220.216C219.684 246.954 219.153 246.995 218.626 247.074C218.355 246.168 217.974 245.053 217.485 243.731C217.009 242.44 216.479 241.013 215.895 239.654L214.128 235.319C213.517 233.865 212.96 232.465 212.443 231.147L208.529 231.052H204.561H200.905L197.236 231.147C195.959 234.272 194.795 237.248 193.744 240.075C192.711 242.902 191.923 245.226 191.406 247.074C190.666 246.989 189.922 246.948 189.177 246.951C188.437 246.948 187.698 246.989 186.962 247.074C190.197 240.061 193.368 233.09 196.475 226.159C199.583 219.228 202.699 212.175 205.825 205H206.966C207.931 207.324 208.964 209.838 210.092 212.542C211.22 215.247 212.348 217.978 213.517 220.696C214.685 223.414 215.84 226.2 216.996 228.932C218.151 231.663 219.252 234.191 220.271 236.528C221.29 238.866 222.214 240.972 222.989 242.807C223.763 244.641 224.484 246.109 225 247.074ZM198.378 228.388C199.424 228.388 200.498 228.388 201.626 228.388C202.754 228.388 203.827 228.388 204.874 228.388C205.92 228.388 207.116 228.388 208.23 228.388C209.345 228.388 210.473 228.388 211.601 228.306L204.928 213.032L198.378 228.388Z" fill="white"/>
</g>
<defs>
<clipPath id="clip0_18_257">
<rect width="250" height="185.219" fill="white"/>
</clipPath>
<clipPath id="clip1_18_257">
<rect width="200" height="42.8484" fill="white" transform="translate(25 205)"/>
</clipPath>
</defs>
</svg>
